<?xml version="1.0" encoding="utf-8"?>
<svg xmlns="http://www.w3.org/2000/svg" xmlns:xlink="http://www.w3.org/1999/xlink" width="600" height="400" viewBox="0 0 2400 1600">
<defs>
  <clipPath id="clip600">
    <rect x="0" y="0" width="2400" height="1600"/>
  </clipPath>
</defs>
<path clip-path="url(#clip600)" d="
M0 1600 L2400 1600 L2400 0 L0 0  Z
  " fill="#ffffff" fill-rule="evenodd" fill-opacity="1"/>
<defs>
  <clipPath id="clip601">
    <rect x="480" y="0" width="1681" height="1600"/>
  </clipPath>
</defs>
<path clip-path="url(#clip600)" d="
M175.445 1423.18 L2352.76 1423.18 L2352.76 123.472 L175.445 123.472  Z
  " fill="#ffffff" fill-rule="evenodd" fill-opacity="1"/>
<defs>
  <clipPath id="clip602">
    <rect x="175" y="123" width="2178" height="1301"/>
  </clipPath>
</defs>
<polyline clip-path="url(#clip602)" style="stroke:#000000; stroke-linecap:round; stroke-linejoin:round; stroke-width:2; stroke-opacity:0.1; fill:none" points="
  232.951,1423.18 232.951,123.472 
  "/>
<polyline clip-path="url(#clip602)" style="stroke:#000000; stroke-linecap:round; stroke-linejoin:round; stroke-width:2; stroke-opacity:0.1; fill:none" points="
  644.587,1423.18 644.587,123.472 
  "/>
<polyline clip-path="url(#clip602)" style="stroke:#000000; stroke-linecap:round; stroke-linejoin:round; stroke-width:2; stroke-opacity:0.1; fill:none" points="
  1056.22,1423.18 1056.22,123.472 
  "/>
<polyline clip-path="url(#clip602)" style="stroke:#000000; stroke-linecap:round; stroke-linejoin:round; stroke-width:2; stroke-opacity:0.1; fill:none" points="
  1467.86,1423.18 1467.86,123.472 
  "/>
<polyline clip-path="url(#clip602)" style="stroke:#000000; stroke-linecap:round; stroke-linejoin:round; stroke-width:2; stroke-opacity:0.1; fill:none" points="
  1879.5,1423.18 1879.5,123.472 
  "/>
<polyline clip-path="url(#clip602)" style="stroke:#000000; stroke-linecap:round; stroke-linejoin:round; stroke-width:2; stroke-opacity:0.1; fill:none" points="
  2291.13,1423.18 2291.13,123.472 
  "/>
<polyline clip-path="url(#clip600)" style="stroke:#000000; stroke-linecap:round; stroke-linejoin:round; stroke-width:4; stroke-opacity:1; fill:none" points="
  175.445,1423.18 2352.76,1423.18 
  "/>
<polyline clip-path="url(#clip600)" style="stroke:#000000; stroke-linecap:round; stroke-linejoin:round; stroke-width:4; stroke-opacity:1; fill:none" points="
  232.951,1423.18 232.951,1404.28 
  "/>
<polyline clip-path="url(#clip600)" style="stroke:#000000; stroke-linecap:round; stroke-linejoin:round; stroke-width:4; stroke-opacity:1; fill:none" points="
  644.587,1423.18 644.587,1404.28 
  "/>
<polyline clip-path="url(#clip600)" style="stroke:#000000; stroke-linecap:round; stroke-linejoin:round; stroke-width:4; stroke-opacity:1; fill:none" points="
  1056.22,1423.18 1056.22,1404.28 
  "/>
<polyline clip-path="url(#clip600)" style="stroke:#000000; stroke-linecap:round; stroke-linejoin:round; stroke-width:4; stroke-opacity:1; fill:none" points="
  1467.86,1423.18 1467.86,1404.28 
  "/>
<polyline clip-path="url(#clip600)" style="stroke:#000000; stroke-linecap:round; stroke-linejoin:round; stroke-width:4; stroke-opacity:1; fill:none" points="
  1879.5,1423.18 1879.5,1404.28 
  "/>
<polyline clip-path="url(#clip600)" style="stroke:#000000; stroke-linecap:round; stroke-linejoin:round; stroke-width:4; stroke-opacity:1; fill:none" points="
  2291.13,1423.18 2291.13,1404.28 
  "/>
<path clip-path="url(#clip600)" d="M232.951 1454.1 Q229.34 1454.1 227.511 1457.66 Q225.706 1461.2 225.706 1468.33 Q225.706 1475.44 227.511 1479.01 Q229.34 1482.55 232.951 1482.55 Q236.585 1482.55 238.391 1479.01 Q240.219 1475.44 240.219 1468.33 Q240.219 1461.2 238.391 1457.66 Q236.585 1454.1 232.951 1454.1 M232.951 1450.39 Q238.761 1450.39 241.817 1455 Q244.895 1459.58 244.895 1468.33 Q244.895 1477.06 241.817 1481.67 Q238.761 1486.25 232.951 1486.25 Q227.141 1486.25 224.062 1481.67 Q221.006 1477.06 221.006 1468.33 Q221.006 1459.58 224.062 1455 Q227.141 1450.39 232.951 1450.39 Z" fill="#000000" fill-rule="evenodd" fill-opacity="1" /><path clip-path="url(#clip600)" d="M604.194 1481.64 L611.833 1481.64 L611.833 1455.28 L603.523 1456.95 L603.523 1452.69 L611.787 1451.02 L616.463 1451.02 L616.463 1481.64 L624.101 1481.64 L624.101 1485.58 L604.194 1485.58 L604.194 1481.64 Z" fill="#000000" fill-rule="evenodd" fill-opacity="1" /><path clip-path="url(#clip600)" d="M643.546 1454.1 Q639.935 1454.1 638.106 1457.66 Q636.3 1461.2 636.3 1468.33 Q636.3 1475.44 638.106 1479.01 Q639.935 1482.55 643.546 1482.55 Q647.18 1482.55 648.986 1479.01 Q650.814 1475.44 650.814 1468.33 Q650.814 1461.2 648.986 1457.66 Q647.18 1454.1 643.546 1454.1 M643.546 1450.39 Q649.356 1450.39 652.411 1455 Q655.49 1459.58 655.49 1468.33 Q655.49 1477.06 652.411 1481.67 Q649.356 1486.25 643.546 1486.25 Q637.736 1486.25 634.657 1481.67 Q631.601 1477.06 631.601 1468.33 Q631.601 1459.58 634.657 1455 Q637.736 1450.39 643.546 1450.39 Z" fill="#000000" fill-rule="evenodd" fill-opacity="1" /><path clip-path="url(#clip600)" d="M673.708 1454.1 Q670.097 1454.1 668.268 1457.66 Q666.462 1461.2 666.462 1468.33 Q666.462 1475.44 668.268 1479.01 Q670.097 1482.55 673.708 1482.55 Q677.342 1482.55 679.147 1479.01 Q680.976 1475.44 680.976 1468.33 Q680.976 1461.2 679.147 1457.66 Q677.342 1454.1 673.708 1454.1 M673.708 1450.39 Q679.518 1450.39 682.573 1455 Q685.652 1459.58 685.652 1468.33 Q685.652 1477.06 682.573 1481.67 Q679.518 1486.25 673.708 1486.25 Q667.898 1486.25 664.819 1481.67 Q661.763 1477.06 661.763 1468.33 Q661.763 1459.58 664.819 1455 Q667.898 1450.39 673.708 1450.39 Z" fill="#000000" fill-rule="evenodd" fill-opacity="1" /><path clip-path="url(#clip600)" d="M1019.92 1481.64 L1036.24 1481.64 L1036.24 1485.58 L1014.29 1485.58 L1014.29 1481.64 Q1016.95 1478.89 1021.54 1474.26 Q1026.14 1469.61 1027.32 1468.27 Q1029.57 1465.74 1030.45 1464.01 Q1031.35 1462.25 1031.35 1460.56 Q1031.35 1457.8 1029.41 1456.07 Q1027.49 1454.33 1024.38 1454.33 Q1022.18 1454.33 1019.73 1455.09 Q1017.3 1455.86 1014.52 1457.41 L1014.52 1452.69 Q1017.35 1451.55 1019.8 1450.97 Q1022.25 1450.39 1024.29 1450.39 Q1029.66 1450.39 1032.86 1453.08 Q1036.05 1455.77 1036.05 1460.26 Q1036.05 1462.39 1035.24 1464.31 Q1034.45 1466.2 1032.35 1468.8 Q1031.77 1469.47 1028.67 1472.69 Q1025.56 1475.88 1019.92 1481.64 Z" fill="#000000" fill-rule="evenodd" fill-opacity="1" /><path clip-path="url(#clip600)" d="M1056.05 1454.1 Q1052.44 1454.1 1050.61 1457.66 Q1048.81 1461.2 1048.81 1468.33 Q1048.81 1475.44 1050.61 1479.01 Q1052.44 1482.55 1056.05 1482.55 Q1059.68 1482.55 1061.49 1479.01 Q1063.32 1475.44 1063.32 1468.33 Q1063.32 1461.2 1061.49 1457.66 Q1059.68 1454.1 1056.05 1454.1 M1056.05 1450.39 Q1061.86 1450.39 1064.92 1455 Q1067.99 1459.58 1067.99 1468.33 Q1067.99 1477.06 1064.92 1481.67 Q1061.86 1486.25 1056.05 1486.25 Q1050.24 1486.25 1047.16 1481.67 Q1044.11 1477.06 1044.11 1468.33 Q1044.11 1459.58 1047.16 1455 Q1050.24 1450.39 1056.05 1450.39 Z" fill="#000000" fill-rule="evenodd" fill-opacity="1" /><path clip-path="url(#clip600)" d="M1086.21 1454.1 Q1082.6 1454.1 1080.77 1457.66 Q1078.97 1461.2 1078.97 1468.33 Q1078.97 1475.44 1080.77 1479.01 Q1082.6 1482.55 1086.21 1482.55 Q1089.85 1482.55 1091.65 1479.01 Q1093.48 1475.44 1093.48 1468.33 Q1093.48 1461.2 1091.65 1457.66 Q1089.85 1454.1 1086.21 1454.1 M1086.21 1450.39 Q1092.02 1450.39 1095.08 1455 Q1098.16 1459.58 1098.16 1468.33 Q1098.16 1477.06 1095.08 1481.67 Q1092.02 1486.25 1086.21 1486.25 Q1080.4 1486.25 1077.32 1481.67 Q1074.27 1477.06 1074.27 1468.33 Q1074.27 1459.58 1077.32 1455 Q1080.4 1450.39 1086.21 1450.39 Z" fill="#000000" fill-rule="evenodd" fill-opacity="1" /><path clip-path="url(#clip600)" d="M1441.62 1466.95 Q1444.98 1467.66 1446.85 1469.93 Q1448.75 1472.2 1448.75 1475.53 Q1448.75 1480.65 1445.23 1483.45 Q1441.71 1486.25 1435.23 1486.25 Q1433.06 1486.25 1430.74 1485.81 Q1428.45 1485.39 1426 1484.54 L1426 1480.02 Q1427.94 1481.16 1430.26 1481.74 Q1432.57 1482.32 1435.09 1482.32 Q1439.49 1482.32 1441.78 1480.58 Q1444.1 1478.84 1444.1 1475.53 Q1444.1 1472.48 1441.95 1470.77 Q1439.82 1469.03 1436 1469.03 L1431.97 1469.03 L1431.97 1465.19 L1436.18 1465.19 Q1439.63 1465.19 1441.46 1463.82 Q1443.29 1462.43 1443.29 1459.84 Q1443.29 1457.18 1441.39 1455.77 Q1439.52 1454.33 1436 1454.33 Q1434.08 1454.33 1431.88 1454.75 Q1429.68 1455.16 1427.04 1456.04 L1427.04 1451.88 Q1429.7 1451.14 1432.02 1450.77 Q1434.35 1450.39 1436.41 1450.39 Q1441.74 1450.39 1444.84 1452.83 Q1447.94 1455.23 1447.94 1459.35 Q1447.94 1462.22 1446.3 1464.21 Q1444.65 1466.18 1441.62 1466.95 Z" fill="#000000" fill-rule="evenodd" fill-opacity="1" /><path clip-path="url(#clip600)" d="M1467.62 1454.1 Q1464.01 1454.1 1462.18 1457.66 Q1460.37 1461.2 1460.37 1468.33 Q1460.37 1475.44 1462.18 1479.01 Q1464.01 1482.55 1467.62 1482.55 Q1471.25 1482.55 1473.06 1479.01 Q1474.89 1475.44 1474.89 1468.33 Q1474.89 1461.2 1473.06 1457.66 Q1471.25 1454.1 1467.62 1454.1 M1467.62 1450.39 Q1473.43 1450.39 1476.48 1455 Q1479.56 1459.58 1479.56 1468.33 Q1479.56 1477.06 1476.48 1481.67 Q1473.43 1486.25 1467.62 1486.25 Q1461.81 1486.25 1458.73 1481.67 Q1455.67 1477.06 1455.67 1468.33 Q1455.67 1459.58 1458.73 1455 Q1461.81 1450.39 1467.62 1450.39 Z" fill="#000000" fill-rule="evenodd" fill-opacity="1" /><path clip-path="url(#clip600)" d="M1497.78 1454.1 Q1494.17 1454.1 1492.34 1457.66 Q1490.53 1461.2 1490.53 1468.33 Q1490.53 1475.44 1492.34 1479.01 Q1494.17 1482.55 1497.78 1482.55 Q1501.41 1482.55 1503.22 1479.01 Q1505.05 1475.44 1505.05 1468.33 Q1505.05 1461.2 1503.22 1457.66 Q1501.41 1454.1 1497.78 1454.1 M1497.78 1450.39 Q1503.59 1450.39 1506.65 1455 Q1509.72 1459.58 1509.72 1468.33 Q1509.72 1477.06 1506.65 1481.67 Q1503.59 1486.25 1497.78 1486.25 Q1491.97 1486.25 1488.89 1481.67 Q1485.84 1477.06 1485.84 1468.33 Q1485.84 1459.58 1488.89 1455 Q1491.97 1450.39 1497.78 1450.39 Z" fill="#000000" fill-rule="evenodd" fill-opacity="1" /><path clip-path="url(#clip600)" d="M1852.59 1455.09 L1840.78 1473.54 L1852.59 1473.54 L1852.59 1455.09 M1851.36 1451.02 L1857.24 1451.02 L1857.24 1473.54 L1862.17 1473.54 L1862.17 1477.43 L1857.24 1477.43 L1857.24 1485.58 L1852.59 1485.58 L1852.59 1477.43 L1836.99 1477.43 L1836.99 1472.92 L1851.36 1451.02 Z" fill="#000000" fill-rule="evenodd" fill-opacity="1" /><path clip-path="url(#clip600)" d="M1879.9 1454.1 Q1876.29 1454.1 1874.46 1457.66 Q1872.66 1461.2 1872.66 1468.33 Q1872.66 1475.44 1874.46 1479.01 Q1876.29 1482.55 1879.9 1482.55 Q1883.54 1482.55 1885.34 1479.01 Q1887.17 1475.44 1887.17 1468.33 Q1887.17 1461.2 1885.34 1457.66 Q1883.54 1454.1 1879.9 1454.1 M1879.9 1450.39 Q1885.71 1450.39 1888.77 1455 Q1891.85 1459.58 1891.85 1468.33 Q1891.85 1477.06 1888.77 1481.67 Q1885.71 1486.25 1879.9 1486.25 Q1874.09 1486.25 1871.01 1481.67 Q1867.96 1477.06 1867.96 1468.33 Q1867.96 1459.58 1871.01 1455 Q1874.09 1450.39 1879.9 1450.39 Z" fill="#000000" fill-rule="evenodd" fill-opacity="1" /><path clip-path="url(#clip600)" d="M1910.06 1454.1 Q1906.45 1454.1 1904.62 1457.66 Q1902.82 1461.2 1902.82 1468.33 Q1902.82 1475.44 1904.62 1479.01 Q1906.45 1482.55 1910.06 1482.55 Q1913.7 1482.55 1915.5 1479.01 Q1917.33 1475.44 1917.33 1468.33 Q1917.33 1461.2 1915.5 1457.66 Q1913.7 1454.1 1910.06 1454.1 M1910.06 1450.39 Q1915.87 1450.39 1918.93 1455 Q1922.01 1459.58 1922.01 1468.33 Q1922.01 1477.06 1918.93 1481.67 Q1915.87 1486.25 1910.06 1486.25 Q1904.25 1486.25 1901.18 1481.67 Q1898.12 1477.06 1898.12 1468.33 Q1898.12 1459.58 1901.18 1455 Q1904.25 1450.39 1910.06 1450.39 Z" fill="#000000" fill-rule="evenodd" fill-opacity="1" /><path clip-path="url(#clip600)" d="M2250.75 1451.02 L2269.11 1451.02 L2269.11 1454.96 L2255.03 1454.96 L2255.03 1463.43 Q2256.05 1463.08 2257.07 1462.92 Q2258.09 1462.73 2259.11 1462.73 Q2264.9 1462.73 2268.28 1465.9 Q2271.65 1469.08 2271.65 1474.49 Q2271.65 1480.07 2268.18 1483.17 Q2264.71 1486.25 2258.39 1486.25 Q2256.22 1486.25 2253.95 1485.88 Q2251.7 1485.51 2249.29 1484.77 L2249.29 1480.07 Q2251.38 1481.2 2253.6 1481.76 Q2255.82 1482.32 2258.3 1482.32 Q2262.3 1482.32 2264.64 1480.21 Q2266.98 1478.1 2266.98 1474.49 Q2266.98 1470.88 2264.64 1468.77 Q2262.3 1466.67 2258.3 1466.67 Q2256.42 1466.67 2254.55 1467.08 Q2252.7 1467.5 2250.75 1468.38 L2250.75 1451.02 Z" fill="#000000" fill-rule="evenodd" fill-opacity="1" /><path clip-path="url(#clip600)" d="M2290.87 1454.1 Q2287.26 1454.1 2285.43 1457.66 Q2283.62 1461.2 2283.62 1468.33 Q2283.62 1475.44 2285.43 1479.01 Q2287.26 1482.55 2290.87 1482.55 Q2294.5 1482.55 2296.31 1479.01 Q2298.14 1475.44 2298.14 1468.33 Q2298.14 1461.2 2296.31 1457.66 Q2294.5 1454.1 2290.87 1454.1 M2290.87 1450.39 Q2296.68 1450.39 2299.73 1455 Q2302.81 1459.58 2302.81 1468.33 Q2302.81 1477.06 2299.73 1481.67 Q2296.68 1486.25 2290.87 1486.25 Q2285.06 1486.25 2281.98 1481.67 Q2278.92 1477.06 2278.92 1468.33 Q2278.92 1459.58 2281.98 1455 Q2285.06 1450.39 2290.87 1450.39 Z" fill="#000000" fill-rule="evenodd" fill-opacity="1" /><path clip-path="url(#clip600)" d="M2321.03 1454.1 Q2317.42 1454.1 2315.59 1457.66 Q2313.78 1461.2 2313.78 1468.33 Q2313.78 1475.44 2315.59 1479.01 Q2317.42 1482.55 2321.03 1482.55 Q2324.66 1482.55 2326.47 1479.01 Q2328.3 1475.44 2328.3 1468.33 Q2328.3 1461.2 2326.47 1457.66 Q2324.66 1454.1 2321.03 1454.1 M2321.03 1450.39 Q2326.84 1450.39 2329.9 1455 Q2332.97 1459.58 2332.97 1468.33 Q2332.97 1477.06 2329.9 1481.67 Q2326.84 1486.25 2321.03 1486.25 Q2315.22 1486.25 2312.14 1481.67 Q2309.09 1477.06 2309.09 1468.33 Q2309.09 1459.58 2312.14 1455 Q2315.22 1450.39 2321.03 1450.39 Z" fill="#000000" fill-rule="evenodd" fill-opacity="1" /><path clip-path="url(#clip600)" d="M906.157 1525.81 L906.157 1562.76 L913.923 1562.76 Q923.758 1562.76 928.31 1558.3 Q932.893 1553.85 932.893 1544.24 Q932.893 1534.69 928.31 1530.26 Q923.758 1525.81 913.923 1525.81 L906.157 1525.81 M899.728 1520.52 L912.936 1520.52 Q926.75 1520.52 933.211 1526.28 Q939.672 1532.01 939.672 1544.24 Q939.672 1556.52 933.179 1562.28 Q926.686 1568.04 912.936 1568.04 L899.728 1568.04 L899.728 1520.52 Z" fill="#000000" fill-rule="evenodd" fill-opacity="1" /><path clip-path="url(#clip600)" d="M963.48 1536.5 Q958.769 1536.5 956.032 1540.19 Q953.295 1543.85 953.295 1550.25 Q953.295 1556.65 956 1560.34 Q958.738 1564 963.48 1564 Q968.159 1564 970.896 1560.31 Q973.633 1556.62 973.633 1550.25 Q973.633 1543.92 970.896 1540.23 Q968.159 1536.5 963.48 1536.5 M963.48 1531.54 Q971.119 1531.54 975.479 1536.5 Q979.84 1541.47 979.84 1550.25 Q979.84 1559 975.479 1564 Q971.119 1568.97 963.48 1568.97 Q955.809 1568.97 951.449 1564 Q947.12 1559 947.12 1550.25 Q947.12 1541.47 951.449 1536.5 Q955.809 1531.54 963.48 1531.54 Z" fill="#000000" fill-rule="evenodd" fill-opacity="1" /><path clip-path="url(#clip600)" d="M986.142 1532.4 L991.998 1532.4 L999.319 1560.21 L1006.61 1532.4 L1013.51 1532.4 L1020.84 1560.21 L1028.12 1532.4 L1033.98 1532.4 L1024.65 1568.04 L1017.75 1568.04 L1010.08 1538.83 L1002.37 1568.04 L995.468 1568.04 L986.142 1532.4 Z" fill="#000000" fill-rule="evenodd" fill-opacity="1" /><path clip-path="url(#clip600)" d="M1072.49 1546.53 L1072.49 1568.04 L1066.64 1568.04 L1066.64 1546.72 Q1066.64 1541.66 1064.66 1539.14 Q1062.69 1536.63 1058.74 1536.63 Q1054 1536.63 1051.26 1539.65 Q1048.53 1542.68 1048.53 1547.9 L1048.53 1568.04 L1042.64 1568.04 L1042.64 1532.4 L1048.53 1532.4 L1048.53 1537.93 Q1050.63 1534.72 1053.46 1533.13 Q1056.32 1531.54 1060.05 1531.54 Q1066.19 1531.54 1069.34 1535.36 Q1072.49 1539.14 1072.49 1546.53 Z" fill="#000000" fill-rule="evenodd" fill-opacity="1" /><path clip-path="url(#clip600)" d="M1080.77 1532.4 L1086.62 1532.4 L1093.95 1560.21 L1101.23 1532.4 L1108.14 1532.4 L1115.46 1560.21 L1122.75 1532.4 L1128.61 1532.4 L1119.28 1568.04 L1112.37 1568.04 L1104.7 1538.83 L1097 1568.04 L1090.09 1568.04 L1080.77 1532.4 Z" fill="#000000" fill-rule="evenodd" fill-opacity="1" /><path clip-path="url(#clip600)" d="M1137.49 1532.4 L1143.34 1532.4 L1143.34 1568.04 L1137.49 1568.04 L1137.49 1532.4 M1137.49 1518.52 L1143.34 1518.52 L1143.34 1525.93 L1137.49 1525.93 L1137.49 1518.52 Z" fill="#000000" fill-rule="evenodd" fill-opacity="1" /><path clip-path="url(#clip600)" d="M1185.23 1546.53 L1185.23 1568.04 L1179.37 1568.04 L1179.37 1546.72 Q1179.37 1541.66 1177.4 1539.14 Q1175.43 1536.63 1171.48 1536.63 Q1166.74 1536.63 1164 1539.65 Q1161.26 1542.68 1161.26 1547.9 L1161.26 1568.04 L1155.37 1568.04 L1155.37 1532.4 L1161.26 1532.4 L1161.26 1537.93 Q1163.36 1534.72 1166.2 1533.13 Q1169.06 1531.54 1172.78 1531.54 Q1178.93 1531.54 1182.08 1535.36 Q1185.23 1539.14 1185.23 1546.53 Z" fill="#000000" fill-rule="evenodd" fill-opacity="1" /><path clip-path="url(#clip600)" d="M1220.37 1537.81 L1220.37 1518.52 L1226.22 1518.52 L1226.22 1568.04 L1220.37 1568.04 L1220.37 1562.7 Q1218.52 1565.88 1215.69 1567.44 Q1212.89 1568.97 1208.94 1568.97 Q1202.48 1568.97 1198.41 1563.81 Q1194.36 1558.65 1194.36 1550.25 Q1194.36 1541.85 1198.41 1536.69 Q1202.48 1531.54 1208.94 1531.54 Q1212.89 1531.54 1215.69 1533.1 Q1218.52 1534.62 1220.37 1537.81 M1200.41 1550.25 Q1200.41 1556.71 1203.05 1560.4 Q1205.73 1564.07 1210.37 1564.07 Q1215.02 1564.07 1217.69 1560.4 Q1220.37 1556.71 1220.37 1550.25 Q1220.37 1543.79 1217.69 1540.13 Q1215.02 1536.44 1210.37 1536.44 Q1205.73 1536.44 1203.05 1540.13 Q1200.41 1543.79 1200.41 1550.25 Z" fill="#000000" fill-rule="evenodd" fill-opacity="1" /><path clip-path="url(#clip600)" d="M1282.47 1537.81 L1282.47 1518.52 L1288.32 1518.52 L1288.32 1568.04 L1282.47 1568.04 L1282.47 1562.7 Q1280.62 1565.88 1277.79 1567.44 Q1274.99 1568.97 1271.04 1568.97 Q1264.58 1568.97 1260.5 1563.81 Q1256.46 1558.65 1256.46 1550.25 Q1256.46 1541.85 1260.5 1536.69 Q1264.58 1531.54 1271.04 1531.54 Q1274.99 1531.54 1277.79 1533.1 Q1280.62 1534.62 1282.47 1537.81 M1262.51 1550.25 Q1262.51 1556.71 1265.15 1560.4 Q1267.82 1564.07 1272.47 1564.07 Q1277.12 1564.07 1279.79 1560.4 Q1282.47 1556.71 1282.47 1550.25 Q1282.47 1543.79 1279.79 1540.13 Q1277.12 1536.44 1272.47 1536.44 Q1267.82 1536.44 1265.15 1540.13 Q1262.51 1543.79 1262.51 1550.25 Z" fill="#000000" fill-rule="evenodd" fill-opacity="1" /><path clip-path="url(#clip600)" d="M1300.39 1532.4 L1306.24 1532.4 L1306.24 1568.04 L1300.39 1568.04 L1300.39 1532.4 M1300.39 1518.52 L1306.24 1518.52 L1306.24 1525.93 L1300.39 1525.93 L1300.39 1518.52 Z" fill="#000000" fill-rule="evenodd" fill-opacity="1" /><path clip-path="url(#clip600)" d="M1341.22 1533.45 L1341.22 1538.98 Q1338.74 1537.71 1336.06 1537.07 Q1333.39 1536.44 1330.53 1536.44 Q1326.17 1536.44 1323.97 1537.77 Q1321.81 1539.11 1321.81 1541.79 Q1321.81 1543.82 1323.37 1545 Q1324.92 1546.15 1329.64 1547.2 L1331.64 1547.64 Q1337.88 1548.98 1340.49 1551.43 Q1343.13 1553.85 1343.13 1558.21 Q1343.13 1563.17 1339.18 1566.07 Q1335.27 1568.97 1328.39 1568.97 Q1325.53 1568.97 1322.41 1568.39 Q1319.32 1567.85 1315.89 1566.74 L1315.89 1560.69 Q1319.13 1562.38 1322.28 1563.24 Q1325.43 1564.07 1328.52 1564.07 Q1332.66 1564.07 1334.89 1562.66 Q1337.12 1561.23 1337.12 1558.65 Q1337.12 1556.27 1335.49 1554.99 Q1333.9 1553.72 1328.46 1552.54 L1326.42 1552.07 Q1320.98 1550.92 1318.56 1548.56 Q1316.14 1546.18 1316.14 1542.04 Q1316.14 1537.01 1319.71 1534.27 Q1323.27 1531.54 1329.83 1531.54 Q1333.07 1531.54 1335.94 1532.01 Q1338.8 1532.49 1341.22 1533.45 Z" fill="#000000" fill-rule="evenodd" fill-opacity="1" /><path clip-path="url(#clip600)" d="M1358.25 1522.27 L1358.25 1532.4 L1370.31 1532.4 L1370.31 1536.95 L1358.25 1536.95 L1358.25 1556.3 Q1358.25 1560.66 1359.43 1561.9 Q1360.64 1563.14 1364.3 1563.14 L1370.31 1563.14 L1370.31 1568.04 L1364.3 1568.04 Q1357.52 1568.04 1354.94 1565.53 Q1352.36 1562.98 1352.36 1556.3 L1352.36 1536.95 L1348.06 1536.95 L1348.06 1532.4 L1352.36 1532.4 L1352.36 1522.27 L1358.25 1522.27 Z" fill="#000000" fill-rule="evenodd" fill-opacity="1" /><path clip-path="url(#clip600)" d="M1394.22 1550.12 Q1387.12 1550.12 1384.38 1551.75 Q1381.64 1553.37 1381.64 1557.29 Q1381.64 1560.4 1383.68 1562.25 Q1385.75 1564.07 1389.28 1564.07 Q1394.15 1564.07 1397.08 1560.63 Q1400.04 1557.16 1400.04 1551.43 L1400.04 1550.12 L1394.22 1550.12 M1405.9 1547.71 L1405.9 1568.04 L1400.04 1568.04 L1400.04 1562.63 Q1398.04 1565.88 1395.04 1567.44 Q1392.05 1568.97 1387.72 1568.97 Q1382.25 1568.97 1379 1565.91 Q1375.79 1562.82 1375.79 1557.67 Q1375.79 1551.65 1379.8 1548.6 Q1383.84 1545.54 1391.83 1545.54 L1400.04 1545.54 L1400.04 1544.97 Q1400.04 1540.93 1397.37 1538.73 Q1394.72 1536.5 1389.92 1536.5 Q1386.86 1536.5 1383.97 1537.23 Q1381.07 1537.97 1378.4 1539.43 L1378.4 1534.02 Q1381.61 1532.78 1384.64 1532.17 Q1387.66 1531.54 1390.52 1531.54 Q1398.26 1531.54 1402.08 1535.55 Q1405.9 1539.56 1405.9 1547.71 Z" fill="#000000" fill-rule="evenodd" fill-opacity="1" /><path clip-path="url(#clip600)" d="M1447.59 1546.53 L1447.59 1568.04 L1441.74 1568.04 L1441.74 1546.72 Q1441.74 1541.66 1439.76 1539.14 Q1437.79 1536.63 1433.84 1536.63 Q1429.1 1536.63 1426.36 1539.65 Q1423.63 1542.68 1423.63 1547.9 L1423.63 1568.04 L1417.74 1568.04 L1417.74 1532.4 L1423.63 1532.4 L1423.63 1537.93 Q1425.73 1534.72 1428.56 1533.13 Q1431.42 1531.54 1435.15 1531.54 Q1441.29 1531.54 1444.44 1535.36 Q1447.59 1539.14 1447.59 1546.53 Z" fill="#000000" fill-rule="evenodd" fill-opacity="1" /><path clip-path="url(#clip600)" d="M1484.93 1533.76 L1484.93 1539.24 Q1482.44 1537.87 1479.93 1537.2 Q1477.45 1536.5 1474.9 1536.5 Q1469.2 1536.5 1466.05 1540.13 Q1462.9 1543.73 1462.9 1550.25 Q1462.9 1556.78 1466.05 1560.4 Q1469.2 1564 1474.9 1564 Q1477.45 1564 1479.93 1563.33 Q1482.44 1562.63 1484.93 1561.26 L1484.93 1566.68 Q1482.48 1567.82 1479.83 1568.39 Q1477.22 1568.97 1474.26 1568.97 Q1466.21 1568.97 1461.47 1563.91 Q1456.73 1558.85 1456.73 1550.25 Q1456.73 1541.53 1461.5 1536.53 Q1466.31 1531.54 1474.65 1531.54 Q1477.35 1531.54 1479.93 1532.11 Q1482.51 1532.65 1484.93 1533.76 Z" fill="#000000" fill-rule="evenodd" fill-opacity="1" /><path clip-path="url(#clip600)" d="M1525.6 1548.76 L1525.6 1551.62 L1498.68 1551.62 Q1499.06 1557.67 1502.31 1560.85 Q1505.58 1564 1511.41 1564 Q1514.78 1564 1517.93 1563.17 Q1521.12 1562.35 1524.24 1560.69 L1524.24 1566.23 Q1521.08 1567.57 1517.77 1568.27 Q1514.46 1568.97 1511.06 1568.97 Q1502.53 1568.97 1497.53 1564 Q1492.57 1559.04 1492.57 1550.57 Q1492.57 1541.82 1497.28 1536.69 Q1502.02 1531.54 1510.04 1531.54 Q1517.23 1531.54 1521.4 1536.18 Q1525.6 1540.8 1525.6 1548.76 M1519.75 1547.04 Q1519.68 1542.23 1517.04 1539.37 Q1514.43 1536.5 1510.1 1536.5 Q1505.2 1536.5 1502.24 1539.27 Q1499.31 1542.04 1498.87 1547.07 L1519.75 1547.04 Z" fill="#000000" fill-rule="evenodd" fill-opacity="1" /><path clip-path="url(#clip600)" d="M1536.71 1559.96 L1543.43 1559.96 L1543.43 1565.43 L1538.21 1575.62 L1534.1 1575.62 L1536.71 1565.43 L1536.71 1559.96 Z" fill="#000000" fill-rule="evenodd" fill-opacity="1" /><path clip-path="url(#clip600)" d="M1604.41 1539.24 Q1606.61 1535.29 1609.66 1533.41 Q1612.72 1531.54 1616.86 1531.54 Q1622.43 1531.54 1625.45 1535.45 Q1628.47 1539.33 1628.47 1546.53 L1628.47 1568.04 L1622.59 1568.04 L1622.59 1546.72 Q1622.59 1541.59 1620.77 1539.11 Q1618.96 1536.63 1615.23 1536.63 Q1610.68 1536.63 1608.04 1539.65 Q1605.4 1542.68 1605.4 1547.9 L1605.4 1568.04 L1599.51 1568.04 L1599.51 1546.72 Q1599.51 1541.56 1597.7 1539.11 Q1595.88 1536.63 1592.09 1536.63 Q1587.61 1536.63 1584.96 1539.68 Q1582.32 1542.71 1582.32 1547.9 L1582.32 1568.04 L1576.43 1568.04 L1576.43 1532.4 L1582.32 1532.4 L1582.32 1537.93 Q1584.33 1534.66 1587.13 1533.1 Q1589.93 1531.54 1593.78 1531.54 Q1597.66 1531.54 1600.37 1533.51 Q1603.11 1535.48 1604.41 1539.24 Z" fill="#000000" fill-rule="evenodd" fill-opacity="1" /><polyline clip-path="url(#clip602)" style="stroke:#000000; stroke-linecap:round; stroke-linejoin:round; stroke-width:2; stroke-opacity:0.1; fill:none" points="
  175.445,1285.06 2352.76,1285.06 
  "/>
<polyline clip-path="url(#clip602)" style="stroke:#000000; stroke-linecap:round; stroke-linejoin:round; stroke-width:2; stroke-opacity:0.1; fill:none" points="
  175.445,1064.57 2352.76,1064.57 
  "/>
<polyline clip-path="url(#clip602)" style="stroke:#000000; stroke-linecap:round; stroke-linejoin:round; stroke-width:2; stroke-opacity:0.1; fill:none" points="
  175.445,844.081 2352.76,844.081 
  "/>
<polyline clip-path="url(#clip602)" style="stroke:#000000; stroke-linecap:round; stroke-linejoin:round; stroke-width:2; stroke-opacity:0.1; fill:none" points="
  175.445,623.591 2352.76,623.591 
  "/>
<polyline clip-path="url(#clip602)" style="stroke:#000000; stroke-linecap:round; stroke-linejoin:round; stroke-width:2; stroke-opacity:0.1; fill:none" points="
  175.445,403.1 2352.76,403.1 
  "/>
<polyline clip-path="url(#clip602)" style="stroke:#000000; stroke-linecap:round; stroke-linejoin:round; stroke-width:2; stroke-opacity:0.1; fill:none" points="
  175.445,182.609 2352.76,182.609 
  "/>
<polyline clip-path="url(#clip600)" style="stroke:#000000; stroke-linecap:round; stroke-linejoin:round; stroke-width:4; stroke-opacity:1; fill:none" points="
  175.445,1423.18 175.445,123.472 
  "/>
<polyline clip-path="url(#clip600)" style="stroke:#000000; stroke-linecap:round; stroke-linejoin:round; stroke-width:4; stroke-opacity:1; fill:none" points="
  175.445,1285.06 194.343,1285.06 
  "/>
<polyline clip-path="url(#clip600)" style="stroke:#000000; stroke-linecap:round; stroke-linejoin:round; stroke-width:4; stroke-opacity:1; fill:none" points="
  175.445,1064.57 194.343,1064.57 
  "/>
<polyline clip-path="url(#clip600)" style="stroke:#000000; stroke-linecap:round; stroke-linejoin:round; stroke-width:4; stroke-opacity:1; fill:none" points="
  175.445,844.081 194.343,844.081 
  "/>
<polyline clip-path="url(#clip600)" style="stroke:#000000; stroke-linecap:round; stroke-linejoin:round; stroke-width:4; stroke-opacity:1; fill:none" points="
  175.445,623.591 194.343,623.591 
  "/>
<polyline clip-path="url(#clip600)" style="stroke:#000000; stroke-linecap:round; stroke-linejoin:round; stroke-width:4; stroke-opacity:1; fill:none" points="
  175.445,403.1 194.343,403.1 
  "/>
<polyline clip-path="url(#clip600)" style="stroke:#000000; stroke-linecap:round; stroke-linejoin:round; stroke-width:4; stroke-opacity:1; fill:none" points="
  175.445,182.609 194.343,182.609 
  "/>
<path clip-path="url(#clip600)" d="M119.538 1298.41 L127.177 1298.41 L127.177 1272.04 L118.867 1273.71 L118.867 1269.45 L127.13 1267.78 L131.806 1267.78 L131.806 1298.41 L139.445 1298.41 L139.445 1302.34 L119.538 1302.34 L119.538 1298.41 Z" fill="#000000" fill-rule="evenodd" fill-opacity="1" /><path clip-path="url(#clip600)" d="M123.126 1077.92 L139.445 1077.92 L139.445 1081.85 L117.501 1081.85 L117.501 1077.92 Q120.163 1075.16 124.746 1070.53 Q129.353 1065.88 130.533 1064.54 Q132.779 1062.01 133.658 1060.28 Q134.561 1058.52 134.561 1056.83 Q134.561 1054.07 132.617 1052.34 Q130.695 1050.6 127.593 1050.6 Q125.394 1050.6 122.941 1051.37 Q120.51 1052.13 117.732 1053.68 L117.732 1048.96 Q120.556 1047.82 123.01 1047.25 Q125.464 1046.67 127.501 1046.67 Q132.871 1046.67 136.066 1049.35 Q139.26 1052.04 139.26 1056.53 Q139.26 1058.66 138.45 1060.58 Q137.663 1062.48 135.556 1065.07 Q134.978 1065.74 131.876 1068.96 Q128.774 1072.15 123.126 1077.92 Z" fill="#000000" fill-rule="evenodd" fill-opacity="1" /><path clip-path="url(#clip600)" d="M132.316 842.727 Q135.672 843.445 137.547 845.713 Q139.445 847.982 139.445 851.315 Q139.445 856.431 135.927 859.232 Q132.408 862.033 125.927 862.033 Q123.751 862.033 121.436 861.593 Q119.144 861.176 116.691 860.32 L116.691 855.806 Q118.635 856.94 120.95 857.519 Q123.265 858.098 125.788 858.098 Q130.186 858.098 132.478 856.362 Q134.792 854.625 134.792 851.315 Q134.792 848.26 132.64 846.547 Q130.51 844.811 126.691 844.811 L122.663 844.811 L122.663 840.968 L126.876 840.968 Q130.325 840.968 132.154 839.602 Q133.982 838.213 133.982 835.621 Q133.982 832.959 132.084 831.547 Q130.209 830.112 126.691 830.112 Q124.769 830.112 122.57 830.528 Q120.371 830.945 117.732 831.825 L117.732 827.658 Q120.394 826.917 122.709 826.547 Q125.047 826.176 127.107 826.176 Q132.431 826.176 135.533 828.607 Q138.635 831.014 138.635 835.135 Q138.635 838.005 136.992 839.996 Q135.348 841.963 132.316 842.727 Z" fill="#000000" fill-rule="evenodd" fill-opacity="1" /><path clip-path="url(#clip600)" d="M129.862 610.385 L118.056 628.834 L129.862 628.834 L129.862 610.385 M128.635 606.311 L134.515 606.311 L134.515 628.834 L139.445 628.834 L139.445 632.723 L134.515 632.723 L134.515 640.871 L129.862 640.871 L129.862 632.723 L114.26 632.723 L114.26 628.209 L128.635 606.311 Z" fill="#000000" fill-rule="evenodd" fill-opacity="1" /><path clip-path="url(#clip600)" d="M118.543 385.82 L136.899 385.82 L136.899 389.755 L122.825 389.755 L122.825 398.227 Q123.843 397.88 124.862 397.718 Q125.88 397.533 126.899 397.533 Q132.686 397.533 136.066 400.704 Q139.445 403.876 139.445 409.292 Q139.445 414.871 135.973 417.973 Q132.501 421.051 126.181 421.051 Q124.005 421.051 121.737 420.681 Q119.492 420.311 117.084 419.57 L117.084 414.871 Q119.168 416.005 121.39 416.561 Q123.612 417.116 126.089 417.116 Q130.093 417.116 132.431 415.01 Q134.769 412.903 134.769 409.292 Q134.769 405.681 132.431 403.575 Q130.093 401.468 126.089 401.468 Q124.214 401.468 122.339 401.885 Q120.487 402.302 118.543 403.181 L118.543 385.82 Z" fill="#000000" fill-rule="evenodd" fill-opacity="1" /><path clip-path="url(#clip600)" d="M127.917 180.746 Q124.769 180.746 122.918 182.899 Q121.089 185.052 121.089 188.802 Q121.089 192.528 122.918 194.704 Q124.769 196.857 127.917 196.857 Q131.066 196.857 132.894 194.704 Q134.746 192.528 134.746 188.802 Q134.746 185.052 132.894 182.899 Q131.066 180.746 127.917 180.746 M137.2 166.093 L137.2 170.353 Q135.441 169.519 133.635 169.079 Q131.853 168.64 130.093 168.64 Q125.464 168.64 123.01 171.765 Q120.58 174.89 120.232 181.209 Q121.598 179.195 123.658 178.13 Q125.718 177.042 128.195 177.042 Q133.404 177.042 136.413 180.214 Q139.445 183.362 139.445 188.802 Q139.445 194.126 136.297 197.343 Q133.149 200.561 127.917 200.561 Q121.922 200.561 118.751 195.977 Q115.58 191.371 115.58 182.644 Q115.58 174.45 119.468 169.589 Q123.357 164.704 129.908 164.704 Q131.667 164.704 133.45 165.052 Q135.255 165.399 137.2 166.093 Z" fill="#000000" fill-rule="evenodd" fill-opacity="1" /><path clip-path="url(#clip600)" d="M41.7242 1321.32 Q42.4244 1319.25 44.7161 1317.31 Q47.0077 1315.33 51.0181 1313.36 L64.0042 1306.84 L64.0042 1313.74 L51.8138 1319.82 Q47.0395 1322.18 45.48 1324.41 Q43.9204 1326.6 43.9204 1330.42 L43.9204 1337.42 L64.0042 1337.42 L64.0042 1343.85 L16.4842 1343.85 L16.4842 1329.34 Q16.4842 1321.19 19.8898 1317.18 Q23.2955 1313.17 30.1704 1313.17 Q34.6582 1313.17 37.6183 1315.27 Q40.5784 1317.34 41.7242 1321.32 M21.7677 1337.42 L38.6368 1337.42 L38.6368 1329.34 Q38.6368 1324.69 36.5043 1322.34 Q34.34 1319.95 30.1704 1319.95 Q26.0009 1319.95 23.9002 1322.34 Q21.7677 1324.69 21.7677 1329.34 L21.7677 1337.42 Z" fill="#000000" fill-rule="evenodd" fill-opacity="1" /><path clip-path="url(#clip600)" d="M44.7161 1271.25 L47.5806 1271.25 L47.5806 1298.18 Q53.6281 1297.8 56.8109 1294.55 Q59.9619 1291.27 59.9619 1285.45 Q59.9619 1282.07 59.1344 1278.92 Q58.3069 1275.74 56.6518 1272.62 L62.1899 1272.62 Q63.5267 1275.77 64.227 1279.08 Q64.9272 1282.39 64.9272 1285.8 Q64.9272 1294.33 59.9619 1299.32 Q54.9967 1304.29 46.5303 1304.29 Q37.7774 1304.29 32.6531 1299.58 Q27.4968 1294.84 27.4968 1286.82 Q27.4968 1279.62 32.1438 1275.45 Q36.7589 1271.25 44.7161 1271.25 M42.9973 1277.11 Q38.1912 1277.17 35.3266 1279.81 Q32.4621 1282.42 32.4621 1286.75 Q32.4621 1291.65 35.2312 1294.61 Q38.0002 1297.54 43.0292 1297.99 L42.9973 1277.11 Z" fill="#000000" fill-rule="evenodd" fill-opacity="1" /><path clip-path="url(#clip600)" d="M14.479 1261.64 L14.479 1255.78 L64.0042 1255.78 L64.0042 1261.64 L14.479 1261.64 Z" fill="#000000" fill-rule="evenodd" fill-opacity="1" /><path clip-path="url(#clip600)" d="M46.0847 1227.33 Q46.0847 1234.43 47.7079 1237.16 Q49.3312 1239.9 53.2461 1239.9 Q56.3653 1239.9 58.2114 1237.86 Q60.0256 1235.79 60.0256 1232.26 Q60.0256 1227.39 56.5881 1224.46 Q53.1188 1221.5 47.3897 1221.5 L46.0847 1221.5 L46.0847 1227.33 M43.6657 1215.65 L64.0042 1215.65 L64.0042 1221.5 L58.5933 1221.5 Q61.8398 1223.51 63.3994 1226.5 Q64.9272 1229.49 64.9272 1233.82 Q64.9272 1239.3 61.8716 1242.54 Q58.7843 1245.76 53.6281 1245.76 Q47.6125 1245.76 44.5569 1241.75 Q41.5014 1237.7 41.5014 1229.72 L41.5014 1221.5 L40.9285 1221.5 Q36.8862 1221.5 34.6901 1224.18 Q32.4621 1226.82 32.4621 1231.63 Q32.4621 1234.68 33.1941 1237.58 Q33.9262 1240.47 35.3903 1243.15 L29.9795 1243.15 Q28.7381 1239.93 28.1334 1236.91 Q27.4968 1233.88 27.4968 1231.02 Q27.4968 1223.29 31.5072 1219.47 Q35.5176 1215.65 43.6657 1215.65 Z" fill="#000000" fill-rule="evenodd" fill-opacity="1" /><path clip-path="url(#clip600)" d="M18.2347 1197.79 L28.3562 1197.79 L28.3562 1185.73 L32.9077 1185.73 L32.9077 1197.79 L52.2594 1197.79 Q56.6199 1197.79 57.8613 1196.61 Q59.1026 1195.4 59.1026 1191.74 L59.1026 1185.73 L64.0042 1185.73 L64.0042 1191.74 Q64.0042 1198.52 61.4897 1201.1 Q58.9434 1203.68 52.2594 1203.68 L32.9077 1203.68 L32.9077 1207.98 L28.3562 1207.98 L28.3562 1203.68 L18.2347 1203.68 L18.2347 1197.79 Z" fill="#000000" fill-rule="evenodd" fill-opacity="1" /><path clip-path="url(#clip600)" d="M28.3562 1178.03 L28.3562 1172.17 L64.0042 1172.17 L64.0042 1178.03 L28.3562 1178.03 M14.479 1178.03 L14.479 1172.17 L21.895 1172.17 L21.895 1178.03 L14.479 1178.03 Z" fill="#000000" fill-rule="evenodd" fill-opacity="1" /><path clip-path="url(#clip600)" d="M28.3562 1164.12 L28.3562 1157.91 L58.275 1146.77 L28.3562 1135.63 L28.3562 1129.42 L64.0042 1142.79 L64.0042 1150.75 L28.3562 1164.12 Z" fill="#000000" fill-rule="evenodd" fill-opacity="1" /><path clip-path="url(#clip600)" d="M44.7161 1090.85 L47.5806 1090.85 L47.5806 1117.77 Q53.6281 1117.39 56.8109 1114.15 Q59.9619 1110.87 59.9619 1105.04 Q59.9619 1101.67 59.1344 1098.52 Q58.3069 1095.34 56.6518 1092.22 L62.1899 1092.22 Q63.5267 1095.37 64.227 1098.68 Q64.9272 1101.99 64.9272 1105.39 Q64.9272 1113.92 59.9619 1118.92 Q54.9967 1123.89 46.5303 1123.89 Q37.7774 1123.89 32.6531 1119.17 Q27.4968 1114.43 27.4968 1106.41 Q27.4968 1099.22 32.1438 1095.05 Q36.7589 1090.85 44.7161 1090.85 M42.9973 1096.7 Q38.1912 1096.77 35.3266 1099.41 Q32.4621 1102.02 32.4621 1106.35 Q32.4621 1111.25 35.2312 1114.21 Q38.0002 1117.14 43.0292 1117.58 L42.9973 1096.7 Z" fill="#000000" fill-rule="evenodd" fill-opacity="1" /><path clip-path="url(#clip600)" d="M33.7671 1037.06 L14.479 1037.06 L14.479 1031.2 L64.0042 1031.2 L64.0042 1037.06 L58.657 1037.06 Q61.8398 1038.9 63.3994 1041.74 Q64.9272 1044.54 64.9272 1048.48 Q64.9272 1054.94 59.771 1059.02 Q54.6147 1063.06 46.212 1063.06 Q37.8093 1063.06 32.6531 1059.02 Q27.4968 1054.94 27.4968 1048.48 Q27.4968 1044.54 29.0564 1041.74 Q30.5842 1038.9 33.7671 1037.06 M46.212 1057.01 Q52.6732 1057.01 56.3653 1054.37 Q60.0256 1051.7 60.0256 1047.05 Q60.0256 1042.4 56.3653 1039.73 Q52.6732 1037.06 46.212 1037.06 Q39.7508 1037.06 36.0905 1039.73 Q32.3984 1042.4 32.3984 1047.05 Q32.3984 1051.7 36.0905 1054.37 Q39.7508 1057.01 46.212 1057.01 Z" fill="#000000" fill-rule="evenodd" fill-opacity="1" /><path clip-path="url(#clip600)" d="M28.3562 1019.14 L28.3562 1013.28 L64.0042 1013.28 L64.0042 1019.14 L28.3562 1019.14 M14.479 1019.14 L14.479 1013.28 L21.895 1013.28 L21.895 1019.14 L14.479 1019.14 Z" fill="#000000" fill-rule="evenodd" fill-opacity="1" /><path clip-path="url(#clip600)" d="M14.479 982.981 L19.3487 982.981 L19.3487 988.582 Q19.3487 991.733 20.6219 992.975 Q21.895 994.184 25.2052 994.184 L28.3562 994.184 L28.3562 984.54 L32.9077 984.54 L32.9077 994.184 L64.0042 994.184 L64.0042 1000.07 L32.9077 1000.07 L32.9077 1005.67 L28.3562 1005.67 L28.3562 1000.07 L25.8736 1000.07 Q19.9216 1000.07 17.2162 997.303 Q14.479 994.534 14.479 988.519 L14.479 982.981 Z" fill="#000000" fill-rule="evenodd" fill-opacity="1" /><path clip-path="url(#clip600)" d="M14.479 960.032 L19.3487 960.032 L19.3487 965.634 Q19.3487 968.785 20.6219 970.026 Q21.895 971.236 25.2052 971.236 L28.3562 971.236 L28.3562 961.592 L32.9077 961.592 L32.9077 971.236 L64.0042 971.236 L64.0042 977.124 L32.9077 977.124 L32.9077 982.726 L28.3562 982.726 L28.3562 977.124 L25.8736 977.124 Q19.9216 977.124 17.2162 974.355 Q14.479 971.586 14.479 965.57 L14.479 960.032 Z" fill="#000000" fill-rule="evenodd" fill-opacity="1" /><path clip-path="url(#clip600)" d="M44.7161 924.639 L47.5806 924.639 L47.5806 951.566 Q53.6281 951.184 56.8109 947.937 Q59.9619 944.659 59.9619 938.834 Q59.9619 935.461 59.1344 932.31 Q58.3069 929.127 56.6518 926.007 L62.1899 926.007 Q63.5267 929.158 64.227 932.469 Q64.9272 935.779 64.9272 939.184 Q64.9272 947.715 59.9619 952.712 Q54.9967 957.677 46.5303 957.677 Q37.7774 957.677 32.6531 952.966 Q27.4968 948.224 27.4968 940.203 Q27.4968 933.01 32.1438 928.84 Q36.7589 924.639 44.7161 924.639 M42.9973 930.495 Q38.1912 930.559 35.3266 933.201 Q32.4621 935.811 32.4621 940.139 Q32.4621 945.041 35.2312 948.001 Q38.0002 950.929 43.0292 951.375 L42.9973 930.495 Z" fill="#000000" fill-rule="evenodd" fill-opacity="1" /><path clip-path="url(#clip600)" d="M33.8307 894.37 Q33.2578 895.357 33.0032 896.534 Q32.7167 897.68 32.7167 899.081 Q32.7167 904.046 35.9632 906.719 Q39.1779 909.361 45.2253 909.361 L64.0042 909.361 L64.0042 915.249 L28.3562 915.249 L28.3562 909.361 L33.8944 909.361 Q30.6479 907.515 29.0883 904.555 Q27.4968 901.595 27.4968 897.362 Q27.4968 896.757 27.5923 896.025 Q27.656 895.293 27.8151 894.402 L33.8307 894.37 Z" fill="#000000" fill-rule="evenodd" fill-opacity="1" /><path clip-path="url(#clip600)" d="M44.7161 859.168 L47.5806 859.168 L47.5806 886.094 Q53.6281 885.713 56.8109 882.466 Q59.9619 879.188 59.9619 873.363 Q59.9619 869.989 59.1344 866.838 Q58.3069 863.655 56.6518 860.536 L62.1899 860.536 Q63.5267 863.687 64.227 866.997 Q64.9272 870.308 64.9272 873.713 Q64.9272 882.243 59.9619 887.24 Q54.9967 892.206 46.5303 892.206 Q37.7774 892.206 32.6531 887.495 Q27.4968 882.752 27.4968 874.732 Q27.4968 867.538 32.1438 863.369 Q36.7589 859.168 44.7161 859.168 M42.9973 865.024 Q38.1912 865.088 35.3266 867.729 Q32.4621 870.339 32.4621 874.668 Q32.4621 879.57 35.2312 882.53 Q38.0002 885.458 43.0292 885.904 L42.9973 865.024 Z" fill="#000000" fill-rule="evenodd" fill-opacity="1" /><path clip-path="url(#clip600)" d="M42.4881 819.923 L64.0042 819.923 L64.0042 825.779 L42.679 825.779 Q37.6183 825.779 35.1038 827.753 Q32.5894 829.726 32.5894 833.673 Q32.5894 838.415 35.6131 841.153 Q38.6368 843.89 43.8567 843.89 L64.0042 843.89 L64.0042 849.778 L28.3562 849.778 L28.3562 843.89 L33.8944 843.89 Q30.6797 841.789 29.0883 838.956 Q27.4968 836.092 27.4968 832.368 Q27.4968 826.225 31.3163 823.074 Q35.1038 819.923 42.4881 819.923 Z" fill="#000000" fill-rule="evenodd" fill-opacity="1" /><path clip-path="url(#clip600)" d="M29.7248 782.588 L35.1993 782.588 Q33.8307 785.071 33.1623 787.585 Q32.4621 790.068 32.4621 792.614 Q32.4621 798.311 36.0905 801.462 Q39.6872 804.613 46.212 804.613 Q52.7369 804.613 56.3653 801.462 Q59.9619 798.311 59.9619 792.614 Q59.9619 790.068 59.2935 787.585 Q58.5933 785.071 57.2247 782.588 L62.6355 782.588 Q63.7814 785.039 64.3543 787.681 Q64.9272 790.291 64.9272 793.251 Q64.9272 801.303 59.8664 806.046 Q54.8057 810.788 46.212 810.788 Q37.491 810.788 32.4939 806.014 Q27.4968 801.208 27.4968 792.869 Q27.4968 790.163 28.0697 787.585 Q28.6108 785.007 29.7248 782.588 Z" fill="#000000" fill-rule="evenodd" fill-opacity="1" /><path clip-path="url(#clip600)" d="M44.7161 741.911 L47.5806 741.911 L47.5806 768.838 Q53.6281 768.456 56.8109 765.21 Q59.9619 761.931 59.9619 756.107 Q59.9619 752.733 59.1344 749.582 Q58.3069 746.399 56.6518 743.28 L62.1899 743.28 Q63.5267 746.431 64.227 749.741 Q64.9272 753.051 64.9272 756.457 Q64.9272 764.987 59.9619 769.984 Q54.9967 774.949 46.5303 774.949 Q37.7774 774.949 32.6531 770.239 Q27.4968 765.496 27.4968 757.475 Q27.4968 750.282 32.1438 746.113 Q36.7589 741.911 44.7161 741.911 M42.9973 747.768 Q38.1912 747.831 35.3266 750.473 Q32.4621 753.083 32.4621 757.412 Q32.4621 762.313 35.2312 765.273 Q38.0002 768.202 43.0292 768.647 L42.9973 747.768 Z" fill="#000000" fill-rule="evenodd" fill-opacity="1" /><path clip-path="url(#clip600)" d="M28.3562 711.579 L28.3562 705.722 L64.0042 705.722 L64.0042 711.579 L28.3562 711.579 M14.479 711.579 L14.479 705.722 L21.895 705.722 L21.895 711.579 L14.479 711.579 Z" fill="#000000" fill-rule="evenodd" fill-opacity="1" /><path clip-path="url(#clip600)" d="M42.4881 663.836 L64.0042 663.836 L64.0042 669.692 L42.679 669.692 Q37.6183 669.692 35.1038 671.666 Q32.5894 673.639 32.5894 677.586 Q32.5894 682.328 35.6131 685.065 Q38.6368 687.803 43.8567 687.803 L64.0042 687.803 L64.0042 693.691 L28.3562 693.691 L28.3562 687.803 L33.8944 687.803 Q30.6797 685.702 29.0883 682.869 Q27.4968 680.005 27.4968 676.281 Q27.4968 670.138 31.3163 666.987 Q35.1038 663.836 42.4881 663.836 Z" fill="#000000" fill-rule="evenodd" fill-opacity="1" /><path clip-path="url(#clip600)" d="M33.7671 607.977 L14.479 607.977 L14.479 602.12 L64.0042 602.12 L64.0042 607.977 L58.657 607.977 Q61.8398 609.823 63.3994 612.656 Q64.9272 615.456 64.9272 619.403 Q64.9272 625.864 59.771 629.938 Q54.6147 633.981 46.212 633.981 Q37.8093 633.981 32.6531 629.938 Q27.4968 625.864 27.4968 619.403 Q27.4968 615.456 29.0564 612.656 Q30.5842 609.823 33.7671 607.977 M46.212 627.933 Q52.6732 627.933 56.3653 625.291 Q60.0256 622.618 60.0256 617.971 Q60.0256 613.324 56.3653 610.65 Q52.6732 607.977 46.212 607.977 Q39.7508 607.977 36.0905 610.65 Q32.3984 613.324 32.3984 617.971 Q32.3984 622.618 36.0905 625.291 Q39.7508 627.933 46.212 627.933 Z" fill="#000000" fill-rule="evenodd" fill-opacity="1" /><path clip-path="url(#clip600)" d="M28.3562 590.057 L28.3562 584.201 L64.0042 584.201 L64.0042 590.057 L28.3562 590.057 M14.479 590.057 L14.479 584.201 L21.895 584.201 L21.895 590.057 L14.479 590.057 Z" fill="#000000" fill-rule="evenodd" fill-opacity="1" /><path clip-path="url(#clip600)" d="M29.4065 549.221 L34.9447 549.221 Q33.6716 551.704 33.035 554.378 Q32.3984 557.051 32.3984 559.916 Q32.3984 564.276 33.7352 566.472 Q35.072 568.637 37.7456 568.637 Q39.7826 568.637 40.9603 567.077 Q42.1061 565.517 43.1565 560.807 L43.6021 558.802 Q44.9389 552.563 47.3897 549.953 Q49.8086 547.312 54.1691 547.312 Q59.1344 547.312 62.0308 551.258 Q64.9272 555.173 64.9272 562.048 Q64.9272 564.913 64.3543 568.032 Q63.8132 571.119 62.6992 574.557 L56.6518 574.557 Q58.3387 571.31 59.198 568.159 Q60.0256 565.008 60.0256 561.921 Q60.0256 557.783 58.6251 555.555 Q57.1929 553.327 54.6147 553.327 Q52.2276 553.327 50.9545 554.95 Q49.6813 556.542 48.5037 561.985 L48.0262 564.022 Q46.8804 569.464 44.5251 571.883 Q42.138 574.302 38.0002 574.302 Q32.9713 574.302 30.2341 570.737 Q27.4968 567.173 27.4968 560.616 Q27.4968 557.369 27.9743 554.505 Q28.4517 551.64 29.4065 549.221 Z" fill="#000000" fill-rule="evenodd" fill-opacity="1" /><path clip-path="url(#clip600)" d="M58.657 532.32 L77.5631 532.32 L77.5631 538.209 L28.3562 538.209 L28.3562 532.32 L33.7671 532.32 Q30.5842 530.474 29.0564 527.673 Q27.4968 524.841 27.4968 520.926 Q27.4968 514.433 32.6531 510.39 Q37.8093 506.316 46.212 506.316 Q54.6147 506.316 59.771 510.39 Q64.9272 514.433 64.9272 520.926 Q64.9272 524.841 63.3994 527.673 Q61.8398 530.474 58.657 532.32 M46.212 512.396 Q39.7508 512.396 36.0905 515.069 Q32.3984 517.711 32.3984 522.358 Q32.3984 527.005 36.0905 529.679 Q39.7508 532.32 46.212 532.32 Q52.6732 532.32 56.3653 529.679 Q60.0256 527.005 60.0256 522.358 Q60.0256 517.711 56.3653 515.069 Q52.6732 512.396 46.212 512.396 Z" fill="#000000" fill-rule="evenodd" fill-opacity="1" /><path clip-path="url(#clip600)" d="M44.7161 466.117 L47.5806 466.117 L47.5806 493.044 Q53.6281 492.662 56.8109 489.415 Q59.9619 486.137 59.9619 480.313 Q59.9619 476.939 59.1344 473.788 Q58.3069 470.605 56.6518 467.486 L62.1899 467.486 Q63.5267 470.637 64.227 473.947 Q64.9272 477.257 64.9272 480.663 Q64.9272 489.193 59.9619 494.19 Q54.9967 499.155 46.5303 499.155 Q37.7774 499.155 32.6531 494.444 Q27.4968 489.702 27.4968 481.681 Q27.4968 474.488 32.1438 470.318 Q36.7589 466.117 44.7161 466.117 M42.9973 471.973 Q38.1912 472.037 35.3266 474.679 Q32.4621 477.289 32.4621 481.617 Q32.4621 486.519 35.2312 489.479 Q38.0002 492.407 43.0292 492.853 L42.9973 471.973 Z" fill="#000000" fill-rule="evenodd" fill-opacity="1" /><path clip-path="url(#clip600)" d="M33.8307 435.848 Q33.2578 436.835 33.0032 438.012 Q32.7167 439.158 32.7167 440.559 Q32.7167 445.524 35.9632 448.198 Q39.1779 450.839 45.2253 450.839 L64.0042 450.839 L64.0042 456.728 L28.3562 456.728 L28.3562 450.839 L33.8944 450.839 Q30.6479 448.993 29.0883 446.033 Q27.4968 443.073 27.4968 438.84 Q27.4968 438.235 27.5923 437.503 Q27.656 436.771 27.8151 435.88 L33.8307 435.848 Z" fill="#000000" fill-rule="evenodd" fill-opacity="1" /><path clip-path="url(#clip600)" d="M29.4065 406.98 L34.9447 406.98 Q33.6716 409.462 33.035 412.136 Q32.3984 414.809 32.3984 417.674 Q32.3984 422.034 33.7352 424.231 Q35.072 426.395 37.7456 426.395 Q39.7826 426.395 40.9603 424.835 Q42.1061 423.276 43.1565 418.565 L43.6021 416.56 Q44.9389 410.322 47.3897 407.712 Q49.8086 405.07 54.1691 405.07 Q59.1344 405.07 62.0308 409.017 Q64.9272 412.932 64.9272 419.806 Q64.9272 422.671 64.3543 425.79 Q63.8132 428.878 62.6992 432.315 L56.6518 432.315 Q58.3387 429.069 59.198 425.918 Q60.0256 422.767 60.0256 419.679 Q60.0256 415.541 58.6251 413.313 Q57.1929 411.085 54.6147 411.085 Q52.2276 411.085 50.9545 412.709 Q49.6813 414.3 48.5037 419.743 L48.0262 421.78 Q46.8804 427.223 44.5251 429.641 Q42.138 432.06 38.0002 432.06 Q32.9713 432.06 30.2341 428.496 Q27.4968 424.931 27.4968 418.374 Q27.4968 415.128 27.9743 412.263 Q28.4517 409.399 29.4065 406.98 Z" fill="#000000" fill-rule="evenodd" fill-opacity="1" /><path clip-path="url(#clip600)" d="M28.3562 395.744 L28.3562 389.888 L64.0042 389.888 L64.0042 395.744 L28.3562 395.744 M14.479 395.744 L14.479 389.888 L21.895 389.888 L21.895 395.744 L14.479 395.744 Z" fill="#000000" fill-rule="evenodd" fill-opacity="1" /><path clip-path="url(#clip600)" d="M32.4621 363.82 Q32.4621 368.531 36.1542 371.268 Q39.8145 374.005 46.212 374.005 Q52.6095 374.005 56.3017 371.3 Q59.9619 368.563 59.9619 363.82 Q59.9619 359.141 56.2698 356.404 Q52.5777 353.667 46.212 353.667 Q39.8781 353.667 36.186 356.404 Q32.4621 359.141 32.4621 363.82 M27.4968 363.82 Q27.4968 356.181 32.4621 351.821 Q37.4273 347.46 46.212 347.46 Q54.9649 347.46 59.9619 351.821 Q64.9272 356.181 64.9272 363.82 Q64.9272 371.491 59.9619 375.851 Q54.9649 380.18 46.212 380.18 Q37.4273 380.18 32.4621 375.851 Q27.4968 371.491 27.4968 363.82 Z" fill="#000000" fill-rule="evenodd" fill-opacity="1" /><path clip-path="url(#clip600)" d="M42.4881 308.12 L64.0042 308.12 L64.0042 313.977 L42.679 313.977 Q37.6183 313.977 35.1038 315.95 Q32.5894 317.923 32.5894 321.87 Q32.5894 326.613 35.6131 329.35 Q38.6368 332.087 43.8567 332.087 L64.0042 332.087 L64.0042 337.975 L28.3562 337.975 L28.3562 332.087 L33.8944 332.087 Q30.6797 329.986 29.0883 327.154 Q27.4968 324.289 27.4968 320.565 Q27.4968 314.422 31.3163 311.271 Q35.1038 308.12 42.4881 308.12 Z" fill="#000000" fill-rule="evenodd" fill-opacity="1" /><path clip-path="url(#clip600)" d="M55.9197 294.943 L55.9197 288.227 L61.3942 288.227 L71.5793 293.447 L71.5793 297.553 L61.3942 294.943 L55.9197 294.943 Z" fill="#000000" fill-rule="evenodd" fill-opacity="1" /><path clip-path="url(#clip600)" d="M43.0928 213.749 Q43.0928 216.518 45.4481 218.109 Q47.8034 219.669 52.0048 219.669 Q56.1425 219.669 58.5296 218.109 Q60.885 216.518 60.885 213.749 Q60.885 211.043 58.5296 209.484 Q56.1425 207.892 52.0048 207.892 Q47.8353 207.892 45.48 209.484 Q43.0928 211.043 43.0928 213.749 M39.0506 213.749 Q39.0506 208.72 42.5517 205.76 Q46.0529 202.8 52.0048 202.8 Q57.9567 202.8 61.4579 205.791 Q64.9272 208.751 64.9272 213.749 Q64.9272 218.841 61.4579 221.801 Q57.9567 224.761 52.0048 224.761 Q46.021 224.761 42.5517 221.801 Q39.0506 218.809 39.0506 213.749 M19.667 246.596 Q19.667 249.333 22.0542 250.924 Q24.4095 252.484 28.5472 252.484 Q32.7485 252.484 35.1038 250.924 Q37.4592 249.365 37.4592 246.596 Q37.4592 243.827 35.1038 242.267 Q32.7485 240.675 28.5472 240.675 Q24.4413 240.675 22.0542 242.267 Q19.667 243.858 19.667 246.596 M15.6248 217.854 L15.6248 212.762 L64.9272 242.49 L64.9272 247.582 L15.6248 217.854 M15.6248 246.596 Q15.6248 241.567 19.1259 238.575 Q22.5952 235.583 28.5472 235.583 Q34.5628 235.583 38.0321 238.575 Q41.5014 241.535 41.5014 246.596 Q41.5014 251.656 38.0321 254.616 Q34.5309 257.545 28.5472 257.545 Q22.6271 257.545 19.1259 254.585 Q15.6248 251.624 15.6248 246.596 Z" fill="#000000" fill-rule="evenodd" fill-opacity="1" /><path clip-path="url(#clip600)" d="M403.385 18.8205 L403.385 65.8515 L413.269 65.8515 Q425.786 65.8515 431.579 60.1802 Q437.412 54.509 437.412 42.2752 Q437.412 30.1225 431.579 24.4918 Q425.786 18.8205 413.269 18.8205 L403.385 18.8205 M395.202 12.096 L412.013 12.096 Q429.594 12.096 437.817 19.4281 Q446.041 26.7198 446.041 42.2752 Q446.041 57.9117 437.777 65.2439 Q429.513 72.576 412.013 72.576 L395.202 72.576 L395.202 12.096 Z" fill="#000000" fill-rule="evenodd" fill-opacity="1" /><path clip-path="url(#clip600)" d="M458.761 27.2059 L466.214 27.2059 L466.214 72.576 L458.761 72.576 L458.761 27.2059 M458.761 9.54393 L466.214 9.54393 L466.214 18.9825 L458.761 18.9825 L458.761 9.54393 Z" fill="#000000" fill-rule="evenodd" fill-opacity="1" /><path clip-path="url(#clip600)" d="M510.734 28.5427 L510.734 35.5912 Q507.574 33.9709 504.171 33.1607 Q500.768 32.3505 497.123 32.3505 Q491.573 32.3505 488.778 34.0519 Q486.023 35.7533 486.023 39.156 Q486.023 41.7486 488.008 43.2475 Q489.993 44.7058 495.988 46.0426 L498.54 46.6097 Q506.48 48.3111 509.802 51.4303 Q513.164 54.509 513.164 60.0587 Q513.164 66.3781 508.141 70.0644 Q503.158 73.7508 494.409 73.7508 Q490.763 73.7508 486.793 73.0216 Q482.863 72.3329 478.488 70.9151 L478.488 63.2184 Q482.62 65.3654 486.631 66.4591 Q490.641 67.5124 494.571 67.5124 Q499.837 67.5124 502.672 65.73 Q505.508 63.9071 505.508 60.6258 Q505.508 57.5877 503.442 55.9673 Q501.417 54.3469 494.49 52.8481 L491.897 52.2405 Q484.97 50.7821 481.891 47.7845 Q478.813 44.7463 478.813 39.4801 Q478.813 33.0797 483.35 29.5959 Q487.887 26.1121 496.231 26.1121 Q500.363 26.1121 504.009 26.7198 Q507.655 27.3274 510.734 28.5427 Z" fill="#000000" fill-rule="evenodd" fill-opacity="1" /><path clip-path="url(#clip600)" d="M532.244 65.7705 L532.244 89.8329 L524.75 89.8329 L524.75 27.2059 L532.244 27.2059 L532.244 34.0924 Q534.593 30.0415 538.158 28.0971 Q541.764 26.1121 546.746 26.1121 Q555.01 26.1121 560.155 32.6746 Q565.34 39.2371 565.34 49.9314 Q565.34 60.6258 560.155 67.1883 Q555.01 73.7508 546.746 73.7508 Q541.764 73.7508 538.158 71.8063 Q534.593 69.8214 532.244 65.7705 M557.603 49.9314 Q557.603 41.7081 554.2 37.0496 Q550.838 32.3505 544.923 32.3505 Q539.009 32.3505 535.606 37.0496 Q532.244 41.7081 532.244 49.9314 Q532.244 58.1548 535.606 62.8538 Q539.009 67.5124 544.923 67.5124 Q550.838 67.5124 554.2 62.8538 Q557.603 58.1548 557.603 49.9314 Z" fill="#000000" fill-rule="evenodd" fill-opacity="1" /><path clip-path="url(#clip600)" d="M616.503 48.0275 L616.503 51.6733 L582.232 51.6733 Q582.718 59.3701 586.85 63.421 Q591.023 67.4314 598.436 67.4314 Q602.73 67.4314 606.74 66.3781 Q610.791 65.3249 614.761 63.2184 L614.761 70.267 Q610.75 71.9684 606.538 72.8596 Q602.325 73.7508 597.99 73.7508 Q587.134 73.7508 580.774 67.4314 Q574.454 61.1119 574.454 50.3365 Q574.454 39.1965 580.45 32.6746 Q586.486 26.1121 596.694 26.1121 Q605.849 26.1121 611.156 32.0264 Q616.503 37.9003 616.503 48.0275 M609.049 45.84 Q608.968 39.7232 605.606 36.0774 Q602.284 32.4315 596.775 32.4315 Q590.536 32.4315 586.769 35.9558 Q583.042 39.4801 582.475 45.8805 L609.049 45.84 Z" fill="#000000" fill-rule="evenodd" fill-opacity="1" /><path clip-path="url(#clip600)" d="M655.027 34.1734 Q653.771 33.4443 652.272 33.1202 Q650.814 32.7556 649.032 32.7556 Q642.712 32.7556 639.309 36.8875 Q635.947 40.9789 635.947 48.6757 L635.947 72.576 L628.453 72.576 L628.453 27.2059 L635.947 27.2059 L635.947 34.2544 Q638.297 30.1225 642.064 28.1376 Q645.831 26.1121 651.219 26.1121 Q651.989 26.1121 652.92 26.2337 Q653.852 26.3147 654.986 26.5172 L655.027 34.1734 Z" fill="#000000" fill-rule="evenodd" fill-opacity="1" /><path clip-path="url(#clip600)" d="M691.769 28.5427 L691.769 35.5912 Q688.609 33.9709 685.206 33.1607 Q681.803 32.3505 678.158 32.3505 Q672.608 32.3505 669.813 34.0519 Q667.058 35.7533 667.058 39.156 Q667.058 41.7486 669.043 43.2475 Q671.028 44.7058 677.023 46.0426 L679.575 46.6097 Q687.515 48.3111 690.837 51.4303 Q694.199 54.509 694.199 60.0587 Q694.199 66.3781 689.176 70.0644 Q684.193 73.7508 675.443 73.7508 Q671.798 73.7508 667.828 73.0216 Q663.898 72.3329 659.523 70.9151 L659.523 63.2184 Q663.655 65.3654 667.666 66.4591 Q671.676 67.5124 675.605 67.5124 Q680.872 67.5124 683.707 65.73 Q686.543 63.9071 686.543 60.6258 Q686.543 57.5877 684.477 55.9673 Q682.451 54.3469 675.524 52.8481 L672.932 52.2405 Q666.005 50.7821 662.926 47.7845 Q659.847 44.7463 659.847 39.4801 Q659.847 33.0797 664.384 29.5959 Q668.921 26.1121 677.266 26.1121 Q681.398 26.1121 685.044 26.7198 Q688.69 27.3274 691.769 28.5427 Z" fill="#000000" fill-rule="evenodd" fill-opacity="1" /><path clip-path="url(#clip600)" d="M706.068 27.2059 L713.522 27.2059 L713.522 72.576 L706.068 72.576 L706.068 27.2059 M706.068 9.54393 L713.522 9.54393 L713.522 18.9825 L706.068 18.9825 L706.068 9.54393 Z" fill="#000000" fill-rule="evenodd" fill-opacity="1" /><path clip-path="url(#clip600)" d="M746.699 32.4315 Q740.703 32.4315 737.22 37.1306 Q733.736 41.7891 733.736 49.9314 Q733.736 58.0738 737.179 62.7728 Q740.663 67.4314 746.699 67.4314 Q752.654 67.4314 756.137 62.7323 Q759.621 58.0333 759.621 49.9314 Q759.621 41.8701 756.137 37.1711 Q752.654 32.4315 746.699 32.4315 M746.699 26.1121 Q756.421 26.1121 761.971 32.4315 Q767.52 38.7509 767.52 49.9314 Q767.52 61.0714 761.971 67.4314 Q756.421 73.7508 746.699 73.7508 Q736.936 73.7508 731.386 67.4314 Q725.877 61.0714 725.877 49.9314 Q725.877 38.7509 731.386 32.4315 Q736.936 26.1121 746.699 26.1121 Z" fill="#000000" fill-rule="evenodd" fill-opacity="1" /><path clip-path="url(#clip600)" d="M817.59 45.1919 L817.59 72.576 L810.136 72.576 L810.136 45.4349 Q810.136 38.994 807.624 35.7938 Q805.113 32.5936 800.09 32.5936 Q794.054 32.5936 790.57 36.4419 Q787.086 40.2903 787.086 46.9338 L787.086 72.576 L779.592 72.576 L779.592 27.2059 L787.086 27.2059 L787.086 34.2544 Q789.76 30.163 793.365 28.1376 Q797.011 26.1121 801.751 26.1121 Q809.569 26.1121 813.579 30.9732 Q817.59 35.7938 817.59 45.1919 Z" fill="#000000" fill-rule="evenodd" fill-opacity="1" /><path clip-path="url(#clip600)" d="M866.038 65.7705 L866.038 89.8329 L858.544 89.8329 L858.544 27.2059 L866.038 27.2059 L866.038 34.0924 Q868.388 30.0415 871.953 28.0971 Q875.558 26.1121 880.541 26.1121 Q888.805 26.1121 893.949 32.6746 Q899.134 39.2371 899.134 49.9314 Q899.134 60.6258 893.949 67.1883 Q888.805 73.7508 880.541 73.7508 Q875.558 73.7508 871.953 71.8063 Q868.388 69.8214 866.038 65.7705 M891.397 49.9314 Q891.397 41.7081 887.994 37.0496 Q884.632 32.3505 878.718 32.3505 Q872.803 32.3505 869.401 37.0496 Q866.038 41.7081 866.038 49.9314 Q866.038 58.1548 869.401 62.8538 Q872.803 67.5124 878.718 67.5124 Q884.632 67.5124 887.994 62.8538 Q891.397 58.1548 891.397 49.9314 Z" fill="#000000" fill-rule="evenodd" fill-opacity="1" /><path clip-path="url(#clip600)" d="M932.109 49.7694 Q923.075 49.7694 919.591 51.8354 Q916.108 53.9013 916.108 58.8839 Q916.108 62.8538 918.7 65.2034 Q921.333 67.5124 925.83 67.5124 Q932.028 67.5124 935.755 63.1374 Q939.522 58.7219 939.522 51.4303 L939.522 49.7694 L932.109 49.7694 M946.976 46.6907 L946.976 72.576 L939.522 72.576 L939.522 65.6895 Q936.97 69.8214 933.162 71.8063 Q929.354 73.7508 923.845 73.7508 Q916.877 73.7508 912.745 69.8619 Q908.654 65.9325 908.654 59.3701 Q908.654 51.7138 913.758 47.825 Q918.903 43.9361 929.071 43.9361 L939.522 43.9361 L939.522 43.2069 Q939.522 38.0623 936.119 35.2672 Q932.757 32.4315 926.64 32.4315 Q922.751 32.4315 919.065 33.3632 Q915.378 34.295 911.976 36.1584 L911.976 29.2718 Q916.067 27.692 919.915 26.9223 Q923.764 26.1121 927.41 26.1121 Q937.253 26.1121 942.114 31.2163 Q946.976 36.3204 946.976 46.6907 Z" fill="#000000" fill-rule="evenodd" fill-opacity="1" /><path clip-path="url(#clip600)" d="M988.619 34.1734 Q987.363 33.4443 985.864 33.1202 Q984.406 32.7556 982.623 32.7556 Q976.304 32.7556 972.901 36.8875 Q969.539 40.9789 969.539 48.6757 L969.539 72.576 L962.045 72.576 L962.045 27.2059 L969.539 27.2059 L969.539 34.2544 Q971.889 30.1225 975.656 28.1376 Q979.423 26.1121 984.811 26.1121 Q985.581 26.1121 986.512 26.2337 Q987.444 26.3147 988.578 26.5172 L988.619 34.1734 Z" fill="#000000" fill-rule="evenodd" fill-opacity="1" /><path clip-path="url(#clip600)" d="M1017.06 49.7694 Q1008.02 49.7694 1004.54 51.8354 Q1001.06 53.9013 1001.06 58.8839 Q1001.06 62.8538 1003.65 65.2034 Q1006.28 67.5124 1010.78 67.5124 Q1016.98 67.5124 1020.7 63.1374 Q1024.47 58.7219 1024.47 51.4303 L1024.47 49.7694 L1017.06 49.7694 M1031.92 46.6907 L1031.92 72.576 L1024.47 72.576 L1024.47 65.6895 Q1021.92 69.8214 1018.11 71.8063 Q1014.3 73.7508 1008.79 73.7508 Q1001.82 73.7508 997.693 69.8619 Q993.601 65.9325 993.601 59.3701 Q993.601 51.7138 998.706 47.825 Q1003.85 43.9361 1014.02 43.9361 L1024.47 43.9361 L1024.47 43.2069 Q1024.47 38.0623 1021.07 35.2672 Q1017.7 32.4315 1011.59 32.4315 Q1007.7 32.4315 1004.01 33.3632 Q1000.33 34.295 996.923 36.1584 L996.923 29.2718 Q1001.01 27.692 1004.86 26.9223 Q1008.71 26.1121 1012.36 26.1121 Q1022.2 26.1121 1027.06 31.2163 Q1031.92 36.3204 1031.92 46.6907 Z" fill="#000000" fill-rule="evenodd" fill-opacity="1" /><path clip-path="url(#clip600)" d="M1082.6 35.9153 Q1085.39 30.8922 1089.28 28.5022 Q1093.17 26.1121 1098.44 26.1121 Q1105.53 26.1121 1109.38 31.0947 Q1113.22 36.0368 1113.22 45.1919 L1113.22 72.576 L1105.73 72.576 L1105.73 45.4349 Q1105.73 38.913 1103.42 35.7533 Q1101.11 32.5936 1096.37 32.5936 Q1090.58 32.5936 1087.22 36.4419 Q1083.86 40.2903 1083.86 46.9338 L1083.86 72.576 L1076.36 72.576 L1076.36 45.4349 Q1076.36 38.8725 1074.05 35.7533 Q1071.74 32.5936 1066.92 32.5936 Q1061.21 32.5936 1057.85 36.4824 Q1054.49 40.3308 1054.49 46.9338 L1054.49 72.576 L1046.99 72.576 L1046.99 27.2059 L1054.49 27.2059 L1054.49 34.2544 Q1057.04 30.082 1060.6 28.0971 Q1064.17 26.1121 1069.07 26.1121 Q1074.01 26.1121 1077.46 28.6237 Q1080.94 31.1352 1082.6 35.9153 Z" fill="#000000" fill-rule="evenodd" fill-opacity="1" /><path clip-path="url(#clip600)" d="M1166.9 48.0275 L1166.9 51.6733 L1132.63 51.6733 Q1133.11 59.3701 1137.25 63.421 Q1141.42 67.4314 1148.83 67.4314 Q1153.13 67.4314 1157.14 66.3781 Q1161.19 65.3249 1165.16 63.2184 L1165.16 70.267 Q1161.15 71.9684 1156.93 72.8596 Q1152.72 73.7508 1148.39 73.7508 Q1137.53 73.7508 1131.17 67.4314 Q1124.85 61.1119 1124.85 50.3365 Q1124.85 39.1965 1130.85 32.6746 Q1136.88 26.1121 1147.09 26.1121 Q1156.25 26.1121 1161.55 32.0264 Q1166.9 37.9003 1166.9 48.0275 M1159.45 45.84 Q1159.36 39.7232 1156 36.0774 Q1152.68 32.4315 1147.17 32.4315 Q1140.93 32.4315 1137.17 35.9558 Q1133.44 39.4801 1132.87 45.8805 L1159.45 45.84 Z" fill="#000000" fill-rule="evenodd" fill-opacity="1" /><path clip-path="url(#clip600)" d="M1186.51 14.324 L1186.51 27.2059 L1201.86 27.2059 L1201.86 32.9987 L1186.51 32.9987 L1186.51 57.6282 Q1186.51 63.1779 1188 64.7578 Q1189.54 66.3376 1194.2 66.3376 L1201.86 66.3376 L1201.86 72.576 L1194.2 72.576 Q1185.57 72.576 1182.29 69.3758 Q1179.01 66.1351 1179.01 57.6282 L1179.01 32.9987 L1173.54 32.9987 L1173.54 27.2059 L1179.01 27.2059 L1179.01 14.324 L1186.51 14.324 Z" fill="#000000" fill-rule="evenodd" fill-opacity="1" /><path clip-path="url(#clip600)" d="M1250.47 48.0275 L1250.47 51.6733 L1216.2 51.6733 Q1216.68 59.3701 1220.82 63.421 Q1224.99 67.4314 1232.4 67.4314 Q1236.7 67.4314 1240.71 66.3781 Q1244.76 65.3249 1248.73 63.2184 L1248.73 70.267 Q1244.72 71.9684 1240.5 72.8596 Q1236.29 73.7508 1231.96 73.7508 Q1221.1 73.7508 1214.74 67.4314 Q1208.42 61.1119 1208.42 50.3365 Q1208.42 39.1965 1214.42 32.6746 Q1220.45 26.1121 1230.66 26.1121 Q1239.82 26.1121 1245.12 32.0264 Q1250.47 37.9003 1250.47 48.0275 M1243.02 45.84 Q1242.93 39.7232 1239.57 36.0774 Q1236.25 32.4315 1230.74 32.4315 Q1224.5 32.4315 1220.74 35.9558 Q1217.01 39.4801 1216.44 45.8805 L1243.02 45.84 Z" fill="#000000" fill-rule="evenodd" fill-opacity="1" /><path clip-path="url(#clip600)" d="M1288.99 34.1734 Q1287.74 33.4443 1286.24 33.1202 Q1284.78 32.7556 1283 32.7556 Q1276.68 32.7556 1273.28 36.8875 Q1269.91 40.9789 1269.91 48.6757 L1269.91 72.576 L1262.42 72.576 L1262.42 27.2059 L1269.91 27.2059 L1269.91 34.2544 Q1272.26 30.1225 1276.03 28.1376 Q1279.8 26.1121 1285.19 26.1121 Q1285.96 26.1121 1286.89 26.2337 Q1287.82 26.3147 1288.95 26.5172 L1288.99 34.1734 Z" fill="#000000" fill-rule="evenodd" fill-opacity="1" /><path clip-path="url(#clip600)" d="M1325.74 28.5427 L1325.74 35.5912 Q1322.58 33.9709 1319.17 33.1607 Q1315.77 32.3505 1312.12 32.3505 Q1306.57 32.3505 1303.78 34.0519 Q1301.02 35.7533 1301.02 39.156 Q1301.02 41.7486 1303.01 43.2475 Q1304.99 44.7058 1310.99 46.0426 L1313.54 46.6097 Q1321.48 48.3111 1324.8 51.4303 Q1328.17 54.509 1328.17 60.0587 Q1328.17 66.3781 1323.14 70.0644 Q1318.16 73.7508 1309.41 73.7508 Q1305.76 73.7508 1301.79 73.0216 Q1297.86 72.3329 1293.49 70.9151 L1293.49 63.2184 Q1297.62 65.3654 1301.63 66.4591 Q1305.64 67.5124 1309.57 67.5124 Q1314.84 67.5124 1317.67 65.73 Q1320.51 63.9071 1320.51 60.6258 Q1320.51 57.5877 1318.44 55.9673 Q1316.42 54.3469 1309.49 52.8481 L1306.9 52.2405 Q1299.97 50.7821 1296.89 47.7845 Q1293.81 44.7463 1293.81 39.4801 Q1293.81 33.0797 1298.35 29.5959 Q1302.89 26.1121 1311.23 26.1121 Q1315.36 26.1121 1319.01 26.7198 Q1322.66 27.3274 1325.74 28.5427 Z" fill="#000000" fill-rule="evenodd" fill-opacity="1" /><path clip-path="url(#clip600)" d="M1389.37 9.54393 L1389.37 15.7418 L1382.25 15.7418 Q1378.23 15.7418 1376.65 17.3622 Q1375.12 18.9825 1375.12 23.1955 L1375.12 27.2059 L1387.39 27.2059 L1387.39 32.9987 L1375.12 32.9987 L1375.12 72.576 L1367.62 72.576 L1367.62 32.9987 L1360.49 32.9987 L1360.49 27.2059 L1367.62 27.2059 L1367.62 24.0462 Q1367.62 16.471 1371.15 13.0277 Q1374.67 9.54393 1382.33 9.54393 L1389.37 9.54393 Z" fill="#000000" fill-rule="evenodd" fill-opacity="1" /><path clip-path="url(#clip600)" d="M1413.19 32.4315 Q1407.2 32.4315 1403.71 37.1306 Q1400.23 41.7891 1400.23 49.9314 Q1400.23 58.0738 1403.67 62.7728 Q1407.16 67.4314 1413.19 67.4314 Q1419.15 67.4314 1422.63 62.7323 Q1426.12 58.0333 1426.12 49.9314 Q1426.12 41.8701 1422.63 37.1711 Q1419.15 32.4315 1413.19 32.4315 M1413.19 26.1121 Q1422.92 26.1121 1428.47 32.4315 Q1434.02 38.7509 1434.02 49.9314 Q1434.02 61.0714 1428.47 67.4314 Q1422.92 73.7508 1413.19 73.7508 Q1403.43 73.7508 1397.88 67.4314 Q1392.37 61.0714 1392.37 49.9314 Q1392.37 38.7509 1397.88 32.4315 Q1403.43 26.1121 1413.19 26.1121 Z" fill="#000000" fill-rule="evenodd" fill-opacity="1" /><path clip-path="url(#clip600)" d="M1472.66 34.1734 Q1471.41 33.4443 1469.91 33.1202 Q1468.45 32.7556 1466.67 32.7556 Q1460.35 32.7556 1456.94 36.8875 Q1453.58 40.9789 1453.58 48.6757 L1453.58 72.576 L1446.09 72.576 L1446.09 27.2059 L1453.58 27.2059 L1453.58 34.2544 Q1455.93 30.1225 1459.7 28.1376 Q1463.47 26.1121 1468.85 26.1121 Q1469.62 26.1121 1470.55 26.2337 Q1471.49 26.3147 1472.62 26.5172 L1472.66 34.1734 Z" fill="#000000" fill-rule="evenodd" fill-opacity="1" /><path clip-path="url(#clip600)" d="M1539.5 28.9478 L1539.5 35.9153 Q1536.34 34.1734 1533.14 33.3227 Q1529.98 32.4315 1526.74 32.4315 Q1519.49 32.4315 1515.48 37.0496 Q1511.47 41.6271 1511.47 49.9314 Q1511.47 58.2358 1515.48 62.8538 Q1519.49 67.4314 1526.74 67.4314 Q1529.98 67.4314 1533.14 66.5807 Q1536.34 65.6895 1539.5 63.9476 L1539.5 70.8341 Q1536.38 72.2924 1533.02 73.0216 Q1529.7 73.7508 1525.93 73.7508 Q1515.68 73.7508 1509.65 67.3098 Q1503.61 60.8689 1503.61 49.9314 Q1503.61 38.832 1509.69 32.472 Q1515.8 26.1121 1526.42 26.1121 Q1529.86 26.1121 1533.14 26.8413 Q1536.42 27.5299 1539.5 28.9478 Z" fill="#000000" fill-rule="evenodd" fill-opacity="1" /><path clip-path="url(#clip600)" d="M1552.46 9.54393 L1559.92 9.54393 L1559.92 72.576 L1552.46 72.576 L1552.46 9.54393 Z" fill="#000000" fill-rule="evenodd" fill-opacity="1" /><path clip-path="url(#clip600)" d="M1596.13 49.7694 Q1587.1 49.7694 1583.62 51.8354 Q1580.13 53.9013 1580.13 58.8839 Q1580.13 62.8538 1582.72 65.2034 Q1585.36 67.5124 1589.85 67.5124 Q1596.05 67.5124 1599.78 63.1374 Q1603.55 58.7219 1603.55 51.4303 L1603.55 49.7694 L1596.13 49.7694 M1611 46.6907 L1611 72.576 L1603.55 72.576 L1603.55 65.6895 Q1600.99 69.8214 1597.19 71.8063 Q1593.38 73.7508 1587.87 73.7508 Q1580.9 73.7508 1576.77 69.8619 Q1572.68 65.9325 1572.68 59.3701 Q1572.68 51.7138 1577.78 47.825 Q1582.93 43.9361 1593.09 43.9361 L1603.55 43.9361 L1603.55 43.2069 Q1603.55 38.0623 1600.14 35.2672 Q1596.78 32.4315 1590.66 32.4315 Q1586.78 32.4315 1583.09 33.3632 Q1579.4 34.295 1576 36.1584 L1576 29.2718 Q1580.09 27.692 1583.94 26.9223 Q1587.79 26.1121 1591.43 26.1121 Q1601.28 26.1121 1606.14 31.2163 Q1611 36.3204 1611 46.6907 Z" fill="#000000" fill-rule="evenodd" fill-opacity="1" /><path clip-path="url(#clip600)" d="M1655.28 28.5427 L1655.28 35.5912 Q1652.12 33.9709 1648.71 33.1607 Q1645.31 32.3505 1641.67 32.3505 Q1636.12 32.3505 1633.32 34.0519 Q1630.57 35.7533 1630.57 39.156 Q1630.57 41.7486 1632.55 43.2475 Q1634.54 44.7058 1640.53 46.0426 L1643.08 46.6097 Q1651.02 48.3111 1654.34 51.4303 Q1657.71 54.509 1657.71 60.0587 Q1657.71 66.3781 1652.68 70.0644 Q1647.7 73.7508 1638.95 73.7508 Q1635.31 73.7508 1631.34 73.0216 Q1627.41 72.3329 1623.03 70.9151 L1623.03 63.2184 Q1627.16 65.3654 1631.17 66.4591 Q1635.18 67.5124 1639.11 67.5124 Q1644.38 67.5124 1647.21 65.73 Q1650.05 63.9071 1650.05 60.6258 Q1650.05 57.5877 1647.98 55.9673 Q1645.96 54.3469 1639.03 52.8481 L1636.44 52.2405 Q1629.51 50.7821 1626.43 47.7845 Q1623.35 44.7463 1623.35 39.4801 Q1623.35 33.0797 1627.89 29.5959 Q1632.43 26.1121 1640.77 26.1121 Q1644.91 26.1121 1648.55 26.7198 Q1652.2 27.3274 1655.28 28.5427 Z" fill="#000000" fill-rule="evenodd" fill-opacity="1" /><path clip-path="url(#clip600)" d="M1698.5 28.5427 L1698.5 35.5912 Q1695.34 33.9709 1691.94 33.1607 Q1688.53 32.3505 1684.89 32.3505 Q1679.34 32.3505 1676.54 34.0519 Q1673.79 35.7533 1673.79 39.156 Q1673.79 41.7486 1675.77 43.2475 Q1677.76 44.7058 1683.75 46.0426 L1686.31 46.6097 Q1694.25 48.3111 1697.57 51.4303 Q1700.93 54.509 1700.93 60.0587 Q1700.93 66.3781 1695.91 70.0644 Q1690.92 73.7508 1682.17 73.7508 Q1678.53 73.7508 1674.56 73.0216 Q1670.63 72.3329 1666.25 70.9151 L1666.25 63.2184 Q1670.39 65.3654 1674.4 66.4591 Q1678.41 67.5124 1682.34 67.5124 Q1687.6 67.5124 1690.44 65.73 Q1693.27 63.9071 1693.27 60.6258 Q1693.27 57.5877 1691.21 55.9673 Q1689.18 54.3469 1682.26 52.8481 L1679.66 52.2405 Q1672.74 50.7821 1669.66 47.7845 Q1666.58 44.7463 1666.58 39.4801 Q1666.58 33.0797 1671.12 29.5959 Q1675.65 26.1121 1684 26.1121 Q1688.13 26.1121 1691.77 26.7198 Q1695.42 27.3274 1698.5 28.5427 Z" fill="#000000" fill-rule="evenodd" fill-opacity="1" /><path clip-path="url(#clip600)" d="M1739.49 12.096 L1774.25 12.096 L1774.25 18.9825 L1747.68 18.9825 L1747.68 36.8065 L1771.66 36.8065 L1771.66 43.6931 L1747.68 43.6931 L1747.68 72.576 L1739.49 72.576 L1739.49 12.096 Z" fill="#000000" fill-rule="evenodd" fill-opacity="1" /><path clip-path="url(#clip600)" d="M1842.18 28.5427 L1842.18 35.5912 Q1839.03 33.9709 1835.62 33.1607 Q1832.22 32.3505 1828.57 32.3505 Q1823.02 32.3505 1820.23 34.0519 Q1817.47 35.7533 1817.47 39.156 Q1817.47 41.7486 1819.46 43.2475 Q1821.44 44.7058 1827.44 46.0426 L1829.99 46.6097 Q1837.93 48.3111 1841.25 51.4303 Q1844.62 54.509 1844.62 60.0587 Q1844.62 66.3781 1839.59 70.0644 Q1834.61 73.7508 1825.86 73.7508 Q1822.21 73.7508 1818.24 73.0216 Q1814.31 72.3329 1809.94 70.9151 L1809.94 63.2184 Q1814.07 65.3654 1818.08 66.4591 Q1822.09 67.5124 1826.02 67.5124 Q1831.29 67.5124 1834.12 65.73 Q1836.96 63.9071 1836.96 60.6258 Q1836.96 57.5877 1834.89 55.9673 Q1832.87 54.3469 1825.94 52.8481 L1823.35 52.2405 Q1816.42 50.7821 1813.34 47.7845 Q1810.26 44.7463 1810.26 39.4801 Q1810.26 33.0797 1814.8 29.5959 Q1819.34 26.1121 1827.68 26.1121 Q1831.81 26.1121 1835.46 26.7198 Q1839.11 27.3274 1842.18 28.5427 Z" fill="#000000" fill-rule="evenodd" fill-opacity="1" /><path clip-path="url(#clip600)" d="M1863.86 14.324 L1863.86 27.2059 L1879.21 27.2059 L1879.21 32.9987 L1863.86 32.9987 L1863.86 57.6282 Q1863.86 63.1779 1865.36 64.7578 Q1866.9 66.3376 1871.55 66.3376 L1879.21 66.3376 L1879.21 72.576 L1871.55 72.576 Q1862.93 72.576 1859.64 69.3758 Q1856.36 66.1351 1856.36 57.6282 L1856.36 32.9987 L1850.89 32.9987 L1850.89 27.2059 L1856.36 27.2059 L1856.36 14.324 L1863.86 14.324 Z" fill="#000000" fill-rule="evenodd" fill-opacity="1" /><path clip-path="url(#clip600)" d="M1909.63 49.7694 Q1900.6 49.7694 1897.12 51.8354 Q1893.63 53.9013 1893.63 58.8839 Q1893.63 62.8538 1896.22 65.2034 Q1898.86 67.5124 1903.35 67.5124 Q1909.55 67.5124 1913.28 63.1374 Q1917.05 58.7219 1917.05 51.4303 L1917.05 49.7694 L1909.63 49.7694 M1924.5 46.6907 L1924.5 72.576 L1917.05 72.576 L1917.05 65.6895 Q1914.49 69.8214 1910.69 71.8063 Q1906.88 73.7508 1901.37 73.7508 Q1894.4 73.7508 1890.27 69.8619 Q1886.18 65.9325 1886.18 59.3701 Q1886.18 51.7138 1891.28 47.825 Q1896.43 43.9361 1906.59 43.9361 L1917.05 43.9361 L1917.05 43.2069 Q1917.05 38.0623 1913.64 35.2672 Q1910.28 32.4315 1904.16 32.4315 Q1900.27 32.4315 1896.59 33.3632 Q1892.9 34.295 1889.5 36.1584 L1889.5 29.2718 Q1893.59 27.692 1897.44 26.9223 Q1901.29 26.1121 1904.93 26.1121 Q1914.78 26.1121 1919.64 31.2163 Q1924.5 36.3204 1924.5 46.6907 Z" fill="#000000" fill-rule="evenodd" fill-opacity="1" /><path clip-path="url(#clip600)" d="M1972.42 49.9314 Q1972.42 41.7081 1969.02 37.0496 Q1965.66 32.3505 1959.74 32.3505 Q1953.83 32.3505 1950.43 37.0496 Q1947.06 41.7081 1947.06 49.9314 Q1947.06 58.1548 1950.43 62.8538 Q1953.83 67.5124 1959.74 67.5124 Q1965.66 67.5124 1969.02 62.8538 Q1972.42 58.1548 1972.42 49.9314 M1947.06 34.0924 Q1949.41 30.0415 1952.98 28.0971 Q1956.58 26.1121 1961.56 26.1121 Q1969.83 26.1121 1974.97 32.6746 Q1980.16 39.2371 1980.16 49.9314 Q1980.16 60.6258 1974.97 67.1883 Q1969.83 73.7508 1961.56 73.7508 Q1956.58 73.7508 1952.98 71.8063 Q1949.41 69.8214 1947.06 65.7705 L1947.06 72.576 L1939.57 72.576 L1939.57 9.54393 L1947.06 9.54393 L1947.06 34.0924 Z" fill="#000000" fill-rule="evenodd" fill-opacity="1" /><path clip-path="url(#clip600)" d="M1992.51 27.2059 L1999.97 27.2059 L1999.97 72.576 L1992.51 72.576 L1992.51 27.2059 M1992.51 9.54393 L1999.97 9.54393 L1999.97 18.9825 L1992.51 18.9825 L1992.51 9.54393 Z" fill="#000000" fill-rule="evenodd" fill-opacity="1" /><path clip-path="url(#clip600)" d="M2015.56 9.54393 L2023.02 9.54393 L2023.02 72.576 L2015.56 72.576 L2015.56 9.54393 Z" fill="#000000" fill-rule="evenodd" fill-opacity="1" /><path clip-path="url(#clip600)" d="M2038.61 27.2059 L2046.07 27.2059 L2046.07 72.576 L2038.61 72.576 L2038.61 27.2059 M2038.61 9.54393 L2046.07 9.54393 L2046.07 18.9825 L2038.61 18.9825 L2038.61 9.54393 Z" fill="#000000" fill-rule="evenodd" fill-opacity="1" /><path clip-path="url(#clip600)" d="M2069.04 14.324 L2069.04 27.2059 L2084.39 27.2059 L2084.39 32.9987 L2069.04 32.9987 L2069.04 57.6282 Q2069.04 63.1779 2070.53 64.7578 Q2072.07 66.3376 2076.73 66.3376 L2084.39 66.3376 L2084.39 72.576 L2076.73 72.576 Q2068.1 72.576 2064.82 69.3758 Q2061.54 66.1351 2061.54 57.6282 L2061.54 32.9987 L2056.07 32.9987 L2056.07 27.2059 L2061.54 27.2059 L2061.54 14.324 L2069.04 14.324 Z" fill="#000000" fill-rule="evenodd" fill-opacity="1" /><path clip-path="url(#clip600)" d="M2113.07 76.7889 Q2109.91 84.8907 2106.91 87.3618 Q2103.91 89.8329 2098.89 89.8329 L2092.94 89.8329 L2092.94 83.5945 L2097.31 83.5945 Q2100.39 83.5945 2102.09 82.1361 Q2103.79 80.6778 2105.86 75.2496 L2107.19 71.8468 L2088.84 27.2059 L2096.74 27.2059 L2110.92 62.6918 L2125.1 27.2059 L2133 27.2059 L2113.07 76.7889 Z" fill="#000000" fill-rule="evenodd" fill-opacity="1" /><polyline clip-path="url(#clip602)" style="stroke:#009af9; stroke-linecap:round; stroke-linejoin:round; stroke-width:4; stroke-opacity:1; fill:none" points="
  237.067,563.606 257.815,732.681 278.564,782.581 299.312,811.792 320.06,832.246 340.808,847.885 361.556,860.491 382.304,871.017 403.052,880.032 423.801,887.901 
  444.549,894.873 465.297,901.125 486.045,906.785 506.793,911.952 527.541,916.702 548.289,921.094 569.038,925.176 589.786,928.988 610.534,932.562 631.282,935.923 
  652.03,939.096 672.778,942.099 693.526,944.949 714.275,947.659 735.023,950.243 755.771,952.712 776.519,955.073 797.267,957.337 818.015,959.51 838.764,961.599 
  859.512,963.61 880.26,965.549 901.008,967.42 921.756,969.227 942.504,970.975 963.252,972.667 984.001,974.307 1004.75,975.897 1025.5,977.44 1046.24,978.94 
  1066.99,980.397 1087.74,981.814 1108.49,983.194 1129.24,984.538 1149.99,985.848 1170.73,987.126 1191.48,988.372 1212.23,989.589 1232.98,990.778 1253.73,991.939 
  1274.47,993.075 1295.22,994.185 1315.97,995.272 1336.72,996.336 1357.47,997.379 1378.22,998.4 1398.96,999.4 1419.71,1000.38 1440.46,1001.34 1461.21,1002.29 
  1481.96,1003.21 1502.7,1004.12 1523.45,1005.02 1544.2,1005.89 1564.95,1006.76 1585.7,1007.6 1606.45,1008.44 1627.19,1009.26 1647.94,1010.06 1668.69,1010.85 
  1689.44,1011.63 1710.19,1012.4 1730.93,1013.16 1751.68,1013.9 1772.43,1014.64 1793.18,1015.36 1813.93,1016.07 1834.67,1016.77 1855.42,1017.46 1876.17,1018.15 
  1896.92,1018.82 1917.67,1019.48 1938.42,1020.13 1959.16,1020.78 1979.91,1021.42 2000.66,1022.04 2021.41,1022.67 2042.16,1023.28 2062.9,1023.88 2083.65,1024.48 
  2104.4,1025.07 2125.15,1025.65 2145.9,1026.23 2166.65,1026.79 2187.39,1027.36 2208.14,1027.91 2228.89,1028.46 2249.64,1029 2270.39,1029.54 2291.13,1030.07 
  
  "/>
<polyline clip-path="url(#clip602)" style="stroke:#e26f46; stroke-linecap:round; stroke-linejoin:round; stroke-width:4; stroke-opacity:1; fill:none" points="
  237.067,160.256 257.815,838.549 278.564,979.109 299.312,1050.73 320.06,1096.51 340.808,1129.22 361.556,1154.17 382.304,1174.08 403.052,1190.48 423.801,1204.31 
  444.549,1216.2 465.297,1226.56 486.045,1235.71 506.793,1243.88 527.541,1251.23 548.289,1257.89 569.038,1263.97 589.786,1269.55 610.534,1274.69 631.282,1279.46 
  652.03,1283.89 672.778,1288.03 693.526,1291.91 714.275,1295.55 735.023,1298.98 755.771,1302.21 776.519,1305.28 797.267,1308.18 818.015,1310.94 838.764,1313.57 
  859.512,1316.07 880.26,1318.46 901.008,1320.75 921.756,1322.94 942.504,1325.04 963.252,1327.06 984.001,1329 1004.75,1330.87 1025.5,1332.67 1046.24,1334.4 
  1066.99,1336.07 1087.74,1337.69 1108.49,1339.25 1129.24,1340.76 1149.99,1342.23 1170.73,1343.65 1191.48,1345.02 1212.23,1346.36 1232.98,1347.66 1253.73,1348.91 
  1274.47,1350.14 1295.22,1351.33 1315.97,1352.49 1336.72,1353.62 1357.47,1354.72 1378.22,1355.79 1398.96,1356.83 1419.71,1357.85 1440.46,1358.85 1461.21,1359.82 
  1481.96,1360.77 1502.7,1361.7 1523.45,1362.6 1544.2,1363.49 1564.95,1364.36 1585.7,1365.21 1606.45,1366.04 1627.19,1366.85 1647.94,1367.65 1668.69,1368.43 
  1689.44,1369.19 1710.19,1369.94 1730.93,1370.68 1751.68,1371.4 1772.43,1372.11 1793.18,1372.8 1813.93,1373.48 1834.67,1374.15 1855.42,1374.81 1876.17,1375.46 
  1896.92,1376.09 1917.67,1376.72 1938.42,1377.33 1959.16,1377.93 1979.91,1378.53 2000.66,1379.11 2021.41,1379.69 2042.16,1380.25 2062.9,1380.81 2083.65,1381.35 
  2104.4,1381.89 2125.15,1382.42 2145.9,1382.95 2166.65,1383.46 2187.39,1383.97 2208.14,1384.47 2228.89,1384.96 2249.64,1385.45 2270.39,1385.92 2291.13,1386.4 
  
  "/>
<path clip-path="url(#clip600)" d="
M1736.25 322.316 L2280.18 322.316 L2280.18 166.796 L1736.25 166.796  Z
  " fill="#ffffff" fill-rule="evenodd" fill-opacity="1"/>
<polyline clip-path="url(#clip600)" style="stroke:#000000; stroke-linecap:round; stroke-linejoin:round; stroke-width:4; stroke-opacity:1; fill:none" points="
  1736.25,322.316 2280.18,322.316 2280.18,166.796 1736.25,166.796 1736.25,322.316 
  "/>
<polyline clip-path="url(#clip600)" style="stroke:#009af9; stroke-linecap:round; stroke-linejoin:round; stroke-width:4; stroke-opacity:1; fill:none" points="
  1760.44,218.636 1905.59,218.636 
  "/>
<path clip-path="url(#clip600)" d="M1957.65 204.018 L1957.65 208.948 Q1955.29 206.749 1952.61 205.661 Q1949.95 204.573 1946.94 204.573 Q1941.01 204.573 1937.86 208.208 Q1934.72 211.819 1934.72 218.67 Q1934.72 225.499 1937.86 229.133 Q1941.01 232.744 1946.94 232.744 Q1949.95 232.744 1952.61 231.656 Q1955.29 230.569 1957.65 228.369 L1957.65 233.254 Q1955.2 234.92 1952.45 235.754 Q1949.72 236.587 1946.66 236.587 Q1938.81 236.587 1934.3 231.795 Q1929.78 226.981 1929.78 218.67 Q1929.78 210.337 1934.3 205.546 Q1938.81 200.731 1946.66 200.731 Q1949.76 200.731 1952.49 201.564 Q1955.25 202.374 1957.65 204.018 Z" fill="#000000" fill-rule="evenodd" fill-opacity="1" /><path clip-path="url(#clip600)" d="M1979.71 213.971 Q1979 213.555 1978.14 213.37 Q1977.31 213.161 1976.29 213.161 Q1972.68 213.161 1970.73 215.522 Q1968.81 217.86 1968.81 222.258 L1968.81 235.916 L1964.53 235.916 L1964.53 209.99 L1968.81 209.99 L1968.81 214.018 Q1970.15 211.657 1972.31 210.522 Q1974.46 209.365 1977.54 209.365 Q1977.98 209.365 1978.51 209.434 Q1979.04 209.481 1979.69 209.596 L1979.71 213.971 Z" fill="#000000" fill-rule="evenodd" fill-opacity="1" /><path clip-path="url(#clip600)" d="M1993.19 212.976 Q1989.76 212.976 1987.77 215.661 Q1985.78 218.323 1985.78 222.976 Q1985.78 227.629 1987.75 230.314 Q1989.74 232.976 1993.19 232.976 Q1996.59 232.976 1998.58 230.291 Q2000.57 227.606 2000.57 222.976 Q2000.57 218.37 1998.58 215.684 Q1996.59 212.976 1993.19 212.976 M1993.19 209.365 Q1998.74 209.365 2001.91 212.976 Q2005.09 216.587 2005.09 222.976 Q2005.09 229.342 2001.91 232.976 Q1998.74 236.587 1993.19 236.587 Q1987.61 236.587 1984.44 232.976 Q1981.29 229.342 1981.29 222.976 Q1981.29 216.587 1984.44 212.976 Q1987.61 209.365 1993.19 209.365 Z" fill="#000000" fill-rule="evenodd" fill-opacity="1" /><path clip-path="url(#clip600)" d="M2028.67 210.754 L2028.67 214.782 Q2026.87 213.856 2024.92 213.393 Q2022.98 212.93 2020.9 212.93 Q2017.72 212.93 2016.13 213.902 Q2014.55 214.874 2014.55 216.819 Q2014.55 218.3 2015.69 219.157 Q2016.82 219.99 2020.25 220.754 L2021.71 221.078 Q2026.24 222.05 2028.14 223.832 Q2030.06 225.592 2030.06 228.763 Q2030.06 232.374 2027.19 234.481 Q2024.34 236.587 2019.34 236.587 Q2017.26 236.587 2014.99 236.17 Q2012.75 235.777 2010.25 234.967 L2010.25 230.569 Q2012.61 231.795 2014.9 232.42 Q2017.19 233.022 2019.44 233.022 Q2022.45 233.022 2024.07 232.004 Q2025.69 230.962 2025.69 229.087 Q2025.69 227.351 2024.51 226.425 Q2023.35 225.499 2019.39 224.643 L2017.91 224.295 Q2013.95 223.462 2012.19 221.749 Q2010.43 220.013 2010.43 217.004 Q2010.43 213.346 2013.02 211.356 Q2015.62 209.365 2020.39 209.365 Q2022.75 209.365 2024.83 209.712 Q2026.91 210.059 2028.67 210.754 Z" fill="#000000" fill-rule="evenodd" fill-opacity="1" /><path clip-path="url(#clip600)" d="M2053.37 210.754 L2053.37 214.782 Q2051.57 213.856 2049.62 213.393 Q2047.68 212.93 2045.59 212.93 Q2042.42 212.93 2040.83 213.902 Q2039.25 214.874 2039.25 216.819 Q2039.25 218.3 2040.39 219.157 Q2041.52 219.99 2044.95 220.754 L2046.4 221.078 Q2050.94 222.05 2052.84 223.832 Q2054.76 225.592 2054.76 228.763 Q2054.76 232.374 2051.89 234.481 Q2049.04 236.587 2044.04 236.587 Q2041.96 236.587 2039.69 236.17 Q2037.45 235.777 2034.95 234.967 L2034.95 230.569 Q2037.31 231.795 2039.6 232.42 Q2041.89 233.022 2044.14 233.022 Q2047.15 233.022 2048.77 232.004 Q2050.39 230.962 2050.39 229.087 Q2050.39 227.351 2049.21 226.425 Q2048.05 225.499 2044.09 224.643 L2042.61 224.295 Q2038.65 223.462 2036.89 221.749 Q2035.13 220.013 2035.13 217.004 Q2035.13 213.346 2037.72 211.356 Q2040.32 209.365 2045.08 209.365 Q2047.45 209.365 2049.53 209.712 Q2051.61 210.059 2053.37 210.754 Z" fill="#000000" fill-rule="evenodd" fill-opacity="1" /><path clip-path="url(#clip600)" d="M2059.07 209.99 L2063.33 209.99 L2068.65 230.221 L2073.95 209.99 L2078.97 209.99 L2084.3 230.221 L2089.6 209.99 L2093.86 209.99 L2087.08 235.916 L2082.05 235.916 L2076.47 214.666 L2070.87 235.916 L2065.85 235.916 L2059.07 209.99 Z" fill="#000000" fill-rule="evenodd" fill-opacity="1" /><path clip-path="url(#clip600)" d="M2100.32 209.99 L2104.58 209.99 L2104.58 235.916 L2100.32 235.916 L2100.32 209.99 M2100.32 199.897 L2104.58 199.897 L2104.58 205.291 L2100.32 205.291 L2100.32 199.897 Z" fill="#000000" fill-rule="evenodd" fill-opacity="1" /><path clip-path="url(#clip600)" d="M2135.04 220.268 L2135.04 235.916 L2130.78 235.916 L2130.78 220.407 Q2130.78 216.726 2129.34 214.897 Q2127.91 213.069 2125.04 213.069 Q2121.59 213.069 2119.6 215.268 Q2117.61 217.467 2117.61 221.263 L2117.61 235.916 L2113.33 235.916 L2113.33 209.99 L2117.61 209.99 L2117.61 214.018 Q2119.14 211.68 2121.2 210.522 Q2123.28 209.365 2125.99 209.365 Q2130.45 209.365 2132.75 212.143 Q2135.04 214.897 2135.04 220.268 Z" fill="#000000" fill-rule="evenodd" fill-opacity="1" /><path clip-path="url(#clip600)" d="M2160.59 213.925 L2160.59 199.897 L2164.85 199.897 L2164.85 235.916 L2160.59 235.916 L2160.59 232.027 Q2159.25 234.342 2157.19 235.476 Q2155.15 236.587 2152.28 236.587 Q2147.58 236.587 2144.62 232.837 Q2141.68 229.087 2141.68 222.976 Q2141.68 216.865 2144.62 213.115 Q2147.58 209.365 2152.28 209.365 Q2155.15 209.365 2157.19 210.499 Q2159.25 211.61 2160.59 213.925 M2146.08 222.976 Q2146.08 227.675 2148 230.36 Q2149.95 233.022 2153.33 233.022 Q2156.7 233.022 2158.65 230.36 Q2160.59 227.675 2160.59 222.976 Q2160.59 218.277 2158.65 215.615 Q2156.7 212.93 2153.33 212.93 Q2149.95 212.93 2148 215.615 Q2146.08 218.277 2146.08 222.976 Z" fill="#000000" fill-rule="evenodd" fill-opacity="1" /><path clip-path="url(#clip600)" d="M2174.71 230.036 L2179.6 230.036 L2179.6 234.018 L2175.8 241.425 L2172.82 241.425 L2174.71 234.018 L2174.71 230.036 Z" fill="#000000" fill-rule="evenodd" fill-opacity="1" /><path clip-path="url(#clip600)" d="M2213.81 213.37 Q2210.29 213.37 2208.39 215.916 Q2206.4 218.578 2206.4 222.976 Q2206.4 227.629 2208.37 230.314 Q2210.36 232.976 2213.81 232.976 Q2217.21 232.976 2219.2 230.291 Q2221.2 227.606 2221.2 222.976 Q2221.2 218.74 2219.2 215.916 Q2217.38 213.37 2213.81 213.37 M2213.81 209.99 L2227.95 209.99 L2227.95 214.249 L2223.19 214.249 Q2225.71 217.86 2225.71 222.976 Q2225.71 229.342 2222.54 232.953 Q2219.37 236.587 2213.81 236.587 Q2208.23 236.587 2205.08 232.953 Q2201.91 229.342 2201.91 222.976 Q2201.91 216.564 2205.08 212.976 Q2207.7 209.99 2213.81 209.99 Z" fill="#000000" fill-rule="evenodd" fill-opacity="1" /><path clip-path="url(#clip600)" d="M2244.6 238.323 Q2242.79 242.953 2241.08 244.365 Q2239.37 245.777 2236.5 245.777 L2233.09 245.777 L2233.09 242.212 L2235.59 242.212 Q2237.35 242.212 2238.32 241.379 Q2239.3 240.545 2240.48 237.443 L2241.24 235.499 L2230.76 209.99 L2235.27 209.99 L2243.37 230.268 L2251.47 209.99 L2255.99 209.99 L2244.6 238.323 Z" fill="#000000" fill-rule="evenodd" fill-opacity="1" /><polyline clip-path="url(#clip600)" style="stroke:#e26f46; stroke-linecap:round; stroke-linejoin:round; stroke-width:4; stroke-opacity:1; fill:none" points="
  1760.44,270.476 1905.59,270.476 
  "/>
<path clip-path="url(#clip600)" d="M1942.98 287.756 L1929.78 253.196 L1934.67 253.196 L1945.62 282.293 L1956.59 253.196 L1961.45 253.196 L1948.28 287.756 L1942.98 287.756 Z" fill="#000000" fill-rule="evenodd" fill-opacity="1" /><path clip-path="url(#clip600)" d="M1984.81 273.728 L1984.81 275.811 L1965.22 275.811 Q1965.5 280.209 1967.86 282.524 Q1970.25 284.816 1974.48 284.816 Q1976.94 284.816 1979.23 284.214 Q1981.54 283.612 1983.81 282.409 L1983.81 286.436 Q1981.52 287.408 1979.11 287.918 Q1976.71 288.427 1974.23 288.427 Q1968.03 288.427 1964.39 284.816 Q1960.78 281.205 1960.78 275.047 Q1960.78 268.682 1964.21 264.955 Q1967.65 261.205 1973.49 261.205 Q1978.72 261.205 1981.75 264.585 Q1984.81 267.941 1984.81 273.728 M1980.55 272.478 Q1980.5 268.983 1978.58 266.899 Q1976.68 264.816 1973.53 264.816 Q1969.97 264.816 1967.82 266.83 Q1965.69 268.844 1965.36 272.501 L1980.55 272.478 Z" fill="#000000" fill-rule="evenodd" fill-opacity="1" /><path clip-path="url(#clip600)" d="M2006.82 265.811 Q2006.1 265.395 2005.25 265.21 Q2004.41 265.001 2003.4 265.001 Q1999.78 265.001 1997.84 267.362 Q1995.92 269.7 1995.92 274.098 L1995.92 287.756 L1991.64 287.756 L1991.64 261.83 L1995.92 261.83 L1995.92 265.858 Q1997.26 263.497 1999.41 262.362 Q2001.57 261.205 2004.65 261.205 Q2005.09 261.205 2005.62 261.274 Q2006.15 261.321 2006.8 261.436 L2006.82 265.811 Z" fill="#000000" fill-rule="evenodd" fill-opacity="1" /><path clip-path="url(#clip600)" d="M2015.5 254.469 L2015.5 261.83 L2024.27 261.83 L2024.27 265.14 L2015.5 265.14 L2015.5 279.214 Q2015.5 282.385 2016.36 283.288 Q2017.24 284.191 2019.9 284.191 L2024.27 284.191 L2024.27 287.756 L2019.9 287.756 Q2014.97 287.756 2013.09 285.927 Q2011.22 284.075 2011.22 279.214 L2011.22 265.14 L2008.09 265.14 L2008.09 261.83 L2011.22 261.83 L2011.22 254.469 L2015.5 254.469 Z" fill="#000000" fill-rule="evenodd" fill-opacity="1" /><path clip-path="url(#clip600)" d="M2029.88 261.83 L2034.14 261.83 L2034.14 287.756 L2029.88 287.756 L2029.88 261.83 M2029.88 251.737 L2034.14 251.737 L2034.14 257.131 L2029.88 257.131 L2029.88 251.737 Z" fill="#000000" fill-rule="evenodd" fill-opacity="1" /><path clip-path="url(#clip600)" d="M2061.71 262.825 L2061.71 266.807 Q2059.9 265.811 2058.07 265.325 Q2056.27 264.816 2054.41 264.816 Q2050.27 264.816 2047.98 267.455 Q2045.69 270.071 2045.69 274.816 Q2045.69 279.561 2047.98 282.2 Q2050.27 284.816 2054.41 284.816 Q2056.27 284.816 2058.07 284.33 Q2059.9 283.821 2061.71 282.825 L2061.71 286.76 Q2059.92 287.594 2058 288.01 Q2056.1 288.427 2053.95 288.427 Q2048.09 288.427 2044.65 284.746 Q2041.2 281.066 2041.2 274.816 Q2041.2 268.473 2044.67 264.839 Q2048.16 261.205 2054.23 261.205 Q2056.2 261.205 2058.07 261.622 Q2059.95 262.015 2061.71 262.825 Z" fill="#000000" fill-rule="evenodd" fill-opacity="1" /><path clip-path="url(#clip600)" d="M2080.89 274.723 Q2075.73 274.723 2073.74 275.904 Q2071.75 277.084 2071.75 279.932 Q2071.75 282.2 2073.23 283.543 Q2074.74 284.862 2077.31 284.862 Q2080.85 284.862 2082.98 282.362 Q2085.13 279.839 2085.13 275.672 L2085.13 274.723 L2080.89 274.723 M2089.39 272.964 L2089.39 287.756 L2085.13 287.756 L2085.13 283.821 Q2083.67 286.182 2081.5 287.316 Q2079.32 288.427 2076.17 288.427 Q2072.19 288.427 2069.83 286.205 Q2067.49 283.959 2067.49 280.209 Q2067.49 275.834 2070.41 273.612 Q2073.35 271.39 2079.16 271.39 L2085.13 271.39 L2085.13 270.973 Q2085.13 268.034 2083.19 266.436 Q2081.27 264.816 2077.77 264.816 Q2075.55 264.816 2073.44 265.348 Q2071.33 265.881 2069.39 266.946 L2069.39 263.01 Q2071.73 262.108 2073.93 261.668 Q2076.13 261.205 2078.21 261.205 Q2083.83 261.205 2086.61 264.122 Q2089.39 267.038 2089.39 272.964 Z" fill="#000000" fill-rule="evenodd" fill-opacity="1" /><path clip-path="url(#clip600)" d="M2098.16 251.737 L2102.42 251.737 L2102.42 287.756 L2098.16 287.756 L2098.16 251.737 Z" fill="#000000" fill-rule="evenodd" fill-opacity="1" /><path clip-path="url(#clip600)" d="M2112.42 281.876 L2117.31 281.876 L2117.31 285.858 L2113.51 293.265 L2110.52 293.265 L2112.42 285.858 L2112.42 281.876 Z" fill="#000000" fill-rule="evenodd" fill-opacity="1" /><path clip-path="url(#clip600)" d="M2151.52 265.21 Q2148 265.21 2146.1 267.756 Q2144.11 270.418 2144.11 274.816 Q2144.11 279.469 2146.08 282.154 Q2148.07 284.816 2151.52 284.816 Q2154.92 284.816 2156.91 282.131 Q2158.9 279.446 2158.9 274.816 Q2158.9 270.58 2156.91 267.756 Q2155.08 265.21 2151.52 265.21 M2151.52 261.83 L2165.66 261.83 L2165.66 266.089 L2160.89 266.089 Q2163.42 269.7 2163.42 274.816 Q2163.42 281.182 2160.25 284.793 Q2157.08 288.427 2151.52 288.427 Q2145.94 288.427 2142.79 284.793 Q2139.62 281.182 2139.62 274.816 Q2139.62 268.404 2142.79 264.816 Q2145.41 261.83 2151.52 261.83 Z" fill="#000000" fill-rule="evenodd" fill-opacity="1" /><path clip-path="url(#clip600)" d="M2169.67 261.83 L2189.9 261.83 L2189.9 265.719 L2173.88 284.353 L2189.9 284.353 L2189.9 287.756 L2169.09 287.756 L2169.09 283.867 L2185.11 265.233 L2169.67 265.233 L2169.67 261.83 Z" fill="#000000" fill-rule="evenodd" fill-opacity="1" /></svg>
