<?xml version="1.0" encoding="utf-8"?>
<svg xmlns="http://www.w3.org/2000/svg" xmlns:xlink="http://www.w3.org/1999/xlink" width="600" height="400" viewBox="0 0 2400 1600">
<defs>
  <clipPath id="clip560">
    <rect x="0" y="0" width="2400" height="1600"/>
  </clipPath>
</defs>
<path clip-path="url(#clip560)" d="
M0 1600 L2400 1600 L2400 0 L0 0  Z
  " fill="#ffffff" fill-rule="evenodd" fill-opacity="1"/>
<defs>
  <clipPath id="clip561">
    <rect x="480" y="0" width="1681" height="1600"/>
  </clipPath>
</defs>
<path clip-path="url(#clip560)" d="
M279.704 1423.18 L2352.76 1423.18 L2352.76 47.2441 L279.704 47.2441  Z
  " fill="#ffffff" fill-rule="evenodd" fill-opacity="1"/>
<defs>
  <clipPath id="clip562">
    <rect x="279" y="47" width="2074" height="1377"/>
  </clipPath>
</defs>
<polyline clip-path="url(#clip562)" style="stroke:#000000; stroke-linecap:butt; stroke-linejoin:round; stroke-width:2; stroke-opacity:0.1; fill:none" points="
  338.375,1423.18 338.375,47.2441 
  "/>
<polyline clip-path="url(#clip562)" style="stroke:#000000; stroke-linecap:butt; stroke-linejoin:round; stroke-width:2; stroke-opacity:0.1; fill:none" points="
  729.517,1423.18 729.517,47.2441 
  "/>
<polyline clip-path="url(#clip562)" style="stroke:#000000; stroke-linecap:butt; stroke-linejoin:round; stroke-width:2; stroke-opacity:0.1; fill:none" points="
  1120.66,1423.18 1120.66,47.2441 
  "/>
<polyline clip-path="url(#clip562)" style="stroke:#000000; stroke-linecap:butt; stroke-linejoin:round; stroke-width:2; stroke-opacity:0.1; fill:none" points="
  1511.8,1423.18 1511.8,47.2441 
  "/>
<polyline clip-path="url(#clip562)" style="stroke:#000000; stroke-linecap:butt; stroke-linejoin:round; stroke-width:2; stroke-opacity:0.1; fill:none" points="
  1902.94,1423.18 1902.94,47.2441 
  "/>
<polyline clip-path="url(#clip562)" style="stroke:#000000; stroke-linecap:butt; stroke-linejoin:round; stroke-width:2; stroke-opacity:0.1; fill:none" points="
  2294.08,1423.18 2294.08,47.2441 
  "/>
<polyline clip-path="url(#clip560)" style="stroke:#000000; stroke-linecap:butt; stroke-linejoin:round; stroke-width:4; stroke-opacity:1; fill:none" points="
  279.704,1423.18 2352.76,1423.18 
  "/>
<polyline clip-path="url(#clip560)" style="stroke:#000000; stroke-linecap:butt; stroke-linejoin:round; stroke-width:4; stroke-opacity:1; fill:none" points="
  338.375,1423.18 338.375,1404.28 
  "/>
<polyline clip-path="url(#clip560)" style="stroke:#000000; stroke-linecap:butt; stroke-linejoin:round; stroke-width:4; stroke-opacity:1; fill:none" points="
  729.517,1423.18 729.517,1404.28 
  "/>
<polyline clip-path="url(#clip560)" style="stroke:#000000; stroke-linecap:butt; stroke-linejoin:round; stroke-width:4; stroke-opacity:1; fill:none" points="
  1120.66,1423.18 1120.66,1404.28 
  "/>
<polyline clip-path="url(#clip560)" style="stroke:#000000; stroke-linecap:butt; stroke-linejoin:round; stroke-width:4; stroke-opacity:1; fill:none" points="
  1511.8,1423.18 1511.8,1404.28 
  "/>
<polyline clip-path="url(#clip560)" style="stroke:#000000; stroke-linecap:butt; stroke-linejoin:round; stroke-width:4; stroke-opacity:1; fill:none" points="
  1902.94,1423.18 1902.94,1404.28 
  "/>
<polyline clip-path="url(#clip560)" style="stroke:#000000; stroke-linecap:butt; stroke-linejoin:round; stroke-width:4; stroke-opacity:1; fill:none" points="
  2294.08,1423.18 2294.08,1404.28 
  "/>
<path clip-path="url(#clip560)" d="M338.375 1454.1 Q334.764 1454.1 332.935 1457.66 Q331.13 1461.2 331.13 1468.33 Q331.13 1475.44 332.935 1479.01 Q334.764 1482.55 338.375 1482.55 Q342.009 1482.55 343.815 1479.01 Q345.644 1475.44 345.644 1468.33 Q345.644 1461.2 343.815 1457.66 Q342.009 1454.1 338.375 1454.1 M338.375 1450.39 Q344.185 1450.39 347.241 1455 Q350.32 1459.58 350.32 1468.33 Q350.32 1477.06 347.241 1481.67 Q344.185 1486.25 338.375 1486.25 Q332.565 1486.25 329.486 1481.67 Q326.431 1477.06 326.431 1468.33 Q326.431 1459.58 329.486 1455 Q332.565 1450.39 338.375 1450.39 Z" fill="#000000" fill-rule="evenodd" fill-opacity="1" /><path clip-path="url(#clip560)" d="M719.795 1451.02 L738.151 1451.02 L738.151 1454.96 L724.077 1454.96 L724.077 1463.43 Q725.096 1463.08 726.114 1462.92 Q727.133 1462.73 728.151 1462.73 Q733.938 1462.73 737.318 1465.9 Q740.698 1469.08 740.698 1474.49 Q740.698 1480.07 737.225 1483.17 Q733.753 1486.25 727.434 1486.25 Q725.258 1486.25 722.989 1485.88 Q720.744 1485.51 718.337 1484.77 L718.337 1480.07 Q720.42 1481.2 722.642 1481.76 Q724.864 1482.32 727.341 1482.32 Q731.346 1482.32 733.684 1480.21 Q736.022 1478.1 736.022 1474.49 Q736.022 1470.88 733.684 1468.77 Q731.346 1466.67 727.341 1466.67 Q725.466 1466.67 723.591 1467.08 Q721.739 1467.5 719.795 1468.38 L719.795 1451.02 Z" fill="#000000" fill-rule="evenodd" fill-opacity="1" /><path clip-path="url(#clip560)" d="M1095.35 1481.64 L1102.99 1481.64 L1102.99 1455.28 L1094.68 1456.95 L1094.68 1452.69 L1102.94 1451.02 L1107.62 1451.02 L1107.62 1481.64 L1115.25 1481.64 L1115.25 1485.58 L1095.35 1485.58 L1095.35 1481.64 Z" fill="#000000" fill-rule="evenodd" fill-opacity="1" /><path clip-path="url(#clip560)" d="M1134.7 1454.1 Q1131.09 1454.1 1129.26 1457.66 Q1127.45 1461.2 1127.45 1468.33 Q1127.45 1475.44 1129.26 1479.01 Q1131.09 1482.55 1134.7 1482.55 Q1138.33 1482.55 1140.14 1479.01 Q1141.97 1475.44 1141.97 1468.33 Q1141.97 1461.2 1140.14 1457.66 Q1138.33 1454.1 1134.7 1454.1 M1134.7 1450.39 Q1140.51 1450.39 1143.56 1455 Q1146.64 1459.58 1146.64 1468.33 Q1146.64 1477.06 1143.56 1481.67 Q1140.51 1486.25 1134.7 1486.25 Q1128.89 1486.25 1125.81 1481.67 Q1122.75 1477.06 1122.75 1468.33 Q1122.75 1459.58 1125.81 1455 Q1128.89 1450.39 1134.7 1450.39 Z" fill="#000000" fill-rule="evenodd" fill-opacity="1" /><path clip-path="url(#clip560)" d="M1486.99 1481.64 L1494.63 1481.64 L1494.63 1455.28 L1486.31 1456.95 L1486.31 1452.69 L1494.58 1451.02 L1499.25 1451.02 L1499.25 1481.64 L1506.89 1481.64 L1506.89 1485.58 L1486.99 1485.58 L1486.99 1481.64 Z" fill="#000000" fill-rule="evenodd" fill-opacity="1" /><path clip-path="url(#clip560)" d="M1516.38 1451.02 L1534.74 1451.02 L1534.74 1454.96 L1520.67 1454.96 L1520.67 1463.43 Q1521.69 1463.08 1522.7 1462.92 Q1523.72 1462.73 1524.74 1462.73 Q1530.53 1462.73 1533.91 1465.9 Q1537.29 1469.08 1537.29 1474.49 Q1537.29 1480.07 1533.81 1483.17 Q1530.34 1486.25 1524.02 1486.25 Q1521.85 1486.25 1519.58 1485.88 Q1517.33 1485.51 1514.93 1484.77 L1514.93 1480.07 Q1517.01 1481.2 1519.23 1481.76 Q1521.45 1482.32 1523.93 1482.32 Q1527.94 1482.32 1530.27 1480.21 Q1532.61 1478.1 1532.61 1474.49 Q1532.61 1470.88 1530.27 1468.77 Q1527.94 1466.67 1523.93 1466.67 Q1522.06 1466.67 1520.18 1467.08 Q1518.33 1467.5 1516.38 1468.38 L1516.38 1451.02 Z" fill="#000000" fill-rule="evenodd" fill-opacity="1" /><path clip-path="url(#clip560)" d="M1881.72 1481.64 L1898.04 1481.64 L1898.04 1485.58 L1876.09 1485.58 L1876.09 1481.64 Q1878.75 1478.89 1883.34 1474.26 Q1887.94 1469.61 1889.12 1468.27 Q1891.37 1465.74 1892.25 1464.01 Q1893.15 1462.25 1893.15 1460.56 Q1893.15 1457.8 1891.21 1456.07 Q1889.29 1454.33 1886.18 1454.33 Q1883.98 1454.33 1881.53 1455.09 Q1879.1 1455.86 1876.32 1457.41 L1876.32 1452.69 Q1879.15 1451.55 1881.6 1450.97 Q1884.05 1450.39 1886.09 1450.39 Q1891.46 1450.39 1894.66 1453.08 Q1897.85 1455.77 1897.85 1460.26 Q1897.85 1462.39 1897.04 1464.31 Q1896.25 1466.2 1894.15 1468.8 Q1893.57 1469.47 1890.47 1472.69 Q1887.36 1475.88 1881.72 1481.64 Z" fill="#000000" fill-rule="evenodd" fill-opacity="1" /><path clip-path="url(#clip560)" d="M1917.85 1454.1 Q1914.24 1454.1 1912.41 1457.66 Q1910.6 1461.2 1910.6 1468.33 Q1910.6 1475.44 1912.41 1479.01 Q1914.24 1482.55 1917.85 1482.55 Q1921.48 1482.55 1923.29 1479.01 Q1925.12 1475.44 1925.12 1468.33 Q1925.12 1461.2 1923.29 1457.66 Q1921.48 1454.1 1917.85 1454.1 M1917.85 1450.39 Q1923.66 1450.39 1926.72 1455 Q1929.79 1459.58 1929.79 1468.33 Q1929.79 1477.06 1926.72 1481.67 Q1923.66 1486.25 1917.85 1486.25 Q1912.04 1486.25 1908.96 1481.67 Q1905.91 1477.06 1905.91 1468.33 Q1905.91 1459.58 1908.96 1455 Q1912.04 1450.39 1917.85 1450.39 Z" fill="#000000" fill-rule="evenodd" fill-opacity="1" /><path clip-path="url(#clip560)" d="M2273.36 1481.64 L2289.67 1481.64 L2289.67 1485.58 L2267.73 1485.58 L2267.73 1481.64 Q2270.39 1478.89 2274.98 1474.26 Q2279.58 1469.61 2280.76 1468.27 Q2283.01 1465.74 2283.89 1464.01 Q2284.79 1462.25 2284.79 1460.56 Q2284.79 1457.8 2282.85 1456.07 Q2280.92 1454.33 2277.82 1454.33 Q2275.62 1454.33 2273.17 1455.09 Q2270.74 1455.86 2267.96 1457.41 L2267.96 1452.69 Q2270.79 1451.55 2273.24 1450.97 Q2275.69 1450.39 2277.73 1450.39 Q2283.1 1450.39 2286.3 1453.08 Q2289.49 1455.77 2289.49 1460.26 Q2289.49 1462.39 2288.68 1464.31 Q2287.89 1466.2 2285.79 1468.8 Q2285.21 1469.47 2282.11 1472.69 Q2279 1475.88 2273.36 1481.64 Z" fill="#000000" fill-rule="evenodd" fill-opacity="1" /><path clip-path="url(#clip560)" d="M2299.54 1451.02 L2317.89 1451.02 L2317.89 1454.96 L2303.82 1454.96 L2303.82 1463.43 Q2304.84 1463.08 2305.86 1462.92 Q2306.87 1462.73 2307.89 1462.73 Q2313.68 1462.73 2317.06 1465.9 Q2320.44 1469.08 2320.44 1474.49 Q2320.44 1480.07 2316.97 1483.17 Q2313.49 1486.25 2307.17 1486.25 Q2305 1486.25 2302.73 1485.88 Q2300.49 1485.51 2298.08 1484.77 L2298.08 1480.07 Q2300.16 1481.2 2302.38 1481.76 Q2304.61 1482.32 2307.08 1482.32 Q2311.09 1482.32 2313.42 1480.21 Q2315.76 1478.1 2315.76 1474.49 Q2315.76 1470.88 2313.42 1468.77 Q2311.09 1466.67 2307.08 1466.67 Q2305.21 1466.67 2303.33 1467.08 Q2301.48 1467.5 2299.54 1468.38 L2299.54 1451.02 Z" fill="#000000" fill-rule="evenodd" fill-opacity="1" /><path clip-path="url(#clip560)" d="M1031 1545.76 Q1033.07 1546.46 1035.01 1548.76 Q1036.98 1551.05 1038.96 1555.06 L1045.48 1568.04 L1038.57 1568.04 L1032.49 1555.85 Q1030.14 1551.08 1027.91 1549.52 Q1025.71 1547.96 1021.9 1547.96 L1014.89 1547.96 L1014.89 1568.04 L1008.46 1568.04 L1008.46 1520.52 L1022.98 1520.52 Q1031.13 1520.52 1035.14 1523.93 Q1039.15 1527.34 1039.15 1534.21 Q1039.15 1538.7 1037.05 1541.66 Q1034.98 1544.62 1031 1545.76 M1014.89 1525.81 L1014.89 1542.68 L1022.98 1542.68 Q1027.62 1542.68 1029.98 1540.54 Q1032.37 1538.38 1032.37 1534.21 Q1032.37 1530.04 1029.98 1527.94 Q1027.62 1525.81 1022.98 1525.81 L1014.89 1525.81 Z" fill="#000000" fill-rule="evenodd" fill-opacity="1" /><path clip-path="url(#clip560)" d="M1081.06 1548.76 L1081.06 1551.62 L1054.14 1551.62 Q1054.52 1557.67 1057.77 1560.85 Q1061.04 1564 1066.87 1564 Q1070.24 1564 1073.39 1563.17 Q1076.58 1562.35 1079.7 1560.69 L1079.7 1566.23 Q1076.55 1567.57 1073.23 1568.27 Q1069.92 1568.97 1066.52 1568.97 Q1057.99 1568.97 1052.99 1564 Q1048.03 1559.04 1048.03 1550.57 Q1048.03 1541.82 1052.74 1536.69 Q1057.48 1531.54 1065.5 1531.54 Q1072.69 1531.54 1076.86 1536.18 Q1081.06 1540.8 1081.06 1548.76 M1075.21 1547.04 Q1075.14 1542.23 1072.5 1539.37 Q1069.89 1536.5 1065.56 1536.5 Q1060.66 1536.5 1057.7 1539.27 Q1054.77 1542.04 1054.33 1547.07 L1075.21 1547.04 Z" fill="#000000" fill-rule="evenodd" fill-opacity="1" /><path clip-path="url(#clip560)" d="M1090.68 1518.52 L1096.53 1518.52 L1096.53 1568.04 L1090.68 1568.04 L1090.68 1518.52 Z" fill="#000000" fill-rule="evenodd" fill-opacity="1" /><path clip-path="url(#clip560)" d="M1139.28 1548.76 L1139.28 1551.62 L1112.35 1551.62 Q1112.73 1557.67 1115.98 1560.85 Q1119.26 1564 1125.08 1564 Q1128.46 1564 1131.61 1563.17 Q1134.79 1562.35 1137.91 1560.69 L1137.91 1566.23 Q1134.76 1567.57 1131.45 1568.27 Q1128.14 1568.97 1124.73 1568.97 Q1116.2 1568.97 1111.21 1564 Q1106.24 1559.04 1106.24 1550.57 Q1106.24 1541.82 1110.95 1536.69 Q1115.69 1531.54 1123.72 1531.54 Q1130.91 1531.54 1135.08 1536.18 Q1139.28 1540.8 1139.28 1548.76 M1133.42 1547.04 Q1133.36 1542.23 1130.72 1539.37 Q1128.11 1536.5 1123.78 1536.5 Q1118.88 1536.5 1115.92 1539.27 Q1112.99 1542.04 1112.54 1547.07 L1133.42 1547.04 Z" fill="#000000" fill-rule="evenodd" fill-opacity="1" /><path clip-path="url(#clip560)" d="M1165.09 1550.12 Q1157.99 1550.12 1155.26 1551.75 Q1152.52 1553.37 1152.52 1557.29 Q1152.52 1560.4 1154.56 1562.25 Q1156.63 1564.07 1160.16 1564.07 Q1165.03 1564.07 1167.96 1560.63 Q1170.92 1557.16 1170.92 1551.43 L1170.92 1550.12 L1165.09 1550.12 M1176.77 1547.71 L1176.77 1568.04 L1170.92 1568.04 L1170.92 1562.63 Q1168.91 1565.88 1165.92 1567.44 Q1162.93 1568.97 1158.6 1568.97 Q1153.12 1568.97 1149.88 1565.91 Q1146.66 1562.82 1146.66 1557.67 Q1146.66 1551.65 1150.67 1548.6 Q1154.72 1545.54 1162.7 1545.54 L1170.92 1545.54 L1170.92 1544.97 Q1170.92 1540.93 1168.24 1538.73 Q1165.6 1536.5 1160.8 1536.5 Q1157.74 1536.5 1154.84 1537.23 Q1151.95 1537.97 1149.27 1539.43 L1149.27 1534.02 Q1152.49 1532.78 1155.51 1532.17 Q1158.54 1531.54 1161.4 1531.54 Q1169.13 1531.54 1172.95 1535.55 Q1176.77 1539.56 1176.77 1547.71 Z" fill="#000000" fill-rule="evenodd" fill-opacity="1" /><path clip-path="url(#clip560)" d="M1211.56 1533.45 L1211.56 1538.98 Q1209.08 1537.71 1206.41 1537.07 Q1203.73 1536.44 1200.87 1536.44 Q1196.51 1536.44 1194.31 1537.77 Q1192.15 1539.11 1192.15 1541.79 Q1192.15 1543.82 1193.71 1545 Q1195.27 1546.15 1199.98 1547.2 L1201.98 1547.64 Q1208.22 1548.98 1210.83 1551.43 Q1213.47 1553.85 1213.47 1558.21 Q1213.47 1563.17 1209.52 1566.07 Q1205.61 1568.97 1198.73 1568.97 Q1195.87 1568.97 1192.75 1568.39 Q1189.66 1567.85 1186.23 1566.74 L1186.23 1560.69 Q1189.47 1562.38 1192.62 1563.24 Q1195.77 1564.07 1198.86 1564.07 Q1203 1564.07 1205.23 1562.66 Q1207.46 1561.23 1207.46 1558.65 Q1207.46 1556.27 1205.83 1554.99 Q1204.24 1553.72 1198.8 1552.54 L1196.76 1552.07 Q1191.32 1550.92 1188.9 1548.56 Q1186.48 1546.18 1186.48 1542.04 Q1186.48 1537.01 1190.05 1534.27 Q1193.61 1531.54 1200.17 1531.54 Q1203.41 1531.54 1206.28 1532.01 Q1209.14 1532.49 1211.56 1533.45 Z" fill="#000000" fill-rule="evenodd" fill-opacity="1" /><path clip-path="url(#clip560)" d="M1253.29 1548.76 L1253.29 1551.62 L1226.36 1551.62 Q1226.74 1557.67 1229.99 1560.85 Q1233.27 1564 1239.09 1564 Q1242.47 1564 1245.62 1563.17 Q1248.8 1562.35 1251.92 1560.69 L1251.92 1566.23 Q1248.77 1567.57 1245.46 1568.27 Q1242.15 1568.97 1238.74 1568.97 Q1230.21 1568.97 1225.22 1564 Q1220.25 1559.04 1220.25 1550.57 Q1220.25 1541.82 1224.96 1536.69 Q1229.7 1531.54 1237.72 1531.54 Q1244.92 1531.54 1249.09 1536.18 Q1253.29 1540.8 1253.29 1548.76 M1247.43 1547.04 Q1247.37 1542.23 1244.73 1539.37 Q1242.12 1536.5 1237.79 1536.5 Q1232.89 1536.5 1229.93 1539.27 Q1227 1542.04 1226.55 1547.07 L1247.43 1547.04 Z" fill="#000000" fill-rule="evenodd" fill-opacity="1" /><path clip-path="url(#clip560)" d="M1307.08 1537.81 L1307.08 1518.52 L1312.94 1518.52 L1312.94 1568.04 L1307.08 1568.04 L1307.08 1562.7 Q1305.23 1565.88 1302.4 1567.44 Q1299.6 1568.97 1295.65 1568.97 Q1289.19 1568.97 1285.12 1563.81 Q1281.08 1558.65 1281.08 1550.25 Q1281.08 1541.85 1285.12 1536.69 Q1289.19 1531.54 1295.65 1531.54 Q1299.6 1531.54 1302.4 1533.1 Q1305.23 1534.62 1307.08 1537.81 M1287.12 1550.25 Q1287.12 1556.71 1289.76 1560.4 Q1292.44 1564.07 1297.09 1564.07 Q1301.73 1564.07 1304.41 1560.4 Q1307.08 1556.71 1307.08 1550.25 Q1307.08 1543.79 1304.41 1540.13 Q1301.73 1536.44 1297.09 1536.44 Q1292.44 1536.44 1289.76 1540.13 Q1287.12 1543.79 1287.12 1550.25 Z" fill="#000000" fill-rule="evenodd" fill-opacity="1" /><path clip-path="url(#clip560)" d="M1324.39 1553.98 L1324.39 1532.4 L1330.25 1532.4 L1330.25 1553.75 Q1330.25 1558.81 1332.22 1561.36 Q1334.2 1563.87 1338.14 1563.87 Q1342.89 1563.87 1345.62 1560.85 Q1348.39 1557.83 1348.39 1552.61 L1348.39 1532.4 L1354.25 1532.4 L1354.25 1568.04 L1348.39 1568.04 L1348.39 1562.57 Q1346.26 1565.82 1343.43 1567.41 Q1340.63 1568.97 1336.9 1568.97 Q1330.76 1568.97 1327.58 1565.15 Q1324.39 1561.33 1324.39 1553.98 M1339.13 1531.54 L1339.13 1531.54 Z" fill="#000000" fill-rule="evenodd" fill-opacity="1" /><path clip-path="url(#clip560)" d="M1386.97 1537.87 Q1385.98 1537.3 1384.8 1537.04 Q1383.66 1536.76 1382.26 1536.76 Q1377.29 1536.76 1374.62 1540 Q1371.98 1543.22 1371.98 1549.27 L1371.98 1568.04 L1366.09 1568.04 L1366.09 1532.4 L1371.98 1532.4 L1371.98 1537.93 Q1373.82 1534.69 1376.78 1533.13 Q1379.74 1531.54 1383.98 1531.54 Q1384.58 1531.54 1385.31 1531.63 Q1386.05 1531.7 1386.94 1531.85 L1386.97 1537.87 Z" fill="#000000" fill-rule="evenodd" fill-opacity="1" /><path clip-path="url(#clip560)" d="M1409.31 1550.12 Q1402.21 1550.12 1399.48 1551.75 Q1396.74 1553.37 1396.74 1557.29 Q1396.74 1560.4 1398.78 1562.25 Q1400.85 1564.07 1404.38 1564.07 Q1409.25 1564.07 1412.18 1560.63 Q1415.14 1557.16 1415.14 1551.43 L1415.14 1550.12 L1409.31 1550.12 M1420.99 1547.71 L1420.99 1568.04 L1415.14 1568.04 L1415.14 1562.63 Q1413.13 1565.88 1410.14 1567.44 Q1407.15 1568.97 1402.82 1568.97 Q1397.34 1568.97 1394.1 1565.91 Q1390.88 1562.82 1390.88 1557.67 Q1390.88 1551.65 1394.89 1548.6 Q1398.94 1545.54 1406.93 1545.54 L1415.14 1545.54 L1415.14 1544.97 Q1415.14 1540.93 1412.46 1538.73 Q1409.82 1536.5 1405.02 1536.5 Q1401.96 1536.5 1399.06 1537.23 Q1396.17 1537.97 1393.49 1539.43 L1393.49 1534.02 Q1396.71 1532.78 1399.73 1532.17 Q1402.76 1531.54 1405.62 1531.54 Q1413.35 1531.54 1417.17 1535.55 Q1420.99 1539.56 1420.99 1547.71 Z" fill="#000000" fill-rule="evenodd" fill-opacity="1" /><path clip-path="url(#clip560)" d="M1438.85 1522.27 L1438.85 1532.4 L1450.91 1532.4 L1450.91 1536.95 L1438.85 1536.95 L1438.85 1556.3 Q1438.85 1560.66 1440.03 1561.9 Q1441.24 1563.14 1444.9 1563.14 L1450.91 1563.14 L1450.91 1568.04 L1444.9 1568.04 Q1438.12 1568.04 1435.54 1565.53 Q1432.96 1562.98 1432.96 1556.3 L1432.96 1536.95 L1428.66 1536.95 L1428.66 1532.4 L1432.96 1532.4 L1432.96 1522.27 L1438.85 1522.27 Z" fill="#000000" fill-rule="evenodd" fill-opacity="1" /><path clip-path="url(#clip560)" d="M1458.61 1532.4 L1464.47 1532.4 L1464.47 1568.04 L1458.61 1568.04 L1458.61 1532.4 M1458.61 1518.52 L1464.47 1518.52 L1464.47 1525.93 L1458.61 1525.93 L1458.61 1518.52 Z" fill="#000000" fill-rule="evenodd" fill-opacity="1" /><path clip-path="url(#clip560)" d="M1490.54 1536.5 Q1485.83 1536.5 1483.09 1540.19 Q1480.35 1543.85 1480.35 1550.25 Q1480.35 1556.65 1483.06 1560.34 Q1485.8 1564 1490.54 1564 Q1495.22 1564 1497.95 1560.31 Q1500.69 1556.62 1500.69 1550.25 Q1500.69 1543.92 1497.95 1540.23 Q1495.22 1536.5 1490.54 1536.5 M1490.54 1531.54 Q1498.18 1531.54 1502.54 1536.5 Q1506.9 1541.47 1506.9 1550.25 Q1506.9 1559 1502.54 1564 Q1498.18 1568.97 1490.54 1568.97 Q1482.87 1568.97 1478.51 1564 Q1474.18 1559 1474.18 1550.25 Q1474.18 1541.47 1478.51 1536.5 Q1482.87 1531.54 1490.54 1531.54 Z" fill="#000000" fill-rule="evenodd" fill-opacity="1" /><path clip-path="url(#clip560)" d="M1546.24 1546.53 L1546.24 1568.04 L1540.38 1568.04 L1540.38 1546.72 Q1540.38 1541.66 1538.41 1539.14 Q1536.44 1536.63 1532.49 1536.63 Q1527.75 1536.63 1525.01 1539.65 Q1522.27 1542.68 1522.27 1547.9 L1522.27 1568.04 L1516.38 1568.04 L1516.38 1532.4 L1522.27 1532.4 L1522.27 1537.93 Q1524.37 1534.72 1527.21 1533.13 Q1530.07 1531.54 1533.79 1531.54 Q1539.94 1531.54 1543.09 1535.36 Q1546.24 1539.14 1546.24 1546.53 Z" fill="#000000" fill-rule="evenodd" fill-opacity="1" /><path clip-path="url(#clip560)" d="M1559.42 1559.96 L1566.13 1559.96 L1566.13 1565.43 L1560.91 1575.62 L1556.81 1575.62 L1559.42 1565.43 L1559.42 1559.96 Z" fill="#000000" fill-rule="evenodd" fill-opacity="1" /><path clip-path="url(#clip560)" d="M1622.09 1533.45 L1622.09 1538.98 Q1619.6 1537.71 1616.93 1537.07 Q1614.26 1536.44 1611.39 1536.44 Q1607.03 1536.44 1604.84 1537.77 Q1602.67 1539.11 1602.67 1541.79 Q1602.67 1543.82 1604.23 1545 Q1605.79 1546.15 1610.5 1547.2 L1612.51 1547.64 Q1618.74 1548.98 1621.35 1551.43 Q1624 1553.85 1624 1558.21 Q1624 1563.17 1620.05 1566.07 Q1616.13 1568.97 1609.26 1568.97 Q1606.39 1568.97 1603.28 1568.39 Q1600.19 1567.85 1596.75 1566.74 L1596.75 1560.69 Q1600 1562.38 1603.15 1563.24 Q1606.3 1564.07 1609.39 1564.07 Q1613.52 1564.07 1615.75 1562.66 Q1617.98 1561.23 1617.98 1558.65 Q1617.98 1556.27 1616.36 1554.99 Q1614.77 1553.72 1609.32 1552.54 L1607.29 1552.07 Q1601.84 1550.92 1599.42 1548.56 Q1597.01 1546.18 1597.01 1542.04 Q1597.01 1537.01 1600.57 1534.27 Q1604.13 1531.54 1610.69 1531.54 Q1613.94 1531.54 1616.8 1532.01 Q1619.67 1532.49 1622.09 1533.45 Z" fill="#000000" fill-rule="evenodd" fill-opacity="1" /><polyline clip-path="url(#clip562)" style="stroke:#000000; stroke-linecap:butt; stroke-linejoin:round; stroke-width:2; stroke-opacity:0.1; fill:none" points="
  279.704,1423.18 2352.76,1423.18 
  "/>
<polyline clip-path="url(#clip562)" style="stroke:#000000; stroke-linecap:butt; stroke-linejoin:round; stroke-width:2; stroke-opacity:0.1; fill:none" points="
  279.704,964.535 2352.76,964.535 
  "/>
<polyline clip-path="url(#clip562)" style="stroke:#000000; stroke-linecap:butt; stroke-linejoin:round; stroke-width:2; stroke-opacity:0.1; fill:none" points="
  279.704,505.889 2352.76,505.889 
  "/>
<polyline clip-path="url(#clip562)" style="stroke:#000000; stroke-linecap:butt; stroke-linejoin:round; stroke-width:2; stroke-opacity:0.1; fill:none" points="
  279.704,47.2441 2352.76,47.2441 
  "/>
<polyline clip-path="url(#clip560)" style="stroke:#000000; stroke-linecap:butt; stroke-linejoin:round; stroke-width:4; stroke-opacity:1; fill:none" points="
  279.704,1423.18 279.704,47.2441 
  "/>
<polyline clip-path="url(#clip560)" style="stroke:#000000; stroke-linecap:butt; stroke-linejoin:round; stroke-width:4; stroke-opacity:1; fill:none" points="
  279.704,1423.18 298.602,1423.18 
  "/>
<polyline clip-path="url(#clip560)" style="stroke:#000000; stroke-linecap:butt; stroke-linejoin:round; stroke-width:4; stroke-opacity:1; fill:none" points="
  279.704,964.535 298.602,964.535 
  "/>
<polyline clip-path="url(#clip560)" style="stroke:#000000; stroke-linecap:butt; stroke-linejoin:round; stroke-width:4; stroke-opacity:1; fill:none" points="
  279.704,505.889 298.602,505.889 
  "/>
<polyline clip-path="url(#clip560)" style="stroke:#000000; stroke-linecap:butt; stroke-linejoin:round; stroke-width:4; stroke-opacity:1; fill:none" points="
  279.704,47.2441 298.602,47.2441 
  "/>
<path clip-path="url(#clip560)" d="M126.205 1408.98 Q122.593 1408.98 120.765 1412.54 Q118.959 1416.08 118.959 1423.21 Q118.959 1430.32 120.765 1433.89 Q122.593 1437.43 126.205 1437.43 Q129.839 1437.43 131.644 1433.89 Q133.473 1430.32 133.473 1423.21 Q133.473 1416.08 131.644 1412.54 Q129.839 1408.98 126.205 1408.98 M126.205 1405.27 Q132.015 1405.27 135.07 1409.88 Q138.149 1414.46 138.149 1423.21 Q138.149 1431.94 135.07 1436.55 Q132.015 1441.13 126.205 1441.13 Q120.394 1441.13 117.316 1436.55 Q114.26 1431.94 114.26 1423.21 Q114.26 1414.46 117.316 1409.88 Q120.394 1405.27 126.205 1405.27 Z" fill="#000000" fill-rule="evenodd" fill-opacity="1" /><path clip-path="url(#clip560)" d="M146.366 1434.58 L151.251 1434.58 L151.251 1440.46 L146.366 1440.46 L146.366 1434.58 Z" fill="#000000" fill-rule="evenodd" fill-opacity="1" /><path clip-path="url(#clip560)" d="M171.436 1408.98 Q167.825 1408.98 165.996 1412.54 Q164.19 1416.08 164.19 1423.21 Q164.19 1430.32 165.996 1433.89 Q167.825 1437.43 171.436 1437.43 Q175.07 1437.43 176.876 1433.89 Q178.704 1430.32 178.704 1423.21 Q178.704 1416.08 176.876 1412.54 Q175.07 1408.98 171.436 1408.98 M171.436 1405.27 Q177.246 1405.27 180.301 1409.88 Q183.38 1414.46 183.38 1423.21 Q183.38 1431.94 180.301 1436.55 Q177.246 1441.13 171.436 1441.13 Q165.626 1441.13 162.547 1436.55 Q159.491 1431.94 159.491 1423.21 Q159.491 1414.46 162.547 1409.88 Q165.626 1405.27 171.436 1405.27 Z" fill="#000000" fill-rule="evenodd" fill-opacity="1" /><path clip-path="url(#clip560)" d="M201.598 1408.98 Q197.987 1408.98 196.158 1412.54 Q194.352 1416.08 194.352 1423.21 Q194.352 1430.32 196.158 1433.89 Q197.987 1437.43 201.598 1437.43 Q205.232 1437.43 207.037 1433.89 Q208.866 1430.32 208.866 1423.21 Q208.866 1416.08 207.037 1412.54 Q205.232 1408.98 201.598 1408.98 M201.598 1405.27 Q207.408 1405.27 210.463 1409.88 Q213.542 1414.46 213.542 1423.21 Q213.542 1431.94 210.463 1436.55 Q207.408 1441.13 201.598 1441.13 Q195.787 1441.13 192.709 1436.55 Q189.653 1431.94 189.653 1423.21 Q189.653 1414.46 192.709 1409.88 Q195.787 1405.27 201.598 1405.27 Z" fill="#000000" fill-rule="evenodd" fill-opacity="1" /><path clip-path="url(#clip560)" d="M231.76 1408.98 Q228.148 1408.98 226.32 1412.54 Q224.514 1416.08 224.514 1423.21 Q224.514 1430.32 226.32 1433.89 Q228.148 1437.43 231.76 1437.43 Q235.394 1437.43 237.199 1433.89 Q239.028 1430.32 239.028 1423.21 Q239.028 1416.08 237.199 1412.54 Q235.394 1408.98 231.76 1408.98 M231.76 1405.27 Q237.57 1405.27 240.625 1409.88 Q243.704 1414.46 243.704 1423.21 Q243.704 1431.94 240.625 1436.55 Q237.57 1441.13 231.76 1441.13 Q225.949 1441.13 222.871 1436.55 Q219.815 1431.94 219.815 1423.21 Q219.815 1414.46 222.871 1409.88 Q225.949 1405.27 231.76 1405.27 Z" fill="#000000" fill-rule="evenodd" fill-opacity="1" /><path clip-path="url(#clip560)" d="M127.2 950.333 Q123.589 950.333 121.76 953.898 Q119.955 957.44 119.955 964.569 Q119.955 971.676 121.76 975.241 Q123.589 978.782 127.2 978.782 Q130.834 978.782 132.64 975.241 Q134.468 971.676 134.468 964.569 Q134.468 957.44 132.64 953.898 Q130.834 950.333 127.2 950.333 M127.2 946.63 Q133.01 946.63 136.066 951.236 Q139.144 955.819 139.144 964.569 Q139.144 973.296 136.066 977.903 Q133.01 982.486 127.2 982.486 Q121.39 982.486 118.311 977.903 Q115.256 973.296 115.256 964.569 Q115.256 955.819 118.311 951.236 Q121.39 946.63 127.2 946.63 Z" fill="#000000" fill-rule="evenodd" fill-opacity="1" /><path clip-path="url(#clip560)" d="M147.362 975.935 L152.246 975.935 L152.246 981.815 L147.362 981.815 L147.362 975.935 Z" fill="#000000" fill-rule="evenodd" fill-opacity="1" /><path clip-path="url(#clip560)" d="M172.431 950.333 Q168.82 950.333 166.991 953.898 Q165.186 957.44 165.186 964.569 Q165.186 971.676 166.991 975.241 Q168.82 978.782 172.431 978.782 Q176.065 978.782 177.871 975.241 Q179.7 971.676 179.7 964.569 Q179.7 957.44 177.871 953.898 Q176.065 950.333 172.431 950.333 M172.431 946.63 Q178.241 946.63 181.297 951.236 Q184.376 955.819 184.376 964.569 Q184.376 973.296 181.297 977.903 Q178.241 982.486 172.431 982.486 Q166.621 982.486 163.542 977.903 Q160.487 973.296 160.487 964.569 Q160.487 955.819 163.542 951.236 Q166.621 946.63 172.431 946.63 Z" fill="#000000" fill-rule="evenodd" fill-opacity="1" /><path clip-path="url(#clip560)" d="M202.593 950.333 Q198.982 950.333 197.153 953.898 Q195.348 957.44 195.348 964.569 Q195.348 971.676 197.153 975.241 Q198.982 978.782 202.593 978.782 Q206.227 978.782 208.033 975.241 Q209.861 971.676 209.861 964.569 Q209.861 957.44 208.033 953.898 Q206.227 950.333 202.593 950.333 M202.593 946.63 Q208.403 946.63 211.459 951.236 Q214.537 955.819 214.537 964.569 Q214.537 973.296 211.459 977.903 Q208.403 982.486 202.593 982.486 Q196.783 982.486 193.704 977.903 Q190.649 973.296 190.649 964.569 Q190.649 955.819 193.704 951.236 Q196.783 946.63 202.593 946.63 Z" fill="#000000" fill-rule="evenodd" fill-opacity="1" /><path clip-path="url(#clip560)" d="M222.801 947.255 L241.158 947.255 L241.158 951.19 L227.084 951.19 L227.084 959.662 Q228.102 959.315 229.121 959.153 Q230.139 958.967 231.158 958.967 Q236.945 958.967 240.324 962.139 Q243.704 965.31 243.704 970.727 Q243.704 976.305 240.232 979.407 Q236.76 982.486 230.44 982.486 Q228.264 982.486 225.996 982.116 Q223.75 981.745 221.343 981.004 L221.343 976.305 Q223.426 977.44 225.648 977.995 Q227.871 978.551 230.347 978.551 Q234.352 978.551 236.69 976.444 Q239.028 974.338 239.028 970.727 Q239.028 967.116 236.69 965.009 Q234.352 962.903 230.347 962.903 Q228.473 962.903 226.598 963.319 Q224.746 963.736 222.801 964.616 L222.801 947.255 Z" fill="#000000" fill-rule="evenodd" fill-opacity="1" /><path clip-path="url(#clip560)" d="M126.205 491.688 Q122.593 491.688 120.765 495.253 Q118.959 498.794 118.959 505.924 Q118.959 513.031 120.765 516.595 Q122.593 520.137 126.205 520.137 Q129.839 520.137 131.644 516.595 Q133.473 513.031 133.473 505.924 Q133.473 498.794 131.644 495.253 Q129.839 491.688 126.205 491.688 M126.205 487.984 Q132.015 487.984 135.07 492.591 Q138.149 497.174 138.149 505.924 Q138.149 514.651 135.07 519.257 Q132.015 523.841 126.205 523.841 Q120.394 523.841 117.316 519.257 Q114.26 514.651 114.26 505.924 Q114.26 497.174 117.316 492.591 Q120.394 487.984 126.205 487.984 Z" fill="#000000" fill-rule="evenodd" fill-opacity="1" /><path clip-path="url(#clip560)" d="M146.366 517.29 L151.251 517.29 L151.251 523.169 L146.366 523.169 L146.366 517.29 Z" fill="#000000" fill-rule="evenodd" fill-opacity="1" /><path clip-path="url(#clip560)" d="M171.436 491.688 Q167.825 491.688 165.996 495.253 Q164.19 498.794 164.19 505.924 Q164.19 513.031 165.996 516.595 Q167.825 520.137 171.436 520.137 Q175.07 520.137 176.876 516.595 Q178.704 513.031 178.704 505.924 Q178.704 498.794 176.876 495.253 Q175.07 491.688 171.436 491.688 M171.436 487.984 Q177.246 487.984 180.301 492.591 Q183.38 497.174 183.38 505.924 Q183.38 514.651 180.301 519.257 Q177.246 523.841 171.436 523.841 Q165.626 523.841 162.547 519.257 Q159.491 514.651 159.491 505.924 Q159.491 497.174 162.547 492.591 Q165.626 487.984 171.436 487.984 Z" fill="#000000" fill-rule="evenodd" fill-opacity="1" /><path clip-path="url(#clip560)" d="M192.408 519.234 L200.047 519.234 L200.047 492.869 L191.737 494.535 L191.737 490.276 L200 488.609 L204.676 488.609 L204.676 519.234 L212.315 519.234 L212.315 523.169 L192.408 523.169 L192.408 519.234 Z" fill="#000000" fill-rule="evenodd" fill-opacity="1" /><path clip-path="url(#clip560)" d="M231.76 491.688 Q228.148 491.688 226.32 495.253 Q224.514 498.794 224.514 505.924 Q224.514 513.031 226.32 516.595 Q228.148 520.137 231.76 520.137 Q235.394 520.137 237.199 516.595 Q239.028 513.031 239.028 505.924 Q239.028 498.794 237.199 495.253 Q235.394 491.688 231.76 491.688 M231.76 487.984 Q237.57 487.984 240.625 492.591 Q243.704 497.174 243.704 505.924 Q243.704 514.651 240.625 519.257 Q237.57 523.841 231.76 523.841 Q225.949 523.841 222.871 519.257 Q219.815 514.651 219.815 505.924 Q219.815 497.174 222.871 492.591 Q225.949 487.984 231.76 487.984 Z" fill="#000000" fill-rule="evenodd" fill-opacity="1" /><path clip-path="url(#clip560)" d="M127.2 33.0428 Q123.589 33.0428 121.76 36.6076 Q119.955 40.1492 119.955 47.2788 Q119.955 54.3853 121.76 57.9501 Q123.589 61.4917 127.2 61.4917 Q130.834 61.4917 132.64 57.9501 Q134.468 54.3853 134.468 47.2788 Q134.468 40.1492 132.64 36.6076 Q130.834 33.0428 127.2 33.0428 M127.2 29.3391 Q133.01 29.3391 136.066 33.9456 Q139.144 38.5289 139.144 47.2788 Q139.144 56.0056 136.066 60.6121 Q133.01 65.1954 127.2 65.1954 Q121.39 65.1954 118.311 60.6121 Q115.256 56.0056 115.256 47.2788 Q115.256 38.5289 118.311 33.9456 Q121.39 29.3391 127.2 29.3391 Z" fill="#000000" fill-rule="evenodd" fill-opacity="1" /><path clip-path="url(#clip560)" d="M147.362 58.6445 L152.246 58.6445 L152.246 64.5241 L147.362 64.5241 L147.362 58.6445 Z" fill="#000000" fill-rule="evenodd" fill-opacity="1" /><path clip-path="url(#clip560)" d="M172.431 33.0428 Q168.82 33.0428 166.991 36.6076 Q165.186 40.1492 165.186 47.2788 Q165.186 54.3853 166.991 57.9501 Q168.82 61.4917 172.431 61.4917 Q176.065 61.4917 177.871 57.9501 Q179.7 54.3853 179.7 47.2788 Q179.7 40.1492 177.871 36.6076 Q176.065 33.0428 172.431 33.0428 M172.431 29.3391 Q178.241 29.3391 181.297 33.9456 Q184.376 38.5289 184.376 47.2788 Q184.376 56.0056 181.297 60.6121 Q178.241 65.1954 172.431 65.1954 Q166.621 65.1954 163.542 60.6121 Q160.487 56.0056 160.487 47.2788 Q160.487 38.5289 163.542 33.9456 Q166.621 29.3391 172.431 29.3391 Z" fill="#000000" fill-rule="evenodd" fill-opacity="1" /><path clip-path="url(#clip560)" d="M193.403 60.5889 L201.042 60.5889 L201.042 34.2233 L192.732 35.89 L192.732 31.6308 L200.996 29.9641 L205.672 29.9641 L205.672 60.5889 L213.311 60.5889 L213.311 64.5241 L193.403 64.5241 L193.403 60.5889 Z" fill="#000000" fill-rule="evenodd" fill-opacity="1" /><path clip-path="url(#clip560)" d="M222.801 29.9641 L241.158 29.9641 L241.158 33.8993 L227.084 33.8993 L227.084 42.3714 Q228.102 42.0242 229.121 41.8622 Q230.139 41.677 231.158 41.677 Q236.945 41.677 240.324 44.8483 Q243.704 48.0196 243.704 53.4362 Q243.704 59.0149 240.232 62.1167 Q236.76 65.1954 230.44 65.1954 Q228.264 65.1954 225.996 64.825 Q223.75 64.4547 221.343 63.7139 L221.343 59.0149 Q223.426 60.1491 225.648 60.7047 Q227.871 61.2602 230.347 61.2602 Q234.352 61.2602 236.69 59.1538 Q239.028 57.0473 239.028 53.4362 Q239.028 49.8251 236.69 47.7186 Q234.352 45.6122 230.347 45.6122 Q228.473 45.6122 226.598 46.0288 Q224.746 46.4455 222.801 47.3251 L222.801 29.9641 Z" fill="#000000" fill-rule="evenodd" fill-opacity="1" /><path clip-path="url(#clip560)" d="M16.4842 1149.91 L16.4842 1140.33 L48.8219 1128.2 L16.4842 1116.01 L16.4842 1106.43 L64.0042 1106.43 L64.0042 1112.7 L22.277 1112.7 L54.8694 1124.95 L54.8694 1131.41 L22.277 1143.67 L64.0042 1143.67 L64.0042 1149.91 L16.4842 1149.91 Z" fill="#000000" fill-rule="evenodd" fill-opacity="1" /><path clip-path="url(#clip560)" d="M46.0847 1077.72 Q46.0847 1084.82 47.7079 1087.55 Q49.3312 1090.29 53.2461 1090.29 Q56.3653 1090.29 58.2114 1088.25 Q60.0256 1086.19 60.0256 1082.65 Q60.0256 1077.78 56.5881 1074.85 Q53.1188 1071.89 47.3897 1071.89 L46.0847 1071.89 L46.0847 1077.72 M43.6657 1066.04 L64.0042 1066.04 L64.0042 1071.89 L58.5933 1071.89 Q61.8398 1073.9 63.3994 1076.89 Q64.9272 1079.88 64.9272 1084.21 Q64.9272 1089.69 61.8716 1092.93 Q58.7843 1096.15 53.6281 1096.15 Q47.6125 1096.15 44.5569 1092.14 Q41.5014 1088.09 41.5014 1080.11 L41.5014 1071.89 L40.9285 1071.89 Q36.8862 1071.89 34.6901 1074.57 Q32.4621 1077.21 32.4621 1082.02 Q32.4621 1085.07 33.1941 1087.97 Q33.9262 1090.86 35.3903 1093.54 L29.9795 1093.54 Q28.7381 1090.32 28.1334 1087.3 Q27.4968 1084.28 27.4968 1081.41 Q27.4968 1073.68 31.5072 1069.86 Q35.5176 1066.04 43.6657 1066.04 Z" fill="#000000" fill-rule="evenodd" fill-opacity="1" /><path clip-path="url(#clip560)" d="M28.3562 1024.34 L45.7028 1037.23 L64.0042 1023.67 L64.0042 1030.58 L49.9996 1040.96 L64.0042 1051.33 L64.0042 1058.24 L45.3526 1044.39 L28.3562 1057.06 L28.3562 1050.16 L41.0558 1040.7 L28.3562 1031.25 L28.3562 1024.34 Z" fill="#000000" fill-rule="evenodd" fill-opacity="1" /><path clip-path="url(#clip560)" d="M29.7248 969.024 L35.1993 969.024 Q33.8307 971.507 33.1623 974.021 Q32.4621 976.504 32.4621 979.05 Q32.4621 984.748 36.0905 987.899 Q39.6872 991.05 46.212 991.05 Q52.7369 991.05 56.3653 987.899 Q59.9619 984.748 59.9619 979.05 Q59.9619 976.504 59.2935 974.021 Q58.5933 971.507 57.2247 969.024 L62.6355 969.024 Q63.7814 971.475 64.3543 974.117 Q64.9272 976.727 64.9272 979.687 Q64.9272 987.74 59.8664 992.482 Q54.8057 997.224 46.212 997.224 Q37.491 997.224 32.4939 992.45 Q27.4968 987.644 27.4968 979.305 Q27.4968 976.6 28.0697 974.021 Q28.6108 971.443 29.7248 969.024 Z" fill="#000000" fill-rule="evenodd" fill-opacity="1" /><path clip-path="url(#clip560)" d="M32.4621 945.026 Q32.4621 949.736 36.1542 952.474 Q39.8145 955.211 46.212 955.211 Q52.6095 955.211 56.3017 952.505 Q59.9619 949.768 59.9619 945.026 Q59.9619 940.347 56.2698 937.61 Q52.5777 934.872 46.212 934.872 Q39.8781 934.872 36.186 937.61 Q32.4621 940.347 32.4621 945.026 M27.4968 945.026 Q27.4968 937.387 32.4621 933.026 Q37.4273 928.666 46.212 928.666 Q54.9649 928.666 59.9619 933.026 Q64.9272 937.387 64.9272 945.026 Q64.9272 952.696 59.9619 957.057 Q54.9649 961.386 46.212 961.386 Q37.4273 961.386 32.4621 957.057 Q27.4968 952.696 27.4968 945.026 Z" fill="#000000" fill-rule="evenodd" fill-opacity="1" /><path clip-path="url(#clip560)" d="M42.4881 889.326 L64.0042 889.326 L64.0042 895.182 L42.679 895.182 Q37.6183 895.182 35.1038 897.156 Q32.5894 899.129 32.5894 903.076 Q32.5894 907.818 35.6131 910.555 Q38.6368 913.293 43.8567 913.293 L64.0042 913.293 L64.0042 919.181 L28.3562 919.181 L28.3562 913.293 L33.8944 913.293 Q30.6797 911.192 29.0883 908.359 Q27.4968 905.495 27.4968 901.771 Q27.4968 895.628 31.3163 892.477 Q35.1038 889.326 42.4881 889.326 Z" fill="#000000" fill-rule="evenodd" fill-opacity="1" /><path clip-path="url(#clip560)" d="M29.7248 851.991 L35.1993 851.991 Q33.8307 854.473 33.1623 856.988 Q32.4621 859.471 32.4621 862.017 Q32.4621 867.714 36.0905 870.865 Q39.6872 874.016 46.212 874.016 Q52.7369 874.016 56.3653 870.865 Q59.9619 867.714 59.9619 862.017 Q59.9619 859.471 59.2935 856.988 Q58.5933 854.473 57.2247 851.991 L62.6355 851.991 Q63.7814 854.442 64.3543 857.083 Q64.9272 859.693 64.9272 862.653 Q64.9272 870.706 59.8664 875.448 Q54.8057 880.191 46.212 880.191 Q37.491 880.191 32.4939 875.417 Q27.4968 870.611 27.4968 862.271 Q27.4968 859.566 28.0697 856.988 Q28.6108 854.41 29.7248 851.991 Z" fill="#000000" fill-rule="evenodd" fill-opacity="1" /><path clip-path="url(#clip560)" d="M44.7161 811.314 L47.5806 811.314 L47.5806 838.241 Q53.6281 837.859 56.8109 834.612 Q59.9619 831.334 59.9619 825.51 Q59.9619 822.136 59.1344 818.985 Q58.3069 815.802 56.6518 812.683 L62.1899 812.683 Q63.5267 815.834 64.227 819.144 Q64.9272 822.454 64.9272 825.86 Q64.9272 834.39 59.9619 839.387 Q54.9967 844.352 46.5303 844.352 Q37.7774 844.352 32.6531 839.641 Q27.4968 834.899 27.4968 826.878 Q27.4968 819.685 32.1438 815.515 Q36.7589 811.314 44.7161 811.314 M42.9973 817.17 Q38.1912 817.234 35.3266 819.876 Q32.4621 822.486 32.4621 826.814 Q32.4621 831.716 35.2312 834.676 Q38.0002 837.604 43.0292 838.05 L42.9973 817.17 Z" fill="#000000" fill-rule="evenodd" fill-opacity="1" /><path clip-path="url(#clip560)" d="M42.4881 772.069 L64.0042 772.069 L64.0042 777.926 L42.679 777.926 Q37.6183 777.926 35.1038 779.899 Q32.5894 781.873 32.5894 785.819 Q32.5894 790.562 35.6131 793.299 Q38.6368 796.036 43.8567 796.036 L64.0042 796.036 L64.0042 801.925 L28.3562 801.925 L28.3562 796.036 L33.8944 796.036 Q30.6797 793.936 29.0883 791.103 Q27.4968 788.238 27.4968 784.514 Q27.4968 778.371 31.3163 775.22 Q35.1038 772.069 42.4881 772.069 Z" fill="#000000" fill-rule="evenodd" fill-opacity="1" /><path clip-path="url(#clip560)" d="M18.2347 754.596 L28.3562 754.596 L28.3562 742.533 L32.9077 742.533 L32.9077 754.596 L52.2594 754.596 Q56.6199 754.596 57.8613 753.418 Q59.1026 752.208 59.1026 748.548 L59.1026 742.533 L64.0042 742.533 L64.0042 748.548 Q64.0042 755.328 61.4897 757.906 Q58.9434 760.484 52.2594 760.484 L32.9077 760.484 L32.9077 764.781 L28.3562 764.781 L28.3562 760.484 L18.2347 760.484 L18.2347 754.596 Z" fill="#000000" fill-rule="evenodd" fill-opacity="1" /><path clip-path="url(#clip560)" d="M33.8307 714.173 Q33.2578 715.16 33.0032 716.338 Q32.7167 717.483 32.7167 718.884 Q32.7167 723.849 35.9632 726.523 Q39.1779 729.165 45.2253 729.165 L64.0042 729.165 L64.0042 735.053 L28.3562 735.053 L28.3562 729.165 L33.8944 729.165 Q30.6479 727.318 29.0883 724.358 Q27.4968 721.398 27.4968 717.165 Q27.4968 716.56 27.5923 715.828 Q27.656 715.096 27.8151 714.205 L33.8307 714.173 Z" fill="#000000" fill-rule="evenodd" fill-opacity="1" /><path clip-path="url(#clip560)" d="M46.0847 691.83 Q46.0847 698.927 47.7079 701.665 Q49.3312 704.402 53.2461 704.402 Q56.3653 704.402 58.2114 702.365 Q60.0256 700.296 60.0256 696.763 Q60.0256 691.893 56.5881 688.965 Q53.1188 686.005 47.3897 686.005 L46.0847 686.005 L46.0847 691.83 M43.6657 680.149 L64.0042 680.149 L64.0042 686.005 L58.5933 686.005 Q61.8398 688.01 63.3994 691.002 Q64.9272 693.994 64.9272 698.323 Q64.9272 703.797 61.8716 707.044 Q58.7843 710.258 53.6281 710.258 Q47.6125 710.258 44.5569 706.248 Q41.5014 702.206 41.5014 694.217 L41.5014 686.005 L40.9285 686.005 Q36.8862 686.005 34.6901 688.679 Q32.4621 691.32 32.4621 696.127 Q32.4621 699.182 33.1941 702.078 Q33.9262 704.975 35.3903 707.648 L29.9795 707.648 Q28.7381 704.434 28.1334 701.41 Q27.4968 698.386 27.4968 695.522 Q27.4968 687.787 31.5072 683.968 Q35.5176 680.149 43.6657 680.149 Z" fill="#000000" fill-rule="evenodd" fill-opacity="1" /><path clip-path="url(#clip560)" d="M18.2347 662.293 L28.3562 662.293 L28.3562 650.23 L32.9077 650.23 L32.9077 662.293 L52.2594 662.293 Q56.6199 662.293 57.8613 661.115 Q59.1026 659.906 59.1026 656.245 L59.1026 650.23 L64.0042 650.23 L64.0042 656.245 Q64.0042 663.025 61.4897 665.603 Q58.9434 668.181 52.2594 668.181 L32.9077 668.181 L32.9077 672.478 L28.3562 672.478 L28.3562 668.181 L18.2347 668.181 L18.2347 662.293 Z" fill="#000000" fill-rule="evenodd" fill-opacity="1" /><path clip-path="url(#clip560)" d="M28.3562 642.527 L28.3562 636.671 L64.0042 636.671 L64.0042 642.527 L28.3562 642.527 M14.479 642.527 L14.479 636.671 L21.895 636.671 L21.895 642.527 L14.479 642.527 Z" fill="#000000" fill-rule="evenodd" fill-opacity="1" /><path clip-path="url(#clip560)" d="M32.4621 610.603 Q32.4621 615.314 36.1542 618.051 Q39.8145 620.788 46.212 620.788 Q52.6095 620.788 56.3017 618.083 Q59.9619 615.346 59.9619 610.603 Q59.9619 605.924 56.2698 603.187 Q52.5777 600.45 46.212 600.45 Q39.8781 600.45 36.186 603.187 Q32.4621 605.924 32.4621 610.603 M27.4968 610.603 Q27.4968 602.964 32.4621 598.604 Q37.4273 594.243 46.212 594.243 Q54.9649 594.243 59.9619 598.604 Q64.9272 602.964 64.9272 610.603 Q64.9272 618.274 59.9619 622.634 Q54.9649 626.963 46.212 626.963 Q37.4273 626.963 32.4621 622.634 Q27.4968 618.274 27.4968 610.603 Z" fill="#000000" fill-rule="evenodd" fill-opacity="1" /><path clip-path="url(#clip560)" d="M42.4881 554.903 L64.0042 554.903 L64.0042 560.76 L42.679 560.76 Q37.6183 560.76 35.1038 562.733 Q32.5894 564.707 32.5894 568.653 Q32.5894 573.396 35.6131 576.133 Q38.6368 578.87 43.8567 578.87 L64.0042 578.87 L64.0042 584.758 L28.3562 584.758 L28.3562 578.87 L33.8944 578.87 Q30.6797 576.77 29.0883 573.937 Q27.4968 571.072 27.4968 567.348 Q27.4968 561.205 31.3163 558.054 Q35.1038 554.903 42.4881 554.903 Z" fill="#000000" fill-rule="evenodd" fill-opacity="1" /><path clip-path="url(#clip560)" d="M55.9197 541.726 L55.9197 535.01 L61.3942 535.01 L71.5793 540.23 L71.5793 544.336 L61.3942 541.726 L55.9197 541.726 Z" fill="#000000" fill-rule="evenodd" fill-opacity="1" /><path clip-path="url(#clip560)" d="M14.479 502.004 L14.479 496.116 L43.7294 496.116 L28.3562 478.642 L28.3562 471.162 L45.0344 490.069 L64.0042 470.367 L64.0042 478.006 L46.5939 496.116 L64.0042 496.116 L64.0042 502.004 L14.479 502.004 Z" fill="#000000" fill-rule="evenodd" fill-opacity="1" /><path clip-path="url(#clip560)" d="M45.7664 440.575 Q39.4007 440.575 35.8996 443.217 Q32.3984 445.827 32.3984 450.569 Q32.3984 455.28 35.8996 457.922 Q39.4007 460.532 45.7664 460.532 Q52.1003 460.532 55.6014 457.922 Q59.1026 455.28 59.1026 450.569 Q59.1026 445.827 55.6014 443.217 Q52.1003 440.575 45.7664 440.575 M59.58 434.719 Q68.683 434.719 73.1071 438.761 Q77.5631 442.803 77.5631 451.142 Q77.5631 454.23 77.0857 456.967 Q76.6401 459.704 75.6852 462.282 L69.9879 462.282 Q71.3884 459.704 72.0568 457.19 Q72.7252 454.675 72.7252 452.065 Q72.7252 446.304 69.7015 443.44 Q66.7096 440.575 60.6303 440.575 L57.7339 440.575 Q60.885 442.389 62.4446 445.222 Q64.0042 448.055 64.0042 452.002 Q64.0042 458.558 59.0071 462.569 Q54.01 466.579 45.7664 466.579 Q37.491 466.579 32.4939 462.569 Q27.4968 458.558 27.4968 452.002 Q27.4968 448.055 29.0564 445.222 Q30.616 442.389 33.7671 440.575 L28.3562 440.575 L28.3562 434.719 L59.58 434.719 Z" fill="#000000" fill-rule="evenodd" fill-opacity="1" /><path clip-path="url(#clip560)" d="M16.4842 412.248 L16.4842 406.837 L70.0516 423.388 L70.0516 428.799 L16.4842 412.248 Z" fill="#000000" fill-rule="evenodd" fill-opacity="1" /><path clip-path="url(#clip560)" d="M35.1993 372.94 Q31.2526 370.743 29.3747 367.688 Q27.4968 364.632 27.4968 360.495 Q27.4968 354.925 31.4117 351.901 Q35.2948 348.877 42.4881 348.877 L64.0042 348.877 L64.0042 354.766 L42.679 354.766 Q37.5546 354.766 35.072 356.58 Q32.5894 358.394 32.5894 362.118 Q32.5894 366.669 35.6131 369.311 Q38.6368 371.953 43.8567 371.953 L64.0042 371.953 L64.0042 377.841 L42.679 377.841 Q37.5228 377.841 35.072 379.655 Q32.5894 381.47 32.5894 385.257 Q32.5894 389.745 35.6449 392.387 Q38.6686 395.029 43.8567 395.029 L64.0042 395.029 L64.0042 400.917 L28.3562 400.917 L28.3562 395.029 L33.8944 395.029 Q30.616 393.023 29.0564 390.222 Q27.4968 387.422 27.4968 383.57 Q27.4968 379.687 29.4702 376.982 Q31.4436 374.245 35.1993 372.94 Z" fill="#000000" fill-rule="evenodd" fill-opacity="1" /><path clip-path="url(#clip560)" d="M28.3562 326.661 Q28.9291 323.733 30.6797 322.141 Q32.3984 320.518 35.0084 320.518 Q38.9551 320.518 41.0876 323.542 Q43.2201 326.565 43.2201 332.199 Q43.2201 334.013 42.9018 336.019 Q42.5517 337.992 41.9152 340.22 L38.0639 340.22 Q38.9233 338.565 39.337 336.687 Q39.7508 334.777 39.7508 332.645 Q39.7508 329.175 38.5095 327.266 Q37.2364 325.356 35.0084 325.356 Q32.6531 325.356 31.4436 327.138 Q30.2341 328.889 30.2341 332.326 L30.2341 335.064 L26.7966 335.064 L26.7966 332.072 Q26.7966 329.08 25.8099 327.552 Q24.7914 325.993 22.8817 325.993 Q21.0356 325.993 20.0808 327.584 Q19.0941 329.175 19.0941 332.199 Q19.0941 333.472 19.3806 335.095 Q19.667 336.719 20.3991 339.297 L16.7388 339.297 Q16.1977 336.973 15.9112 334.936 Q15.6248 332.899 15.6248 331.149 Q15.6248 326.565 17.5027 323.892 Q19.3806 321.186 22.5316 321.186 Q24.7277 321.186 26.2555 322.619 Q27.7833 324.051 28.3562 326.661 Z" fill="#000000" fill-rule="evenodd" fill-opacity="1" /><polyline clip-path="url(#clip562)" style="stroke:#009af9; stroke-linecap:butt; stroke-linejoin:round; stroke-width:4; stroke-opacity:1; fill:none" points="
  338.375,1423.18 358.13,1377.9 377.884,1332.79 397.639,1288.01 417.394,1243.72 437.148,1200.08 456.903,1157.25 476.658,1115.35 496.412,1074.53 516.167,1034.89 
  535.922,996.558 555.676,959.614 575.431,924.144 595.186,890.215 614.94,857.878 634.695,827.174 654.449,798.127 674.204,770.75 693.959,745.042 713.713,720.99 
  733.468,698.571 753.223,677.75 772.977,658.487 792.732,640.729 812.487,624.419 832.241,609.495 851.996,595.89 871.75,583.533 891.505,572.35 911.26,562.268 
  931.014,553.211 950.769,545.106 970.524,537.88 990.278,531.46 1010.03,525.778 1029.79,520.767 1049.54,516.365 1069.3,512.512 1089.05,509.152 1108.81,506.233 
  1128.56,503.706 1148.32,501.527 1168.07,499.654 1187.82,498.051 1207.58,496.683 1227.33,495.521 1247.09,494.538 1266.84,493.708 1286.6,493.01 1306.35,492.426 
  1326.11,491.939 1345.86,491.535 1365.62,491.199 1385.37,490.923 1405.13,490.696 1424.88,490.509 1444.64,490.358 1464.39,490.234 1484.14,490.134 1503.9,490.053 
  1523.65,489.989 1543.41,489.937 1563.16,489.895 1582.92,489.862 1602.67,489.836 1622.43,489.816 1642.18,489.799 1661.94,489.787 1681.69,489.777 1701.45,489.769 
  1721.2,489.763 1740.95,489.759 1760.71,489.755 1780.46,489.752 1800.22,489.75 1819.97,489.749 1839.73,489.747 1859.48,489.747 1879.24,489.746 1898.99,489.745 
  1918.75,489.745 1938.5,489.745 1958.26,489.744 1978.01,489.744 1997.77,489.744 2017.52,489.744 2037.27,489.744 2057.03,489.744 2076.78,489.744 2096.54,489.744 
  2116.29,489.744 2136.05,489.744 2155.8,489.744 2175.56,489.744 2195.31,489.744 2215.07,489.744 2234.82,489.744 2254.58,489.744 2274.33,489.744 2294.08,489.744 
  
  "/>
<polyline clip-path="url(#clip562)" style="stroke:#e26f46; stroke-linecap:butt; stroke-linejoin:round; stroke-width:4; stroke-opacity:1; fill:none" points="
  338.375,1423.18 358.13,1377.87 377.884,1332.56 397.639,1287.25 417.394,1241.95 437.148,1196.64 456.903,1151.33 476.658,1106.02 496.412,1060.71 516.167,1015.4 
  535.922,970.096 555.676,924.788 575.431,879.48 595.186,834.171 614.94,788.863 634.695,743.555 654.449,698.246 674.204,652.938 693.959,607.63 713.713,562.321 
  733.468,517.013 753.223,471.705 772.977,426.396 792.732,381.088 812.487,335.78 832.241,290.471 851.996,245.163 871.75,199.855 891.505,154.546 911.26,109.238 
  931.014,63.9297 950.769,18.6213 970.524,-26.687 990.278,-71.9953 1010.03,-117.304 1029.79,-162.612 1049.54,-207.92 1069.3,-253.229 1089.05,-298.537 1108.81,-343.845 
  1128.56,-389.154 1148.32,-434.462 1168.07,-479.77 1187.82,-525.079 1207.58,-570.387 1227.33,-615.695 1247.09,-661.004 1266.84,-706.312 1286.6,-751.62 1306.35,-796.929 
  1326.11,-842.237 1345.86,-887.545 1365.62,-932.854 1385.37,-978.162 1405.13,-1023.47 1424.88,-1068.78 1444.64,-1114.09 1464.39,-1159.4 1484.14,-1204.7 1503.9,-1250.01 
  1523.65,-1295.32 1543.41,-1340.63 1563.16,-1385.94 1582.92,-1431.25 1602.67,-1476.55 1622.43,-1521.86 1642.18,-1567.17 1661.94,-1612.48 1681.69,-1657.79 1701.45,-1703.1 
  1721.2,-1748.4 1740.95,-1793.71 1760.71,-1839.02 1780.46,-1884.33 1800.22,-1929.64 1819.97,-1974.95 1839.73,-2020.25 1859.48,-2065.56 1879.24,-2110.87 1898.99,-2156.18 
  1918.75,-2201.49 1938.5,-2246.8 1958.26,-2292.1 1978.01,-2337.41 1997.77,-2382.72 2017.52,-2428.03 2037.27,-2473.34 2057.03,-2518.65 2076.78,-2563.95 2096.54,-2609.26 
  2116.29,-2654.57 2136.05,-2699.88 2155.8,-2745.19 2175.56,-2790.5 2195.31,-2835.8 2215.07,-2881.11 2234.82,-2926.42 2254.58,-2971.73 2274.33,-3017.04 2294.08,-3062.35 
  
  "/>
<polyline clip-path="url(#clip562)" style="stroke:#3da44d; stroke-linecap:butt; stroke-linejoin:round; stroke-width:4; stroke-opacity:1; fill:none" points="
  338.375,489.744 2294.08,489.744 
  "/>
<path clip-path="url(#clip560)" d="
M1537.92 300.469 L2283.65 300.469 L2283.65 93.1086 L1537.92 93.1086  Z
  " fill="#ffffff" fill-rule="evenodd" fill-opacity="1"/>
<polyline clip-path="url(#clip560)" style="stroke:#000000; stroke-linecap:butt; stroke-linejoin:round; stroke-width:4; stroke-opacity:1; fill:none" points="
  1537.92,300.469 2283.65,300.469 2283.65,93.1086 1537.92,93.1086 1537.92,300.469 
  "/>
<polyline clip-path="url(#clip560)" style="stroke:#009af9; stroke-linecap:butt; stroke-linejoin:round; stroke-width:4; stroke-opacity:1; fill:none" points="
  1560.96,144.949 1699.16,144.949 
  "/>
<path clip-path="url(#clip560)" d="M1722.2 127.669 L1726.87 127.669 L1726.87 162.229 L1722.2 162.229 L1722.2 127.669 Z" fill="#000000" fill-rule="evenodd" fill-opacity="1" /><path clip-path="url(#clip560)" d="M1757.54 146.581 L1757.54 162.229 L1753.28 162.229 L1753.28 146.719 Q1753.28 143.039 1751.85 141.21 Q1750.41 139.382 1747.54 139.382 Q1744.09 139.382 1742.1 141.581 Q1740.11 143.78 1740.11 147.576 L1740.11 162.229 L1735.83 162.229 L1735.83 136.303 L1740.11 136.303 L1740.11 140.331 Q1741.64 137.993 1743.7 136.835 Q1745.78 135.678 1748.49 135.678 Q1752.96 135.678 1755.25 138.456 Q1757.54 141.21 1757.54 146.581 Z" fill="#000000" fill-rule="evenodd" fill-opacity="1" /><path clip-path="url(#clip560)" d="M1770.25 128.942 L1770.25 136.303 L1779.02 136.303 L1779.02 139.613 L1770.25 139.613 L1770.25 153.687 Q1770.25 156.858 1771.11 157.761 Q1771.99 158.664 1774.65 158.664 L1779.02 158.664 L1779.02 162.229 L1774.65 162.229 Q1769.72 162.229 1767.84 160.4 Q1765.97 158.548 1765.97 153.687 L1765.97 139.613 L1762.84 139.613 L1762.84 136.303 L1765.97 136.303 L1765.97 128.942 L1770.25 128.942 Z" fill="#000000" fill-rule="evenodd" fill-opacity="1" /><path clip-path="url(#clip560)" d="M1806.8 148.201 L1806.8 150.284 L1787.22 150.284 Q1787.5 154.682 1789.86 156.997 Q1792.24 159.289 1796.48 159.289 Q1798.93 159.289 1801.22 158.687 Q1803.54 158.085 1805.81 156.881 L1805.81 160.909 Q1803.51 161.881 1801.11 162.391 Q1798.7 162.9 1796.22 162.9 Q1790.02 162.9 1786.39 159.289 Q1782.77 155.678 1782.77 149.52 Q1782.77 143.155 1786.2 139.428 Q1789.65 135.678 1795.48 135.678 Q1800.71 135.678 1803.75 139.057 Q1806.8 142.414 1806.8 148.201 M1802.54 146.951 Q1802.5 143.456 1800.57 141.372 Q1798.68 139.289 1795.53 139.289 Q1791.96 139.289 1789.81 141.303 Q1787.68 143.317 1787.36 146.974 L1802.54 146.951 Z" fill="#000000" fill-rule="evenodd" fill-opacity="1" /><path clip-path="url(#clip560)" d="M1830.85 148.965 Q1830.85 144.335 1828.93 141.789 Q1827.03 139.243 1823.58 139.243 Q1820.16 139.243 1818.24 141.789 Q1816.34 144.335 1816.34 148.965 Q1816.34 153.571 1818.24 156.118 Q1820.16 158.664 1823.58 158.664 Q1827.03 158.664 1828.93 156.118 Q1830.85 153.571 1830.85 148.965 M1835.11 159.011 Q1835.11 165.631 1832.17 168.849 Q1829.23 172.09 1823.17 172.09 Q1820.92 172.09 1818.93 171.742 Q1816.94 171.418 1815.07 170.724 L1815.07 166.58 Q1816.94 167.599 1818.77 168.085 Q1820.6 168.571 1822.5 168.571 Q1826.69 168.571 1828.77 166.372 Q1830.85 164.196 1830.85 159.775 L1830.85 157.668 Q1829.53 159.96 1827.47 161.094 Q1825.41 162.229 1822.54 162.229 Q1817.77 162.229 1814.86 158.594 Q1811.94 154.96 1811.94 148.965 Q1811.94 142.946 1814.86 139.312 Q1817.77 135.678 1822.54 135.678 Q1825.41 135.678 1827.47 136.812 Q1829.53 137.946 1830.85 140.238 L1830.85 136.303 L1835.11 136.303 L1835.11 159.011 Z" fill="#000000" fill-rule="evenodd" fill-opacity="1" /><path clip-path="url(#clip560)" d="M1858.91 140.284 Q1858.19 139.868 1857.33 139.682 Q1856.5 139.474 1855.48 139.474 Q1851.87 139.474 1849.93 141.835 Q1848.01 144.173 1848.01 148.571 L1848.01 162.229 L1843.72 162.229 L1843.72 136.303 L1848.01 136.303 L1848.01 140.331 Q1849.35 137.969 1851.5 136.835 Q1853.65 135.678 1856.73 135.678 Q1857.17 135.678 1857.7 135.747 Q1858.24 135.794 1858.88 135.909 L1858.91 140.284 Z" fill="#000000" fill-rule="evenodd" fill-opacity="1" /><path clip-path="url(#clip560)" d="M1875.16 149.196 Q1870 149.196 1868 150.377 Q1866.01 151.557 1866.01 154.405 Q1866.01 156.673 1867.5 158.016 Q1869 159.335 1871.57 159.335 Q1875.11 159.335 1877.24 156.835 Q1879.39 154.312 1879.39 150.145 L1879.39 149.196 L1875.16 149.196 M1883.65 147.437 L1883.65 162.229 L1879.39 162.229 L1879.39 158.293 Q1877.94 160.655 1875.76 161.789 Q1873.58 162.9 1870.44 162.9 Q1866.45 162.9 1864.09 160.678 Q1861.76 158.432 1861.76 154.682 Q1861.76 150.307 1864.67 148.085 Q1867.61 145.863 1873.42 145.863 L1879.39 145.863 L1879.39 145.446 Q1879.39 142.507 1877.45 140.909 Q1875.53 139.289 1872.03 139.289 Q1869.81 139.289 1867.7 139.821 Q1865.6 140.354 1863.65 141.419 L1863.65 137.483 Q1865.99 136.581 1868.19 136.141 Q1870.39 135.678 1872.47 135.678 Q1878.1 135.678 1880.88 138.594 Q1883.65 141.511 1883.65 147.437 Z" fill="#000000" fill-rule="evenodd" fill-opacity="1" /><path clip-path="url(#clip560)" d="M1896.64 128.942 L1896.64 136.303 L1905.41 136.303 L1905.41 139.613 L1896.64 139.613 L1896.64 153.687 Q1896.64 156.858 1897.5 157.761 Q1898.38 158.664 1901.04 158.664 L1905.41 158.664 L1905.41 162.229 L1901.04 162.229 Q1896.11 162.229 1894.23 160.4 Q1892.36 158.548 1892.36 153.687 L1892.36 139.613 L1889.23 139.613 L1889.23 136.303 L1892.36 136.303 L1892.36 128.942 L1896.64 128.942 Z" fill="#000000" fill-rule="evenodd" fill-opacity="1" /><path clip-path="url(#clip560)" d="M1933.19 148.201 L1933.19 150.284 L1913.61 150.284 Q1913.88 154.682 1916.25 156.997 Q1918.63 159.289 1922.87 159.289 Q1925.32 159.289 1927.61 158.687 Q1929.93 158.085 1932.19 156.881 L1932.19 160.909 Q1929.9 161.881 1927.5 162.391 Q1925.09 162.9 1922.61 162.9 Q1916.41 162.9 1912.77 159.289 Q1909.16 155.678 1909.16 149.52 Q1909.16 143.155 1912.59 139.428 Q1916.04 135.678 1921.87 135.678 Q1927.1 135.678 1930.13 139.057 Q1933.19 142.414 1933.19 148.201 M1928.93 146.951 Q1928.88 143.456 1926.96 141.372 Q1925.06 139.289 1921.92 139.289 Q1918.35 139.289 1916.2 141.303 Q1914.07 143.317 1913.75 146.974 L1928.93 146.951 Z" fill="#000000" fill-rule="evenodd" fill-opacity="1" /><path clip-path="url(#clip560)" d="M1957.24 140.238 L1957.24 126.21 L1961.5 126.21 L1961.5 162.229 L1957.24 162.229 L1957.24 158.34 Q1955.9 160.655 1953.84 161.789 Q1951.8 162.9 1948.93 162.9 Q1944.23 162.9 1941.27 159.15 Q1938.33 155.4 1938.33 149.289 Q1938.33 143.178 1941.27 139.428 Q1944.23 135.678 1948.93 135.678 Q1951.8 135.678 1953.84 136.812 Q1955.9 137.923 1957.24 140.238 M1942.73 149.289 Q1942.73 153.988 1944.65 156.673 Q1946.59 159.335 1949.97 159.335 Q1953.35 159.335 1955.3 156.673 Q1957.24 153.988 1957.24 149.289 Q1957.24 144.59 1955.3 141.928 Q1953.35 139.243 1949.97 139.243 Q1946.59 139.243 1944.65 141.928 Q1942.73 144.59 1942.73 149.289 Z" fill="#000000" fill-rule="evenodd" fill-opacity="1" /><path clip-path="url(#clip560)" d="M1989.46 158.34 L1989.46 172.09 L1985.18 172.09 L1985.18 136.303 L1989.46 136.303 L1989.46 140.238 Q1990.81 137.923 1992.84 136.812 Q1994.9 135.678 1997.75 135.678 Q2002.47 135.678 2005.41 139.428 Q2008.37 143.178 2008.37 149.289 Q2008.37 155.4 2005.41 159.15 Q2002.47 162.9 1997.75 162.9 Q1994.9 162.9 1992.84 161.789 Q1990.81 160.655 1989.46 158.34 M2003.95 149.289 Q2003.95 144.59 2002.01 141.928 Q2000.09 139.243 1996.71 139.243 Q1993.33 139.243 1991.38 141.928 Q1989.46 144.59 1989.46 149.289 Q1989.46 153.988 1991.38 156.673 Q1993.33 159.335 1996.71 159.335 Q2000.09 159.335 2002.01 156.673 Q2003.95 153.988 2003.95 149.289 Z" fill="#000000" fill-rule="evenodd" fill-opacity="1" /><path clip-path="url(#clip560)" d="M2014.99 151.997 L2014.99 136.303 L2019.25 136.303 L2019.25 151.835 Q2019.25 155.516 2020.69 157.368 Q2022.12 159.196 2024.99 159.196 Q2028.44 159.196 2030.43 156.997 Q2032.45 154.798 2032.45 151.002 L2032.45 136.303 L2036.71 136.303 L2036.71 162.229 L2032.45 162.229 L2032.45 158.247 Q2030.9 160.608 2028.84 161.766 Q2026.8 162.9 2024.09 162.9 Q2019.62 162.9 2017.31 160.122 Q2014.99 157.344 2014.99 151.997 M2025.71 135.678 L2025.71 135.678 Z" fill="#000000" fill-rule="evenodd" fill-opacity="1" /><path clip-path="url(#clip560)" d="M2058.61 126.21 L2058.61 129.752 L2054.53 129.752 Q2052.24 129.752 2051.34 130.678 Q2050.46 131.604 2050.46 134.011 L2050.46 136.303 L2057.47 136.303 L2057.47 139.613 L2050.46 139.613 L2050.46 162.229 L2046.18 162.229 L2046.18 139.613 L2042.1 139.613 L2042.1 136.303 L2046.18 136.303 L2046.18 134.497 Q2046.18 130.169 2048.19 128.201 Q2050.2 126.21 2054.58 126.21 L2058.61 126.21 Z" fill="#000000" fill-rule="evenodd" fill-opacity="1" /><path clip-path="url(#clip560)" d="M2075.3 126.21 L2075.3 129.752 L2071.22 129.752 Q2068.93 129.752 2068.03 130.678 Q2067.15 131.604 2067.15 134.011 L2067.15 136.303 L2074.16 136.303 L2074.16 139.613 L2067.15 139.613 L2067.15 162.229 L2062.87 162.229 L2062.87 139.613 L2058.79 139.613 L2058.79 136.303 L2062.87 136.303 L2062.87 134.497 Q2062.87 130.169 2064.88 128.201 Q2066.89 126.21 2071.27 126.21 L2075.3 126.21 Z" fill="#000000" fill-rule="evenodd" fill-opacity="1" /><path clip-path="url(#clip560)" d="M2114.11 141.28 Q2115.71 138.409 2117.93 137.044 Q2120.16 135.678 2123.17 135.678 Q2127.22 135.678 2129.42 138.525 Q2131.61 141.349 2131.61 146.581 L2131.61 162.229 L2127.33 162.229 L2127.33 146.719 Q2127.33 142.993 2126.01 141.187 Q2124.69 139.382 2121.99 139.382 Q2118.67 139.382 2116.75 141.581 Q2114.83 143.78 2114.83 147.576 L2114.83 162.229 L2110.55 162.229 L2110.55 146.719 Q2110.55 142.969 2109.23 141.187 Q2107.91 139.382 2105.16 139.382 Q2101.89 139.382 2099.97 141.604 Q2098.05 143.803 2098.05 147.576 L2098.05 162.229 L2093.77 162.229 L2093.77 136.303 L2098.05 136.303 L2098.05 140.331 Q2099.51 137.946 2101.55 136.812 Q2103.58 135.678 2106.38 135.678 Q2109.21 135.678 2111.17 137.113 Q2113.17 138.548 2114.11 141.28 Z" fill="#000000" fill-rule="evenodd" fill-opacity="1" /><path clip-path="url(#clip560)" d="M2150.16 139.289 Q2146.73 139.289 2144.74 141.974 Q2142.75 144.636 2142.75 149.289 Q2142.75 153.942 2144.72 156.627 Q2146.71 159.289 2150.16 159.289 Q2153.56 159.289 2155.55 156.604 Q2157.54 153.918 2157.54 149.289 Q2157.54 144.682 2155.55 141.997 Q2153.56 139.289 2150.16 139.289 M2150.16 135.678 Q2155.71 135.678 2158.88 139.289 Q2162.05 142.9 2162.05 149.289 Q2162.05 155.655 2158.88 159.289 Q2155.71 162.9 2150.16 162.9 Q2144.58 162.9 2141.41 159.289 Q2138.26 155.655 2138.26 149.289 Q2138.26 142.9 2141.41 139.289 Q2144.58 135.678 2150.16 135.678 Z" fill="#000000" fill-rule="evenodd" fill-opacity="1" /><path clip-path="url(#clip560)" d="M2186.17 140.238 L2186.17 126.21 L2190.43 126.21 L2190.43 162.229 L2186.17 162.229 L2186.17 158.34 Q2184.83 160.655 2182.77 161.789 Q2180.73 162.9 2177.86 162.9 Q2173.17 162.9 2170.2 159.15 Q2167.26 155.4 2167.26 149.289 Q2167.26 143.178 2170.2 139.428 Q2173.17 135.678 2177.86 135.678 Q2180.73 135.678 2182.77 136.812 Q2184.83 137.923 2186.17 140.238 M2171.66 149.289 Q2171.66 153.988 2173.58 156.673 Q2175.53 159.335 2178.91 159.335 Q2182.29 159.335 2184.23 156.673 Q2186.17 153.988 2186.17 149.289 Q2186.17 144.59 2184.23 141.928 Q2182.29 139.243 2178.91 139.243 Q2175.53 139.243 2173.58 141.928 Q2171.66 144.59 2171.66 149.289 Z" fill="#000000" fill-rule="evenodd" fill-opacity="1" /><path clip-path="url(#clip560)" d="M2221.38 148.201 L2221.38 150.284 L2201.8 150.284 Q2202.08 154.682 2204.44 156.997 Q2206.82 159.289 2211.06 159.289 Q2213.51 159.289 2215.8 158.687 Q2218.12 158.085 2220.39 156.881 L2220.39 160.909 Q2218.1 161.881 2215.69 162.391 Q2213.28 162.9 2210.8 162.9 Q2204.6 162.9 2200.97 159.289 Q2197.36 155.678 2197.36 149.52 Q2197.36 143.155 2200.78 139.428 Q2204.23 135.678 2210.06 135.678 Q2215.29 135.678 2218.33 139.057 Q2221.38 142.414 2221.38 148.201 M2217.12 146.951 Q2217.08 143.456 2215.16 141.372 Q2213.26 139.289 2210.11 139.289 Q2206.54 139.289 2204.39 141.303 Q2202.26 143.317 2201.94 146.974 L2217.12 146.951 Z" fill="#000000" fill-rule="evenodd" fill-opacity="1" /><path clip-path="url(#clip560)" d="M2228.37 126.21 L2232.63 126.21 L2232.63 162.229 L2228.37 162.229 L2228.37 126.21 Z" fill="#000000" fill-rule="evenodd" fill-opacity="1" /><polyline clip-path="url(#clip560)" style="stroke:#e26f46; stroke-linecap:butt; stroke-linejoin:round; stroke-width:4; stroke-opacity:1; fill:none" points="
  1560.96,196.789 1699.16,196.789 
  "/>
<path clip-path="url(#clip560)" d="M1726.87 183.351 L1726.87 196.337 L1732.75 196.337 Q1736.01 196.337 1737.8 194.647 Q1739.58 192.958 1739.58 189.833 Q1739.58 186.731 1737.8 185.041 Q1736.01 183.351 1732.75 183.351 L1726.87 183.351 M1722.2 179.509 L1732.75 179.509 Q1738.56 179.509 1741.52 182.147 Q1744.51 184.763 1744.51 189.833 Q1744.51 194.948 1741.52 197.564 Q1738.56 200.18 1732.75 200.18 L1726.87 200.18 L1726.87 214.069 L1722.2 214.069 L1722.2 179.509 Z" fill="#000000" fill-rule="evenodd" fill-opacity="1" /><path clip-path="url(#clip560)" d="M1749.33 203.837 L1749.33 188.143 L1753.58 188.143 L1753.58 203.675 Q1753.58 207.356 1755.02 209.208 Q1756.45 211.036 1759.33 211.036 Q1762.77 211.036 1764.76 208.837 Q1766.78 206.638 1766.78 202.842 L1766.78 188.143 L1771.04 188.143 L1771.04 214.069 L1766.78 214.069 L1766.78 210.087 Q1765.23 212.448 1763.17 213.606 Q1761.13 214.74 1758.42 214.74 Q1753.95 214.74 1751.64 211.962 Q1749.33 209.184 1749.33 203.837 M1760.04 187.518 L1760.04 187.518 Z" fill="#000000" fill-rule="evenodd" fill-opacity="1" /><path clip-path="url(#clip560)" d="M1792.94 178.05 L1792.94 181.592 L1788.86 181.592 Q1786.57 181.592 1785.67 182.518 Q1784.79 183.444 1784.79 185.851 L1784.79 188.143 L1791.8 188.143 L1791.8 191.453 L1784.79 191.453 L1784.79 214.069 L1780.51 214.069 L1780.51 191.453 L1776.43 191.453 L1776.43 188.143 L1780.51 188.143 L1780.51 186.337 Q1780.51 182.009 1782.52 180.041 Q1784.53 178.05 1788.91 178.05 L1792.94 178.05 Z" fill="#000000" fill-rule="evenodd" fill-opacity="1" /><path clip-path="url(#clip560)" d="M1809.63 178.05 L1809.63 181.592 L1805.55 181.592 Q1803.26 181.592 1802.36 182.518 Q1801.48 183.444 1801.48 185.851 L1801.48 188.143 L1808.49 188.143 L1808.49 191.453 L1801.48 191.453 L1801.48 214.069 L1797.2 214.069 L1797.2 191.453 L1793.12 191.453 L1793.12 188.143 L1797.2 188.143 L1797.2 186.337 Q1797.2 182.009 1799.21 180.041 Q1801.22 178.05 1805.6 178.05 L1809.63 178.05 Z" fill="#000000" fill-rule="evenodd" fill-opacity="1" /><path clip-path="url(#clip560)" d="M1848.44 193.12 Q1850.04 190.249 1852.26 188.884 Q1854.49 187.518 1857.5 187.518 Q1861.55 187.518 1863.75 190.365 Q1865.94 193.189 1865.94 198.421 L1865.94 214.069 L1861.66 214.069 L1861.66 198.559 Q1861.66 194.833 1860.34 193.027 Q1859.02 191.222 1856.32 191.222 Q1853.01 191.222 1851.08 193.421 Q1849.16 195.62 1849.16 199.416 L1849.16 214.069 L1844.88 214.069 L1844.88 198.559 Q1844.88 194.809 1843.56 193.027 Q1842.24 191.222 1839.49 191.222 Q1836.22 191.222 1834.3 193.444 Q1832.38 195.643 1832.38 199.416 L1832.38 214.069 L1828.1 214.069 L1828.1 188.143 L1832.38 188.143 L1832.38 192.171 Q1833.84 189.786 1835.88 188.652 Q1837.91 187.518 1840.71 187.518 Q1843.54 187.518 1845.51 188.953 Q1847.5 190.388 1848.44 193.12 Z" fill="#000000" fill-rule="evenodd" fill-opacity="1" /><path clip-path="url(#clip560)" d="M1884.49 191.129 Q1881.06 191.129 1879.07 193.814 Q1877.08 196.476 1877.08 201.129 Q1877.08 205.782 1879.05 208.467 Q1881.04 211.129 1884.49 211.129 Q1887.89 211.129 1889.88 208.444 Q1891.87 205.758 1891.87 201.129 Q1891.87 196.522 1889.88 193.837 Q1887.89 191.129 1884.49 191.129 M1884.49 187.518 Q1890.04 187.518 1893.21 191.129 Q1896.38 194.74 1896.38 201.129 Q1896.38 207.495 1893.21 211.129 Q1890.04 214.74 1884.49 214.74 Q1878.91 214.74 1875.74 211.129 Q1872.59 207.495 1872.59 201.129 Q1872.59 194.74 1875.74 191.129 Q1878.91 187.518 1884.49 187.518 Z" fill="#000000" fill-rule="evenodd" fill-opacity="1" /><path clip-path="url(#clip560)" d="M1920.5 192.078 L1920.5 178.05 L1924.76 178.05 L1924.76 214.069 L1920.5 214.069 L1920.5 210.18 Q1919.16 212.495 1917.1 213.629 Q1915.06 214.74 1912.19 214.74 Q1907.5 214.74 1904.53 210.99 Q1901.59 207.24 1901.59 201.129 Q1901.59 195.018 1904.53 191.268 Q1907.5 187.518 1912.19 187.518 Q1915.06 187.518 1917.1 188.652 Q1919.16 189.763 1920.5 192.078 M1905.99 201.129 Q1905.99 205.828 1907.91 208.513 Q1909.86 211.175 1913.24 211.175 Q1916.62 211.175 1918.56 208.513 Q1920.5 205.828 1920.5 201.129 Q1920.5 196.43 1918.56 193.768 Q1916.62 191.083 1913.24 191.083 Q1909.86 191.083 1907.91 193.768 Q1905.99 196.43 1905.99 201.129 Z" fill="#000000" fill-rule="evenodd" fill-opacity="1" /><path clip-path="url(#clip560)" d="M1955.71 200.041 L1955.71 202.124 L1936.13 202.124 Q1936.41 206.522 1938.77 208.837 Q1941.15 211.129 1945.39 211.129 Q1947.84 211.129 1950.13 210.527 Q1952.45 209.925 1954.72 208.721 L1954.72 212.749 Q1952.43 213.721 1950.02 214.231 Q1947.61 214.74 1945.13 214.74 Q1938.93 214.74 1935.3 211.129 Q1931.69 207.518 1931.69 201.36 Q1931.69 194.995 1935.11 191.268 Q1938.56 187.518 1944.39 187.518 Q1949.62 187.518 1952.66 190.897 Q1955.71 194.254 1955.71 200.041 M1951.45 198.791 Q1951.41 195.296 1949.49 193.212 Q1947.59 191.129 1944.44 191.129 Q1940.87 191.129 1938.72 193.143 Q1936.59 195.157 1936.27 198.814 L1951.45 198.791 Z" fill="#000000" fill-rule="evenodd" fill-opacity="1" /><path clip-path="url(#clip560)" d="M1962.7 178.05 L1966.96 178.05 L1966.96 214.069 L1962.7 214.069 L1962.7 178.05 Z" fill="#000000" fill-rule="evenodd" fill-opacity="1" /><path clip-path="url(#clip560)" d="M2001.18 178.097 Q1998.07 183.421 1996.57 188.629 Q1995.06 193.837 1995.06 199.184 Q1995.06 204.532 1996.57 209.786 Q1998.1 215.018 2001.18 220.319 L1997.47 220.319 Q1994 214.879 1992.26 209.624 Q1990.55 204.37 1990.55 199.184 Q1990.55 194.022 1992.26 188.791 Q1993.98 183.56 1997.47 178.097 L2001.18 178.097 Z" fill="#000000" fill-rule="evenodd" fill-opacity="1" /><path clip-path="url(#clip560)" d="M2021.18 184.115 L2011.68 210.18 L2030.69 210.18 L2021.18 184.115 M2005.34 214.069 L2018.54 179.509 L2023.84 179.509 L2037.01 214.069 L2005.34 214.069 Z" fill="#000000" fill-rule="evenodd" fill-opacity="1" /><path clip-path="url(#clip560)" d="M2046.08 180.782 L2046.08 188.143 L2054.86 188.143 L2054.86 191.453 L2046.08 191.453 L2046.08 205.527 Q2046.08 208.698 2046.94 209.601 Q2047.82 210.504 2050.48 210.504 L2054.86 210.504 L2054.86 214.069 L2050.48 214.069 Q2045.55 214.069 2043.68 212.24 Q2041.8 210.388 2041.8 205.527 L2041.8 191.453 L2038.68 191.453 L2038.68 188.143 L2041.8 188.143 L2041.8 180.782 L2046.08 180.782 Z" fill="#000000" fill-rule="evenodd" fill-opacity="1" /><path clip-path="url(#clip560)" d="M2108.47 198.166 L2108.47 200.249 L2099.37 209.346 L2096.59 206.569 L2101.99 201.175 L2073.77 201.175 L2073.77 197.24 L2101.99 197.24 L2096.59 191.847 L2099.37 189.069 L2108.47 198.166 Z" fill="#000000" fill-rule="evenodd" fill-opacity="1" /><path clip-path="url(#clip560)" d="M2140.92 182.587 Q2137.31 182.587 2135.48 186.152 Q2133.67 189.694 2133.67 196.823 Q2133.67 203.93 2135.48 207.495 Q2137.31 211.036 2140.92 211.036 Q2144.55 211.036 2146.36 207.495 Q2148.19 203.93 2148.19 196.823 Q2148.19 189.694 2146.36 186.152 Q2144.55 182.587 2140.92 182.587 M2140.92 178.884 Q2146.73 178.884 2149.79 183.49 Q2152.86 188.073 2152.86 196.823 Q2152.86 205.55 2149.79 210.157 Q2146.73 214.74 2140.92 214.74 Q2135.11 214.74 2132.03 210.157 Q2128.98 205.55 2128.98 196.823 Q2128.98 188.073 2132.03 183.49 Q2135.11 178.884 2140.92 178.884 Z" fill="#000000" fill-rule="evenodd" fill-opacity="1" /><path clip-path="url(#clip560)" d="M2159.81 178.097 L2163.51 178.097 Q2166.98 183.56 2168.7 188.791 Q2170.43 194.022 2170.43 199.184 Q2170.43 204.37 2168.7 209.624 Q2166.98 214.879 2163.51 220.319 L2159.81 220.319 Q2162.89 215.018 2164.39 209.786 Q2165.92 204.532 2165.92 199.184 Q2165.92 193.837 2164.39 188.629 Q2162.89 183.421 2159.81 178.097 Z" fill="#000000" fill-rule="evenodd" fill-opacity="1" /><polyline clip-path="url(#clip560)" style="stroke:#3da44d; stroke-linecap:butt; stroke-linejoin:round; stroke-width:4; stroke-opacity:1; fill:none" points="
  1560.96,248.629 1699.16,248.629 
  "/>
<path clip-path="url(#clip560)" d="M1726.48 262.02 L1726.48 275.77 L1722.2 275.77 L1722.2 239.983 L1726.48 239.983 L1726.48 243.918 Q1727.82 241.603 1729.86 240.492 Q1731.92 239.358 1734.76 239.358 Q1739.49 239.358 1742.43 243.108 Q1745.39 246.858 1745.39 252.969 Q1745.39 259.08 1742.43 262.83 Q1739.49 266.58 1734.76 266.58 Q1731.92 266.58 1729.86 265.469 Q1727.82 264.335 1726.48 262.02 M1740.97 252.969 Q1740.97 248.27 1739.02 245.608 Q1737.1 242.923 1733.72 242.923 Q1730.34 242.923 1728.4 245.608 Q1726.48 248.27 1726.48 252.969 Q1726.48 257.668 1728.4 260.353 Q1730.34 263.015 1733.72 263.015 Q1737.1 263.015 1739.02 260.353 Q1740.97 257.668 1740.97 252.969 Z" fill="#000000" fill-rule="evenodd" fill-opacity="1" /><path clip-path="url(#clip560)" d="M1752.45 229.89 L1756.71 229.89 L1756.71 265.909 L1752.45 265.909 L1752.45 229.89 Z" fill="#000000" fill-rule="evenodd" fill-opacity="1" /><path clip-path="url(#clip560)" d="M1765.18 255.677 L1765.18 239.983 L1769.44 239.983 L1769.44 255.515 Q1769.44 259.196 1770.88 261.048 Q1772.31 262.876 1775.18 262.876 Q1778.63 262.876 1780.62 260.677 Q1782.64 258.478 1782.64 254.682 L1782.64 239.983 L1786.89 239.983 L1786.89 265.909 L1782.64 265.909 L1782.64 261.927 Q1781.08 264.288 1779.02 265.446 Q1776.99 266.58 1774.28 266.58 Q1769.81 266.58 1767.5 263.802 Q1765.18 261.024 1765.18 255.677 M1775.9 239.358 L1775.9 239.358 Z" fill="#000000" fill-rule="evenodd" fill-opacity="1" /><path clip-path="url(#clip560)" d="M1815.85 244.96 Q1817.45 242.089 1819.67 240.724 Q1821.89 239.358 1824.9 239.358 Q1828.95 239.358 1831.15 242.205 Q1833.35 245.029 1833.35 250.261 L1833.35 265.909 L1829.07 265.909 L1829.07 250.399 Q1829.07 246.673 1827.75 244.867 Q1826.43 243.062 1823.72 243.062 Q1820.41 243.062 1818.49 245.261 Q1816.57 247.46 1816.57 251.256 L1816.57 265.909 L1812.29 265.909 L1812.29 250.399 Q1812.29 246.649 1810.97 244.867 Q1809.65 243.062 1806.89 243.062 Q1803.63 243.062 1801.71 245.284 Q1799.79 247.483 1799.79 251.256 L1799.79 265.909 L1795.51 265.909 L1795.51 239.983 L1799.79 239.983 L1799.79 244.011 Q1801.25 241.626 1803.28 240.492 Q1805.32 239.358 1808.12 239.358 Q1810.95 239.358 1812.91 240.793 Q1814.9 242.228 1815.85 244.96 Z" fill="#000000" fill-rule="evenodd" fill-opacity="1" /><path clip-path="url(#clip560)" d="M1864.02 251.881 L1864.02 253.964 L1844.44 253.964 Q1844.72 258.362 1847.08 260.677 Q1849.46 262.969 1853.7 262.969 Q1856.15 262.969 1858.44 262.367 Q1860.76 261.765 1863.03 260.561 L1863.03 264.589 Q1860.74 265.561 1858.33 266.071 Q1855.92 266.58 1853.44 266.58 Q1847.24 266.58 1843.61 262.969 Q1840 259.358 1840 253.2 Q1840 246.835 1843.42 243.108 Q1846.87 239.358 1852.7 239.358 Q1857.94 239.358 1860.97 242.737 Q1864.02 246.094 1864.02 251.881 M1859.76 250.631 Q1859.72 247.136 1857.8 245.052 Q1855.9 242.969 1852.75 242.969 Q1849.19 242.969 1847.03 244.983 Q1844.9 246.997 1844.58 250.654 L1859.76 250.631 Z" fill="#000000" fill-rule="evenodd" fill-opacity="1" /><path clip-path="url(#clip560)" d="M1906.27 244.96 Q1907.87 242.089 1910.09 240.724 Q1912.31 239.358 1915.32 239.358 Q1919.37 239.358 1921.57 242.205 Q1923.77 245.029 1923.77 250.261 L1923.77 265.909 L1919.49 265.909 L1919.49 250.399 Q1919.49 246.673 1918.17 244.867 Q1916.85 243.062 1914.14 243.062 Q1910.83 243.062 1908.91 245.261 Q1906.99 247.46 1906.99 251.256 L1906.99 265.909 L1902.7 265.909 L1902.7 250.399 Q1902.7 246.649 1901.38 244.867 Q1900.07 243.062 1897.31 243.062 Q1894.05 243.062 1892.13 245.284 Q1890.2 247.483 1890.2 251.256 L1890.2 265.909 L1885.92 265.909 L1885.92 239.983 L1890.2 239.983 L1890.2 244.011 Q1891.66 241.626 1893.7 240.492 Q1895.74 239.358 1898.54 239.358 Q1901.36 239.358 1903.33 240.793 Q1905.32 242.228 1906.27 244.96 Z" fill="#000000" fill-rule="evenodd" fill-opacity="1" /><path clip-path="url(#clip560)" d="M1942.31 242.969 Q1938.88 242.969 1936.89 245.654 Q1934.9 248.316 1934.9 252.969 Q1934.9 257.622 1936.87 260.307 Q1938.86 262.969 1942.31 262.969 Q1945.71 262.969 1947.7 260.284 Q1949.69 257.598 1949.69 252.969 Q1949.69 248.362 1947.7 245.677 Q1945.71 242.969 1942.31 242.969 M1942.31 239.358 Q1947.87 239.358 1951.04 242.969 Q1954.21 246.58 1954.21 252.969 Q1954.21 259.335 1951.04 262.969 Q1947.87 266.58 1942.31 266.58 Q1936.73 266.58 1933.56 262.969 Q1930.41 259.335 1930.41 252.969 Q1930.41 246.58 1933.56 242.969 Q1936.73 239.358 1942.31 239.358 Z" fill="#000000" fill-rule="evenodd" fill-opacity="1" /><path clip-path="url(#clip560)" d="M1978.33 243.918 L1978.33 229.89 L1982.59 229.89 L1982.59 265.909 L1978.33 265.909 L1978.33 262.02 Q1976.99 264.335 1974.93 265.469 Q1972.89 266.58 1970.02 266.58 Q1965.32 266.58 1962.36 262.83 Q1959.42 259.08 1959.42 252.969 Q1959.42 246.858 1962.36 243.108 Q1965.32 239.358 1970.02 239.358 Q1972.89 239.358 1974.93 240.492 Q1976.99 241.603 1978.33 243.918 M1963.81 252.969 Q1963.81 257.668 1965.74 260.353 Q1967.68 263.015 1971.06 263.015 Q1974.44 263.015 1976.38 260.353 Q1978.33 257.668 1978.33 252.969 Q1978.33 248.27 1976.38 245.608 Q1974.44 242.923 1971.06 242.923 Q1967.68 242.923 1965.74 245.608 Q1963.81 248.27 1963.81 252.969 Z" fill="#000000" fill-rule="evenodd" fill-opacity="1" /><path clip-path="url(#clip560)" d="M2013.54 251.881 L2013.54 253.964 L1993.95 253.964 Q1994.23 258.362 1996.59 260.677 Q1998.98 262.969 2003.21 262.969 Q2005.67 262.969 2007.96 262.367 Q2010.27 261.765 2012.54 260.561 L2012.54 264.589 Q2010.25 265.561 2007.84 266.071 Q2005.43 266.58 2002.96 266.58 Q1996.75 266.58 1993.12 262.969 Q1989.51 259.358 1989.51 253.2 Q1989.51 246.835 1992.93 243.108 Q1996.38 239.358 2002.22 239.358 Q2007.45 239.358 2010.48 242.737 Q2013.54 246.094 2013.54 251.881 M2009.28 250.631 Q2009.23 247.136 2007.31 245.052 Q2005.41 242.969 2002.26 242.969 Q1998.7 242.969 1996.55 244.983 Q1994.42 246.997 1994.09 250.654 L2009.28 250.631 Z" fill="#000000" fill-rule="evenodd" fill-opacity="1" /><path clip-path="url(#clip560)" d="M2020.53 229.89 L2024.79 229.89 L2024.79 265.909 L2020.53 265.909 L2020.53 229.89 Z" fill="#000000" fill-rule="evenodd" fill-opacity="1" /><path clip-path="url(#clip560)" d="M2059 229.937 Q2055.9 235.261 2054.39 240.469 Q2052.89 245.677 2052.89 251.024 Q2052.89 256.372 2054.39 261.626 Q2055.92 266.858 2059 272.159 L2055.3 272.159 Q2051.82 266.719 2050.09 261.464 Q2048.37 256.21 2048.37 251.024 Q2048.37 245.862 2050.09 240.631 Q2051.8 235.4 2055.3 229.937 L2059 229.937 Z" fill="#000000" fill-rule="evenodd" fill-opacity="1" /><path clip-path="url(#clip560)" d="M2079 235.955 L2069.51 262.02 L2088.51 262.02 L2079 235.955 M2063.17 265.909 L2076.36 231.349 L2081.66 231.349 L2094.83 265.909 L2063.17 265.909 Z" fill="#000000" fill-rule="evenodd" fill-opacity="1" /><path clip-path="url(#clip560)" d="M2103.91 232.622 L2103.91 239.983 L2112.68 239.983 L2112.68 243.293 L2103.91 243.293 L2103.91 257.367 Q2103.91 260.538 2104.76 261.441 Q2105.64 262.344 2108.3 262.344 L2112.68 262.344 L2112.68 265.909 L2108.3 265.909 Q2103.37 265.909 2101.5 264.08 Q2099.62 262.228 2099.62 257.367 L2099.62 243.293 L2096.5 243.293 L2096.5 239.983 L2099.62 239.983 L2099.62 232.622 L2103.91 232.622 Z" fill="#000000" fill-rule="evenodd" fill-opacity="1" /><path clip-path="url(#clip560)" d="M2166.29 250.006 L2166.29 252.089 L2157.19 261.186 L2154.42 258.409 L2159.81 253.015 L2131.59 253.015 L2131.59 249.08 L2159.81 249.08 L2154.42 243.687 L2157.19 240.909 L2166.29 250.006 Z" fill="#000000" fill-rule="evenodd" fill-opacity="1" /><path clip-path="url(#clip560)" d="M2205.27 257.83 Q2204.55 256.997 2203.42 255.052 Q2201.87 257.83 2200.5 259.057 Q2198.79 260.538 2196.13 260.538 Q2193 260.538 2190.94 258.2 Q2188.77 255.747 2188.77 251.696 Q2188.77 247.807 2190.94 245.168 Q2192.89 242.83 2196.17 242.83 Q2197.86 242.83 2199.11 243.524 Q2200.57 244.288 2201.57 245.608 Q2202.49 246.788 2203.42 248.386 Q2204.97 245.608 2206.34 244.381 Q2208.05 242.899 2210.71 242.899 Q2213.84 242.899 2215.9 245.237 Q2218.07 247.691 2218.07 251.742 Q2218.07 255.631 2215.9 258.27 Q2213.95 260.608 2210.67 260.608 Q2208.98 260.608 2207.73 259.913 Q2206.48 259.288 2205.27 257.83 M2195.87 257.506 Q2199.69 257.506 2201.98 251.95 Q2199.04 245.886 2195.87 245.886 Q2193.56 245.886 2192.38 247.552 Q2191.11 249.335 2191.11 251.696 Q2191.11 254.288 2192.38 255.886 Q2193.67 257.506 2195.87 257.506 M2210.97 245.932 Q2207.52 245.932 2204.86 251.487 Q2207.77 257.552 2210.97 257.552 Q2213.28 257.552 2214.46 255.886 Q2215.73 254.103 2215.73 251.742 Q2215.73 249.149 2214.46 247.552 Q2213.17 245.932 2210.97 245.932 Z" fill="#000000" fill-rule="evenodd" fill-opacity="1" /><path clip-path="url(#clip560)" d="M2226.96 229.937 L2230.67 229.937 Q2234.14 235.4 2235.85 240.631 Q2237.59 245.862 2237.59 251.024 Q2237.59 256.21 2235.85 261.464 Q2234.14 266.719 2230.67 272.159 L2226.96 272.159 Q2230.04 266.858 2231.54 261.626 Q2233.07 256.372 2233.07 251.024 Q2233.07 245.677 2231.54 240.469 Q2230.04 235.261 2226.96 229.937 Z" fill="#000000" fill-rule="evenodd" fill-opacity="1" /></svg>
