<?xml version="1.0" encoding="utf-8"?>
<svg xmlns="http://www.w3.org/2000/svg" xmlns:xlink="http://www.w3.org/1999/xlink" width="600" height="400" viewBox="0 0 2400 1600">
<defs>
  <clipPath id="clip480">
    <rect x="0" y="0" width="2400" height="1600"/>
  </clipPath>
</defs>
<path clip-path="url(#clip480)" d="M0 1600 L2400 1600 L2400 0 L0 0  Z" fill="#ffffff" fill-rule="evenodd" fill-opacity="1"/>
<defs>
  <clipPath id="clip481">
    <rect x="480" y="0" width="1681" height="1600"/>
  </clipPath>
</defs>
<path clip-path="url(#clip480)" d="M219.38 1423.18 L2352.76 1423.18 L2352.76 123.472 L219.38 123.472  Z" fill="#ffffff" fill-rule="evenodd" fill-opacity="1"/>
<defs>
  <clipPath id="clip482">
    <rect x="219" y="123" width="2134" height="1301"/>
  </clipPath>
</defs>
<polyline clip-path="url(#clip482)" style="stroke:#000000; stroke-linecap:round; stroke-linejoin:round; stroke-width:2; stroke-opacity:0.1; fill:none" points="219.38,1423.18 219.38,123.472 "/>
<polyline clip-path="url(#clip482)" style="stroke:#000000; stroke-linecap:round; stroke-linejoin:round; stroke-width:2; stroke-opacity:0.1; fill:none" points="752.724,1423.18 752.724,123.472 "/>
<polyline clip-path="url(#clip482)" style="stroke:#000000; stroke-linecap:round; stroke-linejoin:round; stroke-width:2; stroke-opacity:0.1; fill:none" points="1286.07,1423.18 1286.07,123.472 "/>
<polyline clip-path="url(#clip482)" style="stroke:#000000; stroke-linecap:round; stroke-linejoin:round; stroke-width:2; stroke-opacity:0.1; fill:none" points="1819.41,1423.18 1819.41,123.472 "/>
<polyline clip-path="url(#clip482)" style="stroke:#000000; stroke-linecap:round; stroke-linejoin:round; stroke-width:2; stroke-opacity:0.1; fill:none" points="2352.76,1423.18 2352.76,123.472 "/>
<polyline clip-path="url(#clip482)" style="stroke:#000000; stroke-linecap:round; stroke-linejoin:round; stroke-width:2; stroke-opacity:0.1; fill:none" points="219.38,1423.18 2352.76,1423.18 "/>
<polyline clip-path="url(#clip482)" style="stroke:#000000; stroke-linecap:round; stroke-linejoin:round; stroke-width:2; stroke-opacity:0.1; fill:none" points="219.38,1163.24 2352.76,1163.24 "/>
<polyline clip-path="url(#clip482)" style="stroke:#000000; stroke-linecap:round; stroke-linejoin:round; stroke-width:2; stroke-opacity:0.1; fill:none" points="219.38,903.297 2352.76,903.297 "/>
<polyline clip-path="url(#clip482)" style="stroke:#000000; stroke-linecap:round; stroke-linejoin:round; stroke-width:2; stroke-opacity:0.1; fill:none" points="219.38,643.355 2352.76,643.355 "/>
<polyline clip-path="url(#clip482)" style="stroke:#000000; stroke-linecap:round; stroke-linejoin:round; stroke-width:2; stroke-opacity:0.1; fill:none" points="219.38,383.414 2352.76,383.414 "/>
<polyline clip-path="url(#clip482)" style="stroke:#000000; stroke-linecap:round; stroke-linejoin:round; stroke-width:2; stroke-opacity:0.1; fill:none" points="219.38,123.472 2352.76,123.472 "/>
<polyline clip-path="url(#clip480)" style="stroke:#000000; stroke-linecap:round; stroke-linejoin:round; stroke-width:4; stroke-opacity:1; fill:none" points="219.38,1423.18 2352.76,1423.18 "/>
<polyline clip-path="url(#clip480)" style="stroke:#000000; stroke-linecap:round; stroke-linejoin:round; stroke-width:4; stroke-opacity:1; fill:none" points="219.38,1423.18 219.38,1404.28 "/>
<polyline clip-path="url(#clip480)" style="stroke:#000000; stroke-linecap:round; stroke-linejoin:round; stroke-width:4; stroke-opacity:1; fill:none" points="752.724,1423.18 752.724,1404.28 "/>
<polyline clip-path="url(#clip480)" style="stroke:#000000; stroke-linecap:round; stroke-linejoin:round; stroke-width:4; stroke-opacity:1; fill:none" points="1286.07,1423.18 1286.07,1404.28 "/>
<polyline clip-path="url(#clip480)" style="stroke:#000000; stroke-linecap:round; stroke-linejoin:round; stroke-width:4; stroke-opacity:1; fill:none" points="1819.41,1423.18 1819.41,1404.28 "/>
<polyline clip-path="url(#clip480)" style="stroke:#000000; stroke-linecap:round; stroke-linejoin:round; stroke-width:4; stroke-opacity:1; fill:none" points="2352.76,1423.18 2352.76,1404.28 "/>
<path clip-path="url(#clip480)" d="M219.38 1454.1 Q215.769 1454.1 213.94 1457.66 Q212.135 1461.2 212.135 1468.33 Q212.135 1475.44 213.94 1479.01 Q215.769 1482.55 219.38 1482.55 Q223.014 1482.55 224.82 1479.01 Q226.649 1475.44 226.649 1468.33 Q226.649 1461.2 224.82 1457.66 Q223.014 1454.1 219.38 1454.1 M219.38 1450.39 Q225.19 1450.39 228.246 1455 Q231.325 1459.58 231.325 1468.33 Q231.325 1477.06 228.246 1481.67 Q225.19 1486.25 219.38 1486.25 Q213.57 1486.25 210.491 1481.67 Q207.436 1477.06 207.436 1468.33 Q207.436 1459.58 210.491 1455 Q213.57 1450.39 219.38 1450.39 Z" fill="#000000" fill-rule="nonzero" fill-opacity="1" /><path clip-path="url(#clip480)" d="M727.423 1451.02 L745.78 1451.02 L745.78 1454.96 L731.706 1454.96 L731.706 1463.43 Q732.724 1463.08 733.743 1462.92 Q734.761 1462.73 735.78 1462.73 Q741.567 1462.73 744.946 1465.9 Q748.326 1469.08 748.326 1474.49 Q748.326 1480.07 744.854 1483.17 Q741.382 1486.25 735.062 1486.25 Q732.886 1486.25 730.618 1485.88 Q728.372 1485.51 725.965 1484.77 L725.965 1480.07 Q728.048 1481.2 730.271 1481.76 Q732.493 1482.32 734.97 1482.32 Q738.974 1482.32 741.312 1480.21 Q743.65 1478.1 743.65 1474.49 Q743.65 1470.88 741.312 1468.77 Q738.974 1466.67 734.97 1466.67 Q733.095 1466.67 731.22 1467.08 Q729.368 1467.5 727.423 1468.38 L727.423 1451.02 Z" fill="#000000" fill-rule="nonzero" fill-opacity="1" /><path clip-path="url(#clip480)" d="M767.539 1454.1 Q763.928 1454.1 762.099 1457.66 Q760.293 1461.2 760.293 1468.33 Q760.293 1475.44 762.099 1479.01 Q763.928 1482.55 767.539 1482.55 Q771.173 1482.55 772.979 1479.01 Q774.807 1475.44 774.807 1468.33 Q774.807 1461.2 772.979 1457.66 Q771.173 1454.1 767.539 1454.1 M767.539 1450.39 Q773.349 1450.39 776.405 1455 Q779.483 1459.58 779.483 1468.33 Q779.483 1477.06 776.405 1481.67 Q773.349 1486.25 767.539 1486.25 Q761.729 1486.25 758.65 1481.67 Q755.594 1477.06 755.594 1468.33 Q755.594 1459.58 758.65 1455 Q761.729 1450.39 767.539 1450.39 Z" fill="#000000" fill-rule="nonzero" fill-opacity="1" /><path clip-path="url(#clip480)" d="M1245.67 1481.64 L1253.31 1481.64 L1253.31 1455.28 L1245 1456.95 L1245 1452.69 L1253.27 1451.02 L1257.94 1451.02 L1257.94 1481.64 L1265.58 1481.64 L1265.58 1485.58 L1245.67 1485.58 L1245.67 1481.64 Z" fill="#000000" fill-rule="nonzero" fill-opacity="1" /><path clip-path="url(#clip480)" d="M1285.03 1454.1 Q1281.42 1454.1 1279.59 1457.66 Q1277.78 1461.2 1277.78 1468.33 Q1277.78 1475.44 1279.59 1479.01 Q1281.42 1482.55 1285.03 1482.55 Q1288.66 1482.55 1290.47 1479.01 Q1292.29 1475.44 1292.29 1468.33 Q1292.29 1461.2 1290.47 1457.66 Q1288.66 1454.1 1285.03 1454.1 M1285.03 1450.39 Q1290.84 1450.39 1293.89 1455 Q1296.97 1459.58 1296.97 1468.33 Q1296.97 1477.06 1293.89 1481.67 Q1290.84 1486.25 1285.03 1486.25 Q1279.22 1486.25 1276.14 1481.67 Q1273.08 1477.06 1273.08 1468.33 Q1273.08 1459.58 1276.14 1455 Q1279.22 1450.39 1285.03 1450.39 Z" fill="#000000" fill-rule="nonzero" fill-opacity="1" /><path clip-path="url(#clip480)" d="M1315.19 1454.1 Q1311.58 1454.1 1309.75 1457.66 Q1307.94 1461.2 1307.94 1468.33 Q1307.94 1475.44 1309.75 1479.01 Q1311.58 1482.55 1315.19 1482.55 Q1318.82 1482.55 1320.63 1479.01 Q1322.46 1475.44 1322.46 1468.33 Q1322.46 1461.2 1320.63 1457.66 Q1318.82 1454.1 1315.19 1454.1 M1315.19 1450.39 Q1321 1450.39 1324.05 1455 Q1327.13 1459.58 1327.13 1468.33 Q1327.13 1477.06 1324.05 1481.67 Q1321 1486.25 1315.19 1486.25 Q1309.38 1486.25 1306.3 1481.67 Q1303.24 1477.06 1303.24 1468.33 Q1303.24 1459.58 1306.3 1455 Q1309.38 1450.39 1315.19 1450.39 Z" fill="#000000" fill-rule="nonzero" fill-opacity="1" /><path clip-path="url(#clip480)" d="M1779.02 1481.64 L1786.66 1481.64 L1786.66 1455.28 L1778.35 1456.95 L1778.35 1452.69 L1786.61 1451.02 L1791.29 1451.02 L1791.29 1481.64 L1798.93 1481.64 L1798.93 1485.58 L1779.02 1485.58 L1779.02 1481.64 Z" fill="#000000" fill-rule="nonzero" fill-opacity="1" /><path clip-path="url(#clip480)" d="M1808.42 1451.02 L1826.77 1451.02 L1826.77 1454.96 L1812.7 1454.96 L1812.7 1463.43 Q1813.72 1463.08 1814.74 1462.92 Q1815.75 1462.73 1816.77 1462.73 Q1822.56 1462.73 1825.94 1465.9 Q1829.32 1469.08 1829.32 1474.49 Q1829.32 1480.07 1825.85 1483.17 Q1822.37 1486.25 1816.06 1486.25 Q1813.88 1486.25 1811.61 1485.88 Q1809.37 1485.51 1806.96 1484.77 L1806.96 1480.07 Q1809.04 1481.2 1811.26 1481.76 Q1813.49 1482.32 1815.96 1482.32 Q1819.97 1482.32 1822.31 1480.21 Q1824.64 1478.1 1824.64 1474.49 Q1824.64 1470.88 1822.31 1468.77 Q1819.97 1466.67 1815.96 1466.67 Q1814.09 1466.67 1812.21 1467.08 Q1810.36 1467.5 1808.42 1468.38 L1808.42 1451.02 Z" fill="#000000" fill-rule="nonzero" fill-opacity="1" /><path clip-path="url(#clip480)" d="M1848.53 1454.1 Q1844.92 1454.1 1843.09 1457.66 Q1841.29 1461.2 1841.29 1468.33 Q1841.29 1475.44 1843.09 1479.01 Q1844.92 1482.55 1848.53 1482.55 Q1852.17 1482.55 1853.97 1479.01 Q1855.8 1475.44 1855.8 1468.33 Q1855.8 1461.2 1853.97 1457.66 Q1852.17 1454.1 1848.53 1454.1 M1848.53 1450.39 Q1854.34 1450.39 1857.4 1455 Q1860.48 1459.58 1860.48 1468.33 Q1860.48 1477.06 1857.4 1481.67 Q1854.34 1486.25 1848.53 1486.25 Q1842.72 1486.25 1839.64 1481.67 Q1836.59 1477.06 1836.59 1468.33 Q1836.59 1459.58 1839.64 1455 Q1842.72 1450.39 1848.53 1450.39 Z" fill="#000000" fill-rule="nonzero" fill-opacity="1" /><path clip-path="url(#clip480)" d="M2316.45 1481.64 L2332.77 1481.64 L2332.77 1485.58 L2310.82 1485.58 L2310.82 1481.64 Q2313.49 1478.89 2318.07 1474.26 Q2322.68 1469.61 2323.86 1468.27 Q2326.1 1465.74 2326.98 1464.01 Q2327.88 1462.25 2327.88 1460.56 Q2327.88 1457.8 2325.94 1456.07 Q2324.02 1454.33 2320.92 1454.33 Q2318.72 1454.33 2316.26 1455.09 Q2313.83 1455.86 2311.05 1457.41 L2311.05 1452.69 Q2313.88 1451.55 2316.33 1450.97 Q2318.79 1450.39 2320.82 1450.39 Q2326.19 1450.39 2329.39 1453.08 Q2332.58 1455.77 2332.58 1460.26 Q2332.58 1462.39 2331.77 1464.31 Q2330.99 1466.2 2328.88 1468.8 Q2328.3 1469.47 2325.2 1472.69 Q2322.1 1475.88 2316.45 1481.64 Z" fill="#000000" fill-rule="nonzero" fill-opacity="1" /><path clip-path="url(#clip480)" d="M2352.58 1454.1 Q2348.97 1454.1 2347.14 1457.66 Q2345.34 1461.2 2345.34 1468.33 Q2345.34 1475.44 2347.14 1479.01 Q2348.97 1482.55 2352.58 1482.55 Q2356.22 1482.55 2358.02 1479.01 Q2359.85 1475.44 2359.85 1468.33 Q2359.85 1461.2 2358.02 1457.66 Q2356.22 1454.1 2352.58 1454.1 M2352.58 1450.39 Q2358.39 1450.39 2361.45 1455 Q2364.53 1459.58 2364.53 1468.33 Q2364.53 1477.06 2361.45 1481.67 Q2358.39 1486.25 2352.58 1486.25 Q2346.77 1486.25 2343.69 1481.67 Q2340.64 1477.06 2340.64 1468.33 Q2340.64 1459.58 2343.69 1455 Q2346.77 1450.39 2352.58 1450.39 Z" fill="#000000" fill-rule="nonzero" fill-opacity="1" /><path clip-path="url(#clip480)" d="M2382.74 1454.1 Q2379.13 1454.1 2377.3 1457.66 Q2375.5 1461.2 2375.5 1468.33 Q2375.5 1475.44 2377.3 1479.01 Q2379.13 1482.55 2382.74 1482.55 Q2386.38 1482.55 2388.18 1479.01 Q2390.01 1475.44 2390.01 1468.33 Q2390.01 1461.2 2388.18 1457.66 Q2386.38 1454.1 2382.74 1454.1 M2382.74 1450.39 Q2388.55 1450.39 2391.61 1455 Q2394.69 1459.58 2394.69 1468.33 Q2394.69 1477.06 2391.61 1481.67 Q2388.55 1486.25 2382.74 1486.25 Q2376.93 1486.25 2373.86 1481.67 Q2370.8 1477.06 2370.8 1468.33 Q2370.8 1459.58 2373.86 1455 Q2376.93 1450.39 2382.74 1450.39 Z" fill="#000000" fill-rule="nonzero" fill-opacity="1" /><path clip-path="url(#clip480)" d="M851.593 1522.08 L851.593 1528.35 Q847.932 1526.6 844.686 1525.74 Q841.439 1524.88 838.416 1524.88 Q833.164 1524.88 830.299 1526.92 Q827.467 1528.96 827.467 1532.71 Q827.467 1535.87 829.344 1537.49 Q831.254 1539.08 836.538 1540.07 L840.421 1540.86 Q847.614 1542.23 851.02 1545.7 Q854.457 1549.14 854.457 1554.93 Q854.457 1561.84 849.81 1565.4 Q845.195 1568.97 836.251 1568.97 Q832.877 1568.97 829.058 1568.2 Q825.27 1567.44 821.196 1565.94 L821.196 1559.32 Q825.111 1561.52 828.867 1562.63 Q832.623 1563.75 836.251 1563.75 Q841.758 1563.75 844.75 1561.58 Q847.741 1559.42 847.741 1555.41 Q847.741 1551.91 845.577 1549.93 Q843.445 1547.96 838.543 1546.97 L834.628 1546.21 Q827.435 1544.78 824.22 1541.72 Q821.005 1538.67 821.005 1533.22 Q821.005 1526.92 825.43 1523.29 Q829.886 1519.66 837.684 1519.66 Q841.026 1519.66 844.495 1520.27 Q847.964 1520.87 851.593 1522.08 Z" fill="#000000" fill-rule="nonzero" fill-opacity="1" /><path clip-path="url(#clip480)" d="M870.021 1522.27 L870.021 1532.4 L882.084 1532.4 L882.084 1536.95 L870.021 1536.95 L870.021 1556.3 Q870.021 1560.66 871.199 1561.9 Q872.409 1563.14 876.069 1563.14 L882.084 1563.14 L882.084 1568.04 L876.069 1568.04 Q869.289 1568.04 866.711 1565.53 Q864.133 1562.98 864.133 1556.3 L864.133 1536.95 L859.836 1536.95 L859.836 1532.4 L864.133 1532.4 L864.133 1522.27 L870.021 1522.27 Z" fill="#000000" fill-rule="nonzero" fill-opacity="1" /><path clip-path="url(#clip480)" d="M905.988 1550.12 Q898.89 1550.12 896.153 1551.75 Q893.415 1553.37 893.415 1557.29 Q893.415 1560.4 895.452 1562.25 Q897.521 1564.07 901.054 1564.07 Q905.924 1564.07 908.852 1560.63 Q911.812 1557.16 911.812 1551.43 L911.812 1550.12 L905.988 1550.12 M917.669 1547.71 L917.669 1568.04 L911.812 1568.04 L911.812 1562.63 Q909.807 1565.88 906.815 1567.44 Q903.823 1568.97 899.495 1568.97 Q894.02 1568.97 890.774 1565.91 Q887.559 1562.82 887.559 1557.67 Q887.559 1551.65 891.569 1548.6 Q895.612 1545.54 903.6 1545.54 L911.812 1545.54 L911.812 1544.97 Q911.812 1540.93 909.139 1538.73 Q906.497 1536.5 901.691 1536.5 Q898.635 1536.5 895.739 1537.23 Q892.842 1537.97 890.169 1539.43 L890.169 1534.02 Q893.384 1532.78 896.407 1532.17 Q899.431 1531.54 902.295 1531.54 Q910.03 1531.54 913.849 1535.55 Q917.669 1539.56 917.669 1547.71 Z" fill="#000000" fill-rule="nonzero" fill-opacity="1" /><path clip-path="url(#clip480)" d="M953.189 1549.81 Q953.189 1543.44 950.548 1539.94 Q947.938 1536.44 943.195 1536.44 Q938.485 1536.44 935.843 1539.94 Q933.233 1543.44 933.233 1549.81 Q933.233 1556.14 935.843 1559.64 Q938.485 1563.14 943.195 1563.14 Q947.938 1563.14 950.548 1559.64 Q953.189 1556.14 953.189 1549.81 M959.046 1563.62 Q959.046 1572.72 955.004 1577.15 Q950.961 1581.6 942.622 1581.6 Q939.535 1581.6 936.798 1581.13 Q934.06 1580.68 931.482 1579.72 L931.482 1574.03 Q934.06 1575.43 936.575 1576.1 Q939.089 1576.76 941.699 1576.76 Q947.46 1576.76 950.325 1573.74 Q953.189 1570.75 953.189 1564.67 L953.189 1561.77 Q951.375 1564.92 948.542 1566.48 Q945.71 1568.04 941.763 1568.04 Q935.206 1568.04 931.196 1563.05 Q927.185 1558.05 927.185 1549.81 Q927.185 1541.53 931.196 1536.53 Q935.206 1531.54 941.763 1531.54 Q945.71 1531.54 948.542 1533.1 Q951.375 1534.66 953.189 1537.81 L953.189 1532.4 L959.046 1532.4 L959.046 1563.62 Z" fill="#000000" fill-rule="nonzero" fill-opacity="1" /><path clip-path="url(#clip480)" d="M1000.74 1546.53 L1000.74 1568.04 L994.885 1568.04 L994.885 1546.72 Q994.885 1541.66 992.911 1539.14 Q990.938 1536.63 986.991 1536.63 Q982.249 1536.63 979.512 1539.65 Q976.774 1542.68 976.774 1547.9 L976.774 1568.04 L970.886 1568.04 L970.886 1532.4 L976.774 1532.4 L976.774 1537.93 Q978.875 1534.72 981.708 1533.13 Q984.572 1531.54 988.296 1531.54 Q994.439 1531.54 997.59 1535.36 Q1000.74 1539.14 1000.74 1546.53 Z" fill="#000000" fill-rule="nonzero" fill-opacity="1" /><path clip-path="url(#clip480)" d="M1028.62 1550.12 Q1021.53 1550.12 1018.79 1551.75 Q1016.05 1553.37 1016.05 1557.29 Q1016.05 1560.4 1018.09 1562.25 Q1020.16 1564.07 1023.69 1564.07 Q1028.56 1564.07 1031.49 1560.63 Q1034.45 1557.16 1034.45 1551.43 L1034.45 1550.12 L1028.62 1550.12 M1040.3 1547.71 L1040.3 1568.04 L1034.45 1568.04 L1034.45 1562.63 Q1032.44 1565.88 1029.45 1567.44 Q1026.46 1568.97 1022.13 1568.97 Q1016.66 1568.97 1013.41 1565.91 Q1010.19 1562.82 1010.19 1557.67 Q1010.19 1551.65 1014.2 1548.6 Q1018.25 1545.54 1026.24 1545.54 L1034.45 1545.54 L1034.45 1544.97 Q1034.45 1540.93 1031.77 1538.73 Q1029.13 1536.5 1024.33 1536.5 Q1021.27 1536.5 1018.37 1537.23 Q1015.48 1537.97 1012.8 1539.43 L1012.8 1534.02 Q1016.02 1532.78 1019.04 1532.17 Q1022.07 1531.54 1024.93 1531.54 Q1032.67 1531.54 1036.48 1535.55 Q1040.3 1539.56 1040.3 1547.71 Z" fill="#000000" fill-rule="nonzero" fill-opacity="1" /><path clip-path="url(#clip480)" d="M1058.16 1522.27 L1058.16 1532.4 L1070.22 1532.4 L1070.22 1536.95 L1058.16 1536.95 L1058.16 1556.3 Q1058.16 1560.66 1059.34 1561.9 Q1060.55 1563.14 1064.21 1563.14 L1070.22 1563.14 L1070.22 1568.04 L1064.21 1568.04 Q1057.43 1568.04 1054.85 1565.53 Q1052.27 1562.98 1052.27 1556.3 L1052.27 1536.95 L1047.97 1536.95 L1047.97 1532.4 L1052.27 1532.4 L1052.27 1522.27 L1058.16 1522.27 Z" fill="#000000" fill-rule="nonzero" fill-opacity="1" /><path clip-path="url(#clip480)" d="M1077.93 1532.4 L1083.78 1532.4 L1083.78 1568.04 L1077.93 1568.04 L1077.93 1532.4 M1077.93 1518.52 L1083.78 1518.52 L1083.78 1525.93 L1077.93 1525.93 L1077.93 1518.52 Z" fill="#000000" fill-rule="nonzero" fill-opacity="1" /><path clip-path="url(#clip480)" d="M1109.85 1536.5 Q1105.14 1536.5 1102.4 1540.19 Q1099.66 1543.85 1099.66 1550.25 Q1099.66 1556.65 1102.37 1560.34 Q1105.11 1564 1109.85 1564 Q1114.53 1564 1117.27 1560.31 Q1120 1556.62 1120 1550.25 Q1120 1543.92 1117.27 1540.23 Q1114.53 1536.5 1109.85 1536.5 M1109.85 1531.54 Q1117.49 1531.54 1121.85 1536.5 Q1126.21 1541.47 1126.21 1550.25 Q1126.21 1559 1121.85 1564 Q1117.49 1568.97 1109.85 1568.97 Q1102.18 1568.97 1097.82 1564 Q1093.49 1559 1093.49 1550.25 Q1093.49 1541.47 1097.82 1536.5 Q1102.18 1531.54 1109.85 1531.54 Z" fill="#000000" fill-rule="nonzero" fill-opacity="1" /><path clip-path="url(#clip480)" d="M1165.55 1546.53 L1165.55 1568.04 L1159.69 1568.04 L1159.69 1546.72 Q1159.69 1541.66 1157.72 1539.14 Q1155.75 1536.63 1151.8 1536.63 Q1147.06 1536.63 1144.32 1539.65 Q1141.58 1542.68 1141.58 1547.9 L1141.58 1568.04 L1135.69 1568.04 L1135.69 1532.4 L1141.58 1532.4 L1141.58 1537.93 Q1143.68 1534.72 1146.52 1533.13 Q1149.38 1531.54 1153.1 1531.54 Q1159.25 1531.54 1162.4 1535.36 Q1165.55 1539.14 1165.55 1546.53 Z" fill="#000000" fill-rule="nonzero" fill-opacity="1" /><path clip-path="url(#clip480)" d="M1204.63 1525.81 L1204.63 1543.66 L1212.72 1543.66 Q1217.21 1543.66 1219.66 1541.34 Q1222.11 1539.02 1222.11 1534.72 Q1222.11 1530.45 1219.66 1528.13 Q1217.21 1525.81 1212.72 1525.81 L1204.63 1525.81 M1198.21 1520.52 L1212.72 1520.52 Q1220.71 1520.52 1224.78 1524.15 Q1228.89 1527.75 1228.89 1534.72 Q1228.89 1541.75 1224.78 1545.35 Q1220.71 1548.95 1212.72 1548.95 L1204.63 1548.95 L1204.63 1568.04 L1198.21 1568.04 L1198.21 1520.52 Z" fill="#000000" fill-rule="nonzero" fill-opacity="1" /><path clip-path="url(#clip480)" d="M1256.77 1537.87 Q1255.78 1537.3 1254.61 1537.04 Q1253.46 1536.76 1252.06 1536.76 Q1247.09 1536.76 1244.42 1540 Q1241.78 1543.22 1241.78 1549.27 L1241.78 1568.04 L1235.89 1568.04 L1235.89 1532.4 L1241.78 1532.4 L1241.78 1537.93 Q1243.62 1534.69 1246.58 1533.13 Q1249.54 1531.54 1253.78 1531.54 Q1254.38 1531.54 1255.11 1531.63 Q1255.85 1531.7 1256.74 1531.85 L1256.77 1537.87 Z" fill="#000000" fill-rule="nonzero" fill-opacity="1" /><path clip-path="url(#clip480)" d="M1291.97 1548.76 L1291.97 1551.62 L1265.05 1551.62 Q1265.43 1557.67 1268.67 1560.85 Q1271.95 1564 1277.78 1564 Q1281.15 1564 1284.3 1563.17 Q1287.48 1562.35 1290.6 1560.69 L1290.6 1566.23 Q1287.45 1567.57 1284.14 1568.27 Q1280.83 1568.97 1277.43 1568.97 Q1268.9 1568.97 1263.9 1564 Q1258.93 1559.04 1258.93 1550.57 Q1258.93 1541.82 1263.64 1536.69 Q1268.39 1531.54 1276.41 1531.54 Q1283.6 1531.54 1287.77 1536.18 Q1291.97 1540.8 1291.97 1548.76 M1286.12 1547.04 Q1286.05 1542.23 1283.41 1539.37 Q1280.8 1536.5 1276.47 1536.5 Q1271.57 1536.5 1268.61 1539.27 Q1265.68 1542.04 1265.24 1547.07 L1286.12 1547.04 Z" fill="#000000" fill-rule="nonzero" fill-opacity="1" /><path clip-path="url(#clip480)" d="M1324.31 1533.45 L1324.31 1538.98 Q1321.83 1537.71 1319.15 1537.07 Q1316.48 1536.44 1313.62 1536.44 Q1309.26 1536.44 1307.06 1537.77 Q1304.89 1539.11 1304.89 1541.79 Q1304.89 1543.82 1306.45 1545 Q1308.01 1546.15 1312.72 1547.2 L1314.73 1547.64 Q1320.97 1548.98 1323.58 1551.43 Q1326.22 1553.85 1326.22 1558.21 Q1326.22 1563.17 1322.27 1566.07 Q1318.36 1568.97 1311.48 1568.97 Q1308.62 1568.97 1305.5 1568.39 Q1302.41 1567.85 1298.97 1566.74 L1298.97 1560.69 Q1302.22 1562.38 1305.37 1563.24 Q1308.52 1564.07 1311.61 1564.07 Q1315.75 1564.07 1317.98 1562.66 Q1320.2 1561.23 1320.2 1558.65 Q1320.2 1556.27 1318.58 1554.99 Q1316.99 1553.72 1311.55 1552.54 L1309.51 1552.07 Q1304.07 1550.92 1301.65 1548.56 Q1299.23 1546.18 1299.23 1542.04 Q1299.23 1537.01 1302.79 1534.27 Q1306.36 1531.54 1312.92 1531.54 Q1316.16 1531.54 1319.03 1532.01 Q1321.89 1532.49 1324.31 1533.45 Z" fill="#000000" fill-rule="nonzero" fill-opacity="1" /><path clip-path="url(#clip480)" d="M1358.27 1533.45 L1358.27 1538.98 Q1355.79 1537.71 1353.11 1537.07 Q1350.44 1536.44 1347.58 1536.44 Q1343.22 1536.44 1341.02 1537.77 Q1338.86 1539.11 1338.86 1541.79 Q1338.86 1543.82 1340.42 1545 Q1341.97 1546.15 1346.69 1547.2 L1348.69 1547.64 Q1354.93 1548.98 1357.54 1551.43 Q1360.18 1553.85 1360.18 1558.21 Q1360.18 1563.17 1356.23 1566.07 Q1352.32 1568.97 1345.44 1568.97 Q1342.58 1568.97 1339.46 1568.39 Q1336.37 1567.85 1332.94 1566.74 L1332.94 1560.69 Q1336.18 1562.38 1339.33 1563.24 Q1342.48 1564.07 1345.57 1564.07 Q1349.71 1564.07 1351.94 1562.66 Q1354.17 1561.23 1354.17 1558.65 Q1354.17 1556.27 1352.54 1554.99 Q1350.95 1553.72 1345.51 1552.54 L1343.47 1552.07 Q1338.03 1550.92 1335.61 1548.56 Q1333.19 1546.18 1333.19 1542.04 Q1333.19 1537.01 1336.75 1534.27 Q1340.32 1531.54 1346.88 1531.54 Q1350.12 1531.54 1352.99 1532.01 Q1355.85 1532.49 1358.27 1533.45 Z" fill="#000000" fill-rule="nonzero" fill-opacity="1" /><path clip-path="url(#clip480)" d="M1368.9 1553.98 L1368.9 1532.4 L1374.76 1532.4 L1374.76 1553.75 Q1374.76 1558.81 1376.73 1561.36 Q1378.7 1563.87 1382.65 1563.87 Q1387.39 1563.87 1390.13 1560.85 Q1392.9 1557.83 1392.9 1552.61 L1392.9 1532.4 L1398.76 1532.4 L1398.76 1568.04 L1392.9 1568.04 L1392.9 1562.57 Q1390.77 1565.82 1387.94 1567.41 Q1385.13 1568.97 1381.41 1568.97 Q1375.27 1568.97 1372.08 1565.15 Q1368.9 1561.33 1368.9 1553.98 M1383.64 1531.54 L1383.64 1531.54 Z" fill="#000000" fill-rule="nonzero" fill-opacity="1" /><path clip-path="url(#clip480)" d="M1431.48 1537.87 Q1430.49 1537.3 1429.31 1537.04 Q1428.17 1536.76 1426.77 1536.76 Q1421.8 1536.76 1419.13 1540 Q1416.49 1543.22 1416.49 1549.27 L1416.49 1568.04 L1410.6 1568.04 L1410.6 1532.4 L1416.49 1532.4 L1416.49 1537.93 Q1418.33 1534.69 1421.29 1533.13 Q1424.25 1531.54 1428.48 1531.54 Q1429.09 1531.54 1429.82 1531.63 Q1430.55 1531.7 1431.44 1531.85 L1431.48 1537.87 Z" fill="#000000" fill-rule="nonzero" fill-opacity="1" /><path clip-path="url(#clip480)" d="M1466.68 1548.76 L1466.68 1551.62 L1439.75 1551.62 Q1440.13 1557.67 1443.38 1560.85 Q1446.66 1564 1452.48 1564 Q1455.86 1564 1459.01 1563.17 Q1462.19 1562.35 1465.31 1560.69 L1465.31 1566.23 Q1462.16 1567.57 1458.85 1568.27 Q1455.54 1568.97 1452.13 1568.97 Q1443.6 1568.97 1438.61 1564 Q1433.64 1559.04 1433.64 1550.57 Q1433.64 1541.82 1438.35 1536.69 Q1443.09 1531.54 1451.11 1531.54 Q1458.31 1531.54 1462.48 1536.18 Q1466.68 1540.8 1466.68 1548.76 M1460.82 1547.04 Q1460.76 1542.23 1458.12 1539.37 Q1455.51 1536.5 1451.18 1536.5 Q1446.28 1536.5 1443.32 1539.27 Q1440.39 1542.04 1439.94 1547.07 L1460.82 1547.04 Z" fill="#000000" fill-rule="nonzero" fill-opacity="1" /><path clip-path="url(#clip480)" d="M1477.79 1559.96 L1484.5 1559.96 L1484.5 1565.43 L1479.28 1575.62 L1475.18 1575.62 L1477.79 1565.43 L1477.79 1559.96 Z" fill="#000000" fill-rule="nonzero" fill-opacity="1" /><path clip-path="url(#clip480)" d="M1524.42 1525.81 L1524.42 1543.66 L1532.5 1543.66 Q1536.99 1543.66 1539.44 1541.34 Q1541.89 1539.02 1541.89 1534.72 Q1541.89 1530.45 1539.44 1528.13 Q1536.99 1525.81 1532.5 1525.81 L1524.42 1525.81 M1517.99 1520.52 L1532.5 1520.52 Q1540.49 1520.52 1544.56 1524.15 Q1548.67 1527.75 1548.67 1534.72 Q1548.67 1541.75 1544.56 1545.35 Q1540.49 1548.95 1532.5 1548.95 L1524.42 1548.95 L1524.42 1568.04 L1517.99 1568.04 L1517.99 1520.52 Z" fill="#000000" fill-rule="nonzero" fill-opacity="1" /><path clip-path="url(#clip480)" d="M1555.86 1564.54 L1562.36 1564.54 L1562.36 1545.1 L1555.26 1546.4 L1555.26 1542.71 L1562.58 1541.47 L1566.94 1541.47 L1566.94 1564.54 L1573.46 1564.54 L1573.46 1568.04 L1555.86 1568.04 L1555.86 1564.54 Z" fill="#000000" fill-rule="nonzero" fill-opacity="1" /><path clip-path="url(#clip480)" d="M1617.96 1518.58 Q1613.7 1525.9 1611.63 1533.06 Q1609.56 1540.23 1609.56 1547.58 Q1609.56 1554.93 1611.63 1562.16 Q1613.73 1569.35 1617.96 1576.64 L1612.87 1576.64 Q1608.09 1569.16 1605.71 1561.93 Q1603.35 1554.71 1603.35 1547.58 Q1603.35 1540.48 1605.71 1533.29 Q1608.06 1526.09 1612.87 1518.58 L1617.96 1518.58 Z" fill="#000000" fill-rule="nonzero" fill-opacity="1" /><path clip-path="url(#clip480)" d="M1654.91 1550.25 Q1654.91 1543.79 1652.24 1540.13 Q1649.6 1536.44 1644.95 1536.44 Q1640.3 1536.44 1637.63 1540.13 Q1634.99 1543.79 1634.99 1550.25 Q1634.99 1556.71 1637.63 1560.4 Q1640.3 1564.07 1644.95 1564.07 Q1649.6 1564.07 1652.24 1560.4 Q1654.91 1556.71 1654.91 1550.25 M1634.99 1537.81 Q1636.83 1534.62 1639.64 1533.1 Q1642.47 1531.54 1646.38 1531.54 Q1652.88 1531.54 1656.92 1536.69 Q1660.99 1541.85 1660.99 1550.25 Q1660.99 1558.65 1656.92 1563.81 Q1652.88 1568.97 1646.38 1568.97 Q1642.47 1568.97 1639.64 1567.44 Q1636.83 1565.88 1634.99 1562.7 L1634.99 1568.04 L1629.1 1568.04 L1629.1 1518.52 L1634.99 1518.52 L1634.99 1537.81 Z" fill="#000000" fill-rule="nonzero" fill-opacity="1" /><path clip-path="url(#clip480)" d="M1686.9 1550.12 Q1679.8 1550.12 1677.07 1551.75 Q1674.33 1553.37 1674.33 1557.29 Q1674.33 1560.4 1676.37 1562.25 Q1678.43 1564.07 1681.97 1564.07 Q1686.84 1564.07 1689.77 1560.63 Q1692.73 1557.16 1692.73 1551.43 L1692.73 1550.12 L1686.9 1550.12 M1698.58 1547.71 L1698.58 1568.04 L1692.73 1568.04 L1692.73 1562.63 Q1690.72 1565.88 1687.73 1567.44 Q1684.74 1568.97 1680.41 1568.97 Q1674.93 1568.97 1671.69 1565.91 Q1668.47 1562.82 1668.47 1557.67 Q1668.47 1551.65 1672.48 1548.6 Q1676.52 1545.54 1684.51 1545.54 L1692.73 1545.54 L1692.73 1544.97 Q1692.73 1540.93 1690.05 1538.73 Q1687.41 1536.5 1682.6 1536.5 Q1679.55 1536.5 1676.65 1537.23 Q1673.76 1537.97 1671.08 1539.43 L1671.08 1534.02 Q1674.3 1532.78 1677.32 1532.17 Q1680.34 1531.54 1683.21 1531.54 Q1690.94 1531.54 1694.76 1535.55 Q1698.58 1539.56 1698.58 1547.71 Z" fill="#000000" fill-rule="nonzero" fill-opacity="1" /><path clip-path="url(#clip480)" d="M1731.3 1537.87 Q1730.31 1537.3 1729.14 1537.04 Q1727.99 1536.76 1726.59 1536.76 Q1721.63 1536.76 1718.95 1540 Q1716.31 1543.22 1716.31 1549.27 L1716.31 1568.04 L1710.42 1568.04 L1710.42 1532.4 L1716.31 1532.4 L1716.31 1537.93 Q1718.16 1534.69 1721.12 1533.13 Q1724.08 1531.54 1728.31 1531.54 Q1728.91 1531.54 1729.65 1531.63 Q1730.38 1531.7 1731.27 1531.85 L1731.3 1537.87 Z" fill="#000000" fill-rule="nonzero" fill-opacity="1" /><path clip-path="url(#clip480)" d="M1736.52 1518.58 L1741.61 1518.58 Q1746.39 1526.09 1748.74 1533.29 Q1751.13 1540.48 1751.13 1547.58 Q1751.13 1554.71 1748.74 1561.93 Q1746.39 1569.16 1741.61 1576.64 L1736.52 1576.64 Q1740.75 1569.35 1742.82 1562.16 Q1744.92 1554.93 1744.92 1547.58 Q1744.92 1540.23 1742.82 1533.06 Q1740.75 1525.9 1736.52 1518.58 Z" fill="#000000" fill-rule="nonzero" fill-opacity="1" /><polyline clip-path="url(#clip480)" style="stroke:#000000; stroke-linecap:round; stroke-linejoin:round; stroke-width:4; stroke-opacity:1; fill:none" points="219.38,1423.18 219.38,123.472 "/>
<polyline clip-path="url(#clip480)" style="stroke:#000000; stroke-linecap:round; stroke-linejoin:round; stroke-width:4; stroke-opacity:1; fill:none" points="219.38,1423.18 238.278,1423.18 "/>
<polyline clip-path="url(#clip480)" style="stroke:#000000; stroke-linecap:round; stroke-linejoin:round; stroke-width:4; stroke-opacity:1; fill:none" points="219.38,1163.24 238.278,1163.24 "/>
<polyline clip-path="url(#clip480)" style="stroke:#000000; stroke-linecap:round; stroke-linejoin:round; stroke-width:4; stroke-opacity:1; fill:none" points="219.38,903.297 238.278,903.297 "/>
<polyline clip-path="url(#clip480)" style="stroke:#000000; stroke-linecap:round; stroke-linejoin:round; stroke-width:4; stroke-opacity:1; fill:none" points="219.38,643.355 238.278,643.355 "/>
<polyline clip-path="url(#clip480)" style="stroke:#000000; stroke-linecap:round; stroke-linejoin:round; stroke-width:4; stroke-opacity:1; fill:none" points="219.38,383.414 238.278,383.414 "/>
<polyline clip-path="url(#clip480)" style="stroke:#000000; stroke-linecap:round; stroke-linejoin:round; stroke-width:4; stroke-opacity:1; fill:none" points="219.38,123.472 238.278,123.472 "/>
<path clip-path="url(#clip480)" d="M126.205 1408.98 Q122.593 1408.98 120.765 1412.54 Q118.959 1416.08 118.959 1423.21 Q118.959 1430.32 120.765 1433.89 Q122.593 1437.43 126.205 1437.43 Q129.839 1437.43 131.644 1433.89 Q133.473 1430.32 133.473 1423.21 Q133.473 1416.08 131.644 1412.54 Q129.839 1408.98 126.205 1408.98 M126.205 1405.27 Q132.015 1405.27 135.07 1409.88 Q138.149 1414.46 138.149 1423.21 Q138.149 1431.94 135.07 1436.55 Q132.015 1441.13 126.205 1441.13 Q120.394 1441.13 117.316 1436.55 Q114.26 1431.94 114.26 1423.21 Q114.26 1414.46 117.316 1409.88 Q120.394 1405.27 126.205 1405.27 Z" fill="#000000" fill-rule="nonzero" fill-opacity="1" /><path clip-path="url(#clip480)" d="M146.366 1434.58 L151.251 1434.58 L151.251 1440.46 L146.366 1440.46 L146.366 1434.58 Z" fill="#000000" fill-rule="nonzero" fill-opacity="1" /><path clip-path="url(#clip480)" d="M171.436 1408.98 Q167.825 1408.98 165.996 1412.54 Q164.19 1416.08 164.19 1423.21 Q164.19 1430.32 165.996 1433.89 Q167.825 1437.43 171.436 1437.43 Q175.07 1437.43 176.876 1433.89 Q178.704 1430.32 178.704 1423.21 Q178.704 1416.08 176.876 1412.54 Q175.07 1408.98 171.436 1408.98 M171.436 1405.27 Q177.246 1405.27 180.301 1409.88 Q183.38 1414.46 183.38 1423.21 Q183.38 1431.94 180.301 1436.55 Q177.246 1441.13 171.436 1441.13 Q165.626 1441.13 162.547 1436.55 Q159.491 1431.94 159.491 1423.21 Q159.491 1414.46 162.547 1409.88 Q165.626 1405.27 171.436 1405.27 Z" fill="#000000" fill-rule="nonzero" fill-opacity="1" /><path clip-path="url(#clip480)" d="M127.2 1149.04 Q123.589 1149.04 121.76 1152.6 Q119.955 1156.14 119.955 1163.27 Q119.955 1170.38 121.76 1173.94 Q123.589 1177.49 127.2 1177.49 Q130.834 1177.49 132.64 1173.94 Q134.468 1170.38 134.468 1163.27 Q134.468 1156.14 132.64 1152.6 Q130.834 1149.04 127.2 1149.04 M127.2 1145.33 Q133.01 1145.33 136.066 1149.94 Q139.144 1154.52 139.144 1163.27 Q139.144 1172 136.066 1176.61 Q133.01 1181.19 127.2 1181.19 Q121.39 1181.19 118.311 1176.61 Q115.256 1172 115.256 1163.27 Q115.256 1154.52 118.311 1149.94 Q121.39 1145.33 127.2 1145.33 Z" fill="#000000" fill-rule="nonzero" fill-opacity="1" /><path clip-path="url(#clip480)" d="M147.362 1174.64 L152.246 1174.64 L152.246 1180.52 L147.362 1180.52 L147.362 1174.64 Z" fill="#000000" fill-rule="nonzero" fill-opacity="1" /><path clip-path="url(#clip480)" d="M162.477 1145.96 L180.834 1145.96 L180.834 1149.89 L166.76 1149.89 L166.76 1158.37 Q167.778 1158.02 168.797 1157.86 Q169.815 1157.67 170.834 1157.67 Q176.621 1157.67 180.001 1160.84 Q183.38 1164.01 183.38 1169.43 Q183.38 1175.01 179.908 1178.11 Q176.436 1181.19 170.116 1181.19 Q167.94 1181.19 165.672 1180.82 Q163.427 1180.45 161.019 1179.71 L161.019 1175.01 Q163.102 1176.14 165.325 1176.7 Q167.547 1177.25 170.024 1177.25 Q174.028 1177.25 176.366 1175.15 Q178.704 1173.04 178.704 1169.43 Q178.704 1165.82 176.366 1163.71 Q174.028 1161.61 170.024 1161.61 Q168.149 1161.61 166.274 1162.02 Q164.422 1162.44 162.477 1163.32 L162.477 1145.96 Z" fill="#000000" fill-rule="nonzero" fill-opacity="1" /><path clip-path="url(#clip480)" d="M117.015 916.642 L124.654 916.642 L124.654 890.276 L116.343 891.943 L116.343 887.683 L124.607 886.017 L129.283 886.017 L129.283 916.642 L136.922 916.642 L136.922 920.577 L117.015 920.577 L117.015 916.642 Z" fill="#000000" fill-rule="nonzero" fill-opacity="1" /><path clip-path="url(#clip480)" d="M146.366 914.697 L151.251 914.697 L151.251 920.577 L146.366 920.577 L146.366 914.697 Z" fill="#000000" fill-rule="nonzero" fill-opacity="1" /><path clip-path="url(#clip480)" d="M171.436 889.095 Q167.825 889.095 165.996 892.66 Q164.19 896.202 164.19 903.331 Q164.19 910.438 165.996 914.003 Q167.825 917.544 171.436 917.544 Q175.07 917.544 176.876 914.003 Q178.704 910.438 178.704 903.331 Q178.704 896.202 176.876 892.66 Q175.07 889.095 171.436 889.095 M171.436 885.392 Q177.246 885.392 180.301 889.998 Q183.38 894.582 183.38 903.331 Q183.38 912.058 180.301 916.665 Q177.246 921.248 171.436 921.248 Q165.626 921.248 162.547 916.665 Q159.491 912.058 159.491 903.331 Q159.491 894.582 162.547 889.998 Q165.626 885.392 171.436 885.392 Z" fill="#000000" fill-rule="nonzero" fill-opacity="1" /><path clip-path="url(#clip480)" d="M118.01 656.7 L125.649 656.7 L125.649 630.334 L117.339 632.001 L117.339 627.742 L125.603 626.075 L130.279 626.075 L130.279 656.7 L137.917 656.7 L137.917 660.635 L118.01 660.635 L118.01 656.7 Z" fill="#000000" fill-rule="nonzero" fill-opacity="1" /><path clip-path="url(#clip480)" d="M147.362 654.756 L152.246 654.756 L152.246 660.635 L147.362 660.635 L147.362 654.756 Z" fill="#000000" fill-rule="nonzero" fill-opacity="1" /><path clip-path="url(#clip480)" d="M162.477 626.075 L180.834 626.075 L180.834 630.01 L166.76 630.01 L166.76 638.483 Q167.778 638.135 168.797 637.973 Q169.815 637.788 170.834 637.788 Q176.621 637.788 180.001 640.959 Q183.38 644.131 183.38 649.547 Q183.38 655.126 179.908 658.228 Q176.436 661.307 170.116 661.307 Q167.94 661.307 165.672 660.936 Q163.427 660.566 161.019 659.825 L161.019 655.126 Q163.102 656.26 165.325 656.816 Q167.547 657.371 170.024 657.371 Q174.028 657.371 176.366 655.265 Q178.704 653.158 178.704 649.547 Q178.704 645.936 176.366 643.83 Q174.028 641.723 170.024 641.723 Q168.149 641.723 166.274 642.14 Q164.422 642.557 162.477 643.436 L162.477 626.075 Z" fill="#000000" fill-rule="nonzero" fill-opacity="1" /><path clip-path="url(#clip480)" d="M120.232 396.759 L136.552 396.759 L136.552 400.694 L114.607 400.694 L114.607 396.759 Q117.269 394.004 121.853 389.374 Q126.459 384.722 127.64 383.379 Q129.885 380.856 130.765 379.12 Q131.667 377.36 131.667 375.671 Q131.667 372.916 129.723 371.18 Q127.802 369.444 124.7 369.444 Q122.501 369.444 120.047 370.208 Q117.617 370.972 114.839 372.523 L114.839 367.8 Q117.663 366.666 120.117 366.087 Q122.57 365.509 124.607 365.509 Q129.978 365.509 133.172 368.194 Q136.367 370.879 136.367 375.37 Q136.367 377.499 135.556 379.421 Q134.769 381.319 132.663 383.911 Q132.084 384.583 128.982 387.8 Q125.88 390.995 120.232 396.759 Z" fill="#000000" fill-rule="nonzero" fill-opacity="1" /><path clip-path="url(#clip480)" d="M146.366 394.814 L151.251 394.814 L151.251 400.694 L146.366 400.694 L146.366 394.814 Z" fill="#000000" fill-rule="nonzero" fill-opacity="1" /><path clip-path="url(#clip480)" d="M171.436 369.212 Q167.825 369.212 165.996 372.777 Q164.19 376.319 164.19 383.448 Q164.19 390.555 165.996 394.12 Q167.825 397.661 171.436 397.661 Q175.07 397.661 176.876 394.12 Q178.704 390.555 178.704 383.448 Q178.704 376.319 176.876 372.777 Q175.07 369.212 171.436 369.212 M171.436 365.509 Q177.246 365.509 180.301 370.115 Q183.38 374.698 183.38 383.448 Q183.38 392.175 180.301 396.782 Q177.246 401.365 171.436 401.365 Q165.626 401.365 162.547 396.782 Q159.491 392.175 159.491 383.448 Q159.491 374.698 162.547 370.115 Q165.626 365.509 171.436 365.509 Z" fill="#000000" fill-rule="nonzero" fill-opacity="1" /><path clip-path="url(#clip480)" d="M121.228 136.817 L137.547 136.817 L137.547 140.752 L115.603 140.752 L115.603 136.817 Q118.265 134.062 122.848 129.433 Q127.455 124.78 128.635 123.437 Q130.88 120.914 131.76 119.178 Q132.663 117.419 132.663 115.729 Q132.663 112.974 130.718 111.238 Q128.797 109.502 125.695 109.502 Q123.496 109.502 121.043 110.266 Q118.612 111.03 115.834 112.581 L115.834 107.859 Q118.658 106.725 121.112 106.146 Q123.566 105.567 125.603 105.567 Q130.973 105.567 134.167 108.252 Q137.362 110.937 137.362 115.428 Q137.362 117.558 136.552 119.479 Q135.765 121.377 133.658 123.97 Q133.08 124.641 129.978 127.859 Q126.876 131.053 121.228 136.817 Z" fill="#000000" fill-rule="nonzero" fill-opacity="1" /><path clip-path="url(#clip480)" d="M147.362 134.873 L152.246 134.873 L152.246 140.752 L147.362 140.752 L147.362 134.873 Z" fill="#000000" fill-rule="nonzero" fill-opacity="1" /><path clip-path="url(#clip480)" d="M162.477 106.192 L180.834 106.192 L180.834 110.127 L166.76 110.127 L166.76 118.599 Q167.778 118.252 168.797 118.09 Q169.815 117.905 170.834 117.905 Q176.621 117.905 180.001 121.076 Q183.38 124.248 183.38 129.664 Q183.38 135.243 179.908 138.345 Q176.436 141.423 170.116 141.423 Q167.94 141.423 165.672 141.053 Q163.427 140.683 161.019 139.942 L161.019 135.243 Q163.102 136.377 165.325 136.933 Q167.547 137.488 170.024 137.488 Q174.028 137.488 176.366 135.382 Q178.704 133.275 178.704 129.664 Q178.704 126.053 176.366 123.947 Q174.028 121.84 170.024 121.84 Q168.149 121.84 166.274 122.257 Q164.422 122.674 162.477 123.553 L162.477 106.192 Z" fill="#000000" fill-rule="nonzero" fill-opacity="1" /><path clip-path="url(#clip480)" d="M16.4842 1218.81 L16.4842 1212.38 L64.0042 1212.38 L64.0042 1218.81 L16.4842 1218.81 Z" fill="#000000" fill-rule="nonzero" fill-opacity="1" /><path clip-path="url(#clip480)" d="M29.4065 1177.12 L34.9447 1177.12 Q33.6716 1179.6 33.035 1182.27 Q32.3984 1184.95 32.3984 1187.81 Q32.3984 1192.17 33.7352 1194.37 Q35.072 1196.53 37.7456 1196.53 Q39.7826 1196.53 40.9603 1194.97 Q42.1061 1193.41 43.1565 1188.7 L43.6021 1186.7 Q44.9389 1180.46 47.3897 1177.85 Q49.8086 1175.21 54.1691 1175.21 Q59.1344 1175.21 62.0308 1179.16 Q64.9272 1183.07 64.9272 1189.95 Q64.9272 1192.81 64.3543 1195.93 Q63.8132 1199.02 62.6992 1202.45 L56.6518 1202.45 Q58.3387 1199.21 59.198 1196.06 Q60.0256 1192.91 60.0256 1189.82 Q60.0256 1185.68 58.6251 1183.45 Q57.1929 1181.22 54.6147 1181.22 Q52.2276 1181.22 50.9545 1182.85 Q49.6813 1184.44 48.5037 1189.88 L48.0262 1191.92 Q46.8804 1197.36 44.5251 1199.78 Q42.138 1202.2 38.0002 1202.2 Q32.9713 1202.2 30.2341 1198.63 Q27.4968 1195.07 27.4968 1188.51 Q27.4968 1185.27 27.9743 1182.4 Q28.4517 1179.54 29.4065 1177.12 Z" fill="#000000" fill-rule="nonzero" fill-opacity="1" /><path clip-path="url(#clip480)" d="M44.7161 1135.39 L47.5806 1135.39 L47.5806 1162.32 Q53.6281 1161.94 56.8109 1158.69 Q59.9619 1155.41 59.9619 1149.59 Q59.9619 1146.21 59.1344 1143.06 Q58.3069 1139.88 56.6518 1136.76 L62.1899 1136.76 Q63.5267 1139.91 64.227 1143.22 Q64.9272 1146.53 64.9272 1149.94 Q64.9272 1158.47 59.9619 1163.46 Q54.9967 1168.43 46.5303 1168.43 Q37.7774 1168.43 32.6531 1163.72 Q27.4968 1158.98 27.4968 1150.96 Q27.4968 1143.76 32.1438 1139.59 Q36.7589 1135.39 44.7161 1135.39 M42.9973 1141.25 Q38.1912 1141.31 35.3266 1143.95 Q32.4621 1146.56 32.4621 1150.89 Q32.4621 1155.79 35.2312 1158.75 Q38.0002 1161.68 43.0292 1162.13 L42.9973 1141.25 Z" fill="#000000" fill-rule="nonzero" fill-opacity="1" /><path clip-path="url(#clip480)" d="M42.4881 1096.15 L64.0042 1096.15 L64.0042 1102 L42.679 1102 Q37.6183 1102 35.1038 1103.98 Q32.5894 1105.95 32.5894 1109.9 Q32.5894 1114.64 35.6131 1117.38 Q38.6368 1120.11 43.8567 1120.11 L64.0042 1120.11 L64.0042 1126 L28.3562 1126 L28.3562 1120.11 L33.8944 1120.11 Q30.6797 1118.01 29.0883 1115.18 Q27.4968 1112.32 27.4968 1108.59 Q27.4968 1102.45 31.3163 1099.3 Q35.1038 1096.15 42.4881 1096.15 Z" fill="#000000" fill-rule="nonzero" fill-opacity="1" /><path clip-path="url(#clip480)" d="M18.2347 1078.67 L28.3562 1078.67 L28.3562 1066.61 L32.9077 1066.61 L32.9077 1078.67 L52.2594 1078.67 Q56.6199 1078.67 57.8613 1077.5 Q59.1026 1076.29 59.1026 1072.63 L59.1026 1066.61 L64.0042 1066.61 L64.0042 1072.63 Q64.0042 1079.41 61.4897 1081.98 Q58.9434 1084.56 52.2594 1084.56 L32.9077 1084.56 L32.9077 1088.86 L28.3562 1088.86 L28.3562 1084.56 L18.2347 1084.56 L18.2347 1078.67 Z" fill="#000000" fill-rule="nonzero" fill-opacity="1" /><path clip-path="url(#clip480)" d="M33.8307 1038.25 Q33.2578 1039.24 33.0032 1040.42 Q32.7167 1041.56 32.7167 1042.96 Q32.7167 1047.93 35.9632 1050.6 Q39.1779 1053.24 45.2253 1053.24 L64.0042 1053.24 L64.0042 1059.13 L28.3562 1059.13 L28.3562 1053.24 L33.8944 1053.24 Q30.6479 1051.4 29.0883 1048.44 Q27.4968 1045.48 27.4968 1041.24 Q27.4968 1040.64 27.5923 1039.91 Q27.656 1039.17 27.8151 1038.28 L33.8307 1038.25 Z" fill="#000000" fill-rule="nonzero" fill-opacity="1" /><path clip-path="url(#clip480)" d="M32.4621 1019.73 Q32.4621 1024.44 36.1542 1027.17 Q39.8145 1029.91 46.212 1029.91 Q52.6095 1029.91 56.3017 1027.21 Q59.9619 1024.47 59.9619 1019.73 Q59.9619 1015.05 56.2698 1012.31 Q52.5777 1009.57 46.212 1009.57 Q39.8781 1009.57 36.186 1012.31 Q32.4621 1015.05 32.4621 1019.73 M27.4968 1019.73 Q27.4968 1012.09 32.4621 1007.73 Q37.4273 1003.37 46.212 1003.37 Q54.9649 1003.37 59.9619 1007.73 Q64.9272 1012.09 64.9272 1019.73 Q64.9272 1027.4 59.9619 1031.76 Q54.9649 1036.09 46.212 1036.09 Q37.4273 1036.09 32.4621 1031.76 Q27.4968 1027.4 27.4968 1019.73 Z" fill="#000000" fill-rule="nonzero" fill-opacity="1" /><path clip-path="url(#clip480)" d="M58.657 987.994 L77.5631 987.994 L77.5631 993.882 L28.3562 993.882 L28.3562 987.994 L33.7671 987.994 Q30.5842 986.147 29.0564 983.347 Q27.4968 980.514 27.4968 976.599 Q27.4968 970.106 32.6531 966.064 Q37.8093 961.99 46.212 961.99 Q54.6147 961.99 59.771 966.064 Q64.9272 970.106 64.9272 976.599 Q64.9272 980.514 63.3994 983.347 Q61.8398 986.147 58.657 987.994 M46.212 968.069 Q39.7508 968.069 36.0905 970.742 Q32.3984 973.384 32.3984 978.031 Q32.3984 982.678 36.0905 985.352 Q39.7508 987.994 46.212 987.994 Q52.6732 987.994 56.3653 985.352 Q60.0256 982.678 60.0256 978.031 Q60.0256 973.384 56.3653 970.742 Q52.6732 968.069 46.212 968.069 Z" fill="#000000" fill-rule="nonzero" fill-opacity="1" /><path clip-path="url(#clip480)" d="M28.3562 952.282 L28.3562 946.425 L64.0042 946.425 L64.0042 952.282 L28.3562 952.282 M14.479 952.282 L14.479 946.425 L21.895 946.425 L21.895 952.282 L14.479 952.282 Z" fill="#000000" fill-rule="nonzero" fill-opacity="1" /><path clip-path="url(#clip480)" d="M29.7248 908.518 L35.1993 908.518 Q33.8307 911 33.1623 913.515 Q32.4621 915.997 32.4621 918.544 Q32.4621 924.241 36.0905 927.392 Q39.6872 930.543 46.212 930.543 Q52.7369 930.543 56.3653 927.392 Q59.9619 924.241 59.9619 918.544 Q59.9619 915.997 59.2935 913.515 Q58.5933 911 57.2247 908.518 L62.6355 908.518 Q63.7814 910.968 64.3543 913.61 Q64.9272 916.22 64.9272 919.18 Q64.9272 927.233 59.8664 931.975 Q54.8057 936.718 46.212 936.718 Q37.491 936.718 32.4939 931.943 Q27.4968 927.137 27.4968 918.798 Q27.4968 916.093 28.0697 913.515 Q28.6108 910.937 29.7248 908.518 Z" fill="#000000" fill-rule="nonzero" fill-opacity="1" /><path clip-path="url(#clip480)" d="M16.4842 877.358 L16.4842 847.311 L21.895 847.311 L21.895 870.928 L35.9632 870.928 L35.9632 848.298 L41.3741 848.298 L41.3741 870.928 L58.5933 870.928 L58.5933 846.738 L64.0042 846.738 L64.0042 877.358 L16.4842 877.358 Z" fill="#000000" fill-rule="nonzero" fill-opacity="1" /><path clip-path="url(#clip480)" d="M28.3562 806.794 L45.7028 819.684 L64.0042 806.125 L64.0042 813.032 L49.9996 823.408 L64.0042 833.784 L64.0042 840.691 L45.3526 826.846 L28.3562 839.513 L28.3562 832.607 L41.0558 823.154 L28.3562 813.7 L28.3562 806.794 Z" fill="#000000" fill-rule="nonzero" fill-opacity="1" /><path clip-path="url(#clip480)" d="M58.657 792.184 L77.5631 792.184 L77.5631 798.073 L28.3562 798.073 L28.3562 792.184 L33.7671 792.184 Q30.5842 790.338 29.0564 787.537 Q27.4968 784.705 27.4968 780.79 Q27.4968 774.297 32.6531 770.255 Q37.8093 766.18 46.212 766.18 Q54.6147 766.18 59.771 770.255 Q64.9272 774.297 64.9272 780.79 Q64.9272 784.705 63.3994 787.537 Q61.8398 790.338 58.657 792.184 M46.212 772.26 Q39.7508 772.26 36.0905 774.933 Q32.3984 777.575 32.3984 782.222 Q32.3984 786.869 36.0905 789.543 Q39.7508 792.184 46.212 792.184 Q52.6732 792.184 56.3653 789.543 Q60.0256 786.869 60.0256 782.222 Q60.0256 777.575 56.3653 774.933 Q52.6732 772.26 46.212 772.26 Z" fill="#000000" fill-rule="nonzero" fill-opacity="1" /><path clip-path="url(#clip480)" d="M46.0847 740.272 Q46.0847 747.37 47.7079 750.107 Q49.3312 752.844 53.2461 752.844 Q56.3653 752.844 58.2114 750.807 Q60.0256 748.738 60.0256 745.205 Q60.0256 740.336 56.5881 737.407 Q53.1188 734.447 47.3897 734.447 L46.0847 734.447 L46.0847 740.272 M43.6657 728.591 L64.0042 728.591 L64.0042 734.447 L58.5933 734.447 Q61.8398 736.453 63.3994 739.445 Q64.9272 742.436 64.9272 746.765 Q64.9272 752.24 61.8716 755.486 Q58.7843 758.701 53.6281 758.701 Q47.6125 758.701 44.5569 754.69 Q41.5014 750.648 41.5014 742.659 L41.5014 734.447 L40.9285 734.447 Q36.8862 734.447 34.6901 737.121 Q32.4621 739.763 32.4621 744.569 Q32.4621 747.624 33.1941 750.521 Q33.9262 753.417 35.3903 756.091 L29.9795 756.091 Q28.7381 752.876 28.1334 749.852 Q27.4968 746.829 27.4968 743.964 Q27.4968 736.23 31.5072 732.41 Q35.5176 728.591 43.6657 728.591 Z" fill="#000000" fill-rule="nonzero" fill-opacity="1" /><path clip-path="url(#clip480)" d="M42.4881 686.896 L64.0042 686.896 L64.0042 692.752 L42.679 692.752 Q37.6183 692.752 35.1038 694.725 Q32.5894 696.699 32.5894 700.646 Q32.5894 705.388 35.6131 708.125 Q38.6368 710.862 43.8567 710.862 L64.0042 710.862 L64.0042 716.751 L28.3562 716.751 L28.3562 710.862 L33.8944 710.862 Q30.6797 708.762 29.0883 705.929 Q27.4968 703.064 27.4968 699.341 Q27.4968 693.198 31.3163 690.047 Q35.1038 686.896 42.4881 686.896 Z" fill="#000000" fill-rule="nonzero" fill-opacity="1" /><path clip-path="url(#clip480)" d="M29.4065 652.489 L34.9447 652.489 Q33.6716 654.972 33.035 657.645 Q32.3984 660.319 32.3984 663.183 Q32.3984 667.544 33.7352 669.74 Q35.072 671.904 37.7456 671.904 Q39.7826 671.904 40.9603 670.345 Q42.1061 668.785 43.1565 664.075 L43.6021 662.069 Q44.9389 655.831 47.3897 653.221 Q49.8086 650.579 54.1691 650.579 Q59.1344 650.579 62.0308 654.526 Q64.9272 658.441 64.9272 665.316 Q64.9272 668.18 64.3543 671.3 Q63.8132 674.387 62.6992 677.824 L56.6518 677.824 Q58.3387 674.578 59.198 671.427 Q60.0256 668.276 60.0256 665.189 Q60.0256 661.051 58.6251 658.823 Q57.1929 656.595 54.6147 656.595 Q52.2276 656.595 50.9545 658.218 Q49.6813 659.81 48.5037 665.252 L48.0262 667.289 Q46.8804 672.732 44.5251 675.151 Q42.138 677.57 38.0002 677.57 Q32.9713 677.57 30.2341 674.005 Q27.4968 670.44 27.4968 663.884 Q27.4968 660.637 27.9743 657.772 Q28.4517 654.908 29.4065 652.489 Z" fill="#000000" fill-rule="nonzero" fill-opacity="1" /><path clip-path="url(#clip480)" d="M28.3562 641.253 L28.3562 635.397 L64.0042 635.397 L64.0042 641.253 L28.3562 641.253 M14.479 641.253 L14.479 635.397 L21.895 635.397 L21.895 641.253 L14.479 641.253 Z" fill="#000000" fill-rule="nonzero" fill-opacity="1" /><path clip-path="url(#clip480)" d="M32.4621 609.329 Q32.4621 614.04 36.1542 616.777 Q39.8145 619.515 46.212 619.515 Q52.6095 619.515 56.3017 616.809 Q59.9619 614.072 59.9619 609.329 Q59.9619 604.651 56.2698 601.913 Q52.5777 599.176 46.212 599.176 Q39.8781 599.176 36.186 601.913 Q32.4621 604.651 32.4621 609.329 M27.4968 609.329 Q27.4968 601.691 32.4621 597.33 Q37.4273 592.97 46.212 592.97 Q54.9649 592.97 59.9619 597.33 Q64.9272 601.691 64.9272 609.329 Q64.9272 617 59.9619 621.361 Q54.9649 625.689 46.212 625.689 Q37.4273 625.689 32.4621 621.361 Q27.4968 617 27.4968 609.329 Z" fill="#000000" fill-rule="nonzero" fill-opacity="1" /><path clip-path="url(#clip480)" d="M42.4881 553.63 L64.0042 553.63 L64.0042 559.486 L42.679 559.486 Q37.6183 559.486 35.1038 561.459 Q32.5894 563.433 32.5894 567.379 Q32.5894 572.122 35.6131 574.859 Q38.6368 577.596 43.8567 577.596 L64.0042 577.596 L64.0042 583.485 L28.3562 583.485 L28.3562 577.596 L33.8944 577.596 Q30.6797 575.496 29.0883 572.663 Q27.4968 569.798 27.4968 566.074 Q27.4968 559.932 31.3163 556.781 Q35.1038 553.63 42.4881 553.63 Z" fill="#000000" fill-rule="nonzero" fill-opacity="1" /><path clip-path="url(#clip480)" d="M16.4842 520.973 L16.4842 493.665 L21.895 493.665 L21.895 514.544 L35.8996 514.544 L35.8996 495.702 L41.3104 495.702 L41.3104 514.544 L64.0042 514.544 L64.0042 520.973 L16.4842 520.973 Z" fill="#000000" fill-rule="nonzero" fill-opacity="1" /><path clip-path="url(#clip480)" d="M46.0847 473.517 Q46.0847 480.615 47.7079 483.352 Q49.3312 486.089 53.2461 486.089 Q56.3653 486.089 58.2114 484.052 Q60.0256 481.984 60.0256 478.451 Q60.0256 473.581 56.5881 470.653 Q53.1188 467.692 47.3897 467.692 L46.0847 467.692 L46.0847 473.517 M43.6657 461.836 L64.0042 461.836 L64.0042 467.692 L58.5933 467.692 Q61.8398 469.698 63.3994 472.69 Q64.9272 475.681 64.9272 480.01 Q64.9272 485.485 61.8716 488.731 Q58.7843 491.946 53.6281 491.946 Q47.6125 491.946 44.5569 487.935 Q41.5014 483.893 41.5014 475.904 L41.5014 467.692 L40.9285 467.692 Q36.8862 467.692 34.6901 470.366 Q32.4621 473.008 32.4621 477.814 Q32.4621 480.87 33.1941 483.766 Q33.9262 486.662 35.3903 489.336 L29.9795 489.336 Q28.7381 486.121 28.1334 483.098 Q27.4968 480.074 27.4968 477.209 Q27.4968 469.475 31.5072 465.655 Q35.5176 461.836 43.6657 461.836 Z" fill="#000000" fill-rule="nonzero" fill-opacity="1" /><path clip-path="url(#clip480)" d="M29.7248 424.119 L35.1993 424.119 Q33.8307 426.602 33.1623 429.116 Q32.4621 431.599 32.4621 434.145 Q32.4621 439.843 36.0905 442.994 Q39.6872 446.145 46.212 446.145 Q52.7369 446.145 56.3653 442.994 Q59.9619 439.843 59.9619 434.145 Q59.9619 431.599 59.2935 429.116 Q58.5933 426.602 57.2247 424.119 L62.6355 424.119 Q63.7814 426.57 64.3543 429.212 Q64.9272 431.822 64.9272 434.782 Q64.9272 442.834 59.8664 447.577 Q54.8057 452.319 46.212 452.319 Q37.491 452.319 32.4939 447.545 Q27.4968 442.739 27.4968 434.4 Q27.4968 431.694 28.0697 429.116 Q28.6108 426.538 29.7248 424.119 Z" fill="#000000" fill-rule="nonzero" fill-opacity="1" /><path clip-path="url(#clip480)" d="M18.2347 408.141 L28.3562 408.141 L28.3562 396.078 L32.9077 396.078 L32.9077 408.141 L52.2594 408.141 Q56.6199 408.141 57.8613 406.964 Q59.1026 405.754 59.1026 402.094 L59.1026 396.078 L64.0042 396.078 L64.0042 402.094 Q64.0042 408.873 61.4897 411.451 Q58.9434 414.03 52.2594 414.03 L32.9077 414.03 L32.9077 418.326 L28.3562 418.326 L28.3562 414.03 L18.2347 414.03 L18.2347 408.141 Z" fill="#000000" fill-rule="nonzero" fill-opacity="1" /><path clip-path="url(#clip480)" d="M32.4621 374.562 Q32.4621 379.273 36.1542 382.01 Q39.8145 384.747 46.212 384.747 Q52.6095 384.747 56.3017 382.042 Q59.9619 379.305 59.9619 374.562 Q59.9619 369.883 56.2698 367.146 Q52.5777 364.409 46.212 364.409 Q39.8781 364.409 36.186 367.146 Q32.4621 369.883 32.4621 374.562 M27.4968 374.562 Q27.4968 366.923 32.4621 362.563 Q37.4273 358.202 46.212 358.202 Q54.9649 358.202 59.9619 362.563 Q64.9272 366.923 64.9272 374.562 Q64.9272 382.233 59.9619 386.593 Q54.9649 390.922 46.212 390.922 Q37.4273 390.922 32.4621 386.593 Q27.4968 382.233 27.4968 374.562 Z" fill="#000000" fill-rule="nonzero" fill-opacity="1" /><path clip-path="url(#clip480)" d="M33.8307 327.838 Q33.2578 328.825 33.0032 330.002 Q32.7167 331.148 32.7167 332.549 Q32.7167 337.514 35.9632 340.187 Q39.1779 342.829 45.2253 342.829 L64.0042 342.829 L64.0042 348.717 L28.3562 348.717 L28.3562 342.829 L33.8944 342.829 Q30.6479 340.983 29.0883 338.023 Q27.4968 335.063 27.4968 330.83 Q27.4968 330.225 27.5923 329.493 Q27.656 328.761 27.8151 327.87 L33.8307 327.838 Z" fill="#000000" fill-rule="nonzero" fill-opacity="1" /><path clip-path="url(#clip480)" d="M266.395 12.096 L274.578 12.096 L274.578 72.576 L266.395 72.576 L266.395 12.096 Z" fill="#000000" fill-rule="nonzero" fill-opacity="1" /><path clip-path="url(#clip480)" d="M319.462 28.5427 L319.462 35.5912 Q316.302 33.9709 312.899 33.1607 Q309.496 32.3505 305.85 32.3505 Q300.301 32.3505 297.506 34.0519 Q294.751 35.7533 294.751 39.156 Q294.751 41.7486 296.736 43.2475 Q298.721 44.7058 304.716 46.0426 L307.268 46.6097 Q315.208 48.3111 318.53 51.4303 Q321.892 54.509 321.892 60.0587 Q321.892 66.3781 316.869 70.0644 Q311.886 73.7508 303.136 73.7508 Q299.491 73.7508 295.521 73.0216 Q291.591 72.3329 287.216 70.9151 L287.216 63.2184 Q291.348 65.3654 295.359 66.4591 Q299.369 67.5124 303.298 67.5124 Q308.565 67.5124 311.4 65.73 Q314.236 63.9071 314.236 60.6258 Q314.236 57.5877 312.17 55.9673 Q310.144 54.3469 303.217 52.8481 L300.625 52.2405 Q293.698 50.7821 290.619 47.7845 Q287.54 44.7463 287.54 39.4801 Q287.54 33.0797 292.077 29.5959 Q296.614 26.1121 304.959 26.1121 Q309.091 26.1121 312.737 26.7198 Q316.383 27.3274 319.462 28.5427 Z" fill="#000000" fill-rule="nonzero" fill-opacity="1" /><path clip-path="url(#clip480)" d="M372.569 48.0275 L372.569 51.6733 L338.298 51.6733 Q338.784 59.3701 342.916 63.421 Q347.089 67.4314 354.502 67.4314 Q358.796 67.4314 362.806 66.3781 Q366.857 65.3249 370.827 63.2184 L370.827 70.267 Q366.817 71.9684 362.604 72.8596 Q358.391 73.7508 354.056 73.7508 Q343.2 73.7508 336.84 67.4314 Q330.52 61.1119 330.52 50.3365 Q330.52 39.1965 336.516 32.6746 Q342.552 26.1121 352.76 26.1121 Q361.915 26.1121 367.222 32.0264 Q372.569 37.9003 372.569 48.0275 M365.115 45.84 Q365.034 39.7232 361.672 36.0774 Q358.35 32.4315 352.841 32.4315 Q346.603 32.4315 342.835 35.9558 Q339.108 39.4801 338.541 45.8805 L365.115 45.84 Z" fill="#000000" fill-rule="nonzero" fill-opacity="1" /><path clip-path="url(#clip480)" d="M422.517 45.1919 L422.517 72.576 L415.063 72.576 L415.063 45.4349 Q415.063 38.994 412.551 35.7938 Q410.04 32.5936 405.017 32.5936 Q398.981 32.5936 395.497 36.4419 Q392.013 40.2903 392.013 46.9338 L392.013 72.576 L384.519 72.576 L384.519 27.2059 L392.013 27.2059 L392.013 34.2544 Q394.687 30.163 398.292 28.1376 Q401.938 26.1121 406.677 26.1121 Q414.496 26.1121 418.506 30.9732 Q422.517 35.7938 422.517 45.1919 Z" fill="#000000" fill-rule="nonzero" fill-opacity="1" /><path clip-path="url(#clip480)" d="M444.756 14.324 L444.756 27.2059 L460.109 27.2059 L460.109 32.9987 L444.756 32.9987 L444.756 57.6282 Q444.756 63.1779 446.255 64.7578 Q447.794 66.3376 452.453 66.3376 L460.109 66.3376 L460.109 72.576 L452.453 72.576 Q443.824 72.576 440.543 69.3758 Q437.262 66.1351 437.262 57.6282 L437.262 32.9987 L431.793 32.9987 L431.793 27.2059 L437.262 27.2059 L437.262 14.324 L444.756 14.324 Z" fill="#000000" fill-rule="nonzero" fill-opacity="1" /><path clip-path="url(#clip480)" d="M496.202 34.1734 Q494.947 33.4443 493.448 33.1202 Q491.99 32.7556 490.207 32.7556 Q483.888 32.7556 480.485 36.8875 Q477.123 40.9789 477.123 48.6757 L477.123 72.576 L469.629 72.576 L469.629 27.2059 L477.123 27.2059 L477.123 34.2544 Q479.472 30.1225 483.24 28.1376 Q487.007 26.1121 492.395 26.1121 Q493.164 26.1121 494.096 26.2337 Q495.028 26.3147 496.162 26.5172 L496.202 34.1734 Z" fill="#000000" fill-rule="nonzero" fill-opacity="1" /><path clip-path="url(#clip480)" d="M519.779 32.4315 Q513.783 32.4315 510.3 37.1306 Q506.816 41.7891 506.816 49.9314 Q506.816 58.0738 510.259 62.7728 Q513.743 67.4314 519.779 67.4314 Q525.734 67.4314 529.217 62.7323 Q532.701 58.0333 532.701 49.9314 Q532.701 41.8701 529.217 37.1711 Q525.734 32.4315 519.779 32.4315 M519.779 26.1121 Q529.501 26.1121 535.051 32.4315 Q540.6 38.7509 540.6 49.9314 Q540.6 61.0714 535.051 67.4314 Q529.501 73.7508 519.779 73.7508 Q510.016 73.7508 504.466 67.4314 Q498.957 61.0714 498.957 49.9314 Q498.957 38.7509 504.466 32.4315 Q510.016 26.1121 519.779 26.1121 Z" fill="#000000" fill-rule="nonzero" fill-opacity="1" /><path clip-path="url(#clip480)" d="M560.166 65.7705 L560.166 89.8329 L552.672 89.8329 L552.672 27.2059 L560.166 27.2059 L560.166 34.0924 Q562.516 30.0415 566.081 28.0971 Q569.686 26.1121 574.668 26.1121 Q582.932 26.1121 588.077 32.6746 Q593.262 39.2371 593.262 49.9314 Q593.262 60.6258 588.077 67.1883 Q582.932 73.7508 574.668 73.7508 Q569.686 73.7508 566.081 71.8063 Q562.516 69.8214 560.166 65.7705 M585.525 49.9314 Q585.525 41.7081 582.122 37.0496 Q578.76 32.3505 572.846 32.3505 Q566.931 32.3505 563.529 37.0496 Q560.166 41.7081 560.166 49.9314 Q560.166 58.1548 563.529 62.8538 Q566.931 67.5124 572.846 67.5124 Q578.76 67.5124 582.122 62.8538 Q585.525 58.1548 585.525 49.9314 Z" fill="#000000" fill-rule="nonzero" fill-opacity="1" /><path clip-path="url(#clip480)" d="M605.617 27.2059 L613.071 27.2059 L613.071 72.576 L605.617 72.576 L605.617 27.2059 M605.617 9.54393 L613.071 9.54393 L613.071 18.9825 L605.617 18.9825 L605.617 9.54393 Z" fill="#000000" fill-rule="nonzero" fill-opacity="1" /><path clip-path="url(#clip480)" d="M661.317 28.9478 L661.317 35.9153 Q658.158 34.1734 654.957 33.3227 Q651.798 32.4315 648.557 32.4315 Q641.306 32.4315 637.295 37.0496 Q633.285 41.6271 633.285 49.9314 Q633.285 58.2358 637.295 62.8538 Q641.306 67.4314 648.557 67.4314 Q651.798 67.4314 654.957 66.5807 Q658.158 65.6895 661.317 63.9476 L661.317 70.8341 Q658.198 72.2924 654.836 73.0216 Q651.514 73.7508 647.747 73.7508 Q637.498 73.7508 631.462 67.3098 Q625.426 60.8689 625.426 49.9314 Q625.426 38.832 631.503 32.472 Q637.62 26.1121 648.233 26.1121 Q651.676 26.1121 654.957 26.8413 Q658.239 27.5299 661.317 28.9478 Z" fill="#000000" fill-rule="nonzero" fill-opacity="1" /><path clip-path="url(#clip480)" d="M700.976 12.096 L739.216 12.096 L739.216 18.9825 L709.159 18.9825 L709.159 36.8875 L737.96 36.8875 L737.96 43.7741 L709.159 43.7741 L709.159 65.6895 L739.945 65.6895 L739.945 72.576 L700.976 72.576 L700.976 12.096 Z" fill="#000000" fill-rule="nonzero" fill-opacity="1" /><path clip-path="url(#clip480)" d="M790.784 27.2059 L774.378 49.2833 L791.635 72.576 L782.844 72.576 L769.639 54.752 L756.433 72.576 L747.642 72.576 L765.264 48.8377 L749.141 27.2059 L757.931 27.2059 L769.963 43.369 L781.994 27.2059 L790.784 27.2059 Z" fill="#000000" fill-rule="nonzero" fill-opacity="1" /><path clip-path="url(#clip480)" d="M809.378 65.7705 L809.378 89.8329 L801.884 89.8329 L801.884 27.2059 L809.378 27.2059 L809.378 34.0924 Q811.727 30.0415 815.292 28.0971 Q818.898 26.1121 823.88 26.1121 Q832.144 26.1121 837.289 32.6746 Q842.474 39.2371 842.474 49.9314 Q842.474 60.6258 837.289 67.1883 Q832.144 73.7508 823.88 73.7508 Q818.898 73.7508 815.292 71.8063 Q811.727 69.8214 809.378 65.7705 M834.737 49.9314 Q834.737 41.7081 831.334 37.0496 Q827.972 32.3505 822.057 32.3505 Q816.143 32.3505 812.74 37.0496 Q809.378 41.7081 809.378 49.9314 Q809.378 58.1548 812.74 62.8538 Q816.143 67.5124 822.057 67.5124 Q827.972 67.5124 831.334 62.8538 Q834.737 58.1548 834.737 49.9314 Z" fill="#000000" fill-rule="nonzero" fill-opacity="1" /><path clip-path="url(#clip480)" d="M875.448 49.7694 Q866.415 49.7694 862.931 51.8354 Q859.447 53.9013 859.447 58.8839 Q859.447 62.8538 862.04 65.2034 Q864.673 67.5124 869.169 67.5124 Q875.367 67.5124 879.094 63.1374 Q882.861 58.7219 882.861 51.4303 L882.861 49.7694 L875.448 49.7694 M890.315 46.6907 L890.315 72.576 L882.861 72.576 L882.861 65.6895 Q880.309 69.8214 876.501 71.8063 Q872.694 73.7508 867.184 73.7508 Q860.217 73.7508 856.085 69.8619 Q851.993 65.9325 851.993 59.3701 Q851.993 51.7138 857.098 47.825 Q862.242 43.9361 872.41 43.9361 L882.861 43.9361 L882.861 43.2069 Q882.861 38.0623 879.459 35.2672 Q876.096 32.4315 869.979 32.4315 Q866.091 32.4315 862.404 33.3632 Q858.718 34.295 855.315 36.1584 L855.315 29.2718 Q859.407 27.692 863.255 26.9223 Q867.103 26.1121 870.749 26.1121 Q880.593 26.1121 885.454 31.2163 Q890.315 36.3204 890.315 46.6907 Z" fill="#000000" fill-rule="nonzero" fill-opacity="1" /><path clip-path="url(#clip480)" d="M943.382 45.1919 L943.382 72.576 L935.928 72.576 L935.928 45.4349 Q935.928 38.994 933.417 35.7938 Q930.905 32.5936 925.882 32.5936 Q919.846 32.5936 916.362 36.4419 Q912.878 40.2903 912.878 46.9338 L912.878 72.576 L905.384 72.576 L905.384 27.2059 L912.878 27.2059 L912.878 34.2544 Q915.552 30.163 919.157 28.1376 Q922.803 26.1121 927.543 26.1121 Q935.361 26.1121 939.371 30.9732 Q943.382 35.7938 943.382 45.1919 Z" fill="#000000" fill-rule="nonzero" fill-opacity="1" /><path clip-path="url(#clip480)" d="M987.172 28.5427 L987.172 35.5912 Q984.012 33.9709 980.61 33.1607 Q977.207 32.3505 973.561 32.3505 Q968.011 32.3505 965.216 34.0519 Q962.462 35.7533 962.462 39.156 Q962.462 41.7486 964.446 43.2475 Q966.431 44.7058 972.427 46.0426 L974.979 46.6097 Q982.919 48.3111 986.24 51.4303 Q989.603 54.509 989.603 60.0587 Q989.603 66.3781 984.579 70.0644 Q979.597 73.7508 970.847 73.7508 Q967.201 73.7508 963.231 73.0216 Q959.302 72.3329 954.927 70.9151 L954.927 63.2184 Q959.059 65.3654 963.069 66.4591 Q967.08 67.5124 971.009 67.5124 Q976.275 67.5124 979.111 65.73 Q981.946 63.9071 981.946 60.6258 Q981.946 57.5877 979.88 55.9673 Q977.855 54.3469 970.928 52.8481 L968.335 52.2405 Q961.408 50.7821 958.33 47.7845 Q955.251 44.7463 955.251 39.4801 Q955.251 33.0797 959.788 29.5959 Q964.325 26.1121 972.67 26.1121 Q976.802 26.1121 980.448 26.7198 Q984.093 27.3274 987.172 28.5427 Z" fill="#000000" fill-rule="nonzero" fill-opacity="1" /><path clip-path="url(#clip480)" d="M1001.47 27.2059 L1008.93 27.2059 L1008.93 72.576 L1001.47 72.576 L1001.47 27.2059 M1001.47 9.54393 L1008.93 9.54393 L1008.93 18.9825 L1001.47 18.9825 L1001.47 9.54393 Z" fill="#000000" fill-rule="nonzero" fill-opacity="1" /><path clip-path="url(#clip480)" d="M1042.1 32.4315 Q1036.11 32.4315 1032.62 37.1306 Q1029.14 41.7891 1029.14 49.9314 Q1029.14 58.0738 1032.58 62.7728 Q1036.07 67.4314 1042.1 67.4314 Q1048.06 67.4314 1051.54 62.7323 Q1055.02 58.0333 1055.02 49.9314 Q1055.02 41.8701 1051.54 37.1711 Q1048.06 32.4315 1042.1 32.4315 M1042.1 26.1121 Q1051.82 26.1121 1057.37 32.4315 Q1062.92 38.7509 1062.92 49.9314 Q1062.92 61.0714 1057.37 67.4314 Q1051.82 73.7508 1042.1 73.7508 Q1032.34 73.7508 1026.79 67.4314 Q1021.28 61.0714 1021.28 49.9314 Q1021.28 38.7509 1026.79 32.4315 Q1032.34 26.1121 1042.1 26.1121 Z" fill="#000000" fill-rule="nonzero" fill-opacity="1" /><path clip-path="url(#clip480)" d="M1112.99 45.1919 L1112.99 72.576 L1105.54 72.576 L1105.54 45.4349 Q1105.54 38.994 1103.03 35.7938 Q1100.52 32.5936 1095.49 32.5936 Q1089.46 32.5936 1085.97 36.4419 Q1082.49 40.2903 1082.49 46.9338 L1082.49 72.576 L1075 72.576 L1075 27.2059 L1082.49 27.2059 L1082.49 34.2544 Q1085.16 30.163 1088.77 28.1376 Q1092.41 26.1121 1097.15 26.1121 Q1104.97 26.1121 1108.98 30.9732 Q1112.99 35.7938 1112.99 45.1919 Z" fill="#000000" fill-rule="nonzero" fill-opacity="1" /><path clip-path="url(#clip480)" d="M1154.56 12.096 L1189.31 12.096 L1189.31 18.9825 L1162.74 18.9825 L1162.74 36.8065 L1186.72 36.8065 L1186.72 43.6931 L1162.74 43.6931 L1162.74 72.576 L1154.56 72.576 L1154.56 12.096 Z" fill="#000000" fill-rule="nonzero" fill-opacity="1" /><path clip-path="url(#clip480)" d="M1214.95 49.7694 Q1205.92 49.7694 1202.44 51.8354 Q1198.95 53.9013 1198.95 58.8839 Q1198.95 62.8538 1201.55 65.2034 Q1204.18 67.5124 1208.68 67.5124 Q1214.87 67.5124 1218.6 63.1374 Q1222.37 58.7219 1222.37 51.4303 L1222.37 49.7694 L1214.95 49.7694 M1229.82 46.6907 L1229.82 72.576 L1222.37 72.576 L1222.37 65.6895 Q1219.82 69.8214 1216.01 71.8063 Q1212.2 73.7508 1206.69 73.7508 Q1199.72 73.7508 1195.59 69.8619 Q1191.5 65.9325 1191.5 59.3701 Q1191.5 51.7138 1196.6 47.825 Q1201.75 43.9361 1211.92 43.9361 L1222.37 43.9361 L1222.37 43.2069 Q1222.37 38.0623 1218.96 35.2672 Q1215.6 32.4315 1209.49 32.4315 Q1205.6 32.4315 1201.91 33.3632 Q1198.22 34.295 1194.82 36.1584 L1194.82 29.2718 Q1198.91 27.692 1202.76 26.9223 Q1206.61 26.1121 1210.26 26.1121 Q1220.1 26.1121 1224.96 31.2163 Q1229.82 36.3204 1229.82 46.6907 Z" fill="#000000" fill-rule="nonzero" fill-opacity="1" /><path clip-path="url(#clip480)" d="M1277.82 28.9478 L1277.82 35.9153 Q1274.66 34.1734 1271.46 33.3227 Q1268.3 32.4315 1265.06 32.4315 Q1257.81 32.4315 1253.8 37.0496 Q1249.79 41.6271 1249.79 49.9314 Q1249.79 58.2358 1253.8 62.8538 Q1257.81 67.4314 1265.06 67.4314 Q1268.3 67.4314 1271.46 66.5807 Q1274.66 65.6895 1277.82 63.9476 L1277.82 70.8341 Q1274.71 72.2924 1271.34 73.0216 Q1268.02 73.7508 1264.25 73.7508 Q1254.01 73.7508 1247.97 67.3098 Q1241.93 60.8689 1241.93 49.9314 Q1241.93 38.832 1248.01 32.472 Q1254.13 26.1121 1264.74 26.1121 Q1268.18 26.1121 1271.46 26.8413 Q1274.75 27.5299 1277.82 28.9478 Z" fill="#000000" fill-rule="nonzero" fill-opacity="1" /><path clip-path="url(#clip480)" d="M1298.16 14.324 L1298.16 27.2059 L1313.51 27.2059 L1313.51 32.9987 L1298.16 32.9987 L1298.16 57.6282 Q1298.16 63.1779 1299.66 64.7578 Q1301.2 66.3376 1305.86 66.3376 L1313.51 66.3376 L1313.51 72.576 L1305.86 72.576 Q1297.23 72.576 1293.95 69.3758 Q1290.67 66.1351 1290.67 57.6282 L1290.67 32.9987 L1285.2 32.9987 L1285.2 27.2059 L1290.67 27.2059 L1290.67 14.324 L1298.16 14.324 Z" fill="#000000" fill-rule="nonzero" fill-opacity="1" /><path clip-path="url(#clip480)" d="M1340.9 32.4315 Q1334.9 32.4315 1331.42 37.1306 Q1327.93 41.7891 1327.93 49.9314 Q1327.93 58.0738 1331.38 62.7728 Q1334.86 67.4314 1340.9 67.4314 Q1346.85 67.4314 1350.34 62.7323 Q1353.82 58.0333 1353.82 49.9314 Q1353.82 41.8701 1350.34 37.1711 Q1346.85 32.4315 1340.9 32.4315 M1340.9 26.1121 Q1350.62 26.1121 1356.17 32.4315 Q1361.72 38.7509 1361.72 49.9314 Q1361.72 61.0714 1356.17 67.4314 Q1350.62 73.7508 1340.9 73.7508 Q1331.13 73.7508 1325.58 67.4314 Q1320.08 61.0714 1320.08 49.9314 Q1320.08 38.7509 1325.58 32.4315 Q1331.13 26.1121 1340.9 26.1121 Z" fill="#000000" fill-rule="nonzero" fill-opacity="1" /><path clip-path="url(#clip480)" d="M1400.36 34.1734 Q1399.11 33.4443 1397.61 33.1202 Q1396.15 32.7556 1394.37 32.7556 Q1388.05 32.7556 1384.65 36.8875 Q1381.28 40.9789 1381.28 48.6757 L1381.28 72.576 L1373.79 72.576 L1373.79 27.2059 L1381.28 27.2059 L1381.28 34.2544 Q1383.63 30.1225 1387.4 28.1376 Q1391.17 26.1121 1396.56 26.1121 Q1397.33 26.1121 1398.26 26.2337 Q1399.19 26.3147 1400.32 26.5172 L1400.36 34.1734 Z" fill="#000000" fill-rule="nonzero" fill-opacity="1" /><path clip-path="url(#clip480)" d="M1437.11 28.5427 L1437.11 35.5912 Q1433.95 33.9709 1430.54 33.1607 Q1427.14 32.3505 1423.49 32.3505 Q1417.95 32.3505 1415.15 34.0519 Q1412.4 35.7533 1412.4 39.156 Q1412.4 41.7486 1414.38 43.2475 Q1416.37 44.7058 1422.36 46.0426 L1424.91 46.6097 Q1432.85 48.3111 1436.17 51.4303 Q1439.54 54.509 1439.54 60.0587 Q1439.54 66.3781 1434.51 70.0644 Q1429.53 73.7508 1420.78 73.7508 Q1417.14 73.7508 1413.17 73.0216 Q1409.24 72.3329 1404.86 70.9151 L1404.86 63.2184 Q1408.99 65.3654 1413 66.4591 Q1417.01 67.5124 1420.94 67.5124 Q1426.21 67.5124 1429.04 65.73 Q1431.88 63.9071 1431.88 60.6258 Q1431.88 57.5877 1429.81 55.9673 Q1427.79 54.3469 1420.86 52.8481 L1418.27 52.2405 Q1411.34 50.7821 1408.26 47.7845 Q1405.18 44.7463 1405.18 39.4801 Q1405.18 33.0797 1409.72 29.5959 Q1414.26 26.1121 1422.6 26.1121 Q1426.74 26.1121 1430.38 26.7198 Q1434.03 27.3274 1437.11 28.5427 Z" fill="#000000" fill-rule="nonzero" fill-opacity="1" /><path clip-path="url(#clip480)" d="M1500.75 9.54393 L1500.75 15.7418 L1493.62 15.7418 Q1489.61 15.7418 1488.03 17.3622 Q1486.49 18.9825 1486.49 23.1955 L1486.49 27.2059 L1498.76 27.2059 L1498.76 32.9987 L1486.49 32.9987 L1486.49 72.576 L1478.99 72.576 L1478.99 32.9987 L1471.86 32.9987 L1471.86 27.2059 L1478.99 27.2059 L1478.99 24.0462 Q1478.99 16.471 1482.52 13.0277 Q1486.04 9.54393 1493.7 9.54393 L1500.75 9.54393 Z" fill="#000000" fill-rule="nonzero" fill-opacity="1" /><path clip-path="url(#clip480)" d="M1524.57 32.4315 Q1518.57 32.4315 1515.09 37.1306 Q1511.6 41.7891 1511.6 49.9314 Q1511.6 58.0738 1515.05 62.7728 Q1518.53 67.4314 1524.57 67.4314 Q1530.52 67.4314 1534 62.7323 Q1537.49 58.0333 1537.49 49.9314 Q1537.49 41.8701 1534 37.1711 Q1530.52 32.4315 1524.57 32.4315 M1524.57 26.1121 Q1534.29 26.1121 1539.84 32.4315 Q1545.39 38.7509 1545.39 49.9314 Q1545.39 61.0714 1539.84 67.4314 Q1534.29 73.7508 1524.57 73.7508 Q1514.8 73.7508 1509.25 67.4314 Q1503.74 61.0714 1503.74 49.9314 Q1503.74 38.7509 1509.25 32.4315 Q1514.8 26.1121 1524.57 26.1121 Z" fill="#000000" fill-rule="nonzero" fill-opacity="1" /><path clip-path="url(#clip480)" d="M1584.03 34.1734 Q1582.78 33.4443 1581.28 33.1202 Q1579.82 32.7556 1578.04 32.7556 Q1571.72 32.7556 1568.31 36.8875 Q1564.95 40.9789 1564.95 48.6757 L1564.95 72.576 L1557.46 72.576 L1557.46 27.2059 L1564.95 27.2059 L1564.95 34.2544 Q1567.3 30.1225 1571.07 28.1376 Q1574.84 26.1121 1580.22 26.1121 Q1580.99 26.1121 1581.93 26.2337 Q1582.86 26.3147 1583.99 26.5172 L1584.03 34.1734 Z" fill="#000000" fill-rule="nonzero" fill-opacity="1" /><path clip-path="url(#clip480)" d="M1618.55 12.096 L1656.79 12.096 L1656.79 18.9825 L1626.73 18.9825 L1626.73 36.8875 L1655.53 36.8875 L1655.53 43.7741 L1626.73 43.7741 L1626.73 65.6895 L1657.52 65.6895 L1657.52 72.576 L1618.55 72.576 L1618.55 12.096 Z" fill="#000000" fill-rule="nonzero" fill-opacity="1" /><path clip-path="url(#clip480)" d="M1678.01 14.324 L1678.01 27.2059 L1693.37 27.2059 L1693.37 32.9987 L1678.01 32.9987 L1678.01 57.6282 Q1678.01 63.1779 1679.51 64.7578 Q1681.05 66.3376 1685.71 66.3376 L1693.37 66.3376 L1693.37 72.576 L1685.71 72.576 Q1677.08 72.576 1673.8 69.3758 Q1670.52 66.1351 1670.52 57.6282 L1670.52 32.9987 L1665.05 32.9987 L1665.05 27.2059 L1670.52 27.2059 L1670.52 14.324 L1678.01 14.324 Z" fill="#000000" fill-rule="nonzero" fill-opacity="1" /><path clip-path="url(#clip480)" d="M1740.88 45.1919 L1740.88 72.576 L1733.43 72.576 L1733.43 45.4349 Q1733.43 38.994 1730.92 35.7938 Q1728.41 32.5936 1723.38 32.5936 Q1717.35 32.5936 1713.86 36.4419 Q1710.38 40.2903 1710.38 46.9338 L1710.38 72.576 L1702.89 72.576 L1702.89 9.54393 L1710.38 9.54393 L1710.38 34.2544 Q1713.05 30.163 1716.66 28.1376 Q1720.3 26.1121 1725.04 26.1121 Q1732.86 26.1121 1736.87 30.9732 Q1740.88 35.7938 1740.88 45.1919 Z" fill="#000000" fill-rule="nonzero" fill-opacity="1" /><path clip-path="url(#clip480)" d="M1776.37 49.7694 Q1767.34 49.7694 1763.85 51.8354 Q1760.37 53.9013 1760.37 58.8839 Q1760.37 62.8538 1762.96 65.2034 Q1765.59 67.5124 1770.09 67.5124 Q1776.29 67.5124 1780.02 63.1374 Q1783.78 58.7219 1783.78 51.4303 L1783.78 49.7694 L1776.37 49.7694 M1791.24 46.6907 L1791.24 72.576 L1783.78 72.576 L1783.78 65.6895 Q1781.23 69.8214 1777.42 71.8063 Q1773.61 73.7508 1768.11 73.7508 Q1761.14 73.7508 1757.01 69.8619 Q1752.91 65.9325 1752.91 59.3701 Q1752.91 51.7138 1758.02 47.825 Q1763.16 43.9361 1773.33 43.9361 L1783.78 43.9361 L1783.78 43.2069 Q1783.78 38.0623 1780.38 35.2672 Q1777.02 32.4315 1770.9 32.4315 Q1767.01 32.4315 1763.33 33.3632 Q1759.64 34.295 1756.24 36.1584 L1756.24 29.2718 Q1760.33 27.692 1764.18 26.9223 Q1768.02 26.1121 1771.67 26.1121 Q1781.51 26.1121 1786.37 31.2163 Q1791.24 36.3204 1791.24 46.6907 Z" fill="#000000" fill-rule="nonzero" fill-opacity="1" /><path clip-path="url(#clip480)" d="M1844.3 45.1919 L1844.3 72.576 L1836.85 72.576 L1836.85 45.4349 Q1836.85 38.994 1834.34 35.7938 Q1831.83 32.5936 1826.8 32.5936 Q1820.77 32.5936 1817.28 36.4419 Q1813.8 40.2903 1813.8 46.9338 L1813.8 72.576 L1806.31 72.576 L1806.31 27.2059 L1813.8 27.2059 L1813.8 34.2544 Q1816.47 30.163 1820.08 28.1376 Q1823.72 26.1121 1828.46 26.1121 Q1836.28 26.1121 1840.29 30.9732 Q1844.3 35.7938 1844.3 45.1919 Z" fill="#000000" fill-rule="nonzero" fill-opacity="1" /><path clip-path="url(#clip480)" d="M1897.98 48.0275 L1897.98 51.6733 L1863.71 51.6733 Q1864.19 59.3701 1868.32 63.421 Q1872.5 67.4314 1879.91 67.4314 Q1884.2 67.4314 1888.21 66.3781 Q1892.27 65.3249 1896.24 63.2184 L1896.24 70.267 Q1892.23 71.9684 1888.01 72.8596 Q1883.8 73.7508 1879.46 73.7508 Q1868.61 73.7508 1862.25 67.4314 Q1855.93 61.1119 1855.93 50.3365 Q1855.93 39.1965 1861.92 32.6746 Q1867.96 26.1121 1878.17 26.1121 Q1887.32 26.1121 1892.63 32.0264 Q1897.98 37.9003 1897.98 48.0275 M1890.52 45.84 Q1890.44 39.7232 1887.08 36.0774 Q1883.76 32.4315 1878.25 32.4315 Q1872.01 32.4315 1868.24 35.9558 Q1864.52 39.4801 1863.95 45.8805 L1890.52 45.84 Z" fill="#000000" fill-rule="nonzero" fill-opacity="1" /><path clip-path="url(#clip480)" d="M1912.12 62.2867 L1920.66 62.2867 L1920.66 69.2543 L1914.02 82.2172 L1908.79 82.2172 L1912.12 69.2543 L1912.12 62.2867 Z" fill="#000000" fill-rule="nonzero" fill-opacity="1" /><path clip-path="url(#clip480)" d="M1983.57 49.7694 Q1974.54 49.7694 1971.06 51.8354 Q1967.57 53.9013 1967.57 58.8839 Q1967.57 62.8538 1970.16 65.2034 Q1972.8 67.5124 1977.29 67.5124 Q1983.49 67.5124 1987.22 63.1374 Q1990.99 58.7219 1990.99 51.4303 L1990.99 49.7694 L1983.57 49.7694 M1998.44 46.6907 L1998.44 72.576 L1990.99 72.576 L1990.99 65.6895 Q1988.43 69.8214 1984.63 71.8063 Q1980.82 73.7508 1975.31 73.7508 Q1968.34 73.7508 1964.21 69.8619 Q1960.12 65.9325 1960.12 59.3701 Q1960.12 51.7138 1965.22 47.825 Q1970.37 43.9361 1980.53 43.9361 L1990.99 43.9361 L1990.99 43.2069 Q1990.99 38.0623 1987.58 35.2672 Q1984.22 32.4315 1978.1 32.4315 Q1974.22 32.4315 1970.53 33.3632 Q1966.84 34.295 1963.44 36.1584 L1963.44 29.2718 Q1967.53 27.692 1971.38 26.9223 Q1975.23 26.1121 1978.87 26.1121 Q1988.72 26.1121 1993.58 31.2163 Q1998.44 36.3204 1998.44 46.6907 Z" fill="#000000" fill-rule="nonzero" fill-opacity="1" /><path clip-path="url(#clip480)" d="M2021.17 14.324 L2021.17 27.2059 L2036.52 27.2059 L2036.52 32.9987 L2021.17 32.9987 L2021.17 57.6282 Q2021.17 63.1779 2022.66 64.7578 Q2024.2 66.3376 2028.86 66.3376 L2036.52 66.3376 L2036.52 72.576 L2028.86 72.576 Q2020.23 72.576 2016.95 69.3758 Q2013.67 66.1351 2013.67 57.6282 L2013.67 32.9987 L2008.2 32.9987 L2008.2 27.2059 L2013.67 27.2059 L2013.67 14.324 L2021.17 14.324 Z" fill="#000000" fill-rule="nonzero" fill-opacity="1" /><path clip-path="url(#clip480)" d="M2096.23 19.2256 L2075.57 51.5113 L2096.23 51.5113 L2096.23 19.2256 M2094.08 12.096 L2104.37 12.096 L2104.37 51.5113 L2113 51.5113 L2113 58.3168 L2104.37 58.3168 L2104.37 72.576 L2096.23 72.576 L2096.23 58.3168 L2068.93 58.3168 L2068.93 50.4176 L2094.08 12.096 Z" fill="#000000" fill-rule="nonzero" fill-opacity="1" /><path clip-path="url(#clip480)" d="M2144.03 17.4837 Q2137.71 17.4837 2134.51 23.7221 Q2131.35 29.92 2131.35 42.3968 Q2131.35 54.833 2134.51 61.0714 Q2137.71 67.2693 2144.03 67.2693 Q2150.39 67.2693 2153.55 61.0714 Q2156.75 54.833 2156.75 42.3968 Q2156.75 29.92 2153.55 23.7221 Q2150.39 17.4837 2144.03 17.4837 M2144.03 11.0023 Q2154.2 11.0023 2159.54 19.0636 Q2164.93 27.0843 2164.93 42.3968 Q2164.93 57.6687 2159.54 65.73 Q2154.2 73.7508 2144.03 73.7508 Q2133.86 73.7508 2128.47 65.73 Q2123.13 57.6687 2123.13 42.3968 Q2123.13 27.0843 2128.47 19.0636 Q2133.86 11.0023 2144.03 11.0023 Z" fill="#000000" fill-rule="nonzero" fill-opacity="1" /><path clip-path="url(#clip480)" d="M2196.81 17.4837 Q2190.49 17.4837 2187.29 23.7221 Q2184.13 29.92 2184.13 42.3968 Q2184.13 54.833 2187.29 61.0714 Q2190.49 67.2693 2196.81 67.2693 Q2203.17 67.2693 2206.33 61.0714 Q2209.53 54.833 2209.53 42.3968 Q2209.53 29.92 2206.33 23.7221 Q2203.17 17.4837 2196.81 17.4837 M2196.81 11.0023 Q2206.98 11.0023 2212.33 19.0636 Q2217.72 27.0843 2217.72 42.3968 Q2217.72 57.6687 2212.33 65.73 Q2206.98 73.7508 2196.81 73.7508 Q2186.64 73.7508 2181.26 65.73 Q2175.91 57.6687 2175.91 42.3968 Q2175.91 27.0843 2181.26 19.0636 Q2186.64 11.0023 2196.81 11.0023 Z" fill="#000000" fill-rule="nonzero" fill-opacity="1" /><path clip-path="url(#clip480)" d="M2257.74 12.096 L2265.92 12.096 L2265.92 37.6572 L2293.06 12.096 L2303.59 12.096 L2273.58 40.2903 L2305.74 72.576 L2294.97 72.576 L2265.92 43.45 L2265.92 72.576 L2257.74 72.576 L2257.74 12.096 Z" fill="#000000" fill-rule="nonzero" fill-opacity="1" /><polyline clip-path="url(#clip482)" style="stroke:#009af9; stroke-linecap:round; stroke-linejoin:round; stroke-width:4; stroke-opacity:1; fill:none" points="230.047,827.326 251.489,827.326 272.93,827.326 294.372,827.326 315.813,827.326 337.255,827.326 358.696,827.326 380.138,827.326 401.579,827.326 423.021,827.326 444.462,827.326 465.904,827.326 487.345,827.326 508.787,827.326 530.228,827.326 551.67,827.326 573.111,827.326 594.553,827.326 615.994,827.326 637.436,827.326 658.877,827.326 680.319,827.326 701.76,827.326 723.202,827.326 744.643,827.326 766.085,827.326 787.526,827.326 808.968,827.326 830.409,827.326 851.851,827.326 873.292,827.326 894.734,827.326 916.175,827.326 937.617,827.326 959.058,827.326 980.5,827.326 1001.94,827.326 1023.38,827.326 1044.82,827.326 1066.27,827.326 1087.71,827.326 1109.15,827.326 1130.59,827.326 1152.03,827.326 1173.47,827.326 1194.91,827.326 1216.36,827.326 1237.8,827.326 1259.24,827.326 1280.68,827.326 1302.12,827.326 1323.56,827.326 1345.01,827.326 1366.45,827.326 1387.89,827.326 1409.33,827.326 1430.77,827.326 1452.21,827.326 1473.65,827.326 1495.1,827.326 1516.54,827.326 1537.98,827.326 1559.42,827.326 1580.86,827.326 1602.3,827.326 1623.74,827.326 1645.19,827.326 1666.63,827.326 1688.07,827.326 1709.51,827.326 1730.95,827.326 1752.39,827.326 1773.84,827.326 1795.28,827.326 1816.72,827.326 1838.16,827.326 1859.6,827.326 1881.04,827.326 1902.48,827.326 1923.93,827.326 1945.37,827.326 1966.81,827.326 1988.25,827.326 2009.69,827.326 2031.13,827.326 2052.57,827.326 2074.02,827.326 2095.46,827.326 2116.9,827.326 2138.34,827.326 2159.78,827.326 2181.22,827.326 2202.67,827.326 2224.11,827.326 2245.55,827.326 2266.99,827.326 2288.43,827.326 2309.87,827.326 2331.31,827.326 2352.76,827.326 "/>
<polyline clip-path="url(#clip482)" style="stroke:#e26f46; stroke-linecap:round; stroke-linejoin:round; stroke-width:4; stroke-opacity:1; fill:none" points="230.047,828.326 251.489,830.296 272.93,832.214 294.372,834.077 315.813,835.882 337.255,837.626 358.696,839.305 380.138,840.917 401.579,842.457 423.021,843.923 444.462,845.31 465.904,846.614 487.345,847.831 508.787,848.957 530.228,849.987 551.67,850.916 573.111,851.739 594.553,852.45 615.994,853.046 637.436,853.519 658.877,853.863 680.319,854.074 701.76,854.143 723.202,854.065 744.643,853.834 766.085,853.441 787.526,852.881 808.968,852.145 830.409,851.227 851.851,850.119 873.292,848.814 894.734,847.304 916.175,845.581 937.617,843.639 959.058,841.47 980.5,839.068 1001.94,836.424 1023.38,833.533 1044.82,830.388 1066.27,826.985 1087.71,823.317 1109.15,819.38 1130.59,815.17 1152.03,810.684 1173.47,805.919 1194.91,800.875 1216.36,795.55 1237.8,789.944 1259.24,784.06 1280.68,777.898 1302.12,771.462 1323.56,764.757 1345.01,757.787 1366.45,750.559 1387.89,743.079 1409.33,735.356 1430.77,727.397 1452.21,719.213 1473.65,710.812 1495.1,702.206 1516.54,693.404 1537.98,684.419 1559.42,675.261 1580.86,665.942 1602.3,656.474 1623.74,646.868 1645.19,637.137 1666.63,627.29 1688.07,617.341 1709.51,607.299 1730.95,597.175 1752.39,586.98 1773.84,576.724 1795.28,566.416 1816.72,556.065 1838.16,545.681 1859.6,535.272 1881.04,524.845 1902.48,514.408 1923.93,503.968 1945.37,493.532 1966.81,483.106 1988.25,472.695 2009.69,462.305 2031.13,451.941 2052.57,441.608 2074.02,431.309 2095.46,421.049 2116.9,410.832 2138.34,400.66 2159.78,390.536 2181.22,380.464 2202.67,370.446 2224.11,360.484 2245.55,350.58 2266.99,340.735 2288.43,330.952 2309.87,321.232 2331.31,311.576 2352.76,301.985 "/>
<polyline clip-path="url(#clip482)" style="stroke:#3da44d; stroke-linecap:round; stroke-linejoin:round; stroke-width:4; stroke-opacity:1; fill:none" points="230.047,828.38 251.489,829.763 272.93,831.123 294.372,832.459 315.813,833.768 337.255,835.049 358.696,836.3 380.138,837.517 401.579,838.699 423.021,839.842 444.462,840.945 465.904,842.003 487.345,843.015 508.787,843.976 530.228,844.882 551.67,845.731 573.111,846.518 594.553,847.238 615.994,847.887 637.436,848.46 658.877,848.952 680.319,849.357 701.76,849.67 723.202,849.884 744.643,849.993 766.085,849.99 787.526,849.868 808.968,849.62 830.409,849.236 851.851,848.709 873.292,848.031 894.734,847.191 916.175,846.181 937.617,844.99 959.058,843.609 980.5,842.027 1001.94,840.234 1023.38,838.217 1044.82,835.966 1066.27,833.47 1087.71,830.716 1109.15,827.694 1130.59,824.391 1152.03,820.796 1173.47,816.898 1194.91,812.686 1216.36,808.148 1237.8,803.275 1259.24,798.057 1280.68,792.484 1302.12,786.547 1323.56,780.24 1345.01,773.554 1366.45,766.485 1387.89,759.027 1409.33,751.177 1430.77,742.932 1452.21,734.29 1473.65,725.252 1495.1,715.819 1516.54,705.993 1537.98,695.778 1559.42,685.18 1580.86,674.206 1602.3,662.864 1623.74,651.163 1645.19,639.115 1666.63,626.732 1688.07,614.026 1709.51,601.013 1730.95,587.707 1752.39,574.126 1773.84,560.285 1795.28,546.202 1816.72,531.895 1838.16,517.38 1859.6,502.676 1881.04,487.799 1902.48,472.767 1923.93,457.594 1945.37,442.297 1966.81,426.889 1988.25,411.385 2009.69,395.798 2031.13,380.14 2052.57,364.423 2074.02,348.656 2095.46,332.851 2116.9,317.017 2138.34,301.162 2159.78,285.297 2181.22,269.428 2202.67,253.565 2224.11,237.714 2245.55,221.885 2266.99,206.083 2288.43,190.316 2309.87,174.592 2331.31,158.915 2352.76,143.294 "/>
<path clip-path="url(#clip480)" d="M290.493 374.156 L772.046 374.156 L772.046 166.796 L290.493 166.796  Z" fill="#ffffff" fill-rule="evenodd" fill-opacity="1"/>
<polyline clip-path="url(#clip480)" style="stroke:#000000; stroke-linecap:round; stroke-linejoin:round; stroke-width:4; stroke-opacity:1; fill:none" points="290.493,374.156 772.046,374.156 772.046,166.796 290.493,166.796 290.493,374.156 "/>
<polyline clip-path="url(#clip480)" style="stroke:#009af9; stroke-linecap:round; stroke-linejoin:round; stroke-width:4; stroke-opacity:1; fill:none" points="314.197,218.636 456.422,218.636 "/>
<path clip-path="url(#clip480)" d="M480.126 201.356 L484.802 201.356 L484.802 235.916 L480.126 235.916 L480.126 201.356 Z" fill="#000000" fill-rule="nonzero" fill-opacity="1" /><path clip-path="url(#clip480)" d="M510.982 213.925 L510.982 199.897 L515.242 199.897 L515.242 235.916 L510.982 235.916 L510.982 232.027 Q509.64 234.342 507.58 235.476 Q505.543 236.587 502.672 236.587 Q497.973 236.587 495.01 232.837 Q492.07 229.087 492.07 222.976 Q492.07 216.865 495.01 213.115 Q497.973 209.365 502.672 209.365 Q505.543 209.365 507.58 210.499 Q509.64 211.61 510.982 213.925 M496.469 222.976 Q496.469 227.675 498.39 230.36 Q500.334 233.022 503.714 233.022 Q507.094 233.022 509.038 230.36 Q510.982 227.675 510.982 222.976 Q510.982 218.277 509.038 215.615 Q507.094 212.93 503.714 212.93 Q500.334 212.93 498.39 215.615 Q496.469 218.277 496.469 222.976 Z" fill="#000000" fill-rule="nonzero" fill-opacity="1" /><path clip-path="url(#clip480)" d="M546.191 221.888 L546.191 223.971 L526.607 223.971 Q526.885 228.369 529.246 230.684 Q531.63 232.976 535.867 232.976 Q538.32 232.976 540.612 232.374 Q542.927 231.772 545.195 230.569 L545.195 234.596 Q542.904 235.568 540.496 236.078 Q538.089 236.587 535.612 236.587 Q529.408 236.587 525.774 232.976 Q522.163 229.365 522.163 223.207 Q522.163 216.842 525.589 213.115 Q529.038 209.365 534.871 209.365 Q540.103 209.365 543.135 212.745 Q546.191 216.101 546.191 221.888 M541.931 220.638 Q541.885 217.143 539.964 215.059 Q538.066 212.976 534.917 212.976 Q531.353 212.976 529.2 214.99 Q527.07 217.004 526.746 220.661 L541.931 220.638 Z" fill="#000000" fill-rule="nonzero" fill-opacity="1" /><path clip-path="url(#clip480)" d="M564.964 222.883 Q559.802 222.883 557.811 224.064 Q555.82 225.244 555.82 228.092 Q555.82 230.36 557.302 231.703 Q558.806 233.022 561.376 233.022 Q564.917 233.022 567.047 230.522 Q569.2 227.999 569.2 223.832 L569.2 222.883 L564.964 222.883 M573.459 221.124 L573.459 235.916 L569.2 235.916 L569.2 231.981 Q567.741 234.342 565.565 235.476 Q563.39 236.587 560.241 236.587 Q556.26 236.587 553.899 234.365 Q551.561 232.119 551.561 228.369 Q551.561 223.994 554.478 221.772 Q557.417 219.55 563.227 219.55 L569.2 219.55 L569.2 219.133 Q569.2 216.194 567.255 214.596 Q565.334 212.976 561.839 212.976 Q559.616 212.976 557.51 213.508 Q555.403 214.041 553.459 215.106 L553.459 211.17 Q555.797 210.268 557.996 209.828 Q560.195 209.365 562.278 209.365 Q567.903 209.365 570.681 212.282 Q573.459 215.198 573.459 221.124 Z" fill="#000000" fill-rule="nonzero" fill-opacity="1" /><path clip-path="url(#clip480)" d="M582.232 199.897 L586.491 199.897 L586.491 235.916 L582.232 235.916 L582.232 199.897 Z" fill="#000000" fill-rule="nonzero" fill-opacity="1" /><path clip-path="url(#clip480)" d="M634.222 230.985 L634.222 221.703 L626.584 221.703 L626.584 217.86 L638.852 217.86 L638.852 232.698 Q636.144 234.619 632.88 235.615 Q629.616 236.587 625.912 236.587 Q617.811 236.587 613.227 231.865 Q608.667 227.119 608.667 218.67 Q608.667 210.198 613.227 205.476 Q617.811 200.731 625.912 200.731 Q629.292 200.731 632.324 201.564 Q635.38 202.397 637.949 204.018 L637.949 208.995 Q635.357 206.796 632.44 205.684 Q629.523 204.573 626.306 204.573 Q619.963 204.573 616.769 208.115 Q613.598 211.657 613.598 218.67 Q613.598 225.661 616.769 229.203 Q619.963 232.744 626.306 232.744 Q628.783 232.744 630.727 232.328 Q632.672 231.888 634.222 230.985 Z" fill="#000000" fill-rule="nonzero" fill-opacity="1" /><path clip-path="url(#clip480)" d="M658.991 222.883 Q653.829 222.883 651.838 224.064 Q649.847 225.244 649.847 228.092 Q649.847 230.36 651.329 231.703 Q652.833 233.022 655.403 233.022 Q658.945 233.022 661.074 230.522 Q663.227 227.999 663.227 223.832 L663.227 222.883 L658.991 222.883 M667.486 221.124 L667.486 235.916 L663.227 235.916 L663.227 231.981 Q661.769 234.342 659.593 235.476 Q657.417 236.587 654.269 236.587 Q650.287 236.587 647.926 234.365 Q645.588 232.119 645.588 228.369 Q645.588 223.994 648.505 221.772 Q651.445 219.55 657.255 219.55 L663.227 219.55 L663.227 219.133 Q663.227 216.194 661.283 214.596 Q659.361 212.976 655.866 212.976 Q653.644 212.976 651.537 213.508 Q649.431 214.041 647.486 215.106 L647.486 211.17 Q649.824 210.268 652.023 209.828 Q654.222 209.365 656.306 209.365 Q661.931 209.365 664.708 212.282 Q667.486 215.198 667.486 221.124 Z" fill="#000000" fill-rule="nonzero" fill-opacity="1" /><path clip-path="url(#clip480)" d="M692.787 210.754 L692.787 214.782 Q690.981 213.856 689.037 213.393 Q687.093 212.93 685.009 212.93 Q681.838 212.93 680.241 213.902 Q678.667 214.874 678.667 216.819 Q678.667 218.3 679.801 219.157 Q680.935 219.99 684.361 220.754 L685.819 221.078 Q690.356 222.05 692.255 223.832 Q694.176 225.592 694.176 228.763 Q694.176 232.374 691.306 234.481 Q688.458 236.587 683.458 236.587 Q681.375 236.587 679.106 236.17 Q676.861 235.777 674.361 234.967 L674.361 230.569 Q676.722 231.795 679.014 232.42 Q681.306 233.022 683.551 233.022 Q686.56 233.022 688.181 232.004 Q689.801 230.962 689.801 229.087 Q689.801 227.351 688.62 226.425 Q687.463 225.499 683.505 224.643 L682.023 224.295 Q678.065 223.462 676.306 221.749 Q674.546 220.013 674.546 217.004 Q674.546 213.346 677.139 211.356 Q679.731 209.365 684.5 209.365 Q686.861 209.365 688.944 209.712 Q691.028 210.059 692.787 210.754 Z" fill="#000000" fill-rule="nonzero" fill-opacity="1" /><polyline clip-path="url(#clip480)" style="stroke:#e26f46; stroke-linecap:round; stroke-linejoin:round; stroke-width:4; stroke-opacity:1; fill:none" points="314.197,270.476 456.422,270.476 "/>
<path clip-path="url(#clip480)" d="M493.32 287.756 L480.126 253.196 L485.01 253.196 L495.959 282.293 L506.931 253.196 L511.793 253.196 L498.621 287.756 L493.32 287.756 Z" fill="#000000" fill-rule="nonzero" fill-opacity="1" /><path clip-path="url(#clip480)" d="M512.047 253.196 L541.283 253.196 L541.283 257.131 L529.015 257.131 L529.015 287.756 L524.316 287.756 L524.316 257.131 L512.047 257.131 L512.047 253.196 Z" fill="#000000" fill-rule="nonzero" fill-opacity="1" /><path clip-path="url(#clip480)" d="M550.473 257.038 L550.473 270.024 L556.353 270.024 Q559.616 270.024 561.399 268.335 Q563.181 266.645 563.181 263.52 Q563.181 260.418 561.399 258.728 Q559.616 257.038 556.353 257.038 L550.473 257.038 M545.797 253.196 L556.353 253.196 Q562.163 253.196 565.126 255.835 Q568.112 258.45 568.112 263.52 Q568.112 268.635 565.126 271.251 Q562.163 273.867 556.353 273.867 L550.473 273.867 L550.473 287.756 L545.797 287.756 L545.797 253.196 Z" fill="#000000" fill-rule="nonzero" fill-opacity="1" /><path clip-path="url(#clip480)" d="M590.774 271.552 Q592.278 272.061 593.69 273.728 Q595.125 275.395 596.561 278.311 L601.306 287.756 L596.283 287.756 L591.862 278.89 Q590.149 275.418 588.528 274.284 Q586.931 273.149 584.153 273.149 L579.061 273.149 L579.061 287.756 L574.385 287.756 L574.385 253.196 L584.94 253.196 Q590.866 253.196 593.783 255.673 Q596.7 258.149 596.7 263.149 Q596.7 266.413 595.172 268.566 Q593.667 270.719 590.774 271.552 M579.061 257.038 L579.061 269.307 L584.94 269.307 Q588.32 269.307 590.033 267.756 Q591.769 266.182 591.769 263.149 Q591.769 260.117 590.033 258.589 Q588.32 257.038 584.94 257.038 L579.061 257.038 Z" fill="#000000" fill-rule="nonzero" fill-opacity="1" /><polyline clip-path="url(#clip480)" style="stroke:#3da44d; stroke-linecap:round; stroke-linejoin:round; stroke-width:4; stroke-opacity:1; fill:none" points="314.197,322.316 456.422,322.316 "/>
<path clip-path="url(#clip480)" d="M505.682 334.665 L505.682 325.383 L498.043 325.383 L498.043 321.54 L510.311 321.54 L510.311 336.378 Q507.603 338.299 504.339 339.295 Q501.075 340.267 497.371 340.267 Q489.27 340.267 484.686 335.545 Q480.126 330.799 480.126 322.35 Q480.126 313.878 484.686 309.156 Q489.27 304.411 497.371 304.411 Q500.751 304.411 503.783 305.244 Q506.839 306.077 509.408 307.698 L509.408 312.675 Q506.816 310.476 503.899 309.364 Q500.982 308.253 497.765 308.253 Q491.422 308.253 488.228 311.795 Q485.057 315.337 485.057 322.35 Q485.057 329.341 488.228 332.883 Q491.422 336.424 497.765 336.424 Q500.242 336.424 502.186 336.008 Q504.131 335.568 505.682 334.665 Z" fill="#000000" fill-rule="nonzero" fill-opacity="1" /><path clip-path="url(#clip480)" d="M518.853 305.036 L540.704 305.036 L540.704 308.971 L523.529 308.971 L523.529 319.202 L539.987 319.202 L539.987 323.137 L523.529 323.137 L523.529 335.661 L541.121 335.661 L541.121 339.596 L518.853 339.596 L518.853 305.036 Z" fill="#000000" fill-rule="nonzero" fill-opacity="1" /><path clip-path="url(#clip480)" d="M565.195 323.392 Q566.7 323.901 568.112 325.568 Q569.547 327.235 570.982 330.151 L575.727 339.596 L570.704 339.596 L566.283 330.73 Q564.57 327.258 562.95 326.124 Q561.352 324.989 558.575 324.989 L553.482 324.989 L553.482 339.596 L548.806 339.596 L548.806 305.036 L559.362 305.036 Q565.288 305.036 568.204 307.513 Q571.121 309.989 571.121 314.989 Q571.121 318.253 569.593 320.406 Q568.089 322.559 565.195 323.392 M553.482 308.878 L553.482 321.147 L559.362 321.147 Q562.741 321.147 564.454 319.596 Q566.19 318.022 566.19 314.989 Q566.19 311.957 564.454 310.429 Q562.741 308.878 559.362 308.878 L553.482 308.878 Z" fill="#000000" fill-rule="nonzero" fill-opacity="1" /><path clip-path="url(#clip480)" d="M605.311 334.665 L605.311 325.383 L597.672 325.383 L597.672 321.54 L609.94 321.54 L609.94 336.378 Q607.232 338.299 603.968 339.295 Q600.704 340.267 597 340.267 Q588.899 340.267 584.315 335.545 Q579.755 330.799 579.755 322.35 Q579.755 313.878 584.315 309.156 Q588.899 304.411 597 304.411 Q600.38 304.411 603.412 305.244 Q606.468 306.077 609.037 307.698 L609.037 312.675 Q606.445 310.476 603.528 309.364 Q600.612 308.253 597.394 308.253 Q591.051 308.253 587.857 311.795 Q584.686 315.337 584.686 322.35 Q584.686 329.341 587.857 332.883 Q591.051 336.424 597.394 336.424 Q599.871 336.424 601.815 336.008 Q603.76 335.568 605.311 334.665 Z" fill="#000000" fill-rule="nonzero" fill-opacity="1" /><path clip-path="url(#clip480)" d="M616.144 324.712 L628.621 324.712 L628.621 328.508 L616.144 328.508 L616.144 324.712 Z" fill="#000000" fill-rule="nonzero" fill-opacity="1" /><path clip-path="url(#clip480)" d="M640.033 335.661 L656.352 335.661 L656.352 339.596 L634.408 339.596 L634.408 335.661 Q637.07 332.906 641.653 328.276 Q646.259 323.624 647.44 322.281 Q649.685 319.758 650.565 318.022 Q651.468 316.263 651.468 314.573 Q651.468 311.818 649.523 310.082 Q647.602 308.346 644.5 308.346 Q642.301 308.346 639.847 309.11 Q637.417 309.874 634.639 311.425 L634.639 306.702 Q637.463 305.568 639.917 304.989 Q642.371 304.411 644.408 304.411 Q649.778 304.411 652.972 307.096 Q656.167 309.781 656.167 314.272 Q656.167 316.401 655.357 318.323 Q654.57 320.221 652.463 322.813 Q651.884 323.485 648.783 326.702 Q645.681 329.897 640.033 335.661 Z" fill="#000000" fill-rule="nonzero" fill-opacity="1" /><path clip-path="url(#clip480)" d="M676.167 308.114 Q672.556 308.114 670.727 311.679 Q668.921 315.221 668.921 322.35 Q668.921 329.457 670.727 333.022 Q672.556 336.563 676.167 336.563 Q679.801 336.563 681.606 333.022 Q683.435 329.457 683.435 322.35 Q683.435 315.221 681.606 311.679 Q679.801 308.114 676.167 308.114 M676.167 304.411 Q681.977 304.411 685.032 309.017 Q688.111 313.6 688.111 322.35 Q688.111 331.077 685.032 335.684 Q681.977 340.267 676.167 340.267 Q670.357 340.267 667.278 335.684 Q664.222 331.077 664.222 322.35 Q664.222 313.6 667.278 309.017 Q670.357 304.411 676.167 304.411 Z" fill="#000000" fill-rule="nonzero" fill-opacity="1" /><path clip-path="url(#clip480)" d="M706.329 308.114 Q702.717 308.114 700.889 311.679 Q699.083 315.221 699.083 322.35 Q699.083 329.457 700.889 333.022 Q702.717 336.563 706.329 336.563 Q709.963 336.563 711.768 333.022 Q713.597 329.457 713.597 322.35 Q713.597 315.221 711.768 311.679 Q709.963 308.114 706.329 308.114 M706.329 304.411 Q712.139 304.411 715.194 309.017 Q718.273 313.6 718.273 322.35 Q718.273 331.077 715.194 335.684 Q712.139 340.267 706.329 340.267 Q700.518 340.267 697.44 335.684 Q694.384 331.077 694.384 322.35 Q694.384 313.6 697.44 309.017 Q700.518 304.411 706.329 304.411 Z" fill="#000000" fill-rule="nonzero" fill-opacity="1" /><path clip-path="url(#clip480)" d="M736.49 323.184 Q733.157 323.184 731.236 324.966 Q729.338 326.749 729.338 329.874 Q729.338 332.999 731.236 334.781 Q733.157 336.563 736.49 336.563 Q739.824 336.563 741.745 334.781 Q743.666 332.975 743.666 329.874 Q743.666 326.749 741.745 324.966 Q739.847 323.184 736.49 323.184 M731.815 321.193 Q728.805 320.452 727.115 318.392 Q725.449 316.332 725.449 313.369 Q725.449 309.226 728.389 306.818 Q731.352 304.411 736.49 304.411 Q741.652 304.411 744.592 306.818 Q747.532 309.226 747.532 313.369 Q747.532 316.332 745.842 318.392 Q744.176 320.452 741.189 321.193 Q744.569 321.98 746.444 324.272 Q748.342 326.563 748.342 329.874 Q748.342 334.897 745.264 337.582 Q742.208 340.267 736.49 340.267 Q730.773 340.267 727.694 337.582 Q724.639 334.897 724.639 329.874 Q724.639 326.563 726.537 324.272 Q728.435 321.98 731.815 321.193 M730.102 313.809 Q730.102 316.494 731.768 317.999 Q733.458 319.503 736.49 319.503 Q739.5 319.503 741.189 317.999 Q742.902 316.494 742.902 313.809 Q742.902 311.124 741.189 309.619 Q739.5 308.114 736.49 308.114 Q733.458 308.114 731.768 309.619 Q730.102 311.124 730.102 313.809 Z" fill="#000000" fill-rule="nonzero" fill-opacity="1" /></svg>
