<?xml version="1.0" encoding="utf-8"?>
<svg xmlns="http://www.w3.org/2000/svg" xmlns:xlink="http://www.w3.org/1999/xlink" width="600" height="400" viewBox="0 0 2400 1600">
<defs>
  <clipPath id="clip300">
    <rect x="0" y="0" width="2400" height="1600"/>
  </clipPath>
</defs>
<path clip-path="url(#clip300)" d="M0 1600 L2400 1600 L2400 0 L0 0  Z" fill="#ffffff" fill-rule="evenodd" fill-opacity="1"/>
<defs>
  <clipPath id="clip301">
    <rect x="480" y="0" width="1681" height="1600"/>
  </clipPath>
</defs>
<path clip-path="url(#clip300)" d="M340.699 1423.18 L2352.76 1423.18 L2352.76 47.2441 L340.699 47.2441  Z" fill="#ffffff" fill-rule="evenodd" fill-opacity="1"/>
<defs>
  <clipPath id="clip302">
    <rect x="340" y="47" width="2013" height="1377"/>
  </clipPath>
</defs>
<polyline clip-path="url(#clip302)" style="stroke:#000000; stroke-linecap:round; stroke-linejoin:round; stroke-width:2; stroke-opacity:0.1; fill:none" points="397.644,1423.18 397.644,47.2441 "/>
<polyline clip-path="url(#clip302)" style="stroke:#000000; stroke-linecap:round; stroke-linejoin:round; stroke-width:2; stroke-opacity:0.1; fill:none" points="879.439,1423.18 879.439,47.2441 "/>
<polyline clip-path="url(#clip302)" style="stroke:#000000; stroke-linecap:round; stroke-linejoin:round; stroke-width:2; stroke-opacity:0.1; fill:none" points="1361.23,1423.18 1361.23,47.2441 "/>
<polyline clip-path="url(#clip302)" style="stroke:#000000; stroke-linecap:round; stroke-linejoin:round; stroke-width:2; stroke-opacity:0.1; fill:none" points="1843.03,1423.18 1843.03,47.2441 "/>
<polyline clip-path="url(#clip302)" style="stroke:#000000; stroke-linecap:round; stroke-linejoin:round; stroke-width:2; stroke-opacity:0.1; fill:none" points="2324.83,1423.18 2324.83,47.2441 "/>
<polyline clip-path="url(#clip302)" style="stroke:#000000; stroke-linecap:round; stroke-linejoin:round; stroke-width:2; stroke-opacity:0.1; fill:none" points="340.699,1384.24 2352.76,1384.24 "/>
<polyline clip-path="url(#clip302)" style="stroke:#000000; stroke-linecap:round; stroke-linejoin:round; stroke-width:2; stroke-opacity:0.1; fill:none" points="340.699,1146.63 2352.76,1146.63 "/>
<polyline clip-path="url(#clip302)" style="stroke:#000000; stroke-linecap:round; stroke-linejoin:round; stroke-width:2; stroke-opacity:0.1; fill:none" points="340.699,909.015 2352.76,909.015 "/>
<polyline clip-path="url(#clip302)" style="stroke:#000000; stroke-linecap:round; stroke-linejoin:round; stroke-width:2; stroke-opacity:0.1; fill:none" points="340.699,671.403 2352.76,671.403 "/>
<polyline clip-path="url(#clip302)" style="stroke:#000000; stroke-linecap:round; stroke-linejoin:round; stroke-width:2; stroke-opacity:0.1; fill:none" points="340.699,433.791 2352.76,433.791 "/>
<polyline clip-path="url(#clip302)" style="stroke:#000000; stroke-linecap:round; stroke-linejoin:round; stroke-width:2; stroke-opacity:0.1; fill:none" points="340.699,196.179 2352.76,196.179 "/>
<polyline clip-path="url(#clip300)" style="stroke:#000000; stroke-linecap:round; stroke-linejoin:round; stroke-width:4; stroke-opacity:1; fill:none" points="340.699,1423.18 2352.76,1423.18 "/>
<polyline clip-path="url(#clip300)" style="stroke:#000000; stroke-linecap:round; stroke-linejoin:round; stroke-width:4; stroke-opacity:1; fill:none" points="397.644,1423.18 397.644,1404.28 "/>
<polyline clip-path="url(#clip300)" style="stroke:#000000; stroke-linecap:round; stroke-linejoin:round; stroke-width:4; stroke-opacity:1; fill:none" points="879.439,1423.18 879.439,1404.28 "/>
<polyline clip-path="url(#clip300)" style="stroke:#000000; stroke-linecap:round; stroke-linejoin:round; stroke-width:4; stroke-opacity:1; fill:none" points="1361.23,1423.18 1361.23,1404.28 "/>
<polyline clip-path="url(#clip300)" style="stroke:#000000; stroke-linecap:round; stroke-linejoin:round; stroke-width:4; stroke-opacity:1; fill:none" points="1843.03,1423.18 1843.03,1404.28 "/>
<polyline clip-path="url(#clip300)" style="stroke:#000000; stroke-linecap:round; stroke-linejoin:round; stroke-width:4; stroke-opacity:1; fill:none" points="2324.83,1423.18 2324.83,1404.28 "/>
<path clip-path="url(#clip300)" d="M397.644 1454.1 Q394.033 1454.1 392.204 1457.66 Q390.399 1461.2 390.399 1468.33 Q390.399 1475.44 392.204 1479.01 Q394.033 1482.55 397.644 1482.55 Q401.278 1482.55 403.084 1479.01 Q404.912 1475.44 404.912 1468.33 Q404.912 1461.2 403.084 1457.66 Q401.278 1454.1 397.644 1454.1 M397.644 1450.39 Q403.454 1450.39 406.51 1455 Q409.588 1459.58 409.588 1468.33 Q409.588 1477.06 406.51 1481.67 Q403.454 1486.25 397.644 1486.25 Q391.834 1486.25 388.755 1481.67 Q385.7 1477.06 385.7 1468.33 Q385.7 1459.58 388.755 1455 Q391.834 1450.39 397.644 1450.39 Z" fill="#000000" fill-rule="nonzero" fill-opacity="1" /><path clip-path="url(#clip300)" d="M858.71 1481.64 L875.03 1481.64 L875.03 1485.58 L853.085 1485.58 L853.085 1481.64 Q855.747 1478.89 860.331 1474.26 Q864.937 1469.61 866.118 1468.27 Q868.363 1465.74 869.243 1464.01 Q870.145 1462.25 870.145 1460.56 Q870.145 1457.8 868.201 1456.07 Q866.28 1454.33 863.178 1454.33 Q860.979 1454.33 858.525 1455.09 Q856.095 1455.86 853.317 1457.41 L853.317 1452.69 Q856.141 1451.55 858.595 1450.97 Q861.048 1450.39 863.085 1450.39 Q868.456 1450.39 871.65 1453.08 Q874.844 1455.77 874.844 1460.26 Q874.844 1462.39 874.034 1464.31 Q873.247 1466.2 871.141 1468.8 Q870.562 1469.47 867.46 1472.69 Q864.358 1475.88 858.71 1481.64 Z" fill="#000000" fill-rule="nonzero" fill-opacity="1" /><path clip-path="url(#clip300)" d="M884.891 1451.02 L903.247 1451.02 L903.247 1454.96 L889.173 1454.96 L889.173 1463.43 Q890.192 1463.08 891.21 1462.92 Q892.229 1462.73 893.247 1462.73 Q899.034 1462.73 902.414 1465.9 Q905.793 1469.08 905.793 1474.49 Q905.793 1480.07 902.321 1483.17 Q898.849 1486.25 892.53 1486.25 Q890.354 1486.25 888.085 1485.88 Q885.84 1485.51 883.432 1484.77 L883.432 1480.07 Q885.516 1481.2 887.738 1481.76 Q889.96 1482.32 892.437 1482.32 Q896.442 1482.32 898.78 1480.21 Q901.117 1478.1 901.117 1474.49 Q901.117 1470.88 898.78 1468.77 Q896.442 1466.67 892.437 1466.67 Q890.562 1466.67 888.687 1467.08 Q886.835 1467.5 884.891 1468.38 L884.891 1451.02 Z" fill="#000000" fill-rule="nonzero" fill-opacity="1" /><path clip-path="url(#clip300)" d="M1335.93 1451.02 L1354.29 1451.02 L1354.29 1454.96 L1340.22 1454.96 L1340.22 1463.43 Q1341.23 1463.08 1342.25 1462.92 Q1343.27 1462.73 1344.29 1462.73 Q1350.08 1462.73 1353.46 1465.9 Q1356.84 1469.08 1356.84 1474.49 Q1356.84 1480.07 1353.36 1483.17 Q1349.89 1486.25 1343.57 1486.25 Q1341.4 1486.25 1339.13 1485.88 Q1336.88 1485.51 1334.48 1484.77 L1334.48 1480.07 Q1336.56 1481.2 1338.78 1481.76 Q1341 1482.32 1343.48 1482.32 Q1347.48 1482.32 1349.82 1480.21 Q1352.16 1478.1 1352.16 1474.49 Q1352.16 1470.88 1349.82 1468.77 Q1347.48 1466.67 1343.48 1466.67 Q1341.61 1466.67 1339.73 1467.08 Q1337.88 1467.5 1335.93 1468.38 L1335.93 1451.02 Z" fill="#000000" fill-rule="nonzero" fill-opacity="1" /><path clip-path="url(#clip300)" d="M1376.05 1454.1 Q1372.44 1454.1 1370.61 1457.66 Q1368.8 1461.2 1368.8 1468.33 Q1368.8 1475.44 1370.61 1479.01 Q1372.44 1482.55 1376.05 1482.55 Q1379.68 1482.55 1381.49 1479.01 Q1383.32 1475.44 1383.32 1468.33 Q1383.32 1461.2 1381.49 1457.66 Q1379.68 1454.1 1376.05 1454.1 M1376.05 1450.39 Q1381.86 1450.39 1384.92 1455 Q1387.99 1459.58 1387.99 1468.33 Q1387.99 1477.06 1384.92 1481.67 Q1381.86 1486.25 1376.05 1486.25 Q1370.24 1486.25 1367.16 1481.67 Q1364.11 1477.06 1364.11 1468.33 Q1364.11 1459.58 1367.16 1455 Q1370.24 1450.39 1376.05 1450.39 Z" fill="#000000" fill-rule="nonzero" fill-opacity="1" /><path clip-path="url(#clip300)" d="M1816.88 1451.02 L1839.11 1451.02 L1839.11 1453.01 L1826.56 1485.58 L1821.68 1485.58 L1833.48 1454.96 L1816.88 1454.96 L1816.88 1451.02 Z" fill="#000000" fill-rule="nonzero" fill-opacity="1" /><path clip-path="url(#clip300)" d="M1848.27 1451.02 L1866.63 1451.02 L1866.63 1454.96 L1852.56 1454.96 L1852.56 1463.43 Q1853.57 1463.08 1854.59 1462.92 Q1855.61 1462.73 1856.63 1462.73 Q1862.42 1462.73 1865.8 1465.9 Q1869.18 1469.08 1869.18 1474.49 Q1869.18 1480.07 1865.7 1483.17 Q1862.23 1486.25 1855.91 1486.25 Q1853.74 1486.25 1851.47 1485.88 Q1849.22 1485.51 1846.81 1484.77 L1846.81 1480.07 Q1848.9 1481.2 1851.12 1481.76 Q1853.34 1482.32 1855.82 1482.32 Q1859.82 1482.32 1862.16 1480.21 Q1864.5 1478.1 1864.5 1474.49 Q1864.5 1470.88 1862.16 1468.77 Q1859.82 1466.67 1855.82 1466.67 Q1853.94 1466.67 1852.07 1467.08 Q1850.22 1467.5 1848.27 1468.38 L1848.27 1451.02 Z" fill="#000000" fill-rule="nonzero" fill-opacity="1" /><path clip-path="url(#clip300)" d="M2284.43 1481.64 L2292.07 1481.64 L2292.07 1455.28 L2283.76 1456.95 L2283.76 1452.69 L2292.02 1451.02 L2296.7 1451.02 L2296.7 1481.64 L2304.34 1481.64 L2304.34 1485.58 L2284.43 1485.58 L2284.43 1481.64 Z" fill="#000000" fill-rule="nonzero" fill-opacity="1" /><path clip-path="url(#clip300)" d="M2323.78 1454.1 Q2320.17 1454.1 2318.34 1457.66 Q2316.54 1461.2 2316.54 1468.33 Q2316.54 1475.44 2318.34 1479.01 Q2320.17 1482.55 2323.78 1482.55 Q2327.42 1482.55 2329.22 1479.01 Q2331.05 1475.44 2331.05 1468.33 Q2331.05 1461.2 2329.22 1457.66 Q2327.42 1454.1 2323.78 1454.1 M2323.78 1450.39 Q2329.59 1450.39 2332.65 1455 Q2335.73 1459.58 2335.73 1468.33 Q2335.73 1477.06 2332.65 1481.67 Q2329.59 1486.25 2323.78 1486.25 Q2317.97 1486.25 2314.89 1481.67 Q2311.84 1477.06 2311.84 1468.33 Q2311.84 1459.58 2314.89 1455 Q2317.97 1450.39 2323.78 1450.39 Z" fill="#000000" fill-rule="nonzero" fill-opacity="1" /><path clip-path="url(#clip300)" d="M2353.95 1454.1 Q2350.33 1454.1 2348.51 1457.66 Q2346.7 1461.2 2346.7 1468.33 Q2346.7 1475.44 2348.51 1479.01 Q2350.33 1482.55 2353.95 1482.55 Q2357.58 1482.55 2359.39 1479.01 Q2361.21 1475.44 2361.21 1468.33 Q2361.21 1461.2 2359.39 1457.66 Q2357.58 1454.1 2353.95 1454.1 M2353.95 1450.39 Q2359.76 1450.39 2362.81 1455 Q2365.89 1459.58 2365.89 1468.33 Q2365.89 1477.06 2362.81 1481.67 Q2359.76 1486.25 2353.95 1486.25 Q2348.14 1486.25 2345.06 1481.67 Q2342 1477.06 2342 1468.33 Q2342 1459.58 2345.06 1455 Q2348.14 1450.39 2353.95 1450.39 Z" fill="#000000" fill-rule="nonzero" fill-opacity="1" /><path clip-path="url(#clip300)" d="M854.26 1520.52 L862.918 1520.52 L883.988 1560.28 L883.988 1520.52 L890.227 1520.52 L890.227 1568.04 L881.569 1568.04 L860.499 1528.29 L860.499 1568.04 L854.26 1568.04 L854.26 1520.52 Z" fill="#000000" fill-rule="nonzero" fill-opacity="1" /><path clip-path="url(#clip300)" d="M916.581 1536.5 Q911.87 1536.5 909.133 1540.19 Q906.396 1543.85 906.396 1550.25 Q906.396 1556.65 909.101 1560.34 Q911.838 1564 916.581 1564 Q921.26 1564 923.997 1560.31 Q926.734 1556.62 926.734 1550.25 Q926.734 1543.92 923.997 1540.23 Q921.26 1536.5 916.581 1536.5 M916.581 1531.54 Q924.22 1531.54 928.58 1536.5 Q932.941 1541.47 932.941 1550.25 Q932.941 1559 928.58 1564 Q924.22 1568.97 916.581 1568.97 Q908.91 1568.97 904.55 1564 Q900.221 1559 900.221 1550.25 Q900.221 1541.47 904.55 1536.5 Q908.91 1531.54 916.581 1531.54 Z" fill="#000000" fill-rule="nonzero" fill-opacity="1" /><path clip-path="url(#clip300)" d="M940.102 1532.4 L967.92 1532.4 L967.92 1537.74 L945.895 1563.37 L967.92 1563.37 L967.92 1568.04 L939.306 1568.04 L939.306 1562.7 L961.332 1537.07 L940.102 1537.07 L940.102 1532.4 Z" fill="#000000" fill-rule="nonzero" fill-opacity="1" /><path clip-path="url(#clip300)" d="M974.318 1532.4 L1002.14 1532.4 L1002.14 1537.74 L980.11 1563.37 L1002.14 1563.37 L1002.14 1568.04 L973.522 1568.04 L973.522 1562.7 L995.547 1537.07 L974.318 1537.07 L974.318 1532.4 Z" fill="#000000" fill-rule="nonzero" fill-opacity="1" /><path clip-path="url(#clip300)" d="M1011.08 1518.52 L1016.94 1518.52 L1016.94 1568.04 L1011.08 1568.04 L1011.08 1518.52 Z" fill="#000000" fill-rule="nonzero" fill-opacity="1" /><path clip-path="url(#clip300)" d="M1059.68 1548.76 L1059.68 1551.62 L1032.75 1551.62 Q1033.14 1557.67 1036.38 1560.85 Q1039.66 1564 1045.49 1564 Q1048.86 1564 1052.01 1563.17 Q1055.19 1562.35 1058.31 1560.69 L1058.31 1566.23 Q1055.16 1567.57 1051.85 1568.27 Q1048.54 1568.97 1045.14 1568.97 Q1036.61 1568.97 1031.61 1564 Q1026.64 1559.04 1026.64 1550.57 Q1026.64 1541.82 1031.35 1536.69 Q1036.1 1531.54 1044.12 1531.54 Q1051.31 1531.54 1055.48 1536.18 Q1059.68 1540.8 1059.68 1548.76 M1053.83 1547.04 Q1053.76 1542.23 1051.12 1539.37 Q1048.51 1536.5 1044.18 1536.5 Q1039.28 1536.5 1036.32 1539.27 Q1033.39 1542.04 1032.95 1547.07 L1053.83 1547.04 Z" fill="#000000" fill-rule="nonzero" fill-opacity="1" /><path clip-path="url(#clip300)" d="M1096.7 1525.81 L1096.7 1543.66 L1104.78 1543.66 Q1109.27 1543.66 1111.72 1541.34 Q1114.17 1539.02 1114.17 1534.72 Q1114.17 1530.45 1111.72 1528.13 Q1109.27 1525.81 1104.78 1525.81 L1096.7 1525.81 M1090.27 1520.52 L1104.78 1520.52 Q1112.77 1520.52 1116.85 1524.15 Q1120.95 1527.75 1120.95 1534.72 Q1120.95 1541.75 1116.85 1545.35 Q1112.77 1548.95 1104.78 1548.95 L1096.7 1548.95 L1096.7 1568.04 L1090.27 1568.04 L1090.27 1520.52 Z" fill="#000000" fill-rule="nonzero" fill-opacity="1" /><path clip-path="url(#clip300)" d="M1148.83 1537.87 Q1147.85 1537.3 1146.67 1537.04 Q1145.52 1536.76 1144.12 1536.76 Q1139.16 1536.76 1136.48 1540 Q1133.84 1543.22 1133.84 1549.27 L1133.84 1568.04 L1127.95 1568.04 L1127.95 1532.4 L1133.84 1532.4 L1133.84 1537.93 Q1135.69 1534.69 1138.65 1533.13 Q1141.61 1531.54 1145.84 1531.54 Q1146.45 1531.54 1147.18 1531.63 Q1147.91 1531.7 1148.8 1531.85 L1148.83 1537.87 Z" fill="#000000" fill-rule="nonzero" fill-opacity="1" /><path clip-path="url(#clip300)" d="M1184.04 1548.76 L1184.04 1551.62 L1157.11 1551.62 Q1157.49 1557.67 1160.74 1560.85 Q1164.02 1564 1169.84 1564 Q1173.21 1564 1176.37 1563.17 Q1179.55 1562.35 1182.67 1560.69 L1182.67 1566.23 Q1179.52 1567.57 1176.21 1568.27 Q1172.9 1568.97 1169.49 1568.97 Q1160.96 1568.97 1155.96 1564 Q1151 1559.04 1151 1550.57 Q1151 1541.82 1155.71 1536.69 Q1160.45 1531.54 1168.47 1531.54 Q1175.66 1531.54 1179.83 1536.18 Q1184.04 1540.8 1184.04 1548.76 M1178.18 1547.04 Q1178.12 1542.23 1175.47 1539.37 Q1172.86 1536.5 1168.54 1536.5 Q1163.63 1536.5 1160.67 1539.27 Q1157.75 1542.04 1157.3 1547.07 L1178.18 1547.04 Z" fill="#000000" fill-rule="nonzero" fill-opacity="1" /><path clip-path="url(#clip300)" d="M1216.37 1533.45 L1216.37 1538.98 Q1213.89 1537.71 1211.22 1537.07 Q1208.54 1536.44 1205.68 1536.44 Q1201.32 1536.44 1199.12 1537.77 Q1196.96 1539.11 1196.96 1541.79 Q1196.96 1543.82 1198.52 1545 Q1200.08 1546.15 1204.79 1547.2 L1206.79 1547.64 Q1213.03 1548.98 1215.64 1551.43 Q1218.28 1553.85 1218.28 1558.21 Q1218.28 1563.17 1214.34 1566.07 Q1210.42 1568.97 1203.55 1568.97 Q1200.68 1568.97 1197.56 1568.39 Q1194.48 1567.85 1191.04 1566.74 L1191.04 1560.69 Q1194.28 1562.38 1197.44 1563.24 Q1200.59 1564.07 1203.67 1564.07 Q1207.81 1564.07 1210.04 1562.66 Q1212.27 1561.23 1212.27 1558.65 Q1212.27 1556.27 1210.64 1554.99 Q1209.05 1553.72 1203.61 1552.54 L1201.57 1552.07 Q1196.13 1550.92 1193.71 1548.56 Q1191.29 1546.18 1191.29 1542.04 Q1191.29 1537.01 1194.86 1534.27 Q1198.42 1531.54 1204.98 1531.54 Q1208.23 1531.54 1211.09 1532.01 Q1213.95 1532.49 1216.37 1533.45 Z" fill="#000000" fill-rule="nonzero" fill-opacity="1" /><path clip-path="url(#clip300)" d="M1250.33 1533.45 L1250.33 1538.98 Q1247.85 1537.71 1245.18 1537.07 Q1242.5 1536.44 1239.64 1536.44 Q1235.28 1536.44 1233.08 1537.77 Q1230.92 1539.11 1230.92 1541.79 Q1230.92 1543.82 1232.48 1545 Q1234.04 1546.15 1238.75 1547.2 L1240.75 1547.64 Q1246.99 1548.98 1249.6 1551.43 Q1252.24 1553.85 1252.24 1558.21 Q1252.24 1563.17 1248.3 1566.07 Q1244.38 1568.97 1237.51 1568.97 Q1234.64 1568.97 1231.52 1568.39 Q1228.44 1567.85 1225 1566.74 L1225 1560.69 Q1228.25 1562.38 1231.4 1563.24 Q1234.55 1564.07 1237.64 1564.07 Q1241.77 1564.07 1244 1562.66 Q1246.23 1561.23 1246.23 1558.65 Q1246.23 1556.27 1244.61 1554.99 Q1243.01 1553.72 1237.57 1552.54 L1235.53 1552.07 Q1230.09 1550.92 1227.67 1548.56 Q1225.25 1546.18 1225.25 1542.04 Q1225.25 1537.01 1228.82 1534.27 Q1232.38 1531.54 1238.94 1531.54 Q1242.19 1531.54 1245.05 1532.01 Q1247.92 1532.49 1250.33 1533.45 Z" fill="#000000" fill-rule="nonzero" fill-opacity="1" /><path clip-path="url(#clip300)" d="M1260.97 1553.98 L1260.97 1532.4 L1266.82 1532.4 L1266.82 1553.75 Q1266.82 1558.81 1268.8 1561.36 Q1270.77 1563.87 1274.72 1563.87 Q1279.46 1563.87 1282.2 1560.85 Q1284.96 1557.83 1284.96 1552.61 L1284.96 1532.4 L1290.82 1532.4 L1290.82 1568.04 L1284.96 1568.04 L1284.96 1562.57 Q1282.83 1565.82 1280 1567.41 Q1277.2 1568.97 1273.47 1568.97 Q1267.33 1568.97 1264.15 1565.15 Q1260.97 1561.33 1260.97 1553.98 M1275.7 1531.54 L1275.7 1531.54 Z" fill="#000000" fill-rule="nonzero" fill-opacity="1" /><path clip-path="url(#clip300)" d="M1323.54 1537.87 Q1322.55 1537.3 1321.38 1537.04 Q1320.23 1536.76 1318.83 1536.76 Q1313.86 1536.76 1311.19 1540 Q1308.55 1543.22 1308.55 1549.27 L1308.55 1568.04 L1302.66 1568.04 L1302.66 1532.4 L1308.55 1532.4 L1308.55 1537.93 Q1310.4 1534.69 1313.36 1533.13 Q1316.32 1531.54 1320.55 1531.54 Q1321.15 1531.54 1321.89 1531.63 Q1322.62 1531.7 1323.51 1531.85 L1323.54 1537.87 Z" fill="#000000" fill-rule="nonzero" fill-opacity="1" /><path clip-path="url(#clip300)" d="M1358.74 1548.76 L1358.74 1551.62 L1331.82 1551.62 Q1332.2 1557.67 1335.44 1560.85 Q1338.72 1564 1344.55 1564 Q1347.92 1564 1351.07 1563.17 Q1354.25 1562.35 1357.37 1560.69 L1357.37 1566.23 Q1354.22 1567.57 1350.91 1568.27 Q1347.6 1568.97 1344.2 1568.97 Q1335.67 1568.97 1330.67 1564 Q1325.7 1559.04 1325.7 1550.57 Q1325.7 1541.82 1330.42 1536.69 Q1335.16 1531.54 1343.18 1531.54 Q1350.37 1531.54 1354.54 1536.18 Q1358.74 1540.8 1358.74 1548.76 M1352.89 1547.04 Q1352.82 1542.23 1350.18 1539.37 Q1347.57 1536.5 1343.24 1536.5 Q1338.34 1536.5 1335.38 1539.27 Q1332.45 1542.04 1332.01 1547.07 L1352.89 1547.04 Z" fill="#000000" fill-rule="nonzero" fill-opacity="1" /><path clip-path="url(#clip300)" d="M1395.76 1525.81 L1395.76 1562.76 L1403.53 1562.76 Q1413.36 1562.76 1417.91 1558.3 Q1422.5 1553.85 1422.5 1544.24 Q1422.5 1534.69 1417.91 1530.26 Q1413.36 1525.81 1403.53 1525.81 L1395.76 1525.81 M1389.33 1520.52 L1402.54 1520.52 Q1416.35 1520.52 1422.81 1526.28 Q1429.27 1532.01 1429.27 1544.24 Q1429.27 1556.52 1422.78 1562.28 Q1416.29 1568.04 1402.54 1568.04 L1389.33 1568.04 L1389.33 1520.52 Z" fill="#000000" fill-rule="nonzero" fill-opacity="1" /><path clip-path="url(#clip300)" d="M1459.93 1537.87 Q1458.94 1537.3 1457.76 1537.04 Q1456.62 1536.76 1455.21 1536.76 Q1450.25 1536.76 1447.58 1540 Q1444.93 1543.22 1444.93 1549.27 L1444.93 1568.04 L1439.05 1568.04 L1439.05 1532.4 L1444.93 1532.4 L1444.93 1537.93 Q1446.78 1534.69 1449.74 1533.13 Q1452.7 1531.54 1456.93 1531.54 Q1457.54 1531.54 1458.27 1531.63 Q1459 1531.7 1459.89 1531.85 L1459.93 1537.87 Z" fill="#000000" fill-rule="nonzero" fill-opacity="1" /><path clip-path="url(#clip300)" d="M1478.45 1536.5 Q1473.74 1536.5 1471 1540.19 Q1468.26 1543.85 1468.26 1550.25 Q1468.26 1556.65 1470.97 1560.34 Q1473.71 1564 1478.45 1564 Q1483.13 1564 1485.87 1560.31 Q1488.6 1556.62 1488.6 1550.25 Q1488.6 1543.92 1485.87 1540.23 Q1483.13 1536.5 1478.45 1536.5 M1478.45 1531.54 Q1486.09 1531.54 1490.45 1536.5 Q1494.81 1541.47 1494.81 1550.25 Q1494.81 1559 1490.45 1564 Q1486.09 1568.97 1478.45 1568.97 Q1470.78 1568.97 1466.42 1564 Q1462.09 1559 1462.09 1550.25 Q1462.09 1541.47 1466.42 1536.5 Q1470.78 1531.54 1478.45 1531.54 Z" fill="#000000" fill-rule="nonzero" fill-opacity="1" /><path clip-path="url(#clip300)" d="M1510.18 1562.7 L1510.18 1581.6 L1504.29 1581.6 L1504.29 1532.4 L1510.18 1532.4 L1510.18 1537.81 Q1512.03 1534.62 1514.83 1533.1 Q1517.66 1531.54 1521.58 1531.54 Q1528.07 1531.54 1532.11 1536.69 Q1536.19 1541.85 1536.19 1550.25 Q1536.19 1558.65 1532.11 1563.81 Q1528.07 1568.97 1521.58 1568.97 Q1517.66 1568.97 1514.83 1567.44 Q1512.03 1565.88 1510.18 1562.7 M1530.11 1550.25 Q1530.11 1543.79 1527.43 1540.13 Q1524.79 1536.44 1520.15 1536.44 Q1515.5 1536.44 1512.82 1540.13 Q1510.18 1543.79 1510.18 1550.25 Q1510.18 1556.71 1512.82 1560.4 Q1515.5 1564.07 1520.15 1564.07 Q1524.79 1564.07 1527.43 1560.4 Q1530.11 1556.71 1530.11 1550.25 Z" fill="#000000" fill-rule="nonzero" fill-opacity="1" /><path clip-path="url(#clip300)" d="M1547.39 1559.96 L1554.11 1559.96 L1554.11 1565.43 L1548.89 1575.62 L1544.78 1575.62 L1547.39 1565.43 L1547.39 1559.96 Z" fill="#000000" fill-rule="nonzero" fill-opacity="1" /><path clip-path="url(#clip300)" d="M1603.47 1526.86 L1590.42 1562.7 L1616.55 1562.7 L1603.47 1526.86 M1581.7 1568.04 L1599.84 1520.52 L1607.13 1520.52 L1625.24 1568.04 L1581.7 1568.04 Z" fill="#000000" fill-rule="nonzero" fill-opacity="1" /><path clip-path="url(#clip300)" d="M1638.61 1525.81 L1638.61 1543.66 L1646.7 1543.66 Q1651.18 1543.66 1653.63 1541.34 Q1656.08 1539.02 1656.08 1534.72 Q1656.08 1530.45 1653.63 1528.13 Q1651.18 1525.81 1646.7 1525.81 L1638.61 1525.81 M1632.18 1520.52 L1646.7 1520.52 Q1654.68 1520.52 1658.76 1524.15 Q1662.86 1527.75 1662.86 1534.72 Q1662.86 1541.75 1658.76 1545.35 Q1654.68 1548.95 1646.7 1548.95 L1638.61 1548.95 L1638.61 1568.04 L1632.18 1568.04 L1632.18 1520.52 Z" fill="#000000" fill-rule="nonzero" fill-opacity="1" /><path clip-path="url(#clip300)" d="M1706.02 1518.58 Q1701.76 1525.9 1699.69 1533.06 Q1697.62 1540.23 1697.62 1547.58 Q1697.62 1554.93 1699.69 1562.16 Q1701.79 1569.35 1706.02 1576.64 L1700.93 1576.64 Q1696.16 1569.16 1693.77 1561.93 Q1691.41 1554.71 1691.41 1547.58 Q1691.41 1540.48 1693.77 1533.29 Q1696.13 1526.09 1700.93 1518.58 L1706.02 1518.58 Z" fill="#000000" fill-rule="nonzero" fill-opacity="1" /><path clip-path="url(#clip300)" d="M1742.98 1550.25 Q1742.98 1543.79 1740.3 1540.13 Q1737.66 1536.44 1733.01 1536.44 Q1728.37 1536.44 1725.69 1540.13 Q1723.05 1543.79 1723.05 1550.25 Q1723.05 1556.71 1725.69 1560.4 Q1728.37 1564.07 1733.01 1564.07 Q1737.66 1564.07 1740.3 1560.4 Q1742.98 1556.71 1742.98 1550.25 M1723.05 1537.81 Q1724.9 1534.62 1727.7 1533.1 Q1730.53 1531.54 1734.45 1531.54 Q1740.94 1531.54 1744.98 1536.69 Q1749.06 1541.85 1749.06 1550.25 Q1749.06 1558.65 1744.98 1563.81 Q1740.94 1568.97 1734.45 1568.97 Q1730.53 1568.97 1727.7 1567.44 Q1724.9 1565.88 1723.05 1562.7 L1723.05 1568.04 L1717.16 1568.04 L1717.16 1518.52 L1723.05 1518.52 L1723.05 1537.81 Z" fill="#000000" fill-rule="nonzero" fill-opacity="1" /><path clip-path="url(#clip300)" d="M1774.96 1550.12 Q1767.87 1550.12 1765.13 1551.75 Q1762.39 1553.37 1762.39 1557.29 Q1762.39 1560.4 1764.43 1562.25 Q1766.5 1564.07 1770.03 1564.07 Q1774.9 1564.07 1777.83 1560.63 Q1780.79 1557.16 1780.79 1551.43 L1780.79 1550.12 L1774.96 1550.12 M1786.65 1547.71 L1786.65 1568.04 L1780.79 1568.04 L1780.79 1562.63 Q1778.78 1565.88 1775.79 1567.44 Q1772.8 1568.97 1768.47 1568.97 Q1763 1568.97 1759.75 1565.91 Q1756.54 1562.82 1756.54 1557.67 Q1756.54 1551.65 1760.55 1548.6 Q1764.59 1545.54 1772.58 1545.54 L1780.79 1545.54 L1780.79 1544.97 Q1780.79 1540.93 1778.12 1538.73 Q1775.47 1536.5 1770.67 1536.5 Q1767.61 1536.5 1764.72 1537.23 Q1761.82 1537.97 1759.15 1539.43 L1759.15 1534.02 Q1762.36 1532.78 1765.38 1532.17 Q1768.41 1531.54 1771.27 1531.54 Q1779.01 1531.54 1782.83 1535.55 Q1786.65 1539.56 1786.65 1547.71 Z" fill="#000000" fill-rule="nonzero" fill-opacity="1" /><path clip-path="url(#clip300)" d="M1819.37 1537.87 Q1818.38 1537.3 1817.2 1537.04 Q1816.06 1536.76 1814.65 1536.76 Q1809.69 1536.76 1807.02 1540 Q1804.37 1543.22 1804.37 1549.27 L1804.37 1568.04 L1798.49 1568.04 L1798.49 1532.4 L1804.37 1532.4 L1804.37 1537.93 Q1806.22 1534.69 1809.18 1533.13 Q1812.14 1531.54 1816.37 1531.54 Q1816.98 1531.54 1817.71 1531.63 Q1818.44 1531.7 1819.33 1531.85 L1819.37 1537.87 Z" fill="#000000" fill-rule="nonzero" fill-opacity="1" /><path clip-path="url(#clip300)" d="M1824.59 1518.58 L1829.68 1518.58 Q1834.45 1526.09 1836.81 1533.29 Q1839.19 1540.48 1839.19 1547.58 Q1839.19 1554.71 1836.81 1561.93 Q1834.45 1569.16 1829.68 1576.64 L1824.59 1576.64 Q1828.82 1569.35 1830.89 1562.16 Q1832.99 1554.93 1832.99 1547.58 Q1832.99 1540.23 1830.89 1533.06 Q1828.82 1525.9 1824.59 1518.58 Z" fill="#000000" fill-rule="nonzero" fill-opacity="1" /><polyline clip-path="url(#clip300)" style="stroke:#000000; stroke-linecap:round; stroke-linejoin:round; stroke-width:4; stroke-opacity:1; fill:none" points="340.699,1423.18 340.699,47.2441 "/>
<polyline clip-path="url(#clip300)" style="stroke:#000000; stroke-linecap:round; stroke-linejoin:round; stroke-width:4; stroke-opacity:1; fill:none" points="340.699,1384.24 359.597,1384.24 "/>
<polyline clip-path="url(#clip300)" style="stroke:#000000; stroke-linecap:round; stroke-linejoin:round; stroke-width:4; stroke-opacity:1; fill:none" points="340.699,1146.63 359.597,1146.63 "/>
<polyline clip-path="url(#clip300)" style="stroke:#000000; stroke-linecap:round; stroke-linejoin:round; stroke-width:4; stroke-opacity:1; fill:none" points="340.699,909.015 359.597,909.015 "/>
<polyline clip-path="url(#clip300)" style="stroke:#000000; stroke-linecap:round; stroke-linejoin:round; stroke-width:4; stroke-opacity:1; fill:none" points="340.699,671.403 359.597,671.403 "/>
<polyline clip-path="url(#clip300)" style="stroke:#000000; stroke-linecap:round; stroke-linejoin:round; stroke-width:4; stroke-opacity:1; fill:none" points="340.699,433.791 359.597,433.791 "/>
<polyline clip-path="url(#clip300)" style="stroke:#000000; stroke-linecap:round; stroke-linejoin:round; stroke-width:4; stroke-opacity:1; fill:none" points="340.699,196.179 359.597,196.179 "/>
<path clip-path="url(#clip300)" d="M292.755 1370.04 Q289.143 1370.04 287.315 1373.6 Q285.509 1377.14 285.509 1384.27 Q285.509 1391.38 287.315 1394.94 Q289.143 1398.49 292.755 1398.49 Q296.389 1398.49 298.194 1394.94 Q300.023 1391.38 300.023 1384.27 Q300.023 1377.14 298.194 1373.6 Q296.389 1370.04 292.755 1370.04 M292.755 1366.33 Q298.565 1366.33 301.62 1370.94 Q304.699 1375.52 304.699 1384.27 Q304.699 1393 301.62 1397.61 Q298.565 1402.19 292.755 1402.19 Q286.944 1402.19 283.866 1397.61 Q280.81 1393 280.81 1384.27 Q280.81 1375.52 283.866 1370.94 Q286.944 1366.33 292.755 1366.33 Z" fill="#000000" fill-rule="nonzero" fill-opacity="1" /><path clip-path="url(#clip300)" d="M117.825 1166.42 L125.464 1166.42 L125.464 1140.05 L117.154 1141.72 L117.154 1137.46 L125.418 1135.79 L130.093 1135.79 L130.093 1166.42 L137.732 1166.42 L137.732 1170.35 L117.825 1170.35 L117.825 1166.42 Z" fill="#000000" fill-rule="nonzero" fill-opacity="1" /><path clip-path="url(#clip300)" d="M147.177 1164.47 L152.061 1164.47 L152.061 1170.35 L147.177 1170.35 L147.177 1164.47 Z" fill="#000000" fill-rule="nonzero" fill-opacity="1" /><path clip-path="url(#clip300)" d="M172.246 1138.87 Q168.635 1138.87 166.806 1142.44 Q165.001 1145.98 165.001 1153.11 Q165.001 1160.22 166.806 1163.78 Q168.635 1167.32 172.246 1167.32 Q175.88 1167.32 177.686 1163.78 Q179.514 1160.22 179.514 1153.11 Q179.514 1145.98 177.686 1142.44 Q175.88 1138.87 172.246 1138.87 M172.246 1135.17 Q178.056 1135.17 181.112 1139.78 Q184.19 1144.36 184.19 1153.11 Q184.19 1161.84 181.112 1166.44 Q178.056 1171.03 172.246 1171.03 Q166.436 1171.03 163.357 1166.44 Q160.302 1161.84 160.302 1153.11 Q160.302 1144.36 163.357 1139.78 Q166.436 1135.17 172.246 1135.17 Z" fill="#000000" fill-rule="nonzero" fill-opacity="1" /><path clip-path="url(#clip300)" d="M220.579 1144.89 L210 1155.52 L220.579 1166.09 L217.824 1168.9 L207.199 1158.27 L196.575 1168.9 L193.843 1166.09 L204.399 1155.52 L193.843 1144.89 L196.575 1142.09 L207.199 1152.72 L217.824 1142.09 L220.579 1144.89 Z" fill="#000000" fill-rule="nonzero" fill-opacity="1" /><path clip-path="url(#clip300)" d="M232.94 1166.42 L240.579 1166.42 L240.579 1140.05 L232.269 1141.72 L232.269 1137.46 L240.533 1135.79 L245.209 1135.79 L245.209 1166.42 L252.847 1166.42 L252.847 1170.35 L232.94 1170.35 L232.94 1166.42 Z" fill="#000000" fill-rule="nonzero" fill-opacity="1" /><path clip-path="url(#clip300)" d="M272.292 1138.87 Q268.681 1138.87 266.852 1142.44 Q265.046 1145.98 265.046 1153.11 Q265.046 1160.22 266.852 1163.78 Q268.681 1167.32 272.292 1167.32 Q275.926 1167.32 277.732 1163.78 Q279.56 1160.22 279.56 1153.11 Q279.56 1145.98 277.732 1142.44 Q275.926 1138.87 272.292 1138.87 M272.292 1135.17 Q278.102 1135.17 281.157 1139.78 Q284.236 1144.36 284.236 1153.11 Q284.236 1161.84 281.157 1166.44 Q278.102 1171.03 272.292 1171.03 Q266.482 1171.03 263.403 1166.44 Q260.347 1161.84 260.347 1153.11 Q260.347 1144.36 263.403 1139.78 Q266.482 1135.17 272.292 1135.17 Z" fill="#000000" fill-rule="nonzero" fill-opacity="1" /><path clip-path="url(#clip300)" d="M296.913 1118.17 L287.321 1133.16 L296.913 1133.16 L296.913 1118.17 M295.916 1114.86 L300.693 1114.86 L300.693 1133.16 L304.699 1133.16 L304.699 1136.32 L300.693 1136.32 L300.693 1142.94 L296.913 1142.94 L296.913 1136.32 L284.236 1136.32 L284.236 1132.66 L295.916 1114.86 Z" fill="#000000" fill-rule="nonzero" fill-opacity="1" /><path clip-path="url(#clip300)" d="M121.043 928.807 L137.362 928.807 L137.362 932.742 L115.418 932.742 L115.418 928.807 Q118.08 926.052 122.663 921.423 Q127.269 916.77 128.45 915.427 Q130.695 912.904 131.575 911.168 Q132.478 909.409 132.478 907.719 Q132.478 904.964 130.533 903.228 Q128.612 901.492 125.51 901.492 Q123.311 901.492 120.857 902.256 Q118.427 903.02 115.649 904.571 L115.649 899.849 Q118.473 898.715 120.927 898.136 Q123.38 897.557 125.418 897.557 Q130.788 897.557 133.982 900.242 Q137.177 902.927 137.177 907.418 Q137.177 909.548 136.367 911.469 Q135.579 913.367 133.473 915.96 Q132.894 916.631 129.792 919.849 Q126.691 923.043 121.043 928.807 Z" fill="#000000" fill-rule="nonzero" fill-opacity="1" /><path clip-path="url(#clip300)" d="M147.177 926.863 L152.061 926.863 L152.061 932.742 L147.177 932.742 L147.177 926.863 Z" fill="#000000" fill-rule="nonzero" fill-opacity="1" /><path clip-path="url(#clip300)" d="M172.246 901.261 Q168.635 901.261 166.806 904.826 Q165.001 908.367 165.001 915.497 Q165.001 922.603 166.806 926.168 Q168.635 929.71 172.246 929.71 Q175.88 929.71 177.686 926.168 Q179.514 922.603 179.514 915.497 Q179.514 908.367 177.686 904.826 Q175.88 901.261 172.246 901.261 M172.246 897.557 Q178.056 897.557 181.112 902.164 Q184.19 906.747 184.19 915.497 Q184.19 924.224 181.112 928.83 Q178.056 933.413 172.246 933.413 Q166.436 933.413 163.357 928.83 Q160.302 924.224 160.302 915.497 Q160.302 906.747 163.357 902.164 Q166.436 897.557 172.246 897.557 Z" fill="#000000" fill-rule="nonzero" fill-opacity="1" /><path clip-path="url(#clip300)" d="M220.579 907.279 L210 917.904 L220.579 928.483 L217.824 931.284 L207.199 920.659 L196.575 931.284 L193.843 928.483 L204.399 917.904 L193.843 907.279 L196.575 904.478 L207.199 915.103 L217.824 904.478 L220.579 907.279 Z" fill="#000000" fill-rule="nonzero" fill-opacity="1" /><path clip-path="url(#clip300)" d="M232.94 928.807 L240.579 928.807 L240.579 902.441 L232.269 904.108 L232.269 899.849 L240.533 898.182 L245.209 898.182 L245.209 928.807 L252.847 928.807 L252.847 932.742 L232.94 932.742 L232.94 928.807 Z" fill="#000000" fill-rule="nonzero" fill-opacity="1" /><path clip-path="url(#clip300)" d="M272.292 901.261 Q268.681 901.261 266.852 904.826 Q265.046 908.367 265.046 915.497 Q265.046 922.603 266.852 926.168 Q268.681 929.71 272.292 929.71 Q275.926 929.71 277.732 926.168 Q279.56 922.603 279.56 915.497 Q279.56 908.367 277.732 904.826 Q275.926 901.261 272.292 901.261 M272.292 897.557 Q278.102 897.557 281.157 902.164 Q284.236 906.747 284.236 915.497 Q284.236 924.224 281.157 928.83 Q278.102 933.413 272.292 933.413 Q266.482 933.413 263.403 928.83 Q260.347 924.224 260.347 915.497 Q260.347 906.747 263.403 902.164 Q266.482 897.557 272.292 897.557 Z" fill="#000000" fill-rule="nonzero" fill-opacity="1" /><path clip-path="url(#clip300)" d="M296.913 880.562 L287.321 895.552 L296.913 895.552 L296.913 880.562 M295.916 877.252 L300.693 877.252 L300.693 895.552 L304.699 895.552 L304.699 898.711 L300.693 898.711 L300.693 905.332 L296.913 905.332 L296.913 898.711 L284.236 898.711 L284.236 895.044 L295.916 877.252 Z" fill="#000000" fill-rule="nonzero" fill-opacity="1" /><path clip-path="url(#clip300)" d="M131.181 676.496 Q134.538 677.214 136.413 679.482 Q138.311 681.751 138.311 685.084 Q138.311 690.2 134.792 693.001 Q131.274 695.802 124.793 695.802 Q122.617 695.802 120.302 695.362 Q118.01 694.945 115.556 694.089 L115.556 689.575 Q117.501 690.709 119.816 691.288 Q122.13 691.866 124.654 691.866 Q129.052 691.866 131.343 690.13 Q133.658 688.394 133.658 685.084 Q133.658 682.028 131.505 680.315 Q129.376 678.579 125.556 678.579 L121.529 678.579 L121.529 674.737 L125.742 674.737 Q129.191 674.737 131.019 673.371 Q132.848 671.982 132.848 669.39 Q132.848 666.728 130.95 665.316 Q129.075 663.88 125.556 663.88 Q123.635 663.88 121.436 664.297 Q119.237 664.714 116.598 665.593 L116.598 661.427 Q119.26 660.686 121.575 660.316 Q123.913 659.945 125.973 659.945 Q131.297 659.945 134.399 662.376 Q137.501 664.783 137.501 668.904 Q137.501 671.774 135.857 673.765 Q134.214 675.732 131.181 676.496 Z" fill="#000000" fill-rule="nonzero" fill-opacity="1" /><path clip-path="url(#clip300)" d="M147.177 689.251 L152.061 689.251 L152.061 695.13 L147.177 695.13 L147.177 689.251 Z" fill="#000000" fill-rule="nonzero" fill-opacity="1" /><path clip-path="url(#clip300)" d="M172.246 663.649 Q168.635 663.649 166.806 667.214 Q165.001 670.755 165.001 677.885 Q165.001 684.991 166.806 688.556 Q168.635 692.098 172.246 692.098 Q175.88 692.098 177.686 688.556 Q179.514 684.991 179.514 677.885 Q179.514 670.755 177.686 667.214 Q175.88 663.649 172.246 663.649 M172.246 659.945 Q178.056 659.945 181.112 664.552 Q184.19 669.135 184.19 677.885 Q184.19 686.612 181.112 691.218 Q178.056 695.802 172.246 695.802 Q166.436 695.802 163.357 691.218 Q160.302 686.612 160.302 677.885 Q160.302 669.135 163.357 664.552 Q166.436 659.945 172.246 659.945 Z" fill="#000000" fill-rule="nonzero" fill-opacity="1" /><path clip-path="url(#clip300)" d="M220.579 669.667 L210 680.292 L220.579 690.871 L217.824 693.672 L207.199 683.047 L196.575 693.672 L193.843 690.871 L204.399 680.292 L193.843 669.667 L196.575 666.866 L207.199 677.491 L217.824 666.866 L220.579 669.667 Z" fill="#000000" fill-rule="nonzero" fill-opacity="1" /><path clip-path="url(#clip300)" d="M232.94 691.195 L240.579 691.195 L240.579 664.829 L232.269 666.496 L232.269 662.237 L240.533 660.57 L245.209 660.57 L245.209 691.195 L252.847 691.195 L252.847 695.13 L232.94 695.13 L232.94 691.195 Z" fill="#000000" fill-rule="nonzero" fill-opacity="1" /><path clip-path="url(#clip300)" d="M272.292 663.649 Q268.681 663.649 266.852 667.214 Q265.046 670.755 265.046 677.885 Q265.046 684.991 266.852 688.556 Q268.681 692.098 272.292 692.098 Q275.926 692.098 277.732 688.556 Q279.56 684.991 279.56 677.885 Q279.56 670.755 277.732 667.214 Q275.926 663.649 272.292 663.649 M272.292 659.945 Q278.102 659.945 281.157 664.552 Q284.236 669.135 284.236 677.885 Q284.236 686.612 281.157 691.218 Q278.102 695.802 272.292 695.802 Q266.482 695.802 263.403 691.218 Q260.347 686.612 260.347 677.885 Q260.347 669.135 263.403 664.552 Q266.482 659.945 272.292 659.945 Z" fill="#000000" fill-rule="nonzero" fill-opacity="1" /><path clip-path="url(#clip300)" d="M296.913 642.95 L287.321 657.94 L296.913 657.94 L296.913 642.95 M295.916 639.64 L300.693 639.64 L300.693 657.94 L304.699 657.94 L304.699 661.099 L300.693 661.099 L300.693 667.72 L296.913 667.72 L296.913 661.099 L284.236 661.099 L284.236 657.432 L295.916 639.64 Z" fill="#000000" fill-rule="nonzero" fill-opacity="1" /><path clip-path="url(#clip300)" d="M129.862 427.032 L118.056 445.481 L129.862 445.481 L129.862 427.032 M128.635 422.958 L134.515 422.958 L134.515 445.481 L139.445 445.481 L139.445 449.37 L134.515 449.37 L134.515 457.518 L129.862 457.518 L129.862 449.37 L114.26 449.37 L114.26 444.856 L128.635 422.958 Z" fill="#000000" fill-rule="nonzero" fill-opacity="1" /><path clip-path="url(#clip300)" d="M147.177 451.639 L152.061 451.639 L152.061 457.518 L147.177 457.518 L147.177 451.639 Z" fill="#000000" fill-rule="nonzero" fill-opacity="1" /><path clip-path="url(#clip300)" d="M172.246 426.037 Q168.635 426.037 166.806 429.602 Q165.001 433.143 165.001 440.273 Q165.001 447.38 166.806 450.944 Q168.635 454.486 172.246 454.486 Q175.88 454.486 177.686 450.944 Q179.514 447.38 179.514 440.273 Q179.514 433.143 177.686 429.602 Q175.88 426.037 172.246 426.037 M172.246 422.333 Q178.056 422.333 181.112 426.94 Q184.19 431.523 184.19 440.273 Q184.19 449 181.112 453.606 Q178.056 458.19 172.246 458.19 Q166.436 458.19 163.357 453.606 Q160.302 449 160.302 440.273 Q160.302 431.523 163.357 426.94 Q166.436 422.333 172.246 422.333 Z" fill="#000000" fill-rule="nonzero" fill-opacity="1" /><path clip-path="url(#clip300)" d="M220.579 432.056 L210 442.68 L220.579 453.259 L217.824 456.06 L207.199 445.435 L196.575 456.06 L193.843 453.259 L204.399 442.68 L193.843 432.056 L196.575 429.255 L207.199 439.88 L217.824 429.255 L220.579 432.056 Z" fill="#000000" fill-rule="nonzero" fill-opacity="1" /><path clip-path="url(#clip300)" d="M232.94 453.583 L240.579 453.583 L240.579 427.218 L232.269 428.884 L232.269 424.625 L240.533 422.958 L245.209 422.958 L245.209 453.583 L252.847 453.583 L252.847 457.518 L232.94 457.518 L232.94 453.583 Z" fill="#000000" fill-rule="nonzero" fill-opacity="1" /><path clip-path="url(#clip300)" d="M272.292 426.037 Q268.681 426.037 266.852 429.602 Q265.046 433.143 265.046 440.273 Q265.046 447.38 266.852 450.944 Q268.681 454.486 272.292 454.486 Q275.926 454.486 277.732 450.944 Q279.56 447.38 279.56 440.273 Q279.56 433.143 277.732 429.602 Q275.926 426.037 272.292 426.037 M272.292 422.333 Q278.102 422.333 281.157 426.94 Q284.236 431.523 284.236 440.273 Q284.236 449 281.157 453.606 Q278.102 458.19 272.292 458.19 Q266.482 458.19 263.403 453.606 Q260.347 449 260.347 440.273 Q260.347 431.523 263.403 426.94 Q266.482 422.333 272.292 422.333 Z" fill="#000000" fill-rule="nonzero" fill-opacity="1" /><path clip-path="url(#clip300)" d="M296.913 405.338 L287.321 420.328 L296.913 420.328 L296.913 405.338 M295.916 402.028 L300.693 402.028 L300.693 420.328 L304.699 420.328 L304.699 423.488 L300.693 423.488 L300.693 430.108 L296.913 430.108 L296.913 423.488 L284.236 423.488 L284.236 419.82 L295.916 402.028 Z" fill="#000000" fill-rule="nonzero" fill-opacity="1" /><path clip-path="url(#clip300)" d="M117.061 185.346 L135.417 185.346 L135.417 189.282 L121.343 189.282 L121.343 197.754 Q122.362 197.407 123.38 197.245 Q124.399 197.059 125.418 197.059 Q131.205 197.059 134.584 200.231 Q137.964 203.402 137.964 208.819 Q137.964 214.397 134.492 217.499 Q131.019 220.578 124.7 220.578 Q122.524 220.578 120.255 220.207 Q118.01 219.837 115.603 219.096 L115.603 214.397 Q117.686 215.532 119.908 216.087 Q122.13 216.643 124.607 216.643 Q128.612 216.643 130.95 214.536 Q133.288 212.43 133.288 208.819 Q133.288 205.207 130.95 203.101 Q128.612 200.995 124.607 200.995 Q122.732 200.995 120.857 201.411 Q119.006 201.828 117.061 202.707 L117.061 185.346 Z" fill="#000000" fill-rule="nonzero" fill-opacity="1" /><path clip-path="url(#clip300)" d="M147.177 214.027 L152.061 214.027 L152.061 219.906 L147.177 219.906 L147.177 214.027 Z" fill="#000000" fill-rule="nonzero" fill-opacity="1" /><path clip-path="url(#clip300)" d="M172.246 188.425 Q168.635 188.425 166.806 191.99 Q165.001 195.532 165.001 202.661 Q165.001 209.768 166.806 213.332 Q168.635 216.874 172.246 216.874 Q175.88 216.874 177.686 213.332 Q179.514 209.768 179.514 202.661 Q179.514 195.532 177.686 191.99 Q175.88 188.425 172.246 188.425 M172.246 184.721 Q178.056 184.721 181.112 189.328 Q184.19 193.911 184.19 202.661 Q184.19 211.388 181.112 215.994 Q178.056 220.578 172.246 220.578 Q166.436 220.578 163.357 215.994 Q160.302 211.388 160.302 202.661 Q160.302 193.911 163.357 189.328 Q166.436 184.721 172.246 184.721 Z" fill="#000000" fill-rule="nonzero" fill-opacity="1" /><path clip-path="url(#clip300)" d="M220.579 194.444 L210 205.069 L220.579 215.647 L217.824 218.448 L207.199 207.823 L196.575 218.448 L193.843 215.647 L204.399 205.069 L193.843 194.444 L196.575 191.643 L207.199 202.268 L217.824 191.643 L220.579 194.444 Z" fill="#000000" fill-rule="nonzero" fill-opacity="1" /><path clip-path="url(#clip300)" d="M232.94 215.971 L240.579 215.971 L240.579 189.606 L232.269 191.272 L232.269 187.013 L240.533 185.346 L245.209 185.346 L245.209 215.971 L252.847 215.971 L252.847 219.906 L232.94 219.906 L232.94 215.971 Z" fill="#000000" fill-rule="nonzero" fill-opacity="1" /><path clip-path="url(#clip300)" d="M272.292 188.425 Q268.681 188.425 266.852 191.99 Q265.046 195.532 265.046 202.661 Q265.046 209.768 266.852 213.332 Q268.681 216.874 272.292 216.874 Q275.926 216.874 277.732 213.332 Q279.56 209.768 279.56 202.661 Q279.56 195.532 277.732 191.99 Q275.926 188.425 272.292 188.425 M272.292 184.721 Q278.102 184.721 281.157 189.328 Q284.236 193.911 284.236 202.661 Q284.236 211.388 281.157 215.994 Q278.102 220.578 272.292 220.578 Q266.482 220.578 263.403 215.994 Q260.347 211.388 260.347 202.661 Q260.347 193.911 263.403 189.328 Q266.482 184.721 272.292 184.721 Z" fill="#000000" fill-rule="nonzero" fill-opacity="1" /><path clip-path="url(#clip300)" d="M296.913 167.726 L287.321 182.716 L296.913 182.716 L296.913 167.726 M295.916 164.416 L300.693 164.416 L300.693 182.716 L304.699 182.716 L304.699 185.876 L300.693 185.876 L300.693 192.496 L296.913 192.496 L296.913 185.876 L284.236 185.876 L284.236 182.208 L295.916 164.416 Z" fill="#000000" fill-rule="nonzero" fill-opacity="1" /><path clip-path="url(#clip300)" d="M16.4842 1094.46 L16.4842 1084.88 L48.8219 1072.75 L16.4842 1060.56 L16.4842 1050.98 L64.0042 1050.98 L64.0042 1057.25 L22.277 1057.25 L54.8694 1069.51 L54.8694 1075.97 L22.277 1088.22 L64.0042 1088.22 L64.0042 1094.46 L16.4842 1094.46 Z" fill="#000000" fill-rule="nonzero" fill-opacity="1" /><path clip-path="url(#clip300)" d="M46.0847 1022.27 Q46.0847 1029.37 47.7079 1032.11 Q49.3312 1034.85 53.2461 1034.85 Q56.3653 1034.85 58.2114 1032.81 Q60.0256 1030.74 60.0256 1027.21 Q60.0256 1022.34 56.5881 1019.41 Q53.1188 1016.45 47.3897 1016.45 L46.0847 1016.45 L46.0847 1022.27 M43.6657 1010.59 L64.0042 1010.59 L64.0042 1016.45 L58.5933 1016.45 Q61.8398 1018.45 63.3994 1021.45 Q64.9272 1024.44 64.9272 1028.77 Q64.9272 1034.24 61.8716 1037.49 Q58.7843 1040.7 53.6281 1040.7 Q47.6125 1040.7 44.5569 1036.69 Q41.5014 1032.65 41.5014 1024.66 L41.5014 1016.45 L40.9285 1016.45 Q36.8862 1016.45 34.6901 1019.12 Q32.4621 1021.76 32.4621 1026.57 Q32.4621 1029.63 33.1941 1032.52 Q33.9262 1035.42 35.3903 1038.09 L29.9795 1038.09 Q28.7381 1034.88 28.1334 1031.85 Q27.4968 1028.83 27.4968 1025.97 Q27.4968 1018.23 31.5072 1014.41 Q35.5176 1010.59 43.6657 1010.59 Z" fill="#000000" fill-rule="nonzero" fill-opacity="1" /><path clip-path="url(#clip300)" d="M29.4065 975.804 L34.9447 975.804 Q33.6716 978.286 33.035 980.96 Q32.3984 983.634 32.3984 986.498 Q32.3984 990.859 33.7352 993.055 Q35.072 995.219 37.7456 995.219 Q39.7826 995.219 40.9603 993.66 Q42.1061 992.1 43.1565 987.389 L43.6021 985.384 Q44.9389 979.146 47.3897 976.536 Q49.8086 973.894 54.1691 973.894 Q59.1344 973.894 62.0308 977.841 Q64.9272 981.756 64.9272 988.631 Q64.9272 991.495 64.3543 994.615 Q63.8132 997.702 62.6992 1001.14 L56.6518 1001.14 Q58.3387 997.893 59.198 994.742 Q60.0256 991.591 60.0256 988.503 Q60.0256 984.366 58.6251 982.138 Q57.1929 979.91 54.6147 979.91 Q52.2276 979.91 50.9545 981.533 Q49.6813 983.124 48.5037 988.567 L48.0262 990.604 Q46.8804 996.047 44.5251 998.466 Q42.138 1000.88 38.0002 1000.88 Q32.9713 1000.88 30.2341 997.32 Q27.4968 993.755 27.4968 987.198 Q27.4968 983.952 27.9743 981.087 Q28.4517 978.223 29.4065 975.804 Z" fill="#000000" fill-rule="nonzero" fill-opacity="1" /><path clip-path="url(#clip300)" d="M29.4065 941.843 L34.9447 941.843 Q33.6716 944.325 33.035 946.999 Q32.3984 949.673 32.3984 952.537 Q32.3984 956.898 33.7352 959.094 Q35.072 961.258 37.7456 961.258 Q39.7826 961.258 40.9603 959.699 Q42.1061 958.139 43.1565 953.428 L43.6021 951.423 Q44.9389 945.185 47.3897 942.575 Q49.8086 939.933 54.1691 939.933 Q59.1344 939.933 62.0308 943.88 Q64.9272 947.795 64.9272 954.67 Q64.9272 957.534 64.3543 960.653 Q63.8132 963.741 62.6992 967.178 L56.6518 967.178 Q58.3387 963.932 59.198 960.781 Q60.0256 957.63 60.0256 954.542 Q60.0256 950.405 58.6251 948.177 Q57.1929 945.949 54.6147 945.949 Q52.2276 945.949 50.9545 947.572 Q49.6813 949.163 48.5037 954.606 L48.0262 956.643 Q46.8804 962.086 44.5251 964.505 Q42.138 966.924 38.0002 966.924 Q32.9713 966.924 30.2341 963.359 Q27.4968 959.794 27.4968 953.237 Q27.4968 949.991 27.9743 947.126 Q28.4517 944.262 29.4065 941.843 Z" fill="#000000" fill-rule="nonzero" fill-opacity="1" /><path clip-path="url(#clip300)" d="M16.4842 909.632 L16.4842 882.323 L21.895 882.323 L21.895 903.203 L35.8996 903.203 L35.8996 884.36 L41.3104 884.36 L41.3104 903.203 L64.0042 903.203 L64.0042 909.632 L16.4842 909.632 Z" fill="#000000" fill-rule="nonzero" fill-opacity="1" /><path clip-path="url(#clip300)" d="M14.479 872.393 L14.479 866.536 L64.0042 866.536 L64.0042 872.393 L14.479 872.393 Z" fill="#000000" fill-rule="nonzero" fill-opacity="1" /><path clip-path="url(#clip300)" d="M49.9359 854.887 L28.3562 854.887 L28.3562 849.031 L49.7131 849.031 Q54.7739 849.031 57.3202 847.057 Q59.8346 845.084 59.8346 841.137 Q59.8346 836.395 56.8109 833.658 Q53.7872 830.889 48.5673 830.889 L28.3562 830.889 L28.3562 825.032 L64.0042 825.032 L64.0042 830.889 L58.5296 830.889 Q61.7762 833.021 63.3676 835.854 Q64.9272 838.655 64.9272 842.379 Q64.9272 848.522 61.1078 851.704 Q57.2883 854.887 49.9359 854.887 M27.4968 840.151 L27.4968 840.151 Z" fill="#000000" fill-rule="nonzero" fill-opacity="1" /><path clip-path="url(#clip300)" d="M28.3562 783.337 L45.7028 796.227 L64.0042 782.668 L64.0042 789.575 L49.9996 799.951 L64.0042 810.327 L64.0042 817.234 L45.3526 803.389 L28.3562 816.056 L28.3562 809.15 L41.0558 799.697 L28.3562 790.244 L28.3562 783.337 Z" fill="#000000" fill-rule="nonzero" fill-opacity="1" /><path clip-path="url(#clip300)" d="M55.9197 772.897 L55.9197 766.181 L61.3942 766.181 L71.5793 771.401 L71.5793 775.507 L61.3942 772.897 L55.9197 772.897 Z" fill="#000000" fill-rule="nonzero" fill-opacity="1" /><path clip-path="url(#clip300)" d="M57.2247 700.296 L44.4614 700.296 L44.4614 710.799 L39.1779 710.799 L39.1779 693.93 L59.58 693.93 Q62.2218 697.654 63.5904 702.142 Q64.9272 706.63 64.9272 711.723 Q64.9272 722.862 58.4342 729.165 Q51.9093 735.435 40.2919 735.435 Q28.6427 735.435 22.1496 729.165 Q15.6248 722.862 15.6248 711.723 Q15.6248 707.076 16.7706 702.906 Q17.9164 698.705 20.1444 695.172 L26.9876 695.172 Q23.9639 698.736 22.4361 702.747 Q20.9083 706.757 20.9083 711.181 Q20.9083 719.902 25.7781 724.295 Q30.6479 728.655 40.2919 728.655 Q49.9041 728.655 54.7739 724.295 Q59.6436 719.902 59.6436 711.181 Q59.6436 707.776 59.0707 705.102 Q58.466 702.429 57.2247 700.296 Z" fill="#000000" fill-rule="nonzero" fill-opacity="1" /><path clip-path="url(#clip300)" d="M14.5426 647.652 Q21.8632 651.917 29.0246 653.986 Q36.186 656.054 43.5384 656.054 Q50.8908 656.054 58.1159 653.986 Q65.3091 651.885 72.5979 647.652 L72.5979 652.744 Q65.1182 657.519 57.8931 659.906 Q50.668 662.261 43.5384 662.261 Q36.4406 662.261 29.2474 659.906 Q22.0542 657.55 14.5426 652.744 L14.5426 647.652 Z" fill="#000000" fill-rule="nonzero" fill-opacity="1" /><path clip-path="url(#clip300)" d="M14.479 636.512 L14.479 630.623 L43.7294 630.623 L28.3562 613.15 L28.3562 605.67 L45.0344 624.576 L64.0042 604.874 L64.0042 612.513 L46.5939 630.623 L64.0042 630.623 L64.0042 636.512 L14.479 636.512 Z" fill="#000000" fill-rule="nonzero" fill-opacity="1" /><path clip-path="url(#clip300)" d="M45.7664 575.083 Q39.4007 575.083 35.8996 577.724 Q32.3984 580.334 32.3984 585.077 Q32.3984 589.787 35.8996 592.429 Q39.4007 595.039 45.7664 595.039 Q52.1003 595.039 55.6014 592.429 Q59.1026 589.787 59.1026 585.077 Q59.1026 580.334 55.6014 577.724 Q52.1003 575.083 45.7664 575.083 M59.58 569.226 Q68.683 569.226 73.1071 573.268 Q77.5631 577.311 77.5631 585.65 Q77.5631 588.737 77.0857 591.474 Q76.6401 594.212 75.6852 596.79 L69.9879 596.79 Q71.3884 594.212 72.0568 591.697 Q72.7252 589.183 72.7252 586.573 Q72.7252 580.812 69.7015 577.947 Q66.7096 575.083 60.6303 575.083 L57.7339 575.083 Q60.885 576.897 62.4446 579.73 Q64.0042 582.562 64.0042 586.509 Q64.0042 593.066 59.0071 597.076 Q54.01 601.087 45.7664 601.087 Q37.491 601.087 32.4939 597.076 Q27.4968 593.066 27.4968 586.509 Q27.4968 582.562 29.0564 579.73 Q30.616 576.897 33.7671 575.083 L28.3562 575.083 L28.3562 569.226 L59.58 569.226 Z" fill="#000000" fill-rule="nonzero" fill-opacity="1" /><path clip-path="url(#clip300)" d="M16.4842 546.755 L16.4842 541.344 L70.0516 557.895 L70.0516 563.306 L16.4842 546.755 Z" fill="#000000" fill-rule="nonzero" fill-opacity="1" /><path clip-path="url(#clip300)" d="M35.1993 507.447 Q31.2526 505.251 29.3747 502.195 Q27.4968 499.14 27.4968 495.002 Q27.4968 489.432 31.4117 486.408 Q35.2948 483.385 42.4881 483.385 L64.0042 483.385 L64.0042 489.273 L42.679 489.273 Q37.5546 489.273 35.072 491.087 Q32.5894 492.901 32.5894 496.625 Q32.5894 501.177 35.6131 503.819 Q38.6368 506.46 43.8567 506.46 L64.0042 506.46 L64.0042 512.349 L42.679 512.349 Q37.5228 512.349 35.072 514.163 Q32.5894 515.977 32.5894 519.765 Q32.5894 524.252 35.6449 526.894 Q38.6686 529.536 43.8567 529.536 L64.0042 529.536 L64.0042 535.424 L28.3562 535.424 L28.3562 529.536 L33.8944 529.536 Q30.616 527.531 29.0564 524.73 Q27.4968 521.929 27.4968 518.078 Q27.4968 514.195 29.4702 511.489 Q31.4436 508.752 35.1993 507.447 Z" fill="#000000" fill-rule="nonzero" fill-opacity="1" /><path clip-path="url(#clip300)" d="M39.1142 469.316 L39.1142 455.821 L42.7427 455.821 L42.7427 474.855 L39.2416 474.855 Q38.2549 473.772 36.4725 471.767 Q26.7648 460.818 23.7729 460.818 Q21.6722 460.818 20.3991 462.473 Q19.0941 464.128 19.0941 466.834 Q19.0941 468.489 19.667 470.43 Q20.2081 472.372 21.3221 474.664 L17.4072 474.664 Q16.516 472.213 16.0704 470.112 Q15.6248 467.98 15.6248 466.165 Q15.6248 461.55 17.7255 458.781 Q19.8262 456.012 23.2636 456.012 Q27.6878 456.012 36.7271 466.547 Q38.2549 468.33 39.1142 469.316 Z" fill="#000000" fill-rule="nonzero" fill-opacity="1" /><path clip-path="url(#clip300)" d="M16.4842 435.164 L16.4842 429.754 L70.0516 446.304 L70.0516 451.715 L16.4842 435.164 Z" fill="#000000" fill-rule="nonzero" fill-opacity="1" /><path clip-path="url(#clip300)" d="M29.4065 400.885 L34.9447 400.885 Q33.6716 403.368 33.035 406.041 Q32.3984 408.715 32.3984 411.579 Q32.3984 415.94 33.7352 418.136 Q35.072 420.3 37.7456 420.3 Q39.7826 420.3 40.9603 418.741 Q42.1061 417.181 43.1565 412.471 L43.6021 410.465 Q44.9389 404.227 47.3897 401.617 Q49.8086 398.975 54.1691 398.975 Q59.1344 398.975 62.0308 402.922 Q64.9272 406.837 64.9272 413.712 Q64.9272 416.577 64.3543 419.696 Q63.8132 422.783 62.6992 426.221 L56.6518 426.221 Q58.3387 422.974 59.198 419.823 Q60.0256 416.672 60.0256 413.585 Q60.0256 409.447 58.6251 407.219 Q57.1929 404.991 54.6147 404.991 Q52.2276 404.991 50.9545 406.614 Q49.6813 408.206 48.5037 413.648 L48.0262 415.685 Q46.8804 421.128 44.5251 423.547 Q42.138 425.966 38.0002 425.966 Q32.9713 425.966 30.2341 422.401 Q27.4968 418.836 27.4968 412.28 Q27.4968 409.033 27.9743 406.169 Q28.4517 403.304 29.4065 400.885 Z" fill="#000000" fill-rule="nonzero" fill-opacity="1" /><path clip-path="url(#clip300)" d="M14.5426 390.573 L14.5426 385.48 Q22.0542 380.706 29.2474 378.35 Q36.4406 375.963 43.5384 375.963 Q50.668 375.963 57.8931 378.35 Q65.1182 380.706 72.5979 385.48 L72.5979 390.573 Q65.3091 386.339 58.1159 384.271 Q50.8908 382.17 43.5384 382.17 Q36.186 382.17 29.0246 384.271 Q21.8632 386.339 14.5426 390.573 Z" fill="#000000" fill-rule="nonzero" fill-opacity="1" /><circle clip-path="url(#clip302)" cx="397.644" cy="1384.24" r="7.2" fill="#000000" fill-rule="evenodd" fill-opacity="1" stroke="none"/>
<circle clip-path="url(#clip302)" cx="397.644" cy="1384.24" r="7.2" fill="#000000" fill-rule="evenodd" fill-opacity="1" stroke="none"/>
<circle clip-path="url(#clip302)" cx="397.644" cy="1384.24" r="7.2" fill="#000000" fill-rule="evenodd" fill-opacity="1" stroke="none"/>
<circle clip-path="url(#clip302)" cx="397.644" cy="1384.23" r="7.2" fill="#000000" fill-rule="evenodd" fill-opacity="1" stroke="none"/>
<circle clip-path="url(#clip302)" cx="397.644" cy="1384.22" r="7.2" fill="#000000" fill-rule="evenodd" fill-opacity="1" stroke="none"/>
<circle clip-path="url(#clip302)" cx="397.644" cy="1384.18" r="7.2" fill="#000000" fill-rule="evenodd" fill-opacity="1" stroke="none"/>
<circle clip-path="url(#clip302)" cx="397.644" cy="1384.05" r="7.2" fill="#000000" fill-rule="evenodd" fill-opacity="1" stroke="none"/>
<circle clip-path="url(#clip302)" cx="397.644" cy="1383.66" r="7.2" fill="#000000" fill-rule="evenodd" fill-opacity="1" stroke="none"/>
<circle clip-path="url(#clip302)" cx="397.646" cy="1382.4" r="7.2" fill="#000000" fill-rule="evenodd" fill-opacity="1" stroke="none"/>
<circle clip-path="url(#clip302)" cx="397.665" cy="1378.43" r="7.2" fill="#000000" fill-rule="evenodd" fill-opacity="1" stroke="none"/>
<circle clip-path="url(#clip302)" cx="397.858" cy="1365.86" r="7.2" fill="#000000" fill-rule="evenodd" fill-opacity="1" stroke="none"/>
<circle clip-path="url(#clip302)" cx="399.785" cy="1326.13" r="7.2" fill="#000000" fill-rule="evenodd" fill-opacity="1" stroke="none"/>
<circle clip-path="url(#clip302)" cx="419.057" cy="1200.8" r="7.2" fill="#000000" fill-rule="evenodd" fill-opacity="1" stroke="none"/>
<circle clip-path="url(#clip302)" cx="521.049" cy="948.032" r="7.2" fill="#000000" fill-rule="evenodd" fill-opacity="1" stroke="none"/>
<circle clip-path="url(#clip302)" cx="733.018" cy="680.102" r="7.2" fill="#000000" fill-rule="evenodd" fill-opacity="1" stroke="none"/>
<circle clip-path="url(#clip302)" cx="1025.49" cy="451.587" r="7.2" fill="#000000" fill-rule="evenodd" fill-opacity="1" stroke="none"/>
<circle clip-path="url(#clip302)" cx="1379.28" cy="270.47" r="7.2" fill="#000000" fill-rule="evenodd" fill-opacity="1" stroke="none"/>
<circle clip-path="url(#clip302)" cx="1787.11" cy="143.215" r="7.2" fill="#000000" fill-rule="evenodd" fill-opacity="1" stroke="none"/>
<circle clip-path="url(#clip302)" cx="2219.49" cy="87.5323" r="7.2" fill="#000000" fill-rule="evenodd" fill-opacity="1" stroke="none"/>
<circle clip-path="url(#clip302)" cx="2295.81" cy="86.1857" r="7.2" fill="#000000" fill-rule="evenodd" fill-opacity="1" stroke="none"/>
<circle clip-path="url(#clip302)" cx="2295.81" cy="86.1857" r="7.2" fill="#000000" fill-rule="evenodd" fill-opacity="1" stroke="none"/>
<polyline clip-path="url(#clip302)" style="stroke:#000000; stroke-linecap:round; stroke-linejoin:round; stroke-width:4; stroke-opacity:1; fill:none" stroke-dasharray="16, 10" points="397.644,1384.24 397.644,1384.24 "/>
<polyline clip-path="url(#clip302)" style="stroke:#000000; stroke-linecap:round; stroke-linejoin:round; stroke-width:4; stroke-opacity:1; fill:none" stroke-dasharray="16, 10" points="397.644,1384.24 397.644,1384.24 "/>
<polyline clip-path="url(#clip302)" style="stroke:#000000; stroke-linecap:round; stroke-linejoin:round; stroke-width:4; stroke-opacity:1; fill:none" stroke-dasharray="16, 10" points="397.644,1384.24 397.644,1384.24 "/>
<polyline clip-path="url(#clip302)" style="stroke:#000000; stroke-linecap:round; stroke-linejoin:round; stroke-width:4; stroke-opacity:1; fill:none" stroke-dasharray="16, 10" points="397.644,1384.24 397.644,1384.23 "/>
<polyline clip-path="url(#clip302)" style="stroke:#000000; stroke-linecap:round; stroke-linejoin:round; stroke-width:4; stroke-opacity:1; fill:none" stroke-dasharray="16, 10" points="397.644,1384.24 397.644,1384.22 "/>
<polyline clip-path="url(#clip302)" style="stroke:#000000; stroke-linecap:round; stroke-linejoin:round; stroke-width:4; stroke-opacity:1; fill:none" stroke-dasharray="16, 10" points="397.644,1384.24 397.644,1384.18 "/>
<polyline clip-path="url(#clip302)" style="stroke:#000000; stroke-linecap:round; stroke-linejoin:round; stroke-width:4; stroke-opacity:1; fill:none" stroke-dasharray="16, 10" points="397.644,1384.24 397.644,1384.05 "/>
<polyline clip-path="url(#clip302)" style="stroke:#000000; stroke-linecap:round; stroke-linejoin:round; stroke-width:4; stroke-opacity:1; fill:none" stroke-dasharray="16, 10" points="397.644,1384.24 397.644,1383.66 "/>
<polyline clip-path="url(#clip302)" style="stroke:#000000; stroke-linecap:round; stroke-linejoin:round; stroke-width:4; stroke-opacity:1; fill:none" stroke-dasharray="16, 10" points="397.646,1384.24 397.646,1382.4 "/>
<polyline clip-path="url(#clip302)" style="stroke:#000000; stroke-linecap:round; stroke-linejoin:round; stroke-width:4; stroke-opacity:1; fill:none" stroke-dasharray="16, 10" points="397.665,1384.24 397.665,1378.43 "/>
<polyline clip-path="url(#clip302)" style="stroke:#000000; stroke-linecap:round; stroke-linejoin:round; stroke-width:4; stroke-opacity:1; fill:none" stroke-dasharray="16, 10" points="397.858,1384.24 397.858,1365.86 "/>
<polyline clip-path="url(#clip302)" style="stroke:#000000; stroke-linecap:round; stroke-linejoin:round; stroke-width:4; stroke-opacity:1; fill:none" stroke-dasharray="16, 10" points="399.785,1384.24 399.785,1326.13 "/>
<polyline clip-path="url(#clip302)" style="stroke:#000000; stroke-linecap:round; stroke-linejoin:round; stroke-width:4; stroke-opacity:1; fill:none" stroke-dasharray="16, 10" points="419.057,1384.24 419.057,1200.8 "/>
<polyline clip-path="url(#clip302)" style="stroke:#000000; stroke-linecap:round; stroke-linejoin:round; stroke-width:4; stroke-opacity:1; fill:none" stroke-dasharray="16, 10" points="521.049,1384.24 521.049,948.032 "/>
<polyline clip-path="url(#clip302)" style="stroke:#000000; stroke-linecap:round; stroke-linejoin:round; stroke-width:4; stroke-opacity:1; fill:none" stroke-dasharray="16, 10" points="733.018,1384.24 733.018,680.102 "/>
<polyline clip-path="url(#clip302)" style="stroke:#000000; stroke-linecap:round; stroke-linejoin:round; stroke-width:4; stroke-opacity:1; fill:none" stroke-dasharray="16, 10" points="1025.49,1384.24 1025.49,451.587 "/>
<polyline clip-path="url(#clip302)" style="stroke:#000000; stroke-linecap:round; stroke-linejoin:round; stroke-width:4; stroke-opacity:1; fill:none" stroke-dasharray="16, 10" points="1379.28,1384.24 1379.28,270.47 "/>
<polyline clip-path="url(#clip302)" style="stroke:#000000; stroke-linecap:round; stroke-linejoin:round; stroke-width:4; stroke-opacity:1; fill:none" stroke-dasharray="16, 10" points="1787.11,1384.24 1787.11,143.215 "/>
<polyline clip-path="url(#clip302)" style="stroke:#000000; stroke-linecap:round; stroke-linejoin:round; stroke-width:4; stroke-opacity:1; fill:none" stroke-dasharray="16, 10" points="2219.49,1384.24 2219.49,87.5323 "/>
<polyline clip-path="url(#clip302)" style="stroke:#000000; stroke-linecap:round; stroke-linejoin:round; stroke-width:4; stroke-opacity:1; fill:none" stroke-dasharray="16, 10" points="2295.81,1384.24 2295.81,86.1857 "/>
<polyline clip-path="url(#clip302)" style="stroke:#000000; stroke-linecap:round; stroke-linejoin:round; stroke-width:4; stroke-opacity:1; fill:none" stroke-dasharray="16, 10" points="2295.81,1384.24 2295.81,86.1857 "/>
<circle clip-path="url(#clip302)" cx="2295.81" cy="86.1857" r="14.4" fill="#e26f46" fill-rule="evenodd" fill-opacity="1" stroke="#000000" stroke-opacity="1" stroke-width="3.2"/>
</svg>
