<?xml version="1.0" encoding="utf-8"?>
<svg xmlns="http://www.w3.org/2000/svg" xmlns:xlink="http://www.w3.org/1999/xlink" width="600" height="400" viewBox="0 0 2400 1600">
<defs>
  <clipPath id="clip640">
    <rect x="0" y="0" width="2400" height="1600"/>
  </clipPath>
</defs>
<path clip-path="url(#clip640)" d="M0 1600 L2400 1600 L2400 0 L0 0  Z" fill="#ffffff" fill-rule="evenodd" fill-opacity="1"/>
<defs>
  <clipPath id="clip641">
    <rect x="480" y="0" width="1681" height="1600"/>
  </clipPath>
</defs>
<path clip-path="url(#clip640)" d="M340.699 1423.18 L2352.76 1423.18 L2352.76 47.2441 L340.699 47.2441  Z" fill="#ffffff" fill-rule="evenodd" fill-opacity="1"/>
<defs>
  <clipPath id="clip642">
    <rect x="340" y="47" width="2013" height="1377"/>
  </clipPath>
</defs>
<polyline clip-path="url(#clip642)" style="stroke:#000000; stroke-linecap:round; stroke-linejoin:round; stroke-width:2; stroke-opacity:0.1; fill:none" points="388.105,1423.18 388.105,47.2441 "/>
<polyline clip-path="url(#clip642)" style="stroke:#000000; stroke-linecap:round; stroke-linejoin:round; stroke-width:2; stroke-opacity:0.1; fill:none" points="865.032,1423.18 865.032,47.2441 "/>
<polyline clip-path="url(#clip642)" style="stroke:#000000; stroke-linecap:round; stroke-linejoin:round; stroke-width:2; stroke-opacity:0.1; fill:none" points="1341.96,1423.18 1341.96,47.2441 "/>
<polyline clip-path="url(#clip642)" style="stroke:#000000; stroke-linecap:round; stroke-linejoin:round; stroke-width:2; stroke-opacity:0.1; fill:none" points="1818.88,1423.18 1818.88,47.2441 "/>
<polyline clip-path="url(#clip642)" style="stroke:#000000; stroke-linecap:round; stroke-linejoin:round; stroke-width:2; stroke-opacity:0.1; fill:none" points="2295.81,1423.18 2295.81,47.2441 "/>
<polyline clip-path="url(#clip642)" style="stroke:#000000; stroke-linecap:round; stroke-linejoin:round; stroke-width:2; stroke-opacity:0.1; fill:none" points="340.699,1384.24 2352.76,1384.24 "/>
<polyline clip-path="url(#clip642)" style="stroke:#000000; stroke-linecap:round; stroke-linejoin:round; stroke-width:2; stroke-opacity:0.1; fill:none" points="340.699,1146.63 2352.76,1146.63 "/>
<polyline clip-path="url(#clip642)" style="stroke:#000000; stroke-linecap:round; stroke-linejoin:round; stroke-width:2; stroke-opacity:0.1; fill:none" points="340.699,909.013 2352.76,909.013 "/>
<polyline clip-path="url(#clip642)" style="stroke:#000000; stroke-linecap:round; stroke-linejoin:round; stroke-width:2; stroke-opacity:0.1; fill:none" points="340.699,671.401 2352.76,671.401 "/>
<polyline clip-path="url(#clip642)" style="stroke:#000000; stroke-linecap:round; stroke-linejoin:round; stroke-width:2; stroke-opacity:0.1; fill:none" points="340.699,433.788 2352.76,433.788 "/>
<polyline clip-path="url(#clip642)" style="stroke:#000000; stroke-linecap:round; stroke-linejoin:round; stroke-width:2; stroke-opacity:0.1; fill:none" points="340.699,196.176 2352.76,196.176 "/>
<polyline clip-path="url(#clip640)" style="stroke:#000000; stroke-linecap:round; stroke-linejoin:round; stroke-width:4; stroke-opacity:1; fill:none" points="340.699,1423.18 2352.76,1423.18 "/>
<polyline clip-path="url(#clip640)" style="stroke:#000000; stroke-linecap:round; stroke-linejoin:round; stroke-width:4; stroke-opacity:1; fill:none" points="388.105,1423.18 388.105,1404.28 "/>
<polyline clip-path="url(#clip640)" style="stroke:#000000; stroke-linecap:round; stroke-linejoin:round; stroke-width:4; stroke-opacity:1; fill:none" points="865.032,1423.18 865.032,1404.28 "/>
<polyline clip-path="url(#clip640)" style="stroke:#000000; stroke-linecap:round; stroke-linejoin:round; stroke-width:4; stroke-opacity:1; fill:none" points="1341.96,1423.18 1341.96,1404.28 "/>
<polyline clip-path="url(#clip640)" style="stroke:#000000; stroke-linecap:round; stroke-linejoin:round; stroke-width:4; stroke-opacity:1; fill:none" points="1818.88,1423.18 1818.88,1404.28 "/>
<polyline clip-path="url(#clip640)" style="stroke:#000000; stroke-linecap:round; stroke-linejoin:round; stroke-width:4; stroke-opacity:1; fill:none" points="2295.81,1423.18 2295.81,1404.28 "/>
<path clip-path="url(#clip640)" d="M388.105 1454.1 Q384.494 1454.1 382.666 1457.66 Q380.86 1461.2 380.86 1468.33 Q380.86 1475.44 382.666 1479.01 Q384.494 1482.55 388.105 1482.55 Q391.74 1482.55 393.545 1479.01 Q395.374 1475.44 395.374 1468.33 Q395.374 1461.2 393.545 1457.66 Q391.74 1454.1 388.105 1454.1 M388.105 1450.39 Q393.916 1450.39 396.971 1455 Q400.05 1459.58 400.05 1468.33 Q400.05 1477.06 396.971 1481.67 Q393.916 1486.25 388.105 1486.25 Q382.295 1486.25 379.217 1481.67 Q376.161 1477.06 376.161 1468.33 Q376.161 1459.58 379.217 1455 Q382.295 1450.39 388.105 1450.39 Z" fill="#000000" fill-rule="nonzero" fill-opacity="1" /><path clip-path="url(#clip640)" d="M839.731 1451.02 L858.087 1451.02 L858.087 1454.96 L844.013 1454.96 L844.013 1463.43 Q845.032 1463.08 846.05 1462.92 Q847.069 1462.73 848.087 1462.73 Q853.874 1462.73 857.254 1465.9 Q860.634 1469.08 860.634 1474.49 Q860.634 1480.07 857.161 1483.17 Q853.689 1486.25 847.37 1486.25 Q845.194 1486.25 842.925 1485.88 Q840.68 1485.51 838.273 1484.77 L838.273 1480.07 Q840.356 1481.2 842.578 1481.76 Q844.8 1482.32 847.277 1482.32 Q851.282 1482.32 853.62 1480.21 Q855.958 1478.1 855.958 1474.49 Q855.958 1470.88 853.62 1468.77 Q851.282 1466.67 847.277 1466.67 Q845.402 1466.67 843.527 1467.08 Q841.675 1467.5 839.731 1468.38 L839.731 1451.02 Z" fill="#000000" fill-rule="nonzero" fill-opacity="1" /><path clip-path="url(#clip640)" d="M879.847 1454.1 Q876.235 1454.1 874.407 1457.66 Q872.601 1461.2 872.601 1468.33 Q872.601 1475.44 874.407 1479.01 Q876.235 1482.55 879.847 1482.55 Q883.481 1482.55 885.286 1479.01 Q887.115 1475.44 887.115 1468.33 Q887.115 1461.2 885.286 1457.66 Q883.481 1454.1 879.847 1454.1 M879.847 1450.39 Q885.657 1450.39 888.712 1455 Q891.791 1459.58 891.791 1468.33 Q891.791 1477.06 888.712 1481.67 Q885.657 1486.25 879.847 1486.25 Q874.036 1486.25 870.958 1481.67 Q867.902 1477.06 867.902 1468.33 Q867.902 1459.58 870.958 1455 Q874.036 1450.39 879.847 1450.39 Z" fill="#000000" fill-rule="nonzero" fill-opacity="1" /><path clip-path="url(#clip640)" d="M1301.56 1481.64 L1309.2 1481.64 L1309.2 1455.28 L1300.89 1456.95 L1300.89 1452.69 L1309.16 1451.02 L1313.83 1451.02 L1313.83 1481.64 L1321.47 1481.64 L1321.47 1485.58 L1301.56 1485.58 L1301.56 1481.64 Z" fill="#000000" fill-rule="nonzero" fill-opacity="1" /><path clip-path="url(#clip640)" d="M1340.92 1454.1 Q1337.31 1454.1 1335.48 1457.66 Q1333.67 1461.2 1333.67 1468.33 Q1333.67 1475.44 1335.48 1479.01 Q1337.31 1482.55 1340.92 1482.55 Q1344.55 1482.55 1346.36 1479.01 Q1348.18 1475.44 1348.18 1468.33 Q1348.18 1461.2 1346.36 1457.66 Q1344.55 1454.1 1340.92 1454.1 M1340.92 1450.39 Q1346.73 1450.39 1349.78 1455 Q1352.86 1459.58 1352.86 1468.33 Q1352.86 1477.06 1349.78 1481.67 Q1346.73 1486.25 1340.92 1486.25 Q1335.11 1486.25 1332.03 1481.67 Q1328.97 1477.06 1328.97 1468.33 Q1328.97 1459.58 1332.03 1455 Q1335.11 1450.39 1340.92 1450.39 Z" fill="#000000" fill-rule="nonzero" fill-opacity="1" /><path clip-path="url(#clip640)" d="M1371.08 1454.1 Q1367.47 1454.1 1365.64 1457.66 Q1363.83 1461.2 1363.83 1468.33 Q1363.83 1475.44 1365.64 1479.01 Q1367.47 1482.55 1371.08 1482.55 Q1374.71 1482.55 1376.52 1479.01 Q1378.35 1475.44 1378.35 1468.33 Q1378.35 1461.2 1376.52 1457.66 Q1374.71 1454.1 1371.08 1454.1 M1371.08 1450.39 Q1376.89 1450.39 1379.94 1455 Q1383.02 1459.58 1383.02 1468.33 Q1383.02 1477.06 1379.94 1481.67 Q1376.89 1486.25 1371.08 1486.25 Q1365.27 1486.25 1362.19 1481.67 Q1359.13 1477.06 1359.13 1468.33 Q1359.13 1459.58 1362.19 1455 Q1365.27 1450.39 1371.08 1450.39 Z" fill="#000000" fill-rule="nonzero" fill-opacity="1" /><path clip-path="url(#clip640)" d="M1778.49 1481.64 L1786.13 1481.64 L1786.13 1455.28 L1777.82 1456.95 L1777.82 1452.69 L1786.08 1451.02 L1790.76 1451.02 L1790.76 1481.64 L1798.4 1481.64 L1798.4 1485.58 L1778.49 1485.58 L1778.49 1481.64 Z" fill="#000000" fill-rule="nonzero" fill-opacity="1" /><path clip-path="url(#clip640)" d="M1807.89 1451.02 L1826.25 1451.02 L1826.25 1454.96 L1812.17 1454.96 L1812.17 1463.43 Q1813.19 1463.08 1814.21 1462.92 Q1815.23 1462.73 1816.25 1462.73 Q1822.03 1462.73 1825.41 1465.9 Q1828.79 1469.08 1828.79 1474.49 Q1828.79 1480.07 1825.32 1483.17 Q1821.85 1486.25 1815.53 1486.25 Q1813.35 1486.25 1811.08 1485.88 Q1808.84 1485.51 1806.43 1484.77 L1806.43 1480.07 Q1808.51 1481.2 1810.74 1481.76 Q1812.96 1482.32 1815.44 1482.32 Q1819.44 1482.32 1821.78 1480.21 Q1824.12 1478.1 1824.12 1474.49 Q1824.12 1470.88 1821.78 1468.77 Q1819.44 1466.67 1815.44 1466.67 Q1813.56 1466.67 1811.69 1467.08 Q1809.83 1467.5 1807.89 1468.38 L1807.89 1451.02 Z" fill="#000000" fill-rule="nonzero" fill-opacity="1" /><path clip-path="url(#clip640)" d="M1848 1454.1 Q1844.39 1454.1 1842.56 1457.66 Q1840.76 1461.2 1840.76 1468.33 Q1840.76 1475.44 1842.56 1479.01 Q1844.39 1482.55 1848 1482.55 Q1851.64 1482.55 1853.44 1479.01 Q1855.27 1475.44 1855.27 1468.33 Q1855.27 1461.2 1853.44 1457.66 Q1851.64 1454.1 1848 1454.1 M1848 1450.39 Q1853.81 1450.39 1856.87 1455 Q1859.95 1459.58 1859.95 1468.33 Q1859.95 1477.06 1856.87 1481.67 Q1853.81 1486.25 1848 1486.25 Q1842.19 1486.25 1839.12 1481.67 Q1836.06 1477.06 1836.06 1468.33 Q1836.06 1459.58 1839.12 1455 Q1842.19 1450.39 1848 1450.39 Z" fill="#000000" fill-rule="nonzero" fill-opacity="1" /><path clip-path="url(#clip640)" d="M2259.5 1481.64 L2275.82 1481.64 L2275.82 1485.58 L2253.88 1485.58 L2253.88 1481.64 Q2256.54 1478.89 2261.12 1474.26 Q2265.73 1469.61 2266.91 1468.27 Q2269.16 1465.74 2270.04 1464.01 Q2270.94 1462.25 2270.94 1460.56 Q2270.94 1457.8 2268.99 1456.07 Q2267.07 1454.33 2263.97 1454.33 Q2261.77 1454.33 2259.32 1455.09 Q2256.89 1455.86 2254.11 1457.41 L2254.11 1452.69 Q2256.93 1451.55 2259.39 1450.97 Q2261.84 1450.39 2263.88 1450.39 Q2269.25 1450.39 2272.44 1453.08 Q2275.64 1455.77 2275.64 1460.26 Q2275.64 1462.39 2274.83 1464.31 Q2274.04 1466.2 2271.93 1468.8 Q2271.36 1469.47 2268.25 1472.69 Q2265.15 1475.88 2259.5 1481.64 Z" fill="#000000" fill-rule="nonzero" fill-opacity="1" /><path clip-path="url(#clip640)" d="M2295.64 1454.1 Q2292.03 1454.1 2290.2 1457.66 Q2288.39 1461.2 2288.39 1468.33 Q2288.39 1475.44 2290.2 1479.01 Q2292.03 1482.55 2295.64 1482.55 Q2299.27 1482.55 2301.08 1479.01 Q2302.91 1475.44 2302.91 1468.33 Q2302.91 1461.2 2301.08 1457.66 Q2299.27 1454.1 2295.64 1454.1 M2295.64 1450.39 Q2301.45 1450.39 2304.5 1455 Q2307.58 1459.58 2307.58 1468.33 Q2307.58 1477.06 2304.5 1481.67 Q2301.45 1486.25 2295.64 1486.25 Q2289.83 1486.25 2286.75 1481.67 Q2283.69 1477.06 2283.69 1468.33 Q2283.69 1459.58 2286.75 1455 Q2289.83 1450.39 2295.64 1450.39 Z" fill="#000000" fill-rule="nonzero" fill-opacity="1" /><path clip-path="url(#clip640)" d="M2325.8 1454.1 Q2322.19 1454.1 2320.36 1457.66 Q2318.55 1461.2 2318.55 1468.33 Q2318.55 1475.44 2320.36 1479.01 Q2322.19 1482.55 2325.8 1482.55 Q2329.43 1482.55 2331.24 1479.01 Q2333.07 1475.44 2333.07 1468.33 Q2333.07 1461.2 2331.24 1457.66 Q2329.43 1454.1 2325.8 1454.1 M2325.8 1450.39 Q2331.61 1450.39 2334.66 1455 Q2337.74 1459.58 2337.74 1468.33 Q2337.74 1477.06 2334.66 1481.67 Q2331.61 1486.25 2325.8 1486.25 Q2319.99 1486.25 2316.91 1481.67 Q2313.85 1477.06 2313.85 1468.33 Q2313.85 1459.58 2316.91 1455 Q2319.99 1450.39 2325.8 1450.39 Z" fill="#000000" fill-rule="nonzero" fill-opacity="1" /><path clip-path="url(#clip640)" d="M1017.97 1520.52 L1026.63 1520.52 L1047.7 1560.28 L1047.7 1520.52 L1053.94 1520.52 L1053.94 1568.04 L1045.28 1568.04 L1024.21 1528.29 L1024.21 1568.04 L1017.97 1568.04 L1017.97 1520.52 Z" fill="#000000" fill-rule="nonzero" fill-opacity="1" /><path clip-path="url(#clip640)" d="M1080.29 1536.5 Q1075.58 1536.5 1072.84 1540.19 Q1070.11 1543.85 1070.11 1550.25 Q1070.11 1556.65 1072.81 1560.34 Q1075.55 1564 1080.29 1564 Q1084.97 1564 1087.71 1560.31 Q1090.44 1556.62 1090.44 1550.25 Q1090.44 1543.92 1087.71 1540.23 Q1084.97 1536.5 1080.29 1536.5 M1080.29 1531.54 Q1087.93 1531.54 1092.29 1536.5 Q1096.65 1541.47 1096.65 1550.25 Q1096.65 1559 1092.29 1564 Q1087.93 1568.97 1080.29 1568.97 Q1072.62 1568.97 1068.26 1564 Q1063.93 1559 1063.93 1550.25 Q1063.93 1541.47 1068.26 1536.5 Q1072.62 1531.54 1080.29 1531.54 Z" fill="#000000" fill-rule="nonzero" fill-opacity="1" /><path clip-path="url(#clip640)" d="M1103.81 1532.4 L1131.63 1532.4 L1131.63 1537.74 L1109.6 1563.37 L1131.63 1563.37 L1131.63 1568.04 L1103.02 1568.04 L1103.02 1562.7 L1125.04 1537.07 L1103.81 1537.07 L1103.81 1532.4 Z" fill="#000000" fill-rule="nonzero" fill-opacity="1" /><path clip-path="url(#clip640)" d="M1138.03 1532.4 L1165.85 1532.4 L1165.85 1537.74 L1143.82 1563.37 L1165.85 1563.37 L1165.85 1568.04 L1137.23 1568.04 L1137.23 1562.7 L1159.26 1537.07 L1138.03 1537.07 L1138.03 1532.4 Z" fill="#000000" fill-rule="nonzero" fill-opacity="1" /><path clip-path="url(#clip640)" d="M1174.79 1518.52 L1180.65 1518.52 L1180.65 1568.04 L1174.79 1568.04 L1174.79 1518.52 Z" fill="#000000" fill-rule="nonzero" fill-opacity="1" /><path clip-path="url(#clip640)" d="M1223.39 1548.76 L1223.39 1551.62 L1196.46 1551.62 Q1196.85 1557.67 1200.09 1560.85 Q1203.37 1564 1209.2 1564 Q1212.57 1564 1215.72 1563.17 Q1218.9 1562.35 1222.02 1560.69 L1222.02 1566.23 Q1218.87 1567.57 1215.56 1568.27 Q1212.25 1568.97 1208.85 1568.97 Q1200.32 1568.97 1195.32 1564 Q1190.35 1559.04 1190.35 1550.57 Q1190.35 1541.82 1195.06 1536.69 Q1199.81 1531.54 1207.83 1531.54 Q1215.02 1531.54 1219.19 1536.18 Q1223.39 1540.8 1223.39 1548.76 M1217.54 1547.04 Q1217.47 1542.23 1214.83 1539.37 Q1212.22 1536.5 1207.89 1536.5 Q1202.99 1536.5 1200.03 1539.27 Q1197.1 1542.04 1196.66 1547.07 L1217.54 1547.04 Z" fill="#000000" fill-rule="nonzero" fill-opacity="1" /><path clip-path="url(#clip640)" d="M1260.41 1525.81 L1260.41 1543.66 L1268.49 1543.66 Q1272.98 1543.66 1275.43 1541.34 Q1277.88 1539.02 1277.88 1534.72 Q1277.88 1530.45 1275.43 1528.13 Q1272.98 1525.81 1268.49 1525.81 L1260.41 1525.81 M1253.98 1520.52 L1268.49 1520.52 Q1276.48 1520.52 1280.56 1524.15 Q1284.66 1527.75 1284.66 1534.72 Q1284.66 1541.75 1280.56 1545.35 Q1276.48 1548.95 1268.49 1548.95 L1260.41 1548.95 L1260.41 1568.04 L1253.98 1568.04 L1253.98 1520.52 Z" fill="#000000" fill-rule="nonzero" fill-opacity="1" /><path clip-path="url(#clip640)" d="M1312.54 1537.87 Q1311.56 1537.3 1310.38 1537.04 Q1309.23 1536.76 1307.83 1536.76 Q1302.87 1536.76 1300.19 1540 Q1297.55 1543.22 1297.55 1549.27 L1297.55 1568.04 L1291.66 1568.04 L1291.66 1532.4 L1297.55 1532.4 L1297.55 1537.93 Q1299.4 1534.69 1302.36 1533.13 Q1305.32 1531.54 1309.55 1531.54 Q1310.16 1531.54 1310.89 1531.63 Q1311.62 1531.7 1312.51 1531.85 L1312.54 1537.87 Z" fill="#000000" fill-rule="nonzero" fill-opacity="1" /><path clip-path="url(#clip640)" d="M1347.75 1548.76 L1347.75 1551.62 L1320.82 1551.62 Q1321.2 1557.67 1324.45 1560.85 Q1327.73 1564 1333.55 1564 Q1336.92 1564 1340.08 1563.17 Q1343.26 1562.35 1346.38 1560.69 L1346.38 1566.23 Q1343.23 1567.57 1339.92 1568.27 Q1336.61 1568.97 1333.2 1568.97 Q1324.67 1568.97 1319.67 1564 Q1314.71 1559.04 1314.71 1550.57 Q1314.71 1541.82 1319.42 1536.69 Q1324.16 1531.54 1332.18 1531.54 Q1339.38 1531.54 1343.54 1536.18 Q1347.75 1540.8 1347.75 1548.76 M1341.89 1547.04 Q1341.83 1542.23 1339.18 1539.37 Q1336.57 1536.5 1332.25 1536.5 Q1327.34 1536.5 1324.38 1539.27 Q1321.46 1542.04 1321.01 1547.07 L1341.89 1547.04 Z" fill="#000000" fill-rule="nonzero" fill-opacity="1" /><path clip-path="url(#clip640)" d="M1380.08 1533.45 L1380.08 1538.98 Q1377.6 1537.71 1374.93 1537.07 Q1372.25 1536.44 1369.39 1536.44 Q1365.03 1536.44 1362.83 1537.77 Q1360.67 1539.11 1360.67 1541.79 Q1360.67 1543.82 1362.23 1545 Q1363.79 1546.15 1368.5 1547.2 L1370.5 1547.64 Q1376.74 1548.98 1379.35 1551.43 Q1381.99 1553.85 1381.99 1558.21 Q1381.99 1563.17 1378.05 1566.07 Q1374.13 1568.97 1367.26 1568.97 Q1364.39 1568.97 1361.27 1568.39 Q1358.19 1567.85 1354.75 1566.74 L1354.75 1560.69 Q1357.99 1562.38 1361.15 1563.24 Q1364.3 1564.07 1367.38 1564.07 Q1371.52 1564.07 1373.75 1562.66 Q1375.98 1561.23 1375.98 1558.65 Q1375.98 1556.27 1374.35 1554.99 Q1372.76 1553.72 1367.32 1552.54 L1365.28 1552.07 Q1359.84 1550.92 1357.42 1548.56 Q1355 1546.18 1355 1542.04 Q1355 1537.01 1358.57 1534.27 Q1362.13 1531.54 1368.69 1531.54 Q1371.94 1531.54 1374.8 1532.01 Q1377.66 1532.49 1380.08 1533.45 Z" fill="#000000" fill-rule="nonzero" fill-opacity="1" /><path clip-path="url(#clip640)" d="M1414.04 1533.45 L1414.04 1538.98 Q1411.56 1537.71 1408.89 1537.07 Q1406.21 1536.44 1403.35 1536.44 Q1398.99 1536.44 1396.79 1537.77 Q1394.63 1539.11 1394.63 1541.79 Q1394.63 1543.82 1396.19 1545 Q1397.75 1546.15 1402.46 1547.2 L1404.46 1547.64 Q1410.7 1548.98 1413.31 1551.43 Q1415.95 1553.85 1415.95 1558.21 Q1415.95 1563.17 1412.01 1566.07 Q1408.09 1568.97 1401.22 1568.97 Q1398.35 1568.97 1395.23 1568.39 Q1392.15 1567.85 1388.71 1566.74 L1388.71 1560.69 Q1391.96 1562.38 1395.11 1563.24 Q1398.26 1564.07 1401.35 1564.07 Q1405.48 1564.07 1407.71 1562.66 Q1409.94 1561.23 1409.94 1558.65 Q1409.94 1556.27 1408.32 1554.99 Q1406.72 1553.72 1401.28 1552.54 L1399.24 1552.07 Q1393.8 1550.92 1391.38 1548.56 Q1388.96 1546.18 1388.96 1542.04 Q1388.96 1537.01 1392.53 1534.27 Q1396.09 1531.54 1402.65 1531.54 Q1405.9 1531.54 1408.76 1532.01 Q1411.63 1532.49 1414.04 1533.45 Z" fill="#000000" fill-rule="nonzero" fill-opacity="1" /><path clip-path="url(#clip640)" d="M1424.68 1553.98 L1424.68 1532.4 L1430.53 1532.4 L1430.53 1553.75 Q1430.53 1558.81 1432.51 1561.36 Q1434.48 1563.87 1438.43 1563.87 Q1443.17 1563.87 1445.91 1560.85 Q1448.67 1557.83 1448.67 1552.61 L1448.67 1532.4 L1454.53 1532.4 L1454.53 1568.04 L1448.67 1568.04 L1448.67 1562.57 Q1446.54 1565.82 1443.71 1567.41 Q1440.91 1568.97 1437.18 1568.97 Q1431.04 1568.97 1427.86 1565.15 Q1424.68 1561.33 1424.68 1553.98 M1439.41 1531.54 L1439.41 1531.54 Z" fill="#000000" fill-rule="nonzero" fill-opacity="1" /><path clip-path="url(#clip640)" d="M1487.25 1537.87 Q1486.26 1537.3 1485.09 1537.04 Q1483.94 1536.76 1482.54 1536.76 Q1477.57 1536.76 1474.9 1540 Q1472.26 1543.22 1472.26 1549.27 L1472.26 1568.04 L1466.37 1568.04 L1466.37 1532.4 L1472.26 1532.4 L1472.26 1537.93 Q1474.11 1534.69 1477.07 1533.13 Q1480.03 1531.54 1484.26 1531.54 Q1484.86 1531.54 1485.6 1531.63 Q1486.33 1531.7 1487.22 1531.85 L1487.25 1537.87 Z" fill="#000000" fill-rule="nonzero" fill-opacity="1" /><path clip-path="url(#clip640)" d="M1522.45 1548.76 L1522.45 1551.62 L1495.53 1551.62 Q1495.91 1557.67 1499.15 1560.85 Q1502.43 1564 1508.26 1564 Q1511.63 1564 1514.78 1563.17 Q1517.96 1562.35 1521.08 1560.69 L1521.08 1566.23 Q1517.93 1567.57 1514.62 1568.27 Q1511.31 1568.97 1507.91 1568.97 Q1499.38 1568.97 1494.38 1564 Q1489.41 1559.04 1489.41 1550.57 Q1489.41 1541.82 1494.13 1536.69 Q1498.87 1531.54 1506.89 1531.54 Q1514.08 1531.54 1518.25 1536.18 Q1522.45 1540.8 1522.45 1548.76 M1516.6 1547.04 Q1516.53 1542.23 1513.89 1539.37 Q1511.28 1536.5 1506.95 1536.5 Q1502.05 1536.5 1499.09 1539.27 Q1496.16 1542.04 1495.72 1547.07 L1516.6 1547.04 Z" fill="#000000" fill-rule="nonzero" fill-opacity="1" /><path clip-path="url(#clip640)" d="M1533.56 1559.96 L1540.28 1559.96 L1540.28 1565.43 L1535.06 1575.62 L1530.95 1575.62 L1533.56 1565.43 L1533.56 1559.96 Z" fill="#000000" fill-rule="nonzero" fill-opacity="1" /><path clip-path="url(#clip640)" d="M1599.1 1550.25 Q1599.1 1543.79 1596.42 1540.13 Q1593.78 1536.44 1589.13 1536.44 Q1584.49 1536.44 1581.81 1540.13 Q1579.17 1543.79 1579.17 1550.25 Q1579.17 1556.71 1581.81 1560.4 Q1584.49 1564.07 1589.13 1564.07 Q1593.78 1564.07 1596.42 1560.4 Q1599.1 1556.71 1599.1 1550.25 M1579.17 1537.81 Q1581.02 1534.62 1583.82 1533.1 Q1586.65 1531.54 1590.57 1531.54 Q1597.06 1531.54 1601.1 1536.69 Q1605.18 1541.85 1605.18 1550.25 Q1605.18 1558.65 1601.1 1563.81 Q1597.06 1568.97 1590.57 1568.97 Q1586.65 1568.97 1583.82 1567.44 Q1581.02 1565.88 1579.17 1562.7 L1579.17 1568.04 L1573.28 1568.04 L1573.28 1518.52 L1579.17 1518.52 L1579.17 1537.81 Z" fill="#000000" fill-rule="nonzero" fill-opacity="1" /><path clip-path="url(#clip640)" d="M1631.08 1550.12 Q1623.99 1550.12 1621.25 1551.75 Q1618.51 1553.37 1618.51 1557.29 Q1618.51 1560.4 1620.55 1562.25 Q1622.62 1564.07 1626.15 1564.07 Q1631.02 1564.07 1633.95 1560.63 Q1636.91 1557.16 1636.91 1551.43 L1636.91 1550.12 L1631.08 1550.12 M1642.76 1547.71 L1642.76 1568.04 L1636.91 1568.04 L1636.91 1562.63 Q1634.9 1565.88 1631.91 1567.44 Q1628.92 1568.97 1624.59 1568.97 Q1619.12 1568.97 1615.87 1565.91 Q1612.65 1562.82 1612.65 1557.67 Q1612.65 1551.65 1616.67 1548.6 Q1620.71 1545.54 1628.7 1545.54 L1636.91 1545.54 L1636.91 1544.97 Q1636.91 1540.93 1634.23 1538.73 Q1631.59 1536.5 1626.79 1536.5 Q1623.73 1536.5 1620.83 1537.23 Q1617.94 1537.97 1615.26 1539.43 L1615.26 1534.02 Q1618.48 1532.78 1621.5 1532.17 Q1624.53 1531.54 1627.39 1531.54 Q1635.13 1531.54 1638.95 1535.55 Q1642.76 1539.56 1642.76 1547.71 Z" fill="#000000" fill-rule="nonzero" fill-opacity="1" /><path clip-path="url(#clip640)" d="M1675.48 1537.87 Q1674.5 1537.3 1673.32 1537.04 Q1672.17 1536.76 1670.77 1536.76 Q1665.81 1536.76 1663.13 1540 Q1660.49 1543.22 1660.49 1549.27 L1660.49 1568.04 L1654.6 1568.04 L1654.6 1532.4 L1660.49 1532.4 L1660.49 1537.93 Q1662.34 1534.69 1665.3 1533.13 Q1668.26 1531.54 1672.49 1531.54 Q1673.1 1531.54 1673.83 1531.63 Q1674.56 1531.7 1675.45 1531.85 L1675.48 1537.87 Z" fill="#000000" fill-rule="nonzero" fill-opacity="1" /><polyline clip-path="url(#clip640)" style="stroke:#000000; stroke-linecap:round; stroke-linejoin:round; stroke-width:4; stroke-opacity:1; fill:none" points="340.699,1423.18 340.699,47.2441 "/>
<polyline clip-path="url(#clip640)" style="stroke:#000000; stroke-linecap:round; stroke-linejoin:round; stroke-width:4; stroke-opacity:1; fill:none" points="340.699,1384.24 359.597,1384.24 "/>
<polyline clip-path="url(#clip640)" style="stroke:#000000; stroke-linecap:round; stroke-linejoin:round; stroke-width:4; stroke-opacity:1; fill:none" points="340.699,1146.63 359.597,1146.63 "/>
<polyline clip-path="url(#clip640)" style="stroke:#000000; stroke-linecap:round; stroke-linejoin:round; stroke-width:4; stroke-opacity:1; fill:none" points="340.699,909.013 359.597,909.013 "/>
<polyline clip-path="url(#clip640)" style="stroke:#000000; stroke-linecap:round; stroke-linejoin:round; stroke-width:4; stroke-opacity:1; fill:none" points="340.699,671.401 359.597,671.401 "/>
<polyline clip-path="url(#clip640)" style="stroke:#000000; stroke-linecap:round; stroke-linejoin:round; stroke-width:4; stroke-opacity:1; fill:none" points="340.699,433.788 359.597,433.788 "/>
<polyline clip-path="url(#clip640)" style="stroke:#000000; stroke-linecap:round; stroke-linejoin:round; stroke-width:4; stroke-opacity:1; fill:none" points="340.699,196.176 359.597,196.176 "/>
<path clip-path="url(#clip640)" d="M292.755 1370.04 Q289.143 1370.04 287.315 1373.6 Q285.509 1377.14 285.509 1384.27 Q285.509 1391.38 287.315 1394.94 Q289.143 1398.49 292.755 1398.49 Q296.389 1398.49 298.194 1394.94 Q300.023 1391.38 300.023 1384.27 Q300.023 1377.14 298.194 1373.6 Q296.389 1370.04 292.755 1370.04 M292.755 1366.33 Q298.565 1366.33 301.62 1370.94 Q304.699 1375.52 304.699 1384.27 Q304.699 1393 301.62 1397.61 Q298.565 1402.19 292.755 1402.19 Q286.944 1402.19 283.866 1397.61 Q280.81 1393 280.81 1384.27 Q280.81 1375.52 283.866 1370.94 Q286.944 1366.33 292.755 1366.33 Z" fill="#000000" fill-rule="nonzero" fill-opacity="1" /><path clip-path="url(#clip640)" d="M117.825 1166.42 L125.464 1166.42 L125.464 1140.05 L117.154 1141.72 L117.154 1137.46 L125.418 1135.79 L130.093 1135.79 L130.093 1166.42 L137.732 1166.42 L137.732 1170.35 L117.825 1170.35 L117.825 1166.42 Z" fill="#000000" fill-rule="nonzero" fill-opacity="1" /><path clip-path="url(#clip640)" d="M147.177 1164.47 L152.061 1164.47 L152.061 1170.35 L147.177 1170.35 L147.177 1164.47 Z" fill="#000000" fill-rule="nonzero" fill-opacity="1" /><path clip-path="url(#clip640)" d="M172.246 1138.87 Q168.635 1138.87 166.806 1142.44 Q165.001 1145.98 165.001 1153.11 Q165.001 1160.21 166.806 1163.78 Q168.635 1167.32 172.246 1167.32 Q175.88 1167.32 177.686 1163.78 Q179.514 1160.21 179.514 1153.11 Q179.514 1145.98 177.686 1142.44 Q175.88 1138.87 172.246 1138.87 M172.246 1135.17 Q178.056 1135.17 181.112 1139.77 Q184.19 1144.36 184.19 1153.11 Q184.19 1161.83 181.112 1166.44 Q178.056 1171.02 172.246 1171.02 Q166.436 1171.02 163.357 1166.44 Q160.302 1161.83 160.302 1153.11 Q160.302 1144.36 163.357 1139.77 Q166.436 1135.17 172.246 1135.17 Z" fill="#000000" fill-rule="nonzero" fill-opacity="1" /><path clip-path="url(#clip640)" d="M220.579 1144.89 L210 1155.52 L220.579 1166.09 L217.824 1168.9 L207.199 1158.27 L196.575 1168.9 L193.843 1166.09 L204.399 1155.52 L193.843 1144.89 L196.575 1142.09 L207.199 1152.71 L217.824 1142.09 L220.579 1144.89 Z" fill="#000000" fill-rule="nonzero" fill-opacity="1" /><path clip-path="url(#clip640)" d="M232.94 1166.42 L240.579 1166.42 L240.579 1140.05 L232.269 1141.72 L232.269 1137.46 L240.533 1135.79 L245.209 1135.79 L245.209 1166.42 L252.847 1166.42 L252.847 1170.35 L232.94 1170.35 L232.94 1166.42 Z" fill="#000000" fill-rule="nonzero" fill-opacity="1" /><path clip-path="url(#clip640)" d="M272.292 1138.87 Q268.681 1138.87 266.852 1142.44 Q265.046 1145.98 265.046 1153.11 Q265.046 1160.21 266.852 1163.78 Q268.681 1167.32 272.292 1167.32 Q275.926 1167.32 277.732 1163.78 Q279.56 1160.21 279.56 1153.11 Q279.56 1145.98 277.732 1142.44 Q275.926 1138.87 272.292 1138.87 M272.292 1135.17 Q278.102 1135.17 281.157 1139.77 Q284.236 1144.36 284.236 1153.11 Q284.236 1161.83 281.157 1166.44 Q278.102 1171.02 272.292 1171.02 Q266.482 1171.02 263.403 1166.44 Q260.347 1161.83 260.347 1153.11 Q260.347 1144.36 263.403 1139.77 Q266.482 1135.17 272.292 1135.17 Z" fill="#000000" fill-rule="nonzero" fill-opacity="1" /><path clip-path="url(#clip640)" d="M296.913 1118.17 L287.321 1133.16 L296.913 1133.16 L296.913 1118.17 M295.916 1114.86 L300.693 1114.86 L300.693 1133.16 L304.699 1133.16 L304.699 1136.32 L300.693 1136.32 L300.693 1142.94 L296.913 1142.94 L296.913 1136.32 L284.236 1136.32 L284.236 1132.66 L295.916 1114.86 Z" fill="#000000" fill-rule="nonzero" fill-opacity="1" /><path clip-path="url(#clip640)" d="M121.043 928.806 L137.362 928.806 L137.362 932.741 L115.418 932.741 L115.418 928.806 Q118.08 926.051 122.663 921.422 Q127.269 916.769 128.45 915.426 Q130.695 912.903 131.575 911.167 Q132.478 909.408 132.478 907.718 Q132.478 904.963 130.533 903.227 Q128.612 901.491 125.51 901.491 Q123.311 901.491 120.857 902.255 Q118.427 903.019 115.649 904.57 L115.649 899.848 Q118.473 898.713 120.927 898.135 Q123.38 897.556 125.418 897.556 Q130.788 897.556 133.982 900.241 Q137.177 902.926 137.177 907.417 Q137.177 909.547 136.367 911.468 Q135.579 913.366 133.473 915.959 Q132.894 916.63 129.792 919.847 Q126.691 923.042 121.043 928.806 Z" fill="#000000" fill-rule="nonzero" fill-opacity="1" /><path clip-path="url(#clip640)" d="M147.177 926.861 L152.061 926.861 L152.061 932.741 L147.177 932.741 L147.177 926.861 Z" fill="#000000" fill-rule="nonzero" fill-opacity="1" /><path clip-path="url(#clip640)" d="M172.246 901.26 Q168.635 901.26 166.806 904.824 Q165.001 908.366 165.001 915.496 Q165.001 922.602 166.806 926.167 Q168.635 929.709 172.246 929.709 Q175.88 929.709 177.686 926.167 Q179.514 922.602 179.514 915.496 Q179.514 908.366 177.686 904.824 Q175.88 901.26 172.246 901.26 M172.246 897.556 Q178.056 897.556 181.112 902.162 Q184.19 906.746 184.19 915.496 Q184.19 924.222 181.112 928.829 Q178.056 933.412 172.246 933.412 Q166.436 933.412 163.357 928.829 Q160.302 924.222 160.302 915.496 Q160.302 906.746 163.357 902.162 Q166.436 897.556 172.246 897.556 Z" fill="#000000" fill-rule="nonzero" fill-opacity="1" /><path clip-path="url(#clip640)" d="M220.579 907.278 L210 917.903 L220.579 928.482 L217.824 931.283 L207.199 920.658 L196.575 931.283 L193.843 928.482 L204.399 917.903 L193.843 907.278 L196.575 904.477 L207.199 915.102 L217.824 904.477 L220.579 907.278 Z" fill="#000000" fill-rule="nonzero" fill-opacity="1" /><path clip-path="url(#clip640)" d="M232.94 928.806 L240.579 928.806 L240.579 902.44 L232.269 904.107 L232.269 899.848 L240.533 898.181 L245.209 898.181 L245.209 928.806 L252.847 928.806 L252.847 932.741 L232.94 932.741 L232.94 928.806 Z" fill="#000000" fill-rule="nonzero" fill-opacity="1" /><path clip-path="url(#clip640)" d="M272.292 901.26 Q268.681 901.26 266.852 904.824 Q265.046 908.366 265.046 915.496 Q265.046 922.602 266.852 926.167 Q268.681 929.709 272.292 929.709 Q275.926 929.709 277.732 926.167 Q279.56 922.602 279.56 915.496 Q279.56 908.366 277.732 904.824 Q275.926 901.26 272.292 901.26 M272.292 897.556 Q278.102 897.556 281.157 902.162 Q284.236 906.746 284.236 915.496 Q284.236 924.222 281.157 928.829 Q278.102 933.412 272.292 933.412 Q266.482 933.412 263.403 928.829 Q260.347 924.222 260.347 915.496 Q260.347 906.746 263.403 902.162 Q266.482 897.556 272.292 897.556 Z" fill="#000000" fill-rule="nonzero" fill-opacity="1" /><path clip-path="url(#clip640)" d="M296.913 880.561 L287.321 895.551 L296.913 895.551 L296.913 880.561 M295.916 877.251 L300.693 877.251 L300.693 895.551 L304.699 895.551 L304.699 898.71 L300.693 898.71 L300.693 905.331 L296.913 905.331 L296.913 898.71 L284.236 898.71 L284.236 895.043 L295.916 877.251 Z" fill="#000000" fill-rule="nonzero" fill-opacity="1" /><path clip-path="url(#clip640)" d="M131.181 676.494 Q134.538 677.212 136.413 679.48 Q138.311 681.749 138.311 685.082 Q138.311 690.198 134.792 692.999 Q131.274 695.8 124.793 695.8 Q122.617 695.8 120.302 695.36 Q118.01 694.943 115.556 694.087 L115.556 689.573 Q117.501 690.707 119.816 691.286 Q122.13 691.865 124.654 691.865 Q129.052 691.865 131.343 690.129 Q133.658 688.392 133.658 685.082 Q133.658 682.027 131.505 680.314 Q129.376 678.578 125.556 678.578 L121.529 678.578 L121.529 674.735 L125.742 674.735 Q129.191 674.735 131.019 673.369 Q132.848 671.98 132.848 669.388 Q132.848 666.726 130.95 665.314 Q129.075 663.879 125.556 663.879 Q123.635 663.879 121.436 664.295 Q119.237 664.712 116.598 665.592 L116.598 661.425 Q119.26 660.684 121.575 660.314 Q123.913 659.943 125.973 659.943 Q131.297 659.943 134.399 662.374 Q137.501 664.781 137.501 668.902 Q137.501 671.772 135.857 673.763 Q134.214 675.73 131.181 676.494 Z" fill="#000000" fill-rule="nonzero" fill-opacity="1" /><path clip-path="url(#clip640)" d="M147.177 689.249 L152.061 689.249 L152.061 695.128 L147.177 695.128 L147.177 689.249 Z" fill="#000000" fill-rule="nonzero" fill-opacity="1" /><path clip-path="url(#clip640)" d="M172.246 663.647 Q168.635 663.647 166.806 667.212 Q165.001 670.754 165.001 677.883 Q165.001 684.99 166.806 688.554 Q168.635 692.096 172.246 692.096 Q175.88 692.096 177.686 688.554 Q179.514 684.99 179.514 677.883 Q179.514 670.754 177.686 667.212 Q175.88 663.647 172.246 663.647 M172.246 659.943 Q178.056 659.943 181.112 664.55 Q184.19 669.133 184.19 677.883 Q184.19 686.61 181.112 691.216 Q178.056 695.8 172.246 695.8 Q166.436 695.8 163.357 691.216 Q160.302 686.61 160.302 677.883 Q160.302 669.133 163.357 664.55 Q166.436 659.943 172.246 659.943 Z" fill="#000000" fill-rule="nonzero" fill-opacity="1" /><path clip-path="url(#clip640)" d="M220.579 669.666 L210 680.291 L220.579 690.869 L217.824 693.67 L207.199 683.045 L196.575 693.67 L193.843 690.869 L204.399 680.291 L193.843 669.666 L196.575 666.865 L207.199 677.49 L217.824 666.865 L220.579 669.666 Z" fill="#000000" fill-rule="nonzero" fill-opacity="1" /><path clip-path="url(#clip640)" d="M232.94 691.193 L240.579 691.193 L240.579 664.828 L232.269 666.494 L232.269 662.235 L240.533 660.568 L245.209 660.568 L245.209 691.193 L252.847 691.193 L252.847 695.128 L232.94 695.128 L232.94 691.193 Z" fill="#000000" fill-rule="nonzero" fill-opacity="1" /><path clip-path="url(#clip640)" d="M272.292 663.647 Q268.681 663.647 266.852 667.212 Q265.046 670.754 265.046 677.883 Q265.046 684.99 266.852 688.554 Q268.681 692.096 272.292 692.096 Q275.926 692.096 277.732 688.554 Q279.56 684.99 279.56 677.883 Q279.56 670.754 277.732 667.212 Q275.926 663.647 272.292 663.647 M272.292 659.943 Q278.102 659.943 281.157 664.55 Q284.236 669.133 284.236 677.883 Q284.236 686.61 281.157 691.216 Q278.102 695.8 272.292 695.8 Q266.482 695.8 263.403 691.216 Q260.347 686.61 260.347 677.883 Q260.347 669.133 263.403 664.55 Q266.482 659.943 272.292 659.943 Z" fill="#000000" fill-rule="nonzero" fill-opacity="1" /><path clip-path="url(#clip640)" d="M296.913 642.948 L287.321 657.938 L296.913 657.938 L296.913 642.948 M295.916 639.638 L300.693 639.638 L300.693 657.938 L304.699 657.938 L304.699 661.098 L300.693 661.098 L300.693 667.718 L296.913 667.718 L296.913 661.098 L284.236 661.098 L284.236 657.43 L295.916 639.638 Z" fill="#000000" fill-rule="nonzero" fill-opacity="1" /><path clip-path="url(#clip640)" d="M129.862 427.03 L118.056 445.479 L129.862 445.479 L129.862 427.03 M128.635 422.956 L134.515 422.956 L134.515 445.479 L139.445 445.479 L139.445 449.368 L134.515 449.368 L134.515 457.516 L129.862 457.516 L129.862 449.368 L114.26 449.368 L114.26 444.854 L128.635 422.956 Z" fill="#000000" fill-rule="nonzero" fill-opacity="1" /><path clip-path="url(#clip640)" d="M147.177 451.636 L152.061 451.636 L152.061 457.516 L147.177 457.516 L147.177 451.636 Z" fill="#000000" fill-rule="nonzero" fill-opacity="1" /><path clip-path="url(#clip640)" d="M172.246 426.035 Q168.635 426.035 166.806 429.6 Q165.001 433.141 165.001 440.271 Q165.001 447.377 166.806 450.942 Q168.635 454.484 172.246 454.484 Q175.88 454.484 177.686 450.942 Q179.514 447.377 179.514 440.271 Q179.514 433.141 177.686 429.6 Q175.88 426.035 172.246 426.035 M172.246 422.331 Q178.056 422.331 181.112 426.937 Q184.19 431.521 184.19 440.271 Q184.19 448.998 181.112 453.604 Q178.056 458.187 172.246 458.187 Q166.436 458.187 163.357 453.604 Q160.302 448.998 160.302 440.271 Q160.302 431.521 163.357 426.937 Q166.436 422.331 172.246 422.331 Z" fill="#000000" fill-rule="nonzero" fill-opacity="1" /><path clip-path="url(#clip640)" d="M220.579 432.053 L210 442.678 L220.579 453.257 L217.824 456.058 L207.199 445.433 L196.575 456.058 L193.843 453.257 L204.399 442.678 L193.843 432.053 L196.575 429.252 L207.199 439.877 L217.824 429.252 L220.579 432.053 Z" fill="#000000" fill-rule="nonzero" fill-opacity="1" /><path clip-path="url(#clip640)" d="M232.94 453.581 L240.579 453.581 L240.579 427.215 L232.269 428.882 L232.269 424.623 L240.533 422.956 L245.209 422.956 L245.209 453.581 L252.847 453.581 L252.847 457.516 L232.94 457.516 L232.94 453.581 Z" fill="#000000" fill-rule="nonzero" fill-opacity="1" /><path clip-path="url(#clip640)" d="M272.292 426.035 Q268.681 426.035 266.852 429.6 Q265.046 433.141 265.046 440.271 Q265.046 447.377 266.852 450.942 Q268.681 454.484 272.292 454.484 Q275.926 454.484 277.732 450.942 Q279.56 447.377 279.56 440.271 Q279.56 433.141 277.732 429.6 Q275.926 426.035 272.292 426.035 M272.292 422.331 Q278.102 422.331 281.157 426.937 Q284.236 431.521 284.236 440.271 Q284.236 448.998 281.157 453.604 Q278.102 458.187 272.292 458.187 Q266.482 458.187 263.403 453.604 Q260.347 448.998 260.347 440.271 Q260.347 431.521 263.403 426.937 Q266.482 422.331 272.292 422.331 Z" fill="#000000" fill-rule="nonzero" fill-opacity="1" /><path clip-path="url(#clip640)" d="M296.913 405.336 L287.321 420.326 L296.913 420.326 L296.913 405.336 M295.916 402.026 L300.693 402.026 L300.693 420.326 L304.699 420.326 L304.699 423.485 L300.693 423.485 L300.693 430.106 L296.913 430.106 L296.913 423.485 L284.236 423.485 L284.236 419.818 L295.916 402.026 Z" fill="#000000" fill-rule="nonzero" fill-opacity="1" /><path clip-path="url(#clip640)" d="M117.061 185.344 L135.417 185.344 L135.417 189.279 L121.343 189.279 L121.343 197.751 Q122.362 197.404 123.38 197.242 Q124.399 197.056 125.418 197.056 Q131.205 197.056 134.584 200.228 Q137.964 203.399 137.964 208.816 Q137.964 214.394 134.492 217.496 Q131.019 220.575 124.7 220.575 Q122.524 220.575 120.255 220.204 Q118.01 219.834 115.603 219.093 L115.603 214.394 Q117.686 215.529 119.908 216.084 Q122.13 216.64 124.607 216.64 Q128.612 216.64 130.95 214.533 Q133.288 212.427 133.288 208.816 Q133.288 205.205 130.95 203.098 Q128.612 200.992 124.607 200.992 Q122.732 200.992 120.857 201.408 Q119.006 201.825 117.061 202.705 L117.061 185.344 Z" fill="#000000" fill-rule="nonzero" fill-opacity="1" /><path clip-path="url(#clip640)" d="M147.177 214.024 L152.061 214.024 L152.061 219.904 L147.177 219.904 L147.177 214.024 Z" fill="#000000" fill-rule="nonzero" fill-opacity="1" /><path clip-path="url(#clip640)" d="M172.246 188.422 Q168.635 188.422 166.806 191.987 Q165.001 195.529 165.001 202.658 Q165.001 209.765 166.806 213.33 Q168.635 216.871 172.246 216.871 Q175.88 216.871 177.686 213.33 Q179.514 209.765 179.514 202.658 Q179.514 195.529 177.686 191.987 Q175.88 188.422 172.246 188.422 M172.246 184.719 Q178.056 184.719 181.112 189.325 Q184.19 193.908 184.19 202.658 Q184.19 211.385 181.112 215.992 Q178.056 220.575 172.246 220.575 Q166.436 220.575 163.357 215.992 Q160.302 211.385 160.302 202.658 Q160.302 193.908 163.357 189.325 Q166.436 184.719 172.246 184.719 Z" fill="#000000" fill-rule="nonzero" fill-opacity="1" /><path clip-path="url(#clip640)" d="M220.579 194.441 L210 205.066 L220.579 215.644 L217.824 218.445 L207.199 207.82 L196.575 218.445 L193.843 215.644 L204.399 205.066 L193.843 194.441 L196.575 191.64 L207.199 202.265 L217.824 191.64 L220.579 194.441 Z" fill="#000000" fill-rule="nonzero" fill-opacity="1" /><path clip-path="url(#clip640)" d="M232.94 215.968 L240.579 215.968 L240.579 189.603 L232.269 191.269 L232.269 187.01 L240.533 185.344 L245.209 185.344 L245.209 215.968 L252.847 215.968 L252.847 219.904 L232.94 219.904 L232.94 215.968 Z" fill="#000000" fill-rule="nonzero" fill-opacity="1" /><path clip-path="url(#clip640)" d="M272.292 188.422 Q268.681 188.422 266.852 191.987 Q265.046 195.529 265.046 202.658 Q265.046 209.765 266.852 213.33 Q268.681 216.871 272.292 216.871 Q275.926 216.871 277.732 213.33 Q279.56 209.765 279.56 202.658 Q279.56 195.529 277.732 191.987 Q275.926 188.422 272.292 188.422 M272.292 184.719 Q278.102 184.719 281.157 189.325 Q284.236 193.908 284.236 202.658 Q284.236 211.385 281.157 215.992 Q278.102 220.575 272.292 220.575 Q266.482 220.575 263.403 215.992 Q260.347 211.385 260.347 202.658 Q260.347 193.908 263.403 189.325 Q266.482 184.719 272.292 184.719 Z" fill="#000000" fill-rule="nonzero" fill-opacity="1" /><path clip-path="url(#clip640)" d="M296.913 167.723 L287.321 182.713 L296.913 182.713 L296.913 167.723 M295.916 164.413 L300.693 164.413 L300.693 182.713 L304.699 182.713 L304.699 185.873 L300.693 185.873 L300.693 192.493 L296.913 192.493 L296.913 185.873 L284.236 185.873 L284.236 182.205 L295.916 164.413 Z" fill="#000000" fill-rule="nonzero" fill-opacity="1" /><path clip-path="url(#clip640)" d="M16.4842 1265.97 L16.4842 1225.77 L21.895 1225.77 L21.895 1242.64 L64.0042 1242.64 L64.0042 1249.1 L21.895 1249.1 L21.895 1265.97 L16.4842 1265.97 Z" fill="#000000" fill-rule="nonzero" fill-opacity="1" /><path clip-path="url(#clip640)" d="M42.4881 1190.18 L64.0042 1190.18 L64.0042 1196.04 L42.679 1196.04 Q37.6183 1196.04 35.1038 1198.01 Q32.5894 1199.99 32.5894 1203.93 Q32.5894 1208.68 35.6131 1211.41 Q38.6368 1214.15 43.8567 1214.15 L64.0042 1214.15 L64.0042 1220.04 L14.479 1220.04 L14.479 1214.15 L33.8944 1214.15 Q30.6797 1212.05 29.0883 1209.22 Q27.4968 1206.35 27.4968 1202.63 Q27.4968 1196.49 31.3163 1193.34 Q35.1038 1190.18 42.4881 1190.18 Z" fill="#000000" fill-rule="nonzero" fill-opacity="1" /><path clip-path="url(#clip640)" d="M44.7161 1148.01 L47.5806 1148.01 L47.5806 1174.94 Q53.6281 1174.56 56.8109 1171.31 Q59.9619 1168.03 59.9619 1162.21 Q59.9619 1158.83 59.1344 1155.68 Q58.3069 1152.5 56.6518 1149.38 L62.1899 1149.38 Q63.5267 1152.53 64.227 1155.84 Q64.9272 1159.15 64.9272 1162.56 Q64.9272 1171.09 59.9619 1176.08 Q54.9967 1181.05 46.5303 1181.05 Q37.7774 1181.05 32.6531 1176.34 Q27.4968 1171.6 27.4968 1163.58 Q27.4968 1156.38 32.1438 1152.21 Q36.7589 1148.01 44.7161 1148.01 M42.9973 1153.87 Q38.1912 1153.93 35.3266 1156.57 Q32.4621 1159.18 32.4621 1163.51 Q32.4621 1168.41 35.2312 1171.37 Q38.0002 1174.3 43.0292 1174.75 L42.9973 1153.87 Z" fill="#000000" fill-rule="nonzero" fill-opacity="1" /><path clip-path="url(#clip640)" d="M32.4621 1124.59 Q32.4621 1129.3 36.1542 1132.03 Q39.8145 1134.77 46.212 1134.77 Q52.6095 1134.77 56.3017 1132.07 Q59.9619 1129.33 59.9619 1124.59 Q59.9619 1119.91 56.2698 1117.17 Q52.5777 1114.43 46.212 1114.43 Q39.8781 1114.43 36.186 1117.17 Q32.4621 1119.91 32.4621 1124.59 M27.4968 1124.59 Q27.4968 1116.95 32.4621 1112.59 Q37.4273 1108.23 46.212 1108.23 Q54.9649 1108.23 59.9619 1112.59 Q64.9272 1116.95 64.9272 1124.59 Q64.9272 1132.26 59.9619 1136.62 Q54.9649 1140.95 46.212 1140.95 Q37.4273 1140.95 32.4621 1136.62 Q27.4968 1132.26 27.4968 1124.59 Z" fill="#000000" fill-rule="nonzero" fill-opacity="1" /><path clip-path="url(#clip640)" d="M33.8307 1077.86 Q33.2578 1078.85 33.0032 1080.03 Q32.7167 1081.17 32.7167 1082.57 Q32.7167 1087.54 35.9632 1090.21 Q39.1779 1092.85 45.2253 1092.85 L64.0042 1092.85 L64.0042 1098.74 L28.3562 1098.74 L28.3562 1092.85 L33.8944 1092.85 Q30.6479 1091.01 29.0883 1088.05 Q27.4968 1085.09 27.4968 1080.85 Q27.4968 1080.25 27.5923 1079.52 Q27.656 1078.79 27.8151 1077.89 L33.8307 1077.86 Z" fill="#000000" fill-rule="nonzero" fill-opacity="1" /><path clip-path="url(#clip640)" d="M44.7161 1042.66 L47.5806 1042.66 L47.5806 1069.59 Q53.6281 1069.2 56.8109 1065.96 Q59.9619 1062.68 59.9619 1056.86 Q59.9619 1053.48 59.1344 1050.33 Q58.3069 1047.15 56.6518 1044.03 L62.1899 1044.03 Q63.5267 1047.18 64.227 1050.49 Q64.9272 1053.8 64.9272 1057.21 Q64.9272 1065.74 59.9619 1070.73 Q54.9967 1075.7 46.5303 1075.7 Q37.7774 1075.7 32.6531 1070.99 Q27.4968 1066.24 27.4968 1058.22 Q27.4968 1051.03 32.1438 1046.86 Q36.7589 1042.66 44.7161 1042.66 M42.9973 1048.52 Q38.1912 1048.58 35.3266 1051.22 Q32.4621 1053.83 32.4621 1058.16 Q32.4621 1063.06 35.2312 1066.02 Q38.0002 1068.95 43.0292 1069.4 L42.9973 1048.52 Z" fill="#000000" fill-rule="nonzero" fill-opacity="1" /><path clip-path="url(#clip640)" d="M18.2347 1027.25 L28.3562 1027.25 L28.3562 1015.19 L32.9077 1015.19 L32.9077 1027.25 L52.2594 1027.25 Q56.6199 1027.25 57.8613 1026.08 Q59.1026 1024.87 59.1026 1021.21 L59.1026 1015.19 L64.0042 1015.19 L64.0042 1021.21 Q64.0042 1027.99 61.4897 1030.56 Q58.9434 1033.14 52.2594 1033.14 L32.9077 1033.14 L32.9077 1037.44 L28.3562 1037.44 L28.3562 1033.14 L18.2347 1033.14 L18.2347 1027.25 Z" fill="#000000" fill-rule="nonzero" fill-opacity="1" /><path clip-path="url(#clip640)" d="M28.3562 1007.49 L28.3562 1001.63 L64.0042 1001.63 L64.0042 1007.49 L28.3562 1007.49 M14.479 1007.49 L14.479 1001.63 L21.895 1001.63 L21.895 1007.49 L14.479 1007.49 Z" fill="#000000" fill-rule="nonzero" fill-opacity="1" /><path clip-path="url(#clip640)" d="M29.7248 963.725 L35.1993 963.725 Q33.8307 966.208 33.1623 968.722 Q32.4621 971.205 32.4621 973.751 Q32.4621 979.448 36.0905 982.599 Q39.6872 985.75 46.212 985.75 Q52.7369 985.75 56.3653 982.599 Q59.9619 979.448 59.9619 973.751 Q59.9619 971.205 59.2935 968.722 Q58.5933 966.208 57.2247 963.725 L62.6355 963.725 Q63.7814 966.176 64.3543 968.817 Q64.9272 971.427 64.9272 974.387 Q64.9272 982.44 59.8664 987.183 Q54.8057 991.925 46.212 991.925 Q37.491 991.925 32.4939 987.151 Q27.4968 982.345 27.4968 974.006 Q27.4968 971.3 28.0697 968.722 Q28.6108 966.144 29.7248 963.725 Z" fill="#000000" fill-rule="nonzero" fill-opacity="1" /><path clip-path="url(#clip640)" d="M46.0847 937.339 Q46.0847 944.437 47.7079 947.174 Q49.3312 949.911 53.2461 949.911 Q56.3653 949.911 58.2114 947.874 Q60.0256 945.805 60.0256 942.272 Q60.0256 937.403 56.5881 934.475 Q53.1188 931.514 47.3897 931.514 L46.0847 931.514 L46.0847 937.339 M43.6657 925.658 L64.0042 925.658 L64.0042 931.514 L58.5933 931.514 Q61.8398 933.52 63.3994 936.512 Q64.9272 939.503 64.9272 943.832 Q64.9272 949.307 61.8716 952.553 Q58.7843 955.768 53.6281 955.768 Q47.6125 955.768 44.5569 951.757 Q41.5014 947.715 41.5014 939.726 L41.5014 931.514 L40.9285 931.514 Q36.8862 931.514 34.6901 934.188 Q32.4621 936.83 32.4621 941.636 Q32.4621 944.691 33.1941 947.588 Q33.9262 950.484 35.3903 953.158 L29.9795 953.158 Q28.7381 949.943 28.1334 946.919 Q27.4968 943.896 27.4968 941.031 Q27.4968 933.297 31.5072 929.477 Q35.5176 925.658 43.6657 925.658 Z" fill="#000000" fill-rule="nonzero" fill-opacity="1" /><path clip-path="url(#clip640)" d="M14.479 913.595 L14.479 907.739 L64.0042 907.739 L64.0042 913.595 L14.479 913.595 Z" fill="#000000" fill-rule="nonzero" fill-opacity="1" /><path clip-path="url(#clip640)" d="M16.4842 874.51 L16.4842 864.929 L48.8219 852.802 L16.4842 840.612 L16.4842 831.032 L64.0042 831.032 L64.0042 837.302 L22.277 837.302 L54.8694 849.556 L54.8694 856.017 L22.277 868.271 L64.0042 868.271 L64.0042 874.51 L16.4842 874.51 Z" fill="#000000" fill-rule="nonzero" fill-opacity="1" /><path clip-path="url(#clip640)" d="M46.0847 802.322 Q46.0847 809.42 47.7079 812.157 Q49.3312 814.895 53.2461 814.895 Q56.3653 814.895 58.2114 812.858 Q60.0256 810.789 60.0256 807.256 Q60.0256 802.386 56.5881 799.458 Q53.1188 796.498 47.3897 796.498 L46.0847 796.498 L46.0847 802.322 M43.6657 790.641 L64.0042 790.641 L64.0042 796.498 L58.5933 796.498 Q61.8398 798.503 63.3994 801.495 Q64.9272 804.487 64.9272 808.815 Q64.9272 814.29 61.8716 817.536 Q58.7843 820.751 53.6281 820.751 Q47.6125 820.751 44.5569 816.741 Q41.5014 812.699 41.5014 804.71 L41.5014 796.498 L40.9285 796.498 Q36.8862 796.498 34.6901 799.171 Q32.4621 801.813 32.4621 806.619 Q32.4621 809.675 33.1941 812.571 Q33.9262 815.468 35.3903 818.141 L29.9795 818.141 Q28.7381 814.927 28.1334 811.903 Q27.4968 808.879 27.4968 806.015 Q27.4968 798.28 31.5072 794.461 Q35.5176 790.641 43.6657 790.641 Z" fill="#000000" fill-rule="nonzero" fill-opacity="1" /><path clip-path="url(#clip640)" d="M29.4065 755.853 L34.9447 755.853 Q33.6716 758.335 33.035 761.009 Q32.3984 763.683 32.3984 766.547 Q32.3984 770.908 33.7352 773.104 Q35.072 775.268 37.7456 775.268 Q39.7826 775.268 40.9603 773.709 Q42.1061 772.149 43.1565 767.438 L43.6021 765.433 Q44.9389 759.195 47.3897 756.585 Q49.8086 753.943 54.1691 753.943 Q59.1344 753.943 62.0308 757.89 Q64.9272 761.805 64.9272 768.68 Q64.9272 771.544 64.3543 774.663 Q63.8132 777.751 62.6992 781.188 L56.6518 781.188 Q58.3387 777.942 59.198 774.791 Q60.0256 771.64 60.0256 768.552 Q60.0256 764.415 58.6251 762.187 Q57.1929 759.959 54.6147 759.959 Q52.2276 759.959 50.9545 761.582 Q49.6813 763.173 48.5037 768.616 L48.0262 770.653 Q46.8804 776.096 44.5251 778.515 Q42.138 780.934 38.0002 780.934 Q32.9713 780.934 30.2341 777.369 Q27.4968 773.804 27.4968 767.247 Q27.4968 764.001 27.9743 761.136 Q28.4517 758.272 29.4065 755.853 Z" fill="#000000" fill-rule="nonzero" fill-opacity="1" /><path clip-path="url(#clip640)" d="M29.4065 721.892 L34.9447 721.892 Q33.6716 724.374 33.035 727.048 Q32.3984 729.722 32.3984 732.586 Q32.3984 736.947 33.7352 739.143 Q35.072 741.307 37.7456 741.307 Q39.7826 741.307 40.9603 739.748 Q42.1061 738.188 43.1565 733.477 L43.6021 731.472 Q44.9389 725.234 47.3897 722.624 Q49.8086 719.982 54.1691 719.982 Q59.1344 719.982 62.0308 723.929 Q64.9272 727.844 64.9272 734.719 Q64.9272 737.583 64.3543 740.702 Q63.8132 743.79 62.6992 747.227 L56.6518 747.227 Q58.3387 743.981 59.198 740.83 Q60.0256 737.679 60.0256 734.591 Q60.0256 730.454 58.6251 728.226 Q57.1929 725.998 54.6147 725.998 Q52.2276 725.998 50.9545 727.621 Q49.6813 729.212 48.5037 734.655 L48.0262 736.692 Q46.8804 742.135 44.5251 744.554 Q42.138 746.973 38.0002 746.973 Q32.9713 746.973 30.2341 743.408 Q27.4968 739.843 27.4968 733.286 Q27.4968 730.04 27.9743 727.175 Q28.4517 724.311 29.4065 721.892 Z" fill="#000000" fill-rule="nonzero" fill-opacity="1" /><path clip-path="url(#clip640)" d="M16.4842 689.681 L16.4842 662.372 L21.895 662.372 L21.895 683.252 L35.8996 683.252 L35.8996 664.409 L41.3104 664.409 L41.3104 683.252 L64.0042 683.252 L64.0042 689.681 L16.4842 689.681 Z" fill="#000000" fill-rule="nonzero" fill-opacity="1" /><path clip-path="url(#clip640)" d="M14.479 652.442 L14.479 646.585 L64.0042 646.585 L64.0042 652.442 L14.479 652.442 Z" fill="#000000" fill-rule="nonzero" fill-opacity="1" /><path clip-path="url(#clip640)" d="M49.9359 634.936 L28.3562 634.936 L28.3562 629.08 L49.7131 629.08 Q54.7739 629.08 57.3202 627.106 Q59.8346 625.133 59.8346 621.186 Q59.8346 616.444 56.8109 613.707 Q53.7872 610.937 48.5673 610.937 L28.3562 610.937 L28.3562 605.081 L64.0042 605.081 L64.0042 610.937 L58.5296 610.937 Q61.7762 613.07 63.3676 615.903 Q64.9272 618.704 64.9272 622.428 Q64.9272 628.57 61.1078 631.753 Q57.2883 634.936 49.9359 634.936 M27.4968 620.2 L27.4968 620.2 Z" fill="#000000" fill-rule="nonzero" fill-opacity="1" /><path clip-path="url(#clip640)" d="M28.3562 563.386 L45.7028 576.276 L64.0042 562.717 L64.0042 569.624 L49.9996 580 L64.0042 590.376 L64.0042 597.283 L45.3526 583.438 L28.3562 596.105 L28.3562 589.199 L41.0558 579.745 L28.3562 570.292 L28.3562 563.386 Z" fill="#000000" fill-rule="nonzero" fill-opacity="1" /><path clip-path="url(#clip640)" d="M57.2247 501.065 L44.4614 501.065 L44.4614 511.569 L39.1779 511.569 L39.1779 494.7 L59.58 494.7 Q62.2218 498.424 63.5904 502.911 Q64.9272 507.399 64.9272 512.492 Q64.9272 523.632 58.4342 529.934 Q51.9093 536.204 40.2919 536.204 Q28.6427 536.204 22.1496 529.934 Q15.6248 523.632 15.6248 512.492 Q15.6248 507.845 16.7706 503.675 Q17.9164 499.474 20.1444 495.941 L26.9876 495.941 Q23.9639 499.506 22.4361 503.516 Q20.9083 507.527 20.9083 511.951 Q20.9083 520.672 25.7781 525.064 Q30.6479 529.425 40.2919 529.425 Q49.9041 529.425 54.7739 525.064 Q59.6436 520.672 59.6436 511.951 Q59.6436 508.545 59.0707 505.871 Q58.466 503.198 57.2247 501.065 Z" fill="#000000" fill-rule="nonzero" fill-opacity="1" /><path clip-path="url(#clip640)" d="M55.9197 481.714 L55.9197 474.998 L61.3942 474.998 L71.5793 480.218 L71.5793 484.324 L61.3942 481.714 L55.9197 481.714 Z" fill="#000000" fill-rule="nonzero" fill-opacity="1" /><path clip-path="url(#clip640)" d="M14.479 441.992 L14.479 436.103 L43.7294 436.103 L28.3562 418.629 L28.3562 411.15 L45.0344 430.056 L64.0042 410.354 L64.0042 417.993 L46.5939 436.103 L64.0042 436.103 L64.0042 441.992 L14.479 441.992 Z" fill="#000000" fill-rule="nonzero" fill-opacity="1" /><path clip-path="url(#clip640)" d="M45.7664 380.563 Q39.4007 380.563 35.8996 383.204 Q32.3984 385.814 32.3984 390.557 Q32.3984 395.267 35.8996 397.909 Q39.4007 400.519 45.7664 400.519 Q52.1003 400.519 55.6014 397.909 Q59.1026 395.267 59.1026 390.557 Q59.1026 385.814 55.6014 383.204 Q52.1003 380.563 45.7664 380.563 M59.58 374.706 Q68.683 374.706 73.1071 378.748 Q77.5631 382.791 77.5631 391.13 Q77.5631 394.217 77.0857 396.954 Q76.6401 399.691 75.6852 402.27 L69.9879 402.27 Q71.3884 399.691 72.0568 397.177 Q72.7252 394.663 72.7252 392.053 Q72.7252 386.292 69.7015 383.427 Q66.7096 380.563 60.6303 380.563 L57.7339 380.563 Q60.885 382.377 62.4446 385.21 Q64.0042 388.042 64.0042 391.989 Q64.0042 398.546 59.0071 402.556 Q54.01 406.566 45.7664 406.566 Q37.491 406.566 32.4939 402.556 Q27.4968 398.546 27.4968 391.989 Q27.4968 388.042 29.0564 385.21 Q30.616 382.377 33.7671 380.563 L28.3562 380.563 L28.3562 374.706 L59.58 374.706 Z" fill="#000000" fill-rule="nonzero" fill-opacity="1" /><path clip-path="url(#clip640)" d="M16.4842 352.235 L16.4842 346.824 L70.0516 363.375 L70.0516 368.786 L16.4842 352.235 Z" fill="#000000" fill-rule="nonzero" fill-opacity="1" /><path clip-path="url(#clip640)" d="M35.1993 312.927 Q31.2526 310.731 29.3747 307.675 Q27.4968 304.62 27.4968 300.482 Q27.4968 294.912 31.4117 291.888 Q35.2948 288.865 42.4881 288.865 L64.0042 288.865 L64.0042 294.753 L42.679 294.753 Q37.5546 294.753 35.072 296.567 Q32.5894 298.381 32.5894 302.105 Q32.5894 306.657 35.6131 309.298 Q38.6368 311.94 43.8567 311.94 L64.0042 311.94 L64.0042 317.828 L42.679 317.828 Q37.5228 317.828 35.072 319.643 Q32.5894 321.457 32.5894 325.245 Q32.5894 329.732 35.6449 332.374 Q38.6686 335.016 43.8567 335.016 L64.0042 335.016 L64.0042 340.904 L28.3562 340.904 L28.3562 335.016 L33.8944 335.016 Q30.616 333.011 29.0564 330.21 Q27.4968 327.409 27.4968 323.558 Q27.4968 319.675 29.4702 316.969 Q31.4436 314.232 35.1993 312.927 Z" fill="#000000" fill-rule="nonzero" fill-opacity="1" /><path clip-path="url(#clip640)" d="M39.1142 274.796 L39.1142 261.301 L42.7427 261.301 L42.7427 280.334 L39.2416 280.334 Q38.2549 279.252 36.4725 277.247 Q26.7648 266.298 23.7729 266.298 Q21.6722 266.298 20.3991 267.953 Q19.0941 269.608 19.0941 272.314 Q19.0941 273.969 19.667 275.91 Q20.2081 277.852 21.3221 280.144 L17.4072 280.144 Q16.516 277.693 16.0704 275.592 Q15.6248 273.46 15.6248 271.645 Q15.6248 267.03 17.7255 264.261 Q19.8262 261.492 23.2636 261.492 Q27.6878 261.492 36.7271 272.027 Q38.2549 273.81 39.1142 274.796 Z" fill="#000000" fill-rule="nonzero" fill-opacity="1" /><path clip-path="url(#clip640)" d="M16.4842 240.644 L16.4842 235.233 L70.0516 251.784 L70.0516 257.195 L16.4842 240.644 Z" fill="#000000" fill-rule="nonzero" fill-opacity="1" /><path clip-path="url(#clip640)" d="M29.4065 206.365 L34.9447 206.365 Q33.6716 208.848 33.035 211.521 Q32.3984 214.195 32.3984 217.059 Q32.3984 221.42 33.7352 223.616 Q35.072 225.78 37.7456 225.78 Q39.7826 225.78 40.9603 224.221 Q42.1061 222.661 43.1565 217.951 L43.6021 215.945 Q44.9389 209.707 47.3897 207.097 Q49.8086 204.455 54.1691 204.455 Q59.1344 204.455 62.0308 208.402 Q64.9272 212.317 64.9272 219.192 Q64.9272 222.056 64.3543 225.176 Q63.8132 228.263 62.6992 231.7 L56.6518 231.7 Q58.3387 228.454 59.198 225.303 Q60.0256 222.152 60.0256 219.065 Q60.0256 214.927 58.6251 212.699 Q57.1929 210.471 54.6147 210.471 Q52.2276 210.471 50.9545 212.094 Q49.6813 213.686 48.5037 219.128 L48.0262 221.165 Q46.8804 226.608 44.5251 229.027 Q42.138 231.446 38.0002 231.446 Q32.9713 231.446 30.2341 227.881 Q27.4968 224.316 27.4968 217.76 Q27.4968 214.513 27.9743 211.649 Q28.4517 208.784 29.4065 206.365 Z" fill="#000000" fill-rule="nonzero" fill-opacity="1" /><polyline clip-path="url(#clip642)" style="stroke:#009af9; stroke-linecap:round; stroke-linejoin:round; stroke-width:4; stroke-opacity:1; fill:none" points="397.644,1348.14 416.817,1294.28 435.991,1247.26 455.164,1203.41 474.338,1161.32 493.511,1120.22 512.684,1079.6 531.858,1039.06 551.031,998.253 570.205,956.882 589.378,914.641 608.551,871.215 627.725,826.261 646.898,779.387 666.072,730.13 685.245,677.923 704.418,622.046 723.592,581.192 742.765,548.025 761.939,516.074 781.112,485.368 800.285,455.928 819.459,427.766 838.632,400.888 857.806,375.29 876.979,350.965 896.152,327.898 915.326,306.073 934.499,285.466 953.673,266.053 972.846,247.808 992.019,230.702 1011.19,214.707 1030.37,199.793 1049.54,185.931 1068.71,173.092 1087.89,161.247 1107.06,150.368 1126.23,140.429 1145.41,131.404 1164.58,123.268 1183.75,115.996 1202.93,109.568 1222.1,103.961 1241.27,99.1556 1260.45,95.1329 1279.62,91.8753 1298.79,89.3664 1317.97,87.5909 1337.14,86.535 1356.31,86.1857 1375.49,86.5311 1394.66,87.5608 1413.83,89.265 1433.01,91.6355 1452.18,94.6647 1471.35,98.3464 1490.53,102.675 1509.7,107.647 1528.87,113.259 1548.05,119.509 1567.22,126.397 1586.39,133.922 1605.57,142.086 1624.74,150.891 1643.92,160.343 1663.09,170.446 1682.26,181.207 1701.44,192.635 1720.61,204.739 1739.78,217.532 1758.96,231.027 1778.13,245.241 1797.3,260.191 1816.48,275.899 1835.65,292.388 1854.82,309.686 1874,327.824 1893.17,346.838 1912.34,366.767 1931.52,387.659 1950.69,409.567 1969.86,432.552 1989.04,456.686 2008.21,482.052 2027.38,508.75 2046.56,536.895 2065.73,566.63 2084.9,598.124 2104.08,631.59 2123.25,667.295 2142.42,705.581 2161.6,746.905 2180.77,791.889 2199.94,841.434 2219.12,896.913 2238.29,960.641 2257.46,1037.11 2276.64,1137.9 2295.81,1384.24 "/>
<circle clip-path="url(#clip642)" cx="1341.96" cy="86.3813" r="14.4" fill="#e26f46" fill-rule="evenodd" fill-opacity="1" stroke="#000000" stroke-opacity="1" stroke-width="3.2"/>
</svg>
