<?xml version="1.0" encoding="utf-8"?>
<svg xmlns="http://www.w3.org/2000/svg" xmlns:xlink="http://www.w3.org/1999/xlink" width="600" height="400" viewBox="0 0 2400 1600">
<defs>
  <clipPath id="clip110">
    <rect x="0" y="0" width="2400" height="1600"/>
  </clipPath>
</defs>
<path clip-path="url(#clip110)" d="
M0 1600 L2400 1600 L2400 0 L0 0  Z
  " fill="#ffffff" fill-rule="evenodd" fill-opacity="1"/>
<defs>
  <clipPath id="clip111">
    <rect x="480" y="0" width="1681" height="1600"/>
  </clipPath>
</defs>
<path clip-path="url(#clip110)" d="
M194.098 1423.18 L2352.76 1423.18 L2352.76 47.2441 L194.098 47.2441  Z
  " fill="#ffffff" fill-rule="evenodd" fill-opacity="1"/>
<defs>
  <clipPath id="clip112">
    <rect x="194" y="47" width="2160" height="1377"/>
  </clipPath>
</defs>
<polyline clip-path="url(#clip112)" style="stroke:#000000; stroke-linecap:butt; stroke-linejoin:round; stroke-width:2; stroke-opacity:0.1; fill:none" points="
  194.098,1423.18 194.098,47.2441 
  "/>
<polyline clip-path="url(#clip112)" style="stroke:#000000; stroke-linecap:butt; stroke-linejoin:round; stroke-width:2; stroke-opacity:0.1; fill:none" points="
  553.874,1423.18 553.874,47.2441 
  "/>
<polyline clip-path="url(#clip112)" style="stroke:#000000; stroke-linecap:butt; stroke-linejoin:round; stroke-width:2; stroke-opacity:0.1; fill:none" points="
  913.651,1423.18 913.651,47.2441 
  "/>
<polyline clip-path="url(#clip112)" style="stroke:#000000; stroke-linecap:butt; stroke-linejoin:round; stroke-width:2; stroke-opacity:0.1; fill:none" points="
  1273.43,1423.18 1273.43,47.2441 
  "/>
<polyline clip-path="url(#clip112)" style="stroke:#000000; stroke-linecap:butt; stroke-linejoin:round; stroke-width:2; stroke-opacity:0.1; fill:none" points="
  1633.2,1423.18 1633.2,47.2441 
  "/>
<polyline clip-path="url(#clip112)" style="stroke:#000000; stroke-linecap:butt; stroke-linejoin:round; stroke-width:2; stroke-opacity:0.1; fill:none" points="
  1992.98,1423.18 1992.98,47.2441 
  "/>
<polyline clip-path="url(#clip112)" style="stroke:#000000; stroke-linecap:butt; stroke-linejoin:round; stroke-width:2; stroke-opacity:0.1; fill:none" points="
  2352.76,1423.18 2352.76,47.2441 
  "/>
<polyline clip-path="url(#clip110)" style="stroke:#000000; stroke-linecap:butt; stroke-linejoin:round; stroke-width:4; stroke-opacity:1; fill:none" points="
  194.098,1423.18 2352.76,1423.18 
  "/>
<polyline clip-path="url(#clip110)" style="stroke:#000000; stroke-linecap:butt; stroke-linejoin:round; stroke-width:4; stroke-opacity:1; fill:none" points="
  194.098,1423.18 194.098,1404.28 
  "/>
<polyline clip-path="url(#clip110)" style="stroke:#000000; stroke-linecap:butt; stroke-linejoin:round; stroke-width:4; stroke-opacity:1; fill:none" points="
  553.874,1423.18 553.874,1404.28 
  "/>
<polyline clip-path="url(#clip110)" style="stroke:#000000; stroke-linecap:butt; stroke-linejoin:round; stroke-width:4; stroke-opacity:1; fill:none" points="
  913.651,1423.18 913.651,1404.28 
  "/>
<polyline clip-path="url(#clip110)" style="stroke:#000000; stroke-linecap:butt; stroke-linejoin:round; stroke-width:4; stroke-opacity:1; fill:none" points="
  1273.43,1423.18 1273.43,1404.28 
  "/>
<polyline clip-path="url(#clip110)" style="stroke:#000000; stroke-linecap:butt; stroke-linejoin:round; stroke-width:4; stroke-opacity:1; fill:none" points="
  1633.2,1423.18 1633.2,1404.28 
  "/>
<polyline clip-path="url(#clip110)" style="stroke:#000000; stroke-linecap:butt; stroke-linejoin:round; stroke-width:4; stroke-opacity:1; fill:none" points="
  1992.98,1423.18 1992.98,1404.28 
  "/>
<polyline clip-path="url(#clip110)" style="stroke:#000000; stroke-linecap:butt; stroke-linejoin:round; stroke-width:4; stroke-opacity:1; fill:none" points="
  2352.76,1423.18 2352.76,1404.28 
  "/>
<path clip-path="url(#clip110)" d="M194.098 1454.1 Q190.487 1454.1 188.658 1457.66 Q186.853 1461.2 186.853 1468.33 Q186.853 1475.44 188.658 1479.01 Q190.487 1482.55 194.098 1482.55 Q197.732 1482.55 199.538 1479.01 Q201.367 1475.44 201.367 1468.33 Q201.367 1461.2 199.538 1457.66 Q197.732 1454.1 194.098 1454.1 M194.098 1450.39 Q199.908 1450.39 202.964 1455 Q206.042 1459.58 206.042 1468.33 Q206.042 1477.06 202.964 1481.67 Q199.908 1486.25 194.098 1486.25 Q188.288 1486.25 185.209 1481.67 Q182.154 1477.06 182.154 1468.33 Q182.154 1459.58 185.209 1455 Q188.288 1450.39 194.098 1450.39 Z" fill="#000000" fill-rule="evenodd" fill-opacity="1" /><path clip-path="url(#clip110)" d="M544.256 1481.64 L551.895 1481.64 L551.895 1455.28 L543.585 1456.95 L543.585 1452.69 L551.849 1451.02 L556.525 1451.02 L556.525 1481.64 L564.164 1481.64 L564.164 1485.58 L544.256 1485.58 L544.256 1481.64 Z" fill="#000000" fill-rule="evenodd" fill-opacity="1" /><path clip-path="url(#clip110)" d="M908.303 1481.64 L924.623 1481.64 L924.623 1485.58 L902.678 1485.58 L902.678 1481.64 Q905.341 1478.89 909.924 1474.26 Q914.53 1469.61 915.711 1468.27 Q917.956 1465.74 918.836 1464.01 Q919.739 1462.25 919.739 1460.56 Q919.739 1457.8 917.794 1456.07 Q915.873 1454.33 912.771 1454.33 Q910.572 1454.33 908.118 1455.09 Q905.688 1455.86 902.91 1457.41 L902.91 1452.69 Q905.734 1451.55 908.188 1450.97 Q910.641 1450.39 912.678 1450.39 Q918.049 1450.39 921.243 1453.08 Q924.438 1455.77 924.438 1460.26 Q924.438 1462.39 923.627 1464.31 Q922.84 1466.2 920.734 1468.8 Q920.155 1469.47 917.053 1472.69 Q913.952 1475.88 908.303 1481.64 Z" fill="#000000" fill-rule="evenodd" fill-opacity="1" /><path clip-path="url(#clip110)" d="M1277.67 1466.95 Q1281.03 1467.66 1282.91 1469.93 Q1284.8 1472.2 1284.8 1475.53 Q1284.8 1480.65 1281.29 1483.45 Q1277.77 1486.25 1271.29 1486.25 Q1269.11 1486.25 1266.8 1485.81 Q1264.5 1485.39 1262.05 1484.54 L1262.05 1480.02 Q1263.99 1481.16 1266.31 1481.74 Q1268.62 1482.32 1271.15 1482.32 Q1275.55 1482.32 1277.84 1480.58 Q1280.15 1478.84 1280.15 1475.53 Q1280.15 1472.48 1278 1470.77 Q1275.87 1469.03 1272.05 1469.03 L1268.02 1469.03 L1268.02 1465.19 L1272.23 1465.19 Q1275.68 1465.19 1277.51 1463.82 Q1279.34 1462.43 1279.34 1459.84 Q1279.34 1457.18 1277.44 1455.77 Q1275.57 1454.33 1272.05 1454.33 Q1270.13 1454.33 1267.93 1454.75 Q1265.73 1455.16 1263.09 1456.04 L1263.09 1451.88 Q1265.75 1451.14 1268.07 1450.77 Q1270.41 1450.39 1272.47 1450.39 Q1277.79 1450.39 1280.89 1452.83 Q1283.99 1455.23 1283.99 1459.35 Q1283.99 1462.22 1282.35 1464.21 Q1280.71 1466.18 1277.67 1466.95 Z" fill="#000000" fill-rule="evenodd" fill-opacity="1" /><path clip-path="url(#clip110)" d="M1636.21 1455.09 L1624.41 1473.54 L1636.21 1473.54 L1636.21 1455.09 M1634.99 1451.02 L1640.87 1451.02 L1640.87 1473.54 L1645.8 1473.54 L1645.8 1477.43 L1640.87 1477.43 L1640.87 1485.58 L1636.21 1485.58 L1636.21 1477.43 L1620.61 1477.43 L1620.61 1472.92 L1634.99 1451.02 Z" fill="#000000" fill-rule="evenodd" fill-opacity="1" /><path clip-path="url(#clip110)" d="M1983.26 1451.02 L2001.61 1451.02 L2001.61 1454.96 L1987.54 1454.96 L1987.54 1463.43 Q1988.56 1463.08 1989.58 1462.92 Q1990.6 1462.73 1991.61 1462.73 Q1997.4 1462.73 2000.78 1465.9 Q2004.16 1469.08 2004.16 1474.49 Q2004.16 1480.07 2000.69 1483.17 Q1997.22 1486.25 1990.9 1486.25 Q1988.72 1486.25 1986.45 1485.88 Q1984.21 1485.51 1981.8 1484.77 L1981.8 1480.07 Q1983.88 1481.2 1986.1 1481.76 Q1988.33 1482.32 1990.8 1482.32 Q1994.81 1482.32 1997.15 1480.21 Q1999.48 1478.1 1999.48 1474.49 Q1999.48 1470.88 1997.15 1468.77 Q1994.81 1466.67 1990.8 1466.67 Q1988.93 1466.67 1987.05 1467.08 Q1985.2 1467.5 1983.26 1468.38 L1983.26 1451.02 Z" fill="#000000" fill-rule="evenodd" fill-opacity="1" /><path clip-path="url(#clip110)" d="M2353.16 1466.44 Q2350.01 1466.44 2348.16 1468.59 Q2346.33 1470.74 2346.33 1474.49 Q2346.33 1478.22 2348.16 1480.39 Q2350.01 1482.55 2353.16 1482.55 Q2356.31 1482.55 2358.14 1480.39 Q2359.99 1478.22 2359.99 1474.49 Q2359.99 1470.74 2358.14 1468.59 Q2356.31 1466.44 2353.16 1466.44 M2362.44 1451.78 L2362.44 1456.04 Q2360.68 1455.21 2358.88 1454.77 Q2357.1 1454.33 2355.34 1454.33 Q2350.71 1454.33 2348.25 1457.45 Q2345.82 1460.58 2345.48 1466.9 Q2346.84 1464.89 2348.9 1463.82 Q2350.96 1462.73 2353.44 1462.73 Q2358.65 1462.73 2361.66 1465.9 Q2364.69 1469.05 2364.69 1474.49 Q2364.69 1479.82 2361.54 1483.03 Q2358.39 1486.25 2353.16 1486.25 Q2347.17 1486.25 2343.99 1481.67 Q2340.82 1477.06 2340.82 1468.33 Q2340.82 1460.14 2344.71 1455.28 Q2348.6 1450.39 2355.15 1450.39 Q2356.91 1450.39 2358.69 1450.74 Q2360.5 1451.09 2362.44 1451.78 Z" fill="#000000" fill-rule="evenodd" fill-opacity="1" /><path clip-path="url(#clip110)" d="M1276.34 1518.52 L1276.34 1531.66 Q1282.67 1531.66 1286.91 1536.53 Q1291.27 1541.5 1291.27 1550.25 Q1291.27 1559 1286.91 1563.97 Q1282.67 1568.84 1276.34 1568.84 L1276.34 1581.6 L1270.51 1581.6 L1270.51 1568.84 Q1264.18 1568.84 1259.92 1563.97 Q1255.59 1559 1255.59 1550.25 Q1255.59 1541.5 1259.92 1536.53 Q1264.18 1531.66 1270.51 1531.66 L1270.51 1518.52 L1276.34 1518.52 M1276.34 1563.62 Q1279.94 1563.62 1282.39 1560.34 Q1285.06 1556.68 1285.09 1550.25 Q1285.12 1543.89 1282.39 1540.16 Q1279.94 1536.88 1276.34 1536.88 L1276.34 1563.62 M1270.51 1563.62 L1270.51 1536.88 Q1266.92 1536.88 1264.5 1540.16 Q1261.73 1543.89 1261.76 1550.25 Q1261.79 1556.68 1264.5 1560.34 Q1266.92 1563.62 1270.51 1563.62 Z" fill="#000000" fill-rule="evenodd" fill-opacity="1" /><polyline clip-path="url(#clip112)" style="stroke:#000000; stroke-linecap:butt; stroke-linejoin:round; stroke-width:2; stroke-opacity:0.1; fill:none" points="
  194.098,1200.16 2352.76,1200.16 
  "/>
<polyline clip-path="url(#clip112)" style="stroke:#000000; stroke-linecap:butt; stroke-linejoin:round; stroke-width:2; stroke-opacity:0.1; fill:none" points="
  194.098,968.094 2352.76,968.094 
  "/>
<polyline clip-path="url(#clip112)" style="stroke:#000000; stroke-linecap:butt; stroke-linejoin:round; stroke-width:2; stroke-opacity:0.1; fill:none" points="
  194.098,736.027 2352.76,736.027 
  "/>
<polyline clip-path="url(#clip112)" style="stroke:#000000; stroke-linecap:butt; stroke-linejoin:round; stroke-width:2; stroke-opacity:0.1; fill:none" points="
  194.098,503.959 2352.76,503.959 
  "/>
<polyline clip-path="url(#clip112)" style="stroke:#000000; stroke-linecap:butt; stroke-linejoin:round; stroke-width:2; stroke-opacity:0.1; fill:none" points="
  194.098,271.892 2352.76,271.892 
  "/>
<polyline clip-path="url(#clip110)" style="stroke:#000000; stroke-linecap:butt; stroke-linejoin:round; stroke-width:4; stroke-opacity:1; fill:none" points="
  194.098,1423.18 194.098,47.2441 
  "/>
<polyline clip-path="url(#clip110)" style="stroke:#000000; stroke-linecap:butt; stroke-linejoin:round; stroke-width:4; stroke-opacity:1; fill:none" points="
  194.098,1200.16 212.996,1200.16 
  "/>
<polyline clip-path="url(#clip110)" style="stroke:#000000; stroke-linecap:butt; stroke-linejoin:round; stroke-width:4; stroke-opacity:1; fill:none" points="
  194.098,968.094 212.996,968.094 
  "/>
<polyline clip-path="url(#clip110)" style="stroke:#000000; stroke-linecap:butt; stroke-linejoin:round; stroke-width:4; stroke-opacity:1; fill:none" points="
  194.098,736.027 212.996,736.027 
  "/>
<polyline clip-path="url(#clip110)" style="stroke:#000000; stroke-linecap:butt; stroke-linejoin:round; stroke-width:4; stroke-opacity:1; fill:none" points="
  194.098,503.959 212.996,503.959 
  "/>
<polyline clip-path="url(#clip110)" style="stroke:#000000; stroke-linecap:butt; stroke-linejoin:round; stroke-width:4; stroke-opacity:1; fill:none" points="
  194.098,271.892 212.996,271.892 
  "/>
<path clip-path="url(#clip110)" d="M51.3393 1200.61 L81.0151 1200.61 L81.0151 1204.55 L51.3393 1204.55 L51.3393 1200.61 Z" fill="#000000" fill-rule="evenodd" fill-opacity="1" /><path clip-path="url(#clip110)" d="M101.108 1185.96 Q97.4965 1185.96 95.6678 1189.53 Q93.8623 1193.07 93.8623 1200.2 Q93.8623 1207.3 95.6678 1210.87 Q97.4965 1214.41 101.108 1214.41 Q104.742 1214.41 106.547 1210.87 Q108.376 1207.3 108.376 1200.2 Q108.376 1193.07 106.547 1189.53 Q104.742 1185.96 101.108 1185.96 M101.108 1182.26 Q106.918 1182.26 109.973 1186.86 Q113.052 1191.45 113.052 1200.2 Q113.052 1208.92 109.973 1213.53 Q106.918 1218.11 101.108 1218.11 Q95.2974 1218.11 92.2188 1213.53 Q89.1632 1208.92 89.1632 1200.2 Q89.1632 1191.45 92.2188 1186.86 Q95.2974 1182.26 101.108 1182.26 Z" fill="#000000" fill-rule="evenodd" fill-opacity="1" /><path clip-path="url(#clip110)" d="M121.27 1211.56 L126.154 1211.56 L126.154 1217.44 L121.27 1217.44 L121.27 1211.56 Z" fill="#000000" fill-rule="evenodd" fill-opacity="1" /><path clip-path="url(#clip110)" d="M136.478 1216.72 L136.478 1212.46 Q138.237 1213.3 140.043 1213.74 Q141.848 1214.18 143.584 1214.18 Q148.214 1214.18 150.644 1211.08 Q153.098 1207.95 153.445 1201.61 Q152.103 1203.6 150.043 1204.66 Q147.982 1205.73 145.482 1205.73 Q140.297 1205.73 137.265 1202.6 Q134.256 1199.46 134.256 1194.02 Q134.256 1188.69 137.404 1185.47 Q140.552 1182.26 145.783 1182.26 Q151.779 1182.26 154.927 1186.86 Q158.098 1191.45 158.098 1200.2 Q158.098 1208.37 154.209 1213.25 Q150.343 1218.11 143.793 1218.11 Q142.033 1218.11 140.228 1217.77 Q138.422 1217.42 136.478 1216.72 M145.783 1202.07 Q148.931 1202.07 150.76 1199.92 Q152.612 1197.77 152.612 1194.02 Q152.612 1190.29 150.76 1188.14 Q148.931 1185.96 145.783 1185.96 Q142.635 1185.96 140.783 1188.14 Q138.955 1190.29 138.955 1194.02 Q138.955 1197.77 140.783 1199.92 Q142.635 1202.07 145.783 1202.07 Z" fill="#000000" fill-rule="evenodd" fill-opacity="1" /><path clip-path="url(#clip110)" d="M50.9921 968.546 L80.6679 968.546 L80.6679 972.481 L50.9921 972.481 L50.9921 968.546 Z" fill="#000000" fill-rule="evenodd" fill-opacity="1" /><path clip-path="url(#clip110)" d="M100.76 953.893 Q97.1493 953.893 95.3206 957.458 Q93.515 960.999 93.515 968.129 Q93.515 975.235 95.3206 978.8 Q97.1493 982.342 100.76 982.342 Q104.395 982.342 106.2 978.8 Q108.029 975.235 108.029 968.129 Q108.029 960.999 106.2 957.458 Q104.395 953.893 100.76 953.893 M100.76 950.189 Q106.571 950.189 109.626 954.796 Q112.705 959.379 112.705 968.129 Q112.705 976.856 109.626 981.462 Q106.571 986.046 100.76 986.046 Q94.9502 986.046 91.8715 981.462 Q88.816 976.856 88.816 968.129 Q88.816 959.379 91.8715 954.796 Q94.9502 950.189 100.76 950.189 Z" fill="#000000" fill-rule="evenodd" fill-opacity="1" /><path clip-path="url(#clip110)" d="M120.922 979.495 L125.807 979.495 L125.807 985.374 L120.922 985.374 L120.922 979.495 Z" fill="#000000" fill-rule="evenodd" fill-opacity="1" /><path clip-path="url(#clip110)" d="M146.57 966.231 Q143.422 966.231 141.57 968.384 Q139.742 970.536 139.742 974.286 Q139.742 978.013 141.57 980.189 Q143.422 982.342 146.57 982.342 Q149.718 982.342 151.547 980.189 Q153.399 978.013 153.399 974.286 Q153.399 970.536 151.547 968.384 Q149.718 966.231 146.57 966.231 M155.853 951.578 L155.853 955.837 Q154.093 955.004 152.288 954.564 Q150.505 954.124 148.746 954.124 Q144.117 954.124 141.663 957.249 Q139.232 960.374 138.885 966.694 Q140.251 964.68 142.311 963.615 Q144.371 962.527 146.848 962.527 Q152.056 962.527 155.066 965.698 Q158.098 968.847 158.098 974.286 Q158.098 979.61 154.95 982.828 Q151.802 986.046 146.57 986.046 Q140.575 986.046 137.404 981.462 Q134.232 976.856 134.232 968.129 Q134.232 959.935 138.121 955.073 Q142.01 950.189 148.561 950.189 Q150.32 950.189 152.103 950.536 Q153.908 950.884 155.853 951.578 Z" fill="#000000" fill-rule="evenodd" fill-opacity="1" /><path clip-path="url(#clip110)" d="M51.8023 736.478 L81.4781 736.478 L81.4781 740.413 L51.8023 740.413 L51.8023 736.478 Z" fill="#000000" fill-rule="evenodd" fill-opacity="1" /><path clip-path="url(#clip110)" d="M101.571 721.825 Q97.9595 721.825 96.1308 725.39 Q94.3252 728.932 94.3252 736.061 Q94.3252 743.168 96.1308 746.733 Q97.9595 750.274 101.571 750.274 Q105.205 750.274 107.01 746.733 Q108.839 743.168 108.839 736.061 Q108.839 728.932 107.01 725.39 Q105.205 721.825 101.571 721.825 M101.571 718.122 Q107.381 718.122 110.436 722.728 Q113.515 727.311 113.515 736.061 Q113.515 744.788 110.436 749.395 Q107.381 753.978 101.571 753.978 Q95.7604 753.978 92.6817 749.395 Q89.6262 744.788 89.6262 736.061 Q89.6262 727.311 92.6817 722.728 Q95.7604 718.122 101.571 718.122 Z" fill="#000000" fill-rule="evenodd" fill-opacity="1" /><path clip-path="url(#clip110)" d="M121.732 747.427 L126.617 747.427 L126.617 753.307 L121.732 753.307 L121.732 747.427 Z" fill="#000000" fill-rule="evenodd" fill-opacity="1" /><path clip-path="url(#clip110)" d="M150.968 734.673 Q154.325 735.39 156.2 737.659 Q158.098 739.927 158.098 743.26 Q158.098 748.376 154.58 751.177 Q151.061 753.978 144.58 753.978 Q142.404 753.978 140.089 753.538 Q137.797 753.121 135.344 752.265 L135.344 747.751 Q137.288 748.885 139.603 749.464 Q141.918 750.043 144.441 750.043 Q148.839 750.043 151.13 748.307 Q153.445 746.571 153.445 743.26 Q153.445 740.205 151.293 738.492 Q149.163 736.756 145.343 736.756 L141.316 736.756 L141.316 732.913 L145.529 732.913 Q148.978 732.913 150.806 731.548 Q152.635 730.159 152.635 727.566 Q152.635 724.904 150.737 723.492 Q148.862 722.057 145.343 722.057 Q143.422 722.057 141.223 722.473 Q139.024 722.89 136.385 723.77 L136.385 719.603 Q139.047 718.862 141.362 718.492 Q143.7 718.122 145.76 718.122 Q151.084 718.122 154.186 720.552 Q157.288 722.96 157.288 727.08 Q157.288 729.95 155.644 731.941 Q154.001 733.909 150.968 734.673 Z" fill="#000000" fill-rule="evenodd" fill-opacity="1" /><path clip-path="url(#clip110)" d="M100.922 489.758 Q97.3113 489.758 95.4826 493.323 Q93.6771 496.864 93.6771 503.994 Q93.6771 511.1 95.4826 514.665 Q97.3113 518.207 100.922 518.207 Q104.557 518.207 106.362 514.665 Q108.191 511.1 108.191 503.994 Q108.191 496.864 106.362 493.323 Q104.557 489.758 100.922 489.758 M100.922 486.054 Q106.733 486.054 109.788 490.661 Q112.867 495.244 112.867 503.994 Q112.867 512.721 109.788 517.327 Q106.733 521.91 100.922 521.91 Q95.1123 521.91 92.0336 517.327 Q88.978 512.721 88.978 503.994 Q88.978 495.244 92.0336 490.661 Q95.1123 486.054 100.922 486.054 Z" fill="#000000" fill-rule="evenodd" fill-opacity="1" /><path clip-path="url(#clip110)" d="M121.084 515.359 L125.969 515.359 L125.969 521.239 L121.084 521.239 L121.084 515.359 Z" fill="#000000" fill-rule="evenodd" fill-opacity="1" /><path clip-path="url(#clip110)" d="M146.154 489.758 Q142.543 489.758 140.714 493.323 Q138.908 496.864 138.908 503.994 Q138.908 511.1 140.714 514.665 Q142.543 518.207 146.154 518.207 Q149.788 518.207 151.593 514.665 Q153.422 511.1 153.422 503.994 Q153.422 496.864 151.593 493.323 Q149.788 489.758 146.154 489.758 M146.154 486.054 Q151.964 486.054 155.019 490.661 Q158.098 495.244 158.098 503.994 Q158.098 512.721 155.019 517.327 Q151.964 521.91 146.154 521.91 Q140.343 521.91 137.265 517.327 Q134.209 512.721 134.209 503.994 Q134.209 495.244 137.265 490.661 Q140.343 486.054 146.154 486.054 Z" fill="#000000" fill-rule="evenodd" fill-opacity="1" /><path clip-path="url(#clip110)" d="M101.571 257.69 Q97.9595 257.69 96.1308 261.255 Q94.3252 264.797 94.3252 271.926 Q94.3252 279.033 96.1308 282.597 Q97.9595 286.139 101.571 286.139 Q105.205 286.139 107.01 282.597 Q108.839 279.033 108.839 271.926 Q108.839 264.797 107.01 261.255 Q105.205 257.69 101.571 257.69 M101.571 253.987 Q107.381 253.987 110.436 258.593 Q113.515 263.176 113.515 271.926 Q113.515 280.653 110.436 285.26 Q107.381 289.843 101.571 289.843 Q95.7604 289.843 92.6817 285.26 Q89.6262 280.653 89.6262 271.926 Q89.6262 263.176 92.6817 258.593 Q95.7604 253.987 101.571 253.987 Z" fill="#000000" fill-rule="evenodd" fill-opacity="1" /><path clip-path="url(#clip110)" d="M121.732 283.292 L126.617 283.292 L126.617 289.172 L121.732 289.172 L121.732 283.292 Z" fill="#000000" fill-rule="evenodd" fill-opacity="1" /><path clip-path="url(#clip110)" d="M150.968 270.537 Q154.325 271.255 156.2 273.523 Q158.098 275.792 158.098 279.125 Q158.098 284.241 154.58 287.042 Q151.061 289.843 144.58 289.843 Q142.404 289.843 140.089 289.403 Q137.797 288.986 135.344 288.13 L135.344 283.616 Q137.288 284.75 139.603 285.329 Q141.918 285.908 144.441 285.908 Q148.839 285.908 151.13 284.172 Q153.445 282.435 153.445 279.125 Q153.445 276.07 151.293 274.357 Q149.163 272.621 145.343 272.621 L141.316 272.621 L141.316 268.778 L145.529 268.778 Q148.978 268.778 150.806 267.412 Q152.635 266.023 152.635 263.431 Q152.635 260.769 150.737 259.357 Q148.862 257.922 145.343 257.922 Q143.422 257.922 141.223 258.338 Q139.024 258.755 136.385 259.635 L136.385 255.468 Q139.047 254.727 141.362 254.357 Q143.7 253.987 145.76 253.987 Q151.084 253.987 154.186 256.417 Q157.288 258.824 157.288 262.945 Q157.288 265.815 155.644 267.806 Q154.001 269.773 150.968 270.537 Z" fill="#000000" fill-rule="evenodd" fill-opacity="1" /><polyline clip-path="url(#clip112)" style="stroke:#009af9; stroke-linecap:butt; stroke-linejoin:round; stroke-width:4; stroke-opacity:1; fill:none" points="
  194.098,503.959 196.259,503.973 198.42,504.015 200.58,504.085 202.741,504.182 204.902,504.307 207.063,504.46 209.224,504.641 211.385,504.849 213.545,505.085 
  215.706,505.349 217.867,505.64 220.028,505.958 222.189,506.303 224.349,506.676 226.51,507.075 228.671,507.502 230.832,507.956 232.993,508.436 235.154,508.944 
  237.314,509.478 239.475,510.038 241.636,510.625 243.797,511.238 245.958,511.878 248.119,512.543 250.279,513.235 252.44,513.953 254.601,514.696 256.762,515.465 
  258.923,516.26 261.083,517.08 263.244,517.925 265.405,518.796 267.566,519.691 269.727,520.612 271.888,521.557 274.048,522.528 276.209,523.522 278.37,524.541 
  280.531,525.585 282.692,526.652 284.852,527.744 287.013,528.86 289.174,529.999 291.335,531.162 293.496,532.348 295.657,533.558 297.817,534.791 299.978,536.047 
  302.139,537.325 304.3,538.627 306.461,539.951 308.621,541.298 310.782,542.667 312.943,544.058 315.104,545.471 317.265,546.906 319.426,548.362 321.586,549.841 
  323.747,551.34 325.908,552.861 328.069,554.403 330.23,555.966 332.39,557.549 334.551,559.153 336.712,560.778 338.873,562.423 341.034,564.088 343.195,565.773 
  345.355,567.477 347.516,569.202 349.677,570.946 351.838,572.709 353.999,574.491 356.159,576.292 358.32,578.113 360.481,579.951 362.642,581.809 364.803,583.684 
  366.964,585.578 369.124,587.49 371.285,589.419 373.446,591.366 375.607,593.331 377.768,595.313 379.928,597.312 382.089,599.328 384.25,601.361 386.411,603.41 
  388.572,605.476 390.733,607.559 392.893,609.657 395.054,611.771 397.215,613.902 399.376,616.047 401.537,618.208 403.697,620.385 405.858,622.576 408.019,624.783 
  410.18,627.004 412.341,629.24 414.502,631.49 416.662,633.754 418.823,636.033 420.984,638.325 423.145,640.631 425.306,642.951 427.466,645.284 429.627,647.63 
  431.788,649.989 433.949,652.361 436.11,654.746 438.271,657.143 440.431,659.553 442.592,661.975 444.753,664.408 446.914,666.854 449.075,669.311 451.235,671.78 
  453.396,674.26 455.557,676.751 457.718,679.253 459.879,681.766 462.04,684.29 464.2,686.824 466.361,689.368 468.522,691.922 470.683,694.487 472.844,697.061 
  475.004,699.645 477.165,702.238 479.326,704.84 481.487,707.452 483.648,710.072 485.809,712.701 487.969,715.339 490.13,717.985 492.291,720.64 494.452,723.303 
  496.613,725.973 498.773,728.651 500.934,731.337 503.095,734.031 505.256,736.731 507.417,739.439 509.578,742.153 511.738,744.875 513.899,747.603 516.06,750.337 
  518.221,753.078 520.382,755.825 522.542,758.578 524.703,761.336 526.864,764.1 529.025,766.87 531.186,769.645 533.347,772.425 535.507,775.211 537.668,778.001 
  539.829,780.795 541.99,783.595 544.151,786.398 546.311,789.206 548.472,792.018 550.633,794.834 552.794,797.654 554.955,800.477 557.116,803.303 559.276,806.133 
  561.437,808.966 563.598,811.802 565.759,814.641 567.92,817.483 570.08,820.327 572.241,823.173 574.402,826.022 576.563,828.873 578.724,831.726 580.885,834.58 
  583.045,837.436 585.206,840.294 587.367,843.153 589.528,846.014 591.689,848.875 593.849,851.737 596.01,854.6 598.171,857.464 600.332,860.328 602.493,863.193 
  604.654,866.058 606.814,868.923 608.975,871.787 611.136,874.652 613.297,877.516 615.458,880.38 617.618,883.244 619.779,886.106 621.94,888.968 624.101,891.829 
  626.262,894.688 628.423,897.546 630.583,900.403 632.744,903.259 634.905,906.112 637.066,908.964 639.227,911.814 641.388,914.662 643.548,917.508 645.709,920.352 
  647.87,923.193 650.031,926.032 652.192,928.868 654.352,931.701 656.513,934.531 658.674,937.358 660.835,940.182 662.996,943.003 665.157,945.821 667.317,948.635 
  669.478,951.445 671.639,954.251 673.8,957.054 675.961,959.853 678.121,962.648 680.282,965.438 682.443,968.224 684.604,971.006 686.765,973.783 688.926,976.556 
  691.086,979.324 693.247,982.087 695.408,984.845 697.569,987.598 699.73,990.346 701.89,993.088 704.051,995.825 706.212,998.557 708.373,1001.28 710.534,1004 
  712.695,1006.72 714.855,1009.43 717.016,1012.13 719.177,1014.83 721.338,1017.52 723.499,1020.2 725.659,1022.88 727.82,1025.55 729.981,1028.22 732.142,1030.87 
  734.303,1033.52 736.464,1036.17 738.624,1038.81 740.785,1041.44 742.946,1044.06 745.107,1046.68 747.268,1049.29 749.428,1051.89 751.589,1054.48 753.75,1057.07 
  755.911,1059.65 758.072,1062.22 760.233,1064.78 762.393,1067.34 764.554,1069.89 766.715,1072.43 768.876,1074.96 771.037,1077.48 773.197,1080 775.358,1082.5 
  777.519,1085 779.68,1087.49 781.841,1089.97 784.002,1092.45 786.162,1094.91 788.323,1097.37 790.484,1099.81 792.645,1102.25 794.806,1104.68 796.966,1107.1 
  799.127,1109.51 801.288,1111.91 803.449,1114.3 805.61,1116.68 807.771,1119.06 809.931,1121.42 812.092,1123.78 814.253,1126.12 816.414,1128.46 818.575,1130.78 
  820.735,1133.1 822.896,1135.4 825.057,1137.7 827.218,1139.99 829.379,1142.26 831.54,1144.53 833.7,1146.79 835.861,1149.03 838.022,1151.27 840.183,1153.49 
  842.344,1155.71 844.504,1157.92 846.665,1160.11 848.826,1162.3 850.987,1164.47 853.148,1166.63 855.309,1168.79 857.469,1170.93 859.63,1173.06 861.791,1175.18 
  863.952,1177.29 866.113,1179.39 868.273,1181.48 870.434,1183.56 872.595,1185.63 874.756,1187.69 876.917,1189.73 879.078,1191.77 881.238,1193.79 883.399,1195.8 
  885.56,1197.8 887.721,1199.79 889.882,1201.77 892.042,1203.74 894.203,1205.7 896.364,1207.65 898.525,1209.58 900.686,1211.5 902.847,1213.42 905.007,1215.32 
  907.168,1217.21 909.329,1219.09 911.49,1220.95 913.651,1222.81 915.811,1224.65 917.972,1226.48 920.133,1228.31 922.294,1230.12 924.455,1231.91 926.616,1233.7 
  928.776,1235.48 930.937,1237.24 933.098,1238.99 935.259,1240.73 937.42,1242.46 939.58,1244.18 941.741,1245.88 943.902,1247.58 946.063,1249.26 948.224,1250.93 
  950.385,1252.59 952.545,1254.24 954.706,1255.87 956.867,1257.5 959.028,1259.11 961.189,1260.71 963.349,1262.3 965.51,1263.88 967.671,1265.44 969.832,1267 
  971.993,1268.54 974.154,1270.07 976.314,1271.59 978.475,1273.1 980.636,1274.59 982.797,1276.08 984.958,1277.55 987.118,1279.01 989.279,1280.46 991.44,1281.9 
  993.601,1283.32 995.762,1284.74 997.923,1286.14 1000.08,1287.53 1002.24,1288.91 1004.41,1290.28 1006.57,1291.63 1008.73,1292.98 1010.89,1294.31 1013.05,1295.63 
  1015.21,1296.94 1017.37,1298.24 1019.53,1299.53 1021.69,1300.8 1023.85,1302.06 1026.01,1303.32 1028.17,1304.56 1030.33,1305.79 1032.5,1307 1034.66,1308.21 
  1036.82,1309.41 1038.98,1310.59 1041.14,1311.76 1043.3,1312.92 1045.46,1314.07 1047.62,1315.21 1049.78,1316.34 1051.94,1317.45 1054.1,1318.56 1056.26,1319.65 
  1058.43,1320.74 1060.59,1321.81 1062.75,1322.87 1064.91,1323.92 1067.07,1324.96 1069.23,1325.98 1071.39,1327 1073.55,1328 1075.71,1329 1077.87,1329.98 
  1080.03,1330.96 1082.19,1331.92 1084.36,1332.87 1086.52,1333.81 1088.68,1334.74 1090.84,1335.66 1093,1336.57 1095.16,1337.46 1097.32,1338.35 1099.48,1339.23 
  1101.64,1340.09 1103.8,1340.95 1105.96,1341.8 1108.12,1342.63 1110.29,1343.46 1112.45,1344.27 1114.61,1345.07 1116.77,1345.87 1118.93,1346.65 1121.09,1347.43 
  1123.25,1348.19 1125.41,1348.94 1127.57,1349.69 1129.73,1350.42 1131.89,1351.15 1134.05,1351.86 1136.21,1352.56 1138.38,1353.26 1140.54,1353.94 1142.7,1354.62 
  1144.86,1355.28 1147.02,1355.94 1149.18,1356.59 1151.34,1357.22 1153.5,1357.85 1155.66,1358.47 1157.82,1359.08 1159.98,1359.68 1162.14,1360.27 1164.31,1360.85 
  1166.47,1361.43 1168.63,1361.99 1170.79,1362.54 1172.95,1363.09 1175.11,1363.63 1177.27,1364.16 1179.43,1364.67 1181.59,1365.19 1183.75,1365.69 1185.91,1366.18 
  1188.07,1366.67 1190.24,1367.14 1192.4,1367.61 1194.56,1368.07 1196.72,1368.52 1198.88,1368.97 1201.04,1369.4 1203.2,1369.83 1205.36,1370.25 1207.52,1370.66 
  1209.68,1371.06 1211.84,1371.46 1214,1371.85 1216.17,1372.23 1218.33,1372.6 1220.49,1372.97 1222.65,1373.32 1224.81,1373.67 1226.97,1374.02 1229.13,1374.35 
  1231.29,1374.68 1233.45,1375 1235.61,1375.32 1237.77,1375.62 1239.93,1375.92 1242.1,1376.22 1244.26,1376.5 1246.42,1376.78 1248.58,1377.06 1250.74,1377.32 
  1252.9,1377.58 1255.06,1377.84 1257.22,1378.08 1259.38,1378.32 1261.54,1378.56 1263.7,1378.79 1265.86,1379.01 1268.02,1379.22 1270.19,1379.44 1272.35,1379.64 
  1274.51,1379.84 1276.67,1380.03 1278.83,1380.22 1280.99,1380.4 1283.15,1380.58 1285.31,1380.75 1287.47,1380.91 1289.63,1381.07 1291.79,1381.23 1293.95,1381.38 
  1296.12,1381.53 1298.28,1381.67 1300.44,1381.8 1302.6,1381.93 1304.76,1382.06 1306.92,1382.18 1309.08,1382.3 1311.24,1382.41 1313.4,1382.52 1315.56,1382.62 
  1317.72,1382.72 1319.88,1382.82 1322.05,1382.91 1324.21,1382.99 1326.37,1383.08 1328.53,1383.16 1330.69,1383.23 1332.85,1383.31 1335.01,1383.37 1337.17,1383.44 
  1339.33,1383.5 1341.49,1383.56 1343.65,1383.62 1345.81,1383.67 1347.98,1383.72 1350.14,1383.77 1352.3,1383.81 1354.46,1383.85 1356.62,1383.89 1358.78,1383.92 
  1360.94,1383.96 1363.1,1383.99 1365.26,1384.02 1367.42,1384.04 1369.58,1384.07 1371.74,1384.09 1373.91,1384.11 1376.07,1384.13 1378.23,1384.14 1380.39,1384.16 
  1382.55,1384.17 1384.71,1384.18 1386.87,1384.19 1389.03,1384.2 1391.19,1384.21 1393.35,1384.22 1395.51,1384.22 1397.67,1384.23 1399.83,1384.23 1402,1384.23 
  1404.16,1384.23 1406.32,1384.24 1408.48,1384.24 1410.64,1384.24 1412.8,1384.24 1414.96,1384.24 1417.12,1384.24 1419.28,1384.24 1421.44,1384.24 1423.6,1384.24 
  1425.76,1384.24 1427.93,1384.24 1430.09,1384.24 1432.25,1384.24 1434.41,1384.24 1436.57,1384.24 1438.73,1384.24 1440.89,1384.24 1443.05,1384.24 1445.21,1384.24 
  1447.37,1384.24 1449.53,1384.24 1451.69,1384.24 1453.86,1384.24 1456.02,1384.24 1458.18,1384.24 1460.34,1384.24 1462.5,1384.24 1464.66,1384.24 1466.82,1384.24 
  1468.98,1384.24 1471.14,1384.24 1473.3,1384.24 1475.46,1384.24 1477.62,1384.24 1479.79,1384.24 1481.95,1384.24 1484.11,1384.24 1486.27,1384.24 1488.43,1384.24 
  1490.59,1384.24 1492.75,1384.24 1494.91,1384.24 1497.07,1384.24 1499.23,1384.24 1501.39,1384.24 1503.55,1384.24 1505.71,1384.24 1507.88,1384.24 1510.04,1384.24 
  1512.2,1384.24 1514.36,1384.24 1516.52,1384.24 1518.68,1384.24 1520.84,1384.24 1523,1384.24 1525.16,1384.24 1527.32,1384.24 1529.48,1384.24 1531.64,1384.24 
  1533.81,1384.24 1535.97,1384.24 1538.13,1384.24 1540.29,1384.24 1542.45,1384.24 1544.61,1384.24 1546.77,1384.24 1548.93,1384.24 1551.09,1384.24 1553.25,1384.24 
  1555.41,1384.24 1557.57,1384.24 1559.74,1384.24 1561.9,1384.24 1564.06,1384.24 1566.22,1384.24 1568.38,1384.24 1570.54,1384.24 1572.7,1384.24 1574.86,1384.24 
  1577.02,1384.24 1579.18,1384.24 1581.34,1384.24 1583.5,1384.24 1585.67,1384.24 1587.83,1384.24 1589.99,1384.24 1592.15,1384.23 1594.31,1384.23 1596.47,1384.23 
  1598.63,1384.23 1600.79,1384.23 1602.95,1384.23 1605.11,1384.23 1607.27,1384.23 1609.43,1384.23 1611.6,1384.23 1613.76,1384.23 1615.92,1384.23 1618.08,1384.23 
  1620.24,1384.23 1622.4,1384.23 1624.56,1384.23 1626.72,1384.23 1628.88,1384.23 1631.04,1384.23 1633.2,1384.23 1635.36,1384.23 1637.52,1384.23 1639.69,1384.23 
  1641.85,1384.23 1644.01,1384.23 1646.17,1384.23 1648.33,1384.23 1650.49,1384.23 1652.65,1384.23 1654.81,1384.23 1656.97,1384.23 1659.13,1384.23 1661.29,1384.23 
  1663.45,1384.23 1665.62,1384.23 1667.78,1384.23 1669.94,1384.23 1672.1,1384.23 1674.26,1384.23 1676.42,1384.23 1678.58,1384.23 1680.74,1384.23 1682.9,1384.23 
  1685.06,1384.23 1687.22,1384.23 1689.38,1384.23 1691.55,1384.23 1693.71,1384.23 1695.87,1384.23 1698.03,1384.23 1700.19,1384.23 1702.35,1384.23 1704.51,1384.23 
  1706.67,1384.23 1708.83,1384.23 1710.99,1384.23 1713.15,1384.23 1715.31,1384.23 1717.48,1384.23 1719.64,1384.23 1721.8,1384.23 1723.96,1384.23 1726.12,1384.23 
  1728.28,1384.23 1730.44,1384.23 1732.6,1384.23 1734.76,1384.23 1736.92,1384.23 1739.08,1384.23 1741.24,1384.23 1743.41,1384.23 1745.57,1384.23 1747.73,1384.23 
  1749.89,1384.23 1752.05,1384.23 1754.21,1384.23 1756.37,1384.23 1758.53,1384.23 1760.69,1384.23 1762.85,1384.23 1765.01,1384.23 1767.17,1384.23 1769.33,1384.23 
  1771.5,1384.23 1773.66,1384.23 1775.82,1384.23 1777.98,1384.23 1780.14,1384.23 1782.3,1384.23 1784.46,1384.23 1786.62,1384.23 1788.78,1384.23 1790.94,1384.23 
  1793.1,1384.23 1795.26,1384.23 1797.43,1384.23 1799.59,1384.23 1801.75,1384.23 1803.91,1384.23 1806.07,1384.23 1808.23,1384.23 1810.39,1384.23 1812.55,1384.23 
  1814.71,1384.23 1816.87,1384.23 1819.03,1384.23 1821.19,1384.23 1823.36,1384.23 1825.52,1384.23 1827.68,1384.23 1829.84,1384.23 1832,1384.23 1834.16,1384.23 
  1836.32,1384.23 1838.48,1384.23 1840.64,1384.23 1842.8,1384.23 1844.96,1384.23 1847.12,1384.23 1849.29,1384.23 1851.45,1384.23 1853.61,1384.23 1855.77,1384.23 
  1857.93,1384.23 1860.09,1384.23 1862.25,1384.23 1864.41,1384.23 1866.57,1384.23 1868.73,1384.23 1870.89,1384.23 1873.05,1384.23 1875.21,1384.23 1877.38,1384.23 
  1879.54,1384.23 1881.7,1384.23 1883.86,1384.23 1886.02,1384.23 1888.18,1384.23 1890.34,1384.23 1892.5,1384.23 1894.66,1384.23 1896.82,1384.23 1898.98,1384.23 
  1901.14,1384.23 1903.31,1384.23 1905.47,1384.23 1907.63,1384.23 1909.79,1384.23 1911.95,1384.23 1914.11,1384.23 1916.27,1384.23 1918.43,1384.23 1920.59,1384.23 
  1922.75,1384.23 1924.91,1384.23 1927.07,1384.23 1929.24,1384.23 1931.4,1384.23 1933.56,1384.23 1935.72,1384.23 1937.88,1384.23 1940.04,1384.23 1942.2,1384.23 
  1944.36,1384.23 1946.52,1384.23 1948.68,1384.23 1950.84,1384.23 1953,1384.23 1955.17,1384.23 1957.33,1384.23 1959.49,1384.23 1961.65,1384.23 1963.81,1384.23 
  1965.97,1384.23 1968.13,1384.23 1970.29,1384.23 1972.45,1384.23 1974.61,1384.23 1976.77,1384.23 1978.93,1384.23 1981.1,1384.23 1983.26,1384.23 1985.42,1384.23 
  1987.58,1384.23 1989.74,1384.23 1991.9,1384.23 1994.06,1384.23 1996.22,1384.23 1998.38,1384.23 2000.54,1384.23 2002.7,1384.23 2004.86,1384.23 2007.02,1384.23 
  2009.19,1384.23 2011.35,1384.23 2013.51,1384.23 2015.67,1384.23 2017.83,1384.23 2019.99,1384.22 2022.15,1384.22 2024.31,1384.22 2026.47,1384.22 2028.63,1384.22 
  2030.79,1384.22 2032.95,1384.22 2035.12,1384.22 2037.28,1384.22 2039.44,1384.22 2041.6,1384.22 2043.76,1384.22 2045.92,1384.22 2048.08,1384.22 2050.24,1384.22 
  2052.4,1384.22 2054.56,1384.22 2056.72,1384.22 2058.88,1384.22 2061.05,1384.22 2063.21,1384.22 2065.37,1384.22 2067.53,1384.22 2069.69,1384.22 2071.85,1384.22 
  2074.01,1384.22 2076.17,1384.22 2078.33,1384.22 2080.49,1384.22 2082.65,1384.22 2084.81,1384.22 2086.98,1384.22 2089.14,1384.22 2091.3,1384.22 2093.46,1384.22 
  2095.62,1384.22 2097.78,1384.22 2099.94,1384.22 2102.1,1384.22 2104.26,1384.22 2106.42,1384.22 2108.58,1384.22 2110.74,1384.22 2112.91,1384.22 2115.07,1384.22 
  2117.23,1384.22 2119.39,1384.22 2121.55,1384.22 2123.71,1384.22 2125.87,1384.22 2128.03,1384.22 2130.19,1384.22 2132.35,1384.22 2134.51,1384.22 2136.67,1384.22 
  2138.83,1384.22 2141,1384.22 2143.16,1384.22 2145.32,1384.22 2147.48,1384.22 2149.64,1384.22 2151.8,1384.22 2153.96,1384.22 2156.12,1384.22 2158.28,1384.22 
  2160.44,1384.22 2162.6,1384.22 2164.76,1384.22 2166.93,1384.22 2169.09,1384.22 2171.25,1384.22 2173.41,1384.22 2175.57,1384.22 2177.73,1384.22 2179.89,1384.22 
  2182.05,1384.22 2184.21,1384.22 2186.37,1384.22 2188.53,1384.22 2190.69,1384.22 2192.86,1384.22 2195.02,1384.22 2197.18,1384.22 2199.34,1384.22 2201.5,1384.22 
  2203.66,1384.22 2205.82,1384.22 2207.98,1384.22 2210.14,1384.22 2212.3,1384.22 2214.46,1384.22 2216.62,1384.22 2218.79,1384.22 2220.95,1384.22 2223.11,1384.22 
  2225.27,1384.22 2227.43,1384.22 2229.59,1384.22 2231.75,1384.22 2233.91,1384.22 2236.07,1384.22 2238.23,1384.22 2240.39,1384.22 2242.55,1384.22 2244.71,1384.22 
  2246.88,1384.22 2249.04,1384.22 2251.2,1384.22 2253.36,1384.22 2255.52,1384.22 2257.68,1384.22 2259.84,1384.22 2262,1384.22 2264.16,1384.22 2266.32,1384.22 
  2268.48,1384.22 2270.64,1384.22 2272.81,1384.22 2274.97,1384.22 2277.13,1384.22 2279.29,1384.22 2281.45,1384.22 2283.61,1384.22 2285.77,1384.22 2287.93,1384.22 
  2290.09,1384.22 2292.25,1384.22 2294.41,1384.22 2296.57,1384.22 2298.74,1384.22 2300.9,1384.22 2303.06,1384.22 2305.22,1384.22 2307.38,1384.22 2309.54,1384.22 
  2311.7,1384.22 2313.86,1384.22 2316.02,1384.22 2318.18,1384.22 2320.34,1384.22 2322.5,1384.22 2324.67,1384.22 2326.83,1384.22 2328.99,1384.22 2331.15,1384.22 
  2333.31,1384.22 2335.47,1384.22 2337.63,1384.22 2339.79,1384.22 2341.95,1384.22 2344.11,1384.22 2346.27,1384.22 2348.43,1384.22 2350.6,1384.22 2352.76,1384.22 
  
  "/>
<polyline clip-path="url(#clip112)" style="stroke:#e26f46; stroke-linecap:butt; stroke-linejoin:round; stroke-width:4; stroke-opacity:1; fill:none" points="
  194.098,503.959 196.259,508.604 198.42,513.245 200.58,517.881 202.741,522.51 204.902,527.132 207.063,531.745 209.224,536.349 211.385,540.943 213.545,545.526 
  215.706,550.098 217.867,554.657 220.028,559.204 222.189,563.738 224.349,568.259 226.51,572.765 228.671,577.257 230.832,581.734 232.993,586.195 235.154,590.641 
  237.314,595.07 239.475,599.482 241.636,603.877 243.797,608.255 245.958,612.616 248.119,616.958 250.279,621.281 252.44,625.586 254.601,629.872 256.762,634.138 
  258.923,638.385 261.083,642.611 263.244,646.818 265.405,651.003 267.566,655.168 269.727,659.312 271.888,663.434 274.048,667.535 276.209,671.614 278.37,675.671 
  280.531,679.706 282.692,683.718 284.852,687.707 287.013,691.674 289.174,695.617 291.335,699.537 293.496,703.433 295.657,707.306 297.817,711.154 299.978,714.979 
  302.139,718.779 304.3,722.554 306.461,726.305 308.621,730.032 310.782,733.733 312.943,737.409 315.104,741.06 317.265,744.685 319.426,748.285 321.586,751.859 
  323.747,755.407 325.908,758.929 328.069,762.425 330.23,765.895 332.39,769.339 334.551,772.756 336.712,776.146 338.873,779.51 341.034,782.847 343.195,786.157 
  345.355,789.44 347.516,792.696 349.677,795.925 351.838,799.126 353.999,802.3 356.159,805.447 358.32,808.566 360.481,811.658 362.642,814.722 364.803,817.758 
  366.964,820.766 369.124,823.746 371.285,826.699 373.446,829.623 375.607,832.519 377.768,835.388 379.928,838.227 382.089,841.039 384.25,843.823 386.411,846.578 
  388.572,849.305 390.733,852.003 392.893,854.673 395.054,857.315 397.215,859.928 399.376,862.512 401.537,865.068 403.697,867.595 405.858,870.094 408.019,872.564 
  410.18,875.006 412.341,877.418 414.502,879.803 416.662,882.158 418.823,884.485 420.984,886.783 423.145,889.052 425.306,891.293 427.466,893.505 429.627,895.689 
  431.788,897.843 433.949,899.969 436.11,902.067 438.271,904.135 440.431,906.175 442.592,908.187 444.753,910.17 446.914,912.124 449.075,914.049 451.235,915.947 
  453.396,917.815 455.557,919.655 457.718,921.467 459.879,923.25 462.04,925.005 464.2,926.731 466.361,928.429 468.522,930.099 470.683,931.74 472.844,933.354 
  475.004,934.939 477.165,936.496 479.326,938.025 481.487,939.526 483.648,940.998 485.809,942.443 487.969,943.86 490.13,945.25 492.291,946.611 494.452,947.945 
  496.613,949.251 498.773,950.529 500.934,951.78 503.095,953.004 505.256,954.2 507.417,955.368 509.578,956.51 511.738,957.624 513.899,958.711 516.06,959.771 
  518.221,960.804 520.382,961.81 522.542,962.789 524.703,963.741 526.864,964.667 529.025,965.566 531.186,966.439 533.347,967.285 535.507,968.104 537.668,968.898 
  539.829,969.665 541.99,970.406 544.151,971.121 546.311,971.81 548.472,972.474 550.633,973.111 552.794,973.723 554.955,974.309 557.116,974.87 559.276,975.405 
  561.437,975.916 563.598,976.4 565.759,976.86 567.92,977.295 570.08,977.705 572.241,978.09 574.402,978.451 576.563,978.786 578.724,979.098 580.885,979.385 
  583.045,979.648 585.206,979.886 587.367,980.101 589.528,980.291 591.689,980.458 593.849,980.601 596.01,980.72 598.171,980.816 600.332,980.888 602.493,980.938 
  604.654,980.964 606.814,980.966 608.975,980.947 611.136,980.904 613.297,980.838 615.458,980.75 617.618,980.64 619.779,980.507 621.94,980.352 624.101,980.174 
  626.262,979.975 628.423,979.754 630.583,979.511 632.744,979.247 634.905,978.961 637.066,978.654 639.227,978.326 641.388,977.976 643.548,977.605 645.709,977.214 
  647.87,976.802 650.031,976.369 652.192,975.916 654.352,975.443 656.513,974.949 658.674,974.435 660.835,973.901 662.996,973.348 665.157,972.774 667.317,972.182 
  669.478,971.569 671.639,970.938 673.8,970.287 675.961,969.618 678.121,968.929 680.282,968.222 682.443,967.496 684.604,966.752 686.765,965.989 688.926,965.208 
  691.086,964.409 693.247,963.592 695.408,962.758 697.569,961.905 699.73,961.035 701.89,960.148 704.051,959.244 706.212,958.322 708.373,957.384 710.534,956.428 
  712.695,955.457 714.855,954.468 717.016,953.463 719.177,952.442 721.338,951.405 723.499,950.351 725.659,949.282 727.82,948.198 729.981,947.097 732.142,945.982 
  734.303,944.851 736.464,943.705 738.624,942.544 740.785,941.368 742.946,940.177 745.107,938.972 747.268,937.753 749.428,936.519 751.589,935.271 753.75,934.009 
  755.911,932.733 758.072,931.444 760.233,930.141 762.393,928.825 764.554,927.495 766.715,926.153 768.876,924.797 771.037,923.429 773.197,922.048 775.358,920.654 
  777.519,919.248 779.68,917.83 781.841,916.399 784.002,914.957 786.162,913.503 788.323,912.037 790.484,910.56 792.645,909.071 794.806,907.571 796.966,906.06 
  799.127,904.538 801.288,903.005 803.449,901.462 805.61,899.908 807.771,898.343 809.931,896.769 812.092,895.184 814.253,893.59 816.414,891.985 818.575,890.371 
  820.735,888.748 822.896,887.115 825.057,885.473 827.218,883.822 829.379,882.161 831.54,880.493 833.7,878.815 835.861,877.129 838.022,875.434 840.183,873.732 
  842.344,872.021 844.504,870.302 846.665,868.576 848.826,866.842 850.987,865.1 853.148,863.351 855.309,861.595 857.469,859.831 859.63,858.061 861.791,856.284 
  863.952,854.5 866.113,852.71 868.273,850.913 870.434,849.11 872.595,847.301 874.756,845.485 876.917,843.665 879.078,841.838 881.238,840.006 883.399,838.168 
  885.56,836.325 887.721,834.477 889.882,832.624 892.042,830.766 894.203,828.903 896.364,827.036 898.525,825.164 900.686,823.288 902.847,821.407 905.007,819.523 
  907.168,817.634 909.329,815.742 911.49,813.846 913.651,811.947 915.811,810.044 917.972,808.138 920.133,806.229 922.294,804.317 924.455,802.402 926.616,800.484 
  928.776,798.563 930.937,796.641 933.098,794.715 935.259,792.788 937.42,790.858 939.58,788.927 941.741,786.994 943.902,785.058 946.063,783.122 948.224,781.184 
  950.385,779.244 952.545,777.304 954.706,775.362 956.867,773.42 959.028,771.476 961.189,769.532 963.349,767.587 965.51,765.642 967.671,763.697 969.832,761.751 
  971.993,759.806 974.154,757.86 976.314,755.915 978.475,753.969 980.636,752.025 982.797,750.08 984.958,748.137 987.118,746.194 989.279,744.252 991.44,742.311 
  993.601,740.372 995.762,738.433 997.923,736.496 1000.08,734.561 1002.24,732.627 1004.41,730.694 1006.57,728.764 1008.73,726.836 1010.89,724.909 1013.05,722.985 
  1015.21,721.063 1017.37,719.144 1019.53,717.227 1021.69,715.312 1023.85,713.401 1026.01,711.492 1028.17,709.587 1030.33,707.684 1032.5,705.785 1034.66,703.888 
  1036.82,701.996 1038.98,700.107 1041.14,698.221 1043.3,696.339 1045.46,694.461 1047.62,692.588 1049.78,690.718 1051.94,688.852 1054.1,686.991 1056.26,685.134 
  1058.43,683.281 1060.59,681.433 1062.75,679.59 1064.91,677.751 1067.07,675.918 1069.23,674.089 1071.39,672.266 1073.55,670.448 1075.71,668.635 1077.87,666.828 
  1080.03,665.026 1082.19,663.229 1084.36,661.439 1086.52,659.654 1088.68,657.875 1090.84,656.102 1093,654.335 1095.16,652.575 1097.32,650.82 1099.48,649.073 
  1101.64,647.331 1103.8,645.596 1105.96,643.868 1108.12,642.147 1110.29,640.432 1112.45,638.725 1114.61,637.024 1116.77,635.331 1118.93,633.645 1121.09,631.966 
  1123.25,630.295 1125.41,628.631 1127.57,626.974 1129.73,625.326 1131.89,623.685 1134.05,622.052 1136.21,620.427 1138.38,618.81 1140.54,617.201 1142.7,615.6 
  1144.86,614.008 1147.02,612.424 1149.18,610.848 1151.34,609.281 1153.5,607.723 1155.66,606.173 1157.82,604.632 1159.98,603.1 1162.14,601.577 1164.31,600.063 
  1166.47,598.558 1168.63,597.062 1170.79,595.576 1172.95,594.099 1175.11,592.631 1177.27,591.173 1179.43,589.725 1181.59,588.286 1183.75,586.856 1185.91,585.437 
  1188.07,584.028 1190.24,582.628 1192.4,581.239 1194.56,579.86 1196.72,578.491 1198.88,577.132 1201.04,575.783 1203.2,574.445 1205.36,573.118 1207.52,571.801 
  1209.68,570.494 1211.84,569.199 1214,567.914 1216.17,566.64 1218.33,565.376 1220.49,564.124 1222.65,562.883 1224.81,561.653 1226.97,560.434 1229.13,559.227 
  1231.29,558.031 1233.45,556.846 1235.61,555.672 1237.77,554.51 1239.93,553.36 1242.1,552.222 1244.26,551.095 1246.42,549.98 1248.58,548.876 1250.74,547.785 
  1252.9,546.705 1255.06,545.638 1257.22,544.583 1259.38,543.54 1261.54,542.509 1263.7,541.49 1265.86,540.484 1268.02,539.49 1270.19,538.509 1272.35,537.54 
  1274.51,536.583 1276.67,535.64 1278.83,534.709 1280.99,533.79 1283.15,532.885 1285.31,531.992 1287.47,531.113 1289.63,530.246 1291.79,529.393 1293.95,528.552 
  1296.12,527.725 1298.28,526.911 1300.44,526.11 1302.6,525.322 1304.76,524.548 1306.92,523.787 1309.08,523.04 1311.24,522.306 1313.4,521.586 1315.56,520.879 
  1317.72,520.186 1319.88,519.507 1322.05,518.842 1324.21,518.19 1326.37,517.553 1328.53,516.929 1330.69,516.319 1332.85,515.724 1335.01,515.142 1337.17,514.575 
  1339.33,514.022 1341.49,513.483 1343.65,512.959 1345.81,512.448 1347.98,511.951 1350.14,511.469 1352.3,511.001 1354.46,510.548 1356.62,510.109 1358.78,509.685 
  1360.94,509.277 1363.1,508.883 1365.26,508.505 1367.42,508.142 1369.58,507.794 1371.74,507.461 1373.91,507.143 1376.07,506.84 1378.23,506.551 1380.39,506.277 
  1382.55,506.017 1384.71,505.772 1386.87,505.543 1389.03,505.329 1391.19,505.131 1393.35,504.948 1395.51,504.781 1397.67,504.629 1399.83,504.492 1402,504.371 
  1404.16,504.265 1406.32,504.175 1408.48,504.097 1410.64,504.04 1412.8,504.003 1414.96,503.971 1417.12,503.966 1419.28,503.957 1421.44,503.953 1423.6,503.953 
  1425.76,503.953 1427.93,503.953 1430.09,503.953 1432.25,503.953 1434.41,503.953 1436.57,503.953 1438.73,503.953 1440.89,503.953 1443.05,503.953 1445.21,503.953 
  1447.37,503.953 1449.53,503.953 1451.69,503.953 1453.86,503.953 1456.02,503.952 1458.18,503.952 1460.34,503.952 1462.5,503.952 1464.66,503.952 1466.82,503.952 
  1468.98,503.952 1471.14,503.952 1473.3,503.952 1475.46,503.952 1477.62,503.952 1479.79,503.952 1481.95,503.952 1484.11,503.952 1486.27,503.952 1488.43,503.952 
  1490.59,503.952 1492.75,503.952 1494.91,503.952 1497.07,503.952 1499.23,503.952 1501.39,503.952 1503.55,503.952 1505.71,503.952 1507.88,503.952 1510.04,503.952 
  1512.2,503.952 1514.36,503.952 1516.52,503.952 1518.68,503.952 1520.84,503.952 1523,503.952 1525.16,503.952 1527.32,503.952 1529.48,503.952 1531.64,503.952 
  1533.81,503.952 1535.97,503.952 1538.13,503.952 1540.29,503.952 1542.45,503.952 1544.61,503.952 1546.77,503.952 1548.93,503.952 1551.09,503.952 1553.25,503.952 
  1555.41,503.952 1557.57,503.952 1559.74,503.952 1561.9,503.952 1564.06,503.952 1566.22,503.952 1568.38,503.952 1570.54,503.952 1572.7,503.952 1574.86,503.952 
  1577.02,503.952 1579.18,503.952 1581.34,503.952 1583.5,503.952 1585.67,503.952 1587.83,503.952 1589.99,503.952 1592.15,503.952 1594.31,503.952 1596.47,503.952 
  1598.63,503.952 1600.79,503.952 1602.95,503.952 1605.11,503.952 1607.27,503.952 1609.43,503.952 1611.6,503.952 1613.76,503.952 1615.92,503.952 1618.08,503.952 
  1620.24,503.952 1622.4,503.952 1624.56,503.952 1626.72,503.952 1628.88,503.952 1631.04,503.952 1633.2,503.952 1635.36,503.952 1637.52,503.952 1639.69,503.952 
  1641.85,503.952 1644.01,503.952 1646.17,503.952 1648.33,503.951 1650.49,503.951 1652.65,503.951 1654.81,503.951 1656.97,503.951 1659.13,503.951 1661.29,503.951 
  1663.45,503.951 1665.62,503.951 1667.78,503.951 1669.94,503.951 1672.1,503.951 1674.26,503.951 1676.42,503.951 1678.58,503.951 1680.74,503.951 1682.9,503.951 
  1685.06,503.951 1687.22,503.951 1689.38,503.951 1691.55,503.951 1693.71,503.951 1695.87,503.951 1698.03,503.951 1700.19,503.951 1702.35,503.951 1704.51,503.951 
  1706.67,503.951 1708.83,503.951 1710.99,503.951 1713.15,503.951 1715.31,503.951 1717.48,503.951 1719.64,503.951 1721.8,503.951 1723.96,503.951 1726.12,503.951 
  1728.28,503.951 1730.44,503.951 1732.6,503.951 1734.76,503.951 1736.92,503.951 1739.08,503.951 1741.24,503.951 1743.41,503.951 1745.57,503.951 1747.73,503.951 
  1749.89,503.951 1752.05,503.951 1754.21,503.951 1756.37,503.951 1758.53,503.951 1760.69,503.951 1762.85,503.951 1765.01,503.951 1767.17,503.951 1769.33,503.951 
  1771.5,503.951 1773.66,503.951 1775.82,503.951 1777.98,503.951 1780.14,503.951 1782.3,503.951 1784.46,503.951 1786.62,503.951 1788.78,503.951 1790.94,503.951 
  1793.1,503.951 1795.26,503.951 1797.43,503.951 1799.59,503.951 1801.75,503.951 1803.91,503.951 1806.07,503.951 1808.23,503.951 1810.39,503.951 1812.55,503.951 
  1814.71,503.951 1816.87,503.951 1819.03,503.951 1821.19,503.951 1823.36,503.951 1825.52,503.951 1827.68,503.951 1829.84,503.951 1832,503.951 1834.16,503.951 
  1836.32,503.951 1838.48,503.95 1840.64,503.95 1842.8,503.95 1844.96,503.95 1847.12,503.95 1849.29,503.95 1851.45,503.95 1853.61,503.95 1855.77,503.95 
  1857.93,503.95 1860.09,503.95 1862.25,503.95 1864.41,503.95 1866.57,503.95 1868.73,503.95 1870.89,503.95 1873.05,503.95 1875.21,503.95 1877.38,503.95 
  1879.54,503.95 1881.7,503.95 1883.86,503.95 1886.02,503.95 1888.18,503.95 1890.34,503.95 1892.5,503.95 1894.66,503.95 1896.82,503.95 1898.98,503.95 
  1901.14,503.95 1903.31,503.95 1905.47,503.95 1907.63,503.95 1909.79,503.95 1911.95,503.95 1914.11,503.95 1916.27,503.95 1918.43,503.95 1920.59,503.95 
  1922.75,503.95 1924.91,503.95 1927.07,503.95 1929.24,503.95 1931.4,503.95 1933.56,503.95 1935.72,503.95 1937.88,503.95 1940.04,503.95 1942.2,503.95 
  1944.36,503.95 1946.52,503.95 1948.68,503.95 1950.84,503.95 1953,503.95 1955.17,503.95 1957.33,503.95 1959.49,503.95 1961.65,503.95 1963.81,503.95 
  1965.97,503.95 1968.13,503.95 1970.29,503.95 1972.45,503.95 1974.61,503.95 1976.77,503.95 1978.93,503.95 1981.1,503.95 1983.26,503.95 1985.42,503.95 
  1987.58,503.95 1989.74,503.95 1991.9,503.95 1994.06,503.95 1996.22,503.95 1998.38,503.95 2000.54,503.95 2002.7,503.95 2004.86,503.95 2007.02,503.95 
  2009.19,503.95 2011.35,503.95 2013.51,503.95 2015.67,503.95 2017.83,503.95 2019.99,503.95 2022.15,503.95 2024.31,503.95 2026.47,503.95 2028.63,503.95 
  2030.79,503.949 2032.95,503.949 2035.12,503.949 2037.28,503.949 2039.44,503.949 2041.6,503.949 2043.76,503.949 2045.92,503.949 2048.08,503.949 2050.24,503.949 
  2052.4,503.949 2054.56,503.949 2056.72,503.949 2058.88,503.949 2061.05,503.949 2063.21,503.949 2065.37,503.949 2067.53,503.949 2069.69,503.949 2071.85,503.949 
  2074.01,503.949 2076.17,503.949 2078.33,503.949 2080.49,503.949 2082.65,503.949 2084.81,503.949 2086.98,503.949 2089.14,503.949 2091.3,503.949 2093.46,503.949 
  2095.62,503.949 2097.78,503.949 2099.94,503.949 2102.1,503.949 2104.26,503.949 2106.42,503.949 2108.58,503.949 2110.74,503.949 2112.91,503.949 2115.07,503.949 
  2117.23,503.949 2119.39,503.949 2121.55,503.949 2123.71,503.949 2125.87,503.949 2128.03,503.949 2130.19,503.949 2132.35,503.949 2134.51,503.949 2136.67,503.949 
  2138.83,503.949 2141,503.949 2143.16,503.949 2145.32,503.949 2147.48,503.949 2149.64,503.949 2151.8,503.949 2153.96,503.949 2156.12,503.949 2158.28,503.949 
  2160.44,503.949 2162.6,503.949 2164.76,503.949 2166.93,503.949 2169.09,503.949 2171.25,503.949 2173.41,503.949 2175.57,503.949 2177.73,503.949 2179.89,503.949 
  2182.05,503.949 2184.21,503.949 2186.37,503.949 2188.53,503.949 2190.69,503.949 2192.86,503.949 2195.02,503.949 2197.18,503.949 2199.34,503.949 2201.5,503.949 
  2203.66,503.949 2205.82,503.949 2207.98,503.949 2210.14,503.949 2212.3,503.949 2214.46,503.949 2216.62,503.949 2218.79,503.949 2220.95,503.949 2223.11,503.948 
  2225.27,503.948 2227.43,503.948 2229.59,503.948 2231.75,503.948 2233.91,503.948 2236.07,503.948 2238.23,503.948 2240.39,503.948 2242.55,503.948 2244.71,503.948 
  2246.88,503.948 2249.04,503.948 2251.2,503.948 2253.36,503.948 2255.52,503.948 2257.68,503.948 2259.84,503.948 2262,503.948 2264.16,503.948 2266.32,503.948 
  2268.48,503.948 2270.64,503.948 2272.81,503.948 2274.97,503.948 2277.13,503.948 2279.29,503.948 2281.45,503.948 2283.61,503.948 2285.77,503.948 2287.93,503.948 
  2290.09,503.948 2292.25,503.948 2294.41,503.948 2296.57,503.948 2298.74,503.948 2300.9,503.948 2303.06,503.948 2305.22,503.948 2307.38,503.948 2309.54,503.948 
  2311.7,503.948 2313.86,503.948 2316.02,503.948 2318.18,503.948 2320.34,503.948 2322.5,503.948 2324.67,503.948 2326.83,503.948 2328.99,503.948 2331.15,503.948 
  2333.31,503.948 2335.47,503.948 2337.63,503.948 2339.79,503.948 2341.95,503.948 2344.11,503.948 2346.27,503.948 2348.43,503.948 2350.6,503.948 2352.76,503.948 
  
  "/>
<polyline clip-path="url(#clip112)" style="stroke:#3da44d; stroke-linecap:butt; stroke-linejoin:round; stroke-width:4; stroke-opacity:1; fill:none" points="
  194.098,503.959 196.259,503.945 198.42,503.903 200.58,503.834 202.741,503.736 204.902,503.611 207.063,503.459 209.224,503.279 211.385,503.071 213.545,502.837 
  215.706,502.575 217.867,502.286 220.028,501.971 222.189,501.629 224.349,501.26 226.51,500.865 228.671,500.444 230.832,499.997 232.993,499.524 235.154,499.026 
  237.314,498.502 239.475,497.953 241.636,497.379 243.797,496.78 245.958,496.156 248.119,495.508 250.279,494.835 252.44,494.139 254.601,493.419 256.762,492.675 
  258.923,491.908 261.083,491.118 263.244,490.305 265.405,489.469 267.566,488.611 269.727,487.731 271.888,486.828 274.048,485.904 276.209,484.959 278.37,483.992 
  280.531,483.004 282.692,481.995 284.852,480.966 287.013,479.917 289.174,478.848 291.335,477.759 293.496,476.65 295.657,475.522 297.817,474.376 299.978,473.21 
  302.139,472.026 304.3,470.824 306.461,469.604 308.621,468.366 310.782,467.111 312.943,465.838 315.104,464.549 317.265,463.243 319.426,461.921 321.586,460.582 
  323.747,459.228 325.908,457.858 328.069,456.472 330.23,455.072 332.39,453.657 334.551,452.227 336.712,450.783 338.873,449.325 341.034,447.853 343.195,446.368 
  345.355,444.869 347.516,443.358 349.677,441.833 351.838,440.297 353.999,438.748 356.159,437.187 358.32,435.614 360.481,434.031 362.642,432.435 364.803,430.83 
  366.964,429.213 369.124,427.586 371.285,425.949 373.446,424.302 375.607,422.645 377.768,420.979 379.928,419.304 382.089,417.62 384.25,415.928 386.411,414.227 
  388.572,412.518 390.733,410.801 392.893,409.076 395.054,407.344 397.215,405.605 399.376,403.859 401.537,402.106 403.697,400.347 405.858,398.582 408.019,396.811 
  410.18,395.034 412.341,393.251 414.502,391.463 416.662,389.671 418.823,387.873 420.984,386.071 423.145,384.264 425.306,382.454 427.466,380.639 429.627,378.821 
  431.788,377 433.949,375.175 436.11,373.347 438.271,371.516 440.431,369.683 442.592,367.847 444.753,366.009 446.914,364.17 449.075,362.328 451.235,360.485 
  453.396,358.64 455.557,356.795 457.718,354.948 459.879,353.101 462.04,351.253 464.2,349.404 466.361,347.556 468.522,345.707 470.683,343.859 472.844,342.011 
  475.004,340.164 477.165,338.317 479.326,336.471 481.487,334.627 483.648,332.783 485.809,330.941 487.969,329.101 490.13,327.263 492.291,325.426 494.452,323.592 
  496.613,321.76 498.773,319.93 500.934,318.103 503.095,316.279 505.256,314.457 507.417,312.639 509.578,310.824 511.738,309.012 513.899,307.204 516.06,305.4 
  518.221,303.599 520.382,301.802 522.542,300.01 524.703,298.222 526.864,296.438 529.025,294.658 531.186,292.883 533.347,291.113 535.507,289.348 537.668,287.588 
  539.829,285.833 541.99,284.084 544.151,282.339 546.311,280.601 548.472,278.867 550.633,277.14 552.794,275.419 554.955,273.703 557.116,271.994 559.276,270.29 
  561.437,268.593 563.598,266.903 565.759,265.219 567.92,263.541 570.08,261.87 572.241,260.206 574.402,258.549 576.563,256.899 578.724,255.256 580.885,253.62 
  583.045,251.991 585.206,250.37 587.367,248.756 589.528,247.149 591.689,245.55 593.849,243.959 596.01,242.375 598.171,240.799 600.332,239.231 602.493,237.671 
  604.654,236.119 606.814,234.575 608.975,233.039 611.136,231.511 613.297,229.992 615.458,228.481 617.618,226.978 619.779,225.483 621.94,223.997 624.101,222.52 
  626.262,221.051 628.423,219.591 630.583,218.139 632.744,216.696 634.905,215.262 637.066,213.837 639.227,212.42 641.388,211.012 643.548,209.614 645.709,208.224 
  647.87,206.843 650.031,205.471 652.192,204.108 654.352,202.755 656.513,201.41 658.674,200.075 660.835,198.748 662.996,197.431 665.157,196.123 667.317,194.824 
  669.478,193.535 671.639,192.255 673.8,190.984 675.961,189.722 678.121,188.47 680.282,187.227 682.443,185.993 684.604,184.769 686.765,183.554 688.926,182.348 
  691.086,181.152 693.247,179.965 695.408,178.787 697.569,177.619 699.73,176.46 701.89,175.311 704.051,174.171 706.212,173.04 708.373,171.918 710.534,170.806 
  712.695,169.704 714.855,168.61 717.016,167.526 719.177,166.452 721.338,165.386 723.499,164.33 725.659,163.283 727.82,162.246 729.981,161.218 732.142,160.199 
  734.303,159.189 736.464,158.188 738.624,157.197 740.785,156.215 742.946,155.242 745.107,154.278 747.268,153.323 749.428,152.377 751.589,151.441 753.75,150.513 
  755.911,149.595 758.072,148.685 760.233,147.784 762.393,146.893 764.554,146.01 766.715,145.136 768.876,144.271 771.037,143.414 773.197,142.567 775.358,141.728 
  777.519,140.898 779.68,140.077 781.841,139.264 784.002,138.46 786.162,137.664 788.323,136.877 790.484,136.098 792.645,135.328 794.806,134.567 796.966,133.813 
  799.127,133.068 801.288,132.332 803.449,131.603 805.61,130.883 807.771,130.171 809.931,129.467 812.092,128.771 814.253,128.083 816.414,127.403 818.575,126.732 
  820.735,126.068 822.896,125.412 825.057,124.763 827.218,124.123 829.379,123.49 831.54,122.865 833.7,122.247 835.861,121.637 838.022,121.035 840.183,120.44 
  842.344,119.853 844.504,119.273 846.665,118.7 848.826,118.135 850.987,117.576 853.148,117.025 855.309,116.481 857.469,115.945 859.63,115.415 861.791,114.892 
  863.952,114.376 866.113,113.867 868.273,113.365 870.434,112.87 872.595,112.381 874.756,111.899 876.917,111.424 879.078,110.955 881.238,110.492 883.399,110.037 
  885.56,109.587 887.721,109.144 889.882,108.707 892.042,108.277 894.203,107.852 896.364,107.434 898.525,107.022 900.686,106.616 902.847,106.216 905.007,105.822 
  907.168,105.433 909.329,105.051 911.49,104.674 913.651,104.303 915.811,103.937 917.972,103.578 920.133,103.223 922.294,102.874 924.455,102.531 926.616,102.193 
  928.776,101.861 930.937,101.533 933.098,101.211 935.259,100.894 937.42,100.582 939.58,100.275 941.741,99.9736 943.902,99.6767 946.063,99.3848 948.224,99.0977 
  950.385,98.8155 952.545,98.5379 954.706,98.2651 956.867,97.9969 959.028,97.7332 961.189,97.4742 963.349,97.2196 965.51,96.9694 967.671,96.7236 969.832,96.4822 
  971.993,96.245 974.154,96.012 976.314,95.7833 978.475,95.5586 980.636,95.3381 982.797,95.1215 984.958,94.909 987.118,94.7003 989.279,94.4956 991.44,94.2947 
  993.601,94.0975 995.762,93.9041 997.923,93.7144 1000.08,93.5283 1002.24,93.3457 1004.41,93.1668 1006.57,92.9913 1008.73,92.8192 1010.89,92.6506 1013.05,92.4853 
  1015.21,92.3233 1017.37,92.1646 1019.53,92.0091 1021.69,91.8568 1023.85,91.7075 1026.01,91.5614 1028.17,91.4183 1030.33,91.2782 1032.5,91.141 1034.66,91.0067 
  1036.82,90.8753 1038.98,90.7467 1041.14,90.6209 1043.3,90.4978 1045.46,90.3774 1047.62,90.2596 1049.78,90.1445 1051.94,90.0319 1054.1,89.9218 1056.26,89.8143 
  1058.43,89.7091 1060.59,89.6064 1062.75,89.506 1064.91,89.408 1067.07,89.3123 1069.23,89.2188 1071.39,89.1275 1073.55,89.0384 1075.71,88.9514 1077.87,88.8665 
  1080.03,88.7837 1082.19,88.7029 1084.36,88.6241 1086.52,88.5473 1088.68,88.4723 1090.84,88.3993 1093,88.3281 1095.16,88.2587 1097.32,88.1912 1099.48,88.1253 
  1101.64,88.0612 1103.8,87.9988 1105.96,87.938 1108.12,87.8788 1110.29,87.8213 1112.45,87.7653 1114.61,87.7108 1116.77,87.6578 1118.93,87.6063 1121.09,87.5562 
  1123.25,87.5075 1125.41,87.4602 1127.57,87.4143 1129.73,87.3696 1131.89,87.3263 1134.05,87.2842 1136.21,87.2434 1138.38,87.2038 1140.54,87.1654 1142.7,87.1281 
  1144.86,87.0919 1147.02,87.0569 1149.18,87.023 1151.34,86.9901 1153.5,86.9582 1155.66,86.9274 1157.82,86.8975 1159.98,86.8686 1162.14,86.8406 1164.31,86.8136 
  1166.47,86.7875 1168.63,86.7622 1170.79,86.7378 1172.95,86.7142 1175.11,86.6914 1177.27,86.6694 1179.43,86.6481 1181.59,86.6277 1183.75,86.6079 1185.91,86.5889 
  1188.07,86.5705 1190.24,86.5528 1192.4,86.5358 1194.56,86.5194 1196.72,86.5036 1198.88,86.4884 1201.04,86.4738 1203.2,86.4598 1205.36,86.4463 1207.52,86.4334 
  1209.68,86.421 1211.84,86.409 1214,86.3976 1216.17,86.3866 1218.33,86.3761 1220.49,86.366 1222.65,86.3564 1224.81,86.3472 1226.97,86.3383 1229.13,86.3299 
  1231.29,86.3219 1233.45,86.3142 1235.61,86.3068 1237.77,86.2998 1239.93,86.2931 1242.1,86.2868 1244.26,86.2807 1246.42,86.275 1248.58,86.2695 1250.74,86.2643 
  1252.9,86.2593 1255.06,86.2546 1257.22,86.2502 1259.38,86.2459 1261.54,86.2419 1263.7,86.2382 1265.86,86.2346 1268.02,86.2312 1270.19,86.228 1272.35,86.225 
  1274.51,86.2222 1276.67,86.2195 1278.83,86.217 1280.99,86.2146 1283.15,86.2124 1285.31,86.2103 1287.47,86.2084 1289.63,86.2066 1291.79,86.2049 1293.95,86.2033 
  1296.12,86.2018 1298.28,86.2004 1300.44,86.1991 1302.6,86.1979 1304.76,86.1968 1306.92,86.1958 1309.08,86.1948 1311.24,86.194 1313.4,86.1932 1315.56,86.1924 
  1317.72,86.1917 1319.88,86.1911 1322.05,86.1905 1324.21,86.19 1326.37,86.1895 1328.53,86.1891 1330.69,86.1887 1332.85,86.1883 1335.01,86.188 1337.17,86.1877 
  1339.33,86.1875 1341.49,86.1872 1343.65,86.187 1345.81,86.1868 1347.98,86.1867 1350.14,86.1865 1352.3,86.1864 1354.46,86.1863 1356.62,86.1862 1358.78,86.1861 
  1360.94,86.186 1363.1,86.186 1365.26,86.1859 1367.42,86.1859 1369.58,86.1858 1371.74,86.1858 1373.91,86.1858 1376.07,86.1857 1378.23,86.1857 1380.39,86.1857 
  1382.55,86.1857 1384.71,86.1857 1386.87,86.1857 1389.03,86.1857 1391.19,86.1857 1393.35,86.1857 1395.51,86.1857 1397.67,86.1857 1399.83,86.1857 1402,86.1857 
  1404.16,86.1857 1406.32,86.1857 1408.48,86.1857 1410.64,86.1857 1412.8,86.1857 1414.96,86.1857 1417.12,86.1857 1419.28,86.1857 1421.44,86.1857 1423.6,86.1857 
  1425.76,86.1857 1427.93,86.1857 1430.09,86.1857 1432.25,86.1857 1434.41,86.1857 1436.57,86.1857 1438.73,86.1857 1440.89,86.1857 1443.05,86.1857 1445.21,86.1857 
  1447.37,86.1857 1449.53,86.1857 1451.69,86.1857 1453.86,86.1857 1456.02,86.1857 1458.18,86.1857 1460.34,86.1857 1462.5,86.1857 1464.66,86.1857 1466.82,86.1857 
  1468.98,86.1857 1471.14,86.1857 1473.3,86.1857 1475.46,86.1857 1477.62,86.1857 1479.79,86.1857 1481.95,86.1857 1484.11,86.1857 1486.27,86.1857 1488.43,86.1857 
  1490.59,86.1857 1492.75,86.1857 1494.91,86.1857 1497.07,86.1857 1499.23,86.1857 1501.39,86.1857 1503.55,86.1857 1505.71,86.1857 1507.88,86.1857 1510.04,86.1857 
  1512.2,86.1857 1514.36,86.1857 1516.52,86.1857 1518.68,86.1857 1520.84,86.1857 1523,86.1857 1525.16,86.1857 1527.32,86.1857 1529.48,86.1857 1531.64,86.1857 
  1533.81,86.1857 1535.97,86.1857 1538.13,86.1857 1540.29,86.1857 1542.45,86.1857 1544.61,86.1857 1546.77,86.1857 1548.93,86.1857 1551.09,86.1857 1553.25,86.1857 
  1555.41,86.1857 1557.57,86.1857 1559.74,86.1857 1561.9,86.1857 1564.06,86.1857 1566.22,86.1857 1568.38,86.1857 1570.54,86.1857 1572.7,86.1857 1574.86,86.1857 
  1577.02,86.1857 1579.18,86.1857 1581.34,86.1857 1583.5,86.1857 1585.67,86.1857 1587.83,86.1857 1589.99,86.1857 1592.15,86.1857 1594.31,86.1857 1596.47,86.1857 
  1598.63,86.1857 1600.79,86.1857 1602.95,86.1857 1605.11,86.1857 1607.27,86.1857 1609.43,86.1857 1611.6,86.1857 1613.76,86.1857 1615.92,86.1857 1618.08,86.1857 
  1620.24,86.1857 1622.4,86.1857 1624.56,86.1857 1626.72,86.1857 1628.88,86.1857 1631.04,86.1857 1633.2,86.1857 1635.36,86.1857 1637.52,86.1857 1639.69,86.1857 
  1641.85,86.1857 1644.01,86.1857 1646.17,86.1857 1648.33,86.1857 1650.49,86.1857 1652.65,86.1857 1654.81,86.1857 1656.97,86.1857 1659.13,86.1857 1661.29,86.1857 
  1663.45,86.1857 1665.62,86.1857 1667.78,86.1857 1669.94,86.1857 1672.1,86.1857 1674.26,86.1857 1676.42,86.1857 1678.58,86.1857 1680.74,86.1857 1682.9,86.1857 
  1685.06,86.1857 1687.22,86.1857 1689.38,86.1857 1691.55,86.1857 1693.71,86.1857 1695.87,86.1857 1698.03,86.1857 1700.19,86.1857 1702.35,86.1857 1704.51,86.1857 
  1706.67,86.1857 1708.83,86.1857 1710.99,86.1857 1713.15,86.1857 1715.31,86.1857 1717.48,86.1857 1719.64,86.1857 1721.8,86.1857 1723.96,86.1857 1726.12,86.1857 
  1728.28,86.1857 1730.44,86.1857 1732.6,86.1857 1734.76,86.1857 1736.92,86.1857 1739.08,86.1857 1741.24,86.1857 1743.41,86.1857 1745.57,86.1857 1747.73,86.1857 
  1749.89,86.1857 1752.05,86.1857 1754.21,86.1857 1756.37,86.1857 1758.53,86.1857 1760.69,86.1857 1762.85,86.1857 1765.01,86.1857 1767.17,86.1857 1769.33,86.1857 
  1771.5,86.1857 1773.66,86.1857 1775.82,86.1857 1777.98,86.1857 1780.14,86.1857 1782.3,86.1857 1784.46,86.1857 1786.62,86.1857 1788.78,86.1857 1790.94,86.1857 
  1793.1,86.1857 1795.26,86.1857 1797.43,86.1857 1799.59,86.1857 1801.75,86.1857 1803.91,86.1857 1806.07,86.1857 1808.23,86.1857 1810.39,86.1857 1812.55,86.1857 
  1814.71,86.1857 1816.87,86.1857 1819.03,86.1857 1821.19,86.1857 1823.36,86.1857 1825.52,86.1857 1827.68,86.1857 1829.84,86.1857 1832,86.1857 1834.16,86.1857 
  1836.32,86.1857 1838.48,86.1857 1840.64,86.1857 1842.8,86.1857 1844.96,86.1857 1847.12,86.1857 1849.29,86.1857 1851.45,86.1857 1853.61,86.1857 1855.77,86.1857 
  1857.93,86.1857 1860.09,86.1857 1862.25,86.1857 1864.41,86.1857 1866.57,86.1857 1868.73,86.1857 1870.89,86.1857 1873.05,86.1857 1875.21,86.1857 1877.38,86.1857 
  1879.54,86.1857 1881.7,86.1857 1883.86,86.1857 1886.02,86.1857 1888.18,86.1857 1890.34,86.1857 1892.5,86.1857 1894.66,86.1857 1896.82,86.1857 1898.98,86.1857 
  1901.14,86.1857 1903.31,86.1857 1905.47,86.1857 1907.63,86.1857 1909.79,86.1857 1911.95,86.1857 1914.11,86.1857 1916.27,86.1857 1918.43,86.1857 1920.59,86.1857 
  1922.75,86.1857 1924.91,86.1857 1927.07,86.1857 1929.24,86.1857 1931.4,86.1857 1933.56,86.1857 1935.72,86.1857 1937.88,86.1857 1940.04,86.1857 1942.2,86.1857 
  1944.36,86.1857 1946.52,86.1857 1948.68,86.1857 1950.84,86.1857 1953,86.1857 1955.17,86.1857 1957.33,86.1857 1959.49,86.1857 1961.65,86.1857 1963.81,86.1857 
  1965.97,86.1857 1968.13,86.1857 1970.29,86.1857 1972.45,86.1857 1974.61,86.1857 1976.77,86.1857 1978.93,86.1857 1981.1,86.1857 1983.26,86.1857 1985.42,86.1857 
  1987.58,86.1857 1989.74,86.1857 1991.9,86.1857 1994.06,86.1857 1996.22,86.1857 1998.38,86.1857 2000.54,86.1857 2002.7,86.1857 2004.86,86.1857 2007.02,86.1857 
  2009.19,86.1857 2011.35,86.1857 2013.51,86.1857 2015.67,86.1857 2017.83,86.1857 2019.99,86.1857 2022.15,86.1857 2024.31,86.1857 2026.47,86.1857 2028.63,86.1857 
  2030.79,86.1857 2032.95,86.1857 2035.12,86.1857 2037.28,86.1857 2039.44,86.1857 2041.6,86.1857 2043.76,86.1857 2045.92,86.1857 2048.08,86.1857 2050.24,86.1857 
  2052.4,86.1857 2054.56,86.1857 2056.72,86.1857 2058.88,86.1857 2061.05,86.1857 2063.21,86.1857 2065.37,86.1857 2067.53,86.1857 2069.69,86.1857 2071.85,86.1857 
  2074.01,86.1857 2076.17,86.1857 2078.33,86.1857 2080.49,86.1857 2082.65,86.1857 2084.81,86.1857 2086.98,86.1857 2089.14,86.1857 2091.3,86.1857 2093.46,86.1857 
  2095.62,86.1857 2097.78,86.1857 2099.94,86.1857 2102.1,86.1857 2104.26,86.1857 2106.42,86.1857 2108.58,86.1857 2110.74,86.1857 2112.91,86.1857 2115.07,86.1857 
  2117.23,86.1857 2119.39,86.1857 2121.55,86.1857 2123.71,86.1857 2125.87,86.1857 2128.03,86.1857 2130.19,86.1857 2132.35,86.1857 2134.51,86.1857 2136.67,86.1857 
  2138.83,86.1857 2141,86.1857 2143.16,86.1857 2145.32,86.1857 2147.48,86.1857 2149.64,86.1857 2151.8,86.1857 2153.96,86.1857 2156.12,86.1857 2158.28,86.1857 
  2160.44,86.1857 2162.6,86.1857 2164.76,86.1857 2166.93,86.1857 2169.09,86.1857 2171.25,86.1857 2173.41,86.1857 2175.57,86.1857 2177.73,86.1857 2179.89,86.1857 
  2182.05,86.1857 2184.21,86.1857 2186.37,86.1857 2188.53,86.1857 2190.69,86.1857 2192.86,86.1857 2195.02,86.1857 2197.18,86.1857 2199.34,86.1857 2201.5,86.1857 
  2203.66,86.1857 2205.82,86.1857 2207.98,86.1857 2210.14,86.1857 2212.3,86.1857 2214.46,86.1857 2216.62,86.1857 2218.79,86.1857 2220.95,86.1857 2223.11,86.1857 
  2225.27,86.1857 2227.43,86.1857 2229.59,86.1857 2231.75,86.1857 2233.91,86.1857 2236.07,86.1857 2238.23,86.1857 2240.39,86.1857 2242.55,86.1857 2244.71,86.1857 
  2246.88,86.1857 2249.04,86.1857 2251.2,86.1857 2253.36,86.1857 2255.52,86.1857 2257.68,86.1857 2259.84,86.1857 2262,86.1857 2264.16,86.1857 2266.32,86.1857 
  2268.48,86.1857 2270.64,86.1857 2272.81,86.1857 2274.97,86.1857 2277.13,86.1857 2279.29,86.1857 2281.45,86.1857 2283.61,86.1857 2285.77,86.1857 2287.93,86.1857 
  2290.09,86.1857 2292.25,86.1857 2294.41,86.1857 2296.57,86.1857 2298.74,86.1857 2300.9,86.1857 2303.06,86.1857 2305.22,86.1857 2307.38,86.1857 2309.54,86.1857 
  2311.7,86.1857 2313.86,86.1857 2316.02,86.1857 2318.18,86.1857 2320.34,86.1857 2322.5,86.1857 2324.67,86.1857 2326.83,86.1857 2328.99,86.1857 2331.15,86.1857 
  2333.31,86.1857 2335.47,86.1857 2337.63,86.1857 2339.79,86.1857 2341.95,86.1857 2344.11,86.1857 2346.27,86.1857 2348.43,86.1857 2350.6,86.1857 2352.76,86.1857 
  
  "/>
<path clip-path="url(#clip110)" d="
M1943.38 300.469 L2280.8 300.469 L2280.8 93.1086 L1943.38 93.1086  Z
  " fill="#ffffff" fill-rule="evenodd" fill-opacity="1"/>
<polyline clip-path="url(#clip110)" style="stroke:#000000; stroke-linecap:butt; stroke-linejoin:round; stroke-width:4; stroke-opacity:1; fill:none" points="
  1943.38,300.469 2280.8,300.469 2280.8,93.1086 1943.38,93.1086 1943.38,300.469 
  "/>
<polyline clip-path="url(#clip110)" style="stroke:#009af9; stroke-linecap:butt; stroke-linejoin:round; stroke-width:4; stroke-opacity:1; fill:none" points="
  1967.37,144.949 2111.28,144.949 
  "/>
<path clip-path="url(#clip110)" d="M2135.26 127.669 L2155.12 127.669 L2155.12 131.604 L2139.94 131.604 L2139.94 141.789 L2153.64 141.789 L2153.64 145.724 L2139.94 145.724 L2139.94 162.229 L2135.26 162.229 L2135.26 127.669 Z" fill="#000000" fill-rule="evenodd" fill-opacity="1" /><path clip-path="url(#clip110)" d="M2172.58 126.257 Q2169.47 131.581 2167.97 136.789 Q2166.47 141.997 2166.47 147.344 Q2166.47 152.692 2167.97 157.946 Q2169.5 163.178 2172.58 168.479 L2168.87 168.479 Q2165.4 163.039 2163.66 157.784 Q2161.95 152.53 2161.95 147.344 Q2161.95 142.182 2163.66 136.951 Q2165.38 131.72 2168.87 126.257 L2172.58 126.257 Z" fill="#000000" fill-rule="evenodd" fill-opacity="1" /><path clip-path="url(#clip110)" d="M2194.06 126.21 L2194.06 135.77 Q2198.66 135.77 2201.74 139.312 Q2204.91 142.923 2204.91 149.289 Q2204.91 155.655 2201.74 159.266 Q2198.66 162.807 2194.06 162.807 L2194.06 172.09 L2189.82 172.09 L2189.82 162.807 Q2185.21 162.807 2182.11 159.266 Q2178.97 155.655 2178.97 149.289 Q2178.97 142.923 2182.11 139.312 Q2185.21 135.77 2189.82 135.77 L2189.82 126.21 L2194.06 126.21 M2194.06 159.011 Q2196.67 159.011 2198.46 156.627 Q2200.4 153.965 2200.42 149.289 Q2200.45 144.659 2198.46 141.951 Q2196.67 139.567 2194.06 139.567 L2194.06 159.011 M2189.82 159.011 L2189.82 139.567 Q2187.21 139.567 2185.45 141.951 Q2183.43 144.659 2183.46 149.289 Q2183.48 153.965 2185.45 156.627 Q2187.21 159.011 2189.82 159.011 Z" fill="#000000" fill-rule="evenodd" fill-opacity="1" /><path clip-path="url(#clip110)" d="M2211.44 126.257 L2215.15 126.257 Q2218.62 131.72 2220.33 136.951 Q2222.07 142.182 2222.07 147.344 Q2222.07 152.53 2220.33 157.784 Q2218.62 163.039 2215.15 168.479 L2211.44 168.479 Q2214.52 163.178 2216.03 157.946 Q2217.55 152.692 2217.55 147.344 Q2217.55 141.997 2216.03 136.789 Q2214.52 131.581 2211.44 126.257 Z" fill="#000000" fill-rule="evenodd" fill-opacity="1" /><polyline clip-path="url(#clip110)" style="stroke:#e26f46; stroke-linecap:butt; stroke-linejoin:round; stroke-width:4; stroke-opacity:1; fill:none" points="
  1967.37,196.789 2111.28,196.789 
  "/>
<path clip-path="url(#clip110)" d="M2135.26 179.509 L2155.12 179.509 L2155.12 183.444 L2139.94 183.444 L2139.94 193.629 L2153.64 193.629 L2153.64 197.564 L2139.94 197.564 L2139.94 214.069 L2135.26 214.069 L2135.26 179.509 Z" fill="#000000" fill-rule="evenodd" fill-opacity="1" /><path clip-path="url(#clip110)" d="M2158.8 188.143 L2162.81 179.509 L2167.51 179.509 L2160.82 188.143 L2158.8 188.143 Z" fill="#000000" fill-rule="evenodd" fill-opacity="1" /><path clip-path="url(#clip110)" d="M2183.34 178.097 Q2180.24 183.421 2178.73 188.629 Q2177.23 193.837 2177.23 199.184 Q2177.23 204.532 2178.73 209.786 Q2180.26 215.018 2183.34 220.319 L2179.64 220.319 Q2176.16 214.879 2174.43 209.624 Q2172.72 204.37 2172.72 199.184 Q2172.72 194.022 2174.43 188.791 Q2176.14 183.56 2179.64 178.097 L2183.34 178.097 Z" fill="#000000" fill-rule="evenodd" fill-opacity="1" /><path clip-path="url(#clip110)" d="M2204.82 178.05 L2204.82 187.61 Q2209.43 187.61 2212.51 191.152 Q2215.68 194.763 2215.68 201.129 Q2215.68 207.495 2212.51 211.106 Q2209.43 214.647 2204.82 214.647 L2204.82 223.93 L2200.59 223.93 L2200.59 214.647 Q2195.98 214.647 2192.88 211.106 Q2189.73 207.495 2189.73 201.129 Q2189.73 194.763 2192.88 191.152 Q2195.98 187.61 2200.59 187.61 L2200.59 178.05 L2204.82 178.05 M2204.82 210.851 Q2207.44 210.851 2209.22 208.467 Q2211.16 205.805 2211.19 201.129 Q2211.21 196.499 2209.22 193.791 Q2207.44 191.407 2204.82 191.407 L2204.82 210.851 M2200.59 210.851 L2200.59 191.407 Q2197.97 191.407 2196.21 193.791 Q2194.2 196.499 2194.22 201.129 Q2194.24 205.805 2196.21 208.467 Q2197.97 210.851 2200.59 210.851 Z" fill="#000000" fill-rule="evenodd" fill-opacity="1" /><path clip-path="url(#clip110)" d="M2222.21 178.097 L2225.91 178.097 Q2229.38 183.56 2231.09 188.791 Q2232.83 194.022 2232.83 199.184 Q2232.83 204.37 2231.09 209.624 Q2229.38 214.879 2225.91 220.319 L2222.21 220.319 Q2225.28 215.018 2226.79 209.786 Q2228.32 204.532 2228.32 199.184 Q2228.32 193.837 2226.79 188.629 Q2225.28 183.421 2222.21 178.097 Z" fill="#000000" fill-rule="evenodd" fill-opacity="1" /><polyline clip-path="url(#clip110)" style="stroke:#3da44d; stroke-linecap:butt; stroke-linejoin:round; stroke-width:4; stroke-opacity:1; fill:none" points="
  1967.37,248.629 2111.28,248.629 
  "/>
<path clip-path="url(#clip110)" d="M2135.26 231.349 L2139.94 231.349 L2139.94 265.909 L2135.26 265.909 L2135.26 231.349 Z" fill="#000000" fill-rule="evenodd" fill-opacity="1" /><path clip-path="url(#clip110)" d="M2159.29 229.937 Q2156.19 235.261 2154.68 240.469 Q2153.18 245.677 2153.18 251.024 Q2153.18 256.372 2154.68 261.626 Q2156.21 266.858 2159.29 272.159 L2155.59 272.159 Q2152.11 266.719 2150.38 261.464 Q2148.66 256.21 2148.66 251.024 Q2148.66 245.862 2150.38 240.631 Q2152.09 235.4 2155.59 229.937 L2159.29 229.937 Z" fill="#000000" fill-rule="evenodd" fill-opacity="1" /><path clip-path="url(#clip110)" d="M2180.77 229.89 L2180.77 239.45 Q2185.38 239.45 2188.46 242.992 Q2191.63 246.603 2191.63 252.969 Q2191.63 259.335 2188.46 262.946 Q2185.38 266.487 2180.77 266.487 L2180.77 275.77 L2176.53 275.77 L2176.53 266.487 Q2171.93 266.487 2168.83 262.946 Q2165.68 259.335 2165.68 252.969 Q2165.68 246.603 2168.83 242.992 Q2171.93 239.45 2176.53 239.45 L2176.53 229.89 L2180.77 229.89 M2180.77 262.691 Q2183.39 262.691 2185.17 260.307 Q2187.11 257.645 2187.14 252.969 Q2187.16 248.339 2185.17 245.631 Q2183.39 243.247 2180.77 243.247 L2180.77 262.691 M2176.53 262.691 L2176.53 243.247 Q2173.92 243.247 2172.16 245.631 Q2170.15 248.339 2170.17 252.969 Q2170.19 257.645 2172.16 260.307 Q2173.92 262.691 2176.53 262.691 Z" fill="#000000" fill-rule="evenodd" fill-opacity="1" /><path clip-path="url(#clip110)" d="M2198.15 229.937 L2201.86 229.937 Q2205.33 235.4 2207.04 240.631 Q2208.78 245.862 2208.78 251.024 Q2208.78 256.21 2207.04 261.464 Q2205.33 266.719 2201.86 272.159 L2198.15 272.159 Q2201.23 266.858 2202.74 261.626 Q2204.27 256.372 2204.27 251.024 Q2204.27 245.677 2202.74 240.469 Q2201.23 235.261 2198.15 229.937 Z" fill="#000000" fill-rule="evenodd" fill-opacity="1" /></svg>
