<?xml version="1.0" encoding="utf-8"?>
<svg xmlns="http://www.w3.org/2000/svg" xmlns:xlink="http://www.w3.org/1999/xlink" width="600" height="400" viewBox="0 0 2400 1600">
<defs>
  <clipPath id="clip270">
    <rect x="0" y="0" width="2400" height="1600"/>
  </clipPath>
</defs>
<path clip-path="url(#clip270)" d="M0 1600 L2400 1600 L2400 0 L0 0  Z" fill="#ffffff" fill-rule="evenodd" fill-opacity="1"/>
<defs>
  <clipPath id="clip271">
    <rect x="480" y="0" width="1681" height="1600"/>
  </clipPath>
</defs>
<path clip-path="url(#clip270)" d="M219.866 1423.18 L2352.76 1423.18 L2352.76 47.2441 L219.866 47.2441  Z" fill="#ffffff" fill-rule="evenodd" fill-opacity="1"/>
<defs>
  <clipPath id="clip272">
    <rect x="219" y="47" width="2134" height="1377"/>
  </clipPath>
</defs>
<polyline clip-path="url(#clip272)" style="stroke:#000000; stroke-linecap:round; stroke-linejoin:round; stroke-width:2; stroke-opacity:0.1; fill:none" points="280.231,1423.18 280.231,47.2441 "/>
<polyline clip-path="url(#clip272)" style="stroke:#000000; stroke-linecap:round; stroke-linejoin:round; stroke-width:2; stroke-opacity:0.1; fill:none" points="723.362,1423.18 723.362,47.2441 "/>
<polyline clip-path="url(#clip272)" style="stroke:#000000; stroke-linecap:round; stroke-linejoin:round; stroke-width:2; stroke-opacity:0.1; fill:none" points="1166.49,1423.18 1166.49,47.2441 "/>
<polyline clip-path="url(#clip272)" style="stroke:#000000; stroke-linecap:round; stroke-linejoin:round; stroke-width:2; stroke-opacity:0.1; fill:none" points="1609.62,1423.18 1609.62,47.2441 "/>
<polyline clip-path="url(#clip272)" style="stroke:#000000; stroke-linecap:round; stroke-linejoin:round; stroke-width:2; stroke-opacity:0.1; fill:none" points="2052.76,1423.18 2052.76,47.2441 "/>
<polyline clip-path="url(#clip272)" style="stroke:#000000; stroke-linecap:round; stroke-linejoin:round; stroke-width:2; stroke-opacity:0.1; fill:none" points="219.866,1384.24 2352.76,1384.24 "/>
<polyline clip-path="url(#clip272)" style="stroke:#000000; stroke-linecap:round; stroke-linejoin:round; stroke-width:2; stroke-opacity:0.1; fill:none" points="219.866,1066.35 2352.76,1066.35 "/>
<polyline clip-path="url(#clip272)" style="stroke:#000000; stroke-linecap:round; stroke-linejoin:round; stroke-width:2; stroke-opacity:0.1; fill:none" points="219.866,748.471 2352.76,748.471 "/>
<polyline clip-path="url(#clip272)" style="stroke:#000000; stroke-linecap:round; stroke-linejoin:round; stroke-width:2; stroke-opacity:0.1; fill:none" points="219.866,430.587 2352.76,430.587 "/>
<polyline clip-path="url(#clip272)" style="stroke:#000000; stroke-linecap:round; stroke-linejoin:round; stroke-width:2; stroke-opacity:0.1; fill:none" points="219.866,112.703 2352.76,112.703 "/>
<polyline clip-path="url(#clip270)" style="stroke:#000000; stroke-linecap:round; stroke-linejoin:round; stroke-width:4; stroke-opacity:1; fill:none" points="219.866,1423.18 2352.76,1423.18 "/>
<polyline clip-path="url(#clip270)" style="stroke:#000000; stroke-linecap:round; stroke-linejoin:round; stroke-width:4; stroke-opacity:1; fill:none" points="280.231,1423.18 280.231,1404.28 "/>
<polyline clip-path="url(#clip270)" style="stroke:#000000; stroke-linecap:round; stroke-linejoin:round; stroke-width:4; stroke-opacity:1; fill:none" points="723.362,1423.18 723.362,1404.28 "/>
<polyline clip-path="url(#clip270)" style="stroke:#000000; stroke-linecap:round; stroke-linejoin:round; stroke-width:4; stroke-opacity:1; fill:none" points="1166.49,1423.18 1166.49,1404.28 "/>
<polyline clip-path="url(#clip270)" style="stroke:#000000; stroke-linecap:round; stroke-linejoin:round; stroke-width:4; stroke-opacity:1; fill:none" points="1609.62,1423.18 1609.62,1404.28 "/>
<polyline clip-path="url(#clip270)" style="stroke:#000000; stroke-linecap:round; stroke-linejoin:round; stroke-width:4; stroke-opacity:1; fill:none" points="2052.76,1423.18 2052.76,1404.28 "/>
<path clip-path="url(#clip270)" d="M280.231 1454.1 Q276.62 1454.1 274.791 1457.66 Q272.986 1461.2 272.986 1468.33 Q272.986 1475.44 274.791 1479.01 Q276.62 1482.55 280.231 1482.55 Q283.865 1482.55 285.671 1479.01 Q287.5 1475.44 287.5 1468.33 Q287.5 1461.2 285.671 1457.66 Q283.865 1454.1 280.231 1454.1 M280.231 1450.39 Q286.041 1450.39 289.097 1455 Q292.175 1459.58 292.175 1468.33 Q292.175 1477.06 289.097 1481.67 Q286.041 1486.25 280.231 1486.25 Q274.421 1486.25 271.342 1481.67 Q268.287 1477.06 268.287 1468.33 Q268.287 1459.58 271.342 1455 Q274.421 1450.39 280.231 1450.39 Z" fill="#000000" fill-rule="nonzero" fill-opacity="1" /><path clip-path="url(#clip270)" d="M713.64 1451.02 L731.996 1451.02 L731.996 1454.96 L717.922 1454.96 L717.922 1463.43 Q718.941 1463.08 719.959 1462.92 Q720.978 1462.73 721.996 1462.73 Q727.783 1462.73 731.163 1465.9 Q734.543 1469.08 734.543 1474.49 Q734.543 1480.07 731.07 1483.17 Q727.598 1486.25 721.279 1486.25 Q719.103 1486.25 716.834 1485.88 Q714.589 1485.51 712.182 1484.77 L712.182 1480.07 Q714.265 1481.2 716.487 1481.76 Q718.709 1482.32 721.186 1482.32 Q725.191 1482.32 727.529 1480.21 Q729.867 1478.1 729.867 1474.49 Q729.867 1470.88 727.529 1468.77 Q725.191 1466.67 721.186 1466.67 Q719.311 1466.67 717.436 1467.08 Q715.584 1467.5 713.64 1468.38 L713.64 1451.02 Z" fill="#000000" fill-rule="nonzero" fill-opacity="1" /><path clip-path="url(#clip270)" d="M1141.18 1481.64 L1148.82 1481.64 L1148.82 1455.28 L1140.51 1456.95 L1140.51 1452.69 L1148.77 1451.02 L1153.45 1451.02 L1153.45 1481.64 L1161.09 1481.64 L1161.09 1485.58 L1141.18 1485.58 L1141.18 1481.64 Z" fill="#000000" fill-rule="nonzero" fill-opacity="1" /><path clip-path="url(#clip270)" d="M1180.53 1454.1 Q1176.92 1454.1 1175.09 1457.66 Q1173.29 1461.2 1173.29 1468.33 Q1173.29 1475.44 1175.09 1479.01 Q1176.92 1482.55 1180.53 1482.55 Q1184.17 1482.55 1185.97 1479.01 Q1187.8 1475.44 1187.8 1468.33 Q1187.8 1461.2 1185.97 1457.66 Q1184.17 1454.1 1180.53 1454.1 M1180.53 1450.39 Q1186.34 1450.39 1189.4 1455 Q1192.48 1459.58 1192.48 1468.33 Q1192.48 1477.06 1189.4 1481.67 Q1186.34 1486.25 1180.53 1486.25 Q1174.72 1486.25 1171.64 1481.67 Q1168.59 1477.06 1168.59 1468.33 Q1168.59 1459.58 1171.64 1455 Q1174.72 1450.39 1180.53 1450.39 Z" fill="#000000" fill-rule="nonzero" fill-opacity="1" /><path clip-path="url(#clip270)" d="M1584.81 1481.64 L1592.45 1481.64 L1592.45 1455.28 L1584.14 1456.95 L1584.14 1452.69 L1592.4 1451.02 L1597.08 1451.02 L1597.08 1481.64 L1604.72 1481.64 L1604.72 1485.58 L1584.81 1485.58 L1584.81 1481.64 Z" fill="#000000" fill-rule="nonzero" fill-opacity="1" /><path clip-path="url(#clip270)" d="M1614.21 1451.02 L1632.56 1451.02 L1632.56 1454.96 L1618.49 1454.96 L1618.49 1463.43 Q1619.51 1463.08 1620.53 1462.92 Q1621.55 1462.73 1622.56 1462.73 Q1628.35 1462.73 1631.73 1465.9 Q1635.11 1469.08 1635.11 1474.49 Q1635.11 1480.07 1631.64 1483.17 Q1628.17 1486.25 1621.85 1486.25 Q1619.67 1486.25 1617.4 1485.88 Q1615.16 1485.51 1612.75 1484.77 L1612.75 1480.07 Q1614.83 1481.2 1617.05 1481.76 Q1619.28 1482.32 1621.75 1482.32 Q1625.76 1482.32 1628.1 1480.21 Q1630.43 1478.1 1630.43 1474.49 Q1630.43 1470.88 1628.1 1468.77 Q1625.76 1466.67 1621.75 1466.67 Q1619.88 1466.67 1618 1467.08 Q1616.15 1467.5 1614.21 1468.38 L1614.21 1451.02 Z" fill="#000000" fill-rule="nonzero" fill-opacity="1" /><path clip-path="url(#clip270)" d="M2031.53 1481.64 L2047.85 1481.64 L2047.85 1485.58 L2025.9 1485.58 L2025.9 1481.64 Q2028.57 1478.89 2033.15 1474.26 Q2037.76 1469.61 2038.94 1468.27 Q2041.18 1465.74 2042.06 1464.01 Q2042.96 1462.25 2042.96 1460.56 Q2042.96 1457.8 2041.02 1456.07 Q2039.1 1454.33 2036 1454.33 Q2033.8 1454.33 2031.34 1455.09 Q2028.91 1455.86 2026.13 1457.41 L2026.13 1452.69 Q2028.96 1451.55 2031.41 1450.97 Q2033.87 1450.39 2035.9 1450.39 Q2041.27 1450.39 2044.47 1453.08 Q2047.66 1455.77 2047.66 1460.26 Q2047.66 1462.39 2046.85 1464.31 Q2046.07 1466.2 2043.96 1468.8 Q2043.38 1469.47 2040.28 1472.69 Q2037.18 1475.88 2031.53 1481.64 Z" fill="#000000" fill-rule="nonzero" fill-opacity="1" /><path clip-path="url(#clip270)" d="M2067.66 1454.1 Q2064.05 1454.1 2062.22 1457.66 Q2060.42 1461.2 2060.42 1468.33 Q2060.42 1475.44 2062.22 1479.01 Q2064.05 1482.55 2067.66 1482.55 Q2071.3 1482.55 2073.1 1479.01 Q2074.93 1475.44 2074.93 1468.33 Q2074.93 1461.2 2073.1 1457.66 Q2071.3 1454.1 2067.66 1454.1 M2067.66 1450.39 Q2073.47 1450.39 2076.53 1455 Q2079.61 1459.58 2079.61 1468.33 Q2079.61 1477.06 2076.53 1481.67 Q2073.47 1486.25 2067.66 1486.25 Q2061.85 1486.25 2058.77 1481.67 Q2055.72 1477.06 2055.72 1468.33 Q2055.72 1459.58 2058.77 1455 Q2061.85 1450.39 2067.66 1450.39 Z" fill="#000000" fill-rule="nonzero" fill-opacity="1" /><path clip-path="url(#clip270)" d="M1170.34 1520.52 L1210.54 1520.52 L1210.54 1525.93 L1193.67 1525.93 L1193.67 1568.04 L1187.21 1568.04 L1187.21 1525.93 L1170.34 1525.93 L1170.34 1520.52 Z" fill="#000000" fill-rule="nonzero" fill-opacity="1" /><path clip-path="url(#clip270)" d="M1214.49 1532.4 L1220.35 1532.4 L1220.35 1568.04 L1214.49 1568.04 L1214.49 1532.4 M1214.49 1518.52 L1220.35 1518.52 L1220.35 1525.93 L1214.49 1525.93 L1214.49 1518.52 Z" fill="#000000" fill-rule="nonzero" fill-opacity="1" /><path clip-path="url(#clip270)" d="M1260.35 1539.24 Q1262.55 1535.29 1265.61 1533.41 Q1268.66 1531.54 1272.8 1531.54 Q1278.37 1531.54 1281.39 1535.45 Q1284.42 1539.33 1284.42 1546.53 L1284.42 1568.04 L1278.53 1568.04 L1278.53 1546.72 Q1278.53 1541.59 1276.71 1539.11 Q1274.9 1536.63 1271.18 1536.63 Q1266.63 1536.63 1263.98 1539.65 Q1261.34 1542.68 1261.34 1547.9 L1261.34 1568.04 L1255.45 1568.04 L1255.45 1546.72 Q1255.45 1541.56 1253.64 1539.11 Q1251.82 1536.63 1248.04 1536.63 Q1243.55 1536.63 1240.91 1539.68 Q1238.27 1542.71 1238.27 1547.9 L1238.27 1568.04 L1232.38 1568.04 L1232.38 1532.4 L1238.27 1532.4 L1238.27 1537.93 Q1240.27 1534.66 1243.07 1533.1 Q1245.87 1531.54 1249.72 1531.54 Q1253.61 1531.54 1256.31 1533.51 Q1259.05 1535.48 1260.35 1539.24 Z" fill="#000000" fill-rule="nonzero" fill-opacity="1" /><path clip-path="url(#clip270)" d="M1326.59 1548.76 L1326.59 1551.62 L1299.66 1551.62 Q1300.05 1557.67 1303.29 1560.85 Q1306.57 1564 1312.39 1564 Q1315.77 1564 1318.92 1563.17 Q1322.1 1562.35 1325.22 1560.69 L1325.22 1566.23 Q1322.07 1567.57 1318.76 1568.27 Q1315.45 1568.97 1312.04 1568.97 Q1303.51 1568.97 1298.52 1564 Q1293.55 1559.04 1293.55 1550.57 Q1293.55 1541.82 1298.26 1536.69 Q1303.01 1531.54 1311.03 1531.54 Q1318.22 1531.54 1322.39 1536.18 Q1326.59 1540.8 1326.59 1548.76 M1320.73 1547.04 Q1320.67 1542.23 1318.03 1539.37 Q1315.42 1536.5 1311.09 1536.5 Q1306.19 1536.5 1303.23 1539.27 Q1300.3 1542.04 1299.85 1547.07 L1320.73 1547.04 Z" fill="#000000" fill-rule="nonzero" fill-opacity="1" /><path clip-path="url(#clip270)" d="M1337.7 1559.96 L1344.41 1559.96 L1344.41 1565.43 L1339.19 1575.62 L1335.09 1575.62 L1337.7 1565.43 L1337.7 1559.96 Z" fill="#000000" fill-rule="nonzero" fill-opacity="1" /><path clip-path="url(#clip270)" d="M1400.37 1533.45 L1400.37 1538.98 Q1397.89 1537.71 1395.21 1537.07 Q1392.54 1536.44 1389.67 1536.44 Q1385.31 1536.44 1383.12 1537.77 Q1380.95 1539.11 1380.95 1541.79 Q1380.95 1543.82 1382.51 1545 Q1384.07 1546.15 1388.78 1547.2 L1390.79 1547.64 Q1397.03 1548.98 1399.64 1551.43 Q1402.28 1553.85 1402.28 1558.21 Q1402.28 1563.17 1398.33 1566.07 Q1394.42 1568.97 1387.54 1568.97 Q1384.68 1568.97 1381.56 1568.39 Q1378.47 1567.85 1375.03 1566.74 L1375.03 1560.69 Q1378.28 1562.38 1381.43 1563.24 Q1384.58 1564.07 1387.67 1564.07 Q1391.81 1564.07 1394.03 1562.66 Q1396.26 1561.23 1396.26 1558.65 Q1396.26 1556.27 1394.64 1554.99 Q1393.05 1553.72 1387.61 1552.54 L1385.57 1552.07 Q1380.13 1550.92 1377.71 1548.56 Q1375.29 1546.18 1375.29 1542.04 Q1375.29 1537.01 1378.85 1534.27 Q1382.42 1531.54 1388.97 1531.54 Q1392.22 1531.54 1395.09 1532.01 Q1397.95 1532.49 1400.37 1533.45 Z" fill="#000000" fill-rule="nonzero" fill-opacity="1" /><polyline clip-path="url(#clip270)" style="stroke:#000000; stroke-linecap:round; stroke-linejoin:round; stroke-width:4; stroke-opacity:1; fill:none" points="219.866,1423.18 219.866,47.2441 "/>
<polyline clip-path="url(#clip270)" style="stroke:#000000; stroke-linecap:round; stroke-linejoin:round; stroke-width:4; stroke-opacity:1; fill:none" points="219.866,1384.24 238.764,1384.24 "/>
<polyline clip-path="url(#clip270)" style="stroke:#000000; stroke-linecap:round; stroke-linejoin:round; stroke-width:4; stroke-opacity:1; fill:none" points="219.866,1066.35 238.764,1066.35 "/>
<polyline clip-path="url(#clip270)" style="stroke:#000000; stroke-linecap:round; stroke-linejoin:round; stroke-width:4; stroke-opacity:1; fill:none" points="219.866,748.471 238.764,748.471 "/>
<polyline clip-path="url(#clip270)" style="stroke:#000000; stroke-linecap:round; stroke-linejoin:round; stroke-width:4; stroke-opacity:1; fill:none" points="219.866,430.587 238.764,430.587 "/>
<polyline clip-path="url(#clip270)" style="stroke:#000000; stroke-linecap:round; stroke-linejoin:round; stroke-width:4; stroke-opacity:1; fill:none" points="219.866,112.703 238.764,112.703 "/>
<path clip-path="url(#clip270)" d="M126.691 1370.04 Q123.08 1370.04 121.251 1373.6 Q119.445 1377.14 119.445 1384.27 Q119.445 1391.38 121.251 1394.94 Q123.08 1398.49 126.691 1398.49 Q130.325 1398.49 132.13 1394.94 Q133.959 1391.38 133.959 1384.27 Q133.959 1377.14 132.13 1373.6 Q130.325 1370.04 126.691 1370.04 M126.691 1366.33 Q132.501 1366.33 135.556 1370.94 Q138.635 1375.52 138.635 1384.27 Q138.635 1393 135.556 1397.61 Q132.501 1402.19 126.691 1402.19 Q120.88 1402.19 117.802 1397.61 Q114.746 1393 114.746 1384.27 Q114.746 1375.52 117.802 1370.94 Q120.88 1366.33 126.691 1366.33 Z" fill="#000000" fill-rule="nonzero" fill-opacity="1" /><path clip-path="url(#clip270)" d="M146.853 1395.64 L151.737 1395.64 L151.737 1401.52 L146.853 1401.52 L146.853 1395.64 Z" fill="#000000" fill-rule="nonzero" fill-opacity="1" /><path clip-path="url(#clip270)" d="M171.922 1370.04 Q168.311 1370.04 166.482 1373.6 Q164.677 1377.14 164.677 1384.27 Q164.677 1391.38 166.482 1394.94 Q168.311 1398.49 171.922 1398.49 Q175.556 1398.49 177.362 1394.94 Q179.19 1391.38 179.19 1384.27 Q179.19 1377.14 177.362 1373.6 Q175.556 1370.04 171.922 1370.04 M171.922 1366.33 Q177.732 1366.33 180.788 1370.94 Q183.866 1375.52 183.866 1384.27 Q183.866 1393 180.788 1397.61 Q177.732 1402.19 171.922 1402.19 Q166.112 1402.19 163.033 1397.61 Q159.978 1393 159.978 1384.27 Q159.978 1375.52 163.033 1370.94 Q166.112 1366.33 171.922 1366.33 Z" fill="#000000" fill-rule="nonzero" fill-opacity="1" /><path clip-path="url(#clip270)" d="M128.288 1052.15 Q124.677 1052.15 122.848 1055.72 Q121.043 1059.26 121.043 1066.39 Q121.043 1073.5 122.848 1077.06 Q124.677 1080.6 128.288 1080.6 Q131.922 1080.6 133.728 1077.06 Q135.556 1073.5 135.556 1066.39 Q135.556 1059.26 133.728 1055.72 Q131.922 1052.15 128.288 1052.15 M128.288 1048.45 Q134.098 1048.45 137.154 1053.06 Q140.232 1057.64 140.232 1066.39 Q140.232 1075.12 137.154 1079.72 Q134.098 1084.31 128.288 1084.31 Q122.478 1084.31 119.399 1079.72 Q116.343 1075.12 116.343 1066.39 Q116.343 1057.64 119.399 1053.06 Q122.478 1048.45 128.288 1048.45 Z" fill="#000000" fill-rule="nonzero" fill-opacity="1" /><path clip-path="url(#clip270)" d="M148.45 1077.75 L153.334 1077.75 L153.334 1083.63 L148.45 1083.63 L148.45 1077.75 Z" fill="#000000" fill-rule="nonzero" fill-opacity="1" /><path clip-path="url(#clip270)" d="M167.547 1079.7 L183.866 1079.7 L183.866 1083.63 L161.922 1083.63 L161.922 1079.7 Q164.584 1076.94 169.167 1072.32 Q173.774 1067.66 174.954 1066.32 Q177.2 1063.8 178.079 1062.06 Q178.982 1060.3 178.982 1058.61 Q178.982 1055.86 177.038 1054.12 Q175.116 1052.38 172.014 1052.38 Q169.815 1052.38 167.362 1053.15 Q164.931 1053.91 162.153 1055.46 L162.153 1050.74 Q164.977 1049.61 167.431 1049.03 Q169.885 1048.45 171.922 1048.45 Q177.292 1048.45 180.487 1051.13 Q183.681 1053.82 183.681 1058.31 Q183.681 1060.44 182.871 1062.36 Q182.084 1064.26 179.977 1066.85 Q179.399 1067.52 176.297 1070.74 Q173.195 1073.94 167.547 1079.7 Z" fill="#000000" fill-rule="nonzero" fill-opacity="1" /><path clip-path="url(#clip270)" d="M126.205 734.27 Q122.593 734.27 120.765 737.834 Q118.959 741.376 118.959 748.506 Q118.959 755.612 120.765 759.177 Q122.593 762.718 126.205 762.718 Q129.839 762.718 131.644 759.177 Q133.473 755.612 133.473 748.506 Q133.473 741.376 131.644 737.834 Q129.839 734.27 126.205 734.27 M126.205 730.566 Q132.015 730.566 135.07 735.172 Q138.149 739.756 138.149 748.506 Q138.149 757.232 135.07 761.839 Q132.015 766.422 126.205 766.422 Q120.394 766.422 117.316 761.839 Q114.26 757.232 114.26 748.506 Q114.26 739.756 117.316 735.172 Q120.394 730.566 126.205 730.566 Z" fill="#000000" fill-rule="nonzero" fill-opacity="1" /><path clip-path="url(#clip270)" d="M146.366 759.871 L151.251 759.871 L151.251 765.751 L146.366 765.751 L146.366 759.871 Z" fill="#000000" fill-rule="nonzero" fill-opacity="1" /><path clip-path="url(#clip270)" d="M174.283 735.265 L162.477 753.714 L174.283 753.714 L174.283 735.265 M173.056 731.191 L178.936 731.191 L178.936 753.714 L183.866 753.714 L183.866 757.603 L178.936 757.603 L178.936 765.751 L174.283 765.751 L174.283 757.603 L158.681 757.603 L158.681 753.089 L173.056 731.191 Z" fill="#000000" fill-rule="nonzero" fill-opacity="1" /><path clip-path="url(#clip270)" d="M126.529 416.386 Q122.918 416.386 121.089 419.951 Q119.283 423.492 119.283 430.622 Q119.283 437.728 121.089 441.293 Q122.918 444.835 126.529 444.835 Q130.163 444.835 131.968 441.293 Q133.797 437.728 133.797 430.622 Q133.797 423.492 131.968 419.951 Q130.163 416.386 126.529 416.386 M126.529 412.682 Q132.339 412.682 135.394 417.289 Q138.473 421.872 138.473 430.622 Q138.473 439.349 135.394 443.955 Q132.339 448.538 126.529 448.538 Q120.718 448.538 117.64 443.955 Q114.584 439.349 114.584 430.622 Q114.584 421.872 117.64 417.289 Q120.718 412.682 126.529 412.682 Z" fill="#000000" fill-rule="nonzero" fill-opacity="1" /><path clip-path="url(#clip270)" d="M146.691 441.988 L151.575 441.988 L151.575 447.867 L146.691 447.867 L146.691 441.988 Z" fill="#000000" fill-rule="nonzero" fill-opacity="1" /><path clip-path="url(#clip270)" d="M172.339 428.724 Q169.19 428.724 167.339 430.876 Q165.51 433.029 165.51 436.779 Q165.51 440.506 167.339 442.682 Q169.19 444.835 172.339 444.835 Q175.487 444.835 177.315 442.682 Q179.167 440.506 179.167 436.779 Q179.167 433.029 177.315 430.876 Q175.487 428.724 172.339 428.724 M181.621 414.071 L181.621 418.33 Q179.862 417.497 178.056 417.057 Q176.274 416.617 174.514 416.617 Q169.885 416.617 167.431 419.742 Q165.001 422.867 164.653 429.187 Q166.019 427.173 168.079 426.108 Q170.139 425.02 172.616 425.02 Q177.825 425.02 180.834 428.191 Q183.866 431.339 183.866 436.779 Q183.866 442.103 180.718 445.321 Q177.57 448.538 172.339 448.538 Q166.343 448.538 163.172 443.955 Q160.001 439.349 160.001 430.622 Q160.001 422.427 163.89 417.566 Q167.778 412.682 174.329 412.682 Q176.089 412.682 177.871 413.029 Q179.676 413.377 181.621 414.071 Z" fill="#000000" fill-rule="nonzero" fill-opacity="1" /><path clip-path="url(#clip270)" d="M126.783 98.5021 Q123.172 98.5021 121.343 102.067 Q119.538 105.609 119.538 112.738 Q119.538 119.845 121.343 123.409 Q123.172 126.951 126.783 126.951 Q130.417 126.951 132.223 123.409 Q134.052 119.845 134.052 112.738 Q134.052 105.609 132.223 102.067 Q130.417 98.5021 126.783 98.5021 M126.783 94.7984 Q132.593 94.7984 135.649 99.4049 Q138.728 103.988 138.728 112.738 Q138.728 121.465 135.649 126.071 Q132.593 130.655 126.783 130.655 Q120.973 130.655 117.894 126.071 Q114.839 121.465 114.839 112.738 Q114.839 103.988 117.894 99.4049 Q120.973 94.7984 126.783 94.7984 Z" fill="#000000" fill-rule="nonzero" fill-opacity="1" /><path clip-path="url(#clip270)" d="M146.945 124.104 L151.829 124.104 L151.829 129.983 L146.945 129.983 L146.945 124.104 Z" fill="#000000" fill-rule="nonzero" fill-opacity="1" /><path clip-path="url(#clip270)" d="M172.014 113.571 Q168.681 113.571 166.76 115.354 Q164.862 117.136 164.862 120.261 Q164.862 123.386 166.76 125.169 Q168.681 126.951 172.014 126.951 Q175.348 126.951 177.269 125.169 Q179.19 123.363 179.19 120.261 Q179.19 117.136 177.269 115.354 Q175.371 113.571 172.014 113.571 M167.339 111.581 Q164.329 110.84 162.64 108.78 Q160.973 106.72 160.973 103.757 Q160.973 99.6132 163.913 97.2058 Q166.876 94.7984 172.014 94.7984 Q177.176 94.7984 180.116 97.2058 Q183.056 99.6132 183.056 103.757 Q183.056 106.72 181.366 108.78 Q179.7 110.84 176.714 111.581 Q180.093 112.368 181.968 114.659 Q183.866 116.951 183.866 120.261 Q183.866 125.284 180.788 127.97 Q177.732 130.655 172.014 130.655 Q166.297 130.655 163.218 127.97 Q160.163 125.284 160.163 120.261 Q160.163 116.951 162.061 114.659 Q163.959 112.368 167.339 111.581 M165.626 104.197 Q165.626 106.882 167.292 108.386 Q168.982 109.891 172.014 109.891 Q175.024 109.891 176.714 108.386 Q178.426 106.882 178.426 104.197 Q178.426 101.511 176.714 100.007 Q175.024 98.5021 172.014 98.5021 Q168.982 98.5021 167.292 100.007 Q165.626 101.511 165.626 104.197 Z" fill="#000000" fill-rule="nonzero" fill-opacity="1" /><path clip-path="url(#clip270)" d="M16.4842 1054.77 L16.4842 1045.19 L48.8219 1033.06 L16.4842 1020.87 L16.4842 1011.29 L64.0042 1011.29 L64.0042 1017.56 L22.277 1017.56 L54.8694 1029.82 L54.8694 1036.28 L22.277 1048.53 L64.0042 1048.53 L64.0042 1054.77 L16.4842 1054.77 Z" fill="#000000" fill-rule="nonzero" fill-opacity="1" /><path clip-path="url(#clip270)" d="M46.0847 982.583 Q46.0847 989.681 47.7079 992.418 Q49.3312 995.156 53.2461 995.156 Q56.3653 995.156 58.2114 993.119 Q60.0256 991.05 60.0256 987.517 Q60.0256 982.647 56.5881 979.719 Q53.1188 976.759 47.3897 976.759 L46.0847 976.759 L46.0847 982.583 M43.6657 970.902 L64.0042 970.902 L64.0042 976.759 L58.5933 976.759 Q61.8398 978.764 63.3994 981.756 Q64.9272 984.748 64.9272 989.076 Q64.9272 994.551 61.8716 997.797 Q58.7843 1001.01 53.6281 1001.01 Q47.6125 1001.01 44.5569 997.002 Q41.5014 992.959 41.5014 984.97 L41.5014 976.759 L40.9285 976.759 Q36.8862 976.759 34.6901 979.432 Q32.4621 982.074 32.4621 986.88 Q32.4621 989.936 33.1941 992.832 Q33.9262 995.729 35.3903 998.402 L29.9795 998.402 Q28.7381 995.187 28.1334 992.164 Q27.4968 989.14 27.4968 986.275 Q27.4968 978.541 31.5072 974.722 Q35.5176 970.902 43.6657 970.902 Z" fill="#000000" fill-rule="nonzero" fill-opacity="1" /><path clip-path="url(#clip270)" d="M29.4065 936.114 L34.9447 936.114 Q33.6716 938.596 33.035 941.27 Q32.3984 943.943 32.3984 946.808 Q32.3984 951.169 33.7352 953.365 Q35.072 955.529 37.7456 955.529 Q39.7826 955.529 40.9603 953.969 Q42.1061 952.41 43.1565 947.699 L43.6021 945.694 Q44.9389 939.456 47.3897 936.846 Q49.8086 934.204 54.1691 934.204 Q59.1344 934.204 62.0308 938.151 Q64.9272 942.066 64.9272 948.941 Q64.9272 951.805 64.3543 954.924 Q63.8132 958.012 62.6992 961.449 L56.6518 961.449 Q58.3387 958.203 59.198 955.052 Q60.0256 951.901 60.0256 948.813 Q60.0256 944.676 58.6251 942.448 Q57.1929 940.22 54.6147 940.22 Q52.2276 940.22 50.9545 941.843 Q49.6813 943.434 48.5037 948.877 L48.0262 950.914 Q46.8804 956.357 44.5251 958.776 Q42.138 961.195 38.0002 961.195 Q32.9713 961.195 30.2341 957.63 Q27.4968 954.065 27.4968 947.508 Q27.4968 944.262 27.9743 941.397 Q28.4517 938.533 29.4065 936.114 Z" fill="#000000" fill-rule="nonzero" fill-opacity="1" /><path clip-path="url(#clip270)" d="M29.4065 902.153 L34.9447 902.153 Q33.6716 904.635 33.035 907.309 Q32.3984 909.982 32.3984 912.847 Q32.3984 917.208 33.7352 919.404 Q35.072 921.568 37.7456 921.568 Q39.7826 921.568 40.9603 920.008 Q42.1061 918.449 43.1565 913.738 L43.6021 911.733 Q44.9389 905.495 47.3897 902.885 Q49.8086 900.243 54.1691 900.243 Q59.1344 900.243 62.0308 904.19 Q64.9272 908.105 64.9272 914.98 Q64.9272 917.844 64.3543 920.963 Q63.8132 924.051 62.6992 927.488 L56.6518 927.488 Q58.3387 924.242 59.198 921.091 Q60.0256 917.94 60.0256 914.852 Q60.0256 910.715 58.6251 908.487 Q57.1929 906.259 54.6147 906.259 Q52.2276 906.259 50.9545 907.882 Q49.6813 909.473 48.5037 914.916 L48.0262 916.953 Q46.8804 922.396 44.5251 924.815 Q42.138 927.234 38.0002 927.234 Q32.9713 927.234 30.2341 923.669 Q27.4968 920.104 27.4968 913.547 Q27.4968 910.301 27.9743 907.436 Q28.4517 904.572 29.4065 902.153 Z" fill="#000000" fill-rule="nonzero" fill-opacity="1" /><path clip-path="url(#clip270)" d="M14.479 852.15 L19.3487 852.15 L19.3487 857.752 Q19.3487 860.903 20.6219 862.144 Q21.895 863.354 25.2052 863.354 L28.3562 863.354 L28.3562 853.71 L32.9077 853.71 L32.9077 863.354 L64.0042 863.354 L64.0042 869.242 L32.9077 869.242 L32.9077 874.844 L28.3562 874.844 L28.3562 869.242 L25.8736 869.242 Q19.9216 869.242 17.2162 866.473 Q14.479 863.704 14.479 857.688 L14.479 852.15 Z" fill="#000000" fill-rule="nonzero" fill-opacity="1" /><path clip-path="url(#clip270)" d="M14.479 847.248 L14.479 841.392 L64.0042 841.392 L64.0042 847.248 L14.479 847.248 Z" fill="#000000" fill-rule="nonzero" fill-opacity="1" /><path clip-path="url(#clip270)" d="M32.4621 815.324 Q32.4621 820.035 36.1542 822.772 Q39.8145 825.51 46.212 825.51 Q52.6095 825.51 56.3017 822.804 Q59.9619 820.067 59.9619 815.324 Q59.9619 810.646 56.2698 807.908 Q52.5777 805.171 46.212 805.171 Q39.8781 805.171 36.186 807.908 Q32.4621 810.646 32.4621 815.324 M27.4968 815.324 Q27.4968 807.686 32.4621 803.325 Q37.4273 798.965 46.212 798.965 Q54.9649 798.965 59.9619 803.325 Q64.9272 807.686 64.9272 815.324 Q64.9272 822.995 59.9619 827.356 Q54.9649 831.684 46.212 831.684 Q37.4273 831.684 32.4621 827.356 Q27.4968 822.995 27.4968 815.324 Z" fill="#000000" fill-rule="nonzero" fill-opacity="1" /><path clip-path="url(#clip270)" d="M28.3562 792.662 L28.3562 786.806 L56.1743 779.485 L28.3562 772.197 L28.3562 765.29 L56.1743 757.969 L28.3562 750.681 L28.3562 744.824 L64.0042 754.15 L64.0042 761.057 L34.7856 768.727 L64.0042 776.43 L64.0042 783.337 L28.3562 792.662 Z" fill="#000000" fill-rule="nonzero" fill-opacity="1" /><path clip-path="url(#clip270)" d="M33.8307 694.567 Q33.2578 695.554 33.0032 696.731 Q32.7167 697.877 32.7167 699.278 Q32.7167 704.243 35.9632 706.916 Q39.1779 709.558 45.2253 709.558 L64.0042 709.558 L64.0042 715.446 L28.3562 715.446 L28.3562 709.558 L33.8944 709.558 Q30.6479 707.712 29.0883 704.752 Q27.4968 701.792 27.4968 697.559 Q27.4968 696.954 27.5923 696.222 Q27.656 695.49 27.8151 694.599 L33.8307 694.567 Z" fill="#000000" fill-rule="nonzero" fill-opacity="1" /><path clip-path="url(#clip270)" d="M46.0847 672.223 Q46.0847 679.321 47.7079 682.058 Q49.3312 684.796 53.2461 684.796 Q56.3653 684.796 58.2114 682.759 Q60.0256 680.69 60.0256 677.157 Q60.0256 672.287 56.5881 669.359 Q53.1188 666.399 47.3897 666.399 L46.0847 666.399 L46.0847 672.223 M43.6657 660.542 L64.0042 660.542 L64.0042 666.399 L58.5933 666.399 Q61.8398 668.404 63.3994 671.396 Q64.9272 674.388 64.9272 678.716 Q64.9272 684.191 61.8716 687.437 Q58.7843 690.652 53.6281 690.652 Q47.6125 690.652 44.5569 686.642 Q41.5014 682.599 41.5014 674.61 L41.5014 666.399 L40.9285 666.399 Q36.8862 666.399 34.6901 669.072 Q32.4621 671.714 32.4621 676.52 Q32.4621 679.576 33.1941 682.472 Q33.9262 685.368 35.3903 688.042 L29.9795 688.042 Q28.7381 684.827 28.1334 681.804 Q27.4968 678.78 27.4968 675.915 Q27.4968 668.181 31.5072 664.362 Q35.5176 660.542 43.6657 660.542 Z" fill="#000000" fill-rule="nonzero" fill-opacity="1" /><path clip-path="url(#clip270)" d="M18.2347 642.686 L28.3562 642.686 L28.3562 630.623 L32.9077 630.623 L32.9077 642.686 L52.2594 642.686 Q56.6199 642.686 57.8613 641.509 Q59.1026 640.299 59.1026 636.639 L59.1026 630.623 L64.0042 630.623 L64.0042 636.639 Q64.0042 643.418 61.4897 645.997 Q58.9434 648.575 52.2594 648.575 L32.9077 648.575 L32.9077 652.872 L28.3562 652.872 L28.3562 648.575 L18.2347 648.575 L18.2347 642.686 Z" fill="#000000" fill-rule="nonzero" fill-opacity="1" /><path clip-path="url(#clip270)" d="M44.7161 592.429 L47.5806 592.429 L47.5806 619.356 Q53.6281 618.974 56.8109 615.728 Q59.9619 612.449 59.9619 606.625 Q59.9619 603.251 59.1344 600.1 Q58.3069 596.917 56.6518 593.798 L62.1899 593.798 Q63.5267 596.949 64.227 600.259 Q64.9272 603.569 64.9272 606.975 Q64.9272 615.505 59.9619 620.502 Q54.9967 625.467 46.5303 625.467 Q37.7774 625.467 32.6531 620.757 Q27.4968 616.014 27.4968 607.993 Q27.4968 600.8 32.1438 596.631 Q36.7589 592.429 44.7161 592.429 M42.9973 598.286 Q38.1912 598.349 35.3266 600.991 Q32.4621 603.601 32.4621 607.93 Q32.4621 612.831 35.2312 615.791 Q38.0002 618.72 43.0292 619.165 L42.9973 598.286 Z" fill="#000000" fill-rule="nonzero" fill-opacity="1" /><path clip-path="url(#clip270)" d="M55.9197 581.321 L55.9197 574.605 L61.3942 574.605 L71.5793 579.825 L71.5793 583.931 L61.3942 581.321 L55.9197 581.321 Z" fill="#000000" fill-rule="nonzero" fill-opacity="1" /><path clip-path="url(#clip270)" d="M14.479 541.599 L14.479 535.711 L43.7294 535.711 L28.3562 518.237 L28.3562 510.757 L45.0344 529.663 L64.0042 509.961 L64.0042 517.6 L46.5939 535.711 L64.0042 535.711 L64.0042 541.599 L14.479 541.599 Z" fill="#000000" fill-rule="nonzero" fill-opacity="1" /><path clip-path="url(#clip270)" d="M45.7664 480.17 Q39.4007 480.17 35.8996 482.812 Q32.3984 485.422 32.3984 490.164 Q32.3984 494.875 35.8996 497.516 Q39.4007 500.126 45.7664 500.126 Q52.1003 500.126 55.6014 497.516 Q59.1026 494.875 59.1026 490.164 Q59.1026 485.422 55.6014 482.812 Q52.1003 480.17 45.7664 480.17 M59.58 474.313 Q68.683 474.313 73.1071 478.356 Q77.5631 482.398 77.5631 490.737 Q77.5631 493.824 77.0857 496.562 Q76.6401 499.299 75.6852 501.877 L69.9879 501.877 Q71.3884 499.299 72.0568 496.784 Q72.7252 494.27 72.7252 491.66 Q72.7252 485.899 69.7015 483.035 Q66.7096 480.17 60.6303 480.17 L57.7339 480.17 Q60.885 481.984 62.4446 484.817 Q64.0042 487.65 64.0042 491.596 Q64.0042 498.153 59.0071 502.163 Q54.01 506.174 45.7664 506.174 Q37.491 506.174 32.4939 502.163 Q27.4968 498.153 27.4968 491.596 Q27.4968 487.65 29.0564 484.817 Q30.616 481.984 33.7671 480.17 L28.3562 480.17 L28.3562 474.313 L59.58 474.313 Z" fill="#000000" fill-rule="nonzero" fill-opacity="1" /><path clip-path="url(#clip270)" d="M16.4842 451.843 L16.4842 446.432 L70.0516 462.983 L70.0516 468.393 L16.4842 451.843 Z" fill="#000000" fill-rule="nonzero" fill-opacity="1" /><path clip-path="url(#clip270)" d="M29.4065 417.563 L34.9447 417.563 Q33.6716 420.046 33.035 422.719 Q32.3984 425.393 32.3984 428.258 Q32.3984 432.618 33.7352 434.814 Q35.072 436.979 37.7456 436.979 Q39.7826 436.979 40.9603 435.419 Q42.1061 433.859 43.1565 429.149 L43.6021 427.144 Q44.9389 420.905 47.3897 418.295 Q49.8086 415.653 54.1691 415.653 Q59.1344 415.653 62.0308 419.6 Q64.9272 423.515 64.9272 430.39 Q64.9272 433.255 64.3543 436.374 Q63.8132 439.461 62.6992 442.899 L56.6518 442.899 Q58.3387 439.652 59.198 436.501 Q60.0256 433.35 60.0256 430.263 Q60.0256 426.125 58.6251 423.897 Q57.1929 421.669 54.6147 421.669 Q52.2276 421.669 50.9545 423.292 Q49.6813 424.884 48.5037 430.326 L48.0262 432.363 Q46.8804 437.806 44.5251 440.225 Q42.138 442.644 38.0002 442.644 Q32.9713 442.644 30.2341 439.079 Q27.4968 435.515 27.4968 428.958 Q27.4968 425.711 27.9743 422.847 Q28.4517 419.982 29.4065 417.563 Z" fill="#000000" fill-rule="nonzero" fill-opacity="1" /><polyline clip-path="url(#clip272)" style="stroke:#0000ff; stroke-linecap:round; stroke-linejoin:round; stroke-width:4; stroke-opacity:1; fill:none" points="280.231,86.1857 300.556,187.615 320.881,279.917 341.206,364.019 361.53,440.743 381.855,510.819 402.18,574.897 422.505,633.557 442.83,687.317 463.155,736.638 483.48,781.934 503.804,823.577 524.129,861.9 544.454,897.201 564.779,929.75 585.104,959.789 605.429,987.537 625.753,1013.19 646.078,1036.93 666.403,1058.92 686.728,1079.3 707.053,1098.2 727.378,1115.76 747.703,1132.06 768.027,1147.23 788.352,1161.34 808.677,1174.48 829.002,1186.73 849.327,1198.15 869.652,1208.8 889.977,1218.75 910.301,1228.05 930.626,1236.75 950.951,1244.88 971.276,1252.5 991.601,1259.64 1011.93,1266.32 1032.25,1272.6 1052.58,1278.49 1072.9,1284.01 1093.23,1289.21 1113.55,1294.09 1133.87,1298.68 1154.2,1303.01 1174.52,1307.08 1194.85,1310.91 1215.17,1314.52 1235.5,1317.93 1255.82,1321.14 1276.15,1324.18 1296.47,1327.04 1316.8,1329.75 1337.12,1332.31 1357.45,1334.73 1377.77,1337.02 1398.1,1339.18 1418.42,1341.24 1438.75,1343.18 1459.07,1345.02 1479.4,1346.77 1499.72,1348.42 1520.05,1349.99 1540.37,1351.49 1560.7,1352.9 1581.02,1354.25 1601.35,1355.53 1621.67,1356.74 1642,1357.9 1662.32,1359 1682.65,1360.04 1702.97,1361.04 1723.3,1361.99 1743.62,1362.89 1763.95,1363.75 1784.27,1364.57 1804.59,1365.35 1824.92,1366.1 1845.24,1366.81 1865.57,1367.49 1885.89,1368.14 1906.22,1368.76 1926.54,1369.35 1946.87,1369.92 1967.19,1370.46 1987.52,1370.98 2007.84,1371.47 2028.17,1371.95 2048.49,1372.4 2068.82,1372.83 2089.14,1373.25 2109.47,1373.65 2129.79,1374.03 2150.12,1374.39 2170.44,1374.74 2190.77,1375.08 2211.09,1375.4 2231.42,1375.71 2251.74,1376.01 2272.07,1376.29 2292.39,1376.56 "/>
<polyline clip-path="url(#clip272)" style="stroke:#ff0000; stroke-linecap:round; stroke-linejoin:round; stroke-width:4; stroke-opacity:1; fill:none" points="280.231,86.1857 300.556,187.615 320.881,279.917 341.206,364.019 361.53,440.743 381.855,510.818 402.18,574.897 422.505,633.558 442.83,687.316 463.155,736.637 483.48,781.935 503.804,823.578 524.129,861.899 544.454,897.2 564.779,929.75 585.104,959.79 605.429,987.537 625.753,1013.19 646.078,1036.93 666.403,1058.92 686.728,1079.3 707.053,1098.2 727.378,1115.76 747.703,1132.06 768.027,1147.23 788.352,1161.34 808.677,1174.48 829.002,1186.73 849.327,1198.15 869.652,1208.8 889.977,1218.75 910.301,1228.05 930.626,1236.75 950.951,1244.88 971.276,1252.5 991.601,1259.64 1011.93,1266.32 1032.25,1272.6 1052.58,1278.48 1072.9,1284.01 1093.23,1289.21 1113.55,1294.09 1133.87,1298.68 1154.2,1303 1174.52,1307.07 1194.85,1310.91 1215.17,1314.52 1235.5,1317.93 1255.82,1321.14 1276.15,1324.18 1296.47,1327.04 1316.8,1329.75 1337.12,1332.31 1357.45,1334.73 1377.77,1337.02 1398.1,1339.18 1418.42,1341.23 1438.75,1343.18 1459.07,1345.02 1479.4,1346.77 1499.72,1348.43 1520.05,1350 1540.37,1351.49 1560.7,1352.9 1581.02,1354.25 1601.35,1355.52 1621.67,1356.73 1642,1357.89 1662.32,1358.99 1682.65,1360.04 1702.97,1361.05 1723.3,1362.06 1743.62,1363.09 1763.95,1364.13 1784.27,1365.19 1804.59,1366.26 1824.92,1367.35 1845.24,1368.46 1865.57,1369.61 1885.89,1370.78 1906.22,1371.97 1926.54,1373.17 1946.87,1374.39 1967.19,1375.63 1987.52,1376.97 2007.84,1378.32 2028.17,1379.3 2048.49,1379.79 2068.82,1380.44 2089.14,1381.41 2109.47,1384.24 2129.79,1384.24 2150.12,1384.24 2170.44,1384.24 2190.77,1384.24 2211.09,1384.24 2231.42,1384.24 2251.74,1384.24 2272.07,1384.24 2292.39,1384.24 "/>
<circle clip-path="url(#clip272)" cx="2109.47" cy="1384.24" r="14.4" fill="#ff0000" fill-rule="evenodd" fill-opacity="1" stroke="#000000" stroke-opacity="1" stroke-width="3.2"/>
<polyline clip-path="url(#clip272)" style="stroke:#d3d3d3; stroke-linecap:round; stroke-linejoin:round; stroke-width:4; stroke-opacity:1; fill:none" points="2048.54,1368.34 1858.78,1010.4 "/>
<polyline clip-path="url(#clip272)" style="stroke:#d3d3d3; stroke-linecap:round; stroke-linejoin:round; stroke-width:4; stroke-opacity:1; fill:none" points="1875.5,1384.24 1875.5,1368.34 2230.01,1368.34 2230.01,1384.24 1875.5,1384.24 "/>
<path clip-path="url(#clip270)" d="M1620.46 248.629 L2281.66 248.629 L2281.66 93.1086 L1620.46 93.1086  Z" fill="#ffffff" fill-rule="evenodd" fill-opacity="1"/>
<polyline clip-path="url(#clip270)" style="stroke:#000000; stroke-linecap:round; stroke-linejoin:round; stroke-width:4; stroke-opacity:1; fill:none" points="1620.46,248.629 2281.66,248.629 2281.66,93.1086 1620.46,93.1086 1620.46,248.629 "/>
<polyline clip-path="url(#clip270)" style="stroke:#0000ff; stroke-linecap:round; stroke-linejoin:round; stroke-width:4; stroke-opacity:1; fill:none" points="1644.16,144.949 1786.35,144.949 "/>
<path clip-path="url(#clip270)" d="M1810.05 127.669 L1829.91 127.669 L1829.91 131.604 L1814.72 131.604 L1814.72 141.789 L1828.43 141.789 L1828.43 145.724 L1814.72 145.724 L1814.72 162.229 L1810.05 162.229 L1810.05 127.669 Z" fill="#000000" fill-rule="nonzero" fill-opacity="1" /><path clip-path="url(#clip270)" d="M1834.1 151.997 L1834.1 136.303 L1838.36 136.303 L1838.36 151.835 Q1838.36 155.516 1839.79 157.368 Q1841.23 159.196 1844.1 159.196 Q1847.55 159.196 1849.54 156.997 Q1851.55 154.798 1851.55 151.002 L1851.55 136.303 L1855.81 136.303 L1855.81 162.229 L1851.55 162.229 L1851.55 158.247 Q1850 160.608 1847.94 161.766 Q1845.9 162.9 1843.19 162.9 Q1838.73 162.9 1836.41 160.122 Q1834.1 157.344 1834.1 151.997 M1844.81 135.678 L1844.81 135.678 Z" fill="#000000" fill-rule="nonzero" fill-opacity="1" /><path clip-path="url(#clip270)" d="M1864.58 126.21 L1868.84 126.21 L1868.84 162.229 L1864.58 162.229 L1864.58 126.21 Z" fill="#000000" fill-rule="nonzero" fill-opacity="1" /><path clip-path="url(#clip270)" d="M1877.75 126.21 L1882.01 126.21 L1882.01 162.229 L1877.75 162.229 L1877.75 126.21 Z" fill="#000000" fill-rule="nonzero" fill-opacity="1" /><path clip-path="url(#clip270)" d="M1901.71 164.636 Q1899.91 169.266 1898.19 170.678 Q1896.48 172.09 1893.61 172.09 L1890.21 172.09 L1890.21 168.525 L1892.71 168.525 Q1894.47 168.525 1895.44 167.692 Q1896.41 166.858 1897.59 163.756 L1898.36 161.812 L1887.87 136.303 L1892.38 136.303 L1900.49 156.581 L1908.59 136.303 L1913.1 136.303 L1901.71 164.636 Z" fill="#000000" fill-rule="nonzero" fill-opacity="1" /><path clip-path="url(#clip270)" d="M1952.71 137.298 L1952.71 141.28 Q1950.9 140.284 1949.07 139.798 Q1947.27 139.289 1945.42 139.289 Q1941.27 139.289 1938.98 141.928 Q1936.69 144.544 1936.69 149.289 Q1936.69 154.034 1938.98 156.673 Q1941.27 159.289 1945.42 159.289 Q1947.27 159.289 1949.07 158.803 Q1950.9 158.293 1952.71 157.298 L1952.71 161.233 Q1950.93 162.067 1949 162.483 Q1947.11 162.9 1944.95 162.9 Q1939.1 162.9 1935.65 159.219 Q1932.2 155.539 1932.2 149.289 Q1932.2 142.946 1935.67 139.312 Q1939.17 135.678 1945.23 135.678 Q1947.2 135.678 1949.07 136.095 Q1950.95 136.488 1952.71 137.298 Z" fill="#000000" fill-rule="nonzero" fill-opacity="1" /><path clip-path="url(#clip270)" d="M1981.67 146.581 L1981.67 162.229 L1977.41 162.229 L1977.41 146.719 Q1977.41 143.039 1975.97 141.21 Q1974.54 139.382 1971.67 139.382 Q1968.22 139.382 1966.23 141.581 Q1964.24 143.78 1964.24 147.576 L1964.24 162.229 L1959.95 162.229 L1959.95 126.21 L1964.24 126.21 L1964.24 140.331 Q1965.76 137.993 1967.82 136.835 Q1969.91 135.678 1972.62 135.678 Q1977.08 135.678 1979.37 138.456 Q1981.67 141.21 1981.67 146.581 Z" fill="#000000" fill-rule="nonzero" fill-opacity="1" /><path clip-path="url(#clip270)" d="M2000.21 139.289 Q1996.78 139.289 1994.79 141.974 Q1992.8 144.636 1992.8 149.289 Q1992.8 153.942 1994.77 156.627 Q1996.76 159.289 2000.21 159.289 Q2003.61 159.289 2005.6 156.604 Q2007.59 153.918 2007.59 149.289 Q2007.59 144.682 2005.6 141.997 Q2003.61 139.289 2000.21 139.289 M2000.21 135.678 Q2005.76 135.678 2008.93 139.289 Q2012.11 142.9 2012.11 149.289 Q2012.11 155.655 2008.93 159.289 Q2005.76 162.9 2000.21 162.9 Q1994.63 162.9 1991.46 159.289 Q1988.31 155.655 1988.31 149.289 Q1988.31 142.9 1991.46 139.289 Q1994.63 135.678 2000.21 135.678 Z" fill="#000000" fill-rule="nonzero" fill-opacity="1" /><path clip-path="url(#clip270)" d="M2019 126.21 L2023.29 126.21 L2023.29 147.483 L2035.99 136.303 L2041.43 136.303 L2027.68 148.432 L2042.01 162.229 L2036.46 162.229 L2023.29 149.567 L2023.29 162.229 L2019 162.229 L2019 126.21 Z" fill="#000000" fill-rule="nonzero" fill-opacity="1" /><path clip-path="url(#clip270)" d="M2067.11 148.201 L2067.11 150.284 L2047.52 150.284 Q2047.8 154.682 2050.16 156.997 Q2052.55 159.289 2056.78 159.289 Q2059.24 159.289 2061.53 158.687 Q2063.84 158.085 2066.11 156.881 L2066.11 160.909 Q2063.82 161.881 2061.41 162.391 Q2059 162.9 2056.53 162.9 Q2050.32 162.9 2046.69 159.289 Q2043.08 155.678 2043.08 149.52 Q2043.08 143.155 2046.5 139.428 Q2049.95 135.678 2055.79 135.678 Q2061.02 135.678 2064.05 139.057 Q2067.11 142.414 2067.11 148.201 M2062.85 146.951 Q2062.8 143.456 2060.88 141.372 Q2058.98 139.289 2055.83 139.289 Q2052.27 139.289 2050.11 141.303 Q2047.99 143.317 2047.66 146.974 L2062.85 146.951 Z" fill="#000000" fill-rule="nonzero" fill-opacity="1" /><path clip-path="url(#clip270)" d="M2091.16 140.238 L2091.16 126.21 L2095.42 126.21 L2095.42 162.229 L2091.16 162.229 L2091.16 158.34 Q2089.81 160.655 2087.75 161.789 Q2085.72 162.9 2082.85 162.9 Q2078.15 162.9 2075.18 159.15 Q2072.24 155.4 2072.24 149.289 Q2072.24 143.178 2075.18 139.428 Q2078.15 135.678 2082.85 135.678 Q2085.72 135.678 2087.75 136.812 Q2089.81 137.923 2091.16 140.238 M2076.64 149.289 Q2076.64 153.988 2078.56 156.673 Q2080.51 159.335 2083.89 159.335 Q2087.27 159.335 2089.21 156.673 Q2091.16 153.988 2091.16 149.289 Q2091.16 144.59 2089.21 141.928 Q2087.27 139.243 2083.89 139.243 Q2080.51 139.243 2078.56 141.928 Q2076.64 144.59 2076.64 149.289 Z" fill="#000000" fill-rule="nonzero" fill-opacity="1" /><path clip-path="url(#clip270)" d="M2139.44 141.28 Q2141.04 138.409 2143.26 137.044 Q2145.48 135.678 2148.49 135.678 Q2152.54 135.678 2154.74 138.525 Q2156.94 141.349 2156.94 146.581 L2156.94 162.229 L2152.66 162.229 L2152.66 146.719 Q2152.66 142.993 2151.34 141.187 Q2150.02 139.382 2147.31 139.382 Q2144 139.382 2142.08 141.581 Q2140.16 143.78 2140.16 147.576 L2140.16 162.229 L2135.88 162.229 L2135.88 146.719 Q2135.88 142.969 2134.56 141.187 Q2133.24 139.382 2130.48 139.382 Q2127.22 139.382 2125.3 141.604 Q2123.38 143.803 2123.38 147.576 L2123.38 162.229 L2119.1 162.229 L2119.1 136.303 L2123.38 136.303 L2123.38 140.331 Q2124.84 137.946 2126.87 136.812 Q2128.91 135.678 2131.71 135.678 Q2134.54 135.678 2136.5 137.113 Q2138.49 138.548 2139.44 141.28 Z" fill="#000000" fill-rule="nonzero" fill-opacity="1" /><path clip-path="url(#clip270)" d="M2175.48 139.289 Q2172.06 139.289 2170.07 141.974 Q2168.08 144.636 2168.08 149.289 Q2168.08 153.942 2170.04 156.627 Q2172.04 159.289 2175.48 159.289 Q2178.89 159.289 2180.88 156.604 Q2182.87 153.918 2182.87 149.289 Q2182.87 144.682 2180.88 141.997 Q2178.89 139.289 2175.48 139.289 M2175.48 135.678 Q2181.04 135.678 2184.21 139.289 Q2187.38 142.9 2187.38 149.289 Q2187.38 155.655 2184.21 159.289 Q2181.04 162.9 2175.48 162.9 Q2169.91 162.9 2166.73 159.289 Q2163.59 155.655 2163.59 149.289 Q2163.59 142.9 2166.73 139.289 Q2169.91 135.678 2175.48 135.678 Z" fill="#000000" fill-rule="nonzero" fill-opacity="1" /><path clip-path="url(#clip270)" d="M2211.5 140.238 L2211.5 126.21 L2215.76 126.21 L2215.76 162.229 L2211.5 162.229 L2211.5 158.34 Q2210.16 160.655 2208.1 161.789 Q2206.06 162.9 2203.19 162.9 Q2198.49 162.9 2195.53 159.15 Q2192.59 155.4 2192.59 149.289 Q2192.59 143.178 2195.53 139.428 Q2198.49 135.678 2203.19 135.678 Q2206.06 135.678 2208.1 136.812 Q2210.16 137.923 2211.5 140.238 M2196.99 149.289 Q2196.99 153.988 2198.91 156.673 Q2200.85 159.335 2204.23 159.335 Q2207.61 159.335 2209.56 156.673 Q2211.5 153.988 2211.5 149.289 Q2211.5 144.59 2209.56 141.928 Q2207.61 139.243 2204.23 139.243 Q2200.85 139.243 2198.91 141.928 Q2196.99 144.59 2196.99 149.289 Z" fill="#000000" fill-rule="nonzero" fill-opacity="1" /><path clip-path="url(#clip270)" d="M2246.71 148.201 L2246.71 150.284 L2227.13 150.284 Q2227.41 154.682 2229.77 156.997 Q2232.15 159.289 2236.39 159.289 Q2238.84 159.289 2241.13 158.687 Q2243.45 158.085 2245.72 156.881 L2245.72 160.909 Q2243.42 161.881 2241.02 162.391 Q2238.61 162.9 2236.13 162.9 Q2229.93 162.9 2226.29 159.289 Q2222.68 155.678 2222.68 149.52 Q2222.68 143.155 2226.11 139.428 Q2229.56 135.678 2235.39 135.678 Q2240.62 135.678 2243.66 139.057 Q2246.71 142.414 2246.71 148.201 M2242.45 146.951 Q2242.41 143.456 2240.48 141.372 Q2238.59 139.289 2235.44 139.289 Q2231.87 139.289 2229.72 141.303 Q2227.59 143.317 2227.27 146.974 L2242.45 146.951 Z" fill="#000000" fill-rule="nonzero" fill-opacity="1" /><path clip-path="url(#clip270)" d="M2253.7 126.21 L2257.96 126.21 L2257.96 162.229 L2253.7 162.229 L2253.7 126.21 Z" fill="#000000" fill-rule="nonzero" fill-opacity="1" /><polyline clip-path="url(#clip270)" style="stroke:#ff0000; stroke-linecap:round; stroke-linejoin:round; stroke-width:4; stroke-opacity:1; fill:none" points="1644.16,196.789 1786.35,196.789 "/>
<path clip-path="url(#clip270)" d="M1826.06 182.68 Q1820.97 182.68 1817.96 186.476 Q1814.98 190.272 1814.98 196.823 Q1814.98 203.351 1817.96 207.147 Q1820.97 210.944 1826.06 210.944 Q1831.16 210.944 1834.12 207.147 Q1837.11 203.351 1837.11 196.823 Q1837.11 190.272 1834.12 186.476 Q1831.16 182.68 1826.06 182.68 M1826.06 178.884 Q1833.33 178.884 1837.69 183.768 Q1842.04 188.629 1842.04 196.823 Q1842.04 204.995 1837.69 209.879 Q1833.33 214.74 1826.06 214.74 Q1818.77 214.74 1814.4 209.879 Q1810.05 205.018 1810.05 196.823 Q1810.05 188.629 1814.4 183.768 Q1818.77 178.884 1826.06 178.884 Z" fill="#000000" fill-rule="nonzero" fill-opacity="1" /><path clip-path="url(#clip270)" d="M1854.03 183.351 L1854.03 210.226 L1859.68 210.226 Q1866.83 210.226 1870.14 206.985 Q1873.47 203.745 1873.47 196.754 Q1873.47 189.809 1870.14 186.592 Q1866.83 183.351 1859.68 183.351 L1854.03 183.351 M1849.35 179.509 L1858.96 179.509 Q1869 179.509 1873.7 183.698 Q1878.4 187.865 1878.4 196.754 Q1878.4 205.689 1873.68 209.879 Q1868.96 214.069 1858.96 214.069 L1849.35 214.069 L1849.35 179.509 Z" fill="#000000" fill-rule="nonzero" fill-opacity="1" /><path clip-path="url(#clip270)" d="M1885.86 179.509 L1907.71 179.509 L1907.71 183.444 L1890.53 183.444 L1890.53 193.675 L1906.99 193.675 L1906.99 197.61 L1890.53 197.61 L1890.53 210.133 L1908.12 210.133 L1908.12 214.069 L1885.86 214.069 L1885.86 179.509 Z" fill="#000000" fill-rule="nonzero" fill-opacity="1" /><path clip-path="url(#clip270)" d="M1286.31 1010.4 L2139.47 1010.4 L2139.47 460.025 L1286.31 460.025  Z" fill="#ffffff" fill-rule="evenodd" fill-opacity="1"/>
<defs>
  <clipPath id="clip273">
    <rect x="1286" y="460" width="854" height="551"/>
  </clipPath>
</defs>
<polyline clip-path="url(#clip273)" style="stroke:#000000; stroke-linecap:round; stroke-linejoin:round; stroke-width:2; stroke-opacity:0.1; fill:none" points="1286.31,1010.4 1286.31,460.025 "/>
<polyline clip-path="url(#clip273)" style="stroke:#000000; stroke-linecap:round; stroke-linejoin:round; stroke-width:2; stroke-opacity:0.1; fill:none" points="1499.6,1010.4 1499.6,460.025 "/>
<polyline clip-path="url(#clip273)" style="stroke:#000000; stroke-linecap:round; stroke-linejoin:round; stroke-width:2; stroke-opacity:0.1; fill:none" points="1712.89,1010.4 1712.89,460.025 "/>
<polyline clip-path="url(#clip273)" style="stroke:#000000; stroke-linecap:round; stroke-linejoin:round; stroke-width:2; stroke-opacity:0.1; fill:none" points="1926.18,1010.4 1926.18,460.025 "/>
<polyline clip-path="url(#clip273)" style="stroke:#000000; stroke-linecap:round; stroke-linejoin:round; stroke-width:2; stroke-opacity:0.1; fill:none" points="2139.47,1010.4 2139.47,460.025 "/>
<polyline clip-path="url(#clip273)" style="stroke:#000000; stroke-linecap:round; stroke-linejoin:round; stroke-width:2; stroke-opacity:0.1; fill:none" points="1286.31,1010.4 2139.47,1010.4 "/>
<polyline clip-path="url(#clip273)" style="stroke:#000000; stroke-linecap:round; stroke-linejoin:round; stroke-width:2; stroke-opacity:0.1; fill:none" points="1286.31,900.324 2139.47,900.324 "/>
<polyline clip-path="url(#clip273)" style="stroke:#000000; stroke-linecap:round; stroke-linejoin:round; stroke-width:2; stroke-opacity:0.1; fill:none" points="1286.31,790.249 2139.47,790.249 "/>
<polyline clip-path="url(#clip273)" style="stroke:#000000; stroke-linecap:round; stroke-linejoin:round; stroke-width:2; stroke-opacity:0.1; fill:none" points="1286.31,680.175 2139.47,680.175 "/>
<polyline clip-path="url(#clip273)" style="stroke:#000000; stroke-linecap:round; stroke-linejoin:round; stroke-width:2; stroke-opacity:0.1; fill:none" points="1286.31,570.1 2139.47,570.1 "/>
<polyline clip-path="url(#clip273)" style="stroke:#000000; stroke-linecap:round; stroke-linejoin:round; stroke-width:2; stroke-opacity:0.1; fill:none" points="1286.31,460.025 2139.47,460.025 "/>
<polyline clip-path="url(#clip270)" style="stroke:#000000; stroke-linecap:round; stroke-linejoin:round; stroke-width:4; stroke-opacity:1; fill:none" points="1286.31,1010.4 2139.47,1010.4 "/>
<polyline clip-path="url(#clip270)" style="stroke:#000000; stroke-linecap:round; stroke-linejoin:round; stroke-width:4; stroke-opacity:1; fill:none" points="1286.31,1010.4 1286.31,991.501 "/>
<polyline clip-path="url(#clip270)" style="stroke:#000000; stroke-linecap:round; stroke-linejoin:round; stroke-width:4; stroke-opacity:1; fill:none" points="1499.6,1010.4 1499.6,991.501 "/>
<polyline clip-path="url(#clip270)" style="stroke:#000000; stroke-linecap:round; stroke-linejoin:round; stroke-width:4; stroke-opacity:1; fill:none" points="1712.89,1010.4 1712.89,991.501 "/>
<polyline clip-path="url(#clip270)" style="stroke:#000000; stroke-linecap:round; stroke-linejoin:round; stroke-width:4; stroke-opacity:1; fill:none" points="1926.18,1010.4 1926.18,991.501 "/>
<polyline clip-path="url(#clip270)" style="stroke:#000000; stroke-linecap:round; stroke-linejoin:round; stroke-width:4; stroke-opacity:1; fill:none" points="2139.47,1010.4 2139.47,991.501 "/>
<path clip-path="url(#clip270)" d="M1261.05 1068.86 L1268.68 1068.86 L1268.68 1042.5 L1260.37 1044.17 L1260.37 1039.91 L1268.64 1038.24 L1273.31 1038.24 L1273.31 1068.86 L1280.95 1068.86 L1280.95 1072.8 L1261.05 1072.8 L1261.05 1068.86 Z" fill="#000000" fill-rule="nonzero" fill-opacity="1" /><path clip-path="url(#clip270)" d="M1300.4 1056.39 Q1297.06 1056.39 1295.14 1058.17 Q1293.24 1059.95 1293.24 1063.08 Q1293.24 1066.2 1295.14 1067.98 Q1297.06 1069.77 1300.4 1069.77 Q1303.73 1069.77 1305.65 1067.98 Q1307.57 1066.18 1307.57 1063.08 Q1307.57 1059.95 1305.65 1058.17 Q1303.75 1056.39 1300.4 1056.39 M1295.72 1054.4 Q1292.71 1053.66 1291.02 1051.6 Q1289.36 1049.54 1289.36 1046.57 Q1289.36 1042.43 1292.29 1040.02 Q1295.26 1037.61 1300.4 1037.61 Q1305.56 1037.61 1308.5 1040.02 Q1311.44 1042.43 1311.44 1046.57 Q1311.44 1049.54 1309.75 1051.6 Q1308.08 1053.66 1305.1 1054.4 Q1308.48 1055.18 1310.35 1057.48 Q1312.25 1059.77 1312.25 1063.08 Q1312.25 1068.1 1309.17 1070.79 Q1306.11 1073.47 1300.4 1073.47 Q1294.68 1073.47 1291.6 1070.79 Q1288.54 1068.1 1288.54 1063.08 Q1288.54 1059.77 1290.44 1057.48 Q1292.34 1055.18 1295.72 1054.4 M1294.01 1047.01 Q1294.01 1049.7 1295.67 1051.2 Q1297.36 1052.71 1300.4 1052.71 Q1303.41 1052.71 1305.1 1051.2 Q1306.81 1049.7 1306.81 1047.01 Q1306.81 1044.33 1305.1 1042.82 Q1303.41 1041.32 1300.4 1041.32 Q1297.36 1041.32 1295.67 1042.82 Q1294.01 1044.33 1294.01 1047.01 Z" fill="#000000" fill-rule="nonzero" fill-opacity="1" /><path clip-path="url(#clip270)" d="M1474.38 1068.86 L1482.02 1068.86 L1482.02 1042.5 L1473.71 1044.17 L1473.71 1039.91 L1481.97 1038.24 L1486.65 1038.24 L1486.65 1068.86 L1494.29 1068.86 L1494.29 1072.8 L1474.38 1072.8 L1474.38 1068.86 Z" fill="#000000" fill-rule="nonzero" fill-opacity="1" /><path clip-path="url(#clip270)" d="M1503.87 1072.08 L1503.87 1067.82 Q1505.63 1068.66 1507.44 1069.1 Q1509.24 1069.54 1510.98 1069.54 Q1515.61 1069.54 1518.04 1066.43 Q1520.49 1063.31 1520.84 1056.97 Q1519.5 1058.96 1517.44 1060.02 Q1515.38 1061.09 1512.88 1061.09 Q1507.69 1061.09 1504.66 1057.96 Q1501.65 1054.81 1501.65 1049.37 Q1501.65 1044.05 1504.8 1040.83 Q1507.94 1037.61 1513.18 1037.61 Q1519.17 1037.61 1522.32 1042.22 Q1525.49 1046.8 1525.49 1055.55 Q1525.49 1063.73 1521.6 1068.61 Q1517.74 1073.47 1511.19 1073.47 Q1509.43 1073.47 1507.62 1073.12 Q1505.82 1072.78 1503.87 1072.08 M1513.18 1057.43 Q1516.32 1057.43 1518.15 1055.28 Q1520.01 1053.12 1520.01 1049.37 Q1520.01 1045.65 1518.15 1043.49 Q1516.32 1041.32 1513.18 1041.32 Q1510.03 1041.32 1508.18 1043.49 Q1506.35 1045.65 1506.35 1049.37 Q1506.35 1053.12 1508.18 1055.28 Q1510.03 1057.43 1513.18 1057.43 Z" fill="#000000" fill-rule="nonzero" fill-opacity="1" /><path clip-path="url(#clip270)" d="M1691.66 1068.86 L1707.98 1068.86 L1707.98 1072.8 L1686.04 1072.8 L1686.04 1068.86 Q1688.7 1066.11 1693.28 1061.48 Q1697.89 1056.83 1699.07 1055.48 Q1701.32 1052.96 1702.19 1051.23 Q1703.1 1049.47 1703.1 1047.78 Q1703.1 1045.02 1701.15 1043.29 Q1699.23 1041.55 1696.13 1041.55 Q1693.93 1041.55 1691.48 1042.31 Q1689.05 1043.08 1686.27 1044.63 L1686.27 1039.91 Q1689.09 1038.77 1691.55 1038.19 Q1694 1037.61 1696.04 1037.61 Q1701.41 1037.61 1704.6 1040.3 Q1707.8 1042.98 1707.8 1047.48 Q1707.8 1049.6 1706.99 1051.53 Q1706.2 1053.42 1704.09 1056.02 Q1703.51 1056.69 1700.41 1059.91 Q1697.31 1063.1 1691.66 1068.86 Z" fill="#000000" fill-rule="nonzero" fill-opacity="1" /><path clip-path="url(#clip270)" d="M1727.8 1041.32 Q1724.19 1041.32 1722.36 1044.88 Q1720.55 1048.42 1720.55 1055.55 Q1720.55 1062.66 1722.36 1066.23 Q1724.19 1069.77 1727.8 1069.77 Q1731.43 1069.77 1733.24 1066.23 Q1735.06 1062.66 1735.06 1055.55 Q1735.06 1048.42 1733.24 1044.88 Q1731.43 1041.32 1727.8 1041.32 M1727.8 1037.61 Q1733.61 1037.61 1736.66 1042.22 Q1739.74 1046.8 1739.74 1055.55 Q1739.74 1064.28 1736.66 1068.89 Q1733.61 1073.47 1727.8 1073.47 Q1721.99 1073.47 1718.91 1068.89 Q1715.85 1064.28 1715.85 1055.55 Q1715.85 1046.8 1718.91 1042.22 Q1721.99 1037.61 1727.8 1037.61 Z" fill="#000000" fill-rule="nonzero" fill-opacity="1" /><path clip-path="url(#clip270)" d="M1905.56 1068.86 L1921.88 1068.86 L1921.88 1072.8 L1899.94 1072.8 L1899.94 1068.86 Q1902.6 1066.11 1907.19 1061.48 Q1911.79 1056.83 1912.97 1055.48 Q1915.22 1052.96 1916.1 1051.23 Q1917 1049.47 1917 1047.78 Q1917 1045.02 1915.06 1043.29 Q1913.13 1041.55 1910.03 1041.55 Q1907.83 1041.55 1905.38 1042.31 Q1902.95 1043.08 1900.17 1044.63 L1900.17 1039.91 Q1903 1038.77 1905.45 1038.19 Q1907.9 1037.61 1909.94 1037.61 Q1915.31 1037.61 1918.5 1040.3 Q1921.7 1042.98 1921.7 1047.48 Q1921.7 1049.6 1920.89 1051.53 Q1920.1 1053.42 1918 1056.02 Q1917.42 1056.69 1914.31 1059.91 Q1911.21 1063.1 1905.56 1068.86 Z" fill="#000000" fill-rule="nonzero" fill-opacity="1" /><path clip-path="url(#clip270)" d="M1932.51 1068.86 L1940.15 1068.86 L1940.15 1042.5 L1931.84 1044.17 L1931.84 1039.91 L1940.1 1038.24 L1944.78 1038.24 L1944.78 1068.86 L1952.42 1068.86 L1952.42 1072.8 L1932.51 1072.8 L1932.51 1068.86 Z" fill="#000000" fill-rule="nonzero" fill-opacity="1" /><path clip-path="url(#clip270)" d="M2119.04 1068.86 L2135.36 1068.86 L2135.36 1072.8 L2113.41 1072.8 L2113.41 1068.86 Q2116.08 1066.11 2120.66 1061.48 Q2125.27 1056.83 2126.45 1055.48 Q2128.69 1052.96 2129.57 1051.23 Q2130.47 1049.47 2130.47 1047.78 Q2130.47 1045.02 2128.53 1043.29 Q2126.61 1041.55 2123.51 1041.55 Q2121.31 1041.55 2118.85 1042.31 Q2116.42 1043.08 2113.65 1044.63 L2113.65 1039.91 Q2116.47 1038.77 2118.92 1038.19 Q2121.38 1037.61 2123.41 1037.61 Q2128.78 1037.61 2131.98 1040.3 Q2135.17 1042.98 2135.17 1047.48 Q2135.17 1049.6 2134.36 1051.53 Q2133.58 1053.42 2131.47 1056.02 Q2130.89 1056.69 2127.79 1059.91 Q2124.69 1063.1 2119.04 1068.86 Z" fill="#000000" fill-rule="nonzero" fill-opacity="1" /><path clip-path="url(#clip270)" d="M2149.2 1068.86 L2165.52 1068.86 L2165.52 1072.8 L2143.58 1072.8 L2143.58 1068.86 Q2146.24 1066.11 2150.82 1061.48 Q2155.43 1056.83 2156.61 1055.48 Q2158.85 1052.96 2159.73 1051.23 Q2160.64 1049.47 2160.64 1047.78 Q2160.64 1045.02 2158.69 1043.29 Q2156.77 1041.55 2153.67 1041.55 Q2151.47 1041.55 2149.02 1042.31 Q2146.58 1043.08 2143.81 1044.63 L2143.81 1039.91 Q2146.63 1038.77 2149.08 1038.19 Q2151.54 1037.61 2153.58 1037.61 Q2158.95 1037.61 2162.14 1040.3 Q2165.33 1042.98 2165.33 1047.48 Q2165.33 1049.6 2164.52 1051.53 Q2163.74 1053.42 2161.63 1056.02 Q2161.05 1056.69 2157.95 1059.91 Q2154.85 1063.1 2149.2 1068.86 Z" fill="#000000" fill-rule="nonzero" fill-opacity="1" /><polyline clip-path="url(#clip270)" style="stroke:#000000; stroke-linecap:round; stroke-linejoin:round; stroke-width:4; stroke-opacity:1; fill:none" points="1286.31,1010.4 1286.31,460.025 "/>
<polyline clip-path="url(#clip270)" style="stroke:#000000; stroke-linecap:round; stroke-linejoin:round; stroke-width:4; stroke-opacity:1; fill:none" points="1286.31,1010.4 1305.21,1010.4 "/>
<polyline clip-path="url(#clip270)" style="stroke:#000000; stroke-linecap:round; stroke-linejoin:round; stroke-width:4; stroke-opacity:1; fill:none" points="1286.31,900.324 1305.21,900.324 "/>
<polyline clip-path="url(#clip270)" style="stroke:#000000; stroke-linecap:round; stroke-linejoin:round; stroke-width:4; stroke-opacity:1; fill:none" points="1286.31,790.249 1305.21,790.249 "/>
<polyline clip-path="url(#clip270)" style="stroke:#000000; stroke-linecap:round; stroke-linejoin:round; stroke-width:4; stroke-opacity:1; fill:none" points="1286.31,680.175 1305.21,680.175 "/>
<polyline clip-path="url(#clip270)" style="stroke:#000000; stroke-linecap:round; stroke-linejoin:round; stroke-width:4; stroke-opacity:1; fill:none" points="1286.31,570.1 1305.21,570.1 "/>
<polyline clip-path="url(#clip270)" style="stroke:#000000; stroke-linecap:round; stroke-linejoin:round; stroke-width:4; stroke-opacity:1; fill:none" points="1286.31,460.025 1305.21,460.025 "/>
<path clip-path="url(#clip270)" d="M1132.81 996.198 Q1129.2 996.198 1127.37 999.763 Q1125.57 1003.3 1125.57 1010.43 Q1125.57 1017.54 1127.37 1021.11 Q1129.2 1024.65 1132.81 1024.65 Q1136.45 1024.65 1138.25 1021.11 Q1140.08 1017.54 1140.08 1010.43 Q1140.08 1003.3 1138.25 999.763 Q1136.45 996.198 1132.81 996.198 M1132.81 992.494 Q1138.62 992.494 1141.68 997.101 Q1144.76 1001.68 1144.76 1010.43 Q1144.76 1019.16 1141.68 1023.77 Q1138.62 1028.35 1132.81 1028.35 Q1127 1028.35 1123.92 1023.77 Q1120.87 1019.16 1120.87 1010.43 Q1120.87 1001.68 1123.92 997.101 Q1127 992.494 1132.81 992.494 Z" fill="#000000" fill-rule="nonzero" fill-opacity="1" /><path clip-path="url(#clip270)" d="M1152.97 1021.8 L1157.86 1021.8 L1157.86 1027.68 L1152.97 1027.68 L1152.97 1021.8 Z" fill="#000000" fill-rule="nonzero" fill-opacity="1" /><path clip-path="url(#clip270)" d="M1178.04 996.198 Q1174.43 996.198 1172.6 999.763 Q1170.8 1003.3 1170.8 1010.43 Q1170.8 1017.54 1172.6 1021.11 Q1174.43 1024.65 1178.04 1024.65 Q1181.68 1024.65 1183.48 1021.11 Q1185.31 1017.54 1185.31 1010.43 Q1185.31 1003.3 1183.48 999.763 Q1181.68 996.198 1178.04 996.198 M1178.04 992.494 Q1183.85 992.494 1186.91 997.101 Q1189.99 1001.68 1189.99 1010.43 Q1189.99 1019.16 1186.91 1023.77 Q1183.85 1028.35 1178.04 1028.35 Q1172.23 1028.35 1169.15 1023.77 Q1166.1 1019.16 1166.1 1010.43 Q1166.1 1001.68 1169.15 997.101 Q1172.23 992.494 1178.04 992.494 Z" fill="#000000" fill-rule="nonzero" fill-opacity="1" /><path clip-path="url(#clip270)" d="M1208.2 996.198 Q1204.59 996.198 1202.77 999.763 Q1200.96 1003.3 1200.96 1010.43 Q1200.96 1017.54 1202.77 1021.11 Q1204.59 1024.65 1208.2 1024.65 Q1211.84 1024.65 1213.64 1021.11 Q1215.47 1017.54 1215.47 1010.43 Q1215.47 1003.3 1213.64 999.763 Q1211.84 996.198 1208.2 996.198 M1208.2 992.494 Q1214.01 992.494 1217.07 997.101 Q1220.15 1001.68 1220.15 1010.43 Q1220.15 1019.16 1217.07 1023.77 Q1214.01 1028.35 1208.2 1028.35 Q1202.39 1028.35 1199.32 1023.77 Q1196.26 1019.16 1196.26 1010.43 Q1196.26 1001.68 1199.32 997.101 Q1202.39 992.494 1208.2 992.494 Z" fill="#000000" fill-rule="nonzero" fill-opacity="1" /><path clip-path="url(#clip270)" d="M1238.37 996.198 Q1234.76 996.198 1232.93 999.763 Q1231.12 1003.3 1231.12 1010.43 Q1231.12 1017.54 1232.93 1021.11 Q1234.76 1024.65 1238.37 1024.65 Q1242 1024.65 1243.81 1021.11 Q1245.64 1017.54 1245.64 1010.43 Q1245.64 1003.3 1243.81 999.763 Q1242 996.198 1238.37 996.198 M1238.37 992.494 Q1244.18 992.494 1247.23 997.101 Q1250.31 1001.68 1250.31 1010.43 Q1250.31 1019.16 1247.23 1023.77 Q1244.18 1028.35 1238.37 1028.35 Q1232.56 1028.35 1229.48 1023.77 Q1226.42 1019.16 1226.42 1010.43 Q1226.42 1001.68 1229.48 997.101 Q1232.56 992.494 1238.37 992.494 Z" fill="#000000" fill-rule="nonzero" fill-opacity="1" /><path clip-path="url(#clip270)" d="M1134.41 886.123 Q1130.8 886.123 1128.97 889.688 Q1127.16 893.229 1127.16 900.359 Q1127.16 907.465 1128.97 911.03 Q1130.8 914.572 1134.41 914.572 Q1138.04 914.572 1139.85 911.03 Q1141.68 907.465 1141.68 900.359 Q1141.68 893.229 1139.85 889.688 Q1138.04 886.123 1134.41 886.123 M1134.41 882.419 Q1140.22 882.419 1143.27 887.026 Q1146.35 891.609 1146.35 900.359 Q1146.35 909.086 1143.27 913.692 Q1140.22 918.276 1134.41 918.276 Q1128.6 918.276 1125.52 913.692 Q1122.46 909.086 1122.46 900.359 Q1122.46 891.609 1125.52 887.026 Q1128.6 882.419 1134.41 882.419 Z" fill="#000000" fill-rule="nonzero" fill-opacity="1" /><path clip-path="url(#clip270)" d="M1154.57 911.725 L1159.46 911.725 L1159.46 917.604 L1154.57 917.604 L1154.57 911.725 Z" fill="#000000" fill-rule="nonzero" fill-opacity="1" /><path clip-path="url(#clip270)" d="M1179.64 886.123 Q1176.03 886.123 1174.2 889.688 Q1172.39 893.229 1172.39 900.359 Q1172.39 907.465 1174.2 911.03 Q1176.03 914.572 1179.64 914.572 Q1183.27 914.572 1185.08 911.03 Q1186.91 907.465 1186.91 900.359 Q1186.91 893.229 1185.08 889.688 Q1183.27 886.123 1179.64 886.123 M1179.64 882.419 Q1185.45 882.419 1188.51 887.026 Q1191.58 891.609 1191.58 900.359 Q1191.58 909.086 1188.51 913.692 Q1185.45 918.276 1179.64 918.276 Q1173.83 918.276 1170.75 913.692 Q1167.7 909.086 1167.7 900.359 Q1167.7 891.609 1170.75 887.026 Q1173.83 882.419 1179.64 882.419 Z" fill="#000000" fill-rule="nonzero" fill-opacity="1" /><path clip-path="url(#clip270)" d="M1209.8 886.123 Q1206.19 886.123 1204.36 889.688 Q1202.56 893.229 1202.56 900.359 Q1202.56 907.465 1204.36 911.03 Q1206.19 914.572 1209.8 914.572 Q1213.44 914.572 1215.24 911.03 Q1217.07 907.465 1217.07 900.359 Q1217.07 893.229 1215.24 889.688 Q1213.44 886.123 1209.8 886.123 M1209.8 882.419 Q1215.61 882.419 1218.67 887.026 Q1221.75 891.609 1221.75 900.359 Q1221.75 909.086 1218.67 913.692 Q1215.61 918.276 1209.8 918.276 Q1203.99 918.276 1200.91 913.692 Q1197.86 909.086 1197.86 900.359 Q1197.86 891.609 1200.91 887.026 Q1203.99 882.419 1209.8 882.419 Z" fill="#000000" fill-rule="nonzero" fill-opacity="1" /><path clip-path="url(#clip270)" d="M1233.99 913.669 L1250.31 913.669 L1250.31 917.604 L1228.37 917.604 L1228.37 913.669 Q1231.03 910.914 1235.61 906.285 Q1240.22 901.632 1241.4 900.29 Q1243.64 897.766 1244.52 896.03 Q1245.43 894.271 1245.43 892.581 Q1245.43 889.827 1243.48 888.091 Q1241.56 886.354 1238.46 886.354 Q1236.26 886.354 1233.81 887.118 Q1231.38 887.882 1228.6 889.433 L1228.6 884.711 Q1231.42 883.577 1233.88 882.998 Q1236.33 882.419 1238.37 882.419 Q1243.74 882.419 1246.93 885.104 Q1250.13 887.79 1250.13 892.28 Q1250.13 894.41 1249.32 896.331 Q1248.53 898.229 1246.42 900.822 Q1245.84 901.493 1242.74 904.711 Q1239.64 907.905 1233.99 913.669 Z" fill="#000000" fill-rule="nonzero" fill-opacity="1" /><path clip-path="url(#clip270)" d="M1132.33 776.048 Q1128.71 776.048 1126.89 779.613 Q1125.08 783.155 1125.08 790.284 Q1125.08 797.391 1126.89 800.955 Q1128.71 804.497 1132.33 804.497 Q1135.96 804.497 1137.77 800.955 Q1139.59 797.391 1139.59 790.284 Q1139.59 783.155 1137.77 779.613 Q1135.96 776.048 1132.33 776.048 M1132.33 772.344 Q1138.14 772.344 1141.19 776.951 Q1144.27 781.534 1144.27 790.284 Q1144.27 799.011 1141.19 803.617 Q1138.14 808.201 1132.33 808.201 Q1126.52 808.201 1123.44 803.617 Q1120.38 799.011 1120.38 790.284 Q1120.38 781.534 1123.44 776.951 Q1126.52 772.344 1132.33 772.344 Z" fill="#000000" fill-rule="nonzero" fill-opacity="1" /><path clip-path="url(#clip270)" d="M1152.49 801.65 L1157.37 801.65 L1157.37 807.529 L1152.49 807.529 L1152.49 801.65 Z" fill="#000000" fill-rule="nonzero" fill-opacity="1" /><path clip-path="url(#clip270)" d="M1177.56 776.048 Q1173.95 776.048 1172.12 779.613 Q1170.31 783.155 1170.31 790.284 Q1170.31 797.391 1172.12 800.955 Q1173.95 804.497 1177.56 804.497 Q1181.19 804.497 1183 800.955 Q1184.83 797.391 1184.83 790.284 Q1184.83 783.155 1183 779.613 Q1181.19 776.048 1177.56 776.048 M1177.56 772.344 Q1183.37 772.344 1186.42 776.951 Q1189.5 781.534 1189.5 790.284 Q1189.5 799.011 1186.42 803.617 Q1183.37 808.201 1177.56 808.201 Q1171.75 808.201 1168.67 803.617 Q1165.61 799.011 1165.61 790.284 Q1165.61 781.534 1168.67 776.951 Q1171.75 772.344 1177.56 772.344 Z" fill="#000000" fill-rule="nonzero" fill-opacity="1" /><path clip-path="url(#clip270)" d="M1207.72 776.048 Q1204.11 776.048 1202.28 779.613 Q1200.47 783.155 1200.47 790.284 Q1200.47 797.391 1202.28 800.955 Q1204.11 804.497 1207.72 804.497 Q1211.35 804.497 1213.16 800.955 Q1214.99 797.391 1214.99 790.284 Q1214.99 783.155 1213.16 779.613 Q1211.35 776.048 1207.72 776.048 M1207.72 772.344 Q1213.53 772.344 1216.58 776.951 Q1219.66 781.534 1219.66 790.284 Q1219.66 799.011 1216.58 803.617 Q1213.53 808.201 1207.72 808.201 Q1201.91 808.201 1198.83 803.617 Q1195.77 799.011 1195.77 790.284 Q1195.77 781.534 1198.83 776.951 Q1201.91 772.344 1207.72 772.344 Z" fill="#000000" fill-rule="nonzero" fill-opacity="1" /><path clip-path="url(#clip270)" d="M1240.73 777.043 L1228.92 795.492 L1240.73 795.492 L1240.73 777.043 M1239.5 772.969 L1245.38 772.969 L1245.38 795.492 L1250.31 795.492 L1250.31 799.381 L1245.38 799.381 L1245.38 807.529 L1240.73 807.529 L1240.73 799.381 L1225.13 799.381 L1225.13 794.867 L1239.5 772.969 Z" fill="#000000" fill-rule="nonzero" fill-opacity="1" /><path clip-path="url(#clip270)" d="M1132.65 665.973 Q1129.04 665.973 1127.21 669.538 Q1125.4 673.08 1125.4 680.209 Q1125.4 687.316 1127.21 690.88 Q1129.04 694.422 1132.65 694.422 Q1136.28 694.422 1138.09 690.88 Q1139.92 687.316 1139.92 680.209 Q1139.92 673.08 1138.09 669.538 Q1136.28 665.973 1132.65 665.973 M1132.65 662.27 Q1138.46 662.27 1141.52 666.876 Q1144.59 671.459 1144.59 680.209 Q1144.59 688.936 1141.52 693.543 Q1138.46 698.126 1132.65 698.126 Q1126.84 698.126 1123.76 693.543 Q1120.71 688.936 1120.71 680.209 Q1120.71 671.459 1123.76 666.876 Q1126.84 662.27 1132.65 662.27 Z" fill="#000000" fill-rule="nonzero" fill-opacity="1" /><path clip-path="url(#clip270)" d="M1152.81 691.575 L1157.7 691.575 L1157.7 697.455 L1152.81 697.455 L1152.81 691.575 Z" fill="#000000" fill-rule="nonzero" fill-opacity="1" /><path clip-path="url(#clip270)" d="M1177.88 665.973 Q1174.27 665.973 1172.44 669.538 Q1170.64 673.08 1170.64 680.209 Q1170.64 687.316 1172.44 690.88 Q1174.27 694.422 1177.88 694.422 Q1181.52 694.422 1183.32 690.88 Q1185.15 687.316 1185.15 680.209 Q1185.15 673.08 1183.32 669.538 Q1181.52 665.973 1177.88 665.973 M1177.88 662.27 Q1183.69 662.27 1186.75 666.876 Q1189.83 671.459 1189.83 680.209 Q1189.83 688.936 1186.75 693.543 Q1183.69 698.126 1177.88 698.126 Q1172.07 698.126 1168.99 693.543 Q1165.94 688.936 1165.94 680.209 Q1165.94 671.459 1168.99 666.876 Q1172.07 662.27 1177.88 662.27 Z" fill="#000000" fill-rule="nonzero" fill-opacity="1" /><path clip-path="url(#clip270)" d="M1208.04 665.973 Q1204.43 665.973 1202.6 669.538 Q1200.8 673.08 1200.8 680.209 Q1200.8 687.316 1202.6 690.88 Q1204.43 694.422 1208.04 694.422 Q1211.68 694.422 1213.48 690.88 Q1215.31 687.316 1215.31 680.209 Q1215.31 673.08 1213.48 669.538 Q1211.68 665.973 1208.04 665.973 M1208.04 662.27 Q1213.85 662.27 1216.91 666.876 Q1219.99 671.459 1219.99 680.209 Q1219.99 688.936 1216.91 693.543 Q1213.85 698.126 1208.04 698.126 Q1202.23 698.126 1199.15 693.543 Q1196.1 688.936 1196.1 680.209 Q1196.1 671.459 1199.15 666.876 Q1202.23 662.27 1208.04 662.27 Z" fill="#000000" fill-rule="nonzero" fill-opacity="1" /><path clip-path="url(#clip270)" d="M1238.78 678.311 Q1235.64 678.311 1233.78 680.464 Q1231.95 682.617 1231.95 686.367 Q1231.95 690.093 1233.78 692.269 Q1235.64 694.422 1238.78 694.422 Q1241.93 694.422 1243.76 692.269 Q1245.61 690.093 1245.61 686.367 Q1245.61 682.617 1243.76 680.464 Q1241.93 678.311 1238.78 678.311 M1248.07 663.658 L1248.07 667.918 Q1246.31 667.084 1244.5 666.645 Q1242.72 666.205 1240.96 666.205 Q1236.33 666.205 1233.88 669.33 Q1231.45 672.455 1231.1 678.774 Q1232.46 676.76 1234.52 675.695 Q1236.58 674.607 1239.06 674.607 Q1244.27 674.607 1247.28 677.779 Q1250.31 680.927 1250.31 686.367 Q1250.31 691.691 1247.16 694.908 Q1244.01 698.126 1238.78 698.126 Q1232.79 698.126 1229.62 693.543 Q1226.45 688.936 1226.45 680.209 Q1226.45 672.015 1230.33 667.154 Q1234.22 662.27 1240.77 662.27 Q1242.53 662.27 1244.32 662.617 Q1246.12 662.964 1248.07 663.658 Z" fill="#000000" fill-rule="nonzero" fill-opacity="1" /><path clip-path="url(#clip270)" d="M1132.9 555.898 Q1129.29 555.898 1127.46 559.463 Q1125.66 563.005 1125.66 570.134 Q1125.66 577.241 1127.46 580.806 Q1129.29 584.347 1132.9 584.347 Q1136.54 584.347 1138.34 580.806 Q1140.17 577.241 1140.17 570.134 Q1140.17 563.005 1138.34 559.463 Q1136.54 555.898 1132.9 555.898 M1132.9 552.195 Q1138.71 552.195 1141.77 556.801 Q1144.85 561.384 1144.85 570.134 Q1144.85 578.861 1141.77 583.468 Q1138.71 588.051 1132.9 588.051 Q1127.09 588.051 1124.02 583.468 Q1120.96 578.861 1120.96 570.134 Q1120.96 561.384 1124.02 556.801 Q1127.09 552.195 1132.9 552.195 Z" fill="#000000" fill-rule="nonzero" fill-opacity="1" /><path clip-path="url(#clip270)" d="M1153.07 581.5 L1157.95 581.5 L1157.95 587.38 L1153.07 587.38 L1153.07 581.5 Z" fill="#000000" fill-rule="nonzero" fill-opacity="1" /><path clip-path="url(#clip270)" d="M1178.14 555.898 Q1174.52 555.898 1172.7 559.463 Q1170.89 563.005 1170.89 570.134 Q1170.89 577.241 1172.7 580.806 Q1174.52 584.347 1178.14 584.347 Q1181.77 584.347 1183.58 580.806 Q1185.4 577.241 1185.4 570.134 Q1185.4 563.005 1183.58 559.463 Q1181.77 555.898 1178.14 555.898 M1178.14 552.195 Q1183.95 552.195 1187 556.801 Q1190.08 561.384 1190.08 570.134 Q1190.08 578.861 1187 583.468 Q1183.95 588.051 1178.14 588.051 Q1172.33 588.051 1169.25 583.468 Q1166.19 578.861 1166.19 570.134 Q1166.19 561.384 1169.25 556.801 Q1172.33 552.195 1178.14 552.195 Z" fill="#000000" fill-rule="nonzero" fill-opacity="1" /><path clip-path="url(#clip270)" d="M1208.3 555.898 Q1204.69 555.898 1202.86 559.463 Q1201.05 563.005 1201.05 570.134 Q1201.05 577.241 1202.86 580.806 Q1204.69 584.347 1208.3 584.347 Q1211.93 584.347 1213.74 580.806 Q1215.57 577.241 1215.57 570.134 Q1215.57 563.005 1213.74 559.463 Q1211.93 555.898 1208.3 555.898 M1208.3 552.195 Q1214.11 552.195 1217.16 556.801 Q1220.24 561.384 1220.24 570.134 Q1220.24 578.861 1217.16 583.468 Q1214.11 588.051 1208.3 588.051 Q1202.49 588.051 1199.41 583.468 Q1196.35 578.861 1196.35 570.134 Q1196.35 561.384 1199.41 556.801 Q1202.49 552.195 1208.3 552.195 Z" fill="#000000" fill-rule="nonzero" fill-opacity="1" /><path clip-path="url(#clip270)" d="M1238.46 570.968 Q1235.13 570.968 1233.2 572.75 Q1231.31 574.533 1231.31 577.658 Q1231.31 580.782 1233.2 582.565 Q1235.13 584.347 1238.46 584.347 Q1241.79 584.347 1243.71 582.565 Q1245.64 580.759 1245.64 577.658 Q1245.64 574.533 1243.71 572.75 Q1241.82 570.968 1238.46 570.968 M1233.78 568.977 Q1230.77 568.236 1229.08 566.176 Q1227.42 564.116 1227.42 561.153 Q1227.42 557.009 1230.36 554.602 Q1233.32 552.195 1238.46 552.195 Q1243.62 552.195 1246.56 554.602 Q1249.5 557.009 1249.5 561.153 Q1249.5 564.116 1247.81 566.176 Q1246.14 568.236 1243.16 568.977 Q1246.54 569.764 1248.41 572.056 Q1250.31 574.347 1250.31 577.658 Q1250.31 582.681 1247.23 585.366 Q1244.18 588.051 1238.46 588.051 Q1232.74 588.051 1229.66 585.366 Q1226.61 582.681 1226.61 577.658 Q1226.61 574.347 1228.51 572.056 Q1230.4 569.764 1233.78 568.977 M1232.07 561.593 Q1232.07 564.278 1233.74 565.783 Q1235.43 567.287 1238.46 567.287 Q1241.47 567.287 1243.16 565.783 Q1244.87 564.278 1244.87 561.593 Q1244.87 558.908 1243.16 557.403 Q1241.47 555.898 1238.46 555.898 Q1235.43 555.898 1233.74 557.403 Q1232.07 558.908 1232.07 561.593 Z" fill="#000000" fill-rule="nonzero" fill-opacity="1" /><path clip-path="url(#clip270)" d="M1132.81 445.824 Q1129.2 445.824 1127.37 449.388 Q1125.57 452.93 1125.57 460.06 Q1125.57 467.166 1127.37 470.731 Q1129.2 474.272 1132.81 474.272 Q1136.45 474.272 1138.25 470.731 Q1140.08 467.166 1140.08 460.06 Q1140.08 452.93 1138.25 449.388 Q1136.45 445.824 1132.81 445.824 M1132.81 442.12 Q1138.62 442.12 1141.68 446.726 Q1144.76 451.31 1144.76 460.06 Q1144.76 468.786 1141.68 473.393 Q1138.62 477.976 1132.81 477.976 Q1127 477.976 1123.92 473.393 Q1120.87 468.786 1120.87 460.06 Q1120.87 451.31 1123.92 446.726 Q1127 442.12 1132.81 442.12 Z" fill="#000000" fill-rule="nonzero" fill-opacity="1" /><path clip-path="url(#clip270)" d="M1152.97 471.425 L1157.86 471.425 L1157.86 477.305 L1152.97 477.305 L1152.97 471.425 Z" fill="#000000" fill-rule="nonzero" fill-opacity="1" /><path clip-path="url(#clip270)" d="M1178.04 445.824 Q1174.43 445.824 1172.6 449.388 Q1170.8 452.93 1170.8 460.06 Q1170.8 467.166 1172.6 470.731 Q1174.43 474.272 1178.04 474.272 Q1181.68 474.272 1183.48 470.731 Q1185.31 467.166 1185.31 460.06 Q1185.31 452.93 1183.48 449.388 Q1181.68 445.824 1178.04 445.824 M1178.04 442.12 Q1183.85 442.12 1186.91 446.726 Q1189.99 451.31 1189.99 460.06 Q1189.99 468.786 1186.91 473.393 Q1183.85 477.976 1178.04 477.976 Q1172.23 477.976 1169.15 473.393 Q1166.1 468.786 1166.1 460.06 Q1166.1 451.31 1169.15 446.726 Q1172.23 442.12 1178.04 442.12 Z" fill="#000000" fill-rule="nonzero" fill-opacity="1" /><path clip-path="url(#clip270)" d="M1199.02 473.37 L1206.65 473.37 L1206.65 447.004 L1198.34 448.671 L1198.34 444.411 L1206.61 442.745 L1211.28 442.745 L1211.28 473.37 L1218.92 473.37 L1218.92 477.305 L1199.02 477.305 L1199.02 473.37 Z" fill="#000000" fill-rule="nonzero" fill-opacity="1" /><path clip-path="url(#clip270)" d="M1238.37 445.824 Q1234.76 445.824 1232.93 449.388 Q1231.12 452.93 1231.12 460.06 Q1231.12 467.166 1232.93 470.731 Q1234.76 474.272 1238.37 474.272 Q1242 474.272 1243.81 470.731 Q1245.64 467.166 1245.64 460.06 Q1245.64 452.93 1243.81 449.388 Q1242 445.824 1238.37 445.824 M1238.37 442.12 Q1244.18 442.12 1247.23 446.726 Q1250.31 451.31 1250.31 460.06 Q1250.31 468.786 1247.23 473.393 Q1244.18 477.976 1238.37 477.976 Q1232.56 477.976 1229.48 473.393 Q1226.42 468.786 1226.42 460.06 Q1226.42 451.31 1229.48 446.726 Q1232.56 442.12 1238.37 442.12 Z" fill="#000000" fill-rule="nonzero" fill-opacity="1" /><polyline clip-path="url(#clip273)" style="stroke:#0000ff; stroke-linecap:round; stroke-linejoin:round; stroke-width:4; stroke-opacity:1; fill:none" points="-2552.89,-43937.8 -2503.98,-40425.5 -2455.06,-37229.4 -2406.15,-34317.1 -2357.23,-31660.4 -2308.32,-29233.9 -2259.41,-27015 -2210.49,-24983.7 -2161.58,-23122.2 -2112.66,-21414.3 -2063.75,-19845.8 -2014.84,-18403.8 -1965.92,-17076.8 -1917.01,-15854.4 -1868.09,-14727.4 -1819.18,-13687.2 -1770.27,-12726.3 -1721.35,-11838 -1672.44,-11015.9 -1623.52,-10254.6 -1574.61,-9548.89 -1525.7,-8894.23 -1476.78,-8286.44 -1427.87,-7721.72 -1378.95,-7196.62 -1330.04,-6707.99 -1281.13,-6252.97 -1232.21,-5828.93 -1183.3,-5433.5 -1134.38,-5064.49 -1085.47,-4719.89 -1036.55,-4397.89 -987.641,-4096.8 -938.727,-3815.08 -889.813,-3551.33 -840.899,-3304.25 -791.985,-3072.63 -743.071,-2855.4 -694.157,-2651.53 -645.243,-2460.09 -596.329,-2280.23 -547.415,-2111.15 -498.501,-1952.12 -449.586,-1802.46 -400.672,-1661.55 -351.758,-1528.8 -302.844,-1403.69 -253.93,-1285.71 -205.016,-1174.4 -156.102,-1069.34 -107.188,-970.121 -58.2741,-876.383 -9.3601,-787.781 39.5539,-703.995 88.468,-624.728 137.382,-549.704 186.296,-478.666 235.21,-411.373 284.124,-347.601 333.038,-287.142 381.952,-229.8 430.866,-175.392 479.78,-123.749 528.694,-74.711 577.608,-28.1289 626.522,16.1369 675.436,58.217 724.351,98.2339 773.265,136.302 822.179,172.53 871.093,207.018 920.007,239.862 968.921,271.149 1017.83,300.964 1066.75,329.386 1115.66,356.488 1164.58,382.34 1213.49,407.008 1262.4,430.553 1311.32,453.032 1360.23,474.502 1409.15,495.013 1458.06,514.613 1506.98,533.35 1555.89,551.266 1604.8,568.401 1653.72,584.796 1702.63,600.485 1751.55,615.503 1800.46,629.883 1849.37,643.657 1898.29,656.852 1947.2,669.496 1996.12,681.616 2045.03,693.236 2093.94,704.38 2142.86,715.07 2191.77,725.327 2240.69,735.17 2289.6,744.619 "/>
<polyline clip-path="url(#clip273)" style="stroke:#ff0000; stroke-linecap:round; stroke-linejoin:round; stroke-width:4; stroke-opacity:1; fill:none" points="-2552.89,-43937.8 -2503.98,-40425.5 -2455.06,-37229.4 -2406.15,-34317.1 -2357.23,-31660.4 -2308.32,-29233.9 -2259.41,-27015 -2210.49,-24983.7 -2161.58,-23122.2 -2112.66,-21414.3 -2063.75,-19845.8 -2014.84,-18403.8 -1965.92,-17076.8 -1917.01,-15854.5 -1868.09,-14727.3 -1819.18,-13687.1 -1770.27,-12726.3 -1721.35,-11838 -1672.44,-11016 -1623.52,-10254.6 -1574.61,-9548.86 -1525.7,-8894.21 -1476.78,-8286.47 -1427.87,-7721.79 -1378.95,-7196.68 -1330.04,-6708.03 -1281.13,-6252.96 -1232.21,-5828.93 -1183.3,-5433.53 -1134.38,-5064.55 -1085.47,-4719.97 -1036.55,-4397.96 -987.641,-4096.85 -938.727,-3815.1 -889.813,-3551.34 -840.899,-3304.28 -791.985,-3072.7 -743.071,-2855.48 -694.157,-2651.61 -645.243,-2460.17 -596.329,-2280.28 -547.415,-2111.18 -498.501,-1952.14 -449.586,-1802.5 -400.672,-1661.61 -351.758,-1528.88 -302.844,-1403.77 -253.93,-1285.79 -205.016,-1174.47 -156.102,-1069.39 -107.188,-970.156 -58.2741,-876.416 -9.3601,-787.822 39.5539,-704.049 88.468,-624.794 137.382,-549.776 186.296,-478.736 235.21,-411.438 284.124,-347.629 333.038,-287.102 381.952,-229.701 430.866,-175.266 479.78,-123.64 528.694,-74.6646 577.608,-28.1828 626.522,15.9631 675.436,57.9302 724.351,97.875 773.265,135.973 822.179,172.454 871.093,207.37 920.007,242.365 968.921,277.955 1017.83,314.084 1066.75,350.723 1115.66,387.88 1164.58,425.631 1213.49,464.145 1262.4,503.727 1311.32,544.253 1360.23,585.441 1409.15,627.185 1458.06,669.423 1506.98,712.198 1555.89,758.695 1604.8,805.535 1653.72,839.267 1702.63,856.344 1751.55,878.729 1800.46,912.292 1849.37,1010.4 1898.29,1010.4 1947.2,1010.4 1996.12,1010.4 2045.03,1010.4 2093.94,1010.4 2142.86,1010.4 2191.77,1010.4 2240.69,1010.4 2289.6,1010.4 "/>
<circle clip-path="url(#clip273)" cx="1849.37" cy="1010.4" r="14.4" fill="#ff0000" fill-rule="evenodd" fill-opacity="1" stroke="#000000" stroke-opacity="1" stroke-width="3.2"/>
</svg>
