<?xml version="1.0" encoding="utf-8"?>
<svg xmlns="http://www.w3.org/2000/svg" xmlns:xlink="http://www.w3.org/1999/xlink" width="600" height="400" viewBox="0 0 2400 1600">
<defs>
  <clipPath id="clip320">
    <rect x="0" y="0" width="2400" height="1600"/>
  </clipPath>
</defs>
<path clip-path="url(#clip320)" d="
M0 1600 L2400 1600 L2400 0 L0 0  Z
  " fill="#ffffff" fill-rule="evenodd" fill-opacity="1"/>
<defs>
  <clipPath id="clip321">
    <rect x="480" y="0" width="1681" height="1600"/>
  </clipPath>
</defs>
<path clip-path="url(#clip320)" d="
M219.288 1423.18 L2352.76 1423.18 L2352.76 47.2441 L219.288 47.2441  Z
  " fill="#ffffff" fill-rule="evenodd" fill-opacity="1"/>
<defs>
  <clipPath id="clip322">
    <rect x="219" y="47" width="2134" height="1377"/>
  </clipPath>
</defs>
<polyline clip-path="url(#clip322)" style="stroke:#000000; stroke-linecap:butt; stroke-linejoin:round; stroke-width:2; stroke-opacity:0.1; fill:none" points="
  279.669,1423.18 279.669,47.2441 
  "/>
<polyline clip-path="url(#clip322)" style="stroke:#000000; stroke-linecap:butt; stroke-linejoin:round; stroke-width:2; stroke-opacity:0.1; fill:none" points="
  793.114,1423.18 793.114,47.2441 
  "/>
<polyline clip-path="url(#clip322)" style="stroke:#000000; stroke-linecap:butt; stroke-linejoin:round; stroke-width:2; stroke-opacity:0.1; fill:none" points="
  1306.56,1423.18 1306.56,47.2441 
  "/>
<polyline clip-path="url(#clip322)" style="stroke:#000000; stroke-linecap:butt; stroke-linejoin:round; stroke-width:2; stroke-opacity:0.1; fill:none" points="
  1820,1423.18 1820,47.2441 
  "/>
<polyline clip-path="url(#clip322)" style="stroke:#000000; stroke-linecap:butt; stroke-linejoin:round; stroke-width:2; stroke-opacity:0.1; fill:none" points="
  2333.45,1423.18 2333.45,47.2441 
  "/>
<polyline clip-path="url(#clip320)" style="stroke:#000000; stroke-linecap:butt; stroke-linejoin:round; stroke-width:4; stroke-opacity:1; fill:none" points="
  219.288,1423.18 2352.76,1423.18 
  "/>
<polyline clip-path="url(#clip320)" style="stroke:#000000; stroke-linecap:butt; stroke-linejoin:round; stroke-width:4; stroke-opacity:1; fill:none" points="
  279.669,1423.18 279.669,1404.28 
  "/>
<polyline clip-path="url(#clip320)" style="stroke:#000000; stroke-linecap:butt; stroke-linejoin:round; stroke-width:4; stroke-opacity:1; fill:none" points="
  793.114,1423.18 793.114,1404.28 
  "/>
<polyline clip-path="url(#clip320)" style="stroke:#000000; stroke-linecap:butt; stroke-linejoin:round; stroke-width:4; stroke-opacity:1; fill:none" points="
  1306.56,1423.18 1306.56,1404.28 
  "/>
<polyline clip-path="url(#clip320)" style="stroke:#000000; stroke-linecap:butt; stroke-linejoin:round; stroke-width:4; stroke-opacity:1; fill:none" points="
  1820,1423.18 1820,1404.28 
  "/>
<polyline clip-path="url(#clip320)" style="stroke:#000000; stroke-linecap:butt; stroke-linejoin:round; stroke-width:4; stroke-opacity:1; fill:none" points="
  2333.45,1423.18 2333.45,1404.28 
  "/>
<path clip-path="url(#clip320)" d="M257.053 1454.1 Q253.442 1454.1 251.613 1457.66 Q249.808 1461.2 249.808 1468.33 Q249.808 1475.44 251.613 1479.01 Q253.442 1482.55 257.053 1482.55 Q260.687 1482.55 262.493 1479.01 Q264.322 1475.44 264.322 1468.33 Q264.322 1461.2 262.493 1457.66 Q260.687 1454.1 257.053 1454.1 M257.053 1450.39 Q262.863 1450.39 265.919 1455 Q268.998 1459.58 268.998 1468.33 Q268.998 1477.06 265.919 1481.67 Q262.863 1486.25 257.053 1486.25 Q251.243 1486.25 248.164 1481.67 Q245.109 1477.06 245.109 1468.33 Q245.109 1459.58 248.164 1455 Q251.243 1450.39 257.053 1450.39 Z" fill="#000000" fill-rule="evenodd" fill-opacity="1" /><path clip-path="url(#clip320)" d="M277.215 1479.7 L282.099 1479.7 L282.099 1485.58 L277.215 1485.58 L277.215 1479.7 Z" fill="#000000" fill-rule="evenodd" fill-opacity="1" /><path clip-path="url(#clip320)" d="M302.284 1454.1 Q298.673 1454.1 296.845 1457.66 Q295.039 1461.2 295.039 1468.33 Q295.039 1475.44 296.845 1479.01 Q298.673 1482.55 302.284 1482.55 Q305.919 1482.55 307.724 1479.01 Q309.553 1475.44 309.553 1468.33 Q309.553 1461.2 307.724 1457.66 Q305.919 1454.1 302.284 1454.1 M302.284 1450.39 Q308.095 1450.39 311.15 1455 Q314.229 1459.58 314.229 1468.33 Q314.229 1477.06 311.15 1481.67 Q308.095 1486.25 302.284 1486.25 Q296.474 1486.25 293.396 1481.67 Q290.34 1477.06 290.34 1468.33 Q290.34 1459.58 293.396 1455 Q296.474 1450.39 302.284 1450.39 Z" fill="#000000" fill-rule="evenodd" fill-opacity="1" /><path clip-path="url(#clip320)" d="M771.297 1454.1 Q767.686 1454.1 765.857 1457.66 Q764.052 1461.2 764.052 1468.33 Q764.052 1475.44 765.857 1479.01 Q767.686 1482.55 771.297 1482.55 Q774.931 1482.55 776.737 1479.01 Q778.566 1475.44 778.566 1468.33 Q778.566 1461.2 776.737 1457.66 Q774.931 1454.1 771.297 1454.1 M771.297 1450.39 Q777.107 1450.39 780.163 1455 Q783.242 1459.58 783.242 1468.33 Q783.242 1477.06 780.163 1481.67 Q777.107 1486.25 771.297 1486.25 Q765.487 1486.25 762.408 1481.67 Q759.353 1477.06 759.353 1468.33 Q759.353 1459.58 762.408 1455 Q765.487 1450.39 771.297 1450.39 Z" fill="#000000" fill-rule="evenodd" fill-opacity="1" /><path clip-path="url(#clip320)" d="M791.459 1479.7 L796.343 1479.7 L796.343 1485.58 L791.459 1485.58 L791.459 1479.7 Z" fill="#000000" fill-rule="evenodd" fill-opacity="1" /><path clip-path="url(#clip320)" d="M810.556 1481.64 L826.876 1481.64 L826.876 1485.58 L804.931 1485.58 L804.931 1481.64 Q807.593 1478.89 812.177 1474.26 Q816.783 1469.61 817.964 1468.27 Q820.209 1465.74 821.089 1464.01 Q821.991 1462.25 821.991 1460.56 Q821.991 1457.8 820.047 1456.07 Q818.126 1454.33 815.024 1454.33 Q812.825 1454.33 810.371 1455.09 Q807.94 1455.86 805.163 1457.41 L805.163 1452.69 Q807.987 1451.55 810.44 1450.97 Q812.894 1450.39 814.931 1450.39 Q820.302 1450.39 823.496 1453.08 Q826.69 1455.77 826.69 1460.26 Q826.69 1462.39 825.88 1464.31 Q825.093 1466.2 822.987 1468.8 Q822.408 1469.47 819.306 1472.69 Q816.204 1475.88 810.556 1481.64 Z" fill="#000000" fill-rule="evenodd" fill-opacity="1" /><path clip-path="url(#clip320)" d="M1283.7 1454.1 Q1280.09 1454.1 1278.26 1457.66 Q1276.46 1461.2 1276.46 1468.33 Q1276.46 1475.44 1278.26 1479.01 Q1280.09 1482.55 1283.7 1482.55 Q1287.34 1482.55 1289.14 1479.01 Q1290.97 1475.44 1290.97 1468.33 Q1290.97 1461.2 1289.14 1457.66 Q1287.34 1454.1 1283.7 1454.1 M1283.7 1450.39 Q1289.51 1450.39 1292.57 1455 Q1295.65 1459.58 1295.65 1468.33 Q1295.65 1477.06 1292.57 1481.67 Q1289.51 1486.25 1283.7 1486.25 Q1277.89 1486.25 1274.81 1481.67 Q1271.76 1477.06 1271.76 1468.33 Q1271.76 1459.58 1274.81 1455 Q1277.89 1450.39 1283.7 1450.39 Z" fill="#000000" fill-rule="evenodd" fill-opacity="1" /><path clip-path="url(#clip320)" d="M1303.86 1479.7 L1308.75 1479.7 L1308.75 1485.58 L1303.86 1485.58 L1303.86 1479.7 Z" fill="#000000" fill-rule="evenodd" fill-opacity="1" /><path clip-path="url(#clip320)" d="M1331.78 1455.09 L1319.97 1473.54 L1331.78 1473.54 L1331.78 1455.09 M1330.55 1451.02 L1336.43 1451.02 L1336.43 1473.54 L1341.36 1473.54 L1341.36 1477.43 L1336.43 1477.43 L1336.43 1485.58 L1331.78 1485.58 L1331.78 1477.43 L1316.18 1477.43 L1316.18 1472.92 L1330.55 1451.02 Z" fill="#000000" fill-rule="evenodd" fill-opacity="1" /><path clip-path="url(#clip320)" d="M1797.31 1454.1 Q1793.7 1454.1 1791.87 1457.66 Q1790.06 1461.2 1790.06 1468.33 Q1790.06 1475.44 1791.87 1479.01 Q1793.7 1482.55 1797.31 1482.55 Q1800.94 1482.55 1802.75 1479.01 Q1804.58 1475.44 1804.58 1468.33 Q1804.58 1461.2 1802.75 1457.66 Q1800.94 1454.1 1797.31 1454.1 M1797.31 1450.39 Q1803.12 1450.39 1806.17 1455 Q1809.25 1459.58 1809.25 1468.33 Q1809.25 1477.06 1806.17 1481.67 Q1803.12 1486.25 1797.31 1486.25 Q1791.5 1486.25 1788.42 1481.67 Q1785.36 1477.06 1785.36 1468.33 Q1785.36 1459.58 1788.42 1455 Q1791.5 1450.39 1797.31 1450.39 Z" fill="#000000" fill-rule="evenodd" fill-opacity="1" /><path clip-path="url(#clip320)" d="M1817.47 1479.7 L1822.35 1479.7 L1822.35 1485.58 L1817.47 1485.58 L1817.47 1479.7 Z" fill="#000000" fill-rule="evenodd" fill-opacity="1" /><path clip-path="url(#clip320)" d="M1843.12 1466.44 Q1839.97 1466.44 1838.12 1468.59 Q1836.29 1470.74 1836.29 1474.49 Q1836.29 1478.22 1838.12 1480.39 Q1839.97 1482.55 1843.12 1482.55 Q1846.27 1482.55 1848.1 1480.39 Q1849.95 1478.22 1849.95 1474.49 Q1849.95 1470.74 1848.1 1468.59 Q1846.27 1466.44 1843.12 1466.44 M1852.4 1451.78 L1852.4 1456.04 Q1850.64 1455.21 1848.84 1454.77 Q1847.05 1454.33 1845.29 1454.33 Q1840.66 1454.33 1838.21 1457.45 Q1835.78 1460.58 1835.43 1466.9 Q1836.8 1464.89 1838.86 1463.82 Q1840.92 1462.73 1843.4 1462.73 Q1848.6 1462.73 1851.61 1465.9 Q1854.65 1469.05 1854.65 1474.49 Q1854.65 1479.82 1851.5 1483.03 Q1848.35 1486.25 1843.12 1486.25 Q1837.12 1486.25 1833.95 1481.67 Q1830.78 1477.06 1830.78 1468.33 Q1830.78 1460.14 1834.67 1455.28 Q1838.56 1450.39 1845.11 1450.39 Q1846.87 1450.39 1848.65 1450.74 Q1850.46 1451.09 1852.4 1451.78 Z" fill="#000000" fill-rule="evenodd" fill-opacity="1" /><path clip-path="url(#clip320)" d="M2310.88 1454.1 Q2307.27 1454.1 2305.44 1457.66 Q2303.64 1461.2 2303.64 1468.33 Q2303.64 1475.44 2305.44 1479.01 Q2307.27 1482.55 2310.88 1482.55 Q2314.52 1482.55 2316.32 1479.01 Q2318.15 1475.44 2318.15 1468.33 Q2318.15 1461.2 2316.32 1457.66 Q2314.52 1454.1 2310.88 1454.1 M2310.88 1450.39 Q2316.69 1450.39 2319.75 1455 Q2322.83 1459.58 2322.83 1468.33 Q2322.83 1477.06 2319.75 1481.67 Q2316.69 1486.25 2310.88 1486.25 Q2305.07 1486.25 2301.99 1481.67 Q2298.94 1477.06 2298.94 1468.33 Q2298.94 1459.58 2301.99 1455 Q2305.07 1450.39 2310.88 1450.39 Z" fill="#000000" fill-rule="evenodd" fill-opacity="1" /><path clip-path="url(#clip320)" d="M2331.04 1479.7 L2335.93 1479.7 L2335.93 1485.58 L2331.04 1485.58 L2331.04 1479.7 Z" fill="#000000" fill-rule="evenodd" fill-opacity="1" /><path clip-path="url(#clip320)" d="M2356.11 1469.17 Q2352.78 1469.17 2350.86 1470.95 Q2348.96 1472.73 2348.96 1475.86 Q2348.96 1478.98 2350.86 1480.77 Q2352.78 1482.55 2356.11 1482.55 Q2359.45 1482.55 2361.37 1480.77 Q2363.29 1478.96 2363.29 1475.86 Q2363.29 1472.73 2361.37 1470.95 Q2359.47 1469.17 2356.11 1469.17 M2351.44 1467.18 Q2348.43 1466.44 2346.74 1464.38 Q2345.07 1462.32 2345.07 1459.35 Q2345.07 1455.21 2348.01 1452.8 Q2350.97 1450.39 2356.11 1450.39 Q2361.27 1450.39 2364.21 1452.8 Q2367.15 1455.21 2367.15 1459.35 Q2367.15 1462.32 2365.46 1464.38 Q2363.8 1466.44 2360.81 1467.18 Q2364.19 1467.96 2366.07 1470.26 Q2367.96 1472.55 2367.96 1475.86 Q2367.96 1480.88 2364.89 1483.57 Q2361.83 1486.25 2356.11 1486.25 Q2350.39 1486.25 2347.32 1483.57 Q2344.26 1480.88 2344.26 1475.86 Q2344.26 1472.55 2346.16 1470.26 Q2348.06 1467.96 2351.44 1467.18 M2349.72 1459.79 Q2349.72 1462.48 2351.39 1463.98 Q2353.08 1465.49 2356.11 1465.49 Q2359.12 1465.49 2360.81 1463.98 Q2362.52 1462.48 2362.52 1459.79 Q2362.52 1457.11 2360.81 1455.6 Q2359.12 1454.1 2356.11 1454.1 Q2353.08 1454.1 2351.39 1455.6 Q2349.72 1457.11 2349.72 1459.79 Z" fill="#000000" fill-rule="evenodd" fill-opacity="1" /><path clip-path="url(#clip320)" d="M957.854 1525.81 L957.854 1543.66 L965.938 1543.66 Q970.426 1543.66 972.877 1541.34 Q975.328 1539.02 975.328 1534.72 Q975.328 1530.45 972.877 1528.13 Q970.426 1525.81 965.938 1525.81 L957.854 1525.81 M951.424 1520.52 L965.938 1520.52 Q973.927 1520.52 978.001 1524.15 Q982.107 1527.75 982.107 1534.72 Q982.107 1541.75 978.001 1545.35 Q973.927 1548.95 965.938 1548.95 L957.854 1548.95 L957.854 1568.04 L951.424 1568.04 L951.424 1520.52 Z" fill="#000000" fill-rule="evenodd" fill-opacity="1" /><path clip-path="url(#clip320)" d="M1009.99 1537.87 Q1009 1537.3 1007.82 1537.04 Q1006.68 1536.76 1005.28 1536.76 Q1000.31 1536.76 997.639 1540 Q994.998 1543.22 994.998 1549.27 L994.998 1568.04 L989.109 1568.04 L989.109 1532.4 L994.998 1532.4 L994.998 1537.93 Q996.844 1534.69 999.804 1533.13 Q1002.76 1531.54 1007 1531.54 Q1007.6 1531.54 1008.33 1531.63 Q1009.07 1531.7 1009.96 1531.85 L1009.99 1537.87 Z" fill="#000000" fill-rule="evenodd" fill-opacity="1" /><path clip-path="url(#clip320)" d="M1045.19 1548.76 L1045.19 1551.62 L1018.26 1551.62 Q1018.65 1557.67 1021.89 1560.85 Q1025.17 1564 1031 1564 Q1034.37 1564 1037.52 1563.17 Q1040.7 1562.35 1043.82 1560.69 L1043.82 1566.23 Q1040.67 1567.57 1037.36 1568.27 Q1034.05 1568.97 1030.65 1568.97 Q1022.12 1568.97 1017.12 1564 Q1012.15 1559.04 1012.15 1550.57 Q1012.15 1541.82 1016.86 1536.69 Q1021.61 1531.54 1029.63 1531.54 Q1036.82 1531.54 1040.99 1536.18 Q1045.19 1540.8 1045.19 1548.76 M1039.33 1547.04 Q1039.27 1542.23 1036.63 1539.37 Q1034.02 1536.5 1029.69 1536.5 Q1024.79 1536.5 1021.83 1539.27 Q1018.9 1542.04 1018.46 1547.07 L1039.33 1547.04 Z" fill="#000000" fill-rule="evenodd" fill-opacity="1" /><path clip-path="url(#clip320)" d="M1077.53 1533.45 L1077.53 1538.98 Q1075.05 1537.71 1072.37 1537.07 Q1069.7 1536.44 1066.83 1536.44 Q1062.47 1536.44 1060.28 1537.77 Q1058.11 1539.11 1058.11 1541.79 Q1058.11 1543.82 1059.67 1545 Q1061.23 1546.15 1065.94 1547.2 L1067.95 1547.64 Q1074.19 1548.98 1076.8 1551.43 Q1079.44 1553.85 1079.44 1558.21 Q1079.44 1563.17 1075.49 1566.07 Q1071.58 1568.97 1064.7 1568.97 Q1061.84 1568.97 1058.72 1568.39 Q1055.63 1567.85 1052.19 1566.74 L1052.19 1560.69 Q1055.44 1562.38 1058.59 1563.24 Q1061.74 1564.07 1064.83 1564.07 Q1068.97 1564.07 1071.2 1562.66 Q1073.42 1561.23 1073.42 1558.65 Q1073.42 1556.27 1071.8 1554.99 Q1070.21 1553.72 1064.77 1552.54 L1062.73 1552.07 Q1057.29 1550.92 1054.87 1548.56 Q1052.45 1546.18 1052.45 1542.04 Q1052.45 1537.01 1056.01 1534.27 Q1059.58 1531.54 1066.13 1531.54 Q1069.38 1531.54 1072.25 1532.01 Q1075.11 1532.49 1077.53 1533.45 Z" fill="#000000" fill-rule="evenodd" fill-opacity="1" /><path clip-path="url(#clip320)" d="M1111.49 1533.45 L1111.49 1538.98 Q1109.01 1537.71 1106.33 1537.07 Q1103.66 1536.44 1100.8 1536.44 Q1096.44 1536.44 1094.24 1537.77 Q1092.07 1539.11 1092.07 1541.79 Q1092.07 1543.82 1093.63 1545 Q1095.19 1546.15 1099.9 1547.2 L1101.91 1547.64 Q1108.15 1548.98 1110.76 1551.43 Q1113.4 1553.85 1113.4 1558.21 Q1113.4 1563.17 1109.45 1566.07 Q1105.54 1568.97 1098.66 1568.97 Q1095.8 1568.97 1092.68 1568.39 Q1089.59 1567.85 1086.15 1566.74 L1086.15 1560.69 Q1089.4 1562.38 1092.55 1563.24 Q1095.7 1564.07 1098.79 1564.07 Q1102.93 1564.07 1105.16 1562.66 Q1107.38 1561.23 1107.38 1558.65 Q1107.38 1556.27 1105.76 1554.99 Q1104.17 1553.72 1098.73 1552.54 L1096.69 1552.07 Q1091.25 1550.92 1088.83 1548.56 Q1086.41 1546.18 1086.41 1542.04 Q1086.41 1537.01 1089.97 1534.27 Q1093.54 1531.54 1100.1 1531.54 Q1103.34 1531.54 1106.21 1532.01 Q1109.07 1532.49 1111.49 1533.45 Z" fill="#000000" fill-rule="evenodd" fill-opacity="1" /><path clip-path="url(#clip320)" d="M1122.12 1553.98 L1122.12 1532.4 L1127.98 1532.4 L1127.98 1553.75 Q1127.98 1558.81 1129.95 1561.36 Q1131.92 1563.87 1135.87 1563.87 Q1140.61 1563.87 1143.35 1560.85 Q1146.12 1557.83 1146.12 1552.61 L1146.12 1532.4 L1151.98 1532.4 L1151.98 1568.04 L1146.12 1568.04 L1146.12 1562.57 Q1143.99 1565.82 1141.15 1567.41 Q1138.35 1568.97 1134.63 1568.97 Q1128.49 1568.97 1125.3 1565.15 Q1122.12 1561.33 1122.12 1553.98 M1136.86 1531.54 L1136.86 1531.54 Z" fill="#000000" fill-rule="evenodd" fill-opacity="1" /><path clip-path="url(#clip320)" d="M1184.7 1537.87 Q1183.71 1537.3 1182.53 1537.04 Q1181.39 1536.76 1179.98 1536.76 Q1175.02 1536.76 1172.35 1540 Q1169.7 1543.22 1169.7 1549.27 L1169.7 1568.04 L1163.82 1568.04 L1163.82 1532.4 L1169.7 1532.4 L1169.7 1537.93 Q1171.55 1534.69 1174.51 1533.13 Q1177.47 1531.54 1181.7 1531.54 Q1182.31 1531.54 1183.04 1531.63 Q1183.77 1531.7 1184.66 1531.85 L1184.7 1537.87 Z" fill="#000000" fill-rule="evenodd" fill-opacity="1" /><path clip-path="url(#clip320)" d="M1219.9 1548.76 L1219.9 1551.62 L1192.97 1551.62 Q1193.35 1557.67 1196.6 1560.85 Q1199.88 1564 1205.7 1564 Q1209.08 1564 1212.23 1563.17 Q1215.41 1562.35 1218.53 1560.69 L1218.53 1566.23 Q1215.38 1567.57 1212.07 1568.27 Q1208.76 1568.97 1205.35 1568.97 Q1196.82 1568.97 1191.83 1564 Q1186.86 1559.04 1186.86 1550.57 Q1186.86 1541.82 1191.57 1536.69 Q1196.31 1531.54 1204.33 1531.54 Q1211.53 1531.54 1215.7 1536.18 Q1219.9 1540.8 1219.9 1548.76 M1214.04 1547.04 Q1213.98 1542.23 1211.34 1539.37 Q1208.73 1536.5 1204.4 1536.5 Q1199.5 1536.5 1196.54 1539.27 Q1193.61 1542.04 1193.16 1547.07 L1214.04 1547.04 Z" fill="#000000" fill-rule="evenodd" fill-opacity="1" /><path clip-path="url(#clip320)" d="M1273.02 1545.76 Q1275.09 1546.46 1277.03 1548.76 Q1279 1551.05 1280.98 1555.06 L1287.5 1568.04 L1280.59 1568.04 L1274.52 1555.85 Q1272.16 1551.08 1269.93 1549.52 Q1267.74 1547.96 1263.92 1547.96 L1256.91 1547.96 L1256.91 1568.04 L1250.49 1568.04 L1250.49 1520.52 L1265 1520.52 Q1273.15 1520.52 1277.16 1523.93 Q1281.17 1527.34 1281.17 1534.21 Q1281.17 1538.7 1279.07 1541.66 Q1277 1544.62 1273.02 1545.76 M1256.91 1525.81 L1256.91 1542.68 L1265 1542.68 Q1269.65 1542.68 1272 1540.54 Q1274.39 1538.38 1274.39 1534.21 Q1274.39 1530.04 1272 1527.94 Q1269.65 1525.81 1265 1525.81 L1256.91 1525.81 Z" fill="#000000" fill-rule="evenodd" fill-opacity="1" /><path clip-path="url(#clip320)" d="M1310.29 1550.12 Q1303.19 1550.12 1300.46 1551.75 Q1297.72 1553.37 1297.72 1557.29 Q1297.72 1560.4 1299.76 1562.25 Q1301.82 1564.07 1305.36 1564.07 Q1310.23 1564.07 1313.16 1560.63 Q1316.12 1557.16 1316.12 1551.43 L1316.12 1550.12 L1310.29 1550.12 M1321.97 1547.71 L1321.97 1568.04 L1316.12 1568.04 L1316.12 1562.63 Q1314.11 1565.88 1311.12 1567.44 Q1308.13 1568.97 1303.8 1568.97 Q1298.32 1568.97 1295.08 1565.91 Q1291.86 1562.82 1291.86 1557.67 Q1291.86 1551.65 1295.87 1548.6 Q1299.91 1545.54 1307.9 1545.54 L1316.12 1545.54 L1316.12 1544.97 Q1316.12 1540.93 1313.44 1538.73 Q1310.8 1536.5 1305.99 1536.5 Q1302.94 1536.5 1300.04 1537.23 Q1297.15 1537.97 1294.47 1539.43 L1294.47 1534.02 Q1297.69 1532.78 1300.71 1532.17 Q1303.73 1531.54 1306.6 1531.54 Q1314.33 1531.54 1318.15 1535.55 Q1321.97 1539.56 1321.97 1547.71 Z" fill="#000000" fill-rule="evenodd" fill-opacity="1" /><path clip-path="url(#clip320)" d="M1339.83 1522.27 L1339.83 1532.4 L1351.89 1532.4 L1351.89 1536.95 L1339.83 1536.95 L1339.83 1556.3 Q1339.83 1560.66 1341.01 1561.9 Q1342.22 1563.14 1345.88 1563.14 L1351.89 1563.14 L1351.89 1568.04 L1345.88 1568.04 Q1339.1 1568.04 1336.52 1565.53 Q1333.94 1562.98 1333.94 1556.3 L1333.94 1536.95 L1329.64 1536.95 L1329.64 1532.4 L1333.94 1532.4 L1333.94 1522.27 L1339.83 1522.27 Z" fill="#000000" fill-rule="evenodd" fill-opacity="1" /><path clip-path="url(#clip320)" d="M1359.59 1532.4 L1365.45 1532.4 L1365.45 1568.04 L1359.59 1568.04 L1359.59 1532.4 M1359.59 1518.52 L1365.45 1518.52 L1365.45 1525.93 L1359.59 1525.93 L1359.59 1518.52 Z" fill="#000000" fill-rule="evenodd" fill-opacity="1" /><path clip-path="url(#clip320)" d="M1391.52 1536.5 Q1386.81 1536.5 1384.07 1540.19 Q1381.33 1543.85 1381.33 1550.25 Q1381.33 1556.65 1384.04 1560.34 Q1386.77 1564 1391.52 1564 Q1396.2 1564 1398.93 1560.31 Q1401.67 1556.62 1401.67 1550.25 Q1401.67 1543.92 1398.93 1540.23 Q1396.2 1536.5 1391.52 1536.5 M1391.52 1531.54 Q1399.16 1531.54 1403.52 1536.5 Q1407.88 1541.47 1407.88 1550.25 Q1407.88 1559 1403.52 1564 Q1399.16 1568.97 1391.52 1568.97 Q1383.85 1568.97 1379.49 1564 Q1375.16 1559 1375.16 1550.25 Q1375.16 1541.47 1379.49 1536.5 Q1383.85 1531.54 1391.52 1531.54 Z" fill="#000000" fill-rule="evenodd" fill-opacity="1" /><path clip-path="url(#clip320)" d="M1419.08 1559.96 L1425.8 1559.96 L1425.8 1565.43 L1420.58 1575.62 L1416.47 1575.62 L1419.08 1565.43 L1419.08 1559.96 Z" fill="#000000" fill-rule="evenodd" fill-opacity="1" /><path clip-path="url(#clip320)" d="M1475.16 1526.86 L1462.11 1562.7 L1488.24 1562.7 L1475.16 1526.86 M1453.39 1568.04 L1471.53 1520.52 L1478.82 1520.52 L1496.93 1568.04 L1453.39 1568.04 Z" fill="#000000" fill-rule="evenodd" fill-opacity="1" /><path clip-path="url(#clip320)" d="M1510.3 1525.81 L1510.3 1543.66 L1518.39 1543.66 Q1522.87 1543.66 1525.32 1541.34 Q1527.78 1539.02 1527.78 1534.72 Q1527.78 1530.45 1525.32 1528.13 Q1522.87 1525.81 1518.39 1525.81 L1510.3 1525.81 M1503.87 1520.52 L1518.39 1520.52 Q1526.37 1520.52 1530.45 1524.15 Q1534.55 1527.75 1534.55 1534.72 Q1534.55 1541.75 1530.45 1545.35 Q1526.37 1548.95 1518.39 1548.95 L1510.3 1548.95 L1510.3 1568.04 L1503.87 1568.04 L1503.87 1520.52 Z" fill="#000000" fill-rule="evenodd" fill-opacity="1" /><path clip-path="url(#clip320)" d="M1553.33 1520.52 L1558.74 1520.52 L1542.19 1574.09 L1536.78 1574.09 L1553.33 1520.52 Z" fill="#000000" fill-rule="evenodd" fill-opacity="1" /><path clip-path="url(#clip320)" d="M1571.57 1525.81 L1571.57 1543.66 L1579.66 1543.66 Q1584.14 1543.66 1586.59 1541.34 Q1589.05 1539.02 1589.05 1534.72 Q1589.05 1530.45 1586.59 1528.13 Q1584.14 1525.81 1579.66 1525.81 L1571.57 1525.81 M1565.14 1520.52 L1579.66 1520.52 Q1587.64 1520.52 1591.72 1524.15 Q1595.82 1527.75 1595.82 1534.72 Q1595.82 1541.75 1591.72 1545.35 Q1587.64 1548.95 1579.66 1548.95 L1571.57 1548.95 L1571.57 1568.04 L1565.14 1568.04 L1565.14 1520.52 Z" fill="#000000" fill-rule="evenodd" fill-opacity="1" /><path clip-path="url(#clip320)" d="M1603.02 1564.54 L1609.51 1564.54 L1609.51 1545.1 L1602.41 1546.4 L1602.41 1542.71 L1609.73 1541.47 L1614.09 1541.47 L1614.09 1564.54 L1620.62 1564.54 L1620.62 1568.04 L1603.02 1568.04 L1603.02 1564.54 Z" fill="#000000" fill-rule="evenodd" fill-opacity="1" /><polyline clip-path="url(#clip322)" style="stroke:#000000; stroke-linecap:butt; stroke-linejoin:round; stroke-width:2; stroke-opacity:0.1; fill:none" points="
  219.288,1322.43 2352.76,1322.43 
  "/>
<polyline clip-path="url(#clip322)" style="stroke:#000000; stroke-linecap:butt; stroke-linejoin:round; stroke-width:2; stroke-opacity:0.1; fill:none" points="
  219.288,910.346 2352.76,910.346 
  "/>
<polyline clip-path="url(#clip322)" style="stroke:#000000; stroke-linecap:butt; stroke-linejoin:round; stroke-width:2; stroke-opacity:0.1; fill:none" points="
  219.288,498.266 2352.76,498.266 
  "/>
<polyline clip-path="url(#clip322)" style="stroke:#000000; stroke-linecap:butt; stroke-linejoin:round; stroke-width:2; stroke-opacity:0.1; fill:none" points="
  219.288,86.1857 2352.76,86.1857 
  "/>
<polyline clip-path="url(#clip320)" style="stroke:#000000; stroke-linecap:butt; stroke-linejoin:round; stroke-width:4; stroke-opacity:1; fill:none" points="
  219.288,1423.18 219.288,47.2441 
  "/>
<polyline clip-path="url(#clip320)" style="stroke:#000000; stroke-linecap:butt; stroke-linejoin:round; stroke-width:4; stroke-opacity:1; fill:none" points="
  219.288,1322.43 238.185,1322.43 
  "/>
<polyline clip-path="url(#clip320)" style="stroke:#000000; stroke-linecap:butt; stroke-linejoin:round; stroke-width:4; stroke-opacity:1; fill:none" points="
  219.288,910.346 238.185,910.346 
  "/>
<polyline clip-path="url(#clip320)" style="stroke:#000000; stroke-linecap:butt; stroke-linejoin:round; stroke-width:4; stroke-opacity:1; fill:none" points="
  219.288,498.266 238.185,498.266 
  "/>
<polyline clip-path="url(#clip320)" style="stroke:#000000; stroke-linecap:butt; stroke-linejoin:round; stroke-width:4; stroke-opacity:1; fill:none" points="
  219.288,86.1857 238.185,86.1857 
  "/>
<path clip-path="url(#clip320)" d="M127.015 1308.22 Q123.404 1308.22 121.575 1311.79 Q119.769 1315.33 119.769 1322.46 Q119.769 1329.57 121.575 1333.13 Q123.404 1336.67 127.015 1336.67 Q130.649 1336.67 132.455 1333.13 Q134.283 1329.57 134.283 1322.46 Q134.283 1315.33 132.455 1311.79 Q130.649 1308.22 127.015 1308.22 M127.015 1304.52 Q132.825 1304.52 135.88 1309.13 Q138.959 1313.71 138.959 1322.46 Q138.959 1331.19 135.88 1335.79 Q132.825 1340.38 127.015 1340.38 Q121.205 1340.38 118.126 1335.79 Q115.07 1331.19 115.07 1322.46 Q115.07 1313.71 118.126 1309.13 Q121.205 1304.52 127.015 1304.52 Z" fill="#000000" fill-rule="evenodd" fill-opacity="1" /><path clip-path="url(#clip320)" d="M147.177 1333.83 L152.061 1333.83 L152.061 1339.71 L147.177 1339.71 L147.177 1333.83 Z" fill="#000000" fill-rule="evenodd" fill-opacity="1" /><path clip-path="url(#clip320)" d="M161.065 1305.15 L183.288 1305.15 L183.288 1307.14 L170.741 1339.71 L165.857 1339.71 L177.663 1309.08 L161.065 1309.08 L161.065 1305.15 Z" fill="#000000" fill-rule="evenodd" fill-opacity="1" /><path clip-path="url(#clip320)" d="M126.205 896.145 Q122.593 896.145 120.765 899.71 Q118.959 903.251 118.959 910.381 Q118.959 917.487 120.765 921.052 Q122.593 924.594 126.205 924.594 Q129.839 924.594 131.644 921.052 Q133.473 917.487 133.473 910.381 Q133.473 903.251 131.644 899.71 Q129.839 896.145 126.205 896.145 M126.205 892.441 Q132.015 892.441 135.07 897.048 Q138.149 901.631 138.149 910.381 Q138.149 919.108 135.07 923.714 Q132.015 928.297 126.205 928.297 Q120.394 928.297 117.316 923.714 Q114.26 919.108 114.26 910.381 Q114.26 901.631 117.316 897.048 Q120.394 892.441 126.205 892.441 Z" fill="#000000" fill-rule="evenodd" fill-opacity="1" /><path clip-path="url(#clip320)" d="M146.366 921.746 L151.251 921.746 L151.251 927.626 L146.366 927.626 L146.366 921.746 Z" fill="#000000" fill-rule="evenodd" fill-opacity="1" /><path clip-path="url(#clip320)" d="M171.436 911.214 Q168.102 911.214 166.181 912.996 Q164.283 914.779 164.283 917.904 Q164.283 921.029 166.181 922.811 Q168.102 924.594 171.436 924.594 Q174.769 924.594 176.69 922.811 Q178.612 921.006 178.612 917.904 Q178.612 914.779 176.69 912.996 Q174.792 911.214 171.436 911.214 M166.76 909.223 Q163.751 908.483 162.061 906.422 Q160.394 904.362 160.394 901.399 Q160.394 897.256 163.334 894.848 Q166.297 892.441 171.436 892.441 Q176.598 892.441 179.538 894.848 Q182.477 897.256 182.477 901.399 Q182.477 904.362 180.788 906.422 Q179.121 908.483 176.135 909.223 Q179.514 910.01 181.389 912.302 Q183.288 914.594 183.288 917.904 Q183.288 922.927 180.209 925.612 Q177.153 928.297 171.436 928.297 Q165.718 928.297 162.64 925.612 Q159.584 922.927 159.584 917.904 Q159.584 914.594 161.482 912.302 Q163.38 910.01 166.76 909.223 M165.047 901.839 Q165.047 904.524 166.714 906.029 Q168.403 907.534 171.436 907.534 Q174.445 907.534 176.135 906.029 Q177.848 904.524 177.848 901.839 Q177.848 899.154 176.135 897.649 Q174.445 896.145 171.436 896.145 Q168.403 896.145 166.714 897.649 Q165.047 899.154 165.047 901.839 Z" fill="#000000" fill-rule="evenodd" fill-opacity="1" /><path clip-path="url(#clip320)" d="M126.297 484.065 Q122.686 484.065 120.857 487.629 Q119.052 491.171 119.052 498.301 Q119.052 505.407 120.857 508.972 Q122.686 512.513 126.297 512.513 Q129.931 512.513 131.737 508.972 Q133.566 505.407 133.566 498.301 Q133.566 491.171 131.737 487.629 Q129.931 484.065 126.297 484.065 M126.297 480.361 Q132.107 480.361 135.163 484.967 Q138.242 489.551 138.242 498.301 Q138.242 507.027 135.163 511.634 Q132.107 516.217 126.297 516.217 Q120.487 516.217 117.408 511.634 Q114.353 507.027 114.353 498.301 Q114.353 489.551 117.408 484.967 Q120.487 480.361 126.297 480.361 Z" fill="#000000" fill-rule="evenodd" fill-opacity="1" /><path clip-path="url(#clip320)" d="M146.459 509.666 L151.343 509.666 L151.343 515.546 L146.459 515.546 L146.459 509.666 Z" fill="#000000" fill-rule="evenodd" fill-opacity="1" /><path clip-path="url(#clip320)" d="M161.667 514.828 L161.667 510.569 Q163.427 511.402 165.232 511.842 Q167.038 512.282 168.774 512.282 Q173.403 512.282 175.834 509.18 Q178.288 506.055 178.635 499.713 Q177.292 501.703 175.232 502.768 Q173.172 503.833 170.672 503.833 Q165.487 503.833 162.454 500.708 Q159.445 497.56 159.445 492.12 Q159.445 486.796 162.593 483.578 Q165.741 480.361 170.973 480.361 Q176.968 480.361 180.116 484.967 Q183.288 489.551 183.288 498.301 Q183.288 506.472 179.399 511.356 Q175.533 516.217 168.982 516.217 Q167.223 516.217 165.417 515.87 Q163.612 515.523 161.667 514.828 M170.973 500.176 Q174.121 500.176 175.95 498.023 Q177.801 495.87 177.801 492.12 Q177.801 488.393 175.95 486.24 Q174.121 484.065 170.973 484.065 Q167.825 484.065 165.973 486.24 Q164.144 488.393 164.144 492.12 Q164.144 495.87 165.973 498.023 Q167.825 500.176 170.973 500.176 Z" fill="#000000" fill-rule="evenodd" fill-opacity="1" /><path clip-path="url(#clip320)" d="M116.922 99.5305 L124.561 99.5305 L124.561 73.1649 L116.251 74.8316 L116.251 70.5723 L124.515 68.9057 L129.191 68.9057 L129.191 99.5305 L136.829 99.5305 L136.829 103.466 L116.922 103.466 L116.922 99.5305 Z" fill="#000000" fill-rule="evenodd" fill-opacity="1" /><path clip-path="url(#clip320)" d="M146.274 97.5861 L151.158 97.5861 L151.158 103.466 L146.274 103.466 L146.274 97.5861 Z" fill="#000000" fill-rule="evenodd" fill-opacity="1" /><path clip-path="url(#clip320)" d="M171.343 71.9844 Q167.732 71.9844 165.903 75.5492 Q164.098 79.0908 164.098 86.2204 Q164.098 93.3268 165.903 96.8916 Q167.732 100.433 171.343 100.433 Q174.977 100.433 176.783 96.8916 Q178.612 93.3268 178.612 86.2204 Q178.612 79.0908 176.783 75.5492 Q174.977 71.9844 171.343 71.9844 M171.343 68.2807 Q177.153 68.2807 180.209 72.8871 Q183.288 77.4704 183.288 86.2204 Q183.288 94.9472 180.209 99.5537 Q177.153 104.137 171.343 104.137 Q165.533 104.137 162.454 99.5537 Q159.399 94.9472 159.399 86.2204 Q159.399 77.4704 162.454 72.8871 Q165.533 68.2807 171.343 68.2807 Z" fill="#000000" fill-rule="evenodd" fill-opacity="1" /><path clip-path="url(#clip320)" d="M16.4842 1050.66 L16.4842 1020.62 L21.895 1020.62 L21.895 1044.24 L35.9632 1044.24 L35.9632 1021.61 L41.3741 1021.61 L41.3741 1044.24 L58.5933 1044.24 L58.5933 1020.05 L64.0042 1020.05 L64.0042 1050.66 L16.4842 1050.66 Z" fill="#000000" fill-rule="evenodd" fill-opacity="1" /><path clip-path="url(#clip320)" d="M28.3562 980.101 L45.7028 992.991 L64.0042 979.432 L64.0042 986.339 L49.9996 996.715 L64.0042 1007.09 L64.0042 1014 L45.3526 1000.15 L28.3562 1012.82 L28.3562 1005.91 L41.0558 996.461 L28.3562 987.007 L28.3562 980.101 Z" fill="#000000" fill-rule="evenodd" fill-opacity="1" /><path clip-path="url(#clip320)" d="M58.657 965.491 L77.5631 965.491 L77.5631 971.38 L28.3562 971.38 L28.3562 965.491 L33.7671 965.491 Q30.5842 963.645 29.0564 960.844 Q27.4968 958.012 27.4968 954.097 Q27.4968 947.604 32.6531 943.562 Q37.8093 939.487 46.212 939.487 Q54.6147 939.487 59.771 943.562 Q64.9272 947.604 64.9272 954.097 Q64.9272 958.012 63.3994 960.844 Q61.8398 963.645 58.657 965.491 M46.212 945.567 Q39.7508 945.567 36.0905 948.24 Q32.3984 950.882 32.3984 955.529 Q32.3984 960.176 36.0905 962.85 Q39.7508 965.491 46.212 965.491 Q52.6732 965.491 56.3653 962.85 Q60.0256 960.176 60.0256 955.529 Q60.0256 950.882 56.3653 948.24 Q52.6732 945.567 46.212 945.567 Z" fill="#000000" fill-rule="evenodd" fill-opacity="1" /><path clip-path="url(#clip320)" d="M46.0847 913.579 Q46.0847 920.677 47.7079 923.414 Q49.3312 926.151 53.2461 926.151 Q56.3653 926.151 58.2114 924.114 Q60.0256 922.045 60.0256 918.512 Q60.0256 913.643 56.5881 910.715 Q53.1188 907.754 47.3897 907.754 L46.0847 907.754 L46.0847 913.579 M43.6657 901.898 L64.0042 901.898 L64.0042 907.754 L58.5933 907.754 Q61.8398 909.76 63.3994 912.752 Q64.9272 915.743 64.9272 920.072 Q64.9272 925.547 61.8716 928.793 Q58.7843 932.008 53.6281 932.008 Q47.6125 932.008 44.5569 927.997 Q41.5014 923.955 41.5014 915.966 L41.5014 907.754 L40.9285 907.754 Q36.8862 907.754 34.6901 910.428 Q32.4621 913.07 32.4621 917.876 Q32.4621 920.931 33.1941 923.828 Q33.9262 926.724 35.3903 929.398 L29.9795 929.398 Q28.7381 926.183 28.1334 923.159 Q27.4968 920.136 27.4968 917.271 Q27.4968 909.537 31.5072 905.717 Q35.5176 901.898 43.6657 901.898 Z" fill="#000000" fill-rule="evenodd" fill-opacity="1" /><path clip-path="url(#clip320)" d="M42.4881 860.203 L64.0042 860.203 L64.0042 866.059 L42.679 866.059 Q37.6183 866.059 35.1038 868.032 Q32.5894 870.006 32.5894 873.953 Q32.5894 878.695 35.6131 881.432 Q38.6368 884.17 43.8567 884.17 L64.0042 884.17 L64.0042 890.058 L28.3562 890.058 L28.3562 884.17 L33.8944 884.17 Q30.6797 882.069 29.0883 879.236 Q27.4968 876.372 27.4968 872.648 Q27.4968 866.505 31.3163 863.354 Q35.1038 860.203 42.4881 860.203 Z" fill="#000000" fill-rule="evenodd" fill-opacity="1" /><path clip-path="url(#clip320)" d="M29.4065 825.796 L34.9447 825.796 Q33.6716 828.279 33.035 830.952 Q32.3984 833.626 32.3984 836.49 Q32.3984 840.851 33.7352 843.047 Q35.072 845.211 37.7456 845.211 Q39.7826 845.211 40.9603 843.652 Q42.1061 842.092 43.1565 837.382 L43.6021 835.376 Q44.9389 829.138 47.3897 826.528 Q49.8086 823.886 54.1691 823.886 Q59.1344 823.886 62.0308 827.833 Q64.9272 831.748 64.9272 838.623 Q64.9272 841.487 64.3543 844.607 Q63.8132 847.694 62.6992 851.131 L56.6518 851.131 Q58.3387 847.885 59.198 844.734 Q60.0256 841.583 60.0256 838.496 Q60.0256 834.358 58.6251 832.13 Q57.1929 829.902 54.6147 829.902 Q52.2276 829.902 50.9545 831.525 Q49.6813 833.117 48.5037 838.559 L48.0262 840.596 Q46.8804 846.039 44.5251 848.458 Q42.138 850.877 38.0002 850.877 Q32.9713 850.877 30.2341 847.312 Q27.4968 843.747 27.4968 837.191 Q27.4968 833.944 27.9743 831.08 Q28.4517 828.215 29.4065 825.796 Z" fill="#000000" fill-rule="evenodd" fill-opacity="1" /><path clip-path="url(#clip320)" d="M28.3562 814.561 L28.3562 808.704 L64.0042 808.704 L64.0042 814.561 L28.3562 814.561 M14.479 814.561 L14.479 808.704 L21.895 808.704 L21.895 814.561 L14.479 814.561 Z" fill="#000000" fill-rule="evenodd" fill-opacity="1" /><path clip-path="url(#clip320)" d="M32.4621 782.636 Q32.4621 787.347 36.1542 790.084 Q39.8145 792.822 46.212 792.822 Q52.6095 792.822 56.3017 790.116 Q59.9619 787.379 59.9619 782.636 Q59.9619 777.958 56.2698 775.22 Q52.5777 772.483 46.212 772.483 Q39.8781 772.483 36.186 775.22 Q32.4621 777.958 32.4621 782.636 M27.4968 782.636 Q27.4968 774.998 32.4621 770.637 Q37.4273 766.277 46.212 766.277 Q54.9649 766.277 59.9619 770.637 Q64.9272 774.998 64.9272 782.636 Q64.9272 790.307 59.9619 794.668 Q54.9649 798.996 46.212 798.996 Q37.4273 798.996 32.4621 794.668 Q27.4968 790.307 27.4968 782.636 Z" fill="#000000" fill-rule="evenodd" fill-opacity="1" /><path clip-path="url(#clip320)" d="M42.4881 726.937 L64.0042 726.937 L64.0042 732.793 L42.679 732.793 Q37.6183 732.793 35.1038 734.766 Q32.5894 736.74 32.5894 740.686 Q32.5894 745.429 35.6131 748.166 Q38.6368 750.903 43.8567 750.903 L64.0042 750.903 L64.0042 756.792 L28.3562 756.792 L28.3562 750.903 L33.8944 750.903 Q30.6797 748.803 29.0883 745.97 Q27.4968 743.105 27.4968 739.382 Q27.4968 733.239 31.3163 730.088 Q35.1038 726.937 42.4881 726.937 Z" fill="#000000" fill-rule="evenodd" fill-opacity="1" /><path clip-path="url(#clip320)" d="M16.4842 694.28 L16.4842 666.972 L21.895 666.972 L21.895 687.851 L35.8996 687.851 L35.8996 669.009 L41.3104 669.009 L41.3104 687.851 L64.0042 687.851 L64.0042 694.28 L16.4842 694.28 Z" fill="#000000" fill-rule="evenodd" fill-opacity="1" /><path clip-path="url(#clip320)" d="M46.0847 646.824 Q46.0847 653.922 47.7079 656.659 Q49.3312 659.396 53.2461 659.396 Q56.3653 659.396 58.2114 657.359 Q60.0256 655.291 60.0256 651.758 Q60.0256 646.888 56.5881 643.96 Q53.1188 641 47.3897 641 L46.0847 641 L46.0847 646.824 M43.6657 635.143 L64.0042 635.143 L64.0042 641 L58.5933 641 Q61.8398 643.005 63.3994 645.997 Q64.9272 648.988 64.9272 653.317 Q64.9272 658.792 61.8716 662.038 Q58.7843 665.253 53.6281 665.253 Q47.6125 665.253 44.5569 661.242 Q41.5014 657.2 41.5014 649.211 L41.5014 641 L40.9285 641 Q36.8862 641 34.6901 643.673 Q32.4621 646.315 32.4621 651.121 Q32.4621 654.177 33.1941 657.073 Q33.9262 659.969 35.3903 662.643 L29.9795 662.643 Q28.7381 659.428 28.1334 656.405 Q27.4968 653.381 27.4968 650.516 Q27.4968 642.782 31.5072 638.962 Q35.5176 635.143 43.6657 635.143 Z" fill="#000000" fill-rule="evenodd" fill-opacity="1" /><path clip-path="url(#clip320)" d="M29.7248 597.426 L35.1993 597.426 Q33.8307 599.909 33.1623 602.423 Q32.4621 604.906 32.4621 607.452 Q32.4621 613.15 36.0905 616.301 Q39.6872 619.452 46.212 619.452 Q52.7369 619.452 56.3653 616.301 Q59.9619 613.15 59.9619 607.452 Q59.9619 604.906 59.2935 602.423 Q58.5933 599.909 57.2247 597.426 L62.6355 597.426 Q63.7814 599.877 64.3543 602.519 Q64.9272 605.129 64.9272 608.089 Q64.9272 616.141 59.8664 620.884 Q54.8057 625.626 46.212 625.626 Q37.491 625.626 32.4939 620.852 Q27.4968 616.046 27.4968 607.707 Q27.4968 605.001 28.0697 602.423 Q28.6108 599.845 29.7248 597.426 Z" fill="#000000" fill-rule="evenodd" fill-opacity="1" /><path clip-path="url(#clip320)" d="M18.2347 581.448 L28.3562 581.448 L28.3562 569.385 L32.9077 569.385 L32.9077 581.448 L52.2594 581.448 Q56.6199 581.448 57.8613 580.271 Q59.1026 579.061 59.1026 575.401 L59.1026 569.385 L64.0042 569.385 L64.0042 575.401 Q64.0042 582.18 61.4897 584.758 Q58.9434 587.337 52.2594 587.337 L32.9077 587.337 L32.9077 591.633 L28.3562 591.633 L28.3562 587.337 L18.2347 587.337 L18.2347 581.448 Z" fill="#000000" fill-rule="evenodd" fill-opacity="1" /><path clip-path="url(#clip320)" d="M32.4621 547.869 Q32.4621 552.58 36.1542 555.317 Q39.8145 558.054 46.212 558.054 Q52.6095 558.054 56.3017 555.349 Q59.9619 552.612 59.9619 547.869 Q59.9619 543.19 56.2698 540.453 Q52.5777 537.716 46.212 537.716 Q39.8781 537.716 36.186 540.453 Q32.4621 543.19 32.4621 547.869 M27.4968 547.869 Q27.4968 540.23 32.4621 535.87 Q37.4273 531.509 46.212 531.509 Q54.9649 531.509 59.9619 535.87 Q64.9272 540.23 64.9272 547.869 Q64.9272 555.54 59.9619 559.9 Q54.9649 564.229 46.212 564.229 Q37.4273 564.229 32.4621 559.9 Q27.4968 555.54 27.4968 547.869 Z" fill="#000000" fill-rule="evenodd" fill-opacity="1" /><path clip-path="url(#clip320)" d="M33.8307 501.145 Q33.2578 502.132 33.0032 503.309 Q32.7167 504.455 32.7167 505.856 Q32.7167 510.821 35.9632 513.494 Q39.1779 516.136 45.2253 516.136 L64.0042 516.136 L64.0042 522.024 L28.3562 522.024 L28.3562 516.136 L33.8944 516.136 Q30.6479 514.29 29.0883 511.33 Q27.4968 508.37 27.4968 504.137 Q27.4968 503.532 27.5923 502.8 Q27.656 502.068 27.8151 501.177 L33.8307 501.145 Z" fill="#000000" fill-rule="evenodd" fill-opacity="1" /><path clip-path="url(#clip320)" d="M55.9197 493.506 L55.9197 486.79 L61.3942 486.79 L71.5793 492.01 L71.5793 496.116 L61.3942 493.506 L55.9197 493.506 Z" fill="#000000" fill-rule="evenodd" fill-opacity="1" /><path clip-path="url(#clip320)" d="M16.4842 459.831 L16.4842 452.925 L36.0269 439.748 L16.4842 426.666 L16.4842 419.759 L41.3741 436.565 L64.0042 436.565 L64.0042 443.026 L41.3741 443.026 L16.4842 459.831 Z" fill="#000000" fill-rule="evenodd" fill-opacity="1" /><polyline clip-path="url(#clip322)" style="stroke:#009af9; stroke-linecap:butt; stroke-linejoin:round; stroke-width:4; stroke-opacity:1; fill:none" points="
  279.669,86.1857 2205.09,1309.32 
  "/>
<polyline clip-path="url(#clip322)" style="stroke:#000000; stroke-linecap:butt; stroke-linejoin:round; stroke-width:4; stroke-opacity:1; fill:none" points="
  279.669,86.1857 2235.9,1384.24 
  "/>
<polyline clip-path="url(#clip322)" style="stroke:#000000; stroke-linecap:butt; stroke-linejoin:round; stroke-width:4; stroke-opacity:1; fill:none" points="
  279.669,86.1857 2292.37,1343.03 
  "/>
<path clip-path="url(#clip320)" d="
M1524.13 812.972 L2281.64 812.972 L2281.64 605.612 L1524.13 605.612  Z
  " fill="#ffffff" fill-rule="evenodd" fill-opacity="1"/>
<polyline clip-path="url(#clip320)" style="stroke:#000000; stroke-linecap:butt; stroke-linejoin:round; stroke-width:4; stroke-opacity:1; fill:none" points="
  1524.13,812.972 2281.64,812.972 2281.64,605.612 1524.13,605.612 1524.13,812.972 
  "/>
<polyline clip-path="url(#clip320)" style="stroke:#009af9; stroke-linecap:butt; stroke-linejoin:round; stroke-width:4; stroke-opacity:1; fill:none" points="
  1547.83,657.452 1690.06,657.452 
  "/>
<path clip-path="url(#clip320)" d="M1713.77 640.172 L1743.01 640.172 L1743.01 644.107 L1730.74 644.107 L1730.74 674.732 L1726.04 674.732 L1726.04 644.107 L1713.77 644.107 L1713.77 640.172 Z" fill="#000000" fill-rule="evenodd" fill-opacity="1" /><path clip-path="url(#clip320)" d="M1768.89 659.084 L1768.89 674.732 L1764.63 674.732 L1764.63 659.223 Q1764.63 655.542 1763.19 653.714 Q1761.76 651.885 1758.89 651.885 Q1755.44 651.885 1753.45 654.084 Q1751.45 656.283 1751.45 660.079 L1751.45 674.732 L1747.17 674.732 L1747.17 638.714 L1751.45 638.714 L1751.45 652.834 Q1752.98 650.496 1755.04 649.339 Q1757.13 648.181 1759.83 648.181 Q1764.3 648.181 1766.59 650.959 Q1768.89 653.714 1768.89 659.084 Z" fill="#000000" fill-rule="evenodd" fill-opacity="1" /><path clip-path="url(#clip320)" d="M1777.38 648.806 L1781.64 648.806 L1781.64 674.732 L1777.38 674.732 L1777.38 648.806 M1777.38 638.714 L1781.64 638.714 L1781.64 644.107 L1777.38 644.107 L1777.38 638.714 Z" fill="#000000" fill-rule="evenodd" fill-opacity="1" /><path clip-path="url(#clip320)" d="M1807.08 649.57 L1807.08 653.598 Q1805.27 652.672 1803.33 652.209 Q1801.38 651.746 1799.3 651.746 Q1796.13 651.746 1794.53 652.718 Q1792.96 653.69 1792.96 655.635 Q1792.96 657.116 1794.09 657.973 Q1795.23 658.806 1798.65 659.57 L1800.11 659.894 Q1804.65 660.866 1806.55 662.649 Q1808.47 664.408 1808.47 667.579 Q1808.47 671.19 1805.6 673.297 Q1802.75 675.403 1797.75 675.403 Q1795.67 675.403 1793.4 674.987 Q1791.15 674.593 1788.65 673.783 L1788.65 669.385 Q1791.01 670.612 1793.31 671.237 Q1795.6 671.838 1797.84 671.838 Q1800.85 671.838 1802.47 670.82 Q1804.09 669.778 1804.09 667.903 Q1804.09 666.167 1802.91 665.241 Q1801.76 664.315 1797.8 663.459 L1796.32 663.112 Q1792.36 662.278 1790.6 660.565 Q1788.84 658.829 1788.84 655.82 Q1788.84 652.163 1791.43 650.172 Q1794.02 648.181 1798.79 648.181 Q1801.15 648.181 1803.24 648.528 Q1805.32 648.876 1807.08 649.57 Z" fill="#000000" fill-rule="evenodd" fill-opacity="1" /><path clip-path="url(#clip320)" d="M1830.51 640.172 L1852.36 640.172 L1852.36 644.107 L1835.18 644.107 L1835.18 654.339 L1851.64 654.339 L1851.64 658.274 L1835.18 658.274 L1835.18 670.797 L1852.77 670.797 L1852.77 674.732 L1830.51 674.732 L1830.51 640.172 Z" fill="#000000" fill-rule="evenodd" fill-opacity="1" /><path clip-path="url(#clip320)" d="M1881.82 648.806 L1872.45 661.422 L1882.31 674.732 L1877.29 674.732 L1869.74 664.547 L1862.19 674.732 L1857.17 674.732 L1867.24 661.167 L1858.03 648.806 L1863.05 648.806 L1869.93 658.042 L1876.8 648.806 L1881.82 648.806 Z" fill="#000000" fill-rule="evenodd" fill-opacity="1" /><path clip-path="url(#clip320)" d="M1900.11 661.7 Q1894.95 661.7 1892.96 662.88 Q1890.97 664.061 1890.97 666.908 Q1890.97 669.176 1892.45 670.519 Q1893.95 671.838 1896.52 671.838 Q1900.07 671.838 1902.19 669.338 Q1904.35 666.815 1904.35 662.649 L1904.35 661.7 L1900.11 661.7 M1908.61 659.94 L1908.61 674.732 L1904.35 674.732 L1904.35 670.797 Q1902.89 673.158 1900.71 674.292 Q1898.54 675.403 1895.39 675.403 Q1891.41 675.403 1889.05 673.181 Q1886.71 670.936 1886.71 667.186 Q1886.71 662.811 1889.63 660.589 Q1892.57 658.366 1898.38 658.366 L1904.35 658.366 L1904.35 657.95 Q1904.35 655.01 1902.4 653.413 Q1900.48 651.792 1896.99 651.792 Q1894.76 651.792 1892.66 652.325 Q1890.55 652.857 1888.61 653.922 L1888.61 649.987 Q1890.94 649.084 1893.14 648.644 Q1895.34 648.181 1897.43 648.181 Q1903.05 648.181 1905.83 651.098 Q1908.61 654.014 1908.61 659.94 Z" fill="#000000" fill-rule="evenodd" fill-opacity="1" /><path clip-path="url(#clip320)" d="M1937.56 653.783 Q1939.16 650.913 1941.38 649.547 Q1943.61 648.181 1946.62 648.181 Q1950.67 648.181 1952.87 651.028 Q1955.06 653.852 1955.06 659.084 L1955.06 674.732 L1950.78 674.732 L1950.78 659.223 Q1950.78 655.496 1949.46 653.69 Q1948.14 651.885 1945.44 651.885 Q1942.12 651.885 1940.2 654.084 Q1938.28 656.283 1938.28 660.079 L1938.28 674.732 L1934 674.732 L1934 659.223 Q1934 655.473 1932.68 653.69 Q1931.36 651.885 1928.61 651.885 Q1925.34 651.885 1923.42 654.107 Q1921.5 656.306 1921.5 660.079 L1921.5 674.732 L1917.22 674.732 L1917.22 648.806 L1921.5 648.806 L1921.5 652.834 Q1922.96 650.45 1925 649.315 Q1927.03 648.181 1929.83 648.181 Q1932.66 648.181 1934.63 649.616 Q1936.62 651.052 1937.56 653.783 Z" fill="#000000" fill-rule="evenodd" fill-opacity="1" /><path clip-path="url(#clip320)" d="M1967.68 670.843 L1967.68 684.593 L1963.4 684.593 L1963.4 648.806 L1967.68 648.806 L1967.68 652.741 Q1969.02 650.427 1971.06 649.315 Q1973.12 648.181 1975.97 648.181 Q1980.69 648.181 1983.63 651.931 Q1986.59 655.681 1986.59 661.792 Q1986.59 667.903 1983.63 671.653 Q1980.69 675.403 1975.97 675.403 Q1973.12 675.403 1971.06 674.292 Q1969.02 673.158 1967.68 670.843 M1982.17 661.792 Q1982.17 657.093 1980.23 654.431 Q1978.31 651.746 1974.93 651.746 Q1971.55 651.746 1969.6 654.431 Q1967.68 657.093 1967.68 661.792 Q1967.68 666.491 1969.6 669.176 Q1971.55 671.838 1974.93 671.838 Q1978.31 671.838 1980.23 669.176 Q1982.17 666.491 1982.17 661.792 Z" fill="#000000" fill-rule="evenodd" fill-opacity="1" /><path clip-path="url(#clip320)" d="M1993.65 638.714 L1997.91 638.714 L1997.91 674.732 L1993.65 674.732 L1993.65 638.714 Z" fill="#000000" fill-rule="evenodd" fill-opacity="1" /><path clip-path="url(#clip320)" d="M2029 660.704 L2029 662.788 L2009.42 662.788 Q2009.69 667.186 2012.06 669.501 Q2014.44 671.792 2018.68 671.792 Q2021.13 671.792 2023.42 671.19 Q2025.74 670.588 2028 669.385 L2028 673.413 Q2025.71 674.385 2023.31 674.894 Q2020.9 675.403 2018.42 675.403 Q2012.22 675.403 2008.58 671.792 Q2004.97 668.181 2004.97 662.024 Q2004.97 655.658 2008.4 651.931 Q2011.85 648.181 2017.68 648.181 Q2022.91 648.181 2025.94 651.561 Q2029 654.917 2029 660.704 M2024.74 659.454 Q2024.69 655.959 2022.77 653.876 Q2020.87 651.792 2017.73 651.792 Q2014.16 651.792 2012.01 653.806 Q2009.88 655.82 2009.56 659.477 L2024.74 659.454 Z" fill="#000000" fill-rule="evenodd" fill-opacity="1" /><path clip-path="url(#clip320)" d="M2037.08 668.852 L2041.96 668.852 L2041.96 672.834 L2038.17 680.241 L2035.18 680.241 L2037.08 672.834 L2037.08 668.852 Z" fill="#000000" fill-rule="evenodd" fill-opacity="1" /><path clip-path="url(#clip320)" d="M2066.31 640.172 L2070.99 640.172 L2070.99 654.778 L2086.5 640.172 L2092.52 640.172 L2075.36 656.283 L2093.74 674.732 L2087.59 674.732 L2070.99 658.089 L2070.99 674.732 L2066.31 674.732 L2066.31 640.172 Z" fill="#000000" fill-rule="evenodd" fill-opacity="1" /><path clip-path="url(#clip320)" d="M2097.77 653.204 L2127.45 653.204 L2127.45 657.093 L2097.77 657.093 L2097.77 653.204 M2097.77 662.649 L2127.45 662.649 L2127.45 666.584 L2097.77 666.584 L2097.77 662.649 Z" fill="#000000" fill-rule="evenodd" fill-opacity="1" /><path clip-path="url(#clip320)" d="M2147.54 658.32 Q2144.21 658.32 2142.29 660.102 Q2140.39 661.885 2140.39 665.01 Q2140.39 668.135 2142.29 669.917 Q2144.21 671.7 2147.54 671.7 Q2150.87 671.7 2152.8 669.917 Q2154.72 668.112 2154.72 665.01 Q2154.72 661.885 2152.8 660.102 Q2150.9 658.32 2147.54 658.32 M2142.86 656.329 Q2139.86 655.589 2138.17 653.528 Q2136.5 651.468 2136.5 648.505 Q2136.5 644.362 2139.44 641.954 Q2142.4 639.547 2147.54 639.547 Q2152.7 639.547 2155.64 641.954 Q2158.58 644.362 2158.58 648.505 Q2158.58 651.468 2156.89 653.528 Q2155.23 655.589 2152.24 656.329 Q2155.62 657.116 2157.49 659.408 Q2159.39 661.7 2159.39 665.01 Q2159.39 670.033 2156.31 672.718 Q2153.26 675.403 2147.54 675.403 Q2141.82 675.403 2138.74 672.718 Q2135.69 670.033 2135.69 665.01 Q2135.69 661.7 2137.59 659.408 Q2139.49 657.116 2142.86 656.329 M2141.15 648.945 Q2141.15 651.63 2142.82 653.135 Q2144.51 654.639 2147.54 654.639 Q2150.55 654.639 2152.24 653.135 Q2153.95 651.63 2153.95 648.945 Q2153.95 646.26 2152.24 644.755 Q2150.55 643.251 2147.54 643.251 Q2144.51 643.251 2142.82 644.755 Q2141.15 646.26 2141.15 648.945 Z" fill="#000000" fill-rule="evenodd" fill-opacity="1" /><path clip-path="url(#clip320)" d="M2167.7 668.852 L2172.59 668.852 L2172.59 674.732 L2167.7 674.732 L2167.7 668.852 Z" fill="#000000" fill-rule="evenodd" fill-opacity="1" /><path clip-path="url(#clip320)" d="M2181.59 640.172 L2203.81 640.172 L2203.81 642.163 L2191.27 674.732 L2186.38 674.732 L2198.19 644.107 L2181.59 644.107 L2181.59 640.172 Z" fill="#000000" fill-rule="evenodd" fill-opacity="1" /><path clip-path="url(#clip320)" d="M2227.1 656.098 Q2230.46 656.815 2232.33 659.084 Q2234.23 661.352 2234.23 664.686 Q2234.23 669.801 2230.71 672.602 Q2227.19 675.403 2220.71 675.403 Q2218.54 675.403 2216.22 674.963 Q2213.93 674.547 2211.48 673.69 L2211.48 669.176 Q2213.42 670.311 2215.73 670.889 Q2218.05 671.468 2220.57 671.468 Q2224.97 671.468 2227.26 669.732 Q2229.58 667.996 2229.58 664.686 Q2229.58 661.63 2227.42 659.917 Q2225.29 658.181 2221.48 658.181 L2217.45 658.181 L2217.45 654.339 L2221.66 654.339 Q2225.11 654.339 2226.94 652.973 Q2228.77 651.584 2228.77 648.991 Q2228.77 646.329 2226.87 644.917 Q2224.99 643.482 2221.48 643.482 Q2219.55 643.482 2217.35 643.899 Q2215.16 644.315 2212.52 645.195 L2212.52 641.028 Q2215.18 640.288 2217.49 639.917 Q2219.83 639.547 2221.89 639.547 Q2227.22 639.547 2230.32 641.978 Q2233.42 644.385 2233.42 648.505 Q2233.42 651.376 2231.78 653.366 Q2230.13 655.334 2227.1 656.098 Z" fill="#000000" fill-rule="evenodd" fill-opacity="1" /><polyline clip-path="url(#clip320)" style="stroke:#000000; stroke-linecap:butt; stroke-linejoin:round; stroke-width:4; stroke-opacity:1; fill:none" points="
  1547.83,709.292 1690.06,709.292 
  "/>
<path clip-path="url(#clip320)" d="M1741.64 694.674 L1741.64 699.605 Q1739.28 697.405 1736.59 696.318 Q1733.93 695.23 1730.92 695.23 Q1725 695.23 1721.85 698.864 Q1718.7 702.475 1718.7 709.327 Q1718.7 716.155 1721.85 719.79 Q1725 723.401 1730.92 723.401 Q1733.93 723.401 1736.59 722.313 Q1739.28 721.225 1741.64 719.026 L1741.64 723.91 Q1739.19 725.577 1736.43 726.41 Q1733.7 727.243 1730.64 727.243 Q1722.8 727.243 1718.28 722.452 Q1713.77 717.637 1713.77 709.327 Q1713.77 700.993 1718.28 696.202 Q1722.8 691.387 1730.64 691.387 Q1733.75 691.387 1736.48 692.22 Q1739.23 693.03 1741.64 694.674 Z" fill="#000000" fill-rule="evenodd" fill-opacity="1" /><path clip-path="url(#clip320)" d="M1763.7 704.628 Q1762.98 704.211 1762.13 704.026 Q1761.29 703.817 1760.27 703.817 Q1756.66 703.817 1754.72 706.179 Q1752.8 708.517 1752.8 712.915 L1752.8 726.572 L1748.51 726.572 L1748.51 700.646 L1752.8 700.646 L1752.8 704.674 Q1754.14 702.313 1756.29 701.179 Q1758.45 700.021 1761.52 700.021 Q1761.96 700.021 1762.5 700.091 Q1763.03 700.137 1763.68 700.253 L1763.7 704.628 Z" fill="#000000" fill-rule="evenodd" fill-opacity="1" /><path clip-path="url(#clip320)" d="M1779.95 713.54 Q1774.79 713.54 1772.8 714.72 Q1770.81 715.901 1770.81 718.748 Q1770.81 721.016 1772.29 722.359 Q1773.79 723.678 1776.36 723.678 Q1779.9 723.678 1782.03 721.178 Q1784.19 718.655 1784.19 714.489 L1784.19 713.54 L1779.95 713.54 M1788.45 711.78 L1788.45 726.572 L1784.19 726.572 L1784.19 722.637 Q1782.73 724.998 1780.55 726.132 Q1778.38 727.243 1775.23 727.243 Q1771.25 727.243 1768.89 725.021 Q1766.55 722.776 1766.55 719.026 Q1766.55 714.651 1769.46 712.429 Q1772.4 710.206 1778.21 710.206 L1784.19 710.206 L1784.19 709.79 Q1784.19 706.85 1782.24 705.253 Q1780.32 703.632 1776.82 703.632 Q1774.6 703.632 1772.5 704.165 Q1770.39 704.697 1768.45 705.762 L1768.45 701.827 Q1770.78 700.924 1772.98 700.484 Q1775.18 700.021 1777.26 700.021 Q1782.89 700.021 1785.67 702.938 Q1788.45 705.854 1788.45 711.78 Z" fill="#000000" fill-rule="evenodd" fill-opacity="1" /><path clip-path="url(#clip320)" d="M1818.77 710.924 L1818.77 726.572 L1814.51 726.572 L1814.51 711.063 Q1814.51 707.382 1813.07 705.554 Q1811.64 703.725 1808.77 703.725 Q1805.32 703.725 1803.33 705.924 Q1801.34 708.123 1801.34 711.919 L1801.34 726.572 L1797.06 726.572 L1797.06 700.646 L1801.34 700.646 L1801.34 704.674 Q1802.87 702.336 1804.93 701.179 Q1807.01 700.021 1809.72 700.021 Q1814.19 700.021 1816.48 702.799 Q1818.77 705.554 1818.77 710.924 Z" fill="#000000" fill-rule="evenodd" fill-opacity="1" /><path clip-path="url(#clip320)" d="M1849.44 712.544 L1849.44 714.628 L1829.86 714.628 Q1830.13 719.026 1832.5 721.341 Q1834.88 723.632 1839.12 723.632 Q1841.57 723.632 1843.86 723.03 Q1846.18 722.428 1848.44 721.225 L1848.44 725.253 Q1846.15 726.225 1843.75 726.734 Q1841.34 727.243 1838.86 727.243 Q1832.66 727.243 1829.02 723.632 Q1825.41 720.021 1825.41 713.864 Q1825.41 707.498 1828.84 703.771 Q1832.29 700.021 1838.12 700.021 Q1843.35 700.021 1846.38 703.401 Q1849.44 706.757 1849.44 712.544 M1845.18 711.294 Q1845.13 707.799 1843.21 705.716 Q1841.32 703.632 1838.17 703.632 Q1834.6 703.632 1832.45 705.646 Q1830.32 707.66 1830 711.317 L1845.18 711.294 Z" fill="#000000" fill-rule="evenodd" fill-opacity="1" /><path clip-path="url(#clip320)" d="M1857.52 720.692 L1862.4 720.692 L1862.4 724.674 L1858.61 732.081 L1855.62 732.081 L1857.52 724.674 L1857.52 720.692 Z" fill="#000000" fill-rule="evenodd" fill-opacity="1" /><path clip-path="url(#clip320)" d="M1886.75 692.012 L1891.43 692.012 L1891.43 706.618 L1906.94 692.012 L1912.96 692.012 L1895.81 708.123 L1914.19 726.572 L1908.03 726.572 L1891.43 709.929 L1891.43 726.572 L1886.75 726.572 L1886.75 692.012 Z" fill="#000000" fill-rule="evenodd" fill-opacity="1" /><path clip-path="url(#clip320)" d="M1918.21 705.044 L1947.89 705.044 L1947.89 708.933 L1918.21 708.933 L1918.21 705.044 M1918.21 714.489 L1947.89 714.489 L1947.89 718.424 L1918.21 718.424 L1918.21 714.489 Z" fill="#000000" fill-rule="evenodd" fill-opacity="1" /><path clip-path="url(#clip320)" d="M1967.98 710.16 Q1964.65 710.16 1962.73 711.942 Q1960.83 713.725 1960.83 716.85 Q1960.83 719.975 1962.73 721.757 Q1964.65 723.54 1967.98 723.54 Q1971.31 723.54 1973.24 721.757 Q1975.16 719.952 1975.16 716.85 Q1975.16 713.725 1973.24 711.942 Q1971.34 710.16 1967.98 710.16 M1963.31 708.169 Q1960.3 707.429 1958.61 705.368 Q1956.94 703.308 1956.94 700.345 Q1956.94 696.202 1959.88 693.794 Q1962.84 691.387 1967.98 691.387 Q1973.14 691.387 1976.08 693.794 Q1979.02 696.202 1979.02 700.345 Q1979.02 703.308 1977.33 705.368 Q1975.67 707.429 1972.68 708.169 Q1976.06 708.956 1977.93 711.248 Q1979.83 713.54 1979.83 716.85 Q1979.83 721.873 1976.75 724.558 Q1973.7 727.243 1967.98 727.243 Q1962.26 727.243 1959.19 724.558 Q1956.13 721.873 1956.13 716.85 Q1956.13 713.54 1958.03 711.248 Q1959.93 708.956 1963.31 708.169 M1961.59 700.785 Q1961.59 703.47 1963.26 704.975 Q1964.95 706.479 1967.98 706.479 Q1970.99 706.479 1972.68 704.975 Q1974.39 703.47 1974.39 700.785 Q1974.39 698.1 1972.68 696.595 Q1970.99 695.091 1967.98 695.091 Q1964.95 695.091 1963.26 696.595 Q1961.59 698.1 1961.59 700.785 Z" fill="#000000" fill-rule="evenodd" fill-opacity="1" /><polyline clip-path="url(#clip320)" style="stroke:#000000; stroke-linecap:butt; stroke-linejoin:round; stroke-width:4; stroke-opacity:1; fill:none" points="
  1547.83,761.132 1690.06,761.132 
  "/>
<path clip-path="url(#clip320)" d="M1741.64 746.514 L1741.64 751.445 Q1739.28 749.245 1736.59 748.158 Q1733.93 747.07 1730.92 747.07 Q1725 747.07 1721.85 750.704 Q1718.7 754.315 1718.7 761.167 Q1718.7 767.995 1721.85 771.63 Q1725 775.241 1730.92 775.241 Q1733.93 775.241 1736.59 774.153 Q1739.28 773.065 1741.64 770.866 L1741.64 775.75 Q1739.19 777.417 1736.43 778.25 Q1733.7 779.083 1730.64 779.083 Q1722.8 779.083 1718.28 774.292 Q1713.77 769.477 1713.77 761.167 Q1713.77 752.833 1718.28 748.042 Q1722.8 743.227 1730.64 743.227 Q1733.75 743.227 1736.48 744.06 Q1739.23 744.87 1741.64 746.514 Z" fill="#000000" fill-rule="evenodd" fill-opacity="1" /><path clip-path="url(#clip320)" d="M1763.7 756.468 Q1762.98 756.051 1762.13 755.866 Q1761.29 755.657 1760.27 755.657 Q1756.66 755.657 1754.72 758.019 Q1752.8 760.357 1752.8 764.755 L1752.8 778.412 L1748.51 778.412 L1748.51 752.486 L1752.8 752.486 L1752.8 756.514 Q1754.14 754.153 1756.29 753.019 Q1758.45 751.861 1761.52 751.861 Q1761.96 751.861 1762.5 751.931 Q1763.03 751.977 1763.68 752.093 L1763.7 756.468 Z" fill="#000000" fill-rule="evenodd" fill-opacity="1" /><path clip-path="url(#clip320)" d="M1779.95 765.38 Q1774.79 765.38 1772.8 766.56 Q1770.81 767.741 1770.81 770.588 Q1770.81 772.856 1772.29 774.199 Q1773.79 775.518 1776.36 775.518 Q1779.9 775.518 1782.03 773.018 Q1784.19 770.495 1784.19 766.329 L1784.19 765.38 L1779.95 765.38 M1788.45 763.62 L1788.45 778.412 L1784.19 778.412 L1784.19 774.477 Q1782.73 776.838 1780.55 777.972 Q1778.38 779.083 1775.23 779.083 Q1771.25 779.083 1768.89 776.861 Q1766.55 774.616 1766.55 770.866 Q1766.55 766.491 1769.46 764.269 Q1772.4 762.046 1778.21 762.046 L1784.19 762.046 L1784.19 761.63 Q1784.19 758.69 1782.24 757.093 Q1780.32 755.472 1776.82 755.472 Q1774.6 755.472 1772.5 756.005 Q1770.39 756.537 1768.45 757.602 L1768.45 753.667 Q1770.78 752.764 1772.98 752.324 Q1775.18 751.861 1777.26 751.861 Q1782.89 751.861 1785.67 754.778 Q1788.45 757.694 1788.45 763.62 Z" fill="#000000" fill-rule="evenodd" fill-opacity="1" /><path clip-path="url(#clip320)" d="M1818.77 762.764 L1818.77 778.412 L1814.51 778.412 L1814.51 762.903 Q1814.51 759.222 1813.07 757.394 Q1811.64 755.565 1808.77 755.565 Q1805.32 755.565 1803.33 757.764 Q1801.34 759.963 1801.34 763.759 L1801.34 778.412 L1797.06 778.412 L1797.06 752.486 L1801.34 752.486 L1801.34 756.514 Q1802.87 754.176 1804.93 753.019 Q1807.01 751.861 1809.72 751.861 Q1814.19 751.861 1816.48 754.639 Q1818.77 757.394 1818.77 762.764 Z" fill="#000000" fill-rule="evenodd" fill-opacity="1" /><path clip-path="url(#clip320)" d="M1849.44 764.384 L1849.44 766.468 L1829.86 766.468 Q1830.13 770.866 1832.5 773.181 Q1834.88 775.472 1839.12 775.472 Q1841.57 775.472 1843.86 774.87 Q1846.18 774.268 1848.44 773.065 L1848.44 777.093 Q1846.15 778.065 1843.75 778.574 Q1841.34 779.083 1838.86 779.083 Q1832.66 779.083 1829.02 775.472 Q1825.41 771.861 1825.41 765.704 Q1825.41 759.338 1828.84 755.611 Q1832.29 751.861 1838.12 751.861 Q1843.35 751.861 1846.38 755.241 Q1849.44 758.597 1849.44 764.384 M1845.18 763.134 Q1845.13 759.639 1843.21 757.556 Q1841.32 755.472 1838.17 755.472 Q1834.6 755.472 1832.45 757.486 Q1830.32 759.5 1830 763.157 L1845.18 763.134 Z" fill="#000000" fill-rule="evenodd" fill-opacity="1" /><path clip-path="url(#clip320)" d="M1857.52 772.532 L1862.4 772.532 L1862.4 776.514 L1858.61 783.921 L1855.62 783.921 L1857.52 776.514 L1857.52 772.532 Z" fill="#000000" fill-rule="evenodd" fill-opacity="1" /><path clip-path="url(#clip320)" d="M1886.75 743.852 L1891.43 743.852 L1891.43 758.458 L1906.94 743.852 L1912.96 743.852 L1895.81 759.963 L1914.19 778.412 L1908.03 778.412 L1891.43 761.769 L1891.43 778.412 L1886.75 778.412 L1886.75 743.852 Z" fill="#000000" fill-rule="evenodd" fill-opacity="1" /><path clip-path="url(#clip320)" d="M1918.21 756.884 L1947.89 756.884 L1947.89 760.773 L1918.21 760.773 L1918.21 756.884 M1918.21 766.329 L1947.89 766.329 L1947.89 770.264 L1918.21 770.264 L1918.21 766.329 Z" fill="#000000" fill-rule="evenodd" fill-opacity="1" /><path clip-path="url(#clip320)" d="M1958.79 774.477 L1966.43 774.477 L1966.43 748.111 L1958.12 749.778 L1958.12 745.519 L1966.38 743.852 L1971.06 743.852 L1971.06 774.477 L1978.7 774.477 L1978.7 778.412 L1958.79 778.412 L1958.79 774.477 Z" fill="#000000" fill-rule="evenodd" fill-opacity="1" /><path clip-path="url(#clip320)" d="M1998.14 746.931 Q1994.53 746.931 1992.7 750.495 Q1990.9 754.037 1990.9 761.167 Q1990.9 768.273 1992.7 771.838 Q1994.53 775.38 1998.14 775.38 Q2001.78 775.38 2003.58 771.838 Q2005.41 768.273 2005.41 761.167 Q2005.41 754.037 2003.58 750.495 Q2001.78 746.931 1998.14 746.931 M1998.14 743.227 Q2003.95 743.227 2007.01 747.833 Q2010.09 752.417 2010.09 761.167 Q2010.09 769.893 2007.01 774.5 Q2003.95 779.083 1998.14 779.083 Q1992.33 779.083 1989.25 774.5 Q1986.2 769.893 1986.2 761.167 Q1986.2 752.417 1989.25 747.833 Q1992.33 743.227 1998.14 743.227 Z" fill="#000000" fill-rule="evenodd" fill-opacity="1" /></svg>
