<?xml version="1.0" encoding="utf-8"?>
<svg xmlns="http://www.w3.org/2000/svg" xmlns:xlink="http://www.w3.org/1999/xlink" width="600" height="400" viewBox="0 0 2400 1600">
<defs>
  <clipPath id="clip360">
    <rect x="0" y="0" width="2400" height="1600"/>
  </clipPath>
</defs>
<path clip-path="url(#clip360)" d="
M0 1600 L2400 1600 L2400 0 L0 0  Z
  " fill="#ffffff" fill-rule="evenodd" fill-opacity="1"/>
<defs>
  <clipPath id="clip361">
    <rect x="480" y="0" width="1681" height="1600"/>
  </clipPath>
</defs>
<path clip-path="url(#clip360)" d="
M219.866 1423.18 L2352.76 1423.18 L2352.76 47.2441 L219.866 47.2441  Z
  " fill="#ffffff" fill-rule="evenodd" fill-opacity="1"/>
<defs>
  <clipPath id="clip362">
    <rect x="219" y="47" width="2134" height="1377"/>
  </clipPath>
</defs>
<polyline clip-path="url(#clip362)" style="stroke:#000000; stroke-linecap:butt; stroke-linejoin:round; stroke-width:2; stroke-opacity:0.1; fill:none" points="
  273.501,1423.18 273.501,47.2441 
  "/>
<polyline clip-path="url(#clip362)" style="stroke:#000000; stroke-linecap:butt; stroke-linejoin:round; stroke-width:2; stroke-opacity:0.1; fill:none" points="
  946.465,1423.18 946.465,47.2441 
  "/>
<polyline clip-path="url(#clip362)" style="stroke:#000000; stroke-linecap:butt; stroke-linejoin:round; stroke-width:2; stroke-opacity:0.1; fill:none" points="
  1619.43,1423.18 1619.43,47.2441 
  "/>
<polyline clip-path="url(#clip362)" style="stroke:#000000; stroke-linecap:butt; stroke-linejoin:round; stroke-width:2; stroke-opacity:0.1; fill:none" points="
  2292.39,1423.18 2292.39,47.2441 
  "/>
<polyline clip-path="url(#clip360)" style="stroke:#000000; stroke-linecap:butt; stroke-linejoin:round; stroke-width:4; stroke-opacity:1; fill:none" points="
  219.866,1423.18 2352.76,1423.18 
  "/>
<polyline clip-path="url(#clip360)" style="stroke:#000000; stroke-linecap:butt; stroke-linejoin:round; stroke-width:4; stroke-opacity:1; fill:none" points="
  273.501,1423.18 273.501,1404.28 
  "/>
<polyline clip-path="url(#clip360)" style="stroke:#000000; stroke-linecap:butt; stroke-linejoin:round; stroke-width:4; stroke-opacity:1; fill:none" points="
  946.465,1423.18 946.465,1404.28 
  "/>
<polyline clip-path="url(#clip360)" style="stroke:#000000; stroke-linecap:butt; stroke-linejoin:round; stroke-width:4; stroke-opacity:1; fill:none" points="
  1619.43,1423.18 1619.43,1404.28 
  "/>
<polyline clip-path="url(#clip360)" style="stroke:#000000; stroke-linecap:butt; stroke-linejoin:round; stroke-width:4; stroke-opacity:1; fill:none" points="
  2292.39,1423.18 2292.39,1404.28 
  "/>
<path clip-path="url(#clip360)" d="M273.501 1454.1 Q269.89 1454.1 268.062 1457.66 Q266.256 1461.2 266.256 1468.33 Q266.256 1475.44 268.062 1479.01 Q269.89 1482.55 273.501 1482.55 Q277.136 1482.55 278.941 1479.01 Q280.77 1475.44 280.77 1468.33 Q280.77 1461.2 278.941 1457.66 Q277.136 1454.1 273.501 1454.1 M273.501 1450.39 Q279.312 1450.39 282.367 1455 Q285.446 1459.58 285.446 1468.33 Q285.446 1477.06 282.367 1481.67 Q279.312 1486.25 273.501 1486.25 Q267.691 1486.25 264.613 1481.67 Q261.557 1477.06 261.557 1468.33 Q261.557 1459.58 264.613 1455 Q267.691 1450.39 273.501 1450.39 Z" fill="#000000" fill-rule="evenodd" fill-opacity="1" /><path clip-path="url(#clip360)" d="M906.071 1481.64 L913.71 1481.64 L913.71 1455.28 L905.4 1456.95 L905.4 1452.69 L913.664 1451.02 L918.34 1451.02 L918.34 1481.64 L925.979 1481.64 L925.979 1485.58 L906.071 1485.58 L906.071 1481.64 Z" fill="#000000" fill-rule="evenodd" fill-opacity="1" /><path clip-path="url(#clip360)" d="M945.423 1454.1 Q941.812 1454.1 939.983 1457.66 Q938.178 1461.2 938.178 1468.33 Q938.178 1475.44 939.983 1479.01 Q941.812 1482.55 945.423 1482.55 Q949.057 1482.55 950.863 1479.01 Q952.691 1475.44 952.691 1468.33 Q952.691 1461.2 950.863 1457.66 Q949.057 1454.1 945.423 1454.1 M945.423 1450.39 Q951.233 1450.39 954.289 1455 Q957.367 1459.58 957.367 1468.33 Q957.367 1477.06 954.289 1481.67 Q951.233 1486.25 945.423 1486.25 Q939.613 1486.25 936.534 1481.67 Q933.479 1477.06 933.479 1468.33 Q933.479 1459.58 936.534 1455 Q939.613 1450.39 945.423 1450.39 Z" fill="#000000" fill-rule="evenodd" fill-opacity="1" /><path clip-path="url(#clip360)" d="M975.585 1454.1 Q971.974 1454.1 970.145 1457.66 Q968.34 1461.2 968.34 1468.33 Q968.34 1475.44 970.145 1479.01 Q971.974 1482.55 975.585 1482.55 Q979.219 1482.55 981.025 1479.01 Q982.853 1475.44 982.853 1468.33 Q982.853 1461.2 981.025 1457.66 Q979.219 1454.1 975.585 1454.1 M975.585 1450.39 Q981.395 1450.39 984.451 1455 Q987.529 1459.58 987.529 1468.33 Q987.529 1477.06 984.451 1481.67 Q981.395 1486.25 975.585 1486.25 Q969.775 1486.25 966.696 1481.67 Q963.64 1477.06 963.64 1468.33 Q963.64 1459.58 966.696 1455 Q969.775 1450.39 975.585 1450.39 Z" fill="#000000" fill-rule="evenodd" fill-opacity="1" /><path clip-path="url(#clip360)" d="M1583.12 1481.64 L1599.44 1481.64 L1599.44 1485.58 L1577.5 1485.58 L1577.5 1481.64 Q1580.16 1478.89 1584.74 1474.26 Q1589.35 1469.61 1590.53 1468.27 Q1592.77 1465.74 1593.65 1464.01 Q1594.56 1462.25 1594.56 1460.56 Q1594.56 1457.8 1592.61 1456.07 Q1590.69 1454.33 1587.59 1454.33 Q1585.39 1454.33 1582.94 1455.09 Q1580.5 1455.86 1577.73 1457.41 L1577.73 1452.69 Q1580.55 1451.55 1583 1450.97 Q1585.46 1450.39 1587.5 1450.39 Q1592.87 1450.39 1596.06 1453.08 Q1599.25 1455.77 1599.25 1460.26 Q1599.25 1462.39 1598.44 1464.31 Q1597.66 1466.2 1595.55 1468.8 Q1594.97 1469.47 1591.87 1472.69 Q1588.77 1475.88 1583.12 1481.64 Z" fill="#000000" fill-rule="evenodd" fill-opacity="1" /><path clip-path="url(#clip360)" d="M1619.25 1454.1 Q1615.64 1454.1 1613.81 1457.66 Q1612.01 1461.2 1612.01 1468.33 Q1612.01 1475.44 1613.81 1479.01 Q1615.64 1482.55 1619.25 1482.55 Q1622.89 1482.55 1624.69 1479.01 Q1626.52 1475.44 1626.52 1468.33 Q1626.52 1461.2 1624.69 1457.66 Q1622.89 1454.1 1619.25 1454.1 M1619.25 1450.39 Q1625.06 1450.39 1628.12 1455 Q1631.2 1459.58 1631.2 1468.33 Q1631.2 1477.06 1628.12 1481.67 Q1625.06 1486.25 1619.25 1486.25 Q1613.44 1486.25 1610.37 1481.67 Q1607.31 1477.06 1607.31 1468.33 Q1607.31 1459.58 1610.37 1455 Q1613.44 1450.39 1619.25 1450.39 Z" fill="#000000" fill-rule="evenodd" fill-opacity="1" /><path clip-path="url(#clip360)" d="M1649.42 1454.1 Q1645.81 1454.1 1643.98 1457.66 Q1642.17 1461.2 1642.17 1468.33 Q1642.17 1475.44 1643.98 1479.01 Q1645.81 1482.55 1649.42 1482.55 Q1653.05 1482.55 1654.86 1479.01 Q1656.68 1475.44 1656.68 1468.33 Q1656.68 1461.2 1654.86 1457.66 Q1653.05 1454.1 1649.42 1454.1 M1649.42 1450.39 Q1655.23 1450.39 1658.28 1455 Q1661.36 1459.58 1661.36 1468.33 Q1661.36 1477.06 1658.28 1481.67 Q1655.23 1486.25 1649.42 1486.25 Q1643.61 1486.25 1640.53 1481.67 Q1637.47 1477.06 1637.47 1468.33 Q1637.47 1459.58 1640.53 1455 Q1643.61 1450.39 1649.42 1450.39 Z" fill="#000000" fill-rule="evenodd" fill-opacity="1" /><path clip-path="url(#clip360)" d="M2266.15 1466.95 Q2269.51 1467.66 2271.38 1469.93 Q2273.28 1472.2 2273.28 1475.53 Q2273.28 1480.65 2269.76 1483.45 Q2266.25 1486.25 2259.76 1486.25 Q2257.59 1486.25 2255.27 1485.81 Q2252.98 1485.39 2250.53 1484.54 L2250.53 1480.02 Q2252.47 1481.16 2254.79 1481.74 Q2257.1 1482.32 2259.63 1482.32 Q2264.02 1482.32 2266.31 1480.58 Q2268.63 1478.84 2268.63 1475.53 Q2268.63 1472.48 2266.48 1470.77 Q2264.35 1469.03 2260.53 1469.03 L2256.5 1469.03 L2256.5 1465.19 L2260.71 1465.19 Q2264.16 1465.19 2265.99 1463.82 Q2267.82 1462.43 2267.82 1459.84 Q2267.82 1457.18 2265.92 1455.77 Q2264.05 1454.33 2260.53 1454.33 Q2258.61 1454.33 2256.41 1454.75 Q2254.21 1455.16 2251.57 1456.04 L2251.57 1451.88 Q2254.23 1451.14 2256.55 1450.77 Q2258.88 1450.39 2260.94 1450.39 Q2266.27 1450.39 2269.37 1452.83 Q2272.47 1455.23 2272.47 1459.35 Q2272.47 1462.22 2270.83 1464.21 Q2269.19 1466.18 2266.15 1466.95 Z" fill="#000000" fill-rule="evenodd" fill-opacity="1" /><path clip-path="url(#clip360)" d="M2292.15 1454.1 Q2288.54 1454.1 2286.71 1457.66 Q2284.9 1461.2 2284.9 1468.33 Q2284.9 1475.44 2286.71 1479.01 Q2288.54 1482.55 2292.15 1482.55 Q2295.78 1482.55 2297.59 1479.01 Q2299.42 1475.44 2299.42 1468.33 Q2299.42 1461.2 2297.59 1457.66 Q2295.78 1454.1 2292.15 1454.1 M2292.15 1450.39 Q2297.96 1450.39 2301.01 1455 Q2304.09 1459.58 2304.09 1468.33 Q2304.09 1477.06 2301.01 1481.67 Q2297.96 1486.25 2292.15 1486.25 Q2286.34 1486.25 2283.26 1481.67 Q2280.2 1477.06 2280.2 1468.33 Q2280.2 1459.58 2283.26 1455 Q2286.34 1450.39 2292.15 1450.39 Z" fill="#000000" fill-rule="evenodd" fill-opacity="1" /><path clip-path="url(#clip360)" d="M2322.31 1454.1 Q2318.7 1454.1 2316.87 1457.66 Q2315.06 1461.2 2315.06 1468.33 Q2315.06 1475.44 2316.87 1479.01 Q2318.7 1482.55 2322.31 1482.55 Q2325.94 1482.55 2327.75 1479.01 Q2329.58 1475.44 2329.58 1468.33 Q2329.58 1461.2 2327.75 1457.66 Q2325.94 1454.1 2322.31 1454.1 M2322.31 1450.39 Q2328.12 1450.39 2331.18 1455 Q2334.25 1459.58 2334.25 1468.33 Q2334.25 1477.06 2331.18 1481.67 Q2328.12 1486.25 2322.31 1486.25 Q2316.5 1486.25 2313.42 1481.67 Q2310.37 1477.06 2310.37 1468.33 Q2310.37 1459.58 2313.42 1455 Q2316.5 1450.39 2322.31 1450.39 Z" fill="#000000" fill-rule="evenodd" fill-opacity="1" /><path clip-path="url(#clip360)" d="M1176.36 1526.86 L1163.31 1562.7 L1189.44 1562.7 L1176.36 1526.86 M1154.59 1568.04 L1172.73 1520.52 L1180.02 1520.52 L1198.13 1568.04 L1154.59 1568.04 Z" fill="#000000" fill-rule="evenodd" fill-opacity="1" /><path clip-path="url(#clip360)" d="M1211.5 1525.81 L1211.5 1543.66 L1219.58 1543.66 Q1224.07 1543.66 1226.52 1541.34 Q1228.97 1539.02 1228.97 1534.72 Q1228.97 1530.45 1226.52 1528.13 Q1224.07 1525.81 1219.58 1525.81 L1211.5 1525.81 M1205.07 1520.52 L1219.58 1520.52 Q1227.57 1520.52 1231.65 1524.15 Q1235.75 1527.75 1235.75 1534.72 Q1235.75 1541.75 1231.65 1545.35 Q1227.57 1548.95 1219.58 1548.95 L1211.5 1548.95 L1211.5 1568.04 L1205.07 1568.04 L1205.07 1520.52 Z" fill="#000000" fill-rule="evenodd" fill-opacity="1" /><path clip-path="url(#clip360)" d="M1278.91 1518.58 Q1274.65 1525.9 1272.58 1533.06 Q1270.51 1540.23 1270.51 1547.58 Q1270.51 1554.93 1272.58 1562.16 Q1274.68 1569.35 1278.91 1576.64 L1273.82 1576.64 Q1269.04 1569.16 1266.66 1561.93 Q1264.3 1554.71 1264.3 1547.58 Q1264.3 1540.48 1266.66 1533.29 Q1269.01 1526.09 1273.82 1518.58 L1278.91 1518.58 Z" fill="#000000" fill-rule="evenodd" fill-opacity="1" /><path clip-path="url(#clip360)" d="M1290.05 1518.52 L1295.94 1518.52 L1295.94 1547.77 L1313.41 1532.4 L1320.89 1532.4 L1301.99 1549.07 L1321.69 1568.04 L1314.05 1568.04 L1295.94 1550.63 L1295.94 1568.04 L1290.05 1568.04 L1290.05 1518.52 Z" fill="#000000" fill-rule="evenodd" fill-opacity="1" /><path clip-path="url(#clip360)" d="M1334.71 1525.81 L1334.71 1543.66 L1342.79 1543.66 Q1347.28 1543.66 1349.73 1541.34 Q1352.18 1539.02 1352.18 1534.72 Q1352.18 1530.45 1349.73 1528.13 Q1347.28 1525.81 1342.79 1525.81 L1334.71 1525.81 M1328.28 1520.52 L1342.79 1520.52 Q1350.78 1520.52 1354.85 1524.15 Q1358.96 1527.75 1358.96 1534.72 Q1358.96 1541.75 1354.85 1545.35 Q1350.78 1548.95 1342.79 1548.95 L1334.71 1548.95 L1334.71 1568.04 L1328.28 1568.04 L1328.28 1520.52 Z" fill="#000000" fill-rule="evenodd" fill-opacity="1" /><path clip-path="url(#clip360)" d="M1380.6 1550.12 Q1373.51 1550.12 1370.77 1551.75 Q1368.03 1553.37 1368.03 1557.29 Q1368.03 1560.4 1370.07 1562.25 Q1372.14 1564.07 1375.67 1564.07 Q1380.54 1564.07 1383.47 1560.63 Q1386.43 1557.16 1386.43 1551.43 L1386.43 1550.12 L1380.6 1550.12 M1392.28 1547.71 L1392.28 1568.04 L1386.43 1568.04 L1386.43 1562.63 Q1384.42 1565.88 1381.43 1567.44 Q1378.44 1568.97 1374.11 1568.97 Q1368.64 1568.97 1365.39 1565.91 Q1362.17 1562.82 1362.17 1557.67 Q1362.17 1551.65 1366.18 1548.6 Q1370.23 1545.54 1378.22 1545.54 L1386.43 1545.54 L1386.43 1544.97 Q1386.43 1540.93 1383.75 1538.73 Q1381.11 1536.5 1376.31 1536.5 Q1373.25 1536.5 1370.35 1537.23 Q1367.46 1537.97 1364.78 1539.43 L1364.78 1534.02 Q1368 1532.78 1371.02 1532.17 Q1374.05 1531.54 1376.91 1531.54 Q1384.65 1531.54 1388.46 1535.55 Q1392.28 1539.56 1392.28 1547.71 Z" fill="#000000" fill-rule="evenodd" fill-opacity="1" /><path clip-path="url(#clip360)" d="M1403.42 1518.58 L1408.52 1518.58 Q1413.29 1526.09 1415.65 1533.29 Q1418.03 1540.48 1418.03 1547.58 Q1418.03 1554.71 1415.65 1561.93 Q1413.29 1569.16 1408.52 1576.64 L1403.42 1576.64 Q1407.66 1569.35 1409.73 1562.16 Q1411.83 1554.93 1411.83 1547.58 Q1411.83 1540.23 1409.73 1533.06 Q1407.66 1525.9 1403.42 1518.58 Z" fill="#000000" fill-rule="evenodd" fill-opacity="1" /><polyline clip-path="url(#clip362)" style="stroke:#000000; stroke-linecap:butt; stroke-linejoin:round; stroke-width:2; stroke-opacity:0.1; fill:none" points="
  219.866,1126.26 2352.76,1126.26 
  "/>
<polyline clip-path="url(#clip362)" style="stroke:#000000; stroke-linecap:butt; stroke-linejoin:round; stroke-width:2; stroke-opacity:0.1; fill:none" points="
  219.866,817.792 2352.76,817.792 
  "/>
<polyline clip-path="url(#clip362)" style="stroke:#000000; stroke-linecap:butt; stroke-linejoin:round; stroke-width:2; stroke-opacity:0.1; fill:none" points="
  219.866,509.321 2352.76,509.321 
  "/>
<polyline clip-path="url(#clip362)" style="stroke:#000000; stroke-linecap:butt; stroke-linejoin:round; stroke-width:2; stroke-opacity:0.1; fill:none" points="
  219.866,200.849 2352.76,200.849 
  "/>
<polyline clip-path="url(#clip360)" style="stroke:#000000; stroke-linecap:butt; stroke-linejoin:round; stroke-width:4; stroke-opacity:1; fill:none" points="
  219.866,1423.18 219.866,47.2441 
  "/>
<polyline clip-path="url(#clip360)" style="stroke:#000000; stroke-linecap:butt; stroke-linejoin:round; stroke-width:4; stroke-opacity:1; fill:none" points="
  219.866,1126.26 238.764,1126.26 
  "/>
<polyline clip-path="url(#clip360)" style="stroke:#000000; stroke-linecap:butt; stroke-linejoin:round; stroke-width:4; stroke-opacity:1; fill:none" points="
  219.866,817.792 238.764,817.792 
  "/>
<polyline clip-path="url(#clip360)" style="stroke:#000000; stroke-linecap:butt; stroke-linejoin:round; stroke-width:4; stroke-opacity:1; fill:none" points="
  219.866,509.321 238.764,509.321 
  "/>
<polyline clip-path="url(#clip360)" style="stroke:#000000; stroke-linecap:butt; stroke-linejoin:round; stroke-width:4; stroke-opacity:1; fill:none" points="
  219.866,200.849 238.764,200.849 
  "/>
<path clip-path="url(#clip360)" d="M128.288 1112.06 Q124.677 1112.06 122.848 1115.63 Q121.043 1119.17 121.043 1126.3 Q121.043 1133.4 122.848 1136.97 Q124.677 1140.51 128.288 1140.51 Q131.922 1140.51 133.728 1136.97 Q135.556 1133.4 135.556 1126.3 Q135.556 1119.17 133.728 1115.63 Q131.922 1112.06 128.288 1112.06 M128.288 1108.36 Q134.098 1108.36 137.154 1112.96 Q140.232 1117.55 140.232 1126.3 Q140.232 1135.02 137.154 1139.63 Q134.098 1144.21 128.288 1144.21 Q122.478 1144.21 119.399 1139.63 Q116.343 1135.02 116.343 1126.3 Q116.343 1117.55 119.399 1112.96 Q122.478 1108.36 128.288 1108.36 Z" fill="#000000" fill-rule="evenodd" fill-opacity="1" /><path clip-path="url(#clip360)" d="M148.45 1137.66 L153.334 1137.66 L153.334 1143.54 L148.45 1143.54 L148.45 1137.66 Z" fill="#000000" fill-rule="evenodd" fill-opacity="1" /><path clip-path="url(#clip360)" d="M167.547 1139.61 L183.866 1139.61 L183.866 1143.54 L161.922 1143.54 L161.922 1139.61 Q164.584 1136.85 169.167 1132.22 Q173.774 1127.57 174.954 1126.23 Q177.2 1123.71 178.079 1121.97 Q178.982 1120.21 178.982 1118.52 Q178.982 1115.77 177.038 1114.03 Q175.116 1112.29 172.014 1112.29 Q169.815 1112.29 167.362 1113.06 Q164.931 1113.82 162.153 1115.37 L162.153 1110.65 Q164.977 1109.52 167.431 1108.94 Q169.885 1108.36 171.922 1108.36 Q177.292 1108.36 180.487 1111.04 Q183.681 1113.73 183.681 1118.22 Q183.681 1120.35 182.871 1122.27 Q182.084 1124.17 179.977 1126.76 Q179.399 1127.43 176.297 1130.65 Q173.195 1133.84 167.547 1139.61 Z" fill="#000000" fill-rule="evenodd" fill-opacity="1" /><path clip-path="url(#clip360)" d="M126.205 803.591 Q122.593 803.591 120.765 807.156 Q118.959 810.697 118.959 817.827 Q118.959 824.933 120.765 828.498 Q122.593 832.04 126.205 832.04 Q129.839 832.04 131.644 828.498 Q133.473 824.933 133.473 817.827 Q133.473 810.697 131.644 807.156 Q129.839 803.591 126.205 803.591 M126.205 799.887 Q132.015 799.887 135.07 804.493 Q138.149 809.077 138.149 817.827 Q138.149 826.554 135.07 831.16 Q132.015 835.743 126.205 835.743 Q120.394 835.743 117.316 831.16 Q114.26 826.554 114.26 817.827 Q114.26 809.077 117.316 804.493 Q120.394 799.887 126.205 799.887 Z" fill="#000000" fill-rule="evenodd" fill-opacity="1" /><path clip-path="url(#clip360)" d="M146.366 829.192 L151.251 829.192 L151.251 835.072 L146.366 835.072 L146.366 829.192 Z" fill="#000000" fill-rule="evenodd" fill-opacity="1" /><path clip-path="url(#clip360)" d="M174.283 804.586 L162.477 823.035 L174.283 823.035 L174.283 804.586 M173.056 800.512 L178.936 800.512 L178.936 823.035 L183.866 823.035 L183.866 826.924 L178.936 826.924 L178.936 835.072 L174.283 835.072 L174.283 826.924 L158.681 826.924 L158.681 822.41 L173.056 800.512 Z" fill="#000000" fill-rule="evenodd" fill-opacity="1" /><path clip-path="url(#clip360)" d="M126.529 495.119 Q122.918 495.119 121.089 498.684 Q119.283 502.226 119.283 509.355 Q119.283 516.462 121.089 520.027 Q122.918 523.568 126.529 523.568 Q130.163 523.568 131.968 520.027 Q133.797 516.462 133.797 509.355 Q133.797 502.226 131.968 498.684 Q130.163 495.119 126.529 495.119 M126.529 491.416 Q132.339 491.416 135.394 496.022 Q138.473 500.605 138.473 509.355 Q138.473 518.082 135.394 522.689 Q132.339 527.272 126.529 527.272 Q120.718 527.272 117.64 522.689 Q114.584 518.082 114.584 509.355 Q114.584 500.605 117.64 496.022 Q120.718 491.416 126.529 491.416 Z" fill="#000000" fill-rule="evenodd" fill-opacity="1" /><path clip-path="url(#clip360)" d="M146.691 520.721 L151.575 520.721 L151.575 526.601 L146.691 526.601 L146.691 520.721 Z" fill="#000000" fill-rule="evenodd" fill-opacity="1" /><path clip-path="url(#clip360)" d="M172.339 507.457 Q169.19 507.457 167.339 509.61 Q165.51 511.763 165.51 515.513 Q165.51 519.24 167.339 521.416 Q169.19 523.568 172.339 523.568 Q175.487 523.568 177.315 521.416 Q179.167 519.24 179.167 515.513 Q179.167 511.763 177.315 509.61 Q175.487 507.457 172.339 507.457 M181.621 492.805 L181.621 497.064 Q179.862 496.231 178.056 495.791 Q176.274 495.351 174.514 495.351 Q169.885 495.351 167.431 498.476 Q165.001 501.601 164.653 507.92 Q166.019 505.906 168.079 504.842 Q170.139 503.754 172.616 503.754 Q177.825 503.754 180.834 506.925 Q183.866 510.073 183.866 515.513 Q183.866 520.837 180.718 524.054 Q177.57 527.272 172.339 527.272 Q166.343 527.272 163.172 522.689 Q160.001 518.082 160.001 509.355 Q160.001 501.161 163.89 496.3 Q167.778 491.416 174.329 491.416 Q176.089 491.416 177.871 491.763 Q179.676 492.11 181.621 492.805 Z" fill="#000000" fill-rule="evenodd" fill-opacity="1" /><path clip-path="url(#clip360)" d="M126.783 186.648 Q123.172 186.648 121.343 190.213 Q119.538 193.755 119.538 200.884 Q119.538 207.991 121.343 211.555 Q123.172 215.097 126.783 215.097 Q130.417 215.097 132.223 211.555 Q134.052 207.991 134.052 200.884 Q134.052 193.755 132.223 190.213 Q130.417 186.648 126.783 186.648 M126.783 182.944 Q132.593 182.944 135.649 187.551 Q138.728 192.134 138.728 200.884 Q138.728 209.611 135.649 214.217 Q132.593 218.801 126.783 218.801 Q120.973 218.801 117.894 214.217 Q114.839 209.611 114.839 200.884 Q114.839 192.134 117.894 187.551 Q120.973 182.944 126.783 182.944 Z" fill="#000000" fill-rule="evenodd" fill-opacity="1" /><path clip-path="url(#clip360)" d="M146.945 212.25 L151.829 212.25 L151.829 218.129 L146.945 218.129 L146.945 212.25 Z" fill="#000000" fill-rule="evenodd" fill-opacity="1" /><path clip-path="url(#clip360)" d="M172.014 201.717 Q168.681 201.717 166.76 203.5 Q164.862 205.282 164.862 208.407 Q164.862 211.532 166.76 213.315 Q168.681 215.097 172.014 215.097 Q175.348 215.097 177.269 213.315 Q179.19 211.509 179.19 208.407 Q179.19 205.282 177.269 203.5 Q175.371 201.717 172.014 201.717 M167.339 199.727 Q164.329 198.986 162.64 196.926 Q160.973 194.866 160.973 191.903 Q160.973 187.759 163.913 185.352 Q166.876 182.944 172.014 182.944 Q177.176 182.944 180.116 185.352 Q183.056 187.759 183.056 191.903 Q183.056 194.866 181.366 196.926 Q179.7 198.986 176.714 199.727 Q180.093 200.514 181.968 202.805 Q183.866 205.097 183.866 208.407 Q183.866 213.43 180.788 216.116 Q177.732 218.801 172.014 218.801 Q166.297 218.801 163.218 216.116 Q160.163 213.43 160.163 208.407 Q160.163 205.097 162.061 202.805 Q163.959 200.514 167.339 199.727 M165.626 192.343 Q165.626 195.028 167.292 196.532 Q168.982 198.037 172.014 198.037 Q175.024 198.037 176.714 196.532 Q178.426 195.028 178.426 192.343 Q178.426 189.657 176.714 188.153 Q175.024 186.648 172.014 186.648 Q168.982 186.648 167.292 188.153 Q165.626 189.657 165.626 192.343 Z" fill="#000000" fill-rule="evenodd" fill-opacity="1" /><path clip-path="url(#clip360)" d="M35.1993 836.538 Q31.2526 834.342 29.3747 831.286 Q27.4968 828.231 27.4968 824.093 Q27.4968 818.523 31.4117 815.499 Q35.2948 812.476 42.4881 812.476 L64.0042 812.476 L64.0042 818.364 L42.679 818.364 Q37.5546 818.364 35.072 820.178 Q32.5894 821.992 32.5894 825.716 Q32.5894 830.268 35.6131 832.91 Q38.6368 835.551 43.8567 835.551 L64.0042 835.551 L64.0042 841.44 L42.679 841.44 Q37.5228 841.44 35.072 843.254 Q32.5894 845.068 32.5894 848.856 Q32.5894 853.344 35.6449 855.985 Q38.6686 858.627 43.8567 858.627 L64.0042 858.627 L64.0042 864.515 L28.3562 864.515 L28.3562 858.627 L33.8944 858.627 Q30.616 856.622 29.0564 853.821 Q27.4968 851.02 27.4968 847.169 Q27.4968 843.286 29.4702 840.58 Q31.4436 837.843 35.1993 836.538 Z" fill="#000000" fill-rule="evenodd" fill-opacity="1" /><path clip-path="url(#clip360)" d="M14.479 826.226 L14.479 820.369 L21.895 820.369 L21.895 826.226 L14.479 826.226 M27.4968 823.234 L27.4968 823.234 Z" fill="#000000" fill-rule="evenodd" fill-opacity="1" /><path clip-path="url(#clip360)" d="M14.5426 766.006 Q21.8632 770.271 29.0246 772.34 Q36.186 774.409 43.5384 774.409 Q50.8908 774.409 58.1159 772.34 Q65.3091 770.239 72.5979 766.006 L72.5979 771.099 Q65.1182 775.873 57.8931 778.26 Q50.668 780.615 43.5384 780.615 Q36.4406 780.615 29.2474 778.26 Q22.0542 775.905 14.5426 771.099 L14.5426 766.006 Z" fill="#000000" fill-rule="evenodd" fill-opacity="1" /><path clip-path="url(#clip360)" d="M14.479 754.866 L14.479 748.978 L43.7294 748.978 L28.3562 731.504 L28.3562 724.024 L45.0344 742.93 L64.0042 723.229 L64.0042 730.867 L46.5939 748.978 L64.0042 748.978 L64.0042 754.866 L14.479 754.866 Z" fill="#000000" fill-rule="evenodd" fill-opacity="1" /><path clip-path="url(#clip360)" d="M45.7664 693.437 Q39.4007 693.437 35.8996 696.079 Q32.3984 698.689 32.3984 703.431 Q32.3984 708.142 35.8996 710.784 Q39.4007 713.394 45.7664 713.394 Q52.1003 713.394 55.6014 710.784 Q59.1026 708.142 59.1026 703.431 Q59.1026 698.689 55.6014 696.079 Q52.1003 693.437 45.7664 693.437 M59.58 687.581 Q68.683 687.581 73.1071 691.623 Q77.5631 695.665 77.5631 704.004 Q77.5631 707.091 77.0857 709.829 Q76.6401 712.566 75.6852 715.144 L69.9879 715.144 Q71.3884 712.566 72.0568 710.052 Q72.7252 707.537 72.7252 704.927 Q72.7252 699.166 69.7015 696.302 Q66.7096 693.437 60.6303 693.437 L57.7339 693.437 Q60.885 695.251 62.4446 698.084 Q64.0042 700.917 64.0042 704.863 Q64.0042 711.42 59.0071 715.431 Q54.01 719.441 45.7664 719.441 Q37.491 719.441 32.4939 715.431 Q27.4968 711.42 27.4968 704.863 Q27.4968 700.917 29.0564 698.084 Q30.616 695.251 33.7671 693.437 L28.3562 693.437 L28.3562 687.581 L59.58 687.581 Z" fill="#000000" fill-rule="evenodd" fill-opacity="1" /><path clip-path="url(#clip360)" d="M16.4842 665.11 L16.4842 659.699 L70.0516 676.25 L70.0516 681.66 L16.4842 665.11 Z" fill="#000000" fill-rule="evenodd" fill-opacity="1" /><path clip-path="url(#clip360)" d="M29.4065 630.83 L34.9447 630.83 Q33.6716 633.313 33.035 635.987 Q32.3984 638.66 32.3984 641.525 Q32.3984 645.885 33.7352 648.081 Q35.072 650.246 37.7456 650.246 Q39.7826 650.246 40.9603 648.686 Q42.1061 647.127 43.1565 642.416 L43.6021 640.411 Q44.9389 634.172 47.3897 631.562 Q49.8086 628.921 54.1691 628.921 Q59.1344 628.921 62.0308 632.867 Q64.9272 636.782 64.9272 643.657 Q64.9272 646.522 64.3543 649.641 Q63.8132 652.728 62.6992 656.166 L56.6518 656.166 Q58.3387 652.919 59.198 649.768 Q60.0256 646.617 60.0256 643.53 Q60.0256 639.392 58.6251 637.164 Q57.1929 634.936 54.6147 634.936 Q52.2276 634.936 50.9545 636.559 Q49.6813 638.151 48.5037 643.594 L48.0262 645.631 Q46.8804 651.073 44.5251 653.492 Q42.138 655.911 38.0002 655.911 Q32.9713 655.911 30.2341 652.346 Q27.4968 648.782 27.4968 642.225 Q27.4968 638.978 27.9743 636.114 Q28.4517 633.249 29.4065 630.83 Z" fill="#000000" fill-rule="evenodd" fill-opacity="1" /><path clip-path="url(#clip360)" d="M14.5426 620.518 L14.5426 615.425 Q22.0542 610.651 29.2474 608.296 Q36.4406 605.909 43.5384 605.909 Q50.668 605.909 57.8931 608.296 Q65.1182 610.651 72.5979 615.425 L72.5979 620.518 Q65.3091 616.285 58.1159 614.216 Q50.8908 612.115 43.5384 612.115 Q36.186 612.115 29.0246 614.216 Q21.8632 616.285 14.5426 620.518 Z" fill="#000000" fill-rule="evenodd" fill-opacity="1" /><polyline clip-path="url(#clip362)" style="stroke:#e8000b; stroke-linecap:butt; stroke-linejoin:round; stroke-width:4; stroke-opacity:1; fill:none" points="
  280.231,1384.24 300.556,1328.96 320.881,1292.55 341.206,1263.02 361.53,1237.36 381.855,1214.24 402.18,1192.95 422.505,1173.05 442.83,1154.24 463.155,1136.32 
  483.48,1119.13 503.804,1102.57 524.129,1086.53 544.454,1070.96 564.779,1055.78 585.104,1040.96 605.429,1026.46 625.753,1012.23 646.078,998.251 666.403,984.501 
  686.728,970.957 707.053,957.6 727.378,944.414 747.703,931.385 768.027,918.501 788.352,905.75 808.677,893.122 829.002,880.608 849.327,868.2 869.652,855.891 
  889.977,843.674 910.301,831.543 930.626,819.493 950.951,807.519 971.276,795.615 991.601,783.779 1011.93,772.006 1032.25,760.292 1052.58,748.634 1072.9,737.029 
  1093.23,725.475 1113.55,713.968 1133.87,702.507 1154.2,691.088 1174.52,679.711 1194.85,668.372 1215.17,657.071 1235.5,645.804 1255.82,634.572 1276.15,623.371 
  1296.47,612.202 1316.8,601.061 1337.12,589.949 1357.45,578.864 1377.77,567.805 1398.1,556.77 1418.42,545.76 1438.75,534.772 1459.07,523.806 1479.4,512.861 
  1499.72,501.936 1520.05,491.031 1540.37,480.144 1560.7,469.276 1581.02,458.425 1601.35,447.591 1621.67,436.773 1642,425.971 1662.32,415.184 1682.65,404.411 
  1702.97,393.653 1723.3,382.908 1743.62,372.176 1763.95,361.458 1784.27,350.751 1804.59,340.056 1824.92,329.373 1845.24,318.702 1865.57,308.041 1885.89,297.39 
  1906.22,286.75 1926.54,276.12 1946.87,265.499 1967.19,254.888 1987.52,244.286 2007.84,233.693 2028.17,223.108 2048.49,212.531 2068.82,201.963 2089.14,191.402 
  2109.47,180.849 2129.79,170.304 2150.12,159.766 2170.44,149.234 2190.77,138.71 2211.09,128.193 2231.42,117.681 2251.74,107.177 2272.07,96.6782 2292.39,86.1857 
  
  "/>
<circle clip-path="url(#clip362)" cx="946.465" cy="810.156" r="14.4" fill="#ff0000" fill-rule="evenodd" fill-opacity="1" stroke="#000000" stroke-opacity="1" stroke-width="3.2"/>
<path clip-path="url(#clip360)" d="
M1472.85 787.052 L2281.66 787.052 L2281.66 631.532 L1472.85 631.532  Z
  " fill="#ffffff" fill-rule="evenodd" fill-opacity="1"/>
<polyline clip-path="url(#clip360)" style="stroke:#000000; stroke-linecap:butt; stroke-linejoin:round; stroke-width:4; stroke-opacity:1; fill:none" points="
  1472.85,787.052 2281.66,787.052 2281.66,631.532 1472.85,631.532 1472.85,787.052 
  "/>
<polyline clip-path="url(#clip360)" style="stroke:#e8000b; stroke-linecap:butt; stroke-linejoin:round; stroke-width:4; stroke-opacity:1; fill:none" points="
  1496.54,683.372 1638.74,683.372 
  "/>
<path clip-path="url(#clip360)" d="M1662.44 666.092 L1669.4 666.092 L1678.22 689.61 L1687.09 666.092 L1694.06 666.092 L1694.06 700.652 L1689.5 700.652 L1689.5 670.305 L1680.58 694.008 L1675.89 694.008 L1666.97 670.305 L1666.97 700.652 L1662.44 700.652 L1662.44 666.092 Z" fill="#000000" fill-rule="evenodd" fill-opacity="1" /><path clip-path="url(#clip360)" d="M1713.2 677.712 Q1709.77 677.712 1707.78 680.397 Q1705.79 683.059 1705.79 687.712 Q1705.79 692.365 1707.76 695.05 Q1709.75 697.712 1713.2 697.712 Q1716.6 697.712 1718.59 695.027 Q1720.58 692.342 1720.58 687.712 Q1720.58 683.106 1718.59 680.421 Q1716.6 677.712 1713.2 677.712 M1713.2 674.101 Q1718.76 674.101 1721.93 677.712 Q1725.1 681.323 1725.1 687.712 Q1725.1 694.078 1721.93 697.712 Q1718.76 701.323 1713.2 701.323 Q1707.62 701.323 1704.45 697.712 Q1701.3 694.078 1701.3 687.712 Q1701.3 681.323 1704.45 677.712 Q1707.62 674.101 1713.2 674.101 Z" fill="#000000" fill-rule="evenodd" fill-opacity="1" /><path clip-path="url(#clip360)" d="M1749.22 678.661 L1749.22 664.634 L1753.48 664.634 L1753.48 700.652 L1749.22 700.652 L1749.22 696.763 Q1747.88 699.078 1745.82 700.212 Q1743.78 701.323 1740.91 701.323 Q1736.21 701.323 1733.25 697.573 Q1730.31 693.823 1730.31 687.712 Q1730.31 681.601 1733.25 677.851 Q1736.21 674.101 1740.91 674.101 Q1743.78 674.101 1745.82 675.235 Q1747.88 676.347 1749.22 678.661 M1734.7 687.712 Q1734.7 692.411 1736.63 695.096 Q1738.57 697.758 1741.95 697.758 Q1745.33 697.758 1747.27 695.096 Q1749.22 692.411 1749.22 687.712 Q1749.22 683.013 1747.27 680.351 Q1745.33 677.666 1741.95 677.666 Q1738.57 677.666 1736.63 680.351 Q1734.7 683.013 1734.7 687.712 Z" fill="#000000" fill-rule="evenodd" fill-opacity="1" /><path clip-path="url(#clip360)" d="M1762.25 674.726 L1766.51 674.726 L1766.51 700.652 L1762.25 700.652 L1762.25 674.726 M1762.25 664.634 L1766.51 664.634 L1766.51 670.027 L1762.25 670.027 L1762.25 664.634 Z" fill="#000000" fill-rule="evenodd" fill-opacity="1" /><path clip-path="url(#clip360)" d="M1788.55 664.634 L1788.55 668.175 L1784.47 668.175 Q1782.18 668.175 1781.28 669.101 Q1780.4 670.027 1780.4 672.435 L1780.4 674.726 L1787.41 674.726 L1787.41 678.036 L1780.4 678.036 L1780.4 700.652 L1776.12 700.652 L1776.12 678.036 L1772.04 678.036 L1772.04 674.726 L1776.12 674.726 L1776.12 672.921 Q1776.12 668.592 1778.13 666.624 Q1780.14 664.634 1784.52 664.634 L1788.55 664.634 Z" fill="#000000" fill-rule="evenodd" fill-opacity="1" /><path clip-path="url(#clip360)" d="M1792.11 674.726 L1796.37 674.726 L1796.37 700.652 L1792.11 700.652 L1792.11 674.726 M1792.11 664.634 L1796.37 664.634 L1796.37 670.027 L1792.11 670.027 L1792.11 664.634 Z" fill="#000000" fill-rule="evenodd" fill-opacity="1" /><path clip-path="url(#clip360)" d="M1827.46 686.624 L1827.46 688.708 L1807.88 688.708 Q1808.15 693.106 1810.51 695.421 Q1812.9 697.712 1817.13 697.712 Q1819.59 697.712 1821.88 697.11 Q1824.19 696.508 1826.46 695.305 L1826.46 699.333 Q1824.17 700.305 1821.76 700.814 Q1819.36 701.323 1816.88 701.323 Q1810.68 701.323 1807.04 697.712 Q1803.43 694.101 1803.43 687.944 Q1803.43 681.578 1806.86 677.851 Q1810.31 674.101 1816.14 674.101 Q1821.37 674.101 1824.4 677.481 Q1827.46 680.837 1827.46 686.624 M1823.2 685.374 Q1823.15 681.879 1821.23 679.796 Q1819.33 677.712 1816.19 677.712 Q1812.62 677.712 1810.47 679.726 Q1808.34 681.74 1808.01 685.397 L1823.2 685.374 Z" fill="#000000" fill-rule="evenodd" fill-opacity="1" /><path clip-path="url(#clip360)" d="M1851.51 678.661 L1851.51 664.634 L1855.77 664.634 L1855.77 700.652 L1851.51 700.652 L1851.51 696.763 Q1850.17 699.078 1848.11 700.212 Q1846.07 701.323 1843.2 701.323 Q1838.5 701.323 1835.54 697.573 Q1832.6 693.823 1832.6 687.712 Q1832.6 681.601 1835.54 677.851 Q1838.5 674.101 1843.2 674.101 Q1846.07 674.101 1848.11 675.235 Q1850.17 676.347 1851.51 678.661 M1837 687.712 Q1837 692.411 1838.92 695.096 Q1840.86 697.758 1844.24 697.758 Q1847.62 697.758 1849.57 695.096 Q1851.51 692.411 1851.51 687.712 Q1851.51 683.013 1849.57 680.351 Q1847.62 677.666 1844.24 677.666 Q1840.86 677.666 1838.92 680.351 Q1837 683.013 1837 687.712 Z" fill="#000000" fill-rule="evenodd" fill-opacity="1" /><path clip-path="url(#clip360)" d="M1884.47 669.935 L1884.47 696.809 L1890.12 696.809 Q1897.27 696.809 1900.58 693.569 Q1903.92 690.328 1903.92 683.337 Q1903.92 676.393 1900.58 673.175 Q1897.27 669.935 1890.12 669.935 L1884.47 669.935 M1879.8 666.092 L1889.4 666.092 Q1899.45 666.092 1904.15 670.282 Q1908.85 674.448 1908.85 683.337 Q1908.85 692.272 1904.12 696.462 Q1899.4 700.652 1889.4 700.652 L1879.8 700.652 L1879.8 666.092 Z" fill="#000000" fill-rule="evenodd" fill-opacity="1" /><path clip-path="url(#clip360)" d="M1927.9 687.62 Q1922.74 687.62 1920.75 688.8 Q1918.75 689.981 1918.75 692.828 Q1918.75 695.096 1920.24 696.439 Q1921.74 697.758 1924.31 697.758 Q1927.85 697.758 1929.98 695.258 Q1932.13 692.735 1932.13 688.569 L1932.13 687.62 L1927.9 687.62 M1936.39 685.86 L1936.39 700.652 L1932.13 700.652 L1932.13 696.717 Q1930.68 699.078 1928.5 700.212 Q1926.32 701.323 1923.18 701.323 Q1919.19 701.323 1916.83 699.101 Q1914.5 696.856 1914.5 693.106 Q1914.5 688.731 1917.41 686.509 Q1920.35 684.286 1926.16 684.286 L1932.13 684.286 L1932.13 683.87 Q1932.13 680.93 1930.19 679.333 Q1928.27 677.712 1924.77 677.712 Q1922.55 677.712 1920.44 678.245 Q1918.34 678.777 1916.39 679.842 L1916.39 675.907 Q1918.73 675.004 1920.93 674.564 Q1923.13 674.101 1925.21 674.101 Q1930.84 674.101 1933.62 677.018 Q1936.39 679.934 1936.39 685.86 Z" fill="#000000" fill-rule="evenodd" fill-opacity="1" /><path clip-path="url(#clip360)" d="M1960.19 678.708 Q1959.47 678.291 1958.62 678.106 Q1957.78 677.897 1956.76 677.897 Q1953.15 677.897 1951.21 680.259 Q1949.29 682.597 1949.29 686.995 L1949.29 700.652 L1945 700.652 L1945 674.726 L1949.29 674.726 L1949.29 678.754 Q1950.63 676.393 1952.78 675.259 Q1954.93 674.101 1958.01 674.101 Q1958.45 674.101 1958.99 674.171 Q1959.52 674.217 1960.17 674.333 L1960.19 678.708 Z" fill="#000000" fill-rule="evenodd" fill-opacity="1" /><path clip-path="url(#clip360)" d="M1982.27 675.722 L1982.27 679.703 Q1980.47 678.708 1978.64 678.222 Q1976.83 677.712 1974.98 677.712 Q1970.84 677.712 1968.55 680.351 Q1966.25 682.967 1966.25 687.712 Q1966.25 692.458 1968.55 695.096 Q1970.84 697.712 1974.98 697.712 Q1976.83 697.712 1978.64 697.226 Q1980.47 696.717 1982.27 695.721 L1982.27 699.657 Q1980.49 700.49 1978.57 700.907 Q1976.67 701.323 1974.52 701.323 Q1968.66 701.323 1965.21 697.643 Q1961.76 693.962 1961.76 687.712 Q1961.76 681.37 1965.24 677.735 Q1968.73 674.101 1974.8 674.101 Q1976.76 674.101 1978.64 674.518 Q1980.51 674.911 1982.27 675.722 Z" fill="#000000" fill-rule="evenodd" fill-opacity="1" /><path clip-path="url(#clip360)" d="M2000.47 703.059 Q1998.66 707.689 1996.95 709.101 Q1995.24 710.513 1992.37 710.513 L1988.96 710.513 L1988.96 706.948 L1991.46 706.948 Q1993.22 706.948 1994.19 706.115 Q1995.17 705.282 1996.35 702.18 L1997.11 700.235 L1986.62 674.726 L1991.14 674.726 L1999.24 695.004 L2007.34 674.726 L2011.86 674.726 L2000.47 703.059 Z" fill="#000000" fill-rule="evenodd" fill-opacity="1" /><path clip-path="url(#clip360)" d="M2032.99 666.092 L2054.84 666.092 L2054.84 670.027 L2037.67 670.027 L2037.67 680.259 L2054.12 680.259 L2054.12 684.194 L2037.67 684.194 L2037.67 696.717 L2055.26 696.717 L2055.26 700.652 L2032.99 700.652 L2032.99 666.092 Z" fill="#000000" fill-rule="evenodd" fill-opacity="1" /><path clip-path="url(#clip360)" d="M2065.3 687.712 Q2065.3 692.411 2067.23 695.096 Q2069.17 697.758 2072.55 697.758 Q2075.93 697.758 2077.87 695.096 Q2079.82 692.411 2079.82 687.712 Q2079.82 683.013 2077.87 680.351 Q2075.93 677.666 2072.55 677.666 Q2069.17 677.666 2067.23 680.351 Q2065.3 683.013 2065.3 687.712 M2079.82 696.763 Q2078.48 699.078 2076.42 700.212 Q2074.38 701.323 2071.51 701.323 Q2066.81 701.323 2063.85 697.573 Q2060.91 693.823 2060.91 687.712 Q2060.91 681.601 2063.85 677.851 Q2066.81 674.101 2071.51 674.101 Q2074.38 674.101 2076.42 675.235 Q2078.48 676.347 2079.82 678.661 L2079.82 674.726 L2084.08 674.726 L2084.08 710.513 L2079.82 710.513 L2079.82 696.763 Z" fill="#000000" fill-rule="evenodd" fill-opacity="1" /><path clip-path="url(#clip360)" d="M2092.41 690.421 L2092.41 674.726 L2096.67 674.726 L2096.67 690.259 Q2096.67 693.939 2098.11 695.791 Q2099.54 697.62 2102.41 697.62 Q2105.86 697.62 2107.85 695.421 Q2109.86 693.221 2109.86 689.425 L2109.86 674.726 L2114.12 674.726 L2114.12 700.652 L2109.86 700.652 L2109.86 696.671 Q2108.31 699.032 2106.25 700.189 Q2104.22 701.323 2101.51 701.323 Q2097.04 701.323 2094.73 698.545 Q2092.41 695.768 2092.41 690.421 M2103.13 674.101 L2103.13 674.101 Z" fill="#000000" fill-rule="evenodd" fill-opacity="1" /><path clip-path="url(#clip360)" d="M2134.68 687.62 Q2129.52 687.62 2127.53 688.8 Q2125.54 689.981 2125.54 692.828 Q2125.54 695.096 2127.02 696.439 Q2128.52 697.758 2131.09 697.758 Q2134.63 697.758 2136.76 695.258 Q2138.92 692.735 2138.92 688.569 L2138.92 687.62 L2134.68 687.62 M2143.17 685.86 L2143.17 700.652 L2138.92 700.652 L2138.92 696.717 Q2137.46 699.078 2135.28 700.212 Q2133.11 701.323 2129.96 701.323 Q2125.98 701.323 2123.61 699.101 Q2121.28 696.856 2121.28 693.106 Q2121.28 688.731 2124.19 686.509 Q2127.13 684.286 2132.94 684.286 L2138.92 684.286 L2138.92 683.87 Q2138.92 680.93 2136.97 679.333 Q2135.05 677.712 2131.55 677.712 Q2129.33 677.712 2127.23 678.245 Q2125.12 678.777 2123.17 679.842 L2123.17 675.907 Q2125.51 675.004 2127.71 674.564 Q2129.91 674.101 2131.99 674.101 Q2137.62 674.101 2140.4 677.018 Q2143.17 679.934 2143.17 685.86 Z" fill="#000000" fill-rule="evenodd" fill-opacity="1" /><path clip-path="url(#clip360)" d="M2156.16 667.365 L2156.16 674.726 L2164.93 674.726 L2164.93 678.036 L2156.16 678.036 L2156.16 692.11 Q2156.16 695.282 2157.02 696.184 Q2157.9 697.087 2160.56 697.087 L2164.93 697.087 L2164.93 700.652 L2160.56 700.652 Q2155.63 700.652 2153.75 698.823 Q2151.88 696.971 2151.88 692.11 L2151.88 678.036 L2148.75 678.036 L2148.75 674.726 L2151.88 674.726 L2151.88 667.365 L2156.16 667.365 Z" fill="#000000" fill-rule="evenodd" fill-opacity="1" /><path clip-path="url(#clip360)" d="M2170.54 674.726 L2174.79 674.726 L2174.79 700.652 L2170.54 700.652 L2170.54 674.726 M2170.54 664.634 L2174.79 664.634 L2174.79 670.027 L2170.54 670.027 L2170.54 664.634 Z" fill="#000000" fill-rule="evenodd" fill-opacity="1" /><path clip-path="url(#clip360)" d="M2193.75 677.712 Q2190.33 677.712 2188.34 680.397 Q2186.35 683.059 2186.35 687.712 Q2186.35 692.365 2188.31 695.05 Q2190.3 697.712 2193.75 697.712 Q2197.16 697.712 2199.15 695.027 Q2201.14 692.342 2201.14 687.712 Q2201.14 683.106 2199.15 680.421 Q2197.16 677.712 2193.75 677.712 M2193.75 674.101 Q2199.31 674.101 2202.48 677.712 Q2205.65 681.323 2205.65 687.712 Q2205.65 694.078 2202.48 697.712 Q2199.31 701.323 2193.75 701.323 Q2188.17 701.323 2185 697.712 Q2181.85 694.078 2181.85 687.712 Q2181.85 681.323 2185 677.712 Q2188.17 674.101 2193.75 674.101 Z" fill="#000000" fill-rule="evenodd" fill-opacity="1" /><path clip-path="url(#clip360)" d="M2234.26 685.004 L2234.26 700.652 L2230 700.652 L2230 685.143 Q2230 681.462 2228.57 679.634 Q2227.13 677.805 2224.26 677.805 Q2220.81 677.805 2218.82 680.004 Q2216.83 682.203 2216.83 685.999 L2216.83 700.652 L2212.55 700.652 L2212.55 674.726 L2216.83 674.726 L2216.83 678.754 Q2218.36 676.416 2220.42 675.259 Q2222.5 674.101 2225.21 674.101 Q2229.68 674.101 2231.97 676.879 Q2234.26 679.634 2234.26 685.004 Z" fill="#000000" fill-rule="evenodd" fill-opacity="1" /><circle clip-path="url(#clip360)" cx="1567.64" cy="735.212" r="23.04" fill="#ff0000" fill-rule="evenodd" fill-opacity="1" stroke="#000000" stroke-opacity="1" stroke-width="5.12"/>
<path clip-path="url(#clip360)" d="M1662.44 717.932 L1691.67 717.932 L1691.67 721.867 L1679.4 721.867 L1679.4 752.492 L1674.7 752.492 L1674.7 721.867 L1662.44 721.867 L1662.44 717.932 Z" fill="#000000" fill-rule="evenodd" fill-opacity="1" /><path clip-path="url(#clip360)" d="M1717.55 736.844 L1717.55 752.492 L1713.29 752.492 L1713.29 736.983 Q1713.29 733.302 1711.86 731.474 Q1710.42 729.645 1707.55 729.645 Q1704.1 729.645 1702.11 731.844 Q1700.12 734.043 1700.12 737.839 L1700.12 752.492 L1695.84 752.492 L1695.84 716.474 L1700.12 716.474 L1700.12 730.594 Q1701.65 728.256 1703.71 727.099 Q1705.79 725.941 1708.5 725.941 Q1712.97 725.941 1715.26 728.719 Q1717.55 731.474 1717.55 736.844 Z" fill="#000000" fill-rule="evenodd" fill-opacity="1" /><path clip-path="url(#clip360)" d="M1726.05 726.566 L1730.31 726.566 L1730.31 752.492 L1726.05 752.492 L1726.05 726.566 M1726.05 716.474 L1730.31 716.474 L1730.31 721.867 L1726.05 721.867 L1726.05 716.474 Z" fill="#000000" fill-rule="evenodd" fill-opacity="1" /><path clip-path="url(#clip360)" d="M1755.75 727.33 L1755.75 731.358 Q1753.94 730.432 1752 729.969 Q1750.05 729.506 1747.97 729.506 Q1744.8 729.506 1743.2 730.478 Q1741.63 731.45 1741.63 733.395 Q1741.63 734.876 1742.76 735.733 Q1743.89 736.566 1747.32 737.33 L1748.78 737.654 Q1753.32 738.626 1755.21 740.409 Q1757.13 742.168 1757.13 745.339 Q1757.13 748.95 1754.26 751.057 Q1751.42 753.163 1746.42 753.163 Q1744.33 753.163 1742.07 752.747 Q1739.82 752.353 1737.32 751.543 L1737.32 747.145 Q1739.68 748.372 1741.97 748.997 Q1744.26 749.598 1746.51 749.598 Q1749.52 749.598 1751.14 748.58 Q1752.76 747.538 1752.76 745.663 Q1752.76 743.927 1751.58 743.001 Q1750.42 742.075 1746.46 741.219 L1744.98 740.872 Q1741.02 740.038 1739.26 738.325 Q1737.51 736.589 1737.51 733.58 Q1737.51 729.923 1740.1 727.932 Q1742.69 725.941 1747.46 725.941 Q1749.82 725.941 1751.9 726.288 Q1753.99 726.636 1755.75 727.33 Z" fill="#000000" fill-rule="evenodd" fill-opacity="1" /><path clip-path="url(#clip360)" d="M1779.17 717.932 L1801.02 717.932 L1801.02 721.867 L1783.85 721.867 L1783.85 732.099 L1800.31 732.099 L1800.31 736.034 L1783.85 736.034 L1783.85 748.557 L1801.44 748.557 L1801.44 752.492 L1779.17 752.492 L1779.17 717.932 Z" fill="#000000" fill-rule="evenodd" fill-opacity="1" /><path clip-path="url(#clip360)" d="M1830.49 726.566 L1821.12 739.182 L1830.98 752.492 L1825.95 752.492 L1818.41 742.307 L1810.86 752.492 L1805.84 752.492 L1815.91 738.927 L1806.69 726.566 L1811.72 726.566 L1818.59 735.802 L1825.47 726.566 L1830.49 726.566 Z" fill="#000000" fill-rule="evenodd" fill-opacity="1" /><path clip-path="url(#clip360)" d="M1848.78 739.46 Q1843.62 739.46 1841.63 740.64 Q1839.63 741.821 1839.63 744.668 Q1839.63 746.936 1841.12 748.279 Q1842.62 749.598 1845.19 749.598 Q1848.73 749.598 1850.86 747.098 Q1853.01 744.575 1853.01 740.409 L1853.01 739.46 L1848.78 739.46 M1857.27 737.7 L1857.27 752.492 L1853.01 752.492 L1853.01 748.557 Q1851.56 750.918 1849.38 752.052 Q1847.2 753.163 1844.06 753.163 Q1840.07 753.163 1837.71 750.941 Q1835.38 748.696 1835.38 744.946 Q1835.38 740.571 1838.29 738.349 Q1841.23 736.126 1847.04 736.126 L1853.01 736.126 L1853.01 735.71 Q1853.01 732.77 1851.07 731.173 Q1849.15 729.552 1845.65 729.552 Q1843.43 729.552 1841.32 730.085 Q1839.22 730.617 1837.27 731.682 L1837.27 727.747 Q1839.61 726.844 1841.81 726.404 Q1844.01 725.941 1846.09 725.941 Q1851.72 725.941 1854.5 728.858 Q1857.27 731.774 1857.27 737.7 Z" fill="#000000" fill-rule="evenodd" fill-opacity="1" /><path clip-path="url(#clip360)" d="M1886.23 731.543 Q1887.83 728.673 1890.05 727.307 Q1892.27 725.941 1895.28 725.941 Q1899.33 725.941 1901.53 728.788 Q1903.73 731.612 1903.73 736.844 L1903.73 752.492 L1899.45 752.492 L1899.45 736.983 Q1899.45 733.256 1898.13 731.45 Q1896.81 729.645 1894.1 729.645 Q1890.79 729.645 1888.87 731.844 Q1886.95 734.043 1886.95 737.839 L1886.95 752.492 L1882.67 752.492 L1882.67 736.983 Q1882.67 733.233 1881.35 731.45 Q1880.03 729.645 1877.27 729.645 Q1874.01 729.645 1872.09 731.867 Q1870.17 734.066 1870.17 737.839 L1870.17 752.492 L1865.88 752.492 L1865.88 726.566 L1870.17 726.566 L1870.17 730.594 Q1871.63 728.21 1873.66 727.075 Q1875.7 725.941 1878.5 725.941 Q1881.32 725.941 1883.29 727.376 Q1885.28 728.812 1886.23 731.543 Z" fill="#000000" fill-rule="evenodd" fill-opacity="1" /><path clip-path="url(#clip360)" d="M1916.35 748.603 L1916.35 762.353 L1912.06 762.353 L1912.06 726.566 L1916.35 726.566 L1916.35 730.501 Q1917.69 728.187 1919.73 727.075 Q1921.79 725.941 1924.63 725.941 Q1929.36 725.941 1932.3 729.691 Q1935.26 733.441 1935.26 739.552 Q1935.26 745.663 1932.3 749.413 Q1929.36 753.163 1924.63 753.163 Q1921.79 753.163 1919.73 752.052 Q1917.69 750.918 1916.35 748.603 M1930.84 739.552 Q1930.84 734.853 1928.89 732.191 Q1926.97 729.506 1923.59 729.506 Q1920.21 729.506 1918.27 732.191 Q1916.35 734.853 1916.35 739.552 Q1916.35 744.251 1918.27 746.936 Q1920.21 749.598 1923.59 749.598 Q1926.97 749.598 1928.89 746.936 Q1930.84 744.251 1930.84 739.552 Z" fill="#000000" fill-rule="evenodd" fill-opacity="1" /><path clip-path="url(#clip360)" d="M1942.32 716.474 L1946.58 716.474 L1946.58 752.492 L1942.32 752.492 L1942.32 716.474 Z" fill="#000000" fill-rule="evenodd" fill-opacity="1" /><path clip-path="url(#clip360)" d="M1977.67 738.464 L1977.67 740.548 L1958.08 740.548 Q1958.36 744.946 1960.72 747.261 Q1963.11 749.552 1967.34 749.552 Q1969.8 749.552 1972.09 748.95 Q1974.4 748.348 1976.67 747.145 L1976.67 751.173 Q1974.38 752.145 1971.97 752.654 Q1969.56 753.163 1967.09 753.163 Q1960.88 753.163 1957.25 749.552 Q1953.64 745.941 1953.64 739.784 Q1953.64 733.418 1957.06 729.691 Q1960.51 725.941 1966.35 725.941 Q1971.58 725.941 1974.61 729.321 Q1977.67 732.677 1977.67 738.464 M1973.41 737.214 Q1973.36 733.719 1971.44 731.636 Q1969.54 729.552 1966.39 729.552 Q1962.83 729.552 1960.68 731.566 Q1958.55 733.58 1958.22 737.237 L1973.41 737.214 Z" fill="#000000" fill-rule="evenodd" fill-opacity="1" /></svg>
