<?xml version="1.0" encoding="utf-8"?>
<svg xmlns="http://www.w3.org/2000/svg" xmlns:xlink="http://www.w3.org/1999/xlink" width="600" height="400" viewBox="0 0 2400 1600">
<defs>
  <clipPath id="clip400">
    <rect x="0" y="0" width="2400" height="1600"/>
  </clipPath>
</defs>
<path clip-path="url(#clip400)" d="
M0 1600 L2400 1600 L2400 0 L0 0  Z
  " fill="#ffffff" fill-rule="evenodd" fill-opacity="1"/>
<defs>
  <clipPath id="clip401">
    <rect x="480" y="0" width="1681" height="1600"/>
  </clipPath>
</defs>
<path clip-path="url(#clip400)" d="
M219.866 1423.18 L2352.76 1423.18 L2352.76 47.2441 L219.866 47.2441  Z
  " fill="#ffffff" fill-rule="evenodd" fill-opacity="1"/>
<defs>
  <clipPath id="clip402">
    <rect x="219" y="47" width="2134" height="1377"/>
  </clipPath>
</defs>
<polyline clip-path="url(#clip402)" style="stroke:#000000; stroke-linecap:butt; stroke-linejoin:round; stroke-width:2; stroke-opacity:0.1; fill:none" points="
  273.501,1423.18 273.501,47.2441 
  "/>
<polyline clip-path="url(#clip402)" style="stroke:#000000; stroke-linecap:butt; stroke-linejoin:round; stroke-width:2; stroke-opacity:0.1; fill:none" points="
  946.465,1423.18 946.465,47.2441 
  "/>
<polyline clip-path="url(#clip402)" style="stroke:#000000; stroke-linecap:butt; stroke-linejoin:round; stroke-width:2; stroke-opacity:0.1; fill:none" points="
  1619.43,1423.18 1619.43,47.2441 
  "/>
<polyline clip-path="url(#clip402)" style="stroke:#000000; stroke-linecap:butt; stroke-linejoin:round; stroke-width:2; stroke-opacity:0.1; fill:none" points="
  2292.39,1423.18 2292.39,47.2441 
  "/>
<polyline clip-path="url(#clip400)" style="stroke:#000000; stroke-linecap:butt; stroke-linejoin:round; stroke-width:4; stroke-opacity:1; fill:none" points="
  219.866,1423.18 2352.76,1423.18 
  "/>
<polyline clip-path="url(#clip400)" style="stroke:#000000; stroke-linecap:butt; stroke-linejoin:round; stroke-width:4; stroke-opacity:1; fill:none" points="
  273.501,1423.18 273.501,1404.28 
  "/>
<polyline clip-path="url(#clip400)" style="stroke:#000000; stroke-linecap:butt; stroke-linejoin:round; stroke-width:4; stroke-opacity:1; fill:none" points="
  946.465,1423.18 946.465,1404.28 
  "/>
<polyline clip-path="url(#clip400)" style="stroke:#000000; stroke-linecap:butt; stroke-linejoin:round; stroke-width:4; stroke-opacity:1; fill:none" points="
  1619.43,1423.18 1619.43,1404.28 
  "/>
<polyline clip-path="url(#clip400)" style="stroke:#000000; stroke-linecap:butt; stroke-linejoin:round; stroke-width:4; stroke-opacity:1; fill:none" points="
  2292.39,1423.18 2292.39,1404.28 
  "/>
<path clip-path="url(#clip400)" d="M273.501 1454.1 Q269.89 1454.1 268.062 1457.66 Q266.256 1461.2 266.256 1468.33 Q266.256 1475.44 268.062 1479.01 Q269.89 1482.55 273.501 1482.55 Q277.136 1482.55 278.941 1479.01 Q280.77 1475.44 280.77 1468.33 Q280.77 1461.2 278.941 1457.66 Q277.136 1454.1 273.501 1454.1 M273.501 1450.39 Q279.312 1450.39 282.367 1455 Q285.446 1459.58 285.446 1468.33 Q285.446 1477.06 282.367 1481.67 Q279.312 1486.25 273.501 1486.25 Q267.691 1486.25 264.613 1481.67 Q261.557 1477.06 261.557 1468.33 Q261.557 1459.58 264.613 1455 Q267.691 1450.39 273.501 1450.39 Z" fill="#000000" fill-rule="evenodd" fill-opacity="1" /><path clip-path="url(#clip400)" d="M906.071 1481.64 L913.71 1481.64 L913.71 1455.28 L905.4 1456.95 L905.4 1452.69 L913.664 1451.02 L918.34 1451.02 L918.34 1481.64 L925.979 1481.64 L925.979 1485.58 L906.071 1485.58 L906.071 1481.64 Z" fill="#000000" fill-rule="evenodd" fill-opacity="1" /><path clip-path="url(#clip400)" d="M945.423 1454.1 Q941.812 1454.1 939.983 1457.66 Q938.178 1461.2 938.178 1468.33 Q938.178 1475.44 939.983 1479.01 Q941.812 1482.55 945.423 1482.55 Q949.057 1482.55 950.863 1479.01 Q952.691 1475.44 952.691 1468.33 Q952.691 1461.2 950.863 1457.66 Q949.057 1454.1 945.423 1454.1 M945.423 1450.39 Q951.233 1450.39 954.289 1455 Q957.367 1459.58 957.367 1468.33 Q957.367 1477.06 954.289 1481.67 Q951.233 1486.25 945.423 1486.25 Q939.613 1486.25 936.534 1481.67 Q933.479 1477.06 933.479 1468.33 Q933.479 1459.58 936.534 1455 Q939.613 1450.39 945.423 1450.39 Z" fill="#000000" fill-rule="evenodd" fill-opacity="1" /><path clip-path="url(#clip400)" d="M975.585 1454.1 Q971.974 1454.1 970.145 1457.66 Q968.34 1461.2 968.34 1468.33 Q968.34 1475.44 970.145 1479.01 Q971.974 1482.55 975.585 1482.55 Q979.219 1482.55 981.025 1479.01 Q982.853 1475.44 982.853 1468.33 Q982.853 1461.2 981.025 1457.66 Q979.219 1454.1 975.585 1454.1 M975.585 1450.39 Q981.395 1450.39 984.451 1455 Q987.529 1459.58 987.529 1468.33 Q987.529 1477.06 984.451 1481.67 Q981.395 1486.25 975.585 1486.25 Q969.775 1486.25 966.696 1481.67 Q963.64 1477.06 963.64 1468.33 Q963.64 1459.58 966.696 1455 Q969.775 1450.39 975.585 1450.39 Z" fill="#000000" fill-rule="evenodd" fill-opacity="1" /><path clip-path="url(#clip400)" d="M1583.12 1481.64 L1599.44 1481.64 L1599.44 1485.58 L1577.5 1485.58 L1577.5 1481.64 Q1580.16 1478.89 1584.74 1474.26 Q1589.35 1469.61 1590.53 1468.27 Q1592.77 1465.74 1593.65 1464.01 Q1594.56 1462.25 1594.56 1460.56 Q1594.56 1457.8 1592.61 1456.07 Q1590.69 1454.33 1587.59 1454.33 Q1585.39 1454.33 1582.94 1455.09 Q1580.5 1455.86 1577.73 1457.41 L1577.73 1452.69 Q1580.55 1451.55 1583 1450.97 Q1585.46 1450.39 1587.5 1450.39 Q1592.87 1450.39 1596.06 1453.08 Q1599.25 1455.77 1599.25 1460.26 Q1599.25 1462.39 1598.44 1464.31 Q1597.66 1466.2 1595.55 1468.8 Q1594.97 1469.47 1591.87 1472.69 Q1588.77 1475.88 1583.12 1481.64 Z" fill="#000000" fill-rule="evenodd" fill-opacity="1" /><path clip-path="url(#clip400)" d="M1619.25 1454.1 Q1615.64 1454.1 1613.81 1457.66 Q1612.01 1461.2 1612.01 1468.33 Q1612.01 1475.44 1613.81 1479.01 Q1615.64 1482.55 1619.25 1482.55 Q1622.89 1482.55 1624.69 1479.01 Q1626.52 1475.44 1626.52 1468.33 Q1626.52 1461.2 1624.69 1457.66 Q1622.89 1454.1 1619.25 1454.1 M1619.25 1450.39 Q1625.06 1450.39 1628.12 1455 Q1631.2 1459.58 1631.2 1468.33 Q1631.2 1477.06 1628.12 1481.67 Q1625.06 1486.25 1619.25 1486.25 Q1613.44 1486.25 1610.37 1481.67 Q1607.31 1477.06 1607.31 1468.33 Q1607.31 1459.58 1610.37 1455 Q1613.44 1450.39 1619.25 1450.39 Z" fill="#000000" fill-rule="evenodd" fill-opacity="1" /><path clip-path="url(#clip400)" d="M1649.42 1454.1 Q1645.81 1454.1 1643.98 1457.66 Q1642.17 1461.2 1642.17 1468.33 Q1642.17 1475.44 1643.98 1479.01 Q1645.81 1482.55 1649.42 1482.55 Q1653.05 1482.55 1654.86 1479.01 Q1656.68 1475.44 1656.68 1468.33 Q1656.68 1461.2 1654.86 1457.66 Q1653.05 1454.1 1649.42 1454.1 M1649.42 1450.39 Q1655.23 1450.39 1658.28 1455 Q1661.36 1459.58 1661.36 1468.33 Q1661.36 1477.06 1658.28 1481.67 Q1655.23 1486.25 1649.42 1486.25 Q1643.61 1486.25 1640.53 1481.67 Q1637.47 1477.06 1637.47 1468.33 Q1637.47 1459.58 1640.53 1455 Q1643.61 1450.39 1649.42 1450.39 Z" fill="#000000" fill-rule="evenodd" fill-opacity="1" /><path clip-path="url(#clip400)" d="M2266.15 1466.95 Q2269.51 1467.66 2271.38 1469.93 Q2273.28 1472.2 2273.28 1475.53 Q2273.28 1480.65 2269.76 1483.45 Q2266.25 1486.25 2259.76 1486.25 Q2257.59 1486.25 2255.27 1485.81 Q2252.98 1485.39 2250.53 1484.54 L2250.53 1480.02 Q2252.47 1481.16 2254.79 1481.74 Q2257.1 1482.32 2259.63 1482.32 Q2264.02 1482.32 2266.31 1480.58 Q2268.63 1478.84 2268.63 1475.53 Q2268.63 1472.48 2266.48 1470.77 Q2264.35 1469.03 2260.53 1469.03 L2256.5 1469.03 L2256.5 1465.19 L2260.71 1465.19 Q2264.16 1465.19 2265.99 1463.82 Q2267.82 1462.43 2267.82 1459.84 Q2267.82 1457.18 2265.92 1455.77 Q2264.05 1454.33 2260.53 1454.33 Q2258.61 1454.33 2256.41 1454.75 Q2254.21 1455.16 2251.57 1456.04 L2251.57 1451.88 Q2254.23 1451.14 2256.55 1450.77 Q2258.88 1450.39 2260.94 1450.39 Q2266.27 1450.39 2269.37 1452.83 Q2272.47 1455.23 2272.47 1459.35 Q2272.47 1462.22 2270.83 1464.21 Q2269.19 1466.18 2266.15 1466.95 Z" fill="#000000" fill-rule="evenodd" fill-opacity="1" /><path clip-path="url(#clip400)" d="M2292.15 1454.1 Q2288.54 1454.1 2286.71 1457.66 Q2284.9 1461.2 2284.9 1468.33 Q2284.9 1475.44 2286.71 1479.01 Q2288.54 1482.55 2292.15 1482.55 Q2295.78 1482.55 2297.59 1479.01 Q2299.42 1475.44 2299.42 1468.33 Q2299.42 1461.2 2297.59 1457.66 Q2295.78 1454.1 2292.15 1454.1 M2292.15 1450.39 Q2297.96 1450.39 2301.01 1455 Q2304.09 1459.58 2304.09 1468.33 Q2304.09 1477.06 2301.01 1481.67 Q2297.96 1486.25 2292.15 1486.25 Q2286.34 1486.25 2283.26 1481.67 Q2280.2 1477.06 2280.2 1468.33 Q2280.2 1459.58 2283.26 1455 Q2286.34 1450.39 2292.15 1450.39 Z" fill="#000000" fill-rule="evenodd" fill-opacity="1" /><path clip-path="url(#clip400)" d="M2322.31 1454.1 Q2318.7 1454.1 2316.87 1457.66 Q2315.06 1461.2 2315.06 1468.33 Q2315.06 1475.44 2316.87 1479.01 Q2318.7 1482.55 2322.31 1482.55 Q2325.94 1482.55 2327.75 1479.01 Q2329.58 1475.44 2329.58 1468.33 Q2329.58 1461.2 2327.75 1457.66 Q2325.94 1454.1 2322.31 1454.1 M2322.31 1450.39 Q2328.12 1450.39 2331.18 1455 Q2334.25 1459.58 2334.25 1468.33 Q2334.25 1477.06 2331.18 1481.67 Q2328.12 1486.25 2322.31 1486.25 Q2316.5 1486.25 2313.42 1481.67 Q2310.37 1477.06 2310.37 1468.33 Q2310.37 1459.58 2313.42 1455 Q2316.5 1450.39 2322.31 1450.39 Z" fill="#000000" fill-rule="evenodd" fill-opacity="1" /><path clip-path="url(#clip400)" d="M1176.36 1526.86 L1163.31 1562.7 L1189.44 1562.7 L1176.36 1526.86 M1154.59 1568.04 L1172.73 1520.52 L1180.02 1520.52 L1198.13 1568.04 L1154.59 1568.04 Z" fill="#000000" fill-rule="evenodd" fill-opacity="1" /><path clip-path="url(#clip400)" d="M1211.5 1525.81 L1211.5 1543.66 L1219.58 1543.66 Q1224.07 1543.66 1226.52 1541.34 Q1228.97 1539.02 1228.97 1534.72 Q1228.97 1530.45 1226.52 1528.13 Q1224.07 1525.81 1219.58 1525.81 L1211.5 1525.81 M1205.07 1520.52 L1219.58 1520.52 Q1227.57 1520.52 1231.65 1524.15 Q1235.75 1527.75 1235.75 1534.72 Q1235.75 1541.75 1231.65 1545.35 Q1227.57 1548.95 1219.58 1548.95 L1211.5 1548.95 L1211.5 1568.04 L1205.07 1568.04 L1205.07 1520.52 Z" fill="#000000" fill-rule="evenodd" fill-opacity="1" /><path clip-path="url(#clip400)" d="M1278.91 1518.58 Q1274.65 1525.9 1272.58 1533.06 Q1270.51 1540.23 1270.51 1547.58 Q1270.51 1554.93 1272.58 1562.16 Q1274.68 1569.35 1278.91 1576.64 L1273.82 1576.64 Q1269.04 1569.16 1266.66 1561.93 Q1264.3 1554.71 1264.3 1547.58 Q1264.3 1540.48 1266.66 1533.29 Q1269.01 1526.09 1273.82 1518.58 L1278.91 1518.58 Z" fill="#000000" fill-rule="evenodd" fill-opacity="1" /><path clip-path="url(#clip400)" d="M1290.05 1518.52 L1295.94 1518.52 L1295.94 1547.77 L1313.41 1532.4 L1320.89 1532.4 L1301.99 1549.07 L1321.69 1568.04 L1314.05 1568.04 L1295.94 1550.63 L1295.94 1568.04 L1290.05 1568.04 L1290.05 1518.52 Z" fill="#000000" fill-rule="evenodd" fill-opacity="1" /><path clip-path="url(#clip400)" d="M1334.71 1525.81 L1334.71 1543.66 L1342.79 1543.66 Q1347.28 1543.66 1349.73 1541.34 Q1352.18 1539.02 1352.18 1534.72 Q1352.18 1530.45 1349.73 1528.13 Q1347.28 1525.81 1342.79 1525.81 L1334.71 1525.81 M1328.28 1520.52 L1342.79 1520.52 Q1350.78 1520.52 1354.85 1524.15 Q1358.96 1527.75 1358.96 1534.72 Q1358.96 1541.75 1354.85 1545.35 Q1350.78 1548.95 1342.79 1548.95 L1334.71 1548.95 L1334.71 1568.04 L1328.28 1568.04 L1328.28 1520.52 Z" fill="#000000" fill-rule="evenodd" fill-opacity="1" /><path clip-path="url(#clip400)" d="M1380.6 1550.12 Q1373.51 1550.12 1370.77 1551.75 Q1368.03 1553.37 1368.03 1557.29 Q1368.03 1560.4 1370.07 1562.25 Q1372.14 1564.07 1375.67 1564.07 Q1380.54 1564.07 1383.47 1560.63 Q1386.43 1557.16 1386.43 1551.43 L1386.43 1550.12 L1380.6 1550.12 M1392.28 1547.71 L1392.28 1568.04 L1386.43 1568.04 L1386.43 1562.63 Q1384.42 1565.88 1381.43 1567.44 Q1378.44 1568.97 1374.11 1568.97 Q1368.64 1568.97 1365.39 1565.91 Q1362.17 1562.82 1362.17 1557.67 Q1362.17 1551.65 1366.18 1548.6 Q1370.23 1545.54 1378.22 1545.54 L1386.43 1545.54 L1386.43 1544.97 Q1386.43 1540.93 1383.75 1538.73 Q1381.11 1536.5 1376.31 1536.5 Q1373.25 1536.5 1370.35 1537.23 Q1367.46 1537.97 1364.78 1539.43 L1364.78 1534.02 Q1368 1532.78 1371.02 1532.17 Q1374.05 1531.54 1376.91 1531.54 Q1384.65 1531.54 1388.46 1535.55 Q1392.28 1539.56 1392.28 1547.71 Z" fill="#000000" fill-rule="evenodd" fill-opacity="1" /><path clip-path="url(#clip400)" d="M1403.42 1518.58 L1408.52 1518.58 Q1413.29 1526.09 1415.65 1533.29 Q1418.03 1540.48 1418.03 1547.58 Q1418.03 1554.71 1415.65 1561.93 Q1413.29 1569.16 1408.52 1576.64 L1403.42 1576.64 Q1407.66 1569.35 1409.73 1562.16 Q1411.83 1554.93 1411.83 1547.58 Q1411.83 1540.23 1409.73 1533.06 Q1407.66 1525.9 1403.42 1518.58 Z" fill="#000000" fill-rule="evenodd" fill-opacity="1" /><polyline clip-path="url(#clip402)" style="stroke:#000000; stroke-linecap:butt; stroke-linejoin:round; stroke-width:2; stroke-opacity:0.1; fill:none" points="
  219.866,1423.04 2352.76,1423.04 
  "/>
<polyline clip-path="url(#clip402)" style="stroke:#000000; stroke-linecap:butt; stroke-linejoin:round; stroke-width:2; stroke-opacity:0.1; fill:none" points="
  219.866,1139.84 2352.76,1139.84 
  "/>
<polyline clip-path="url(#clip402)" style="stroke:#000000; stroke-linecap:butt; stroke-linejoin:round; stroke-width:2; stroke-opacity:0.1; fill:none" points="
  219.866,856.629 2352.76,856.629 
  "/>
<polyline clip-path="url(#clip402)" style="stroke:#000000; stroke-linecap:butt; stroke-linejoin:round; stroke-width:2; stroke-opacity:0.1; fill:none" points="
  219.866,573.423 2352.76,573.423 
  "/>
<polyline clip-path="url(#clip402)" style="stroke:#000000; stroke-linecap:butt; stroke-linejoin:round; stroke-width:2; stroke-opacity:0.1; fill:none" points="
  219.866,290.216 2352.76,290.216 
  "/>
<polyline clip-path="url(#clip400)" style="stroke:#000000; stroke-linecap:butt; stroke-linejoin:round; stroke-width:4; stroke-opacity:1; fill:none" points="
  219.866,1423.18 219.866,47.2441 
  "/>
<polyline clip-path="url(#clip400)" style="stroke:#000000; stroke-linecap:butt; stroke-linejoin:round; stroke-width:4; stroke-opacity:1; fill:none" points="
  219.866,1423.04 238.764,1423.04 
  "/>
<polyline clip-path="url(#clip400)" style="stroke:#000000; stroke-linecap:butt; stroke-linejoin:round; stroke-width:4; stroke-opacity:1; fill:none" points="
  219.866,1139.84 238.764,1139.84 
  "/>
<polyline clip-path="url(#clip400)" style="stroke:#000000; stroke-linecap:butt; stroke-linejoin:round; stroke-width:4; stroke-opacity:1; fill:none" points="
  219.866,856.629 238.764,856.629 
  "/>
<polyline clip-path="url(#clip400)" style="stroke:#000000; stroke-linecap:butt; stroke-linejoin:round; stroke-width:4; stroke-opacity:1; fill:none" points="
  219.866,573.423 238.764,573.423 
  "/>
<polyline clip-path="url(#clip400)" style="stroke:#000000; stroke-linecap:butt; stroke-linejoin:round; stroke-width:4; stroke-opacity:1; fill:none" points="
  219.866,290.216 238.764,290.216 
  "/>
<path clip-path="url(#clip400)" d="M126.691 1408.84 Q123.08 1408.84 121.251 1412.41 Q119.445 1415.95 119.445 1423.08 Q119.445 1430.18 121.251 1433.75 Q123.08 1437.29 126.691 1437.29 Q130.325 1437.29 132.13 1433.75 Q133.959 1430.18 133.959 1423.08 Q133.959 1415.95 132.13 1412.41 Q130.325 1408.84 126.691 1408.84 M126.691 1405.14 Q132.501 1405.14 135.556 1409.74 Q138.635 1414.33 138.635 1423.08 Q138.635 1431.8 135.556 1436.41 Q132.501 1440.99 126.691 1440.99 Q120.88 1440.99 117.802 1436.41 Q114.746 1431.8 114.746 1423.08 Q114.746 1414.33 117.802 1409.74 Q120.88 1405.14 126.691 1405.14 Z" fill="#000000" fill-rule="evenodd" fill-opacity="1" /><path clip-path="url(#clip400)" d="M146.853 1434.44 L151.737 1434.44 L151.737 1440.32 L146.853 1440.32 L146.853 1434.44 Z" fill="#000000" fill-rule="evenodd" fill-opacity="1" /><path clip-path="url(#clip400)" d="M171.922 1408.84 Q168.311 1408.84 166.482 1412.41 Q164.677 1415.95 164.677 1423.08 Q164.677 1430.18 166.482 1433.75 Q168.311 1437.29 171.922 1437.29 Q175.556 1437.29 177.362 1433.75 Q179.19 1430.18 179.19 1423.08 Q179.19 1415.95 177.362 1412.41 Q175.556 1408.84 171.922 1408.84 M171.922 1405.14 Q177.732 1405.14 180.788 1409.74 Q183.866 1414.33 183.866 1423.08 Q183.866 1431.8 180.788 1436.41 Q177.732 1440.99 171.922 1440.99 Q166.112 1440.99 163.033 1436.41 Q159.978 1431.8 159.978 1423.08 Q159.978 1414.33 163.033 1409.74 Q166.112 1405.14 171.922 1405.14 Z" fill="#000000" fill-rule="evenodd" fill-opacity="1" /><path clip-path="url(#clip400)" d="M128.288 1125.63 Q124.677 1125.63 122.848 1129.2 Q121.043 1132.74 121.043 1139.87 Q121.043 1146.98 122.848 1150.54 Q124.677 1154.08 128.288 1154.08 Q131.922 1154.08 133.728 1150.54 Q135.556 1146.98 135.556 1139.87 Q135.556 1132.74 133.728 1129.2 Q131.922 1125.63 128.288 1125.63 M128.288 1121.93 Q134.098 1121.93 137.154 1126.54 Q140.232 1131.12 140.232 1139.87 Q140.232 1148.6 137.154 1153.2 Q134.098 1157.79 128.288 1157.79 Q122.478 1157.79 119.399 1153.2 Q116.343 1148.6 116.343 1139.87 Q116.343 1131.12 119.399 1126.54 Q122.478 1121.93 128.288 1121.93 Z" fill="#000000" fill-rule="evenodd" fill-opacity="1" /><path clip-path="url(#clip400)" d="M148.45 1151.24 L153.334 1151.24 L153.334 1157.12 L148.45 1157.12 L148.45 1151.24 Z" fill="#000000" fill-rule="evenodd" fill-opacity="1" /><path clip-path="url(#clip400)" d="M167.547 1153.18 L183.866 1153.18 L183.866 1157.12 L161.922 1157.12 L161.922 1153.18 Q164.584 1150.43 169.167 1145.8 Q173.774 1141.14 174.954 1139.8 Q177.2 1137.28 178.079 1135.54 Q178.982 1133.78 178.982 1132.09 Q178.982 1129.34 177.038 1127.6 Q175.116 1125.87 172.014 1125.87 Q169.815 1125.87 167.362 1126.63 Q164.931 1127.39 162.153 1128.94 L162.153 1124.22 Q164.977 1123.09 167.431 1122.51 Q169.885 1121.93 171.922 1121.93 Q177.292 1121.93 180.487 1124.62 Q183.681 1127.3 183.681 1131.79 Q183.681 1133.92 182.871 1135.84 Q182.084 1137.74 179.977 1140.33 Q179.399 1141 176.297 1144.22 Q173.195 1147.42 167.547 1153.18 Z" fill="#000000" fill-rule="evenodd" fill-opacity="1" /><path clip-path="url(#clip400)" d="M126.205 842.428 Q122.593 842.428 120.765 845.993 Q118.959 849.534 118.959 856.664 Q118.959 863.77 120.765 867.335 Q122.593 870.877 126.205 870.877 Q129.839 870.877 131.644 867.335 Q133.473 863.77 133.473 856.664 Q133.473 849.534 131.644 845.993 Q129.839 842.428 126.205 842.428 M126.205 838.724 Q132.015 838.724 135.07 843.331 Q138.149 847.914 138.149 856.664 Q138.149 865.391 135.07 869.997 Q132.015 874.581 126.205 874.581 Q120.394 874.581 117.316 869.997 Q114.26 865.391 114.26 856.664 Q114.26 847.914 117.316 843.331 Q120.394 838.724 126.205 838.724 Z" fill="#000000" fill-rule="evenodd" fill-opacity="1" /><path clip-path="url(#clip400)" d="M146.366 868.03 L151.251 868.03 L151.251 873.909 L146.366 873.909 L146.366 868.03 Z" fill="#000000" fill-rule="evenodd" fill-opacity="1" /><path clip-path="url(#clip400)" d="M174.283 843.423 L162.477 861.872 L174.283 861.872 L174.283 843.423 M173.056 839.349 L178.936 839.349 L178.936 861.872 L183.866 861.872 L183.866 865.761 L178.936 865.761 L178.936 873.909 L174.283 873.909 L174.283 865.761 L158.681 865.761 L158.681 861.247 L173.056 839.349 Z" fill="#000000" fill-rule="evenodd" fill-opacity="1" /><path clip-path="url(#clip400)" d="M126.529 559.221 Q122.918 559.221 121.089 562.786 Q119.283 566.328 119.283 573.457 Q119.283 580.564 121.089 584.129 Q122.918 587.67 126.529 587.67 Q130.163 587.67 131.968 584.129 Q133.797 580.564 133.797 573.457 Q133.797 566.328 131.968 562.786 Q130.163 559.221 126.529 559.221 M126.529 555.518 Q132.339 555.518 135.394 560.124 Q138.473 564.707 138.473 573.457 Q138.473 582.184 135.394 586.791 Q132.339 591.374 126.529 591.374 Q120.718 591.374 117.64 586.791 Q114.584 582.184 114.584 573.457 Q114.584 564.707 117.64 560.124 Q120.718 555.518 126.529 555.518 Z" fill="#000000" fill-rule="evenodd" fill-opacity="1" /><path clip-path="url(#clip400)" d="M146.691 584.823 L151.575 584.823 L151.575 590.703 L146.691 590.703 L146.691 584.823 Z" fill="#000000" fill-rule="evenodd" fill-opacity="1" /><path clip-path="url(#clip400)" d="M172.339 571.559 Q169.19 571.559 167.339 573.712 Q165.51 575.865 165.51 579.615 Q165.51 583.342 167.339 585.518 Q169.19 587.67 172.339 587.67 Q175.487 587.67 177.315 585.518 Q179.167 583.342 179.167 579.615 Q179.167 575.865 177.315 573.712 Q175.487 571.559 172.339 571.559 M181.621 556.907 L181.621 561.166 Q179.862 560.332 178.056 559.893 Q176.274 559.453 174.514 559.453 Q169.885 559.453 167.431 562.578 Q165.001 565.703 164.653 572.022 Q166.019 570.008 168.079 568.944 Q170.139 567.856 172.616 567.856 Q177.825 567.856 180.834 571.027 Q183.866 574.175 183.866 579.615 Q183.866 584.939 180.718 588.156 Q177.57 591.374 172.339 591.374 Q166.343 591.374 163.172 586.791 Q160.001 582.184 160.001 573.457 Q160.001 565.263 163.89 560.402 Q167.778 555.518 174.329 555.518 Q176.089 555.518 177.871 555.865 Q179.676 556.212 181.621 556.907 Z" fill="#000000" fill-rule="evenodd" fill-opacity="1" /><path clip-path="url(#clip400)" d="M126.783 276.015 Q123.172 276.015 121.343 279.58 Q119.538 283.121 119.538 290.251 Q119.538 297.357 121.343 300.922 Q123.172 304.464 126.783 304.464 Q130.417 304.464 132.223 300.922 Q134.052 297.357 134.052 290.251 Q134.052 283.121 132.223 279.58 Q130.417 276.015 126.783 276.015 M126.783 272.311 Q132.593 272.311 135.649 276.918 Q138.728 281.501 138.728 290.251 Q138.728 298.978 135.649 303.584 Q132.593 308.167 126.783 308.167 Q120.973 308.167 117.894 303.584 Q114.839 298.978 114.839 290.251 Q114.839 281.501 117.894 276.918 Q120.973 272.311 126.783 272.311 Z" fill="#000000" fill-rule="evenodd" fill-opacity="1" /><path clip-path="url(#clip400)" d="M146.945 301.616 L151.829 301.616 L151.829 307.496 L146.945 307.496 L146.945 301.616 Z" fill="#000000" fill-rule="evenodd" fill-opacity="1" /><path clip-path="url(#clip400)" d="M172.014 291.084 Q168.681 291.084 166.76 292.867 Q164.862 294.649 164.862 297.774 Q164.862 300.899 166.76 302.681 Q168.681 304.464 172.014 304.464 Q175.348 304.464 177.269 302.681 Q179.19 300.876 179.19 297.774 Q179.19 294.649 177.269 292.867 Q175.371 291.084 172.014 291.084 M167.339 289.093 Q164.329 288.353 162.64 286.292 Q160.973 284.232 160.973 281.269 Q160.973 277.126 163.913 274.718 Q166.876 272.311 172.014 272.311 Q177.176 272.311 180.116 274.718 Q183.056 277.126 183.056 281.269 Q183.056 284.232 181.366 286.292 Q179.7 288.353 176.714 289.093 Q180.093 289.88 181.968 292.172 Q183.866 294.464 183.866 297.774 Q183.866 302.797 180.788 305.482 Q177.732 308.167 172.014 308.167 Q166.297 308.167 163.218 305.482 Q160.163 302.797 160.163 297.774 Q160.163 294.464 162.061 292.172 Q163.959 289.88 167.339 289.093 M165.626 281.709 Q165.626 284.394 167.292 285.899 Q168.982 287.404 172.014 287.404 Q175.024 287.404 176.714 285.899 Q178.426 284.394 178.426 281.709 Q178.426 279.024 176.714 277.519 Q175.024 276.015 172.014 276.015 Q168.982 276.015 167.292 277.519 Q165.626 279.024 165.626 281.709 Z" fill="#000000" fill-rule="evenodd" fill-opacity="1" /><path clip-path="url(#clip400)" d="M35.1993 836.538 Q31.2526 834.342 29.3747 831.286 Q27.4968 828.231 27.4968 824.093 Q27.4968 818.523 31.4117 815.499 Q35.2948 812.476 42.4881 812.476 L64.0042 812.476 L64.0042 818.364 L42.679 818.364 Q37.5546 818.364 35.072 820.178 Q32.5894 821.992 32.5894 825.716 Q32.5894 830.268 35.6131 832.91 Q38.6368 835.551 43.8567 835.551 L64.0042 835.551 L64.0042 841.44 L42.679 841.44 Q37.5228 841.44 35.072 843.254 Q32.5894 845.068 32.5894 848.856 Q32.5894 853.344 35.6449 855.985 Q38.6686 858.627 43.8567 858.627 L64.0042 858.627 L64.0042 864.515 L28.3562 864.515 L28.3562 858.627 L33.8944 858.627 Q30.616 856.622 29.0564 853.821 Q27.4968 851.02 27.4968 847.169 Q27.4968 843.286 29.4702 840.58 Q31.4436 837.843 35.1993 836.538 Z" fill="#000000" fill-rule="evenodd" fill-opacity="1" /><path clip-path="url(#clip400)" d="M14.479 826.226 L14.479 820.369 L21.895 820.369 L21.895 826.226 L14.479 826.226 M27.4968 823.234 L27.4968 823.234 Z" fill="#000000" fill-rule="evenodd" fill-opacity="1" /><path clip-path="url(#clip400)" d="M14.5426 766.006 Q21.8632 770.271 29.0246 772.34 Q36.186 774.409 43.5384 774.409 Q50.8908 774.409 58.1159 772.34 Q65.3091 770.239 72.5979 766.006 L72.5979 771.099 Q65.1182 775.873 57.8931 778.26 Q50.668 780.615 43.5384 780.615 Q36.4406 780.615 29.2474 778.26 Q22.0542 775.905 14.5426 771.099 L14.5426 766.006 Z" fill="#000000" fill-rule="evenodd" fill-opacity="1" /><path clip-path="url(#clip400)" d="M14.479 754.866 L14.479 748.978 L43.7294 748.978 L28.3562 731.504 L28.3562 724.024 L45.0344 742.93 L64.0042 723.229 L64.0042 730.867 L46.5939 748.978 L64.0042 748.978 L64.0042 754.866 L14.479 754.866 Z" fill="#000000" fill-rule="evenodd" fill-opacity="1" /><path clip-path="url(#clip400)" d="M45.7664 693.437 Q39.4007 693.437 35.8996 696.079 Q32.3984 698.689 32.3984 703.431 Q32.3984 708.142 35.8996 710.784 Q39.4007 713.394 45.7664 713.394 Q52.1003 713.394 55.6014 710.784 Q59.1026 708.142 59.1026 703.431 Q59.1026 698.689 55.6014 696.079 Q52.1003 693.437 45.7664 693.437 M59.58 687.581 Q68.683 687.581 73.1071 691.623 Q77.5631 695.665 77.5631 704.004 Q77.5631 707.091 77.0857 709.829 Q76.6401 712.566 75.6852 715.144 L69.9879 715.144 Q71.3884 712.566 72.0568 710.052 Q72.7252 707.537 72.7252 704.927 Q72.7252 699.166 69.7015 696.302 Q66.7096 693.437 60.6303 693.437 L57.7339 693.437 Q60.885 695.251 62.4446 698.084 Q64.0042 700.917 64.0042 704.863 Q64.0042 711.42 59.0071 715.431 Q54.01 719.441 45.7664 719.441 Q37.491 719.441 32.4939 715.431 Q27.4968 711.42 27.4968 704.863 Q27.4968 700.917 29.0564 698.084 Q30.616 695.251 33.7671 693.437 L28.3562 693.437 L28.3562 687.581 L59.58 687.581 Z" fill="#000000" fill-rule="evenodd" fill-opacity="1" /><path clip-path="url(#clip400)" d="M16.4842 665.11 L16.4842 659.699 L70.0516 676.25 L70.0516 681.66 L16.4842 665.11 Z" fill="#000000" fill-rule="evenodd" fill-opacity="1" /><path clip-path="url(#clip400)" d="M29.4065 630.83 L34.9447 630.83 Q33.6716 633.313 33.035 635.987 Q32.3984 638.66 32.3984 641.525 Q32.3984 645.885 33.7352 648.081 Q35.072 650.246 37.7456 650.246 Q39.7826 650.246 40.9603 648.686 Q42.1061 647.127 43.1565 642.416 L43.6021 640.411 Q44.9389 634.172 47.3897 631.562 Q49.8086 628.921 54.1691 628.921 Q59.1344 628.921 62.0308 632.867 Q64.9272 636.782 64.9272 643.657 Q64.9272 646.522 64.3543 649.641 Q63.8132 652.728 62.6992 656.166 L56.6518 656.166 Q58.3387 652.919 59.198 649.768 Q60.0256 646.617 60.0256 643.53 Q60.0256 639.392 58.6251 637.164 Q57.1929 634.936 54.6147 634.936 Q52.2276 634.936 50.9545 636.559 Q49.6813 638.151 48.5037 643.594 L48.0262 645.631 Q46.8804 651.073 44.5251 653.492 Q42.138 655.911 38.0002 655.911 Q32.9713 655.911 30.2341 652.346 Q27.4968 648.782 27.4968 642.225 Q27.4968 638.978 27.9743 636.114 Q28.4517 633.249 29.4065 630.83 Z" fill="#000000" fill-rule="evenodd" fill-opacity="1" /><path clip-path="url(#clip400)" d="M14.5426 620.518 L14.5426 615.425 Q22.0542 610.651 29.2474 608.296 Q36.4406 605.909 43.5384 605.909 Q50.668 605.909 57.8931 608.296 Q65.1182 610.651 72.5979 615.425 L72.5979 620.518 Q65.3091 616.285 58.1159 614.216 Q50.8908 612.115 43.5384 612.115 Q36.186 612.115 29.0246 614.216 Q21.8632 616.285 14.5426 620.518 Z" fill="#000000" fill-rule="evenodd" fill-opacity="1" /><polyline clip-path="url(#clip402)" style="stroke:#023eff; stroke-linecap:butt; stroke-linejoin:round; stroke-width:4; stroke-opacity:1; fill:none" points="
  280.231,1376.61 300.556,1325.39 320.881,1291.28 341.206,1263.35 361.53,1238.87 381.855,1216.66 402.18,1196.06 422.505,1176.7 442.83,1158.3 463.155,1140.68 
  483.48,1123.72 503.804,1107.31 524.129,1091.38 544.454,1075.85 564.779,1060.68 585.104,1045.83 605.429,1031.26 625.753,1016.95 646.078,1002.87 666.403,989 
  686.728,975.318 707.053,961.811 727.378,948.464 747.703,935.265 768.027,922.204 788.352,909.27 808.677,896.455 829.002,883.751 849.327,871.151 869.652,858.648 
  889.977,846.237 910.301,833.913 930.626,821.669 950.951,809.503 971.276,797.41 991.601,785.386 1011.93,773.428 1032.25,761.533 1052.58,749.697 1072.9,737.917 
  1093.23,726.193 1113.55,714.52 1133.87,702.896 1154.2,691.32 1174.52,679.79 1194.85,668.304 1215.17,656.859 1235.5,645.455 1255.82,634.09 1276.15,622.763 
  1296.47,611.471 1316.8,600.215 1337.12,588.992 1357.45,577.801 1377.77,566.642 1398.1,555.513 1418.42,544.414 1438.75,533.343 1459.07,522.299 1479.4,511.283 
  1499.72,500.292 1520.05,489.326 1540.37,478.385 1560.7,467.468 1581.02,456.574 1601.35,445.702 1621.67,434.852 1642,424.023 1662.32,413.215 1682.65,402.427 
  1702.97,391.659 1723.3,380.91 1743.62,370.179 1763.95,359.467 1784.27,348.772 1804.59,338.095 1824.92,327.435 1845.24,316.792 1865.57,306.164 1885.89,295.553 
  1906.22,284.957 1926.54,274.376 1946.87,263.81 1967.19,253.258 1987.52,242.721 2007.84,232.197 2028.17,221.687 2048.49,211.191 2068.82,200.707 2089.14,190.237 
  2109.47,179.779 2129.79,169.333 2150.12,158.9 2170.44,148.478 2190.77,138.068 2211.09,127.669 2231.42,117.282 2251.74,106.906 2272.07,96.5404 2292.39,86.1857 
  
  "/>
<polyline clip-path="url(#clip402)" style="stroke:#ff7c00; stroke-linecap:butt; stroke-linejoin:round; stroke-width:4; stroke-opacity:1; fill:none" points="
  280.231,1384.24 300.556,1340.88 320.881,1311.74 341.206,1287.69 361.53,1266.48 381.855,1247.12 402.18,1229.08 422.505,1212.02 442.83,1195.75 463.155,1180.11 
  483.48,1164.99 503.804,1150.31 524.129,1136.01 544.454,1122.03 564.779,1108.34 585.104,1094.9 605.429,1081.69 625.753,1068.67 646.078,1055.84 666.403,1043.17 
  686.728,1030.65 707.053,1018.27 727.378,1006.02 747.703,993.885 768.027,981.856 788.352,969.928 808.677,958.094 829.002,946.347 849.327,934.682 869.652,923.094 
  889.977,911.579 910.301,900.131 930.626,888.748 950.951,877.426 971.276,866.162 991.601,854.953 1011.93,843.796 1032.25,832.688 1052.58,821.628 1072.9,810.613 
  1093.23,799.641 1113.55,788.711 1133.87,777.82 1154.2,766.967 1174.52,756.15 1194.85,745.369 1215.17,734.621 1235.5,723.906 1255.82,713.222 1276.15,702.568 
  1296.47,691.943 1316.8,681.346 1337.12,670.776 1357.45,660.233 1377.77,649.715 1398.1,639.221 1418.42,628.752 1438.75,618.305 1459.07,607.881 1479.4,597.479 
  1499.72,587.097 1520.05,576.737 1540.37,566.396 1560.7,556.074 1581.02,545.772 1601.35,535.488 1621.67,525.221 1642,514.973 1662.32,504.741 1682.65,494.526 
  1702.97,484.327 1723.3,474.143 1743.62,463.976 1763.95,453.823 1784.27,443.685 1804.59,433.561 1824.92,423.452 1845.24,413.356 1865.57,403.273 1885.89,393.204 
  1906.22,383.148 1926.54,373.104 1946.87,363.073 1967.19,353.054 1987.52,343.047 2007.84,333.051 2028.17,323.067 2048.49,313.094 2068.82,303.132 2089.14,293.18 
  2109.47,283.24 2129.79,273.309 2150.12,263.389 2170.44,253.479 2190.77,243.579 2211.09,233.688 2231.42,223.807 2251.74,213.936 2272.07,204.073 2292.39,194.22 
  
  "/>
<polyline clip-path="url(#clip402)" style="stroke:#1ac938; stroke-linecap:butt; stroke-linejoin:round; stroke-width:4; stroke-opacity:1; fill:none" points="
  280.231,1376.66 300.556,1325.8 320.881,1292.21 341.206,1264.91 361.53,1241.14 381.855,1219.7 402.18,1199.92 422.505,1181.41 442.83,1163.91 463.155,1147.22 
  483.48,1131.2 503.804,1115.75 524.129,1100.8 544.454,1086.27 564.779,1072.11 585.104,1058.28 605.429,1044.74 625.753,1031.46 646.078,1018.42 666.403,1005.6 
  686.728,992.969 707.053,980.517 727.378,968.228 747.703,956.09 768.027,944.091 788.352,932.22 808.677,920.469 829.002,908.829 849.327,897.293 869.652,885.854 
  889.977,874.506 910.301,863.243 930.626,852.061 950.951,840.954 971.276,829.918 991.601,818.95 1011.93,808.046 1032.25,797.202 1052.58,786.415 1072.9,775.683 
  1093.23,765.003 1113.55,754.372 1133.87,743.787 1154.2,733.248 1174.52,722.751 1194.85,712.295 1215.17,701.878 1235.5,691.499 1255.82,681.155 1276.15,670.846 
  1296.47,660.569 1316.8,650.324 1337.12,640.109 1357.45,629.924 1377.77,619.766 1398.1,609.636 1418.42,599.531 1438.75,589.452 1459.07,579.396 1479.4,569.364 
  1499.72,559.355 1520.05,549.367 1540.37,539.4 1560.7,529.453 1581.02,519.526 1601.35,509.617 1621.67,499.727 1642,489.855 1662.32,480 1682.65,470.161 
  1702.97,460.339 1723.3,450.532 1743.62,440.74 1763.95,430.963 1784.27,421.2 1804.59,411.452 1824.92,401.716 1845.24,391.994 1865.57,382.284 1885.89,372.586 
  1906.22,362.901 1926.54,353.227 1946.87,343.565 1967.19,333.913 1987.52,324.273 2007.84,314.642 2028.17,305.022 2048.49,295.412 2068.82,285.812 2089.14,276.22 
  2109.47,266.638 2129.79,257.065 2150.12,247.501 2170.44,237.945 2190.77,228.398 2211.09,218.858 2231.42,209.327 2251.74,199.803 2272.07,190.286 2292.39,180.777 
  
  "/>
<polyline clip-path="url(#clip402)" style="stroke:#e8000b; stroke-linecap:butt; stroke-linejoin:round; stroke-width:4; stroke-opacity:1; fill:none" points="
  280.231,1376.68 300.556,1325.93 320.881,1292.51 341.206,1265.4 361.53,1241.83 381.855,1220.61 402.18,1201.06 422.505,1182.79 442.83,1165.52 463.155,1149.07 
  483.48,1133.29 503.804,1118.08 524.129,1103.36 544.454,1089.06 564.779,1075.13 585.104,1061.52 605.429,1048.2 625.753,1035.14 646.078,1022.31 666.403,1009.68 
  686.728,997.249 707.053,984.986 727.378,972.881 747.703,960.919 768.027,949.09 788.352,937.383 808.677,925.789 829.002,914.3 849.327,902.909 869.652,891.608 
  889.977,880.391 910.301,869.254 930.626,858.191 950.951,847.197 971.276,836.269 991.601,825.402 1011.93,814.593 1032.25,803.838 1052.58,793.135 1072.9,782.481 
  1093.23,771.873 1113.55,761.309 1133.87,750.786 1154.2,740.303 1174.52,729.857 1194.85,719.447 1215.17,709.071 1235.5,698.728 1255.82,688.415 1276.15,678.132 
  1296.47,667.877 1316.8,657.65 1337.12,647.448 1357.45,637.27 1377.77,627.117 1398.1,616.986 1418.42,606.877 1438.75,596.789 1459.07,586.721 1479.4,576.673 
  1499.72,566.643 1520.05,556.631 1540.37,546.636 1560.7,536.658 1581.02,526.696 1601.35,516.749 1621.67,506.817 1642,496.899 1662.32,486.996 1682.65,477.106 
  1702.97,467.228 1723.3,457.364 1743.62,447.511 1763.95,437.67 1784.27,427.84 1804.59,418.022 1824.92,408.214 1845.24,398.416 1865.57,388.628 1885.89,378.85 
  1906.22,369.081 1926.54,359.322 1946.87,349.571 1967.19,339.829 1987.52,330.095 2007.84,320.369 2028.17,310.651 2048.49,300.941 2068.82,291.238 2089.14,281.543 
  2109.47,271.854 2129.79,262.172 2150.12,252.497 2170.44,242.829 2190.77,233.166 2211.09,223.51 2231.42,213.86 2251.74,204.215 2272.07,194.577 2292.39,184.944 
  
  "/>
<polyline clip-path="url(#clip402)" style="stroke:#8b2be2; stroke-linecap:butt; stroke-linejoin:round; stroke-width:4; stroke-opacity:1; fill:none" points="
  280.231,1376.66 300.556,1325.8 320.881,1292.22 341.206,1264.94 361.53,1241.2 381.855,1219.79 402.18,1200.06 422.505,1181.6 442.83,1164.16 463.155,1147.54 
  483.48,1131.6 503.804,1116.24 524.129,1101.39 544.454,1086.96 564.779,1072.91 585.104,1059.2 605.429,1045.79 625.753,1032.65 646.078,1019.75 666.403,1007.08 
  686.728,994.604 707.053,982.314 727.378,970.194 747.703,958.231 768.027,946.413 788.352,934.73 808.677,923.171 829.002,911.73 849.327,900.399 869.652,889.17 
  889.977,878.037 910.301,866.995 930.626,856.038 950.951,845.163 971.276,834.363 991.601,823.637 1011.93,812.978 1032.25,802.385 1052.58,791.855 1072.9,781.383 
  1093.23,770.968 1113.55,760.606 1133.87,750.296 1154.2,740.036 1174.52,729.822 1194.85,719.654 1215.17,709.529 1235.5,699.446 1255.82,689.403 1276.15,679.398 
  1296.47,669.431 1316.8,659.499 1337.12,649.602 1357.45,639.738 1377.77,629.906 1398.1,620.105 1418.42,610.334 1438.75,600.592 1459.07,590.878 1479.4,581.192 
  1499.72,571.531 1520.05,561.896 1540.37,552.286 1560.7,542.7 1581.02,533.138 1601.35,523.597 1621.67,514.08 1642,504.583 1662.32,495.107 1682.65,485.652 
  1702.97,476.216 1723.3,466.8 1743.62,457.402 1763.95,448.023 1784.27,438.661 1804.59,429.317 1824.92,419.99 1845.24,410.679 1865.57,401.384 1885.89,392.106 
  1906.22,382.842 1926.54,373.594 1946.87,364.361 1967.19,355.142 1987.52,345.937 2007.84,336.746 2028.17,327.568 2048.49,318.404 2068.82,309.253 2089.14,300.114 
  2109.47,290.988 2129.79,281.874 2150.12,272.772 2170.44,263.682 2190.77,254.603 2211.09,245.536 2231.42,236.48 2251.74,227.434 2272.07,218.4 2292.39,209.376 
  
  "/>
<circle clip-path="url(#clip402)" cx="946.465" cy="843.399" r="14.4" fill="#ff0000" fill-rule="evenodd" fill-opacity="1" stroke="#000000" stroke-opacity="1" stroke-width="3.2"/>
<path clip-path="url(#clip400)" d="
M1206.99 1377.32 L2281.66 1377.32 L2281.66 1014.44 L1206.99 1014.44  Z
  " fill="#ffffff" fill-rule="evenodd" fill-opacity="1"/>
<polyline clip-path="url(#clip400)" style="stroke:#000000; stroke-linecap:butt; stroke-linejoin:round; stroke-width:4; stroke-opacity:1; fill:none" points="
  1206.99,1377.32 2281.66,1377.32 2281.66,1014.44 1206.99,1014.44 1206.99,1377.32 
  "/>
<polyline clip-path="url(#clip400)" style="stroke:#023eff; stroke-linecap:butt; stroke-linejoin:round; stroke-width:4; stroke-opacity:1; fill:none" points="
  1230.69,1066.28 1372.88,1066.28 
  "/>
<path clip-path="url(#clip400)" d="M1396.58 1049 L1401.26 1049 L1401.26 1083.56 L1396.58 1083.56 L1396.58 1049 Z" fill="#000000" fill-rule="evenodd" fill-opacity="1" /><path clip-path="url(#clip400)" d="M1426.91 1058.39 L1426.91 1062.42 Q1425.1 1061.5 1423.16 1061.03 Q1421.21 1060.57 1419.13 1060.57 Q1415.96 1060.57 1414.36 1061.54 Q1412.78 1062.51 1412.78 1064.46 Q1412.78 1065.94 1413.92 1066.8 Q1415.05 1067.63 1418.48 1068.39 L1419.94 1068.72 Q1424.47 1069.69 1426.37 1071.47 Q1428.29 1073.23 1428.29 1076.4 Q1428.29 1080.01 1425.42 1082.12 Q1422.58 1084.23 1417.58 1084.23 Q1415.49 1084.23 1413.22 1083.81 Q1410.98 1083.42 1408.48 1082.61 L1408.48 1078.21 Q1410.84 1079.43 1413.13 1080.06 Q1415.42 1080.66 1417.67 1080.66 Q1420.68 1080.66 1422.3 1079.64 Q1423.92 1078.6 1423.92 1076.73 Q1423.92 1074.99 1422.74 1074.06 Q1421.58 1073.14 1417.62 1072.28 L1416.14 1071.94 Q1412.18 1071.1 1410.42 1069.39 Q1408.66 1067.65 1408.66 1064.64 Q1408.66 1060.99 1411.26 1059 Q1413.85 1057 1418.62 1057 Q1420.98 1057 1423.06 1057.35 Q1425.15 1057.7 1426.91 1058.39 Z" fill="#000000" fill-rule="evenodd" fill-opacity="1" /><path clip-path="url(#clip400)" d="M1457.25 1069.53 L1457.25 1071.61 L1437.67 1071.61 Q1437.95 1076.01 1440.31 1078.32 Q1442.69 1080.62 1446.93 1080.62 Q1449.38 1080.62 1451.67 1080.01 Q1453.99 1079.41 1456.26 1078.21 L1456.26 1082.24 Q1453.97 1083.21 1451.56 1083.72 Q1449.15 1084.23 1446.67 1084.23 Q1440.47 1084.23 1436.84 1080.62 Q1433.22 1077 1433.22 1070.85 Q1433.22 1064.48 1436.65 1060.75 Q1440.1 1057 1445.93 1057 Q1451.16 1057 1454.2 1060.38 Q1457.25 1063.74 1457.25 1069.53 M1452.99 1068.28 Q1452.95 1064.78 1451.03 1062.7 Q1449.13 1060.62 1445.98 1060.62 Q1442.41 1060.62 1440.26 1062.63 Q1438.13 1064.64 1437.81 1068.3 L1452.99 1068.28 Z" fill="#000000" fill-rule="evenodd" fill-opacity="1" /><path clip-path="url(#clip400)" d="M1485.79 1067.91 L1485.79 1083.56 L1481.53 1083.56 L1481.53 1068.05 Q1481.53 1064.37 1480.1 1062.54 Q1478.66 1060.71 1475.79 1060.71 Q1472.34 1060.71 1470.35 1062.91 Q1468.36 1065.11 1468.36 1068.9 L1468.36 1083.56 L1464.08 1083.56 L1464.08 1057.63 L1468.36 1057.63 L1468.36 1061.66 Q1469.89 1059.32 1471.95 1058.16 Q1474.03 1057 1476.74 1057 Q1481.21 1057 1483.5 1059.78 Q1485.79 1062.54 1485.79 1067.91 Z" fill="#000000" fill-rule="evenodd" fill-opacity="1" /><path clip-path="url(#clip400)" d="M1498.5 1050.27 L1498.5 1057.63 L1507.28 1057.63 L1507.28 1060.94 L1498.5 1060.94 L1498.5 1075.01 Q1498.5 1078.18 1499.36 1079.09 Q1500.24 1079.99 1502.9 1079.99 L1507.28 1079.99 L1507.28 1083.56 L1502.9 1083.56 Q1497.97 1083.56 1496.09 1081.73 Q1494.22 1079.87 1494.22 1075.01 L1494.22 1060.94 L1491.09 1060.94 L1491.09 1057.63 L1494.22 1057.63 L1494.22 1050.27 L1498.5 1050.27 Z" fill="#000000" fill-rule="evenodd" fill-opacity="1" /><path clip-path="url(#clip400)" d="M1527.9 1061.61 Q1527.18 1061.19 1526.33 1061.01 Q1525.49 1060.8 1524.47 1060.8 Q1520.86 1060.8 1518.92 1063.16 Q1517 1065.5 1517 1069.9 L1517 1083.56 L1512.71 1083.56 L1512.71 1057.63 L1517 1057.63 L1517 1061.66 Q1518.34 1059.3 1520.49 1058.16 Q1522.65 1057 1525.72 1057 Q1526.16 1057 1526.7 1057.07 Q1527.23 1057.12 1527.88 1057.24 L1527.9 1061.61 Z" fill="#000000" fill-rule="evenodd" fill-opacity="1" /><path clip-path="url(#clip400)" d="M1541.37 1060.62 Q1537.95 1060.62 1535.96 1063.3 Q1533.96 1065.96 1533.96 1070.62 Q1533.96 1075.27 1535.93 1077.95 Q1537.92 1080.62 1541.37 1080.62 Q1544.77 1080.62 1546.77 1077.93 Q1548.76 1075.25 1548.76 1070.62 Q1548.76 1066.01 1546.77 1063.32 Q1544.77 1060.62 1541.37 1060.62 M1541.37 1057 Q1546.93 1057 1550.1 1060.62 Q1553.27 1064.23 1553.27 1070.62 Q1553.27 1076.98 1550.1 1080.62 Q1546.93 1084.23 1541.37 1084.23 Q1535.79 1084.23 1532.62 1080.62 Q1529.47 1076.98 1529.47 1070.62 Q1529.47 1064.23 1532.62 1060.62 Q1535.79 1057 1541.37 1057 Z" fill="#000000" fill-rule="evenodd" fill-opacity="1" /><path clip-path="url(#clip400)" d="M1564.45 1079.67 L1564.45 1093.42 L1560.17 1093.42 L1560.17 1057.63 L1564.45 1057.63 L1564.45 1061.56 Q1565.79 1059.25 1567.83 1058.14 Q1569.89 1057 1572.74 1057 Q1577.46 1057 1580.4 1060.75 Q1583.36 1064.5 1583.36 1070.62 Q1583.36 1076.73 1580.4 1080.48 Q1577.46 1084.23 1572.74 1084.23 Q1569.89 1084.23 1567.83 1083.12 Q1565.79 1081.98 1564.45 1079.67 M1578.94 1070.62 Q1578.94 1065.92 1577 1063.25 Q1575.08 1060.57 1571.7 1060.57 Q1568.32 1060.57 1566.37 1063.25 Q1564.45 1065.92 1564.45 1070.62 Q1564.45 1075.31 1566.37 1078 Q1568.32 1080.66 1571.7 1080.66 Q1575.08 1080.66 1577 1078 Q1578.94 1075.31 1578.94 1070.62 Z" fill="#000000" fill-rule="evenodd" fill-opacity="1" /><path clip-path="url(#clip400)" d="M1590.42 1057.63 L1594.68 1057.63 L1594.68 1083.56 L1590.42 1083.56 L1590.42 1057.63 M1590.42 1047.54 L1594.68 1047.54 L1594.68 1052.93 L1590.42 1052.93 L1590.42 1047.54 Z" fill="#000000" fill-rule="evenodd" fill-opacity="1" /><path clip-path="url(#clip400)" d="M1622.25 1058.62 L1622.25 1062.61 Q1620.45 1061.61 1618.62 1061.12 Q1616.81 1060.62 1614.96 1060.62 Q1610.82 1060.62 1608.52 1063.25 Q1606.23 1065.87 1606.23 1070.62 Q1606.23 1075.36 1608.52 1078 Q1610.82 1080.62 1614.96 1080.62 Q1616.81 1080.62 1618.62 1080.13 Q1620.45 1079.62 1622.25 1078.62 L1622.25 1082.56 Q1620.47 1083.39 1618.55 1083.81 Q1616.65 1084.23 1614.5 1084.23 Q1608.64 1084.23 1605.19 1080.55 Q1601.74 1076.87 1601.74 1070.62 Q1601.74 1064.27 1605.21 1060.64 Q1608.71 1057 1614.77 1057 Q1616.74 1057 1618.62 1057.42 Q1620.49 1057.81 1622.25 1058.62 Z" fill="#000000" fill-rule="evenodd" fill-opacity="1" /><polyline clip-path="url(#clip400)" style="stroke:#ff7c00; stroke-linecap:butt; stroke-linejoin:round; stroke-width:4; stroke-opacity:1; fill:none" points="
  1230.69,1118.12 1372.88,1118.12 
  "/>
<path clip-path="url(#clip400)" d="M1396.58 1100.84 L1416.44 1100.84 L1416.44 1104.77 L1401.26 1104.77 L1401.26 1114.96 L1414.96 1114.96 L1414.96 1118.89 L1401.26 1118.89 L1401.26 1135.4 L1396.58 1135.4 L1396.58 1100.84 Z" fill="#000000" fill-rule="evenodd" fill-opacity="1" /><path clip-path="url(#clip400)" d="M1431.1 1122.36 Q1425.93 1122.36 1423.94 1123.54 Q1421.95 1124.72 1421.95 1127.57 Q1421.95 1129.84 1423.43 1131.18 Q1424.94 1132.5 1427.51 1132.5 Q1431.05 1132.5 1433.18 1130 Q1435.33 1127.48 1435.33 1123.31 L1435.33 1122.36 L1431.1 1122.36 M1439.59 1120.6 L1439.59 1135.4 L1435.33 1135.4 L1435.33 1131.46 Q1433.87 1133.82 1431.7 1134.96 Q1429.52 1136.07 1426.37 1136.07 Q1422.39 1136.07 1420.03 1133.84 Q1417.69 1131.6 1417.69 1127.85 Q1417.69 1123.47 1420.61 1121.25 Q1423.55 1119.03 1429.36 1119.03 L1435.33 1119.03 L1435.33 1118.61 Q1435.33 1115.67 1433.39 1114.08 Q1431.47 1112.46 1427.97 1112.46 Q1425.75 1112.46 1423.64 1112.99 Q1421.53 1113.52 1419.59 1114.59 L1419.59 1110.65 Q1421.93 1109.75 1424.13 1109.31 Q1426.33 1108.84 1428.41 1108.84 Q1434.03 1108.84 1436.81 1111.76 Q1439.59 1114.68 1439.59 1120.6 Z" fill="#000000" fill-rule="evenodd" fill-opacity="1" /><path clip-path="url(#clip400)" d="M1469.91 1119.75 L1469.91 1135.4 L1465.66 1135.4 L1465.66 1119.89 Q1465.66 1116.21 1464.22 1114.38 Q1462.78 1112.55 1459.91 1112.55 Q1456.47 1112.55 1454.47 1114.75 Q1452.48 1116.95 1452.48 1120.74 L1452.48 1135.4 L1448.2 1135.4 L1448.2 1109.47 L1452.48 1109.47 L1452.48 1113.5 Q1454.01 1111.16 1456.07 1110 Q1458.16 1108.84 1460.86 1108.84 Q1465.33 1108.84 1467.62 1111.62 Q1469.91 1114.38 1469.91 1119.75 Z" fill="#000000" fill-rule="evenodd" fill-opacity="1" /><path clip-path="url(#clip400)" d="M1499.96 1119.75 L1499.96 1135.4 L1495.7 1135.4 L1495.7 1119.89 Q1495.7 1116.21 1494.27 1114.38 Q1492.83 1112.55 1489.96 1112.55 Q1486.51 1112.55 1484.52 1114.75 Q1482.53 1116.95 1482.53 1120.74 L1482.53 1135.4 L1478.25 1135.4 L1478.25 1109.47 L1482.53 1109.47 L1482.53 1113.5 Q1484.06 1111.16 1486.12 1110 Q1488.2 1108.84 1490.91 1108.84 Q1495.38 1108.84 1497.67 1111.62 Q1499.96 1114.38 1499.96 1119.75 Z" fill="#000000" fill-rule="evenodd" fill-opacity="1" /><path clip-path="url(#clip400)" d="M1518.5 1112.46 Q1515.08 1112.46 1513.09 1115.14 Q1511.09 1117.8 1511.09 1122.46 Q1511.09 1127.11 1513.06 1129.79 Q1515.05 1132.46 1518.5 1132.46 Q1521.9 1132.46 1523.9 1129.77 Q1525.89 1127.09 1525.89 1122.46 Q1525.89 1117.85 1523.9 1115.16 Q1521.9 1112.46 1518.5 1112.46 M1518.5 1108.84 Q1524.06 1108.84 1527.23 1112.46 Q1530.4 1116.07 1530.4 1122.46 Q1530.4 1128.82 1527.23 1132.46 Q1524.06 1136.07 1518.5 1136.07 Q1512.92 1136.07 1509.75 1132.46 Q1506.6 1128.82 1506.6 1122.46 Q1506.6 1116.07 1509.75 1112.46 Q1512.92 1108.84 1518.5 1108.84 Z" fill="#000000" fill-rule="evenodd" fill-opacity="1" /><path clip-path="url(#clip400)" d="M1552.71 1100.84 L1572.58 1100.84 L1572.58 1104.77 L1557.39 1104.77 L1557.39 1114.96 L1571.09 1114.96 L1571.09 1118.89 L1557.39 1118.89 L1557.39 1135.4 L1552.71 1135.4 L1552.71 1100.84 Z" fill="#000000" fill-rule="evenodd" fill-opacity="1" /><path clip-path="url(#clip400)" d="M1579.8 1099.38 L1584.06 1099.38 L1584.06 1135.4 L1579.8 1135.4 L1579.8 1099.38 Z" fill="#000000" fill-rule="evenodd" fill-opacity="1" /><path clip-path="url(#clip400)" d="M1603.02 1112.46 Q1599.59 1112.46 1597.6 1115.14 Q1595.61 1117.8 1595.61 1122.46 Q1595.61 1127.11 1597.58 1129.79 Q1599.57 1132.46 1603.02 1132.46 Q1606.42 1132.46 1608.41 1129.77 Q1610.4 1127.09 1610.4 1122.46 Q1610.4 1117.85 1608.41 1115.16 Q1606.42 1112.46 1603.02 1112.46 M1603.02 1108.84 Q1608.57 1108.84 1611.74 1112.46 Q1614.91 1116.07 1614.91 1122.46 Q1614.91 1128.82 1611.74 1132.46 Q1608.57 1136.07 1603.02 1136.07 Q1597.44 1136.07 1594.27 1132.46 Q1591.12 1128.82 1591.12 1122.46 Q1591.12 1116.07 1594.27 1112.46 Q1597.44 1108.84 1603.02 1108.84 Z" fill="#000000" fill-rule="evenodd" fill-opacity="1" /><path clip-path="url(#clip400)" d="M1619.5 1109.47 L1623.76 1109.47 L1629.08 1129.7 L1634.38 1109.47 L1639.4 1109.47 L1644.73 1129.7 L1650.03 1109.47 L1654.29 1109.47 L1647.51 1135.4 L1642.48 1135.4 L1636.9 1114.15 L1631.3 1135.4 L1626.28 1135.4 L1619.5 1109.47 Z" fill="#000000" fill-rule="evenodd" fill-opacity="1" /><path clip-path="url(#clip400)" d="M1661.83 1129.52 L1666.72 1129.52 L1666.72 1133.5 L1662.92 1140.9 L1659.94 1140.9 L1661.83 1133.5 L1661.83 1129.52 Z" fill="#000000" fill-rule="evenodd" fill-opacity="1" /><path clip-path="url(#clip400)" d="M1702.67 1122.36 Q1697.51 1122.36 1695.51 1123.54 Q1693.52 1124.72 1693.52 1127.57 Q1693.52 1129.84 1695.01 1131.18 Q1696.51 1132.5 1699.08 1132.5 Q1702.62 1132.5 1704.75 1130 Q1706.9 1127.48 1706.9 1123.31 L1706.9 1122.36 L1702.67 1122.36 M1711.16 1120.6 L1711.16 1135.4 L1706.9 1135.4 L1706.9 1131.46 Q1705.45 1133.82 1703.27 1134.96 Q1701.09 1136.07 1697.95 1136.07 Q1693.96 1136.07 1691.6 1133.84 Q1689.26 1131.6 1689.26 1127.85 Q1689.26 1123.47 1692.18 1121.25 Q1695.12 1119.03 1700.93 1119.03 L1706.9 1119.03 L1706.9 1118.61 Q1706.9 1115.67 1704.96 1114.08 Q1703.04 1112.46 1699.54 1112.46 Q1697.32 1112.46 1695.21 1112.99 Q1693.11 1113.52 1691.16 1114.59 L1691.16 1110.65 Q1693.5 1109.75 1695.7 1109.31 Q1697.9 1108.84 1699.98 1108.84 Q1705.61 1108.84 1708.39 1111.76 Q1711.16 1114.68 1711.16 1120.6 Z" fill="#000000" fill-rule="evenodd" fill-opacity="1" /><path clip-path="url(#clip400)" d="M1724.06 1131.51 L1724.06 1145.26 L1719.77 1145.26 L1719.77 1109.47 L1724.06 1109.47 L1724.06 1113.4 Q1725.4 1111.09 1727.44 1109.98 Q1729.5 1108.84 1732.34 1108.84 Q1737.07 1108.84 1740.01 1112.59 Q1742.97 1116.34 1742.97 1122.46 Q1742.97 1128.57 1740.01 1132.32 Q1737.07 1136.07 1732.34 1136.07 Q1729.5 1136.07 1727.44 1134.96 Q1725.4 1133.82 1724.06 1131.51 M1738.55 1122.46 Q1738.55 1117.76 1736.6 1115.09 Q1734.68 1112.41 1731.3 1112.41 Q1727.92 1112.41 1725.98 1115.09 Q1724.06 1117.76 1724.06 1122.46 Q1724.06 1127.15 1725.98 1129.84 Q1727.92 1132.5 1731.3 1132.5 Q1734.68 1132.5 1736.6 1129.84 Q1738.55 1127.15 1738.55 1122.46 Z" fill="#000000" fill-rule="evenodd" fill-opacity="1" /><path clip-path="url(#clip400)" d="M1754.15 1131.51 L1754.15 1145.26 L1749.87 1145.26 L1749.87 1109.47 L1754.15 1109.47 L1754.15 1113.4 Q1755.49 1111.09 1757.53 1109.98 Q1759.59 1108.84 1762.44 1108.84 Q1767.16 1108.84 1770.1 1112.59 Q1773.06 1116.34 1773.06 1122.46 Q1773.06 1128.57 1770.1 1132.32 Q1767.16 1136.07 1762.44 1136.07 Q1759.59 1136.07 1757.53 1134.96 Q1755.49 1133.82 1754.15 1131.51 M1768.64 1122.46 Q1768.64 1117.76 1766.7 1115.09 Q1764.77 1112.41 1761.39 1112.41 Q1758.01 1112.41 1756.07 1115.09 Q1754.15 1117.76 1754.15 1122.46 Q1754.15 1127.15 1756.07 1129.84 Q1758.01 1132.5 1761.39 1132.5 Q1764.77 1132.5 1766.7 1129.84 Q1768.64 1127.15 1768.64 1122.46 Z" fill="#000000" fill-rule="evenodd" fill-opacity="1" /><path clip-path="url(#clip400)" d="M1795.14 1113.45 Q1794.43 1113.03 1793.57 1112.85 Q1792.74 1112.64 1791.72 1112.64 Q1788.11 1112.64 1786.16 1115 Q1784.24 1117.34 1784.24 1121.74 L1784.24 1135.4 L1779.96 1135.4 L1779.96 1109.47 L1784.24 1109.47 L1784.24 1113.5 Q1785.58 1111.14 1787.74 1110 Q1789.89 1108.84 1792.97 1108.84 Q1793.41 1108.84 1793.94 1108.91 Q1794.47 1108.96 1795.12 1109.08 L1795.14 1113.45 Z" fill="#000000" fill-rule="evenodd" fill-opacity="1" /><path clip-path="url(#clip400)" d="M1808.62 1112.46 Q1805.19 1112.46 1803.2 1115.14 Q1801.21 1117.8 1801.21 1122.46 Q1801.21 1127.11 1803.18 1129.79 Q1805.17 1132.46 1808.62 1132.46 Q1812.02 1132.46 1814.01 1129.77 Q1816 1127.09 1816 1122.46 Q1816 1117.85 1814.01 1115.16 Q1812.02 1112.46 1808.62 1112.46 M1808.62 1108.84 Q1814.17 1108.84 1817.34 1112.46 Q1820.51 1116.07 1820.51 1122.46 Q1820.51 1128.82 1817.34 1132.46 Q1814.17 1136.07 1808.62 1136.07 Q1803.04 1136.07 1799.87 1132.46 Q1796.72 1128.82 1796.72 1122.46 Q1796.72 1116.07 1799.87 1112.46 Q1803.04 1108.84 1808.62 1108.84 Z" fill="#000000" fill-rule="evenodd" fill-opacity="1" /><path clip-path="url(#clip400)" d="M1847.67 1109.47 L1838.29 1122.09 L1848.15 1135.4 L1843.13 1135.4 L1835.58 1125.21 L1828.04 1135.4 L1823.01 1135.4 L1833.08 1121.83 L1823.87 1109.47 L1828.89 1109.47 L1835.77 1118.71 L1842.64 1109.47 L1847.67 1109.47 Z" fill="#000000" fill-rule="evenodd" fill-opacity="1" /><path clip-path="url(#clip400)" d="M1854.17 1109.47 L1858.43 1109.47 L1858.43 1135.4 L1854.17 1135.4 L1854.17 1109.47 M1854.17 1099.38 L1858.43 1099.38 L1858.43 1104.77 L1854.17 1104.77 L1854.17 1099.38 Z" fill="#000000" fill-rule="evenodd" fill-opacity="1" /><path clip-path="url(#clip400)" d="M1887.53 1114.45 Q1889.12 1111.58 1891.35 1110.21 Q1893.57 1108.84 1896.58 1108.84 Q1900.63 1108.84 1902.83 1111.69 Q1905.03 1114.52 1905.03 1119.75 L1905.03 1135.4 L1900.75 1135.4 L1900.75 1119.89 Q1900.75 1116.16 1899.43 1114.35 Q1898.11 1112.55 1895.4 1112.55 Q1892.09 1112.55 1890.17 1114.75 Q1888.25 1116.95 1888.25 1120.74 L1888.25 1135.4 L1883.96 1135.4 L1883.96 1119.89 Q1883.96 1116.14 1882.64 1114.35 Q1881.32 1112.55 1878.57 1112.55 Q1875.31 1112.55 1873.38 1114.77 Q1871.46 1116.97 1871.46 1120.74 L1871.46 1135.4 L1867.18 1135.4 L1867.18 1109.47 L1871.46 1109.47 L1871.46 1113.5 Q1872.92 1111.11 1874.96 1109.98 Q1877 1108.84 1879.8 1108.84 Q1882.62 1108.84 1884.59 1110.28 Q1886.58 1111.71 1887.53 1114.45 Z" fill="#000000" fill-rule="evenodd" fill-opacity="1" /><path clip-path="url(#clip400)" d="M1925.31 1122.36 Q1920.14 1122.36 1918.15 1123.54 Q1916.16 1124.72 1916.16 1127.57 Q1916.16 1129.84 1917.64 1131.18 Q1919.15 1132.5 1921.72 1132.5 Q1925.26 1132.5 1927.39 1130 Q1929.54 1127.48 1929.54 1123.31 L1929.54 1122.36 L1925.31 1122.36 M1933.8 1120.6 L1933.8 1135.4 L1929.54 1135.4 L1929.54 1131.46 Q1928.08 1133.82 1925.91 1134.96 Q1923.73 1136.07 1920.58 1136.07 Q1916.6 1136.07 1914.24 1133.84 Q1911.9 1131.6 1911.9 1127.85 Q1911.9 1123.47 1914.82 1121.25 Q1917.76 1119.03 1923.57 1119.03 L1929.54 1119.03 L1929.54 1118.61 Q1929.54 1115.67 1927.6 1114.08 Q1925.68 1112.46 1922.18 1112.46 Q1919.96 1112.46 1917.85 1112.99 Q1915.75 1113.52 1913.8 1114.59 L1913.8 1110.65 Q1916.14 1109.75 1918.34 1109.31 Q1920.54 1108.84 1922.62 1108.84 Q1928.25 1108.84 1931.02 1111.76 Q1933.8 1114.68 1933.8 1120.6 Z" fill="#000000" fill-rule="evenodd" fill-opacity="1" /><path clip-path="url(#clip400)" d="M1946.79 1102.11 L1946.79 1109.47 L1955.56 1109.47 L1955.56 1112.78 L1946.79 1112.78 L1946.79 1126.85 Q1946.79 1130.02 1947.64 1130.93 Q1948.52 1131.83 1951.18 1131.83 L1955.56 1131.83 L1955.56 1135.4 L1951.18 1135.4 Q1946.25 1135.4 1944.38 1133.57 Q1942.5 1131.71 1942.5 1126.85 L1942.5 1112.78 L1939.38 1112.78 L1939.38 1109.47 L1942.5 1109.47 L1942.5 1102.11 L1946.79 1102.11 Z" fill="#000000" fill-rule="evenodd" fill-opacity="1" /><path clip-path="url(#clip400)" d="M1983.34 1121.37 L1983.34 1123.45 L1963.75 1123.45 Q1964.03 1127.85 1966.39 1130.16 Q1968.78 1132.46 1973.01 1132.46 Q1975.47 1132.46 1977.76 1131.85 Q1980.07 1131.25 1982.34 1130.05 L1982.34 1134.08 Q1980.05 1135.05 1977.64 1135.56 Q1975.24 1136.07 1972.76 1136.07 Q1966.56 1136.07 1962.92 1132.46 Q1959.31 1128.84 1959.31 1122.69 Q1959.31 1116.32 1962.74 1112.59 Q1966.18 1108.84 1972.02 1108.84 Q1977.25 1108.84 1980.28 1112.22 Q1983.34 1115.58 1983.34 1121.37 M1979.08 1120.12 Q1979.03 1116.62 1977.11 1114.54 Q1975.21 1112.46 1972.06 1112.46 Q1968.5 1112.46 1966.35 1114.47 Q1964.22 1116.48 1963.89 1120.14 L1979.08 1120.12 Z" fill="#000000" fill-rule="evenodd" fill-opacity="1" /><path clip-path="url(#clip400)" d="M2007.39 1113.4 L2007.39 1099.38 L2011.65 1099.38 L2011.65 1135.4 L2007.39 1135.4 L2007.39 1131.51 Q2006.05 1133.82 2003.99 1134.96 Q2001.95 1136.07 1999.08 1136.07 Q1994.38 1136.07 1991.42 1132.32 Q1988.48 1128.57 1988.48 1122.46 Q1988.48 1116.34 1991.42 1112.59 Q1994.38 1108.84 1999.08 1108.84 Q2001.95 1108.84 2003.99 1109.98 Q2006.05 1111.09 2007.39 1113.4 M1992.87 1122.46 Q1992.87 1127.15 1994.8 1129.84 Q1996.74 1132.5 2000.12 1132.5 Q2003.5 1132.5 2005.44 1129.84 Q2007.39 1127.15 2007.39 1122.46 Q2007.39 1117.76 2005.44 1115.09 Q2003.5 1112.41 2000.12 1112.41 Q1996.74 1112.41 1994.8 1115.09 Q1992.87 1117.76 1992.87 1122.46 Z" fill="#000000" fill-rule="evenodd" fill-opacity="1" /><path clip-path="url(#clip400)" d="M2030.88 1100.84 L2060.12 1100.84 L2060.12 1104.77 L2047.85 1104.77 L2047.85 1135.4 L2043.15 1135.4 L2043.15 1104.77 L2030.88 1104.77 L2030.88 1100.84 Z" fill="#000000" fill-rule="evenodd" fill-opacity="1" /><polyline clip-path="url(#clip400)" style="stroke:#1ac938; stroke-linecap:butt; stroke-linejoin:round; stroke-width:4; stroke-opacity:1; fill:none" points="
  1230.69,1169.96 1372.88,1169.96 
  "/>
<path clip-path="url(#clip400)" d="M1396.58 1152.68 L1416.44 1152.68 L1416.44 1156.61 L1401.26 1156.61 L1401.26 1166.8 L1414.96 1166.8 L1414.96 1170.73 L1401.26 1170.73 L1401.26 1187.24 L1396.58 1187.24 L1396.58 1152.68 Z" fill="#000000" fill-rule="evenodd" fill-opacity="1" /><path clip-path="url(#clip400)" d="M1431.1 1174.2 Q1425.93 1174.2 1423.94 1175.38 Q1421.95 1176.56 1421.95 1179.41 Q1421.95 1181.68 1423.43 1183.02 Q1424.94 1184.34 1427.51 1184.34 Q1431.05 1184.34 1433.18 1181.84 Q1435.33 1179.32 1435.33 1175.15 L1435.33 1174.2 L1431.1 1174.2 M1439.59 1172.44 L1439.59 1187.24 L1435.33 1187.24 L1435.33 1183.3 Q1433.87 1185.66 1431.7 1186.8 Q1429.52 1187.91 1426.37 1187.91 Q1422.39 1187.91 1420.03 1185.68 Q1417.69 1183.44 1417.69 1179.69 Q1417.69 1175.31 1420.61 1173.09 Q1423.55 1170.87 1429.36 1170.87 L1435.33 1170.87 L1435.33 1170.45 Q1435.33 1167.51 1433.39 1165.92 Q1431.47 1164.3 1427.97 1164.3 Q1425.75 1164.3 1423.64 1164.83 Q1421.53 1165.36 1419.59 1166.43 L1419.59 1162.49 Q1421.93 1161.59 1424.13 1161.15 Q1426.33 1160.68 1428.41 1160.68 Q1434.03 1160.68 1436.81 1163.6 Q1439.59 1166.52 1439.59 1172.44 Z" fill="#000000" fill-rule="evenodd" fill-opacity="1" /><path clip-path="url(#clip400)" d="M1469.91 1171.59 L1469.91 1187.24 L1465.66 1187.24 L1465.66 1171.73 Q1465.66 1168.05 1464.22 1166.22 Q1462.78 1164.39 1459.91 1164.39 Q1456.47 1164.39 1454.47 1166.59 Q1452.48 1168.79 1452.48 1172.58 L1452.48 1187.24 L1448.2 1187.24 L1448.2 1161.31 L1452.48 1161.31 L1452.48 1165.34 Q1454.01 1163 1456.07 1161.84 Q1458.16 1160.68 1460.86 1160.68 Q1465.33 1160.68 1467.62 1163.46 Q1469.91 1166.22 1469.91 1171.59 Z" fill="#000000" fill-rule="evenodd" fill-opacity="1" /><path clip-path="url(#clip400)" d="M1499.96 1171.59 L1499.96 1187.24 L1495.7 1187.24 L1495.7 1171.73 Q1495.7 1168.05 1494.27 1166.22 Q1492.83 1164.39 1489.96 1164.39 Q1486.51 1164.39 1484.52 1166.59 Q1482.53 1168.79 1482.53 1172.58 L1482.53 1187.24 L1478.25 1187.24 L1478.25 1161.31 L1482.53 1161.31 L1482.53 1165.34 Q1484.06 1163 1486.12 1161.84 Q1488.2 1160.68 1490.91 1160.68 Q1495.38 1160.68 1497.67 1163.46 Q1499.96 1166.22 1499.96 1171.59 Z" fill="#000000" fill-rule="evenodd" fill-opacity="1" /><path clip-path="url(#clip400)" d="M1518.5 1164.3 Q1515.08 1164.3 1513.09 1166.98 Q1511.09 1169.64 1511.09 1174.3 Q1511.09 1178.95 1513.06 1181.63 Q1515.05 1184.3 1518.5 1184.3 Q1521.9 1184.3 1523.9 1181.61 Q1525.89 1178.93 1525.89 1174.3 Q1525.89 1169.69 1523.9 1167 Q1521.9 1164.3 1518.5 1164.3 M1518.5 1160.68 Q1524.06 1160.68 1527.23 1164.3 Q1530.4 1167.91 1530.4 1174.3 Q1530.4 1180.66 1527.23 1184.3 Q1524.06 1187.91 1518.5 1187.91 Q1512.92 1187.91 1509.75 1184.3 Q1506.6 1180.66 1506.6 1174.3 Q1506.6 1167.91 1509.75 1164.3 Q1512.92 1160.68 1518.5 1160.68 Z" fill="#000000" fill-rule="evenodd" fill-opacity="1" /><path clip-path="url(#clip400)" d="M1552.71 1152.68 L1572.58 1152.68 L1572.58 1156.61 L1557.39 1156.61 L1557.39 1166.8 L1571.09 1166.8 L1571.09 1170.73 L1557.39 1170.73 L1557.39 1187.24 L1552.71 1187.24 L1552.71 1152.68 Z" fill="#000000" fill-rule="evenodd" fill-opacity="1" /><path clip-path="url(#clip400)" d="M1579.8 1151.22 L1584.06 1151.22 L1584.06 1187.24 L1579.8 1187.24 L1579.8 1151.22 Z" fill="#000000" fill-rule="evenodd" fill-opacity="1" /><path clip-path="url(#clip400)" d="M1603.02 1164.3 Q1599.59 1164.3 1597.6 1166.98 Q1595.61 1169.64 1595.61 1174.3 Q1595.61 1178.95 1597.58 1181.63 Q1599.57 1184.3 1603.02 1184.3 Q1606.42 1184.3 1608.41 1181.61 Q1610.4 1178.93 1610.4 1174.3 Q1610.4 1169.69 1608.41 1167 Q1606.42 1164.3 1603.02 1164.3 M1603.02 1160.68 Q1608.57 1160.68 1611.74 1164.3 Q1614.91 1167.91 1614.91 1174.3 Q1614.91 1180.66 1611.74 1184.3 Q1608.57 1187.91 1603.02 1187.91 Q1597.44 1187.91 1594.27 1184.3 Q1591.12 1180.66 1591.12 1174.3 Q1591.12 1167.91 1594.27 1164.3 Q1597.44 1160.68 1603.02 1160.68 Z" fill="#000000" fill-rule="evenodd" fill-opacity="1" /><path clip-path="url(#clip400)" d="M1619.5 1161.31 L1623.76 1161.31 L1629.08 1181.54 L1634.38 1161.31 L1639.4 1161.31 L1644.73 1181.54 L1650.03 1161.31 L1654.29 1161.31 L1647.51 1187.24 L1642.48 1187.24 L1636.9 1165.99 L1631.3 1187.24 L1626.28 1187.24 L1619.5 1161.31 Z" fill="#000000" fill-rule="evenodd" fill-opacity="1" /><polyline clip-path="url(#clip400)" style="stroke:#e8000b; stroke-linecap:butt; stroke-linejoin:round; stroke-width:4; stroke-opacity:1; fill:none" points="
  1230.69,1221.8 1372.88,1221.8 
  "/>
<path clip-path="url(#clip400)" d="M1396.58 1204.52 L1403.55 1204.52 L1412.37 1228.03 L1421.23 1204.52 L1428.2 1204.52 L1428.2 1239.08 L1423.64 1239.08 L1423.64 1208.73 L1414.73 1232.43 L1410.03 1232.43 L1401.12 1208.73 L1401.12 1239.08 L1396.58 1239.08 L1396.58 1204.52 Z" fill="#000000" fill-rule="evenodd" fill-opacity="1" /><path clip-path="url(#clip400)" d="M1447.34 1216.14 Q1443.92 1216.14 1441.93 1218.82 Q1439.94 1221.48 1439.94 1226.14 Q1439.94 1230.79 1441.91 1233.47 Q1443.9 1236.14 1447.34 1236.14 Q1450.75 1236.14 1452.74 1233.45 Q1454.73 1230.77 1454.73 1226.14 Q1454.73 1221.53 1452.74 1218.84 Q1450.75 1216.14 1447.34 1216.14 M1447.34 1212.52 Q1452.9 1212.52 1456.07 1216.14 Q1459.24 1219.75 1459.24 1226.14 Q1459.24 1232.5 1456.07 1236.14 Q1452.9 1239.75 1447.34 1239.75 Q1441.77 1239.75 1438.6 1236.14 Q1435.45 1232.5 1435.45 1226.14 Q1435.45 1219.75 1438.6 1216.14 Q1441.77 1212.52 1447.34 1212.52 Z" fill="#000000" fill-rule="evenodd" fill-opacity="1" /><path clip-path="url(#clip400)" d="M1483.36 1217.08 L1483.36 1203.06 L1487.62 1203.06 L1487.62 1239.08 L1483.36 1239.08 L1483.36 1235.19 Q1482.02 1237.5 1479.96 1238.64 Q1477.92 1239.75 1475.05 1239.75 Q1470.35 1239.75 1467.39 1236 Q1464.45 1232.25 1464.45 1226.14 Q1464.45 1220.02 1467.39 1216.27 Q1470.35 1212.52 1475.05 1212.52 Q1477.92 1212.52 1479.96 1213.66 Q1482.02 1214.77 1483.36 1217.08 M1468.85 1226.14 Q1468.85 1230.83 1470.77 1233.52 Q1472.72 1236.18 1476.09 1236.18 Q1479.47 1236.18 1481.42 1233.52 Q1483.36 1230.83 1483.36 1226.14 Q1483.36 1221.44 1481.42 1218.77 Q1479.47 1216.09 1476.09 1216.09 Q1472.72 1216.09 1470.77 1218.77 Q1468.85 1221.44 1468.85 1226.14 Z" fill="#000000" fill-rule="evenodd" fill-opacity="1" /><path clip-path="url(#clip400)" d="M1496.4 1213.15 L1500.65 1213.15 L1500.65 1239.08 L1496.4 1239.08 L1496.4 1213.15 M1496.4 1203.06 L1500.65 1203.06 L1500.65 1208.45 L1496.4 1208.45 L1496.4 1203.06 Z" fill="#000000" fill-rule="evenodd" fill-opacity="1" /><path clip-path="url(#clip400)" d="M1522.69 1203.06 L1522.69 1206.6 L1518.62 1206.6 Q1516.33 1206.6 1515.42 1207.52 Q1514.54 1208.45 1514.54 1210.86 L1514.54 1213.15 L1521.56 1213.15 L1521.56 1216.46 L1514.54 1216.46 L1514.54 1239.08 L1510.26 1239.08 L1510.26 1216.46 L1506.19 1216.46 L1506.19 1213.15 L1510.26 1213.15 L1510.26 1211.34 Q1510.26 1207.02 1512.28 1205.05 Q1514.29 1203.06 1518.66 1203.06 L1522.69 1203.06 Z" fill="#000000" fill-rule="evenodd" fill-opacity="1" /><path clip-path="url(#clip400)" d="M1526.26 1213.15 L1530.52 1213.15 L1530.52 1239.08 L1526.26 1239.08 L1526.26 1213.15 M1526.26 1203.06 L1530.52 1203.06 L1530.52 1208.45 L1526.26 1208.45 L1526.26 1203.06 Z" fill="#000000" fill-rule="evenodd" fill-opacity="1" /><path clip-path="url(#clip400)" d="M1561.6 1225.05 L1561.6 1227.13 L1542.02 1227.13 Q1542.3 1231.53 1544.66 1233.84 Q1547.04 1236.14 1551.28 1236.14 Q1553.73 1236.14 1556.02 1235.53 Q1558.34 1234.93 1560.61 1233.73 L1560.61 1237.76 Q1558.32 1238.73 1555.91 1239.24 Q1553.5 1239.75 1551.02 1239.75 Q1544.82 1239.75 1541.19 1236.14 Q1537.58 1232.52 1537.58 1226.37 Q1537.58 1220 1541 1216.27 Q1544.45 1212.52 1550.28 1212.52 Q1555.52 1212.52 1558.55 1215.9 Q1561.6 1219.26 1561.6 1225.05 M1557.34 1223.8 Q1557.3 1220.3 1555.38 1218.22 Q1553.48 1216.14 1550.33 1216.14 Q1546.77 1216.14 1544.61 1218.15 Q1542.48 1220.16 1542.16 1223.82 L1557.34 1223.8 Z" fill="#000000" fill-rule="evenodd" fill-opacity="1" /><path clip-path="url(#clip400)" d="M1585.65 1217.08 L1585.65 1203.06 L1589.91 1203.06 L1589.91 1239.08 L1585.65 1239.08 L1585.65 1235.19 Q1584.31 1237.5 1582.25 1238.64 Q1580.21 1239.75 1577.34 1239.75 Q1572.65 1239.75 1569.68 1236 Q1566.74 1232.25 1566.74 1226.14 Q1566.74 1220.02 1569.68 1216.27 Q1572.65 1212.52 1577.34 1212.52 Q1580.21 1212.52 1582.25 1213.66 Q1584.31 1214.77 1585.65 1217.08 M1571.14 1226.14 Q1571.14 1230.83 1573.06 1233.52 Q1575.01 1236.18 1578.39 1236.18 Q1581.77 1236.18 1583.71 1233.52 Q1585.65 1230.83 1585.65 1226.14 Q1585.65 1221.44 1583.71 1218.77 Q1581.77 1216.09 1578.39 1216.09 Q1575.01 1216.09 1573.06 1218.77 Q1571.14 1221.44 1571.14 1226.14 Z" fill="#000000" fill-rule="evenodd" fill-opacity="1" /><path clip-path="url(#clip400)" d="M1618.62 1208.36 L1618.62 1235.23 L1624.27 1235.23 Q1631.42 1235.23 1634.73 1231.99 Q1638.06 1228.75 1638.06 1221.76 Q1638.06 1214.82 1634.73 1211.6 Q1631.42 1208.36 1624.27 1208.36 L1618.62 1208.36 M1613.94 1204.52 L1623.55 1204.52 Q1633.59 1204.52 1638.29 1208.71 Q1642.99 1212.87 1642.99 1221.76 Q1642.99 1230.7 1638.27 1234.89 Q1633.55 1239.08 1623.55 1239.08 L1613.94 1239.08 L1613.94 1204.52 Z" fill="#000000" fill-rule="evenodd" fill-opacity="1" /><path clip-path="url(#clip400)" d="M1662.04 1226.04 Q1656.88 1226.04 1654.89 1227.22 Q1652.9 1228.4 1652.9 1231.25 Q1652.9 1233.52 1654.38 1234.86 Q1655.89 1236.18 1658.45 1236.18 Q1662 1236.18 1664.13 1233.68 Q1666.28 1231.16 1666.28 1226.99 L1666.28 1226.04 L1662.04 1226.04 M1670.54 1224.28 L1670.54 1239.08 L1666.28 1239.08 L1666.28 1235.14 Q1664.82 1237.5 1662.64 1238.64 Q1660.47 1239.75 1657.32 1239.75 Q1653.34 1239.75 1650.98 1237.52 Q1648.64 1235.28 1648.64 1231.53 Q1648.64 1227.15 1651.56 1224.93 Q1654.5 1222.71 1660.31 1222.71 L1666.28 1222.71 L1666.28 1222.29 Q1666.28 1219.35 1664.33 1217.76 Q1662.41 1216.14 1658.92 1216.14 Q1656.7 1216.14 1654.59 1216.67 Q1652.48 1217.2 1650.54 1218.27 L1650.54 1214.33 Q1652.88 1213.43 1655.08 1212.99 Q1657.27 1212.52 1659.36 1212.52 Q1664.98 1212.52 1667.76 1215.44 Q1670.54 1218.36 1670.54 1224.28 Z" fill="#000000" fill-rule="evenodd" fill-opacity="1" /><path clip-path="url(#clip400)" d="M1694.33 1217.13 Q1693.62 1216.71 1692.76 1216.53 Q1691.93 1216.32 1690.91 1216.32 Q1687.3 1216.32 1685.35 1218.68 Q1683.43 1221.02 1683.43 1225.42 L1683.43 1239.08 L1679.15 1239.08 L1679.15 1213.15 L1683.43 1213.15 L1683.43 1217.18 Q1684.77 1214.82 1686.93 1213.68 Q1689.08 1212.52 1692.16 1212.52 Q1692.6 1212.52 1693.13 1212.59 Q1693.66 1212.64 1694.31 1212.76 L1694.33 1217.13 Z" fill="#000000" fill-rule="evenodd" fill-opacity="1" /><path clip-path="url(#clip400)" d="M1716.42 1214.14 L1716.42 1218.13 Q1714.61 1217.13 1712.78 1216.64 Q1710.98 1216.14 1709.13 1216.14 Q1704.98 1216.14 1702.69 1218.77 Q1700.4 1221.39 1700.4 1226.14 Q1700.4 1230.88 1702.69 1233.52 Q1704.98 1236.14 1709.13 1236.14 Q1710.98 1236.14 1712.78 1235.65 Q1714.61 1235.14 1716.42 1234.14 L1716.42 1238.08 Q1714.64 1238.91 1712.71 1239.33 Q1710.82 1239.75 1708.66 1239.75 Q1702.81 1239.75 1699.36 1236.07 Q1695.91 1232.39 1695.91 1226.14 Q1695.91 1219.79 1699.38 1216.16 Q1702.88 1212.52 1708.94 1212.52 Q1710.91 1212.52 1712.78 1212.94 Q1714.66 1213.33 1716.42 1214.14 Z" fill="#000000" fill-rule="evenodd" fill-opacity="1" /><path clip-path="url(#clip400)" d="M1734.61 1241.48 Q1732.81 1246.11 1731.09 1247.52 Q1729.38 1248.94 1726.51 1248.94 L1723.11 1248.94 L1723.11 1245.37 L1725.61 1245.37 Q1727.37 1245.37 1728.34 1244.54 Q1729.31 1243.7 1730.49 1240.6 L1731.26 1238.66 L1720.77 1213.15 L1725.28 1213.15 L1733.39 1233.43 L1741.49 1213.15 L1746 1213.15 L1734.61 1241.48 Z" fill="#000000" fill-rule="evenodd" fill-opacity="1" /><path clip-path="url(#clip400)" d="M1767.13 1204.52 L1788.99 1204.52 L1788.99 1208.45 L1771.81 1208.45 L1771.81 1218.68 L1788.27 1218.68 L1788.27 1222.62 L1771.81 1222.62 L1771.81 1235.14 L1789.4 1235.14 L1789.4 1239.08 L1767.13 1239.08 L1767.13 1204.52 Z" fill="#000000" fill-rule="evenodd" fill-opacity="1" /><path clip-path="url(#clip400)" d="M1799.45 1226.14 Q1799.45 1230.83 1801.37 1233.52 Q1803.32 1236.18 1806.69 1236.18 Q1810.07 1236.18 1812.02 1233.52 Q1813.96 1230.83 1813.96 1226.14 Q1813.96 1221.44 1812.02 1218.77 Q1810.07 1216.09 1806.69 1216.09 Q1803.32 1216.09 1801.37 1218.77 Q1799.45 1221.44 1799.45 1226.14 M1813.96 1235.19 Q1812.62 1237.5 1810.56 1238.64 Q1808.52 1239.75 1805.65 1239.75 Q1800.95 1239.75 1797.99 1236 Q1795.05 1232.25 1795.05 1226.14 Q1795.05 1220.02 1797.99 1216.27 Q1800.95 1212.52 1805.65 1212.52 Q1808.52 1212.52 1810.56 1213.66 Q1812.62 1214.77 1813.96 1217.08 L1813.96 1213.15 L1818.22 1213.15 L1818.22 1248.94 L1813.96 1248.94 L1813.96 1235.19 Z" fill="#000000" fill-rule="evenodd" fill-opacity="1" /><path clip-path="url(#clip400)" d="M1826.56 1228.84 L1826.56 1213.15 L1830.82 1213.15 L1830.82 1228.68 Q1830.82 1232.36 1832.25 1234.21 Q1833.69 1236.04 1836.56 1236.04 Q1840 1236.04 1842 1233.84 Q1844.01 1231.64 1844.01 1227.85 L1844.01 1213.15 L1848.27 1213.15 L1848.27 1239.08 L1844.01 1239.08 L1844.01 1235.09 Q1842.46 1237.45 1840.4 1238.61 Q1838.36 1239.75 1835.65 1239.75 Q1831.19 1239.75 1828.87 1236.97 Q1826.56 1234.19 1826.56 1228.84 M1837.27 1212.52 L1837.27 1212.52 Z" fill="#000000" fill-rule="evenodd" fill-opacity="1" /><path clip-path="url(#clip400)" d="M1868.82 1226.04 Q1863.66 1226.04 1861.67 1227.22 Q1859.68 1228.4 1859.68 1231.25 Q1859.68 1233.52 1861.16 1234.86 Q1862.67 1236.18 1865.24 1236.18 Q1868.78 1236.18 1870.91 1233.68 Q1873.06 1231.16 1873.06 1226.99 L1873.06 1226.04 L1868.82 1226.04 M1877.32 1224.28 L1877.32 1239.08 L1873.06 1239.08 L1873.06 1235.14 Q1871.6 1237.5 1869.43 1238.64 Q1867.25 1239.75 1864.1 1239.75 Q1860.12 1239.75 1857.76 1237.52 Q1855.42 1235.28 1855.42 1231.53 Q1855.42 1227.15 1858.34 1224.93 Q1861.28 1222.71 1867.09 1222.71 L1873.06 1222.71 L1873.06 1222.29 Q1873.06 1219.35 1871.12 1217.76 Q1869.19 1216.14 1865.7 1216.14 Q1863.48 1216.14 1861.37 1216.67 Q1859.26 1217.2 1857.32 1218.27 L1857.32 1214.33 Q1859.66 1213.43 1861.86 1212.99 Q1864.06 1212.52 1866.14 1212.52 Q1871.76 1212.52 1874.54 1215.44 Q1877.32 1218.36 1877.32 1224.28 Z" fill="#000000" fill-rule="evenodd" fill-opacity="1" /><path clip-path="url(#clip400)" d="M1890.31 1205.79 L1890.31 1213.15 L1899.08 1213.15 L1899.08 1216.46 L1890.31 1216.46 L1890.31 1230.53 Q1890.31 1233.7 1891.16 1234.61 Q1892.04 1235.51 1894.7 1235.51 L1899.08 1235.51 L1899.08 1239.08 L1894.7 1239.08 Q1889.77 1239.08 1887.9 1237.25 Q1886.02 1235.39 1886.02 1230.53 L1886.02 1216.46 L1882.9 1216.46 L1882.9 1213.15 L1886.02 1213.15 L1886.02 1205.79 L1890.31 1205.79 Z" fill="#000000" fill-rule="evenodd" fill-opacity="1" /><path clip-path="url(#clip400)" d="M1904.68 1213.15 L1908.94 1213.15 L1908.94 1239.08 L1904.68 1239.08 L1904.68 1213.15 M1904.68 1203.06 L1908.94 1203.06 L1908.94 1208.45 L1904.68 1208.45 L1904.68 1203.06 Z" fill="#000000" fill-rule="evenodd" fill-opacity="1" /><path clip-path="url(#clip400)" d="M1927.9 1216.14 Q1924.47 1216.14 1922.48 1218.82 Q1920.49 1221.48 1920.49 1226.14 Q1920.49 1230.79 1922.46 1233.47 Q1924.45 1236.14 1927.9 1236.14 Q1931.3 1236.14 1933.29 1233.45 Q1935.28 1230.77 1935.28 1226.14 Q1935.28 1221.53 1933.29 1218.84 Q1931.3 1216.14 1927.9 1216.14 M1927.9 1212.52 Q1933.45 1212.52 1936.62 1216.14 Q1939.8 1219.75 1939.8 1226.14 Q1939.8 1232.5 1936.62 1236.14 Q1933.45 1239.75 1927.9 1239.75 Q1922.32 1239.75 1919.15 1236.14 Q1916 1232.5 1916 1226.14 Q1916 1219.75 1919.15 1216.14 Q1922.32 1212.52 1927.9 1212.52 Z" fill="#000000" fill-rule="evenodd" fill-opacity="1" /><path clip-path="url(#clip400)" d="M1968.41 1223.43 L1968.41 1239.08 L1964.15 1239.08 L1964.15 1223.57 Q1964.15 1219.89 1962.71 1218.06 Q1961.28 1216.23 1958.41 1216.23 Q1954.96 1216.23 1952.97 1218.43 Q1950.98 1220.63 1950.98 1224.42 L1950.98 1239.08 L1946.69 1239.08 L1946.69 1213.15 L1950.98 1213.15 L1950.98 1217.18 Q1952.5 1214.84 1954.56 1213.68 Q1956.65 1212.52 1959.36 1212.52 Q1963.82 1212.52 1966.12 1215.3 Q1968.41 1218.06 1968.41 1223.43 Z" fill="#000000" fill-rule="evenodd" fill-opacity="1" /><path clip-path="url(#clip400)" d="M2002.2 1203.1 Q1999.1 1208.43 1997.6 1213.64 Q1996.09 1218.84 1996.09 1224.19 Q1996.09 1229.54 1997.6 1234.79 Q1999.12 1240.02 2002.2 1245.33 L1998.5 1245.33 Q1995.03 1239.89 1993.29 1234.63 Q1991.58 1229.38 1991.58 1224.19 Q1991.58 1219.03 1993.29 1213.8 Q1995 1208.57 1998.5 1203.1 L2002.2 1203.1 Z" fill="#000000" fill-rule="evenodd" fill-opacity="1" /><path clip-path="url(#clip400)" d="M2005.91 1204.52 L2010.93 1204.52 L2020.51 1218.73 L2030.03 1204.52 L2035.05 1204.52 L2022.83 1222.62 L2022.83 1239.08 L2018.13 1239.08 L2018.13 1222.62 L2005.91 1204.52 Z" fill="#000000" fill-rule="evenodd" fill-opacity="1" /><path clip-path="url(#clip400)" d="M2054.68 1204.52 L2074.54 1204.52 L2074.54 1208.45 L2059.36 1208.45 L2059.36 1218.64 L2073.06 1218.64 L2073.06 1222.57 L2059.36 1222.57 L2059.36 1239.08 L2054.68 1239.08 L2054.68 1204.52 Z" fill="#000000" fill-rule="evenodd" fill-opacity="1" /><path clip-path="url(#clip400)" d="M2089.19 1226.04 Q2084.03 1226.04 2082.04 1227.22 Q2080.05 1228.4 2080.05 1231.25 Q2080.05 1233.52 2081.53 1234.86 Q2083.04 1236.18 2085.61 1236.18 Q2089.15 1236.18 2091.28 1233.68 Q2093.43 1231.16 2093.43 1226.99 L2093.43 1226.04 L2089.19 1226.04 M2097.69 1224.28 L2097.69 1239.08 L2093.43 1239.08 L2093.43 1235.14 Q2091.97 1237.5 2089.8 1238.64 Q2087.62 1239.75 2084.47 1239.75 Q2080.49 1239.75 2078.13 1237.52 Q2075.79 1235.28 2075.79 1231.53 Q2075.79 1227.15 2078.71 1224.93 Q2081.65 1222.71 2087.46 1222.71 L2093.43 1222.71 L2093.43 1222.29 Q2093.43 1219.35 2091.49 1217.76 Q2089.56 1216.14 2086.07 1216.14 Q2083.85 1216.14 2081.74 1216.67 Q2079.63 1217.2 2077.69 1218.27 L2077.69 1214.33 Q2080.03 1213.43 2082.23 1212.99 Q2084.42 1212.52 2086.51 1212.52 Q2092.13 1212.52 2094.91 1215.44 Q2097.69 1218.36 2097.69 1224.28 Z" fill="#000000" fill-rule="evenodd" fill-opacity="1" /><path clip-path="url(#clip400)" d="M2125.12 1214.14 L2125.12 1218.13 Q2123.31 1217.13 2121.48 1216.64 Q2119.68 1216.14 2117.83 1216.14 Q2113.68 1216.14 2111.39 1218.77 Q2109.1 1221.39 2109.1 1226.14 Q2109.1 1230.88 2111.39 1233.52 Q2113.68 1236.14 2117.83 1236.14 Q2119.68 1236.14 2121.48 1235.65 Q2123.31 1235.14 2125.12 1234.14 L2125.12 1238.08 Q2123.34 1238.91 2121.42 1239.33 Q2119.52 1239.75 2117.36 1239.75 Q2111.51 1239.75 2108.06 1236.07 Q2104.61 1232.39 2104.61 1226.14 Q2104.61 1219.79 2108.08 1216.16 Q2111.58 1212.52 2117.64 1212.52 Q2119.61 1212.52 2121.48 1212.94 Q2123.36 1213.33 2125.12 1214.14 Z" fill="#000000" fill-rule="evenodd" fill-opacity="1" /><path clip-path="url(#clip400)" d="M2136.74 1205.79 L2136.74 1213.15 L2145.51 1213.15 L2145.51 1216.46 L2136.74 1216.46 L2136.74 1230.53 Q2136.74 1233.7 2137.6 1234.61 Q2138.48 1235.51 2141.14 1235.51 L2145.51 1235.51 L2145.51 1239.08 L2141.14 1239.08 Q2136.21 1239.08 2134.33 1237.25 Q2132.46 1235.39 2132.46 1230.53 L2132.46 1216.46 L2129.33 1216.46 L2129.33 1213.15 L2132.46 1213.15 L2132.46 1205.79 L2136.74 1205.79 Z" fill="#000000" fill-rule="evenodd" fill-opacity="1" /><path clip-path="url(#clip400)" d="M2161.16 1216.14 Q2157.73 1216.14 2155.74 1218.82 Q2153.75 1221.48 2153.75 1226.14 Q2153.75 1230.79 2155.72 1233.47 Q2157.71 1236.14 2161.16 1236.14 Q2164.56 1236.14 2166.55 1233.45 Q2168.54 1230.77 2168.54 1226.14 Q2168.54 1221.53 2166.55 1218.84 Q2164.56 1216.14 2161.16 1216.14 M2161.16 1212.52 Q2166.72 1212.52 2169.89 1216.14 Q2173.06 1219.75 2173.06 1226.14 Q2173.06 1232.5 2169.89 1236.14 Q2166.72 1239.75 2161.16 1239.75 Q2155.58 1239.75 2152.41 1236.14 Q2149.26 1232.5 2149.26 1226.14 Q2149.26 1219.75 2152.41 1216.14 Q2155.58 1212.52 2161.16 1212.52 Z" fill="#000000" fill-rule="evenodd" fill-opacity="1" /><path clip-path="url(#clip400)" d="M2195.14 1217.13 Q2194.42 1216.71 2193.57 1216.53 Q2192.73 1216.32 2191.72 1216.32 Q2188.1 1216.32 2186.16 1218.68 Q2184.24 1221.02 2184.24 1225.42 L2184.24 1239.08 L2179.96 1239.08 L2179.96 1213.15 L2184.24 1213.15 L2184.24 1217.18 Q2185.58 1214.82 2187.73 1213.68 Q2189.89 1212.52 2192.97 1212.52 Q2193.41 1212.52 2193.94 1212.59 Q2194.47 1212.64 2195.12 1212.76 L2195.14 1217.13 Z" fill="#000000" fill-rule="evenodd" fill-opacity="1" /><path clip-path="url(#clip400)" d="M2216.14 1213.91 L2216.14 1217.94 Q2214.33 1217.02 2212.39 1216.55 Q2210.44 1216.09 2208.36 1216.09 Q2205.19 1216.09 2203.59 1217.06 Q2202.02 1218.03 2202.02 1219.98 Q2202.02 1221.46 2203.15 1222.32 Q2204.29 1223.15 2207.71 1223.91 L2209.17 1224.24 Q2213.71 1225.21 2215.6 1226.99 Q2217.53 1228.75 2217.53 1231.92 Q2217.53 1235.53 2214.66 1237.64 Q2211.81 1239.75 2206.81 1239.75 Q2204.73 1239.75 2202.46 1239.33 Q2200.21 1238.94 2197.71 1238.13 L2197.71 1233.73 Q2200.07 1234.95 2202.36 1235.58 Q2204.66 1236.18 2206.9 1236.18 Q2209.91 1236.18 2211.53 1235.16 Q2213.15 1234.12 2213.15 1232.25 Q2213.15 1230.51 2211.97 1229.58 Q2210.81 1228.66 2206.85 1227.8 L2205.37 1227.46 Q2201.41 1226.62 2199.66 1224.91 Q2197.9 1223.17 2197.9 1220.16 Q2197.9 1216.51 2200.49 1214.52 Q2203.08 1212.52 2207.85 1212.52 Q2210.21 1212.52 2212.29 1212.87 Q2214.38 1213.22 2216.14 1213.91 Z" fill="#000000" fill-rule="evenodd" fill-opacity="1" /><path clip-path="url(#clip400)" d="M2223.64 1203.1 L2227.34 1203.1 Q2230.81 1208.57 2232.53 1213.8 Q2234.26 1219.03 2234.26 1224.19 Q2234.26 1229.38 2232.53 1234.63 Q2230.81 1239.89 2227.34 1245.33 L2223.64 1245.33 Q2226.72 1240.02 2228.22 1234.79 Q2229.75 1229.54 2229.75 1224.19 Q2229.75 1218.84 2228.22 1213.64 Q2226.72 1208.43 2223.64 1203.1 Z" fill="#000000" fill-rule="evenodd" fill-opacity="1" /><polyline clip-path="url(#clip400)" style="stroke:#8b2be2; stroke-linecap:butt; stroke-linejoin:round; stroke-width:4; stroke-opacity:1; fill:none" points="
  1230.69,1273.64 1372.88,1273.64 
  "/>
<path clip-path="url(#clip400)" d="M1396.58 1256.36 L1401.26 1256.36 L1401.26 1290.92 L1396.58 1290.92 L1396.58 1256.36 Z" fill="#000000" fill-rule="evenodd" fill-opacity="1" /><path clip-path="url(#clip400)" d="M1426.91 1265.75 L1426.91 1269.78 Q1425.1 1268.86 1423.16 1268.39 Q1421.21 1267.93 1419.13 1267.93 Q1415.96 1267.93 1414.36 1268.9 Q1412.78 1269.87 1412.78 1271.82 Q1412.78 1273.3 1413.92 1274.16 Q1415.05 1274.99 1418.48 1275.75 L1419.94 1276.08 Q1424.47 1277.05 1426.37 1278.83 Q1428.29 1280.59 1428.29 1283.76 Q1428.29 1287.37 1425.42 1289.48 Q1422.58 1291.59 1417.58 1291.59 Q1415.49 1291.59 1413.22 1291.17 Q1410.98 1290.78 1408.48 1289.97 L1408.48 1285.57 Q1410.84 1286.79 1413.13 1287.42 Q1415.42 1288.02 1417.67 1288.02 Q1420.68 1288.02 1422.3 1287 Q1423.92 1285.96 1423.92 1284.09 Q1423.92 1282.35 1422.74 1281.42 Q1421.58 1280.5 1417.62 1279.64 L1416.14 1279.3 Q1412.18 1278.46 1410.42 1276.75 Q1408.66 1275.01 1408.66 1272 Q1408.66 1268.35 1411.26 1266.36 Q1413.85 1264.36 1418.62 1264.36 Q1420.98 1264.36 1423.06 1264.71 Q1425.15 1265.06 1426.91 1265.75 Z" fill="#000000" fill-rule="evenodd" fill-opacity="1" /><path clip-path="url(#clip400)" d="M1445.12 1267.98 Q1441.7 1267.98 1439.71 1270.66 Q1437.72 1273.32 1437.72 1277.98 Q1437.72 1282.63 1439.68 1285.31 Q1441.67 1287.98 1445.12 1287.98 Q1448.53 1287.98 1450.52 1285.29 Q1452.51 1282.61 1452.51 1277.98 Q1452.51 1273.37 1450.52 1270.68 Q1448.53 1267.98 1445.12 1267.98 M1445.12 1264.36 Q1450.68 1264.36 1453.85 1267.98 Q1457.02 1271.59 1457.02 1277.98 Q1457.02 1284.34 1453.85 1287.98 Q1450.68 1291.59 1445.12 1291.59 Q1439.54 1291.59 1436.37 1287.98 Q1433.22 1284.34 1433.22 1277.98 Q1433.22 1271.59 1436.37 1267.98 Q1439.54 1264.36 1445.12 1264.36 Z" fill="#000000" fill-rule="evenodd" fill-opacity="1" /><path clip-path="url(#clip400)" d="M1468.29 1257.63 L1468.29 1264.99 L1477.07 1264.99 L1477.07 1268.3 L1468.29 1268.3 L1468.29 1282.37 Q1468.29 1285.54 1469.15 1286.45 Q1470.03 1287.35 1472.69 1287.35 L1477.07 1287.35 L1477.07 1290.92 L1472.69 1290.92 Q1467.76 1290.92 1465.89 1289.09 Q1464.01 1287.23 1464.01 1282.37 L1464.01 1268.3 L1460.89 1268.3 L1460.89 1264.99 L1464.01 1264.99 L1464.01 1257.63 L1468.29 1257.63 Z" fill="#000000" fill-rule="evenodd" fill-opacity="1" /><path clip-path="url(#clip400)" d="M1504.22 1275.27 L1504.22 1290.92 L1499.96 1290.92 L1499.96 1275.41 Q1499.96 1271.73 1498.53 1269.9 Q1497.09 1268.07 1494.22 1268.07 Q1490.77 1268.07 1488.78 1270.27 Q1486.79 1272.47 1486.79 1276.26 L1486.79 1290.92 L1482.51 1290.92 L1482.51 1254.9 L1486.79 1254.9 L1486.79 1269.02 Q1488.32 1266.68 1490.38 1265.52 Q1492.46 1264.36 1495.17 1264.36 Q1499.64 1264.36 1501.93 1267.14 Q1504.22 1269.9 1504.22 1275.27 Z" fill="#000000" fill-rule="evenodd" fill-opacity="1" /><path clip-path="url(#clip400)" d="M1534.89 1276.89 L1534.89 1278.97 L1515.31 1278.97 Q1515.59 1283.37 1517.95 1285.68 Q1520.33 1287.98 1524.57 1287.98 Q1527.02 1287.98 1529.31 1287.37 Q1531.63 1286.77 1533.9 1285.57 L1533.9 1289.6 Q1531.6 1290.57 1529.2 1291.08 Q1526.79 1291.59 1524.31 1291.59 Q1518.11 1291.59 1514.47 1287.98 Q1510.86 1284.36 1510.86 1278.21 Q1510.86 1271.84 1514.29 1268.11 Q1517.74 1264.36 1523.57 1264.36 Q1528.8 1264.36 1531.84 1267.74 Q1534.89 1271.1 1534.89 1276.89 M1530.63 1275.64 Q1530.59 1272.14 1528.66 1270.06 Q1526.77 1267.98 1523.62 1267.98 Q1520.05 1267.98 1517.9 1269.99 Q1515.77 1272 1515.45 1275.66 L1530.63 1275.64 Z" fill="#000000" fill-rule="evenodd" fill-opacity="1" /><path clip-path="url(#clip400)" d="M1556.9 1268.97 Q1556.19 1268.55 1555.33 1268.37 Q1554.5 1268.16 1553.48 1268.16 Q1549.87 1268.16 1547.92 1270.52 Q1546 1272.86 1546 1277.26 L1546 1290.92 L1541.72 1290.92 L1541.72 1264.99 L1546 1264.99 L1546 1269.02 Q1547.34 1266.66 1549.5 1265.52 Q1551.65 1264.36 1554.73 1264.36 Q1555.17 1264.36 1555.7 1264.43 Q1556.23 1264.48 1556.88 1264.6 L1556.9 1268.97 Z" fill="#000000" fill-rule="evenodd" fill-opacity="1" /><path clip-path="url(#clip400)" d="M1580.72 1269.97 Q1582.32 1267.1 1584.54 1265.73 Q1586.77 1264.36 1589.77 1264.36 Q1593.83 1264.36 1596.02 1267.21 Q1598.22 1270.04 1598.22 1275.27 L1598.22 1290.92 L1593.94 1290.92 L1593.94 1275.41 Q1593.94 1271.68 1592.62 1269.87 Q1591.3 1268.07 1588.59 1268.07 Q1585.28 1268.07 1583.36 1270.27 Q1581.44 1272.47 1581.44 1276.26 L1581.44 1290.92 L1577.16 1290.92 L1577.16 1275.41 Q1577.16 1271.66 1575.84 1269.87 Q1574.52 1268.07 1571.77 1268.07 Q1568.5 1268.07 1566.58 1270.29 Q1564.66 1272.49 1564.66 1276.26 L1564.66 1290.92 L1560.38 1290.92 L1560.38 1264.99 L1564.66 1264.99 L1564.66 1269.02 Q1566.12 1266.63 1568.15 1265.5 Q1570.19 1264.36 1572.99 1264.36 Q1575.82 1264.36 1577.78 1265.8 Q1579.77 1267.23 1580.72 1269.97 Z" fill="#000000" fill-rule="evenodd" fill-opacity="1" /><path clip-path="url(#clip400)" d="M1618.5 1277.88 Q1613.34 1277.88 1611.35 1279.06 Q1609.36 1280.24 1609.36 1283.09 Q1609.36 1285.36 1610.84 1286.7 Q1612.34 1288.02 1614.91 1288.02 Q1618.46 1288.02 1620.58 1285.52 Q1622.74 1283 1622.74 1278.83 L1622.74 1277.88 L1618.5 1277.88 M1627 1276.12 L1627 1290.92 L1622.74 1290.92 L1622.74 1286.98 Q1621.28 1289.34 1619.1 1290.48 Q1616.93 1291.59 1613.78 1291.59 Q1609.8 1291.59 1607.44 1289.36 Q1605.1 1287.12 1605.1 1283.37 Q1605.1 1278.99 1608.02 1276.77 Q1610.96 1274.55 1616.77 1274.55 L1622.74 1274.55 L1622.74 1274.13 Q1622.74 1271.19 1620.79 1269.6 Q1618.87 1267.98 1615.38 1267.98 Q1613.15 1267.98 1611.05 1268.51 Q1608.94 1269.04 1607 1270.11 L1607 1266.17 Q1609.33 1265.27 1611.53 1264.83 Q1613.73 1264.36 1615.82 1264.36 Q1621.44 1264.36 1624.22 1267.28 Q1627 1270.2 1627 1276.12 Z" fill="#000000" fill-rule="evenodd" fill-opacity="1" /><path clip-path="url(#clip400)" d="M1635.77 1254.9 L1640.03 1254.9 L1640.03 1290.92 L1635.77 1290.92 L1635.77 1254.9 Z" fill="#000000" fill-rule="evenodd" fill-opacity="1" /><circle clip-path="url(#clip400)" cx="1301.79" cy="1325.48" r="23.04" fill="#ff0000" fill-rule="evenodd" fill-opacity="1" stroke="#000000" stroke-opacity="1" stroke-width="5.12"/>
<path clip-path="url(#clip400)" d="M1396.58 1308.2 L1425.82 1308.2 L1425.82 1312.13 L1413.55 1312.13 L1413.55 1342.76 L1408.85 1342.76 L1408.85 1312.13 L1396.58 1312.13 L1396.58 1308.2 Z" fill="#000000" fill-rule="evenodd" fill-opacity="1" /><path clip-path="url(#clip400)" d="M1451.7 1327.11 L1451.7 1342.76 L1447.44 1342.76 L1447.44 1327.25 Q1447.44 1323.57 1446 1321.74 Q1444.57 1319.91 1441.7 1319.91 Q1438.25 1319.91 1436.26 1322.11 Q1434.27 1324.31 1434.27 1328.1 L1434.27 1342.76 L1429.98 1342.76 L1429.98 1306.74 L1434.27 1306.74 L1434.27 1320.86 Q1435.79 1318.52 1437.85 1317.36 Q1439.94 1316.2 1442.65 1316.2 Q1447.11 1316.2 1449.41 1318.98 Q1451.7 1321.74 1451.7 1327.11 Z" fill="#000000" fill-rule="evenodd" fill-opacity="1" /><path clip-path="url(#clip400)" d="M1460.19 1316.83 L1464.45 1316.83 L1464.45 1342.76 L1460.19 1342.76 L1460.19 1316.83 M1460.19 1306.74 L1464.45 1306.74 L1464.45 1312.13 L1460.19 1312.13 L1460.19 1306.74 Z" fill="#000000" fill-rule="evenodd" fill-opacity="1" /><path clip-path="url(#clip400)" d="M1489.89 1317.59 L1489.89 1321.62 Q1488.09 1320.7 1486.14 1320.23 Q1484.2 1319.77 1482.11 1319.77 Q1478.94 1319.77 1477.34 1320.74 Q1475.77 1321.71 1475.77 1323.66 Q1475.77 1325.14 1476.9 1326 Q1478.04 1326.83 1481.47 1327.59 L1482.92 1327.92 Q1487.46 1328.89 1489.36 1330.67 Q1491.28 1332.43 1491.28 1335.6 Q1491.28 1339.21 1488.41 1341.32 Q1485.56 1343.43 1480.56 1343.43 Q1478.48 1343.43 1476.21 1343.01 Q1473.97 1342.62 1471.47 1341.81 L1471.47 1337.41 Q1473.83 1338.63 1476.12 1339.26 Q1478.41 1339.86 1480.65 1339.86 Q1483.66 1339.86 1485.28 1338.84 Q1486.9 1337.8 1486.9 1335.93 Q1486.9 1334.19 1485.72 1333.26 Q1484.57 1332.34 1480.61 1331.48 L1479.13 1331.14 Q1475.17 1330.3 1473.41 1328.59 Q1471.65 1326.85 1471.65 1323.84 Q1471.65 1320.19 1474.24 1318.2 Q1476.84 1316.2 1481.6 1316.2 Q1483.97 1316.2 1486.05 1316.55 Q1488.13 1316.9 1489.89 1317.59 Z" fill="#000000" fill-rule="evenodd" fill-opacity="1" /><path clip-path="url(#clip400)" d="M1513.32 1308.2 L1535.17 1308.2 L1535.17 1312.13 L1517.99 1312.13 L1517.99 1322.36 L1534.45 1322.36 L1534.45 1326.3 L1517.99 1326.3 L1517.99 1338.82 L1535.59 1338.82 L1535.59 1342.76 L1513.32 1342.76 L1513.32 1308.2 Z" fill="#000000" fill-rule="evenodd" fill-opacity="1" /><path clip-path="url(#clip400)" d="M1564.64 1316.83 L1555.26 1329.45 L1565.12 1342.76 L1560.1 1342.76 L1552.55 1332.57 L1545.01 1342.76 L1539.98 1342.76 L1550.05 1329.19 L1540.84 1316.83 L1545.86 1316.83 L1552.74 1326.07 L1559.61 1316.83 L1564.64 1316.83 Z" fill="#000000" fill-rule="evenodd" fill-opacity="1" /><path clip-path="url(#clip400)" d="M1582.92 1329.72 Q1577.76 1329.72 1575.77 1330.9 Q1573.78 1332.08 1573.78 1334.93 Q1573.78 1337.2 1575.26 1338.54 Q1576.77 1339.86 1579.33 1339.86 Q1582.88 1339.86 1585.01 1337.36 Q1587.16 1334.84 1587.16 1330.67 L1587.16 1329.72 L1582.92 1329.72 M1591.42 1327.96 L1591.42 1342.76 L1587.16 1342.76 L1587.16 1338.82 Q1585.7 1341.18 1583.52 1342.32 Q1581.35 1343.43 1578.2 1343.43 Q1574.22 1343.43 1571.86 1341.2 Q1569.52 1338.96 1569.52 1335.21 Q1569.52 1330.83 1572.44 1328.61 Q1575.38 1326.39 1581.19 1326.39 L1587.16 1326.39 L1587.16 1325.97 Q1587.16 1323.03 1585.21 1321.44 Q1583.29 1319.82 1579.8 1319.82 Q1577.58 1319.82 1575.47 1320.35 Q1573.36 1320.88 1571.42 1321.95 L1571.42 1318.01 Q1573.76 1317.11 1575.96 1316.67 Q1578.15 1316.2 1580.24 1316.2 Q1585.86 1316.2 1588.64 1319.12 Q1591.42 1322.04 1591.42 1327.96 Z" fill="#000000" fill-rule="evenodd" fill-opacity="1" /><path clip-path="url(#clip400)" d="M1620.38 1321.81 Q1621.97 1318.94 1624.2 1317.57 Q1626.42 1316.2 1629.43 1316.2 Q1633.48 1316.2 1635.68 1319.05 Q1637.88 1321.88 1637.88 1327.11 L1637.88 1342.76 L1633.59 1342.76 L1633.59 1327.25 Q1633.59 1323.52 1632.27 1321.71 Q1630.96 1319.91 1628.25 1319.91 Q1624.94 1319.91 1623.02 1322.11 Q1621.09 1324.31 1621.09 1328.1 L1621.09 1342.76 L1616.81 1342.76 L1616.81 1327.25 Q1616.81 1323.5 1615.49 1321.71 Q1614.17 1319.91 1611.42 1319.91 Q1608.15 1319.91 1606.23 1322.13 Q1604.31 1324.33 1604.31 1328.1 L1604.31 1342.76 L1600.03 1342.76 L1600.03 1316.83 L1604.31 1316.83 L1604.31 1320.86 Q1605.77 1318.47 1607.81 1317.34 Q1609.84 1316.2 1612.64 1316.2 Q1615.47 1316.2 1617.44 1317.64 Q1619.43 1319.07 1620.38 1321.81 Z" fill="#000000" fill-rule="evenodd" fill-opacity="1" /><path clip-path="url(#clip400)" d="M1650.49 1338.87 L1650.49 1352.62 L1646.21 1352.62 L1646.21 1316.83 L1650.49 1316.83 L1650.49 1320.76 Q1651.83 1318.45 1653.87 1317.34 Q1655.93 1316.2 1658.78 1316.2 Q1663.5 1316.2 1666.44 1319.95 Q1669.4 1323.7 1669.4 1329.82 Q1669.4 1335.93 1666.44 1339.68 Q1663.5 1343.43 1658.78 1343.43 Q1655.93 1343.43 1653.87 1342.32 Q1651.83 1341.18 1650.49 1338.87 M1664.98 1329.82 Q1664.98 1325.12 1663.04 1322.45 Q1661.12 1319.77 1657.74 1319.77 Q1654.36 1319.77 1652.41 1322.45 Q1650.49 1325.12 1650.49 1329.82 Q1650.49 1334.51 1652.41 1337.2 Q1654.36 1339.86 1657.74 1339.86 Q1661.12 1339.86 1663.04 1337.2 Q1664.98 1334.51 1664.98 1329.82 Z" fill="#000000" fill-rule="evenodd" fill-opacity="1" /><path clip-path="url(#clip400)" d="M1676.46 1306.74 L1680.72 1306.74 L1680.72 1342.76 L1676.46 1342.76 L1676.46 1306.74 Z" fill="#000000" fill-rule="evenodd" fill-opacity="1" /><path clip-path="url(#clip400)" d="M1711.81 1328.73 L1711.81 1330.81 L1692.23 1330.81 Q1692.51 1335.21 1694.87 1337.52 Q1697.25 1339.82 1701.49 1339.82 Q1703.94 1339.82 1706.23 1339.21 Q1708.55 1338.61 1710.82 1337.41 L1710.82 1341.44 Q1708.52 1342.41 1706.12 1342.92 Q1703.71 1343.43 1701.23 1343.43 Q1695.03 1343.43 1691.39 1339.82 Q1687.78 1336.2 1687.78 1330.05 Q1687.78 1323.68 1691.21 1319.95 Q1694.66 1316.2 1700.49 1316.2 Q1705.72 1316.2 1708.76 1319.58 Q1711.81 1322.94 1711.81 1328.73 M1707.55 1327.48 Q1707.51 1323.98 1705.58 1321.9 Q1703.69 1319.82 1700.54 1319.82 Q1696.97 1319.82 1694.82 1321.83 Q1692.69 1323.84 1692.37 1327.5 L1707.55 1327.48 Z" fill="#000000" fill-rule="evenodd" fill-opacity="1" /></svg>
