<?xml version="1.0" encoding="utf-8"?>
<svg xmlns="http://www.w3.org/2000/svg" xmlns:xlink="http://www.w3.org/1999/xlink" width="600" height="400" viewBox="0 0 2400 1600">
<defs>
  <clipPath id="clip710">
    <rect x="0" y="0" width="2400" height="1600"/>
  </clipPath>
</defs>
<path clip-path="url(#clip710)" d="
M0 1600 L2400 1600 L2400 0 L0 0  Z
  " fill="#ffffff" fill-rule="evenodd" fill-opacity="1"/>
<defs>
  <clipPath id="clip711">
    <rect x="480" y="0" width="1681" height="1600"/>
  </clipPath>
</defs>
<path clip-path="url(#clip710)" d="
M174.149 1423.18 L2049.76 1423.18 L2049.76 47.2441 L174.149 47.2441  Z
  " fill="#ffffff" fill-rule="evenodd" fill-opacity="1"/>
<defs>
  <clipPath id="clip712">
    <rect x="174" y="47" width="1877" height="1377"/>
  </clipPath>
</defs>
<polyline clip-path="url(#clip712)" style="stroke:#000000; stroke-linecap:butt; stroke-linejoin:round; stroke-width:2; stroke-opacity:0.1; fill:none" points="
  546.265,1423.18 546.265,47.2441 
  "/>
<polyline clip-path="url(#clip712)" style="stroke:#000000; stroke-linecap:butt; stroke-linejoin:round; stroke-width:2; stroke-opacity:0.1; fill:none" points="
  922.14,1423.18 922.14,47.2441 
  "/>
<polyline clip-path="url(#clip712)" style="stroke:#000000; stroke-linecap:butt; stroke-linejoin:round; stroke-width:2; stroke-opacity:0.1; fill:none" points="
  1298.01,1423.18 1298.01,47.2441 
  "/>
<polyline clip-path="url(#clip712)" style="stroke:#000000; stroke-linecap:butt; stroke-linejoin:round; stroke-width:2; stroke-opacity:0.1; fill:none" points="
  1673.89,1423.18 1673.89,47.2441 
  "/>
<polyline clip-path="url(#clip712)" style="stroke:#000000; stroke-linecap:butt; stroke-linejoin:round; stroke-width:2; stroke-opacity:0.1; fill:none" points="
  2049.76,1423.18 2049.76,47.2441 
  "/>
<polyline clip-path="url(#clip710)" style="stroke:#000000; stroke-linecap:butt; stroke-linejoin:round; stroke-width:4; stroke-opacity:1; fill:none" points="
  174.149,1423.18 2049.76,1423.18 
  "/>
<polyline clip-path="url(#clip710)" style="stroke:#000000; stroke-linecap:butt; stroke-linejoin:round; stroke-width:4; stroke-opacity:1; fill:none" points="
  546.265,1423.18 546.265,1406.67 
  "/>
<polyline clip-path="url(#clip710)" style="stroke:#000000; stroke-linecap:butt; stroke-linejoin:round; stroke-width:4; stroke-opacity:1; fill:none" points="
  922.14,1423.18 922.14,1406.67 
  "/>
<polyline clip-path="url(#clip710)" style="stroke:#000000; stroke-linecap:butt; stroke-linejoin:round; stroke-width:4; stroke-opacity:1; fill:none" points="
  1298.01,1423.18 1298.01,1406.67 
  "/>
<polyline clip-path="url(#clip710)" style="stroke:#000000; stroke-linecap:butt; stroke-linejoin:round; stroke-width:4; stroke-opacity:1; fill:none" points="
  1673.89,1423.18 1673.89,1406.67 
  "/>
<polyline clip-path="url(#clip710)" style="stroke:#000000; stroke-linecap:butt; stroke-linejoin:round; stroke-width:4; stroke-opacity:1; fill:none" points="
  2049.76,1423.18 2049.76,1406.67 
  "/>
<path clip-path="url(#clip710)" d="M536.647 1479.92 L544.286 1479.92 L544.286 1453.55 L535.976 1455.22 L535.976 1450.96 L544.239 1449.29 L548.915 1449.29 L548.915 1479.92 L556.554 1479.92 L556.554 1483.85 L536.647 1483.85 L536.647 1479.92 Z" fill="#000000" fill-rule="evenodd" fill-opacity="1" /><path clip-path="url(#clip710)" d="M916.792 1479.92 L933.112 1479.92 L933.112 1483.85 L911.167 1483.85 L911.167 1479.92 Q913.829 1477.16 918.413 1472.53 Q923.019 1467.88 924.2 1466.54 Q926.445 1464.01 927.325 1462.28 Q928.228 1460.52 928.228 1458.83 Q928.228 1456.07 926.283 1454.34 Q924.362 1452.6 921.26 1452.6 Q919.061 1452.6 916.607 1453.37 Q914.177 1454.13 911.399 1455.68 L911.399 1450.96 Q914.223 1449.82 916.677 1449.25 Q919.13 1448.67 921.167 1448.67 Q926.538 1448.67 929.732 1451.35 Q932.927 1454.04 932.927 1458.53 Q932.927 1460.66 932.116 1462.58 Q931.329 1464.48 929.223 1467.07 Q928.644 1467.74 925.542 1470.96 Q922.441 1474.15 916.792 1479.92 Z" fill="#000000" fill-rule="evenodd" fill-opacity="1" /><path clip-path="url(#clip710)" d="M1302.26 1465.22 Q1305.62 1465.94 1307.49 1468.2 Q1309.39 1470.47 1309.39 1473.81 Q1309.39 1478.92 1305.87 1481.72 Q1302.35 1484.52 1295.87 1484.52 Q1293.7 1484.52 1291.38 1484.08 Q1289.09 1483.67 1286.64 1482.81 L1286.64 1478.3 Q1288.58 1479.43 1290.9 1480.01 Q1293.21 1480.59 1295.73 1480.59 Q1300.13 1480.59 1302.42 1478.85 Q1304.74 1477.12 1304.74 1473.81 Q1304.74 1470.75 1302.59 1469.04 Q1300.46 1467.3 1296.64 1467.3 L1292.61 1467.3 L1292.61 1463.46 L1296.82 1463.46 Q1300.27 1463.46 1302.1 1462.09 Q1303.93 1460.7 1303.93 1458.11 Q1303.93 1455.45 1302.03 1454.04 Q1300.16 1452.6 1296.64 1452.6 Q1294.72 1452.6 1292.52 1453.02 Q1290.32 1453.44 1287.68 1454.31 L1287.68 1450.15 Q1290.34 1449.41 1292.66 1449.04 Q1294.99 1448.67 1297.05 1448.67 Q1302.38 1448.67 1305.48 1451.1 Q1308.58 1453.5 1308.58 1457.63 Q1308.58 1460.5 1306.94 1462.49 Q1305.29 1464.45 1302.26 1465.22 Z" fill="#000000" fill-rule="evenodd" fill-opacity="1" /><path clip-path="url(#clip710)" d="M1676.9 1453.37 L1665.09 1471.81 L1676.9 1471.81 L1676.9 1453.37 M1675.67 1449.29 L1681.55 1449.29 L1681.55 1471.81 L1686.48 1471.81 L1686.48 1475.7 L1681.55 1475.7 L1681.55 1483.85 L1676.9 1483.85 L1676.9 1475.7 L1661.3 1475.7 L1661.3 1471.19 L1675.67 1449.29 Z" fill="#000000" fill-rule="evenodd" fill-opacity="1" /><path clip-path="url(#clip710)" d="M2040.04 1449.29 L2058.4 1449.29 L2058.4 1453.23 L2044.32 1453.23 L2044.32 1461.7 Q2045.34 1461.35 2046.36 1461.19 Q2047.38 1461 2048.4 1461 Q2054.19 1461 2057.56 1464.18 Q2060.94 1467.35 2060.94 1472.76 Q2060.94 1478.34 2057.47 1481.44 Q2054 1484.52 2047.68 1484.52 Q2045.5 1484.52 2043.24 1484.15 Q2040.99 1483.78 2038.58 1483.04 L2038.58 1478.34 Q2040.67 1479.48 2042.89 1480.03 Q2045.11 1480.59 2047.59 1480.59 Q2051.59 1480.59 2053.93 1478.48 Q2056.27 1476.38 2056.27 1472.76 Q2056.27 1469.15 2053.93 1467.05 Q2051.59 1464.94 2047.59 1464.94 Q2045.71 1464.94 2043.84 1465.36 Q2041.99 1465.77 2040.04 1466.65 L2040.04 1449.29 Z" fill="#000000" fill-rule="evenodd" fill-opacity="1" /><path clip-path="url(#clip710)" d="M754.013 1525.81 L754.013 1562.76 L761.779 1562.76 Q771.614 1562.76 776.165 1558.3 Q780.749 1553.85 780.749 1544.24 Q780.749 1534.69 776.165 1530.26 Q771.614 1525.81 761.779 1525.81 L754.013 1525.81 M747.583 1520.52 L760.792 1520.52 Q774.606 1520.52 781.067 1526.28 Q787.528 1532.01 787.528 1544.24 Q787.528 1556.52 781.035 1562.28 Q774.542 1568.04 760.792 1568.04 L747.583 1568.04 L747.583 1520.52 Z" fill="#000000" fill-rule="evenodd" fill-opacity="1" /><path clip-path="url(#clip710)" d="M811.336 1536.5 Q806.625 1536.5 803.888 1540.19 Q801.151 1543.85 801.151 1550.25 Q801.151 1556.65 803.856 1560.34 Q806.593 1564 811.336 1564 Q816.015 1564 818.752 1560.31 Q821.489 1556.62 821.489 1550.25 Q821.489 1543.92 818.752 1540.23 Q816.015 1536.5 811.336 1536.5 M811.336 1531.54 Q818.975 1531.54 823.335 1536.5 Q827.696 1541.47 827.696 1550.25 Q827.696 1559 823.335 1564 Q818.975 1568.97 811.336 1568.97 Q803.665 1568.97 799.305 1564 Q794.976 1559 794.976 1550.25 Q794.976 1541.47 799.305 1536.5 Q803.665 1531.54 811.336 1531.54 Z" fill="#000000" fill-rule="evenodd" fill-opacity="1" /><path clip-path="url(#clip710)" d="M833.998 1532.4 L839.854 1532.4 L847.175 1560.21 L854.464 1532.4 L861.37 1532.4 L868.691 1560.21 L875.98 1532.4 L881.836 1532.4 L872.51 1568.04 L865.604 1568.04 L857.933 1538.83 L850.23 1568.04 L843.324 1568.04 L833.998 1532.4 Z" fill="#000000" fill-rule="evenodd" fill-opacity="1" /><path clip-path="url(#clip710)" d="M920.349 1546.53 L920.349 1568.04 L914.492 1568.04 L914.492 1546.72 Q914.492 1541.66 912.519 1539.14 Q910.545 1536.63 906.599 1536.63 Q901.856 1536.63 899.119 1539.65 Q896.382 1542.68 896.382 1547.9 L896.382 1568.04 L890.493 1568.04 L890.493 1532.4 L896.382 1532.4 L896.382 1537.93 Q898.482 1534.72 901.315 1533.13 Q904.18 1531.54 907.904 1531.54 Q914.047 1531.54 917.198 1535.36 Q920.349 1539.14 920.349 1546.53 Z" fill="#000000" fill-rule="evenodd" fill-opacity="1" /><path clip-path="url(#clip710)" d="M928.624 1532.4 L934.48 1532.4 L941.801 1560.21 L949.09 1532.4 L955.997 1532.4 L963.317 1560.21 L970.606 1532.4 L976.462 1532.4 L967.137 1568.04 L960.23 1568.04 L952.559 1538.83 L944.857 1568.04 L937.95 1568.04 L928.624 1532.4 Z" fill="#000000" fill-rule="evenodd" fill-opacity="1" /><path clip-path="url(#clip710)" d="M985.342 1532.4 L991.199 1532.4 L991.199 1568.04 L985.342 1568.04 L985.342 1532.4 M985.342 1518.52 L991.199 1518.52 L991.199 1525.93 L985.342 1525.93 L985.342 1518.52 Z" fill="#000000" fill-rule="evenodd" fill-opacity="1" /><path clip-path="url(#clip710)" d="M1033.09 1546.53 L1033.09 1568.04 L1027.23 1568.04 L1027.23 1546.72 Q1027.23 1541.66 1025.26 1539.14 Q1023.28 1536.63 1019.34 1536.63 Q1014.59 1536.63 1011.86 1539.65 Q1009.12 1542.68 1009.12 1547.9 L1009.12 1568.04 L1003.23 1568.04 L1003.23 1532.4 L1009.12 1532.4 L1009.12 1537.93 Q1011.22 1534.72 1014.05 1533.13 Q1016.92 1531.54 1020.64 1531.54 Q1026.78 1531.54 1029.93 1535.36 Q1033.09 1539.14 1033.09 1546.53 Z" fill="#000000" fill-rule="evenodd" fill-opacity="1" /><path clip-path="url(#clip710)" d="M1068.22 1537.81 L1068.22 1518.52 L1074.08 1518.52 L1074.08 1568.04 L1068.22 1568.04 L1068.22 1562.7 Q1066.38 1565.88 1063.55 1567.44 Q1060.74 1568.97 1056.8 1568.97 Q1050.34 1568.97 1046.26 1563.81 Q1042.22 1558.65 1042.22 1550.25 Q1042.22 1541.85 1046.26 1536.69 Q1050.34 1531.54 1056.8 1531.54 Q1060.74 1531.54 1063.55 1533.1 Q1066.38 1534.62 1068.22 1537.81 M1048.27 1550.25 Q1048.27 1556.71 1050.91 1560.4 Q1053.58 1564.07 1058.23 1564.07 Q1062.88 1564.07 1065.55 1560.4 Q1068.22 1556.71 1068.22 1550.25 Q1068.22 1543.79 1065.55 1540.13 Q1062.88 1536.44 1058.23 1536.44 Q1053.58 1536.44 1050.91 1540.13 Q1048.27 1543.79 1048.27 1550.25 Z" fill="#000000" fill-rule="evenodd" fill-opacity="1" /><path clip-path="url(#clip710)" d="M1130.32 1537.81 L1130.32 1518.52 L1136.18 1518.52 L1136.18 1568.04 L1130.32 1568.04 L1130.32 1562.7 Q1128.48 1565.88 1125.64 1567.44 Q1122.84 1568.97 1118.89 1568.97 Q1112.43 1568.97 1108.36 1563.81 Q1104.32 1558.65 1104.32 1550.25 Q1104.32 1541.85 1108.36 1536.69 Q1112.43 1531.54 1118.89 1531.54 Q1122.84 1531.54 1125.64 1533.1 Q1128.48 1534.62 1130.32 1537.81 M1110.36 1550.25 Q1110.36 1556.71 1113.01 1560.4 Q1115.68 1564.07 1120.33 1564.07 Q1124.97 1564.07 1127.65 1560.4 Q1130.32 1556.71 1130.32 1550.25 Q1130.32 1543.79 1127.65 1540.13 Q1124.97 1536.44 1120.33 1536.44 Q1115.68 1536.44 1113.01 1540.13 Q1110.36 1543.79 1110.36 1550.25 Z" fill="#000000" fill-rule="evenodd" fill-opacity="1" /><path clip-path="url(#clip710)" d="M1148.24 1532.4 L1154.1 1532.4 L1154.1 1568.04 L1148.24 1568.04 L1148.24 1532.4 M1148.24 1518.52 L1154.1 1518.52 L1154.1 1525.93 L1148.24 1525.93 L1148.24 1518.52 Z" fill="#000000" fill-rule="evenodd" fill-opacity="1" /><path clip-path="url(#clip710)" d="M1189.08 1533.45 L1189.08 1538.98 Q1186.59 1537.71 1183.92 1537.07 Q1181.25 1536.44 1178.38 1536.44 Q1174.02 1536.44 1171.83 1537.77 Q1169.66 1539.11 1169.66 1541.79 Q1169.66 1543.82 1171.22 1545 Q1172.78 1546.15 1177.49 1547.2 L1179.5 1547.64 Q1185.73 1548.98 1188.34 1551.43 Q1190.99 1553.85 1190.99 1558.21 Q1190.99 1563.17 1187.04 1566.07 Q1183.12 1568.97 1176.25 1568.97 Q1173.39 1568.97 1170.27 1568.39 Q1167.18 1567.85 1163.74 1566.74 L1163.74 1560.69 Q1166.99 1562.38 1170.14 1563.24 Q1173.29 1564.07 1176.38 1564.07 Q1180.52 1564.07 1182.74 1562.66 Q1184.97 1561.23 1184.97 1558.65 Q1184.97 1556.27 1183.35 1554.99 Q1181.76 1553.72 1176.31 1552.54 L1174.28 1552.07 Q1168.83 1550.92 1166.41 1548.56 Q1164 1546.18 1164 1542.04 Q1164 1537.01 1167.56 1534.27 Q1171.13 1531.54 1177.68 1531.54 Q1180.93 1531.54 1183.79 1532.01 Q1186.66 1532.49 1189.08 1533.45 Z" fill="#000000" fill-rule="evenodd" fill-opacity="1" /><path clip-path="url(#clip710)" d="M1206.11 1522.27 L1206.11 1532.4 L1218.17 1532.4 L1218.17 1536.95 L1206.11 1536.95 L1206.11 1556.3 Q1206.11 1560.66 1207.28 1561.9 Q1208.49 1563.14 1212.15 1563.14 L1218.17 1563.14 L1218.17 1568.04 L1212.15 1568.04 Q1205.37 1568.04 1202.79 1565.53 Q1200.22 1562.98 1200.22 1556.3 L1200.22 1536.95 L1195.92 1536.95 L1195.92 1532.4 L1200.22 1532.4 L1200.22 1522.27 L1206.11 1522.27 Z" fill="#000000" fill-rule="evenodd" fill-opacity="1" /><path clip-path="url(#clip710)" d="M1242.07 1550.12 Q1234.97 1550.12 1232.24 1551.75 Q1229.5 1553.37 1229.5 1557.29 Q1229.5 1560.4 1231.54 1562.25 Q1233.61 1564.07 1237.14 1564.07 Q1242.01 1564.07 1244.94 1560.63 Q1247.9 1557.16 1247.9 1551.43 L1247.9 1550.12 L1242.07 1550.12 M1253.75 1547.71 L1253.75 1568.04 L1247.9 1568.04 L1247.9 1562.63 Q1245.89 1565.88 1242.9 1567.44 Q1239.91 1568.97 1235.58 1568.97 Q1230.1 1568.97 1226.86 1565.91 Q1223.64 1562.82 1223.64 1557.67 Q1223.64 1551.65 1227.65 1548.6 Q1231.7 1545.54 1239.68 1545.54 L1247.9 1545.54 L1247.9 1544.97 Q1247.9 1540.93 1245.22 1538.73 Q1242.58 1536.5 1237.77 1536.5 Q1234.72 1536.5 1231.82 1537.23 Q1228.93 1537.97 1226.25 1539.43 L1226.25 1534.02 Q1229.47 1532.78 1232.49 1532.17 Q1235.51 1531.54 1238.38 1531.54 Q1246.11 1531.54 1249.93 1535.55 Q1253.75 1539.56 1253.75 1547.71 Z" fill="#000000" fill-rule="evenodd" fill-opacity="1" /><path clip-path="url(#clip710)" d="M1295.45 1546.53 L1295.45 1568.04 L1289.59 1568.04 L1289.59 1546.72 Q1289.59 1541.66 1287.62 1539.14 Q1285.64 1536.63 1281.7 1536.63 Q1276.96 1536.63 1274.22 1539.65 Q1271.48 1542.68 1271.48 1547.9 L1271.48 1568.04 L1265.59 1568.04 L1265.59 1532.4 L1271.48 1532.4 L1271.48 1537.93 Q1273.58 1534.72 1276.41 1533.13 Q1279.28 1531.54 1283 1531.54 Q1289.15 1531.54 1292.3 1535.36 Q1295.45 1539.14 1295.45 1546.53 Z" fill="#000000" fill-rule="evenodd" fill-opacity="1" /><path clip-path="url(#clip710)" d="M1332.78 1533.76 L1332.78 1539.24 Q1330.3 1537.87 1327.79 1537.2 Q1325.3 1536.5 1322.76 1536.5 Q1317.06 1536.5 1313.91 1540.13 Q1310.76 1543.73 1310.76 1550.25 Q1310.76 1556.78 1313.91 1560.4 Q1317.06 1564 1322.76 1564 Q1325.3 1564 1327.79 1563.33 Q1330.3 1562.63 1332.78 1561.26 L1332.78 1566.68 Q1330.33 1567.82 1327.69 1568.39 Q1325.08 1568.97 1322.12 1568.97 Q1314.07 1568.97 1309.33 1563.91 Q1304.58 1558.85 1304.58 1550.25 Q1304.58 1541.53 1309.36 1536.53 Q1314.16 1531.54 1322.5 1531.54 Q1325.21 1531.54 1327.79 1532.11 Q1330.36 1532.65 1332.78 1533.76 Z" fill="#000000" fill-rule="evenodd" fill-opacity="1" /><path clip-path="url(#clip710)" d="M1373.46 1548.76 L1373.46 1551.62 L1346.53 1551.62 Q1346.91 1557.67 1350.16 1560.85 Q1353.44 1564 1359.26 1564 Q1362.64 1564 1365.79 1563.17 Q1368.97 1562.35 1372.09 1560.69 L1372.09 1566.23 Q1368.94 1567.57 1365.63 1568.27 Q1362.32 1568.97 1358.91 1568.97 Q1350.38 1568.97 1345.39 1564 Q1340.42 1559.04 1340.42 1550.57 Q1340.42 1541.82 1345.13 1536.69 Q1349.87 1531.54 1357.9 1531.54 Q1365.09 1531.54 1369.26 1536.18 Q1373.46 1540.8 1373.46 1548.76 M1367.6 1547.04 Q1367.54 1542.23 1364.9 1539.37 Q1362.29 1536.5 1357.96 1536.5 Q1353.06 1536.5 1350.1 1539.27 Q1347.17 1542.04 1346.72 1547.07 L1367.6 1547.04 Z" fill="#000000" fill-rule="evenodd" fill-opacity="1" /><path clip-path="url(#clip710)" d="M1384.57 1559.96 L1391.28 1559.96 L1391.28 1565.43 L1386.06 1575.62 L1381.96 1575.62 L1384.57 1565.43 L1384.57 1559.96 Z" fill="#000000" fill-rule="evenodd" fill-opacity="1" /><path clip-path="url(#clip710)" d="M1452.27 1539.24 Q1454.46 1535.29 1457.52 1533.41 Q1460.57 1531.54 1464.71 1531.54 Q1470.28 1531.54 1473.31 1535.45 Q1476.33 1539.33 1476.33 1546.53 L1476.33 1568.04 L1470.44 1568.04 L1470.44 1546.72 Q1470.44 1541.59 1468.63 1539.11 Q1466.81 1536.63 1463.09 1536.63 Q1458.54 1536.63 1455.9 1539.65 Q1453.25 1542.68 1453.25 1547.9 L1453.25 1568.04 L1447.37 1568.04 L1447.37 1546.72 Q1447.37 1541.56 1445.55 1539.11 Q1443.74 1536.63 1439.95 1536.63 Q1435.46 1536.63 1432.82 1539.68 Q1430.18 1542.71 1430.18 1547.9 L1430.18 1568.04 L1424.29 1568.04 L1424.29 1532.4 L1430.18 1532.4 L1430.18 1537.93 Q1432.18 1534.66 1434.98 1533.1 Q1437.79 1531.54 1441.64 1531.54 Q1445.52 1531.54 1448.22 1533.51 Q1450.96 1535.48 1452.27 1539.24 Z" fill="#000000" fill-rule="evenodd" fill-opacity="1" /><polyline clip-path="url(#clip712)" style="stroke:#000000; stroke-linecap:butt; stroke-linejoin:round; stroke-width:2; stroke-opacity:0.1; fill:none" points="
  174.149,1423.18 2049.76,1423.18 
  "/>
<polyline clip-path="url(#clip712)" style="stroke:#000000; stroke-linecap:butt; stroke-linejoin:round; stroke-width:2; stroke-opacity:0.1; fill:none" points="
  174.149,964.535 2049.76,964.535 
  "/>
<polyline clip-path="url(#clip712)" style="stroke:#000000; stroke-linecap:butt; stroke-linejoin:round; stroke-width:2; stroke-opacity:0.1; fill:none" points="
  174.149,505.889 2049.76,505.889 
  "/>
<polyline clip-path="url(#clip712)" style="stroke:#000000; stroke-linecap:butt; stroke-linejoin:round; stroke-width:2; stroke-opacity:0.1; fill:none" points="
  174.149,47.2441 2049.76,47.2441 
  "/>
<polyline clip-path="url(#clip710)" style="stroke:#000000; stroke-linecap:butt; stroke-linejoin:round; stroke-width:4; stroke-opacity:1; fill:none" points="
  174.149,1423.18 174.149,47.2441 
  "/>
<polyline clip-path="url(#clip710)" style="stroke:#000000; stroke-linecap:butt; stroke-linejoin:round; stroke-width:4; stroke-opacity:1; fill:none" points="
  174.149,1423.18 196.656,1423.18 
  "/>
<polyline clip-path="url(#clip710)" style="stroke:#000000; stroke-linecap:butt; stroke-linejoin:round; stroke-width:4; stroke-opacity:1; fill:none" points="
  174.149,964.535 196.656,964.535 
  "/>
<polyline clip-path="url(#clip710)" style="stroke:#000000; stroke-linecap:butt; stroke-linejoin:round; stroke-width:4; stroke-opacity:1; fill:none" points="
  174.149,505.889 196.656,505.889 
  "/>
<polyline clip-path="url(#clip710)" style="stroke:#000000; stroke-linecap:butt; stroke-linejoin:round; stroke-width:4; stroke-opacity:1; fill:none" points="
  174.149,47.2441 196.656,47.2441 
  "/>
<path clip-path="url(#clip710)" d="M126.205 1408.98 Q122.593 1408.98 120.765 1412.54 Q118.959 1416.08 118.959 1423.21 Q118.959 1430.32 120.765 1433.89 Q122.593 1437.43 126.205 1437.43 Q129.839 1437.43 131.644 1433.89 Q133.473 1430.32 133.473 1423.21 Q133.473 1416.08 131.644 1412.54 Q129.839 1408.98 126.205 1408.98 M126.205 1405.27 Q132.015 1405.27 135.07 1409.88 Q138.149 1414.46 138.149 1423.21 Q138.149 1431.94 135.07 1436.55 Q132.015 1441.13 126.205 1441.13 Q120.394 1441.13 117.316 1436.55 Q114.26 1431.94 114.26 1423.21 Q114.26 1414.46 117.316 1409.88 Q120.394 1405.27 126.205 1405.27 Z" fill="#000000" fill-rule="evenodd" fill-opacity="1" /><path clip-path="url(#clip710)" d="M118.242 977.879 L125.88 977.879 L125.88 951.514 L117.57 953.18 L117.57 948.921 L125.834 947.255 L130.51 947.255 L130.51 977.879 L138.149 977.879 L138.149 981.815 L118.242 981.815 L118.242 977.879 Z" fill="#000000" fill-rule="evenodd" fill-opacity="1" /><path clip-path="url(#clip710)" d="M121.83 519.234 L138.149 519.234 L138.149 523.169 L116.205 523.169 L116.205 519.234 Q118.867 516.48 123.45 511.85 Q128.056 507.197 129.237 505.855 Q131.482 503.331 132.362 501.595 Q133.265 499.836 133.265 498.146 Q133.265 495.392 131.32 493.656 Q129.399 491.92 126.297 491.92 Q124.098 491.92 121.644 492.683 Q119.214 493.447 116.436 494.998 L116.436 490.276 Q119.26 489.142 121.714 488.563 Q124.168 487.984 126.205 487.984 Q131.575 487.984 134.769 490.67 Q137.964 493.355 137.964 497.845 Q137.964 499.975 137.154 501.896 Q136.367 503.794 134.26 506.387 Q133.681 507.058 130.58 510.276 Q127.478 513.47 121.83 519.234 Z" fill="#000000" fill-rule="evenodd" fill-opacity="1" /><path clip-path="url(#clip710)" d="M131.019 45.8899 Q134.376 46.6075 136.251 48.876 Q138.149 51.1445 138.149 54.4779 Q138.149 59.5936 134.63 62.3945 Q131.112 65.1954 124.63 65.1954 Q122.455 65.1954 120.14 64.7556 Q117.848 64.3389 115.394 63.4824 L115.394 58.9686 Q117.339 60.1028 119.654 60.6815 Q121.968 61.2602 124.492 61.2602 Q128.89 61.2602 131.181 59.5241 Q133.496 57.788 133.496 54.4779 Q133.496 51.4223 131.343 49.7094 Q129.214 47.9733 125.394 47.9733 L121.367 47.9733 L121.367 44.1307 L125.58 44.1307 Q129.029 44.1307 130.857 42.765 Q132.686 41.3761 132.686 38.7835 Q132.686 36.1215 130.788 34.7094 Q128.913 33.2743 125.394 33.2743 Q123.473 33.2743 121.274 33.6909 Q119.075 34.1076 116.436 34.9872 L116.436 30.8206 Q119.098 30.0798 121.413 29.7095 Q123.751 29.3391 125.811 29.3391 Q131.135 29.3391 134.237 31.7696 Q137.339 34.177 137.339 38.2974 Q137.339 41.1677 135.695 43.1585 Q134.052 45.1261 131.019 45.8899 Z" fill="#000000" fill-rule="evenodd" fill-opacity="1" /><path clip-path="url(#clip710)" d="M64.0042 1036.98 L16.4842 1055.12 L16.4842 1048.4 L56.4926 1033.35 L16.4842 1018.26 L16.4842 1011.58 L64.0042 1029.69 L64.0042 1036.98 Z" fill="#000000" fill-rule="evenodd" fill-opacity="1" /><path clip-path="url(#clip710)" d="M44.7161 979.464 L47.5806 979.464 L47.5806 1006.39 Q53.6281 1006.01 56.8109 1002.76 Q59.9619 999.484 59.9619 993.66 Q59.9619 990.286 59.1344 987.135 Q58.3069 983.952 56.6518 980.833 L62.1899 980.833 Q63.5267 983.984 64.227 987.294 Q64.9272 990.604 64.9272 994.01 Q64.9272 1002.54 59.9619 1007.54 Q54.9967 1012.5 46.5303 1012.5 Q37.7774 1012.5 32.6531 1007.79 Q27.4968 1003.05 27.4968 995.028 Q27.4968 987.835 32.1438 983.665 Q36.7589 979.464 44.7161 979.464 M42.9973 985.321 Q38.1912 985.384 35.3266 988.026 Q32.4621 990.636 32.4621 994.965 Q32.4621 999.866 35.2312 1002.83 Q38.0002 1005.75 43.0292 1006.2 L42.9973 985.321 Z" fill="#000000" fill-rule="evenodd" fill-opacity="1" /><path clip-path="url(#clip710)" d="M33.8307 949.195 Q33.2578 950.182 33.0032 951.36 Q32.7167 952.505 32.7167 953.906 Q32.7167 958.871 35.9632 961.545 Q39.1779 964.186 45.2253 964.186 L64.0042 964.186 L64.0042 970.075 L28.3562 970.075 L28.3562 964.186 L33.8944 964.186 Q30.6479 962.34 29.0883 959.38 Q27.4968 956.42 27.4968 952.187 Q27.4968 951.582 27.5923 950.85 Q27.656 950.118 27.8151 949.227 L33.8307 949.195 Z" fill="#000000" fill-rule="evenodd" fill-opacity="1" /><path clip-path="url(#clip710)" d="M18.2347 937.259 L28.3562 937.259 L28.3562 925.196 L32.9077 925.196 L32.9077 937.259 L52.2594 937.259 Q56.6199 937.259 57.8613 936.082 Q59.1026 934.872 59.1026 931.212 L59.1026 925.196 L64.0042 925.196 L64.0042 931.212 Q64.0042 937.992 61.4897 940.57 Q58.9434 943.148 52.2594 943.148 L32.9077 943.148 L32.9077 947.445 L28.3562 947.445 L28.3562 943.148 L18.2347 943.148 L18.2347 937.259 Z" fill="#000000" fill-rule="evenodd" fill-opacity="1" /><path clip-path="url(#clip710)" d="M28.3562 917.494 L28.3562 911.638 L64.0042 911.638 L64.0042 917.494 L28.3562 917.494 M14.479 917.494 L14.479 911.638 L21.895 911.638 L21.895 917.494 L14.479 917.494 Z" fill="#000000" fill-rule="evenodd" fill-opacity="1" /><path clip-path="url(#clip710)" d="M29.7248 873.73 L35.1993 873.73 Q33.8307 876.212 33.1623 878.727 Q32.4621 881.209 32.4621 883.756 Q32.4621 889.453 36.0905 892.604 Q39.6872 895.755 46.212 895.755 Q52.7369 895.755 56.3653 892.604 Q59.9619 889.453 59.9619 883.756 Q59.9619 881.209 59.2935 878.727 Q58.5933 876.212 57.2247 873.73 L62.6355 873.73 Q63.7814 876.181 64.3543 878.822 Q64.9272 881.432 64.9272 884.392 Q64.9272 892.445 59.8664 897.187 Q54.8057 901.93 46.212 901.93 Q37.491 901.93 32.4939 897.156 Q27.4968 892.349 27.4968 884.01 Q27.4968 881.305 28.0697 878.727 Q28.6108 876.149 29.7248 873.73 Z" fill="#000000" fill-rule="evenodd" fill-opacity="1" /><path clip-path="url(#clip710)" d="M46.0847 847.344 Q46.0847 854.442 47.7079 857.179 Q49.3312 859.916 53.2461 859.916 Q56.3653 859.916 58.2114 857.879 Q60.0256 855.81 60.0256 852.277 Q60.0256 847.408 56.5881 844.479 Q53.1188 841.519 47.3897 841.519 L46.0847 841.519 L46.0847 847.344 M43.6657 835.663 L64.0042 835.663 L64.0042 841.519 L58.5933 841.519 Q61.8398 843.524 63.3994 846.516 Q64.9272 849.508 64.9272 853.837 Q64.9272 859.311 61.8716 862.558 Q58.7843 865.773 53.6281 865.773 Q47.6125 865.773 44.5569 861.762 Q41.5014 857.72 41.5014 849.731 L41.5014 841.519 L40.9285 841.519 Q36.8862 841.519 34.6901 844.193 Q32.4621 846.835 32.4621 851.641 Q32.4621 854.696 33.1941 857.593 Q33.9262 860.489 35.3903 863.163 L29.9795 863.163 Q28.7381 859.948 28.1334 856.924 Q27.4968 853.901 27.4968 851.036 Q27.4968 843.302 31.5072 839.482 Q35.5176 835.663 43.6657 835.663 Z" fill="#000000" fill-rule="evenodd" fill-opacity="1" /><path clip-path="url(#clip710)" d="M14.479 823.6 L14.479 817.743 L64.0042 817.743 L64.0042 823.6 L14.479 823.6 Z" fill="#000000" fill-rule="evenodd" fill-opacity="1" /><path clip-path="url(#clip710)" d="M33.7671 761.311 L14.479 761.311 L14.479 755.455 L64.0042 755.455 L64.0042 761.311 L58.657 761.311 Q61.8398 763.157 63.3994 765.99 Q64.9272 768.791 64.9272 772.738 Q64.9272 779.199 59.771 783.273 Q54.6147 787.315 46.212 787.315 Q37.8093 787.315 32.6531 783.273 Q27.4968 779.199 27.4968 772.738 Q27.4968 768.791 29.0564 765.99 Q30.5842 763.157 33.7671 761.311 M46.212 781.268 Q52.6732 781.268 56.3653 778.626 Q60.0256 775.952 60.0256 771.306 Q60.0256 766.659 56.3653 763.985 Q52.6732 761.311 46.212 761.311 Q39.7508 761.311 36.0905 763.985 Q32.3984 766.659 32.3984 771.306 Q32.3984 775.952 36.0905 778.626 Q39.7508 781.268 46.212 781.268 Z" fill="#000000" fill-rule="evenodd" fill-opacity="1" /><path clip-path="url(#clip710)" d="M28.3562 743.392 L28.3562 737.535 L64.0042 737.535 L64.0042 743.392 L28.3562 743.392 M14.479 743.392 L14.479 737.535 L21.895 737.535 L21.895 743.392 L14.479 743.392 Z" fill="#000000" fill-rule="evenodd" fill-opacity="1" /><path clip-path="url(#clip710)" d="M29.4065 702.556 L34.9447 702.556 Q33.6716 705.039 33.035 707.712 Q32.3984 710.386 32.3984 713.25 Q32.3984 717.611 33.7352 719.807 Q35.072 721.971 37.7456 721.971 Q39.7826 721.971 40.9603 720.412 Q42.1061 718.852 43.1565 714.141 L43.6021 712.136 Q44.9389 705.898 47.3897 703.288 Q49.8086 700.646 54.1691 700.646 Q59.1344 700.646 62.0308 704.593 Q64.9272 708.508 64.9272 715.383 Q64.9272 718.247 64.3543 721.367 Q63.8132 724.454 62.6992 727.891 L56.6518 727.891 Q58.3387 724.645 59.198 721.494 Q60.0256 718.343 60.0256 715.255 Q60.0256 711.118 58.6251 708.89 Q57.1929 706.662 54.6147 706.662 Q52.2276 706.662 50.9545 708.285 Q49.6813 709.876 48.5037 715.319 L48.0262 717.356 Q46.8804 722.799 44.5251 725.218 Q42.138 727.637 38.0002 727.637 Q32.9713 727.637 30.2341 724.072 Q27.4968 720.507 27.4968 713.951 Q27.4968 710.704 27.9743 707.839 Q28.4517 704.975 29.4065 702.556 Z" fill="#000000" fill-rule="evenodd" fill-opacity="1" /><path clip-path="url(#clip710)" d="M18.2347 685.528 L28.3562 685.528 L28.3562 673.465 L32.9077 673.465 L32.9077 685.528 L52.2594 685.528 Q56.6199 685.528 57.8613 684.35 Q59.1026 683.14 59.1026 679.48 L59.1026 673.465 L64.0042 673.465 L64.0042 679.48 Q64.0042 686.26 61.4897 688.838 Q58.9434 691.416 52.2594 691.416 L32.9077 691.416 L32.9077 695.713 L28.3562 695.713 L28.3562 691.416 L18.2347 691.416 L18.2347 685.528 Z" fill="#000000" fill-rule="evenodd" fill-opacity="1" /><path clip-path="url(#clip710)" d="M46.0847 649.561 Q46.0847 656.659 47.7079 659.396 Q49.3312 662.134 53.2461 662.134 Q56.3653 662.134 58.2114 660.097 Q60.0256 658.028 60.0256 654.495 Q60.0256 649.625 56.5881 646.697 Q53.1188 643.737 47.3897 643.737 L46.0847 643.737 L46.0847 649.561 M43.6657 637.88 L64.0042 637.88 L64.0042 643.737 L58.5933 643.737 Q61.8398 645.742 63.3994 648.734 Q64.9272 651.726 64.9272 656.054 Q64.9272 661.529 61.8716 664.775 Q58.7843 667.99 53.6281 667.99 Q47.6125 667.99 44.5569 663.98 Q41.5014 659.937 41.5014 651.949 L41.5014 643.737 L40.9285 643.737 Q36.8862 643.737 34.6901 646.41 Q32.4621 649.052 32.4621 653.858 Q32.4621 656.914 33.1941 659.81 Q33.9262 662.707 35.3903 665.38 L29.9795 665.38 Q28.7381 662.165 28.1334 659.142 Q27.4968 656.118 27.4968 653.253 Q27.4968 645.519 31.5072 641.7 Q35.5176 637.88 43.6657 637.88 Z" fill="#000000" fill-rule="evenodd" fill-opacity="1" /><path clip-path="url(#clip710)" d="M42.4881 596.185 L64.0042 596.185 L64.0042 602.041 L42.679 602.041 Q37.6183 602.041 35.1038 604.015 Q32.5894 605.988 32.5894 609.935 Q32.5894 614.677 35.6131 617.415 Q38.6368 620.152 43.8567 620.152 L64.0042 620.152 L64.0042 626.04 L28.3562 626.04 L28.3562 620.152 L33.8944 620.152 Q30.6797 618.051 29.0883 615.218 Q27.4968 612.354 27.4968 608.63 Q27.4968 602.487 31.3163 599.336 Q35.1038 596.185 42.4881 596.185 Z" fill="#000000" fill-rule="evenodd" fill-opacity="1" /><path clip-path="url(#clip710)" d="M29.7248 558.85 L35.1993 558.85 Q33.8307 561.333 33.1623 563.847 Q32.4621 566.33 32.4621 568.876 Q32.4621 574.573 36.0905 577.724 Q39.6872 580.875 46.212 580.875 Q52.7369 580.875 56.3653 577.724 Q59.9619 574.573 59.9619 568.876 Q59.9619 566.33 59.2935 563.847 Q58.5933 561.333 57.2247 558.85 L62.6355 558.85 Q63.7814 561.301 64.3543 563.943 Q64.9272 566.553 64.9272 569.513 Q64.9272 577.565 59.8664 582.308 Q54.8057 587.05 46.212 587.05 Q37.491 587.05 32.4939 582.276 Q27.4968 577.47 27.4968 569.131 Q27.4968 566.425 28.0697 563.847 Q28.6108 561.269 29.7248 558.85 Z" fill="#000000" fill-rule="evenodd" fill-opacity="1" /><path clip-path="url(#clip710)" d="M44.7161 518.173 L47.5806 518.173 L47.5806 545.1 Q53.6281 544.718 56.8109 541.472 Q59.9619 538.193 59.9619 532.369 Q59.9619 528.995 59.1344 525.844 Q58.3069 522.661 56.6518 519.542 L62.1899 519.542 Q63.5267 522.693 64.227 526.003 Q64.9272 529.313 64.9272 532.719 Q64.9272 541.249 59.9619 546.246 Q54.9967 551.211 46.5303 551.211 Q37.7774 551.211 32.6531 546.501 Q27.4968 541.758 27.4968 533.737 Q27.4968 526.544 32.1438 522.375 Q36.7589 518.173 44.7161 518.173 M42.9973 524.03 Q38.1912 524.093 35.3266 526.735 Q32.4621 529.345 32.4621 533.674 Q32.4621 538.575 35.2312 541.535 Q38.0002 544.464 43.0292 544.909 L42.9973 524.03 Z" fill="#000000" fill-rule="evenodd" fill-opacity="1" /><path clip-path="url(#clip710)" d="M55.9197 507.065 L55.9197 500.349 L61.3942 500.349 L71.5793 505.569 L71.5793 509.675 L61.3942 507.065 L55.9197 507.065 Z" fill="#000000" fill-rule="evenodd" fill-opacity="1" /><path clip-path="url(#clip710)" d="M35.1993 439.366 Q31.2526 437.17 29.3747 434.114 Q27.4968 431.059 27.4968 426.921 Q27.4968 421.351 31.4117 418.327 Q35.2948 415.303 42.4881 415.303 L64.0042 415.303 L64.0042 421.192 L42.679 421.192 Q37.5546 421.192 35.072 423.006 Q32.5894 424.82 32.5894 428.544 Q32.5894 433.096 35.6131 435.737 Q38.6368 438.379 43.8567 438.379 L64.0042 438.379 L64.0042 444.267 L42.679 444.267 Q37.5228 444.267 35.072 446.082 Q32.5894 447.896 32.5894 451.683 Q32.5894 456.171 35.6449 458.813 Q38.6686 461.455 43.8567 461.455 L64.0042 461.455 L64.0042 467.343 L28.3562 467.343 L28.3562 461.455 L33.8944 461.455 Q30.616 459.45 29.0564 456.649 Q27.4968 453.848 27.4968 449.996 Q27.4968 446.113 29.4702 443.408 Q31.4436 440.671 35.1993 439.366 Z" fill="#000000" fill-rule="evenodd" fill-opacity="1" /><polyline clip-path="url(#clip712)" style="stroke:#471669; stroke-linecap:butt; stroke-linejoin:round; stroke-width:4; stroke-opacity:1; fill:none" points="
  174.149,977.31 193.095,965.69 195.897,964.535 212.04,964.153 230.986,962.783 249.931,960.008 268.877,955.544 284.96,950.636 287.823,950.335 306.768,948.365 
  325.714,945.51 344.659,941.648 363.426,936.738 363.605,936.714 382.551,934.345 401.496,931.325 420.442,927.582 439.387,923.049 440.307,922.84 458.333,920.282 
  477.279,917.106 496.224,913.363 515.17,909.01 515.48,908.941 534.115,906.087 553.061,902.764 572.007,898.977 589.614,895.043 590.952,894.817 609.898,891.722 
  628.843,888.26 647.789,884.404 662.686,881.145 666.735,880.438 685.68,877.161 704.626,873.564 723.571,869.625 734.596,867.246 742.517,865.826 761.463,862.379 
  780.408,858.648 799.354,854.615 805.28,853.348 818.299,850.96 837.245,847.349 856.191,843.484 874.713,839.45 875.136,839.368 894.082,835.814 913.028,832.044 
  931.973,828.043 943.473,825.551 950.919,824.091 969.864,820.361 988.81,816.433 1007.76,812.295 1010.73,811.653 1026.7,808.472 1045.65,804.569 1064.59,800.483 
  1076.97,797.755 1083.54,796.393 1102.48,792.476 1121.43,788.401 1140.37,784.158 1141.75,783.856 1159.32,780.164 1178.27,776.065 1197.21,771.82 1205.49,769.958 
  1216.16,767.633 1235.1,763.479 1254.05,759.199 1267.71,756.059 1272.99,754.867 1291.94,750.632 1310.89,746.289 1328.48,742.161 1329.83,741.845 1348.78,737.505 
  1367.72,733.075 1386.67,728.545 1387.87,728.263 1405.61,724.068 1424.56,719.529 1443.5,714.906 1445.75,714.364 1462.45,710.282 1481.4,705.612 1500.34,700.876 
  1502,700.466 1519.29,696.095 1538.23,691.276 1556.57,686.568 1557.18,686.405 1576.12,681.442 1595.07,676.458 1609.47,672.669 1614.01,671.407 1632.96,666.245 
  1651.91,661.081 1660.46,658.771 1670.85,655.782 1689.8,650.407 1708.74,645.048 1709.38,644.873 1727.69,639.406 1746.63,633.808 1756.36,630.974 1765.58,628.036 
  1784.53,622.13 1800.97,617.076 1803.47,616.223 1822.42,609.928 1841.36,603.764 1843.21,603.178 1860.31,597.065 1879.25,590.49 1882.83,589.279 1898.2,583.319 
  1917.14,576.247 1919.54,575.381 1936.09,568.34 1953.02,561.483 1955.04,560.483 1973.98,551.551 1982.87,547.584 1992.93,541.88 2008.45,533.686 2011.87,531.198 
  2028.99,519.788 2030.82,517.849 2043.29,505.889 2049.33,491.991 2043.36,478.093 2030.82,470.727 2016.28,464.194 2011.87,463.063 1992.93,458.982 1973.98,455.852 
  1955.04,453.484 1936.09,451.737 1917.14,450.502 1912.58,450.296 1898.2,449.782 1879.25,449.386 1860.31,449.248 1841.36,449.34 1822.42,449.637 1803.47,450.122 
  1798.61,450.296 1784.53,450.821 1765.58,451.695 1746.63,452.71 1727.69,453.854 1708.74,455.117 1689.8,456.493 1670.85,457.976 1651.91,459.562 1632.96,461.252 
  1614.01,463.044 1602.68,464.194 1595.07,464.958 1576.12,466.979 1557.18,469.075 1538.23,471.25 1519.29,473.509 1500.34,475.859 1483.13,478.093 1481.4,478.31 
  1462.45,480.824 1443.5,483.407 1424.56,486.071 1405.61,488.83 1386.67,491.701 1384.86,491.991 1367.72,494.583 1348.78,497.533 1329.83,500.579 1310.89,503.744 
  1298.64,505.889 1291.94,506.983 1272.99,510.201 1254.05,513.526 1235.1,516.99 1220.54,519.788 1216.16,520.56 1197.21,524.041 1178.27,527.658 1159.32,531.45 
  1148.75,533.686 1140.37,535.284 1121.43,539.052 1102.48,543.005 1083.54,547.203 1081.91,547.584 1064.59,551.169 1045.65,555.292 1026.7,559.688 1019.43,561.483 
  1007.76,564.006 988.81,568.317 969.864,572.948 960.581,575.381 950.919,577.569 931.973,582.101 913.028,587.025 904.977,589.279 894.082,591.875 875.136,596.688 
  856.191,602.008 852.306,603.178 837.245,606.969 818.299,612.17 802.345,617.076 799.354,617.84 780.408,622.953 761.463,628.745 754.82,630.974 742.517,634.329 
  723.571,640.052 709.66,644.873 704.626,646.277 685.68,651.971 666.763,658.771 666.735,658.779 647.789,664.489 628.843,671.421 625.753,672.669 609.898,677.608 
  590.952,684.785 586.768,686.568 572.007,691.345 553.061,698.962 549.742,700.466 534.115,705.753 515.17,714.149 514.727,714.364 496.224,720.961 481.055,728.263 
  477.279,729.594 458.333,737.282 449.053,742.161 439.387,745.807 420.442,755.56 419.581,756.059 401.496,763.492 390.446,769.958 382.551,773.206 364.513,783.856 
  363.605,784.23 344.659,793.475 338.295,797.755 325.714,803.786 314.304,811.653 306.768,815.37 292.426,825.551 287.823,827.917 272.097,839.45 268.877,841.211 
  252.85,853.348 249.931,855.125 234.245,867.246 230.986,869.728 216.038,881.145 212.04,886.941 201.091,895.043 193.449,908.941 193.095,909.363 174.752,922.84 
  
  "/>
<polyline clip-path="url(#clip712)" style="stroke:#472b7a; stroke-linecap:butt; stroke-linejoin:round; stroke-width:4; stroke-opacity:1; fill:none" points="
  175.355,922.84 193.095,909.807 193.822,908.941 209.088,895.043 212.04,892.858 220.119,881.145 230.986,872.845 238.338,867.246 249.931,858.288 258.043,853.348 
  268.877,845.144 279.286,839.45 287.823,833.189 302.687,825.551 306.768,822.654 325.714,812.446 327.624,811.653 344.659,801.324 353.298,797.755 363.605,791.598 
  382.393,783.856 382.551,783.763 401.496,773.95 412.246,769.958 420.442,765.68 439.387,757.984 445.003,756.059 458.333,749.817 477.279,743.04 480.017,742.161 
  496.224,735.242 515.17,728.935 517.379,728.263 534.115,721.656 553.061,715.614 557.363,714.364 572.007,708.952 590.952,703.068 600.263,700.466 609.898,697.097 
  628.843,691.302 646.354,686.568 647.789,686.089 666.735,680.333 685.68,675.268 696.197,672.669 704.626,670.181 723.571,665.132 742.517,660.532 750.261,658.771 
  761.463,655.81 780.408,651.248 799.354,647.014 809.523,644.873 818.299,642.772 837.245,638.608 856.191,634.715 875.136,630.999 875.272,630.974 894.082,627.206 
  913.028,623.66 931.973,620.295 950.803,617.076 950.919,617.055 969.864,613.877 988.81,610.899 1007.76,608.082 1026.7,605.398 1043.18,603.178 1045.65,602.833 
  1064.59,600.481 1083.54,598.318 1102.48,596.333 1121.43,594.528 1140.37,592.909 1159.32,591.494 1178.27,590.31 1197.21,589.396 1201.33,589.279 1216.16,588.885 
  1235.1,588.754 1254.05,589.054 1259.63,589.279 1272.99,590.051 1291.94,592.053 1310.89,595.384 1329.83,600.652 1336.47,603.178 1347.48,617.076 1341.84,630.974 
  1329.83,641.703 1326.74,644.873 1310.89,654.733 1305.07,658.771 1291.94,665.302 1278.34,672.669 1272.99,674.941 1254.05,683.441 1247.52,686.568 1235.1,691.424 
  1216.16,699.184 1213.19,700.466 1197.21,706.286 1178.27,713.418 1175.86,714.364 1159.32,720.028 1140.37,726.645 1135.92,728.263 1121.43,732.955 1102.48,739.164 
  1093.57,742.161 1083.54,745.252 1064.59,751.151 1048.92,756.059 1045.65,757.023 1026.7,762.709 1007.76,768.325 1002.38,769.958 988.81,773.882 969.864,779.314 
  953.858,783.856 950.919,784.671 931.973,790.02 913.028,795.206 903.772,797.755 894.082,800.404 875.136,805.55 856.191,810.501 851.88,811.653 837.245,815.608 
  818.299,820.568 799.354,825.297 798.374,825.551 780.408,830.36 761.463,835.153 743.556,839.45 742.517,839.717 723.571,844.722 704.626,849.373 687.419,853.348 
  685.68,853.792 666.735,858.745 647.789,863.285 629.895,867.246 628.843,867.513 609.898,872.471 590.952,876.936 572.007,880.959 571.172,881.145 553.061,885.923 
  534.115,890.368 515.17,894.278 511.545,895.043 496.224,899.108 477.279,903.612 458.333,907.452 450.762,908.941 439.387,911.997 420.442,916.688 401.496,920.528 
  388.493,922.84 382.551,924.472 363.605,929.602 344.659,933.567 325.714,936.524 324.458,936.738 306.768,942.299 287.823,946.694 268.877,949.579 260.403,950.636 
  249.931,954.365 230.986,960.328 212.04,963.421 193.095,964.45 191.568,964.535 174.149,976.187 
  "/>
<polyline clip-path="url(#clip712)" style="stroke:#423e85; stroke-linecap:butt; stroke-linejoin:round; stroke-width:4; stroke-opacity:1; fill:none" points="
  174.149,975.064 189.889,964.535 193.095,964.356 212.04,962.689 230.986,957.872 247.976,950.636 249.931,950.319 268.877,947.602 287.823,943.054 305.901,936.738 
  306.768,936.565 325.714,933.236 344.659,928.627 362.844,922.84 363.605,922.672 382.551,918.895 401.496,914.138 418.69,908.941 420.442,908.532 439.387,904.379 
  458.333,899.438 473.325,895.043 477.279,894.079 496.224,889.584 515.17,884.437 526.603,881.145 534.115,879.245 553.061,874.427 572.007,869.056 578.352,867.246 
  590.952,863.96 609.898,858.825 628.45,853.348 628.843,853.236 647.789,848.136 666.735,842.688 677.731,839.45 685.68,837.137 704.626,831.677 723.571,825.916 
  724.809,825.551 742.517,820.277 761.463,814.465 770.624,811.653 780.408,808.513 799.354,802.519 814.237,797.755 818.299,796.349 837.245,790.054 855.742,783.856 
  856.191,783.688 875.136,776.974 894.082,770.311 895.125,769.958 913.028,763.097 931.895,756.059 931.973,756.025 950.919,748.114 965.874,742.161 969.864,740.191 
  988.81,731.516 996.386,728.263 1007.76,721.927 1022.74,714.364 1026.7,711.48 1043.96,700.466 1045.65,698.551 1058.16,686.568 1061.28,672.669 1045.65,661.504 
  1039.08,658.771 1026.7,656.499 1007.76,654.384 988.81,653.377 969.864,653.173 950.919,653.575 931.973,654.455 913.028,655.731 894.082,657.354 880.567,658.771 
  875.136,659.34 856.191,661.678 837.245,664.2 818.299,666.922 799.354,669.878 783.149,672.669 780.408,673.112 761.463,676.495 742.517,680.048 723.571,683.866 
  711.482,686.568 704.626,687.935 685.68,692.009 666.735,696.38 650.823,700.466 647.789,701.14 628.843,705.703 609.898,710.693 597.629,714.364 590.952,716.026 
  572.007,721.162 553.061,727.065 549.678,728.263 534.115,732.638 515.17,738.747 506.197,742.161 496.224,745.107 477.279,751.525 466.344,756.059 458.333,758.57 
  439.387,765.494 429.681,769.958 420.442,773.069 401.496,780.961 395.924,783.856 382.551,788.777 365.183,797.755 363.605,798.329 344.659,806.42 336.029,811.653 
  325.714,815.934 310.165,825.551 306.768,826.971 287.823,838.462 286.476,839.45 268.877,849.077 263.237,853.348 249.931,861.451 242.432,867.246 230.986,875.962 
  224.2,881.145 212.374,895.043 212.04,895.224 194.195,908.941 193.095,910.25 175.959,922.84 
  "/>
<polyline clip-path="url(#clip712)" style="stroke:#3b518a; stroke-linecap:butt; stroke-linejoin:round; stroke-width:4; stroke-opacity:1; fill:none" points="
  176.562,922.84 193.095,910.693 194.567,908.941 212.04,895.51 212.903,895.043 228.281,881.145 230.986,879.079 246.525,867.246 249.931,864.615 268.43,853.348 
  268.877,853.01 287.823,840.724 290.838,839.45 306.768,829.328 315.805,825.551 325.714,819.423 344.435,811.653 344.659,811.517 363.605,801.824 374.786,797.755 
  382.551,793.741 401.496,786.223 408.677,783.856 420.442,778.568 439.387,771.937 445.891,769.958 458.333,764.982 477.279,758.842 487.042,756.059 496.224,752.724 
  515.17,746.925 532.818,742.161 534.115,741.725 553.061,736.197 572.007,731.361 585.211,728.263 590.952,726.673 609.898,722.109 628.843,717.977 646.462,714.364 
  647.789,714.057 666.735,710.285 685.68,706.89 704.626,703.762 723.571,700.831 726.358,700.466 742.517,698.292 761.463,696.158 780.408,694.417 799.354,693.114 
  818.299,692.352 837.245,692.315 856.191,693.319 875.136,695.927 891.976,700.466 894.082,702.698 900.94,714.364 894.082,724.335 891.917,728.263 875.136,741.019 
  873.871,742.161 856.191,752.074 849.937,756.059 837.245,761.943 821.407,769.958 818.299,771.215 799.354,779.31 789.404,783.856 780.408,787.28 761.463,794.761 
  754.29,797.755 742.517,802.006 723.571,808.965 716.572,811.653 704.626,815.772 685.68,822.32 676.571,825.551 666.735,828.805 647.789,835.065 634.425,839.45 
  628.843,841.227 609.898,847.337 590.952,853.103 590.198,853.348 572.007,859.191 553.061,864.816 544.913,867.246 534.115,870.605 515.17,876.274 497.249,881.145 
  496.224,881.454 477.279,887.412 458.333,892.592 449.1,895.043 439.387,898.049 420.442,903.6 401.496,908.233 398.76,908.941 382.551,914.169 363.605,919.262 
  347.319,922.84 344.659,923.686 325.714,929.949 306.768,934.487 295.482,936.738 287.823,939.414 268.877,945.625 249.931,949.384 242.21,950.636 230.986,955.417 
  212.04,961.958 193.095,964.263 188.21,964.535 174.149,973.941 
  "/>
<polyline clip-path="url(#clip712)" style="stroke:#33618d; stroke-linecap:butt; stroke-linejoin:round; stroke-width:4; stroke-opacity:1; fill:none" points="
  174.149,972.818 186.532,964.535 193.095,964.17 212.04,961.226 230.986,952.961 236.445,950.636 249.931,948.449 268.877,943.648 286.488,936.738 287.823,936.411 
  306.768,932.41 325.714,926.661 336.775,922.84 344.659,920.855 363.605,915.852 382.551,909.442 384.104,908.941 401.496,904.441 420.442,898.667 431.491,895.043 
  439.387,892.737 458.333,887.165 476.31,881.145 477.279,880.833 496.224,875.196 515.17,868.955 520.407,867.246 534.115,862.83 553.061,856.535 562.533,853.348 
  572.007,850.033 590.952,843.51 602.613,839.45 609.898,836.688 628.843,829.797 640.568,825.551 647.789,822.583 666.735,815.202 676.106,811.653 685.68,807.365 
  704.626,799.4 708.749,797.755 723.571,790.461 738.146,783.856 742.517,781.167 761.463,770.895 763.364,769.958 780.408,757.774 783.203,756.059 794.928,742.161 
  790.919,728.263 780.408,724.355 761.463,720.667 742.517,719.345 723.571,719.393 704.626,720.32 685.68,721.868 666.735,723.913 647.789,726.413 636.398,728.263 
  628.843,729.424 609.898,732.767 590.952,736.368 572.007,740.382 564.878,742.161 553.061,744.721 534.115,749.201 515.17,754.231 509.333,756.059 496.224,759.418 
  477.279,764.819 462.249,769.958 458.333,771.024 439.387,776.816 420.931,783.856 420.442,784 401.496,790.255 384.319,797.755 382.551,798.322 363.605,805.319 
  351.279,811.653 344.659,814.031 325.714,822.911 321.446,825.551 306.768,831.686 294.548,839.45 287.823,842.292 271.051,853.348 268.877,854.283 250.179,867.246 
  249.931,867.356 231.284,881.145 230.986,881.284 213.432,895.043 212.04,895.797 194.94,908.941 193.095,911.136 177.165,922.84 
  "/>
<polyline clip-path="url(#clip712)" style="stroke:#2c718e; stroke-linecap:butt; stroke-linejoin:round; stroke-width:4; stroke-opacity:1; fill:none" points="
  177.769,922.84 193.095,911.579 195.313,908.941 212.04,896.083 213.961,895.043 230.986,881.699 232.168,881.145 249.931,868.01 251.655,867.246 268.877,855.306 
  273.429,853.348 287.823,843.859 298.259,839.45 306.768,834.043 325.714,825.963 326.879,825.551 344.659,816.475 358.081,811.653 363.605,808.814 382.551,801.287 
  393.555,797.755 401.496,794.287 420.442,787.75 433.724,783.856 439.387,781.696 458.333,775.781 477.279,770.658 480.214,769.958 496.224,765.391 515.17,760.797 
  534.115,756.568 536.751,756.059 553.061,752.551 572.007,749.082 590.952,746.017 609.898,743.278 619.659,742.161 628.843,741.103 647.789,739.735 666.735,739.199 
  685.68,739.81 704.409,742.161 704.626,742.235 721.279,756.059 713.173,769.958 704.626,775.996 695.425,783.856 685.68,789.1 671.621,797.755 666.735,799.968 
  647.789,809.277 643.454,811.653 628.843,817.869 611.724,825.551 609.898,826.248 590.952,833.852 577.39,839.45 572.007,841.421 553.061,848.563 540.494,853.348 
  534.115,855.604 515.17,862.4 501.368,867.246 496.224,869.013 477.279,875.613 460.105,881.145 458.333,881.738 439.387,888.346 420.442,894.104 417.558,895.043 
  401.496,900.648 382.551,906.368 373.732,908.941 363.605,912.442 344.659,918.46 327.259,922.84 325.714,923.374 306.768,930.332 287.823,935.176 281.45,936.738 
  268.877,941.671 249.931,947.515 230.986,950.617 230.911,950.636 212.04,960.494 193.095,964.076 184.853,964.535 174.149,971.695 
  "/>
<polyline clip-path="url(#clip712)" style="stroke:#26808e; stroke-linecap:butt; stroke-linejoin:round; stroke-width:4; stroke-opacity:1; fill:none" points="
  174.149,970.572 183.174,964.535 193.095,963.983 212.04,959.763 229.511,950.636 230.986,950.253 249.931,946.58 268.877,939.694 276.411,936.738 287.823,933.941 
  306.768,928.255 321.106,922.84 325.714,921.469 344.659,916.064 363.605,909.032 363.867,908.941 382.551,903.489 401.496,896.855 406.69,895.043 420.442,890.565 
  439.387,883.955 447.309,881.145 458.333,877.214 477.279,870.394 485.951,867.246 496.224,863.27 515.17,856.077 522.476,853.348 534.115,848.47 553.061,840.784 
  556.509,839.45 572.007,832.402 587.886,825.551 590.952,823.834 609.898,814.416 615.945,811.653 628.843,803.584 639.593,797.755 647.789,790.574 657.194,783.856 
  664.869,769.958 647.789,757.774 640.265,756.059 628.843,755.046 609.898,754.882 590.952,755.851 589.059,756.059 572.007,757.933 553.061,760.548 534.115,763.584 
  515.17,767.117 502.737,769.958 496.224,771.272 477.279,775.655 458.333,780.538 447.802,783.856 439.387,786.008 420.442,791.499 402.964,797.755 401.496,798.164 
  382.551,804.251 364.931,811.653 363.605,812.064 344.659,818.92 331.667,825.551 325.714,827.658 306.768,836.401 301.969,839.45 287.823,845.427 275.808,853.348 
  268.877,856.329 253.13,867.246 249.931,868.664 233.052,881.145 230.986,882.114 214.49,895.043 212.04,896.369 195.685,908.941 193.095,912.023 178.372,922.84 
  
  "/>
<polyline clip-path="url(#clip712)" style="stroke:#208f8c; stroke-linecap:butt; stroke-linejoin:round; stroke-width:4; stroke-opacity:1; fill:none" points="
  178.975,922.84 193.095,912.466 196.058,908.941 212.04,896.656 215.019,895.043 230.986,882.528 233.936,881.145 249.931,869.317 254.605,867.246 268.877,857.351 
  278.186,853.348 287.823,846.995 305.68,839.45 306.768,838.758 325.714,829.352 336.455,825.551 344.659,821.364 363.605,814.254 371.988,811.653 382.551,807.216 
  401.496,801.087 413.442,797.755 420.442,795.249 439.387,789.87 458.333,785.161 464.405,783.856 477.279,780.651 496.224,776.851 515.17,773.577 534.115,770.705 
  541.107,769.958 553.061,768.683 572.007,767.759 590.952,768.186 604.866,769.958 609.898,772.142 620.296,783.856 610.491,797.755 609.898,798.12 591.596,811.653 
  590.952,811.973 572.007,822.491 567.291,825.551 553.061,832.182 538.793,839.45 534.115,841.376 515.17,849.616 507.199,853.348 496.224,857.704 477.279,865.28 
  472.736,867.246 458.333,872.801 439.387,879.793 436.014,881.145 420.442,887.027 401.496,893.555 397.469,895.043 382.551,900.61 363.605,906.836 357.348,908.941 
  344.659,913.669 325.714,919.833 315.605,922.84 306.768,926.177 287.823,932.706 271.373,936.738 268.877,937.717 249.931,945.645 230.986,949.89 228.11,950.636 
  212.04,959.031 193.095,963.89 181.495,964.535 174.149,969.449 
  "/>
<polyline clip-path="url(#clip712)" style="stroke:#1e9e88; stroke-linecap:butt; stroke-linejoin:round; stroke-width:4; stroke-opacity:1; fill:none" points="
  174.149,968.326 179.816,964.535 193.095,963.797 212.04,958.299 226.709,950.636 230.986,949.526 249.931,944.71 267.819,936.738 268.877,936.392 287.823,931.471 
  306.768,924.099 310.104,922.84 325.714,918.196 344.659,911.274 350.92,908.941 363.605,904.674 382.551,897.732 389.755,895.043 401.496,890.704 420.442,883.488 
  426.647,881.145 439.387,876.038 458.333,868.388 461.292,867.246 477.279,860.325 493.691,853.348 496.224,851.994 515.17,843.049 523.305,839.45 534.115,833.138 
  548.931,825.551 553.061,822.303 569.668,811.653 572.007,808.569 582.882,797.755 579.238,783.856 572.007,781.54 553.061,778.957 534.115,778.859 515.17,780.151 
  496.224,782.431 488.341,783.856 477.279,785.705 458.333,789.474 439.387,793.732 425.02,797.755 420.442,798.825 401.496,804.009 382.551,810.181 379.046,811.653 
  363.605,816.444 344.659,823.808 341.243,825.551 325.714,831.046 309.131,839.45 306.768,840.27 287.823,848.563 280.564,853.348 268.877,858.374 256.081,867.246 
  249.931,869.971 234.821,881.145 230.986,882.943 215.548,895.043 212.04,896.942 196.431,908.941 193.095,912.909 179.578,922.84 
  "/>
<polyline clip-path="url(#clip712)" style="stroke:#27ad80; stroke-linecap:butt; stroke-linejoin:round; stroke-width:4; stroke-opacity:1; fill:none" points="
  180.182,922.84 193.095,913.352 196.803,908.941 212.04,897.229 216.077,895.043 230.986,883.358 235.705,881.145 249.931,870.625 257.556,867.246 268.877,859.397 
  282.943,853.348 287.823,850.131 306.768,841.431 312.474,839.45 325.714,832.74 344.659,826.018 346.235,825.551 363.605,818.633 382.551,812.823 387.052,811.653 
  401.496,806.931 420.442,802.049 438.815,797.755 439.387,797.594 458.333,793.787 477.279,790.864 496.224,788.756 515.17,787.784 534.115,789.063 553.061,796.454 
  554.662,797.755 553.061,800.791 549.043,811.653 534.115,823.555 532.188,825.551 515.17,835.4 509.334,839.45 496.224,845.769 482.036,853.348 477.279,855.371 
  458.333,863.914 451.589,867.246 439.387,872.283 420.442,880.051 418.065,881.145 401.496,887.854 382.551,894.89 382.195,895.043 363.605,902.511 344.659,908.899 
  344.554,908.941 325.714,916.56 306.768,922.41 305.6,922.84 287.823,930.236 268.877,935.708 265.721,936.738 249.931,943.775 230.986,949.163 225.309,950.636 
  212.04,957.568 193.095,963.703 178.138,964.535 174.149,967.203 
  "/>
<polyline clip-path="url(#clip712)" style="stroke:#3dbb74; stroke-linecap:butt; stroke-linejoin:round; stroke-width:4; stroke-opacity:1; fill:none" points="
  174.149,966.08 176.459,964.535 193.095,963.61 212.04,956.836 223.908,950.636 230.986,948.799 249.931,942.841 263.624,936.738 268.877,935.023 287.823,929.001 
  302.632,922.84 306.768,921.32 325.714,914.924 340.507,908.941 344.659,907.282 363.605,900.349 376.813,895.043 382.551,892.578 401.496,885.003 411.026,881.145 
  420.442,876.812 439.387,868.528 442.493,867.246 458.333,859.419 471.507,853.348 477.279,849.718 496.224,839.544 496.419,839.45 515.17,826.439 516.704,825.551 
  528.87,811.653 519.6,797.755 515.17,796.783 496.224,795.338 477.279,796.023 461.977,797.755 458.333,798.164 439.387,801.489 420.442,805.273 401.496,809.854 
  395.993,811.653 382.551,815.148 363.605,820.823 351.733,825.551 344.659,827.648 325.714,834.435 315.818,839.45 306.768,842.592 287.823,851.699 285.321,853.348 
  268.877,860.42 259.031,867.246 249.931,871.279 236.589,881.145 230.986,883.772 216.606,895.043 212.04,897.515 197.176,908.941 193.095,913.796 180.785,922.84 
  
  "/>
<polyline clip-path="url(#clip712)" style="stroke:#5bc862; stroke-linecap:butt; stroke-linejoin:round; stroke-width:4; stroke-opacity:1; fill:none" points="
  181.388,922.84 193.095,914.239 197.549,908.941 212.04,897.802 217.135,895.043 230.986,884.187 237.473,881.145 249.931,871.933 260.507,867.246 268.877,861.443 
  287.7,853.348 287.823,853.267 306.768,843.753 319.161,839.45 325.714,836.129 344.659,829.277 357.231,825.551 363.605,823.013 382.551,817.473 401.496,812.731 
  406.839,811.653 420.442,808.497 439.387,805.386 458.333,803.28 477.279,802.637 496.224,805.308 507.958,811.653 502.058,825.551 496.224,829.571 484.977,839.45 
  477.279,843.585 461.754,853.348 458.333,854.924 439.387,864.471 434.61,867.246 420.442,873.573 403.987,881.145 401.496,882.153 382.551,890.267 371.43,895.043 
  363.605,898.187 344.659,905.664 336.461,908.941 325.714,913.287 306.768,920.229 299.664,922.84 287.823,927.766 268.877,934.338 261.526,936.738 249.931,941.906 
  230.986,948.436 222.507,950.636 212.04,956.104 193.095,963.517 174.78,964.535 174.149,964.957 
  "/>
<polyline clip-path="url(#clip712)" style="stroke:#81d34c; stroke-linecap:butt; stroke-linejoin:round; stroke-width:4; stroke-opacity:1; fill:none" points="
  174.149,964.381 193.095,963.423 212.04,955.373 221.107,950.636 230.986,948.072 249.931,940.971 259.429,936.738 268.877,933.653 287.823,926.531 296.695,922.84 
  306.768,919.138 325.714,911.651 332.414,908.941 344.659,904.047 363.605,896.024 366.048,895.043 382.551,887.955 398.088,881.145 401.496,879.289 420.442,870.334 
  427.356,867.246 439.387,860.257 452.959,853.348 458.333,849.153 473.902,839.45 477.279,835.153 487.672,825.551 483.458,811.653 477.279,809.986 458.333,808.397 
  439.387,809.282 421.078,811.653 420.442,811.733 401.496,815.537 382.551,819.798 363.605,825.203 362.729,825.551 344.659,830.907 325.714,837.823 322.504,839.45 
  306.768,844.914 290.01,853.348 287.823,854.09 268.877,862.466 261.982,867.246 249.931,872.586 238.357,881.145 230.986,884.602 217.664,895.043 212.04,898.088 
  197.921,908.941 193.095,914.682 181.992,922.84 
  "/>
<polyline clip-path="url(#clip712)" style="stroke:#aadb32; stroke-linecap:butt; stroke-linejoin:round; stroke-width:4; stroke-opacity:1; fill:none" points="
  182.595,922.84 193.095,915.125 198.294,908.941 212.04,898.375 218.193,895.043 230.986,885.016 239.241,881.145 249.931,873.24 263.458,867.246 268.877,863.489 
  287.823,854.873 292.318,853.348 306.768,846.075 325.714,839.499 325.891,839.45 344.659,832.537 363.605,827.156 370.485,825.551 382.551,822.123 401.496,818.343 
  420.442,815.513 439.387,813.895 458.333,815.39 473.193,825.551 463.537,839.45 458.333,842.693 444.681,853.348 439.387,856.043 420.442,867.05 420.168,867.246 
  401.496,876.417 392.814,881.145 382.551,885.643 363.605,893.997 361.581,895.043 344.659,902.429 328.368,908.941 325.714,910.014 306.768,918.048 293.727,922.84 
  287.823,925.296 268.877,932.968 257.331,936.738 249.931,940.036 230.986,947.709 219.706,950.636 212.04,954.641 193.095,963.33 174.149,964.135 
  "/>
<polyline clip-path="url(#clip712)" style="stroke:#d4e11a; stroke-linecap:butt; stroke-linejoin:round; stroke-width:4; stroke-opacity:1; fill:none" points="
  174.149,963.889 193.095,963.237 212.04,953.909 218.305,950.636 230.986,947.345 249.931,939.101 255.234,936.738 268.877,932.283 287.823,924.061 290.759,922.84 
  306.768,916.957 324.866,908.941 325.714,908.521 344.659,900.812 357.876,895.043 363.605,892.083 382.551,883.331 387.54,881.145 401.496,873.545 414.321,867.246 
  420.442,862.86 436.791,853.348 439.387,850.552 453.444,839.45 458.131,825.551 439.387,819.62 420.442,819.292 401.496,821.148 382.551,824.448 378.669,825.551 
  363.605,829.065 344.659,834.166 330.315,839.45 325.714,840.727 306.768,847.237 294.625,853.348 287.823,855.656 268.877,864.512 264.933,867.246 249.931,873.894 
  240.126,881.145 230.986,885.431 218.722,895.043 212.04,898.661 198.667,908.941 193.095,915.569 183.198,922.84 
  "/>
<polyline clip-path="url(#clip712)" style="stroke:#471669; stroke-linecap:butt; stroke-linejoin:round; stroke-width:4; stroke-opacity:1; fill:none" points="
  174.19,936.738 174.149,936.94 
  "/>
<polyline clip-path="url(#clip712)" style="stroke:#472b7a; stroke-linecap:butt; stroke-linejoin:round; stroke-width:4; stroke-opacity:1; fill:none" points="
  174.231,936.738 174.149,937.141 
  "/>
<polyline clip-path="url(#clip712)" style="stroke:#423e85; stroke-linecap:butt; stroke-linejoin:round; stroke-width:4; stroke-opacity:1; fill:none" points="
  174.273,936.738 174.149,937.343 
  "/>
<polyline clip-path="url(#clip712)" style="stroke:#3b518a; stroke-linecap:butt; stroke-linejoin:round; stroke-width:4; stroke-opacity:1; fill:none" points="
  174.314,936.738 174.149,937.545 
  "/>
<polyline clip-path="url(#clip712)" style="stroke:#33618d; stroke-linecap:butt; stroke-linejoin:round; stroke-width:4; stroke-opacity:1; fill:none" points="
  174.355,936.738 174.149,937.746 
  "/>
<polyline clip-path="url(#clip712)" style="stroke:#2c718e; stroke-linecap:butt; stroke-linejoin:round; stroke-width:4; stroke-opacity:1; fill:none" points="
  174.396,936.738 174.149,937.948 
  "/>
<polyline clip-path="url(#clip712)" style="stroke:#26808e; stroke-linecap:butt; stroke-linejoin:round; stroke-width:4; stroke-opacity:1; fill:none" points="
  174.437,936.738 174.149,938.15 
  "/>
<polyline clip-path="url(#clip712)" style="stroke:#208f8c; stroke-linecap:butt; stroke-linejoin:round; stroke-width:4; stroke-opacity:1; fill:none" points="
  174.479,936.738 174.149,938.352 
  "/>
<polyline clip-path="url(#clip712)" style="stroke:#1e9e88; stroke-linecap:butt; stroke-linejoin:round; stroke-width:4; stroke-opacity:1; fill:none" points="
  174.52,936.738 174.149,938.553 
  "/>
<polyline clip-path="url(#clip712)" style="stroke:#27ad80; stroke-linecap:butt; stroke-linejoin:round; stroke-width:4; stroke-opacity:1; fill:none" points="
  174.561,936.738 174.149,938.755 
  "/>
<polyline clip-path="url(#clip712)" style="stroke:#3dbb74; stroke-linecap:butt; stroke-linejoin:round; stroke-width:4; stroke-opacity:1; fill:none" points="
  174.602,936.738 174.149,938.957 
  "/>
<polyline clip-path="url(#clip712)" style="stroke:#5bc862; stroke-linecap:butt; stroke-linejoin:round; stroke-width:4; stroke-opacity:1; fill:none" points="
  174.643,936.738 174.149,939.158 
  "/>
<polyline clip-path="url(#clip712)" style="stroke:#81d34c; stroke-linecap:butt; stroke-linejoin:round; stroke-width:4; stroke-opacity:1; fill:none" points="
  174.685,936.738 174.149,939.36 
  "/>
<polyline clip-path="url(#clip712)" style="stroke:#aadb32; stroke-linecap:butt; stroke-linejoin:round; stroke-width:4; stroke-opacity:1; fill:none" points="
  174.726,936.738 174.149,939.562 
  "/>
<polyline clip-path="url(#clip712)" style="stroke:#d4e11a; stroke-linecap:butt; stroke-linejoin:round; stroke-width:4; stroke-opacity:1; fill:none" points="
  174.767,936.738 174.149,939.763 
  "/>
<defs>
  <clipPath id="clip713">
    <rect x="2097" y="47" width="73" height="1377"/>
  </clipPath>
</defs>
<polyline clip-path="url(#clip713)" style="stroke:#47186a; stroke-linecap:butt; stroke-linejoin:round; stroke-width:4; stroke-opacity:1; fill:none" points="
  2097.76,1337.18 2169.76,1337.18 
  "/>
<polyline clip-path="url(#clip713)" style="stroke:#472c7b; stroke-linecap:butt; stroke-linejoin:round; stroke-width:4; stroke-opacity:1; fill:none" points="
  2097.76,1251.19 2169.76,1251.19 
  "/>
<polyline clip-path="url(#clip713)" style="stroke:#424085; stroke-linecap:butt; stroke-linejoin:round; stroke-width:4; stroke-opacity:1; fill:none" points="
  2097.76,1165.19 2169.76,1165.19 
  "/>
<polyline clip-path="url(#clip713)" style="stroke:#3a528b; stroke-linecap:butt; stroke-linejoin:round; stroke-width:4; stroke-opacity:1; fill:none" points="
  2097.76,1079.2 2169.76,1079.2 
  "/>
<polyline clip-path="url(#clip713)" style="stroke:#32628d; stroke-linecap:butt; stroke-linejoin:round; stroke-width:4; stroke-opacity:1; fill:none" points="
  2097.76,993.2 2169.76,993.2 
  "/>
<polyline clip-path="url(#clip713)" style="stroke:#2c728e; stroke-linecap:butt; stroke-linejoin:round; stroke-width:4; stroke-opacity:1; fill:none" points="
  2097.76,907.204 2169.76,907.204 
  "/>
<polyline clip-path="url(#clip713)" style="stroke:#26818e; stroke-linecap:butt; stroke-linejoin:round; stroke-width:4; stroke-opacity:1; fill:none" points="
  2097.76,821.208 2169.76,821.208 
  "/>
<polyline clip-path="url(#clip713)" style="stroke:#20908c; stroke-linecap:butt; stroke-linejoin:round; stroke-width:4; stroke-opacity:1; fill:none" points="
  2097.76,735.212 2169.76,735.212 
  "/>
<polyline clip-path="url(#clip713)" style="stroke:#1e9e88; stroke-linecap:butt; stroke-linejoin:round; stroke-width:4; stroke-opacity:1; fill:none" points="
  2097.76,649.216 2169.76,649.216 
  "/>
<polyline clip-path="url(#clip713)" style="stroke:#27ad80; stroke-linecap:butt; stroke-linejoin:round; stroke-width:4; stroke-opacity:1; fill:none" points="
  2097.76,563.22 2169.76,563.22 
  "/>
<polyline clip-path="url(#clip713)" style="stroke:#3dbb74; stroke-linecap:butt; stroke-linejoin:round; stroke-width:4; stroke-opacity:1; fill:none" points="
  2097.76,477.224 2169.76,477.224 
  "/>
<polyline clip-path="url(#clip713)" style="stroke:#5bc862; stroke-linecap:butt; stroke-linejoin:round; stroke-width:4; stroke-opacity:1; fill:none" points="
  2097.76,391.228 2169.76,391.228 
  "/>
<polyline clip-path="url(#clip713)" style="stroke:#81d34c; stroke-linecap:butt; stroke-linejoin:round; stroke-width:4; stroke-opacity:1; fill:none" points="
  2097.76,305.232 2169.76,305.232 
  "/>
<polyline clip-path="url(#clip713)" style="stroke:#aadb32; stroke-linecap:butt; stroke-linejoin:round; stroke-width:4; stroke-opacity:1; fill:none" points="
  2097.76,219.236 2169.76,219.236 
  "/>
<polyline clip-path="url(#clip713)" style="stroke:#d4e11a; stroke-linecap:butt; stroke-linejoin:round; stroke-width:4; stroke-opacity:1; fill:none" points="
  2097.76,133.24 2169.76,133.24 
  "/>
<path clip-path="url(#clip710)" d="M2217.71 1405.35 Q2214.1 1405.35 2212.27 1408.91 Q2210.46 1412.46 2210.46 1419.59 Q2210.46 1426.69 2212.27 1430.26 Q2214.1 1433.8 2217.71 1433.8 Q2221.34 1433.8 2223.15 1430.26 Q2224.98 1426.69 2224.98 1419.59 Q2224.98 1412.46 2223.15 1408.91 Q2221.34 1405.35 2217.71 1405.35 M2217.71 1401.65 Q2223.52 1401.65 2226.57 1406.25 Q2229.65 1410.84 2229.65 1419.59 Q2229.65 1428.31 2226.57 1432.92 Q2223.52 1437.5 2217.71 1437.5 Q2211.9 1437.5 2208.82 1432.92 Q2205.76 1428.31 2205.76 1419.59 Q2205.76 1410.84 2208.82 1406.25 Q2211.9 1401.65 2217.71 1401.65 Z" fill="#000000" fill-rule="evenodd" fill-opacity="1" /><path clip-path="url(#clip710)" d="M2217.71 1267.76 Q2214.1 1267.76 2212.27 1271.32 Q2210.46 1274.86 2210.46 1281.99 Q2210.46 1289.1 2212.27 1292.66 Q2214.1 1296.21 2217.71 1296.21 Q2221.34 1296.21 2223.15 1292.66 Q2224.98 1289.1 2224.98 1281.99 Q2224.98 1274.86 2223.15 1271.32 Q2221.34 1267.76 2217.71 1267.76 M2217.71 1264.05 Q2223.52 1264.05 2226.57 1268.66 Q2229.65 1273.24 2229.65 1281.99 Q2229.65 1290.72 2226.57 1295.33 Q2223.52 1299.91 2217.71 1299.91 Q2211.9 1299.91 2208.82 1295.33 Q2205.76 1290.72 2205.76 1281.99 Q2205.76 1273.24 2208.82 1268.66 Q2211.9 1264.05 2217.71 1264.05 Z" fill="#000000" fill-rule="evenodd" fill-opacity="1" /><path clip-path="url(#clip710)" d="M2237.87 1293.36 L2242.75 1293.36 L2242.75 1299.24 L2237.87 1299.24 L2237.87 1293.36 Z" fill="#000000" fill-rule="evenodd" fill-opacity="1" /><path clip-path="url(#clip710)" d="M2253.75 1295.3 L2261.39 1295.3 L2261.39 1268.94 L2253.08 1270.6 L2253.08 1266.34 L2261.34 1264.68 L2266.02 1264.68 L2266.02 1295.3 L2273.66 1295.3 L2273.66 1299.24 L2253.75 1299.24 L2253.75 1295.3 Z" fill="#000000" fill-rule="evenodd" fill-opacity="1" /><path clip-path="url(#clip710)" d="M2217.71 1130.16 Q2214.1 1130.16 2212.27 1133.73 Q2210.46 1137.27 2210.46 1144.4 Q2210.46 1151.51 2212.27 1155.07 Q2214.1 1158.61 2217.71 1158.61 Q2221.34 1158.61 2223.15 1155.07 Q2224.98 1151.51 2224.98 1144.4 Q2224.98 1137.27 2223.15 1133.73 Q2221.34 1130.16 2217.71 1130.16 M2217.71 1126.46 Q2223.52 1126.46 2226.57 1131.07 Q2229.65 1135.65 2229.65 1144.4 Q2229.65 1153.13 2226.57 1157.73 Q2223.52 1162.32 2217.71 1162.32 Q2211.9 1162.32 2208.82 1157.73 Q2205.76 1153.13 2205.76 1144.4 Q2205.76 1135.65 2208.82 1131.07 Q2211.9 1126.46 2217.71 1126.46 Z" fill="#000000" fill-rule="evenodd" fill-opacity="1" /><path clip-path="url(#clip710)" d="M2237.87 1155.76 L2242.75 1155.76 L2242.75 1161.64 L2237.87 1161.64 L2237.87 1155.76 Z" fill="#000000" fill-rule="evenodd" fill-opacity="1" /><path clip-path="url(#clip710)" d="M2256.97 1157.71 L2273.29 1157.71 L2273.29 1161.64 L2251.34 1161.64 L2251.34 1157.71 Q2254 1154.95 2258.59 1150.32 Q2263.19 1145.67 2264.37 1144.33 Q2266.62 1141.81 2267.5 1140.07 Q2268.4 1138.31 2268.4 1136.62 Q2268.4 1133.87 2266.46 1132.13 Q2264.54 1130.39 2261.43 1130.39 Q2259.24 1130.39 2256.78 1131.16 Q2254.35 1131.92 2251.57 1133.47 L2251.57 1128.75 Q2254.4 1127.62 2256.85 1127.04 Q2259.31 1126.46 2261.34 1126.46 Q2266.71 1126.46 2269.91 1129.14 Q2273.1 1131.83 2273.1 1136.32 Q2273.1 1138.45 2272.29 1140.37 Q2271.5 1142.27 2269.4 1144.86 Q2268.82 1145.53 2265.72 1148.75 Q2262.62 1151.94 2256.97 1157.71 Z" fill="#000000" fill-rule="evenodd" fill-opacity="1" /><path clip-path="url(#clip710)" d="M2217.71 992.569 Q2214.1 992.569 2212.27 996.134 Q2210.46 999.675 2210.46 1006.81 Q2210.46 1013.91 2212.27 1017.48 Q2214.1 1021.02 2217.71 1021.02 Q2221.34 1021.02 2223.15 1017.48 Q2224.98 1013.91 2224.98 1006.81 Q2224.98 999.675 2223.15 996.134 Q2221.34 992.569 2217.71 992.569 M2217.71 988.865 Q2223.52 988.865 2226.57 993.472 Q2229.65 998.055 2229.65 1006.81 Q2229.65 1015.53 2226.57 1020.14 Q2223.52 1024.72 2217.71 1024.72 Q2211.9 1024.72 2208.82 1020.14 Q2205.76 1015.53 2205.76 1006.81 Q2205.76 998.055 2208.82 993.472 Q2211.9 988.865 2217.71 988.865 Z" fill="#000000" fill-rule="evenodd" fill-opacity="1" /><path clip-path="url(#clip710)" d="M2237.87 1018.17 L2242.75 1018.17 L2242.75 1024.05 L2237.87 1024.05 L2237.87 1018.17 Z" fill="#000000" fill-rule="evenodd" fill-opacity="1" /><path clip-path="url(#clip710)" d="M2267.11 1005.42 Q2270.46 1006.13 2272.34 1008.4 Q2274.24 1010.67 2274.24 1014 Q2274.24 1019.12 2270.72 1021.92 Q2267.2 1024.72 2260.72 1024.72 Q2258.54 1024.72 2256.23 1024.28 Q2253.93 1023.87 2251.48 1023.01 L2251.48 1018.49 Q2253.43 1019.63 2255.74 1020.21 Q2258.06 1020.79 2260.58 1020.79 Q2264.98 1020.79 2267.27 1019.05 Q2269.58 1017.31 2269.58 1014 Q2269.58 1010.95 2267.43 1009.24 Q2265.3 1007.5 2261.48 1007.5 L2257.45 1007.5 L2257.45 1003.66 L2261.67 1003.66 Q2265.12 1003.66 2266.94 1002.29 Q2268.77 1000.9 2268.77 998.31 Q2268.77 995.648 2266.87 994.236 Q2265 992.8 2261.48 992.8 Q2259.56 992.8 2257.36 993.217 Q2255.16 993.634 2252.52 994.513 L2252.52 990.347 Q2255.18 989.606 2257.5 989.236 Q2259.84 988.865 2261.9 988.865 Q2267.22 988.865 2270.32 991.296 Q2273.43 993.703 2273.43 997.824 Q2273.43 1000.69 2271.78 1002.68 Q2270.14 1004.65 2267.11 1005.42 Z" fill="#000000" fill-rule="evenodd" fill-opacity="1" /><path clip-path="url(#clip710)" d="M2217.71 854.975 Q2214.1 854.975 2212.27 858.54 Q2210.46 862.082 2210.46 869.211 Q2210.46 876.318 2212.27 879.883 Q2214.1 883.424 2217.71 883.424 Q2221.34 883.424 2223.15 879.883 Q2224.98 876.318 2224.98 869.211 Q2224.98 862.082 2223.15 858.54 Q2221.34 854.975 2217.71 854.975 M2217.71 851.272 Q2223.52 851.272 2226.57 855.878 Q2229.65 860.462 2229.65 869.211 Q2229.65 877.938 2226.57 882.545 Q2223.52 887.128 2217.71 887.128 Q2211.9 887.128 2208.82 882.545 Q2205.76 877.938 2205.76 869.211 Q2205.76 860.462 2208.82 855.878 Q2211.9 851.272 2217.71 851.272 Z" fill="#000000" fill-rule="evenodd" fill-opacity="1" /><path clip-path="url(#clip710)" d="M2237.87 880.577 L2242.75 880.577 L2242.75 886.457 L2237.87 886.457 L2237.87 880.577 Z" fill="#000000" fill-rule="evenodd" fill-opacity="1" /><path clip-path="url(#clip710)" d="M2265.79 855.971 L2253.98 874.42 L2265.79 874.42 L2265.79 855.971 M2264.56 851.897 L2270.44 851.897 L2270.44 874.42 L2275.37 874.42 L2275.37 878.309 L2270.44 878.309 L2270.44 886.457 L2265.79 886.457 L2265.79 878.309 L2250.18 878.309 L2250.18 873.795 L2264.56 851.897 Z" fill="#000000" fill-rule="evenodd" fill-opacity="1" /><path clip-path="url(#clip710)" d="M2217.71 717.382 Q2214.1 717.382 2212.27 720.947 Q2210.46 724.488 2210.46 731.618 Q2210.46 738.724 2212.27 742.289 Q2214.1 745.831 2217.71 745.831 Q2221.34 745.831 2223.15 742.289 Q2224.98 738.724 2224.98 731.618 Q2224.98 724.488 2223.15 720.947 Q2221.34 717.382 2217.71 717.382 M2217.71 713.678 Q2223.52 713.678 2226.57 718.285 Q2229.65 722.868 2229.65 731.618 Q2229.65 740.345 2226.57 744.951 Q2223.52 749.534 2217.71 749.534 Q2211.9 749.534 2208.82 744.951 Q2205.76 740.345 2205.76 731.618 Q2205.76 722.868 2208.82 718.285 Q2211.9 713.678 2217.71 713.678 Z" fill="#000000" fill-rule="evenodd" fill-opacity="1" /><path clip-path="url(#clip710)" d="M2237.87 742.984 L2242.75 742.984 L2242.75 748.863 L2237.87 748.863 L2237.87 742.984 Z" fill="#000000" fill-rule="evenodd" fill-opacity="1" /><path clip-path="url(#clip710)" d="M2252.99 714.303 L2271.34 714.303 L2271.34 718.238 L2257.27 718.238 L2257.27 726.711 Q2258.29 726.363 2259.31 726.201 Q2260.32 726.016 2261.34 726.016 Q2267.13 726.016 2270.51 729.187 Q2273.89 732.359 2273.89 737.775 Q2273.89 743.354 2270.42 746.456 Q2266.94 749.534 2260.62 749.534 Q2258.45 749.534 2256.18 749.164 Q2253.93 748.794 2251.53 748.053 L2251.53 743.354 Q2253.61 744.488 2255.83 745.044 Q2258.06 745.599 2260.53 745.599 Q2264.54 745.599 2266.87 743.493 Q2269.21 741.386 2269.21 737.775 Q2269.21 734.164 2266.87 732.058 Q2264.54 729.951 2260.53 729.951 Q2258.66 729.951 2256.78 730.368 Q2254.93 730.785 2252.99 731.664 L2252.99 714.303 Z" fill="#000000" fill-rule="evenodd" fill-opacity="1" /><path clip-path="url(#clip710)" d="M2217.71 579.788 Q2214.1 579.788 2212.27 583.353 Q2210.46 586.895 2210.46 594.024 Q2210.46 601.131 2212.27 604.696 Q2214.1 608.237 2217.71 608.237 Q2221.34 608.237 2223.15 604.696 Q2224.98 601.131 2224.98 594.024 Q2224.98 586.895 2223.15 583.353 Q2221.34 579.788 2217.71 579.788 M2217.71 576.085 Q2223.52 576.085 2226.57 580.691 Q2229.65 585.274 2229.65 594.024 Q2229.65 602.751 2226.57 607.358 Q2223.52 611.941 2217.71 611.941 Q2211.9 611.941 2208.82 607.358 Q2205.76 602.751 2205.76 594.024 Q2205.76 585.274 2208.82 580.691 Q2211.9 576.085 2217.71 576.085 Z" fill="#000000" fill-rule="evenodd" fill-opacity="1" /><path clip-path="url(#clip710)" d="M2237.87 605.39 L2242.75 605.39 L2242.75 611.27 L2237.87 611.27 L2237.87 605.39 Z" fill="#000000" fill-rule="evenodd" fill-opacity="1" /><path clip-path="url(#clip710)" d="M2263.52 592.126 Q2260.37 592.126 2258.52 594.279 Q2256.69 596.432 2256.69 600.182 Q2256.69 603.909 2258.52 606.084 Q2260.37 608.237 2263.52 608.237 Q2266.67 608.237 2268.49 606.084 Q2270.35 603.909 2270.35 600.182 Q2270.35 596.432 2268.49 594.279 Q2266.67 592.126 2263.52 592.126 M2272.8 577.473 L2272.8 581.733 Q2271.04 580.899 2269.24 580.46 Q2267.45 580.02 2265.69 580.02 Q2261.06 580.02 2258.61 583.145 Q2256.18 586.27 2255.83 592.589 Q2257.2 590.575 2259.26 589.51 Q2261.32 588.422 2263.8 588.422 Q2269 588.422 2272.01 591.594 Q2275.05 594.742 2275.05 600.182 Q2275.05 605.506 2271.9 608.723 Q2268.75 611.941 2263.52 611.941 Q2257.52 611.941 2254.35 607.358 Q2251.18 602.751 2251.18 594.024 Q2251.18 585.83 2255.07 580.969 Q2258.96 576.085 2265.51 576.085 Q2267.27 576.085 2269.05 576.432 Q2270.86 576.779 2272.8 577.473 Z" fill="#000000" fill-rule="evenodd" fill-opacity="1" /><path clip-path="url(#clip710)" d="M2217.71 442.195 Q2214.1 442.195 2212.27 445.76 Q2210.46 449.301 2210.46 456.431 Q2210.46 463.537 2212.27 467.102 Q2214.1 470.644 2217.71 470.644 Q2221.34 470.644 2223.15 467.102 Q2224.98 463.537 2224.98 456.431 Q2224.98 449.301 2223.15 445.76 Q2221.34 442.195 2217.71 442.195 M2217.71 438.491 Q2223.52 438.491 2226.57 443.097 Q2229.65 447.681 2229.65 456.431 Q2229.65 465.158 2226.57 469.764 Q2223.52 474.347 2217.71 474.347 Q2211.9 474.347 2208.82 469.764 Q2205.76 465.158 2205.76 456.431 Q2205.76 447.681 2208.82 443.097 Q2211.9 438.491 2217.71 438.491 Z" fill="#000000" fill-rule="evenodd" fill-opacity="1" /><path clip-path="url(#clip710)" d="M2237.87 467.796 L2242.75 467.796 L2242.75 473.676 L2237.87 473.676 L2237.87 467.796 Z" fill="#000000" fill-rule="evenodd" fill-opacity="1" /><path clip-path="url(#clip710)" d="M2251.76 439.116 L2273.98 439.116 L2273.98 441.107 L2261.43 473.676 L2256.55 473.676 L2268.36 443.051 L2251.76 443.051 L2251.76 439.116 Z" fill="#000000" fill-rule="evenodd" fill-opacity="1" /><path clip-path="url(#clip710)" d="M2217.71 304.601 Q2214.1 304.601 2212.27 308.166 Q2210.46 311.708 2210.46 318.837 Q2210.46 325.944 2212.27 329.508 Q2214.1 333.05 2217.71 333.05 Q2221.34 333.05 2223.15 329.508 Q2224.98 325.944 2224.98 318.837 Q2224.98 311.708 2223.15 308.166 Q2221.34 304.601 2217.71 304.601 M2217.71 300.897 Q2223.52 300.897 2226.57 305.504 Q2229.65 310.087 2229.65 318.837 Q2229.65 327.564 2226.57 332.17 Q2223.52 336.754 2217.71 336.754 Q2211.9 336.754 2208.82 332.17 Q2205.76 327.564 2205.76 318.837 Q2205.76 310.087 2208.82 305.504 Q2211.9 300.897 2217.71 300.897 Z" fill="#000000" fill-rule="evenodd" fill-opacity="1" /><path clip-path="url(#clip710)" d="M2237.87 330.203 L2242.75 330.203 L2242.75 336.082 L2237.87 336.082 L2237.87 330.203 Z" fill="#000000" fill-rule="evenodd" fill-opacity="1" /><path clip-path="url(#clip710)" d="M2262.94 319.67 Q2259.61 319.67 2257.68 321.453 Q2255.79 323.235 2255.79 326.36 Q2255.79 329.485 2257.68 331.268 Q2259.61 333.05 2262.94 333.05 Q2266.27 333.05 2268.19 331.268 Q2270.12 329.462 2270.12 326.36 Q2270.12 323.235 2268.19 321.453 Q2266.3 319.67 2262.94 319.67 M2258.26 317.68 Q2255.25 316.939 2253.56 314.879 Q2251.9 312.819 2251.9 309.856 Q2251.9 305.712 2254.84 303.305 Q2257.8 300.897 2262.94 300.897 Q2268.1 300.897 2271.04 303.305 Q2273.98 305.712 2273.98 309.856 Q2273.98 312.819 2272.29 314.879 Q2270.62 316.939 2267.64 317.68 Q2271.02 318.467 2272.89 320.758 Q2274.79 323.05 2274.79 326.36 Q2274.79 331.383 2271.71 334.069 Q2268.66 336.754 2262.94 336.754 Q2257.22 336.754 2254.14 334.069 Q2251.09 331.383 2251.09 326.36 Q2251.09 323.05 2252.99 320.758 Q2254.88 318.467 2258.26 317.68 M2256.55 310.296 Q2256.55 312.981 2258.22 314.485 Q2259.91 315.99 2262.94 315.99 Q2265.95 315.99 2267.64 314.485 Q2269.35 312.981 2269.35 310.296 Q2269.35 307.61 2267.64 306.106 Q2265.95 304.601 2262.94 304.601 Q2259.91 304.601 2258.22 306.106 Q2256.55 307.61 2256.55 310.296 Z" fill="#000000" fill-rule="evenodd" fill-opacity="1" /><path clip-path="url(#clip710)" d="M2217.71 167.008 Q2214.1 167.008 2212.27 170.572 Q2210.46 174.114 2210.46 181.244 Q2210.46 188.35 2212.27 191.915 Q2214.1 195.456 2217.71 195.456 Q2221.34 195.456 2223.15 191.915 Q2224.98 188.35 2224.98 181.244 Q2224.98 174.114 2223.15 170.572 Q2221.34 167.008 2217.71 167.008 M2217.71 163.304 Q2223.52 163.304 2226.57 167.91 Q2229.65 172.494 2229.65 181.244 Q2229.65 189.97 2226.57 194.577 Q2223.52 199.16 2217.71 199.16 Q2211.9 199.16 2208.82 194.577 Q2205.76 189.97 2205.76 181.244 Q2205.76 172.494 2208.82 167.91 Q2211.9 163.304 2217.71 163.304 Z" fill="#000000" fill-rule="evenodd" fill-opacity="1" /><path clip-path="url(#clip710)" d="M2237.87 192.609 L2242.75 192.609 L2242.75 198.489 L2237.87 198.489 L2237.87 192.609 Z" fill="#000000" fill-rule="evenodd" fill-opacity="1" /><path clip-path="url(#clip710)" d="M2253.08 197.771 L2253.08 193.512 Q2254.84 194.345 2256.64 194.785 Q2258.45 195.225 2260.18 195.225 Q2264.81 195.225 2267.24 192.123 Q2269.7 188.998 2270.05 182.656 Q2268.7 184.646 2266.64 185.711 Q2264.58 186.776 2262.08 186.776 Q2256.9 186.776 2253.87 183.651 Q2250.86 180.503 2250.86 175.063 Q2250.86 169.739 2254 166.521 Q2257.15 163.304 2262.38 163.304 Q2268.38 163.304 2271.53 167.91 Q2274.7 172.494 2274.7 181.244 Q2274.7 189.415 2270.81 194.299 Q2266.94 199.16 2260.39 199.16 Q2258.63 199.16 2256.83 198.813 Q2255.02 198.466 2253.08 197.771 M2262.38 183.119 Q2265.53 183.119 2267.36 180.966 Q2269.21 178.813 2269.21 175.063 Q2269.21 171.336 2267.36 169.183 Q2265.53 167.008 2262.38 167.008 Q2259.24 167.008 2257.38 169.183 Q2255.56 171.336 2255.56 175.063 Q2255.56 178.813 2257.38 180.966 Q2259.24 183.119 2262.38 183.119 Z" fill="#000000" fill-rule="evenodd" fill-opacity="1" /><path clip-path="url(#clip710)" d="M2206.44 56.9601 L2214.07 56.9601 L2214.07 30.5945 L2205.76 32.2612 L2205.76 28.002 L2214.03 26.3353 L2218.7 26.3353 L2218.7 56.9601 L2226.34 56.9601 L2226.34 60.8953 L2206.44 60.8953 L2206.44 56.9601 Z" fill="#000000" fill-rule="evenodd" fill-opacity="1" /><path clip-path="url(#clip710)" d="M2235.79 55.0157 L2240.67 55.0157 L2240.67 60.8953 L2235.79 60.8953 L2235.79 55.0157 Z" fill="#000000" fill-rule="evenodd" fill-opacity="1" /><path clip-path="url(#clip710)" d="M2260.86 29.414 Q2257.24 29.414 2255.42 32.9788 Q2253.61 36.5204 2253.61 43.65 Q2253.61 50.7565 2255.42 54.3213 Q2257.24 57.8629 2260.86 57.8629 Q2264.49 57.8629 2266.3 54.3213 Q2268.12 50.7565 2268.12 43.65 Q2268.12 36.5204 2266.3 32.9788 Q2264.49 29.414 2260.86 29.414 M2260.86 25.7103 Q2266.67 25.7103 2269.72 30.3168 Q2272.8 34.9001 2272.8 43.65 Q2272.8 52.3768 2269.72 56.9833 Q2266.67 61.5666 2260.86 61.5666 Q2255.05 61.5666 2251.97 56.9833 Q2248.91 52.3768 2248.91 43.65 Q2248.91 34.9001 2251.97 30.3168 Q2255.05 25.7103 2260.86 25.7103 Z" fill="#000000" fill-rule="evenodd" fill-opacity="1" /><polyline clip-path="url(#clip710)" style="stroke:#000000; stroke-linecap:butt; stroke-linejoin:round; stroke-width:4; stroke-opacity:1; fill:none" points="
  2169.76,1423.18 2169.76,1423.18 2193.76,1423.18 2169.76,1423.18 2169.76,1285.59 2193.76,1285.59 2169.76,1285.59 2169.76,1147.99 2193.76,1147.99 2169.76,1147.99 
  2169.76,1010.4 2193.76,1010.4 2169.76,1010.4 2169.76,872.806 2193.76,872.806 2169.76,872.806 2169.76,735.212 2193.76,735.212 2169.76,735.212 2169.76,597.618 
  2193.76,597.618 2169.76,597.618 2169.76,460.025 2193.76,460.025 2169.76,460.025 2169.76,322.431 2193.76,322.431 2169.76,322.431 2169.76,184.838 2193.76,184.838 
  2169.76,184.838 2169.76,47.2441 2193.76,47.2441 2169.76,47.2441 
  "/>
<path clip-path="url(#clip710)" d="M2302.93 1040.05 L2309.71 1040.05 Q2306.68 1043.3 2305.19 1046.99 Q2303.69 1050.65 2303.69 1054.79 Q2303.69 1062.93 2308.69 1067.26 Q2313.65 1071.59 2323.08 1071.59 Q2332.46 1071.59 2337.46 1067.26 Q2342.43 1062.93 2342.43 1054.79 Q2342.43 1050.65 2340.93 1046.99 Q2339.44 1043.3 2336.41 1040.05 L2343.13 1040.05 Q2345.42 1043.42 2346.56 1047.21 Q2347.71 1050.97 2347.71 1055.17 Q2347.71 1065.96 2341.12 1072.16 Q2334.5 1078.37 2323.08 1078.37 Q2311.62 1078.37 2305.03 1072.16 Q2298.41 1065.96 2298.41 1055.17 Q2298.41 1050.9 2299.55 1047.15 Q2300.67 1043.36 2302.93 1040.05 Z" fill="#000000" fill-rule="evenodd" fill-opacity="1" /><path clip-path="url(#clip710)" d="M2315.25 1016.56 Q2315.25 1021.27 2318.94 1024.01 Q2322.6 1026.75 2329 1026.75 Q2335.39 1026.75 2339.09 1024.04 Q2342.75 1021.3 2342.75 1016.56 Q2342.75 1011.88 2339.05 1009.14 Q2335.36 1006.41 2329 1006.41 Q2322.66 1006.41 2318.97 1009.14 Q2315.25 1011.88 2315.25 1016.56 M2310.28 1016.56 Q2310.28 1008.92 2315.25 1004.56 Q2320.21 1000.2 2329 1000.2 Q2337.75 1000.2 2342.75 1004.56 Q2347.71 1008.92 2347.71 1016.56 Q2347.71 1024.23 2342.75 1028.59 Q2337.75 1032.92 2329 1032.92 Q2320.21 1032.92 2315.25 1028.59 Q2310.28 1024.23 2310.28 1016.56 Z" fill="#000000" fill-rule="evenodd" fill-opacity="1" /><path clip-path="url(#clip710)" d="M2325.27 960.86 L2346.79 960.86 L2346.79 966.717 L2325.46 966.717 Q2320.4 966.717 2317.89 968.69 Q2315.37 970.664 2315.37 974.61 Q2315.37 979.353 2318.4 982.09 Q2321.42 984.827 2326.64 984.827 L2346.79 984.827 L2346.79 990.716 L2311.14 990.716 L2311.14 984.827 L2316.68 984.827 Q2313.46 982.727 2311.87 979.894 Q2310.28 977.029 2310.28 973.305 Q2310.28 967.162 2314.1 964.011 Q2317.89 960.86 2325.27 960.86 Z" fill="#000000" fill-rule="evenodd" fill-opacity="1" /><path clip-path="url(#clip710)" d="M2312.51 923.525 L2317.98 923.525 Q2316.61 926.008 2315.95 928.523 Q2315.25 931.005 2315.25 933.551 Q2315.25 939.249 2318.87 942.4 Q2322.47 945.551 2329 945.551 Q2335.52 945.551 2339.15 942.4 Q2342.75 939.249 2342.75 933.551 Q2342.75 931.005 2342.08 928.523 Q2341.38 926.008 2340.01 923.525 L2345.42 923.525 Q2346.56 925.976 2347.14 928.618 Q2347.71 931.228 2347.71 934.188 Q2347.71 942.241 2342.65 946.983 Q2337.59 951.726 2329 951.726 Q2320.27 951.726 2315.28 946.951 Q2310.28 942.145 2310.28 933.806 Q2310.28 931.101 2310.85 928.523 Q2311.39 925.944 2312.51 923.525 Z" fill="#000000" fill-rule="evenodd" fill-opacity="1" /><path clip-path="url(#clip710)" d="M2327.5 882.849 L2330.36 882.849 L2330.36 909.776 Q2336.41 909.394 2339.59 906.147 Q2342.75 902.869 2342.75 897.044 Q2342.75 893.67 2341.92 890.519 Q2341.09 887.336 2339.44 884.217 L2344.97 884.217 Q2346.31 887.368 2347.01 890.678 Q2347.71 893.989 2347.71 897.394 Q2347.71 905.924 2342.75 910.921 Q2337.78 915.887 2329.31 915.887 Q2320.56 915.887 2315.44 911.176 Q2310.28 906.434 2310.28 898.413 Q2310.28 891.22 2314.93 887.05 Q2319.54 882.849 2327.5 882.849 M2325.78 888.705 Q2320.97 888.769 2318.11 891.41 Q2315.25 894.02 2315.25 898.349 Q2315.25 903.251 2318.01 906.211 Q2320.78 909.139 2325.81 909.585 L2325.78 888.705 Z" fill="#000000" fill-rule="evenodd" fill-opacity="1" /><path clip-path="url(#clip710)" d="M2325.27 843.604 L2346.79 843.604 L2346.79 849.46 L2325.46 849.46 Q2320.4 849.46 2317.89 851.434 Q2315.37 853.407 2315.37 857.354 Q2315.37 862.096 2318.4 864.834 Q2321.42 867.571 2326.64 867.571 L2346.79 867.571 L2346.79 873.459 L2311.14 873.459 L2311.14 867.571 L2316.68 867.571 Q2313.46 865.47 2311.87 862.638 Q2310.28 859.773 2310.28 856.049 Q2310.28 849.906 2314.1 846.755 Q2317.89 843.604 2325.27 843.604 Z" fill="#000000" fill-rule="evenodd" fill-opacity="1" /><path clip-path="url(#clip710)" d="M2301.02 826.13 L2311.14 826.13 L2311.14 814.067 L2315.69 814.067 L2315.69 826.13 L2335.04 826.13 Q2339.4 826.13 2340.64 824.953 Q2341.89 823.743 2341.89 820.083 L2341.89 814.067 L2346.79 814.067 L2346.79 820.083 Q2346.79 826.862 2344.27 829.44 Q2341.73 832.018 2335.04 832.018 L2315.69 832.018 L2315.69 836.315 L2311.14 836.315 L2311.14 832.018 L2301.02 832.018 L2301.02 826.13 Z" fill="#000000" fill-rule="evenodd" fill-opacity="1" /><path clip-path="url(#clip710)" d="M2316.61 785.708 Q2316.04 786.695 2315.79 787.872 Q2315.5 789.018 2315.5 790.419 Q2315.5 795.384 2318.75 798.057 Q2321.96 800.699 2328.01 800.699 L2346.79 800.699 L2346.79 806.587 L2311.14 806.587 L2311.14 800.699 L2316.68 800.699 Q2313.43 798.853 2311.87 795.893 Q2310.28 792.933 2310.28 788.7 Q2310.28 788.095 2310.38 787.363 Q2310.44 786.631 2310.6 785.74 L2316.61 785.708 Z" fill="#000000" fill-rule="evenodd" fill-opacity="1" /><path clip-path="url(#clip710)" d="M2328.87 763.364 Q2328.87 770.462 2330.49 773.199 Q2332.11 775.937 2336.03 775.937 Q2339.15 775.937 2340.99 773.9 Q2342.81 771.831 2342.81 768.298 Q2342.81 763.428 2339.37 760.5 Q2335.9 757.54 2330.17 757.54 L2328.87 757.54 L2328.87 763.364 M2326.45 751.683 L2346.79 751.683 L2346.79 757.54 L2341.38 757.54 Q2344.62 759.545 2346.18 762.537 Q2347.71 765.529 2347.71 769.857 Q2347.71 775.332 2344.66 778.578 Q2341.57 781.793 2336.41 781.793 Q2330.4 781.793 2327.34 777.783 Q2324.29 773.74 2324.29 765.751 L2324.29 757.54 L2323.71 757.54 Q2319.67 757.54 2317.47 760.213 Q2315.25 762.855 2315.25 767.661 Q2315.25 770.717 2315.98 773.613 Q2316.71 776.509 2318.17 779.183 L2312.76 779.183 Q2311.52 775.968 2310.92 772.945 Q2310.28 769.921 2310.28 767.056 Q2310.28 759.322 2314.29 755.503 Q2318.3 751.683 2326.45 751.683 Z" fill="#000000" fill-rule="evenodd" fill-opacity="1" /><path clip-path="url(#clip710)" d="M2301.02 733.827 L2311.14 733.827 L2311.14 721.764 L2315.69 721.764 L2315.69 733.827 L2335.04 733.827 Q2339.4 733.827 2340.64 732.65 Q2341.89 731.44 2341.89 727.78 L2341.89 721.764 L2346.79 721.764 L2346.79 727.78 Q2346.79 734.559 2344.27 737.138 Q2341.73 739.716 2335.04 739.716 L2315.69 739.716 L2315.69 744.013 L2311.14 744.013 L2311.14 739.716 L2301.02 739.716 L2301.02 733.827 Z" fill="#000000" fill-rule="evenodd" fill-opacity="1" /><path clip-path="url(#clip710)" d="M2311.14 714.062 L2311.14 708.205 L2346.79 708.205 L2346.79 714.062 L2311.14 714.062 M2297.26 714.062 L2297.26 708.205 L2304.68 708.205 L2304.68 714.062 L2297.26 714.062 Z" fill="#000000" fill-rule="evenodd" fill-opacity="1" /><path clip-path="url(#clip710)" d="M2315.25 682.138 Q2315.25 686.849 2318.94 689.586 Q2322.6 692.323 2329 692.323 Q2335.39 692.323 2339.09 689.618 Q2342.75 686.88 2342.75 682.138 Q2342.75 677.459 2339.05 674.722 Q2335.36 671.985 2329 671.985 Q2322.66 671.985 2318.97 674.722 Q2315.25 677.459 2315.25 682.138 M2310.28 682.138 Q2310.28 674.499 2315.25 670.139 Q2320.21 665.778 2329 665.778 Q2337.75 665.778 2342.75 670.139 Q2347.71 674.499 2347.71 682.138 Q2347.71 689.809 2342.75 694.169 Q2337.75 698.498 2329 698.498 Q2320.21 698.498 2315.25 694.169 Q2310.28 689.809 2310.28 682.138 Z" fill="#000000" fill-rule="evenodd" fill-opacity="1" /><path clip-path="url(#clip710)" d="M2325.27 626.438 L2346.79 626.438 L2346.79 632.294 L2325.46 632.294 Q2320.4 632.294 2317.89 634.268 Q2315.37 636.241 2315.37 640.188 Q2315.37 644.93 2318.4 647.668 Q2321.42 650.405 2326.64 650.405 L2346.79 650.405 L2346.79 656.293 L2311.14 656.293 L2311.14 650.405 L2316.68 650.405 Q2313.46 648.304 2311.87 645.471 Q2310.28 642.607 2310.28 638.883 Q2310.28 632.74 2314.1 629.589 Q2317.89 626.438 2325.27 626.438 Z" fill="#000000" fill-rule="evenodd" fill-opacity="1" /><path clip-path="url(#clip710)" d="M2338.7 613.261 L2338.7 606.545 L2344.18 606.545 L2354.36 611.765 L2354.36 615.871 L2344.18 613.261 L2338.7 613.261 Z" fill="#000000" fill-rule="evenodd" fill-opacity="1" /><path clip-path="url(#clip710)" d="M2297.26 573.539 L2297.26 567.651 L2326.51 567.651 L2311.14 550.177 L2311.14 542.697 L2327.82 561.603 L2346.79 541.901 L2346.79 549.54 L2329.38 567.651 L2346.79 567.651 L2346.79 573.539 L2297.26 573.539 Z" fill="#000000" fill-rule="evenodd" fill-opacity="1" /><path clip-path="url(#clip710)" d="M2328.55 512.11 Q2322.18 512.11 2318.68 514.752 Q2315.18 517.362 2315.18 522.104 Q2315.18 526.815 2318.68 529.456 Q2322.18 532.066 2328.55 532.066 Q2334.88 532.066 2338.39 529.456 Q2341.89 526.815 2341.89 522.104 Q2341.89 517.362 2338.39 514.752 Q2334.88 512.11 2328.55 512.11 M2342.36 506.253 Q2351.47 506.253 2355.89 510.296 Q2360.35 514.338 2360.35 522.677 Q2360.35 525.764 2359.87 528.502 Q2359.42 531.239 2358.47 533.817 L2352.77 533.817 Q2354.17 531.239 2354.84 528.724 Q2355.51 526.21 2355.51 523.6 Q2355.51 517.839 2352.49 514.974 Q2349.49 512.11 2343.41 512.11 L2340.52 512.11 Q2343.67 513.924 2345.23 516.757 Q2346.79 519.59 2346.79 523.536 Q2346.79 530.093 2341.79 534.103 Q2336.79 538.114 2328.55 538.114 Q2320.27 538.114 2315.28 534.103 Q2310.28 530.093 2310.28 523.536 Q2310.28 519.59 2311.84 516.757 Q2313.4 513.924 2316.55 512.11 L2311.14 512.11 L2311.14 506.253 L2342.36 506.253 Z" fill="#000000" fill-rule="evenodd" fill-opacity="1" /><path clip-path="url(#clip710)" d="M2299.27 483.782 L2299.27 478.372 L2352.84 494.922 L2352.84 500.333 L2299.27 483.782 Z" fill="#000000" fill-rule="evenodd" fill-opacity="1" /><path clip-path="url(#clip710)" d="M2317.98 444.474 Q2314.04 442.278 2312.16 439.223 Q2310.28 436.167 2310.28 432.029 Q2310.28 426.459 2314.2 423.436 Q2318.08 420.412 2325.27 420.412 L2346.79 420.412 L2346.79 426.3 L2325.46 426.3 Q2320.34 426.3 2317.86 428.114 Q2315.37 429.929 2315.37 433.653 Q2315.37 438.204 2318.4 440.846 Q2321.42 443.488 2326.64 443.488 L2346.79 443.488 L2346.79 449.376 L2325.46 449.376 Q2320.31 449.376 2317.86 451.19 Q2315.37 453.004 2315.37 456.792 Q2315.37 461.28 2318.43 463.921 Q2321.45 466.563 2326.64 466.563 L2346.79 466.563 L2346.79 472.452 L2311.14 472.452 L2311.14 466.563 L2316.68 466.563 Q2313.4 464.558 2311.84 461.757 Q2310.28 458.956 2310.28 455.105 Q2310.28 451.222 2312.25 448.516 Q2314.23 445.779 2317.98 444.474 Z" fill="#000000" fill-rule="evenodd" fill-opacity="1" /><path clip-path="url(#clip710)" d="M2311.14 398.196 Q2311.71 395.267 2313.46 393.676 Q2315.18 392.053 2317.79 392.053 Q2321.74 392.053 2323.87 395.076 Q2326 398.1 2326 403.734 Q2326 405.548 2325.69 407.553 Q2325.34 409.527 2324.7 411.755 L2320.85 411.755 Q2321.71 410.099 2322.12 408.222 Q2322.53 406.312 2322.53 404.179 Q2322.53 400.71 2321.29 398.8 Q2320.02 396.891 2317.79 396.891 Q2315.44 396.891 2314.23 398.673 Q2313.02 400.424 2313.02 403.861 L2313.02 406.598 L2309.58 406.598 L2309.58 403.606 Q2309.58 400.615 2308.59 399.087 Q2307.58 397.527 2305.67 397.527 Q2303.82 397.527 2302.86 399.119 Q2301.88 400.71 2301.88 403.734 Q2301.88 405.007 2302.16 406.63 Q2302.45 408.253 2303.18 410.831 L2299.52 410.831 Q2298.98 408.508 2298.69 406.471 Q2298.41 404.434 2298.41 402.683 Q2298.41 398.1 2300.29 395.426 Q2302.16 392.721 2305.32 392.721 Q2307.51 392.721 2309.04 394.153 Q2310.57 395.586 2311.14 398.196 Z" fill="#000000" fill-rule="evenodd" fill-opacity="1" /></svg>
