<?xml version="1.0" encoding="utf-8"?>
<svg xmlns="http://www.w3.org/2000/svg" xmlns:xlink="http://www.w3.org/1999/xlink" width="600" height="400" viewBox="0 0 2400 1600">
<defs>
  <clipPath id="clip940">
    <rect x="0" y="0" width="2400" height="1600"/>
  </clipPath>
</defs>
<path clip-path="url(#clip940)" d="
M0 1600 L2400 1600 L2400 0 L0 0  Z
  " fill="#ffffff" fill-rule="evenodd" fill-opacity="1"/>
<defs>
  <clipPath id="clip941">
    <rect x="480" y="0" width="1681" height="1600"/>
  </clipPath>
</defs>
<path clip-path="url(#clip940)" d="
M219.866 1423.18 L2352.76 1423.18 L2352.76 123.472 L219.866 123.472  Z
  " fill="#ffffff" fill-rule="evenodd" fill-opacity="1"/>
<defs>
  <clipPath id="clip942">
    <rect x="219" y="123" width="2134" height="1301"/>
  </clipPath>
</defs>
<polyline clip-path="url(#clip942)" style="stroke:#000000; stroke-linecap:butt; stroke-linejoin:round; stroke-width:2; stroke-opacity:0.1; fill:none" points="
  241.117,1423.18 241.117,123.472 
  "/>
<polyline clip-path="url(#clip942)" style="stroke:#000000; stroke-linecap:butt; stroke-linejoin:round; stroke-width:2; stroke-opacity:0.1; fill:none" points="
  754.423,1423.18 754.423,123.472 
  "/>
<polyline clip-path="url(#clip942)" style="stroke:#000000; stroke-linecap:butt; stroke-linejoin:round; stroke-width:2; stroke-opacity:0.1; fill:none" points="
  1267.73,1423.18 1267.73,123.472 
  "/>
<polyline clip-path="url(#clip942)" style="stroke:#000000; stroke-linecap:butt; stroke-linejoin:round; stroke-width:2; stroke-opacity:0.1; fill:none" points="
  1781.04,1423.18 1781.04,123.472 
  "/>
<polyline clip-path="url(#clip942)" style="stroke:#000000; stroke-linecap:butt; stroke-linejoin:round; stroke-width:2; stroke-opacity:0.1; fill:none" points="
  2294.34,1423.18 2294.34,123.472 
  "/>
<polyline clip-path="url(#clip940)" style="stroke:#000000; stroke-linecap:butt; stroke-linejoin:round; stroke-width:4; stroke-opacity:1; fill:none" points="
  219.866,1423.18 2352.76,1423.18 
  "/>
<polyline clip-path="url(#clip940)" style="stroke:#000000; stroke-linecap:butt; stroke-linejoin:round; stroke-width:4; stroke-opacity:1; fill:none" points="
  241.117,1423.18 241.117,1404.28 
  "/>
<polyline clip-path="url(#clip940)" style="stroke:#000000; stroke-linecap:butt; stroke-linejoin:round; stroke-width:4; stroke-opacity:1; fill:none" points="
  754.423,1423.18 754.423,1404.28 
  "/>
<polyline clip-path="url(#clip940)" style="stroke:#000000; stroke-linecap:butt; stroke-linejoin:round; stroke-width:4; stroke-opacity:1; fill:none" points="
  1267.73,1423.18 1267.73,1404.28 
  "/>
<polyline clip-path="url(#clip940)" style="stroke:#000000; stroke-linecap:butt; stroke-linejoin:round; stroke-width:4; stroke-opacity:1; fill:none" points="
  1781.04,1423.18 1781.04,1404.28 
  "/>
<polyline clip-path="url(#clip940)" style="stroke:#000000; stroke-linecap:butt; stroke-linejoin:round; stroke-width:4; stroke-opacity:1; fill:none" points="
  2294.34,1423.18 2294.34,1404.28 
  "/>
<path clip-path="url(#clip940)" d="M218.502 1454.1 Q214.89 1454.1 213.062 1457.66 Q211.256 1461.2 211.256 1468.33 Q211.256 1475.44 213.062 1479.01 Q214.89 1482.55 218.502 1482.55 Q222.136 1482.55 223.941 1479.01 Q225.77 1475.44 225.77 1468.33 Q225.77 1461.2 223.941 1457.66 Q222.136 1454.1 218.502 1454.1 M218.502 1450.39 Q224.312 1450.39 227.367 1455 Q230.446 1459.58 230.446 1468.33 Q230.446 1477.06 227.367 1481.67 Q224.312 1486.25 218.502 1486.25 Q212.691 1486.25 209.613 1481.67 Q206.557 1477.06 206.557 1468.33 Q206.557 1459.58 209.613 1455 Q212.691 1450.39 218.502 1450.39 Z" fill="#000000" fill-rule="evenodd" fill-opacity="1" /><path clip-path="url(#clip940)" d="M238.663 1479.7 L243.548 1479.7 L243.548 1485.58 L238.663 1485.58 L238.663 1479.7 Z" fill="#000000" fill-rule="evenodd" fill-opacity="1" /><path clip-path="url(#clip940)" d="M263.733 1454.1 Q260.122 1454.1 258.293 1457.66 Q256.487 1461.2 256.487 1468.33 Q256.487 1475.44 258.293 1479.01 Q260.122 1482.55 263.733 1482.55 Q267.367 1482.55 269.173 1479.01 Q271.001 1475.44 271.001 1468.33 Q271.001 1461.2 269.173 1457.66 Q267.367 1454.1 263.733 1454.1 M263.733 1450.39 Q269.543 1450.39 272.598 1455 Q275.677 1459.58 275.677 1468.33 Q275.677 1477.06 272.598 1481.67 Q269.543 1486.25 263.733 1486.25 Q257.923 1486.25 254.844 1481.67 Q251.788 1477.06 251.788 1468.33 Q251.788 1459.58 254.844 1455 Q257.923 1450.39 263.733 1450.39 Z" fill="#000000" fill-rule="evenodd" fill-opacity="1" /><path clip-path="url(#clip940)" d="M732.305 1454.1 Q728.694 1454.1 726.866 1457.66 Q725.06 1461.2 725.06 1468.33 Q725.06 1475.44 726.866 1479.01 Q728.694 1482.55 732.305 1482.55 Q735.94 1482.55 737.745 1479.01 Q739.574 1475.44 739.574 1468.33 Q739.574 1461.2 737.745 1457.66 Q735.94 1454.1 732.305 1454.1 M732.305 1450.39 Q738.115 1450.39 741.171 1455 Q744.25 1459.58 744.25 1468.33 Q744.25 1477.06 741.171 1481.67 Q738.115 1486.25 732.305 1486.25 Q726.495 1486.25 723.416 1481.67 Q720.361 1477.06 720.361 1468.33 Q720.361 1459.58 723.416 1455 Q726.495 1450.39 732.305 1450.39 Z" fill="#000000" fill-rule="evenodd" fill-opacity="1" /><path clip-path="url(#clip940)" d="M752.467 1479.7 L757.351 1479.7 L757.351 1485.58 L752.467 1485.58 L752.467 1479.7 Z" fill="#000000" fill-rule="evenodd" fill-opacity="1" /><path clip-path="url(#clip940)" d="M767.583 1451.02 L785.939 1451.02 L785.939 1454.96 L771.865 1454.96 L771.865 1463.43 Q772.884 1463.08 773.902 1462.92 Q774.921 1462.73 775.939 1462.73 Q781.726 1462.73 785.106 1465.9 Q788.486 1469.08 788.486 1474.49 Q788.486 1480.07 785.013 1483.17 Q781.541 1486.25 775.222 1486.25 Q773.046 1486.25 770.777 1485.88 Q768.532 1485.51 766.125 1484.77 L766.125 1480.07 Q768.208 1481.2 770.43 1481.76 Q772.652 1482.32 775.129 1482.32 Q779.134 1482.32 781.472 1480.21 Q783.81 1478.1 783.81 1474.49 Q783.81 1470.88 781.472 1468.77 Q779.134 1466.67 775.129 1466.67 Q773.254 1466.67 771.379 1467.08 Q769.527 1467.5 767.583 1468.38 L767.583 1451.02 Z" fill="#000000" fill-rule="evenodd" fill-opacity="1" /><path clip-path="url(#clip940)" d="M1234.88 1481.64 L1242.52 1481.64 L1242.52 1455.28 L1234.21 1456.95 L1234.21 1452.69 L1242.47 1451.02 L1247.15 1451.02 L1247.15 1481.64 L1254.79 1481.64 L1254.79 1485.58 L1234.88 1485.58 L1234.88 1481.64 Z" fill="#000000" fill-rule="evenodd" fill-opacity="1" /><path clip-path="url(#clip940)" d="M1264.23 1479.7 L1269.12 1479.7 L1269.12 1485.58 L1264.23 1485.58 L1264.23 1479.7 Z" fill="#000000" fill-rule="evenodd" fill-opacity="1" /><path clip-path="url(#clip940)" d="M1289.3 1454.1 Q1285.69 1454.1 1283.86 1457.66 Q1282.06 1461.2 1282.06 1468.33 Q1282.06 1475.44 1283.86 1479.01 Q1285.69 1482.55 1289.3 1482.55 Q1292.94 1482.55 1294.74 1479.01 Q1296.57 1475.44 1296.57 1468.33 Q1296.57 1461.2 1294.74 1457.66 Q1292.94 1454.1 1289.3 1454.1 M1289.3 1450.39 Q1295.11 1450.39 1298.17 1455 Q1301.25 1459.58 1301.25 1468.33 Q1301.25 1477.06 1298.17 1481.67 Q1295.11 1486.25 1289.3 1486.25 Q1283.49 1486.25 1280.41 1481.67 Q1277.36 1477.06 1277.36 1468.33 Q1277.36 1459.58 1280.41 1455 Q1283.49 1450.39 1289.3 1450.39 Z" fill="#000000" fill-rule="evenodd" fill-opacity="1" /><path clip-path="url(#clip940)" d="M1748.69 1481.64 L1756.33 1481.64 L1756.33 1455.28 L1748.01 1456.95 L1748.01 1452.69 L1756.28 1451.02 L1760.95 1451.02 L1760.95 1481.64 L1768.59 1481.64 L1768.59 1485.58 L1748.69 1485.58 L1748.69 1481.64 Z" fill="#000000" fill-rule="evenodd" fill-opacity="1" /><path clip-path="url(#clip940)" d="M1778.04 1479.7 L1782.92 1479.7 L1782.92 1485.58 L1778.04 1485.58 L1778.04 1479.7 Z" fill="#000000" fill-rule="evenodd" fill-opacity="1" /><path clip-path="url(#clip940)" d="M1793.15 1451.02 L1811.51 1451.02 L1811.51 1454.96 L1797.44 1454.96 L1797.44 1463.43 Q1798.45 1463.08 1799.47 1462.92 Q1800.49 1462.73 1801.51 1462.73 Q1807.3 1462.73 1810.68 1465.9 Q1814.06 1469.08 1814.06 1474.49 Q1814.06 1480.07 1810.58 1483.17 Q1807.11 1486.25 1800.79 1486.25 Q1798.62 1486.25 1796.35 1485.88 Q1794.1 1485.51 1791.7 1484.77 L1791.7 1480.07 Q1793.78 1481.2 1796 1481.76 Q1798.22 1482.32 1800.7 1482.32 Q1804.7 1482.32 1807.04 1480.21 Q1809.38 1478.1 1809.38 1474.49 Q1809.38 1470.88 1807.04 1468.77 Q1804.7 1466.67 1800.7 1466.67 Q1798.82 1466.67 1796.95 1467.08 Q1795.1 1467.5 1793.15 1468.38 L1793.15 1451.02 Z" fill="#000000" fill-rule="evenodd" fill-opacity="1" /><path clip-path="url(#clip940)" d="M2265.58 1481.64 L2281.9 1481.64 L2281.9 1485.58 L2259.96 1485.58 L2259.96 1481.64 Q2262.62 1478.89 2267.2 1474.26 Q2271.81 1469.61 2272.99 1468.27 Q2275.23 1465.74 2276.11 1464.01 Q2277.02 1462.25 2277.02 1460.56 Q2277.02 1457.8 2275.07 1456.07 Q2273.15 1454.33 2270.05 1454.33 Q2267.85 1454.33 2265.4 1455.09 Q2262.96 1455.86 2260.19 1457.41 L2260.19 1452.69 Q2263.01 1451.55 2265.46 1450.97 Q2267.92 1450.39 2269.96 1450.39 Q2275.33 1450.39 2278.52 1453.08 Q2281.71 1455.77 2281.71 1460.26 Q2281.71 1462.39 2280.9 1464.31 Q2280.12 1466.2 2278.01 1468.8 Q2277.43 1469.47 2274.33 1472.69 Q2271.23 1475.88 2265.58 1481.64 Z" fill="#000000" fill-rule="evenodd" fill-opacity="1" /><path clip-path="url(#clip940)" d="M2291.71 1479.7 L2296.6 1479.7 L2296.6 1485.58 L2291.71 1485.58 L2291.71 1479.7 Z" fill="#000000" fill-rule="evenodd" fill-opacity="1" /><path clip-path="url(#clip940)" d="M2316.78 1454.1 Q2313.17 1454.1 2311.34 1457.66 Q2309.54 1461.2 2309.54 1468.33 Q2309.54 1475.44 2311.34 1479.01 Q2313.17 1482.55 2316.78 1482.55 Q2320.42 1482.55 2322.22 1479.01 Q2324.05 1475.44 2324.05 1468.33 Q2324.05 1461.2 2322.22 1457.66 Q2320.42 1454.1 2316.78 1454.1 M2316.78 1450.39 Q2322.59 1450.39 2325.65 1455 Q2328.73 1459.58 2328.73 1468.33 Q2328.73 1477.06 2325.65 1481.67 Q2322.59 1486.25 2316.78 1486.25 Q2310.97 1486.25 2307.89 1481.67 Q2304.84 1477.06 2304.84 1468.33 Q2304.84 1459.58 2307.89 1455 Q2310.97 1450.39 2316.78 1450.39 Z" fill="#000000" fill-rule="evenodd" fill-opacity="1" /><path clip-path="url(#clip940)" d="M827.98 1525.81 L827.98 1562.76 L835.746 1562.76 Q845.581 1562.76 850.133 1558.3 Q854.716 1553.85 854.716 1544.24 Q854.716 1534.69 850.133 1530.26 Q845.581 1525.81 835.746 1525.81 L827.98 1525.81 M821.551 1520.52 L834.76 1520.52 Q848.573 1520.52 855.034 1526.28 Q861.496 1532.01 861.496 1544.24 Q861.496 1556.52 855.003 1562.28 Q848.51 1568.04 834.76 1568.04 L821.551 1568.04 L821.551 1520.52 Z" fill="#000000" fill-rule="evenodd" fill-opacity="1" /><path clip-path="url(#clip940)" d="M885.303 1536.5 Q880.593 1536.5 877.856 1540.19 Q875.118 1543.85 875.118 1550.25 Q875.118 1556.65 877.824 1560.34 Q880.561 1564 885.303 1564 Q889.982 1564 892.719 1560.31 Q895.457 1556.62 895.457 1550.25 Q895.457 1543.92 892.719 1540.23 Q889.982 1536.5 885.303 1536.5 M885.303 1531.54 Q892.942 1531.54 897.303 1536.5 Q901.663 1541.47 901.663 1550.25 Q901.663 1559 897.303 1564 Q892.942 1568.97 885.303 1568.97 Q877.633 1568.97 873.272 1564 Q868.944 1559 868.944 1550.25 Q868.944 1541.47 873.272 1536.5 Q877.633 1531.54 885.303 1531.54 Z" fill="#000000" fill-rule="evenodd" fill-opacity="1" /><path clip-path="url(#clip940)" d="M907.965 1532.4 L913.822 1532.4 L921.142 1560.21 L928.431 1532.4 L935.338 1532.4 L942.658 1560.21 L949.947 1532.4 L955.804 1532.4 L946.478 1568.04 L939.571 1568.04 L931.9 1538.83 L924.198 1568.04 L917.291 1568.04 L907.965 1532.4 Z" fill="#000000" fill-rule="evenodd" fill-opacity="1" /><path clip-path="url(#clip940)" d="M994.316 1546.53 L994.316 1568.04 L988.46 1568.04 L988.46 1546.72 Q988.46 1541.66 986.486 1539.14 Q984.513 1536.63 980.566 1536.63 Q975.824 1536.63 973.086 1539.65 Q970.349 1542.68 970.349 1547.9 L970.349 1568.04 L964.461 1568.04 L964.461 1532.4 L970.349 1532.4 L970.349 1537.93 Q972.45 1534.72 975.283 1533.13 Q978.147 1531.54 981.871 1531.54 Q988.014 1531.54 991.165 1535.36 Q994.316 1539.14 994.316 1546.53 Z" fill="#000000" fill-rule="evenodd" fill-opacity="1" /><path clip-path="url(#clip940)" d="M1028.72 1533.45 L1028.72 1538.98 Q1026.24 1537.71 1023.57 1537.07 Q1020.89 1536.44 1018.03 1536.44 Q1013.67 1536.44 1011.47 1537.77 Q1009.31 1539.11 1009.31 1541.79 Q1009.31 1543.82 1010.87 1545 Q1012.43 1546.15 1017.14 1547.2 L1019.14 1547.64 Q1025.38 1548.98 1027.99 1551.43 Q1030.63 1553.85 1030.63 1558.21 Q1030.63 1563.17 1026.69 1566.07 Q1022.77 1568.97 1015.9 1568.97 Q1013.03 1568.97 1009.91 1568.39 Q1006.82 1567.85 1003.39 1566.74 L1003.39 1560.69 Q1006.63 1562.38 1009.78 1563.24 Q1012.94 1564.07 1016.02 1564.07 Q1020.16 1564.07 1022.39 1562.66 Q1024.62 1561.23 1024.62 1558.65 Q1024.62 1556.27 1022.99 1554.99 Q1021.4 1553.72 1015.96 1552.54 L1013.92 1552.07 Q1008.48 1550.92 1006.06 1548.56 Q1003.64 1546.18 1003.64 1542.04 Q1003.64 1537.01 1007.21 1534.27 Q1010.77 1531.54 1017.33 1531.54 Q1020.57 1531.54 1023.44 1532.01 Q1026.3 1532.49 1028.72 1533.45 Z" fill="#000000" fill-rule="evenodd" fill-opacity="1" /><path clip-path="url(#clip940)" d="M1045.75 1522.27 L1045.75 1532.4 L1057.81 1532.4 L1057.81 1536.95 L1045.75 1536.95 L1045.75 1556.3 Q1045.75 1560.66 1046.93 1561.9 Q1048.14 1563.14 1051.8 1563.14 L1057.81 1563.14 L1057.81 1568.04 L1051.8 1568.04 Q1045.02 1568.04 1042.44 1565.53 Q1039.86 1562.98 1039.86 1556.3 L1039.86 1536.95 L1035.57 1536.95 L1035.57 1532.4 L1039.86 1532.4 L1039.86 1522.27 L1045.75 1522.27 Z" fill="#000000" fill-rule="evenodd" fill-opacity="1" /><path clip-path="url(#clip940)" d="M1086.17 1537.87 Q1085.19 1537.3 1084.01 1537.04 Q1082.86 1536.76 1081.46 1536.76 Q1076.5 1536.76 1073.82 1540 Q1071.18 1543.22 1071.18 1549.27 L1071.18 1568.04 L1065.29 1568.04 L1065.29 1532.4 L1071.18 1532.4 L1071.18 1537.93 Q1073.03 1534.69 1075.99 1533.13 Q1078.95 1531.54 1083.18 1531.54 Q1083.79 1531.54 1084.52 1531.63 Q1085.25 1531.7 1086.14 1531.85 L1086.17 1537.87 Z" fill="#000000" fill-rule="evenodd" fill-opacity="1" /><path clip-path="url(#clip940)" d="M1121.38 1548.76 L1121.38 1551.62 L1094.45 1551.62 Q1094.83 1557.67 1098.08 1560.85 Q1101.36 1564 1107.18 1564 Q1110.55 1564 1113.7 1563.17 Q1116.89 1562.35 1120.01 1560.69 L1120.01 1566.23 Q1116.86 1567.57 1113.55 1568.27 Q1110.24 1568.97 1106.83 1568.97 Q1098.3 1568.97 1093.3 1564 Q1088.34 1559.04 1088.34 1550.57 Q1088.34 1541.82 1093.05 1536.69 Q1097.79 1531.54 1105.81 1531.54 Q1113 1531.54 1117.17 1536.18 Q1121.38 1540.8 1121.38 1548.76 M1115.52 1547.04 Q1115.46 1542.23 1112.81 1539.37 Q1110.2 1536.5 1105.88 1536.5 Q1100.97 1536.5 1098.01 1539.27 Q1095.09 1542.04 1094.64 1547.07 L1115.52 1547.04 Z" fill="#000000" fill-rule="evenodd" fill-opacity="1" /><path clip-path="url(#clip940)" d="M1147.19 1550.12 Q1140.09 1550.12 1137.35 1551.75 Q1134.62 1553.37 1134.62 1557.29 Q1134.62 1560.4 1136.65 1562.25 Q1138.72 1564.07 1142.26 1564.07 Q1147.12 1564.07 1150.05 1560.63 Q1153.01 1557.16 1153.01 1551.43 L1153.01 1550.12 L1147.19 1550.12 M1158.87 1547.71 L1158.87 1568.04 L1153.01 1568.04 L1153.01 1562.63 Q1151.01 1565.88 1148.02 1567.44 Q1145.02 1568.97 1140.7 1568.97 Q1135.22 1568.97 1131.97 1565.91 Q1128.76 1562.82 1128.76 1557.67 Q1128.76 1551.65 1132.77 1548.6 Q1136.81 1545.54 1144.8 1545.54 L1153.01 1545.54 L1153.01 1544.97 Q1153.01 1540.93 1150.34 1538.73 Q1147.7 1536.5 1142.89 1536.5 Q1139.84 1536.5 1136.94 1537.23 Q1134.04 1537.97 1131.37 1539.43 L1131.37 1534.02 Q1134.58 1532.78 1137.61 1532.17 Q1140.63 1531.54 1143.5 1531.54 Q1151.23 1531.54 1155.05 1535.55 Q1158.87 1539.56 1158.87 1547.71 Z" fill="#000000" fill-rule="evenodd" fill-opacity="1" /><path clip-path="url(#clip940)" d="M1198.69 1539.24 Q1200.88 1535.29 1203.94 1533.41 Q1206.99 1531.54 1211.13 1531.54 Q1216.7 1531.54 1219.73 1535.45 Q1222.75 1539.33 1222.75 1546.53 L1222.75 1568.04 L1216.86 1568.04 L1216.86 1546.72 Q1216.86 1541.59 1215.05 1539.11 Q1213.23 1536.63 1209.51 1536.63 Q1204.96 1536.63 1202.32 1539.65 Q1199.67 1542.68 1199.67 1547.9 L1199.67 1568.04 L1193.79 1568.04 L1193.79 1546.72 Q1193.79 1541.56 1191.97 1539.11 Q1190.16 1536.63 1186.37 1536.63 Q1181.88 1536.63 1179.24 1539.68 Q1176.6 1542.71 1176.6 1547.9 L1176.6 1568.04 L1170.71 1568.04 L1170.71 1532.4 L1176.6 1532.4 L1176.6 1537.93 Q1178.6 1534.66 1181.4 1533.1 Q1184.21 1531.54 1188.06 1531.54 Q1191.94 1531.54 1194.64 1533.51 Q1197.38 1535.48 1198.69 1539.24 Z" fill="#000000" fill-rule="evenodd" fill-opacity="1" /><path clip-path="url(#clip940)" d="M1278.61 1537.81 L1278.61 1518.52 L1284.47 1518.52 L1284.47 1568.04 L1278.61 1568.04 L1278.61 1562.7 Q1276.76 1565.88 1273.93 1567.44 Q1271.13 1568.97 1267.18 1568.97 Q1260.72 1568.97 1256.65 1563.81 Q1252.6 1558.65 1252.6 1550.25 Q1252.6 1541.85 1256.65 1536.69 Q1260.72 1531.54 1267.18 1531.54 Q1271.13 1531.54 1273.93 1533.1 Q1276.76 1534.62 1278.61 1537.81 M1258.65 1550.25 Q1258.65 1556.71 1261.29 1560.4 Q1263.97 1564.07 1268.61 1564.07 Q1273.26 1564.07 1275.93 1560.4 Q1278.61 1556.71 1278.61 1550.25 Q1278.61 1543.79 1275.93 1540.13 Q1273.26 1536.44 1268.61 1536.44 Q1263.97 1536.44 1261.29 1540.13 Q1258.65 1543.79 1258.65 1550.25 Z" fill="#000000" fill-rule="evenodd" fill-opacity="1" /><path clip-path="url(#clip940)" d="M1296.53 1532.4 L1302.38 1532.4 L1302.38 1568.04 L1296.53 1568.04 L1296.53 1532.4 M1296.53 1518.52 L1302.38 1518.52 L1302.38 1525.93 L1296.53 1525.93 L1296.53 1518.52 Z" fill="#000000" fill-rule="evenodd" fill-opacity="1" /><path clip-path="url(#clip940)" d="M1337.36 1533.45 L1337.36 1538.98 Q1334.88 1537.71 1332.21 1537.07 Q1329.53 1536.44 1326.67 1536.44 Q1322.31 1536.44 1320.11 1537.77 Q1317.95 1539.11 1317.95 1541.79 Q1317.95 1543.82 1319.51 1545 Q1321.07 1546.15 1325.78 1547.2 L1327.78 1547.64 Q1334.02 1548.98 1336.63 1551.43 Q1339.27 1553.85 1339.27 1558.21 Q1339.27 1563.17 1335.33 1566.07 Q1331.41 1568.97 1324.54 1568.97 Q1321.67 1568.97 1318.55 1568.39 Q1315.47 1567.85 1312.03 1566.74 L1312.03 1560.69 Q1315.28 1562.38 1318.43 1563.24 Q1321.58 1564.07 1324.66 1564.07 Q1328.8 1564.07 1331.03 1562.66 Q1333.26 1561.23 1333.26 1558.65 Q1333.26 1556.27 1331.63 1554.99 Q1330.04 1553.72 1324.6 1552.54 L1322.56 1552.07 Q1317.12 1550.92 1314.7 1548.56 Q1312.28 1546.18 1312.28 1542.04 Q1312.28 1537.01 1315.85 1534.27 Q1319.41 1531.54 1325.97 1531.54 Q1329.22 1531.54 1332.08 1532.01 Q1334.95 1532.49 1337.36 1533.45 Z" fill="#000000" fill-rule="evenodd" fill-opacity="1" /><path clip-path="url(#clip940)" d="M1354.39 1522.27 L1354.39 1532.4 L1366.46 1532.4 L1366.46 1536.95 L1354.39 1536.95 L1354.39 1556.3 Q1354.39 1560.66 1355.57 1561.9 Q1356.78 1563.14 1360.44 1563.14 L1366.46 1563.14 L1366.46 1568.04 L1360.44 1568.04 Q1353.66 1568.04 1351.08 1565.53 Q1348.5 1562.98 1348.5 1556.3 L1348.5 1536.95 L1344.21 1536.95 L1344.21 1532.4 L1348.5 1532.4 L1348.5 1522.27 L1354.39 1522.27 Z" fill="#000000" fill-rule="evenodd" fill-opacity="1" /><path clip-path="url(#clip940)" d="M1390.36 1550.12 Q1383.26 1550.12 1380.52 1551.75 Q1377.79 1553.37 1377.79 1557.29 Q1377.79 1560.4 1379.82 1562.25 Q1381.89 1564.07 1385.43 1564.07 Q1390.29 1564.07 1393.22 1560.63 Q1396.18 1557.16 1396.18 1551.43 L1396.18 1550.12 L1390.36 1550.12 M1402.04 1547.71 L1402.04 1568.04 L1396.18 1568.04 L1396.18 1562.63 Q1394.18 1565.88 1391.19 1567.44 Q1388.19 1568.97 1383.87 1568.97 Q1378.39 1568.97 1375.14 1565.91 Q1371.93 1562.82 1371.93 1557.67 Q1371.93 1551.65 1375.94 1548.6 Q1379.98 1545.54 1387.97 1545.54 L1396.18 1545.54 L1396.18 1544.97 Q1396.18 1540.93 1393.51 1538.73 Q1390.87 1536.5 1386.06 1536.5 Q1383.01 1536.5 1380.11 1537.23 Q1377.21 1537.97 1374.54 1539.43 L1374.54 1534.02 Q1377.75 1532.78 1380.78 1532.17 Q1383.8 1531.54 1386.67 1531.54 Q1394.4 1531.54 1398.22 1535.55 Q1402.04 1539.56 1402.04 1547.71 Z" fill="#000000" fill-rule="evenodd" fill-opacity="1" /><path clip-path="url(#clip940)" d="M1443.74 1546.53 L1443.74 1568.04 L1437.88 1568.04 L1437.88 1546.72 Q1437.88 1541.66 1435.91 1539.14 Q1433.93 1536.63 1429.99 1536.63 Q1425.24 1536.63 1422.51 1539.65 Q1419.77 1542.68 1419.77 1547.9 L1419.77 1568.04 L1413.88 1568.04 L1413.88 1532.4 L1419.77 1532.4 L1419.77 1537.93 Q1421.87 1534.72 1424.7 1533.13 Q1427.57 1531.54 1431.29 1531.54 Q1437.43 1531.54 1440.58 1535.36 Q1443.74 1539.14 1443.74 1546.53 Z" fill="#000000" fill-rule="evenodd" fill-opacity="1" /><path clip-path="url(#clip940)" d="M1481.07 1533.76 L1481.07 1539.24 Q1478.59 1537.87 1476.07 1537.2 Q1473.59 1536.5 1471.04 1536.5 Q1465.35 1536.5 1462.2 1540.13 Q1459.04 1543.73 1459.04 1550.25 Q1459.04 1556.78 1462.2 1560.4 Q1465.35 1564 1471.04 1564 Q1473.59 1564 1476.07 1563.33 Q1478.59 1562.63 1481.07 1561.26 L1481.07 1566.68 Q1478.62 1567.82 1475.98 1568.39 Q1473.37 1568.97 1470.41 1568.97 Q1462.35 1568.97 1457.61 1563.91 Q1452.87 1558.85 1452.87 1550.25 Q1452.87 1541.53 1457.64 1536.53 Q1462.45 1531.54 1470.79 1531.54 Q1473.49 1531.54 1476.07 1532.11 Q1478.65 1532.65 1481.07 1533.76 Z" fill="#000000" fill-rule="evenodd" fill-opacity="1" /><path clip-path="url(#clip940)" d="M1521.75 1548.76 L1521.75 1551.62 L1494.82 1551.62 Q1495.2 1557.67 1498.45 1560.85 Q1501.73 1564 1507.55 1564 Q1510.93 1564 1514.08 1563.17 Q1517.26 1562.35 1520.38 1560.69 L1520.38 1566.23 Q1517.23 1567.57 1513.92 1568.27 Q1510.61 1568.97 1507.2 1568.97 Q1498.67 1568.97 1493.67 1564 Q1488.71 1559.04 1488.71 1550.57 Q1488.71 1541.82 1493.42 1536.69 Q1498.16 1531.54 1506.18 1531.54 Q1513.38 1531.54 1517.55 1536.18 Q1521.75 1540.8 1521.75 1548.76 M1515.89 1547.04 Q1515.83 1542.23 1513.18 1539.37 Q1510.57 1536.5 1506.25 1536.5 Q1501.34 1536.5 1498.38 1539.27 Q1495.46 1542.04 1495.01 1547.07 L1515.89 1547.04 Z" fill="#000000" fill-rule="evenodd" fill-opacity="1" /><path clip-path="url(#clip940)" d="M1532.85 1559.96 L1539.57 1559.96 L1539.57 1565.43 L1534.35 1575.62 L1530.24 1575.62 L1532.85 1565.43 L1532.85 1559.96 Z" fill="#000000" fill-rule="evenodd" fill-opacity="1" /><path clip-path="url(#clip940)" d="M1570.25 1532.4 L1598.07 1532.4 L1598.07 1537.74 L1576.05 1563.37 L1598.07 1563.37 L1598.07 1568.04 L1569.46 1568.04 L1569.46 1562.7 L1591.48 1537.07 L1570.25 1537.07 L1570.25 1532.4 Z" fill="#000000" fill-rule="evenodd" fill-opacity="1" /><path clip-path="url(#clip940)" d="M1608.51 1559.96 L1615.23 1559.96 L1615.23 1565.43 L1610.01 1575.62 L1605.9 1575.62 L1608.51 1565.43 L1608.51 1559.96 Z" fill="#000000" fill-rule="evenodd" fill-opacity="1" /><path clip-path="url(#clip940)" d="M1662.52 1518.58 Q1658.26 1525.9 1656.19 1533.06 Q1654.12 1540.23 1654.12 1547.58 Q1654.12 1554.93 1656.19 1562.16 Q1658.29 1569.35 1662.52 1576.64 L1657.43 1576.64 Q1652.66 1569.16 1650.27 1561.93 Q1647.92 1554.71 1647.92 1547.58 Q1647.92 1540.48 1650.27 1533.29 Q1652.63 1526.09 1657.43 1518.58 L1662.52 1518.58 Z" fill="#000000" fill-rule="evenodd" fill-opacity="1" /><path clip-path="url(#clip940)" d="M1701.64 1539.24 Q1703.84 1535.29 1706.89 1533.41 Q1709.95 1531.54 1714.09 1531.54 Q1719.66 1531.54 1722.68 1535.45 Q1725.7 1539.33 1725.7 1546.53 L1725.7 1568.04 L1719.82 1568.04 L1719.82 1546.72 Q1719.82 1541.59 1718 1539.11 Q1716.19 1536.63 1712.46 1536.63 Q1707.91 1536.63 1705.27 1539.65 Q1702.63 1542.68 1702.63 1547.9 L1702.63 1568.04 L1696.74 1568.04 L1696.74 1546.72 Q1696.74 1541.56 1694.93 1539.11 Q1693.11 1536.63 1689.32 1536.63 Q1684.84 1536.63 1682.19 1539.68 Q1679.55 1542.71 1679.55 1547.9 L1679.55 1568.04 L1673.66 1568.04 L1673.66 1532.4 L1679.55 1532.4 L1679.55 1537.93 Q1681.56 1534.66 1684.36 1533.1 Q1687.16 1531.54 1691.01 1531.54 Q1694.89 1531.54 1697.6 1533.51 Q1700.34 1535.48 1701.64 1539.24 Z" fill="#000000" fill-rule="evenodd" fill-opacity="1" /><path clip-path="url(#clip940)" d="M1736.46 1518.58 L1741.55 1518.58 Q1746.33 1526.09 1748.68 1533.29 Q1751.07 1540.48 1751.07 1547.58 Q1751.07 1554.71 1748.68 1561.93 Q1746.33 1569.16 1741.55 1576.64 L1736.46 1576.64 Q1740.7 1569.35 1742.76 1562.16 Q1744.86 1554.93 1744.86 1547.58 Q1744.86 1540.23 1742.76 1533.06 Q1740.7 1525.9 1736.46 1518.58 Z" fill="#000000" fill-rule="evenodd" fill-opacity="1" /><polyline clip-path="url(#clip942)" style="stroke:#000000; stroke-linecap:butt; stroke-linejoin:round; stroke-width:2; stroke-opacity:0.1; fill:none" points="
  219.866,1423.18 2352.76,1423.18 
  "/>
<polyline clip-path="url(#clip942)" style="stroke:#000000; stroke-linecap:butt; stroke-linejoin:round; stroke-width:2; stroke-opacity:0.1; fill:none" points="
  219.866,1163.24 2352.76,1163.24 
  "/>
<polyline clip-path="url(#clip942)" style="stroke:#000000; stroke-linecap:butt; stroke-linejoin:round; stroke-width:2; stroke-opacity:0.1; fill:none" points="
  219.866,903.297 2352.76,903.297 
  "/>
<polyline clip-path="url(#clip942)" style="stroke:#000000; stroke-linecap:butt; stroke-linejoin:round; stroke-width:2; stroke-opacity:0.1; fill:none" points="
  219.866,643.355 2352.76,643.355 
  "/>
<polyline clip-path="url(#clip942)" style="stroke:#000000; stroke-linecap:butt; stroke-linejoin:round; stroke-width:2; stroke-opacity:0.1; fill:none" points="
  219.866,383.414 2352.76,383.414 
  "/>
<polyline clip-path="url(#clip942)" style="stroke:#000000; stroke-linecap:butt; stroke-linejoin:round; stroke-width:2; stroke-opacity:0.1; fill:none" points="
  219.866,123.472 2352.76,123.472 
  "/>
<polyline clip-path="url(#clip940)" style="stroke:#000000; stroke-linecap:butt; stroke-linejoin:round; stroke-width:4; stroke-opacity:1; fill:none" points="
  219.866,1423.18 219.866,123.472 
  "/>
<polyline clip-path="url(#clip940)" style="stroke:#000000; stroke-linecap:butt; stroke-linejoin:round; stroke-width:4; stroke-opacity:1; fill:none" points="
  219.866,1423.18 238.764,1423.18 
  "/>
<polyline clip-path="url(#clip940)" style="stroke:#000000; stroke-linecap:butt; stroke-linejoin:round; stroke-width:4; stroke-opacity:1; fill:none" points="
  219.866,1163.24 238.764,1163.24 
  "/>
<polyline clip-path="url(#clip940)" style="stroke:#000000; stroke-linecap:butt; stroke-linejoin:round; stroke-width:4; stroke-opacity:1; fill:none" points="
  219.866,903.297 238.764,903.297 
  "/>
<polyline clip-path="url(#clip940)" style="stroke:#000000; stroke-linecap:butt; stroke-linejoin:round; stroke-width:4; stroke-opacity:1; fill:none" points="
  219.866,643.355 238.764,643.355 
  "/>
<polyline clip-path="url(#clip940)" style="stroke:#000000; stroke-linecap:butt; stroke-linejoin:round; stroke-width:4; stroke-opacity:1; fill:none" points="
  219.866,383.414 238.764,383.414 
  "/>
<polyline clip-path="url(#clip940)" style="stroke:#000000; stroke-linecap:butt; stroke-linejoin:round; stroke-width:4; stroke-opacity:1; fill:none" points="
  219.866,123.472 238.764,123.472 
  "/>
<path clip-path="url(#clip940)" d="M126.691 1408.98 Q123.08 1408.98 121.251 1412.54 Q119.445 1416.08 119.445 1423.21 Q119.445 1430.32 121.251 1433.89 Q123.08 1437.43 126.691 1437.43 Q130.325 1437.43 132.13 1433.89 Q133.959 1430.32 133.959 1423.21 Q133.959 1416.08 132.13 1412.54 Q130.325 1408.98 126.691 1408.98 M126.691 1405.27 Q132.501 1405.27 135.556 1409.88 Q138.635 1414.46 138.635 1423.21 Q138.635 1431.94 135.556 1436.55 Q132.501 1441.13 126.691 1441.13 Q120.88 1441.13 117.802 1436.55 Q114.746 1431.94 114.746 1423.21 Q114.746 1414.46 117.802 1409.88 Q120.88 1405.27 126.691 1405.27 Z" fill="#000000" fill-rule="evenodd" fill-opacity="1" /><path clip-path="url(#clip940)" d="M146.853 1434.58 L151.737 1434.58 L151.737 1440.46 L146.853 1440.46 L146.853 1434.58 Z" fill="#000000" fill-rule="evenodd" fill-opacity="1" /><path clip-path="url(#clip940)" d="M171.922 1408.98 Q168.311 1408.98 166.482 1412.54 Q164.677 1416.08 164.677 1423.21 Q164.677 1430.32 166.482 1433.89 Q168.311 1437.43 171.922 1437.43 Q175.556 1437.43 177.362 1433.89 Q179.19 1430.32 179.19 1423.21 Q179.19 1416.08 177.362 1412.54 Q175.556 1408.98 171.922 1408.98 M171.922 1405.27 Q177.732 1405.27 180.788 1409.88 Q183.866 1414.46 183.866 1423.21 Q183.866 1431.94 180.788 1436.55 Q177.732 1441.13 171.922 1441.13 Q166.112 1441.13 163.033 1436.55 Q159.978 1431.94 159.978 1423.21 Q159.978 1414.46 163.033 1409.88 Q166.112 1405.27 171.922 1405.27 Z" fill="#000000" fill-rule="evenodd" fill-opacity="1" /><path clip-path="url(#clip940)" d="M127.917 1149.04 Q124.306 1149.04 122.478 1152.6 Q120.672 1156.14 120.672 1163.27 Q120.672 1170.38 122.478 1173.94 Q124.306 1177.49 127.917 1177.49 Q131.552 1177.49 133.357 1173.94 Q135.186 1170.38 135.186 1163.27 Q135.186 1156.14 133.357 1152.6 Q131.552 1149.04 127.917 1149.04 M127.917 1145.33 Q133.728 1145.33 136.783 1149.94 Q139.862 1154.52 139.862 1163.27 Q139.862 1172 136.783 1176.61 Q133.728 1181.19 127.917 1181.19 Q122.107 1181.19 119.029 1176.61 Q115.973 1172 115.973 1163.27 Q115.973 1154.52 119.029 1149.94 Q122.107 1145.33 127.917 1145.33 Z" fill="#000000" fill-rule="evenodd" fill-opacity="1" /><path clip-path="url(#clip940)" d="M148.079 1174.64 L152.964 1174.64 L152.964 1180.52 L148.079 1180.52 L148.079 1174.64 Z" fill="#000000" fill-rule="evenodd" fill-opacity="1" /><path clip-path="url(#clip940)" d="M163.959 1176.58 L171.598 1176.58 L171.598 1150.22 L163.288 1151.88 L163.288 1147.62 L171.552 1145.96 L176.227 1145.96 L176.227 1176.58 L183.866 1176.58 L183.866 1180.52 L163.959 1180.52 L163.959 1176.58 Z" fill="#000000" fill-rule="evenodd" fill-opacity="1" /><path clip-path="url(#clip940)" d="M128.288 889.095 Q124.677 889.095 122.848 892.66 Q121.043 896.202 121.043 903.331 Q121.043 910.438 122.848 914.003 Q124.677 917.544 128.288 917.544 Q131.922 917.544 133.728 914.003 Q135.556 910.438 135.556 903.331 Q135.556 896.202 133.728 892.66 Q131.922 889.095 128.288 889.095 M128.288 885.392 Q134.098 885.392 137.154 889.998 Q140.232 894.582 140.232 903.331 Q140.232 912.058 137.154 916.665 Q134.098 921.248 128.288 921.248 Q122.478 921.248 119.399 916.665 Q116.343 912.058 116.343 903.331 Q116.343 894.582 119.399 889.998 Q122.478 885.392 128.288 885.392 Z" fill="#000000" fill-rule="evenodd" fill-opacity="1" /><path clip-path="url(#clip940)" d="M148.45 914.697 L153.334 914.697 L153.334 920.577 L148.45 920.577 L148.45 914.697 Z" fill="#000000" fill-rule="evenodd" fill-opacity="1" /><path clip-path="url(#clip940)" d="M167.547 916.642 L183.866 916.642 L183.866 920.577 L161.922 920.577 L161.922 916.642 Q164.584 913.887 169.167 909.257 Q173.774 904.605 174.954 903.262 Q177.2 900.739 178.079 899.003 Q178.982 897.244 178.982 895.554 Q178.982 892.799 177.038 891.063 Q175.116 889.327 172.014 889.327 Q169.815 889.327 167.362 890.091 Q164.931 890.855 162.153 892.406 L162.153 887.683 Q164.977 886.549 167.431 885.97 Q169.885 885.392 171.922 885.392 Q177.292 885.392 180.487 888.077 Q183.681 890.762 183.681 895.253 Q183.681 897.382 182.871 899.304 Q182.084 901.202 179.977 903.794 Q179.399 904.466 176.297 907.683 Q173.195 910.878 167.547 916.642 Z" fill="#000000" fill-rule="evenodd" fill-opacity="1" /><path clip-path="url(#clip940)" d="M127.339 629.154 Q123.728 629.154 121.899 632.719 Q120.093 636.26 120.093 643.39 Q120.093 650.496 121.899 654.061 Q123.728 657.603 127.339 657.603 Q130.973 657.603 132.779 654.061 Q134.607 650.496 134.607 643.39 Q134.607 636.26 132.779 632.719 Q130.973 629.154 127.339 629.154 M127.339 625.45 Q133.149 625.45 136.204 630.057 Q139.283 634.64 139.283 643.39 Q139.283 652.117 136.204 656.723 Q133.149 661.307 127.339 661.307 Q121.529 661.307 118.45 656.723 Q115.394 652.117 115.394 643.39 Q115.394 634.64 118.45 630.057 Q121.529 625.45 127.339 625.45 Z" fill="#000000" fill-rule="evenodd" fill-opacity="1" /><path clip-path="url(#clip940)" d="M147.501 654.756 L152.385 654.756 L152.385 660.635 L147.501 660.635 L147.501 654.756 Z" fill="#000000" fill-rule="evenodd" fill-opacity="1" /><path clip-path="url(#clip940)" d="M176.737 642.001 Q180.093 642.719 181.968 644.987 Q183.866 647.256 183.866 650.589 Q183.866 655.705 180.348 658.506 Q176.829 661.307 170.348 661.307 Q168.172 661.307 165.857 660.867 Q163.565 660.45 161.112 659.594 L161.112 655.08 Q163.056 656.214 165.371 656.793 Q167.686 657.371 170.209 657.371 Q174.607 657.371 176.899 655.635 Q179.214 653.899 179.214 650.589 Q179.214 647.533 177.061 645.82 Q174.931 644.084 171.112 644.084 L167.084 644.084 L167.084 640.242 L171.297 640.242 Q174.746 640.242 176.575 638.876 Q178.403 637.487 178.403 634.895 Q178.403 632.233 176.505 630.821 Q174.63 629.385 171.112 629.385 Q169.19 629.385 166.991 629.802 Q164.792 630.219 162.153 631.098 L162.153 626.932 Q164.815 626.191 167.13 625.821 Q169.468 625.45 171.528 625.45 Q176.852 625.45 179.954 627.881 Q183.056 630.288 183.056 634.409 Q183.056 637.279 181.413 639.27 Q179.769 641.237 176.737 642.001 Z" fill="#000000" fill-rule="evenodd" fill-opacity="1" /><path clip-path="url(#clip940)" d="M126.205 369.212 Q122.593 369.212 120.765 372.777 Q118.959 376.319 118.959 383.448 Q118.959 390.555 120.765 394.12 Q122.593 397.661 126.205 397.661 Q129.839 397.661 131.644 394.12 Q133.473 390.555 133.473 383.448 Q133.473 376.319 131.644 372.777 Q129.839 369.212 126.205 369.212 M126.205 365.509 Q132.015 365.509 135.07 370.115 Q138.149 374.698 138.149 383.448 Q138.149 392.175 135.07 396.782 Q132.015 401.365 126.205 401.365 Q120.394 401.365 117.316 396.782 Q114.26 392.175 114.26 383.448 Q114.26 374.698 117.316 370.115 Q120.394 365.509 126.205 365.509 Z" fill="#000000" fill-rule="evenodd" fill-opacity="1" /><path clip-path="url(#clip940)" d="M146.366 394.814 L151.251 394.814 L151.251 400.694 L146.366 400.694 L146.366 394.814 Z" fill="#000000" fill-rule="evenodd" fill-opacity="1" /><path clip-path="url(#clip940)" d="M174.283 370.208 L162.477 388.657 L174.283 388.657 L174.283 370.208 M173.056 366.134 L178.936 366.134 L178.936 388.657 L183.866 388.657 L183.866 392.546 L178.936 392.546 L178.936 400.694 L174.283 400.694 L174.283 392.546 L158.681 392.546 L158.681 388.032 L173.056 366.134 Z" fill="#000000" fill-rule="evenodd" fill-opacity="1" /><path clip-path="url(#clip940)" d="M127.686 109.271 Q124.075 109.271 122.246 112.836 Q120.441 116.377 120.441 123.507 Q120.441 130.613 122.246 134.178 Q124.075 137.72 127.686 137.72 Q131.32 137.72 133.126 134.178 Q134.954 130.613 134.954 123.507 Q134.954 116.377 133.126 112.836 Q131.32 109.271 127.686 109.271 M127.686 105.567 Q133.496 105.567 136.552 110.174 Q139.63 114.757 139.63 123.507 Q139.63 132.234 136.552 136.84 Q133.496 141.423 127.686 141.423 Q121.876 141.423 118.797 136.84 Q115.742 132.234 115.742 123.507 Q115.742 114.757 118.797 110.174 Q121.876 105.567 127.686 105.567 Z" fill="#000000" fill-rule="evenodd" fill-opacity="1" /><path clip-path="url(#clip940)" d="M147.848 134.873 L152.732 134.873 L152.732 140.752 L147.848 140.752 L147.848 134.873 Z" fill="#000000" fill-rule="evenodd" fill-opacity="1" /><path clip-path="url(#clip940)" d="M162.964 106.192 L181.32 106.192 L181.32 110.127 L167.246 110.127 L167.246 118.599 Q168.264 118.252 169.283 118.09 Q170.302 117.905 171.32 117.905 Q177.107 117.905 180.487 121.076 Q183.866 124.248 183.866 129.664 Q183.866 135.243 180.394 138.345 Q176.922 141.423 170.602 141.423 Q168.427 141.423 166.158 141.053 Q163.913 140.683 161.505 139.942 L161.505 135.243 Q163.589 136.377 165.811 136.933 Q168.033 137.488 170.51 137.488 Q174.514 137.488 176.852 135.382 Q179.19 133.275 179.19 129.664 Q179.19 126.053 176.852 123.947 Q174.514 121.84 170.51 121.84 Q168.635 121.84 166.76 122.257 Q164.908 122.674 162.964 123.553 L162.964 106.192 Z" fill="#000000" fill-rule="evenodd" fill-opacity="1" /><path clip-path="url(#clip940)" d="M20.1444 1100.13 L26.9239 1100.13 Q23.9002 1103.37 22.4043 1107.06 Q20.9083 1110.72 20.9083 1114.86 Q20.9083 1123.01 25.9054 1127.34 Q30.8707 1131.67 40.2919 1131.67 Q49.6813 1131.67 54.6784 1127.34 Q59.6436 1123.01 59.6436 1114.86 Q59.6436 1110.72 58.1477 1107.06 Q56.6518 1103.37 53.6281 1100.13 L60.3439 1100.13 Q62.6355 1103.5 63.7814 1107.29 Q64.9272 1111.04 64.9272 1115.24 Q64.9272 1126.03 58.3387 1132.24 Q51.7183 1138.45 40.2919 1138.45 Q28.8336 1138.45 22.2451 1132.24 Q15.6248 1126.03 15.6248 1115.24 Q15.6248 1110.98 16.7706 1107.22 Q17.8846 1103.44 20.1444 1100.13 Z" fill="#000000" fill-rule="evenodd" fill-opacity="1" /><path clip-path="url(#clip940)" d="M32.4621 1076.64 Q32.4621 1081.35 36.1542 1084.08 Q39.8145 1086.82 46.212 1086.82 Q52.6095 1086.82 56.3017 1084.12 Q59.9619 1081.38 59.9619 1076.64 Q59.9619 1071.96 56.2698 1069.22 Q52.5777 1066.48 46.212 1066.48 Q39.8781 1066.48 36.186 1069.22 Q32.4621 1071.96 32.4621 1076.64 M27.4968 1076.64 Q27.4968 1069 32.4621 1064.64 Q37.4273 1060.28 46.212 1060.28 Q54.9649 1060.28 59.9619 1064.64 Q64.9272 1069 64.9272 1076.64 Q64.9272 1084.31 59.9619 1088.67 Q54.9649 1093 46.212 1093 Q37.4273 1093 32.4621 1088.67 Q27.4968 1084.31 27.4968 1076.64 Z" fill="#000000" fill-rule="evenodd" fill-opacity="1" /><path clip-path="url(#clip940)" d="M42.4881 1020.94 L64.0042 1020.94 L64.0042 1026.79 L42.679 1026.79 Q37.6183 1026.79 35.1038 1028.77 Q32.5894 1030.74 32.5894 1034.69 Q32.5894 1039.43 35.6131 1042.17 Q38.6368 1044.9 43.8567 1044.9 L64.0042 1044.9 L64.0042 1050.79 L28.3562 1050.79 L28.3562 1044.9 L33.8944 1044.9 Q30.6797 1042.8 29.0883 1039.97 Q27.4968 1037.1 27.4968 1033.38 Q27.4968 1027.24 31.3163 1024.09 Q35.1038 1020.94 42.4881 1020.94 Z" fill="#000000" fill-rule="evenodd" fill-opacity="1" /><path clip-path="url(#clip940)" d="M29.7248 983.601 L35.1993 983.601 Q33.8307 986.084 33.1623 988.598 Q32.4621 991.081 32.4621 993.627 Q32.4621 999.324 36.0905 1002.48 Q39.6872 1005.63 46.212 1005.63 Q52.7369 1005.63 56.3653 1002.48 Q59.9619 999.324 59.9619 993.627 Q59.9619 991.081 59.2935 988.598 Q58.5933 986.084 57.2247 983.601 L62.6355 983.601 Q63.7814 986.052 64.3543 988.694 Q64.9272 991.304 64.9272 994.264 Q64.9272 1002.32 59.8664 1007.06 Q54.8057 1011.8 46.212 1011.8 Q37.491 1011.8 32.4939 1007.03 Q27.4968 1002.22 27.4968 993.882 Q27.4968 991.176 28.0697 988.598 Q28.6108 986.02 29.7248 983.601 Z" fill="#000000" fill-rule="evenodd" fill-opacity="1" /><path clip-path="url(#clip940)" d="M44.7161 942.924 L47.5806 942.924 L47.5806 969.851 Q53.6281 969.469 56.8109 966.223 Q59.9619 962.944 59.9619 957.12 Q59.9619 953.746 59.1344 950.595 Q58.3069 947.412 56.6518 944.293 L62.1899 944.293 Q63.5267 947.444 64.227 950.754 Q64.9272 954.064 64.9272 957.47 Q64.9272 966 59.9619 970.997 Q54.9967 975.962 46.5303 975.962 Q37.7774 975.962 32.6531 971.252 Q27.4968 966.509 27.4968 958.488 Q27.4968 951.295 32.1438 947.126 Q36.7589 942.924 44.7161 942.924 M42.9973 948.781 Q38.1912 948.844 35.3266 951.486 Q32.4621 954.096 32.4621 958.425 Q32.4621 963.326 35.2312 966.286 Q38.0002 969.215 43.0292 969.66 L42.9973 948.781 Z" fill="#000000" fill-rule="evenodd" fill-opacity="1" /><path clip-path="url(#clip940)" d="M42.4881 903.68 L64.0042 903.68 L64.0042 909.536 L42.679 909.536 Q37.6183 909.536 35.1038 911.51 Q32.5894 913.483 32.5894 917.43 Q32.5894 922.172 35.6131 924.909 Q38.6368 927.647 43.8567 927.647 L64.0042 927.647 L64.0042 933.535 L28.3562 933.535 L28.3562 927.647 L33.8944 927.647 Q30.6797 925.546 29.0883 922.713 Q27.4968 919.849 27.4968 916.125 Q27.4968 909.982 31.3163 906.831 Q35.1038 903.68 42.4881 903.68 Z" fill="#000000" fill-rule="evenodd" fill-opacity="1" /><path clip-path="url(#clip940)" d="M18.2347 886.206 L28.3562 886.206 L28.3562 874.143 L32.9077 874.143 L32.9077 886.206 L52.2594 886.206 Q56.6199 886.206 57.8613 885.028 Q59.1026 883.819 59.1026 880.158 L59.1026 874.143 L64.0042 874.143 L64.0042 880.158 Q64.0042 886.938 61.4897 889.516 Q58.9434 892.094 52.2594 892.094 L32.9077 892.094 L32.9077 896.391 L28.3562 896.391 L28.3562 892.094 L18.2347 892.094 L18.2347 886.206 Z" fill="#000000" fill-rule="evenodd" fill-opacity="1" /><path clip-path="url(#clip940)" d="M33.8307 845.784 Q33.2578 846.77 33.0032 847.948 Q32.7167 849.094 32.7167 850.494 Q32.7167 855.46 35.9632 858.133 Q39.1779 860.775 45.2253 860.775 L64.0042 860.775 L64.0042 866.663 L28.3562 866.663 L28.3562 860.775 L33.8944 860.775 Q30.6479 858.929 29.0883 855.969 Q27.4968 853.009 27.4968 848.776 Q27.4968 848.171 27.5923 847.439 Q27.656 846.707 27.8151 845.815 L33.8307 845.784 Z" fill="#000000" fill-rule="evenodd" fill-opacity="1" /><path clip-path="url(#clip940)" d="M46.0847 823.44 Q46.0847 830.538 47.7079 833.275 Q49.3312 836.012 53.2461 836.012 Q56.3653 836.012 58.2114 833.975 Q60.0256 831.906 60.0256 828.373 Q60.0256 823.504 56.5881 820.575 Q53.1188 817.615 47.3897 817.615 L46.0847 817.615 L46.0847 823.44 M43.6657 811.759 L64.0042 811.759 L64.0042 817.615 L58.5933 817.615 Q61.8398 819.621 63.3994 822.612 Q64.9272 825.604 64.9272 829.933 Q64.9272 835.408 61.8716 838.654 Q58.7843 841.869 53.6281 841.869 Q47.6125 841.869 44.5569 837.858 Q41.5014 833.816 41.5014 825.827 L41.5014 817.615 L40.9285 817.615 Q36.8862 817.615 34.6901 820.289 Q32.4621 822.931 32.4621 827.737 Q32.4621 830.792 33.1941 833.689 Q33.9262 836.585 35.3903 839.259 L29.9795 839.259 Q28.7381 836.044 28.1334 833.02 Q27.4968 829.997 27.4968 827.132 Q27.4968 819.398 31.5072 815.578 Q35.5176 811.759 43.6657 811.759 Z" fill="#000000" fill-rule="evenodd" fill-opacity="1" /><path clip-path="url(#clip940)" d="M18.2347 793.903 L28.3562 793.903 L28.3562 781.84 L32.9077 781.84 L32.9077 793.903 L52.2594 793.903 Q56.6199 793.903 57.8613 792.725 Q59.1026 791.516 59.1026 787.856 L59.1026 781.84 L64.0042 781.84 L64.0042 787.856 Q64.0042 794.635 61.4897 797.213 Q58.9434 799.791 52.2594 799.791 L32.9077 799.791 L32.9077 804.088 L28.3562 804.088 L28.3562 799.791 L18.2347 799.791 L18.2347 793.903 Z" fill="#000000" fill-rule="evenodd" fill-opacity="1" /><path clip-path="url(#clip940)" d="M28.3562 774.138 L28.3562 768.281 L64.0042 768.281 L64.0042 774.138 L28.3562 774.138 M14.479 774.138 L14.479 768.281 L21.895 768.281 L21.895 774.138 L14.479 774.138 Z" fill="#000000" fill-rule="evenodd" fill-opacity="1" /><path clip-path="url(#clip940)" d="M32.4621 742.214 Q32.4621 746.924 36.1542 749.661 Q39.8145 752.399 46.212 752.399 Q52.6095 752.399 56.3017 749.693 Q59.9619 746.956 59.9619 742.214 Q59.9619 737.535 56.2698 734.798 Q52.5777 732.06 46.212 732.06 Q39.8781 732.06 36.186 734.798 Q32.4621 737.535 32.4621 742.214 M27.4968 742.214 Q27.4968 734.575 32.4621 730.214 Q37.4273 725.854 46.212 725.854 Q54.9649 725.854 59.9619 730.214 Q64.9272 734.575 64.9272 742.214 Q64.9272 749.884 59.9619 754.245 Q54.9649 758.573 46.212 758.573 Q37.4273 758.573 32.4621 754.245 Q27.4968 749.884 27.4968 742.214 Z" fill="#000000" fill-rule="evenodd" fill-opacity="1" /><path clip-path="url(#clip940)" d="M42.4881 686.514 L64.0042 686.514 L64.0042 692.37 L42.679 692.37 Q37.6183 692.37 35.1038 694.343 Q32.5894 696.317 32.5894 700.264 Q32.5894 705.006 35.6131 707.743 Q38.6368 710.481 43.8567 710.481 L64.0042 710.481 L64.0042 716.369 L28.3562 716.369 L28.3562 710.481 L33.8944 710.481 Q30.6797 708.38 29.0883 705.547 Q27.4968 702.683 27.4968 698.959 Q27.4968 692.816 31.3163 689.665 Q35.1038 686.514 42.4881 686.514 Z" fill="#000000" fill-rule="evenodd" fill-opacity="1" /><path clip-path="url(#clip940)" d="M55.9197 673.337 L55.9197 666.621 L61.3942 666.621 L71.5793 671.841 L71.5793 675.947 L61.3942 673.337 L55.9197 673.337 Z" fill="#000000" fill-rule="evenodd" fill-opacity="1" /><path clip-path="url(#clip940)" d="M20.1444 597.553 L26.9239 597.553 Q23.9002 600.799 22.4043 604.492 Q20.9083 608.152 20.9083 612.29 Q20.9083 620.438 25.9054 624.766 Q30.8707 629.095 40.2919 629.095 Q49.6813 629.095 54.6784 624.766 Q59.6436 620.438 59.6436 612.29 Q59.6436 608.152 58.1477 604.492 Q56.6518 600.799 53.6281 597.553 L60.3439 597.553 Q62.6355 600.927 63.7814 604.714 Q64.9272 608.47 64.9272 612.671 Q64.9272 623.461 58.3387 629.668 Q51.7183 635.874 40.2919 635.874 Q28.8336 635.874 22.2451 629.668 Q15.6248 623.461 15.6248 612.671 Q15.6248 608.406 16.7706 604.651 Q17.8846 600.863 20.1444 597.553 Z" fill="#000000" fill-rule="evenodd" fill-opacity="1" /><path clip-path="url(#clip940)" d="M55.9197 586.381 L55.9197 579.665 L61.3942 579.665 L71.5793 584.885 L71.5793 588.991 L61.3942 586.381 L55.9197 586.381 Z" fill="#000000" fill-rule="evenodd" fill-opacity="1" /><path clip-path="url(#clip940)" d="M14.5426 532.368 Q21.8632 536.633 29.0246 538.702 Q36.186 540.771 43.5384 540.771 Q50.8908 540.771 58.1159 538.702 Q65.3091 536.601 72.5979 532.368 L72.5979 537.461 Q65.1182 542.235 57.8931 544.622 Q50.668 546.977 43.5384 546.977 Q36.4406 546.977 29.2474 544.622 Q22.0542 542.267 14.5426 537.461 L14.5426 532.368 Z" fill="#000000" fill-rule="evenodd" fill-opacity="1" /><path clip-path="url(#clip940)" d="M28.3562 525.207 L28.3562 519 L58.275 507.86 L28.3562 496.72 L28.3562 490.514 L64.0042 503.882 L64.0042 511.839 L28.3562 525.207 Z" fill="#000000" fill-rule="evenodd" fill-opacity="1" /><path clip-path="url(#clip940)" d="M16.4842 472.021 L16.4842 466.61 L70.0516 483.161 L70.0516 488.572 L16.4842 472.021 Z" fill="#000000" fill-rule="evenodd" fill-opacity="1" /><path clip-path="url(#clip940)" d="M28.3562 464.669 L28.3562 458.462 L58.275 447.322 L28.3562 436.182 L28.3562 429.976 L64.0042 443.344 L64.0042 451.301 L28.3562 464.669 Z" fill="#000000" fill-rule="evenodd" fill-opacity="1" /><path clip-path="url(#clip940)" d="M14.5426 422.814 L14.5426 417.722 Q22.0542 412.947 29.2474 410.592 Q36.4406 408.205 43.5384 408.205 Q50.668 408.205 57.8931 410.592 Q65.1182 412.947 72.5979 417.722 L72.5979 422.814 Q65.3091 418.581 58.1159 416.512 Q50.8908 414.412 43.5384 414.412 Q36.186 414.412 29.0246 416.512 Q21.8632 418.581 14.5426 422.814 Z" fill="#000000" fill-rule="evenodd" fill-opacity="1" /><path clip-path="url(#clip940)" d="M654.755 16.7545 L654.755 25.383 Q650.623 21.5346 645.924 19.6307 Q641.265 17.7268 635.999 17.7268 Q625.629 17.7268 620.12 24.0867 Q614.61 30.4061 614.61 42.3968 Q614.61 54.3469 620.12 60.7069 Q625.629 67.0263 635.999 67.0263 Q641.265 67.0263 645.924 65.1223 Q650.623 63.2184 654.755 59.3701 L654.755 67.9175 Q650.461 70.8341 645.64 72.2924 Q640.86 73.7508 635.513 73.7508 Q621.781 73.7508 613.881 65.3654 Q605.982 56.9395 605.982 42.3968 Q605.982 27.8135 613.881 19.4281 Q621.781 11.0023 635.513 11.0023 Q640.941 11.0023 645.721 12.4606 Q650.542 13.8784 654.755 16.7545 Z" fill="#000000" fill-rule="evenodd" fill-opacity="1" /><path clip-path="url(#clip940)" d="M684.651 32.4315 Q678.655 32.4315 675.171 37.1306 Q671.688 41.7891 671.688 49.9314 Q671.688 58.0738 675.131 62.7728 Q678.615 67.4314 684.651 67.4314 Q690.605 67.4314 694.089 62.7323 Q697.573 58.0333 697.573 49.9314 Q697.573 41.8701 694.089 37.1711 Q690.605 32.4315 684.651 32.4315 M684.651 26.1121 Q694.373 26.1121 699.922 32.4315 Q705.472 38.7509 705.472 49.9314 Q705.472 61.0714 699.922 67.4314 Q694.373 73.7508 684.651 73.7508 Q674.888 73.7508 669.338 67.4314 Q663.829 61.0714 663.829 49.9314 Q663.829 38.7509 669.338 32.4315 Q674.888 26.1121 684.651 26.1121 Z" fill="#000000" fill-rule="evenodd" fill-opacity="1" /><path clip-path="url(#clip940)" d="M755.541 45.1919 L755.541 72.576 L748.088 72.576 L748.088 45.4349 Q748.088 38.994 745.576 35.7938 Q743.065 32.5936 738.041 32.5936 Q732.006 32.5936 728.522 36.4419 Q725.038 40.2903 725.038 46.9338 L725.038 72.576 L717.544 72.576 L717.544 27.2059 L725.038 27.2059 L725.038 34.2544 Q727.712 30.163 731.317 28.1376 Q734.963 26.1121 739.702 26.1121 Q747.521 26.1121 751.531 30.9732 Q755.541 35.7938 755.541 45.1919 Z" fill="#000000" fill-rule="evenodd" fill-opacity="1" /><path clip-path="url(#clip940)" d="M803.058 28.9478 L803.058 35.9153 Q799.899 34.1734 796.699 33.3227 Q793.539 32.4315 790.298 32.4315 Q783.047 32.4315 779.037 37.0496 Q775.026 41.6271 775.026 49.9314 Q775.026 58.2358 779.037 62.8538 Q783.047 67.4314 790.298 67.4314 Q793.539 67.4314 796.699 66.5807 Q799.899 65.6895 803.058 63.9476 L803.058 70.8341 Q799.939 72.2924 796.577 73.0216 Q793.255 73.7508 789.488 73.7508 Q779.239 73.7508 773.203 67.3098 Q767.167 60.8689 767.167 49.9314 Q767.167 38.832 773.244 32.472 Q779.361 26.1121 789.974 26.1121 Q793.417 26.1121 796.699 26.8413 Q799.98 27.5299 803.058 28.9478 Z" fill="#000000" fill-rule="evenodd" fill-opacity="1" /><path clip-path="url(#clip940)" d="M854.829 48.0275 L854.829 51.6733 L820.558 51.6733 Q821.044 59.3701 825.176 63.421 Q829.349 67.4314 836.762 67.4314 Q841.056 67.4314 845.066 66.3781 Q849.117 65.3249 853.087 63.2184 L853.087 70.267 Q849.077 71.9684 844.864 72.8596 Q840.651 73.7508 836.316 73.7508 Q825.46 73.7508 819.1 67.4314 Q812.781 61.1119 812.781 50.3365 Q812.781 39.1965 818.776 32.6746 Q824.812 26.1121 835.02 26.1121 Q844.175 26.1121 849.482 32.0264 Q854.829 37.9003 854.829 48.0275 M847.375 45.84 Q847.294 39.7232 843.932 36.0774 Q840.61 32.4315 835.101 32.4315 Q828.863 32.4315 825.095 35.9558 Q821.369 39.4801 820.801 45.8805 L847.375 45.84 Z" fill="#000000" fill-rule="evenodd" fill-opacity="1" /><path clip-path="url(#clip940)" d="M904.777 45.1919 L904.777 72.576 L897.323 72.576 L897.323 45.4349 Q897.323 38.994 894.811 35.7938 Q892.3 32.5936 887.277 32.5936 Q881.241 32.5936 877.757 36.4419 Q874.273 40.2903 874.273 46.9338 L874.273 72.576 L866.779 72.576 L866.779 27.2059 L874.273 27.2059 L874.273 34.2544 Q876.947 30.163 880.552 28.1376 Q884.198 26.1121 888.938 26.1121 Q896.756 26.1121 900.766 30.9732 Q904.777 35.7938 904.777 45.1919 Z" fill="#000000" fill-rule="evenodd" fill-opacity="1" /><path clip-path="url(#clip940)" d="M927.016 14.324 L927.016 27.2059 L942.369 27.2059 L942.369 32.9987 L927.016 32.9987 L927.016 57.6282 Q927.016 63.1779 928.515 64.7578 Q930.054 66.3376 934.713 66.3376 L942.369 66.3376 L942.369 72.576 L934.713 72.576 Q926.084 72.576 922.803 69.3758 Q919.522 66.1351 919.522 57.6282 L919.522 32.9987 L914.053 32.9987 L914.053 27.2059 L919.522 27.2059 L919.522 14.324 L927.016 14.324 Z" fill="#000000" fill-rule="evenodd" fill-opacity="1" /><path clip-path="url(#clip940)" d="M978.463 34.1734 Q977.207 33.4443 975.708 33.1202 Q974.25 32.7556 972.467 32.7556 Q966.148 32.7556 962.745 36.8875 Q959.383 40.9789 959.383 48.6757 L959.383 72.576 L951.889 72.576 L951.889 27.2059 L959.383 27.2059 L959.383 34.2544 Q961.732 30.1225 965.5 28.1376 Q969.267 26.1121 974.655 26.1121 Q975.424 26.1121 976.356 26.2337 Q977.288 26.3147 978.422 26.5172 L978.463 34.1734 Z" fill="#000000" fill-rule="evenodd" fill-opacity="1" /><path clip-path="url(#clip940)" d="M1006.9 49.7694 Q997.866 49.7694 994.383 51.8354 Q990.899 53.9013 990.899 58.8839 Q990.899 62.8538 993.491 65.2034 Q996.125 67.5124 1000.62 67.5124 Q1006.82 67.5124 1010.55 63.1374 Q1014.31 58.7219 1014.31 51.4303 L1014.31 49.7694 L1006.9 49.7694 M1021.77 46.6907 L1021.77 72.576 L1014.31 72.576 L1014.31 65.6895 Q1011.76 69.8214 1007.95 71.8063 Q1004.15 73.7508 998.636 73.7508 Q991.669 73.7508 987.537 69.8619 Q983.445 65.9325 983.445 59.3701 Q983.445 51.7138 988.549 47.825 Q993.694 43.9361 1003.86 43.9361 L1014.31 43.9361 L1014.31 43.2069 Q1014.31 38.0623 1010.91 35.2672 Q1007.55 32.4315 1001.43 32.4315 Q997.542 32.4315 993.856 33.3632 Q990.17 34.295 986.767 36.1584 L986.767 29.2718 Q990.858 27.692 994.707 26.9223 Q998.555 26.1121 1002.2 26.1121 Q1012.04 26.1121 1016.91 31.2163 Q1021.77 36.3204 1021.77 46.6907 Z" fill="#000000" fill-rule="evenodd" fill-opacity="1" /><path clip-path="url(#clip940)" d="M1044.49 14.324 L1044.49 27.2059 L1059.85 27.2059 L1059.85 32.9987 L1044.49 32.9987 L1044.49 57.6282 Q1044.49 63.1779 1045.99 64.7578 Q1047.53 66.3376 1052.19 66.3376 L1059.85 66.3376 L1059.85 72.576 L1052.19 72.576 Q1043.56 72.576 1040.28 69.3758 Q1037 66.1351 1037 57.6282 L1037 32.9987 L1031.53 32.9987 L1031.53 27.2059 L1037 27.2059 L1037 14.324 L1044.49 14.324 Z" fill="#000000" fill-rule="evenodd" fill-opacity="1" /><path clip-path="url(#clip940)" d="M1069.65 27.2059 L1077.1 27.2059 L1077.1 72.576 L1069.65 72.576 L1069.65 27.2059 M1069.65 9.54393 L1077.1 9.54393 L1077.1 18.9825 L1069.65 18.9825 L1069.65 9.54393 Z" fill="#000000" fill-rule="evenodd" fill-opacity="1" /><path clip-path="url(#clip940)" d="M1110.28 32.4315 Q1104.28 32.4315 1100.8 37.1306 Q1097.32 41.7891 1097.32 49.9314 Q1097.32 58.0738 1100.76 62.7728 Q1104.24 67.4314 1110.28 67.4314 Q1116.23 67.4314 1119.72 62.7323 Q1123.2 58.0333 1123.2 49.9314 Q1123.2 41.8701 1119.72 37.1711 Q1116.23 32.4315 1110.28 32.4315 M1110.28 26.1121 Q1120 26.1121 1125.55 32.4315 Q1131.1 38.7509 1131.1 49.9314 Q1131.1 61.0714 1125.55 67.4314 Q1120 73.7508 1110.28 73.7508 Q1100.52 73.7508 1094.97 67.4314 Q1089.46 61.0714 1089.46 49.9314 Q1089.46 38.7509 1094.97 32.4315 Q1100.52 26.1121 1110.28 26.1121 Z" fill="#000000" fill-rule="evenodd" fill-opacity="1" /><path clip-path="url(#clip940)" d="M1181.17 45.1919 L1181.17 72.576 L1173.72 72.576 L1173.72 45.4349 Q1173.72 38.994 1171.2 35.7938 Q1168.69 32.5936 1163.67 32.5936 Q1157.63 32.5936 1154.15 36.4419 Q1150.67 40.2903 1150.67 46.9338 L1150.67 72.576 L1143.17 72.576 L1143.17 27.2059 L1150.67 27.2059 L1150.67 34.2544 Q1153.34 30.163 1156.95 28.1376 Q1160.59 26.1121 1165.33 26.1121 Q1173.15 26.1121 1177.16 30.9732 Q1181.17 35.7938 1181.17 45.1919 Z" fill="#000000" fill-rule="evenodd" fill-opacity="1" /><path clip-path="url(#clip940)" d="M1239.99 32.4315 Q1233.99 32.4315 1230.51 37.1306 Q1227.03 41.7891 1227.03 49.9314 Q1227.03 58.0738 1230.47 62.7728 Q1233.95 67.4314 1239.99 67.4314 Q1245.94 67.4314 1249.43 62.7323 Q1252.91 58.0333 1252.91 49.9314 Q1252.91 41.8701 1249.43 37.1711 Q1245.94 32.4315 1239.99 32.4315 M1239.99 26.1121 Q1249.71 26.1121 1255.26 32.4315 Q1260.81 38.7509 1260.81 49.9314 Q1260.81 61.0714 1255.26 67.4314 Q1249.71 73.7508 1239.99 73.7508 Q1230.23 73.7508 1224.68 67.4314 Q1219.17 61.0714 1219.17 49.9314 Q1219.17 38.7509 1224.68 32.4315 Q1230.23 26.1121 1239.99 26.1121 Z" fill="#000000" fill-rule="evenodd" fill-opacity="1" /><path clip-path="url(#clip940)" d="M1296.13 9.54393 L1296.13 15.7418 L1289 15.7418 Q1284.99 15.7418 1283.41 17.3622 Q1281.88 18.9825 1281.88 23.1955 L1281.88 27.2059 L1294.15 27.2059 L1294.15 32.9987 L1281.88 32.9987 L1281.88 72.576 L1274.38 72.576 L1274.38 32.9987 L1267.25 32.9987 L1267.25 27.2059 L1274.38 27.2059 L1274.38 24.0462 Q1274.38 16.471 1277.91 13.0277 Q1281.43 9.54393 1289.09 9.54393 L1296.13 9.54393 Z" fill="#000000" fill-rule="evenodd" fill-opacity="1" /><path clip-path="url(#clip940)" d="M1349.28 20.1573 L1338.18 50.2555 L1360.42 50.2555 L1349.28 20.1573 M1344.66 12.096 L1353.94 12.096 L1376.99 72.576 L1368.48 72.576 L1362.97 57.061 L1335.71 57.061 L1330.2 72.576 L1321.57 72.576 L1344.66 12.096 Z" fill="#000000" fill-rule="evenodd" fill-opacity="1" /><path clip-path="url(#clip940)" d="M1416.69 28.9478 L1416.69 35.9153 Q1413.53 34.1734 1410.33 33.3227 Q1407.17 32.4315 1403.93 32.4315 Q1396.68 32.4315 1392.67 37.0496 Q1388.66 41.6271 1388.66 49.9314 Q1388.66 58.2358 1392.67 62.8538 Q1396.68 67.4314 1403.93 67.4314 Q1407.17 67.4314 1410.33 66.5807 Q1413.53 65.6895 1416.69 63.9476 L1416.69 70.8341 Q1413.57 72.2924 1410.21 73.0216 Q1406.89 73.7508 1403.12 73.7508 Q1392.87 73.7508 1386.83 67.3098 Q1380.8 60.8689 1380.8 49.9314 Q1380.8 38.832 1386.87 32.472 Q1392.99 26.1121 1403.61 26.1121 Q1407.05 26.1121 1410.33 26.8413 Q1413.61 27.5299 1416.69 28.9478 Z" fill="#000000" fill-rule="evenodd" fill-opacity="1" /><path clip-path="url(#clip940)" d="M1468.46 48.0275 L1468.46 51.6733 L1434.19 51.6733 Q1434.68 59.3701 1438.81 63.421 Q1442.98 67.4314 1450.39 67.4314 Q1454.69 67.4314 1458.7 66.3781 Q1462.75 65.3249 1466.72 63.2184 L1466.72 70.267 Q1462.71 71.9684 1458.49 72.8596 Q1454.28 73.7508 1449.95 73.7508 Q1439.09 73.7508 1432.73 67.4314 Q1426.41 61.1119 1426.41 50.3365 Q1426.41 39.1965 1432.41 32.6746 Q1438.44 26.1121 1448.65 26.1121 Q1457.81 26.1121 1463.11 32.0264 Q1468.46 37.9003 1468.46 48.0275 M1461.01 45.84 Q1460.93 39.7232 1457.56 36.0774 Q1454.24 32.4315 1448.73 32.4315 Q1442.49 32.4315 1438.73 35.9558 Q1435 39.4801 1434.43 45.8805 L1461.01 45.84 Z" fill="#000000" fill-rule="evenodd" fill-opacity="1" /><path clip-path="url(#clip940)" d="M1488.07 14.324 L1488.07 27.2059 L1503.42 27.2059 L1503.42 32.9987 L1488.07 32.9987 L1488.07 57.6282 Q1488.07 63.1779 1489.57 64.7578 Q1491.1 66.3376 1495.76 66.3376 L1503.42 66.3376 L1503.42 72.576 L1495.76 72.576 Q1487.13 72.576 1483.85 69.3758 Q1480.57 66.1351 1480.57 57.6282 L1480.57 32.9987 L1475.1 32.9987 L1475.1 27.2059 L1480.57 27.2059 L1480.57 14.324 L1488.07 14.324 Z" fill="#000000" fill-rule="evenodd" fill-opacity="1" /><path clip-path="url(#clip940)" d="M1532.1 76.7889 Q1528.94 84.8907 1525.94 87.3618 Q1522.94 89.8329 1517.92 89.8329 L1511.97 89.8329 L1511.97 83.5945 L1516.34 83.5945 Q1519.42 83.5945 1521.12 82.1361 Q1522.82 80.6778 1524.89 75.2496 L1526.23 71.8468 L1507.88 27.2059 L1515.77 27.2059 L1529.95 62.6918 L1544.13 27.2059 L1552.03 27.2059 L1532.1 76.7889 Z" fill="#000000" fill-rule="evenodd" fill-opacity="1" /><path clip-path="url(#clip940)" d="M1562.32 9.54393 L1569.77 9.54393 L1569.77 72.576 L1562.32 72.576 L1562.32 9.54393 Z" fill="#000000" fill-rule="evenodd" fill-opacity="1" /><path clip-path="url(#clip940)" d="M1624.18 48.0275 L1624.18 51.6733 L1589.91 51.6733 Q1590.39 59.3701 1594.52 63.421 Q1598.7 67.4314 1606.11 67.4314 Q1610.4 67.4314 1614.41 66.3781 Q1618.46 65.3249 1622.43 63.2184 L1622.43 70.267 Q1618.42 71.9684 1614.21 72.8596 Q1610 73.7508 1605.66 73.7508 Q1594.81 73.7508 1588.45 67.4314 Q1582.13 61.1119 1582.13 50.3365 Q1582.13 39.1965 1588.12 32.6746 Q1594.16 26.1121 1604.37 26.1121 Q1613.52 26.1121 1618.83 32.0264 Q1624.18 37.9003 1624.18 48.0275 M1616.72 45.84 Q1616.64 39.7232 1613.28 36.0774 Q1609.96 32.4315 1604.45 32.4315 Q1598.21 32.4315 1594.44 35.9558 Q1590.72 39.4801 1590.15 45.8805 L1616.72 45.84 Z" fill="#000000" fill-rule="evenodd" fill-opacity="1" /><path clip-path="url(#clip940)" d="M1674.12 45.1919 L1674.12 72.576 L1666.67 72.576 L1666.67 45.4349 Q1666.67 38.994 1664.16 35.7938 Q1661.65 32.5936 1656.62 32.5936 Q1650.59 32.5936 1647.1 36.4419 Q1643.62 40.2903 1643.62 46.9338 L1643.62 72.576 L1636.13 72.576 L1636.13 27.2059 L1643.62 27.2059 L1643.62 34.2544 Q1646.29 30.163 1649.9 28.1376 Q1653.55 26.1121 1658.29 26.1121 Q1666.1 26.1121 1670.11 30.9732 Q1674.12 35.7938 1674.12 45.1919 Z" fill="#000000" fill-rule="evenodd" fill-opacity="1" /><path clip-path="url(#clip940)" d="M1727.8 48.0275 L1727.8 51.6733 L1693.53 51.6733 Q1694.01 59.3701 1698.15 63.421 Q1702.32 67.4314 1709.73 67.4314 Q1714.03 67.4314 1718.04 66.3781 Q1722.09 65.3249 1726.06 63.2184 L1726.06 70.267 Q1722.05 71.9684 1717.83 72.8596 Q1713.62 73.7508 1709.29 73.7508 Q1698.43 73.7508 1692.07 67.4314 Q1685.75 61.1119 1685.75 50.3365 Q1685.75 39.1965 1691.75 32.6746 Q1697.78 26.1121 1707.99 26.1121 Q1717.15 26.1121 1722.45 32.0264 Q1727.8 37.9003 1727.8 48.0275 M1720.35 45.84 Q1720.26 39.7232 1716.9 36.0774 Q1713.58 32.4315 1708.07 32.4315 Q1701.83 32.4315 1698.07 35.9558 Q1694.34 39.4801 1693.77 45.8805 L1720.35 45.84 Z" fill="#000000" fill-rule="evenodd" fill-opacity="1" /><path clip-path="url(#clip940)" d="M1766.4 27.2059 L1773.86 27.2059 L1773.86 72.576 L1766.4 72.576 L1766.4 27.2059 M1766.4 9.54393 L1773.86 9.54393 L1773.86 18.9825 L1766.4 18.9825 L1766.4 9.54393 Z" fill="#000000" fill-rule="evenodd" fill-opacity="1" /><path clip-path="url(#clip940)" d="M1827.17 45.1919 L1827.17 72.576 L1819.71 72.576 L1819.71 45.4349 Q1819.71 38.994 1817.2 35.7938 Q1814.69 32.5936 1809.67 32.5936 Q1803.63 32.5936 1800.15 36.4419 Q1796.66 40.2903 1796.66 46.9338 L1796.66 72.576 L1789.17 72.576 L1789.17 27.2059 L1796.66 27.2059 L1796.66 34.2544 Q1799.34 30.163 1802.94 28.1376 Q1806.59 26.1121 1811.33 26.1121 Q1819.15 26.1121 1823.16 30.9732 Q1827.17 35.7938 1827.17 45.1919 Z" fill="#000000" fill-rule="evenodd" fill-opacity="1" /><path clip-path="url(#clip940)" d="M1868.73 12.096 L1876.91 12.096 L1876.91 68.3631 Q1876.91 79.3005 1872.74 84.2426 Q1868.61 89.1847 1859.41 89.1847 L1856.29 89.1847 L1856.29 82.2982 L1858.85 82.2982 Q1864.27 82.2982 1866.5 79.26 Q1868.73 76.2218 1868.73 68.3631 L1868.73 12.096 Z" fill="#000000" fill-rule="evenodd" fill-opacity="1" /><path clip-path="url(#clip940)" d="M1931.68 48.0275 L1931.68 51.6733 L1897.41 51.6733 Q1897.9 59.3701 1902.03 63.421 Q1906.2 67.4314 1913.61 67.4314 Q1917.91 67.4314 1921.92 66.3781 Q1925.97 65.3249 1929.94 63.2184 L1929.94 70.267 Q1925.93 71.9684 1921.72 72.8596 Q1917.5 73.7508 1913.17 73.7508 Q1902.31 73.7508 1895.95 67.4314 Q1889.63 61.1119 1889.63 50.3365 Q1889.63 39.1965 1895.63 32.6746 Q1901.66 26.1121 1911.87 26.1121 Q1921.03 26.1121 1926.33 32.0264 Q1931.68 37.9003 1931.68 48.0275 M1924.23 45.84 Q1924.15 39.7232 1920.78 36.0774 Q1917.46 32.4315 1911.95 32.4315 Q1905.71 32.4315 1901.95 35.9558 Q1898.22 39.4801 1897.65 45.8805 L1924.23 45.84 Z" fill="#000000" fill-rule="evenodd" fill-opacity="1" /><path clip-path="url(#clip940)" d="M1951.29 14.324 L1951.29 27.2059 L1966.64 27.2059 L1966.64 32.9987 L1951.29 32.9987 L1951.29 57.6282 Q1951.29 63.1779 1952.79 64.7578 Q1954.33 66.3376 1958.98 66.3376 L1966.64 66.3376 L1966.64 72.576 L1958.98 72.576 Q1950.36 72.576 1947.07 69.3758 Q1943.79 66.1351 1943.79 57.6282 L1943.79 32.9987 L1938.32 32.9987 L1938.32 27.2059 L1943.79 27.2059 L1943.79 14.324 L1951.29 14.324 Z" fill="#000000" fill-rule="evenodd" fill-opacity="1" /><polyline clip-path="url(#clip942)" style="stroke:#009af9; stroke-linecap:butt; stroke-linejoin:round; stroke-width:4; stroke-opacity:1; fill:none" points="
  280.231,-1126.38 300.763,-248.737 321.296,179.41 341.828,432.982 362.36,600.67 382.892,719.788 403.425,808.769 423.957,877.765 444.489,932.83 465.021,977.795 
  485.554,1015.21 506.086,1046.82 526.618,1073.89 547.15,1097.32 567.683,1117.81 588.215,1135.87 608.747,1151.92 629.279,1166.27 649.811,1179.17 670.344,1190.85 
  690.876,1201.45 711.408,1211.13 731.94,1220 752.473,1228.16 773.005,1235.69 793.537,1242.66 814.069,1249.13 834.602,1255.15 855.134,1260.77 875.666,1266.02 
  896.198,1270.95 916.731,1275.58 937.263,1279.93 957.795,1284.03 978.327,1287.91 998.86,1291.57 1019.39,1295.05 1039.92,1298.34 1060.46,1301.47 1080.99,1304.44 
  1101.52,1307.28 1122.05,1309.98 1142.59,1312.56 1163.12,1315.02 1183.65,1317.38 1204.18,1319.63 1224.71,1321.79 1245.25,1323.87 1265.78,1325.86 1286.31,1327.77 
  1306.84,1329.61 1327.38,1331.38 1347.91,1333.08 1368.44,1334.72 1388.97,1336.3 1409.5,1337.83 1430.04,1339.3 1450.57,1340.73 1471.1,1342.1 1491.63,1343.43 
  1512.17,1344.72 1532.7,1345.97 1553.23,1347.18 1573.76,1348.35 1594.29,1349.48 1614.83,1350.59 1635.36,1351.65 1655.89,1352.69 1676.42,1353.7 1696.96,1354.68 
  1717.49,1355.63 1738.02,1356.56 1758.55,1357.46 1779.08,1358.34 1799.62,1359.19 1820.15,1360.03 1840.68,1360.84 1861.21,1361.63 1881.75,1362.4 1902.28,1363.15 
  1922.81,1363.88 1943.34,1364.6 1963.88,1365.29 1984.41,1365.98 2004.94,1366.64 2025.47,1367.29 2046,1367.93 2066.54,1368.55 2087.07,1369.16 2107.6,1369.75 
  2128.13,1370.33 2148.67,1370.9 2169.2,1371.46 2189.73,1372 2210.26,1372.54 2230.79,1373.06 2251.33,1373.57 2271.86,1374.07 2292.39,1374.56 
  "/>
<circle clip-path="url(#clip942)" cx="1775.67" cy="1358.19" r="14" fill="#e26f46" fill-rule="evenodd" fill-opacity="1" stroke="#000000" stroke-opacity="1" stroke-width="3.2"/>
<path clip-path="url(#clip940)" d="
M1455.81 322.316 L2281.66 322.316 L2281.66 166.796 L1455.81 166.796  Z
  " fill="#ffffff" fill-rule="evenodd" fill-opacity="1"/>
<polyline clip-path="url(#clip940)" style="stroke:#000000; stroke-linecap:butt; stroke-linejoin:round; stroke-width:4; stroke-opacity:1; fill:none" points="
  1455.81,322.316 2281.66,322.316 2281.66,166.796 1455.81,166.796 1455.81,322.316 
  "/>
<polyline clip-path="url(#clip940)" style="stroke:#009af9; stroke-linecap:butt; stroke-linejoin:round; stroke-width:4; stroke-opacity:1; fill:none" points="
  1479.51,218.636 1621.7,218.636 
  "/>
<path clip-path="url(#clip940)" d="M1673.27 204.018 L1673.27 208.948 Q1670.91 206.749 1668.22 205.661 Q1665.56 204.573 1662.55 204.573 Q1656.63 204.573 1653.48 208.208 Q1650.33 211.819 1650.33 218.67 Q1650.33 225.499 1653.48 229.133 Q1656.63 232.744 1662.55 232.744 Q1665.56 232.744 1668.22 231.656 Q1670.91 230.569 1673.27 228.369 L1673.27 233.254 Q1670.82 234.92 1668.06 235.754 Q1665.33 236.587 1662.27 236.587 Q1654.43 236.587 1649.91 231.795 Q1645.4 226.981 1645.4 218.67 Q1645.4 210.337 1649.91 205.546 Q1654.43 200.731 1662.27 200.731 Q1665.38 200.731 1668.11 201.564 Q1670.86 202.374 1673.27 204.018 Z" fill="#000000" fill-rule="evenodd" fill-opacity="1" /><path clip-path="url(#clip940)" d="M1702.48 221.888 L1702.48 223.971 L1682.9 223.971 Q1683.18 228.369 1685.54 230.684 Q1687.92 232.976 1692.16 232.976 Q1694.61 232.976 1696.9 232.374 Q1699.22 231.772 1701.49 230.569 L1701.49 234.596 Q1699.2 235.568 1696.79 236.078 Q1694.38 236.587 1691.9 236.587 Q1685.7 236.587 1682.07 232.976 Q1678.45 229.365 1678.45 223.207 Q1678.45 216.842 1681.88 213.115 Q1685.33 209.365 1691.16 209.365 Q1696.39 209.365 1699.43 212.745 Q1702.48 216.101 1702.48 221.888 M1698.22 220.638 Q1698.18 217.143 1696.26 215.059 Q1694.36 212.976 1691.21 212.976 Q1687.64 212.976 1685.49 214.99 Q1683.36 217.004 1683.04 220.661 L1698.22 220.638 Z" fill="#000000" fill-rule="evenodd" fill-opacity="1" /><path clip-path="url(#clip940)" d="M1731.02 220.268 L1731.02 235.916 L1726.76 235.916 L1726.76 220.407 Q1726.76 216.726 1725.33 214.897 Q1723.89 213.069 1721.02 213.069 Q1717.57 213.069 1715.58 215.268 Q1713.59 217.467 1713.59 221.263 L1713.59 235.916 L1709.31 235.916 L1709.31 209.99 L1713.59 209.99 L1713.59 214.018 Q1715.12 211.68 1717.18 210.522 Q1719.26 209.365 1721.97 209.365 Q1726.44 209.365 1728.73 212.143 Q1731.02 214.897 1731.02 220.268 Z" fill="#000000" fill-rule="evenodd" fill-opacity="1" /><path clip-path="url(#clip940)" d="M1743.73 202.629 L1743.73 209.99 L1752.51 209.99 L1752.51 213.3 L1743.73 213.3 L1743.73 227.374 Q1743.73 230.545 1744.59 231.448 Q1745.47 232.351 1748.13 232.351 L1752.51 232.351 L1752.51 235.916 L1748.13 235.916 Q1743.2 235.916 1741.32 234.087 Q1739.45 232.235 1739.45 227.374 L1739.45 213.3 L1736.32 213.3 L1736.32 209.99 L1739.45 209.99 L1739.45 202.629 L1743.73 202.629 Z" fill="#000000" fill-rule="evenodd" fill-opacity="1" /><path clip-path="url(#clip940)" d="M1780.28 221.888 L1780.28 223.971 L1760.7 223.971 Q1760.98 228.369 1763.34 230.684 Q1765.72 232.976 1769.96 232.976 Q1772.41 232.976 1774.7 232.374 Q1777.02 231.772 1779.29 230.569 L1779.29 234.596 Q1777 235.568 1774.59 236.078 Q1772.18 236.587 1769.7 236.587 Q1763.5 236.587 1759.87 232.976 Q1756.26 229.365 1756.26 223.207 Q1756.26 216.842 1759.68 213.115 Q1763.13 209.365 1768.96 209.365 Q1774.2 209.365 1777.23 212.745 Q1780.28 216.101 1780.28 221.888 M1776.02 220.638 Q1775.98 217.143 1774.06 215.059 Q1772.16 212.976 1769.01 212.976 Q1765.45 212.976 1763.29 214.99 Q1761.16 217.004 1760.84 220.661 L1776.02 220.638 Z" fill="#000000" fill-rule="evenodd" fill-opacity="1" /><path clip-path="url(#clip940)" d="M1802.3 213.971 Q1801.58 213.555 1800.72 213.37 Q1799.89 213.161 1798.87 213.161 Q1795.26 213.161 1793.32 215.522 Q1791.39 217.86 1791.39 222.258 L1791.39 235.916 L1787.11 235.916 L1787.11 209.99 L1791.39 209.99 L1791.39 214.018 Q1792.74 211.657 1794.89 210.522 Q1797.04 209.365 1800.12 209.365 Q1800.56 209.365 1801.09 209.434 Q1801.63 209.481 1802.27 209.596 L1802.3 213.971 Z" fill="#000000" fill-rule="evenodd" fill-opacity="1" /><path clip-path="url(#clip940)" d="M1806.76 199.897 L1811.02 199.897 L1811.02 235.916 L1806.76 235.916 L1806.76 199.897 Z" fill="#000000" fill-rule="evenodd" fill-opacity="1" /><path clip-path="url(#clip940)" d="M1819.94 209.99 L1824.19 209.99 L1824.19 235.916 L1819.94 235.916 L1819.94 209.99 M1819.94 199.897 L1824.19 199.897 L1824.19 205.291 L1819.94 205.291 L1819.94 199.897 Z" fill="#000000" fill-rule="evenodd" fill-opacity="1" /><path clip-path="url(#clip940)" d="M1854.66 220.268 L1854.66 235.916 L1850.4 235.916 L1850.4 220.407 Q1850.4 216.726 1848.96 214.897 Q1847.53 213.069 1844.66 213.069 Q1841.21 213.069 1839.22 215.268 Q1837.23 217.467 1837.23 221.263 L1837.23 235.916 L1832.94 235.916 L1832.94 209.99 L1837.23 209.99 L1837.23 214.018 Q1838.75 211.68 1840.82 210.522 Q1842.9 209.365 1845.61 209.365 Q1850.07 209.365 1852.37 212.143 Q1854.66 214.897 1854.66 220.268 Z" fill="#000000" fill-rule="evenodd" fill-opacity="1" /><path clip-path="url(#clip940)" d="M1885.33 221.888 L1885.33 223.971 L1865.75 223.971 Q1866.02 228.369 1868.38 230.684 Q1870.77 232.976 1875 232.976 Q1877.46 232.976 1879.75 232.374 Q1882.06 231.772 1884.33 230.569 L1884.33 234.596 Q1882.04 235.568 1879.63 236.078 Q1877.23 236.587 1874.75 236.587 Q1868.55 236.587 1864.91 232.976 Q1861.3 229.365 1861.3 223.207 Q1861.3 216.842 1864.73 213.115 Q1868.18 209.365 1874.01 209.365 Q1879.24 209.365 1882.27 212.745 Q1885.33 216.101 1885.33 221.888 M1881.07 220.638 Q1881.02 217.143 1879.1 215.059 Q1877.2 212.976 1874.06 212.976 Q1870.49 212.976 1868.34 214.99 Q1866.21 217.004 1865.88 220.661 L1881.07 220.638 Z" fill="#000000" fill-rule="evenodd" fill-opacity="1" /><path clip-path="url(#clip940)" d="M1933.45 204.018 L1933.45 208.948 Q1931.09 206.749 1928.41 205.661 Q1925.75 204.573 1922.74 204.573 Q1916.81 204.573 1913.66 208.208 Q1910.51 211.819 1910.51 218.67 Q1910.51 225.499 1913.66 229.133 Q1916.81 232.744 1922.74 232.744 Q1925.75 232.744 1928.41 231.656 Q1931.09 230.569 1933.45 228.369 L1933.45 233.254 Q1931 234.92 1928.25 235.754 Q1925.51 236.587 1922.46 236.587 Q1914.61 236.587 1910.1 231.795 Q1905.58 226.981 1905.58 218.67 Q1905.58 210.337 1910.1 205.546 Q1914.61 200.731 1922.46 200.731 Q1925.56 200.731 1928.29 201.564 Q1931.05 202.374 1933.45 204.018 Z" fill="#000000" fill-rule="evenodd" fill-opacity="1" /><path clip-path="url(#clip940)" d="M1950.54 212.976 Q1947.11 212.976 1945.12 215.661 Q1943.13 218.323 1943.13 222.976 Q1943.13 227.629 1945.1 230.314 Q1947.09 232.976 1950.54 232.976 Q1953.94 232.976 1955.93 230.291 Q1957.92 227.606 1957.92 222.976 Q1957.92 218.37 1955.93 215.684 Q1953.94 212.976 1950.54 212.976 M1950.54 209.365 Q1956.09 209.365 1959.26 212.976 Q1962.43 216.587 1962.43 222.976 Q1962.43 229.342 1959.26 232.976 Q1956.09 236.587 1950.54 236.587 Q1944.96 236.587 1941.79 232.976 Q1938.64 229.342 1938.64 222.976 Q1938.64 216.587 1941.79 212.976 Q1944.96 209.365 1950.54 209.365 Z" fill="#000000" fill-rule="evenodd" fill-opacity="1" /><path clip-path="url(#clip940)" d="M1991.05 220.268 L1991.05 235.916 L1986.79 235.916 L1986.79 220.407 Q1986.79 216.726 1985.35 214.897 Q1983.92 213.069 1981.05 213.069 Q1977.6 213.069 1975.61 215.268 Q1973.62 217.467 1973.62 221.263 L1973.62 235.916 L1969.33 235.916 L1969.33 209.99 L1973.62 209.99 L1973.62 214.018 Q1975.14 211.68 1977.2 210.522 Q1979.29 209.365 1981.99 209.365 Q1986.46 209.365 1988.75 212.143 Q1991.05 214.897 1991.05 220.268 Z" fill="#000000" fill-rule="evenodd" fill-opacity="1" /><path clip-path="url(#clip940)" d="M2018.2 210.985 L2018.2 214.967 Q2016.39 213.971 2014.56 213.485 Q2012.76 212.976 2010.91 212.976 Q2006.76 212.976 2004.47 215.615 Q2002.18 218.231 2002.18 222.976 Q2002.18 227.721 2004.47 230.36 Q2006.76 232.976 2010.91 232.976 Q2012.76 232.976 2014.56 232.49 Q2016.39 231.981 2018.2 230.985 L2018.2 234.92 Q2016.42 235.754 2014.49 236.17 Q2012.6 236.587 2010.44 236.587 Q2004.59 236.587 2001.14 232.906 Q1997.69 229.226 1997.69 222.976 Q1997.69 216.633 2001.16 212.999 Q2004.66 209.365 2010.72 209.365 Q2012.69 209.365 2014.56 209.782 Q2016.44 210.175 2018.2 210.985 Z" fill="#000000" fill-rule="evenodd" fill-opacity="1" /><path clip-path="url(#clip940)" d="M2047.78 221.888 L2047.78 223.971 L2028.2 223.971 Q2028.48 228.369 2030.84 230.684 Q2033.22 232.976 2037.46 232.976 Q2039.91 232.976 2042.2 232.374 Q2044.52 231.772 2046.79 230.569 L2046.79 234.596 Q2044.49 235.568 2042.09 236.078 Q2039.68 236.587 2037.2 236.587 Q2031 236.587 2027.36 232.976 Q2023.75 229.365 2023.75 223.207 Q2023.75 216.842 2027.18 213.115 Q2030.63 209.365 2036.46 209.365 Q2041.69 209.365 2044.73 212.745 Q2047.78 216.101 2047.78 221.888 M2043.52 220.638 Q2043.48 217.143 2041.55 215.059 Q2039.66 212.976 2036.51 212.976 Q2032.94 212.976 2030.79 214.99 Q2028.66 217.004 2028.34 220.661 L2043.52 220.638 Z" fill="#000000" fill-rule="evenodd" fill-opacity="1" /><path clip-path="url(#clip940)" d="M2076.32 220.268 L2076.32 235.916 L2072.06 235.916 L2072.06 220.407 Q2072.06 216.726 2070.63 214.897 Q2069.19 213.069 2066.32 213.069 Q2062.87 213.069 2060.88 215.268 Q2058.89 217.467 2058.89 221.263 L2058.89 235.916 L2054.61 235.916 L2054.61 209.99 L2058.89 209.99 L2058.89 214.018 Q2060.42 211.68 2062.48 210.522 Q2064.56 209.365 2067.27 209.365 Q2071.74 209.365 2074.03 212.143 Q2076.32 214.897 2076.32 220.268 Z" fill="#000000" fill-rule="evenodd" fill-opacity="1" /><path clip-path="url(#clip940)" d="M2089.03 202.629 L2089.03 209.99 L2097.8 209.99 L2097.8 213.3 L2089.03 213.3 L2089.03 227.374 Q2089.03 230.545 2089.89 231.448 Q2090.77 232.351 2093.43 232.351 L2097.8 232.351 L2097.8 235.916 L2093.43 235.916 Q2088.5 235.916 2086.62 234.087 Q2084.75 232.235 2084.75 227.374 L2084.75 213.3 L2081.62 213.3 L2081.62 209.99 L2084.75 209.99 L2084.75 202.629 L2089.03 202.629 Z" fill="#000000" fill-rule="evenodd" fill-opacity="1" /><path clip-path="url(#clip940)" d="M2118.43 213.971 Q2117.71 213.555 2116.86 213.37 Q2116.02 213.161 2115 213.161 Q2111.39 213.161 2109.45 215.522 Q2107.53 217.86 2107.53 222.258 L2107.53 235.916 L2103.24 235.916 L2103.24 209.99 L2107.53 209.99 L2107.53 214.018 Q2108.87 211.657 2111.02 210.522 Q2113.17 209.365 2116.25 209.365 Q2116.69 209.365 2117.23 209.434 Q2117.76 209.481 2118.41 209.596 L2118.43 213.971 Z" fill="#000000" fill-rule="evenodd" fill-opacity="1" /><path clip-path="url(#clip940)" d="M2134.68 222.883 Q2129.52 222.883 2127.53 224.064 Q2125.54 225.244 2125.54 228.092 Q2125.54 230.36 2127.02 231.703 Q2128.52 233.022 2131.09 233.022 Q2134.63 233.022 2136.76 230.522 Q2138.92 227.999 2138.92 223.832 L2138.92 222.883 L2134.68 222.883 M2143.17 221.124 L2143.17 235.916 L2138.92 235.916 L2138.92 231.981 Q2137.46 234.342 2135.28 235.476 Q2133.11 236.587 2129.96 236.587 Q2125.98 236.587 2123.61 234.365 Q2121.28 232.119 2121.28 228.369 Q2121.28 223.994 2124.19 221.772 Q2127.13 219.55 2132.94 219.55 L2138.92 219.55 L2138.92 219.133 Q2138.92 216.194 2136.97 214.596 Q2135.05 212.976 2131.55 212.976 Q2129.33 212.976 2127.23 213.508 Q2125.12 214.041 2123.17 215.106 L2123.17 211.17 Q2125.51 210.268 2127.71 209.828 Q2129.91 209.365 2131.99 209.365 Q2137.62 209.365 2140.4 212.282 Q2143.17 215.198 2143.17 221.124 Z" fill="#000000" fill-rule="evenodd" fill-opacity="1" /><path clip-path="url(#clip940)" d="M2156.16 202.629 L2156.16 209.99 L2164.93 209.99 L2164.93 213.3 L2156.16 213.3 L2156.16 227.374 Q2156.16 230.545 2157.02 231.448 Q2157.9 232.351 2160.56 232.351 L2164.93 232.351 L2164.93 235.916 L2160.56 235.916 Q2155.63 235.916 2153.75 234.087 Q2151.88 232.235 2151.88 227.374 L2151.88 213.3 L2148.75 213.3 L2148.75 209.99 L2151.88 209.99 L2151.88 202.629 L2156.16 202.629 Z" fill="#000000" fill-rule="evenodd" fill-opacity="1" /><path clip-path="url(#clip940)" d="M2170.54 209.99 L2174.79 209.99 L2174.79 235.916 L2170.54 235.916 L2170.54 209.99 M2170.54 199.897 L2174.79 199.897 L2174.79 205.291 L2170.54 205.291 L2170.54 199.897 Z" fill="#000000" fill-rule="evenodd" fill-opacity="1" /><path clip-path="url(#clip940)" d="M2193.75 212.976 Q2190.33 212.976 2188.34 215.661 Q2186.35 218.323 2186.35 222.976 Q2186.35 227.629 2188.31 230.314 Q2190.3 232.976 2193.75 232.976 Q2197.16 232.976 2199.15 230.291 Q2201.14 227.606 2201.14 222.976 Q2201.14 218.37 2199.15 215.684 Q2197.16 212.976 2193.75 212.976 M2193.75 209.365 Q2199.31 209.365 2202.48 212.976 Q2205.65 216.587 2205.65 222.976 Q2205.65 229.342 2202.48 232.976 Q2199.31 236.587 2193.75 236.587 Q2188.17 236.587 2185 232.976 Q2181.85 229.342 2181.85 222.976 Q2181.85 216.587 2185 212.976 Q2188.17 209.365 2193.75 209.365 Z" fill="#000000" fill-rule="evenodd" fill-opacity="1" /><path clip-path="url(#clip940)" d="M2234.26 220.268 L2234.26 235.916 L2230 235.916 L2230 220.407 Q2230 216.726 2228.57 214.897 Q2227.13 213.069 2224.26 213.069 Q2220.81 213.069 2218.82 215.268 Q2216.83 217.467 2216.83 221.263 L2216.83 235.916 L2212.55 235.916 L2212.55 209.99 L2216.83 209.99 L2216.83 214.018 Q2218.36 211.68 2220.42 210.522 Q2222.5 209.365 2225.21 209.365 Q2229.68 209.365 2231.97 212.143 Q2234.26 214.897 2234.26 220.268 Z" fill="#000000" fill-rule="evenodd" fill-opacity="1" /><circle clip-path="url(#clip940)" cx="1550.6" cy="270.476" r="23" fill="#e26f46" fill-rule="evenodd" fill-opacity="1" stroke="#000000" stroke-opacity="1" stroke-width="5.12"/>
<path clip-path="url(#clip940)" d="M1645.4 253.196 L1650.08 253.196 L1650.08 283.821 L1666.9 283.821 L1666.9 287.756 L1645.4 287.756 L1645.4 253.196 Z" fill="#000000" fill-rule="evenodd" fill-opacity="1" /><path clip-path="url(#clip940)" d="M1680.84 264.816 Q1677.41 264.816 1675.42 267.501 Q1673.43 270.163 1673.43 274.816 Q1673.43 279.469 1675.4 282.154 Q1677.39 284.816 1680.84 284.816 Q1684.24 284.816 1686.23 282.131 Q1688.22 279.446 1688.22 274.816 Q1688.22 270.21 1686.23 267.524 Q1684.24 264.816 1680.84 264.816 M1680.84 261.205 Q1686.39 261.205 1689.57 264.816 Q1692.74 268.427 1692.74 274.816 Q1692.74 281.182 1689.57 284.816 Q1686.39 288.427 1680.84 288.427 Q1675.26 288.427 1672.09 284.816 Q1668.94 281.182 1668.94 274.816 Q1668.94 268.427 1672.09 264.816 Q1675.26 261.205 1680.84 261.205 Z" fill="#000000" fill-rule="evenodd" fill-opacity="1" /><path clip-path="url(#clip940)" d="M1697.32 261.83 L1701.58 261.83 L1706.9 282.061 L1712.2 261.83 L1717.23 261.83 L1722.55 282.061 L1727.85 261.83 L1732.11 261.83 L1725.33 287.756 L1720.31 287.756 L1714.73 266.506 L1709.13 287.756 L1704.1 287.756 L1697.32 261.83 Z" fill="#000000" fill-rule="evenodd" fill-opacity="1" /><path clip-path="url(#clip940)" d="M1760.75 273.728 L1760.75 275.811 L1741.16 275.811 Q1741.44 280.209 1743.8 282.524 Q1746.19 284.816 1750.42 284.816 Q1752.88 284.816 1755.17 284.214 Q1757.48 283.612 1759.75 282.409 L1759.75 286.436 Q1757.46 287.408 1755.05 287.918 Q1752.64 288.427 1750.17 288.427 Q1743.96 288.427 1740.33 284.816 Q1736.72 281.205 1736.72 275.047 Q1736.72 268.682 1740.14 264.955 Q1743.59 261.205 1749.43 261.205 Q1754.66 261.205 1757.69 264.585 Q1760.75 267.941 1760.75 273.728 M1756.49 272.478 Q1756.44 268.983 1754.52 266.899 Q1752.62 264.816 1749.47 264.816 Q1745.91 264.816 1743.76 266.83 Q1741.63 268.844 1741.3 272.501 L1756.49 272.478 Z" fill="#000000" fill-rule="evenodd" fill-opacity="1" /><path clip-path="url(#clip940)" d="M1782.76 265.811 Q1782.04 265.395 1781.19 265.21 Q1780.35 265.001 1779.33 265.001 Q1775.72 265.001 1773.78 267.362 Q1771.86 269.7 1771.86 274.098 L1771.86 287.756 L1767.57 287.756 L1767.57 261.83 L1771.86 261.83 L1771.86 265.858 Q1773.2 263.497 1775.35 262.362 Q1777.51 261.205 1780.58 261.205 Q1781.02 261.205 1781.56 261.274 Q1782.09 261.321 1782.74 261.436 L1782.76 265.811 Z" fill="#000000" fill-rule="evenodd" fill-opacity="1" /><path clip-path="url(#clip940)" d="M1802.48 253.196 L1824.33 253.196 L1824.33 257.131 L1807.16 257.131 L1807.16 267.362 L1823.62 267.362 L1823.62 271.297 L1807.16 271.297 L1807.16 283.821 L1824.75 283.821 L1824.75 287.756 L1802.48 287.756 L1802.48 253.196 Z" fill="#000000" fill-rule="evenodd" fill-opacity="1" /><path clip-path="url(#clip940)" d="M1853.8 261.83 L1844.43 274.446 L1854.29 287.756 L1849.26 287.756 L1841.72 277.571 L1834.17 287.756 L1829.15 287.756 L1839.22 274.191 L1830 261.83 L1835.03 261.83 L1841.9 271.066 L1848.78 261.83 L1853.8 261.83 Z" fill="#000000" fill-rule="evenodd" fill-opacity="1" /><path clip-path="url(#clip940)" d="M1864.43 283.867 L1864.43 297.617 L1860.14 297.617 L1860.14 261.83 L1864.43 261.83 L1864.43 265.765 Q1865.77 263.45 1867.81 262.339 Q1869.87 261.205 1872.71 261.205 Q1877.44 261.205 1880.38 264.955 Q1883.34 268.705 1883.34 274.816 Q1883.34 280.927 1880.38 284.677 Q1877.44 288.427 1872.71 288.427 Q1869.87 288.427 1867.81 287.316 Q1865.77 286.182 1864.43 283.867 M1878.92 274.816 Q1878.92 270.117 1876.97 267.455 Q1875.05 264.77 1871.67 264.77 Q1868.29 264.77 1866.35 267.455 Q1864.43 270.117 1864.43 274.816 Q1864.43 279.515 1866.35 282.2 Q1868.29 284.862 1871.67 284.862 Q1875.05 284.862 1876.97 282.2 Q1878.92 279.515 1878.92 274.816 Z" fill="#000000" fill-rule="evenodd" fill-opacity="1" /><path clip-path="url(#clip940)" d="M1890.4 251.737 L1894.66 251.737 L1894.66 287.756 L1890.4 287.756 L1890.4 251.737 Z" fill="#000000" fill-rule="evenodd" fill-opacity="1" /><path clip-path="url(#clip940)" d="M1913.62 264.816 Q1910.19 264.816 1908.2 267.501 Q1906.21 270.163 1906.21 274.816 Q1906.21 279.469 1908.18 282.154 Q1910.17 284.816 1913.62 284.816 Q1917.02 284.816 1919.01 282.131 Q1921 279.446 1921 274.816 Q1921 270.21 1919.01 267.524 Q1917.02 264.816 1913.62 264.816 M1913.62 261.205 Q1919.17 261.205 1922.34 264.816 Q1925.51 268.427 1925.51 274.816 Q1925.51 281.182 1922.34 284.816 Q1919.17 288.427 1913.62 288.427 Q1908.04 288.427 1904.87 284.816 Q1901.72 281.182 1901.72 274.816 Q1901.72 268.427 1904.87 264.816 Q1908.04 261.205 1913.62 261.205 Z" fill="#000000" fill-rule="evenodd" fill-opacity="1" /><path clip-path="url(#clip940)" d="M1949.1 262.594 L1949.1 266.622 Q1947.3 265.696 1945.35 265.233 Q1943.41 264.77 1941.32 264.77 Q1938.15 264.77 1936.56 265.742 Q1934.98 266.714 1934.98 268.659 Q1934.98 270.14 1936.12 270.997 Q1937.25 271.83 1940.68 272.594 L1942.13 272.918 Q1946.67 273.89 1948.57 275.672 Q1950.49 277.432 1950.49 280.603 Q1950.49 284.214 1947.62 286.321 Q1944.77 288.427 1939.77 288.427 Q1937.69 288.427 1935.42 288.01 Q1933.18 287.617 1930.68 286.807 L1930.68 282.409 Q1933.04 283.635 1935.33 284.26 Q1937.62 284.862 1939.87 284.862 Q1942.87 284.862 1944.5 283.844 Q1946.12 282.802 1946.12 280.927 Q1946.12 279.191 1944.93 278.265 Q1943.78 277.339 1939.82 276.483 L1938.34 276.135 Q1934.38 275.302 1932.62 273.589 Q1930.86 271.853 1930.86 268.844 Q1930.86 265.186 1933.45 263.196 Q1936.05 261.205 1940.81 261.205 Q1943.18 261.205 1945.26 261.552 Q1947.34 261.899 1949.1 262.594 Z" fill="#000000" fill-rule="evenodd" fill-opacity="1" /><path clip-path="url(#clip940)" d="M1957.27 261.83 L1961.53 261.83 L1961.53 287.756 L1957.27 287.756 L1957.27 261.83 M1957.27 251.737 L1961.53 251.737 L1961.53 257.131 L1957.27 257.131 L1957.27 251.737 Z" fill="#000000" fill-rule="evenodd" fill-opacity="1" /><path clip-path="url(#clip940)" d="M1967.39 261.83 L1971.9 261.83 L1980 283.589 L1988.11 261.83 L1992.62 261.83 L1982.9 287.756 L1977.11 287.756 L1967.39 261.83 Z" fill="#000000" fill-rule="evenodd" fill-opacity="1" /><path clip-path="url(#clip940)" d="M2020.68 273.728 L2020.68 275.811 L2001.09 275.811 Q2001.37 280.209 2003.73 282.524 Q2006.12 284.816 2010.35 284.816 Q2012.8 284.816 2015.1 284.214 Q2017.41 283.612 2019.68 282.409 L2019.68 286.436 Q2017.39 287.408 2014.98 287.918 Q2012.57 288.427 2010.1 288.427 Q2003.89 288.427 2000.26 284.816 Q1996.65 281.205 1996.65 275.047 Q1996.65 268.682 2000.07 264.955 Q2003.52 261.205 2009.36 261.205 Q2014.59 261.205 2017.62 264.585 Q2020.68 267.941 2020.68 273.728 M2016.42 272.478 Q2016.37 268.983 2014.45 266.899 Q2012.55 264.816 2009.4 264.816 Q2005.84 264.816 2003.68 266.83 Q2001.55 268.844 2001.23 272.501 L2016.42 272.478 Z" fill="#000000" fill-rule="evenodd" fill-opacity="1" /><path clip-path="url(#clip940)" d="M2042.92 253.196 L2047.6 253.196 L2047.6 283.821 L2064.42 283.821 L2064.42 287.756 L2042.92 287.756 L2042.92 253.196 Z" fill="#000000" fill-rule="evenodd" fill-opacity="1" /><path clip-path="url(#clip940)" d="M2069.15 261.83 L2073.41 261.83 L2073.41 287.756 L2069.15 287.756 L2069.15 261.83 M2069.15 251.737 L2073.41 251.737 L2073.41 257.131 L2069.15 257.131 L2069.15 251.737 Z" fill="#000000" fill-rule="evenodd" fill-opacity="1" /><path clip-path="url(#clip940)" d="M2102.5 266.807 Q2104.1 263.936 2106.32 262.571 Q2108.55 261.205 2111.55 261.205 Q2115.61 261.205 2117.8 264.052 Q2120 266.876 2120 272.108 L2120 287.756 L2115.72 287.756 L2115.72 272.247 Q2115.72 268.52 2114.4 266.714 Q2113.08 264.909 2110.37 264.909 Q2107.06 264.909 2105.14 267.108 Q2103.22 269.307 2103.22 273.103 L2103.22 287.756 L2098.94 287.756 L2098.94 272.247 Q2098.94 268.497 2097.62 266.714 Q2096.3 264.909 2093.55 264.909 Q2090.28 264.909 2088.36 267.131 Q2086.44 269.33 2086.44 273.103 L2086.44 287.756 L2082.16 287.756 L2082.16 261.83 L2086.44 261.83 L2086.44 265.858 Q2087.9 263.473 2089.93 262.339 Q2091.97 261.205 2094.77 261.205 Q2097.6 261.205 2099.56 262.64 Q2101.55 264.075 2102.5 266.807 Z" fill="#000000" fill-rule="evenodd" fill-opacity="1" /><path clip-path="url(#clip940)" d="M2128.5 261.83 L2132.76 261.83 L2132.76 287.756 L2128.5 287.756 L2128.5 261.83 M2128.5 251.737 L2132.76 251.737 L2132.76 257.131 L2128.5 257.131 L2128.5 251.737 Z" fill="#000000" fill-rule="evenodd" fill-opacity="1" /><path clip-path="url(#clip940)" d="M2145.88 254.469 L2145.88 261.83 L2154.66 261.83 L2154.66 265.14 L2145.88 265.14 L2145.88 279.214 Q2145.88 282.385 2146.74 283.288 Q2147.62 284.191 2150.28 284.191 L2154.66 284.191 L2154.66 287.756 L2150.28 287.756 Q2145.35 287.756 2143.48 285.927 Q2141.6 284.075 2141.6 279.214 L2141.6 265.14 L2138.48 265.14 L2138.48 261.83 L2141.6 261.83 L2141.6 254.469 L2145.88 254.469 Z" fill="#000000" fill-rule="evenodd" fill-opacity="1" /></svg>
