<?xml version="1.0" encoding="utf-8"?>
<svg xmlns="http://www.w3.org/2000/svg" xmlns:xlink="http://www.w3.org/1999/xlink" width="600" height="400" viewBox="0 0 2400 1600">
<defs>
  <clipPath id="clip550">
    <rect x="0" y="0" width="2400" height="1600"/>
  </clipPath>
</defs>
<path clip-path="url(#clip550)" d="M0 1600 L2400 1600 L2400 0 L0 0  Z" fill="#ffffff" fill-rule="evenodd" fill-opacity="1"/>
<defs>
  <clipPath id="clip551">
    <rect x="480" y="0" width="1681" height="1600"/>
  </clipPath>
</defs>
<path clip-path="url(#clip550)" d="M203.964 1423.18 L2352.76 1423.18 L2352.76 123.472 L203.964 123.472  Z" fill="#ffffff" fill-rule="evenodd" fill-opacity="1"/>
<defs>
  <clipPath id="clip552">
    <rect x="203" y="123" width="2150" height="1301"/>
  </clipPath>
</defs>
<polyline clip-path="url(#clip552)" style="stroke:#000000; stroke-linecap:round; stroke-linejoin:round; stroke-width:2; stroke-opacity:0.1; fill:none" points="264.778,1423.18 264.778,123.472 "/>
<polyline clip-path="url(#clip552)" style="stroke:#000000; stroke-linecap:round; stroke-linejoin:round; stroke-width:2; stroke-opacity:0.1; fill:none" points="687.104,1423.18 687.104,123.472 "/>
<polyline clip-path="url(#clip552)" style="stroke:#000000; stroke-linecap:round; stroke-linejoin:round; stroke-width:2; stroke-opacity:0.1; fill:none" points="1109.43,1423.18 1109.43,123.472 "/>
<polyline clip-path="url(#clip552)" style="stroke:#000000; stroke-linecap:round; stroke-linejoin:round; stroke-width:2; stroke-opacity:0.1; fill:none" points="1531.76,1423.18 1531.76,123.472 "/>
<polyline clip-path="url(#clip552)" style="stroke:#000000; stroke-linecap:round; stroke-linejoin:round; stroke-width:2; stroke-opacity:0.1; fill:none" points="1954.08,1423.18 1954.08,123.472 "/>
<polyline clip-path="url(#clip550)" style="stroke:#000000; stroke-linecap:round; stroke-linejoin:round; stroke-width:4; stroke-opacity:1; fill:none" points="203.964,1423.18 2352.76,1423.18 "/>
<polyline clip-path="url(#clip550)" style="stroke:#000000; stroke-linecap:round; stroke-linejoin:round; stroke-width:4; stroke-opacity:1; fill:none" points="264.778,1423.18 264.778,1404.28 "/>
<polyline clip-path="url(#clip550)" style="stroke:#000000; stroke-linecap:round; stroke-linejoin:round; stroke-width:4; stroke-opacity:1; fill:none" points="687.104,1423.18 687.104,1404.28 "/>
<polyline clip-path="url(#clip550)" style="stroke:#000000; stroke-linecap:round; stroke-linejoin:round; stroke-width:4; stroke-opacity:1; fill:none" points="1109.43,1423.18 1109.43,1404.28 "/>
<polyline clip-path="url(#clip550)" style="stroke:#000000; stroke-linecap:round; stroke-linejoin:round; stroke-width:4; stroke-opacity:1; fill:none" points="1531.76,1423.18 1531.76,1404.28 "/>
<polyline clip-path="url(#clip550)" style="stroke:#000000; stroke-linecap:round; stroke-linejoin:round; stroke-width:4; stroke-opacity:1; fill:none" points="1954.08,1423.18 1954.08,1404.28 "/>
<path clip-path="url(#clip550)" d="M264.778 1454.1 Q261.167 1454.1 259.339 1457.66 Q257.533 1461.2 257.533 1468.33 Q257.533 1475.44 259.339 1479.01 Q261.167 1482.55 264.778 1482.55 Q268.413 1482.55 270.218 1479.01 Q272.047 1475.44 272.047 1468.33 Q272.047 1461.2 270.218 1457.66 Q268.413 1454.1 264.778 1454.1 M264.778 1450.39 Q270.589 1450.39 273.644 1455 Q276.723 1459.58 276.723 1468.33 Q276.723 1477.06 273.644 1481.67 Q270.589 1486.25 264.778 1486.25 Q258.968 1486.25 255.89 1481.67 Q252.834 1477.06 252.834 1468.33 Q252.834 1459.58 255.89 1455 Q258.968 1450.39 264.778 1450.39 Z" fill="#000000" fill-rule="nonzero" fill-opacity="1" /><path clip-path="url(#clip550)" d="M661.803 1451.02 L680.16 1451.02 L680.16 1454.96 L666.086 1454.96 L666.086 1463.43 Q667.104 1463.08 668.123 1462.92 Q669.141 1462.73 670.16 1462.73 Q675.947 1462.73 679.326 1465.9 Q682.706 1469.08 682.706 1474.49 Q682.706 1480.07 679.234 1483.17 Q675.761 1486.25 669.442 1486.25 Q667.266 1486.25 664.998 1485.88 Q662.752 1485.51 660.345 1484.77 L660.345 1480.07 Q662.428 1481.2 664.65 1481.76 Q666.873 1482.32 669.349 1482.32 Q673.354 1482.32 675.692 1480.21 Q678.03 1478.1 678.03 1474.49 Q678.03 1470.88 675.692 1468.77 Q673.354 1466.67 669.349 1466.67 Q667.474 1466.67 665.599 1467.08 Q663.748 1467.5 661.803 1468.38 L661.803 1451.02 Z" fill="#000000" fill-rule="nonzero" fill-opacity="1" /><path clip-path="url(#clip550)" d="M701.919 1454.1 Q698.308 1454.1 696.479 1457.66 Q694.673 1461.2 694.673 1468.33 Q694.673 1475.44 696.479 1479.01 Q698.308 1482.55 701.919 1482.55 Q705.553 1482.55 707.359 1479.01 Q709.187 1475.44 709.187 1468.33 Q709.187 1461.2 707.359 1457.66 Q705.553 1454.1 701.919 1454.1 M701.919 1450.39 Q707.729 1450.39 710.784 1455 Q713.863 1459.58 713.863 1468.33 Q713.863 1477.06 710.784 1481.67 Q707.729 1486.25 701.919 1486.25 Q696.109 1486.25 693.03 1481.67 Q689.974 1477.06 689.974 1468.33 Q689.974 1459.58 693.03 1455 Q696.109 1450.39 701.919 1450.39 Z" fill="#000000" fill-rule="nonzero" fill-opacity="1" /><path clip-path="url(#clip550)" d="M1069.04 1481.64 L1076.68 1481.64 L1076.68 1455.28 L1068.36 1456.95 L1068.36 1452.69 L1076.63 1451.02 L1081.3 1451.02 L1081.3 1481.64 L1088.94 1481.64 L1088.94 1485.58 L1069.04 1485.58 L1069.04 1481.64 Z" fill="#000000" fill-rule="nonzero" fill-opacity="1" /><path clip-path="url(#clip550)" d="M1108.39 1454.1 Q1104.78 1454.1 1102.95 1457.66 Q1101.14 1461.2 1101.14 1468.33 Q1101.14 1475.44 1102.95 1479.01 Q1104.78 1482.55 1108.39 1482.55 Q1112.02 1482.55 1113.83 1479.01 Q1115.66 1475.44 1115.66 1468.33 Q1115.66 1461.2 1113.83 1457.66 Q1112.02 1454.1 1108.39 1454.1 M1108.39 1450.39 Q1114.2 1450.39 1117.25 1455 Q1120.33 1459.58 1120.33 1468.33 Q1120.33 1477.06 1117.25 1481.67 Q1114.2 1486.25 1108.39 1486.25 Q1102.58 1486.25 1099.5 1481.67 Q1096.44 1477.06 1096.44 1468.33 Q1096.44 1459.58 1099.5 1455 Q1102.58 1450.39 1108.39 1450.39 Z" fill="#000000" fill-rule="nonzero" fill-opacity="1" /><path clip-path="url(#clip550)" d="M1138.55 1454.1 Q1134.94 1454.1 1133.11 1457.66 Q1131.3 1461.2 1131.3 1468.33 Q1131.3 1475.44 1133.11 1479.01 Q1134.94 1482.55 1138.55 1482.55 Q1142.18 1482.55 1143.99 1479.01 Q1145.82 1475.44 1145.82 1468.33 Q1145.82 1461.2 1143.99 1457.66 Q1142.18 1454.1 1138.55 1454.1 M1138.55 1450.39 Q1144.36 1450.39 1147.42 1455 Q1150.49 1459.58 1150.49 1468.33 Q1150.49 1477.06 1147.42 1481.67 Q1144.36 1486.25 1138.55 1486.25 Q1132.74 1486.25 1129.66 1481.67 Q1126.61 1477.06 1126.61 1468.33 Q1126.61 1459.58 1129.66 1455 Q1132.74 1450.39 1138.55 1450.39 Z" fill="#000000" fill-rule="nonzero" fill-opacity="1" /><path clip-path="url(#clip550)" d="M1491.36 1481.64 L1499 1481.64 L1499 1455.28 L1490.69 1456.95 L1490.69 1452.69 L1498.95 1451.02 L1503.63 1451.02 L1503.63 1481.64 L1511.27 1481.64 L1511.27 1485.58 L1491.36 1485.58 L1491.36 1481.64 Z" fill="#000000" fill-rule="nonzero" fill-opacity="1" /><path clip-path="url(#clip550)" d="M1520.76 1451.02 L1539.12 1451.02 L1539.12 1454.96 L1525.04 1454.96 L1525.04 1463.43 Q1526.06 1463.08 1527.08 1462.92 Q1528.1 1462.73 1529.12 1462.73 Q1534.9 1462.73 1538.28 1465.9 Q1541.66 1469.08 1541.66 1474.49 Q1541.66 1480.07 1538.19 1483.17 Q1534.72 1486.25 1528.4 1486.25 Q1526.22 1486.25 1523.95 1485.88 Q1521.71 1485.51 1519.3 1484.77 L1519.3 1480.07 Q1521.38 1481.2 1523.61 1481.76 Q1525.83 1482.32 1528.31 1482.32 Q1532.31 1482.32 1534.65 1480.21 Q1536.99 1478.1 1536.99 1474.49 Q1536.99 1470.88 1534.65 1468.77 Q1532.31 1466.67 1528.31 1466.67 Q1526.43 1466.67 1524.56 1467.08 Q1522.7 1467.5 1520.76 1468.38 L1520.76 1451.02 Z" fill="#000000" fill-rule="nonzero" fill-opacity="1" /><path clip-path="url(#clip550)" d="M1560.88 1454.1 Q1557.26 1454.1 1555.44 1457.66 Q1553.63 1461.2 1553.63 1468.33 Q1553.63 1475.44 1555.44 1479.01 Q1557.26 1482.55 1560.88 1482.55 Q1564.51 1482.55 1566.32 1479.01 Q1568.14 1475.44 1568.14 1468.33 Q1568.14 1461.2 1566.32 1457.66 Q1564.51 1454.1 1560.88 1454.1 M1560.88 1450.39 Q1566.69 1450.39 1569.74 1455 Q1572.82 1459.58 1572.82 1468.33 Q1572.82 1477.06 1569.74 1481.67 Q1566.69 1486.25 1560.88 1486.25 Q1555.07 1486.25 1551.99 1481.67 Q1548.93 1477.06 1548.93 1468.33 Q1548.93 1459.58 1551.99 1455 Q1555.07 1450.39 1560.88 1450.39 Z" fill="#000000" fill-rule="nonzero" fill-opacity="1" /><path clip-path="url(#clip550)" d="M1917.77 1481.64 L1934.09 1481.64 L1934.09 1485.58 L1912.15 1485.58 L1912.15 1481.64 Q1914.81 1478.89 1919.39 1474.26 Q1924 1469.61 1925.18 1468.27 Q1927.43 1465.74 1928.31 1464.01 Q1929.21 1462.25 1929.21 1460.56 Q1929.21 1457.8 1927.26 1456.07 Q1925.34 1454.33 1922.24 1454.33 Q1920.04 1454.33 1917.59 1455.09 Q1915.16 1455.86 1912.38 1457.41 L1912.38 1452.69 Q1915.2 1451.55 1917.66 1450.97 Q1920.11 1450.39 1922.15 1450.39 Q1927.52 1450.39 1930.71 1453.08 Q1933.91 1455.77 1933.91 1460.26 Q1933.91 1462.39 1933.1 1464.31 Q1932.31 1466.2 1930.2 1468.8 Q1929.62 1469.47 1926.52 1472.69 Q1923.42 1475.88 1917.77 1481.64 Z" fill="#000000" fill-rule="nonzero" fill-opacity="1" /><path clip-path="url(#clip550)" d="M1953.91 1454.1 Q1950.3 1454.1 1948.47 1457.66 Q1946.66 1461.2 1946.66 1468.33 Q1946.66 1475.44 1948.47 1479.01 Q1950.3 1482.55 1953.91 1482.55 Q1957.54 1482.55 1959.35 1479.01 Q1961.18 1475.44 1961.18 1468.33 Q1961.18 1461.2 1959.35 1457.66 Q1957.54 1454.1 1953.91 1454.1 M1953.91 1450.39 Q1959.72 1450.39 1962.77 1455 Q1965.85 1459.58 1965.85 1468.33 Q1965.85 1477.06 1962.77 1481.67 Q1959.72 1486.25 1953.91 1486.25 Q1948.1 1486.25 1945.02 1481.67 Q1941.96 1477.06 1941.96 1468.33 Q1941.96 1459.58 1945.02 1455 Q1948.1 1450.39 1953.91 1450.39 Z" fill="#000000" fill-rule="nonzero" fill-opacity="1" /><path clip-path="url(#clip550)" d="M1984.07 1454.1 Q1980.46 1454.1 1978.63 1457.66 Q1976.82 1461.2 1976.82 1468.33 Q1976.82 1475.44 1978.63 1479.01 Q1980.46 1482.55 1984.07 1482.55 Q1987.7 1482.55 1989.51 1479.01 Q1991.34 1475.44 1991.34 1468.33 Q1991.34 1461.2 1989.51 1457.66 Q1987.7 1454.1 1984.07 1454.1 M1984.07 1450.39 Q1989.88 1450.39 1992.93 1455 Q1996.01 1459.58 1996.01 1468.33 Q1996.01 1477.06 1992.93 1481.67 Q1989.88 1486.25 1984.07 1486.25 Q1978.26 1486.25 1975.18 1481.67 Q1972.12 1477.06 1972.12 1468.33 Q1972.12 1459.58 1975.18 1455 Q1978.26 1450.39 1984.07 1450.39 Z" fill="#000000" fill-rule="nonzero" fill-opacity="1" /><path clip-path="url(#clip550)" d="M1148.53 1520.52 L1188.73 1520.52 L1188.73 1525.93 L1171.86 1525.93 L1171.86 1568.04 L1165.4 1568.04 L1165.4 1525.93 L1148.53 1525.93 L1148.53 1520.52 Z" fill="#000000" fill-rule="nonzero" fill-opacity="1" /><path clip-path="url(#clip550)" d="M1192.68 1532.4 L1198.53 1532.4 L1198.53 1568.04 L1192.68 1568.04 L1192.68 1532.4 M1192.68 1518.52 L1198.53 1518.52 L1198.53 1525.93 L1192.68 1525.93 L1192.68 1518.52 Z" fill="#000000" fill-rule="nonzero" fill-opacity="1" /><path clip-path="url(#clip550)" d="M1238.54 1539.24 Q1240.74 1535.29 1243.79 1533.41 Q1246.85 1531.54 1250.99 1531.54 Q1256.56 1531.54 1259.58 1535.45 Q1262.6 1539.33 1262.6 1546.53 L1262.6 1568.04 L1256.72 1568.04 L1256.72 1546.72 Q1256.72 1541.59 1254.9 1539.11 Q1253.09 1536.63 1249.36 1536.63 Q1244.81 1536.63 1242.17 1539.65 Q1239.53 1542.68 1239.53 1547.9 L1239.53 1568.04 L1233.64 1568.04 L1233.64 1546.72 Q1233.64 1541.56 1231.83 1539.11 Q1230.01 1536.63 1226.22 1536.63 Q1221.74 1536.63 1219.1 1539.68 Q1216.45 1542.71 1216.45 1547.9 L1216.45 1568.04 L1210.56 1568.04 L1210.56 1532.4 L1216.45 1532.4 L1216.45 1537.93 Q1218.46 1534.66 1221.26 1533.1 Q1224.06 1531.54 1227.91 1531.54 Q1231.79 1531.54 1234.5 1533.51 Q1237.24 1535.48 1238.54 1539.24 Z" fill="#000000" fill-rule="nonzero" fill-opacity="1" /><path clip-path="url(#clip550)" d="M1304.78 1548.76 L1304.78 1551.62 L1277.85 1551.62 Q1278.23 1557.67 1281.48 1560.85 Q1284.76 1564 1290.58 1564 Q1293.96 1564 1297.11 1563.17 Q1300.29 1562.35 1303.41 1560.69 L1303.41 1566.23 Q1300.26 1567.57 1296.95 1568.27 Q1293.64 1568.97 1290.23 1568.97 Q1281.7 1568.97 1276.7 1564 Q1271.74 1559.04 1271.74 1550.57 Q1271.74 1541.82 1276.45 1536.69 Q1281.19 1531.54 1289.21 1531.54 Q1296.41 1531.54 1300.58 1536.18 Q1304.78 1540.8 1304.78 1548.76 M1298.92 1547.04 Q1298.86 1542.23 1296.22 1539.37 Q1293.61 1536.5 1289.28 1536.5 Q1284.38 1536.5 1281.42 1539.27 Q1278.49 1542.04 1278.04 1547.07 L1298.92 1547.04 Z" fill="#000000" fill-rule="nonzero" fill-opacity="1" /><path clip-path="url(#clip550)" d="M1349.18 1518.58 Q1344.91 1525.9 1342.84 1533.06 Q1340.78 1540.23 1340.78 1547.58 Q1340.78 1554.93 1342.84 1562.16 Q1344.95 1569.35 1349.18 1576.64 L1344.09 1576.64 Q1339.31 1569.16 1336.92 1561.93 Q1334.57 1554.71 1334.57 1547.58 Q1334.57 1540.48 1336.92 1533.29 Q1339.28 1526.09 1344.09 1518.58 L1349.18 1518.58 Z" fill="#000000" fill-rule="nonzero" fill-opacity="1" /><path clip-path="url(#clip550)" d="M1383.27 1533.45 L1383.27 1538.98 Q1380.78 1537.71 1378.11 1537.07 Q1375.44 1536.44 1372.57 1536.44 Q1368.21 1536.44 1366.02 1537.77 Q1363.85 1539.11 1363.85 1541.79 Q1363.85 1543.82 1365.41 1545 Q1366.97 1546.15 1371.68 1547.2 L1373.69 1547.64 Q1379.92 1548.98 1382.53 1551.43 Q1385.18 1553.85 1385.18 1558.21 Q1385.18 1563.17 1381.23 1566.07 Q1377.31 1568.97 1370.44 1568.97 Q1367.58 1568.97 1364.46 1568.39 Q1361.37 1567.85 1357.93 1566.74 L1357.93 1560.69 Q1361.18 1562.38 1364.33 1563.24 Q1367.48 1564.07 1370.57 1564.07 Q1374.7 1564.07 1376.93 1562.66 Q1379.16 1561.23 1379.16 1558.65 Q1379.16 1556.27 1377.54 1554.99 Q1375.95 1553.72 1370.5 1552.54 L1368.47 1552.07 Q1363.02 1550.92 1360.6 1548.56 Q1358.19 1546.18 1358.19 1542.04 Q1358.19 1537.01 1361.75 1534.27 Q1365.32 1531.54 1371.87 1531.54 Q1375.12 1531.54 1377.98 1532.01 Q1380.85 1532.49 1383.27 1533.45 Z" fill="#000000" fill-rule="nonzero" fill-opacity="1" /><path clip-path="url(#clip550)" d="M1393.58 1518.58 L1398.67 1518.58 Q1403.45 1526.09 1405.8 1533.29 Q1408.19 1540.48 1408.19 1547.58 Q1408.19 1554.71 1405.8 1561.93 Q1403.45 1569.16 1398.67 1576.64 L1393.58 1576.64 Q1397.81 1569.35 1399.88 1562.16 Q1401.98 1554.93 1401.98 1547.58 Q1401.98 1540.23 1399.88 1533.06 Q1397.81 1525.9 1393.58 1518.58 Z" fill="#000000" fill-rule="nonzero" fill-opacity="1" /><polyline clip-path="url(#clip552)" style="stroke:#000000; stroke-linecap:round; stroke-linejoin:round; stroke-width:2; stroke-opacity:0.1; fill:none" points="203.964,1386.4 2352.76,1386.4 "/>
<polyline clip-path="url(#clip552)" style="stroke:#000000; stroke-linecap:round; stroke-linejoin:round; stroke-width:2; stroke-opacity:0.1; fill:none" points="203.964,1023.28 2352.76,1023.28 "/>
<polyline clip-path="url(#clip552)" style="stroke:#000000; stroke-linecap:round; stroke-linejoin:round; stroke-width:2; stroke-opacity:0.1; fill:none" points="203.964,660.155 2352.76,660.155 "/>
<polyline clip-path="url(#clip552)" style="stroke:#000000; stroke-linecap:round; stroke-linejoin:round; stroke-width:2; stroke-opacity:0.1; fill:none" points="203.964,297.033 2352.76,297.033 "/>
<polyline clip-path="url(#clip550)" style="stroke:#000000; stroke-linecap:round; stroke-linejoin:round; stroke-width:4; stroke-opacity:1; fill:none" points="203.964,1423.18 203.964,123.472 "/>
<polyline clip-path="url(#clip550)" style="stroke:#000000; stroke-linecap:round; stroke-linejoin:round; stroke-width:4; stroke-opacity:1; fill:none" points="203.964,1386.4 222.861,1386.4 "/>
<polyline clip-path="url(#clip550)" style="stroke:#000000; stroke-linecap:round; stroke-linejoin:round; stroke-width:4; stroke-opacity:1; fill:none" points="203.964,1023.28 222.861,1023.28 "/>
<polyline clip-path="url(#clip550)" style="stroke:#000000; stroke-linecap:round; stroke-linejoin:round; stroke-width:4; stroke-opacity:1; fill:none" points="203.964,660.155 222.861,660.155 "/>
<polyline clip-path="url(#clip550)" style="stroke:#000000; stroke-linecap:round; stroke-linejoin:round; stroke-width:4; stroke-opacity:1; fill:none" points="203.964,297.033 222.861,297.033 "/>
<path clip-path="url(#clip550)" d="M156.019 1372.2 Q152.408 1372.2 150.579 1375.76 Q148.774 1379.3 148.774 1386.43 Q148.774 1393.54 150.579 1397.1 Q152.408 1400.65 156.019 1400.65 Q159.653 1400.65 161.459 1397.1 Q163.288 1393.54 163.288 1386.43 Q163.288 1379.3 161.459 1375.76 Q159.653 1372.2 156.019 1372.2 M156.019 1368.49 Q161.829 1368.49 164.885 1373.1 Q167.964 1377.68 167.964 1386.43 Q167.964 1395.16 164.885 1399.77 Q161.829 1404.35 156.019 1404.35 Q150.209 1404.35 147.13 1399.77 Q144.075 1395.16 144.075 1386.43 Q144.075 1377.68 147.13 1373.1 Q150.209 1368.49 156.019 1368.49 Z" fill="#000000" fill-rule="nonzero" fill-opacity="1" /><path clip-path="url(#clip550)" d="M116.668 1036.62 L124.306 1036.62 L124.306 1010.26 L115.996 1011.92 L115.996 1007.66 L124.26 1006 L128.936 1006 L128.936 1036.62 L136.575 1036.62 L136.575 1040.56 L116.668 1040.56 L116.668 1036.62 Z" fill="#000000" fill-rule="nonzero" fill-opacity="1" /><path clip-path="url(#clip550)" d="M156.019 1009.08 Q152.408 1009.08 150.579 1012.64 Q148.774 1016.18 148.774 1023.31 Q148.774 1030.42 150.579 1033.98 Q152.408 1037.52 156.019 1037.52 Q159.653 1037.52 161.459 1033.98 Q163.288 1030.42 163.288 1023.31 Q163.288 1016.18 161.459 1012.64 Q159.653 1009.08 156.019 1009.08 M156.019 1005.37 Q161.829 1005.37 164.885 1009.98 Q167.964 1014.56 167.964 1023.31 Q167.964 1032.04 164.885 1036.64 Q161.829 1041.23 156.019 1041.23 Q150.209 1041.23 147.13 1036.64 Q144.075 1032.04 144.075 1023.31 Q144.075 1014.56 147.13 1009.98 Q150.209 1005.37 156.019 1005.37 Z" fill="#000000" fill-rule="nonzero" fill-opacity="1" /><path clip-path="url(#clip550)" d="M119.885 673.499 L136.204 673.499 L136.204 677.435 L114.26 677.435 L114.26 673.499 Q116.922 670.745 121.505 666.115 Q126.112 661.462 127.292 660.12 Q129.538 657.597 130.417 655.861 Q131.32 654.101 131.32 652.412 Q131.32 649.657 129.376 647.921 Q127.455 646.185 124.353 646.185 Q122.154 646.185 119.7 646.949 Q117.269 647.713 114.492 649.263 L114.492 644.541 Q117.316 643.407 119.769 642.828 Q122.223 642.25 124.26 642.25 Q129.63 642.25 132.825 644.935 Q136.019 647.62 136.019 652.111 Q136.019 654.24 135.209 656.162 Q134.422 658.06 132.316 660.652 Q131.737 661.324 128.635 664.541 Q125.533 667.736 119.885 673.499 Z" fill="#000000" fill-rule="nonzero" fill-opacity="1" /><path clip-path="url(#clip550)" d="M156.019 645.953 Q152.408 645.953 150.579 649.518 Q148.774 653.06 148.774 660.189 Q148.774 667.296 150.579 670.861 Q152.408 674.402 156.019 674.402 Q159.653 674.402 161.459 670.861 Q163.288 667.296 163.288 660.189 Q163.288 653.06 161.459 649.518 Q159.653 645.953 156.019 645.953 M156.019 642.25 Q161.829 642.25 164.885 646.856 Q167.964 651.439 167.964 660.189 Q167.964 668.916 164.885 673.523 Q161.829 678.106 156.019 678.106 Q150.209 678.106 147.13 673.523 Q144.075 668.916 144.075 660.189 Q144.075 651.439 147.13 646.856 Q150.209 642.25 156.019 642.25 Z" fill="#000000" fill-rule="nonzero" fill-opacity="1" /><path clip-path="url(#clip550)" d="M130.024 295.679 Q133.38 296.396 135.255 298.665 Q137.154 300.933 137.154 304.267 Q137.154 309.382 133.635 312.183 Q130.117 314.984 123.635 314.984 Q121.459 314.984 119.144 314.544 Q116.853 314.128 114.399 313.271 L114.399 308.757 Q116.343 309.892 118.658 310.47 Q120.973 311.049 123.496 311.049 Q127.894 311.049 130.186 309.313 Q132.501 307.577 132.501 304.267 Q132.501 301.211 130.348 299.498 Q128.218 297.762 124.399 297.762 L120.371 297.762 L120.371 293.919 L124.584 293.919 Q128.033 293.919 129.862 292.554 Q131.691 291.165 131.691 288.572 Q131.691 285.91 129.792 284.498 Q127.917 283.063 124.399 283.063 Q122.478 283.063 120.279 283.48 Q118.08 283.896 115.441 284.776 L115.441 280.609 Q118.103 279.869 120.418 279.498 Q122.755 279.128 124.816 279.128 Q130.14 279.128 133.242 281.558 Q136.343 283.966 136.343 288.086 Q136.343 290.956 134.7 292.947 Q133.056 294.915 130.024 295.679 Z" fill="#000000" fill-rule="nonzero" fill-opacity="1" /><path clip-path="url(#clip550)" d="M156.019 282.832 Q152.408 282.832 150.579 286.396 Q148.774 289.938 148.774 297.068 Q148.774 304.174 150.579 307.739 Q152.408 311.28 156.019 311.28 Q159.653 311.28 161.459 307.739 Q163.288 304.174 163.288 297.068 Q163.288 289.938 161.459 286.396 Q159.653 282.832 156.019 282.832 M156.019 279.128 Q161.829 279.128 164.885 283.734 Q167.964 288.318 167.964 297.068 Q167.964 305.794 164.885 310.401 Q161.829 314.984 156.019 314.984 Q150.209 314.984 147.13 310.401 Q144.075 305.794 144.075 297.068 Q144.075 288.318 147.13 283.734 Q150.209 279.128 156.019 279.128 Z" fill="#000000" fill-rule="nonzero" fill-opacity="1" /><path clip-path="url(#clip550)" d="M16.4842 1000.47 L16.4842 970.424 L21.895 970.424 L21.895 994.041 L35.9632 994.041 L35.9632 971.411 L41.3741 971.411 L41.3741 994.041 L58.5933 994.041 L58.5933 969.851 L64.0042 969.851 L64.0042 1000.47 L16.4842 1000.47 Z" fill="#000000" fill-rule="nonzero" fill-opacity="1" /><path clip-path="url(#clip550)" d="M28.3562 929.906 L45.7028 942.797 L64.0042 929.238 L64.0042 936.145 L49.9996 946.521 L64.0042 956.897 L64.0042 963.804 L45.3526 949.958 L28.3562 962.626 L28.3562 955.719 L41.0558 946.266 L28.3562 936.813 L28.3562 929.906 Z" fill="#000000" fill-rule="nonzero" fill-opacity="1" /><path clip-path="url(#clip550)" d="M18.2347 915.17 L28.3562 915.17 L28.3562 903.107 L32.9077 903.107 L32.9077 915.17 L52.2594 915.17 Q56.6199 915.17 57.8613 913.992 Q59.1026 912.783 59.1026 909.122 L59.1026 903.107 L64.0042 903.107 L64.0042 909.122 Q64.0042 915.902 61.4897 918.48 Q58.9434 921.058 52.2594 921.058 L32.9077 921.058 L32.9077 925.355 L28.3562 925.355 L28.3562 921.058 L18.2347 921.058 L18.2347 915.17 Z" fill="#000000" fill-rule="nonzero" fill-opacity="1" /><path clip-path="url(#clip550)" d="M33.8307 874.748 Q33.2578 875.734 33.0032 876.912 Q32.7167 878.058 32.7167 879.458 Q32.7167 884.423 35.9632 887.097 Q39.1779 889.739 45.2253 889.739 L64.0042 889.739 L64.0042 895.627 L28.3562 895.627 L28.3562 889.739 L33.8944 889.739 Q30.6479 887.893 29.0883 884.933 Q27.4968 881.973 27.4968 877.739 Q27.4968 877.135 27.5923 876.403 Q27.656 875.671 27.8151 874.779 L33.8307 874.748 Z" fill="#000000" fill-rule="nonzero" fill-opacity="1" /><path clip-path="url(#clip550)" d="M46.0847 852.404 Q46.0847 859.502 47.7079 862.239 Q49.3312 864.976 53.2461 864.976 Q56.3653 864.976 58.2114 862.939 Q60.0256 860.87 60.0256 857.337 Q60.0256 852.468 56.5881 849.539 Q53.1188 846.579 47.3897 846.579 L46.0847 846.579 L46.0847 852.404 M43.6657 840.723 L64.0042 840.723 L64.0042 846.579 L58.5933 846.579 Q61.8398 848.585 63.3994 851.576 Q64.9272 854.568 64.9272 858.897 Q64.9272 864.372 61.8716 867.618 Q58.7843 870.833 53.6281 870.833 Q47.6125 870.833 44.5569 866.822 Q41.5014 862.78 41.5014 854.791 L41.5014 846.579 L40.9285 846.579 Q36.8862 846.579 34.6901 849.253 Q32.4621 851.895 32.4621 856.701 Q32.4621 859.756 33.1941 862.653 Q33.9262 865.549 35.3903 868.223 L29.9795 868.223 Q28.7381 865.008 28.1334 861.984 Q27.4968 858.961 27.4968 856.096 Q27.4968 848.362 31.5072 844.542 Q35.5176 840.723 43.6657 840.723 Z" fill="#000000" fill-rule="nonzero" fill-opacity="1" /><path clip-path="url(#clip550)" d="M29.7248 803.006 L35.1993 803.006 Q33.8307 805.489 33.1623 808.003 Q32.4621 810.486 32.4621 813.032 Q32.4621 818.729 36.0905 821.88 Q39.6872 825.031 46.212 825.031 Q52.7369 825.031 56.3653 821.88 Q59.9619 818.729 59.9619 813.032 Q59.9619 810.486 59.2935 808.003 Q58.5933 805.489 57.2247 803.006 L62.6355 803.006 Q63.7814 805.457 64.3543 808.099 Q64.9272 810.709 64.9272 813.669 Q64.9272 821.721 59.8664 826.464 Q54.8057 831.206 46.212 831.206 Q37.491 831.206 32.4939 826.432 Q27.4968 821.626 27.4968 813.287 Q27.4968 810.581 28.0697 808.003 Q28.6108 805.425 29.7248 803.006 Z" fill="#000000" fill-rule="nonzero" fill-opacity="1" /><path clip-path="url(#clip550)" d="M18.2347 787.028 L28.3562 787.028 L28.3562 774.965 L32.9077 774.965 L32.9077 787.028 L52.2594 787.028 Q56.6199 787.028 57.8613 785.851 Q59.1026 784.641 59.1026 780.981 L59.1026 774.965 L64.0042 774.965 L64.0042 780.981 Q64.0042 787.76 61.4897 790.338 Q58.9434 792.916 52.2594 792.916 L32.9077 792.916 L32.9077 797.213 L28.3562 797.213 L28.3562 792.916 L18.2347 792.916 L18.2347 787.028 Z" fill="#000000" fill-rule="nonzero" fill-opacity="1" /><path clip-path="url(#clip550)" d="M28.3562 767.263 L28.3562 761.406 L64.0042 761.406 L64.0042 767.263 L28.3562 767.263 M14.479 767.263 L14.479 761.406 L21.895 761.406 L21.895 767.263 L14.479 767.263 Z" fill="#000000" fill-rule="nonzero" fill-opacity="1" /><path clip-path="url(#clip550)" d="M32.4621 735.339 Q32.4621 740.049 36.1542 742.787 Q39.8145 745.524 46.212 745.524 Q52.6095 745.524 56.3017 742.818 Q59.9619 740.081 59.9619 735.339 Q59.9619 730.66 56.2698 727.923 Q52.5777 725.185 46.212 725.185 Q39.8781 725.185 36.186 727.923 Q32.4621 730.66 32.4621 735.339 M27.4968 735.339 Q27.4968 727.7 32.4621 723.339 Q37.4273 718.979 46.212 718.979 Q54.9649 718.979 59.9619 723.339 Q64.9272 727.7 64.9272 735.339 Q64.9272 743.009 59.9619 747.37 Q54.9649 751.698 46.212 751.698 Q37.4273 751.698 32.4621 747.37 Q27.4968 743.009 27.4968 735.339 Z" fill="#000000" fill-rule="nonzero" fill-opacity="1" /><path clip-path="url(#clip550)" d="M42.4881 679.639 L64.0042 679.639 L64.0042 685.495 L42.679 685.495 Q37.6183 685.495 35.1038 687.469 Q32.5894 689.442 32.5894 693.389 Q32.5894 698.131 35.6131 700.868 Q38.6368 703.606 43.8567 703.606 L64.0042 703.606 L64.0042 709.494 L28.3562 709.494 L28.3562 703.606 L33.8944 703.606 Q30.6797 701.505 29.0883 698.672 Q27.4968 695.808 27.4968 692.084 Q27.4968 685.941 31.3163 682.79 Q35.1038 679.639 42.4881 679.639 Z" fill="#000000" fill-rule="nonzero" fill-opacity="1" /><path clip-path="url(#clip550)" d="M14.5426 633.169 Q21.8632 637.434 29.0246 639.503 Q36.186 641.572 43.5384 641.572 Q50.8908 641.572 58.1159 639.503 Q65.3091 637.402 72.5979 633.169 L72.5979 638.262 Q65.1182 643.036 57.8931 645.423 Q50.668 647.778 43.5384 647.778 Q36.4406 647.778 29.2474 645.423 Q22.0542 643.068 14.5426 638.262 L14.5426 633.169 Z" fill="#000000" fill-rule="nonzero" fill-opacity="1" /><path clip-path="url(#clip550)" d="M43.0928 580.556 Q43.0928 583.326 45.4481 584.917 Q47.8034 586.477 52.0048 586.477 Q56.1425 586.477 58.5296 584.917 Q60.885 583.326 60.885 580.556 Q60.885 577.851 58.5296 576.291 Q56.1425 574.7 52.0048 574.7 Q47.8353 574.7 45.48 576.291 Q43.0928 577.851 43.0928 580.556 M39.0506 580.556 Q39.0506 575.528 42.5517 572.568 Q46.0529 569.607 52.0048 569.607 Q57.9567 569.607 61.4579 572.599 Q64.9272 575.559 64.9272 580.556 Q64.9272 585.649 61.4579 588.609 Q57.9567 591.569 52.0048 591.569 Q46.021 591.569 42.5517 588.609 Q39.0506 585.617 39.0506 580.556 M19.667 613.404 Q19.667 616.141 22.0542 617.732 Q24.4095 619.292 28.5472 619.292 Q32.7485 619.292 35.1038 617.732 Q37.4592 616.173 37.4592 613.404 Q37.4592 610.634 35.1038 609.075 Q32.7485 607.483 28.5472 607.483 Q24.4413 607.483 22.0542 609.075 Q19.667 610.666 19.667 613.404 M15.6248 584.662 L15.6248 579.57 L64.9272 609.298 L64.9272 614.39 L15.6248 584.662 M15.6248 613.404 Q15.6248 608.375 19.1259 605.383 Q22.5952 602.391 28.5472 602.391 Q34.5628 602.391 38.0321 605.383 Q41.5014 608.343 41.5014 613.404 Q41.5014 618.464 38.0321 621.424 Q34.5309 624.353 28.5472 624.353 Q22.6271 624.353 19.1259 621.392 Q15.6248 618.432 15.6248 613.404 Z" fill="#000000" fill-rule="nonzero" fill-opacity="1" /><path clip-path="url(#clip550)" d="M14.5426 560.791 L14.5426 555.698 Q22.0542 550.924 29.2474 548.569 Q36.4406 546.182 43.5384 546.182 Q50.668 546.182 57.8931 548.569 Q65.1182 550.924 72.5979 555.698 L72.5979 560.791 Q65.3091 556.558 58.1159 554.489 Q50.8908 552.388 43.5384 552.388 Q36.186 552.388 29.0246 554.489 Q21.8632 556.558 14.5426 560.791 Z" fill="#000000" fill-rule="nonzero" fill-opacity="1" /><path clip-path="url(#clip550)" d="M1074.19 12.096 L1112.43 12.096 L1112.43 18.9825 L1082.38 18.9825 L1082.38 36.8875 L1111.18 36.8875 L1111.18 43.7741 L1082.38 43.7741 L1082.38 65.6895 L1113.16 65.6895 L1113.16 72.576 L1074.19 72.576 L1074.19 12.096 Z" fill="#000000" fill-rule="nonzero" fill-opacity="1" /><path clip-path="url(#clip550)" d="M1164 27.2059 L1147.6 49.2833 L1164.85 72.576 L1156.06 72.576 L1142.86 54.752 L1129.65 72.576 L1120.86 72.576 L1138.48 48.8377 L1122.36 27.2059 L1131.15 27.2059 L1143.18 43.369 L1155.21 27.2059 L1164 27.2059 Z" fill="#000000" fill-rule="nonzero" fill-opacity="1" /><path clip-path="url(#clip550)" d="M1182.76 14.324 L1182.76 27.2059 L1198.11 27.2059 L1198.11 32.9987 L1182.76 32.9987 L1182.76 57.6282 Q1182.76 63.1779 1184.26 64.7578 Q1185.8 66.3376 1190.46 66.3376 L1198.11 66.3376 L1198.11 72.576 L1190.46 72.576 Q1181.83 72.576 1178.55 69.3758 Q1175.26 66.1351 1175.26 57.6282 L1175.26 32.9987 L1169.8 32.9987 L1169.8 27.2059 L1175.26 27.2059 L1175.26 14.324 L1182.76 14.324 Z" fill="#000000" fill-rule="nonzero" fill-opacity="1" /><path clip-path="url(#clip550)" d="M1234.2 34.1734 Q1232.95 33.4443 1231.45 33.1202 Q1229.99 32.7556 1228.21 32.7556 Q1221.89 32.7556 1218.49 36.8875 Q1215.13 40.9789 1215.13 48.6757 L1215.13 72.576 L1207.63 72.576 L1207.63 27.2059 L1215.13 27.2059 L1215.13 34.2544 Q1217.47 30.1225 1221.24 28.1376 Q1225.01 26.1121 1230.4 26.1121 Q1231.17 26.1121 1232.1 26.2337 Q1233.03 26.3147 1234.16 26.5172 L1234.2 34.1734 Z" fill="#000000" fill-rule="nonzero" fill-opacity="1" /><path clip-path="url(#clip550)" d="M1262.64 49.7694 Q1253.61 49.7694 1250.12 51.8354 Q1246.64 53.9013 1246.64 58.8839 Q1246.64 62.8538 1249.23 65.2034 Q1251.87 67.5124 1256.36 67.5124 Q1262.56 67.5124 1266.29 63.1374 Q1270.06 58.7219 1270.06 51.4303 L1270.06 49.7694 L1262.64 49.7694 M1277.51 46.6907 L1277.51 72.576 L1270.06 72.576 L1270.06 65.6895 Q1267.5 69.8214 1263.7 71.8063 Q1259.89 73.7508 1254.38 73.7508 Q1247.41 73.7508 1243.28 69.8619 Q1239.19 65.9325 1239.19 59.3701 Q1239.19 51.7138 1244.29 47.825 Q1249.44 43.9361 1259.6 43.9361 L1270.06 43.9361 L1270.06 43.2069 Q1270.06 38.0623 1266.65 35.2672 Q1263.29 32.4315 1257.17 32.4315 Q1253.28 32.4315 1249.6 33.3632 Q1245.91 34.295 1242.51 36.1584 L1242.51 29.2718 Q1246.6 27.692 1250.45 26.9223 Q1254.3 26.1121 1257.94 26.1121 Q1267.79 26.1121 1272.65 31.2163 Q1277.51 36.3204 1277.51 46.6907 Z" fill="#000000" fill-rule="nonzero" fill-opacity="1" /><path clip-path="url(#clip550)" d="M1325.51 28.9478 L1325.51 35.9153 Q1322.35 34.1734 1319.15 33.3227 Q1315.99 32.4315 1312.75 32.4315 Q1305.5 32.4315 1301.49 37.0496 Q1297.48 41.6271 1297.48 49.9314 Q1297.48 58.2358 1301.49 62.8538 Q1305.5 67.4314 1312.75 67.4314 Q1315.99 67.4314 1319.15 66.5807 Q1322.35 65.6895 1325.51 63.9476 L1325.51 70.8341 Q1322.39 72.2924 1319.03 73.0216 Q1315.71 73.7508 1311.94 73.7508 Q1301.69 73.7508 1295.66 67.3098 Q1289.62 60.8689 1289.62 49.9314 Q1289.62 38.832 1295.7 32.472 Q1301.81 26.1121 1312.43 26.1121 Q1315.87 26.1121 1319.15 26.8413 Q1322.43 27.5299 1325.51 28.9478 Z" fill="#000000" fill-rule="nonzero" fill-opacity="1" /><path clip-path="url(#clip550)" d="M1345.85 14.324 L1345.85 27.2059 L1361.2 27.2059 L1361.2 32.9987 L1345.85 32.9987 L1345.85 57.6282 Q1345.85 63.1779 1347.35 64.7578 Q1348.89 66.3376 1353.54 66.3376 L1361.2 66.3376 L1361.2 72.576 L1353.54 72.576 Q1344.92 72.576 1341.63 69.3758 Q1338.35 66.1351 1338.35 57.6282 L1338.35 32.9987 L1332.88 32.9987 L1332.88 27.2059 L1338.35 27.2059 L1338.35 14.324 L1345.85 14.324 Z" fill="#000000" fill-rule="nonzero" fill-opacity="1" /><path clip-path="url(#clip550)" d="M1371 27.2059 L1378.46 27.2059 L1378.46 72.576 L1371 72.576 L1371 27.2059 M1371 9.54393 L1378.46 9.54393 L1378.46 18.9825 L1371 18.9825 L1371 9.54393 Z" fill="#000000" fill-rule="nonzero" fill-opacity="1" /><path clip-path="url(#clip550)" d="M1411.63 32.4315 Q1405.64 32.4315 1402.16 37.1306 Q1398.67 41.7891 1398.67 49.9314 Q1398.67 58.0738 1402.11 62.7728 Q1405.6 67.4314 1411.63 67.4314 Q1417.59 67.4314 1421.07 62.7323 Q1424.56 58.0333 1424.56 49.9314 Q1424.56 41.8701 1421.07 37.1711 Q1417.59 32.4315 1411.63 32.4315 M1411.63 26.1121 Q1421.36 26.1121 1426.91 32.4315 Q1432.46 38.7509 1432.46 49.9314 Q1432.46 61.0714 1426.91 67.4314 Q1421.36 73.7508 1411.63 73.7508 Q1401.87 73.7508 1396.32 67.4314 Q1390.81 61.0714 1390.81 49.9314 Q1390.81 38.7509 1396.32 32.4315 Q1401.87 26.1121 1411.63 26.1121 Z" fill="#000000" fill-rule="nonzero" fill-opacity="1" /><path clip-path="url(#clip550)" d="M1482.53 45.1919 L1482.53 72.576 L1475.07 72.576 L1475.07 45.4349 Q1475.07 38.994 1472.56 35.7938 Q1470.05 32.5936 1465.03 32.5936 Q1458.99 32.5936 1455.51 36.4419 Q1452.02 40.2903 1452.02 46.9338 L1452.02 72.576 L1444.53 72.576 L1444.53 27.2059 L1452.02 27.2059 L1452.02 34.2544 Q1454.7 30.163 1458.3 28.1376 Q1461.95 26.1121 1466.69 26.1121 Q1474.5 26.1121 1478.51 30.9732 Q1482.53 35.7938 1482.53 45.1919 Z" fill="#000000" fill-rule="nonzero" fill-opacity="1" /><polyline clip-path="url(#clip552)" style="stroke:#009af9; stroke-linecap:round; stroke-linejoin:round; stroke-width:4; stroke-opacity:1; fill:none" points="264.778,1386.4 266.808,1323.08 268.837,1297.37 270.866,1277.85 272.895,1261.53 274.924,1247.26 276.954,1234.45 278.983,1222.73 281.012,1211.89 283.041,1201.75 285.07,1192.22 287.1,1183.19 289.129,1174.6 291.158,1166.4 293.187,1158.54 295.216,1150.99 297.246,1143.71 299.275,1136.68 301.304,1129.88 303.333,1123.3 305.362,1116.9 307.391,1110.69 309.421,1104.64 311.45,1098.74 313.479,1092.99 315.508,1087.38 317.537,1081.9 319.567,1076.53 321.596,1071.28 323.625,1066.14 325.654,1061.1 327.683,1056.16 329.713,1051.31 331.742,1046.55 333.771,1041.87 335.8,1037.27 337.829,1032.75 339.859,1028.31 341.888,1023.93 343.917,1019.63 345.946,1015.38 347.975,1011.21 350.005,1007.09 352.034,1003.03 354.063,999.028 356.092,995.081 358.121,991.186 360.15,987.342 362.18,983.548 364.209,979.802 366.238,976.102 368.267,972.448 370.296,968.837 372.326,965.268 374.355,961.741 376.384,958.254 378.413,954.806 380.442,951.396 382.472,948.023 384.501,944.686 386.53,941.384 388.559,938.116 390.588,934.882 392.618,931.68 394.647,928.51 396.676,925.372 398.705,922.263 400.734,919.184 402.763,916.134 404.793,913.113 406.822,910.119 408.851,907.152 410.88,904.212 412.909,901.298 414.939,898.409 416.968,895.545 418.997,892.706 421.026,889.891 423.055,887.099 425.085,884.33 427.114,881.584 429.143,878.86 431.172,876.157 433.201,873.476 435.231,870.816 437.26,868.177 439.289,865.558 441.318,862.959 443.347,860.379 445.377,857.818 447.406,855.277 449.435,852.753 451.464,850.249 453.493,847.762 455.522,845.292 457.552,842.84 459.581,840.406 461.61,837.988 463.639,835.586 465.668,833.201 467.698,830.832 469.727,828.479 471.756,826.141 473.785,823.819 475.814,821.512 477.844,819.219 479.873,816.942 481.902,814.679 483.931,812.43 485.96,810.195 487.99,807.974 490.019,805.767 492.048,803.574 494.077,801.393 496.106,799.226 498.136,797.072 500.165,794.931 502.194,792.802 504.223,790.686 506.252,788.582 508.281,786.49 510.311,784.41 512.34,782.342 514.369,780.286 516.398,778.241 518.427,776.208 520.457,774.186 522.486,772.175 524.515,770.175 526.544,768.186 528.573,766.208 530.603,764.241 532.632,762.284 534.661,760.337 536.69,758.401 538.719,756.474 540.749,754.558 542.778,752.652 544.807,750.755 546.836,748.869 548.865,746.992 550.894,745.124 552.924,743.266 554.953,741.417 556.982,739.577 559.011,737.746 561.04,735.925 563.07,734.112 565.099,732.308 567.128,730.513 569.157,728.726 571.186,726.948 573.216,725.179 575.245,723.418 577.274,721.665 579.303,719.92 581.332,718.184 583.362,716.456 585.391,714.735 587.42,713.023 589.449,711.318 591.478,709.621 593.508,707.932 595.537,706.25 597.566,704.576 599.595,702.91 601.624,701.25 603.653,699.598 605.683,697.954 607.712,696.316 609.741,694.686 611.77,693.063 613.799,691.447 615.829,689.838 617.858,688.235 619.887,686.64 621.916,685.051 623.945,683.469 625.975,681.893 628.004,680.325 630.033,678.762 632.062,677.207 634.091,675.657 636.121,674.114 638.15,672.578 640.179,671.047 642.208,669.523 644.237,668.005 646.267,666.493 648.296,664.987 650.325,663.488 652.354,661.994 654.383,660.506 656.412,659.024 658.442,657.548 660.471,656.077 662.5,654.613 664.529,653.154 666.558,651.7 668.588,650.253 670.617,648.81 672.646,647.374 674.675,645.943 676.704,644.517 678.734,643.097 680.763,641.682 682.792,640.272 684.821,638.868 686.85,637.469 688.88,636.075 690.909,634.686 692.938,633.302 694.967,631.924 696.996,630.55 699.025,629.182 701.055,627.818 703.084,626.46 705.113,625.106 707.142,623.758 709.171,622.414 711.201,621.075 713.23,619.74 715.259,618.411 717.288,617.086 719.317,615.766 721.347,614.45 723.376,613.139 725.405,611.833 727.434,610.531 729.463,609.234 731.493,607.941 733.522,606.653 735.551,605.369 737.58,604.089 739.609,602.814 741.639,601.543 743.668,600.277 745.697,599.015 747.726,597.757 749.755,596.503 751.784,595.254 753.814,594.009 755.843,592.767 757.872,591.531 759.901,590.298 761.93,589.069 763.96,587.844 765.989,586.623 768.018,585.407 770.047,584.194 772.076,582.985 774.106,581.78 776.135,580.579 778.164,579.382 780.193,578.189 782.222,577 784.252,575.814 786.281,574.632 788.31,573.454 790.339,572.28 792.368,571.109 794.398,569.942 796.427,568.779 798.456,567.62 800.485,566.464 802.514,565.312 804.543,564.163 806.573,563.018 808.602,561.876 810.631,560.738 812.66,559.604 814.689,558.473 816.719,557.345 818.748,556.221 820.777,555.1 822.806,553.983 824.835,552.869 826.865,551.759 828.894,550.652 830.923,549.548 832.952,548.447 834.981,547.35 837.011,546.256 839.04,545.166 841.069,544.078 843.098,542.994 845.127,541.913 847.156,540.836 849.186,539.761 851.215,538.69 853.244,537.622 855.273,536.556 857.302,535.494 859.332,534.436 861.361,533.38 863.39,532.327 865.419,531.277 867.448,530.231 869.478,529.187 871.507,528.146 873.536,527.109 875.565,526.074 877.594,525.042 879.624,524.014 881.653,522.988 883.682,521.965 885.711,520.945 887.74,519.928 889.77,518.913 891.799,517.902 893.828,516.893 895.857,515.887 897.886,514.885 899.915,513.884 901.945,512.887 903.974,511.892 906.003,510.901 908.032,509.911 910.061,508.925 912.091,507.941 914.12,506.96 916.149,505.982 918.178,505.007 920.207,504.034 922.237,503.063 924.266,502.096 926.295,501.131 928.324,500.168 930.353,499.209 932.383,498.251 934.412,497.297 936.441,496.345 938.47,495.395 940.499,494.448 942.529,493.504 944.558,492.562 946.587,491.623 948.616,490.686 950.645,489.751 952.674,488.819 954.704,487.89 956.733,486.963 958.762,486.038 960.791,485.116 962.82,484.197 964.85,483.279 966.879,482.364 968.908,481.452 970.937,480.542 972.966,479.634 974.996,478.728 977.025,477.825 979.054,476.925 981.083,476.026 983.112,475.13 985.142,474.236 987.171,473.345 989.2,472.456 991.229,471.569 993.258,470.684 995.287,469.802 997.317,468.921 999.346,468.043 1001.38,467.168 1003.4,466.294 1005.43,465.423 1007.46,464.554 1009.49,463.687 1011.52,462.822 1013.55,461.96 1015.58,461.099 1017.61,460.241 1019.64,459.385 1021.67,458.531 1023.7,457.679 1025.73,456.829 1027.75,455.982 1029.78,455.136 1031.81,454.293 1033.84,453.452 1035.87,452.612 1037.9,451.775 1039.93,450.94 1041.96,450.107 1043.99,449.276 1046.02,448.447 1048.05,447.62 1050.08,446.795 1052.1,445.972 1054.13,445.151 1056.16,444.332 1058.19,443.515 1060.22,442.7 1062.25,441.887 1064.28,441.076 1066.31,440.267 1068.34,439.46 1070.37,438.655 1072.4,437.851 1074.43,437.05 1076.46,436.25 1078.48,435.453 1080.51,434.657 1082.54,433.864 1084.57,433.072 1086.6,432.282 1088.63,431.494 1090.66,430.707 1092.69,429.923 1094.72,429.141 1096.75,428.36 1098.78,427.581 1100.81,426.804 1102.83,426.029 1104.86,425.255 1106.89,424.484 1108.92,423.714 1110.95,422.946 1112.98,422.18 1115.01,421.416 1117.04,420.653 1119.07,419.892 1121.1,419.133 1123.13,418.376 1125.16,417.62 1127.18,416.867 1129.21,416.114 1131.24,415.364 1133.27,414.615 1135.3,413.869 1137.33,413.123 1139.36,412.38 1141.39,411.638 1143.42,410.898 1145.45,410.16 1147.48,409.423 1149.51,408.688 1151.54,407.955 1153.56,407.223 1155.59,406.493 1157.62,405.765 1159.65,405.038 1161.68,404.313 1163.71,403.589 1165.74,402.868 1167.77,402.147 1169.8,401.429 1171.83,400.712 1173.86,399.997 1175.89,399.283 1177.91,398.571 1179.94,397.86 1181.97,397.151 1184,396.444 1186.03,395.738 1188.06,395.034 1190.09,394.331 1192.12,393.63 1194.15,392.931 1196.18,392.233 1198.21,391.536 1200.24,390.841 1202.27,390.148 1204.29,389.456 1206.32,388.766 1208.35,388.077 1210.38,387.389 1212.41,386.704 1214.44,386.019 1216.47,385.337 1218.5,384.655 1220.53,383.976 1222.56,383.297 1224.59,382.62 1226.62,381.945 1228.64,381.271 1230.67,380.599 1232.7,379.928 1234.73,379.258 1236.76,378.59 1238.79,377.923 1240.82,377.258 1242.85,376.595 1244.88,375.932 1246.91,375.271 1248.94,374.612 1250.97,373.954 1252.99,373.297 1255.02,372.642 1257.05,371.988 1259.08,371.336 1261.11,370.685 1263.14,370.035 1265.17,369.387 1267.2,368.74 1269.23,368.095 1271.26,367.45 1273.29,366.808 1275.32,366.166 1277.35,365.526 1279.37,364.888 1281.4,364.25 1283.43,363.614 1285.46,362.98 1287.49,362.346 1289.52,361.715 1291.55,361.084 1293.58,360.455 1295.61,359.827 1297.64,359.2 1299.67,358.575 1301.7,357.951 1303.72,357.328 1305.75,356.707 1307.78,356.087 1309.81,355.468 1311.84,354.85 1313.87,354.234 1315.9,353.619 1317.93,353.005 1319.96,352.393 1321.99,351.782 1324.02,351.172 1326.05,350.564 1328.07,349.956 1330.1,349.35 1332.13,348.745 1334.16,348.142 1336.19,347.54 1338.22,346.939 1340.25,346.339 1342.28,345.74 1344.31,345.143 1346.34,344.547 1348.37,343.952 1350.4,343.358 1352.43,342.766 1354.45,342.174 1356.48,341.584 1358.51,340.996 1360.54,340.408 1362.57,339.821 1364.6,339.236 1366.63,338.652 1368.66,338.069 1370.69,337.488 1372.72,336.907 1374.75,336.328 1376.78,335.75 1378.8,335.173 1380.83,334.597 1382.86,334.023 1384.89,333.449 1386.92,332.877 1388.95,332.306 1390.98,331.736 1393.01,331.167 1395.04,330.599 1397.07,330.033 1399.1,329.467 1401.13,328.903 1403.16,328.34 1405.18,327.778 1407.21,327.217 1409.24,326.657 1411.27,326.099 1413.3,325.541 1415.33,324.985 1417.36,324.43 1419.39,323.875 1421.42,323.322 1423.45,322.77 1425.48,322.22 1427.51,321.67 1429.53,321.121 1431.56,320.574 1433.59,320.027 1435.62,319.482 1437.65,318.937 1439.68,318.394 1441.71,317.852 1443.74,317.311 1445.77,316.771 1447.8,316.232 1449.83,315.694 1451.86,315.157 1453.88,314.622 1455.91,314.087 1457.94,313.553 1459.97,313.021 1462,312.489 1464.03,311.959 1466.06,311.429 1468.09,310.901 1470.12,310.373 1472.15,309.847 1474.18,309.322 1476.21,308.798 1478.24,308.274 1480.26,307.752 1482.29,307.231 1484.32,306.711 1486.35,306.191 1488.38,305.673 1490.41,305.156 1492.44,304.64 1494.47,304.125 1496.5,303.611 1498.53,303.098 1500.56,302.585 1502.59,302.074 1504.61,301.564 1506.64,301.055 1508.67,300.547 1510.7,300.04 1512.73,299.533 1514.76,299.028 1516.79,298.524 1518.82,298.021 1520.85,297.518 1522.88,297.017 1524.91,296.517 1526.94,296.017 1528.96,295.519 1530.99,295.021 1533.02,294.525 1535.05,294.029 1537.08,293.535 1539.11,293.041 1541.14,292.548 1543.17,292.056 1545.2,291.566 1547.23,291.076 1549.26,290.587 1551.29,290.099 1553.32,289.612 1555.34,289.126 1557.37,288.64 1559.4,288.156 1561.43,287.673 1563.46,287.19 1565.49,286.709 1567.52,286.228 1569.55,285.748 1571.58,285.27 1573.61,284.792 1575.64,284.315 1577.67,283.839 1579.69,283.364 1581.72,282.889 1583.75,282.416 1585.78,281.943 1587.81,281.472 1589.84,281.001 1591.87,280.532 1593.9,280.063 1595.93,279.595 1597.96,279.128 1599.99,278.661 1602.02,278.196 1604.05,277.732 1606.07,277.268 1608.1,276.805 1610.13,276.343 1612.16,275.882 1614.19,275.422 1616.22,274.963 1618.25,274.505 1620.28,274.047 1622.31,273.591 1624.34,273.135 1626.37,272.68 1628.4,272.226 1630.42,271.772 1632.45,271.32 1634.48,270.869 1636.51,270.418 1638.54,269.968 1640.57,269.519 1642.6,269.071 1644.63,268.623 1646.66,268.177 1648.69,267.731 1650.72,267.287 1652.75,266.843 1654.77,266.399 1656.8,265.957 1658.83,265.515 1660.86,265.075 1662.89,264.635 1664.92,264.196 1666.95,263.758 1668.98,263.32 1671.01,262.884 1673.04,262.448 1675.07,262.013 1677.1,261.579 1679.13,261.145 1681.15,260.713 1683.18,260.281 1685.21,259.85 1687.24,259.42 1689.27,258.99 1691.3,258.562 1693.33,258.134 1695.36,257.707 1697.39,257.281 1699.42,256.855 1701.45,256.431 1703.48,256.007 1705.5,255.584 1707.53,255.161 1709.56,254.74 1711.59,254.319 1713.62,253.899 1715.65,253.48 1717.68,253.062 1719.71,252.644 1721.74,252.227 1723.77,251.811 1725.8,251.396 1727.83,250.981 1729.85,250.567 1731.88,250.154 1733.91,249.742 1735.94,249.33 1737.97,248.919 1740,248.509 1742.03,248.1 1744.06,247.692 1746.09,247.284 1748.12,246.877 1750.15,246.47 1752.18,246.065 1754.21,245.66 1756.23,245.256 1758.26,244.853 1760.29,244.45 1762.32,244.048 1764.35,243.647 1766.38,243.246 1768.41,242.847 1770.44,242.448 1772.47,242.05 1774.5,241.652 1776.53,241.255 1778.56,240.859 1780.58,240.464 1782.61,240.069 1784.64,239.675 1786.67,239.282 1788.7,238.89 1790.73,238.498 1792.76,238.107 1794.79,237.717 1796.82,237.327 1798.85,236.938 1800.88,236.55 1802.91,236.162 1804.94,235.775 1806.96,235.389 1808.99,235.004 1811.02,234.619 1813.05,234.235 1815.08,233.852 1817.11,233.469 1819.14,233.087 1821.17,232.706 1823.2,232.325 1825.23,231.946 1827.26,231.566 1829.29,231.188 1831.31,230.81 1833.34,230.433 1835.37,230.056 1837.4,229.681 1839.43,229.305 1841.46,228.931 1843.49,228.557 1845.52,228.184 1847.55,227.812 1849.58,227.44 1851.61,227.069 1853.64,226.698 1855.66,226.329 1857.69,225.96 1859.72,225.591 1861.75,225.223 1863.78,224.856 1865.81,224.49 1867.84,224.124 1869.87,223.759 1871.9,223.395 1873.93,223.031 1875.96,222.668 1877.99,222.305 1880.02,221.943 1882.04,221.582 1884.07,221.221 1886.1,220.861 1888.13,220.502 1890.16,220.143 1892.19,219.785 1894.22,219.428 1896.25,219.071 1898.28,218.715 1900.31,218.36 1902.34,218.005 1904.37,217.651 1906.39,217.297 1908.42,216.944 1910.45,216.592 1912.48,216.24 1914.51,215.889 1916.54,215.539 1918.57,215.189 1920.6,214.84 1922.63,214.491 1924.66,214.144 1926.69,213.796 1928.72,213.45 1930.74,213.103 1932.77,212.758 1934.8,212.413 1936.83,212.069 1938.86,211.725 1940.89,211.382 1942.92,211.04 1944.95,210.698 1946.98,210.357 1949.01,210.016 1951.04,209.676 1953.07,209.337 1955.1,208.998 1957.12,208.66 1959.15,208.322 1961.18,207.986 1963.21,207.649 1965.24,207.313 1967.27,206.978 1969.3,206.644 1971.33,206.31 1973.36,205.976 1975.39,205.643 1977.42,205.311 1979.45,204.979 1981.47,204.648 1983.5,204.318 1985.53,203.988 1987.56,203.659 1989.59,203.33 1991.62,203.002 1993.65,202.674 1995.68,202.347 1997.71,202.021 1999.74,201.695 2001.77,201.37 2003.8,201.045 2005.82,200.721 2007.85,200.398 2009.88,200.075 2011.91,199.752 2013.94,199.43 2015.97,199.109 2018,198.788 2020.03,198.468 2022.06,198.149 2024.09,197.83 2026.12,197.511 2028.15,197.193 2030.18,196.876 2032.2,196.559 2034.23,196.243 2036.26,195.927 2038.29,195.612 2040.32,195.298 2042.35,194.984 2044.38,194.67 2046.41,194.357 2048.44,194.045 2050.47,193.733 2052.5,193.422 2054.53,193.111 2056.55,192.801 2058.58,192.491 2060.61,192.182 2062.64,191.874 2064.67,191.566 2066.7,191.258 2068.73,190.951 2070.76,190.645 2072.79,190.339 2074.82,190.034 2076.85,189.729 2078.88,189.425 2080.91,189.121 2082.93,188.818 2084.96,188.515 2086.99,188.213 2089.02,187.912 2091.05,187.611 2093.08,187.31 2095.11,187.01 2097.14,186.711 2099.17,186.412 2101.2,186.113 2103.23,185.815 2105.26,185.518 2107.28,185.221 2109.31,184.925 2111.34,184.629 2113.37,184.333 2115.4,184.039 2117.43,183.744 2119.46,183.451 2121.49,183.157 2123.52,182.865 2125.55,182.572 2127.58,182.281 2129.61,181.989 2131.63,181.699 2133.66,181.408 2135.69,181.119 2137.72,180.829 2139.75,180.541 2141.78,180.253 2143.81,179.965 2145.84,179.678 2147.87,179.391 2149.9,179.105 2151.93,178.819 2153.96,178.534 2155.99,178.249 2158.01,177.965 2160.04,177.681 2162.07,177.398 2164.1,177.115 2166.13,176.833 2168.16,176.551 2170.19,176.27 2172.22,175.989 2174.25,175.709 2176.28,175.429 2178.31,175.15 2180.34,174.871 2182.36,174.593 2184.39,174.315 2186.42,174.037 2188.45,173.761 2190.48,173.484 2192.51,173.208 2194.54,172.933 2196.57,172.658 2198.6,172.383 2200.63,172.109 2202.66,171.836 2204.69,171.563 2206.71,171.29 2208.74,171.018 2210.77,170.746 2212.8,170.475 2214.83,170.204 2216.86,169.934 2218.89,169.664 2220.92,169.395 2222.95,169.126 2224.98,168.858 2227.01,168.59 2229.04,168.322 2231.07,168.055 2233.09,167.789 2235.12,167.523 2237.15,167.257 2239.18,166.992 2241.21,166.727 2243.24,166.463 2245.27,166.199 2247.3,165.936 2249.33,165.673 2251.36,165.411 2253.39,165.149 2255.42,164.887 2257.44,164.626 2259.47,164.365 2261.5,164.105 2263.53,163.846 2265.56,163.586 2267.59,163.327 2269.62,163.069 2271.65,162.811 2273.68,162.554 2275.71,162.297 2277.74,162.04 2279.77,161.784 2281.8,161.528 2283.82,161.273 2285.85,161.018 2287.88,160.764 2289.91,160.51 2291.94,160.256 "/>
</svg>
