<?xml version="1.0" encoding="utf-8"?>
<svg xmlns="http://www.w3.org/2000/svg" xmlns:xlink="http://www.w3.org/1999/xlink" width="600" height="400" viewBox="0 0 2400 1600">
<defs>
  <clipPath id="clip460">
    <rect x="0" y="0" width="2400" height="1600"/>
  </clipPath>
</defs>
<path clip-path="url(#clip460)" d="M0 1600 L2400 1600 L2400 0 L0 0  Z" fill="#ffffff" fill-rule="evenodd" fill-opacity="1"/>
<defs>
  <clipPath id="clip461">
    <rect x="480" y="0" width="1681" height="1600"/>
  </clipPath>
</defs>
<path clip-path="url(#clip460)" d="M202.227 1423.18 L2352.76 1423.18 L2352.76 123.472 L202.227 123.472  Z" fill="#ffffff" fill-rule="evenodd" fill-opacity="1"/>
<defs>
  <clipPath id="clip462">
    <rect x="202" y="123" width="2152" height="1301"/>
  </clipPath>
</defs>
<polyline clip-path="url(#clip462)" style="stroke:#000000; stroke-linecap:round; stroke-linejoin:round; stroke-width:2; stroke-opacity:0.1; fill:none" points="263.091,1423.18 263.091,123.472 "/>
<polyline clip-path="url(#clip462)" style="stroke:#000000; stroke-linecap:round; stroke-linejoin:round; stroke-width:2; stroke-opacity:0.1; fill:none" points="685.758,1423.18 685.758,123.472 "/>
<polyline clip-path="url(#clip462)" style="stroke:#000000; stroke-linecap:round; stroke-linejoin:round; stroke-width:2; stroke-opacity:0.1; fill:none" points="1108.42,1423.18 1108.42,123.472 "/>
<polyline clip-path="url(#clip462)" style="stroke:#000000; stroke-linecap:round; stroke-linejoin:round; stroke-width:2; stroke-opacity:0.1; fill:none" points="1531.09,1423.18 1531.09,123.472 "/>
<polyline clip-path="url(#clip462)" style="stroke:#000000; stroke-linecap:round; stroke-linejoin:round; stroke-width:2; stroke-opacity:0.1; fill:none" points="1953.76,1423.18 1953.76,123.472 "/>
<polyline clip-path="url(#clip460)" style="stroke:#000000; stroke-linecap:round; stroke-linejoin:round; stroke-width:4; stroke-opacity:1; fill:none" points="202.227,1423.18 2352.76,1423.18 "/>
<polyline clip-path="url(#clip460)" style="stroke:#000000; stroke-linecap:round; stroke-linejoin:round; stroke-width:4; stroke-opacity:1; fill:none" points="263.091,1423.18 263.091,1404.28 "/>
<polyline clip-path="url(#clip460)" style="stroke:#000000; stroke-linecap:round; stroke-linejoin:round; stroke-width:4; stroke-opacity:1; fill:none" points="685.758,1423.18 685.758,1404.28 "/>
<polyline clip-path="url(#clip460)" style="stroke:#000000; stroke-linecap:round; stroke-linejoin:round; stroke-width:4; stroke-opacity:1; fill:none" points="1108.42,1423.18 1108.42,1404.28 "/>
<polyline clip-path="url(#clip460)" style="stroke:#000000; stroke-linecap:round; stroke-linejoin:round; stroke-width:4; stroke-opacity:1; fill:none" points="1531.09,1423.18 1531.09,1404.28 "/>
<polyline clip-path="url(#clip460)" style="stroke:#000000; stroke-linecap:round; stroke-linejoin:round; stroke-width:4; stroke-opacity:1; fill:none" points="1953.76,1423.18 1953.76,1404.28 "/>
<path clip-path="url(#clip460)" d="M263.091 1454.1 Q259.48 1454.1 257.652 1457.66 Q255.846 1461.2 255.846 1468.33 Q255.846 1475.44 257.652 1479.01 Q259.48 1482.55 263.091 1482.55 Q266.726 1482.55 268.531 1479.01 Q270.36 1475.44 270.36 1468.33 Q270.36 1461.2 268.531 1457.66 Q266.726 1454.1 263.091 1454.1 M263.091 1450.39 Q268.902 1450.39 271.957 1455 Q275.036 1459.58 275.036 1468.33 Q275.036 1477.06 271.957 1481.67 Q268.902 1486.25 263.091 1486.25 Q257.281 1486.25 254.203 1481.67 Q251.147 1477.06 251.147 1468.33 Q251.147 1459.58 254.203 1455 Q257.281 1450.39 263.091 1450.39 Z" fill="#000000" fill-rule="nonzero" fill-opacity="1" /><path clip-path="url(#clip460)" d="M660.457 1451.02 L678.814 1451.02 L678.814 1454.96 L664.74 1454.96 L664.74 1463.43 Q665.758 1463.08 666.777 1462.92 Q667.795 1462.73 668.814 1462.73 Q674.601 1462.73 677.98 1465.9 Q681.36 1469.08 681.36 1474.49 Q681.36 1480.07 677.888 1483.17 Q674.416 1486.25 668.096 1486.25 Q665.92 1486.25 663.652 1485.88 Q661.407 1485.51 658.999 1484.77 L658.999 1480.07 Q661.082 1481.2 663.305 1481.76 Q665.527 1482.32 668.004 1482.32 Q672.008 1482.32 674.346 1480.21 Q676.684 1478.1 676.684 1474.49 Q676.684 1470.88 674.346 1468.77 Q672.008 1466.67 668.004 1466.67 Q666.129 1466.67 664.254 1467.08 Q662.402 1467.5 660.457 1468.38 L660.457 1451.02 Z" fill="#000000" fill-rule="nonzero" fill-opacity="1" /><path clip-path="url(#clip460)" d="M700.573 1454.1 Q696.962 1454.1 695.133 1457.66 Q693.328 1461.2 693.328 1468.33 Q693.328 1475.44 695.133 1479.01 Q696.962 1482.55 700.573 1482.55 Q704.207 1482.55 706.013 1479.01 Q707.841 1475.44 707.841 1468.33 Q707.841 1461.2 706.013 1457.66 Q704.207 1454.1 700.573 1454.1 M700.573 1450.39 Q706.383 1450.39 709.439 1455 Q712.517 1459.58 712.517 1468.33 Q712.517 1477.06 709.439 1481.67 Q706.383 1486.25 700.573 1486.25 Q694.763 1486.25 691.684 1481.67 Q688.629 1477.06 688.629 1468.33 Q688.629 1459.58 691.684 1455 Q694.763 1450.39 700.573 1450.39 Z" fill="#000000" fill-rule="nonzero" fill-opacity="1" /><path clip-path="url(#clip460)" d="M1068.03 1481.64 L1075.67 1481.64 L1075.67 1455.28 L1067.36 1456.95 L1067.36 1452.69 L1075.62 1451.02 L1080.3 1451.02 L1080.3 1481.64 L1087.94 1481.64 L1087.94 1485.58 L1068.03 1485.58 L1068.03 1481.64 Z" fill="#000000" fill-rule="nonzero" fill-opacity="1" /><path clip-path="url(#clip460)" d="M1107.38 1454.1 Q1103.77 1454.1 1101.94 1457.66 Q1100.14 1461.2 1100.14 1468.33 Q1100.14 1475.44 1101.94 1479.01 Q1103.77 1482.55 1107.38 1482.55 Q1111.02 1482.55 1112.82 1479.01 Q1114.65 1475.44 1114.65 1468.33 Q1114.65 1461.2 1112.82 1457.66 Q1111.02 1454.1 1107.38 1454.1 M1107.38 1450.39 Q1113.19 1450.39 1116.25 1455 Q1119.33 1459.58 1119.33 1468.33 Q1119.33 1477.06 1116.25 1481.67 Q1113.19 1486.25 1107.38 1486.25 Q1101.57 1486.25 1098.49 1481.67 Q1095.44 1477.06 1095.44 1468.33 Q1095.44 1459.58 1098.49 1455 Q1101.57 1450.39 1107.38 1450.39 Z" fill="#000000" fill-rule="nonzero" fill-opacity="1" /><path clip-path="url(#clip460)" d="M1137.55 1454.1 Q1133.93 1454.1 1132.11 1457.66 Q1130.3 1461.2 1130.3 1468.33 Q1130.3 1475.44 1132.11 1479.01 Q1133.93 1482.55 1137.55 1482.55 Q1141.18 1482.55 1142.98 1479.01 Q1144.81 1475.44 1144.81 1468.33 Q1144.81 1461.2 1142.98 1457.66 Q1141.18 1454.1 1137.55 1454.1 M1137.55 1450.39 Q1143.36 1450.39 1146.41 1455 Q1149.49 1459.58 1149.49 1468.33 Q1149.49 1477.06 1146.41 1481.67 Q1143.36 1486.25 1137.55 1486.25 Q1131.74 1486.25 1128.66 1481.67 Q1125.6 1477.06 1125.6 1468.33 Q1125.6 1459.58 1128.66 1455 Q1131.74 1450.39 1137.55 1450.39 Z" fill="#000000" fill-rule="nonzero" fill-opacity="1" /><path clip-path="url(#clip460)" d="M1490.7 1481.64 L1498.34 1481.64 L1498.34 1455.28 L1490.03 1456.95 L1490.03 1452.69 L1498.29 1451.02 L1502.97 1451.02 L1502.97 1481.64 L1510.61 1481.64 L1510.61 1485.58 L1490.7 1485.58 L1490.7 1481.64 Z" fill="#000000" fill-rule="nonzero" fill-opacity="1" /><path clip-path="url(#clip460)" d="M1520.1 1451.02 L1538.45 1451.02 L1538.45 1454.96 L1524.38 1454.96 L1524.38 1463.43 Q1525.4 1463.08 1526.42 1462.92 Q1527.43 1462.73 1528.45 1462.73 Q1534.24 1462.73 1537.62 1465.9 Q1541 1469.08 1541 1474.49 Q1541 1480.07 1537.53 1483.17 Q1534.05 1486.25 1527.74 1486.25 Q1525.56 1486.25 1523.29 1485.88 Q1521.05 1485.51 1518.64 1484.77 L1518.64 1480.07 Q1520.72 1481.2 1522.94 1481.76 Q1525.17 1482.32 1527.64 1482.32 Q1531.65 1482.32 1533.99 1480.21 Q1536.32 1478.1 1536.32 1474.49 Q1536.32 1470.88 1533.99 1468.77 Q1531.65 1466.67 1527.64 1466.67 Q1525.77 1466.67 1523.89 1467.08 Q1522.04 1467.5 1520.1 1468.38 L1520.1 1451.02 Z" fill="#000000" fill-rule="nonzero" fill-opacity="1" /><path clip-path="url(#clip460)" d="M1560.21 1454.1 Q1556.6 1454.1 1554.77 1457.66 Q1552.97 1461.2 1552.97 1468.33 Q1552.97 1475.44 1554.77 1479.01 Q1556.6 1482.55 1560.21 1482.55 Q1563.85 1482.55 1565.65 1479.01 Q1567.48 1475.44 1567.48 1468.33 Q1567.48 1461.2 1565.65 1457.66 Q1563.85 1454.1 1560.21 1454.1 M1560.21 1450.39 Q1566.02 1450.39 1569.08 1455 Q1572.16 1459.58 1572.16 1468.33 Q1572.16 1477.06 1569.08 1481.67 Q1566.02 1486.25 1560.21 1486.25 Q1554.4 1486.25 1551.32 1481.67 Q1548.27 1477.06 1548.27 1468.33 Q1548.27 1459.58 1551.32 1455 Q1554.4 1450.39 1560.21 1450.39 Z" fill="#000000" fill-rule="nonzero" fill-opacity="1" /><path clip-path="url(#clip460)" d="M1917.45 1481.64 L1933.77 1481.64 L1933.77 1485.58 L1911.83 1485.58 L1911.83 1481.64 Q1914.49 1478.89 1919.07 1474.26 Q1923.68 1469.61 1924.86 1468.27 Q1927.1 1465.74 1927.98 1464.01 Q1928.89 1462.25 1928.89 1460.56 Q1928.89 1457.8 1926.94 1456.07 Q1925.02 1454.33 1921.92 1454.33 Q1919.72 1454.33 1917.27 1455.09 Q1914.84 1455.86 1912.06 1457.41 L1912.06 1452.69 Q1914.88 1451.55 1917.34 1450.97 Q1919.79 1450.39 1921.83 1450.39 Q1927.2 1450.39 1930.39 1453.08 Q1933.58 1455.77 1933.58 1460.26 Q1933.58 1462.39 1932.77 1464.31 Q1931.99 1466.2 1929.88 1468.8 Q1929.3 1469.47 1926.2 1472.69 Q1923.1 1475.88 1917.45 1481.64 Z" fill="#000000" fill-rule="nonzero" fill-opacity="1" /><path clip-path="url(#clip460)" d="M1953.58 1454.1 Q1949.97 1454.1 1948.15 1457.66 Q1946.34 1461.2 1946.34 1468.33 Q1946.34 1475.44 1948.15 1479.01 Q1949.97 1482.55 1953.58 1482.55 Q1957.22 1482.55 1959.02 1479.01 Q1960.85 1475.44 1960.85 1468.33 Q1960.85 1461.2 1959.02 1457.66 Q1957.22 1454.1 1953.58 1454.1 M1953.58 1450.39 Q1959.4 1450.39 1962.45 1455 Q1965.53 1459.58 1965.53 1468.33 Q1965.53 1477.06 1962.45 1481.67 Q1959.4 1486.25 1953.58 1486.25 Q1947.77 1486.25 1944.7 1481.67 Q1941.64 1477.06 1941.64 1468.33 Q1941.64 1459.58 1944.7 1455 Q1947.77 1450.39 1953.58 1450.39 Z" fill="#000000" fill-rule="nonzero" fill-opacity="1" /><path clip-path="url(#clip460)" d="M1983.75 1454.1 Q1980.14 1454.1 1978.31 1457.66 Q1976.5 1461.2 1976.5 1468.33 Q1976.5 1475.44 1978.31 1479.01 Q1980.14 1482.55 1983.75 1482.55 Q1987.38 1482.55 1989.19 1479.01 Q1991.02 1475.44 1991.02 1468.33 Q1991.02 1461.2 1989.19 1457.66 Q1987.38 1454.1 1983.75 1454.1 M1983.75 1450.39 Q1989.56 1450.39 1992.61 1455 Q1995.69 1459.58 1995.69 1468.33 Q1995.69 1477.06 1992.61 1481.67 Q1989.56 1486.25 1983.75 1486.25 Q1977.94 1486.25 1974.86 1481.67 Q1971.8 1477.06 1971.8 1468.33 Q1971.8 1459.58 1974.86 1455 Q1977.94 1450.39 1983.75 1450.39 Z" fill="#000000" fill-rule="nonzero" fill-opacity="1" /><path clip-path="url(#clip460)" d="M1147.66 1520.52 L1187.86 1520.52 L1187.86 1525.93 L1170.99 1525.93 L1170.99 1568.04 L1164.53 1568.04 L1164.53 1525.93 L1147.66 1525.93 L1147.66 1520.52 Z" fill="#000000" fill-rule="nonzero" fill-opacity="1" /><path clip-path="url(#clip460)" d="M1191.81 1532.4 L1197.67 1532.4 L1197.67 1568.04 L1191.81 1568.04 L1191.81 1532.4 M1191.81 1518.52 L1197.67 1518.52 L1197.67 1525.93 L1191.81 1525.93 L1191.81 1518.52 Z" fill="#000000" fill-rule="nonzero" fill-opacity="1" /><path clip-path="url(#clip460)" d="M1237.67 1539.24 Q1239.87 1535.29 1242.93 1533.41 Q1245.98 1531.54 1250.12 1531.54 Q1255.69 1531.54 1258.71 1535.45 Q1261.74 1539.33 1261.74 1546.53 L1261.74 1568.04 L1255.85 1568.04 L1255.85 1546.72 Q1255.85 1541.59 1254.03 1539.11 Q1252.22 1536.63 1248.5 1536.63 Q1243.94 1536.63 1241.3 1539.65 Q1238.66 1542.68 1238.66 1547.9 L1238.66 1568.04 L1232.77 1568.04 L1232.77 1546.72 Q1232.77 1541.56 1230.96 1539.11 Q1229.14 1536.63 1225.36 1536.63 Q1220.87 1536.63 1218.23 1539.68 Q1215.59 1542.71 1215.59 1547.9 L1215.59 1568.04 L1209.7 1568.04 L1209.7 1532.4 L1215.59 1532.4 L1215.59 1537.93 Q1217.59 1534.66 1220.39 1533.1 Q1223.19 1531.54 1227.04 1531.54 Q1230.93 1531.54 1233.63 1533.51 Q1236.37 1535.48 1237.67 1539.24 Z" fill="#000000" fill-rule="nonzero" fill-opacity="1" /><path clip-path="url(#clip460)" d="M1303.91 1548.76 L1303.91 1551.62 L1276.98 1551.62 Q1277.36 1557.67 1280.61 1560.85 Q1283.89 1564 1289.71 1564 Q1293.09 1564 1296.24 1563.17 Q1299.42 1562.35 1302.54 1560.69 L1302.54 1566.23 Q1299.39 1567.57 1296.08 1568.27 Q1292.77 1568.97 1289.36 1568.97 Q1280.83 1568.97 1275.84 1564 Q1270.87 1559.04 1270.87 1550.57 Q1270.87 1541.82 1275.58 1536.69 Q1280.32 1531.54 1288.35 1531.54 Q1295.54 1531.54 1299.71 1536.18 Q1303.91 1540.8 1303.91 1548.76 M1298.05 1547.04 Q1297.99 1542.23 1295.35 1539.37 Q1292.74 1536.5 1288.41 1536.5 Q1283.51 1536.5 1280.55 1539.27 Q1277.62 1542.04 1277.17 1547.07 L1298.05 1547.04 Z" fill="#000000" fill-rule="nonzero" fill-opacity="1" /><path clip-path="url(#clip460)" d="M1348.31 1518.58 Q1344.05 1525.9 1341.98 1533.06 Q1339.91 1540.23 1339.91 1547.58 Q1339.91 1554.93 1341.98 1562.16 Q1344.08 1569.35 1348.31 1576.64 L1343.22 1576.64 Q1338.44 1569.16 1336.06 1561.93 Q1333.7 1554.71 1333.7 1547.58 Q1333.7 1540.48 1336.06 1533.29 Q1338.41 1526.09 1343.22 1518.58 L1348.31 1518.58 Z" fill="#000000" fill-rule="nonzero" fill-opacity="1" /><path clip-path="url(#clip460)" d="M1382.4 1533.45 L1382.4 1538.98 Q1379.92 1537.71 1377.24 1537.07 Q1374.57 1536.44 1371.7 1536.44 Q1367.34 1536.44 1365.15 1537.77 Q1362.98 1539.11 1362.98 1541.79 Q1362.98 1543.82 1364.54 1545 Q1366.1 1546.15 1370.81 1547.2 L1372.82 1547.64 Q1379.06 1548.98 1381.67 1551.43 Q1384.31 1553.85 1384.31 1558.21 Q1384.31 1563.17 1380.36 1566.07 Q1376.45 1568.97 1369.57 1568.97 Q1366.71 1568.97 1363.59 1568.39 Q1360.5 1567.85 1357.06 1566.74 L1357.06 1560.69 Q1360.31 1562.38 1363.46 1563.24 Q1366.61 1564.07 1369.7 1564.07 Q1373.84 1564.07 1376.06 1562.66 Q1378.29 1561.23 1378.29 1558.65 Q1378.29 1556.27 1376.67 1554.99 Q1375.08 1553.72 1369.64 1552.54 L1367.6 1552.07 Q1362.16 1550.92 1359.74 1548.56 Q1357.32 1546.18 1357.32 1542.04 Q1357.32 1537.01 1360.88 1534.27 Q1364.45 1531.54 1371 1531.54 Q1374.25 1531.54 1377.11 1532.01 Q1379.98 1532.49 1382.4 1533.45 Z" fill="#000000" fill-rule="nonzero" fill-opacity="1" /><path clip-path="url(#clip460)" d="M1392.71 1518.58 L1397.8 1518.58 Q1402.58 1526.09 1404.93 1533.29 Q1407.32 1540.48 1407.32 1547.58 Q1407.32 1554.71 1404.93 1561.93 Q1402.58 1569.16 1397.8 1576.64 L1392.71 1576.64 Q1396.94 1569.35 1399.01 1562.16 Q1401.11 1554.93 1401.11 1547.58 Q1401.11 1540.23 1399.01 1533.06 Q1396.94 1525.9 1392.71 1518.58 Z" fill="#000000" fill-rule="nonzero" fill-opacity="1" /><polyline clip-path="url(#clip462)" style="stroke:#000000; stroke-linecap:round; stroke-linejoin:round; stroke-width:2; stroke-opacity:0.1; fill:none" points="202.227,1386.4 2352.76,1386.4 "/>
<polyline clip-path="url(#clip462)" style="stroke:#000000; stroke-linecap:round; stroke-linejoin:round; stroke-width:2; stroke-opacity:0.1; fill:none" points="202.227,982.931 2352.76,982.931 "/>
<polyline clip-path="url(#clip462)" style="stroke:#000000; stroke-linecap:round; stroke-linejoin:round; stroke-width:2; stroke-opacity:0.1; fill:none" points="202.227,579.461 2352.76,579.461 "/>
<polyline clip-path="url(#clip462)" style="stroke:#000000; stroke-linecap:round; stroke-linejoin:round; stroke-width:2; stroke-opacity:0.1; fill:none" points="202.227,175.992 2352.76,175.992 "/>
<polyline clip-path="url(#clip460)" style="stroke:#000000; stroke-linecap:round; stroke-linejoin:round; stroke-width:4; stroke-opacity:1; fill:none" points="202.227,1423.18 202.227,123.472 "/>
<polyline clip-path="url(#clip460)" style="stroke:#000000; stroke-linecap:round; stroke-linejoin:round; stroke-width:4; stroke-opacity:1; fill:none" points="202.227,1386.4 221.125,1386.4 "/>
<polyline clip-path="url(#clip460)" style="stroke:#000000; stroke-linecap:round; stroke-linejoin:round; stroke-width:4; stroke-opacity:1; fill:none" points="202.227,982.931 221.125,982.931 "/>
<polyline clip-path="url(#clip460)" style="stroke:#000000; stroke-linecap:round; stroke-linejoin:round; stroke-width:4; stroke-opacity:1; fill:none" points="202.227,579.461 221.125,579.461 "/>
<polyline clip-path="url(#clip460)" style="stroke:#000000; stroke-linecap:round; stroke-linejoin:round; stroke-width:4; stroke-opacity:1; fill:none" points="202.227,175.992 221.125,175.992 "/>
<path clip-path="url(#clip460)" d="M154.283 1372.2 Q150.672 1372.2 148.843 1375.76 Q147.038 1379.3 147.038 1386.43 Q147.038 1393.54 148.843 1397.11 Q150.672 1400.65 154.283 1400.65 Q157.917 1400.65 159.723 1397.11 Q161.552 1393.54 161.552 1386.43 Q161.552 1379.3 159.723 1375.76 Q157.917 1372.2 154.283 1372.2 M154.283 1368.49 Q160.093 1368.49 163.149 1373.1 Q166.227 1377.68 166.227 1386.43 Q166.227 1395.16 163.149 1399.77 Q160.093 1404.35 154.283 1404.35 Q148.473 1404.35 145.394 1399.77 Q142.339 1395.16 142.339 1386.43 Q142.339 1377.68 145.394 1373.1 Q148.473 1368.49 154.283 1368.49 Z" fill="#000000" fill-rule="nonzero" fill-opacity="1" /><path clip-path="url(#clip460)" d="M145.325 965.651 L163.681 965.651 L163.681 969.586 L149.607 969.586 L149.607 978.058 Q150.626 977.711 151.644 977.549 Q152.663 977.363 153.681 977.363 Q159.468 977.363 162.848 980.535 Q166.227 983.706 166.227 989.123 Q166.227 994.701 162.755 997.803 Q159.283 1000.88 152.964 1000.88 Q150.788 1000.88 148.519 1000.51 Q146.274 1000.14 143.866 999.4 L143.866 994.701 Q145.95 995.836 148.172 996.391 Q150.394 996.947 152.871 996.947 Q156.876 996.947 159.214 994.84 Q161.552 992.734 161.552 989.123 Q161.552 985.512 159.214 983.405 Q156.876 981.299 152.871 981.299 Q150.996 981.299 149.121 981.715 Q147.269 982.132 145.325 983.012 L145.325 965.651 Z" fill="#000000" fill-rule="nonzero" fill-opacity="1" /><path clip-path="url(#clip460)" d="M114.931 592.806 L122.57 592.806 L122.57 566.441 L114.26 568.107 L114.26 563.848 L122.524 562.181 L127.2 562.181 L127.2 592.806 L134.839 592.806 L134.839 596.741 L114.931 596.741 L114.931 592.806 Z" fill="#000000" fill-rule="nonzero" fill-opacity="1" /><path clip-path="url(#clip460)" d="M154.283 565.26 Q150.672 565.26 148.843 568.825 Q147.038 572.367 147.038 579.496 Q147.038 586.603 148.843 590.167 Q150.672 593.709 154.283 593.709 Q157.917 593.709 159.723 590.167 Q161.552 586.603 161.552 579.496 Q161.552 572.367 159.723 568.825 Q157.917 565.26 154.283 565.26 M154.283 561.556 Q160.093 561.556 163.149 566.163 Q166.227 570.746 166.227 579.496 Q166.227 588.223 163.149 592.829 Q160.093 597.413 154.283 597.413 Q148.473 597.413 145.394 592.829 Q142.339 588.223 142.339 579.496 Q142.339 570.746 145.394 566.163 Q148.473 561.556 154.283 561.556 Z" fill="#000000" fill-rule="nonzero" fill-opacity="1" /><path clip-path="url(#clip460)" d="M115.927 189.337 L123.566 189.337 L123.566 162.972 L115.256 164.638 L115.256 160.379 L123.519 158.712 L128.195 158.712 L128.195 189.337 L135.834 189.337 L135.834 193.272 L115.927 193.272 L115.927 189.337 Z" fill="#000000" fill-rule="nonzero" fill-opacity="1" /><path clip-path="url(#clip460)" d="M145.325 158.712 L163.681 158.712 L163.681 162.647 L149.607 162.647 L149.607 171.12 Q150.626 170.772 151.644 170.61 Q152.663 170.425 153.681 170.425 Q159.468 170.425 162.848 173.596 Q166.227 176.768 166.227 182.184 Q166.227 187.763 162.755 190.865 Q159.283 193.944 152.964 193.944 Q150.788 193.944 148.519 193.573 Q146.274 193.203 143.866 192.462 L143.866 187.763 Q145.95 188.897 148.172 189.453 Q150.394 190.008 152.871 190.008 Q156.876 190.008 159.214 187.902 Q161.552 185.795 161.552 182.184 Q161.552 178.573 159.214 176.467 Q156.876 174.36 152.871 174.36 Q150.996 174.36 149.121 174.777 Q147.269 175.194 145.325 176.073 L145.325 158.712 Z" fill="#000000" fill-rule="nonzero" fill-opacity="1" /><path clip-path="url(#clip460)" d="M20.1444 1046.56 L26.9239 1046.56 Q23.9002 1049.8 22.4043 1053.5 Q20.9083 1057.16 20.9083 1061.29 Q20.9083 1069.44 25.9054 1073.77 Q30.8707 1078.1 40.2919 1078.1 Q49.6813 1078.1 54.6784 1073.77 Q59.6436 1069.44 59.6436 1061.29 Q59.6436 1057.16 58.1477 1053.5 Q56.6518 1049.8 53.6281 1046.56 L60.3439 1046.56 Q62.6355 1049.93 63.7814 1053.72 Q64.9272 1057.48 64.9272 1061.68 Q64.9272 1072.47 58.3387 1078.67 Q51.7183 1084.88 40.2919 1084.88 Q28.8336 1084.88 22.2451 1078.67 Q15.6248 1072.47 15.6248 1061.68 Q15.6248 1057.41 16.7706 1053.66 Q17.8846 1049.87 20.1444 1046.56 Z" fill="#000000" fill-rule="nonzero" fill-opacity="1" /><path clip-path="url(#clip460)" d="M32.4621 1023.07 Q32.4621 1027.78 36.1542 1030.52 Q39.8145 1033.25 46.212 1033.25 Q52.6095 1033.25 56.3017 1030.55 Q59.9619 1027.81 59.9619 1023.07 Q59.9619 1018.39 56.2698 1015.65 Q52.5777 1012.92 46.212 1012.92 Q39.8781 1012.92 36.186 1015.65 Q32.4621 1018.39 32.4621 1023.07 M27.4968 1023.07 Q27.4968 1015.43 32.4621 1011.07 Q37.4273 1006.71 46.212 1006.71 Q54.9649 1006.71 59.9619 1011.07 Q64.9272 1015.43 64.9272 1023.07 Q64.9272 1030.74 59.9619 1035.1 Q54.9649 1039.43 46.212 1039.43 Q37.4273 1039.43 32.4621 1035.1 Q27.4968 1030.74 27.4968 1023.07 Z" fill="#000000" fill-rule="nonzero" fill-opacity="1" /><path clip-path="url(#clip460)" d="M42.4881 967.369 L64.0042 967.369 L64.0042 973.225 L42.679 973.225 Q37.6183 973.225 35.1038 975.198 Q32.5894 977.172 32.5894 981.119 Q32.5894 985.861 35.6131 988.598 Q38.6368 991.336 43.8567 991.336 L64.0042 991.336 L64.0042 997.224 L28.3562 997.224 L28.3562 991.336 L33.8944 991.336 Q30.6797 989.235 29.0883 986.402 Q27.4968 983.538 27.4968 979.814 Q27.4968 973.671 31.3163 970.52 Q35.1038 967.369 42.4881 967.369 Z" fill="#000000" fill-rule="nonzero" fill-opacity="1" /><path clip-path="url(#clip460)" d="M29.7248 930.034 L35.1993 930.034 Q33.8307 932.516 33.1623 935.031 Q32.4621 937.513 32.4621 940.06 Q32.4621 945.757 36.0905 948.908 Q39.6872 952.059 46.212 952.059 Q52.7369 952.059 56.3653 948.908 Q59.9619 945.757 59.9619 940.06 Q59.9619 937.513 59.2935 935.031 Q58.5933 932.516 57.2247 930.034 L62.6355 930.034 Q63.7814 932.485 64.3543 935.126 Q64.9272 937.736 64.9272 940.696 Q64.9272 948.749 59.8664 953.491 Q54.8057 958.234 46.212 958.234 Q37.491 958.234 32.4939 953.46 Q27.4968 948.653 27.4968 940.314 Q27.4968 937.609 28.0697 935.031 Q28.6108 932.453 29.7248 930.034 Z" fill="#000000" fill-rule="nonzero" fill-opacity="1" /><path clip-path="url(#clip460)" d="M44.7161 889.357 L47.5806 889.357 L47.5806 916.284 Q53.6281 915.902 56.8109 912.655 Q59.9619 909.377 59.9619 903.552 Q59.9619 900.179 59.1344 897.028 Q58.3069 893.845 56.6518 890.726 L62.1899 890.726 Q63.5267 893.877 64.227 897.187 Q64.9272 900.497 64.9272 903.903 Q64.9272 912.433 59.9619 917.43 Q54.9967 922.395 46.5303 922.395 Q37.7774 922.395 32.6531 917.684 Q27.4968 912.942 27.4968 904.921 Q27.4968 897.728 32.1438 893.558 Q36.7589 889.357 44.7161 889.357 M42.9973 895.213 Q38.1912 895.277 35.3266 897.919 Q32.4621 900.529 32.4621 904.857 Q32.4621 909.759 35.2312 912.719 Q38.0002 915.647 43.0292 916.093 L42.9973 895.213 Z" fill="#000000" fill-rule="nonzero" fill-opacity="1" /><path clip-path="url(#clip460)" d="M42.4881 850.112 L64.0042 850.112 L64.0042 855.969 L42.679 855.969 Q37.6183 855.969 35.1038 857.942 Q32.5894 859.916 32.5894 863.862 Q32.5894 868.605 35.6131 871.342 Q38.6368 874.079 43.8567 874.079 L64.0042 874.079 L64.0042 879.967 L28.3562 879.967 L28.3562 874.079 L33.8944 874.079 Q30.6797 871.979 29.0883 869.146 Q27.4968 866.281 27.4968 862.557 Q27.4968 856.414 31.3163 853.263 Q35.1038 850.112 42.4881 850.112 Z" fill="#000000" fill-rule="nonzero" fill-opacity="1" /><path clip-path="url(#clip460)" d="M18.2347 832.638 L28.3562 832.638 L28.3562 820.575 L32.9077 820.575 L32.9077 832.638 L52.2594 832.638 Q56.6199 832.638 57.8613 831.461 Q59.1026 830.251 59.1026 826.591 L59.1026 820.575 L64.0042 820.575 L64.0042 826.591 Q64.0042 833.371 61.4897 835.949 Q58.9434 838.527 52.2594 838.527 L32.9077 838.527 L32.9077 842.824 L28.3562 842.824 L28.3562 838.527 L18.2347 838.527 L18.2347 832.638 Z" fill="#000000" fill-rule="nonzero" fill-opacity="1" /><path clip-path="url(#clip460)" d="M33.8307 792.216 Q33.2578 793.203 33.0032 794.381 Q32.7167 795.526 32.7167 796.927 Q32.7167 801.892 35.9632 804.566 Q39.1779 807.207 45.2253 807.207 L64.0042 807.207 L64.0042 813.096 L28.3562 813.096 L28.3562 807.207 L33.8944 807.207 Q30.6479 805.361 29.0883 802.401 Q27.4968 799.441 27.4968 795.208 Q27.4968 794.603 27.5923 793.871 Q27.656 793.139 27.8151 792.248 L33.8307 792.216 Z" fill="#000000" fill-rule="nonzero" fill-opacity="1" /><path clip-path="url(#clip460)" d="M46.0847 769.873 Q46.0847 776.97 47.7079 779.708 Q49.3312 782.445 53.2461 782.445 Q56.3653 782.445 58.2114 780.408 Q60.0256 778.339 60.0256 774.806 Q60.0256 769.936 56.5881 767.008 Q53.1188 764.048 47.3897 764.048 L46.0847 764.048 L46.0847 769.873 M43.6657 758.192 L64.0042 758.192 L64.0042 764.048 L58.5933 764.048 Q61.8398 766.053 63.3994 769.045 Q64.9272 772.037 64.9272 776.366 Q64.9272 781.84 61.8716 785.087 Q58.7843 788.301 53.6281 788.301 Q47.6125 788.301 44.5569 784.291 Q41.5014 780.249 41.5014 772.26 L41.5014 764.048 L40.9285 764.048 Q36.8862 764.048 34.6901 766.722 Q32.4621 769.363 32.4621 774.169 Q32.4621 777.225 33.1941 780.121 Q33.9262 783.018 35.3903 785.691 L29.9795 785.691 Q28.7381 782.477 28.1334 779.453 Q27.4968 776.429 27.4968 773.565 Q27.4968 765.83 31.5072 762.011 Q35.5176 758.192 43.6657 758.192 Z" fill="#000000" fill-rule="nonzero" fill-opacity="1" /><path clip-path="url(#clip460)" d="M18.2347 740.336 L28.3562 740.336 L28.3562 728.273 L32.9077 728.273 L32.9077 740.336 L52.2594 740.336 Q56.6199 740.336 57.8613 739.158 Q59.1026 737.949 59.1026 734.288 L59.1026 728.273 L64.0042 728.273 L64.0042 734.288 Q64.0042 741.068 61.4897 743.646 Q58.9434 746.224 52.2594 746.224 L32.9077 746.224 L32.9077 750.521 L28.3562 750.521 L28.3562 746.224 L18.2347 746.224 L18.2347 740.336 Z" fill="#000000" fill-rule="nonzero" fill-opacity="1" /><path clip-path="url(#clip460)" d="M28.3562 720.57 L28.3562 714.714 L64.0042 714.714 L64.0042 720.57 L28.3562 720.57 M14.479 720.57 L14.479 714.714 L21.895 714.714 L21.895 720.57 L14.479 720.57 Z" fill="#000000" fill-rule="nonzero" fill-opacity="1" /><path clip-path="url(#clip460)" d="M32.4621 688.646 Q32.4621 693.357 36.1542 696.094 Q39.8145 698.831 46.212 698.831 Q52.6095 698.831 56.3017 696.126 Q59.9619 693.389 59.9619 688.646 Q59.9619 683.967 56.2698 681.23 Q52.5777 678.493 46.212 678.493 Q39.8781 678.493 36.186 681.23 Q32.4621 683.967 32.4621 688.646 M27.4968 688.646 Q27.4968 681.007 32.4621 676.647 Q37.4273 672.286 46.212 672.286 Q54.9649 672.286 59.9619 676.647 Q64.9272 681.007 64.9272 688.646 Q64.9272 696.317 59.9619 700.677 Q54.9649 705.006 46.212 705.006 Q37.4273 705.006 32.4621 700.677 Q27.4968 696.317 27.4968 688.646 Z" fill="#000000" fill-rule="nonzero" fill-opacity="1" /><path clip-path="url(#clip460)" d="M42.4881 632.946 L64.0042 632.946 L64.0042 638.803 L42.679 638.803 Q37.6183 638.803 35.1038 640.776 Q32.5894 642.749 32.5894 646.696 Q32.5894 651.439 35.6131 654.176 Q38.6368 656.913 43.8567 656.913 L64.0042 656.913 L64.0042 662.801 L28.3562 662.801 L28.3562 656.913 L33.8944 656.913 Q30.6797 654.812 29.0883 651.98 Q27.4968 649.115 27.4968 645.391 Q27.4968 639.248 31.3163 636.097 Q35.1038 632.946 42.4881 632.946 Z" fill="#000000" fill-rule="nonzero" fill-opacity="1" /><path clip-path="url(#clip460)" d="M14.5426 586.477 Q21.8632 590.742 29.0246 592.81 Q36.186 594.879 43.5384 594.879 Q50.8908 594.879 58.1159 592.81 Q65.3091 590.71 72.5979 586.477 L72.5979 591.569 Q65.1182 596.343 57.8931 598.731 Q50.668 601.086 43.5384 601.086 Q36.4406 601.086 29.2474 598.731 Q22.0542 596.375 14.5426 591.569 L14.5426 586.477 Z" fill="#000000" fill-rule="nonzero" fill-opacity="1" /><path clip-path="url(#clip460)" d="M45.7664 551.656 Q39.4007 551.656 35.8996 554.298 Q32.3984 556.908 32.3984 561.65 Q32.3984 566.361 35.8996 569.003 Q39.4007 571.613 45.7664 571.613 Q52.1003 571.613 55.6014 569.003 Q59.1026 566.361 59.1026 561.65 Q59.1026 556.908 55.6014 554.298 Q52.1003 551.656 45.7664 551.656 M59.58 545.8 Q68.683 545.8 73.1071 549.842 Q77.5631 553.884 77.5631 562.223 Q77.5631 565.311 77.0857 568.048 Q76.6401 570.785 75.6852 573.363 L69.9879 573.363 Q71.3884 570.785 72.0568 568.271 Q72.7252 565.756 72.7252 563.146 Q72.7252 557.385 69.7015 554.521 Q66.7096 551.656 60.6303 551.656 L57.7339 551.656 Q60.885 553.47 62.4446 556.303 Q64.0042 559.136 64.0042 563.083 Q64.0042 569.639 59.0071 573.65 Q54.01 577.66 45.7664 577.66 Q37.491 577.66 32.4939 573.65 Q27.4968 569.639 27.4968 563.083 Q27.4968 559.136 29.0564 556.303 Q30.616 553.47 33.7671 551.656 L28.3562 551.656 L28.3562 545.8 L59.58 545.8 Z" fill="#000000" fill-rule="nonzero" fill-opacity="1" /><path clip-path="url(#clip460)" d="M16.4842 523.329 L16.4842 517.918 L70.0516 534.469 L70.0516 539.88 L16.4842 523.329 Z" fill="#000000" fill-rule="nonzero" fill-opacity="1" /><path clip-path="url(#clip460)" d="M16.4842 511.52 L16.4842 505.091 L58.5933 505.091 L58.5933 481.952 L64.0042 481.952 L64.0042 511.52 L16.4842 511.52 Z" fill="#000000" fill-rule="nonzero" fill-opacity="1" /><path clip-path="url(#clip460)" d="M14.5426 476.382 L14.5426 471.289 Q22.0542 466.515 29.2474 464.16 Q36.4406 461.772 43.5384 461.772 Q50.668 461.772 57.8931 464.16 Q65.1182 466.515 72.5979 471.289 L72.5979 476.382 Q65.3091 472.148 58.1159 470.08 Q50.8908 467.979 43.5384 467.979 Q36.186 467.979 29.0246 470.08 Q21.8632 472.148 14.5426 476.382 Z" fill="#000000" fill-rule="nonzero" fill-opacity="1" /><path clip-path="url(#clip460)" d="M796.305 16.7545 L796.305 25.383 Q792.173 21.5346 787.474 19.6307 Q782.816 17.7268 777.549 17.7268 Q767.179 17.7268 761.67 24.0867 Q756.161 30.4061 756.161 42.3968 Q756.161 54.3469 761.67 60.7069 Q767.179 67.0263 777.549 67.0263 Q782.816 67.0263 787.474 65.1223 Q792.173 63.2184 796.305 59.3701 L796.305 67.9175 Q792.011 70.8341 787.19 72.2924 Q782.41 73.7508 777.063 73.7508 Q763.331 73.7508 755.431 65.3654 Q747.532 56.9395 747.532 42.3968 Q747.532 27.8135 755.431 19.4281 Q763.331 11.0023 777.063 11.0023 Q782.491 11.0023 787.272 12.4606 Q792.092 13.8784 796.305 16.7545 Z" fill="#000000" fill-rule="nonzero" fill-opacity="1" /><path clip-path="url(#clip460)" d="M826.201 32.4315 Q820.205 32.4315 816.722 37.1306 Q813.238 41.7891 813.238 49.9314 Q813.238 58.0738 816.681 62.7728 Q820.165 67.4314 826.201 67.4314 Q832.156 67.4314 835.639 62.7323 Q839.123 58.0333 839.123 49.9314 Q839.123 41.8701 835.639 37.1711 Q832.156 32.4315 826.201 32.4315 M826.201 26.1121 Q835.923 26.1121 841.473 32.4315 Q847.022 38.7509 847.022 49.9314 Q847.022 61.0714 841.473 67.4314 Q835.923 73.7508 826.201 73.7508 Q816.438 73.7508 810.888 67.4314 Q805.379 61.0714 805.379 49.9314 Q805.379 38.7509 810.888 32.4315 Q816.438 26.1121 826.201 26.1121 Z" fill="#000000" fill-rule="nonzero" fill-opacity="1" /><path clip-path="url(#clip460)" d="M897.092 45.1919 L897.092 72.576 L889.638 72.576 L889.638 45.4349 Q889.638 38.994 887.126 35.7938 Q884.615 32.5936 879.592 32.5936 Q873.556 32.5936 870.072 36.4419 Q866.588 40.2903 866.588 46.9338 L866.588 72.576 L859.094 72.576 L859.094 27.2059 L866.588 27.2059 L866.588 34.2544 Q869.262 30.163 872.867 28.1376 Q876.513 26.1121 881.252 26.1121 Q889.071 26.1121 893.081 30.9732 Q897.092 35.7938 897.092 45.1919 Z" fill="#000000" fill-rule="nonzero" fill-opacity="1" /><path clip-path="url(#clip460)" d="M944.609 28.9478 L944.609 35.9153 Q941.449 34.1734 938.249 33.3227 Q935.089 32.4315 931.848 32.4315 Q924.597 32.4315 920.587 37.0496 Q916.576 41.6271 916.576 49.9314 Q916.576 58.2358 920.587 62.8538 Q924.597 67.4314 931.848 67.4314 Q935.089 67.4314 938.249 66.5807 Q941.449 65.6895 944.609 63.9476 L944.609 70.8341 Q941.489 72.2924 938.127 73.0216 Q934.805 73.7508 931.038 73.7508 Q920.789 73.7508 914.753 67.3098 Q908.718 60.8689 908.718 49.9314 Q908.718 38.832 914.794 32.472 Q920.911 26.1121 931.524 26.1121 Q934.967 26.1121 938.249 26.8413 Q941.53 27.5299 944.609 28.9478 Z" fill="#000000" fill-rule="nonzero" fill-opacity="1" /><path clip-path="url(#clip460)" d="M996.379 48.0275 L996.379 51.6733 L962.109 51.6733 Q962.595 59.3701 966.727 63.421 Q970.899 67.4314 978.312 67.4314 Q982.606 67.4314 986.617 66.3781 Q990.667 65.3249 994.637 63.2184 L994.637 70.267 Q990.627 71.9684 986.414 72.8596 Q982.201 73.7508 977.867 73.7508 Q967.01 73.7508 960.65 67.4314 Q954.331 61.1119 954.331 50.3365 Q954.331 39.1965 960.326 32.6746 Q966.362 26.1121 976.57 26.1121 Q985.725 26.1121 991.032 32.0264 Q996.379 37.9003 996.379 48.0275 M988.926 45.84 Q988.845 39.7232 985.482 36.0774 Q982.161 32.4315 976.651 32.4315 Q970.413 32.4315 966.646 35.9558 Q962.919 39.4801 962.352 45.8805 L988.926 45.84 Z" fill="#000000" fill-rule="nonzero" fill-opacity="1" /><path clip-path="url(#clip460)" d="M1046.33 45.1919 L1046.33 72.576 L1038.87 72.576 L1038.87 45.4349 Q1038.87 38.994 1036.36 35.7938 Q1033.85 32.5936 1028.83 32.5936 Q1022.79 32.5936 1019.31 36.4419 Q1015.82 40.2903 1015.82 46.9338 L1015.82 72.576 L1008.33 72.576 L1008.33 27.2059 L1015.82 27.2059 L1015.82 34.2544 Q1018.5 30.163 1022.1 28.1376 Q1025.75 26.1121 1030.49 26.1121 Q1038.31 26.1121 1042.32 30.9732 Q1046.33 35.7938 1046.33 45.1919 Z" fill="#000000" fill-rule="nonzero" fill-opacity="1" /><path clip-path="url(#clip460)" d="M1068.57 14.324 L1068.57 27.2059 L1083.92 27.2059 L1083.92 32.9987 L1068.57 32.9987 L1068.57 57.6282 Q1068.57 63.1779 1070.07 64.7578 Q1071.6 66.3376 1076.26 66.3376 L1083.92 66.3376 L1083.92 72.576 L1076.26 72.576 Q1067.63 72.576 1064.35 69.3758 Q1061.07 66.1351 1061.07 57.6282 L1061.07 32.9987 L1055.6 32.9987 L1055.6 27.2059 L1061.07 27.2059 L1061.07 14.324 L1068.57 14.324 Z" fill="#000000" fill-rule="nonzero" fill-opacity="1" /><path clip-path="url(#clip460)" d="M1120.01 34.1734 Q1118.76 33.4443 1117.26 33.1202 Q1115.8 32.7556 1114.02 32.7556 Q1107.7 32.7556 1104.3 36.8875 Q1100.93 40.9789 1100.93 48.6757 L1100.93 72.576 L1093.44 72.576 L1093.44 27.2059 L1100.93 27.2059 L1100.93 34.2544 Q1103.28 30.1225 1107.05 28.1376 Q1110.82 26.1121 1116.2 26.1121 Q1116.97 26.1121 1117.91 26.2337 Q1118.84 26.3147 1119.97 26.5172 L1120.01 34.1734 Z" fill="#000000" fill-rule="nonzero" fill-opacity="1" /><path clip-path="url(#clip460)" d="M1148.45 49.7694 Q1139.42 49.7694 1135.93 51.8354 Q1132.45 53.9013 1132.45 58.8839 Q1132.45 62.8538 1135.04 65.2034 Q1137.67 67.5124 1142.17 67.5124 Q1148.37 67.5124 1152.1 63.1374 Q1155.86 58.7219 1155.86 51.4303 L1155.86 49.7694 L1148.45 49.7694 M1163.32 46.6907 L1163.32 72.576 L1155.86 72.576 L1155.86 65.6895 Q1153.31 69.8214 1149.5 71.8063 Q1145.7 73.7508 1140.19 73.7508 Q1133.22 73.7508 1129.09 69.8619 Q1125 65.9325 1125 59.3701 Q1125 51.7138 1130.1 47.825 Q1135.24 43.9361 1145.41 43.9361 L1155.86 43.9361 L1155.86 43.2069 Q1155.86 38.0623 1152.46 35.2672 Q1149.1 32.4315 1142.98 32.4315 Q1139.09 32.4315 1135.41 33.3632 Q1131.72 34.295 1128.32 36.1584 L1128.32 29.2718 Q1132.41 27.692 1136.26 26.9223 Q1140.11 26.1121 1143.75 26.1121 Q1153.59 26.1121 1158.46 31.2163 Q1163.32 36.3204 1163.32 46.6907 Z" fill="#000000" fill-rule="nonzero" fill-opacity="1" /><path clip-path="url(#clip460)" d="M1186.04 14.324 L1186.04 27.2059 L1201.4 27.2059 L1201.4 32.9987 L1186.04 32.9987 L1186.04 57.6282 Q1186.04 63.1779 1187.54 64.7578 Q1189.08 66.3376 1193.74 66.3376 L1201.4 66.3376 L1201.4 72.576 L1193.74 72.576 Q1185.11 72.576 1181.83 69.3758 Q1178.55 66.1351 1178.55 57.6282 L1178.55 32.9987 L1173.08 32.9987 L1173.08 27.2059 L1178.55 27.2059 L1178.55 14.324 L1186.04 14.324 Z" fill="#000000" fill-rule="nonzero" fill-opacity="1" /><path clip-path="url(#clip460)" d="M1211.2 27.2059 L1218.65 27.2059 L1218.65 72.576 L1211.2 72.576 L1211.2 27.2059 M1211.2 9.54393 L1218.65 9.54393 L1218.65 18.9825 L1211.2 18.9825 L1211.2 9.54393 Z" fill="#000000" fill-rule="nonzero" fill-opacity="1" /><path clip-path="url(#clip460)" d="M1251.83 32.4315 Q1245.83 32.4315 1242.35 37.1306 Q1238.87 41.7891 1238.87 49.9314 Q1238.87 58.0738 1242.31 62.7728 Q1245.79 67.4314 1251.83 67.4314 Q1257.78 67.4314 1261.27 62.7323 Q1264.75 58.0333 1264.75 49.9314 Q1264.75 41.8701 1261.27 37.1711 Q1257.78 32.4315 1251.83 32.4315 M1251.83 26.1121 Q1261.55 26.1121 1267.1 32.4315 Q1272.65 38.7509 1272.65 49.9314 Q1272.65 61.0714 1267.1 67.4314 Q1261.55 73.7508 1251.83 73.7508 Q1242.07 73.7508 1236.52 67.4314 Q1231.01 61.0714 1231.01 49.9314 Q1231.01 38.7509 1236.52 32.4315 Q1242.07 26.1121 1251.83 26.1121 Z" fill="#000000" fill-rule="nonzero" fill-opacity="1" /><path clip-path="url(#clip460)" d="M1322.72 45.1919 L1322.72 72.576 L1315.27 72.576 L1315.27 45.4349 Q1315.27 38.994 1312.75 35.7938 Q1310.24 32.5936 1305.22 32.5936 Q1299.18 32.5936 1295.7 36.4419 Q1292.22 40.2903 1292.22 46.9338 L1292.22 72.576 L1284.72 72.576 L1284.72 27.2059 L1292.22 27.2059 L1292.22 34.2544 Q1294.89 30.163 1298.5 28.1376 Q1302.14 26.1121 1306.88 26.1121 Q1314.7 26.1121 1318.71 30.9732 Q1322.72 35.7938 1322.72 45.1919 Z" fill="#000000" fill-rule="nonzero" fill-opacity="1" /><path clip-path="url(#clip460)" d="M1381.54 32.4315 Q1375.54 32.4315 1372.06 37.1306 Q1368.58 41.7891 1368.58 49.9314 Q1368.58 58.0738 1372.02 62.7728 Q1375.5 67.4314 1381.54 67.4314 Q1387.49 67.4314 1390.98 62.7323 Q1394.46 58.0333 1394.46 49.9314 Q1394.46 41.8701 1390.98 37.1711 Q1387.49 32.4315 1381.54 32.4315 M1381.54 26.1121 Q1391.26 26.1121 1396.81 32.4315 Q1402.36 38.7509 1402.36 49.9314 Q1402.36 61.0714 1396.81 67.4314 Q1391.26 73.7508 1381.54 73.7508 Q1371.78 73.7508 1366.23 67.4314 Q1360.72 61.0714 1360.72 49.9314 Q1360.72 38.7509 1366.23 32.4315 Q1371.78 26.1121 1381.54 26.1121 Z" fill="#000000" fill-rule="nonzero" fill-opacity="1" /><path clip-path="url(#clip460)" d="M1437.68 9.54393 L1437.68 15.7418 L1430.56 15.7418 Q1426.54 15.7418 1424.96 17.3622 Q1423.43 18.9825 1423.43 23.1955 L1423.43 27.2059 L1435.7 27.2059 L1435.7 32.9987 L1423.43 32.9987 L1423.43 72.576 L1415.93 72.576 L1415.93 32.9987 L1408.8 32.9987 L1408.8 27.2059 L1415.93 27.2059 L1415.93 24.0462 Q1415.93 16.471 1419.46 13.0277 Q1422.98 9.54393 1430.64 9.54393 L1437.68 9.54393 Z" fill="#000000" fill-rule="nonzero" fill-opacity="1" /><path clip-path="url(#clip460)" d="M1506.87 14.0809 L1506.87 22.0612 Q1502.22 19.8332 1498.08 18.7395 Q1493.95 17.6457 1490.1 17.6457 Q1483.42 17.6457 1479.77 20.2383 Q1476.17 22.8309 1476.17 27.611 Q1476.17 31.6214 1478.56 33.6873 Q1480.99 35.7128 1487.71 36.9686 L1492.66 37.9813 Q1501.81 39.7232 1506.14 44.1387 Q1510.52 48.5136 1510.52 55.8863 Q1510.52 64.6767 1504.61 69.2137 Q1498.73 73.7508 1487.35 73.7508 Q1483.05 73.7508 1478.19 72.7785 Q1473.37 71.8063 1468.19 69.9024 L1468.19 61.4765 Q1473.17 64.2716 1477.95 65.6895 Q1482.73 67.1073 1487.35 67.1073 Q1494.36 67.1073 1498.16 64.3527 Q1501.97 61.598 1501.97 56.4939 Q1501.97 52.0379 1499.22 49.5264 Q1496.5 47.0148 1490.27 45.759 L1485.28 44.7868 Q1476.13 42.9639 1472.04 39.075 Q1467.94 35.1862 1467.94 28.2591 Q1467.94 20.2383 1473.58 15.6203 Q1479.25 11.0023 1489.17 11.0023 Q1493.43 11.0023 1497.84 11.7719 Q1502.26 12.5416 1506.87 14.0809 Z" fill="#000000" fill-rule="nonzero" fill-opacity="1" /><path clip-path="url(#clip460)" d="M1540.54 32.4315 Q1534.54 32.4315 1531.06 37.1306 Q1527.57 41.7891 1527.57 49.9314 Q1527.57 58.0738 1531.02 62.7728 Q1534.5 67.4314 1540.54 67.4314 Q1546.49 67.4314 1549.98 62.7323 Q1553.46 58.0333 1553.46 49.9314 Q1553.46 41.8701 1549.98 37.1711 Q1546.49 32.4315 1540.54 32.4315 M1540.54 26.1121 Q1550.26 26.1121 1555.81 32.4315 Q1561.36 38.7509 1561.36 49.9314 Q1561.36 61.0714 1555.81 67.4314 Q1550.26 73.7508 1540.54 73.7508 Q1530.77 73.7508 1525.22 67.4314 Q1519.72 61.0714 1519.72 49.9314 Q1519.72 38.7509 1525.22 32.4315 Q1530.77 26.1121 1540.54 26.1121 Z" fill="#000000" fill-rule="nonzero" fill-opacity="1" /><path clip-path="url(#clip460)" d="M1573.71 9.54393 L1581.17 9.54393 L1581.17 72.576 L1573.71 72.576 L1573.71 9.54393 Z" fill="#000000" fill-rule="nonzero" fill-opacity="1" /><path clip-path="url(#clip460)" d="M1595.99 54.671 L1595.99 27.2059 L1603.45 27.2059 L1603.45 54.3874 Q1603.45 60.8284 1605.96 64.0691 Q1608.47 67.2693 1613.49 67.2693 Q1619.53 67.2693 1623.01 63.421 Q1626.54 59.5726 1626.54 52.9291 L1626.54 27.2059 L1633.99 27.2059 L1633.99 72.576 L1626.54 72.576 L1626.54 65.6084 Q1623.82 69.7404 1620.22 71.7658 Q1616.65 73.7508 1611.91 73.7508 Q1604.1 73.7508 1600.04 68.8897 Q1595.99 64.0286 1595.99 54.671 M1614.75 26.1121 L1614.75 26.1121 Z" fill="#000000" fill-rule="nonzero" fill-opacity="1" /><path clip-path="url(#clip460)" d="M1681.91 49.9314 Q1681.91 41.7081 1678.51 37.0496 Q1675.15 32.3505 1669.23 32.3505 Q1663.32 32.3505 1659.92 37.0496 Q1656.56 41.7081 1656.56 49.9314 Q1656.56 58.1548 1659.92 62.8538 Q1663.32 67.5124 1669.23 67.5124 Q1675.15 67.5124 1678.51 62.8538 Q1681.91 58.1548 1681.91 49.9314 M1656.56 34.0924 Q1658.9 30.0415 1662.47 28.0971 Q1666.07 26.1121 1671.06 26.1121 Q1679.32 26.1121 1684.47 32.6746 Q1689.65 39.2371 1689.65 49.9314 Q1689.65 60.6258 1684.47 67.1883 Q1679.32 73.7508 1671.06 73.7508 Q1666.07 73.7508 1662.47 71.8063 Q1658.9 69.8214 1656.56 65.7705 L1656.56 72.576 L1649.06 72.576 L1649.06 9.54393 L1656.56 9.54393 L1656.56 34.0924 Z" fill="#000000" fill-rule="nonzero" fill-opacity="1" /><path clip-path="url(#clip460)" d="M1702.01 9.54393 L1709.46 9.54393 L1709.46 72.576 L1702.01 72.576 L1702.01 9.54393 Z" fill="#000000" fill-rule="nonzero" fill-opacity="1" /><path clip-path="url(#clip460)" d="M1763.86 48.0275 L1763.86 51.6733 L1729.59 51.6733 Q1730.08 59.3701 1734.21 63.421 Q1738.38 67.4314 1745.8 67.4314 Q1750.09 67.4314 1754.1 66.3781 Q1758.15 65.3249 1762.12 63.2184 L1762.12 70.267 Q1758.11 71.9684 1753.9 72.8596 Q1749.69 73.7508 1745.35 73.7508 Q1734.49 73.7508 1728.13 67.4314 Q1721.82 61.1119 1721.82 50.3365 Q1721.82 39.1965 1727.81 32.6746 Q1733.85 26.1121 1744.05 26.1121 Q1753.21 26.1121 1758.52 32.0264 Q1763.86 37.9003 1763.86 48.0275 M1756.41 45.84 Q1756.33 39.7232 1752.97 36.0774 Q1749.64 32.4315 1744.14 32.4315 Q1737.9 32.4315 1734.13 35.9558 Q1730.4 39.4801 1729.84 45.8805 L1756.41 45.84 Z" fill="#000000" fill-rule="nonzero" fill-opacity="1" /><path clip-path="url(#clip460)" d="M1805.02 28.5427 L1805.02 35.5912 Q1801.86 33.9709 1798.46 33.1607 Q1795.06 32.3505 1791.41 32.3505 Q1785.86 32.3505 1783.06 34.0519 Q1780.31 35.7533 1780.31 39.156 Q1780.31 41.7486 1782.3 43.2475 Q1784.28 44.7058 1790.28 46.0426 L1792.83 46.6097 Q1800.77 48.3111 1804.09 51.4303 Q1807.45 54.509 1807.45 60.0587 Q1807.45 66.3781 1802.43 70.0644 Q1797.45 73.7508 1788.7 73.7508 Q1785.05 73.7508 1781.08 73.0216 Q1777.15 72.3329 1772.78 70.9151 L1772.78 63.2184 Q1776.91 65.3654 1780.92 66.4591 Q1784.93 67.5124 1788.86 67.5124 Q1794.12 67.5124 1796.96 65.73 Q1799.8 63.9071 1799.8 60.6258 Q1799.8 57.5877 1797.73 55.9673 Q1795.7 54.3469 1788.78 52.8481 L1786.18 52.2405 Q1779.26 50.7821 1776.18 47.7845 Q1773.1 44.7463 1773.1 39.4801 Q1773.1 33.0797 1777.64 29.5959 Q1782.17 26.1121 1790.52 26.1121 Q1794.65 26.1121 1798.3 26.7198 Q1801.94 27.3274 1805.02 28.5427 Z" fill="#000000" fill-rule="nonzero" fill-opacity="1" /><polyline clip-path="url(#clip462)" style="stroke:#009af9; stroke-linecap:round; stroke-linejoin:round; stroke-width:4; stroke-opacity:1; fill:none" points="263.091,1386.4 265.122,1323.08 267.153,1297.37 269.184,1277.85 271.215,1261.54 273.246,1247.27 275.276,1234.45 277.307,1222.73 279.338,1211.89 281.369,1201.75 283.4,1192.22 285.431,1183.19 287.461,1174.6 289.492,1166.4 291.523,1158.54 293.554,1150.99 295.585,1143.71 297.616,1136.68 299.646,1129.89 301.677,1123.3 303.708,1116.9 305.739,1110.69 307.77,1104.64 309.801,1098.74 311.831,1093 313.862,1087.38 315.893,1081.9 317.924,1076.53 319.955,1071.28 321.986,1066.14 324.016,1061.1 326.047,1056.16 328.078,1051.31 330.109,1046.55 332.14,1041.87 334.171,1037.27 336.201,1032.75 338.232,1028.31 340.263,1023.93 342.294,1019.63 344.325,1015.39 346.356,1011.21 348.386,1007.09 350.417,1003.03 352.448,999.029 354.479,995.082 356.51,991.187 358.541,987.343 360.571,983.549 362.602,979.803 364.633,976.103 366.664,972.449 368.695,968.838 370.726,965.269 372.756,961.742 374.787,958.255 376.818,954.807 378.849,951.397 380.88,948.024 382.911,944.687 384.941,941.385 386.972,938.117 389.003,934.883 391.034,931.681 393.065,928.511 395.096,925.373 397.126,922.264 399.157,919.185 401.188,916.135 403.219,913.114 405.25,910.12 407.281,907.153 409.311,904.213 411.342,901.299 413.373,898.41 415.404,895.546 417.435,892.707 419.465,889.892 421.496,887.1 423.527,884.331 425.558,881.585 427.589,878.861 429.62,876.158 431.65,873.477 433.681,870.817 435.712,868.178 437.743,865.559 439.774,862.96 441.805,860.38 443.835,857.819 445.866,855.278 447.897,852.754 449.928,850.249 451.959,847.763 453.99,845.293 456.02,842.841 458.051,840.407 460.082,837.989 462.113,835.587 464.144,833.202 466.175,830.833 468.205,828.48 470.236,826.142 472.267,823.82 474.298,821.513 476.329,819.22 478.36,816.943 480.39,814.68 482.421,812.431 484.452,810.196 486.483,807.975 488.514,805.768 490.545,803.575 492.575,801.394 494.606,799.227 496.637,797.073 498.668,794.932 500.699,792.803 502.73,790.686 504.76,788.583 506.791,786.491 508.822,784.411 510.853,782.343 512.884,780.287 514.915,778.242 516.945,776.209 518.976,774.187 521.007,772.176 523.038,770.176 525.069,768.187 527.1,766.209 529.13,764.241 531.161,762.284 533.192,760.338 535.223,758.401 537.254,756.475 539.285,754.559 541.315,752.653 543.346,750.756 545.377,748.869 547.408,746.992 549.439,745.125 551.47,743.266 553.5,741.417 555.531,739.578 557.562,737.747 559.593,735.925 561.624,734.113 563.655,732.309 565.685,730.514 567.716,728.727 569.747,726.949 571.778,725.18 573.809,723.419 575.839,721.666 577.87,719.921 579.901,718.185 581.932,716.456 583.963,714.736 585.994,713.023 588.024,711.319 590.055,709.622 592.086,707.933 594.117,706.251 596.148,704.577 598.179,702.91 600.209,701.251 602.24,699.599 604.271,697.955 606.302,696.317 608.333,694.687 610.364,693.064 612.394,691.448 614.425,689.838 616.456,688.236 618.487,686.64 620.518,685.052 622.549,683.47 624.579,681.894 626.61,680.325 628.641,678.763 630.672,677.207 632.703,675.658 634.734,674.115 636.764,672.578 638.795,671.048 640.826,669.524 642.857,668.006 644.888,666.494 646.919,664.988 648.949,663.488 650.98,661.994 653.011,660.507 655.042,659.025 657.073,657.548 659.104,656.078 661.134,654.613 663.165,653.154 665.196,651.701 667.227,650.253 669.258,648.811 671.289,647.375 673.319,645.943 675.35,644.518 677.381,643.097 679.412,641.682 681.443,640.273 683.474,638.868 685.504,637.469 687.535,636.075 689.566,634.687 691.597,633.303 693.628,631.925 695.659,630.551 697.689,629.183 699.72,627.819 701.751,626.461 703.782,625.107 705.813,623.758 707.844,622.414 709.874,621.075 711.905,619.741 713.936,618.411 715.967,617.086 717.998,615.766 720.029,614.451 722.059,613.14 724.09,611.833 726.121,610.532 728.152,609.234 730.183,607.942 732.214,606.653 734.244,605.369 736.275,604.09 738.306,602.815 740.337,601.544 742.368,600.278 744.398,599.015 746.429,597.758 748.46,596.504 750.491,595.254 752.522,594.009 754.553,592.768 756.583,591.531 758.614,590.298 760.645,589.069 762.676,587.845 764.707,586.624 766.738,585.407 768.768,584.194 770.799,582.986 772.83,581.781 774.861,580.58 776.892,579.383 778.923,578.189 780.953,577 782.984,575.815 785.015,574.633 787.046,573.455 789.077,572.28 791.108,571.11 793.138,569.943 795.169,568.78 797.2,567.62 799.231,566.464 801.262,565.312 803.293,564.163 805.323,563.018 807.354,561.877 809.385,560.739 811.416,559.604 813.447,558.473 815.478,557.346 817.508,556.222 819.539,555.101 821.57,553.984 823.601,552.87 825.632,551.759 827.663,550.652 829.693,549.548 831.724,548.448 833.755,547.351 835.786,546.257 837.817,545.166 839.848,544.079 841.878,542.995 843.909,541.914 845.94,540.836 847.971,539.762 850.002,538.69 852.033,537.622 854.063,536.557 856.094,535.495 858.125,534.436 860.156,533.38 862.187,532.328 864.218,531.278 866.248,530.231 868.279,529.188 870.31,528.147 872.341,527.109 874.372,526.075 876.403,525.043 878.433,524.014 880.464,522.988 882.495,521.965 884.526,520.945 886.557,519.928 888.588,518.914 890.618,517.902 892.649,516.894 894.68,515.888 896.711,514.885 898.742,513.885 900.772,512.887 902.803,511.893 904.834,510.901 906.865,509.912 908.896,508.926 910.927,507.942 912.957,506.961 914.988,505.983 917.019,505.007 919.05,504.034 921.081,503.064 923.112,502.096 925.142,501.131 927.173,500.169 929.204,499.209 931.235,498.252 933.266,497.297 935.297,496.345 937.327,495.396 939.358,494.449 941.389,493.504 943.42,492.562 945.451,491.623 947.482,490.686 949.512,489.752 951.543,488.82 953.574,487.89 955.605,486.963 957.636,486.039 959.667,485.117 961.697,484.197 963.728,483.28 965.759,482.365 967.79,481.452 969.821,480.542 971.852,479.634 973.882,478.729 975.913,477.826 977.944,476.925 979.975,476.027 982.006,475.131 984.037,474.237 986.067,473.345 988.098,472.456 990.129,471.569 992.16,470.684 994.191,469.802 996.222,468.922 998.252,468.044 1000.28,467.168 1002.31,466.295 1004.34,465.423 1006.38,464.554 1008.41,463.687 1010.44,462.823 1012.47,461.96 1014.5,461.1 1016.53,460.241 1018.56,459.385 1020.59,458.531 1022.62,457.68 1024.65,456.83 1026.68,455.982 1028.71,455.137 1030.75,454.293 1032.78,453.452 1034.81,452.613 1036.84,451.776 1038.87,450.94 1040.9,450.107 1042.93,449.276 1044.96,448.447 1046.99,447.62 1049.02,446.795 1051.05,445.972 1053.08,445.151 1055.12,444.332 1057.15,443.515 1059.18,442.7 1061.21,441.887 1063.24,441.076 1065.27,440.267 1067.3,439.46 1069.33,438.655 1071.36,437.852 1073.39,437.05 1075.42,436.251 1077.45,435.453 1079.49,434.658 1081.52,433.864 1083.55,433.072 1085.58,432.282 1087.61,431.494 1089.64,430.708 1091.67,429.923 1093.7,429.141 1095.73,428.36 1097.76,427.581 1099.79,426.804 1101.82,426.029 1103.86,425.256 1105.89,424.484 1107.92,423.714 1109.95,422.947 1111.98,422.18 1114.01,421.416 1116.04,420.653 1118.07,419.893 1120.1,419.134 1122.13,418.376 1124.16,417.621 1126.19,416.867 1128.23,416.115 1130.26,415.364 1132.29,414.616 1134.32,413.869 1136.35,413.124 1138.38,412.38 1140.41,411.639 1142.44,410.898 1144.47,410.16 1146.5,409.423 1148.53,408.688 1150.56,407.955 1152.6,407.223 1154.63,406.493 1156.66,405.765 1158.69,405.038 1160.72,404.313 1162.75,403.59 1164.78,402.868 1166.81,402.148 1168.84,401.429 1170.87,400.712 1172.9,399.997 1174.93,399.283 1176.97,398.571 1179,397.861 1181.03,397.152 1183.06,396.444 1185.09,395.738 1187.12,395.034 1189.15,394.331 1191.18,393.63 1193.21,392.931 1195.24,392.233 1197.27,391.536 1199.3,390.841 1201.34,390.148 1203.37,389.456 1205.4,388.766 1207.43,388.077 1209.46,387.39 1211.49,386.704 1213.52,386.02 1215.55,385.337 1217.58,384.656 1219.61,383.976 1221.64,383.298 1223.67,382.621 1225.71,381.945 1227.74,381.271 1229.77,380.599 1231.8,379.928 1233.83,379.258 1235.86,378.59 1237.89,377.924 1239.92,377.259 1241.95,376.595 1243.98,375.933 1246.01,375.272 1248.04,374.612 1250.08,373.954 1252.11,373.297 1254.14,372.642 1256.17,371.988 1258.2,371.336 1260.23,370.685 1262.26,370.035 1264.29,369.387 1266.32,368.74 1268.35,368.095 1270.38,367.451 1272.41,366.808 1274.45,366.167 1276.48,365.527 1278.51,364.888 1280.54,364.251 1282.57,363.615 1284.6,362.98 1286.63,362.347 1288.66,361.715 1290.69,361.084 1292.72,360.455 1294.75,359.827 1296.78,359.2 1298.82,358.575 1300.85,357.951 1302.88,357.328 1304.91,356.707 1306.94,356.087 1308.97,355.468 1311,354.851 1313.03,354.234 1315.06,353.619 1317.09,353.006 1319.12,352.393 1321.15,351.782 1323.19,351.172 1325.22,350.564 1327.25,349.957 1329.28,349.35 1331.31,348.746 1333.34,348.142 1335.37,347.54 1337.4,346.939 1339.43,346.339 1341.46,345.74 1343.49,345.143 1345.52,344.547 1347.56,343.952 1349.59,343.358 1351.62,342.766 1353.65,342.175 1355.68,341.585 1357.71,340.996 1359.74,340.408 1361.77,339.822 1363.8,339.236 1365.83,338.652 1367.86,338.07 1369.89,337.488 1371.93,336.908 1373.96,336.328 1375.99,335.75 1378.02,335.173 1380.05,334.597 1382.08,334.023 1384.11,333.449 1386.14,332.877 1388.17,332.306 1390.2,331.736 1392.23,331.167 1394.26,330.599 1396.3,330.033 1398.33,329.468 1400.36,328.903 1402.39,328.34 1404.42,327.778 1406.45,327.217 1408.48,326.658 1410.51,326.099 1412.54,325.541 1414.57,324.985 1416.6,324.43 1418.63,323.876 1420.67,323.323 1422.7,322.771 1424.73,322.22 1426.76,321.67 1428.79,321.121 1430.82,320.574 1432.85,320.027 1434.88,319.482 1436.91,318.938 1438.94,318.394 1440.97,317.852 1443,317.311 1445.04,316.771 1447.07,316.232 1449.1,315.694 1451.13,315.158 1453.16,314.622 1455.19,314.087 1457.22,313.554 1459.25,313.021 1461.28,312.489 1463.31,311.959 1465.34,311.429 1467.37,310.901 1469.41,310.374 1471.44,309.847 1473.47,309.322 1475.5,308.798 1477.53,308.274 1479.56,307.752 1481.59,307.231 1483.62,306.711 1485.65,306.192 1487.68,305.673 1489.71,305.156 1491.74,304.64 1493.78,304.125 1495.81,303.611 1497.84,303.098 1499.87,302.586 1501.9,302.074 1503.93,301.564 1505.96,301.055 1507.99,300.547 1510.02,300.04 1512.05,299.534 1514.08,299.028 1516.11,298.524 1518.15,298.021 1520.18,297.518 1522.21,297.017 1524.24,296.517 1526.27,296.017 1528.3,295.519 1530.33,295.021 1532.36,294.525 1534.39,294.029 1536.42,293.535 1538.45,293.041 1540.48,292.548 1542.52,292.057 1544.55,291.566 1546.58,291.076 1548.61,290.587 1550.64,290.099 1552.67,289.612 1554.7,289.126 1556.73,288.64 1558.76,288.156 1560.79,287.673 1562.82,287.19 1564.85,286.709 1566.89,286.228 1568.92,285.749 1570.95,285.27 1572.98,284.792 1575.01,284.315 1577.04,283.839 1579.07,283.364 1581.1,282.889 1583.13,282.416 1585.16,281.944 1587.19,281.472 1589.22,281.001 1591.26,280.532 1593.29,280.063 1595.32,279.595 1597.35,279.128 1599.38,278.661 1601.41,278.196 1603.44,277.732 1605.47,277.268 1607.5,276.805 1609.53,276.344 1611.56,275.883 1613.59,275.422 1615.63,274.963 1617.66,274.505 1619.69,274.047 1621.72,273.591 1623.75,273.135 1625.78,272.68 1627.81,272.226 1629.84,271.773 1631.87,271.32 1633.9,270.869 1635.93,270.418 1637.96,269.968 1640,269.519 1642.03,269.071 1644.06,268.624 1646.09,268.177 1648.12,267.731 1650.15,267.287 1652.18,266.843 1654.21,266.399 1656.24,265.957 1658.27,265.516 1660.3,265.075 1662.33,264.635 1664.37,264.196 1666.4,263.758 1668.43,263.32 1670.46,262.884 1672.49,262.448 1674.52,262.013 1676.55,261.579 1678.58,261.145 1680.61,260.713 1682.64,260.281 1684.67,259.85 1686.7,259.42 1688.74,258.99 1690.77,258.562 1692.8,258.134 1694.83,257.707 1696.86,257.281 1698.89,256.855 1700.92,256.431 1702.95,256.007 1704.98,255.584 1707.01,255.162 1709.04,254.74 1711.07,254.319 1713.1,253.899 1715.14,253.48 1717.17,253.062 1719.2,252.644 1721.23,252.227 1723.26,251.811 1725.29,251.396 1727.32,250.981 1729.35,250.567 1731.38,250.154 1733.41,249.742 1735.44,249.33 1737.47,248.92 1739.51,248.509 1741.54,248.1 1743.57,247.692 1745.6,247.284 1747.63,246.877 1749.66,246.47 1751.69,246.065 1753.72,245.66 1755.75,245.256 1757.78,244.853 1759.81,244.45 1761.84,244.048 1763.88,243.647 1765.91,243.247 1767.94,242.847 1769.97,242.448 1772,242.05 1774.03,241.652 1776.06,241.255 1778.09,240.859 1780.12,240.464 1782.15,240.069 1784.18,239.675 1786.21,239.282 1788.25,238.89 1790.28,238.498 1792.31,238.107 1794.34,237.717 1796.37,237.327 1798.4,236.938 1800.43,236.55 1802.46,236.162 1804.49,235.776 1806.52,235.389 1808.55,235.004 1810.58,234.619 1812.62,234.235 1814.65,233.852 1816.68,233.469 1818.71,233.087 1820.74,232.706 1822.77,232.325 1824.8,231.946 1826.83,231.566 1828.86,231.188 1830.89,230.81 1832.92,230.433 1834.95,230.056 1836.99,229.681 1839.02,229.306 1841.05,228.931 1843.08,228.557 1845.11,228.184 1847.14,227.812 1849.17,227.44 1851.2,227.069 1853.23,226.699 1855.26,226.329 1857.29,225.96 1859.32,225.591 1861.36,225.224 1863.39,224.856 1865.42,224.49 1867.45,224.124 1869.48,223.759 1871.51,223.395 1873.54,223.031 1875.57,222.668 1877.6,222.305 1879.63,221.943 1881.66,221.582 1883.69,221.221 1885.73,220.862 1887.76,220.502 1889.79,220.144 1891.82,219.786 1893.85,219.428 1895.88,219.071 1897.91,218.715 1899.94,218.36 1901.97,218.005 1904,217.651 1906.03,217.297 1908.06,216.944 1910.1,216.592 1912.13,216.24 1914.16,215.889 1916.19,215.539 1918.22,215.189 1920.25,214.84 1922.28,214.492 1924.31,214.144 1926.34,213.796 1928.37,213.45 1930.4,213.104 1932.43,212.758 1934.47,212.413 1936.5,212.069 1938.53,211.725 1940.56,211.382 1942.59,211.04 1944.62,210.698 1946.65,210.357 1948.68,210.016 1950.71,209.676 1952.74,209.337 1954.77,208.998 1956.8,208.66 1958.84,208.323 1960.87,207.986 1962.9,207.649 1964.93,207.313 1966.96,206.978 1968.99,206.644 1971.02,206.31 1973.05,205.976 1975.08,205.643 1977.11,205.311 1979.14,204.98 1981.17,204.648 1983.21,204.318 1985.24,203.988 1987.27,203.659 1989.3,203.33 1991.33,203.002 1993.36,202.674 1995.39,202.347 1997.42,202.021 1999.45,201.695 2001.48,201.37 2003.51,201.045 2005.54,200.721 2007.58,200.398 2009.61,200.075 2011.64,199.752 2013.67,199.43 2015.7,199.109 2017.73,198.788 2019.76,198.468 2021.79,198.149 2023.82,197.83 2025.85,197.511 2027.88,197.193 2029.91,196.876 2031.95,196.559 2033.98,196.243 2036.01,195.927 2038.04,195.612 2040.07,195.298 2042.1,194.984 2044.13,194.67 2046.16,194.357 2048.19,194.045 2050.22,193.733 2052.25,193.422 2054.28,193.111 2056.32,192.801 2058.35,192.491 2060.38,192.182 2062.41,191.874 2064.44,191.566 2066.47,191.258 2068.5,190.951 2070.53,190.645 2072.56,190.339 2074.59,190.034 2076.62,189.729 2078.65,189.425 2080.69,189.121 2082.72,188.818 2084.75,188.515 2086.78,188.213 2088.81,187.912 2090.84,187.611 2092.87,187.31 2094.9,187.01 2096.93,186.711 2098.96,186.412 2100.99,186.113 2103.02,185.815 2105.06,185.518 2107.09,185.221 2109.12,184.925 2111.15,184.629 2113.18,184.334 2115.21,184.039 2117.24,183.744 2119.27,183.451 2121.3,183.157 2123.33,182.865 2125.36,182.572 2127.39,182.281 2129.43,181.989 2131.46,181.699 2133.49,181.408 2135.52,181.119 2137.55,180.83 2139.58,180.541 2141.61,180.253 2143.64,179.965 2145.67,179.678 2147.7,179.391 2149.73,179.105 2151.76,178.819 2153.8,178.534 2155.83,178.249 2157.86,177.965 2159.89,177.681 2161.92,177.398 2163.95,177.115 2165.98,176.833 2168.01,176.551 2170.04,176.27 2172.07,175.989 2174.1,175.709 2176.13,175.429 2178.17,175.15 2180.2,174.871 2182.23,174.593 2184.26,174.315 2186.29,174.037 2188.32,173.761 2190.35,173.484 2192.38,173.208 2194.41,172.933 2196.44,172.658 2198.47,172.383 2200.5,172.109 2202.54,171.836 2204.57,171.563 2206.6,171.29 2208.63,171.018 2210.66,170.746 2212.69,170.475 2214.72,170.204 2216.75,169.934 2218.78,169.664 2220.81,169.395 2222.84,169.126 2224.87,168.858 2226.91,168.59 2228.94,168.322 2230.97,168.055 2233,167.789 2235.03,167.523 2237.06,167.257 2239.09,166.992 2241.12,166.727 2243.15,166.463 2245.18,166.199 2247.21,165.936 2249.24,165.673 2251.28,165.411 2253.31,165.149 2255.34,164.887 2257.37,164.626 2259.4,164.365 2261.43,164.105 2263.46,163.846 2265.49,163.586 2267.52,163.327 2269.55,163.069 2271.58,162.811 2273.61,162.554 2275.65,162.297 2277.68,162.04 2279.71,161.784 2281.74,161.528 2283.77,161.273 2285.8,161.018 2287.83,160.764 2289.86,160.51 2291.89,160.256 "/>
</svg>
