<?xml version="1.0" encoding="utf-8"?>
<svg xmlns="http://www.w3.org/2000/svg" xmlns:xlink="http://www.w3.org/1999/xlink" width="600" height="400" viewBox="0 0 2400 1600">
<defs>
  <clipPath id="clip780">
    <rect x="0" y="0" width="2400" height="1600"/>
  </clipPath>
</defs>
<path clip-path="url(#clip780)" d="
M0 1600 L2400 1600 L2400 0 L0 0  Z
  " fill="#ffffff" fill-rule="evenodd" fill-opacity="1"/>
<defs>
  <clipPath id="clip781">
    <rect x="480" y="0" width="1681" height="1600"/>
  </clipPath>
</defs>
<path clip-path="url(#clip780)" d="
M203.964 1423.18 L2352.76 1423.18 L2352.76 123.472 L203.964 123.472  Z
  " fill="#ffffff" fill-rule="evenodd" fill-opacity="1"/>
<defs>
  <clipPath id="clip782">
    <rect x="203" y="123" width="2150" height="1301"/>
  </clipPath>
</defs>
<polyline clip-path="url(#clip782)" style="stroke:#000000; stroke-linecap:butt; stroke-linejoin:round; stroke-width:2; stroke-opacity:0.1; fill:none" points="
  220.59,1423.18 220.59,123.472 
  "/>
<polyline clip-path="url(#clip782)" style="stroke:#000000; stroke-linecap:butt; stroke-linejoin:round; stroke-width:2; stroke-opacity:0.1; fill:none" points="
  783.043,1423.18 783.043,123.472 
  "/>
<polyline clip-path="url(#clip782)" style="stroke:#000000; stroke-linecap:butt; stroke-linejoin:round; stroke-width:2; stroke-opacity:0.1; fill:none" points="
  1345.5,1423.18 1345.5,123.472 
  "/>
<polyline clip-path="url(#clip782)" style="stroke:#000000; stroke-linecap:butt; stroke-linejoin:round; stroke-width:2; stroke-opacity:0.1; fill:none" points="
  1907.95,1423.18 1907.95,123.472 
  "/>
<polyline clip-path="url(#clip780)" style="stroke:#000000; stroke-linecap:butt; stroke-linejoin:round; stroke-width:4; stroke-opacity:1; fill:none" points="
  203.964,1423.18 2352.76,1423.18 
  "/>
<polyline clip-path="url(#clip780)" style="stroke:#000000; stroke-linecap:butt; stroke-linejoin:round; stroke-width:4; stroke-opacity:1; fill:none" points="
  220.59,1423.18 220.59,1407.58 
  "/>
<polyline clip-path="url(#clip780)" style="stroke:#000000; stroke-linecap:butt; stroke-linejoin:round; stroke-width:4; stroke-opacity:1; fill:none" points="
  783.043,1423.18 783.043,1407.58 
  "/>
<polyline clip-path="url(#clip780)" style="stroke:#000000; stroke-linecap:butt; stroke-linejoin:round; stroke-width:4; stroke-opacity:1; fill:none" points="
  1345.5,1423.18 1345.5,1407.58 
  "/>
<polyline clip-path="url(#clip780)" style="stroke:#000000; stroke-linecap:butt; stroke-linejoin:round; stroke-width:4; stroke-opacity:1; fill:none" points="
  1907.95,1423.18 1907.95,1407.58 
  "/>
<path clip-path="url(#clip780)" d="M92.3844 1479.92 L108.704 1479.92 L108.704 1483.85 L86.7594 1483.85 L86.7594 1479.92 Q89.4214 1477.16 94.0048 1472.53 Q98.6112 1467.88 99.7918 1466.54 Q102.037 1464.01 102.917 1462.28 Q103.82 1460.52 103.82 1458.83 Q103.82 1456.07 101.875 1454.34 Q99.9538 1452.6 96.852 1452.6 Q94.6529 1452.6 92.1992 1453.37 Q89.7687 1454.13 86.9909 1455.68 L86.9909 1450.96 Q89.815 1449.82 92.2687 1449.25 Q94.7223 1448.67 96.7594 1448.67 Q102.13 1448.67 105.324 1451.35 Q108.519 1454.04 108.519 1458.53 Q108.519 1460.66 107.708 1462.58 Q106.921 1464.48 104.815 1467.07 Q104.236 1467.74 101.134 1470.96 Q98.0325 1474.15 92.3844 1479.92 Z" fill="#000000" fill-rule="evenodd" fill-opacity="1" /><path clip-path="url(#clip780)" d="M128.518 1452.37 Q124.907 1452.37 123.079 1455.94 Q121.273 1459.48 121.273 1466.61 Q121.273 1473.71 123.079 1477.28 Q124.907 1480.82 128.518 1480.82 Q132.153 1480.82 133.958 1477.28 Q135.787 1473.71 135.787 1466.61 Q135.787 1459.48 133.958 1455.94 Q132.153 1452.37 128.518 1452.37 M128.518 1448.67 Q134.329 1448.67 137.384 1453.27 Q140.463 1457.86 140.463 1466.61 Q140.463 1475.33 137.384 1479.94 Q134.329 1484.52 128.518 1484.52 Q122.708 1484.52 119.63 1479.94 Q116.574 1475.33 116.574 1466.61 Q116.574 1457.86 119.63 1453.27 Q122.708 1448.67 128.518 1448.67 Z" fill="#000000" fill-rule="evenodd" fill-opacity="1" /><path clip-path="url(#clip780)" d="M158.68 1452.37 Q155.069 1452.37 153.241 1455.94 Q151.435 1459.48 151.435 1466.61 Q151.435 1473.71 153.241 1477.28 Q155.069 1480.82 158.68 1480.82 Q162.315 1480.82 164.12 1477.28 Q165.949 1473.71 165.949 1466.61 Q165.949 1459.48 164.12 1455.94 Q162.315 1452.37 158.68 1452.37 M158.68 1448.67 Q164.49 1448.67 167.546 1453.27 Q170.625 1457.86 170.625 1466.61 Q170.625 1475.33 167.546 1479.94 Q164.49 1484.52 158.68 1484.52 Q152.87 1484.52 149.791 1479.94 Q146.736 1475.33 146.736 1466.61 Q146.736 1457.86 149.791 1453.27 Q152.87 1448.67 158.68 1448.67 Z" fill="#000000" fill-rule="evenodd" fill-opacity="1" /><path clip-path="url(#clip780)" d="M179.652 1479.92 L187.291 1479.92 L187.291 1453.55 L178.981 1455.22 L178.981 1450.96 L187.245 1449.29 L191.921 1449.29 L191.921 1479.92 L199.56 1479.92 L199.56 1483.85 L179.652 1483.85 L179.652 1479.92 Z" fill="#000000" fill-rule="evenodd" fill-opacity="1" /><path clip-path="url(#clip780)" d="M206.25 1468.97 L218.726 1468.97 L218.726 1472.76 L206.25 1472.76 L206.25 1468.97 Z" fill="#000000" fill-rule="evenodd" fill-opacity="1" /><path clip-path="url(#clip780)" d="M236.11 1452.37 Q232.499 1452.37 230.671 1455.94 Q228.865 1459.48 228.865 1466.61 Q228.865 1473.71 230.671 1477.28 Q232.499 1480.82 236.11 1480.82 Q239.745 1480.82 241.55 1477.28 Q243.379 1473.71 243.379 1466.61 Q243.379 1459.48 241.55 1455.94 Q239.745 1452.37 236.11 1452.37 M236.11 1448.67 Q241.921 1448.67 244.976 1453.27 Q248.055 1457.86 248.055 1466.61 Q248.055 1475.33 244.976 1479.94 Q241.921 1484.52 236.11 1484.52 Q230.3 1484.52 227.222 1479.94 Q224.166 1475.33 224.166 1466.61 Q224.166 1457.86 227.222 1453.27 Q230.3 1448.67 236.11 1448.67 Z" fill="#000000" fill-rule="evenodd" fill-opacity="1" /><path clip-path="url(#clip780)" d="M257.083 1479.92 L264.721 1479.92 L264.721 1453.55 L256.411 1455.22 L256.411 1450.96 L264.675 1449.29 L269.351 1449.29 L269.351 1479.92 L276.99 1479.92 L276.99 1483.85 L257.083 1483.85 L257.083 1479.92 Z" fill="#000000" fill-rule="evenodd" fill-opacity="1" /><path clip-path="url(#clip780)" d="M283.68 1468.97 L296.156 1468.97 L296.156 1472.76 L283.68 1472.76 L283.68 1468.97 Z" fill="#000000" fill-rule="evenodd" fill-opacity="1" /><path clip-path="url(#clip780)" d="M313.541 1452.37 Q309.93 1452.37 308.101 1455.94 Q306.295 1459.48 306.295 1466.61 Q306.295 1473.71 308.101 1477.28 Q309.93 1480.82 313.541 1480.82 Q317.175 1480.82 318.98 1477.28 Q320.809 1473.71 320.809 1466.61 Q320.809 1459.48 318.98 1455.94 Q317.175 1452.37 313.541 1452.37 M313.541 1448.67 Q319.351 1448.67 322.406 1453.27 Q325.485 1457.86 325.485 1466.61 Q325.485 1475.33 322.406 1479.94 Q319.351 1484.52 313.541 1484.52 Q307.73 1484.52 304.652 1479.94 Q301.596 1475.33 301.596 1466.61 Q301.596 1457.86 304.652 1453.27 Q307.73 1448.67 313.541 1448.67 Z" fill="#000000" fill-rule="evenodd" fill-opacity="1" /><path clip-path="url(#clip780)" d="M334.513 1479.92 L342.152 1479.92 L342.152 1453.55 L333.841 1455.22 L333.841 1450.96 L342.105 1449.29 L346.781 1449.29 L346.781 1479.92 L354.42 1479.92 L354.42 1483.85 L334.513 1483.85 L334.513 1479.92 Z" fill="#000000" fill-rule="evenodd" fill-opacity="1" /><path clip-path="url(#clip780)" d="M654.838 1479.92 L671.157 1479.92 L671.157 1483.85 L649.213 1483.85 L649.213 1479.92 Q651.875 1477.16 656.458 1472.53 Q661.065 1467.88 662.245 1466.54 Q664.49 1464.01 665.37 1462.28 Q666.273 1460.52 666.273 1458.83 Q666.273 1456.07 664.328 1454.34 Q662.407 1452.6 659.305 1452.6 Q657.106 1452.6 654.653 1453.37 Q652.222 1454.13 649.444 1455.68 L649.444 1450.96 Q652.268 1449.82 654.722 1449.25 Q657.176 1448.67 659.213 1448.67 Q664.583 1448.67 667.777 1451.35 Q670.972 1454.04 670.972 1458.53 Q670.972 1460.66 670.162 1462.58 Q669.375 1464.48 667.268 1467.07 Q666.689 1467.74 663.588 1470.96 Q660.486 1474.15 654.838 1479.92 Z" fill="#000000" fill-rule="evenodd" fill-opacity="1" /><path clip-path="url(#clip780)" d="M690.972 1452.37 Q687.361 1452.37 685.532 1455.94 Q683.726 1459.48 683.726 1466.61 Q683.726 1473.71 685.532 1477.28 Q687.361 1480.82 690.972 1480.82 Q694.606 1480.82 696.412 1477.28 Q698.24 1473.71 698.24 1466.61 Q698.24 1459.48 696.412 1455.94 Q694.606 1452.37 690.972 1452.37 M690.972 1448.67 Q696.782 1448.67 699.837 1453.27 Q702.916 1457.86 702.916 1466.61 Q702.916 1475.33 699.837 1479.94 Q696.782 1484.52 690.972 1484.52 Q685.162 1484.52 682.083 1479.94 Q679.027 1475.33 679.027 1466.61 Q679.027 1457.86 682.083 1453.27 Q685.162 1448.67 690.972 1448.67 Z" fill="#000000" fill-rule="evenodd" fill-opacity="1" /><path clip-path="url(#clip780)" d="M721.134 1452.37 Q717.523 1452.37 715.694 1455.94 Q713.888 1459.48 713.888 1466.61 Q713.888 1473.71 715.694 1477.28 Q717.523 1480.82 721.134 1480.82 Q724.768 1480.82 726.573 1477.28 Q728.402 1473.71 728.402 1466.61 Q728.402 1459.48 726.573 1455.94 Q724.768 1452.37 721.134 1452.37 M721.134 1448.67 Q726.944 1448.67 729.999 1453.27 Q733.078 1457.86 733.078 1466.61 Q733.078 1475.33 729.999 1479.94 Q726.944 1484.52 721.134 1484.52 Q715.323 1484.52 712.245 1479.94 Q709.189 1475.33 709.189 1466.61 Q709.189 1457.86 712.245 1453.27 Q715.323 1448.67 721.134 1448.67 Z" fill="#000000" fill-rule="evenodd" fill-opacity="1" /><path clip-path="url(#clip780)" d="M751.874 1464.71 Q748.726 1464.71 746.874 1466.86 Q745.046 1469.01 745.046 1472.76 Q745.046 1476.49 746.874 1478.67 Q748.726 1480.82 751.874 1480.82 Q755.022 1480.82 756.851 1478.67 Q758.703 1476.49 758.703 1472.76 Q758.703 1469.01 756.851 1466.86 Q755.022 1464.71 751.874 1464.71 M761.157 1450.06 L761.157 1454.31 Q759.397 1453.48 757.592 1453.04 Q755.809 1452.6 754.05 1452.6 Q749.421 1452.6 746.967 1455.73 Q744.536 1458.85 744.189 1465.17 Q745.555 1463.16 747.615 1462.09 Q749.675 1461 752.152 1461 Q757.36 1461 760.37 1464.18 Q763.402 1467.32 763.402 1472.76 Q763.402 1478.09 760.254 1481.31 Q757.106 1484.52 751.874 1484.52 Q745.879 1484.52 742.708 1479.94 Q739.536 1475.33 739.536 1466.61 Q739.536 1458.41 743.425 1453.55 Q747.314 1448.67 753.865 1448.67 Q755.624 1448.67 757.407 1449.01 Q759.212 1449.36 761.157 1450.06 Z" fill="#000000" fill-rule="evenodd" fill-opacity="1" /><path clip-path="url(#clip780)" d="M768.703 1468.97 L781.18 1468.97 L781.18 1472.76 L768.703 1472.76 L768.703 1468.97 Z" fill="#000000" fill-rule="evenodd" fill-opacity="1" /><path clip-path="url(#clip780)" d="M798.564 1452.37 Q794.953 1452.37 793.124 1455.94 Q791.318 1459.48 791.318 1466.61 Q791.318 1473.71 793.124 1477.28 Q794.953 1480.82 798.564 1480.82 Q802.198 1480.82 804.004 1477.28 Q805.832 1473.71 805.832 1466.61 Q805.832 1459.48 804.004 1455.94 Q802.198 1452.37 798.564 1452.37 M798.564 1448.67 Q804.374 1448.67 807.429 1453.27 Q810.508 1457.86 810.508 1466.61 Q810.508 1475.33 807.429 1479.94 Q804.374 1484.52 798.564 1484.52 Q792.754 1484.52 789.675 1479.94 Q786.619 1475.33 786.619 1466.61 Q786.619 1457.86 789.675 1453.27 Q792.754 1448.67 798.564 1448.67 Z" fill="#000000" fill-rule="evenodd" fill-opacity="1" /><path clip-path="url(#clip780)" d="M819.536 1479.92 L827.175 1479.92 L827.175 1453.55 L818.865 1455.22 L818.865 1450.96 L827.128 1449.29 L831.804 1449.29 L831.804 1479.92 L839.443 1479.92 L839.443 1483.85 L819.536 1483.85 L819.536 1479.92 Z" fill="#000000" fill-rule="evenodd" fill-opacity="1" /><path clip-path="url(#clip780)" d="M846.133 1468.97 L858.61 1468.97 L858.61 1472.76 L846.133 1472.76 L846.133 1468.97 Z" fill="#000000" fill-rule="evenodd" fill-opacity="1" /><path clip-path="url(#clip780)" d="M875.994 1452.37 Q872.383 1452.37 870.554 1455.94 Q868.749 1459.48 868.749 1466.61 Q868.749 1473.71 870.554 1477.28 Q872.383 1480.82 875.994 1480.82 Q879.628 1480.82 881.434 1477.28 Q883.262 1473.71 883.262 1466.61 Q883.262 1459.48 881.434 1455.94 Q879.628 1452.37 875.994 1452.37 M875.994 1448.67 Q881.804 1448.67 884.86 1453.27 Q887.938 1457.86 887.938 1466.61 Q887.938 1475.33 884.86 1479.94 Q881.804 1484.52 875.994 1484.52 Q870.184 1484.52 867.105 1479.94 Q864.05 1475.33 864.05 1466.61 Q864.05 1457.86 867.105 1453.27 Q870.184 1448.67 875.994 1448.67 Z" fill="#000000" fill-rule="evenodd" fill-opacity="1" /><path clip-path="url(#clip780)" d="M896.966 1479.92 L904.605 1479.92 L904.605 1453.55 L896.295 1455.22 L896.295 1450.96 L904.559 1449.29 L909.234 1449.29 L909.234 1479.92 L916.873 1479.92 L916.873 1483.85 L896.966 1483.85 L896.966 1479.92 Z" fill="#000000" fill-rule="evenodd" fill-opacity="1" /><path clip-path="url(#clip780)" d="M1217.29 1479.92 L1233.61 1479.92 L1233.61 1483.85 L1211.67 1483.85 L1211.67 1479.92 Q1214.33 1477.16 1218.91 1472.53 Q1223.52 1467.88 1224.7 1466.54 Q1226.94 1464.01 1227.82 1462.28 Q1228.73 1460.52 1228.73 1458.83 Q1228.73 1456.07 1226.78 1454.34 Q1224.86 1452.6 1221.76 1452.6 Q1219.56 1452.6 1217.11 1453.37 Q1214.68 1454.13 1211.9 1455.68 L1211.9 1450.96 Q1214.72 1449.82 1217.18 1449.25 Q1219.63 1448.67 1221.67 1448.67 Q1227.04 1448.67 1230.23 1451.35 Q1233.43 1454.04 1233.43 1458.53 Q1233.43 1460.66 1232.61 1462.58 Q1231.83 1464.48 1229.72 1467.07 Q1229.14 1467.74 1226.04 1470.96 Q1222.94 1474.15 1217.29 1479.92 Z" fill="#000000" fill-rule="evenodd" fill-opacity="1" /><path clip-path="url(#clip780)" d="M1253.43 1452.37 Q1249.81 1452.37 1247.99 1455.94 Q1246.18 1459.48 1246.18 1466.61 Q1246.18 1473.71 1247.99 1477.28 Q1249.81 1480.82 1253.43 1480.82 Q1257.06 1480.82 1258.86 1477.28 Q1260.69 1473.71 1260.69 1466.61 Q1260.69 1459.48 1258.86 1455.94 Q1257.06 1452.37 1253.43 1452.37 M1253.43 1448.67 Q1259.24 1448.67 1262.29 1453.27 Q1265.37 1457.86 1265.37 1466.61 Q1265.37 1475.33 1262.29 1479.94 Q1259.24 1484.52 1253.43 1484.52 Q1247.61 1484.52 1244.54 1479.94 Q1241.48 1475.33 1241.48 1466.61 Q1241.48 1457.86 1244.54 1453.27 Q1247.61 1448.67 1253.43 1448.67 Z" fill="#000000" fill-rule="evenodd" fill-opacity="1" /><path clip-path="url(#clip780)" d="M1274.4 1479.92 L1282.04 1479.92 L1282.04 1453.55 L1273.73 1455.22 L1273.73 1450.96 L1281.99 1449.29 L1286.67 1449.29 L1286.67 1479.92 L1294.3 1479.92 L1294.3 1483.85 L1274.4 1483.85 L1274.4 1479.92 Z" fill="#000000" fill-rule="evenodd" fill-opacity="1" /><path clip-path="url(#clip780)" d="M1304.56 1479.92 L1312.2 1479.92 L1312.2 1453.55 L1303.89 1455.22 L1303.89 1450.96 L1312.15 1449.29 L1316.83 1449.29 L1316.83 1479.92 L1324.47 1479.92 L1324.47 1483.85 L1304.56 1483.85 L1304.56 1479.92 Z" fill="#000000" fill-rule="evenodd" fill-opacity="1" /><path clip-path="url(#clip780)" d="M1331.16 1468.97 L1343.63 1468.97 L1343.63 1472.76 L1331.16 1472.76 L1331.16 1468.97 Z" fill="#000000" fill-rule="evenodd" fill-opacity="1" /><path clip-path="url(#clip780)" d="M1361.02 1452.37 Q1357.41 1452.37 1355.58 1455.94 Q1353.77 1459.48 1353.77 1466.61 Q1353.77 1473.71 1355.58 1477.28 Q1357.41 1480.82 1361.02 1480.82 Q1364.65 1480.82 1366.46 1477.28 Q1368.29 1473.71 1368.29 1466.61 Q1368.29 1459.48 1366.46 1455.94 Q1364.65 1452.37 1361.02 1452.37 M1361.02 1448.67 Q1366.83 1448.67 1369.88 1453.27 Q1372.96 1457.86 1372.96 1466.61 Q1372.96 1475.33 1369.88 1479.94 Q1366.83 1484.52 1361.02 1484.52 Q1355.21 1484.52 1352.13 1479.94 Q1349.07 1475.33 1349.07 1466.61 Q1349.07 1457.86 1352.13 1453.27 Q1355.21 1448.67 1361.02 1448.67 Z" fill="#000000" fill-rule="evenodd" fill-opacity="1" /><path clip-path="url(#clip780)" d="M1381.99 1479.92 L1389.63 1479.92 L1389.63 1453.55 L1381.32 1455.22 L1381.32 1450.96 L1389.58 1449.29 L1394.26 1449.29 L1394.26 1479.92 L1401.9 1479.92 L1401.9 1483.85 L1381.99 1483.85 L1381.99 1479.92 Z" fill="#000000" fill-rule="evenodd" fill-opacity="1" /><path clip-path="url(#clip780)" d="M1408.59 1468.97 L1421.06 1468.97 L1421.06 1472.76 L1408.59 1472.76 L1408.59 1468.97 Z" fill="#000000" fill-rule="evenodd" fill-opacity="1" /><path clip-path="url(#clip780)" d="M1438.45 1452.37 Q1434.84 1452.37 1433.01 1455.94 Q1431.2 1459.48 1431.2 1466.61 Q1431.2 1473.71 1433.01 1477.28 Q1434.84 1480.82 1438.45 1480.82 Q1442.08 1480.82 1443.89 1477.28 Q1445.72 1473.71 1445.72 1466.61 Q1445.72 1459.48 1443.89 1455.94 Q1442.08 1452.37 1438.45 1452.37 M1438.45 1448.67 Q1444.26 1448.67 1447.31 1453.27 Q1450.39 1457.86 1450.39 1466.61 Q1450.39 1475.33 1447.31 1479.94 Q1444.26 1484.52 1438.45 1484.52 Q1432.64 1484.52 1429.56 1479.94 Q1426.5 1475.33 1426.5 1466.61 Q1426.5 1457.86 1429.56 1453.27 Q1432.64 1448.67 1438.45 1448.67 Z" fill="#000000" fill-rule="evenodd" fill-opacity="1" /><path clip-path="url(#clip780)" d="M1459.42 1479.92 L1467.06 1479.92 L1467.06 1453.55 L1458.75 1455.22 L1458.75 1450.96 L1467.01 1449.29 L1471.69 1449.29 L1471.69 1479.92 L1479.33 1479.92 L1479.33 1483.85 L1459.42 1483.85 L1459.42 1479.92 Z" fill="#000000" fill-rule="evenodd" fill-opacity="1" /><path clip-path="url(#clip780)" d="M1779.74 1479.92 L1796.06 1479.92 L1796.06 1483.85 L1774.12 1483.85 L1774.12 1479.92 Q1776.78 1477.16 1781.36 1472.53 Q1785.97 1467.88 1787.15 1466.54 Q1789.4 1464.01 1790.28 1462.28 Q1791.18 1460.52 1791.18 1458.83 Q1791.18 1456.07 1789.23 1454.34 Q1787.31 1452.6 1784.21 1452.6 Q1782.01 1452.6 1779.56 1453.37 Q1777.13 1454.13 1774.35 1455.68 L1774.35 1450.96 Q1777.17 1449.82 1779.63 1449.25 Q1782.08 1448.67 1784.12 1448.67 Q1789.49 1448.67 1792.68 1451.35 Q1795.88 1454.04 1795.88 1458.53 Q1795.88 1460.66 1795.07 1462.58 Q1794.28 1464.48 1792.17 1467.07 Q1791.6 1467.74 1788.49 1470.96 Q1785.39 1474.15 1779.74 1479.92 Z" fill="#000000" fill-rule="evenodd" fill-opacity="1" /><path clip-path="url(#clip780)" d="M1815.88 1452.37 Q1812.27 1452.37 1810.44 1455.94 Q1808.63 1459.48 1808.63 1466.61 Q1808.63 1473.71 1810.44 1477.28 Q1812.27 1480.82 1815.88 1480.82 Q1819.51 1480.82 1821.32 1477.28 Q1823.15 1473.71 1823.15 1466.61 Q1823.15 1459.48 1821.32 1455.94 Q1819.51 1452.37 1815.88 1452.37 M1815.88 1448.67 Q1821.69 1448.67 1824.74 1453.27 Q1827.82 1457.86 1827.82 1466.61 Q1827.82 1475.33 1824.74 1479.94 Q1821.69 1484.52 1815.88 1484.52 Q1810.07 1484.52 1806.99 1479.94 Q1803.93 1475.33 1803.93 1466.61 Q1803.93 1457.86 1806.99 1453.27 Q1810.07 1448.67 1815.88 1448.67 Z" fill="#000000" fill-rule="evenodd" fill-opacity="1" /><path clip-path="url(#clip780)" d="M1836.85 1479.92 L1844.49 1479.92 L1844.49 1453.55 L1836.18 1455.22 L1836.18 1450.96 L1844.44 1449.29 L1849.12 1449.29 L1849.12 1479.92 L1856.76 1479.92 L1856.76 1483.85 L1836.85 1483.85 L1836.85 1479.92 Z" fill="#000000" fill-rule="evenodd" fill-opacity="1" /><path clip-path="url(#clip780)" d="M1876.78 1464.71 Q1873.63 1464.71 1871.78 1466.86 Q1869.95 1469.01 1869.95 1472.76 Q1869.95 1476.49 1871.78 1478.67 Q1873.63 1480.82 1876.78 1480.82 Q1879.93 1480.82 1881.76 1478.67 Q1883.61 1476.49 1883.61 1472.76 Q1883.61 1469.01 1881.76 1466.86 Q1879.93 1464.71 1876.78 1464.71 M1886.06 1450.06 L1886.06 1454.31 Q1884.3 1453.48 1882.5 1453.04 Q1880.72 1452.6 1878.96 1452.6 Q1874.33 1452.6 1871.87 1455.73 Q1869.44 1458.85 1869.1 1465.17 Q1870.46 1463.16 1872.52 1462.09 Q1874.58 1461 1877.06 1461 Q1882.27 1461 1885.28 1464.18 Q1888.31 1467.32 1888.31 1472.76 Q1888.31 1478.09 1885.16 1481.31 Q1882.01 1484.52 1876.78 1484.52 Q1870.79 1484.52 1867.61 1479.94 Q1864.44 1475.33 1864.44 1466.61 Q1864.44 1458.41 1868.33 1453.55 Q1872.22 1448.67 1878.77 1448.67 Q1880.53 1448.67 1882.31 1449.01 Q1884.12 1449.36 1886.06 1450.06 Z" fill="#000000" fill-rule="evenodd" fill-opacity="1" /><path clip-path="url(#clip780)" d="M1893.61 1468.97 L1906.09 1468.97 L1906.09 1472.76 L1893.61 1472.76 L1893.61 1468.97 Z" fill="#000000" fill-rule="evenodd" fill-opacity="1" /><path clip-path="url(#clip780)" d="M1923.47 1452.37 Q1919.86 1452.37 1918.03 1455.94 Q1916.23 1459.48 1916.23 1466.61 Q1916.23 1473.71 1918.03 1477.28 Q1919.86 1480.82 1923.47 1480.82 Q1927.1 1480.82 1928.91 1477.28 Q1930.74 1473.71 1930.74 1466.61 Q1930.74 1459.48 1928.91 1455.94 Q1927.1 1452.37 1923.47 1452.37 M1923.47 1448.67 Q1929.28 1448.67 1932.34 1453.27 Q1935.41 1457.86 1935.41 1466.61 Q1935.41 1475.33 1932.34 1479.94 Q1929.28 1484.52 1923.47 1484.52 Q1917.66 1484.52 1914.58 1479.94 Q1911.53 1475.33 1911.53 1466.61 Q1911.53 1457.86 1914.58 1453.27 Q1917.66 1448.67 1923.47 1448.67 Z" fill="#000000" fill-rule="evenodd" fill-opacity="1" /><path clip-path="url(#clip780)" d="M1944.44 1479.92 L1952.08 1479.92 L1952.08 1453.55 L1943.77 1455.22 L1943.77 1450.96 L1952.04 1449.29 L1956.71 1449.29 L1956.71 1479.92 L1964.35 1479.92 L1964.35 1483.85 L1944.44 1483.85 L1944.44 1479.92 Z" fill="#000000" fill-rule="evenodd" fill-opacity="1" /><path clip-path="url(#clip780)" d="M1971.04 1468.97 L1983.52 1468.97 L1983.52 1472.76 L1971.04 1472.76 L1971.04 1468.97 Z" fill="#000000" fill-rule="evenodd" fill-opacity="1" /><path clip-path="url(#clip780)" d="M2000.9 1452.37 Q1997.29 1452.37 1995.46 1455.94 Q1993.66 1459.48 1993.66 1466.61 Q1993.66 1473.71 1995.46 1477.28 Q1997.29 1480.82 2000.9 1480.82 Q2004.53 1480.82 2006.34 1477.28 Q2008.17 1473.71 2008.17 1466.61 Q2008.17 1459.48 2006.34 1455.94 Q2004.53 1452.37 2000.9 1452.37 M2000.9 1448.67 Q2006.71 1448.67 2009.77 1453.27 Q2012.84 1457.86 2012.84 1466.61 Q2012.84 1475.33 2009.77 1479.94 Q2006.71 1484.52 2000.9 1484.52 Q1995.09 1484.52 1992.01 1479.94 Q1988.96 1475.33 1988.96 1466.61 Q1988.96 1457.86 1992.01 1453.27 Q1995.09 1448.67 2000.9 1448.67 Z" fill="#000000" fill-rule="evenodd" fill-opacity="1" /><path clip-path="url(#clip780)" d="M2021.87 1479.92 L2029.51 1479.92 L2029.51 1453.55 L2021.2 1455.22 L2021.2 1450.96 L2029.47 1449.29 L2034.14 1449.29 L2034.14 1479.92 L2041.78 1479.92 L2041.78 1483.85 L2021.87 1483.85 L2021.87 1479.92 Z" fill="#000000" fill-rule="evenodd" fill-opacity="1" /><path clip-path="url(#clip780)" d="M1211.82 1525.81 L1211.82 1562.76 L1219.59 1562.76 Q1229.42 1562.76 1233.97 1558.3 Q1238.56 1553.85 1238.56 1544.24 Q1238.56 1534.69 1233.97 1530.26 Q1229.42 1525.81 1219.59 1525.81 L1211.82 1525.81 M1205.39 1520.52 L1218.6 1520.52 Q1232.42 1520.52 1238.88 1526.28 Q1245.34 1532.01 1245.34 1544.24 Q1245.34 1556.52 1238.84 1562.28 Q1232.35 1568.04 1218.6 1568.04 L1205.39 1568.04 L1205.39 1520.52 Z" fill="#000000" fill-rule="evenodd" fill-opacity="1" /><path clip-path="url(#clip780)" d="M1271.53 1550.12 Q1264.43 1550.12 1261.7 1551.75 Q1258.96 1553.37 1258.96 1557.29 Q1258.96 1560.4 1261 1562.25 Q1263.07 1564.07 1266.6 1564.07 Q1271.47 1564.07 1274.4 1560.63 Q1277.36 1557.16 1277.36 1551.43 L1277.36 1550.12 L1271.53 1550.12 M1283.21 1547.71 L1283.21 1568.04 L1277.36 1568.04 L1277.36 1562.63 Q1275.35 1565.88 1272.36 1567.44 Q1269.37 1568.97 1265.04 1568.97 Q1259.56 1568.97 1256.32 1565.91 Q1253.1 1562.82 1253.1 1557.67 Q1253.1 1551.65 1257.11 1548.6 Q1261.16 1545.54 1269.15 1545.54 L1277.36 1545.54 L1277.36 1544.97 Q1277.36 1540.93 1274.68 1538.73 Q1272.04 1536.5 1267.24 1536.5 Q1264.18 1536.5 1261.28 1537.23 Q1258.39 1537.97 1255.71 1539.43 L1255.71 1534.02 Q1258.93 1532.78 1261.95 1532.17 Q1264.98 1531.54 1267.84 1531.54 Q1275.57 1531.54 1279.39 1535.55 Q1283.21 1539.56 1283.21 1547.71 Z" fill="#000000" fill-rule="evenodd" fill-opacity="1" /><path clip-path="url(#clip780)" d="M1301.07 1522.27 L1301.07 1532.4 L1313.13 1532.4 L1313.13 1536.95 L1301.07 1536.95 L1301.07 1556.3 Q1301.07 1560.66 1302.25 1561.9 Q1303.46 1563.14 1307.12 1563.14 L1313.13 1563.14 L1313.13 1568.04 L1307.12 1568.04 Q1300.34 1568.04 1297.76 1565.53 Q1295.18 1562.98 1295.18 1556.3 L1295.18 1536.95 L1290.88 1536.95 L1290.88 1532.4 L1295.18 1532.4 L1295.18 1522.27 L1301.07 1522.27 Z" fill="#000000" fill-rule="evenodd" fill-opacity="1" /><path clip-path="url(#clip780)" d="M1351.33 1548.76 L1351.33 1551.62 L1324.4 1551.62 Q1324.78 1557.67 1328.03 1560.85 Q1331.31 1564 1337.13 1564 Q1340.5 1564 1343.66 1563.17 Q1346.84 1562.35 1349.96 1560.69 L1349.96 1566.23 Q1346.81 1567.57 1343.5 1568.27 Q1340.19 1568.97 1336.78 1568.97 Q1328.25 1568.97 1323.25 1564 Q1318.29 1559.04 1318.29 1550.57 Q1318.29 1541.82 1323 1536.69 Q1327.74 1531.54 1335.76 1531.54 Q1342.96 1531.54 1347.13 1536.18 Q1351.33 1540.8 1351.33 1548.76 M1345.47 1547.04 Q1345.41 1542.23 1342.76 1539.37 Q1340.15 1536.5 1335.83 1536.5 Q1330.92 1536.5 1327.96 1539.27 Q1325.04 1542.04 1324.59 1547.07 L1345.47 1547.04 Z" fill="#000000" fill-rule="evenodd" fill-opacity="1" /><polyline clip-path="url(#clip782)" style="stroke:#000000; stroke-linecap:butt; stroke-linejoin:round; stroke-width:2; stroke-opacity:0.1; fill:none" points="
  203.964,1196.97 2352.76,1196.97 
  "/>
<polyline clip-path="url(#clip782)" style="stroke:#000000; stroke-linecap:butt; stroke-linejoin:round; stroke-width:2; stroke-opacity:0.1; fill:none" points="
  203.964,961.177 2352.76,961.177 
  "/>
<polyline clip-path="url(#clip782)" style="stroke:#000000; stroke-linecap:butt; stroke-linejoin:round; stroke-width:2; stroke-opacity:0.1; fill:none" points="
  203.964,725.381 2352.76,725.381 
  "/>
<polyline clip-path="url(#clip782)" style="stroke:#000000; stroke-linecap:butt; stroke-linejoin:round; stroke-width:2; stroke-opacity:0.1; fill:none" points="
  203.964,489.585 2352.76,489.585 
  "/>
<polyline clip-path="url(#clip782)" style="stroke:#000000; stroke-linecap:butt; stroke-linejoin:round; stroke-width:2; stroke-opacity:0.1; fill:none" points="
  203.964,253.789 2352.76,253.789 
  "/>
<polyline clip-path="url(#clip780)" style="stroke:#000000; stroke-linecap:butt; stroke-linejoin:round; stroke-width:4; stroke-opacity:1; fill:none" points="
  203.964,1423.18 203.964,123.472 
  "/>
<polyline clip-path="url(#clip780)" style="stroke:#000000; stroke-linecap:butt; stroke-linejoin:round; stroke-width:4; stroke-opacity:1; fill:none" points="
  203.964,1196.97 229.749,1196.97 
  "/>
<polyline clip-path="url(#clip780)" style="stroke:#000000; stroke-linecap:butt; stroke-linejoin:round; stroke-width:4; stroke-opacity:1; fill:none" points="
  203.964,961.177 229.749,961.177 
  "/>
<polyline clip-path="url(#clip780)" style="stroke:#000000; stroke-linecap:butt; stroke-linejoin:round; stroke-width:4; stroke-opacity:1; fill:none" points="
  203.964,725.381 229.749,725.381 
  "/>
<polyline clip-path="url(#clip780)" style="stroke:#000000; stroke-linecap:butt; stroke-linejoin:round; stroke-width:4; stroke-opacity:1; fill:none" points="
  203.964,489.585 229.749,489.585 
  "/>
<polyline clip-path="url(#clip780)" style="stroke:#000000; stroke-linecap:butt; stroke-linejoin:round; stroke-width:4; stroke-opacity:1; fill:none" points="
  203.964,253.789 229.749,253.789 
  "/>
<path clip-path="url(#clip780)" d="M147.061 1179.69 L165.417 1179.69 L165.417 1183.63 L151.343 1183.63 L151.343 1192.1 Q152.362 1191.75 153.38 1191.59 Q154.399 1191.41 155.417 1191.41 Q161.204 1191.41 164.584 1194.58 Q167.964 1197.75 167.964 1203.16 Q167.964 1208.74 164.491 1211.85 Q161.019 1214.92 154.7 1214.92 Q152.524 1214.92 150.255 1214.55 Q148.01 1214.18 145.603 1213.44 L145.603 1208.74 Q147.686 1209.88 149.908 1210.43 Q152.13 1210.99 154.607 1210.99 Q158.612 1210.99 160.95 1208.88 Q163.288 1206.78 163.288 1203.16 Q163.288 1199.55 160.95 1197.45 Q158.612 1195.34 154.607 1195.34 Q152.732 1195.34 150.857 1195.76 Q149.005 1196.17 147.061 1197.05 L147.061 1179.69 Z" fill="#000000" fill-rule="evenodd" fill-opacity="1" /><path clip-path="url(#clip780)" d="M116.668 974.522 L124.306 974.522 L124.306 948.156 L115.996 949.823 L115.996 945.563 L124.26 943.897 L128.936 943.897 L128.936 974.522 L136.575 974.522 L136.575 978.457 L116.668 978.457 L116.668 974.522 Z" fill="#000000" fill-rule="evenodd" fill-opacity="1" /><path clip-path="url(#clip780)" d="M156.019 946.976 Q152.408 946.976 150.579 950.54 Q148.774 954.082 148.774 961.212 Q148.774 968.318 150.579 971.883 Q152.408 975.424 156.019 975.424 Q159.653 975.424 161.459 971.883 Q163.288 968.318 163.288 961.212 Q163.288 954.082 161.459 950.54 Q159.653 946.976 156.019 946.976 M156.019 943.272 Q161.829 943.272 164.885 947.878 Q167.964 952.462 167.964 961.212 Q167.964 969.938 164.885 974.545 Q161.829 979.128 156.019 979.128 Q150.209 979.128 147.13 974.545 Q144.075 969.938 144.075 961.212 Q144.075 952.462 147.13 947.878 Q150.209 943.272 156.019 943.272 Z" fill="#000000" fill-rule="evenodd" fill-opacity="1" /><path clip-path="url(#clip780)" d="M117.663 738.726 L125.302 738.726 L125.302 712.36 L116.992 714.027 L116.992 709.767 L125.255 708.101 L129.931 708.101 L129.931 738.726 L137.57 738.726 L137.57 742.661 L117.663 742.661 L117.663 738.726 Z" fill="#000000" fill-rule="evenodd" fill-opacity="1" /><path clip-path="url(#clip780)" d="M147.061 708.101 L165.417 708.101 L165.417 712.036 L151.343 712.036 L151.343 720.508 Q152.362 720.161 153.38 719.999 Q154.399 719.814 155.417 719.814 Q161.204 719.814 164.584 722.985 Q167.964 726.156 167.964 731.573 Q167.964 737.152 164.491 740.253 Q161.019 743.332 154.7 743.332 Q152.524 743.332 150.255 742.962 Q148.01 742.591 145.603 741.851 L145.603 737.152 Q147.686 738.286 149.908 738.841 Q152.13 739.397 154.607 739.397 Q158.612 739.397 160.95 737.29 Q163.288 735.184 163.288 731.573 Q163.288 727.962 160.95 725.855 Q158.612 723.749 154.607 723.749 Q152.732 723.749 150.857 724.166 Q149.005 724.582 147.061 725.462 L147.061 708.101 Z" fill="#000000" fill-rule="evenodd" fill-opacity="1" /><path clip-path="url(#clip780)" d="M119.885 502.93 L136.204 502.93 L136.204 506.865 L114.26 506.865 L114.26 502.93 Q116.922 500.175 121.505 495.545 Q126.112 490.893 127.292 489.55 Q129.538 487.027 130.417 485.291 Q131.32 483.532 131.32 481.842 Q131.32 479.087 129.376 477.351 Q127.455 475.615 124.353 475.615 Q122.154 475.615 119.7 476.379 Q117.269 477.143 114.492 478.694 L114.492 473.971 Q117.316 472.837 119.769 472.258 Q122.223 471.68 124.26 471.68 Q129.63 471.68 132.825 474.365 Q136.019 477.05 136.019 481.541 Q136.019 483.67 135.209 485.592 Q134.422 487.49 132.316 490.082 Q131.737 490.754 128.635 493.971 Q125.533 497.166 119.885 502.93 Z" fill="#000000" fill-rule="evenodd" fill-opacity="1" /><path clip-path="url(#clip780)" d="M156.019 475.383 Q152.408 475.383 150.579 478.948 Q148.774 482.49 148.774 489.619 Q148.774 496.726 150.579 500.291 Q152.408 503.832 156.019 503.832 Q159.653 503.832 161.459 500.291 Q163.288 496.726 163.288 489.619 Q163.288 482.49 161.459 478.948 Q159.653 475.383 156.019 475.383 M156.019 471.68 Q161.829 471.68 164.885 476.286 Q167.964 480.87 167.964 489.619 Q167.964 498.346 164.885 502.953 Q161.829 507.536 156.019 507.536 Q150.209 507.536 147.13 502.953 Q144.075 498.346 144.075 489.619 Q144.075 480.87 147.13 476.286 Q150.209 471.68 156.019 471.68 Z" fill="#000000" fill-rule="evenodd" fill-opacity="1" /><path clip-path="url(#clip780)" d="M120.88 267.134 L137.2 267.134 L137.2 271.069 L115.256 271.069 L115.256 267.134 Q117.918 264.379 122.501 259.749 Q127.107 255.097 128.288 253.754 Q130.533 251.231 131.413 249.495 Q132.316 247.736 132.316 246.046 Q132.316 243.291 130.371 241.555 Q128.45 239.819 125.348 239.819 Q123.149 239.819 120.695 240.583 Q118.265 241.347 115.487 242.898 L115.487 238.175 Q118.311 237.041 120.765 236.462 Q123.218 235.884 125.255 235.884 Q130.626 235.884 133.82 238.569 Q137.015 241.254 137.015 245.745 Q137.015 247.874 136.204 249.796 Q135.417 251.694 133.311 254.286 Q132.732 254.958 129.63 258.175 Q126.529 261.37 120.88 267.134 Z" fill="#000000" fill-rule="evenodd" fill-opacity="1" /><path clip-path="url(#clip780)" d="M147.061 236.509 L165.417 236.509 L165.417 240.444 L151.343 240.444 L151.343 248.916 Q152.362 248.569 153.38 248.407 Q154.399 248.222 155.417 248.222 Q161.204 248.222 164.584 251.393 Q167.964 254.564 167.964 259.981 Q167.964 265.56 164.491 268.661 Q161.019 271.74 154.7 271.74 Q152.524 271.74 150.255 271.37 Q148.01 270.999 145.603 270.259 L145.603 265.56 Q147.686 266.694 149.908 267.249 Q152.13 267.805 154.607 267.805 Q158.612 267.805 160.95 265.698 Q163.288 263.592 163.288 259.981 Q163.288 256.37 160.95 254.263 Q158.612 252.157 154.607 252.157 Q152.732 252.157 150.857 252.573 Q149.005 252.99 147.061 253.87 L147.061 236.509 Z" fill="#000000" fill-rule="evenodd" fill-opacity="1" /><path clip-path="url(#clip780)" d="M21.7677 1016.02 L58.7206 1016.02 L58.7206 1008.25 Q58.7206 998.417 54.2646 993.866 Q49.8086 989.283 40.1964 989.283 Q30.6479 989.283 26.2237 993.866 Q21.7677 998.417 21.7677 1008.25 L21.7677 1016.02 M16.4842 1022.45 L16.4842 1009.24 Q16.4842 995.425 22.2451 988.964 Q27.9743 982.503 40.1964 982.503 Q52.4822 982.503 58.2432 988.996 Q64.0042 995.489 64.0042 1009.24 L64.0042 1022.45 L16.4842 1022.45 Z" fill="#000000" fill-rule="evenodd" fill-opacity="1" /><path clip-path="url(#clip780)" d="M49.9359 973.114 L28.3562 973.114 L28.3562 967.257 L49.7131 967.257 Q54.7739 967.257 57.3202 965.284 Q59.8346 963.31 59.8346 959.364 Q59.8346 954.621 56.8109 951.884 Q53.7872 949.115 48.5673 949.115 L28.3562 949.115 L28.3562 943.259 L64.0042 943.259 L64.0042 949.115 L58.5296 949.115 Q61.7762 951.247 63.3676 954.08 Q64.9272 956.881 64.9272 960.605 Q64.9272 966.748 61.1078 969.931 Q57.2883 973.114 49.9359 973.114 M27.4968 958.377 L27.4968 958.377 Z" fill="#000000" fill-rule="evenodd" fill-opacity="1" /><path clip-path="url(#clip780)" d="M33.8307 910.539 Q33.2578 911.525 33.0032 912.703 Q32.7167 913.849 32.7167 915.249 Q32.7167 920.215 35.9632 922.888 Q39.1779 925.53 45.2253 925.53 L64.0042 925.53 L64.0042 931.418 L28.3562 931.418 L28.3562 925.53 L33.8944 925.53 Q30.6479 923.684 29.0883 920.724 Q27.4968 917.764 27.4968 913.531 Q27.4968 912.926 27.5923 912.194 Q27.656 911.462 27.8151 910.571 L33.8307 910.539 Z" fill="#000000" fill-rule="evenodd" fill-opacity="1" /><path clip-path="url(#clip780)" d="M46.0847 888.195 Q46.0847 895.293 47.7079 898.03 Q49.3312 900.767 53.2461 900.767 Q56.3653 900.767 58.2114 898.73 Q60.0256 896.662 60.0256 893.129 Q60.0256 888.259 56.5881 885.331 Q53.1188 882.371 47.3897 882.371 L46.0847 882.371 L46.0847 888.195 M43.6657 876.514 L64.0042 876.514 L64.0042 882.371 L58.5933 882.371 Q61.8398 884.376 63.3994 887.368 Q64.9272 890.36 64.9272 894.688 Q64.9272 900.163 61.8716 903.409 Q58.7843 906.624 53.6281 906.624 Q47.6125 906.624 44.5569 902.613 Q41.5014 898.571 41.5014 890.582 L41.5014 882.371 L40.9285 882.371 Q36.8862 882.371 34.6901 885.044 Q32.4621 887.686 32.4621 892.492 Q32.4621 895.548 33.1941 898.444 Q33.9262 901.34 35.3903 904.014 L29.9795 904.014 Q28.7381 900.799 28.1334 897.776 Q27.4968 894.752 27.4968 891.887 Q27.4968 884.153 31.5072 880.334 Q35.5176 876.514 43.6657 876.514 Z" fill="#000000" fill-rule="evenodd" fill-opacity="1" /><path clip-path="url(#clip780)" d="M18.2347 858.658 L28.3562 858.658 L28.3562 846.595 L32.9077 846.595 L32.9077 858.658 L52.2594 858.658 Q56.6199 858.658 57.8613 857.481 Q59.1026 856.271 59.1026 852.611 L59.1026 846.595 L64.0042 846.595 L64.0042 852.611 Q64.0042 859.39 61.4897 861.968 Q58.9434 864.547 52.2594 864.547 L32.9077 864.547 L32.9077 868.843 L28.3562 868.843 L28.3562 864.547 L18.2347 864.547 L18.2347 858.658 Z" fill="#000000" fill-rule="evenodd" fill-opacity="1" /><path clip-path="url(#clip780)" d="M28.3562 838.893 L28.3562 833.036 L64.0042 833.036 L64.0042 838.893 L28.3562 838.893 M14.479 838.893 L14.479 833.036 L21.895 833.036 L21.895 838.893 L14.479 838.893 Z" fill="#000000" fill-rule="evenodd" fill-opacity="1" /><path clip-path="url(#clip780)" d="M32.4621 806.969 Q32.4621 811.679 36.1542 814.417 Q39.8145 817.154 46.212 817.154 Q52.6095 817.154 56.3017 814.448 Q59.9619 811.711 59.9619 806.969 Q59.9619 802.29 56.2698 799.553 Q52.5777 796.815 46.212 796.815 Q39.8781 796.815 36.186 799.553 Q32.4621 802.29 32.4621 806.969 M27.4968 806.969 Q27.4968 799.33 32.4621 794.969 Q37.4273 790.609 46.212 790.609 Q54.9649 790.609 59.9619 794.969 Q64.9272 799.33 64.9272 806.969 Q64.9272 814.639 59.9619 819 Q54.9649 823.329 46.212 823.329 Q37.4273 823.329 32.4621 819 Q27.4968 814.639 27.4968 806.969 Z" fill="#000000" fill-rule="evenodd" fill-opacity="1" /><path clip-path="url(#clip780)" d="M42.4881 751.269 L64.0042 751.269 L64.0042 757.125 L42.679 757.125 Q37.6183 757.125 35.1038 759.099 Q32.5894 761.072 32.5894 765.019 Q32.5894 769.761 35.6131 772.498 Q38.6368 775.236 43.8567 775.236 L64.0042 775.236 L64.0042 781.124 L28.3562 781.124 L28.3562 775.236 L33.8944 775.236 Q30.6797 773.135 29.0883 770.302 Q27.4968 767.438 27.4968 763.714 Q27.4968 757.571 31.3163 754.42 Q35.1038 751.269 42.4881 751.269 Z" fill="#000000" fill-rule="evenodd" fill-opacity="1" /><path clip-path="url(#clip780)" d="M55.9197 738.092 L55.9197 731.376 L61.3942 731.376 L71.5793 736.596 L71.5793 740.702 L61.3942 738.092 L55.9197 738.092 Z" fill="#000000" fill-rule="evenodd" fill-opacity="1" /><path clip-path="url(#clip780)" d="M42.4881 668.515 L64.0042 668.515 L64.0042 674.371 L42.679 674.371 Q37.6183 674.371 35.1038 676.344 Q32.5894 678.318 32.5894 682.265 Q32.5894 687.007 35.6131 689.744 Q38.6368 692.482 43.8567 692.482 L64.0042 692.482 L64.0042 698.37 L14.479 698.37 L14.479 692.482 L33.8944 692.482 Q30.6797 690.381 29.0883 687.548 Q27.4968 684.684 27.4968 680.96 Q27.4968 674.817 31.3163 671.666 Q35.1038 668.515 42.4881 668.515 Z" fill="#000000" fill-rule="evenodd" fill-opacity="1" /><path clip-path="url(#clip780)" d="M32.4621 643.02 Q32.4621 647.731 36.1542 650.468 Q39.8145 653.205 46.212 653.205 Q52.6095 653.205 56.3017 650.5 Q59.9619 647.762 59.9619 643.02 Q59.9619 638.341 56.2698 635.604 Q52.5777 632.867 46.212 632.867 Q39.8781 632.867 36.186 635.604 Q32.4621 638.341 32.4621 643.02 M27.4968 643.02 Q27.4968 635.381 32.4621 631.021 Q37.4273 626.66 46.212 626.66 Q54.9649 626.66 59.9619 631.021 Q64.9272 635.381 64.9272 643.02 Q64.9272 650.691 59.9619 655.051 Q54.9649 659.38 46.212 659.38 Q37.4273 659.38 32.4621 655.051 Q27.4968 650.691 27.4968 643.02 Z" fill="#000000" fill-rule="evenodd" fill-opacity="1" /><path clip-path="url(#clip780)" d="M49.9359 617.557 L28.3562 617.557 L28.3562 611.701 L49.7131 611.701 Q54.7739 611.701 57.3202 609.727 Q59.8346 607.754 59.8346 603.807 Q59.8346 599.065 56.8109 596.328 Q53.7872 593.558 48.5673 593.558 L28.3562 593.558 L28.3562 587.702 L64.0042 587.702 L64.0042 593.558 L58.5296 593.558 Q61.7762 595.691 63.3676 598.524 Q64.9272 601.325 64.9272 605.049 Q64.9272 611.191 61.1078 614.374 Q57.2883 617.557 49.9359 617.557 M27.4968 602.821 L27.4968 602.821 Z" fill="#000000" fill-rule="evenodd" fill-opacity="1" /><path clip-path="url(#clip780)" d="M33.8307 554.982 Q33.2578 555.969 33.0032 557.147 Q32.7167 558.292 32.7167 559.693 Q32.7167 564.658 35.9632 567.332 Q39.1779 569.973 45.2253 569.973 L64.0042 569.973 L64.0042 575.862 L28.3562 575.862 L28.3562 569.973 L33.8944 569.973 Q30.6479 568.127 29.0883 565.167 Q27.4968 562.207 27.4968 557.974 Q27.4968 557.369 27.5923 556.637 Q27.656 555.905 27.8151 555.014 L33.8307 554.982 Z" fill="#000000" fill-rule="evenodd" fill-opacity="1" /><path clip-path="url(#clip780)" d="M29.4065 526.114 L34.9447 526.114 Q33.6716 528.596 33.035 531.27 Q32.3984 533.944 32.3984 536.808 Q32.3984 541.169 33.7352 543.365 Q35.072 545.529 37.7456 545.529 Q39.7826 545.529 40.9603 543.97 Q42.1061 542.41 43.1565 537.699 L43.6021 535.694 Q44.9389 529.456 47.3897 526.846 Q49.8086 524.204 54.1691 524.204 Q59.1344 524.204 62.0308 528.151 Q64.9272 532.066 64.9272 538.941 Q64.9272 541.805 64.3543 544.924 Q63.8132 548.012 62.6992 551.449 L56.6518 551.449 Q58.3387 548.203 59.198 545.052 Q60.0256 541.901 60.0256 538.813 Q60.0256 534.676 58.6251 532.448 Q57.1929 530.22 54.6147 530.22 Q52.2276 530.22 50.9545 531.843 Q49.6813 533.434 48.5037 538.877 L48.0262 540.914 Q46.8804 546.357 44.5251 548.776 Q42.138 551.195 38.0002 551.195 Q32.9713 551.195 30.2341 547.63 Q27.4968 544.065 27.4968 537.508 Q27.4968 534.262 27.9743 531.397 Q28.4517 528.533 29.4065 526.114 Z" fill="#000000" fill-rule="evenodd" fill-opacity="1" /><path clip-path="url(#clip780)" d="M302.943 12.096 L341.183 12.096 L341.183 18.9825 L311.125 18.9825 L311.125 36.8875 L339.927 36.8875 L339.927 43.7741 L311.125 43.7741 L311.125 65.6895 L341.912 65.6895 L341.912 72.576 L302.943 72.576 L302.943 12.096 Z" fill="#000000" fill-rule="evenodd" fill-opacity="1" /><path clip-path="url(#clip780)" d="M392.751 27.2059 L376.345 49.2833 L393.602 72.576 L384.811 72.576 L371.605 54.752 L358.399 72.576 L349.609 72.576 L367.23 48.8377 L351.108 27.2059 L359.898 27.2059 L371.929 43.369 L383.961 27.2059 L392.751 27.2059 Z" fill="#000000" fill-rule="evenodd" fill-opacity="1" /><path clip-path="url(#clip780)" d="M435.326 28.9478 L435.326 35.9153 Q432.166 34.1734 428.966 33.3227 Q425.806 32.4315 422.566 32.4315 Q415.315 32.4315 411.304 37.0496 Q407.294 41.6271 407.294 49.9314 Q407.294 58.2358 411.304 62.8538 Q415.315 67.4314 422.566 67.4314 Q425.806 67.4314 428.966 66.5807 Q432.166 65.6895 435.326 63.9476 L435.326 70.8341 Q432.207 72.2924 428.845 73.0216 Q425.523 73.7508 421.756 73.7508 Q411.507 73.7508 405.471 67.3098 Q399.435 60.8689 399.435 49.9314 Q399.435 38.832 405.511 32.472 Q411.628 26.1121 422.242 26.1121 Q425.685 26.1121 428.966 26.8413 Q432.247 27.5299 435.326 28.9478 Z" fill="#000000" fill-rule="evenodd" fill-opacity="1" /><path clip-path="url(#clip780)" d="M487.097 48.0275 L487.097 51.6733 L452.826 51.6733 Q453.312 59.3701 457.444 63.421 Q461.616 67.4314 469.03 67.4314 Q473.324 67.4314 477.334 66.3781 Q481.385 65.3249 485.355 63.2184 L485.355 70.267 Q481.344 71.9684 477.131 72.8596 Q472.918 73.7508 468.584 73.7508 Q457.728 73.7508 451.368 67.4314 Q445.048 61.1119 445.048 50.3365 Q445.048 39.1965 451.044 32.6746 Q457.079 26.1121 467.288 26.1121 Q476.443 26.1121 481.749 32.0264 Q487.097 37.9003 487.097 48.0275 M479.643 45.84 Q479.562 39.7232 476.2 36.0774 Q472.878 32.4315 467.369 32.4315 Q461.13 32.4315 457.363 35.9558 Q453.636 39.4801 453.069 45.8805 L479.643 45.84 Z" fill="#000000" fill-rule="evenodd" fill-opacity="1" /><path clip-path="url(#clip780)" d="M538.138 48.0275 L538.138 51.6733 L503.867 51.6733 Q504.353 59.3701 508.485 63.421 Q512.658 67.4314 520.071 67.4314 Q524.365 67.4314 528.375 66.3781 Q532.426 65.3249 536.396 63.2184 L536.396 70.267 Q532.386 71.9684 528.173 72.8596 Q523.96 73.7508 519.625 73.7508 Q508.769 73.7508 502.409 67.4314 Q496.09 61.1119 496.09 50.3365 Q496.09 39.1965 502.085 32.6746 Q508.121 26.1121 518.329 26.1121 Q527.484 26.1121 532.791 32.0264 Q538.138 37.9003 538.138 48.0275 M530.684 45.84 Q530.603 39.7232 527.241 36.0774 Q523.919 32.4315 518.41 32.4315 Q512.172 32.4315 508.404 35.9558 Q504.678 39.4801 504.11 45.8805 L530.684 45.84 Z" fill="#000000" fill-rule="evenodd" fill-opacity="1" /><path clip-path="url(#clip780)" d="M580.227 34.0924 L580.227 9.54393 L587.681 9.54393 L587.681 72.576 L580.227 72.576 L580.227 65.7705 Q577.877 69.8214 574.272 71.8063 Q570.707 73.7508 565.684 73.7508 Q557.461 73.7508 552.276 67.1883 Q547.131 60.6258 547.131 49.9314 Q547.131 39.2371 552.276 32.6746 Q557.461 26.1121 565.684 26.1121 Q570.707 26.1121 574.272 28.0971 Q577.877 30.0415 580.227 34.0924 M554.828 49.9314 Q554.828 58.1548 558.19 62.8538 Q561.593 67.5124 567.507 67.5124 Q573.421 67.5124 576.824 62.8538 Q580.227 58.1548 580.227 49.9314 Q580.227 41.7081 576.824 37.0496 Q573.421 32.3505 567.507 32.3505 Q561.593 32.3505 558.19 37.0496 Q554.828 41.7081 554.828 49.9314 Z" fill="#000000" fill-rule="evenodd" fill-opacity="1" /><path clip-path="url(#clip780)" d="M641.841 48.0275 L641.841 51.6733 L607.571 51.6733 Q608.057 59.3701 612.189 63.421 Q616.361 67.4314 623.774 67.4314 Q628.068 67.4314 632.078 66.3781 Q636.129 65.3249 640.099 63.2184 L640.099 70.267 Q636.089 71.9684 631.876 72.8596 Q627.663 73.7508 623.329 73.7508 Q612.472 73.7508 606.112 67.4314 Q599.793 61.1119 599.793 50.3365 Q599.793 39.1965 605.788 32.6746 Q611.824 26.1121 622.032 26.1121 Q631.187 26.1121 636.494 32.0264 Q641.841 37.9003 641.841 48.0275 M634.387 45.84 Q634.306 39.7232 630.944 36.0774 Q627.622 32.4315 622.113 32.4315 Q615.875 32.4315 612.108 35.9558 Q608.381 39.4801 607.814 45.8805 L634.387 45.84 Z" fill="#000000" fill-rule="evenodd" fill-opacity="1" /><path clip-path="url(#clip780)" d="M691.789 45.1919 L691.789 72.576 L684.335 72.576 L684.335 45.4349 Q684.335 38.994 681.824 35.7938 Q679.312 32.5936 674.289 32.5936 Q668.253 32.5936 664.769 36.4419 Q661.285 40.2903 661.285 46.9338 L661.285 72.576 L653.791 72.576 L653.791 27.2059 L661.285 27.2059 L661.285 34.2544 Q663.959 30.163 667.564 28.1376 Q671.21 26.1121 675.95 26.1121 Q683.768 26.1121 687.778 30.9732 Q691.789 35.7938 691.789 45.1919 Z" fill="#000000" fill-rule="evenodd" fill-opacity="1" /><path clip-path="url(#clip780)" d="M739.306 28.9478 L739.306 35.9153 Q736.146 34.1734 732.946 33.3227 Q729.786 32.4315 726.546 32.4315 Q719.294 32.4315 715.284 37.0496 Q711.274 41.6271 711.274 49.9314 Q711.274 58.2358 715.284 62.8538 Q719.294 67.4314 726.546 67.4314 Q729.786 67.4314 732.946 66.5807 Q736.146 65.6895 739.306 63.9476 L739.306 70.8341 Q736.187 72.2924 732.824 73.0216 Q729.503 73.7508 725.735 73.7508 Q715.487 73.7508 709.451 67.3098 Q703.415 60.8689 703.415 49.9314 Q703.415 38.832 709.491 32.472 Q715.608 26.1121 726.221 26.1121 Q729.665 26.1121 732.946 26.8413 Q736.227 27.5299 739.306 28.9478 Z" fill="#000000" fill-rule="evenodd" fill-opacity="1" /><path clip-path="url(#clip780)" d="M791.076 48.0275 L791.076 51.6733 L756.806 51.6733 Q757.292 59.3701 761.424 63.421 Q765.596 67.4314 773.009 67.4314 Q777.303 67.4314 781.314 66.3781 Q785.365 65.3249 789.335 63.2184 L789.335 70.267 Q785.324 71.9684 781.111 72.8596 Q776.898 73.7508 772.564 73.7508 Q761.707 73.7508 755.347 67.4314 Q749.028 61.1119 749.028 50.3365 Q749.028 39.1965 755.023 32.6746 Q761.059 26.1121 771.268 26.1121 Q780.423 26.1121 785.729 32.0264 Q791.076 37.9003 791.076 48.0275 M783.623 45.84 Q783.542 39.7232 780.18 36.0774 Q776.858 32.4315 771.349 32.4315 Q765.11 32.4315 761.343 35.9558 Q757.616 39.4801 757.049 45.8805 L783.623 45.84 Z" fill="#000000" fill-rule="evenodd" fill-opacity="1" /><path clip-path="url(#clip780)" d="M832.234 28.5427 L832.234 35.5912 Q829.074 33.9709 825.671 33.1607 Q822.268 32.3505 818.623 32.3505 Q813.073 32.3505 810.278 34.0519 Q807.523 35.7533 807.523 39.156 Q807.523 41.7486 809.508 43.2475 Q811.493 44.7058 817.488 46.0426 L820.04 46.6097 Q827.98 48.3111 831.302 51.4303 Q834.664 54.509 834.664 60.0587 Q834.664 66.3781 829.641 70.0644 Q824.658 73.7508 815.909 73.7508 Q812.263 73.7508 808.293 73.0216 Q804.363 72.3329 799.988 70.9151 L799.988 63.2184 Q804.12 65.3654 808.131 66.4591 Q812.141 67.5124 816.071 67.5124 Q821.337 67.5124 824.172 65.73 Q827.008 63.9071 827.008 60.6258 Q827.008 57.5877 824.942 55.9673 Q822.917 54.3469 815.99 52.8481 L813.397 52.2405 Q806.47 50.7821 803.391 47.7845 Q800.313 44.7463 800.313 39.4801 Q800.313 33.0797 804.85 29.5959 Q809.387 26.1121 817.731 26.1121 Q821.863 26.1121 825.509 26.7198 Q829.155 27.3274 832.234 28.5427 Z" fill="#000000" fill-rule="evenodd" fill-opacity="1" /><path clip-path="url(#clip780)" d="M890.486 32.4315 Q884.49 32.4315 881.007 37.1306 Q877.523 41.7891 877.523 49.9314 Q877.523 58.0738 880.966 62.7728 Q884.45 67.4314 890.486 67.4314 Q896.44 67.4314 899.924 62.7323 Q903.408 58.0333 903.408 49.9314 Q903.408 41.8701 899.924 37.1711 Q896.44 32.4315 890.486 32.4315 M890.486 26.1121 Q900.208 26.1121 905.758 32.4315 Q911.307 38.7509 911.307 49.9314 Q911.307 61.0714 905.758 67.4314 Q900.208 73.7508 890.486 73.7508 Q880.723 73.7508 875.173 67.4314 Q869.664 61.0714 869.664 49.9314 Q869.664 38.7509 875.173 32.4315 Q880.723 26.1121 890.486 26.1121 Z" fill="#000000" fill-rule="evenodd" fill-opacity="1" /><path clip-path="url(#clip780)" d="M946.631 9.54393 L946.631 15.7418 L939.502 15.7418 Q935.491 15.7418 933.911 17.3622 Q932.372 18.9825 932.372 23.1955 L932.372 27.2059 L944.646 27.2059 L944.646 32.9987 L932.372 32.9987 L932.372 72.576 L924.878 72.576 L924.878 32.9987 L917.748 32.9987 L917.748 27.2059 L924.878 27.2059 L924.878 24.0462 Q924.878 16.471 928.402 13.0277 Q931.926 9.54393 939.583 9.54393 L946.631 9.54393 Z" fill="#000000" fill-rule="evenodd" fill-opacity="1" /><path clip-path="url(#clip780)" d="M986.614 14.324 L986.614 27.2059 L1001.97 27.2059 L1001.97 32.9987 L986.614 32.9987 L986.614 57.6282 Q986.614 63.1779 988.112 64.7578 Q989.652 66.3376 994.31 66.3376 L1001.97 66.3376 L1001.97 72.576 L994.31 72.576 Q985.682 72.576 982.401 69.3758 Q979.119 66.1351 979.119 57.6282 L979.119 32.9987 L973.651 32.9987 L973.651 27.2059 L979.119 27.2059 L979.119 14.324 L986.614 14.324 Z" fill="#000000" fill-rule="evenodd" fill-opacity="1" /><path clip-path="url(#clip780)" d="M1049.48 45.1919 L1049.48 72.576 L1042.03 72.576 L1042.03 45.4349 Q1042.03 38.994 1039.52 35.7938 Q1037.01 32.5936 1031.98 32.5936 Q1025.95 32.5936 1022.46 36.4419 Q1018.98 40.2903 1018.98 46.9338 L1018.98 72.576 L1011.49 72.576 L1011.49 9.54393 L1018.98 9.54393 L1018.98 34.2544 Q1021.65 30.163 1025.26 28.1376 Q1028.91 26.1121 1033.64 26.1121 Q1041.46 26.1121 1045.47 30.9732 Q1049.48 35.7938 1049.48 45.1919 Z" fill="#000000" fill-rule="evenodd" fill-opacity="1" /><path clip-path="url(#clip780)" d="M1103.16 48.0275 L1103.16 51.6733 L1068.89 51.6733 Q1069.37 59.3701 1073.51 63.421 Q1077.68 67.4314 1085.09 67.4314 Q1089.39 67.4314 1093.4 66.3781 Q1097.45 65.3249 1101.42 63.2184 L1101.42 70.267 Q1097.41 71.9684 1093.19 72.8596 Q1088.98 73.7508 1084.65 73.7508 Q1073.79 73.7508 1067.43 67.4314 Q1061.11 61.1119 1061.11 50.3365 Q1061.11 39.1965 1067.11 32.6746 Q1073.14 26.1121 1083.35 26.1121 Q1092.5 26.1121 1097.81 32.0264 Q1103.16 37.9003 1103.16 48.0275 M1095.7 45.84 Q1095.62 39.7232 1092.26 36.0774 Q1088.94 32.4315 1083.43 32.4315 Q1077.19 32.4315 1073.42 35.9558 Q1069.7 39.4801 1069.13 45.8805 L1095.7 45.84 Z" fill="#000000" fill-rule="evenodd" fill-opacity="1" /><path clip-path="url(#clip780)" d="M1162.3 20.1573 L1151.2 50.2555 L1173.44 50.2555 L1162.3 20.1573 M1157.68 12.096 L1166.96 12.096 L1190.01 72.576 L1181.5 72.576 L1175.99 57.061 L1148.73 57.061 L1143.22 72.576 L1134.59 72.576 L1157.68 12.096 Z" fill="#000000" fill-rule="evenodd" fill-opacity="1" /><path clip-path="url(#clip780)" d="M1221.36 20.1573 L1210.26 50.2555 L1232.5 50.2555 L1221.36 20.1573 M1216.75 12.096 L1226.02 12.096 L1249.07 72.576 L1240.56 72.576 L1235.06 57.061 L1207.79 57.061 L1202.28 72.576 L1193.66 72.576 L1216.75 12.096 Z" fill="#000000" fill-rule="evenodd" fill-opacity="1" /><path clip-path="url(#clip780)" d="M1280.99 17.6457 Q1272.08 17.6457 1266.81 24.2892 Q1261.59 30.9327 1261.59 42.3968 Q1261.59 53.8203 1266.81 60.4638 Q1272.08 67.1073 1280.99 67.1073 Q1289.9 67.1073 1295.09 60.4638 Q1300.32 53.8203 1300.32 42.3968 Q1300.32 30.9327 1295.09 24.2892 Q1289.9 17.6457 1280.99 17.6457 M1292.46 71.4823 L1303.23 83.2704 L1293.35 83.2704 L1284.4 73.5887 Q1283.06 73.6697 1282.33 73.7103 Q1281.64 73.7508 1280.99 73.7508 Q1268.23 73.7508 1260.58 65.2439 Q1252.96 56.6965 1252.96 42.3968 Q1252.96 28.0566 1260.58 19.5497 Q1268.23 11.0023 1280.99 11.0023 Q1293.71 11.0023 1301.33 19.5497 Q1308.94 28.0566 1308.94 42.3968 Q1308.94 52.9291 1304.69 60.4233 Q1300.48 67.9175 1292.46 71.4823 Z" fill="#000000" fill-rule="evenodd" fill-opacity="1" /><path clip-path="url(#clip780)" d="M1346.29 17.6457 Q1337.38 17.6457 1332.12 24.2892 Q1326.89 30.9327 1326.89 42.3968 Q1326.89 53.8203 1332.12 60.4638 Q1337.38 67.1073 1346.29 67.1073 Q1355.21 67.1073 1360.39 60.4638 Q1365.62 53.8203 1365.62 42.3968 Q1365.62 30.9327 1360.39 24.2892 Q1355.21 17.6457 1346.29 17.6457 M1346.29 11.0023 Q1359.01 11.0023 1366.63 19.5497 Q1374.24 28.0566 1374.24 42.3968 Q1374.24 56.6965 1366.63 65.2439 Q1359.01 73.7508 1346.29 73.7508 Q1333.53 73.7508 1325.88 65.2439 Q1318.26 56.737 1318.26 42.3968 Q1318.26 28.0566 1325.88 19.5497 Q1333.53 11.0023 1346.29 11.0023 Z" fill="#000000" fill-rule="evenodd" fill-opacity="1" /><path clip-path="url(#clip780)" d="M1413.09 27.2059 L1420.55 27.2059 L1420.55 72.576 L1413.09 72.576 L1413.09 27.2059 M1413.09 9.54393 L1420.55 9.54393 L1420.55 18.9825 L1413.09 18.9825 L1413.09 9.54393 Z" fill="#000000" fill-rule="evenodd" fill-opacity="1" /><path clip-path="url(#clip780)" d="M1473.86 45.1919 L1473.86 72.576 L1466.4 72.576 L1466.4 45.4349 Q1466.4 38.994 1463.89 35.7938 Q1461.38 32.5936 1456.36 32.5936 Q1450.32 32.5936 1446.84 36.4419 Q1443.35 40.2903 1443.35 46.9338 L1443.35 72.576 L1435.86 72.576 L1435.86 27.2059 L1443.35 27.2059 L1443.35 34.2544 Q1446.03 30.163 1449.63 28.1376 Q1453.28 26.1121 1458.02 26.1121 Q1465.84 26.1121 1469.85 30.9732 Q1473.86 35.7938 1473.86 45.1919 Z" fill="#000000" fill-rule="evenodd" fill-opacity="1" /><path clip-path="url(#clip780)" d="M1560.71 16.7545 L1560.71 25.383 Q1556.58 21.5346 1551.88 19.6307 Q1547.22 17.7268 1541.95 17.7268 Q1531.58 17.7268 1526.07 24.0867 Q1520.56 30.4061 1520.56 42.3968 Q1520.56 54.3469 1526.07 60.7069 Q1531.58 67.0263 1541.95 67.0263 Q1547.22 67.0263 1551.88 65.1223 Q1556.58 63.2184 1560.71 59.3701 L1560.71 67.9175 Q1556.41 70.8341 1551.59 72.2924 Q1546.81 73.7508 1541.47 73.7508 Q1527.73 73.7508 1519.83 65.3654 Q1511.93 56.9395 1511.93 42.3968 Q1511.93 27.8135 1519.83 19.4281 Q1527.73 11.0023 1541.47 11.0023 Q1546.89 11.0023 1551.67 12.4606 Q1556.49 13.8784 1560.71 16.7545 Z" fill="#000000" fill-rule="evenodd" fill-opacity="1" /><path clip-path="url(#clip780)" d="M1611.83 48.0275 L1611.83 51.6733 L1577.56 51.6733 Q1578.05 59.3701 1582.18 63.421 Q1586.35 67.4314 1593.76 67.4314 Q1598.06 67.4314 1602.07 66.3781 Q1606.12 65.3249 1610.09 63.2184 L1610.09 70.267 Q1606.08 71.9684 1601.86 72.8596 Q1597.65 73.7508 1593.32 73.7508 Q1582.46 73.7508 1576.1 67.4314 Q1569.78 61.1119 1569.78 50.3365 Q1569.78 39.1965 1575.78 32.6746 Q1581.81 26.1121 1592.02 26.1121 Q1601.18 26.1121 1606.48 32.0264 Q1611.83 37.9003 1611.83 48.0275 M1604.38 45.84 Q1604.3 39.7232 1600.93 36.0774 Q1597.61 32.4315 1592.1 32.4315 Q1585.86 32.4315 1582.1 35.9558 Q1578.37 39.4801 1577.8 45.8805 L1604.38 45.84 Z" fill="#000000" fill-rule="evenodd" fill-opacity="1" /><path clip-path="url(#clip780)" d="M1661.78 45.1919 L1661.78 72.576 L1654.32 72.576 L1654.32 45.4349 Q1654.32 38.994 1651.81 35.7938 Q1649.3 32.5936 1644.28 32.5936 Q1638.24 32.5936 1634.76 36.4419 Q1631.27 40.2903 1631.27 46.9338 L1631.27 72.576 L1623.78 72.576 L1623.78 27.2059 L1631.27 27.2059 L1631.27 34.2544 Q1633.95 30.163 1637.55 28.1376 Q1641.2 26.1121 1645.94 26.1121 Q1653.76 26.1121 1657.77 30.9732 Q1661.78 35.7938 1661.78 45.1919 Z" fill="#000000" fill-rule="evenodd" fill-opacity="1" /><path clip-path="url(#clip780)" d="M1684.02 14.324 L1684.02 27.2059 L1699.37 27.2059 L1699.37 32.9987 L1684.02 32.9987 L1684.02 57.6282 Q1684.02 63.1779 1685.52 64.7578 Q1687.06 66.3376 1691.71 66.3376 L1699.37 66.3376 L1699.37 72.576 L1691.71 72.576 Q1683.09 72.576 1679.8 69.3758 Q1676.52 66.1351 1676.52 57.6282 L1676.52 32.9987 L1671.05 32.9987 L1671.05 27.2059 L1676.52 27.2059 L1676.52 14.324 L1684.02 14.324 Z" fill="#000000" fill-rule="evenodd" fill-opacity="1" /><path clip-path="url(#clip780)" d="M1735.46 34.1734 Q1734.21 33.4443 1732.71 33.1202 Q1731.25 32.7556 1729.47 32.7556 Q1723.15 32.7556 1719.75 36.8875 Q1716.38 40.9789 1716.38 48.6757 L1716.38 72.576 L1708.89 72.576 L1708.89 27.2059 L1716.38 27.2059 L1716.38 34.2544 Q1718.73 30.1225 1722.5 28.1376 Q1726.27 26.1121 1731.66 26.1121 Q1732.43 26.1121 1733.36 26.2337 Q1734.29 26.3147 1735.42 26.5172 L1735.46 34.1734 Z" fill="#000000" fill-rule="evenodd" fill-opacity="1" /><path clip-path="url(#clip780)" d="M1763.9 49.7694 Q1754.87 49.7694 1751.38 51.8354 Q1747.9 53.9013 1747.9 58.8839 Q1747.9 62.8538 1750.49 65.2034 Q1753.13 67.5124 1757.62 67.5124 Q1763.82 67.5124 1767.55 63.1374 Q1771.31 58.7219 1771.31 51.4303 L1771.31 49.7694 L1763.9 49.7694 M1778.77 46.6907 L1778.77 72.576 L1771.31 72.576 L1771.31 65.6895 Q1768.76 69.8214 1764.95 71.8063 Q1761.15 73.7508 1755.64 73.7508 Q1748.67 73.7508 1744.54 69.8619 Q1740.45 65.9325 1740.45 59.3701 Q1740.45 51.7138 1745.55 47.825 Q1750.7 43.9361 1760.86 43.9361 L1771.31 43.9361 L1771.31 43.2069 Q1771.31 38.0623 1767.91 35.2672 Q1764.55 32.4315 1758.43 32.4315 Q1754.54 32.4315 1750.86 33.3632 Q1747.17 34.295 1743.77 36.1584 L1743.77 29.2718 Q1747.86 27.692 1751.71 26.9223 Q1755.56 26.1121 1759.2 26.1121 Q1769.05 26.1121 1773.91 31.2163 Q1778.77 36.3204 1778.77 46.6907 Z" fill="#000000" fill-rule="evenodd" fill-opacity="1" /><path clip-path="url(#clip780)" d="M1794.12 9.54393 L1801.57 9.54393 L1801.57 72.576 L1794.12 72.576 L1794.12 9.54393 Z" fill="#000000" fill-rule="evenodd" fill-opacity="1" /><path clip-path="url(#clip780)" d="M1843.87 12.096 L1882.11 12.096 L1882.11 18.9825 L1852.05 18.9825 L1852.05 36.8875 L1880.85 36.8875 L1880.85 43.7741 L1852.05 43.7741 L1852.05 65.6895 L1882.84 65.6895 L1882.84 72.576 L1843.87 72.576 L1843.87 12.096 Z" fill="#000000" fill-rule="evenodd" fill-opacity="1" /><path clip-path="url(#clip780)" d="M1925.82 34.0924 L1925.82 9.54393 L1933.27 9.54393 L1933.27 72.576 L1925.82 72.576 L1925.82 65.7705 Q1923.47 69.8214 1919.86 71.8063 Q1916.3 73.7508 1911.27 73.7508 Q1903.05 73.7508 1897.86 67.1883 Q1892.72 60.6258 1892.72 49.9314 Q1892.72 39.2371 1897.86 32.6746 Q1903.05 26.1121 1911.27 26.1121 Q1916.3 26.1121 1919.86 28.0971 Q1923.47 30.0415 1925.82 34.0924 M1900.42 49.9314 Q1900.42 58.1548 1903.78 62.8538 Q1907.18 67.5124 1913.1 67.5124 Q1919.01 67.5124 1922.41 62.8538 Q1925.82 58.1548 1925.82 49.9314 Q1925.82 41.7081 1922.41 37.0496 Q1919.01 32.3505 1913.1 32.3505 Q1907.18 32.3505 1903.78 37.0496 Q1900.42 41.7081 1900.42 49.9314 Z" fill="#000000" fill-rule="evenodd" fill-opacity="1" /><path clip-path="url(#clip780)" d="M1983.95 35.9153 Q1986.74 30.8922 1990.63 28.5022 Q1994.52 26.1121 1999.79 26.1121 Q2006.87 26.1121 2010.72 31.0947 Q2014.57 36.0368 2014.57 45.1919 L2014.57 72.576 L2007.08 72.576 L2007.08 45.4349 Q2007.08 38.913 2004.77 35.7533 Q2002.46 32.5936 1997.72 32.5936 Q1991.93 32.5936 1988.56 36.4419 Q1985.2 40.2903 1985.2 46.9338 L1985.2 72.576 L1977.71 72.576 L1977.71 45.4349 Q1977.71 38.8725 1975.4 35.7533 Q1973.09 32.5936 1968.27 32.5936 Q1962.56 32.5936 1959.2 36.4824 Q1955.83 40.3308 1955.83 46.9338 L1955.83 72.576 L1948.34 72.576 L1948.34 27.2059 L1955.83 27.2059 L1955.83 34.2544 Q1958.39 30.082 1961.95 28.0971 Q1965.51 26.1121 1970.42 26.1121 Q1975.36 26.1121 1978.8 28.6237 Q1982.29 31.1352 1983.95 35.9153 Z" fill="#000000" fill-rule="evenodd" fill-opacity="1" /><path clip-path="url(#clip780)" d="M2047.02 32.4315 Q2041.02 32.4315 2037.54 37.1306 Q2034.06 41.7891 2034.06 49.9314 Q2034.06 58.0738 2037.5 62.7728 Q2040.98 67.4314 2047.02 67.4314 Q2052.97 67.4314 2056.46 62.7323 Q2059.94 58.0333 2059.94 49.9314 Q2059.94 41.8701 2056.46 37.1711 Q2052.97 32.4315 2047.02 32.4315 M2047.02 26.1121 Q2056.74 26.1121 2062.29 32.4315 Q2067.84 38.7509 2067.84 49.9314 Q2067.84 61.0714 2062.29 67.4314 Q2056.74 73.7508 2047.02 73.7508 Q2037.26 73.7508 2031.71 67.4314 Q2026.2 61.0714 2026.2 49.9314 Q2026.2 38.7509 2031.71 32.4315 Q2037.26 26.1121 2047.02 26.1121 Z" fill="#000000" fill-rule="evenodd" fill-opacity="1" /><path clip-path="url(#clip780)" d="M2117.91 45.1919 L2117.91 72.576 L2110.46 72.576 L2110.46 45.4349 Q2110.46 38.994 2107.94 35.7938 Q2105.43 32.5936 2100.41 32.5936 Q2094.37 32.5936 2090.89 36.4419 Q2087.41 40.2903 2087.41 46.9338 L2087.41 72.576 L2079.91 72.576 L2079.91 27.2059 L2087.41 27.2059 L2087.41 34.2544 Q2090.08 30.163 2093.69 28.1376 Q2097.33 26.1121 2102.07 26.1121 Q2109.89 26.1121 2113.9 30.9732 Q2117.91 35.7938 2117.91 45.1919 Z" fill="#000000" fill-rule="evenodd" fill-opacity="1" /><path clip-path="url(#clip780)" d="M2140.15 14.324 L2140.15 27.2059 L2155.5 27.2059 L2155.5 32.9987 L2140.15 32.9987 L2140.15 57.6282 Q2140.15 63.1779 2141.65 64.7578 Q2143.19 66.3376 2147.85 66.3376 L2155.5 66.3376 L2155.5 72.576 L2147.85 72.576 Q2139.22 72.576 2135.94 69.3758 Q2132.65 66.1351 2132.65 57.6282 L2132.65 32.9987 L2127.19 32.9987 L2127.19 27.2059 L2132.65 27.2059 L2132.65 14.324 L2140.15 14.324 Z" fill="#000000" fill-rule="evenodd" fill-opacity="1" /><path clip-path="url(#clip780)" d="M2182.89 32.4315 Q2176.89 32.4315 2173.41 37.1306 Q2169.92 41.7891 2169.92 49.9314 Q2169.92 58.0738 2173.37 62.7728 Q2176.85 67.4314 2182.89 67.4314 Q2188.84 67.4314 2192.32 62.7323 Q2195.81 58.0333 2195.81 49.9314 Q2195.81 41.8701 2192.32 37.1711 Q2188.84 32.4315 2182.89 32.4315 M2182.89 26.1121 Q2192.61 26.1121 2198.16 32.4315 Q2203.71 38.7509 2203.71 49.9314 Q2203.71 61.0714 2198.16 67.4314 Q2192.61 73.7508 2182.89 73.7508 Q2173.12 73.7508 2167.57 67.4314 Q2162.06 61.0714 2162.06 49.9314 Q2162.06 38.7509 2167.57 32.4315 Q2173.12 26.1121 2182.89 26.1121 Z" fill="#000000" fill-rule="evenodd" fill-opacity="1" /><path clip-path="url(#clip780)" d="M2253.78 45.1919 L2253.78 72.576 L2246.32 72.576 L2246.32 45.4349 Q2246.32 38.994 2243.81 35.7938 Q2241.3 32.5936 2236.28 32.5936 Q2230.24 32.5936 2226.76 36.4419 Q2223.27 40.2903 2223.27 46.9338 L2223.27 72.576 L2215.78 72.576 L2215.78 27.2059 L2223.27 27.2059 L2223.27 34.2544 Q2225.95 30.163 2229.55 28.1376 Q2233.2 26.1121 2237.94 26.1121 Q2245.76 26.1121 2249.77 30.9732 Q2253.78 35.7938 2253.78 45.1919 Z" fill="#000000" fill-rule="evenodd" fill-opacity="1" /><circle clip-path="url(#clip782)" cx="264.778" cy="1339.24" r="14" fill="#009af9" fill-rule="evenodd" fill-opacity="1" stroke="#000000" stroke-opacity="1" stroke-width="3.2"/>
<circle clip-path="url(#clip782)" cx="301.549" cy="1386.4" r="14" fill="#009af9" fill-rule="evenodd" fill-opacity="1" stroke="#000000" stroke-opacity="1" stroke-width="3.2"/>
<circle clip-path="url(#clip782)" cx="342.183" cy="1292.08" r="14" fill="#009af9" fill-rule="evenodd" fill-opacity="1" stroke="#000000" stroke-opacity="1" stroke-width="3.2"/>
<circle clip-path="url(#clip782)" cx="376.091" cy="1244.92" r="14" fill="#009af9" fill-rule="evenodd" fill-opacity="1" stroke="#000000" stroke-opacity="1" stroke-width="3.2"/>
<circle clip-path="url(#clip782)" cx="376.758" cy="1197.76" r="14" fill="#009af9" fill-rule="evenodd" fill-opacity="1" stroke="#000000" stroke-opacity="1" stroke-width="3.2"/>
<circle clip-path="url(#clip782)" cx="551.216" cy="1386.4" r="14" fill="#009af9" fill-rule="evenodd" fill-opacity="1" stroke="#000000" stroke-opacity="1" stroke-width="3.2"/>
<circle clip-path="url(#clip782)" cx="574.985" cy="1386.4" r="14" fill="#009af9" fill-rule="evenodd" fill-opacity="1" stroke="#000000" stroke-opacity="1" stroke-width="3.2"/>
<circle clip-path="url(#clip782)" cx="575.024" cy="1292.08" r="14" fill="#009af9" fill-rule="evenodd" fill-opacity="1" stroke="#000000" stroke-opacity="1" stroke-width="3.2"/>
<circle clip-path="url(#clip782)" cx="840.336" cy="1292.08" r="14" fill="#009af9" fill-rule="evenodd" fill-opacity="1" stroke="#000000" stroke-opacity="1" stroke-width="3.2"/>
<circle clip-path="url(#clip782)" cx="840.413" cy="1386.4" r="14" fill="#009af9" fill-rule="evenodd" fill-opacity="1" stroke="#000000" stroke-opacity="1" stroke-width="3.2"/>
<circle clip-path="url(#clip782)" cx="840.464" cy="1339.24" r="14" fill="#009af9" fill-rule="evenodd" fill-opacity="1" stroke="#000000" stroke-opacity="1" stroke-width="3.2"/>
<circle clip-path="url(#clip782)" cx="1202.57" cy="1292.08" r="14" fill="#009af9" fill-rule="evenodd" fill-opacity="1" stroke="#000000" stroke-opacity="1" stroke-width="3.2"/>
<circle clip-path="url(#clip782)" cx="1231.75" cy="1386.4" r="14" fill="#009af9" fill-rule="evenodd" fill-opacity="1" stroke="#000000" stroke-opacity="1" stroke-width="3.2"/>
<circle clip-path="url(#clip782)" cx="1238.5" cy="1386.4" r="14" fill="#009af9" fill-rule="evenodd" fill-opacity="1" stroke="#000000" stroke-opacity="1" stroke-width="3.2"/>
<circle clip-path="url(#clip782)" cx="1238.84" cy="1386.4" r="14" fill="#009af9" fill-rule="evenodd" fill-opacity="1" stroke="#000000" stroke-opacity="1" stroke-width="3.2"/>
<circle clip-path="url(#clip782)" cx="1238.92" cy="1386.4" r="14" fill="#009af9" fill-rule="evenodd" fill-opacity="1" stroke="#000000" stroke-opacity="1" stroke-width="3.2"/>
<circle clip-path="url(#clip782)" cx="1238.98" cy="1386.4" r="14" fill="#009af9" fill-rule="evenodd" fill-opacity="1" stroke="#000000" stroke-opacity="1" stroke-width="3.2"/>
<circle clip-path="url(#clip782)" cx="1241.65" cy="1292.08" r="14" fill="#009af9" fill-rule="evenodd" fill-opacity="1" stroke="#000000" stroke-opacity="1" stroke-width="3.2"/>
<circle clip-path="url(#clip782)" cx="1241.83" cy="1386.4" r="14" fill="#009af9" fill-rule="evenodd" fill-opacity="1" stroke="#000000" stroke-opacity="1" stroke-width="3.2"/>
<circle clip-path="url(#clip782)" cx="1241.88" cy="1339.24" r="14" fill="#009af9" fill-rule="evenodd" fill-opacity="1" stroke="#000000" stroke-opacity="1" stroke-width="3.2"/>
<circle clip-path="url(#clip782)" cx="1274.07" cy="1386.4" r="14" fill="#009af9" fill-rule="evenodd" fill-opacity="1" stroke="#000000" stroke-opacity="1" stroke-width="3.2"/>
<circle clip-path="url(#clip782)" cx="1276.08" cy="1386.4" r="14" fill="#009af9" fill-rule="evenodd" fill-opacity="1" stroke="#000000" stroke-opacity="1" stroke-width="3.2"/>
<circle clip-path="url(#clip782)" cx="1304.05" cy="820.485" r="14" fill="#009af9" fill-rule="evenodd" fill-opacity="1" stroke="#000000" stroke-opacity="1" stroke-width="3.2"/>
<circle clip-path="url(#clip782)" cx="1304.32" cy="1339.24" r="14" fill="#009af9" fill-rule="evenodd" fill-opacity="1" stroke="#000000" stroke-opacity="1" stroke-width="3.2"/>
<circle clip-path="url(#clip782)" cx="1304.36" cy="1339.24" r="14" fill="#009af9" fill-rule="evenodd" fill-opacity="1" stroke="#000000" stroke-opacity="1" stroke-width="3.2"/>
<circle clip-path="url(#clip782)" cx="1304.4" cy="679.008" r="14" fill="#009af9" fill-rule="evenodd" fill-opacity="1" stroke="#000000" stroke-opacity="1" stroke-width="3.2"/>
<circle clip-path="url(#clip782)" cx="1304.62" cy="1339.24" r="14" fill="#009af9" fill-rule="evenodd" fill-opacity="1" stroke="#000000" stroke-opacity="1" stroke-width="3.2"/>
<circle clip-path="url(#clip782)" cx="1304.67" cy="1386.4" r="14" fill="#009af9" fill-rule="evenodd" fill-opacity="1" stroke="#000000" stroke-opacity="1" stroke-width="3.2"/>
<circle clip-path="url(#clip782)" cx="1304.86" cy="1339.24" r="14" fill="#009af9" fill-rule="evenodd" fill-opacity="1" stroke="#000000" stroke-opacity="1" stroke-width="3.2"/>
<circle clip-path="url(#clip782)" cx="1304.91" cy="1339.24" r="14" fill="#009af9" fill-rule="evenodd" fill-opacity="1" stroke="#000000" stroke-opacity="1" stroke-width="3.2"/>
<circle clip-path="url(#clip782)" cx="1368.08" cy="1292.08" r="14" fill="#009af9" fill-rule="evenodd" fill-opacity="1" stroke="#000000" stroke-opacity="1" stroke-width="3.2"/>
<circle clip-path="url(#clip782)" cx="1390.81" cy="1244.92" r="14" fill="#009af9" fill-rule="evenodd" fill-opacity="1" stroke="#000000" stroke-opacity="1" stroke-width="3.2"/>
<circle clip-path="url(#clip782)" cx="1400.06" cy="1056.28" r="14" fill="#009af9" fill-rule="evenodd" fill-opacity="1" stroke="#000000" stroke-opacity="1" stroke-width="3.2"/>
<circle clip-path="url(#clip782)" cx="1517.96" cy="1339.24" r="14" fill="#009af9" fill-rule="evenodd" fill-opacity="1" stroke="#000000" stroke-opacity="1" stroke-width="3.2"/>
<circle clip-path="url(#clip782)" cx="1582.28" cy="1244.92" r="14" fill="#009af9" fill-rule="evenodd" fill-opacity="1" stroke="#000000" stroke-opacity="1" stroke-width="3.2"/>
<circle clip-path="url(#clip782)" cx="1596.93" cy="1386.4" r="14" fill="#009af9" fill-rule="evenodd" fill-opacity="1" stroke="#000000" stroke-opacity="1" stroke-width="3.2"/>
<circle clip-path="url(#clip782)" cx="1794.2" cy="1386.4" r="14" fill="#009af9" fill-rule="evenodd" fill-opacity="1" stroke="#000000" stroke-opacity="1" stroke-width="3.2"/>
<circle clip-path="url(#clip782)" cx="1914.56" cy="1386.4" r="14" fill="#009af9" fill-rule="evenodd" fill-opacity="1" stroke="#000000" stroke-opacity="1" stroke-width="3.2"/>
<circle clip-path="url(#clip782)" cx="1914.58" cy="1339.24" r="14" fill="#009af9" fill-rule="evenodd" fill-opacity="1" stroke="#000000" stroke-opacity="1" stroke-width="3.2"/>
<circle clip-path="url(#clip782)" cx="1950.96" cy="1292.08" r="14" fill="#009af9" fill-rule="evenodd" fill-opacity="1" stroke="#000000" stroke-opacity="1" stroke-width="3.2"/>
<circle clip-path="url(#clip782)" cx="2089.94" cy="1103.44" r="14" fill="#009af9" fill-rule="evenodd" fill-opacity="1" stroke="#000000" stroke-opacity="1" stroke-width="3.2"/>
<circle clip-path="url(#clip782)" cx="2095.92" cy="1386.4" r="14" fill="#009af9" fill-rule="evenodd" fill-opacity="1" stroke="#000000" stroke-opacity="1" stroke-width="3.2"/>
<circle clip-path="url(#clip782)" cx="2106.16" cy="1386.4" r="14" fill="#009af9" fill-rule="evenodd" fill-opacity="1" stroke="#000000" stroke-opacity="1" stroke-width="3.2"/>
<circle clip-path="url(#clip782)" cx="2201.37" cy="867.644" r="14" fill="#009af9" fill-rule="evenodd" fill-opacity="1" stroke="#000000" stroke-opacity="1" stroke-width="3.2"/>
<circle clip-path="url(#clip782)" cx="2202.74" cy="443.212" r="14" fill="#009af9" fill-rule="evenodd" fill-opacity="1" stroke="#000000" stroke-opacity="1" stroke-width="3.2"/>
<circle clip-path="url(#clip782)" cx="2203.17" cy="1197.76" r="14" fill="#009af9" fill-rule="evenodd" fill-opacity="1" stroke="#000000" stroke-opacity="1" stroke-width="3.2"/>
<circle clip-path="url(#clip782)" cx="2203.42" cy="160.256" r="14" fill="#009af9" fill-rule="evenodd" fill-opacity="1" stroke="#000000" stroke-opacity="1" stroke-width="3.2"/>
<circle clip-path="url(#clip782)" cx="2205.08" cy="1339.24" r="14" fill="#009af9" fill-rule="evenodd" fill-opacity="1" stroke="#000000" stroke-opacity="1" stroke-width="3.2"/>
<circle clip-path="url(#clip782)" cx="2205.23" cy="1386.4" r="14" fill="#009af9" fill-rule="evenodd" fill-opacity="1" stroke="#000000" stroke-opacity="1" stroke-width="3.2"/>
<circle clip-path="url(#clip782)" cx="2205.28" cy="1386.4" r="14" fill="#009af9" fill-rule="evenodd" fill-opacity="1" stroke="#000000" stroke-opacity="1" stroke-width="3.2"/>
<circle clip-path="url(#clip782)" cx="2205.31" cy="1103.44" r="14" fill="#009af9" fill-rule="evenodd" fill-opacity="1" stroke="#000000" stroke-opacity="1" stroke-width="3.2"/>
<circle clip-path="url(#clip782)" cx="2291.62" cy="1056.28" r="14" fill="#009af9" fill-rule="evenodd" fill-opacity="1" stroke="#000000" stroke-opacity="1" stroke-width="3.2"/>
<circle clip-path="url(#clip782)" cx="2291.94" cy="1386.4" r="14" fill="#009af9" fill-rule="evenodd" fill-opacity="1" stroke="#000000" stroke-opacity="1" stroke-width="3.2"/>
</svg>
