<?xml version="1.0" encoding="utf-8"?>
<svg xmlns="http://www.w3.org/2000/svg" xmlns:xlink="http://www.w3.org/1999/xlink" width="600" height="400" viewBox="0 0 2400 1600">
<defs>
  <clipPath id="clip820">
    <rect x="0" y="0" width="2400" height="1600"/>
  </clipPath>
</defs>
<path clip-path="url(#clip820)" d="
M0 1600 L2400 1600 L2400 0 L0 0  Z
  " fill="#ffffff" fill-rule="evenodd" fill-opacity="1"/>
<defs>
  <clipPath id="clip821">
    <rect x="480" y="0" width="1681" height="1600"/>
  </clipPath>
</defs>
<path clip-path="url(#clip820)" d="
M235.283 1423.18 L2352.76 1423.18 L2352.76 123.472 L235.283 123.472  Z
  " fill="#ffffff" fill-rule="evenodd" fill-opacity="1"/>
<defs>
  <clipPath id="clip822">
    <rect x="235" y="123" width="2118" height="1301"/>
  </clipPath>
</defs>
<polyline clip-path="url(#clip822)" style="stroke:#000000; stroke-linecap:butt; stroke-linejoin:round; stroke-width:2; stroke-opacity:0.1; fill:none" points="
  314.976,1423.18 314.976,123.472 
  "/>
<polyline clip-path="url(#clip822)" style="stroke:#000000; stroke-linecap:butt; stroke-linejoin:round; stroke-width:2; stroke-opacity:0.1; fill:none" points="
  809.374,1423.18 809.374,123.472 
  "/>
<polyline clip-path="url(#clip822)" style="stroke:#000000; stroke-linecap:butt; stroke-linejoin:round; stroke-width:2; stroke-opacity:0.1; fill:none" points="
  1303.77,1423.18 1303.77,123.472 
  "/>
<polyline clip-path="url(#clip822)" style="stroke:#000000; stroke-linecap:butt; stroke-linejoin:round; stroke-width:2; stroke-opacity:0.1; fill:none" points="
  1798.17,1423.18 1798.17,123.472 
  "/>
<polyline clip-path="url(#clip822)" style="stroke:#000000; stroke-linecap:butt; stroke-linejoin:round; stroke-width:2; stroke-opacity:0.1; fill:none" points="
  2292.84,1423.18 2292.84,123.472 
  "/>
<polyline clip-path="url(#clip820)" style="stroke:#000000; stroke-linecap:butt; stroke-linejoin:round; stroke-width:4; stroke-opacity:1; fill:none" points="
  235.283,1423.18 2352.76,1423.18 
  "/>
<polyline clip-path="url(#clip820)" style="stroke:#000000; stroke-linecap:butt; stroke-linejoin:round; stroke-width:4; stroke-opacity:1; fill:none" points="
  314.976,1423.18 314.976,1407.58 
  "/>
<polyline clip-path="url(#clip820)" style="stroke:#000000; stroke-linecap:butt; stroke-linejoin:round; stroke-width:4; stroke-opacity:1; fill:none" points="
  809.374,1423.18 809.374,1407.58 
  "/>
<polyline clip-path="url(#clip820)" style="stroke:#000000; stroke-linecap:butt; stroke-linejoin:round; stroke-width:4; stroke-opacity:1; fill:none" points="
  1303.77,1423.18 1303.77,1407.58 
  "/>
<polyline clip-path="url(#clip820)" style="stroke:#000000; stroke-linecap:butt; stroke-linejoin:round; stroke-width:4; stroke-opacity:1; fill:none" points="
  1798.17,1423.18 1798.17,1407.58 
  "/>
<polyline clip-path="url(#clip820)" style="stroke:#000000; stroke-linecap:butt; stroke-linejoin:round; stroke-width:4; stroke-opacity:1; fill:none" points="
  2292.84,1423.18 2292.84,1407.58 
  "/>
<path clip-path="url(#clip820)" d="M186.771 1479.92 L203.09 1479.92 L203.09 1483.85 L181.146 1483.85 L181.146 1479.92 Q183.808 1477.16 188.391 1472.53 Q192.998 1467.88 194.178 1466.54 Q196.424 1464.01 197.303 1462.28 Q198.206 1460.52 198.206 1458.83 Q198.206 1456.07 196.262 1454.34 Q194.34 1452.6 191.239 1452.6 Q189.04 1452.6 186.586 1453.37 Q184.155 1454.13 181.378 1455.68 L181.378 1450.96 Q184.202 1449.82 186.655 1449.25 Q189.109 1448.67 191.146 1448.67 Q196.516 1448.67 199.711 1451.35 Q202.905 1454.04 202.905 1458.53 Q202.905 1460.66 202.095 1462.58 Q201.308 1464.48 199.202 1467.07 Q198.623 1467.74 195.521 1470.96 Q192.419 1474.15 186.771 1479.92 Z" fill="#000000" fill-rule="evenodd" fill-opacity="1" /><path clip-path="url(#clip820)" d="M222.905 1452.37 Q219.294 1452.37 217.465 1455.94 Q215.66 1459.48 215.66 1466.61 Q215.66 1473.71 217.465 1477.28 Q219.294 1480.82 222.905 1480.82 Q226.539 1480.82 228.345 1477.28 Q230.174 1473.71 230.174 1466.61 Q230.174 1459.48 228.345 1455.94 Q226.539 1452.37 222.905 1452.37 M222.905 1448.67 Q228.715 1448.67 231.771 1453.27 Q234.85 1457.86 234.85 1466.61 Q234.85 1475.33 231.771 1479.94 Q228.715 1484.52 222.905 1484.52 Q217.095 1484.52 214.016 1479.94 Q210.961 1475.33 210.961 1466.61 Q210.961 1457.86 214.016 1453.27 Q217.095 1448.67 222.905 1448.67 Z" fill="#000000" fill-rule="evenodd" fill-opacity="1" /><path clip-path="url(#clip820)" d="M253.067 1452.37 Q249.456 1452.37 247.627 1455.94 Q245.822 1459.48 245.822 1466.61 Q245.822 1473.71 247.627 1477.28 Q249.456 1480.82 253.067 1480.82 Q256.701 1480.82 258.507 1477.28 Q260.336 1473.71 260.336 1466.61 Q260.336 1459.48 258.507 1455.94 Q256.701 1452.37 253.067 1452.37 M253.067 1448.67 Q258.877 1448.67 261.933 1453.27 Q265.011 1457.86 265.011 1466.61 Q265.011 1475.33 261.933 1479.94 Q258.877 1484.52 253.067 1484.52 Q247.257 1484.52 244.178 1479.94 Q241.123 1475.33 241.123 1466.61 Q241.123 1457.86 244.178 1453.27 Q247.257 1448.67 253.067 1448.67 Z" fill="#000000" fill-rule="evenodd" fill-opacity="1" /><path clip-path="url(#clip820)" d="M274.039 1479.92 L281.678 1479.92 L281.678 1453.55 L273.368 1455.22 L273.368 1450.96 L281.632 1449.29 L286.308 1449.29 L286.308 1479.92 L293.946 1479.92 L293.946 1483.85 L274.039 1483.85 L274.039 1479.92 Z" fill="#000000" fill-rule="evenodd" fill-opacity="1" /><path clip-path="url(#clip820)" d="M300.636 1468.97 L313.113 1468.97 L313.113 1472.76 L300.636 1472.76 L300.636 1468.97 Z" fill="#000000" fill-rule="evenodd" fill-opacity="1" /><path clip-path="url(#clip820)" d="M330.497 1452.37 Q326.886 1452.37 325.057 1455.94 Q323.252 1459.48 323.252 1466.61 Q323.252 1473.71 325.057 1477.28 Q326.886 1480.82 330.497 1480.82 Q334.131 1480.82 335.937 1477.28 Q337.766 1473.71 337.766 1466.61 Q337.766 1459.48 335.937 1455.94 Q334.131 1452.37 330.497 1452.37 M330.497 1448.67 Q336.307 1448.67 339.363 1453.27 Q342.442 1457.86 342.442 1466.61 Q342.442 1475.33 339.363 1479.94 Q336.307 1484.52 330.497 1484.52 Q324.687 1484.52 321.608 1479.94 Q318.553 1475.33 318.553 1466.61 Q318.553 1457.86 321.608 1453.27 Q324.687 1448.67 330.497 1448.67 Z" fill="#000000" fill-rule="evenodd" fill-opacity="1" /><path clip-path="url(#clip820)" d="M351.469 1479.92 L359.108 1479.92 L359.108 1453.55 L350.798 1455.22 L350.798 1450.96 L359.062 1449.29 L363.738 1449.29 L363.738 1479.92 L371.377 1479.92 L371.377 1483.85 L351.469 1483.85 L351.469 1479.92 Z" fill="#000000" fill-rule="evenodd" fill-opacity="1" /><path clip-path="url(#clip820)" d="M378.066 1468.97 L390.543 1468.97 L390.543 1472.76 L378.066 1472.76 L378.066 1468.97 Z" fill="#000000" fill-rule="evenodd" fill-opacity="1" /><path clip-path="url(#clip820)" d="M407.927 1452.37 Q404.316 1452.37 402.488 1455.94 Q400.682 1459.48 400.682 1466.61 Q400.682 1473.71 402.488 1477.28 Q404.316 1480.82 407.927 1480.82 Q411.562 1480.82 413.367 1477.28 Q415.196 1473.71 415.196 1466.61 Q415.196 1459.48 413.367 1455.94 Q411.562 1452.37 407.927 1452.37 M407.927 1448.67 Q413.737 1448.67 416.793 1453.27 Q419.872 1457.86 419.872 1466.61 Q419.872 1475.33 416.793 1479.94 Q413.737 1484.52 407.927 1484.52 Q402.117 1484.52 399.038 1479.94 Q395.983 1475.33 395.983 1466.61 Q395.983 1457.86 399.038 1453.27 Q402.117 1448.67 407.927 1448.67 Z" fill="#000000" fill-rule="evenodd" fill-opacity="1" /><path clip-path="url(#clip820)" d="M428.899 1479.92 L436.538 1479.92 L436.538 1453.55 L428.228 1455.22 L428.228 1450.96 L436.492 1449.29 L441.168 1449.29 L441.168 1479.92 L448.807 1479.92 L448.807 1483.85 L428.899 1483.85 L428.899 1479.92 Z" fill="#000000" fill-rule="evenodd" fill-opacity="1" /><path clip-path="url(#clip820)" d="M681.169 1479.92 L697.488 1479.92 L697.488 1483.85 L675.544 1483.85 L675.544 1479.92 Q678.206 1477.16 682.789 1472.53 Q687.396 1467.88 688.576 1466.54 Q690.822 1464.01 691.701 1462.28 Q692.604 1460.52 692.604 1458.83 Q692.604 1456.07 690.66 1454.34 Q688.738 1452.6 685.637 1452.6 Q683.437 1452.6 680.984 1453.37 Q678.553 1454.13 675.775 1455.68 L675.775 1450.96 Q678.6 1449.82 681.053 1449.25 Q683.507 1448.67 685.544 1448.67 Q690.914 1448.67 694.109 1451.35 Q697.303 1454.04 697.303 1458.53 Q697.303 1460.66 696.493 1462.58 Q695.706 1464.48 693.599 1467.07 Q693.021 1467.74 689.919 1470.96 Q686.817 1474.15 681.169 1479.92 Z" fill="#000000" fill-rule="evenodd" fill-opacity="1" /><path clip-path="url(#clip820)" d="M717.303 1452.37 Q713.692 1452.37 711.863 1455.94 Q710.058 1459.48 710.058 1466.61 Q710.058 1473.71 711.863 1477.28 Q713.692 1480.82 717.303 1480.82 Q720.937 1480.82 722.743 1477.28 Q724.572 1473.71 724.572 1466.61 Q724.572 1459.48 722.743 1455.94 Q720.937 1452.37 717.303 1452.37 M717.303 1448.67 Q723.113 1448.67 726.169 1453.27 Q729.247 1457.86 729.247 1466.61 Q729.247 1475.33 726.169 1479.94 Q723.113 1484.52 717.303 1484.52 Q711.493 1484.52 708.414 1479.94 Q705.359 1475.33 705.359 1466.61 Q705.359 1457.86 708.414 1453.27 Q711.493 1448.67 717.303 1448.67 Z" fill="#000000" fill-rule="evenodd" fill-opacity="1" /><path clip-path="url(#clip820)" d="M747.465 1452.37 Q743.854 1452.37 742.025 1455.94 Q740.22 1459.48 740.22 1466.61 Q740.22 1473.71 742.025 1477.28 Q743.854 1480.82 747.465 1480.82 Q751.099 1480.82 752.905 1477.28 Q754.733 1473.71 754.733 1466.61 Q754.733 1459.48 752.905 1455.94 Q751.099 1452.37 747.465 1452.37 M747.465 1448.67 Q753.275 1448.67 756.331 1453.27 Q759.409 1457.86 759.409 1466.61 Q759.409 1475.33 756.331 1479.94 Q753.275 1484.52 747.465 1484.52 Q741.655 1484.52 738.576 1479.94 Q735.521 1475.33 735.521 1466.61 Q735.521 1457.86 738.576 1453.27 Q741.655 1448.67 747.465 1448.67 Z" fill="#000000" fill-rule="evenodd" fill-opacity="1" /><path clip-path="url(#clip820)" d="M778.205 1464.71 Q775.057 1464.71 773.206 1466.86 Q771.377 1469.01 771.377 1472.76 Q771.377 1476.49 773.206 1478.67 Q775.057 1480.82 778.205 1480.82 Q781.354 1480.82 783.182 1478.67 Q785.034 1476.49 785.034 1472.76 Q785.034 1469.01 783.182 1466.86 Q781.354 1464.71 778.205 1464.71 M787.488 1450.06 L787.488 1454.31 Q785.729 1453.48 783.923 1453.04 Q782.141 1452.6 780.381 1452.6 Q775.752 1452.6 773.298 1455.73 Q770.868 1458.85 770.52 1465.17 Q771.886 1463.16 773.946 1462.09 Q776.006 1461 778.483 1461 Q783.692 1461 786.701 1464.18 Q789.733 1467.32 789.733 1472.76 Q789.733 1478.09 786.585 1481.31 Q783.437 1484.52 778.205 1484.52 Q772.21 1484.52 769.039 1479.94 Q765.868 1475.33 765.868 1466.61 Q765.868 1458.41 769.756 1453.55 Q773.645 1448.67 780.196 1448.67 Q781.955 1448.67 783.738 1449.01 Q785.543 1449.36 787.488 1450.06 Z" fill="#000000" fill-rule="evenodd" fill-opacity="1" /><path clip-path="url(#clip820)" d="M795.034 1468.97 L807.511 1468.97 L807.511 1472.76 L795.034 1472.76 L795.034 1468.97 Z" fill="#000000" fill-rule="evenodd" fill-opacity="1" /><path clip-path="url(#clip820)" d="M824.895 1452.37 Q821.284 1452.37 819.455 1455.94 Q817.65 1459.48 817.65 1466.61 Q817.65 1473.71 819.455 1477.28 Q821.284 1480.82 824.895 1480.82 Q828.529 1480.82 830.335 1477.28 Q832.164 1473.71 832.164 1466.61 Q832.164 1459.48 830.335 1455.94 Q828.529 1452.37 824.895 1452.37 M824.895 1448.67 Q830.705 1448.67 833.761 1453.27 Q836.839 1457.86 836.839 1466.61 Q836.839 1475.33 833.761 1479.94 Q830.705 1484.52 824.895 1484.52 Q819.085 1484.52 816.006 1479.94 Q812.951 1475.33 812.951 1466.61 Q812.951 1457.86 816.006 1453.27 Q819.085 1448.67 824.895 1448.67 Z" fill="#000000" fill-rule="evenodd" fill-opacity="1" /><path clip-path="url(#clip820)" d="M845.867 1479.92 L853.506 1479.92 L853.506 1453.55 L845.196 1455.22 L845.196 1450.96 L853.46 1449.29 L858.136 1449.29 L858.136 1479.92 L865.774 1479.92 L865.774 1483.85 L845.867 1483.85 L845.867 1479.92 Z" fill="#000000" fill-rule="evenodd" fill-opacity="1" /><path clip-path="url(#clip820)" d="M872.464 1468.97 L884.941 1468.97 L884.941 1472.76 L872.464 1472.76 L872.464 1468.97 Z" fill="#000000" fill-rule="evenodd" fill-opacity="1" /><path clip-path="url(#clip820)" d="M902.325 1452.37 Q898.714 1452.37 896.885 1455.94 Q895.08 1459.48 895.08 1466.61 Q895.08 1473.71 896.885 1477.28 Q898.714 1480.82 902.325 1480.82 Q905.959 1480.82 907.765 1477.28 Q909.594 1473.71 909.594 1466.61 Q909.594 1459.48 907.765 1455.94 Q905.959 1452.37 902.325 1452.37 M902.325 1448.67 Q908.135 1448.67 911.191 1453.27 Q914.27 1457.86 914.27 1466.61 Q914.27 1475.33 911.191 1479.94 Q908.135 1484.52 902.325 1484.52 Q896.515 1484.52 893.436 1479.94 Q890.381 1475.33 890.381 1466.61 Q890.381 1457.86 893.436 1453.27 Q896.515 1448.67 902.325 1448.67 Z" fill="#000000" fill-rule="evenodd" fill-opacity="1" /><path clip-path="url(#clip820)" d="M923.297 1479.92 L930.936 1479.92 L930.936 1453.55 L922.626 1455.22 L922.626 1450.96 L930.89 1449.29 L935.566 1449.29 L935.566 1479.92 L943.205 1479.92 L943.205 1483.85 L923.297 1483.85 L923.297 1479.92 Z" fill="#000000" fill-rule="evenodd" fill-opacity="1" /><path clip-path="url(#clip820)" d="M1175.57 1479.92 L1191.89 1479.92 L1191.89 1483.85 L1169.94 1483.85 L1169.94 1479.92 Q1172.6 1477.16 1177.19 1472.53 Q1181.79 1467.88 1182.97 1466.54 Q1185.22 1464.01 1186.1 1462.28 Q1187 1460.52 1187 1458.83 Q1187 1456.07 1185.06 1454.34 Q1183.14 1452.6 1180.03 1452.6 Q1177.84 1452.6 1175.38 1453.37 Q1172.95 1454.13 1170.17 1455.68 L1170.17 1450.96 Q1173 1449.82 1175.45 1449.25 Q1177.9 1448.67 1179.94 1448.67 Q1185.31 1448.67 1188.51 1451.35 Q1191.7 1454.04 1191.7 1458.53 Q1191.7 1460.66 1190.89 1462.58 Q1190.1 1464.48 1188 1467.07 Q1187.42 1467.74 1184.32 1470.96 Q1181.21 1474.15 1175.57 1479.92 Z" fill="#000000" fill-rule="evenodd" fill-opacity="1" /><path clip-path="url(#clip820)" d="M1211.7 1452.37 Q1208.09 1452.37 1206.26 1455.94 Q1204.46 1459.48 1204.46 1466.61 Q1204.46 1473.71 1206.26 1477.28 Q1208.09 1480.82 1211.7 1480.82 Q1215.34 1480.82 1217.14 1477.28 Q1218.97 1473.71 1218.97 1466.61 Q1218.97 1459.48 1217.14 1455.94 Q1215.34 1452.37 1211.7 1452.37 M1211.7 1448.67 Q1217.51 1448.67 1220.57 1453.27 Q1223.65 1457.86 1223.65 1466.61 Q1223.65 1475.33 1220.57 1479.94 Q1217.51 1484.52 1211.7 1484.52 Q1205.89 1484.52 1202.81 1479.94 Q1199.76 1475.33 1199.76 1466.61 Q1199.76 1457.86 1202.81 1453.27 Q1205.89 1448.67 1211.7 1448.67 Z" fill="#000000" fill-rule="evenodd" fill-opacity="1" /><path clip-path="url(#clip820)" d="M1232.67 1479.92 L1240.31 1479.92 L1240.31 1453.55 L1232 1455.22 L1232 1450.96 L1240.27 1449.29 L1244.94 1449.29 L1244.94 1479.92 L1252.58 1479.92 L1252.58 1483.85 L1232.67 1483.85 L1232.67 1479.92 Z" fill="#000000" fill-rule="evenodd" fill-opacity="1" /><path clip-path="url(#clip820)" d="M1262.83 1479.92 L1270.47 1479.92 L1270.47 1453.55 L1262.16 1455.22 L1262.16 1450.96 L1270.43 1449.29 L1275.1 1449.29 L1275.1 1479.92 L1282.74 1479.92 L1282.74 1483.85 L1262.83 1483.85 L1262.83 1479.92 Z" fill="#000000" fill-rule="evenodd" fill-opacity="1" /><path clip-path="url(#clip820)" d="M1289.43 1468.97 L1301.91 1468.97 L1301.91 1472.76 L1289.43 1472.76 L1289.43 1468.97 Z" fill="#000000" fill-rule="evenodd" fill-opacity="1" /><path clip-path="url(#clip820)" d="M1319.29 1452.37 Q1315.68 1452.37 1313.85 1455.94 Q1312.05 1459.48 1312.05 1466.61 Q1312.05 1473.71 1313.85 1477.28 Q1315.68 1480.82 1319.29 1480.82 Q1322.93 1480.82 1324.73 1477.28 Q1326.56 1473.71 1326.56 1466.61 Q1326.56 1459.48 1324.73 1455.94 Q1322.93 1452.37 1319.29 1452.37 M1319.29 1448.67 Q1325.1 1448.67 1328.16 1453.27 Q1331.24 1457.86 1331.24 1466.61 Q1331.24 1475.33 1328.16 1479.94 Q1325.1 1484.52 1319.29 1484.52 Q1313.48 1484.52 1310.4 1479.94 Q1307.35 1475.33 1307.35 1466.61 Q1307.35 1457.86 1310.4 1453.27 Q1313.48 1448.67 1319.29 1448.67 Z" fill="#000000" fill-rule="evenodd" fill-opacity="1" /><path clip-path="url(#clip820)" d="M1340.27 1479.92 L1347.9 1479.92 L1347.9 1453.55 L1339.59 1455.22 L1339.59 1450.96 L1347.86 1449.29 L1352.53 1449.29 L1352.53 1479.92 L1360.17 1479.92 L1360.17 1483.85 L1340.27 1483.85 L1340.27 1479.92 Z" fill="#000000" fill-rule="evenodd" fill-opacity="1" /><path clip-path="url(#clip820)" d="M1366.86 1468.97 L1379.34 1468.97 L1379.34 1472.76 L1366.86 1472.76 L1366.86 1468.97 Z" fill="#000000" fill-rule="evenodd" fill-opacity="1" /><path clip-path="url(#clip820)" d="M1396.72 1452.37 Q1393.11 1452.37 1391.28 1455.94 Q1389.48 1459.48 1389.48 1466.61 Q1389.48 1473.71 1391.28 1477.28 Q1393.11 1480.82 1396.72 1480.82 Q1400.36 1480.82 1402.16 1477.28 Q1403.99 1473.71 1403.99 1466.61 Q1403.99 1459.48 1402.16 1455.94 Q1400.36 1452.37 1396.72 1452.37 M1396.72 1448.67 Q1402.53 1448.67 1405.59 1453.27 Q1408.67 1457.86 1408.67 1466.61 Q1408.67 1475.33 1405.59 1479.94 Q1402.53 1484.52 1396.72 1484.52 Q1390.91 1484.52 1387.83 1479.94 Q1384.78 1475.33 1384.78 1466.61 Q1384.78 1457.86 1387.83 1453.27 Q1390.91 1448.67 1396.72 1448.67 Z" fill="#000000" fill-rule="evenodd" fill-opacity="1" /><path clip-path="url(#clip820)" d="M1417.7 1479.92 L1425.33 1479.92 L1425.33 1453.55 L1417.02 1455.22 L1417.02 1450.96 L1425.29 1449.29 L1429.96 1449.29 L1429.96 1479.92 L1437.6 1479.92 L1437.6 1483.85 L1417.7 1483.85 L1417.7 1479.92 Z" fill="#000000" fill-rule="evenodd" fill-opacity="1" /><path clip-path="url(#clip820)" d="M1669.96 1479.92 L1686.28 1479.92 L1686.28 1483.85 L1664.34 1483.85 L1664.34 1479.92 Q1667 1477.16 1671.59 1472.53 Q1676.19 1467.88 1677.37 1466.54 Q1679.62 1464.01 1680.5 1462.28 Q1681.4 1460.52 1681.4 1458.83 Q1681.4 1456.07 1679.46 1454.34 Q1677.53 1452.6 1674.43 1452.6 Q1672.23 1452.6 1669.78 1453.37 Q1667.35 1454.13 1664.57 1455.68 L1664.57 1450.96 Q1667.4 1449.82 1669.85 1449.25 Q1672.3 1448.67 1674.34 1448.67 Q1679.71 1448.67 1682.9 1451.35 Q1686.1 1454.04 1686.1 1458.53 Q1686.1 1460.66 1685.29 1462.58 Q1684.5 1464.48 1682.4 1467.07 Q1681.82 1467.74 1678.71 1470.96 Q1675.61 1474.15 1669.96 1479.92 Z" fill="#000000" fill-rule="evenodd" fill-opacity="1" /><path clip-path="url(#clip820)" d="M1706.1 1452.37 Q1702.49 1452.37 1700.66 1455.94 Q1698.85 1459.48 1698.85 1466.61 Q1698.85 1473.71 1700.66 1477.28 Q1702.49 1480.82 1706.1 1480.82 Q1709.73 1480.82 1711.54 1477.28 Q1713.37 1473.71 1713.37 1466.61 Q1713.37 1459.48 1711.54 1455.94 Q1709.73 1452.37 1706.1 1452.37 M1706.1 1448.67 Q1711.91 1448.67 1714.96 1453.27 Q1718.04 1457.86 1718.04 1466.61 Q1718.04 1475.33 1714.96 1479.94 Q1711.91 1484.52 1706.1 1484.52 Q1700.29 1484.52 1697.21 1479.94 Q1694.15 1475.33 1694.15 1466.61 Q1694.15 1457.86 1697.21 1453.27 Q1700.29 1448.67 1706.1 1448.67 Z" fill="#000000" fill-rule="evenodd" fill-opacity="1" /><path clip-path="url(#clip820)" d="M1727.07 1479.92 L1734.71 1479.92 L1734.71 1453.55 L1726.4 1455.22 L1726.4 1450.96 L1734.66 1449.29 L1739.34 1449.29 L1739.34 1479.92 L1746.98 1479.92 L1746.98 1483.85 L1727.07 1483.85 L1727.07 1479.92 Z" fill="#000000" fill-rule="evenodd" fill-opacity="1" /><path clip-path="url(#clip820)" d="M1767 1464.71 Q1763.85 1464.71 1762 1466.86 Q1760.17 1469.01 1760.17 1472.76 Q1760.17 1476.49 1762 1478.67 Q1763.85 1480.82 1767 1480.82 Q1770.15 1480.82 1771.98 1478.67 Q1773.83 1476.49 1773.83 1472.76 Q1773.83 1469.01 1771.98 1466.86 Q1770.15 1464.71 1767 1464.71 M1776.28 1450.06 L1776.28 1454.31 Q1774.52 1453.48 1772.72 1453.04 Q1770.94 1452.6 1769.18 1452.6 Q1764.55 1452.6 1762.09 1455.73 Q1759.66 1458.85 1759.32 1465.17 Q1760.68 1463.16 1762.74 1462.09 Q1764.8 1461 1767.28 1461 Q1772.49 1461 1775.5 1464.18 Q1778.53 1467.32 1778.53 1472.76 Q1778.53 1478.09 1775.38 1481.31 Q1772.23 1484.52 1767 1484.52 Q1761.01 1484.52 1757.83 1479.94 Q1754.66 1475.33 1754.66 1466.61 Q1754.66 1458.41 1758.55 1453.55 Q1762.44 1448.67 1768.99 1448.67 Q1770.75 1448.67 1772.53 1449.01 Q1774.34 1449.36 1776.28 1450.06 Z" fill="#000000" fill-rule="evenodd" fill-opacity="1" /><path clip-path="url(#clip820)" d="M1783.83 1468.97 L1796.31 1468.97 L1796.31 1472.76 L1783.83 1472.76 L1783.83 1468.97 Z" fill="#000000" fill-rule="evenodd" fill-opacity="1" /><path clip-path="url(#clip820)" d="M1813.69 1452.37 Q1810.08 1452.37 1808.25 1455.94 Q1806.45 1459.48 1806.45 1466.61 Q1806.45 1473.71 1808.25 1477.28 Q1810.08 1480.82 1813.69 1480.82 Q1817.33 1480.82 1819.13 1477.28 Q1820.96 1473.71 1820.96 1466.61 Q1820.96 1459.48 1819.13 1455.94 Q1817.33 1452.37 1813.69 1452.37 M1813.69 1448.67 Q1819.5 1448.67 1822.56 1453.27 Q1825.64 1457.86 1825.64 1466.61 Q1825.64 1475.33 1822.56 1479.94 Q1819.5 1484.52 1813.69 1484.52 Q1807.88 1484.52 1804.8 1479.94 Q1801.75 1475.33 1801.75 1466.61 Q1801.75 1457.86 1804.8 1453.27 Q1807.88 1448.67 1813.69 1448.67 Z" fill="#000000" fill-rule="evenodd" fill-opacity="1" /><path clip-path="url(#clip820)" d="M1834.66 1479.92 L1842.3 1479.92 L1842.3 1453.55 L1833.99 1455.22 L1833.99 1450.96 L1842.26 1449.29 L1846.93 1449.29 L1846.93 1479.92 L1854.57 1479.92 L1854.57 1483.85 L1834.66 1483.85 L1834.66 1479.92 Z" fill="#000000" fill-rule="evenodd" fill-opacity="1" /><path clip-path="url(#clip820)" d="M1861.26 1468.97 L1873.74 1468.97 L1873.74 1472.76 L1861.26 1472.76 L1861.26 1468.97 Z" fill="#000000" fill-rule="evenodd" fill-opacity="1" /><path clip-path="url(#clip820)" d="M1891.12 1452.37 Q1887.51 1452.37 1885.68 1455.94 Q1883.88 1459.48 1883.88 1466.61 Q1883.88 1473.71 1885.68 1477.28 Q1887.51 1480.82 1891.12 1480.82 Q1894.76 1480.82 1896.56 1477.28 Q1898.39 1473.71 1898.39 1466.61 Q1898.39 1459.48 1896.56 1455.94 Q1894.76 1452.37 1891.12 1452.37 M1891.12 1448.67 Q1896.93 1448.67 1899.99 1453.27 Q1903.07 1457.86 1903.07 1466.61 Q1903.07 1475.33 1899.99 1479.94 Q1896.93 1484.52 1891.12 1484.52 Q1885.31 1484.52 1882.23 1479.94 Q1879.18 1475.33 1879.18 1466.61 Q1879.18 1457.86 1882.23 1453.27 Q1885.31 1448.67 1891.12 1448.67 Z" fill="#000000" fill-rule="evenodd" fill-opacity="1" /><path clip-path="url(#clip820)" d="M1912.09 1479.92 L1919.73 1479.92 L1919.73 1453.55 L1911.42 1455.22 L1911.42 1450.96 L1919.69 1449.29 L1924.36 1449.29 L1924.36 1479.92 L1932 1479.92 L1932 1483.85 L1912.09 1483.85 L1912.09 1479.92 Z" fill="#000000" fill-rule="evenodd" fill-opacity="1" /><path clip-path="url(#clip820)" d="M2164.63 1479.92 L2180.95 1479.92 L2180.95 1483.85 L2159.01 1483.85 L2159.01 1479.92 Q2161.67 1477.16 2166.25 1472.53 Q2170.86 1467.88 2172.04 1466.54 Q2174.29 1464.01 2175.17 1462.28 Q2176.07 1460.52 2176.07 1458.83 Q2176.07 1456.07 2174.12 1454.34 Q2172.2 1452.6 2169.1 1452.6 Q2166.9 1452.6 2164.45 1453.37 Q2162.02 1454.13 2159.24 1455.68 L2159.24 1450.96 Q2162.06 1449.82 2164.52 1449.25 Q2166.97 1448.67 2169.01 1448.67 Q2174.38 1448.67 2177.57 1451.35 Q2180.77 1454.04 2180.77 1458.53 Q2180.77 1460.66 2179.96 1462.58 Q2179.17 1464.48 2177.06 1467.07 Q2176.49 1467.74 2173.38 1470.96 Q2170.28 1474.15 2164.63 1479.92 Z" fill="#000000" fill-rule="evenodd" fill-opacity="1" /><path clip-path="url(#clip820)" d="M2200.77 1452.37 Q2197.16 1452.37 2195.33 1455.94 Q2193.52 1459.48 2193.52 1466.61 Q2193.52 1473.71 2195.33 1477.28 Q2197.16 1480.82 2200.77 1480.82 Q2204.4 1480.82 2206.21 1477.28 Q2208.04 1473.71 2208.04 1466.61 Q2208.04 1459.48 2206.21 1455.94 Q2204.4 1452.37 2200.77 1452.37 M2200.77 1448.67 Q2206.58 1448.67 2209.63 1453.27 Q2212.71 1457.86 2212.71 1466.61 Q2212.71 1475.33 2209.63 1479.94 Q2206.58 1484.52 2200.77 1484.52 Q2194.96 1484.52 2191.88 1479.94 Q2188.82 1475.33 2188.82 1466.61 Q2188.82 1457.86 2191.88 1453.27 Q2194.96 1448.67 2200.77 1448.67 Z" fill="#000000" fill-rule="evenodd" fill-opacity="1" /><path clip-path="url(#clip820)" d="M2224.96 1479.92 L2241.28 1479.92 L2241.28 1483.85 L2219.33 1483.85 L2219.33 1479.92 Q2221.99 1477.16 2226.58 1472.53 Q2231.18 1467.88 2232.36 1466.54 Q2234.61 1464.01 2235.49 1462.28 Q2236.39 1460.52 2236.39 1458.83 Q2236.39 1456.07 2234.45 1454.34 Q2232.53 1452.6 2229.42 1452.6 Q2227.23 1452.6 2224.77 1453.37 Q2222.34 1454.13 2219.56 1455.68 L2219.56 1450.96 Q2222.39 1449.82 2224.84 1449.25 Q2227.3 1448.67 2229.33 1448.67 Q2234.7 1448.67 2237.9 1451.35 Q2241.09 1454.04 2241.09 1458.53 Q2241.09 1460.66 2240.28 1462.58 Q2239.49 1464.48 2237.39 1467.07 Q2236.81 1467.74 2233.71 1470.96 Q2230.61 1474.15 2224.96 1479.92 Z" fill="#000000" fill-rule="evenodd" fill-opacity="1" /><path clip-path="url(#clip820)" d="M2251.9 1479.92 L2259.54 1479.92 L2259.54 1453.55 L2251.23 1455.22 L2251.23 1450.96 L2259.49 1449.29 L2264.17 1449.29 L2264.17 1479.92 L2271.81 1479.92 L2271.81 1483.85 L2251.9 1483.85 L2251.9 1479.92 Z" fill="#000000" fill-rule="evenodd" fill-opacity="1" /><path clip-path="url(#clip820)" d="M2278.5 1468.97 L2290.98 1468.97 L2290.98 1472.76 L2278.5 1472.76 L2278.5 1468.97 Z" fill="#000000" fill-rule="evenodd" fill-opacity="1" /><path clip-path="url(#clip820)" d="M2308.36 1452.37 Q2304.75 1452.37 2302.92 1455.94 Q2301.11 1459.48 2301.11 1466.61 Q2301.11 1473.71 2302.92 1477.28 Q2304.75 1480.82 2308.36 1480.82 Q2311.99 1480.82 2313.8 1477.28 Q2315.63 1473.71 2315.63 1466.61 Q2315.63 1459.48 2313.8 1455.94 Q2311.99 1452.37 2308.36 1452.37 M2308.36 1448.67 Q2314.17 1448.67 2317.23 1453.27 Q2320.3 1457.86 2320.3 1466.61 Q2320.3 1475.33 2317.23 1479.94 Q2314.17 1484.52 2308.36 1484.52 Q2302.55 1484.52 2299.47 1479.94 Q2296.42 1475.33 2296.42 1466.61 Q2296.42 1457.86 2299.47 1453.27 Q2302.55 1448.67 2308.36 1448.67 Z" fill="#000000" fill-rule="evenodd" fill-opacity="1" /><path clip-path="url(#clip820)" d="M2329.33 1479.92 L2336.97 1479.92 L2336.97 1453.55 L2328.66 1455.22 L2328.66 1450.96 L2336.92 1449.29 L2341.6 1449.29 L2341.6 1479.92 L2349.24 1479.92 L2349.24 1483.85 L2329.33 1483.85 L2329.33 1479.92 Z" fill="#000000" fill-rule="evenodd" fill-opacity="1" /><path clip-path="url(#clip820)" d="M2355.93 1468.97 L2368.41 1468.97 L2368.41 1472.76 L2355.93 1472.76 L2355.93 1468.97 Z" fill="#000000" fill-rule="evenodd" fill-opacity="1" /><path clip-path="url(#clip820)" d="M2385.79 1452.37 Q2382.18 1452.37 2380.35 1455.94 Q2378.54 1459.48 2378.54 1466.61 Q2378.54 1473.71 2380.35 1477.28 Q2382.18 1480.82 2385.79 1480.82 Q2389.42 1480.82 2391.23 1477.28 Q2393.06 1473.71 2393.06 1466.61 Q2393.06 1459.48 2391.23 1455.94 Q2389.42 1452.37 2385.79 1452.37 M2385.79 1448.67 Q2391.6 1448.67 2394.66 1453.27 Q2397.73 1457.86 2397.73 1466.61 Q2397.73 1475.33 2394.66 1479.94 Q2391.6 1484.52 2385.79 1484.52 Q2379.98 1484.52 2376.9 1479.94 Q2373.85 1475.33 2373.85 1466.61 Q2373.85 1457.86 2376.9 1453.27 Q2379.98 1448.67 2385.79 1448.67 Z" fill="#000000" fill-rule="evenodd" fill-opacity="1" /><path clip-path="url(#clip820)" d="M2406.76 1479.92 L2414.4 1479.92 L2414.4 1453.55 L2406.09 1455.22 L2406.09 1450.96 L2414.35 1449.29 L2419.03 1449.29 L2419.03 1479.92 L2426.67 1479.92 L2426.67 1483.85 L2406.76 1483.85 L2406.76 1479.92 Z" fill="#000000" fill-rule="evenodd" fill-opacity="1" /><path clip-path="url(#clip820)" d="M1227.48 1525.81 L1227.48 1562.76 L1235.25 1562.76 Q1245.08 1562.76 1249.63 1558.3 Q1254.22 1553.85 1254.22 1544.24 Q1254.22 1534.69 1249.63 1530.26 Q1245.08 1525.81 1235.25 1525.81 L1227.48 1525.81 M1221.05 1520.52 L1234.26 1520.52 Q1248.07 1520.52 1254.54 1526.28 Q1261 1532.01 1261 1544.24 Q1261 1556.52 1254.5 1562.28 Q1248.01 1568.04 1234.26 1568.04 L1221.05 1568.04 L1221.05 1520.52 Z" fill="#000000" fill-rule="evenodd" fill-opacity="1" /><path clip-path="url(#clip820)" d="M1287.19 1550.12 Q1280.09 1550.12 1277.36 1551.75 Q1274.62 1553.37 1274.62 1557.29 Q1274.62 1560.4 1276.66 1562.25 Q1278.73 1564.07 1282.26 1564.07 Q1287.13 1564.07 1290.06 1560.63 Q1293.02 1557.16 1293.02 1551.43 L1293.02 1550.12 L1287.19 1550.12 M1298.87 1547.71 L1298.87 1568.04 L1293.02 1568.04 L1293.02 1562.63 Q1291.01 1565.88 1288.02 1567.44 Q1285.03 1568.97 1280.7 1568.97 Q1275.22 1568.97 1271.98 1565.91 Q1268.76 1562.82 1268.76 1557.67 Q1268.76 1551.65 1272.77 1548.6 Q1276.82 1545.54 1284.81 1545.54 L1293.02 1545.54 L1293.02 1544.97 Q1293.02 1540.93 1290.34 1538.73 Q1287.7 1536.5 1282.9 1536.5 Q1279.84 1536.5 1276.94 1537.23 Q1274.05 1537.97 1271.37 1539.43 L1271.37 1534.02 Q1274.59 1532.78 1277.61 1532.17 Q1280.64 1531.54 1283.5 1531.54 Q1291.23 1531.54 1295.05 1535.55 Q1298.87 1539.56 1298.87 1547.71 Z" fill="#000000" fill-rule="evenodd" fill-opacity="1" /><path clip-path="url(#clip820)" d="M1316.73 1522.27 L1316.73 1532.4 L1328.79 1532.4 L1328.79 1536.95 L1316.73 1536.95 L1316.73 1556.3 Q1316.73 1560.66 1317.91 1561.9 Q1319.12 1563.14 1322.78 1563.14 L1328.79 1563.14 L1328.79 1568.04 L1322.78 1568.04 Q1316 1568.04 1313.42 1565.53 Q1310.84 1562.98 1310.84 1556.3 L1310.84 1536.95 L1306.54 1536.95 L1306.54 1532.4 L1310.84 1532.4 L1310.84 1522.27 L1316.73 1522.27 Z" fill="#000000" fill-rule="evenodd" fill-opacity="1" /><path clip-path="url(#clip820)" d="M1366.99 1548.76 L1366.99 1551.62 L1340.06 1551.62 Q1340.44 1557.67 1343.69 1560.85 Q1346.97 1564 1352.79 1564 Q1356.16 1564 1359.32 1563.17 Q1362.5 1562.35 1365.62 1560.69 L1365.62 1566.23 Q1362.47 1567.57 1359.16 1568.27 Q1355.85 1568.97 1352.44 1568.97 Q1343.91 1568.97 1338.91 1564 Q1333.95 1559.04 1333.95 1550.57 Q1333.95 1541.82 1338.66 1536.69 Q1343.4 1531.54 1351.42 1531.54 Q1358.62 1531.54 1362.78 1536.18 Q1366.99 1540.8 1366.99 1548.76 M1361.13 1547.04 Q1361.07 1542.23 1358.42 1539.37 Q1355.81 1536.5 1351.49 1536.5 Q1346.58 1536.5 1343.62 1539.27 Q1340.7 1542.04 1340.25 1547.07 L1361.13 1547.04 Z" fill="#000000" fill-rule="evenodd" fill-opacity="1" /><polyline clip-path="url(#clip822)" style="stroke:#000000; stroke-linecap:butt; stroke-linejoin:round; stroke-width:2; stroke-opacity:0.1; fill:none" points="
  235.283,1199.44 2352.76,1199.44 
  "/>
<polyline clip-path="url(#clip822)" style="stroke:#000000; stroke-linecap:butt; stroke-linejoin:round; stroke-width:2; stroke-opacity:0.1; fill:none" points="
  235.283,887.838 2352.76,887.838 
  "/>
<polyline clip-path="url(#clip822)" style="stroke:#000000; stroke-linecap:butt; stroke-linejoin:round; stroke-width:2; stroke-opacity:0.1; fill:none" points="
  235.283,576.24 2352.76,576.24 
  "/>
<polyline clip-path="url(#clip822)" style="stroke:#000000; stroke-linecap:butt; stroke-linejoin:round; stroke-width:2; stroke-opacity:0.1; fill:none" points="
  235.283,264.642 2352.76,264.642 
  "/>
<polyline clip-path="url(#clip820)" style="stroke:#000000; stroke-linecap:butt; stroke-linejoin:round; stroke-width:4; stroke-opacity:1; fill:none" points="
  235.283,1423.18 235.283,123.472 
  "/>
<polyline clip-path="url(#clip820)" style="stroke:#000000; stroke-linecap:butt; stroke-linejoin:round; stroke-width:4; stroke-opacity:1; fill:none" points="
  235.283,1199.44 260.693,1199.44 
  "/>
<polyline clip-path="url(#clip820)" style="stroke:#000000; stroke-linecap:butt; stroke-linejoin:round; stroke-width:4; stroke-opacity:1; fill:none" points="
  235.283,887.838 260.693,887.838 
  "/>
<polyline clip-path="url(#clip820)" style="stroke:#000000; stroke-linecap:butt; stroke-linejoin:round; stroke-width:4; stroke-opacity:1; fill:none" points="
  235.283,576.24 260.693,576.24 
  "/>
<polyline clip-path="url(#clip820)" style="stroke:#000000; stroke-linecap:butt; stroke-linejoin:round; stroke-width:4; stroke-opacity:1; fill:none" points="
  235.283,264.642 260.693,264.642 
  "/>
<path clip-path="url(#clip820)" d="M121.043 1212.78 L137.362 1212.78 L137.362 1216.72 L115.418 1216.72 L115.418 1212.78 Q118.08 1210.03 122.663 1205.4 Q127.269 1200.74 128.45 1199.4 Q130.695 1196.88 131.575 1195.14 Q132.478 1193.38 132.478 1191.69 Q132.478 1188.94 130.533 1187.2 Q128.612 1185.47 125.51 1185.47 Q123.311 1185.47 120.857 1186.23 Q118.427 1186.99 115.649 1188.55 L115.649 1183.82 Q118.473 1182.69 120.927 1182.11 Q123.38 1181.53 125.418 1181.53 Q130.788 1181.53 133.982 1184.22 Q137.177 1186.9 137.177 1191.39 Q137.177 1193.52 136.367 1195.44 Q135.579 1197.34 133.473 1199.93 Q132.894 1200.61 129.792 1203.82 Q126.691 1207.02 121.043 1212.78 Z" fill="#000000" fill-rule="evenodd" fill-opacity="1" /><path clip-path="url(#clip820)" d="M157.177 1185.24 Q153.566 1185.24 151.737 1188.8 Q149.931 1192.34 149.931 1199.47 Q149.931 1206.58 151.737 1210.14 Q153.566 1213.68 157.177 1213.68 Q160.811 1213.68 162.616 1210.14 Q164.445 1206.58 164.445 1199.47 Q164.445 1192.34 162.616 1188.8 Q160.811 1185.24 157.177 1185.24 M157.177 1181.53 Q162.987 1181.53 166.042 1186.14 Q169.121 1190.72 169.121 1199.47 Q169.121 1208.2 166.042 1212.8 Q162.987 1217.39 157.177 1217.39 Q151.366 1217.39 148.288 1212.8 Q145.232 1208.2 145.232 1199.47 Q145.232 1190.72 148.288 1186.14 Q151.366 1181.53 157.177 1181.53 Z" fill="#000000" fill-rule="evenodd" fill-opacity="1" /><path clip-path="url(#clip820)" d="M187.338 1185.24 Q183.727 1185.24 181.899 1188.8 Q180.093 1192.34 180.093 1199.47 Q180.093 1206.58 181.899 1210.14 Q183.727 1213.68 187.338 1213.68 Q190.973 1213.68 192.778 1210.14 Q194.607 1206.58 194.607 1199.47 Q194.607 1192.34 192.778 1188.8 Q190.973 1185.24 187.338 1185.24 M187.338 1181.53 Q193.149 1181.53 196.204 1186.14 Q199.283 1190.72 199.283 1199.47 Q199.283 1208.2 196.204 1212.8 Q193.149 1217.39 187.338 1217.39 Q181.528 1217.39 178.45 1212.8 Q175.394 1208.2 175.394 1199.47 Q175.394 1190.72 178.45 1186.14 Q181.528 1181.53 187.338 1181.53 Z" fill="#000000" fill-rule="evenodd" fill-opacity="1" /><path clip-path="url(#clip820)" d="M129.862 874.632 L118.056 893.081 L129.862 893.081 L129.862 874.632 M128.635 870.558 L134.515 870.558 L134.515 893.081 L139.445 893.081 L139.445 896.97 L134.515 896.97 L134.515 905.118 L129.862 905.118 L129.862 896.97 L114.26 896.97 L114.26 892.456 L128.635 870.558 Z" fill="#000000" fill-rule="evenodd" fill-opacity="1" /><path clip-path="url(#clip820)" d="M157.177 873.637 Q153.566 873.637 151.737 877.202 Q149.931 880.743 149.931 887.873 Q149.931 894.98 151.737 898.544 Q153.566 902.086 157.177 902.086 Q160.811 902.086 162.616 898.544 Q164.445 894.98 164.445 887.873 Q164.445 880.743 162.616 877.202 Q160.811 873.637 157.177 873.637 M157.177 869.933 Q162.987 869.933 166.042 874.54 Q169.121 879.123 169.121 887.873 Q169.121 896.6 166.042 901.206 Q162.987 905.79 157.177 905.79 Q151.366 905.79 148.288 901.206 Q145.232 896.6 145.232 887.873 Q145.232 879.123 148.288 874.54 Q151.366 869.933 157.177 869.933 Z" fill="#000000" fill-rule="evenodd" fill-opacity="1" /><path clip-path="url(#clip820)" d="M187.338 873.637 Q183.727 873.637 181.899 877.202 Q180.093 880.743 180.093 887.873 Q180.093 894.98 181.899 898.544 Q183.727 902.086 187.338 902.086 Q190.973 902.086 192.778 898.544 Q194.607 894.98 194.607 887.873 Q194.607 880.743 192.778 877.202 Q190.973 873.637 187.338 873.637 M187.338 869.933 Q193.149 869.933 196.204 874.54 Q199.283 879.123 199.283 887.873 Q199.283 896.6 196.204 901.206 Q193.149 905.79 187.338 905.79 Q181.528 905.79 178.45 901.206 Q175.394 896.6 175.394 887.873 Q175.394 879.123 178.45 874.54 Q181.528 869.933 187.338 869.933 Z" fill="#000000" fill-rule="evenodd" fill-opacity="1" /><path clip-path="url(#clip820)" d="M127.593 574.377 Q124.445 574.377 122.593 576.529 Q120.765 578.682 120.765 582.432 Q120.765 586.159 122.593 588.335 Q124.445 590.488 127.593 590.488 Q130.742 590.488 132.57 588.335 Q134.422 586.159 134.422 582.432 Q134.422 578.682 132.57 576.529 Q130.742 574.377 127.593 574.377 M136.876 559.724 L136.876 563.983 Q135.117 563.15 133.311 562.71 Q131.529 562.27 129.769 562.27 Q125.14 562.27 122.686 565.395 Q120.255 568.52 119.908 574.84 Q121.274 572.826 123.334 571.761 Q125.394 570.673 127.871 570.673 Q133.08 570.673 136.089 573.844 Q139.121 576.992 139.121 582.432 Q139.121 587.756 135.973 590.974 Q132.825 594.191 127.593 594.191 Q121.598 594.191 118.427 589.608 Q115.256 585.002 115.256 576.275 Q115.256 568.08 119.144 563.219 Q123.033 558.335 129.584 558.335 Q131.343 558.335 133.126 558.682 Q134.931 559.029 136.876 559.724 Z" fill="#000000" fill-rule="evenodd" fill-opacity="1" /><path clip-path="url(#clip820)" d="M157.177 562.039 Q153.566 562.039 151.737 565.604 Q149.931 569.145 149.931 576.275 Q149.931 583.381 151.737 586.946 Q153.566 590.488 157.177 590.488 Q160.811 590.488 162.616 586.946 Q164.445 583.381 164.445 576.275 Q164.445 569.145 162.616 565.604 Q160.811 562.039 157.177 562.039 M157.177 558.335 Q162.987 558.335 166.042 562.942 Q169.121 567.525 169.121 576.275 Q169.121 585.002 166.042 589.608 Q162.987 594.191 157.177 594.191 Q151.366 594.191 148.288 589.608 Q145.232 585.002 145.232 576.275 Q145.232 567.525 148.288 562.942 Q151.366 558.335 157.177 558.335 Z" fill="#000000" fill-rule="evenodd" fill-opacity="1" /><path clip-path="url(#clip820)" d="M187.338 562.039 Q183.727 562.039 181.899 565.604 Q180.093 569.145 180.093 576.275 Q180.093 583.381 181.899 586.946 Q183.727 590.488 187.338 590.488 Q190.973 590.488 192.778 586.946 Q194.607 583.381 194.607 576.275 Q194.607 569.145 192.778 565.604 Q190.973 562.039 187.338 562.039 M187.338 558.335 Q193.149 558.335 196.204 562.942 Q199.283 567.525 199.283 576.275 Q199.283 585.002 196.204 589.608 Q193.149 594.191 187.338 594.191 Q181.528 594.191 178.45 589.608 Q175.394 585.002 175.394 576.275 Q175.394 567.525 178.45 562.942 Q181.528 558.335 187.338 558.335 Z" fill="#000000" fill-rule="evenodd" fill-opacity="1" /><path clip-path="url(#clip820)" d="M127.015 265.51 Q123.681 265.51 121.76 267.292 Q119.862 269.075 119.862 272.2 Q119.862 275.325 121.76 277.107 Q123.681 278.889 127.015 278.889 Q130.348 278.889 132.269 277.107 Q134.191 275.301 134.191 272.2 Q134.191 269.075 132.269 267.292 Q130.371 265.51 127.015 265.51 M122.339 263.519 Q119.33 262.778 117.64 260.718 Q115.973 258.658 115.973 255.695 Q115.973 251.552 118.913 249.144 Q121.876 246.737 127.015 246.737 Q132.177 246.737 135.117 249.144 Q138.056 251.552 138.056 255.695 Q138.056 258.658 136.367 260.718 Q134.7 262.778 131.714 263.519 Q135.093 264.306 136.968 266.598 Q138.867 268.889 138.867 272.2 Q138.867 277.223 135.788 279.908 Q132.732 282.593 127.015 282.593 Q121.297 282.593 118.218 279.908 Q115.163 277.223 115.163 272.2 Q115.163 268.889 117.061 266.598 Q118.959 264.306 122.339 263.519 M120.626 256.135 Q120.626 258.82 122.293 260.325 Q123.982 261.829 127.015 261.829 Q130.024 261.829 131.714 260.325 Q133.427 258.82 133.427 256.135 Q133.427 253.45 131.714 251.945 Q130.024 250.44 127.015 250.44 Q123.982 250.44 122.293 251.945 Q120.626 253.45 120.626 256.135 Z" fill="#000000" fill-rule="evenodd" fill-opacity="1" /><path clip-path="url(#clip820)" d="M157.177 250.44 Q153.566 250.44 151.737 254.005 Q149.931 257.547 149.931 264.676 Q149.931 271.783 151.737 275.348 Q153.566 278.889 157.177 278.889 Q160.811 278.889 162.616 275.348 Q164.445 271.783 164.445 264.676 Q164.445 257.547 162.616 254.005 Q160.811 250.44 157.177 250.44 M157.177 246.737 Q162.987 246.737 166.042 251.343 Q169.121 255.927 169.121 264.676 Q169.121 273.403 166.042 278.01 Q162.987 282.593 157.177 282.593 Q151.366 282.593 148.288 278.01 Q145.232 273.403 145.232 264.676 Q145.232 255.927 148.288 251.343 Q151.366 246.737 157.177 246.737 Z" fill="#000000" fill-rule="evenodd" fill-opacity="1" /><path clip-path="url(#clip820)" d="M187.338 250.44 Q183.727 250.44 181.899 254.005 Q180.093 257.547 180.093 264.676 Q180.093 271.783 181.899 275.348 Q183.727 278.889 187.338 278.889 Q190.973 278.889 192.778 275.348 Q194.607 271.783 194.607 264.676 Q194.607 257.547 192.778 254.005 Q190.973 250.44 187.338 250.44 M187.338 246.737 Q193.149 246.737 196.204 251.343 Q199.283 255.927 199.283 264.676 Q199.283 273.403 196.204 278.01 Q193.149 282.593 187.338 282.593 Q181.528 282.593 178.45 278.01 Q175.394 273.403 175.394 264.676 Q175.394 255.927 178.45 251.343 Q181.528 246.737 187.338 246.737 Z" fill="#000000" fill-rule="evenodd" fill-opacity="1" /><path clip-path="url(#clip820)" d="M20.1444 1236.43 L26.9239 1236.43 Q23.9002 1239.68 22.4043 1243.37 Q20.9083 1247.03 20.9083 1251.17 Q20.9083 1259.32 25.9054 1263.64 Q30.8707 1267.97 40.2919 1267.97 Q49.6813 1267.97 54.6784 1263.64 Q59.6436 1259.32 59.6436 1251.17 Q59.6436 1247.03 58.1477 1243.37 Q56.6518 1239.68 53.6281 1236.43 L60.3439 1236.43 Q62.6355 1239.8 63.7814 1243.59 Q64.9272 1247.35 64.9272 1251.55 Q64.9272 1262.34 58.3387 1268.55 Q51.7183 1274.75 40.2919 1274.75 Q28.8336 1274.75 22.2451 1268.55 Q15.6248 1262.34 15.6248 1251.55 Q15.6248 1247.28 16.7706 1243.53 Q17.8846 1239.74 20.1444 1236.43 Z" fill="#000000" fill-rule="evenodd" fill-opacity="1" /><path clip-path="url(#clip820)" d="M32.4621 1212.94 Q32.4621 1217.65 36.1542 1220.39 Q39.8145 1223.13 46.212 1223.13 Q52.6095 1223.13 56.3017 1220.42 Q59.9619 1217.68 59.9619 1212.94 Q59.9619 1208.26 56.2698 1205.53 Q52.5777 1202.79 46.212 1202.79 Q39.8781 1202.79 36.186 1205.53 Q32.4621 1208.26 32.4621 1212.94 M27.4968 1212.94 Q27.4968 1205.3 32.4621 1200.94 Q37.4273 1196.58 46.212 1196.58 Q54.9649 1196.58 59.9619 1200.94 Q64.9272 1205.3 64.9272 1212.94 Q64.9272 1220.61 59.9619 1224.97 Q54.9649 1229.3 46.212 1229.3 Q37.4273 1229.3 32.4621 1224.97 Q27.4968 1220.61 27.4968 1212.94 Z" fill="#000000" fill-rule="evenodd" fill-opacity="1" /><path clip-path="url(#clip820)" d="M42.4881 1157.24 L64.0042 1157.24 L64.0042 1163.1 L42.679 1163.1 Q37.6183 1163.1 35.1038 1165.07 Q32.5894 1167.04 32.5894 1170.99 Q32.5894 1175.73 35.6131 1178.47 Q38.6368 1181.21 43.8567 1181.21 L64.0042 1181.21 L64.0042 1187.1 L28.3562 1187.1 L28.3562 1181.21 L33.8944 1181.21 Q30.6797 1179.11 29.0883 1176.28 Q27.4968 1173.41 27.4968 1169.69 Q27.4968 1163.54 31.3163 1160.39 Q35.1038 1157.24 42.4881 1157.24 Z" fill="#000000" fill-rule="evenodd" fill-opacity="1" /><path clip-path="url(#clip820)" d="M29.7248 1119.91 L35.1993 1119.91 Q33.8307 1122.39 33.1623 1124.9 Q32.4621 1127.39 32.4621 1129.93 Q32.4621 1135.63 36.0905 1138.78 Q39.6872 1141.93 46.212 1141.93 Q52.7369 1141.93 56.3653 1138.78 Q59.9619 1135.63 59.9619 1129.93 Q59.9619 1127.39 59.2935 1124.9 Q58.5933 1122.39 57.2247 1119.91 L62.6355 1119.91 Q63.7814 1122.36 64.3543 1125 Q64.9272 1127.61 64.9272 1130.57 Q64.9272 1138.62 59.8664 1143.36 Q54.8057 1148.11 46.212 1148.11 Q37.491 1148.11 32.4939 1143.33 Q27.4968 1138.53 27.4968 1130.19 Q27.4968 1127.48 28.0697 1124.9 Q28.6108 1122.33 29.7248 1119.91 Z" fill="#000000" fill-rule="evenodd" fill-opacity="1" /><path clip-path="url(#clip820)" d="M44.7161 1079.23 L47.5806 1079.23 L47.5806 1106.16 Q53.6281 1105.78 56.8109 1102.53 Q59.9619 1099.25 59.9619 1093.43 Q59.9619 1090.05 59.1344 1086.9 Q58.3069 1083.72 56.6518 1080.6 L62.1899 1080.6 Q63.5267 1083.75 64.227 1087.06 Q64.9272 1090.37 64.9272 1093.78 Q64.9272 1102.31 59.9619 1107.3 Q54.9967 1112.27 46.5303 1112.27 Q37.7774 1112.27 32.6531 1107.56 Q27.4968 1102.81 27.4968 1094.79 Q27.4968 1087.6 32.1438 1083.43 Q36.7589 1079.23 44.7161 1079.23 M42.9973 1085.09 Q38.1912 1085.15 35.3266 1087.79 Q32.4621 1090.4 32.4621 1094.73 Q32.4621 1099.63 35.2312 1102.59 Q38.0002 1105.52 43.0292 1105.97 L42.9973 1085.09 Z" fill="#000000" fill-rule="evenodd" fill-opacity="1" /><path clip-path="url(#clip820)" d="M42.4881 1039.99 L64.0042 1039.99 L64.0042 1045.84 L42.679 1045.84 Q37.6183 1045.84 35.1038 1047.82 Q32.5894 1049.79 32.5894 1053.74 Q32.5894 1058.48 35.6131 1061.22 Q38.6368 1063.95 43.8567 1063.95 L64.0042 1063.95 L64.0042 1069.84 L28.3562 1069.84 L28.3562 1063.95 L33.8944 1063.95 Q30.6797 1061.85 29.0883 1059.02 Q27.4968 1056.15 27.4968 1052.43 Q27.4968 1046.29 31.3163 1043.14 Q35.1038 1039.99 42.4881 1039.99 Z" fill="#000000" fill-rule="evenodd" fill-opacity="1" /><path clip-path="url(#clip820)" d="M18.2347 1022.51 L28.3562 1022.51 L28.3562 1010.45 L32.9077 1010.45 L32.9077 1022.51 L52.2594 1022.51 Q56.6199 1022.51 57.8613 1021.33 Q59.1026 1020.12 59.1026 1016.46 L59.1026 1010.45 L64.0042 1010.45 L64.0042 1016.46 Q64.0042 1023.24 61.4897 1025.82 Q58.9434 1028.4 52.2594 1028.4 L32.9077 1028.4 L32.9077 1032.7 L28.3562 1032.7 L28.3562 1028.4 L18.2347 1028.4 L18.2347 1022.51 Z" fill="#000000" fill-rule="evenodd" fill-opacity="1" /><path clip-path="url(#clip820)" d="M33.8307 982.089 Q33.2578 983.076 33.0032 984.254 Q32.7167 985.4 32.7167 986.8 Q32.7167 991.765 35.9632 994.439 Q39.1779 997.081 45.2253 997.081 L64.0042 997.081 L64.0042 1002.97 L28.3562 1002.97 L28.3562 997.081 L33.8944 997.081 Q30.6479 995.235 29.0883 992.274 Q27.4968 989.314 27.4968 985.081 Q27.4968 984.476 27.5923 983.744 Q27.656 983.012 27.8151 982.121 L33.8307 982.089 Z" fill="#000000" fill-rule="evenodd" fill-opacity="1" /><path clip-path="url(#clip820)" d="M46.0847 959.746 Q46.0847 966.843 47.7079 969.581 Q49.3312 972.318 53.2461 972.318 Q56.3653 972.318 58.2114 970.281 Q60.0256 968.212 60.0256 964.679 Q60.0256 959.809 56.5881 956.881 Q53.1188 953.921 47.3897 953.921 L46.0847 953.921 L46.0847 959.746 M43.6657 948.065 L64.0042 948.065 L64.0042 953.921 L58.5933 953.921 Q61.8398 955.926 63.3994 958.918 Q64.9272 961.91 64.9272 966.239 Q64.9272 971.713 61.8716 974.96 Q58.7843 978.174 53.6281 978.174 Q47.6125 978.174 44.5569 974.164 Q41.5014 970.122 41.5014 962.133 L41.5014 953.921 L40.9285 953.921 Q36.8862 953.921 34.6901 956.595 Q32.4621 959.236 32.4621 964.043 Q32.4621 967.098 33.1941 969.994 Q33.9262 972.891 35.3903 975.564 L29.9795 975.564 Q28.7381 972.35 28.1334 969.326 Q27.4968 966.302 27.4968 963.438 Q27.4968 955.703 31.5072 951.884 Q35.5176 948.065 43.6657 948.065 Z" fill="#000000" fill-rule="evenodd" fill-opacity="1" /><path clip-path="url(#clip820)" d="M18.2347 930.209 L28.3562 930.209 L28.3562 918.146 L32.9077 918.146 L32.9077 930.209 L52.2594 930.209 Q56.6199 930.209 57.8613 929.031 Q59.1026 927.822 59.1026 924.161 L59.1026 918.146 L64.0042 918.146 L64.0042 924.161 Q64.0042 930.941 61.4897 933.519 Q58.9434 936.097 52.2594 936.097 L32.9077 936.097 L32.9077 940.394 L28.3562 940.394 L28.3562 936.097 L18.2347 936.097 L18.2347 930.209 Z" fill="#000000" fill-rule="evenodd" fill-opacity="1" /><path clip-path="url(#clip820)" d="M28.3562 910.443 L28.3562 904.587 L64.0042 904.587 L64.0042 910.443 L28.3562 910.443 M14.479 910.443 L14.479 904.587 L21.895 904.587 L21.895 910.443 L14.479 910.443 Z" fill="#000000" fill-rule="evenodd" fill-opacity="1" /><path clip-path="url(#clip820)" d="M32.4621 878.519 Q32.4621 883.23 36.1542 885.967 Q39.8145 888.704 46.212 888.704 Q52.6095 888.704 56.3017 885.999 Q59.9619 883.262 59.9619 878.519 Q59.9619 873.84 56.2698 871.103 Q52.5777 868.366 46.212 868.366 Q39.8781 868.366 36.186 871.103 Q32.4621 873.84 32.4621 878.519 M27.4968 878.519 Q27.4968 870.88 32.4621 866.52 Q37.4273 862.159 46.212 862.159 Q54.9649 862.159 59.9619 866.52 Q64.9272 870.88 64.9272 878.519 Q64.9272 886.19 59.9619 890.55 Q54.9649 894.879 46.212 894.879 Q37.4273 894.879 32.4621 890.55 Q27.4968 886.19 27.4968 878.519 Z" fill="#000000" fill-rule="evenodd" fill-opacity="1" /><path clip-path="url(#clip820)" d="M42.4881 822.819 L64.0042 822.819 L64.0042 828.676 L42.679 828.676 Q37.6183 828.676 35.1038 830.649 Q32.5894 832.623 32.5894 836.569 Q32.5894 841.312 35.6131 844.049 Q38.6368 846.786 43.8567 846.786 L64.0042 846.786 L64.0042 852.675 L28.3562 852.675 L28.3562 846.786 L33.8944 846.786 Q30.6797 844.686 29.0883 841.853 Q27.4968 838.988 27.4968 835.264 Q27.4968 829.121 31.3163 825.97 Q35.1038 822.819 42.4881 822.819 Z" fill="#000000" fill-rule="evenodd" fill-opacity="1" /><path clip-path="url(#clip820)" d="M32.4621 776.604 Q32.4621 781.315 36.1542 784.052 Q39.8145 786.789 46.212 786.789 Q52.6095 786.789 56.3017 784.084 Q59.9619 781.347 59.9619 776.604 Q59.9619 771.926 56.2698 769.188 Q52.5777 766.451 46.212 766.451 Q39.8781 766.451 36.186 769.188 Q32.4621 771.926 32.4621 776.604 M27.4968 776.604 Q27.4968 768.965 32.4621 764.605 Q37.4273 760.244 46.212 760.244 Q54.9649 760.244 59.9619 764.605 Q64.9272 768.965 64.9272 776.604 Q64.9272 784.275 59.9619 788.636 Q54.9649 792.964 46.212 792.964 Q37.4273 792.964 32.4621 788.636 Q27.4968 784.275 27.4968 776.604 Z" fill="#000000" fill-rule="evenodd" fill-opacity="1" /><path clip-path="url(#clip820)" d="M14.479 732.49 L19.3487 732.49 L19.3487 738.092 Q19.3487 741.243 20.6219 742.484 Q21.895 743.694 25.2052 743.694 L28.3562 743.694 L28.3562 734.05 L32.9077 734.05 L32.9077 743.694 L64.0042 743.694 L64.0042 749.582 L32.9077 749.582 L32.9077 755.184 L28.3562 755.184 L28.3562 749.582 L25.8736 749.582 Q19.9216 749.582 17.2162 746.813 Q14.479 744.044 14.479 738.028 L14.479 732.49 Z" fill="#000000" fill-rule="evenodd" fill-opacity="1" /><path clip-path="url(#clip820)" d="M58.657 701.203 L77.5631 701.203 L77.5631 707.091 L28.3562 707.091 L28.3562 701.203 L33.7671 701.203 Q30.5842 699.356 29.0564 696.556 Q27.4968 693.723 27.4968 689.808 Q27.4968 683.315 32.6531 679.273 Q37.8093 675.199 46.212 675.199 Q54.6147 675.199 59.771 679.273 Q64.9272 683.315 64.9272 689.808 Q64.9272 693.723 63.3994 696.556 Q61.8398 699.356 58.657 701.203 M46.212 681.278 Q39.7508 681.278 36.0905 683.951 Q32.3984 686.593 32.3984 691.24 Q32.3984 695.887 36.0905 698.561 Q39.7508 701.203 46.212 701.203 Q52.6732 701.203 56.3653 698.561 Q60.0256 695.887 60.0256 691.24 Q60.0256 686.593 56.3653 683.951 Q52.6732 681.278 46.212 681.278 Z" fill="#000000" fill-rule="evenodd" fill-opacity="1" /><path clip-path="url(#clip820)" d="M35.1993 637.736 Q31.2526 635.54 29.3747 632.485 Q27.4968 629.429 27.4968 625.291 Q27.4968 619.721 31.4117 616.698 Q35.2948 613.674 42.4881 613.674 L64.0042 613.674 L64.0042 619.562 L42.679 619.562 Q37.5546 619.562 35.072 621.377 Q32.5894 623.191 32.5894 626.915 Q32.5894 631.466 35.6131 634.108 Q38.6368 636.75 43.8567 636.75 L64.0042 636.75 L64.0042 642.638 L42.679 642.638 Q37.5228 642.638 35.072 644.452 Q32.5894 646.266 32.5894 650.054 Q32.5894 654.542 35.6449 657.184 Q38.6686 659.825 43.8567 659.825 L64.0042 659.825 L64.0042 665.714 L28.3562 665.714 L28.3562 659.825 L33.8944 659.825 Q30.616 657.82 29.0564 655.019 Q27.4968 652.218 27.4968 648.367 Q27.4968 644.484 29.4702 641.779 Q31.4436 639.041 35.1993 637.736 Z" fill="#000000" fill-rule="evenodd" fill-opacity="1" /><path clip-path="url(#clip820)" d="M58.5933 595.627 L58.5933 573.188 L64.0042 573.188 L64.0042 603.362 L58.5933 603.362 Q54.8057 599.701 48.44 593.399 Q42.0425 587.065 40.1964 585.442 Q36.7271 582.355 34.34 581.145 Q31.921 579.904 29.5975 579.904 Q25.8099 579.904 23.4228 582.578 Q21.0356 585.219 21.0356 589.484 Q21.0356 592.508 22.086 595.882 Q23.1363 599.224 25.2688 603.043 L18.7758 603.043 Q17.2162 599.16 16.4205 595.786 Q15.6248 592.413 15.6248 589.612 Q15.6248 582.227 19.3169 577.835 Q23.009 573.443 29.1837 573.443 Q32.112 573.443 34.7537 574.557 Q37.3637 575.639 40.9285 578.535 Q41.8515 579.331 46.2757 583.596 Q50.668 587.861 58.5933 595.627 Z" fill="#000000" fill-rule="evenodd" fill-opacity="1" /><path clip-path="url(#clip820)" d="M55.9197 559.693 L55.9197 552.977 L64.0042 552.977 L64.0042 559.693 L55.9197 559.693 Z" fill="#000000" fill-rule="evenodd" fill-opacity="1" /><path clip-path="url(#clip820)" d="M16.4842 538.909 L16.4842 513.669 L21.895 513.669 L21.895 533.021 L33.5443 533.021 Q33.0668 531.62 32.844 530.22 Q32.5894 528.819 32.5894 527.419 Q32.5894 519.462 36.9499 514.815 Q41.3104 510.168 48.7583 510.168 Q56.429 510.168 60.694 514.942 Q64.9272 519.716 64.9272 528.405 Q64.9272 531.397 64.4179 534.516 Q63.9087 537.604 62.8902 540.914 L56.429 540.914 Q57.9886 538.049 58.7524 534.994 Q59.5163 531.938 59.5163 528.533 Q59.5163 523.026 56.6199 519.812 Q53.7235 516.597 48.7583 516.597 Q43.793 516.597 40.8966 519.812 Q38.0002 523.026 38.0002 528.533 Q38.0002 531.111 38.5732 533.689 Q39.1461 536.235 40.3556 538.909 L16.4842 538.909 Z" fill="#000000" fill-rule="evenodd" fill-opacity="1" /><path clip-path="url(#clip820)" d="M55.9197 496.832 L55.9197 490.116 L61.3942 490.116 L71.5793 495.336 L71.5793 499.441 L61.3942 496.832 L55.9197 496.832 Z" fill="#000000" fill-rule="evenodd" fill-opacity="1" /><path clip-path="url(#clip820)" d="M77.5631 457.491 L28.3562 457.491 L28.3562 451.635 L50.5089 451.635 Q55.124 451.635 57.4793 449.439 Q59.8346 447.243 59.8346 442.946 Q59.8346 438.235 57.161 435.88 Q54.4874 433.493 49.1402 433.493 L28.3562 433.493 L28.3562 427.636 L55.7924 427.636 Q57.7021 427.636 58.6251 427.095 Q59.5163 426.522 59.5163 425.345 Q59.5163 425.058 59.3572 424.549 Q59.1662 424.04 58.7843 423.148 L63.4949 423.148 Q64.227 424.453 64.5771 425.631 Q64.9272 426.777 64.9272 427.891 Q64.9272 430.087 63.6859 431.392 Q62.4446 432.697 59.8983 433.174 Q62.4127 434.766 63.6859 437.089 Q64.9272 439.381 64.9272 442.5 Q64.9272 445.747 63.6859 448.038 Q62.4446 450.298 59.9619 451.635 L77.5631 451.635 L77.5631 457.491 Z" fill="#000000" fill-rule="evenodd" fill-opacity="1" /><path clip-path="url(#clip820)" d="M45.7664 391.956 Q39.4007 391.956 35.8996 394.598 Q32.3984 397.208 32.3984 401.951 Q32.3984 406.661 35.8996 409.303 Q39.4007 411.913 45.7664 411.913 Q52.1003 411.913 55.6014 409.303 Q59.1026 406.661 59.1026 401.951 Q59.1026 397.208 55.6014 394.598 Q52.1003 391.956 45.7664 391.956 M59.58 386.1 Q68.683 386.1 73.1071 390.142 Q77.5631 394.184 77.5631 402.524 Q77.5631 405.611 77.0857 408.348 Q76.6401 411.085 75.6852 413.664 L69.9879 413.664 Q71.3884 411.085 72.0568 408.571 Q72.7252 406.057 72.7252 403.447 Q72.7252 397.686 69.7015 394.821 Q66.7096 391.956 60.6303 391.956 L57.7339 391.956 Q60.885 393.771 62.4446 396.603 Q64.0042 399.436 64.0042 403.383 Q64.0042 409.94 59.0071 413.95 Q54.01 417.96 45.7664 417.96 Q37.491 417.96 32.4939 413.95 Q27.4968 409.94 27.4968 403.383 Q27.4968 399.436 29.0564 396.603 Q30.616 393.771 33.7671 391.956 L28.3562 391.956 L28.3562 386.1 L59.58 386.1 Z" fill="#000000" fill-rule="evenodd" fill-opacity="1" /><path clip-path="url(#clip820)" d="M16.4842 363.629 L16.4842 358.218 L70.0516 374.769 L70.0516 380.18 L16.4842 363.629 Z" fill="#000000" fill-rule="evenodd" fill-opacity="1" /><path clip-path="url(#clip820)" d="M35.1993 324.321 Q31.2526 322.125 29.3747 319.069 Q27.4968 316.014 27.4968 311.876 Q27.4968 306.306 31.4117 303.282 Q35.2948 300.258 42.4881 300.258 L64.0042 300.258 L64.0042 306.147 L42.679 306.147 Q37.5546 306.147 35.072 307.961 Q32.5894 309.775 32.5894 313.499 Q32.5894 318.051 35.6131 320.692 Q38.6368 323.334 43.8567 323.334 L64.0042 323.334 L64.0042 329.222 L42.679 329.222 Q37.5228 329.222 35.072 331.037 Q32.5894 332.851 32.5894 336.639 Q32.5894 341.126 35.6449 343.768 Q38.6686 346.41 43.8567 346.41 L64.0042 346.41 L64.0042 352.298 L28.3562 352.298 L28.3562 346.41 L33.8944 346.41 Q30.616 344.405 29.0564 341.604 Q27.4968 338.803 27.4968 334.952 Q27.4968 331.069 29.4702 328.363 Q31.4436 325.626 35.1993 324.321 Z" fill="#000000" fill-rule="evenodd" fill-opacity="1" /><path clip-path="url(#clip820)" d="M28.3562 278.042 Q28.9291 275.114 30.6797 273.523 Q32.3984 271.899 35.0084 271.899 Q38.9551 271.899 41.0876 274.923 Q43.2201 277.947 43.2201 283.58 Q43.2201 285.395 42.9018 287.4 Q42.5517 289.373 41.9152 291.601 L38.0639 291.601 Q38.9233 289.946 39.337 288.068 Q39.7508 286.158 39.7508 284.026 Q39.7508 280.557 38.5095 278.647 Q37.2364 276.737 35.0084 276.737 Q32.6531 276.737 31.4436 278.52 Q30.2341 280.27 30.2341 283.708 L30.2341 286.445 L26.7966 286.445 L26.7966 283.453 Q26.7966 280.461 25.8099 278.933 Q24.7914 277.374 22.8817 277.374 Q21.0356 277.374 20.0808 278.965 Q19.0941 280.557 19.0941 283.58 Q19.0941 284.853 19.3806 286.477 Q19.667 288.1 20.3991 290.678 L16.7388 290.678 Q16.1977 288.355 15.9112 286.318 Q15.6248 284.281 15.6248 282.53 Q15.6248 277.947 17.5027 275.273 Q19.3806 272.568 22.5316 272.568 Q24.7277 272.568 26.2555 274 Q27.7833 275.432 28.3562 278.042 Z" fill="#000000" fill-rule="evenodd" fill-opacity="1" /><path clip-path="url(#clip820)" d="M318.602 12.096 L356.843 12.096 L356.843 18.9825 L326.785 18.9825 L326.785 36.8875 L355.587 36.8875 L355.587 43.7741 L326.785 43.7741 L326.785 65.6895 L357.572 65.6895 L357.572 72.576 L318.602 72.576 L318.602 12.096 Z" fill="#000000" fill-rule="evenodd" fill-opacity="1" /><path clip-path="url(#clip820)" d="M408.411 27.2059 L392.005 49.2833 L409.261 72.576 L400.471 72.576 L387.265 54.752 L374.059 72.576 L365.269 72.576 L382.89 48.8377 L366.767 27.2059 L375.558 27.2059 L387.589 43.369 L399.62 27.2059 L408.411 27.2059 Z" fill="#000000" fill-rule="evenodd" fill-opacity="1" /><path clip-path="url(#clip820)" d="M450.986 28.9478 L450.986 35.9153 Q447.826 34.1734 444.626 33.3227 Q441.466 32.4315 438.225 32.4315 Q430.974 32.4315 426.964 37.0496 Q422.953 41.6271 422.953 49.9314 Q422.953 58.2358 426.964 62.8538 Q430.974 67.4314 438.225 67.4314 Q441.466 67.4314 444.626 66.5807 Q447.826 65.6895 450.986 63.9476 L450.986 70.8341 Q447.867 72.2924 444.504 73.0216 Q441.183 73.7508 437.415 73.7508 Q427.166 73.7508 421.131 67.3098 Q415.095 60.8689 415.095 49.9314 Q415.095 38.832 421.171 32.472 Q427.288 26.1121 437.901 26.1121 Q441.345 26.1121 444.626 26.8413 Q447.907 27.5299 450.986 28.9478 Z" fill="#000000" fill-rule="evenodd" fill-opacity="1" /><path clip-path="url(#clip820)" d="M502.756 48.0275 L502.756 51.6733 L468.486 51.6733 Q468.972 59.3701 473.104 63.421 Q477.276 67.4314 484.689 67.4314 Q488.983 67.4314 492.994 66.3781 Q497.044 65.3249 501.014 63.2184 L501.014 70.267 Q497.004 71.9684 492.791 72.8596 Q488.578 73.7508 484.244 73.7508 Q473.387 73.7508 467.027 67.4314 Q460.708 61.1119 460.708 50.3365 Q460.708 39.1965 466.703 32.6746 Q472.739 26.1121 482.947 26.1121 Q492.102 26.1121 497.409 32.0264 Q502.756 37.9003 502.756 48.0275 M495.303 45.84 Q495.222 39.7232 491.859 36.0774 Q488.538 32.4315 483.028 32.4315 Q476.79 32.4315 473.023 35.9558 Q469.296 39.4801 468.729 45.8805 L495.303 45.84 Z" fill="#000000" fill-rule="evenodd" fill-opacity="1" /><path clip-path="url(#clip820)" d="M553.798 48.0275 L553.798 51.6733 L519.527 51.6733 Q520.013 59.3701 524.145 63.421 Q528.317 67.4314 535.731 67.4314 Q540.025 67.4314 544.035 66.3781 Q548.086 65.3249 552.056 63.2184 L552.056 70.267 Q548.045 71.9684 543.832 72.8596 Q539.619 73.7508 535.285 73.7508 Q524.429 73.7508 518.069 67.4314 Q511.749 61.1119 511.749 50.3365 Q511.749 39.1965 517.745 32.6746 Q523.78 26.1121 533.989 26.1121 Q543.144 26.1121 548.45 32.0264 Q553.798 37.9003 553.798 48.0275 M546.344 45.84 Q546.263 39.7232 542.901 36.0774 Q539.579 32.4315 534.07 32.4315 Q527.831 32.4315 524.064 35.9558 Q520.337 39.4801 519.77 45.8805 L546.344 45.84 Z" fill="#000000" fill-rule="evenodd" fill-opacity="1" /><path clip-path="url(#clip820)" d="M595.887 34.0924 L595.887 9.54393 L603.34 9.54393 L603.34 72.576 L595.887 72.576 L595.887 65.7705 Q593.537 69.8214 589.932 71.8063 Q586.367 73.7508 581.344 73.7508 Q573.12 73.7508 567.935 67.1883 Q562.791 60.6258 562.791 49.9314 Q562.791 39.2371 567.935 32.6746 Q573.12 26.1121 581.344 26.1121 Q586.367 26.1121 589.932 28.0971 Q593.537 30.0415 595.887 34.0924 M570.487 49.9314 Q570.487 58.1548 573.85 62.8538 Q577.252 67.5124 583.167 67.5124 Q589.081 67.5124 592.484 62.8538 Q595.887 58.1548 595.887 49.9314 Q595.887 41.7081 592.484 37.0496 Q589.081 32.3505 583.167 32.3505 Q577.252 32.3505 573.85 37.0496 Q570.487 41.7081 570.487 49.9314 Z" fill="#000000" fill-rule="evenodd" fill-opacity="1" /><path clip-path="url(#clip820)" d="M657.501 48.0275 L657.501 51.6733 L623.23 51.6733 Q623.716 59.3701 627.848 63.421 Q632.021 67.4314 639.434 67.4314 Q643.728 67.4314 647.738 66.3781 Q651.789 65.3249 655.759 63.2184 L655.759 70.267 Q651.749 71.9684 647.536 72.8596 Q643.323 73.7508 638.988 73.7508 Q628.132 73.7508 621.772 67.4314 Q615.452 61.1119 615.452 50.3365 Q615.452 39.1965 621.448 32.6746 Q627.484 26.1121 637.692 26.1121 Q646.847 26.1121 652.154 32.0264 Q657.501 37.9003 657.501 48.0275 M650.047 45.84 Q649.966 39.7232 646.604 36.0774 Q643.282 32.4315 637.773 32.4315 Q631.535 32.4315 627.767 35.9558 Q624.04 39.4801 623.473 45.8805 L650.047 45.84 Z" fill="#000000" fill-rule="evenodd" fill-opacity="1" /><path clip-path="url(#clip820)" d="M707.448 45.1919 L707.448 72.576 L699.995 72.576 L699.995 45.4349 Q699.995 38.994 697.483 35.7938 Q694.972 32.5936 689.949 32.5936 Q683.913 32.5936 680.429 36.4419 Q676.945 40.2903 676.945 46.9338 L676.945 72.576 L669.451 72.576 L669.451 27.2059 L676.945 27.2059 L676.945 34.2544 Q679.619 30.163 683.224 28.1376 Q686.87 26.1121 691.609 26.1121 Q699.428 26.1121 703.438 30.9732 Q707.448 35.7938 707.448 45.1919 Z" fill="#000000" fill-rule="evenodd" fill-opacity="1" /><path clip-path="url(#clip820)" d="M754.966 28.9478 L754.966 35.9153 Q751.806 34.1734 748.606 33.3227 Q745.446 32.4315 742.205 32.4315 Q734.954 32.4315 730.944 37.0496 Q726.933 41.6271 726.933 49.9314 Q726.933 58.2358 730.944 62.8538 Q734.954 67.4314 742.205 67.4314 Q745.446 67.4314 748.606 66.5807 Q751.806 65.6895 754.966 63.9476 L754.966 70.8341 Q751.846 72.2924 748.484 73.0216 Q745.162 73.7508 741.395 73.7508 Q731.146 73.7508 725.11 67.3098 Q719.075 60.8689 719.075 49.9314 Q719.075 38.832 725.151 32.472 Q731.268 26.1121 741.881 26.1121 Q745.324 26.1121 748.606 26.8413 Q751.887 27.5299 754.966 28.9478 Z" fill="#000000" fill-rule="evenodd" fill-opacity="1" /><path clip-path="url(#clip820)" d="M806.736 48.0275 L806.736 51.6733 L772.465 51.6733 Q772.952 59.3701 777.083 63.421 Q781.256 67.4314 788.669 67.4314 Q792.963 67.4314 796.973 66.3781 Q801.024 65.3249 804.994 63.2184 L804.994 70.267 Q800.984 71.9684 796.771 72.8596 Q792.558 73.7508 788.223 73.7508 Q777.367 73.7508 771.007 67.4314 Q764.688 61.1119 764.688 50.3365 Q764.688 39.1965 770.683 32.6746 Q776.719 26.1121 786.927 26.1121 Q796.082 26.1121 801.389 32.0264 Q806.736 37.9003 806.736 48.0275 M799.282 45.84 Q799.201 39.7232 795.839 36.0774 Q792.517 32.4315 787.008 32.4315 Q780.77 32.4315 777.002 35.9558 Q773.276 39.4801 772.709 45.8805 L799.282 45.84 Z" fill="#000000" fill-rule="evenodd" fill-opacity="1" /><path clip-path="url(#clip820)" d="M847.893 28.5427 L847.893 35.5912 Q844.734 33.9709 841.331 33.1607 Q837.928 32.3505 834.282 32.3505 Q828.733 32.3505 825.937 34.0519 Q823.183 35.7533 823.183 39.156 Q823.183 41.7486 825.168 43.2475 Q827.153 44.7058 833.148 46.0426 L835.7 46.6097 Q843.64 48.3111 846.962 51.4303 Q850.324 54.509 850.324 60.0587 Q850.324 66.3781 845.301 70.0644 Q840.318 73.7508 831.568 73.7508 Q827.922 73.7508 823.952 73.0216 Q820.023 72.3329 815.648 70.9151 L815.648 63.2184 Q819.78 65.3654 823.79 66.4591 Q827.801 67.5124 831.73 67.5124 Q836.996 67.5124 839.832 65.73 Q842.668 63.9071 842.668 60.6258 Q842.668 57.5877 840.602 55.9673 Q838.576 54.3469 831.649 52.8481 L829.057 52.2405 Q822.13 50.7821 819.051 47.7845 Q815.972 44.7463 815.972 39.4801 Q815.972 33.0797 820.509 29.5959 Q825.046 26.1121 833.391 26.1121 Q837.523 26.1121 841.169 26.7198 Q844.815 27.3274 847.893 28.5427 Z" fill="#000000" fill-rule="evenodd" fill-opacity="1" /><path clip-path="url(#clip820)" d="M906.145 32.4315 Q900.15 32.4315 896.666 37.1306 Q893.182 41.7891 893.182 49.9314 Q893.182 58.0738 896.626 62.7728 Q900.109 67.4314 906.145 67.4314 Q912.1 67.4314 915.584 62.7323 Q919.068 58.0333 919.068 49.9314 Q919.068 41.8701 915.584 37.1711 Q912.1 32.4315 906.145 32.4315 M906.145 26.1121 Q915.867 26.1121 921.417 32.4315 Q926.967 38.7509 926.967 49.9314 Q926.967 61.0714 921.417 67.4314 Q915.867 73.7508 906.145 73.7508 Q896.383 73.7508 890.833 67.4314 Q885.324 61.0714 885.324 49.9314 Q885.324 38.7509 890.833 32.4315 Q896.383 26.1121 906.145 26.1121 Z" fill="#000000" fill-rule="evenodd" fill-opacity="1" /><path clip-path="url(#clip820)" d="M962.291 9.54393 L962.291 15.7418 L955.161 15.7418 Q951.151 15.7418 949.571 17.3622 Q948.032 18.9825 948.032 23.1955 L948.032 27.2059 L960.306 27.2059 L960.306 32.9987 L948.032 32.9987 L948.032 72.576 L940.537 72.576 L940.537 32.9987 L933.408 32.9987 L933.408 27.2059 L940.537 27.2059 L940.537 24.0462 Q940.537 16.471 944.062 13.0277 Q947.586 9.54393 955.242 9.54393 L962.291 9.54393 Z" fill="#000000" fill-rule="evenodd" fill-opacity="1" /><path clip-path="url(#clip820)" d="M1002.27 14.324 L1002.27 27.2059 L1017.63 27.2059 L1017.63 32.9987 L1002.27 32.9987 L1002.27 57.6282 Q1002.27 63.1779 1003.77 64.7578 Q1005.31 66.3376 1009.97 66.3376 L1017.63 66.3376 L1017.63 72.576 L1009.97 72.576 Q1001.34 72.576 998.06 69.3758 Q994.779 66.1351 994.779 57.6282 L994.779 32.9987 L989.31 32.9987 L989.31 27.2059 L994.779 27.2059 L994.779 14.324 L1002.27 14.324 Z" fill="#000000" fill-rule="evenodd" fill-opacity="1" /><path clip-path="url(#clip820)" d="M1065.14 45.1919 L1065.14 72.576 L1057.69 72.576 L1057.69 45.4349 Q1057.69 38.994 1055.18 35.7938 Q1052.67 32.5936 1047.64 32.5936 Q1041.61 32.5936 1038.12 36.4419 Q1034.64 40.2903 1034.64 46.9338 L1034.64 72.576 L1027.15 72.576 L1027.15 9.54393 L1034.64 9.54393 L1034.64 34.2544 Q1037.31 30.163 1040.92 28.1376 Q1044.56 26.1121 1049.3 26.1121 Q1057.12 26.1121 1061.13 30.9732 Q1065.14 35.7938 1065.14 45.1919 Z" fill="#000000" fill-rule="evenodd" fill-opacity="1" /><path clip-path="url(#clip820)" d="M1118.82 48.0275 L1118.82 51.6733 L1084.55 51.6733 Q1085.03 59.3701 1089.17 63.421 Q1093.34 67.4314 1100.75 67.4314 Q1105.04 67.4314 1109.06 66.3781 Q1113.11 65.3249 1117.08 63.2184 L1117.08 70.267 Q1113.07 71.9684 1108.85 72.8596 Q1104.64 73.7508 1100.31 73.7508 Q1089.45 73.7508 1083.09 67.4314 Q1076.77 61.1119 1076.77 50.3365 Q1076.77 39.1965 1082.76 32.6746 Q1088.8 26.1121 1099.01 26.1121 Q1108.16 26.1121 1113.47 32.0264 Q1118.82 37.9003 1118.82 48.0275 M1111.36 45.84 Q1111.28 39.7232 1107.92 36.0774 Q1104.6 32.4315 1099.09 32.4315 Q1092.85 32.4315 1089.08 35.9558 Q1085.36 39.4801 1084.79 45.8805 L1111.36 45.84 Z" fill="#000000" fill-rule="evenodd" fill-opacity="1" /><path clip-path="url(#clip820)" d="M1177.96 20.1573 L1166.86 50.2555 L1189.1 50.2555 L1177.96 20.1573 M1173.34 12.096 L1182.62 12.096 L1205.67 72.576 L1197.16 72.576 L1191.65 57.061 L1164.39 57.061 L1158.88 72.576 L1150.25 72.576 L1173.34 12.096 Z" fill="#000000" fill-rule="evenodd" fill-opacity="1" /><path clip-path="url(#clip820)" d="M1237.02 20.1573 L1225.92 50.2555 L1248.16 50.2555 L1237.02 20.1573 M1232.41 12.096 L1241.68 12.096 L1264.73 72.576 L1256.22 72.576 L1250.72 57.061 L1223.45 57.061 L1217.94 72.576 L1209.31 72.576 L1232.41 12.096 Z" fill="#000000" fill-rule="evenodd" fill-opacity="1" /><path clip-path="url(#clip820)" d="M1296.65 17.6457 Q1287.74 17.6457 1282.47 24.2892 Q1277.25 30.9327 1277.25 42.3968 Q1277.25 53.8203 1282.47 60.4638 Q1287.74 67.1073 1296.65 67.1073 Q1305.56 67.1073 1310.75 60.4638 Q1315.98 53.8203 1315.98 42.3968 Q1315.98 30.9327 1310.75 24.2892 Q1305.56 17.6457 1296.65 17.6457 M1308.12 71.4823 L1318.89 83.2704 L1309.01 83.2704 L1300.06 73.5887 Q1298.72 73.6697 1297.99 73.7103 Q1297.3 73.7508 1296.65 73.7508 Q1283.89 73.7508 1276.24 65.2439 Q1268.62 56.6965 1268.62 42.3968 Q1268.62 28.0566 1276.24 19.5497 Q1283.89 11.0023 1296.65 11.0023 Q1309.37 11.0023 1316.99 19.5497 Q1324.6 28.0566 1324.6 42.3968 Q1324.6 52.9291 1320.35 60.4233 Q1316.14 67.9175 1308.12 71.4823 Z" fill="#000000" fill-rule="evenodd" fill-opacity="1" /><path clip-path="url(#clip820)" d="M1361.95 17.6457 Q1353.04 17.6457 1347.77 24.2892 Q1342.55 30.9327 1342.55 42.3968 Q1342.55 53.8203 1347.77 60.4638 Q1353.04 67.1073 1361.95 67.1073 Q1370.87 67.1073 1376.05 60.4638 Q1381.28 53.8203 1381.28 42.3968 Q1381.28 30.9327 1376.05 24.2892 Q1370.87 17.6457 1361.95 17.6457 M1361.95 11.0023 Q1374.67 11.0023 1382.29 19.5497 Q1389.9 28.0566 1389.9 42.3968 Q1389.9 56.6965 1382.29 65.2439 Q1374.67 73.7508 1361.95 73.7508 Q1349.19 73.7508 1341.54 65.2439 Q1333.92 56.737 1333.92 42.3968 Q1333.92 28.0566 1341.54 19.5497 Q1349.19 11.0023 1361.95 11.0023 Z" fill="#000000" fill-rule="evenodd" fill-opacity="1" /><path clip-path="url(#clip820)" d="M1428.75 27.2059 L1436.21 27.2059 L1436.21 72.576 L1428.75 72.576 L1428.75 27.2059 M1428.75 9.54393 L1436.21 9.54393 L1436.21 18.9825 L1428.75 18.9825 L1428.75 9.54393 Z" fill="#000000" fill-rule="evenodd" fill-opacity="1" /><path clip-path="url(#clip820)" d="M1489.52 45.1919 L1489.52 72.576 L1482.06 72.576 L1482.06 45.4349 Q1482.06 38.994 1479.55 35.7938 Q1477.04 32.5936 1472.02 32.5936 Q1465.98 32.5936 1462.5 36.4419 Q1459.01 40.2903 1459.01 46.9338 L1459.01 72.576 L1451.52 72.576 L1451.52 27.2059 L1459.01 27.2059 L1459.01 34.2544 Q1461.69 30.163 1465.29 28.1376 Q1468.94 26.1121 1473.68 26.1121 Q1481.5 26.1121 1485.51 30.9732 Q1489.52 35.7938 1489.52 45.1919 Z" fill="#000000" fill-rule="evenodd" fill-opacity="1" /><path clip-path="url(#clip820)" d="M1576.37 16.7545 L1576.37 25.383 Q1572.24 21.5346 1567.54 19.6307 Q1562.88 17.7268 1557.61 17.7268 Q1547.24 17.7268 1541.73 24.0867 Q1536.22 30.4061 1536.22 42.3968 Q1536.22 54.3469 1541.73 60.7069 Q1547.24 67.0263 1557.61 67.0263 Q1562.88 67.0263 1567.54 65.1223 Q1572.24 63.2184 1576.37 59.3701 L1576.37 67.9175 Q1572.07 70.8341 1567.25 72.2924 Q1562.47 73.7508 1557.13 73.7508 Q1543.39 73.7508 1535.49 65.3654 Q1527.59 56.9395 1527.59 42.3968 Q1527.59 27.8135 1535.49 19.4281 Q1543.39 11.0023 1557.13 11.0023 Q1562.55 11.0023 1567.33 12.4606 Q1572.15 13.8784 1576.37 16.7545 Z" fill="#000000" fill-rule="evenodd" fill-opacity="1" /><path clip-path="url(#clip820)" d="M1627.49 48.0275 L1627.49 51.6733 L1593.22 51.6733 Q1593.71 59.3701 1597.84 63.421 Q1602.01 67.4314 1609.42 67.4314 Q1613.72 67.4314 1617.73 66.3781 Q1621.78 65.3249 1625.75 63.2184 L1625.75 70.267 Q1621.74 71.9684 1617.52 72.8596 Q1613.31 73.7508 1608.98 73.7508 Q1598.12 73.7508 1591.76 67.4314 Q1585.44 61.1119 1585.44 50.3365 Q1585.44 39.1965 1591.44 32.6746 Q1597.47 26.1121 1607.68 26.1121 Q1616.84 26.1121 1622.14 32.0264 Q1627.49 37.9003 1627.49 48.0275 M1620.04 45.84 Q1619.96 39.7232 1616.59 36.0774 Q1613.27 32.4315 1607.76 32.4315 Q1601.52 32.4315 1597.76 35.9558 Q1594.03 39.4801 1593.46 45.8805 L1620.04 45.84 Z" fill="#000000" fill-rule="evenodd" fill-opacity="1" /><path clip-path="url(#clip820)" d="M1677.44 45.1919 L1677.44 72.576 L1669.98 72.576 L1669.98 45.4349 Q1669.98 38.994 1667.47 35.7938 Q1664.96 32.5936 1659.94 32.5936 Q1653.9 32.5936 1650.42 36.4419 Q1646.93 40.2903 1646.93 46.9338 L1646.93 72.576 L1639.44 72.576 L1639.44 27.2059 L1646.93 27.2059 L1646.93 34.2544 Q1649.61 30.163 1653.21 28.1376 Q1656.86 26.1121 1661.6 26.1121 Q1669.42 26.1121 1673.43 30.9732 Q1677.44 35.7938 1677.44 45.1919 Z" fill="#000000" fill-rule="evenodd" fill-opacity="1" /><path clip-path="url(#clip820)" d="M1699.68 14.324 L1699.68 27.2059 L1715.03 27.2059 L1715.03 32.9987 L1699.68 32.9987 L1699.68 57.6282 Q1699.68 63.1779 1701.18 64.7578 Q1702.72 66.3376 1707.37 66.3376 L1715.03 66.3376 L1715.03 72.576 L1707.37 72.576 Q1698.75 72.576 1695.46 69.3758 Q1692.18 66.1351 1692.18 57.6282 L1692.18 32.9987 L1686.71 32.9987 L1686.71 27.2059 L1692.18 27.2059 L1692.18 14.324 L1699.68 14.324 Z" fill="#000000" fill-rule="evenodd" fill-opacity="1" /><path clip-path="url(#clip820)" d="M1751.12 34.1734 Q1749.87 33.4443 1748.37 33.1202 Q1746.91 32.7556 1745.13 32.7556 Q1738.81 32.7556 1735.41 36.8875 Q1732.04 40.9789 1732.04 48.6757 L1732.04 72.576 L1724.55 72.576 L1724.55 27.2059 L1732.04 27.2059 L1732.04 34.2544 Q1734.39 30.1225 1738.16 28.1376 Q1741.93 26.1121 1747.32 26.1121 Q1748.09 26.1121 1749.02 26.2337 Q1749.95 26.3147 1751.08 26.5172 L1751.12 34.1734 Z" fill="#000000" fill-rule="evenodd" fill-opacity="1" /><path clip-path="url(#clip820)" d="M1779.56 49.7694 Q1770.53 49.7694 1767.04 51.8354 Q1763.56 53.9013 1763.56 58.8839 Q1763.56 62.8538 1766.15 65.2034 Q1768.79 67.5124 1773.28 67.5124 Q1779.48 67.5124 1783.21 63.1374 Q1786.97 58.7219 1786.97 51.4303 L1786.97 49.7694 L1779.56 49.7694 M1794.43 46.6907 L1794.43 72.576 L1786.97 72.576 L1786.97 65.6895 Q1784.42 69.8214 1780.61 71.8063 Q1776.81 73.7508 1771.3 73.7508 Q1764.33 73.7508 1760.2 69.8619 Q1756.11 65.9325 1756.11 59.3701 Q1756.11 51.7138 1761.21 47.825 Q1766.35 43.9361 1776.52 43.9361 L1786.97 43.9361 L1786.97 43.2069 Q1786.97 38.0623 1783.57 35.2672 Q1780.21 32.4315 1774.09 32.4315 Q1770.2 32.4315 1766.52 33.3632 Q1762.83 34.295 1759.43 36.1584 L1759.43 29.2718 Q1763.52 27.692 1767.37 26.9223 Q1771.22 26.1121 1774.86 26.1121 Q1784.71 26.1121 1789.57 31.2163 Q1794.43 36.3204 1794.43 46.6907 Z" fill="#000000" fill-rule="evenodd" fill-opacity="1" /><path clip-path="url(#clip820)" d="M1809.78 9.54393 L1817.23 9.54393 L1817.23 72.576 L1809.78 72.576 L1809.78 9.54393 Z" fill="#000000" fill-rule="evenodd" fill-opacity="1" /><path clip-path="url(#clip820)" d="M1859.53 12.096 L1897.77 12.096 L1897.77 18.9825 L1867.71 18.9825 L1867.71 36.8875 L1896.51 36.8875 L1896.51 43.7741 L1867.71 43.7741 L1867.71 65.6895 L1898.5 65.6895 L1898.5 72.576 L1859.53 72.576 L1859.53 12.096 Z" fill="#000000" fill-rule="evenodd" fill-opacity="1" /><path clip-path="url(#clip820)" d="M1941.48 34.0924 L1941.48 9.54393 L1948.93 9.54393 L1948.93 72.576 L1941.48 72.576 L1941.48 65.7705 Q1939.13 69.8214 1935.52 71.8063 Q1931.96 73.7508 1926.93 73.7508 Q1918.71 73.7508 1913.52 67.1883 Q1908.38 60.6258 1908.38 49.9314 Q1908.38 39.2371 1913.52 32.6746 Q1918.71 26.1121 1926.93 26.1121 Q1931.96 26.1121 1935.52 28.0971 Q1939.13 30.0415 1941.48 34.0924 M1916.08 49.9314 Q1916.08 58.1548 1919.44 62.8538 Q1922.84 67.5124 1928.76 67.5124 Q1934.67 67.5124 1938.07 62.8538 Q1941.48 58.1548 1941.48 49.9314 Q1941.48 41.7081 1938.07 37.0496 Q1934.67 32.3505 1928.76 32.3505 Q1922.84 32.3505 1919.44 37.0496 Q1916.08 41.7081 1916.08 49.9314 Z" fill="#000000" fill-rule="evenodd" fill-opacity="1" /><path clip-path="url(#clip820)" d="M1999.61 35.9153 Q2002.4 30.8922 2006.29 28.5022 Q2010.18 26.1121 2015.44 26.1121 Q2022.53 26.1121 2026.38 31.0947 Q2030.23 36.0368 2030.23 45.1919 L2030.23 72.576 L2022.74 72.576 L2022.74 45.4349 Q2022.74 38.913 2020.43 35.7533 Q2018.12 32.5936 2013.38 32.5936 Q2007.59 32.5936 2004.22 36.4419 Q2000.86 40.2903 2000.86 46.9338 L2000.86 72.576 L1993.37 72.576 L1993.37 45.4349 Q1993.37 38.8725 1991.06 35.7533 Q1988.75 32.5936 1983.93 32.5936 Q1978.22 32.5936 1974.85 36.4824 Q1971.49 40.3308 1971.49 46.9338 L1971.49 72.576 L1964 72.576 L1964 27.2059 L1971.49 27.2059 L1971.49 34.2544 Q1974.04 30.082 1977.61 28.0971 Q1981.17 26.1121 1986.08 26.1121 Q1991.02 26.1121 1994.46 28.6237 Q1997.95 31.1352 1999.61 35.9153 Z" fill="#000000" fill-rule="evenodd" fill-opacity="1" /><path clip-path="url(#clip820)" d="M2062.68 32.4315 Q2056.68 32.4315 2053.2 37.1306 Q2049.72 41.7891 2049.72 49.9314 Q2049.72 58.0738 2053.16 62.7728 Q2056.64 67.4314 2062.68 67.4314 Q2068.63 67.4314 2072.12 62.7323 Q2075.6 58.0333 2075.6 49.9314 Q2075.6 41.8701 2072.12 37.1711 Q2068.63 32.4315 2062.68 32.4315 M2062.68 26.1121 Q2072.4 26.1121 2077.95 32.4315 Q2083.5 38.7509 2083.5 49.9314 Q2083.5 61.0714 2077.95 67.4314 Q2072.4 73.7508 2062.68 73.7508 Q2052.92 73.7508 2047.37 67.4314 Q2041.86 61.0714 2041.86 49.9314 Q2041.86 38.7509 2047.37 32.4315 Q2052.92 26.1121 2062.68 26.1121 Z" fill="#000000" fill-rule="evenodd" fill-opacity="1" /><path clip-path="url(#clip820)" d="M2133.57 45.1919 L2133.57 72.576 L2126.12 72.576 L2126.12 45.4349 Q2126.12 38.994 2123.6 35.7938 Q2121.09 32.5936 2116.07 32.5936 Q2110.03 32.5936 2106.55 36.4419 Q2103.07 40.2903 2103.07 46.9338 L2103.07 72.576 L2095.57 72.576 L2095.57 27.2059 L2103.07 27.2059 L2103.07 34.2544 Q2105.74 30.163 2109.34 28.1376 Q2112.99 26.1121 2117.73 26.1121 Q2125.55 26.1121 2129.56 30.9732 Q2133.57 35.7938 2133.57 45.1919 Z" fill="#000000" fill-rule="evenodd" fill-opacity="1" /><path clip-path="url(#clip820)" d="M2155.81 14.324 L2155.81 27.2059 L2171.16 27.2059 L2171.16 32.9987 L2155.81 32.9987 L2155.81 57.6282 Q2155.81 63.1779 2157.31 64.7578 Q2158.85 66.3376 2163.51 66.3376 L2171.16 66.3376 L2171.16 72.576 L2163.51 72.576 Q2154.88 72.576 2151.6 69.3758 Q2148.31 66.1351 2148.31 57.6282 L2148.31 32.9987 L2142.85 32.9987 L2142.85 27.2059 L2148.31 27.2059 L2148.31 14.324 L2155.81 14.324 Z" fill="#000000" fill-rule="evenodd" fill-opacity="1" /><path clip-path="url(#clip820)" d="M2198.55 32.4315 Q2192.55 32.4315 2189.07 37.1306 Q2185.58 41.7891 2185.58 49.9314 Q2185.58 58.0738 2189.03 62.7728 Q2192.51 67.4314 2198.55 67.4314 Q2204.5 67.4314 2207.98 62.7323 Q2211.47 58.0333 2211.47 49.9314 Q2211.47 41.8701 2207.98 37.1711 Q2204.5 32.4315 2198.55 32.4315 M2198.55 26.1121 Q2208.27 26.1121 2213.82 32.4315 Q2219.37 38.7509 2219.37 49.9314 Q2219.37 61.0714 2213.82 67.4314 Q2208.27 73.7508 2198.55 73.7508 Q2188.78 73.7508 2183.23 67.4314 Q2177.72 61.0714 2177.72 49.9314 Q2177.72 38.7509 2183.23 32.4315 Q2188.78 26.1121 2198.55 26.1121 Z" fill="#000000" fill-rule="evenodd" fill-opacity="1" /><path clip-path="url(#clip820)" d="M2269.44 45.1919 L2269.44 72.576 L2261.98 72.576 L2261.98 45.4349 Q2261.98 38.994 2259.47 35.7938 Q2256.96 32.5936 2251.94 32.5936 Q2245.9 32.5936 2242.42 36.4419 Q2238.93 40.2903 2238.93 46.9338 L2238.93 72.576 L2231.44 72.576 L2231.44 27.2059 L2238.93 27.2059 L2238.93 34.2544 Q2241.61 30.163 2245.21 28.1376 Q2248.86 26.1121 2253.6 26.1121 Q2261.42 26.1121 2265.43 30.9732 Q2269.44 35.7938 2269.44 45.1919 Z" fill="#000000" fill-rule="evenodd" fill-opacity="1" /><circle clip-path="url(#clip822)" cx="353.818" cy="1082.9" r="14" fill="#009af9" fill-rule="evenodd" fill-opacity="1" stroke="#000000" stroke-opacity="1" stroke-width="3.2"/>
<circle clip-path="url(#clip822)" cx="386.14" cy="1373.15" r="14" fill="#009af9" fill-rule="evenodd" fill-opacity="1" stroke="#000000" stroke-opacity="1" stroke-width="3.2"/>
<circle clip-path="url(#clip822)" cx="421.857" cy="1337.32" r="14" fill="#009af9" fill-rule="evenodd" fill-opacity="1" stroke="#000000" stroke-opacity="1" stroke-width="3.2"/>
<circle clip-path="url(#clip822)" cx="451.662" cy="1054.08" r="14" fill="#009af9" fill-rule="evenodd" fill-opacity="1" stroke="#000000" stroke-opacity="1" stroke-width="3.2"/>
<circle clip-path="url(#clip822)" cx="452.249" cy="1198.66" r="14" fill="#009af9" fill-rule="evenodd" fill-opacity="1" stroke="#000000" stroke-opacity="1" stroke-width="3.2"/>
<circle clip-path="url(#clip822)" cx="605.598" cy="1382.81" r="14" fill="#009af9" fill-rule="evenodd" fill-opacity="1" stroke="#000000" stroke-opacity="1" stroke-width="3.2"/>
<circle clip-path="url(#clip822)" cx="626.491" cy="1376.58" r="14" fill="#009af9" fill-rule="evenodd" fill-opacity="1" stroke="#000000" stroke-opacity="1" stroke-width="3.2"/>
<circle clip-path="url(#clip822)" cx="626.525" cy="1355.86" r="14" fill="#009af9" fill-rule="evenodd" fill-opacity="1" stroke="#000000" stroke-opacity="1" stroke-width="3.2"/>
<circle clip-path="url(#clip822)" cx="859.735" cy="1381.41" r="14" fill="#009af9" fill-rule="evenodd" fill-opacity="1" stroke="#000000" stroke-opacity="1" stroke-width="3.2"/>
<circle clip-path="url(#clip822)" cx="859.802" cy="1384.06" r="14" fill="#009af9" fill-rule="evenodd" fill-opacity="1" stroke="#000000" stroke-opacity="1" stroke-width="3.2"/>
<circle clip-path="url(#clip822)" cx="859.847" cy="1384.06" r="14" fill="#009af9" fill-rule="evenodd" fill-opacity="1" stroke="#000000" stroke-opacity="1" stroke-width="3.2"/>
<circle clip-path="url(#clip822)" cx="1178.14" cy="1363.34" r="14" fill="#009af9" fill-rule="evenodd" fill-opacity="1" stroke="#000000" stroke-opacity="1" stroke-width="3.2"/>
<circle clip-path="url(#clip822)" cx="1203.78" cy="1359.91" r="14" fill="#009af9" fill-rule="evenodd" fill-opacity="1" stroke="#000000" stroke-opacity="1" stroke-width="3.2"/>
<circle clip-path="url(#clip822)" cx="1209.72" cy="1385.77" r="14" fill="#009af9" fill-rule="evenodd" fill-opacity="1" stroke="#000000" stroke-opacity="1" stroke-width="3.2"/>
<circle clip-path="url(#clip822)" cx="1210.02" cy="1384.99" r="14" fill="#009af9" fill-rule="evenodd" fill-opacity="1" stroke="#000000" stroke-opacity="1" stroke-width="3.2"/>
<circle clip-path="url(#clip822)" cx="1210.09" cy="1379.38" r="14" fill="#009af9" fill-rule="evenodd" fill-opacity="1" stroke="#000000" stroke-opacity="1" stroke-width="3.2"/>
<circle clip-path="url(#clip822)" cx="1210.15" cy="1372.53" r="14" fill="#009af9" fill-rule="evenodd" fill-opacity="1" stroke="#000000" stroke-opacity="1" stroke-width="3.2"/>
<circle clip-path="url(#clip822)" cx="1212.49" cy="1332.8" r="14" fill="#009af9" fill-rule="evenodd" fill-opacity="1" stroke="#000000" stroke-opacity="1" stroke-width="3.2"/>
<circle clip-path="url(#clip822)" cx="1212.65" cy="1381.57" r="14" fill="#009af9" fill-rule="evenodd" fill-opacity="1" stroke="#000000" stroke-opacity="1" stroke-width="3.2"/>
<circle clip-path="url(#clip822)" cx="1212.7" cy="1364.74" r="14" fill="#009af9" fill-rule="evenodd" fill-opacity="1" stroke="#000000" stroke-opacity="1" stroke-width="3.2"/>
<circle clip-path="url(#clip822)" cx="1240.99" cy="1365.36" r="14" fill="#009af9" fill-rule="evenodd" fill-opacity="1" stroke="#000000" stroke-opacity="1" stroke-width="3.2"/>
<circle clip-path="url(#clip822)" cx="1242.75" cy="1385.93" r="14" fill="#009af9" fill-rule="evenodd" fill-opacity="1" stroke="#000000" stroke-opacity="1" stroke-width="3.2"/>
<circle clip-path="url(#clip822)" cx="1267.34" cy="809.939" r="14" fill="#009af9" fill-rule="evenodd" fill-opacity="1" stroke="#000000" stroke-opacity="1" stroke-width="3.2"/>
<circle clip-path="url(#clip822)" cx="1267.58" cy="1361.94" r="14" fill="#009af9" fill-rule="evenodd" fill-opacity="1" stroke="#000000" stroke-opacity="1" stroke-width="3.2"/>
<circle clip-path="url(#clip822)" cx="1267.62" cy="1384.84" r="14" fill="#009af9" fill-rule="evenodd" fill-opacity="1" stroke="#000000" stroke-opacity="1" stroke-width="3.2"/>
<circle clip-path="url(#clip822)" cx="1267.65" cy="1277.96" r="14" fill="#009af9" fill-rule="evenodd" fill-opacity="1" stroke="#000000" stroke-opacity="1" stroke-width="3.2"/>
<circle clip-path="url(#clip822)" cx="1267.84" cy="1367.39" r="14" fill="#009af9" fill-rule="evenodd" fill-opacity="1" stroke="#000000" stroke-opacity="1" stroke-width="3.2"/>
<circle clip-path="url(#clip822)" cx="1267.89" cy="1382.19" r="14" fill="#009af9" fill-rule="evenodd" fill-opacity="1" stroke="#000000" stroke-opacity="1" stroke-width="3.2"/>
<circle clip-path="url(#clip822)" cx="1268.06" cy="1382.03" r="14" fill="#009af9" fill-rule="evenodd" fill-opacity="1" stroke="#000000" stroke-opacity="1" stroke-width="3.2"/>
<circle clip-path="url(#clip822)" cx="1268.1" cy="1349.16" r="14" fill="#009af9" fill-rule="evenodd" fill-opacity="1" stroke="#000000" stroke-opacity="1" stroke-width="3.2"/>
<circle clip-path="url(#clip822)" cx="1323.63" cy="1367.86" r="14" fill="#009af9" fill-rule="evenodd" fill-opacity="1" stroke="#000000" stroke-opacity="1" stroke-width="3.2"/>
<circle clip-path="url(#clip822)" cx="1343.61" cy="1292.29" r="14" fill="#009af9" fill-rule="evenodd" fill-opacity="1" stroke="#000000" stroke-opacity="1" stroke-width="3.2"/>
<circle clip-path="url(#clip822)" cx="1351.73" cy="1288.55" r="14" fill="#009af9" fill-rule="evenodd" fill-opacity="1" stroke="#000000" stroke-opacity="1" stroke-width="3.2"/>
<circle clip-path="url(#clip822)" cx="1455.37" cy="1380.16" r="14" fill="#009af9" fill-rule="evenodd" fill-opacity="1" stroke="#000000" stroke-opacity="1" stroke-width="3.2"/>
<circle clip-path="url(#clip822)" cx="1511.9" cy="1359.91" r="14" fill="#009af9" fill-rule="evenodd" fill-opacity="1" stroke="#000000" stroke-opacity="1" stroke-width="3.2"/>
<circle clip-path="url(#clip822)" cx="1524.79" cy="1377.05" r="14" fill="#009af9" fill-rule="evenodd" fill-opacity="1" stroke="#000000" stroke-opacity="1" stroke-width="3.2"/>
<circle clip-path="url(#clip822)" cx="1698.18" cy="1372.37" r="14" fill="#009af9" fill-rule="evenodd" fill-opacity="1" stroke="#000000" stroke-opacity="1" stroke-width="3.2"/>
<circle clip-path="url(#clip822)" cx="1803.98" cy="1369.26" r="14" fill="#009af9" fill-rule="evenodd" fill-opacity="1" stroke="#000000" stroke-opacity="1" stroke-width="3.2"/>
<circle clip-path="url(#clip822)" cx="1804" cy="1361.47" r="14" fill="#009af9" fill-rule="evenodd" fill-opacity="1" stroke="#000000" stroke-opacity="1" stroke-width="3.2"/>
<circle clip-path="url(#clip822)" cx="1835.97" cy="1199.44" r="14" fill="#009af9" fill-rule="evenodd" fill-opacity="1" stroke="#000000" stroke-opacity="1" stroke-width="3.2"/>
<circle clip-path="url(#clip822)" cx="1958.14" cy="1250.85" r="14" fill="#009af9" fill-rule="evenodd" fill-opacity="1" stroke="#000000" stroke-opacity="1" stroke-width="3.2"/>
<circle clip-path="url(#clip822)" cx="1963.4" cy="1366.14" r="14" fill="#009af9" fill-rule="evenodd" fill-opacity="1" stroke="#000000" stroke-opacity="1" stroke-width="3.2"/>
<circle clip-path="url(#clip822)" cx="1972.4" cy="1327.19" r="14" fill="#009af9" fill-rule="evenodd" fill-opacity="1" stroke="#000000" stroke-opacity="1" stroke-width="3.2"/>
<circle clip-path="url(#clip822)" cx="2056.09" cy="1135.56" r="14" fill="#009af9" fill-rule="evenodd" fill-opacity="1" stroke="#000000" stroke-opacity="1" stroke-width="3.2"/>
<circle clip-path="url(#clip822)" cx="2057.29" cy="1243.06" r="14" fill="#009af9" fill-rule="evenodd" fill-opacity="1" stroke="#000000" stroke-opacity="1" stroke-width="3.2"/>
<circle clip-path="url(#clip822)" cx="2057.67" cy="1350.56" r="14" fill="#009af9" fill-rule="evenodd" fill-opacity="1" stroke="#000000" stroke-opacity="1" stroke-width="3.2"/>
<circle clip-path="url(#clip822)" cx="2057.89" cy="1096.61" r="14" fill="#009af9" fill-rule="evenodd" fill-opacity="1" stroke="#000000" stroke-opacity="1" stroke-width="3.2"/>
<circle clip-path="url(#clip822)" cx="2059.35" cy="1358.35" r="14" fill="#009af9" fill-rule="evenodd" fill-opacity="1" stroke="#000000" stroke-opacity="1" stroke-width="3.2"/>
<circle clip-path="url(#clip822)" cx="2059.48" cy="1377.05" r="14" fill="#009af9" fill-rule="evenodd" fill-opacity="1" stroke="#000000" stroke-opacity="1" stroke-width="3.2"/>
<circle clip-path="url(#clip822)" cx="2059.53" cy="1381.72" r="14" fill="#009af9" fill-rule="evenodd" fill-opacity="1" stroke="#000000" stroke-opacity="1" stroke-width="3.2"/>
<circle clip-path="url(#clip822)" cx="2059.55" cy="1359.91" r="14" fill="#009af9" fill-rule="evenodd" fill-opacity="1" stroke="#000000" stroke-opacity="1" stroke-width="3.2"/>
<circle clip-path="url(#clip822)" cx="2135.42" cy="160.256" r="14" fill="#009af9" fill-rule="evenodd" fill-opacity="1" stroke="#000000" stroke-opacity="1" stroke-width="3.2"/>
<circle clip-path="url(#clip822)" cx="2135.7" cy="1384.84" r="14" fill="#009af9" fill-rule="evenodd" fill-opacity="1" stroke="#000000" stroke-opacity="1" stroke-width="3.2"/>
<polyline clip-path="url(#clip822)" style="stroke:#e26f46; stroke-linecap:butt; stroke-linejoin:round; stroke-width:4; stroke-opacity:1; fill:none" points="
  295.211,1386.4 2292.83,1386.4 
  "/>
<path clip-path="url(#clip820)" d="
M305.865 287.756 L1329.93 287.756 L1329.93 166.796 L305.865 166.796  Z
  " fill="#ffffff" fill-rule="evenodd" fill-opacity="1"/>
<polyline clip-path="url(#clip820)" style="stroke:#000000; stroke-linecap:butt; stroke-linejoin:round; stroke-width:4; stroke-opacity:1; fill:none" points="
  305.865,287.756 1329.93,287.756 1329.93,166.796 305.865,166.796 305.865,287.756 
  "/>
<polyline clip-path="url(#clip820)" style="stroke:#e26f46; stroke-linecap:butt; stroke-linejoin:round; stroke-width:4; stroke-opacity:1; fill:none" points="
  329.393,227.276 470.558,227.276 
  "/>
<path clip-path="url(#clip820)" d="M494.756 240.621 L502.395 240.621 L502.395 214.255 L494.085 215.922 L494.085 211.662 L502.349 209.996 L507.025 209.996 L507.025 240.621 L514.664 240.621 L514.664 244.556 L494.756 244.556 L494.756 240.621 Z" fill="#000000" fill-rule="evenodd" fill-opacity="1" /><path clip-path="url(#clip820)" d="M521.353 229.672 L533.83 229.672 L533.83 233.468 L521.353 233.468 L521.353 229.672 Z" fill="#000000" fill-rule="evenodd" fill-opacity="1" /><path clip-path="url(#clip820)" d="M562.163 228.908 L562.163 244.556 L557.904 244.556 L557.904 229.047 Q557.904 225.366 556.469 223.537 Q555.034 221.709 552.164 221.709 Q548.714 221.709 546.724 223.908 Q544.733 226.107 544.733 229.903 L544.733 244.556 L540.451 244.556 L540.451 208.537 L544.733 208.537 L544.733 222.658 Q546.261 220.32 548.321 219.162 Q550.404 218.005 553.113 218.005 Q557.58 218.005 559.872 220.783 Q562.163 223.537 562.163 228.908 Z" fill="#000000" fill-rule="evenodd" fill-opacity="1" /><path clip-path="url(#clip820)" d="M597.464 214.602 L591.122 231.801 L603.83 231.801 L597.464 214.602 M594.825 209.996 L600.126 209.996 L613.297 244.556 L608.436 244.556 L605.288 235.69 L589.71 235.69 L586.561 244.556 L581.631 244.556 L594.825 209.996 Z" fill="#000000" fill-rule="evenodd" fill-opacity="1" /><path clip-path="url(#clip820)" d="M638.344 223.607 Q639.941 220.736 642.163 219.371 Q644.385 218.005 647.394 218.005 Q651.445 218.005 653.644 220.852 Q655.844 223.676 655.844 228.908 L655.844 244.556 L651.561 244.556 L651.561 229.047 Q651.561 225.32 650.242 223.514 Q648.922 221.709 646.214 221.709 Q642.904 221.709 640.982 223.908 Q639.061 226.107 639.061 229.903 L639.061 244.556 L634.779 244.556 L634.779 229.047 Q634.779 225.297 633.459 223.514 Q632.14 221.709 629.385 221.709 Q626.121 221.709 624.2 223.931 Q622.279 226.13 622.279 229.903 L622.279 244.556 L617.996 244.556 L617.996 218.63 L622.279 218.63 L622.279 222.658 Q623.737 220.273 625.774 219.139 Q627.811 218.005 630.612 218.005 Q633.436 218.005 635.404 219.44 Q637.395 220.875 638.344 223.607 Z" fill="#000000" fill-rule="evenodd" fill-opacity="1" /><path clip-path="url(#clip820)" d="M682.95 231.616 Q682.95 226.917 681.005 224.255 Q679.084 221.57 675.705 221.57 Q672.325 221.57 670.38 224.255 Q668.459 226.917 668.459 231.616 Q668.459 236.315 670.38 239 Q672.325 241.662 675.705 241.662 Q679.084 241.662 681.005 239 Q682.95 236.315 682.95 231.616 M668.459 222.565 Q669.802 220.25 671.839 219.139 Q673.899 218.005 676.746 218.005 Q681.468 218.005 684.408 221.755 Q687.371 225.505 687.371 231.616 Q687.371 237.727 684.408 241.477 Q681.468 245.227 676.746 245.227 Q673.899 245.227 671.839 244.116 Q669.802 242.982 668.459 240.667 L668.459 244.556 L664.177 244.556 L664.177 208.537 L668.459 208.537 L668.459 222.565 Z" fill="#000000" fill-rule="evenodd" fill-opacity="1" /><path clip-path="url(#clip820)" d="M694.431 218.63 L698.69 218.63 L698.69 244.556 L694.431 244.556 L694.431 218.63 M694.431 208.537 L698.69 208.537 L698.69 213.931 L694.431 213.931 L694.431 208.537 Z" fill="#000000" fill-rule="evenodd" fill-opacity="1" /><path clip-path="url(#clip820)" d="M729.778 230.528 L729.778 232.611 L710.195 232.611 Q710.473 237.009 712.834 239.324 Q715.218 241.616 719.454 241.616 Q721.908 241.616 724.2 241.014 Q726.514 240.412 728.783 239.209 L728.783 243.236 Q726.491 244.208 724.084 244.718 Q721.676 245.227 719.2 245.227 Q712.996 245.227 709.362 241.616 Q705.751 238.005 705.751 231.847 Q705.751 225.482 709.177 221.755 Q712.626 218.005 718.459 218.005 Q723.69 218.005 726.723 221.385 Q729.778 224.741 729.778 230.528 M725.519 229.278 Q725.473 225.783 723.551 223.699 Q721.653 221.616 718.505 221.616 Q714.94 221.616 712.788 223.63 Q710.658 225.644 710.334 229.301 L725.519 229.278 Z" fill="#000000" fill-rule="evenodd" fill-opacity="1" /><path clip-path="url(#clip820)" d="M758.32 228.908 L758.32 244.556 L754.061 244.556 L754.061 229.047 Q754.061 225.366 752.625 223.537 Q751.19 221.709 748.32 221.709 Q744.871 221.709 742.88 223.908 Q740.889 226.107 740.889 229.903 L740.889 244.556 L736.607 244.556 L736.607 218.63 L740.889 218.63 L740.889 222.658 Q742.417 220.32 744.477 219.162 Q746.561 218.005 749.269 218.005 Q753.736 218.005 756.028 220.783 Q758.32 223.537 758.32 228.908 Z" fill="#000000" fill-rule="evenodd" fill-opacity="1" /><path clip-path="url(#clip820)" d="M771.028 211.269 L771.028 218.63 L779.801 218.63 L779.801 221.94 L771.028 221.94 L771.028 236.014 Q771.028 239.185 771.885 240.088 Q772.764 240.991 775.426 240.991 L779.801 240.991 L779.801 244.556 L775.426 244.556 Q770.496 244.556 768.621 242.727 Q766.746 240.875 766.746 236.014 L766.746 221.94 L763.621 221.94 L763.621 218.63 L766.746 218.63 L766.746 211.269 L771.028 211.269 Z" fill="#000000" fill-rule="evenodd" fill-opacity="1" /><path clip-path="url(#clip820)" d="M812.208 214.602 L805.866 231.801 L818.574 231.801 L812.208 214.602 M809.57 209.996 L814.87 209.996 L828.042 244.556 L823.181 244.556 L820.032 235.69 L804.454 235.69 L801.306 244.556 L796.375 244.556 L809.57 209.996 Z" fill="#000000" fill-rule="evenodd" fill-opacity="1" /><path clip-path="url(#clip820)" d="M832.903 218.63 L837.162 218.63 L837.162 244.556 L832.903 244.556 L832.903 218.63 M832.903 208.537 L837.162 208.537 L837.162 213.931 L832.903 213.931 L832.903 208.537 Z" fill="#000000" fill-rule="evenodd" fill-opacity="1" /><path clip-path="url(#clip820)" d="M861.097 222.611 Q860.379 222.195 859.523 222.01 Q858.69 221.801 857.671 221.801 Q854.06 221.801 852.116 224.162 Q850.194 226.5 850.194 230.898 L850.194 244.556 L845.912 244.556 L845.912 218.63 L850.194 218.63 L850.194 222.658 Q851.537 220.297 853.69 219.162 Q855.842 218.005 858.921 218.005 Q859.361 218.005 859.893 218.074 Q860.426 218.121 861.074 218.236 L861.097 222.611 Z" fill="#000000" fill-rule="evenodd" fill-opacity="1" /><path clip-path="url(#clip820)" d="M894.847 213.167 Q889.754 213.167 886.745 216.963 Q883.759 220.76 883.759 227.31 Q883.759 233.838 886.745 237.634 Q889.754 241.431 894.847 241.431 Q899.939 241.431 902.902 237.634 Q905.888 233.838 905.888 227.31 Q905.888 220.76 902.902 216.963 Q899.939 213.167 894.847 213.167 M901.398 243.931 L907.555 250.667 L901.907 250.667 L896.791 245.134 Q896.027 245.181 895.611 245.204 Q895.217 245.227 894.847 245.227 Q887.555 245.227 883.18 240.366 Q878.828 235.482 878.828 227.31 Q878.828 219.116 883.18 214.255 Q887.555 209.371 894.847 209.371 Q902.115 209.371 906.467 214.255 Q910.819 219.116 910.819 227.31 Q910.819 233.329 908.388 237.611 Q905.981 241.894 901.398 243.931 Z" fill="#000000" fill-rule="evenodd" fill-opacity="1" /><path clip-path="url(#clip820)" d="M917.509 234.324 L917.509 218.63 L921.768 218.63 L921.768 234.162 Q921.768 237.843 923.203 239.695 Q924.638 241.523 927.509 241.523 Q930.958 241.523 932.949 239.324 Q934.962 237.125 934.962 233.329 L934.962 218.63 L939.222 218.63 L939.222 244.556 L934.962 244.556 L934.962 240.574 Q933.411 242.935 931.351 244.093 Q929.314 245.227 926.606 245.227 Q922.138 245.227 919.824 242.449 Q917.509 239.671 917.509 234.324 M928.226 218.005 L928.226 218.005 Z" fill="#000000" fill-rule="evenodd" fill-opacity="1" /><path clip-path="url(#clip820)" d="M959.777 231.523 Q954.615 231.523 952.624 232.704 Q950.634 233.884 950.634 236.732 Q950.634 239 952.115 240.343 Q953.62 241.662 956.189 241.662 Q959.731 241.662 961.86 239.162 Q964.013 236.639 964.013 232.472 L964.013 231.523 L959.777 231.523 M968.272 229.764 L968.272 244.556 L964.013 244.556 L964.013 240.621 Q962.555 242.982 960.379 244.116 Q958.203 245.227 955.055 245.227 Q951.073 245.227 948.712 243.005 Q946.374 240.759 946.374 237.009 Q946.374 232.634 949.291 230.412 Q952.231 228.19 958.041 228.19 L964.013 228.19 L964.013 227.773 Q964.013 224.834 962.069 223.236 Q960.147 221.616 956.652 221.616 Q954.43 221.616 952.323 222.148 Q950.217 222.681 948.272 223.746 L948.272 219.81 Q950.61 218.908 952.81 218.468 Q955.009 218.005 957.092 218.005 Q962.717 218.005 965.495 220.922 Q968.272 223.838 968.272 229.764 Z" fill="#000000" fill-rule="evenodd" fill-opacity="1" /><path clip-path="url(#clip820)" d="M977.045 208.537 L981.305 208.537 L981.305 244.556 L977.045 244.556 L977.045 208.537 Z" fill="#000000" fill-rule="evenodd" fill-opacity="1" /><path clip-path="url(#clip820)" d="M990.217 218.63 L994.476 218.63 L994.476 244.556 L990.217 244.556 L990.217 218.63 M990.217 208.537 L994.476 208.537 L994.476 213.931 L990.217 213.931 L990.217 208.537 Z" fill="#000000" fill-rule="evenodd" fill-opacity="1" /><path clip-path="url(#clip820)" d="M1007.6 211.269 L1007.6 218.63 L1016.37 218.63 L1016.37 221.94 L1007.6 221.94 L1007.6 236.014 Q1007.6 239.185 1008.46 240.088 Q1009.34 240.991 1012 240.991 L1016.37 240.991 L1016.37 244.556 L1012 244.556 Q1007.07 244.556 1005.19 242.727 Q1003.32 240.875 1003.32 236.014 L1003.32 221.94 L1000.19 221.94 L1000.19 218.63 L1003.32 218.63 L1003.32 211.269 L1007.6 211.269 Z" fill="#000000" fill-rule="evenodd" fill-opacity="1" /><path clip-path="url(#clip820)" d="M1032.76 246.963 Q1030.96 251.593 1029.24 253.005 Q1027.53 254.417 1024.66 254.417 L1021.26 254.417 L1021.26 250.852 L1023.76 250.852 Q1025.52 250.852 1026.49 250.019 Q1027.46 249.185 1028.64 246.083 L1029.41 244.139 L1018.92 218.63 L1023.43 218.63 L1031.54 238.908 L1039.64 218.63 L1044.15 218.63 L1032.76 246.963 Z" fill="#000000" fill-rule="evenodd" fill-opacity="1" /><path clip-path="url(#clip820)" d="M1088.85 239.625 L1088.85 230.343 L1081.21 230.343 L1081.21 226.5 L1093.48 226.5 L1093.48 241.338 Q1090.77 243.259 1087.51 244.255 Q1084.24 245.227 1080.54 245.227 Q1072.44 245.227 1067.86 240.505 Q1063.3 235.759 1063.3 227.31 Q1063.3 218.838 1067.86 214.116 Q1072.44 209.371 1080.54 209.371 Q1083.92 209.371 1086.95 210.204 Q1090.01 211.037 1092.58 212.658 L1092.58 217.635 Q1089.98 215.436 1087.07 214.324 Q1084.15 213.213 1080.93 213.213 Q1074.59 213.213 1071.4 216.755 Q1068.23 220.297 1068.23 227.31 Q1068.23 234.301 1071.4 237.843 Q1074.59 241.384 1080.93 241.384 Q1083.41 241.384 1085.36 240.968 Q1087.3 240.528 1088.85 239.625 Z" fill="#000000" fill-rule="evenodd" fill-opacity="1" /><path clip-path="url(#clip820)" d="M1101.4 234.324 L1101.4 218.63 L1105.66 218.63 L1105.66 234.162 Q1105.66 237.843 1107.09 239.695 Q1108.53 241.523 1111.4 241.523 Q1114.85 241.523 1116.84 239.324 Q1118.85 237.125 1118.85 233.329 L1118.85 218.63 L1123.11 218.63 L1123.11 244.556 L1118.85 244.556 L1118.85 240.574 Q1117.3 242.935 1115.24 244.093 Q1113.2 245.227 1110.49 245.227 Q1106.03 245.227 1103.71 242.449 Q1101.4 239.671 1101.4 234.324 M1112.11 218.005 L1112.11 218.005 Z" fill="#000000" fill-rule="evenodd" fill-opacity="1" /><path clip-path="url(#clip820)" d="M1131.88 218.63 L1136.14 218.63 L1136.14 244.556 L1131.88 244.556 L1131.88 218.63 M1131.88 208.537 L1136.14 208.537 L1136.14 213.931 L1131.88 213.931 L1131.88 208.537 Z" fill="#000000" fill-rule="evenodd" fill-opacity="1" /><path clip-path="url(#clip820)" d="M1162.11 222.565 L1162.11 208.537 L1166.37 208.537 L1166.37 244.556 L1162.11 244.556 L1162.11 240.667 Q1160.77 242.982 1158.71 244.116 Q1156.67 245.227 1153.8 245.227 Q1149.1 245.227 1146.14 241.477 Q1143.2 237.727 1143.2 231.616 Q1143.2 225.505 1146.14 221.755 Q1149.1 218.005 1153.8 218.005 Q1156.67 218.005 1158.71 219.139 Q1160.77 220.25 1162.11 222.565 M1147.6 231.616 Q1147.6 236.315 1149.52 239 Q1151.47 241.662 1154.85 241.662 Q1158.23 241.662 1160.17 239 Q1162.11 236.315 1162.11 231.616 Q1162.11 226.917 1160.17 224.255 Q1158.23 221.57 1154.85 221.57 Q1151.47 221.57 1149.52 224.255 Q1147.6 226.917 1147.6 231.616 Z" fill="#000000" fill-rule="evenodd" fill-opacity="1" /><path clip-path="url(#clip820)" d="M1197.32 230.528 L1197.32 232.611 L1177.74 232.611 Q1178.02 237.009 1180.38 239.324 Q1182.76 241.616 1187 241.616 Q1189.45 241.616 1191.74 241.014 Q1194.06 240.412 1196.33 239.209 L1196.33 243.236 Q1194.04 244.208 1191.63 244.718 Q1189.22 245.227 1186.74 245.227 Q1180.54 245.227 1176.91 241.616 Q1173.29 238.005 1173.29 231.847 Q1173.29 225.482 1176.72 221.755 Q1180.17 218.005 1186 218.005 Q1191.23 218.005 1194.27 221.385 Q1197.32 224.741 1197.32 230.528 M1193.06 229.278 Q1193.02 225.783 1191.1 223.699 Q1189.2 221.616 1186.05 221.616 Q1182.48 221.616 1180.33 223.63 Q1178.2 225.644 1177.88 229.301 L1193.06 229.278 Z" fill="#000000" fill-rule="evenodd" fill-opacity="1" /><path clip-path="url(#clip820)" d="M1204.31 208.537 L1208.57 208.537 L1208.57 244.556 L1204.31 244.556 L1204.31 208.537 Z" fill="#000000" fill-rule="evenodd" fill-opacity="1" /><path clip-path="url(#clip820)" d="M1217.48 218.63 L1221.74 218.63 L1221.74 244.556 L1217.48 244.556 L1217.48 218.63 M1217.48 208.537 L1221.74 208.537 L1221.74 213.931 L1217.48 213.931 L1217.48 208.537 Z" fill="#000000" fill-rule="evenodd" fill-opacity="1" /><path clip-path="url(#clip820)" d="M1252.21 228.908 L1252.21 244.556 L1247.95 244.556 L1247.95 229.047 Q1247.95 225.366 1246.51 223.537 Q1245.08 221.709 1242.21 221.709 Q1238.76 221.709 1236.77 223.908 Q1234.78 226.107 1234.78 229.903 L1234.78 244.556 L1230.49 244.556 L1230.49 218.63 L1234.78 218.63 L1234.78 222.658 Q1236.3 220.32 1238.36 219.162 Q1240.45 218.005 1243.16 218.005 Q1247.62 218.005 1249.91 220.783 Q1252.21 223.537 1252.21 228.908 Z" fill="#000000" fill-rule="evenodd" fill-opacity="1" /><path clip-path="url(#clip820)" d="M1282.88 230.528 L1282.88 232.611 L1263.29 232.611 Q1263.57 237.009 1265.93 239.324 Q1268.32 241.616 1272.55 241.616 Q1275.01 241.616 1277.3 241.014 Q1279.61 240.412 1281.88 239.209 L1281.88 243.236 Q1279.59 244.208 1277.18 244.718 Q1274.78 245.227 1272.3 245.227 Q1266.09 245.227 1262.46 241.616 Q1258.85 238.005 1258.85 231.847 Q1258.85 225.482 1262.28 221.755 Q1265.72 218.005 1271.56 218.005 Q1276.79 218.005 1279.82 221.385 Q1282.88 224.741 1282.88 230.528 M1278.62 229.278 Q1278.57 225.783 1276.65 223.699 Q1274.75 221.616 1271.6 221.616 Q1268.04 221.616 1265.89 223.63 Q1263.76 225.644 1263.43 229.301 L1278.62 229.278 Z" fill="#000000" fill-rule="evenodd" fill-opacity="1" /></svg>
