<?xml version="1.0" encoding="utf-8"?>
<svg xmlns="http://www.w3.org/2000/svg" xmlns:xlink="http://www.w3.org/1999/xlink" width="600" height="400" viewBox="0 0 2400 1600">
<defs>
  <clipPath id="clip320">
    <rect x="0" y="0" width="2400" height="1600"/>
  </clipPath>
</defs>
<path clip-path="url(#clip320)" d="
M0 1600 L2400 1600 L2400 0 L0 0  Z
  " fill="#ffffff" fill-rule="evenodd" fill-opacity="1"/>
<defs>
  <clipPath id="clip321">
    <rect x="480" y="0" width="1681" height="1600"/>
  </clipPath>
</defs>
<path clip-path="url(#clip320)" d="
M219.866 1423.18 L2352.76 1423.18 L2352.76 47.2441 L219.866 47.2441  Z
  " fill="#ffffff" fill-rule="evenodd" fill-opacity="1"/>
<defs>
  <clipPath id="clip322">
    <rect x="219" y="47" width="2134" height="1377"/>
  </clipPath>
</defs>
<polyline clip-path="url(#clip322)" style="stroke:#000000; stroke-linecap:round; stroke-linejoin:round; stroke-width:2; stroke-opacity:0.1; fill:none" points="
  280.231,1423.18 280.231,47.2441 
  "/>
<polyline clip-path="url(#clip322)" style="stroke:#000000; stroke-linecap:round; stroke-linejoin:round; stroke-width:2; stroke-opacity:0.1; fill:none" points="
  682.663,1423.18 682.663,47.2441 
  "/>
<polyline clip-path="url(#clip322)" style="stroke:#000000; stroke-linecap:round; stroke-linejoin:round; stroke-width:2; stroke-opacity:0.1; fill:none" points="
  1085.1,1423.18 1085.1,47.2441 
  "/>
<polyline clip-path="url(#clip322)" style="stroke:#000000; stroke-linecap:round; stroke-linejoin:round; stroke-width:2; stroke-opacity:0.1; fill:none" points="
  1487.53,1423.18 1487.53,47.2441 
  "/>
<polyline clip-path="url(#clip322)" style="stroke:#000000; stroke-linecap:round; stroke-linejoin:round; stroke-width:2; stroke-opacity:0.1; fill:none" points="
  1889.96,1423.18 1889.96,47.2441 
  "/>
<polyline clip-path="url(#clip322)" style="stroke:#000000; stroke-linecap:round; stroke-linejoin:round; stroke-width:2; stroke-opacity:0.1; fill:none" points="
  2292.39,1423.18 2292.39,47.2441 
  "/>
<polyline clip-path="url(#clip320)" style="stroke:#000000; stroke-linecap:round; stroke-linejoin:round; stroke-width:4; stroke-opacity:1; fill:none" points="
  219.866,1423.18 2352.76,1423.18 
  "/>
<polyline clip-path="url(#clip320)" style="stroke:#000000; stroke-linecap:round; stroke-linejoin:round; stroke-width:4; stroke-opacity:1; fill:none" points="
  280.231,1423.18 280.231,1404.28 
  "/>
<polyline clip-path="url(#clip320)" style="stroke:#000000; stroke-linecap:round; stroke-linejoin:round; stroke-width:4; stroke-opacity:1; fill:none" points="
  682.663,1423.18 682.663,1404.28 
  "/>
<polyline clip-path="url(#clip320)" style="stroke:#000000; stroke-linecap:round; stroke-linejoin:round; stroke-width:4; stroke-opacity:1; fill:none" points="
  1085.1,1423.18 1085.1,1404.28 
  "/>
<polyline clip-path="url(#clip320)" style="stroke:#000000; stroke-linecap:round; stroke-linejoin:round; stroke-width:4; stroke-opacity:1; fill:none" points="
  1487.53,1423.18 1487.53,1404.28 
  "/>
<polyline clip-path="url(#clip320)" style="stroke:#000000; stroke-linecap:round; stroke-linejoin:round; stroke-width:4; stroke-opacity:1; fill:none" points="
  1889.96,1423.18 1889.96,1404.28 
  "/>
<polyline clip-path="url(#clip320)" style="stroke:#000000; stroke-linecap:round; stroke-linejoin:round; stroke-width:4; stroke-opacity:1; fill:none" points="
  2292.39,1423.18 2292.39,1404.28 
  "/>
<path clip-path="url(#clip320)" d="M280.231 1454.1 Q276.62 1454.1 274.791 1457.66 Q272.986 1461.2 272.986 1468.33 Q272.986 1475.44 274.791 1479.01 Q276.62 1482.55 280.231 1482.55 Q283.865 1482.55 285.671 1479.01 Q287.5 1475.44 287.5 1468.33 Q287.5 1461.2 285.671 1457.66 Q283.865 1454.1 280.231 1454.1 M280.231 1450.39 Q286.041 1450.39 289.097 1455 Q292.175 1459.58 292.175 1468.33 Q292.175 1477.06 289.097 1481.67 Q286.041 1486.25 280.231 1486.25 Q274.421 1486.25 271.342 1481.67 Q268.287 1477.06 268.287 1468.33 Q268.287 1459.58 271.342 1455 Q274.421 1450.39 280.231 1450.39 Z" fill="#000000" fill-rule="evenodd" fill-opacity="1" /><path clip-path="url(#clip320)" d="M642.27 1481.64 L649.909 1481.64 L649.909 1455.28 L641.598 1456.95 L641.598 1452.69 L649.862 1451.02 L654.538 1451.02 L654.538 1481.64 L662.177 1481.64 L662.177 1485.58 L642.27 1485.58 L642.27 1481.64 Z" fill="#000000" fill-rule="evenodd" fill-opacity="1" /><path clip-path="url(#clip320)" d="M681.621 1454.1 Q678.01 1454.1 676.182 1457.66 Q674.376 1461.2 674.376 1468.33 Q674.376 1475.44 676.182 1479.01 Q678.01 1482.55 681.621 1482.55 Q685.256 1482.55 687.061 1479.01 Q688.89 1475.44 688.89 1468.33 Q688.89 1461.2 687.061 1457.66 Q685.256 1454.1 681.621 1454.1 M681.621 1450.39 Q687.432 1450.39 690.487 1455 Q693.566 1459.58 693.566 1468.33 Q693.566 1477.06 690.487 1481.67 Q687.432 1486.25 681.621 1486.25 Q675.811 1486.25 672.733 1481.67 Q669.677 1477.06 669.677 1468.33 Q669.677 1459.58 672.733 1455 Q675.811 1450.39 681.621 1450.39 Z" fill="#000000" fill-rule="evenodd" fill-opacity="1" /><path clip-path="url(#clip320)" d="M711.783 1454.1 Q708.172 1454.1 706.344 1457.66 Q704.538 1461.2 704.538 1468.33 Q704.538 1475.44 706.344 1479.01 Q708.172 1482.55 711.783 1482.55 Q715.418 1482.55 717.223 1479.01 Q719.052 1475.44 719.052 1468.33 Q719.052 1461.2 717.223 1457.66 Q715.418 1454.1 711.783 1454.1 M711.783 1450.39 Q717.593 1450.39 720.649 1455 Q723.728 1459.58 723.728 1468.33 Q723.728 1477.06 720.649 1481.67 Q717.593 1486.25 711.783 1486.25 Q705.973 1486.25 702.894 1481.67 Q699.839 1477.06 699.839 1468.33 Q699.839 1459.58 702.894 1455 Q705.973 1450.39 711.783 1450.39 Z" fill="#000000" fill-rule="evenodd" fill-opacity="1" /><path clip-path="url(#clip320)" d="M1048.79 1481.64 L1065.11 1481.64 L1065.11 1485.58 L1043.16 1485.58 L1043.16 1481.64 Q1045.82 1478.89 1050.41 1474.26 Q1055.01 1469.61 1056.19 1468.27 Q1058.44 1465.74 1059.32 1464.01 Q1060.22 1462.25 1060.22 1460.56 Q1060.22 1457.8 1058.28 1456.07 Q1056.36 1454.33 1053.25 1454.33 Q1051.06 1454.33 1048.6 1455.09 Q1046.17 1455.86 1043.39 1457.41 L1043.39 1452.69 Q1046.22 1451.55 1048.67 1450.97 Q1051.13 1450.39 1053.16 1450.39 Q1058.53 1450.39 1061.73 1453.08 Q1064.92 1455.77 1064.92 1460.26 Q1064.92 1462.39 1064.11 1464.31 Q1063.32 1466.2 1061.22 1468.8 Q1060.64 1469.47 1057.54 1472.69 Q1054.44 1475.88 1048.79 1481.64 Z" fill="#000000" fill-rule="evenodd" fill-opacity="1" /><path clip-path="url(#clip320)" d="M1084.92 1454.1 Q1081.31 1454.1 1079.48 1457.66 Q1077.68 1461.2 1077.68 1468.33 Q1077.68 1475.44 1079.48 1479.01 Q1081.31 1482.55 1084.92 1482.55 Q1088.56 1482.55 1090.36 1479.01 Q1092.19 1475.44 1092.19 1468.33 Q1092.19 1461.2 1090.36 1457.66 Q1088.56 1454.1 1084.92 1454.1 M1084.92 1450.39 Q1090.73 1450.39 1093.79 1455 Q1096.87 1459.58 1096.87 1468.33 Q1096.87 1477.06 1093.79 1481.67 Q1090.73 1486.25 1084.92 1486.25 Q1079.11 1486.25 1076.03 1481.67 Q1072.98 1477.06 1072.98 1468.33 Q1072.98 1459.58 1076.03 1455 Q1079.11 1450.39 1084.92 1450.39 Z" fill="#000000" fill-rule="evenodd" fill-opacity="1" /><path clip-path="url(#clip320)" d="M1115.08 1454.1 Q1111.47 1454.1 1109.64 1457.66 Q1107.84 1461.2 1107.84 1468.33 Q1107.84 1475.44 1109.64 1479.01 Q1111.47 1482.55 1115.08 1482.55 Q1118.72 1482.55 1120.52 1479.01 Q1122.35 1475.44 1122.35 1468.33 Q1122.35 1461.2 1120.52 1457.66 Q1118.72 1454.1 1115.08 1454.1 M1115.08 1450.39 Q1120.89 1450.39 1123.95 1455 Q1127.03 1459.58 1127.03 1468.33 Q1127.03 1477.06 1123.95 1481.67 Q1120.89 1486.25 1115.08 1486.25 Q1109.27 1486.25 1106.19 1481.67 Q1103.14 1477.06 1103.14 1468.33 Q1103.14 1459.58 1106.19 1455 Q1109.27 1450.39 1115.08 1450.39 Z" fill="#000000" fill-rule="evenodd" fill-opacity="1" /><path clip-path="url(#clip320)" d="M1461.29 1466.95 Q1464.65 1467.66 1466.52 1469.93 Q1468.42 1472.2 1468.42 1475.53 Q1468.42 1480.65 1464.9 1483.45 Q1461.38 1486.25 1454.9 1486.25 Q1452.72 1486.25 1450.41 1485.81 Q1448.12 1485.39 1445.66 1484.54 L1445.66 1480.02 Q1447.61 1481.16 1449.92 1481.74 Q1452.24 1482.32 1454.76 1482.32 Q1459.16 1482.32 1461.45 1480.58 Q1463.77 1478.84 1463.77 1475.53 Q1463.77 1472.48 1461.61 1470.77 Q1459.48 1469.03 1455.66 1469.03 L1451.64 1469.03 L1451.64 1465.19 L1455.85 1465.19 Q1459.3 1465.19 1461.13 1463.82 Q1462.96 1462.43 1462.96 1459.84 Q1462.96 1457.18 1461.06 1455.77 Q1459.18 1454.33 1455.66 1454.33 Q1453.74 1454.33 1451.54 1454.75 Q1449.34 1455.16 1446.71 1456.04 L1446.71 1451.88 Q1449.37 1451.14 1451.68 1450.77 Q1454.02 1450.39 1456.08 1450.39 Q1461.4 1450.39 1464.51 1452.83 Q1467.61 1455.23 1467.61 1459.35 Q1467.61 1462.22 1465.96 1464.21 Q1464.32 1466.18 1461.29 1466.95 Z" fill="#000000" fill-rule="evenodd" fill-opacity="1" /><path clip-path="url(#clip320)" d="M1487.28 1454.1 Q1483.67 1454.1 1481.84 1457.66 Q1480.04 1461.2 1480.04 1468.33 Q1480.04 1475.44 1481.84 1479.01 Q1483.67 1482.55 1487.28 1482.55 Q1490.92 1482.55 1492.72 1479.01 Q1494.55 1475.44 1494.55 1468.33 Q1494.55 1461.2 1492.72 1457.66 Q1490.92 1454.1 1487.28 1454.1 M1487.28 1450.39 Q1493.09 1450.39 1496.15 1455 Q1499.23 1459.58 1499.23 1468.33 Q1499.23 1477.06 1496.15 1481.67 Q1493.09 1486.25 1487.28 1486.25 Q1481.47 1486.25 1478.4 1481.67 Q1475.34 1477.06 1475.34 1468.33 Q1475.34 1459.58 1478.4 1455 Q1481.47 1450.39 1487.28 1450.39 Z" fill="#000000" fill-rule="evenodd" fill-opacity="1" /><path clip-path="url(#clip320)" d="M1517.45 1454.1 Q1513.83 1454.1 1512.01 1457.66 Q1510.2 1461.2 1510.2 1468.33 Q1510.2 1475.44 1512.01 1479.01 Q1513.83 1482.55 1517.45 1482.55 Q1521.08 1482.55 1522.89 1479.01 Q1524.71 1475.44 1524.71 1468.33 Q1524.71 1461.2 1522.89 1457.66 Q1521.08 1454.1 1517.45 1454.1 M1517.45 1450.39 Q1523.26 1450.39 1526.31 1455 Q1529.39 1459.58 1529.39 1468.33 Q1529.39 1477.06 1526.31 1481.67 Q1523.26 1486.25 1517.45 1486.25 Q1511.64 1486.25 1508.56 1481.67 Q1505.5 1477.06 1505.5 1468.33 Q1505.5 1459.58 1508.56 1455 Q1511.64 1450.39 1517.45 1450.39 Z" fill="#000000" fill-rule="evenodd" fill-opacity="1" /><path clip-path="url(#clip320)" d="M1863.05 1455.09 L1851.24 1473.54 L1863.05 1473.54 L1863.05 1455.09 M1861.82 1451.02 L1867.7 1451.02 L1867.7 1473.54 L1872.63 1473.54 L1872.63 1477.43 L1867.7 1477.43 L1867.7 1485.58 L1863.05 1485.58 L1863.05 1477.43 L1847.45 1477.43 L1847.45 1472.92 L1861.82 1451.02 Z" fill="#000000" fill-rule="evenodd" fill-opacity="1" /><path clip-path="url(#clip320)" d="M1890.36 1454.1 Q1886.75 1454.1 1884.92 1457.66 Q1883.12 1461.2 1883.12 1468.33 Q1883.12 1475.44 1884.92 1479.01 Q1886.75 1482.55 1890.36 1482.55 Q1894 1482.55 1895.8 1479.01 Q1897.63 1475.44 1897.63 1468.33 Q1897.63 1461.2 1895.8 1457.66 Q1894 1454.1 1890.36 1454.1 M1890.36 1450.39 Q1896.17 1450.39 1899.23 1455 Q1902.31 1459.58 1902.31 1468.33 Q1902.31 1477.06 1899.23 1481.67 Q1896.17 1486.25 1890.36 1486.25 Q1884.55 1486.25 1881.48 1481.67 Q1878.42 1477.06 1878.42 1468.33 Q1878.42 1459.58 1881.48 1455 Q1884.55 1450.39 1890.36 1450.39 Z" fill="#000000" fill-rule="evenodd" fill-opacity="1" /><path clip-path="url(#clip320)" d="M1920.53 1454.1 Q1916.91 1454.1 1915.09 1457.66 Q1913.28 1461.2 1913.28 1468.33 Q1913.28 1475.44 1915.09 1479.01 Q1916.91 1482.55 1920.53 1482.55 Q1924.16 1482.55 1925.97 1479.01 Q1927.79 1475.44 1927.79 1468.33 Q1927.79 1461.2 1925.97 1457.66 Q1924.16 1454.1 1920.53 1454.1 M1920.53 1450.39 Q1926.34 1450.39 1929.39 1455 Q1932.47 1459.58 1932.47 1468.33 Q1932.47 1477.06 1929.39 1481.67 Q1926.34 1486.25 1920.53 1486.25 Q1914.72 1486.25 1911.64 1481.67 Q1908.58 1477.06 1908.58 1468.33 Q1908.58 1459.58 1911.64 1455 Q1914.72 1450.39 1920.53 1450.39 Z" fill="#000000" fill-rule="evenodd" fill-opacity="1" /><path clip-path="url(#clip320)" d="M2252.01 1451.02 L2270.37 1451.02 L2270.37 1454.96 L2256.29 1454.96 L2256.29 1463.43 Q2257.31 1463.08 2258.33 1462.92 Q2259.35 1462.73 2260.37 1462.73 Q2266.15 1462.73 2269.53 1465.9 Q2272.91 1469.08 2272.91 1474.49 Q2272.91 1480.07 2269.44 1483.17 Q2265.97 1486.25 2259.65 1486.25 Q2257.47 1486.25 2255.2 1485.88 Q2252.96 1485.51 2250.55 1484.77 L2250.55 1480.07 Q2252.63 1481.2 2254.86 1481.76 Q2257.08 1482.32 2259.56 1482.32 Q2263.56 1482.32 2265.9 1480.21 Q2268.24 1478.1 2268.24 1474.49 Q2268.24 1470.88 2265.9 1468.77 Q2263.56 1466.67 2259.56 1466.67 Q2257.68 1466.67 2255.81 1467.08 Q2253.95 1467.5 2252.01 1468.38 L2252.01 1451.02 Z" fill="#000000" fill-rule="evenodd" fill-opacity="1" /><path clip-path="url(#clip320)" d="M2292.12 1454.1 Q2288.51 1454.1 2286.69 1457.66 Q2284.88 1461.2 2284.88 1468.33 Q2284.88 1475.44 2286.69 1479.01 Q2288.51 1482.55 2292.12 1482.55 Q2295.76 1482.55 2297.56 1479.01 Q2299.39 1475.44 2299.39 1468.33 Q2299.39 1461.2 2297.56 1457.66 Q2295.76 1454.1 2292.12 1454.1 M2292.12 1450.39 Q2297.94 1450.39 2300.99 1455 Q2304.07 1459.58 2304.07 1468.33 Q2304.07 1477.06 2300.99 1481.67 Q2297.94 1486.25 2292.12 1486.25 Q2286.31 1486.25 2283.24 1481.67 Q2280.18 1477.06 2280.18 1468.33 Q2280.18 1459.58 2283.24 1455 Q2286.31 1450.39 2292.12 1450.39 Z" fill="#000000" fill-rule="evenodd" fill-opacity="1" /><path clip-path="url(#clip320)" d="M2322.29 1454.1 Q2318.68 1454.1 2316.85 1457.66 Q2315.04 1461.2 2315.04 1468.33 Q2315.04 1475.44 2316.85 1479.01 Q2318.68 1482.55 2322.29 1482.55 Q2325.92 1482.55 2327.73 1479.01 Q2329.56 1475.44 2329.56 1468.33 Q2329.56 1461.2 2327.73 1457.66 Q2325.92 1454.1 2322.29 1454.1 M2322.29 1450.39 Q2328.1 1450.39 2331.15 1455 Q2334.23 1459.58 2334.23 1468.33 Q2334.23 1477.06 2331.15 1481.67 Q2328.1 1486.25 2322.29 1486.25 Q2316.48 1486.25 2313.4 1481.67 Q2310.34 1477.06 2310.34 1468.33 Q2310.34 1459.58 2313.4 1455 Q2316.48 1450.39 2322.29 1450.39 Z" fill="#000000" fill-rule="evenodd" fill-opacity="1" /><path clip-path="url(#clip320)" d="M913.328 1525.81 L913.328 1562.76 L921.095 1562.76 Q930.93 1562.76 935.481 1558.3 Q940.064 1553.85 940.064 1544.24 Q940.064 1534.69 935.481 1530.26 Q930.93 1525.81 921.095 1525.81 L913.328 1525.81 M906.899 1520.52 L920.108 1520.52 Q933.921 1520.52 940.383 1526.28 Q946.844 1532.01 946.844 1544.24 Q946.844 1556.52 940.351 1562.28 Q933.858 1568.04 920.108 1568.04 L906.899 1568.04 L906.899 1520.52 Z" fill="#000000" fill-rule="evenodd" fill-opacity="1" /><path clip-path="url(#clip320)" d="M970.652 1536.5 Q965.941 1536.5 963.204 1540.19 Q960.466 1543.85 960.466 1550.25 Q960.466 1556.65 963.172 1560.34 Q965.909 1564 970.652 1564 Q975.33 1564 978.068 1560.31 Q980.805 1556.62 980.805 1550.25 Q980.805 1543.92 978.068 1540.23 Q975.33 1536.5 970.652 1536.5 M970.652 1531.54 Q978.29 1531.54 982.651 1536.5 Q987.011 1541.47 987.011 1550.25 Q987.011 1559 982.651 1564 Q978.29 1568.97 970.652 1568.97 Q962.981 1568.97 958.62 1564 Q954.292 1559 954.292 1550.25 Q954.292 1541.47 958.62 1536.5 Q962.981 1531.54 970.652 1531.54 Z" fill="#000000" fill-rule="evenodd" fill-opacity="1" /><path clip-path="url(#clip320)" d="M993.314 1532.4 L999.17 1532.4 L1006.49 1560.21 L1013.78 1532.4 L1020.69 1532.4 L1028.01 1560.21 L1035.3 1532.4 L1041.15 1532.4 L1031.83 1568.04 L1024.92 1568.04 L1017.25 1538.83 L1009.55 1568.04 L1002.64 1568.04 L993.314 1532.4 Z" fill="#000000" fill-rule="evenodd" fill-opacity="1" /><path clip-path="url(#clip320)" d="M1079.66 1546.53 L1079.66 1568.04 L1073.81 1568.04 L1073.81 1546.72 Q1073.81 1541.66 1071.83 1539.14 Q1069.86 1536.63 1065.91 1536.63 Q1061.17 1536.63 1058.43 1539.65 Q1055.7 1542.68 1055.7 1547.9 L1055.7 1568.04 L1049.81 1568.04 L1049.81 1532.4 L1055.7 1532.4 L1055.7 1537.93 Q1057.8 1534.72 1060.63 1533.13 Q1063.5 1531.54 1067.22 1531.54 Q1073.36 1531.54 1076.51 1535.36 Q1079.66 1539.14 1079.66 1546.53 Z" fill="#000000" fill-rule="evenodd" fill-opacity="1" /><path clip-path="url(#clip320)" d="M1087.94 1532.4 L1093.8 1532.4 L1101.12 1560.21 L1108.41 1532.4 L1115.31 1532.4 L1122.63 1560.21 L1129.92 1532.4 L1135.78 1532.4 L1126.45 1568.04 L1119.55 1568.04 L1111.87 1538.83 L1104.17 1568.04 L1097.27 1568.04 L1087.94 1532.4 Z" fill="#000000" fill-rule="evenodd" fill-opacity="1" /><path clip-path="url(#clip320)" d="M1144.66 1532.4 L1150.51 1532.4 L1150.51 1568.04 L1144.66 1568.04 L1144.66 1532.4 M1144.66 1518.52 L1150.51 1518.52 L1150.51 1525.93 L1144.66 1525.93 L1144.66 1518.52 Z" fill="#000000" fill-rule="evenodd" fill-opacity="1" /><path clip-path="url(#clip320)" d="M1192.4 1546.53 L1192.4 1568.04 L1186.54 1568.04 L1186.54 1546.72 Q1186.54 1541.66 1184.57 1539.14 Q1182.6 1536.63 1178.65 1536.63 Q1173.91 1536.63 1171.17 1539.65 Q1168.43 1542.68 1168.43 1547.9 L1168.43 1568.04 L1162.55 1568.04 L1162.55 1532.4 L1168.43 1532.4 L1168.43 1537.93 Q1170.53 1534.72 1173.37 1533.13 Q1176.23 1531.54 1179.96 1531.54 Q1186.1 1531.54 1189.25 1535.36 Q1192.4 1539.14 1192.4 1546.53 Z" fill="#000000" fill-rule="evenodd" fill-opacity="1" /><path clip-path="url(#clip320)" d="M1227.54 1537.81 L1227.54 1518.52 L1233.4 1518.52 L1233.4 1568.04 L1227.54 1568.04 L1227.54 1562.7 Q1225.69 1565.88 1222.86 1567.44 Q1220.06 1568.97 1216.11 1568.97 Q1209.65 1568.97 1205.58 1563.81 Q1201.54 1558.65 1201.54 1550.25 Q1201.54 1541.85 1205.58 1536.69 Q1209.65 1531.54 1216.11 1531.54 Q1220.06 1531.54 1222.86 1533.1 Q1225.69 1534.62 1227.54 1537.81 M1207.58 1550.25 Q1207.58 1556.71 1210.22 1560.4 Q1212.9 1564.07 1217.55 1564.07 Q1222.19 1564.07 1224.87 1560.4 Q1227.54 1556.71 1227.54 1550.25 Q1227.54 1543.79 1224.87 1540.13 Q1222.19 1536.44 1217.55 1536.44 Q1212.9 1536.44 1210.22 1540.13 Q1207.58 1543.79 1207.58 1550.25 Z" fill="#000000" fill-rule="evenodd" fill-opacity="1" /><path clip-path="url(#clip320)" d="M1289.64 1537.81 L1289.64 1518.52 L1295.49 1518.52 L1295.49 1568.04 L1289.64 1568.04 L1289.64 1562.7 Q1287.79 1565.88 1284.96 1567.44 Q1282.16 1568.97 1278.21 1568.97 Q1271.75 1568.97 1267.68 1563.81 Q1263.63 1558.65 1263.63 1550.25 Q1263.63 1541.85 1267.68 1536.69 Q1271.75 1531.54 1278.21 1531.54 Q1282.16 1531.54 1284.96 1533.1 Q1287.79 1534.62 1289.64 1537.81 M1269.68 1550.25 Q1269.68 1556.71 1272.32 1560.4 Q1275 1564.07 1279.64 1564.07 Q1284.29 1564.07 1286.96 1560.4 Q1289.64 1556.71 1289.64 1550.25 Q1289.64 1543.79 1286.96 1540.13 Q1284.29 1536.44 1279.64 1536.44 Q1275 1536.44 1272.32 1540.13 Q1269.68 1543.79 1269.68 1550.25 Z" fill="#000000" fill-rule="evenodd" fill-opacity="1" /><path clip-path="url(#clip320)" d="M1307.56 1532.4 L1313.41 1532.4 L1313.41 1568.04 L1307.56 1568.04 L1307.56 1532.4 M1307.56 1518.52 L1313.41 1518.52 L1313.41 1525.93 L1307.56 1525.93 L1307.56 1518.52 Z" fill="#000000" fill-rule="evenodd" fill-opacity="1" /><path clip-path="url(#clip320)" d="M1348.39 1533.45 L1348.39 1538.98 Q1345.91 1537.71 1343.24 1537.07 Q1340.56 1536.44 1337.7 1536.44 Q1333.34 1536.44 1331.14 1537.77 Q1328.98 1539.11 1328.98 1541.79 Q1328.98 1543.82 1330.54 1545 Q1332.1 1546.15 1336.81 1547.2 L1338.81 1547.64 Q1345.05 1548.98 1347.66 1551.43 Q1350.3 1553.85 1350.3 1558.21 Q1350.3 1563.17 1346.36 1566.07 Q1342.44 1568.97 1335.57 1568.97 Q1332.7 1568.97 1329.58 1568.39 Q1326.49 1567.85 1323.06 1566.74 L1323.06 1560.69 Q1326.3 1562.38 1329.45 1563.24 Q1332.61 1564.07 1335.69 1564.07 Q1339.83 1564.07 1342.06 1562.66 Q1344.29 1561.23 1344.29 1558.65 Q1344.29 1556.27 1342.66 1554.99 Q1341.07 1553.72 1335.63 1552.54 L1333.59 1552.07 Q1328.15 1550.92 1325.73 1548.56 Q1323.31 1546.18 1323.31 1542.04 Q1323.31 1537.01 1326.88 1534.27 Q1330.44 1531.54 1337 1531.54 Q1340.24 1531.54 1343.11 1532.01 Q1345.97 1532.49 1348.39 1533.45 Z" fill="#000000" fill-rule="evenodd" fill-opacity="1" /><path clip-path="url(#clip320)" d="M1365.42 1522.27 L1365.42 1532.4 L1377.48 1532.4 L1377.48 1536.95 L1365.42 1536.95 L1365.42 1556.3 Q1365.42 1560.66 1366.6 1561.9 Q1367.81 1563.14 1371.47 1563.14 L1377.48 1563.14 L1377.48 1568.04 L1371.47 1568.04 Q1364.69 1568.04 1362.11 1565.53 Q1359.53 1562.98 1359.53 1556.3 L1359.53 1536.95 L1355.24 1536.95 L1355.24 1532.4 L1359.53 1532.4 L1359.53 1522.27 L1365.42 1522.27 Z" fill="#000000" fill-rule="evenodd" fill-opacity="1" /><path clip-path="url(#clip320)" d="M1401.39 1550.12 Q1394.29 1550.12 1391.55 1551.75 Q1388.81 1553.37 1388.81 1557.29 Q1388.81 1560.4 1390.85 1562.25 Q1392.92 1564.07 1396.45 1564.07 Q1401.32 1564.07 1404.25 1560.63 Q1407.21 1557.16 1407.21 1551.43 L1407.21 1550.12 L1401.39 1550.12 M1413.07 1547.71 L1413.07 1568.04 L1407.21 1568.04 L1407.21 1562.63 Q1405.21 1565.88 1402.21 1567.44 Q1399.22 1568.97 1394.89 1568.97 Q1389.42 1568.97 1386.17 1565.91 Q1382.96 1562.82 1382.96 1557.67 Q1382.96 1551.65 1386.97 1548.6 Q1391.01 1545.54 1399 1545.54 L1407.21 1545.54 L1407.21 1544.97 Q1407.21 1540.93 1404.54 1538.73 Q1401.9 1536.5 1397.09 1536.5 Q1394.03 1536.5 1391.14 1537.23 Q1388.24 1537.97 1385.57 1539.43 L1385.57 1534.02 Q1388.78 1532.78 1391.81 1532.17 Q1394.83 1531.54 1397.7 1531.54 Q1405.43 1531.54 1409.25 1535.55 Q1413.07 1539.56 1413.07 1547.71 Z" fill="#000000" fill-rule="evenodd" fill-opacity="1" /><path clip-path="url(#clip320)" d="M1454.76 1546.53 L1454.76 1568.04 L1448.91 1568.04 L1448.91 1546.72 Q1448.91 1541.66 1446.93 1539.14 Q1444.96 1536.63 1441.01 1536.63 Q1436.27 1536.63 1433.53 1539.65 Q1430.8 1542.68 1430.8 1547.9 L1430.8 1568.04 L1424.91 1568.04 L1424.91 1532.4 L1430.8 1532.4 L1430.8 1537.93 Q1432.9 1534.72 1435.73 1533.13 Q1438.59 1531.54 1442.32 1531.54 Q1448.46 1531.54 1451.61 1535.36 Q1454.76 1539.14 1454.76 1546.53 Z" fill="#000000" fill-rule="evenodd" fill-opacity="1" /><path clip-path="url(#clip320)" d="M1492.1 1533.76 L1492.1 1539.24 Q1489.62 1537.87 1487.1 1537.2 Q1484.62 1536.5 1482.07 1536.5 Q1476.38 1536.5 1473.22 1540.13 Q1470.07 1543.73 1470.07 1550.25 Q1470.07 1556.78 1473.22 1560.4 Q1476.38 1564 1482.07 1564 Q1484.62 1564 1487.1 1563.33 Q1489.62 1562.63 1492.1 1561.26 L1492.1 1566.68 Q1489.65 1567.82 1487.01 1568.39 Q1484.4 1568.97 1481.44 1568.97 Q1473.38 1568.97 1468.64 1563.91 Q1463.9 1558.85 1463.9 1550.25 Q1463.9 1541.53 1468.67 1536.53 Q1473.48 1531.54 1481.82 1531.54 Q1484.52 1531.54 1487.1 1532.11 Q1489.68 1532.65 1492.1 1533.76 Z" fill="#000000" fill-rule="evenodd" fill-opacity="1" /><path clip-path="url(#clip320)" d="M1532.78 1548.76 L1532.78 1551.62 L1505.85 1551.62 Q1506.23 1557.67 1509.48 1560.85 Q1512.76 1564 1518.58 1564 Q1521.95 1564 1525.1 1563.17 Q1528.29 1562.35 1531.41 1560.69 L1531.41 1566.23 Q1528.26 1567.57 1524.95 1568.27 Q1521.64 1568.97 1518.23 1568.97 Q1509.7 1568.97 1504.7 1564 Q1499.74 1559.04 1499.74 1550.57 Q1499.74 1541.82 1504.45 1536.69 Q1509.19 1531.54 1517.21 1531.54 Q1524.4 1531.54 1528.57 1536.18 Q1532.78 1540.8 1532.78 1548.76 M1526.92 1547.04 Q1526.86 1542.23 1524.21 1539.37 Q1521.6 1536.5 1517.27 1536.5 Q1512.37 1536.5 1509.41 1539.27 Q1506.48 1542.04 1506.04 1547.07 L1526.92 1547.04 Z" fill="#000000" fill-rule="evenodd" fill-opacity="1" /><path clip-path="url(#clip320)" d="M1577.18 1518.58 Q1572.91 1525.9 1570.84 1533.06 Q1568.77 1540.23 1568.77 1547.58 Q1568.77 1554.93 1570.84 1562.16 Q1572.94 1569.35 1577.18 1576.64 L1572.08 1576.64 Q1567.31 1569.16 1564.92 1561.93 Q1562.57 1554.71 1562.57 1547.58 Q1562.57 1540.48 1564.92 1533.29 Q1567.28 1526.09 1572.08 1518.58 L1577.18 1518.58 Z" fill="#000000" fill-rule="evenodd" fill-opacity="1" /><path clip-path="url(#clip320)" d="M1616.29 1539.24 Q1618.49 1535.29 1621.55 1533.41 Q1624.6 1531.54 1628.74 1531.54 Q1634.31 1531.54 1637.33 1535.45 Q1640.36 1539.33 1640.36 1546.53 L1640.36 1568.04 L1634.47 1568.04 L1634.47 1546.72 Q1634.47 1541.59 1632.65 1539.11 Q1630.84 1536.63 1627.12 1536.63 Q1622.56 1536.63 1619.92 1539.65 Q1617.28 1542.68 1617.28 1547.9 L1617.28 1568.04 L1611.39 1568.04 L1611.39 1546.72 Q1611.39 1541.56 1609.58 1539.11 Q1607.76 1536.63 1603.98 1536.63 Q1599.49 1536.63 1596.85 1539.68 Q1594.2 1542.71 1594.2 1547.9 L1594.2 1568.04 L1588.32 1568.04 L1588.32 1532.4 L1594.2 1532.4 L1594.2 1537.93 Q1596.21 1534.66 1599.01 1533.1 Q1601.81 1531.54 1605.66 1531.54 Q1609.55 1531.54 1612.25 1533.51 Q1614.99 1535.48 1616.29 1539.24 Z" fill="#000000" fill-rule="evenodd" fill-opacity="1" /><path clip-path="url(#clip320)" d="M1651.11 1518.58 L1656.21 1518.58 Q1660.98 1526.09 1663.34 1533.29 Q1665.72 1540.48 1665.72 1547.58 Q1665.72 1554.71 1663.34 1561.93 Q1660.98 1569.16 1656.21 1576.64 L1651.11 1576.64 Q1655.35 1569.35 1657.42 1562.16 Q1659.52 1554.93 1659.52 1547.58 Q1659.52 1540.23 1657.42 1533.06 Q1655.35 1525.9 1651.11 1518.58 Z" fill="#000000" fill-rule="evenodd" fill-opacity="1" /><polyline clip-path="url(#clip322)" style="stroke:#000000; stroke-linecap:round; stroke-linejoin:round; stroke-width:2; stroke-opacity:0.1; fill:none" points="
  219.866,1156.56 2352.76,1156.56 
  "/>
<polyline clip-path="url(#clip322)" style="stroke:#000000; stroke-linecap:round; stroke-linejoin:round; stroke-width:2; stroke-opacity:0.1; fill:none" points="
  219.866,888.965 2352.76,888.965 
  "/>
<polyline clip-path="url(#clip322)" style="stroke:#000000; stroke-linecap:round; stroke-linejoin:round; stroke-width:2; stroke-opacity:0.1; fill:none" points="
  219.866,621.372 2352.76,621.372 
  "/>
<polyline clip-path="url(#clip322)" style="stroke:#000000; stroke-linecap:round; stroke-linejoin:round; stroke-width:2; stroke-opacity:0.1; fill:none" points="
  219.866,353.779 2352.76,353.779 
  "/>
<polyline clip-path="url(#clip322)" style="stroke:#000000; stroke-linecap:round; stroke-linejoin:round; stroke-width:2; stroke-opacity:0.1; fill:none" points="
  219.866,86.1857 2352.76,86.1857 
  "/>
<polyline clip-path="url(#clip320)" style="stroke:#000000; stroke-linecap:round; stroke-linejoin:round; stroke-width:4; stroke-opacity:1; fill:none" points="
  219.866,1423.18 219.866,47.2441 
  "/>
<polyline clip-path="url(#clip320)" style="stroke:#000000; stroke-linecap:round; stroke-linejoin:round; stroke-width:4; stroke-opacity:1; fill:none" points="
  219.866,1156.56 238.764,1156.56 
  "/>
<polyline clip-path="url(#clip320)" style="stroke:#000000; stroke-linecap:round; stroke-linejoin:round; stroke-width:4; stroke-opacity:1; fill:none" points="
  219.866,888.965 238.764,888.965 
  "/>
<polyline clip-path="url(#clip320)" style="stroke:#000000; stroke-linecap:round; stroke-linejoin:round; stroke-width:4; stroke-opacity:1; fill:none" points="
  219.866,621.372 238.764,621.372 
  "/>
<polyline clip-path="url(#clip320)" style="stroke:#000000; stroke-linecap:round; stroke-linejoin:round; stroke-width:4; stroke-opacity:1; fill:none" points="
  219.866,353.779 238.764,353.779 
  "/>
<polyline clip-path="url(#clip320)" style="stroke:#000000; stroke-linecap:round; stroke-linejoin:round; stroke-width:4; stroke-opacity:1; fill:none" points="
  219.866,86.1857 238.764,86.1857 
  "/>
<path clip-path="url(#clip320)" d="M128.288 1142.36 Q124.677 1142.36 122.848 1145.92 Q121.043 1149.46 121.043 1156.59 Q121.043 1163.7 122.848 1167.26 Q124.677 1170.81 128.288 1170.81 Q131.922 1170.81 133.728 1167.26 Q135.556 1163.7 135.556 1156.59 Q135.556 1149.46 133.728 1145.92 Q131.922 1142.36 128.288 1142.36 M128.288 1138.65 Q134.098 1138.65 137.154 1143.26 Q140.232 1147.84 140.232 1156.59 Q140.232 1165.32 137.154 1169.93 Q134.098 1174.51 128.288 1174.51 Q122.478 1174.51 119.399 1169.93 Q116.343 1165.32 116.343 1156.59 Q116.343 1147.84 119.399 1143.26 Q122.478 1138.65 128.288 1138.65 Z" fill="#000000" fill-rule="evenodd" fill-opacity="1" /><path clip-path="url(#clip320)" d="M148.45 1167.96 L153.334 1167.96 L153.334 1173.84 L148.45 1173.84 L148.45 1167.96 Z" fill="#000000" fill-rule="evenodd" fill-opacity="1" /><path clip-path="url(#clip320)" d="M167.547 1169.9 L183.866 1169.9 L183.866 1173.84 L161.922 1173.84 L161.922 1169.9 Q164.584 1167.15 169.167 1162.52 Q173.774 1157.87 174.954 1156.52 Q177.2 1154 178.079 1152.26 Q178.982 1150.5 178.982 1148.81 Q178.982 1146.06 177.038 1144.32 Q175.116 1142.59 172.014 1142.59 Q169.815 1142.59 167.362 1143.35 Q164.931 1144.12 162.153 1145.67 L162.153 1140.94 Q164.977 1139.81 167.431 1139.23 Q169.885 1138.65 171.922 1138.65 Q177.292 1138.65 180.487 1141.34 Q183.681 1144.02 183.681 1148.51 Q183.681 1150.64 182.871 1152.56 Q182.084 1154.46 179.977 1157.06 Q179.399 1157.73 176.297 1160.94 Q173.195 1164.14 167.547 1169.9 Z" fill="#000000" fill-rule="evenodd" fill-opacity="1" /><path clip-path="url(#clip320)" d="M126.205 874.764 Q122.593 874.764 120.765 878.328 Q118.959 881.87 118.959 889 Q118.959 896.106 120.765 899.671 Q122.593 903.212 126.205 903.212 Q129.839 903.212 131.644 899.671 Q133.473 896.106 133.473 889 Q133.473 881.87 131.644 878.328 Q129.839 874.764 126.205 874.764 M126.205 871.06 Q132.015 871.06 135.07 875.666 Q138.149 880.25 138.149 889 Q138.149 897.726 135.07 902.333 Q132.015 906.916 126.205 906.916 Q120.394 906.916 117.316 902.333 Q114.26 897.726 114.26 889 Q114.26 880.25 117.316 875.666 Q120.394 871.06 126.205 871.06 Z" fill="#000000" fill-rule="evenodd" fill-opacity="1" /><path clip-path="url(#clip320)" d="M146.366 900.365 L151.251 900.365 L151.251 906.245 L146.366 906.245 L146.366 900.365 Z" fill="#000000" fill-rule="evenodd" fill-opacity="1" /><path clip-path="url(#clip320)" d="M174.283 875.759 L162.477 894.208 L174.283 894.208 L174.283 875.759 M173.056 871.685 L178.936 871.685 L178.936 894.208 L183.866 894.208 L183.866 898.097 L178.936 898.097 L178.936 906.245 L174.283 906.245 L174.283 898.097 L158.681 898.097 L158.681 893.583 L173.056 871.685 Z" fill="#000000" fill-rule="evenodd" fill-opacity="1" /><path clip-path="url(#clip320)" d="M126.529 607.17 Q122.918 607.17 121.089 610.735 Q119.283 614.277 119.283 621.407 Q119.283 628.513 121.089 632.078 Q122.918 635.619 126.529 635.619 Q130.163 635.619 131.968 632.078 Q133.797 628.513 133.797 621.407 Q133.797 614.277 131.968 610.735 Q130.163 607.17 126.529 607.17 M126.529 603.467 Q132.339 603.467 135.394 608.073 Q138.473 612.657 138.473 621.407 Q138.473 630.133 135.394 634.74 Q132.339 639.323 126.529 639.323 Q120.718 639.323 117.64 634.74 Q114.584 630.133 114.584 621.407 Q114.584 612.657 117.64 608.073 Q120.718 603.467 126.529 603.467 Z" fill="#000000" fill-rule="evenodd" fill-opacity="1" /><path clip-path="url(#clip320)" d="M146.691 632.772 L151.575 632.772 L151.575 638.652 L146.691 638.652 L146.691 632.772 Z" fill="#000000" fill-rule="evenodd" fill-opacity="1" /><path clip-path="url(#clip320)" d="M172.339 619.508 Q169.19 619.508 167.339 621.661 Q165.51 623.814 165.51 627.564 Q165.51 631.291 167.339 633.467 Q169.19 635.619 172.339 635.619 Q175.487 635.619 177.315 633.467 Q179.167 631.291 179.167 627.564 Q179.167 623.814 177.315 621.661 Q175.487 619.508 172.339 619.508 M181.621 604.856 L181.621 609.115 Q179.862 608.282 178.056 607.842 Q176.274 607.402 174.514 607.402 Q169.885 607.402 167.431 610.527 Q165.001 613.652 164.653 619.971 Q166.019 617.957 168.079 616.893 Q170.139 615.805 172.616 615.805 Q177.825 615.805 180.834 618.976 Q183.866 622.124 183.866 627.564 Q183.866 632.888 180.718 636.105 Q177.57 639.323 172.339 639.323 Q166.343 639.323 163.172 634.74 Q160.001 630.133 160.001 621.407 Q160.001 613.212 163.89 608.351 Q167.778 603.467 174.329 603.467 Q176.089 603.467 177.871 603.814 Q179.676 604.161 181.621 604.856 Z" fill="#000000" fill-rule="evenodd" fill-opacity="1" /><path clip-path="url(#clip320)" d="M126.783 339.577 Q123.172 339.577 121.343 343.142 Q119.538 346.684 119.538 353.813 Q119.538 360.92 121.343 364.485 Q123.172 368.026 126.783 368.026 Q130.417 368.026 132.223 364.485 Q134.052 360.92 134.052 353.813 Q134.052 346.684 132.223 343.142 Q130.417 339.577 126.783 339.577 M126.783 335.874 Q132.593 335.874 135.649 340.48 Q138.728 345.063 138.728 353.813 Q138.728 362.54 135.649 367.147 Q132.593 371.73 126.783 371.73 Q120.973 371.73 117.894 367.147 Q114.839 362.54 114.839 353.813 Q114.839 345.063 117.894 340.48 Q120.973 335.874 126.783 335.874 Z" fill="#000000" fill-rule="evenodd" fill-opacity="1" /><path clip-path="url(#clip320)" d="M146.945 365.179 L151.829 365.179 L151.829 371.059 L146.945 371.059 L146.945 365.179 Z" fill="#000000" fill-rule="evenodd" fill-opacity="1" /><path clip-path="url(#clip320)" d="M172.014 354.647 Q168.681 354.647 166.76 356.429 Q164.862 358.212 164.862 361.337 Q164.862 364.462 166.76 366.244 Q168.681 368.026 172.014 368.026 Q175.348 368.026 177.269 366.244 Q179.19 364.438 179.19 361.337 Q179.19 358.212 177.269 356.429 Q175.371 354.647 172.014 354.647 M167.339 352.656 Q164.329 351.915 162.64 349.855 Q160.973 347.795 160.973 344.832 Q160.973 340.689 163.913 338.281 Q166.876 335.874 172.014 335.874 Q177.176 335.874 180.116 338.281 Q183.056 340.689 183.056 344.832 Q183.056 347.795 181.366 349.855 Q179.7 351.915 176.714 352.656 Q180.093 353.443 181.968 355.735 Q183.866 358.026 183.866 361.337 Q183.866 366.36 180.788 369.045 Q177.732 371.73 172.014 371.73 Q166.297 371.73 163.218 369.045 Q160.163 366.36 160.163 361.337 Q160.163 358.026 162.061 355.735 Q163.959 353.443 167.339 352.656 M165.626 345.272 Q165.626 347.957 167.292 349.462 Q168.982 350.966 172.014 350.966 Q175.024 350.966 176.714 349.462 Q178.426 347.957 178.426 345.272 Q178.426 342.587 176.714 341.082 Q175.024 339.577 172.014 339.577 Q168.982 339.577 167.292 341.082 Q165.626 342.587 165.626 345.272 Z" fill="#000000" fill-rule="evenodd" fill-opacity="1" /><path clip-path="url(#clip320)" d="M117.501 99.5305 L125.14 99.5305 L125.14 73.1649 L116.83 74.8316 L116.83 70.5723 L125.093 68.9057 L129.769 68.9057 L129.769 99.5305 L137.408 99.5305 L137.408 103.466 L117.501 103.466 L117.501 99.5305 Z" fill="#000000" fill-rule="evenodd" fill-opacity="1" /><path clip-path="url(#clip320)" d="M146.853 97.5861 L151.737 97.5861 L151.737 103.466 L146.853 103.466 L146.853 97.5861 Z" fill="#000000" fill-rule="evenodd" fill-opacity="1" /><path clip-path="url(#clip320)" d="M171.922 71.9844 Q168.311 71.9844 166.482 75.5492 Q164.677 79.0908 164.677 86.2204 Q164.677 93.3268 166.482 96.8916 Q168.311 100.433 171.922 100.433 Q175.556 100.433 177.362 96.8916 Q179.19 93.3268 179.19 86.2204 Q179.19 79.0908 177.362 75.5492 Q175.556 71.9844 171.922 71.9844 M171.922 68.2807 Q177.732 68.2807 180.788 72.8871 Q183.866 77.4704 183.866 86.2204 Q183.866 94.9472 180.788 99.5537 Q177.732 104.137 171.922 104.137 Q166.112 104.137 163.033 99.5537 Q159.978 94.9472 159.978 86.2204 Q159.978 77.4704 163.033 72.8871 Q166.112 68.2807 171.922 68.2807 Z" fill="#000000" fill-rule="evenodd" fill-opacity="1" /><path clip-path="url(#clip320)" d="M20.1444 1024.72 L26.9239 1024.72 Q23.9002 1027.97 22.4043 1031.66 Q20.9083 1035.32 20.9083 1039.46 Q20.9083 1047.61 25.9054 1051.94 Q30.8707 1056.27 40.2919 1056.27 Q49.6813 1056.27 54.6784 1051.94 Q59.6436 1047.61 59.6436 1039.46 Q59.6436 1035.32 58.1477 1031.66 Q56.6518 1027.97 53.6281 1024.72 L60.3439 1024.72 Q62.6355 1028.1 63.7814 1031.89 Q64.9272 1035.64 64.9272 1039.84 Q64.9272 1050.63 58.3387 1056.84 Q51.7183 1063.05 40.2919 1063.05 Q28.8336 1063.05 22.2451 1056.84 Q15.6248 1050.63 15.6248 1039.84 Q15.6248 1035.58 16.7706 1031.82 Q17.8846 1028.03 20.1444 1024.72 Z" fill="#000000" fill-rule="evenodd" fill-opacity="1" /><path clip-path="url(#clip320)" d="M32.4621 1001.23 Q32.4621 1005.95 36.1542 1008.68 Q39.8145 1011.42 46.212 1011.42 Q52.6095 1011.42 56.3017 1008.71 Q59.9619 1005.98 59.9619 1001.23 Q59.9619 996.556 56.2698 993.819 Q52.5777 991.082 46.212 991.082 Q39.8781 991.082 36.186 993.819 Q32.4621 996.556 32.4621 1001.23 M27.4968 1001.23 Q27.4968 993.596 32.4621 989.235 Q37.4273 984.875 46.212 984.875 Q54.9649 984.875 59.9619 989.235 Q64.9272 993.596 64.9272 1001.23 Q64.9272 1008.91 59.9619 1013.27 Q54.9649 1017.59 46.212 1017.59 Q37.4273 1017.59 32.4621 1013.27 Q27.4968 1008.91 27.4968 1001.23 Z" fill="#000000" fill-rule="evenodd" fill-opacity="1" /><path clip-path="url(#clip320)" d="M42.4881 945.535 L64.0042 945.535 L64.0042 951.391 L42.679 951.391 Q37.6183 951.391 35.1038 953.365 Q32.5894 955.338 32.5894 959.285 Q32.5894 964.027 35.6131 966.765 Q38.6368 969.502 43.8567 969.502 L64.0042 969.502 L64.0042 975.39 L28.3562 975.39 L28.3562 969.502 L33.8944 969.502 Q30.6797 967.401 29.0883 964.568 Q27.4968 961.704 27.4968 957.98 Q27.4968 951.837 31.3163 948.686 Q35.1038 945.535 42.4881 945.535 Z" fill="#000000" fill-rule="evenodd" fill-opacity="1" /><path clip-path="url(#clip320)" d="M29.7248 908.2 L35.1993 908.2 Q33.8307 910.683 33.1623 913.197 Q32.4621 915.68 32.4621 918.226 Q32.4621 923.923 36.0905 927.074 Q39.6872 930.225 46.212 930.225 Q52.7369 930.225 56.3653 927.074 Q59.9619 923.923 59.9619 918.226 Q59.9619 915.68 59.2935 913.197 Q58.5933 910.683 57.2247 908.2 L62.6355 908.2 Q63.7814 910.651 64.3543 913.293 Q64.9272 915.903 64.9272 918.863 Q64.9272 926.915 59.8664 931.658 Q54.8057 936.4 46.212 936.4 Q37.491 936.4 32.4939 931.626 Q27.4968 926.82 27.4968 918.481 Q27.4968 915.775 28.0697 913.197 Q28.6108 910.619 29.7248 908.2 Z" fill="#000000" fill-rule="evenodd" fill-opacity="1" /><path clip-path="url(#clip320)" d="M44.7161 867.523 L47.5806 867.523 L47.5806 894.45 Q53.6281 894.068 56.8109 890.822 Q59.9619 887.543 59.9619 881.719 Q59.9619 878.345 59.1344 875.194 Q58.3069 872.011 56.6518 868.892 L62.1899 868.892 Q63.5267 872.043 64.227 875.353 Q64.9272 878.663 64.9272 882.069 Q64.9272 890.599 59.9619 895.596 Q54.9967 900.561 46.5303 900.561 Q37.7774 900.561 32.6531 895.851 Q27.4968 891.108 27.4968 883.087 Q27.4968 875.894 32.1438 871.725 Q36.7589 867.523 44.7161 867.523 M42.9973 873.38 Q38.1912 873.443 35.3266 876.085 Q32.4621 878.695 32.4621 883.024 Q32.4621 887.925 35.2312 890.885 Q38.0002 893.814 43.0292 894.259 L42.9973 873.38 Z" fill="#000000" fill-rule="evenodd" fill-opacity="1" /><path clip-path="url(#clip320)" d="M42.4881 828.279 L64.0042 828.279 L64.0042 834.135 L42.679 834.135 Q37.6183 834.135 35.1038 836.108 Q32.5894 838.082 32.5894 842.029 Q32.5894 846.771 35.6131 849.508 Q38.6368 852.245 43.8567 852.245 L64.0042 852.245 L64.0042 858.134 L28.3562 858.134 L28.3562 852.245 L33.8944 852.245 Q30.6797 850.145 29.0883 847.312 Q27.4968 844.447 27.4968 840.724 Q27.4968 834.581 31.3163 831.43 Q35.1038 828.279 42.4881 828.279 Z" fill="#000000" fill-rule="evenodd" fill-opacity="1" /><path clip-path="url(#clip320)" d="M18.2347 810.805 L28.3562 810.805 L28.3562 798.742 L32.9077 798.742 L32.9077 810.805 L52.2594 810.805 Q56.6199 810.805 57.8613 809.627 Q59.1026 808.418 59.1026 804.757 L59.1026 798.742 L64.0042 798.742 L64.0042 804.757 Q64.0042 811.537 61.4897 814.115 Q58.9434 816.693 52.2594 816.693 L32.9077 816.693 L32.9077 820.99 L28.3562 820.99 L28.3562 816.693 L18.2347 816.693 L18.2347 810.805 Z" fill="#000000" fill-rule="evenodd" fill-opacity="1" /><path clip-path="url(#clip320)" d="M33.8307 770.382 Q33.2578 771.369 33.0032 772.547 Q32.7167 773.693 32.7167 775.093 Q32.7167 780.058 35.9632 782.732 Q39.1779 785.374 45.2253 785.374 L64.0042 785.374 L64.0042 791.262 L28.3562 791.262 L28.3562 785.374 L33.8944 785.374 Q30.6479 783.528 29.0883 780.568 Q27.4968 777.608 27.4968 773.374 Q27.4968 772.77 27.5923 772.038 Q27.656 771.306 27.8151 770.414 L33.8307 770.382 Z" fill="#000000" fill-rule="evenodd" fill-opacity="1" /><path clip-path="url(#clip320)" d="M46.0847 748.039 Q46.0847 755.137 47.7079 757.874 Q49.3312 760.611 53.2461 760.611 Q56.3653 760.611 58.2114 758.574 Q60.0256 756.505 60.0256 752.972 Q60.0256 748.103 56.5881 745.174 Q53.1188 742.214 47.3897 742.214 L46.0847 742.214 L46.0847 748.039 M43.6657 736.358 L64.0042 736.358 L64.0042 742.214 L58.5933 742.214 Q61.8398 744.219 63.3994 747.211 Q64.9272 750.203 64.9272 754.532 Q64.9272 760.006 61.8716 763.253 Q58.7843 766.468 53.6281 766.468 Q47.6125 766.468 44.5569 762.457 Q41.5014 758.415 41.5014 750.426 L41.5014 742.214 L40.9285 742.214 Q36.8862 742.214 34.6901 744.888 Q32.4621 747.53 32.4621 752.336 Q32.4621 755.391 33.1941 758.288 Q33.9262 761.184 35.3903 763.858 L29.9795 763.858 Q28.7381 760.643 28.1334 757.619 Q27.4968 754.596 27.4968 751.731 Q27.4968 743.997 31.5072 740.177 Q35.5176 736.358 43.6657 736.358 Z" fill="#000000" fill-rule="evenodd" fill-opacity="1" /><path clip-path="url(#clip320)" d="M18.2347 718.502 L28.3562 718.502 L28.3562 706.439 L32.9077 706.439 L32.9077 718.502 L52.2594 718.502 Q56.6199 718.502 57.8613 717.324 Q59.1026 716.115 59.1026 712.455 L59.1026 706.439 L64.0042 706.439 L64.0042 712.455 Q64.0042 719.234 61.4897 721.812 Q58.9434 724.39 52.2594 724.39 L32.9077 724.39 L32.9077 728.687 L28.3562 728.687 L28.3562 724.39 L18.2347 724.39 L18.2347 718.502 Z" fill="#000000" fill-rule="evenodd" fill-opacity="1" /><path clip-path="url(#clip320)" d="M28.3562 698.736 L28.3562 692.88 L64.0042 692.88 L64.0042 698.736 L28.3562 698.736 M14.479 698.736 L14.479 692.88 L21.895 692.88 L21.895 698.736 L14.479 698.736 Z" fill="#000000" fill-rule="evenodd" fill-opacity="1" /><path clip-path="url(#clip320)" d="M32.4621 666.812 Q32.4621 671.523 36.1542 674.26 Q39.8145 676.998 46.212 676.998 Q52.6095 676.998 56.3017 674.292 Q59.9619 671.555 59.9619 666.812 Q59.9619 662.134 56.2698 659.396 Q52.5777 656.659 46.212 656.659 Q39.8781 656.659 36.186 659.396 Q32.4621 662.134 32.4621 666.812 M27.4968 666.812 Q27.4968 659.174 32.4621 654.813 Q37.4273 650.453 46.212 650.453 Q54.9649 650.453 59.9619 654.813 Q64.9272 659.174 64.9272 666.812 Q64.9272 674.483 59.9619 678.844 Q54.9649 683.172 46.212 683.172 Q37.4273 683.172 32.4621 678.844 Q27.4968 674.483 27.4968 666.812 Z" fill="#000000" fill-rule="evenodd" fill-opacity="1" /><path clip-path="url(#clip320)" d="M42.4881 611.113 L64.0042 611.113 L64.0042 616.969 L42.679 616.969 Q37.6183 616.969 35.1038 618.942 Q32.5894 620.916 32.5894 624.862 Q32.5894 629.605 35.6131 632.342 Q38.6368 635.079 43.8567 635.079 L64.0042 635.079 L64.0042 640.968 L28.3562 640.968 L28.3562 635.079 L33.8944 635.079 Q30.6797 632.979 29.0883 630.146 Q27.4968 627.281 27.4968 623.557 Q27.4968 617.415 31.3163 614.264 Q35.1038 611.113 42.4881 611.113 Z" fill="#000000" fill-rule="evenodd" fill-opacity="1" /><path clip-path="url(#clip320)" d="M20.1444 542.872 L26.9239 542.872 Q23.9002 546.119 22.4043 549.811 Q20.9083 553.471 20.9083 557.609 Q20.9083 565.757 25.9054 570.086 Q30.8707 574.414 40.2919 574.414 Q49.6813 574.414 54.6784 570.086 Q59.6436 565.757 59.6436 557.609 Q59.6436 553.471 58.1477 549.811 Q56.6518 546.119 53.6281 542.872 L60.3439 542.872 Q62.6355 546.246 63.7814 550.034 Q64.9272 553.789 64.9272 557.991 Q64.9272 568.781 58.3387 574.987 Q51.7183 581.194 40.2919 581.194 Q28.8336 581.194 22.2451 574.987 Q15.6248 568.781 15.6248 557.991 Q15.6248 553.726 16.7706 549.97 Q17.8846 546.182 20.1444 542.872 Z" fill="#000000" fill-rule="evenodd" fill-opacity="1" /><path clip-path="url(#clip320)" d="M52.7369 517.377 L64.0042 517.377 L64.0042 521.07 L52.0685 521.07 Q49.1721 521.07 47.8034 522.215 Q46.403 523.361 46.403 525.748 Q46.403 528.581 48.1217 530.236 Q49.8086 531.891 52.7369 531.891 L64.0042 531.891 L64.0042 535.615 L44.0477 535.615 L44.0477 531.891 L47.135 531.891 Q45.3208 530.65 44.4614 528.899 Q43.5702 527.117 43.5702 524.666 Q43.5702 522.247 44.6842 520.529 Q45.7664 518.81 47.8671 517.982 Q45.6709 516.614 44.6206 514.704 Q43.5702 512.762 43.5702 510.152 Q43.5702 506.619 45.7664 504.742 Q47.9307 502.832 51.9411 502.832 L64.0042 502.832 L64.0042 506.524 L52.0685 506.524 Q49.2039 506.524 47.8034 507.67 Q46.403 508.816 46.403 511.171 Q46.403 514.035 48.1217 515.722 Q49.8086 517.377 52.7369 517.377 Z" fill="#000000" fill-rule="evenodd" fill-opacity="1" /><path clip-path="url(#clip320)" d="M16.4842 482.175 L16.4842 476.764 L70.0516 493.315 L70.0516 498.726 L16.4842 482.175 Z" fill="#000000" fill-rule="evenodd" fill-opacity="1" /><path clip-path="url(#clip320)" d="M20.1444 434.782 L26.9239 434.782 Q23.9002 438.029 22.4043 441.721 Q20.9083 445.381 20.9083 449.519 Q20.9083 457.667 25.9054 461.996 Q30.8707 466.325 40.2919 466.325 Q49.6813 466.325 54.6784 461.996 Q59.6436 457.667 59.6436 449.519 Q59.6436 445.381 58.1477 441.721 Q56.6518 438.029 53.6281 434.782 L60.3439 434.782 Q62.6355 438.156 63.7814 441.944 Q64.9272 445.7 64.9272 449.901 Q64.9272 460.691 58.3387 466.897 Q51.7183 473.104 40.2919 473.104 Q28.8336 473.104 22.2451 466.897 Q15.6248 460.691 15.6248 449.901 Q15.6248 445.636 16.7706 441.88 Q17.8846 438.093 20.1444 434.782 Z" fill="#000000" fill-rule="evenodd" fill-opacity="1" /><path clip-path="url(#clip320)" d="M42.4562 413.107 Q39.719 414.699 39.719 417.913 Q39.719 421.128 42.4562 422.719 Q45.1935 424.343 50.668 424.343 Q56.1743 424.343 58.9116 422.719 Q61.6488 421.128 61.6488 417.913 Q61.6488 414.699 58.9116 413.107 Q56.1743 411.484 50.668 411.484 Q45.1935 411.484 42.4562 413.107 M36.8862 417.913 Q36.8862 412.789 40.4192 410.084 Q43.9522 407.378 50.668 407.378 Q57.4157 407.378 60.9486 410.084 Q64.4816 412.789 64.4816 417.913 Q64.4816 423.07 60.9486 425.775 Q57.4157 428.48 50.668 428.48 Q43.9522 428.48 40.4192 425.775 Q36.8862 423.07 36.8862 417.913 Z" fill="#000000" fill-rule="evenodd" fill-opacity="1" /><polyline clip-path="url(#clip322)" style="stroke:#023eff; stroke-linecap:round; stroke-linejoin:round; stroke-width:4; stroke-opacity:1; fill:none" points="
  280.231,86.1857 300.556,94.5642 320.881,119.082 341.206,157.995 361.53,208.731 381.855,268.281 402.18,333.587 422.505,401.849 442.83,470.709 463.155,538.332 
  483.48,603.392 503.804,665.017 524.129,722.7 544.454,776.215 564.779,814.237 585.104,842.501 605.429,869.879 625.753,896.466 646.078,922.342 666.403,947.577 
  686.728,972.23 707.053,996.352 727.378,1019.99 747.703,1043.18 768.027,1065.96 788.352,1088.35 808.677,1110.4 829.002,1127.99 849.327,1137.01 869.652,1145.8 
  889.977,1154.37 910.301,1162.73 930.626,1170.9 950.951,1178.88 971.276,1186.69 991.601,1194.33 1011.93,1201.81 1032.25,1209.15 1052.58,1216.34 1072.9,1223.39 
  1093.23,1230.32 1113.55,1237.12 1133.87,1243.8 1154.2,1250.37 1174.52,1256.83 1194.85,1263.19 1215.17,1267.75 1235.5,1272.15 1255.82,1276.48 1276.15,1280.73 
  1296.47,1284.92 1316.8,1289.03 1337.12,1293.09 1357.45,1297.08 1377.77,1301.02 1398.1,1304.89 1418.42,1308.71 1438.75,1312.48 1459.07,1316.19 1479.4,1319.86 
  1499.72,1323.47 1520.05,1327.04 1540.37,1330.56 1560.7,1334.04 1581.02,1337.47 1601.35,1340.86 1621.67,1344.22 1642,1347.53 1662.32,1350.8 1682.65,1354.03 
  1702.97,1357.03 1723.3,1358.13 1743.62,1359.21 1763.95,1360.29 1784.27,1361.34 1804.59,1362.39 1824.92,1363.42 1845.24,1364.44 1865.57,1365.45 1885.89,1366.44 
  1906.22,1367.43 1926.54,1368.4 1946.87,1369.36 1967.19,1370.31 1987.52,1371.25 2007.84,1372.18 2028.17,1373.1 2048.49,1374.01 2068.82,1374.91 2089.14,1375.8 
  2109.47,1376.69 2129.79,1377.56 2150.12,1378.42 2170.44,1379.28 2190.77,1380.13 2211.09,1380.96 2231.42,1381.79 2251.74,1382.62 2272.07,1383.43 2292.39,1384.24 
  
  "/>
<polyline clip-path="url(#clip322)" style="stroke:#ff7c00; stroke-linecap:round; stroke-linejoin:round; stroke-width:4; stroke-opacity:1; fill:none" points="
  280.231,1357.25 2292.39,1357.25 
  "/>
<path clip-path="url(#clip320)" d="
M1195.6 248.629 L2281.66 248.629 L2281.66 93.1086 L1195.6 93.1086  Z
  " fill="#ffffff" fill-rule="evenodd" fill-opacity="1"/>
<polyline clip-path="url(#clip320)" style="stroke:#000000; stroke-linecap:round; stroke-linejoin:round; stroke-width:4; stroke-opacity:1; fill:none" points="
  1195.6,248.629 2281.66,248.629 2281.66,93.1086 1195.6,93.1086 1195.6,248.629 
  "/>
<polyline clip-path="url(#clip320)" style="stroke:#023eff; stroke-linecap:round; stroke-linejoin:round; stroke-width:4; stroke-opacity:1; fill:none" points="
  1219.3,144.949 1361.49,144.949 
  "/>
<path clip-path="url(#clip320)" d="M1389.86 145.724 L1389.86 158.386 L1397.36 158.386 Q1401.14 158.386 1402.94 156.835 Q1404.77 155.261 1404.77 152.043 Q1404.77 148.803 1402.94 147.275 Q1401.14 145.724 1397.36 145.724 L1389.86 145.724 M1389.86 131.511 L1389.86 141.928 L1396.78 141.928 Q1400.21 141.928 1401.88 140.655 Q1403.57 139.358 1403.57 136.719 Q1403.57 134.104 1401.88 132.807 Q1400.21 131.511 1396.78 131.511 L1389.86 131.511 M1385.19 127.669 L1397.13 127.669 Q1402.48 127.669 1405.37 129.891 Q1408.27 132.113 1408.27 136.21 Q1408.27 139.382 1406.78 141.257 Q1405.3 143.131 1402.43 143.594 Q1405.88 144.335 1407.78 146.696 Q1409.7 149.034 1409.7 152.553 Q1409.7 157.182 1406.55 159.705 Q1403.41 162.229 1397.6 162.229 L1385.19 162.229 L1385.19 127.669 Z" fill="#000000" fill-rule="evenodd" fill-opacity="1" /><path clip-path="url(#clip320)" d="M1432.55 140.284 Q1431.83 139.868 1430.97 139.682 Q1430.14 139.474 1429.12 139.474 Q1425.51 139.474 1423.57 141.835 Q1421.65 144.173 1421.65 148.571 L1421.65 162.229 L1417.36 162.229 L1417.36 136.303 L1421.65 136.303 L1421.65 140.331 Q1422.99 137.969 1425.14 136.835 Q1427.29 135.678 1430.37 135.678 Q1430.81 135.678 1431.34 135.747 Q1431.88 135.794 1432.53 135.909 L1432.55 140.284 Z" fill="#000000" fill-rule="evenodd" fill-opacity="1" /><path clip-path="url(#clip320)" d="M1437.02 136.303 L1441.28 136.303 L1441.28 162.229 L1437.02 162.229 L1437.02 136.303 M1437.02 126.21 L1441.28 126.21 L1441.28 131.604 L1437.02 131.604 L1437.02 126.21 Z" fill="#000000" fill-rule="evenodd" fill-opacity="1" /><path clip-path="url(#clip320)" d="M1454.4 128.942 L1454.4 136.303 L1463.17 136.303 L1463.17 139.613 L1454.4 139.613 L1454.4 153.687 Q1454.4 156.858 1455.26 157.761 Q1456.14 158.664 1458.8 158.664 L1463.17 158.664 L1463.17 162.229 L1458.8 162.229 Q1453.87 162.229 1451.99 160.4 Q1450.12 158.548 1450.12 153.687 L1450.12 139.613 L1446.99 139.613 L1446.99 136.303 L1450.12 136.303 L1450.12 128.942 L1454.4 128.942 Z" fill="#000000" fill-rule="evenodd" fill-opacity="1" /><path clip-path="url(#clip320)" d="M1472.99 128.942 L1472.99 136.303 L1481.76 136.303 L1481.76 139.613 L1472.99 139.613 L1472.99 153.687 Q1472.99 156.858 1473.84 157.761 Q1474.72 158.664 1477.39 158.664 L1481.76 158.664 L1481.76 162.229 L1477.39 162.229 Q1472.46 162.229 1470.58 160.4 Q1468.71 158.548 1468.71 153.687 L1468.71 139.613 L1465.58 139.613 L1465.58 136.303 L1468.71 136.303 L1468.71 128.942 L1472.99 128.942 Z" fill="#000000" fill-rule="evenodd" fill-opacity="1" /><path clip-path="url(#clip320)" d="M1509.54 148.201 L1509.54 150.284 L1489.96 150.284 Q1490.23 154.682 1492.59 156.997 Q1494.98 159.289 1499.21 159.289 Q1501.67 159.289 1503.96 158.687 Q1506.28 158.085 1508.54 156.881 L1508.54 160.909 Q1506.25 161.881 1503.84 162.391 Q1501.44 162.9 1498.96 162.9 Q1492.76 162.9 1489.12 159.289 Q1485.51 155.678 1485.51 149.52 Q1485.51 143.155 1488.94 139.428 Q1492.39 135.678 1498.22 135.678 Q1503.45 135.678 1506.48 139.057 Q1509.54 142.414 1509.54 148.201 M1505.28 146.951 Q1505.23 143.456 1503.31 141.372 Q1501.41 139.289 1498.27 139.289 Q1494.7 139.289 1492.55 141.303 Q1490.42 143.317 1490.09 146.974 L1505.28 146.951 Z" fill="#000000" fill-rule="evenodd" fill-opacity="1" /><path clip-path="url(#clip320)" d="M1531.55 140.284 Q1530.84 139.868 1529.98 139.682 Q1529.15 139.474 1528.13 139.474 Q1524.52 139.474 1522.57 141.835 Q1520.65 144.173 1520.65 148.571 L1520.65 162.229 L1516.37 162.229 L1516.37 136.303 L1520.65 136.303 L1520.65 140.331 Q1521.99 137.969 1524.15 136.835 Q1526.3 135.678 1529.38 135.678 Q1529.82 135.678 1530.35 135.747 Q1530.88 135.794 1531.53 135.909 L1531.55 140.284 Z" fill="#000000" fill-rule="evenodd" fill-opacity="1" /><path clip-path="url(#clip320)" d="M1530.84 147.344 L1543.31 147.344 L1543.31 151.141 L1530.84 151.141 L1530.84 147.344 Z" fill="#000000" fill-rule="evenodd" fill-opacity="1" /><path clip-path="url(#clip320)" d="M1550.28 127.669 L1557.25 127.669 L1566.07 151.187 L1574.93 127.669 L1581.9 127.669 L1581.9 162.229 L1577.34 162.229 L1577.34 131.882 L1568.43 155.585 L1563.73 155.585 L1554.82 131.882 L1554.82 162.229 L1550.28 162.229 L1550.28 127.669 Z" fill="#000000" fill-rule="evenodd" fill-opacity="1" /><path clip-path="url(#clip320)" d="M1609.65 137.298 L1609.65 141.28 Q1607.85 140.284 1606.02 139.798 Q1604.21 139.289 1602.36 139.289 Q1598.22 139.289 1595.93 141.928 Q1593.64 144.544 1593.64 149.289 Q1593.64 154.034 1595.93 156.673 Q1598.22 159.289 1602.36 159.289 Q1604.21 159.289 1606.02 158.803 Q1607.85 158.293 1609.65 157.298 L1609.65 161.233 Q1607.87 162.067 1605.95 162.483 Q1604.05 162.9 1601.9 162.9 Q1596.04 162.9 1592.59 159.219 Q1589.14 155.539 1589.14 149.289 Q1589.14 142.946 1592.62 139.312 Q1596.11 135.678 1602.18 135.678 Q1604.14 135.678 1606.02 136.095 Q1607.89 136.488 1609.65 137.298 Z" fill="#000000" fill-rule="evenodd" fill-opacity="1" /><path clip-path="url(#clip320)" d="M1631.27 130.84 Q1626.18 130.84 1623.17 134.636 Q1620.19 138.432 1620.19 144.983 Q1620.19 151.511 1623.17 155.307 Q1626.18 159.104 1631.27 159.104 Q1636.37 159.104 1639.33 155.307 Q1642.32 151.511 1642.32 144.983 Q1642.32 138.432 1639.33 134.636 Q1636.37 130.84 1631.27 130.84 M1637.83 161.604 L1643.98 168.34 L1638.33 168.34 L1633.22 162.807 Q1632.45 162.854 1632.04 162.877 Q1631.64 162.9 1631.27 162.9 Q1623.98 162.9 1619.61 158.039 Q1615.26 153.155 1615.26 144.983 Q1615.26 136.789 1619.61 131.928 Q1623.98 127.044 1631.27 127.044 Q1638.54 127.044 1642.89 131.928 Q1647.25 136.789 1647.25 144.983 Q1647.25 151.002 1644.82 155.284 Q1642.41 159.567 1637.83 161.604 Z" fill="#000000" fill-rule="evenodd" fill-opacity="1" /><path clip-path="url(#clip320)" d="M1653.94 151.997 L1653.94 136.303 L1658.2 136.303 L1658.2 151.835 Q1658.2 155.516 1659.63 157.368 Q1661.07 159.196 1663.94 159.196 Q1667.39 159.196 1669.38 156.997 Q1671.39 154.798 1671.39 151.002 L1671.39 136.303 L1675.65 136.303 L1675.65 162.229 L1671.39 162.229 L1671.39 158.247 Q1669.84 160.608 1667.78 161.766 Q1665.74 162.9 1663.03 162.9 Q1658.57 162.9 1656.25 160.122 Q1653.94 157.344 1653.94 151.997 M1664.65 135.678 L1664.65 135.678 Z" fill="#000000" fill-rule="evenodd" fill-opacity="1" /><path clip-path="url(#clip320)" d="M1696.2 149.196 Q1691.04 149.196 1689.05 150.377 Q1687.06 151.557 1687.06 154.405 Q1687.06 156.673 1688.54 158.016 Q1690.05 159.335 1692.62 159.335 Q1696.16 159.335 1698.29 156.835 Q1700.44 154.312 1700.44 150.145 L1700.44 149.196 L1696.2 149.196 M1704.7 147.437 L1704.7 162.229 L1700.44 162.229 L1700.44 158.293 Q1698.98 160.655 1696.81 161.789 Q1694.63 162.9 1691.48 162.9 Q1687.5 162.9 1685.14 160.678 Q1682.8 158.432 1682.8 154.682 Q1682.8 150.307 1685.72 148.085 Q1688.66 145.863 1694.47 145.863 L1700.44 145.863 L1700.44 145.446 Q1700.44 142.507 1698.5 140.909 Q1696.57 139.289 1693.08 139.289 Q1690.86 139.289 1688.75 139.821 Q1686.64 140.354 1684.7 141.419 L1684.7 137.483 Q1687.04 136.581 1689.24 136.141 Q1691.44 135.678 1693.52 135.678 Q1699.14 135.678 1701.92 138.594 Q1704.7 141.511 1704.7 147.437 Z" fill="#000000" fill-rule="evenodd" fill-opacity="1" /><path clip-path="url(#clip320)" d="M1713.47 136.303 L1717.73 136.303 L1717.73 162.229 L1713.47 162.229 L1713.47 136.303 M1713.47 126.21 L1717.73 126.21 L1717.73 131.604 L1713.47 131.604 L1713.47 126.21 Z" fill="#000000" fill-rule="evenodd" fill-opacity="1" /><path clip-path="url(#clip320)" d="M1743.7 140.238 L1743.7 126.21 L1747.96 126.21 L1747.96 162.229 L1743.7 162.229 L1743.7 158.34 Q1742.36 160.655 1740.3 161.789 Q1738.26 162.9 1735.39 162.9 Q1730.7 162.9 1727.73 159.15 Q1724.79 155.4 1724.79 149.289 Q1724.79 143.178 1727.73 139.428 Q1730.7 135.678 1735.39 135.678 Q1738.26 135.678 1740.3 136.812 Q1742.36 137.923 1743.7 140.238 M1729.19 149.289 Q1729.19 153.988 1731.11 156.673 Q1733.06 159.335 1736.44 159.335 Q1739.82 159.335 1741.76 156.673 Q1743.7 153.988 1743.7 149.289 Q1743.7 144.59 1741.76 141.928 Q1739.82 139.243 1736.44 139.243 Q1733.06 139.243 1731.11 141.928 Q1729.19 144.59 1729.19 149.289 Z" fill="#000000" fill-rule="evenodd" fill-opacity="1" /><path clip-path="url(#clip320)" d="M1790.46 137.298 L1790.46 141.28 Q1788.66 140.284 1786.83 139.798 Q1785.02 139.289 1783.17 139.289 Q1779.03 139.289 1776.74 141.928 Q1774.44 144.544 1774.44 149.289 Q1774.44 154.034 1776.74 156.673 Q1779.03 159.289 1783.17 159.289 Q1785.02 159.289 1786.83 158.803 Q1788.66 158.293 1790.46 157.298 L1790.46 161.233 Q1788.68 162.067 1786.76 162.483 Q1784.86 162.9 1782.71 162.9 Q1776.85 162.9 1773.4 159.219 Q1769.95 155.539 1769.95 149.289 Q1769.95 142.946 1773.43 139.312 Q1776.92 135.678 1782.99 135.678 Q1784.95 135.678 1786.83 136.095 Q1788.7 136.488 1790.46 137.298 Z" fill="#000000" fill-rule="evenodd" fill-opacity="1" /><path clip-path="url(#clip320)" d="M1807.92 139.289 Q1804.49 139.289 1802.5 141.974 Q1800.51 144.636 1800.51 149.289 Q1800.51 153.942 1802.48 156.627 Q1804.47 159.289 1807.92 159.289 Q1811.32 159.289 1813.31 156.604 Q1815.3 153.918 1815.3 149.289 Q1815.3 144.682 1813.31 141.997 Q1811.32 139.289 1807.92 139.289 M1807.92 135.678 Q1813.47 135.678 1816.64 139.289 Q1819.82 142.9 1819.82 149.289 Q1819.82 155.655 1816.64 159.289 Q1813.47 162.9 1807.92 162.9 Q1802.34 162.9 1799.17 159.289 Q1796.02 155.655 1796.02 149.289 Q1796.02 142.9 1799.17 139.289 Q1802.34 135.678 1807.92 135.678 Z" fill="#000000" fill-rule="evenodd" fill-opacity="1" /><path clip-path="url(#clip320)" d="M1848.43 146.581 L1848.43 162.229 L1844.17 162.229 L1844.17 146.719 Q1844.17 143.039 1842.73 141.21 Q1841.3 139.382 1838.43 139.382 Q1834.98 139.382 1832.99 141.581 Q1831 143.78 1831 147.576 L1831 162.229 L1826.71 162.229 L1826.71 136.303 L1831 136.303 L1831 140.331 Q1832.52 137.993 1834.58 136.835 Q1836.67 135.678 1839.38 135.678 Q1843.84 135.678 1846.13 138.456 Q1848.43 141.21 1848.43 146.581 Z" fill="#000000" fill-rule="evenodd" fill-opacity="1" /><path clip-path="url(#clip320)" d="M1875.58 137.298 L1875.58 141.28 Q1873.77 140.284 1871.94 139.798 Q1870.14 139.289 1868.29 139.289 Q1864.14 139.289 1861.85 141.928 Q1859.56 144.544 1859.56 149.289 Q1859.56 154.034 1861.85 156.673 Q1864.14 159.289 1868.29 159.289 Q1870.14 159.289 1871.94 158.803 Q1873.77 158.293 1875.58 157.298 L1875.58 161.233 Q1873.8 162.067 1871.87 162.483 Q1869.98 162.9 1867.82 162.9 Q1861.97 162.9 1858.52 159.219 Q1855.07 155.539 1855.07 149.289 Q1855.07 142.946 1858.54 139.312 Q1862.04 135.678 1868.1 135.678 Q1870.07 135.678 1871.94 136.095 Q1873.82 136.488 1875.58 137.298 Z" fill="#000000" fill-rule="evenodd" fill-opacity="1" /><path clip-path="url(#clip320)" d="M1905.16 148.201 L1905.16 150.284 L1885.58 150.284 Q1885.86 154.682 1888.22 156.997 Q1890.6 159.289 1894.84 159.289 Q1897.29 159.289 1899.58 158.687 Q1901.9 158.085 1904.17 156.881 L1904.17 160.909 Q1901.87 161.881 1899.47 162.391 Q1897.06 162.9 1894.58 162.9 Q1888.38 162.9 1884.75 159.289 Q1881.13 155.678 1881.13 149.52 Q1881.13 143.155 1884.56 139.428 Q1888.01 135.678 1893.84 135.678 Q1899.07 135.678 1902.11 139.057 Q1905.16 142.414 1905.16 148.201 M1900.9 146.951 Q1900.86 143.456 1898.93 141.372 Q1897.04 139.289 1893.89 139.289 Q1890.32 139.289 1888.17 141.303 Q1886.04 143.317 1885.72 146.974 L1900.9 146.951 Z" fill="#000000" fill-rule="evenodd" fill-opacity="1" /><path clip-path="url(#clip320)" d="M1933.7 146.581 L1933.7 162.229 L1929.44 162.229 L1929.44 146.719 Q1929.44 143.039 1928.01 141.21 Q1926.57 139.382 1923.7 139.382 Q1920.25 139.382 1918.26 141.581 Q1916.27 143.78 1916.27 147.576 L1916.27 162.229 L1911.99 162.229 L1911.99 136.303 L1916.27 136.303 L1916.27 140.331 Q1917.8 137.993 1919.86 136.835 Q1921.94 135.678 1924.65 135.678 Q1929.12 135.678 1931.41 138.456 Q1933.7 141.21 1933.7 146.581 Z" fill="#000000" fill-rule="evenodd" fill-opacity="1" /><path clip-path="url(#clip320)" d="M1946.41 128.942 L1946.41 136.303 L1955.18 136.303 L1955.18 139.613 L1946.41 139.613 L1946.41 153.687 Q1946.41 156.858 1947.27 157.761 Q1948.15 158.664 1950.81 158.664 L1955.18 158.664 L1955.18 162.229 L1950.81 162.229 Q1945.88 162.229 1944 160.4 Q1942.13 158.548 1942.13 153.687 L1942.13 139.613 L1939 139.613 L1939 136.303 L1942.13 136.303 L1942.13 128.942 L1946.41 128.942 Z" fill="#000000" fill-rule="evenodd" fill-opacity="1" /><path clip-path="url(#clip320)" d="M1975.81 140.284 Q1975.09 139.868 1974.24 139.682 Q1973.4 139.474 1972.38 139.474 Q1968.77 139.474 1966.83 141.835 Q1964.91 144.173 1964.91 148.571 L1964.91 162.229 L1960.62 162.229 L1960.62 136.303 L1964.91 136.303 L1964.91 140.331 Q1966.25 137.969 1968.4 136.835 Q1970.55 135.678 1973.63 135.678 Q1974.07 135.678 1974.61 135.747 Q1975.14 135.794 1975.79 135.909 L1975.81 140.284 Z" fill="#000000" fill-rule="evenodd" fill-opacity="1" /><path clip-path="url(#clip320)" d="M1992.06 149.196 Q1986.9 149.196 1984.91 150.377 Q1982.92 151.557 1982.92 154.405 Q1982.92 156.673 1984.4 158.016 Q1985.9 159.335 1988.47 159.335 Q1992.01 159.335 1994.14 156.835 Q1996.3 154.312 1996.3 150.145 L1996.3 149.196 L1992.06 149.196 M2000.55 147.437 L2000.55 162.229 L1996.3 162.229 L1996.3 158.293 Q1994.84 160.655 1992.66 161.789 Q1990.49 162.9 1987.34 162.9 Q1983.36 162.9 1980.99 160.678 Q1978.66 158.432 1978.66 154.682 Q1978.66 150.307 1981.57 148.085 Q1984.51 145.863 1990.32 145.863 L1996.3 145.863 L1996.3 145.446 Q1996.3 142.507 1994.35 140.909 Q1992.43 139.289 1988.93 139.289 Q1986.71 139.289 1984.61 139.821 Q1982.5 140.354 1980.55 141.419 L1980.55 137.483 Q1982.89 136.581 1985.09 136.141 Q1987.29 135.678 1989.37 135.678 Q1995 135.678 1997.78 138.594 Q2000.55 141.511 2000.55 147.437 Z" fill="#000000" fill-rule="evenodd" fill-opacity="1" /><path clip-path="url(#clip320)" d="M2013.54 128.942 L2013.54 136.303 L2022.31 136.303 L2022.31 139.613 L2013.54 139.613 L2013.54 153.687 Q2013.54 156.858 2014.4 157.761 Q2015.28 158.664 2017.94 158.664 L2022.31 158.664 L2022.31 162.229 L2017.94 162.229 Q2013.01 162.229 2011.13 160.4 Q2009.26 158.548 2009.26 153.687 L2009.26 139.613 L2006.13 139.613 L2006.13 136.303 L2009.26 136.303 L2009.26 128.942 L2013.54 128.942 Z" fill="#000000" fill-rule="evenodd" fill-opacity="1" /><path clip-path="url(#clip320)" d="M2027.92 136.303 L2032.17 136.303 L2032.17 162.229 L2027.92 162.229 L2027.92 136.303 M2027.92 126.21 L2032.17 126.21 L2032.17 131.604 L2027.92 131.604 L2027.92 126.21 Z" fill="#000000" fill-rule="evenodd" fill-opacity="1" /><path clip-path="url(#clip320)" d="M2051.13 139.289 Q2047.71 139.289 2045.72 141.974 Q2043.73 144.636 2043.73 149.289 Q2043.73 153.942 2045.69 156.627 Q2047.68 159.289 2051.13 159.289 Q2054.54 159.289 2056.53 156.604 Q2058.52 153.918 2058.52 149.289 Q2058.52 144.682 2056.53 141.997 Q2054.54 139.289 2051.13 139.289 M2051.13 135.678 Q2056.69 135.678 2059.86 139.289 Q2063.03 142.9 2063.03 149.289 Q2063.03 155.655 2059.86 159.289 Q2056.69 162.9 2051.13 162.9 Q2045.55 162.9 2042.38 159.289 Q2039.24 155.655 2039.24 149.289 Q2039.24 142.9 2042.38 139.289 Q2045.55 135.678 2051.13 135.678 Z" fill="#000000" fill-rule="evenodd" fill-opacity="1" /><path clip-path="url(#clip320)" d="M2091.64 146.581 L2091.64 162.229 L2087.38 162.229 L2087.38 146.719 Q2087.38 143.039 2085.95 141.21 Q2084.51 139.382 2081.64 139.382 Q2078.19 139.382 2076.2 141.581 Q2074.21 143.78 2074.21 147.576 L2074.21 162.229 L2069.93 162.229 L2069.93 136.303 L2074.21 136.303 L2074.21 140.331 Q2075.74 137.993 2077.8 136.835 Q2079.88 135.678 2082.59 135.678 Q2087.06 135.678 2089.35 138.456 Q2091.64 141.21 2091.64 146.581 Z" fill="#000000" fill-rule="evenodd" fill-opacity="1" /><path clip-path="url(#clip320)" d="M2119.33 158.34 L2119.33 172.09 L2115.04 172.09 L2115.04 136.303 L2119.33 136.303 L2119.33 140.238 Q2120.67 137.923 2122.71 136.812 Q2124.77 135.678 2127.61 135.678 Q2132.34 135.678 2135.28 139.428 Q2138.24 143.178 2138.24 149.289 Q2138.24 155.4 2135.28 159.15 Q2132.34 162.9 2127.61 162.9 Q2124.77 162.9 2122.71 161.789 Q2120.67 160.655 2119.33 158.34 M2133.82 149.289 Q2133.82 144.59 2131.87 141.928 Q2129.95 139.243 2126.57 139.243 Q2123.19 139.243 2121.25 141.928 Q2119.33 144.59 2119.33 149.289 Q2119.33 153.988 2121.25 156.673 Q2123.19 159.335 2126.57 159.335 Q2129.95 159.335 2131.87 156.673 Q2133.82 153.988 2133.82 149.289 Z" fill="#000000" fill-rule="evenodd" fill-opacity="1" /><path clip-path="url(#clip320)" d="M2160.32 140.284 Q2159.6 139.868 2158.75 139.682 Q2157.92 139.474 2156.9 139.474 Q2153.29 139.474 2151.34 141.835 Q2149.42 144.173 2149.42 148.571 L2149.42 162.229 L2145.14 162.229 L2145.14 136.303 L2149.42 136.303 L2149.42 140.331 Q2150.76 137.969 2152.92 136.835 Q2155.07 135.678 2158.15 135.678 Q2158.59 135.678 2159.12 135.747 Q2159.65 135.794 2160.3 135.909 L2160.32 140.284 Z" fill="#000000" fill-rule="evenodd" fill-opacity="1" /><path clip-path="url(#clip320)" d="M2173.79 139.289 Q2170.37 139.289 2168.38 141.974 Q2166.39 144.636 2166.39 149.289 Q2166.39 153.942 2168.35 156.627 Q2170.35 159.289 2173.79 159.289 Q2177.2 159.289 2179.19 156.604 Q2181.18 153.918 2181.18 149.289 Q2181.18 144.682 2179.19 141.997 Q2177.2 139.289 2173.79 139.289 M2173.79 135.678 Q2179.35 135.678 2182.52 139.289 Q2185.69 142.9 2185.69 149.289 Q2185.69 155.655 2182.52 159.289 Q2179.35 162.9 2173.79 162.9 Q2168.22 162.9 2165.04 159.289 Q2161.9 155.655 2161.9 149.289 Q2161.9 142.9 2165.04 139.289 Q2168.22 135.678 2173.79 135.678 Z" fill="#000000" fill-rule="evenodd" fill-opacity="1" /><path clip-path="url(#clip320)" d="M2205.88 126.21 L2205.88 129.752 L2201.8 129.752 Q2199.51 129.752 2198.61 130.678 Q2197.73 131.604 2197.73 134.011 L2197.73 136.303 L2204.74 136.303 L2204.74 139.613 L2197.73 139.613 L2197.73 162.229 L2193.45 162.229 L2193.45 139.613 L2189.37 139.613 L2189.37 136.303 L2193.45 136.303 L2193.45 134.497 Q2193.45 130.169 2195.46 128.201 Q2197.48 126.21 2201.85 126.21 L2205.88 126.21 Z" fill="#000000" fill-rule="evenodd" fill-opacity="1" /><path clip-path="url(#clip320)" d="M2209.44 136.303 L2213.7 136.303 L2213.7 162.229 L2209.44 162.229 L2209.44 136.303 M2209.44 126.21 L2213.7 126.21 L2213.7 131.604 L2209.44 131.604 L2209.44 126.21 Z" fill="#000000" fill-rule="evenodd" fill-opacity="1" /><path clip-path="url(#clip320)" d="M2222.61 126.21 L2226.87 126.21 L2226.87 162.229 L2222.61 162.229 L2222.61 126.21 Z" fill="#000000" fill-rule="evenodd" fill-opacity="1" /><path clip-path="url(#clip320)" d="M2257.96 148.201 L2257.96 150.284 L2238.38 150.284 Q2238.66 154.682 2241.02 156.997 Q2243.4 159.289 2247.64 159.289 Q2250.09 159.289 2252.38 158.687 Q2254.7 158.085 2256.97 156.881 L2256.97 160.909 Q2254.67 161.881 2252.27 162.391 Q2249.86 162.9 2247.38 162.9 Q2241.18 162.9 2237.54 159.289 Q2233.93 155.678 2233.93 149.52 Q2233.93 143.155 2237.36 139.428 Q2240.81 135.678 2246.64 135.678 Q2251.87 135.678 2254.91 139.057 Q2257.96 142.414 2257.96 148.201 M2253.7 146.951 Q2253.66 143.456 2251.73 141.372 Q2249.84 139.289 2246.69 139.289 Q2243.12 139.289 2240.97 141.303 Q2238.84 143.317 2238.52 146.974 L2253.7 146.951 Z" fill="#000000" fill-rule="evenodd" fill-opacity="1" /><polyline clip-path="url(#clip320)" style="stroke:#ff7c00; stroke-linecap:round; stroke-linejoin:round; stroke-width:4; stroke-opacity:1; fill:none" points="
  1219.3,196.789 1361.49,196.789 
  "/>
<path clip-path="url(#clip320)" d="M1385.19 179.509 L1389.86 179.509 L1389.86 210.133 L1406.69 210.133 L1406.69 214.069 L1385.19 214.069 L1385.19 179.509 Z" fill="#000000" fill-rule="evenodd" fill-opacity="1" /><path clip-path="url(#clip320)" d="M1411.6 179.509 L1431.46 179.509 L1431.46 183.444 L1416.28 183.444 L1416.28 193.629 L1429.98 193.629 L1429.98 197.564 L1416.28 197.564 L1416.28 214.069 L1411.6 214.069 L1411.6 179.509 Z" fill="#000000" fill-rule="evenodd" fill-opacity="1" /><path clip-path="url(#clip320)" d="M1438.87 179.509 L1443.54 179.509 L1443.54 210.133 L1460.37 210.133 L1460.37 214.069 L1438.87 214.069 L1438.87 179.509 Z" fill="#000000" fill-rule="evenodd" fill-opacity="1" /></svg>
