<?xml version="1.0" encoding="utf-8"?>
<svg xmlns="http://www.w3.org/2000/svg" xmlns:xlink="http://www.w3.org/1999/xlink" width="600" height="400" viewBox="0 0 2400 1600">
<defs>
  <clipPath id="clip890">
    <rect x="0" y="0" width="2400" height="1600"/>
  </clipPath>
</defs>
<path clip-path="url(#clip890)" d="M0 1600 L2400 1600 L2400 0 L0 0  Z" fill="#ffffff" fill-rule="evenodd" fill-opacity="1"/>
<defs>
  <clipPath id="clip891">
    <rect x="480" y="0" width="1681" height="1600"/>
  </clipPath>
</defs>
<path clip-path="url(#clip890)" d="M253.38 1423.18 L2352.76 1423.18 L2352.76 123.472 L253.38 123.472  Z" fill="#ffffff" fill-rule="evenodd" fill-opacity="1"/>
<defs>
  <clipPath id="clip892">
    <rect x="253" y="123" width="2100" height="1301"/>
  </clipPath>
</defs>
<polyline clip-path="url(#clip892)" style="stroke:#000000; stroke-linecap:round; stroke-linejoin:round; stroke-width:2; stroke-opacity:0.1; fill:none" points="253.38,1423.18 253.38,123.472 "/>
<polyline clip-path="url(#clip892)" style="stroke:#000000; stroke-linecap:round; stroke-linejoin:round; stroke-width:2; stroke-opacity:0.1; fill:none" points="673.255,1423.18 673.255,123.472 "/>
<polyline clip-path="url(#clip892)" style="stroke:#000000; stroke-linecap:round; stroke-linejoin:round; stroke-width:2; stroke-opacity:0.1; fill:none" points="1093.13,1423.18 1093.13,123.472 "/>
<polyline clip-path="url(#clip892)" style="stroke:#000000; stroke-linecap:round; stroke-linejoin:round; stroke-width:2; stroke-opacity:0.1; fill:none" points="1513.01,1423.18 1513.01,123.472 "/>
<polyline clip-path="url(#clip892)" style="stroke:#000000; stroke-linecap:round; stroke-linejoin:round; stroke-width:2; stroke-opacity:0.1; fill:none" points="1932.88,1423.18 1932.88,123.472 "/>
<polyline clip-path="url(#clip892)" style="stroke:#000000; stroke-linecap:round; stroke-linejoin:round; stroke-width:2; stroke-opacity:0.1; fill:none" points="2352.76,1423.18 2352.76,123.472 "/>
<polyline clip-path="url(#clip890)" style="stroke:#000000; stroke-linecap:round; stroke-linejoin:round; stroke-width:4; stroke-opacity:1; fill:none" points="253.38,1423.18 2352.76,1423.18 "/>
<polyline clip-path="url(#clip890)" style="stroke:#000000; stroke-linecap:round; stroke-linejoin:round; stroke-width:4; stroke-opacity:1; fill:none" points="253.38,1423.18 253.38,1404.28 "/>
<polyline clip-path="url(#clip890)" style="stroke:#000000; stroke-linecap:round; stroke-linejoin:round; stroke-width:4; stroke-opacity:1; fill:none" points="673.255,1423.18 673.255,1404.28 "/>
<polyline clip-path="url(#clip890)" style="stroke:#000000; stroke-linecap:round; stroke-linejoin:round; stroke-width:4; stroke-opacity:1; fill:none" points="1093.13,1423.18 1093.13,1404.28 "/>
<polyline clip-path="url(#clip890)" style="stroke:#000000; stroke-linecap:round; stroke-linejoin:round; stroke-width:4; stroke-opacity:1; fill:none" points="1513.01,1423.18 1513.01,1404.28 "/>
<polyline clip-path="url(#clip890)" style="stroke:#000000; stroke-linecap:round; stroke-linejoin:round; stroke-width:4; stroke-opacity:1; fill:none" points="1932.88,1423.18 1932.88,1404.28 "/>
<polyline clip-path="url(#clip890)" style="stroke:#000000; stroke-linecap:round; stroke-linejoin:round; stroke-width:4; stroke-opacity:1; fill:none" points="2352.76,1423.18 2352.76,1404.28 "/>
<path clip-path="url(#clip890)" d="M230.764 1454.1 Q227.153 1454.1 225.325 1457.66 Q223.519 1461.2 223.519 1468.33 Q223.519 1475.44 225.325 1479.01 Q227.153 1482.55 230.764 1482.55 Q234.399 1482.55 236.204 1479.01 Q238.033 1475.44 238.033 1468.33 Q238.033 1461.2 236.204 1457.66 Q234.399 1454.1 230.764 1454.1 M230.764 1450.39 Q236.574 1450.39 239.63 1455 Q242.709 1459.58 242.709 1468.33 Q242.709 1477.06 239.63 1481.67 Q236.574 1486.25 230.764 1486.25 Q224.954 1486.25 221.875 1481.67 Q218.82 1477.06 218.82 1468.33 Q218.82 1459.58 221.875 1455 Q224.954 1450.39 230.764 1450.39 Z" fill="#000000" fill-rule="nonzero" fill-opacity="1" /><path clip-path="url(#clip890)" d="M250.926 1479.7 L255.81 1479.7 L255.81 1485.58 L250.926 1485.58 L250.926 1479.7 Z" fill="#000000" fill-rule="nonzero" fill-opacity="1" /><path clip-path="url(#clip890)" d="M275.996 1454.1 Q272.384 1454.1 270.556 1457.66 Q268.75 1461.2 268.75 1468.33 Q268.75 1475.44 270.556 1479.01 Q272.384 1482.55 275.996 1482.55 Q279.63 1482.55 281.435 1479.01 Q283.264 1475.44 283.264 1468.33 Q283.264 1461.2 281.435 1457.66 Q279.63 1454.1 275.996 1454.1 M275.996 1450.39 Q281.806 1450.39 284.861 1455 Q287.94 1459.58 287.94 1468.33 Q287.94 1477.06 284.861 1481.67 Q281.806 1486.25 275.996 1486.25 Q270.185 1486.25 267.107 1481.67 Q264.051 1477.06 264.051 1468.33 Q264.051 1459.58 267.107 1455 Q270.185 1450.39 275.996 1450.39 Z" fill="#000000" fill-rule="nonzero" fill-opacity="1" /><path clip-path="url(#clip890)" d="M651.438 1454.1 Q647.827 1454.1 645.998 1457.66 Q644.193 1461.2 644.193 1468.33 Q644.193 1475.44 645.998 1479.01 Q647.827 1482.55 651.438 1482.55 Q655.072 1482.55 656.878 1479.01 Q658.707 1475.44 658.707 1468.33 Q658.707 1461.2 656.878 1457.66 Q655.072 1454.1 651.438 1454.1 M651.438 1450.39 Q657.248 1450.39 660.304 1455 Q663.383 1459.58 663.383 1468.33 Q663.383 1477.06 660.304 1481.67 Q657.248 1486.25 651.438 1486.25 Q645.628 1486.25 642.549 1481.67 Q639.494 1477.06 639.494 1468.33 Q639.494 1459.58 642.549 1455 Q645.628 1450.39 651.438 1450.39 Z" fill="#000000" fill-rule="nonzero" fill-opacity="1" /><path clip-path="url(#clip890)" d="M671.6 1479.7 L676.484 1479.7 L676.484 1485.58 L671.6 1485.58 L671.6 1479.7 Z" fill="#000000" fill-rule="nonzero" fill-opacity="1" /><path clip-path="url(#clip890)" d="M690.697 1481.64 L707.017 1481.64 L707.017 1485.58 L685.072 1485.58 L685.072 1481.64 Q687.734 1478.89 692.318 1474.26 Q696.924 1469.61 698.105 1468.27 Q700.35 1465.74 701.23 1464.01 Q702.132 1462.25 702.132 1460.56 Q702.132 1457.8 700.188 1456.07 Q698.267 1454.33 695.165 1454.33 Q692.966 1454.33 690.512 1455.09 Q688.081 1455.86 685.304 1457.41 L685.304 1452.69 Q688.128 1451.55 690.581 1450.97 Q693.035 1450.39 695.072 1450.39 Q700.442 1450.39 703.637 1453.08 Q706.831 1455.77 706.831 1460.26 Q706.831 1462.39 706.021 1464.31 Q705.234 1466.2 703.128 1468.8 Q702.549 1469.47 699.447 1472.69 Q696.345 1475.88 690.697 1481.64 Z" fill="#000000" fill-rule="nonzero" fill-opacity="1" /><path clip-path="url(#clip890)" d="M1070.27 1454.1 Q1066.66 1454.1 1064.83 1457.66 Q1063.03 1461.2 1063.03 1468.33 Q1063.03 1475.44 1064.83 1479.01 Q1066.66 1482.55 1070.27 1482.55 Q1073.91 1482.55 1075.71 1479.01 Q1077.54 1475.44 1077.54 1468.33 Q1077.54 1461.2 1075.71 1457.66 Q1073.91 1454.1 1070.27 1454.1 M1070.27 1450.39 Q1076.08 1450.39 1079.14 1455 Q1082.22 1459.58 1082.22 1468.33 Q1082.22 1477.06 1079.14 1481.67 Q1076.08 1486.25 1070.27 1486.25 Q1064.46 1486.25 1061.38 1481.67 Q1058.33 1477.06 1058.33 1468.33 Q1058.33 1459.58 1061.38 1455 Q1064.46 1450.39 1070.27 1450.39 Z" fill="#000000" fill-rule="nonzero" fill-opacity="1" /><path clip-path="url(#clip890)" d="M1090.43 1479.7 L1095.32 1479.7 L1095.32 1485.58 L1090.43 1485.58 L1090.43 1479.7 Z" fill="#000000" fill-rule="nonzero" fill-opacity="1" /><path clip-path="url(#clip890)" d="M1118.35 1455.09 L1106.54 1473.54 L1118.35 1473.54 L1118.35 1455.09 M1117.12 1451.02 L1123 1451.02 L1123 1473.54 L1127.93 1473.54 L1127.93 1477.43 L1123 1477.43 L1123 1485.58 L1118.35 1485.58 L1118.35 1477.43 L1102.75 1477.43 L1102.75 1472.92 L1117.12 1451.02 Z" fill="#000000" fill-rule="nonzero" fill-opacity="1" /><path clip-path="url(#clip890)" d="M1490.31 1454.1 Q1486.7 1454.1 1484.87 1457.66 Q1483.06 1461.2 1483.06 1468.33 Q1483.06 1475.44 1484.87 1479.01 Q1486.7 1482.55 1490.31 1482.55 Q1493.94 1482.55 1495.75 1479.01 Q1497.58 1475.44 1497.58 1468.33 Q1497.58 1461.2 1495.75 1457.66 Q1493.94 1454.1 1490.31 1454.1 M1490.31 1450.39 Q1496.12 1450.39 1499.17 1455 Q1502.25 1459.58 1502.25 1468.33 Q1502.25 1477.06 1499.17 1481.67 Q1496.12 1486.25 1490.31 1486.25 Q1484.5 1486.25 1481.42 1481.67 Q1478.36 1477.06 1478.36 1468.33 Q1478.36 1459.58 1481.42 1455 Q1484.5 1450.39 1490.31 1450.39 Z" fill="#000000" fill-rule="nonzero" fill-opacity="1" /><path clip-path="url(#clip890)" d="M1510.47 1479.7 L1515.36 1479.7 L1515.36 1485.58 L1510.47 1485.58 L1510.47 1479.7 Z" fill="#000000" fill-rule="nonzero" fill-opacity="1" /><path clip-path="url(#clip890)" d="M1536.12 1466.44 Q1532.97 1466.44 1531.12 1468.59 Q1529.29 1470.74 1529.29 1474.49 Q1529.29 1478.22 1531.12 1480.39 Q1532.97 1482.55 1536.12 1482.55 Q1539.27 1482.55 1541.1 1480.39 Q1542.95 1478.22 1542.95 1474.49 Q1542.95 1470.74 1541.1 1468.59 Q1539.27 1466.44 1536.12 1466.44 M1545.4 1451.78 L1545.4 1456.04 Q1543.64 1455.21 1541.84 1454.77 Q1540.05 1454.33 1538.29 1454.33 Q1533.67 1454.33 1531.21 1457.45 Q1528.78 1460.58 1528.43 1466.9 Q1529.8 1464.89 1531.86 1463.82 Q1533.92 1462.73 1536.4 1462.73 Q1541.6 1462.73 1544.61 1465.9 Q1547.65 1469.05 1547.65 1474.49 Q1547.65 1479.82 1544.5 1483.03 Q1541.35 1486.25 1536.12 1486.25 Q1530.12 1486.25 1526.95 1481.67 Q1523.78 1477.06 1523.78 1468.33 Q1523.78 1460.14 1527.67 1455.28 Q1531.56 1450.39 1538.11 1450.39 Q1539.87 1450.39 1541.65 1450.74 Q1543.46 1451.09 1545.4 1451.78 Z" fill="#000000" fill-rule="nonzero" fill-opacity="1" /><path clip-path="url(#clip890)" d="M1910.31 1454.1 Q1906.7 1454.1 1904.87 1457.66 Q1903.07 1461.2 1903.07 1468.33 Q1903.07 1475.44 1904.87 1479.01 Q1906.7 1482.55 1910.31 1482.55 Q1913.95 1482.55 1915.75 1479.01 Q1917.58 1475.44 1917.58 1468.33 Q1917.58 1461.2 1915.75 1457.66 Q1913.95 1454.1 1910.31 1454.1 M1910.31 1450.39 Q1916.12 1450.39 1919.18 1455 Q1922.26 1459.58 1922.26 1468.33 Q1922.26 1477.06 1919.18 1481.67 Q1916.12 1486.25 1910.31 1486.25 Q1904.5 1486.25 1901.42 1481.67 Q1898.37 1477.06 1898.37 1468.33 Q1898.37 1459.58 1901.42 1455 Q1904.5 1450.39 1910.31 1450.39 Z" fill="#000000" fill-rule="nonzero" fill-opacity="1" /><path clip-path="url(#clip890)" d="M1930.47 1479.7 L1935.36 1479.7 L1935.36 1485.58 L1930.47 1485.58 L1930.47 1479.7 Z" fill="#000000" fill-rule="nonzero" fill-opacity="1" /><path clip-path="url(#clip890)" d="M1955.54 1469.17 Q1952.21 1469.17 1950.29 1470.95 Q1948.39 1472.73 1948.39 1475.86 Q1948.39 1478.98 1950.29 1480.77 Q1952.21 1482.55 1955.54 1482.55 Q1958.88 1482.55 1960.8 1480.77 Q1962.72 1478.96 1962.72 1475.86 Q1962.72 1472.73 1960.8 1470.95 Q1958.9 1469.17 1955.54 1469.17 M1950.87 1467.18 Q1947.86 1466.44 1946.17 1464.38 Q1944.5 1462.32 1944.5 1459.35 Q1944.5 1455.21 1947.44 1452.8 Q1950.4 1450.39 1955.54 1450.39 Q1960.7 1450.39 1963.64 1452.8 Q1966.58 1455.21 1966.58 1459.35 Q1966.58 1462.32 1964.89 1464.38 Q1963.23 1466.44 1960.24 1467.18 Q1963.62 1467.96 1965.5 1470.26 Q1967.39 1472.55 1967.39 1475.86 Q1967.39 1480.88 1964.32 1483.57 Q1961.26 1486.25 1955.54 1486.25 Q1949.83 1486.25 1946.75 1483.57 Q1943.69 1480.88 1943.69 1475.86 Q1943.69 1472.55 1945.59 1470.26 Q1947.49 1467.96 1950.87 1467.18 M1949.15 1459.79 Q1949.15 1462.48 1950.82 1463.98 Q1952.51 1465.49 1955.54 1465.49 Q1958.55 1465.49 1960.24 1463.98 Q1961.95 1462.48 1961.95 1459.79 Q1961.95 1457.11 1960.24 1455.6 Q1958.55 1454.1 1955.54 1454.1 Q1952.51 1454.1 1950.82 1455.6 Q1949.15 1457.11 1949.15 1459.79 Z" fill="#000000" fill-rule="nonzero" fill-opacity="1" /><path clip-path="url(#clip890)" d="M2319.91 1481.64 L2327.55 1481.64 L2327.55 1455.28 L2319.24 1456.95 L2319.24 1452.69 L2327.5 1451.02 L2332.18 1451.02 L2332.18 1481.64 L2339.82 1481.64 L2339.82 1485.58 L2319.91 1485.58 L2319.91 1481.64 Z" fill="#000000" fill-rule="nonzero" fill-opacity="1" /><path clip-path="url(#clip890)" d="M2349.26 1479.7 L2354.14 1479.7 L2354.14 1485.58 L2349.26 1485.58 L2349.26 1479.7 Z" fill="#000000" fill-rule="nonzero" fill-opacity="1" /><path clip-path="url(#clip890)" d="M2374.33 1454.1 Q2370.72 1454.1 2368.89 1457.66 Q2367.08 1461.2 2367.08 1468.33 Q2367.08 1475.44 2368.89 1479.01 Q2370.72 1482.55 2374.33 1482.55 Q2377.96 1482.55 2379.77 1479.01 Q2381.6 1475.44 2381.6 1468.33 Q2381.6 1461.2 2379.77 1457.66 Q2377.96 1454.1 2374.33 1454.1 M2374.33 1450.39 Q2380.14 1450.39 2383.2 1455 Q2386.27 1459.58 2386.27 1468.33 Q2386.27 1477.06 2383.2 1481.67 Q2380.14 1486.25 2374.33 1486.25 Q2368.52 1486.25 2365.44 1481.67 Q2362.39 1477.06 2362.39 1468.33 Q2362.39 1459.58 2365.44 1455 Q2368.52 1450.39 2374.33 1450.39 Z" fill="#000000" fill-rule="nonzero" fill-opacity="1" /><path clip-path="url(#clip890)" d="M538.769 1520.52 L566.078 1520.52 L566.078 1525.93 L545.199 1525.93 L545.199 1539.94 L564.041 1539.94 L564.041 1545.35 L545.199 1545.35 L545.199 1568.04 L538.769 1568.04 L538.769 1520.52 Z" fill="#000000" fill-rule="nonzero" fill-opacity="1" /><path clip-path="url(#clip890)" d="M591.923 1537.87 Q590.936 1537.3 589.759 1537.04 Q588.613 1536.76 587.212 1536.76 Q582.247 1536.76 579.574 1540 Q576.932 1543.22 576.932 1549.27 L576.932 1568.04 L571.043 1568.04 L571.043 1532.4 L576.932 1532.4 L576.932 1537.93 Q578.778 1534.69 581.738 1533.13 Q584.698 1531.54 588.931 1531.54 Q589.536 1531.54 590.268 1531.63 Q591 1531.7 591.891 1531.85 L591.923 1537.87 Z" fill="#000000" fill-rule="nonzero" fill-opacity="1" /><path clip-path="url(#clip890)" d="M614.267 1550.12 Q607.169 1550.12 604.432 1551.75 Q601.694 1553.37 601.694 1557.29 Q601.694 1560.4 603.731 1562.25 Q605.8 1564.07 609.333 1564.07 Q614.203 1564.07 617.131 1560.63 Q620.091 1557.16 620.091 1551.43 L620.091 1550.12 L614.267 1550.12 M625.948 1547.71 L625.948 1568.04 L620.091 1568.04 L620.091 1562.63 Q618.086 1565.88 615.094 1567.44 Q612.102 1568.97 607.774 1568.97 Q602.299 1568.97 599.053 1565.91 Q595.838 1562.82 595.838 1557.67 Q595.838 1551.65 599.848 1548.6 Q603.891 1545.54 611.88 1545.54 L620.091 1545.54 L620.091 1544.97 Q620.091 1540.93 617.418 1538.73 Q614.776 1536.5 609.97 1536.5 Q606.914 1536.5 604.018 1537.23 Q601.121 1537.97 598.448 1539.43 L598.448 1534.02 Q601.663 1532.78 604.686 1532.17 Q607.71 1531.54 610.575 1531.54 Q618.309 1531.54 622.128 1535.55 Q625.948 1539.56 625.948 1547.71 Z" fill="#000000" fill-rule="nonzero" fill-opacity="1" /><path clip-path="url(#clip890)" d="M663.665 1533.76 L663.665 1539.24 Q661.182 1537.87 658.667 1537.2 Q656.185 1536.5 653.639 1536.5 Q647.941 1536.5 644.79 1540.13 Q641.639 1543.73 641.639 1550.25 Q641.639 1556.78 644.79 1560.4 Q647.941 1564 653.639 1564 Q656.185 1564 658.667 1563.33 Q661.182 1562.63 663.665 1561.26 L663.665 1566.68 Q661.214 1567.82 658.572 1568.39 Q655.962 1568.97 653.002 1568.97 Q644.949 1568.97 640.207 1563.91 Q635.464 1558.85 635.464 1550.25 Q635.464 1541.53 640.239 1536.53 Q645.045 1531.54 653.384 1531.54 Q656.089 1531.54 658.667 1532.11 Q661.246 1532.65 663.665 1533.76 Z" fill="#000000" fill-rule="nonzero" fill-opacity="1" /><path clip-path="url(#clip890)" d="M679.642 1522.27 L679.642 1532.4 L691.705 1532.4 L691.705 1536.95 L679.642 1536.95 L679.642 1556.3 Q679.642 1560.66 680.82 1561.9 Q682.03 1563.14 685.69 1563.14 L691.705 1563.14 L691.705 1568.04 L685.69 1568.04 Q678.91 1568.04 676.332 1565.53 Q673.754 1562.98 673.754 1556.3 L673.754 1536.95 L669.457 1536.95 L669.457 1532.4 L673.754 1532.4 L673.754 1522.27 L679.642 1522.27 Z" fill="#000000" fill-rule="nonzero" fill-opacity="1" /><path clip-path="url(#clip890)" d="M699.408 1532.4 L705.264 1532.4 L705.264 1568.04 L699.408 1568.04 L699.408 1532.4 M699.408 1518.52 L705.264 1518.52 L705.264 1525.93 L699.408 1525.93 L699.408 1518.52 Z" fill="#000000" fill-rule="nonzero" fill-opacity="1" /><path clip-path="url(#clip890)" d="M731.332 1536.5 Q726.621 1536.5 723.884 1540.19 Q721.147 1543.85 721.147 1550.25 Q721.147 1556.65 723.852 1560.34 Q726.59 1564 731.332 1564 Q736.011 1564 738.748 1560.31 Q741.485 1556.62 741.485 1550.25 Q741.485 1543.92 738.748 1540.23 Q736.011 1536.5 731.332 1536.5 M731.332 1531.54 Q738.971 1531.54 743.331 1536.5 Q747.692 1541.47 747.692 1550.25 Q747.692 1559 743.331 1564 Q738.971 1568.97 731.332 1568.97 Q723.661 1568.97 719.301 1564 Q714.972 1559 714.972 1550.25 Q714.972 1541.47 719.301 1536.5 Q723.661 1531.54 731.332 1531.54 Z" fill="#000000" fill-rule="nonzero" fill-opacity="1" /><path clip-path="url(#clip890)" d="M787.032 1546.53 L787.032 1568.04 L781.175 1568.04 L781.175 1546.72 Q781.175 1541.66 779.202 1539.14 Q777.229 1536.63 773.282 1536.63 Q768.54 1536.63 765.802 1539.65 Q763.065 1542.68 763.065 1547.9 L763.065 1568.04 L757.177 1568.04 L757.177 1532.4 L763.065 1532.4 L763.065 1537.93 Q765.166 1534.72 767.998 1533.13 Q770.863 1531.54 774.587 1531.54 Q780.73 1531.54 783.881 1535.36 Q787.032 1539.14 787.032 1546.53 Z" fill="#000000" fill-rule="nonzero" fill-opacity="1" /><path clip-path="url(#clip890)" d="M833.247 1536.5 Q828.536 1536.5 825.799 1540.19 Q823.062 1543.85 823.062 1550.25 Q823.062 1556.65 825.767 1560.34 Q828.504 1564 833.247 1564 Q837.926 1564 840.663 1560.31 Q843.4 1556.62 843.4 1550.25 Q843.4 1543.92 840.663 1540.23 Q837.926 1536.5 833.247 1536.5 M833.247 1531.54 Q840.886 1531.54 845.246 1536.5 Q849.607 1541.47 849.607 1550.25 Q849.607 1559 845.246 1564 Q840.886 1568.97 833.247 1568.97 Q825.576 1568.97 821.216 1564 Q816.887 1559 816.887 1550.25 Q816.887 1541.47 821.216 1536.5 Q825.576 1531.54 833.247 1531.54 Z" fill="#000000" fill-rule="nonzero" fill-opacity="1" /><path clip-path="url(#clip890)" d="M877.361 1518.52 L877.361 1523.39 L871.759 1523.39 Q868.608 1523.39 867.367 1524.66 Q866.158 1525.93 866.158 1529.24 L866.158 1532.4 L875.802 1532.4 L875.802 1536.95 L866.158 1536.95 L866.158 1568.04 L860.269 1568.04 L860.269 1536.95 L854.668 1536.95 L854.668 1532.4 L860.269 1532.4 L860.269 1529.91 Q860.269 1523.96 863.038 1521.26 Q865.808 1518.52 871.823 1518.52 L877.361 1518.52 Z" fill="#000000" fill-rule="nonzero" fill-opacity="1" /><path clip-path="url(#clip890)" d="M921.03 1518.52 L921.03 1523.39 L915.428 1523.39 Q912.277 1523.39 911.036 1524.66 Q909.826 1525.93 909.826 1529.24 L909.826 1532.4 L919.47 1532.4 L919.47 1536.95 L909.826 1536.95 L909.826 1568.04 L903.938 1568.04 L903.938 1536.95 L898.336 1536.95 L898.336 1532.4 L903.938 1532.4 L903.938 1529.91 Q903.938 1523.96 906.707 1521.26 Q909.476 1518.52 915.492 1518.52 L921.03 1518.52 Z" fill="#000000" fill-rule="nonzero" fill-opacity="1" /><path clip-path="url(#clip890)" d="M925.327 1553.98 L925.327 1532.4 L931.183 1532.4 L931.183 1553.75 Q931.183 1558.81 933.157 1561.36 Q935.13 1563.87 939.077 1563.87 Q943.819 1563.87 946.557 1560.85 Q949.326 1557.83 949.326 1552.61 L949.326 1532.4 L955.182 1532.4 L955.182 1568.04 L949.326 1568.04 L949.326 1562.57 Q947.193 1565.82 944.36 1567.41 Q941.559 1568.97 937.836 1568.97 Q931.693 1568.97 928.51 1565.15 Q925.327 1561.33 925.327 1553.98 M940.064 1531.54 L940.064 1531.54 Z" fill="#000000" fill-rule="nonzero" fill-opacity="1" /><path clip-path="url(#clip890)" d="M997.737 1548.76 L997.737 1551.62 L970.81 1551.62 Q971.192 1557.67 974.438 1560.85 Q977.717 1564 983.541 1564 Q986.915 1564 990.066 1563.17 Q993.249 1562.35 996.368 1560.69 L996.368 1566.23 Q993.217 1567.57 989.907 1568.27 Q986.597 1568.97 983.191 1568.97 Q974.661 1568.97 969.664 1564 Q964.699 1559.04 964.699 1550.57 Q964.699 1541.82 969.409 1536.69 Q974.152 1531.54 982.173 1531.54 Q989.366 1531.54 993.535 1536.18 Q997.737 1540.8 997.737 1548.76 M991.88 1547.04 Q991.817 1542.23 989.175 1539.37 Q986.565 1536.5 982.236 1536.5 Q977.335 1536.5 974.375 1539.27 Q971.446 1542.04 971.001 1547.07 L991.88 1547.04 Z" fill="#000000" fill-rule="nonzero" fill-opacity="1" /><path clip-path="url(#clip890)" d="M1007.35 1518.52 L1013.21 1518.52 L1013.21 1568.04 L1007.35 1568.04 L1007.35 1518.52 Z" fill="#000000" fill-rule="nonzero" fill-opacity="1" /><path clip-path="url(#clip890)" d="M1069.64 1549.81 Q1069.64 1543.44 1067 1539.94 Q1064.39 1536.44 1059.64 1536.44 Q1054.93 1536.44 1052.29 1539.94 Q1049.68 1543.44 1049.68 1549.81 Q1049.68 1556.14 1052.29 1559.64 Q1054.93 1563.14 1059.64 1563.14 Q1064.39 1563.14 1067 1559.64 Q1069.64 1556.14 1069.64 1549.81 M1075.49 1563.62 Q1075.49 1572.72 1071.45 1577.15 Q1067.41 1581.6 1059.07 1581.6 Q1055.98 1581.6 1053.25 1581.13 Q1050.51 1580.68 1047.93 1579.72 L1047.93 1574.03 Q1050.51 1575.43 1053.02 1576.1 Q1055.54 1576.76 1058.15 1576.76 Q1063.91 1576.76 1066.77 1573.74 Q1069.64 1570.75 1069.64 1564.67 L1069.64 1561.77 Q1067.82 1564.92 1064.99 1566.48 Q1062.16 1568.04 1058.21 1568.04 Q1051.65 1568.04 1047.64 1563.05 Q1043.63 1558.05 1043.63 1549.81 Q1043.63 1541.53 1047.64 1536.53 Q1051.65 1531.54 1058.21 1531.54 Q1062.16 1531.54 1064.99 1533.1 Q1067.82 1534.66 1069.64 1537.81 L1069.64 1532.4 L1075.49 1532.4 L1075.49 1563.62 Z" fill="#000000" fill-rule="nonzero" fill-opacity="1" /><path clip-path="url(#clip890)" d="M1103.76 1550.12 Q1096.66 1550.12 1093.92 1551.75 Q1091.19 1553.37 1091.19 1557.29 Q1091.19 1560.4 1093.22 1562.25 Q1095.29 1564.07 1098.82 1564.07 Q1103.69 1564.07 1106.62 1560.63 Q1109.58 1557.16 1109.58 1551.43 L1109.58 1550.12 L1103.76 1550.12 M1115.44 1547.71 L1115.44 1568.04 L1109.58 1568.04 L1109.58 1562.63 Q1107.58 1565.88 1104.59 1567.44 Q1101.59 1568.97 1097.26 1568.97 Q1091.79 1568.97 1088.54 1565.91 Q1085.33 1562.82 1085.33 1557.67 Q1085.33 1551.65 1089.34 1548.6 Q1093.38 1545.54 1101.37 1545.54 L1109.58 1545.54 L1109.58 1544.97 Q1109.58 1540.93 1106.91 1538.73 Q1104.27 1536.5 1099.46 1536.5 Q1096.41 1536.5 1093.51 1537.23 Q1090.61 1537.97 1087.94 1539.43 L1087.94 1534.02 Q1091.15 1532.78 1094.18 1532.17 Q1097.2 1531.54 1100.07 1531.54 Q1107.8 1531.54 1111.62 1535.55 Q1115.44 1539.56 1115.44 1547.71 Z" fill="#000000" fill-rule="nonzero" fill-opacity="1" /><path clip-path="url(#clip890)" d="M1150.23 1533.45 L1150.23 1538.98 Q1147.74 1537.71 1145.07 1537.07 Q1142.4 1536.44 1139.53 1536.44 Q1135.17 1536.44 1132.98 1537.77 Q1130.81 1539.11 1130.81 1541.79 Q1130.81 1543.82 1132.37 1545 Q1133.93 1546.15 1138.64 1547.2 L1140.65 1547.64 Q1146.89 1548.98 1149.5 1551.43 Q1152.14 1553.85 1152.14 1558.21 Q1152.14 1563.17 1148.19 1566.07 Q1144.28 1568.97 1137.4 1568.97 Q1134.54 1568.97 1131.42 1568.39 Q1128.33 1567.85 1124.89 1566.74 L1124.89 1560.69 Q1128.14 1562.38 1131.29 1563.24 Q1134.44 1564.07 1137.53 1564.07 Q1141.67 1564.07 1143.89 1562.66 Q1146.12 1561.23 1146.12 1558.65 Q1146.12 1556.27 1144.5 1554.99 Q1142.91 1553.72 1137.46 1552.54 L1135.43 1552.07 Q1129.98 1550.92 1127.57 1548.56 Q1125.15 1546.18 1125.15 1542.04 Q1125.15 1537.01 1128.71 1534.27 Q1132.28 1531.54 1138.83 1531.54 Q1142.08 1531.54 1144.94 1532.01 Q1147.81 1532.49 1150.23 1533.45 Z" fill="#000000" fill-rule="nonzero" fill-opacity="1" /><path clip-path="url(#clip890)" d="M1182.18 1518.52 L1188.04 1518.52 L1188.04 1568.04 L1182.18 1568.04 L1182.18 1518.52 Z" fill="#000000" fill-rule="nonzero" fill-opacity="1" /><path clip-path="url(#clip890)" d="M1214.11 1536.5 Q1209.4 1536.5 1206.66 1540.19 Q1203.92 1543.85 1203.92 1550.25 Q1203.92 1556.65 1206.63 1560.34 Q1209.36 1564 1214.11 1564 Q1218.79 1564 1221.52 1560.31 Q1224.26 1556.62 1224.26 1550.25 Q1224.26 1543.92 1221.52 1540.23 Q1218.79 1536.5 1214.11 1536.5 M1214.11 1531.54 Q1221.75 1531.54 1226.11 1536.5 Q1230.47 1541.47 1230.47 1550.25 Q1230.47 1559 1226.11 1564 Q1221.75 1568.97 1214.11 1568.97 Q1206.44 1568.97 1202.08 1564 Q1197.75 1559 1197.75 1550.25 Q1197.75 1541.47 1202.08 1536.5 Q1206.44 1531.54 1214.11 1531.54 Z" fill="#000000" fill-rule="nonzero" fill-opacity="1" /><path clip-path="url(#clip890)" d="M1262.9 1533.45 L1262.9 1538.98 Q1260.42 1537.71 1257.74 1537.07 Q1255.07 1536.44 1252.21 1536.44 Q1247.85 1536.44 1245.65 1537.77 Q1243.48 1539.11 1243.48 1541.79 Q1243.48 1543.82 1245.04 1545 Q1246.6 1546.15 1251.31 1547.2 L1253.32 1547.64 Q1259.56 1548.98 1262.17 1551.43 Q1264.81 1553.85 1264.81 1558.21 Q1264.81 1563.17 1260.86 1566.07 Q1256.95 1568.97 1250.07 1568.97 Q1247.21 1568.97 1244.09 1568.39 Q1241 1567.85 1237.56 1566.74 L1237.56 1560.69 Q1240.81 1562.38 1243.96 1563.24 Q1247.11 1564.07 1250.2 1564.07 Q1254.34 1564.07 1256.57 1562.66 Q1258.79 1561.23 1258.79 1558.65 Q1258.79 1556.27 1257.17 1554.99 Q1255.58 1553.72 1250.14 1552.54 L1248.1 1552.07 Q1242.66 1550.92 1240.24 1548.56 Q1237.82 1546.18 1237.82 1542.04 Q1237.82 1537.01 1241.38 1534.27 Q1244.95 1531.54 1251.51 1531.54 Q1254.75 1531.54 1257.62 1532.01 Q1260.48 1532.49 1262.9 1533.45 Z" fill="#000000" fill-rule="nonzero" fill-opacity="1" /><path clip-path="url(#clip890)" d="M1279.93 1522.27 L1279.93 1532.4 L1291.99 1532.4 L1291.99 1536.95 L1279.93 1536.95 L1279.93 1556.3 Q1279.93 1560.66 1281.11 1561.9 Q1282.32 1563.14 1285.98 1563.14 L1291.99 1563.14 L1291.99 1568.04 L1285.98 1568.04 Q1279.2 1568.04 1276.62 1565.53 Q1274.04 1562.98 1274.04 1556.3 L1274.04 1536.95 L1269.74 1536.95 L1269.74 1532.4 L1274.04 1532.4 L1274.04 1522.27 L1279.93 1522.27 Z" fill="#000000" fill-rule="nonzero" fill-opacity="1" /><path clip-path="url(#clip890)" d="M1326.21 1522.27 L1326.21 1532.4 L1338.27 1532.4 L1338.27 1536.95 L1326.21 1536.95 L1326.21 1556.3 Q1326.21 1560.66 1327.38 1561.9 Q1328.59 1563.14 1332.25 1563.14 L1338.27 1563.14 L1338.27 1568.04 L1332.25 1568.04 Q1325.48 1568.04 1322.9 1565.53 Q1320.32 1562.98 1320.32 1556.3 L1320.32 1536.95 L1316.02 1536.95 L1316.02 1532.4 L1320.32 1532.4 L1320.32 1522.27 L1326.21 1522.27 Z" fill="#000000" fill-rule="nonzero" fill-opacity="1" /><path clip-path="url(#clip890)" d="M1359.79 1536.5 Q1355.08 1536.5 1352.34 1540.19 Q1349.6 1543.85 1349.6 1550.25 Q1349.6 1556.65 1352.31 1560.34 Q1355.04 1564 1359.79 1564 Q1364.47 1564 1367.2 1560.31 Q1369.94 1556.62 1369.94 1550.25 Q1369.94 1543.92 1367.2 1540.23 Q1364.47 1536.5 1359.79 1536.5 M1359.79 1531.54 Q1367.43 1531.54 1371.79 1536.5 Q1376.15 1541.47 1376.15 1550.25 Q1376.15 1559 1371.79 1564 Q1367.43 1568.97 1359.79 1568.97 Q1352.12 1568.97 1347.76 1564 Q1343.43 1559 1343.43 1550.25 Q1343.43 1541.47 1347.76 1536.5 Q1352.12 1531.54 1359.79 1531.54 Z" fill="#000000" fill-rule="nonzero" fill-opacity="1" /><path clip-path="url(#clip890)" d="M1424.62 1518.52 L1424.62 1523.39 L1419.02 1523.39 Q1415.87 1523.39 1414.63 1524.66 Q1413.42 1525.93 1413.42 1529.24 L1413.42 1532.4 L1423.06 1532.4 L1423.06 1536.95 L1413.42 1536.95 L1413.42 1568.04 L1407.53 1568.04 L1407.53 1536.95 L1401.93 1536.95 L1401.93 1532.4 L1407.53 1532.4 L1407.53 1529.91 Q1407.53 1523.96 1410.3 1521.26 Q1413.07 1518.52 1419.08 1518.52 L1424.62 1518.52 Z" fill="#000000" fill-rule="nonzero" fill-opacity="1" /><path clip-path="url(#clip890)" d="M1428.92 1553.98 L1428.92 1532.4 L1434.77 1532.4 L1434.77 1553.75 Q1434.77 1558.81 1436.75 1561.36 Q1438.72 1563.87 1442.67 1563.87 Q1447.41 1563.87 1450.15 1560.85 Q1452.92 1557.83 1452.92 1552.61 L1452.92 1532.4 L1458.77 1532.4 L1458.77 1568.04 L1452.92 1568.04 L1452.92 1562.57 Q1450.78 1565.82 1447.95 1567.41 Q1445.15 1568.97 1441.43 1568.97 Q1435.28 1568.97 1432.1 1565.15 Q1428.92 1561.33 1428.92 1553.98 M1443.65 1531.54 L1443.65 1531.54 Z" fill="#000000" fill-rule="nonzero" fill-opacity="1" /><path clip-path="url(#clip890)" d="M1494.29 1549.81 Q1494.29 1543.44 1491.65 1539.94 Q1489.04 1536.44 1484.3 1536.44 Q1479.59 1536.44 1476.95 1539.94 Q1474.34 1543.44 1474.34 1549.81 Q1474.34 1556.14 1476.95 1559.64 Q1479.59 1563.14 1484.3 1563.14 Q1489.04 1563.14 1491.65 1559.64 Q1494.29 1556.14 1494.29 1549.81 M1500.15 1563.62 Q1500.15 1572.72 1496.11 1577.15 Q1492.07 1581.6 1483.73 1581.6 Q1480.64 1581.6 1477.9 1581.13 Q1475.16 1580.68 1472.59 1579.72 L1472.59 1574.03 Q1475.16 1575.43 1477.68 1576.1 Q1480.19 1576.76 1482.8 1576.76 Q1488.56 1576.76 1491.43 1573.74 Q1494.29 1570.75 1494.29 1564.67 L1494.29 1561.77 Q1492.48 1564.92 1489.65 1566.48 Q1486.81 1568.04 1482.87 1568.04 Q1476.31 1568.04 1472.3 1563.05 Q1468.29 1558.05 1468.29 1549.81 Q1468.29 1541.53 1472.3 1536.53 Q1476.31 1531.54 1482.87 1531.54 Q1486.81 1531.54 1489.65 1533.1 Q1492.48 1534.66 1494.29 1537.81 L1494.29 1532.4 L1500.15 1532.4 L1500.15 1563.62 Z" fill="#000000" fill-rule="nonzero" fill-opacity="1" /><path clip-path="url(#clip890)" d="M1512.21 1532.4 L1518.07 1532.4 L1518.07 1568.04 L1512.21 1568.04 L1512.21 1532.4 M1512.21 1518.52 L1518.07 1518.52 L1518.07 1525.93 L1512.21 1525.93 L1512.21 1518.52 Z" fill="#000000" fill-rule="nonzero" fill-opacity="1" /><path clip-path="url(#clip890)" d="M1536.12 1522.27 L1536.12 1532.4 L1548.18 1532.4 L1548.18 1536.95 L1536.12 1536.95 L1536.12 1556.3 Q1536.12 1560.66 1537.29 1561.9 Q1538.5 1563.14 1542.16 1563.14 L1548.18 1563.14 L1548.18 1568.04 L1542.16 1568.04 Q1535.38 1568.04 1532.81 1565.53 Q1530.23 1562.98 1530.23 1556.3 L1530.23 1536.95 L1525.93 1536.95 L1525.93 1532.4 L1530.23 1532.4 L1530.23 1522.27 L1536.12 1522.27 Z" fill="#000000" fill-rule="nonzero" fill-opacity="1" /><path clip-path="url(#clip890)" d="M1555.88 1532.4 L1561.74 1532.4 L1561.74 1568.04 L1555.88 1568.04 L1555.88 1532.4 M1555.88 1518.52 L1561.74 1518.52 L1561.74 1525.93 L1555.88 1525.93 L1555.88 1518.52 Z" fill="#000000" fill-rule="nonzero" fill-opacity="1" /><path clip-path="url(#clip890)" d="M1569.79 1532.4 L1576 1532.4 L1587.14 1562.31 L1598.28 1532.4 L1604.48 1532.4 L1591.12 1568.04 L1583.16 1568.04 L1569.79 1532.4 Z" fill="#000000" fill-rule="nonzero" fill-opacity="1" /><path clip-path="url(#clip890)" d="M1643.06 1548.76 L1643.06 1551.62 L1616.13 1551.62 Q1616.52 1557.67 1619.76 1560.85 Q1623.04 1564 1628.86 1564 Q1632.24 1564 1635.39 1563.17 Q1638.57 1562.35 1641.69 1560.69 L1641.69 1566.23 Q1638.54 1567.57 1635.23 1568.27 Q1631.92 1568.97 1628.51 1568.97 Q1619.98 1568.97 1614.99 1564 Q1610.02 1559.04 1610.02 1550.57 Q1610.02 1541.82 1614.73 1536.69 Q1619.48 1531.54 1627.5 1531.54 Q1634.69 1531.54 1638.86 1536.18 Q1643.06 1540.8 1643.06 1548.76 M1637.2 1547.04 Q1637.14 1542.23 1634.5 1539.37 Q1631.89 1536.5 1627.56 1536.5 Q1622.66 1536.5 1619.7 1539.27 Q1616.77 1542.04 1616.32 1547.07 L1637.2 1547.04 Z" fill="#000000" fill-rule="nonzero" fill-opacity="1" /><path clip-path="url(#clip890)" d="M1703.88 1548.76 L1703.88 1551.62 L1676.96 1551.62 Q1677.34 1557.67 1680.59 1560.85 Q1683.86 1564 1689.69 1564 Q1693.06 1564 1696.21 1563.17 Q1699.4 1562.35 1702.52 1560.69 L1702.52 1566.23 Q1699.36 1567.57 1696.05 1568.27 Q1692.74 1568.97 1689.34 1568.97 Q1680.81 1568.97 1675.81 1564 Q1670.85 1559.04 1670.85 1550.57 Q1670.85 1541.82 1675.56 1536.69 Q1680.3 1531.54 1688.32 1531.54 Q1695.51 1531.54 1699.68 1536.18 Q1703.88 1540.8 1703.88 1548.76 M1698.03 1547.04 Q1697.96 1542.23 1695.32 1539.37 Q1692.71 1536.5 1688.38 1536.5 Q1683.48 1536.5 1680.52 1539.27 Q1677.59 1542.04 1677.15 1547.07 L1698.03 1547.04 Z" fill="#000000" fill-rule="nonzero" fill-opacity="1" /><path clip-path="url(#clip890)" d="M1741.25 1539.24 Q1743.45 1535.29 1746.5 1533.41 Q1749.56 1531.54 1753.7 1531.54 Q1759.27 1531.54 1762.29 1535.45 Q1765.31 1539.33 1765.31 1546.53 L1765.31 1568.04 L1759.43 1568.04 L1759.43 1546.72 Q1759.43 1541.59 1757.61 1539.11 Q1755.8 1536.63 1752.07 1536.63 Q1747.52 1536.63 1744.88 1539.65 Q1742.24 1542.68 1742.24 1547.9 L1742.24 1568.04 L1736.35 1568.04 L1736.35 1546.72 Q1736.35 1541.56 1734.54 1539.11 Q1732.72 1536.63 1728.93 1536.63 Q1724.45 1536.63 1721.8 1539.68 Q1719.16 1542.71 1719.16 1547.9 L1719.16 1568.04 L1713.27 1568.04 L1713.27 1532.4 L1719.16 1532.4 L1719.16 1537.93 Q1721.17 1534.66 1723.97 1533.1 Q1726.77 1531.54 1730.62 1531.54 Q1734.5 1531.54 1737.21 1533.51 Q1739.95 1535.48 1741.25 1539.24 Z" fill="#000000" fill-rule="nonzero" fill-opacity="1" /><path clip-path="url(#clip890)" d="M1776.99 1532.4 L1782.85 1532.4 L1782.85 1568.04 L1776.99 1568.04 L1776.99 1532.4 M1776.99 1518.52 L1782.85 1518.52 L1782.85 1525.93 L1776.99 1525.93 L1776.99 1518.52 Z" fill="#000000" fill-rule="nonzero" fill-opacity="1" /><path clip-path="url(#clip890)" d="M1817.83 1533.45 L1817.83 1538.98 Q1815.35 1537.71 1812.67 1537.07 Q1810 1536.44 1807.14 1536.44 Q1802.78 1536.44 1800.58 1537.77 Q1798.42 1539.11 1798.42 1541.79 Q1798.42 1543.82 1799.97 1545 Q1801.53 1546.15 1806.25 1547.2 L1808.25 1547.64 Q1814.49 1548.98 1817.1 1551.43 Q1819.74 1553.85 1819.74 1558.21 Q1819.74 1563.17 1815.79 1566.07 Q1811.88 1568.97 1805 1568.97 Q1802.14 1568.97 1799.02 1568.39 Q1795.93 1567.85 1792.5 1566.74 L1792.5 1560.69 Q1795.74 1562.38 1798.89 1563.24 Q1802.04 1564.07 1805.13 1564.07 Q1809.27 1564.07 1811.5 1562.66 Q1813.72 1561.23 1813.72 1558.65 Q1813.72 1556.27 1812.1 1554.99 Q1810.51 1553.72 1805.07 1552.54 L1803.03 1552.07 Q1797.59 1550.92 1795.17 1548.56 Q1792.75 1546.18 1792.75 1542.04 Q1792.75 1537.01 1796.31 1534.27 Q1799.88 1531.54 1806.44 1531.54 Q1809.68 1531.54 1812.55 1532.01 Q1815.41 1532.49 1817.83 1533.45 Z" fill="#000000" fill-rule="nonzero" fill-opacity="1" /><path clip-path="url(#clip890)" d="M1851.79 1533.45 L1851.79 1538.98 Q1849.31 1537.71 1846.64 1537.07 Q1843.96 1536.44 1841.1 1536.44 Q1836.74 1536.44 1834.54 1537.77 Q1832.38 1539.11 1832.38 1541.79 Q1832.38 1543.82 1833.94 1545 Q1835.5 1546.15 1840.21 1547.2 L1842.21 1547.64 Q1848.45 1548.98 1851.06 1551.43 Q1853.7 1553.85 1853.7 1558.21 Q1853.7 1563.17 1849.75 1566.07 Q1845.84 1568.97 1838.96 1568.97 Q1836.1 1568.97 1832.98 1568.39 Q1829.89 1567.85 1826.46 1566.74 L1826.46 1560.69 Q1829.7 1562.38 1832.85 1563.24 Q1836 1564.07 1839.09 1564.07 Q1843.23 1564.07 1845.46 1562.66 Q1847.69 1561.23 1847.69 1558.65 Q1847.69 1556.27 1846.06 1554.99 Q1844.47 1553.72 1839.03 1552.54 L1836.99 1552.07 Q1831.55 1550.92 1829.13 1548.56 Q1826.71 1546.18 1826.71 1542.04 Q1826.71 1537.01 1830.28 1534.27 Q1833.84 1531.54 1840.4 1531.54 Q1843.64 1531.54 1846.51 1532.01 Q1849.37 1532.49 1851.79 1533.45 Z" fill="#000000" fill-rule="nonzero" fill-opacity="1" /><path clip-path="url(#clip890)" d="M1863.03 1532.4 L1868.88 1532.4 L1868.88 1568.04 L1863.03 1568.04 L1863.03 1532.4 M1863.03 1518.52 L1868.88 1518.52 L1868.88 1525.93 L1863.03 1525.93 L1863.03 1518.52 Z" fill="#000000" fill-rule="nonzero" fill-opacity="1" /><path clip-path="url(#clip890)" d="M1894.95 1536.5 Q1890.24 1536.5 1887.5 1540.19 Q1884.77 1543.85 1884.77 1550.25 Q1884.77 1556.65 1887.47 1560.34 Q1890.21 1564 1894.95 1564 Q1899.63 1564 1902.37 1560.31 Q1905.1 1556.62 1905.1 1550.25 Q1905.1 1543.92 1902.37 1540.23 Q1899.63 1536.5 1894.95 1536.5 M1894.95 1531.54 Q1902.59 1531.54 1906.95 1536.5 Q1911.31 1541.47 1911.31 1550.25 Q1911.31 1559 1906.95 1564 Q1902.59 1568.97 1894.95 1568.97 Q1887.28 1568.97 1882.92 1564 Q1878.59 1559 1878.59 1550.25 Q1878.59 1541.47 1882.92 1536.5 Q1887.28 1531.54 1894.95 1531.54 Z" fill="#000000" fill-rule="nonzero" fill-opacity="1" /><path clip-path="url(#clip890)" d="M1950.65 1546.53 L1950.65 1568.04 L1944.79 1568.04 L1944.79 1546.72 Q1944.79 1541.66 1942.82 1539.14 Q1940.85 1536.63 1936.9 1536.63 Q1932.16 1536.63 1929.42 1539.65 Q1926.68 1542.68 1926.68 1547.9 L1926.68 1568.04 L1920.8 1568.04 L1920.8 1532.4 L1926.68 1532.4 L1926.68 1537.93 Q1928.79 1534.72 1931.62 1533.13 Q1934.48 1531.54 1938.21 1531.54 Q1944.35 1531.54 1947.5 1535.36 Q1950.65 1539.14 1950.65 1546.53 Z" fill="#000000" fill-rule="nonzero" fill-opacity="1" /><path clip-path="url(#clip890)" d="M1985.06 1533.45 L1985.06 1538.98 Q1982.58 1537.71 1979.9 1537.07 Q1977.23 1536.44 1974.36 1536.44 Q1970 1536.44 1967.81 1537.77 Q1965.64 1539.11 1965.64 1541.79 Q1965.64 1543.82 1967.2 1545 Q1968.76 1546.15 1973.47 1547.2 L1975.48 1547.64 Q1981.72 1548.98 1984.33 1551.43 Q1986.97 1553.85 1986.97 1558.21 Q1986.97 1563.17 1983.02 1566.07 Q1979.11 1568.97 1972.23 1568.97 Q1969.37 1568.97 1966.25 1568.39 Q1963.16 1567.85 1959.72 1566.74 L1959.72 1560.69 Q1962.97 1562.38 1966.12 1563.24 Q1969.27 1564.07 1972.36 1564.07 Q1976.5 1564.07 1978.72 1562.66 Q1980.95 1561.23 1980.95 1558.65 Q1980.95 1556.27 1979.33 1554.99 Q1977.74 1553.72 1972.29 1552.54 L1970.26 1552.07 Q1964.81 1550.92 1962.4 1548.56 Q1959.98 1546.18 1959.98 1542.04 Q1959.98 1537.01 1963.54 1534.27 Q1967.11 1531.54 1973.66 1531.54 Q1976.91 1531.54 1979.77 1532.01 Q1982.64 1532.49 1985.06 1533.45 Z" fill="#000000" fill-rule="nonzero" fill-opacity="1" /><path clip-path="url(#clip890)" d="M1997.79 1559.96 L2004.51 1559.96 L2004.51 1565.43 L1999.29 1575.62 L1995.18 1575.62 L1997.79 1565.43 L1997.79 1559.96 Z" fill="#000000" fill-rule="nonzero" fill-opacity="1" /><path clip-path="url(#clip890)" d="M2067.37 1546.53 L2067.37 1581.6 L2061.51 1581.6 L2061.51 1546.72 Q2061.51 1541.66 2059.54 1539.14 Q2057.56 1536.63 2053.62 1536.63 Q2048.87 1536.63 2046.14 1539.65 Q2043.4 1542.68 2043.4 1547.9 L2043.4 1568.04 L2037.51 1568.04 L2037.51 1532.4 L2043.4 1532.4 L2043.4 1537.93 Q2045.5 1534.72 2048.33 1533.13 Q2051.2 1531.54 2054.92 1531.54 Q2061.06 1531.54 2064.22 1535.32 Q2067.37 1539.14 2067.37 1546.53 Z" fill="#000000" fill-rule="nonzero" fill-opacity="1" /><polyline clip-path="url(#clip892)" style="stroke:#000000; stroke-linecap:round; stroke-linejoin:round; stroke-width:2; stroke-opacity:0.1; fill:none" points="253.38,1420.18 2352.76,1420.18 "/>
<polyline clip-path="url(#clip892)" style="stroke:#000000; stroke-linecap:round; stroke-linejoin:round; stroke-width:2; stroke-opacity:0.1; fill:none" points="253.38,1028.64 2352.76,1028.64 "/>
<polyline clip-path="url(#clip892)" style="stroke:#000000; stroke-linecap:round; stroke-linejoin:round; stroke-width:2; stroke-opacity:0.1; fill:none" points="253.38,637.1 2352.76,637.1 "/>
<polyline clip-path="url(#clip892)" style="stroke:#000000; stroke-linecap:round; stroke-linejoin:round; stroke-width:2; stroke-opacity:0.1; fill:none" points="253.38,245.558 2352.76,245.558 "/>
<polyline clip-path="url(#clip890)" style="stroke:#000000; stroke-linecap:round; stroke-linejoin:round; stroke-width:4; stroke-opacity:1; fill:none" points="253.38,1423.18 253.38,123.472 "/>
<polyline clip-path="url(#clip890)" style="stroke:#000000; stroke-linecap:round; stroke-linejoin:round; stroke-width:4; stroke-opacity:1; fill:none" points="253.38,1420.18 272.278,1420.18 "/>
<polyline clip-path="url(#clip890)" style="stroke:#000000; stroke-linecap:round; stroke-linejoin:round; stroke-width:4; stroke-opacity:1; fill:none" points="253.38,1028.64 272.278,1028.64 "/>
<polyline clip-path="url(#clip890)" style="stroke:#000000; stroke-linecap:round; stroke-linejoin:round; stroke-width:4; stroke-opacity:1; fill:none" points="253.38,637.1 272.278,637.1 "/>
<polyline clip-path="url(#clip890)" style="stroke:#000000; stroke-linecap:round; stroke-linejoin:round; stroke-width:4; stroke-opacity:1; fill:none" points="253.38,245.558 272.278,245.558 "/>
<path clip-path="url(#clip890)" d="M130.042 1405.98 Q126.431 1405.98 124.603 1409.55 Q122.797 1413.09 122.797 1420.22 Q122.797 1427.33 124.603 1430.89 Q126.431 1434.43 130.042 1434.43 Q133.677 1434.43 135.482 1430.89 Q137.311 1427.33 137.311 1420.22 Q137.311 1413.09 135.482 1409.55 Q133.677 1405.98 130.042 1405.98 M130.042 1402.28 Q135.853 1402.28 138.908 1406.89 Q141.987 1411.47 141.987 1420.22 Q141.987 1428.95 138.908 1433.55 Q135.853 1438.14 130.042 1438.14 Q124.232 1438.14 121.154 1433.55 Q118.098 1428.95 118.098 1420.22 Q118.098 1411.47 121.154 1406.89 Q124.232 1402.28 130.042 1402.28 Z" fill="#000000" fill-rule="nonzero" fill-opacity="1" /><path clip-path="url(#clip890)" d="M150.204 1431.59 L155.089 1431.59 L155.089 1437.46 L150.204 1437.46 L150.204 1431.59 Z" fill="#000000" fill-rule="nonzero" fill-opacity="1" /><path clip-path="url(#clip890)" d="M175.274 1405.98 Q171.663 1405.98 169.834 1409.55 Q168.028 1413.09 168.028 1420.22 Q168.028 1427.33 169.834 1430.89 Q171.663 1434.43 175.274 1434.43 Q178.908 1434.43 180.713 1430.89 Q182.542 1427.33 182.542 1420.22 Q182.542 1413.09 180.713 1409.55 Q178.908 1405.98 175.274 1405.98 M175.274 1402.28 Q181.084 1402.28 184.139 1406.89 Q187.218 1411.47 187.218 1420.22 Q187.218 1428.95 184.139 1433.55 Q181.084 1438.14 175.274 1438.14 Q169.464 1438.14 166.385 1433.55 Q163.329 1428.95 163.329 1420.22 Q163.329 1411.47 166.385 1406.89 Q169.464 1402.28 175.274 1402.28 Z" fill="#000000" fill-rule="nonzero" fill-opacity="1" /><path clip-path="url(#clip890)" d="M205.436 1405.98 Q201.824 1405.98 199.996 1409.55 Q198.19 1413.09 198.19 1420.22 Q198.19 1427.33 199.996 1430.89 Q201.824 1434.43 205.436 1434.43 Q209.07 1434.43 210.875 1430.89 Q212.704 1427.33 212.704 1420.22 Q212.704 1413.09 210.875 1409.55 Q209.07 1405.98 205.436 1405.98 M205.436 1402.28 Q211.246 1402.28 214.301 1406.89 Q217.38 1411.47 217.38 1420.22 Q217.38 1428.95 214.301 1433.55 Q211.246 1438.14 205.436 1438.14 Q199.625 1438.14 196.547 1433.55 Q193.491 1428.95 193.491 1420.22 Q193.491 1411.47 196.547 1406.89 Q199.625 1402.28 205.436 1402.28 Z" fill="#000000" fill-rule="nonzero" fill-opacity="1" /><path clip-path="url(#clip890)" d="M131.038 1014.44 Q127.427 1014.44 125.598 1018.01 Q123.792 1021.55 123.792 1028.68 Q123.792 1035.78 125.598 1039.35 Q127.427 1042.89 131.038 1042.89 Q134.672 1042.89 136.478 1039.35 Q138.306 1035.78 138.306 1028.68 Q138.306 1021.55 136.478 1018.01 Q134.672 1014.44 131.038 1014.44 M131.038 1010.74 Q136.848 1010.74 139.904 1015.34 Q142.982 1019.93 142.982 1028.68 Q142.982 1037.4 139.904 1042.01 Q136.848 1046.59 131.038 1046.59 Q125.228 1046.59 122.149 1042.01 Q119.093 1037.4 119.093 1028.68 Q119.093 1019.93 122.149 1015.34 Q125.228 1010.74 131.038 1010.74 Z" fill="#000000" fill-rule="nonzero" fill-opacity="1" /><path clip-path="url(#clip890)" d="M151.2 1040.04 L156.084 1040.04 L156.084 1045.92 L151.2 1045.92 L151.2 1040.04 Z" fill="#000000" fill-rule="nonzero" fill-opacity="1" /><path clip-path="url(#clip890)" d="M176.269 1014.44 Q172.658 1014.44 170.829 1018.01 Q169.024 1021.55 169.024 1028.68 Q169.024 1035.78 170.829 1039.35 Q172.658 1042.89 176.269 1042.89 Q179.903 1042.89 181.709 1039.35 Q183.538 1035.78 183.538 1028.68 Q183.538 1021.55 181.709 1018.01 Q179.903 1014.44 176.269 1014.44 M176.269 1010.74 Q182.079 1010.74 185.135 1015.34 Q188.213 1019.93 188.213 1028.68 Q188.213 1037.4 185.135 1042.01 Q182.079 1046.59 176.269 1046.59 Q170.459 1046.59 167.38 1042.01 Q164.325 1037.4 164.325 1028.68 Q164.325 1019.93 167.38 1015.34 Q170.459 1010.74 176.269 1010.74 Z" fill="#000000" fill-rule="nonzero" fill-opacity="1" /><path clip-path="url(#clip890)" d="M196.477 1011.36 L214.834 1011.36 L214.834 1015.3 L200.76 1015.3 L200.76 1023.77 Q201.778 1023.42 202.797 1023.26 Q203.815 1023.08 204.834 1023.08 Q210.621 1023.08 214 1026.25 Q217.38 1029.42 217.38 1034.83 Q217.38 1040.41 213.908 1043.52 Q210.436 1046.59 204.116 1046.59 Q201.94 1046.59 199.672 1046.22 Q197.426 1045.85 195.019 1045.11 L195.019 1040.41 Q197.102 1041.55 199.324 1042.1 Q201.547 1042.66 204.024 1042.66 Q208.028 1042.66 210.366 1040.55 Q212.704 1038.45 212.704 1034.83 Q212.704 1031.22 210.366 1029.12 Q208.028 1027.01 204.024 1027.01 Q202.149 1027.01 200.274 1027.43 Q198.422 1027.84 196.477 1028.72 L196.477 1011.36 Z" fill="#000000" fill-rule="nonzero" fill-opacity="1" /><path clip-path="url(#clip890)" d="M130.042 622.899 Q126.431 622.899 124.603 626.464 Q122.797 630.006 122.797 637.135 Q122.797 644.242 124.603 647.806 Q126.431 651.348 130.042 651.348 Q133.677 651.348 135.482 647.806 Q137.311 644.242 137.311 637.135 Q137.311 630.006 135.482 626.464 Q133.677 622.899 130.042 622.899 M130.042 619.195 Q135.853 619.195 138.908 623.802 Q141.987 628.385 141.987 637.135 Q141.987 645.862 138.908 650.468 Q135.853 655.052 130.042 655.052 Q124.232 655.052 121.154 650.468 Q118.098 645.862 118.098 637.135 Q118.098 628.385 121.154 623.802 Q124.232 619.195 130.042 619.195 Z" fill="#000000" fill-rule="nonzero" fill-opacity="1" /><path clip-path="url(#clip890)" d="M150.204 648.501 L155.089 648.501 L155.089 654.38 L150.204 654.38 L150.204 648.501 Z" fill="#000000" fill-rule="nonzero" fill-opacity="1" /><path clip-path="url(#clip890)" d="M166.084 650.445 L173.723 650.445 L173.723 624.08 L165.413 625.746 L165.413 621.487 L173.676 619.82 L178.352 619.82 L178.352 650.445 L185.991 650.445 L185.991 654.38 L166.084 654.38 L166.084 650.445 Z" fill="#000000" fill-rule="nonzero" fill-opacity="1" /><path clip-path="url(#clip890)" d="M205.436 622.899 Q201.824 622.899 199.996 626.464 Q198.19 630.006 198.19 637.135 Q198.19 644.242 199.996 647.806 Q201.824 651.348 205.436 651.348 Q209.07 651.348 210.875 647.806 Q212.704 644.242 212.704 637.135 Q212.704 630.006 210.875 626.464 Q209.07 622.899 205.436 622.899 M205.436 619.195 Q211.246 619.195 214.301 623.802 Q217.38 628.385 217.38 637.135 Q217.38 645.862 214.301 650.468 Q211.246 655.052 205.436 655.052 Q199.625 655.052 196.547 650.468 Q193.491 645.862 193.491 637.135 Q193.491 628.385 196.547 623.802 Q199.625 619.195 205.436 619.195 Z" fill="#000000" fill-rule="nonzero" fill-opacity="1" /><path clip-path="url(#clip890)" d="M131.038 231.357 Q127.427 231.357 125.598 234.922 Q123.792 238.463 123.792 245.593 Q123.792 252.7 125.598 256.264 Q127.427 259.806 131.038 259.806 Q134.672 259.806 136.478 256.264 Q138.306 252.7 138.306 245.593 Q138.306 238.463 136.478 234.922 Q134.672 231.357 131.038 231.357 M131.038 227.653 Q136.848 227.653 139.904 232.26 Q142.982 236.843 142.982 245.593 Q142.982 254.32 139.904 258.926 Q136.848 263.51 131.038 263.51 Q125.228 263.51 122.149 258.926 Q119.093 254.32 119.093 245.593 Q119.093 236.843 122.149 232.26 Q125.228 227.653 131.038 227.653 Z" fill="#000000" fill-rule="nonzero" fill-opacity="1" /><path clip-path="url(#clip890)" d="M151.2 256.959 L156.084 256.959 L156.084 262.838 L151.2 262.838 L151.2 256.959 Z" fill="#000000" fill-rule="nonzero" fill-opacity="1" /><path clip-path="url(#clip890)" d="M167.079 258.903 L174.718 258.903 L174.718 232.538 L166.408 234.204 L166.408 229.945 L174.672 228.278 L179.348 228.278 L179.348 258.903 L186.987 258.903 L186.987 262.838 L167.079 262.838 L167.079 258.903 Z" fill="#000000" fill-rule="nonzero" fill-opacity="1" /><path clip-path="url(#clip890)" d="M196.477 228.278 L214.834 228.278 L214.834 232.214 L200.76 232.214 L200.76 240.686 Q201.778 240.338 202.797 240.176 Q203.815 239.991 204.834 239.991 Q210.621 239.991 214 243.163 Q217.38 246.334 217.38 251.75 Q217.38 257.329 213.908 260.431 Q210.436 263.51 204.116 263.51 Q201.94 263.51 199.672 263.139 Q197.426 262.769 195.019 262.028 L195.019 257.329 Q197.102 258.463 199.324 259.019 Q201.547 259.574 204.024 259.574 Q208.028 259.574 210.366 257.468 Q212.704 255.362 212.704 251.75 Q212.704 248.139 210.366 246.033 Q208.028 243.926 204.024 243.926 Q202.149 243.926 200.274 244.343 Q198.422 244.76 196.477 245.639 L196.477 228.278 Z" fill="#000000" fill-rule="nonzero" fill-opacity="1" /><path clip-path="url(#clip890)" d="M18.5807 920.487 L29.9815 921.807 Q31.0121 921.904 31.3342 922.065 Q31.624 922.226 31.624 922.741 Q31.624 923.128 31.3986 923.353 Q31.1409 923.546 30.8511 923.546 Q30.6901 923.546 30.2714 923.514 Q29.8527 923.482 29.6595 923.482 Q27.6627 923.192 26.149 923.192 Q23.3471 923.192 21.8334 924.03 Q20.2876 924.867 19.579 927.025 Q18.8383 929.183 18.8383 933.24 L18.8383 942.516 Q18.8383 944.641 19.2248 945.157 Q19.6112 945.64 21.4148 946.091 L37.2923 950.052 L37.2923 943.836 Q37.2923 941.517 37.0024 940.133 Q36.7125 938.715 35.9074 937.781 Q35.0701 936.815 33.9428 936.3 Q32.8156 935.753 30.7867 935.205 Q30.1103 935.044 29.8527 934.883 Q29.5951 934.69 29.5951 934.271 Q29.5951 933.949 29.8205 933.724 Q30.0137 933.498 30.3036 933.498 L45.7302 937.266 Q46.5031 937.459 46.793 937.653 Q47.0506 937.846 47.0506 938.232 Q47.0506 938.651 46.8252 938.876 Q46.5997 939.102 46.3421 939.102 Q46.0845 939.102 45.6014 938.909 Q43.508 938.426 42.3808 938.426 Q41.7367 938.426 41.4146 938.49 Q41.0925 938.522 40.6417 938.812 Q40.1586 939.07 39.9331 939.649 Q39.7077 940.229 39.5467 941.324 Q39.3534 942.419 39.3534 944.062 L39.3534 950.567 L57.3565 955.076 Q58.5481 955.398 58.8702 955.398 Q59.2244 955.398 59.3533 955.237 Q59.4499 955.044 59.5143 954.529 Q59.6109 953.949 59.6109 953.079 L59.6109 943.45 Q59.6109 941.324 59.4177 939.617 Q59.2244 937.91 58.7414 936.493 Q58.2583 935.044 57.7108 933.949 Q57.1633 932.854 56.1649 931.823 Q55.1343 930.793 54.2325 930.084 Q53.2986 929.344 51.7205 928.474 Q50.1424 927.604 48.8542 926.993 Q47.5337 926.381 45.4081 925.447 Q44.6352 925.189 44.6352 924.577 Q44.6352 924.223 44.8284 924.03 Q44.9895 923.836 45.1505 923.804 L45.3437 923.804 Q45.9556 923.997 46.2777 924.126 L60.5127 930.181 Q61.3178 930.535 61.4789 930.825 Q61.6399 931.115 61.6399 932.242 L61.6399 966.477 Q61.6399 967.25 61.6077 967.572 Q61.5755 967.862 61.4144 968.087 Q61.2212 968.313 60.8347 968.313 Q60.2228 968.313 59.9652 968.055 Q59.6753 967.797 59.6431 967.507 Q59.6109 967.218 59.6109 966.477 Q59.6109 964.867 59.5143 963.9 Q59.4177 962.934 59.2889 962.322 Q59.1278 961.678 58.6769 961.356 Q58.2261 961.002 57.8396 960.841 Q57.4209 960.68 56.4869 960.454 L21.608 951.759 Q20.4164 951.437 20.0299 951.437 Q19.6112 951.437 19.3536 951.727 Q19.0959 951.984 18.9993 952.693 Q18.8705 953.401 18.8705 953.981 Q18.8383 954.529 18.8383 955.72 Q18.8383 956.493 18.8061 956.815 Q18.7739 957.105 18.6129 957.33 Q18.4518 957.556 18.0976 957.556 Q17.1958 957.556 17.0026 957.169 Q16.7771 956.751 16.7771 955.591 L16.7771 922.29 Q16.7771 920.97 17.067 920.68 Q17.3246 920.358 18.5807 920.487 Z" fill="#000000" fill-rule="nonzero" fill-opacity="1" /><path clip-path="url(#clip890)" d="M49.6322 882.384 Q50.0606 882.384 50.4213 882.475 L58.447 883.737 Q59.0557 883.805 59.2811 883.94 Q59.5065 884.053 59.5065 884.413 Q59.5065 884.977 58.9204 884.977 Q58.5822 884.977 58.0412 884.842 Q55.4937 884.458 54.3439 884.458 Q53.5774 884.458 53.0138 884.616 Q52.4277 884.751 52.0219 884.977 Q51.6161 885.18 51.3456 885.653 Q51.0751 886.127 50.9172 886.578 Q50.7594 887.028 50.6918 887.84 Q50.6016 888.652 50.5791 889.35 Q50.5565 890.049 50.5565 891.199 Q50.5565 893.701 50.6467 894.107 Q50.7594 894.536 51.0976 894.761 Q51.4132 894.964 52.3601 895.189 L76.8655 901.321 L77.8349 901.502 Q78.376 901.502 78.5563 901.164 Q78.7367 900.825 78.8494 899.788 Q78.9621 898.3 78.9621 896.835 Q78.9621 896.79 78.9621 896.7 Q78.9621 896.204 78.9847 896.001 Q78.9847 895.798 79.0297 895.595 Q79.0748 895.392 79.1875 895.347 Q79.2777 895.28 79.4581 895.28 Q79.8864 895.28 80.1119 895.46 Q80.3148 895.64 80.3598 895.821 Q80.3824 895.978 80.3824 896.294 Q80.3824 896.925 80.3373 898.278 Q80.2922 899.631 80.2922 900.307 L80.2471 904.139 L80.2922 908.062 Q80.2922 908.671 80.3373 909.956 Q80.3824 911.241 80.3824 911.849 Q80.3824 912.639 79.8188 912.639 Q79.1875 912.639 79.0748 912.345 Q78.9621 912.03 78.9621 910.7 Q78.9621 908.829 78.8719 907.814 Q78.7818 906.8 78.4661 906.259 Q78.1505 905.695 77.8349 905.537 Q77.4967 905.379 76.7302 905.199 L52.0895 898.999 Q51.5485 898.819 51.1201 898.819 Q50.8947 898.819 50.8045 898.887 Q50.7143 898.932 50.6467 899.225 Q50.5565 899.518 50.5565 900.127 L50.5565 901.93 Q50.5565 903.779 50.6467 904.928 Q50.7143 906.056 51.0525 907.138 Q51.3907 908.197 51.8641 908.829 Q52.3375 909.437 53.3069 910.114 Q54.2763 910.79 55.4486 911.286 Q56.6209 911.759 58.5372 912.436 Q59.1684 912.661 59.3487 912.796 Q59.5065 912.909 59.5065 913.225 Q59.5065 913.45 59.3713 913.63 Q59.2135 913.788 59.0106 913.788 Q58.2666 913.563 58.1764 913.518 L50.038 910.745 Q49.3842 910.519 49.2715 910.316 Q49.1363 910.091 49.1363 909.257 L49.1363 883.647 Q49.1363 883.241 49.1363 883.106 Q49.1363 882.97 49.1813 882.745 Q49.2264 882.52 49.3392 882.452 Q49.4519 882.384 49.6322 882.384 Z" fill="#000000" fill-rule="nonzero" fill-opacity="1" /><path clip-path="url(#clip890)" d="M79.6384 886.429 Q78.8945 887.083 77.9251 887.083 Q76.9557 887.083 76.2343 886.452 Q75.4903 885.798 75.4903 884.626 Q75.4903 883.25 76.8204 882.461 Q78.128 881.672 80.3373 881.672 Q82.727 881.672 84.9363 882.642 Q87.1682 883.611 88.2277 884.558 Q89.2873 885.505 89.2873 885.888 Q89.2873 886.339 88.7913 886.339 Q88.611 886.339 88.2728 886.023 Q84.7109 882.709 80.3373 882.687 Q79.6384 882.687 79.6384 882.777 L79.7286 882.89 Q80.3824 883.679 80.3824 884.626 Q80.3824 885.775 79.6384 886.429 Z" fill="#000000" fill-rule="nonzero" fill-opacity="1" /><path clip-path="url(#clip890)" d="M49.3617 828.235 Q50.0155 828.235 50.1507 828.528 Q50.286 828.799 50.286 829.791 Q50.286 831.482 50.5115 832.248 Q50.7143 832.992 51.0751 833.218 Q51.4132 833.42 52.4052 833.668 L77.3389 839.913 Q77.3615 839.913 77.6771 839.981 Q77.9702 840.048 78.128 840.048 Q78.421 840.048 78.6014 839.868 Q78.7818 839.665 78.8719 839.169 Q78.9396 838.673 78.9621 838.29 Q78.9621 837.884 78.9621 837.05 Q78.9621 836.013 79.1425 835.855 Q79.2552 835.765 79.4581 835.765 Q79.8864 835.765 80.1119 835.945 Q80.3148 836.103 80.3598 836.261 Q80.3824 836.396 80.3824 836.667 Q80.3824 837.14 80.3373 838.155 Q80.2922 839.169 80.2922 839.688 L80.2471 842.641 L80.3824 848.502 Q80.3824 849.134 79.8639 849.134 Q79.413 849.134 79.2101 848.976 Q79.0072 848.818 78.9847 848.66 Q78.9621 848.48 78.9621 848.029 Q78.9621 845.707 78.7367 844.94 Q78.4887 844.151 77.4291 843.836 L64.6917 840.657 L64.6917 854.725 L77.3389 857.881 Q77.3615 857.881 77.6771 857.948 Q77.9702 858.016 78.128 858.016 Q78.421 858.016 78.6014 857.836 Q78.7818 857.633 78.8719 857.137 Q78.9396 856.641 78.9621 856.258 Q78.9621 855.852 78.9621 855.018 Q78.9621 853.981 79.1425 853.8 Q79.2552 853.71 79.4581 853.71 Q79.7737 853.71 79.9991 853.8 Q80.202 853.868 80.2697 854.048 Q80.3373 854.206 80.3598 854.319 Q80.3824 854.432 80.3824 854.634 Q80.3824 855.108 80.3373 856.122 Q80.2922 857.114 80.2922 857.633 L80.2471 860.586 L80.3824 866.448 Q80.3824 867.101 79.8639 867.101 Q79.413 867.101 79.2326 866.943 Q79.0297 866.786 79.0072 866.583 Q78.9621 866.38 78.9621 865.861 Q78.9621 864.734 78.8945 864.058 Q78.8268 863.382 78.7367 862.953 Q78.6239 862.502 78.3083 862.277 Q77.9927 862.029 77.7222 861.916 Q77.4291 861.803 76.7753 861.646 L51.9768 855.469 Q51.2329 855.288 51.1201 855.288 Q50.6918 855.288 50.5791 855.559 Q50.4438 855.807 50.3762 856.528 L50.286 858.287 Q50.286 858.828 50.2635 859.053 Q50.2409 859.256 50.1282 859.414 Q50.0155 859.572 49.7675 859.572 Q49.4519 859.572 49.249 859.504 Q49.0235 859.414 48.9559 859.256 Q48.8883 859.098 48.8657 858.985 Q48.8432 858.873 48.8432 858.692 L48.9785 852.741 L48.8432 846.834 Q48.8432 846.18 49.3617 846.18 Q50.0155 846.18 50.1507 846.473 Q50.286 846.767 50.286 847.758 Q50.286 849.404 50.5115 850.171 Q50.7143 850.937 51.0751 851.185 Q51.4358 851.411 52.4052 851.636 L63.2489 854.364 L63.2489 840.274 L51.9768 837.501 Q51.1652 837.321 51.1201 837.321 Q50.6918 837.321 50.5791 837.591 Q50.4438 837.839 50.3762 838.56 L50.286 840.319 Q50.286 840.86 50.2635 841.085 Q50.2409 841.288 50.1282 841.469 Q50.0155 841.626 49.7675 841.626 Q49.4519 841.626 49.249 841.559 Q49.0235 841.469 48.9559 841.311 Q48.8883 841.153 48.8657 841.04 Q48.8432 840.928 48.8432 840.747 L48.9785 834.796 L48.8432 828.866 Q48.8432 828.235 49.3617 828.235 Z" fill="#000000" fill-rule="nonzero" fill-opacity="1" /><path clip-path="url(#clip890)" d="M80.3824 826.348 Q79.5483 826.348 79.3003 826.28 Q79.0523 826.19 78.669 825.829 L68.7947 816.969 Q63.339 812.122 58.5822 812.122 Q55.4937 812.122 53.2844 813.746 Q51.0751 815.346 51.0751 818.3 Q51.0751 820.328 52.315 822.042 Q53.5549 823.755 55.7642 824.544 Q55.7191 824.409 55.7191 823.936 Q55.7191 822.786 56.4405 822.155 Q57.162 821.501 58.1314 821.501 Q59.3713 821.501 59.98 822.312 Q60.5661 823.101 60.5661 823.89 Q60.5661 824.206 60.4985 824.634 Q60.4309 825.04 59.7996 825.694 Q59.1458 826.348 57.9961 826.348 Q54.7723 826.348 52.2023 823.913 Q49.6322 821.456 49.6322 817.713 Q49.6322 813.475 52.1572 810.702 Q54.6596 807.907 58.5822 807.907 Q59.9574 807.907 61.2199 808.335 Q62.4598 808.741 63.4292 809.304 Q64.3986 809.845 65.9542 811.333 Q67.5097 812.821 68.6144 814.016 Q69.719 815.211 72.0636 817.894 L76.8204 822.786 L76.8204 814.467 Q76.8204 810.409 76.4597 810.093 Q75.8059 809.643 72.3567 809.079 L72.3567 807.907 L80.3824 809.214 L80.3824 826.348 Z" fill="#000000" fill-rule="nonzero" fill-opacity="1" /><path clip-path="url(#clip890)" d="M77.1953 796.443 Q76.8733 796.443 76.1647 796.185 L13.943 772.9 Q13.8786 772.9 13.5243 772.739 Q13.1701 772.578 12.9446 772.482 Q12.687 772.385 12.4937 772.192 Q12.3005 771.966 12.3005 771.709 Q12.3005 771.065 13.1057 771.065 Q13.1701 771.065 13.943 771.258 L76.2291 794.607 Q77.3563 794.994 77.6784 795.251 Q78.0005 795.477 78.0005 795.863 Q78.0005 796.443 77.1953 796.443 Z" fill="#000000" fill-rule="nonzero" fill-opacity="1" /><path clip-path="url(#clip890)" d="M18.5807 715.953 L29.9815 717.274 Q31.0121 717.37 31.3342 717.531 Q31.624 717.692 31.624 718.208 Q31.624 718.594 31.3986 718.819 Q31.1409 719.013 30.8511 719.013 Q30.6901 719.013 30.2714 718.98 Q29.8527 718.948 29.6595 718.948 Q27.6627 718.658 26.149 718.658 Q23.3471 718.658 21.8334 719.496 Q20.2876 720.333 19.579 722.491 Q18.8383 724.649 18.8383 728.707 L18.8383 737.982 Q18.8383 740.108 19.2248 740.623 Q19.6112 741.106 21.4148 741.557 L37.2923 745.518 L37.2923 739.302 Q37.2923 736.984 37.0024 735.599 Q36.7125 734.182 35.9074 733.248 Q35.0701 732.282 33.9428 731.766 Q32.8156 731.219 30.7867 730.671 Q30.1103 730.51 29.8527 730.349 Q29.5951 730.156 29.5951 729.737 Q29.5951 729.415 29.8205 729.19 Q30.0137 728.964 30.3036 728.964 L45.7302 732.732 Q46.5031 732.926 46.793 733.119 Q47.0506 733.312 47.0506 733.699 Q47.0506 734.117 46.8252 734.343 Q46.5997 734.568 46.3421 734.568 Q46.0845 734.568 45.6014 734.375 Q43.508 733.892 42.3808 733.892 Q41.7367 733.892 41.4146 733.956 Q41.0925 733.988 40.6417 734.278 Q40.1586 734.536 39.9331 735.116 Q39.7077 735.695 39.5467 736.79 Q39.3534 737.885 39.3534 739.528 L39.3534 746.033 L57.3565 750.542 Q58.5481 750.864 58.8702 750.864 Q59.2244 750.864 59.3533 750.703 Q59.4499 750.51 59.5143 749.995 Q59.6109 749.415 59.6109 748.545 L59.6109 738.916 Q59.6109 736.79 59.4177 735.083 Q59.2244 733.377 58.7414 731.959 Q58.2583 730.51 57.7108 729.415 Q57.1633 728.32 56.1649 727.29 Q55.1343 726.259 54.2325 725.55 Q53.2986 724.81 51.7205 723.94 Q50.1424 723.071 48.8542 722.459 Q47.5337 721.847 45.4081 720.913 Q44.6352 720.655 44.6352 720.043 Q44.6352 719.689 44.8284 719.496 Q44.9895 719.303 45.1505 719.27 L45.3437 719.27 Q45.9556 719.464 46.2777 719.592 L60.5127 725.647 Q61.3178 726.001 61.4789 726.291 Q61.6399 726.581 61.6399 727.708 L61.6399 761.943 Q61.6399 762.716 61.6077 763.038 Q61.5755 763.328 61.4144 763.553 Q61.2212 763.779 60.8347 763.779 Q60.2228 763.779 59.9652 763.521 Q59.6753 763.264 59.6431 762.974 Q59.6109 762.684 59.6109 761.943 Q59.6109 760.333 59.5143 759.367 Q59.4177 758.4 59.2889 757.789 Q59.1278 757.144 58.6769 756.822 Q58.2261 756.468 57.8396 756.307 Q57.4209 756.146 56.4869 755.921 L21.608 747.225 Q20.4164 746.903 20.0299 746.903 Q19.6112 746.903 19.3536 747.193 Q19.0959 747.45 18.9993 748.159 Q18.8705 748.868 18.8705 749.447 Q18.8383 749.995 18.8383 751.186 Q18.8383 751.959 18.8061 752.281 Q18.7739 752.571 18.6129 752.797 Q18.4518 753.022 18.0976 753.022 Q17.1958 753.022 17.0026 752.636 Q16.7771 752.217 16.7771 751.058 L16.7771 717.757 Q16.7771 716.436 17.067 716.146 Q17.3246 715.824 18.5807 715.953 Z" fill="#000000" fill-rule="nonzero" fill-opacity="1" /><path clip-path="url(#clip890)" d="M50.236 677.851 Q50.6643 677.851 51.025 677.941 L59.0507 679.203 Q59.6594 679.271 59.8849 679.406 Q60.1103 679.519 60.1103 679.88 Q60.1103 680.443 59.5242 680.443 Q59.186 680.443 58.6449 680.308 Q56.0974 679.925 54.9477 679.925 Q54.1812 679.925 53.6176 680.082 Q53.0314 680.218 52.6257 680.443 Q52.2199 680.646 51.9493 681.119 Q51.6788 681.593 51.521 682.044 Q51.3632 682.495 51.2956 683.306 Q51.2054 684.118 51.1828 684.817 Q51.1603 685.516 51.1603 686.665 Q51.1603 689.168 51.2505 689.573 Q51.3632 690.002 51.7013 690.227 Q52.017 690.43 52.9638 690.656 L77.4693 696.788 L78.4387 696.968 Q78.9797 696.968 79.1601 696.63 Q79.3404 696.292 79.4531 695.255 Q79.5659 693.767 79.5659 692.301 Q79.5659 692.256 79.5659 692.166 Q79.5659 691.67 79.5884 691.467 Q79.5884 691.264 79.6335 691.061 Q79.6786 690.858 79.7913 690.813 Q79.8815 690.746 80.0618 690.746 Q80.4902 690.746 80.7156 690.926 Q80.9185 691.106 80.9636 691.287 Q80.9861 691.445 80.9861 691.76 Q80.9861 692.391 80.941 693.744 Q80.896 695.097 80.896 695.773 L80.8509 699.606 L80.896 703.528 Q80.896 704.137 80.941 705.422 Q80.9861 706.707 80.9861 707.316 Q80.9861 708.105 80.4225 708.105 Q79.7913 708.105 79.6786 707.812 Q79.5659 707.496 79.5659 706.166 Q79.5659 704.295 79.4757 703.28 Q79.3855 702.266 79.0699 701.725 Q78.7543 701.161 78.4387 701.003 Q78.1005 700.846 77.334 700.665 L52.6933 694.466 Q52.1522 694.285 51.7239 694.285 Q51.4985 694.285 51.4083 694.353 Q51.3181 694.398 51.2505 694.691 Q51.1603 694.984 51.1603 695.593 L51.1603 697.396 Q51.1603 699.245 51.2505 700.395 Q51.3181 701.522 51.6563 702.604 Q51.9944 703.664 52.4678 704.295 Q52.9413 704.903 53.9107 705.58 Q54.8801 706.256 56.0524 706.752 Q57.2247 707.226 59.1409 707.902 Q59.7721 708.127 59.9525 708.263 Q60.1103 708.375 60.1103 708.691 Q60.1103 708.916 59.975 709.097 Q59.8172 709.254 59.6143 709.254 Q58.8704 709.029 58.7802 708.984 L50.6418 706.211 Q49.988 705.986 49.8753 705.783 Q49.74 705.557 49.74 704.723 L49.74 679.113 Q49.74 678.707 49.74 678.572 Q49.74 678.437 49.7851 678.211 Q49.8302 677.986 49.9429 677.918 Q50.0556 677.851 50.236 677.851 Z" fill="#000000" fill-rule="nonzero" fill-opacity="1" /><path clip-path="url(#clip890)" d="M80.2422 681.895 Q79.4982 682.549 78.5288 682.549 Q77.5594 682.549 76.838 681.918 Q76.0941 681.264 76.0941 680.092 Q76.0941 678.717 77.4242 677.928 Q78.7317 677.138 80.941 677.138 Q83.3307 677.138 85.54 678.108 Q87.7719 679.077 88.8315 680.024 Q89.8911 680.971 89.8911 681.354 Q89.8911 681.805 89.3951 681.805 Q89.2147 681.805 88.8766 681.489 Q85.3146 678.175 80.941 678.153 Q80.2422 678.153 80.2422 678.243 L80.3324 678.356 Q80.9861 679.145 80.9861 680.092 Q80.9861 681.241 80.2422 681.895 Z" fill="#000000" fill-rule="nonzero" fill-opacity="1" /><path clip-path="url(#clip890)" d="M49.9655 623.701 Q50.8898 623.701 50.8898 624.491 Q50.9799 627.038 51.8366 628.075 Q52.6707 629.09 54.2939 629.473 L80.0167 635.92 Q80.8283 636.146 80.9185 636.281 Q80.9861 636.416 80.9861 636.664 Q80.9861 636.98 80.8283 637.16 Q80.6705 637.318 80.1069 637.544 L52.9187 649.041 Q52.7384 649.131 52.4904 649.244 Q52.2424 649.357 52.0846 649.447 L76.4548 655.556 Q77.1536 655.737 77.5143 655.737 Q78.3936 655.737 78.9572 655.128 Q79.4982 654.497 79.5659 652.693 Q79.5659 651.769 80.0618 651.769 Q80.9861 651.769 80.9861 652.603 Q80.9861 653.369 80.9185 654.97 Q80.8509 656.571 80.8509 657.36 Q80.8509 658.126 80.9185 659.682 Q80.9861 661.237 80.9861 661.981 Q80.9861 662.567 80.4676 662.567 Q80.0618 662.567 79.8589 662.41 Q79.6335 662.252 79.6109 662.117 Q79.5659 661.981 79.5659 661.778 Q79.5208 660.426 79.2502 659.501 Q78.9797 658.577 78.4612 658.059 Q77.9427 657.518 77.4242 657.27 Q76.8831 656.999 76.0941 656.796 L51.2956 650.619 Q50.8898 650.619 50.8898 653.753 Q50.8898 654.294 50.8672 654.519 Q50.8447 654.722 50.732 654.88 Q50.6192 655.038 50.3712 655.038 Q49.74 655.038 49.6047 654.767 Q49.4469 654.497 49.4469 653.708 L49.4469 647.508 Q49.4469 646.719 49.5822 646.516 Q49.6949 646.313 50.3262 646.043 L74.4258 635.83 L53.8881 630.668 Q53.4823 630.532 52.9187 630.532 Q52.017 630.532 51.4759 631.209 Q50.9123 631.862 50.8898 633.666 Q50.8898 634.5 50.3712 634.5 Q49.9429 634.5 49.74 634.342 Q49.5146 634.162 49.492 634.027 Q49.4469 633.869 49.4469 633.666 Q49.4469 632.899 49.5146 631.321 Q49.5822 629.743 49.5822 628.954 Q49.5822 628.188 49.5146 626.632 Q49.4469 625.054 49.4469 624.288 Q49.4469 624.017 49.5822 623.882 Q49.6949 623.724 49.8302 623.701 L49.9655 623.701 Z" fill="#000000" fill-rule="nonzero" fill-opacity="1" /><path clip-path="url(#clip890)" d="M48.9059 588.527 L60.6739 591.436 Q61.4179 591.639 61.508 591.774 Q61.5982 591.887 61.5982 592.247 Q61.5982 592.946 61.1248 592.946 Q61.0797 592.946 60.4935 592.878 Q59.8849 592.811 58.7802 592.811 Q54.6997 592.811 52.2875 594.795 Q49.8753 596.756 49.8753 600.25 Q49.8753 603.519 51.5886 606.653 Q53.302 609.787 55.8269 611.793 Q57.901 613.484 60.4259 614.656 Q62.9509 615.806 65.1602 616.279 Q67.347 616.753 68.6771 616.933 Q70.0072 617.091 70.8638 617.091 Q73.3888 617.091 75.3501 616.279 Q77.2889 615.468 78.3936 614.115 Q79.4982 612.74 80.0393 611.162 Q80.5803 609.561 80.5803 607.825 Q80.5803 607.171 80.4902 606.382 Q80.4 605.593 80.0618 604.376 Q79.7237 603.136 79.1601 602.122 Q78.5965 601.085 77.5143 600.183 Q76.4322 599.258 74.9894 598.898 Q71.3147 597.928 70.7737 597.928 Q70.3228 597.928 70.165 598.199 Q70.0072 598.469 69.8944 599.371 L69.8043 601.806 Q69.8043 601.851 69.8043 601.919 Q69.8043 602.347 69.8043 602.527 Q69.7817 602.708 69.7366 602.911 Q69.6915 603.091 69.6014 603.159 Q69.4886 603.204 69.3083 603.204 Q68.88 603.204 68.6771 603.023 Q68.4516 602.843 68.4291 602.685 Q68.384 602.527 68.384 602.234 L68.5192 595.764 Q68.5192 595.246 68.4516 593.352 Q68.384 591.458 68.384 590.917 Q68.384 590.308 68.88 590.308 Q69.8043 590.308 69.8043 591.052 Q69.8268 591.796 69.8493 592.18 Q69.8493 592.563 69.9621 592.946 Q70.0748 593.307 70.165 593.442 Q70.2326 593.577 70.5708 593.758 Q70.8864 593.938 71.1569 594.006 Q71.4049 594.073 72.0361 594.231 Q72.4419 594.321 73.2084 594.547 Q73.9749 594.75 74.3807 594.84 L77.9427 595.719 Q80.5803 596.328 80.7607 596.508 Q80.941 596.598 80.941 596.824 Q80.941 597.162 79.9491 597.883 Q78.9572 598.582 78.0779 598.898 Q78.6866 599.461 79.0473 599.822 Q79.3855 600.183 79.9266 601.017 Q80.4676 601.828 80.896 602.911 Q82.0006 605.548 82.0006 608.682 Q82.0006 614.273 78.4612 617.79 Q74.8992 621.307 69.3534 621.307 Q65.4307 621.307 61.5757 619.503 Q57.7206 617.7 54.8575 614.836 Q51.9944 611.973 50.2134 608.186 Q48.4325 604.399 48.4325 600.611 Q48.4325 599.168 48.8157 597.883 Q49.199 596.598 49.6724 595.832 Q50.1458 595.043 50.8447 594.344 Q51.521 593.645 51.8366 593.42 Q52.1522 593.172 52.5355 592.946 L48.9961 589.722 Q48.4325 589.159 48.4325 589.023 Q48.4325 588.753 48.5903 588.64 Q48.7481 588.527 48.9059 588.527 Z" fill="#000000" fill-rule="nonzero" fill-opacity="1" /><path clip-path="url(#clip890)" d="M310.779 12.096 L349.019 12.096 L349.019 18.9825 L318.962 18.9825 L318.962 36.8875 L347.763 36.8875 L347.763 43.7741 L318.962 43.7741 L318.962 65.6895 L349.748 65.6895 L349.748 72.576 L310.779 72.576 L310.779 12.096 Z" fill="#000000" fill-rule="nonzero" fill-opacity="1" /><path clip-path="url(#clip890)" d="M398.197 35.9153 Q400.992 30.8922 404.881 28.5022 Q408.77 26.1121 414.036 26.1121 Q421.125 26.1121 424.974 31.0947 Q428.822 36.0368 428.822 45.1919 L428.822 72.576 L421.328 72.576 L421.328 45.4349 Q421.328 38.913 419.019 35.7533 Q416.71 32.5936 411.97 32.5936 Q406.177 32.5936 402.815 36.4419 Q399.453 40.2903 399.453 46.9338 L399.453 72.576 L391.959 72.576 L391.959 45.4349 Q391.959 38.8725 389.65 35.7533 Q387.341 32.5936 382.52 32.5936 Q376.808 32.5936 373.446 36.4824 Q370.084 40.3308 370.084 46.9338 L370.084 72.576 L362.59 72.576 L362.59 27.2059 L370.084 27.2059 L370.084 34.2544 Q372.636 30.082 376.201 28.0971 Q379.766 26.1121 384.667 26.1121 Q389.609 26.1121 393.053 28.6237 Q396.536 31.1352 398.197 35.9153 Z" fill="#000000" fill-rule="nonzero" fill-opacity="1" /><path clip-path="url(#clip890)" d="M443.689 27.2059 L451.143 27.2059 L451.143 72.576 L443.689 72.576 L443.689 27.2059 M443.689 9.54393 L451.143 9.54393 L451.143 18.9825 L443.689 18.9825 L443.689 9.54393 Z" fill="#000000" fill-rule="nonzero" fill-opacity="1" /><path clip-path="url(#clip890)" d="M495.662 28.5427 L495.662 35.5912 Q492.502 33.9709 489.099 33.1607 Q485.697 32.3505 482.051 32.3505 Q476.501 32.3505 473.706 34.0519 Q470.951 35.7533 470.951 39.156 Q470.951 41.7486 472.936 43.2475 Q474.921 44.7058 480.917 46.0426 L483.469 46.6097 Q491.409 48.3111 494.73 51.4303 Q498.092 54.509 498.092 60.0587 Q498.092 66.3781 493.069 70.0644 Q488.087 73.7508 479.337 73.7508 Q475.691 73.7508 471.721 73.0216 Q467.792 72.3329 463.417 70.9151 L463.417 63.2184 Q467.549 65.3654 471.559 66.4591 Q475.569 67.5124 479.499 67.5124 Q484.765 67.5124 487.601 65.73 Q490.436 63.9071 490.436 60.6258 Q490.436 57.5877 488.37 55.9673 Q486.345 54.3469 479.418 52.8481 L476.825 52.2405 Q469.898 50.7821 466.82 47.7845 Q463.741 44.7463 463.741 39.4801 Q463.741 33.0797 468.278 29.5959 Q472.815 26.1121 481.16 26.1121 Q485.292 26.1121 488.937 26.7198 Q492.583 27.3274 495.662 28.5427 Z" fill="#000000" fill-rule="nonzero" fill-opacity="1" /><path clip-path="url(#clip890)" d="M538.885 28.5427 L538.885 35.5912 Q535.725 33.9709 532.323 33.1607 Q528.92 32.3505 525.274 32.3505 Q519.724 32.3505 516.929 34.0519 Q514.175 35.7533 514.175 39.156 Q514.175 41.7486 516.16 43.2475 Q518.144 44.7058 524.14 46.0426 L526.692 46.6097 Q534.632 48.3111 537.953 51.4303 Q541.316 54.509 541.316 60.0587 Q541.316 66.3781 536.293 70.0644 Q531.31 73.7508 522.56 73.7508 Q518.914 73.7508 514.944 73.0216 Q511.015 72.3329 506.64 70.9151 L506.64 63.2184 Q510.772 65.3654 514.782 66.4591 Q518.793 67.5124 522.722 67.5124 Q527.988 67.5124 530.824 65.73 Q533.659 63.9071 533.659 60.6258 Q533.659 57.5877 531.593 55.9673 Q529.568 54.3469 522.641 52.8481 L520.048 52.2405 Q513.121 50.7821 510.043 47.7845 Q506.964 44.7463 506.964 39.4801 Q506.964 33.0797 511.501 29.5959 Q516.038 26.1121 524.383 26.1121 Q528.515 26.1121 532.161 26.7198 Q535.806 27.3274 538.885 28.5427 Z" fill="#000000" fill-rule="nonzero" fill-opacity="1" /><path clip-path="url(#clip890)" d="M553.185 27.2059 L560.638 27.2059 L560.638 72.576 L553.185 72.576 L553.185 27.2059 M553.185 9.54393 L560.638 9.54393 L560.638 18.9825 L553.185 18.9825 L553.185 9.54393 Z" fill="#000000" fill-rule="nonzero" fill-opacity="1" /><path clip-path="url(#clip890)" d="M593.815 32.4315 Q587.82 32.4315 584.336 37.1306 Q580.852 41.7891 580.852 49.9314 Q580.852 58.0738 584.296 62.7728 Q587.78 67.4314 593.815 67.4314 Q599.77 67.4314 603.254 62.7323 Q606.738 58.0333 606.738 49.9314 Q606.738 41.8701 603.254 37.1711 Q599.77 32.4315 593.815 32.4315 M593.815 26.1121 Q603.538 26.1121 609.087 32.4315 Q614.637 38.7509 614.637 49.9314 Q614.637 61.0714 609.087 67.4314 Q603.538 73.7508 593.815 73.7508 Q584.053 73.7508 578.503 67.4314 Q572.994 61.0714 572.994 49.9314 Q572.994 38.7509 578.503 32.4315 Q584.053 26.1121 593.815 26.1121 Z" fill="#000000" fill-rule="nonzero" fill-opacity="1" /><path clip-path="url(#clip890)" d="M664.706 45.1919 L664.706 72.576 L657.253 72.576 L657.253 45.4349 Q657.253 38.994 654.741 35.7938 Q652.229 32.5936 647.206 32.5936 Q641.17 32.5936 637.687 36.4419 Q634.203 40.2903 634.203 46.9338 L634.203 72.576 L626.709 72.576 L626.709 27.2059 L634.203 27.2059 L634.203 34.2544 Q636.876 30.163 640.482 28.1376 Q644.128 26.1121 648.867 26.1121 Q656.685 26.1121 660.696 30.9732 Q664.706 35.7938 664.706 45.1919 Z" fill="#000000" fill-rule="nonzero" fill-opacity="1" /><path clip-path="url(#clip890)" d="M708.496 28.5427 L708.496 35.5912 Q705.337 33.9709 701.934 33.1607 Q698.531 32.3505 694.885 32.3505 Q689.336 32.3505 686.541 34.0519 Q683.786 35.7533 683.786 39.156 Q683.786 41.7486 685.771 43.2475 Q687.756 44.7058 693.751 46.0426 L696.303 46.6097 Q704.243 48.3111 707.565 51.4303 Q710.927 54.509 710.927 60.0587 Q710.927 66.3781 705.904 70.0644 Q700.921 73.7508 692.171 73.7508 Q688.526 73.7508 684.556 73.0216 Q680.626 72.3329 676.251 70.9151 L676.251 63.2184 Q680.383 65.3654 684.394 66.4591 Q688.404 67.5124 692.333 67.5124 Q697.6 67.5124 700.435 65.73 Q703.271 63.9071 703.271 60.6258 Q703.271 57.5877 701.205 55.9673 Q699.179 54.3469 692.252 52.8481 L689.66 52.2405 Q682.733 50.7821 679.654 47.7845 Q676.575 44.7463 676.575 39.4801 Q676.575 33.0797 681.112 29.5959 Q685.649 26.1121 693.994 26.1121 Q698.126 26.1121 701.772 26.7198 Q705.418 27.3274 708.496 28.5427 Z" fill="#000000" fill-rule="nonzero" fill-opacity="1" /><path clip-path="url(#clip890)" d="M772.136 9.54393 L772.136 15.7418 L765.007 15.7418 Q760.996 15.7418 759.416 17.3622 Q757.877 18.9825 757.877 23.1955 L757.877 27.2059 L770.151 27.2059 L770.151 32.9987 L757.877 32.9987 L757.877 72.576 L750.383 72.576 L750.383 32.9987 L743.253 32.9987 L743.253 27.2059 L750.383 27.2059 L750.383 24.0462 Q750.383 16.471 753.907 13.0277 Q757.431 9.54393 765.088 9.54393 L772.136 9.54393 Z" fill="#000000" fill-rule="nonzero" fill-opacity="1" /><path clip-path="url(#clip890)" d="M804.665 34.1734 Q803.409 33.4443 801.91 33.1202 Q800.452 32.7556 798.67 32.7556 Q792.35 32.7556 788.947 36.8875 Q785.585 40.9789 785.585 48.6757 L785.585 72.576 L778.091 72.576 L778.091 27.2059 L785.585 27.2059 L785.585 34.2544 Q787.935 30.1225 791.702 28.1376 Q795.469 26.1121 800.857 26.1121 Q801.627 26.1121 802.558 26.2337 Q803.49 26.3147 804.624 26.5172 L804.665 34.1734 Z" fill="#000000" fill-rule="nonzero" fill-opacity="1" /><path clip-path="url(#clip890)" d="M828.241 32.4315 Q822.246 32.4315 818.762 37.1306 Q815.278 41.7891 815.278 49.9314 Q815.278 58.0738 818.722 62.7728 Q822.205 67.4314 828.241 67.4314 Q834.196 67.4314 837.68 62.7323 Q841.164 58.0333 841.164 49.9314 Q841.164 41.8701 837.68 37.1711 Q834.196 32.4315 828.241 32.4315 M828.241 26.1121 Q837.963 26.1121 843.513 32.4315 Q849.063 38.7509 849.063 49.9314 Q849.063 61.0714 843.513 67.4314 Q837.963 73.7508 828.241 73.7508 Q818.479 73.7508 812.929 67.4314 Q807.42 61.0714 807.42 49.9314 Q807.42 38.7509 812.929 32.4315 Q818.479 26.1121 828.241 26.1121 Z" fill="#000000" fill-rule="nonzero" fill-opacity="1" /><path clip-path="url(#clip890)" d="M896.742 35.9153 Q899.537 30.8922 903.426 28.5022 Q907.315 26.1121 912.581 26.1121 Q919.67 26.1121 923.518 31.0947 Q927.367 36.0368 927.367 45.1919 L927.367 72.576 L919.873 72.576 L919.873 45.4349 Q919.873 38.913 917.564 35.7533 Q915.255 32.5936 910.515 32.5936 Q904.722 32.5936 901.36 36.4419 Q897.998 40.2903 897.998 46.9338 L897.998 72.576 L890.504 72.576 L890.504 45.4349 Q890.504 38.8725 888.195 35.7533 Q885.886 32.5936 881.065 32.5936 Q875.353 32.5936 871.991 36.4824 Q868.629 40.3308 868.629 46.9338 L868.629 72.576 L861.135 72.576 L861.135 27.2059 L868.629 27.2059 L868.629 34.2544 Q871.181 30.082 874.746 28.0971 Q878.31 26.1121 883.212 26.1121 Q888.154 26.1121 891.597 28.6237 Q895.081 31.1352 896.742 35.9153 Z" fill="#000000" fill-rule="nonzero" fill-opacity="1" /><path clip-path="url(#clip890)" d="M1006.32 45.1919 L1006.32 72.576 L998.865 72.576 L998.865 45.4349 Q998.865 38.994 996.354 35.7938 Q993.842 32.5936 988.819 32.5936 Q982.783 32.5936 979.299 36.4419 Q975.816 40.2903 975.816 46.9338 L975.816 72.576 L968.321 72.576 L968.321 9.54393 L975.816 9.54393 L975.816 34.2544 Q978.489 30.163 982.095 28.1376 Q985.74 26.1121 990.48 26.1121 Q998.298 26.1121 1002.31 30.9732 Q1006.32 35.7938 1006.32 45.1919 Z" fill="#000000" fill-rule="nonzero" fill-opacity="1" /><path clip-path="url(#clip890)" d="M1040.06 76.7889 Q1036.9 84.8907 1033.91 87.3618 Q1030.91 89.8329 1025.88 89.8329 L1019.93 89.8329 L1019.93 83.5945 L1024.3 83.5945 Q1027.38 83.5945 1029.09 82.1361 Q1030.79 80.6778 1032.85 75.2496 L1034.19 71.8468 L1015.84 27.2059 L1023.74 27.2059 L1037.92 62.6918 L1052.09 27.2059 L1059.99 27.2059 L1040.06 76.7889 Z" fill="#000000" fill-rule="nonzero" fill-opacity="1" /><path clip-path="url(#clip890)" d="M1100.14 34.0924 L1100.14 9.54393 L1107.59 9.54393 L1107.59 72.576 L1100.14 72.576 L1100.14 65.7705 Q1097.79 69.8214 1094.18 71.8063 Q1090.62 73.7508 1085.6 73.7508 Q1077.37 73.7508 1072.19 67.1883 Q1067.04 60.6258 1067.04 49.9314 Q1067.04 39.2371 1072.19 32.6746 Q1077.37 26.1121 1085.6 26.1121 Q1090.62 26.1121 1094.18 28.0971 Q1097.79 30.0415 1100.14 34.0924 M1074.74 49.9314 Q1074.74 58.1548 1078.1 62.8538 Q1081.5 67.5124 1087.42 67.5124 Q1093.33 67.5124 1096.74 62.8538 Q1100.14 58.1548 1100.14 49.9314 Q1100.14 41.7081 1096.74 37.0496 Q1093.33 32.3505 1087.42 32.3505 Q1081.5 32.3505 1078.1 37.0496 Q1074.74 41.7081 1074.74 49.9314 Z" fill="#000000" fill-rule="nonzero" fill-opacity="1" /><path clip-path="url(#clip890)" d="M1149.23 34.1734 Q1147.98 33.4443 1146.48 33.1202 Q1145.02 32.7556 1143.24 32.7556 Q1136.92 32.7556 1133.52 36.8875 Q1130.16 40.9789 1130.16 48.6757 L1130.16 72.576 L1122.66 72.576 L1122.66 27.2059 L1130.16 27.2059 L1130.16 34.2544 Q1132.5 30.1225 1136.27 28.1376 Q1140.04 26.1121 1145.43 26.1121 Q1146.2 26.1121 1147.13 26.2337 Q1148.06 26.3147 1149.19 26.5172 L1149.23 34.1734 Z" fill="#000000" fill-rule="nonzero" fill-opacity="1" /><path clip-path="url(#clip890)" d="M1172.81 32.4315 Q1166.82 32.4315 1163.33 37.1306 Q1159.85 41.7891 1159.85 49.9314 Q1159.85 58.0738 1163.29 62.7728 Q1166.78 67.4314 1172.81 67.4314 Q1178.77 67.4314 1182.25 62.7323 Q1185.73 58.0333 1185.73 49.9314 Q1185.73 41.8701 1182.25 37.1711 Q1178.77 32.4315 1172.81 32.4315 M1172.81 26.1121 Q1182.53 26.1121 1188.08 32.4315 Q1193.63 38.7509 1193.63 49.9314 Q1193.63 61.0714 1188.08 67.4314 Q1182.53 73.7508 1172.81 73.7508 Q1163.05 73.7508 1157.5 67.4314 Q1151.99 61.0714 1151.99 49.9314 Q1151.99 38.7509 1157.5 32.4315 Q1163.05 26.1121 1172.81 26.1121 Z" fill="#000000" fill-rule="nonzero" fill-opacity="1" /><path clip-path="url(#clip890)" d="M1235.84 49.3643 Q1235.84 41.2625 1232.48 36.8065 Q1229.16 32.3505 1223.12 32.3505 Q1217.13 32.3505 1213.77 36.8065 Q1210.44 41.2625 1210.44 49.3643 Q1210.44 57.4256 1213.77 61.8816 Q1217.13 66.3376 1223.12 66.3376 Q1229.16 66.3376 1232.48 61.8816 Q1235.84 57.4256 1235.84 49.3643 M1243.3 66.9452 Q1243.3 78.5308 1238.15 84.1616 Q1233.01 89.8329 1222.39 89.8329 Q1218.46 89.8329 1214.98 89.2252 Q1211.5 88.6581 1208.22 87.4428 L1208.22 80.1917 Q1211.5 81.9741 1214.7 82.8248 Q1217.9 83.6755 1221.22 83.6755 Q1228.55 83.6755 1232.2 79.8271 Q1235.84 76.0193 1235.84 68.282 L1235.84 64.5957 Q1233.53 68.6061 1229.93 70.5911 Q1226.32 72.576 1221.3 72.576 Q1212.96 72.576 1207.85 66.2161 Q1202.75 59.8562 1202.75 49.3643 Q1202.75 38.832 1207.85 32.472 Q1212.96 26.1121 1221.3 26.1121 Q1226.32 26.1121 1229.93 28.0971 Q1233.53 30.082 1235.84 34.0924 L1235.84 27.2059 L1243.3 27.2059 L1243.3 66.9452 Z" fill="#000000" fill-rule="nonzero" fill-opacity="1" /><path clip-path="url(#clip890)" d="M1297.46 48.0275 L1297.46 51.6733 L1263.19 51.6733 Q1263.67 59.3701 1267.8 63.421 Q1271.98 67.4314 1279.39 67.4314 Q1283.68 67.4314 1287.69 66.3781 Q1291.75 65.3249 1295.72 63.2184 L1295.72 70.267 Q1291.71 71.9684 1287.49 72.8596 Q1283.28 73.7508 1278.94 73.7508 Q1268.09 73.7508 1261.73 67.4314 Q1255.41 61.1119 1255.41 50.3365 Q1255.41 39.1965 1261.4 32.6746 Q1267.44 26.1121 1277.65 26.1121 Q1286.8 26.1121 1292.11 32.0264 Q1297.46 37.9003 1297.46 48.0275 M1290 45.84 Q1289.92 39.7232 1286.56 36.0774 Q1283.24 32.4315 1277.73 32.4315 Q1271.49 32.4315 1267.72 35.9558 Q1264 39.4801 1263.43 45.8805 L1290 45.84 Z" fill="#000000" fill-rule="nonzero" fill-opacity="1" /><path clip-path="url(#clip890)" d="M1347.41 45.1919 L1347.41 72.576 L1339.95 72.576 L1339.95 45.4349 Q1339.95 38.994 1337.44 35.7938 Q1334.93 32.5936 1329.91 32.5936 Q1323.87 32.5936 1320.39 36.4419 Q1316.9 40.2903 1316.9 46.9338 L1316.9 72.576 L1309.41 72.576 L1309.41 27.2059 L1316.9 27.2059 L1316.9 34.2544 Q1319.58 30.163 1323.18 28.1376 Q1326.83 26.1121 1331.57 26.1121 Q1339.38 26.1121 1343.39 30.9732 Q1347.41 35.7938 1347.41 45.1919 Z" fill="#000000" fill-rule="nonzero" fill-opacity="1" /><path clip-path="url(#clip890)" d="M1414.93 34.1734 Q1413.68 33.4443 1412.18 33.1202 Q1410.72 32.7556 1408.94 32.7556 Q1402.62 32.7556 1399.22 36.8875 Q1395.85 40.9789 1395.85 48.6757 L1395.85 72.576 L1388.36 72.576 L1388.36 27.2059 L1395.85 27.2059 L1395.85 34.2544 Q1398.2 30.1225 1401.97 28.1376 Q1405.74 26.1121 1411.13 26.1121 Q1411.9 26.1121 1412.83 26.2337 Q1413.76 26.3147 1414.89 26.5172 L1414.93 34.1734 Z" fill="#000000" fill-rule="nonzero" fill-opacity="1" /><path clip-path="url(#clip890)" d="M1459.74 48.0275 L1459.74 51.6733 L1425.47 51.6733 Q1425.95 59.3701 1430.08 63.421 Q1434.26 67.4314 1441.67 67.4314 Q1445.96 67.4314 1449.97 66.3781 Q1454.02 65.3249 1457.99 63.2184 L1457.99 70.267 Q1453.98 71.9684 1449.77 72.8596 Q1445.56 73.7508 1441.22 73.7508 Q1430.37 73.7508 1424.01 67.4314 Q1417.69 61.1119 1417.69 50.3365 Q1417.69 39.1965 1423.68 32.6746 Q1429.72 26.1121 1439.93 26.1121 Q1449.08 26.1121 1454.39 32.0264 Q1459.74 37.9003 1459.74 48.0275 M1452.28 45.84 Q1452.2 39.7232 1448.84 36.0774 Q1445.52 32.4315 1440.01 32.4315 Q1433.77 32.4315 1430 35.9558 Q1426.28 39.4801 1425.71 45.8805 L1452.28 45.84 Z" fill="#000000" fill-rule="nonzero" fill-opacity="1" /><path clip-path="url(#clip890)" d="M1471.97 9.54393 L1479.42 9.54393 L1479.42 72.576 L1471.97 72.576 L1471.97 9.54393 Z" fill="#000000" fill-rule="nonzero" fill-opacity="1" /><path clip-path="url(#clip890)" d="M1515.64 49.7694 Q1506.61 49.7694 1503.12 51.8354 Q1499.64 53.9013 1499.64 58.8839 Q1499.64 62.8538 1502.23 65.2034 Q1504.86 67.5124 1509.36 67.5124 Q1515.56 67.5124 1519.28 63.1374 Q1523.05 58.7219 1523.05 51.4303 L1523.05 49.7694 L1515.64 49.7694 M1530.51 46.6907 L1530.51 72.576 L1523.05 72.576 L1523.05 65.6895 Q1520.5 69.8214 1516.69 71.8063 Q1512.88 73.7508 1507.38 73.7508 Q1500.41 73.7508 1496.28 69.8619 Q1492.18 65.9325 1492.18 59.3701 Q1492.18 51.7138 1497.29 47.825 Q1502.43 43.9361 1512.6 43.9361 L1523.05 43.9361 L1523.05 43.2069 Q1523.05 38.0623 1519.65 35.2672 Q1516.29 32.4315 1510.17 32.4315 Q1506.28 32.4315 1502.6 33.3632 Q1498.91 34.295 1495.51 36.1584 L1495.51 29.2718 Q1499.6 27.692 1503.45 26.9223 Q1507.29 26.1121 1510.94 26.1121 Q1520.78 26.1121 1525.64 31.2163 Q1530.51 36.3204 1530.51 46.6907 Z" fill="#000000" fill-rule="nonzero" fill-opacity="1" /><path clip-path="url(#clip890)" d="M1553.23 14.324 L1553.23 27.2059 L1568.58 27.2059 L1568.58 32.9987 L1553.23 32.9987 L1553.23 57.6282 Q1553.23 63.1779 1554.73 64.7578 Q1556.27 66.3376 1560.93 66.3376 L1568.58 66.3376 L1568.58 72.576 L1560.93 72.576 Q1552.3 72.576 1549.02 69.3758 Q1545.74 66.1351 1545.74 57.6282 L1545.74 32.9987 L1540.27 32.9987 L1540.27 27.2059 L1545.74 27.2059 L1545.74 14.324 L1553.23 14.324 Z" fill="#000000" fill-rule="nonzero" fill-opacity="1" /><path clip-path="url(#clip890)" d="M1578.39 27.2059 L1585.84 27.2059 L1585.84 72.576 L1578.39 72.576 L1578.39 27.2059 M1578.39 9.54393 L1585.84 9.54393 L1585.84 18.9825 L1578.39 18.9825 L1578.39 9.54393 Z" fill="#000000" fill-rule="nonzero" fill-opacity="1" /><path clip-path="url(#clip890)" d="M1596.09 27.2059 L1603.99 27.2059 L1618.17 65.2844 L1632.35 27.2059 L1640.24 27.2059 L1623.23 72.576 L1613.1 72.576 L1596.09 27.2059 Z" fill="#000000" fill-rule="nonzero" fill-opacity="1" /><path clip-path="url(#clip890)" d="M1689.34 48.0275 L1689.34 51.6733 L1655.07 51.6733 Q1655.56 59.3701 1659.69 63.421 Q1663.86 67.4314 1671.27 67.4314 Q1675.57 67.4314 1679.58 66.3781 Q1683.63 65.3249 1687.6 63.2184 L1687.6 70.267 Q1683.59 71.9684 1679.38 72.8596 Q1675.16 73.7508 1670.83 73.7508 Q1659.97 73.7508 1653.61 67.4314 Q1647.29 61.1119 1647.29 50.3365 Q1647.29 39.1965 1653.29 32.6746 Q1659.32 26.1121 1669.53 26.1121 Q1678.69 26.1121 1683.99 32.0264 Q1689.34 37.9003 1689.34 48.0275 M1681.89 45.84 Q1681.81 39.7232 1678.44 36.0774 Q1675.12 32.4315 1669.61 32.4315 Q1663.38 32.4315 1659.61 35.9558 Q1655.88 39.4801 1655.31 45.8805 L1681.89 45.84 Z" fill="#000000" fill-rule="nonzero" fill-opacity="1" /><path clip-path="url(#clip890)" d="M1735.32 14.324 L1735.32 27.2059 L1750.67 27.2059 L1750.67 32.9987 L1735.32 32.9987 L1735.32 57.6282 Q1735.32 63.1779 1736.82 64.7578 Q1738.36 66.3376 1743.02 66.3376 L1750.67 66.3376 L1750.67 72.576 L1743.02 72.576 Q1734.39 72.576 1731.11 69.3758 Q1727.83 66.1351 1727.83 57.6282 L1727.83 32.9987 L1722.36 32.9987 L1722.36 27.2059 L1727.83 27.2059 L1727.83 14.324 L1735.32 14.324 Z" fill="#000000" fill-rule="nonzero" fill-opacity="1" /><path clip-path="url(#clip890)" d="M1778.06 32.4315 Q1772.06 32.4315 1768.58 37.1306 Q1765.09 41.7891 1765.09 49.9314 Q1765.09 58.0738 1768.54 62.7728 Q1772.02 67.4314 1778.06 67.4314 Q1784.01 67.4314 1787.5 62.7323 Q1790.98 58.0333 1790.98 49.9314 Q1790.98 41.8701 1787.5 37.1711 Q1784.01 32.4315 1778.06 32.4315 M1778.06 26.1121 Q1787.78 26.1121 1793.33 32.4315 Q1798.88 38.7509 1798.88 49.9314 Q1798.88 61.0714 1793.33 67.4314 Q1787.78 73.7508 1778.06 73.7508 Q1768.29 73.7508 1762.74 67.4314 Q1757.24 61.0714 1757.24 49.9314 Q1757.24 38.7509 1762.74 32.4315 Q1768.29 26.1121 1778.06 26.1121 Z" fill="#000000" fill-rule="nonzero" fill-opacity="1" /><path clip-path="url(#clip890)" d="M1875.32 45.1919 L1875.32 72.576 L1867.87 72.576 L1867.87 45.4349 Q1867.87 38.994 1865.35 35.7938 Q1862.84 32.5936 1857.82 32.5936 Q1851.78 32.5936 1848.3 36.4419 Q1844.82 40.2903 1844.82 46.9338 L1844.82 72.576 L1837.32 72.576 L1837.32 27.2059 L1844.82 27.2059 L1844.82 34.2544 Q1847.49 30.163 1851.09 28.1376 Q1854.74 26.1121 1859.48 26.1121 Q1867.3 26.1121 1871.31 30.9732 Q1875.32 35.7938 1875.32 45.1919 Z" fill="#000000" fill-rule="nonzero" fill-opacity="1" /><path clip-path="url(#clip890)" d="M1910.8 49.7694 Q1901.77 49.7694 1898.29 51.8354 Q1894.8 53.9013 1894.8 58.8839 Q1894.8 62.8538 1897.4 65.2034 Q1900.03 67.5124 1904.53 67.5124 Q1910.72 67.5124 1914.45 63.1374 Q1918.22 58.7219 1918.22 51.4303 L1918.22 49.7694 L1910.8 49.7694 M1925.67 46.6907 L1925.67 72.576 L1918.22 72.576 L1918.22 65.6895 Q1915.67 69.8214 1911.86 71.8063 Q1908.05 73.7508 1902.54 73.7508 Q1895.57 73.7508 1891.44 69.8619 Q1887.35 65.9325 1887.35 59.3701 Q1887.35 51.7138 1892.45 47.825 Q1897.6 43.9361 1907.77 43.9361 L1918.22 43.9361 L1918.22 43.2069 Q1918.22 38.0623 1914.82 35.2672 Q1911.45 32.4315 1905.34 32.4315 Q1901.45 32.4315 1897.76 33.3632 Q1894.07 34.295 1890.67 36.1584 L1890.67 29.2718 Q1894.76 27.692 1898.61 26.9223 Q1902.46 26.1121 1906.11 26.1121 Q1915.95 26.1121 1920.81 31.2163 Q1925.67 36.3204 1925.67 46.6907 Z" fill="#000000" fill-rule="nonzero" fill-opacity="1" /><path clip-path="url(#clip890)" d="M1948.4 14.324 L1948.4 27.2059 L1963.75 27.2059 L1963.75 32.9987 L1948.4 32.9987 L1948.4 57.6282 Q1948.4 63.1779 1949.9 64.7578 Q1951.44 66.3376 1956.09 66.3376 L1963.75 66.3376 L1963.75 72.576 L1956.09 72.576 Q1947.47 72.576 1944.18 69.3758 Q1940.9 66.1351 1940.9 57.6282 L1940.9 32.9987 L1935.43 32.9987 L1935.43 27.2059 L1940.9 27.2059 L1940.9 14.324 L1948.4 14.324 Z" fill="#000000" fill-rule="nonzero" fill-opacity="1" /><path clip-path="url(#clip890)" d="M1972.78 54.671 L1972.78 27.2059 L1980.24 27.2059 L1980.24 54.3874 Q1980.24 60.8284 1982.75 64.0691 Q1985.26 67.2693 1990.28 67.2693 Q1996.32 67.2693 1999.8 63.421 Q2003.33 59.5726 2003.33 52.9291 L2003.33 27.2059 L2010.78 27.2059 L2010.78 72.576 L2003.33 72.576 L2003.33 65.6084 Q2000.61 69.7404 1997.01 71.7658 Q1993.44 73.7508 1988.7 73.7508 Q1980.89 73.7508 1976.83 68.8897 Q1972.78 64.0286 1972.78 54.671 M1991.54 26.1121 L1991.54 26.1121 Z" fill="#000000" fill-rule="nonzero" fill-opacity="1" /><path clip-path="url(#clip890)" d="M2052.42 34.1734 Q2051.17 33.4443 2049.67 33.1202 Q2048.21 32.7556 2046.43 32.7556 Q2040.11 32.7556 2036.71 36.8875 Q2033.34 40.9789 2033.34 48.6757 L2033.34 72.576 L2025.85 72.576 L2025.85 27.2059 L2033.34 27.2059 L2033.34 34.2544 Q2035.69 30.1225 2039.46 28.1376 Q2043.23 26.1121 2048.62 26.1121 Q2049.39 26.1121 2050.32 26.2337 Q2051.25 26.3147 2052.38 26.5172 L2052.42 34.1734 Z" fill="#000000" fill-rule="nonzero" fill-opacity="1" /><path clip-path="url(#clip890)" d="M2080.86 49.7694 Q2071.83 49.7694 2068.34 51.8354 Q2064.86 53.9013 2064.86 58.8839 Q2064.86 62.8538 2067.45 65.2034 Q2070.09 67.5124 2074.58 67.5124 Q2080.78 67.5124 2084.51 63.1374 Q2088.27 58.7219 2088.27 51.4303 L2088.27 49.7694 L2080.86 49.7694 M2095.73 46.6907 L2095.73 72.576 L2088.27 72.576 L2088.27 65.6895 Q2085.72 69.8214 2081.92 71.8063 Q2078.11 73.7508 2072.6 73.7508 Q2065.63 73.7508 2061.5 69.8619 Q2057.41 65.9325 2057.41 59.3701 Q2057.41 51.7138 2062.51 47.825 Q2067.66 43.9361 2077.82 43.9361 L2088.27 43.9361 L2088.27 43.2069 Q2088.27 38.0623 2084.87 35.2672 Q2081.51 32.4315 2075.39 32.4315 Q2071.5 32.4315 2067.82 33.3632 Q2064.13 34.295 2060.73 36.1584 L2060.73 29.2718 Q2064.82 27.692 2068.67 26.9223 Q2072.52 26.1121 2076.16 26.1121 Q2086.01 26.1121 2090.87 31.2163 Q2095.73 36.3204 2095.73 46.6907 Z" fill="#000000" fill-rule="nonzero" fill-opacity="1" /><path clip-path="url(#clip890)" d="M2111.08 9.54393 L2118.54 9.54393 L2118.54 72.576 L2111.08 72.576 L2111.08 9.54393 Z" fill="#000000" fill-rule="nonzero" fill-opacity="1" /><path clip-path="url(#clip890)" d="M2190.36 49.3643 Q2190.36 41.2625 2187 36.8065 Q2183.67 32.3505 2177.64 32.3505 Q2171.64 32.3505 2168.28 36.8065 Q2164.96 41.2625 2164.96 49.3643 Q2164.96 57.4256 2168.28 61.8816 Q2171.64 66.3376 2177.64 66.3376 Q2183.67 66.3376 2187 61.8816 Q2190.36 57.4256 2190.36 49.3643 M2197.81 66.9452 Q2197.81 78.5308 2192.67 84.1616 Q2187.52 89.8329 2176.91 89.8329 Q2172.98 89.8329 2169.5 89.2252 Q2166.01 88.6581 2162.73 87.4428 L2162.73 80.1917 Q2166.01 81.9741 2169.21 82.8248 Q2172.41 83.6755 2175.73 83.6755 Q2183.07 83.6755 2186.71 79.8271 Q2190.36 76.0193 2190.36 68.282 L2190.36 64.5957 Q2188.05 68.6061 2184.44 70.5911 Q2180.84 72.576 2175.81 72.576 Q2167.47 72.576 2162.37 66.2161 Q2157.26 59.8562 2157.26 49.3643 Q2157.26 38.832 2162.37 32.472 Q2167.47 26.1121 2175.81 26.1121 Q2180.84 26.1121 2184.44 28.0971 Q2188.05 30.082 2190.36 34.0924 L2190.36 27.2059 L2197.81 27.2059 L2197.81 66.9452 Z" fill="#000000" fill-rule="nonzero" fill-opacity="1" /><path clip-path="url(#clip890)" d="M2233.78 49.7694 Q2224.75 49.7694 2221.27 51.8354 Q2217.78 53.9013 2217.78 58.8839 Q2217.78 62.8538 2220.37 65.2034 Q2223.01 67.5124 2227.5 67.5124 Q2233.7 67.5124 2237.43 63.1374 Q2241.2 58.7219 2241.2 51.4303 L2241.2 49.7694 L2233.78 49.7694 M2248.65 46.6907 L2248.65 72.576 L2241.2 72.576 L2241.2 65.6895 Q2238.64 69.8214 2234.84 71.8063 Q2231.03 73.7508 2225.52 73.7508 Q2218.55 73.7508 2214.42 69.8619 Q2210.33 65.9325 2210.33 59.3701 Q2210.33 51.7138 2215.43 47.825 Q2220.58 43.9361 2230.75 43.9361 L2241.2 43.9361 L2241.2 43.2069 Q2241.2 38.0623 2237.79 35.2672 Q2234.43 32.4315 2228.31 32.4315 Q2224.43 32.4315 2220.74 33.3632 Q2217.05 34.295 2213.65 36.1584 L2213.65 29.2718 Q2217.74 27.692 2221.59 26.9223 Q2225.44 26.1121 2229.08 26.1121 Q2238.93 26.1121 2243.79 31.2163 Q2248.65 36.3204 2248.65 46.6907 Z" fill="#000000" fill-rule="nonzero" fill-opacity="1" /><path clip-path="url(#clip890)" d="M2292.93 28.5427 L2292.93 35.5912 Q2289.77 33.9709 2286.36 33.1607 Q2282.96 32.3505 2279.32 32.3505 Q2273.77 32.3505 2270.97 34.0519 Q2268.22 35.7533 2268.22 39.156 Q2268.22 41.7486 2270.2 43.2475 Q2272.19 44.7058 2278.18 46.0426 L2280.73 46.6097 Q2288.67 48.3111 2291.99 51.4303 Q2295.36 54.509 2295.36 60.0587 Q2295.36 66.3781 2290.33 70.0644 Q2285.35 73.7508 2276.6 73.7508 Q2272.96 73.7508 2268.99 73.0216 Q2265.06 72.3329 2260.68 70.9151 L2260.68 63.2184 Q2264.81 65.3654 2268.82 66.4591 Q2272.83 67.5124 2276.76 67.5124 Q2282.03 67.5124 2284.87 65.73 Q2287.7 63.9071 2287.7 60.6258 Q2287.7 57.5877 2285.64 55.9673 Q2283.61 54.3469 2276.68 52.8481 L2274.09 52.2405 Q2267.16 50.7821 2264.08 47.7845 Q2261.01 44.7463 2261.01 39.4801 Q2261.01 33.0797 2265.54 29.5959 Q2270.08 26.1121 2278.42 26.1121 Q2282.56 26.1121 2286.2 26.7198 Q2289.85 27.3274 2292.93 28.5427 Z" fill="#000000" fill-rule="nonzero" fill-opacity="1" /><polyline clip-path="url(#clip892)" style="stroke:#009af9; stroke-linecap:round; stroke-linejoin:round; stroke-width:4; stroke-opacity:1; fill:none" points="253.38,1386.4 256.797,1368.22 260.214,1350.52 263.631,1333.28 267.048,1316.48 274.947,1279.22 282.846,1244.03 290.745,1210.74 298.643,1179.21 306.542,1149.28 314.441,1120.86 322.34,1093.81 330.239,1068.06 338.137,1043.5 346.036,1020.06 353.935,997.657 361.834,976.228 377.632,936.048 393.429,899.081 402.923,878.253 412.417,858.38 421.91,839.398 431.404,821.247 450.392,787.233 469.379,755.961 485.433,731.422 501.486,708.449 517.54,686.895 533.594,666.635 551.032,645.96 568.471,626.549 585.91,608.291 603.349,591.084 635.503,561.828 667.657,535.382 702.129,509.713 736.602,486.44 776.541,462.055 816.481,440.05 851.975,422.222 887.469,405.818 918.593,392.474 949.718,380.003 983.653,367.304 1017.59,355.45 1051.72,344.297 1085.86,333.843 1161.34,312.906 1233.16,295.362 1307.84,279.16 1370.7,266.889 1447.45,253.35 1517.76,242.147 1582.69,232.684 1648.46,223.858 1722.18,214.766 1788.98,207.174 1865.45,199.148 1936.27,192.282 2006.08,185.987 2073.86,180.28 2143.35,174.804 2219.48,169.198 2330.07,161.706 2352.76,160.256 "/>
</svg>
