<?xml version="1.0" encoding="utf-8"?>
<svg xmlns="http://www.w3.org/2000/svg" xmlns:xlink="http://www.w3.org/1999/xlink" width="600" height="400" viewBox="0 0 2400 1600">
<defs>
  <clipPath id="clip980">
    <rect x="0" y="0" width="2400" height="1600"/>
  </clipPath>
</defs>
<path clip-path="url(#clip980)" d="
M0 1600 L2400 1600 L2400 0 L0 0  Z
  " fill="#ffffff" fill-rule="evenodd" fill-opacity="1"/>
<defs>
  <clipPath id="clip981">
    <rect x="480" y="0" width="1681" height="1600"/>
  </clipPath>
</defs>
<path clip-path="url(#clip980)" d="
M166.805 1313.84 L2352.76 1313.84 L2352.76 47.2441 L166.805 47.2441  Z
  " fill="#ffffff" fill-rule="evenodd" fill-opacity="1"/>
<defs>
  <clipPath id="clip982">
    <rect x="166" y="47" width="2187" height="1268"/>
  </clipPath>
</defs>
<polyline clip-path="url(#clip982)" style="stroke:#000000; stroke-linecap:butt; stroke-linejoin:round; stroke-width:2; stroke-opacity:0.1; fill:none" points="
  352.985,1313.84 352.985,47.2441 
  "/>
<polyline clip-path="url(#clip982)" style="stroke:#000000; stroke-linecap:butt; stroke-linejoin:round; stroke-width:2; stroke-opacity:0.1; fill:none" points="
  517.857,1313.84 517.857,47.2441 
  "/>
<polyline clip-path="url(#clip982)" style="stroke:#000000; stroke-linecap:butt; stroke-linejoin:round; stroke-width:2; stroke-opacity:0.1; fill:none" points="
  682.729,1313.84 682.729,47.2441 
  "/>
<polyline clip-path="url(#clip982)" style="stroke:#000000; stroke-linecap:butt; stroke-linejoin:round; stroke-width:2; stroke-opacity:0.1; fill:none" points="
  847.601,1313.84 847.601,47.2441 
  "/>
<polyline clip-path="url(#clip982)" style="stroke:#000000; stroke-linecap:butt; stroke-linejoin:round; stroke-width:2; stroke-opacity:0.1; fill:none" points="
  1012.47,1313.84 1012.47,47.2441 
  "/>
<polyline clip-path="url(#clip982)" style="stroke:#000000; stroke-linecap:butt; stroke-linejoin:round; stroke-width:2; stroke-opacity:0.1; fill:none" points="
  1177.34,1313.84 1177.34,47.2441 
  "/>
<polyline clip-path="url(#clip982)" style="stroke:#000000; stroke-linecap:butt; stroke-linejoin:round; stroke-width:2; stroke-opacity:0.1; fill:none" points="
  1342.22,1313.84 1342.22,47.2441 
  "/>
<polyline clip-path="url(#clip982)" style="stroke:#000000; stroke-linecap:butt; stroke-linejoin:round; stroke-width:2; stroke-opacity:0.1; fill:none" points="
  1507.09,1313.84 1507.09,47.2441 
  "/>
<polyline clip-path="url(#clip982)" style="stroke:#000000; stroke-linecap:butt; stroke-linejoin:round; stroke-width:2; stroke-opacity:0.1; fill:none" points="
  1671.96,1313.84 1671.96,47.2441 
  "/>
<polyline clip-path="url(#clip982)" style="stroke:#000000; stroke-linecap:butt; stroke-linejoin:round; stroke-width:2; stroke-opacity:0.1; fill:none" points="
  1836.83,1313.84 1836.83,47.2441 
  "/>
<polyline clip-path="url(#clip982)" style="stroke:#000000; stroke-linecap:butt; stroke-linejoin:round; stroke-width:2; stroke-opacity:0.1; fill:none" points="
  2001.7,1313.84 2001.7,47.2441 
  "/>
<polyline clip-path="url(#clip982)" style="stroke:#000000; stroke-linecap:butt; stroke-linejoin:round; stroke-width:2; stroke-opacity:0.1; fill:none" points="
  2166.58,1313.84 2166.58,47.2441 
  "/>
<polyline clip-path="url(#clip980)" style="stroke:#000000; stroke-linecap:butt; stroke-linejoin:round; stroke-width:4; stroke-opacity:1; fill:none" points="
  166.805,1313.84 2352.76,1313.84 
  "/>
<polyline clip-path="url(#clip980)" style="stroke:#000000; stroke-linecap:butt; stroke-linejoin:round; stroke-width:4; stroke-opacity:1; fill:none" points="
  352.985,1313.84 352.985,1298.64 
  "/>
<polyline clip-path="url(#clip980)" style="stroke:#000000; stroke-linecap:butt; stroke-linejoin:round; stroke-width:4; stroke-opacity:1; fill:none" points="
  517.857,1313.84 517.857,1298.64 
  "/>
<polyline clip-path="url(#clip980)" style="stroke:#000000; stroke-linecap:butt; stroke-linejoin:round; stroke-width:4; stroke-opacity:1; fill:none" points="
  682.729,1313.84 682.729,1298.64 
  "/>
<polyline clip-path="url(#clip980)" style="stroke:#000000; stroke-linecap:butt; stroke-linejoin:round; stroke-width:4; stroke-opacity:1; fill:none" points="
  847.601,1313.84 847.601,1298.64 
  "/>
<polyline clip-path="url(#clip980)" style="stroke:#000000; stroke-linecap:butt; stroke-linejoin:round; stroke-width:4; stroke-opacity:1; fill:none" points="
  1012.47,1313.84 1012.47,1298.64 
  "/>
<polyline clip-path="url(#clip980)" style="stroke:#000000; stroke-linecap:butt; stroke-linejoin:round; stroke-width:4; stroke-opacity:1; fill:none" points="
  1177.34,1313.84 1177.34,1298.64 
  "/>
<polyline clip-path="url(#clip980)" style="stroke:#000000; stroke-linecap:butt; stroke-linejoin:round; stroke-width:4; stroke-opacity:1; fill:none" points="
  1342.22,1313.84 1342.22,1298.64 
  "/>
<polyline clip-path="url(#clip980)" style="stroke:#000000; stroke-linecap:butt; stroke-linejoin:round; stroke-width:4; stroke-opacity:1; fill:none" points="
  1507.09,1313.84 1507.09,1298.64 
  "/>
<polyline clip-path="url(#clip980)" style="stroke:#000000; stroke-linecap:butt; stroke-linejoin:round; stroke-width:4; stroke-opacity:1; fill:none" points="
  1671.96,1313.84 1671.96,1298.64 
  "/>
<polyline clip-path="url(#clip980)" style="stroke:#000000; stroke-linecap:butt; stroke-linejoin:round; stroke-width:4; stroke-opacity:1; fill:none" points="
  1836.83,1313.84 1836.83,1298.64 
  "/>
<polyline clip-path="url(#clip980)" style="stroke:#000000; stroke-linecap:butt; stroke-linejoin:round; stroke-width:4; stroke-opacity:1; fill:none" points="
  2001.7,1313.84 2001.7,1298.64 
  "/>
<polyline clip-path="url(#clip980)" style="stroke:#000000; stroke-linecap:butt; stroke-linejoin:round; stroke-width:4; stroke-opacity:1; fill:none" points="
  2166.58,1313.84 2166.58,1298.64 
  "/>
<path clip-path="url(#clip980)" d="M235.079 1460.72 L238.385 1457.42 L261.121 1480.15 Q265.54 1484.57 265.851 1488.25 Q266.178 1491.92 262.463 1495.64 L261.203 1496.9 L258.42 1494.11 L259.451 1493.08 Q261.644 1490.89 261.317 1488.76 Q260.99 1486.63 257.814 1483.46 L235.079 1460.72 Z" fill="#000000" fill-rule="evenodd" fill-opacity="1" /><path clip-path="url(#clip980)" d="M268.388 1457.86 Q264.738 1461.51 264.165 1463.75 Q263.592 1465.99 265.606 1468.01 Q267.21 1469.61 269.207 1469.51 Q271.203 1469.38 273.02 1467.56 Q275.525 1465.06 275.263 1461.79 Q275.001 1458.48 272.055 1455.53 L271.383 1454.86 L268.388 1457.86 M273.151 1450.61 L283.61 1461.07 L280.599 1464.08 L277.816 1461.29 Q278.455 1464 277.718 1466.34 Q276.965 1468.66 274.739 1470.89 Q271.924 1473.7 268.683 1473.8 Q265.442 1473.87 262.79 1471.21 Q259.697 1468.12 260.188 1464.49 Q260.695 1460.84 264.804 1456.73 L269.026 1452.51 L268.732 1452.21 Q266.653 1450.13 264.149 1450.38 Q261.644 1450.59 259.173 1453.06 Q257.602 1454.63 256.489 1456.5 Q255.375 1458.36 254.753 1460.49 L251.971 1457.71 Q252.986 1455.42 254.23 1453.55 Q255.457 1451.67 256.93 1450.2 Q260.908 1446.22 264.934 1446.32 Q268.961 1446.42 273.151 1450.61 Z" fill="#000000" fill-rule="evenodd" fill-opacity="1" /><path clip-path="url(#clip980)" d="M293.988 1428.56 L305.053 1439.62 L302.041 1442.64 L291.074 1431.67 Q288.472 1429.07 286.164 1428.79 Q283.856 1428.51 281.826 1430.54 Q279.388 1432.98 279.535 1435.94 Q279.682 1438.9 282.367 1441.59 L292.728 1451.95 L289.699 1454.98 L271.367 1436.64 L274.395 1433.62 L277.243 1436.46 Q276.67 1433.73 277.309 1431.46 Q277.963 1429.16 279.879 1427.25 Q283.038 1424.09 286.622 1424.43 Q290.19 1424.76 293.988 1428.56 Z" fill="#000000" fill-rule="evenodd" fill-opacity="1" /><path clip-path="url(#clip980)" d="M303.514 1426.69 L292.417 1415.6 L295.428 1412.58 L306.411 1423.57 Q309.014 1426.17 311.338 1426.46 Q313.646 1426.74 315.676 1424.71 Q318.114 1422.27 317.967 1419.31 Q317.836 1416.33 315.152 1413.65 L304.758 1403.25 L307.77 1400.24 L326.102 1418.57 L323.09 1421.59 L320.275 1418.77 Q320.848 1421.54 320.21 1423.81 Q319.571 1426.05 317.656 1427.97 Q314.497 1431.13 310.896 1430.8 Q307.295 1430.47 303.514 1426.69 M299.553 1407.57 L299.553 1407.57 Z" fill="#000000" fill-rule="evenodd" fill-opacity="1" /><path clip-path="url(#clip980)" d="M331.422 1394.82 Q327.772 1398.47 327.199 1400.72 Q326.626 1402.96 328.639 1404.97 Q330.243 1406.58 332.24 1406.48 Q334.237 1406.35 336.054 1404.53 Q338.558 1402.03 338.296 1398.75 Q338.034 1395.45 335.088 1392.5 L334.417 1391.83 L331.422 1394.82 M336.185 1387.57 L346.644 1398.03 L343.632 1401.04 L340.85 1398.26 Q341.488 1400.96 340.752 1403.3 Q339.999 1405.63 337.773 1407.85 Q334.957 1410.67 331.716 1410.77 Q328.476 1410.83 325.824 1408.18 Q322.73 1405.09 323.221 1401.45 Q323.729 1397.8 327.837 1393.69 L332.06 1389.47 L331.766 1389.18 Q329.687 1387.1 327.182 1387.34 Q324.678 1387.56 322.207 1390.03 Q320.635 1391.6 319.522 1393.47 Q318.409 1395.33 317.787 1397.46 L315.005 1394.68 Q316.019 1392.39 317.263 1390.52 Q318.491 1388.64 319.964 1387.16 Q323.942 1383.19 327.968 1383.28 Q331.995 1383.38 336.185 1387.57 Z" fill="#000000" fill-rule="evenodd" fill-opacity="1" /><path clip-path="url(#clip980)" d="M347.954 1365.69 Q347.152 1365.9 346.415 1366.38 Q345.678 1366.82 344.958 1367.54 Q342.405 1370.09 342.699 1373.14 Q342.994 1376.15 346.104 1379.26 L355.761 1388.92 L352.733 1391.94 L334.401 1373.61 L337.429 1370.58 L340.277 1373.43 Q339.557 1370.81 340.277 1368.49 Q340.981 1366.15 343.158 1363.97 Q343.469 1363.66 343.894 1363.33 Q344.303 1362.99 344.844 1362.61 L347.954 1365.69 Z" fill="#000000" fill-rule="evenodd" fill-opacity="1" /><path clip-path="url(#clip980)" d="M375.959 1372.12 Q377.956 1376.67 377.744 1378.88 Q377.531 1381.09 375.501 1383.12 L373.095 1385.53 L370.574 1383.01 L372.342 1381.24 Q373.586 1379.99 373.684 1378.72 Q373.782 1377.44 372.424 1374.41 L371.589 1372.5 L346.137 1361.87 L349.329 1358.68 L369.396 1367.29 L360.786 1347.23 L363.978 1344.03 L375.959 1372.12 Z" fill="#000000" fill-rule="evenodd" fill-opacity="1" /><path clip-path="url(#clip980)" d="M378.492 1482.18 L392.536 1468.14 L395.319 1470.92 L384.581 1481.66 L391.783 1488.86 L401.473 1479.17 L404.256 1481.95 L394.566 1491.64 L406.236 1503.31 L402.93 1506.62 L378.492 1482.18 Z" fill="#000000" fill-rule="evenodd" fill-opacity="1" /><path clip-path="url(#clip980)" d="M426.009 1463.7 L427.482 1465.17 L413.635 1479.02 Q416.941 1481.94 420.247 1481.9 Q423.554 1481.84 426.549 1478.84 Q428.284 1477.11 429.479 1475.06 Q430.69 1473 431.443 1470.54 L434.291 1473.39 Q433.358 1475.7 432.016 1477.76 Q430.674 1479.82 428.922 1481.57 Q424.536 1485.96 419.413 1485.98 Q414.306 1485.98 409.952 1481.62 Q405.451 1477.12 405.238 1472.07 Q405.025 1466.97 409.15 1462.85 Q412.849 1459.15 417.383 1459.4 Q421.917 1459.61 426.009 1463.7 M422.113 1465.83 Q419.609 1463.39 416.777 1463.28 Q413.962 1463.14 411.736 1465.37 Q409.215 1467.89 409.117 1470.84 Q409.035 1473.77 411.392 1476.58 L422.113 1465.83 Z" fill="#000000" fill-rule="evenodd" fill-opacity="1" /><path clip-path="url(#clip980)" d="M444.881 1446.37 Q441.559 1443.04 438.301 1442.54 Q435.044 1442 432.654 1444.39 Q430.265 1446.78 430.788 1450.05 Q431.312 1453.29 434.635 1456.61 Q437.958 1459.94 441.215 1460.48 Q444.472 1460.98 446.862 1458.59 Q449.252 1456.2 448.728 1452.96 Q448.204 1449.69 444.881 1446.37 M428.235 1450.21 Q427.548 1447.63 428.202 1445.4 Q428.857 1443.14 430.87 1441.13 Q434.209 1437.79 438.94 1438.36 Q443.687 1438.92 448.008 1443.24 Q452.329 1447.56 452.885 1452.31 Q453.458 1457.04 450.119 1460.38 Q448.106 1462.39 445.863 1463.06 Q443.621 1463.7 441.035 1463.01 L443.785 1465.76 L440.757 1468.79 L415.288 1443.32 L418.316 1440.29 L428.235 1450.21 Z" fill="#000000" fill-rule="evenodd" fill-opacity="1" /><path clip-path="url(#clip980)" d="M457.256 1421.26 Q456.454 1421.47 455.717 1421.95 Q454.981 1422.39 454.26 1423.11 Q451.707 1425.66 452.002 1428.71 Q452.296 1431.72 455.406 1434.83 L465.063 1444.48 L462.035 1447.51 L443.703 1429.18 L446.731 1426.15 L449.579 1429 Q448.859 1426.38 449.579 1424.06 Q450.283 1421.72 452.46 1419.54 Q452.771 1419.23 453.196 1418.9 Q453.606 1418.56 454.146 1418.18 L457.256 1421.26 Z" fill="#000000" fill-rule="evenodd" fill-opacity="1" /><path clip-path="url(#clip980)" d="M468.386 1426.69 L457.288 1415.6 L460.3 1412.58 L471.283 1423.57 Q473.886 1426.17 476.21 1426.46 Q478.518 1426.74 480.548 1424.71 Q482.986 1422.27 482.839 1419.31 Q482.708 1416.33 480.024 1413.65 L469.63 1403.25 L472.642 1400.24 L490.974 1418.57 L487.962 1421.59 L485.147 1418.77 Q485.72 1421.54 485.082 1423.81 Q484.443 1426.05 482.528 1427.97 Q479.369 1431.13 475.768 1430.8 Q472.167 1430.47 468.386 1426.69 M464.425 1407.57 L464.425 1407.57 Z" fill="#000000" fill-rule="evenodd" fill-opacity="1" /><path clip-path="url(#clip980)" d="M496.294 1394.82 Q492.644 1398.47 492.071 1400.72 Q491.498 1402.96 493.511 1404.97 Q495.115 1406.58 497.112 1406.48 Q499.109 1406.35 500.926 1404.53 Q503.43 1402.03 503.168 1398.75 Q502.906 1395.45 499.96 1392.5 L499.289 1391.83 L496.294 1394.82 M501.057 1387.57 L511.516 1398.03 L508.504 1401.04 L505.722 1398.26 Q506.36 1400.96 505.624 1403.3 Q504.871 1405.63 502.645 1407.85 Q499.829 1410.67 496.588 1410.77 Q493.347 1410.83 490.696 1408.18 Q487.602 1405.09 488.093 1401.45 Q488.601 1397.8 492.709 1393.69 L496.932 1389.47 L496.637 1389.18 Q494.559 1387.1 492.054 1387.34 Q489.55 1387.56 487.078 1390.03 Q485.507 1391.6 484.394 1393.47 Q483.281 1395.33 482.659 1397.46 L479.876 1394.68 Q480.891 1392.39 482.135 1390.52 Q483.363 1388.64 484.836 1387.16 Q488.813 1383.19 492.84 1383.28 Q496.867 1383.38 501.057 1387.57 Z" fill="#000000" fill-rule="evenodd" fill-opacity="1" /><path clip-path="url(#clip980)" d="M512.825 1365.69 Q512.023 1365.9 511.287 1366.38 Q510.55 1366.82 509.83 1367.54 Q507.277 1370.09 507.571 1373.14 Q507.866 1376.15 510.976 1379.26 L520.633 1388.92 L517.605 1391.94 L499.273 1373.61 L502.301 1370.58 L505.149 1373.43 Q504.429 1370.81 505.149 1368.49 Q505.853 1366.15 508.03 1363.97 Q508.341 1363.66 508.766 1363.33 Q509.175 1362.99 509.716 1362.61 L512.825 1365.69 Z" fill="#000000" fill-rule="evenodd" fill-opacity="1" /><path clip-path="url(#clip980)" d="M540.831 1372.12 Q542.828 1376.67 542.615 1378.88 Q542.403 1381.09 540.373 1383.12 L537.967 1385.53 L535.446 1383.01 L537.214 1381.24 Q538.458 1379.99 538.556 1378.72 Q538.654 1377.44 537.296 1374.41 L536.461 1372.5 L511.009 1361.87 L514.2 1358.68 L534.268 1367.29 L525.658 1347.23 L528.85 1344.03 L540.831 1372.12 Z" fill="#000000" fill-rule="evenodd" fill-opacity="1" /><path clip-path="url(#clip980)" d="M591.568 1433.98 L596.495 1429.05 L619.361 1439.44 L609 1416.54 L613.927 1411.62 L638.365 1436.06 L635.14 1439.28 L613.682 1417.82 L624.141 1440.88 L620.818 1444.21 L597.755 1433.75 L619.214 1455.21 L616.006 1458.41 L591.568 1433.98 Z" fill="#000000" fill-rule="evenodd" fill-opacity="1" /><path clip-path="url(#clip980)" d="M643.914 1412.08 Q640.263 1415.73 639.691 1417.97 Q639.118 1420.21 641.131 1422.22 Q642.735 1423.83 644.732 1423.73 Q646.729 1423.6 648.546 1421.78 Q651.05 1419.28 650.788 1416 Q650.526 1412.7 647.58 1409.75 L646.909 1409.08 L643.914 1412.08 M648.677 1404.82 L659.136 1415.28 L656.124 1418.3 L653.342 1415.51 Q653.98 1418.21 653.243 1420.55 Q652.49 1422.88 650.264 1425.1 Q647.449 1427.92 644.208 1428.02 Q640.967 1428.08 638.316 1425.43 Q635.222 1422.34 635.713 1418.7 Q636.221 1415.05 640.329 1410.95 L644.552 1406.72 L644.257 1406.43 Q642.179 1404.35 639.674 1404.6 Q637.17 1404.81 634.698 1407.28 Q633.127 1408.85 632.014 1410.72 Q630.901 1412.58 630.279 1414.71 L627.496 1411.93 Q628.511 1409.64 629.755 1407.77 Q630.983 1405.89 632.456 1404.42 Q636.433 1400.44 640.46 1400.54 Q644.486 1400.63 648.677 1404.82 Z" fill="#000000" fill-rule="evenodd" fill-opacity="1" /><path clip-path="url(#clip980)" d="M660.445 1382.94 Q659.643 1383.15 658.907 1383.63 Q658.17 1384.07 657.45 1384.79 Q654.897 1387.34 655.191 1390.39 Q655.486 1393.4 658.596 1396.51 L668.253 1406.17 L665.225 1409.2 L646.893 1390.86 L649.921 1387.83 L652.769 1390.68 Q652.049 1388.06 652.769 1385.74 Q653.473 1383.4 655.65 1381.22 Q655.96 1380.91 656.386 1380.58 Q656.795 1380.24 657.335 1379.86 L660.445 1382.94 Z" fill="#000000" fill-rule="evenodd" fill-opacity="1" /><path clip-path="url(#clip980)" d="M673.949 1365.21 L676.764 1368.03 Q674.784 1368.6 673.147 1369.55 Q671.51 1370.47 670.201 1371.78 Q667.271 1374.71 667.516 1378.19 Q667.746 1381.66 671.101 1385.02 Q674.456 1388.37 677.943 1388.62 Q681.413 1388.85 684.343 1385.92 Q685.652 1384.61 686.585 1382.99 Q687.518 1381.34 688.091 1379.36 L690.874 1382.14 Q690.203 1383.99 689.139 1385.64 Q688.091 1387.28 686.569 1388.8 Q682.428 1392.94 677.386 1392.78 Q672.345 1392.61 667.926 1388.19 Q663.441 1383.71 663.326 1378.68 Q663.228 1373.64 667.516 1369.36 Q668.908 1367.96 670.528 1366.93 Q672.132 1365.89 673.949 1365.21 Z" fill="#000000" fill-rule="evenodd" fill-opacity="1" /><path clip-path="url(#clip980)" d="M700.989 1351.3 L712.054 1362.37 L709.042 1365.38 L698.076 1354.41 Q695.473 1351.81 693.165 1351.53 Q690.857 1351.25 688.828 1353.28 Q686.389 1355.72 686.536 1358.68 Q686.683 1361.65 689.368 1364.33 L699.729 1374.69 L696.701 1377.72 L671.232 1352.25 L674.26 1349.22 L684.245 1359.21 Q683.672 1356.47 684.31 1354.2 Q684.965 1351.91 686.88 1349.99 Q690.039 1346.83 693.624 1347.18 Q697.192 1347.5 700.989 1351.3 Z" fill="#000000" fill-rule="evenodd" fill-opacity="1" /><path clip-path="url(#clip980)" d="M793.727 1403.2 L801.403 1419.85 L810.39 1410.86 L793.727 1403.2 M788.604 1401.81 L792.352 1398.06 L826.103 1413.19 L822.666 1416.63 L814.171 1412.58 L803.155 1423.6 L807.198 1432.09 L803.711 1435.58 L788.604 1401.81 Z" fill="#000000" fill-rule="evenodd" fill-opacity="1" /><path clip-path="url(#clip980)" d="M829.704 1404.09 L839.427 1413.81 L836.398 1416.84 L811.093 1391.53 L814.121 1388.51 L816.904 1391.29 Q816.217 1388.7 816.871 1386.48 Q817.526 1384.22 819.539 1382.2 Q822.878 1378.86 827.609 1379.44 Q832.356 1379.99 836.677 1384.32 Q840.998 1388.64 841.554 1393.38 Q842.127 1398.11 838.788 1401.45 Q836.775 1403.47 834.533 1404.14 Q832.29 1404.78 829.704 1404.09 M833.55 1387.44 Q830.228 1384.12 826.97 1383.61 Q823.713 1383.07 821.323 1385.46 Q818.934 1387.85 819.457 1391.12 Q819.981 1394.37 823.304 1397.69 Q826.627 1401.01 829.884 1401.55 Q833.141 1402.06 835.531 1399.67 Q837.921 1397.28 837.397 1394.04 Q836.873 1390.76 833.55 1387.44 Z" fill="#000000" fill-rule="evenodd" fill-opacity="1" /><path clip-path="url(#clip980)" d="M845.925 1362.33 Q845.123 1362.55 844.386 1363.02 Q843.65 1363.46 842.929 1364.18 Q840.376 1366.74 840.671 1369.78 Q840.965 1372.79 844.075 1375.9 L853.732 1385.56 L850.704 1388.59 L832.372 1370.26 L835.4 1367.23 L838.248 1370.08 Q837.528 1367.46 838.248 1365.13 Q838.952 1362.79 841.129 1360.61 Q841.44 1360.3 841.865 1359.98 Q842.275 1359.63 842.815 1359.26 L845.925 1362.33 Z" fill="#000000" fill-rule="evenodd" fill-opacity="1" /><path clip-path="url(#clip980)" d="M846.268 1356.36 L849.28 1353.35 L867.612 1371.68 L864.601 1374.69 L846.268 1356.36 M839.132 1349.22 L842.144 1346.21 L845.957 1350.02 L842.946 1353.04 L839.132 1349.22 Z" fill="#000000" fill-rule="evenodd" fill-opacity="1" /><path clip-path="url(#clip980)" d="M848.445 1339.91 L851.457 1336.9 L876.926 1362.37 L873.914 1365.38 L848.445 1339.91 Z" fill="#000000" fill-rule="evenodd" fill-opacity="1" /><path clip-path="url(#clip980)" d="M952.346 1402.94 L957.273 1398.02 L980.139 1408.41 L969.778 1385.51 L974.705 1380.58 L999.143 1405.02 L995.918 1408.25 L974.459 1386.79 L984.919 1409.85 L981.596 1413.17 L958.533 1402.71 L979.992 1424.17 L976.784 1427.38 L952.346 1402.94 Z" fill="#000000" fill-rule="evenodd" fill-opacity="1" /><path clip-path="url(#clip980)" d="M1004.69 1381.04 Q1001.04 1384.69 1000.47 1386.93 Q999.895 1389.18 1001.91 1391.19 Q1003.51 1392.79 1005.51 1392.7 Q1007.51 1392.57 1009.32 1390.75 Q1011.83 1388.24 1011.57 1384.97 Q1011.3 1381.66 1008.36 1378.72 L1007.69 1378.05 L1004.69 1381.04 M1009.45 1373.79 L1019.91 1384.25 L1016.9 1387.26 L1014.12 1384.48 Q1014.76 1387.18 1014.02 1389.52 Q1013.27 1391.84 1011.04 1394.07 Q1008.23 1396.89 1004.99 1396.98 Q1001.75 1397.05 999.093 1394.4 Q996 1391.3 996.491 1387.67 Q996.998 1384.02 1001.11 1379.91 L1005.33 1375.69 L1005.04 1375.39 Q1002.96 1373.32 1000.45 1373.56 Q997.948 1373.77 995.476 1376.25 Q993.905 1377.82 992.792 1379.68 Q991.679 1381.55 991.057 1383.68 L988.274 1380.89 Q989.289 1378.6 990.533 1376.74 Q991.76 1374.85 993.234 1373.38 Q997.211 1369.4 1001.24 1369.5 Q1005.26 1369.6 1009.45 1373.79 Z" fill="#000000" fill-rule="evenodd" fill-opacity="1" /><path clip-path="url(#clip980)" d="M1035.45 1372.12 Q1037.44 1376.67 1037.23 1378.88 Q1037.02 1381.09 1034.99 1383.12 L1032.58 1385.53 L1030.06 1383.01 L1031.83 1381.24 Q1033.07 1379.99 1033.17 1378.72 Q1033.27 1377.44 1031.91 1374.41 L1031.08 1372.5 L1005.62 1361.87 L1008.82 1358.68 L1028.88 1367.29 L1020.27 1347.23 L1023.47 1344.03 L1035.45 1372.12 Z" fill="#000000" fill-rule="evenodd" fill-opacity="1" /><path clip-path="url(#clip980)" d="M1114.3 1405.86 L1117.61 1402.55 L1140.35 1425.28 Q1144.77 1429.7 1145.08 1433.39 Q1145.4 1437.05 1141.69 1440.77 L1140.43 1442.03 L1137.65 1439.25 L1138.68 1438.22 Q1140.87 1436.02 1140.54 1433.89 Q1140.22 1431.77 1137.04 1428.59 L1114.3 1405.86 Z" fill="#000000" fill-rule="evenodd" fill-opacity="1" /><path clip-path="url(#clip980)" d="M1140.95 1413.61 L1129.85 1402.52 L1132.87 1399.51 L1143.85 1410.49 Q1146.45 1413.09 1148.78 1413.39 Q1151.08 1413.66 1153.11 1411.63 Q1155.55 1409.2 1155.4 1406.23 Q1155.27 1403.25 1152.59 1400.57 L1142.2 1390.18 L1145.21 1387.16 L1163.54 1405.5 L1160.53 1408.51 L1157.71 1405.69 Q1158.29 1408.46 1157.65 1410.73 Q1157.01 1412.98 1155.09 1414.89 Q1151.93 1418.05 1148.33 1417.72 Q1144.73 1417.4 1140.95 1413.61 M1136.99 1394.5 L1136.99 1394.5 Z" fill="#000000" fill-rule="evenodd" fill-opacity="1" /><path clip-path="url(#clip980)" d="M1173.92 1372.99 L1184.98 1384.05 L1181.97 1387.07 L1171 1376.1 Q1168.4 1373.5 1166.09 1373.22 Q1163.79 1372.94 1161.76 1374.97 Q1159.32 1377.41 1159.46 1380.37 Q1159.61 1383.33 1162.3 1386.02 L1172.66 1396.38 L1169.63 1399.41 L1151.3 1381.07 L1154.32 1378.05 L1157.17 1380.89 Q1156.6 1378.16 1157.24 1375.89 Q1157.89 1373.59 1159.81 1371.68 Q1162.97 1368.52 1166.55 1368.86 Q1170.12 1369.19 1173.92 1372.99 Z" fill="#000000" fill-rule="evenodd" fill-opacity="1" /><path clip-path="url(#clip980)" d="M1196.75 1352.45 L1198.22 1353.92 L1184.38 1367.77 Q1187.68 1370.68 1190.99 1370.65 Q1194.3 1370.58 1197.29 1367.59 Q1199.03 1365.85 1200.22 1363.81 Q1201.43 1361.74 1202.18 1359.29 L1205.03 1362.14 Q1204.1 1364.44 1202.76 1366.51 Q1201.42 1368.57 1199.66 1370.32 Q1195.28 1374.71 1190.15 1374.72 Q1185.05 1374.72 1180.69 1370.37 Q1176.19 1365.87 1175.98 1360.81 Q1175.77 1355.72 1179.89 1351.6 Q1183.59 1347.9 1188.12 1348.14 Q1192.66 1348.35 1196.75 1352.45 M1192.86 1354.57 Q1190.35 1352.14 1187.52 1352.02 Q1184.7 1351.89 1182.48 1354.12 Q1179.96 1356.64 1179.86 1359.58 Q1179.78 1362.51 1182.13 1365.33 L1192.86 1354.57 Z" fill="#000000" fill-rule="evenodd" fill-opacity="1" /><path clip-path="url(#clip980)" d="M1291.11 1393.92 L1294.42 1390.62 L1317.15 1413.35 Q1321.57 1417.77 1321.88 1421.45 Q1322.21 1425.12 1318.49 1428.84 L1317.23 1430.1 L1314.45 1427.31 L1315.48 1426.28 Q1317.67 1424.09 1317.35 1421.96 Q1317.02 1419.83 1313.84 1416.66 L1291.11 1393.92 Z" fill="#000000" fill-rule="evenodd" fill-opacity="1" /><path clip-path="url(#clip980)" d="M1317.76 1401.68 L1306.66 1390.58 L1309.67 1387.57 L1320.65 1398.56 Q1323.26 1401.16 1325.58 1401.45 Q1327.89 1401.73 1329.92 1399.7 Q1332.36 1397.26 1332.21 1394.3 Q1332.08 1391.32 1329.39 1388.64 L1319 1378.24 L1322.01 1375.23 L1340.34 1393.56 L1337.33 1396.58 L1334.52 1393.76 Q1335.09 1396.53 1334.45 1398.8 Q1333.81 1401.04 1331.9 1402.96 Q1328.74 1406.12 1325.14 1405.79 Q1321.54 1405.46 1317.76 1401.68 M1313.79 1382.56 L1313.79 1382.56 Z" fill="#000000" fill-rule="evenodd" fill-opacity="1" /><path clip-path="url(#clip980)" d="M1321.08 1361.89 L1324.09 1358.88 L1349.56 1384.35 L1346.55 1387.36 L1321.08 1361.89 Z" fill="#000000" fill-rule="evenodd" fill-opacity="1" /><path clip-path="url(#clip980)" d="M1365.19 1372.12 Q1367.19 1376.67 1366.97 1378.88 Q1366.76 1381.09 1364.73 1383.12 L1362.33 1385.53 L1359.81 1383.01 L1361.57 1381.24 Q1362.82 1379.99 1362.92 1378.72 Q1363.01 1377.44 1361.66 1374.41 L1360.82 1372.5 L1335.37 1361.87 L1338.56 1358.68 L1358.63 1367.29 L1350.02 1347.23 L1353.21 1344.03 L1365.19 1372.12 Z" fill="#000000" fill-rule="evenodd" fill-opacity="1" /><path clip-path="url(#clip980)" d="M1410.18 1446.24 L1417.86 1462.88 L1426.85 1453.9 L1410.18 1446.24 M1405.06 1444.84 L1408.81 1441.1 L1442.56 1456.22 L1439.12 1459.66 L1430.63 1455.62 L1419.61 1466.63 L1423.65 1475.13 L1420.17 1478.61 L1405.06 1444.84 Z" fill="#000000" fill-rule="evenodd" fill-opacity="1" /><path clip-path="url(#clip980)" d="M1438.45 1445.86 L1427.35 1434.76 L1430.36 1431.75 L1441.35 1442.73 Q1443.95 1445.34 1446.27 1445.63 Q1448.58 1445.91 1450.61 1443.88 Q1453.05 1441.44 1452.9 1438.48 Q1452.77 1435.5 1450.09 1432.81 L1439.69 1422.42 L1442.71 1419.41 L1461.04 1437.74 L1458.03 1440.75 L1455.21 1437.94 Q1455.78 1440.7 1455.15 1442.98 Q1454.51 1445.22 1452.59 1447.14 Q1449.43 1450.3 1445.83 1449.97 Q1442.23 1449.64 1438.45 1445.86 M1434.49 1426.74 L1434.49 1426.74 Z" fill="#000000" fill-rule="evenodd" fill-opacity="1" /><path clip-path="url(#clip980)" d="M1469.93 1410.1 Q1466.65 1406.82 1463.49 1406.38 Q1460.35 1405.92 1457.91 1408.36 Q1455.49 1410.78 1455.93 1413.94 Q1456.39 1417.08 1459.66 1420.36 Q1462.92 1423.62 1466.06 1424.07 Q1469.22 1424.52 1471.64 1422.09 Q1474.08 1419.65 1473.63 1416.51 Q1473.18 1413.35 1469.93 1410.1 M1480.04 1414.19 Q1484.72 1418.87 1484.92 1423.22 Q1485.13 1427.59 1480.84 1431.88 Q1479.26 1433.47 1477.6 1434.63 Q1475.97 1435.81 1474.15 1436.64 L1471.22 1433.71 Q1473.27 1433.11 1474.9 1432.16 Q1476.54 1431.21 1477.88 1429.87 Q1480.84 1426.91 1480.76 1423.88 Q1480.7 1420.87 1477.57 1417.74 L1476.08 1416.25 Q1476.77 1418.8 1476.11 1421.06 Q1475.46 1423.32 1473.43 1425.35 Q1470.06 1428.72 1465.42 1428.21 Q1460.79 1427.71 1456.55 1423.47 Q1452.3 1419.21 1451.79 1414.58 Q1451.28 1409.95 1454.65 1406.58 Q1456.68 1404.55 1458.94 1403.89 Q1461.2 1403.24 1463.76 1403.92 L1460.97 1401.14 L1463.98 1398.13 L1480.04 1414.19 Z" fill="#000000" fill-rule="evenodd" fill-opacity="1" /><path clip-path="url(#clip980)" d="M1480.97 1403.34 L1469.88 1392.24 L1472.89 1389.23 L1483.87 1400.21 Q1486.47 1402.81 1488.8 1403.11 Q1491.11 1403.38 1493.14 1401.35 Q1495.58 1398.92 1495.43 1395.95 Q1495.3 1392.97 1492.61 1390.29 L1482.22 1379.9 L1485.23 1376.88 L1503.56 1395.22 L1500.55 1398.23 L1497.74 1395.41 Q1498.31 1398.18 1497.67 1400.45 Q1497.03 1402.7 1495.12 1404.61 Q1491.96 1407.77 1488.36 1407.44 Q1484.76 1407.12 1480.97 1403.34 M1477.01 1384.22 L1477.01 1384.22 Z" fill="#000000" fill-rule="evenodd" fill-opacity="1" /><path clip-path="url(#clip980)" d="M1503.66 1359.53 L1506.51 1362.38 Q1504.58 1363 1502.88 1364.05 Q1501.17 1365.1 1499.7 1366.57 Q1497.46 1368.81 1497.02 1370.63 Q1496.59 1372.43 1497.96 1373.81 Q1499.01 1374.85 1500.42 1374.66 Q1501.81 1374.45 1504.77 1372.56 L1506.03 1371.76 Q1509.93 1369.24 1512.53 1369.16 Q1515.13 1369.04 1517.38 1371.29 Q1519.93 1373.84 1519.39 1377.36 Q1518.87 1380.86 1515.33 1384.4 Q1513.86 1385.87 1511.96 1387.18 Q1510.09 1388.49 1507.75 1389.68 L1504.64 1386.57 Q1507.18 1385.77 1509.24 1384.59 Q1511.29 1383.4 1512.88 1381.81 Q1515 1379.68 1515.43 1377.82 Q1515.84 1375.94 1514.51 1374.61 Q1513.29 1373.38 1511.8 1373.56 Q1510.32 1373.73 1506.92 1375.92 L1505.63 1376.72 Q1502.24 1378.93 1499.78 1378.96 Q1497.31 1378.98 1495.18 1376.85 Q1492.6 1374.27 1493.02 1371.02 Q1493.45 1367.78 1496.82 1364.41 Q1498.49 1362.74 1500.21 1361.51 Q1501.93 1360.29 1503.66 1359.53 Z" fill="#000000" fill-rule="evenodd" fill-opacity="1" /><path clip-path="url(#clip980)" d="M1506.67 1345.03 L1511.88 1350.24 L1518.08 1344.03 L1520.42 1346.37 L1514.22 1352.58 L1524.17 1362.53 Q1526.41 1364.77 1527.66 1364.8 Q1528.92 1364.82 1530.8 1362.94 L1533.89 1359.85 L1536.41 1362.37 L1533.32 1365.46 Q1529.83 1368.95 1527.21 1368.98 Q1524.58 1368.99 1521.14 1365.56 L1511.19 1355.61 L1508.98 1357.82 L1506.64 1355.47 L1508.85 1353.27 L1503.64 1348.06 L1506.67 1345.03 Z" fill="#000000" fill-rule="evenodd" fill-opacity="1" /><path clip-path="url(#clip980)" d="M1510.3 1506.08 L1513.53 1509.3 Q1510.74 1510.28 1508.63 1511.51 Q1506.52 1512.74 1504.97 1514.29 Q1502.27 1517 1501.84 1519.52 Q1501.43 1522.02 1503.36 1523.95 Q1504.98 1525.57 1506.78 1525.44 Q1508.58 1525.28 1511.81 1523.07 L1514.21 1521.48 Q1518.62 1518.49 1522.15 1518.52 Q1525.69 1518.52 1528.67 1521.5 Q1532.22 1525.05 1531.66 1529.27 Q1531.12 1533.48 1526.52 1538.08 Q1524.79 1539.81 1522.43 1541.38 Q1520.09 1542.94 1517.23 1544.26 L1513.82 1540.86 Q1516.96 1539.98 1519.47 1538.62 Q1521.97 1537.26 1523.84 1535.39 Q1526.67 1532.56 1527.1 1529.91 Q1527.52 1527.26 1525.46 1525.2 Q1523.66 1523.4 1521.53 1523.49 Q1519.42 1523.58 1516.39 1525.59 L1513.98 1527.21 Q1509.55 1530.17 1506.32 1530.25 Q1503.1 1530.34 1500.3 1527.54 Q1497.06 1524.3 1497.47 1520.15 Q1497.9 1516 1501.91 1511.99 Q1503.62 1510.27 1505.72 1508.8 Q1507.81 1507.32 1510.3 1506.08 Z" fill="#000000" fill-rule="evenodd" fill-opacity="1" /><path clip-path="url(#clip980)" d="M1546.2 1497.62 L1547.67 1499.09 L1533.82 1512.94 Q1537.13 1515.85 1540.44 1515.82 Q1543.74 1515.75 1546.74 1512.76 Q1548.47 1511.02 1549.67 1508.98 Q1550.88 1506.91 1551.63 1504.46 L1554.48 1507.31 Q1553.55 1509.61 1552.2 1511.68 Q1550.86 1513.74 1549.11 1515.49 Q1544.72 1519.88 1539.6 1519.89 Q1534.49 1519.89 1530.14 1515.54 Q1525.64 1511.04 1525.43 1505.98 Q1525.21 1500.89 1529.34 1496.76 Q1533.04 1493.07 1537.57 1493.31 Q1542.11 1493.52 1546.2 1497.62 M1542.3 1499.74 Q1539.8 1497.3 1536.97 1497.19 Q1534.15 1497.06 1531.92 1499.29 Q1529.4 1501.81 1529.31 1504.75 Q1529.22 1507.68 1531.58 1510.5 L1542.3 1499.74 Z" fill="#000000" fill-rule="evenodd" fill-opacity="1" /><path clip-path="url(#clip980)" d="M1561.22 1496.93 L1570.95 1506.65 L1567.92 1509.68 L1542.61 1484.37 L1545.64 1481.35 L1548.42 1484.13 Q1547.74 1481.54 1548.39 1479.32 Q1549.05 1477.06 1551.06 1475.04 Q1554.4 1471.7 1559.13 1472.28 Q1563.88 1472.83 1568.2 1477.16 Q1572.52 1481.48 1573.07 1486.22 Q1573.65 1490.95 1570.31 1494.29 Q1568.29 1496.31 1566.05 1496.98 Q1563.81 1497.62 1561.22 1496.93 M1565.07 1480.28 Q1561.75 1476.96 1558.49 1476.45 Q1555.23 1475.91 1552.84 1478.3 Q1550.45 1480.69 1550.98 1483.96 Q1551.5 1487.21 1554.82 1490.53 Q1558.15 1493.85 1561.4 1494.39 Q1564.66 1494.9 1567.05 1492.51 Q1569.44 1490.12 1568.92 1486.88 Q1568.39 1483.6 1565.07 1480.28 Z" fill="#000000" fill-rule="evenodd" fill-opacity="1" /><path clip-path="url(#clip980)" d="M1561.78 1454.8 L1566.98 1460 L1573.19 1453.8 L1575.53 1456.14 L1569.33 1462.34 L1579.28 1472.29 Q1581.52 1474.54 1582.76 1474.57 Q1584.02 1474.59 1585.91 1472.7 L1589 1469.61 L1591.52 1472.13 L1588.43 1475.22 Q1584.94 1478.71 1582.32 1478.74 Q1579.69 1478.76 1576.25 1475.32 L1566.3 1465.37 L1564.09 1467.58 L1561.75 1465.24 L1563.96 1463.03 L1558.75 1457.82 L1561.78 1454.8 Z" fill="#000000" fill-rule="evenodd" fill-opacity="1" /><path clip-path="url(#clip980)" d="M1601.24 1442.57 L1602.72 1444.04 L1588.87 1457.89 Q1592.18 1460.8 1595.48 1460.77 Q1598.79 1460.71 1601.78 1457.71 Q1603.52 1455.98 1604.71 1453.93 Q1605.92 1451.87 1606.68 1449.41 L1609.53 1452.26 Q1608.59 1454.57 1607.25 1456.63 Q1605.91 1458.69 1604.16 1460.44 Q1599.77 1464.83 1594.65 1464.85 Q1589.54 1464.85 1585.19 1460.49 Q1580.69 1455.99 1580.47 1450.93 Q1580.26 1445.84 1584.38 1441.72 Q1588.08 1438.02 1592.62 1438.26 Q1597.15 1438.48 1601.24 1442.57 M1597.35 1444.7 Q1594.84 1442.26 1592.01 1442.14 Q1589.2 1442.01 1586.97 1444.24 Q1584.45 1446.76 1584.35 1449.71 Q1584.27 1452.64 1586.63 1455.45 L1597.35 1444.7 Z" fill="#000000" fill-rule="evenodd" fill-opacity="1" /><path clip-path="url(#clip980)" d="M1615.57 1418.46 Q1614.67 1415.3 1615.27 1412.76 Q1615.88 1410.23 1618 1408.1 Q1620.87 1405.23 1624.44 1405.69 Q1627.99 1406.13 1631.69 1409.83 L1642.75 1420.9 L1639.72 1423.93 L1628.76 1412.96 Q1626.12 1410.32 1623.91 1409.98 Q1621.7 1409.64 1619.79 1411.55 Q1617.45 1413.89 1617.64 1416.81 Q1617.84 1419.72 1620.53 1422.4 L1630.89 1432.77 L1627.86 1435.79 L1616.89 1424.83 Q1614.24 1422.18 1612.05 1421.85 Q1609.84 1421.5 1607.89 1423.45 Q1605.58 1425.76 1605.79 1428.69 Q1605.99 1431.6 1608.66 1434.27 L1619.02 1444.63 L1615.99 1447.66 L1597.66 1429.33 L1600.69 1426.3 L1603.53 1429.15 Q1602.88 1426.43 1603.52 1424.19 Q1604.16 1421.95 1606.14 1419.97 Q1608.13 1417.97 1610.54 1417.59 Q1612.96 1417.2 1615.57 1418.46 Z" fill="#000000" fill-rule="evenodd" fill-opacity="1" /><path clip-path="url(#clip980)" d="M1652.77 1392.58 Q1649.45 1389.26 1646.19 1388.75 Q1642.93 1388.21 1640.54 1390.6 Q1638.15 1392.99 1638.68 1396.26 Q1639.2 1399.51 1642.52 1402.83 Q1645.85 1406.15 1649.1 1406.69 Q1652.36 1407.2 1654.75 1404.81 Q1657.14 1402.42 1656.62 1399.18 Q1656.09 1395.9 1652.77 1392.58 M1636.12 1396.43 Q1635.44 1393.84 1636.09 1391.62 Q1636.75 1389.36 1638.76 1387.34 Q1642.1 1384 1646.83 1384.58 Q1651.58 1385.13 1655.9 1389.46 Q1660.22 1393.78 1660.77 1398.52 Q1661.35 1403.25 1658.01 1406.59 Q1655.99 1408.61 1653.75 1409.28 Q1651.51 1409.92 1648.92 1409.23 L1651.67 1411.98 L1648.65 1415.01 L1623.18 1389.54 L1626.2 1386.51 L1636.12 1396.43 Z" fill="#000000" fill-rule="evenodd" fill-opacity="1" /><path clip-path="url(#clip980)" d="M1675.8 1368.01 L1677.27 1369.49 L1663.43 1383.33 Q1666.73 1386.25 1670.04 1386.21 Q1673.35 1386.15 1676.34 1383.15 Q1678.08 1381.42 1679.27 1379.37 Q1680.48 1377.31 1681.23 1374.85 L1684.08 1377.7 Q1683.15 1380.01 1681.81 1382.07 Q1680.47 1384.14 1678.71 1385.89 Q1674.33 1390.27 1669.2 1390.29 Q1664.1 1390.29 1659.74 1385.94 Q1655.24 1381.43 1655.03 1376.38 Q1654.82 1371.29 1658.94 1367.16 Q1662.64 1363.46 1667.17 1363.71 Q1671.71 1363.92 1675.8 1368.01 M1671.9 1370.14 Q1669.4 1367.7 1666.57 1367.59 Q1663.75 1367.46 1661.53 1369.68 Q1659.01 1372.2 1658.91 1375.15 Q1658.83 1378.08 1661.18 1380.89 L1671.9 1370.14 Z" fill="#000000" fill-rule="evenodd" fill-opacity="1" /><path clip-path="url(#clip980)" d="M1685.77 1346.85 Q1684.97 1347.06 1684.23 1347.54 Q1683.49 1347.98 1682.77 1348.7 Q1680.22 1351.25 1680.51 1354.3 Q1680.81 1357.31 1683.92 1360.42 L1693.58 1370.08 L1690.55 1373.1 L1672.22 1354.77 L1675.24 1351.74 L1678.09 1354.59 Q1677.37 1351.97 1678.09 1349.65 Q1678.8 1347.31 1680.97 1345.13 Q1681.28 1344.82 1681.71 1344.49 Q1682.12 1344.15 1682.66 1343.77 L1685.77 1346.85 Z" fill="#000000" fill-rule="evenodd" fill-opacity="1" /><path clip-path="url(#clip980)" d="M1723.02 1461.11 Q1719.42 1464.72 1719.97 1469.53 Q1720.55 1474.32 1725.18 1478.96 Q1729.79 1483.57 1734.59 1484.14 Q1739.4 1484.7 1743 1481.1 Q1746.6 1477.5 1746.02 1472.72 Q1745.44 1467.92 1740.83 1463.31 Q1736.19 1458.68 1731.4 1458.1 Q1726.62 1457.51 1723.02 1461.11 M1720.33 1458.43 Q1725.47 1453.29 1732 1453.67 Q1738.52 1454.03 1744.31 1459.82 Q1750.09 1465.6 1750.47 1472.13 Q1750.83 1478.65 1745.69 1483.78 Q1740.53 1488.94 1734 1488.6 Q1727.49 1488.24 1721.69 1482.44 Q1715.9 1476.65 1715.54 1470.13 Q1715.18 1463.59 1720.33 1458.43 Z" fill="#000000" fill-rule="evenodd" fill-opacity="1" /><path clip-path="url(#clip980)" d="M1757.11 1436.15 L1759.93 1438.97 Q1757.95 1439.54 1756.31 1440.49 Q1754.67 1441.41 1753.36 1442.72 Q1750.43 1445.65 1750.68 1449.13 Q1750.91 1452.6 1754.26 1455.96 Q1757.62 1459.31 1761.11 1459.56 Q1764.58 1459.79 1767.51 1456.86 Q1768.82 1455.55 1769.75 1453.93 Q1770.68 1452.28 1771.25 1450.3 L1774.04 1453.08 Q1773.37 1454.93 1772.3 1456.58 Q1771.25 1458.22 1769.73 1459.74 Q1765.59 1463.88 1760.55 1463.72 Q1755.51 1463.55 1751.09 1459.13 Q1746.6 1454.65 1746.49 1449.62 Q1746.39 1444.58 1750.68 1440.29 Q1752.07 1438.9 1753.69 1437.87 Q1755.3 1436.82 1757.11 1436.15 Z" fill="#000000" fill-rule="evenodd" fill-opacity="1" /><path clip-path="url(#clip980)" d="M1759.42 1422.03 L1764.63 1427.23 L1770.83 1421.03 L1773.17 1423.37 L1766.97 1429.57 L1776.92 1439.53 Q1779.16 1441.77 1780.4 1441.8 Q1781.67 1441.82 1783.55 1439.93 L1786.64 1436.84 L1789.16 1439.36 L1786.07 1442.46 Q1782.58 1445.94 1779.96 1445.97 Q1777.33 1445.99 1773.89 1442.55 L1763.94 1432.6 L1761.73 1434.81 L1759.39 1432.47 L1761.6 1430.26 L1756.39 1425.06 L1759.42 1422.03 Z" fill="#000000" fill-rule="evenodd" fill-opacity="1" /><path clip-path="url(#clip980)" d="M1784.01 1412.08 Q1781.58 1414.5 1782.07 1417.8 Q1782.55 1421.09 1785.84 1424.38 Q1789.13 1427.67 1792.42 1428.18 Q1795.71 1428.66 1798.15 1426.22 Q1800.55 1423.81 1800.06 1420.51 Q1799.57 1417.2 1796.3 1413.93 Q1793.04 1410.67 1789.73 1410.18 Q1786.41 1409.67 1784.01 1412.08 M1781.45 1409.52 Q1785.38 1405.59 1790.18 1405.91 Q1794.97 1406.22 1799.49 1410.73 Q1803.99 1415.23 1804.32 1420.05 Q1804.63 1424.84 1800.7 1428.77 Q1796.76 1432.72 1791.96 1432.41 Q1787.16 1432.06 1782.66 1427.56 Q1778.15 1423.04 1777.82 1418.26 Q1777.51 1413.47 1781.45 1409.52 Z" fill="#000000" fill-rule="evenodd" fill-opacity="1" /><path clip-path="url(#clip980)" d="M1817.64 1392.58 Q1814.32 1389.26 1811.06 1388.75 Q1807.8 1388.21 1805.42 1390.6 Q1803.03 1392.99 1803.55 1396.26 Q1804.07 1399.51 1807.4 1402.83 Q1810.72 1406.15 1813.98 1406.69 Q1817.23 1407.2 1819.62 1404.81 Q1822.01 1402.42 1821.49 1399.18 Q1820.96 1395.9 1817.64 1392.58 M1801 1396.43 Q1800.31 1393.84 1800.96 1391.62 Q1801.62 1389.36 1803.63 1387.34 Q1806.97 1384 1811.7 1384.58 Q1816.45 1385.13 1820.77 1389.46 Q1825.09 1393.78 1825.65 1398.52 Q1826.22 1403.25 1822.88 1406.59 Q1820.87 1408.61 1818.62 1409.28 Q1816.38 1409.92 1813.8 1409.23 L1816.55 1411.98 L1813.52 1415.01 L1788.05 1389.54 L1791.08 1386.51 L1801 1396.43 Z" fill="#000000" fill-rule="evenodd" fill-opacity="1" /><path clip-path="url(#clip980)" d="M1840.67 1368.01 L1842.15 1369.49 L1828.3 1383.33 Q1831.6 1386.25 1834.91 1386.21 Q1838.22 1386.15 1841.21 1383.15 Q1842.95 1381.42 1844.14 1379.37 Q1845.35 1377.31 1846.11 1374.85 L1848.95 1377.7 Q1848.02 1380.01 1846.68 1382.07 Q1845.34 1384.14 1843.59 1385.89 Q1839.2 1390.27 1834.08 1390.29 Q1828.97 1390.29 1824.62 1385.94 Q1820.11 1381.43 1819.9 1376.38 Q1819.69 1371.29 1823.81 1367.16 Q1827.51 1363.46 1832.05 1363.71 Q1836.58 1363.92 1840.67 1368.01 M1836.78 1370.14 Q1834.27 1367.7 1831.44 1367.59 Q1828.63 1367.46 1826.4 1369.68 Q1823.88 1372.2 1823.78 1375.15 Q1823.7 1378.08 1826.06 1380.89 L1836.78 1370.14 Z" fill="#000000" fill-rule="evenodd" fill-opacity="1" /><path clip-path="url(#clip980)" d="M1850.64 1346.85 Q1849.84 1347.06 1849.1 1347.54 Q1848.37 1347.98 1847.64 1348.7 Q1845.09 1351.25 1845.39 1354.3 Q1845.68 1357.31 1848.79 1360.42 L1858.45 1370.08 L1855.42 1373.1 L1837.09 1354.77 L1840.12 1351.74 L1842.96 1354.59 Q1842.24 1351.97 1842.96 1349.65 Q1843.67 1347.31 1845.84 1345.13 Q1846.16 1344.82 1846.58 1344.49 Q1846.99 1344.15 1847.53 1343.77 L1850.64 1346.85 Z" fill="#000000" fill-rule="evenodd" fill-opacity="1" /><path clip-path="url(#clip980)" d="M1835.5 1509.02 L1839.95 1504.57 L1871.23 1514.18 L1850.78 1493.74 L1853.99 1490.53 L1878.43 1514.97 L1873.98 1519.42 L1842.7 1509.81 L1863.14 1530.25 L1859.93 1533.46 L1835.5 1509.02 Z" fill="#000000" fill-rule="evenodd" fill-opacity="1" /><path clip-path="url(#clip980)" d="M1875.76 1485.19 Q1873.34 1487.61 1873.83 1490.92 Q1874.3 1494.21 1877.59 1497.5 Q1880.88 1500.79 1884.17 1501.3 Q1887.46 1501.77 1889.9 1499.33 Q1892.31 1496.93 1891.82 1493.62 Q1891.33 1490.32 1888.05 1487.04 Q1884.8 1483.78 1881.49 1483.29 Q1878.17 1482.79 1875.76 1485.19 M1873.21 1482.64 Q1877.14 1478.71 1881.93 1479.02 Q1886.73 1479.33 1891.25 1483.85 Q1895.75 1488.35 1896.07 1493.16 Q1896.39 1497.96 1892.46 1501.89 Q1888.51 1505.83 1883.72 1505.52 Q1878.92 1505.18 1874.42 1500.68 Q1869.9 1496.16 1869.57 1491.38 Q1869.26 1486.58 1873.21 1482.64 Z" fill="#000000" fill-rule="evenodd" fill-opacity="1" /><path clip-path="url(#clip980)" d="M1884.89 1471.84 L1888.09 1468.64 L1909.2 1478.3 L1899.54 1457.19 L1902.74 1453.99 L1914.19 1479.2 L1910.1 1483.29 L1884.89 1471.84 Z" fill="#000000" fill-rule="evenodd" fill-opacity="1" /><path clip-path="url(#clip980)" d="M1930.99 1442.57 L1932.46 1444.04 L1918.61 1457.89 Q1921.92 1460.8 1925.23 1460.77 Q1928.53 1460.71 1931.53 1457.71 Q1933.26 1455.98 1934.46 1453.93 Q1935.67 1451.87 1936.42 1449.41 L1939.27 1452.26 Q1938.34 1454.57 1936.99 1456.63 Q1935.65 1458.69 1933.9 1460.44 Q1929.51 1464.83 1924.39 1464.85 Q1919.28 1464.85 1914.93 1460.49 Q1910.43 1455.99 1910.22 1450.93 Q1910 1445.84 1914.13 1441.72 Q1917.83 1438.02 1922.36 1438.26 Q1926.9 1438.48 1930.99 1442.57 M1927.09 1444.7 Q1924.59 1442.26 1921.76 1442.14 Q1918.94 1442.01 1916.71 1444.24 Q1914.19 1446.76 1914.1 1449.71 Q1914.01 1452.64 1916.37 1455.45 L1927.09 1444.7 Z" fill="#000000" fill-rule="evenodd" fill-opacity="1" /><path clip-path="url(#clip980)" d="M1945.31 1418.46 Q1944.41 1415.3 1945.01 1412.76 Q1945.62 1410.23 1947.75 1408.1 Q1950.61 1405.23 1954.18 1405.69 Q1957.73 1406.13 1961.43 1409.83 L1972.5 1420.9 L1969.47 1423.93 L1958.5 1412.96 Q1955.87 1410.32 1953.66 1409.98 Q1951.45 1409.64 1949.53 1411.55 Q1947.19 1413.89 1947.39 1416.81 Q1947.58 1419.72 1950.27 1422.4 L1960.63 1432.77 L1957.6 1435.79 L1946.64 1424.83 Q1943.98 1422.18 1941.79 1421.85 Q1939.58 1421.5 1937.63 1423.45 Q1935.32 1425.76 1935.54 1428.69 Q1935.73 1431.6 1938.4 1434.27 L1948.76 1444.63 L1945.73 1447.66 L1927.4 1429.33 L1930.43 1426.3 L1933.28 1429.15 Q1932.62 1426.43 1933.26 1424.19 Q1933.9 1421.95 1935.88 1419.97 Q1937.88 1417.97 1940.28 1417.59 Q1942.71 1417.2 1945.31 1418.46 Z" fill="#000000" fill-rule="evenodd" fill-opacity="1" /><path clip-path="url(#clip980)" d="M1982.51 1392.58 Q1979.19 1389.26 1975.93 1388.75 Q1972.68 1388.21 1970.29 1390.6 Q1967.9 1392.99 1968.42 1396.26 Q1968.94 1399.51 1972.27 1402.83 Q1975.59 1406.15 1978.85 1406.69 Q1982.1 1407.2 1984.49 1404.81 Q1986.88 1402.42 1986.36 1399.18 Q1985.84 1395.9 1982.51 1392.58 M1965.87 1396.43 Q1965.18 1393.84 1965.83 1391.62 Q1966.49 1389.36 1968.5 1387.34 Q1971.84 1384 1976.57 1384.58 Q1981.32 1385.13 1985.64 1389.46 Q1989.96 1393.78 1990.52 1398.52 Q1991.09 1403.25 1987.75 1406.59 Q1985.74 1408.61 1983.5 1409.28 Q1981.25 1409.92 1978.67 1409.23 L1981.42 1411.98 L1978.39 1415.01 L1952.92 1389.54 L1955.95 1386.51 L1965.87 1396.43 Z" fill="#000000" fill-rule="evenodd" fill-opacity="1" /><path clip-path="url(#clip980)" d="M2005.54 1368.01 L2007.02 1369.49 L1993.17 1383.33 Q1996.48 1386.25 1999.78 1386.21 Q2003.09 1386.15 2006.08 1383.15 Q2007.82 1381.42 2009.01 1379.37 Q2010.23 1377.31 2010.98 1374.85 L2013.83 1377.7 Q2012.89 1380.01 2011.55 1382.07 Q2010.21 1384.14 2008.46 1385.89 Q2004.07 1390.27 1998.95 1390.29 Q1993.84 1390.29 1989.49 1385.94 Q1984.99 1381.43 1984.77 1376.38 Q1984.56 1371.29 1988.68 1367.16 Q1992.38 1363.46 1996.92 1363.71 Q2001.45 1363.92 2005.54 1368.01 M2001.65 1370.14 Q1999.14 1367.7 1996.31 1367.59 Q1993.5 1367.46 1991.27 1369.68 Q1988.75 1372.2 1988.65 1375.15 Q1988.57 1378.08 1990.93 1380.89 L2001.65 1370.14 Z" fill="#000000" fill-rule="evenodd" fill-opacity="1" /><path clip-path="url(#clip980)" d="M2015.51 1346.85 Q2014.71 1347.06 2013.97 1347.54 Q2013.24 1347.98 2012.52 1348.7 Q2009.96 1351.25 2010.26 1354.3 Q2010.55 1357.31 2013.66 1360.42 L2023.32 1370.08 L2020.29 1373.1 L2001.96 1354.77 L2004.99 1351.74 L2007.84 1354.59 Q2007.12 1351.97 2007.84 1349.65 Q2008.54 1347.31 2010.72 1345.13 Q2011.03 1344.82 2011.45 1344.49 Q2011.86 1344.15 2012.4 1343.77 L2015.51 1346.85 Z" fill="#000000" fill-rule="evenodd" fill-opacity="1" /><path clip-path="url(#clip980)" d="M2006.95 1507.88 L2025.95 1526.88 L2029.94 1522.89 Q2035 1517.83 2035.05 1513.2 Q2035.12 1508.55 2030.17 1503.61 Q2025.26 1498.7 2020.63 1498.78 Q2016 1498.83 2010.94 1503.88 L2006.95 1507.88 M2000.92 1508.47 L2007.72 1501.68 Q2014.82 1494.57 2021.11 1494.21 Q2027.37 1493.83 2033.66 1500.12 Q2039.98 1506.44 2039.6 1512.74 Q2039.23 1519.04 2032.15 1526.11 L2025.36 1532.91 L2000.92 1508.47 Z" fill="#000000" fill-rule="evenodd" fill-opacity="1" /><path clip-path="url(#clip980)" d="M2056.8 1481.62 L2058.28 1483.1 L2044.43 1496.94 Q2047.74 1499.86 2051.04 1499.83 Q2054.35 1499.76 2057.34 1496.76 Q2059.08 1495.03 2060.27 1492.98 Q2061.49 1490.92 2062.24 1488.47 L2065.09 1491.31 Q2064.15 1493.62 2062.81 1495.68 Q2061.47 1497.75 2059.72 1499.5 Q2055.33 1503.88 2050.21 1503.9 Q2045.1 1503.9 2040.75 1499.55 Q2036.25 1495.05 2036.03 1489.99 Q2035.82 1484.9 2039.95 1480.77 Q2043.64 1477.07 2048.18 1477.32 Q2052.71 1477.53 2056.8 1481.62 M2052.91 1483.75 Q2050.4 1481.31 2047.57 1481.2 Q2044.76 1481.07 2042.53 1483.29 Q2040.01 1485.81 2039.91 1488.76 Q2039.83 1491.69 2042.19 1494.51 L2052.91 1483.75 Z" fill="#000000" fill-rule="evenodd" fill-opacity="1" /><path clip-path="url(#clip980)" d="M2067.23 1455.78 L2070.05 1458.59 Q2068.07 1459.17 2066.43 1460.12 Q2064.79 1461.03 2063.48 1462.34 Q2060.55 1465.27 2060.8 1468.76 Q2061.03 1472.23 2064.38 1475.58 Q2067.74 1478.94 2071.23 1479.19 Q2074.7 1479.41 2077.63 1476.48 Q2078.93 1475.18 2079.87 1473.55 Q2080.8 1471.9 2081.37 1469.92 L2084.16 1472.7 Q2083.48 1474.55 2082.42 1476.21 Q2081.37 1477.84 2079.85 1479.37 Q2075.71 1483.51 2070.67 1483.34 Q2065.63 1483.18 2061.21 1478.76 Q2056.72 1474.27 2056.61 1469.25 Q2056.51 1464.21 2060.8 1459.92 Q2062.19 1458.53 2063.81 1457.5 Q2065.41 1456.45 2067.23 1455.78 Z" fill="#000000" fill-rule="evenodd" fill-opacity="1" /><path clip-path="url(#clip980)" d="M2095.86 1442.57 L2097.33 1444.04 L2083.48 1457.89 Q2086.79 1460.8 2090.1 1460.77 Q2093.4 1460.71 2096.4 1457.71 Q2098.13 1455.98 2099.33 1453.93 Q2100.54 1451.87 2101.29 1449.41 L2104.14 1452.26 Q2103.21 1454.57 2101.87 1456.63 Q2100.52 1458.69 2098.77 1460.44 Q2094.39 1464.83 2089.26 1464.85 Q2084.16 1464.85 2079.8 1460.49 Q2075.3 1455.99 2075.09 1450.93 Q2074.88 1445.84 2079 1441.72 Q2082.7 1438.02 2087.23 1438.26 Q2091.77 1438.48 2095.86 1442.57 M2091.96 1444.7 Q2089.46 1442.26 2086.63 1442.14 Q2083.81 1442.01 2081.59 1444.24 Q2079.07 1446.76 2078.97 1449.71 Q2078.89 1452.64 2081.24 1455.45 L2091.96 1444.7 Z" fill="#000000" fill-rule="evenodd" fill-opacity="1" /><path clip-path="url(#clip980)" d="M2110.18 1418.46 Q2109.28 1415.3 2109.89 1412.76 Q2110.49 1410.23 2112.62 1408.1 Q2115.48 1405.23 2119.05 1405.69 Q2122.6 1406.13 2126.3 1409.83 L2137.37 1420.9 L2134.34 1423.93 L2123.37 1412.96 Q2120.74 1410.32 2118.53 1409.98 Q2116.32 1409.64 2114.4 1411.55 Q2112.06 1413.89 2112.26 1416.81 Q2112.46 1419.72 2115.14 1422.4 L2125.5 1432.77 L2122.47 1435.79 L2111.51 1424.83 Q2108.86 1422.18 2106.66 1421.85 Q2104.45 1421.5 2102.5 1423.45 Q2100.2 1425.76 2100.41 1428.69 Q2100.61 1431.6 2103.27 1434.27 L2113.63 1444.63 L2110.61 1447.66 L2092.27 1429.33 L2095.3 1426.3 L2098.15 1429.15 Q2097.5 1426.43 2098.13 1424.19 Q2098.77 1421.95 2100.75 1419.97 Q2102.75 1417.97 2105.16 1417.59 Q2107.58 1417.2 2110.18 1418.46 Z" fill="#000000" fill-rule="evenodd" fill-opacity="1" /><path clip-path="url(#clip980)" d="M2147.39 1392.58 Q2144.06 1389.26 2140.81 1388.75 Q2137.55 1388.21 2135.16 1390.6 Q2132.77 1392.99 2133.29 1396.26 Q2133.82 1399.51 2137.14 1402.83 Q2140.46 1406.15 2143.72 1406.69 Q2146.98 1407.2 2149.37 1404.81 Q2151.76 1402.42 2151.23 1399.18 Q2150.71 1395.9 2147.39 1392.58 M2130.74 1396.43 Q2130.05 1393.84 2130.71 1391.62 Q2131.36 1389.36 2133.37 1387.34 Q2136.71 1384 2141.44 1384.58 Q2146.19 1385.13 2150.51 1389.46 Q2154.83 1393.78 2155.39 1398.52 Q2155.96 1403.25 2152.62 1406.59 Q2150.61 1408.61 2148.37 1409.28 Q2146.13 1409.92 2143.54 1409.23 L2146.29 1411.98 L2143.26 1415.01 L2117.79 1389.54 L2120.82 1386.51 L2130.74 1396.43 Z" fill="#000000" fill-rule="evenodd" fill-opacity="1" /><path clip-path="url(#clip980)" d="M2170.42 1368.01 L2171.89 1369.49 L2158.04 1383.33 Q2161.35 1386.25 2164.65 1386.21 Q2167.96 1386.15 2170.96 1383.15 Q2172.69 1381.42 2173.89 1379.37 Q2175.1 1377.31 2175.85 1374.85 L2178.7 1377.7 Q2177.77 1380.01 2176.42 1382.07 Q2175.08 1384.14 2173.33 1385.89 Q2168.94 1390.27 2163.82 1390.29 Q2158.71 1390.29 2154.36 1385.94 Q2149.86 1381.43 2149.64 1376.38 Q2149.43 1371.29 2153.56 1367.16 Q2157.26 1363.46 2161.79 1363.71 Q2166.32 1363.92 2170.42 1368.01 M2166.52 1370.14 Q2164.02 1367.7 2161.18 1367.59 Q2158.37 1367.46 2156.14 1369.68 Q2153.62 1372.2 2153.52 1375.15 Q2153.44 1378.08 2155.8 1380.89 L2166.52 1370.14 Z" fill="#000000" fill-rule="evenodd" fill-opacity="1" /><path clip-path="url(#clip980)" d="M2180.38 1346.85 Q2179.58 1347.06 2178.85 1347.54 Q2178.11 1347.98 2177.39 1348.7 Q2174.84 1351.25 2175.13 1354.3 Q2175.42 1357.31 2178.53 1360.42 L2188.19 1370.08 L2185.16 1373.1 L2166.83 1354.77 L2169.86 1351.74 L2172.71 1354.59 Q2171.99 1351.97 2172.71 1349.65 Q2173.41 1347.31 2175.59 1345.13 Q2175.9 1344.82 2176.32 1344.49 Q2176.73 1344.15 2177.27 1343.77 L2180.38 1346.85 Z" fill="#000000" fill-rule="evenodd" fill-opacity="1" /><polyline clip-path="url(#clip982)" style="stroke:#000000; stroke-linecap:butt; stroke-linejoin:round; stroke-width:2; stroke-opacity:0.1; fill:none" points="
  166.805,1277.99 2352.76,1277.99 
  "/>
<polyline clip-path="url(#clip982)" style="stroke:#000000; stroke-linecap:butt; stroke-linejoin:round; stroke-width:2; stroke-opacity:0.1; fill:none" points="
  166.805,936.593 2352.76,936.593 
  "/>
<polyline clip-path="url(#clip982)" style="stroke:#000000; stroke-linecap:butt; stroke-linejoin:round; stroke-width:2; stroke-opacity:0.1; fill:none" points="
  166.805,595.192 2352.76,595.192 
  "/>
<polyline clip-path="url(#clip982)" style="stroke:#000000; stroke-linecap:butt; stroke-linejoin:round; stroke-width:2; stroke-opacity:0.1; fill:none" points="
  166.805,253.792 2352.76,253.792 
  "/>
<polyline clip-path="url(#clip980)" style="stroke:#000000; stroke-linecap:butt; stroke-linejoin:round; stroke-width:4; stroke-opacity:1; fill:none" points="
  166.805,1313.84 166.805,47.2441 
  "/>
<polyline clip-path="url(#clip980)" style="stroke:#000000; stroke-linecap:butt; stroke-linejoin:round; stroke-width:4; stroke-opacity:1; fill:none" points="
  166.805,1277.99 193.037,1277.99 
  "/>
<polyline clip-path="url(#clip980)" style="stroke:#000000; stroke-linecap:butt; stroke-linejoin:round; stroke-width:4; stroke-opacity:1; fill:none" points="
  166.805,936.593 193.037,936.593 
  "/>
<polyline clip-path="url(#clip980)" style="stroke:#000000; stroke-linecap:butt; stroke-linejoin:round; stroke-width:4; stroke-opacity:1; fill:none" points="
  166.805,595.192 193.037,595.192 
  "/>
<polyline clip-path="url(#clip980)" style="stroke:#000000; stroke-linecap:butt; stroke-linejoin:round; stroke-width:4; stroke-opacity:1; fill:none" points="
  166.805,253.792 193.037,253.792 
  "/>
<path clip-path="url(#clip980)" d="M118.861 1263.79 Q115.25 1263.79 113.421 1267.36 Q111.615 1270.9 111.615 1278.03 Q111.615 1285.13 113.421 1288.7 Q115.25 1292.24 118.861 1292.24 Q122.495 1292.24 124.301 1288.7 Q126.129 1285.13 126.129 1278.03 Q126.129 1270.9 124.301 1267.36 Q122.495 1263.79 118.861 1263.79 M118.861 1260.09 Q124.671 1260.09 127.727 1264.7 Q130.805 1269.28 130.805 1278.03 Q130.805 1286.76 127.727 1291.36 Q124.671 1295.94 118.861 1295.94 Q113.051 1295.94 109.972 1291.36 Q106.916 1286.76 106.916 1278.03 Q106.916 1269.28 109.972 1264.7 Q113.051 1260.09 118.861 1260.09 Z" fill="#000000" fill-rule="evenodd" fill-opacity="1" /><path clip-path="url(#clip980)" d="M114.486 949.938 L130.805 949.938 L130.805 953.873 L108.861 953.873 L108.861 949.938 Q111.523 947.183 116.106 942.554 Q120.713 937.901 121.893 936.558 Q124.139 934.035 125.018 932.299 Q125.921 930.54 125.921 928.85 Q125.921 926.095 123.977 924.359 Q122.055 922.623 118.953 922.623 Q116.754 922.623 114.301 923.387 Q111.87 924.151 109.092 925.702 L109.092 920.98 Q111.916 919.845 114.37 919.267 Q116.824 918.688 118.861 918.688 Q124.231 918.688 127.426 921.373 Q130.62 924.058 130.62 928.549 Q130.62 930.679 129.81 932.6 Q129.023 934.498 126.916 937.091 Q126.338 937.762 123.236 940.98 Q120.134 944.174 114.486 949.938 Z" fill="#000000" fill-rule="evenodd" fill-opacity="1" /><path clip-path="url(#clip980)" d="M121.222 581.986 L109.416 600.435 L121.222 600.435 L121.222 581.986 M119.995 577.912 L125.875 577.912 L125.875 600.435 L130.805 600.435 L130.805 604.324 L125.875 604.324 L125.875 612.472 L121.222 612.472 L121.222 604.324 L105.62 604.324 L105.62 599.81 L119.995 577.912 Z" fill="#000000" fill-rule="evenodd" fill-opacity="1" /><path clip-path="url(#clip980)" d="M119.277 251.928 Q116.129 251.928 114.278 254.081 Q112.449 256.234 112.449 259.984 Q112.449 263.71 114.278 265.886 Q116.129 268.039 119.277 268.039 Q122.426 268.039 124.254 265.886 Q126.106 263.71 126.106 259.984 Q126.106 256.234 124.254 254.081 Q122.426 251.928 119.277 251.928 M128.56 237.275 L128.56 241.535 Q126.801 240.701 124.995 240.262 Q123.213 239.822 121.453 239.822 Q116.824 239.822 114.37 242.947 Q111.94 246.072 111.592 252.391 Q112.958 250.377 115.018 249.312 Q117.078 248.224 119.555 248.224 Q124.764 248.224 127.773 251.396 Q130.805 254.544 130.805 259.984 Q130.805 265.308 127.657 268.525 Q124.509 271.743 119.277 271.743 Q113.282 271.743 110.111 267.16 Q106.94 262.553 106.94 253.826 Q106.94 245.632 110.828 240.771 Q114.717 235.887 121.268 235.887 Q123.027 235.887 124.81 236.234 Q126.615 236.581 128.56 237.275 Z" fill="#000000" fill-rule="evenodd" fill-opacity="1" /><path clip-path="url(#clip980)" d="M19.0762 1158.74 L19.0762 1151.66 L51.602 1134.42 L19.0762 1134.42 L19.0762 1129.32 L57.9562 1129.32 L57.9562 1136.4 L25.4303 1153.64 L57.9562 1153.64 L57.9562 1158.74 L19.0762 1158.74 Z" fill="#000000" fill-rule="evenodd" fill-opacity="1" /><path clip-path="url(#clip980)" d="M46.4458 1119.55 L28.7896 1119.55 L28.7896 1114.76 L46.2635 1114.76 Q50.4041 1114.76 52.4874 1113.14 Q54.5447 1111.53 54.5447 1108.3 Q54.5447 1104.42 52.0708 1102.18 Q49.5968 1099.92 45.326 1099.92 L28.7896 1099.92 L28.7896 1095.12 L57.9562 1095.12 L57.9562 1099.92 L53.477 1099.92 Q56.1333 1101.66 57.4353 1103.98 Q58.7114 1106.27 58.7114 1109.32 Q58.7114 1114.34 55.5864 1116.95 Q52.4614 1119.55 46.4458 1119.55 M28.0865 1107.49 L28.0865 1107.49 Z" fill="#000000" fill-rule="evenodd" fill-opacity="1" /><path clip-path="url(#clip980)" d="M34.3886 1062.55 Q31.1594 1060.75 29.623 1058.25 Q28.0865 1055.75 28.0865 1052.36 Q28.0865 1047.81 31.2896 1045.33 Q34.4667 1042.86 40.3521 1042.86 L57.9562 1042.86 L57.9562 1047.68 L40.5083 1047.68 Q36.3156 1047.68 34.2844 1049.16 Q32.2532 1050.64 32.2532 1053.69 Q32.2532 1057.42 34.7271 1059.58 Q37.2011 1061.74 41.4719 1061.74 L57.9562 1061.74 L57.9562 1066.56 L40.5083 1066.56 Q36.2896 1066.56 34.2844 1068.04 Q32.2532 1069.52 32.2532 1072.62 Q32.2532 1076.3 34.7532 1078.46 Q37.2271 1080.62 41.4719 1080.62 L57.9562 1080.62 L57.9562 1085.44 L28.7896 1085.44 L28.7896 1080.62 L33.3209 1080.62 Q30.6386 1078.98 29.3626 1076.69 Q28.0865 1074.39 28.0865 1071.24 Q28.0865 1068.07 29.7011 1065.85 Q31.3157 1063.61 34.3886 1062.55 Z" fill="#000000" fill-rule="evenodd" fill-opacity="1" /><path clip-path="url(#clip980)" d="M43.3989 1012.36 Q38.1125 1012.36 35.1177 1014.55 Q32.0969 1016.71 32.0969 1020.51 Q32.0969 1024.32 35.1177 1026.5 Q38.1125 1028.67 43.3989 1028.67 Q48.6854 1028.67 51.7062 1026.5 Q54.701 1024.32 54.701 1020.51 Q54.701 1016.71 51.7062 1014.55 Q48.6854 1012.36 43.3989 1012.36 M33.2167 1028.67 Q30.6126 1027.16 29.3626 1024.86 Q28.0865 1022.55 28.0865 1019.34 Q28.0865 1014.03 32.3053 1010.72 Q36.524 1007.39 43.3989 1007.39 Q50.2739 1007.39 54.4926 1010.72 Q58.7114 1014.03 58.7114 1019.34 Q58.7114 1022.55 57.4614 1024.86 Q56.1853 1027.16 53.5812 1028.67 L57.9562 1028.67 L57.9562 1033.48 L17.4355 1033.48 L17.4355 1028.67 L33.2167 1028.67 Z" fill="#000000" fill-rule="evenodd" fill-opacity="1" /><path clip-path="url(#clip980)" d="M42.175 974.499 L44.5187 974.499 L44.5187 996.53 Q49.4666 996.218 52.0708 993.562 Q54.6489 990.879 54.6489 986.114 Q54.6489 983.353 53.9718 980.775 Q53.2947 978.171 51.9406 975.619 L56.4718 975.619 Q57.5655 978.197 58.1384 980.905 Q58.7114 983.614 58.7114 986.4 Q58.7114 993.379 54.6489 997.468 Q50.5864 1001.53 43.6594 1001.53 Q36.4979 1001.53 32.3053 997.676 Q28.0865 993.796 28.0865 987.233 Q28.0865 981.348 31.8886 977.937 Q35.6646 974.499 42.175 974.499 M40.7687 979.291 Q36.8365 979.343 34.4927 981.504 Q32.149 983.64 32.149 987.181 Q32.149 991.192 34.4146 993.614 Q36.6802 996.009 40.7948 996.374 L40.7687 979.291 Z" fill="#000000" fill-rule="evenodd" fill-opacity="1" /><path clip-path="url(#clip980)" d="M33.2688 949.734 Q32.8 950.541 32.5917 951.505 Q32.3573 952.442 32.3573 953.588 Q32.3573 957.65 35.0136 959.838 Q37.6438 961.999 42.5917 961.999 L57.9562 961.999 L57.9562 966.817 L28.7896 966.817 L28.7896 961.999 L33.3209 961.999 Q30.6646 960.489 29.3886 958.067 Q28.0865 955.645 28.0865 952.182 Q28.0865 951.687 28.1647 951.088 Q28.2167 950.489 28.3469 949.76 L33.2688 949.734 Z" fill="#000000" fill-rule="evenodd" fill-opacity="1" /><path clip-path="url(#clip980)" d="M32.149 916.453 Q32.149 920.307 35.1698 922.546 Q38.1646 924.786 43.3989 924.786 Q48.6333 924.786 51.6541 922.572 Q54.6489 920.333 54.6489 916.453 Q54.6489 912.625 51.6281 910.385 Q48.6072 908.145 43.3989 908.145 Q38.2167 908.145 35.1959 910.385 Q32.149 912.625 32.149 916.453 M28.0865 916.453 Q28.0865 910.203 32.149 906.635 Q36.2115 903.067 43.3989 903.067 Q50.5604 903.067 54.6489 906.635 Q58.7114 910.203 58.7114 916.453 Q58.7114 922.729 54.6489 926.296 Q50.5604 929.838 43.3989 929.838 Q36.2115 929.838 32.149 926.296 Q28.0865 922.729 28.0865 916.453 Z" fill="#000000" fill-rule="evenodd" fill-opacity="1" /><path clip-path="url(#clip980)" d="M17.4355 880.359 L21.4199 880.359 L21.4199 884.942 Q21.4199 887.52 22.4616 888.536 Q23.5032 889.526 26.2115 889.526 L28.7896 889.526 L28.7896 881.635 L32.5136 881.635 L32.5136 889.526 L57.9562 889.526 L57.9562 894.343 L32.5136 894.343 L32.5136 898.927 L28.7896 898.927 L28.7896 894.343 L26.7584 894.343 Q21.8886 894.343 19.6751 892.078 Q17.4355 889.812 17.4355 884.89 L17.4355 880.359 Z" fill="#000000" fill-rule="evenodd" fill-opacity="1" /><path clip-path="url(#clip980)" d="M19.0762 859.187 L19.0762 834.604 L23.5032 834.604 L23.5032 853.927 L35.0136 853.927 L35.0136 835.411 L39.4406 835.411 L39.4406 853.927 L53.5291 853.927 L53.5291 834.135 L57.9562 834.135 L57.9562 859.187 L19.0762 859.187 Z" fill="#000000" fill-rule="evenodd" fill-opacity="1" /><path clip-path="url(#clip980)" d="M28.7896 829.135 L28.7896 824.057 L53.2687 814.943 L28.7896 805.828 L28.7896 800.75 L57.9562 811.688 L57.9562 818.198 L28.7896 829.135 Z" fill="#000000" fill-rule="evenodd" fill-opacity="1" /><path clip-path="url(#clip980)" d="M42.175 769.188 L44.5187 769.188 L44.5187 791.219 Q49.4666 790.906 52.0708 788.25 Q54.6489 785.568 54.6489 780.802 Q54.6489 778.042 53.9718 775.464 Q53.2947 772.86 51.9406 770.308 L56.4718 770.308 Q57.5655 772.886 58.1384 775.594 Q58.7114 778.302 58.7114 781.089 Q58.7114 788.068 54.6489 792.156 Q50.5864 796.219 43.6594 796.219 Q36.4979 796.219 32.3053 792.365 Q28.0865 788.485 28.0865 781.922 Q28.0865 776.037 31.8886 772.625 Q35.6646 769.188 42.175 769.188 M40.7687 773.979 Q36.8365 774.032 34.4927 776.193 Q32.149 778.328 32.149 781.87 Q32.149 785.88 34.4146 788.302 Q36.6802 790.698 40.7948 791.063 L40.7687 773.979 Z" fill="#000000" fill-rule="evenodd" fill-opacity="1" /><path clip-path="url(#clip980)" d="M40.3521 737.079 L57.9562 737.079 L57.9562 741.87 L40.5083 741.87 Q36.3677 741.87 34.3105 743.485 Q32.2532 745.099 32.2532 748.329 Q32.2532 752.209 34.7271 754.448 Q37.2011 756.688 41.4719 756.688 L57.9562 756.688 L57.9562 761.506 L28.7896 761.506 L28.7896 756.688 L33.3209 756.688 Q30.6907 754.969 29.3886 752.651 Q28.0865 750.308 28.0865 747.261 Q28.0865 742.235 31.2115 739.657 Q34.3105 737.079 40.3521 737.079 Z" fill="#000000" fill-rule="evenodd" fill-opacity="1" /><path clip-path="url(#clip980)" d="M20.5084 722.782 L28.7896 722.782 L28.7896 712.912 L32.5136 712.912 L32.5136 722.782 L48.3468 722.782 Q51.9145 722.782 52.9301 721.818 Q53.9458 720.829 53.9458 717.834 L53.9458 712.912 L57.9562 712.912 L57.9562 717.834 Q57.9562 723.381 55.8989 725.49 Q53.8156 727.599 48.3468 727.599 L32.5136 727.599 L32.5136 731.115 L28.7896 731.115 L28.7896 727.599 L20.5084 727.599 L20.5084 722.782 Z" fill="#000000" fill-rule="evenodd" fill-opacity="1" /><path clip-path="url(#clip980)" d="M29.649 688.016 L34.1802 688.016 Q33.1386 690.048 32.6178 692.235 Q32.0969 694.423 32.0969 696.766 Q32.0969 700.334 33.1907 702.131 Q34.2844 703.902 36.4719 703.902 Q38.1386 703.902 39.1021 702.626 Q40.0396 701.35 40.899 697.495 L41.2635 695.855 Q42.3573 690.751 44.3625 688.615 Q46.3416 686.454 49.9093 686.454 Q53.9718 686.454 56.3416 689.683 Q58.7114 692.886 58.7114 698.511 Q58.7114 700.855 58.2426 703.407 Q57.7999 705.933 56.8885 708.745 L51.9406 708.745 Q53.3208 706.089 54.0239 703.511 Q54.701 700.933 54.701 698.407 Q54.701 695.022 53.5551 693.199 Q52.3833 691.376 50.2739 691.376 Q48.3208 691.376 47.2791 692.704 Q46.2375 694.006 45.2739 698.459 L44.8833 700.126 Q43.9458 704.579 42.0187 706.558 Q40.0656 708.537 36.6802 708.537 Q32.5657 708.537 30.3261 705.62 Q28.0865 702.704 28.0865 697.339 Q28.0865 694.683 28.4771 692.339 Q28.8678 689.996 29.649 688.016 Z" fill="#000000" fill-rule="evenodd" fill-opacity="1" /><path clip-path="url(#clip980)" d="M31.7063 661.246 L26.9667 661.246 L39.0761 627.86 L43.3989 627.86 L55.5083 661.246 L50.7687 661.246 L41.2635 634.423 L31.7063 661.246 Z" fill="#000000" fill-rule="evenodd" fill-opacity="1" /><path clip-path="url(#clip980)" d="M19.0762 616.454 L19.0762 595.803 L23.5032 595.803 L23.5032 611.637 L33.0344 611.637 Q32.6438 610.491 32.4615 609.345 Q32.2532 608.199 32.2532 607.053 Q32.2532 600.543 35.8209 596.741 Q39.3885 592.939 45.4823 592.939 Q51.7583 592.939 55.2478 596.845 Q58.7114 600.751 58.7114 607.861 Q58.7114 610.308 58.2947 612.861 Q57.878 615.387 57.0447 618.095 L51.7583 618.095 Q53.0343 615.751 53.6593 613.251 Q54.2843 610.751 54.2843 607.965 Q54.2843 603.46 51.9145 600.829 Q49.5447 598.199 45.4823 598.199 Q41.4198 598.199 39.05 600.829 Q36.6802 603.46 36.6802 607.965 Q36.6802 610.074 37.149 612.183 Q37.6177 614.267 38.6073 616.454 L19.0762 616.454 Z" fill="#000000" fill-rule="evenodd" fill-opacity="1" /><path clip-path="url(#clip980)" d="M40.3521 559.007 L57.9562 559.007 L57.9562 563.798 L40.5083 563.798 Q36.3677 563.798 34.3105 565.413 Q32.2532 567.027 32.2532 570.257 Q32.2532 574.137 34.7271 576.376 Q37.2011 578.616 41.4719 578.616 L57.9562 578.616 L57.9562 583.434 L17.4355 583.434 L17.4355 578.616 L33.3209 578.616 Q30.6907 576.897 29.3886 574.579 Q28.0865 572.236 28.0865 569.189 Q28.0865 564.163 31.2115 561.585 Q34.3105 559.007 40.3521 559.007 Z" fill="#000000" fill-rule="evenodd" fill-opacity="1" /><path clip-path="url(#clip980)" d="M33.2688 532.548 Q32.8 533.356 32.5917 534.319 Q32.3573 535.257 32.3573 536.403 Q32.3573 540.465 35.0136 542.653 Q37.6438 544.814 42.5917 544.814 L57.9562 544.814 L57.9562 549.632 L28.7896 549.632 L28.7896 544.814 L33.3209 544.814 Q30.6646 543.304 29.3886 540.882 Q28.0865 538.46 28.0865 534.996 Q28.0865 534.502 28.1647 533.903 Q28.2167 533.304 28.3469 532.574 L33.2688 532.548 Z" fill="#000000" fill-rule="evenodd" fill-opacity="1" /><path clip-path="url(#clip980)" d="M29.649 508.929 L34.1802 508.929 Q33.1386 510.96 32.6178 513.147 Q32.0969 515.335 32.0969 517.679 Q32.0969 521.246 33.1907 523.043 Q34.2844 524.814 36.4719 524.814 Q38.1386 524.814 39.1021 523.538 Q40.0396 522.262 40.899 518.408 L41.2635 516.767 Q42.3573 511.663 44.3625 509.528 Q46.3416 507.366 49.9093 507.366 Q53.9718 507.366 56.3416 510.595 Q58.7114 513.799 58.7114 519.424 Q58.7114 521.767 58.2426 524.319 Q57.7999 526.845 56.8885 529.658 L51.9406 529.658 Q53.3208 527.002 54.0239 524.423 Q54.701 521.845 54.701 519.319 Q54.701 515.934 53.5551 514.111 Q52.3833 512.288 50.2739 512.288 Q48.3208 512.288 47.2791 513.616 Q46.2375 514.918 45.2739 519.371 L44.8833 521.038 Q43.9458 525.491 42.0187 527.47 Q40.0656 529.449 36.6802 529.449 Q32.5657 529.449 30.3261 526.533 Q28.0865 523.616 28.0865 518.252 Q28.0865 515.595 28.4771 513.252 Q28.8678 510.908 29.649 508.929 Z" fill="#000000" fill-rule="evenodd" fill-opacity="1" /><path clip-path="url(#clip980)" d="M28.7896 482.783 L28.7896 477.991 L57.9562 477.991 L57.9562 482.783 L28.7896 482.783 M17.4355 482.783 L17.4355 477.991 L23.5032 477.991 L23.5032 482.783 L17.4355 482.783 Z" fill="#000000" fill-rule="evenodd" fill-opacity="1" /><path clip-path="url(#clip980)" d="M40.3521 443.721 L57.9562 443.721 L57.9562 448.512 L40.5083 448.512 Q36.3677 448.512 34.3105 450.127 Q32.2532 451.742 32.2532 454.971 Q32.2532 458.851 34.7271 461.09 Q37.2011 463.33 41.4719 463.33 L57.9562 463.33 L57.9562 468.148 L28.7896 468.148 L28.7896 463.33 L33.3209 463.33 Q30.6907 461.611 29.3886 459.294 Q28.0865 456.95 28.0865 453.903 Q28.0865 448.877 31.2115 446.299 Q34.3105 443.721 40.3521 443.721 Z" fill="#000000" fill-rule="evenodd" fill-opacity="1" /><path clip-path="url(#clip980)" d="M33.2167 398.018 L17.4355 398.018 L17.4355 393.226 L57.9562 393.226 L57.9562 398.018 L53.5812 398.018 Q56.1853 399.528 57.4614 401.846 Q58.7114 404.138 58.7114 407.367 Q58.7114 412.653 54.4926 415.987 Q50.2739 419.294 43.3989 419.294 Q36.524 419.294 32.3053 415.987 Q28.0865 412.653 28.0865 407.367 Q28.0865 404.138 29.3626 401.846 Q30.6126 399.528 33.2167 398.018 M43.3989 414.346 Q48.6854 414.346 51.7062 412.184 Q54.701 409.997 54.701 406.195 Q54.701 402.393 51.7062 400.205 Q48.6854 398.018 43.3989 398.018 Q38.1125 398.018 35.1177 400.205 Q32.0969 402.393 32.0969 406.195 Q32.0969 409.997 35.1177 412.184 Q38.1125 414.346 43.3989 414.346 Z" fill="#000000" fill-rule="evenodd" fill-opacity="1" /><path clip-path="url(#clip980)" d="M46.4458 383.851 L28.7896 383.851 L28.7896 379.06 L46.2635 379.06 Q50.4041 379.06 52.4874 377.445 Q54.5447 375.831 54.5447 372.601 Q54.5447 368.721 52.0708 366.482 Q49.5968 364.216 45.326 364.216 L28.7896 364.216 L28.7896 359.424 L57.9562 359.424 L57.9562 364.216 L53.477 364.216 Q56.1333 365.961 57.4353 368.278 Q58.7114 370.57 58.7114 373.617 Q58.7114 378.643 55.5864 381.247 Q52.4614 383.851 46.4458 383.851 M28.0865 371.794 L28.0865 371.794 Z" fill="#000000" fill-rule="evenodd" fill-opacity="1" /><path clip-path="url(#clip980)" d="M33.2688 332.654 Q32.8 333.461 32.5917 334.424 Q32.3573 335.362 32.3573 336.508 Q32.3573 340.57 35.0136 342.758 Q37.6438 344.919 42.5917 344.919 L57.9562 344.919 L57.9562 349.737 L28.7896 349.737 L28.7896 344.919 L33.3209 344.919 Q30.6646 343.409 29.3886 340.987 Q28.0865 338.565 28.0865 335.102 Q28.0865 334.607 28.1647 334.008 Q28.2167 333.409 28.3469 332.68 L33.2688 332.654 Z" fill="#000000" fill-rule="evenodd" fill-opacity="1" /><path clip-path="url(#clip980)" d="M43.2948 314.373 Q43.2948 320.18 44.6229 322.419 Q45.951 324.659 49.1541 324.659 Q51.7062 324.659 53.2166 322.992 Q54.701 321.3 54.701 318.409 Q54.701 314.425 51.8885 312.029 Q49.05 309.607 44.3625 309.607 L43.2948 309.607 L43.2948 314.373 M41.3156 304.815 L57.9562 304.815 L57.9562 309.607 L53.5291 309.607 Q56.1853 311.248 57.4614 313.695 Q58.7114 316.143 58.7114 319.685 Q58.7114 324.164 56.2114 326.82 Q53.6853 329.451 49.4666 329.451 Q44.5448 329.451 42.0448 326.169 Q39.5448 322.862 39.5448 316.326 L39.5448 309.607 L39.0761 309.607 Q35.7688 309.607 33.9719 311.794 Q32.149 313.956 32.149 317.888 Q32.149 320.388 32.748 322.758 Q33.3469 325.128 34.5448 327.315 L30.1178 327.315 Q29.1021 324.685 28.6074 322.211 Q28.0865 319.737 28.0865 317.393 Q28.0865 311.065 31.3678 307.94 Q34.649 304.815 41.3156 304.815 Z" fill="#000000" fill-rule="evenodd" fill-opacity="1" /><path clip-path="url(#clip980)" d="M20.5084 290.206 L28.7896 290.206 L28.7896 280.336 L32.5136 280.336 L32.5136 290.206 L48.3468 290.206 Q51.9145 290.206 52.9301 289.242 Q53.9458 288.253 53.9458 285.258 L53.9458 280.336 L57.9562 280.336 L57.9562 285.258 Q57.9562 290.805 55.8989 292.914 Q53.8156 295.024 48.3468 295.024 L32.5136 295.024 L32.5136 298.539 L28.7896 298.539 L28.7896 295.024 L20.5084 295.024 L20.5084 290.206 Z" fill="#000000" fill-rule="evenodd" fill-opacity="1" /><path clip-path="url(#clip980)" d="M28.7896 274.034 L28.7896 269.243 L57.9562 269.243 L57.9562 274.034 L28.7896 274.034 M17.4355 274.034 L17.4355 269.243 L23.5032 269.243 L23.5032 274.034 L17.4355 274.034 Z" fill="#000000" fill-rule="evenodd" fill-opacity="1" /><path clip-path="url(#clip980)" d="M32.149 247.915 Q32.149 251.769 35.1698 254.008 Q38.1646 256.248 43.3989 256.248 Q48.6333 256.248 51.6541 254.034 Q54.6489 251.795 54.6489 247.915 Q54.6489 244.086 51.6281 241.847 Q48.6072 239.607 43.3989 239.607 Q38.2167 239.607 35.1959 241.847 Q32.149 244.086 32.149 247.915 M28.0865 247.915 Q28.0865 241.665 32.149 238.097 Q36.2115 234.529 43.3989 234.529 Q50.5604 234.529 54.6489 238.097 Q58.7114 241.665 58.7114 247.915 Q58.7114 254.191 54.6489 257.758 Q50.5604 261.3 43.3989 261.3 Q36.2115 261.3 32.149 257.758 Q28.0865 254.191 28.0865 247.915 Z" fill="#000000" fill-rule="evenodd" fill-opacity="1" /><path clip-path="url(#clip980)" d="M40.3521 202.342 L57.9562 202.342 L57.9562 207.134 L40.5083 207.134 Q36.3677 207.134 34.3105 208.748 Q32.2532 210.363 32.2532 213.592 Q32.2532 217.472 34.7271 219.712 Q37.2011 221.951 41.4719 221.951 L57.9562 221.951 L57.9562 226.769 L28.7896 226.769 L28.7896 221.951 L33.3209 221.951 Q30.6907 220.232 29.3886 217.915 Q28.0865 215.571 28.0865 212.524 Q28.0865 207.498 31.2115 204.92 Q34.3105 202.342 40.3521 202.342 Z" fill="#000000" fill-rule="evenodd" fill-opacity="1" /><path clip-path="url(#clip982)" d="
M287.036 1277.99 L287.036 1277.99 L418.934 1277.99 L418.934 1277.99 L287.036 1277.99 L287.036 1277.99  Z
  " fill="#009af9" fill-rule="evenodd" fill-opacity="1"/>
<polyline clip-path="url(#clip982)" style="stroke:#000000; stroke-linecap:butt; stroke-linejoin:round; stroke-width:4; stroke-opacity:1; fill:none" points="
  287.036,1277.99 287.036,1277.99 418.934,1277.99 287.036,1277.99 
  "/>
<path clip-path="url(#clip982)" d="
M451.908 1277.99 L451.908 1277.99 L583.806 1277.99 L583.806 1277.99 L451.908 1277.99 L451.908 1277.99  Z
  " fill="#009af9" fill-rule="evenodd" fill-opacity="1"/>
<polyline clip-path="url(#clip982)" style="stroke:#000000; stroke-linecap:butt; stroke-linejoin:round; stroke-width:4; stroke-opacity:1; fill:none" points="
  451.908,1277.99 451.908,1277.99 583.806,1277.99 451.908,1277.99 
  "/>
<path clip-path="url(#clip982)" d="
M616.78 1277.99 L616.78 1277.99 L748.678 1277.99 L748.678 1277.99 L616.78 1277.99 L616.78 1277.99  Z
  " fill="#009af9" fill-rule="evenodd" fill-opacity="1"/>
<polyline clip-path="url(#clip982)" style="stroke:#000000; stroke-linecap:butt; stroke-linejoin:round; stroke-width:4; stroke-opacity:1; fill:none" points="
  616.78,1277.99 616.78,1277.99 748.678,1277.99 616.78,1277.99 
  "/>
<path clip-path="url(#clip982)" d="
M781.652 1277.99 L781.652 1277.99 L913.55 1277.99 L913.55 1277.99 L781.652 1277.99 L781.652 1277.99  Z
  " fill="#009af9" fill-rule="evenodd" fill-opacity="1"/>
<polyline clip-path="url(#clip982)" style="stroke:#000000; stroke-linecap:butt; stroke-linejoin:round; stroke-width:4; stroke-opacity:1; fill:none" points="
  781.652,1277.99 781.652,1277.99 913.55,1277.99 781.652,1277.99 
  "/>
<path clip-path="url(#clip982)" d="
M946.524 1107.29 L946.524 1277.99 L1078.42 1277.99 L1078.42 1107.29 L946.524 1107.29 L946.524 1107.29  Z
  " fill="#009af9" fill-rule="evenodd" fill-opacity="1"/>
<polyline clip-path="url(#clip982)" style="stroke:#000000; stroke-linecap:butt; stroke-linejoin:round; stroke-width:4; stroke-opacity:1; fill:none" points="
  946.524,1107.29 946.524,1277.99 1078.42,1277.99 1078.42,1107.29 946.524,1107.29 
  "/>
<path clip-path="url(#clip982)" d="
M1111.4 1107.29 L1111.4 1277.99 L1243.29 1277.99 L1243.29 1107.29 L1111.4 1107.29 L1111.4 1107.29  Z
  " fill="#009af9" fill-rule="evenodd" fill-opacity="1"/>
<polyline clip-path="url(#clip982)" style="stroke:#000000; stroke-linecap:butt; stroke-linejoin:round; stroke-width:4; stroke-opacity:1; fill:none" points="
  1111.4,1107.29 1111.4,1277.99 1243.29,1277.99 1243.29,1107.29 1111.4,1107.29 
  "/>
<path clip-path="url(#clip982)" d="
M1276.27 1277.99 L1276.27 1277.99 L1408.17 1277.99 L1408.17 1277.99 L1276.27 1277.99 L1276.27 1277.99  Z
  " fill="#009af9" fill-rule="evenodd" fill-opacity="1"/>
<polyline clip-path="url(#clip982)" style="stroke:#000000; stroke-linecap:butt; stroke-linejoin:round; stroke-width:4; stroke-opacity:1; fill:none" points="
  1276.27,1277.99 1276.27,1277.99 1408.17,1277.99 1276.27,1277.99 
  "/>
<path clip-path="url(#clip982)" d="
M1441.14 83.0912 L1441.14 1277.99 L1573.04 1277.99 L1573.04 83.0912 L1441.14 83.0912 L1441.14 83.0912  Z
  " fill="#009af9" fill-rule="evenodd" fill-opacity="1"/>
<polyline clip-path="url(#clip982)" style="stroke:#000000; stroke-linecap:butt; stroke-linejoin:round; stroke-width:4; stroke-opacity:1; fill:none" points="
  1441.14,83.0912 1441.14,1277.99 1573.04,1277.99 1573.04,83.0912 1441.14,83.0912 
  "/>
<path clip-path="url(#clip982)" d="
M1606.01 1277.99 L1606.01 1277.99 L1737.91 1277.99 L1737.91 1277.99 L1606.01 1277.99 L1606.01 1277.99  Z
  " fill="#009af9" fill-rule="evenodd" fill-opacity="1"/>
<polyline clip-path="url(#clip982)" style="stroke:#000000; stroke-linecap:butt; stroke-linejoin:round; stroke-width:4; stroke-opacity:1; fill:none" points="
  1606.01,1277.99 1606.01,1277.99 1737.91,1277.99 1606.01,1277.99 
  "/>
<path clip-path="url(#clip982)" d="
M1770.88 1277.99 L1770.88 1277.99 L1902.78 1277.99 L1902.78 1277.99 L1770.88 1277.99 L1770.88 1277.99  Z
  " fill="#009af9" fill-rule="evenodd" fill-opacity="1"/>
<polyline clip-path="url(#clip982)" style="stroke:#000000; stroke-linecap:butt; stroke-linejoin:round; stroke-width:4; stroke-opacity:1; fill:none" points="
  1770.88,1277.99 1770.88,1277.99 1902.78,1277.99 1770.88,1277.99 
  "/>
<path clip-path="url(#clip982)" d="
M1935.76 1277.99 L1935.76 1277.99 L2067.65 1277.99 L2067.65 1277.99 L1935.76 1277.99 L1935.76 1277.99  Z
  " fill="#009af9" fill-rule="evenodd" fill-opacity="1"/>
<polyline clip-path="url(#clip982)" style="stroke:#000000; stroke-linecap:butt; stroke-linejoin:round; stroke-width:4; stroke-opacity:1; fill:none" points="
  1935.76,1277.99 1935.76,1277.99 2067.65,1277.99 1935.76,1277.99 
  "/>
<path clip-path="url(#clip982)" d="
M2100.63 1277.99 L2100.63 1277.99 L2232.52 1277.99 L2232.52 1277.99 L2100.63 1277.99 L2100.63 1277.99  Z
  " fill="#009af9" fill-rule="evenodd" fill-opacity="1"/>
<polyline clip-path="url(#clip982)" style="stroke:#000000; stroke-linecap:butt; stroke-linejoin:round; stroke-width:4; stroke-opacity:1; fill:none" points="
  2100.63,1277.99 2100.63,1277.99 2232.52,1277.99 2100.63,1277.99 
  "/>
</svg>
