<?xml version="1.0" encoding="utf-8"?>
<svg xmlns="http://www.w3.org/2000/svg" xmlns:xlink="http://www.w3.org/1999/xlink" width="600" height="400" viewBox="0 0 2400 1600">
<defs>
  <clipPath id="clip900">
    <rect x="0" y="0" width="2400" height="1600"/>
  </clipPath>
</defs>
<path clip-path="url(#clip900)" d="
M0 1600 L2400 1600 L2400 0 L0 0  Z
  " fill="#ffffff" fill-rule="evenodd" fill-opacity="1"/>
<defs>
  <clipPath id="clip901">
    <rect x="480" y="0" width="1681" height="1600"/>
  </clipPath>
</defs>
<path clip-path="url(#clip900)" d="
M166.805 1486.45 L2352.76 1486.45 L2352.76 123.472 L166.805 123.472  Z
  " fill="#ffffff" fill-rule="evenodd" fill-opacity="1"/>
<defs>
  <clipPath id="clip902">
    <rect x="166" y="123" width="2187" height="1364"/>
  </clipPath>
</defs>
<polyline clip-path="url(#clip902)" style="stroke:#000000; stroke-linecap:butt; stroke-linejoin:round; stroke-width:2; stroke-opacity:0.1; fill:none" points="
  224.946,1486.45 224.946,123.472 
  "/>
<polyline clip-path="url(#clip902)" style="stroke:#000000; stroke-linecap:butt; stroke-linejoin:round; stroke-width:2; stroke-opacity:0.1; fill:none" points="
  742.363,1486.45 742.363,123.472 
  "/>
<polyline clip-path="url(#clip902)" style="stroke:#000000; stroke-linecap:butt; stroke-linejoin:round; stroke-width:2; stroke-opacity:0.1; fill:none" points="
  1259.78,1486.45 1259.78,123.472 
  "/>
<polyline clip-path="url(#clip902)" style="stroke:#000000; stroke-linecap:butt; stroke-linejoin:round; stroke-width:2; stroke-opacity:0.1; fill:none" points="
  1777.2,1486.45 1777.2,123.472 
  "/>
<polyline clip-path="url(#clip902)" style="stroke:#000000; stroke-linecap:butt; stroke-linejoin:round; stroke-width:2; stroke-opacity:0.1; fill:none" points="
  2294.61,1486.45 2294.61,123.472 
  "/>
<polyline clip-path="url(#clip900)" style="stroke:#000000; stroke-linecap:butt; stroke-linejoin:round; stroke-width:4; stroke-opacity:1; fill:none" points="
  166.805,1486.45 2352.76,1486.45 
  "/>
<polyline clip-path="url(#clip900)" style="stroke:#000000; stroke-linecap:butt; stroke-linejoin:round; stroke-width:4; stroke-opacity:1; fill:none" points="
  224.946,1486.45 224.946,1470.09 
  "/>
<polyline clip-path="url(#clip900)" style="stroke:#000000; stroke-linecap:butt; stroke-linejoin:round; stroke-width:4; stroke-opacity:1; fill:none" points="
  742.363,1486.45 742.363,1470.09 
  "/>
<polyline clip-path="url(#clip900)" style="stroke:#000000; stroke-linecap:butt; stroke-linejoin:round; stroke-width:4; stroke-opacity:1; fill:none" points="
  1259.78,1486.45 1259.78,1470.09 
  "/>
<polyline clip-path="url(#clip900)" style="stroke:#000000; stroke-linecap:butt; stroke-linejoin:round; stroke-width:4; stroke-opacity:1; fill:none" points="
  1777.2,1486.45 1777.2,1470.09 
  "/>
<polyline clip-path="url(#clip900)" style="stroke:#000000; stroke-linecap:butt; stroke-linejoin:round; stroke-width:4; stroke-opacity:1; fill:none" points="
  2294.61,1486.45 2294.61,1470.09 
  "/>
<path clip-path="url(#clip900)" d="M173.558 1543.18 L189.877 1543.18 L189.877 1547.12 L167.933 1547.12 L167.933 1543.18 Q170.595 1540.43 175.178 1535.8 Q179.785 1531.15 180.965 1529.81 Q183.21 1527.28 184.09 1525.55 Q184.993 1523.79 184.993 1522.1 Q184.993 1519.34 183.048 1517.61 Q181.127 1515.87 178.025 1515.87 Q175.826 1515.87 173.373 1516.63 Q170.942 1517.4 168.164 1518.95 L168.164 1514.23 Q170.988 1513.09 173.442 1512.51 Q175.896 1511.93 177.933 1511.93 Q183.303 1511.93 186.497 1514.62 Q189.692 1517.31 189.692 1521.8 Q189.692 1523.93 188.882 1525.85 Q188.095 1527.74 185.988 1530.34 Q185.41 1531.01 182.308 1534.23 Q179.206 1537.42 173.558 1543.18 Z" fill="#000000" fill-rule="evenodd" fill-opacity="1" /><path clip-path="url(#clip900)" d="M209.692 1515.64 Q206.081 1515.64 204.252 1519.2 Q202.446 1522.75 202.446 1529.87 Q202.446 1536.98 204.252 1540.55 Q206.081 1544.09 209.692 1544.09 Q213.326 1544.09 215.132 1540.55 Q216.96 1536.98 216.96 1529.87 Q216.96 1522.75 215.132 1519.2 Q213.326 1515.64 209.692 1515.64 M209.692 1511.93 Q215.502 1511.93 218.557 1516.54 Q221.636 1521.12 221.636 1529.87 Q221.636 1538.6 218.557 1543.21 Q215.502 1547.79 209.692 1547.79 Q203.882 1547.79 200.803 1543.21 Q197.747 1538.6 197.747 1529.87 Q197.747 1521.12 200.803 1516.54 Q203.882 1511.93 209.692 1511.93 Z" fill="#000000" fill-rule="evenodd" fill-opacity="1" /><path clip-path="url(#clip900)" d="M239.854 1515.64 Q236.243 1515.64 234.414 1519.2 Q232.608 1522.75 232.608 1529.87 Q232.608 1536.98 234.414 1540.55 Q236.243 1544.09 239.854 1544.09 Q243.488 1544.09 245.293 1540.55 Q247.122 1536.98 247.122 1529.87 Q247.122 1522.75 245.293 1519.2 Q243.488 1515.64 239.854 1515.64 M239.854 1511.93 Q245.664 1511.93 248.719 1516.54 Q251.798 1521.12 251.798 1529.87 Q251.798 1538.6 248.719 1543.21 Q245.664 1547.79 239.854 1547.79 Q234.044 1547.79 230.965 1543.21 Q227.909 1538.6 227.909 1529.87 Q227.909 1521.12 230.965 1516.54 Q234.044 1511.93 239.854 1511.93 Z" fill="#000000" fill-rule="evenodd" fill-opacity="1" /><path clip-path="url(#clip900)" d="M270.016 1515.64 Q266.404 1515.64 264.576 1519.2 Q262.77 1522.75 262.77 1529.87 Q262.77 1536.98 264.576 1540.55 Q266.404 1544.09 270.016 1544.09 Q273.65 1544.09 275.455 1540.55 Q277.284 1536.98 277.284 1529.87 Q277.284 1522.75 275.455 1519.2 Q273.65 1515.64 270.016 1515.64 M270.016 1511.93 Q275.826 1511.93 278.881 1516.54 Q281.96 1521.12 281.96 1529.87 Q281.96 1538.6 278.881 1543.21 Q275.826 1547.79 270.016 1547.79 Q264.205 1547.79 261.127 1543.21 Q258.071 1538.6 258.071 1529.87 Q258.071 1521.12 261.127 1516.54 Q264.205 1511.93 270.016 1511.93 Z" fill="#000000" fill-rule="evenodd" fill-opacity="1" /><path clip-path="url(#clip900)" d="M691.473 1543.18 L707.792 1543.18 L707.792 1547.12 L685.848 1547.12 L685.848 1543.18 Q688.51 1540.43 693.093 1535.8 Q697.699 1531.15 698.88 1529.81 Q701.125 1527.28 702.005 1525.55 Q702.908 1523.79 702.908 1522.1 Q702.908 1519.34 700.963 1517.61 Q699.042 1515.87 695.94 1515.87 Q693.741 1515.87 691.287 1516.63 Q688.857 1517.4 686.079 1518.95 L686.079 1514.23 Q688.903 1513.09 691.357 1512.51 Q693.81 1511.93 695.847 1511.93 Q701.218 1511.93 704.412 1514.62 Q707.607 1517.31 707.607 1521.8 Q707.607 1523.93 706.797 1525.85 Q706.009 1527.74 703.903 1530.34 Q703.324 1531.01 700.222 1534.23 Q697.121 1537.42 691.473 1543.18 Z" fill="#000000" fill-rule="evenodd" fill-opacity="1" /><path clip-path="url(#clip900)" d="M727.607 1515.64 Q723.995 1515.64 722.167 1519.2 Q720.361 1522.75 720.361 1529.87 Q720.361 1536.98 722.167 1540.55 Q723.995 1544.09 727.607 1544.09 Q731.241 1544.09 733.046 1540.55 Q734.875 1536.98 734.875 1529.87 Q734.875 1522.75 733.046 1519.2 Q731.241 1515.64 727.607 1515.64 M727.607 1511.93 Q733.417 1511.93 736.472 1516.54 Q739.551 1521.12 739.551 1529.87 Q739.551 1538.6 736.472 1543.21 Q733.417 1547.79 727.607 1547.79 Q721.796 1547.79 718.718 1543.21 Q715.662 1538.6 715.662 1529.87 Q715.662 1521.12 718.718 1516.54 Q721.796 1511.93 727.607 1511.93 Z" fill="#000000" fill-rule="evenodd" fill-opacity="1" /><path clip-path="url(#clip900)" d="M757.768 1515.64 Q754.157 1515.64 752.329 1519.2 Q750.523 1522.75 750.523 1529.87 Q750.523 1536.98 752.329 1540.55 Q754.157 1544.09 757.768 1544.09 Q761.403 1544.09 763.208 1540.55 Q765.037 1536.98 765.037 1529.87 Q765.037 1522.75 763.208 1519.2 Q761.403 1515.64 757.768 1515.64 M757.768 1511.93 Q763.579 1511.93 766.634 1516.54 Q769.713 1521.12 769.713 1529.87 Q769.713 1538.6 766.634 1543.21 Q763.579 1547.79 757.768 1547.79 Q751.958 1547.79 748.88 1543.21 Q745.824 1538.6 745.824 1529.87 Q745.824 1521.12 748.88 1516.54 Q751.958 1511.93 757.768 1511.93 Z" fill="#000000" fill-rule="evenodd" fill-opacity="1" /><path clip-path="url(#clip900)" d="M777.977 1512.56 L796.333 1512.56 L796.333 1516.5 L782.259 1516.5 L782.259 1524.97 Q783.278 1524.62 784.296 1524.46 Q785.315 1524.27 786.333 1524.27 Q792.12 1524.27 795.5 1527.44 Q798.879 1530.62 798.879 1536.03 Q798.879 1541.61 795.407 1544.71 Q791.935 1547.79 785.616 1547.79 Q783.44 1547.79 781.171 1547.42 Q778.926 1547.05 776.518 1546.31 L776.518 1541.61 Q778.602 1542.74 780.824 1543.3 Q783.046 1543.86 785.523 1543.86 Q789.528 1543.86 791.865 1541.75 Q794.203 1539.64 794.203 1536.03 Q794.203 1532.42 791.865 1530.31 Q789.528 1528.21 785.523 1528.21 Q783.648 1528.21 781.773 1528.62 Q779.921 1529.04 777.977 1529.92 L777.977 1512.56 Z" fill="#000000" fill-rule="evenodd" fill-opacity="1" /><path clip-path="url(#clip900)" d="M1208.39 1543.18 L1224.71 1543.18 L1224.71 1547.12 L1202.77 1547.12 L1202.77 1543.18 Q1205.43 1540.43 1210.01 1535.8 Q1214.62 1531.15 1215.8 1529.81 Q1218.04 1527.28 1218.92 1525.55 Q1219.83 1523.79 1219.83 1522.1 Q1219.83 1519.34 1217.88 1517.61 Q1215.96 1515.87 1212.86 1515.87 Q1210.66 1515.87 1208.21 1516.63 Q1205.78 1517.4 1203 1518.95 L1203 1514.23 Q1205.82 1513.09 1208.28 1512.51 Q1210.73 1511.93 1212.77 1511.93 Q1218.14 1511.93 1221.33 1514.62 Q1224.53 1517.31 1224.53 1521.8 Q1224.53 1523.93 1223.72 1525.85 Q1222.93 1527.74 1220.82 1530.34 Q1220.24 1531.01 1217.14 1534.23 Q1214.04 1537.42 1208.39 1543.18 Z" fill="#000000" fill-rule="evenodd" fill-opacity="1" /><path clip-path="url(#clip900)" d="M1244.53 1515.64 Q1240.91 1515.64 1239.09 1519.2 Q1237.28 1522.75 1237.28 1529.87 Q1237.28 1536.98 1239.09 1540.55 Q1240.91 1544.09 1244.53 1544.09 Q1248.16 1544.09 1249.97 1540.55 Q1251.79 1536.98 1251.79 1529.87 Q1251.79 1522.75 1249.97 1519.2 Q1248.16 1515.64 1244.53 1515.64 M1244.53 1511.93 Q1250.34 1511.93 1253.39 1516.54 Q1256.47 1521.12 1256.47 1529.87 Q1256.47 1538.6 1253.39 1543.21 Q1250.34 1547.79 1244.53 1547.79 Q1238.72 1547.79 1235.64 1543.21 Q1232.58 1538.6 1232.58 1529.87 Q1232.58 1521.12 1235.64 1516.54 Q1238.72 1511.93 1244.53 1511.93 Z" fill="#000000" fill-rule="evenodd" fill-opacity="1" /><path clip-path="url(#clip900)" d="M1265.5 1543.18 L1273.14 1543.18 L1273.14 1516.82 L1264.83 1518.49 L1264.83 1514.23 L1273.09 1512.56 L1277.77 1512.56 L1277.77 1543.18 L1285.41 1543.18 L1285.41 1547.12 L1265.5 1547.12 L1265.5 1543.18 Z" fill="#000000" fill-rule="evenodd" fill-opacity="1" /><path clip-path="url(#clip900)" d="M1304.85 1515.64 Q1301.24 1515.64 1299.41 1519.2 Q1297.6 1522.75 1297.6 1529.87 Q1297.6 1536.98 1299.41 1540.55 Q1301.24 1544.09 1304.85 1544.09 Q1308.48 1544.09 1310.29 1540.55 Q1312.12 1536.98 1312.12 1529.87 Q1312.12 1522.75 1310.29 1519.2 Q1308.48 1515.64 1304.85 1515.64 M1304.85 1511.93 Q1310.66 1511.93 1313.72 1516.54 Q1316.79 1521.12 1316.79 1529.87 Q1316.79 1538.6 1313.72 1543.21 Q1310.66 1547.79 1304.85 1547.79 Q1299.04 1547.79 1295.96 1543.21 Q1292.91 1538.6 1292.91 1529.87 Q1292.91 1521.12 1295.96 1516.54 Q1299.04 1511.93 1304.85 1511.93 Z" fill="#000000" fill-rule="evenodd" fill-opacity="1" /><path clip-path="url(#clip900)" d="M1726.31 1543.18 L1742.63 1543.18 L1742.63 1547.12 L1720.68 1547.12 L1720.68 1543.18 Q1723.34 1540.43 1727.93 1535.8 Q1732.53 1531.15 1733.71 1529.81 Q1735.96 1527.28 1736.84 1525.55 Q1737.74 1523.79 1737.74 1522.1 Q1737.74 1519.34 1735.8 1517.61 Q1733.88 1515.87 1730.77 1515.87 Q1728.58 1515.87 1726.12 1516.63 Q1723.69 1517.4 1720.91 1518.95 L1720.91 1514.23 Q1723.74 1513.09 1726.19 1512.51 Q1728.64 1511.93 1730.68 1511.93 Q1736.05 1511.93 1739.25 1514.62 Q1742.44 1517.31 1742.44 1521.8 Q1742.44 1523.93 1741.63 1525.85 Q1740.84 1527.74 1738.74 1530.34 Q1738.16 1531.01 1735.06 1534.23 Q1731.95 1537.42 1726.31 1543.18 Z" fill="#000000" fill-rule="evenodd" fill-opacity="1" /><path clip-path="url(#clip900)" d="M1762.44 1515.64 Q1758.83 1515.64 1757 1519.2 Q1755.2 1522.75 1755.2 1529.87 Q1755.2 1536.98 1757 1540.55 Q1758.83 1544.09 1762.44 1544.09 Q1766.08 1544.09 1767.88 1540.55 Q1769.71 1536.98 1769.71 1529.87 Q1769.71 1522.75 1767.88 1519.2 Q1766.08 1515.64 1762.44 1515.64 M1762.44 1511.93 Q1768.25 1511.93 1771.31 1516.54 Q1774.39 1521.12 1774.39 1529.87 Q1774.39 1538.6 1771.31 1543.21 Q1768.25 1547.79 1762.44 1547.79 Q1756.63 1547.79 1753.55 1543.21 Q1750.5 1538.6 1750.5 1529.87 Q1750.5 1521.12 1753.55 1516.54 Q1756.63 1511.93 1762.44 1511.93 Z" fill="#000000" fill-rule="evenodd" fill-opacity="1" /><path clip-path="url(#clip900)" d="M1783.41 1543.18 L1791.05 1543.18 L1791.05 1516.82 L1782.74 1518.49 L1782.74 1514.23 L1791.01 1512.56 L1795.68 1512.56 L1795.68 1543.18 L1803.32 1543.18 L1803.32 1547.12 L1783.41 1547.12 L1783.41 1543.18 Z" fill="#000000" fill-rule="evenodd" fill-opacity="1" /><path clip-path="url(#clip900)" d="M1812.81 1512.56 L1831.17 1512.56 L1831.17 1516.5 L1817.09 1516.5 L1817.09 1524.97 Q1818.11 1524.62 1819.13 1524.46 Q1820.15 1524.27 1821.17 1524.27 Q1826.95 1524.27 1830.33 1527.44 Q1833.71 1530.62 1833.71 1536.03 Q1833.71 1541.61 1830.24 1544.71 Q1826.77 1547.79 1820.45 1547.79 Q1818.27 1547.79 1816.01 1547.42 Q1813.76 1547.05 1811.35 1546.31 L1811.35 1541.61 Q1813.44 1542.74 1815.66 1543.3 Q1817.88 1543.86 1820.36 1543.86 Q1824.36 1543.86 1826.7 1541.75 Q1829.04 1539.64 1829.04 1536.03 Q1829.04 1532.42 1826.7 1530.31 Q1824.36 1528.21 1820.36 1528.21 Q1818.48 1528.21 1816.61 1528.62 Q1814.76 1529.04 1812.81 1529.92 L1812.81 1512.56 Z" fill="#000000" fill-rule="evenodd" fill-opacity="1" /><path clip-path="url(#clip900)" d="M2243.23 1543.18 L2259.55 1543.18 L2259.55 1547.12 L2237.6 1547.12 L2237.6 1543.18 Q2240.26 1540.43 2244.85 1535.8 Q2249.45 1531.15 2250.63 1529.81 Q2252.88 1527.28 2253.76 1525.55 Q2254.66 1523.79 2254.66 1522.1 Q2254.66 1519.34 2252.72 1517.61 Q2250.8 1515.87 2247.69 1515.87 Q2245.49 1515.87 2243.04 1516.63 Q2240.61 1517.4 2237.83 1518.95 L2237.83 1514.23 Q2240.66 1513.09 2243.11 1512.51 Q2245.56 1511.93 2247.6 1511.93 Q2252.97 1511.93 2256.17 1514.62 Q2259.36 1517.31 2259.36 1521.8 Q2259.36 1523.93 2258.55 1525.85 Q2257.76 1527.74 2255.66 1530.34 Q2255.08 1531.01 2251.98 1534.23 Q2248.87 1537.42 2243.23 1543.18 Z" fill="#000000" fill-rule="evenodd" fill-opacity="1" /><path clip-path="url(#clip900)" d="M2279.36 1515.64 Q2275.75 1515.64 2273.92 1519.2 Q2272.11 1522.75 2272.11 1529.87 Q2272.11 1536.98 2273.92 1540.55 Q2275.75 1544.09 2279.36 1544.09 Q2282.99 1544.09 2284.8 1540.55 Q2286.63 1536.98 2286.63 1529.87 Q2286.63 1522.75 2284.8 1519.2 Q2282.99 1515.64 2279.36 1515.64 M2279.36 1511.93 Q2285.17 1511.93 2288.23 1516.54 Q2291.3 1521.12 2291.3 1529.87 Q2291.3 1538.6 2288.23 1543.21 Q2285.17 1547.79 2279.36 1547.79 Q2273.55 1547.79 2270.47 1543.21 Q2267.42 1538.6 2267.42 1529.87 Q2267.42 1521.12 2270.47 1516.54 Q2273.55 1511.93 2279.36 1511.93 Z" fill="#000000" fill-rule="evenodd" fill-opacity="1" /><path clip-path="url(#clip900)" d="M2303.55 1543.18 L2319.87 1543.18 L2319.87 1547.12 L2297.92 1547.12 L2297.92 1543.18 Q2300.59 1540.43 2305.17 1535.8 Q2309.78 1531.15 2310.96 1529.81 Q2313.2 1527.28 2314.08 1525.55 Q2314.99 1523.79 2314.99 1522.1 Q2314.99 1519.34 2313.04 1517.61 Q2311.12 1515.87 2308.02 1515.87 Q2305.82 1515.87 2303.36 1516.63 Q2300.93 1517.4 2298.16 1518.95 L2298.16 1514.23 Q2300.98 1513.09 2303.43 1512.51 Q2305.89 1511.93 2307.92 1511.93 Q2313.3 1511.93 2316.49 1514.62 Q2319.68 1517.31 2319.68 1521.8 Q2319.68 1523.93 2318.87 1525.85 Q2318.09 1527.74 2315.98 1530.34 Q2315.4 1531.01 2312.3 1534.23 Q2309.2 1537.42 2303.55 1543.18 Z" fill="#000000" fill-rule="evenodd" fill-opacity="1" /><path clip-path="url(#clip900)" d="M2339.68 1515.64 Q2336.07 1515.64 2334.24 1519.2 Q2332.44 1522.75 2332.44 1529.87 Q2332.44 1536.98 2334.24 1540.55 Q2336.07 1544.09 2339.68 1544.09 Q2343.32 1544.09 2345.12 1540.55 Q2346.95 1536.98 2346.95 1529.87 Q2346.95 1522.75 2345.12 1519.2 Q2343.32 1515.64 2339.68 1515.64 M2339.68 1511.93 Q2345.49 1511.93 2348.55 1516.54 Q2351.63 1521.12 2351.63 1529.87 Q2351.63 1538.6 2348.55 1543.21 Q2345.49 1547.79 2339.68 1547.79 Q2333.87 1547.79 2330.8 1543.21 Q2327.74 1538.6 2327.74 1529.87 Q2327.74 1521.12 2330.8 1516.54 Q2333.87 1511.93 2339.68 1511.93 Z" fill="#000000" fill-rule="evenodd" fill-opacity="1" /><polyline clip-path="url(#clip902)" style="stroke:#000000; stroke-linecap:butt; stroke-linejoin:round; stroke-width:2; stroke-opacity:0.1; fill:none" points="
  166.805,1447.87 2352.76,1447.87 
  "/>
<polyline clip-path="url(#clip902)" style="stroke:#000000; stroke-linecap:butt; stroke-linejoin:round; stroke-width:2; stroke-opacity:0.1; fill:none" points="
  166.805,1126.42 2352.76,1126.42 
  "/>
<polyline clip-path="url(#clip902)" style="stroke:#000000; stroke-linecap:butt; stroke-linejoin:round; stroke-width:2; stroke-opacity:0.1; fill:none" points="
  166.805,804.96 2352.76,804.96 
  "/>
<polyline clip-path="url(#clip902)" style="stroke:#000000; stroke-linecap:butt; stroke-linejoin:round; stroke-width:2; stroke-opacity:0.1; fill:none" points="
  166.805,483.503 2352.76,483.503 
  "/>
<polyline clip-path="url(#clip902)" style="stroke:#000000; stroke-linecap:butt; stroke-linejoin:round; stroke-width:2; stroke-opacity:0.1; fill:none" points="
  166.805,162.047 2352.76,162.047 
  "/>
<polyline clip-path="url(#clip900)" style="stroke:#000000; stroke-linecap:butt; stroke-linejoin:round; stroke-width:4; stroke-opacity:1; fill:none" points="
  166.805,1486.45 166.805,123.472 
  "/>
<polyline clip-path="url(#clip900)" style="stroke:#000000; stroke-linecap:butt; stroke-linejoin:round; stroke-width:4; stroke-opacity:1; fill:none" points="
  166.805,1447.87 193.037,1447.87 
  "/>
<polyline clip-path="url(#clip900)" style="stroke:#000000; stroke-linecap:butt; stroke-linejoin:round; stroke-width:4; stroke-opacity:1; fill:none" points="
  166.805,1126.42 193.037,1126.42 
  "/>
<polyline clip-path="url(#clip900)" style="stroke:#000000; stroke-linecap:butt; stroke-linejoin:round; stroke-width:4; stroke-opacity:1; fill:none" points="
  166.805,804.96 193.037,804.96 
  "/>
<polyline clip-path="url(#clip900)" style="stroke:#000000; stroke-linecap:butt; stroke-linejoin:round; stroke-width:4; stroke-opacity:1; fill:none" points="
  166.805,483.503 193.037,483.503 
  "/>
<polyline clip-path="url(#clip900)" style="stroke:#000000; stroke-linecap:butt; stroke-linejoin:round; stroke-width:4; stroke-opacity:1; fill:none" points="
  166.805,162.047 193.037,162.047 
  "/>
<path clip-path="url(#clip900)" d="M118.861 1433.67 Q115.25 1433.67 113.421 1437.24 Q111.615 1440.78 111.615 1447.91 Q111.615 1455.01 113.421 1458.58 Q115.25 1462.12 118.861 1462.12 Q122.495 1462.12 124.301 1458.58 Q126.129 1455.01 126.129 1447.91 Q126.129 1440.78 124.301 1437.24 Q122.495 1433.67 118.861 1433.67 M118.861 1429.97 Q124.671 1429.97 127.727 1434.57 Q130.805 1439.16 130.805 1447.91 Q130.805 1456.63 127.727 1461.24 Q124.671 1465.82 118.861 1465.82 Q113.051 1465.82 109.972 1461.24 Q106.916 1456.63 106.916 1447.91 Q106.916 1439.16 109.972 1434.57 Q113.051 1429.97 118.861 1429.97 Z" fill="#000000" fill-rule="evenodd" fill-opacity="1" /><path clip-path="url(#clip900)" d="M110.898 1139.76 L118.537 1139.76 L118.537 1113.4 L110.227 1115.06 L110.227 1110.8 L118.49 1109.14 L123.166 1109.14 L123.166 1139.76 L130.805 1139.76 L130.805 1143.7 L110.898 1143.7 L110.898 1139.76 Z" fill="#000000" fill-rule="evenodd" fill-opacity="1" /><path clip-path="url(#clip900)" d="M114.486 818.305 L130.805 818.305 L130.805 822.24 L108.861 822.24 L108.861 818.305 Q111.523 815.55 116.106 810.921 Q120.713 806.268 121.893 804.925 Q124.139 802.402 125.018 800.666 Q125.921 798.907 125.921 797.217 Q125.921 794.462 123.977 792.726 Q122.055 790.99 118.953 790.99 Q116.754 790.99 114.301 791.754 Q111.87 792.518 109.092 794.069 L109.092 789.347 Q111.916 788.212 114.37 787.634 Q116.824 787.055 118.861 787.055 Q124.231 787.055 127.426 789.74 Q130.62 792.425 130.62 796.916 Q130.62 799.046 129.81 800.967 Q129.023 802.865 126.916 805.458 Q126.338 806.129 123.236 809.347 Q120.134 812.541 114.486 818.305 Z" fill="#000000" fill-rule="evenodd" fill-opacity="1" /><path clip-path="url(#clip900)" d="M123.676 482.149 Q127.032 482.867 128.907 485.135 Q130.805 487.404 130.805 490.737 Q130.805 495.853 127.287 498.654 Q123.768 501.455 117.287 501.455 Q115.111 501.455 112.796 501.015 Q110.504 500.598 108.051 499.742 L108.051 495.228 Q109.995 496.362 112.31 496.941 Q114.625 497.52 117.148 497.52 Q121.546 497.52 123.838 495.783 Q126.152 494.047 126.152 490.737 Q126.152 487.682 124 485.969 Q121.87 484.233 118.051 484.233 L114.023 484.233 L114.023 480.39 L118.236 480.39 Q121.685 480.39 123.514 479.024 Q125.342 477.635 125.342 475.043 Q125.342 472.381 123.444 470.969 Q121.569 469.534 118.051 469.534 Q116.129 469.534 113.93 469.95 Q111.731 470.367 109.092 471.247 L109.092 467.08 Q111.754 466.339 114.069 465.969 Q116.407 465.598 118.467 465.598 Q123.791 465.598 126.893 468.029 Q129.995 470.436 129.995 474.557 Q129.995 477.427 128.352 479.418 Q126.708 481.385 123.676 482.149 Z" fill="#000000" fill-rule="evenodd" fill-opacity="1" /><path clip-path="url(#clip900)" d="M121.222 148.841 L109.416 167.29 L121.222 167.29 L121.222 148.841 M119.995 144.767 L125.875 144.767 L125.875 167.29 L130.805 167.29 L130.805 171.179 L125.875 171.179 L125.875 179.327 L121.222 179.327 L121.222 171.179 L105.62 171.179 L105.62 166.665 L119.995 144.767 Z" fill="#000000" fill-rule="evenodd" fill-opacity="1" /><path clip-path="url(#clip900)" d="M19.0762 1041.1 L19.0762 1034.02 L51.602 1016.78 L19.0762 1016.78 L19.0762 1011.68 L57.9562 1011.68 L57.9562 1018.76 L25.4303 1036 L57.9562 1036 L57.9562 1041.1 L19.0762 1041.1 Z" fill="#000000" fill-rule="evenodd" fill-opacity="1" /><path clip-path="url(#clip900)" d="M46.4458 1001.91 L28.7896 1001.91 L28.7896 997.12 L46.2635 997.12 Q50.4041 997.12 52.4874 995.506 Q54.5447 993.891 54.5447 990.662 Q54.5447 986.782 52.0708 984.542 Q49.5968 982.277 45.326 982.277 L28.7896 982.277 L28.7896 977.485 L57.9562 977.485 L57.9562 982.277 L53.477 982.277 Q56.1333 984.022 57.4353 986.339 Q58.7114 988.631 58.7114 991.678 Q58.7114 996.704 55.5864 999.308 Q52.4614 1001.91 46.4458 1001.91 M28.0865 989.855 L28.0865 989.855 Z" fill="#000000" fill-rule="evenodd" fill-opacity="1" /><path clip-path="url(#clip900)" d="M34.3886 944.907 Q31.1594 943.11 29.623 940.61 Q28.0865 938.11 28.0865 934.725 Q28.0865 930.168 31.2896 927.694 Q34.4667 925.22 40.3521 925.22 L57.9562 925.22 L57.9562 930.037 L40.5083 930.037 Q36.3156 930.037 34.2844 931.522 Q32.2532 933.006 32.2532 936.053 Q32.2532 939.777 34.7271 941.938 Q37.2011 944.1 41.4719 944.1 L57.9562 944.1 L57.9562 948.918 L40.5083 948.918 Q36.2896 948.918 34.2844 950.402 Q32.2532 951.886 32.2532 954.985 Q32.2532 958.657 34.7532 960.819 Q37.2271 962.98 41.4719 962.98 L57.9562 962.98 L57.9562 967.798 L28.7896 967.798 L28.7896 962.98 L33.3209 962.98 Q30.6386 961.339 29.3626 959.048 Q28.0865 956.756 28.0865 953.605 Q28.0865 950.428 29.7011 948.214 Q31.3157 945.975 34.3886 944.907 Z" fill="#000000" fill-rule="evenodd" fill-opacity="1" /><path clip-path="url(#clip900)" d="M43.3989 894.725 Q38.1125 894.725 35.1177 896.913 Q32.0969 899.074 32.0969 902.876 Q32.0969 906.678 35.1177 908.866 Q38.1125 911.027 43.3989 911.027 Q48.6854 911.027 51.7062 908.866 Q54.701 906.678 54.701 902.876 Q54.701 899.074 51.7062 896.913 Q48.6854 894.725 43.3989 894.725 M33.2167 911.027 Q30.6126 909.517 29.3626 907.225 Q28.0865 904.907 28.0865 901.704 Q28.0865 896.392 32.3053 893.085 Q36.524 889.751 43.3989 889.751 Q50.2739 889.751 54.4926 893.085 Q58.7114 896.392 58.7114 901.704 Q58.7114 904.907 57.4614 907.225 Q56.1853 909.517 53.5812 911.027 L57.9562 911.027 L57.9562 915.845 L17.4355 915.845 L17.4355 911.027 L33.2167 911.027 Z" fill="#000000" fill-rule="evenodd" fill-opacity="1" /><path clip-path="url(#clip900)" d="M42.175 856.861 L44.5187 856.861 L44.5187 878.892 Q49.4666 878.579 52.0708 875.923 Q54.6489 873.241 54.6489 868.475 Q54.6489 865.715 53.9718 863.137 Q53.2947 860.533 51.9406 857.981 L56.4718 857.981 Q57.5655 860.559 58.1384 863.267 Q58.7114 865.975 58.7114 868.762 Q58.7114 875.741 54.6489 879.829 Q50.5864 883.892 43.6594 883.892 Q36.4979 883.892 32.3053 880.038 Q28.0865 876.158 28.0865 869.595 Q28.0865 863.71 31.8886 860.298 Q35.6646 856.861 42.175 856.861 M40.7687 861.652 Q36.8365 861.704 34.4927 863.866 Q32.149 866.001 32.149 869.543 Q32.149 873.553 34.4146 875.975 Q36.6802 878.371 40.7948 878.736 L40.7687 861.652 Z" fill="#000000" fill-rule="evenodd" fill-opacity="1" /><path clip-path="url(#clip900)" d="M33.2688 832.095 Q32.8 832.903 32.5917 833.866 Q32.3573 834.804 32.3573 835.949 Q32.3573 840.012 35.0136 842.199 Q37.6438 844.361 42.5917 844.361 L57.9562 844.361 L57.9562 849.179 L28.7896 849.179 L28.7896 844.361 L33.3209 844.361 Q30.6646 842.85 29.3886 840.429 Q28.0865 838.007 28.0865 834.543 Q28.0865 834.048 28.1647 833.449 Q28.2167 832.85 28.3469 832.121 L33.2688 832.095 Z" fill="#000000" fill-rule="evenodd" fill-opacity="1" /><path clip-path="url(#clip900)" d="M32.149 798.814 Q32.149 802.668 35.1698 804.908 Q38.1646 807.147 43.3989 807.147 Q48.6333 807.147 51.6541 804.934 Q54.6489 802.694 54.6489 798.814 Q54.6489 794.986 51.6281 792.747 Q48.6072 790.507 43.3989 790.507 Q38.2167 790.507 35.1959 792.747 Q32.149 794.986 32.149 798.814 M28.0865 798.814 Q28.0865 792.564 32.149 788.997 Q36.2115 785.429 43.3989 785.429 Q50.5604 785.429 54.6489 788.997 Q58.7114 792.564 58.7114 798.814 Q58.7114 805.09 54.6489 808.658 Q50.5604 812.2 43.3989 812.2 Q36.2115 812.2 32.149 808.658 Q28.0865 805.09 28.0865 798.814 Z" fill="#000000" fill-rule="evenodd" fill-opacity="1" /><path clip-path="url(#clip900)" d="M17.4355 762.721 L21.4199 762.721 L21.4199 767.304 Q21.4199 769.882 22.4616 770.898 Q23.5032 771.887 26.2115 771.887 L28.7896 771.887 L28.7896 763.997 L32.5136 763.997 L32.5136 771.887 L57.9562 771.887 L57.9562 776.705 L32.5136 776.705 L32.5136 781.288 L28.7896 781.288 L28.7896 776.705 L26.7584 776.705 Q21.8886 776.705 19.6751 774.439 Q17.4355 772.174 17.4355 767.252 L17.4355 762.721 Z" fill="#000000" fill-rule="evenodd" fill-opacity="1" /><path clip-path="url(#clip900)" d="M19.0762 741.549 L19.0762 716.966 L23.5032 716.966 L23.5032 736.288 L35.0136 736.288 L35.0136 717.773 L39.4406 717.773 L39.4406 736.288 L53.5291 736.288 L53.5291 716.497 L57.9562 716.497 L57.9562 741.549 L19.0762 741.549 Z" fill="#000000" fill-rule="evenodd" fill-opacity="1" /><path clip-path="url(#clip900)" d="M28.7896 711.497 L28.7896 706.419 L53.2687 697.304 L28.7896 688.19 L28.7896 683.112 L57.9562 694.049 L57.9562 700.56 L28.7896 711.497 Z" fill="#000000" fill-rule="evenodd" fill-opacity="1" /><path clip-path="url(#clip900)" d="M42.175 651.549 L44.5187 651.549 L44.5187 673.58 Q49.4666 673.268 52.0708 670.612 Q54.6489 667.929 54.6489 663.164 Q54.6489 660.403 53.9718 657.825 Q53.2947 655.221 51.9406 652.669 L56.4718 652.669 Q57.5655 655.247 58.1384 657.956 Q58.7114 660.664 58.7114 663.45 Q58.7114 670.429 54.6489 674.518 Q50.5864 678.58 43.6594 678.58 Q36.4979 678.58 32.3053 674.726 Q28.0865 670.846 28.0865 664.284 Q28.0865 658.398 31.8886 654.987 Q35.6646 651.549 42.175 651.549 M40.7687 656.341 Q36.8365 656.393 34.4927 658.555 Q32.149 660.69 32.149 664.232 Q32.149 668.242 34.4146 670.664 Q36.6802 673.06 40.7948 673.424 L40.7687 656.341 Z" fill="#000000" fill-rule="evenodd" fill-opacity="1" /><path clip-path="url(#clip900)" d="M40.3521 619.44 L57.9562 619.44 L57.9562 624.232 L40.5083 624.232 Q36.3677 624.232 34.3105 625.846 Q32.2532 627.461 32.2532 630.69 Q32.2532 634.57 34.7271 636.81 Q37.2011 639.049 41.4719 639.049 L57.9562 639.049 L57.9562 643.867 L28.7896 643.867 L28.7896 639.049 L33.3209 639.049 Q30.6907 637.331 29.3886 635.013 Q28.0865 632.669 28.0865 629.622 Q28.0865 624.596 31.2115 622.018 Q34.3105 619.44 40.3521 619.44 Z" fill="#000000" fill-rule="evenodd" fill-opacity="1" /><path clip-path="url(#clip900)" d="M20.5084 605.143 L28.7896 605.143 L28.7896 595.274 L32.5136 595.274 L32.5136 605.143 L48.3468 605.143 Q51.9145 605.143 52.9301 604.18 Q53.9458 603.19 53.9458 600.195 L53.9458 595.274 L57.9562 595.274 L57.9562 600.195 Q57.9562 605.742 55.8989 607.852 Q53.8156 609.961 48.3468 609.961 L32.5136 609.961 L32.5136 613.477 L28.7896 613.477 L28.7896 609.961 L20.5084 609.961 L20.5084 605.143 Z" fill="#000000" fill-rule="evenodd" fill-opacity="1" /><path clip-path="url(#clip900)" d="M29.649 570.378 L34.1802 570.378 Q33.1386 572.409 32.6178 574.597 Q32.0969 576.784 32.0969 579.128 Q32.0969 582.696 33.1907 584.492 Q34.2844 586.263 36.4719 586.263 Q38.1386 586.263 39.1021 584.987 Q40.0396 583.711 40.899 579.857 L41.2635 578.216 Q42.3573 573.112 44.3625 570.977 Q46.3416 568.815 49.9093 568.815 Q53.9718 568.815 56.3416 572.045 Q58.7114 575.248 58.7114 580.873 Q58.7114 583.216 58.2426 585.768 Q57.7999 588.294 56.8885 591.107 L51.9406 591.107 Q53.3208 588.451 54.0239 585.873 Q54.701 583.295 54.701 580.768 Q54.701 577.383 53.5551 575.56 Q52.3833 573.737 50.2739 573.737 Q48.3208 573.737 47.2791 575.065 Q46.2375 576.367 45.2739 580.821 L44.8833 582.487 Q43.9458 586.94 42.0187 588.919 Q40.0656 590.899 36.6802 590.899 Q32.5657 590.899 30.3261 587.982 Q28.0865 585.065 28.0865 579.701 Q28.0865 577.045 28.4771 574.701 Q28.8678 572.357 29.649 570.378 Z" fill="#000000" fill-rule="evenodd" fill-opacity="1" /><path clip-path="url(#clip900)" d="M627.515 14.0809 L627.515 22.0612 Q622.857 19.8332 618.725 18.7395 Q614.593 17.6457 610.745 17.6457 Q604.061 17.6457 600.415 20.2383 Q596.81 22.8309 596.81 27.611 Q596.81 31.6214 599.2 33.6873 Q601.63 35.7128 608.355 36.9686 L613.297 37.9813 Q622.452 39.7232 626.786 44.1387 Q631.161 48.5136 631.161 55.8863 Q631.161 64.6767 625.247 69.2137 Q619.373 73.7508 607.99 73.7508 Q603.696 73.7508 598.835 72.7785 Q594.014 71.8063 588.829 69.9024 L588.829 61.4765 Q593.812 64.2716 598.592 65.6895 Q603.372 67.1073 607.99 67.1073 Q614.998 67.1073 618.806 64.3527 Q622.614 61.598 622.614 56.4939 Q622.614 52.0379 619.859 49.5264 Q617.145 47.0148 610.907 45.759 L605.924 44.7868 Q596.769 42.9639 592.678 39.075 Q588.586 35.1862 588.586 28.2591 Q588.586 20.2383 594.217 15.6203 Q599.888 11.0023 609.813 11.0023 Q614.066 11.0023 618.482 11.7719 Q622.897 12.5416 627.515 14.0809 Z" fill="#000000" fill-rule="evenodd" fill-opacity="1" /><path clip-path="url(#clip900)" d="M678.921 35.9153 Q681.717 30.8922 685.605 28.5022 Q689.494 26.1121 694.76 26.1121 Q701.85 26.1121 705.698 31.0947 Q709.546 36.0368 709.546 45.1919 L709.546 72.576 L702.052 72.576 L702.052 45.4349 Q702.052 38.913 699.743 35.7533 Q697.434 32.5936 692.694 32.5936 Q686.902 32.5936 683.539 36.4419 Q680.177 40.2903 680.177 46.9338 L680.177 72.576 L672.683 72.576 L672.683 45.4349 Q672.683 38.8725 670.374 35.7533 Q668.065 32.5936 663.244 32.5936 Q657.533 32.5936 654.17 36.4824 Q650.808 40.3308 650.808 46.9338 L650.808 72.576 L643.314 72.576 L643.314 27.2059 L650.808 27.2059 L650.808 34.2544 Q653.36 30.082 656.925 28.0971 Q660.49 26.1121 665.391 26.1121 Q670.333 26.1121 673.777 28.6237 Q677.261 31.1352 678.921 35.9153 Z" fill="#000000" fill-rule="evenodd" fill-opacity="1" /><path clip-path="url(#clip900)" d="M741.994 32.4315 Q735.999 32.4315 732.515 37.1306 Q729.031 41.7891 729.031 49.9314 Q729.031 58.0738 732.474 62.7728 Q735.958 67.4314 741.994 67.4314 Q747.949 67.4314 751.433 62.7323 Q754.916 58.0333 754.916 49.9314 Q754.916 41.8701 751.433 37.1711 Q747.949 32.4315 741.994 32.4315 M741.994 26.1121 Q751.716 26.1121 757.266 32.4315 Q762.816 38.7509 762.816 49.9314 Q762.816 61.0714 757.266 67.4314 Q751.716 73.7508 741.994 73.7508 Q732.231 73.7508 726.682 67.4314 Q721.172 61.0714 721.172 49.9314 Q721.172 38.7509 726.682 32.4315 Q732.231 26.1121 741.994 26.1121 Z" fill="#000000" fill-rule="evenodd" fill-opacity="1" /><path clip-path="url(#clip900)" d="M774.887 9.54393 L782.381 9.54393 L782.381 46.7717 L804.621 27.2059 L814.141 27.2059 L790.078 48.4326 L815.153 72.576 L805.431 72.576 L782.381 50.4176 L782.381 72.576 L774.887 72.576 L774.887 9.54393 Z" fill="#000000" fill-rule="evenodd" fill-opacity="1" /><path clip-path="url(#clip900)" d="M859.065 48.0275 L859.065 51.6733 L824.794 51.6733 Q825.281 59.3701 829.412 63.421 Q833.585 67.4314 840.998 67.4314 Q845.292 67.4314 849.302 66.3781 Q853.353 65.3249 857.323 63.2184 L857.323 70.267 Q853.313 71.9684 849.1 72.8596 Q844.887 73.7508 840.552 73.7508 Q829.696 73.7508 823.336 67.4314 Q817.017 61.1119 817.017 50.3365 Q817.017 39.1965 823.012 32.6746 Q829.048 26.1121 839.256 26.1121 Q848.411 26.1121 853.718 32.0264 Q859.065 37.9003 859.065 48.0275 M851.611 45.84 Q851.53 39.7232 848.168 36.0774 Q844.846 32.4315 839.337 32.4315 Q833.099 32.4315 829.331 35.9558 Q825.605 39.4801 825.038 45.8805 L851.611 45.84 Z" fill="#000000" fill-rule="evenodd" fill-opacity="1" /><path clip-path="url(#clip900)" d="M897.994 12.096 L936.235 12.096 L936.235 18.9825 L906.177 18.9825 L906.177 36.8875 L934.979 36.8875 L934.979 43.7741 L906.177 43.7741 L906.177 65.6895 L936.964 65.6895 L936.964 72.576 L897.994 72.576 L897.994 12.096 Z" fill="#000000" fill-rule="evenodd" fill-opacity="1" /><path clip-path="url(#clip900)" d="M944.742 27.2059 L952.641 27.2059 L966.819 65.2844 L980.997 27.2059 L988.897 27.2059 L971.883 72.576 L961.756 72.576 L944.742 27.2059 Z" fill="#000000" fill-rule="evenodd" fill-opacity="1" /><path clip-path="url(#clip900)" d="M1037.99 48.0275 L1037.99 51.6733 L1003.72 51.6733 Q1004.21 59.3701 1008.34 63.421 Q1012.51 67.4314 1019.93 67.4314 Q1024.22 67.4314 1028.23 66.3781 Q1032.28 65.3249 1036.25 63.2184 L1036.25 70.267 Q1032.24 71.9684 1028.03 72.8596 Q1023.82 73.7508 1019.48 73.7508 Q1008.62 73.7508 1002.26 67.4314 Q995.945 61.1119 995.945 50.3365 Q995.945 39.1965 1001.94 32.6746 Q1007.98 26.1121 1018.18 26.1121 Q1027.34 26.1121 1032.65 32.0264 Q1037.99 37.9003 1037.99 48.0275 M1030.54 45.84 Q1030.46 39.7232 1027.1 36.0774 Q1023.77 32.4315 1018.27 32.4315 Q1012.03 32.4315 1008.26 35.9558 Q1004.53 39.4801 1003.97 45.8805 L1030.54 45.84 Z" fill="#000000" fill-rule="evenodd" fill-opacity="1" /><path clip-path="url(#clip900)" d="M1087.94 45.1919 L1087.94 72.576 L1080.49 72.576 L1080.49 45.4349 Q1080.49 38.994 1077.98 35.7938 Q1075.46 32.5936 1070.44 32.5936 Q1064.41 32.5936 1060.92 36.4419 Q1057.44 40.2903 1057.44 46.9338 L1057.44 72.576 L1049.94 72.576 L1049.94 27.2059 L1057.44 27.2059 L1057.44 34.2544 Q1060.11 30.163 1063.72 28.1376 Q1067.36 26.1121 1072.1 26.1121 Q1079.92 26.1121 1083.93 30.9732 Q1087.94 35.7938 1087.94 45.1919 Z" fill="#000000" fill-rule="evenodd" fill-opacity="1" /><path clip-path="url(#clip900)" d="M1110.18 14.324 L1110.18 27.2059 L1125.53 27.2059 L1125.53 32.9987 L1110.18 32.9987 L1110.18 57.6282 Q1110.18 63.1779 1111.68 64.7578 Q1113.22 66.3376 1117.88 66.3376 L1125.53 66.3376 L1125.53 72.576 L1117.88 72.576 Q1109.25 72.576 1105.97 69.3758 Q1102.69 66.1351 1102.69 57.6282 L1102.69 32.9987 L1097.22 32.9987 L1097.22 27.2059 L1102.69 27.2059 L1102.69 14.324 L1110.18 14.324 Z" fill="#000000" fill-rule="evenodd" fill-opacity="1" /><path clip-path="url(#clip900)" d="M1164.26 28.5427 L1164.26 35.5912 Q1161.1 33.9709 1157.7 33.1607 Q1154.3 32.3505 1150.65 32.3505 Q1145.1 32.3505 1142.3 34.0519 Q1139.55 35.7533 1139.55 39.156 Q1139.55 41.7486 1141.53 43.2475 Q1143.52 44.7058 1149.51 46.0426 L1152.07 46.6097 Q1160.01 48.3111 1163.33 51.4303 Q1166.69 54.509 1166.69 60.0587 Q1166.69 66.3781 1161.67 70.0644 Q1156.69 73.7508 1147.94 73.7508 Q1144.29 73.7508 1140.32 73.0216 Q1136.39 72.3329 1132.02 70.9151 L1132.02 63.2184 Q1136.15 65.3654 1140.16 66.4591 Q1144.17 67.5124 1148.1 67.5124 Q1153.36 67.5124 1156.2 65.73 Q1159.03 63.9071 1159.03 60.6258 Q1159.03 57.5877 1156.97 55.9673 Q1154.94 54.3469 1148.02 52.8481 L1145.42 52.2405 Q1138.5 50.7821 1135.42 47.7845 Q1132.34 44.7463 1132.34 39.4801 Q1132.34 33.0797 1136.88 29.5959 Q1141.41 26.1121 1149.76 26.1121 Q1153.89 26.1121 1157.54 26.7198 Q1161.18 27.3274 1164.26 28.5427 Z" fill="#000000" fill-rule="evenodd" fill-opacity="1" /><path clip-path="url(#clip900)" d="M1205.9 31.7429 L1205.9 24.3702 L1257.84 43.2069 L1257.84 49.9314 L1205.9 68.7682 L1205.9 61.3955 L1247.63 46.6097 L1205.9 31.7429 Z" fill="#000000" fill-rule="evenodd" fill-opacity="1" /><path clip-path="url(#clip900)" d="M1275.58 12.096 L1307.7 12.096 L1307.7 18.9825 L1283.07 18.9825 L1283.07 33.8088 Q1284.86 33.2012 1286.64 32.9176 Q1288.42 32.5936 1290.2 32.5936 Q1300.33 32.5936 1306.24 38.1433 Q1312.16 43.6931 1312.16 53.1722 Q1312.16 62.9348 1306.08 68.3631 Q1300.01 73.7508 1288.95 73.7508 Q1285.14 73.7508 1281.17 73.1026 Q1277.24 72.4545 1273.03 71.1582 L1273.03 62.9348 Q1276.67 64.9198 1280.56 65.892 Q1284.45 66.8642 1288.79 66.8642 Q1295.79 66.8642 1299.88 63.1779 Q1303.98 59.4916 1303.98 53.1722 Q1303.98 46.8528 1299.88 43.1664 Q1295.79 39.4801 1288.79 39.4801 Q1285.5 39.4801 1282.22 40.2093 Q1278.98 40.9384 1275.58 42.4778 L1275.58 12.096 Z" fill="#000000" fill-rule="evenodd" fill-opacity="1" /><path clip-path="url(#clip900)" d="M1364.94 45.1919 L1364.94 72.576 L1357.49 72.576 L1357.49 45.4349 Q1357.49 38.994 1354.98 35.7938 Q1352.47 32.5936 1347.44 32.5936 Q1341.41 32.5936 1337.92 36.4419 Q1334.44 40.2903 1334.44 46.9338 L1334.44 72.576 L1326.94 72.576 L1326.94 9.54393 L1334.44 9.54393 L1334.44 34.2544 Q1337.11 30.163 1340.72 28.1376 Q1344.36 26.1121 1349.1 26.1121 Q1356.92 26.1121 1360.93 30.9732 Q1364.94 35.7938 1364.94 45.1919 Z" fill="#000000" fill-rule="evenodd" fill-opacity="1" /><path clip-path="url(#clip900)" d="M1406.1 34.1734 Q1404.84 33.4443 1403.34 33.1202 Q1401.89 32.7556 1400.1 32.7556 Q1393.78 32.7556 1390.38 36.8875 Q1387.02 40.9789 1387.02 48.6757 L1387.02 72.576 L1379.53 72.576 L1379.53 27.2059 L1387.02 27.2059 L1387.02 34.2544 Q1389.37 30.1225 1393.14 28.1376 Q1396.9 26.1121 1402.29 26.1121 Q1403.06 26.1121 1403.99 26.2337 Q1404.92 26.3147 1406.06 26.5172 L1406.1 34.1734 Z" fill="#000000" fill-rule="evenodd" fill-opacity="1" /><path clip-path="url(#clip900)" d="M1442.84 28.5427 L1442.84 35.5912 Q1439.68 33.9709 1436.28 33.1607 Q1432.88 32.3505 1429.23 32.3505 Q1423.68 32.3505 1420.89 34.0519 Q1418.13 35.7533 1418.13 39.156 Q1418.13 41.7486 1420.12 43.2475 Q1422.1 44.7058 1428.1 46.0426 L1430.65 46.6097 Q1438.59 48.3111 1441.91 51.4303 Q1445.27 54.509 1445.27 60.0587 Q1445.27 66.3781 1440.25 70.0644 Q1435.27 73.7508 1426.52 73.7508 Q1422.87 73.7508 1418.9 73.0216 Q1414.97 72.3329 1410.6 70.9151 L1410.6 63.2184 Q1414.73 65.3654 1418.74 66.4591 Q1422.75 67.5124 1426.68 67.5124 Q1431.94 67.5124 1434.78 65.73 Q1437.62 63.9071 1437.62 60.6258 Q1437.62 57.5877 1435.55 55.9673 Q1433.52 54.3469 1426.6 52.8481 L1424 52.2405 Q1417.08 50.7821 1414 47.7845 Q1410.92 44.7463 1410.92 39.4801 Q1410.92 33.0797 1415.46 29.5959 Q1419.99 26.1121 1428.34 26.1121 Q1432.47 26.1121 1436.12 26.7198 Q1439.76 27.3274 1442.84 28.5427 Z" fill="#000000" fill-rule="evenodd" fill-opacity="1" /><path clip-path="url(#clip900)" d="M1483.51 27.2059 L1490.97 27.2059 L1490.97 72.576 L1483.51 72.576 L1483.51 27.2059 M1483.51 9.54393 L1490.97 9.54393 L1490.97 18.9825 L1483.51 18.9825 L1483.51 9.54393 Z" fill="#000000" fill-rule="evenodd" fill-opacity="1" /><path clip-path="url(#clip900)" d="M1544.28 45.1919 L1544.28 72.576 L1536.82 72.576 L1536.82 45.4349 Q1536.82 38.994 1534.31 35.7938 Q1531.8 32.5936 1526.78 32.5936 Q1520.74 32.5936 1517.26 36.4419 Q1513.77 40.2903 1513.77 46.9338 L1513.77 72.576 L1506.28 72.576 L1506.28 27.2059 L1513.77 27.2059 L1513.77 34.2544 Q1516.45 30.163 1520.05 28.1376 Q1523.7 26.1121 1528.44 26.1121 Q1536.25 26.1121 1540.27 30.9732 Q1544.28 35.7938 1544.28 45.1919 Z" fill="#000000" fill-rule="evenodd" fill-opacity="1" /><path clip-path="url(#clip900)" d="M1594.02 18.8205 L1594.02 65.8515 L1603.9 65.8515 Q1616.42 65.8515 1622.21 60.1802 Q1628.05 54.509 1628.05 42.2752 Q1628.05 30.1225 1622.21 24.4918 Q1616.42 18.8205 1603.9 18.8205 L1594.02 18.8205 M1585.84 12.096 L1602.65 12.096 Q1620.23 12.096 1628.45 19.4281 Q1636.68 26.7198 1636.68 42.2752 Q1636.68 57.9117 1628.41 65.2439 Q1620.15 72.576 1602.65 72.576 L1585.84 72.576 L1585.84 12.096 Z" fill="#000000" fill-rule="evenodd" fill-opacity="1" /><path clip-path="url(#clip900)" d="M1648.63 54.671 L1648.63 27.2059 L1656.08 27.2059 L1656.08 54.3874 Q1656.08 60.8284 1658.59 64.0691 Q1661.1 67.2693 1666.13 67.2693 Q1672.16 67.2693 1675.65 63.421 Q1679.17 59.5726 1679.17 52.9291 L1679.17 27.2059 L1686.62 27.2059 L1686.62 72.576 L1679.17 72.576 L1679.17 65.6084 Q1676.46 69.7404 1672.85 71.7658 Q1669.29 73.7508 1664.55 73.7508 Q1656.73 73.7508 1652.68 68.8897 Q1648.63 64.0286 1648.63 54.671 M1667.38 26.1121 L1667.38 26.1121 Z" fill="#000000" fill-rule="evenodd" fill-opacity="1" /><path clip-path="url(#clip900)" d="M1728.27 34.1734 Q1727.01 33.4443 1725.51 33.1202 Q1724.05 32.7556 1722.27 32.7556 Q1715.95 32.7556 1712.55 36.8875 Q1709.19 40.9789 1709.19 48.6757 L1709.19 72.576 L1701.69 72.576 L1701.69 27.2059 L1709.19 27.2059 L1709.19 34.2544 Q1711.54 30.1225 1715.3 28.1376 Q1719.07 26.1121 1724.46 26.1121 Q1725.23 26.1121 1726.16 26.2337 Q1727.09 26.3147 1728.23 26.5172 L1728.27 34.1734 Z" fill="#000000" fill-rule="evenodd" fill-opacity="1" /><path clip-path="url(#clip900)" d="M1756.7 49.7694 Q1747.67 49.7694 1744.19 51.8354 Q1740.7 53.9013 1740.7 58.8839 Q1740.7 62.8538 1743.3 65.2034 Q1745.93 67.5124 1750.43 67.5124 Q1756.62 67.5124 1760.35 63.1374 Q1764.12 58.7219 1764.12 51.4303 L1764.12 49.7694 L1756.7 49.7694 M1771.57 46.6907 L1771.57 72.576 L1764.12 72.576 L1764.12 65.6895 Q1761.57 69.8214 1757.76 71.8063 Q1753.95 73.7508 1748.44 73.7508 Q1741.47 73.7508 1737.34 69.8619 Q1733.25 65.9325 1733.25 59.3701 Q1733.25 51.7138 1738.35 47.825 Q1743.5 43.9361 1753.67 43.9361 L1764.12 43.9361 L1764.12 43.2069 Q1764.12 38.0623 1760.72 35.2672 Q1757.35 32.4315 1751.24 32.4315 Q1747.35 32.4315 1743.66 33.3632 Q1739.97 34.295 1736.57 36.1584 L1736.57 29.2718 Q1740.66 27.692 1744.51 26.9223 Q1748.36 26.1121 1752.01 26.1121 Q1761.85 26.1121 1766.71 31.2163 Q1771.57 36.3204 1771.57 46.6907 Z" fill="#000000" fill-rule="evenodd" fill-opacity="1" /><path clip-path="url(#clip900)" d="M1794.3 14.324 L1794.3 27.2059 L1809.65 27.2059 L1809.65 32.9987 L1794.3 32.9987 L1794.3 57.6282 Q1794.3 63.1779 1795.8 64.7578 Q1797.34 66.3376 1801.99 66.3376 L1809.65 66.3376 L1809.65 72.576 L1801.99 72.576 Q1793.37 72.576 1790.08 69.3758 Q1786.8 66.1351 1786.8 57.6282 L1786.8 32.9987 L1781.33 32.9987 L1781.33 27.2059 L1786.8 27.2059 L1786.8 14.324 L1794.3 14.324 Z" fill="#000000" fill-rule="evenodd" fill-opacity="1" /><path clip-path="url(#clip900)" d="M1819.45 27.2059 L1826.91 27.2059 L1826.91 72.576 L1819.45 72.576 L1819.45 27.2059 M1819.45 9.54393 L1826.91 9.54393 L1826.91 18.9825 L1819.45 18.9825 L1819.45 9.54393 Z" fill="#000000" fill-rule="evenodd" fill-opacity="1" /><path clip-path="url(#clip900)" d="M1860.08 32.4315 Q1854.09 32.4315 1850.6 37.1306 Q1847.12 41.7891 1847.12 49.9314 Q1847.12 58.0738 1850.56 62.7728 Q1854.05 67.4314 1860.08 67.4314 Q1866.04 67.4314 1869.52 62.7323 Q1873.01 58.0333 1873.01 49.9314 Q1873.01 41.8701 1869.52 37.1711 Q1866.04 32.4315 1860.08 32.4315 M1860.08 26.1121 Q1869.81 26.1121 1875.36 32.4315 Q1880.91 38.7509 1880.91 49.9314 Q1880.91 61.0714 1875.36 67.4314 Q1869.81 73.7508 1860.08 73.7508 Q1850.32 73.7508 1844.77 67.4314 Q1839.26 61.0714 1839.26 49.9314 Q1839.26 38.7509 1844.77 32.4315 Q1850.32 26.1121 1860.08 26.1121 Z" fill="#000000" fill-rule="evenodd" fill-opacity="1" /><path clip-path="url(#clip900)" d="M1930.97 45.1919 L1930.97 72.576 L1923.52 72.576 L1923.52 45.4349 Q1923.52 38.994 1921.01 35.7938 Q1918.5 32.5936 1913.47 32.5936 Q1907.44 32.5936 1903.96 36.4419 Q1900.47 40.2903 1900.47 46.9338 L1900.47 72.576 L1892.98 72.576 L1892.98 27.2059 L1900.47 27.2059 L1900.47 34.2544 Q1903.15 30.163 1906.75 28.1376 Q1910.4 26.1121 1915.14 26.1121 Q1922.95 26.1121 1926.96 30.9732 Q1930.97 35.7938 1930.97 45.1919 Z" fill="#000000" fill-rule="evenodd" fill-opacity="1" /><path clip-path="url(#clip902)" d="
M287.036 1447.87 L287.036 1447.87 L369.823 1447.87 L369.823 1447.87 L287.036 1447.87 L287.036 1447.87  Z
  " fill="#009af9" fill-rule="evenodd" fill-opacity="1"/>
<polyline clip-path="url(#clip902)" style="stroke:#000000; stroke-linecap:butt; stroke-linejoin:round; stroke-width:4; stroke-opacity:1; fill:none" points="
  287.036,1447.87 287.036,1447.87 369.823,1447.87 287.036,1447.87 
  "/>
<path clip-path="url(#clip902)" d="
M390.52 1447.87 L390.52 1447.87 L473.307 1447.87 L473.307 1447.87 L390.52 1447.87 L390.52 1447.87  Z
  " fill="#009af9" fill-rule="evenodd" fill-opacity="1"/>
<polyline clip-path="url(#clip902)" style="stroke:#000000; stroke-linecap:butt; stroke-linejoin:round; stroke-width:4; stroke-opacity:1; fill:none" points="
  390.52,1447.87 390.52,1447.87 473.307,1447.87 390.52,1447.87 
  "/>
<path clip-path="url(#clip902)" d="
M494.003 1447.87 L494.003 1447.87 L576.79 1447.87 L576.79 1447.87 L494.003 1447.87 L494.003 1447.87  Z
  " fill="#009af9" fill-rule="evenodd" fill-opacity="1"/>
<polyline clip-path="url(#clip902)" style="stroke:#000000; stroke-linecap:butt; stroke-linejoin:round; stroke-width:4; stroke-opacity:1; fill:none" points="
  494.003,1447.87 494.003,1447.87 576.79,1447.87 494.003,1447.87 
  "/>
<path clip-path="url(#clip902)" d="
M597.487 1447.87 L597.487 1447.87 L680.273 1447.87 L680.273 1447.87 L597.487 1447.87 L597.487 1447.87  Z
  " fill="#009af9" fill-rule="evenodd" fill-opacity="1"/>
<polyline clip-path="url(#clip902)" style="stroke:#000000; stroke-linecap:butt; stroke-linejoin:round; stroke-width:4; stroke-opacity:1; fill:none" points="
  597.487,1447.87 597.487,1447.87 680.273,1447.87 597.487,1447.87 
  "/>
<path clip-path="url(#clip902)" d="
M804.453 1447.87 L804.453 1447.87 L887.24 1447.87 L887.24 1447.87 L804.453 1447.87 L804.453 1447.87  Z
  " fill="#009af9" fill-rule="evenodd" fill-opacity="1"/>
<polyline clip-path="url(#clip902)" style="stroke:#000000; stroke-linecap:butt; stroke-linejoin:round; stroke-width:4; stroke-opacity:1; fill:none" points="
  804.453,1447.87 804.453,1447.87 887.24,1447.87 804.453,1447.87 
  "/>
<path clip-path="url(#clip902)" d="
M1114.9 1447.87 L1114.9 1447.87 L1197.69 1447.87 L1197.69 1447.87 L1114.9 1447.87 L1114.9 1447.87  Z
  " fill="#009af9" fill-rule="evenodd" fill-opacity="1"/>
<polyline clip-path="url(#clip902)" style="stroke:#000000; stroke-linecap:butt; stroke-linejoin:round; stroke-width:4; stroke-opacity:1; fill:none" points="
  1114.9,1447.87 1114.9,1447.87 1197.69,1447.87 1114.9,1447.87 
  "/>
<path clip-path="url(#clip902)" d="
M1218.39 804.96 L1218.39 1447.87 L1301.17 1447.87 L1301.17 804.96 L1218.39 804.96 L1218.39 804.96  Z
  " fill="#009af9" fill-rule="evenodd" fill-opacity="1"/>
<polyline clip-path="url(#clip902)" style="stroke:#000000; stroke-linecap:butt; stroke-linejoin:round; stroke-width:4; stroke-opacity:1; fill:none" points="
  1218.39,804.96 1218.39,1447.87 1301.17,1447.87 1301.17,804.96 1218.39,804.96 
  "/>
<path clip-path="url(#clip902)" d="
M1321.87 1126.42 L1321.87 1447.87 L1404.66 1447.87 L1404.66 1126.42 L1321.87 1126.42 L1321.87 1126.42  Z
  " fill="#009af9" fill-rule="evenodd" fill-opacity="1"/>
<polyline clip-path="url(#clip902)" style="stroke:#000000; stroke-linecap:butt; stroke-linejoin:round; stroke-width:4; stroke-opacity:1; fill:none" points="
  1321.87,1126.42 1321.87,1447.87 1404.66,1447.87 1404.66,1126.42 1321.87,1126.42 
  "/>
<path clip-path="url(#clip902)" d="
M1425.35 1447.87 L1425.35 1447.87 L1508.14 1447.87 L1508.14 1447.87 L1425.35 1447.87 L1425.35 1447.87  Z
  " fill="#009af9" fill-rule="evenodd" fill-opacity="1"/>
<polyline clip-path="url(#clip902)" style="stroke:#000000; stroke-linecap:butt; stroke-linejoin:round; stroke-width:4; stroke-opacity:1; fill:none" points="
  1425.35,1447.87 1425.35,1447.87 1508.14,1447.87 1425.35,1447.87 
  "/>
<path clip-path="url(#clip902)" d="
M1528.84 1447.87 L1528.84 1447.87 L1611.62 1447.87 L1611.62 1447.87 L1528.84 1447.87 L1528.84 1447.87  Z
  " fill="#009af9" fill-rule="evenodd" fill-opacity="1"/>
<polyline clip-path="url(#clip902)" style="stroke:#000000; stroke-linecap:butt; stroke-linejoin:round; stroke-width:4; stroke-opacity:1; fill:none" points="
  1528.84,1447.87 1528.84,1447.87 1611.62,1447.87 1528.84,1447.87 
  "/>
<path clip-path="url(#clip902)" d="
M1632.32 1447.87 L1632.32 1447.87 L1715.11 1447.87 L1715.11 1447.87 L1632.32 1447.87 L1632.32 1447.87  Z
  " fill="#009af9" fill-rule="evenodd" fill-opacity="1"/>
<polyline clip-path="url(#clip902)" style="stroke:#000000; stroke-linecap:butt; stroke-linejoin:round; stroke-width:4; stroke-opacity:1; fill:none" points="
  1632.32,1447.87 1632.32,1447.87 1715.11,1447.87 1632.32,1447.87 
  "/>
<path clip-path="url(#clip902)" d="
M1839.29 1447.87 L1839.29 1447.87 L1922.07 1447.87 L1922.07 1447.87 L1839.29 1447.87 L1839.29 1447.87  Z
  " fill="#009af9" fill-rule="evenodd" fill-opacity="1"/>
<polyline clip-path="url(#clip902)" style="stroke:#000000; stroke-linecap:butt; stroke-linejoin:round; stroke-width:4; stroke-opacity:1; fill:none" points="
  1839.29,1447.87 1839.29,1447.87 1922.07,1447.87 1839.29,1447.87 
  "/>
<path clip-path="url(#clip902)" d="
M1942.77 1126.42 L1942.77 1447.87 L2025.56 1447.87 L2025.56 1126.42 L1942.77 1126.42 L1942.77 1126.42  Z
  " fill="#009af9" fill-rule="evenodd" fill-opacity="1"/>
<polyline clip-path="url(#clip902)" style="stroke:#000000; stroke-linecap:butt; stroke-linejoin:round; stroke-width:4; stroke-opacity:1; fill:none" points="
  1942.77,1126.42 1942.77,1447.87 2025.56,1447.87 2025.56,1126.42 1942.77,1126.42 
  "/>
<path clip-path="url(#clip902)" d="
M2046.25 162.047 L2046.25 1447.87 L2129.04 1447.87 L2129.04 162.047 L2046.25 162.047 L2046.25 162.047  Z
  " fill="#009af9" fill-rule="evenodd" fill-opacity="1"/>
<polyline clip-path="url(#clip902)" style="stroke:#000000; stroke-linecap:butt; stroke-linejoin:round; stroke-width:4; stroke-opacity:1; fill:none" points="
  2046.25,162.047 2046.25,1447.87 2129.04,1447.87 2129.04,162.047 2046.25,162.047 
  "/>
<path clip-path="url(#clip902)" d="
M2149.74 1126.42 L2149.74 1447.87 L2232.52 1447.87 L2232.52 1126.42 L2149.74 1126.42 L2149.74 1126.42  Z
  " fill="#009af9" fill-rule="evenodd" fill-opacity="1"/>
<polyline clip-path="url(#clip902)" style="stroke:#000000; stroke-linecap:butt; stroke-linejoin:round; stroke-width:4; stroke-opacity:1; fill:none" points="
  2149.74,1126.42 2149.74,1447.87 2232.52,1447.87 2232.52,1126.42 2149.74,1126.42 
  "/>
</svg>
