<?xml version="1.0" encoding="utf-8"?>
<svg xmlns="http://www.w3.org/2000/svg" xmlns:xlink="http://www.w3.org/1999/xlink" width="600" height="400" viewBox="0 0 2400 1600">
<defs>
  <clipPath id="clip890">
    <rect x="0" y="0" width="2400" height="1600"/>
  </clipPath>
</defs>
<path clip-path="url(#clip890)" d="
M0 1600 L2400 1600 L2400 0 L0 0  Z
  " fill="#ffffff" fill-rule="evenodd" fill-opacity="1"/>
<defs>
  <clipPath id="clip891">
    <rect x="480" y="0" width="1681" height="1600"/>
  </clipPath>
</defs>
<path clip-path="url(#clip890)" d="
M251.842 1423.18 L2352.76 1423.18 L2352.76 47.2441 L251.842 47.2441  Z
  " fill="#ffffff" fill-rule="evenodd" fill-opacity="1"/>
<defs>
  <clipPath id="clip892">
    <rect x="251" y="47" width="2102" height="1377"/>
  </clipPath>
</defs>
<polyline clip-path="url(#clip892)" style="stroke:#000000; stroke-linecap:round; stroke-linejoin:round; stroke-width:2; stroke-opacity:0.1; fill:none" points="
  311.302,1423.18 311.302,47.2441 
  "/>
<polyline clip-path="url(#clip892)" style="stroke:#000000; stroke-linecap:round; stroke-linejoin:round; stroke-width:2; stroke-opacity:0.1; fill:none" points="
  971.967,1423.18 971.967,47.2441 
  "/>
<polyline clip-path="url(#clip892)" style="stroke:#000000; stroke-linecap:round; stroke-linejoin:round; stroke-width:2; stroke-opacity:0.1; fill:none" points="
  1632.63,1423.18 1632.63,47.2441 
  "/>
<polyline clip-path="url(#clip892)" style="stroke:#000000; stroke-linecap:round; stroke-linejoin:round; stroke-width:2; stroke-opacity:0.1; fill:none" points="
  2293.3,1423.18 2293.3,47.2441 
  "/>
<polyline clip-path="url(#clip890)" style="stroke:#000000; stroke-linecap:round; stroke-linejoin:round; stroke-width:4; stroke-opacity:1; fill:none" points="
  251.842,1423.18 2352.76,1423.18 
  "/>
<polyline clip-path="url(#clip890)" style="stroke:#000000; stroke-linecap:round; stroke-linejoin:round; stroke-width:4; stroke-opacity:1; fill:none" points="
  311.302,1423.18 311.302,1404.28 
  "/>
<polyline clip-path="url(#clip890)" style="stroke:#000000; stroke-linecap:round; stroke-linejoin:round; stroke-width:4; stroke-opacity:1; fill:none" points="
  971.967,1423.18 971.967,1404.28 
  "/>
<polyline clip-path="url(#clip890)" style="stroke:#000000; stroke-linecap:round; stroke-linejoin:round; stroke-width:4; stroke-opacity:1; fill:none" points="
  1632.63,1423.18 1632.63,1404.28 
  "/>
<polyline clip-path="url(#clip890)" style="stroke:#000000; stroke-linecap:round; stroke-linejoin:round; stroke-width:4; stroke-opacity:1; fill:none" points="
  2293.3,1423.18 2293.3,1404.28 
  "/>
<path clip-path="url(#clip890)" d="M311.302 1454.1 Q307.691 1454.1 305.862 1457.66 Q304.057 1461.2 304.057 1468.33 Q304.057 1475.44 305.862 1479.01 Q307.691 1482.55 311.302 1482.55 Q314.936 1482.55 316.742 1479.01 Q318.571 1475.44 318.571 1468.33 Q318.571 1461.2 316.742 1457.66 Q314.936 1454.1 311.302 1454.1 M311.302 1450.39 Q317.112 1450.39 320.168 1455 Q323.247 1459.58 323.247 1468.33 Q323.247 1477.06 320.168 1481.67 Q317.112 1486.25 311.302 1486.25 Q305.492 1486.25 302.413 1481.67 Q299.358 1477.06 299.358 1468.33 Q299.358 1459.58 302.413 1455 Q305.492 1450.39 311.302 1450.39 Z" fill="#000000" fill-rule="evenodd" fill-opacity="1" /><path clip-path="url(#clip890)" d="M946.666 1451.02 L965.022 1451.02 L965.022 1454.96 L950.948 1454.96 L950.948 1463.43 Q951.967 1463.08 952.985 1462.92 Q954.004 1462.73 955.022 1462.73 Q960.809 1462.73 964.189 1465.9 Q967.569 1469.08 967.569 1474.49 Q967.569 1480.07 964.096 1483.17 Q960.624 1486.25 954.305 1486.25 Q952.129 1486.25 949.86 1485.88 Q947.615 1485.51 945.208 1484.77 L945.208 1480.07 Q947.291 1481.2 949.513 1481.76 Q951.735 1482.32 954.212 1482.32 Q958.217 1482.32 960.555 1480.21 Q962.893 1478.1 962.893 1474.49 Q962.893 1470.88 960.555 1468.77 Q958.217 1466.67 954.212 1466.67 Q952.337 1466.67 950.462 1467.08 Q948.61 1467.5 946.666 1468.38 L946.666 1451.02 Z" fill="#000000" fill-rule="evenodd" fill-opacity="1" /><path clip-path="url(#clip890)" d="M986.782 1454.1 Q983.17 1454.1 981.342 1457.66 Q979.536 1461.2 979.536 1468.33 Q979.536 1475.44 981.342 1479.01 Q983.17 1482.55 986.782 1482.55 Q990.416 1482.55 992.221 1479.01 Q994.05 1475.44 994.05 1468.33 Q994.05 1461.2 992.221 1457.66 Q990.416 1454.1 986.782 1454.1 M986.782 1450.39 Q992.592 1450.39 995.647 1455 Q998.726 1459.58 998.726 1468.33 Q998.726 1477.06 995.647 1481.67 Q992.592 1486.25 986.782 1486.25 Q980.971 1486.25 977.893 1481.67 Q974.837 1477.06 974.837 1468.33 Q974.837 1459.58 977.893 1455 Q980.971 1450.39 986.782 1450.39 Z" fill="#000000" fill-rule="evenodd" fill-opacity="1" /><path clip-path="url(#clip890)" d="M1592.24 1481.64 L1599.88 1481.64 L1599.88 1455.28 L1591.57 1456.95 L1591.57 1452.69 L1599.83 1451.02 L1604.51 1451.02 L1604.51 1481.64 L1612.15 1481.64 L1612.15 1485.58 L1592.24 1485.58 L1592.24 1481.64 Z" fill="#000000" fill-rule="evenodd" fill-opacity="1" /><path clip-path="url(#clip890)" d="M1631.59 1454.1 Q1627.98 1454.1 1626.15 1457.66 Q1624.34 1461.2 1624.34 1468.33 Q1624.34 1475.44 1626.15 1479.01 Q1627.98 1482.55 1631.59 1482.55 Q1635.22 1482.55 1637.03 1479.01 Q1638.86 1475.44 1638.86 1468.33 Q1638.86 1461.2 1637.03 1457.66 Q1635.22 1454.1 1631.59 1454.1 M1631.59 1450.39 Q1637.4 1450.39 1640.46 1455 Q1643.53 1459.58 1643.53 1468.33 Q1643.53 1477.06 1640.46 1481.67 Q1637.4 1486.25 1631.59 1486.25 Q1625.78 1486.25 1622.7 1481.67 Q1619.65 1477.06 1619.65 1468.33 Q1619.65 1459.58 1622.7 1455 Q1625.78 1450.39 1631.59 1450.39 Z" fill="#000000" fill-rule="evenodd" fill-opacity="1" /><path clip-path="url(#clip890)" d="M1661.75 1454.1 Q1658.14 1454.1 1656.31 1457.66 Q1654.51 1461.2 1654.51 1468.33 Q1654.51 1475.44 1656.31 1479.01 Q1658.14 1482.55 1661.75 1482.55 Q1665.39 1482.55 1667.19 1479.01 Q1669.02 1475.44 1669.02 1468.33 Q1669.02 1461.2 1667.19 1457.66 Q1665.39 1454.1 1661.75 1454.1 M1661.75 1450.39 Q1667.56 1450.39 1670.62 1455 Q1673.7 1459.58 1673.7 1468.33 Q1673.7 1477.06 1670.62 1481.67 Q1667.56 1486.25 1661.75 1486.25 Q1655.94 1486.25 1652.86 1481.67 Q1649.81 1477.06 1649.81 1468.33 Q1649.81 1459.58 1652.86 1455 Q1655.94 1450.39 1661.75 1450.39 Z" fill="#000000" fill-rule="evenodd" fill-opacity="1" /><path clip-path="url(#clip890)" d="M2252.9 1481.64 L2260.54 1481.64 L2260.54 1455.28 L2252.23 1456.95 L2252.23 1452.69 L2260.5 1451.02 L2265.17 1451.02 L2265.17 1481.64 L2272.81 1481.64 L2272.81 1485.58 L2252.9 1485.58 L2252.9 1481.64 Z" fill="#000000" fill-rule="evenodd" fill-opacity="1" /><path clip-path="url(#clip890)" d="M2282.3 1451.02 L2300.66 1451.02 L2300.66 1454.96 L2286.58 1454.96 L2286.58 1463.43 Q2287.6 1463.08 2288.62 1462.92 Q2289.64 1462.73 2290.66 1462.73 Q2296.44 1462.73 2299.82 1465.9 Q2303.2 1469.08 2303.2 1474.49 Q2303.2 1480.07 2299.73 1483.17 Q2296.26 1486.25 2289.94 1486.25 Q2287.76 1486.25 2285.5 1485.88 Q2283.25 1485.51 2280.84 1484.77 L2280.84 1480.07 Q2282.93 1481.2 2285.15 1481.76 Q2287.37 1482.32 2289.85 1482.32 Q2293.85 1482.32 2296.19 1480.21 Q2298.53 1478.1 2298.53 1474.49 Q2298.53 1470.88 2296.19 1468.77 Q2293.85 1466.67 2289.85 1466.67 Q2287.97 1466.67 2286.1 1467.08 Q2284.25 1467.5 2282.3 1468.38 L2282.3 1451.02 Z" fill="#000000" fill-rule="evenodd" fill-opacity="1" /><path clip-path="url(#clip890)" d="M2322.42 1454.1 Q2318.81 1454.1 2316.98 1457.66 Q2315.17 1461.2 2315.17 1468.33 Q2315.17 1475.44 2316.98 1479.01 Q2318.81 1482.55 2322.42 1482.55 Q2326.05 1482.55 2327.86 1479.01 Q2329.68 1475.44 2329.68 1468.33 Q2329.68 1461.2 2327.86 1457.66 Q2326.05 1454.1 2322.42 1454.1 M2322.42 1450.39 Q2328.23 1450.39 2331.28 1455 Q2334.36 1459.58 2334.36 1468.33 Q2334.36 1477.06 2331.28 1481.67 Q2328.23 1486.25 2322.42 1486.25 Q2316.61 1486.25 2313.53 1481.67 Q2310.47 1477.06 2310.47 1468.33 Q2310.47 1459.58 2313.53 1455 Q2316.61 1450.39 2322.42 1450.39 Z" fill="#000000" fill-rule="evenodd" fill-opacity="1" /><path clip-path="url(#clip890)" d="M1312.74 1537.87 Q1311.75 1537.3 1310.57 1537.04 Q1309.43 1536.76 1308.03 1536.76 Q1303.06 1536.76 1300.39 1540 Q1297.75 1543.22 1297.75 1549.27 L1297.75 1568.04 L1291.86 1568.04 L1291.86 1532.4 L1297.75 1532.4 L1297.75 1537.93 Q1299.59 1534.69 1302.55 1533.13 Q1305.51 1531.54 1309.75 1531.54 Q1310.35 1531.54 1311.08 1531.63 Q1311.82 1531.7 1312.71 1531.85 L1312.74 1537.87 Z" fill="#000000" fill-rule="evenodd" fill-opacity="1" /><polyline clip-path="url(#clip892)" style="stroke:#000000; stroke-linecap:round; stroke-linejoin:round; stroke-width:2; stroke-opacity:0.1; fill:none" points="
  251.842,1329.74 2352.76,1329.74 
  "/>
<polyline clip-path="url(#clip892)" style="stroke:#000000; stroke-linecap:round; stroke-linejoin:round; stroke-width:2; stroke-opacity:0.1; fill:none" points="
  251.842,681.105 2352.76,681.105 
  "/>
<polyline clip-path="url(#clip890)" style="stroke:#000000; stroke-linecap:round; stroke-linejoin:round; stroke-width:4; stroke-opacity:1; fill:none" points="
  251.842,1423.18 251.842,47.2441 
  "/>
<polyline clip-path="url(#clip890)" style="stroke:#000000; stroke-linecap:round; stroke-linejoin:round; stroke-width:4; stroke-opacity:1; fill:none" points="
  251.842,1329.74 270.74,1329.74 
  "/>
<polyline clip-path="url(#clip890)" style="stroke:#000000; stroke-linecap:round; stroke-linejoin:round; stroke-width:4; stroke-opacity:1; fill:none" points="
  251.842,681.105 270.74,681.105 
  "/>
<path clip-path="url(#clip890)" d="M114.931 1349.54 L122.57 1349.54 L122.57 1323.17 L114.26 1324.84 L114.26 1320.58 L122.524 1318.91 L127.2 1318.91 L127.2 1349.54 L134.839 1349.54 L134.839 1353.47 L114.931 1353.47 L114.931 1349.54 Z" fill="#000000" fill-rule="evenodd" fill-opacity="1" /><path clip-path="url(#clip890)" d="M154.283 1321.99 Q150.672 1321.99 148.843 1325.55 Q147.038 1329.1 147.038 1336.23 Q147.038 1343.33 148.843 1346.9 Q150.672 1350.44 154.283 1350.44 Q157.917 1350.44 159.723 1346.9 Q161.552 1343.33 161.552 1336.23 Q161.552 1329.1 159.723 1325.55 Q157.917 1321.99 154.283 1321.99 M154.283 1318.29 Q160.093 1318.29 163.149 1322.89 Q166.227 1327.48 166.227 1336.23 Q166.227 1344.95 163.149 1349.56 Q160.093 1354.14 154.283 1354.14 Q148.473 1354.14 145.394 1349.56 Q142.339 1344.95 142.339 1336.23 Q142.339 1327.48 145.394 1322.89 Q148.473 1318.29 154.283 1318.29 Z" fill="#000000" fill-rule="evenodd" fill-opacity="1" /><path clip-path="url(#clip890)" d="M166.227 1312.39 L190.339 1312.39 L190.339 1315.58 L166.227 1315.58 L166.227 1312.39 Z" fill="#000000" fill-rule="evenodd" fill-opacity="1" /><path clip-path="url(#clip890)" d="M210.05 1310.92 Q212.777 1311.5 214.3 1313.35 Q215.842 1315.19 215.842 1317.9 Q215.842 1322.05 212.984 1324.33 Q210.125 1326.61 204.859 1326.61 Q203.091 1326.61 201.21 1326.25 Q199.348 1325.91 197.354 1325.21 L197.354 1321.55 Q198.934 1322.47 200.815 1322.94 Q202.696 1323.41 204.746 1323.41 Q208.319 1323.41 210.181 1322 Q212.062 1320.59 212.062 1317.9 Q212.062 1315.42 210.313 1314.02 Q208.583 1312.61 205.479 1312.61 L202.207 1312.61 L202.207 1309.49 L205.63 1309.49 Q208.432 1309.49 209.918 1308.38 Q211.404 1307.25 211.404 1305.15 Q211.404 1302.98 209.861 1301.84 Q208.338 1300.67 205.479 1300.67 Q203.918 1300.67 202.132 1301.01 Q200.345 1301.35 198.201 1302.06 L198.201 1298.68 Q200.364 1298.07 202.244 1297.77 Q204.144 1297.47 205.818 1297.47 Q210.144 1297.47 212.664 1299.45 Q215.184 1301.4 215.184 1304.75 Q215.184 1307.08 213.849 1308.7 Q212.513 1310.3 210.05 1310.92 Z" fill="#000000" fill-rule="evenodd" fill-opacity="1" /><path clip-path="url(#clip890)" d="M145.137 700.897 L152.776 700.897 L152.776 674.532 L144.465 676.198 L144.465 671.939 L152.729 670.272 L157.405 670.272 L157.405 700.897 L165.044 700.897 L165.044 704.832 L145.137 704.832 L145.137 700.897 Z" fill="#000000" fill-rule="evenodd" fill-opacity="1" /><path clip-path="url(#clip890)" d="M184.488 673.351 Q180.877 673.351 179.049 676.916 Q177.243 680.457 177.243 687.587 Q177.243 694.693 179.049 698.258 Q180.877 701.8 184.488 701.8 Q188.123 701.8 189.928 698.258 Q191.757 694.693 191.757 687.587 Q191.757 680.457 189.928 676.916 Q188.123 673.351 184.488 673.351 M184.488 669.647 Q190.299 669.647 193.354 674.254 Q196.433 678.837 196.433 687.587 Q196.433 696.314 193.354 700.92 Q190.299 705.504 184.488 705.504 Q178.678 705.504 175.6 700.92 Q172.544 696.314 172.544 687.587 Q172.544 678.837 175.6 674.254 Q178.678 669.647 184.488 669.647 Z" fill="#000000" fill-rule="evenodd" fill-opacity="1" /><path clip-path="url(#clip890)" d="M206.138 651.843 Q203.204 651.843 201.718 654.74 Q200.251 657.617 200.251 663.41 Q200.251 669.184 201.718 672.081 Q203.204 674.958 206.138 674.958 Q209.09 674.958 210.557 672.081 Q212.043 669.184 212.043 663.41 Q212.043 657.617 210.557 654.74 Q209.09 651.843 206.138 651.843 M206.138 648.834 Q210.858 648.834 213.341 652.577 Q215.842 656.301 215.842 663.41 Q215.842 670.501 213.341 674.243 Q210.858 677.967 206.138 677.967 Q201.417 677.967 198.915 674.243 Q196.433 670.501 196.433 663.41 Q196.433 656.301 198.915 652.577 Q201.417 648.834 206.138 648.834 Z" fill="#000000" fill-rule="evenodd" fill-opacity="1" /><path clip-path="url(#clip890)" d="M14.1925 847.614 L79.3773 847.614 L79.3773 853.025 L14.1925 853.025 L14.1925 847.614 Z" fill="#000000" fill-rule="evenodd" fill-opacity="1" /><path clip-path="url(#clip890)" d="M16.4842 835.233 L16.4842 828.326 L34.149 816.518 L16.4842 804.646 L16.4842 797.739 L39.3052 813.017 L64.0042 796.721 L64.0042 803.627 L43.793 816.995 L64.0042 830.459 L64.0042 837.397 L38.6368 820.433 L16.4842 835.233 Z" fill="#000000" fill-rule="evenodd" fill-opacity="1" /><path clip-path="url(#clip890)" d="M60.3757 786.154 L60.3757 772.658 L64.0042 772.658 L64.0042 791.692 L60.503 791.692 Q59.5163 790.61 57.7339 788.604 Q48.0262 777.655 45.0344 777.655 Q42.9337 777.655 41.6605 779.31 Q40.3556 780.965 40.3556 783.671 Q40.3556 785.326 40.9285 787.268 Q41.4696 789.209 42.5836 791.501 L38.6686 791.501 Q37.7774 789.05 37.3318 786.949 Q36.8862 784.817 36.8862 783.003 Q36.8862 778.387 38.9869 775.618 Q41.0876 772.849 44.5251 772.849 Q48.9493 772.849 57.9886 783.384 Q59.5163 785.167 60.3757 786.154 Z" fill="#000000" fill-rule="evenodd" fill-opacity="1" /><path clip-path="url(#clip890)" d="M43.5384 765.37 L43.5384 748.214 L48.7583 748.214 L48.7583 765.37 L43.5384 765.37 Z" fill="#000000" fill-rule="evenodd" fill-opacity="1" /><path clip-path="url(#clip890)" d="M22.818 724.183 L46.4666 732.904 L46.4666 715.431 L22.818 724.183 M16.4842 727.812 L16.4842 720.523 L64.0042 702.413 L64.0042 709.097 L51.8138 713.425 L51.8138 734.846 L64.0042 739.175 L64.0042 745.954 L16.4842 727.812 Z" fill="#000000" fill-rule="evenodd" fill-opacity="1" /><path clip-path="url(#clip890)" d="M16.4842 697.766 L16.4842 690.859 L34.149 679.051 L16.4842 667.178 L16.4842 660.272 L39.3052 675.549 L64.0042 659.253 L64.0042 666.16 L43.793 679.528 L64.0042 692.991 L64.0042 699.93 L38.6368 682.965 L16.4842 697.766 Z" fill="#000000" fill-rule="evenodd" fill-opacity="1" /><path clip-path="url(#clip890)" d="M60.503 652.251 L60.503 645.758 L41.0558 645.758 L42.3608 652.856 L38.6686 652.856 L37.4273 645.535 L37.4273 641.175 L60.503 641.175 L60.503 634.65 L64.0042 634.65 L64.0042 652.251 L60.503 652.251 Z" fill="#000000" fill-rule="evenodd" fill-opacity="1" /><path clip-path="url(#clip890)" d="M14.1925 617.399 L79.3773 617.399 L79.3773 622.81 L14.1925 622.81 L14.1925 617.399 Z" fill="#000000" fill-rule="evenodd" fill-opacity="1" /><polyline clip-path="url(#clip892)" style="stroke:#009af9; stroke-linecap:round; stroke-linejoin:round; stroke-width:4; stroke-opacity:1; fill:none" points="
  311.302,1384.24 2293.3,1384.24 
  "/>
<polyline clip-path="url(#clip892)" style="stroke:#e26f46; stroke-linecap:round; stroke-linejoin:round; stroke-width:4; stroke-opacity:1; fill:none" points="
  377.369,86.1857 443.435,231.425 509.502,395.724 575.568,517.509 641.635,701.314 707.701,866.195 773.767,1052.82 839.834,1153.64 905.9,1170.37 971.967,1170.91 
  1038.03,1171.75 1104.1,1172.92 1170.17,1174.54 1236.23,1176.26 1302.3,1178.21 1368.37,1180.29 1434.43,1182.61 1500.5,1185.5 1566.56,1189.01 1632.63,1192.6 
  1698.7,1196.75 1764.76,1201.27 1830.83,1207.1 1896.9,1213.52 1962.96,1221.57 2029.03,1231.04 2095.1,1243.4 2161.16,1260.61 2227.23,1289 2293.3,1384.24 
  
  "/>
<circle clip-path="url(#clip892)" cx="496.288" cy="341.9" r="14.4" fill="#3da44d" fill-rule="evenodd" fill-opacity="1" stroke="#000000" stroke-opacity="1" stroke-width="3.2"/>
<path clip-path="url(#clip890)" d="
M1664.05 300.469 L2282.73 300.469 L2282.73 93.1086 L1664.05 93.1086  Z
  " fill="#ffffff" fill-rule="evenodd" fill-opacity="1"/>
<polyline clip-path="url(#clip890)" style="stroke:#000000; stroke-linecap:round; stroke-linejoin:round; stroke-width:4; stroke-opacity:1; fill:none" points="
  1664.05,300.469 2282.73,300.469 2282.73,93.1086 1664.05,93.1086 1664.05,300.469 
  "/>
<polyline clip-path="url(#clip890)" style="stroke:#009af9; stroke-linecap:round; stroke-linejoin:round; stroke-width:4; stroke-opacity:1; fill:none" points="
  1687.39,144.949 1827.45,144.949 
  "/>
<path clip-path="url(#clip890)" d="M1850.8 127.669 L1872.65 127.669 L1872.65 131.604 L1855.47 131.604 L1855.47 141.835 L1871.93 141.835 L1871.93 145.77 L1855.47 145.77 L1855.47 158.293 L1873.06 158.293 L1873.06 162.229 L1850.8 162.229 L1850.8 127.669 Z" fill="#000000" fill-rule="evenodd" fill-opacity="1" /><path clip-path="url(#clip890)" d="M1902.12 136.303 L1892.74 148.919 L1902.6 162.229 L1897.58 162.229 L1890.03 152.043 L1882.49 162.229 L1877.46 162.229 L1887.53 148.664 L1878.32 136.303 L1883.34 136.303 L1890.22 145.539 L1897.09 136.303 L1902.12 136.303 Z" fill="#000000" fill-rule="evenodd" fill-opacity="1" /><path clip-path="url(#clip890)" d="M1920.4 149.196 Q1915.24 149.196 1913.25 150.377 Q1911.26 151.557 1911.26 154.405 Q1911.26 156.673 1912.74 158.016 Q1914.24 159.335 1916.81 159.335 Q1920.36 159.335 1922.49 156.835 Q1924.64 154.312 1924.64 150.145 L1924.64 149.196 L1920.4 149.196 M1928.9 147.437 L1928.9 162.229 L1924.64 162.229 L1924.64 158.293 Q1923.18 160.655 1921 161.789 Q1918.83 162.9 1915.68 162.9 Q1911.7 162.9 1909.34 160.678 Q1907 158.432 1907 154.682 Q1907 150.307 1909.92 148.085 Q1912.86 145.863 1918.67 145.863 L1924.64 145.863 L1924.64 145.446 Q1924.64 142.507 1922.69 140.909 Q1920.77 139.289 1917.28 139.289 Q1915.06 139.289 1912.95 139.821 Q1910.84 140.354 1908.9 141.419 L1908.9 137.483 Q1911.24 136.581 1913.43 136.141 Q1915.63 135.678 1917.72 135.678 Q1923.34 135.678 1926.12 138.594 Q1928.9 141.511 1928.9 147.437 Z" fill="#000000" fill-rule="evenodd" fill-opacity="1" /><path clip-path="url(#clip890)" d="M1956.33 137.298 L1956.33 141.28 Q1954.52 140.284 1952.69 139.798 Q1950.89 139.289 1949.04 139.289 Q1944.89 139.289 1942.6 141.928 Q1940.31 144.544 1940.31 149.289 Q1940.31 154.034 1942.6 156.673 Q1944.89 159.289 1949.04 159.289 Q1950.89 159.289 1952.69 158.803 Q1954.52 158.293 1956.33 157.298 L1956.33 161.233 Q1954.55 162.067 1952.62 162.483 Q1950.73 162.9 1948.57 162.9 Q1942.72 162.9 1939.27 159.219 Q1935.82 155.539 1935.82 149.289 Q1935.82 142.946 1939.29 139.312 Q1942.79 135.678 1948.85 135.678 Q1950.82 135.678 1952.69 136.095 Q1954.57 136.488 1956.33 137.298 Z" fill="#000000" fill-rule="evenodd" fill-opacity="1" /><path clip-path="url(#clip890)" d="M1967.95 128.942 L1967.95 136.303 L1976.72 136.303 L1976.72 139.613 L1967.95 139.613 L1967.95 153.687 Q1967.95 156.858 1968.8 157.761 Q1969.68 158.664 1972.35 158.664 L1976.72 158.664 L1976.72 162.229 L1972.35 162.229 Q1967.42 162.229 1965.54 160.4 Q1963.67 158.548 1963.67 153.687 L1963.67 139.613 L1960.54 139.613 L1960.54 136.303 L1963.67 136.303 L1963.67 128.942 L1967.95 128.942 Z" fill="#000000" fill-rule="evenodd" fill-opacity="1" /><path clip-path="url(#clip890)" d="M2002.25 131.511 L2002.25 158.386 L2007.9 158.386 Q2015.05 158.386 2018.36 155.145 Q2021.7 151.905 2021.7 144.914 Q2021.7 137.969 2018.36 134.752 Q2015.05 131.511 2007.9 131.511 L2002.25 131.511 M1997.58 127.669 L2007.18 127.669 Q2017.23 127.669 2021.93 131.858 Q2026.63 136.025 2026.63 144.914 Q2026.63 153.849 2021.91 158.039 Q2017.18 162.229 2007.18 162.229 L1997.58 162.229 L1997.58 127.669 Z" fill="#000000" fill-rule="evenodd" fill-opacity="1" /><path clip-path="url(#clip890)" d="M2034.08 127.669 L2041.05 127.669 L2049.87 151.187 L2058.73 127.669 L2065.7 127.669 L2065.7 162.229 L2061.14 162.229 L2061.14 131.882 L2052.23 155.585 L2047.53 155.585 L2038.62 131.882 L2038.62 162.229 L2034.08 162.229 L2034.08 127.669 Z" fill="#000000" fill-rule="evenodd" fill-opacity="1" /><path clip-path="url(#clip890)" d="M2079.66 131.511 L2079.66 158.386 L2085.31 158.386 Q2092.46 158.386 2095.77 155.145 Q2099.11 151.905 2099.11 144.914 Q2099.11 137.969 2095.77 134.752 Q2092.46 131.511 2085.31 131.511 L2079.66 131.511 M2074.98 127.669 L2084.59 127.669 Q2094.64 127.669 2099.34 131.858 Q2104.04 136.025 2104.04 144.914 Q2104.04 153.849 2099.31 158.039 Q2094.59 162.229 2084.59 162.229 L2074.98 162.229 L2074.98 127.669 Z" fill="#000000" fill-rule="evenodd" fill-opacity="1" /><polyline clip-path="url(#clip890)" style="stroke:#e26f46; stroke-linecap:round; stroke-linejoin:round; stroke-width:4; stroke-opacity:1; fill:none" points="
  1687.39,196.789 1827.45,196.789 
  "/>
<path clip-path="url(#clip890)" d="M1867.18 197.865 Q1868.69 198.374 1870.1 200.041 Q1871.54 201.708 1872.97 204.624 L1877.72 214.069 L1872.69 214.069 L1868.27 205.203 Q1866.56 201.731 1864.94 200.596 Q1863.34 199.462 1860.56 199.462 L1855.47 199.462 L1855.47 214.069 L1850.8 214.069 L1850.8 179.509 L1861.35 179.509 Q1867.28 179.509 1870.19 181.985 Q1873.11 184.462 1873.11 189.462 Q1873.11 192.726 1871.58 194.879 Q1870.08 197.032 1867.18 197.865 M1855.47 183.351 L1855.47 195.62 L1861.35 195.62 Q1864.73 195.62 1866.44 194.069 Q1868.18 192.495 1868.18 189.462 Q1868.18 186.43 1866.44 184.902 Q1864.73 183.351 1861.35 183.351 L1855.47 183.351 Z" fill="#000000" fill-rule="evenodd" fill-opacity="1" /><path clip-path="url(#clip890)" d="M1903.6 200.041 L1903.6 202.124 L1884.01 202.124 Q1884.29 206.522 1886.65 208.837 Q1889.04 211.129 1893.27 211.129 Q1895.73 211.129 1898.02 210.527 Q1900.33 209.925 1902.6 208.721 L1902.6 212.749 Q1900.31 213.721 1897.9 214.231 Q1895.5 214.74 1893.02 214.74 Q1886.81 214.74 1883.18 211.129 Q1879.57 207.518 1879.57 201.36 Q1879.57 194.995 1883 191.268 Q1886.44 187.518 1892.28 187.518 Q1897.51 187.518 1900.54 190.897 Q1903.6 194.254 1903.6 200.041 M1899.34 198.791 Q1899.29 195.296 1897.37 193.212 Q1895.47 191.129 1892.32 191.129 Q1888.76 191.129 1886.61 193.143 Q1884.48 195.157 1884.15 198.814 L1899.34 198.791 Z" fill="#000000" fill-rule="evenodd" fill-opacity="1" /><path clip-path="url(#clip890)" d="M1927.65 192.078 L1927.65 178.05 L1931.91 178.05 L1931.91 214.069 L1927.65 214.069 L1927.65 210.18 Q1926.31 212.495 1924.24 213.629 Q1922.21 214.74 1919.34 214.74 Q1914.64 214.74 1911.68 210.99 Q1908.74 207.24 1908.74 201.129 Q1908.74 195.018 1911.68 191.268 Q1914.64 187.518 1919.34 187.518 Q1922.21 187.518 1924.24 188.652 Q1926.31 189.763 1927.65 192.078 M1913.13 201.129 Q1913.13 205.828 1915.06 208.513 Q1917 211.175 1920.38 211.175 Q1923.76 211.175 1925.7 208.513 Q1927.65 205.828 1927.65 201.129 Q1927.65 196.43 1925.7 193.768 Q1923.76 191.083 1920.38 191.083 Q1917 191.083 1915.06 193.768 Q1913.13 196.43 1913.13 201.129 Z" fill="#000000" fill-rule="evenodd" fill-opacity="1" /><path clip-path="url(#clip890)" d="M1940.24 203.837 L1940.24 188.143 L1944.5 188.143 L1944.5 203.675 Q1944.5 207.356 1945.93 209.208 Q1947.37 211.036 1950.24 211.036 Q1953.69 211.036 1955.68 208.837 Q1957.69 206.638 1957.69 202.842 L1957.69 188.143 L1961.95 188.143 L1961.95 214.069 L1957.69 214.069 L1957.69 210.087 Q1956.14 212.448 1954.08 213.606 Q1952.05 214.74 1949.34 214.74 Q1944.87 214.74 1942.55 211.962 Q1940.24 209.184 1940.24 203.837 M1950.96 187.518 L1950.96 187.518 Z" fill="#000000" fill-rule="evenodd" fill-opacity="1" /><path clip-path="url(#clip890)" d="M1989.38 189.138 L1989.38 193.12 Q1987.58 192.124 1985.75 191.638 Q1983.94 191.129 1982.09 191.129 Q1977.95 191.129 1975.66 193.768 Q1973.36 196.384 1973.36 201.129 Q1973.36 205.874 1975.66 208.513 Q1977.95 211.129 1982.09 211.129 Q1983.94 211.129 1985.75 210.643 Q1987.58 210.133 1989.38 209.138 L1989.38 213.073 Q1987.6 213.907 1985.68 214.323 Q1983.78 214.74 1981.63 214.74 Q1975.77 214.74 1972.32 211.059 Q1968.87 207.379 1968.87 201.129 Q1968.87 194.786 1972.35 191.152 Q1975.84 187.518 1981.91 187.518 Q1983.87 187.518 1985.75 187.935 Q1987.62 188.328 1989.38 189.138 Z" fill="#000000" fill-rule="evenodd" fill-opacity="1" /><path clip-path="url(#clip890)" d="M2018.97 200.041 L2018.97 202.124 L1999.38 202.124 Q1999.66 206.522 2002.02 208.837 Q2004.41 211.129 2008.64 211.129 Q2011.1 211.129 2013.39 210.527 Q2015.7 209.925 2017.97 208.721 L2017.97 212.749 Q2015.68 213.721 2013.27 214.231 Q2010.86 214.74 2008.39 214.74 Q2002.18 214.74 1998.55 211.129 Q1994.94 207.518 1994.94 201.36 Q1994.94 194.995 1998.36 191.268 Q2001.81 187.518 2007.65 187.518 Q2012.88 187.518 2015.91 190.897 Q2018.97 194.254 2018.97 200.041 M2014.71 198.791 Q2014.66 195.296 2012.74 193.212 Q2010.84 191.129 2007.69 191.129 Q2004.13 191.129 2001.98 193.143 Q1999.85 195.157 1999.52 198.814 L2014.71 198.791 Z" fill="#000000" fill-rule="evenodd" fill-opacity="1" /><path clip-path="url(#clip890)" d="M2043.02 192.078 L2043.02 178.05 L2047.28 178.05 L2047.28 214.069 L2043.02 214.069 L2043.02 210.18 Q2041.67 212.495 2039.61 213.629 Q2037.58 214.74 2034.71 214.74 Q2030.01 214.74 2027.05 210.99 Q2024.11 207.24 2024.11 201.129 Q2024.11 195.018 2027.05 191.268 Q2030.01 187.518 2034.71 187.518 Q2037.58 187.518 2039.61 188.652 Q2041.67 189.763 2043.02 192.078 M2028.5 201.129 Q2028.5 205.828 2030.42 208.513 Q2032.37 211.175 2035.75 211.175 Q2039.13 211.175 2041.07 208.513 Q2043.02 205.828 2043.02 201.129 Q2043.02 196.43 2041.07 193.768 Q2039.13 191.083 2035.75 191.083 Q2032.37 191.083 2030.42 193.768 Q2028.5 196.43 2028.5 201.129 Z" fill="#000000" fill-rule="evenodd" fill-opacity="1" /><path clip-path="url(#clip890)" d="M2075.98 183.351 L2075.98 210.226 L2081.63 210.226 Q2088.78 210.226 2092.09 206.985 Q2095.42 203.745 2095.42 196.754 Q2095.42 189.809 2092.09 186.592 Q2088.78 183.351 2081.63 183.351 L2075.98 183.351 M2071.3 179.509 L2080.91 179.509 Q2090.96 179.509 2095.66 183.698 Q2100.36 187.865 2100.36 196.754 Q2100.36 205.689 2095.63 209.879 Q2090.91 214.069 2080.91 214.069 L2071.3 214.069 L2071.3 179.509 Z" fill="#000000" fill-rule="evenodd" fill-opacity="1" /><path clip-path="url(#clip890)" d="M2107.81 179.509 L2114.78 179.509 L2123.6 203.027 L2132.46 179.509 L2139.43 179.509 L2139.43 214.069 L2134.87 214.069 L2134.87 183.722 L2125.96 207.425 L2121.26 207.425 L2112.35 183.722 L2112.35 214.069 L2107.81 214.069 L2107.81 179.509 Z" fill="#000000" fill-rule="evenodd" fill-opacity="1" /><path clip-path="url(#clip890)" d="M2153.39 183.351 L2153.39 210.226 L2159.04 210.226 Q2166.19 210.226 2169.5 206.985 Q2172.83 203.745 2172.83 196.754 Q2172.83 189.809 2169.5 186.592 Q2166.19 183.351 2159.04 183.351 L2153.39 183.351 M2148.71 179.509 L2158.32 179.509 Q2168.36 179.509 2173.06 183.698 Q2177.76 187.865 2177.76 196.754 Q2177.76 205.689 2173.04 209.879 Q2168.32 214.069 2158.32 214.069 L2148.71 214.069 L2148.71 179.509 Z" fill="#000000" fill-rule="evenodd" fill-opacity="1" /><circle clip-path="url(#clip890)" cx="1757.42" cy="248.629" r="23.04" fill="#3da44d" fill-rule="evenodd" fill-opacity="1" stroke="#000000" stroke-opacity="1" stroke-width="5.12"/>
<path clip-path="url(#clip890)" d="M1853.02 265.191 L1853.02 260.932 Q1854.78 261.765 1856.58 262.205 Q1858.39 262.645 1860.12 262.645 Q1864.75 262.645 1867.18 259.543 Q1869.64 256.418 1869.99 250.075 Q1868.64 252.066 1866.58 253.131 Q1864.52 254.196 1862.02 254.196 Q1856.84 254.196 1853.81 251.071 Q1850.8 247.923 1850.8 242.483 Q1850.8 237.159 1853.94 233.941 Q1857.09 230.724 1862.32 230.724 Q1868.32 230.724 1871.47 235.33 Q1874.64 239.913 1874.64 248.663 Q1874.64 256.835 1870.75 261.719 Q1866.88 266.58 1860.33 266.58 Q1858.57 266.58 1856.77 266.233 Q1854.96 265.885 1853.02 265.191 M1862.32 250.538 Q1865.47 250.538 1867.3 248.386 Q1869.15 246.233 1869.15 242.483 Q1869.15 238.756 1867.3 236.603 Q1865.47 234.427 1862.32 234.427 Q1859.18 234.427 1857.32 236.603 Q1855.5 238.756 1855.5 242.483 Q1855.5 246.233 1857.32 248.386 Q1859.18 250.538 1862.32 250.538 Z" fill="#000000" fill-rule="evenodd" fill-opacity="1" /><path clip-path="url(#clip890)" d="M1883.18 265.191 L1883.18 260.932 Q1884.94 261.765 1886.75 262.205 Q1888.55 262.645 1890.29 262.645 Q1894.92 262.645 1897.35 259.543 Q1899.8 256.418 1900.15 250.075 Q1898.81 252.066 1896.75 253.131 Q1894.68 254.196 1892.18 254.196 Q1887 254.196 1883.97 251.071 Q1880.96 247.923 1880.96 242.483 Q1880.96 237.159 1884.11 233.941 Q1887.25 230.724 1892.49 230.724 Q1898.48 230.724 1901.63 235.33 Q1904.8 239.913 1904.8 248.663 Q1904.8 256.835 1900.91 261.719 Q1897.05 266.58 1890.5 266.58 Q1888.74 266.58 1886.93 266.233 Q1885.12 265.885 1883.18 265.191 M1892.49 250.538 Q1895.63 250.538 1897.46 248.386 Q1899.31 246.233 1899.31 242.483 Q1899.31 238.756 1897.46 236.603 Q1895.63 234.427 1892.49 234.427 Q1889.34 234.427 1887.49 236.603 Q1885.66 238.756 1885.66 242.483 Q1885.66 246.233 1887.49 248.386 Q1889.34 250.538 1892.49 250.538 Z" fill="#000000" fill-rule="evenodd" fill-opacity="1" /><path clip-path="url(#clip890)" d="M1942.6 250.7 Q1940.59 250.7 1939.43 252.413 Q1938.3 254.126 1938.3 257.182 Q1938.3 260.191 1939.43 261.927 Q1940.59 263.64 1942.6 263.64 Q1944.57 263.64 1945.7 261.927 Q1946.86 260.191 1946.86 257.182 Q1946.86 254.149 1945.7 252.436 Q1944.57 250.7 1942.6 250.7 M1942.6 247.761 Q1946.26 247.761 1948.41 250.307 Q1950.56 252.853 1950.56 257.182 Q1950.56 261.51 1948.39 264.057 Q1946.24 266.58 1942.6 266.58 Q1938.9 266.58 1936.74 264.057 Q1934.59 261.51 1934.59 257.182 Q1934.59 252.83 1936.74 250.307 Q1938.92 247.761 1942.6 247.761 M1918.71 233.663 Q1916.72 233.663 1915.56 235.4 Q1914.43 237.112 1914.43 240.122 Q1914.43 243.177 1915.56 244.89 Q1916.7 246.603 1918.71 246.603 Q1920.73 246.603 1921.86 244.89 Q1923.02 243.177 1923.02 240.122 Q1923.02 237.136 1921.86 235.4 Q1920.7 233.663 1918.71 233.663 M1939.62 230.724 L1943.32 230.724 L1921.7 266.58 L1917.99 266.58 L1939.62 230.724 M1918.71 230.724 Q1922.37 230.724 1924.55 233.27 Q1926.72 235.793 1926.72 240.122 Q1926.72 244.497 1924.55 247.02 Q1922.39 249.543 1918.71 249.543 Q1915.03 249.543 1912.88 247.02 Q1910.75 244.474 1910.75 240.122 Q1910.75 235.816 1912.9 233.27 Q1915.06 230.724 1918.71 230.724 Z" fill="#000000" fill-rule="evenodd" fill-opacity="1" /><path clip-path="url(#clip890)" d="M1998.78 234.011 L1998.78 238.941 Q1996.42 236.742 1993.74 235.654 Q1991.07 234.566 1988.06 234.566 Q1982.14 234.566 1978.99 238.2 Q1975.84 241.812 1975.84 248.663 Q1975.84 255.492 1978.99 259.126 Q1982.14 262.737 1988.06 262.737 Q1991.07 262.737 1993.74 261.649 Q1996.42 260.561 1998.78 258.362 L1998.78 263.247 Q1996.33 264.913 1993.57 265.747 Q1990.84 266.58 1987.79 266.58 Q1979.94 266.58 1975.43 261.788 Q1970.91 256.973 1970.91 248.663 Q1970.91 240.33 1975.43 235.538 Q1979.94 230.724 1987.79 230.724 Q1990.89 230.724 1993.62 231.557 Q1996.37 232.367 1998.78 234.011 Z" fill="#000000" fill-rule="evenodd" fill-opacity="1" /><path clip-path="url(#clip890)" d="M2005.38 255.677 L2005.38 239.983 L2009.64 239.983 L2009.64 255.515 Q2009.64 259.196 2011.07 261.048 Q2012.51 262.876 2015.38 262.876 Q2018.83 262.876 2020.82 260.677 Q2022.83 258.478 2022.83 254.682 L2022.83 239.983 L2027.09 239.983 L2027.09 265.909 L2022.83 265.909 L2022.83 261.927 Q2021.28 264.288 2019.22 265.446 Q2017.18 266.58 2014.48 266.58 Q2010.01 266.58 2007.69 263.802 Q2005.38 261.024 2005.38 255.677 M2016.1 239.358 L2016.1 239.358 Z" fill="#000000" fill-rule="evenodd" fill-opacity="1" /><path clip-path="url(#clip890)" d="M2040.08 232.622 L2040.08 239.983 L2048.85 239.983 L2048.85 243.293 L2040.08 243.293 L2040.08 257.367 Q2040.08 260.538 2040.93 261.441 Q2041.81 262.344 2044.48 262.344 L2048.85 262.344 L2048.85 265.909 L2044.48 265.909 Q2039.55 265.909 2037.67 264.08 Q2035.8 262.228 2035.8 257.367 L2035.8 243.293 L2032.67 243.293 L2032.67 239.983 L2035.8 239.983 L2035.8 232.622 L2040.08 232.622 Z" fill="#000000" fill-rule="evenodd" fill-opacity="1" /><path clip-path="url(#clip890)" d="M2064.5 242.969 Q2061.07 242.969 2059.08 245.654 Q2057.09 248.316 2057.09 252.969 Q2057.09 257.622 2059.06 260.307 Q2061.05 262.969 2064.5 262.969 Q2067.9 262.969 2069.89 260.284 Q2071.88 257.598 2071.88 252.969 Q2071.88 248.362 2069.89 245.677 Q2067.9 242.969 2064.5 242.969 M2064.5 239.358 Q2070.05 239.358 2073.23 242.969 Q2076.4 246.58 2076.4 252.969 Q2076.4 259.335 2073.23 262.969 Q2070.05 266.58 2064.5 266.58 Q2058.92 266.58 2055.75 262.969 Q2052.6 259.335 2052.6 252.969 Q2052.6 246.58 2055.75 242.969 Q2058.92 239.358 2064.5 239.358 Z" fill="#000000" fill-rule="evenodd" fill-opacity="1" /><path clip-path="url(#clip890)" d="M2096.58 229.89 L2096.58 233.432 L2092.51 233.432 Q2090.22 233.432 2089.31 234.358 Q2088.43 235.284 2088.43 237.691 L2088.43 239.983 L2095.45 239.983 L2095.45 243.293 L2088.43 243.293 L2088.43 265.909 L2084.15 265.909 L2084.15 243.293 L2080.08 243.293 L2080.08 239.983 L2084.15 239.983 L2084.15 238.177 Q2084.15 233.849 2086.17 231.881 Q2088.18 229.89 2092.55 229.89 L2096.58 229.89 Z" fill="#000000" fill-rule="evenodd" fill-opacity="1" /><path clip-path="url(#clip890)" d="M2113.27 229.89 L2113.27 233.432 L2109.2 233.432 Q2106.91 233.432 2106 234.358 Q2105.12 235.284 2105.12 237.691 L2105.12 239.983 L2112.14 239.983 L2112.14 243.293 L2105.12 243.293 L2105.12 265.909 L2100.84 265.909 L2100.84 243.293 L2096.77 243.293 L2096.77 239.983 L2100.84 239.983 L2100.84 238.177 Q2100.84 233.849 2102.86 231.881 Q2104.87 229.89 2109.24 229.89 L2113.27 229.89 Z" fill="#000000" fill-rule="evenodd" fill-opacity="1" /><path clip-path="url(#clip890)" d="M2117.92 260.029 L2122.81 260.029 L2122.81 264.01 L2119.01 271.418 L2116.03 271.418 L2117.92 264.01 L2117.92 260.029 Z" fill="#000000" fill-rule="evenodd" fill-opacity="1" /><path clip-path="url(#clip890)" d="M2162 243.964 Q2161.28 243.548 2160.42 243.362 Q2159.59 243.154 2158.57 243.154 Q2154.96 243.154 2153.02 245.515 Q2151.1 247.853 2151.1 252.251 L2151.1 265.909 L2146.81 265.909 L2146.81 239.983 L2151.1 239.983 L2151.1 244.011 Q2152.44 241.649 2154.59 240.515 Q2156.74 239.358 2159.82 239.358 Q2160.26 239.358 2160.79 239.427 Q2161.33 239.474 2161.98 239.589 L2162 243.964 Z" fill="#000000" fill-rule="evenodd" fill-opacity="1" /><path clip-path="url(#clip890)" d="M2167.02 244.381 L2196.7 244.381 L2196.7 248.27 L2167.02 248.27 L2167.02 244.381 M2167.02 253.825 L2196.7 253.825 L2196.7 257.761 L2167.02 257.761 L2167.02 253.825 Z" fill="#000000" fill-rule="evenodd" fill-opacity="1" /><path clip-path="url(#clip890)" d="M2207.6 261.973 L2215.24 261.973 L2215.24 235.608 L2206.93 237.275 L2206.93 233.015 L2215.19 231.349 L2219.87 231.349 L2219.87 261.973 L2227.51 261.973 L2227.51 265.909 L2207.6 265.909 L2207.6 261.973 Z" fill="#000000" fill-rule="evenodd" fill-opacity="1" /><path clip-path="url(#clip890)" d="M2249.8 235.423 L2237.99 253.872 L2249.8 253.872 L2249.8 235.423 M2248.57 231.349 L2254.45 231.349 L2254.45 253.872 L2259.38 253.872 L2259.38 257.761 L2254.45 257.761 L2254.45 265.909 L2249.8 265.909 L2249.8 257.761 L2234.2 257.761 L2234.2 253.247 L2248.57 231.349 Z" fill="#000000" fill-rule="evenodd" fill-opacity="1" /></svg>
