<?xml version="1.0" encoding="utf-8"?>
<svg xmlns="http://www.w3.org/2000/svg" xmlns:xlink="http://www.w3.org/1999/xlink" width="600" height="400" viewBox="0 0 2400 1600">
<defs>
  <clipPath id="clip210">
    <rect x="0" y="0" width="2400" height="1600"/>
  </clipPath>
</defs>
<path clip-path="url(#clip210)" d="
M0 1600 L2400 1600 L2400 0 L0 0  Z
  " fill="#ffffff" fill-rule="evenodd" fill-opacity="1"/>
<defs>
  <clipPath id="clip211">
    <rect x="480" y="0" width="1681" height="1600"/>
  </clipPath>
</defs>
<path clip-path="url(#clip210)" d="
M232.389 1423.18 L2352.76 1423.18 L2352.76 123.472 L232.389 123.472  Z
  " fill="#ffffff" fill-rule="evenodd" fill-opacity="1"/>
<defs>
  <clipPath id="clip212">
    <rect x="232" y="123" width="2121" height="1301"/>
  </clipPath>
</defs>
<polyline clip-path="url(#clip212)" style="stroke:#000000; stroke-linecap:butt; stroke-linejoin:round; stroke-width:2; stroke-opacity:0.1; fill:none" points="
  486.659,1423.18 486.659,123.472 
  "/>
<polyline clip-path="url(#clip212)" style="stroke:#000000; stroke-linecap:butt; stroke-linejoin:round; stroke-width:2; stroke-opacity:0.1; fill:none" points="
  924.18,1423.18 924.18,123.472 
  "/>
<polyline clip-path="url(#clip212)" style="stroke:#000000; stroke-linecap:butt; stroke-linejoin:round; stroke-width:2; stroke-opacity:0.1; fill:none" points="
  1361.7,1423.18 1361.7,123.472 
  "/>
<polyline clip-path="url(#clip212)" style="stroke:#000000; stroke-linecap:butt; stroke-linejoin:round; stroke-width:2; stroke-opacity:0.1; fill:none" points="
  1799.22,1423.18 1799.22,123.472 
  "/>
<polyline clip-path="url(#clip212)" style="stroke:#000000; stroke-linecap:butt; stroke-linejoin:round; stroke-width:2; stroke-opacity:0.1; fill:none" points="
  2236.74,1423.18 2236.74,123.472 
  "/>
<polyline clip-path="url(#clip210)" style="stroke:#000000; stroke-linecap:butt; stroke-linejoin:round; stroke-width:4; stroke-opacity:1; fill:none" points="
  232.389,1423.18 2352.76,1423.18 
  "/>
<polyline clip-path="url(#clip210)" style="stroke:#000000; stroke-linecap:butt; stroke-linejoin:round; stroke-width:4; stroke-opacity:1; fill:none" points="
  486.659,1423.18 486.659,1404.28 
  "/>
<polyline clip-path="url(#clip210)" style="stroke:#000000; stroke-linecap:butt; stroke-linejoin:round; stroke-width:4; stroke-opacity:1; fill:none" points="
  924.18,1423.18 924.18,1404.28 
  "/>
<polyline clip-path="url(#clip210)" style="stroke:#000000; stroke-linecap:butt; stroke-linejoin:round; stroke-width:4; stroke-opacity:1; fill:none" points="
  1361.7,1423.18 1361.7,1404.28 
  "/>
<polyline clip-path="url(#clip210)" style="stroke:#000000; stroke-linecap:butt; stroke-linejoin:round; stroke-width:4; stroke-opacity:1; fill:none" points="
  1799.22,1423.18 1799.22,1404.28 
  "/>
<polyline clip-path="url(#clip210)" style="stroke:#000000; stroke-linecap:butt; stroke-linejoin:round; stroke-width:4; stroke-opacity:1; fill:none" points="
  2236.74,1423.18 2236.74,1404.28 
  "/>
<path clip-path="url(#clip210)" d="M446.266 1481.64 L453.905 1481.64 L453.905 1455.28 L445.594 1456.95 L445.594 1452.69 L453.858 1451.02 L458.534 1451.02 L458.534 1481.64 L466.173 1481.64 L466.173 1485.58 L446.266 1485.58 L446.266 1481.64 Z" fill="#000000" fill-rule="evenodd" fill-opacity="1" /><path clip-path="url(#clip210)" d="M485.617 1454.1 Q482.006 1454.1 480.178 1457.66 Q478.372 1461.2 478.372 1468.33 Q478.372 1475.44 480.178 1479.01 Q482.006 1482.55 485.617 1482.55 Q489.252 1482.55 491.057 1479.01 Q492.886 1475.44 492.886 1468.33 Q492.886 1461.2 491.057 1457.66 Q489.252 1454.1 485.617 1454.1 M485.617 1450.39 Q491.428 1450.39 494.483 1455 Q497.562 1459.58 497.562 1468.33 Q497.562 1477.06 494.483 1481.67 Q491.428 1486.25 485.617 1486.25 Q479.807 1486.25 476.729 1481.67 Q473.673 1477.06 473.673 1468.33 Q473.673 1459.58 476.729 1455 Q479.807 1450.39 485.617 1450.39 Z" fill="#000000" fill-rule="evenodd" fill-opacity="1" /><path clip-path="url(#clip210)" d="M515.779 1454.1 Q512.168 1454.1 510.339 1457.66 Q508.534 1461.2 508.534 1468.33 Q508.534 1475.44 510.339 1479.01 Q512.168 1482.55 515.779 1482.55 Q519.413 1482.55 521.219 1479.01 Q523.048 1475.44 523.048 1468.33 Q523.048 1461.2 521.219 1457.66 Q519.413 1454.1 515.779 1454.1 M515.779 1450.39 Q521.589 1450.39 524.645 1455 Q527.724 1459.58 527.724 1468.33 Q527.724 1477.06 524.645 1481.67 Q521.589 1486.25 515.779 1486.25 Q509.969 1486.25 506.89 1481.67 Q503.835 1477.06 503.835 1468.33 Q503.835 1459.58 506.89 1455 Q509.969 1450.39 515.779 1450.39 Z" fill="#000000" fill-rule="evenodd" fill-opacity="1" /><path clip-path="url(#clip210)" d="M884.284 1481.64 L891.923 1481.64 L891.923 1455.28 L883.613 1456.95 L883.613 1452.69 L891.877 1451.02 L896.553 1451.02 L896.553 1481.64 L904.192 1481.64 L904.192 1485.58 L884.284 1485.58 L884.284 1481.64 Z" fill="#000000" fill-rule="evenodd" fill-opacity="1" /><path clip-path="url(#clip210)" d="M917.664 1481.64 L933.983 1481.64 L933.983 1485.58 L912.039 1485.58 L912.039 1481.64 Q914.701 1478.89 919.284 1474.26 Q923.891 1469.61 925.071 1468.27 Q927.317 1465.74 928.196 1464.01 Q929.099 1462.25 929.099 1460.56 Q929.099 1457.8 927.155 1456.07 Q925.233 1454.33 922.131 1454.33 Q919.932 1454.33 917.479 1455.09 Q915.048 1455.86 912.27 1457.41 L912.27 1452.69 Q915.094 1451.55 917.548 1450.97 Q920.002 1450.39 922.039 1450.39 Q927.409 1450.39 930.604 1453.08 Q933.798 1455.77 933.798 1460.26 Q933.798 1462.39 932.988 1464.31 Q932.201 1466.2 930.094 1468.8 Q929.516 1469.47 926.414 1472.69 Q923.312 1475.88 917.664 1481.64 Z" fill="#000000" fill-rule="evenodd" fill-opacity="1" /><path clip-path="url(#clip210)" d="M943.844 1451.02 L962.201 1451.02 L962.201 1454.96 L948.127 1454.96 L948.127 1463.43 Q949.145 1463.08 950.164 1462.92 Q951.182 1462.73 952.201 1462.73 Q957.988 1462.73 961.367 1465.9 Q964.747 1469.08 964.747 1474.49 Q964.747 1480.07 961.275 1483.17 Q957.802 1486.25 951.483 1486.25 Q949.307 1486.25 947.039 1485.88 Q944.793 1485.51 942.386 1484.77 L942.386 1480.07 Q944.469 1481.2 946.691 1481.76 Q948.914 1482.32 951.39 1482.32 Q955.395 1482.32 957.733 1480.21 Q960.071 1478.1 960.071 1474.49 Q960.071 1470.88 957.733 1468.77 Q955.395 1466.67 951.39 1466.67 Q949.515 1466.67 947.641 1467.08 Q945.789 1467.5 943.844 1468.38 L943.844 1451.02 Z" fill="#000000" fill-rule="evenodd" fill-opacity="1" /><path clip-path="url(#clip210)" d="M1321.31 1481.64 L1328.95 1481.64 L1328.95 1455.28 L1320.64 1456.95 L1320.64 1452.69 L1328.9 1451.02 L1333.58 1451.02 L1333.58 1481.64 L1341.21 1481.64 L1341.21 1485.58 L1321.31 1485.58 L1321.31 1481.64 Z" fill="#000000" fill-rule="evenodd" fill-opacity="1" /><path clip-path="url(#clip210)" d="M1350.71 1451.02 L1369.06 1451.02 L1369.06 1454.96 L1354.99 1454.96 L1354.99 1463.43 Q1356.01 1463.08 1357.03 1462.92 Q1358.04 1462.73 1359.06 1462.73 Q1364.85 1462.73 1368.23 1465.9 Q1371.61 1469.08 1371.61 1474.49 Q1371.61 1480.07 1368.14 1483.17 Q1364.66 1486.25 1358.34 1486.25 Q1356.17 1486.25 1353.9 1485.88 Q1351.65 1485.51 1349.25 1484.77 L1349.25 1480.07 Q1351.33 1481.2 1353.55 1481.76 Q1355.78 1482.32 1358.25 1482.32 Q1362.26 1482.32 1364.59 1480.21 Q1366.93 1478.1 1366.93 1474.49 Q1366.93 1470.88 1364.59 1468.77 Q1362.26 1466.67 1358.25 1466.67 Q1356.38 1466.67 1354.5 1467.08 Q1352.65 1467.5 1350.71 1468.38 L1350.71 1451.02 Z" fill="#000000" fill-rule="evenodd" fill-opacity="1" /><path clip-path="url(#clip210)" d="M1390.82 1454.1 Q1387.21 1454.1 1385.38 1457.66 Q1383.58 1461.2 1383.58 1468.33 Q1383.58 1475.44 1385.38 1479.01 Q1387.21 1482.55 1390.82 1482.55 Q1394.46 1482.55 1396.26 1479.01 Q1398.09 1475.44 1398.09 1468.33 Q1398.09 1461.2 1396.26 1457.66 Q1394.46 1454.1 1390.82 1454.1 M1390.82 1450.39 Q1396.63 1450.39 1399.69 1455 Q1402.77 1459.58 1402.77 1468.33 Q1402.77 1477.06 1399.69 1481.67 Q1396.63 1486.25 1390.82 1486.25 Q1385.01 1486.25 1381.93 1481.67 Q1378.88 1477.06 1378.88 1468.33 Q1378.88 1459.58 1381.93 1455 Q1385.01 1450.39 1390.82 1450.39 Z" fill="#000000" fill-rule="evenodd" fill-opacity="1" /><path clip-path="url(#clip210)" d="M1759.33 1481.64 L1766.97 1481.64 L1766.97 1455.28 L1758.65 1456.95 L1758.65 1452.69 L1766.92 1451.02 L1771.59 1451.02 L1771.59 1481.64 L1779.23 1481.64 L1779.23 1485.58 L1759.33 1485.58 L1759.33 1481.64 Z" fill="#000000" fill-rule="evenodd" fill-opacity="1" /><path clip-path="url(#clip210)" d="M1787.5 1451.02 L1809.72 1451.02 L1809.72 1453.01 L1797.17 1485.58 L1792.29 1485.58 L1804.09 1454.96 L1787.5 1454.96 L1787.5 1451.02 Z" fill="#000000" fill-rule="evenodd" fill-opacity="1" /><path clip-path="url(#clip210)" d="M1818.89 1451.02 L1837.24 1451.02 L1837.24 1454.96 L1823.17 1454.96 L1823.17 1463.43 Q1824.19 1463.08 1825.21 1462.92 Q1826.22 1462.73 1827.24 1462.73 Q1833.03 1462.73 1836.41 1465.9 Q1839.79 1469.08 1839.79 1474.49 Q1839.79 1480.07 1836.32 1483.17 Q1832.84 1486.25 1826.52 1486.25 Q1824.35 1486.25 1822.08 1485.88 Q1819.84 1485.51 1817.43 1484.77 L1817.43 1480.07 Q1819.51 1481.2 1821.73 1481.76 Q1823.96 1482.32 1826.43 1482.32 Q1830.44 1482.32 1832.77 1480.21 Q1835.11 1478.1 1835.11 1474.49 Q1835.11 1470.88 1832.77 1468.77 Q1830.44 1466.67 1826.43 1466.67 Q1824.56 1466.67 1822.68 1467.08 Q1820.83 1467.5 1818.89 1468.38 L1818.89 1451.02 Z" fill="#000000" fill-rule="evenodd" fill-opacity="1" /><path clip-path="url(#clip210)" d="M2200.44 1481.64 L2216.75 1481.64 L2216.75 1485.58 L2194.81 1485.58 L2194.81 1481.64 Q2197.47 1478.89 2202.06 1474.26 Q2206.66 1469.61 2207.84 1468.27 Q2210.09 1465.74 2210.97 1464.01 Q2211.87 1462.25 2211.87 1460.56 Q2211.87 1457.8 2209.93 1456.07 Q2208 1454.33 2204.9 1454.33 Q2202.7 1454.33 2200.25 1455.09 Q2197.82 1455.86 2195.04 1457.41 L2195.04 1452.69 Q2197.87 1451.55 2200.32 1450.97 Q2202.77 1450.39 2204.81 1450.39 Q2210.18 1450.39 2213.37 1453.08 Q2216.57 1455.77 2216.57 1460.26 Q2216.57 1462.39 2215.76 1464.31 Q2214.97 1466.2 2212.87 1468.8 Q2212.29 1469.47 2209.19 1472.69 Q2206.08 1475.88 2200.44 1481.64 Z" fill="#000000" fill-rule="evenodd" fill-opacity="1" /><path clip-path="url(#clip210)" d="M2236.57 1454.1 Q2232.96 1454.1 2231.13 1457.66 Q2229.32 1461.2 2229.32 1468.33 Q2229.32 1475.44 2231.13 1479.01 Q2232.96 1482.55 2236.57 1482.55 Q2240.2 1482.55 2242.01 1479.01 Q2243.84 1475.44 2243.84 1468.33 Q2243.84 1461.2 2242.01 1457.66 Q2240.2 1454.1 2236.57 1454.1 M2236.57 1450.39 Q2242.38 1450.39 2245.43 1455 Q2248.51 1459.58 2248.51 1468.33 Q2248.51 1477.06 2245.43 1481.67 Q2242.38 1486.25 2236.57 1486.25 Q2230.76 1486.25 2227.68 1481.67 Q2224.62 1477.06 2224.62 1468.33 Q2224.62 1459.58 2227.68 1455 Q2230.76 1450.39 2236.57 1450.39 Z" fill="#000000" fill-rule="evenodd" fill-opacity="1" /><path clip-path="url(#clip210)" d="M2266.73 1454.1 Q2263.12 1454.1 2261.29 1457.66 Q2259.49 1461.2 2259.49 1468.33 Q2259.49 1475.44 2261.29 1479.01 Q2263.12 1482.55 2266.73 1482.55 Q2270.37 1482.55 2272.17 1479.01 Q2274 1475.44 2274 1468.33 Q2274 1461.2 2272.17 1457.66 Q2270.37 1454.1 2266.73 1454.1 M2266.73 1450.39 Q2272.54 1450.39 2275.6 1455 Q2278.68 1459.58 2278.68 1468.33 Q2278.68 1477.06 2275.6 1481.67 Q2272.54 1486.25 2266.73 1486.25 Q2260.92 1486.25 2257.84 1481.67 Q2254.79 1477.06 2254.79 1468.33 Q2254.79 1459.58 2257.84 1455 Q2260.92 1450.39 2266.73 1450.39 Z" fill="#000000" fill-rule="evenodd" fill-opacity="1" /><path clip-path="url(#clip210)" d="M978.711 1568.04 L960.569 1520.52 L967.285 1520.52 L982.34 1560.53 L997.427 1520.52 L1004.11 1520.52 L986 1568.04 L978.711 1568.04 Z" fill="#000000" fill-rule="evenodd" fill-opacity="1" /><path clip-path="url(#clip210)" d="M1036.23 1548.76 L1036.23 1551.62 L1009.3 1551.62 Q1009.68 1557.67 1012.93 1560.85 Q1016.21 1564 1022.03 1564 Q1025.4 1564 1028.55 1563.17 Q1031.74 1562.35 1034.86 1560.69 L1034.86 1566.23 Q1031.71 1567.57 1028.4 1568.27 Q1025.09 1568.97 1021.68 1568.97 Q1013.15 1568.97 1008.15 1564 Q1003.19 1559.04 1003.19 1550.57 Q1003.19 1541.82 1007.9 1536.69 Q1012.64 1531.54 1020.66 1531.54 Q1027.85 1531.54 1032.02 1536.18 Q1036.23 1540.8 1036.23 1548.76 M1030.37 1547.04 Q1030.31 1542.23 1027.66 1539.37 Q1025.05 1536.5 1020.73 1536.5 Q1015.82 1536.5 1012.86 1539.27 Q1009.94 1542.04 1009.49 1547.07 L1030.37 1547.04 Z" fill="#000000" fill-rule="evenodd" fill-opacity="1" /><path clip-path="url(#clip210)" d="M1075.47 1546.53 L1075.47 1568.04 L1069.61 1568.04 L1069.61 1546.72 Q1069.61 1541.66 1067.64 1539.14 Q1065.67 1536.63 1061.72 1536.63 Q1056.98 1536.63 1054.24 1539.65 Q1051.5 1542.68 1051.5 1547.9 L1051.5 1568.04 L1045.62 1568.04 L1045.62 1532.4 L1051.5 1532.4 L1051.5 1537.93 Q1053.6 1534.72 1056.44 1533.13 Q1059.3 1531.54 1063.03 1531.54 Q1069.17 1531.54 1072.32 1535.36 Q1075.47 1539.14 1075.47 1546.53 Z" fill="#000000" fill-rule="evenodd" fill-opacity="1" /><path clip-path="url(#clip210)" d="M1092.94 1522.27 L1092.94 1532.4 L1105.01 1532.4 L1105.01 1536.95 L1092.94 1536.95 L1092.94 1556.3 Q1092.94 1560.66 1094.12 1561.9 Q1095.33 1563.14 1098.99 1563.14 L1105.01 1563.14 L1105.01 1568.04 L1098.99 1568.04 Q1092.21 1568.04 1089.63 1565.53 Q1087.06 1562.98 1087.06 1556.3 L1087.06 1536.95 L1082.76 1536.95 L1082.76 1532.4 L1087.06 1532.4 L1087.06 1522.27 L1092.94 1522.27 Z" fill="#000000" fill-rule="evenodd" fill-opacity="1" /><path clip-path="url(#clip210)" d="M1140.11 1525.81 L1140.11 1562.76 L1147.88 1562.76 Q1157.72 1562.76 1162.27 1558.3 Q1166.85 1553.85 1166.85 1544.24 Q1166.85 1534.69 1162.27 1530.26 Q1157.72 1525.81 1147.88 1525.81 L1140.11 1525.81 M1133.68 1520.52 L1146.89 1520.52 Q1160.71 1520.52 1167.17 1526.28 Q1173.63 1532.01 1173.63 1544.24 Q1173.63 1556.52 1167.14 1562.28 Q1160.64 1568.04 1146.89 1568.04 L1133.68 1568.04 L1133.68 1520.52 Z" fill="#000000" fill-rule="evenodd" fill-opacity="1" /><path clip-path="url(#clip210)" d="M1183.62 1532.4 L1189.48 1532.4 L1189.48 1568.04 L1183.62 1568.04 L1183.62 1532.4 M1183.62 1518.52 L1189.48 1518.52 L1189.48 1525.93 L1183.62 1525.93 L1183.62 1518.52 Z" fill="#000000" fill-rule="evenodd" fill-opacity="1" /><path clip-path="url(#clip210)" d="M1217.93 1550.12 Q1210.84 1550.12 1208.1 1551.75 Q1205.36 1553.37 1205.36 1557.29 Q1205.36 1560.4 1207.4 1562.25 Q1209.47 1564.07 1213 1564.07 Q1217.87 1564.07 1220.8 1560.63 Q1223.76 1557.16 1223.76 1551.43 L1223.76 1550.12 L1217.93 1550.12 M1229.62 1547.71 L1229.62 1568.04 L1223.76 1568.04 L1223.76 1562.63 Q1221.75 1565.88 1218.76 1567.44 Q1215.77 1568.97 1211.44 1568.97 Q1205.97 1568.97 1202.72 1565.91 Q1199.51 1562.82 1199.51 1557.67 Q1199.51 1551.65 1203.52 1548.6 Q1207.56 1545.54 1215.55 1545.54 L1223.76 1545.54 L1223.76 1544.97 Q1223.76 1540.93 1221.09 1538.73 Q1218.44 1536.5 1213.64 1536.5 Q1210.58 1536.5 1207.69 1537.23 Q1204.79 1537.97 1202.12 1539.43 L1202.12 1534.02 Q1205.33 1532.78 1208.35 1532.17 Q1211.38 1531.54 1214.24 1531.54 Q1221.98 1531.54 1225.8 1535.55 Q1229.62 1539.56 1229.62 1547.71 Z" fill="#000000" fill-rule="evenodd" fill-opacity="1" /><path clip-path="url(#clip210)" d="M1269.43 1539.24 Q1271.63 1535.29 1274.68 1533.41 Q1277.74 1531.54 1281.88 1531.54 Q1287.45 1531.54 1290.47 1535.45 Q1293.5 1539.33 1293.5 1546.53 L1293.5 1568.04 L1287.61 1568.04 L1287.61 1546.72 Q1287.61 1541.59 1285.79 1539.11 Q1283.98 1536.63 1280.25 1536.63 Q1275.7 1536.63 1273.06 1539.65 Q1270.42 1542.68 1270.42 1547.9 L1270.42 1568.04 L1264.53 1568.04 L1264.53 1546.72 Q1264.53 1541.56 1262.72 1539.11 Q1260.9 1536.63 1257.12 1536.63 Q1252.63 1536.63 1249.99 1539.68 Q1247.34 1542.71 1247.34 1547.9 L1247.34 1568.04 L1241.46 1568.04 L1241.46 1532.4 L1247.34 1532.4 L1247.34 1537.93 Q1249.35 1534.66 1252.15 1533.1 Q1254.95 1531.54 1258.8 1531.54 Q1262.69 1531.54 1265.39 1533.51 Q1268.13 1535.48 1269.43 1539.24 Z" fill="#000000" fill-rule="evenodd" fill-opacity="1" /><path clip-path="url(#clip210)" d="M1335.67 1548.76 L1335.67 1551.62 L1308.74 1551.62 Q1309.12 1557.67 1312.37 1560.85 Q1315.65 1564 1321.47 1564 Q1324.85 1564 1328 1563.17 Q1331.18 1562.35 1334.3 1560.69 L1334.3 1566.23 Q1331.15 1567.57 1327.84 1568.27 Q1324.53 1568.97 1321.12 1568.97 Q1312.59 1568.97 1307.6 1564 Q1302.63 1559.04 1302.63 1550.57 Q1302.63 1541.82 1307.34 1536.69 Q1312.08 1531.54 1320.1 1531.54 Q1327.3 1531.54 1331.47 1536.18 Q1335.67 1540.8 1335.67 1548.76 M1329.81 1547.04 Q1329.75 1542.23 1327.11 1539.37 Q1324.5 1536.5 1320.17 1536.5 Q1315.27 1536.5 1312.31 1539.27 Q1309.38 1542.04 1308.93 1547.07 L1329.81 1547.04 Z" fill="#000000" fill-rule="evenodd" fill-opacity="1" /><path clip-path="url(#clip210)" d="M1351.07 1522.27 L1351.07 1532.4 L1363.14 1532.4 L1363.14 1536.95 L1351.07 1536.95 L1351.07 1556.3 Q1351.07 1560.66 1352.25 1561.9 Q1353.46 1563.14 1357.12 1563.14 L1363.14 1563.14 L1363.14 1568.04 L1357.12 1568.04 Q1350.34 1568.04 1347.76 1565.53 Q1345.19 1562.98 1345.19 1556.3 L1345.19 1536.95 L1340.89 1536.95 L1340.89 1532.4 L1345.19 1532.4 L1345.19 1522.27 L1351.07 1522.27 Z" fill="#000000" fill-rule="evenodd" fill-opacity="1" /><path clip-path="url(#clip210)" d="M1401.33 1548.76 L1401.33 1551.62 L1374.4 1551.62 Q1374.79 1557.67 1378.03 1560.85 Q1381.31 1564 1387.14 1564 Q1390.51 1564 1393.66 1563.17 Q1396.84 1562.35 1399.96 1560.69 L1399.96 1566.23 Q1396.81 1567.57 1393.5 1568.27 Q1390.19 1568.97 1386.79 1568.97 Q1378.26 1568.97 1373.26 1564 Q1368.29 1559.04 1368.29 1550.57 Q1368.29 1541.82 1373 1536.69 Q1377.75 1531.54 1385.77 1531.54 Q1392.96 1531.54 1397.13 1536.18 Q1401.33 1540.8 1401.33 1548.76 M1395.47 1547.04 Q1395.41 1542.23 1392.77 1539.37 Q1390.16 1536.5 1385.83 1536.5 Q1380.93 1536.5 1377.97 1539.27 Q1375.04 1542.04 1374.59 1547.07 L1395.47 1547.04 Z" fill="#000000" fill-rule="evenodd" fill-opacity="1" /><path clip-path="url(#clip210)" d="M1431.6 1537.87 Q1430.61 1537.3 1429.44 1537.04 Q1428.29 1536.76 1426.89 1536.76 Q1421.92 1536.76 1419.25 1540 Q1416.61 1543.22 1416.61 1549.27 L1416.61 1568.04 L1410.72 1568.04 L1410.72 1532.4 L1416.61 1532.4 L1416.61 1537.93 Q1418.45 1534.69 1421.41 1533.13 Q1424.37 1531.54 1428.61 1531.54 Q1429.21 1531.54 1429.94 1531.63 Q1430.68 1531.7 1431.57 1531.85 L1431.6 1537.87 Z" fill="#000000" fill-rule="evenodd" fill-opacity="1" /><path clip-path="url(#clip210)" d="M1472.53 1518.58 Q1468.27 1525.9 1466.2 1533.06 Q1464.13 1540.23 1464.13 1547.58 Q1464.13 1554.93 1466.2 1562.16 Q1468.3 1569.35 1472.53 1576.64 L1467.44 1576.64 Q1462.66 1569.16 1460.28 1561.93 Q1457.92 1554.71 1457.92 1547.58 Q1457.92 1540.48 1460.28 1533.29 Q1462.63 1526.09 1467.44 1518.58 L1472.53 1518.58 Z" fill="#000000" fill-rule="evenodd" fill-opacity="1" /><path clip-path="url(#clip210)" d="M1511.65 1539.24 Q1513.84 1535.29 1516.9 1533.41 Q1519.96 1531.54 1524.09 1531.54 Q1529.66 1531.54 1532.69 1535.45 Q1535.71 1539.33 1535.71 1546.53 L1535.71 1568.04 L1529.82 1568.04 L1529.82 1546.72 Q1529.82 1541.59 1528.01 1539.11 Q1526.19 1536.63 1522.47 1536.63 Q1517.92 1536.63 1515.28 1539.65 Q1512.64 1542.68 1512.64 1547.9 L1512.64 1568.04 L1506.75 1568.04 L1506.75 1546.72 Q1506.75 1541.56 1504.93 1539.11 Q1503.12 1536.63 1499.33 1536.63 Q1494.84 1536.63 1492.2 1539.68 Q1489.56 1542.71 1489.56 1547.9 L1489.56 1568.04 L1483.67 1568.04 L1483.67 1532.4 L1489.56 1532.4 L1489.56 1537.93 Q1491.56 1534.66 1494.37 1533.1 Q1497.17 1531.54 1501.02 1531.54 Q1504.9 1531.54 1507.61 1533.51 Q1510.34 1535.48 1511.65 1539.24 Z" fill="#000000" fill-rule="evenodd" fill-opacity="1" /><path clip-path="url(#clip210)" d="M1575.15 1539.24 Q1577.34 1535.29 1580.4 1533.41 Q1583.45 1531.54 1587.59 1531.54 Q1593.16 1531.54 1596.19 1535.45 Q1599.21 1539.33 1599.21 1546.53 L1599.21 1568.04 L1593.32 1568.04 L1593.32 1546.72 Q1593.32 1541.59 1591.51 1539.11 Q1589.69 1536.63 1585.97 1536.63 Q1581.42 1536.63 1578.77 1539.65 Q1576.13 1542.68 1576.13 1547.9 L1576.13 1568.04 L1570.24 1568.04 L1570.24 1546.72 Q1570.24 1541.56 1568.43 1539.11 Q1566.62 1536.63 1562.83 1536.63 Q1558.34 1536.63 1555.7 1539.68 Q1553.06 1542.71 1553.06 1547.9 L1553.06 1568.04 L1547.17 1568.04 L1547.17 1532.4 L1553.06 1532.4 L1553.06 1537.93 Q1555.06 1534.66 1557.86 1533.1 Q1560.66 1531.54 1564.52 1531.54 Q1568.4 1531.54 1571.1 1533.51 Q1573.84 1535.48 1575.15 1539.24 Z" fill="#000000" fill-rule="evenodd" fill-opacity="1" /><path clip-path="url(#clip210)" d="M1609.97 1518.58 L1615.06 1518.58 Q1619.83 1526.09 1622.19 1533.29 Q1624.58 1540.48 1624.58 1547.58 Q1624.58 1554.71 1622.19 1561.93 Q1619.83 1569.16 1615.06 1576.64 L1609.97 1576.64 Q1614.2 1569.35 1616.27 1562.16 Q1618.37 1554.93 1618.37 1547.58 Q1618.37 1540.23 1616.27 1533.06 Q1614.2 1525.9 1609.97 1518.58 Z" fill="#000000" fill-rule="evenodd" fill-opacity="1" /><polyline clip-path="url(#clip212)" style="stroke:#000000; stroke-linecap:butt; stroke-linejoin:round; stroke-width:2; stroke-opacity:0.1; fill:none" points="
  232.389,1410.99 2352.76,1410.99 
  "/>
<polyline clip-path="url(#clip212)" style="stroke:#000000; stroke-linecap:butt; stroke-linejoin:round; stroke-width:2; stroke-opacity:0.1; fill:none" points="
  232.389,985.019 2352.76,985.019 
  "/>
<polyline clip-path="url(#clip212)" style="stroke:#000000; stroke-linecap:butt; stroke-linejoin:round; stroke-width:2; stroke-opacity:0.1; fill:none" points="
  232.389,559.048 2352.76,559.048 
  "/>
<polyline clip-path="url(#clip212)" style="stroke:#000000; stroke-linecap:butt; stroke-linejoin:round; stroke-width:2; stroke-opacity:0.1; fill:none" points="
  232.389,133.077 2352.76,133.077 
  "/>
<polyline clip-path="url(#clip210)" style="stroke:#000000; stroke-linecap:butt; stroke-linejoin:round; stroke-width:4; stroke-opacity:1; fill:none" points="
  232.389,1423.18 232.389,123.472 
  "/>
<polyline clip-path="url(#clip210)" style="stroke:#000000; stroke-linecap:butt; stroke-linejoin:round; stroke-width:4; stroke-opacity:1; fill:none" points="
  232.389,1410.99 251.287,1410.99 
  "/>
<polyline clip-path="url(#clip210)" style="stroke:#000000; stroke-linecap:butt; stroke-linejoin:round; stroke-width:4; stroke-opacity:1; fill:none" points="
  232.389,985.019 251.287,985.019 
  "/>
<polyline clip-path="url(#clip210)" style="stroke:#000000; stroke-linecap:butt; stroke-linejoin:round; stroke-width:4; stroke-opacity:1; fill:none" points="
  232.389,559.048 251.287,559.048 
  "/>
<polyline clip-path="url(#clip210)" style="stroke:#000000; stroke-linecap:butt; stroke-linejoin:round; stroke-width:4; stroke-opacity:1; fill:none" points="
  232.389,133.077 251.287,133.077 
  "/>
<path clip-path="url(#clip210)" d="M184.445 1396.79 Q180.834 1396.79 179.005 1400.35 Q177.2 1403.9 177.2 1411.02 Q177.2 1418.13 179.005 1421.7 Q180.834 1425.24 184.445 1425.24 Q188.079 1425.24 189.885 1421.7 Q191.713 1418.13 191.713 1411.02 Q191.713 1403.9 189.885 1400.35 Q188.079 1396.79 184.445 1396.79 M184.445 1393.09 Q190.255 1393.09 193.311 1397.69 Q196.389 1402.27 196.389 1411.02 Q196.389 1419.75 193.311 1424.36 Q190.255 1428.94 184.445 1428.94 Q178.635 1428.94 175.556 1424.36 Q172.501 1419.75 172.501 1411.02 Q172.501 1402.27 175.556 1397.69 Q178.635 1393.09 184.445 1393.09 Z" fill="#000000" fill-rule="evenodd" fill-opacity="1" /><path clip-path="url(#clip210)" d="M144.329 967.739 L162.686 967.739 L162.686 971.674 L148.612 971.674 L148.612 980.146 Q149.63 979.799 150.649 979.637 Q151.667 979.452 152.686 979.452 Q158.473 979.452 161.852 982.623 Q165.232 985.795 165.232 991.211 Q165.232 996.79 161.76 999.892 Q158.288 1002.97 151.968 1002.97 Q149.792 1002.97 147.524 1002.6 Q145.279 1002.23 142.871 1001.49 L142.871 996.79 Q144.954 997.924 147.177 998.48 Q149.399 999.035 151.876 999.035 Q155.88 999.035 158.218 996.929 Q160.556 994.822 160.556 991.211 Q160.556 987.6 158.218 985.494 Q155.88 983.387 151.876 983.387 Q150.001 983.387 148.126 983.804 Q146.274 984.221 144.329 985.1 L144.329 967.739 Z" fill="#000000" fill-rule="evenodd" fill-opacity="1" /><path clip-path="url(#clip210)" d="M184.445 970.818 Q180.834 970.818 179.005 974.383 Q177.2 977.924 177.2 985.054 Q177.2 992.16 179.005 995.725 Q180.834 999.267 184.445 999.267 Q188.079 999.267 189.885 995.725 Q191.713 992.16 191.713 985.054 Q191.713 977.924 189.885 974.383 Q188.079 970.818 184.445 970.818 M184.445 967.114 Q190.255 967.114 193.311 971.721 Q196.389 976.304 196.389 985.054 Q196.389 993.781 193.311 998.387 Q190.255 1002.97 184.445 1002.97 Q178.635 1002.97 175.556 998.387 Q172.501 993.781 172.501 985.054 Q172.501 976.304 175.556 971.721 Q178.635 967.114 184.445 967.114 Z" fill="#000000" fill-rule="evenodd" fill-opacity="1" /><path clip-path="url(#clip210)" d="M114.931 572.393 L122.57 572.393 L122.57 546.027 L114.26 547.694 L114.26 543.435 L122.524 541.768 L127.2 541.768 L127.2 572.393 L134.839 572.393 L134.839 576.328 L114.931 576.328 L114.931 572.393 Z" fill="#000000" fill-rule="evenodd" fill-opacity="1" /><path clip-path="url(#clip210)" d="M154.283 544.847 Q150.672 544.847 148.843 548.412 Q147.038 551.953 147.038 559.083 Q147.038 566.189 148.843 569.754 Q150.672 573.296 154.283 573.296 Q157.917 573.296 159.723 569.754 Q161.552 566.189 161.552 559.083 Q161.552 551.953 159.723 548.412 Q157.917 544.847 154.283 544.847 M154.283 541.143 Q160.093 541.143 163.149 545.75 Q166.227 550.333 166.227 559.083 Q166.227 567.81 163.149 572.416 Q160.093 576.999 154.283 576.999 Q148.473 576.999 145.394 572.416 Q142.339 567.81 142.339 559.083 Q142.339 550.333 145.394 545.75 Q148.473 541.143 154.283 541.143 Z" fill="#000000" fill-rule="evenodd" fill-opacity="1" /><path clip-path="url(#clip210)" d="M184.445 544.847 Q180.834 544.847 179.005 548.412 Q177.2 551.953 177.2 559.083 Q177.2 566.189 179.005 569.754 Q180.834 573.296 184.445 573.296 Q188.079 573.296 189.885 569.754 Q191.713 566.189 191.713 559.083 Q191.713 551.953 189.885 548.412 Q188.079 544.847 184.445 544.847 M184.445 541.143 Q190.255 541.143 193.311 545.75 Q196.389 550.333 196.389 559.083 Q196.389 567.81 193.311 572.416 Q190.255 576.999 184.445 576.999 Q178.635 576.999 175.556 572.416 Q172.501 567.81 172.501 559.083 Q172.501 550.333 175.556 545.75 Q178.635 541.143 184.445 541.143 Z" fill="#000000" fill-rule="evenodd" fill-opacity="1" /><path clip-path="url(#clip210)" d="M114.931 146.422 L122.57 146.422 L122.57 120.056 L114.26 121.723 L114.26 117.464 L122.524 115.797 L127.2 115.797 L127.2 146.422 L134.839 146.422 L134.839 150.357 L114.931 150.357 L114.931 146.422 Z" fill="#000000" fill-rule="evenodd" fill-opacity="1" /><path clip-path="url(#clip210)" d="M144.329 115.797 L162.686 115.797 L162.686 119.732 L148.612 119.732 L148.612 128.204 Q149.63 127.857 150.649 127.695 Q151.667 127.51 152.686 127.51 Q158.473 127.51 161.852 130.681 Q165.232 133.852 165.232 139.269 Q165.232 144.848 161.76 147.95 Q158.288 151.028 151.968 151.028 Q149.792 151.028 147.524 150.658 Q145.279 150.288 142.871 149.547 L142.871 144.848 Q144.954 145.982 147.177 146.538 Q149.399 147.093 151.876 147.093 Q155.88 147.093 158.218 144.987 Q160.556 142.88 160.556 139.269 Q160.556 135.658 158.218 133.552 Q155.88 131.445 151.876 131.445 Q150.001 131.445 148.126 131.862 Q146.274 132.278 144.329 133.158 L144.329 115.797 Z" fill="#000000" fill-rule="evenodd" fill-opacity="1" /><path clip-path="url(#clip210)" d="M184.445 118.876 Q180.834 118.876 179.005 122.44 Q177.2 125.982 177.2 133.112 Q177.2 140.218 179.005 143.783 Q180.834 147.325 184.445 147.325 Q188.079 147.325 189.885 143.783 Q191.713 140.218 191.713 133.112 Q191.713 125.982 189.885 122.44 Q188.079 118.876 184.445 118.876 M184.445 115.172 Q190.255 115.172 193.311 119.778 Q196.389 124.362 196.389 133.112 Q196.389 141.839 193.311 146.445 Q190.255 151.028 184.445 151.028 Q178.635 151.028 175.556 146.445 Q172.501 141.839 172.501 133.112 Q172.501 124.362 175.556 119.778 Q178.635 115.172 184.445 115.172 Z" fill="#000000" fill-rule="evenodd" fill-opacity="1" /><path clip-path="url(#clip210)" d="M21.7677 1081.66 L39.6235 1081.66 L39.6235 1073.58 Q39.6235 1069.09 37.3 1066.64 Q34.9765 1064.19 30.6797 1064.19 Q26.4147 1064.19 24.0912 1066.64 Q21.7677 1069.09 21.7677 1073.58 L21.7677 1081.66 M16.4842 1088.09 L16.4842 1073.58 Q16.4842 1065.59 20.1126 1061.52 Q23.7092 1057.41 30.6797 1057.41 Q37.7138 1057.41 41.3104 1061.52 Q44.907 1065.59 44.907 1073.58 L44.907 1081.66 L64.0042 1081.66 L64.0042 1088.09 L16.4842 1088.09 Z" fill="#000000" fill-rule="evenodd" fill-opacity="1" /><path clip-path="url(#clip210)" d="M33.8307 1029.53 Q33.2578 1030.52 33.0032 1031.69 Q32.7167 1032.84 32.7167 1034.24 Q32.7167 1039.21 35.9632 1041.88 Q39.1779 1044.52 45.2253 1044.52 L64.0042 1044.52 L64.0042 1050.41 L28.3562 1050.41 L28.3562 1044.52 L33.8944 1044.52 Q30.6479 1042.67 29.0883 1039.71 Q27.4968 1036.75 27.4968 1032.52 Q27.4968 1031.92 27.5923 1031.18 Q27.656 1030.45 27.8151 1029.56 L33.8307 1029.53 Z" fill="#000000" fill-rule="evenodd" fill-opacity="1" /><path clip-path="url(#clip210)" d="M44.7161 994.327 L47.5806 994.327 L47.5806 1021.25 Q53.6281 1020.87 56.8109 1017.63 Q59.9619 1014.35 59.9619 1008.52 Q59.9619 1005.15 59.1344 1002 Q58.3069 998.815 56.6518 995.696 L62.1899 995.696 Q63.5267 998.847 64.227 1002.16 Q64.9272 1005.47 64.9272 1008.87 Q64.9272 1017.4 59.9619 1022.4 Q54.9967 1027.37 46.5303 1027.37 Q37.7774 1027.37 32.6531 1022.65 Q27.4968 1017.91 27.4968 1009.89 Q27.4968 1002.7 32.1438 998.529 Q36.7589 994.327 44.7161 994.327 M42.9973 1000.18 Q38.1912 1000.25 35.3266 1002.89 Q32.4621 1005.5 32.4621 1009.83 Q32.4621 1014.73 35.2312 1017.69 Q38.0002 1020.62 43.0292 1021.06 L42.9973 1000.18 Z" fill="#000000" fill-rule="evenodd" fill-opacity="1" /><path clip-path="url(#clip210)" d="M29.4065 961.99 L34.9447 961.99 Q33.6716 964.472 33.035 967.146 Q32.3984 969.819 32.3984 972.684 Q32.3984 977.045 33.7352 979.241 Q35.072 981.405 37.7456 981.405 Q39.7826 981.405 40.9603 979.845 Q42.1061 978.286 43.1565 973.575 L43.6021 971.57 Q44.9389 965.332 47.3897 962.722 Q49.8086 960.08 54.1691 960.08 Q59.1344 960.08 62.0308 964.027 Q64.9272 967.942 64.9272 974.817 Q64.9272 977.681 64.3543 980.8 Q63.8132 983.888 62.6992 987.325 L56.6518 987.325 Q58.3387 984.079 59.198 980.928 Q60.0256 977.777 60.0256 974.689 Q60.0256 970.551 58.6251 968.323 Q57.1929 966.095 54.6147 966.095 Q52.2276 966.095 50.9545 967.719 Q49.6813 969.31 48.5037 974.753 L48.0262 976.79 Q46.8804 982.233 44.5251 984.652 Q42.138 987.07 38.0002 987.07 Q32.9713 987.07 30.2341 983.506 Q27.4968 979.941 27.4968 973.384 Q27.4968 970.138 27.9743 967.273 Q28.4517 964.409 29.4065 961.99 Z" fill="#000000" fill-rule="evenodd" fill-opacity="1" /><path clip-path="url(#clip210)" d="M29.4065 928.029 L34.9447 928.029 Q33.6716 930.511 33.035 933.185 Q32.3984 935.858 32.3984 938.723 Q32.3984 943.083 33.7352 945.28 Q35.072 947.444 37.7456 947.444 Q39.7826 947.444 40.9603 945.884 Q42.1061 944.325 43.1565 939.614 L43.6021 937.609 Q44.9389 931.371 47.3897 928.761 Q49.8086 926.119 54.1691 926.119 Q59.1344 926.119 62.0308 930.066 Q64.9272 933.981 64.9272 940.855 Q64.9272 943.72 64.3543 946.839 Q63.8132 949.927 62.6992 953.364 L56.6518 953.364 Q58.3387 950.118 59.198 946.967 Q60.0256 943.816 60.0256 940.728 Q60.0256 936.59 58.6251 934.362 Q57.1929 932.134 54.6147 932.134 Q52.2276 932.134 50.9545 933.758 Q49.6813 935.349 48.5037 940.792 L48.0262 942.829 Q46.8804 948.272 44.5251 950.69 Q42.138 953.109 38.0002 953.109 Q32.9713 953.109 30.2341 949.545 Q27.4968 945.98 27.4968 939.423 Q27.4968 936.177 27.9743 933.312 Q28.4517 930.448 29.4065 928.029 Z" fill="#000000" fill-rule="evenodd" fill-opacity="1" /><path clip-path="url(#clip210)" d="M49.9359 917.398 L28.3562 917.398 L28.3562 911.541 L49.7131 911.541 Q54.7739 911.541 57.3202 909.568 Q59.8346 907.595 59.8346 903.648 Q59.8346 898.905 56.8109 896.168 Q53.7872 893.399 48.5673 893.399 L28.3562 893.399 L28.3562 887.543 L64.0042 887.543 L64.0042 893.399 L58.5296 893.399 Q61.7762 895.532 63.3676 898.364 Q64.9272 901.165 64.9272 904.889 Q64.9272 911.032 61.1078 914.215 Q57.2883 917.398 49.9359 917.398 M27.4968 902.661 L27.4968 902.661 Z" fill="#000000" fill-rule="evenodd" fill-opacity="1" /><path clip-path="url(#clip210)" d="M33.8307 854.823 Q33.2578 855.81 33.0032 856.987 Q32.7167 858.133 32.7167 859.534 Q32.7167 864.499 35.9632 867.172 Q39.1779 869.814 45.2253 869.814 L64.0042 869.814 L64.0042 875.702 L28.3562 875.702 L28.3562 869.814 L33.8944 869.814 Q30.6479 867.968 29.0883 865.008 Q27.4968 862.048 27.4968 857.815 Q27.4968 857.21 27.5923 856.478 Q27.656 855.746 27.8151 854.855 L33.8307 854.823 Z" fill="#000000" fill-rule="evenodd" fill-opacity="1" /><path clip-path="url(#clip210)" d="M44.7161 819.621 L47.5806 819.621 L47.5806 846.548 Q53.6281 846.166 56.8109 842.919 Q59.9619 839.641 59.9619 833.816 Q59.9619 830.442 59.1344 827.291 Q58.3069 824.108 56.6518 820.989 L62.1899 820.989 Q63.5267 824.14 64.227 827.45 Q64.9272 830.761 64.9272 834.166 Q64.9272 842.696 59.9619 847.693 Q54.9967 852.659 46.5303 852.659 Q37.7774 852.659 32.6531 847.948 Q27.4968 843.206 27.4968 835.185 Q27.4968 827.991 32.1438 823.822 Q36.7589 819.621 44.7161 819.621 M42.9973 825.477 Q38.1912 825.541 35.3266 828.182 Q32.4621 830.792 32.4621 835.121 Q32.4621 840.023 35.2312 842.983 Q38.0002 845.911 43.0292 846.357 L42.9973 825.477 Z" fill="#000000" fill-rule="evenodd" fill-opacity="1" /><path clip-path="url(#clip210)" d="M21.7677 782.604 L58.7206 782.604 L58.7206 774.838 Q58.7206 765.003 54.2646 760.451 Q49.8086 755.868 40.1964 755.868 Q30.6479 755.868 26.2237 760.451 Q21.7677 765.003 21.7677 774.838 L21.7677 782.604 M16.4842 789.033 L16.4842 775.825 Q16.4842 762.011 22.2451 755.55 Q27.9743 749.089 40.1964 749.089 Q52.4822 749.089 58.2432 755.582 Q64.0042 762.075 64.0042 775.825 L64.0042 789.033 L16.4842 789.033 Z" fill="#000000" fill-rule="evenodd" fill-opacity="1" /><path clip-path="url(#clip210)" d="M33.8307 718.438 Q33.2578 719.424 33.0032 720.602 Q32.7167 721.748 32.7167 723.148 Q32.7167 728.114 35.9632 730.787 Q39.1779 733.429 45.2253 733.429 L64.0042 733.429 L64.0042 739.317 L28.3562 739.317 L28.3562 733.429 L33.8944 733.429 Q30.6479 731.583 29.0883 728.623 Q27.4968 725.663 27.4968 721.43 Q27.4968 720.825 27.5923 720.093 Q27.656 719.361 27.8151 718.47 L33.8307 718.438 Z" fill="#000000" fill-rule="evenodd" fill-opacity="1" /><path clip-path="url(#clip210)" d="M32.4621 699.913 Q32.4621 704.624 36.1542 707.361 Q39.8145 710.099 46.212 710.099 Q52.6095 710.099 56.3017 707.393 Q59.9619 704.656 59.9619 699.913 Q59.9619 695.235 56.2698 692.497 Q52.5777 689.76 46.212 689.76 Q39.8781 689.76 36.186 692.497 Q32.4621 695.235 32.4621 699.913 M27.4968 699.913 Q27.4968 692.275 32.4621 687.914 Q37.4273 683.554 46.212 683.554 Q54.9649 683.554 59.9619 687.914 Q64.9272 692.275 64.9272 699.913 Q64.9272 707.584 59.9619 711.945 Q54.9649 716.273 46.212 716.273 Q37.4273 716.273 32.4621 711.945 Q27.4968 707.584 27.4968 699.913 Z" fill="#000000" fill-rule="evenodd" fill-opacity="1" /><path clip-path="url(#clip210)" d="M58.657 668.18 L77.5631 668.18 L77.5631 674.069 L28.3562 674.069 L28.3562 668.18 L33.7671 668.18 Q30.5842 666.334 29.0564 663.533 Q27.4968 660.701 27.4968 656.786 Q27.4968 650.293 32.6531 646.251 Q37.8093 642.177 46.212 642.177 Q54.6147 642.177 59.771 646.251 Q64.9272 650.293 64.9272 656.786 Q64.9272 660.701 63.3994 663.533 Q61.8398 666.334 58.657 668.18 M46.212 648.256 Q39.7508 648.256 36.0905 650.929 Q32.3984 653.571 32.3984 658.218 Q32.3984 662.865 36.0905 665.539 Q39.7508 668.18 46.212 668.18 Q52.6732 668.18 56.3653 665.539 Q60.0256 662.865 60.0256 658.218 Q60.0256 653.571 56.3653 650.929 Q52.6732 648.256 46.212 648.256 Z" fill="#000000" fill-rule="evenodd" fill-opacity="1" /><path clip-path="url(#clip210)" d="M14.5426 597.68 Q21.8632 601.945 29.0246 604.014 Q36.186 606.083 43.5384 606.083 Q50.8908 606.083 58.1159 604.014 Q65.3091 601.913 72.5979 597.68 L72.5979 602.773 Q65.1182 607.547 57.8931 609.934 Q50.668 612.29 43.5384 612.29 Q36.4406 612.29 29.2474 609.934 Q22.0542 607.579 14.5426 602.773 L14.5426 597.68 Z" fill="#000000" fill-rule="evenodd" fill-opacity="1" /><path clip-path="url(#clip210)" d="M14.479 586.54 L14.479 580.652 L43.7294 580.652 L28.3562 563.178 L28.3562 555.698 L45.0344 574.605 L64.0042 554.903 L64.0042 562.542 L46.5939 580.652 L64.0042 580.652 L64.0042 586.54 L14.479 586.54 Z" fill="#000000" fill-rule="evenodd" fill-opacity="1" /><path clip-path="url(#clip210)" d="M21.7677 541.885 L39.6235 541.885 L39.6235 533.8 Q39.6235 529.313 37.3 526.862 Q34.9765 524.411 30.6797 524.411 Q26.4147 524.411 24.0912 526.862 Q21.7677 529.313 21.7677 533.8 L21.7677 541.885 M16.4842 548.314 L16.4842 533.8 Q16.4842 525.811 20.1126 521.737 Q23.7092 517.631 30.6797 517.631 Q37.7138 517.631 41.3104 521.737 Q44.907 525.811 44.907 533.8 L44.907 541.885 L64.0042 541.885 L64.0042 548.314 L16.4842 548.314 Z" fill="#000000" fill-rule="evenodd" fill-opacity="1" /><path clip-path="url(#clip210)" d="M46.0847 495.988 Q46.0847 503.086 47.7079 505.823 Q49.3312 508.56 53.2461 508.56 Q56.3653 508.56 58.2114 506.523 Q60.0256 504.454 60.0256 500.921 Q60.0256 496.052 56.5881 493.123 Q53.1188 490.163 47.3897 490.163 L46.0847 490.163 L46.0847 495.988 M43.6657 484.307 L64.0042 484.307 L64.0042 490.163 L58.5933 490.163 Q61.8398 492.169 63.3994 495.161 Q64.9272 498.152 64.9272 502.481 Q64.9272 507.956 61.8716 511.202 Q58.7843 514.417 53.6281 514.417 Q47.6125 514.417 44.5569 510.406 Q41.5014 506.364 41.5014 498.375 L41.5014 490.163 L40.9285 490.163 Q36.8862 490.163 34.6901 492.837 Q32.4621 495.479 32.4621 500.285 Q32.4621 503.34 33.1941 506.237 Q33.9262 509.133 35.3903 511.807 L29.9795 511.807 Q28.7381 508.592 28.1334 505.568 Q27.4968 502.545 27.4968 499.68 Q27.4968 491.946 31.5072 488.126 Q35.5176 484.307 43.6657 484.307 Z" fill="#000000" fill-rule="evenodd" fill-opacity="1" /><path clip-path="url(#clip210)" d="M14.5426 473.167 L14.5426 468.074 Q22.0542 463.3 29.2474 460.945 Q36.4406 458.558 43.5384 458.558 Q50.668 458.558 57.8931 460.945 Q65.1182 463.3 72.5979 468.074 L72.5979 473.167 Q65.3091 468.934 58.1159 466.865 Q50.8908 464.764 43.5384 464.764 Q36.186 464.764 29.0246 466.865 Q21.8632 468.934 14.5426 473.167 Z" fill="#000000" fill-rule="evenodd" fill-opacity="1" /><path clip-path="url(#clip210)" d="M903.726 27.2059 L911.626 27.2059 L925.804 65.2844 L939.982 27.2059 L947.881 27.2059 L930.867 72.576 L920.74 72.576 L903.726 27.2059 Z" fill="#000000" fill-rule="evenodd" fill-opacity="1" /><path clip-path="url(#clip210)" d="M996.978 48.0275 L996.978 51.6733 L962.707 51.6733 Q963.194 59.3701 967.326 63.421 Q971.498 67.4314 978.911 67.4314 Q983.205 67.4314 987.215 66.3781 Q991.266 65.3249 995.236 63.2184 L995.236 70.267 Q991.226 71.9684 987.013 72.8596 Q982.8 73.7508 978.466 73.7508 Q967.609 73.7508 961.249 67.4314 Q954.93 61.1119 954.93 50.3365 Q954.93 39.1965 960.925 32.6746 Q966.961 26.1121 977.169 26.1121 Q986.324 26.1121 991.631 32.0264 Q996.978 37.9003 996.978 48.0275 M989.524 45.84 Q989.443 39.7232 986.081 36.0774 Q982.759 32.4315 977.25 32.4315 Q971.012 32.4315 967.245 35.9558 Q963.518 39.4801 962.951 45.8805 L989.524 45.84 Z" fill="#000000" fill-rule="evenodd" fill-opacity="1" /><path clip-path="url(#clip210)" d="M1046.93 45.1919 L1046.93 72.576 L1039.47 72.576 L1039.47 45.4349 Q1039.47 38.994 1036.96 35.7938 Q1034.45 32.5936 1029.43 32.5936 Q1023.39 32.5936 1019.91 36.4419 Q1016.42 40.2903 1016.42 46.9338 L1016.42 72.576 L1008.93 72.576 L1008.93 27.2059 L1016.42 27.2059 L1016.42 34.2544 Q1019.1 30.163 1022.7 28.1376 Q1026.35 26.1121 1031.09 26.1121 Q1038.91 26.1121 1042.92 30.9732 Q1046.93 35.7938 1046.93 45.1919 Z" fill="#000000" fill-rule="evenodd" fill-opacity="1" /><path clip-path="url(#clip210)" d="M1069.17 14.324 L1069.17 27.2059 L1084.52 27.2059 L1084.52 32.9987 L1069.17 32.9987 L1069.17 57.6282 Q1069.17 63.1779 1070.66 64.7578 Q1072.2 66.3376 1076.86 66.3376 L1084.52 66.3376 L1084.52 72.576 L1076.86 72.576 Q1068.23 72.576 1064.95 69.3758 Q1061.67 66.1351 1061.67 57.6282 L1061.67 32.9987 L1056.2 32.9987 L1056.2 27.2059 L1061.67 27.2059 L1061.67 14.324 L1069.17 14.324 Z" fill="#000000" fill-rule="evenodd" fill-opacity="1" /><path clip-path="url(#clip210)" d="M1127.9 65.7705 L1127.9 89.8329 L1120.41 89.8329 L1120.41 27.2059 L1127.9 27.2059 L1127.9 34.0924 Q1130.25 30.0415 1133.82 28.0971 Q1137.42 26.1121 1142.41 26.1121 Q1150.67 26.1121 1155.81 32.6746 Q1161 39.2371 1161 49.9314 Q1161 60.6258 1155.81 67.1883 Q1150.67 73.7508 1142.41 73.7508 Q1137.42 73.7508 1133.82 71.8063 Q1130.25 69.8214 1127.9 65.7705 M1153.26 49.9314 Q1153.26 41.7081 1149.86 37.0496 Q1146.5 32.3505 1140.58 32.3505 Q1134.67 32.3505 1131.27 37.0496 Q1127.9 41.7081 1127.9 49.9314 Q1127.9 58.1548 1131.27 62.8538 Q1134.67 67.5124 1140.58 67.5124 Q1146.5 67.5124 1149.86 62.8538 Q1153.26 58.1548 1153.26 49.9314 Z" fill="#000000" fill-rule="evenodd" fill-opacity="1" /><path clip-path="url(#clip210)" d="M1199.64 34.1734 Q1198.39 33.4443 1196.89 33.1202 Q1195.43 32.7556 1193.65 32.7556 Q1187.33 32.7556 1183.93 36.8875 Q1180.57 40.9789 1180.57 48.6757 L1180.57 72.576 L1173.07 72.576 L1173.07 27.2059 L1180.57 27.2059 L1180.57 34.2544 Q1182.91 30.1225 1186.68 28.1376 Q1190.45 26.1121 1195.84 26.1121 Q1196.61 26.1121 1197.54 26.2337 Q1198.47 26.3147 1199.6 26.5172 L1199.64 34.1734 Z" fill="#000000" fill-rule="evenodd" fill-opacity="1" /><path clip-path="url(#clip210)" d="M1244.45 48.0275 L1244.45 51.6733 L1210.18 51.6733 Q1210.66 59.3701 1214.8 63.421 Q1218.97 67.4314 1226.38 67.4314 Q1230.67 67.4314 1234.69 66.3781 Q1238.74 65.3249 1242.71 63.2184 L1242.71 70.267 Q1238.7 71.9684 1234.48 72.8596 Q1230.27 73.7508 1225.94 73.7508 Q1215.08 73.7508 1208.72 67.4314 Q1202.4 61.1119 1202.4 50.3365 Q1202.4 39.1965 1208.39 32.6746 Q1214.43 26.1121 1224.64 26.1121 Q1233.79 26.1121 1239.1 32.0264 Q1244.45 37.9003 1244.45 48.0275 M1236.99 45.84 Q1236.91 39.7232 1233.55 36.0774 Q1230.23 32.4315 1224.72 32.4315 Q1218.48 32.4315 1214.71 35.9558 Q1210.99 39.4801 1210.42 45.8805 L1236.99 45.84 Z" fill="#000000" fill-rule="evenodd" fill-opacity="1" /><path clip-path="url(#clip210)" d="M1285.61 28.5427 L1285.61 35.5912 Q1282.45 33.9709 1279.04 33.1607 Q1275.64 32.3505 1271.99 32.3505 Q1266.44 32.3505 1263.65 34.0519 Q1260.89 35.7533 1260.89 39.156 Q1260.89 41.7486 1262.88 43.2475 Q1264.86 44.7058 1270.86 46.0426 L1273.41 46.6097 Q1281.35 48.3111 1284.67 51.4303 Q1288.04 54.509 1288.04 60.0587 Q1288.04 66.3781 1283.01 70.0644 Q1278.03 73.7508 1269.28 73.7508 Q1265.63 73.7508 1261.66 73.0216 Q1257.73 72.3329 1253.36 70.9151 L1253.36 63.2184 Q1257.49 65.3654 1261.5 66.4591 Q1265.51 67.5124 1269.44 67.5124 Q1274.71 67.5124 1277.54 65.73 Q1280.38 63.9071 1280.38 60.6258 Q1280.38 57.5877 1278.31 55.9673 Q1276.29 54.3469 1269.36 52.8481 L1266.77 52.2405 Q1259.84 50.7821 1256.76 47.7845 Q1253.68 44.7463 1253.68 39.4801 Q1253.68 33.0797 1258.22 29.5959 Q1262.76 26.1121 1271.1 26.1121 Q1275.23 26.1121 1278.88 26.7198 Q1282.53 27.3274 1285.61 28.5427 Z" fill="#000000" fill-rule="evenodd" fill-opacity="1" /><path clip-path="url(#clip210)" d="M1328.83 28.5427 L1328.83 35.5912 Q1325.67 33.9709 1322.27 33.1607 Q1318.86 32.3505 1315.22 32.3505 Q1309.67 32.3505 1306.87 34.0519 Q1304.12 35.7533 1304.12 39.156 Q1304.12 41.7486 1306.1 43.2475 Q1308.09 44.7058 1314.08 46.0426 L1316.63 46.6097 Q1324.57 48.3111 1327.9 51.4303 Q1331.26 54.509 1331.26 60.0587 Q1331.26 66.3781 1326.24 70.0644 Q1321.25 73.7508 1312.5 73.7508 Q1308.86 73.7508 1304.89 73.0216 Q1300.96 72.3329 1296.58 70.9151 L1296.58 63.2184 Q1300.71 65.3654 1304.73 66.4591 Q1308.74 67.5124 1312.67 67.5124 Q1317.93 67.5124 1320.77 65.73 Q1323.6 63.9071 1323.6 60.6258 Q1323.6 57.5877 1321.54 55.9673 Q1319.51 54.3469 1312.58 52.8481 L1309.99 52.2405 Q1303.06 50.7821 1299.99 47.7845 Q1296.91 44.7463 1296.91 39.4801 Q1296.91 33.0797 1301.44 29.5959 Q1305.98 26.1121 1314.33 26.1121 Q1318.46 26.1121 1322.1 26.7198 Q1325.75 27.3274 1328.83 28.5427 Z" fill="#000000" fill-rule="evenodd" fill-opacity="1" /><path clip-path="url(#clip210)" d="M1342.36 54.671 L1342.36 27.2059 L1349.81 27.2059 L1349.81 54.3874 Q1349.81 60.8284 1352.32 64.0691 Q1354.84 67.2693 1359.86 67.2693 Q1365.89 67.2693 1369.38 63.421 Q1372.9 59.5726 1372.9 52.9291 L1372.9 27.2059 L1380.36 27.2059 L1380.36 72.576 L1372.9 72.576 L1372.9 65.6084 Q1370.19 69.7404 1366.58 71.7658 Q1363.02 73.7508 1358.28 73.7508 Q1350.46 73.7508 1346.41 68.8897 Q1342.36 64.0286 1342.36 54.671 M1361.11 26.1121 L1361.11 26.1121 Z" fill="#000000" fill-rule="evenodd" fill-opacity="1" /><path clip-path="url(#clip210)" d="M1422 34.1734 Q1420.74 33.4443 1419.24 33.1202 Q1417.79 32.7556 1416 32.7556 Q1409.68 32.7556 1406.28 36.8875 Q1402.92 40.9789 1402.92 48.6757 L1402.92 72.576 L1395.43 72.576 L1395.43 27.2059 L1402.92 27.2059 L1402.92 34.2544 Q1405.27 30.1225 1409.04 28.1376 Q1412.8 26.1121 1418.19 26.1121 Q1418.96 26.1121 1419.89 26.2337 Q1420.82 26.3147 1421.96 26.5172 L1422 34.1734 Z" fill="#000000" fill-rule="evenodd" fill-opacity="1" /><path clip-path="url(#clip210)" d="M1466.8 48.0275 L1466.8 51.6733 L1432.53 51.6733 Q1433.02 59.3701 1437.15 63.421 Q1441.32 67.4314 1448.73 67.4314 Q1453.03 67.4314 1457.04 66.3781 Q1461.09 65.3249 1465.06 63.2184 L1465.06 70.267 Q1461.05 71.9684 1456.84 72.8596 Q1452.62 73.7508 1448.29 73.7508 Q1437.43 73.7508 1431.07 67.4314 Q1424.75 61.1119 1424.75 50.3365 Q1424.75 39.1965 1430.75 32.6746 Q1436.78 26.1121 1446.99 26.1121 Q1456.15 26.1121 1461.45 32.0264 Q1466.8 37.9003 1466.8 48.0275 M1459.35 45.84 Q1459.27 39.7232 1455.91 36.0774 Q1452.58 32.4315 1447.07 32.4315 Q1440.84 32.4315 1437.07 35.9558 Q1433.34 39.4801 1432.77 45.8805 L1459.35 45.84 Z" fill="#000000" fill-rule="evenodd" fill-opacity="1" /><path clip-path="url(#clip210)" d="M1535.26 34.0924 L1535.26 9.54393 L1542.72 9.54393 L1542.72 72.576 L1535.26 72.576 L1535.26 65.7705 Q1532.91 69.8214 1529.31 71.8063 Q1525.74 73.7508 1520.72 73.7508 Q1512.5 73.7508 1507.31 67.1883 Q1502.17 60.6258 1502.17 49.9314 Q1502.17 39.2371 1507.31 32.6746 Q1512.5 26.1121 1520.72 26.1121 Q1525.74 26.1121 1529.31 28.0971 Q1532.91 30.0415 1535.26 34.0924 M1509.86 49.9314 Q1509.86 58.1548 1513.23 62.8538 Q1516.63 67.5124 1522.54 67.5124 Q1528.46 67.5124 1531.86 62.8538 Q1535.26 58.1548 1535.26 49.9314 Q1535.26 41.7081 1531.86 37.0496 Q1528.46 32.3505 1522.54 32.3505 Q1516.63 32.3505 1513.23 37.0496 Q1509.86 41.7081 1509.86 49.9314 Z" fill="#000000" fill-rule="evenodd" fill-opacity="1" /><path clip-path="url(#clip210)" d="M1584.36 34.1734 Q1583.1 33.4443 1581.6 33.1202 Q1580.15 32.7556 1578.36 32.7556 Q1572.04 32.7556 1568.64 36.8875 Q1565.28 40.9789 1565.28 48.6757 L1565.28 72.576 L1557.79 72.576 L1557.79 27.2059 L1565.28 27.2059 L1565.28 34.2544 Q1567.63 30.1225 1571.4 28.1376 Q1575.16 26.1121 1580.55 26.1121 Q1581.32 26.1121 1582.25 26.2337 Q1583.18 26.3147 1584.32 26.5172 L1584.36 34.1734 Z" fill="#000000" fill-rule="evenodd" fill-opacity="1" /><path clip-path="url(#clip210)" d="M1607.94 32.4315 Q1601.94 32.4315 1598.46 37.1306 Q1594.97 41.7891 1594.97 49.9314 Q1594.97 58.0738 1598.42 62.7728 Q1601.9 67.4314 1607.94 67.4314 Q1613.89 67.4314 1617.37 62.7323 Q1620.86 58.0333 1620.86 49.9314 Q1620.86 41.8701 1617.37 37.1711 Q1613.89 32.4315 1607.94 32.4315 M1607.94 26.1121 Q1617.66 26.1121 1623.21 32.4315 Q1628.76 38.7509 1628.76 49.9314 Q1628.76 61.0714 1623.21 67.4314 Q1617.66 73.7508 1607.94 73.7508 Q1598.17 73.7508 1592.62 67.4314 Q1587.11 61.0714 1587.11 49.9314 Q1587.11 38.7509 1592.62 32.4315 Q1598.17 26.1121 1607.94 26.1121 Z" fill="#000000" fill-rule="evenodd" fill-opacity="1" /><path clip-path="url(#clip210)" d="M1648.32 65.7705 L1648.32 89.8329 L1640.83 89.8329 L1640.83 27.2059 L1648.32 27.2059 L1648.32 34.0924 Q1650.67 30.0415 1654.24 28.0971 Q1657.84 26.1121 1662.83 26.1121 Q1671.09 26.1121 1676.23 32.6746 Q1681.42 39.2371 1681.42 49.9314 Q1681.42 60.6258 1676.23 67.1883 Q1671.09 73.7508 1662.83 73.7508 Q1657.84 73.7508 1654.24 71.8063 Q1650.67 69.8214 1648.32 65.7705 M1673.68 49.9314 Q1673.68 41.7081 1670.28 37.0496 Q1666.92 32.3505 1661 32.3505 Q1655.09 32.3505 1651.69 37.0496 Q1648.32 41.7081 1648.32 49.9314 Q1648.32 58.1548 1651.69 62.8538 Q1655.09 67.5124 1661 67.5124 Q1666.92 67.5124 1670.28 62.8538 Q1673.68 58.1548 1673.68 49.9314 Z" fill="#000000" fill-rule="evenodd" fill-opacity="1" /><polyline clip-path="url(#clip212)" style="stroke:#009af9; stroke-linecap:butt; stroke-linejoin:round; stroke-width:4; stroke-opacity:1; fill:none" points="
  292.4,160.256 297.283,187.852 302.167,214.509 307.051,240.273 311.935,265.186 334.513,370.383 357.092,461.482 379.671,541.022 402.249,610.97 424.828,672.874 
  447.407,727.971 469.985,777.258 492.564,821.551 519.702,869.118 546.84,911.388 573.977,949.134 601.115,982.987 647.004,1032.8 692.893,1074.93 742.742,1113.74 
  792.59,1146.7 838.546,1172.87 884.502,1195.68 983.041,1235.64 1097.21,1270.58 1198.67,1294.36 1287.64,1311.08 1384.64,1325.95 1482.21,1338.16 1590.1,1349.18 
  1692.75,1357.76 1799.48,1365.13 1889.33,1370.37 1999.02,1375.77 2102.13,1380.05 2267.32,1385.63 2292.75,1386.37 
  "/>
<polyline clip-path="url(#clip212)" style="stroke:#e26f46; stroke-linecap:butt; stroke-linejoin:round; stroke-width:4; stroke-opacity:1; fill:none" points="
  292.4,614.827 297.283,624.601 302.167,634.243 307.051,643.754 311.935,653.137 357.092,734.102 402.249,805.511 447.407,868.517 492.564,924.138 519.702,954.39 
  546.84,982.478 573.977,1008.56 601.115,1032.8 647.004,1069.96 692.893,1102.85 742.742,1134.34 792.59,1162 838.546,1184.57 884.502,1204.67 983.041,1240.83 
  1097.21,1273.4 1198.67,1296.03 1287.64,1312.15 1384.64,1326.62 1482.21,1338.58 1590.1,1349.43 1692.75,1357.91 1799.48,1365.23 1889.33,1370.43 1999.02,1375.81 
  2102.13,1380.07 2267.32,1385.64 2292.75,1386.38 
  "/>
<polyline clip-path="url(#clip212)" style="stroke:#3da44d; stroke-linecap:butt; stroke-linejoin:round; stroke-width:4; stroke-opacity:1; fill:none" points="
  292.4,700.579 297.283,708.389 302.167,716.104 307.051,723.726 311.935,731.255 357.092,796.704 402.249,861.719 447.407,914.282 492.564,961.306 546.84,1011.34 
  601.115,1055.16 647.004,1087.95 692.893,1117.31 742.742,1145.74 792.59,1171 838.546,1191.8 884.502,1210.48 983.041,1244.49 1097.21,1275.56 1198.67,1297.4 
  1287.64,1313.07 1384.64,1327.22 1482.21,1338.98 1590.1,1349.68 1692.75,1358.08 1799.48,1365.34 1889.33,1370.51 1999.02,1375.86 2102.13,1380.11 2267.32,1385.66 
  2292.75,1386.4 
  "/>
<circle clip-path="url(#clip212)" cx="1624.68" cy="1352.25" r="14" fill="#c271d2" fill-rule="evenodd" fill-opacity="1" stroke="#000000" stroke-opacity="1" stroke-width="3.2"/>
<path clip-path="url(#clip210)" d="
M1474.91 425.996 L2282.08 425.996 L2282.08 166.796 L1474.91 166.796  Z
  " fill="#ffffff" fill-rule="evenodd" fill-opacity="1"/>
<polyline clip-path="url(#clip210)" style="stroke:#000000; stroke-linecap:butt; stroke-linejoin:round; stroke-width:4; stroke-opacity:1; fill:none" points="
  1474.91,425.996 2282.08,425.996 2282.08,166.796 1474.91,166.796 1474.91,425.996 
  "/>
<polyline clip-path="url(#clip210)" style="stroke:#009af9; stroke-linecap:butt; stroke-linejoin:round; stroke-width:4; stroke-opacity:1; fill:none" points="
  1498.47,218.636 1639.83,218.636 
  "/>
<path clip-path="url(#clip210)" d="M1663.39 209.99 L1667.65 209.99 L1667.65 235.916 L1663.39 235.916 L1663.39 209.99 M1663.39 199.897 L1667.65 199.897 L1667.65 205.291 L1663.39 205.291 L1663.39 199.897 Z" fill="#000000" fill-rule="evenodd" fill-opacity="1" /><path clip-path="url(#clip210)" d="M1698.11 220.268 L1698.11 235.916 L1693.85 235.916 L1693.85 220.407 Q1693.85 216.726 1692.41 214.897 Q1690.98 213.069 1688.11 213.069 Q1684.66 213.069 1682.67 215.268 Q1680.68 217.467 1680.68 221.263 L1680.68 235.916 L1676.4 235.916 L1676.4 209.99 L1680.68 209.99 L1680.68 214.018 Q1682.21 211.68 1684.27 210.522 Q1686.35 209.365 1689.06 209.365 Q1693.53 209.365 1695.82 212.143 Q1698.11 214.897 1698.11 220.268 Z" fill="#000000" fill-rule="evenodd" fill-opacity="1" /><path clip-path="url(#clip210)" d="M1725.26 210.985 L1725.26 214.967 Q1723.46 213.971 1721.63 213.485 Q1719.82 212.976 1717.97 212.976 Q1713.83 212.976 1711.53 215.615 Q1709.24 218.231 1709.24 222.976 Q1709.24 227.721 1711.53 230.36 Q1713.83 232.976 1717.97 232.976 Q1719.82 232.976 1721.63 232.49 Q1723.46 231.981 1725.26 230.985 L1725.26 234.92 Q1723.48 235.754 1721.56 236.17 Q1719.66 236.587 1717.51 236.587 Q1711.65 236.587 1708.2 232.906 Q1704.75 229.226 1704.75 222.976 Q1704.75 216.633 1708.22 212.999 Q1711.72 209.365 1717.78 209.365 Q1719.75 209.365 1721.63 209.782 Q1723.5 210.175 1725.26 210.985 Z" fill="#000000" fill-rule="evenodd" fill-opacity="1" /><path clip-path="url(#clip210)" d="M1742.72 212.976 Q1739.29 212.976 1737.3 215.661 Q1735.31 218.323 1735.31 222.976 Q1735.31 227.629 1737.28 230.314 Q1739.27 232.976 1742.72 232.976 Q1746.12 232.976 1748.11 230.291 Q1750.1 227.606 1750.1 222.976 Q1750.1 218.37 1748.11 215.684 Q1746.12 212.976 1742.72 212.976 M1742.72 209.365 Q1748.27 209.365 1751.44 212.976 Q1754.61 216.587 1754.61 222.976 Q1754.61 229.342 1751.44 232.976 Q1748.27 236.587 1742.72 236.587 Q1737.14 236.587 1733.97 232.976 Q1730.82 229.342 1730.82 222.976 Q1730.82 216.587 1733.97 212.976 Q1737.14 209.365 1742.72 209.365 Z" fill="#000000" fill-rule="evenodd" fill-opacity="1" /><path clip-path="url(#clip210)" d="M1781.86 214.967 Q1783.46 212.096 1785.68 210.731 Q1787.9 209.365 1790.91 209.365 Q1794.96 209.365 1797.16 212.212 Q1799.36 215.036 1799.36 220.268 L1799.36 235.916 L1795.08 235.916 L1795.08 220.407 Q1795.08 216.68 1793.76 214.874 Q1792.44 213.069 1789.73 213.069 Q1786.42 213.069 1784.5 215.268 Q1782.58 217.467 1782.58 221.263 L1782.58 235.916 L1778.29 235.916 L1778.29 220.407 Q1778.29 216.657 1776.97 214.874 Q1775.65 213.069 1772.9 213.069 Q1769.64 213.069 1767.71 215.291 Q1765.79 217.49 1765.79 221.263 L1765.79 235.916 L1761.51 235.916 L1761.51 209.99 L1765.79 209.99 L1765.79 214.018 Q1767.25 211.633 1769.29 210.499 Q1771.33 209.365 1774.13 209.365 Q1776.95 209.365 1778.92 210.8 Q1780.91 212.235 1781.86 214.967 Z" fill="#000000" fill-rule="evenodd" fill-opacity="1" /><path clip-path="url(#clip210)" d="M1811.97 232.027 L1811.97 245.777 L1807.69 245.777 L1807.69 209.99 L1811.97 209.99 L1811.97 213.925 Q1813.32 211.61 1815.35 210.499 Q1817.41 209.365 1820.26 209.365 Q1824.98 209.365 1827.92 213.115 Q1830.89 216.865 1830.89 222.976 Q1830.89 229.087 1827.92 232.837 Q1824.98 236.587 1820.26 236.587 Q1817.41 236.587 1815.35 235.476 Q1813.32 234.342 1811.97 232.027 M1826.46 222.976 Q1826.46 218.277 1824.52 215.615 Q1822.6 212.93 1819.22 212.93 Q1815.84 212.93 1813.9 215.615 Q1811.97 218.277 1811.97 222.976 Q1811.97 227.675 1813.9 230.36 Q1815.84 233.022 1819.22 233.022 Q1822.6 233.022 1824.52 230.36 Q1826.46 227.675 1826.46 222.976 Z" fill="#000000" fill-rule="evenodd" fill-opacity="1" /><path clip-path="url(#clip210)" d="M1852.97 213.971 Q1852.25 213.555 1851.4 213.37 Q1850.56 213.161 1849.54 213.161 Q1845.93 213.161 1843.99 215.522 Q1842.07 217.86 1842.07 222.258 L1842.07 235.916 L1837.78 235.916 L1837.78 209.99 L1842.07 209.99 L1842.07 214.018 Q1843.41 211.657 1845.56 210.522 Q1847.71 209.365 1850.79 209.365 Q1851.23 209.365 1851.77 209.434 Q1852.3 209.481 1852.95 209.596 L1852.97 213.971 Z" fill="#000000" fill-rule="evenodd" fill-opacity="1" /><path clip-path="url(#clip210)" d="M1878.57 221.888 L1878.57 223.971 L1858.99 223.971 Q1859.27 228.369 1861.63 230.684 Q1864.01 232.976 1868.25 232.976 Q1870.7 232.976 1872.99 232.374 Q1875.31 231.772 1877.58 230.569 L1877.58 234.596 Q1875.28 235.568 1872.88 236.078 Q1870.47 236.587 1867.99 236.587 Q1861.79 236.587 1858.15 232.976 Q1854.54 229.365 1854.54 223.207 Q1854.54 216.842 1857.97 213.115 Q1861.42 209.365 1867.25 209.365 Q1872.48 209.365 1875.52 212.745 Q1878.57 216.101 1878.57 221.888 M1874.31 220.638 Q1874.27 217.143 1872.34 215.059 Q1870.45 212.976 1867.3 212.976 Q1863.73 212.976 1861.58 214.99 Q1859.45 217.004 1859.13 220.661 L1874.31 220.638 Z" fill="#000000" fill-rule="evenodd" fill-opacity="1" /><path clip-path="url(#clip210)" d="M1902.09 210.754 L1902.09 214.782 Q1900.28 213.856 1898.34 213.393 Q1896.39 212.93 1894.31 212.93 Q1891.14 212.93 1889.54 213.902 Q1887.97 214.874 1887.97 216.819 Q1887.97 218.3 1889.1 219.157 Q1890.24 219.99 1893.66 220.754 L1895.12 221.078 Q1899.66 222.05 1901.56 223.832 Q1903.48 225.592 1903.48 228.763 Q1903.48 232.374 1900.61 234.481 Q1897.76 236.587 1892.76 236.587 Q1890.68 236.587 1888.41 236.17 Q1886.16 235.777 1883.66 234.967 L1883.66 230.569 Q1886.02 231.795 1888.32 232.42 Q1890.61 233.022 1892.85 233.022 Q1895.86 233.022 1897.48 232.004 Q1899.1 230.962 1899.1 229.087 Q1899.1 227.351 1897.92 226.425 Q1896.77 225.499 1892.81 224.643 L1891.33 224.295 Q1887.37 223.462 1885.61 221.749 Q1883.85 220.013 1883.85 217.004 Q1883.85 213.346 1886.44 211.356 Q1889.03 209.365 1893.8 209.365 Q1896.16 209.365 1898.25 209.712 Q1900.33 210.059 1902.09 210.754 Z" fill="#000000" fill-rule="evenodd" fill-opacity="1" /><path clip-path="url(#clip210)" d="M1926.79 210.754 L1926.79 214.782 Q1924.98 213.856 1923.04 213.393 Q1921.09 212.93 1919.01 212.93 Q1915.84 212.93 1914.24 213.902 Q1912.67 214.874 1912.67 216.819 Q1912.67 218.3 1913.8 219.157 Q1914.94 219.99 1918.36 220.754 L1919.82 221.078 Q1924.36 222.05 1926.26 223.832 Q1928.18 225.592 1928.18 228.763 Q1928.18 232.374 1925.31 234.481 Q1922.46 236.587 1917.46 236.587 Q1915.38 236.587 1913.11 236.17 Q1910.86 235.777 1908.36 234.967 L1908.36 230.569 Q1910.72 231.795 1913.02 232.42 Q1915.31 233.022 1917.55 233.022 Q1920.56 233.022 1922.18 232.004 Q1923.8 230.962 1923.8 229.087 Q1923.8 227.351 1922.62 226.425 Q1921.46 225.499 1917.51 224.643 L1916.02 224.295 Q1912.07 223.462 1910.31 221.749 Q1908.55 220.013 1908.55 217.004 Q1908.55 213.346 1911.14 211.356 Q1913.73 209.365 1918.5 209.365 Q1920.86 209.365 1922.95 209.712 Q1925.03 210.059 1926.79 210.754 Z" fill="#000000" fill-rule="evenodd" fill-opacity="1" /><path clip-path="url(#clip210)" d="M1934.96 209.99 L1939.22 209.99 L1939.22 235.916 L1934.96 235.916 L1934.96 209.99 M1934.96 199.897 L1939.22 199.897 L1939.22 205.291 L1934.96 205.291 L1934.96 199.897 Z" fill="#000000" fill-rule="evenodd" fill-opacity="1" /><path clip-path="url(#clip210)" d="M1966.74 222.976 Q1966.74 218.277 1964.8 215.615 Q1962.88 212.93 1959.5 212.93 Q1956.12 212.93 1954.17 215.615 Q1952.25 218.277 1952.25 222.976 Q1952.25 227.675 1954.17 230.36 Q1956.12 233.022 1959.5 233.022 Q1962.88 233.022 1964.8 230.36 Q1966.74 227.675 1966.74 222.976 M1952.25 213.925 Q1953.59 211.61 1955.63 210.499 Q1957.69 209.365 1960.54 209.365 Q1965.26 209.365 1968.2 213.115 Q1971.16 216.865 1971.16 222.976 Q1971.16 229.087 1968.2 232.837 Q1965.26 236.587 1960.54 236.587 Q1957.69 236.587 1955.63 235.476 Q1953.59 234.342 1952.25 232.027 L1952.25 235.916 L1947.97 235.916 L1947.97 199.897 L1952.25 199.897 L1952.25 213.925 Z" fill="#000000" fill-rule="evenodd" fill-opacity="1" /><path clip-path="url(#clip210)" d="M1978.22 199.897 L1982.48 199.897 L1982.48 235.916 L1978.22 235.916 L1978.22 199.897 Z" fill="#000000" fill-rule="evenodd" fill-opacity="1" /><path clip-path="url(#clip210)" d="M2013.57 221.888 L2013.57 223.971 L1993.99 223.971 Q1994.26 228.369 1996.63 230.684 Q1999.01 232.976 2003.25 232.976 Q2005.7 232.976 2007.99 232.374 Q2010.31 231.772 2012.57 230.569 L2012.57 234.596 Q2010.28 235.568 2007.88 236.078 Q2005.47 236.587 2002.99 236.587 Q1996.79 236.587 1993.15 232.976 Q1989.54 229.365 1989.54 223.207 Q1989.54 216.842 1992.97 213.115 Q1996.42 209.365 2002.25 209.365 Q2007.48 209.365 2010.51 212.745 Q2013.57 216.101 2013.57 221.888 M2009.31 220.638 Q2009.26 217.143 2007.34 215.059 Q2005.45 212.976 2002.3 212.976 Q1998.73 212.976 1996.58 214.99 Q1994.45 217.004 1994.13 220.661 L2009.31 220.638 Z" fill="#000000" fill-rule="evenodd" fill-opacity="1" /><polyline clip-path="url(#clip210)" style="stroke:#e26f46; stroke-linecap:butt; stroke-linejoin:round; stroke-width:4; stroke-opacity:1; fill:none" points="
  1498.47,270.476 1639.83,270.476 
  "/>
<path clip-path="url(#clip210)" d="M1663.39 261.83 L1667.65 261.83 L1667.65 287.756 L1663.39 287.756 L1663.39 261.83 M1663.39 251.737 L1667.65 251.737 L1667.65 257.131 L1663.39 257.131 L1663.39 251.737 Z" fill="#000000" fill-rule="evenodd" fill-opacity="1" /><path clip-path="url(#clip210)" d="M1693.09 262.594 L1693.09 266.622 Q1691.28 265.696 1689.34 265.233 Q1687.39 264.77 1685.31 264.77 Q1682.14 264.77 1680.54 265.742 Q1678.97 266.714 1678.97 268.659 Q1678.97 270.14 1680.1 270.997 Q1681.23 271.83 1684.66 272.594 L1686.12 272.918 Q1690.66 273.89 1692.55 275.672 Q1694.47 277.432 1694.47 280.603 Q1694.47 284.214 1691.6 286.321 Q1688.76 288.427 1683.76 288.427 Q1681.67 288.427 1679.41 288.01 Q1677.16 287.617 1674.66 286.807 L1674.66 282.409 Q1677.02 283.635 1679.31 284.26 Q1681.6 284.862 1683.85 284.862 Q1686.86 284.862 1688.48 283.844 Q1690.1 282.802 1690.1 280.927 Q1690.1 279.191 1688.92 278.265 Q1687.76 277.339 1683.8 276.483 L1682.32 276.135 Q1678.36 275.302 1676.6 273.589 Q1674.85 271.853 1674.85 268.844 Q1674.85 265.186 1677.44 263.196 Q1680.03 261.205 1684.8 261.205 Q1687.16 261.205 1689.24 261.552 Q1691.33 261.899 1693.09 262.594 Z" fill="#000000" fill-rule="evenodd" fill-opacity="1" /><path clip-path="url(#clip210)" d="M1711.3 264.816 Q1707.88 264.816 1705.89 267.501 Q1703.9 270.163 1703.9 274.816 Q1703.9 279.469 1705.86 282.154 Q1707.85 284.816 1711.3 284.816 Q1714.71 284.816 1716.7 282.131 Q1718.69 279.446 1718.69 274.816 Q1718.69 270.21 1716.7 267.524 Q1714.71 264.816 1711.3 264.816 M1711.3 261.205 Q1716.86 261.205 1720.03 264.816 Q1723.2 268.427 1723.2 274.816 Q1723.2 281.182 1720.03 284.816 Q1716.86 288.427 1711.3 288.427 Q1705.72 288.427 1702.55 284.816 Q1699.41 281.182 1699.41 274.816 Q1699.41 268.427 1702.55 264.816 Q1705.72 261.205 1711.3 261.205 Z" fill="#000000" fill-rule="evenodd" fill-opacity="1" /><path clip-path="url(#clip210)" d="M1734.47 254.469 L1734.47 261.83 L1743.25 261.83 L1743.25 265.14 L1734.47 265.14 L1734.47 279.214 Q1734.47 282.385 1735.33 283.288 Q1736.21 284.191 1738.87 284.191 L1743.25 284.191 L1743.25 287.756 L1738.87 287.756 Q1733.94 287.756 1732.07 285.927 Q1730.19 284.075 1730.19 279.214 L1730.19 265.14 L1727.07 265.14 L1727.07 261.83 L1730.19 261.83 L1730.19 254.469 L1734.47 254.469 Z" fill="#000000" fill-rule="evenodd" fill-opacity="1" /><path clip-path="url(#clip210)" d="M1770.4 272.108 L1770.4 287.756 L1766.14 287.756 L1766.14 272.247 Q1766.14 268.566 1764.71 266.737 Q1763.27 264.909 1760.4 264.909 Q1756.95 264.909 1754.96 267.108 Q1752.97 269.307 1752.97 273.103 L1752.97 287.756 L1748.69 287.756 L1748.69 251.737 L1752.97 251.737 L1752.97 265.858 Q1754.5 263.52 1756.56 262.362 Q1758.64 261.205 1761.35 261.205 Q1765.82 261.205 1768.11 263.983 Q1770.4 266.737 1770.4 272.108 Z" fill="#000000" fill-rule="evenodd" fill-opacity="1" /><path clip-path="url(#clip210)" d="M1801.07 273.728 L1801.07 275.811 L1781.49 275.811 Q1781.77 280.209 1784.13 282.524 Q1786.51 284.816 1790.75 284.816 Q1793.2 284.816 1795.49 284.214 Q1797.81 283.612 1800.08 282.409 L1800.08 286.436 Q1797.78 287.408 1795.38 287.918 Q1792.97 288.427 1790.49 288.427 Q1784.29 288.427 1780.65 284.816 Q1777.04 281.205 1777.04 275.047 Q1777.04 268.682 1780.47 264.955 Q1783.92 261.205 1789.75 261.205 Q1794.98 261.205 1798.02 264.585 Q1801.07 267.941 1801.07 273.728 M1796.81 272.478 Q1796.77 268.983 1794.84 266.899 Q1792.95 264.816 1789.8 264.816 Q1786.23 264.816 1784.08 266.83 Q1781.95 268.844 1781.63 272.501 L1796.81 272.478 Z" fill="#000000" fill-rule="evenodd" fill-opacity="1" /><path clip-path="url(#clip210)" d="M1823.08 265.811 Q1822.37 265.395 1821.51 265.21 Q1820.68 265.001 1819.66 265.001 Q1816.05 265.001 1814.1 267.362 Q1812.18 269.7 1812.18 274.098 L1812.18 287.756 L1807.9 287.756 L1807.9 261.83 L1812.18 261.83 L1812.18 265.858 Q1813.52 263.497 1815.68 262.362 Q1817.83 261.205 1820.91 261.205 Q1821.35 261.205 1821.88 261.274 Q1822.41 261.321 1823.06 261.436 L1823.08 265.811 Z" fill="#000000" fill-rule="evenodd" fill-opacity="1" /><path clip-path="url(#clip210)" d="M1846.9 266.807 Q1848.5 263.936 1850.72 262.571 Q1852.95 261.205 1855.96 261.205 Q1860.01 261.205 1862.21 264.052 Q1864.4 266.876 1864.4 272.108 L1864.4 287.756 L1860.12 287.756 L1860.12 272.247 Q1860.12 268.52 1858.8 266.714 Q1857.48 264.909 1854.77 264.909 Q1851.46 264.909 1849.54 267.108 Q1847.62 269.307 1847.62 273.103 L1847.62 287.756 L1843.34 287.756 L1843.34 272.247 Q1843.34 268.497 1842.02 266.714 Q1840.7 264.909 1837.95 264.909 Q1834.68 264.909 1832.76 267.131 Q1830.84 269.33 1830.84 273.103 L1830.84 287.756 L1826.56 287.756 L1826.56 261.83 L1830.84 261.83 L1830.84 265.858 Q1832.3 263.473 1834.33 262.339 Q1836.37 261.205 1839.17 261.205 Q1842 261.205 1843.96 262.64 Q1845.96 264.075 1846.9 266.807 Z" fill="#000000" fill-rule="evenodd" fill-opacity="1" /><path clip-path="url(#clip210)" d="M1884.68 274.723 Q1879.52 274.723 1877.53 275.904 Q1875.54 277.084 1875.54 279.932 Q1875.54 282.2 1877.02 283.543 Q1878.52 284.862 1881.09 284.862 Q1884.64 284.862 1886.77 282.362 Q1888.92 279.839 1888.92 275.672 L1888.92 274.723 L1884.68 274.723 M1893.18 272.964 L1893.18 287.756 L1888.92 287.756 L1888.92 283.821 Q1887.46 286.182 1885.28 287.316 Q1883.11 288.427 1879.96 288.427 Q1875.98 288.427 1873.62 286.205 Q1871.28 283.959 1871.28 280.209 Q1871.28 275.834 1874.2 273.612 Q1877.14 271.39 1882.95 271.39 L1888.92 271.39 L1888.92 270.973 Q1888.92 268.034 1886.97 266.436 Q1885.05 264.816 1881.56 264.816 Q1879.33 264.816 1877.23 265.348 Q1875.12 265.881 1873.18 266.946 L1873.18 263.01 Q1875.52 262.108 1877.71 261.668 Q1879.91 261.205 1882 261.205 Q1887.62 261.205 1890.4 264.122 Q1893.18 267.038 1893.18 272.964 Z" fill="#000000" fill-rule="evenodd" fill-opacity="1" /><path clip-path="url(#clip210)" d="M1901.95 251.737 L1906.21 251.737 L1906.21 287.756 L1901.95 287.756 L1901.95 251.737 Z" fill="#000000" fill-rule="evenodd" fill-opacity="1" /><polyline clip-path="url(#clip210)" style="stroke:#3da44d; stroke-linecap:butt; stroke-linejoin:round; stroke-width:4; stroke-opacity:1; fill:none" points="
  1498.47,322.316 1639.83,322.316 
  "/>
<path clip-path="url(#clip210)" d="M1679.89 303.577 L1679.89 307.119 L1675.82 307.119 Q1673.53 307.119 1672.62 308.045 Q1671.74 308.971 1671.74 311.378 L1671.74 313.67 L1678.76 313.67 L1678.76 316.98 L1671.74 316.98 L1671.74 339.596 L1667.46 339.596 L1667.46 316.98 L1663.39 316.98 L1663.39 313.67 L1667.46 313.67 L1667.46 311.864 Q1667.46 307.536 1669.47 305.568 Q1671.49 303.577 1675.86 303.577 L1679.89 303.577 Z" fill="#000000" fill-rule="evenodd" fill-opacity="1" /><path clip-path="url(#clip210)" d="M1695.24 326.563 Q1690.08 326.563 1688.09 327.744 Q1686.09 328.924 1686.09 331.772 Q1686.09 334.04 1687.58 335.383 Q1689.08 336.702 1691.65 336.702 Q1695.19 336.702 1697.32 334.202 Q1699.47 331.679 1699.47 327.512 L1699.47 326.563 L1695.24 326.563 M1703.73 324.804 L1703.73 339.596 L1699.47 339.596 L1699.47 335.661 Q1698.02 338.022 1695.84 339.156 Q1693.66 340.267 1690.52 340.267 Q1686.53 340.267 1684.17 338.045 Q1681.84 335.799 1681.84 332.049 Q1681.84 327.674 1684.75 325.452 Q1687.69 323.23 1693.5 323.23 L1699.47 323.23 L1699.47 322.813 Q1699.47 319.874 1697.53 318.276 Q1695.61 316.656 1692.11 316.656 Q1689.89 316.656 1687.78 317.188 Q1685.68 317.721 1683.73 318.786 L1683.73 314.85 Q1686.07 313.948 1688.27 313.508 Q1690.47 313.045 1692.55 313.045 Q1698.18 313.045 1700.96 315.962 Q1703.73 318.878 1703.73 324.804 Z" fill="#000000" fill-rule="evenodd" fill-opacity="1" /><path clip-path="url(#clip210)" d="M1734.06 323.948 L1734.06 339.596 L1729.8 339.596 L1729.8 324.087 Q1729.8 320.406 1728.36 318.577 Q1726.93 316.749 1724.06 316.749 Q1720.61 316.749 1718.62 318.948 Q1716.63 321.147 1716.63 324.943 L1716.63 339.596 L1712.34 339.596 L1712.34 313.67 L1716.63 313.67 L1716.63 317.698 Q1718.15 315.36 1720.22 314.202 Q1722.3 313.045 1725.01 313.045 Q1729.47 313.045 1731.77 315.823 Q1734.06 318.577 1734.06 323.948 Z" fill="#000000" fill-rule="evenodd" fill-opacity="1" /><path clip-path="url(#clip210)" d="M1764.1 323.948 L1764.1 339.596 L1759.84 339.596 L1759.84 324.087 Q1759.84 320.406 1758.41 318.577 Q1756.97 316.749 1754.1 316.749 Q1750.65 316.749 1748.66 318.948 Q1746.67 321.147 1746.67 324.943 L1746.67 339.596 L1742.39 339.596 L1742.39 313.67 L1746.67 313.67 L1746.67 317.698 Q1748.2 315.36 1750.26 314.202 Q1752.34 313.045 1755.05 313.045 Q1759.52 313.045 1761.81 315.823 Q1764.1 318.577 1764.1 323.948 Z" fill="#000000" fill-rule="evenodd" fill-opacity="1" /><path clip-path="url(#clip210)" d="M1782.65 316.656 Q1779.22 316.656 1777.23 319.341 Q1775.24 322.003 1775.24 326.656 Q1775.24 331.309 1777.21 333.994 Q1779.2 336.656 1782.65 336.656 Q1786.05 336.656 1788.04 333.971 Q1790.03 331.286 1790.03 326.656 Q1790.03 322.05 1788.04 319.364 Q1786.05 316.656 1782.65 316.656 M1782.65 313.045 Q1788.2 313.045 1791.37 316.656 Q1794.54 320.267 1794.54 326.656 Q1794.54 333.022 1791.37 336.656 Q1788.2 340.267 1782.65 340.267 Q1777.07 340.267 1773.9 336.656 Q1770.75 333.022 1770.75 326.656 Q1770.75 320.267 1773.9 316.656 Q1777.07 313.045 1782.65 313.045 Z" fill="#000000" fill-rule="evenodd" fill-opacity="1" /><circle clip-path="url(#clip210)" cx="1569.15" cy="374.156" r="23" fill="#c271d2" fill-rule="evenodd" fill-opacity="1" stroke="#000000" stroke-opacity="1" stroke-width="5.12"/>
<path clip-path="url(#clip210)" d="M1683.73 370.487 Q1685.33 367.616 1687.55 366.251 Q1689.78 364.885 1692.78 364.885 Q1696.84 364.885 1699.03 367.732 Q1701.23 370.556 1701.23 375.788 L1701.23 391.436 L1696.95 391.436 L1696.95 375.927 Q1696.95 372.2 1695.63 370.394 Q1694.31 368.589 1691.6 368.589 Q1688.29 368.589 1686.37 370.788 Q1684.45 372.987 1684.45 376.783 L1684.45 391.436 L1680.17 391.436 L1680.17 375.927 Q1680.17 372.177 1678.85 370.394 Q1677.53 368.589 1674.78 368.589 Q1671.51 368.589 1669.59 370.811 Q1667.67 373.01 1667.67 376.783 L1667.67 391.436 L1663.39 391.436 L1663.39 365.51 L1667.67 365.51 L1667.67 369.538 Q1669.13 367.153 1671.16 366.019 Q1673.2 364.885 1676 364.885 Q1678.83 364.885 1680.79 366.32 Q1682.78 367.755 1683.73 370.487 Z" fill="#000000" fill-rule="evenodd" fill-opacity="1" /><path clip-path="url(#clip210)" d="M1709.73 365.51 L1713.99 365.51 L1713.99 391.436 L1709.73 391.436 L1709.73 365.51 M1709.73 355.417 L1713.99 355.417 L1713.99 360.811 L1709.73 360.811 L1709.73 355.417 Z" fill="#000000" fill-rule="evenodd" fill-opacity="1" /><path clip-path="url(#clip210)" d="M1744.45 375.788 L1744.45 391.436 L1740.19 391.436 L1740.19 375.927 Q1740.19 372.246 1738.76 370.417 Q1737.32 368.589 1734.45 368.589 Q1731 368.589 1729.01 370.788 Q1727.02 372.987 1727.02 376.783 L1727.02 391.436 L1722.74 391.436 L1722.74 365.51 L1727.02 365.51 L1727.02 369.538 Q1728.55 367.2 1730.61 366.042 Q1732.69 364.885 1735.4 364.885 Q1739.87 364.885 1742.16 367.663 Q1744.45 370.417 1744.45 375.788 Z" fill="#000000" fill-rule="evenodd" fill-opacity="1" /><path clip-path="url(#clip210)" d="M1752.95 365.51 L1757.21 365.51 L1757.21 391.436 L1752.95 391.436 L1752.95 365.51 M1752.95 355.417 L1757.21 355.417 L1757.21 360.811 L1752.95 360.811 L1752.95 355.417 Z" fill="#000000" fill-rule="evenodd" fill-opacity="1" /><path clip-path="url(#clip210)" d="M1786.3 370.487 Q1787.9 367.616 1790.12 366.251 Q1792.34 364.885 1795.35 364.885 Q1799.4 364.885 1801.6 367.732 Q1803.8 370.556 1803.8 375.788 L1803.8 391.436 L1799.52 391.436 L1799.52 375.927 Q1799.52 372.2 1798.2 370.394 Q1796.88 368.589 1794.17 368.589 Q1790.86 368.589 1788.94 370.788 Q1787.02 372.987 1787.02 376.783 L1787.02 391.436 L1782.74 391.436 L1782.74 375.927 Q1782.74 372.177 1781.42 370.394 Q1780.1 368.589 1777.34 368.589 Q1774.08 368.589 1772.16 370.811 Q1770.24 373.01 1770.24 376.783 L1770.24 391.436 L1765.96 391.436 L1765.96 365.51 L1770.24 365.51 L1770.24 369.538 Q1771.7 367.153 1773.73 366.019 Q1775.77 364.885 1778.57 364.885 Q1781.4 364.885 1783.36 366.32 Q1785.35 367.755 1786.3 370.487 Z" fill="#000000" fill-rule="evenodd" fill-opacity="1" /><path clip-path="url(#clip210)" d="M1811.86 381.204 L1811.86 365.51 L1816.12 365.51 L1816.12 381.042 Q1816.12 384.723 1817.55 386.575 Q1818.99 388.403 1821.86 388.403 Q1825.31 388.403 1827.3 386.204 Q1829.31 384.005 1829.31 380.209 L1829.31 365.51 L1833.57 365.51 L1833.57 391.436 L1829.31 391.436 L1829.31 387.454 Q1827.76 389.815 1825.7 390.973 Q1823.66 392.107 1820.96 392.107 Q1816.49 392.107 1814.17 389.329 Q1811.86 386.551 1811.86 381.204 M1822.58 364.885 L1822.58 364.885 Z" fill="#000000" fill-rule="evenodd" fill-opacity="1" /><path clip-path="url(#clip210)" d="M1862.53 370.487 Q1864.13 367.616 1866.35 366.251 Q1868.57 364.885 1871.58 364.885 Q1875.63 364.885 1877.83 367.732 Q1880.03 370.556 1880.03 375.788 L1880.03 391.436 L1875.75 391.436 L1875.75 375.927 Q1875.75 372.2 1874.43 370.394 Q1873.11 368.589 1870.4 368.589 Q1867.09 368.589 1865.17 370.788 Q1863.25 372.987 1863.25 376.783 L1863.25 391.436 L1858.96 391.436 L1858.96 375.927 Q1858.96 372.177 1857.64 370.394 Q1856.33 368.589 1853.57 368.589 Q1850.31 368.589 1848.39 370.811 Q1846.46 373.01 1846.46 376.783 L1846.46 391.436 L1842.18 391.436 L1842.18 365.51 L1846.46 365.51 L1846.46 369.538 Q1847.92 367.153 1849.96 366.019 Q1852 364.885 1854.8 364.885 Q1857.62 364.885 1859.59 366.32 Q1861.58 367.755 1862.53 370.487 Z" fill="#000000" fill-rule="evenodd" fill-opacity="1" /><path clip-path="url(#clip210)" d="M1900.54 365.51 L1905.05 365.51 L1913.15 387.269 L1921.26 365.51 L1925.77 365.51 L1916.05 391.436 L1910.26 391.436 L1900.54 365.51 Z" fill="#000000" fill-rule="evenodd" fill-opacity="1" /><path clip-path="url(#clip210)" d="M1953.83 377.408 L1953.83 379.491 L1934.24 379.491 Q1934.52 383.889 1936.88 386.204 Q1939.26 388.496 1943.5 388.496 Q1945.95 388.496 1948.25 387.894 Q1950.56 387.292 1952.83 386.089 L1952.83 390.116 Q1950.54 391.088 1948.13 391.598 Q1945.72 392.107 1943.25 392.107 Q1937.04 392.107 1933.41 388.496 Q1929.8 384.885 1929.8 378.727 Q1929.8 372.362 1933.22 368.635 Q1936.67 364.885 1942.51 364.885 Q1947.74 364.885 1950.77 368.265 Q1953.83 371.621 1953.83 377.408 M1949.57 376.158 Q1949.52 372.663 1947.6 370.579 Q1945.7 368.496 1942.55 368.496 Q1938.99 368.496 1936.83 370.51 Q1934.7 372.524 1934.38 376.181 L1949.57 376.158 Z" fill="#000000" fill-rule="evenodd" fill-opacity="1" /><path clip-path="url(#clip210)" d="M1982.37 375.788 L1982.37 391.436 L1978.11 391.436 L1978.11 375.927 Q1978.11 372.246 1976.67 370.417 Q1975.24 368.589 1972.37 368.589 Q1968.92 368.589 1966.93 370.788 Q1964.94 372.987 1964.94 376.783 L1964.94 391.436 L1960.65 391.436 L1960.65 365.51 L1964.94 365.51 L1964.94 369.538 Q1966.46 367.2 1968.52 366.042 Q1970.61 364.885 1973.32 364.885 Q1977.78 364.885 1980.07 367.663 Q1982.37 370.417 1982.37 375.788 Z" fill="#000000" fill-rule="evenodd" fill-opacity="1" /><path clip-path="url(#clip210)" d="M1995.07 358.149 L1995.07 365.51 L2003.85 365.51 L2003.85 368.82 L1995.07 368.82 L1995.07 382.894 Q1995.07 386.065 1995.93 386.968 Q1996.81 387.871 1999.47 387.871 L2003.85 387.871 L2003.85 391.436 L1999.47 391.436 Q1994.54 391.436 1992.67 389.607 Q1990.79 387.755 1990.79 382.894 L1990.79 368.82 L1987.67 368.82 L1987.67 365.51 L1990.79 365.51 L1990.79 358.149 L1995.07 358.149 Z" fill="#000000" fill-rule="evenodd" fill-opacity="1" /><path clip-path="url(#clip210)" d="M2041.58 369.445 L2041.58 355.417 L2045.84 355.417 L2045.84 391.436 L2041.58 391.436 L2041.58 387.547 Q2040.24 389.862 2038.18 390.996 Q2036.14 392.107 2033.27 392.107 Q2028.57 392.107 2025.61 388.357 Q2022.67 384.607 2022.67 378.496 Q2022.67 372.385 2025.61 368.635 Q2028.57 364.885 2033.27 364.885 Q2036.14 364.885 2038.18 366.019 Q2040.24 367.13 2041.58 369.445 M2027.07 378.496 Q2027.07 383.195 2028.99 385.88 Q2030.93 388.542 2034.31 388.542 Q2037.69 388.542 2039.63 385.88 Q2041.58 383.195 2041.58 378.496 Q2041.58 373.797 2039.63 371.135 Q2037.69 368.45 2034.31 368.45 Q2030.93 368.45 2028.99 371.135 Q2027.07 373.797 2027.07 378.496 Z" fill="#000000" fill-rule="evenodd" fill-opacity="1" /><path clip-path="url(#clip210)" d="M2054.61 365.51 L2058.87 365.51 L2058.87 391.436 L2054.61 391.436 L2054.61 365.51 M2054.61 355.417 L2058.87 355.417 L2058.87 360.811 L2054.61 360.811 L2054.61 355.417 Z" fill="#000000" fill-rule="evenodd" fill-opacity="1" /><path clip-path="url(#clip210)" d="M2079.57 378.403 Q2074.4 378.403 2072.41 379.584 Q2070.42 380.764 2070.42 383.612 Q2070.42 385.88 2071.9 387.223 Q2073.41 388.542 2075.98 388.542 Q2079.52 388.542 2081.65 386.042 Q2083.8 383.519 2083.8 379.352 L2083.8 378.403 L2079.57 378.403 M2088.06 376.644 L2088.06 391.436 L2083.8 391.436 L2083.8 387.501 Q2082.34 389.862 2080.17 390.996 Q2077.99 392.107 2074.84 392.107 Q2070.86 392.107 2068.5 389.885 Q2066.16 387.639 2066.16 383.889 Q2066.16 379.514 2069.08 377.292 Q2072.02 375.07 2077.83 375.07 L2083.8 375.07 L2083.8 374.653 Q2083.8 371.714 2081.86 370.116 Q2079.94 368.496 2076.44 368.496 Q2074.22 368.496 2072.11 369.028 Q2070 369.561 2068.06 370.626 L2068.06 366.69 Q2070.4 365.788 2072.6 365.348 Q2074.8 364.885 2076.88 364.885 Q2082.5 364.885 2085.28 367.802 Q2088.06 370.718 2088.06 376.644 Z" fill="#000000" fill-rule="evenodd" fill-opacity="1" /><path clip-path="url(#clip210)" d="M2117.02 370.487 Q2118.62 367.616 2120.84 366.251 Q2123.06 364.885 2126.07 364.885 Q2130.12 364.885 2132.32 367.732 Q2134.52 370.556 2134.52 375.788 L2134.52 391.436 L2130.24 391.436 L2130.24 375.927 Q2130.24 372.2 2128.92 370.394 Q2127.6 368.589 2124.89 368.589 Q2121.58 368.589 2119.66 370.788 Q2117.74 372.987 2117.74 376.783 L2117.74 391.436 L2113.45 391.436 L2113.45 375.927 Q2113.45 372.177 2112.13 370.394 Q2110.81 368.589 2108.06 368.589 Q2104.8 368.589 2102.88 370.811 Q2100.95 373.01 2100.95 376.783 L2100.95 391.436 L2096.67 391.436 L2096.67 365.51 L2100.95 365.51 L2100.95 369.538 Q2102.41 367.153 2104.45 366.019 Q2106.49 364.885 2109.29 364.885 Q2112.11 364.885 2114.08 366.32 Q2116.07 367.755 2117.02 370.487 Z" fill="#000000" fill-rule="evenodd" fill-opacity="1" /><path clip-path="url(#clip210)" d="M2165.19 377.408 L2165.19 379.491 L2145.61 379.491 Q2145.88 383.889 2148.25 386.204 Q2150.63 388.496 2154.87 388.496 Q2157.32 388.496 2159.61 387.894 Q2161.93 387.292 2164.19 386.089 L2164.19 390.116 Q2161.9 391.088 2159.5 391.598 Q2157.09 392.107 2154.61 392.107 Q2148.41 392.107 2144.77 388.496 Q2141.16 384.885 2141.16 378.727 Q2141.16 372.362 2144.59 368.635 Q2148.04 364.885 2153.87 364.885 Q2159.1 364.885 2162.13 368.265 Q2165.19 371.621 2165.19 377.408 M2160.93 376.158 Q2160.88 372.663 2158.96 370.579 Q2157.06 368.496 2153.92 368.496 Q2150.35 368.496 2148.2 370.51 Q2146.07 372.524 2145.75 376.181 L2160.93 376.158 Z" fill="#000000" fill-rule="evenodd" fill-opacity="1" /><path clip-path="url(#clip210)" d="M2176.39 358.149 L2176.39 365.51 L2185.17 365.51 L2185.17 368.82 L2176.39 368.82 L2176.39 382.894 Q2176.39 386.065 2177.25 386.968 Q2178.13 387.871 2180.79 387.871 L2185.17 387.871 L2185.17 391.436 L2180.79 391.436 Q2175.86 391.436 2173.99 389.607 Q2172.11 387.755 2172.11 382.894 L2172.11 368.82 L2168.99 368.82 L2168.99 365.51 L2172.11 365.51 L2172.11 358.149 L2176.39 358.149 Z" fill="#000000" fill-rule="evenodd" fill-opacity="1" /><path clip-path="url(#clip210)" d="M2212.94 377.408 L2212.94 379.491 L2193.36 379.491 Q2193.64 383.889 2196 386.204 Q2198.38 388.496 2202.62 388.496 Q2205.07 388.496 2207.37 387.894 Q2209.68 387.292 2211.95 386.089 L2211.95 390.116 Q2209.66 391.088 2207.25 391.598 Q2204.84 392.107 2202.37 392.107 Q2196.16 392.107 2192.53 388.496 Q2188.92 384.885 2188.92 378.727 Q2188.92 372.362 2192.34 368.635 Q2195.79 364.885 2201.62 364.885 Q2206.86 364.885 2209.89 368.265 Q2212.94 371.621 2212.94 377.408 M2208.68 376.158 Q2208.64 372.663 2206.72 370.579 Q2204.82 368.496 2201.67 368.496 Q2198.11 368.496 2195.95 370.51 Q2193.82 372.524 2193.5 376.181 L2208.68 376.158 Z" fill="#000000" fill-rule="evenodd" fill-opacity="1" /><path clip-path="url(#clip210)" d="M2234.96 369.491 Q2234.24 369.075 2233.38 368.89 Q2232.55 368.681 2231.53 368.681 Q2227.92 368.681 2225.98 371.042 Q2224.06 373.38 2224.06 377.778 L2224.06 391.436 L2219.77 391.436 L2219.77 365.51 L2224.06 365.51 L2224.06 369.538 Q2225.4 367.177 2227.55 366.042 Q2229.7 364.885 2232.78 364.885 Q2233.22 364.885 2233.75 364.954 Q2234.29 365.001 2234.93 365.116 L2234.96 369.491 Z" fill="#000000" fill-rule="evenodd" fill-opacity="1" /></svg>
