<?xml version="1.0" encoding="utf-8"?>
<svg xmlns="http://www.w3.org/2000/svg" xmlns:xlink="http://www.w3.org/1999/xlink" width="600" height="400" viewBox="0 0 2400 1600">
<defs>
  <clipPath id="clip130">
    <rect x="0" y="0" width="2400" height="1600"/>
  </clipPath>
</defs>
<path clip-path="url(#clip130)" d="
M0 1600 L2400 1600 L2400 0 L0 0  Z
  " fill="#ffffff" fill-rule="evenodd" fill-opacity="1"/>
<defs>
  <clipPath id="clip131">
    <rect x="480" y="0" width="1681" height="1600"/>
  </clipPath>
</defs>
<path clip-path="url(#clip130)" d="
M339.542 1423.18 L2352.76 1423.18 L2352.76 123.472 L339.542 123.472  Z
  " fill="#ffffff" fill-rule="evenodd" fill-opacity="1"/>
<defs>
  <clipPath id="clip132">
    <rect x="339" y="123" width="2014" height="1301"/>
  </clipPath>
</defs>
<polyline clip-path="url(#clip132)" style="stroke:#000000; stroke-linecap:butt; stroke-linejoin:round; stroke-width:2; stroke-opacity:0.1; fill:none" points="
  396.519,1423.18 396.519,123.472 
  "/>
<polyline clip-path="url(#clip132)" style="stroke:#000000; stroke-linecap:butt; stroke-linejoin:round; stroke-width:2; stroke-opacity:0.1; fill:none" points="
  713.062,1423.18 713.062,123.472 
  "/>
<polyline clip-path="url(#clip132)" style="stroke:#000000; stroke-linecap:butt; stroke-linejoin:round; stroke-width:2; stroke-opacity:0.1; fill:none" points="
  1029.61,1423.18 1029.61,123.472 
  "/>
<polyline clip-path="url(#clip132)" style="stroke:#000000; stroke-linecap:butt; stroke-linejoin:round; stroke-width:2; stroke-opacity:0.1; fill:none" points="
  1346.15,1423.18 1346.15,123.472 
  "/>
<polyline clip-path="url(#clip132)" style="stroke:#000000; stroke-linecap:butt; stroke-linejoin:round; stroke-width:2; stroke-opacity:0.1; fill:none" points="
  1662.69,1423.18 1662.69,123.472 
  "/>
<polyline clip-path="url(#clip132)" style="stroke:#000000; stroke-linecap:butt; stroke-linejoin:round; stroke-width:2; stroke-opacity:0.1; fill:none" points="
  1979.24,1423.18 1979.24,123.472 
  "/>
<polyline clip-path="url(#clip132)" style="stroke:#000000; stroke-linecap:butt; stroke-linejoin:round; stroke-width:2; stroke-opacity:0.1; fill:none" points="
  2295.78,1423.18 2295.78,123.472 
  "/>
<polyline clip-path="url(#clip130)" style="stroke:#000000; stroke-linecap:butt; stroke-linejoin:round; stroke-width:4; stroke-opacity:1; fill:none" points="
  339.542,1423.18 2352.76,1423.18 
  "/>
<polyline clip-path="url(#clip130)" style="stroke:#000000; stroke-linecap:butt; stroke-linejoin:round; stroke-width:4; stroke-opacity:1; fill:none" points="
  396.519,1423.18 396.519,1404.28 
  "/>
<polyline clip-path="url(#clip130)" style="stroke:#000000; stroke-linecap:butt; stroke-linejoin:round; stroke-width:4; stroke-opacity:1; fill:none" points="
  713.062,1423.18 713.062,1404.28 
  "/>
<polyline clip-path="url(#clip130)" style="stroke:#000000; stroke-linecap:butt; stroke-linejoin:round; stroke-width:4; stroke-opacity:1; fill:none" points="
  1029.61,1423.18 1029.61,1404.28 
  "/>
<polyline clip-path="url(#clip130)" style="stroke:#000000; stroke-linecap:butt; stroke-linejoin:round; stroke-width:4; stroke-opacity:1; fill:none" points="
  1346.15,1423.18 1346.15,1404.28 
  "/>
<polyline clip-path="url(#clip130)" style="stroke:#000000; stroke-linecap:butt; stroke-linejoin:round; stroke-width:4; stroke-opacity:1; fill:none" points="
  1662.69,1423.18 1662.69,1404.28 
  "/>
<polyline clip-path="url(#clip130)" style="stroke:#000000; stroke-linecap:butt; stroke-linejoin:round; stroke-width:4; stroke-opacity:1; fill:none" points="
  1979.24,1423.18 1979.24,1404.28 
  "/>
<polyline clip-path="url(#clip130)" style="stroke:#000000; stroke-linecap:butt; stroke-linejoin:round; stroke-width:4; stroke-opacity:1; fill:none" points="
  2295.78,1423.18 2295.78,1404.28 
  "/>
<path clip-path="url(#clip130)" d="M396.519 1454.1 Q392.908 1454.1 391.08 1457.66 Q389.274 1461.2 389.274 1468.33 Q389.274 1475.44 391.08 1479.01 Q392.908 1482.55 396.519 1482.55 Q400.154 1482.55 401.959 1479.01 Q403.788 1475.44 403.788 1468.33 Q403.788 1461.2 401.959 1457.66 Q400.154 1454.1 396.519 1454.1 M396.519 1450.39 Q402.329 1450.39 405.385 1455 Q408.464 1459.58 408.464 1468.33 Q408.464 1477.06 405.385 1481.67 Q402.329 1486.25 396.519 1486.25 Q390.709 1486.25 387.63 1481.67 Q384.575 1477.06 384.575 1468.33 Q384.575 1459.58 387.63 1455 Q390.709 1450.39 396.519 1450.39 Z" fill="#000000" fill-rule="evenodd" fill-opacity="1" /><path clip-path="url(#clip130)" d="M672.669 1481.64 L680.308 1481.64 L680.308 1455.28 L671.998 1456.95 L671.998 1452.69 L680.262 1451.02 L684.938 1451.02 L684.938 1481.64 L692.576 1481.64 L692.576 1485.58 L672.669 1485.58 L672.669 1481.64 Z" fill="#000000" fill-rule="evenodd" fill-opacity="1" /><path clip-path="url(#clip130)" d="M712.021 1454.1 Q708.41 1454.1 706.581 1457.66 Q704.775 1461.2 704.775 1468.33 Q704.775 1475.44 706.581 1479.01 Q708.41 1482.55 712.021 1482.55 Q715.655 1482.55 717.461 1479.01 Q719.289 1475.44 719.289 1468.33 Q719.289 1461.2 717.461 1457.66 Q715.655 1454.1 712.021 1454.1 M712.021 1450.39 Q717.831 1450.39 720.886 1455 Q723.965 1459.58 723.965 1468.33 Q723.965 1477.06 720.886 1481.67 Q717.831 1486.25 712.021 1486.25 Q706.211 1486.25 703.132 1481.67 Q700.076 1477.06 700.076 1468.33 Q700.076 1459.58 703.132 1455 Q706.211 1450.39 712.021 1450.39 Z" fill="#000000" fill-rule="evenodd" fill-opacity="1" /><path clip-path="url(#clip130)" d="M742.183 1454.1 Q738.572 1454.1 736.743 1457.66 Q734.937 1461.2 734.937 1468.33 Q734.937 1475.44 736.743 1479.01 Q738.572 1482.55 742.183 1482.55 Q745.817 1482.55 747.622 1479.01 Q749.451 1475.44 749.451 1468.33 Q749.451 1461.2 747.622 1457.66 Q745.817 1454.1 742.183 1454.1 M742.183 1450.39 Q747.993 1450.39 751.048 1455 Q754.127 1459.58 754.127 1468.33 Q754.127 1477.06 751.048 1481.67 Q747.993 1486.25 742.183 1486.25 Q736.373 1486.25 733.294 1481.67 Q730.238 1477.06 730.238 1468.33 Q730.238 1459.58 733.294 1455 Q736.373 1450.39 742.183 1450.39 Z" fill="#000000" fill-rule="evenodd" fill-opacity="1" /><path clip-path="url(#clip130)" d="M993.298 1481.64 L1009.62 1481.64 L1009.62 1485.58 L987.673 1485.58 L987.673 1481.64 Q990.335 1478.89 994.918 1474.26 Q999.525 1469.61 1000.71 1468.27 Q1002.95 1465.74 1003.83 1464.01 Q1004.73 1462.25 1004.73 1460.56 Q1004.73 1457.8 1002.79 1456.07 Q1000.87 1454.33 997.765 1454.33 Q995.566 1454.33 993.113 1455.09 Q990.682 1455.86 987.904 1457.41 L987.904 1452.69 Q990.728 1451.55 993.182 1450.97 Q995.636 1450.39 997.673 1450.39 Q1003.04 1450.39 1006.24 1453.08 Q1009.43 1455.77 1009.43 1460.26 Q1009.43 1462.39 1008.62 1464.31 Q1007.83 1466.2 1005.73 1468.8 Q1005.15 1469.47 1002.05 1472.69 Q998.946 1475.88 993.298 1481.64 Z" fill="#000000" fill-rule="evenodd" fill-opacity="1" /><path clip-path="url(#clip130)" d="M1029.43 1454.1 Q1025.82 1454.1 1023.99 1457.66 Q1022.19 1461.2 1022.19 1468.33 Q1022.19 1475.44 1023.99 1479.01 Q1025.82 1482.55 1029.43 1482.55 Q1033.07 1482.55 1034.87 1479.01 Q1036.7 1475.44 1036.7 1468.33 Q1036.7 1461.2 1034.87 1457.66 Q1033.07 1454.1 1029.43 1454.1 M1029.43 1450.39 Q1035.24 1450.39 1038.3 1455 Q1041.38 1459.58 1041.38 1468.33 Q1041.38 1477.06 1038.3 1481.67 Q1035.24 1486.25 1029.43 1486.25 Q1023.62 1486.25 1020.54 1481.67 Q1017.49 1477.06 1017.49 1468.33 Q1017.49 1459.58 1020.54 1455 Q1023.62 1450.39 1029.43 1450.39 Z" fill="#000000" fill-rule="evenodd" fill-opacity="1" /><path clip-path="url(#clip130)" d="M1059.59 1454.1 Q1055.98 1454.1 1054.15 1457.66 Q1052.35 1461.2 1052.35 1468.33 Q1052.35 1475.44 1054.15 1479.01 Q1055.98 1482.55 1059.59 1482.55 Q1063.23 1482.55 1065.03 1479.01 Q1066.86 1475.44 1066.86 1468.33 Q1066.86 1461.2 1065.03 1457.66 Q1063.23 1454.1 1059.59 1454.1 M1059.59 1450.39 Q1065.4 1450.39 1068.46 1455 Q1071.54 1459.58 1071.54 1468.33 Q1071.54 1477.06 1068.46 1481.67 Q1065.4 1486.25 1059.59 1486.25 Q1053.78 1486.25 1050.71 1481.67 Q1047.65 1477.06 1047.65 1468.33 Q1047.65 1459.58 1050.71 1455 Q1053.78 1450.39 1059.59 1450.39 Z" fill="#000000" fill-rule="evenodd" fill-opacity="1" /><path clip-path="url(#clip130)" d="M1319.91 1466.95 Q1323.27 1467.66 1325.14 1469.93 Q1327.04 1472.2 1327.04 1475.53 Q1327.04 1480.65 1323.52 1483.45 Q1320 1486.25 1313.52 1486.25 Q1311.35 1486.25 1309.03 1485.81 Q1306.74 1485.39 1304.29 1484.54 L1304.29 1480.02 Q1306.23 1481.16 1308.54 1481.74 Q1310.86 1482.32 1313.38 1482.32 Q1317.78 1482.32 1320.07 1480.58 Q1322.39 1478.84 1322.39 1475.53 Q1322.39 1472.48 1320.23 1470.77 Q1318.1 1469.03 1314.29 1469.03 L1310.26 1469.03 L1310.26 1465.19 L1314.47 1465.19 Q1317.92 1465.19 1319.75 1463.82 Q1321.58 1462.43 1321.58 1459.84 Q1321.58 1457.18 1319.68 1455.77 Q1317.8 1454.33 1314.29 1454.33 Q1312.36 1454.33 1310.17 1454.75 Q1307.97 1455.16 1305.33 1456.04 L1305.33 1451.88 Q1307.99 1451.14 1310.3 1450.77 Q1312.64 1450.39 1314.7 1450.39 Q1320.03 1450.39 1323.13 1452.83 Q1326.23 1455.23 1326.23 1459.35 Q1326.23 1462.22 1324.59 1464.21 Q1322.94 1466.18 1319.91 1466.95 Z" fill="#000000" fill-rule="evenodd" fill-opacity="1" /><path clip-path="url(#clip130)" d="M1345.91 1454.1 Q1342.29 1454.1 1340.47 1457.66 Q1338.66 1461.2 1338.66 1468.33 Q1338.66 1475.44 1340.47 1479.01 Q1342.29 1482.55 1345.91 1482.55 Q1349.54 1482.55 1351.35 1479.01 Q1353.17 1475.44 1353.17 1468.33 Q1353.17 1461.2 1351.35 1457.66 Q1349.54 1454.1 1345.91 1454.1 M1345.91 1450.39 Q1351.72 1450.39 1354.77 1455 Q1357.85 1459.58 1357.85 1468.33 Q1357.85 1477.06 1354.77 1481.67 Q1351.72 1486.25 1345.91 1486.25 Q1340.1 1486.25 1337.02 1481.67 Q1333.96 1477.06 1333.96 1468.33 Q1333.96 1459.58 1337.02 1455 Q1340.1 1450.39 1345.91 1450.39 Z" fill="#000000" fill-rule="evenodd" fill-opacity="1" /><path clip-path="url(#clip130)" d="M1376.07 1454.1 Q1372.46 1454.1 1370.63 1457.66 Q1368.82 1461.2 1368.82 1468.33 Q1368.82 1475.44 1370.63 1479.01 Q1372.46 1482.55 1376.07 1482.55 Q1379.7 1482.55 1381.51 1479.01 Q1383.34 1475.44 1383.34 1468.33 Q1383.34 1461.2 1381.51 1457.66 Q1379.7 1454.1 1376.07 1454.1 M1376.07 1450.39 Q1381.88 1450.39 1384.93 1455 Q1388.01 1459.58 1388.01 1468.33 Q1388.01 1477.06 1384.93 1481.67 Q1381.88 1486.25 1376.07 1486.25 Q1370.26 1486.25 1367.18 1481.67 Q1364.12 1477.06 1364.12 1468.33 Q1364.12 1459.58 1367.18 1455 Q1370.26 1450.39 1376.07 1450.39 Z" fill="#000000" fill-rule="evenodd" fill-opacity="1" /><path clip-path="url(#clip130)" d="M1635.78 1455.09 L1623.98 1473.54 L1635.78 1473.54 L1635.78 1455.09 M1634.56 1451.02 L1640.44 1451.02 L1640.44 1473.54 L1645.37 1473.54 L1645.37 1477.43 L1640.44 1477.43 L1640.44 1485.58 L1635.78 1485.58 L1635.78 1477.43 L1620.18 1477.43 L1620.18 1472.92 L1634.56 1451.02 Z" fill="#000000" fill-rule="evenodd" fill-opacity="1" /><path clip-path="url(#clip130)" d="M1663.1 1454.1 Q1659.49 1454.1 1657.66 1457.66 Q1655.85 1461.2 1655.85 1468.33 Q1655.85 1475.44 1657.66 1479.01 Q1659.49 1482.55 1663.1 1482.55 Q1666.73 1482.55 1668.54 1479.01 Q1670.37 1475.44 1670.37 1468.33 Q1670.37 1461.2 1668.54 1457.66 Q1666.73 1454.1 1663.1 1454.1 M1663.1 1450.39 Q1668.91 1450.39 1671.96 1455 Q1675.04 1459.58 1675.04 1468.33 Q1675.04 1477.06 1671.96 1481.67 Q1668.91 1486.25 1663.1 1486.25 Q1657.29 1486.25 1654.21 1481.67 Q1651.15 1477.06 1651.15 1468.33 Q1651.15 1459.58 1654.21 1455 Q1657.29 1450.39 1663.1 1450.39 Z" fill="#000000" fill-rule="evenodd" fill-opacity="1" /><path clip-path="url(#clip130)" d="M1693.26 1454.1 Q1689.65 1454.1 1687.82 1457.66 Q1686.01 1461.2 1686.01 1468.33 Q1686.01 1475.44 1687.82 1479.01 Q1689.65 1482.55 1693.26 1482.55 Q1696.89 1482.55 1698.7 1479.01 Q1700.53 1475.44 1700.53 1468.33 Q1700.53 1461.2 1698.7 1457.66 Q1696.89 1454.1 1693.26 1454.1 M1693.26 1450.39 Q1699.07 1450.39 1702.12 1455 Q1705.2 1459.58 1705.2 1468.33 Q1705.2 1477.06 1702.12 1481.67 Q1699.07 1486.25 1693.26 1486.25 Q1687.45 1486.25 1684.37 1481.67 Q1681.31 1477.06 1681.31 1468.33 Q1681.31 1459.58 1684.37 1455 Q1687.45 1450.39 1693.26 1450.39 Z" fill="#000000" fill-rule="evenodd" fill-opacity="1" /><path clip-path="url(#clip130)" d="M1938.85 1451.02 L1957.21 1451.02 L1957.21 1454.96 L1943.14 1454.96 L1943.14 1463.43 Q1944.15 1463.08 1945.17 1462.92 Q1946.19 1462.73 1947.21 1462.73 Q1953 1462.73 1956.38 1465.9 Q1959.76 1469.08 1959.76 1474.49 Q1959.76 1480.07 1956.28 1483.17 Q1952.81 1486.25 1946.49 1486.25 Q1944.32 1486.25 1942.05 1485.88 Q1939.8 1485.51 1937.39 1484.77 L1937.39 1480.07 Q1939.48 1481.2 1941.7 1481.76 Q1943.92 1482.32 1946.4 1482.32 Q1950.4 1482.32 1952.74 1480.21 Q1955.08 1478.1 1955.08 1474.49 Q1955.08 1470.88 1952.74 1468.77 Q1950.4 1466.67 1946.4 1466.67 Q1944.52 1466.67 1942.65 1467.08 Q1940.8 1467.5 1938.85 1468.38 L1938.85 1451.02 Z" fill="#000000" fill-rule="evenodd" fill-opacity="1" /><path clip-path="url(#clip130)" d="M1978.97 1454.1 Q1975.36 1454.1 1973.53 1457.66 Q1971.72 1461.2 1971.72 1468.33 Q1971.72 1475.44 1973.53 1479.01 Q1975.36 1482.55 1978.97 1482.55 Q1982.6 1482.55 1984.41 1479.01 Q1986.24 1475.44 1986.24 1468.33 Q1986.24 1461.2 1984.41 1457.66 Q1982.6 1454.1 1978.97 1454.1 M1978.97 1450.39 Q1984.78 1450.39 1987.83 1455 Q1990.91 1459.58 1990.91 1468.33 Q1990.91 1477.06 1987.83 1481.67 Q1984.78 1486.25 1978.97 1486.25 Q1973.16 1486.25 1970.08 1481.67 Q1967.02 1477.06 1967.02 1468.33 Q1967.02 1459.58 1970.08 1455 Q1973.16 1450.39 1978.97 1450.39 Z" fill="#000000" fill-rule="evenodd" fill-opacity="1" /><path clip-path="url(#clip130)" d="M2009.13 1454.1 Q2005.52 1454.1 2003.69 1457.66 Q2001.89 1461.2 2001.89 1468.33 Q2001.89 1475.44 2003.69 1479.01 Q2005.52 1482.55 2009.13 1482.55 Q2012.76 1482.55 2014.57 1479.01 Q2016.4 1475.44 2016.4 1468.33 Q2016.4 1461.2 2014.57 1457.66 Q2012.76 1454.1 2009.13 1454.1 M2009.13 1450.39 Q2014.94 1450.39 2018 1455 Q2021.08 1459.58 2021.08 1468.33 Q2021.08 1477.06 2018 1481.67 Q2014.94 1486.25 2009.13 1486.25 Q2003.32 1486.25 2000.24 1481.67 Q1997.19 1477.06 1997.19 1468.33 Q1997.19 1459.58 2000.24 1455 Q2003.32 1450.39 2009.13 1450.39 Z" fill="#000000" fill-rule="evenodd" fill-opacity="1" /><path clip-path="url(#clip130)" d="M2266.1 1466.44 Q2262.95 1466.44 2261.1 1468.59 Q2259.27 1470.74 2259.27 1474.49 Q2259.27 1478.22 2261.1 1480.39 Q2262.95 1482.55 2266.1 1482.55 Q2269.25 1482.55 2271.08 1480.39 Q2272.93 1478.22 2272.93 1474.49 Q2272.93 1470.74 2271.08 1468.59 Q2269.25 1466.44 2266.1 1466.44 M2275.38 1451.78 L2275.38 1456.04 Q2273.63 1455.21 2271.82 1454.77 Q2270.04 1454.33 2268.28 1454.33 Q2263.65 1454.33 2261.19 1457.45 Q2258.76 1460.58 2258.42 1466.9 Q2259.78 1464.89 2261.84 1463.82 Q2263.9 1462.73 2266.38 1462.73 Q2271.59 1462.73 2274.6 1465.9 Q2277.63 1469.05 2277.63 1474.49 Q2277.63 1479.82 2274.48 1483.03 Q2271.33 1486.25 2266.1 1486.25 Q2260.11 1486.25 2256.94 1481.67 Q2253.76 1477.06 2253.76 1468.33 Q2253.76 1460.14 2257.65 1455.28 Q2261.54 1450.39 2268.09 1450.39 Q2269.85 1450.39 2271.63 1450.74 Q2273.44 1451.09 2275.38 1451.78 Z" fill="#000000" fill-rule="evenodd" fill-opacity="1" /><path clip-path="url(#clip130)" d="M2295.69 1454.1 Q2292.07 1454.1 2290.25 1457.66 Q2288.44 1461.2 2288.44 1468.33 Q2288.44 1475.44 2290.25 1479.01 Q2292.07 1482.55 2295.69 1482.55 Q2299.32 1482.55 2301.13 1479.01 Q2302.95 1475.44 2302.95 1468.33 Q2302.95 1461.2 2301.13 1457.66 Q2299.32 1454.1 2295.69 1454.1 M2295.69 1450.39 Q2301.5 1450.39 2304.55 1455 Q2307.63 1459.58 2307.63 1468.33 Q2307.63 1477.06 2304.55 1481.67 Q2301.5 1486.25 2295.69 1486.25 Q2289.88 1486.25 2286.8 1481.67 Q2283.74 1477.06 2283.74 1468.33 Q2283.74 1459.58 2286.8 1455 Q2289.88 1450.39 2295.69 1450.39 Z" fill="#000000" fill-rule="evenodd" fill-opacity="1" /><path clip-path="url(#clip130)" d="M2325.85 1454.1 Q2322.24 1454.1 2320.41 1457.66 Q2318.6 1461.2 2318.6 1468.33 Q2318.6 1475.44 2320.41 1479.01 Q2322.24 1482.55 2325.85 1482.55 Q2329.48 1482.55 2331.29 1479.01 Q2333.12 1475.44 2333.12 1468.33 Q2333.12 1461.2 2331.29 1457.66 Q2329.48 1454.1 2325.85 1454.1 M2325.85 1450.39 Q2331.66 1450.39 2334.71 1455 Q2337.79 1459.58 2337.79 1468.33 Q2337.79 1477.06 2334.71 1481.67 Q2331.66 1486.25 2325.85 1486.25 Q2320.04 1486.25 2316.96 1481.67 Q2313.9 1477.06 2313.9 1468.33 Q2313.9 1459.58 2316.96 1455 Q2320.04 1450.39 2325.85 1450.39 Z" fill="#000000" fill-rule="evenodd" fill-opacity="1" /><path clip-path="url(#clip130)" d="M1233.6 1522.27 L1233.6 1532.4 L1245.67 1532.4 L1245.67 1536.95 L1233.6 1536.95 L1233.6 1556.3 Q1233.6 1560.66 1234.78 1561.9 Q1235.99 1563.14 1239.65 1563.14 L1245.67 1563.14 L1245.67 1568.04 L1239.65 1568.04 Q1232.87 1568.04 1230.29 1565.53 Q1227.71 1562.98 1227.71 1556.3 L1227.71 1536.95 L1223.42 1536.95 L1223.42 1532.4 L1227.71 1532.4 L1227.71 1522.27 L1233.6 1522.27 Z" fill="#000000" fill-rule="evenodd" fill-opacity="1" /><path clip-path="url(#clip130)" d="M1253.37 1532.4 L1259.23 1532.4 L1259.23 1568.04 L1253.37 1568.04 L1253.37 1532.4 M1253.37 1518.52 L1259.23 1518.52 L1259.23 1525.93 L1253.37 1525.93 L1253.37 1518.52 Z" fill="#000000" fill-rule="evenodd" fill-opacity="1" /><path clip-path="url(#clip130)" d="M1299.23 1539.24 Q1301.43 1535.29 1304.49 1533.41 Q1307.54 1531.54 1311.68 1531.54 Q1317.25 1531.54 1320.27 1535.45 Q1323.3 1539.33 1323.3 1546.53 L1323.3 1568.04 L1317.41 1568.04 L1317.41 1546.72 Q1317.41 1541.59 1315.59 1539.11 Q1313.78 1536.63 1310.06 1536.63 Q1305.5 1536.63 1302.86 1539.65 Q1300.22 1542.68 1300.22 1547.9 L1300.22 1568.04 L1294.33 1568.04 L1294.33 1546.72 Q1294.33 1541.56 1292.52 1539.11 Q1290.7 1536.63 1286.92 1536.63 Q1282.43 1536.63 1279.79 1539.68 Q1277.14 1542.71 1277.14 1547.9 L1277.14 1568.04 L1271.26 1568.04 L1271.26 1532.4 L1277.14 1532.4 L1277.14 1537.93 Q1279.15 1534.66 1281.95 1533.1 Q1284.75 1531.54 1288.6 1531.54 Q1292.49 1531.54 1295.19 1533.51 Q1297.93 1535.48 1299.23 1539.24 Z" fill="#000000" fill-rule="evenodd" fill-opacity="1" /><path clip-path="url(#clip130)" d="M1365.47 1548.76 L1365.47 1551.62 L1338.54 1551.62 Q1338.92 1557.67 1342.17 1560.85 Q1345.45 1564 1351.27 1564 Q1354.65 1564 1357.8 1563.17 Q1360.98 1562.35 1364.1 1560.69 L1364.1 1566.23 Q1360.95 1567.57 1357.64 1568.27 Q1354.33 1568.97 1350.92 1568.97 Q1342.39 1568.97 1337.4 1564 Q1332.43 1559.04 1332.43 1550.57 Q1332.43 1541.82 1337.14 1536.69 Q1341.88 1531.54 1349.9 1531.54 Q1357.1 1531.54 1361.27 1536.18 Q1365.47 1540.8 1365.47 1548.76 M1359.61 1547.04 Q1359.55 1542.23 1356.91 1539.37 Q1354.3 1536.5 1349.97 1536.5 Q1345.07 1536.5 1342.11 1539.27 Q1339.18 1542.04 1338.73 1547.07 L1359.61 1547.04 Z" fill="#000000" fill-rule="evenodd" fill-opacity="1" /><path clip-path="url(#clip130)" d="M1409.87 1518.58 Q1405.6 1525.9 1403.54 1533.06 Q1401.47 1540.23 1401.47 1547.58 Q1401.47 1554.93 1403.54 1562.16 Q1405.64 1569.35 1409.87 1576.64 L1404.78 1576.64 Q1400 1569.16 1397.62 1561.93 Q1395.26 1554.71 1395.26 1547.58 Q1395.26 1540.48 1397.62 1533.29 Q1399.97 1526.09 1404.78 1518.58 L1409.87 1518.58 Z" fill="#000000" fill-rule="evenodd" fill-opacity="1" /><path clip-path="url(#clip130)" d="M1443.96 1533.45 L1443.96 1538.98 Q1441.48 1537.71 1438.8 1537.07 Q1436.13 1536.44 1433.26 1536.44 Q1428.9 1536.44 1426.71 1537.77 Q1424.54 1539.11 1424.54 1541.79 Q1424.54 1543.82 1426.1 1545 Q1427.66 1546.15 1432.37 1547.2 L1434.38 1547.64 Q1440.62 1548.98 1443.23 1551.43 Q1445.87 1553.85 1445.87 1558.21 Q1445.87 1563.17 1441.92 1566.07 Q1438.01 1568.97 1431.13 1568.97 Q1428.27 1568.97 1425.15 1568.39 Q1422.06 1567.85 1418.62 1566.74 L1418.62 1560.69 Q1421.87 1562.38 1425.02 1563.24 Q1428.17 1564.07 1431.26 1564.07 Q1435.4 1564.07 1437.62 1562.66 Q1439.85 1561.23 1439.85 1558.65 Q1439.85 1556.27 1438.23 1554.99 Q1436.64 1553.72 1431.19 1552.54 L1429.16 1552.07 Q1423.71 1550.92 1421.3 1548.56 Q1418.88 1546.18 1418.88 1542.04 Q1418.88 1537.01 1422.44 1534.27 Q1426.01 1531.54 1432.56 1531.54 Q1435.81 1531.54 1438.67 1532.01 Q1441.54 1532.49 1443.96 1533.45 Z" fill="#000000" fill-rule="evenodd" fill-opacity="1" /><path clip-path="url(#clip130)" d="M1454.27 1518.58 L1459.36 1518.58 Q1464.14 1526.09 1466.49 1533.29 Q1468.88 1540.48 1468.88 1547.58 Q1468.88 1554.71 1466.49 1561.93 Q1464.14 1569.16 1459.36 1576.64 L1454.27 1576.64 Q1458.5 1569.35 1460.57 1562.16 Q1462.67 1554.93 1462.67 1547.58 Q1462.67 1540.23 1460.57 1533.06 Q1458.5 1525.9 1454.27 1518.58 Z" fill="#000000" fill-rule="evenodd" fill-opacity="1" /><polyline clip-path="url(#clip132)" style="stroke:#000000; stroke-linecap:butt; stroke-linejoin:round; stroke-width:2; stroke-opacity:0.1; fill:none" points="
  339.542,1398.46 2352.76,1398.46 
  "/>
<polyline clip-path="url(#clip132)" style="stroke:#000000; stroke-linecap:butt; stroke-linejoin:round; stroke-width:2; stroke-opacity:0.1; fill:none" points="
  339.542,1008.32 2352.76,1008.32 
  "/>
<polyline clip-path="url(#clip132)" style="stroke:#000000; stroke-linecap:butt; stroke-linejoin:round; stroke-width:2; stroke-opacity:0.1; fill:none" points="
  339.542,618.174 2352.76,618.174 
  "/>
<polyline clip-path="url(#clip132)" style="stroke:#000000; stroke-linecap:butt; stroke-linejoin:round; stroke-width:2; stroke-opacity:0.1; fill:none" points="
  339.542,228.032 2352.76,228.032 
  "/>
<polyline clip-path="url(#clip130)" style="stroke:#000000; stroke-linecap:butt; stroke-linejoin:round; stroke-width:4; stroke-opacity:1; fill:none" points="
  339.542,1423.18 339.542,123.472 
  "/>
<polyline clip-path="url(#clip130)" style="stroke:#000000; stroke-linecap:butt; stroke-linejoin:round; stroke-width:4; stroke-opacity:1; fill:none" points="
  339.542,1398.46 358.439,1398.46 
  "/>
<polyline clip-path="url(#clip130)" style="stroke:#000000; stroke-linecap:butt; stroke-linejoin:round; stroke-width:4; stroke-opacity:1; fill:none" points="
  339.542,1008.32 358.439,1008.32 
  "/>
<polyline clip-path="url(#clip130)" style="stroke:#000000; stroke-linecap:butt; stroke-linejoin:round; stroke-width:4; stroke-opacity:1; fill:none" points="
  339.542,618.174 358.439,618.174 
  "/>
<polyline clip-path="url(#clip130)" style="stroke:#000000; stroke-linecap:butt; stroke-linejoin:round; stroke-width:4; stroke-opacity:1; fill:none" points="
  339.542,228.032 358.439,228.032 
  "/>
<path clip-path="url(#clip130)" d="M291.597 1384.26 Q287.986 1384.26 286.157 1387.82 Q284.352 1391.36 284.352 1398.49 Q284.352 1405.6 286.157 1409.16 Q287.986 1412.7 291.597 1412.7 Q295.231 1412.7 297.037 1409.16 Q298.866 1405.6 298.866 1398.49 Q298.866 1391.36 297.037 1387.82 Q295.231 1384.26 291.597 1384.26 M291.597 1380.55 Q297.407 1380.55 300.463 1385.16 Q303.542 1389.74 303.542 1398.49 Q303.542 1407.22 300.463 1411.82 Q297.407 1416.41 291.597 1416.41 Q285.787 1416.41 282.708 1411.82 Q279.653 1407.22 279.653 1398.49 Q279.653 1389.74 282.708 1385.16 Q285.787 1380.55 291.597 1380.55 Z" fill="#000000" fill-rule="evenodd" fill-opacity="1" /><path clip-path="url(#clip130)" d="M116.668 1028.11 L124.306 1028.11 L124.306 1001.74 L115.996 1003.41 L115.996 999.15 L124.26 997.483 L128.936 997.483 L128.936 1028.11 L136.575 1028.11 L136.575 1032.04 L116.668 1032.04 L116.668 1028.11 Z" fill="#000000" fill-rule="evenodd" fill-opacity="1" /><path clip-path="url(#clip130)" d="M146.019 1026.16 L150.903 1026.16 L150.903 1032.04 L146.019 1032.04 L146.019 1026.16 Z" fill="#000000" fill-rule="evenodd" fill-opacity="1" /><path clip-path="url(#clip130)" d="M171.089 1000.56 Q167.477 1000.56 165.649 1004.13 Q163.843 1007.67 163.843 1014.8 Q163.843 1021.9 165.649 1025.47 Q167.477 1029.01 171.089 1029.01 Q174.723 1029.01 176.528 1025.47 Q178.357 1021.9 178.357 1014.8 Q178.357 1007.67 176.528 1004.13 Q174.723 1000.56 171.089 1000.56 M171.089 996.858 Q176.899 996.858 179.954 1001.46 Q183.033 1006.05 183.033 1014.8 Q183.033 1023.52 179.954 1028.13 Q176.899 1032.71 171.089 1032.71 Q165.278 1032.71 162.2 1028.13 Q159.144 1023.52 159.144 1014.8 Q159.144 1006.05 162.2 1001.46 Q165.278 996.858 171.089 996.858 Z" fill="#000000" fill-rule="evenodd" fill-opacity="1" /><path clip-path="url(#clip130)" d="M219.422 1006.58 L208.843 1017.21 L219.422 1027.78 L216.667 1030.58 L206.042 1019.96 L195.417 1030.58 L192.686 1027.78 L203.241 1017.21 L192.686 1006.58 L195.417 1003.78 L206.042 1014.4 L216.667 1003.78 L219.422 1006.58 Z" fill="#000000" fill-rule="evenodd" fill-opacity="1" /><path clip-path="url(#clip130)" d="M231.783 1028.11 L239.422 1028.11 L239.422 1001.74 L231.111 1003.41 L231.111 999.15 L239.375 997.483 L244.051 997.483 L244.051 1028.11 L251.69 1028.11 L251.69 1032.04 L231.783 1032.04 L231.783 1028.11 Z" fill="#000000" fill-rule="evenodd" fill-opacity="1" /><path clip-path="url(#clip130)" d="M271.134 1000.56 Q267.523 1000.56 265.695 1004.13 Q263.889 1007.67 263.889 1014.8 Q263.889 1021.9 265.695 1025.47 Q267.523 1029.01 271.134 1029.01 Q274.769 1029.01 276.574 1025.47 Q278.403 1021.9 278.403 1014.8 Q278.403 1007.67 276.574 1004.13 Q274.769 1000.56 271.134 1000.56 M271.134 996.858 Q276.944 996.858 280 1001.46 Q283.079 1006.05 283.079 1014.8 Q283.079 1023.52 280 1028.13 Q276.944 1032.71 271.134 1032.71 Q265.324 1032.71 262.245 1028.13 Q259.19 1023.52 259.19 1014.8 Q259.19 1006.05 262.245 1001.46 Q265.324 996.858 271.134 996.858 Z" fill="#000000" fill-rule="evenodd" fill-opacity="1" /><path clip-path="url(#clip130)" d="M295.755 979.863 L286.163 994.853 L295.755 994.853 L295.755 979.863 M294.758 976.553 L299.535 976.553 L299.535 994.853 L303.542 994.853 L303.542 998.012 L299.535 998.012 L299.535 1004.63 L295.755 1004.63 L295.755 998.012 L283.079 998.012 L283.079 994.345 L294.758 976.553 Z" fill="#000000" fill-rule="evenodd" fill-opacity="1" /><path clip-path="url(#clip130)" d="M119.885 637.966 L136.204 637.966 L136.204 641.902 L114.26 641.902 L114.26 637.966 Q116.922 635.212 121.505 630.582 Q126.112 625.929 127.292 624.587 Q129.538 622.064 130.417 620.328 Q131.32 618.568 131.32 616.879 Q131.32 614.124 129.376 612.388 Q127.455 610.652 124.353 610.652 Q122.154 610.652 119.7 611.416 Q117.269 612.179 114.492 613.73 L114.492 609.008 Q117.316 607.874 119.769 607.295 Q122.223 606.717 124.26 606.717 Q129.63 606.717 132.825 609.402 Q136.019 612.087 136.019 616.578 Q136.019 618.707 135.209 620.628 Q134.422 622.527 132.316 625.119 Q131.737 625.79 128.635 629.008 Q125.533 632.203 119.885 637.966 Z" fill="#000000" fill-rule="evenodd" fill-opacity="1" /><path clip-path="url(#clip130)" d="M146.019 636.022 L150.903 636.022 L150.903 641.902 L146.019 641.902 L146.019 636.022 Z" fill="#000000" fill-rule="evenodd" fill-opacity="1" /><path clip-path="url(#clip130)" d="M171.089 610.42 Q167.477 610.42 165.649 613.985 Q163.843 617.527 163.843 624.656 Q163.843 631.763 165.649 635.327 Q167.477 638.869 171.089 638.869 Q174.723 638.869 176.528 635.327 Q178.357 631.763 178.357 624.656 Q178.357 617.527 176.528 613.985 Q174.723 610.42 171.089 610.42 M171.089 606.717 Q176.899 606.717 179.954 611.323 Q183.033 615.906 183.033 624.656 Q183.033 633.383 179.954 637.99 Q176.899 642.573 171.089 642.573 Q165.278 642.573 162.2 637.99 Q159.144 633.383 159.144 624.656 Q159.144 615.906 162.2 611.323 Q165.278 606.717 171.089 606.717 Z" fill="#000000" fill-rule="evenodd" fill-opacity="1" /><path clip-path="url(#clip130)" d="M219.422 616.439 L208.843 627.064 L219.422 637.642 L216.667 640.443 L206.042 629.818 L195.417 640.443 L192.686 637.642 L203.241 627.064 L192.686 616.439 L195.417 613.638 L206.042 624.263 L216.667 613.638 L219.422 616.439 Z" fill="#000000" fill-rule="evenodd" fill-opacity="1" /><path clip-path="url(#clip130)" d="M231.783 637.966 L239.422 637.966 L239.422 611.601 L231.111 613.267 L231.111 609.008 L239.375 607.342 L244.051 607.342 L244.051 637.966 L251.69 637.966 L251.69 641.902 L231.783 641.902 L231.783 637.966 Z" fill="#000000" fill-rule="evenodd" fill-opacity="1" /><path clip-path="url(#clip130)" d="M271.134 610.42 Q267.523 610.42 265.695 613.985 Q263.889 617.527 263.889 624.656 Q263.889 631.763 265.695 635.327 Q267.523 638.869 271.134 638.869 Q274.769 638.869 276.574 635.327 Q278.403 631.763 278.403 624.656 Q278.403 617.527 276.574 613.985 Q274.769 610.42 271.134 610.42 M271.134 606.717 Q276.944 606.717 280 611.323 Q283.079 615.906 283.079 624.656 Q283.079 633.383 280 637.99 Q276.944 642.573 271.134 642.573 Q265.324 642.573 262.245 637.99 Q259.19 633.383 259.19 624.656 Q259.19 615.906 262.245 611.323 Q265.324 606.717 271.134 606.717 Z" fill="#000000" fill-rule="evenodd" fill-opacity="1" /><path clip-path="url(#clip130)" d="M295.755 589.721 L286.163 604.711 L295.755 604.711 L295.755 589.721 M294.758 586.411 L299.535 586.411 L299.535 604.711 L303.542 604.711 L303.542 607.871 L299.535 607.871 L299.535 614.491 L295.755 614.491 L295.755 607.871 L283.079 607.871 L283.079 604.203 L294.758 586.411 Z" fill="#000000" fill-rule="evenodd" fill-opacity="1" /><path clip-path="url(#clip130)" d="M130.024 233.126 Q133.38 233.843 135.255 236.112 Q137.154 238.38 137.154 241.714 Q137.154 246.829 133.635 249.63 Q130.117 252.431 123.635 252.431 Q121.459 252.431 119.144 251.991 Q116.853 251.575 114.399 250.718 L114.399 246.204 Q116.343 247.339 118.658 247.917 Q120.973 248.496 123.496 248.496 Q127.894 248.496 130.186 246.76 Q132.501 245.024 132.501 241.714 Q132.501 238.658 130.348 236.945 Q128.218 235.209 124.399 235.209 L120.371 235.209 L120.371 231.367 L124.584 231.367 Q128.033 231.367 129.862 230.001 Q131.691 228.612 131.691 226.019 Q131.691 223.357 129.792 221.945 Q127.917 220.51 124.399 220.51 Q122.478 220.51 120.279 220.927 Q118.08 221.343 115.441 222.223 L115.441 218.056 Q118.103 217.316 120.418 216.945 Q122.755 216.575 124.816 216.575 Q130.14 216.575 133.242 219.006 Q136.343 221.413 136.343 225.533 Q136.343 228.404 134.7 230.394 Q133.056 232.362 130.024 233.126 Z" fill="#000000" fill-rule="evenodd" fill-opacity="1" /><path clip-path="url(#clip130)" d="M146.019 245.88 L150.903 245.88 L150.903 251.76 L146.019 251.76 L146.019 245.88 Z" fill="#000000" fill-rule="evenodd" fill-opacity="1" /><path clip-path="url(#clip130)" d="M171.089 220.279 Q167.477 220.279 165.649 223.843 Q163.843 227.385 163.843 234.515 Q163.843 241.621 165.649 245.186 Q167.477 248.728 171.089 248.728 Q174.723 248.728 176.528 245.186 Q178.357 241.621 178.357 234.515 Q178.357 227.385 176.528 223.843 Q174.723 220.279 171.089 220.279 M171.089 216.575 Q176.899 216.575 179.954 221.181 Q183.033 225.765 183.033 234.515 Q183.033 243.242 179.954 247.848 Q176.899 252.431 171.089 252.431 Q165.278 252.431 162.2 247.848 Q159.144 243.242 159.144 234.515 Q159.144 225.765 162.2 221.181 Q165.278 216.575 171.089 216.575 Z" fill="#000000" fill-rule="evenodd" fill-opacity="1" /><path clip-path="url(#clip130)" d="M219.422 226.297 L208.843 236.922 L219.422 247.501 L216.667 250.302 L206.042 239.677 L195.417 250.302 L192.686 247.501 L203.241 236.922 L192.686 226.297 L195.417 223.496 L206.042 234.121 L216.667 223.496 L219.422 226.297 Z" fill="#000000" fill-rule="evenodd" fill-opacity="1" /><path clip-path="url(#clip130)" d="M231.783 247.825 L239.422 247.825 L239.422 221.459 L231.111 223.126 L231.111 218.867 L239.375 217.2 L244.051 217.2 L244.051 247.825 L251.69 247.825 L251.69 251.76 L231.783 251.76 L231.783 247.825 Z" fill="#000000" fill-rule="evenodd" fill-opacity="1" /><path clip-path="url(#clip130)" d="M271.134 220.279 Q267.523 220.279 265.695 223.843 Q263.889 227.385 263.889 234.515 Q263.889 241.621 265.695 245.186 Q267.523 248.728 271.134 248.728 Q274.769 248.728 276.574 245.186 Q278.403 241.621 278.403 234.515 Q278.403 227.385 276.574 223.843 Q274.769 220.279 271.134 220.279 M271.134 216.575 Q276.944 216.575 280 221.181 Q283.079 225.765 283.079 234.515 Q283.079 243.242 280 247.848 Q276.944 252.431 271.134 252.431 Q265.324 252.431 262.245 247.848 Q259.19 243.242 259.19 234.515 Q259.19 225.765 262.245 221.181 Q265.324 216.575 271.134 216.575 Z" fill="#000000" fill-rule="evenodd" fill-opacity="1" /><path clip-path="url(#clip130)" d="M295.755 199.58 L286.163 214.57 L295.755 214.57 L295.755 199.58 M294.758 196.27 L299.535 196.27 L299.535 214.57 L303.542 214.57 L303.542 217.729 L299.535 217.729 L299.535 224.35 L295.755 224.35 L295.755 217.729 L283.079 217.729 L283.079 214.062 L294.758 196.27 Z" fill="#000000" fill-rule="evenodd" fill-opacity="1" /><path clip-path="url(#clip130)" d="M18.2347 1202.53 L28.3562 1202.53 L28.3562 1190.47 L32.9077 1190.47 L32.9077 1202.53 L52.2594 1202.53 Q56.6199 1202.53 57.8613 1201.36 Q59.1026 1200.15 59.1026 1196.49 L59.1026 1190.47 L64.0042 1190.47 L64.0042 1196.49 Q64.0042 1203.27 61.4897 1205.84 Q58.9434 1208.42 52.2594 1208.42 L32.9077 1208.42 L32.9077 1212.72 L28.3562 1212.72 L28.3562 1208.42 L18.2347 1208.42 L18.2347 1202.53 Z" fill="#000000" fill-rule="evenodd" fill-opacity="1" /><path clip-path="url(#clip130)" d="M32.4621 1168.95 Q32.4621 1173.67 36.1542 1176.4 Q39.8145 1179.14 46.212 1179.14 Q52.6095 1179.14 56.3017 1176.43 Q59.9619 1173.7 59.9619 1168.95 Q59.9619 1164.28 56.2698 1161.54 Q52.5777 1158.8 46.212 1158.8 Q39.8781 1158.8 36.186 1161.54 Q32.4621 1164.28 32.4621 1168.95 M27.4968 1168.95 Q27.4968 1161.32 32.4621 1156.96 Q37.4273 1152.59 46.212 1152.59 Q54.9649 1152.59 59.9619 1156.96 Q64.9272 1161.32 64.9272 1168.95 Q64.9272 1176.63 59.9619 1180.99 Q54.9649 1185.31 46.212 1185.31 Q37.4273 1185.31 32.4621 1180.99 Q27.4968 1176.63 27.4968 1168.95 Z" fill="#000000" fill-rule="evenodd" fill-opacity="1" /><path clip-path="url(#clip130)" d="M18.2347 1137.09 L28.3562 1137.09 L28.3562 1125.03 L32.9077 1125.03 L32.9077 1137.09 L52.2594 1137.09 Q56.6199 1137.09 57.8613 1135.92 Q59.1026 1134.71 59.1026 1131.05 L59.1026 1125.03 L64.0042 1125.03 L64.0042 1131.05 Q64.0042 1137.83 61.4897 1140.4 Q58.9434 1142.98 52.2594 1142.98 L32.9077 1142.98 L32.9077 1147.28 L28.3562 1147.28 L28.3562 1142.98 L18.2347 1142.98 L18.2347 1137.09 Z" fill="#000000" fill-rule="evenodd" fill-opacity="1" /><path clip-path="url(#clip130)" d="M46.0847 1101.13 Q46.0847 1108.23 47.7079 1110.96 Q49.3312 1113.7 53.2461 1113.7 Q56.3653 1113.7 58.2114 1111.66 Q60.0256 1109.59 60.0256 1106.06 Q60.0256 1101.19 56.5881 1098.26 Q53.1188 1095.3 47.3897 1095.3 L46.0847 1095.3 L46.0847 1101.13 M43.6657 1089.45 L64.0042 1089.45 L64.0042 1095.3 L58.5933 1095.3 Q61.8398 1097.31 63.3994 1100.3 Q64.9272 1103.29 64.9272 1107.62 Q64.9272 1113.1 61.8716 1116.34 Q58.7843 1119.56 53.6281 1119.56 Q47.6125 1119.56 44.5569 1115.55 Q41.5014 1111.5 41.5014 1103.52 L41.5014 1095.3 L40.9285 1095.3 Q36.8862 1095.3 34.6901 1097.98 Q32.4621 1100.62 32.4621 1105.42 Q32.4621 1108.48 33.1941 1111.38 Q33.9262 1114.27 35.3903 1116.95 L29.9795 1116.95 Q28.7381 1113.73 28.1334 1110.71 Q27.4968 1107.68 27.4968 1104.82 Q27.4968 1097.09 31.5072 1093.27 Q35.5176 1089.45 43.6657 1089.45 Z" fill="#000000" fill-rule="evenodd" fill-opacity="1" /><path clip-path="url(#clip130)" d="M14.479 1077.38 L14.479 1071.53 L64.0042 1071.53 L64.0042 1077.38 L14.479 1077.38 Z" fill="#000000" fill-rule="evenodd" fill-opacity="1" /><path clip-path="url(#clip130)" d="M46.0847 1022.35 Q46.0847 1029.45 47.7079 1032.19 Q49.3312 1034.92 53.2461 1034.92 Q56.3653 1034.92 58.2114 1032.89 Q60.0256 1030.82 60.0256 1027.29 Q60.0256 1022.42 56.5881 1019.49 Q53.1188 1016.53 47.3897 1016.53 L46.0847 1016.53 L46.0847 1022.35 M43.6657 1010.67 L64.0042 1010.67 L64.0042 1016.53 L58.5933 1016.53 Q61.8398 1018.53 63.3994 1021.52 Q64.9272 1024.52 64.9272 1028.85 Q64.9272 1034.32 61.8716 1037.57 Q58.7843 1040.78 53.6281 1040.78 Q47.6125 1040.78 44.5569 1036.77 Q41.5014 1032.73 41.5014 1024.74 L41.5014 1016.53 L40.9285 1016.53 Q36.8862 1016.53 34.6901 1019.2 Q32.4621 1021.84 32.4621 1026.65 Q32.4621 1029.7 33.1941 1032.6 Q33.9262 1035.5 35.3903 1038.17 L29.9795 1038.17 Q28.7381 1034.96 28.1334 1031.93 Q27.4968 1028.91 27.4968 1026.04 Q27.4968 1018.31 31.5072 1014.49 Q35.5176 1010.67 43.6657 1010.67 Z" fill="#000000" fill-rule="evenodd" fill-opacity="1" /><path clip-path="url(#clip130)" d="M28.3562 998.608 L28.3562 992.752 L64.0042 992.752 L64.0042 998.608 L28.3562 998.608 M14.479 998.608 L14.479 992.752 L21.895 992.752 L21.895 998.608 L14.479 998.608 Z" fill="#000000" fill-rule="evenodd" fill-opacity="1" /><path clip-path="url(#clip130)" d="M33.8307 959.841 Q33.2578 960.828 33.0032 962.006 Q32.7167 963.151 32.7167 964.552 Q32.7167 969.517 35.9632 972.191 Q39.1779 974.832 45.2253 974.832 L64.0042 974.832 L64.0042 980.721 L28.3562 980.721 L28.3562 974.832 L33.8944 974.832 Q30.6479 972.986 29.0883 970.026 Q27.4968 967.066 27.4968 962.833 Q27.4968 962.228 27.5923 961.496 Q27.656 960.764 27.8151 959.873 L33.8307 959.841 Z" fill="#000000" fill-rule="evenodd" fill-opacity="1" /><path clip-path="url(#clip130)" d="M46.212 928.108 Q39.7508 928.108 36.0905 930.782 Q32.3984 933.424 32.3984 938.07 Q32.3984 942.717 36.0905 945.391 Q39.7508 948.033 46.212 948.033 Q52.6732 948.033 56.3653 945.391 Q60.0256 942.717 60.0256 938.07 Q60.0256 933.424 56.3653 930.782 Q52.6732 928.108 46.212 928.108 M33.7671 948.033 Q30.5842 946.187 29.0564 943.386 Q27.4968 940.553 27.4968 936.638 Q27.4968 930.145 32.6531 926.103 Q37.8093 922.029 46.212 922.029 Q54.6147 922.029 59.771 926.103 Q64.9272 930.145 64.9272 936.638 Q64.9272 940.553 63.3994 943.386 Q61.8398 946.187 58.657 948.033 L64.0042 948.033 L64.0042 953.921 L14.479 953.921 L14.479 948.033 L33.7671 948.033 Z" fill="#000000" fill-rule="evenodd" fill-opacity="1" /><path clip-path="url(#clip130)" d="M32.4621 898.508 Q32.4621 903.218 36.1542 905.955 Q39.8145 908.693 46.212 908.693 Q52.6095 908.693 56.3017 905.987 Q59.9619 903.25 59.9619 898.508 Q59.9619 893.829 56.2698 891.092 Q52.5777 888.354 46.212 888.354 Q39.8781 888.354 36.186 891.092 Q32.4621 893.829 32.4621 898.508 M27.4968 898.508 Q27.4968 890.869 32.4621 886.508 Q37.4273 882.148 46.212 882.148 Q54.9649 882.148 59.9619 886.508 Q64.9272 890.869 64.9272 898.508 Q64.9272 906.178 59.9619 910.539 Q54.9649 914.867 46.212 914.867 Q37.4273 914.867 32.4621 910.539 Q27.4968 906.178 27.4968 898.508 Z" fill="#000000" fill-rule="evenodd" fill-opacity="1" /><path clip-path="url(#clip130)" d="M33.8307 851.783 Q33.2578 852.77 33.0032 853.948 Q32.7167 855.093 32.7167 856.494 Q32.7167 861.459 35.9632 864.133 Q39.1779 866.775 45.2253 866.775 L64.0042 866.775 L64.0042 872.663 L28.3562 872.663 L28.3562 866.775 L33.8944 866.775 Q30.6479 864.929 29.0883 861.968 Q27.4968 859.008 27.4968 854.775 Q27.4968 854.17 27.5923 853.438 Q27.656 852.706 27.8151 851.815 L33.8307 851.783 Z" fill="#000000" fill-rule="evenodd" fill-opacity="1" /><path clip-path="url(#clip130)" d="M42.4881 817.154 L64.0042 817.154 L64.0042 823.01 L42.679 823.01 Q37.6183 823.01 35.1038 824.984 Q32.5894 826.957 32.5894 830.904 Q32.5894 835.646 35.6131 838.384 Q38.6368 841.121 43.8567 841.121 L64.0042 841.121 L64.0042 847.009 L28.3562 847.009 L28.3562 841.121 L33.8944 841.121 Q30.6797 839.02 29.0883 836.187 Q27.4968 833.323 27.4968 829.599 Q27.4968 823.456 31.3163 820.305 Q35.1038 817.154 42.4881 817.154 Z" fill="#000000" fill-rule="evenodd" fill-opacity="1" /><path clip-path="url(#clip130)" d="M44.7161 774.981 L47.5806 774.981 L47.5806 801.908 Q53.6281 801.526 56.8109 798.28 Q59.9619 795.001 59.9619 789.177 Q59.9619 785.803 59.1344 782.652 Q58.3069 779.469 56.6518 776.35 L62.1899 776.35 Q63.5267 779.501 64.227 782.811 Q64.9272 786.121 64.9272 789.527 Q64.9272 798.057 59.9619 803.054 Q54.9967 808.019 46.5303 808.019 Q37.7774 808.019 32.6531 803.308 Q27.4968 798.566 27.4968 790.545 Q27.4968 783.352 32.1438 779.182 Q36.7589 774.981 44.7161 774.981 M42.9973 780.838 Q38.1912 780.901 35.3266 783.543 Q32.4621 786.153 32.4621 790.482 Q32.4621 795.383 35.2312 798.343 Q38.0002 801.271 43.0292 801.717 L42.9973 780.838 Z" fill="#000000" fill-rule="evenodd" fill-opacity="1" /><path clip-path="url(#clip130)" d="M46.212 741.147 Q52.6732 741.147 56.3653 738.506 Q60.0256 735.832 60.0256 731.185 Q60.0256 726.538 56.3653 723.864 Q52.6732 721.191 46.212 721.191 Q39.7508 721.191 36.0905 723.864 Q32.3984 726.538 32.3984 731.185 Q32.3984 735.832 36.0905 738.506 Q39.7508 741.147 46.212 741.147 M58.657 721.191 Q61.8398 723.037 63.3994 725.87 Q64.9272 728.671 64.9272 732.617 Q64.9272 739.078 59.771 743.153 Q54.6147 747.195 46.212 747.195 Q37.8093 747.195 32.6531 743.153 Q27.4968 739.078 27.4968 732.617 Q27.4968 728.671 29.0564 725.87 Q30.5842 723.037 33.7671 721.191 L28.3562 721.191 L28.3562 715.334 L77.5631 715.334 L77.5631 721.191 L58.657 721.191 Z" fill="#000000" fill-rule="evenodd" fill-opacity="1" /><path clip-path="url(#clip130)" d="M49.9359 703.876 L28.3562 703.876 L28.3562 698.02 L49.7131 698.02 Q54.7739 698.02 57.3202 696.046 Q59.8346 694.073 59.8346 690.126 Q59.8346 685.384 56.8109 682.646 Q53.7872 679.877 48.5673 679.877 L28.3562 679.877 L28.3562 674.021 L64.0042 674.021 L64.0042 679.877 L58.5296 679.877 Q61.7762 682.01 63.3676 684.843 Q64.9272 687.644 64.9272 691.368 Q64.9272 697.51 61.1078 700.693 Q57.2883 703.876 49.9359 703.876 M27.4968 689.14 L27.4968 689.14 Z" fill="#000000" fill-rule="evenodd" fill-opacity="1" /><path clip-path="url(#clip130)" d="M46.0847 645.757 Q46.0847 652.855 47.7079 655.592 Q49.3312 658.329 53.2461 658.329 Q56.3653 658.329 58.2114 656.292 Q60.0256 654.224 60.0256 650.691 Q60.0256 645.821 56.5881 642.893 Q53.1188 639.933 47.3897 639.933 L46.0847 639.933 L46.0847 645.757 M43.6657 634.076 L64.0042 634.076 L64.0042 639.933 L58.5933 639.933 Q61.8398 641.938 63.3994 644.93 Q64.9272 647.922 64.9272 652.25 Q64.9272 657.725 61.8716 660.971 Q58.7843 664.186 53.6281 664.186 Q47.6125 664.186 44.5569 660.176 Q41.5014 656.133 41.5014 648.144 L41.5014 639.933 L40.9285 639.933 Q36.8862 639.933 34.6901 642.606 Q32.4621 645.248 32.4621 650.054 Q32.4621 653.11 33.1941 656.006 Q33.9262 658.902 35.3903 661.576 L29.9795 661.576 Q28.7381 658.361 28.1334 655.338 Q27.4968 652.314 27.4968 649.449 Q27.4968 641.715 31.5072 637.896 Q35.5176 634.076 43.6657 634.076 Z" fill="#000000" fill-rule="evenodd" fill-opacity="1" /><path clip-path="url(#clip130)" d="M42.4881 592.381 L64.0042 592.381 L64.0042 598.237 L42.679 598.237 Q37.6183 598.237 35.1038 600.211 Q32.5894 602.184 32.5894 606.131 Q32.5894 610.873 35.6131 613.61 Q38.6368 616.348 43.8567 616.348 L64.0042 616.348 L64.0042 622.236 L28.3562 622.236 L28.3562 616.348 L33.8944 616.348 Q30.6797 614.247 29.0883 611.414 Q27.4968 608.55 27.4968 604.826 Q27.4968 598.683 31.3163 595.532 Q35.1038 592.381 42.4881 592.381 Z" fill="#000000" fill-rule="evenodd" fill-opacity="1" /><path clip-path="url(#clip130)" d="M18.2347 574.907 L28.3562 574.907 L28.3562 562.844 L32.9077 562.844 L32.9077 574.907 L52.2594 574.907 Q56.6199 574.907 57.8613 573.729 Q59.1026 572.52 59.1026 568.859 L59.1026 562.844 L64.0042 562.844 L64.0042 568.859 Q64.0042 575.639 61.4897 578.217 Q58.9434 580.795 52.2594 580.795 L32.9077 580.795 L32.9077 585.092 L28.3562 585.092 L28.3562 580.795 L18.2347 580.795 L18.2347 574.907 Z" fill="#000000" fill-rule="evenodd" fill-opacity="1" /><path clip-path="url(#clip130)" d="M28.3562 555.141 L28.3562 549.285 L64.0042 549.285 L64.0042 555.141 L28.3562 555.141 M14.479 555.141 L14.479 549.285 L21.895 549.285 L21.895 555.141 L14.479 555.141 Z" fill="#000000" fill-rule="evenodd" fill-opacity="1" /><path clip-path="url(#clip130)" d="M18.2347 531.238 L28.3562 531.238 L28.3562 519.175 L32.9077 519.175 L32.9077 531.238 L52.2594 531.238 Q56.6199 531.238 57.8613 530.061 Q59.1026 528.851 59.1026 525.191 L59.1026 519.175 L64.0042 519.175 L64.0042 525.191 Q64.0042 531.97 61.4897 534.548 Q58.9434 537.126 52.2594 537.126 L32.9077 537.126 L32.9077 541.423 L28.3562 541.423 L28.3562 537.126 L18.2347 537.126 L18.2347 531.238 Z" fill="#000000" fill-rule="evenodd" fill-opacity="1" /><path clip-path="url(#clip130)" d="M67.3143 496.641 Q73.68 499.123 75.6216 501.478 Q77.5631 503.834 77.5631 507.781 L77.5631 512.459 L72.6615 512.459 L72.6615 509.022 Q72.6615 506.603 71.5157 505.266 Q70.3699 503.929 66.1048 502.306 L63.4312 501.256 L28.3562 515.674 L28.3562 509.467 L56.238 498.327 L28.3562 487.187 L28.3562 480.981 L67.3143 496.641 Z" fill="#000000" fill-rule="evenodd" fill-opacity="1" /><path clip-path="url(#clip130)" d="M14.5426 438.108 Q21.8632 442.373 29.0246 444.442 Q36.186 446.511 43.5384 446.511 Q50.8908 446.511 58.1159 444.442 Q65.3091 442.341 72.5979 438.108 L72.5979 443.2 Q65.1182 447.975 57.8931 450.362 Q50.668 452.717 43.5384 452.717 Q36.4406 452.717 29.2474 450.362 Q22.0542 448.007 14.5426 443.2 L14.5426 438.108 Z" fill="#000000" fill-rule="evenodd" fill-opacity="1" /><path clip-path="url(#clip130)" d="M14.479 426.968 L14.479 421.08 L43.7294 421.08 L28.3562 403.606 L28.3562 396.126 L45.0344 415.032 L64.0042 395.33 L64.0042 402.969 L46.5939 421.08 L64.0042 421.08 L64.0042 426.968 L14.479 426.968 Z" fill="#000000" fill-rule="evenodd" fill-opacity="1" /><path clip-path="url(#clip130)" d="M45.7664 365.539 Q39.4007 365.539 35.8996 368.181 Q32.3984 370.791 32.3984 375.533 Q32.3984 380.244 35.8996 382.885 Q39.4007 385.495 45.7664 385.495 Q52.1003 385.495 55.6014 382.885 Q59.1026 380.244 59.1026 375.533 Q59.1026 370.791 55.6014 368.181 Q52.1003 365.539 45.7664 365.539 M59.58 359.682 Q68.683 359.682 73.1071 363.725 Q77.5631 367.767 77.5631 376.106 Q77.5631 379.193 77.0857 381.931 Q76.6401 384.668 75.6852 387.246 L69.9879 387.246 Q71.3884 384.668 72.0568 382.153 Q72.7252 379.639 72.7252 377.029 Q72.7252 371.268 69.7015 368.403 Q66.7096 365.539 60.6303 365.539 L57.7339 365.539 Q60.885 367.353 62.4446 370.186 Q64.0042 373.019 64.0042 376.965 Q64.0042 383.522 59.0071 387.532 Q54.01 391.543 45.7664 391.543 Q37.491 391.543 32.4939 387.532 Q27.4968 383.522 27.4968 376.965 Q27.4968 373.019 29.0564 370.186 Q30.616 367.353 33.7671 365.539 L28.3562 365.539 L28.3562 359.682 L59.58 359.682 Z" fill="#000000" fill-rule="evenodd" fill-opacity="1" /><path clip-path="url(#clip130)" d="M14.5426 348.542 L14.5426 343.45 Q22.0542 338.676 29.2474 336.32 Q36.4406 333.933 43.5384 333.933 Q50.668 333.933 57.8931 336.32 Q65.1182 338.676 72.5979 343.45 L72.5979 348.542 Q65.3091 344.309 58.1159 342.24 Q50.8908 340.14 43.5384 340.14 Q36.186 340.14 29.0246 342.24 Q21.8632 344.309 14.5426 348.542 Z" fill="#000000" fill-rule="evenodd" fill-opacity="1" /><path clip-path="url(#clip130)" d="M893.46 14.324 L893.46 27.2059 L908.813 27.2059 L908.813 32.9987 L893.46 32.9987 L893.46 57.6282 Q893.46 63.1779 894.959 64.7578 Q896.498 66.3376 901.157 66.3376 L908.813 66.3376 L908.813 72.576 L901.157 72.576 Q892.528 72.576 889.247 69.3758 Q885.966 66.1351 885.966 57.6282 L885.966 32.9987 L880.497 32.9987 L880.497 27.2059 L885.966 27.2059 L885.966 14.324 L893.46 14.324 Z" fill="#000000" fill-rule="evenodd" fill-opacity="1" /><path clip-path="url(#clip130)" d="M936.197 32.4315 Q930.202 32.4315 926.718 37.1306 Q923.234 41.7891 923.234 49.9314 Q923.234 58.0738 926.678 62.7728 Q930.161 67.4314 936.197 67.4314 Q942.152 67.4314 945.636 62.7323 Q949.12 58.0333 949.12 49.9314 Q949.12 41.8701 945.636 37.1711 Q942.152 32.4315 936.197 32.4315 M936.197 26.1121 Q945.919 26.1121 951.469 32.4315 Q957.019 38.7509 957.019 49.9314 Q957.019 61.0714 951.469 67.4314 Q945.919 73.7508 936.197 73.7508 Q926.435 73.7508 920.885 67.4314 Q915.376 61.0714 915.376 49.9314 Q915.376 38.7509 920.885 32.4315 Q926.435 26.1121 936.197 26.1121 Z" fill="#000000" fill-rule="evenodd" fill-opacity="1" /><path clip-path="url(#clip130)" d="M976.747 14.324 L976.747 27.2059 L992.1 27.2059 L992.1 32.9987 L976.747 32.9987 L976.747 57.6282 Q976.747 63.1779 978.246 64.7578 Q979.785 66.3376 984.443 66.3376 L992.1 66.3376 L992.1 72.576 L984.443 72.576 Q975.815 72.576 972.534 69.3758 Q969.253 66.1351 969.253 57.6282 L969.253 32.9987 L963.784 32.9987 L963.784 27.2059 L969.253 27.2059 L969.253 14.324 L976.747 14.324 Z" fill="#000000" fill-rule="evenodd" fill-opacity="1" /><path clip-path="url(#clip130)" d="M1022.52 49.7694 Q1013.49 49.7694 1010 51.8354 Q1006.52 53.9013 1006.52 58.8839 Q1006.52 62.8538 1009.11 65.2034 Q1011.75 67.5124 1016.24 67.5124 Q1022.44 67.5124 1026.17 63.1374 Q1029.94 58.7219 1029.94 51.4303 L1029.94 49.7694 L1022.52 49.7694 M1037.39 46.6907 L1037.39 72.576 L1029.94 72.576 L1029.94 65.6895 Q1027.38 69.8214 1023.58 71.8063 Q1019.77 73.7508 1014.26 73.7508 Q1007.29 73.7508 1003.16 69.8619 Q999.067 65.9325 999.067 59.3701 Q999.067 51.7138 1004.17 47.825 Q1009.32 43.9361 1019.48 43.9361 L1029.94 43.9361 L1029.94 43.2069 Q1029.94 38.0623 1026.53 35.2672 Q1023.17 32.4315 1017.05 32.4315 Q1013.16 32.4315 1009.48 33.3632 Q1005.79 34.295 1002.39 36.1584 L1002.39 29.2718 Q1006.48 27.692 1010.33 26.9223 Q1014.18 26.1121 1017.82 26.1121 Q1027.67 26.1121 1032.53 31.2163 Q1037.39 36.3204 1037.39 46.6907 Z" fill="#000000" fill-rule="evenodd" fill-opacity="1" /><path clip-path="url(#clip130)" d="M1052.74 9.54393 L1060.2 9.54393 L1060.2 72.576 L1052.74 72.576 L1052.74 9.54393 Z" fill="#000000" fill-rule="evenodd" fill-opacity="1" /><path clip-path="url(#clip130)" d="M1122.78 49.7694 Q1113.75 49.7694 1110.26 51.8354 Q1106.78 53.9013 1106.78 58.8839 Q1106.78 62.8538 1109.37 65.2034 Q1112.01 67.5124 1116.5 67.5124 Q1122.7 67.5124 1126.43 63.1374 Q1130.2 58.7219 1130.2 51.4303 L1130.2 49.7694 L1122.78 49.7694 M1137.65 46.6907 L1137.65 72.576 L1130.2 72.576 L1130.2 65.6895 Q1127.64 69.8214 1123.84 71.8063 Q1120.03 73.7508 1114.52 73.7508 Q1107.55 73.7508 1103.42 69.8619 Q1099.33 65.9325 1099.33 59.3701 Q1099.33 51.7138 1104.43 47.825 Q1109.58 43.9361 1119.74 43.9361 L1130.2 43.9361 L1130.2 43.2069 Q1130.2 38.0623 1126.79 35.2672 Q1123.43 32.4315 1117.31 32.4315 Q1113.42 32.4315 1109.74 33.3632 Q1106.05 34.295 1102.65 36.1584 L1102.65 29.2718 Q1106.74 27.692 1110.59 26.9223 Q1114.44 26.1121 1118.08 26.1121 Q1127.93 26.1121 1132.79 31.2163 Q1137.65 36.3204 1137.65 46.6907 Z" fill="#000000" fill-rule="evenodd" fill-opacity="1" /><path clip-path="url(#clip130)" d="M1153 27.2059 L1160.46 27.2059 L1160.46 72.576 L1153 72.576 L1153 27.2059 M1153 9.54393 L1160.46 9.54393 L1160.46 18.9825 L1153 18.9825 L1153 9.54393 Z" fill="#000000" fill-rule="evenodd" fill-opacity="1" /><path clip-path="url(#clip130)" d="M1202.34 34.1734 Q1201.09 33.4443 1199.59 33.1202 Q1198.13 32.7556 1196.35 32.7556 Q1190.03 32.7556 1186.62 36.8875 Q1183.26 40.9789 1183.26 48.6757 L1183.26 72.576 L1175.77 72.576 L1175.77 27.2059 L1183.26 27.2059 L1183.26 34.2544 Q1185.61 30.1225 1189.38 28.1376 Q1193.15 26.1121 1198.53 26.1121 Q1199.3 26.1121 1200.24 26.2337 Q1201.17 26.3147 1202.3 26.5172 L1202.34 34.1734 Z" fill="#000000" fill-rule="evenodd" fill-opacity="1" /><path clip-path="url(#clip130)" d="M1242.73 49.9314 Q1242.73 41.7081 1239.33 37.0496 Q1235.96 32.3505 1230.05 32.3505 Q1224.14 32.3505 1220.73 37.0496 Q1217.37 41.7081 1217.37 49.9314 Q1217.37 58.1548 1220.73 62.8538 Q1224.14 67.5124 1230.05 67.5124 Q1235.96 67.5124 1239.33 62.8538 Q1242.73 58.1548 1242.73 49.9314 M1217.37 34.0924 Q1219.72 30.0415 1223.28 28.0971 Q1226.89 26.1121 1231.87 26.1121 Q1240.14 26.1121 1245.28 32.6746 Q1250.47 39.2371 1250.47 49.9314 Q1250.47 60.6258 1245.28 67.1883 Q1240.14 73.7508 1231.87 73.7508 Q1226.89 73.7508 1223.28 71.8063 Q1219.72 69.8214 1217.37 65.7705 L1217.37 72.576 L1209.88 72.576 L1209.88 9.54393 L1217.37 9.54393 L1217.37 34.0924 Z" fill="#000000" fill-rule="evenodd" fill-opacity="1" /><path clip-path="url(#clip130)" d="M1280.4 32.4315 Q1274.41 32.4315 1270.92 37.1306 Q1267.44 41.7891 1267.44 49.9314 Q1267.44 58.0738 1270.88 62.7728 Q1274.37 67.4314 1280.4 67.4314 Q1286.36 67.4314 1289.84 62.7323 Q1293.32 58.0333 1293.32 49.9314 Q1293.32 41.8701 1289.84 37.1711 Q1286.36 32.4315 1280.4 32.4315 M1280.4 26.1121 Q1290.12 26.1121 1295.67 32.4315 Q1301.22 38.7509 1301.22 49.9314 Q1301.22 61.0714 1295.67 67.4314 Q1290.12 73.7508 1280.4 73.7508 Q1270.64 73.7508 1265.09 67.4314 Q1259.58 61.0714 1259.58 49.9314 Q1259.58 38.7509 1265.09 32.4315 Q1270.64 26.1121 1280.4 26.1121 Z" fill="#000000" fill-rule="evenodd" fill-opacity="1" /><path clip-path="url(#clip130)" d="M1339.87 34.1734 Q1338.61 33.4443 1337.12 33.1202 Q1335.66 32.7556 1333.87 32.7556 Q1327.56 32.7556 1324.15 36.8875 Q1320.79 40.9789 1320.79 48.6757 L1320.79 72.576 L1313.3 72.576 L1313.3 27.2059 L1320.79 27.2059 L1320.79 34.2544 Q1323.14 30.1225 1326.91 28.1376 Q1330.67 26.1121 1336.06 26.1121 Q1336.83 26.1121 1337.76 26.2337 Q1338.7 26.3147 1339.83 26.5172 L1339.87 34.1734 Z" fill="#000000" fill-rule="evenodd" fill-opacity="1" /><path clip-path="url(#clip130)" d="M1383.94 45.1919 L1383.94 72.576 L1376.49 72.576 L1376.49 45.4349 Q1376.49 38.994 1373.98 35.7938 Q1371.47 32.5936 1366.44 32.5936 Q1360.41 32.5936 1356.92 36.4419 Q1353.44 40.2903 1353.44 46.9338 L1353.44 72.576 L1345.95 72.576 L1345.95 27.2059 L1353.44 27.2059 L1353.44 34.2544 Q1356.11 30.163 1359.72 28.1376 Q1363.37 26.1121 1368.1 26.1121 Q1375.92 26.1121 1379.93 30.9732 Q1383.94 35.7938 1383.94 45.1919 Z" fill="#000000" fill-rule="evenodd" fill-opacity="1" /><path clip-path="url(#clip130)" d="M1437.62 48.0275 L1437.62 51.6733 L1403.35 51.6733 Q1403.83 59.3701 1407.97 63.421 Q1412.14 67.4314 1419.55 67.4314 Q1423.85 67.4314 1427.86 66.3781 Q1431.91 65.3249 1435.88 63.2184 L1435.88 70.267 Q1431.87 71.9684 1427.65 72.8596 Q1423.44 73.7508 1419.11 73.7508 Q1408.25 73.7508 1401.89 67.4314 Q1395.57 61.1119 1395.57 50.3365 Q1395.57 39.1965 1401.57 32.6746 Q1407.6 26.1121 1417.81 26.1121 Q1426.96 26.1121 1432.27 32.0264 Q1437.62 37.9003 1437.62 48.0275 M1430.16 45.84 Q1430.08 39.7232 1426.72 36.0774 Q1423.4 32.4315 1417.89 32.4315 Q1411.65 32.4315 1407.88 35.9558 Q1404.16 39.4801 1403.59 45.8805 L1430.16 45.84 Z" fill="#000000" fill-rule="evenodd" fill-opacity="1" /><path clip-path="url(#clip130)" d="M1480.68 49.9314 Q1480.68 58.1548 1484.04 62.8538 Q1487.44 67.5124 1493.36 67.5124 Q1499.27 67.5124 1502.68 62.8538 Q1506.08 58.1548 1506.08 49.9314 Q1506.08 41.7081 1502.68 37.0496 Q1499.27 32.3505 1493.36 32.3505 Q1487.44 32.3505 1484.04 37.0496 Q1480.68 41.7081 1480.68 49.9314 M1506.08 65.7705 Q1503.73 69.8214 1500.12 71.8063 Q1496.56 73.7508 1491.54 73.7508 Q1483.31 73.7508 1478.13 67.1883 Q1472.98 60.6258 1472.98 49.9314 Q1472.98 39.2371 1478.13 32.6746 Q1483.31 26.1121 1491.54 26.1121 Q1496.56 26.1121 1500.12 28.0971 Q1503.73 30.0415 1506.08 34.0924 L1506.08 27.2059 L1513.53 27.2059 L1513.53 89.8329 L1506.08 89.8329 L1506.08 65.7705 Z" fill="#000000" fill-rule="evenodd" fill-opacity="1" /><path clip-path="url(#clip130)" d="M1528.12 54.671 L1528.12 27.2059 L1535.57 27.2059 L1535.57 54.3874 Q1535.57 60.8284 1538.08 64.0691 Q1540.59 67.2693 1545.62 67.2693 Q1551.65 67.2693 1555.13 63.421 Q1558.66 59.5726 1558.66 52.9291 L1558.66 27.2059 L1566.11 27.2059 L1566.11 72.576 L1558.66 72.576 L1558.66 65.6084 Q1555.95 69.7404 1552.34 71.7658 Q1548.77 73.7508 1544.04 73.7508 Q1536.22 73.7508 1532.17 68.8897 Q1528.12 64.0286 1528.12 54.671 M1546.87 26.1121 L1546.87 26.1121 Z" fill="#000000" fill-rule="evenodd" fill-opacity="1" /><path clip-path="url(#clip130)" d="M1602.08 49.7694 Q1593.05 49.7694 1589.57 51.8354 Q1586.08 53.9013 1586.08 58.8839 Q1586.08 62.8538 1588.68 65.2034 Q1591.31 67.5124 1595.81 67.5124 Q1602 67.5124 1605.73 63.1374 Q1609.5 58.7219 1609.5 51.4303 L1609.5 49.7694 L1602.08 49.7694 M1616.95 46.6907 L1616.95 72.576 L1609.5 72.576 L1609.5 65.6895 Q1606.95 69.8214 1603.14 71.8063 Q1599.33 73.7508 1593.82 73.7508 Q1586.85 73.7508 1582.72 69.8619 Q1578.63 65.9325 1578.63 59.3701 Q1578.63 51.7138 1583.73 47.825 Q1588.88 43.9361 1599.05 43.9361 L1609.5 43.9361 L1609.5 43.2069 Q1609.5 38.0623 1606.1 35.2672 Q1602.73 32.4315 1596.62 32.4315 Q1592.73 32.4315 1589.04 33.3632 Q1585.35 34.295 1581.95 36.1584 L1581.95 29.2718 Q1586.04 27.692 1589.89 26.9223 Q1593.74 26.1121 1597.39 26.1121 Q1607.23 26.1121 1612.09 31.2163 Q1616.95 36.3204 1616.95 46.6907 Z" fill="#000000" fill-rule="evenodd" fill-opacity="1" /><path clip-path="url(#clip130)" d="M1670.02 45.1919 L1670.02 72.576 L1662.56 72.576 L1662.56 45.4349 Q1662.56 38.994 1660.05 35.7938 Q1657.54 32.5936 1652.52 32.5936 Q1646.48 32.5936 1643 36.4419 Q1639.52 40.2903 1639.52 46.9338 L1639.52 72.576 L1632.02 72.576 L1632.02 27.2059 L1639.52 27.2059 L1639.52 34.2544 Q1642.19 30.163 1645.79 28.1376 Q1649.44 26.1121 1654.18 26.1121 Q1662 26.1121 1666.01 30.9732 Q1670.02 35.7938 1670.02 45.1919 Z" fill="#000000" fill-rule="evenodd" fill-opacity="1" /><path clip-path="url(#clip130)" d="M1692.26 14.324 L1692.26 27.2059 L1707.61 27.2059 L1707.61 32.9987 L1692.26 32.9987 L1692.26 57.6282 Q1692.26 63.1779 1693.76 64.7578 Q1695.3 66.3376 1699.95 66.3376 L1707.61 66.3376 L1707.61 72.576 L1699.95 72.576 Q1691.33 72.576 1688.05 69.3758 Q1684.76 66.1351 1684.76 57.6282 L1684.76 32.9987 L1679.3 32.9987 L1679.3 27.2059 L1684.76 27.2059 L1684.76 14.324 L1692.26 14.324 Z" fill="#000000" fill-rule="evenodd" fill-opacity="1" /><path clip-path="url(#clip130)" d="M1717.41 27.2059 L1724.87 27.2059 L1724.87 72.576 L1717.41 72.576 L1717.41 27.2059 M1717.41 9.54393 L1724.87 9.54393 L1724.87 18.9825 L1717.41 18.9825 L1717.41 9.54393 Z" fill="#000000" fill-rule="evenodd" fill-opacity="1" /><path clip-path="url(#clip130)" d="M1747.84 14.324 L1747.84 27.2059 L1763.19 27.2059 L1763.19 32.9987 L1747.84 32.9987 L1747.84 57.6282 Q1747.84 63.1779 1749.34 64.7578 Q1750.87 66.3376 1755.53 66.3376 L1763.19 66.3376 L1763.19 72.576 L1755.53 72.576 Q1746.9 72.576 1743.62 69.3758 Q1740.34 66.1351 1740.34 57.6282 L1740.34 32.9987 L1734.87 32.9987 L1734.87 27.2059 L1740.34 27.2059 L1740.34 14.324 L1747.84 14.324 Z" fill="#000000" fill-rule="evenodd" fill-opacity="1" /><path clip-path="url(#clip130)" d="M1791.87 76.7889 Q1788.71 84.8907 1785.71 87.3618 Q1782.71 89.8329 1777.69 89.8329 L1771.74 89.8329 L1771.74 83.5945 L1776.11 83.5945 Q1779.19 83.5945 1780.89 82.1361 Q1782.59 80.6778 1784.66 75.2496 L1786 71.8468 L1767.65 27.2059 L1775.54 27.2059 L1789.72 62.6918 L1803.9 27.2059 L1811.8 27.2059 L1791.87 76.7889 Z" fill="#000000" fill-rule="evenodd" fill-opacity="1" /><polyline clip-path="url(#clip132)" style="stroke:#009af9; stroke-linecap:butt; stroke-linejoin:round; stroke-width:4; stroke-opacity:1; fill:none" points="
  415.067,1386.4 586.568,1274.19 689.634,1206.84 776.774,1149.94 871.433,1088.17 958.7,1031.25 1052.26,970.246 1160.66,899.582 1256.99,836.799 1341.46,781.753 
  1433.56,721.747 1526.21,661.392 1628.64,594.669 1726.1,531.191 1827.44,465.195 1912.74,409.645 2016.89,341.829 2114.79,278.085 2271.64,175.97 2295.78,160.256 
  
  "/>
</svg>
