<?xml version="1.0" encoding="utf-8"?>
<svg xmlns="http://www.w3.org/2000/svg" xmlns:xlink="http://www.w3.org/1999/xlink" width="600" height="400" viewBox="0 0 2400 1600">
<defs>
  <clipPath id="clip010">
    <rect x="0" y="0" width="2400" height="1600"/>
  </clipPath>
</defs>
<path clip-path="url(#clip010)" d="
M0 1600 L2400 1600 L2400 0 L0 0  Z
  " fill="#ffffff" fill-rule="evenodd" fill-opacity="1"/>
<defs>
  <clipPath id="clip011">
    <rect x="480" y="0" width="1681" height="1600"/>
  </clipPath>
</defs>
<path clip-path="url(#clip010)" d="
M359.909 1423.18 L2352.76 1423.18 L2352.76 123.472 L359.909 123.472  Z
  " fill="#ffffff" fill-rule="evenodd" fill-opacity="1"/>
<defs>
  <clipPath id="clip012">
    <rect x="359" y="123" width="1994" height="1301"/>
  </clipPath>
</defs>
<polyline clip-path="url(#clip012)" style="stroke:#000000; stroke-linecap:butt; stroke-linejoin:round; stroke-width:2; stroke-opacity:0.1; fill:none" points="
  416.31,1423.18 416.31,123.472 
  "/>
<polyline clip-path="url(#clip012)" style="stroke:#000000; stroke-linecap:butt; stroke-linejoin:round; stroke-width:2; stroke-opacity:0.1; fill:none" points="
  845.828,1423.18 845.828,123.472 
  "/>
<polyline clip-path="url(#clip012)" style="stroke:#000000; stroke-linecap:butt; stroke-linejoin:round; stroke-width:2; stroke-opacity:0.1; fill:none" points="
  1275.35,1423.18 1275.35,123.472 
  "/>
<polyline clip-path="url(#clip012)" style="stroke:#000000; stroke-linecap:butt; stroke-linejoin:round; stroke-width:2; stroke-opacity:0.1; fill:none" points="
  1704.86,1423.18 1704.86,123.472 
  "/>
<polyline clip-path="url(#clip012)" style="stroke:#000000; stroke-linecap:butt; stroke-linejoin:round; stroke-width:2; stroke-opacity:0.1; fill:none" points="
  2134.38,1423.18 2134.38,123.472 
  "/>
<polyline clip-path="url(#clip010)" style="stroke:#000000; stroke-linecap:butt; stroke-linejoin:round; stroke-width:4; stroke-opacity:1; fill:none" points="
  359.909,1423.18 2352.76,1423.18 
  "/>
<polyline clip-path="url(#clip010)" style="stroke:#000000; stroke-linecap:butt; stroke-linejoin:round; stroke-width:4; stroke-opacity:1; fill:none" points="
  416.31,1423.18 416.31,1404.28 
  "/>
<polyline clip-path="url(#clip010)" style="stroke:#000000; stroke-linecap:butt; stroke-linejoin:round; stroke-width:4; stroke-opacity:1; fill:none" points="
  845.828,1423.18 845.828,1404.28 
  "/>
<polyline clip-path="url(#clip010)" style="stroke:#000000; stroke-linecap:butt; stroke-linejoin:round; stroke-width:4; stroke-opacity:1; fill:none" points="
  1275.35,1423.18 1275.35,1404.28 
  "/>
<polyline clip-path="url(#clip010)" style="stroke:#000000; stroke-linecap:butt; stroke-linejoin:round; stroke-width:4; stroke-opacity:1; fill:none" points="
  1704.86,1423.18 1704.86,1404.28 
  "/>
<polyline clip-path="url(#clip010)" style="stroke:#000000; stroke-linecap:butt; stroke-linejoin:round; stroke-width:4; stroke-opacity:1; fill:none" points="
  2134.38,1423.18 2134.38,1404.28 
  "/>
<path clip-path="url(#clip010)" d="M333.371 1454.1 Q329.76 1454.1 327.931 1457.66 Q326.125 1461.2 326.125 1468.33 Q326.125 1475.44 327.931 1479.01 Q329.76 1482.55 333.371 1482.55 Q337.005 1482.55 338.811 1479.01 Q340.639 1475.44 340.639 1468.33 Q340.639 1461.2 338.811 1457.66 Q337.005 1454.1 333.371 1454.1 M333.371 1450.39 Q339.181 1450.39 342.236 1455 Q345.315 1459.58 345.315 1468.33 Q345.315 1477.06 342.236 1481.67 Q339.181 1486.25 333.371 1486.25 Q327.561 1486.25 324.482 1481.67 Q321.426 1477.06 321.426 1468.33 Q321.426 1459.58 324.482 1455 Q327.561 1450.39 333.371 1450.39 Z" fill="#000000" fill-rule="evenodd" fill-opacity="1" /><path clip-path="url(#clip010)" d="M353.533 1479.7 L358.417 1479.7 L358.417 1485.58 L353.533 1485.58 L353.533 1479.7 Z" fill="#000000" fill-rule="evenodd" fill-opacity="1" /><path clip-path="url(#clip010)" d="M378.602 1454.1 Q374.991 1454.1 373.162 1457.66 Q371.357 1461.2 371.357 1468.33 Q371.357 1475.44 373.162 1479.01 Q374.991 1482.55 378.602 1482.55 Q382.236 1482.55 384.042 1479.01 Q385.87 1475.44 385.87 1468.33 Q385.87 1461.2 384.042 1457.66 Q382.236 1454.1 378.602 1454.1 M378.602 1450.39 Q384.412 1450.39 387.468 1455 Q390.546 1459.58 390.546 1468.33 Q390.546 1477.06 387.468 1481.67 Q384.412 1486.25 378.602 1486.25 Q372.792 1486.25 369.713 1481.67 Q366.658 1477.06 366.658 1468.33 Q366.658 1459.58 369.713 1455 Q372.792 1450.39 378.602 1450.39 Z" fill="#000000" fill-rule="evenodd" fill-opacity="1" /><path clip-path="url(#clip010)" d="M408.764 1454.1 Q405.153 1454.1 403.324 1457.66 Q401.519 1461.2 401.519 1468.33 Q401.519 1475.44 403.324 1479.01 Q405.153 1482.55 408.764 1482.55 Q412.398 1482.55 414.204 1479.01 Q416.032 1475.44 416.032 1468.33 Q416.032 1461.2 414.204 1457.66 Q412.398 1454.1 408.764 1454.1 M408.764 1450.39 Q414.574 1450.39 417.63 1455 Q420.708 1459.58 420.708 1468.33 Q420.708 1477.06 417.63 1481.67 Q414.574 1486.25 408.764 1486.25 Q402.954 1486.25 399.875 1481.67 Q396.819 1477.06 396.819 1468.33 Q396.819 1459.58 399.875 1455 Q402.954 1450.39 408.764 1450.39 Z" fill="#000000" fill-rule="evenodd" fill-opacity="1" /><path clip-path="url(#clip010)" d="M438.926 1454.1 Q435.315 1454.1 433.486 1457.66 Q431.68 1461.2 431.68 1468.33 Q431.68 1475.44 433.486 1479.01 Q435.315 1482.55 438.926 1482.55 Q442.56 1482.55 444.366 1479.01 Q446.194 1475.44 446.194 1468.33 Q446.194 1461.2 444.366 1457.66 Q442.56 1454.1 438.926 1454.1 M438.926 1450.39 Q444.736 1450.39 447.791 1455 Q450.87 1459.58 450.87 1468.33 Q450.87 1477.06 447.791 1481.67 Q444.736 1486.25 438.926 1486.25 Q433.116 1486.25 430.037 1481.67 Q426.981 1477.06 426.981 1468.33 Q426.981 1459.58 430.037 1455 Q433.116 1450.39 438.926 1450.39 Z" fill="#000000" fill-rule="evenodd" fill-opacity="1" /><path clip-path="url(#clip010)" d="M469.088 1454.1 Q465.477 1454.1 463.648 1457.66 Q461.842 1461.2 461.842 1468.33 Q461.842 1475.44 463.648 1479.01 Q465.477 1482.55 469.088 1482.55 Q472.722 1482.55 474.527 1479.01 Q476.356 1475.44 476.356 1468.33 Q476.356 1461.2 474.527 1457.66 Q472.722 1454.1 469.088 1454.1 M469.088 1450.39 Q474.898 1450.39 477.953 1455 Q481.032 1459.58 481.032 1468.33 Q481.032 1477.06 477.953 1481.67 Q474.898 1486.25 469.088 1486.25 Q463.277 1486.25 460.199 1481.67 Q457.143 1477.06 457.143 1468.33 Q457.143 1459.58 460.199 1455 Q463.277 1450.39 469.088 1450.39 Z" fill="#000000" fill-rule="evenodd" fill-opacity="1" /><path clip-path="url(#clip010)" d="M499.249 1454.1 Q495.638 1454.1 493.81 1457.66 Q492.004 1461.2 492.004 1468.33 Q492.004 1475.44 493.81 1479.01 Q495.638 1482.55 499.249 1482.55 Q502.884 1482.55 504.689 1479.01 Q506.518 1475.44 506.518 1468.33 Q506.518 1461.2 504.689 1457.66 Q502.884 1454.1 499.249 1454.1 M499.249 1450.39 Q505.06 1450.39 508.115 1455 Q511.194 1459.58 511.194 1468.33 Q511.194 1477.06 508.115 1481.67 Q505.06 1486.25 499.249 1486.25 Q493.439 1486.25 490.361 1481.67 Q487.305 1477.06 487.305 1468.33 Q487.305 1459.58 490.361 1455 Q493.439 1450.39 499.249 1450.39 Z" fill="#000000" fill-rule="evenodd" fill-opacity="1" /><path clip-path="url(#clip010)" d="M763.387 1454.1 Q759.775 1454.1 757.947 1457.66 Q756.141 1461.2 756.141 1468.33 Q756.141 1475.44 757.947 1479.01 Q759.775 1482.55 763.387 1482.55 Q767.021 1482.55 768.826 1479.01 Q770.655 1475.44 770.655 1468.33 Q770.655 1461.2 768.826 1457.66 Q767.021 1454.1 763.387 1454.1 M763.387 1450.39 Q769.197 1450.39 772.252 1455 Q775.331 1459.58 775.331 1468.33 Q775.331 1477.06 772.252 1481.67 Q769.197 1486.25 763.387 1486.25 Q757.576 1486.25 754.498 1481.67 Q751.442 1477.06 751.442 1468.33 Q751.442 1459.58 754.498 1455 Q757.576 1450.39 763.387 1450.39 Z" fill="#000000" fill-rule="evenodd" fill-opacity="1" /><path clip-path="url(#clip010)" d="M783.549 1479.7 L788.433 1479.7 L788.433 1485.58 L783.549 1485.58 L783.549 1479.7 Z" fill="#000000" fill-rule="evenodd" fill-opacity="1" /><path clip-path="url(#clip010)" d="M808.618 1454.1 Q805.007 1454.1 803.178 1457.66 Q801.372 1461.2 801.372 1468.33 Q801.372 1475.44 803.178 1479.01 Q805.007 1482.55 808.618 1482.55 Q812.252 1482.55 814.058 1479.01 Q815.886 1475.44 815.886 1468.33 Q815.886 1461.2 814.058 1457.66 Q812.252 1454.1 808.618 1454.1 M808.618 1450.39 Q814.428 1450.39 817.484 1455 Q820.562 1459.58 820.562 1468.33 Q820.562 1477.06 817.484 1481.67 Q814.428 1486.25 808.618 1486.25 Q802.808 1486.25 799.729 1481.67 Q796.673 1477.06 796.673 1468.33 Q796.673 1459.58 799.729 1455 Q802.808 1450.39 808.618 1450.39 Z" fill="#000000" fill-rule="evenodd" fill-opacity="1" /><path clip-path="url(#clip010)" d="M838.78 1454.1 Q835.169 1454.1 833.34 1457.66 Q831.534 1461.2 831.534 1468.33 Q831.534 1475.44 833.34 1479.01 Q835.169 1482.55 838.78 1482.55 Q842.414 1482.55 844.219 1479.01 Q846.048 1475.44 846.048 1468.33 Q846.048 1461.2 844.219 1457.66 Q842.414 1454.1 838.78 1454.1 M838.78 1450.39 Q844.59 1450.39 847.645 1455 Q850.724 1459.58 850.724 1468.33 Q850.724 1477.06 847.645 1481.67 Q844.59 1486.25 838.78 1486.25 Q832.97 1486.25 829.891 1481.67 Q826.835 1477.06 826.835 1468.33 Q826.835 1459.58 829.891 1455 Q832.97 1450.39 838.78 1450.39 Z" fill="#000000" fill-rule="evenodd" fill-opacity="1" /><path clip-path="url(#clip010)" d="M868.942 1454.1 Q865.33 1454.1 863.502 1457.66 Q861.696 1461.2 861.696 1468.33 Q861.696 1475.44 863.502 1479.01 Q865.33 1482.55 868.942 1482.55 Q872.576 1482.55 874.381 1479.01 Q876.21 1475.44 876.21 1468.33 Q876.21 1461.2 874.381 1457.66 Q872.576 1454.1 868.942 1454.1 M868.942 1450.39 Q874.752 1450.39 877.807 1455 Q880.886 1459.58 880.886 1468.33 Q880.886 1477.06 877.807 1481.67 Q874.752 1486.25 868.942 1486.25 Q863.131 1486.25 860.053 1481.67 Q856.997 1477.06 856.997 1468.33 Q856.997 1459.58 860.053 1455 Q863.131 1450.39 868.942 1450.39 Z" fill="#000000" fill-rule="evenodd" fill-opacity="1" /><path clip-path="url(#clip010)" d="M899.103 1454.1 Q895.492 1454.1 893.664 1457.66 Q891.858 1461.2 891.858 1468.33 Q891.858 1475.44 893.664 1479.01 Q895.492 1482.55 899.103 1482.55 Q902.738 1482.55 904.543 1479.01 Q906.372 1475.44 906.372 1468.33 Q906.372 1461.2 904.543 1457.66 Q902.738 1454.1 899.103 1454.1 M899.103 1450.39 Q904.914 1450.39 907.969 1455 Q911.048 1459.58 911.048 1468.33 Q911.048 1477.06 907.969 1481.67 Q904.914 1486.25 899.103 1486.25 Q893.293 1486.25 890.215 1481.67 Q887.159 1477.06 887.159 1468.33 Q887.159 1459.58 890.215 1455 Q893.293 1450.39 899.103 1450.39 Z" fill="#000000" fill-rule="evenodd" fill-opacity="1" /><path clip-path="url(#clip010)" d="M919.312 1451.02 L937.668 1451.02 L937.668 1454.96 L923.594 1454.96 L923.594 1463.43 Q924.613 1463.08 925.631 1462.92 Q926.65 1462.73 927.668 1462.73 Q933.455 1462.73 936.835 1465.9 Q940.214 1469.08 940.214 1474.49 Q940.214 1480.07 936.742 1483.17 Q933.27 1486.25 926.951 1486.25 Q924.775 1486.25 922.506 1485.88 Q920.261 1485.51 917.853 1484.77 L917.853 1480.07 Q919.937 1481.2 922.159 1481.76 Q924.381 1482.32 926.858 1482.32 Q930.863 1482.32 933.2 1480.21 Q935.538 1478.1 935.538 1474.49 Q935.538 1470.88 933.2 1468.77 Q930.863 1466.67 926.858 1466.67 Q924.983 1466.67 923.108 1467.08 Q921.256 1467.5 919.312 1468.38 L919.312 1451.02 Z" fill="#000000" fill-rule="evenodd" fill-opacity="1" /><path clip-path="url(#clip010)" d="M1192.41 1454.1 Q1188.8 1454.1 1186.97 1457.66 Q1185.16 1461.2 1185.16 1468.33 Q1185.16 1475.44 1186.97 1479.01 Q1188.8 1482.55 1192.41 1482.55 Q1196.04 1482.55 1197.85 1479.01 Q1199.68 1475.44 1199.68 1468.33 Q1199.68 1461.2 1197.85 1457.66 Q1196.04 1454.1 1192.41 1454.1 M1192.41 1450.39 Q1198.22 1450.39 1201.27 1455 Q1204.35 1459.58 1204.35 1468.33 Q1204.35 1477.06 1201.27 1481.67 Q1198.22 1486.25 1192.41 1486.25 Q1186.6 1486.25 1183.52 1481.67 Q1180.46 1477.06 1180.46 1468.33 Q1180.46 1459.58 1183.52 1455 Q1186.6 1450.39 1192.41 1450.39 Z" fill="#000000" fill-rule="evenodd" fill-opacity="1" /><path clip-path="url(#clip010)" d="M1212.57 1479.7 L1217.45 1479.7 L1217.45 1485.58 L1212.57 1485.58 L1212.57 1479.7 Z" fill="#000000" fill-rule="evenodd" fill-opacity="1" /><path clip-path="url(#clip010)" d="M1237.64 1454.1 Q1234.03 1454.1 1232.2 1457.66 Q1230.39 1461.2 1230.39 1468.33 Q1230.39 1475.44 1232.2 1479.01 Q1234.03 1482.55 1237.64 1482.55 Q1241.27 1482.55 1243.08 1479.01 Q1244.91 1475.44 1244.91 1468.33 Q1244.91 1461.2 1243.08 1457.66 Q1241.27 1454.1 1237.64 1454.1 M1237.64 1450.39 Q1243.45 1450.39 1246.5 1455 Q1249.58 1459.58 1249.58 1468.33 Q1249.58 1477.06 1246.5 1481.67 Q1243.45 1486.25 1237.64 1486.25 Q1231.83 1486.25 1228.75 1481.67 Q1225.69 1477.06 1225.69 1468.33 Q1225.69 1459.58 1228.75 1455 Q1231.83 1450.39 1237.64 1450.39 Z" fill="#000000" fill-rule="evenodd" fill-opacity="1" /><path clip-path="url(#clip010)" d="M1267.8 1454.1 Q1264.19 1454.1 1262.36 1457.66 Q1260.55 1461.2 1260.55 1468.33 Q1260.55 1475.44 1262.36 1479.01 Q1264.19 1482.55 1267.8 1482.55 Q1271.43 1482.55 1273.24 1479.01 Q1275.07 1475.44 1275.07 1468.33 Q1275.07 1461.2 1273.24 1457.66 Q1271.43 1454.1 1267.8 1454.1 M1267.8 1450.39 Q1273.61 1450.39 1276.67 1455 Q1279.74 1459.58 1279.74 1468.33 Q1279.74 1477.06 1276.67 1481.67 Q1273.61 1486.25 1267.8 1486.25 Q1261.99 1486.25 1258.91 1481.67 Q1255.86 1477.06 1255.86 1468.33 Q1255.86 1459.58 1258.91 1455 Q1261.99 1450.39 1267.8 1450.39 Z" fill="#000000" fill-rule="evenodd" fill-opacity="1" /><path clip-path="url(#clip010)" d="M1297.96 1454.1 Q1294.35 1454.1 1292.52 1457.66 Q1290.72 1461.2 1290.72 1468.33 Q1290.72 1475.44 1292.52 1479.01 Q1294.35 1482.55 1297.96 1482.55 Q1301.6 1482.55 1303.4 1479.01 Q1305.23 1475.44 1305.23 1468.33 Q1305.23 1461.2 1303.4 1457.66 Q1301.6 1454.1 1297.96 1454.1 M1297.96 1450.39 Q1303.77 1450.39 1306.83 1455 Q1309.91 1459.58 1309.91 1468.33 Q1309.91 1477.06 1306.83 1481.67 Q1303.77 1486.25 1297.96 1486.25 Q1292.15 1486.25 1289.07 1481.67 Q1286.02 1477.06 1286.02 1468.33 Q1286.02 1459.58 1289.07 1455 Q1292.15 1450.39 1297.96 1450.39 Z" fill="#000000" fill-rule="evenodd" fill-opacity="1" /><path clip-path="url(#clip010)" d="M1318.93 1481.64 L1326.57 1481.64 L1326.57 1455.28 L1318.26 1456.95 L1318.26 1452.69 L1326.53 1451.02 L1331.2 1451.02 L1331.2 1481.64 L1338.84 1481.64 L1338.84 1485.58 L1318.93 1485.58 L1318.93 1481.64 Z" fill="#000000" fill-rule="evenodd" fill-opacity="1" /><path clip-path="url(#clip010)" d="M1358.29 1454.1 Q1354.67 1454.1 1352.85 1457.66 Q1351.04 1461.2 1351.04 1468.33 Q1351.04 1475.44 1352.85 1479.01 Q1354.67 1482.55 1358.29 1482.55 Q1361.92 1482.55 1363.73 1479.01 Q1365.55 1475.44 1365.55 1468.33 Q1365.55 1461.2 1363.73 1457.66 Q1361.92 1454.1 1358.29 1454.1 M1358.29 1450.39 Q1364.1 1450.39 1367.15 1455 Q1370.23 1459.58 1370.23 1468.33 Q1370.23 1477.06 1367.15 1481.67 Q1364.1 1486.25 1358.29 1486.25 Q1352.48 1486.25 1349.4 1481.67 Q1346.34 1477.06 1346.34 1468.33 Q1346.34 1459.58 1349.4 1455 Q1352.48 1450.39 1358.29 1450.39 Z" fill="#000000" fill-rule="evenodd" fill-opacity="1" /><path clip-path="url(#clip010)" d="M1622.42 1454.1 Q1618.81 1454.1 1616.98 1457.66 Q1615.18 1461.2 1615.18 1468.33 Q1615.18 1475.44 1616.98 1479.01 Q1618.81 1482.55 1622.42 1482.55 Q1626.06 1482.55 1627.86 1479.01 Q1629.69 1475.44 1629.69 1468.33 Q1629.69 1461.2 1627.86 1457.66 Q1626.06 1454.1 1622.42 1454.1 M1622.42 1450.39 Q1628.23 1450.39 1631.29 1455 Q1634.37 1459.58 1634.37 1468.33 Q1634.37 1477.06 1631.29 1481.67 Q1628.23 1486.25 1622.42 1486.25 Q1616.61 1486.25 1613.53 1481.67 Q1610.48 1477.06 1610.48 1468.33 Q1610.48 1459.58 1613.53 1455 Q1616.61 1450.39 1622.42 1450.39 Z" fill="#000000" fill-rule="evenodd" fill-opacity="1" /><path clip-path="url(#clip010)" d="M1642.58 1479.7 L1647.47 1479.7 L1647.47 1485.58 L1642.58 1485.58 L1642.58 1479.7 Z" fill="#000000" fill-rule="evenodd" fill-opacity="1" /><path clip-path="url(#clip010)" d="M1667.65 1454.1 Q1664.04 1454.1 1662.21 1457.66 Q1660.41 1461.2 1660.41 1468.33 Q1660.41 1475.44 1662.21 1479.01 Q1664.04 1482.55 1667.65 1482.55 Q1671.29 1482.55 1673.09 1479.01 Q1674.92 1475.44 1674.92 1468.33 Q1674.92 1461.2 1673.09 1457.66 Q1671.29 1454.1 1667.65 1454.1 M1667.65 1450.39 Q1673.46 1450.39 1676.52 1455 Q1679.6 1459.58 1679.6 1468.33 Q1679.6 1477.06 1676.52 1481.67 Q1673.46 1486.25 1667.65 1486.25 Q1661.84 1486.25 1658.77 1481.67 Q1655.71 1477.06 1655.71 1468.33 Q1655.71 1459.58 1658.77 1455 Q1661.84 1450.39 1667.65 1450.39 Z" fill="#000000" fill-rule="evenodd" fill-opacity="1" /><path clip-path="url(#clip010)" d="M1697.82 1454.1 Q1694.2 1454.1 1692.38 1457.66 Q1690.57 1461.2 1690.57 1468.33 Q1690.57 1475.44 1692.38 1479.01 Q1694.2 1482.55 1697.82 1482.55 Q1701.45 1482.55 1703.26 1479.01 Q1705.08 1475.44 1705.08 1468.33 Q1705.08 1461.2 1703.26 1457.66 Q1701.45 1454.1 1697.82 1454.1 M1697.82 1450.39 Q1703.63 1450.39 1706.68 1455 Q1709.76 1459.58 1709.76 1468.33 Q1709.76 1477.06 1706.68 1481.67 Q1703.63 1486.25 1697.82 1486.25 Q1692.01 1486.25 1688.93 1481.67 Q1685.87 1477.06 1685.87 1468.33 Q1685.87 1459.58 1688.93 1455 Q1692.01 1450.39 1697.82 1450.39 Z" fill="#000000" fill-rule="evenodd" fill-opacity="1" /><path clip-path="url(#clip010)" d="M1727.98 1454.1 Q1724.37 1454.1 1722.54 1457.66 Q1720.73 1461.2 1720.73 1468.33 Q1720.73 1475.44 1722.54 1479.01 Q1724.37 1482.55 1727.98 1482.55 Q1731.61 1482.55 1733.42 1479.01 Q1735.25 1475.44 1735.25 1468.33 Q1735.25 1461.2 1733.42 1457.66 Q1731.61 1454.1 1727.98 1454.1 M1727.98 1450.39 Q1733.79 1450.39 1736.84 1455 Q1739.92 1459.58 1739.92 1468.33 Q1739.92 1477.06 1736.84 1481.67 Q1733.79 1486.25 1727.98 1486.25 Q1722.17 1486.25 1719.09 1481.67 Q1716.03 1477.06 1716.03 1468.33 Q1716.03 1459.58 1719.09 1455 Q1722.17 1450.39 1727.98 1450.39 Z" fill="#000000" fill-rule="evenodd" fill-opacity="1" /><path clip-path="url(#clip010)" d="M1748.95 1481.64 L1756.59 1481.64 L1756.59 1455.28 L1748.28 1456.95 L1748.28 1452.69 L1756.54 1451.02 L1761.22 1451.02 L1761.22 1481.64 L1768.86 1481.64 L1768.86 1485.58 L1748.95 1485.58 L1748.95 1481.64 Z" fill="#000000" fill-rule="evenodd" fill-opacity="1" /><path clip-path="url(#clip010)" d="M1778.35 1451.02 L1796.7 1451.02 L1796.7 1454.96 L1782.63 1454.96 L1782.63 1463.43 Q1783.65 1463.08 1784.67 1462.92 Q1785.69 1462.73 1786.7 1462.73 Q1792.49 1462.73 1795.87 1465.9 Q1799.25 1469.08 1799.25 1474.49 Q1799.25 1480.07 1795.78 1483.17 Q1792.31 1486.25 1785.99 1486.25 Q1783.81 1486.25 1781.54 1485.88 Q1779.3 1485.51 1776.89 1484.77 L1776.89 1480.07 Q1778.97 1481.2 1781.2 1481.76 Q1783.42 1482.32 1785.89 1482.32 Q1789.9 1482.32 1792.24 1480.21 Q1794.57 1478.1 1794.57 1474.49 Q1794.57 1470.88 1792.24 1468.77 Q1789.9 1466.67 1785.89 1466.67 Q1784.02 1466.67 1782.14 1467.08 Q1780.29 1467.5 1778.35 1468.38 L1778.35 1451.02 Z" fill="#000000" fill-rule="evenodd" fill-opacity="1" /><path clip-path="url(#clip010)" d="M2051.44 1454.1 Q2047.83 1454.1 2046 1457.66 Q2044.2 1461.2 2044.2 1468.33 Q2044.2 1475.44 2046 1479.01 Q2047.83 1482.55 2051.44 1482.55 Q2055.08 1482.55 2056.88 1479.01 Q2058.71 1475.44 2058.71 1468.33 Q2058.71 1461.2 2056.88 1457.66 Q2055.08 1454.1 2051.44 1454.1 M2051.44 1450.39 Q2057.25 1450.39 2060.31 1455 Q2063.39 1459.58 2063.39 1468.33 Q2063.39 1477.06 2060.31 1481.67 Q2057.25 1486.25 2051.44 1486.25 Q2045.63 1486.25 2042.55 1481.67 Q2039.5 1477.06 2039.5 1468.33 Q2039.5 1459.58 2042.55 1455 Q2045.63 1450.39 2051.44 1450.39 Z" fill="#000000" fill-rule="evenodd" fill-opacity="1" /><path clip-path="url(#clip010)" d="M2071.61 1479.7 L2076.49 1479.7 L2076.49 1485.58 L2071.61 1485.58 L2071.61 1479.7 Z" fill="#000000" fill-rule="evenodd" fill-opacity="1" /><path clip-path="url(#clip010)" d="M2096.67 1454.1 Q2093.06 1454.1 2091.23 1457.66 Q2089.43 1461.2 2089.43 1468.33 Q2089.43 1475.44 2091.23 1479.01 Q2093.06 1482.55 2096.67 1482.55 Q2100.31 1482.55 2102.11 1479.01 Q2103.94 1475.44 2103.94 1468.33 Q2103.94 1461.2 2102.11 1457.66 Q2100.31 1454.1 2096.67 1454.1 M2096.67 1450.39 Q2102.48 1450.39 2105.54 1455 Q2108.62 1459.58 2108.62 1468.33 Q2108.62 1477.06 2105.54 1481.67 Q2102.48 1486.25 2096.67 1486.25 Q2090.86 1486.25 2087.79 1481.67 Q2084.73 1477.06 2084.73 1468.33 Q2084.73 1459.58 2087.79 1455 Q2090.86 1450.39 2096.67 1450.39 Z" fill="#000000" fill-rule="evenodd" fill-opacity="1" /><path clip-path="url(#clip010)" d="M2126.84 1454.1 Q2123.23 1454.1 2121.4 1457.66 Q2119.59 1461.2 2119.59 1468.33 Q2119.59 1475.44 2121.4 1479.01 Q2123.23 1482.55 2126.84 1482.55 Q2130.47 1482.55 2132.28 1479.01 Q2134.1 1475.44 2134.1 1468.33 Q2134.1 1461.2 2132.28 1457.66 Q2130.47 1454.1 2126.84 1454.1 M2126.84 1450.39 Q2132.65 1450.39 2135.7 1455 Q2138.78 1459.58 2138.78 1468.33 Q2138.78 1477.06 2135.7 1481.67 Q2132.65 1486.25 2126.84 1486.25 Q2121.03 1486.25 2117.95 1481.67 Q2114.89 1477.06 2114.89 1468.33 Q2114.89 1459.58 2117.95 1455 Q2121.03 1450.39 2126.84 1450.39 Z" fill="#000000" fill-rule="evenodd" fill-opacity="1" /><path clip-path="url(#clip010)" d="M2157 1454.1 Q2153.39 1454.1 2151.56 1457.66 Q2149.75 1461.2 2149.75 1468.33 Q2149.75 1475.44 2151.56 1479.01 Q2153.39 1482.55 2157 1482.55 Q2160.63 1482.55 2162.44 1479.01 Q2164.27 1475.44 2164.27 1468.33 Q2164.27 1461.2 2162.44 1457.66 Q2160.63 1454.1 2157 1454.1 M2157 1450.39 Q2162.81 1450.39 2165.86 1455 Q2168.94 1459.58 2168.94 1468.33 Q2168.94 1477.06 2165.86 1481.67 Q2162.81 1486.25 2157 1486.25 Q2151.19 1486.25 2148.11 1481.67 Q2145.05 1477.06 2145.05 1468.33 Q2145.05 1459.58 2148.11 1455 Q2151.19 1450.39 2157 1450.39 Z" fill="#000000" fill-rule="evenodd" fill-opacity="1" /><path clip-path="url(#clip010)" d="M2181.19 1481.64 L2197.51 1481.64 L2197.51 1485.58 L2175.56 1485.58 L2175.56 1481.64 Q2178.23 1478.89 2182.81 1474.26 Q2187.41 1469.61 2188.6 1468.27 Q2190.84 1465.74 2191.72 1464.01 Q2192.62 1462.25 2192.62 1460.56 Q2192.62 1457.8 2190.68 1456.07 Q2188.76 1454.33 2185.66 1454.33 Q2183.46 1454.33 2181 1455.09 Q2178.57 1455.86 2175.79 1457.41 L2175.79 1452.69 Q2178.62 1451.55 2181.07 1450.97 Q2183.53 1450.39 2185.56 1450.39 Q2190.93 1450.39 2194.13 1453.08 Q2197.32 1455.77 2197.32 1460.26 Q2197.32 1462.39 2196.51 1464.31 Q2195.73 1466.2 2193.62 1468.8 Q2193.04 1469.47 2189.94 1472.69 Q2186.84 1475.88 2181.19 1481.64 Z" fill="#000000" fill-rule="evenodd" fill-opacity="1" /><path clip-path="url(#clip010)" d="M2217.32 1454.1 Q2213.71 1454.1 2211.88 1457.66 Q2210.08 1461.2 2210.08 1468.33 Q2210.08 1475.44 2211.88 1479.01 Q2213.71 1482.55 2217.32 1482.55 Q2220.96 1482.55 2222.76 1479.01 Q2224.59 1475.44 2224.59 1468.33 Q2224.59 1461.2 2222.76 1457.66 Q2220.96 1454.1 2217.32 1454.1 M2217.32 1450.39 Q2223.13 1450.39 2226.19 1455 Q2229.27 1459.58 2229.27 1468.33 Q2229.27 1477.06 2226.19 1481.67 Q2223.13 1486.25 2217.32 1486.25 Q2211.51 1486.25 2208.43 1481.67 Q2205.38 1477.06 2205.38 1468.33 Q2205.38 1459.58 2208.43 1455 Q2211.51 1450.39 2217.32 1450.39 Z" fill="#000000" fill-rule="evenodd" fill-opacity="1" /><path clip-path="url(#clip010)" d="M1045.4 1537.81 L1045.4 1518.52 L1051.26 1518.52 L1051.26 1568.04 L1045.4 1568.04 L1045.4 1562.7 Q1043.55 1565.88 1040.72 1567.44 Q1037.92 1568.97 1033.97 1568.97 Q1027.51 1568.97 1023.44 1563.81 Q1019.4 1558.65 1019.4 1550.25 Q1019.4 1541.85 1023.44 1536.69 Q1027.51 1531.54 1033.97 1531.54 Q1037.92 1531.54 1040.72 1533.1 Q1043.55 1534.62 1045.4 1537.81 M1025.44 1550.25 Q1025.44 1556.71 1028.08 1560.4 Q1030.76 1564.07 1035.41 1564.07 Q1040.05 1564.07 1042.73 1560.4 Q1045.4 1556.71 1045.4 1550.25 Q1045.4 1543.79 1042.73 1540.13 Q1040.05 1536.44 1035.41 1536.44 Q1030.76 1536.44 1028.08 1540.13 Q1025.44 1543.79 1025.44 1550.25 Z" fill="#000000" fill-rule="evenodd" fill-opacity="1" /><path clip-path="url(#clip010)" d="M1083.98 1537.87 Q1082.99 1537.3 1081.81 1537.04 Q1080.67 1536.76 1079.26 1536.76 Q1074.3 1536.76 1071.63 1540 Q1068.98 1543.22 1068.98 1549.27 L1068.98 1568.04 L1063.1 1568.04 L1063.1 1532.4 L1068.98 1532.4 L1068.98 1537.93 Q1070.83 1534.69 1073.79 1533.13 Q1076.75 1531.54 1080.98 1531.54 Q1081.59 1531.54 1082.32 1531.63 Q1083.05 1531.7 1083.94 1531.85 L1083.98 1537.87 Z" fill="#000000" fill-rule="evenodd" fill-opacity="1" /><path clip-path="url(#clip010)" d="M1102.5 1536.5 Q1097.79 1536.5 1095.05 1540.19 Q1092.31 1543.85 1092.31 1550.25 Q1092.31 1556.65 1095.02 1560.34 Q1097.76 1564 1102.5 1564 Q1107.18 1564 1109.92 1560.31 Q1112.65 1556.62 1112.65 1550.25 Q1112.65 1543.92 1109.92 1540.23 Q1107.18 1536.5 1102.5 1536.5 M1102.5 1531.54 Q1110.14 1531.54 1114.5 1536.5 Q1118.86 1541.47 1118.86 1550.25 Q1118.86 1559 1114.5 1564 Q1110.14 1568.97 1102.5 1568.97 Q1094.83 1568.97 1090.47 1564 Q1086.14 1559 1086.14 1550.25 Q1086.14 1541.47 1090.47 1536.5 Q1094.83 1531.54 1102.5 1531.54 Z" fill="#000000" fill-rule="evenodd" fill-opacity="1" /><path clip-path="url(#clip010)" d="M1134.23 1562.7 L1134.23 1581.6 L1128.34 1581.6 L1128.34 1532.4 L1134.23 1532.4 L1134.23 1537.81 Q1136.08 1534.62 1138.88 1533.1 Q1141.71 1531.54 1145.63 1531.54 Q1152.12 1531.54 1156.16 1536.69 Q1160.24 1541.85 1160.24 1550.25 Q1160.24 1558.65 1156.16 1563.81 Q1152.12 1568.97 1145.63 1568.97 Q1141.71 1568.97 1138.88 1567.44 Q1136.08 1565.88 1134.23 1562.7 M1154.16 1550.25 Q1154.16 1543.79 1151.48 1540.13 Q1148.84 1536.44 1144.2 1536.44 Q1139.55 1536.44 1136.87 1540.13 Q1134.23 1543.79 1134.23 1550.25 Q1134.23 1556.71 1136.87 1560.4 Q1139.55 1564.07 1144.2 1564.07 Q1148.84 1564.07 1151.48 1560.4 Q1154.16 1556.71 1154.16 1550.25 Z" fill="#000000" fill-rule="evenodd" fill-opacity="1" /><path clip-path="url(#clip010)" d="M1169.94 1518.52 L1175.8 1518.52 L1175.8 1568.04 L1169.94 1568.04 L1169.94 1518.52 Z" fill="#000000" fill-rule="evenodd" fill-opacity="1" /><path clip-path="url(#clip010)" d="M1218.55 1548.76 L1218.55 1551.62 L1191.62 1551.62 Q1192 1557.67 1195.25 1560.85 Q1198.53 1564 1204.35 1564 Q1207.72 1564 1210.88 1563.17 Q1214.06 1562.35 1217.18 1560.69 L1217.18 1566.23 Q1214.03 1567.57 1210.72 1568.27 Q1207.41 1568.97 1204 1568.97 Q1195.47 1568.97 1190.47 1564 Q1185.51 1559.04 1185.51 1550.57 Q1185.51 1541.82 1190.22 1536.69 Q1194.96 1531.54 1202.98 1531.54 Q1210.18 1531.54 1214.35 1536.18 Q1218.55 1540.8 1218.55 1548.76 M1212.69 1547.04 Q1212.63 1542.23 1209.98 1539.37 Q1207.37 1536.5 1203.05 1536.5 Q1198.14 1536.5 1195.18 1539.27 Q1192.26 1542.04 1191.81 1547.07 L1212.69 1547.04 Z" fill="#000000" fill-rule="evenodd" fill-opacity="1" /><path clip-path="url(#clip010)" d="M1233.95 1522.27 L1233.95 1532.4 L1246.01 1532.4 L1246.01 1536.95 L1233.95 1536.95 L1233.95 1556.3 Q1233.95 1560.66 1235.13 1561.9 Q1236.34 1563.14 1240 1563.14 L1246.01 1563.14 L1246.01 1568.04 L1240 1568.04 Q1233.22 1568.04 1230.64 1565.53 Q1228.06 1562.98 1228.06 1556.3 L1228.06 1536.95 L1223.77 1536.95 L1223.77 1532.4 L1228.06 1532.4 L1228.06 1522.27 L1233.95 1522.27 Z" fill="#000000" fill-rule="evenodd" fill-opacity="1" /><path clip-path="url(#clip010)" d="M1297.9 1537.81 L1297.9 1518.52 L1303.75 1518.52 L1303.75 1568.04 L1297.9 1568.04 L1297.9 1562.7 Q1296.05 1565.88 1293.22 1567.44 Q1290.42 1568.97 1286.47 1568.97 Q1280.01 1568.97 1275.93 1563.81 Q1271.89 1558.65 1271.89 1550.25 Q1271.89 1541.85 1275.93 1536.69 Q1280.01 1531.54 1286.47 1531.54 Q1290.42 1531.54 1293.22 1533.1 Q1296.05 1534.62 1297.9 1537.81 M1277.94 1550.25 Q1277.94 1556.71 1280.58 1560.4 Q1283.25 1564.07 1287.9 1564.07 Q1292.55 1564.07 1295.22 1560.4 Q1297.9 1556.71 1297.9 1550.25 Q1297.9 1543.79 1295.22 1540.13 Q1292.55 1536.44 1287.9 1536.44 Q1283.25 1536.44 1280.58 1540.13 Q1277.94 1543.79 1277.94 1550.25 Z" fill="#000000" fill-rule="evenodd" fill-opacity="1" /><path clip-path="url(#clip010)" d="M1315.81 1532.4 L1321.67 1532.4 L1321.67 1568.04 L1315.81 1568.04 L1315.81 1532.4 M1315.81 1518.52 L1321.67 1518.52 L1321.67 1525.93 L1315.81 1525.93 L1315.81 1518.52 Z" fill="#000000" fill-rule="evenodd" fill-opacity="1" /><path clip-path="url(#clip010)" d="M1350.13 1550.12 Q1343.03 1550.12 1340.29 1551.75 Q1337.55 1553.37 1337.55 1557.29 Q1337.55 1560.4 1339.59 1562.25 Q1341.66 1564.07 1345.19 1564.07 Q1350.06 1564.07 1352.99 1560.63 Q1355.95 1557.16 1355.95 1551.43 L1355.95 1550.12 L1350.13 1550.12 M1361.81 1547.71 L1361.81 1568.04 L1355.95 1568.04 L1355.95 1562.63 Q1353.95 1565.88 1350.95 1567.44 Q1347.96 1568.97 1343.63 1568.97 Q1338.16 1568.97 1334.91 1565.91 Q1331.7 1562.82 1331.7 1557.67 Q1331.7 1551.65 1335.71 1548.6 Q1339.75 1545.54 1347.74 1545.54 L1355.95 1545.54 L1355.95 1544.97 Q1355.95 1540.93 1353.28 1538.73 Q1350.64 1536.5 1345.83 1536.5 Q1342.77 1536.5 1339.88 1537.23 Q1336.98 1537.97 1334.31 1539.43 L1334.31 1534.02 Q1337.52 1532.78 1340.55 1532.17 Q1343.57 1531.54 1346.43 1531.54 Q1354.17 1531.54 1357.99 1535.55 Q1361.81 1539.56 1361.81 1547.71 Z" fill="#000000" fill-rule="evenodd" fill-opacity="1" /><path clip-path="url(#clip010)" d="M1401.62 1539.24 Q1403.82 1535.29 1406.88 1533.41 Q1409.93 1531.54 1414.07 1531.54 Q1419.64 1531.54 1422.66 1535.45 Q1425.69 1539.33 1425.69 1546.53 L1425.69 1568.04 L1419.8 1568.04 L1419.8 1546.72 Q1419.8 1541.59 1417.98 1539.11 Q1416.17 1536.63 1412.45 1536.63 Q1407.89 1536.63 1405.25 1539.65 Q1402.61 1542.68 1402.61 1547.9 L1402.61 1568.04 L1396.72 1568.04 L1396.72 1546.72 Q1396.72 1541.56 1394.91 1539.11 Q1393.09 1536.63 1389.31 1536.63 Q1384.82 1536.63 1382.18 1539.68 Q1379.54 1542.71 1379.54 1547.9 L1379.54 1568.04 L1373.65 1568.04 L1373.65 1532.4 L1379.54 1532.4 L1379.54 1537.93 Q1381.54 1534.66 1384.34 1533.1 Q1387.14 1531.54 1390.99 1531.54 Q1394.88 1531.54 1397.58 1533.51 Q1400.32 1535.48 1401.62 1539.24 Z" fill="#000000" fill-rule="evenodd" fill-opacity="1" /><path clip-path="url(#clip010)" d="M1467.86 1548.76 L1467.86 1551.62 L1440.93 1551.62 Q1441.31 1557.67 1444.56 1560.85 Q1447.84 1564 1453.66 1564 Q1457.04 1564 1460.19 1563.17 Q1463.37 1562.35 1466.49 1560.69 L1466.49 1566.23 Q1463.34 1567.57 1460.03 1568.27 Q1456.72 1568.97 1453.31 1568.97 Q1444.78 1568.97 1439.79 1564 Q1434.82 1559.04 1434.82 1550.57 Q1434.82 1541.82 1439.53 1536.69 Q1444.27 1531.54 1452.3 1531.54 Q1459.49 1531.54 1463.66 1536.18 Q1467.86 1540.8 1467.86 1548.76 M1462 1547.04 Q1461.94 1542.23 1459.3 1539.37 Q1456.69 1536.5 1452.36 1536.5 Q1447.46 1536.5 1444.5 1539.27 Q1441.57 1542.04 1441.12 1547.07 L1462 1547.04 Z" fill="#000000" fill-rule="evenodd" fill-opacity="1" /><path clip-path="url(#clip010)" d="M1483.26 1522.27 L1483.26 1532.4 L1495.33 1532.4 L1495.33 1536.95 L1483.26 1536.95 L1483.26 1556.3 Q1483.26 1560.66 1484.44 1561.9 Q1485.65 1563.14 1489.31 1563.14 L1495.33 1563.14 L1495.33 1568.04 L1489.31 1568.04 Q1482.53 1568.04 1479.95 1565.53 Q1477.38 1562.98 1477.38 1556.3 L1477.38 1536.95 L1473.08 1536.95 L1473.08 1532.4 L1477.38 1532.4 L1477.38 1522.27 L1483.26 1522.27 Z" fill="#000000" fill-rule="evenodd" fill-opacity="1" /><path clip-path="url(#clip010)" d="M1533.52 1548.76 L1533.52 1551.62 L1506.59 1551.62 Q1506.98 1557.67 1510.22 1560.85 Q1513.5 1564 1519.33 1564 Q1522.7 1564 1525.85 1563.17 Q1529.03 1562.35 1532.15 1560.69 L1532.15 1566.23 Q1529 1567.57 1525.69 1568.27 Q1522.38 1568.97 1518.98 1568.97 Q1510.45 1568.97 1505.45 1564 Q1500.48 1559.04 1500.48 1550.57 Q1500.48 1541.82 1505.19 1536.69 Q1509.94 1531.54 1517.96 1531.54 Q1525.15 1531.54 1529.32 1536.18 Q1533.52 1540.8 1533.52 1548.76 M1527.67 1547.04 Q1527.6 1542.23 1524.96 1539.37 Q1522.35 1536.5 1518.02 1536.5 Q1513.12 1536.5 1510.16 1539.27 Q1507.23 1542.04 1506.79 1547.07 L1527.67 1547.04 Z" fill="#000000" fill-rule="evenodd" fill-opacity="1" /><path clip-path="url(#clip010)" d="M1563.79 1537.87 Q1562.8 1537.3 1561.63 1537.04 Q1560.48 1536.76 1559.08 1536.76 Q1554.11 1536.76 1551.44 1540 Q1548.8 1543.22 1548.8 1549.27 L1548.8 1568.04 L1542.91 1568.04 L1542.91 1532.4 L1548.8 1532.4 L1548.8 1537.93 Q1550.65 1534.69 1553.61 1533.13 Q1556.57 1531.54 1560.8 1531.54 Q1561.4 1531.54 1562.14 1531.63 Q1562.87 1531.7 1563.76 1531.85 L1563.79 1537.87 Z" fill="#000000" fill-rule="evenodd" fill-opacity="1" /><path clip-path="url(#clip010)" d="M1604.72 1518.58 Q1600.46 1525.9 1598.39 1533.06 Q1596.32 1540.23 1596.32 1547.58 Q1596.32 1554.93 1598.39 1562.16 Q1600.49 1569.35 1604.72 1576.64 L1599.63 1576.64 Q1594.86 1569.16 1592.47 1561.93 Q1590.11 1554.71 1590.11 1547.58 Q1590.11 1540.48 1592.47 1533.29 Q1594.82 1526.09 1599.63 1518.58 L1604.72 1518.58 Z" fill="#000000" fill-rule="evenodd" fill-opacity="1" /><path clip-path="url(#clip010)" d="M1643.84 1539.24 Q1646.04 1535.29 1649.09 1533.41 Q1652.15 1531.54 1656.28 1531.54 Q1661.85 1531.54 1664.88 1535.45 Q1667.9 1539.33 1667.9 1546.53 L1667.9 1568.04 L1662.01 1568.04 L1662.01 1546.72 Q1662.01 1541.59 1660.2 1539.11 Q1658.39 1536.63 1654.66 1536.63 Q1650.11 1536.63 1647.47 1539.65 Q1644.83 1542.68 1644.83 1547.9 L1644.83 1568.04 L1638.94 1568.04 L1638.94 1546.72 Q1638.94 1541.56 1637.12 1539.11 Q1635.31 1536.63 1631.52 1536.63 Q1627.03 1536.63 1624.39 1539.68 Q1621.75 1542.71 1621.75 1547.9 L1621.75 1568.04 L1615.86 1568.04 L1615.86 1532.4 L1621.75 1532.4 L1621.75 1537.93 Q1623.76 1534.66 1626.56 1533.1 Q1629.36 1531.54 1633.21 1531.54 Q1637.09 1531.54 1639.8 1533.51 Q1642.53 1535.48 1643.84 1539.24 Z" fill="#000000" fill-rule="evenodd" fill-opacity="1" /><path clip-path="url(#clip010)" d="M1678.66 1518.58 L1683.75 1518.58 Q1688.53 1526.09 1690.88 1533.29 Q1693.27 1540.48 1693.27 1547.58 Q1693.27 1554.71 1690.88 1561.93 Q1688.53 1569.16 1683.75 1576.64 L1678.66 1576.64 Q1682.89 1569.35 1684.96 1562.16 Q1687.06 1554.93 1687.06 1547.58 Q1687.06 1540.23 1684.96 1533.06 Q1682.89 1525.9 1678.66 1518.58 Z" fill="#000000" fill-rule="evenodd" fill-opacity="1" /><polyline clip-path="url(#clip012)" style="stroke:#000000; stroke-linecap:butt; stroke-linejoin:round; stroke-width:2; stroke-opacity:0.1; fill:none" points="
  359.909,1386.4 2352.76,1386.4 
  "/>
<polyline clip-path="url(#clip012)" style="stroke:#000000; stroke-linecap:butt; stroke-linejoin:round; stroke-width:2; stroke-opacity:0.1; fill:none" points="
  359.909,967.262 2352.76,967.262 
  "/>
<polyline clip-path="url(#clip012)" style="stroke:#000000; stroke-linecap:butt; stroke-linejoin:round; stroke-width:2; stroke-opacity:0.1; fill:none" points="
  359.909,548.129 2352.76,548.129 
  "/>
<polyline clip-path="url(#clip012)" style="stroke:#000000; stroke-linecap:butt; stroke-linejoin:round; stroke-width:2; stroke-opacity:0.1; fill:none" points="
  359.909,128.995 2352.76,128.995 
  "/>
<polyline clip-path="url(#clip010)" style="stroke:#000000; stroke-linecap:butt; stroke-linejoin:round; stroke-width:4; stroke-opacity:1; fill:none" points="
  359.909,1423.18 359.909,123.472 
  "/>
<polyline clip-path="url(#clip010)" style="stroke:#000000; stroke-linecap:butt; stroke-linejoin:round; stroke-width:4; stroke-opacity:1; fill:none" points="
  359.909,1386.4 378.806,1386.4 
  "/>
<polyline clip-path="url(#clip010)" style="stroke:#000000; stroke-linecap:butt; stroke-linejoin:round; stroke-width:4; stroke-opacity:1; fill:none" points="
  359.909,967.262 378.806,967.262 
  "/>
<polyline clip-path="url(#clip010)" style="stroke:#000000; stroke-linecap:butt; stroke-linejoin:round; stroke-width:4; stroke-opacity:1; fill:none" points="
  359.909,548.129 378.806,548.129 
  "/>
<polyline clip-path="url(#clip010)" style="stroke:#000000; stroke-linecap:butt; stroke-linejoin:round; stroke-width:4; stroke-opacity:1; fill:none" points="
  359.909,128.995 378.806,128.995 
  "/>
<path clip-path="url(#clip010)" d="M311.964 1372.19 Q308.353 1372.19 306.525 1375.76 Q304.719 1379.3 304.719 1386.43 Q304.719 1393.54 306.525 1397.1 Q308.353 1400.64 311.964 1400.64 Q315.599 1400.64 317.404 1397.1 Q319.233 1393.54 319.233 1386.43 Q319.233 1379.3 317.404 1375.76 Q315.599 1372.19 311.964 1372.19 M311.964 1368.49 Q317.775 1368.49 320.83 1373.1 Q323.909 1377.68 323.909 1386.43 Q323.909 1395.16 320.83 1399.76 Q317.775 1404.35 311.964 1404.35 Q306.154 1404.35 303.076 1399.76 Q300.02 1395.16 300.02 1386.43 Q300.02 1377.68 303.076 1373.1 Q306.154 1368.49 311.964 1368.49 Z" fill="#000000" fill-rule="evenodd" fill-opacity="1" /><path clip-path="url(#clip010)" d="M52.4505 956.43 L70.8068 956.43 L70.8068 960.365 L56.7328 960.365 L56.7328 968.837 Q57.7513 968.49 58.7699 968.328 Q59.7884 968.143 60.8069 968.143 Q66.5939 968.143 69.9735 971.314 Q73.3531 974.485 73.3531 979.902 Q73.3531 985.48 69.8809 988.582 Q66.4087 991.661 60.0893 991.661 Q57.9134 991.661 55.6449 991.291 Q53.3995 990.92 50.9921 990.18 L50.9921 985.48 Q53.0754 986.615 55.2977 987.17 Q57.5199 987.726 59.9967 987.726 Q64.0013 987.726 66.3393 985.619 Q68.6772 983.513 68.6772 979.902 Q68.6772 976.291 66.3393 974.184 Q64.0013 972.078 59.9967 972.078 Q58.1217 972.078 56.2467 972.494 Q54.3949 972.911 52.4505 973.791 L52.4505 956.43 Z" fill="#000000" fill-rule="evenodd" fill-opacity="1" /><path clip-path="url(#clip010)" d="M82.566 985.11 L87.4503 985.11 L87.4503 990.99 L82.566 990.99 L82.566 985.11 Z" fill="#000000" fill-rule="evenodd" fill-opacity="1" /><path clip-path="url(#clip010)" d="M107.635 959.508 Q104.024 959.508 102.196 963.073 Q100.39 966.615 100.39 973.744 Q100.39 980.851 102.196 984.416 Q104.024 987.957 107.635 987.957 Q111.27 987.957 113.075 984.416 Q114.904 980.851 114.904 973.744 Q114.904 966.615 113.075 963.073 Q111.27 959.508 107.635 959.508 M107.635 955.805 Q113.445 955.805 116.501 960.411 Q119.58 964.994 119.58 973.744 Q119.58 982.471 116.501 987.078 Q113.445 991.661 107.635 991.661 Q101.825 991.661 98.7465 987.078 Q95.691 982.471 95.691 973.744 Q95.691 964.994 98.7465 960.411 Q101.825 955.805 107.635 955.805 Z" fill="#000000" fill-rule="evenodd" fill-opacity="1" /><path clip-path="url(#clip010)" d="M137.797 959.508 Q134.186 959.508 132.357 963.073 Q130.552 966.615 130.552 973.744 Q130.552 980.851 132.357 984.416 Q134.186 987.957 137.797 987.957 Q141.431 987.957 143.237 984.416 Q145.066 980.851 145.066 973.744 Q145.066 966.615 143.237 963.073 Q141.431 959.508 137.797 959.508 M137.797 955.805 Q143.607 955.805 146.663 960.411 Q149.742 964.994 149.742 973.744 Q149.742 982.471 146.663 987.078 Q143.607 991.661 137.797 991.661 Q131.987 991.661 128.908 987.078 Q125.853 982.471 125.853 973.744 Q125.853 964.994 128.908 960.411 Q131.987 955.805 137.797 955.805 Z" fill="#000000" fill-rule="evenodd" fill-opacity="1" /><path clip-path="url(#clip010)" d="M186.13 965.527 L175.552 976.152 L186.13 986.73 L183.376 989.531 L172.751 978.906 L162.126 989.531 L159.394 986.73 L169.95 976.152 L159.394 965.527 L162.126 962.726 L172.751 973.351 L183.376 962.726 L186.13 965.527 Z" fill="#000000" fill-rule="evenodd" fill-opacity="1" /><path clip-path="url(#clip010)" d="M198.491 987.055 L206.13 987.055 L206.13 960.689 L197.82 962.356 L197.82 958.096 L206.084 956.43 L210.76 956.43 L210.76 987.055 L218.399 987.055 L218.399 990.99 L198.491 990.99 L198.491 987.055 Z" fill="#000000" fill-rule="evenodd" fill-opacity="1" /><path clip-path="url(#clip010)" d="M237.843 959.508 Q234.232 959.508 232.403 963.073 Q230.598 966.615 230.598 973.744 Q230.598 980.851 232.403 984.416 Q234.232 987.957 237.843 987.957 Q241.477 987.957 243.283 984.416 Q245.111 980.851 245.111 973.744 Q245.111 966.615 243.283 963.073 Q241.477 959.508 237.843 959.508 M237.843 955.805 Q243.653 955.805 246.709 960.411 Q249.787 964.994 249.787 973.744 Q249.787 982.471 246.709 987.078 Q243.653 991.661 237.843 991.661 Q232.033 991.661 228.954 987.078 Q225.899 982.471 225.899 973.744 Q225.899 964.994 228.954 960.411 Q232.033 955.805 237.843 955.805 Z" fill="#000000" fill-rule="evenodd" fill-opacity="1" /><path clip-path="url(#clip010)" d="M249.787 949.906 L273.899 949.906 L273.899 953.103 L249.787 953.103 L249.787 949.906 Z" fill="#000000" fill-rule="evenodd" fill-opacity="1" /><path clip-path="url(#clip010)" d="M282.757 960.382 L288.964 960.382 L288.964 938.96 L282.212 940.314 L282.212 936.853 L288.926 935.499 L292.725 935.499 L292.725 960.382 L298.932 960.382 L298.932 963.579 L282.757 963.579 L282.757 960.382 Z" fill="#000000" fill-rule="evenodd" fill-opacity="1" /><path clip-path="url(#clip010)" d="M318.116 948.439 Q320.843 949.022 322.367 950.865 Q323.909 952.708 323.909 955.417 Q323.909 959.573 321.05 961.849 Q318.191 964.125 312.925 964.125 Q311.157 964.125 309.276 963.767 Q307.414 963.429 305.421 962.733 L305.421 959.065 Q307.001 959.987 308.881 960.457 Q310.762 960.927 312.812 960.927 Q316.386 960.927 318.248 959.517 Q320.128 958.106 320.128 955.417 Q320.128 952.934 318.379 951.542 Q316.649 950.132 313.546 950.132 L310.273 950.132 L310.273 947.01 L313.696 947.01 Q316.499 947.01 317.984 945.9 Q319.47 944.772 319.47 942.665 Q319.47 940.502 317.928 939.355 Q316.404 938.189 313.546 938.189 Q311.985 938.189 310.198 938.527 Q308.411 938.866 306.267 939.581 L306.267 936.195 Q308.43 935.593 310.311 935.292 Q312.21 934.991 313.884 934.991 Q318.21 934.991 320.73 936.966 Q323.251 938.922 323.251 942.27 Q323.251 944.602 321.915 946.22 Q320.58 947.818 318.116 948.439 Z" fill="#000000" fill-rule="evenodd" fill-opacity="1" /><path clip-path="url(#clip010)" d="M53.9855 567.921 L61.6243 567.921 L61.6243 541.555 L53.3142 543.222 L53.3142 538.963 L61.578 537.296 L66.2539 537.296 L66.2539 567.921 L73.8928 567.921 L73.8928 571.856 L53.9855 571.856 L53.9855 567.921 Z" fill="#000000" fill-rule="evenodd" fill-opacity="1" /><path clip-path="url(#clip010)" d="M83.3371 565.977 L88.2214 565.977 L88.2214 571.856 L83.3371 571.856 L83.3371 565.977 Z" fill="#000000" fill-rule="evenodd" fill-opacity="1" /><path clip-path="url(#clip010)" d="M108.406 540.375 Q104.795 540.375 102.967 543.94 Q101.161 547.481 101.161 554.611 Q101.161 561.717 102.967 565.282 Q104.795 568.824 108.406 568.824 Q112.041 568.824 113.846 565.282 Q115.675 561.717 115.675 554.611 Q115.675 547.481 113.846 543.94 Q112.041 540.375 108.406 540.375 M108.406 536.671 Q114.217 536.671 117.272 541.278 Q120.351 545.861 120.351 554.611 Q120.351 563.338 117.272 567.944 Q114.217 572.527 108.406 572.527 Q102.596 572.527 99.5176 567.944 Q96.4621 563.338 96.4621 554.611 Q96.4621 545.861 99.5176 541.278 Q102.596 536.671 108.406 536.671 Z" fill="#000000" fill-rule="evenodd" fill-opacity="1" /><path clip-path="url(#clip010)" d="M138.568 540.375 Q134.957 540.375 133.129 543.94 Q131.323 547.481 131.323 554.611 Q131.323 561.717 133.129 565.282 Q134.957 568.824 138.568 568.824 Q142.203 568.824 144.008 565.282 Q145.837 561.717 145.837 554.611 Q145.837 547.481 144.008 543.94 Q142.203 540.375 138.568 540.375 M138.568 536.671 Q144.378 536.671 147.434 541.278 Q150.513 545.861 150.513 554.611 Q150.513 563.338 147.434 567.944 Q144.378 572.527 138.568 572.527 Q132.758 572.527 129.679 567.944 Q126.624 563.338 126.624 554.611 Q126.624 545.861 129.679 541.278 Q132.758 536.671 138.568 536.671 Z" fill="#000000" fill-rule="evenodd" fill-opacity="1" /><path clip-path="url(#clip010)" d="M186.901 546.393 L176.323 557.018 L186.901 567.597 L184.147 570.398 L173.522 559.773 L162.897 570.398 L160.165 567.597 L170.721 557.018 L160.165 546.393 L162.897 543.592 L173.522 554.217 L184.147 543.592 L186.901 546.393 Z" fill="#000000" fill-rule="evenodd" fill-opacity="1" /><path clip-path="url(#clip010)" d="M199.262 567.921 L206.901 567.921 L206.901 541.555 L198.591 543.222 L198.591 538.963 L206.855 537.296 L211.531 537.296 L211.531 567.921 L219.17 567.921 L219.17 571.856 L199.262 571.856 L199.262 567.921 Z" fill="#000000" fill-rule="evenodd" fill-opacity="1" /><path clip-path="url(#clip010)" d="M238.614 540.375 Q235.003 540.375 233.174 543.94 Q231.369 547.481 231.369 554.611 Q231.369 561.717 233.174 565.282 Q235.003 568.824 238.614 568.824 Q242.248 568.824 244.054 565.282 Q245.883 561.717 245.883 554.611 Q245.883 547.481 244.054 543.94 Q242.248 540.375 238.614 540.375 M238.614 536.671 Q244.424 536.671 247.48 541.278 Q250.558 545.861 250.558 554.611 Q250.558 563.338 247.48 567.944 Q244.424 572.527 238.614 572.527 Q232.804 572.527 229.725 567.944 Q226.67 563.338 226.67 554.611 Q226.67 545.861 229.725 541.278 Q232.804 536.671 238.614 536.671 Z" fill="#000000" fill-rule="evenodd" fill-opacity="1" /><path clip-path="url(#clip010)" d="M250.558 530.773 L274.67 530.773 L274.67 533.97 L250.558 533.97 L250.558 530.773 Z" fill="#000000" fill-rule="evenodd" fill-opacity="1" /><path clip-path="url(#clip010)" d="M283.528 541.248 L289.735 541.248 L289.735 519.826 L282.983 521.181 L282.983 517.72 L289.697 516.366 L293.497 516.366 L293.497 541.248 L299.703 541.248 L299.703 544.446 L283.528 544.446 L283.528 541.248 Z" fill="#000000" fill-rule="evenodd" fill-opacity="1" /><path clip-path="url(#clip010)" d="M310.649 541.248 L323.909 541.248 L323.909 544.446 L306.079 544.446 L306.079 541.248 Q308.242 539.01 311.966 535.249 Q315.709 531.468 316.668 530.378 Q318.492 528.327 319.207 526.917 Q319.94 525.488 319.94 524.115 Q319.94 521.876 318.36 520.466 Q316.799 519.055 314.279 519.055 Q312.492 519.055 310.499 519.676 Q308.524 520.297 306.267 521.557 L306.267 517.72 Q308.562 516.798 310.555 516.328 Q312.549 515.858 314.204 515.858 Q318.567 515.858 321.163 518.04 Q323.758 520.221 323.758 523.87 Q323.758 525.6 323.1 527.161 Q322.461 528.704 320.749 530.81 Q320.279 531.356 317.759 533.97 Q315.238 536.565 310.649 541.248 Z" fill="#000000" fill-rule="evenodd" fill-opacity="1" /><path clip-path="url(#clip010)" d="M53.9855 148.787 L61.6243 148.787 L61.6243 122.422 L53.3142 124.088 L53.3142 119.829 L61.578 118.163 L66.2539 118.163 L66.2539 148.787 L73.8928 148.787 L73.8928 152.723 L53.9855 152.723 L53.9855 148.787 Z" fill="#000000" fill-rule="evenodd" fill-opacity="1" /><path clip-path="url(#clip010)" d="M83.3371 146.843 L88.2214 146.843 L88.2214 152.723 L83.3371 152.723 L83.3371 146.843 Z" fill="#000000" fill-rule="evenodd" fill-opacity="1" /><path clip-path="url(#clip010)" d="M98.4528 118.163 L116.809 118.163 L116.809 122.098 L102.735 122.098 L102.735 130.57 Q103.754 130.223 104.772 130.061 Q105.791 129.875 106.809 129.875 Q112.596 129.875 115.976 133.047 Q119.355 136.218 119.355 141.635 Q119.355 147.213 115.883 150.315 Q112.411 153.394 106.092 153.394 Q103.916 153.394 101.647 153.024 Q99.4019 152.653 96.9945 151.912 L96.9945 147.213 Q99.0778 148.348 101.3 148.903 Q103.522 149.459 105.999 149.459 Q110.004 149.459 112.342 147.352 Q114.68 145.246 114.68 141.635 Q114.68 138.024 112.342 135.917 Q110.004 133.811 105.999 133.811 Q104.124 133.811 102.249 134.227 Q100.397 134.644 98.4528 135.524 L98.4528 118.163 Z" fill="#000000" fill-rule="evenodd" fill-opacity="1" /><path clip-path="url(#clip010)" d="M138.568 121.241 Q134.957 121.241 133.129 124.806 Q131.323 128.348 131.323 135.477 Q131.323 142.584 133.129 146.149 Q134.957 149.69 138.568 149.69 Q142.203 149.69 144.008 146.149 Q145.837 142.584 145.837 135.477 Q145.837 128.348 144.008 124.806 Q142.203 121.241 138.568 121.241 M138.568 117.538 Q144.378 117.538 147.434 122.144 Q150.513 126.727 150.513 135.477 Q150.513 144.204 147.434 148.811 Q144.378 153.394 138.568 153.394 Q132.758 153.394 129.679 148.811 Q126.624 144.204 126.624 135.477 Q126.624 126.727 129.679 122.144 Q132.758 117.538 138.568 117.538 Z" fill="#000000" fill-rule="evenodd" fill-opacity="1" /><path clip-path="url(#clip010)" d="M186.901 127.26 L176.323 137.885 L186.901 148.463 L184.147 151.264 L173.522 140.639 L162.897 151.264 L160.165 148.463 L170.721 137.885 L160.165 127.26 L162.897 124.459 L173.522 135.084 L184.147 124.459 L186.901 127.26 Z" fill="#000000" fill-rule="evenodd" fill-opacity="1" /><path clip-path="url(#clip010)" d="M199.262 148.787 L206.901 148.787 L206.901 122.422 L198.591 124.088 L198.591 119.829 L206.855 118.163 L211.531 118.163 L211.531 148.787 L219.17 148.787 L219.17 152.723 L199.262 152.723 L199.262 148.787 Z" fill="#000000" fill-rule="evenodd" fill-opacity="1" /><path clip-path="url(#clip010)" d="M238.614 121.241 Q235.003 121.241 233.174 124.806 Q231.369 128.348 231.369 135.477 Q231.369 142.584 233.174 146.149 Q235.003 149.69 238.614 149.69 Q242.248 149.69 244.054 146.149 Q245.883 142.584 245.883 135.477 Q245.883 128.348 244.054 124.806 Q242.248 121.241 238.614 121.241 M238.614 117.538 Q244.424 117.538 247.48 122.144 Q250.558 126.727 250.558 135.477 Q250.558 144.204 247.48 148.811 Q244.424 153.394 238.614 153.394 Q232.804 153.394 229.725 148.811 Q226.67 144.204 226.67 135.477 Q226.67 126.727 229.725 122.144 Q232.804 117.538 238.614 117.538 Z" fill="#000000" fill-rule="evenodd" fill-opacity="1" /><path clip-path="url(#clip010)" d="M250.558 111.639 L274.67 111.639 L274.67 114.836 L250.558 114.836 L250.558 111.639 Z" fill="#000000" fill-rule="evenodd" fill-opacity="1" /><path clip-path="url(#clip010)" d="M283.528 122.115 L289.735 122.115 L289.735 100.693 L282.983 102.047 L282.983 98.5864 L289.697 97.2322 L293.497 97.2322 L293.497 122.115 L299.703 122.115 L299.703 125.312 L283.528 125.312 L283.528 122.115 Z" fill="#000000" fill-rule="evenodd" fill-opacity="1" /><path clip-path="url(#clip010)" d="M310.649 122.115 L323.909 122.115 L323.909 125.312 L306.079 125.312 L306.079 122.115 Q308.242 119.877 311.966 116.115 Q315.709 112.335 316.668 111.244 Q318.492 109.194 319.207 107.783 Q319.94 106.354 319.94 104.981 Q319.94 102.743 318.36 101.332 Q316.799 99.9217 314.279 99.9217 Q312.492 99.9217 310.499 100.542 Q308.524 101.163 306.267 102.423 L306.267 98.5864 Q308.562 97.6648 310.555 97.1946 Q312.549 96.7244 314.204 96.7244 Q318.567 96.7244 321.163 98.9061 Q323.758 101.088 323.758 104.736 Q323.758 106.467 323.1 108.028 Q322.461 109.57 320.749 111.677 Q320.279 112.222 317.759 114.836 Q315.238 117.432 310.649 122.115 Z" fill="#000000" fill-rule="evenodd" fill-opacity="1" /><path clip-path="url(#clip010)" d="M828.277 34.0924 L828.277 9.54393 L835.73 9.54393 L835.73 72.576 L828.277 72.576 L828.277 65.7705 Q825.927 69.8214 822.322 71.8063 Q818.757 73.7508 813.734 73.7508 Q805.511 73.7508 800.325 67.1883 Q795.181 60.6258 795.181 49.9314 Q795.181 39.2371 800.325 32.6746 Q805.511 26.1121 813.734 26.1121 Q818.757 26.1121 822.322 28.0971 Q825.927 30.0415 828.277 34.0924 M802.878 49.9314 Q802.878 58.1548 806.24 62.8538 Q809.643 67.5124 815.557 67.5124 Q821.471 67.5124 824.874 62.8538 Q828.277 58.1548 828.277 49.9314 Q828.277 41.7081 824.874 37.0496 Q821.471 32.3505 815.557 32.3505 Q809.643 32.3505 806.24 37.0496 Q802.878 41.7081 802.878 49.9314 Z" fill="#000000" fill-rule="evenodd" fill-opacity="1" /><path clip-path="url(#clip010)" d="M851.083 27.2059 L858.537 27.2059 L858.537 72.576 L851.083 72.576 L851.083 27.2059 M851.083 9.54393 L858.537 9.54393 L858.537 18.9825 L851.083 18.9825 L851.083 9.54393 Z" fill="#000000" fill-rule="evenodd" fill-opacity="1" /><path clip-path="url(#clip010)" d="M903.056 28.5427 L903.056 35.5912 Q899.897 33.9709 896.494 33.1607 Q893.091 32.3505 889.445 32.3505 Q883.896 32.3505 881.101 34.0519 Q878.346 35.7533 878.346 39.156 Q878.346 41.7486 880.331 43.2475 Q882.316 44.7058 888.311 46.0426 L890.863 46.6097 Q898.803 48.3111 902.125 51.4303 Q905.487 54.509 905.487 60.0587 Q905.487 66.3781 900.464 70.0644 Q895.481 73.7508 886.731 73.7508 Q883.085 73.7508 879.116 73.0216 Q875.186 72.3329 870.811 70.9151 L870.811 63.2184 Q874.943 65.3654 878.954 66.4591 Q882.964 67.5124 886.893 67.5124 Q892.159 67.5124 894.995 65.73 Q897.831 63.9071 897.831 60.6258 Q897.831 57.5877 895.765 55.9673 Q893.739 54.3469 886.812 52.8481 L884.22 52.2405 Q877.293 50.7821 874.214 47.7845 Q871.135 44.7463 871.135 39.4801 Q871.135 33.0797 875.672 29.5959 Q880.209 26.1121 888.554 26.1121 Q892.686 26.1121 896.332 26.7198 Q899.978 27.3274 903.056 28.5427 Z" fill="#000000" fill-rule="evenodd" fill-opacity="1" /><path clip-path="url(#clip010)" d="M924.729 14.324 L924.729 27.2059 L940.082 27.2059 L940.082 32.9987 L924.729 32.9987 L924.729 57.6282 Q924.729 63.1779 926.228 64.7578 Q927.767 66.3376 932.425 66.3376 L940.082 66.3376 L940.082 72.576 L932.425 72.576 Q923.797 72.576 920.516 69.3758 Q917.235 66.1351 917.235 57.6282 L917.235 32.9987 L911.766 32.9987 L911.766 27.2059 L917.235 27.2059 L917.235 14.324 L924.729 14.324 Z" fill="#000000" fill-rule="evenodd" fill-opacity="1" /><path clip-path="url(#clip010)" d="M976.175 34.1734 Q974.919 33.4443 973.421 33.1202 Q971.962 32.7556 970.18 32.7556 Q963.86 32.7556 960.458 36.8875 Q957.095 40.9789 957.095 48.6757 L957.095 72.576 L949.601 72.576 L949.601 27.2059 L957.095 27.2059 L957.095 34.2544 Q959.445 30.1225 963.212 28.1376 Q966.98 26.1121 972.367 26.1121 Q973.137 26.1121 974.069 26.2337 Q975 26.3147 976.135 26.5172 L976.175 34.1734 Z" fill="#000000" fill-rule="evenodd" fill-opacity="1" /><path clip-path="url(#clip010)" d="M983.993 27.2059 L991.447 27.2059 L991.447 72.576 L983.993 72.576 L983.993 27.2059 M983.993 9.54393 L991.447 9.54393 L991.447 18.9825 L983.993 18.9825 L983.993 9.54393 Z" fill="#000000" fill-rule="evenodd" fill-opacity="1" /><path clip-path="url(#clip010)" d="M1039.61 49.9314 Q1039.61 41.7081 1036.21 37.0496 Q1032.85 32.3505 1026.93 32.3505 Q1021.02 32.3505 1017.62 37.0496 Q1014.25 41.7081 1014.25 49.9314 Q1014.25 58.1548 1017.62 62.8538 Q1021.02 67.5124 1026.93 67.5124 Q1032.85 67.5124 1036.21 62.8538 Q1039.61 58.1548 1039.61 49.9314 M1014.25 34.0924 Q1016.6 30.0415 1020.17 28.0971 Q1023.77 26.1121 1028.76 26.1121 Q1037.02 26.1121 1042.16 32.6746 Q1047.35 39.2371 1047.35 49.9314 Q1047.35 60.6258 1042.16 67.1883 Q1037.02 73.7508 1028.76 73.7508 Q1023.77 73.7508 1020.17 71.8063 Q1016.6 69.8214 1014.25 65.7705 L1014.25 72.576 L1006.76 72.576 L1006.76 9.54393 L1014.25 9.54393 L1014.25 34.0924 Z" fill="#000000" fill-rule="evenodd" fill-opacity="1" /><path clip-path="url(#clip010)" d="M1058.94 54.671 L1058.94 27.2059 L1066.39 27.2059 L1066.39 54.3874 Q1066.39 60.8284 1068.9 64.0691 Q1071.41 67.2693 1076.44 67.2693 Q1082.47 67.2693 1085.95 63.421 Q1089.48 59.5726 1089.48 52.9291 L1089.48 27.2059 L1096.93 27.2059 L1096.93 72.576 L1089.48 72.576 L1089.48 65.6084 Q1086.76 69.7404 1083.16 71.7658 Q1079.59 73.7508 1074.86 73.7508 Q1067.04 73.7508 1062.99 68.8897 Q1058.94 64.0286 1058.94 54.671 M1077.69 26.1121 L1077.69 26.1121 Z" fill="#000000" fill-rule="evenodd" fill-opacity="1" /><path clip-path="url(#clip010)" d="M1119.66 14.324 L1119.66 27.2059 L1135.01 27.2059 L1135.01 32.9987 L1119.66 32.9987 L1119.66 57.6282 Q1119.66 63.1779 1121.16 64.7578 Q1122.7 66.3376 1127.35 66.3376 L1135.01 66.3376 L1135.01 72.576 L1127.35 72.576 Q1118.73 72.576 1115.45 69.3758 Q1112.16 66.1351 1112.16 57.6282 L1112.16 32.9987 L1106.7 32.9987 L1106.7 27.2059 L1112.16 27.2059 L1112.16 14.324 L1119.66 14.324 Z" fill="#000000" fill-rule="evenodd" fill-opacity="1" /><path clip-path="url(#clip010)" d="M1144.81 27.2059 L1152.27 27.2059 L1152.27 72.576 L1144.81 72.576 L1144.81 27.2059 M1144.81 9.54393 L1152.27 9.54393 L1152.27 18.9825 L1144.81 18.9825 L1144.81 9.54393 Z" fill="#000000" fill-rule="evenodd" fill-opacity="1" /><path clip-path="url(#clip010)" d="M1185.44 32.4315 Q1179.45 32.4315 1175.97 37.1306 Q1172.48 41.7891 1172.48 49.9314 Q1172.48 58.0738 1175.93 62.7728 Q1179.41 67.4314 1185.44 67.4314 Q1191.4 67.4314 1194.88 62.7323 Q1198.37 58.0333 1198.37 49.9314 Q1198.37 41.8701 1194.88 37.1711 Q1191.4 32.4315 1185.44 32.4315 M1185.44 26.1121 Q1195.17 26.1121 1200.72 32.4315 Q1206.27 38.7509 1206.27 49.9314 Q1206.27 61.0714 1200.72 67.4314 Q1195.17 73.7508 1185.44 73.7508 Q1175.68 73.7508 1170.13 67.4314 Q1164.62 61.0714 1164.62 49.9314 Q1164.62 38.7509 1170.13 32.4315 Q1175.68 26.1121 1185.44 26.1121 Z" fill="#000000" fill-rule="evenodd" fill-opacity="1" /><path clip-path="url(#clip010)" d="M1256.34 45.1919 L1256.34 72.576 L1248.88 72.576 L1248.88 45.4349 Q1248.88 38.994 1246.37 35.7938 Q1243.86 32.5936 1238.84 32.5936 Q1232.8 32.5936 1229.32 36.4419 Q1225.83 40.2903 1225.83 46.9338 L1225.83 72.576 L1218.34 72.576 L1218.34 27.2059 L1225.83 27.2059 L1225.83 34.2544 Q1228.51 30.163 1232.11 28.1376 Q1235.76 26.1121 1240.5 26.1121 Q1248.31 26.1121 1252.33 30.9732 Q1256.34 35.7938 1256.34 45.1919 Z" fill="#000000" fill-rule="evenodd" fill-opacity="1" /><path clip-path="url(#clip010)" d="M1315.15 32.4315 Q1309.16 32.4315 1305.68 37.1306 Q1302.19 41.7891 1302.19 49.9314 Q1302.19 58.0738 1305.64 62.7728 Q1309.12 67.4314 1315.15 67.4314 Q1321.11 67.4314 1324.59 62.7323 Q1328.08 58.0333 1328.08 49.9314 Q1328.08 41.8701 1324.59 37.1711 Q1321.11 32.4315 1315.15 32.4315 M1315.15 26.1121 Q1324.88 26.1121 1330.43 32.4315 Q1335.98 38.7509 1335.98 49.9314 Q1335.98 61.0714 1330.43 67.4314 Q1324.88 73.7508 1315.15 73.7508 Q1305.39 73.7508 1299.84 67.4314 Q1294.33 61.0714 1294.33 49.9314 Q1294.33 38.7509 1299.84 32.4315 Q1305.39 26.1121 1315.15 26.1121 Z" fill="#000000" fill-rule="evenodd" fill-opacity="1" /><path clip-path="url(#clip010)" d="M1371.3 9.54393 L1371.3 15.7418 L1364.17 15.7418 Q1360.16 15.7418 1358.58 17.3622 Q1357.04 18.9825 1357.04 23.1955 L1357.04 27.2059 L1369.32 27.2059 L1369.32 32.9987 L1357.04 32.9987 L1357.04 72.576 L1349.55 72.576 L1349.55 32.9987 L1342.42 32.9987 L1342.42 27.2059 L1349.55 27.2059 L1349.55 24.0462 Q1349.55 16.471 1353.07 13.0277 Q1356.6 9.54393 1364.25 9.54393 L1371.3 9.54393 Z" fill="#000000" fill-rule="evenodd" fill-opacity="1" /><path clip-path="url(#clip010)" d="M1433.77 34.0924 L1433.77 9.54393 L1441.22 9.54393 L1441.22 72.576 L1433.77 72.576 L1433.77 65.7705 Q1431.42 69.8214 1427.81 71.8063 Q1424.25 73.7508 1419.22 73.7508 Q1411 73.7508 1405.81 67.1883 Q1400.67 60.6258 1400.67 49.9314 Q1400.67 39.2371 1405.81 32.6746 Q1411 26.1121 1419.22 26.1121 Q1424.25 26.1121 1427.81 28.0971 Q1431.42 30.0415 1433.77 34.0924 M1408.37 49.9314 Q1408.37 58.1548 1411.73 62.8538 Q1415.13 67.5124 1421.05 67.5124 Q1426.96 67.5124 1430.36 62.8538 Q1433.77 58.1548 1433.77 49.9314 Q1433.77 41.7081 1430.36 37.0496 Q1426.96 32.3505 1421.05 32.3505 Q1415.13 32.3505 1411.73 37.0496 Q1408.37 41.7081 1408.37 49.9314 Z" fill="#000000" fill-rule="evenodd" fill-opacity="1" /><path clip-path="url(#clip010)" d="M1482.86 34.1734 Q1481.61 33.4443 1480.11 33.1202 Q1478.65 32.7556 1476.87 32.7556 Q1470.55 32.7556 1467.14 36.8875 Q1463.78 40.9789 1463.78 48.6757 L1463.78 72.576 L1456.29 72.576 L1456.29 27.2059 L1463.78 27.2059 L1463.78 34.2544 Q1466.13 30.1225 1469.9 28.1376 Q1473.67 26.1121 1479.05 26.1121 Q1479.82 26.1121 1480.76 26.2337 Q1481.69 26.3147 1482.82 26.5172 L1482.86 34.1734 Z" fill="#000000" fill-rule="evenodd" fill-opacity="1" /><path clip-path="url(#clip010)" d="M1506.44 32.4315 Q1500.44 32.4315 1496.96 37.1306 Q1493.48 41.7891 1493.48 49.9314 Q1493.48 58.0738 1496.92 62.7728 Q1500.4 67.4314 1506.44 67.4314 Q1512.39 67.4314 1515.88 62.7323 Q1519.36 58.0333 1519.36 49.9314 Q1519.36 41.8701 1515.88 37.1711 Q1512.39 32.4315 1506.44 32.4315 M1506.44 26.1121 Q1516.16 26.1121 1521.71 32.4315 Q1527.26 38.7509 1527.26 49.9314 Q1527.26 61.0714 1521.71 67.4314 Q1516.16 73.7508 1506.44 73.7508 Q1496.68 73.7508 1491.13 67.4314 Q1485.62 61.0714 1485.62 49.9314 Q1485.62 38.7509 1491.13 32.4315 Q1496.68 26.1121 1506.44 26.1121 Z" fill="#000000" fill-rule="evenodd" fill-opacity="1" /><path clip-path="url(#clip010)" d="M1546.83 65.7705 L1546.83 89.8329 L1539.33 89.8329 L1539.33 27.2059 L1546.83 27.2059 L1546.83 34.0924 Q1549.18 30.0415 1552.74 28.0971 Q1556.35 26.1121 1561.33 26.1121 Q1569.59 26.1121 1574.74 32.6746 Q1579.92 39.2371 1579.92 49.9314 Q1579.92 60.6258 1574.74 67.1883 Q1569.59 73.7508 1561.33 73.7508 Q1556.35 73.7508 1552.74 71.8063 Q1549.18 69.8214 1546.83 65.7705 M1572.18 49.9314 Q1572.18 41.7081 1568.78 37.0496 Q1565.42 32.3505 1559.51 32.3505 Q1553.59 32.3505 1550.19 37.0496 Q1546.83 41.7081 1546.83 49.9314 Q1546.83 58.1548 1550.19 62.8538 Q1553.59 67.5124 1559.51 67.5124 Q1565.42 67.5124 1568.78 62.8538 Q1572.18 58.1548 1572.18 49.9314 Z" fill="#000000" fill-rule="evenodd" fill-opacity="1" /><path clip-path="url(#clip010)" d="M1592.28 9.54393 L1599.73 9.54393 L1599.73 72.576 L1592.28 72.576 L1592.28 9.54393 Z" fill="#000000" fill-rule="evenodd" fill-opacity="1" /><path clip-path="url(#clip010)" d="M1654.13 48.0275 L1654.13 51.6733 L1619.86 51.6733 Q1620.35 59.3701 1624.48 63.421 Q1628.65 67.4314 1636.07 67.4314 Q1640.36 67.4314 1644.37 66.3781 Q1648.42 65.3249 1652.39 63.2184 L1652.39 70.267 Q1648.38 71.9684 1644.17 72.8596 Q1639.96 73.7508 1635.62 73.7508 Q1624.77 73.7508 1618.41 67.4314 Q1612.09 61.1119 1612.09 50.3365 Q1612.09 39.1965 1618.08 32.6746 Q1624.12 26.1121 1634.33 26.1121 Q1643.48 26.1121 1648.79 32.0264 Q1654.13 37.9003 1654.13 48.0275 M1646.68 45.84 Q1646.6 39.7232 1643.24 36.0774 Q1639.92 32.4315 1634.41 32.4315 Q1628.17 32.4315 1624.4 35.9558 Q1620.67 39.4801 1620.11 45.8805 L1646.68 45.84 Z" fill="#000000" fill-rule="evenodd" fill-opacity="1" /><path clip-path="url(#clip010)" d="M1673.74 14.324 L1673.74 27.2059 L1689.09 27.2059 L1689.09 32.9987 L1673.74 32.9987 L1673.74 57.6282 Q1673.74 63.1779 1675.24 64.7578 Q1676.78 66.3376 1681.44 66.3376 L1689.09 66.3376 L1689.09 72.576 L1681.44 72.576 Q1672.81 72.576 1669.53 69.3758 Q1666.25 66.1351 1666.25 57.6282 L1666.25 32.9987 L1660.78 32.9987 L1660.78 27.2059 L1666.25 27.2059 L1666.25 14.324 L1673.74 14.324 Z" fill="#000000" fill-rule="evenodd" fill-opacity="1" /><path clip-path="url(#clip010)" d="M1754.19 28.5427 L1754.19 35.5912 Q1751.03 33.9709 1747.63 33.1607 Q1744.23 32.3505 1740.58 32.3505 Q1735.03 32.3505 1732.24 34.0519 Q1729.48 35.7533 1729.48 39.156 Q1729.48 41.7486 1731.47 43.2475 Q1733.45 44.7058 1739.45 46.0426 L1742 46.6097 Q1749.94 48.3111 1753.26 51.4303 Q1756.62 54.509 1756.62 60.0587 Q1756.62 66.3781 1751.6 70.0644 Q1746.62 73.7508 1737.87 73.7508 Q1734.22 73.7508 1730.25 73.0216 Q1726.32 72.3329 1721.95 70.9151 L1721.95 63.2184 Q1726.08 65.3654 1730.09 66.4591 Q1734.1 67.5124 1738.03 67.5124 Q1743.29 67.5124 1746.13 65.73 Q1748.97 63.9071 1748.97 60.6258 Q1748.97 57.5877 1746.9 55.9673 Q1744.87 54.3469 1737.95 52.8481 L1735.36 52.2405 Q1728.43 50.7821 1725.35 47.7845 Q1722.27 44.7463 1722.27 39.4801 Q1722.27 33.0797 1726.81 29.5959 Q1731.34 26.1121 1739.69 26.1121 Q1743.82 26.1121 1747.47 26.7198 Q1751.11 27.3274 1754.19 28.5427 Z" fill="#000000" fill-rule="evenodd" fill-opacity="1" /><path clip-path="url(#clip010)" d="M1768.49 27.2059 L1775.95 27.2059 L1775.95 72.576 L1768.49 72.576 L1768.49 27.2059 M1768.49 9.54393 L1775.95 9.54393 L1775.95 18.9825 L1768.49 18.9825 L1768.49 9.54393 Z" fill="#000000" fill-rule="evenodd" fill-opacity="1" /><path clip-path="url(#clip010)" d="M1788.3 27.2059 L1823.71 27.2059 L1823.71 34.0114 L1795.67 66.6212 L1823.71 66.6212 L1823.71 72.576 L1787.29 72.576 L1787.29 65.7705 L1815.32 33.1607 L1788.3 33.1607 L1788.3 27.2059 Z" fill="#000000" fill-rule="evenodd" fill-opacity="1" /><path clip-path="url(#clip010)" d="M1873.9 48.0275 L1873.9 51.6733 L1839.63 51.6733 Q1840.11 59.3701 1844.24 63.421 Q1848.42 67.4314 1855.83 67.4314 Q1860.12 67.4314 1864.13 66.3781 Q1868.18 65.3249 1872.15 63.2184 L1872.15 70.267 Q1868.14 71.9684 1863.93 72.8596 Q1859.72 73.7508 1855.38 73.7508 Q1844.53 73.7508 1838.17 67.4314 Q1831.85 61.1119 1831.85 50.3365 Q1831.85 39.1965 1837.84 32.6746 Q1843.88 26.1121 1854.09 26.1121 Q1863.24 26.1121 1868.55 32.0264 Q1873.9 37.9003 1873.9 48.0275 M1866.44 45.84 Q1866.36 39.7232 1863 36.0774 Q1859.68 32.4315 1854.17 32.4315 Q1847.93 32.4315 1844.16 35.9558 Q1840.44 39.4801 1839.87 45.8805 L1866.44 45.84 Z" fill="#000000" fill-rule="evenodd" fill-opacity="1" /><path clip-path="url(#clip010)" d="M1915.05 28.5427 L1915.05 35.5912 Q1911.89 33.9709 1908.49 33.1607 Q1905.09 32.3505 1901.44 32.3505 Q1895.89 32.3505 1893.1 34.0519 Q1890.34 35.7533 1890.34 39.156 Q1890.34 41.7486 1892.33 43.2475 Q1894.31 44.7058 1900.31 46.0426 L1902.86 46.6097 Q1910.8 48.3111 1914.12 51.4303 Q1917.48 54.509 1917.48 60.0587 Q1917.48 66.3781 1912.46 70.0644 Q1907.48 73.7508 1898.73 73.7508 Q1895.08 73.7508 1891.11 73.0216 Q1887.18 72.3329 1882.81 70.9151 L1882.81 63.2184 Q1886.94 65.3654 1890.95 66.4591 Q1894.96 67.5124 1898.89 67.5124 Q1904.16 67.5124 1906.99 65.73 Q1909.83 63.9071 1909.83 60.6258 Q1909.83 57.5877 1907.76 55.9673 Q1905.74 54.3469 1898.81 52.8481 L1896.22 52.2405 Q1889.29 50.7821 1886.21 47.7845 Q1883.13 44.7463 1883.13 39.4801 Q1883.13 33.0797 1887.67 29.5959 Q1892.21 26.1121 1900.55 26.1121 Q1904.68 26.1121 1908.33 26.7198 Q1911.97 27.3274 1915.05 28.5427 Z" fill="#000000" fill-rule="evenodd" fill-opacity="1" /><polyline clip-path="url(#clip012)" style="stroke:#009af9; stroke-linecap:butt; stroke-linejoin:round; stroke-width:4; stroke-opacity:1; fill:none" points="
  416.31,1386.4 420.9,1386.4 425.49,1386.4 430.08,1386.4 434.67,1386.39 455.891,1385.58 477.112,1376.23 487.722,1363.55 498.333,1343.19 508.943,1314.16 
  519.553,1276.23 530.164,1229.83 540.774,1175.88 551.385,1115.65 561.995,1050.6 583.216,911.984 604.437,771.193 617.189,689.398 629.942,611.599 642.695,538.928 
  655.448,472.2 668.201,411.948 680.953,358.468 693.706,311.859 706.459,272.062 717.241,243.6 728.024,219.72 738.806,200.226 749.588,184.894 771.153,165.746 
  792.718,160.256 816.143,167.394 839.568,185.748 862.994,213.039 886.419,247.241 929.611,322.718 972.803,407.181 1019.11,500.76 1065.42,592.612 1119.07,692.94 
  1172.72,784.417 1220.4,857.511 1268.07,922.863 1309.88,974.058 1351.69,1019.91 1397.28,1064.29 1442.86,1103.37 1488.71,1137.89 1534.57,1168.14 1635.97,1222.31 
  1732.44,1260.9 1832.75,1291.04 1917.2,1310.44 2020.29,1328.59 2117.2,1341.45 2272.46,1356.06 2296.35,1357.81 
  "/>
<circle clip-path="url(#clip012)" cx="1640.49" cy="1224.37" r="14" fill="#e26f46" fill-rule="evenodd" fill-opacity="1" stroke="#000000" stroke-opacity="1" stroke-width="3.2"/>
<path clip-path="url(#clip012)" d="
M1640.49 1224.37 L1646.9 1227.25 L1706.12 1251.43 L1741.71 1264.07 L1771.8 1273.78 L1804.49 1283.42 L1834.63 1291.52 L1866.94 1299.46 L1904.37 1307.79 L1937.63 1314.47 
  L1966.8 1319.84 L1998.61 1325.2 L2030.6 1330.13 L2065.97 1335.08 L2099.63 1339.37 L2134.63 1343.41 L2164.08 1346.53 L2200.05 1350.01 L2233.86 1352.98 L2288.02 1357.21 
  L2296.35 1357.81 L2296.35 1386.4 L2288.02 1386.4 L2233.86 1386.4 L2200.05 1386.4 L2164.08 1386.4 L2134.63 1386.4 L2099.63 1386.4 L2065.97 1386.4 L2030.6 1386.4 
  L1998.61 1386.4 L1966.8 1386.4 L1937.63 1386.4 L1904.37 1386.4 L1866.94 1386.4 L1834.63 1386.4 L1804.49 1386.4 L1771.8 1386.4 L1741.71 1386.4 L1706.12 1386.4 
  L1646.9 1386.4 L1640.49 1386.4  Z
  " fill="#ff0000" fill-rule="evenodd" fill-opacity="0.5"/>
<polyline clip-path="url(#clip012)" style="stroke:#3da44d; stroke-linecap:butt; stroke-linejoin:round; stroke-width:4; stroke-opacity:1; fill:none" points="
  1640.49,1224.37 1646.9,1227.25 1706.12,1251.43 1741.71,1264.07 1771.8,1273.78 1804.49,1283.42 1834.63,1291.52 1866.94,1299.46 1904.37,1307.79 1937.63,1314.47 
  1966.8,1319.84 1998.61,1325.2 2030.6,1330.13 2065.97,1335.08 2099.63,1339.37 2134.63,1343.41 2164.08,1346.53 2200.05,1350.01 2233.86,1352.98 2288.02,1357.21 
  2296.35,1357.81 
  "/>
<path clip-path="url(#clip010)" d="
M1510.76 374.156 L2286.33 374.156 L2286.33 166.796 L1510.76 166.796  Z
  " fill="#ffffff" fill-rule="evenodd" fill-opacity="1"/>
<polyline clip-path="url(#clip010)" style="stroke:#000000; stroke-linecap:butt; stroke-linejoin:round; stroke-width:4; stroke-opacity:1; fill:none" points="
  1510.76,374.156 2286.33,374.156 2286.33,166.796 1510.76,166.796 1510.76,374.156 
  "/>
<polyline clip-path="url(#clip010)" style="stroke:#009af9; stroke-linecap:butt; stroke-linejoin:round; stroke-width:4; stroke-opacity:1; fill:none" points="
  1532.9,218.636 1665.76,218.636 
  "/>
<path clip-path="url(#clip010)" d="M1706.81 213.925 L1706.81 199.897 L1711.07 199.897 L1711.07 235.916 L1706.81 235.916 L1706.81 232.027 Q1705.47 234.342 1703.41 235.476 Q1701.37 236.587 1698.5 236.587 Q1693.8 236.587 1690.84 232.837 Q1687.9 229.087 1687.9 222.976 Q1687.9 216.865 1690.84 213.115 Q1693.8 209.365 1698.5 209.365 Q1701.37 209.365 1703.41 210.499 Q1705.47 211.61 1706.81 213.925 M1692.3 222.976 Q1692.3 227.675 1694.22 230.36 Q1696.17 233.022 1699.55 233.022 Q1702.92 233.022 1704.87 230.36 Q1706.81 227.675 1706.81 222.976 Q1706.81 218.277 1704.87 215.615 Q1702.92 212.93 1699.55 212.93 Q1696.17 212.93 1694.22 215.615 Q1692.3 218.277 1692.3 222.976 Z" fill="#000000" fill-rule="evenodd" fill-opacity="1" /><path clip-path="url(#clip010)" d="M1734.87 213.971 Q1734.15 213.555 1733.29 213.37 Q1732.46 213.161 1731.44 213.161 Q1727.83 213.161 1725.89 215.522 Q1723.97 217.86 1723.97 222.258 L1723.97 235.916 L1719.68 235.916 L1719.68 209.99 L1723.97 209.99 L1723.97 214.018 Q1725.31 211.657 1727.46 210.522 Q1729.61 209.365 1732.69 209.365 Q1733.13 209.365 1733.67 209.434 Q1734.2 209.481 1734.85 209.596 L1734.87 213.971 Z" fill="#000000" fill-rule="evenodd" fill-opacity="1" /><path clip-path="url(#clip010)" d="M1748.34 212.976 Q1744.92 212.976 1742.92 215.661 Q1740.93 218.323 1740.93 222.976 Q1740.93 227.629 1742.9 230.314 Q1744.89 232.976 1748.34 232.976 Q1751.74 232.976 1753.73 230.291 Q1755.73 227.606 1755.73 222.976 Q1755.73 218.37 1753.73 215.684 Q1751.74 212.976 1748.34 212.976 M1748.34 209.365 Q1753.9 209.365 1757.07 212.976 Q1760.24 216.587 1760.24 222.976 Q1760.24 229.342 1757.07 232.976 Q1753.9 236.587 1748.34 236.587 Q1742.76 236.587 1739.59 232.976 Q1736.44 229.342 1736.44 222.976 Q1736.44 216.587 1739.59 212.976 Q1742.76 209.365 1748.34 209.365 Z" fill="#000000" fill-rule="evenodd" fill-opacity="1" /><path clip-path="url(#clip010)" d="M1771.42 232.027 L1771.42 245.777 L1767.14 245.777 L1767.14 209.99 L1771.42 209.99 L1771.42 213.925 Q1772.76 211.61 1774.8 210.499 Q1776.86 209.365 1779.71 209.365 Q1784.43 209.365 1787.37 213.115 Q1790.33 216.865 1790.33 222.976 Q1790.33 229.087 1787.37 232.837 Q1784.43 236.587 1779.71 236.587 Q1776.86 236.587 1774.8 235.476 Q1772.76 234.342 1771.42 232.027 M1785.91 222.976 Q1785.91 218.277 1783.97 215.615 Q1782.04 212.93 1778.67 212.93 Q1775.29 212.93 1773.34 215.615 Q1771.42 218.277 1771.42 222.976 Q1771.42 227.675 1773.34 230.36 Q1775.29 233.022 1778.67 233.022 Q1782.04 233.022 1783.97 230.36 Q1785.91 227.675 1785.91 222.976 Z" fill="#000000" fill-rule="evenodd" fill-opacity="1" /><path clip-path="url(#clip010)" d="M1797.39 199.897 L1801.65 199.897 L1801.65 235.916 L1797.39 235.916 L1797.39 199.897 Z" fill="#000000" fill-rule="evenodd" fill-opacity="1" /><path clip-path="url(#clip010)" d="M1832.74 221.888 L1832.74 223.971 L1813.16 223.971 Q1813.43 228.369 1815.79 230.684 Q1818.18 232.976 1822.41 232.976 Q1824.87 232.976 1827.16 232.374 Q1829.47 231.772 1831.74 230.569 L1831.74 234.596 Q1829.45 235.568 1827.04 236.078 Q1824.64 236.587 1822.16 236.587 Q1815.96 236.587 1812.32 232.976 Q1808.71 229.365 1808.71 223.207 Q1808.71 216.842 1812.14 213.115 Q1815.59 209.365 1821.42 209.365 Q1826.65 209.365 1829.68 212.745 Q1832.74 216.101 1832.74 221.888 M1828.48 220.638 Q1828.43 217.143 1826.51 215.059 Q1824.61 212.976 1821.47 212.976 Q1817.9 212.976 1815.75 214.99 Q1813.62 217.004 1813.29 220.661 L1828.48 220.638 Z" fill="#000000" fill-rule="evenodd" fill-opacity="1" /><path clip-path="url(#clip010)" d="M1843.94 202.629 L1843.94 209.99 L1852.72 209.99 L1852.72 213.3 L1843.94 213.3 L1843.94 227.374 Q1843.94 230.545 1844.8 231.448 Q1845.68 232.351 1848.34 232.351 L1852.72 232.351 L1852.72 235.916 L1848.34 235.916 Q1843.41 235.916 1841.54 234.087 Q1839.66 232.235 1839.66 227.374 L1839.66 213.3 L1836.54 213.3 L1836.54 209.99 L1839.66 209.99 L1839.66 202.629 L1843.94 202.629 Z" fill="#000000" fill-rule="evenodd" fill-opacity="1" /><path clip-path="url(#clip010)" d="M1889.91 210.754 L1889.91 214.782 Q1888.11 213.856 1886.16 213.393 Q1884.22 212.93 1882.14 212.93 Q1878.97 212.93 1877.37 213.902 Q1875.79 214.874 1875.79 216.819 Q1875.79 218.3 1876.93 219.157 Q1878.06 219.99 1881.49 220.754 L1882.95 221.078 Q1887.48 222.05 1889.38 223.832 Q1891.3 225.592 1891.3 228.763 Q1891.3 232.374 1888.43 234.481 Q1885.59 236.587 1880.59 236.587 Q1878.5 236.587 1876.23 236.17 Q1873.99 235.777 1871.49 234.967 L1871.49 230.569 Q1873.85 231.795 1876.14 232.42 Q1878.43 233.022 1880.68 233.022 Q1883.69 233.022 1885.31 232.004 Q1886.93 230.962 1886.93 229.087 Q1886.93 227.351 1885.75 226.425 Q1884.59 225.499 1880.63 224.643 L1879.15 224.295 Q1875.19 223.462 1873.43 221.749 Q1871.67 220.013 1871.67 217.004 Q1871.67 213.346 1874.27 211.356 Q1876.86 209.365 1881.63 209.365 Q1883.99 209.365 1886.07 209.712 Q1888.16 210.059 1889.91 210.754 Z" fill="#000000" fill-rule="evenodd" fill-opacity="1" /><path clip-path="url(#clip010)" d="M1898.09 209.99 L1902.34 209.99 L1902.34 235.916 L1898.09 235.916 L1898.09 209.99 M1898.09 199.897 L1902.34 199.897 L1902.34 205.291 L1898.09 205.291 L1898.09 199.897 Z" fill="#000000" fill-rule="evenodd" fill-opacity="1" /><path clip-path="url(#clip010)" d="M1909.41 209.99 L1929.64 209.99 L1929.64 213.879 L1913.62 232.513 L1929.64 232.513 L1929.64 235.916 L1908.83 235.916 L1908.83 232.027 L1924.84 213.393 L1909.41 213.393 L1909.41 209.99 Z" fill="#000000" fill-rule="evenodd" fill-opacity="1" /><path clip-path="url(#clip010)" d="M1958.32 221.888 L1958.32 223.971 L1938.73 223.971 Q1939.01 228.369 1941.37 230.684 Q1943.76 232.976 1947.99 232.976 Q1950.45 232.976 1952.74 232.374 Q1955.05 231.772 1957.32 230.569 L1957.32 234.596 Q1955.03 235.568 1952.62 236.078 Q1950.22 236.587 1947.74 236.587 Q1941.53 236.587 1937.9 232.976 Q1934.29 229.365 1934.29 223.207 Q1934.29 216.842 1937.72 213.115 Q1941.16 209.365 1947 209.365 Q1952.23 209.365 1955.26 212.745 Q1958.32 216.101 1958.32 221.888 M1954.06 220.638 Q1954.01 217.143 1952.09 215.059 Q1950.19 212.976 1947.04 212.976 Q1943.48 212.976 1941.33 214.99 Q1939.2 217.004 1938.87 220.661 L1954.06 220.638 Z" fill="#000000" fill-rule="evenodd" fill-opacity="1" /><path clip-path="url(#clip010)" d="M1997.44 213.925 L1997.44 199.897 L2001.7 199.897 L2001.7 235.916 L1997.44 235.916 L1997.44 232.027 Q1996.09 234.342 1994.03 235.476 Q1992 236.587 1989.13 236.587 Q1984.43 236.587 1981.46 232.837 Q1978.53 229.087 1978.53 222.976 Q1978.53 216.865 1981.46 213.115 Q1984.43 209.365 1989.13 209.365 Q1992 209.365 1994.03 210.499 Q1996.09 211.61 1997.44 213.925 M1982.92 222.976 Q1982.92 227.675 1984.84 230.36 Q1986.79 233.022 1990.17 233.022 Q1993.55 233.022 1995.49 230.36 Q1997.44 227.675 1997.44 222.976 Q1997.44 218.277 1995.49 215.615 Q1993.55 212.93 1990.17 212.93 Q1986.79 212.93 1984.84 215.615 Q1982.92 218.277 1982.92 222.976 Z" fill="#000000" fill-rule="evenodd" fill-opacity="1" /><path clip-path="url(#clip010)" d="M2010.47 209.99 L2014.73 209.99 L2014.73 235.916 L2010.47 235.916 L2010.47 209.99 M2010.47 199.897 L2014.73 199.897 L2014.73 205.291 L2010.47 205.291 L2010.47 199.897 Z" fill="#000000" fill-rule="evenodd" fill-opacity="1" /><path clip-path="url(#clip010)" d="M2040.17 210.754 L2040.17 214.782 Q2038.36 213.856 2036.42 213.393 Q2034.47 212.93 2032.39 212.93 Q2029.22 212.93 2027.62 213.902 Q2026.05 214.874 2026.05 216.819 Q2026.05 218.3 2027.18 219.157 Q2028.32 219.99 2031.74 220.754 L2033.2 221.078 Q2037.74 222.05 2039.64 223.832 Q2041.56 225.592 2041.56 228.763 Q2041.56 232.374 2038.69 234.481 Q2035.84 236.587 2030.84 236.587 Q2028.76 236.587 2026.49 236.17 Q2024.24 235.777 2021.74 234.967 L2021.74 230.569 Q2024.1 231.795 2026.4 232.42 Q2028.69 233.022 2030.93 233.022 Q2033.94 233.022 2035.56 232.004 Q2037.18 230.962 2037.18 229.087 Q2037.18 227.351 2036 226.425 Q2034.84 225.499 2030.89 224.643 L2029.4 224.295 Q2025.45 223.462 2023.69 221.749 Q2021.93 220.013 2021.93 217.004 Q2021.93 213.346 2024.52 211.356 Q2027.11 209.365 2031.88 209.365 Q2034.24 209.365 2036.33 209.712 Q2038.41 210.059 2040.17 210.754 Z" fill="#000000" fill-rule="evenodd" fill-opacity="1" /><path clip-path="url(#clip010)" d="M2052.55 202.629 L2052.55 209.99 L2061.33 209.99 L2061.33 213.3 L2052.55 213.3 L2052.55 227.374 Q2052.55 230.545 2053.41 231.448 Q2054.29 232.351 2056.95 232.351 L2061.33 232.351 L2061.33 235.916 L2056.95 235.916 Q2052.02 235.916 2050.15 234.087 Q2048.27 232.235 2048.27 227.374 L2048.27 213.3 L2045.15 213.3 L2045.15 209.99 L2048.27 209.99 L2048.27 202.629 L2052.55 202.629 Z" fill="#000000" fill-rule="evenodd" fill-opacity="1" /><path clip-path="url(#clip010)" d="M2081.95 213.971 Q2081.23 213.555 2080.38 213.37 Q2079.54 213.161 2078.52 213.161 Q2074.91 213.161 2072.97 215.522 Q2071.05 217.86 2071.05 222.258 L2071.05 235.916 L2066.77 235.916 L2066.77 209.99 L2071.05 209.99 L2071.05 214.018 Q2072.39 211.657 2074.54 210.522 Q2076.7 209.365 2079.77 209.365 Q2080.21 209.365 2080.75 209.434 Q2081.28 209.481 2081.93 209.596 L2081.95 213.971 Z" fill="#000000" fill-rule="evenodd" fill-opacity="1" /><path clip-path="url(#clip010)" d="M2086.42 209.99 L2090.68 209.99 L2090.68 235.916 L2086.42 235.916 L2086.42 209.99 M2086.42 199.897 L2090.68 199.897 L2090.68 205.291 L2086.42 205.291 L2086.42 199.897 Z" fill="#000000" fill-rule="evenodd" fill-opacity="1" /><path clip-path="url(#clip010)" d="M2118.2 222.976 Q2118.2 218.277 2116.26 215.615 Q2114.33 212.93 2110.95 212.93 Q2107.58 212.93 2105.63 215.615 Q2103.71 218.277 2103.71 222.976 Q2103.71 227.675 2105.63 230.36 Q2107.58 233.022 2110.95 233.022 Q2114.33 233.022 2116.26 230.36 Q2118.2 227.675 2118.2 222.976 M2103.71 213.925 Q2105.05 211.61 2107.09 210.499 Q2109.15 209.365 2112 209.365 Q2116.72 209.365 2119.66 213.115 Q2122.62 216.865 2122.62 222.976 Q2122.62 229.087 2119.66 232.837 Q2116.72 236.587 2112 236.587 Q2109.15 236.587 2107.09 235.476 Q2105.05 234.342 2103.71 232.027 L2103.71 235.916 L2099.43 235.916 L2099.43 199.897 L2103.71 199.897 L2103.71 213.925 Z" fill="#000000" fill-rule="evenodd" fill-opacity="1" /><path clip-path="url(#clip010)" d="M2129.24 225.684 L2129.24 209.99 L2133.5 209.99 L2133.5 225.522 Q2133.5 229.203 2134.94 231.055 Q2136.37 232.883 2139.24 232.883 Q2142.69 232.883 2144.68 230.684 Q2146.7 228.485 2146.7 224.689 L2146.7 209.99 L2150.95 209.99 L2150.95 235.916 L2146.7 235.916 L2146.7 231.934 Q2145.14 234.295 2143.08 235.453 Q2141.05 236.587 2138.34 236.587 Q2133.87 236.587 2131.56 233.809 Q2129.24 231.031 2129.24 225.684 M2139.96 209.365 L2139.96 209.365 Z" fill="#000000" fill-rule="evenodd" fill-opacity="1" /><path clip-path="url(#clip010)" d="M2163.94 202.629 L2163.94 209.99 L2172.71 209.99 L2172.71 213.3 L2163.94 213.3 L2163.94 227.374 Q2163.94 230.545 2164.8 231.448 Q2165.68 232.351 2168.34 232.351 L2172.71 232.351 L2172.71 235.916 L2168.34 235.916 Q2163.41 235.916 2161.53 234.087 Q2159.66 232.235 2159.66 227.374 L2159.66 213.3 L2156.53 213.3 L2156.53 209.99 L2159.66 209.99 L2159.66 202.629 L2163.94 202.629 Z" fill="#000000" fill-rule="evenodd" fill-opacity="1" /><path clip-path="url(#clip010)" d="M2178.32 209.99 L2182.57 209.99 L2182.57 235.916 L2178.32 235.916 L2178.32 209.99 M2178.32 199.897 L2182.57 199.897 L2182.57 205.291 L2178.32 205.291 L2178.32 199.897 Z" fill="#000000" fill-rule="evenodd" fill-opacity="1" /><path clip-path="url(#clip010)" d="M2201.53 212.976 Q2198.11 212.976 2196.12 215.661 Q2194.13 218.323 2194.13 222.976 Q2194.13 227.629 2196.09 230.314 Q2198.08 232.976 2201.53 232.976 Q2204.94 232.976 2206.93 230.291 Q2208.92 227.606 2208.92 222.976 Q2208.92 218.37 2206.93 215.684 Q2204.94 212.976 2201.53 212.976 M2201.53 209.365 Q2207.09 209.365 2210.26 212.976 Q2213.43 216.587 2213.43 222.976 Q2213.43 229.342 2210.26 232.976 Q2207.09 236.587 2201.53 236.587 Q2195.95 236.587 2192.78 232.976 Q2189.64 229.342 2189.64 222.976 Q2189.64 216.587 2192.78 212.976 Q2195.95 209.365 2201.53 209.365 Z" fill="#000000" fill-rule="evenodd" fill-opacity="1" /><path clip-path="url(#clip010)" d="M2242.04 220.268 L2242.04 235.916 L2237.78 235.916 L2237.78 220.407 Q2237.78 216.726 2236.35 214.897 Q2234.91 213.069 2232.04 213.069 Q2228.59 213.069 2226.6 215.268 Q2224.61 217.467 2224.61 221.263 L2224.61 235.916 L2220.33 235.916 L2220.33 209.99 L2224.61 209.99 L2224.61 214.018 Q2226.14 211.68 2228.2 210.522 Q2230.28 209.365 2232.99 209.365 Q2237.46 209.365 2239.75 212.143 Q2242.04 214.897 2242.04 220.268 Z" fill="#000000" fill-rule="evenodd" fill-opacity="1" /><circle clip-path="url(#clip010)" cx="1599.33" cy="270.476" r="23" fill="#e26f46" fill-rule="evenodd" fill-opacity="1" stroke="#000000" stroke-opacity="1" stroke-width="5.12"/>
<path clip-path="url(#clip010)" d="M1708.41 262.825 L1708.41 266.807 Q1706.61 265.811 1704.78 265.325 Q1702.97 264.816 1701.12 264.816 Q1696.98 264.816 1694.68 267.455 Q1692.39 270.071 1692.39 274.816 Q1692.39 279.561 1694.68 282.2 Q1696.98 284.816 1701.12 284.816 Q1702.97 284.816 1704.78 284.33 Q1706.61 283.821 1708.41 282.825 L1708.41 286.76 Q1706.63 287.594 1704.71 288.01 Q1702.81 288.427 1700.66 288.427 Q1694.8 288.427 1691.35 284.746 Q1687.9 281.066 1687.9 274.816 Q1687.9 268.473 1691.37 264.839 Q1694.87 261.205 1700.93 261.205 Q1702.9 261.205 1704.78 261.622 Q1706.65 262.015 1708.41 262.825 Z" fill="#000000" fill-rule="evenodd" fill-opacity="1" /><path clip-path="url(#clip010)" d="M1730.84 265.811 Q1730.12 265.395 1729.27 265.21 Q1728.43 265.001 1727.42 265.001 Q1723.8 265.001 1721.86 267.362 Q1719.94 269.7 1719.94 274.098 L1719.94 287.756 L1715.66 287.756 L1715.66 261.83 L1719.94 261.83 L1719.94 265.858 Q1721.28 263.497 1723.43 262.362 Q1725.59 261.205 1728.67 261.205 Q1729.11 261.205 1729.64 261.274 Q1730.17 261.321 1730.82 261.436 L1730.84 265.811 Z" fill="#000000" fill-rule="evenodd" fill-opacity="1" /><path clip-path="url(#clip010)" d="M1735.31 261.83 L1739.57 261.83 L1739.57 287.756 L1735.31 287.756 L1735.31 261.83 M1735.31 251.737 L1739.57 251.737 L1739.57 257.131 L1735.31 257.131 L1735.31 251.737 Z" fill="#000000" fill-rule="evenodd" fill-opacity="1" /><path clip-path="url(#clip010)" d="M1752.69 254.469 L1752.69 261.83 L1761.47 261.83 L1761.47 265.14 L1752.69 265.14 L1752.69 279.214 Q1752.69 282.385 1753.55 283.288 Q1754.43 284.191 1757.09 284.191 L1761.47 284.191 L1761.47 287.756 L1757.09 287.756 Q1752.16 287.756 1750.29 285.927 Q1748.41 284.075 1748.41 279.214 L1748.41 265.14 L1745.29 265.14 L1745.29 261.83 L1748.41 261.83 L1748.41 254.469 L1752.69 254.469 Z" fill="#000000" fill-rule="evenodd" fill-opacity="1" /><path clip-path="url(#clip010)" d="M1767.07 261.83 L1771.33 261.83 L1771.33 287.756 L1767.07 287.756 L1767.07 261.83 M1767.07 251.737 L1771.33 251.737 L1771.33 257.131 L1767.07 257.131 L1767.07 251.737 Z" fill="#000000" fill-rule="evenodd" fill-opacity="1" /><path clip-path="url(#clip010)" d="M1798.9 262.825 L1798.9 266.807 Q1797.09 265.811 1795.26 265.325 Q1793.46 264.816 1791.6 264.816 Q1787.46 264.816 1785.17 267.455 Q1782.88 270.071 1782.88 274.816 Q1782.88 279.561 1785.17 282.2 Q1787.46 284.816 1791.6 284.816 Q1793.46 284.816 1795.26 284.33 Q1797.09 283.821 1798.9 282.825 L1798.9 286.76 Q1797.11 287.594 1795.19 288.01 Q1793.29 288.427 1791.14 288.427 Q1785.29 288.427 1781.84 284.746 Q1778.39 281.066 1778.39 274.816 Q1778.39 268.473 1781.86 264.839 Q1785.35 261.205 1791.42 261.205 Q1793.39 261.205 1795.26 261.622 Q1797.14 262.015 1798.9 262.825 Z" fill="#000000" fill-rule="evenodd" fill-opacity="1" /><path clip-path="url(#clip010)" d="M1818.09 274.723 Q1812.92 274.723 1810.93 275.904 Q1808.94 277.084 1808.94 279.932 Q1808.94 282.2 1810.42 283.543 Q1811.93 284.862 1814.5 284.862 Q1818.04 284.862 1820.17 282.362 Q1822.32 279.839 1822.32 275.672 L1822.32 274.723 L1818.09 274.723 M1826.58 272.964 L1826.58 287.756 L1822.32 287.756 L1822.32 283.821 Q1820.86 286.182 1818.69 287.316 Q1816.51 288.427 1813.36 288.427 Q1809.38 288.427 1807.02 286.205 Q1804.68 283.959 1804.68 280.209 Q1804.68 275.834 1807.6 273.612 Q1810.54 271.39 1816.35 271.39 L1822.32 271.39 L1822.32 270.973 Q1822.32 268.034 1820.38 266.436 Q1818.46 264.816 1814.96 264.816 Q1812.74 264.816 1810.63 265.348 Q1808.53 265.881 1806.58 266.946 L1806.58 263.01 Q1808.92 262.108 1811.12 261.668 Q1813.32 261.205 1815.4 261.205 Q1821.03 261.205 1823.8 264.122 Q1826.58 267.038 1826.58 272.964 Z" fill="#000000" fill-rule="evenodd" fill-opacity="1" /><path clip-path="url(#clip010)" d="M1835.35 251.737 L1839.61 251.737 L1839.61 287.756 L1835.35 287.756 L1835.35 251.737 Z" fill="#000000" fill-rule="evenodd" fill-opacity="1" /><path clip-path="url(#clip010)" d="M1880.66 265.765 L1880.66 251.737 L1884.91 251.737 L1884.91 287.756 L1880.66 287.756 L1880.66 283.867 Q1879.31 286.182 1877.25 287.316 Q1875.22 288.427 1872.35 288.427 Q1867.65 288.427 1864.68 284.677 Q1861.74 280.927 1861.74 274.816 Q1861.74 268.705 1864.68 264.955 Q1867.65 261.205 1872.35 261.205 Q1875.22 261.205 1877.25 262.339 Q1879.31 263.45 1880.66 265.765 M1866.14 274.816 Q1866.14 279.515 1868.06 282.2 Q1870.01 284.862 1873.39 284.862 Q1876.77 284.862 1878.71 282.2 Q1880.66 279.515 1880.66 274.816 Q1880.66 270.117 1878.71 267.455 Q1876.77 264.77 1873.39 264.77 Q1870.01 264.77 1868.06 267.455 Q1866.14 270.117 1866.14 274.816 Z" fill="#000000" fill-rule="evenodd" fill-opacity="1" /><path clip-path="url(#clip010)" d="M1893.69 261.83 L1897.95 261.83 L1897.95 287.756 L1893.69 287.756 L1893.69 261.83 M1893.69 251.737 L1897.95 251.737 L1897.95 257.131 L1893.69 257.131 L1893.69 251.737 Z" fill="#000000" fill-rule="evenodd" fill-opacity="1" /><path clip-path="url(#clip010)" d="M1918.64 274.723 Q1913.48 274.723 1911.49 275.904 Q1909.5 277.084 1909.5 279.932 Q1909.5 282.2 1910.98 283.543 Q1912.48 284.862 1915.05 284.862 Q1918.59 284.862 1920.72 282.362 Q1922.88 279.839 1922.88 275.672 L1922.88 274.723 L1918.64 274.723 M1927.14 272.964 L1927.14 287.756 L1922.88 287.756 L1922.88 283.821 Q1921.42 286.182 1919.24 287.316 Q1917.07 288.427 1913.92 288.427 Q1909.94 288.427 1907.58 286.205 Q1905.24 283.959 1905.24 280.209 Q1905.24 275.834 1908.16 273.612 Q1911.09 271.39 1916.91 271.39 L1922.88 271.39 L1922.88 270.973 Q1922.88 268.034 1920.93 266.436 Q1919.01 264.816 1915.52 264.816 Q1913.29 264.816 1911.19 265.348 Q1909.08 265.881 1907.14 266.946 L1907.14 263.01 Q1909.47 262.108 1911.67 261.668 Q1913.87 261.205 1915.96 261.205 Q1921.58 261.205 1924.36 264.122 Q1927.14 267.038 1927.14 272.964 Z" fill="#000000" fill-rule="evenodd" fill-opacity="1" /><path clip-path="url(#clip010)" d="M1956.09 266.807 Q1957.69 263.936 1959.91 262.571 Q1962.14 261.205 1965.15 261.205 Q1969.2 261.205 1971.4 264.052 Q1973.59 266.876 1973.59 272.108 L1973.59 287.756 L1969.31 287.756 L1969.31 272.247 Q1969.31 268.52 1967.99 266.714 Q1966.67 264.909 1963.96 264.909 Q1960.65 264.909 1958.73 267.108 Q1956.81 269.307 1956.81 273.103 L1956.81 287.756 L1952.53 287.756 L1952.53 272.247 Q1952.53 268.497 1951.21 266.714 Q1949.89 264.909 1947.14 264.909 Q1943.87 264.909 1941.95 267.131 Q1940.03 269.33 1940.03 273.103 L1940.03 287.756 L1935.75 287.756 L1935.75 261.83 L1940.03 261.83 L1940.03 265.858 Q1941.49 263.473 1943.53 262.339 Q1945.56 261.205 1948.36 261.205 Q1951.19 261.205 1953.15 262.64 Q1955.15 264.075 1956.09 266.807 Z" fill="#000000" fill-rule="evenodd" fill-opacity="1" /><path clip-path="url(#clip010)" d="M2004.27 273.728 L2004.27 275.811 L1984.68 275.811 Q1984.96 280.209 1987.32 282.524 Q1989.71 284.816 1993.94 284.816 Q1996.4 284.816 1998.69 284.214 Q2001 283.612 2003.27 282.409 L2003.27 286.436 Q2000.98 287.408 1998.57 287.918 Q1996.16 288.427 1993.69 288.427 Q1987.48 288.427 1983.85 284.816 Q1980.24 281.205 1980.24 275.047 Q1980.24 268.682 1983.66 264.955 Q1987.11 261.205 1992.95 261.205 Q1998.18 261.205 2001.21 264.585 Q2004.27 267.941 2004.27 273.728 M2000.01 272.478 Q1999.96 268.983 1998.04 266.899 Q1996.14 264.816 1992.99 264.816 Q1989.43 264.816 1987.28 266.83 Q1985.15 268.844 1984.82 272.501 L2000.01 272.478 Z" fill="#000000" fill-rule="evenodd" fill-opacity="1" /><path clip-path="url(#clip010)" d="M2015.47 254.469 L2015.47 261.83 L2024.24 261.83 L2024.24 265.14 L2015.47 265.14 L2015.47 279.214 Q2015.47 282.385 2016.33 283.288 Q2017.21 284.191 2019.87 284.191 L2024.24 284.191 L2024.24 287.756 L2019.87 287.756 Q2014.94 287.756 2013.06 285.927 Q2011.19 284.075 2011.19 279.214 L2011.19 265.14 L2008.06 265.14 L2008.06 261.83 L2011.19 261.83 L2011.19 254.469 L2015.47 254.469 Z" fill="#000000" fill-rule="evenodd" fill-opacity="1" /><path clip-path="url(#clip010)" d="M2052.02 273.728 L2052.02 275.811 L2032.44 275.811 Q2032.71 280.209 2035.08 282.524 Q2037.46 284.816 2041.7 284.816 Q2044.15 284.816 2046.44 284.214 Q2048.76 283.612 2051.02 282.409 L2051.02 286.436 Q2048.73 287.408 2046.33 287.918 Q2043.92 288.427 2041.44 288.427 Q2035.24 288.427 2031.6 284.816 Q2027.99 281.205 2027.99 275.047 Q2027.99 268.682 2031.42 264.955 Q2034.87 261.205 2040.7 261.205 Q2045.93 261.205 2048.96 264.585 Q2052.02 267.941 2052.02 273.728 M2047.76 272.478 Q2047.71 268.983 2045.79 266.899 Q2043.9 264.816 2040.75 264.816 Q2037.18 264.816 2035.03 266.83 Q2032.9 268.844 2032.58 272.501 L2047.76 272.478 Z" fill="#000000" fill-rule="evenodd" fill-opacity="1" /><path clip-path="url(#clip010)" d="M2074.03 265.811 Q2073.32 265.395 2072.46 265.21 Q2071.63 265.001 2070.61 265.001 Q2067 265.001 2065.05 267.362 Q2063.13 269.7 2063.13 274.098 L2063.13 287.756 L2058.85 287.756 L2058.85 261.83 L2063.13 261.83 L2063.13 265.858 Q2064.47 263.497 2066.63 262.362 Q2068.78 261.205 2071.86 261.205 Q2072.3 261.205 2072.83 261.274 Q2073.36 261.321 2074.01 261.436 L2074.03 265.811 Z" fill="#000000" fill-rule="evenodd" fill-opacity="1" /><path clip-path="url(#clip010)" d="
M1532.9 343.052 L1665.76 343.052 L1665.76 301.58 L1532.9 301.58 L1532.9 343.052  Z
  " fill="#ff0000" fill-rule="evenodd" fill-opacity="0.5"/>
<polyline clip-path="url(#clip010)" style="stroke:#3da44d; stroke-linecap:butt; stroke-linejoin:round; stroke-width:4; stroke-opacity:1; fill:none" points="
  1532.9,301.58 1665.76,301.58 
  "/>
<path clip-path="url(#clip010)" d="M1703.09 317.651 Q1702.37 317.235 1701.51 317.05 Q1700.68 316.841 1699.66 316.841 Q1696.05 316.841 1694.11 319.202 Q1692.18 321.54 1692.18 325.938 L1692.18 339.596 L1687.9 339.596 L1687.9 313.67 L1692.18 313.67 L1692.18 317.698 Q1693.53 315.337 1695.68 314.202 Q1697.83 313.045 1700.91 313.045 Q1701.35 313.045 1701.88 313.114 Q1702.42 313.161 1703.06 313.276 L1703.09 317.651 Z" fill="#000000" fill-rule="evenodd" fill-opacity="1" /><path clip-path="url(#clip010)" d="M1719.34 326.563 Q1714.17 326.563 1712.18 327.744 Q1710.19 328.924 1710.19 331.772 Q1710.19 334.04 1711.67 335.383 Q1713.18 336.702 1715.75 336.702 Q1719.29 336.702 1721.42 334.202 Q1723.57 331.679 1723.57 327.512 L1723.57 326.563 L1719.34 326.563 M1727.83 324.804 L1727.83 339.596 L1723.57 339.596 L1723.57 335.661 Q1722.11 338.022 1719.94 339.156 Q1717.76 340.267 1714.61 340.267 Q1710.63 340.267 1708.27 338.045 Q1705.93 335.799 1705.93 332.049 Q1705.93 327.674 1708.85 325.452 Q1711.79 323.23 1717.6 323.23 L1723.57 323.23 L1723.57 322.813 Q1723.57 319.874 1721.63 318.276 Q1719.71 316.656 1716.21 316.656 Q1713.99 316.656 1711.88 317.188 Q1709.78 317.721 1707.83 318.786 L1707.83 314.85 Q1710.17 313.948 1712.37 313.508 Q1714.57 313.045 1716.65 313.045 Q1722.28 313.045 1725.05 315.962 Q1727.83 318.878 1727.83 324.804 Z" fill="#000000" fill-rule="evenodd" fill-opacity="1" /><path clip-path="url(#clip010)" d="M1736.61 313.67 L1740.86 313.67 L1740.86 339.596 L1736.61 339.596 L1736.61 313.67 M1736.61 303.577 L1740.86 303.577 L1740.86 308.971 L1736.61 308.971 L1736.61 303.577 Z" fill="#000000" fill-rule="evenodd" fill-opacity="1" /><path clip-path="url(#clip010)" d="M1771.33 323.948 L1771.33 339.596 L1767.07 339.596 L1767.07 324.087 Q1767.07 320.406 1765.63 318.577 Q1764.2 316.749 1761.33 316.749 Q1757.88 316.749 1755.89 318.948 Q1753.9 321.147 1753.9 324.943 L1753.9 339.596 L1749.61 339.596 L1749.61 313.67 L1753.9 313.67 L1753.9 317.698 Q1755.42 315.36 1757.48 314.202 Q1759.57 313.045 1762.28 313.045 Q1766.74 313.045 1769.04 315.823 Q1771.33 318.577 1771.33 323.948 Z" fill="#000000" fill-rule="evenodd" fill-opacity="1" /><path clip-path="url(#clip010)" d="M1777.67 324.712 L1790.15 324.712 L1790.15 328.508 L1777.67 328.508 L1777.67 324.712 Z" fill="#000000" fill-rule="evenodd" fill-opacity="1" /><path clip-path="url(#clip010)" d="M1807.85 316.656 Q1804.43 316.656 1802.44 319.341 Q1800.45 322.003 1800.45 326.656 Q1800.45 331.309 1802.41 333.994 Q1804.41 336.656 1807.85 336.656 Q1811.26 336.656 1813.25 333.971 Q1815.24 331.286 1815.24 326.656 Q1815.24 322.05 1813.25 319.364 Q1811.26 316.656 1807.85 316.656 M1807.85 313.045 Q1813.41 313.045 1816.58 316.656 Q1819.75 320.267 1819.75 326.656 Q1819.75 333.022 1816.58 336.656 Q1813.41 340.267 1807.85 340.267 Q1802.28 340.267 1799.1 336.656 Q1795.96 333.022 1795.96 326.656 Q1795.96 320.267 1799.1 316.656 Q1802.28 313.045 1807.85 313.045 Z" fill="#000000" fill-rule="evenodd" fill-opacity="1" /><path clip-path="url(#clip010)" d="M1826.37 329.364 L1826.37 313.67 L1830.63 313.67 L1830.63 329.202 Q1830.63 332.883 1832.07 334.735 Q1833.5 336.563 1836.37 336.563 Q1839.82 336.563 1841.81 334.364 Q1843.83 332.165 1843.83 328.369 L1843.83 313.67 L1848.09 313.67 L1848.09 339.596 L1843.83 339.596 L1843.83 335.614 Q1842.28 337.975 1840.22 339.133 Q1838.18 340.267 1835.47 340.267 Q1831 340.267 1828.69 337.489 Q1826.37 334.711 1826.37 329.364 M1837.09 313.045 L1837.09 313.045 Z" fill="#000000" fill-rule="evenodd" fill-opacity="1" /><path clip-path="url(#clip010)" d="M1861.07 306.309 L1861.07 313.67 L1869.85 313.67 L1869.85 316.98 L1861.07 316.98 L1861.07 331.054 Q1861.07 334.225 1861.93 335.128 Q1862.81 336.031 1865.47 336.031 L1869.85 336.031 L1869.85 339.596 L1865.47 339.596 Q1860.54 339.596 1858.66 337.767 Q1856.79 335.915 1856.79 331.054 L1856.79 316.98 L1853.66 316.98 L1853.66 313.67 L1856.79 313.67 L1856.79 306.309 L1861.07 306.309 Z" fill="#000000" fill-rule="evenodd" fill-opacity="1" /><path clip-path="url(#clip010)" d="M1905.54 317.651 Q1904.82 317.235 1903.97 317.05 Q1903.13 316.841 1902.11 316.841 Q1898.5 316.841 1896.56 319.202 Q1894.64 321.54 1894.64 325.938 L1894.64 339.596 L1890.35 339.596 L1890.35 313.67 L1894.64 313.67 L1894.64 317.698 Q1895.98 315.337 1898.13 314.202 Q1900.28 313.045 1903.36 313.045 Q1903.8 313.045 1904.34 313.114 Q1904.87 313.161 1905.52 313.276 L1905.54 317.651 Z" fill="#000000" fill-rule="evenodd" fill-opacity="1" /><path clip-path="url(#clip010)" d="M1931.14 325.568 L1931.14 327.651 L1911.56 327.651 Q1911.84 332.049 1914.2 334.364 Q1916.58 336.656 1920.82 336.656 Q1923.27 336.656 1925.56 336.054 Q1927.88 335.452 1930.15 334.249 L1930.15 338.276 Q1927.85 339.248 1925.45 339.758 Q1923.04 340.267 1920.56 340.267 Q1914.36 340.267 1910.72 336.656 Q1907.11 333.045 1907.11 326.887 Q1907.11 320.522 1910.54 316.795 Q1913.99 313.045 1919.82 313.045 Q1925.05 313.045 1928.09 316.425 Q1931.14 319.781 1931.14 325.568 M1926.88 324.318 Q1926.84 320.823 1924.91 318.739 Q1923.02 316.656 1919.87 316.656 Q1916.3 316.656 1914.15 318.67 Q1912.02 320.684 1911.7 324.341 L1926.88 324.318 Z" fill="#000000" fill-rule="evenodd" fill-opacity="1" /><path clip-path="url(#clip010)" d="M1955.19 326.332 Q1955.19 321.702 1953.27 319.156 Q1951.37 316.61 1947.92 316.61 Q1944.5 316.61 1942.58 319.156 Q1940.68 321.702 1940.68 326.332 Q1940.68 330.938 1942.58 333.485 Q1944.5 336.031 1947.92 336.031 Q1951.37 336.031 1953.27 333.485 Q1955.19 330.938 1955.19 326.332 M1959.45 336.378 Q1959.45 342.998 1956.51 346.216 Q1953.57 349.457 1947.51 349.457 Q1945.26 349.457 1943.27 349.11 Q1941.28 348.785 1939.4 348.091 L1939.4 343.948 Q1941.28 344.966 1943.11 345.452 Q1944.94 345.938 1946.84 345.938 Q1951.03 345.938 1953.11 343.739 Q1955.19 341.563 1955.19 337.142 L1955.19 335.036 Q1953.87 337.327 1951.81 338.461 Q1949.75 339.596 1946.88 339.596 Q1942.11 339.596 1939.2 335.961 Q1936.28 332.327 1936.28 326.332 Q1936.28 320.313 1939.2 316.679 Q1942.11 313.045 1946.88 313.045 Q1949.75 313.045 1951.81 314.179 Q1953.87 315.313 1955.19 317.605 L1955.19 313.67 L1959.45 313.67 L1959.45 336.378 Z" fill="#000000" fill-rule="evenodd" fill-opacity="1" /><path clip-path="url(#clip010)" d="M1968.22 313.67 L1972.48 313.67 L1972.48 339.596 L1968.22 339.596 L1968.22 313.67 M1968.22 303.577 L1972.48 303.577 L1972.48 308.971 L1968.22 308.971 L1968.22 303.577 Z" fill="#000000" fill-rule="evenodd" fill-opacity="1" /><path clip-path="url(#clip010)" d="M1991.44 316.656 Q1988.02 316.656 1986.03 319.341 Q1984.03 322.003 1984.03 326.656 Q1984.03 331.309 1986 333.994 Q1987.99 336.656 1991.44 336.656 Q1994.84 336.656 1996.84 333.971 Q1998.83 331.286 1998.83 326.656 Q1998.83 322.05 1996.84 319.364 Q1994.84 316.656 1991.44 316.656 M1991.44 313.045 Q1997 313.045 2000.17 316.656 Q2003.34 320.267 2003.34 326.656 Q2003.34 333.022 2000.17 336.656 Q1997 340.267 1991.44 340.267 Q1985.86 340.267 1982.69 336.656 Q1979.54 333.022 1979.54 326.656 Q1979.54 320.267 1982.69 316.656 Q1985.86 313.045 1991.44 313.045 Z" fill="#000000" fill-rule="evenodd" fill-opacity="1" /><path clip-path="url(#clip010)" d="M2031.95 323.948 L2031.95 339.596 L2027.69 339.596 L2027.69 324.087 Q2027.69 320.406 2026.26 318.577 Q2024.82 316.749 2021.95 316.749 Q2018.5 316.749 2016.51 318.948 Q2014.52 321.147 2014.52 324.943 L2014.52 339.596 L2010.24 339.596 L2010.24 313.67 L2014.52 313.67 L2014.52 317.698 Q2016.05 315.36 2018.11 314.202 Q2020.19 313.045 2022.9 313.045 Q2027.37 313.045 2029.66 315.823 Q2031.95 318.577 2031.95 323.948 Z" fill="#000000" fill-rule="evenodd" fill-opacity="1" /></svg>
