<?xml version="1.0" encoding="utf-8"?>
<svg xmlns="http://www.w3.org/2000/svg" xmlns:xlink="http://www.w3.org/1999/xlink" width="600" height="400" viewBox="0 0 2400 1600">
<defs>
  <clipPath id="clip090">
    <rect x="0" y="0" width="2400" height="1600"/>
  </clipPath>
</defs>
<path clip-path="url(#clip090)" d="
M0 1600 L2400 1600 L2400 0 L0 0  Z
  " fill="#ffffff" fill-rule="evenodd" fill-opacity="1"/>
<defs>
  <clipPath id="clip091">
    <rect x="480" y="0" width="1681" height="1600"/>
  </clipPath>
</defs>
<path clip-path="url(#clip090)" d="
M219.866 1423.18 L2352.76 1423.18 L2352.76 123.472 L219.866 123.472  Z
  " fill="#ffffff" fill-rule="evenodd" fill-opacity="1"/>
<defs>
  <clipPath id="clip092">
    <rect x="219" y="123" width="2134" height="1301"/>
  </clipPath>
</defs>
<polyline clip-path="url(#clip092)" style="stroke:#000000; stroke-linecap:butt; stroke-linejoin:round; stroke-width:2; stroke-opacity:0.1; fill:none" points="
  280.231,1423.18 280.231,123.472 
  "/>
<polyline clip-path="url(#clip092)" style="stroke:#000000; stroke-linecap:butt; stroke-linejoin:round; stroke-width:2; stroke-opacity:0.1; fill:none" points="
  615.591,1423.18 615.591,123.472 
  "/>
<polyline clip-path="url(#clip092)" style="stroke:#000000; stroke-linecap:butt; stroke-linejoin:round; stroke-width:2; stroke-opacity:0.1; fill:none" points="
  950.951,1423.18 950.951,123.472 
  "/>
<polyline clip-path="url(#clip092)" style="stroke:#000000; stroke-linecap:butt; stroke-linejoin:round; stroke-width:2; stroke-opacity:0.1; fill:none" points="
  1286.31,1423.18 1286.31,123.472 
  "/>
<polyline clip-path="url(#clip092)" style="stroke:#000000; stroke-linecap:butt; stroke-linejoin:round; stroke-width:2; stroke-opacity:0.1; fill:none" points="
  1621.67,1423.18 1621.67,123.472 
  "/>
<polyline clip-path="url(#clip092)" style="stroke:#000000; stroke-linecap:butt; stroke-linejoin:round; stroke-width:2; stroke-opacity:0.1; fill:none" points="
  1957.03,1423.18 1957.03,123.472 
  "/>
<polyline clip-path="url(#clip092)" style="stroke:#000000; stroke-linecap:butt; stroke-linejoin:round; stroke-width:2; stroke-opacity:0.1; fill:none" points="
  2292.39,1423.18 2292.39,123.472 
  "/>
<polyline clip-path="url(#clip090)" style="stroke:#000000; stroke-linecap:butt; stroke-linejoin:round; stroke-width:4; stroke-opacity:1; fill:none" points="
  219.866,1423.18 2352.76,1423.18 
  "/>
<polyline clip-path="url(#clip090)" style="stroke:#000000; stroke-linecap:butt; stroke-linejoin:round; stroke-width:4; stroke-opacity:1; fill:none" points="
  280.231,1423.18 280.231,1404.28 
  "/>
<polyline clip-path="url(#clip090)" style="stroke:#000000; stroke-linecap:butt; stroke-linejoin:round; stroke-width:4; stroke-opacity:1; fill:none" points="
  615.591,1423.18 615.591,1404.28 
  "/>
<polyline clip-path="url(#clip090)" style="stroke:#000000; stroke-linecap:butt; stroke-linejoin:round; stroke-width:4; stroke-opacity:1; fill:none" points="
  950.951,1423.18 950.951,1404.28 
  "/>
<polyline clip-path="url(#clip090)" style="stroke:#000000; stroke-linecap:butt; stroke-linejoin:round; stroke-width:4; stroke-opacity:1; fill:none" points="
  1286.31,1423.18 1286.31,1404.28 
  "/>
<polyline clip-path="url(#clip090)" style="stroke:#000000; stroke-linecap:butt; stroke-linejoin:round; stroke-width:4; stroke-opacity:1; fill:none" points="
  1621.67,1423.18 1621.67,1404.28 
  "/>
<polyline clip-path="url(#clip090)" style="stroke:#000000; stroke-linecap:butt; stroke-linejoin:round; stroke-width:4; stroke-opacity:1; fill:none" points="
  1957.03,1423.18 1957.03,1404.28 
  "/>
<polyline clip-path="url(#clip090)" style="stroke:#000000; stroke-linecap:butt; stroke-linejoin:round; stroke-width:4; stroke-opacity:1; fill:none" points="
  2292.39,1423.18 2292.39,1404.28 
  "/>
<path clip-path="url(#clip090)" d="M280.231 1454.1 Q276.62 1454.1 274.791 1457.66 Q272.986 1461.2 272.986 1468.33 Q272.986 1475.44 274.791 1479.01 Q276.62 1482.55 280.231 1482.55 Q283.865 1482.55 285.671 1479.01 Q287.5 1475.44 287.5 1468.33 Q287.5 1461.2 285.671 1457.66 Q283.865 1454.1 280.231 1454.1 M280.231 1450.39 Q286.041 1450.39 289.097 1455 Q292.175 1459.58 292.175 1468.33 Q292.175 1477.06 289.097 1481.67 Q286.041 1486.25 280.231 1486.25 Q274.421 1486.25 271.342 1481.67 Q268.287 1477.06 268.287 1468.33 Q268.287 1459.58 271.342 1455 Q274.421 1450.39 280.231 1450.39 Z" fill="#000000" fill-rule="evenodd" fill-opacity="1" /><path clip-path="url(#clip090)" d="M590.279 1481.64 L597.918 1481.64 L597.918 1455.28 L589.607 1456.95 L589.607 1452.69 L597.871 1451.02 L602.547 1451.02 L602.547 1481.64 L610.186 1481.64 L610.186 1485.58 L590.279 1485.58 L590.279 1481.64 Z" fill="#000000" fill-rule="evenodd" fill-opacity="1" /><path clip-path="url(#clip090)" d="M629.63 1454.1 Q626.019 1454.1 624.191 1457.66 Q622.385 1461.2 622.385 1468.33 Q622.385 1475.44 624.191 1479.01 Q626.019 1482.55 629.63 1482.55 Q633.265 1482.55 635.07 1479.01 Q636.899 1475.44 636.899 1468.33 Q636.899 1461.2 635.07 1457.66 Q633.265 1454.1 629.63 1454.1 M629.63 1450.39 Q635.441 1450.39 638.496 1455 Q641.575 1459.58 641.575 1468.33 Q641.575 1477.06 638.496 1481.67 Q635.441 1486.25 629.63 1486.25 Q623.82 1486.25 620.742 1481.67 Q617.686 1477.06 617.686 1468.33 Q617.686 1459.58 620.742 1455 Q623.82 1450.39 629.63 1450.39 Z" fill="#000000" fill-rule="evenodd" fill-opacity="1" /><path clip-path="url(#clip090)" d="M929.724 1481.64 L946.044 1481.64 L946.044 1485.58 L924.099 1485.58 L924.099 1481.64 Q926.761 1478.89 931.345 1474.26 Q935.951 1469.61 937.132 1468.27 Q939.377 1465.74 940.257 1464.01 Q941.159 1462.25 941.159 1460.56 Q941.159 1457.8 939.215 1456.07 Q937.294 1454.33 934.192 1454.33 Q931.993 1454.33 929.539 1455.09 Q927.109 1455.86 924.331 1457.41 L924.331 1452.69 Q927.155 1451.55 929.609 1450.97 Q932.062 1450.39 934.099 1450.39 Q939.47 1450.39 942.664 1453.08 Q945.859 1455.77 945.859 1460.26 Q945.859 1462.39 945.048 1464.31 Q944.261 1466.2 942.155 1468.8 Q941.576 1469.47 938.474 1472.69 Q935.372 1475.88 929.724 1481.64 Z" fill="#000000" fill-rule="evenodd" fill-opacity="1" /><path clip-path="url(#clip090)" d="M965.858 1454.1 Q962.247 1454.1 960.419 1457.66 Q958.613 1461.2 958.613 1468.33 Q958.613 1475.44 960.419 1479.01 Q962.247 1482.55 965.858 1482.55 Q969.493 1482.55 971.298 1479.01 Q973.127 1475.44 973.127 1468.33 Q973.127 1461.2 971.298 1457.66 Q969.493 1454.1 965.858 1454.1 M965.858 1450.39 Q971.669 1450.39 974.724 1455 Q977.803 1459.58 977.803 1468.33 Q977.803 1477.06 974.724 1481.67 Q971.669 1486.25 965.858 1486.25 Q960.048 1486.25 956.97 1481.67 Q953.914 1477.06 953.914 1468.33 Q953.914 1459.58 956.97 1455 Q960.048 1450.39 965.858 1450.39 Z" fill="#000000" fill-rule="evenodd" fill-opacity="1" /><path clip-path="url(#clip090)" d="M1275.15 1466.95 Q1278.51 1467.66 1280.39 1469.93 Q1282.28 1472.2 1282.28 1475.53 Q1282.28 1480.65 1278.76 1483.45 Q1275.25 1486.25 1268.76 1486.25 Q1266.59 1486.25 1264.27 1485.81 Q1261.98 1485.39 1259.53 1484.54 L1259.53 1480.02 Q1261.47 1481.16 1263.79 1481.74 Q1266.1 1482.32 1268.63 1482.32 Q1273.02 1482.32 1275.32 1480.58 Q1277.63 1478.84 1277.63 1475.53 Q1277.63 1472.48 1275.48 1470.77 Q1273.35 1469.03 1269.53 1469.03 L1265.5 1469.03 L1265.5 1465.19 L1269.71 1465.19 Q1273.16 1465.19 1274.99 1463.82 Q1276.82 1462.43 1276.82 1459.84 Q1276.82 1457.18 1274.92 1455.77 Q1273.05 1454.33 1269.53 1454.33 Q1267.61 1454.33 1265.41 1454.75 Q1263.21 1455.16 1260.57 1456.04 L1260.57 1451.88 Q1263.23 1451.14 1265.55 1450.77 Q1267.89 1450.39 1269.95 1450.39 Q1275.27 1450.39 1278.37 1452.83 Q1281.47 1455.23 1281.47 1459.35 Q1281.47 1462.22 1279.83 1464.21 Q1278.19 1466.18 1275.15 1466.95 Z" fill="#000000" fill-rule="evenodd" fill-opacity="1" /><path clip-path="url(#clip090)" d="M1301.15 1454.1 Q1297.54 1454.1 1295.71 1457.66 Q1293.9 1461.2 1293.9 1468.33 Q1293.9 1475.44 1295.71 1479.01 Q1297.54 1482.55 1301.15 1482.55 Q1304.78 1482.55 1306.59 1479.01 Q1308.42 1475.44 1308.42 1468.33 Q1308.42 1461.2 1306.59 1457.66 Q1304.78 1454.1 1301.15 1454.1 M1301.15 1450.39 Q1306.96 1450.39 1310.01 1455 Q1313.09 1459.58 1313.09 1468.33 Q1313.09 1477.06 1310.01 1481.67 Q1306.96 1486.25 1301.15 1486.25 Q1295.34 1486.25 1292.26 1481.67 Q1289.2 1477.06 1289.2 1468.33 Q1289.2 1459.58 1292.26 1455 Q1295.34 1450.39 1301.15 1450.39 Z" fill="#000000" fill-rule="evenodd" fill-opacity="1" /><path clip-path="url(#clip090)" d="M1609.84 1455.09 L1598.04 1473.54 L1609.84 1473.54 L1609.84 1455.09 M1608.62 1451.02 L1614.5 1451.02 L1614.5 1473.54 L1619.43 1473.54 L1619.43 1477.43 L1614.5 1477.43 L1614.5 1485.58 L1609.84 1485.58 L1609.84 1477.43 L1594.24 1477.43 L1594.24 1472.92 L1608.62 1451.02 Z" fill="#000000" fill-rule="evenodd" fill-opacity="1" /><path clip-path="url(#clip090)" d="M1637.16 1454.1 Q1633.55 1454.1 1631.72 1457.66 Q1629.91 1461.2 1629.91 1468.33 Q1629.91 1475.44 1631.72 1479.01 Q1633.55 1482.55 1637.16 1482.55 Q1640.79 1482.55 1642.6 1479.01 Q1644.43 1475.44 1644.43 1468.33 Q1644.43 1461.2 1642.6 1457.66 Q1640.79 1454.1 1637.16 1454.1 M1637.16 1450.39 Q1642.97 1450.39 1646.02 1455 Q1649.1 1459.58 1649.1 1468.33 Q1649.1 1477.06 1646.02 1481.67 Q1642.97 1486.25 1637.16 1486.25 Q1631.35 1486.25 1628.27 1481.67 Q1625.21 1477.06 1625.21 1468.33 Q1625.21 1459.58 1628.27 1455 Q1631.35 1450.39 1637.16 1450.39 Z" fill="#000000" fill-rule="evenodd" fill-opacity="1" /><path clip-path="url(#clip090)" d="M1931.73 1451.02 L1950.09 1451.02 L1950.09 1454.96 L1936.01 1454.96 L1936.01 1463.43 Q1937.03 1463.08 1938.05 1462.92 Q1939.07 1462.73 1940.09 1462.73 Q1945.87 1462.73 1949.25 1465.9 Q1952.63 1469.08 1952.63 1474.49 Q1952.63 1480.07 1949.16 1483.17 Q1945.69 1486.25 1939.37 1486.25 Q1937.19 1486.25 1934.92 1485.88 Q1932.68 1485.51 1930.27 1484.77 L1930.27 1480.07 Q1932.36 1481.2 1934.58 1481.76 Q1936.8 1482.32 1939.28 1482.32 Q1943.28 1482.32 1945.62 1480.21 Q1947.96 1478.1 1947.96 1474.49 Q1947.96 1470.88 1945.62 1468.77 Q1943.28 1466.67 1939.28 1466.67 Q1937.4 1466.67 1935.53 1467.08 Q1933.67 1467.5 1931.73 1468.38 L1931.73 1451.02 Z" fill="#000000" fill-rule="evenodd" fill-opacity="1" /><path clip-path="url(#clip090)" d="M1971.85 1454.1 Q1968.23 1454.1 1966.41 1457.66 Q1964.6 1461.2 1964.6 1468.33 Q1964.6 1475.44 1966.41 1479.01 Q1968.23 1482.55 1971.85 1482.55 Q1975.48 1482.55 1977.29 1479.01 Q1979.11 1475.44 1979.11 1468.33 Q1979.11 1461.2 1977.29 1457.66 Q1975.48 1454.1 1971.85 1454.1 M1971.85 1450.39 Q1977.66 1450.39 1980.71 1455 Q1983.79 1459.58 1983.79 1468.33 Q1983.79 1477.06 1980.71 1481.67 Q1977.66 1486.25 1971.85 1486.25 Q1966.04 1486.25 1962.96 1481.67 Q1959.9 1477.06 1959.9 1468.33 Q1959.9 1459.58 1962.96 1455 Q1966.04 1450.39 1971.85 1450.39 Z" fill="#000000" fill-rule="evenodd" fill-opacity="1" /><path clip-path="url(#clip090)" d="M2277.8 1466.44 Q2274.65 1466.44 2272.8 1468.59 Q2270.97 1470.74 2270.97 1474.49 Q2270.97 1478.22 2272.8 1480.39 Q2274.65 1482.55 2277.8 1482.55 Q2280.94 1482.55 2282.77 1480.39 Q2284.62 1478.22 2284.62 1474.49 Q2284.62 1470.74 2282.77 1468.59 Q2280.94 1466.44 2277.8 1466.44 M2287.08 1451.78 L2287.08 1456.04 Q2285.32 1455.21 2283.51 1454.77 Q2281.73 1454.33 2279.97 1454.33 Q2275.34 1454.33 2272.89 1457.45 Q2270.46 1460.58 2270.11 1466.9 Q2271.48 1464.89 2273.54 1463.82 Q2275.6 1462.73 2278.07 1462.73 Q2283.28 1462.73 2286.29 1465.9 Q2289.32 1469.05 2289.32 1474.49 Q2289.32 1479.82 2286.18 1483.03 Q2283.03 1486.25 2277.8 1486.25 Q2271.8 1486.25 2268.63 1481.67 Q2265.46 1477.06 2265.46 1468.33 Q2265.46 1460.14 2269.35 1455.28 Q2273.24 1450.39 2279.79 1450.39 Q2281.55 1450.39 2283.33 1450.74 Q2285.13 1451.09 2287.08 1451.78 Z" fill="#000000" fill-rule="evenodd" fill-opacity="1" /><path clip-path="url(#clip090)" d="M2307.38 1454.1 Q2303.77 1454.1 2301.94 1457.66 Q2300.13 1461.2 2300.13 1468.33 Q2300.13 1475.44 2301.94 1479.01 Q2303.77 1482.55 2307.38 1482.55 Q2311.01 1482.55 2312.82 1479.01 Q2314.65 1475.44 2314.65 1468.33 Q2314.65 1461.2 2312.82 1457.66 Q2311.01 1454.1 2307.38 1454.1 M2307.38 1450.39 Q2313.19 1450.39 2316.25 1455 Q2319.32 1459.58 2319.32 1468.33 Q2319.32 1477.06 2316.25 1481.67 Q2313.19 1486.25 2307.38 1486.25 Q2301.57 1486.25 2298.49 1481.67 Q2295.44 1477.06 2295.44 1468.33 Q2295.44 1459.58 2298.49 1455 Q2301.57 1450.39 2307.38 1450.39 Z" fill="#000000" fill-rule="evenodd" fill-opacity="1" /><path clip-path="url(#clip090)" d="M1173.77 1522.27 L1173.77 1532.4 L1185.83 1532.4 L1185.83 1536.95 L1173.77 1536.95 L1173.77 1556.3 Q1173.77 1560.66 1174.94 1561.9 Q1176.15 1563.14 1179.81 1563.14 L1185.83 1563.14 L1185.83 1568.04 L1179.81 1568.04 Q1173.03 1568.04 1170.46 1565.53 Q1167.88 1562.98 1167.88 1556.3 L1167.88 1536.95 L1163.58 1536.95 L1163.58 1532.4 L1167.88 1532.4 L1167.88 1522.27 L1173.77 1522.27 Z" fill="#000000" fill-rule="evenodd" fill-opacity="1" /><path clip-path="url(#clip090)" d="M1193.53 1532.4 L1199.39 1532.4 L1199.39 1568.04 L1193.53 1568.04 L1193.53 1532.4 M1193.53 1518.52 L1199.39 1518.52 L1199.39 1525.93 L1193.53 1525.93 L1193.53 1518.52 Z" fill="#000000" fill-rule="evenodd" fill-opacity="1" /><path clip-path="url(#clip090)" d="M1239.4 1539.24 Q1241.59 1535.29 1244.65 1533.41 Q1247.7 1531.54 1251.84 1531.54 Q1257.41 1531.54 1260.43 1535.45 Q1263.46 1539.33 1263.46 1546.53 L1263.46 1568.04 L1257.57 1568.04 L1257.57 1546.72 Q1257.57 1541.59 1255.76 1539.11 Q1253.94 1536.63 1250.22 1536.63 Q1245.67 1536.63 1243.02 1539.65 Q1240.38 1542.68 1240.38 1547.9 L1240.38 1568.04 L1234.49 1568.04 L1234.49 1546.72 Q1234.49 1541.56 1232.68 1539.11 Q1230.87 1536.63 1227.08 1536.63 Q1222.59 1536.63 1219.95 1539.68 Q1217.31 1542.71 1217.31 1547.9 L1217.31 1568.04 L1211.42 1568.04 L1211.42 1532.4 L1217.31 1532.4 L1217.31 1537.93 Q1219.31 1534.66 1222.11 1533.1 Q1224.91 1531.54 1228.77 1531.54 Q1232.65 1531.54 1235.35 1533.51 Q1238.09 1535.48 1239.4 1539.24 Z" fill="#000000" fill-rule="evenodd" fill-opacity="1" /><path clip-path="url(#clip090)" d="M1305.63 1548.76 L1305.63 1551.62 L1278.7 1551.62 Q1279.09 1557.67 1282.33 1560.85 Q1285.61 1564 1291.44 1564 Q1294.81 1564 1297.96 1563.17 Q1301.14 1562.35 1304.26 1560.69 L1304.26 1566.23 Q1301.11 1567.57 1297.8 1568.27 Q1294.49 1568.97 1291.09 1568.97 Q1282.56 1568.97 1277.56 1564 Q1272.59 1559.04 1272.59 1550.57 Q1272.59 1541.82 1277.3 1536.69 Q1282.05 1531.54 1290.07 1531.54 Q1297.26 1531.54 1301.43 1536.18 Q1305.63 1540.8 1305.63 1548.76 M1299.77 1547.04 Q1299.71 1542.23 1297.07 1539.37 Q1294.46 1536.5 1290.13 1536.5 Q1285.23 1536.5 1282.27 1539.27 Q1279.34 1542.04 1278.9 1547.07 L1299.77 1547.04 Z" fill="#000000" fill-rule="evenodd" fill-opacity="1" /><path clip-path="url(#clip090)" d="M1350.03 1518.58 Q1345.77 1525.9 1343.7 1533.06 Q1341.63 1540.23 1341.63 1547.58 Q1341.63 1554.93 1343.7 1562.16 Q1345.8 1569.35 1350.03 1576.64 L1344.94 1576.64 Q1340.16 1569.16 1337.78 1561.93 Q1335.42 1554.71 1335.42 1547.58 Q1335.42 1540.48 1337.78 1533.29 Q1340.13 1526.09 1344.94 1518.58 L1350.03 1518.58 Z" fill="#000000" fill-rule="evenodd" fill-opacity="1" /><path clip-path="url(#clip090)" d="M1384.12 1533.45 L1384.12 1538.98 Q1381.64 1537.71 1378.96 1537.07 Q1376.29 1536.44 1373.43 1536.44 Q1369.07 1536.44 1366.87 1537.77 Q1364.7 1539.11 1364.7 1541.79 Q1364.7 1543.82 1366.26 1545 Q1367.82 1546.15 1372.53 1547.2 L1374.54 1547.64 Q1380.78 1548.98 1383.39 1551.43 Q1386.03 1553.85 1386.03 1558.21 Q1386.03 1563.17 1382.08 1566.07 Q1378.17 1568.97 1371.29 1568.97 Q1368.43 1568.97 1365.31 1568.39 Q1362.22 1567.85 1358.78 1566.74 L1358.78 1560.69 Q1362.03 1562.38 1365.18 1563.24 Q1368.33 1564.07 1371.42 1564.07 Q1375.56 1564.07 1377.79 1562.66 Q1380.01 1561.23 1380.01 1558.65 Q1380.01 1556.27 1378.39 1554.99 Q1376.8 1553.72 1371.36 1552.54 L1369.32 1552.07 Q1363.88 1550.92 1361.46 1548.56 Q1359.04 1546.18 1359.04 1542.04 Q1359.04 1537.01 1362.6 1534.27 Q1366.17 1531.54 1372.73 1531.54 Q1375.97 1531.54 1378.84 1532.01 Q1381.7 1532.49 1384.12 1533.45 Z" fill="#000000" fill-rule="evenodd" fill-opacity="1" /><path clip-path="url(#clip090)" d="M1394.43 1518.58 L1399.53 1518.58 Q1404.3 1526.09 1406.65 1533.29 Q1409.04 1540.48 1409.04 1547.58 Q1409.04 1554.71 1406.65 1561.93 Q1404.3 1569.16 1399.53 1576.64 L1394.43 1576.64 Q1398.67 1569.35 1400.73 1562.16 Q1402.84 1554.93 1402.84 1547.58 Q1402.84 1540.23 1400.73 1533.06 Q1398.67 1525.9 1394.43 1518.58 Z" fill="#000000" fill-rule="evenodd" fill-opacity="1" /><polyline clip-path="url(#clip092)" style="stroke:#000000; stroke-linecap:butt; stroke-linejoin:round; stroke-width:2; stroke-opacity:0.1; fill:none" points="
  219.866,1412.14 2352.76,1412.14 
  "/>
<polyline clip-path="url(#clip092)" style="stroke:#000000; stroke-linecap:butt; stroke-linejoin:round; stroke-width:2; stroke-opacity:0.1; fill:none" points="
  219.866,1168.4 2352.76,1168.4 
  "/>
<polyline clip-path="url(#clip092)" style="stroke:#000000; stroke-linecap:butt; stroke-linejoin:round; stroke-width:2; stroke-opacity:0.1; fill:none" points="
  219.866,924.667 2352.76,924.667 
  "/>
<polyline clip-path="url(#clip092)" style="stroke:#000000; stroke-linecap:butt; stroke-linejoin:round; stroke-width:2; stroke-opacity:0.1; fill:none" points="
  219.866,680.93 2352.76,680.93 
  "/>
<polyline clip-path="url(#clip092)" style="stroke:#000000; stroke-linecap:butt; stroke-linejoin:round; stroke-width:2; stroke-opacity:0.1; fill:none" points="
  219.866,437.194 2352.76,437.194 
  "/>
<polyline clip-path="url(#clip092)" style="stroke:#000000; stroke-linecap:butt; stroke-linejoin:round; stroke-width:2; stroke-opacity:0.1; fill:none" points="
  219.866,193.458 2352.76,193.458 
  "/>
<polyline clip-path="url(#clip090)" style="stroke:#000000; stroke-linecap:butt; stroke-linejoin:round; stroke-width:4; stroke-opacity:1; fill:none" points="
  219.866,1423.18 219.866,123.472 
  "/>
<polyline clip-path="url(#clip090)" style="stroke:#000000; stroke-linecap:butt; stroke-linejoin:round; stroke-width:4; stroke-opacity:1; fill:none" points="
  219.866,1412.14 238.764,1412.14 
  "/>
<polyline clip-path="url(#clip090)" style="stroke:#000000; stroke-linecap:butt; stroke-linejoin:round; stroke-width:4; stroke-opacity:1; fill:none" points="
  219.866,1168.4 238.764,1168.4 
  "/>
<polyline clip-path="url(#clip090)" style="stroke:#000000; stroke-linecap:butt; stroke-linejoin:round; stroke-width:4; stroke-opacity:1; fill:none" points="
  219.866,924.667 238.764,924.667 
  "/>
<polyline clip-path="url(#clip090)" style="stroke:#000000; stroke-linecap:butt; stroke-linejoin:round; stroke-width:4; stroke-opacity:1; fill:none" points="
  219.866,680.93 238.764,680.93 
  "/>
<polyline clip-path="url(#clip090)" style="stroke:#000000; stroke-linecap:butt; stroke-linejoin:round; stroke-width:4; stroke-opacity:1; fill:none" points="
  219.866,437.194 238.764,437.194 
  "/>
<polyline clip-path="url(#clip090)" style="stroke:#000000; stroke-linecap:butt; stroke-linejoin:round; stroke-width:4; stroke-opacity:1; fill:none" points="
  219.866,193.458 238.764,193.458 
  "/>
<path clip-path="url(#clip090)" d="M126.691 1397.94 Q123.08 1397.94 121.251 1401.5 Q119.445 1405.04 119.445 1412.17 Q119.445 1419.28 121.251 1422.84 Q123.08 1426.39 126.691 1426.39 Q130.325 1426.39 132.13 1422.84 Q133.959 1419.28 133.959 1412.17 Q133.959 1405.04 132.13 1401.5 Q130.325 1397.94 126.691 1397.94 M126.691 1394.23 Q132.501 1394.23 135.556 1398.84 Q138.635 1403.42 138.635 1412.17 Q138.635 1420.9 135.556 1425.51 Q132.501 1430.09 126.691 1430.09 Q120.88 1430.09 117.802 1425.51 Q114.746 1420.9 114.746 1412.17 Q114.746 1403.42 117.802 1398.84 Q120.88 1394.23 126.691 1394.23 Z" fill="#000000" fill-rule="evenodd" fill-opacity="1" /><path clip-path="url(#clip090)" d="M146.853 1423.54 L151.737 1423.54 L151.737 1429.42 L146.853 1429.42 L146.853 1423.54 Z" fill="#000000" fill-rule="evenodd" fill-opacity="1" /><path clip-path="url(#clip090)" d="M171.922 1397.94 Q168.311 1397.94 166.482 1401.5 Q164.677 1405.04 164.677 1412.17 Q164.677 1419.28 166.482 1422.84 Q168.311 1426.39 171.922 1426.39 Q175.556 1426.39 177.362 1422.84 Q179.19 1419.28 179.19 1412.17 Q179.19 1405.04 177.362 1401.5 Q175.556 1397.94 171.922 1397.94 M171.922 1394.23 Q177.732 1394.23 180.788 1398.84 Q183.866 1403.42 183.866 1412.17 Q183.866 1420.9 180.788 1425.51 Q177.732 1430.09 171.922 1430.09 Q166.112 1430.09 163.033 1425.51 Q159.978 1420.9 159.978 1412.17 Q159.978 1403.42 163.033 1398.84 Q166.112 1394.23 171.922 1394.23 Z" fill="#000000" fill-rule="evenodd" fill-opacity="1" /><path clip-path="url(#clip090)" d="M127.917 1154.2 Q124.306 1154.2 122.478 1157.77 Q120.672 1161.31 120.672 1168.44 Q120.672 1175.54 122.478 1179.11 Q124.306 1182.65 127.917 1182.65 Q131.552 1182.65 133.357 1179.11 Q135.186 1175.54 135.186 1168.44 Q135.186 1161.31 133.357 1157.77 Q131.552 1154.2 127.917 1154.2 M127.917 1150.5 Q133.728 1150.5 136.783 1155.1 Q139.862 1159.69 139.862 1168.44 Q139.862 1177.16 136.783 1181.77 Q133.728 1186.35 127.917 1186.35 Q122.107 1186.35 119.029 1181.77 Q115.973 1177.16 115.973 1168.44 Q115.973 1159.69 119.029 1155.1 Q122.107 1150.5 127.917 1150.5 Z" fill="#000000" fill-rule="evenodd" fill-opacity="1" /><path clip-path="url(#clip090)" d="M148.079 1179.8 L152.964 1179.8 L152.964 1185.68 L148.079 1185.68 L148.079 1179.8 Z" fill="#000000" fill-rule="evenodd" fill-opacity="1" /><path clip-path="url(#clip090)" d="M163.959 1181.75 L171.598 1181.75 L171.598 1155.38 L163.288 1157.05 L163.288 1152.79 L171.552 1151.12 L176.227 1151.12 L176.227 1181.75 L183.866 1181.75 L183.866 1185.68 L163.959 1185.68 L163.959 1181.75 Z" fill="#000000" fill-rule="evenodd" fill-opacity="1" /><path clip-path="url(#clip090)" d="M128.288 910.465 Q124.677 910.465 122.848 914.03 Q121.043 917.572 121.043 924.701 Q121.043 931.808 122.848 935.372 Q124.677 938.914 128.288 938.914 Q131.922 938.914 133.728 935.372 Q135.556 931.808 135.556 924.701 Q135.556 917.572 133.728 914.03 Q131.922 910.465 128.288 910.465 M128.288 906.762 Q134.098 906.762 137.154 911.368 Q140.232 915.951 140.232 924.701 Q140.232 933.428 137.154 938.034 Q134.098 942.618 128.288 942.618 Q122.478 942.618 119.399 938.034 Q116.343 933.428 116.343 924.701 Q116.343 915.951 119.399 911.368 Q122.478 906.762 128.288 906.762 Z" fill="#000000" fill-rule="evenodd" fill-opacity="1" /><path clip-path="url(#clip090)" d="M148.45 936.067 L153.334 936.067 L153.334 941.947 L148.45 941.947 L148.45 936.067 Z" fill="#000000" fill-rule="evenodd" fill-opacity="1" /><path clip-path="url(#clip090)" d="M167.547 938.011 L183.866 938.011 L183.866 941.947 L161.922 941.947 L161.922 938.011 Q164.584 935.257 169.167 930.627 Q173.774 925.974 174.954 924.632 Q177.2 922.109 178.079 920.373 Q178.982 918.613 178.982 916.923 Q178.982 914.169 177.038 912.433 Q175.116 910.697 172.014 910.697 Q169.815 910.697 167.362 911.461 Q164.931 912.224 162.153 913.775 L162.153 909.053 Q164.977 907.919 167.431 907.34 Q169.885 906.762 171.922 906.762 Q177.292 906.762 180.487 909.447 Q183.681 912.132 183.681 916.623 Q183.681 918.752 182.871 920.673 Q182.084 922.572 179.977 925.164 Q179.399 925.835 176.297 929.053 Q173.195 932.247 167.547 938.011 Z" fill="#000000" fill-rule="evenodd" fill-opacity="1" /><path clip-path="url(#clip090)" d="M127.339 666.729 Q123.728 666.729 121.899 670.294 Q120.093 673.836 120.093 680.965 Q120.093 688.072 121.899 691.636 Q123.728 695.178 127.339 695.178 Q130.973 695.178 132.779 691.636 Q134.607 688.072 134.607 680.965 Q134.607 673.836 132.779 670.294 Q130.973 666.729 127.339 666.729 M127.339 663.025 Q133.149 663.025 136.204 667.632 Q139.283 672.215 139.283 680.965 Q139.283 689.692 136.204 694.298 Q133.149 698.882 127.339 698.882 Q121.529 698.882 118.45 694.298 Q115.394 689.692 115.394 680.965 Q115.394 672.215 118.45 667.632 Q121.529 663.025 127.339 663.025 Z" fill="#000000" fill-rule="evenodd" fill-opacity="1" /><path clip-path="url(#clip090)" d="M147.501 692.331 L152.385 692.331 L152.385 698.21 L147.501 698.21 L147.501 692.331 Z" fill="#000000" fill-rule="evenodd" fill-opacity="1" /><path clip-path="url(#clip090)" d="M176.737 679.576 Q180.093 680.294 181.968 682.562 Q183.866 684.831 183.866 688.164 Q183.866 693.28 180.348 696.081 Q176.829 698.882 170.348 698.882 Q168.172 698.882 165.857 698.442 Q163.565 698.025 161.112 697.169 L161.112 692.655 Q163.056 693.789 165.371 694.368 Q167.686 694.947 170.209 694.947 Q174.607 694.947 176.899 693.211 Q179.214 691.474 179.214 688.164 Q179.214 685.109 177.061 683.396 Q174.931 681.66 171.112 681.66 L167.084 681.66 L167.084 677.817 L171.297 677.817 Q174.746 677.817 176.575 676.451 Q178.403 675.062 178.403 672.47 Q178.403 669.808 176.505 668.396 Q174.63 666.961 171.112 666.961 Q169.19 666.961 166.991 667.377 Q164.792 667.794 162.153 668.674 L162.153 664.507 Q164.815 663.766 167.13 663.396 Q169.468 663.025 171.528 663.025 Q176.852 663.025 179.954 665.456 Q183.056 667.863 183.056 671.984 Q183.056 674.854 181.413 676.845 Q179.769 678.812 176.737 679.576 Z" fill="#000000" fill-rule="evenodd" fill-opacity="1" /><path clip-path="url(#clip090)" d="M126.205 422.993 Q122.593 422.993 120.765 426.558 Q118.959 430.1 118.959 437.229 Q118.959 444.336 120.765 447.9 Q122.593 451.442 126.205 451.442 Q129.839 451.442 131.644 447.9 Q133.473 444.336 133.473 437.229 Q133.473 430.1 131.644 426.558 Q129.839 422.993 126.205 422.993 M126.205 419.289 Q132.015 419.289 135.07 423.896 Q138.149 428.479 138.149 437.229 Q138.149 445.956 135.07 450.562 Q132.015 455.146 126.205 455.146 Q120.394 455.146 117.316 450.562 Q114.26 445.956 114.26 437.229 Q114.26 428.479 117.316 423.896 Q120.394 419.289 126.205 419.289 Z" fill="#000000" fill-rule="evenodd" fill-opacity="1" /><path clip-path="url(#clip090)" d="M146.366 448.595 L151.251 448.595 L151.251 454.474 L146.366 454.474 L146.366 448.595 Z" fill="#000000" fill-rule="evenodd" fill-opacity="1" /><path clip-path="url(#clip090)" d="M174.283 423.988 L162.477 442.437 L174.283 442.437 L174.283 423.988 M173.056 419.914 L178.936 419.914 L178.936 442.437 L183.866 442.437 L183.866 446.326 L178.936 446.326 L178.936 454.474 L174.283 454.474 L174.283 446.326 L158.681 446.326 L158.681 441.812 L173.056 419.914 Z" fill="#000000" fill-rule="evenodd" fill-opacity="1" /><path clip-path="url(#clip090)" d="M127.686 179.257 Q124.075 179.257 122.246 182.822 Q120.441 186.364 120.441 193.493 Q120.441 200.6 122.246 204.164 Q124.075 207.706 127.686 207.706 Q131.32 207.706 133.126 204.164 Q134.954 200.6 134.954 193.493 Q134.954 186.364 133.126 182.822 Q131.32 179.257 127.686 179.257 M127.686 175.553 Q133.496 175.553 136.552 180.16 Q139.63 184.743 139.63 193.493 Q139.63 202.22 136.552 206.826 Q133.496 211.41 127.686 211.41 Q121.876 211.41 118.797 206.826 Q115.742 202.22 115.742 193.493 Q115.742 184.743 118.797 180.16 Q121.876 175.553 127.686 175.553 Z" fill="#000000" fill-rule="evenodd" fill-opacity="1" /><path clip-path="url(#clip090)" d="M147.848 204.859 L152.732 204.859 L152.732 210.738 L147.848 210.738 L147.848 204.859 Z" fill="#000000" fill-rule="evenodd" fill-opacity="1" /><path clip-path="url(#clip090)" d="M162.964 176.178 L181.32 176.178 L181.32 180.114 L167.246 180.114 L167.246 188.586 Q168.264 188.239 169.283 188.076 Q170.302 187.891 171.32 187.891 Q177.107 187.891 180.487 191.063 Q183.866 194.234 183.866 199.651 Q183.866 205.229 180.394 208.331 Q176.922 211.41 170.602 211.41 Q168.427 211.41 166.158 211.039 Q163.913 210.669 161.505 209.928 L161.505 205.229 Q163.589 206.363 165.811 206.919 Q168.033 207.475 170.51 207.475 Q174.514 207.475 176.852 205.368 Q179.19 203.262 179.19 199.651 Q179.19 196.039 176.852 193.933 Q174.514 191.826 170.51 191.826 Q168.635 191.826 166.76 192.243 Q164.908 192.66 162.964 193.539 L162.964 176.178 Z" fill="#000000" fill-rule="evenodd" fill-opacity="1" /><path clip-path="url(#clip090)" d="M44.7161 1111.31 L47.5806 1111.31 L47.5806 1138.24 Q53.6281 1137.86 56.8109 1134.61 Q59.9619 1131.33 59.9619 1125.51 Q59.9619 1122.13 59.1344 1118.98 Q58.3069 1115.8 56.6518 1112.68 L62.1899 1112.68 Q63.5267 1115.83 64.227 1119.14 Q64.9272 1122.45 64.9272 1125.86 Q64.9272 1134.39 59.9619 1139.39 Q54.9967 1144.35 46.5303 1144.35 Q37.7774 1144.35 32.6531 1139.64 Q27.4968 1134.9 27.4968 1126.88 Q27.4968 1119.68 32.1438 1115.51 Q36.7589 1111.31 44.7161 1111.31 M42.9973 1117.17 Q38.1912 1117.23 35.3266 1119.88 Q32.4621 1122.48 32.4621 1126.81 Q32.4621 1131.72 35.2312 1134.68 Q38.0002 1137.6 43.0292 1138.05 L42.9973 1117.17 Z" fill="#000000" fill-rule="evenodd" fill-opacity="1" /><path clip-path="url(#clip090)" d="M28.3562 1105.9 L28.3562 1099.7 L58.275 1088.56 L28.3562 1077.42 L28.3562 1071.21 L64.0042 1084.58 L64.0042 1092.53 L28.3562 1105.9 Z" fill="#000000" fill-rule="evenodd" fill-opacity="1" /><path clip-path="url(#clip090)" d="M46.0847 1046.92 Q46.0847 1054.02 47.7079 1056.76 Q49.3312 1059.5 53.2461 1059.5 Q56.3653 1059.5 58.2114 1057.46 Q60.0256 1055.39 60.0256 1051.86 Q60.0256 1046.99 56.5881 1044.06 Q53.1188 1041.1 47.3897 1041.1 L46.0847 1041.1 L46.0847 1046.92 M43.6657 1035.24 L64.0042 1035.24 L64.0042 1041.1 L58.5933 1041.1 Q61.8398 1043.1 63.3994 1046.1 Q64.9272 1049.09 64.9272 1053.42 Q64.9272 1058.89 61.8716 1062.14 Q58.7843 1065.35 53.6281 1065.35 Q47.6125 1065.35 44.5569 1061.34 Q41.5014 1057.3 41.5014 1049.31 L41.5014 1041.1 L40.9285 1041.1 Q36.8862 1041.1 34.6901 1043.77 Q32.4621 1046.41 32.4621 1051.22 Q32.4621 1054.28 33.1941 1057.17 Q33.9262 1060.07 35.3903 1062.74 L29.9795 1062.74 Q28.7381 1059.53 28.1334 1056.5 Q27.4968 1053.48 27.4968 1050.62 Q27.4968 1042.88 31.5072 1039.06 Q35.5176 1035.24 43.6657 1035.24 Z" fill="#000000" fill-rule="evenodd" fill-opacity="1" /><path clip-path="url(#clip090)" d="M58.657 1017.51 L77.5631 1017.51 L77.5631 1023.4 L28.3562 1023.4 L28.3562 1017.51 L33.7671 1017.51 Q30.5842 1015.67 29.0564 1012.87 Q27.4968 1010.03 27.4968 1006.12 Q27.4968 999.627 32.6531 995.585 Q37.8093 991.511 46.212 991.511 Q54.6147 991.511 59.771 995.585 Q64.9272 999.627 64.9272 1006.12 Q64.9272 1010.03 63.3994 1012.87 Q61.8398 1015.67 58.657 1017.51 M46.212 997.59 Q39.7508 997.59 36.0905 1000.26 Q32.3984 1002.91 32.3984 1007.55 Q32.3984 1012.2 36.0905 1014.87 Q39.7508 1017.51 46.212 1017.51 Q52.6732 1017.51 56.3653 1014.87 Q60.0256 1012.2 60.0256 1007.55 Q60.0256 1002.91 56.3653 1000.26 Q52.6732 997.59 46.212 997.59 Z" fill="#000000" fill-rule="evenodd" fill-opacity="1" /><path clip-path="url(#clip090)" d="M32.4621 967.989 Q32.4621 972.7 36.1542 975.437 Q39.8145 978.174 46.212 978.174 Q52.6095 978.174 56.3017 975.469 Q59.9619 972.732 59.9619 967.989 Q59.9619 963.31 56.2698 960.573 Q52.5777 957.836 46.212 957.836 Q39.8781 957.836 36.186 960.573 Q32.4621 963.31 32.4621 967.989 M27.4968 967.989 Q27.4968 960.35 32.4621 955.99 Q37.4273 951.629 46.212 951.629 Q54.9649 951.629 59.9619 955.99 Q64.9272 960.35 64.9272 967.989 Q64.9272 975.66 59.9619 980.02 Q54.9649 984.349 46.212 984.349 Q37.4273 984.349 32.4621 980.02 Q27.4968 975.66 27.4968 967.989 Z" fill="#000000" fill-rule="evenodd" fill-opacity="1" /><path clip-path="url(#clip090)" d="M33.8307 921.265 Q33.2578 922.252 33.0032 923.429 Q32.7167 924.575 32.7167 925.976 Q32.7167 930.941 35.9632 933.614 Q39.1779 936.256 45.2253 936.256 L64.0042 936.256 L64.0042 942.145 L28.3562 942.145 L28.3562 936.256 L33.8944 936.256 Q30.6479 934.41 29.0883 931.45 Q27.4968 928.49 27.4968 924.257 Q27.4968 923.652 27.5923 922.92 Q27.656 922.188 27.8151 921.297 L33.8307 921.265 Z" fill="#000000" fill-rule="evenodd" fill-opacity="1" /><path clip-path="url(#clip090)" d="M46.0847 898.921 Q46.0847 906.019 47.7079 908.756 Q49.3312 911.494 53.2461 911.494 Q56.3653 911.494 58.2114 909.457 Q60.0256 907.388 60.0256 903.855 Q60.0256 898.985 56.5881 896.057 Q53.1188 893.097 47.3897 893.097 L46.0847 893.097 L46.0847 898.921 M43.6657 887.24 L64.0042 887.24 L64.0042 893.097 L58.5933 893.097 Q61.8398 895.102 63.3994 898.094 Q64.9272 901.086 64.9272 905.414 Q64.9272 910.889 61.8716 914.135 Q58.7843 917.35 53.6281 917.35 Q47.6125 917.35 44.5569 913.34 Q41.5014 909.297 41.5014 901.309 L41.5014 893.097 L40.9285 893.097 Q36.8862 893.097 34.6901 895.77 Q32.4621 898.412 32.4621 903.218 Q32.4621 906.274 33.1941 909.17 Q33.9262 912.067 35.3903 914.74 L29.9795 914.74 Q28.7381 911.525 28.1334 908.502 Q27.4968 905.478 27.4968 902.613 Q27.4968 894.879 31.5072 891.06 Q35.5176 887.24 43.6657 887.24 Z" fill="#000000" fill-rule="evenodd" fill-opacity="1" /><path clip-path="url(#clip090)" d="M18.2347 869.384 L28.3562 869.384 L28.3562 857.321 L32.9077 857.321 L32.9077 869.384 L52.2594 869.384 Q56.6199 869.384 57.8613 868.207 Q59.1026 866.997 59.1026 863.337 L59.1026 857.321 L64.0042 857.321 L64.0042 863.337 Q64.0042 870.117 61.4897 872.695 Q58.9434 875.273 52.2594 875.273 L32.9077 875.273 L32.9077 879.57 L28.3562 879.57 L28.3562 875.273 L18.2347 875.273 L18.2347 869.384 Z" fill="#000000" fill-rule="evenodd" fill-opacity="1" /><path clip-path="url(#clip090)" d="M28.3562 849.619 L28.3562 843.763 L64.0042 843.763 L64.0042 849.619 L28.3562 849.619 M14.479 849.619 L14.479 843.763 L21.895 843.763 L21.895 849.619 L14.479 849.619 Z" fill="#000000" fill-rule="evenodd" fill-opacity="1" /><path clip-path="url(#clip090)" d="M32.4621 817.695 Q32.4621 822.406 36.1542 825.143 Q39.8145 827.88 46.212 827.88 Q52.6095 827.88 56.3017 825.175 Q59.9619 822.437 59.9619 817.695 Q59.9619 813.016 56.2698 810.279 Q52.5777 807.542 46.212 807.542 Q39.8781 807.542 36.186 810.279 Q32.4621 813.016 32.4621 817.695 M27.4968 817.695 Q27.4968 810.056 32.4621 805.696 Q37.4273 801.335 46.212 801.335 Q54.9649 801.335 59.9619 805.696 Q64.9272 810.056 64.9272 817.695 Q64.9272 825.366 59.9619 829.726 Q54.9649 834.055 46.212 834.055 Q37.4273 834.055 32.4621 829.726 Q27.4968 825.366 27.4968 817.695 Z" fill="#000000" fill-rule="evenodd" fill-opacity="1" /><path clip-path="url(#clip090)" d="M42.4881 761.995 L64.0042 761.995 L64.0042 767.851 L42.679 767.851 Q37.6183 767.851 35.1038 769.825 Q32.5894 771.798 32.5894 775.745 Q32.5894 780.487 35.6131 783.225 Q38.6368 785.962 43.8567 785.962 L64.0042 785.962 L64.0042 791.85 L28.3562 791.85 L28.3562 785.962 L33.8944 785.962 Q30.6797 783.861 29.0883 781.028 Q27.4968 778.164 27.4968 774.44 Q27.4968 768.297 31.3163 765.146 Q35.1038 761.995 42.4881 761.995 Z" fill="#000000" fill-rule="evenodd" fill-opacity="1" /><path clip-path="url(#clip090)" d="M33.8307 708.937 Q33.2578 709.924 33.0032 711.101 Q32.7167 712.247 32.7167 713.647 Q32.7167 718.613 35.9632 721.286 Q39.1779 723.928 45.2253 723.928 L64.0042 723.928 L64.0042 729.816 L28.3562 729.816 L28.3562 723.928 L33.8944 723.928 Q30.6479 722.082 29.0883 719.122 Q27.4968 716.162 27.4968 711.929 Q27.4968 711.324 27.5923 710.592 Q27.656 709.86 27.8151 708.969 L33.8307 708.937 Z" fill="#000000" fill-rule="evenodd" fill-opacity="1" /><path clip-path="url(#clip090)" d="M46.0847 686.593 Q46.0847 693.691 47.7079 696.428 Q49.3312 699.166 53.2461 699.166 Q56.3653 699.166 58.2114 697.128 Q60.0256 695.06 60.0256 691.527 Q60.0256 686.657 56.5881 683.729 Q53.1188 680.769 47.3897 680.769 L46.0847 680.769 L46.0847 686.593 M43.6657 674.912 L64.0042 674.912 L64.0042 680.769 L58.5933 680.769 Q61.8398 682.774 63.3994 685.766 Q64.9272 688.758 64.9272 693.086 Q64.9272 698.561 61.8716 701.807 Q58.7843 705.022 53.6281 705.022 Q47.6125 705.022 44.5569 701.012 Q41.5014 696.969 41.5014 688.98 L41.5014 680.769 L40.9285 680.769 Q36.8862 680.769 34.6901 683.442 Q32.4621 686.084 32.4621 690.89 Q32.4621 693.946 33.1941 696.842 Q33.9262 699.738 35.3903 702.412 L29.9795 702.412 Q28.7381 699.197 28.1334 696.174 Q27.4968 693.15 27.4968 690.285 Q27.4968 682.551 31.5072 678.732 Q35.5176 674.912 43.6657 674.912 Z" fill="#000000" fill-rule="evenodd" fill-opacity="1" /><path clip-path="url(#clip090)" d="M18.2347 657.056 L28.3562 657.056 L28.3562 644.993 L32.9077 644.993 L32.9077 657.056 L52.2594 657.056 Q56.6199 657.056 57.8613 655.879 Q59.1026 654.669 59.1026 651.009 L59.1026 644.993 L64.0042 644.993 L64.0042 651.009 Q64.0042 657.788 61.4897 660.367 Q58.9434 662.945 52.2594 662.945 L32.9077 662.945 L32.9077 667.241 L28.3562 667.241 L28.3562 662.945 L18.2347 662.945 L18.2347 657.056 Z" fill="#000000" fill-rule="evenodd" fill-opacity="1" /><path clip-path="url(#clip090)" d="M44.7161 606.799 L47.5806 606.799 L47.5806 633.726 Q53.6281 633.344 56.8109 630.098 Q59.9619 626.819 59.9619 620.995 Q59.9619 617.621 59.1344 614.47 Q58.3069 611.287 56.6518 608.168 L62.1899 608.168 Q63.5267 611.319 64.227 614.629 Q64.9272 617.939 64.9272 621.345 Q64.9272 629.875 59.9619 634.872 Q54.9967 639.837 46.5303 639.837 Q37.7774 639.837 32.6531 635.126 Q27.4968 630.384 27.4968 622.363 Q27.4968 615.17 32.1438 611 Q36.7589 606.799 44.7161 606.799 M42.9973 612.656 Q38.1912 612.719 35.3266 615.361 Q32.4621 617.971 32.4621 622.3 Q32.4621 627.201 35.2312 630.161 Q38.0002 633.089 43.0292 633.535 L42.9973 612.656 Z" fill="#000000" fill-rule="evenodd" fill-opacity="1" /><path clip-path="url(#clip090)" d="M14.5426 562.398 Q21.8632 566.663 29.0246 568.732 Q36.186 570.801 43.5384 570.801 Q50.8908 570.801 58.1159 568.732 Q65.3091 566.631 72.5979 562.398 L72.5979 567.491 Q65.1182 572.265 57.8931 574.652 Q50.668 577.008 43.5384 577.008 Q36.4406 577.008 29.2474 574.652 Q22.0542 572.297 14.5426 567.491 L14.5426 562.398 Z" fill="#000000" fill-rule="evenodd" fill-opacity="1" /><path clip-path="url(#clip090)" d="M14.479 551.258 L14.479 545.37 L43.7294 545.37 L28.3562 527.896 L28.3562 520.416 L45.0344 539.323 L64.0042 519.621 L64.0042 527.26 L46.5939 545.37 L64.0042 545.37 L64.0042 551.258 L14.479 551.258 Z" fill="#000000" fill-rule="evenodd" fill-opacity="1" /><path clip-path="url(#clip090)" d="M45.7664 489.829 Q39.4007 489.829 35.8996 492.471 Q32.3984 495.081 32.3984 499.823 Q32.3984 504.534 35.8996 507.176 Q39.4007 509.786 45.7664 509.786 Q52.1003 509.786 55.6014 507.176 Q59.1026 504.534 59.1026 499.823 Q59.1026 495.081 55.6014 492.471 Q52.1003 489.829 45.7664 489.829 M59.58 483.973 Q68.683 483.973 73.1071 488.015 Q77.5631 492.057 77.5631 500.396 Q77.5631 503.484 77.0857 506.221 Q76.6401 508.958 75.6852 511.536 L69.9879 511.536 Q71.3884 508.958 72.0568 506.444 Q72.7252 503.929 72.7252 501.319 Q72.7252 495.558 69.7015 492.694 Q66.7096 489.829 60.6303 489.829 L57.7339 489.829 Q60.885 491.643 62.4446 494.476 Q64.0042 497.309 64.0042 501.256 Q64.0042 507.812 59.0071 511.823 Q54.01 515.833 45.7664 515.833 Q37.491 515.833 32.4939 511.823 Q27.4968 507.812 27.4968 501.256 Q27.4968 497.309 29.0564 494.476 Q30.616 491.643 33.7671 489.829 L28.3562 489.829 L28.3562 483.973 L59.58 483.973 Z" fill="#000000" fill-rule="evenodd" fill-opacity="1" /><path clip-path="url(#clip090)" d="M16.4842 461.502 L16.4842 456.091 L70.0516 472.642 L70.0516 478.053 L16.4842 461.502 Z" fill="#000000" fill-rule="evenodd" fill-opacity="1" /><path clip-path="url(#clip090)" d="M29.4065 427.223 L34.9447 427.223 Q33.6716 429.705 33.035 432.379 Q32.3984 435.052 32.3984 437.917 Q32.3984 442.277 33.7352 444.474 Q35.072 446.638 37.7456 446.638 Q39.7826 446.638 40.9603 445.078 Q42.1061 443.519 43.1565 438.808 L43.6021 436.803 Q44.9389 430.565 47.3897 427.955 Q49.8086 425.313 54.1691 425.313 Q59.1344 425.313 62.0308 429.26 Q64.9272 433.174 64.9272 440.049 Q64.9272 442.914 64.3543 446.033 Q63.8132 449.121 62.6992 452.558 L56.6518 452.558 Q58.3387 449.312 59.198 446.16 Q60.0256 443.009 60.0256 439.922 Q60.0256 435.784 58.6251 433.556 Q57.1929 431.328 54.6147 431.328 Q52.2276 431.328 50.9545 432.952 Q49.6813 434.543 48.5037 439.986 L48.0262 442.023 Q46.8804 447.465 44.5251 449.884 Q42.138 452.303 38.0002 452.303 Q32.9713 452.303 30.2341 448.739 Q27.4968 445.174 27.4968 438.617 Q27.4968 435.371 27.9743 432.506 Q28.4517 429.641 29.4065 427.223 Z" fill="#000000" fill-rule="evenodd" fill-opacity="1" /><path clip-path="url(#clip090)" d="M14.5426 416.91 L14.5426 411.818 Q22.0542 407.043 29.2474 404.688 Q36.4406 402.301 43.5384 402.301 Q50.668 402.301 57.8931 404.688 Q65.1182 407.043 72.5979 411.818 L72.5979 416.91 Q65.3091 412.677 58.1159 410.608 Q50.8908 408.507 43.5384 408.507 Q36.186 408.507 29.0246 410.608 Q21.8632 412.677 14.5426 416.91 Z" fill="#000000" fill-rule="evenodd" fill-opacity="1" /><path clip-path="url(#clip090)" d="M851.406 65.7705 L851.406 89.8329 L843.912 89.8329 L843.912 27.2059 L851.406 27.2059 L851.406 34.0924 Q853.756 30.0415 857.32 28.0971 Q860.926 26.1121 865.908 26.1121 Q874.172 26.1121 879.317 32.6746 Q884.502 39.2371 884.502 49.9314 Q884.502 60.6258 879.317 67.1883 Q874.172 73.7508 865.908 73.7508 Q860.926 73.7508 857.32 71.8063 Q853.756 69.8214 851.406 65.7705 M876.765 49.9314 Q876.765 41.7081 873.362 37.0496 Q870 32.3505 864.085 32.3505 Q858.171 32.3505 854.768 37.0496 Q851.406 41.7081 851.406 49.9314 Q851.406 58.1548 854.768 62.8538 Q858.171 67.5124 864.085 67.5124 Q870 67.5124 873.362 62.8538 Q876.765 58.1548 876.765 49.9314 Z" fill="#000000" fill-rule="evenodd" fill-opacity="1" /><path clip-path="url(#clip090)" d="M914.438 32.4315 Q908.443 32.4315 904.959 37.1306 Q901.475 41.7891 901.475 49.9314 Q901.475 58.0738 904.918 62.7728 Q908.402 67.4314 914.438 67.4314 Q920.393 67.4314 923.877 62.7323 Q927.36 58.0333 927.36 49.9314 Q927.36 41.8701 923.877 37.1711 Q920.393 32.4315 914.438 32.4315 M914.438 26.1121 Q924.16 26.1121 929.71 32.4315 Q935.26 38.7509 935.26 49.9314 Q935.26 61.0714 929.71 67.4314 Q924.16 73.7508 914.438 73.7508 Q904.675 73.7508 899.126 67.4314 Q893.616 61.0714 893.616 49.9314 Q893.616 38.7509 899.126 32.4315 Q904.675 26.1121 914.438 26.1121 Z" fill="#000000" fill-rule="evenodd" fill-opacity="1" /><path clip-path="url(#clip090)" d="M965.196 32.4315 Q959.201 32.4315 955.717 37.1306 Q952.233 41.7891 952.233 49.9314 Q952.233 58.0738 955.676 62.7728 Q959.16 67.4314 965.196 67.4314 Q971.151 67.4314 974.635 62.7323 Q978.118 58.0333 978.118 49.9314 Q978.118 41.8701 974.635 37.1711 Q971.151 32.4315 965.196 32.4315 M965.196 26.1121 Q974.918 26.1121 980.468 32.4315 Q986.018 38.7509 986.018 49.9314 Q986.018 61.0714 980.468 67.4314 Q974.918 73.7508 965.196 73.7508 Q955.433 73.7508 949.883 67.4314 Q944.374 61.0714 944.374 49.9314 Q944.374 38.7509 949.883 32.4315 Q955.433 26.1121 965.196 26.1121 Z" fill="#000000" fill-rule="evenodd" fill-opacity="1" /><path clip-path="url(#clip090)" d="M998.373 9.54393 L1005.83 9.54393 L1005.83 72.576 L998.373 72.576 L998.373 9.54393 Z" fill="#000000" fill-rule="evenodd" fill-opacity="1" /><path clip-path="url(#clip090)" d="M1086.6 48.0275 L1086.6 51.6733 L1052.33 51.6733 Q1052.82 59.3701 1056.95 63.421 Q1061.12 67.4314 1068.53 67.4314 Q1072.83 67.4314 1076.84 66.3781 Q1080.89 65.3249 1084.86 63.2184 L1084.86 70.267 Q1080.85 71.9684 1076.64 72.8596 Q1072.42 73.7508 1068.09 73.7508 Q1057.23 73.7508 1050.87 67.4314 Q1044.55 61.1119 1044.55 50.3365 Q1044.55 39.1965 1050.55 32.6746 Q1056.58 26.1121 1066.79 26.1121 Q1075.95 26.1121 1081.25 32.0264 Q1086.6 37.9003 1086.6 48.0275 M1079.15 45.84 Q1079.07 39.7232 1075.7 36.0774 Q1072.38 32.4315 1066.87 32.4315 Q1060.64 32.4315 1056.87 35.9558 Q1053.14 39.4801 1052.57 45.8805 L1079.15 45.84 Z" fill="#000000" fill-rule="evenodd" fill-opacity="1" /><path clip-path="url(#clip090)" d="M1093.49 27.2059 L1101.39 27.2059 L1115.57 65.2844 L1129.74 27.2059 L1137.64 27.2059 L1120.63 72.576 L1110.5 72.576 L1093.49 27.2059 Z" fill="#000000" fill-rule="evenodd" fill-opacity="1" /><path clip-path="url(#clip090)" d="M1168.55 49.7694 Q1159.52 49.7694 1156.03 51.8354 Q1152.55 53.9013 1152.55 58.8839 Q1152.55 62.8538 1155.14 65.2034 Q1157.78 67.5124 1162.27 67.5124 Q1168.47 67.5124 1172.2 63.1374 Q1175.96 58.7219 1175.96 51.4303 L1175.96 49.7694 L1168.55 49.7694 M1183.42 46.6907 L1183.42 72.576 L1175.96 72.576 L1175.96 65.6895 Q1173.41 69.8214 1169.6 71.8063 Q1165.8 73.7508 1160.29 73.7508 Q1153.32 73.7508 1149.19 69.8619 Q1145.1 65.9325 1145.1 59.3701 Q1145.1 51.7138 1150.2 47.825 Q1155.35 43.9361 1165.51 43.9361 L1175.96 43.9361 L1175.96 43.2069 Q1175.96 38.0623 1172.56 35.2672 Q1169.2 32.4315 1163.08 32.4315 Q1159.19 32.4315 1155.51 33.3632 Q1151.82 34.295 1148.42 36.1584 L1148.42 29.2718 Q1152.51 27.692 1156.36 26.9223 Q1160.21 26.1121 1163.85 26.1121 Q1173.7 26.1121 1178.56 31.2163 Q1183.42 36.3204 1183.42 46.6907 Z" fill="#000000" fill-rule="evenodd" fill-opacity="1" /><path clip-path="url(#clip090)" d="M1205.98 65.7705 L1205.98 89.8329 L1198.49 89.8329 L1198.49 27.2059 L1205.98 27.2059 L1205.98 34.0924 Q1208.33 30.0415 1211.9 28.0971 Q1215.5 26.1121 1220.48 26.1121 Q1228.75 26.1121 1233.89 32.6746 Q1239.08 39.2371 1239.08 49.9314 Q1239.08 60.6258 1233.89 67.1883 Q1228.75 73.7508 1220.48 73.7508 Q1215.5 73.7508 1211.9 71.8063 Q1208.33 69.8214 1205.98 65.7705 M1231.34 49.9314 Q1231.34 41.7081 1227.94 37.0496 Q1224.58 32.3505 1218.66 32.3505 Q1212.75 32.3505 1209.34 37.0496 Q1205.98 41.7081 1205.98 49.9314 Q1205.98 58.1548 1209.34 62.8538 Q1212.75 67.5124 1218.66 67.5124 Q1224.58 67.5124 1227.94 62.8538 Q1231.34 58.1548 1231.34 49.9314 Z" fill="#000000" fill-rule="evenodd" fill-opacity="1" /><path clip-path="url(#clip090)" d="M1269.01 32.4315 Q1263.02 32.4315 1259.53 37.1306 Q1256.05 41.7891 1256.05 49.9314 Q1256.05 58.0738 1259.49 62.7728 Q1262.98 67.4314 1269.01 67.4314 Q1274.97 67.4314 1278.45 62.7323 Q1281.94 58.0333 1281.94 49.9314 Q1281.94 41.8701 1278.45 37.1711 Q1274.97 32.4315 1269.01 32.4315 M1269.01 26.1121 Q1278.74 26.1121 1284.29 32.4315 Q1289.84 38.7509 1289.84 49.9314 Q1289.84 61.0714 1284.29 67.4314 Q1278.74 73.7508 1269.01 73.7508 Q1259.25 73.7508 1253.7 67.4314 Q1248.19 61.0714 1248.19 49.9314 Q1248.19 38.7509 1253.7 32.4315 Q1259.25 26.1121 1269.01 26.1121 Z" fill="#000000" fill-rule="evenodd" fill-opacity="1" /><path clip-path="url(#clip090)" d="M1328.48 34.1734 Q1327.23 33.4443 1325.73 33.1202 Q1324.27 32.7556 1322.49 32.7556 Q1316.17 32.7556 1312.76 36.8875 Q1309.4 40.9789 1309.4 48.6757 L1309.4 72.576 L1301.91 72.576 L1301.91 27.2059 L1309.4 27.2059 L1309.4 34.2544 Q1311.75 30.1225 1315.52 28.1376 Q1319.29 26.1121 1324.67 26.1121 Q1325.44 26.1121 1326.37 26.2337 Q1327.31 26.3147 1328.44 26.5172 L1328.48 34.1734 Z" fill="#000000" fill-rule="evenodd" fill-opacity="1" /><path clip-path="url(#clip090)" d="M1356.92 49.7694 Q1347.88 49.7694 1344.4 51.8354 Q1340.92 53.9013 1340.92 58.8839 Q1340.92 62.8538 1343.51 65.2034 Q1346.14 67.5124 1350.64 67.5124 Q1356.84 67.5124 1360.56 63.1374 Q1364.33 58.7219 1364.33 51.4303 L1364.33 49.7694 L1356.92 49.7694 M1371.79 46.6907 L1371.79 72.576 L1364.33 72.576 L1364.33 65.6895 Q1361.78 69.8214 1357.97 71.8063 Q1354.16 73.7508 1348.65 73.7508 Q1341.69 73.7508 1337.56 69.8619 Q1333.46 65.9325 1333.46 59.3701 Q1333.46 51.7138 1338.57 47.825 Q1343.71 43.9361 1353.88 43.9361 L1364.33 43.9361 L1364.33 43.2069 Q1364.33 38.0623 1360.93 35.2672 Q1357.57 32.4315 1351.45 32.4315 Q1347.56 32.4315 1343.87 33.3632 Q1340.19 34.295 1336.79 36.1584 L1336.79 29.2718 Q1340.88 27.692 1344.73 26.9223 Q1348.57 26.1121 1352.22 26.1121 Q1362.06 26.1121 1366.92 31.2163 Q1371.79 36.3204 1371.79 46.6907 Z" fill="#000000" fill-rule="evenodd" fill-opacity="1" /><path clip-path="url(#clip090)" d="M1394.51 14.324 L1394.51 27.2059 L1409.86 27.2059 L1409.86 32.9987 L1394.51 32.9987 L1394.51 57.6282 Q1394.51 63.1779 1396.01 64.7578 Q1397.55 66.3376 1402.21 66.3376 L1409.86 66.3376 L1409.86 72.576 L1402.21 72.576 Q1393.58 72.576 1390.3 69.3758 Q1387.02 66.1351 1387.02 57.6282 L1387.02 32.9987 L1381.55 32.9987 L1381.55 27.2059 L1387.02 27.2059 L1387.02 14.324 L1394.51 14.324 Z" fill="#000000" fill-rule="evenodd" fill-opacity="1" /><path clip-path="url(#clip090)" d="M1419.67 27.2059 L1427.12 27.2059 L1427.12 72.576 L1419.67 72.576 L1419.67 27.2059 M1419.67 9.54393 L1427.12 9.54393 L1427.12 18.9825 L1419.67 18.9825 L1419.67 9.54393 Z" fill="#000000" fill-rule="evenodd" fill-opacity="1" /><path clip-path="url(#clip090)" d="M1460.3 32.4315 Q1454.3 32.4315 1450.82 37.1306 Q1447.33 41.7891 1447.33 49.9314 Q1447.33 58.0738 1450.78 62.7728 Q1454.26 67.4314 1460.3 67.4314 Q1466.25 67.4314 1469.74 62.7323 Q1473.22 58.0333 1473.22 49.9314 Q1473.22 41.8701 1469.74 37.1711 Q1466.25 32.4315 1460.3 32.4315 M1460.3 26.1121 Q1470.02 26.1121 1475.57 32.4315 Q1481.12 38.7509 1481.12 49.9314 Q1481.12 61.0714 1475.57 67.4314 Q1470.02 73.7508 1460.3 73.7508 Q1450.53 73.7508 1444.99 67.4314 Q1439.48 61.0714 1439.48 49.9314 Q1439.48 38.7509 1444.99 32.4315 Q1450.53 26.1121 1460.3 26.1121 Z" fill="#000000" fill-rule="evenodd" fill-opacity="1" /><path clip-path="url(#clip090)" d="M1531.19 45.1919 L1531.19 72.576 L1523.73 72.576 L1523.73 45.4349 Q1523.73 38.994 1521.22 35.7938 Q1518.71 32.5936 1513.69 32.5936 Q1507.65 32.5936 1504.17 36.4419 Q1500.68 40.2903 1500.68 46.9338 L1500.68 72.576 L1493.19 72.576 L1493.19 27.2059 L1500.68 27.2059 L1500.68 34.2544 Q1503.36 30.163 1506.96 28.1376 Q1510.61 26.1121 1515.35 26.1121 Q1523.17 26.1121 1527.18 30.9732 Q1531.19 35.7938 1531.19 45.1919 Z" fill="#000000" fill-rule="evenodd" fill-opacity="1" /><path clip-path="url(#clip090)" d="M1598.72 34.1734 Q1597.46 33.4443 1595.96 33.1202 Q1594.5 32.7556 1592.72 32.7556 Q1586.4 32.7556 1583 36.8875 Q1579.64 40.9789 1579.64 48.6757 L1579.64 72.576 L1572.14 72.576 L1572.14 27.2059 L1579.64 27.2059 L1579.64 34.2544 Q1581.99 30.1225 1585.75 28.1376 Q1589.52 26.1121 1594.91 26.1121 Q1595.68 26.1121 1596.61 26.2337 Q1597.54 26.3147 1598.68 26.5172 L1598.72 34.1734 Z" fill="#000000" fill-rule="evenodd" fill-opacity="1" /><path clip-path="url(#clip090)" d="M1627.15 49.7694 Q1618.12 49.7694 1614.64 51.8354 Q1611.15 53.9013 1611.15 58.8839 Q1611.15 62.8538 1613.75 65.2034 Q1616.38 67.5124 1620.88 67.5124 Q1627.07 67.5124 1630.8 63.1374 Q1634.57 58.7219 1634.57 51.4303 L1634.57 49.7694 L1627.15 49.7694 M1642.02 46.6907 L1642.02 72.576 L1634.57 72.576 L1634.57 65.6895 Q1632.02 69.8214 1628.21 71.8063 Q1624.4 73.7508 1618.89 73.7508 Q1611.92 73.7508 1607.79 69.8619 Q1603.7 65.9325 1603.7 59.3701 Q1603.7 51.7138 1608.8 47.825 Q1613.95 43.9361 1624.12 43.9361 L1634.57 43.9361 L1634.57 43.2069 Q1634.57 38.0623 1631.16 35.2672 Q1627.8 32.4315 1621.69 32.4315 Q1617.8 32.4315 1614.11 33.3632 Q1610.42 34.295 1607.02 36.1584 L1607.02 29.2718 Q1611.11 27.692 1614.96 26.9223 Q1618.81 26.1121 1622.46 26.1121 Q1632.3 26.1121 1637.16 31.2163 Q1642.02 36.3204 1642.02 46.6907 Z" fill="#000000" fill-rule="evenodd" fill-opacity="1" /><path clip-path="url(#clip090)" d="M1664.75 14.324 L1664.75 27.2059 L1680.1 27.2059 L1680.1 32.9987 L1664.75 32.9987 L1664.75 57.6282 Q1664.75 63.1779 1666.25 64.7578 Q1667.78 66.3376 1672.44 66.3376 L1680.1 66.3376 L1680.1 72.576 L1672.44 72.576 Q1663.81 72.576 1660.53 69.3758 Q1657.25 66.1351 1657.25 57.6282 L1657.25 32.9987 L1651.78 32.9987 L1651.78 27.2059 L1657.25 27.2059 L1657.25 14.324 L1664.75 14.324 Z" fill="#000000" fill-rule="evenodd" fill-opacity="1" /><path clip-path="url(#clip090)" d="M1728.71 48.0275 L1728.71 51.6733 L1694.44 51.6733 Q1694.93 59.3701 1699.06 63.421 Q1703.23 67.4314 1710.64 67.4314 Q1714.94 67.4314 1718.95 66.3781 Q1723 65.3249 1726.97 63.2184 L1726.97 70.267 Q1722.96 71.9684 1718.75 72.8596 Q1714.53 73.7508 1710.2 73.7508 Q1699.34 73.7508 1692.98 67.4314 Q1686.66 61.1119 1686.66 50.3365 Q1686.66 39.1965 1692.66 32.6746 Q1698.69 26.1121 1708.9 26.1121 Q1718.06 26.1121 1723.36 32.0264 Q1728.71 37.9003 1728.71 48.0275 M1721.26 45.84 Q1721.18 39.7232 1717.81 36.0774 Q1714.49 32.4315 1708.98 32.4315 Q1702.74 32.4315 1698.98 35.9558 Q1695.25 39.4801 1694.68 45.8805 L1721.26 45.84 Z" fill="#000000" fill-rule="evenodd" fill-opacity="1" /><polyline clip-path="url(#clip092)" style="stroke:#009af9; stroke-linecap:butt; stroke-linejoin:round; stroke-width:4; stroke-opacity:1; fill:none" points="
  299.881,1386.4 481.578,1148.37 590.77,1005.32 683.09,884.375 783.376,752.996 875.83,631.876 974.951,502.023 1089.79,351.575 1140.82,284.725 1191.85,217.875 
  1214.22,188.564 1236.6,160.757 1258.97,175.143 1281.35,189.044 1330.13,217.799 1378.92,244.618 1428,269.851 1477.07,293.516 1585.6,341.023 1688.85,381.028 
  1796.21,418.21 1886.59,446.575 1996.93,478.12 2100.65,505.119 2266.82,543.882 2292.39,549.417 
  "/>
<circle clip-path="url(#clip092)" cx="1235.83" cy="160.256" r="14" fill="#e26f46" fill-rule="evenodd" fill-opacity="1" stroke="#000000" stroke-opacity="1" stroke-width="3.2"/>
<path clip-path="url(#clip090)" d="
M1274.35 799.246 L2281.66 799.246 L2281.66 695.566 L1274.35 695.566  Z
  " fill="#ffffff" fill-rule="evenodd" fill-opacity="1"/>
<polyline clip-path="url(#clip090)" style="stroke:#000000; stroke-linecap:butt; stroke-linejoin:round; stroke-width:4; stroke-opacity:1; fill:none" points="
  1274.35,799.246 2281.66,799.246 2281.66,695.566 1274.35,695.566 1274.35,799.246 
  "/>
<circle clip-path="url(#clip090)" cx="1369.15" cy="747.406" r="23" fill="#e26f46" fill-rule="evenodd" fill-opacity="1" stroke="#000000" stroke-opacity="1" stroke-width="5.12"/>
<path clip-path="url(#clip090)" d="M1468.22 760.797 L1468.22 774.547 L1463.94 774.547 L1463.94 738.76 L1468.22 738.76 L1468.22 742.695 Q1469.57 740.381 1471.6 739.269 Q1473.66 738.135 1476.51 738.135 Q1481.23 738.135 1484.17 741.885 Q1487.14 745.635 1487.14 751.746 Q1487.14 757.857 1484.17 761.607 Q1481.23 765.357 1476.51 765.357 Q1473.66 765.357 1471.6 764.246 Q1469.57 763.112 1468.22 760.797 M1482.72 751.746 Q1482.72 747.047 1480.77 744.385 Q1478.85 741.7 1475.47 741.7 Q1472.09 741.7 1470.15 744.385 Q1468.22 747.047 1468.22 751.746 Q1468.22 756.445 1470.15 759.13 Q1472.09 761.792 1475.47 761.792 Q1478.85 761.792 1480.77 759.13 Q1482.72 756.445 1482.72 751.746 Z" fill="#000000" fill-rule="evenodd" fill-opacity="1" /><path clip-path="url(#clip090)" d="M1504.24 741.746 Q1500.82 741.746 1498.83 744.431 Q1496.84 747.093 1496.84 751.746 Q1496.84 756.399 1498.8 759.084 Q1500.79 761.746 1504.24 761.746 Q1507.65 761.746 1509.64 759.061 Q1511.63 756.376 1511.63 751.746 Q1511.63 747.14 1509.64 744.455 Q1507.65 741.746 1504.24 741.746 M1504.24 738.135 Q1509.8 738.135 1512.97 741.746 Q1516.14 745.357 1516.14 751.746 Q1516.14 758.112 1512.97 761.746 Q1509.8 765.357 1504.24 765.357 Q1498.66 765.357 1495.49 761.746 Q1492.34 758.112 1492.34 751.746 Q1492.34 745.357 1495.49 741.746 Q1498.66 738.135 1504.24 738.135 Z" fill="#000000" fill-rule="evenodd" fill-opacity="1" /><path clip-path="url(#clip090)" d="M1533.25 741.746 Q1529.82 741.746 1527.83 744.431 Q1525.84 747.093 1525.84 751.746 Q1525.84 756.399 1527.81 759.084 Q1529.8 761.746 1533.25 761.746 Q1536.65 761.746 1538.64 759.061 Q1540.63 756.376 1540.63 751.746 Q1540.63 747.14 1538.64 744.455 Q1536.65 741.746 1533.25 741.746 M1533.25 738.135 Q1538.8 738.135 1541.97 741.746 Q1545.15 745.357 1545.15 751.746 Q1545.15 758.112 1541.97 761.746 Q1538.8 765.357 1533.25 765.357 Q1527.67 765.357 1524.5 761.746 Q1521.35 758.112 1521.35 751.746 Q1521.35 745.357 1524.5 741.746 Q1527.67 738.135 1533.25 738.135 Z" fill="#000000" fill-rule="evenodd" fill-opacity="1" /><path clip-path="url(#clip090)" d="M1552.21 728.668 L1556.46 728.668 L1556.46 764.686 L1552.21 764.686 L1552.21 728.668 Z" fill="#000000" fill-rule="evenodd" fill-opacity="1" /><path clip-path="url(#clip090)" d="M1597.51 751.422 Q1597.51 746.793 1595.58 744.246 Q1593.69 741.7 1590.24 741.7 Q1586.81 741.7 1584.89 744.246 Q1582.99 746.793 1582.99 751.422 Q1582.99 756.029 1584.89 758.575 Q1586.81 761.121 1590.24 761.121 Q1593.69 761.121 1595.58 758.575 Q1597.51 756.029 1597.51 751.422 M1601.77 761.468 Q1601.77 768.089 1598.83 771.306 Q1595.89 774.547 1589.82 774.547 Q1587.58 774.547 1585.58 774.2 Q1583.59 773.876 1581.72 773.181 L1581.72 769.038 Q1583.59 770.056 1585.42 770.542 Q1587.25 771.029 1589.15 771.029 Q1593.34 771.029 1595.42 768.829 Q1597.51 766.654 1597.51 762.232 L1597.51 760.126 Q1596.19 762.417 1594.13 763.552 Q1592.07 764.686 1589.2 764.686 Q1584.43 764.686 1581.51 761.052 Q1578.59 757.418 1578.59 751.422 Q1578.59 745.404 1581.51 741.769 Q1584.43 738.135 1589.2 738.135 Q1592.07 738.135 1594.13 739.269 Q1596.19 740.404 1597.51 742.695 L1597.51 738.76 L1601.77 738.76 L1601.77 761.468 Z" fill="#000000" fill-rule="evenodd" fill-opacity="1" /><path clip-path="url(#clip090)" d="M1625.56 742.742 Q1624.84 742.325 1623.99 742.14 Q1623.15 741.931 1622.14 741.931 Q1618.52 741.931 1616.58 744.293 Q1614.66 746.631 1614.66 751.029 L1614.66 764.686 L1610.38 764.686 L1610.38 738.76 L1614.66 738.76 L1614.66 742.788 Q1616 740.427 1618.15 739.293 Q1620.31 738.135 1623.39 738.135 Q1623.83 738.135 1624.36 738.205 Q1624.89 738.251 1625.54 738.367 L1625.56 742.742 Z" fill="#000000" fill-rule="evenodd" fill-opacity="1" /><path clip-path="url(#clip090)" d="M1639.03 741.746 Q1635.61 741.746 1633.62 744.431 Q1631.63 747.093 1631.63 751.746 Q1631.63 756.399 1633.59 759.084 Q1635.58 761.746 1639.03 761.746 Q1642.44 761.746 1644.43 759.061 Q1646.42 756.376 1646.42 751.746 Q1646.42 747.14 1644.43 744.455 Q1642.44 741.746 1639.03 741.746 M1639.03 738.135 Q1644.59 738.135 1647.76 741.746 Q1650.93 745.357 1650.93 751.746 Q1650.93 758.112 1647.76 761.746 Q1644.59 765.357 1639.03 765.357 Q1633.46 765.357 1630.28 761.746 Q1627.14 758.112 1627.14 751.746 Q1627.14 745.357 1630.28 741.746 Q1633.46 738.135 1639.03 738.135 Z" fill="#000000" fill-rule="evenodd" fill-opacity="1" /><path clip-path="url(#clip090)" d="M1655.52 738.76 L1659.77 738.76 L1665.1 758.992 L1670.4 738.76 L1675.42 738.76 L1680.75 758.992 L1686.05 738.76 L1690.31 738.76 L1683.52 764.686 L1678.5 764.686 L1672.92 743.436 L1667.32 764.686 L1662.3 764.686 L1655.52 738.76 Z" fill="#000000" fill-rule="evenodd" fill-opacity="1" /><path clip-path="url(#clip090)" d="M1700.98 731.399 L1700.98 738.76 L1709.75 738.76 L1709.75 742.07 L1700.98 742.07 L1700.98 756.144 Q1700.98 759.316 1701.83 760.218 Q1702.71 761.121 1705.38 761.121 L1709.75 761.121 L1709.75 764.686 L1705.38 764.686 Q1700.45 764.686 1698.57 762.857 Q1696.7 761.005 1696.7 756.144 L1696.7 742.07 L1693.57 742.07 L1693.57 738.76 L1696.7 738.76 L1696.7 731.399 L1700.98 731.399 Z" fill="#000000" fill-rule="evenodd" fill-opacity="1" /><path clip-path="url(#clip090)" d="M1736.9 749.038 L1736.9 764.686 L1732.64 764.686 L1732.64 749.177 Q1732.64 745.496 1731.21 743.668 Q1729.77 741.839 1726.9 741.839 Q1723.45 741.839 1721.46 744.038 Q1719.47 746.237 1719.47 750.033 L1719.47 764.686 L1715.19 764.686 L1715.19 728.668 L1719.47 728.668 L1719.47 742.788 Q1721 740.45 1723.06 739.293 Q1725.14 738.135 1727.85 738.135 Q1732.32 738.135 1734.61 740.913 Q1736.9 743.668 1736.9 749.038 Z" fill="#000000" fill-rule="evenodd" fill-opacity="1" /><path clip-path="url(#clip090)" d="M1779.13 739.756 L1779.13 743.737 Q1777.32 742.742 1775.49 742.256 Q1773.69 741.746 1771.83 741.746 Q1767.69 741.746 1765.4 744.385 Q1763.11 747.001 1763.11 751.746 Q1763.11 756.492 1765.4 759.13 Q1767.69 761.746 1771.83 761.746 Q1773.69 761.746 1775.49 761.26 Q1777.32 760.751 1779.13 759.755 L1779.13 763.691 Q1777.34 764.524 1775.42 764.941 Q1773.52 765.357 1771.37 765.357 Q1765.51 765.357 1762.07 761.677 Q1758.62 757.996 1758.62 751.746 Q1758.62 745.404 1762.09 741.769 Q1765.58 738.135 1771.65 738.135 Q1773.62 738.135 1775.49 738.552 Q1777.37 738.945 1779.13 739.756 Z" fill="#000000" fill-rule="evenodd" fill-opacity="1" /><path clip-path="url(#clip090)" d="M1796.58 741.746 Q1793.15 741.746 1791.16 744.431 Q1789.17 747.093 1789.17 751.746 Q1789.17 756.399 1791.14 759.084 Q1793.13 761.746 1796.58 761.746 Q1799.98 761.746 1801.97 759.061 Q1803.96 756.376 1803.96 751.746 Q1803.96 747.14 1801.97 744.455 Q1799.98 741.746 1796.58 741.746 M1796.58 738.135 Q1802.13 738.135 1805.31 741.746 Q1808.48 745.357 1808.48 751.746 Q1808.48 758.112 1805.31 761.746 Q1802.13 765.357 1796.58 765.357 Q1791 765.357 1787.83 761.746 Q1784.68 758.112 1784.68 751.746 Q1784.68 745.357 1787.83 741.746 Q1791 738.135 1796.58 738.135 Z" fill="#000000" fill-rule="evenodd" fill-opacity="1" /><path clip-path="url(#clip090)" d="M1837.09 749.038 L1837.09 764.686 L1832.83 764.686 L1832.83 749.177 Q1832.83 745.496 1831.39 743.668 Q1829.96 741.839 1827.09 741.839 Q1823.64 741.839 1821.65 744.038 Q1819.66 746.237 1819.66 750.033 L1819.66 764.686 L1815.38 764.686 L1815.38 738.76 L1819.66 738.76 L1819.66 742.788 Q1821.19 740.45 1823.25 739.293 Q1825.33 738.135 1828.04 738.135 Q1832.5 738.135 1834.8 740.913 Q1837.09 743.668 1837.09 749.038 Z" fill="#000000" fill-rule="evenodd" fill-opacity="1" /><path clip-path="url(#clip090)" d="M1862.11 739.524 L1862.11 743.552 Q1860.31 742.626 1858.36 742.163 Q1856.42 741.7 1854.33 741.7 Q1851.16 741.7 1849.57 742.672 Q1847.99 743.644 1847.99 745.589 Q1847.99 747.07 1849.13 747.927 Q1850.26 748.76 1853.69 749.524 L1855.14 749.848 Q1859.68 750.82 1861.58 752.603 Q1863.5 754.362 1863.5 757.533 Q1863.5 761.144 1860.63 763.251 Q1857.78 765.357 1852.78 765.357 Q1850.7 765.357 1848.43 764.941 Q1846.19 764.547 1843.69 763.737 L1843.69 759.339 Q1846.05 760.566 1848.34 761.191 Q1850.63 761.792 1852.88 761.792 Q1855.88 761.792 1857.5 760.774 Q1859.13 759.732 1859.13 757.857 Q1859.13 756.121 1857.94 755.195 Q1856.79 754.269 1852.83 753.413 L1851.35 753.066 Q1847.39 752.232 1845.63 750.519 Q1843.87 748.783 1843.87 745.774 Q1843.87 742.117 1846.46 740.126 Q1849.06 738.135 1853.82 738.135 Q1856.19 738.135 1858.27 738.482 Q1860.35 738.83 1862.11 739.524 Z" fill="#000000" fill-rule="evenodd" fill-opacity="1" /><path clip-path="url(#clip090)" d="M1874.5 731.399 L1874.5 738.76 L1883.27 738.76 L1883.27 742.07 L1874.5 742.07 L1874.5 756.144 Q1874.5 759.316 1875.35 760.218 Q1876.23 761.121 1878.89 761.121 L1883.27 761.121 L1883.27 764.686 L1878.89 764.686 Q1873.96 764.686 1872.09 762.857 Q1870.21 761.005 1870.21 756.144 L1870.21 742.07 L1867.09 742.07 L1867.09 738.76 L1870.21 738.76 L1870.21 731.399 L1874.5 731.399 Z" fill="#000000" fill-rule="evenodd" fill-opacity="1" /><path clip-path="url(#clip090)" d="M1903.89 742.742 Q1903.18 742.325 1902.32 742.14 Q1901.49 741.931 1900.47 741.931 Q1896.86 741.931 1894.91 744.293 Q1892.99 746.631 1892.99 751.029 L1892.99 764.686 L1888.71 764.686 L1888.71 738.76 L1892.99 738.76 L1892.99 742.788 Q1894.33 740.427 1896.49 739.293 Q1898.64 738.135 1901.72 738.135 Q1902.16 738.135 1902.69 738.205 Q1903.22 738.251 1903.87 738.367 L1903.89 742.742 Z" fill="#000000" fill-rule="evenodd" fill-opacity="1" /><path clip-path="url(#clip090)" d="M1920.14 751.654 Q1914.98 751.654 1912.99 752.834 Q1911 754.015 1911 756.862 Q1911 759.13 1912.48 760.473 Q1913.99 761.792 1916.56 761.792 Q1920.1 761.792 1922.23 759.292 Q1924.38 756.769 1924.38 752.603 L1924.38 751.654 L1920.14 751.654 M1928.64 749.894 L1928.64 764.686 L1924.38 764.686 L1924.38 760.751 Q1922.92 763.112 1920.75 764.246 Q1918.57 765.357 1915.42 765.357 Q1911.44 765.357 1909.08 763.135 Q1906.74 760.89 1906.74 757.14 Q1906.74 752.765 1909.66 750.543 Q1912.6 748.32 1918.41 748.32 L1924.38 748.32 L1924.38 747.904 Q1924.38 744.964 1922.44 743.367 Q1920.51 741.746 1917.02 741.746 Q1914.8 741.746 1912.69 742.279 Q1910.58 742.811 1908.64 743.876 L1908.64 739.941 Q1910.98 739.038 1913.18 738.598 Q1915.37 738.135 1917.46 738.135 Q1923.08 738.135 1925.86 741.052 Q1928.64 743.969 1928.64 749.894 Z" fill="#000000" fill-rule="evenodd" fill-opacity="1" /><path clip-path="url(#clip090)" d="M1937.41 738.76 L1941.67 738.76 L1941.67 764.686 L1937.41 764.686 L1937.41 738.76 M1937.41 728.668 L1941.67 728.668 L1941.67 734.061 L1937.41 734.061 L1937.41 728.668 Z" fill="#000000" fill-rule="evenodd" fill-opacity="1" /><path clip-path="url(#clip090)" d="M1972.13 749.038 L1972.13 764.686 L1967.87 764.686 L1967.87 749.177 Q1967.87 745.496 1966.44 743.668 Q1965 741.839 1962.13 741.839 Q1958.68 741.839 1956.69 744.038 Q1954.7 746.237 1954.7 750.033 L1954.7 764.686 L1950.42 764.686 L1950.42 738.76 L1954.7 738.76 L1954.7 742.788 Q1956.23 740.45 1958.29 739.293 Q1960.37 738.135 1963.08 738.135 Q1967.55 738.135 1969.84 740.913 Q1972.13 743.668 1972.13 749.038 Z" fill="#000000" fill-rule="evenodd" fill-opacity="1" /><path clip-path="url(#clip090)" d="M2002.8 750.658 L2002.8 752.742 L1983.22 752.742 Q1983.5 757.14 1985.86 759.455 Q1988.24 761.746 1992.48 761.746 Q1994.93 761.746 1997.23 761.144 Q1999.54 760.542 2001.81 759.339 L2001.81 763.367 Q1999.52 764.339 1997.11 764.848 Q1994.7 765.357 1992.23 765.357 Q1986.02 765.357 1982.39 761.746 Q1978.78 758.135 1978.78 751.978 Q1978.78 745.612 1982.2 741.885 Q1985.65 738.135 1991.49 738.135 Q1996.72 738.135 1999.75 741.515 Q2002.8 744.871 2002.8 750.658 M1998.55 749.408 Q1998.5 745.913 1996.58 743.83 Q1994.68 741.746 1991.53 741.746 Q1987.97 741.746 1985.81 743.76 Q1983.68 745.774 1983.36 749.431 L1998.55 749.408 Z" fill="#000000" fill-rule="evenodd" fill-opacity="1" /><path clip-path="url(#clip090)" d="M2026.86 742.695 L2026.86 728.668 L2031.11 728.668 L2031.11 764.686 L2026.86 764.686 L2026.86 760.797 Q2025.51 763.112 2023.45 764.246 Q2021.42 765.357 2018.55 765.357 Q2013.85 765.357 2010.88 761.607 Q2007.94 757.857 2007.94 751.746 Q2007.94 745.635 2010.88 741.885 Q2013.85 738.135 2018.55 738.135 Q2021.42 738.135 2023.45 739.269 Q2025.51 740.381 2026.86 742.695 M2012.34 751.746 Q2012.34 756.445 2014.26 759.13 Q2016.21 761.792 2019.59 761.792 Q2022.97 761.792 2024.91 759.13 Q2026.86 756.445 2026.86 751.746 Q2026.86 747.047 2024.91 744.385 Q2022.97 741.7 2019.59 741.7 Q2016.21 741.7 2014.26 744.385 Q2012.34 747.047 2012.34 751.746 Z" fill="#000000" fill-rule="evenodd" fill-opacity="1" /><path clip-path="url(#clip090)" d="M2073.57 751.746 Q2073.57 747.047 2071.62 744.385 Q2069.7 741.7 2066.32 741.7 Q2062.94 741.7 2061 744.385 Q2059.08 747.047 2059.08 751.746 Q2059.08 756.445 2061 759.13 Q2062.94 761.792 2066.32 761.792 Q2069.7 761.792 2071.62 759.13 Q2073.57 756.445 2073.57 751.746 M2059.08 742.695 Q2060.42 740.381 2062.46 739.269 Q2064.52 738.135 2067.36 738.135 Q2072.09 738.135 2075.03 741.885 Q2077.99 745.635 2077.99 751.746 Q2077.99 757.857 2075.03 761.607 Q2072.09 765.357 2067.36 765.357 Q2064.52 765.357 2062.46 764.246 Q2060.42 763.112 2059.08 760.797 L2059.08 764.686 L2054.8 764.686 L2054.8 728.668 L2059.08 728.668 L2059.08 742.695 Z" fill="#000000" fill-rule="evenodd" fill-opacity="1" /><path clip-path="url(#clip090)" d="M2095.84 767.093 Q2094.03 771.723 2092.32 773.135 Q2090.61 774.547 2087.74 774.547 L2084.33 774.547 L2084.33 770.982 L2086.83 770.982 Q2088.59 770.982 2089.56 770.149 Q2090.54 769.316 2091.72 766.214 L2092.48 764.269 L2081.99 738.76 L2086.51 738.76 L2094.61 759.038 L2102.71 738.76 L2107.23 738.76 L2095.84 767.093 Z" fill="#000000" fill-rule="evenodd" fill-opacity="1" /><path clip-path="url(#clip090)" d="M2145.23 742.695 L2145.23 728.668 L2149.49 728.668 L2149.49 764.686 L2145.23 764.686 L2145.23 760.797 Q2143.89 763.112 2141.83 764.246 Q2139.79 765.357 2136.92 765.357 Q2132.23 765.357 2129.26 761.607 Q2126.32 757.857 2126.32 751.746 Q2126.32 745.635 2129.26 741.885 Q2132.23 738.135 2136.92 738.135 Q2139.79 738.135 2141.83 739.269 Q2143.89 740.381 2145.23 742.695 M2130.72 751.746 Q2130.72 756.445 2132.64 759.13 Q2134.59 761.792 2137.97 761.792 Q2141.35 761.792 2143.29 759.13 Q2145.23 756.445 2145.23 751.746 Q2145.23 747.047 2143.29 744.385 Q2141.35 741.7 2137.97 741.7 Q2134.59 741.7 2132.64 744.385 Q2130.72 747.047 2130.72 751.746 Z" fill="#000000" fill-rule="evenodd" fill-opacity="1" /><path clip-path="url(#clip090)" d="M2169.05 767.093 Q2167.25 771.723 2165.54 773.135 Q2163.82 774.547 2160.95 774.547 L2157.55 774.547 L2157.55 770.982 L2160.05 770.982 Q2161.81 770.982 2162.78 770.149 Q2163.75 769.316 2164.93 766.214 L2165.7 764.269 L2155.21 738.76 L2159.73 738.76 L2167.83 759.038 L2175.93 738.76 L2180.44 738.76 L2169.05 767.093 Z" fill="#000000" fill-rule="evenodd" fill-opacity="1" /><path clip-path="url(#clip090)" d="M2186.16 728.668 L2190.44 728.668 L2190.44 749.941 L2203.15 738.76 L2208.59 738.76 L2194.84 750.89 L2209.17 764.686 L2203.61 764.686 L2190.44 752.024 L2190.44 764.686 L2186.16 764.686 L2186.16 728.668 Z" fill="#000000" fill-rule="evenodd" fill-opacity="1" /><path clip-path="url(#clip090)" d="M2234.26 750.658 L2234.26 752.742 L2214.68 752.742 Q2214.96 757.14 2217.32 759.455 Q2219.7 761.746 2223.94 761.746 Q2226.39 761.746 2228.68 761.144 Q2231 760.542 2233.27 759.339 L2233.27 763.367 Q2230.98 764.339 2228.57 764.848 Q2226.16 765.357 2223.68 765.357 Q2217.48 765.357 2213.85 761.746 Q2210.23 758.135 2210.23 751.978 Q2210.23 745.612 2213.66 741.885 Q2217.11 738.135 2222.94 738.135 Q2228.17 738.135 2231.21 741.515 Q2234.26 744.871 2234.26 750.658 M2230 749.408 Q2229.96 745.913 2228.04 743.83 Q2226.14 741.746 2222.99 741.746 Q2219.42 741.746 2217.27 743.76 Q2215.14 745.774 2214.82 749.431 L2230 749.408 Z" fill="#000000" fill-rule="evenodd" fill-opacity="1" /></svg>
