<?xml version="1.0" encoding="utf-8"?>
<svg xmlns="http://www.w3.org/2000/svg" xmlns:xlink="http://www.w3.org/1999/xlink" width="600" height="400" viewBox="0 0 2400 1600">
<defs>
  <clipPath id="clip050">
    <rect x="0" y="0" width="2400" height="1600"/>
  </clipPath>
</defs>
<path clip-path="url(#clip050)" d="
M0 1600 L2400 1600 L2400 0 L0 0  Z
  " fill="#ffffff" fill-rule="evenodd" fill-opacity="1"/>
<defs>
  <clipPath id="clip051">
    <rect x="480" y="0" width="1681" height="1600"/>
  </clipPath>
</defs>
<path clip-path="url(#clip050)" d="
M232.389 1423.18 L2352.76 1423.18 L2352.76 123.472 L232.389 123.472  Z
  " fill="#ffffff" fill-rule="evenodd" fill-opacity="1"/>
<defs>
  <clipPath id="clip052">
    <rect x="232" y="123" width="2121" height="1301"/>
  </clipPath>
</defs>
<polyline clip-path="url(#clip052)" style="stroke:#000000; stroke-linecap:butt; stroke-linejoin:round; stroke-width:2; stroke-opacity:0.1; fill:none" points="
  292.4,1423.18 292.4,123.472 
  "/>
<polyline clip-path="url(#clip052)" style="stroke:#000000; stroke-linecap:butt; stroke-linejoin:round; stroke-width:2; stroke-opacity:0.1; fill:none" points="
  625.791,1423.18 625.791,123.472 
  "/>
<polyline clip-path="url(#clip052)" style="stroke:#000000; stroke-linecap:butt; stroke-linejoin:round; stroke-width:2; stroke-opacity:0.1; fill:none" points="
  959.182,1423.18 959.182,123.472 
  "/>
<polyline clip-path="url(#clip052)" style="stroke:#000000; stroke-linecap:butt; stroke-linejoin:round; stroke-width:2; stroke-opacity:0.1; fill:none" points="
  1292.57,1423.18 1292.57,123.472 
  "/>
<polyline clip-path="url(#clip052)" style="stroke:#000000; stroke-linecap:butt; stroke-linejoin:round; stroke-width:2; stroke-opacity:0.1; fill:none" points="
  1625.96,1423.18 1625.96,123.472 
  "/>
<polyline clip-path="url(#clip052)" style="stroke:#000000; stroke-linecap:butt; stroke-linejoin:round; stroke-width:2; stroke-opacity:0.1; fill:none" points="
  1959.35,1423.18 1959.35,123.472 
  "/>
<polyline clip-path="url(#clip052)" style="stroke:#000000; stroke-linecap:butt; stroke-linejoin:round; stroke-width:2; stroke-opacity:0.1; fill:none" points="
  2292.75,1423.18 2292.75,123.472 
  "/>
<polyline clip-path="url(#clip050)" style="stroke:#000000; stroke-linecap:butt; stroke-linejoin:round; stroke-width:4; stroke-opacity:1; fill:none" points="
  232.389,1423.18 2352.76,1423.18 
  "/>
<polyline clip-path="url(#clip050)" style="stroke:#000000; stroke-linecap:butt; stroke-linejoin:round; stroke-width:4; stroke-opacity:1; fill:none" points="
  292.4,1423.18 292.4,1404.28 
  "/>
<polyline clip-path="url(#clip050)" style="stroke:#000000; stroke-linecap:butt; stroke-linejoin:round; stroke-width:4; stroke-opacity:1; fill:none" points="
  625.791,1423.18 625.791,1404.28 
  "/>
<polyline clip-path="url(#clip050)" style="stroke:#000000; stroke-linecap:butt; stroke-linejoin:round; stroke-width:4; stroke-opacity:1; fill:none" points="
  959.182,1423.18 959.182,1404.28 
  "/>
<polyline clip-path="url(#clip050)" style="stroke:#000000; stroke-linecap:butt; stroke-linejoin:round; stroke-width:4; stroke-opacity:1; fill:none" points="
  1292.57,1423.18 1292.57,1404.28 
  "/>
<polyline clip-path="url(#clip050)" style="stroke:#000000; stroke-linecap:butt; stroke-linejoin:round; stroke-width:4; stroke-opacity:1; fill:none" points="
  1625.96,1423.18 1625.96,1404.28 
  "/>
<polyline clip-path="url(#clip050)" style="stroke:#000000; stroke-linecap:butt; stroke-linejoin:round; stroke-width:4; stroke-opacity:1; fill:none" points="
  1959.35,1423.18 1959.35,1404.28 
  "/>
<polyline clip-path="url(#clip050)" style="stroke:#000000; stroke-linecap:butt; stroke-linejoin:round; stroke-width:4; stroke-opacity:1; fill:none" points="
  2292.75,1423.18 2292.75,1404.28 
  "/>
<path clip-path="url(#clip050)" d="M292.4 1454.1 Q288.789 1454.1 286.96 1457.66 Q285.154 1461.2 285.154 1468.33 Q285.154 1475.44 286.96 1479.01 Q288.789 1482.55 292.4 1482.55 Q296.034 1482.55 297.84 1479.01 Q299.668 1475.44 299.668 1468.33 Q299.668 1461.2 297.84 1457.66 Q296.034 1454.1 292.4 1454.1 M292.4 1450.39 Q298.21 1450.39 301.265 1455 Q304.344 1459.58 304.344 1468.33 Q304.344 1477.06 301.265 1481.67 Q298.21 1486.25 292.4 1486.25 Q286.59 1486.25 283.511 1481.67 Q280.455 1477.06 280.455 1468.33 Q280.455 1459.58 283.511 1455 Q286.59 1450.39 292.4 1450.39 Z" fill="#000000" fill-rule="evenodd" fill-opacity="1" /><path clip-path="url(#clip050)" d="M600.478 1481.64 L608.117 1481.64 L608.117 1455.28 L599.807 1456.95 L599.807 1452.69 L608.071 1451.02 L612.747 1451.02 L612.747 1481.64 L620.386 1481.64 L620.386 1485.58 L600.478 1485.58 L600.478 1481.64 Z" fill="#000000" fill-rule="evenodd" fill-opacity="1" /><path clip-path="url(#clip050)" d="M639.83 1454.1 Q636.219 1454.1 634.39 1457.66 Q632.585 1461.2 632.585 1468.33 Q632.585 1475.44 634.39 1479.01 Q636.219 1482.55 639.83 1482.55 Q643.464 1482.55 645.27 1479.01 Q647.098 1475.44 647.098 1468.33 Q647.098 1461.2 645.27 1457.66 Q643.464 1454.1 639.83 1454.1 M639.83 1450.39 Q645.64 1450.39 648.696 1455 Q651.774 1459.58 651.774 1468.33 Q651.774 1477.06 648.696 1481.67 Q645.64 1486.25 639.83 1486.25 Q634.02 1486.25 630.941 1481.67 Q627.886 1477.06 627.886 1468.33 Q627.886 1459.58 630.941 1455 Q634.02 1450.39 639.83 1450.39 Z" fill="#000000" fill-rule="evenodd" fill-opacity="1" /><path clip-path="url(#clip050)" d="M937.955 1481.64 L954.274 1481.64 L954.274 1485.58 L932.33 1485.58 L932.33 1481.64 Q934.992 1478.89 939.575 1474.26 Q944.182 1469.61 945.362 1468.27 Q947.608 1465.74 948.487 1464.01 Q949.39 1462.25 949.39 1460.56 Q949.39 1457.8 947.446 1456.07 Q945.524 1454.33 942.422 1454.33 Q940.223 1454.33 937.77 1455.09 Q935.339 1455.86 932.561 1457.41 L932.561 1452.69 Q935.385 1451.55 937.839 1450.97 Q940.293 1450.39 942.33 1450.39 Q947.7 1450.39 950.895 1453.08 Q954.089 1455.77 954.089 1460.26 Q954.089 1462.39 953.279 1464.31 Q952.492 1466.2 950.385 1468.8 Q949.807 1469.47 946.705 1472.69 Q943.603 1475.88 937.955 1481.64 Z" fill="#000000" fill-rule="evenodd" fill-opacity="1" /><path clip-path="url(#clip050)" d="M974.089 1454.1 Q970.478 1454.1 968.649 1457.66 Q966.844 1461.2 966.844 1468.33 Q966.844 1475.44 968.649 1479.01 Q970.478 1482.55 974.089 1482.55 Q977.723 1482.55 979.529 1479.01 Q981.357 1475.44 981.357 1468.33 Q981.357 1461.2 979.529 1457.66 Q977.723 1454.1 974.089 1454.1 M974.089 1450.39 Q979.899 1450.39 982.955 1455 Q986.033 1459.58 986.033 1468.33 Q986.033 1477.06 982.955 1481.67 Q979.899 1486.25 974.089 1486.25 Q968.279 1486.25 965.2 1481.67 Q962.145 1477.06 962.145 1468.33 Q962.145 1459.58 965.2 1455 Q968.279 1450.39 974.089 1450.39 Z" fill="#000000" fill-rule="evenodd" fill-opacity="1" /><path clip-path="url(#clip050)" d="M1281.42 1466.95 Q1284.77 1467.66 1286.65 1469.93 Q1288.54 1472.2 1288.54 1475.53 Q1288.54 1480.65 1285.03 1483.45 Q1281.51 1486.25 1275.03 1486.25 Q1272.85 1486.25 1270.54 1485.81 Q1268.24 1485.39 1265.79 1484.54 L1265.79 1480.02 Q1267.73 1481.16 1270.05 1481.74 Q1272.36 1482.32 1274.89 1482.32 Q1279.29 1482.32 1281.58 1480.58 Q1283.89 1478.84 1283.89 1475.53 Q1283.89 1472.48 1281.74 1470.77 Q1279.61 1469.03 1275.79 1469.03 L1271.76 1469.03 L1271.76 1465.19 L1275.98 1465.19 Q1279.42 1465.19 1281.25 1463.82 Q1283.08 1462.43 1283.08 1459.84 Q1283.08 1457.18 1281.18 1455.77 Q1279.31 1454.33 1275.79 1454.33 Q1273.87 1454.33 1271.67 1454.75 Q1269.47 1455.16 1266.83 1456.04 L1266.83 1451.88 Q1269.49 1451.14 1271.81 1450.77 Q1274.15 1450.39 1276.21 1450.39 Q1281.53 1450.39 1284.63 1452.83 Q1287.73 1455.23 1287.73 1459.35 Q1287.73 1462.22 1286.09 1464.21 Q1284.45 1466.18 1281.42 1466.95 Z" fill="#000000" fill-rule="evenodd" fill-opacity="1" /><path clip-path="url(#clip050)" d="M1307.41 1454.1 Q1303.8 1454.1 1301.97 1457.66 Q1300.17 1461.2 1300.17 1468.33 Q1300.17 1475.44 1301.97 1479.01 Q1303.8 1482.55 1307.41 1482.55 Q1311.04 1482.55 1312.85 1479.01 Q1314.68 1475.44 1314.68 1468.33 Q1314.68 1461.2 1312.85 1457.66 Q1311.04 1454.1 1307.41 1454.1 M1307.41 1450.39 Q1313.22 1450.39 1316.28 1455 Q1319.35 1459.58 1319.35 1468.33 Q1319.35 1477.06 1316.28 1481.67 Q1313.22 1486.25 1307.41 1486.25 Q1301.6 1486.25 1298.52 1481.67 Q1295.47 1477.06 1295.47 1468.33 Q1295.47 1459.58 1298.52 1455 Q1301.6 1450.39 1307.41 1450.39 Z" fill="#000000" fill-rule="evenodd" fill-opacity="1" /><path clip-path="url(#clip050)" d="M1614.13 1455.09 L1602.33 1473.54 L1614.13 1473.54 L1614.13 1455.09 M1612.91 1451.02 L1618.79 1451.02 L1618.79 1473.54 L1623.72 1473.54 L1623.72 1477.43 L1618.79 1477.43 L1618.79 1485.58 L1614.13 1485.58 L1614.13 1477.43 L1598.53 1477.43 L1598.53 1472.92 L1612.91 1451.02 Z" fill="#000000" fill-rule="evenodd" fill-opacity="1" /><path clip-path="url(#clip050)" d="M1641.45 1454.1 Q1637.84 1454.1 1636.01 1457.66 Q1634.2 1461.2 1634.2 1468.33 Q1634.2 1475.44 1636.01 1479.01 Q1637.84 1482.55 1641.45 1482.55 Q1645.08 1482.55 1646.89 1479.01 Q1648.72 1475.44 1648.72 1468.33 Q1648.72 1461.2 1646.89 1457.66 Q1645.08 1454.1 1641.45 1454.1 M1641.45 1450.39 Q1647.26 1450.39 1650.32 1455 Q1653.39 1459.58 1653.39 1468.33 Q1653.39 1477.06 1650.32 1481.67 Q1647.26 1486.25 1641.45 1486.25 Q1635.64 1486.25 1632.56 1481.67 Q1629.51 1477.06 1629.51 1468.33 Q1629.51 1459.58 1632.56 1455 Q1635.64 1450.39 1641.45 1450.39 Z" fill="#000000" fill-rule="evenodd" fill-opacity="1" /><path clip-path="url(#clip050)" d="M1934.05 1451.02 L1952.41 1451.02 L1952.41 1454.96 L1938.34 1454.96 L1938.34 1463.43 Q1939.35 1463.08 1940.37 1462.92 Q1941.39 1462.73 1942.41 1462.73 Q1948.2 1462.73 1951.58 1465.9 Q1954.96 1469.08 1954.96 1474.49 Q1954.96 1480.07 1951.48 1483.17 Q1948.01 1486.25 1941.69 1486.25 Q1939.52 1486.25 1937.25 1485.88 Q1935 1485.51 1932.6 1484.77 L1932.6 1480.07 Q1934.68 1481.2 1936.9 1481.76 Q1939.12 1482.32 1941.6 1482.32 Q1945.6 1482.32 1947.94 1480.21 Q1950.28 1478.1 1950.28 1474.49 Q1950.28 1470.88 1947.94 1468.77 Q1945.6 1466.67 1941.6 1466.67 Q1939.73 1466.67 1937.85 1467.08 Q1936 1467.5 1934.05 1468.38 L1934.05 1451.02 Z" fill="#000000" fill-rule="evenodd" fill-opacity="1" /><path clip-path="url(#clip050)" d="M1974.17 1454.1 Q1970.56 1454.1 1968.73 1457.66 Q1966.92 1461.2 1966.92 1468.33 Q1966.92 1475.44 1968.73 1479.01 Q1970.56 1482.55 1974.17 1482.55 Q1977.8 1482.55 1979.61 1479.01 Q1981.44 1475.44 1981.44 1468.33 Q1981.44 1461.2 1979.61 1457.66 Q1977.8 1454.1 1974.17 1454.1 M1974.17 1450.39 Q1979.98 1450.39 1983.03 1455 Q1986.11 1459.58 1986.11 1468.33 Q1986.11 1477.06 1983.03 1481.67 Q1979.98 1486.25 1974.17 1486.25 Q1968.36 1486.25 1965.28 1481.67 Q1962.22 1477.06 1962.22 1468.33 Q1962.22 1459.58 1965.28 1455 Q1968.36 1450.39 1974.17 1450.39 Z" fill="#000000" fill-rule="evenodd" fill-opacity="1" /><path clip-path="url(#clip050)" d="M2278.15 1466.44 Q2275 1466.44 2273.15 1468.59 Q2271.32 1470.74 2271.32 1474.49 Q2271.32 1478.22 2273.15 1480.39 Q2275 1482.55 2278.15 1482.55 Q2281.3 1482.55 2283.13 1480.39 Q2284.98 1478.22 2284.98 1474.49 Q2284.98 1470.74 2283.13 1468.59 Q2281.3 1466.44 2278.15 1466.44 M2287.43 1451.78 L2287.43 1456.04 Q2285.67 1455.21 2283.87 1454.77 Q2282.09 1454.33 2280.33 1454.33 Q2275.7 1454.33 2273.24 1457.45 Q2270.81 1460.58 2270.47 1466.9 Q2271.83 1464.89 2273.89 1463.82 Q2275.95 1462.73 2278.43 1462.73 Q2283.64 1462.73 2286.65 1465.9 Q2289.68 1469.05 2289.68 1474.49 Q2289.68 1479.82 2286.53 1483.03 Q2283.38 1486.25 2278.15 1486.25 Q2272.16 1486.25 2268.98 1481.67 Q2265.81 1477.06 2265.81 1468.33 Q2265.81 1460.14 2269.7 1455.28 Q2273.59 1450.39 2280.14 1450.39 Q2281.9 1450.39 2283.68 1450.74 Q2285.49 1451.09 2287.43 1451.78 Z" fill="#000000" fill-rule="evenodd" fill-opacity="1" /><path clip-path="url(#clip050)" d="M2307.73 1454.1 Q2304.12 1454.1 2302.29 1457.66 Q2300.49 1461.2 2300.49 1468.33 Q2300.49 1475.44 2302.29 1479.01 Q2304.12 1482.55 2307.73 1482.55 Q2311.37 1482.55 2313.17 1479.01 Q2315 1475.44 2315 1468.33 Q2315 1461.2 2313.17 1457.66 Q2311.37 1454.1 2307.73 1454.1 M2307.73 1450.39 Q2313.54 1450.39 2316.6 1455 Q2319.68 1459.58 2319.68 1468.33 Q2319.68 1477.06 2316.6 1481.67 Q2313.54 1486.25 2307.73 1486.25 Q2301.92 1486.25 2298.85 1481.67 Q2295.79 1477.06 2295.79 1468.33 Q2295.79 1459.58 2298.85 1455 Q2301.92 1450.39 2307.73 1450.39 Z" fill="#000000" fill-rule="evenodd" fill-opacity="1" /><path clip-path="url(#clip050)" d="M1180.03 1522.27 L1180.03 1532.4 L1192.09 1532.4 L1192.09 1536.95 L1180.03 1536.95 L1180.03 1556.3 Q1180.03 1560.66 1181.2 1561.9 Q1182.41 1563.14 1186.07 1563.14 L1192.09 1563.14 L1192.09 1568.04 L1186.07 1568.04 Q1179.29 1568.04 1176.72 1565.53 Q1174.14 1562.98 1174.14 1556.3 L1174.14 1536.95 L1169.84 1536.95 L1169.84 1532.4 L1174.14 1532.4 L1174.14 1522.27 L1180.03 1522.27 Z" fill="#000000" fill-rule="evenodd" fill-opacity="1" /><path clip-path="url(#clip050)" d="M1199.79 1532.4 L1205.65 1532.4 L1205.65 1568.04 L1199.79 1568.04 L1199.79 1532.4 M1199.79 1518.52 L1205.65 1518.52 L1205.65 1525.93 L1199.79 1525.93 L1199.79 1518.52 Z" fill="#000000" fill-rule="evenodd" fill-opacity="1" /><path clip-path="url(#clip050)" d="M1245.66 1539.24 Q1247.85 1535.29 1250.91 1533.41 Q1253.96 1531.54 1258.1 1531.54 Q1263.67 1531.54 1266.7 1535.45 Q1269.72 1539.33 1269.72 1546.53 L1269.72 1568.04 L1263.83 1568.04 L1263.83 1546.72 Q1263.83 1541.59 1262.02 1539.11 Q1260.2 1536.63 1256.48 1536.63 Q1251.93 1536.63 1249.29 1539.65 Q1246.64 1542.68 1246.64 1547.9 L1246.64 1568.04 L1240.76 1568.04 L1240.76 1546.72 Q1240.76 1541.56 1238.94 1539.11 Q1237.13 1536.63 1233.34 1536.63 Q1228.85 1536.63 1226.21 1539.68 Q1223.57 1542.71 1223.57 1547.9 L1223.57 1568.04 L1217.68 1568.04 L1217.68 1532.4 L1223.57 1532.4 L1223.57 1537.93 Q1225.57 1534.66 1228.37 1533.1 Q1231.18 1531.54 1235.03 1531.54 Q1238.91 1531.54 1241.62 1533.51 Q1244.35 1535.48 1245.66 1539.24 Z" fill="#000000" fill-rule="evenodd" fill-opacity="1" /><path clip-path="url(#clip050)" d="M1311.89 1548.76 L1311.89 1551.62 L1284.97 1551.62 Q1285.35 1557.67 1288.59 1560.85 Q1291.87 1564 1297.7 1564 Q1301.07 1564 1304.22 1563.17 Q1307.4 1562.35 1310.52 1560.69 L1310.52 1566.23 Q1307.37 1567.57 1304.06 1568.27 Q1300.75 1568.97 1297.35 1568.97 Q1288.82 1568.97 1283.82 1564 Q1278.85 1559.04 1278.85 1550.57 Q1278.85 1541.82 1283.57 1536.69 Q1288.31 1531.54 1296.33 1531.54 Q1303.52 1531.54 1307.69 1536.18 Q1311.89 1540.8 1311.89 1548.76 M1306.04 1547.04 Q1305.97 1542.23 1303.33 1539.37 Q1300.72 1536.5 1296.39 1536.5 Q1291.49 1536.5 1288.53 1539.27 Q1285.6 1542.04 1285.16 1547.07 L1306.04 1547.04 Z" fill="#000000" fill-rule="evenodd" fill-opacity="1" /><path clip-path="url(#clip050)" d="M1356.29 1518.58 Q1352.03 1525.9 1349.96 1533.06 Q1347.89 1540.23 1347.89 1547.58 Q1347.89 1554.93 1349.96 1562.16 Q1352.06 1569.35 1356.29 1576.64 L1351.2 1576.64 Q1346.43 1569.16 1344.04 1561.93 Q1341.68 1554.71 1341.68 1547.58 Q1341.68 1540.48 1344.04 1533.29 Q1346.39 1526.09 1351.2 1518.58 L1356.29 1518.58 Z" fill="#000000" fill-rule="evenodd" fill-opacity="1" /><path clip-path="url(#clip050)" d="M1390.38 1533.45 L1390.38 1538.98 Q1387.9 1537.71 1385.23 1537.07 Q1382.55 1536.44 1379.69 1536.44 Q1375.33 1536.44 1373.13 1537.77 Q1370.97 1539.11 1370.97 1541.79 Q1370.97 1543.82 1372.53 1545 Q1374.09 1546.15 1378.8 1547.2 L1380.8 1547.64 Q1387.04 1548.98 1389.65 1551.43 Q1392.29 1553.85 1392.29 1558.21 Q1392.29 1563.17 1388.34 1566.07 Q1384.43 1568.97 1377.55 1568.97 Q1374.69 1568.97 1371.57 1568.39 Q1368.48 1567.85 1365.05 1566.74 L1365.05 1560.69 Q1368.29 1562.38 1371.44 1563.24 Q1374.59 1564.07 1377.68 1564.07 Q1381.82 1564.07 1384.05 1562.66 Q1386.28 1561.23 1386.28 1558.65 Q1386.28 1556.27 1384.65 1554.99 Q1383.06 1553.72 1377.62 1552.54 L1375.58 1552.07 Q1370.14 1550.92 1367.72 1548.56 Q1365.3 1546.18 1365.3 1542.04 Q1365.3 1537.01 1368.87 1534.27 Q1372.43 1531.54 1378.99 1531.54 Q1382.23 1531.54 1385.1 1532.01 Q1387.96 1532.49 1390.38 1533.45 Z" fill="#000000" fill-rule="evenodd" fill-opacity="1" /><path clip-path="url(#clip050)" d="M1400.69 1518.58 L1405.79 1518.58 Q1410.56 1526.09 1412.92 1533.29 Q1415.3 1540.48 1415.3 1547.58 Q1415.3 1554.71 1412.92 1561.93 Q1410.56 1569.16 1405.79 1576.64 L1400.69 1576.64 Q1404.93 1569.35 1407 1562.16 Q1409.1 1554.93 1409.1 1547.58 Q1409.1 1540.23 1407 1533.06 Q1404.93 1525.9 1400.69 1518.58 Z" fill="#000000" fill-rule="evenodd" fill-opacity="1" /><polyline clip-path="url(#clip052)" style="stroke:#000000; stroke-linecap:butt; stroke-linejoin:round; stroke-width:2; stroke-opacity:0.1; fill:none" points="
  232.389,1386.4 2352.76,1386.4 
  "/>
<polyline clip-path="url(#clip052)" style="stroke:#000000; stroke-linecap:butt; stroke-linejoin:round; stroke-width:2; stroke-opacity:0.1; fill:none" points="
  232.389,1127.23 2352.76,1127.23 
  "/>
<polyline clip-path="url(#clip052)" style="stroke:#000000; stroke-linecap:butt; stroke-linejoin:round; stroke-width:2; stroke-opacity:0.1; fill:none" points="
  232.389,868.058 2352.76,868.058 
  "/>
<polyline clip-path="url(#clip052)" style="stroke:#000000; stroke-linecap:butt; stroke-linejoin:round; stroke-width:2; stroke-opacity:0.1; fill:none" points="
  232.389,608.889 2352.76,608.889 
  "/>
<polyline clip-path="url(#clip052)" style="stroke:#000000; stroke-linecap:butt; stroke-linejoin:round; stroke-width:2; stroke-opacity:0.1; fill:none" points="
  232.389,349.72 2352.76,349.72 
  "/>
<polyline clip-path="url(#clip050)" style="stroke:#000000; stroke-linecap:butt; stroke-linejoin:round; stroke-width:4; stroke-opacity:1; fill:none" points="
  232.389,1423.18 232.389,123.472 
  "/>
<polyline clip-path="url(#clip050)" style="stroke:#000000; stroke-linecap:butt; stroke-linejoin:round; stroke-width:4; stroke-opacity:1; fill:none" points="
  232.389,1386.4 251.287,1386.4 
  "/>
<polyline clip-path="url(#clip050)" style="stroke:#000000; stroke-linecap:butt; stroke-linejoin:round; stroke-width:4; stroke-opacity:1; fill:none" points="
  232.389,1127.23 251.287,1127.23 
  "/>
<polyline clip-path="url(#clip050)" style="stroke:#000000; stroke-linecap:butt; stroke-linejoin:round; stroke-width:4; stroke-opacity:1; fill:none" points="
  232.389,868.058 251.287,868.058 
  "/>
<polyline clip-path="url(#clip050)" style="stroke:#000000; stroke-linecap:butt; stroke-linejoin:round; stroke-width:4; stroke-opacity:1; fill:none" points="
  232.389,608.889 251.287,608.889 
  "/>
<polyline clip-path="url(#clip050)" style="stroke:#000000; stroke-linecap:butt; stroke-linejoin:round; stroke-width:4; stroke-opacity:1; fill:none" points="
  232.389,349.72 251.287,349.72 
  "/>
<path clip-path="url(#clip050)" d="M184.445 1372.19 Q180.834 1372.19 179.005 1375.76 Q177.2 1379.3 177.2 1386.43 Q177.2 1393.54 179.005 1397.1 Q180.834 1400.64 184.445 1400.64 Q188.079 1400.64 189.885 1397.1 Q191.713 1393.54 191.713 1386.43 Q191.713 1379.3 189.885 1375.76 Q188.079 1372.19 184.445 1372.19 M184.445 1368.49 Q190.255 1368.49 193.311 1373.1 Q196.389 1377.68 196.389 1386.43 Q196.389 1395.16 193.311 1399.76 Q190.255 1404.35 184.445 1404.35 Q178.635 1404.35 175.556 1399.76 Q172.501 1395.16 172.501 1386.43 Q172.501 1377.68 175.556 1373.1 Q178.635 1368.49 184.445 1368.49 Z" fill="#000000" fill-rule="evenodd" fill-opacity="1" /><path clip-path="url(#clip050)" d="M158.45 1125.87 Q161.806 1126.59 163.681 1128.86 Q165.579 1131.13 165.579 1134.46 Q165.579 1139.58 162.061 1142.38 Q158.542 1145.18 152.061 1145.18 Q149.885 1145.18 147.57 1144.74 Q145.279 1144.32 142.825 1143.47 L142.825 1138.95 Q144.769 1140.09 147.084 1140.66 Q149.399 1141.24 151.922 1141.24 Q156.32 1141.24 158.612 1139.51 Q160.927 1137.77 160.927 1134.46 Q160.927 1131.41 158.774 1129.69 Q156.644 1127.96 152.825 1127.96 L148.797 1127.96 L148.797 1124.11 L153.01 1124.11 Q156.459 1124.11 158.288 1122.75 Q160.116 1121.36 160.116 1118.77 Q160.116 1116.1 158.218 1114.69 Q156.343 1113.26 152.825 1113.26 Q150.903 1113.26 148.704 1113.67 Q146.505 1114.09 143.866 1114.97 L143.866 1110.8 Q146.529 1110.06 148.843 1109.69 Q151.181 1109.32 153.241 1109.32 Q158.565 1109.32 161.667 1111.75 Q164.769 1114.16 164.769 1118.28 Q164.769 1121.15 163.126 1123.14 Q161.482 1125.11 158.45 1125.87 Z" fill="#000000" fill-rule="evenodd" fill-opacity="1" /><path clip-path="url(#clip050)" d="M184.445 1113.03 Q180.834 1113.03 179.005 1116.59 Q177.2 1120.13 177.2 1127.26 Q177.2 1134.37 179.005 1137.93 Q180.834 1141.47 184.445 1141.47 Q188.079 1141.47 189.885 1137.93 Q191.713 1134.37 191.713 1127.26 Q191.713 1120.13 189.885 1116.59 Q188.079 1113.03 184.445 1113.03 M184.445 1109.32 Q190.255 1109.32 193.311 1113.93 Q196.389 1118.51 196.389 1127.26 Q196.389 1135.99 193.311 1140.59 Q190.255 1145.18 184.445 1145.18 Q178.635 1145.18 175.556 1140.59 Q172.501 1135.99 172.501 1127.26 Q172.501 1118.51 175.556 1113.93 Q178.635 1109.32 184.445 1109.32 Z" fill="#000000" fill-rule="evenodd" fill-opacity="1" /><path clip-path="url(#clip050)" d="M154.862 866.195 Q151.714 866.195 149.862 868.347 Q148.033 870.5 148.033 874.25 Q148.033 877.977 149.862 880.153 Q151.714 882.306 154.862 882.306 Q158.01 882.306 159.839 880.153 Q161.69 877.977 161.69 874.25 Q161.69 870.5 159.839 868.347 Q158.01 866.195 154.862 866.195 M164.144 851.542 L164.144 855.801 Q162.385 854.968 160.579 854.528 Q158.797 854.088 157.038 854.088 Q152.408 854.088 149.954 857.213 Q147.524 860.338 147.177 866.658 Q148.542 864.644 150.603 863.579 Q152.663 862.491 155.14 862.491 Q160.348 862.491 163.357 865.662 Q166.39 868.81 166.39 874.25 Q166.39 879.574 163.241 882.792 Q160.093 886.009 154.862 886.009 Q148.866 886.009 145.695 881.426 Q142.524 876.82 142.524 868.093 Q142.524 859.898 146.413 855.037 Q150.302 850.153 156.853 850.153 Q158.612 850.153 160.394 850.5 Q162.2 850.847 164.144 851.542 Z" fill="#000000" fill-rule="evenodd" fill-opacity="1" /><path clip-path="url(#clip050)" d="M184.445 853.857 Q180.834 853.857 179.005 857.421 Q177.2 860.963 177.2 868.093 Q177.2 875.199 179.005 878.764 Q180.834 882.306 184.445 882.306 Q188.079 882.306 189.885 878.764 Q191.713 875.199 191.713 868.093 Q191.713 860.963 189.885 857.421 Q188.079 853.857 184.445 853.857 M184.445 850.153 Q190.255 850.153 193.311 854.759 Q196.389 859.343 196.389 868.093 Q196.389 876.82 193.311 881.426 Q190.255 886.009 184.445 886.009 Q178.635 886.009 175.556 881.426 Q172.501 876.82 172.501 868.093 Q172.501 859.343 175.556 854.759 Q178.635 850.153 184.445 850.153 Z" fill="#000000" fill-rule="evenodd" fill-opacity="1" /><path clip-path="url(#clip050)" d="M144.422 625.452 L144.422 621.192 Q146.181 622.026 147.987 622.465 Q149.792 622.905 151.528 622.905 Q156.158 622.905 158.589 619.803 Q161.042 616.678 161.39 610.336 Q160.047 612.327 157.987 613.391 Q155.927 614.456 153.427 614.456 Q148.241 614.456 145.209 611.331 Q142.2 608.183 142.2 602.743 Q142.2 597.419 145.348 594.202 Q148.496 590.984 153.728 590.984 Q159.723 590.984 162.871 595.591 Q166.042 600.174 166.042 608.924 Q166.042 617.095 162.153 621.979 Q158.288 626.84 151.737 626.84 Q149.978 626.84 148.172 626.493 Q146.366 626.146 144.422 625.452 M153.728 610.799 Q156.876 610.799 158.704 608.646 Q160.556 606.493 160.556 602.743 Q160.556 599.017 158.704 596.864 Q156.876 594.688 153.728 594.688 Q150.579 594.688 148.728 596.864 Q146.899 599.017 146.899 602.743 Q146.899 606.493 148.728 608.646 Q150.579 610.799 153.728 610.799 Z" fill="#000000" fill-rule="evenodd" fill-opacity="1" /><path clip-path="url(#clip050)" d="M184.445 594.688 Q180.834 594.688 179.005 598.253 Q177.2 601.794 177.2 608.924 Q177.2 616.03 179.005 619.595 Q180.834 623.137 184.445 623.137 Q188.079 623.137 189.885 619.595 Q191.713 616.03 191.713 608.924 Q191.713 601.794 189.885 598.253 Q188.079 594.688 184.445 594.688 M184.445 590.984 Q190.255 590.984 193.311 595.591 Q196.389 600.174 196.389 608.924 Q196.389 617.651 193.311 622.257 Q190.255 626.84 184.445 626.84 Q178.635 626.84 175.556 622.257 Q172.501 617.651 172.501 608.924 Q172.501 600.174 175.556 595.591 Q178.635 590.984 184.445 590.984 Z" fill="#000000" fill-rule="evenodd" fill-opacity="1" /><path clip-path="url(#clip050)" d="M114.931 363.065 L122.57 363.065 L122.57 336.7 L114.26 338.366 L114.26 334.107 L122.524 332.44 L127.2 332.44 L127.2 363.065 L134.839 363.065 L134.839 367 L114.931 367 L114.931 363.065 Z" fill="#000000" fill-rule="evenodd" fill-opacity="1" /><path clip-path="url(#clip050)" d="M148.311 363.065 L164.63 363.065 L164.63 367 L142.686 367 L142.686 363.065 Q145.348 360.311 149.931 355.681 Q154.538 351.028 155.718 349.686 Q157.964 347.163 158.843 345.426 Q159.746 343.667 159.746 341.977 Q159.746 339.223 157.802 337.487 Q155.88 335.751 152.778 335.751 Q150.579 335.751 148.126 336.514 Q145.695 337.278 142.917 338.829 L142.917 334.107 Q145.741 332.973 148.195 332.394 Q150.649 331.815 152.686 331.815 Q158.056 331.815 161.251 334.501 Q164.445 337.186 164.445 341.676 Q164.445 343.806 163.635 345.727 Q162.848 347.625 160.741 350.218 Q160.163 350.889 157.061 354.107 Q153.959 357.301 148.311 363.065 Z" fill="#000000" fill-rule="evenodd" fill-opacity="1" /><path clip-path="url(#clip050)" d="M184.445 335.519 Q180.834 335.519 179.005 339.084 Q177.2 342.625 177.2 349.755 Q177.2 356.862 179.005 360.426 Q180.834 363.968 184.445 363.968 Q188.079 363.968 189.885 360.426 Q191.713 356.862 191.713 349.755 Q191.713 342.625 189.885 339.084 Q188.079 335.519 184.445 335.519 M184.445 331.815 Q190.255 331.815 193.311 336.422 Q196.389 341.005 196.389 349.755 Q196.389 358.482 193.311 363.088 Q190.255 367.672 184.445 367.672 Q178.635 367.672 175.556 363.088 Q172.501 358.482 172.501 349.755 Q172.501 341.005 175.556 336.422 Q178.635 331.815 184.445 331.815 Z" fill="#000000" fill-rule="evenodd" fill-opacity="1" /><path clip-path="url(#clip050)" d="M58.657 994.948 L77.5631 994.948 L77.5631 1000.84 L28.3562 1000.84 L28.3562 994.948 L33.7671 994.948 Q30.5842 993.102 29.0564 990.301 Q27.4968 987.468 27.4968 983.553 Q27.4968 977.06 32.6531 973.018 Q37.8093 968.944 46.212 968.944 Q54.6147 968.944 59.771 973.018 Q64.9272 977.06 64.9272 983.553 Q64.9272 987.468 63.3994 990.301 Q61.8398 993.102 58.657 994.948 M46.212 975.023 Q39.7508 975.023 36.0905 977.697 Q32.3984 980.339 32.3984 984.986 Q32.3984 989.633 36.0905 992.306 Q39.7508 994.948 46.212 994.948 Q52.6732 994.948 56.3653 992.306 Q60.0256 989.633 60.0256 984.986 Q60.0256 980.339 56.3653 977.697 Q52.6732 975.023 46.212 975.023 Z" fill="#000000" fill-rule="evenodd" fill-opacity="1" /><path clip-path="url(#clip050)" d="M32.4621 945.423 Q32.4621 950.133 36.1542 952.871 Q39.8145 955.608 46.212 955.608 Q52.6095 955.608 56.3017 952.903 Q59.9619 950.165 59.9619 945.423 Q59.9619 940.744 56.2698 938.007 Q52.5777 935.27 46.212 935.27 Q39.8781 935.27 36.186 938.007 Q32.4621 940.744 32.4621 945.423 M27.4968 945.423 Q27.4968 937.784 32.4621 933.424 Q37.4273 929.063 46.212 929.063 Q54.9649 929.063 59.9619 933.424 Q64.9272 937.784 64.9272 945.423 Q64.9272 953.094 59.9619 957.454 Q54.9649 961.783 46.212 961.783 Q37.4273 961.783 32.4621 957.454 Q27.4968 953.094 27.4968 945.423 Z" fill="#000000" fill-rule="evenodd" fill-opacity="1" /><path clip-path="url(#clip050)" d="M32.4621 905.542 Q32.4621 910.252 36.1542 912.99 Q39.8145 915.727 46.212 915.727 Q52.6095 915.727 56.3017 913.021 Q59.9619 910.284 59.9619 905.542 Q59.9619 900.863 56.2698 898.126 Q52.5777 895.388 46.212 895.388 Q39.8781 895.388 36.186 898.126 Q32.4621 900.863 32.4621 905.542 M27.4968 905.542 Q27.4968 897.903 32.4621 893.542 Q37.4273 889.182 46.212 889.182 Q54.9649 889.182 59.9619 893.542 Q64.9272 897.903 64.9272 905.542 Q64.9272 913.212 59.9619 917.573 Q54.9649 921.902 46.212 921.902 Q37.4273 921.902 32.4621 917.573 Q27.4968 913.212 27.4968 905.542 Z" fill="#000000" fill-rule="evenodd" fill-opacity="1" /><path clip-path="url(#clip050)" d="M14.479 879.474 L14.479 873.618 L64.0042 873.618 L64.0042 879.474 L14.479 879.474 Z" fill="#000000" fill-rule="evenodd" fill-opacity="1" /><path clip-path="url(#clip050)" d="M46.0847 824.443 Q46.0847 831.54 47.7079 834.278 Q49.3312 837.015 53.2461 837.015 Q56.3653 837.015 58.2114 834.978 Q60.0256 832.909 60.0256 829.376 Q60.0256 824.506 56.5881 821.578 Q53.1188 818.618 47.3897 818.618 L46.0847 818.618 L46.0847 824.443 M43.6657 812.762 L64.0042 812.762 L64.0042 818.618 L58.5933 818.618 Q61.8398 820.623 63.3994 823.615 Q64.9272 826.607 64.9272 830.936 Q64.9272 836.41 61.8716 839.657 Q58.7843 842.871 53.6281 842.871 Q47.6125 842.871 44.5569 838.861 Q41.5014 834.819 41.5014 826.83 L41.5014 818.618 L40.9285 818.618 Q36.8862 818.618 34.6901 821.292 Q32.4621 823.933 32.4621 828.739 Q32.4621 831.795 33.1941 834.691 Q33.9262 837.588 35.3903 840.261 L29.9795 840.261 Q28.7381 837.047 28.1334 834.023 Q27.4968 830.999 27.4968 828.135 Q27.4968 820.4 31.5072 816.581 Q35.5176 812.762 43.6657 812.762 Z" fill="#000000" fill-rule="evenodd" fill-opacity="1" /><path clip-path="url(#clip050)" d="M33.8307 780.042 Q33.2578 781.028 33.0032 782.206 Q32.7167 783.352 32.7167 784.752 Q32.7167 789.718 35.9632 792.391 Q39.1779 795.033 45.2253 795.033 L64.0042 795.033 L64.0042 800.921 L28.3562 800.921 L28.3562 795.033 L33.8944 795.033 Q30.6479 793.187 29.0883 790.227 Q27.4968 787.267 27.4968 783.034 Q27.4968 782.429 27.5923 781.697 Q27.656 780.965 27.8151 780.074 L33.8307 780.042 Z" fill="#000000" fill-rule="evenodd" fill-opacity="1" /><path clip-path="url(#clip050)" d="M44.7161 744.839 L47.5806 744.839 L47.5806 771.766 Q53.6281 771.384 56.8109 768.138 Q59.9619 764.86 59.9619 759.035 Q59.9619 755.661 59.1344 752.51 Q58.3069 749.327 56.6518 746.208 L62.1899 746.208 Q63.5267 749.359 64.227 752.669 Q64.9272 755.979 64.9272 759.385 Q64.9272 767.915 59.9619 772.912 Q54.9967 777.877 46.5303 777.877 Q37.7774 777.877 32.6531 773.167 Q27.4968 768.424 27.4968 760.404 Q27.4968 753.21 32.1438 749.041 Q36.7589 744.839 44.7161 744.839 M42.9973 750.696 Q38.1912 750.76 35.3266 753.401 Q32.4621 756.011 32.4621 760.34 Q32.4621 765.242 35.2312 768.202 Q38.0002 771.13 43.0292 771.575 L42.9973 750.696 Z" fill="#000000" fill-rule="evenodd" fill-opacity="1" /><path clip-path="url(#clip050)" d="M46.0847 719.027 Q46.0847 726.124 47.7079 728.862 Q49.3312 731.599 53.2461 731.599 Q56.3653 731.599 58.2114 729.562 Q60.0256 727.493 60.0256 723.96 Q60.0256 719.09 56.5881 716.162 Q53.1188 713.202 47.3897 713.202 L46.0847 713.202 L46.0847 719.027 M43.6657 707.345 L64.0042 707.345 L64.0042 713.202 L58.5933 713.202 Q61.8398 715.207 63.3994 718.199 Q64.9272 721.191 64.9272 725.52 Q64.9272 730.994 61.8716 734.241 Q58.7843 737.455 53.6281 737.455 Q47.6125 737.455 44.5569 733.445 Q41.5014 729.403 41.5014 721.414 L41.5014 713.202 L40.9285 713.202 Q36.8862 713.202 34.6901 715.875 Q32.4621 718.517 32.4621 723.323 Q32.4621 726.379 33.1941 729.275 Q33.9262 732.172 35.3903 734.845 L29.9795 734.845 Q28.7381 731.631 28.1334 728.607 Q27.4968 725.583 27.4968 722.719 Q27.4968 714.984 31.5072 711.165 Q35.5176 707.345 43.6657 707.345 Z" fill="#000000" fill-rule="evenodd" fill-opacity="1" /><path clip-path="url(#clip050)" d="M14.5426 660.494 Q21.8632 664.759 29.0246 666.828 Q36.186 668.897 43.5384 668.897 Q50.8908 668.897 58.1159 666.828 Q65.3091 664.727 72.5979 660.494 L72.5979 665.586 Q65.1182 670.361 57.8931 672.748 Q50.668 675.103 43.5384 675.103 Q36.4406 675.103 29.2474 672.748 Q22.0542 670.393 14.5426 665.586 L14.5426 660.494 Z" fill="#000000" fill-rule="evenodd" fill-opacity="1" /><path clip-path="url(#clip050)" d="M35.1993 621.377 Q31.2526 619.18 29.3747 616.125 Q27.4968 613.069 27.4968 608.932 Q27.4968 603.362 31.4117 600.338 Q35.2948 597.314 42.4881 597.314 L64.0042 597.314 L64.0042 603.202 L42.679 603.202 Q37.5546 603.202 35.072 605.017 Q32.5894 606.831 32.5894 610.555 Q32.5894 615.106 35.6131 617.748 Q38.6368 620.39 43.8567 620.39 L64.0042 620.39 L64.0042 626.278 L42.679 626.278 Q37.5228 626.278 35.072 628.092 Q32.5894 629.907 32.5894 633.694 Q32.5894 638.182 35.6449 640.824 Q38.6686 643.466 43.8567 643.466 L64.0042 643.466 L64.0042 649.354 L28.3562 649.354 L28.3562 643.466 L33.8944 643.466 Q30.616 641.46 29.0564 638.659 Q27.4968 635.859 27.4968 632.007 Q27.4968 628.124 29.4702 625.419 Q31.4436 622.682 35.1993 621.377 Z" fill="#000000" fill-rule="evenodd" fill-opacity="1" /><path clip-path="url(#clip050)" d="M39.1142 583.246 L39.1142 569.751 L42.7427 569.751 L42.7427 588.784 L39.2416 588.784 Q38.2549 587.702 36.4725 585.697 Q26.7648 574.748 23.7729 574.748 Q21.6722 574.748 20.3991 576.403 Q19.0941 578.058 19.0941 580.763 Q19.0941 582.418 19.667 584.36 Q20.2081 586.302 21.3221 588.593 L17.4072 588.593 Q16.516 586.142 16.0704 584.042 Q15.6248 581.909 15.6248 580.095 Q15.6248 575.48 17.7255 572.711 Q19.8262 569.942 23.2636 569.942 Q27.6878 569.942 36.7271 580.477 Q38.2549 582.259 39.1142 583.246 Z" fill="#000000" fill-rule="evenodd" fill-opacity="1" /><path clip-path="url(#clip050)" d="M14.5426 560.425 L14.5426 555.332 Q22.0542 550.558 29.2474 548.203 Q36.4406 545.816 43.5384 545.816 Q50.668 545.816 57.8931 548.203 Q65.1182 550.558 72.5979 555.332 L72.5979 560.425 Q65.3091 556.192 58.1159 554.123 Q50.8908 552.022 43.5384 552.022 Q36.186 552.022 29.0246 554.123 Q21.8632 556.192 14.5426 560.425 Z" fill="#000000" fill-rule="evenodd" fill-opacity="1" /><path clip-path="url(#clip050)" d="M1000.3 65.7705 L1000.3 89.8329 L992.806 89.8329 L992.806 27.2059 L1000.3 27.2059 L1000.3 34.0924 Q1002.65 30.0415 1006.21 28.0971 Q1009.82 26.1121 1014.8 26.1121 Q1023.07 26.1121 1028.21 32.6746 Q1033.4 39.2371 1033.4 49.9314 Q1033.4 60.6258 1028.21 67.1883 Q1023.07 73.7508 1014.8 73.7508 Q1009.82 73.7508 1006.21 71.8063 Q1002.65 69.8214 1000.3 65.7705 M1025.66 49.9314 Q1025.66 41.7081 1022.26 37.0496 Q1018.89 32.3505 1012.98 32.3505 Q1007.06 32.3505 1003.66 37.0496 Q1000.3 41.7081 1000.3 49.9314 Q1000.3 58.1548 1003.66 62.8538 Q1007.06 67.5124 1012.98 67.5124 Q1018.89 67.5124 1022.26 62.8538 Q1025.66 58.1548 1025.66 49.9314 Z" fill="#000000" fill-rule="evenodd" fill-opacity="1" /><path clip-path="url(#clip050)" d="M1063.33 32.4315 Q1057.34 32.4315 1053.85 37.1306 Q1050.37 41.7891 1050.37 49.9314 Q1050.37 58.0738 1053.81 62.7728 Q1057.3 67.4314 1063.33 67.4314 Q1069.29 67.4314 1072.77 62.7323 Q1076.25 58.0333 1076.25 49.9314 Q1076.25 41.8701 1072.77 37.1711 Q1069.29 32.4315 1063.33 32.4315 M1063.33 26.1121 Q1073.05 26.1121 1078.6 32.4315 Q1084.15 38.7509 1084.15 49.9314 Q1084.15 61.0714 1078.6 67.4314 Q1073.05 73.7508 1063.33 73.7508 Q1053.57 73.7508 1048.02 67.4314 Q1042.51 61.0714 1042.51 49.9314 Q1042.51 38.7509 1048.02 32.4315 Q1053.57 26.1121 1063.33 26.1121 Z" fill="#000000" fill-rule="evenodd" fill-opacity="1" /><path clip-path="url(#clip050)" d="M1114.09 32.4315 Q1108.09 32.4315 1104.61 37.1306 Q1101.13 41.7891 1101.13 49.9314 Q1101.13 58.0738 1104.57 62.7728 Q1108.05 67.4314 1114.09 67.4314 Q1120.04 67.4314 1123.53 62.7323 Q1127.01 58.0333 1127.01 49.9314 Q1127.01 41.8701 1123.53 37.1711 Q1120.04 32.4315 1114.09 32.4315 M1114.09 26.1121 Q1123.81 26.1121 1129.36 32.4315 Q1134.91 38.7509 1134.91 49.9314 Q1134.91 61.0714 1129.36 67.4314 Q1123.81 73.7508 1114.09 73.7508 Q1104.33 73.7508 1098.78 67.4314 Q1093.27 61.0714 1093.27 49.9314 Q1093.27 38.7509 1098.78 32.4315 Q1104.33 26.1121 1114.09 26.1121 Z" fill="#000000" fill-rule="evenodd" fill-opacity="1" /><path clip-path="url(#clip050)" d="M1147.27 9.54393 L1154.72 9.54393 L1154.72 72.576 L1147.27 72.576 L1147.27 9.54393 Z" fill="#000000" fill-rule="evenodd" fill-opacity="1" /><path clip-path="url(#clip050)" d="M1225.61 28.5427 L1225.61 35.5912 Q1222.45 33.9709 1219.05 33.1607 Q1215.65 32.3505 1212 32.3505 Q1206.45 32.3505 1203.66 34.0519 Q1200.9 35.7533 1200.9 39.156 Q1200.9 41.7486 1202.89 43.2475 Q1204.87 44.7058 1210.87 46.0426 L1213.42 46.6097 Q1221.36 48.3111 1224.68 51.4303 Q1228.04 54.509 1228.04 60.0587 Q1228.04 66.3781 1223.02 70.0644 Q1218.04 73.7508 1209.29 73.7508 Q1205.64 73.7508 1201.67 73.0216 Q1197.74 72.3329 1193.37 70.9151 L1193.37 63.2184 Q1197.5 65.3654 1201.51 66.4591 Q1205.52 67.5124 1209.45 67.5124 Q1214.71 67.5124 1217.55 65.73 Q1220.39 63.9071 1220.39 60.6258 Q1220.39 57.5877 1218.32 55.9673 Q1216.29 54.3469 1209.37 52.8481 L1206.77 52.2405 Q1199.85 50.7821 1196.77 47.7845 Q1193.69 44.7463 1193.69 39.4801 Q1193.69 33.0797 1198.23 29.5959 Q1202.76 26.1121 1211.11 26.1121 Q1215.24 26.1121 1218.89 26.7198 Q1222.53 27.3274 1225.61 28.5427 Z" fill="#000000" fill-rule="evenodd" fill-opacity="1" /><path clip-path="url(#clip050)" d="M1247.12 65.7705 L1247.12 89.8329 L1239.63 89.8329 L1239.63 27.2059 L1247.12 27.2059 L1247.12 34.0924 Q1249.47 30.0415 1253.04 28.0971 Q1256.64 26.1121 1261.62 26.1121 Q1269.89 26.1121 1275.03 32.6746 Q1280.22 39.2371 1280.22 49.9314 Q1280.22 60.6258 1275.03 67.1883 Q1269.89 73.7508 1261.62 73.7508 Q1256.64 73.7508 1253.04 71.8063 Q1249.47 69.8214 1247.12 65.7705 M1272.48 49.9314 Q1272.48 41.7081 1269.08 37.0496 Q1265.72 32.3505 1259.8 32.3505 Q1253.89 32.3505 1250.48 37.0496 Q1247.12 41.7081 1247.12 49.9314 Q1247.12 58.1548 1250.48 62.8538 Q1253.89 67.5124 1259.8 67.5124 Q1265.72 67.5124 1269.08 62.8538 Q1272.48 58.1548 1272.48 49.9314 Z" fill="#000000" fill-rule="evenodd" fill-opacity="1" /><path clip-path="url(#clip050)" d="M1318.86 34.1734 Q1317.61 33.4443 1316.11 33.1202 Q1314.65 32.7556 1312.87 32.7556 Q1306.55 32.7556 1303.15 36.8875 Q1299.78 40.9789 1299.78 48.6757 L1299.78 72.576 L1292.29 72.576 L1292.29 27.2059 L1299.78 27.2059 L1299.78 34.2544 Q1302.13 30.1225 1305.9 28.1376 Q1309.67 26.1121 1315.06 26.1121 Q1315.82 26.1121 1316.76 26.2337 Q1317.69 26.3147 1318.82 26.5172 L1318.86 34.1734 Z" fill="#000000" fill-rule="evenodd" fill-opacity="1" /><path clip-path="url(#clip050)" d="M1363.67 48.0275 L1363.67 51.6733 L1329.4 51.6733 Q1329.88 59.3701 1334.01 63.421 Q1338.19 67.4314 1345.6 67.4314 Q1349.89 67.4314 1353.9 66.3781 Q1357.95 65.3249 1361.92 63.2184 L1361.92 70.267 Q1357.91 71.9684 1353.7 72.8596 Q1349.49 73.7508 1345.15 73.7508 Q1334.3 73.7508 1327.94 67.4314 Q1321.62 61.1119 1321.62 50.3365 Q1321.62 39.1965 1327.61 32.6746 Q1333.65 26.1121 1343.86 26.1121 Q1353.01 26.1121 1358.32 32.0264 Q1363.67 37.9003 1363.67 48.0275 M1356.21 45.84 Q1356.13 39.7232 1352.77 36.0774 Q1349.45 32.4315 1343.94 32.4315 Q1337.7 32.4315 1333.93 35.9558 Q1330.21 39.4801 1329.64 45.8805 L1356.21 45.84 Z" fill="#000000" fill-rule="evenodd" fill-opacity="1" /><path clip-path="url(#clip050)" d="M1396.52 49.7694 Q1387.49 49.7694 1384 51.8354 Q1380.52 53.9013 1380.52 58.8839 Q1380.52 62.8538 1383.11 65.2034 Q1385.74 67.5124 1390.24 67.5124 Q1396.44 67.5124 1400.16 63.1374 Q1403.93 58.7219 1403.93 51.4303 L1403.93 49.7694 L1396.52 49.7694 M1411.39 46.6907 L1411.39 72.576 L1403.93 72.576 L1403.93 65.6895 Q1401.38 69.8214 1397.57 71.8063 Q1393.76 73.7508 1388.25 73.7508 Q1381.29 73.7508 1377.16 69.8619 Q1373.06 65.9325 1373.06 59.3701 Q1373.06 51.7138 1378.17 47.825 Q1383.31 43.9361 1393.48 43.9361 L1403.93 43.9361 L1403.93 43.2069 Q1403.93 38.0623 1400.53 35.2672 Q1397.17 32.4315 1391.05 32.4315 Q1387.16 32.4315 1383.47 33.3632 Q1379.79 34.295 1376.39 36.1584 L1376.39 29.2718 Q1380.48 27.692 1384.33 26.9223 Q1388.17 26.1121 1391.82 26.1121 Q1401.66 26.1121 1406.52 31.2163 Q1411.39 36.3204 1411.39 46.6907 Z" fill="#000000" fill-rule="evenodd" fill-opacity="1" /><path clip-path="url(#clip050)" d="M1456.59 34.0924 L1456.59 9.54393 L1464.05 9.54393 L1464.05 72.576 L1456.59 72.576 L1456.59 65.7705 Q1454.24 69.8214 1450.64 71.8063 Q1447.07 73.7508 1442.05 73.7508 Q1433.83 73.7508 1428.64 67.1883 Q1423.5 60.6258 1423.5 49.9314 Q1423.5 39.2371 1428.64 32.6746 Q1433.83 26.1121 1442.05 26.1121 Q1447.07 26.1121 1450.64 28.0971 Q1454.24 30.0415 1456.59 34.0924 M1431.19 49.9314 Q1431.19 58.1548 1434.56 62.8538 Q1437.96 67.5124 1443.87 67.5124 Q1449.79 67.5124 1453.19 62.8538 Q1456.59 58.1548 1456.59 49.9314 Q1456.59 41.7081 1453.19 37.0496 Q1449.79 32.3505 1443.87 32.3505 Q1437.96 32.3505 1434.56 37.0496 Q1431.19 41.7081 1431.19 49.9314 Z" fill="#000000" fill-rule="evenodd" fill-opacity="1" /><path clip-path="url(#clip050)" d="M1479.4 27.2059 L1486.85 27.2059 L1486.85 72.576 L1479.4 72.576 L1479.4 27.2059 M1479.4 9.54393 L1486.85 9.54393 L1486.85 18.9825 L1479.4 18.9825 L1479.4 9.54393 Z" fill="#000000" fill-rule="evenodd" fill-opacity="1" /><path clip-path="url(#clip050)" d="M1540.16 45.1919 L1540.16 72.576 L1532.71 72.576 L1532.71 45.4349 Q1532.71 38.994 1530.2 35.7938 Q1527.69 32.5936 1522.66 32.5936 Q1516.63 32.5936 1513.14 36.4419 Q1509.66 40.2903 1509.66 46.9338 L1509.66 72.576 L1502.17 72.576 L1502.17 27.2059 L1509.66 27.2059 L1509.66 34.2544 Q1512.33 30.163 1515.94 28.1376 Q1519.59 26.1121 1524.32 26.1121 Q1532.14 26.1121 1536.15 30.9732 Q1540.16 35.7938 1540.16 45.1919 Z" fill="#000000" fill-rule="evenodd" fill-opacity="1" /><path clip-path="url(#clip050)" d="M1584.89 49.3643 Q1584.89 41.2625 1581.52 36.8065 Q1578.2 32.3505 1572.17 32.3505 Q1566.17 32.3505 1562.81 36.8065 Q1559.49 41.2625 1559.49 49.3643 Q1559.49 57.4256 1562.81 61.8816 Q1566.17 66.3376 1572.17 66.3376 Q1578.2 66.3376 1581.52 61.8816 Q1584.89 57.4256 1584.89 49.3643 M1592.34 66.9452 Q1592.34 78.5308 1587.19 84.1616 Q1582.05 89.8329 1571.44 89.8329 Q1567.51 89.8329 1564.02 89.2252 Q1560.54 88.6581 1557.26 87.4428 L1557.26 80.1917 Q1560.54 81.9741 1563.74 82.8248 Q1566.94 83.6755 1570.26 83.6755 Q1577.59 83.6755 1581.24 79.8271 Q1584.89 76.0193 1584.89 68.282 L1584.89 64.5957 Q1582.58 68.6061 1578.97 70.5911 Q1575.37 72.576 1570.34 72.576 Q1562 72.576 1556.89 66.2161 Q1551.79 59.8562 1551.79 49.3643 Q1551.79 38.832 1556.89 32.472 Q1562 26.1121 1570.34 26.1121 Q1575.37 26.1121 1578.97 28.0971 Q1582.58 30.082 1584.89 34.0924 L1584.89 27.2059 L1592.34 27.2059 L1592.34 66.9452 Z" fill="#000000" fill-rule="evenodd" fill-opacity="1" /><polyline clip-path="url(#clip052)" style="stroke:#009af9; stroke-linecap:butt; stroke-linejoin:round; stroke-width:4; stroke-opacity:1; fill:none" points="
  292.4,1386.4 297.283,1386.25 302.167,1385.98 307.051,1385.63 311.935,1385.21 357.092,1379.26 402.249,1370.62 447.407,1359.95 492.564,1347.58 546.84,1330.77 
  601.115,1312.06 647.004,1294.88 692.893,1276.55 792.59,1233.08 884.502,1188.94 983.041,1137.65 1097.21,1073.48 1147.94,1043.44 1198.67,1012.49 1220.91,998.637 
  1243.15,985.103 1265.39,985.103 1287.64,985.103 1336.14,985.103 1384.64,985.103 1433.43,985.103 1482.21,985.103 1590.1,985.103 1692.75,985.103 1799.48,985.103 
  1889.33,985.103 1999.02,985.103 2102.13,985.103 2267.32,985.103 2292.75,985.103 
  "/>
<polyline clip-path="url(#clip052)" style="stroke:#e26f46; stroke-linecap:butt; stroke-linejoin:round; stroke-width:4; stroke-opacity:1; fill:none" points="
  292.4,1386.4 311.935,1385.21 492.564,1347.58 601.115,1312.06 692.893,1276.55 792.59,1233.08 884.502,1188.94 983.041,1137.65 1097.21,1073.48 1198.67,1012.49 
  1287.64,956.095 1384.64,891.677 1482.21,823.923 1590.1,745.712 1692.75,668.21 1799.48,584.557 1889.33,511.796 1999.02,420.153 2102.13,331.274 2267.32,183.557 
  2292.75,160.256 
  "/>
<path clip-path="url(#clip050)" d="
M303.068 322.316 L869.843 322.316 L869.843 166.796 L303.068 166.796  Z
  " fill="#ffffff" fill-rule="evenodd" fill-opacity="1"/>
<polyline clip-path="url(#clip050)" style="stroke:#000000; stroke-linecap:butt; stroke-linejoin:round; stroke-width:4; stroke-opacity:1; fill:none" points="
  303.068,322.316 869.843,322.316 869.843,166.796 303.068,166.796 303.068,322.316 
  "/>
<polyline clip-path="url(#clip050)" style="stroke:#009af9; stroke-linecap:butt; stroke-linejoin:round; stroke-width:4; stroke-opacity:1; fill:none" points="
  326.628,218.636 467.986,218.636 
  "/>
<path clip-path="url(#clip050)" d="M512.054 210.985 L512.054 214.967 Q510.249 213.971 508.42 213.485 Q506.615 212.976 504.763 212.976 Q500.619 212.976 498.328 215.615 Q496.036 218.231 496.036 222.976 Q496.036 227.721 498.328 230.36 Q500.619 232.976 504.763 232.976 Q506.615 232.976 508.42 232.49 Q510.249 231.981 512.054 230.985 L512.054 234.92 Q510.272 235.754 508.351 236.17 Q506.453 236.587 504.3 236.587 Q498.443 236.587 494.994 232.906 Q491.545 229.226 491.545 222.976 Q491.545 216.633 495.017 212.999 Q498.513 209.365 504.578 209.365 Q506.545 209.365 508.42 209.782 Q510.295 210.175 512.054 210.985 Z" fill="#000000" fill-rule="evenodd" fill-opacity="1" /><path clip-path="url(#clip050)" d="M529.508 212.976 Q526.082 212.976 524.091 215.661 Q522.101 218.323 522.101 222.976 Q522.101 227.629 524.068 230.314 Q526.059 232.976 529.508 232.976 Q532.911 232.976 534.902 230.291 Q536.892 227.606 536.892 222.976 Q536.892 218.37 534.902 215.684 Q532.911 212.976 529.508 212.976 M529.508 209.365 Q535.064 209.365 538.235 212.976 Q541.406 216.587 541.406 222.976 Q541.406 229.342 538.235 232.976 Q535.064 236.587 529.508 236.587 Q523.929 236.587 520.758 232.976 Q517.61 229.342 517.61 222.976 Q517.61 216.587 520.758 212.976 Q523.929 209.365 529.508 209.365 Z" fill="#000000" fill-rule="evenodd" fill-opacity="1" /><path clip-path="url(#clip050)" d="M570.017 220.268 L570.017 235.916 L565.758 235.916 L565.758 220.407 Q565.758 216.726 564.323 214.897 Q562.887 213.069 560.017 213.069 Q556.568 213.069 554.577 215.268 Q552.587 217.467 552.587 221.263 L552.587 235.916 L548.304 235.916 L548.304 209.99 L552.587 209.99 L552.587 214.018 Q554.114 211.68 556.175 210.522 Q558.258 209.365 560.966 209.365 Q565.434 209.365 567.725 212.143 Q570.017 214.897 570.017 220.268 Z" fill="#000000" fill-rule="evenodd" fill-opacity="1" /><path clip-path="url(#clip050)" d="M595.04 210.754 L595.04 214.782 Q593.235 213.856 591.29 213.393 Q589.346 212.93 587.262 212.93 Q584.091 212.93 582.494 213.902 Q580.92 214.874 580.92 216.819 Q580.92 218.3 582.054 219.157 Q583.188 219.99 586.614 220.754 L588.073 221.078 Q592.61 222.05 594.508 223.832 Q596.429 225.592 596.429 228.763 Q596.429 232.374 593.559 234.481 Q590.711 236.587 585.711 236.587 Q583.628 236.587 581.36 236.17 Q579.114 235.777 576.614 234.967 L576.614 230.569 Q578.975 231.795 581.267 232.42 Q583.559 233.022 585.804 233.022 Q588.813 233.022 590.434 232.004 Q592.054 230.962 592.054 229.087 Q592.054 227.351 590.873 226.425 Q589.716 225.499 585.758 224.643 L584.276 224.295 Q580.318 223.462 578.559 221.749 Q576.799 220.013 576.799 217.004 Q576.799 213.346 579.392 211.356 Q581.985 209.365 586.753 209.365 Q589.114 209.365 591.198 209.712 Q593.281 210.059 595.04 210.754 Z" fill="#000000" fill-rule="evenodd" fill-opacity="1" /><path clip-path="url(#clip050)" d="M607.424 202.629 L607.424 209.99 L616.197 209.99 L616.197 213.3 L607.424 213.3 L607.424 227.374 Q607.424 230.545 608.281 231.448 Q609.16 232.351 611.822 232.351 L616.197 232.351 L616.197 235.916 L611.822 235.916 Q606.892 235.916 605.017 234.087 Q603.142 232.235 603.142 227.374 L603.142 213.3 L600.017 213.3 L600.017 209.99 L603.142 209.99 L603.142 202.629 L607.424 202.629 Z" fill="#000000" fill-rule="evenodd" fill-opacity="1" /><path clip-path="url(#clip050)" d="M636.822 213.971 Q636.105 213.555 635.248 213.37 Q634.415 213.161 633.396 213.161 Q629.785 213.161 627.841 215.522 Q625.92 217.86 625.92 222.258 L625.92 235.916 L621.637 235.916 L621.637 209.99 L625.92 209.99 L625.92 214.018 Q627.262 211.657 629.415 210.522 Q631.568 209.365 634.646 209.365 Q635.086 209.365 635.619 209.434 Q636.151 209.481 636.799 209.596 L636.822 213.971 Z" fill="#000000" fill-rule="evenodd" fill-opacity="1" /><path clip-path="url(#clip050)" d="M653.072 222.883 Q647.91 222.883 645.919 224.064 Q643.929 225.244 643.929 228.092 Q643.929 230.36 645.41 231.703 Q646.915 233.022 649.484 233.022 Q653.026 233.022 655.155 230.522 Q657.308 227.999 657.308 223.832 L657.308 222.883 L653.072 222.883 M661.567 221.124 L661.567 235.916 L657.308 235.916 L657.308 231.981 Q655.85 234.342 653.674 235.476 Q651.498 236.587 648.35 236.587 Q644.369 236.587 642.007 234.365 Q639.669 232.119 639.669 228.369 Q639.669 223.994 642.586 221.772 Q645.526 219.55 651.336 219.55 L657.308 219.55 L657.308 219.133 Q657.308 216.194 655.364 214.596 Q653.443 212.976 649.947 212.976 Q647.725 212.976 645.619 213.508 Q643.512 214.041 641.568 215.106 L641.568 211.17 Q643.906 210.268 646.105 209.828 Q648.304 209.365 650.387 209.365 Q656.012 209.365 658.79 212.282 Q661.567 215.198 661.567 221.124 Z" fill="#000000" fill-rule="evenodd" fill-opacity="1" /><path clip-path="url(#clip050)" d="M670.341 209.99 L674.6 209.99 L674.6 235.916 L670.341 235.916 L670.341 209.99 M670.341 199.897 L674.6 199.897 L674.6 205.291 L670.341 205.291 L670.341 199.897 Z" fill="#000000" fill-rule="evenodd" fill-opacity="1" /><path clip-path="url(#clip050)" d="M705.063 220.268 L705.063 235.916 L700.803 235.916 L700.803 220.407 Q700.803 216.726 699.368 214.897 Q697.933 213.069 695.063 213.069 Q691.614 213.069 689.623 215.268 Q687.632 217.467 687.632 221.263 L687.632 235.916 L683.35 235.916 L683.35 209.99 L687.632 209.99 L687.632 214.018 Q689.16 211.68 691.22 210.522 Q693.303 209.365 696.012 209.365 Q700.479 209.365 702.771 212.143 Q705.063 214.897 705.063 220.268 Z" fill="#000000" fill-rule="evenodd" fill-opacity="1" /><path clip-path="url(#clip050)" d="M735.734 221.888 L735.734 223.971 L716.151 223.971 Q716.428 228.369 718.789 230.684 Q721.174 232.976 725.41 232.976 Q727.863 232.976 730.155 232.374 Q732.47 231.772 734.738 230.569 L734.738 234.596 Q732.447 235.568 730.039 236.078 Q727.632 236.587 725.155 236.587 Q718.951 236.587 715.317 232.976 Q711.706 229.365 711.706 223.207 Q711.706 216.842 715.132 213.115 Q718.581 209.365 724.414 209.365 Q729.646 209.365 732.678 212.745 Q735.734 216.101 735.734 221.888 M731.475 220.638 Q731.428 217.143 729.507 215.059 Q727.609 212.976 724.461 212.976 Q720.896 212.976 718.743 214.99 Q716.613 217.004 716.289 220.661 L731.475 220.638 Z" fill="#000000" fill-rule="evenodd" fill-opacity="1" /><path clip-path="url(#clip050)" d="M759.785 213.925 L759.785 199.897 L764.044 199.897 L764.044 235.916 L759.785 235.916 L759.785 232.027 Q758.442 234.342 756.382 235.476 Q754.345 236.587 751.474 236.587 Q746.775 236.587 743.812 232.837 Q740.873 229.087 740.873 222.976 Q740.873 216.865 743.812 213.115 Q746.775 209.365 751.474 209.365 Q754.345 209.365 756.382 210.499 Q758.442 211.61 759.785 213.925 M745.271 222.976 Q745.271 227.675 747.192 230.36 Q749.136 233.022 752.516 233.022 Q755.896 233.022 757.84 230.36 Q759.785 227.675 759.785 222.976 Q759.785 218.277 757.84 215.615 Q755.896 212.93 752.516 212.93 Q749.136 212.93 747.192 215.615 Q745.271 218.277 745.271 222.976 Z" fill="#000000" fill-rule="evenodd" fill-opacity="1" /><polyline clip-path="url(#clip050)" style="stroke:#e26f46; stroke-linecap:butt; stroke-linejoin:round; stroke-width:4; stroke-opacity:1; fill:none" points="
  326.628,270.476 467.986,270.476 
  "/>
<path clip-path="url(#clip050)" d="M491.545 277.524 L491.545 261.83 L495.804 261.83 L495.804 277.362 Q495.804 281.043 497.24 282.895 Q498.675 284.723 501.545 284.723 Q504.994 284.723 506.985 282.524 Q508.999 280.325 508.999 276.529 L508.999 261.83 L513.258 261.83 L513.258 287.756 L508.999 287.756 L508.999 283.774 Q507.448 286.135 505.388 287.293 Q503.351 288.427 500.642 288.427 Q496.175 288.427 493.86 285.649 Q491.545 282.871 491.545 277.524 M502.263 261.205 L502.263 261.205 Z" fill="#000000" fill-rule="evenodd" fill-opacity="1" /><path clip-path="url(#clip050)" d="M543.582 272.108 L543.582 287.756 L539.323 287.756 L539.323 272.247 Q539.323 268.566 537.888 266.737 Q536.452 264.909 533.582 264.909 Q530.133 264.909 528.142 267.108 Q526.152 269.307 526.152 273.103 L526.152 287.756 L521.869 287.756 L521.869 261.83 L526.152 261.83 L526.152 265.858 Q527.679 263.52 529.739 262.362 Q531.823 261.205 534.531 261.205 Q538.999 261.205 541.29 263.983 Q543.582 266.737 543.582 272.108 Z" fill="#000000" fill-rule="evenodd" fill-opacity="1" /><path clip-path="url(#clip050)" d="M570.735 262.825 L570.735 266.807 Q568.929 265.811 567.1 265.325 Q565.295 264.816 563.443 264.816 Q559.3 264.816 557.008 267.455 Q554.716 270.071 554.716 274.816 Q554.716 279.561 557.008 282.2 Q559.3 284.816 563.443 284.816 Q565.295 284.816 567.1 284.33 Q568.929 283.821 570.735 282.825 L570.735 286.76 Q568.952 287.594 567.031 288.01 Q565.133 288.427 562.98 288.427 Q557.124 288.427 553.675 284.746 Q550.226 281.066 550.226 274.816 Q550.226 268.473 553.698 264.839 Q557.193 261.205 563.258 261.205 Q565.225 261.205 567.1 261.622 Q568.975 262.015 570.735 262.825 Z" fill="#000000" fill-rule="evenodd" fill-opacity="1" /><path clip-path="url(#clip050)" d="M588.188 264.816 Q584.762 264.816 582.772 267.501 Q580.781 270.163 580.781 274.816 Q580.781 279.469 582.748 282.154 Q584.739 284.816 588.188 284.816 Q591.591 284.816 593.582 282.131 Q595.572 279.446 595.572 274.816 Q595.572 270.21 593.582 267.524 Q591.591 264.816 588.188 264.816 M588.188 261.205 Q593.744 261.205 596.915 264.816 Q600.086 268.427 600.086 274.816 Q600.086 281.182 596.915 284.816 Q593.744 288.427 588.188 288.427 Q582.61 288.427 579.438 284.816 Q576.29 281.182 576.29 274.816 Q576.29 268.427 579.438 264.816 Q582.61 261.205 588.188 261.205 Z" fill="#000000" fill-rule="evenodd" fill-opacity="1" /><path clip-path="url(#clip050)" d="M628.697 272.108 L628.697 287.756 L624.438 287.756 L624.438 272.247 Q624.438 268.566 623.003 266.737 Q621.568 264.909 618.697 264.909 Q615.248 264.909 613.258 267.108 Q611.267 269.307 611.267 273.103 L611.267 287.756 L606.984 287.756 L606.984 261.83 L611.267 261.83 L611.267 265.858 Q612.795 263.52 614.855 262.362 Q616.938 261.205 619.646 261.205 Q624.114 261.205 626.406 263.983 Q628.697 266.737 628.697 272.108 Z" fill="#000000" fill-rule="evenodd" fill-opacity="1" /><path clip-path="url(#clip050)" d="M653.72 262.594 L653.72 266.622 Q651.915 265.696 649.97 265.233 Q648.026 264.77 645.943 264.77 Q642.771 264.77 641.174 265.742 Q639.6 266.714 639.6 268.659 Q639.6 270.14 640.734 270.997 Q641.869 271.83 645.294 272.594 L646.753 272.918 Q651.29 273.89 653.188 275.672 Q655.109 277.432 655.109 280.603 Q655.109 284.214 652.239 286.321 Q649.392 288.427 644.392 288.427 Q642.308 288.427 640.04 288.01 Q637.794 287.617 635.294 286.807 L635.294 282.409 Q637.656 283.635 639.947 284.26 Q642.239 284.862 644.484 284.862 Q647.493 284.862 649.114 283.844 Q650.734 282.802 650.734 280.927 Q650.734 279.191 649.554 278.265 Q648.396 277.339 644.438 276.483 L642.956 276.135 Q638.998 275.302 637.239 273.589 Q635.48 271.853 635.48 268.844 Q635.48 265.186 638.072 263.196 Q640.665 261.205 645.433 261.205 Q647.794 261.205 649.878 261.552 Q651.961 261.899 653.72 262.594 Z" fill="#000000" fill-rule="evenodd" fill-opacity="1" /><path clip-path="url(#clip050)" d="M666.105 254.469 L666.105 261.83 L674.878 261.83 L674.878 265.14 L666.105 265.14 L666.105 279.214 Q666.105 282.385 666.961 283.288 Q667.841 284.191 670.503 284.191 L674.878 284.191 L674.878 287.756 L670.503 287.756 Q665.572 287.756 663.697 285.927 Q661.822 284.075 661.822 279.214 L661.822 265.14 L658.697 265.14 L658.697 261.83 L661.822 261.83 L661.822 254.469 L666.105 254.469 Z" fill="#000000" fill-rule="evenodd" fill-opacity="1" /><path clip-path="url(#clip050)" d="M695.503 265.811 Q694.785 265.395 693.928 265.21 Q693.095 265.001 692.077 265.001 Q688.466 265.001 686.521 267.362 Q684.6 269.7 684.6 274.098 L684.6 287.756 L680.317 287.756 L680.317 261.83 L684.6 261.83 L684.6 265.858 Q685.942 263.497 688.095 262.362 Q690.248 261.205 693.327 261.205 Q693.766 261.205 694.299 261.274 Q694.831 261.321 695.479 261.436 L695.503 265.811 Z" fill="#000000" fill-rule="evenodd" fill-opacity="1" /><path clip-path="url(#clip050)" d="M711.752 274.723 Q706.59 274.723 704.6 275.904 Q702.609 277.084 702.609 279.932 Q702.609 282.2 704.09 283.543 Q705.595 284.862 708.164 284.862 Q711.706 284.862 713.836 282.362 Q715.989 279.839 715.989 275.672 L715.989 274.723 L711.752 274.723 M720.248 272.964 L720.248 287.756 L715.989 287.756 L715.989 283.821 Q714.53 286.182 712.354 287.316 Q710.178 288.427 707.03 288.427 Q703.049 288.427 700.688 286.205 Q698.35 283.959 698.35 280.209 Q698.35 275.834 701.266 273.612 Q704.206 271.39 710.016 271.39 L715.989 271.39 L715.989 270.973 Q715.989 268.034 714.044 266.436 Q712.123 264.816 708.627 264.816 Q706.405 264.816 704.299 265.348 Q702.192 265.881 700.248 266.946 L700.248 263.01 Q702.586 262.108 704.785 261.668 Q706.984 261.205 709.067 261.205 Q714.692 261.205 717.47 264.122 Q720.248 267.038 720.248 272.964 Z" fill="#000000" fill-rule="evenodd" fill-opacity="1" /><path clip-path="url(#clip050)" d="M729.021 261.83 L733.28 261.83 L733.28 287.756 L729.021 287.756 L729.021 261.83 M729.021 251.737 L733.28 251.737 L733.28 257.131 L729.021 257.131 L729.021 251.737 Z" fill="#000000" fill-rule="evenodd" fill-opacity="1" /><path clip-path="url(#clip050)" d="M763.743 272.108 L763.743 287.756 L759.484 287.756 L759.484 272.247 Q759.484 268.566 758.048 266.737 Q756.613 264.909 753.743 264.909 Q750.294 264.909 748.303 267.108 Q746.312 269.307 746.312 273.103 L746.312 287.756 L742.03 287.756 L742.03 261.83 L746.312 261.83 L746.312 265.858 Q747.84 263.52 749.9 262.362 Q751.984 261.205 754.692 261.205 Q759.16 261.205 761.451 263.983 Q763.743 266.737 763.743 272.108 Z" fill="#000000" fill-rule="evenodd" fill-opacity="1" /><path clip-path="url(#clip050)" d="M794.414 273.728 L794.414 275.811 L774.831 275.811 Q775.109 280.209 777.47 282.524 Q779.854 284.816 784.09 284.816 Q786.544 284.816 788.835 284.214 Q791.15 283.612 793.419 282.409 L793.419 286.436 Q791.127 287.408 788.72 287.918 Q786.312 288.427 783.835 288.427 Q777.632 288.427 773.997 284.816 Q770.386 281.205 770.386 275.047 Q770.386 268.682 773.812 264.955 Q777.261 261.205 783.095 261.205 Q788.326 261.205 791.358 264.585 Q794.414 267.941 794.414 273.728 M790.155 272.478 Q790.108 268.983 788.187 266.899 Q786.289 264.816 783.141 264.816 Q779.576 264.816 777.423 266.83 Q775.294 268.844 774.97 272.501 L790.155 272.478 Z" fill="#000000" fill-rule="evenodd" fill-opacity="1" /><path clip-path="url(#clip050)" d="M818.465 265.765 L818.465 251.737 L822.724 251.737 L822.724 287.756 L818.465 287.756 L818.465 283.867 Q817.122 286.182 815.062 287.316 Q813.025 288.427 810.155 288.427 Q805.456 288.427 802.493 284.677 Q799.553 280.927 799.553 274.816 Q799.553 268.705 802.493 264.955 Q805.456 261.205 810.155 261.205 Q813.025 261.205 815.062 262.339 Q817.122 263.45 818.465 265.765 M803.951 274.816 Q803.951 279.515 805.872 282.2 Q807.817 284.862 811.196 284.862 Q814.576 284.862 816.52 282.2 Q818.465 279.515 818.465 274.816 Q818.465 270.117 816.52 267.455 Q814.576 264.77 811.196 264.77 Q807.817 264.77 805.872 267.455 Q803.951 270.117 803.951 274.816 Z" fill="#000000" fill-rule="evenodd" fill-opacity="1" /></svg>
