<?xml version="1.0" encoding="utf-8"?>
<svg xmlns="http://www.w3.org/2000/svg" xmlns:xlink="http://www.w3.org/1999/xlink" width="600" height="400" viewBox="0 0 2400 1600">
<defs>
  <clipPath id="clip170">
    <rect x="0" y="0" width="2400" height="1600"/>
  </clipPath>
</defs>
<path clip-path="url(#clip170)" d="
M0 1600 L2400 1600 L2400 0 L0 0  Z
  " fill="#ffffff" fill-rule="evenodd" fill-opacity="1"/>
<defs>
  <clipPath id="clip171">
    <rect x="480" y="0" width="1681" height="1600"/>
  </clipPath>
</defs>
<path clip-path="url(#clip170)" d="
M251.372 1410.9 L2352.76 1410.9 L2352.76 123.472 L251.372 123.472  Z
  " fill="#ffffff" fill-rule="evenodd" fill-opacity="1"/>
<defs>
  <clipPath id="clip172">
    <rect x="251" y="123" width="2102" height="1288"/>
  </clipPath>
</defs>
<polyline clip-path="url(#clip172)" style="stroke:#000000; stroke-linecap:butt; stroke-linejoin:round; stroke-width:2; stroke-opacity:0.1; fill:none" points="
  641.252,1410.9 641.252,123.472 
  "/>
<polyline clip-path="url(#clip172)" style="stroke:#000000; stroke-linecap:butt; stroke-linejoin:round; stroke-width:2; stroke-opacity:0.1; fill:none" points="
  1632.47,1410.9 1632.47,123.472 
  "/>
<polyline clip-path="url(#clip170)" style="stroke:#000000; stroke-linecap:butt; stroke-linejoin:round; stroke-width:4; stroke-opacity:1; fill:none" points="
  251.372,1410.9 2352.76,1410.9 
  "/>
<polyline clip-path="url(#clip170)" style="stroke:#000000; stroke-linecap:butt; stroke-linejoin:round; stroke-width:4; stroke-opacity:1; fill:none" points="
  641.252,1410.9 641.252,1392 
  "/>
<polyline clip-path="url(#clip170)" style="stroke:#000000; stroke-linecap:butt; stroke-linejoin:round; stroke-width:4; stroke-opacity:1; fill:none" points="
  1632.47,1410.9 1632.47,1392 
  "/>
<path clip-path="url(#clip170)" d="M606.695 1485.02 L614.334 1485.02 L614.334 1458.66 L606.024 1460.32 L606.024 1456.06 L614.288 1454.4 L618.964 1454.4 L618.964 1485.02 L626.602 1485.02 L626.602 1488.96 L606.695 1488.96 L606.695 1485.02 Z" fill="#000000" fill-rule="evenodd" fill-opacity="1" /><path clip-path="url(#clip170)" d="M646.047 1457.48 Q642.436 1457.48 640.607 1461.04 Q638.801 1464.58 638.801 1471.71 Q638.801 1478.82 640.607 1482.38 Q642.436 1485.92 646.047 1485.92 Q649.681 1485.92 651.487 1482.38 Q653.315 1478.82 653.315 1471.71 Q653.315 1464.58 651.487 1461.04 Q649.681 1457.48 646.047 1457.48 M646.047 1453.77 Q651.857 1453.77 654.912 1458.38 Q657.991 1462.96 657.991 1471.71 Q657.991 1480.44 654.912 1485.04 Q651.857 1489.63 646.047 1489.63 Q640.237 1489.63 637.158 1485.04 Q634.102 1480.44 634.102 1471.71 Q634.102 1462.96 637.158 1458.38 Q640.237 1453.77 646.047 1453.77 Z" fill="#000000" fill-rule="evenodd" fill-opacity="1" /><path clip-path="url(#clip170)" d="M670.686 1446.41 Q673.414 1446.99 674.937 1448.83 Q676.479 1450.68 676.479 1453.38 Q676.479 1457.54 673.62 1459.82 Q670.762 1462.09 665.495 1462.09 Q663.728 1462.09 661.847 1461.73 Q659.985 1461.4 657.991 1460.7 L657.991 1457.03 Q659.571 1457.95 661.452 1458.42 Q663.333 1458.89 665.383 1458.89 Q668.956 1458.89 670.818 1457.48 Q672.699 1456.07 672.699 1453.38 Q672.699 1450.9 670.95 1449.51 Q669.219 1448.1 666.116 1448.1 L662.844 1448.1 L662.844 1444.98 L666.267 1444.98 Q669.069 1444.98 670.555 1443.87 Q672.041 1442.74 672.041 1440.63 Q672.041 1438.47 670.498 1437.32 Q668.975 1436.16 666.116 1436.16 Q664.555 1436.16 662.768 1436.49 Q660.982 1436.83 658.838 1437.55 L658.838 1434.16 Q661 1433.56 662.881 1433.26 Q664.781 1432.96 666.455 1432.96 Q670.78 1432.96 673.301 1434.93 Q675.821 1436.89 675.821 1440.24 Q675.821 1442.57 674.486 1444.19 Q673.15 1445.79 670.686 1446.41 Z" fill="#000000" fill-rule="evenodd" fill-opacity="1" /><path clip-path="url(#clip170)" d="M1597.46 1485.02 L1605.1 1485.02 L1605.1 1458.66 L1596.79 1460.32 L1596.79 1456.06 L1605.06 1454.4 L1609.73 1454.4 L1609.73 1485.02 L1617.37 1485.02 L1617.37 1488.96 L1597.46 1488.96 L1597.46 1485.02 Z" fill="#000000" fill-rule="evenodd" fill-opacity="1" /><path clip-path="url(#clip170)" d="M1636.81 1457.48 Q1633.2 1457.48 1631.37 1461.04 Q1629.57 1464.58 1629.57 1471.71 Q1629.57 1478.82 1631.37 1482.38 Q1633.2 1485.92 1636.81 1485.92 Q1640.45 1485.92 1642.25 1482.38 Q1644.08 1478.82 1644.08 1471.71 Q1644.08 1464.58 1642.25 1461.04 Q1640.45 1457.48 1636.81 1457.48 M1636.81 1453.77 Q1642.62 1453.77 1645.68 1458.38 Q1648.76 1462.96 1648.76 1471.71 Q1648.76 1480.44 1645.68 1485.04 Q1642.62 1489.63 1636.81 1489.63 Q1631 1489.63 1627.93 1485.04 Q1624.87 1480.44 1624.87 1471.71 Q1624.87 1462.96 1627.93 1458.38 Q1631 1453.77 1636.81 1453.77 Z" fill="#000000" fill-rule="evenodd" fill-opacity="1" /><path clip-path="url(#clip170)" d="M1658.78 1445.99 Q1656.23 1445.99 1654.72 1447.74 Q1653.23 1449.49 1653.23 1452.54 Q1653.23 1455.57 1654.72 1457.33 Q1656.23 1459.08 1658.78 1459.08 Q1661.34 1459.08 1662.83 1457.33 Q1664.33 1455.57 1664.33 1452.54 Q1664.33 1449.49 1662.83 1447.74 Q1661.34 1445.99 1658.78 1445.99 M1666.32 1434.09 L1666.32 1437.55 Q1664.9 1436.87 1663.43 1436.51 Q1661.98 1436.16 1660.55 1436.16 Q1656.79 1436.16 1654.8 1438.69 Q1652.82 1441.23 1652.54 1446.37 Q1653.65 1444.73 1655.32 1443.87 Q1657 1442.98 1659.01 1442.98 Q1663.24 1442.98 1665.69 1445.56 Q1668.15 1448.12 1668.15 1452.54 Q1668.15 1456.86 1665.59 1459.48 Q1663.03 1462.09 1658.78 1462.09 Q1653.91 1462.09 1651.34 1458.37 Q1648.76 1454.62 1648.76 1447.53 Q1648.76 1440.88 1651.92 1436.93 Q1655.08 1432.96 1660.4 1432.96 Q1661.83 1432.96 1663.28 1433.24 Q1664.75 1433.52 1666.32 1434.09 Z" fill="#000000" fill-rule="evenodd" fill-opacity="1" /><path clip-path="url(#clip170)" d="M1288.3 1551.91 Q1290.37 1552.61 1292.31 1554.9 Q1294.28 1557.19 1296.26 1561.2 L1302.78 1574.19 L1295.87 1574.19 L1289.79 1562 Q1287.44 1557.22 1285.21 1555.66 Q1283.01 1554.1 1279.2 1554.1 L1272.19 1554.1 L1272.19 1574.19 L1265.76 1574.19 L1265.76 1526.67 L1280.28 1526.67 Q1288.43 1526.67 1292.44 1530.07 Q1296.45 1533.48 1296.45 1540.35 Q1296.45 1544.84 1294.35 1547.8 Q1292.28 1550.76 1288.3 1551.91 M1272.19 1531.95 L1272.19 1548.82 L1280.28 1548.82 Q1284.92 1548.82 1287.28 1546.69 Q1289.67 1544.52 1289.67 1540.35 Q1289.67 1536.18 1287.28 1534.08 Q1284.92 1531.95 1280.28 1531.95 L1272.19 1531.95 Z" fill="#000000" fill-rule="evenodd" fill-opacity="1" /><path clip-path="url(#clip170)" d="M1338.36 1554.9 L1338.36 1557.76 L1311.44 1557.76 Q1311.82 1563.81 1315.07 1566.99 Q1318.34 1570.14 1324.17 1570.14 Q1327.54 1570.14 1330.69 1569.32 Q1333.88 1568.49 1337 1566.83 L1337 1572.37 Q1333.84 1573.71 1330.53 1574.41 Q1327.22 1575.11 1323.82 1575.11 Q1315.29 1575.11 1310.29 1570.14 Q1305.33 1565.18 1305.33 1556.71 Q1305.33 1547.96 1310.04 1542.83 Q1314.78 1537.68 1322.8 1537.68 Q1329.99 1537.68 1334.16 1542.33 Q1338.36 1546.94 1338.36 1554.9 M1332.51 1553.18 Q1332.44 1548.37 1329.8 1545.51 Q1327.19 1542.64 1322.86 1542.64 Q1317.96 1542.64 1315 1545.41 Q1312.07 1548.18 1311.63 1553.21 L1332.51 1553.18 Z" fill="#000000" fill-rule="evenodd" fill-opacity="1" /><polyline clip-path="url(#clip172)" style="stroke:#000000; stroke-linecap:butt; stroke-linejoin:round; stroke-width:2; stroke-opacity:0.1; fill:none" points="
  251.372,1257.97 2352.76,1257.97 
  "/>
<polyline clip-path="url(#clip172)" style="stroke:#000000; stroke-linecap:butt; stroke-linejoin:round; stroke-width:2; stroke-opacity:0.1; fill:none" points="
  251.372,650.022 2352.76,650.022 
  "/>
<polyline clip-path="url(#clip170)" style="stroke:#000000; stroke-linecap:butt; stroke-linejoin:round; stroke-width:4; stroke-opacity:1; fill:none" points="
  251.372,1410.9 251.372,123.472 
  "/>
<polyline clip-path="url(#clip170)" style="stroke:#000000; stroke-linecap:butt; stroke-linejoin:round; stroke-width:4; stroke-opacity:1; fill:none" points="
  251.372,1257.97 270.27,1257.97 
  "/>
<polyline clip-path="url(#clip170)" style="stroke:#000000; stroke-linecap:butt; stroke-linejoin:round; stroke-width:4; stroke-opacity:1; fill:none" points="
  251.372,650.022 270.27,650.022 
  "/>
<path clip-path="url(#clip170)" d="M115.232 1277.76 L122.871 1277.76 L122.871 1251.39 L114.561 1253.06 L114.561 1248.8 L122.825 1247.14 L127.501 1247.14 L127.501 1277.76 L135.14 1277.76 L135.14 1281.7 L115.232 1281.7 L115.232 1277.76 Z" fill="#000000" fill-rule="evenodd" fill-opacity="1" /><path clip-path="url(#clip170)" d="M154.584 1250.21 Q150.973 1250.21 149.144 1253.78 Q147.339 1257.32 147.339 1264.45 Q147.339 1271.56 149.144 1275.12 Q150.973 1278.66 154.584 1278.66 Q158.218 1278.66 160.024 1275.12 Q161.852 1271.56 161.852 1264.45 Q161.852 1257.32 160.024 1253.78 Q158.218 1250.21 154.584 1250.21 M154.584 1246.51 Q160.394 1246.51 163.45 1251.12 Q166.528 1255.7 166.528 1264.45 Q166.528 1273.18 163.45 1277.78 Q160.394 1282.37 154.584 1282.37 Q148.774 1282.37 145.695 1277.78 Q142.64 1273.18 142.64 1264.45 Q142.64 1255.7 145.695 1251.12 Q148.774 1246.51 154.584 1246.51 Z" fill="#000000" fill-rule="evenodd" fill-opacity="1" /><path clip-path="url(#clip170)" d="M166.528 1240.61 L190.64 1240.61 L190.64 1243.81 L166.528 1243.81 L166.528 1240.61 Z" fill="#000000" fill-rule="evenodd" fill-opacity="1" /><path clip-path="url(#clip170)" d="M202.113 1251.09 L215.372 1251.09 L215.372 1254.28 L197.542 1254.28 L197.542 1251.09 Q199.705 1248.85 203.429 1245.09 Q207.172 1241.31 208.131 1240.22 Q209.956 1238.17 210.67 1236.76 Q211.404 1235.33 211.404 1233.95 Q211.404 1231.72 209.824 1230.3 Q208.263 1228.89 205.743 1228.89 Q203.956 1228.89 201.962 1229.52 Q199.987 1230.14 197.73 1231.4 L197.73 1227.56 Q200.025 1226.64 202.019 1226.17 Q204.012 1225.7 205.667 1225.7 Q210.031 1225.7 212.626 1227.88 Q215.222 1230.06 215.222 1233.71 Q215.222 1235.44 214.563 1237 Q213.924 1238.54 212.212 1240.65 Q211.742 1241.19 209.222 1243.81 Q206.702 1246.4 202.113 1251.09 Z" fill="#000000" fill-rule="evenodd" fill-opacity="1" /><path clip-path="url(#clip170)" d="M114.931 669.815 L122.57 669.815 L122.57 643.449 L114.26 645.116 L114.26 640.856 L122.524 639.19 L127.2 639.19 L127.2 669.815 L134.839 669.815 L134.839 673.75 L114.931 673.75 L114.931 669.815 Z" fill="#000000" fill-rule="evenodd" fill-opacity="1" /><path clip-path="url(#clip170)" d="M154.283 642.268 Q150.672 642.268 148.843 645.833 Q147.038 649.375 147.038 656.504 Q147.038 663.611 148.843 667.176 Q150.672 670.717 154.283 670.717 Q157.917 670.717 159.723 667.176 Q161.552 663.611 161.552 656.504 Q161.552 649.375 159.723 645.833 Q157.917 642.268 154.283 642.268 M154.283 638.565 Q160.093 638.565 163.149 643.171 Q166.227 647.755 166.227 656.504 Q166.227 665.231 163.149 669.838 Q160.093 674.421 154.283 674.421 Q148.473 674.421 145.394 669.838 Q142.339 665.231 142.339 656.504 Q142.339 647.755 145.394 643.171 Q148.473 638.565 154.283 638.565 Z" fill="#000000" fill-rule="evenodd" fill-opacity="1" /><path clip-path="url(#clip170)" d="M166.227 632.666 L190.339 632.666 L190.339 635.863 L166.227 635.863 L166.227 632.666 Z" fill="#000000" fill-rule="evenodd" fill-opacity="1" /><path clip-path="url(#clip170)" d="M199.197 643.142 L205.404 643.142 L205.404 621.72 L198.652 623.074 L198.652 619.614 L205.366 618.259 L209.166 618.259 L209.166 643.142 L215.372 643.142 L215.372 646.339 L199.197 646.339 L199.197 643.142 Z" fill="#000000" fill-rule="evenodd" fill-opacity="1" /><path clip-path="url(#clip170)" d="M14.479 755.838 L19.3487 755.838 L19.3487 761.439 Q19.3487 764.59 20.6219 765.832 Q21.895 767.041 25.2052 767.041 L28.3562 767.041 L28.3562 757.397 L32.9077 757.397 L32.9077 767.041 L64.0042 767.041 L64.0042 772.929 L32.9077 772.929 L32.9077 778.531 L28.3562 778.531 L28.3562 772.929 L25.8736 772.929 Q19.9216 772.929 17.2162 770.16 Q14.479 767.391 14.479 761.376 L14.479 755.838 Z" fill="#000000" fill-rule="evenodd" fill-opacity="1" /><path clip-path="url(#clip170)" d="M518.923 18.8205 L518.923 65.8515 L528.807 65.8515 Q541.324 65.8515 547.117 60.1802 Q552.951 54.509 552.951 42.2752 Q552.951 30.1225 547.117 24.4918 Q541.324 18.8205 528.807 18.8205 L518.923 18.8205 M510.74 12.096 L527.551 12.096 Q545.132 12.096 553.356 19.4281 Q561.579 26.7198 561.579 42.2752 Q561.579 57.9117 553.315 65.2439 Q545.051 72.576 527.551 72.576 L510.74 72.576 L510.74 12.096 Z" fill="#000000" fill-rule="evenodd" fill-opacity="1" /><path clip-path="url(#clip170)" d="M594.918 49.7694 Q585.884 49.7694 582.401 51.8354 Q578.917 53.9013 578.917 58.8839 Q578.917 62.8538 581.509 65.2034 Q584.143 67.5124 588.639 67.5124 Q594.837 67.5124 598.564 63.1374 Q602.331 58.7219 602.331 51.4303 L602.331 49.7694 L594.918 49.7694 M609.785 46.6907 L609.785 72.576 L602.331 72.576 L602.331 65.6895 Q599.779 69.8214 595.971 71.8063 Q592.163 73.7508 586.654 73.7508 Q579.687 73.7508 575.555 69.8619 Q571.463 65.9325 571.463 59.3701 Q571.463 51.7138 576.567 47.825 Q581.712 43.9361 591.88 43.9361 L602.331 43.9361 L602.331 43.2069 Q602.331 38.0623 598.928 35.2672 Q595.566 32.4315 589.449 32.4315 Q585.56 32.4315 581.874 33.3632 Q578.188 34.295 574.785 36.1584 L574.785 29.2718 Q578.876 27.692 582.725 26.9223 Q586.573 26.1121 590.219 26.1121 Q600.063 26.1121 604.924 31.2163 Q609.785 36.3204 609.785 46.6907 Z" fill="#000000" fill-rule="evenodd" fill-opacity="1" /><path clip-path="url(#clip170)" d="M651.428 34.1734 Q650.172 33.4443 648.673 33.1202 Q647.215 32.7556 645.433 32.7556 Q639.113 32.7556 635.711 36.8875 Q632.348 40.9789 632.348 48.6757 L632.348 72.576 L624.854 72.576 L624.854 27.2059 L632.348 27.2059 L632.348 34.2544 Q634.698 30.1225 638.465 28.1376 Q642.233 26.1121 647.62 26.1121 Q648.39 26.1121 649.322 26.2337 Q650.253 26.3147 651.388 26.5172 L651.428 34.1734 Z" fill="#000000" fill-rule="evenodd" fill-opacity="1" /><path clip-path="url(#clip170)" d="M690.074 28.9478 L690.074 35.9153 Q686.914 34.1734 683.714 33.3227 Q680.554 32.4315 677.313 32.4315 Q670.062 32.4315 666.052 37.0496 Q662.041 41.6271 662.041 49.9314 Q662.041 58.2358 666.052 62.8538 Q670.062 67.4314 677.313 67.4314 Q680.554 67.4314 683.714 66.5807 Q686.914 65.6895 690.074 63.9476 L690.074 70.8341 Q686.954 72.2924 683.592 73.0216 Q680.27 73.7508 676.503 73.7508 Q666.254 73.7508 660.219 67.3098 Q654.183 60.8689 654.183 49.9314 Q654.183 38.832 660.259 32.472 Q666.376 26.1121 676.989 26.1121 Q680.433 26.1121 683.714 26.8413 Q686.995 27.5299 690.074 28.9478 Z" fill="#000000" fill-rule="evenodd" fill-opacity="1" /><path clip-path="url(#clip170)" d="M721.914 76.7889 Q718.754 84.8907 715.756 87.3618 Q712.759 89.8329 707.736 89.8329 L701.781 89.8329 L701.781 83.5945 L706.156 83.5945 Q709.234 83.5945 710.936 82.1361 Q712.637 80.6778 714.703 75.2496 L716.04 71.8468 L697.689 27.2059 L705.589 27.2059 L719.767 62.6918 L733.945 27.2059 L741.844 27.2059 L721.914 76.7889 Z" fill="#000000" fill-rule="evenodd" fill-opacity="1" /><path clip-path="url(#clip170)" d="M801.474 9.54393 L801.474 15.7418 L794.344 15.7418 Q790.334 15.7418 788.754 17.3622 Q787.214 18.9825 787.214 23.1955 L787.214 27.2059 L799.489 27.2059 L799.489 32.9987 L787.214 32.9987 L787.214 72.576 L779.72 72.576 L779.72 32.9987 L772.591 32.9987 L772.591 27.2059 L779.72 27.2059 L779.72 24.0462 Q779.72 16.471 783.244 13.0277 Q786.769 9.54393 794.425 9.54393 L801.474 9.54393 Z" fill="#000000" fill-rule="evenodd" fill-opacity="1" /><path clip-path="url(#clip170)" d="M834.002 34.1734 Q832.747 33.4443 831.248 33.1202 Q829.789 32.7556 828.007 32.7556 Q821.688 32.7556 818.285 36.8875 Q814.923 40.9789 814.923 48.6757 L814.923 72.576 L807.428 72.576 L807.428 27.2059 L814.923 27.2059 L814.923 34.2544 Q817.272 30.1225 821.039 28.1376 Q824.807 26.1121 830.194 26.1121 Q830.964 26.1121 831.896 26.2337 Q832.828 26.3147 833.962 26.5172 L834.002 34.1734 Z" fill="#000000" fill-rule="evenodd" fill-opacity="1" /><path clip-path="url(#clip170)" d="M841.821 27.2059 L849.274 27.2059 L849.274 72.576 L841.821 72.576 L841.821 27.2059 M841.821 9.54393 L849.274 9.54393 L849.274 18.9825 L841.821 18.9825 L841.821 9.54393 Z" fill="#000000" fill-rule="evenodd" fill-opacity="1" /><path clip-path="url(#clip170)" d="M897.52 28.9478 L897.52 35.9153 Q894.361 34.1734 891.161 33.3227 Q888.001 32.4315 884.76 32.4315 Q877.509 32.4315 873.499 37.0496 Q869.488 41.6271 869.488 49.9314 Q869.488 58.2358 873.499 62.8538 Q877.509 67.4314 884.76 67.4314 Q888.001 67.4314 891.161 66.5807 Q894.361 65.6895 897.52 63.9476 L897.52 70.8341 Q894.401 72.2924 891.039 73.0216 Q887.717 73.7508 883.95 73.7508 Q873.701 73.7508 867.665 67.3098 Q861.629 60.8689 861.629 49.9314 Q861.629 38.832 867.706 32.472 Q873.823 26.1121 884.436 26.1121 Q887.879 26.1121 891.161 26.8413 Q894.442 27.5299 897.52 28.9478 Z" fill="#000000" fill-rule="evenodd" fill-opacity="1" /><path clip-path="url(#clip170)" d="M917.856 14.324 L917.856 27.2059 L933.209 27.2059 L933.209 32.9987 L917.856 32.9987 L917.856 57.6282 Q917.856 63.1779 919.355 64.7578 Q920.894 66.3376 925.553 66.3376 L933.209 66.3376 L933.209 72.576 L925.553 72.576 Q916.924 72.576 913.643 69.3758 Q910.362 66.1351 910.362 57.6282 L910.362 32.9987 L904.893 32.9987 L904.893 27.2059 L910.362 27.2059 L910.362 14.324 L917.856 14.324 Z" fill="#000000" fill-rule="evenodd" fill-opacity="1" /><path clip-path="url(#clip170)" d="M943.012 27.2059 L950.466 27.2059 L950.466 72.576 L943.012 72.576 L943.012 27.2059 M943.012 9.54393 L950.466 9.54393 L950.466 18.9825 L943.012 18.9825 L943.012 9.54393 Z" fill="#000000" fill-rule="evenodd" fill-opacity="1" /><path clip-path="url(#clip170)" d="M983.643 32.4315 Q977.647 32.4315 974.164 37.1306 Q970.68 41.7891 970.68 49.9314 Q970.68 58.0738 974.123 62.7728 Q977.607 67.4314 983.643 67.4314 Q989.598 67.4314 993.081 62.7323 Q996.565 58.0333 996.565 49.9314 Q996.565 41.8701 993.081 37.1711 Q989.598 32.4315 983.643 32.4315 M983.643 26.1121 Q993.365 26.1121 998.915 32.4315 Q1004.46 38.7509 1004.46 49.9314 Q1004.46 61.0714 998.915 67.4314 Q993.365 73.7508 983.643 73.7508 Q973.88 73.7508 968.33 67.4314 Q962.821 61.0714 962.821 49.9314 Q962.821 38.7509 968.33 32.4315 Q973.88 26.1121 983.643 26.1121 Z" fill="#000000" fill-rule="evenodd" fill-opacity="1" /><path clip-path="url(#clip170)" d="M1054.53 45.1919 L1054.53 72.576 L1047.08 72.576 L1047.08 45.4349 Q1047.08 38.994 1044.57 35.7938 Q1042.06 32.5936 1037.03 32.5936 Q1031 32.5936 1027.51 36.4419 Q1024.03 40.2903 1024.03 46.9338 L1024.03 72.576 L1016.54 72.576 L1016.54 27.2059 L1024.03 27.2059 L1024.03 34.2544 Q1026.7 30.163 1030.31 28.1376 Q1033.95 26.1121 1038.69 26.1121 Q1046.51 26.1121 1050.52 30.9732 Q1054.53 35.7938 1054.53 45.1919 Z" fill="#000000" fill-rule="evenodd" fill-opacity="1" /><path clip-path="url(#clip170)" d="M1118.74 9.54393 L1118.74 15.7418 L1111.61 15.7418 Q1107.6 15.7418 1106.02 17.3622 Q1104.48 18.9825 1104.48 23.1955 L1104.48 27.2059 L1116.76 27.2059 L1116.76 32.9987 L1104.48 32.9987 L1104.48 72.576 L1096.99 72.576 L1096.99 32.9987 L1089.86 32.9987 L1089.86 27.2059 L1096.99 27.2059 L1096.99 24.0462 Q1096.99 16.471 1100.51 13.0277 Q1104.04 9.54393 1111.69 9.54393 L1118.74 9.54393 Z" fill="#000000" fill-rule="evenodd" fill-opacity="1" /><path clip-path="url(#clip170)" d="M1145.6 49.7694 Q1136.56 49.7694 1133.08 51.8354 Q1129.6 53.9013 1129.6 58.8839 Q1129.6 62.8538 1132.19 65.2034 Q1134.82 67.5124 1139.32 67.5124 Q1145.52 67.5124 1149.24 63.1374 Q1153.01 58.7219 1153.01 51.4303 L1153.01 49.7694 L1145.6 49.7694 M1160.46 46.6907 L1160.46 72.576 L1153.01 72.576 L1153.01 65.6895 Q1150.46 69.8214 1146.65 71.8063 Q1142.84 73.7508 1137.33 73.7508 Q1130.37 73.7508 1126.23 69.8619 Q1122.14 65.9325 1122.14 59.3701 Q1122.14 51.7138 1127.25 47.825 Q1132.39 43.9361 1142.56 43.9361 L1153.01 43.9361 L1153.01 43.2069 Q1153.01 38.0623 1149.61 35.2672 Q1146.25 32.4315 1140.13 32.4315 Q1136.24 32.4315 1132.55 33.3632 Q1128.87 34.295 1125.46 36.1584 L1125.46 29.2718 Q1129.56 27.692 1133.4 26.9223 Q1137.25 26.1121 1140.9 26.1121 Q1150.74 26.1121 1155.6 31.2163 Q1160.46 36.3204 1160.46 46.6907 Z" fill="#000000" fill-rule="evenodd" fill-opacity="1" /><path clip-path="url(#clip170)" d="M1208.47 28.9478 L1208.47 35.9153 Q1205.31 34.1734 1202.11 33.3227 Q1198.95 32.4315 1195.71 32.4315 Q1188.46 32.4315 1184.45 37.0496 Q1180.44 41.6271 1180.44 49.9314 Q1180.44 58.2358 1184.45 62.8538 Q1188.46 67.4314 1195.71 67.4314 Q1198.95 67.4314 1202.11 66.5807 Q1205.31 65.6895 1208.47 63.9476 L1208.47 70.8341 Q1205.35 72.2924 1201.99 73.0216 Q1198.66 73.7508 1194.9 73.7508 Q1184.65 73.7508 1178.61 67.3098 Q1172.58 60.8689 1172.58 49.9314 Q1172.58 38.832 1178.65 32.472 Q1184.77 26.1121 1195.38 26.1121 Q1198.83 26.1121 1202.11 26.8413 Q1205.39 27.5299 1208.47 28.9478 Z" fill="#000000" fill-rule="evenodd" fill-opacity="1" /><path clip-path="url(#clip170)" d="M1228.8 14.324 L1228.8 27.2059 L1244.16 27.2059 L1244.16 32.9987 L1228.8 32.9987 L1228.8 57.6282 Q1228.8 63.1779 1230.3 64.7578 Q1231.84 66.3376 1236.5 66.3376 L1244.16 66.3376 L1244.16 72.576 L1236.5 72.576 Q1227.87 72.576 1224.59 69.3758 Q1221.31 66.1351 1221.31 57.6282 L1221.31 32.9987 L1215.84 32.9987 L1215.84 27.2059 L1221.31 27.2059 L1221.31 14.324 L1228.8 14.324 Z" fill="#000000" fill-rule="evenodd" fill-opacity="1" /><path clip-path="url(#clip170)" d="M1271.54 32.4315 Q1265.55 32.4315 1262.06 37.1306 Q1258.58 41.7891 1258.58 49.9314 Q1258.58 58.0738 1262.02 62.7728 Q1265.5 67.4314 1271.54 67.4314 Q1277.5 67.4314 1280.98 62.7323 Q1284.46 58.0333 1284.46 49.9314 Q1284.46 41.8701 1280.98 37.1711 Q1277.5 32.4315 1271.54 32.4315 M1271.54 26.1121 Q1281.26 26.1121 1286.81 32.4315 Q1292.36 38.7509 1292.36 49.9314 Q1292.36 61.0714 1286.81 67.4314 Q1281.26 73.7508 1271.54 73.7508 Q1261.78 73.7508 1256.23 67.4314 Q1250.72 61.0714 1250.72 49.9314 Q1250.72 38.7509 1256.23 32.4315 Q1261.78 26.1121 1271.54 26.1121 Z" fill="#000000" fill-rule="evenodd" fill-opacity="1" /><path clip-path="url(#clip170)" d="M1331.01 34.1734 Q1329.75 33.4443 1328.25 33.1202 Q1326.79 32.7556 1325.01 32.7556 Q1318.69 32.7556 1315.29 36.8875 Q1311.93 40.9789 1311.93 48.6757 L1311.93 72.576 L1304.43 72.576 L1304.43 27.2059 L1311.93 27.2059 L1311.93 34.2544 Q1314.28 30.1225 1318.04 28.1376 Q1321.81 26.1121 1327.2 26.1121 Q1327.97 26.1121 1328.9 26.2337 Q1329.83 26.3147 1330.97 26.5172 L1331.01 34.1734 Z" fill="#000000" fill-rule="evenodd" fill-opacity="1" /><path clip-path="url(#clip170)" d="M1388.17 9.54393 L1388.17 15.7418 L1381.04 15.7418 Q1377.03 15.7418 1375.45 17.3622 Q1373.91 18.9825 1373.91 23.1955 L1373.91 27.2059 L1386.18 27.2059 L1386.18 32.9987 L1373.91 32.9987 L1373.91 72.576 L1366.41 72.576 L1366.41 32.9987 L1359.28 32.9987 L1359.28 27.2059 L1366.41 27.2059 L1366.41 24.0462 Q1366.41 16.471 1369.94 13.0277 Q1373.46 9.54393 1381.12 9.54393 L1388.17 9.54393 Z" fill="#000000" fill-rule="evenodd" fill-opacity="1" /><path clip-path="url(#clip170)" d="M1411.99 32.4315 Q1405.99 32.4315 1402.51 37.1306 Q1399.02 41.7891 1399.02 49.9314 Q1399.02 58.0738 1402.47 62.7728 Q1405.95 67.4314 1411.99 67.4314 Q1417.94 67.4314 1421.42 62.7323 Q1424.91 58.0333 1424.91 49.9314 Q1424.91 41.8701 1421.42 37.1711 Q1417.94 32.4315 1411.99 32.4315 M1411.99 26.1121 Q1421.71 26.1121 1427.26 32.4315 Q1432.81 38.7509 1432.81 49.9314 Q1432.81 61.0714 1427.26 67.4314 Q1421.71 73.7508 1411.99 73.7508 Q1402.22 73.7508 1396.67 67.4314 Q1391.16 61.0714 1391.16 49.9314 Q1391.16 38.7509 1396.67 32.4315 Q1402.22 26.1121 1411.99 26.1121 Z" fill="#000000" fill-rule="evenodd" fill-opacity="1" /><path clip-path="url(#clip170)" d="M1471.45 34.1734 Q1470.2 33.4443 1468.7 33.1202 Q1467.24 32.7556 1465.46 32.7556 Q1459.14 32.7556 1455.74 36.8875 Q1452.37 40.9789 1452.37 48.6757 L1452.37 72.576 L1444.88 72.576 L1444.88 27.2059 L1452.37 27.2059 L1452.37 34.2544 Q1454.72 30.1225 1458.49 28.1376 Q1462.26 26.1121 1467.64 26.1121 Q1468.41 26.1121 1469.35 26.2337 Q1470.28 26.3147 1471.41 26.5172 L1471.45 34.1734 Z" fill="#000000" fill-rule="evenodd" fill-opacity="1" /><path clip-path="url(#clip170)" d="M1534.57 28.5427 L1534.57 35.5912 Q1531.41 33.9709 1528 33.1607 Q1524.6 32.3505 1520.95 32.3505 Q1515.4 32.3505 1512.61 34.0519 Q1509.86 35.7533 1509.86 39.156 Q1509.86 41.7486 1511.84 43.2475 Q1513.83 44.7058 1519.82 46.0426 L1522.37 46.6097 Q1530.31 48.3111 1533.63 51.4303 Q1537 54.509 1537 60.0587 Q1537 66.3781 1531.97 70.0644 Q1526.99 73.7508 1518.24 73.7508 Q1514.59 73.7508 1510.62 73.0216 Q1506.7 72.3329 1502.32 70.9151 L1502.32 63.2184 Q1506.45 65.3654 1510.46 66.4591 Q1514.47 67.5124 1518.4 67.5124 Q1523.67 67.5124 1526.5 65.73 Q1529.34 63.9071 1529.34 60.6258 Q1529.34 57.5877 1527.27 55.9673 Q1525.25 54.3469 1518.32 52.8481 L1515.73 52.2405 Q1508.8 50.7821 1505.72 47.7845 Q1502.64 44.7463 1502.64 39.4801 Q1502.64 33.0797 1507.18 29.5959 Q1511.72 26.1121 1520.06 26.1121 Q1524.2 26.1121 1527.84 26.7198 Q1531.49 27.3274 1534.57 28.5427 Z" fill="#000000" fill-rule="evenodd" fill-opacity="1" /><path clip-path="url(#clip170)" d="M1584.19 35.9153 Q1586.98 30.8922 1590.87 28.5022 Q1594.76 26.1121 1600.03 26.1121 Q1607.12 26.1121 1610.97 31.0947 Q1614.81 36.0368 1614.81 45.1919 L1614.81 72.576 L1607.32 72.576 L1607.32 45.4349 Q1607.32 38.913 1605.01 35.7533 Q1602.7 32.5936 1597.96 32.5936 Q1592.17 32.5936 1588.81 36.4419 Q1585.45 40.2903 1585.45 46.9338 L1585.45 72.576 L1577.95 72.576 L1577.95 45.4349 Q1577.95 38.8725 1575.64 35.7533 Q1573.33 32.5936 1568.51 32.5936 Q1562.8 32.5936 1559.44 36.4824 Q1556.08 40.3308 1556.08 46.9338 L1556.08 72.576 L1548.58 72.576 L1548.58 27.2059 L1556.08 27.2059 L1556.08 34.2544 Q1558.63 30.082 1562.19 28.0971 Q1565.76 26.1121 1570.66 26.1121 Q1575.6 26.1121 1579.04 28.6237 Q1582.53 31.1352 1584.19 35.9153 Z" fill="#000000" fill-rule="evenodd" fill-opacity="1" /><path clip-path="url(#clip170)" d="M1647.26 32.4315 Q1641.27 32.4315 1637.78 37.1306 Q1634.3 41.7891 1634.3 49.9314 Q1634.3 58.0738 1637.74 62.7728 Q1641.23 67.4314 1647.26 67.4314 Q1653.22 67.4314 1656.7 62.7323 Q1660.18 58.0333 1660.18 49.9314 Q1660.18 41.8701 1656.7 37.1711 Q1653.22 32.4315 1647.26 32.4315 M1647.26 26.1121 Q1656.98 26.1121 1662.53 32.4315 Q1668.08 38.7509 1668.08 49.9314 Q1668.08 61.0714 1662.53 67.4314 Q1656.98 73.7508 1647.26 73.7508 Q1637.5 73.7508 1631.95 67.4314 Q1626.44 61.0714 1626.44 49.9314 Q1626.44 38.7509 1631.95 32.4315 Q1637.5 26.1121 1647.26 26.1121 Z" fill="#000000" fill-rule="evenodd" fill-opacity="1" /><path clip-path="url(#clip170)" d="M1698.02 32.4315 Q1692.02 32.4315 1688.54 37.1306 Q1685.06 41.7891 1685.06 49.9314 Q1685.06 58.0738 1688.5 62.7728 Q1691.98 67.4314 1698.02 67.4314 Q1703.97 67.4314 1707.46 62.7323 Q1710.94 58.0333 1710.94 49.9314 Q1710.94 41.8701 1707.46 37.1711 Q1703.97 32.4315 1698.02 32.4315 M1698.02 26.1121 Q1707.74 26.1121 1713.29 32.4315 Q1718.84 38.7509 1718.84 49.9314 Q1718.84 61.0714 1713.29 67.4314 Q1707.74 73.7508 1698.02 73.7508 Q1688.26 73.7508 1682.71 67.4314 Q1677.2 61.0714 1677.2 49.9314 Q1677.2 38.7509 1682.71 32.4315 Q1688.26 26.1121 1698.02 26.1121 Z" fill="#000000" fill-rule="evenodd" fill-opacity="1" /><path clip-path="url(#clip170)" d="M1738.57 14.324 L1738.57 27.2059 L1753.92 27.2059 L1753.92 32.9987 L1738.57 32.9987 L1738.57 57.6282 Q1738.57 63.1779 1740.07 64.7578 Q1741.61 66.3376 1746.27 66.3376 L1753.92 66.3376 L1753.92 72.576 L1746.27 72.576 Q1737.64 72.576 1734.36 69.3758 Q1731.08 66.1351 1731.08 57.6282 L1731.08 32.9987 L1725.61 32.9987 L1725.61 27.2059 L1731.08 27.2059 L1731.08 14.324 L1738.57 14.324 Z" fill="#000000" fill-rule="evenodd" fill-opacity="1" /><path clip-path="url(#clip170)" d="M1801.44 45.1919 L1801.44 72.576 L1793.99 72.576 L1793.99 45.4349 Q1793.99 38.994 1791.47 35.7938 Q1788.96 32.5936 1783.94 32.5936 Q1777.9 32.5936 1774.42 36.4419 Q1770.94 40.2903 1770.94 46.9338 L1770.94 72.576 L1763.44 72.576 L1763.44 9.54393 L1770.94 9.54393 L1770.94 34.2544 Q1773.61 30.163 1777.21 28.1376 Q1780.86 26.1121 1785.6 26.1121 Q1793.42 26.1121 1797.43 30.9732 Q1801.44 35.7938 1801.44 45.1919 Z" fill="#000000" fill-rule="evenodd" fill-opacity="1" /><path clip-path="url(#clip170)" d="M1850.05 14.324 L1850.05 27.2059 L1865.4 27.2059 L1865.4 32.9987 L1850.05 32.9987 L1850.05 57.6282 Q1850.05 63.1779 1851.55 64.7578 Q1853.09 66.3376 1857.75 66.3376 L1865.4 66.3376 L1865.4 72.576 L1857.75 72.576 Q1849.12 72.576 1845.84 69.3758 Q1842.56 66.1351 1842.56 57.6282 L1842.56 32.9987 L1837.09 32.9987 L1837.09 27.2059 L1842.56 27.2059 L1842.56 14.324 L1850.05 14.324 Z" fill="#000000" fill-rule="evenodd" fill-opacity="1" /><path clip-path="url(#clip170)" d="M1874.44 54.671 L1874.44 27.2059 L1881.89 27.2059 L1881.89 54.3874 Q1881.89 60.8284 1884.4 64.0691 Q1886.91 67.2693 1891.94 67.2693 Q1897.97 67.2693 1901.46 63.421 Q1904.98 59.5726 1904.98 52.9291 L1904.98 27.2059 L1912.43 27.2059 L1912.43 72.576 L1904.98 72.576 L1904.98 65.6084 Q1902.27 69.7404 1898.66 71.7658 Q1895.1 73.7508 1890.36 73.7508 Q1882.54 73.7508 1878.49 68.8897 Q1874.44 64.0286 1874.44 54.671 M1893.19 26.1121 L1893.19 26.1121 Z" fill="#000000" fill-rule="evenodd" fill-opacity="1" /><path clip-path="url(#clip170)" d="M1960.36 49.9314 Q1960.36 41.7081 1956.95 37.0496 Q1953.59 32.3505 1947.68 32.3505 Q1941.76 32.3505 1938.36 37.0496 Q1935 41.7081 1935 49.9314 Q1935 58.1548 1938.36 62.8538 Q1941.76 67.5124 1947.68 67.5124 Q1953.59 67.5124 1956.95 62.8538 Q1960.36 58.1548 1960.36 49.9314 M1935 34.0924 Q1937.35 30.0415 1940.91 28.0971 Q1944.52 26.1121 1949.5 26.1121 Q1957.76 26.1121 1962.91 32.6746 Q1968.09 39.2371 1968.09 49.9314 Q1968.09 60.6258 1962.91 67.1883 Q1957.76 73.7508 1949.5 73.7508 Q1944.52 73.7508 1940.91 71.8063 Q1937.35 69.8214 1935 65.7705 L1935 72.576 L1927.5 72.576 L1927.5 9.54393 L1935 9.54393 L1935 34.0924 Z" fill="#000000" fill-rule="evenodd" fill-opacity="1" /><path clip-path="url(#clip170)" d="M1980.45 27.2059 L1987.9 27.2059 L1987.9 72.576 L1980.45 72.576 L1980.45 27.2059 M1980.45 9.54393 L1987.9 9.54393 L1987.9 18.9825 L1980.45 18.9825 L1980.45 9.54393 Z" fill="#000000" fill-rule="evenodd" fill-opacity="1" /><path clip-path="url(#clip170)" d="M2041.21 45.1919 L2041.21 72.576 L2033.76 72.576 L2033.76 45.4349 Q2033.76 38.994 2031.25 35.7938 Q2028.74 32.5936 2023.71 32.5936 Q2017.68 32.5936 2014.19 36.4419 Q2010.71 40.2903 2010.71 46.9338 L2010.71 72.576 L2003.21 72.576 L2003.21 27.2059 L2010.71 27.2059 L2010.71 34.2544 Q2013.38 30.163 2016.99 28.1376 Q2020.63 26.1121 2025.37 26.1121 Q2033.19 26.1121 2037.2 30.9732 Q2041.21 35.7938 2041.21 45.1919 Z" fill="#000000" fill-rule="evenodd" fill-opacity="1" /><path clip-path="url(#clip170)" d="M2085.93 49.3643 Q2085.93 41.2625 2082.57 36.8065 Q2079.25 32.3505 2073.21 32.3505 Q2067.22 32.3505 2063.86 36.8065 Q2060.54 41.2625 2060.54 49.3643 Q2060.54 57.4256 2063.86 61.8816 Q2067.22 66.3376 2073.21 66.3376 Q2079.25 66.3376 2082.57 61.8816 Q2085.93 57.4256 2085.93 49.3643 M2093.39 66.9452 Q2093.39 78.5308 2088.24 84.1616 Q2083.1 89.8329 2072.49 89.8329 Q2068.56 89.8329 2065.07 89.2252 Q2061.59 88.6581 2058.31 87.4428 L2058.31 80.1917 Q2061.59 81.9741 2064.79 82.8248 Q2067.99 83.6755 2071.31 83.6755 Q2078.64 83.6755 2082.29 79.8271 Q2085.93 76.0193 2085.93 68.282 L2085.93 64.5957 Q2083.63 68.6061 2080.02 70.5911 Q2076.41 72.576 2071.39 72.576 Q2063.05 72.576 2057.94 66.2161 Q2052.84 59.8562 2052.84 49.3643 Q2052.84 38.832 2057.94 32.472 Q2063.05 26.1121 2071.39 26.1121 Q2076.41 26.1121 2080.02 28.0971 Q2083.63 30.082 2085.93 34.0924 L2085.93 27.2059 L2093.39 27.2059 L2093.39 66.9452 Z" fill="#000000" fill-rule="evenodd" fill-opacity="1" /><polyline clip-path="url(#clip172)" style="stroke:#000000; stroke-linecap:butt; stroke-linejoin:round; stroke-width:4; stroke-opacity:1; fill:none" points="
  310.845,159.909 314.307,166.277 317.686,172.496 320.988,178.572 324.216,184.51 327.373,190.319 330.461,196.002 333.485,201.565 336.446,207.014 349.394,230.838 
  361.27,252.689 372.237,272.87 382.426,291.616 391.939,309.12 400.86,325.535 409.259,340.988 417.193,355.588 431.855,382.567 445.158,407.043 457.331,429.441 
  468.551,450.087 480.97,472.938 492.4,493.968 502.986,513.446 512.844,531.585 528.112,559.678 541.911,585.068 567.976,633.028 588.422,670.647 607.522,705.791 
  626.876,741.402 642.126,769.463 654.283,791.831 666.46,814.237 677.748,835.007 689.274,856.215 699.443,874.927 709.304,893.071 717.11,907.434 726.098,923.972 
  734.063,938.626 745.967,960.531 747.715,963.746 
  "/>
<polyline clip-path="url(#clip172)" style="stroke:#000000; stroke-linecap:butt; stroke-linejoin:round; stroke-width:4; stroke-opacity:1; fill:none" points="
  747.715,963.746 748.977,840.846 760.151,847.416 766.47,851.102 771.604,854.08 776.98,857.184 781.764,859.933 786.722,862.769 792.26,865.922 797.008,868.613 
  801.046,870.892 805.323,873.297 809.501,875.637 813.982,878.138 818.12,880.438 822.3,882.752 825.726,884.643 829.801,886.885 833.529,888.929 839.307,892.083 
  840.176,892.556 
  "/>
<polyline clip-path="url(#clip172)" style="stroke:#000000; stroke-linecap:butt; stroke-linejoin:round; stroke-width:4; stroke-opacity:1; fill:none" points="
  840.176,892.556 993.316,970.695 1065.7,1004.4 1113.59,1025.71 1149.43,1041.17 1178.08,1053.25 1201.96,1063.13 1222.42,1071.47 1240.32,1078.67 1270.57,1090.64 
  1295.53,1100.34 1316.79,1108.47 1335.3,1115.46 1366.41,1127.02 1391.96,1136.34 1413.64,1144.13 1432.47,1150.82 1464.03,1161.84 1489.88,1170.72 1511.78,1178.12 
  1530.77,1184.47 1562.56,1194.93 1588.57,1203.34 1610.57,1210.35 1629.65,1216.35 1694.88,1236.36 1739.56,1249.6 1773.58,1259.44 1801.07,1267.22 1843.98,1279.08 
  1876.97,1287.94 1926.35,1300.79 1963.02,1309.98 1997.44,1318.3 2025.17,1324.8 2045.06,1329.32 2062.51,1333.2 2094.41,1340.04 2118.61,1345.02 2140.69,1349.39 
  2162.64,1353.57 2179.68,1356.68 2193.12,1359.06 2206.46,1361.35 2218.74,1363.39 2231.19,1365.4 2242.12,1367.11 2252.66,1368.72 2260.96,1369.95 2270.5,1371.33 
  2278.91,1372.51 2291.45,1374.22 2293.28,1374.46 
  "/>
<polyline clip-path="url(#clip172)" style="stroke:#0000ff; stroke-linecap:butt; stroke-linejoin:round; stroke-width:4; stroke-opacity:1; fill:none" points="
  310.845,512.666 317.686,519.107 324.216,525.212 330.461,531.011 336.446,536.531 349.394,548.351 361.27,559.043 372.237,568.79 382.426,577.737 400.86,593.662 
  417.193,607.492 431.855,619.689 445.158,630.578 457.331,640.398 468.551,649.33 480.97,659.085 492.4,667.942 502.986,676.045 512.844,683.506 528.112,694.901 
  541.911,705.036 567.976,723.771 588.422,738.105 607.522,751.219 626.876,764.245 642.126,774.327 654.283,782.253 666.46,790.096 677.748,797.282 689.274,804.537 
  699.443,810.87 709.304,816.952 717.11,821.725 726.098,827.177 734.063,831.969 745.967,839.065 747.715,840.1 
  "/>
<polyline clip-path="url(#clip172)" style="stroke:#0000ff; stroke-linecap:butt; stroke-linejoin:round; stroke-width:4; stroke-opacity:1; fill:none" points="
  747.715,840.1 748.977,840.847 760.151,847.417 766.47,851.102 771.604,854.08 776.98,857.184 781.764,859.933 786.722,862.769 792.26,865.922 797.008,868.613 
  801.046,870.892 805.323,873.297 809.501,875.637 813.982,878.138 818.12,880.438 822.3,882.753 825.726,884.644 829.801,886.885 833.529,888.929 839.307,892.083 
  840.176,892.556 
  "/>
<polyline clip-path="url(#clip172)" style="stroke:#0000ff; stroke-linecap:butt; stroke-linejoin:round; stroke-width:4; stroke-opacity:1; fill:none" points="
  840.176,892.556 993.316,970.699 1065.7,1004.41 1113.59,1025.72 1149.43,1041.18 1178.08,1053.26 1201.96,1063.14 1222.42,1071.48 1240.32,1078.68 1270.57,1090.65 
  1295.53,1100.34 1316.79,1108.48 1335.3,1115.47 1366.41,1127.02 1391.96,1136.35 1413.64,1144.14 1432.47,1150.82 1464.03,1161.85 1489.88,1170.72 1511.78,1178.13 
  1530.77,1184.48 1562.56,1194.94 1588.57,1203.34 1610.57,1210.36 1629.65,1216.36 1694.88,1236.37 1739.56,1249.61 1773.58,1259.44 1801.07,1267.22 1843.98,1279.08 
  1876.97,1287.95 1926.35,1300.79 1963.02,1309.98 1997.44,1318.31 2025.17,1324.8 2045.06,1329.32 2062.51,1333.2 2094.41,1340.05 2118.61,1345.03 2140.69,1349.4 
  2162.64,1353.57 2179.68,1356.68 2193.12,1359.06 2206.46,1361.35 2218.74,1363.39 2231.19,1365.4 2242.12,1367.12 2252.66,1368.72 2260.96,1369.95 2270.5,1371.33 
  2278.91,1372.51 2291.45,1374.22 2293.28,1374.46 
  "/>
<polyline clip-path="url(#clip172)" style="stroke:#ff0000; stroke-linecap:butt; stroke-linejoin:round; stroke-width:4; stroke-opacity:1; fill:none" points="
  310.845,159.909 314.307,166.277 317.686,172.496 320.988,178.572 324.216,184.51 327.373,190.319 330.461,196.002 333.485,201.565 336.446,207.014 349.394,230.838 
  361.27,252.689 372.237,272.87 382.426,291.616 391.939,309.12 400.86,325.535 409.259,340.988 417.193,355.588 431.855,382.567 445.158,407.043 457.331,429.441 
  468.551,450.087 480.97,472.938 492.4,493.968 502.986,513.446 512.844,531.585 528.112,559.678 541.911,585.068 567.976,633.028 588.422,670.647 607.522,705.791 
  626.876,741.402 642.126,769.463 654.283,791.831 666.46,814.237 677.748,835.007 689.274,856.215 699.443,874.927 709.304,893.071 717.11,907.433 726.098,923.962 
  734.063,938.559 745.967,959.228 747.715,961.76 
  "/>
<polyline clip-path="url(#clip172)" style="stroke:#ff0000; stroke-linecap:butt; stroke-linejoin:round; stroke-width:4; stroke-opacity:1; fill:none" points="
  747.715,961.76 748.031,962.187 748.347,962.601 748.663,963.002 748.977,963.389 750.422,964.977 751.853,966.176 753.27,966.907 754.673,967.095 756.062,966.687 
  757.438,965.655 758.801,964.011 760.151,961.801 761.757,958.498 763.346,954.633 764.916,950.359 766.47,945.811 769.06,937.799 771.604,929.706 776.98,912.934 
  781.764,899.426 784.265,893.222 786.722,887.838 789.518,882.673 792.26,878.651 794.654,875.979 797.008,874.068 799.042,872.938 801.046,872.239 803.201,871.884 
  805.323,871.871 807.427,872.129 809.501,872.595 813.982,874.131 818.12,875.975 822.3,878.082 825.726,879.917 829.801,882.175 833.529,884.28 839.307,887.579 
  840.176,888.076 
  "/>
<polyline clip-path="url(#clip172)" style="stroke:#ff0000; stroke-linecap:butt; stroke-linejoin:round; stroke-width:4; stroke-opacity:1; fill:none" points="
  840.176,888.076 993.316,970.071 1065.7,1004.81 1113.59,1026.6 1149.43,1042.34 1178.08,1054.59 1201.96,1064.58 1222.42,1073 1240.32,1080.25 1270.57,1092.29 
  1295.53,1102.01 1316.79,1110.16 1335.3,1117.14 1366.41,1128.68 1391.96,1137.96 1413.64,1145.71 1432.47,1152.35 1464.03,1163.29 1489.88,1172.07 1511.78,1179.39 
  1530.77,1185.66 1562.56,1195.98 1588.57,1204.26 1610.57,1211.15 1629.65,1217.05 1694.88,1236.68 1739.56,1249.64 1773.58,1259.25 1801.07,1266.84 1843.98,1278.4 
  1876.97,1287.03 1926.35,1299.52 1963.02,1308.44 1997.44,1316.53 2025.17,1322.83 2045.06,1327.22 2062.51,1330.99 2094.41,1337.64 2118.61,1342.49 2140.69,1346.75 
  2162.64,1350.82 2179.68,1353.87 2193.12,1356.2 2206.46,1358.45 2218.74,1360.46 2231.19,1362.45 2242.12,1364.14 2252.66,1365.73 2260.96,1366.95 2270.5,1368.33 
  2278.91,1369.51 2291.45,1371.22 2293.28,1371.46 
  "/>
<path clip-path="url(#clip170)" d="
M1567.14 373.746 L2282.71 373.746 L2282.71 166.386 L1567.14 166.386  Z
  " fill="#ffffff" fill-rule="evenodd" fill-opacity="1"/>
<polyline clip-path="url(#clip170)" style="stroke:#000000; stroke-linecap:butt; stroke-linejoin:round; stroke-width:4; stroke-opacity:1; fill:none" points="
  1567.14,373.746 2282.71,373.746 2282.71,166.386 1567.14,166.386 1567.14,373.746 
  "/>
<polyline clip-path="url(#clip170)" style="stroke:#000000; stroke-linecap:butt; stroke-linejoin:round; stroke-width:4; stroke-opacity:1; fill:none" points="
  1590.49,218.226 1730.58,218.226 
  "/>
<path clip-path="url(#clip170)" d="M1758.61 204.789 L1758.61 231.664 L1764.26 231.664 Q1771.41 231.664 1774.72 228.423 Q1778.05 225.182 1778.05 218.192 Q1778.05 211.247 1774.72 208.03 Q1771.41 204.789 1764.26 204.789 L1758.61 204.789 M1753.93 200.946 L1763.54 200.946 Q1773.58 200.946 1778.28 205.136 Q1782.98 209.303 1782.98 218.192 Q1782.98 227.127 1778.26 231.316 Q1773.54 235.506 1763.54 235.506 L1753.93 235.506 L1753.93 200.946 Z" fill="#000000" fill-rule="evenodd" fill-opacity="1" /><path clip-path="url(#clip170)" d="M1802.03 222.474 Q1796.87 222.474 1794.88 223.654 Q1792.89 224.835 1792.89 227.682 Q1792.89 229.951 1794.37 231.293 Q1795.88 232.613 1798.45 232.613 Q1801.99 232.613 1804.12 230.113 Q1806.27 227.59 1806.27 223.423 L1806.27 222.474 L1802.03 222.474 M1810.53 220.715 L1810.53 235.506 L1806.27 235.506 L1806.27 231.571 Q1804.81 233.932 1802.64 235.066 Q1800.46 236.178 1797.31 236.178 Q1793.33 236.178 1790.97 233.955 Q1788.63 231.71 1788.63 227.96 Q1788.63 223.585 1791.55 221.363 Q1794.49 219.141 1800.3 219.141 L1806.27 219.141 L1806.27 218.724 Q1806.27 215.784 1804.32 214.187 Q1802.4 212.567 1798.91 212.567 Q1796.69 212.567 1794.58 213.099 Q1792.47 213.631 1790.53 214.696 L1790.53 210.761 Q1792.87 209.858 1795.07 209.418 Q1797.26 208.955 1799.35 208.955 Q1804.97 208.955 1807.75 211.872 Q1810.53 214.789 1810.53 220.715 Z" fill="#000000" fill-rule="evenodd" fill-opacity="1" /><path clip-path="url(#clip170)" d="M1834.32 213.562 Q1833.61 213.145 1832.75 212.96 Q1831.92 212.752 1830.9 212.752 Q1827.29 212.752 1825.34 215.113 Q1823.42 217.451 1823.42 221.849 L1823.42 235.506 L1819.14 235.506 L1819.14 209.58 L1823.42 209.58 L1823.42 213.608 Q1824.76 211.247 1826.92 210.113 Q1829.07 208.955 1832.15 208.955 Q1832.59 208.955 1833.12 209.025 Q1833.65 209.071 1834.3 209.187 L1834.32 213.562 Z" fill="#000000" fill-rule="evenodd" fill-opacity="1" /><path clip-path="url(#clip170)" d="M1856.41 210.576 L1856.41 214.557 Q1854.6 213.562 1852.77 213.076 Q1850.97 212.567 1849.12 212.567 Q1844.97 212.567 1842.68 215.205 Q1840.39 217.821 1840.39 222.567 Q1840.39 227.312 1842.68 229.951 Q1844.97 232.566 1849.12 232.566 Q1850.97 232.566 1852.77 232.08 Q1854.6 231.571 1856.41 230.576 L1856.41 234.511 Q1854.63 235.344 1852.7 235.761 Q1850.81 236.178 1848.65 236.178 Q1842.8 236.178 1839.35 232.497 Q1835.9 228.816 1835.9 222.567 Q1835.9 216.224 1839.37 212.59 Q1842.87 208.955 1848.93 208.955 Q1850.9 208.955 1852.77 209.372 Q1854.65 209.766 1856.41 210.576 Z" fill="#000000" fill-rule="evenodd" fill-opacity="1" /><path clip-path="url(#clip170)" d="M1874.6 237.914 Q1872.8 242.543 1871.08 243.955 Q1869.37 245.367 1866.5 245.367 L1863.1 245.367 L1863.1 241.803 L1865.6 241.803 Q1867.36 241.803 1868.33 240.969 Q1869.3 240.136 1870.48 237.034 L1871.25 235.09 L1860.76 209.58 L1865.27 209.58 L1873.38 229.858 L1881.48 209.58 L1885.99 209.58 L1874.6 237.914 Z" fill="#000000" fill-rule="evenodd" fill-opacity="1" /><path clip-path="url(#clip170)" d="M1907.13 200.946 L1926.99 200.946 L1926.99 204.881 L1911.8 204.881 L1911.8 215.067 L1925.5 215.067 L1925.5 219.002 L1911.8 219.002 L1911.8 235.506 L1907.13 235.506 L1907.13 200.946 Z" fill="#000000" fill-rule="evenodd" fill-opacity="1" /><path clip-path="url(#clip170)" d="M1945.78 213.562 Q1945.06 213.145 1944.21 212.96 Q1943.38 212.752 1942.36 212.752 Q1938.75 212.752 1936.8 215.113 Q1934.88 217.451 1934.88 221.849 L1934.88 235.506 L1930.6 235.506 L1930.6 209.58 L1934.88 209.58 L1934.88 213.608 Q1936.22 211.247 1938.38 210.113 Q1940.53 208.955 1943.61 208.955 Q1944.05 208.955 1944.58 209.025 Q1945.11 209.071 1945.76 209.187 L1945.78 213.562 Z" fill="#000000" fill-rule="evenodd" fill-opacity="1" /><path clip-path="url(#clip170)" d="M1950.25 209.58 L1954.51 209.58 L1954.51 235.506 L1950.25 235.506 L1950.25 209.58 M1950.25 199.488 L1954.51 199.488 L1954.51 204.881 L1950.25 204.881 L1950.25 199.488 Z" fill="#000000" fill-rule="evenodd" fill-opacity="1" /><path clip-path="url(#clip170)" d="M1982.08 210.576 L1982.08 214.557 Q1980.27 213.562 1978.44 213.076 Q1976.64 212.567 1974.79 212.567 Q1970.64 212.567 1968.35 215.205 Q1966.06 217.821 1966.06 222.567 Q1966.06 227.312 1968.35 229.951 Q1970.64 232.566 1974.79 232.566 Q1976.64 232.566 1978.44 232.08 Q1980.27 231.571 1982.08 230.576 L1982.08 234.511 Q1980.3 235.344 1978.37 235.761 Q1976.48 236.178 1974.32 236.178 Q1968.47 236.178 1965.02 232.497 Q1961.57 228.816 1961.57 222.567 Q1961.57 216.224 1965.04 212.59 Q1968.54 208.955 1974.6 208.955 Q1976.57 208.955 1978.44 209.372 Q1980.32 209.766 1982.08 210.576 Z" fill="#000000" fill-rule="evenodd" fill-opacity="1" /><path clip-path="url(#clip170)" d="M1993.7 202.219 L1993.7 209.58 L2002.47 209.58 L2002.47 212.891 L1993.7 212.891 L1993.7 226.965 Q1993.7 230.136 1994.56 231.039 Q1995.43 231.941 1998.1 231.941 L2002.47 231.941 L2002.47 235.506 L1998.1 235.506 Q1993.17 235.506 1991.29 233.678 Q1989.42 231.826 1989.42 226.965 L1989.42 212.891 L1986.29 212.891 L1986.29 209.58 L1989.42 209.58 L1989.42 202.219 L1993.7 202.219 Z" fill="#000000" fill-rule="evenodd" fill-opacity="1" /><path clip-path="url(#clip170)" d="M2008.07 209.58 L2012.33 209.58 L2012.33 235.506 L2008.07 235.506 L2008.07 209.58 M2008.07 199.488 L2012.33 199.488 L2012.33 204.881 L2008.07 204.881 L2008.07 199.488 Z" fill="#000000" fill-rule="evenodd" fill-opacity="1" /><path clip-path="url(#clip170)" d="M2031.29 212.567 Q2027.87 212.567 2025.87 215.252 Q2023.88 217.914 2023.88 222.567 Q2023.88 227.219 2025.85 229.904 Q2027.84 232.566 2031.29 232.566 Q2034.69 232.566 2036.68 229.881 Q2038.68 227.196 2038.68 222.567 Q2038.68 217.96 2036.68 215.275 Q2034.69 212.567 2031.29 212.567 M2031.29 208.955 Q2036.85 208.955 2040.02 212.567 Q2043.19 216.178 2043.19 222.567 Q2043.19 228.932 2040.02 232.566 Q2036.85 236.178 2031.29 236.178 Q2025.71 236.178 2022.54 232.566 Q2019.39 228.932 2019.39 222.567 Q2019.39 216.178 2022.54 212.567 Q2025.71 208.955 2031.29 208.955 Z" fill="#000000" fill-rule="evenodd" fill-opacity="1" /><path clip-path="url(#clip170)" d="M2071.8 219.858 L2071.8 235.506 L2067.54 235.506 L2067.54 219.997 Q2067.54 216.317 2066.11 214.488 Q2064.67 212.659 2061.8 212.659 Q2058.35 212.659 2056.36 214.858 Q2054.37 217.057 2054.37 220.854 L2054.37 235.506 L2050.09 235.506 L2050.09 209.58 L2054.37 209.58 L2054.37 213.608 Q2055.9 211.27 2057.96 210.113 Q2060.04 208.955 2062.75 208.955 Q2067.22 208.955 2069.51 211.733 Q2071.8 214.488 2071.8 219.858 Z" fill="#000000" fill-rule="evenodd" fill-opacity="1" /><path clip-path="url(#clip170)" d="M2095.55 200.946 L2115.41 200.946 L2115.41 204.881 L2100.23 204.881 L2100.23 215.067 L2113.93 215.067 L2113.93 219.002 L2100.23 219.002 L2100.23 235.506 L2095.55 235.506 L2095.55 200.946 Z" fill="#000000" fill-rule="evenodd" fill-opacity="1" /><path clip-path="url(#clip170)" d="M2130.06 222.474 Q2124.9 222.474 2122.91 223.654 Q2120.92 224.835 2120.92 227.682 Q2120.92 229.951 2122.4 231.293 Q2123.91 232.613 2126.48 232.613 Q2130.02 232.613 2132.15 230.113 Q2134.3 227.59 2134.3 223.423 L2134.3 222.474 L2130.06 222.474 M2138.56 220.715 L2138.56 235.506 L2134.3 235.506 L2134.3 231.571 Q2132.84 233.932 2130.67 235.066 Q2128.49 236.178 2125.34 236.178 Q2121.36 236.178 2119 233.955 Q2116.66 231.71 2116.66 227.96 Q2116.66 223.585 2119.58 221.363 Q2122.52 219.141 2128.33 219.141 L2134.3 219.141 L2134.3 218.724 Q2134.3 215.784 2132.36 214.187 Q2130.43 212.567 2126.94 212.567 Q2124.72 212.567 2122.61 213.099 Q2120.5 213.631 2118.56 214.696 L2118.56 210.761 Q2120.9 209.858 2123.1 209.418 Q2125.3 208.955 2127.38 208.955 Q2133 208.955 2135.78 211.872 Q2138.56 214.789 2138.56 220.715 Z" fill="#000000" fill-rule="evenodd" fill-opacity="1" /><path clip-path="url(#clip170)" d="M2165.99 210.576 L2165.99 214.557 Q2164.18 213.562 2162.36 213.076 Q2160.55 212.567 2158.7 212.567 Q2154.55 212.567 2152.26 215.205 Q2149.97 217.821 2149.97 222.567 Q2149.97 227.312 2152.26 229.951 Q2154.55 232.566 2158.7 232.566 Q2160.55 232.566 2162.36 232.08 Q2164.18 231.571 2165.99 230.576 L2165.99 234.511 Q2164.21 235.344 2162.29 235.761 Q2160.39 236.178 2158.24 236.178 Q2152.38 236.178 2148.93 232.497 Q2145.48 228.816 2145.48 222.567 Q2145.48 216.224 2148.95 212.59 Q2152.45 208.955 2158.51 208.955 Q2160.48 208.955 2162.36 209.372 Q2164.23 209.766 2165.99 210.576 Z" fill="#000000" fill-rule="evenodd" fill-opacity="1" /><path clip-path="url(#clip170)" d="M2177.61 202.219 L2177.61 209.58 L2186.38 209.58 L2186.38 212.891 L2177.61 212.891 L2177.61 226.965 Q2177.61 230.136 2178.47 231.039 Q2179.35 231.941 2182.01 231.941 L2186.38 231.941 L2186.38 235.506 L2182.01 235.506 Q2177.08 235.506 2175.2 233.678 Q2173.33 231.826 2173.33 226.965 L2173.33 212.891 L2170.2 212.891 L2170.2 209.58 L2173.33 209.58 L2173.33 202.219 L2177.61 202.219 Z" fill="#000000" fill-rule="evenodd" fill-opacity="1" /><path clip-path="url(#clip170)" d="M2202.03 212.567 Q2198.61 212.567 2196.61 215.252 Q2194.62 217.914 2194.62 222.567 Q2194.62 227.219 2196.59 229.904 Q2198.58 232.566 2202.03 232.566 Q2205.43 232.566 2207.42 229.881 Q2209.42 227.196 2209.42 222.567 Q2209.42 217.96 2207.42 215.275 Q2205.43 212.567 2202.03 212.567 M2202.03 208.955 Q2207.59 208.955 2210.76 212.567 Q2213.93 216.178 2213.93 222.567 Q2213.93 228.932 2210.76 232.566 Q2207.59 236.178 2202.03 236.178 Q2196.45 236.178 2193.28 232.566 Q2190.13 228.932 2190.13 222.567 Q2190.13 216.178 2193.28 212.567 Q2196.45 208.955 2202.03 208.955 Z" fill="#000000" fill-rule="evenodd" fill-opacity="1" /><path clip-path="url(#clip170)" d="M2236.01 213.562 Q2235.29 213.145 2234.44 212.96 Q2233.6 212.752 2232.59 212.752 Q2228.98 212.752 2227.03 215.113 Q2225.11 217.451 2225.11 221.849 L2225.11 235.506 L2220.83 235.506 L2220.83 209.58 L2225.11 209.58 L2225.11 213.608 Q2226.45 211.247 2228.6 210.113 Q2230.76 208.955 2233.84 208.955 Q2234.28 208.955 2234.81 209.025 Q2235.34 209.071 2235.99 209.187 L2236.01 213.562 Z" fill="#000000" fill-rule="evenodd" fill-opacity="1" /><polyline clip-path="url(#clip170)" style="stroke:#0000ff; stroke-linecap:butt; stroke-linejoin:round; stroke-width:4; stroke-opacity:1; fill:none" points="
  1590.49,270.066 1730.58,270.066 
  "/>
<path clip-path="url(#clip170)" d="M1776.18 253.921 L1776.18 258.481 Q1773.51 257.208 1771.15 256.583 Q1768.79 255.958 1766.59 255.958 Q1762.77 255.958 1760.69 257.439 Q1758.63 258.921 1758.63 261.652 Q1758.63 263.944 1760 265.124 Q1761.39 266.282 1765.23 266.999 L1768.05 267.578 Q1773.28 268.573 1775.76 271.096 Q1778.26 273.596 1778.26 277.809 Q1778.26 282.832 1774.88 285.425 Q1771.52 288.018 1765.02 288.018 Q1762.57 288.018 1759.79 287.462 Q1757.03 286.906 1754.07 285.819 L1754.07 281.004 Q1756.92 282.601 1759.65 283.411 Q1762.38 284.221 1765.02 284.221 Q1769.02 284.221 1771.2 282.647 Q1773.38 281.073 1773.38 278.157 Q1773.38 275.61 1771.8 274.175 Q1770.25 272.74 1766.69 272.022 L1763.84 271.467 Q1758.61 270.425 1756.27 268.203 Q1753.93 265.981 1753.93 262.022 Q1753.93 257.439 1757.15 254.8 Q1760.39 252.161 1766.06 252.161 Q1768.49 252.161 1771.01 252.601 Q1773.54 253.041 1776.18 253.921 Z" fill="#000000" fill-rule="evenodd" fill-opacity="1" /><path clip-path="url(#clip170)" d="M1807.54 273.319 L1807.54 275.402 L1787.96 275.402 Q1788.24 279.8 1790.6 282.115 Q1792.98 284.406 1797.22 284.406 Q1799.67 284.406 1801.96 283.805 Q1804.28 283.203 1806.55 281.999 L1806.55 286.027 Q1804.26 286.999 1801.85 287.508 Q1799.44 288.018 1796.96 288.018 Q1790.76 288.018 1787.13 284.406 Q1783.51 280.795 1783.51 274.638 Q1783.51 268.272 1786.94 264.545 Q1790.39 260.795 1796.22 260.795 Q1801.45 260.795 1804.49 264.175 Q1807.54 267.532 1807.54 273.319 M1803.28 272.069 Q1803.24 268.573 1801.32 266.49 Q1799.42 264.407 1796.27 264.407 Q1792.7 264.407 1790.55 266.42 Q1788.42 268.434 1788.1 272.092 L1803.28 272.069 Z" fill="#000000" fill-rule="evenodd" fill-opacity="1" /><path clip-path="url(#clip170)" d="M1829.56 265.402 Q1828.84 264.985 1827.98 264.8 Q1827.15 264.592 1826.13 264.592 Q1822.52 264.592 1820.57 266.953 Q1818.65 269.291 1818.65 273.689 L1818.65 287.346 L1814.37 287.346 L1814.37 261.42 L1818.65 261.42 L1818.65 265.448 Q1820 263.087 1822.15 261.953 Q1824.3 260.795 1827.38 260.795 Q1827.82 260.795 1828.35 260.865 Q1828.88 260.911 1829.53 261.027 L1829.56 265.402 Z" fill="#000000" fill-rule="evenodd" fill-opacity="1" /><path clip-path="url(#clip170)" d="M1850.25 274.082 Q1850.25 269.453 1848.33 266.907 Q1846.43 264.36 1842.98 264.36 Q1839.56 264.36 1837.63 266.907 Q1835.74 269.453 1835.74 274.082 Q1835.74 278.689 1837.63 281.235 Q1839.56 283.781 1842.98 283.781 Q1846.43 283.781 1848.33 281.235 Q1850.25 278.689 1850.25 274.082 M1854.51 284.129 Q1854.51 290.749 1851.57 293.967 Q1848.63 297.207 1842.57 297.207 Q1840.32 297.207 1838.33 296.86 Q1836.34 296.536 1834.46 295.842 L1834.46 291.698 Q1836.34 292.717 1838.17 293.203 Q1840 293.689 1841.89 293.689 Q1846.08 293.689 1848.17 291.49 Q1850.25 289.314 1850.25 284.893 L1850.25 282.786 Q1848.93 285.078 1846.87 286.212 Q1844.81 287.346 1841.94 287.346 Q1837.17 287.346 1834.26 283.712 Q1831.34 280.078 1831.34 274.082 Q1831.34 268.064 1834.26 264.43 Q1837.17 260.795 1841.94 260.795 Q1844.81 260.795 1846.87 261.93 Q1848.93 263.064 1850.25 265.356 L1850.25 261.42 L1854.51 261.42 L1854.51 284.129 Z" fill="#000000" fill-rule="evenodd" fill-opacity="1" /><path clip-path="url(#clip170)" d="M1884.83 271.698 L1884.83 287.346 L1880.57 287.346 L1880.57 271.837 Q1880.57 268.157 1879.14 266.328 Q1877.7 264.499 1874.83 264.499 Q1871.38 264.499 1869.39 266.698 Q1867.4 268.897 1867.4 272.694 L1867.4 287.346 L1863.12 287.346 L1863.12 251.328 L1867.4 251.328 L1867.4 265.448 Q1868.93 263.11 1870.99 261.953 Q1873.07 260.795 1875.78 260.795 Q1880.25 260.795 1882.54 263.573 Q1884.83 266.328 1884.83 271.698 Z" fill="#000000" fill-rule="evenodd" fill-opacity="1" /><path clip-path="url(#clip170)" d="M1893.33 261.42 L1897.59 261.42 L1897.59 287.346 L1893.33 287.346 L1893.33 261.42 M1893.33 251.328 L1897.59 251.328 L1897.59 256.721 L1893.33 256.721 L1893.33 251.328 Z" fill="#000000" fill-rule="evenodd" fill-opacity="1" /><path clip-path="url(#clip170)" d="M1923.56 265.356 L1923.56 251.328 L1927.82 251.328 L1927.82 287.346 L1923.56 287.346 L1923.56 283.457 Q1922.22 285.772 1920.16 286.906 Q1918.12 288.018 1915.25 288.018 Q1910.55 288.018 1907.59 284.268 Q1904.65 280.518 1904.65 274.407 Q1904.65 268.295 1907.59 264.545 Q1910.55 260.795 1915.25 260.795 Q1918.12 260.795 1920.16 261.93 Q1922.22 263.041 1923.56 265.356 M1909.05 274.407 Q1909.05 279.106 1910.97 281.791 Q1912.91 284.453 1916.29 284.453 Q1919.67 284.453 1921.62 281.791 Q1923.56 279.106 1923.56 274.407 Q1923.56 269.707 1921.62 267.045 Q1919.67 264.36 1916.29 264.36 Q1912.91 264.36 1910.97 267.045 Q1909.05 269.707 1909.05 274.407 Z" fill="#000000" fill-rule="evenodd" fill-opacity="1" /><path clip-path="url(#clip170)" d="M1958.77 273.319 L1958.77 275.402 L1939.19 275.402 Q1939.46 279.8 1941.82 282.115 Q1944.21 284.406 1948.44 284.406 Q1950.9 284.406 1953.19 283.805 Q1955.5 283.203 1957.77 281.999 L1957.77 286.027 Q1955.48 286.999 1953.07 287.508 Q1950.67 288.018 1948.19 288.018 Q1941.99 288.018 1938.35 284.406 Q1934.74 280.795 1934.74 274.638 Q1934.74 268.272 1938.17 264.545 Q1941.62 260.795 1947.45 260.795 Q1952.68 260.795 1955.71 264.175 Q1958.77 267.532 1958.77 273.319 M1954.51 272.069 Q1954.46 268.573 1952.54 266.49 Q1950.64 264.407 1947.5 264.407 Q1943.93 264.407 1941.78 266.42 Q1939.65 268.434 1939.32 272.092 L1954.51 272.069 Z" fill="#000000" fill-rule="evenodd" fill-opacity="1" /><path clip-path="url(#clip170)" d="M1999.49 262.416 L1999.49 266.397 Q1997.68 265.402 1995.85 264.916 Q1994.05 264.407 1992.19 264.407 Q1988.05 264.407 1985.76 267.045 Q1983.47 269.661 1983.47 274.407 Q1983.47 279.152 1985.76 281.791 Q1988.05 284.406 1992.19 284.406 Q1994.05 284.406 1995.85 283.92 Q1997.68 283.411 1999.49 282.416 L1999.49 286.351 Q1997.7 287.184 1995.78 287.601 Q1993.88 288.018 1991.73 288.018 Q1985.87 288.018 1982.43 284.337 Q1978.98 280.656 1978.98 274.407 Q1978.98 268.064 1982.45 264.43 Q1985.94 260.795 1992.01 260.795 Q1993.98 260.795 1995.85 261.212 Q1997.73 261.606 1999.49 262.416 Z" fill="#000000" fill-rule="evenodd" fill-opacity="1" /><path clip-path="url(#clip170)" d="M2016.94 264.407 Q2013.51 264.407 2011.52 267.092 Q2009.53 269.754 2009.53 274.407 Q2009.53 279.059 2011.5 281.744 Q2013.49 284.406 2016.94 284.406 Q2020.34 284.406 2022.33 281.721 Q2024.32 279.036 2024.32 274.407 Q2024.32 269.8 2022.33 267.115 Q2020.34 264.407 2016.94 264.407 M2016.94 260.795 Q2022.49 260.795 2025.67 264.407 Q2028.84 268.018 2028.84 274.407 Q2028.84 280.772 2025.67 284.406 Q2022.49 288.018 2016.94 288.018 Q2011.36 288.018 2008.19 284.406 Q2005.04 280.772 2005.04 274.407 Q2005.04 268.018 2008.19 264.407 Q2011.36 260.795 2016.94 260.795 Z" fill="#000000" fill-rule="evenodd" fill-opacity="1" /><path clip-path="url(#clip170)" d="M2050.92 265.402 Q2050.2 264.985 2049.35 264.8 Q2048.51 264.592 2047.49 264.592 Q2043.88 264.592 2041.94 266.953 Q2040.02 269.291 2040.02 273.689 L2040.02 287.346 L2035.74 287.346 L2035.74 261.42 L2040.02 261.42 L2040.02 265.448 Q2041.36 263.087 2043.51 261.953 Q2045.67 260.795 2048.74 260.795 Q2049.18 260.795 2049.72 260.865 Q2050.25 260.911 2050.9 261.027 L2050.92 265.402 Z" fill="#000000" fill-rule="evenodd" fill-opacity="1" /><path clip-path="url(#clip170)" d="M2069.58 265.402 Q2068.86 264.985 2068 264.8 Q2067.17 264.592 2066.15 264.592 Q2062.54 264.592 2060.6 266.953 Q2058.68 269.291 2058.68 273.689 L2058.68 287.346 L2054.39 287.346 L2054.39 261.42 L2058.68 261.42 L2058.68 265.448 Q2060.02 263.087 2062.17 261.953 Q2064.32 260.795 2067.4 260.795 Q2067.84 260.795 2068.37 260.865 Q2068.91 260.911 2069.55 261.027 L2069.58 265.402 Z" fill="#000000" fill-rule="evenodd" fill-opacity="1" /><path clip-path="url(#clip170)" d="M2095.18 273.319 L2095.18 275.402 L2075.6 275.402 Q2075.87 279.8 2078.24 282.115 Q2080.62 284.406 2084.86 284.406 Q2087.31 284.406 2089.6 283.805 Q2091.92 283.203 2094.18 281.999 L2094.18 286.027 Q2091.89 286.999 2089.49 287.508 Q2087.08 288.018 2084.6 288.018 Q2078.4 288.018 2074.76 284.406 Q2071.15 280.795 2071.15 274.638 Q2071.15 268.272 2074.58 264.545 Q2078.03 260.795 2083.86 260.795 Q2089.09 260.795 2092.12 264.175 Q2095.18 267.532 2095.18 273.319 M2090.92 272.069 Q2090.87 268.573 2088.95 266.49 Q2087.05 264.407 2083.91 264.407 Q2080.34 264.407 2078.19 266.42 Q2076.06 268.434 2075.74 272.092 L2090.92 272.069 Z" fill="#000000" fill-rule="evenodd" fill-opacity="1" /><path clip-path="url(#clip170)" d="M2102.17 251.328 L2106.43 251.328 L2106.43 287.346 L2102.17 287.346 L2102.17 251.328 Z" fill="#000000" fill-rule="evenodd" fill-opacity="1" /><path clip-path="url(#clip170)" d="M2127.12 274.314 Q2121.96 274.314 2119.97 275.494 Q2117.98 276.675 2117.98 279.522 Q2117.98 281.791 2119.46 283.133 Q2120.97 284.453 2123.54 284.453 Q2127.08 284.453 2129.21 281.953 Q2131.36 279.43 2131.36 275.263 L2131.36 274.314 L2127.12 274.314 M2135.62 272.555 L2135.62 287.346 L2131.36 287.346 L2131.36 283.411 Q2129.9 285.772 2127.73 286.906 Q2125.55 288.018 2122.4 288.018 Q2118.42 288.018 2116.06 285.795 Q2113.72 283.55 2113.72 279.8 Q2113.72 275.425 2116.64 273.203 Q2119.58 270.981 2125.39 270.981 L2131.36 270.981 L2131.36 270.564 Q2131.36 267.624 2129.42 266.027 Q2127.49 264.407 2124 264.407 Q2121.78 264.407 2119.67 264.939 Q2117.56 265.471 2115.62 266.536 L2115.62 262.601 Q2117.96 261.698 2120.16 261.258 Q2122.36 260.795 2124.44 260.795 Q2130.06 260.795 2132.84 263.712 Q2135.62 266.629 2135.62 272.555 Z" fill="#000000" fill-rule="evenodd" fill-opacity="1" /><path clip-path="url(#clip170)" d="M2148.61 254.059 L2148.61 261.42 L2157.38 261.42 L2157.38 264.731 L2148.61 264.731 L2148.61 278.805 Q2148.61 281.976 2149.46 282.879 Q2150.34 283.781 2153 283.781 L2157.38 283.781 L2157.38 287.346 L2153 287.346 Q2148.07 287.346 2146.2 285.518 Q2144.32 283.666 2144.32 278.805 L2144.32 264.731 L2141.2 264.731 L2141.2 261.42 L2144.32 261.42 L2144.32 254.059 L2148.61 254.059 Z" fill="#000000" fill-rule="evenodd" fill-opacity="1" /><path clip-path="url(#clip170)" d="M2162.98 261.42 L2167.24 261.42 L2167.24 287.346 L2162.98 287.346 L2162.98 261.42 M2162.98 251.328 L2167.24 251.328 L2167.24 256.721 L2162.98 256.721 L2162.98 251.328 Z" fill="#000000" fill-rule="evenodd" fill-opacity="1" /><path clip-path="url(#clip170)" d="M2186.2 264.407 Q2182.77 264.407 2180.78 267.092 Q2178.79 269.754 2178.79 274.407 Q2178.79 279.059 2180.76 281.744 Q2182.75 284.406 2186.2 284.406 Q2189.6 284.406 2191.59 281.721 Q2193.58 279.036 2193.58 274.407 Q2193.58 269.8 2191.59 267.115 Q2189.6 264.407 2186.2 264.407 M2186.2 260.795 Q2191.75 260.795 2194.92 264.407 Q2198.1 268.018 2198.1 274.407 Q2198.1 280.772 2194.92 284.406 Q2191.75 288.018 2186.2 288.018 Q2180.62 288.018 2177.45 284.406 Q2174.3 280.772 2174.3 274.407 Q2174.3 268.018 2177.45 264.407 Q2180.62 260.795 2186.2 260.795 Z" fill="#000000" fill-rule="evenodd" fill-opacity="1" /><path clip-path="url(#clip170)" d="M2226.71 271.698 L2226.71 287.346 L2222.45 287.346 L2222.45 271.837 Q2222.45 268.157 2221.01 266.328 Q2219.58 264.499 2216.71 264.499 Q2213.26 264.499 2211.27 266.698 Q2209.28 268.897 2209.28 272.694 L2209.28 287.346 L2204.99 287.346 L2204.99 261.42 L2209.28 261.42 L2209.28 265.448 Q2210.8 263.11 2212.86 261.953 Q2214.95 260.795 2217.66 260.795 Q2222.12 260.795 2224.42 263.573 Q2226.71 266.328 2226.71 271.698 Z" fill="#000000" fill-rule="evenodd" fill-opacity="1" /><polyline clip-path="url(#clip170)" style="stroke:#ff0000; stroke-linecap:butt; stroke-linejoin:round; stroke-width:4; stroke-opacity:1; fill:none" points="
  1590.49,321.906 1730.58,321.906 
  "/>
<path clip-path="url(#clip170)" d="M1781.8 307.288 L1781.8 312.219 Q1779.44 310.02 1776.76 308.932 Q1774.09 307.844 1771.08 307.844 Q1765.16 307.844 1762.01 311.478 Q1758.86 315.089 1758.86 321.941 Q1758.86 328.77 1762.01 332.404 Q1765.16 336.015 1771.08 336.015 Q1774.09 336.015 1776.76 334.927 Q1779.44 333.839 1781.8 331.64 L1781.8 336.524 Q1779.35 338.191 1776.59 339.024 Q1773.86 339.858 1770.81 339.858 Q1762.96 339.858 1758.45 335.066 Q1753.93 330.251 1753.93 321.941 Q1753.93 313.608 1758.45 308.816 Q1762.96 304.001 1770.81 304.001 Q1773.91 304.001 1776.64 304.835 Q1779.39 305.645 1781.8 307.288 Z" fill="#000000" fill-rule="evenodd" fill-opacity="1" /><path clip-path="url(#clip170)" d="M1810.39 323.538 L1810.39 339.186 L1806.13 339.186 L1806.13 323.677 Q1806.13 319.997 1804.7 318.168 Q1803.26 316.339 1800.39 316.339 Q1796.94 316.339 1794.95 318.538 Q1792.96 320.737 1792.96 324.534 L1792.96 339.186 L1788.68 339.186 L1788.68 303.168 L1792.96 303.168 L1792.96 317.288 Q1794.49 314.95 1796.55 313.793 Q1798.63 312.635 1801.34 312.635 Q1805.81 312.635 1808.1 315.413 Q1810.39 318.168 1810.39 323.538 Z" fill="#000000" fill-rule="evenodd" fill-opacity="1" /><path clip-path="url(#clip170)" d="M1818.45 328.955 L1818.45 313.26 L1822.7 313.26 L1822.7 328.793 Q1822.7 332.473 1824.14 334.325 Q1825.57 336.154 1828.45 336.154 Q1831.89 336.154 1833.88 333.955 Q1835.9 331.756 1835.9 327.959 L1835.9 313.26 L1840.16 313.26 L1840.16 339.186 L1835.9 339.186 L1835.9 335.205 Q1834.35 337.566 1832.29 338.723 Q1830.25 339.858 1827.54 339.858 Q1823.07 339.858 1820.76 337.08 Q1818.45 334.302 1818.45 328.955 M1829.16 312.635 L1829.16 312.635 Z" fill="#000000" fill-rule="evenodd" fill-opacity="1" /><path clip-path="url(#clip170)" d="M1863.95 317.242 Q1863.24 316.825 1862.38 316.64 Q1861.55 316.432 1860.53 316.432 Q1856.92 316.432 1854.97 318.793 Q1853.05 321.131 1853.05 325.529 L1853.05 339.186 L1848.77 339.186 L1848.77 313.26 L1853.05 313.26 L1853.05 317.288 Q1854.39 314.927 1856.55 313.793 Q1858.7 312.635 1861.78 312.635 Q1862.22 312.635 1862.75 312.705 Q1863.28 312.751 1863.93 312.867 L1863.95 317.242 Z" fill="#000000" fill-rule="evenodd" fill-opacity="1" /><path clip-path="url(#clip170)" d="M1886.04 314.256 L1886.04 318.237 Q1884.23 317.242 1882.4 316.756 Q1880.6 316.247 1878.75 316.247 Q1874.6 316.247 1872.31 318.885 Q1870.02 321.501 1870.02 326.247 Q1870.02 330.992 1872.31 333.631 Q1874.6 336.246 1878.75 336.246 Q1880.6 336.246 1882.4 335.76 Q1884.23 335.251 1886.04 334.256 L1886.04 338.191 Q1884.25 339.024 1882.33 339.441 Q1880.44 339.858 1878.28 339.858 Q1872.43 339.858 1868.98 336.177 Q1865.53 332.496 1865.53 326.247 Q1865.53 319.904 1869 316.27 Q1872.5 312.635 1878.56 312.635 Q1880.53 312.635 1882.4 313.052 Q1884.28 313.446 1886.04 314.256 Z" fill="#000000" fill-rule="evenodd" fill-opacity="1" /><path clip-path="url(#clip170)" d="M1915 323.538 L1915 339.186 L1910.74 339.186 L1910.74 323.677 Q1910.74 319.997 1909.3 318.168 Q1907.87 316.339 1905 316.339 Q1901.55 316.339 1899.56 318.538 Q1897.57 320.737 1897.57 324.534 L1897.57 339.186 L1893.28 339.186 L1893.28 303.168 L1897.57 303.168 L1897.57 317.288 Q1899.09 314.95 1901.15 313.793 Q1903.24 312.635 1905.94 312.635 Q1910.41 312.635 1912.7 315.413 Q1915 318.168 1915 323.538 Z" fill="#000000" fill-rule="evenodd" fill-opacity="1" /><path clip-path="url(#clip170)" d="M1923.49 313.26 L1927.75 313.26 L1927.75 339.186 L1923.49 339.186 L1923.49 313.26 M1923.49 303.168 L1927.75 303.168 L1927.75 308.561 L1923.49 308.561 L1923.49 303.168 Z" fill="#000000" fill-rule="evenodd" fill-opacity="1" /><path clip-path="url(#clip170)" d="M1936.66 303.168 L1940.92 303.168 L1940.92 339.186 L1936.66 339.186 L1936.66 303.168 Z" fill="#000000" fill-rule="evenodd" fill-opacity="1" /><path clip-path="url(#clip170)" d="M1949.83 303.168 L1954.09 303.168 L1954.09 339.186 L1949.83 339.186 L1949.83 303.168 Z" fill="#000000" fill-rule="evenodd" fill-opacity="1" /><path clip-path="url(#clip170)" d="M1996.73 314.256 L1996.73 318.237 Q1994.93 317.242 1993.1 316.756 Q1991.29 316.247 1989.44 316.247 Q1985.3 316.247 1983 318.885 Q1980.71 321.501 1980.71 326.247 Q1980.71 330.992 1983 333.631 Q1985.3 336.246 1989.44 336.246 Q1991.29 336.246 1993.1 335.76 Q1994.93 335.251 1996.73 334.256 L1996.73 338.191 Q1994.95 339.024 1993.03 339.441 Q1991.13 339.858 1988.98 339.858 Q1983.12 339.858 1979.67 336.177 Q1976.22 332.496 1976.22 326.247 Q1976.22 319.904 1979.69 316.27 Q1983.19 312.635 1989.25 312.635 Q1991.22 312.635 1993.1 313.052 Q1994.97 313.446 1996.73 314.256 Z" fill="#000000" fill-rule="evenodd" fill-opacity="1" /><path clip-path="url(#clip170)" d="M2014.18 316.247 Q2010.76 316.247 2008.77 318.932 Q2006.78 321.594 2006.78 326.247 Q2006.78 330.899 2008.75 333.584 Q2010.74 336.246 2014.18 336.246 Q2017.59 336.246 2019.58 333.561 Q2021.57 330.876 2021.57 326.247 Q2021.57 321.64 2019.58 318.955 Q2017.59 316.247 2014.18 316.247 M2014.18 312.635 Q2019.74 312.635 2022.91 316.247 Q2026.08 319.858 2026.08 326.247 Q2026.08 332.612 2022.91 336.246 Q2019.74 339.858 2014.18 339.858 Q2008.61 339.858 2005.43 336.246 Q2002.29 332.612 2002.29 326.247 Q2002.29 319.858 2005.43 316.247 Q2008.61 312.635 2014.18 312.635 Z" fill="#000000" fill-rule="evenodd" fill-opacity="1" /><path clip-path="url(#clip170)" d="M2048.17 317.242 Q2047.45 316.825 2046.59 316.64 Q2045.76 316.432 2044.74 316.432 Q2041.13 316.432 2039.18 318.793 Q2037.26 321.131 2037.26 325.529 L2037.26 339.186 L2032.98 339.186 L2032.98 313.26 L2037.26 313.26 L2037.26 317.288 Q2038.61 314.927 2040.76 313.793 Q2042.91 312.635 2045.99 312.635 Q2046.43 312.635 2046.96 312.705 Q2047.49 312.751 2048.14 312.867 L2048.17 317.242 Z" fill="#000000" fill-rule="evenodd" fill-opacity="1" /><path clip-path="url(#clip170)" d="M2066.82 317.242 Q2066.11 316.825 2065.25 316.64 Q2064.42 316.432 2063.4 316.432 Q2059.79 316.432 2057.84 318.793 Q2055.92 321.131 2055.92 325.529 L2055.92 339.186 L2051.64 339.186 L2051.64 313.26 L2055.92 313.26 L2055.92 317.288 Q2057.26 314.927 2059.42 313.793 Q2061.57 312.635 2064.65 312.635 Q2065.09 312.635 2065.62 312.705 Q2066.15 312.751 2066.8 312.867 L2066.82 317.242 Z" fill="#000000" fill-rule="evenodd" fill-opacity="1" /><path clip-path="url(#clip170)" d="M2092.43 325.159 L2092.43 327.242 L2072.84 327.242 Q2073.12 331.64 2075.48 333.955 Q2077.87 336.246 2082.1 336.246 Q2084.55 336.246 2086.85 335.645 Q2089.16 335.043 2091.43 333.839 L2091.43 337.867 Q2089.14 338.839 2086.73 339.348 Q2084.32 339.858 2081.85 339.858 Q2075.64 339.858 2072.01 336.246 Q2068.4 332.635 2068.4 326.478 Q2068.4 320.112 2071.82 316.385 Q2075.27 312.635 2081.11 312.635 Q2086.34 312.635 2089.37 316.015 Q2092.43 319.372 2092.43 325.159 M2088.17 323.909 Q2088.12 320.413 2086.2 318.33 Q2084.3 316.247 2081.15 316.247 Q2077.59 316.247 2075.43 318.26 Q2073.3 320.274 2072.98 323.932 L2088.17 323.909 Z" fill="#000000" fill-rule="evenodd" fill-opacity="1" /><path clip-path="url(#clip170)" d="M2099.42 303.168 L2103.68 303.168 L2103.68 339.186 L2099.42 339.186 L2099.42 303.168 Z" fill="#000000" fill-rule="evenodd" fill-opacity="1" /><path clip-path="url(#clip170)" d="M2124.37 326.154 Q2119.21 326.154 2117.22 327.334 Q2115.23 328.515 2115.23 331.362 Q2115.23 333.631 2116.71 334.973 Q2118.21 336.293 2120.78 336.293 Q2124.32 336.293 2126.45 333.793 Q2128.61 331.27 2128.61 327.103 L2128.61 326.154 L2124.37 326.154 M2132.86 324.395 L2132.86 339.186 L2128.61 339.186 L2128.61 335.251 Q2127.15 337.612 2124.97 338.746 Q2122.8 339.858 2119.65 339.858 Q2115.67 339.858 2113.3 337.635 Q2110.97 335.39 2110.97 331.64 Q2110.97 327.265 2113.88 325.043 Q2116.82 322.821 2122.63 322.821 L2128.61 322.821 L2128.61 322.404 Q2128.61 319.464 2126.66 317.867 Q2124.74 316.247 2121.24 316.247 Q2119.02 316.247 2116.92 316.779 Q2114.81 317.311 2112.86 318.376 L2112.86 314.441 Q2115.2 313.538 2117.4 313.098 Q2119.6 312.635 2121.68 312.635 Q2127.31 312.635 2130.09 315.552 Q2132.86 318.469 2132.86 324.395 Z" fill="#000000" fill-rule="evenodd" fill-opacity="1" /><path clip-path="url(#clip170)" d="M2145.85 305.899 L2145.85 313.26 L2154.62 313.26 L2154.62 316.571 L2145.85 316.571 L2145.85 330.645 Q2145.85 333.816 2146.71 334.719 Q2147.59 335.621 2150.25 335.621 L2154.62 335.621 L2154.62 339.186 L2150.25 339.186 Q2145.32 339.186 2143.44 337.358 Q2141.57 335.506 2141.57 330.645 L2141.57 316.571 L2138.44 316.571 L2138.44 313.26 L2141.57 313.26 L2141.57 305.899 L2145.85 305.899 Z" fill="#000000" fill-rule="evenodd" fill-opacity="1" /><path clip-path="url(#clip170)" d="M2160.23 313.26 L2164.48 313.26 L2164.48 339.186 L2160.23 339.186 L2160.23 313.26 M2160.23 303.168 L2164.48 303.168 L2164.48 308.561 L2160.23 308.561 L2160.23 303.168 Z" fill="#000000" fill-rule="evenodd" fill-opacity="1" /><path clip-path="url(#clip170)" d="M2183.44 316.247 Q2180.02 316.247 2178.03 318.932 Q2176.04 321.594 2176.04 326.247 Q2176.04 330.899 2178 333.584 Q2179.99 336.246 2183.44 336.246 Q2186.85 336.246 2188.84 333.561 Q2190.83 330.876 2190.83 326.247 Q2190.83 321.64 2188.84 318.955 Q2186.85 316.247 2183.44 316.247 M2183.44 312.635 Q2189 312.635 2192.17 316.247 Q2195.34 319.858 2195.34 326.247 Q2195.34 332.612 2192.17 336.246 Q2189 339.858 2183.44 339.858 Q2177.86 339.858 2174.69 336.246 Q2171.55 332.612 2171.55 326.247 Q2171.55 319.858 2174.69 316.247 Q2177.86 312.635 2183.44 312.635 Z" fill="#000000" fill-rule="evenodd" fill-opacity="1" /><path clip-path="url(#clip170)" d="M2223.95 323.538 L2223.95 339.186 L2219.69 339.186 L2219.69 323.677 Q2219.69 319.997 2218.26 318.168 Q2216.82 316.339 2213.95 316.339 Q2210.5 316.339 2208.51 318.538 Q2206.52 320.737 2206.52 324.534 L2206.52 339.186 L2202.24 339.186 L2202.24 313.26 L2206.52 313.26 L2206.52 317.288 Q2208.05 314.95 2210.11 313.793 Q2212.19 312.635 2214.9 312.635 Q2219.37 312.635 2221.66 315.413 Q2223.95 318.168 2223.95 323.538 Z" fill="#000000" fill-rule="evenodd" fill-opacity="1" /></svg>
