<?xml version="1.0" encoding="utf-8"?>
<svg xmlns="http://www.w3.org/2000/svg" xmlns:xlink="http://www.w3.org/1999/xlink" width="600" height="400" viewBox="0 0 2400 1600">
<defs>
  <clipPath id="clip500">
    <rect x="0" y="0" width="2400" height="1600"/>
  </clipPath>
</defs>
<path clip-path="url(#clip500)" d="
M0 1600 L2400 1600 L2400 0 L0 0  Z
  " fill="#ffffff" fill-rule="evenodd" fill-opacity="1"/>
<defs>
  <clipPath id="clip501">
    <rect x="480" y="0" width="1681" height="1600"/>
  </clipPath>
</defs>
<path clip-path="url(#clip500)" d="
M186.274 1423.18 L2352.76 1423.18 L2352.76 123.472 L186.274 123.472  Z
  " fill="#ffffff" fill-rule="evenodd" fill-opacity="1"/>
<defs>
  <clipPath id="clip502">
    <rect x="186" y="123" width="2167" height="1301"/>
  </clipPath>
</defs>
<polyline clip-path="url(#clip502)" style="stroke:#000000; stroke-linecap:butt; stroke-linejoin:round; stroke-width:2; stroke-opacity:0.1; fill:none" points="
  186.274,1423.18 186.274,123.472 
  "/>
<polyline clip-path="url(#clip502)" style="stroke:#000000; stroke-linecap:butt; stroke-linejoin:round; stroke-width:2; stroke-opacity:0.1; fill:none" points="
  697.237,1423.18 697.237,123.472 
  "/>
<polyline clip-path="url(#clip502)" style="stroke:#000000; stroke-linecap:butt; stroke-linejoin:round; stroke-width:2; stroke-opacity:0.1; fill:none" points="
  1208.2,1423.18 1208.2,123.472 
  "/>
<polyline clip-path="url(#clip502)" style="stroke:#000000; stroke-linecap:butt; stroke-linejoin:round; stroke-width:2; stroke-opacity:0.1; fill:none" points="
  1719.16,1423.18 1719.16,123.472 
  "/>
<polyline clip-path="url(#clip502)" style="stroke:#000000; stroke-linecap:butt; stroke-linejoin:round; stroke-width:2; stroke-opacity:0.1; fill:none" points="
  2230.12,1423.18 2230.12,123.472 
  "/>
<polyline clip-path="url(#clip500)" style="stroke:#000000; stroke-linecap:butt; stroke-linejoin:round; stroke-width:4; stroke-opacity:1; fill:none" points="
  186.274,1423.18 2352.76,1423.18 
  "/>
<polyline clip-path="url(#clip500)" style="stroke:#000000; stroke-linecap:butt; stroke-linejoin:round; stroke-width:4; stroke-opacity:1; fill:none" points="
  186.274,1423.18 186.274,1404.28 
  "/>
<polyline clip-path="url(#clip500)" style="stroke:#000000; stroke-linecap:butt; stroke-linejoin:round; stroke-width:4; stroke-opacity:1; fill:none" points="
  697.237,1423.18 697.237,1404.28 
  "/>
<polyline clip-path="url(#clip500)" style="stroke:#000000; stroke-linecap:butt; stroke-linejoin:round; stroke-width:4; stroke-opacity:1; fill:none" points="
  1208.2,1423.18 1208.2,1404.28 
  "/>
<polyline clip-path="url(#clip500)" style="stroke:#000000; stroke-linecap:butt; stroke-linejoin:round; stroke-width:4; stroke-opacity:1; fill:none" points="
  1719.16,1423.18 1719.16,1404.28 
  "/>
<polyline clip-path="url(#clip500)" style="stroke:#000000; stroke-linecap:butt; stroke-linejoin:round; stroke-width:4; stroke-opacity:1; fill:none" points="
  2230.12,1423.18 2230.12,1404.28 
  "/>
<path clip-path="url(#clip500)" d="M148.577 1454.1 Q144.966 1454.1 143.138 1457.66 Q141.332 1461.2 141.332 1468.33 Q141.332 1475.44 143.138 1479.01 Q144.966 1482.55 148.577 1482.55 Q152.212 1482.55 154.017 1479.01 Q155.846 1475.44 155.846 1468.33 Q155.846 1461.2 154.017 1457.66 Q152.212 1454.1 148.577 1454.1 M148.577 1450.39 Q154.388 1450.39 157.443 1455 Q160.522 1459.58 160.522 1468.33 Q160.522 1477.06 157.443 1481.67 Q154.388 1486.25 148.577 1486.25 Q142.767 1486.25 139.689 1481.67 Q136.633 1477.06 136.633 1468.33 Q136.633 1459.58 139.689 1455 Q142.767 1450.39 148.577 1450.39 Z" fill="#000000" fill-rule="evenodd" fill-opacity="1" /><path clip-path="url(#clip500)" d="M168.739 1479.7 L173.624 1479.7 L173.624 1485.58 L168.739 1485.58 L168.739 1479.7 Z" fill="#000000" fill-rule="evenodd" fill-opacity="1" /><path clip-path="url(#clip500)" d="M193.809 1454.1 Q190.198 1454.1 188.369 1457.66 Q186.563 1461.2 186.563 1468.33 Q186.563 1475.44 188.369 1479.01 Q190.198 1482.55 193.809 1482.55 Q197.443 1482.55 199.248 1479.01 Q201.077 1475.44 201.077 1468.33 Q201.077 1461.2 199.248 1457.66 Q197.443 1454.1 193.809 1454.1 M193.809 1450.39 Q199.619 1450.39 202.674 1455 Q205.753 1459.58 205.753 1468.33 Q205.753 1477.06 202.674 1481.67 Q199.619 1486.25 193.809 1486.25 Q187.999 1486.25 184.92 1481.67 Q181.864 1477.06 181.864 1468.33 Q181.864 1459.58 184.92 1455 Q187.999 1450.39 193.809 1450.39 Z" fill="#000000" fill-rule="evenodd" fill-opacity="1" /><path clip-path="url(#clip500)" d="M223.971 1454.1 Q220.359 1454.1 218.531 1457.66 Q216.725 1461.2 216.725 1468.33 Q216.725 1475.44 218.531 1479.01 Q220.359 1482.55 223.971 1482.55 Q227.605 1482.55 229.41 1479.01 Q231.239 1475.44 231.239 1468.33 Q231.239 1461.2 229.41 1457.66 Q227.605 1454.1 223.971 1454.1 M223.971 1450.39 Q229.781 1450.39 232.836 1455 Q235.915 1459.58 235.915 1468.33 Q235.915 1477.06 232.836 1481.67 Q229.781 1486.25 223.971 1486.25 Q218.16 1486.25 215.082 1481.67 Q212.026 1477.06 212.026 1468.33 Q212.026 1459.58 215.082 1455 Q218.16 1450.39 223.971 1450.39 Z" fill="#000000" fill-rule="evenodd" fill-opacity="1" /><path clip-path="url(#clip500)" d="M660.038 1454.1 Q656.427 1454.1 654.598 1457.66 Q652.793 1461.2 652.793 1468.33 Q652.793 1475.44 654.598 1479.01 Q656.427 1482.55 660.038 1482.55 Q663.672 1482.55 665.478 1479.01 Q667.306 1475.44 667.306 1468.33 Q667.306 1461.2 665.478 1457.66 Q663.672 1454.1 660.038 1454.1 M660.038 1450.39 Q665.848 1450.39 668.904 1455 Q671.982 1459.58 671.982 1468.33 Q671.982 1477.06 668.904 1481.67 Q665.848 1486.25 660.038 1486.25 Q654.228 1486.25 651.149 1481.67 Q648.093 1477.06 648.093 1468.33 Q648.093 1459.58 651.149 1455 Q654.228 1450.39 660.038 1450.39 Z" fill="#000000" fill-rule="evenodd" fill-opacity="1" /><path clip-path="url(#clip500)" d="M680.2 1479.7 L685.084 1479.7 L685.084 1485.58 L680.2 1485.58 L680.2 1479.7 Z" fill="#000000" fill-rule="evenodd" fill-opacity="1" /><path clip-path="url(#clip500)" d="M705.269 1454.1 Q701.658 1454.1 699.829 1457.66 Q698.024 1461.2 698.024 1468.33 Q698.024 1475.44 699.829 1479.01 Q701.658 1482.55 705.269 1482.55 Q708.903 1482.55 710.709 1479.01 Q712.538 1475.44 712.538 1468.33 Q712.538 1461.2 710.709 1457.66 Q708.903 1454.1 705.269 1454.1 M705.269 1450.39 Q711.079 1450.39 714.135 1455 Q717.213 1459.58 717.213 1468.33 Q717.213 1477.06 714.135 1481.67 Q711.079 1486.25 705.269 1486.25 Q699.459 1486.25 696.38 1481.67 Q693.325 1477.06 693.325 1468.33 Q693.325 1459.58 696.38 1455 Q699.459 1450.39 705.269 1450.39 Z" fill="#000000" fill-rule="evenodd" fill-opacity="1" /><path clip-path="url(#clip500)" d="M725.477 1451.02 L743.834 1451.02 L743.834 1454.96 L729.76 1454.96 L729.76 1463.43 Q730.778 1463.08 731.797 1462.92 Q732.815 1462.73 733.834 1462.73 Q739.621 1462.73 743 1465.9 Q746.38 1469.08 746.38 1474.49 Q746.38 1480.07 742.908 1483.17 Q739.436 1486.25 733.116 1486.25 Q730.94 1486.25 728.672 1485.88 Q726.426 1485.51 724.019 1484.77 L724.019 1480.07 Q726.102 1481.2 728.325 1481.76 Q730.547 1482.32 733.024 1482.32 Q737.028 1482.32 739.366 1480.21 Q741.704 1478.1 741.704 1474.49 Q741.704 1470.88 739.366 1468.77 Q737.028 1466.67 733.024 1466.67 Q731.149 1466.67 729.274 1467.08 Q727.422 1467.5 725.477 1468.38 L725.477 1451.02 Z" fill="#000000" fill-rule="evenodd" fill-opacity="1" /><path clip-path="url(#clip500)" d="M1170.5 1454.1 Q1166.89 1454.1 1165.06 1457.66 Q1163.26 1461.2 1163.26 1468.33 Q1163.26 1475.44 1165.06 1479.01 Q1166.89 1482.55 1170.5 1482.55 Q1174.14 1482.55 1175.94 1479.01 Q1177.77 1475.44 1177.77 1468.33 Q1177.77 1461.2 1175.94 1457.66 Q1174.14 1454.1 1170.5 1454.1 M1170.5 1450.39 Q1176.31 1450.39 1179.37 1455 Q1182.45 1459.58 1182.45 1468.33 Q1182.45 1477.06 1179.37 1481.67 Q1176.31 1486.25 1170.5 1486.25 Q1164.69 1486.25 1161.61 1481.67 Q1158.56 1477.06 1158.56 1468.33 Q1158.56 1459.58 1161.61 1455 Q1164.69 1450.39 1170.5 1450.39 Z" fill="#000000" fill-rule="evenodd" fill-opacity="1" /><path clip-path="url(#clip500)" d="M1190.66 1479.7 L1195.55 1479.7 L1195.55 1485.58 L1190.66 1485.58 L1190.66 1479.7 Z" fill="#000000" fill-rule="evenodd" fill-opacity="1" /><path clip-path="url(#clip500)" d="M1206.54 1481.64 L1214.18 1481.64 L1214.18 1455.28 L1205.87 1456.95 L1205.87 1452.69 L1214.14 1451.02 L1218.81 1451.02 L1218.81 1481.64 L1226.45 1481.64 L1226.45 1485.58 L1206.54 1485.58 L1206.54 1481.64 Z" fill="#000000" fill-rule="evenodd" fill-opacity="1" /><path clip-path="url(#clip500)" d="M1245.9 1454.1 Q1242.28 1454.1 1240.46 1457.66 Q1238.65 1461.2 1238.65 1468.33 Q1238.65 1475.44 1240.46 1479.01 Q1242.28 1482.55 1245.9 1482.55 Q1249.53 1482.55 1251.34 1479.01 Q1253.16 1475.44 1253.16 1468.33 Q1253.16 1461.2 1251.34 1457.66 Q1249.53 1454.1 1245.9 1454.1 M1245.9 1450.39 Q1251.71 1450.39 1254.76 1455 Q1257.84 1459.58 1257.84 1468.33 Q1257.84 1477.06 1254.76 1481.67 Q1251.71 1486.25 1245.9 1486.25 Q1240.09 1486.25 1237.01 1481.67 Q1233.95 1477.06 1233.95 1468.33 Q1233.95 1459.58 1237.01 1455 Q1240.09 1450.39 1245.9 1450.39 Z" fill="#000000" fill-rule="evenodd" fill-opacity="1" /><path clip-path="url(#clip500)" d="M1681.96 1454.1 Q1678.35 1454.1 1676.52 1457.66 Q1674.72 1461.2 1674.72 1468.33 Q1674.72 1475.44 1676.52 1479.01 Q1678.35 1482.55 1681.96 1482.55 Q1685.6 1482.55 1687.4 1479.01 Q1689.23 1475.44 1689.23 1468.33 Q1689.23 1461.2 1687.4 1457.66 Q1685.6 1454.1 1681.96 1454.1 M1681.96 1450.39 Q1687.77 1450.39 1690.83 1455 Q1693.91 1459.58 1693.91 1468.33 Q1693.91 1477.06 1690.83 1481.67 Q1687.77 1486.25 1681.96 1486.25 Q1676.15 1486.25 1673.07 1481.67 Q1670.02 1477.06 1670.02 1468.33 Q1670.02 1459.58 1673.07 1455 Q1676.15 1450.39 1681.96 1450.39 Z" fill="#000000" fill-rule="evenodd" fill-opacity="1" /><path clip-path="url(#clip500)" d="M1702.13 1479.7 L1707.01 1479.7 L1707.01 1485.58 L1702.13 1485.58 L1702.13 1479.7 Z" fill="#000000" fill-rule="evenodd" fill-opacity="1" /><path clip-path="url(#clip500)" d="M1718 1481.64 L1725.64 1481.64 L1725.64 1455.28 L1717.33 1456.95 L1717.33 1452.69 L1725.6 1451.02 L1730.27 1451.02 L1730.27 1481.64 L1737.91 1481.64 L1737.91 1485.58 L1718 1485.58 L1718 1481.64 Z" fill="#000000" fill-rule="evenodd" fill-opacity="1" /><path clip-path="url(#clip500)" d="M1747.4 1451.02 L1765.76 1451.02 L1765.76 1454.96 L1751.69 1454.96 L1751.69 1463.43 Q1752.7 1463.08 1753.72 1462.92 Q1754.74 1462.73 1755.76 1462.73 Q1761.55 1462.73 1764.93 1465.9 Q1768.31 1469.08 1768.31 1474.49 Q1768.31 1480.07 1764.83 1483.17 Q1761.36 1486.25 1755.04 1486.25 Q1752.87 1486.25 1750.6 1485.88 Q1748.35 1485.51 1745.94 1484.77 L1745.94 1480.07 Q1748.03 1481.2 1750.25 1481.76 Q1752.47 1482.32 1754.95 1482.32 Q1758.95 1482.32 1761.29 1480.21 Q1763.63 1478.1 1763.63 1474.49 Q1763.63 1470.88 1761.29 1468.77 Q1758.95 1466.67 1754.95 1466.67 Q1753.07 1466.67 1751.2 1467.08 Q1749.35 1467.5 1747.4 1468.38 L1747.4 1451.02 Z" fill="#000000" fill-rule="evenodd" fill-opacity="1" /><path clip-path="url(#clip500)" d="M2192.43 1454.1 Q2188.82 1454.1 2186.99 1457.66 Q2185.18 1461.2 2185.18 1468.33 Q2185.18 1475.44 2186.99 1479.01 Q2188.82 1482.55 2192.43 1482.55 Q2196.06 1482.55 2197.87 1479.01 Q2199.7 1475.44 2199.7 1468.33 Q2199.7 1461.2 2197.87 1457.66 Q2196.06 1454.1 2192.43 1454.1 M2192.43 1450.39 Q2198.24 1450.39 2201.29 1455 Q2204.37 1459.58 2204.37 1468.33 Q2204.37 1477.06 2201.29 1481.67 Q2198.24 1486.25 2192.43 1486.25 Q2186.62 1486.25 2183.54 1481.67 Q2180.48 1477.06 2180.48 1468.33 Q2180.48 1459.58 2183.54 1455 Q2186.62 1450.39 2192.43 1450.39 Z" fill="#000000" fill-rule="evenodd" fill-opacity="1" /><path clip-path="url(#clip500)" d="M2212.59 1479.7 L2217.47 1479.7 L2217.47 1485.58 L2212.59 1485.58 L2212.59 1479.7 Z" fill="#000000" fill-rule="evenodd" fill-opacity="1" /><path clip-path="url(#clip500)" d="M2231.69 1481.64 L2248.01 1481.64 L2248.01 1485.58 L2226.06 1485.58 L2226.06 1481.64 Q2228.72 1478.89 2233.31 1474.26 Q2237.91 1469.61 2239.09 1468.27 Q2241.34 1465.74 2242.22 1464.01 Q2243.12 1462.25 2243.12 1460.56 Q2243.12 1457.8 2241.18 1456.07 Q2239.26 1454.33 2236.15 1454.33 Q2233.96 1454.33 2231.5 1455.09 Q2229.07 1455.86 2226.29 1457.41 L2226.29 1452.69 Q2229.12 1451.55 2231.57 1450.97 Q2234.03 1450.39 2236.06 1450.39 Q2241.43 1450.39 2244.63 1453.08 Q2247.82 1455.77 2247.82 1460.26 Q2247.82 1462.39 2247.01 1464.31 Q2246.22 1466.2 2244.12 1468.8 Q2243.54 1469.47 2240.44 1472.69 Q2237.34 1475.88 2231.69 1481.64 Z" fill="#000000" fill-rule="evenodd" fill-opacity="1" /><path clip-path="url(#clip500)" d="M2267.82 1454.1 Q2264.21 1454.1 2262.38 1457.66 Q2260.58 1461.2 2260.58 1468.33 Q2260.58 1475.44 2262.38 1479.01 Q2264.21 1482.55 2267.82 1482.55 Q2271.46 1482.55 2273.26 1479.01 Q2275.09 1475.44 2275.09 1468.33 Q2275.09 1461.2 2273.26 1457.66 Q2271.46 1454.1 2267.82 1454.1 M2267.82 1450.39 Q2273.63 1450.39 2276.69 1455 Q2279.77 1459.58 2279.77 1468.33 Q2279.77 1477.06 2276.69 1481.67 Q2273.63 1486.25 2267.82 1486.25 Q2262.01 1486.25 2258.93 1481.67 Q2255.88 1477.06 2255.88 1468.33 Q2255.88 1459.58 2258.93 1455 Q2262.01 1450.39 2267.82 1450.39 Z" fill="#000000" fill-rule="evenodd" fill-opacity="1" /><path clip-path="url(#clip500)" d="M1274.73 1564 Q1278.94 1564.03 1281.45 1566.42 Q1284.12 1568.94 1284.12 1572.75 Q1284.12 1576.41 1281.77 1578.96 Q1279.22 1581.73 1274.03 1581.73 Q1274.03 1579.34 1274.03 1576.92 Q1276.23 1577.08 1277.57 1575.68 Q1278.59 1574.57 1278.59 1573.39 Q1278.59 1571.7 1277.57 1570.3 Q1276.58 1568.97 1274.73 1568.97 Q1254.91 1568.97 1254.91 1555.06 Q1254.91 1545.51 1265.5 1542.71 Q1256.59 1541.56 1256.59 1533.29 Q1256.59 1527.02 1263.59 1524.41 L1256.97 1524.41 L1256.97 1518.52 L1282.09 1518.52 L1282.09 1524.41 Q1262.07 1524.41 1262.07 1533.67 Q1262.07 1539.75 1278.87 1540.03 L1278.87 1545.45 Q1260.73 1544.75 1260.79 1555.06 Q1260.83 1563.68 1274.73 1564 Z" fill="#000000" fill-rule="evenodd" fill-opacity="1" /><polyline clip-path="url(#clip502)" style="stroke:#000000; stroke-linecap:butt; stroke-linejoin:round; stroke-width:2; stroke-opacity:0.1; fill:none" points="
  186.274,1390.16 2352.76,1390.16 
  "/>
<polyline clip-path="url(#clip502)" style="stroke:#000000; stroke-linecap:butt; stroke-linejoin:round; stroke-width:2; stroke-opacity:0.1; fill:none" points="
  186.274,1082.68 2352.76,1082.68 
  "/>
<polyline clip-path="url(#clip502)" style="stroke:#000000; stroke-linecap:butt; stroke-linejoin:round; stroke-width:2; stroke-opacity:0.1; fill:none" points="
  186.274,775.206 2352.76,775.206 
  "/>
<polyline clip-path="url(#clip502)" style="stroke:#000000; stroke-linecap:butt; stroke-linejoin:round; stroke-width:2; stroke-opacity:0.1; fill:none" points="
  186.274,467.731 2352.76,467.731 
  "/>
<polyline clip-path="url(#clip502)" style="stroke:#000000; stroke-linecap:butt; stroke-linejoin:round; stroke-width:2; stroke-opacity:0.1; fill:none" points="
  186.274,160.256 2352.76,160.256 
  "/>
<polyline clip-path="url(#clip500)" style="stroke:#000000; stroke-linecap:butt; stroke-linejoin:round; stroke-width:4; stroke-opacity:1; fill:none" points="
  186.274,1423.18 186.274,123.472 
  "/>
<polyline clip-path="url(#clip500)" style="stroke:#000000; stroke-linecap:butt; stroke-linejoin:round; stroke-width:4; stroke-opacity:1; fill:none" points="
  186.274,1390.16 205.172,1390.16 
  "/>
<polyline clip-path="url(#clip500)" style="stroke:#000000; stroke-linecap:butt; stroke-linejoin:round; stroke-width:4; stroke-opacity:1; fill:none" points="
  186.274,1082.68 205.172,1082.68 
  "/>
<polyline clip-path="url(#clip500)" style="stroke:#000000; stroke-linecap:butt; stroke-linejoin:round; stroke-width:4; stroke-opacity:1; fill:none" points="
  186.274,775.206 205.172,775.206 
  "/>
<polyline clip-path="url(#clip500)" style="stroke:#000000; stroke-linecap:butt; stroke-linejoin:round; stroke-width:4; stroke-opacity:1; fill:none" points="
  186.274,467.731 205.172,467.731 
  "/>
<polyline clip-path="url(#clip500)" style="stroke:#000000; stroke-linecap:butt; stroke-linejoin:round; stroke-width:4; stroke-opacity:1; fill:none" points="
  186.274,160.256 205.172,160.256 
  "/>
<path clip-path="url(#clip500)" d="M62.9365 1375.95 Q59.3254 1375.95 57.4967 1379.52 Q55.6912 1383.06 55.6912 1390.19 Q55.6912 1397.3 57.4967 1400.86 Q59.3254 1404.4 62.9365 1404.4 Q66.5707 1404.4 68.3763 1400.86 Q70.205 1397.3 70.205 1390.19 Q70.205 1383.06 68.3763 1379.52 Q66.5707 1375.95 62.9365 1375.95 M62.9365 1372.25 Q68.7467 1372.25 71.8022 1376.86 Q74.8809 1381.44 74.8809 1390.19 Q74.8809 1398.92 71.8022 1403.52 Q68.7467 1408.11 62.9365 1408.11 Q57.1264 1408.11 54.0477 1403.52 Q50.9921 1398.92 50.9921 1390.19 Q50.9921 1381.44 54.0477 1376.86 Q57.1264 1372.25 62.9365 1372.25 Z" fill="#000000" fill-rule="evenodd" fill-opacity="1" /><path clip-path="url(#clip500)" d="M83.0984 1401.56 L87.9827 1401.56 L87.9827 1407.44 L83.0984 1407.44 L83.0984 1401.56 Z" fill="#000000" fill-rule="evenodd" fill-opacity="1" /><path clip-path="url(#clip500)" d="M108.168 1375.95 Q104.557 1375.95 102.728 1379.52 Q100.922 1383.06 100.922 1390.19 Q100.922 1397.3 102.728 1400.86 Q104.557 1404.4 108.168 1404.4 Q111.802 1404.4 113.608 1400.86 Q115.436 1397.3 115.436 1390.19 Q115.436 1383.06 113.608 1379.52 Q111.802 1375.95 108.168 1375.95 M108.168 1372.25 Q113.978 1372.25 117.033 1376.86 Q120.112 1381.44 120.112 1390.19 Q120.112 1398.92 117.033 1403.52 Q113.978 1408.11 108.168 1408.11 Q102.358 1408.11 99.2789 1403.52 Q96.2234 1398.92 96.2234 1390.19 Q96.2234 1381.44 99.2789 1376.86 Q102.358 1372.25 108.168 1372.25 Z" fill="#000000" fill-rule="evenodd" fill-opacity="1" /><path clip-path="url(#clip500)" d="M138.33 1375.95 Q134.719 1375.95 132.89 1379.52 Q131.084 1383.06 131.084 1390.19 Q131.084 1397.3 132.89 1400.86 Q134.719 1404.4 138.33 1404.4 Q141.964 1404.4 143.769 1400.86 Q145.598 1397.3 145.598 1390.19 Q145.598 1383.06 143.769 1379.52 Q141.964 1375.95 138.33 1375.95 M138.33 1372.25 Q144.14 1372.25 147.195 1376.86 Q150.274 1381.44 150.274 1390.19 Q150.274 1398.92 147.195 1403.52 Q144.14 1408.11 138.33 1408.11 Q132.519 1408.11 129.441 1403.52 Q126.385 1398.92 126.385 1390.19 Q126.385 1381.44 129.441 1376.86 Q132.519 1372.25 138.33 1372.25 Z" fill="#000000" fill-rule="evenodd" fill-opacity="1" /><path clip-path="url(#clip500)" d="M63.9319 1068.48 Q60.3208 1068.48 58.4921 1072.04 Q56.6865 1075.59 56.6865 1082.72 Q56.6865 1089.82 58.4921 1093.39 Q60.3208 1096.93 63.9319 1096.93 Q67.5661 1096.93 69.3717 1093.39 Q71.2004 1089.82 71.2004 1082.72 Q71.2004 1075.59 69.3717 1072.04 Q67.5661 1068.48 63.9319 1068.48 M63.9319 1064.78 Q69.742 1064.78 72.7976 1069.38 Q75.8763 1073.97 75.8763 1082.72 Q75.8763 1091.44 72.7976 1096.05 Q69.742 1100.63 63.9319 1100.63 Q58.1217 1100.63 55.043 1096.05 Q51.9875 1091.44 51.9875 1082.72 Q51.9875 1073.97 55.043 1069.38 Q58.1217 1064.78 63.9319 1064.78 Z" fill="#000000" fill-rule="evenodd" fill-opacity="1" /><path clip-path="url(#clip500)" d="M84.0938 1094.08 L88.978 1094.08 L88.978 1099.96 L84.0938 1099.96 L84.0938 1094.08 Z" fill="#000000" fill-rule="evenodd" fill-opacity="1" /><path clip-path="url(#clip500)" d="M103.191 1096.03 L119.51 1096.03 L119.51 1099.96 L97.566 1099.96 L97.566 1096.03 Q100.228 1093.27 104.811 1088.64 Q109.418 1083.99 110.598 1082.65 Q112.844 1080.12 113.723 1078.39 Q114.626 1076.63 114.626 1074.94 Q114.626 1072.18 112.682 1070.45 Q110.76 1068.71 107.658 1068.71 Q105.459 1068.71 103.006 1069.47 Q100.575 1070.24 97.7974 1071.79 L97.7974 1067.07 Q100.621 1065.93 103.075 1065.35 Q105.529 1064.78 107.566 1064.78 Q112.936 1064.78 116.131 1067.46 Q119.325 1070.15 119.325 1074.64 Q119.325 1076.77 118.515 1078.69 Q117.728 1080.59 115.621 1083.18 Q115.043 1083.85 111.941 1087.07 Q108.839 1090.26 103.191 1096.03 Z" fill="#000000" fill-rule="evenodd" fill-opacity="1" /><path clip-path="url(#clip500)" d="M129.371 1065.4 L147.728 1065.4 L147.728 1069.34 L133.654 1069.34 L133.654 1077.81 Q134.672 1077.46 135.691 1077.3 Q136.709 1077.11 137.728 1077.11 Q143.515 1077.11 146.894 1080.28 Q150.274 1083.46 150.274 1088.87 Q150.274 1094.45 146.802 1097.55 Q143.33 1100.63 137.01 1100.63 Q134.834 1100.63 132.566 1100.26 Q130.32 1099.89 127.913 1099.15 L127.913 1094.45 Q129.996 1095.59 132.219 1096.14 Q134.441 1096.7 136.918 1096.7 Q140.922 1096.7 143.26 1094.59 Q145.598 1092.48 145.598 1088.87 Q145.598 1085.26 143.26 1083.16 Q140.922 1081.05 136.918 1081.05 Q135.043 1081.05 133.168 1081.47 Q131.316 1081.88 129.371 1082.76 L129.371 1065.4 Z" fill="#000000" fill-rule="evenodd" fill-opacity="1" /><path clip-path="url(#clip500)" d="M62.9365 761.005 Q59.3254 761.005 57.4967 764.569 Q55.6912 768.111 55.6912 775.241 Q55.6912 782.347 57.4967 785.912 Q59.3254 789.454 62.9365 789.454 Q66.5707 789.454 68.3763 785.912 Q70.205 782.347 70.205 775.241 Q70.205 768.111 68.3763 764.569 Q66.5707 761.005 62.9365 761.005 M62.9365 757.301 Q68.7467 757.301 71.8022 761.907 Q74.8809 766.491 74.8809 775.241 Q74.8809 783.967 71.8022 788.574 Q68.7467 793.157 62.9365 793.157 Q57.1264 793.157 54.0477 788.574 Q50.9921 783.967 50.9921 775.241 Q50.9921 766.491 54.0477 761.907 Q57.1264 757.301 62.9365 757.301 Z" fill="#000000" fill-rule="evenodd" fill-opacity="1" /><path clip-path="url(#clip500)" d="M83.0984 786.606 L87.9827 786.606 L87.9827 792.486 L83.0984 792.486 L83.0984 786.606 Z" fill="#000000" fill-rule="evenodd" fill-opacity="1" /><path clip-path="url(#clip500)" d="M98.2141 757.926 L116.57 757.926 L116.57 761.861 L102.496 761.861 L102.496 770.333 Q103.515 769.986 104.534 769.824 Q105.552 769.639 106.571 769.639 Q112.358 769.639 115.737 772.81 Q119.117 775.981 119.117 781.398 Q119.117 786.977 115.645 790.079 Q112.172 793.157 105.853 793.157 Q103.677 793.157 101.409 792.787 Q99.1632 792.416 96.7558 791.676 L96.7558 786.977 Q98.8391 788.111 101.061 788.666 Q103.284 789.222 105.76 789.222 Q109.765 789.222 112.103 787.116 Q114.441 785.009 114.441 781.398 Q114.441 777.787 112.103 775.68 Q109.765 773.574 105.76 773.574 Q103.885 773.574 102.01 773.991 Q100.159 774.407 98.2141 775.287 L98.2141 757.926 Z" fill="#000000" fill-rule="evenodd" fill-opacity="1" /><path clip-path="url(#clip500)" d="M138.33 761.005 Q134.719 761.005 132.89 764.569 Q131.084 768.111 131.084 775.241 Q131.084 782.347 132.89 785.912 Q134.719 789.454 138.33 789.454 Q141.964 789.454 143.769 785.912 Q145.598 782.347 145.598 775.241 Q145.598 768.111 143.769 764.569 Q141.964 761.005 138.33 761.005 M138.33 757.301 Q144.14 757.301 147.195 761.907 Q150.274 766.491 150.274 775.241 Q150.274 783.967 147.195 788.574 Q144.14 793.157 138.33 793.157 Q132.519 793.157 129.441 788.574 Q126.385 783.967 126.385 775.241 Q126.385 766.491 129.441 761.907 Q132.519 757.301 138.33 757.301 Z" fill="#000000" fill-rule="evenodd" fill-opacity="1" /><path clip-path="url(#clip500)" d="M63.9319 453.53 Q60.3208 453.53 58.4921 457.095 Q56.6865 460.636 56.6865 467.766 Q56.6865 474.872 58.4921 478.437 Q60.3208 481.979 63.9319 481.979 Q67.5661 481.979 69.3717 478.437 Q71.2004 474.872 71.2004 467.766 Q71.2004 460.636 69.3717 457.095 Q67.5661 453.53 63.9319 453.53 M63.9319 449.826 Q69.742 449.826 72.7976 454.433 Q75.8763 459.016 75.8763 467.766 Q75.8763 476.493 72.7976 481.099 Q69.742 485.682 63.9319 485.682 Q58.1217 485.682 55.043 481.099 Q51.9875 476.493 51.9875 467.766 Q51.9875 459.016 55.043 454.433 Q58.1217 449.826 63.9319 449.826 Z" fill="#000000" fill-rule="evenodd" fill-opacity="1" /><path clip-path="url(#clip500)" d="M84.0938 479.132 L88.978 479.132 L88.978 485.011 L84.0938 485.011 L84.0938 479.132 Z" fill="#000000" fill-rule="evenodd" fill-opacity="1" /><path clip-path="url(#clip500)" d="M97.9826 450.451 L120.205 450.451 L120.205 452.442 L107.658 485.011 L102.774 485.011 L114.58 454.386 L97.9826 454.386 L97.9826 450.451 Z" fill="#000000" fill-rule="evenodd" fill-opacity="1" /><path clip-path="url(#clip500)" d="M129.371 450.451 L147.728 450.451 L147.728 454.386 L133.654 454.386 L133.654 462.858 Q134.672 462.511 135.691 462.349 Q136.709 462.164 137.728 462.164 Q143.515 462.164 146.894 465.335 Q150.274 468.507 150.274 473.923 Q150.274 479.502 146.802 482.604 Q143.33 485.682 137.01 485.682 Q134.834 485.682 132.566 485.312 Q130.32 484.942 127.913 484.201 L127.913 479.502 Q129.996 480.636 132.219 481.192 Q134.441 481.747 136.918 481.747 Q140.922 481.747 143.26 479.641 Q145.598 477.534 145.598 473.923 Q145.598 470.312 143.26 468.206 Q140.922 466.099 136.918 466.099 Q135.043 466.099 133.168 466.516 Q131.316 466.932 129.371 467.812 L129.371 450.451 Z" fill="#000000" fill-rule="evenodd" fill-opacity="1" /><path clip-path="url(#clip500)" d="M53.7467 173.601 L61.3856 173.601 L61.3856 147.236 L53.0754 148.902 L53.0754 144.643 L61.3393 142.976 L66.0152 142.976 L66.0152 173.601 L73.654 173.601 L73.654 177.536 L53.7467 177.536 L53.7467 173.601 Z" fill="#000000" fill-rule="evenodd" fill-opacity="1" /><path clip-path="url(#clip500)" d="M83.0984 171.657 L87.9827 171.657 L87.9827 177.536 L83.0984 177.536 L83.0984 171.657 Z" fill="#000000" fill-rule="evenodd" fill-opacity="1" /><path clip-path="url(#clip500)" d="M108.168 146.055 Q104.557 146.055 102.728 149.62 Q100.922 153.161 100.922 160.291 Q100.922 167.397 102.728 170.962 Q104.557 174.504 108.168 174.504 Q111.802 174.504 113.608 170.962 Q115.436 167.397 115.436 160.291 Q115.436 153.161 113.608 149.62 Q111.802 146.055 108.168 146.055 M108.168 142.351 Q113.978 142.351 117.033 146.958 Q120.112 151.541 120.112 160.291 Q120.112 169.018 117.033 173.624 Q113.978 178.208 108.168 178.208 Q102.358 178.208 99.2789 173.624 Q96.2234 169.018 96.2234 160.291 Q96.2234 151.541 99.2789 146.958 Q102.358 142.351 108.168 142.351 Z" fill="#000000" fill-rule="evenodd" fill-opacity="1" /><path clip-path="url(#clip500)" d="M138.33 146.055 Q134.719 146.055 132.89 149.62 Q131.084 153.161 131.084 160.291 Q131.084 167.397 132.89 170.962 Q134.719 174.504 138.33 174.504 Q141.964 174.504 143.769 170.962 Q145.598 167.397 145.598 160.291 Q145.598 153.161 143.769 149.62 Q141.964 146.055 138.33 146.055 M138.33 142.351 Q144.14 142.351 147.195 146.958 Q150.274 151.541 150.274 160.291 Q150.274 169.018 147.195 173.624 Q144.14 178.208 138.33 178.208 Q132.519 178.208 129.441 173.624 Q126.385 169.018 126.385 160.291 Q126.385 151.541 129.441 146.958 Q132.519 142.351 138.33 142.351 Z" fill="#000000" fill-rule="evenodd" fill-opacity="1" /><path clip-path="url(#clip500)" d="M696.92 18.8205 L696.92 41.5461 L707.209 41.5461 Q712.921 41.5461 716.04 38.5889 Q719.159 35.6318 719.159 30.163 Q719.159 24.7348 716.04 21.7777 Q712.921 18.8205 707.209 18.8205 L696.92 18.8205 M688.737 12.096 L707.209 12.096 Q717.377 12.096 722.562 16.714 Q727.788 21.2916 727.788 30.163 Q727.788 39.1155 722.562 43.6931 Q717.377 48.2706 707.209 48.2706 L696.92 48.2706 L696.92 72.576 L688.737 72.576 L688.737 12.096 Z" fill="#000000" fill-rule="evenodd" fill-opacity="1" /><path clip-path="url(#clip500)" d="M763.273 34.1734 Q762.018 33.4443 760.519 33.1202 Q759.061 32.7556 757.278 32.7556 Q750.959 32.7556 747.556 36.8875 Q744.194 40.9789 744.194 48.6757 L744.194 72.576 L736.7 72.576 L736.7 27.2059 L744.194 27.2059 L744.194 34.2544 Q746.543 30.1225 750.311 28.1376 Q754.078 26.1121 759.466 26.1121 Q760.235 26.1121 761.167 26.2337 Q762.099 26.3147 763.233 26.5172 L763.273 34.1734 Z" fill="#000000" fill-rule="evenodd" fill-opacity="1" /><path clip-path="url(#clip500)" d="M791.711 49.7694 Q782.677 49.7694 779.194 51.8354 Q775.71 53.9013 775.71 58.8839 Q775.71 62.8538 778.302 65.2034 Q780.935 67.5124 785.432 67.5124 Q791.63 67.5124 795.357 63.1374 Q799.124 58.7219 799.124 51.4303 L799.124 49.7694 L791.711 49.7694 M806.578 46.6907 L806.578 72.576 L799.124 72.576 L799.124 65.6895 Q796.572 69.8214 792.764 71.8063 Q788.956 73.7508 783.447 73.7508 Q776.479 73.7508 772.347 69.8619 Q768.256 65.9325 768.256 59.3701 Q768.256 51.7138 773.36 47.825 Q778.505 43.9361 788.673 43.9361 L799.124 43.9361 L799.124 43.2069 Q799.124 38.0623 795.721 35.2672 Q792.359 32.4315 786.242 32.4315 Q782.353 32.4315 778.667 33.3632 Q774.981 34.295 771.578 36.1584 L771.578 29.2718 Q775.669 27.692 779.518 26.9223 Q783.366 26.1121 787.012 26.1121 Q796.855 26.1121 801.717 31.2163 Q806.578 36.3204 806.578 46.6907 Z" fill="#000000" fill-rule="evenodd" fill-opacity="1" /><path clip-path="url(#clip500)" d="M859.644 45.1919 L859.644 72.576 L852.191 72.576 L852.191 45.4349 Q852.191 38.994 849.679 35.7938 Q847.168 32.5936 842.145 32.5936 Q836.109 32.5936 832.625 36.4419 Q829.141 40.2903 829.141 46.9338 L829.141 72.576 L821.647 72.576 L821.647 27.2059 L829.141 27.2059 L829.141 34.2544 Q831.815 30.163 835.42 28.1376 Q839.066 26.1121 843.805 26.1121 Q851.624 26.1121 855.634 30.9732 Q859.644 35.7938 859.644 45.1919 Z" fill="#000000" fill-rule="evenodd" fill-opacity="1" /><path clip-path="url(#clip500)" d="M904.366 34.0924 L904.366 9.54393 L911.82 9.54393 L911.82 72.576 L904.366 72.576 L904.366 65.7705 Q902.017 69.8214 898.412 71.8063 Q894.847 73.7508 889.824 73.7508 Q881.6 73.7508 876.415 67.1883 Q871.271 60.6258 871.271 49.9314 Q871.271 39.2371 876.415 32.6746 Q881.6 26.1121 889.824 26.1121 Q894.847 26.1121 898.412 28.0971 Q902.017 30.0415 904.366 34.0924 M878.967 49.9314 Q878.967 58.1548 882.33 62.8538 Q885.732 67.5124 891.647 67.5124 Q897.561 67.5124 900.964 62.8538 Q904.366 58.1548 904.366 49.9314 Q904.366 41.7081 900.964 37.0496 Q897.561 32.3505 891.647 32.3505 Q885.732 32.3505 882.33 37.0496 Q878.967 41.7081 878.967 49.9314 Z" fill="#000000" fill-rule="evenodd" fill-opacity="1" /><path clip-path="url(#clip500)" d="M934.546 14.324 L934.546 27.2059 L949.899 27.2059 L949.899 32.9987 L934.546 32.9987 L934.546 57.6282 Q934.546 63.1779 936.045 64.7578 Q937.584 66.3376 942.242 66.3376 L949.899 66.3376 L949.899 72.576 L942.242 72.576 Q933.614 72.576 930.333 69.3758 Q927.052 66.1351 927.052 57.6282 L927.052 32.9987 L921.583 32.9987 L921.583 27.2059 L927.052 27.2059 L927.052 14.324 L934.546 14.324 Z" fill="#000000" fill-rule="evenodd" fill-opacity="1" /><path clip-path="url(#clip500)" d="M959.702 9.54393 L967.155 9.54393 L967.155 72.576 L959.702 72.576 L959.702 9.54393 Z" fill="#000000" fill-rule="evenodd" fill-opacity="1" /><path clip-path="url(#clip500)" d="M1044.45 35.9153 Q1047.24 30.8922 1051.13 28.5022 Q1055.02 26.1121 1060.29 26.1121 Q1067.37 26.1121 1071.22 31.0947 Q1075.07 36.0368 1075.07 45.1919 L1075.07 72.576 L1067.58 72.576 L1067.58 45.4349 Q1067.58 38.913 1065.27 35.7533 Q1062.96 32.5936 1058.22 32.5936 Q1052.43 32.5936 1049.06 36.4419 Q1045.7 40.2903 1045.7 46.9338 L1045.7 72.576 L1038.21 72.576 L1038.21 45.4349 Q1038.21 38.8725 1035.9 35.7533 Q1033.59 32.5936 1028.77 32.5936 Q1023.06 32.5936 1019.7 36.4824 Q1016.33 40.3308 1016.33 46.9338 L1016.33 72.576 L1008.84 72.576 L1008.84 27.2059 L1016.33 27.2059 L1016.33 34.2544 Q1018.89 30.082 1022.45 28.0971 Q1026.02 26.1121 1030.92 26.1121 Q1035.86 26.1121 1039.3 28.6237 Q1042.79 31.1352 1044.45 35.9153 Z" fill="#000000" fill-rule="evenodd" fill-opacity="1" /><path clip-path="url(#clip500)" d="M1089.94 27.2059 L1097.39 27.2059 L1097.39 72.576 L1089.94 72.576 L1089.94 27.2059 M1089.94 9.54393 L1097.39 9.54393 L1097.39 18.9825 L1089.94 18.9825 L1089.94 9.54393 Z" fill="#000000" fill-rule="evenodd" fill-opacity="1" /><path clip-path="url(#clip500)" d="M1150.7 27.2059 L1134.3 49.2833 L1151.55 72.576 L1142.76 72.576 L1129.56 54.752 L1116.35 72.576 L1107.56 72.576 L1125.18 48.8377 L1109.06 27.2059 L1117.85 27.2059 L1129.88 43.369 L1141.91 27.2059 L1150.7 27.2059 Z" fill="#000000" fill-rule="evenodd" fill-opacity="1" /><path clip-path="url(#clip500)" d="M1162.08 27.2059 L1169.54 27.2059 L1169.54 72.576 L1162.08 72.576 L1162.08 27.2059 M1162.08 9.54393 L1169.54 9.54393 L1169.54 18.9825 L1162.08 18.9825 L1162.08 9.54393 Z" fill="#000000" fill-rule="evenodd" fill-opacity="1" /><path clip-path="url(#clip500)" d="M1222.85 45.1919 L1222.85 72.576 L1215.39 72.576 L1215.39 45.4349 Q1215.39 38.994 1212.88 35.7938 Q1210.37 32.5936 1205.35 32.5936 Q1199.31 32.5936 1195.83 36.4419 Q1192.35 40.2903 1192.35 46.9338 L1192.35 72.576 L1184.85 72.576 L1184.85 27.2059 L1192.35 27.2059 L1192.35 34.2544 Q1195.02 30.163 1198.62 28.1376 Q1202.27 26.1121 1207.01 26.1121 Q1214.83 26.1121 1218.84 30.9732 Q1222.85 35.7938 1222.85 45.1919 Z" fill="#000000" fill-rule="evenodd" fill-opacity="1" /><path clip-path="url(#clip500)" d="M1267.57 49.3643 Q1267.57 41.2625 1264.21 36.8065 Q1260.89 32.3505 1254.85 32.3505 Q1248.86 32.3505 1245.49 36.8065 Q1242.17 41.2625 1242.17 49.3643 Q1242.17 57.4256 1245.49 61.8816 Q1248.86 66.3376 1254.85 66.3376 Q1260.89 66.3376 1264.21 61.8816 Q1267.57 57.4256 1267.57 49.3643 M1275.02 66.9452 Q1275.02 78.5308 1269.88 84.1616 Q1264.73 89.8329 1254.12 89.8329 Q1250.19 89.8329 1246.71 89.2252 Q1243.22 88.6581 1239.94 87.4428 L1239.94 80.1917 Q1243.22 81.9741 1246.42 82.8248 Q1249.63 83.6755 1252.95 83.6755 Q1260.28 83.6755 1263.92 79.8271 Q1267.57 76.0193 1267.57 68.282 L1267.57 64.5957 Q1265.26 68.6061 1261.66 70.5911 Q1258.05 72.576 1253.03 72.576 Q1244.68 72.576 1239.58 66.2161 Q1234.47 59.8562 1234.47 49.3643 Q1234.47 38.832 1239.58 32.472 Q1244.68 26.1121 1253.03 26.1121 Q1258.05 26.1121 1261.66 28.0971 Q1265.26 30.082 1267.57 34.0924 L1267.57 27.2059 L1275.02 27.2059 L1275.02 66.9452 Z" fill="#000000" fill-rule="evenodd" fill-opacity="1" /><path clip-path="url(#clip500)" d="M1316.75 9.54393 L1324.2 9.54393 L1324.2 72.576 L1316.75 72.576 L1316.75 9.54393 Z" fill="#000000" fill-rule="evenodd" fill-opacity="1" /><path clip-path="url(#clip500)" d="M1378.61 48.0275 L1378.61 51.6733 L1344.34 51.6733 Q1344.82 59.3701 1348.95 63.421 Q1353.13 67.4314 1360.54 67.4314 Q1364.83 67.4314 1368.84 66.3781 Q1372.89 65.3249 1376.86 63.2184 L1376.86 70.267 Q1372.85 71.9684 1368.64 72.8596 Q1364.43 73.7508 1360.09 73.7508 Q1349.24 73.7508 1342.88 67.4314 Q1336.56 61.1119 1336.56 50.3365 Q1336.56 39.1965 1342.55 32.6746 Q1348.59 26.1121 1358.8 26.1121 Q1367.95 26.1121 1373.26 32.0264 Q1378.61 37.9003 1378.61 48.0275 M1371.15 45.84 Q1371.07 39.7232 1367.71 36.0774 Q1364.39 32.4315 1358.88 32.4315 Q1352.64 32.4315 1348.87 35.9558 Q1345.15 39.4801 1344.58 45.8805 L1371.15 45.84 Z" fill="#000000" fill-rule="evenodd" fill-opacity="1" /><path clip-path="url(#clip500)" d="M1428.55 45.1919 L1428.55 72.576 L1421.1 72.576 L1421.1 45.4349 Q1421.1 38.994 1418.59 35.7938 Q1416.08 32.5936 1411.05 32.5936 Q1405.02 32.5936 1401.53 36.4419 Q1398.05 40.2903 1398.05 46.9338 L1398.05 72.576 L1390.56 72.576 L1390.56 27.2059 L1398.05 27.2059 L1398.05 34.2544 Q1400.72 30.163 1404.33 28.1376 Q1407.97 26.1121 1412.71 26.1121 Q1420.53 26.1121 1424.54 30.9732 Q1428.55 35.7938 1428.55 45.1919 Z" fill="#000000" fill-rule="evenodd" fill-opacity="1" /><path clip-path="url(#clip500)" d="M1473.28 49.3643 Q1473.28 41.2625 1469.91 36.8065 Q1466.59 32.3505 1460.56 32.3505 Q1454.56 32.3505 1451.2 36.8065 Q1447.88 41.2625 1447.88 49.3643 Q1447.88 57.4256 1451.2 61.8816 Q1454.56 66.3376 1460.56 66.3376 Q1466.59 66.3376 1469.91 61.8816 Q1473.28 57.4256 1473.28 49.3643 M1480.73 66.9452 Q1480.73 78.5308 1475.58 84.1616 Q1470.44 89.8329 1459.83 89.8329 Q1455.9 89.8329 1452.41 89.2252 Q1448.93 88.6581 1445.65 87.4428 L1445.65 80.1917 Q1448.93 81.9741 1452.13 82.8248 Q1455.33 83.6755 1458.65 83.6755 Q1465.98 83.6755 1469.63 79.8271 Q1473.28 76.0193 1473.28 68.282 L1473.28 64.5957 Q1470.97 68.6061 1467.36 70.5911 Q1463.76 72.576 1458.73 72.576 Q1450.39 72.576 1445.28 66.2161 Q1440.18 59.8562 1440.18 49.3643 Q1440.18 38.832 1445.28 32.472 Q1450.39 26.1121 1458.73 26.1121 Q1463.76 26.1121 1467.36 28.0971 Q1470.97 30.082 1473.28 34.0924 L1473.28 27.2059 L1480.73 27.2059 L1480.73 66.9452 Z" fill="#000000" fill-rule="evenodd" fill-opacity="1" /><path clip-path="url(#clip500)" d="M1503.45 14.324 L1503.45 27.2059 L1518.81 27.2059 L1518.81 32.9987 L1503.45 32.9987 L1503.45 57.6282 Q1503.45 63.1779 1504.95 64.7578 Q1506.49 66.3376 1511.15 66.3376 L1518.81 66.3376 L1518.81 72.576 L1511.15 72.576 Q1502.52 72.576 1499.24 69.3758 Q1495.96 66.1351 1495.96 57.6282 L1495.96 32.9987 L1490.49 32.9987 L1490.49 27.2059 L1495.96 27.2059 L1495.96 14.324 L1503.45 14.324 Z" fill="#000000" fill-rule="evenodd" fill-opacity="1" /><path clip-path="url(#clip500)" d="M1566.32 45.1919 L1566.32 72.576 L1558.87 72.576 L1558.87 45.4349 Q1558.87 38.994 1556.36 35.7938 Q1553.85 32.5936 1548.82 32.5936 Q1542.79 32.5936 1539.31 36.4419 Q1535.82 40.2903 1535.82 46.9338 L1535.82 72.576 L1528.33 72.576 L1528.33 9.54393 L1535.82 9.54393 L1535.82 34.2544 Q1538.49 30.163 1542.1 28.1376 Q1545.75 26.1121 1550.49 26.1121 Q1558.3 26.1121 1562.31 30.9732 Q1566.32 35.7938 1566.32 45.1919 Z" fill="#000000" fill-rule="evenodd" fill-opacity="1" /><path clip-path="url(#clip500)" d="M1642.89 35.9153 Q1645.68 30.8922 1649.57 28.5022 Q1653.46 26.1121 1658.73 26.1121 Q1665.81 26.1121 1669.66 31.0947 Q1673.51 36.0368 1673.51 45.1919 L1673.51 72.576 L1666.02 72.576 L1666.02 45.4349 Q1666.02 38.913 1663.71 35.7533 Q1661.4 32.5936 1656.66 32.5936 Q1650.87 32.5936 1647.5 36.4419 Q1644.14 40.2903 1644.14 46.9338 L1644.14 72.576 L1636.65 72.576 L1636.65 45.4349 Q1636.65 38.8725 1634.34 35.7533 Q1632.03 32.5936 1627.21 32.5936 Q1621.5 32.5936 1618.14 36.4824 Q1614.77 40.3308 1614.77 46.9338 L1614.77 72.576 L1607.28 72.576 L1607.28 27.2059 L1614.77 27.2059 L1614.77 34.2544 Q1617.33 30.082 1620.89 28.0971 Q1624.46 26.1121 1629.36 26.1121 Q1634.3 26.1121 1637.74 28.6237 Q1641.23 31.1352 1642.89 35.9153 Z" fill="#000000" fill-rule="evenodd" fill-opacity="1" /><path clip-path="url(#clip500)" d="M1705.96 32.4315 Q1699.96 32.4315 1696.48 37.1306 Q1693 41.7891 1693 49.9314 Q1693 58.0738 1696.44 62.7728 Q1699.92 67.4314 1705.96 67.4314 Q1711.91 67.4314 1715.4 62.7323 Q1718.88 58.0333 1718.88 49.9314 Q1718.88 41.8701 1715.4 37.1711 Q1711.91 32.4315 1705.96 32.4315 M1705.96 26.1121 Q1715.68 26.1121 1721.23 32.4315 Q1726.78 38.7509 1726.78 49.9314 Q1726.78 61.0714 1721.23 67.4314 Q1715.68 73.7508 1705.96 73.7508 Q1696.2 73.7508 1690.65 67.4314 Q1685.14 61.0714 1685.14 49.9314 Q1685.14 38.7509 1690.65 32.4315 Q1696.2 26.1121 1705.96 26.1121 Z" fill="#000000" fill-rule="evenodd" fill-opacity="1" /><path clip-path="url(#clip500)" d="M1768.99 34.0924 L1768.99 9.54393 L1776.45 9.54393 L1776.45 72.576 L1768.99 72.576 L1768.99 65.7705 Q1766.64 69.8214 1763.04 71.8063 Q1759.47 73.7508 1754.45 73.7508 Q1746.23 73.7508 1741.04 67.1883 Q1735.9 60.6258 1735.9 49.9314 Q1735.9 39.2371 1741.04 32.6746 Q1746.23 26.1121 1754.45 26.1121 Q1759.47 26.1121 1763.04 28.0971 Q1766.64 30.0415 1768.99 34.0924 M1743.59 49.9314 Q1743.59 58.1548 1746.95 62.8538 Q1750.36 67.5124 1756.27 67.5124 Q1762.19 67.5124 1765.59 62.8538 Q1768.99 58.1548 1768.99 49.9314 Q1768.99 41.7081 1765.59 37.0496 Q1762.19 32.3505 1756.27 32.3505 Q1750.36 32.3505 1746.95 37.0496 Q1743.59 41.7081 1743.59 49.9314 Z" fill="#000000" fill-rule="evenodd" fill-opacity="1" /><path clip-path="url(#clip500)" d="M1830.61 48.0275 L1830.61 51.6733 L1796.34 51.6733 Q1796.82 59.3701 1800.95 63.421 Q1805.13 67.4314 1812.54 67.4314 Q1816.83 67.4314 1820.84 66.3781 Q1824.89 65.3249 1828.86 63.2184 L1828.86 70.267 Q1824.85 71.9684 1820.64 72.8596 Q1816.43 73.7508 1812.09 73.7508 Q1801.24 73.7508 1794.88 67.4314 Q1788.56 61.1119 1788.56 50.3365 Q1788.56 39.1965 1794.55 32.6746 Q1800.59 26.1121 1810.8 26.1121 Q1819.95 26.1121 1825.26 32.0264 Q1830.61 37.9003 1830.61 48.0275 M1823.15 45.84 Q1823.07 39.7232 1819.71 36.0774 Q1816.39 32.4315 1810.88 32.4315 Q1804.64 32.4315 1800.87 35.9558 Q1797.15 39.4801 1796.58 45.8805 L1823.15 45.84 Z" fill="#000000" fill-rule="evenodd" fill-opacity="1" /><path clip-path="url(#clip500)" d="M1842.84 9.54393 L1850.29 9.54393 L1850.29 72.576 L1842.84 72.576 L1842.84 9.54393 Z" fill="#000000" fill-rule="evenodd" fill-opacity="1" /><polyline clip-path="url(#clip502)" style="stroke:#009af9; stroke-linecap:butt; stroke-linejoin:round; stroke-width:4; stroke-opacity:1; fill:none" points="
  186.274,160.256 194.94,160.847 203.606,161.926 212.272,163.324 220.938,164.978 229.604,166.851 238.27,168.921 246.935,171.168 255.601,173.579 264.267,176.142 
  272.933,178.848 281.599,181.688 290.265,184.655 298.931,187.744 307.597,190.948 316.263,194.262 324.929,197.682 333.595,201.203 342.261,204.822 350.927,208.535 
  359.593,212.339 368.258,216.231 376.924,220.207 385.59,224.265 394.256,228.402 402.922,232.615 411.588,236.903 420.254,241.263 428.92,245.693 437.586,250.191 
  446.252,254.755 454.918,259.382 463.584,264.071 472.25,268.821 480.916,273.629 489.581,278.494 498.247,283.414 506.913,288.388 515.579,293.414 524.245,298.49 
  532.911,303.616 541.577,308.79 550.243,314.009 558.909,319.274 567.575,324.583 576.241,329.935 584.907,335.327 593.573,340.76 602.239,346.231 610.904,351.74 
  619.57,357.286 628.236,362.867 636.902,368.483 645.568,374.132 654.234,379.813 662.9,385.525 671.566,391.267 680.232,397.039 688.898,402.839 697.564,408.666 
  706.23,414.519 714.896,420.398 723.562,426.301 732.227,432.228 740.893,438.177 749.559,444.148 758.225,450.14 766.891,456.152 775.557,462.184 784.223,468.234 
  792.889,474.301 801.555,480.385 810.221,486.486 818.887,492.601 827.553,498.731 836.219,504.875 844.885,511.032 853.55,517.201 862.216,523.382 870.882,529.573 
  879.548,535.775 888.214,541.986 896.88,548.206 905.546,554.434 914.212,560.669 922.878,566.911 931.544,573.159 940.21,579.413 948.876,585.672 957.542,591.935 
  966.207,598.201 974.873,604.47 983.539,610.742 992.205,617.016 1000.87,623.291 1009.54,629.566 1018.2,635.842 1026.87,642.117 1035.53,648.391 1044.2,654.664 
  1052.87,660.934 1061.53,667.202 1070.2,673.466 1078.86,679.727 1087.53,685.983 1096.2,692.235 1104.86,698.482 1113.53,704.723 1122.19,710.957 1130.86,717.185 
  1139.53,723.406 1148.19,729.619 1156.86,735.824 1165.52,742.02 1174.19,748.207 1182.86,754.385 1191.52,760.553 1200.19,766.711 1208.85,772.857 1217.52,778.993 
  1226.19,785.117 1234.85,791.228 1243.52,797.328 1252.18,803.414 1260.85,809.487 1269.51,815.546 1278.18,821.592 1286.85,827.623 1295.51,833.639 1304.18,839.639 
  1312.84,845.625 1321.51,851.594 1330.18,857.547 1338.84,863.483 1347.51,869.402 1356.17,875.304 1364.84,881.188 1373.51,887.054 1382.17,892.902 1390.84,898.731 
  1399.5,904.541 1408.17,910.331 1416.84,916.102 1425.5,921.853 1434.17,927.583 1442.83,933.293 1451.5,938.982 1460.17,944.649 1468.83,950.296 1477.5,955.92 
  1486.16,961.522 1494.83,967.102 1503.49,972.659 1512.16,978.193 1520.83,983.704 1529.49,989.191 1538.16,994.655 1546.82,1000.09 1555.49,1005.51 1564.16,1010.9 
  1572.82,1016.27 1581.49,1021.61 1590.15,1026.92 1598.82,1032.21 1607.49,1037.48 1616.15,1042.72 1624.82,1047.93 1633.48,1053.11 1642.15,1058.27 1650.82,1063.4 
  1659.48,1068.51 1668.15,1073.58 1676.81,1078.63 1685.48,1083.66 1694.15,1088.65 1702.81,1093.61 1711.48,1098.55 1720.14,1103.46 1728.81,1108.34 1737.48,1113.19 
  1746.14,1118.01 1754.81,1122.8 1763.47,1127.56 1772.14,1132.29 1780.8,1136.99 1789.47,1141.66 1798.14,1146.3 1806.8,1150.91 1815.47,1155.49 1824.13,1160.03 
  1832.8,1164.55 1841.47,1169.03 1850.13,1173.49 1858.8,1177.91 1867.46,1182.29 1876.13,1186.65 1884.8,1190.97 1893.46,1195.26 1902.13,1199.52 1910.79,1203.74 
  1919.46,1207.93 1928.13,1212.09 1936.79,1216.21 1945.46,1220.3 1954.12,1224.35 1962.79,1228.38 1971.46,1232.36 1980.12,1236.31 1988.79,1240.23 1997.45,1244.11 
  2006.12,1247.95 2014.78,1251.76 2023.45,1255.53 2032.12,1259.27 2040.78,1262.97 2049.45,1266.63 2058.11,1270.26 2066.78,1273.85 2075.45,1277.4 2084.11,1280.91 
  2092.78,1284.39 2101.44,1287.83 2110.11,1291.22 2118.78,1294.58 2127.44,1297.9 2136.11,1301.18 2144.77,1304.42 2153.44,1307.62 2162.11,1310.78 2170.77,1313.9 
  2179.44,1316.97 2188.1,1320.01 2196.77,1323 2205.44,1325.94 2214.1,1328.85 2222.77,1331.71 2231.43,1334.52 2240.1,1337.29 2248.76,1340.02 2257.43,1342.69 
  2266.1,1345.32 2274.76,1347.9 2283.43,1350.44 2292.09,1352.92 2300.76,1355.35 2309.43,1357.73 2318.09,1360.05 2326.76,1362.32 2335.42,1364.54 2344.09,1366.7 
  2352.76,1368.8 
  "/>
<polyline clip-path="url(#clip502)" style="stroke:#e26f46; stroke-linecap:butt; stroke-linejoin:round; stroke-width:4; stroke-opacity:1; fill:none" points="
  186.274,160.256 194.94,161.1 203.606,162.642 212.272,164.636 220.938,166.996 229.604,169.667 238.27,172.615 246.935,175.815 255.601,179.244 264.267,182.887 
  272.933,186.73 281.599,190.758 290.265,194.963 298.931,199.335 307.597,203.866 316.263,208.547 324.929,213.371 333.595,218.332 342.261,223.424 350.927,228.641 
  359.593,233.98 368.258,239.433 376.924,244.997 385.59,250.667 394.256,256.438 402.922,262.308 411.588,268.272 420.254,274.326 428.92,280.468 437.586,286.693 
  446.252,292.998 454.918,299.38 463.584,305.836 472.25,312.364 480.916,318.96 489.581,325.621 498.247,332.346 506.913,339.131 515.579,345.973 524.245,352.871 
  532.911,359.821 541.577,366.823 550.243,373.872 558.909,380.968 567.575,388.107 576.241,395.289 584.907,402.509 593.573,409.768 602.239,417.062 610.904,424.39 
  619.57,431.75 628.236,439.14 636.902,446.558 645.568,454.002 654.234,461.471 662.9,468.962 671.566,476.475 680.232,484.008 688.898,491.558 697.564,499.125 
  706.23,506.706 714.896,514.301 723.562,521.908 732.227,529.524 740.893,537.15 749.559,544.783 758.225,552.422 766.891,560.066 775.557,567.713 784.223,575.362 
  792.889,583.012 801.555,590.661 810.221,598.308 818.887,605.953 827.553,613.593 836.219,621.227 844.885,628.856 853.55,636.476 862.216,644.087 870.882,651.689 
  879.548,659.28 888.214,666.858 896.88,674.423 905.546,681.975 914.212,689.511 922.878,697.031 931.544,704.534 940.21,712.019 948.876,719.485 957.542,726.931 
  966.207,734.357 974.873,741.761 983.539,749.142 992.205,756.5 1000.87,763.834 1009.54,771.144 1018.2,778.427 1026.87,785.684 1035.53,792.914 1044.2,800.115 
  1052.87,807.288 1061.53,814.432 1070.2,821.546 1078.86,828.628 1087.53,835.679 1096.2,842.699 1104.86,849.685 1113.53,856.638 1122.19,863.557 1130.86,870.442 
  1139.53,877.291 1148.19,884.104 1156.86,890.882 1165.52,897.622 1174.19,904.325 1182.86,910.991 1191.52,917.618 1200.19,924.206 1208.85,930.755 1217.52,937.264 
  1226.19,943.733 1234.85,950.161 1243.52,956.548 1252.18,962.893 1260.85,969.197 1269.51,975.458 1278.18,981.677 1286.85,987.853 1295.51,993.985 1304.18,1000.07 
  1312.84,1006.12 1321.51,1012.12 1330.18,1018.07 1338.84,1023.98 1347.51,1029.85 1356.17,1035.67 1364.84,1041.44 1373.51,1047.17 1382.17,1052.85 1390.84,1058.48 
  1399.5,1064.07 1408.17,1069.61 1416.84,1075.1 1425.5,1080.55 1434.17,1085.95 1442.83,1091.3 1451.5,1096.6 1460.17,1101.85 1468.83,1107.06 1477.5,1112.22 
  1486.16,1117.32 1494.83,1122.38 1503.49,1127.4 1512.16,1132.36 1520.83,1137.27 1529.49,1142.13 1538.16,1146.95 1546.82,1151.71 1555.49,1156.43 1564.16,1161.09 
  1572.82,1165.71 1581.49,1170.27 1590.15,1174.79 1598.82,1179.26 1607.49,1183.67 1616.15,1188.04 1624.82,1192.36 1633.48,1196.63 1642.15,1200.84 1650.82,1205.01 
  1659.48,1209.13 1668.15,1213.2 1676.81,1217.22 1685.48,1221.18 1694.15,1225.1 1702.81,1228.97 1711.48,1232.79 1720.14,1236.56 1728.81,1240.28 1737.48,1243.95 
  1746.14,1247.57 1754.81,1251.15 1763.47,1254.67 1772.14,1258.14 1780.8,1261.57 1789.47,1264.94 1798.14,1268.27 1806.8,1271.55 1815.47,1274.78 1824.13,1277.96 
  1832.8,1281.09 1841.47,1284.17 1850.13,1287.21 1858.8,1290.19 1867.46,1293.13 1876.13,1296.02 1884.8,1298.87 1893.46,1301.66 1902.13,1304.41 1910.79,1307.11 
  1919.46,1309.76 1928.13,1312.37 1936.79,1314.93 1945.46,1317.45 1954.12,1319.91 1962.79,1322.33 1971.46,1324.71 1980.12,1327.03 1988.79,1329.32 1997.45,1331.55 
  2006.12,1333.75 2014.78,1335.89 2023.45,1337.99 2032.12,1340.05 2040.78,1342.06 2049.45,1344.03 2058.11,1345.95 2066.78,1347.83 2075.45,1349.66 2084.11,1351.45 
  2092.78,1353.2 2101.44,1354.9 2110.11,1356.56 2118.78,1358.18 2127.44,1359.75 2136.11,1361.29 2144.77,1362.78 2153.44,1364.22 2162.11,1365.63 2170.77,1366.99 
  2179.44,1368.32 2188.1,1369.6 2196.77,1370.84 2205.44,1372.04 2214.1,1373.2 2222.77,1374.32 2231.43,1375.4 2240.1,1376.43 2248.76,1377.43 2257.43,1378.39 
  2266.1,1379.31 2274.76,1380.19 2283.43,1381.03 2292.09,1381.84 2300.76,1382.6 2309.43,1383.33 2318.09,1384.02 2326.76,1384.67 2335.42,1385.28 2344.09,1385.86 
  2352.76,1386.4 
  "/>
<path clip-path="url(#clip500)" d="
M1952.99 322.316 L2280.54 322.316 L2280.54 166.796 L1952.99 166.796  Z
  " fill="#ffffff" fill-rule="evenodd" fill-opacity="1"/>
<polyline clip-path="url(#clip500)" style="stroke:#000000; stroke-linecap:butt; stroke-linejoin:round; stroke-width:4; stroke-opacity:1; fill:none" points="
  1952.99,322.316 2280.54,322.316 2280.54,166.796 1952.99,166.796 1952.99,322.316 
  "/>
<polyline clip-path="url(#clip500)" style="stroke:#009af9; stroke-linecap:butt; stroke-linejoin:round; stroke-width:4; stroke-opacity:1; fill:none" points="
  1977.06,218.636 2121.5,218.636 
  "/>
<path clip-path="url(#clip500)" d="M2164.48 222.652 Q2164.48 218.022 2162.56 215.476 Q2160.66 212.93 2157.21 212.93 Q2153.79 212.93 2151.86 215.476 Q2149.97 218.022 2149.97 222.652 Q2149.97 227.258 2151.86 229.805 Q2153.79 232.351 2157.21 232.351 Q2160.66 232.351 2162.56 229.805 Q2164.48 227.258 2164.48 222.652 M2168.74 232.698 Q2168.74 239.318 2165.8 242.536 Q2162.86 245.777 2156.79 245.777 Q2154.55 245.777 2152.56 245.43 Q2150.57 245.105 2148.69 244.411 L2148.69 240.268 Q2150.57 241.286 2152.4 241.772 Q2154.22 242.258 2156.12 242.258 Q2160.31 242.258 2162.4 240.059 Q2164.48 237.883 2164.48 233.462 L2164.48 231.356 Q2163.16 233.647 2161.1 234.781 Q2159.04 235.916 2156.17 235.916 Q2151.4 235.916 2148.48 232.281 Q2145.57 228.647 2145.57 222.652 Q2145.57 216.633 2148.48 212.999 Q2151.4 209.365 2156.17 209.365 Q2159.04 209.365 2161.1 210.499 Q2163.16 211.633 2164.48 213.925 L2164.48 209.99 L2168.74 209.99 L2168.74 232.698 Z" fill="#000000" fill-rule="evenodd" fill-opacity="1" /><path clip-path="url(#clip500)" d="M2187.74 199.944 Q2184.64 205.268 2183.14 210.476 Q2181.63 215.684 2181.63 221.032 Q2181.63 226.379 2183.14 231.633 Q2184.66 236.865 2187.74 242.166 L2184.04 242.166 Q2180.57 236.726 2178.83 231.471 Q2177.12 226.217 2177.12 221.032 Q2177.12 215.87 2178.83 210.638 Q2180.54 205.407 2184.04 199.944 L2187.74 199.944 Z" fill="#000000" fill-rule="evenodd" fill-opacity="1" /><path clip-path="url(#clip500)" d="M2208.44 232.976 Q2211.49 232.999 2213.32 234.735 Q2215.27 236.564 2215.27 239.342 Q2215.27 242.004 2213.55 243.855 Q2211.7 245.869 2207.93 245.869 Q2207.93 244.133 2207.93 242.374 Q2209.53 242.49 2210.5 241.471 Q2211.24 240.661 2211.24 239.805 Q2211.24 238.578 2210.5 237.559 Q2209.78 236.587 2208.44 236.587 Q2194.02 236.587 2194.02 226.471 Q2194.02 219.527 2201.72 217.49 Q2195.24 216.657 2195.24 210.638 Q2195.24 206.078 2200.34 204.18 L2195.52 204.18 L2195.52 199.897 L2213.78 199.897 L2213.78 204.18 Q2199.22 204.18 2199.22 210.916 Q2199.22 215.337 2211.45 215.545 L2211.45 219.481 Q2198.25 218.971 2198.3 226.471 Q2198.32 232.744 2208.44 232.976 Z" fill="#000000" fill-rule="evenodd" fill-opacity="1" /><path clip-path="url(#clip500)" d="M2221.77 199.944 L2225.47 199.944 Q2228.95 205.407 2230.66 210.638 Q2232.4 215.87 2232.4 221.032 Q2232.4 226.217 2230.66 231.471 Q2228.95 236.726 2225.47 242.166 L2221.77 242.166 Q2224.85 236.865 2226.35 231.633 Q2227.88 226.379 2227.88 221.032 Q2227.88 215.684 2226.35 210.476 Q2224.85 205.268 2221.77 199.944 Z" fill="#000000" fill-rule="evenodd" fill-opacity="1" /><polyline clip-path="url(#clip500)" style="stroke:#e26f46; stroke-linecap:butt; stroke-linejoin:round; stroke-width:4; stroke-opacity:1; fill:none" points="
  1977.06,270.476 2121.5,270.476 
  "/>
<path clip-path="url(#clip500)" d="M2162.07 251.737 L2162.07 255.279 L2158 255.279 Q2155.71 255.279 2154.8 256.205 Q2153.92 257.131 2153.92 259.538 L2153.92 261.83 L2160.94 261.83 L2160.94 265.14 L2153.92 265.14 L2153.92 287.756 L2149.64 287.756 L2149.64 265.14 L2145.57 265.14 L2145.57 261.83 L2149.64 261.83 L2149.64 260.024 Q2149.64 255.696 2151.66 253.728 Q2153.67 251.737 2158.04 251.737 L2162.07 251.737 Z" fill="#000000" fill-rule="evenodd" fill-opacity="1" /><path clip-path="url(#clip500)" d="M2175.87 251.784 Q2172.77 257.108 2171.26 262.316 Q2169.76 267.524 2169.76 272.872 Q2169.76 278.219 2171.26 283.473 Q2172.79 288.705 2175.87 294.006 L2172.16 294.006 Q2168.69 288.566 2166.96 283.311 Q2165.24 278.057 2165.24 272.872 Q2165.24 267.71 2166.96 262.478 Q2168.67 257.247 2172.16 251.784 L2175.87 251.784 Z" fill="#000000" fill-rule="evenodd" fill-opacity="1" /><path clip-path="url(#clip500)" d="M2196.56 284.816 Q2199.62 284.839 2201.45 286.575 Q2203.39 288.404 2203.39 291.182 Q2203.39 293.844 2201.68 295.695 Q2199.83 297.709 2196.05 297.709 Q2196.05 295.973 2196.05 294.214 Q2197.65 294.33 2198.62 293.311 Q2199.36 292.501 2199.36 291.645 Q2199.36 290.418 2198.62 289.399 Q2197.91 288.427 2196.56 288.427 Q2182.14 288.427 2182.14 278.311 Q2182.14 271.367 2189.85 269.33 Q2183.37 268.497 2183.37 262.478 Q2183.37 257.918 2188.46 256.02 L2183.65 256.02 L2183.65 251.737 L2201.91 251.737 L2201.91 256.02 Q2187.35 256.02 2187.35 262.756 Q2187.35 267.177 2199.57 267.385 L2199.57 271.321 Q2186.38 270.811 2186.42 278.311 Q2186.45 284.584 2196.56 284.816 Z" fill="#000000" fill-rule="evenodd" fill-opacity="1" /><path clip-path="url(#clip500)" d="M2209.9 251.784 L2213.6 251.784 Q2217.07 257.247 2218.78 262.478 Q2220.52 267.71 2220.52 272.872 Q2220.52 278.057 2218.78 283.311 Q2217.07 288.566 2213.6 294.006 L2209.9 294.006 Q2212.97 288.705 2214.48 283.473 Q2216.01 278.219 2216.01 272.872 Q2216.01 267.524 2214.48 262.316 Q2212.97 257.108 2209.9 251.784 Z" fill="#000000" fill-rule="evenodd" fill-opacity="1" /></svg>
