<?xml version="1.0" encoding="utf-8"?>
<svg xmlns="http://www.w3.org/2000/svg" xmlns:xlink="http://www.w3.org/1999/xlink" width="600" height="400" viewBox="0 0 2400 1600">
<defs>
  <clipPath id="clip580">
    <rect x="0" y="0" width="2400" height="1600"/>
  </clipPath>
</defs>
<path clip-path="url(#clip580)" d="
M0 1600 L2400 1600 L2400 0 L0 0  Z
  " fill="#ffffff" fill-rule="evenodd" fill-opacity="1"/>
<defs>
  <clipPath id="clip581">
    <rect x="480" y="0" width="1681" height="1600"/>
  </clipPath>
</defs>
<path clip-path="url(#clip580)" d="
M186.274 1423.18 L2352.76 1423.18 L2352.76 123.472 L186.274 123.472  Z
  " fill="#ffffff" fill-rule="evenodd" fill-opacity="1"/>
<defs>
  <clipPath id="clip582">
    <rect x="186" y="123" width="2167" height="1301"/>
  </clipPath>
</defs>
<polyline clip-path="url(#clip582)" style="stroke:#000000; stroke-linecap:butt; stroke-linejoin:round; stroke-width:2; stroke-opacity:0.1; fill:none" points="
  186.274,1423.18 186.274,123.472 
  "/>
<polyline clip-path="url(#clip582)" style="stroke:#000000; stroke-linecap:butt; stroke-linejoin:round; stroke-width:2; stroke-opacity:0.1; fill:none" points="
  697.237,1423.18 697.237,123.472 
  "/>
<polyline clip-path="url(#clip582)" style="stroke:#000000; stroke-linecap:butt; stroke-linejoin:round; stroke-width:2; stroke-opacity:0.1; fill:none" points="
  1208.2,1423.18 1208.2,123.472 
  "/>
<polyline clip-path="url(#clip582)" style="stroke:#000000; stroke-linecap:butt; stroke-linejoin:round; stroke-width:2; stroke-opacity:0.1; fill:none" points="
  1719.16,1423.18 1719.16,123.472 
  "/>
<polyline clip-path="url(#clip582)" style="stroke:#000000; stroke-linecap:butt; stroke-linejoin:round; stroke-width:2; stroke-opacity:0.1; fill:none" points="
  2230.12,1423.18 2230.12,123.472 
  "/>
<polyline clip-path="url(#clip580)" style="stroke:#000000; stroke-linecap:butt; stroke-linejoin:round; stroke-width:4; stroke-opacity:1; fill:none" points="
  186.274,1423.18 2352.76,1423.18 
  "/>
<polyline clip-path="url(#clip580)" style="stroke:#000000; stroke-linecap:butt; stroke-linejoin:round; stroke-width:4; stroke-opacity:1; fill:none" points="
  186.274,1423.18 186.274,1404.28 
  "/>
<polyline clip-path="url(#clip580)" style="stroke:#000000; stroke-linecap:butt; stroke-linejoin:round; stroke-width:4; stroke-opacity:1; fill:none" points="
  697.237,1423.18 697.237,1404.28 
  "/>
<polyline clip-path="url(#clip580)" style="stroke:#000000; stroke-linecap:butt; stroke-linejoin:round; stroke-width:4; stroke-opacity:1; fill:none" points="
  1208.2,1423.18 1208.2,1404.28 
  "/>
<polyline clip-path="url(#clip580)" style="stroke:#000000; stroke-linecap:butt; stroke-linejoin:round; stroke-width:4; stroke-opacity:1; fill:none" points="
  1719.16,1423.18 1719.16,1404.28 
  "/>
<polyline clip-path="url(#clip580)" style="stroke:#000000; stroke-linecap:butt; stroke-linejoin:round; stroke-width:4; stroke-opacity:1; fill:none" points="
  2230.12,1423.18 2230.12,1404.28 
  "/>
<path clip-path="url(#clip580)" d="M148.577 1454.1 Q144.966 1454.1 143.138 1457.66 Q141.332 1461.2 141.332 1468.33 Q141.332 1475.44 143.138 1479.01 Q144.966 1482.55 148.577 1482.55 Q152.212 1482.55 154.017 1479.01 Q155.846 1475.44 155.846 1468.33 Q155.846 1461.2 154.017 1457.66 Q152.212 1454.1 148.577 1454.1 M148.577 1450.39 Q154.388 1450.39 157.443 1455 Q160.522 1459.58 160.522 1468.33 Q160.522 1477.06 157.443 1481.67 Q154.388 1486.25 148.577 1486.25 Q142.767 1486.25 139.689 1481.67 Q136.633 1477.06 136.633 1468.33 Q136.633 1459.58 139.689 1455 Q142.767 1450.39 148.577 1450.39 Z" fill="#000000" fill-rule="evenodd" fill-opacity="1" /><path clip-path="url(#clip580)" d="M168.739 1479.7 L173.624 1479.7 L173.624 1485.58 L168.739 1485.58 L168.739 1479.7 Z" fill="#000000" fill-rule="evenodd" fill-opacity="1" /><path clip-path="url(#clip580)" d="M193.809 1454.1 Q190.198 1454.1 188.369 1457.66 Q186.563 1461.2 186.563 1468.33 Q186.563 1475.44 188.369 1479.01 Q190.198 1482.55 193.809 1482.55 Q197.443 1482.55 199.248 1479.01 Q201.077 1475.44 201.077 1468.33 Q201.077 1461.2 199.248 1457.66 Q197.443 1454.1 193.809 1454.1 M193.809 1450.39 Q199.619 1450.39 202.674 1455 Q205.753 1459.58 205.753 1468.33 Q205.753 1477.06 202.674 1481.67 Q199.619 1486.25 193.809 1486.25 Q187.999 1486.25 184.92 1481.67 Q181.864 1477.06 181.864 1468.33 Q181.864 1459.58 184.92 1455 Q187.999 1450.39 193.809 1450.39 Z" fill="#000000" fill-rule="evenodd" fill-opacity="1" /><path clip-path="url(#clip580)" d="M223.971 1454.1 Q220.359 1454.1 218.531 1457.66 Q216.725 1461.2 216.725 1468.33 Q216.725 1475.44 218.531 1479.01 Q220.359 1482.55 223.971 1482.55 Q227.605 1482.55 229.41 1479.01 Q231.239 1475.44 231.239 1468.33 Q231.239 1461.2 229.41 1457.66 Q227.605 1454.1 223.971 1454.1 M223.971 1450.39 Q229.781 1450.39 232.836 1455 Q235.915 1459.58 235.915 1468.33 Q235.915 1477.06 232.836 1481.67 Q229.781 1486.25 223.971 1486.25 Q218.16 1486.25 215.082 1481.67 Q212.026 1477.06 212.026 1468.33 Q212.026 1459.58 215.082 1455 Q218.16 1450.39 223.971 1450.39 Z" fill="#000000" fill-rule="evenodd" fill-opacity="1" /><path clip-path="url(#clip580)" d="M660.038 1454.1 Q656.427 1454.1 654.598 1457.66 Q652.793 1461.2 652.793 1468.33 Q652.793 1475.44 654.598 1479.01 Q656.427 1482.55 660.038 1482.55 Q663.672 1482.55 665.478 1479.01 Q667.306 1475.44 667.306 1468.33 Q667.306 1461.2 665.478 1457.66 Q663.672 1454.1 660.038 1454.1 M660.038 1450.39 Q665.848 1450.39 668.904 1455 Q671.982 1459.58 671.982 1468.33 Q671.982 1477.06 668.904 1481.67 Q665.848 1486.25 660.038 1486.25 Q654.228 1486.25 651.149 1481.67 Q648.093 1477.06 648.093 1468.33 Q648.093 1459.58 651.149 1455 Q654.228 1450.39 660.038 1450.39 Z" fill="#000000" fill-rule="evenodd" fill-opacity="1" /><path clip-path="url(#clip580)" d="M680.2 1479.7 L685.084 1479.7 L685.084 1485.58 L680.2 1485.58 L680.2 1479.7 Z" fill="#000000" fill-rule="evenodd" fill-opacity="1" /><path clip-path="url(#clip580)" d="M705.269 1454.1 Q701.658 1454.1 699.829 1457.66 Q698.024 1461.2 698.024 1468.33 Q698.024 1475.44 699.829 1479.01 Q701.658 1482.55 705.269 1482.55 Q708.903 1482.55 710.709 1479.01 Q712.538 1475.44 712.538 1468.33 Q712.538 1461.2 710.709 1457.66 Q708.903 1454.1 705.269 1454.1 M705.269 1450.39 Q711.079 1450.39 714.135 1455 Q717.213 1459.58 717.213 1468.33 Q717.213 1477.06 714.135 1481.67 Q711.079 1486.25 705.269 1486.25 Q699.459 1486.25 696.38 1481.67 Q693.325 1477.06 693.325 1468.33 Q693.325 1459.58 696.38 1455 Q699.459 1450.39 705.269 1450.39 Z" fill="#000000" fill-rule="evenodd" fill-opacity="1" /><path clip-path="url(#clip580)" d="M725.477 1451.02 L743.834 1451.02 L743.834 1454.96 L729.76 1454.96 L729.76 1463.43 Q730.778 1463.08 731.797 1462.92 Q732.815 1462.73 733.834 1462.73 Q739.621 1462.73 743 1465.9 Q746.38 1469.08 746.38 1474.49 Q746.38 1480.07 742.908 1483.17 Q739.436 1486.25 733.116 1486.25 Q730.94 1486.25 728.672 1485.88 Q726.426 1485.51 724.019 1484.77 L724.019 1480.07 Q726.102 1481.2 728.325 1481.76 Q730.547 1482.32 733.024 1482.32 Q737.028 1482.32 739.366 1480.21 Q741.704 1478.1 741.704 1474.49 Q741.704 1470.88 739.366 1468.77 Q737.028 1466.67 733.024 1466.67 Q731.149 1466.67 729.274 1467.08 Q727.422 1467.5 725.477 1468.38 L725.477 1451.02 Z" fill="#000000" fill-rule="evenodd" fill-opacity="1" /><path clip-path="url(#clip580)" d="M1170.5 1454.1 Q1166.89 1454.1 1165.06 1457.66 Q1163.26 1461.2 1163.26 1468.33 Q1163.26 1475.44 1165.06 1479.01 Q1166.89 1482.55 1170.5 1482.55 Q1174.14 1482.55 1175.94 1479.01 Q1177.77 1475.44 1177.77 1468.33 Q1177.77 1461.2 1175.94 1457.66 Q1174.14 1454.1 1170.5 1454.1 M1170.5 1450.39 Q1176.31 1450.39 1179.37 1455 Q1182.45 1459.58 1182.45 1468.33 Q1182.45 1477.06 1179.37 1481.67 Q1176.31 1486.25 1170.5 1486.25 Q1164.69 1486.25 1161.61 1481.67 Q1158.56 1477.06 1158.56 1468.33 Q1158.56 1459.58 1161.61 1455 Q1164.69 1450.39 1170.5 1450.39 Z" fill="#000000" fill-rule="evenodd" fill-opacity="1" /><path clip-path="url(#clip580)" d="M1190.66 1479.7 L1195.55 1479.7 L1195.55 1485.58 L1190.66 1485.58 L1190.66 1479.7 Z" fill="#000000" fill-rule="evenodd" fill-opacity="1" /><path clip-path="url(#clip580)" d="M1206.54 1481.64 L1214.18 1481.64 L1214.18 1455.28 L1205.87 1456.95 L1205.87 1452.69 L1214.14 1451.02 L1218.81 1451.02 L1218.81 1481.64 L1226.45 1481.64 L1226.45 1485.58 L1206.54 1485.58 L1206.54 1481.64 Z" fill="#000000" fill-rule="evenodd" fill-opacity="1" /><path clip-path="url(#clip580)" d="M1245.9 1454.1 Q1242.28 1454.1 1240.46 1457.66 Q1238.65 1461.2 1238.65 1468.33 Q1238.65 1475.44 1240.46 1479.01 Q1242.28 1482.55 1245.9 1482.55 Q1249.53 1482.55 1251.34 1479.01 Q1253.16 1475.44 1253.16 1468.33 Q1253.16 1461.2 1251.34 1457.66 Q1249.53 1454.1 1245.9 1454.1 M1245.9 1450.39 Q1251.71 1450.39 1254.76 1455 Q1257.84 1459.58 1257.84 1468.33 Q1257.84 1477.06 1254.76 1481.67 Q1251.71 1486.25 1245.9 1486.25 Q1240.09 1486.25 1237.01 1481.67 Q1233.95 1477.06 1233.95 1468.33 Q1233.95 1459.58 1237.01 1455 Q1240.09 1450.39 1245.9 1450.39 Z" fill="#000000" fill-rule="evenodd" fill-opacity="1" /><path clip-path="url(#clip580)" d="M1681.96 1454.1 Q1678.35 1454.1 1676.52 1457.66 Q1674.72 1461.2 1674.72 1468.33 Q1674.72 1475.44 1676.52 1479.01 Q1678.35 1482.55 1681.96 1482.55 Q1685.6 1482.55 1687.4 1479.01 Q1689.23 1475.44 1689.23 1468.33 Q1689.23 1461.2 1687.4 1457.66 Q1685.6 1454.1 1681.96 1454.1 M1681.96 1450.39 Q1687.77 1450.39 1690.83 1455 Q1693.91 1459.58 1693.91 1468.33 Q1693.91 1477.06 1690.83 1481.67 Q1687.77 1486.25 1681.96 1486.25 Q1676.15 1486.25 1673.07 1481.67 Q1670.02 1477.06 1670.02 1468.33 Q1670.02 1459.58 1673.07 1455 Q1676.15 1450.39 1681.96 1450.39 Z" fill="#000000" fill-rule="evenodd" fill-opacity="1" /><path clip-path="url(#clip580)" d="M1702.13 1479.7 L1707.01 1479.7 L1707.01 1485.58 L1702.13 1485.58 L1702.13 1479.7 Z" fill="#000000" fill-rule="evenodd" fill-opacity="1" /><path clip-path="url(#clip580)" d="M1718 1481.64 L1725.64 1481.64 L1725.64 1455.28 L1717.33 1456.95 L1717.33 1452.69 L1725.6 1451.02 L1730.27 1451.02 L1730.27 1481.64 L1737.91 1481.64 L1737.91 1485.58 L1718 1485.58 L1718 1481.64 Z" fill="#000000" fill-rule="evenodd" fill-opacity="1" /><path clip-path="url(#clip580)" d="M1747.4 1451.02 L1765.76 1451.02 L1765.76 1454.96 L1751.69 1454.96 L1751.69 1463.43 Q1752.7 1463.08 1753.72 1462.92 Q1754.74 1462.73 1755.76 1462.73 Q1761.55 1462.73 1764.93 1465.9 Q1768.31 1469.08 1768.31 1474.49 Q1768.31 1480.07 1764.83 1483.17 Q1761.36 1486.25 1755.04 1486.25 Q1752.87 1486.25 1750.6 1485.88 Q1748.35 1485.51 1745.94 1484.77 L1745.94 1480.07 Q1748.03 1481.2 1750.25 1481.76 Q1752.47 1482.32 1754.95 1482.32 Q1758.95 1482.32 1761.29 1480.21 Q1763.63 1478.1 1763.63 1474.49 Q1763.63 1470.88 1761.29 1468.77 Q1758.95 1466.67 1754.95 1466.67 Q1753.07 1466.67 1751.2 1467.08 Q1749.35 1467.5 1747.4 1468.38 L1747.4 1451.02 Z" fill="#000000" fill-rule="evenodd" fill-opacity="1" /><path clip-path="url(#clip580)" d="M2192.43 1454.1 Q2188.82 1454.1 2186.99 1457.66 Q2185.18 1461.2 2185.18 1468.33 Q2185.18 1475.44 2186.99 1479.01 Q2188.82 1482.55 2192.43 1482.55 Q2196.06 1482.55 2197.87 1479.01 Q2199.7 1475.44 2199.7 1468.33 Q2199.7 1461.2 2197.87 1457.66 Q2196.06 1454.1 2192.43 1454.1 M2192.43 1450.39 Q2198.24 1450.39 2201.29 1455 Q2204.37 1459.58 2204.37 1468.33 Q2204.37 1477.06 2201.29 1481.67 Q2198.24 1486.25 2192.43 1486.25 Q2186.62 1486.25 2183.54 1481.67 Q2180.48 1477.06 2180.48 1468.33 Q2180.48 1459.58 2183.54 1455 Q2186.62 1450.39 2192.43 1450.39 Z" fill="#000000" fill-rule="evenodd" fill-opacity="1" /><path clip-path="url(#clip580)" d="M2212.59 1479.7 L2217.47 1479.7 L2217.47 1485.58 L2212.59 1485.58 L2212.59 1479.7 Z" fill="#000000" fill-rule="evenodd" fill-opacity="1" /><path clip-path="url(#clip580)" d="M2231.69 1481.64 L2248.01 1481.64 L2248.01 1485.58 L2226.06 1485.58 L2226.06 1481.64 Q2228.72 1478.89 2233.31 1474.26 Q2237.91 1469.61 2239.09 1468.27 Q2241.34 1465.74 2242.22 1464.01 Q2243.12 1462.25 2243.12 1460.56 Q2243.12 1457.8 2241.18 1456.07 Q2239.26 1454.33 2236.15 1454.33 Q2233.96 1454.33 2231.5 1455.09 Q2229.07 1455.86 2226.29 1457.41 L2226.29 1452.69 Q2229.12 1451.55 2231.57 1450.97 Q2234.03 1450.39 2236.06 1450.39 Q2241.43 1450.39 2244.63 1453.08 Q2247.82 1455.77 2247.82 1460.26 Q2247.82 1462.39 2247.01 1464.31 Q2246.22 1466.2 2244.12 1468.8 Q2243.54 1469.47 2240.44 1472.69 Q2237.34 1475.88 2231.69 1481.64 Z" fill="#000000" fill-rule="evenodd" fill-opacity="1" /><path clip-path="url(#clip580)" d="M2267.82 1454.1 Q2264.21 1454.1 2262.38 1457.66 Q2260.58 1461.2 2260.58 1468.33 Q2260.58 1475.44 2262.38 1479.01 Q2264.21 1482.55 2267.82 1482.55 Q2271.46 1482.55 2273.26 1479.01 Q2275.09 1475.44 2275.09 1468.33 Q2275.09 1461.2 2273.26 1457.66 Q2271.46 1454.1 2267.82 1454.1 M2267.82 1450.39 Q2273.63 1450.39 2276.69 1455 Q2279.77 1459.58 2279.77 1468.33 Q2279.77 1477.06 2276.69 1481.67 Q2273.63 1486.25 2267.82 1486.25 Q2262.01 1486.25 2258.93 1481.67 Q2255.88 1477.06 2255.88 1468.33 Q2255.88 1459.58 2258.93 1455 Q2262.01 1450.39 2267.82 1450.39 Z" fill="#000000" fill-rule="evenodd" fill-opacity="1" /><path clip-path="url(#clip580)" d="M1274.73 1564 Q1278.94 1564.03 1281.45 1566.42 Q1284.12 1568.94 1284.12 1572.75 Q1284.12 1576.41 1281.77 1578.96 Q1279.22 1581.73 1274.03 1581.73 Q1274.03 1579.34 1274.03 1576.92 Q1276.23 1577.08 1277.57 1575.68 Q1278.59 1574.57 1278.59 1573.39 Q1278.59 1571.7 1277.57 1570.3 Q1276.58 1568.97 1274.73 1568.97 Q1254.91 1568.97 1254.91 1555.06 Q1254.91 1545.51 1265.5 1542.71 Q1256.59 1541.56 1256.59 1533.29 Q1256.59 1527.02 1263.59 1524.41 L1256.97 1524.41 L1256.97 1518.52 L1282.09 1518.52 L1282.09 1524.41 Q1262.07 1524.41 1262.07 1533.67 Q1262.07 1539.75 1278.87 1540.03 L1278.87 1545.45 Q1260.73 1544.75 1260.79 1555.06 Q1260.83 1563.68 1274.73 1564 Z" fill="#000000" fill-rule="evenodd" fill-opacity="1" /><polyline clip-path="url(#clip582)" style="stroke:#000000; stroke-linecap:butt; stroke-linejoin:round; stroke-width:2; stroke-opacity:0.1; fill:none" points="
  186.274,1402.72 2352.76,1402.72 
  "/>
<polyline clip-path="url(#clip582)" style="stroke:#000000; stroke-linecap:butt; stroke-linejoin:round; stroke-width:2; stroke-opacity:0.1; fill:none" points="
  186.274,1092.1 2352.76,1092.1 
  "/>
<polyline clip-path="url(#clip582)" style="stroke:#000000; stroke-linecap:butt; stroke-linejoin:round; stroke-width:2; stroke-opacity:0.1; fill:none" points="
  186.274,781.488 2352.76,781.488 
  "/>
<polyline clip-path="url(#clip582)" style="stroke:#000000; stroke-linecap:butt; stroke-linejoin:round; stroke-width:2; stroke-opacity:0.1; fill:none" points="
  186.274,470.872 2352.76,470.872 
  "/>
<polyline clip-path="url(#clip582)" style="stroke:#000000; stroke-linecap:butt; stroke-linejoin:round; stroke-width:2; stroke-opacity:0.1; fill:none" points="
  186.274,160.256 2352.76,160.256 
  "/>
<polyline clip-path="url(#clip580)" style="stroke:#000000; stroke-linecap:butt; stroke-linejoin:round; stroke-width:4; stroke-opacity:1; fill:none" points="
  186.274,1423.18 186.274,123.472 
  "/>
<polyline clip-path="url(#clip580)" style="stroke:#000000; stroke-linecap:butt; stroke-linejoin:round; stroke-width:4; stroke-opacity:1; fill:none" points="
  186.274,1402.72 205.172,1402.72 
  "/>
<polyline clip-path="url(#clip580)" style="stroke:#000000; stroke-linecap:butt; stroke-linejoin:round; stroke-width:4; stroke-opacity:1; fill:none" points="
  186.274,1092.1 205.172,1092.1 
  "/>
<polyline clip-path="url(#clip580)" style="stroke:#000000; stroke-linecap:butt; stroke-linejoin:round; stroke-width:4; stroke-opacity:1; fill:none" points="
  186.274,781.488 205.172,781.488 
  "/>
<polyline clip-path="url(#clip580)" style="stroke:#000000; stroke-linecap:butt; stroke-linejoin:round; stroke-width:4; stroke-opacity:1; fill:none" points="
  186.274,470.872 205.172,470.872 
  "/>
<polyline clip-path="url(#clip580)" style="stroke:#000000; stroke-linecap:butt; stroke-linejoin:round; stroke-width:4; stroke-opacity:1; fill:none" points="
  186.274,160.256 205.172,160.256 
  "/>
<path clip-path="url(#clip580)" d="M62.9365 1388.52 Q59.3254 1388.52 57.4967 1392.08 Q55.6912 1395.63 55.6912 1402.76 Q55.6912 1409.86 57.4967 1413.43 Q59.3254 1416.97 62.9365 1416.97 Q66.5707 1416.97 68.3763 1413.43 Q70.205 1409.86 70.205 1402.76 Q70.205 1395.63 68.3763 1392.08 Q66.5707 1388.52 62.9365 1388.52 M62.9365 1384.82 Q68.7467 1384.82 71.8022 1389.42 Q74.8809 1394.01 74.8809 1402.76 Q74.8809 1411.48 71.8022 1416.09 Q68.7467 1420.67 62.9365 1420.67 Q57.1264 1420.67 54.0477 1416.09 Q50.9921 1411.48 50.9921 1402.76 Q50.9921 1394.01 54.0477 1389.42 Q57.1264 1384.82 62.9365 1384.82 Z" fill="#000000" fill-rule="evenodd" fill-opacity="1" /><path clip-path="url(#clip580)" d="M83.0984 1414.12 L87.9827 1414.12 L87.9827 1420 L83.0984 1420 L83.0984 1414.12 Z" fill="#000000" fill-rule="evenodd" fill-opacity="1" /><path clip-path="url(#clip580)" d="M108.168 1388.52 Q104.557 1388.52 102.728 1392.08 Q100.922 1395.63 100.922 1402.76 Q100.922 1409.86 102.728 1413.43 Q104.557 1416.97 108.168 1416.97 Q111.802 1416.97 113.608 1413.43 Q115.436 1409.86 115.436 1402.76 Q115.436 1395.63 113.608 1392.08 Q111.802 1388.52 108.168 1388.52 M108.168 1384.82 Q113.978 1384.82 117.033 1389.42 Q120.112 1394.01 120.112 1402.76 Q120.112 1411.48 117.033 1416.09 Q113.978 1420.67 108.168 1420.67 Q102.358 1420.67 99.2789 1416.09 Q96.2234 1411.48 96.2234 1402.76 Q96.2234 1394.01 99.2789 1389.42 Q102.358 1384.82 108.168 1384.82 Z" fill="#000000" fill-rule="evenodd" fill-opacity="1" /><path clip-path="url(#clip580)" d="M138.33 1388.52 Q134.719 1388.52 132.89 1392.08 Q131.084 1395.63 131.084 1402.76 Q131.084 1409.86 132.89 1413.43 Q134.719 1416.97 138.33 1416.97 Q141.964 1416.97 143.769 1413.43 Q145.598 1409.86 145.598 1402.76 Q145.598 1395.63 143.769 1392.08 Q141.964 1388.52 138.33 1388.52 M138.33 1384.82 Q144.14 1384.82 147.195 1389.42 Q150.274 1394.01 150.274 1402.76 Q150.274 1411.48 147.195 1416.09 Q144.14 1420.67 138.33 1420.67 Q132.519 1420.67 129.441 1416.09 Q126.385 1411.48 126.385 1402.76 Q126.385 1394.01 129.441 1389.42 Q132.519 1384.82 138.33 1384.82 Z" fill="#000000" fill-rule="evenodd" fill-opacity="1" /><path clip-path="url(#clip580)" d="M63.9319 1077.9 Q60.3208 1077.9 58.4921 1081.47 Q56.6865 1085.01 56.6865 1092.14 Q56.6865 1099.25 58.4921 1102.81 Q60.3208 1106.35 63.9319 1106.35 Q67.5661 1106.35 69.3717 1102.81 Q71.2004 1099.25 71.2004 1092.14 Q71.2004 1085.01 69.3717 1081.47 Q67.5661 1077.9 63.9319 1077.9 M63.9319 1074.2 Q69.742 1074.2 72.7976 1078.81 Q75.8763 1083.39 75.8763 1092.14 Q75.8763 1100.87 72.7976 1105.47 Q69.742 1110.06 63.9319 1110.06 Q58.1217 1110.06 55.043 1105.47 Q51.9875 1100.87 51.9875 1092.14 Q51.9875 1083.39 55.043 1078.81 Q58.1217 1074.2 63.9319 1074.2 Z" fill="#000000" fill-rule="evenodd" fill-opacity="1" /><path clip-path="url(#clip580)" d="M84.0938 1103.5 L88.978 1103.5 L88.978 1109.38 L84.0938 1109.38 L84.0938 1103.5 Z" fill="#000000" fill-rule="evenodd" fill-opacity="1" /><path clip-path="url(#clip580)" d="M103.191 1105.45 L119.51 1105.45 L119.51 1109.38 L97.566 1109.38 L97.566 1105.45 Q100.228 1102.69 104.811 1098.06 Q109.418 1093.41 110.598 1092.07 Q112.844 1089.55 113.723 1087.81 Q114.626 1086.05 114.626 1084.36 Q114.626 1081.61 112.682 1079.87 Q110.76 1078.13 107.658 1078.13 Q105.459 1078.13 103.006 1078.9 Q100.575 1079.66 97.7974 1081.21 L97.7974 1076.49 Q100.621 1075.36 103.075 1074.78 Q105.529 1074.2 107.566 1074.2 Q112.936 1074.2 116.131 1076.88 Q119.325 1079.57 119.325 1084.06 Q119.325 1086.19 118.515 1088.11 Q117.728 1090.01 115.621 1092.6 Q115.043 1093.27 111.941 1096.49 Q108.839 1099.69 103.191 1105.45 Z" fill="#000000" fill-rule="evenodd" fill-opacity="1" /><path clip-path="url(#clip580)" d="M129.371 1074.82 L147.728 1074.82 L147.728 1078.76 L133.654 1078.76 L133.654 1087.23 Q134.672 1086.88 135.691 1086.72 Q136.709 1086.54 137.728 1086.54 Q143.515 1086.54 146.894 1089.71 Q150.274 1092.88 150.274 1098.3 Q150.274 1103.88 146.802 1106.98 Q143.33 1110.06 137.01 1110.06 Q134.834 1110.06 132.566 1109.69 Q130.32 1109.31 127.913 1108.57 L127.913 1103.88 Q129.996 1105.01 132.219 1105.56 Q134.441 1106.12 136.918 1106.12 Q140.922 1106.12 143.26 1104.01 Q145.598 1101.91 145.598 1098.3 Q145.598 1094.69 143.26 1092.58 Q140.922 1090.47 136.918 1090.47 Q135.043 1090.47 133.168 1090.89 Q131.316 1091.31 129.371 1092.19 L129.371 1074.82 Z" fill="#000000" fill-rule="evenodd" fill-opacity="1" /><path clip-path="url(#clip580)" d="M62.9365 767.287 Q59.3254 767.287 57.4967 770.852 Q55.6912 774.393 55.6912 781.523 Q55.6912 788.63 57.4967 792.194 Q59.3254 795.736 62.9365 795.736 Q66.5707 795.736 68.3763 792.194 Q70.205 788.63 70.205 781.523 Q70.205 774.393 68.3763 770.852 Q66.5707 767.287 62.9365 767.287 M62.9365 763.583 Q68.7467 763.583 71.8022 768.19 Q74.8809 772.773 74.8809 781.523 Q74.8809 790.25 71.8022 794.856 Q68.7467 799.44 62.9365 799.44 Q57.1264 799.44 54.0477 794.856 Q50.9921 790.25 50.9921 781.523 Q50.9921 772.773 54.0477 768.19 Q57.1264 763.583 62.9365 763.583 Z" fill="#000000" fill-rule="evenodd" fill-opacity="1" /><path clip-path="url(#clip580)" d="M83.0984 792.889 L87.9827 792.889 L87.9827 798.768 L83.0984 798.768 L83.0984 792.889 Z" fill="#000000" fill-rule="evenodd" fill-opacity="1" /><path clip-path="url(#clip580)" d="M98.2141 764.208 L116.57 764.208 L116.57 768.144 L102.496 768.144 L102.496 776.616 Q103.515 776.268 104.534 776.106 Q105.552 775.921 106.571 775.921 Q112.358 775.921 115.737 779.093 Q119.117 782.264 119.117 787.68 Q119.117 793.259 115.645 796.361 Q112.172 799.44 105.853 799.44 Q103.677 799.44 101.409 799.069 Q99.1632 798.699 96.7558 797.958 L96.7558 793.259 Q98.8391 794.393 101.061 794.949 Q103.284 795.504 105.76 795.504 Q109.765 795.504 112.103 793.398 Q114.441 791.292 114.441 787.68 Q114.441 784.069 112.103 781.963 Q109.765 779.856 105.76 779.856 Q103.885 779.856 102.01 780.273 Q100.159 780.69 98.2141 781.569 L98.2141 764.208 Z" fill="#000000" fill-rule="evenodd" fill-opacity="1" /><path clip-path="url(#clip580)" d="M138.33 767.287 Q134.719 767.287 132.89 770.852 Q131.084 774.393 131.084 781.523 Q131.084 788.63 132.89 792.194 Q134.719 795.736 138.33 795.736 Q141.964 795.736 143.769 792.194 Q145.598 788.63 145.598 781.523 Q145.598 774.393 143.769 770.852 Q141.964 767.287 138.33 767.287 M138.33 763.583 Q144.14 763.583 147.195 768.19 Q150.274 772.773 150.274 781.523 Q150.274 790.25 147.195 794.856 Q144.14 799.44 138.33 799.44 Q132.519 799.44 129.441 794.856 Q126.385 790.25 126.385 781.523 Q126.385 772.773 129.441 768.19 Q132.519 763.583 138.33 763.583 Z" fill="#000000" fill-rule="evenodd" fill-opacity="1" /><path clip-path="url(#clip580)" d="M63.9319 456.671 Q60.3208 456.671 58.4921 460.236 Q56.6865 463.777 56.6865 470.907 Q56.6865 478.013 58.4921 481.578 Q60.3208 485.12 63.9319 485.12 Q67.5661 485.12 69.3717 481.578 Q71.2004 478.013 71.2004 470.907 Q71.2004 463.777 69.3717 460.236 Q67.5661 456.671 63.9319 456.671 M63.9319 452.967 Q69.742 452.967 72.7976 457.574 Q75.8763 462.157 75.8763 470.907 Q75.8763 479.634 72.7976 484.24 Q69.742 488.824 63.9319 488.824 Q58.1217 488.824 55.043 484.24 Q51.9875 479.634 51.9875 470.907 Q51.9875 462.157 55.043 457.574 Q58.1217 452.967 63.9319 452.967 Z" fill="#000000" fill-rule="evenodd" fill-opacity="1" /><path clip-path="url(#clip580)" d="M84.0938 482.273 L88.978 482.273 L88.978 488.152 L84.0938 488.152 L84.0938 482.273 Z" fill="#000000" fill-rule="evenodd" fill-opacity="1" /><path clip-path="url(#clip580)" d="M97.9826 453.592 L120.205 453.592 L120.205 455.583 L107.658 488.152 L102.774 488.152 L114.58 457.527 L97.9826 457.527 L97.9826 453.592 Z" fill="#000000" fill-rule="evenodd" fill-opacity="1" /><path clip-path="url(#clip580)" d="M129.371 453.592 L147.728 453.592 L147.728 457.527 L133.654 457.527 L133.654 466 Q134.672 465.652 135.691 465.49 Q136.709 465.305 137.728 465.305 Q143.515 465.305 146.894 468.477 Q150.274 471.648 150.274 477.064 Q150.274 482.643 146.802 485.745 Q143.33 488.824 137.01 488.824 Q134.834 488.824 132.566 488.453 Q130.32 488.083 127.913 487.342 L127.913 482.643 Q129.996 483.777 132.219 484.333 Q134.441 484.888 136.918 484.888 Q140.922 484.888 143.26 482.782 Q145.598 480.676 145.598 477.064 Q145.598 473.453 143.26 471.347 Q140.922 469.24 136.918 469.24 Q135.043 469.24 133.168 469.657 Q131.316 470.074 129.371 470.953 L129.371 453.592 Z" fill="#000000" fill-rule="evenodd" fill-opacity="1" /><path clip-path="url(#clip580)" d="M53.7467 173.601 L61.3856 173.601 L61.3856 147.236 L53.0754 148.902 L53.0754 144.643 L61.3393 142.976 L66.0152 142.976 L66.0152 173.601 L73.654 173.601 L73.654 177.536 L53.7467 177.536 L53.7467 173.601 Z" fill="#000000" fill-rule="evenodd" fill-opacity="1" /><path clip-path="url(#clip580)" d="M83.0984 171.657 L87.9827 171.657 L87.9827 177.536 L83.0984 177.536 L83.0984 171.657 Z" fill="#000000" fill-rule="evenodd" fill-opacity="1" /><path clip-path="url(#clip580)" d="M108.168 146.055 Q104.557 146.055 102.728 149.62 Q100.922 153.161 100.922 160.291 Q100.922 167.397 102.728 170.962 Q104.557 174.504 108.168 174.504 Q111.802 174.504 113.608 170.962 Q115.436 167.397 115.436 160.291 Q115.436 153.161 113.608 149.62 Q111.802 146.055 108.168 146.055 M108.168 142.351 Q113.978 142.351 117.033 146.958 Q120.112 151.541 120.112 160.291 Q120.112 169.018 117.033 173.624 Q113.978 178.208 108.168 178.208 Q102.358 178.208 99.2789 173.624 Q96.2234 169.018 96.2234 160.291 Q96.2234 151.541 99.2789 146.958 Q102.358 142.351 108.168 142.351 Z" fill="#000000" fill-rule="evenodd" fill-opacity="1" /><path clip-path="url(#clip580)" d="M138.33 146.055 Q134.719 146.055 132.89 149.62 Q131.084 153.161 131.084 160.291 Q131.084 167.397 132.89 170.962 Q134.719 174.504 138.33 174.504 Q141.964 174.504 143.769 170.962 Q145.598 167.397 145.598 160.291 Q145.598 153.161 143.769 149.62 Q141.964 146.055 138.33 146.055 M138.33 142.351 Q144.14 142.351 147.195 146.958 Q150.274 151.541 150.274 160.291 Q150.274 169.018 147.195 173.624 Q144.14 178.208 138.33 178.208 Q132.519 178.208 129.441 173.624 Q126.385 169.018 126.385 160.291 Q126.385 151.541 129.441 146.958 Q132.519 142.351 138.33 142.351 Z" fill="#000000" fill-rule="evenodd" fill-opacity="1" /><path clip-path="url(#clip580)" d="M987.795 63.9476 L987.795 47.7034 L974.427 47.7034 L974.427 40.9789 L995.897 40.9789 L995.897 66.9452 Q991.157 70.3075 985.445 72.0494 Q979.734 73.7508 973.252 73.7508 Q959.074 73.7508 951.053 65.4869 Q943.073 57.1826 943.073 42.3968 Q943.073 27.5705 951.053 19.3066 Q959.074 11.0023 973.252 11.0023 Q979.166 11.0023 984.473 12.4606 Q989.82 13.9189 994.317 16.7545 L994.317 25.464 Q989.78 21.6156 984.676 19.6712 Q979.571 17.7268 973.941 17.7268 Q962.841 17.7268 957.251 23.9246 Q951.701 30.1225 951.701 42.3968 Q951.701 54.6305 957.251 60.8284 Q962.841 67.0263 973.941 67.0263 Q978.275 67.0263 981.678 66.2971 Q985.081 65.5274 987.795 63.9476 Z" fill="#000000" fill-rule="evenodd" fill-opacity="1" /><path clip-path="url(#clip580)" d="M1031.14 49.7694 Q1022.11 49.7694 1018.62 51.8354 Q1015.14 53.9013 1015.14 58.8839 Q1015.14 62.8538 1017.73 65.2034 Q1020.36 67.5124 1024.86 67.5124 Q1031.06 67.5124 1034.79 63.1374 Q1038.55 58.7219 1038.55 51.4303 L1038.55 49.7694 L1031.14 49.7694 M1046.01 46.6907 L1046.01 72.576 L1038.55 72.576 L1038.55 65.6895 Q1036 69.8214 1032.19 71.8063 Q1028.38 73.7508 1022.88 73.7508 Q1015.91 73.7508 1011.78 69.8619 Q1007.68 65.9325 1007.68 59.3701 Q1007.68 51.7138 1012.79 47.825 Q1017.93 43.9361 1028.1 43.9361 L1038.55 43.9361 L1038.55 43.2069 Q1038.55 38.0623 1035.15 35.2672 Q1031.79 32.4315 1025.67 32.4315 Q1021.78 32.4315 1018.1 33.3632 Q1014.41 34.295 1011.01 36.1584 L1011.01 29.2718 Q1015.1 27.692 1018.95 26.9223 Q1022.79 26.1121 1026.44 26.1121 Q1036.28 26.1121 1041.15 31.2163 Q1046.01 36.3204 1046.01 46.6907 Z" fill="#000000" fill-rule="evenodd" fill-opacity="1" /><path clip-path="url(#clip580)" d="M1060.59 54.671 L1060.59 27.2059 L1068.04 27.2059 L1068.04 54.3874 Q1068.04 60.8284 1070.55 64.0691 Q1073.07 67.2693 1078.09 67.2693 Q1084.13 67.2693 1087.61 63.421 Q1091.13 59.5726 1091.13 52.9291 L1091.13 27.2059 L1098.59 27.2059 L1098.59 72.576 L1091.13 72.576 L1091.13 65.6084 Q1088.42 69.7404 1084.81 71.7658 Q1081.25 73.7508 1076.51 73.7508 Q1068.69 73.7508 1064.64 68.8897 Q1060.59 64.0286 1060.59 54.671 M1079.35 26.1121 L1079.35 26.1121 Z" fill="#000000" fill-rule="evenodd" fill-opacity="1" /><path clip-path="url(#clip580)" d="M1142.86 28.5427 L1142.86 35.5912 Q1139.7 33.9709 1136.3 33.1607 Q1132.9 32.3505 1129.25 32.3505 Q1123.7 32.3505 1120.91 34.0519 Q1118.15 35.7533 1118.15 39.156 Q1118.15 41.7486 1120.14 43.2475 Q1122.12 44.7058 1128.12 46.0426 L1130.67 46.6097 Q1138.61 48.3111 1141.93 51.4303 Q1145.29 54.509 1145.29 60.0587 Q1145.29 66.3781 1140.27 70.0644 Q1135.29 73.7508 1126.54 73.7508 Q1122.89 73.7508 1118.92 73.0216 Q1114.99 72.3329 1110.62 70.9151 L1110.62 63.2184 Q1114.75 65.3654 1118.76 66.4591 Q1122.77 67.5124 1126.7 67.5124 Q1131.97 67.5124 1134.8 65.73 Q1137.64 63.9071 1137.64 60.6258 Q1137.64 57.5877 1135.57 55.9673 Q1133.55 54.3469 1126.62 52.8481 L1124.03 52.2405 Q1117.1 50.7821 1114.02 47.7845 Q1110.94 44.7463 1110.94 39.4801 Q1110.94 33.0797 1115.48 29.5959 Q1120.02 26.1121 1128.36 26.1121 Q1132.49 26.1121 1136.14 26.7198 Q1139.78 27.3274 1142.86 28.5427 Z" fill="#000000" fill-rule="evenodd" fill-opacity="1" /><path clip-path="url(#clip580)" d="M1186.09 28.5427 L1186.09 35.5912 Q1182.93 33.9709 1179.52 33.1607 Q1176.12 32.3505 1172.48 32.3505 Q1166.93 32.3505 1164.13 34.0519 Q1161.38 35.7533 1161.38 39.156 Q1161.38 41.7486 1163.36 43.2475 Q1165.35 44.7058 1171.34 46.0426 L1173.89 46.6097 Q1181.83 48.3111 1185.15 51.4303 Q1188.52 54.509 1188.52 60.0587 Q1188.52 66.3781 1183.49 70.0644 Q1178.51 73.7508 1169.76 73.7508 Q1166.12 73.7508 1162.15 73.0216 Q1158.22 72.3329 1153.84 70.9151 L1153.84 63.2184 Q1157.97 65.3654 1161.98 66.4591 Q1165.99 67.5124 1169.92 67.5124 Q1175.19 67.5124 1178.03 65.73 Q1180.86 63.9071 1180.86 60.6258 Q1180.86 57.5877 1178.79 55.9673 Q1176.77 54.3469 1169.84 52.8481 L1167.25 52.2405 Q1160.32 50.7821 1157.24 47.7845 Q1154.17 44.7463 1154.17 39.4801 Q1154.17 33.0797 1158.7 29.5959 Q1163.24 26.1121 1171.58 26.1121 Q1175.72 26.1121 1179.36 26.7198 Q1183.01 27.3274 1186.09 28.5427 Z" fill="#000000" fill-rule="evenodd" fill-opacity="1" /><path clip-path="url(#clip580)" d="M1200.39 27.2059 L1207.84 27.2059 L1207.84 72.576 L1200.39 72.576 L1200.39 27.2059 M1200.39 9.54393 L1207.84 9.54393 L1207.84 18.9825 L1200.39 18.9825 L1200.39 9.54393 Z" fill="#000000" fill-rule="evenodd" fill-opacity="1" /><path clip-path="url(#clip580)" d="M1244.06 49.7694 Q1235.02 49.7694 1231.54 51.8354 Q1228.05 53.9013 1228.05 58.8839 Q1228.05 62.8538 1230.65 65.2034 Q1233.28 67.5124 1237.78 67.5124 Q1243.97 67.5124 1247.7 63.1374 Q1251.47 58.7219 1251.47 51.4303 L1251.47 49.7694 L1244.06 49.7694 M1258.92 46.6907 L1258.92 72.576 L1251.47 72.576 L1251.47 65.6895 Q1248.92 69.8214 1245.11 71.8063 Q1241.3 73.7508 1235.79 73.7508 Q1228.82 73.7508 1224.69 69.8619 Q1220.6 65.9325 1220.6 59.3701 Q1220.6 51.7138 1225.7 47.825 Q1230.85 43.9361 1241.02 43.9361 L1251.47 43.9361 L1251.47 43.2069 Q1251.47 38.0623 1248.07 35.2672 Q1244.7 32.4315 1238.59 32.4315 Q1234.7 32.4315 1231.01 33.3632 Q1227.32 34.295 1223.92 36.1584 L1223.92 29.2718 Q1228.01 27.692 1231.86 26.9223 Q1235.71 26.1121 1239.36 26.1121 Q1249.2 26.1121 1254.06 31.2163 Q1258.92 36.3204 1258.92 46.6907 Z" fill="#000000" fill-rule="evenodd" fill-opacity="1" /><path clip-path="url(#clip580)" d="M1311.99 45.1919 L1311.99 72.576 L1304.54 72.576 L1304.54 45.4349 Q1304.54 38.994 1302.02 35.7938 Q1299.51 32.5936 1294.49 32.5936 Q1288.45 32.5936 1284.97 36.4419 Q1281.49 40.2903 1281.49 46.9338 L1281.49 72.576 L1273.99 72.576 L1273.99 27.2059 L1281.49 27.2059 L1281.49 34.2544 Q1284.16 30.163 1287.76 28.1376 Q1291.41 26.1121 1296.15 26.1121 Q1303.97 26.1121 1307.98 30.9732 Q1311.99 35.7938 1311.99 45.1919 Z" fill="#000000" fill-rule="evenodd" fill-opacity="1" /><path clip-path="url(#clip580)" d="M1388.55 35.9153 Q1391.35 30.8922 1395.23 28.5022 Q1399.12 26.1121 1404.39 26.1121 Q1411.48 26.1121 1415.33 31.0947 Q1419.18 36.0368 1419.18 45.1919 L1419.18 72.576 L1411.68 72.576 L1411.68 45.4349 Q1411.68 38.913 1409.37 35.7533 Q1407.06 32.5936 1402.32 32.5936 Q1396.53 32.5936 1393.17 36.4419 Q1389.81 40.2903 1389.81 46.9338 L1389.81 72.576 L1382.31 72.576 L1382.31 45.4349 Q1382.31 38.8725 1380 35.7533 Q1377.69 32.5936 1372.87 32.5936 Q1367.16 32.5936 1363.8 36.4824 Q1360.44 40.3308 1360.44 46.9338 L1360.44 72.576 L1352.94 72.576 L1352.94 27.2059 L1360.44 27.2059 L1360.44 34.2544 Q1362.99 30.082 1366.55 28.0971 Q1370.12 26.1121 1375.02 26.1121 Q1379.96 26.1121 1383.41 28.6237 Q1386.89 31.1352 1388.55 35.9153 Z" fill="#000000" fill-rule="evenodd" fill-opacity="1" /><path clip-path="url(#clip580)" d="M1451.62 32.4315 Q1445.63 32.4315 1442.14 37.1306 Q1438.66 41.7891 1438.66 49.9314 Q1438.66 58.0738 1442.1 62.7728 Q1445.59 67.4314 1451.62 67.4314 Q1457.58 67.4314 1461.06 62.7323 Q1464.55 58.0333 1464.55 49.9314 Q1464.55 41.8701 1461.06 37.1711 Q1457.58 32.4315 1451.62 32.4315 M1451.62 26.1121 Q1461.35 26.1121 1466.9 32.4315 Q1472.45 38.7509 1472.45 49.9314 Q1472.45 61.0714 1466.9 67.4314 Q1461.35 73.7508 1451.62 73.7508 Q1441.86 73.7508 1436.31 67.4314 Q1430.8 61.0714 1430.8 49.9314 Q1430.8 38.7509 1436.31 32.4315 Q1441.86 26.1121 1451.62 26.1121 Z" fill="#000000" fill-rule="evenodd" fill-opacity="1" /><path clip-path="url(#clip580)" d="M1514.66 34.0924 L1514.66 9.54393 L1522.11 9.54393 L1522.11 72.576 L1514.66 72.576 L1514.66 65.7705 Q1512.31 69.8214 1508.7 71.8063 Q1505.14 73.7508 1500.11 73.7508 Q1491.89 73.7508 1486.7 67.1883 Q1481.56 60.6258 1481.56 49.9314 Q1481.56 39.2371 1486.7 32.6746 Q1491.89 26.1121 1500.11 26.1121 Q1505.14 26.1121 1508.7 28.0971 Q1512.31 30.0415 1514.66 34.0924 M1489.26 49.9314 Q1489.26 58.1548 1492.62 62.8538 Q1496.02 67.5124 1501.94 67.5124 Q1507.85 67.5124 1511.25 62.8538 Q1514.66 58.1548 1514.66 49.9314 Q1514.66 41.7081 1511.25 37.0496 Q1507.85 32.3505 1501.94 32.3505 Q1496.02 32.3505 1492.62 37.0496 Q1489.26 41.7081 1489.26 49.9314 Z" fill="#000000" fill-rule="evenodd" fill-opacity="1" /><path clip-path="url(#clip580)" d="M1576.27 48.0275 L1576.27 51.6733 L1542 51.6733 Q1542.49 59.3701 1546.62 63.421 Q1550.79 67.4314 1558.2 67.4314 Q1562.5 67.4314 1566.51 66.3781 Q1570.56 65.3249 1574.53 63.2184 L1574.53 70.267 Q1570.52 71.9684 1566.3 72.8596 Q1562.09 73.7508 1557.76 73.7508 Q1546.9 73.7508 1540.54 67.4314 Q1534.22 61.1119 1534.22 50.3365 Q1534.22 39.1965 1540.22 32.6746 Q1546.25 26.1121 1556.46 26.1121 Q1565.62 26.1121 1570.92 32.0264 Q1576.27 37.9003 1576.27 48.0275 M1568.82 45.84 Q1568.73 39.7232 1565.37 36.0774 Q1562.05 32.4315 1556.54 32.4315 Q1550.3 32.4315 1546.54 35.9558 Q1542.81 39.4801 1542.24 45.8805 L1568.82 45.84 Z" fill="#000000" fill-rule="evenodd" fill-opacity="1" /><path clip-path="url(#clip580)" d="M1588.5 9.54393 L1595.96 9.54393 L1595.96 72.576 L1588.5 72.576 L1588.5 9.54393 Z" fill="#000000" fill-rule="evenodd" fill-opacity="1" /><polyline clip-path="url(#clip582)" style="stroke:#009af9; stroke-linecap:butt; stroke-linejoin:round; stroke-width:4; stroke-opacity:1; fill:none" points="
  186.274,160.256 194.94,160.317 203.606,160.497 212.272,160.799 220.938,161.22 229.604,161.763 238.27,162.425 246.935,163.207 255.601,164.109 264.267,165.13 
  272.933,166.27 281.599,167.529 290.265,168.907 298.931,170.403 307.597,172.016 316.263,173.747 324.929,175.594 333.595,177.557 342.261,179.636 350.927,181.83 
  359.593,184.138 368.258,186.559 376.924,189.094 385.59,191.741 394.256,194.5 402.922,197.369 411.588,200.348 420.254,203.436 428.92,206.632 437.586,209.935 
  446.252,213.345 454.918,216.86 463.584,220.479 472.25,224.202 480.916,228.027 489.581,231.953 498.247,235.98 506.913,240.105 515.579,244.328 524.245,248.648 
  532.911,253.063 541.577,257.572 550.243,262.175 558.909,266.869 567.575,271.654 576.241,276.527 584.907,281.489 593.573,286.537 602.239,291.67 610.904,296.887 
  619.57,302.186 628.236,307.566 636.902,313.026 645.568,318.563 654.234,324.177 662.9,329.866 671.566,335.629 680.232,341.463 688.898,347.368 697.564,353.343 
  706.23,359.384 714.896,365.492 723.562,371.663 732.227,377.898 740.893,384.193 749.559,390.549 758.225,396.962 766.891,403.431 775.557,409.955 784.223,416.533 
  792.889,423.161 801.555,429.84 810.221,436.567 818.887,443.34 827.553,450.159 836.219,457.021 844.885,463.924 853.55,470.867 862.216,477.849 870.882,484.868 
  879.548,491.922 888.214,499.009 896.88,506.128 905.546,513.277 914.212,520.455 922.878,527.66 931.544,534.891 940.21,542.145 948.876,549.421 957.542,556.718 
  966.207,564.034 974.873,571.367 983.539,578.716 992.205,586.079 1000.87,593.455 1009.54,600.843 1018.2,608.24 1026.87,615.645 1035.53,623.057 1044.2,630.473 
  1052.87,637.894 1061.53,645.317 1070.2,652.74 1078.86,660.163 1087.53,667.584 1096.2,675.001 1104.86,682.413 1113.53,689.819 1122.19,697.217 1130.86,704.607 
  1139.53,711.985 1148.19,719.353 1156.86,726.707 1165.52,734.047 1174.19,741.371 1182.86,748.679 1191.52,755.969 1200.19,763.239 1208.85,770.489 1217.52,777.718 
  1226.19,784.924 1234.85,792.106 1243.52,799.263 1252.18,806.394 1260.85,813.498 1269.51,820.574 1278.18,827.621 1286.85,834.637 1295.51,841.623 1304.18,848.576 
  1312.84,855.496 1321.51,862.382 1330.18,869.234 1338.84,876.049 1347.51,882.828 1356.17,889.57 1364.84,896.273 1373.51,902.937 1382.17,909.562 1390.84,916.145 
  1399.5,922.688 1408.17,929.188 1416.84,935.646 1425.5,942.06 1434.17,948.431 1442.83,954.757 1451.5,961.037 1460.17,967.272 1468.83,973.46 1477.5,979.602 
  1486.16,985.696 1494.83,991.742 1503.49,997.74 1512.16,1003.69 1520.83,1009.59 1529.49,1015.44 1538.16,1021.24 1546.82,1026.99 1555.49,1032.69 1564.16,1038.34 
  1572.82,1043.93 1581.49,1049.48 1590.15,1054.97 1598.82,1060.41 1607.49,1065.8 1616.15,1071.13 1624.82,1076.42 1633.48,1081.65 1642.15,1086.82 1650.82,1091.95 
  1659.48,1097.02 1668.15,1102.03 1676.81,1107 1685.48,1111.91 1694.15,1116.76 1702.81,1121.56 1711.48,1126.31 1720.14,1131 1728.81,1135.64 1737.48,1140.23 
  1746.14,1144.76 1754.81,1149.24 1763.47,1153.67 1772.14,1158.04 1780.8,1162.36 1789.47,1166.62 1798.14,1170.83 1806.8,1174.99 1815.47,1179.1 1824.13,1183.15 
  1832.8,1187.15 1841.47,1191.1 1850.13,1195 1858.8,1198.84 1867.46,1202.64 1876.13,1206.38 1884.8,1210.07 1893.46,1213.71 1902.13,1217.29 1910.79,1220.83 
  1919.46,1224.32 1928.13,1227.76 1936.79,1231.14 1945.46,1234.48 1954.12,1237.77 1962.79,1241.01 1971.46,1244.21 1980.12,1247.35 1988.79,1250.45 1997.45,1253.5 
  2006.12,1256.5 2014.78,1259.46 2023.45,1262.37 2032.12,1265.23 2040.78,1268.05 2049.45,1270.83 2058.11,1273.56 2066.78,1276.24 2075.45,1278.88 2084.11,1281.48 
  2092.78,1284.04 2101.44,1286.55 2110.11,1289.02 2118.78,1291.45 2127.44,1293.83 2136.11,1296.18 2144.77,1298.49 2153.44,1300.75 2162.11,1302.98 2170.77,1305.17 
  2179.44,1307.32 2188.1,1309.43 2196.77,1311.5 2205.44,1313.53 2214.1,1315.53 2222.77,1317.49 2231.43,1319.42 2240.1,1321.31 2248.76,1323.16 2257.43,1324.98 
  2266.1,1326.77 2274.76,1328.52 2283.43,1330.24 2292.09,1331.93 2300.76,1333.58 2309.43,1335.2 2318.09,1336.79 2326.76,1338.35 2335.42,1339.88 2344.09,1341.37 
  2352.76,1342.84 
  "/>
<polyline clip-path="url(#clip582)" style="stroke:#e26f46; stroke-linecap:butt; stroke-linejoin:round; stroke-width:4; stroke-opacity:1; fill:none" points="
  186.274,160.256 194.94,160.342 203.606,160.601 212.272,161.031 220.938,161.633 229.604,162.407 238.27,163.353 246.935,164.469 255.601,165.756 264.267,167.213 
  272.933,168.839 281.599,170.633 290.265,172.596 298.931,174.726 307.597,177.022 316.263,179.483 324.929,182.109 333.595,184.898 342.261,187.849 350.927,190.96 
  359.593,194.232 368.258,197.661 376.924,201.247 385.59,204.989 394.256,208.885 402.922,212.933 411.588,217.131 420.254,221.479 428.92,225.973 437.586,230.613 
  446.252,235.397 454.918,240.322 463.584,245.387 472.25,250.59 480.916,255.928 489.581,261.4 498.247,267.003 506.913,272.735 515.579,278.594 524.245,284.578 
  532.911,290.684 541.577,296.91 550.243,303.254 558.909,309.712 567.575,316.284 576.241,322.965 584.907,329.755 593.573,336.649 602.239,343.646 610.904,350.743 
  619.57,357.937 628.236,365.226 636.902,372.606 645.568,380.076 654.234,387.633 662.9,395.273 671.566,402.995 680.232,410.795 688.898,418.67 697.564,426.618 
  706.23,434.636 714.896,442.722 723.562,450.872 732.227,459.083 740.893,467.354 749.559,475.68 758.225,484.06 766.891,492.49 775.557,500.967 784.223,509.49 
  792.889,518.055 801.555,526.659 810.221,535.299 818.887,543.974 827.553,552.68 836.219,561.413 844.885,570.173 853.55,578.956 862.216,587.759 870.882,596.579 
  879.548,605.415 888.214,614.263 896.88,623.121 905.546,631.987 914.212,640.857 922.878,649.73 931.544,658.602 940.21,667.472 948.876,676.336 957.542,685.194 
  966.207,694.041 974.873,702.877 983.539,711.698 992.205,720.503 1000.87,729.288 1009.54,738.053 1018.2,746.795 1026.87,755.511 1035.53,764.2 1044.2,772.86 
  1052.87,781.488 1061.53,790.084 1070.2,798.643 1078.86,807.166 1087.53,815.651 1096.2,824.094 1104.86,832.495 1113.53,840.852 1122.19,849.163 1130.86,857.427 
  1139.53,865.642 1148.19,873.807 1156.86,881.919 1165.52,889.979 1174.19,897.983 1182.86,905.932 1191.52,913.823 1200.19,921.655 1208.85,929.428 1217.52,937.139 
  1226.19,944.789 1234.85,952.375 1243.52,959.897 1252.18,967.353 1260.85,974.744 1269.51,982.067 1278.18,989.322 1286.85,996.509 1295.51,1003.63 1304.18,1010.67 
  1312.84,1017.65 1321.51,1024.55 1330.18,1031.38 1338.84,1038.14 1347.51,1044.83 1356.17,1051.44 1364.84,1057.97 1373.51,1064.44 1382.17,1070.82 1390.84,1077.14 
  1399.5,1083.37 1408.17,1089.53 1416.84,1095.62 1425.5,1101.62 1434.17,1107.55 1442.83,1113.41 1451.5,1119.18 1460.17,1124.88 1468.83,1130.51 1477.5,1136.05 
  1486.16,1141.52 1494.83,1146.92 1503.49,1152.23 1512.16,1157.47 1520.83,1162.64 1529.49,1167.73 1538.16,1172.74 1546.82,1177.67 1555.49,1182.53 1564.16,1187.32 
  1572.82,1192.03 1581.49,1196.67 1590.15,1201.23 1598.82,1205.72 1607.49,1210.13 1616.15,1214.47 1624.82,1218.74 1633.48,1222.94 1642.15,1227.07 1650.82,1231.12 
  1659.48,1235.11 1668.15,1239.02 1676.81,1242.87 1685.48,1246.65 1694.15,1250.36 1702.81,1254 1711.48,1257.57 1720.14,1261.08 1728.81,1264.52 1737.48,1267.9 
  1746.14,1271.21 1754.81,1274.46 1763.47,1277.65 1772.14,1280.78 1780.8,1283.84 1789.47,1286.84 1798.14,1289.78 1806.8,1292.66 1815.47,1295.49 1824.13,1298.25 
  1832.8,1300.96 1841.47,1303.62 1850.13,1306.21 1858.8,1308.75 1867.46,1311.24 1876.13,1313.67 1884.8,1316.05 1893.46,1318.38 1902.13,1320.66 1910.79,1322.89 
  1919.46,1325.07 1928.13,1327.2 1936.79,1329.28 1945.46,1331.31 1954.12,1333.3 1962.79,1335.24 1971.46,1337.13 1980.12,1338.98 1988.79,1340.79 1997.45,1342.55 
  2006.12,1344.28 2014.78,1345.96 2023.45,1347.6 2032.12,1349.2 2040.78,1350.76 2049.45,1352.28 2058.11,1353.77 2066.78,1355.21 2075.45,1356.62 2084.11,1358 
  2092.78,1359.34 2101.44,1360.65 2110.11,1361.92 2118.78,1363.16 2127.44,1364.36 2136.11,1365.54 2144.77,1366.68 2153.44,1367.8 2162.11,1368.88 2170.77,1369.94 
  2179.44,1370.96 2188.1,1371.96 2196.77,1372.93 2205.44,1373.88 2214.1,1374.8 2222.77,1375.69 2231.43,1376.56 2240.1,1377.4 2248.76,1378.22 2257.43,1379.02 
  2266.1,1379.79 2274.76,1380.55 2283.43,1381.28 2292.09,1381.98 2300.76,1382.67 2309.43,1383.34 2318.09,1383.99 2326.76,1384.62 2335.42,1385.23 2344.09,1385.82 
  2352.76,1386.4 
  "/>
<path clip-path="url(#clip580)" d="
M1952.99 322.316 L2280.54 322.316 L2280.54 166.796 L1952.99 166.796  Z
  " fill="#ffffff" fill-rule="evenodd" fill-opacity="1"/>
<polyline clip-path="url(#clip580)" style="stroke:#000000; stroke-linecap:butt; stroke-linejoin:round; stroke-width:4; stroke-opacity:1; fill:none" points="
  1952.99,322.316 2280.54,322.316 2280.54,166.796 1952.99,166.796 1952.99,322.316 
  "/>
<polyline clip-path="url(#clip580)" style="stroke:#009af9; stroke-linecap:butt; stroke-linejoin:round; stroke-width:4; stroke-opacity:1; fill:none" points="
  1977.06,218.636 2121.5,218.636 
  "/>
<path clip-path="url(#clip580)" d="M2164.48 222.652 Q2164.48 218.022 2162.56 215.476 Q2160.66 212.93 2157.21 212.93 Q2153.79 212.93 2151.86 215.476 Q2149.97 218.022 2149.97 222.652 Q2149.97 227.258 2151.86 229.805 Q2153.79 232.351 2157.21 232.351 Q2160.66 232.351 2162.56 229.805 Q2164.48 227.258 2164.48 222.652 M2168.74 232.698 Q2168.74 239.318 2165.8 242.536 Q2162.86 245.777 2156.79 245.777 Q2154.55 245.777 2152.56 245.43 Q2150.57 245.105 2148.69 244.411 L2148.69 240.268 Q2150.57 241.286 2152.4 241.772 Q2154.22 242.258 2156.12 242.258 Q2160.31 242.258 2162.4 240.059 Q2164.48 237.883 2164.48 233.462 L2164.48 231.356 Q2163.16 233.647 2161.1 234.781 Q2159.04 235.916 2156.17 235.916 Q2151.4 235.916 2148.48 232.281 Q2145.57 228.647 2145.57 222.652 Q2145.57 216.633 2148.48 212.999 Q2151.4 209.365 2156.17 209.365 Q2159.04 209.365 2161.1 210.499 Q2163.16 211.633 2164.48 213.925 L2164.48 209.99 L2168.74 209.99 L2168.74 232.698 Z" fill="#000000" fill-rule="evenodd" fill-opacity="1" /><path clip-path="url(#clip580)" d="M2187.74 199.944 Q2184.64 205.268 2183.14 210.476 Q2181.63 215.684 2181.63 221.032 Q2181.63 226.379 2183.14 231.633 Q2184.66 236.865 2187.74 242.166 L2184.04 242.166 Q2180.57 236.726 2178.83 231.471 Q2177.12 226.217 2177.12 221.032 Q2177.12 215.87 2178.83 210.638 Q2180.54 205.407 2184.04 199.944 L2187.74 199.944 Z" fill="#000000" fill-rule="evenodd" fill-opacity="1" /><path clip-path="url(#clip580)" d="M2208.44 232.976 Q2211.49 232.999 2213.32 234.735 Q2215.27 236.564 2215.27 239.342 Q2215.27 242.004 2213.55 243.855 Q2211.7 245.869 2207.93 245.869 Q2207.93 244.133 2207.93 242.374 Q2209.53 242.49 2210.5 241.471 Q2211.24 240.661 2211.24 239.805 Q2211.24 238.578 2210.5 237.559 Q2209.78 236.587 2208.44 236.587 Q2194.02 236.587 2194.02 226.471 Q2194.02 219.527 2201.72 217.49 Q2195.24 216.657 2195.24 210.638 Q2195.24 206.078 2200.34 204.18 L2195.52 204.18 L2195.52 199.897 L2213.78 199.897 L2213.78 204.18 Q2199.22 204.18 2199.22 210.916 Q2199.22 215.337 2211.45 215.545 L2211.45 219.481 Q2198.25 218.971 2198.3 226.471 Q2198.32 232.744 2208.44 232.976 Z" fill="#000000" fill-rule="evenodd" fill-opacity="1" /><path clip-path="url(#clip580)" d="M2221.77 199.944 L2225.47 199.944 Q2228.95 205.407 2230.66 210.638 Q2232.4 215.87 2232.4 221.032 Q2232.4 226.217 2230.66 231.471 Q2228.95 236.726 2225.47 242.166 L2221.77 242.166 Q2224.85 236.865 2226.35 231.633 Q2227.88 226.379 2227.88 221.032 Q2227.88 215.684 2226.35 210.476 Q2224.85 205.268 2221.77 199.944 Z" fill="#000000" fill-rule="evenodd" fill-opacity="1" /><polyline clip-path="url(#clip580)" style="stroke:#e26f46; stroke-linecap:butt; stroke-linejoin:round; stroke-width:4; stroke-opacity:1; fill:none" points="
  1977.06,270.476 2121.5,270.476 
  "/>
<path clip-path="url(#clip580)" d="M2162.07 251.737 L2162.07 255.279 L2158 255.279 Q2155.71 255.279 2154.8 256.205 Q2153.92 257.131 2153.92 259.538 L2153.92 261.83 L2160.94 261.83 L2160.94 265.14 L2153.92 265.14 L2153.92 287.756 L2149.64 287.756 L2149.64 265.14 L2145.57 265.14 L2145.57 261.83 L2149.64 261.83 L2149.64 260.024 Q2149.64 255.696 2151.66 253.728 Q2153.67 251.737 2158.04 251.737 L2162.07 251.737 Z" fill="#000000" fill-rule="evenodd" fill-opacity="1" /><path clip-path="url(#clip580)" d="M2175.87 251.784 Q2172.77 257.108 2171.26 262.316 Q2169.76 267.524 2169.76 272.872 Q2169.76 278.219 2171.26 283.473 Q2172.79 288.705 2175.87 294.006 L2172.16 294.006 Q2168.69 288.566 2166.96 283.311 Q2165.24 278.057 2165.24 272.872 Q2165.24 267.71 2166.96 262.478 Q2168.67 257.247 2172.16 251.784 L2175.87 251.784 Z" fill="#000000" fill-rule="evenodd" fill-opacity="1" /><path clip-path="url(#clip580)" d="M2196.56 284.816 Q2199.62 284.839 2201.45 286.575 Q2203.39 288.404 2203.39 291.182 Q2203.39 293.844 2201.68 295.695 Q2199.83 297.709 2196.05 297.709 Q2196.05 295.973 2196.05 294.214 Q2197.65 294.33 2198.62 293.311 Q2199.36 292.501 2199.36 291.645 Q2199.36 290.418 2198.62 289.399 Q2197.91 288.427 2196.56 288.427 Q2182.14 288.427 2182.14 278.311 Q2182.14 271.367 2189.85 269.33 Q2183.37 268.497 2183.37 262.478 Q2183.37 257.918 2188.46 256.02 L2183.65 256.02 L2183.65 251.737 L2201.91 251.737 L2201.91 256.02 Q2187.35 256.02 2187.35 262.756 Q2187.35 267.177 2199.57 267.385 L2199.57 271.321 Q2186.38 270.811 2186.42 278.311 Q2186.45 284.584 2196.56 284.816 Z" fill="#000000" fill-rule="evenodd" fill-opacity="1" /><path clip-path="url(#clip580)" d="M2209.9 251.784 L2213.6 251.784 Q2217.07 257.247 2218.78 262.478 Q2220.52 267.71 2220.52 272.872 Q2220.52 278.057 2218.78 283.311 Q2217.07 288.566 2213.6 294.006 L2209.9 294.006 Q2212.97 288.705 2214.48 283.473 Q2216.01 278.219 2216.01 272.872 Q2216.01 267.524 2214.48 262.316 Q2212.97 257.108 2209.9 251.784 Z" fill="#000000" fill-rule="evenodd" fill-opacity="1" /></svg>
