<?xml version="1.0" encoding="utf-8"?>
<svg xmlns="http://www.w3.org/2000/svg" xmlns:xlink="http://www.w3.org/1999/xlink" width="600" height="400" viewBox="0 0 2400 1600">
<defs>
  <clipPath id="clip720">
    <rect x="0" y="0" width="2400" height="1600"/>
  </clipPath>
</defs>
<path clip-path="url(#clip720)" d="M0 1600 L2400 1600 L2400 0 L0 0  Z" fill="#ffffff" fill-rule="evenodd" fill-opacity="1"/>
<defs>
  <clipPath id="clip721">
    <rect x="480" y="0" width="1681" height="1600"/>
  </clipPath>
</defs>
<path clip-path="url(#clip720)" d="M205.121 1423.18 L2352.76 1423.18 L2352.76 123.472 L205.121 123.472  Z" fill="#ffffff" fill-rule="evenodd" fill-opacity="1"/>
<defs>
  <clipPath id="clip722">
    <rect x="205" y="123" width="2149" height="1301"/>
  </clipPath>
</defs>
<polyline clip-path="url(#clip722)" style="stroke:#000000; stroke-linecap:round; stroke-linejoin:round; stroke-width:2; stroke-opacity:0.1; fill:none" points="205.121,1423.18 205.121,123.472 "/>
<polyline clip-path="url(#clip722)" style="stroke:#000000; stroke-linecap:round; stroke-linejoin:round; stroke-width:2; stroke-opacity:0.1; fill:none" points="634.648,1423.18 634.648,123.472 "/>
<polyline clip-path="url(#clip722)" style="stroke:#000000; stroke-linecap:round; stroke-linejoin:round; stroke-width:2; stroke-opacity:0.1; fill:none" points="1064.17,1423.18 1064.17,123.472 "/>
<polyline clip-path="url(#clip722)" style="stroke:#000000; stroke-linecap:round; stroke-linejoin:round; stroke-width:2; stroke-opacity:0.1; fill:none" points="1493.7,1423.18 1493.7,123.472 "/>
<polyline clip-path="url(#clip722)" style="stroke:#000000; stroke-linecap:round; stroke-linejoin:round; stroke-width:2; stroke-opacity:0.1; fill:none" points="1923.23,1423.18 1923.23,123.472 "/>
<polyline clip-path="url(#clip722)" style="stroke:#000000; stroke-linecap:round; stroke-linejoin:round; stroke-width:2; stroke-opacity:0.1; fill:none" points="2352.76,1423.18 2352.76,123.472 "/>
<polyline clip-path="url(#clip720)" style="stroke:#000000; stroke-linecap:round; stroke-linejoin:round; stroke-width:4; stroke-opacity:1; fill:none" points="205.121,1423.18 2352.76,1423.18 "/>
<polyline clip-path="url(#clip720)" style="stroke:#000000; stroke-linecap:round; stroke-linejoin:round; stroke-width:4; stroke-opacity:1; fill:none" points="205.121,1423.18 205.121,1404.28 "/>
<polyline clip-path="url(#clip720)" style="stroke:#000000; stroke-linecap:round; stroke-linejoin:round; stroke-width:4; stroke-opacity:1; fill:none" points="634.648,1423.18 634.648,1404.28 "/>
<polyline clip-path="url(#clip720)" style="stroke:#000000; stroke-linecap:round; stroke-linejoin:round; stroke-width:4; stroke-opacity:1; fill:none" points="1064.17,1423.18 1064.17,1404.28 "/>
<polyline clip-path="url(#clip720)" style="stroke:#000000; stroke-linecap:round; stroke-linejoin:round; stroke-width:4; stroke-opacity:1; fill:none" points="1493.7,1423.18 1493.7,1404.28 "/>
<polyline clip-path="url(#clip720)" style="stroke:#000000; stroke-linecap:round; stroke-linejoin:round; stroke-width:4; stroke-opacity:1; fill:none" points="1923.23,1423.18 1923.23,1404.28 "/>
<polyline clip-path="url(#clip720)" style="stroke:#000000; stroke-linecap:round; stroke-linejoin:round; stroke-width:4; stroke-opacity:1; fill:none" points="2352.76,1423.18 2352.76,1404.28 "/>
<path clip-path="url(#clip720)" d="M182.505 1454.1 Q178.894 1454.1 177.066 1457.66 Q175.26 1461.2 175.26 1468.33 Q175.26 1475.44 177.066 1479.01 Q178.894 1482.55 182.505 1482.55 Q186.14 1482.55 187.945 1479.01 Q189.774 1475.44 189.774 1468.33 Q189.774 1461.2 187.945 1457.66 Q186.14 1454.1 182.505 1454.1 M182.505 1450.39 Q188.316 1450.39 191.371 1455 Q194.45 1459.58 194.45 1468.33 Q194.45 1477.06 191.371 1481.67 Q188.316 1486.25 182.505 1486.25 Q176.695 1486.25 173.617 1481.67 Q170.561 1477.06 170.561 1468.33 Q170.561 1459.58 173.617 1455 Q176.695 1450.39 182.505 1450.39 Z" fill="#000000" fill-rule="nonzero" fill-opacity="1" /><path clip-path="url(#clip720)" d="M202.667 1479.7 L207.552 1479.7 L207.552 1485.58 L202.667 1485.58 L202.667 1479.7 Z" fill="#000000" fill-rule="nonzero" fill-opacity="1" /><path clip-path="url(#clip720)" d="M227.737 1454.1 Q224.126 1454.1 222.297 1457.66 Q220.491 1461.2 220.491 1468.33 Q220.491 1475.44 222.297 1479.01 Q224.126 1482.55 227.737 1482.55 Q231.371 1482.55 233.176 1479.01 Q235.005 1475.44 235.005 1468.33 Q235.005 1461.2 233.176 1457.66 Q231.371 1454.1 227.737 1454.1 M227.737 1450.39 Q233.547 1450.39 236.602 1455 Q239.681 1459.58 239.681 1468.33 Q239.681 1477.06 236.602 1481.67 Q233.547 1486.25 227.737 1486.25 Q221.926 1486.25 218.848 1481.67 Q215.792 1477.06 215.792 1468.33 Q215.792 1459.58 218.848 1455 Q221.926 1450.39 227.737 1450.39 Z" fill="#000000" fill-rule="nonzero" fill-opacity="1" /><path clip-path="url(#clip720)" d="M612.831 1454.1 Q609.22 1454.1 607.391 1457.66 Q605.586 1461.2 605.586 1468.33 Q605.586 1475.44 607.391 1479.01 Q609.22 1482.55 612.831 1482.55 Q616.465 1482.55 618.271 1479.01 Q620.099 1475.44 620.099 1468.33 Q620.099 1461.2 618.271 1457.66 Q616.465 1454.1 612.831 1454.1 M612.831 1450.39 Q618.641 1450.39 621.697 1455 Q624.775 1459.58 624.775 1468.33 Q624.775 1477.06 621.697 1481.67 Q618.641 1486.25 612.831 1486.25 Q607.021 1486.25 603.942 1481.67 Q600.887 1477.06 600.887 1468.33 Q600.887 1459.58 603.942 1455 Q607.021 1450.39 612.831 1450.39 Z" fill="#000000" fill-rule="nonzero" fill-opacity="1" /><path clip-path="url(#clip720)" d="M632.993 1479.7 L637.877 1479.7 L637.877 1485.58 L632.993 1485.58 L632.993 1479.7 Z" fill="#000000" fill-rule="nonzero" fill-opacity="1" /><path clip-path="url(#clip720)" d="M652.09 1481.64 L668.409 1481.64 L668.409 1485.58 L646.465 1485.58 L646.465 1481.64 Q649.127 1478.89 653.71 1474.26 Q658.317 1469.61 659.497 1468.27 Q661.743 1465.74 662.622 1464.01 Q663.525 1462.25 663.525 1460.56 Q663.525 1457.8 661.581 1456.07 Q659.659 1454.33 656.558 1454.33 Q654.359 1454.33 651.905 1455.09 Q649.474 1455.86 646.697 1457.41 L646.697 1452.69 Q649.521 1451.55 651.974 1450.97 Q654.428 1450.39 656.465 1450.39 Q661.835 1450.39 665.03 1453.08 Q668.224 1455.77 668.224 1460.26 Q668.224 1462.39 667.414 1464.31 Q666.627 1466.2 664.52 1468.8 Q663.942 1469.47 660.84 1472.69 Q657.738 1475.88 652.09 1481.64 Z" fill="#000000" fill-rule="nonzero" fill-opacity="1" /><path clip-path="url(#clip720)" d="M1041.32 1454.1 Q1037.71 1454.1 1035.88 1457.66 Q1034.07 1461.2 1034.07 1468.33 Q1034.07 1475.44 1035.88 1479.01 Q1037.71 1482.55 1041.32 1482.55 Q1044.95 1482.55 1046.76 1479.01 Q1048.58 1475.44 1048.58 1468.33 Q1048.58 1461.2 1046.76 1457.66 Q1044.95 1454.1 1041.32 1454.1 M1041.32 1450.39 Q1047.13 1450.39 1050.18 1455 Q1053.26 1459.58 1053.26 1468.33 Q1053.26 1477.06 1050.18 1481.67 Q1047.13 1486.25 1041.32 1486.25 Q1035.51 1486.25 1032.43 1481.67 Q1029.37 1477.06 1029.37 1468.33 Q1029.37 1459.58 1032.43 1455 Q1035.51 1450.39 1041.32 1450.39 Z" fill="#000000" fill-rule="nonzero" fill-opacity="1" /><path clip-path="url(#clip720)" d="M1061.48 1479.7 L1066.36 1479.7 L1066.36 1485.58 L1061.48 1485.58 L1061.48 1479.7 Z" fill="#000000" fill-rule="nonzero" fill-opacity="1" /><path clip-path="url(#clip720)" d="M1089.39 1455.09 L1077.59 1473.54 L1089.39 1473.54 L1089.39 1455.09 M1088.17 1451.02 L1094.05 1451.02 L1094.05 1473.54 L1098.98 1473.54 L1098.98 1477.43 L1094.05 1477.43 L1094.05 1485.58 L1089.39 1485.58 L1089.39 1477.43 L1073.79 1477.43 L1073.79 1472.92 L1088.17 1451.02 Z" fill="#000000" fill-rule="nonzero" fill-opacity="1" /><path clip-path="url(#clip720)" d="M1471.01 1454.1 Q1467.39 1454.1 1465.57 1457.66 Q1463.76 1461.2 1463.76 1468.33 Q1463.76 1475.44 1465.57 1479.01 Q1467.39 1482.55 1471.01 1482.55 Q1474.64 1482.55 1476.45 1479.01 Q1478.27 1475.44 1478.27 1468.33 Q1478.27 1461.2 1476.45 1457.66 Q1474.64 1454.1 1471.01 1454.1 M1471.01 1450.39 Q1476.82 1450.39 1479.87 1455 Q1482.95 1459.58 1482.95 1468.33 Q1482.95 1477.06 1479.87 1481.67 Q1476.82 1486.25 1471.01 1486.25 Q1465.2 1486.25 1462.12 1481.67 Q1459.06 1477.06 1459.06 1468.33 Q1459.06 1459.58 1462.12 1455 Q1465.2 1450.39 1471.01 1450.39 Z" fill="#000000" fill-rule="nonzero" fill-opacity="1" /><path clip-path="url(#clip720)" d="M1491.17 1479.7 L1496.05 1479.7 L1496.05 1485.58 L1491.17 1485.58 L1491.17 1479.7 Z" fill="#000000" fill-rule="nonzero" fill-opacity="1" /><path clip-path="url(#clip720)" d="M1516.82 1466.44 Q1513.67 1466.44 1511.82 1468.59 Q1509.99 1470.74 1509.99 1474.49 Q1509.99 1478.22 1511.82 1480.39 Q1513.67 1482.55 1516.82 1482.55 Q1519.96 1482.55 1521.79 1480.39 Q1523.64 1478.22 1523.64 1474.49 Q1523.64 1470.74 1521.79 1468.59 Q1519.96 1466.44 1516.82 1466.44 M1526.1 1451.78 L1526.1 1456.04 Q1524.34 1455.21 1522.53 1454.77 Q1520.75 1454.33 1518.99 1454.33 Q1514.36 1454.33 1511.91 1457.45 Q1509.48 1460.58 1509.13 1466.9 Q1510.5 1464.89 1512.56 1463.82 Q1514.62 1462.73 1517.09 1462.73 Q1522.3 1462.73 1525.31 1465.9 Q1528.34 1469.05 1528.34 1474.49 Q1528.34 1479.82 1525.19 1483.03 Q1522.05 1486.25 1516.82 1486.25 Q1510.82 1486.25 1507.65 1481.67 Q1504.48 1477.06 1504.48 1468.33 Q1504.48 1460.14 1508.37 1455.28 Q1512.26 1450.39 1518.81 1450.39 Q1520.57 1450.39 1522.35 1450.74 Q1524.15 1451.09 1526.1 1451.78 Z" fill="#000000" fill-rule="nonzero" fill-opacity="1" /><path clip-path="url(#clip720)" d="M1900.66 1454.1 Q1897.05 1454.1 1895.22 1457.66 Q1893.41 1461.2 1893.41 1468.33 Q1893.41 1475.44 1895.22 1479.01 Q1897.05 1482.55 1900.66 1482.55 Q1904.29 1482.55 1906.1 1479.01 Q1907.93 1475.44 1907.93 1468.33 Q1907.93 1461.2 1906.1 1457.66 Q1904.29 1454.1 1900.66 1454.1 M1900.66 1450.39 Q1906.47 1450.39 1909.53 1455 Q1912.6 1459.58 1912.6 1468.33 Q1912.6 1477.06 1909.53 1481.67 Q1906.47 1486.25 1900.66 1486.25 Q1894.85 1486.25 1891.77 1481.67 Q1888.72 1477.06 1888.72 1468.33 Q1888.72 1459.58 1891.77 1455 Q1894.85 1450.39 1900.66 1450.39 Z" fill="#000000" fill-rule="nonzero" fill-opacity="1" /><path clip-path="url(#clip720)" d="M1920.82 1479.7 L1925.71 1479.7 L1925.71 1485.58 L1920.82 1485.58 L1920.82 1479.7 Z" fill="#000000" fill-rule="nonzero" fill-opacity="1" /><path clip-path="url(#clip720)" d="M1945.89 1469.17 Q1942.56 1469.17 1940.64 1470.95 Q1938.74 1472.73 1938.74 1475.86 Q1938.74 1478.98 1940.64 1480.77 Q1942.56 1482.55 1945.89 1482.55 Q1949.22 1482.55 1951.15 1480.77 Q1953.07 1478.96 1953.07 1475.86 Q1953.07 1472.73 1951.15 1470.95 Q1949.25 1469.17 1945.89 1469.17 M1941.21 1467.18 Q1938.21 1466.44 1936.52 1464.38 Q1934.85 1462.32 1934.85 1459.35 Q1934.85 1455.21 1937.79 1452.8 Q1940.75 1450.39 1945.89 1450.39 Q1951.05 1450.39 1953.99 1452.8 Q1956.93 1455.21 1956.93 1459.35 Q1956.93 1462.32 1955.24 1464.38 Q1953.58 1466.44 1950.59 1467.18 Q1953.97 1467.96 1955.84 1470.26 Q1957.74 1472.55 1957.74 1475.86 Q1957.74 1480.88 1954.66 1483.57 Q1951.61 1486.25 1945.89 1486.25 Q1940.17 1486.25 1937.09 1483.57 Q1934.04 1480.88 1934.04 1475.86 Q1934.04 1472.55 1935.94 1470.26 Q1937.84 1467.96 1941.21 1467.18 M1939.5 1459.79 Q1939.5 1462.48 1941.17 1463.98 Q1942.86 1465.49 1945.89 1465.49 Q1948.9 1465.49 1950.59 1463.98 Q1952.3 1462.48 1952.3 1459.79 Q1952.3 1457.11 1950.59 1455.6 Q1948.9 1454.1 1945.89 1454.1 Q1942.86 1454.1 1941.17 1455.6 Q1939.5 1457.11 1939.5 1459.79 Z" fill="#000000" fill-rule="nonzero" fill-opacity="1" /><path clip-path="url(#clip720)" d="M2319.91 1481.64 L2327.55 1481.64 L2327.55 1455.28 L2319.24 1456.95 L2319.24 1452.69 L2327.5 1451.02 L2332.18 1451.02 L2332.18 1481.64 L2339.82 1481.64 L2339.82 1485.58 L2319.91 1485.58 L2319.91 1481.64 Z" fill="#000000" fill-rule="nonzero" fill-opacity="1" /><path clip-path="url(#clip720)" d="M2349.26 1479.7 L2354.14 1479.7 L2354.14 1485.58 L2349.26 1485.58 L2349.26 1479.7 Z" fill="#000000" fill-rule="nonzero" fill-opacity="1" /><path clip-path="url(#clip720)" d="M2374.33 1454.1 Q2370.72 1454.1 2368.89 1457.66 Q2367.08 1461.2 2367.08 1468.33 Q2367.08 1475.44 2368.89 1479.01 Q2370.72 1482.55 2374.33 1482.55 Q2377.96 1482.55 2379.77 1479.01 Q2381.6 1475.44 2381.6 1468.33 Q2381.6 1461.2 2379.77 1457.66 Q2377.96 1454.1 2374.33 1454.1 M2374.33 1450.39 Q2380.14 1450.39 2383.2 1455 Q2386.27 1459.58 2386.27 1468.33 Q2386.27 1477.06 2383.2 1481.67 Q2380.14 1486.25 2374.33 1486.25 Q2368.52 1486.25 2365.44 1481.67 Q2362.39 1477.06 2362.39 1468.33 Q2362.39 1459.58 2365.44 1455 Q2368.52 1450.39 2374.33 1450.39 Z" fill="#000000" fill-rule="nonzero" fill-opacity="1" /><path clip-path="url(#clip720)" d="M1269.42 1565.85 L1269.42 1581.6 L1263.53 1581.6 L1263.53 1532.62 Q1263.53 1518.1 1277.09 1518.1 Q1290.91 1518.1 1290.91 1530.36 Q1290.91 1539.08 1285.43 1542.26 Q1294.34 1545.13 1294.34 1553.63 Q1294.34 1568.71 1279 1568.71 Q1272.25 1568.71 1269.42 1565.85 M1269.42 1558.21 Q1272.95 1563.72 1279.22 1563.72 Q1288.39 1563.72 1288.39 1553.72 Q1288.39 1544.75 1273.62 1545.45 L1273.62 1540.03 Q1285.18 1540.03 1285.18 1529.85 Q1285.18 1522.88 1277.73 1522.88 Q1269.42 1522.88 1269.42 1532.81 L1269.42 1558.21 Z" fill="#000000" fill-rule="nonzero" fill-opacity="1" /><polyline clip-path="url(#clip722)" style="stroke:#000000; stroke-linecap:round; stroke-linejoin:round; stroke-width:2; stroke-opacity:0.1; fill:none" points="205.121,1206.56 2352.76,1206.56 "/>
<polyline clip-path="url(#clip722)" style="stroke:#000000; stroke-linecap:round; stroke-linejoin:round; stroke-width:2; stroke-opacity:0.1; fill:none" points="205.121,917.738 2352.76,917.738 "/>
<polyline clip-path="url(#clip722)" style="stroke:#000000; stroke-linecap:round; stroke-linejoin:round; stroke-width:2; stroke-opacity:0.1; fill:none" points="205.121,628.914 2352.76,628.914 "/>
<polyline clip-path="url(#clip722)" style="stroke:#000000; stroke-linecap:round; stroke-linejoin:round; stroke-width:2; stroke-opacity:0.1; fill:none" points="205.121,340.09 2352.76,340.09 "/>
<polyline clip-path="url(#clip720)" style="stroke:#000000; stroke-linecap:round; stroke-linejoin:round; stroke-width:4; stroke-opacity:1; fill:none" points="205.121,1423.18 205.121,123.472 "/>
<polyline clip-path="url(#clip720)" style="stroke:#000000; stroke-linecap:round; stroke-linejoin:round; stroke-width:4; stroke-opacity:1; fill:none" points="205.121,1206.56 224.019,1206.56 "/>
<polyline clip-path="url(#clip720)" style="stroke:#000000; stroke-linecap:round; stroke-linejoin:round; stroke-width:4; stroke-opacity:1; fill:none" points="205.121,917.738 224.019,917.738 "/>
<polyline clip-path="url(#clip720)" style="stroke:#000000; stroke-linecap:round; stroke-linejoin:round; stroke-width:4; stroke-opacity:1; fill:none" points="205.121,628.914 224.019,628.914 "/>
<polyline clip-path="url(#clip720)" style="stroke:#000000; stroke-linecap:round; stroke-linejoin:round; stroke-width:4; stroke-opacity:1; fill:none" points="205.121,340.09 224.019,340.09 "/>
<path clip-path="url(#clip720)" d="M157.177 1192.36 Q153.566 1192.36 151.737 1195.93 Q149.931 1199.47 149.931 1206.6 Q149.931 1213.7 151.737 1217.27 Q153.566 1220.81 157.177 1220.81 Q160.811 1220.81 162.616 1217.27 Q164.445 1213.7 164.445 1206.6 Q164.445 1199.47 162.616 1195.93 Q160.811 1192.36 157.177 1192.36 M157.177 1188.66 Q162.987 1188.66 166.042 1193.26 Q169.121 1197.85 169.121 1206.6 Q169.121 1215.32 166.042 1219.93 Q162.987 1224.51 157.177 1224.51 Q151.366 1224.51 148.288 1219.93 Q145.232 1215.32 145.232 1206.6 Q145.232 1197.85 148.288 1193.26 Q151.366 1188.66 157.177 1188.66 Z" fill="#000000" fill-rule="nonzero" fill-opacity="1" /><path clip-path="url(#clip720)" d="M121.043 931.083 L137.362 931.083 L137.362 935.018 L115.418 935.018 L115.418 931.083 Q118.08 928.328 122.663 923.699 Q127.269 919.046 128.45 917.703 Q130.695 915.18 131.575 913.444 Q132.478 911.685 132.478 909.995 Q132.478 907.24 130.533 905.504 Q128.612 903.768 125.51 903.768 Q123.311 903.768 120.857 904.532 Q118.427 905.296 115.649 906.847 L115.649 902.125 Q118.473 900.99 120.927 900.412 Q123.38 899.833 125.418 899.833 Q130.788 899.833 133.982 902.518 Q137.177 905.203 137.177 909.694 Q137.177 911.824 136.367 913.745 Q135.579 915.643 133.473 918.236 Q132.894 918.907 129.792 922.125 Q126.691 925.319 121.043 931.083 Z" fill="#000000" fill-rule="nonzero" fill-opacity="1" /><path clip-path="url(#clip720)" d="M157.177 903.537 Q153.566 903.537 151.737 907.101 Q149.931 910.643 149.931 917.773 Q149.931 924.879 151.737 928.444 Q153.566 931.986 157.177 931.986 Q160.811 931.986 162.616 928.444 Q164.445 924.879 164.445 917.773 Q164.445 910.643 162.616 907.101 Q160.811 903.537 157.177 903.537 M157.177 899.833 Q162.987 899.833 166.042 904.439 Q169.121 909.023 169.121 917.773 Q169.121 926.499 166.042 931.106 Q162.987 935.689 157.177 935.689 Q151.366 935.689 148.288 931.106 Q145.232 926.499 145.232 917.773 Q145.232 909.023 148.288 904.439 Q151.366 899.833 157.177 899.833 Z" fill="#000000" fill-rule="nonzero" fill-opacity="1" /><path clip-path="url(#clip720)" d="M129.862 615.708 L118.056 634.157 L129.862 634.157 L129.862 615.708 M128.635 611.634 L134.515 611.634 L134.515 634.157 L139.445 634.157 L139.445 638.046 L134.515 638.046 L134.515 646.194 L129.862 646.194 L129.862 638.046 L114.26 638.046 L114.26 633.532 L128.635 611.634 Z" fill="#000000" fill-rule="nonzero" fill-opacity="1" /><path clip-path="url(#clip720)" d="M157.177 614.713 Q153.566 614.713 151.737 618.277 Q149.931 621.819 149.931 628.949 Q149.931 636.055 151.737 639.62 Q153.566 643.162 157.177 643.162 Q160.811 643.162 162.616 639.62 Q164.445 636.055 164.445 628.949 Q164.445 621.819 162.616 618.277 Q160.811 614.713 157.177 614.713 M157.177 611.009 Q162.987 611.009 166.042 615.615 Q169.121 620.199 169.121 628.949 Q169.121 637.676 166.042 642.282 Q162.987 646.865 157.177 646.865 Q151.366 646.865 148.288 642.282 Q145.232 637.676 145.232 628.949 Q145.232 620.199 148.288 615.615 Q151.366 611.009 157.177 611.009 Z" fill="#000000" fill-rule="nonzero" fill-opacity="1" /><path clip-path="url(#clip720)" d="M127.593 338.227 Q124.445 338.227 122.593 340.379 Q120.765 342.532 120.765 346.282 Q120.765 350.009 122.593 352.185 Q124.445 354.338 127.593 354.338 Q130.742 354.338 132.57 352.185 Q134.422 350.009 134.422 346.282 Q134.422 342.532 132.57 340.379 Q130.742 338.227 127.593 338.227 M136.876 323.574 L136.876 327.833 Q135.117 327 133.311 326.56 Q131.529 326.12 129.769 326.12 Q125.14 326.12 122.686 329.245 Q120.255 332.37 119.908 338.69 Q121.274 336.676 123.334 335.611 Q125.394 334.523 127.871 334.523 Q133.08 334.523 136.089 337.694 Q139.121 340.842 139.121 346.282 Q139.121 351.606 135.973 354.824 Q132.825 358.041 127.593 358.041 Q121.598 358.041 118.427 353.458 Q115.256 348.852 115.256 340.125 Q115.256 331.93 119.144 327.069 Q123.033 322.185 129.584 322.185 Q131.343 322.185 133.126 322.532 Q134.931 322.88 136.876 323.574 Z" fill="#000000" fill-rule="nonzero" fill-opacity="1" /><path clip-path="url(#clip720)" d="M157.177 325.889 Q153.566 325.889 151.737 329.454 Q149.931 332.995 149.931 340.125 Q149.931 347.231 151.737 350.796 Q153.566 354.338 157.177 354.338 Q160.811 354.338 162.616 350.796 Q164.445 347.231 164.445 340.125 Q164.445 332.995 162.616 329.454 Q160.811 325.889 157.177 325.889 M157.177 322.185 Q162.987 322.185 166.042 326.792 Q169.121 331.375 169.121 340.125 Q169.121 348.852 166.042 353.458 Q162.987 358.041 157.177 358.041 Q151.366 358.041 148.288 353.458 Q145.232 348.852 145.232 340.125 Q145.232 331.375 148.288 326.792 Q151.366 322.185 157.177 322.185 Z" fill="#000000" fill-rule="nonzero" fill-opacity="1" /><path clip-path="url(#clip720)" d="M16.4842 925.673 L16.4842 919.244 L64.0042 919.244 L64.0042 925.673 L16.4842 925.673 Z" fill="#000000" fill-rule="nonzero" fill-opacity="1" /><path clip-path="url(#clip720)" d="M42.4881 877.071 L64.0042 877.071 L64.0042 882.928 L42.679 882.928 Q37.6183 882.928 35.1038 884.901 Q32.5894 886.874 32.5894 890.821 Q32.5894 895.563 35.6131 898.301 Q38.6368 901.038 43.8567 901.038 L64.0042 901.038 L64.0042 906.926 L28.3562 906.926 L28.3562 901.038 L33.8944 901.038 Q30.6797 898.937 29.0883 896.105 Q27.4968 893.24 27.4968 889.516 Q27.4968 883.373 31.3163 880.222 Q35.1038 877.071 42.4881 877.071 Z" fill="#000000" fill-rule="nonzero" fill-opacity="1" /><path clip-path="url(#clip720)" d="M18.2347 859.597 L28.3562 859.597 L28.3562 847.534 L32.9077 847.534 L32.9077 859.597 L52.2594 859.597 Q56.6199 859.597 57.8613 858.42 Q59.1026 857.21 59.1026 853.55 L59.1026 847.534 L64.0042 847.534 L64.0042 853.55 Q64.0042 860.329 61.4897 862.907 Q58.9434 865.486 52.2594 865.486 L32.9077 865.486 L32.9077 869.782 L28.3562 869.782 L28.3562 865.486 L18.2347 865.486 L18.2347 859.597 Z" fill="#000000" fill-rule="nonzero" fill-opacity="1" /><path clip-path="url(#clip720)" d="M44.7161 809.34 L47.5806 809.34 L47.5806 836.267 Q53.6281 835.885 56.8109 832.638 Q59.9619 829.36 59.9619 823.535 Q59.9619 820.162 59.1344 817.011 Q58.3069 813.828 56.6518 810.709 L62.1899 810.709 Q63.5267 813.86 64.227 817.17 Q64.9272 820.48 64.9272 823.886 Q64.9272 832.416 59.9619 837.413 Q54.9967 842.378 46.5303 842.378 Q37.7774 842.378 32.6531 837.667 Q27.4968 832.925 27.4968 824.904 Q27.4968 817.711 32.1438 813.541 Q36.7589 809.34 44.7161 809.34 M42.9973 815.196 Q38.1912 815.26 35.3266 817.902 Q32.4621 820.512 32.4621 824.84 Q32.4621 829.742 35.2312 832.702 Q38.0002 835.63 43.0292 836.076 L42.9973 815.196 Z" fill="#000000" fill-rule="nonzero" fill-opacity="1" /><path clip-path="url(#clip720)" d="M45.7664 776.27 Q39.4007 776.27 35.8996 778.912 Q32.3984 781.522 32.3984 786.264 Q32.3984 790.975 35.8996 793.617 Q39.4007 796.227 45.7664 796.227 Q52.1003 796.227 55.6014 793.617 Q59.1026 790.975 59.1026 786.264 Q59.1026 781.522 55.6014 778.912 Q52.1003 776.27 45.7664 776.27 M59.58 770.414 Q68.683 770.414 73.1071 774.456 Q77.5631 778.498 77.5631 786.837 Q77.5631 789.925 77.0857 792.662 Q76.6401 795.399 75.6852 797.977 L69.9879 797.977 Q71.3884 795.399 72.0568 792.885 Q72.7252 790.37 72.7252 787.76 Q72.7252 781.999 69.7015 779.135 Q66.7096 776.27 60.6303 776.27 L57.7339 776.27 Q60.885 778.084 62.4446 780.917 Q64.0042 783.75 64.0042 787.697 Q64.0042 794.253 59.0071 798.264 Q54.01 802.274 45.7664 802.274 Q37.491 802.274 32.4939 798.264 Q27.4968 794.253 27.4968 787.697 Q27.4968 783.75 29.0564 780.917 Q30.616 778.084 33.7671 776.27 L28.3562 776.27 L28.3562 770.414 L59.58 770.414 Z" fill="#000000" fill-rule="nonzero" fill-opacity="1" /><path clip-path="url(#clip720)" d="M33.8307 737.694 Q33.2578 738.681 33.0032 739.858 Q32.7167 741.004 32.7167 742.405 Q32.7167 747.37 35.9632 750.043 Q39.1779 752.685 45.2253 752.685 L64.0042 752.685 L64.0042 758.573 L28.3562 758.573 L28.3562 752.685 L33.8944 752.685 Q30.6479 750.839 29.0883 747.879 Q27.4968 744.919 27.4968 740.686 Q27.4968 740.081 27.5923 739.349 Q27.656 738.617 27.8151 737.726 L33.8307 737.694 Z" fill="#000000" fill-rule="nonzero" fill-opacity="1" /><path clip-path="url(#clip720)" d="M46.0847 715.35 Q46.0847 722.448 47.7079 725.185 Q49.3312 727.923 53.2461 727.923 Q56.3653 727.923 58.2114 725.886 Q60.0256 723.817 60.0256 720.284 Q60.0256 715.414 56.5881 712.486 Q53.1188 709.526 47.3897 709.526 L46.0847 709.526 L46.0847 715.35 M43.6657 703.669 L64.0042 703.669 L64.0042 709.526 L58.5933 709.526 Q61.8398 711.531 63.3994 714.523 Q64.9272 717.515 64.9272 721.843 Q64.9272 727.318 61.8716 730.564 Q58.7843 733.779 53.6281 733.779 Q47.6125 733.779 44.5569 729.769 Q41.5014 725.726 41.5014 717.737 L41.5014 709.526 L40.9285 709.526 Q36.8862 709.526 34.6901 712.199 Q32.4621 714.841 32.4621 719.647 Q32.4621 722.703 33.1941 725.599 Q33.9262 728.495 35.3903 731.169 L29.9795 731.169 Q28.7381 727.954 28.1334 724.931 Q27.4968 721.907 27.4968 719.042 Q27.4968 711.308 31.5072 707.489 Q35.5176 703.669 43.6657 703.669 Z" fill="#000000" fill-rule="nonzero" fill-opacity="1" /><path clip-path="url(#clip720)" d="M42.4881 661.974 L64.0042 661.974 L64.0042 667.83 L42.679 667.83 Q37.6183 667.83 35.1038 669.804 Q32.5894 671.777 32.5894 675.724 Q32.5894 680.466 35.6131 683.203 Q38.6368 685.941 43.8567 685.941 L64.0042 685.941 L64.0042 691.829 L28.3562 691.829 L28.3562 685.941 L33.8944 685.941 Q30.6797 683.84 29.0883 681.007 Q27.4968 678.143 27.4968 674.419 Q27.4968 668.276 31.3163 665.125 Q35.1038 661.974 42.4881 661.974 Z" fill="#000000" fill-rule="nonzero" fill-opacity="1" /><path clip-path="url(#clip720)" d="M33.7671 626.835 L14.479 626.835 L14.479 620.979 L64.0042 620.979 L64.0042 626.835 L58.657 626.835 Q61.8398 628.681 63.3994 631.514 Q64.9272 634.315 64.9272 638.262 Q64.9272 644.723 59.771 648.797 Q54.6147 652.839 46.212 652.839 Q37.8093 652.839 32.6531 648.797 Q27.4968 644.723 27.4968 638.262 Q27.4968 634.315 29.0564 631.514 Q30.5842 628.681 33.7671 626.835 M46.212 646.792 Q52.6732 646.792 56.3653 644.15 Q60.0256 641.476 60.0256 636.829 Q60.0256 632.182 56.3653 629.509 Q52.6732 626.835 46.212 626.835 Q39.7508 626.835 36.0905 629.509 Q32.3984 632.182 32.3984 636.829 Q32.3984 641.476 36.0905 644.15 Q39.7508 646.792 46.212 646.792 Z" fill="#000000" fill-rule="nonzero" fill-opacity="1" /><path clip-path="url(#clip720)" d="M776.181 44.2197 Q778.814 45.1109 781.285 48.0275 Q783.796 50.9442 786.308 56.0483 L794.612 72.576 L785.822 72.576 L778.085 57.061 Q775.087 50.9847 772.251 48.9997 Q769.456 47.0148 764.595 47.0148 L755.683 47.0148 L755.683 72.576 L747.5 72.576 L747.5 12.096 L765.972 12.096 Q776.343 12.096 781.447 16.4305 Q786.551 20.7649 786.551 29.5149 Q786.551 35.2267 783.877 38.994 Q781.244 42.7613 776.181 44.2197 M755.683 18.8205 L755.683 40.2903 L765.972 40.2903 Q771.887 40.2903 774.884 37.5762 Q777.923 34.8216 777.923 29.5149 Q777.923 24.2082 774.884 21.5346 Q771.887 18.8205 765.972 18.8205 L755.683 18.8205 Z" fill="#000000" fill-rule="nonzero" fill-opacity="1" /><path clip-path="url(#clip720)" d="M818.675 32.4315 Q812.679 32.4315 809.196 37.1306 Q805.712 41.7891 805.712 49.9314 Q805.712 58.0738 809.155 62.7728 Q812.639 67.4314 818.675 67.4314 Q824.63 67.4314 828.113 62.7323 Q831.597 58.0333 831.597 49.9314 Q831.597 41.8701 828.113 37.1711 Q824.63 32.4315 818.675 32.4315 M818.675 26.1121 Q828.397 26.1121 833.947 32.4315 Q839.496 38.7509 839.496 49.9314 Q839.496 61.0714 833.947 67.4314 Q828.397 73.7508 818.675 73.7508 Q808.912 73.7508 803.362 67.4314 Q797.853 61.0714 797.853 49.9314 Q797.853 38.7509 803.362 32.4315 Q808.912 26.1121 818.675 26.1121 Z" fill="#000000" fill-rule="nonzero" fill-opacity="1" /><path clip-path="url(#clip720)" d="M880.775 28.5427 L880.775 35.5912 Q877.615 33.9709 874.213 33.1607 Q870.81 32.3505 867.164 32.3505 Q861.614 32.3505 858.819 34.0519 Q856.065 35.7533 856.065 39.156 Q856.065 41.7486 858.049 43.2475 Q860.034 44.7058 866.03 46.0426 L868.582 46.6097 Q876.522 48.3111 879.843 51.4303 Q883.206 54.509 883.206 60.0587 Q883.206 66.3781 878.182 70.0644 Q873.2 73.7508 864.45 73.7508 Q860.804 73.7508 856.834 73.0216 Q852.905 72.3329 848.53 70.9151 L848.53 63.2184 Q852.662 65.3654 856.672 66.4591 Q860.683 67.5124 864.612 67.5124 Q869.878 67.5124 872.714 65.73 Q875.549 63.9071 875.549 60.6258 Q875.549 57.5877 873.483 55.9673 Q871.458 54.3469 864.531 52.8481 L861.938 52.2405 Q855.011 50.7821 851.933 47.7845 Q848.854 44.7463 848.854 39.4801 Q848.854 33.0797 853.391 29.5959 Q857.928 26.1121 866.273 26.1121 Q870.405 26.1121 874.051 26.7198 Q877.696 27.3274 880.775 28.5427 Z" fill="#000000" fill-rule="nonzero" fill-opacity="1" /><path clip-path="url(#clip720)" d="M933.882 48.0275 L933.882 51.6733 L899.612 51.6733 Q900.098 59.3701 904.23 63.421 Q908.402 67.4314 915.815 67.4314 Q920.109 67.4314 924.12 66.3781 Q928.171 65.3249 932.141 63.2184 L932.141 70.267 Q928.13 71.9684 923.917 72.8596 Q919.704 73.7508 915.37 73.7508 Q904.513 73.7508 898.153 67.4314 Q891.834 61.1119 891.834 50.3365 Q891.834 39.1965 897.829 32.6746 Q903.865 26.1121 914.073 26.1121 Q923.229 26.1121 928.535 32.0264 Q933.882 37.9003 933.882 48.0275 M926.429 45.84 Q926.348 39.7232 922.985 36.0774 Q919.664 32.4315 914.155 32.4315 Q907.916 32.4315 904.149 35.9558 Q900.422 39.4801 899.855 45.8805 L926.429 45.84 Z" fill="#000000" fill-rule="nonzero" fill-opacity="1" /><path clip-path="url(#clip720)" d="M983.83 45.1919 L983.83 72.576 L976.376 72.576 L976.376 45.4349 Q976.376 38.994 973.865 35.7938 Q971.353 32.5936 966.33 32.5936 Q960.294 32.5936 956.811 36.4419 Q953.327 40.2903 953.327 46.9338 L953.327 72.576 L945.833 72.576 L945.833 27.2059 L953.327 27.2059 L953.327 34.2544 Q956 30.163 959.606 28.1376 Q963.251 26.1121 967.991 26.1121 Q975.809 26.1121 979.82 30.9732 Q983.83 35.7938 983.83 45.1919 Z" fill="#000000" fill-rule="nonzero" fill-opacity="1" /><path clip-path="url(#clip720)" d="M1005.75 12.096 L1005.75 34.5785 L998.859 34.5785 L998.859 12.096 L1005.75 12.096 Z" fill="#000000" fill-rule="nonzero" fill-opacity="1" /><path clip-path="url(#clip720)" d="M1050.43 28.5427 L1050.43 35.5912 Q1047.27 33.9709 1043.86 33.1607 Q1040.46 32.3505 1036.82 32.3505 Q1031.27 32.3505 1028.47 34.0519 Q1025.72 35.7533 1025.72 39.156 Q1025.72 41.7486 1027.7 43.2475 Q1029.69 44.7058 1035.68 46.0426 L1038.23 46.6097 Q1046.17 48.3111 1049.5 51.4303 Q1052.86 54.509 1052.86 60.0587 Q1052.86 66.3781 1047.83 70.0644 Q1042.85 73.7508 1034.1 73.7508 Q1030.46 73.7508 1026.49 73.0216 Q1022.56 72.3329 1018.18 70.9151 L1018.18 63.2184 Q1022.31 65.3654 1026.32 66.4591 Q1030.33 67.5124 1034.26 67.5124 Q1039.53 67.5124 1042.37 65.73 Q1045.2 63.9071 1045.2 60.6258 Q1045.2 57.5877 1043.14 55.9673 Q1041.11 54.3469 1034.18 52.8481 L1031.59 52.2405 Q1024.66 50.7821 1021.58 47.7845 Q1018.51 44.7463 1018.51 39.4801 Q1018.51 33.0797 1023.04 29.5959 Q1027.58 26.1121 1035.92 26.1121 Q1040.06 26.1121 1043.7 26.7198 Q1047.35 27.3274 1050.43 28.5427 Z" fill="#000000" fill-rule="nonzero" fill-opacity="1" /><path clip-path="url(#clip720)" d="M1091.1 27.2059 L1098.55 27.2059 L1098.55 72.576 L1091.1 72.576 L1091.1 27.2059 M1091.1 9.54393 L1098.55 9.54393 L1098.55 18.9825 L1091.1 18.9825 L1091.1 9.54393 Z" fill="#000000" fill-rule="nonzero" fill-opacity="1" /><path clip-path="url(#clip720)" d="M1151.86 45.1919 L1151.86 72.576 L1144.41 72.576 L1144.41 45.4349 Q1144.41 38.994 1141.9 35.7938 Q1139.38 32.5936 1134.36 32.5936 Q1128.33 32.5936 1124.84 36.4419 Q1121.36 40.2903 1121.36 46.9338 L1121.36 72.576 L1113.86 72.576 L1113.86 27.2059 L1121.36 27.2059 L1121.36 34.2544 Q1124.03 30.163 1127.64 28.1376 Q1131.28 26.1121 1136.02 26.1121 Q1143.84 26.1121 1147.85 30.9732 Q1151.86 35.7938 1151.86 45.1919 Z" fill="#000000" fill-rule="nonzero" fill-opacity="1" /><path clip-path="url(#clip720)" d="M1174.1 14.324 L1174.1 27.2059 L1189.45 27.2059 L1189.45 32.9987 L1174.1 32.9987 L1174.1 57.6282 Q1174.1 63.1779 1175.6 64.7578 Q1177.14 66.3376 1181.8 66.3376 L1189.45 66.3376 L1189.45 72.576 L1181.8 72.576 Q1173.17 72.576 1169.89 69.3758 Q1166.61 66.1351 1166.61 57.6282 L1166.61 32.9987 L1161.14 32.9987 L1161.14 27.2059 L1166.61 27.2059 L1166.61 14.324 L1174.1 14.324 Z" fill="#000000" fill-rule="nonzero" fill-opacity="1" /><path clip-path="url(#clip720)" d="M1238.06 48.0275 L1238.06 51.6733 L1203.79 51.6733 Q1204.28 59.3701 1208.41 63.421 Q1212.58 67.4314 1220 67.4314 Q1224.29 67.4314 1228.3 66.3781 Q1232.35 65.3249 1236.32 63.2184 L1236.32 70.267 Q1232.31 71.9684 1228.1 72.8596 Q1223.89 73.7508 1219.55 73.7508 Q1208.7 73.7508 1202.34 67.4314 Q1196.02 61.1119 1196.02 50.3365 Q1196.02 39.1965 1202.01 32.6746 Q1208.05 26.1121 1218.26 26.1121 Q1227.41 26.1121 1232.72 32.0264 Q1238.06 37.9003 1238.06 48.0275 M1230.61 45.84 Q1230.53 39.7232 1227.17 36.0774 Q1223.85 32.4315 1218.34 32.4315 Q1212.1 32.4315 1208.33 35.9558 Q1204.6 39.4801 1204.04 45.8805 L1230.61 45.84 Z" fill="#000000" fill-rule="nonzero" fill-opacity="1" /><path clip-path="url(#clip720)" d="M1280.15 49.3643 Q1280.15 41.2625 1276.79 36.8065 Q1273.47 32.3505 1267.43 32.3505 Q1261.44 32.3505 1258.08 36.8065 Q1254.75 41.2625 1254.75 49.3643 Q1254.75 57.4256 1258.08 61.8816 Q1261.44 66.3376 1267.43 66.3376 Q1273.47 66.3376 1276.79 61.8816 Q1280.15 57.4256 1280.15 49.3643 M1287.61 66.9452 Q1287.61 78.5308 1282.46 84.1616 Q1277.32 89.8329 1266.7 89.8329 Q1262.78 89.8329 1259.29 89.2252 Q1255.81 88.6581 1252.53 87.4428 L1252.53 80.1917 Q1255.81 81.9741 1259.01 82.8248 Q1262.21 83.6755 1265.53 83.6755 Q1272.86 83.6755 1276.51 79.8271 Q1280.15 76.0193 1280.15 68.282 L1280.15 64.5957 Q1277.84 68.6061 1274.24 70.5911 Q1270.63 72.576 1265.61 72.576 Q1257.27 72.576 1252.16 66.2161 Q1247.06 59.8562 1247.06 49.3643 Q1247.06 38.832 1252.16 32.472 Q1257.27 26.1121 1265.61 26.1121 Q1270.63 26.1121 1274.24 28.0971 Q1277.84 30.082 1280.15 34.0924 L1280.15 27.2059 L1287.61 27.2059 L1287.61 66.9452 Z" fill="#000000" fill-rule="nonzero" fill-opacity="1" /><path clip-path="url(#clip720)" d="M1329.25 34.1734 Q1327.99 33.4443 1326.5 33.1202 Q1325.04 32.7556 1323.26 32.7556 Q1316.94 32.7556 1313.53 36.8875 Q1310.17 40.9789 1310.17 48.6757 L1310.17 72.576 L1302.68 72.576 L1302.68 27.2059 L1310.17 27.2059 L1310.17 34.2544 Q1312.52 30.1225 1316.29 28.1376 Q1320.06 26.1121 1325.44 26.1121 Q1326.21 26.1121 1327.14 26.2337 Q1328.08 26.3147 1329.21 26.5172 L1329.25 34.1734 Z" fill="#000000" fill-rule="nonzero" fill-opacity="1" /><path clip-path="url(#clip720)" d="M1357.69 49.7694 Q1348.65 49.7694 1345.17 51.8354 Q1341.69 53.9013 1341.69 58.8839 Q1341.69 62.8538 1344.28 65.2034 Q1346.91 67.5124 1351.41 67.5124 Q1357.61 67.5124 1361.33 63.1374 Q1365.1 58.7219 1365.1 51.4303 L1365.1 49.7694 L1357.69 49.7694 M1372.55 46.6907 L1372.55 72.576 L1365.1 72.576 L1365.1 65.6895 Q1362.55 69.8214 1358.74 71.8063 Q1354.93 73.7508 1349.42 73.7508 Q1342.46 73.7508 1338.32 69.8619 Q1334.23 65.9325 1334.23 59.3701 Q1334.23 51.7138 1339.34 47.825 Q1344.48 43.9361 1354.65 43.9361 L1365.1 43.9361 L1365.1 43.2069 Q1365.1 38.0623 1361.7 35.2672 Q1358.34 32.4315 1352.22 32.4315 Q1348.33 32.4315 1344.64 33.3632 Q1340.96 34.295 1337.56 36.1584 L1337.56 29.2718 Q1341.65 27.692 1345.49 26.9223 Q1349.34 26.1121 1352.99 26.1121 Q1362.83 26.1121 1367.69 31.2163 Q1372.55 36.3204 1372.55 46.6907 Z" fill="#000000" fill-rule="nonzero" fill-opacity="1" /><path clip-path="url(#clip720)" d="M1425.62 45.1919 L1425.62 72.576 L1418.17 72.576 L1418.17 45.4349 Q1418.17 38.994 1415.66 35.7938 Q1413.14 32.5936 1408.12 32.5936 Q1402.09 32.5936 1398.6 36.4419 Q1395.12 40.2903 1395.12 46.9338 L1395.12 72.576 L1387.62 72.576 L1387.62 27.2059 L1395.12 27.2059 L1395.12 34.2544 Q1397.79 30.163 1401.4 28.1376 Q1405.04 26.1121 1409.78 26.1121 Q1417.6 26.1121 1421.61 30.9732 Q1425.62 35.7938 1425.62 45.1919 Z" fill="#000000" fill-rule="nonzero" fill-opacity="1" /><path clip-path="url(#clip720)" d="M1470.34 34.0924 L1470.34 9.54393 L1477.8 9.54393 L1477.8 72.576 L1470.34 72.576 L1470.34 65.7705 Q1467.99 69.8214 1464.39 71.8063 Q1460.82 73.7508 1455.8 73.7508 Q1447.58 73.7508 1442.39 67.1883 Q1437.25 60.6258 1437.25 49.9314 Q1437.25 39.2371 1442.39 32.6746 Q1447.58 26.1121 1455.8 26.1121 Q1460.82 26.1121 1464.39 28.0971 Q1467.99 30.0415 1470.34 34.0924 M1444.94 49.9314 Q1444.94 58.1548 1448.31 62.8538 Q1451.71 67.5124 1457.62 67.5124 Q1463.54 67.5124 1466.94 62.8538 Q1470.34 58.1548 1470.34 49.9314 Q1470.34 41.7081 1466.94 37.0496 Q1463.54 32.3505 1457.62 32.3505 Q1451.71 32.3505 1448.31 37.0496 Q1444.94 41.7081 1444.94 49.9314 Z" fill="#000000" fill-rule="nonzero" fill-opacity="1" /><path clip-path="url(#clip720)" d="M1495.05 62.2867 L1503.6 62.2867 L1503.6 69.2543 L1496.96 82.2172 L1491.73 82.2172 L1495.05 69.2543 L1495.05 62.2867 Z" fill="#000000" fill-rule="nonzero" fill-opacity="1" /><path clip-path="url(#clip720)" d="M1568.13 64.3122 Q1569.59 66.2566 1573.97 66.2566 L1577.57 66.2566 L1577.57 72.576 L1573.07 72.576 Q1565.78 72.576 1562.46 68.6871 Q1559.14 64.7172 1559.14 56.1293 L1559.14 34.6595 L1542.13 34.6595 L1542.13 27.2059 L1583.97 27.2059 L1583.97 34.6595 L1566.76 34.6595 L1566.76 56.5749 Q1566.76 62.4487 1568.13 64.3122 Z" fill="#000000" fill-rule="nonzero" fill-opacity="1" /><path clip-path="url(#clip720)" d="M1596.81 34.9026 L1648.75 34.9026 L1648.75 41.7081 L1596.81 41.7081 L1596.81 34.9026 M1596.81 51.4303 L1648.75 51.4303 L1648.75 58.3168 L1596.81 58.3168 L1596.81 51.4303 Z" fill="#000000" fill-rule="nonzero" fill-opacity="1" /><path clip-path="url(#clip720)" d="M1673.46 65.6895 L1702.01 65.6895 L1702.01 72.576 L1663.61 72.576 L1663.61 65.6895 Q1668.27 60.8689 1676.29 52.7671 Q1684.35 44.6248 1686.42 42.2752 Q1690.35 37.8598 1691.89 34.8216 Q1693.47 31.7429 1693.47 28.7857 Q1693.47 23.9651 1690.06 20.927 Q1686.7 17.8888 1681.27 17.8888 Q1677.43 17.8888 1673.13 19.2256 Q1668.88 20.5624 1664.02 23.2765 L1664.02 15.0127 Q1668.96 13.0277 1673.25 12.015 Q1677.55 11.0023 1681.11 11.0023 Q1690.51 11.0023 1696.1 15.7013 Q1701.69 20.4004 1701.69 28.2591 Q1701.69 31.9859 1700.27 35.3482 Q1698.9 38.6699 1695.21 43.2069 Q1694.2 44.3817 1688.77 50.0125 Q1683.34 55.6027 1673.46 65.6895 Z" fill="#000000" fill-rule="nonzero" fill-opacity="1" /><path clip-path="url(#clip720)" d="M1719.27 12.096 L1751.4 12.096 L1751.4 18.9825 L1726.77 18.9825 L1726.77 33.8088 Q1728.55 33.2012 1730.33 32.9176 Q1732.11 32.5936 1733.9 32.5936 Q1744.02 32.5936 1749.94 38.1433 Q1755.85 43.6931 1755.85 53.1722 Q1755.85 62.9348 1749.78 68.3631 Q1743.7 73.7508 1732.64 73.7508 Q1728.83 73.7508 1724.86 73.1026 Q1720.93 72.4545 1716.72 71.1582 L1716.72 62.9348 Q1720.37 64.9198 1724.25 65.892 Q1728.14 66.8642 1732.48 66.8642 Q1739.49 66.8642 1743.58 63.1779 Q1747.67 59.4916 1747.67 53.1722 Q1747.67 46.8528 1743.58 43.1664 Q1739.49 39.4801 1732.48 39.4801 Q1729.2 39.4801 1725.92 40.2093 Q1722.67 40.9384 1719.27 42.4778 L1719.27 12.096 Z" fill="#000000" fill-rule="nonzero" fill-opacity="1" /><path clip-path="url(#clip720)" d="M1789.47 17.4837 Q1783.15 17.4837 1779.95 23.7221 Q1776.79 29.92 1776.79 42.3968 Q1776.79 54.833 1779.95 61.0714 Q1783.15 67.2693 1789.47 67.2693 Q1795.83 67.2693 1798.99 61.0714 Q1802.19 54.833 1802.19 42.3968 Q1802.19 29.92 1798.99 23.7221 Q1795.83 17.4837 1789.47 17.4837 M1789.47 11.0023 Q1799.64 11.0023 1804.99 19.0636 Q1810.38 27.0843 1810.38 42.3968 Q1810.38 57.6687 1804.99 65.73 Q1799.64 73.7508 1789.47 73.7508 Q1779.31 73.7508 1773.92 65.73 Q1768.57 57.6687 1768.57 42.3968 Q1768.57 27.0843 1773.92 19.0636 Q1779.31 11.0023 1789.47 11.0023 Z" fill="#000000" fill-rule="nonzero" fill-opacity="1" /><polyline clip-path="url(#clip722)" style="stroke:#1b9e77; stroke-linecap:round; stroke-linejoin:round; stroke-width:8; stroke-opacity:1; fill:none" points="206.869,193.081 208.617,194.764 210.364,197.564 212.112,201.477 213.86,206.494 215.608,212.605 216.482,216.067 217.355,219.798 218.229,223.796 219.103,228.058 221.123,238.913 223.143,251.141 225.164,264.709 227.184,279.582 229.204,295.719 231.224,313.076 233.244,331.608 235.264,351.264 237.284,371.993 239.304,393.74 241.324,416.446 243.344,440.052 247.385,489.716 251.425,542.213 255.465,597.002 259.505,653.525 263.545,711.214 267.586,769.498 271.626,827.809 275.666,885.593 279.706,942.311 283.746,997.449 287.787,1050.53 291.827,1101.09 293.847,1125.31 295.867,1148.75 297.887,1171.36 299.907,1193.12 301.927,1213.98 303.947,1233.91 305.968,1252.87 307.988,1270.84 310.008,1287.8 312.028,1303.72 314.048,1318.58 316.068,1332.38 318.088,1345.1 320.108,1356.74 322.128,1367.29 324.148,1376.75 326.168,1385.12 328.189,1392.42 330.209,1398.65 332.229,1403.83 334.249,1407.96 336.269,1411.08 338.289,1413.2 340.309,1414.35 342.329,1414.55 344.349,1413.83 346.369,1412.24 348.39,1409.79 350.818,1405.78 353.246,1400.66 355.674,1394.5 358.102,1387.39 362.958,1370.57 367.814,1350.84 372.669,1328.86 377.525,1305.29 382.381,1280.79 387.237,1255.99 392.093,1231.5 396.949,1207.89 401.805,1185.67 406.661,1165.27 411.517,1147.1 416.373,1131.46 421.229,1118.58 426.085,1108.62 430.191,1102.53 434.297,1098.6 438.402,1096.78 442.508,1097.02 446.614,1099.22 450.719,1103.25 454.825,1108.96 458.931,1116.17 463.036,1124.68 467.142,1134.3 471.248,1144.8 475.353,1155.96 483.565,1179.36 491.776,1202.72 496.236,1214.81 500.696,1226.17 505.156,1236.61 509.616,1245.93 514.076,1254.01 518.535,1260.71 522.995,1265.96 527.455,1269.72 531.915,1271.96 536.375,1272.71 540.835,1272.02 545.295,1269.97 549.755,1266.65 554.215,1262.2 558.675,1256.75 563.135,1250.47 571.358,1237.28 579.581,1222.93 587.804,1208.55 596.028,1195.15 604.251,1183.6 612.474,1174.59 616.586,1171.18 620.698,1168.55 624.809,1166.72 628.921,1165.69 633.329,1165.46 637.737,1166.1 642.145,1167.56 646.553,1169.78 655.369,1176.16 664.186,1184.48 681.818,1203.59 699.451,1220.53 704.558,1224.27 709.665,1227.32 714.772,1229.63 719.88,1231.18 730.094,1231.97 740.308,1229.91 750.523,1225.51 760.737,1219.47 770.952,1212.63 781.166,1205.81 790.244,1200.38 799.321,1195.98 808.399,1192.91 817.476,1191.31 826.553,1191.19 835.631,1192.43 844.708,1194.79 853.786,1197.96 869.706,1204.39 885.626,1210.34 901.546,1214.36 917.466,1215.71 934.823,1214.28 952.181,1210.78 969.538,1206.66 986.895,1203.27 1004.36,1201.51 1021.82,1201.62 1039.28,1203.23 1056.74,1205.54 1095.35,1209.25 1133.96,1208.34 1170.69,1205.81 1207.43,1205.09 1283.82,1207.3 1348.13,1206.52 1426.64,1206.45 1498.56,1206.7 1564.99,1206.48 1632.27,1206.58 1707.68,1206.57 1776.02,1206.55 1854.25,1206.57 1926.69,1206.56 1998.11,1206.56 2067.45,1206.56 2138.53,1206.56 2216.41,1206.56 2329.55,1206.56 2352.76,1206.56 "/>
<polyline clip-path="url(#clip722)" style="stroke:#d95f02; stroke-linecap:round; stroke-linejoin:round; stroke-width:8; stroke-opacity:1; fill:none" points="205.23,-282713 205.339,-140753 205.449,-93433.4 205.558,-69773.4 205.667,-55577.4 205.776,-46113.3 205.886,-39353.3 205.995,-34283.3 206.104,-30340 206.213,-27185.3 206.323,-24604.2 206.432,-22453.3 206.541,-20633.3 206.65,-19073.3 206.76,-17721.3 206.869,-16538.3 206.978,-15494.4 207.087,-14566.6 207.196,-13736.4 207.306,-12989.2 207.524,-11698.7 207.743,-10623.2 207.961,-9713.16 208.18,-8933.14 208.398,-8257.12 208.617,-7665.6 208.835,-7143.67 209.053,-6679.73 209.272,-6264.62 209.49,-5891.02 209.927,-5245.71 210.364,-4707.94 210.801,-4252.9 211.238,-3862.85 211.675,-3524.81 212.112,-3229.02 212.549,-2968.03 212.986,-2736.02 213.423,-2528.44 213.86,-2341.61 214.734,-2018.89 215.608,-1749.94 216.482,-1522.36 217.355,-1327.28 217.792,-1239.82 218.229,-1158.19 218.666,-1081.83 219.103,-1010.24 223.143,-512.604 227.184,-197.088 231.224,20.8747 235.264,180.511 243.344,398.783 251.425,541.139 259.505,641.416 267.586,715.942 275.666,773.564 283.746,819.494 299.907,888.228 316.068,937.349 332.229,974.326 348.39,1003.26 367.814,1030.75 387.237,1052.69 406.661,1070.65 426.085,1085.67 458.931,1106.21 491.776,1122.4 527.455,1136.52 563.135,1148.01 596.028,1156.82 628.921,1164.28 699.451,1176.8 781.166,1186.99 853.786,1193.3 917.466,1197.28 986.895,1200.38 1056.74,1202.54 1133.96,1204.13 1207.43,1205.09 1283.82,1205.71 1348.13,1206.04 1426.64,1206.28 1498.56,1206.41 1564.99,1206.47 1632.27,1206.51 1707.68,1206.54 1776.02,1206.55 1854.25,1206.56 1926.69,1206.56 1998.11,1206.56 2067.45,1206.56 2138.53,1206.56 2216.41,1206.56 2329.55,1206.56 2352.76,1206.56 "/>
<path clip-path="url(#clip720)" d="M1850.09 322.316 L2281.17 322.316 L2281.17 166.796 L1850.09 166.796  Z" fill="#ffffff" fill-rule="evenodd" fill-opacity="1"/>
<polyline clip-path="url(#clip720)" style="stroke:#000000; stroke-linecap:round; stroke-linejoin:round; stroke-width:4; stroke-opacity:1; fill:none" points="1850.09,322.316 2281.17,322.316 2281.17,166.796 1850.09,166.796 1850.09,322.316 "/>
<polyline clip-path="url(#clip720)" style="stroke:#1b9e77; stroke-linecap:round; stroke-linejoin:round; stroke-width:8; stroke-opacity:1; fill:none" points="1873.95,218.636 2017.12,218.636 "/>
<path clip-path="url(#clip720)" d="M2057.49 199.897 L2057.49 203.439 L2053.42 203.439 Q2051.13 203.439 2050.22 204.365 Q2049.34 205.291 2049.34 207.698 L2049.34 209.99 L2056.36 209.99 L2056.36 213.3 L2049.34 213.3 L2049.34 235.916 L2045.06 235.916 L2045.06 213.3 L2040.99 213.3 L2040.99 209.99 L2045.06 209.99 L2045.06 208.184 Q2045.06 203.856 2047.08 201.888 Q2049.09 199.897 2053.46 199.897 L2057.49 199.897 Z" fill="#000000" fill-rule="nonzero" fill-opacity="1" /><path clip-path="url(#clip720)" d="M2071.29 199.944 Q2068.19 205.268 2066.68 210.476 Q2065.18 215.684 2065.18 221.032 Q2065.18 226.379 2066.68 231.633 Q2068.21 236.865 2071.29 242.166 L2067.58 242.166 Q2064.11 236.726 2062.38 231.471 Q2060.66 226.217 2060.66 221.032 Q2060.66 215.87 2062.38 210.638 Q2064.09 205.407 2067.58 199.944 L2071.29 199.944 Z" fill="#000000" fill-rule="nonzero" fill-opacity="1" /><path clip-path="url(#clip720)" d="M2089.76 203.948 L2101.73 235.916 L2097.21 235.916 L2089.95 216.749 L2081.01 235.916 L2076.5 235.916 L2087.86 211.055 L2086.15 206.471 Q2085.06 203.555 2082.58 203.555 L2080.36 203.555 L2080.36 199.897 L2083.07 199.944 Q2088.3 200.013 2089.76 203.948 Z" fill="#000000" fill-rule="nonzero" fill-opacity="1" /><path clip-path="url(#clip720)" d="M2106.94 199.944 L2110.64 199.944 Q2114.11 205.407 2115.82 210.638 Q2117.56 215.87 2117.56 221.032 Q2117.56 226.217 2115.82 231.471 Q2114.11 236.726 2110.64 242.166 L2106.94 242.166 Q2110.01 236.865 2111.52 231.633 Q2113.05 226.379 2113.05 221.032 Q2113.05 215.684 2111.52 210.476 Q2110.01 205.268 2106.94 199.944 Z" fill="#000000" fill-rule="nonzero" fill-opacity="1" /><path clip-path="url(#clip720)" d="M2126.29 201.356 L2130.96 201.356 L2130.96 215.962 L2146.47 201.356 L2152.49 201.356 L2135.34 217.467 L2153.72 235.916 L2147.56 235.916 L2130.96 219.272 L2130.96 235.916 L2126.29 235.916 L2126.29 201.356 Z" fill="#000000" fill-rule="nonzero" fill-opacity="1" /><path clip-path="url(#clip720)" d="M2167.42 199.944 Q2164.32 205.268 2162.82 210.476 Q2161.31 215.684 2161.31 221.032 Q2161.31 226.379 2162.82 231.633 Q2164.34 236.865 2167.42 242.166 L2163.72 242.166 Q2160.25 236.726 2158.51 231.471 Q2156.8 226.217 2156.8 221.032 Q2156.8 215.87 2158.51 210.638 Q2160.22 205.407 2163.72 199.944 L2167.42 199.944 Z" fill="#000000" fill-rule="nonzero" fill-opacity="1" /><path clip-path="url(#clip720)" d="M2185.89 203.948 L2197.86 235.916 L2193.35 235.916 L2186.08 216.749 L2177.14 235.916 L2172.63 235.916 L2184 211.055 L2182.28 206.471 Q2181.19 203.555 2178.72 203.555 L2176.5 203.555 L2176.5 199.897 L2179.2 199.944 Q2184.44 200.013 2185.89 203.948 Z" fill="#000000" fill-rule="nonzero" fill-opacity="1" /><path clip-path="url(#clip720)" d="M2204.83 230.036 L2209.71 230.036 L2209.71 234.018 L2205.92 241.425 L2202.93 241.425 L2204.83 234.018 L2204.83 230.036 Z" fill="#000000" fill-rule="nonzero" fill-opacity="1" /><path clip-path="url(#clip720)" d="M2231.52 231.194 Q2232.35 232.305 2234.85 232.305 L2236.91 232.305 L2236.91 235.916 L2234.34 235.916 Q2230.18 235.916 2228.28 233.694 Q2226.38 231.425 2226.38 226.518 L2226.38 214.249 L2216.66 214.249 L2216.66 209.99 L2240.57 209.99 L2240.57 214.249 L2230.73 214.249 L2230.73 226.772 Q2230.73 230.129 2231.52 231.194 Z" fill="#000000" fill-rule="nonzero" fill-opacity="1" /><path clip-path="url(#clip720)" d="M2246.68 199.944 L2250.38 199.944 Q2253.86 205.407 2255.57 210.638 Q2257.31 215.87 2257.31 221.032 Q2257.31 226.217 2255.57 231.471 Q2253.86 236.726 2250.38 242.166 L2246.68 242.166 Q2249.76 236.865 2251.26 231.633 Q2252.79 226.379 2252.79 221.032 Q2252.79 215.684 2251.26 210.476 Q2249.76 205.268 2246.68 199.944 Z" fill="#000000" fill-rule="nonzero" fill-opacity="1" /><polyline clip-path="url(#clip720)" style="stroke:#d95f02; stroke-linecap:round; stroke-linejoin:round; stroke-width:8; stroke-opacity:1; fill:none" points="1873.95,270.476 2017.12,270.476 "/>
<path clip-path="url(#clip720)" d="M2057.49 251.737 L2057.49 255.279 L2053.42 255.279 Q2051.13 255.279 2050.22 256.205 Q2049.34 257.131 2049.34 259.538 L2049.34 261.83 L2056.36 261.83 L2056.36 265.14 L2049.34 265.14 L2049.34 287.756 L2045.06 287.756 L2045.06 265.14 L2040.99 265.14 L2040.99 261.83 L2045.06 261.83 L2045.06 260.024 Q2045.06 255.696 2047.08 253.728 Q2049.09 251.737 2053.46 251.737 L2057.49 251.737 Z" fill="#000000" fill-rule="nonzero" fill-opacity="1" /><path clip-path="url(#clip720)" d="M2071.29 251.784 Q2068.19 257.108 2066.68 262.316 Q2065.18 267.524 2065.18 272.872 Q2065.18 278.219 2066.68 283.473 Q2068.21 288.705 2071.29 294.006 L2067.58 294.006 Q2064.11 288.566 2062.38 283.311 Q2060.66 278.057 2060.66 272.872 Q2060.66 267.71 2062.38 262.478 Q2064.09 257.247 2067.58 251.784 L2071.29 251.784 Z" fill="#000000" fill-rule="nonzero" fill-opacity="1" /><path clip-path="url(#clip720)" d="M2089.76 255.788 L2101.73 287.756 L2097.21 287.756 L2089.95 268.589 L2081.01 287.756 L2076.5 287.756 L2087.86 262.895 L2086.15 258.311 Q2085.06 255.395 2082.58 255.395 L2080.36 255.395 L2080.36 251.737 L2083.07 251.784 Q2088.3 251.853 2089.76 255.788 Z" fill="#000000" fill-rule="nonzero" fill-opacity="1" /><path clip-path="url(#clip720)" d="M2106.94 251.784 L2110.64 251.784 Q2114.11 257.247 2115.82 262.478 Q2117.56 267.71 2117.56 272.872 Q2117.56 278.057 2115.82 283.311 Q2114.11 288.566 2110.64 294.006 L2106.94 294.006 Q2110.01 288.705 2111.52 283.473 Q2113.05 278.219 2113.05 272.872 Q2113.05 267.524 2111.52 262.316 Q2110.01 257.108 2106.94 251.784 Z" fill="#000000" fill-rule="nonzero" fill-opacity="1" /></svg>
