<?xml version="1.0" encoding="utf-8"?>
<svg xmlns="http://www.w3.org/2000/svg" xmlns:xlink="http://www.w3.org/1999/xlink" width="600" height="400" viewBox="0 0 2400 1600">
<defs>
  <clipPath id="clip360">
    <rect x="0" y="0" width="2400" height="1600"/>
  </clipPath>
</defs>
<path clip-path="url(#clip360)" d="M0 1600 L2400 1600 L2400 0 L0 0  Z" fill="#ffffff" fill-rule="evenodd" fill-opacity="1"/>
<defs>
  <clipPath id="clip361">
    <rect x="480" y="0" width="1681" height="1600"/>
  </clipPath>
</defs>
<path clip-path="url(#clip360)" d="M279.704 1423.18 L2352.76 1423.18 L2352.76 123.472 L279.704 123.472  Z" fill="#ffffff" fill-rule="evenodd" fill-opacity="1"/>
<defs>
  <clipPath id="clip362">
    <rect x="279" y="123" width="2074" height="1301"/>
  </clipPath>
</defs>
<polyline clip-path="url(#clip362)" style="stroke:#000000; stroke-linecap:round; stroke-linejoin:round; stroke-width:2; stroke-opacity:0.1; fill:none" points="694.314,1423.18 694.314,123.472 "/>
<polyline clip-path="url(#clip362)" style="stroke:#000000; stroke-linecap:round; stroke-linejoin:round; stroke-width:2; stroke-opacity:0.1; fill:none" points="1212.58,1423.18 1212.58,123.472 "/>
<polyline clip-path="url(#clip362)" style="stroke:#000000; stroke-linecap:round; stroke-linejoin:round; stroke-width:2; stroke-opacity:0.1; fill:none" points="1730.84,1423.18 1730.84,123.472 "/>
<polyline clip-path="url(#clip362)" style="stroke:#000000; stroke-linecap:round; stroke-linejoin:round; stroke-width:2; stroke-opacity:0.1; fill:none" points="2249.1,1423.18 2249.1,123.472 "/>
<polyline clip-path="url(#clip360)" style="stroke:#000000; stroke-linecap:round; stroke-linejoin:round; stroke-width:4; stroke-opacity:1; fill:none" points="279.704,1423.18 2352.76,1423.18 "/>
<polyline clip-path="url(#clip360)" style="stroke:#000000; stroke-linecap:round; stroke-linejoin:round; stroke-width:4; stroke-opacity:1; fill:none" points="694.314,1423.18 694.314,1404.28 "/>
<polyline clip-path="url(#clip360)" style="stroke:#000000; stroke-linecap:round; stroke-linejoin:round; stroke-width:4; stroke-opacity:1; fill:none" points="1212.58,1423.18 1212.58,1404.28 "/>
<polyline clip-path="url(#clip360)" style="stroke:#000000; stroke-linecap:round; stroke-linejoin:round; stroke-width:4; stroke-opacity:1; fill:none" points="1730.84,1423.18 1730.84,1404.28 "/>
<polyline clip-path="url(#clip360)" style="stroke:#000000; stroke-linecap:round; stroke-linejoin:round; stroke-width:4; stroke-opacity:1; fill:none" points="2249.1,1423.18 2249.1,1404.28 "/>
<path clip-path="url(#clip360)" d="M668.076 1466.95 Q671.432 1467.66 673.307 1469.93 Q675.206 1472.2 675.206 1475.53 Q675.206 1480.65 671.687 1483.45 Q668.169 1486.25 661.687 1486.25 Q659.511 1486.25 657.196 1485.81 Q654.905 1485.39 652.451 1484.54 L652.451 1480.02 Q654.396 1481.16 656.71 1481.74 Q659.025 1482.32 661.548 1482.32 Q665.946 1482.32 668.238 1480.58 Q670.553 1478.84 670.553 1475.53 Q670.553 1472.48 668.4 1470.77 Q666.27 1469.03 662.451 1469.03 L658.423 1469.03 L658.423 1465.19 L662.636 1465.19 Q666.085 1465.19 667.914 1463.82 Q669.743 1462.43 669.743 1459.84 Q669.743 1457.18 667.845 1455.77 Q665.97 1454.33 662.451 1454.33 Q660.53 1454.33 658.331 1454.75 Q656.132 1455.16 653.493 1456.04 L653.493 1451.88 Q656.155 1451.14 658.47 1450.77 Q660.808 1450.39 662.868 1450.39 Q668.192 1450.39 671.294 1452.83 Q674.395 1455.23 674.395 1459.35 Q674.395 1462.22 672.752 1464.21 Q671.108 1466.18 668.076 1466.95 Z" fill="#000000" fill-rule="nonzero" fill-opacity="1" /><path clip-path="url(#clip360)" d="M694.071 1454.1 Q690.46 1454.1 688.631 1457.66 Q686.826 1461.2 686.826 1468.33 Q686.826 1475.44 688.631 1479.01 Q690.46 1482.55 694.071 1482.55 Q697.705 1482.55 699.511 1479.01 Q701.34 1475.44 701.34 1468.33 Q701.34 1461.2 699.511 1457.66 Q697.705 1454.1 694.071 1454.1 M694.071 1450.39 Q699.881 1450.39 702.937 1455 Q706.016 1459.58 706.016 1468.33 Q706.016 1477.06 702.937 1481.67 Q699.881 1486.25 694.071 1486.25 Q688.261 1486.25 685.182 1481.67 Q682.127 1477.06 682.127 1468.33 Q682.127 1459.58 685.182 1455 Q688.261 1450.39 694.071 1450.39 Z" fill="#000000" fill-rule="nonzero" fill-opacity="1" /><path clip-path="url(#clip360)" d="M724.233 1454.1 Q720.622 1454.1 718.793 1457.66 Q716.988 1461.2 716.988 1468.33 Q716.988 1475.44 718.793 1479.01 Q720.622 1482.55 724.233 1482.55 Q727.867 1482.55 729.673 1479.01 Q731.502 1475.44 731.502 1468.33 Q731.502 1461.2 729.673 1457.66 Q727.867 1454.1 724.233 1454.1 M724.233 1450.39 Q730.043 1450.39 733.099 1455 Q736.178 1459.58 736.178 1468.33 Q736.178 1477.06 733.099 1481.67 Q730.043 1486.25 724.233 1486.25 Q718.423 1486.25 715.344 1481.67 Q712.289 1477.06 712.289 1468.33 Q712.289 1459.58 715.344 1455 Q718.423 1450.39 724.233 1450.39 Z" fill="#000000" fill-rule="nonzero" fill-opacity="1" /><path clip-path="url(#clip360)" d="M1186.34 1466.95 Q1189.7 1467.66 1191.57 1469.93 Q1193.47 1472.2 1193.47 1475.53 Q1193.47 1480.65 1189.95 1483.45 Q1186.43 1486.25 1179.95 1486.25 Q1177.77 1486.25 1175.46 1485.81 Q1173.17 1485.39 1170.71 1484.54 L1170.71 1480.02 Q1172.66 1481.16 1174.97 1481.74 Q1177.29 1482.32 1179.81 1482.32 Q1184.21 1482.32 1186.5 1480.58 Q1188.82 1478.84 1188.82 1475.53 Q1188.82 1472.48 1186.66 1470.77 Q1184.53 1469.03 1180.71 1469.03 L1176.69 1469.03 L1176.69 1465.19 L1180.9 1465.19 Q1184.35 1465.19 1186.18 1463.82 Q1188.01 1462.43 1188.01 1459.84 Q1188.01 1457.18 1186.11 1455.77 Q1184.23 1454.33 1180.71 1454.33 Q1178.79 1454.33 1176.59 1454.75 Q1174.39 1455.16 1171.76 1456.04 L1171.76 1451.88 Q1174.42 1451.14 1176.73 1450.77 Q1179.07 1450.39 1181.13 1450.39 Q1186.45 1450.39 1189.56 1452.83 Q1192.66 1455.23 1192.66 1459.35 Q1192.66 1462.22 1191.01 1464.21 Q1189.37 1466.18 1186.34 1466.95 Z" fill="#000000" fill-rule="nonzero" fill-opacity="1" /><path clip-path="url(#clip360)" d="M1202.38 1451.02 L1220.74 1451.02 L1220.74 1454.96 L1206.66 1454.96 L1206.66 1463.43 Q1207.68 1463.08 1208.7 1462.92 Q1209.72 1462.73 1210.74 1462.73 Q1216.52 1462.73 1219.9 1465.9 Q1223.28 1469.08 1223.28 1474.49 Q1223.28 1480.07 1219.81 1483.17 Q1216.34 1486.25 1210.02 1486.25 Q1207.84 1486.25 1205.58 1485.88 Q1203.33 1485.51 1200.92 1484.77 L1200.92 1480.07 Q1203.01 1481.2 1205.23 1481.76 Q1207.45 1482.32 1209.93 1482.32 Q1213.93 1482.32 1216.27 1480.21 Q1218.61 1478.1 1218.61 1474.49 Q1218.61 1470.88 1216.27 1468.77 Q1213.93 1466.67 1209.93 1466.67 Q1208.05 1466.67 1206.18 1467.08 Q1204.33 1467.5 1202.38 1468.38 L1202.38 1451.02 Z" fill="#000000" fill-rule="nonzero" fill-opacity="1" /><path clip-path="url(#clip360)" d="M1242.5 1454.1 Q1238.89 1454.1 1237.06 1457.66 Q1235.25 1461.2 1235.25 1468.33 Q1235.25 1475.44 1237.06 1479.01 Q1238.89 1482.55 1242.5 1482.55 Q1246.13 1482.55 1247.94 1479.01 Q1249.76 1475.44 1249.76 1468.33 Q1249.76 1461.2 1247.94 1457.66 Q1246.13 1454.1 1242.5 1454.1 M1242.5 1450.39 Q1248.31 1450.39 1251.36 1455 Q1254.44 1459.58 1254.44 1468.33 Q1254.44 1477.06 1251.36 1481.67 Q1248.31 1486.25 1242.5 1486.25 Q1236.69 1486.25 1233.61 1481.67 Q1230.55 1477.06 1230.55 1468.33 Q1230.55 1459.58 1233.61 1455 Q1236.69 1450.39 1242.5 1450.39 Z" fill="#000000" fill-rule="nonzero" fill-opacity="1" /><path clip-path="url(#clip360)" d="M1703.93 1455.09 L1692.13 1473.54 L1703.93 1473.54 L1703.93 1455.09 M1702.7 1451.02 L1708.58 1451.02 L1708.58 1473.54 L1713.51 1473.54 L1713.51 1477.43 L1708.58 1477.43 L1708.58 1485.58 L1703.93 1485.58 L1703.93 1477.43 L1688.33 1477.43 L1688.33 1472.92 L1702.7 1451.02 Z" fill="#000000" fill-rule="nonzero" fill-opacity="1" /><path clip-path="url(#clip360)" d="M1731.25 1454.1 Q1727.63 1454.1 1725.81 1457.66 Q1724 1461.2 1724 1468.33 Q1724 1475.44 1725.81 1479.01 Q1727.63 1482.55 1731.25 1482.55 Q1734.88 1482.55 1736.69 1479.01 Q1738.51 1475.44 1738.51 1468.33 Q1738.51 1461.2 1736.69 1457.66 Q1734.88 1454.1 1731.25 1454.1 M1731.25 1450.39 Q1737.06 1450.39 1740.11 1455 Q1743.19 1459.58 1743.19 1468.33 Q1743.19 1477.06 1740.11 1481.67 Q1737.06 1486.25 1731.25 1486.25 Q1725.44 1486.25 1722.36 1481.67 Q1719.3 1477.06 1719.3 1468.33 Q1719.3 1459.58 1722.36 1455 Q1725.44 1450.39 1731.25 1450.39 Z" fill="#000000" fill-rule="nonzero" fill-opacity="1" /><path clip-path="url(#clip360)" d="M1761.41 1454.1 Q1757.8 1454.1 1755.97 1457.66 Q1754.16 1461.2 1754.16 1468.33 Q1754.16 1475.44 1755.97 1479.01 Q1757.8 1482.55 1761.41 1482.55 Q1765.04 1482.55 1766.85 1479.01 Q1768.68 1475.44 1768.68 1468.33 Q1768.68 1461.2 1766.85 1457.66 Q1765.04 1454.1 1761.41 1454.1 M1761.41 1450.39 Q1767.22 1450.39 1770.27 1455 Q1773.35 1459.58 1773.35 1468.33 Q1773.35 1477.06 1770.27 1481.67 Q1767.22 1486.25 1761.41 1486.25 Q1755.6 1486.25 1752.52 1481.67 Q1749.46 1477.06 1749.46 1468.33 Q1749.46 1459.58 1752.52 1455 Q1755.6 1450.39 1761.41 1450.39 Z" fill="#000000" fill-rule="nonzero" fill-opacity="1" /><path clip-path="url(#clip360)" d="M2222.19 1455.09 L2210.39 1473.54 L2222.19 1473.54 L2222.19 1455.09 M2220.97 1451.02 L2226.85 1451.02 L2226.85 1473.54 L2231.78 1473.54 L2231.78 1477.43 L2226.85 1477.43 L2226.85 1485.58 L2222.19 1485.58 L2222.19 1477.43 L2206.59 1477.43 L2206.59 1472.92 L2220.97 1451.02 Z" fill="#000000" fill-rule="nonzero" fill-opacity="1" /><path clip-path="url(#clip360)" d="M2239.55 1451.02 L2257.91 1451.02 L2257.91 1454.96 L2243.84 1454.96 L2243.84 1463.43 Q2244.86 1463.08 2245.87 1462.92 Q2246.89 1462.73 2247.91 1462.73 Q2253.7 1462.73 2257.08 1465.9 Q2260.46 1469.08 2260.46 1474.49 Q2260.46 1480.07 2256.99 1483.17 Q2253.51 1486.25 2247.19 1486.25 Q2245.02 1486.25 2242.75 1485.88 Q2240.5 1485.51 2238.1 1484.77 L2238.1 1480.07 Q2240.18 1481.2 2242.4 1481.76 Q2244.62 1482.32 2247.1 1482.32 Q2251.11 1482.32 2253.44 1480.21 Q2255.78 1478.1 2255.78 1474.49 Q2255.78 1470.88 2253.44 1468.77 Q2251.11 1466.67 2247.1 1466.67 Q2245.23 1466.67 2243.35 1467.08 Q2241.5 1467.5 2239.55 1468.38 L2239.55 1451.02 Z" fill="#000000" fill-rule="nonzero" fill-opacity="1" /><path clip-path="url(#clip360)" d="M2279.67 1454.1 Q2276.06 1454.1 2274.23 1457.66 Q2272.42 1461.2 2272.42 1468.33 Q2272.42 1475.44 2274.23 1479.01 Q2276.06 1482.55 2279.67 1482.55 Q2283.3 1482.55 2285.11 1479.01 Q2286.94 1475.44 2286.94 1468.33 Q2286.94 1461.2 2285.11 1457.66 Q2283.3 1454.1 2279.67 1454.1 M2279.67 1450.39 Q2285.48 1450.39 2288.54 1455 Q2291.61 1459.58 2291.61 1468.33 Q2291.61 1477.06 2288.54 1481.67 Q2285.48 1486.25 2279.67 1486.25 Q2273.86 1486.25 2270.78 1481.67 Q2267.73 1477.06 2267.73 1468.33 Q2267.73 1459.58 2270.78 1455 Q2273.86 1450.39 2279.67 1450.39 Z" fill="#000000" fill-rule="nonzero" fill-opacity="1" /><path clip-path="url(#clip360)" d="M1317.12 1524.09 L1333.58 1568.04 L1327.37 1568.04 L1317.38 1541.69 L1305.09 1568.04 L1298.88 1568.04 L1314.51 1533.86 L1312.16 1527.56 Q1310.66 1523.55 1307.25 1523.55 L1304.2 1523.55 L1304.2 1518.52 L1307.92 1518.58 Q1315.12 1518.68 1317.12 1524.09 Z" fill="#000000" fill-rule="nonzero" fill-opacity="1" /><polyline clip-path="url(#clip362)" style="stroke:#000000; stroke-linecap:round; stroke-linejoin:round; stroke-width:2; stroke-opacity:0.1; fill:none" points="279.704,1423.18 2352.76,1423.18 "/>
<polyline clip-path="url(#clip362)" style="stroke:#000000; stroke-linecap:round; stroke-linejoin:round; stroke-width:2; stroke-opacity:0.1; fill:none" points="279.704,1206.56 2352.76,1206.56 "/>
<polyline clip-path="url(#clip362)" style="stroke:#000000; stroke-linecap:round; stroke-linejoin:round; stroke-width:2; stroke-opacity:0.1; fill:none" points="279.704,989.944 2352.76,989.944 "/>
<polyline clip-path="url(#clip362)" style="stroke:#000000; stroke-linecap:round; stroke-linejoin:round; stroke-width:2; stroke-opacity:0.1; fill:none" points="279.704,773.326 2352.76,773.326 "/>
<polyline clip-path="url(#clip362)" style="stroke:#000000; stroke-linecap:round; stroke-linejoin:round; stroke-width:2; stroke-opacity:0.1; fill:none" points="279.704,556.708 2352.76,556.708 "/>
<polyline clip-path="url(#clip362)" style="stroke:#000000; stroke-linecap:round; stroke-linejoin:round; stroke-width:2; stroke-opacity:0.1; fill:none" points="279.704,340.09 2352.76,340.09 "/>
<polyline clip-path="url(#clip362)" style="stroke:#000000; stroke-linecap:round; stroke-linejoin:round; stroke-width:2; stroke-opacity:0.1; fill:none" points="279.704,123.472 2352.76,123.472 "/>
<polyline clip-path="url(#clip360)" style="stroke:#000000; stroke-linecap:round; stroke-linejoin:round; stroke-width:4; stroke-opacity:1; fill:none" points="279.704,1423.18 279.704,123.472 "/>
<polyline clip-path="url(#clip360)" style="stroke:#000000; stroke-linecap:round; stroke-linejoin:round; stroke-width:4; stroke-opacity:1; fill:none" points="279.704,1423.18 298.602,1423.18 "/>
<polyline clip-path="url(#clip360)" style="stroke:#000000; stroke-linecap:round; stroke-linejoin:round; stroke-width:4; stroke-opacity:1; fill:none" points="279.704,1206.56 298.602,1206.56 "/>
<polyline clip-path="url(#clip360)" style="stroke:#000000; stroke-linecap:round; stroke-linejoin:round; stroke-width:4; stroke-opacity:1; fill:none" points="279.704,989.944 298.602,989.944 "/>
<polyline clip-path="url(#clip360)" style="stroke:#000000; stroke-linecap:round; stroke-linejoin:round; stroke-width:4; stroke-opacity:1; fill:none" points="279.704,773.326 298.602,773.326 "/>
<polyline clip-path="url(#clip360)" style="stroke:#000000; stroke-linecap:round; stroke-linejoin:round; stroke-width:4; stroke-opacity:1; fill:none" points="279.704,556.708 298.602,556.708 "/>
<polyline clip-path="url(#clip360)" style="stroke:#000000; stroke-linecap:round; stroke-linejoin:round; stroke-width:4; stroke-opacity:1; fill:none" points="279.704,340.09 298.602,340.09 "/>
<polyline clip-path="url(#clip360)" style="stroke:#000000; stroke-linecap:round; stroke-linejoin:round; stroke-width:4; stroke-opacity:1; fill:none" points="279.704,123.472 298.602,123.472 "/>
<path clip-path="url(#clip360)" d="M126.205 1408.98 Q122.593 1408.98 120.765 1412.54 Q118.959 1416.08 118.959 1423.21 Q118.959 1430.32 120.765 1433.89 Q122.593 1437.43 126.205 1437.43 Q129.839 1437.43 131.644 1433.89 Q133.473 1430.32 133.473 1423.21 Q133.473 1416.08 131.644 1412.54 Q129.839 1408.98 126.205 1408.98 M126.205 1405.27 Q132.015 1405.27 135.07 1409.88 Q138.149 1414.46 138.149 1423.21 Q138.149 1431.94 135.07 1436.55 Q132.015 1441.13 126.205 1441.13 Q120.394 1441.13 117.316 1436.55 Q114.26 1431.94 114.26 1423.21 Q114.26 1414.46 117.316 1409.88 Q120.394 1405.27 126.205 1405.27 Z" fill="#000000" fill-rule="nonzero" fill-opacity="1" /><path clip-path="url(#clip360)" d="M146.366 1434.58 L151.251 1434.58 L151.251 1440.46 L146.366 1440.46 L146.366 1434.58 Z" fill="#000000" fill-rule="nonzero" fill-opacity="1" /><path clip-path="url(#clip360)" d="M171.436 1408.98 Q167.825 1408.98 165.996 1412.54 Q164.19 1416.08 164.19 1423.21 Q164.19 1430.32 165.996 1433.89 Q167.825 1437.43 171.436 1437.43 Q175.07 1437.43 176.876 1433.89 Q178.704 1430.32 178.704 1423.21 Q178.704 1416.08 176.876 1412.54 Q175.07 1408.98 171.436 1408.98 M171.436 1405.27 Q177.246 1405.27 180.301 1409.88 Q183.38 1414.46 183.38 1423.21 Q183.38 1431.94 180.301 1436.55 Q177.246 1441.13 171.436 1441.13 Q165.626 1441.13 162.547 1436.55 Q159.491 1431.94 159.491 1423.21 Q159.491 1414.46 162.547 1409.88 Q165.626 1405.27 171.436 1405.27 Z" fill="#000000" fill-rule="nonzero" fill-opacity="1" /><path clip-path="url(#clip360)" d="M201.598 1408.98 Q197.987 1408.98 196.158 1412.54 Q194.352 1416.08 194.352 1423.21 Q194.352 1430.32 196.158 1433.89 Q197.987 1437.43 201.598 1437.43 Q205.232 1437.43 207.037 1433.89 Q208.866 1430.32 208.866 1423.21 Q208.866 1416.08 207.037 1412.54 Q205.232 1408.98 201.598 1408.98 M201.598 1405.27 Q207.408 1405.27 210.463 1409.88 Q213.542 1414.46 213.542 1423.21 Q213.542 1431.94 210.463 1436.55 Q207.408 1441.13 201.598 1441.13 Q195.787 1441.13 192.709 1436.55 Q189.653 1431.94 189.653 1423.21 Q189.653 1414.46 192.709 1409.88 Q195.787 1405.27 201.598 1405.27 Z" fill="#000000" fill-rule="nonzero" fill-opacity="1" /><path clip-path="url(#clip360)" d="M231.76 1408.98 Q228.148 1408.98 226.32 1412.54 Q224.514 1416.08 224.514 1423.21 Q224.514 1430.32 226.32 1433.89 Q228.148 1437.43 231.76 1437.43 Q235.394 1437.43 237.199 1433.89 Q239.028 1430.32 239.028 1423.21 Q239.028 1416.08 237.199 1412.54 Q235.394 1408.98 231.76 1408.98 M231.76 1405.27 Q237.57 1405.27 240.625 1409.88 Q243.704 1414.46 243.704 1423.21 Q243.704 1431.94 240.625 1436.55 Q237.57 1441.13 231.76 1441.13 Q225.949 1441.13 222.871 1436.55 Q219.815 1431.94 219.815 1423.21 Q219.815 1414.46 222.871 1409.88 Q225.949 1405.27 231.76 1405.27 Z" fill="#000000" fill-rule="nonzero" fill-opacity="1" /><path clip-path="url(#clip360)" d="M127.2 1192.36 Q123.589 1192.36 121.76 1195.93 Q119.955 1199.47 119.955 1206.6 Q119.955 1213.7 121.76 1217.27 Q123.589 1220.81 127.2 1220.81 Q130.834 1220.81 132.64 1217.27 Q134.468 1213.7 134.468 1206.6 Q134.468 1199.47 132.64 1195.93 Q130.834 1192.36 127.2 1192.36 M127.2 1188.66 Q133.01 1188.66 136.066 1193.26 Q139.144 1197.85 139.144 1206.6 Q139.144 1215.32 136.066 1219.93 Q133.01 1224.51 127.2 1224.51 Q121.39 1224.51 118.311 1219.93 Q115.256 1215.32 115.256 1206.6 Q115.256 1197.85 118.311 1193.26 Q121.39 1188.66 127.2 1188.66 Z" fill="#000000" fill-rule="nonzero" fill-opacity="1" /><path clip-path="url(#clip360)" d="M147.362 1217.96 L152.246 1217.96 L152.246 1223.84 L147.362 1223.84 L147.362 1217.96 Z" fill="#000000" fill-rule="nonzero" fill-opacity="1" /><path clip-path="url(#clip360)" d="M172.431 1192.36 Q168.82 1192.36 166.991 1195.93 Q165.186 1199.47 165.186 1206.6 Q165.186 1213.7 166.991 1217.27 Q168.82 1220.81 172.431 1220.81 Q176.065 1220.81 177.871 1217.27 Q179.7 1213.7 179.7 1206.6 Q179.7 1199.47 177.871 1195.93 Q176.065 1192.36 172.431 1192.36 M172.431 1188.66 Q178.241 1188.66 181.297 1193.26 Q184.376 1197.85 184.376 1206.6 Q184.376 1215.32 181.297 1219.93 Q178.241 1224.51 172.431 1224.51 Q166.621 1224.51 163.542 1219.93 Q160.487 1215.32 160.487 1206.6 Q160.487 1197.85 163.542 1193.26 Q166.621 1188.66 172.431 1188.66 Z" fill="#000000" fill-rule="nonzero" fill-opacity="1" /><path clip-path="url(#clip360)" d="M202.593 1192.36 Q198.982 1192.36 197.153 1195.93 Q195.348 1199.47 195.348 1206.6 Q195.348 1213.7 197.153 1217.27 Q198.982 1220.81 202.593 1220.81 Q206.227 1220.81 208.033 1217.27 Q209.861 1213.7 209.861 1206.6 Q209.861 1199.47 208.033 1195.93 Q206.227 1192.36 202.593 1192.36 M202.593 1188.66 Q208.403 1188.66 211.459 1193.26 Q214.537 1197.85 214.537 1206.6 Q214.537 1215.32 211.459 1219.93 Q208.403 1224.51 202.593 1224.51 Q196.783 1224.51 193.704 1219.93 Q190.649 1215.32 190.649 1206.6 Q190.649 1197.85 193.704 1193.26 Q196.783 1188.66 202.593 1188.66 Z" fill="#000000" fill-rule="nonzero" fill-opacity="1" /><path clip-path="url(#clip360)" d="M222.801 1189.28 L241.158 1189.28 L241.158 1193.22 L227.084 1193.22 L227.084 1201.69 Q228.102 1201.34 229.121 1201.18 Q230.139 1200.99 231.158 1200.99 Q236.945 1200.99 240.324 1204.17 Q243.704 1207.34 243.704 1212.75 Q243.704 1218.33 240.232 1221.43 Q236.76 1224.51 230.44 1224.51 Q228.264 1224.51 225.996 1224.14 Q223.75 1223.77 221.343 1223.03 L221.343 1218.33 Q223.426 1219.47 225.648 1220.02 Q227.871 1220.58 230.347 1220.58 Q234.352 1220.58 236.69 1218.47 Q239.028 1216.37 239.028 1212.75 Q239.028 1209.14 236.69 1207.04 Q234.352 1204.93 230.347 1204.93 Q228.473 1204.93 226.598 1205.35 Q224.746 1205.76 222.801 1206.64 L222.801 1189.28 Z" fill="#000000" fill-rule="nonzero" fill-opacity="1" /><path clip-path="url(#clip360)" d="M126.205 975.743 Q122.593 975.743 120.765 979.307 Q118.959 982.849 118.959 989.979 Q118.959 997.085 120.765 1000.65 Q122.593 1004.19 126.205 1004.19 Q129.839 1004.19 131.644 1000.65 Q133.473 997.085 133.473 989.979 Q133.473 982.849 131.644 979.307 Q129.839 975.743 126.205 975.743 M126.205 972.039 Q132.015 972.039 135.07 976.645 Q138.149 981.229 138.149 989.979 Q138.149 998.705 135.07 1003.31 Q132.015 1007.9 126.205 1007.9 Q120.394 1007.9 117.316 1003.31 Q114.26 998.705 114.26 989.979 Q114.26 981.229 117.316 976.645 Q120.394 972.039 126.205 972.039 Z" fill="#000000" fill-rule="nonzero" fill-opacity="1" /><path clip-path="url(#clip360)" d="M146.366 1001.34 L151.251 1001.34 L151.251 1007.22 L146.366 1007.22 L146.366 1001.34 Z" fill="#000000" fill-rule="nonzero" fill-opacity="1" /><path clip-path="url(#clip360)" d="M171.436 975.743 Q167.825 975.743 165.996 979.307 Q164.19 982.849 164.19 989.979 Q164.19 997.085 165.996 1000.65 Q167.825 1004.19 171.436 1004.19 Q175.07 1004.19 176.876 1000.65 Q178.704 997.085 178.704 989.979 Q178.704 982.849 176.876 979.307 Q175.07 975.743 171.436 975.743 M171.436 972.039 Q177.246 972.039 180.301 976.645 Q183.38 981.229 183.38 989.979 Q183.38 998.705 180.301 1003.31 Q177.246 1007.9 171.436 1007.9 Q165.626 1007.9 162.547 1003.31 Q159.491 998.705 159.491 989.979 Q159.491 981.229 162.547 976.645 Q165.626 972.039 171.436 972.039 Z" fill="#000000" fill-rule="nonzero" fill-opacity="1" /><path clip-path="url(#clip360)" d="M192.408 1003.29 L200.047 1003.29 L200.047 976.923 L191.737 978.59 L191.737 974.331 L200 972.664 L204.676 972.664 L204.676 1003.29 L212.315 1003.29 L212.315 1007.22 L192.408 1007.22 L192.408 1003.29 Z" fill="#000000" fill-rule="nonzero" fill-opacity="1" /><path clip-path="url(#clip360)" d="M231.76 975.743 Q228.148 975.743 226.32 979.307 Q224.514 982.849 224.514 989.979 Q224.514 997.085 226.32 1000.65 Q228.148 1004.19 231.76 1004.19 Q235.394 1004.19 237.199 1000.65 Q239.028 997.085 239.028 989.979 Q239.028 982.849 237.199 979.307 Q235.394 975.743 231.76 975.743 M231.76 972.039 Q237.57 972.039 240.625 976.645 Q243.704 981.229 243.704 989.979 Q243.704 998.705 240.625 1003.31 Q237.57 1007.9 231.76 1007.9 Q225.949 1007.9 222.871 1003.31 Q219.815 998.705 219.815 989.979 Q219.815 981.229 222.871 976.645 Q225.949 972.039 231.76 972.039 Z" fill="#000000" fill-rule="nonzero" fill-opacity="1" /><path clip-path="url(#clip360)" d="M127.2 759.125 Q123.589 759.125 121.76 762.689 Q119.955 766.231 119.955 773.361 Q119.955 780.467 121.76 784.032 Q123.589 787.574 127.2 787.574 Q130.834 787.574 132.64 784.032 Q134.468 780.467 134.468 773.361 Q134.468 766.231 132.64 762.689 Q130.834 759.125 127.2 759.125 M127.2 755.421 Q133.01 755.421 136.066 760.027 Q139.144 764.611 139.144 773.361 Q139.144 782.088 136.066 786.694 Q133.01 791.277 127.2 791.277 Q121.39 791.277 118.311 786.694 Q115.256 782.088 115.256 773.361 Q115.256 764.611 118.311 760.027 Q121.39 755.421 127.2 755.421 Z" fill="#000000" fill-rule="nonzero" fill-opacity="1" /><path clip-path="url(#clip360)" d="M147.362 784.726 L152.246 784.726 L152.246 790.606 L147.362 790.606 L147.362 784.726 Z" fill="#000000" fill-rule="nonzero" fill-opacity="1" /><path clip-path="url(#clip360)" d="M172.431 759.125 Q168.82 759.125 166.991 762.689 Q165.186 766.231 165.186 773.361 Q165.186 780.467 166.991 784.032 Q168.82 787.574 172.431 787.574 Q176.065 787.574 177.871 784.032 Q179.7 780.467 179.7 773.361 Q179.7 766.231 177.871 762.689 Q176.065 759.125 172.431 759.125 M172.431 755.421 Q178.241 755.421 181.297 760.027 Q184.376 764.611 184.376 773.361 Q184.376 782.088 181.297 786.694 Q178.241 791.277 172.431 791.277 Q166.621 791.277 163.542 786.694 Q160.487 782.088 160.487 773.361 Q160.487 764.611 163.542 760.027 Q166.621 755.421 172.431 755.421 Z" fill="#000000" fill-rule="nonzero" fill-opacity="1" /><path clip-path="url(#clip360)" d="M193.403 786.671 L201.042 786.671 L201.042 760.305 L192.732 761.972 L192.732 757.713 L200.996 756.046 L205.672 756.046 L205.672 786.671 L213.311 786.671 L213.311 790.606 L193.403 790.606 L193.403 786.671 Z" fill="#000000" fill-rule="nonzero" fill-opacity="1" /><path clip-path="url(#clip360)" d="M222.801 756.046 L241.158 756.046 L241.158 759.981 L227.084 759.981 L227.084 768.453 Q228.102 768.106 229.121 767.944 Q230.139 767.759 231.158 767.759 Q236.945 767.759 240.324 770.93 Q243.704 774.101 243.704 779.518 Q243.704 785.097 240.232 788.199 Q236.76 791.277 230.44 791.277 Q228.264 791.277 225.996 790.907 Q223.75 790.537 221.343 789.796 L221.343 785.097 Q223.426 786.231 225.648 786.787 Q227.871 787.342 230.347 787.342 Q234.352 787.342 236.69 785.236 Q239.028 783.129 239.028 779.518 Q239.028 775.907 236.69 773.801 Q234.352 771.694 230.347 771.694 Q228.473 771.694 226.598 772.111 Q224.746 772.527 222.801 773.407 L222.801 756.046 Z" fill="#000000" fill-rule="nonzero" fill-opacity="1" /><path clip-path="url(#clip360)" d="M126.205 542.507 Q122.593 542.507 120.765 546.072 Q118.959 549.613 118.959 556.743 Q118.959 563.849 120.765 567.414 Q122.593 570.956 126.205 570.956 Q129.839 570.956 131.644 567.414 Q133.473 563.849 133.473 556.743 Q133.473 549.613 131.644 546.072 Q129.839 542.507 126.205 542.507 M126.205 538.803 Q132.015 538.803 135.07 543.409 Q138.149 547.993 138.149 556.743 Q138.149 565.47 135.07 570.076 Q132.015 574.659 126.205 574.659 Q120.394 574.659 117.316 570.076 Q114.26 565.47 114.26 556.743 Q114.26 547.993 117.316 543.409 Q120.394 538.803 126.205 538.803 Z" fill="#000000" fill-rule="nonzero" fill-opacity="1" /><path clip-path="url(#clip360)" d="M146.366 568.108 L151.251 568.108 L151.251 573.988 L146.366 573.988 L146.366 568.108 Z" fill="#000000" fill-rule="nonzero" fill-opacity="1" /><path clip-path="url(#clip360)" d="M171.436 542.507 Q167.825 542.507 165.996 546.072 Q164.19 549.613 164.19 556.743 Q164.19 563.849 165.996 567.414 Q167.825 570.956 171.436 570.956 Q175.07 570.956 176.876 567.414 Q178.704 563.849 178.704 556.743 Q178.704 549.613 176.876 546.072 Q175.07 542.507 171.436 542.507 M171.436 538.803 Q177.246 538.803 180.301 543.409 Q183.38 547.993 183.38 556.743 Q183.38 565.47 180.301 570.076 Q177.246 574.659 171.436 574.659 Q165.626 574.659 162.547 570.076 Q159.491 565.47 159.491 556.743 Q159.491 547.993 162.547 543.409 Q165.626 538.803 171.436 538.803 Z" fill="#000000" fill-rule="nonzero" fill-opacity="1" /><path clip-path="url(#clip360)" d="M195.625 570.053 L211.945 570.053 L211.945 573.988 L190 573.988 L190 570.053 Q192.663 567.298 197.246 562.669 Q201.852 558.016 203.033 556.673 Q205.278 554.15 206.158 552.414 Q207.061 550.655 207.061 548.965 Q207.061 546.21 205.116 544.474 Q203.195 542.738 200.093 542.738 Q197.894 542.738 195.44 543.502 Q193.01 544.266 190.232 545.817 L190.232 541.095 Q193.056 539.96 195.51 539.382 Q197.963 538.803 200 538.803 Q205.371 538.803 208.565 541.488 Q211.76 544.173 211.76 548.664 Q211.76 550.794 210.949 552.715 Q210.162 554.613 208.056 557.206 Q207.477 557.877 204.375 561.095 Q201.274 564.289 195.625 570.053 Z" fill="#000000" fill-rule="nonzero" fill-opacity="1" /><path clip-path="url(#clip360)" d="M231.76 542.507 Q228.148 542.507 226.32 546.072 Q224.514 549.613 224.514 556.743 Q224.514 563.849 226.32 567.414 Q228.148 570.956 231.76 570.956 Q235.394 570.956 237.199 567.414 Q239.028 563.849 239.028 556.743 Q239.028 549.613 237.199 546.072 Q235.394 542.507 231.76 542.507 M231.76 538.803 Q237.57 538.803 240.625 543.409 Q243.704 547.993 243.704 556.743 Q243.704 565.47 240.625 570.076 Q237.57 574.659 231.76 574.659 Q225.949 574.659 222.871 570.076 Q219.815 565.47 219.815 556.743 Q219.815 547.993 222.871 543.409 Q225.949 538.803 231.76 538.803 Z" fill="#000000" fill-rule="nonzero" fill-opacity="1" /><path clip-path="url(#clip360)" d="M127.2 325.889 Q123.589 325.889 121.76 329.454 Q119.955 332.995 119.955 340.125 Q119.955 347.231 121.76 350.796 Q123.589 354.338 127.2 354.338 Q130.834 354.338 132.64 350.796 Q134.468 347.231 134.468 340.125 Q134.468 332.995 132.64 329.454 Q130.834 325.889 127.2 325.889 M127.2 322.185 Q133.01 322.185 136.066 326.792 Q139.144 331.375 139.144 340.125 Q139.144 348.852 136.066 353.458 Q133.01 358.041 127.2 358.041 Q121.39 358.041 118.311 353.458 Q115.256 348.852 115.256 340.125 Q115.256 331.375 118.311 326.792 Q121.39 322.185 127.2 322.185 Z" fill="#000000" fill-rule="nonzero" fill-opacity="1" /><path clip-path="url(#clip360)" d="M147.362 351.49 L152.246 351.49 L152.246 357.37 L147.362 357.37 L147.362 351.49 Z" fill="#000000" fill-rule="nonzero" fill-opacity="1" /><path clip-path="url(#clip360)" d="M172.431 325.889 Q168.82 325.889 166.991 329.454 Q165.186 332.995 165.186 340.125 Q165.186 347.231 166.991 350.796 Q168.82 354.338 172.431 354.338 Q176.065 354.338 177.871 350.796 Q179.7 347.231 179.7 340.125 Q179.7 332.995 177.871 329.454 Q176.065 325.889 172.431 325.889 M172.431 322.185 Q178.241 322.185 181.297 326.792 Q184.376 331.375 184.376 340.125 Q184.376 348.852 181.297 353.458 Q178.241 358.041 172.431 358.041 Q166.621 358.041 163.542 353.458 Q160.487 348.852 160.487 340.125 Q160.487 331.375 163.542 326.792 Q166.621 322.185 172.431 322.185 Z" fill="#000000" fill-rule="nonzero" fill-opacity="1" /><path clip-path="url(#clip360)" d="M196.621 353.435 L212.94 353.435 L212.94 357.37 L190.996 357.37 L190.996 353.435 Q193.658 350.68 198.241 346.051 Q202.848 341.398 204.028 340.055 Q206.274 337.532 207.153 335.796 Q208.056 334.037 208.056 332.347 Q208.056 329.592 206.112 327.856 Q204.19 326.12 201.088 326.12 Q198.889 326.12 196.436 326.884 Q194.005 327.648 191.227 329.199 L191.227 324.477 Q194.051 323.342 196.505 322.764 Q198.959 322.185 200.996 322.185 Q206.366 322.185 209.561 324.87 Q212.755 327.555 212.755 332.046 Q212.755 334.176 211.945 336.097 Q211.158 337.995 209.051 340.588 Q208.473 341.259 205.371 344.477 Q202.269 347.671 196.621 353.435 Z" fill="#000000" fill-rule="nonzero" fill-opacity="1" /><path clip-path="url(#clip360)" d="M222.801 322.81 L241.158 322.81 L241.158 326.745 L227.084 326.745 L227.084 335.217 Q228.102 334.87 229.121 334.708 Q230.139 334.523 231.158 334.523 Q236.945 334.523 240.324 337.694 Q243.704 340.866 243.704 346.282 Q243.704 351.861 240.232 354.963 Q236.76 358.041 230.44 358.041 Q228.264 358.041 225.996 357.671 Q223.75 357.301 221.343 356.56 L221.343 351.861 Q223.426 352.995 225.648 353.551 Q227.871 354.106 230.347 354.106 Q234.352 354.106 236.69 352 Q239.028 349.893 239.028 346.282 Q239.028 342.671 236.69 340.565 Q234.352 338.458 230.347 338.458 Q228.473 338.458 226.598 338.875 Q224.746 339.291 222.801 340.171 L222.801 322.81 Z" fill="#000000" fill-rule="nonzero" fill-opacity="1" /><path clip-path="url(#clip360)" d="M126.205 109.271 Q122.593 109.271 120.765 112.836 Q118.959 116.377 118.959 123.507 Q118.959 130.613 120.765 134.178 Q122.593 137.72 126.205 137.72 Q129.839 137.72 131.644 134.178 Q133.473 130.613 133.473 123.507 Q133.473 116.377 131.644 112.836 Q129.839 109.271 126.205 109.271 M126.205 105.567 Q132.015 105.567 135.07 110.174 Q138.149 114.757 138.149 123.507 Q138.149 132.234 135.07 136.84 Q132.015 141.423 126.205 141.423 Q120.394 141.423 117.316 136.84 Q114.26 132.234 114.26 123.507 Q114.26 114.757 117.316 110.174 Q120.394 105.567 126.205 105.567 Z" fill="#000000" fill-rule="nonzero" fill-opacity="1" /><path clip-path="url(#clip360)" d="M146.366 134.873 L151.251 134.873 L151.251 140.752 L146.366 140.752 L146.366 134.873 Z" fill="#000000" fill-rule="nonzero" fill-opacity="1" /><path clip-path="url(#clip360)" d="M171.436 109.271 Q167.825 109.271 165.996 112.836 Q164.19 116.377 164.19 123.507 Q164.19 130.613 165.996 134.178 Q167.825 137.72 171.436 137.72 Q175.07 137.72 176.876 134.178 Q178.704 130.613 178.704 123.507 Q178.704 116.377 176.876 112.836 Q175.07 109.271 171.436 109.271 M171.436 105.567 Q177.246 105.567 180.301 110.174 Q183.38 114.757 183.38 123.507 Q183.38 132.234 180.301 136.84 Q177.246 141.423 171.436 141.423 Q165.626 141.423 162.547 136.84 Q159.491 132.234 159.491 123.507 Q159.491 114.757 162.547 110.174 Q165.626 105.567 171.436 105.567 Z" fill="#000000" fill-rule="nonzero" fill-opacity="1" /><path clip-path="url(#clip360)" d="M205.764 122.118 Q209.121 122.836 210.996 125.104 Q212.894 127.373 212.894 130.706 Q212.894 135.822 209.375 138.623 Q205.857 141.423 199.375 141.423 Q197.2 141.423 194.885 140.984 Q192.593 140.567 190.139 139.71 L190.139 135.197 Q192.084 136.331 194.399 136.91 Q196.713 137.488 199.237 137.488 Q203.635 137.488 205.926 135.752 Q208.241 134.016 208.241 130.706 Q208.241 127.65 206.088 125.937 Q203.959 124.201 200.139 124.201 L196.112 124.201 L196.112 120.359 L200.325 120.359 Q203.774 120.359 205.602 118.993 Q207.431 117.604 207.431 115.012 Q207.431 112.35 205.533 110.937 Q203.658 109.502 200.139 109.502 Q198.218 109.502 196.019 109.919 Q193.82 110.336 191.181 111.215 L191.181 107.049 Q193.843 106.308 196.158 105.937 Q198.496 105.567 200.556 105.567 Q205.88 105.567 208.982 107.998 Q212.084 110.405 212.084 114.525 Q212.084 117.396 210.44 119.386 Q208.797 121.354 205.764 122.118 Z" fill="#000000" fill-rule="nonzero" fill-opacity="1" /><path clip-path="url(#clip360)" d="M231.76 109.271 Q228.148 109.271 226.32 112.836 Q224.514 116.377 224.514 123.507 Q224.514 130.613 226.32 134.178 Q228.148 137.72 231.76 137.72 Q235.394 137.72 237.199 134.178 Q239.028 130.613 239.028 123.507 Q239.028 116.377 237.199 112.836 Q235.394 109.271 231.76 109.271 M231.76 105.567 Q237.57 105.567 240.625 110.174 Q243.704 114.757 243.704 123.507 Q243.704 132.234 240.625 136.84 Q237.57 141.423 231.76 141.423 Q225.949 141.423 222.871 136.84 Q219.815 132.234 219.815 123.507 Q219.815 114.757 222.871 110.174 Q225.949 105.567 231.76 105.567 Z" fill="#000000" fill-rule="nonzero" fill-opacity="1" /><path clip-path="url(#clip360)" d="M16.4842 925.673 L16.4842 919.244 L64.0042 919.244 L64.0042 925.673 L16.4842 925.673 Z" fill="#000000" fill-rule="nonzero" fill-opacity="1" /><path clip-path="url(#clip360)" d="M42.4881 877.071 L64.0042 877.071 L64.0042 882.928 L42.679 882.928 Q37.6183 882.928 35.1038 884.901 Q32.5894 886.874 32.5894 890.821 Q32.5894 895.563 35.6131 898.301 Q38.6368 901.038 43.8567 901.038 L64.0042 901.038 L64.0042 906.926 L28.3562 906.926 L28.3562 901.038 L33.8944 901.038 Q30.6797 898.937 29.0883 896.105 Q27.4968 893.24 27.4968 889.516 Q27.4968 883.373 31.3163 880.222 Q35.1038 877.071 42.4881 877.071 Z" fill="#000000" fill-rule="nonzero" fill-opacity="1" /><path clip-path="url(#clip360)" d="M18.2347 859.597 L28.3562 859.597 L28.3562 847.534 L32.9077 847.534 L32.9077 859.597 L52.2594 859.597 Q56.6199 859.597 57.8613 858.42 Q59.1026 857.21 59.1026 853.55 L59.1026 847.534 L64.0042 847.534 L64.0042 853.55 Q64.0042 860.329 61.4897 862.907 Q58.9434 865.486 52.2594 865.486 L32.9077 865.486 L32.9077 869.782 L28.3562 869.782 L28.3562 865.486 L18.2347 865.486 L18.2347 859.597 Z" fill="#000000" fill-rule="nonzero" fill-opacity="1" /><path clip-path="url(#clip360)" d="M44.7161 809.34 L47.5806 809.34 L47.5806 836.267 Q53.6281 835.885 56.8109 832.638 Q59.9619 829.36 59.9619 823.535 Q59.9619 820.162 59.1344 817.011 Q58.3069 813.828 56.6518 810.709 L62.1899 810.709 Q63.5267 813.86 64.227 817.17 Q64.9272 820.48 64.9272 823.886 Q64.9272 832.416 59.9619 837.413 Q54.9967 842.378 46.5303 842.378 Q37.7774 842.378 32.6531 837.667 Q27.4968 832.925 27.4968 824.904 Q27.4968 817.711 32.1438 813.541 Q36.7589 809.34 44.7161 809.34 M42.9973 815.196 Q38.1912 815.26 35.3266 817.902 Q32.4621 820.512 32.4621 824.84 Q32.4621 829.742 35.2312 832.702 Q38.0002 835.63 43.0292 836.076 L42.9973 815.196 Z" fill="#000000" fill-rule="nonzero" fill-opacity="1" /><path clip-path="url(#clip360)" d="M45.7664 776.27 Q39.4007 776.27 35.8996 778.912 Q32.3984 781.522 32.3984 786.264 Q32.3984 790.975 35.8996 793.617 Q39.4007 796.227 45.7664 796.227 Q52.1003 796.227 55.6014 793.617 Q59.1026 790.975 59.1026 786.264 Q59.1026 781.522 55.6014 778.912 Q52.1003 776.27 45.7664 776.27 M59.58 770.414 Q68.683 770.414 73.1071 774.456 Q77.5631 778.498 77.5631 786.837 Q77.5631 789.925 77.0857 792.662 Q76.6401 795.399 75.6852 797.977 L69.9879 797.977 Q71.3884 795.399 72.0568 792.885 Q72.7252 790.37 72.7252 787.76 Q72.7252 781.999 69.7015 779.135 Q66.7096 776.27 60.6303 776.27 L57.7339 776.27 Q60.885 778.084 62.4446 780.917 Q64.0042 783.75 64.0042 787.697 Q64.0042 794.253 59.0071 798.264 Q54.01 802.274 45.7664 802.274 Q37.491 802.274 32.4939 798.264 Q27.4968 794.253 27.4968 787.697 Q27.4968 783.75 29.0564 780.917 Q30.616 778.084 33.7671 776.27 L28.3562 776.27 L28.3562 770.414 L59.58 770.414 Z" fill="#000000" fill-rule="nonzero" fill-opacity="1" /><path clip-path="url(#clip360)" d="M33.8307 737.694 Q33.2578 738.681 33.0032 739.858 Q32.7167 741.004 32.7167 742.405 Q32.7167 747.37 35.9632 750.043 Q39.1779 752.685 45.2253 752.685 L64.0042 752.685 L64.0042 758.573 L28.3562 758.573 L28.3562 752.685 L33.8944 752.685 Q30.6479 750.839 29.0883 747.879 Q27.4968 744.919 27.4968 740.686 Q27.4968 740.081 27.5923 739.349 Q27.656 738.617 27.8151 737.726 L33.8307 737.694 Z" fill="#000000" fill-rule="nonzero" fill-opacity="1" /><path clip-path="url(#clip360)" d="M46.0847 715.35 Q46.0847 722.448 47.7079 725.185 Q49.3312 727.923 53.2461 727.923 Q56.3653 727.923 58.2114 725.886 Q60.0256 723.817 60.0256 720.284 Q60.0256 715.414 56.5881 712.486 Q53.1188 709.526 47.3897 709.526 L46.0847 709.526 L46.0847 715.35 M43.6657 703.669 L64.0042 703.669 L64.0042 709.526 L58.5933 709.526 Q61.8398 711.531 63.3994 714.523 Q64.9272 717.515 64.9272 721.843 Q64.9272 727.318 61.8716 730.564 Q58.7843 733.779 53.6281 733.779 Q47.6125 733.779 44.5569 729.769 Q41.5014 725.726 41.5014 717.737 L41.5014 709.526 L40.9285 709.526 Q36.8862 709.526 34.6901 712.199 Q32.4621 714.841 32.4621 719.647 Q32.4621 722.703 33.1941 725.599 Q33.9262 728.495 35.3903 731.169 L29.9795 731.169 Q28.7381 727.954 28.1334 724.931 Q27.4968 721.907 27.4968 719.042 Q27.4968 711.308 31.5072 707.489 Q35.5176 703.669 43.6657 703.669 Z" fill="#000000" fill-rule="nonzero" fill-opacity="1" /><path clip-path="url(#clip360)" d="M42.4881 661.974 L64.0042 661.974 L64.0042 667.83 L42.679 667.83 Q37.6183 667.83 35.1038 669.804 Q32.5894 671.777 32.5894 675.724 Q32.5894 680.466 35.6131 683.203 Q38.6368 685.941 43.8567 685.941 L64.0042 685.941 L64.0042 691.829 L28.3562 691.829 L28.3562 685.941 L33.8944 685.941 Q30.6797 683.84 29.0883 681.007 Q27.4968 678.143 27.4968 674.419 Q27.4968 668.276 31.3163 665.125 Q35.1038 661.974 42.4881 661.974 Z" fill="#000000" fill-rule="nonzero" fill-opacity="1" /><path clip-path="url(#clip360)" d="M33.7671 626.835 L14.479 626.835 L14.479 620.979 L64.0042 620.979 L64.0042 626.835 L58.657 626.835 Q61.8398 628.681 63.3994 631.514 Q64.9272 634.315 64.9272 638.262 Q64.9272 644.723 59.771 648.797 Q54.6147 652.839 46.212 652.839 Q37.8093 652.839 32.6531 648.797 Q27.4968 644.723 27.4968 638.262 Q27.4968 634.315 29.0564 631.514 Q30.5842 628.681 33.7671 626.835 M46.212 646.792 Q52.6732 646.792 56.3653 644.15 Q60.0256 641.476 60.0256 636.829 Q60.0256 632.182 56.3653 629.509 Q52.6732 626.835 46.212 626.835 Q39.7508 626.835 36.0905 629.509 Q32.3984 632.182 32.3984 636.829 Q32.3984 641.476 36.0905 644.15 Q39.7508 646.792 46.212 646.792 Z" fill="#000000" fill-rule="nonzero" fill-opacity="1" /><path clip-path="url(#clip360)" d="M691.378 20.1573 L680.278 50.2555 L702.518 50.2555 L691.378 20.1573 M686.76 12.096 L696.036 12.096 L719.086 72.576 L710.579 72.576 L705.07 57.061 L677.807 57.061 L672.298 72.576 L663.67 72.576 L686.76 12.096 Z" fill="#000000" fill-rule="nonzero" fill-opacity="1" /><path clip-path="url(#clip360)" d="M765.307 45.1919 L765.307 72.576 L757.853 72.576 L757.853 45.4349 Q757.853 38.994 755.342 35.7938 Q752.83 32.5936 747.807 32.5936 Q741.771 32.5936 738.287 36.4419 Q734.804 40.2903 734.804 46.9338 L734.804 72.576 L727.309 72.576 L727.309 27.2059 L734.804 27.2059 L734.804 34.2544 Q737.477 30.163 741.083 28.1376 Q744.728 26.1121 749.468 26.1121 Q757.286 26.1121 761.297 30.9732 Q765.307 35.7938 765.307 45.1919 Z" fill="#000000" fill-rule="nonzero" fill-opacity="1" /><path clip-path="url(#clip360)" d="M776.933 27.2059 L812.338 27.2059 L812.338 34.0114 L784.306 66.6212 L812.338 66.6212 L812.338 72.576 L775.92 72.576 L775.92 65.7705 L803.953 33.1607 L776.933 33.1607 L776.933 27.2059 Z" fill="#000000" fill-rule="nonzero" fill-opacity="1" /><path clip-path="url(#clip360)" d="M862.529 48.0275 L862.529 51.6733 L828.258 51.6733 Q828.744 59.3701 832.876 63.421 Q837.048 67.4314 844.462 67.4314 Q848.756 67.4314 852.766 66.3781 Q856.817 65.3249 860.787 63.2184 L860.787 70.267 Q856.776 71.9684 852.563 72.8596 Q848.35 73.7508 844.016 73.7508 Q833.16 73.7508 826.8 67.4314 Q820.48 61.1119 820.48 50.3365 Q820.48 39.1965 826.476 32.6746 Q832.511 26.1121 842.72 26.1121 Q851.875 26.1121 857.181 32.0264 Q862.529 37.9003 862.529 48.0275 M855.075 45.84 Q854.994 39.7232 851.632 36.0774 Q848.31 32.4315 842.801 32.4315 Q836.562 32.4315 832.795 35.9558 Q829.068 39.4801 828.501 45.8805 L855.075 45.84 Z" fill="#000000" fill-rule="nonzero" fill-opacity="1" /><path clip-path="url(#clip360)" d="M874.762 9.54393 L882.216 9.54393 L882.216 72.576 L874.762 72.576 L874.762 9.54393 Z" fill="#000000" fill-rule="nonzero" fill-opacity="1" /><path clip-path="url(#clip360)" d="M897.812 27.2059 L905.266 27.2059 L905.266 72.576 L897.812 72.576 L897.812 27.2059 M897.812 9.54393 L905.266 9.54393 L905.266 18.9825 L897.812 18.9825 L897.812 9.54393 Z" fill="#000000" fill-rule="nonzero" fill-opacity="1" /><path clip-path="url(#clip360)" d="M920.092 54.671 L920.092 27.2059 L927.546 27.2059 L927.546 54.3874 Q927.546 60.8284 930.057 64.0691 Q932.569 67.2693 937.592 67.2693 Q943.628 67.2693 947.112 63.421 Q950.636 59.5726 950.636 52.9291 L950.636 27.2059 L958.089 27.2059 L958.089 72.576 L950.636 72.576 L950.636 65.6084 Q947.922 69.7404 944.316 71.7658 Q940.752 73.7508 936.012 73.7508 Q928.194 73.7508 924.143 68.8897 Q920.092 64.0286 920.092 54.671 M938.848 26.1121 L938.848 26.1121 Z" fill="#000000" fill-rule="nonzero" fill-opacity="1" /><path clip-path="url(#clip360)" d="M1002.37 28.5427 L1002.37 35.5912 Q999.206 33.9709 995.803 33.1607 Q992.401 32.3505 988.755 32.3505 Q983.205 32.3505 980.41 34.0519 Q977.655 35.7533 977.655 39.156 Q977.655 41.7486 979.64 43.2475 Q981.625 44.7058 987.621 46.0426 L990.173 46.6097 Q998.112 48.3111 1001.43 51.4303 Q1004.8 54.509 1004.8 60.0587 Q1004.8 66.3781 999.773 70.0644 Q994.791 73.7508 986.041 73.7508 Q982.395 73.7508 978.425 73.0216 Q974.496 72.3329 970.121 70.9151 L970.121 63.2184 Q974.253 65.3654 978.263 66.4591 Q982.273 67.5124 986.203 67.5124 Q991.469 67.5124 994.305 65.73 Q997.14 63.9071 997.14 60.6258 Q997.14 57.5877 995.074 55.9673 Q993.049 54.3469 986.122 52.8481 L983.529 52.2405 Q976.602 50.7821 973.523 47.7845 Q970.445 44.7463 970.445 39.4801 Q970.445 33.0797 974.982 29.5959 Q979.519 26.1121 987.864 26.1121 Q991.996 26.1121 995.641 26.7198 Q999.287 27.3274 1002.37 28.5427 Z" fill="#000000" fill-rule="nonzero" fill-opacity="1" /><path clip-path="url(#clip360)" d="M1023.71 12.096 L1023.71 34.5785 L1016.83 34.5785 L1016.83 12.096 L1023.71 12.096 Z" fill="#000000" fill-rule="nonzero" fill-opacity="1" /><path clip-path="url(#clip360)" d="M1068.4 28.5427 L1068.4 35.5912 Q1065.24 33.9709 1061.83 33.1607 Q1058.43 32.3505 1054.78 32.3505 Q1049.23 32.3505 1046.44 34.0519 Q1043.69 35.7533 1043.69 39.156 Q1043.69 41.7486 1045.67 43.2475 Q1047.65 44.7058 1053.65 46.0426 L1056.2 46.6097 Q1064.14 48.3111 1067.46 51.4303 Q1070.83 54.509 1070.83 60.0587 Q1070.83 66.3781 1065.8 70.0644 Q1060.82 73.7508 1052.07 73.7508 Q1048.42 73.7508 1044.45 73.0216 Q1040.53 72.3329 1036.15 70.9151 L1036.15 63.2184 Q1040.28 65.3654 1044.29 66.4591 Q1048.3 67.5124 1052.23 67.5124 Q1057.5 67.5124 1060.33 65.73 Q1063.17 63.9071 1063.17 60.6258 Q1063.17 57.5877 1061.1 55.9673 Q1059.08 54.3469 1052.15 52.8481 L1049.56 52.2405 Q1042.63 50.7821 1039.55 47.7845 Q1036.47 44.7463 1036.47 39.4801 Q1036.47 33.0797 1041.01 29.5959 Q1045.55 26.1121 1053.89 26.1121 Q1058.03 26.1121 1061.67 26.7198 Q1065.32 27.3274 1068.4 28.5427 Z" fill="#000000" fill-rule="nonzero" fill-opacity="1" /><path clip-path="url(#clip360)" d="M1109.07 27.2059 L1116.52 27.2059 L1116.52 72.576 L1109.07 72.576 L1109.07 27.2059 M1109.07 9.54393 L1116.52 9.54393 L1116.52 18.9825 L1109.07 18.9825 L1109.07 9.54393 Z" fill="#000000" fill-rule="nonzero" fill-opacity="1" /><path clip-path="url(#clip360)" d="M1169.83 45.1919 L1169.83 72.576 L1162.38 72.576 L1162.38 45.4349 Q1162.38 38.994 1159.87 35.7938 Q1157.35 32.5936 1152.33 32.5936 Q1146.29 32.5936 1142.81 36.4419 Q1139.33 40.2903 1139.33 46.9338 L1139.33 72.576 L1131.83 72.576 L1131.83 27.2059 L1139.33 27.2059 L1139.33 34.2544 Q1142 30.163 1145.61 28.1376 Q1149.25 26.1121 1153.99 26.1121 Q1161.81 26.1121 1165.82 30.9732 Q1169.83 35.7938 1169.83 45.1919 Z" fill="#000000" fill-rule="nonzero" fill-opacity="1" /><path clip-path="url(#clip360)" d="M1192.07 14.324 L1192.07 27.2059 L1207.42 27.2059 L1207.42 32.9987 L1192.07 32.9987 L1192.07 57.6282 Q1192.07 63.1779 1193.57 64.7578 Q1195.11 66.3376 1199.77 66.3376 L1207.42 66.3376 L1207.42 72.576 L1199.77 72.576 Q1191.14 72.576 1187.86 69.3758 Q1184.58 66.1351 1184.58 57.6282 L1184.58 32.9987 L1179.11 32.9987 L1179.11 27.2059 L1184.58 27.2059 L1184.58 14.324 L1192.07 14.324 Z" fill="#000000" fill-rule="nonzero" fill-opacity="1" /><path clip-path="url(#clip360)" d="M1256.03 48.0275 L1256.03 51.6733 L1221.76 51.6733 Q1222.25 59.3701 1226.38 63.421 Q1230.55 67.4314 1237.97 67.4314 Q1242.26 67.4314 1246.27 66.3781 Q1250.32 65.3249 1254.29 63.2184 L1254.29 70.267 Q1250.28 71.9684 1246.07 72.8596 Q1241.86 73.7508 1237.52 73.7508 Q1226.66 73.7508 1220.3 67.4314 Q1213.99 61.1119 1213.99 50.3365 Q1213.99 39.1965 1219.98 32.6746 Q1226.02 26.1121 1236.22 26.1121 Q1245.38 26.1121 1250.69 32.0264 Q1256.03 37.9003 1256.03 48.0275 M1248.58 45.84 Q1248.5 39.7232 1245.14 36.0774 Q1241.81 32.4315 1236.31 32.4315 Q1230.07 32.4315 1226.3 35.9558 Q1222.57 39.4801 1222.01 45.8805 L1248.58 45.84 Z" fill="#000000" fill-rule="nonzero" fill-opacity="1" /><path clip-path="url(#clip360)" d="M1298.12 49.3643 Q1298.12 41.2625 1294.76 36.8065 Q1291.44 32.3505 1285.4 32.3505 Q1279.41 32.3505 1276.04 36.8065 Q1272.72 41.2625 1272.72 49.3643 Q1272.72 57.4256 1276.04 61.8816 Q1279.41 66.3376 1285.4 66.3376 Q1291.44 66.3376 1294.76 61.8816 Q1298.12 57.4256 1298.12 49.3643 M1305.58 66.9452 Q1305.58 78.5308 1300.43 84.1616 Q1295.29 89.8329 1284.67 89.8329 Q1280.74 89.8329 1277.26 89.2252 Q1273.78 88.6581 1270.5 87.4428 L1270.5 80.1917 Q1273.78 81.9741 1276.98 82.8248 Q1280.18 83.6755 1283.5 83.6755 Q1290.83 83.6755 1294.48 79.8271 Q1298.12 76.0193 1298.12 68.282 L1298.12 64.5957 Q1295.81 68.6061 1292.21 70.5911 Q1288.6 72.576 1283.58 72.576 Q1275.23 72.576 1270.13 66.2161 Q1265.03 59.8562 1265.03 49.3643 Q1265.03 38.832 1270.13 32.472 Q1275.23 26.1121 1283.58 26.1121 Q1288.6 26.1121 1292.21 28.0971 Q1295.81 30.082 1298.12 34.0924 L1298.12 27.2059 L1305.58 27.2059 L1305.58 66.9452 Z" fill="#000000" fill-rule="nonzero" fill-opacity="1" /><path clip-path="url(#clip360)" d="M1347.22 34.1734 Q1345.96 33.4443 1344.46 33.1202 Q1343.01 32.7556 1341.22 32.7556 Q1334.9 32.7556 1331.5 36.8875 Q1328.14 40.9789 1328.14 48.6757 L1328.14 72.576 L1320.65 72.576 L1320.65 27.2059 L1328.14 27.2059 L1328.14 34.2544 Q1330.49 30.1225 1334.26 28.1376 Q1338.02 26.1121 1343.41 26.1121 Q1344.18 26.1121 1345.11 26.2337 Q1346.04 26.3147 1347.18 26.5172 L1347.22 34.1734 Z" fill="#000000" fill-rule="nonzero" fill-opacity="1" /><path clip-path="url(#clip360)" d="M1375.66 49.7694 Q1366.62 49.7694 1363.14 51.8354 Q1359.66 53.9013 1359.66 58.8839 Q1359.66 62.8538 1362.25 65.2034 Q1364.88 67.5124 1369.38 67.5124 Q1375.58 67.5124 1379.3 63.1374 Q1383.07 58.7219 1383.07 51.4303 L1383.07 49.7694 L1375.66 49.7694 M1390.52 46.6907 L1390.52 72.576 L1383.07 72.576 L1383.07 65.6895 Q1380.52 69.8214 1376.71 71.8063 Q1372.9 73.7508 1367.39 73.7508 Q1360.43 73.7508 1356.29 69.8619 Q1352.2 65.9325 1352.2 59.3701 Q1352.2 51.7138 1357.31 47.825 Q1362.45 43.9361 1372.62 43.9361 L1383.07 43.9361 L1383.07 43.2069 Q1383.07 38.0623 1379.67 35.2672 Q1376.3 32.4315 1370.19 32.4315 Q1366.3 32.4315 1362.61 33.3632 Q1358.93 34.295 1355.52 36.1584 L1355.52 29.2718 Q1359.62 27.692 1363.46 26.9223 Q1367.31 26.1121 1370.96 26.1121 Q1380.8 26.1121 1385.66 31.2163 Q1390.52 36.3204 1390.52 46.6907 Z" fill="#000000" fill-rule="nonzero" fill-opacity="1" /><path clip-path="url(#clip360)" d="M1443.59 45.1919 L1443.59 72.576 L1436.14 72.576 L1436.14 45.4349 Q1436.14 38.994 1433.63 35.7938 Q1431.11 32.5936 1426.09 32.5936 Q1420.05 32.5936 1416.57 36.4419 Q1413.09 40.2903 1413.09 46.9338 L1413.09 72.576 L1405.59 72.576 L1405.59 27.2059 L1413.09 27.2059 L1413.09 34.2544 Q1415.76 30.163 1419.37 28.1376 Q1423.01 26.1121 1427.75 26.1121 Q1435.57 26.1121 1439.58 30.9732 Q1443.59 35.7938 1443.59 45.1919 Z" fill="#000000" fill-rule="nonzero" fill-opacity="1" /><path clip-path="url(#clip360)" d="M1488.31 34.0924 L1488.31 9.54393 L1495.77 9.54393 L1495.77 72.576 L1488.31 72.576 L1488.31 65.7705 Q1485.96 69.8214 1482.36 71.8063 Q1478.79 73.7508 1473.77 73.7508 Q1465.55 73.7508 1460.36 67.1883 Q1455.22 60.6258 1455.22 49.9314 Q1455.22 39.2371 1460.36 32.6746 Q1465.55 26.1121 1473.77 26.1121 Q1478.79 26.1121 1482.36 28.0971 Q1485.96 30.0415 1488.31 34.0924 M1462.91 49.9314 Q1462.91 58.1548 1466.28 62.8538 Q1469.68 67.5124 1475.59 67.5124 Q1481.51 67.5124 1484.91 62.8538 Q1488.31 58.1548 1488.31 49.9314 Q1488.31 41.7081 1484.91 37.0496 Q1481.51 32.3505 1475.59 32.3505 Q1469.68 32.3505 1466.28 37.0496 Q1462.91 41.7081 1462.91 49.9314 Z" fill="#000000" fill-rule="nonzero" fill-opacity="1" /><path clip-path="url(#clip360)" d="M1560.46 9.54393 L1560.46 15.7418 L1553.33 15.7418 Q1549.32 15.7418 1547.74 17.3622 Q1546.2 18.9825 1546.2 23.1955 L1546.2 27.2059 L1558.47 27.2059 L1558.47 32.9987 L1546.2 32.9987 L1546.2 72.576 L1538.71 72.576 L1538.71 32.9987 L1531.58 32.9987 L1531.58 27.2059 L1538.71 27.2059 L1538.71 24.0462 Q1538.71 16.471 1542.23 13.0277 Q1545.75 9.54393 1553.41 9.54393 L1560.46 9.54393 Z" fill="#000000" fill-rule="nonzero" fill-opacity="1" /><path clip-path="url(#clip360)" d="M1584.28 32.4315 Q1578.28 32.4315 1574.8 37.1306 Q1571.32 41.7891 1571.32 49.9314 Q1571.32 58.0738 1574.76 62.7728 Q1578.24 67.4314 1584.28 67.4314 Q1590.23 67.4314 1593.72 62.7323 Q1597.2 58.0333 1597.2 49.9314 Q1597.2 41.8701 1593.72 37.1711 Q1590.23 32.4315 1584.28 32.4315 M1584.28 26.1121 Q1594 26.1121 1599.55 32.4315 Q1605.1 38.7509 1605.1 49.9314 Q1605.1 61.0714 1599.55 67.4314 Q1594 73.7508 1584.28 73.7508 Q1574.52 73.7508 1568.97 67.4314 Q1563.46 61.0714 1563.46 49.9314 Q1563.46 38.7509 1568.97 32.4315 Q1574.52 26.1121 1584.28 26.1121 Z" fill="#000000" fill-rule="nonzero" fill-opacity="1" /><path clip-path="url(#clip360)" d="M1643.75 34.1734 Q1642.49 33.4443 1640.99 33.1202 Q1639.53 32.7556 1637.75 32.7556 Q1631.43 32.7556 1628.03 36.8875 Q1624.67 40.9789 1624.67 48.6757 L1624.67 72.576 L1617.17 72.576 L1617.17 27.2059 L1624.67 27.2059 L1624.67 34.2544 Q1627.02 30.1225 1630.78 28.1376 Q1634.55 26.1121 1639.94 26.1121 Q1640.71 26.1121 1641.64 26.2337 Q1642.57 26.3147 1643.71 26.5172 L1643.75 34.1734 Z" fill="#000000" fill-rule="nonzero" fill-opacity="1" /><path clip-path="url(#clip360)" d="M1653.47 62.2867 L1662.02 62.2867 L1662.02 69.2543 L1655.37 82.2172 L1650.15 82.2172 L1653.47 69.2543 L1653.47 62.2867 Z" fill="#000000" fill-rule="nonzero" fill-opacity="1" /><path clip-path="url(#clip360)" d="M1726.55 64.3122 Q1728 66.2566 1732.38 66.2566 L1735.98 66.2566 L1735.98 72.576 L1731.49 72.576 Q1724.2 72.576 1720.87 68.6871 Q1717.55 64.7172 1717.55 56.1293 L1717.55 34.6595 L1700.54 34.6595 L1700.54 27.2059 L1742.39 27.2059 L1742.39 34.6595 L1725.17 34.6595 L1725.17 56.5749 Q1725.17 62.4487 1726.55 64.3122 Z" fill="#000000" fill-rule="nonzero" fill-opacity="1" /><path clip-path="url(#clip360)" d="M1755.23 34.9026 L1807.16 34.9026 L1807.16 41.7081 L1755.23 41.7081 L1755.23 34.9026 M1755.23 51.4303 L1807.16 51.4303 L1807.16 58.3168 L1755.23 58.3168 L1755.23 51.4303 Z" fill="#000000" fill-rule="nonzero" fill-opacity="1" /><path clip-path="url(#clip360)" d="M1849.61 39.9662 Q1855.49 41.222 1858.77 45.1919 Q1862.09 49.1618 1862.09 54.9951 Q1862.09 63.9476 1855.93 68.8492 Q1849.77 73.7508 1838.43 73.7508 Q1834.62 73.7508 1830.57 72.9811 Q1826.56 72.2519 1822.27 70.7531 L1822.27 62.8538 Q1825.67 64.8388 1829.72 65.8515 Q1833.77 66.8642 1838.19 66.8642 Q1845.89 66.8642 1849.9 63.826 Q1853.95 60.7879 1853.95 54.9951 Q1853.95 49.6479 1850.18 46.6502 Q1846.45 43.612 1839.77 43.612 L1832.72 43.612 L1832.72 36.8875 L1840.09 36.8875 Q1846.13 36.8875 1849.33 34.4975 Q1852.53 32.067 1852.53 27.5299 Q1852.53 22.8714 1849.21 20.4004 Q1845.93 17.8888 1839.77 17.8888 Q1836.41 17.8888 1832.56 18.618 Q1828.71 19.3471 1824.09 20.8865 L1824.09 13.5948 Q1828.75 12.2985 1832.8 11.6504 Q1836.89 11.0023 1840.5 11.0023 Q1849.82 11.0023 1855.24 15.2557 Q1860.67 19.4686 1860.67 26.6793 Q1860.67 31.7024 1857.8 35.1862 Q1854.92 38.6294 1849.61 39.9662 Z" fill="#000000" fill-rule="nonzero" fill-opacity="1" /><path clip-path="url(#clip360)" d="M1896.12 39.075 Q1890.61 39.075 1887.37 42.8424 Q1884.17 46.6097 1884.17 53.1722 Q1884.17 59.6941 1887.37 63.502 Q1890.61 67.2693 1896.12 67.2693 Q1901.63 67.2693 1904.83 63.502 Q1908.07 59.6941 1908.07 53.1722 Q1908.07 46.6097 1904.83 42.8424 Q1901.63 39.075 1896.12 39.075 M1912.36 13.4328 L1912.36 20.8865 Q1909.28 19.4281 1906.12 18.6585 Q1903 17.8888 1899.92 17.8888 Q1891.82 17.8888 1887.53 23.3575 Q1883.28 28.8262 1882.67 39.8852 Q1885.06 36.3609 1888.66 34.4975 Q1892.27 32.5936 1896.6 32.5936 Q1905.72 32.5936 1910.98 38.1433 Q1916.29 43.6525 1916.29 53.1722 Q1916.29 62.4892 1910.78 68.12 Q1905.27 73.7508 1896.12 73.7508 Q1885.63 73.7508 1880.08 65.73 Q1874.53 57.6687 1874.53 42.3968 Q1874.53 28.0566 1881.33 19.5497 Q1888.14 11.0023 1899.6 11.0023 Q1902.68 11.0023 1905.8 11.6099 Q1908.96 12.2175 1912.36 13.4328 Z" fill="#000000" fill-rule="nonzero" fill-opacity="1" /><path clip-path="url(#clip360)" d="M1947.89 17.4837 Q1941.57 17.4837 1938.37 23.7221 Q1935.21 29.92 1935.21 42.3968 Q1935.21 54.833 1938.37 61.0714 Q1941.57 67.2693 1947.89 67.2693 Q1954.25 67.2693 1957.41 61.0714 Q1960.61 54.833 1960.61 42.3968 Q1960.61 29.92 1957.41 23.7221 Q1954.25 17.4837 1947.89 17.4837 M1947.89 11.0023 Q1958.06 11.0023 1963.4 19.0636 Q1968.79 27.0843 1968.79 42.3968 Q1968.79 57.6687 1963.4 65.73 Q1958.06 73.7508 1947.89 73.7508 Q1937.72 73.7508 1932.33 65.73 Q1926.98 57.6687 1926.98 42.3968 Q1926.98 27.0843 1932.33 19.0636 Q1937.72 11.0023 1947.89 11.0023 Z" fill="#000000" fill-rule="nonzero" fill-opacity="1" /><polyline clip-path="url(#clip362)" style="stroke:#d95f02; stroke-linecap:round; stroke-linejoin:round; stroke-width:8; stroke-opacity:1; fill:none" points="279.704,1206.35 286.452,1206.33 293.201,1206.3 355.599,1205.85 417.997,1204.78 455.496,1203.57 492.995,1201.67 524.699,1199.31 556.404,1196 573.624,1193.72 590.844,1191.01 608.064,1187.84 625.284,1184.15 641.16,1180.21 657.035,1175.73 672.911,1170.64 688.786,1164.88 705.806,1157.92 722.826,1150.07 739.846,1141.27 756.867,1131.46 766.726,1125.3 776.586,1118.77 786.446,1111.86 796.305,1104.57 806.165,1096.9 816.025,1088.83 825.885,1080.37 835.744,1071.5 853.269,1054.76 870.793,1036.77 888.317,1017.55 905.842,997.154 921.209,978.356 936.576,958.766 951.944,938.455 967.311,917.509 1000.82,870.122 1034.33,821.393 1051.18,796.816 1068.04,772.452 1076.46,760.414 1084.89,748.506 1089.1,742.609 1093.32,736.755 1095.42,733.844 1097.53,730.946 1098.58,729.501 1099.64,728.06 1100.69,726.621 1101.74,725.186 1120.38,700.384 1139.01,676.885 1148.33,665.71 1157.65,654.961 1166.96,644.672 1176.28,634.871 1185.15,626.028 1194.01,617.679 1198.44,613.697 1202.88,609.846 1205.09,607.972 1207.31,606.131 1208.42,605.223 1209.53,604.324 1210.08,603.878 1210.63,603.433 "/>
<polyline clip-path="url(#clip362)" style="stroke:#1b9e77; stroke-linecap:round; stroke-linejoin:round; stroke-width:8; stroke-opacity:1; fill:none" points="279.704,1422.97 286.452,1422.95 293.201,1422.92 355.599,1422.47 417.997,1421.39 455.496,1420.18 492.995,1418.29 524.699,1415.93 556.404,1412.62 573.624,1410.33 590.844,1407.63 608.064,1404.46 625.284,1400.76 641.16,1396.83 657.035,1392.35 672.911,1387.25 688.786,1381.5 705.806,1374.54 722.826,1366.69 739.846,1357.89 756.867,1348.08 776.586,1335.38 796.305,1321.19 816.025,1305.45 835.744,1288.12 853.269,1271.38 870.793,1253.38 888.317,1234.17 905.842,1213.77 921.209,1194.97 936.576,1175.38 951.944,1155.07 967.311,1134.13 1000.82,1086.74 1034.33,1038.01 1068.04,989.07 1101.74,941.804 1120.38,917.002 1139.01,893.503 1148.33,882.328 1157.65,871.579 1166.96,861.29 1176.28,851.489 1185.15,842.646 1194.01,834.297 1202.88,826.464 1211.74,819.17 1220.61,812.433 1229.47,806.272 1238.34,800.703 1247.2,795.742 1256.42,791.24 1265.64,787.422 1274.85,784.295 1284.07,781.869 1293.29,780.149 1302.51,779.138 1311.73,778.836 1320.94,779.241 1328.7,780.129 1336.46,781.512 1344.22,783.385 1351.98,785.742 1359.74,788.578 1367.5,791.883 1375.26,795.649 1383.02,799.866 1392.49,805.61 1401.96,811.988 1411.44,818.977 1420.91,826.552 1430.38,834.687 1439.86,843.353 1449.33,852.522 1458.8,862.162 1476.16,880.946 1493.51,901.01 1510.87,922.153 1528.23,944.169 1592.34,1029.77 1657.29,1116.19 1675.49,1139.25 1693.69,1161.56 1711.89,1183.01 1730.08,1203.51 1746.57,1221.2 1763.06,1238.03 1779.55,1253.95 1796.04,1268.96 1814.92,1285.02 1833.8,1299.87 1852.68,1313.55 1871.56,1326.07 1889.05,1336.68 1906.53,1346.37 1924.01,1355.19 1941.49,1363.19 1958.72,1370.31 1975.96,1376.73 1993.19,1382.49 2010.43,1387.65 2027.16,1392.12 2043.89,1396.1 2060.63,1399.63 2077.36,1402.76 2111.67,1408.07 2145.97,1412.12 2183.56,1415.43 2221.15,1417.82 2275.75,1420.11 2330.35,1421.47 2341.55,1421.67 2352.76,1421.85 "/>
<line clip-path="url(#clip362)" x1="1212.58" y1="601.893" x2="1192.58" y2="581.893" style="stroke:#ff0000; stroke-width:4; stroke-opacity:1"/>
<line clip-path="url(#clip362)" x1="1212.58" y1="601.893" x2="1192.58" y2="621.893" style="stroke:#ff0000; stroke-width:4; stroke-opacity:1"/>
<line clip-path="url(#clip362)" x1="1212.58" y1="601.893" x2="1232.58" y2="621.893" style="stroke:#ff0000; stroke-width:4; stroke-opacity:1"/>
<line clip-path="url(#clip362)" x1="1212.58" y1="601.893" x2="1232.58" y2="581.893" style="stroke:#ff0000; stroke-width:4; stroke-opacity:1"/>
<path clip-path="url(#clip360)" d="M348.806 322.316 L1082.24 322.316 L1082.24 166.796 L348.806 166.796  Z" fill="#ffffff" fill-rule="evenodd" fill-opacity="1"/>
<polyline clip-path="url(#clip360)" style="stroke:#000000; stroke-linecap:round; stroke-linejoin:round; stroke-width:4; stroke-opacity:1; fill:none" points="348.806,322.316 1082.24,322.316 1082.24,166.796 348.806,166.796 348.806,322.316 "/>
<polyline clip-path="url(#clip360)" style="stroke:#d95f02; stroke-linecap:round; stroke-linejoin:round; stroke-width:8; stroke-opacity:1; fill:none" points="371.84,218.636 510.043,218.636 "/>
<path clip-path="url(#clip360)" d="M549.581 199.897 L549.581 203.439 L545.507 203.439 Q543.216 203.439 542.313 204.365 Q541.433 205.291 541.433 207.698 L541.433 209.99 L548.447 209.99 L548.447 213.3 L541.433 213.3 L541.433 235.916 L537.151 235.916 L537.151 213.3 L533.077 213.3 L533.077 209.99 L537.151 209.99 L537.151 208.184 Q537.151 203.856 539.165 201.888 Q541.179 199.897 545.554 199.897 L549.581 199.897 Z" fill="#000000" fill-rule="nonzero" fill-opacity="1" /><path clip-path="url(#clip360)" d="M563.378 199.944 Q560.276 205.268 558.771 210.476 Q557.267 215.684 557.267 221.032 Q557.267 226.379 558.771 231.633 Q560.299 236.865 563.378 242.166 L559.674 242.166 Q556.202 236.726 554.466 231.471 Q552.753 226.217 552.753 221.032 Q552.753 215.87 554.466 210.638 Q556.179 205.407 559.674 199.944 L563.378 199.944 Z" fill="#000000" fill-rule="nonzero" fill-opacity="1" /><path clip-path="url(#clip360)" d="M581.85 203.948 L593.817 235.916 L589.303 235.916 L582.035 216.749 L573.1 235.916 L568.586 235.916 L579.952 211.055 L578.239 206.471 Q577.151 203.555 574.674 203.555 L572.452 203.555 L572.452 199.897 L575.16 199.944 Q580.391 200.013 581.85 203.948 Z" fill="#000000" fill-rule="nonzero" fill-opacity="1" /><path clip-path="url(#clip360)" d="M600.785 230.036 L605.669 230.036 L605.669 234.018 L601.873 241.425 L598.887 241.425 L600.785 234.018 L600.785 230.036 Z" fill="#000000" fill-rule="nonzero" fill-opacity="1" /><path clip-path="url(#clip360)" d="M627.475 231.194 Q628.308 232.305 630.808 232.305 L632.868 232.305 L632.868 235.916 L630.299 235.916 Q626.132 235.916 624.234 233.694 Q622.336 231.425 622.336 226.518 L622.336 214.249 L612.614 214.249 L612.614 209.99 L636.525 209.99 L636.525 214.249 L626.688 214.249 L626.688 226.772 Q626.688 230.129 627.475 231.194 Z" fill="#000000" fill-rule="nonzero" fill-opacity="1" /><path clip-path="url(#clip360)" d="M642.637 199.944 L646.34 199.944 Q649.812 205.407 651.525 210.638 Q653.261 215.87 653.261 221.032 Q653.261 226.217 651.525 231.471 Q649.812 236.726 646.34 242.166 L642.637 242.166 Q645.715 236.865 647.22 231.633 Q648.748 226.379 648.748 221.032 Q648.748 215.684 647.22 210.476 Q645.715 205.268 642.637 199.944 Z" fill="#000000" fill-rule="nonzero" fill-opacity="1" /><path clip-path="url(#clip360)" d="M686.919 212.976 Q683.493 212.976 681.502 215.661 Q679.511 218.323 679.511 222.976 Q679.511 227.629 681.479 230.314 Q683.47 232.976 686.919 232.976 Q690.321 232.976 692.312 230.291 Q694.303 227.606 694.303 222.976 Q694.303 218.37 692.312 215.684 Q690.321 212.976 686.919 212.976 M686.919 209.365 Q692.474 209.365 695.646 212.976 Q698.817 216.587 698.817 222.976 Q698.817 229.342 695.646 232.976 Q692.474 236.587 686.919 236.587 Q681.34 236.587 678.169 232.976 Q675.021 229.342 675.021 222.976 Q675.021 216.587 678.169 212.976 Q681.34 209.365 686.919 209.365 Z" fill="#000000" fill-rule="nonzero" fill-opacity="1" /><path clip-path="url(#clip360)" d="M720.9 213.971 Q720.182 213.555 719.326 213.37 Q718.493 213.161 717.474 213.161 Q713.863 213.161 711.919 215.522 Q709.997 217.86 709.997 222.258 L709.997 235.916 L705.715 235.916 L705.715 209.99 L709.997 209.99 L709.997 214.018 Q711.34 211.657 713.493 210.522 Q715.645 209.365 718.724 209.365 Q719.164 209.365 719.696 209.434 Q720.229 209.481 720.877 209.596 L720.9 213.971 Z" fill="#000000" fill-rule="nonzero" fill-opacity="1" /><path clip-path="url(#clip360)" d="M725.368 209.99 L729.627 209.99 L729.627 235.916 L725.368 235.916 L725.368 209.99 M725.368 199.897 L729.627 199.897 L729.627 205.291 L725.368 205.291 L725.368 199.897 Z" fill="#000000" fill-rule="nonzero" fill-opacity="1" /><path clip-path="url(#clip360)" d="M755.599 222.652 Q755.599 218.022 753.678 215.476 Q751.779 212.93 748.33 212.93 Q744.904 212.93 742.983 215.476 Q741.085 218.022 741.085 222.652 Q741.085 227.258 742.983 229.805 Q744.904 232.351 748.33 232.351 Q751.779 232.351 753.678 229.805 Q755.599 227.258 755.599 222.652 M759.858 232.698 Q759.858 239.318 756.918 242.536 Q753.979 245.777 747.914 245.777 Q745.668 245.777 743.678 245.43 Q741.687 245.105 739.812 244.411 L739.812 240.268 Q741.687 241.286 743.516 241.772 Q745.344 242.258 747.242 242.258 Q751.432 242.258 753.516 240.059 Q755.599 237.883 755.599 233.462 L755.599 231.356 Q754.279 233.647 752.219 234.781 Q750.159 235.916 747.289 235.916 Q742.52 235.916 739.604 232.281 Q736.687 228.647 736.687 222.652 Q736.687 216.633 739.604 212.999 Q742.52 209.365 747.289 209.365 Q750.159 209.365 752.219 210.499 Q754.279 211.633 755.599 213.925 L755.599 209.99 L759.858 209.99 L759.858 232.698 Z" fill="#000000" fill-rule="nonzero" fill-opacity="1" /><path clip-path="url(#clip360)" d="M768.631 209.99 L772.89 209.99 L772.89 235.916 L768.631 235.916 L768.631 209.99 M768.631 199.897 L772.89 199.897 L772.89 205.291 L768.631 205.291 L768.631 199.897 Z" fill="#000000" fill-rule="nonzero" fill-opacity="1" /><path clip-path="url(#clip360)" d="M803.353 220.268 L803.353 235.916 L799.094 235.916 L799.094 220.407 Q799.094 216.726 797.659 214.897 Q796.224 213.069 793.353 213.069 Q789.904 213.069 787.914 215.268 Q785.923 217.467 785.923 221.263 L785.923 235.916 L781.64 235.916 L781.64 209.99 L785.923 209.99 L785.923 214.018 Q787.451 211.68 789.511 210.522 Q791.594 209.365 794.302 209.365 Q798.77 209.365 801.062 212.143 Q803.353 214.897 803.353 220.268 Z" fill="#000000" fill-rule="nonzero" fill-opacity="1" /><path clip-path="url(#clip360)" d="M823.631 222.883 Q818.469 222.883 816.478 224.064 Q814.487 225.244 814.487 228.092 Q814.487 230.36 815.969 231.703 Q817.474 233.022 820.043 233.022 Q823.585 233.022 825.714 230.522 Q827.867 227.999 827.867 223.832 L827.867 222.883 L823.631 222.883 M832.126 221.124 L832.126 235.916 L827.867 235.916 L827.867 231.981 Q826.409 234.342 824.233 235.476 Q822.057 236.587 818.909 236.587 Q814.927 236.587 812.566 234.365 Q810.228 232.119 810.228 228.369 Q810.228 223.994 813.145 221.772 Q816.085 219.55 821.895 219.55 L827.867 219.55 L827.867 219.133 Q827.867 216.194 825.923 214.596 Q824.001 212.976 820.506 212.976 Q818.284 212.976 816.177 213.508 Q814.071 214.041 812.126 215.106 L812.126 211.17 Q814.464 210.268 816.663 209.828 Q818.862 209.365 820.946 209.365 Q826.571 209.365 829.348 212.282 Q832.126 215.198 832.126 221.124 Z" fill="#000000" fill-rule="nonzero" fill-opacity="1" /><path clip-path="url(#clip360)" d="M840.899 199.897 L845.159 199.897 L845.159 235.916 L840.899 235.916 L840.899 199.897 Z" fill="#000000" fill-rule="nonzero" fill-opacity="1" /><path clip-path="url(#clip360)" d="M879.371 199.944 Q876.27 205.268 874.765 210.476 Q873.26 215.684 873.26 221.032 Q873.26 226.379 874.765 231.633 Q876.293 236.865 879.371 242.166 L875.668 242.166 Q872.195 236.726 870.459 231.471 Q868.746 226.217 868.746 221.032 Q868.746 215.87 870.459 210.638 Q872.172 205.407 875.668 199.944 L879.371 199.944 Z" fill="#000000" fill-rule="nonzero" fill-opacity="1" /><path clip-path="url(#clip360)" d="M904.163 210.754 L904.163 214.782 Q902.357 213.856 900.413 213.393 Q898.468 212.93 896.385 212.93 Q893.214 212.93 891.617 213.902 Q890.043 214.874 890.043 216.819 Q890.043 218.3 891.177 219.157 Q892.311 219.99 895.737 220.754 L897.195 221.078 Q901.732 222.05 903.631 223.832 Q905.552 225.592 905.552 228.763 Q905.552 232.374 902.681 234.481 Q899.834 236.587 894.834 236.587 Q892.751 236.587 890.482 236.17 Q888.237 235.777 885.737 234.967 L885.737 230.569 Q888.098 231.795 890.39 232.42 Q892.681 233.022 894.927 233.022 Q897.936 233.022 899.556 232.004 Q901.177 230.962 901.177 229.087 Q901.177 227.351 899.996 226.425 Q898.839 225.499 894.881 224.643 L893.399 224.295 Q889.441 223.462 887.682 221.749 Q885.922 220.013 885.922 217.004 Q885.922 213.346 888.515 211.356 Q891.107 209.365 895.876 209.365 Q898.237 209.365 900.32 209.712 Q902.404 210.059 904.163 210.754 Z" fill="#000000" fill-rule="nonzero" fill-opacity="1" /><path clip-path="url(#clip360)" d="M933.885 220.268 L933.885 235.916 L929.626 235.916 L929.626 220.407 Q929.626 216.726 928.191 214.897 Q926.755 213.069 923.885 213.069 Q920.436 213.069 918.445 215.268 Q916.455 217.467 916.455 221.263 L916.455 235.916 L912.172 235.916 L912.172 199.897 L916.455 199.897 L916.455 214.018 Q917.982 211.68 920.042 210.522 Q922.126 209.365 924.834 209.365 Q929.302 209.365 931.593 212.143 Q933.885 214.897 933.885 220.268 Z" fill="#000000" fill-rule="nonzero" fill-opacity="1" /><path clip-path="url(#clip360)" d="M942.38 209.99 L946.64 209.99 L946.64 235.916 L942.38 235.916 L942.38 209.99 M942.38 199.897 L946.64 199.897 L946.64 205.291 L942.38 205.291 L942.38 199.897 Z" fill="#000000" fill-rule="nonzero" fill-opacity="1" /><path clip-path="url(#clip360)" d="M968.676 199.897 L968.676 203.439 L964.602 203.439 Q962.311 203.439 961.408 204.365 Q960.528 205.291 960.528 207.698 L960.528 209.99 L967.542 209.99 L967.542 213.3 L960.528 213.3 L960.528 235.916 L956.246 235.916 L956.246 213.3 L952.172 213.3 L952.172 209.99 L956.246 209.99 L956.246 208.184 Q956.246 203.856 958.26 201.888 Q960.274 199.897 964.649 199.897 L968.676 199.897 Z" fill="#000000" fill-rule="nonzero" fill-opacity="1" /><path clip-path="url(#clip360)" d="M975.621 202.629 L975.621 209.99 L984.394 209.99 L984.394 213.3 L975.621 213.3 L975.621 227.374 Q975.621 230.545 976.477 231.448 Q977.357 232.351 980.019 232.351 L984.394 232.351 L984.394 235.916 L980.019 235.916 Q975.088 235.916 973.213 234.087 Q971.338 232.235 971.338 227.374 L971.338 213.3 L968.213 213.3 L968.213 209.99 L971.338 209.99 L971.338 202.629 L975.621 202.629 Z" fill="#000000" fill-rule="nonzero" fill-opacity="1" /><path clip-path="url(#clip360)" d="M1012.17 221.888 L1012.17 223.971 L992.588 223.971 Q992.866 228.369 995.227 230.684 Q997.611 232.976 1001.85 232.976 Q1004.3 232.976 1006.59 232.374 Q1008.91 231.772 1011.18 230.569 L1011.18 234.596 Q1008.88 235.568 1006.48 236.078 Q1004.07 236.587 1001.59 236.587 Q995.389 236.587 991.755 232.976 Q988.144 229.365 988.144 223.207 Q988.144 216.842 991.57 213.115 Q995.019 209.365 1000.85 209.365 Q1006.08 209.365 1009.12 212.745 Q1012.17 216.101 1012.17 221.888 M1007.91 220.638 Q1007.87 217.143 1005.94 215.059 Q1004.05 212.976 1000.9 212.976 Q997.334 212.976 995.181 214.99 Q993.051 217.004 992.727 220.661 L1007.91 220.638 Z" fill="#000000" fill-rule="nonzero" fill-opacity="1" /><path clip-path="url(#clip360)" d="M1036.22 213.925 L1036.22 199.897 L1040.48 199.897 L1040.48 235.916 L1036.22 235.916 L1036.22 232.027 Q1034.88 234.342 1032.82 235.476 Q1030.78 236.587 1027.91 236.587 Q1023.21 236.587 1020.25 232.837 Q1017.31 229.087 1017.31 222.976 Q1017.31 216.865 1020.25 213.115 Q1023.21 209.365 1027.91 209.365 Q1030.78 209.365 1032.82 210.499 Q1034.88 211.61 1036.22 213.925 M1021.71 222.976 Q1021.71 227.675 1023.63 230.36 Q1025.57 233.022 1028.95 233.022 Q1032.33 233.022 1034.28 230.36 Q1036.22 227.675 1036.22 222.976 Q1036.22 218.277 1034.28 215.615 Q1032.33 212.93 1028.95 212.93 Q1025.57 212.93 1023.63 215.615 Q1021.71 218.277 1021.71 222.976 Z" fill="#000000" fill-rule="nonzero" fill-opacity="1" /><path clip-path="url(#clip360)" d="M1048.58 199.944 L1052.29 199.944 Q1055.76 205.407 1057.47 210.638 Q1059.21 215.87 1059.21 221.032 Q1059.21 226.217 1057.47 231.471 Q1055.76 236.726 1052.29 242.166 L1048.58 242.166 Q1051.66 236.865 1053.17 231.633 Q1054.69 226.379 1054.69 221.032 Q1054.69 215.684 1053.17 210.476 Q1051.66 205.268 1048.58 199.944 Z" fill="#000000" fill-rule="nonzero" fill-opacity="1" /><polyline clip-path="url(#clip360)" style="stroke:#1b9e77; stroke-linecap:round; stroke-linejoin:round; stroke-width:8; stroke-opacity:1; fill:none" points="371.84,270.476 510.043,270.476 "/>
<path clip-path="url(#clip360)" d="M549.581 251.737 L549.581 255.279 L545.507 255.279 Q543.216 255.279 542.313 256.205 Q541.433 257.131 541.433 259.538 L541.433 261.83 L548.447 261.83 L548.447 265.14 L541.433 265.14 L541.433 287.756 L537.151 287.756 L537.151 265.14 L533.077 265.14 L533.077 261.83 L537.151 261.83 L537.151 260.024 Q537.151 255.696 539.165 253.728 Q541.179 251.737 545.554 251.737 L549.581 251.737 Z" fill="#000000" fill-rule="nonzero" fill-opacity="1" /><path clip-path="url(#clip360)" d="M563.378 251.784 Q560.276 257.108 558.771 262.316 Q557.267 267.524 557.267 272.872 Q557.267 278.219 558.771 283.473 Q560.299 288.705 563.378 294.006 L559.674 294.006 Q556.202 288.566 554.466 283.311 Q552.753 278.057 552.753 272.872 Q552.753 267.71 554.466 262.478 Q556.179 257.247 559.674 251.784 L563.378 251.784 Z" fill="#000000" fill-rule="nonzero" fill-opacity="1" /><path clip-path="url(#clip360)" d="M581.85 255.788 L593.817 287.756 L589.303 287.756 L582.035 268.589 L573.1 287.756 L568.586 287.756 L579.952 262.895 L578.239 258.311 Q577.151 255.395 574.674 255.395 L572.452 255.395 L572.452 251.737 L575.16 251.784 Q580.391 251.853 581.85 255.788 Z" fill="#000000" fill-rule="nonzero" fill-opacity="1" /><path clip-path="url(#clip360)" d="M600.785 281.876 L605.669 281.876 L605.669 285.858 L601.873 293.265 L598.887 293.265 L600.785 285.858 L600.785 281.876 Z" fill="#000000" fill-rule="nonzero" fill-opacity="1" /><path clip-path="url(#clip360)" d="M627.475 283.034 Q628.308 284.145 630.808 284.145 L632.868 284.145 L632.868 287.756 L630.299 287.756 Q626.132 287.756 624.234 285.534 Q622.336 283.265 622.336 278.358 L622.336 266.089 L612.614 266.089 L612.614 261.83 L636.525 261.83 L636.525 266.089 L626.688 266.089 L626.688 278.612 Q626.688 281.969 627.475 283.034 Z" fill="#000000" fill-rule="nonzero" fill-opacity="1" /><path clip-path="url(#clip360)" d="M642.637 251.784 L646.34 251.784 Q649.812 257.247 651.525 262.478 Q653.261 267.71 653.261 272.872 Q653.261 278.057 651.525 283.311 Q649.812 288.566 646.34 294.006 L642.637 294.006 Q645.715 288.705 647.22 283.473 Q648.748 278.219 648.748 272.872 Q648.748 267.524 647.22 262.316 Q645.715 257.108 642.637 251.784 Z" fill="#000000" fill-rule="nonzero" fill-opacity="1" /><path clip-path="url(#clip360)" d="M691.896 265.811 Q691.178 265.395 690.321 265.21 Q689.488 265.001 688.47 265.001 Q684.859 265.001 682.914 267.362 Q680.993 269.7 680.993 274.098 L680.993 287.756 L676.71 287.756 L676.71 261.83 L680.993 261.83 L680.993 265.858 Q682.335 263.497 684.488 262.362 Q686.641 261.205 689.72 261.205 Q690.159 261.205 690.692 261.274 Q691.224 261.321 691.872 261.436 L691.896 265.811 Z" fill="#000000" fill-rule="nonzero" fill-opacity="1" /><path clip-path="url(#clip360)" d="M717.497 273.728 L717.497 275.811 L697.914 275.811 Q698.192 280.209 700.553 282.524 Q702.937 284.816 707.173 284.816 Q709.627 284.816 711.919 284.214 Q714.233 283.612 716.502 282.409 L716.502 286.436 Q714.21 287.408 711.803 287.918 Q709.395 288.427 706.919 288.427 Q700.715 288.427 697.081 284.816 Q693.47 281.205 693.47 275.047 Q693.47 268.682 696.895 264.955 Q700.345 261.205 706.178 261.205 Q711.409 261.205 714.442 264.585 Q717.497 267.941 717.497 273.728 M713.238 272.478 Q713.192 268.983 711.27 266.899 Q709.372 264.816 706.224 264.816 Q702.659 264.816 700.507 266.83 Q698.377 268.844 698.053 272.501 L713.238 272.478 Z" fill="#000000" fill-rule="nonzero" fill-opacity="1" /><path clip-path="url(#clip360)" d="M722.011 261.83 L726.27 261.83 L731.594 282.061 L736.895 261.83 L741.918 261.83 L747.242 282.061 L752.543 261.83 L756.803 261.83 L750.02 287.756 L744.997 287.756 L739.418 266.506 L733.817 287.756 L728.793 287.756 L722.011 261.83 Z" fill="#000000" fill-rule="nonzero" fill-opacity="1" /><path clip-path="url(#clip360)" d="M778.284 265.811 Q777.566 265.395 776.71 265.21 Q775.877 265.001 774.858 265.001 Q771.247 265.001 769.303 267.362 Q767.381 269.7 767.381 274.098 L767.381 287.756 L763.099 287.756 L763.099 261.83 L767.381 261.83 L767.381 265.858 Q768.724 263.497 770.877 262.362 Q773.029 261.205 776.108 261.205 Q776.548 261.205 777.08 261.274 Q777.613 261.321 778.261 261.436 L778.284 265.811 Z" fill="#000000" fill-rule="nonzero" fill-opacity="1" /><path clip-path="url(#clip360)" d="M782.752 261.83 L787.011 261.83 L787.011 287.756 L782.752 287.756 L782.752 261.83 M782.752 251.737 L787.011 251.737 L787.011 257.131 L782.752 257.131 L782.752 251.737 Z" fill="#000000" fill-rule="nonzero" fill-opacity="1" /><path clip-path="url(#clip360)" d="M800.136 254.469 L800.136 261.83 L808.909 261.83 L808.909 265.14 L800.136 265.14 L800.136 279.214 Q800.136 282.385 800.992 283.288 Q801.872 284.191 804.534 284.191 L808.909 284.191 L808.909 287.756 L804.534 287.756 Q799.603 287.756 797.728 285.927 Q795.853 284.075 795.853 279.214 L795.853 265.14 L792.728 265.14 L792.728 261.83 L795.853 261.83 L795.853 254.469 L800.136 254.469 Z" fill="#000000" fill-rule="nonzero" fill-opacity="1" /><path clip-path="url(#clip360)" d="M818.724 254.469 L818.724 261.83 L827.497 261.83 L827.497 265.14 L818.724 265.14 L818.724 279.214 Q818.724 282.385 819.58 283.288 Q820.46 284.191 823.122 284.191 L827.497 284.191 L827.497 287.756 L823.122 287.756 Q818.191 287.756 816.316 285.927 Q814.441 284.075 814.441 279.214 L814.441 265.14 L811.316 265.14 L811.316 261.83 L814.441 261.83 L814.441 254.469 L818.724 254.469 Z" fill="#000000" fill-rule="nonzero" fill-opacity="1" /><path clip-path="url(#clip360)" d="M855.274 273.728 L855.274 275.811 L835.691 275.811 Q835.969 280.209 838.33 282.524 Q840.714 284.816 844.95 284.816 Q847.404 284.816 849.696 284.214 Q852.01 283.612 854.279 282.409 L854.279 286.436 Q851.987 287.408 849.58 287.918 Q847.172 288.427 844.696 288.427 Q838.492 288.427 834.858 284.816 Q831.247 281.205 831.247 275.047 Q831.247 268.682 834.673 264.955 Q838.122 261.205 843.955 261.205 Q849.186 261.205 852.219 264.585 Q855.274 267.941 855.274 273.728 M851.015 272.478 Q850.969 268.983 849.047 266.899 Q847.149 264.816 844.001 264.816 Q840.436 264.816 838.284 266.83 Q836.154 268.844 835.83 272.501 L851.015 272.478 Z" fill="#000000" fill-rule="nonzero" fill-opacity="1" /><path clip-path="url(#clip360)" d="M883.816 272.108 L883.816 287.756 L879.557 287.756 L879.557 272.247 Q879.557 268.566 878.121 266.737 Q876.686 264.909 873.816 264.909 Q870.367 264.909 868.376 267.108 Q866.385 269.307 866.385 273.103 L866.385 287.756 L862.103 287.756 L862.103 261.83 L866.385 261.83 L866.385 265.858 Q867.913 263.52 869.973 262.362 Q872.057 261.205 874.765 261.205 Q879.232 261.205 881.524 263.983 Q883.816 266.737 883.816 272.108 Z" fill="#000000" fill-rule="nonzero" fill-opacity="1" /></svg>
