<?xml version="1.0" encoding="utf-8"?>
<svg xmlns="http://www.w3.org/2000/svg" xmlns:xlink="http://www.w3.org/1999/xlink" width="600" height="400" viewBox="0 0 2400 1600">
<defs>
  <clipPath id="clip450">
    <rect x="0" y="0" width="2400" height="1600"/>
  </clipPath>
</defs>
<path clip-path="url(#clip450)" d="M0 1600 L2400 1600 L2400 0 L0 0  Z" fill="#ffffff" fill-rule="evenodd" fill-opacity="1"/>
<defs>
  <clipPath id="clip451">
    <rect x="480" y="0" width="1681" height="1600"/>
  </clipPath>
</defs>
<path clip-path="url(#clip450)" d="M279.704 1423.18 L2352.76 1423.18 L2352.76 123.472 L279.704 123.472  Z" fill="#ffffff" fill-rule="evenodd" fill-opacity="1"/>
<defs>
  <clipPath id="clip452">
    <rect x="279" y="123" width="2074" height="1301"/>
  </clipPath>
</defs>
<polyline clip-path="url(#clip452)" style="stroke:#000000; stroke-linecap:round; stroke-linejoin:round; stroke-width:2; stroke-opacity:0.1; fill:none" points="487.009,1423.18 487.009,123.472 "/>
<polyline clip-path="url(#clip452)" style="stroke:#000000; stroke-linecap:round; stroke-linejoin:round; stroke-width:2; stroke-opacity:0.1; fill:none" points="901.62,1423.18 901.62,123.472 "/>
<polyline clip-path="url(#clip452)" style="stroke:#000000; stroke-linecap:round; stroke-linejoin:round; stroke-width:2; stroke-opacity:0.1; fill:none" points="1316.23,1423.18 1316.23,123.472 "/>
<polyline clip-path="url(#clip452)" style="stroke:#000000; stroke-linecap:round; stroke-linejoin:round; stroke-width:2; stroke-opacity:0.1; fill:none" points="1730.84,1423.18 1730.84,123.472 "/>
<polyline clip-path="url(#clip452)" style="stroke:#000000; stroke-linecap:round; stroke-linejoin:round; stroke-width:2; stroke-opacity:0.1; fill:none" points="2145.45,1423.18 2145.45,123.472 "/>
<polyline clip-path="url(#clip450)" style="stroke:#000000; stroke-linecap:round; stroke-linejoin:round; stroke-width:4; stroke-opacity:1; fill:none" points="279.704,1423.18 2352.76,1423.18 "/>
<polyline clip-path="url(#clip450)" style="stroke:#000000; stroke-linecap:round; stroke-linejoin:round; stroke-width:4; stroke-opacity:1; fill:none" points="487.009,1423.18 487.009,1404.28 "/>
<polyline clip-path="url(#clip450)" style="stroke:#000000; stroke-linecap:round; stroke-linejoin:round; stroke-width:4; stroke-opacity:1; fill:none" points="901.62,1423.18 901.62,1404.28 "/>
<polyline clip-path="url(#clip450)" style="stroke:#000000; stroke-linecap:round; stroke-linejoin:round; stroke-width:4; stroke-opacity:1; fill:none" points="1316.23,1423.18 1316.23,1404.28 "/>
<polyline clip-path="url(#clip450)" style="stroke:#000000; stroke-linecap:round; stroke-linejoin:round; stroke-width:4; stroke-opacity:1; fill:none" points="1730.84,1423.18 1730.84,1404.28 "/>
<polyline clip-path="url(#clip450)" style="stroke:#000000; stroke-linecap:round; stroke-linejoin:round; stroke-width:4; stroke-opacity:1; fill:none" points="2145.45,1423.18 2145.45,1404.28 "/>
<path clip-path="url(#clip450)" d="M449.232 1454.1 Q445.62 1454.1 443.792 1457.66 Q441.986 1461.2 441.986 1468.33 Q441.986 1475.44 443.792 1479.01 Q445.62 1482.55 449.232 1482.55 Q452.866 1482.55 454.671 1479.01 Q456.5 1475.44 456.5 1468.33 Q456.5 1461.2 454.671 1457.66 Q452.866 1454.1 449.232 1454.1 M449.232 1450.39 Q455.042 1450.39 458.097 1455 Q461.176 1459.58 461.176 1468.33 Q461.176 1477.06 458.097 1481.67 Q455.042 1486.25 449.232 1486.25 Q443.421 1486.25 440.343 1481.67 Q437.287 1477.06 437.287 1468.33 Q437.287 1459.58 440.343 1455 Q443.421 1450.39 449.232 1450.39 Z" fill="#000000" fill-rule="nonzero" fill-opacity="1" /><path clip-path="url(#clip450)" d="M469.393 1479.7 L474.278 1479.7 L474.278 1485.58 L469.393 1485.58 L469.393 1479.7 Z" fill="#000000" fill-rule="nonzero" fill-opacity="1" /><path clip-path="url(#clip450)" d="M484.602 1484.86 L484.602 1480.6 Q486.361 1481.44 488.167 1481.88 Q489.972 1482.32 491.708 1482.32 Q496.338 1482.32 498.768 1479.21 Q501.222 1476.09 501.569 1469.75 Q500.227 1471.74 498.166 1472.8 Q496.106 1473.87 493.606 1473.87 Q488.421 1473.87 485.389 1470.74 Q482.38 1467.59 482.38 1462.15 Q482.38 1456.83 485.528 1453.61 Q488.676 1450.39 493.907 1450.39 Q499.903 1450.39 503.051 1455 Q506.222 1459.58 506.222 1468.33 Q506.222 1476.51 502.333 1481.39 Q498.467 1486.25 491.916 1486.25 Q490.157 1486.25 488.352 1485.9 Q486.546 1485.56 484.602 1484.86 M493.907 1470.21 Q497.055 1470.21 498.884 1468.06 Q500.736 1465.9 500.736 1462.15 Q500.736 1458.43 498.884 1456.27 Q497.055 1454.1 493.907 1454.1 Q490.759 1454.1 488.907 1456.27 Q487.079 1458.43 487.079 1462.15 Q487.079 1465.9 488.907 1468.06 Q490.759 1470.21 493.907 1470.21 Z" fill="#000000" fill-rule="nonzero" fill-opacity="1" /><path clip-path="url(#clip450)" d="M525.203 1466.44 Q522.055 1466.44 520.203 1468.59 Q518.375 1470.74 518.375 1474.49 Q518.375 1478.22 520.203 1480.39 Q522.055 1482.55 525.203 1482.55 Q528.351 1482.55 530.18 1480.39 Q532.032 1478.22 532.032 1474.49 Q532.032 1470.74 530.18 1468.59 Q528.351 1466.44 525.203 1466.44 M534.486 1451.78 L534.486 1456.04 Q532.726 1455.21 530.921 1454.77 Q529.139 1454.33 527.379 1454.33 Q522.75 1454.33 520.296 1457.45 Q517.865 1460.58 517.518 1466.9 Q518.884 1464.89 520.944 1463.82 Q523.004 1462.73 525.481 1462.73 Q530.689 1462.73 533.699 1465.9 Q536.731 1469.05 536.731 1474.49 Q536.731 1479.82 533.583 1483.03 Q530.435 1486.25 525.203 1486.25 Q519.208 1486.25 516.037 1481.67 Q512.865 1477.06 512.865 1468.33 Q512.865 1460.14 516.754 1455.28 Q520.643 1450.39 527.194 1450.39 Q528.953 1450.39 530.736 1450.74 Q532.541 1451.09 534.486 1451.78 Z" fill="#000000" fill-rule="nonzero" fill-opacity="1" /><path clip-path="url(#clip450)" d="M863.969 1454.1 Q860.358 1454.1 858.529 1457.66 Q856.724 1461.2 856.724 1468.33 Q856.724 1475.44 858.529 1479.01 Q860.358 1482.55 863.969 1482.55 Q867.603 1482.55 869.409 1479.01 Q871.238 1475.44 871.238 1468.33 Q871.238 1461.2 869.409 1457.66 Q867.603 1454.1 863.969 1454.1 M863.969 1450.39 Q869.779 1450.39 872.835 1455 Q875.914 1459.58 875.914 1468.33 Q875.914 1477.06 872.835 1481.67 Q869.779 1486.25 863.969 1486.25 Q858.159 1486.25 855.08 1481.67 Q852.025 1477.06 852.025 1468.33 Q852.025 1459.58 855.08 1455 Q858.159 1450.39 863.969 1450.39 Z" fill="#000000" fill-rule="nonzero" fill-opacity="1" /><path clip-path="url(#clip450)" d="M884.131 1479.7 L889.015 1479.7 L889.015 1485.58 L884.131 1485.58 L884.131 1479.7 Z" fill="#000000" fill-rule="nonzero" fill-opacity="1" /><path clip-path="url(#clip450)" d="M899.339 1484.86 L899.339 1480.6 Q901.099 1481.44 902.904 1481.88 Q904.71 1482.32 906.446 1482.32 Q911.075 1482.32 913.506 1479.21 Q915.96 1476.09 916.307 1469.75 Q914.964 1471.74 912.904 1472.8 Q910.844 1473.87 908.344 1473.87 Q903.159 1473.87 900.126 1470.74 Q897.117 1467.59 897.117 1462.15 Q897.117 1456.83 900.265 1453.61 Q903.413 1450.39 908.645 1450.39 Q914.64 1450.39 917.788 1455 Q920.96 1459.58 920.96 1468.33 Q920.96 1476.51 917.071 1481.39 Q913.205 1486.25 906.654 1486.25 Q904.895 1486.25 903.089 1485.9 Q901.284 1485.56 899.339 1484.86 M908.645 1470.21 Q911.793 1470.21 913.622 1468.06 Q915.474 1465.9 915.474 1462.15 Q915.474 1458.43 913.622 1456.27 Q911.793 1454.1 908.645 1454.1 Q905.497 1454.1 903.645 1456.27 Q901.816 1458.43 901.816 1462.15 Q901.816 1465.9 903.645 1468.06 Q905.497 1470.21 908.645 1470.21 Z" fill="#000000" fill-rule="nonzero" fill-opacity="1" /><path clip-path="url(#clip450)" d="M939.362 1469.17 Q936.029 1469.17 934.108 1470.95 Q932.21 1472.73 932.21 1475.86 Q932.21 1478.98 934.108 1480.77 Q936.029 1482.55 939.362 1482.55 Q942.696 1482.55 944.617 1480.77 Q946.538 1478.96 946.538 1475.86 Q946.538 1472.73 944.617 1470.95 Q942.719 1469.17 939.362 1469.17 M934.686 1467.18 Q931.677 1466.44 929.987 1464.38 Q928.321 1462.32 928.321 1459.35 Q928.321 1455.21 931.261 1452.8 Q934.223 1450.39 939.362 1450.39 Q944.524 1450.39 947.464 1452.8 Q950.404 1455.21 950.404 1459.35 Q950.404 1462.32 948.714 1464.38 Q947.048 1466.44 944.061 1467.18 Q947.441 1467.96 949.316 1470.26 Q951.214 1472.55 951.214 1475.86 Q951.214 1480.88 948.135 1483.57 Q945.08 1486.25 939.362 1486.25 Q933.645 1486.25 930.566 1483.57 Q927.511 1480.88 927.511 1475.86 Q927.511 1472.55 929.409 1470.26 Q931.307 1467.96 934.686 1467.18 M932.974 1459.79 Q932.974 1462.48 934.64 1463.98 Q936.33 1465.49 939.362 1465.49 Q942.372 1465.49 944.061 1463.98 Q945.774 1462.48 945.774 1459.79 Q945.774 1457.11 944.061 1455.6 Q942.372 1454.1 939.362 1454.1 Q936.33 1454.1 934.64 1455.6 Q932.974 1457.11 932.974 1459.79 Z" fill="#000000" fill-rule="nonzero" fill-opacity="1" /><path clip-path="url(#clip450)" d="M1268.3 1481.64 L1275.94 1481.64 L1275.94 1455.28 L1267.63 1456.95 L1267.63 1452.69 L1275.89 1451.02 L1280.57 1451.02 L1280.57 1481.64 L1288.21 1481.64 L1288.21 1485.58 L1268.3 1485.58 L1268.3 1481.64 Z" fill="#000000" fill-rule="nonzero" fill-opacity="1" /><path clip-path="url(#clip450)" d="M1297.65 1479.7 L1302.54 1479.7 L1302.54 1485.58 L1297.65 1485.58 L1297.65 1479.7 Z" fill="#000000" fill-rule="nonzero" fill-opacity="1" /><path clip-path="url(#clip450)" d="M1322.72 1454.1 Q1319.11 1454.1 1317.28 1457.66 Q1315.48 1461.2 1315.48 1468.33 Q1315.48 1475.44 1317.28 1479.01 Q1319.11 1482.55 1322.72 1482.55 Q1326.36 1482.55 1328.16 1479.01 Q1329.99 1475.44 1329.99 1468.33 Q1329.99 1461.2 1328.16 1457.66 Q1326.36 1454.1 1322.72 1454.1 M1322.72 1450.39 Q1328.53 1450.39 1331.59 1455 Q1334.67 1459.58 1334.67 1468.33 Q1334.67 1477.06 1331.59 1481.67 Q1328.53 1486.25 1322.72 1486.25 Q1316.91 1486.25 1313.83 1481.67 Q1310.78 1477.06 1310.78 1468.33 Q1310.78 1459.58 1313.83 1455 Q1316.91 1450.39 1322.72 1450.39 Z" fill="#000000" fill-rule="nonzero" fill-opacity="1" /><path clip-path="url(#clip450)" d="M1352.88 1454.1 Q1349.27 1454.1 1347.45 1457.66 Q1345.64 1461.2 1345.64 1468.33 Q1345.64 1475.44 1347.45 1479.01 Q1349.27 1482.55 1352.88 1482.55 Q1356.52 1482.55 1358.32 1479.01 Q1360.15 1475.44 1360.15 1468.33 Q1360.15 1461.2 1358.32 1457.66 Q1356.52 1454.1 1352.88 1454.1 M1352.88 1450.39 Q1358.69 1450.39 1361.75 1455 Q1364.83 1459.58 1364.83 1468.33 Q1364.83 1477.06 1361.75 1481.67 Q1358.69 1486.25 1352.88 1486.25 Q1347.07 1486.25 1344 1481.67 Q1340.94 1477.06 1340.94 1468.33 Q1340.94 1459.58 1344 1455 Q1347.07 1450.39 1352.88 1450.39 Z" fill="#000000" fill-rule="nonzero" fill-opacity="1" /><path clip-path="url(#clip450)" d="M1683.71 1481.64 L1691.35 1481.64 L1691.35 1455.28 L1683.04 1456.95 L1683.04 1452.69 L1691.3 1451.02 L1695.98 1451.02 L1695.98 1481.64 L1703.62 1481.64 L1703.62 1485.58 L1683.71 1485.58 L1683.71 1481.64 Z" fill="#000000" fill-rule="nonzero" fill-opacity="1" /><path clip-path="url(#clip450)" d="M1713.06 1479.7 L1717.95 1479.7 L1717.95 1485.58 L1713.06 1485.58 L1713.06 1479.7 Z" fill="#000000" fill-rule="nonzero" fill-opacity="1" /><path clip-path="url(#clip450)" d="M1738.13 1454.1 Q1734.52 1454.1 1732.69 1457.66 Q1730.89 1461.2 1730.89 1468.33 Q1730.89 1475.44 1732.69 1479.01 Q1734.52 1482.55 1738.13 1482.55 Q1741.77 1482.55 1743.57 1479.01 Q1745.4 1475.44 1745.4 1468.33 Q1745.4 1461.2 1743.57 1457.66 Q1741.77 1454.1 1738.13 1454.1 M1738.13 1450.39 Q1743.94 1450.39 1747 1455 Q1750.08 1459.58 1750.08 1468.33 Q1750.08 1477.06 1747 1481.67 Q1743.94 1486.25 1738.13 1486.25 Q1732.32 1486.25 1729.24 1481.67 Q1726.19 1477.06 1726.19 1468.33 Q1726.19 1459.58 1729.24 1455 Q1732.32 1450.39 1738.13 1450.39 Z" fill="#000000" fill-rule="nonzero" fill-opacity="1" /><path clip-path="url(#clip450)" d="M1762.32 1481.64 L1778.64 1481.64 L1778.64 1485.58 L1756.7 1485.58 L1756.7 1481.64 Q1759.36 1478.89 1763.94 1474.26 Q1768.55 1469.61 1769.73 1468.27 Q1771.97 1465.74 1772.85 1464.01 Q1773.76 1462.25 1773.76 1460.56 Q1773.76 1457.8 1771.81 1456.07 Q1769.89 1454.33 1766.79 1454.33 Q1764.59 1454.33 1762.14 1455.09 Q1759.71 1455.86 1756.93 1457.41 L1756.93 1452.69 Q1759.75 1451.55 1762.21 1450.97 Q1764.66 1450.39 1766.7 1450.39 Q1772.07 1450.39 1775.26 1453.08 Q1778.46 1455.77 1778.46 1460.26 Q1778.46 1462.39 1777.65 1464.31 Q1776.86 1466.2 1774.75 1468.8 Q1774.17 1469.47 1771.07 1472.69 Q1767.97 1475.88 1762.32 1481.64 Z" fill="#000000" fill-rule="nonzero" fill-opacity="1" /><path clip-path="url(#clip450)" d="M2097.28 1481.64 L2104.92 1481.64 L2104.92 1455.28 L2096.61 1456.95 L2096.61 1452.69 L2104.87 1451.02 L2109.55 1451.02 L2109.55 1481.64 L2117.19 1481.64 L2117.19 1485.58 L2097.28 1485.58 L2097.28 1481.64 Z" fill="#000000" fill-rule="nonzero" fill-opacity="1" /><path clip-path="url(#clip450)" d="M2126.63 1479.7 L2131.52 1479.7 L2131.52 1485.58 L2126.63 1485.58 L2126.63 1479.7 Z" fill="#000000" fill-rule="nonzero" fill-opacity="1" /><path clip-path="url(#clip450)" d="M2151.7 1454.1 Q2148.09 1454.1 2146.26 1457.66 Q2144.46 1461.2 2144.46 1468.33 Q2144.46 1475.44 2146.26 1479.01 Q2148.09 1482.55 2151.7 1482.55 Q2155.33 1482.55 2157.14 1479.01 Q2158.97 1475.44 2158.97 1468.33 Q2158.97 1461.2 2157.14 1457.66 Q2155.33 1454.1 2151.7 1454.1 M2151.7 1450.39 Q2157.51 1450.39 2160.57 1455 Q2163.65 1459.58 2163.65 1468.33 Q2163.65 1477.06 2160.57 1481.67 Q2157.51 1486.25 2151.7 1486.25 Q2145.89 1486.25 2142.81 1481.67 Q2139.76 1477.06 2139.76 1468.33 Q2139.76 1459.58 2142.81 1455 Q2145.89 1450.39 2151.7 1450.39 Z" fill="#000000" fill-rule="nonzero" fill-opacity="1" /><path clip-path="url(#clip450)" d="M2184.71 1455.09 L2172.9 1473.54 L2184.71 1473.54 L2184.71 1455.09 M2183.48 1451.02 L2189.36 1451.02 L2189.36 1473.54 L2194.29 1473.54 L2194.29 1477.43 L2189.36 1477.43 L2189.36 1485.58 L2184.71 1485.58 L2184.71 1477.43 L2169.11 1477.43 L2169.11 1472.92 L2183.48 1451.02 Z" fill="#000000" fill-rule="nonzero" fill-opacity="1" /><path clip-path="url(#clip450)" d="M1332.84 1532.4 L1319.95 1549.74 L1333.51 1568.04 L1326.61 1568.04 L1316.23 1554.04 L1305.85 1568.04 L1298.95 1568.04 L1312.79 1549.39 L1300.12 1532.4 L1307.03 1532.4 L1316.48 1545.1 L1325.94 1532.4 L1332.84 1532.4 Z" fill="#000000" fill-rule="nonzero" fill-opacity="1" /><polyline clip-path="url(#clip452)" style="stroke:#000000; stroke-linecap:round; stroke-linejoin:round; stroke-width:2; stroke-opacity:0.1; fill:none" points="279.704,1386.4 2352.76,1386.4 "/>
<polyline clip-path="url(#clip452)" style="stroke:#000000; stroke-linecap:round; stroke-linejoin:round; stroke-width:2; stroke-opacity:0.1; fill:none" points="279.704,1011.55 2352.76,1011.55 "/>
<polyline clip-path="url(#clip452)" style="stroke:#000000; stroke-linecap:round; stroke-linejoin:round; stroke-width:2; stroke-opacity:0.1; fill:none" points="279.704,636.714 2352.76,636.714 "/>
<polyline clip-path="url(#clip452)" style="stroke:#000000; stroke-linecap:round; stroke-linejoin:round; stroke-width:2; stroke-opacity:0.1; fill:none" points="279.704,261.873 2352.76,261.873 "/>
<polyline clip-path="url(#clip450)" style="stroke:#000000; stroke-linecap:round; stroke-linejoin:round; stroke-width:4; stroke-opacity:1; fill:none" points="279.704,1423.18 279.704,123.472 "/>
<polyline clip-path="url(#clip450)" style="stroke:#000000; stroke-linecap:round; stroke-linejoin:round; stroke-width:4; stroke-opacity:1; fill:none" points="279.704,1386.4 298.602,1386.4 "/>
<polyline clip-path="url(#clip450)" style="stroke:#000000; stroke-linecap:round; stroke-linejoin:round; stroke-width:4; stroke-opacity:1; fill:none" points="279.704,1011.55 298.602,1011.55 "/>
<polyline clip-path="url(#clip450)" style="stroke:#000000; stroke-linecap:round; stroke-linejoin:round; stroke-width:4; stroke-opacity:1; fill:none" points="279.704,636.714 298.602,636.714 "/>
<polyline clip-path="url(#clip450)" style="stroke:#000000; stroke-linecap:round; stroke-linejoin:round; stroke-width:4; stroke-opacity:1; fill:none" points="279.704,261.873 298.602,261.873 "/>
<path clip-path="url(#clip450)" d="M126.205 1372.19 Q122.593 1372.19 120.765 1375.76 Q118.959 1379.3 118.959 1386.43 Q118.959 1393.54 120.765 1397.1 Q122.593 1400.64 126.205 1400.64 Q129.839 1400.64 131.644 1397.1 Q133.473 1393.54 133.473 1386.43 Q133.473 1379.3 131.644 1375.76 Q129.839 1372.19 126.205 1372.19 M126.205 1368.49 Q132.015 1368.49 135.07 1373.1 Q138.149 1377.68 138.149 1386.43 Q138.149 1395.16 135.07 1399.76 Q132.015 1404.35 126.205 1404.35 Q120.394 1404.35 117.316 1399.76 Q114.26 1395.16 114.26 1386.43 Q114.26 1377.68 117.316 1373.1 Q120.394 1368.49 126.205 1368.49 Z" fill="#000000" fill-rule="nonzero" fill-opacity="1" /><path clip-path="url(#clip450)" d="M146.366 1397.8 L151.251 1397.8 L151.251 1403.68 L146.366 1403.68 L146.366 1397.8 Z" fill="#000000" fill-rule="nonzero" fill-opacity="1" /><path clip-path="url(#clip450)" d="M171.436 1372.19 Q167.825 1372.19 165.996 1375.76 Q164.19 1379.3 164.19 1386.43 Q164.19 1393.54 165.996 1397.1 Q167.825 1400.64 171.436 1400.64 Q175.07 1400.64 176.876 1397.1 Q178.704 1393.54 178.704 1386.43 Q178.704 1379.3 176.876 1375.76 Q175.07 1372.19 171.436 1372.19 M171.436 1368.49 Q177.246 1368.49 180.301 1373.1 Q183.38 1377.68 183.38 1386.43 Q183.38 1395.16 180.301 1399.76 Q177.246 1404.35 171.436 1404.35 Q165.626 1404.35 162.547 1399.76 Q159.491 1395.16 159.491 1386.43 Q159.491 1377.68 162.547 1373.1 Q165.626 1368.49 171.436 1368.49 Z" fill="#000000" fill-rule="nonzero" fill-opacity="1" /><path clip-path="url(#clip450)" d="M201.598 1372.19 Q197.987 1372.19 196.158 1375.76 Q194.352 1379.3 194.352 1386.43 Q194.352 1393.54 196.158 1397.1 Q197.987 1400.64 201.598 1400.64 Q205.232 1400.64 207.037 1397.1 Q208.866 1393.54 208.866 1386.43 Q208.866 1379.3 207.037 1375.76 Q205.232 1372.19 201.598 1372.19 M201.598 1368.49 Q207.408 1368.49 210.463 1373.1 Q213.542 1377.68 213.542 1386.43 Q213.542 1395.16 210.463 1399.76 Q207.408 1404.35 201.598 1404.35 Q195.787 1404.35 192.709 1399.76 Q189.653 1395.16 189.653 1386.43 Q189.653 1377.68 192.709 1373.1 Q195.787 1368.49 201.598 1368.49 Z" fill="#000000" fill-rule="nonzero" fill-opacity="1" /><path clip-path="url(#clip450)" d="M231.76 1372.19 Q228.148 1372.19 226.32 1375.76 Q224.514 1379.3 224.514 1386.43 Q224.514 1393.54 226.32 1397.1 Q228.148 1400.64 231.76 1400.64 Q235.394 1400.64 237.199 1397.1 Q239.028 1393.54 239.028 1386.43 Q239.028 1379.3 237.199 1375.76 Q235.394 1372.19 231.76 1372.19 M231.76 1368.49 Q237.57 1368.49 240.625 1373.1 Q243.704 1377.68 243.704 1386.43 Q243.704 1395.16 240.625 1399.76 Q237.57 1404.35 231.76 1404.35 Q225.949 1404.35 222.871 1399.76 Q219.815 1395.16 219.815 1386.43 Q219.815 1377.68 222.871 1373.1 Q225.949 1368.49 231.76 1368.49 Z" fill="#000000" fill-rule="nonzero" fill-opacity="1" /><path clip-path="url(#clip450)" d="M127.431 997.354 Q123.82 997.354 121.992 1000.92 Q120.186 1004.46 120.186 1011.59 Q120.186 1018.7 121.992 1022.26 Q123.82 1025.8 127.431 1025.8 Q131.066 1025.8 132.871 1022.26 Q134.7 1018.7 134.7 1011.59 Q134.7 1004.46 132.871 1000.92 Q131.066 997.354 127.431 997.354 M127.431 993.65 Q133.242 993.65 136.297 998.256 Q139.376 1002.84 139.376 1011.59 Q139.376 1020.32 136.297 1024.92 Q133.242 1029.51 127.431 1029.51 Q121.621 1029.51 118.543 1024.92 Q115.487 1020.32 115.487 1011.59 Q115.487 1002.84 118.543 998.256 Q121.621 993.65 127.431 993.65 Z" fill="#000000" fill-rule="nonzero" fill-opacity="1" /><path clip-path="url(#clip450)" d="M147.593 1022.96 L152.478 1022.96 L152.478 1028.83 L147.593 1028.83 L147.593 1022.96 Z" fill="#000000" fill-rule="nonzero" fill-opacity="1" /><path clip-path="url(#clip450)" d="M172.663 997.354 Q169.052 997.354 167.223 1000.92 Q165.417 1004.46 165.417 1011.59 Q165.417 1018.7 167.223 1022.26 Q169.052 1025.8 172.663 1025.8 Q176.297 1025.8 178.102 1022.26 Q179.931 1018.7 179.931 1011.59 Q179.931 1004.46 178.102 1000.92 Q176.297 997.354 172.663 997.354 M172.663 993.65 Q178.473 993.65 181.528 998.256 Q184.607 1002.84 184.607 1011.59 Q184.607 1020.32 181.528 1024.92 Q178.473 1029.51 172.663 1029.51 Q166.852 1029.51 163.774 1024.92 Q160.718 1020.32 160.718 1011.59 Q160.718 1002.84 163.774 998.256 Q166.852 993.65 172.663 993.65 Z" fill="#000000" fill-rule="nonzero" fill-opacity="1" /><path clip-path="url(#clip450)" d="M202.824 997.354 Q199.213 997.354 197.385 1000.92 Q195.579 1004.46 195.579 1011.59 Q195.579 1018.7 197.385 1022.26 Q199.213 1025.8 202.824 1025.8 Q206.459 1025.8 208.264 1022.26 Q210.093 1018.7 210.093 1011.59 Q210.093 1004.46 208.264 1000.92 Q206.459 997.354 202.824 997.354 M202.824 993.65 Q208.635 993.65 211.69 998.256 Q214.769 1002.84 214.769 1011.59 Q214.769 1020.32 211.69 1024.92 Q208.635 1029.51 202.824 1029.51 Q197.014 1029.51 193.936 1024.92 Q190.88 1020.32 190.88 1011.59 Q190.88 1002.84 193.936 998.256 Q197.014 993.65 202.824 993.65 Z" fill="#000000" fill-rule="nonzero" fill-opacity="1" /><path clip-path="url(#clip450)" d="M223.797 1024.9 L231.435 1024.9 L231.435 998.534 L223.125 1000.2 L223.125 995.942 L231.389 994.275 L236.065 994.275 L236.065 1024.9 L243.704 1024.9 L243.704 1028.83 L223.797 1028.83 L223.797 1024.9 Z" fill="#000000" fill-rule="nonzero" fill-opacity="1" /><path clip-path="url(#clip450)" d="M127.802 622.513 Q124.191 622.513 122.362 626.078 Q120.556 629.619 120.556 636.749 Q120.556 643.855 122.362 647.42 Q124.191 650.962 127.802 650.962 Q131.436 650.962 133.242 647.42 Q135.07 643.855 135.07 636.749 Q135.07 629.619 133.242 626.078 Q131.436 622.513 127.802 622.513 M127.802 618.809 Q133.612 618.809 136.667 623.416 Q139.746 627.999 139.746 636.749 Q139.746 645.476 136.667 650.082 Q133.612 654.665 127.802 654.665 Q121.992 654.665 118.913 650.082 Q115.857 645.476 115.857 636.749 Q115.857 627.999 118.913 623.416 Q121.992 618.809 127.802 618.809 Z" fill="#000000" fill-rule="nonzero" fill-opacity="1" /><path clip-path="url(#clip450)" d="M147.964 648.115 L152.848 648.115 L152.848 653.994 L147.964 653.994 L147.964 648.115 Z" fill="#000000" fill-rule="nonzero" fill-opacity="1" /><path clip-path="url(#clip450)" d="M173.033 622.513 Q169.422 622.513 167.593 626.078 Q165.788 629.619 165.788 636.749 Q165.788 643.855 167.593 647.42 Q169.422 650.962 173.033 650.962 Q176.667 650.962 178.473 647.42 Q180.301 643.855 180.301 636.749 Q180.301 629.619 178.473 626.078 Q176.667 622.513 173.033 622.513 M173.033 618.809 Q178.843 618.809 181.899 623.416 Q184.977 627.999 184.977 636.749 Q184.977 645.476 181.899 650.082 Q178.843 654.665 173.033 654.665 Q167.223 654.665 164.144 650.082 Q161.089 645.476 161.089 636.749 Q161.089 627.999 164.144 623.416 Q167.223 618.809 173.033 618.809 Z" fill="#000000" fill-rule="nonzero" fill-opacity="1" /><path clip-path="url(#clip450)" d="M203.195 622.513 Q199.584 622.513 197.755 626.078 Q195.95 629.619 195.95 636.749 Q195.95 643.855 197.755 647.42 Q199.584 650.962 203.195 650.962 Q206.829 650.962 208.635 647.42 Q210.463 643.855 210.463 636.749 Q210.463 629.619 208.635 626.078 Q206.829 622.513 203.195 622.513 M203.195 618.809 Q209.005 618.809 212.061 623.416 Q215.139 627.999 215.139 636.749 Q215.139 645.476 212.061 650.082 Q209.005 654.665 203.195 654.665 Q197.385 654.665 194.306 650.082 Q191.25 645.476 191.25 636.749 Q191.25 627.999 194.306 623.416 Q197.385 618.809 203.195 618.809 Z" fill="#000000" fill-rule="nonzero" fill-opacity="1" /><path clip-path="url(#clip450)" d="M227.385 650.059 L243.704 650.059 L243.704 653.994 L221.76 653.994 L221.76 650.059 Q224.422 647.304 229.005 642.675 Q233.611 638.022 234.792 636.679 Q237.037 634.156 237.917 632.42 Q238.82 630.661 238.82 628.971 Q238.82 626.217 236.875 624.48 Q234.954 622.744 231.852 622.744 Q229.653 622.744 227.199 623.508 Q224.769 624.272 221.991 625.823 L221.991 621.101 Q224.815 619.967 227.269 619.388 Q229.723 618.809 231.76 618.809 Q237.13 618.809 240.324 621.494 Q243.519 624.18 243.519 628.67 Q243.519 630.8 242.709 632.721 Q241.922 634.619 239.815 637.212 Q239.236 637.883 236.135 641.101 Q233.033 644.295 227.385 650.059 Z" fill="#000000" fill-rule="nonzero" fill-opacity="1" /><path clip-path="url(#clip450)" d="M126.853 247.672 Q123.242 247.672 121.413 251.237 Q119.607 254.779 119.607 261.908 Q119.607 269.015 121.413 272.579 Q123.242 276.121 126.853 276.121 Q130.487 276.121 132.292 272.579 Q134.121 269.015 134.121 261.908 Q134.121 254.779 132.292 251.237 Q130.487 247.672 126.853 247.672 M126.853 243.968 Q132.663 243.968 135.718 248.575 Q138.797 253.158 138.797 261.908 Q138.797 270.635 135.718 275.241 Q132.663 279.825 126.853 279.825 Q121.043 279.825 117.964 275.241 Q114.908 270.635 114.908 261.908 Q114.908 253.158 117.964 248.575 Q121.043 243.968 126.853 243.968 Z" fill="#000000" fill-rule="nonzero" fill-opacity="1" /><path clip-path="url(#clip450)" d="M147.015 273.274 L151.899 273.274 L151.899 279.153 L147.015 279.153 L147.015 273.274 Z" fill="#000000" fill-rule="nonzero" fill-opacity="1" /><path clip-path="url(#clip450)" d="M172.084 247.672 Q168.473 247.672 166.644 251.237 Q164.839 254.779 164.839 261.908 Q164.839 269.015 166.644 272.579 Q168.473 276.121 172.084 276.121 Q175.718 276.121 177.524 272.579 Q179.352 269.015 179.352 261.908 Q179.352 254.779 177.524 251.237 Q175.718 247.672 172.084 247.672 M172.084 243.968 Q177.894 243.968 180.95 248.575 Q184.028 253.158 184.028 261.908 Q184.028 270.635 180.95 275.241 Q177.894 279.825 172.084 279.825 Q166.274 279.825 163.195 275.241 Q160.14 270.635 160.14 261.908 Q160.14 253.158 163.195 248.575 Q166.274 243.968 172.084 243.968 Z" fill="#000000" fill-rule="nonzero" fill-opacity="1" /><path clip-path="url(#clip450)" d="M202.246 247.672 Q198.635 247.672 196.806 251.237 Q195 254.779 195 261.908 Q195 269.015 196.806 272.579 Q198.635 276.121 202.246 276.121 Q205.88 276.121 207.686 272.579 Q209.514 269.015 209.514 261.908 Q209.514 254.779 207.686 251.237 Q205.88 247.672 202.246 247.672 M202.246 243.968 Q208.056 243.968 211.111 248.575 Q214.19 253.158 214.19 261.908 Q214.19 270.635 211.111 275.241 Q208.056 279.825 202.246 279.825 Q196.436 279.825 193.357 275.241 Q190.301 270.635 190.301 261.908 Q190.301 253.158 193.357 248.575 Q196.436 243.968 202.246 243.968 Z" fill="#000000" fill-rule="nonzero" fill-opacity="1" /><path clip-path="url(#clip450)" d="M236.574 260.519 Q239.931 261.237 241.806 263.505 Q243.704 265.774 243.704 269.107 Q243.704 274.223 240.185 277.024 Q236.667 279.825 230.185 279.825 Q228.01 279.825 225.695 279.385 Q223.403 278.968 220.949 278.112 L220.949 273.598 Q222.894 274.732 225.209 275.311 Q227.523 275.89 230.047 275.89 Q234.445 275.89 236.736 274.153 Q239.051 272.417 239.051 269.107 Q239.051 266.052 236.898 264.339 Q234.769 262.603 230.949 262.603 L226.922 262.603 L226.922 258.76 L231.135 258.76 Q234.584 258.76 236.412 257.394 Q238.241 256.005 238.241 253.413 Q238.241 250.751 236.343 249.339 Q234.468 247.904 230.949 247.904 Q229.028 247.904 226.829 248.32 Q224.63 248.737 221.991 249.617 L221.991 245.45 Q224.653 244.709 226.968 244.339 Q229.306 243.968 231.366 243.968 Q236.69 243.968 239.792 246.399 Q242.894 248.806 242.894 252.927 Q242.894 255.797 241.25 257.788 Q239.607 259.755 236.574 260.519 Z" fill="#000000" fill-rule="nonzero" fill-opacity="1" /><path clip-path="url(#clip450)" d="M16.4842 925.673 L16.4842 919.244 L64.0042 919.244 L64.0042 925.673 L16.4842 925.673 Z" fill="#000000" fill-rule="nonzero" fill-opacity="1" /><path clip-path="url(#clip450)" d="M42.4881 877.071 L64.0042 877.071 L64.0042 882.928 L42.679 882.928 Q37.6183 882.928 35.1038 884.901 Q32.5894 886.874 32.5894 890.821 Q32.5894 895.563 35.6131 898.301 Q38.6368 901.038 43.8567 901.038 L64.0042 901.038 L64.0042 906.926 L28.3562 906.926 L28.3562 901.038 L33.8944 901.038 Q30.6797 898.937 29.0883 896.105 Q27.4968 893.24 27.4968 889.516 Q27.4968 883.373 31.3163 880.222 Q35.1038 877.071 42.4881 877.071 Z" fill="#000000" fill-rule="nonzero" fill-opacity="1" /><path clip-path="url(#clip450)" d="M18.2347 859.597 L28.3562 859.597 L28.3562 847.534 L32.9077 847.534 L32.9077 859.597 L52.2594 859.597 Q56.6199 859.597 57.8613 858.42 Q59.1026 857.21 59.1026 853.55 L59.1026 847.534 L64.0042 847.534 L64.0042 853.55 Q64.0042 860.329 61.4897 862.907 Q58.9434 865.486 52.2594 865.486 L32.9077 865.486 L32.9077 869.782 L28.3562 869.782 L28.3562 865.486 L18.2347 865.486 L18.2347 859.597 Z" fill="#000000" fill-rule="nonzero" fill-opacity="1" /><path clip-path="url(#clip450)" d="M44.7161 809.34 L47.5806 809.34 L47.5806 836.267 Q53.6281 835.885 56.8109 832.638 Q59.9619 829.36 59.9619 823.535 Q59.9619 820.162 59.1344 817.011 Q58.3069 813.828 56.6518 810.709 L62.1899 810.709 Q63.5267 813.86 64.227 817.17 Q64.9272 820.48 64.9272 823.886 Q64.9272 832.416 59.9619 837.413 Q54.9967 842.378 46.5303 842.378 Q37.7774 842.378 32.6531 837.667 Q27.4968 832.925 27.4968 824.904 Q27.4968 817.711 32.1438 813.541 Q36.7589 809.34 44.7161 809.34 M42.9973 815.196 Q38.1912 815.26 35.3266 817.902 Q32.4621 820.512 32.4621 824.84 Q32.4621 829.742 35.2312 832.702 Q38.0002 835.63 43.0292 836.076 L42.9973 815.196 Z" fill="#000000" fill-rule="nonzero" fill-opacity="1" /><path clip-path="url(#clip450)" d="M45.7664 776.27 Q39.4007 776.27 35.8996 778.912 Q32.3984 781.522 32.3984 786.264 Q32.3984 790.975 35.8996 793.617 Q39.4007 796.227 45.7664 796.227 Q52.1003 796.227 55.6014 793.617 Q59.1026 790.975 59.1026 786.264 Q59.1026 781.522 55.6014 778.912 Q52.1003 776.27 45.7664 776.27 M59.58 770.414 Q68.683 770.414 73.1071 774.456 Q77.5631 778.498 77.5631 786.837 Q77.5631 789.925 77.0857 792.662 Q76.6401 795.399 75.6852 797.977 L69.9879 797.977 Q71.3884 795.399 72.0568 792.885 Q72.7252 790.37 72.7252 787.76 Q72.7252 781.999 69.7015 779.135 Q66.7096 776.27 60.6303 776.27 L57.7339 776.27 Q60.885 778.084 62.4446 780.917 Q64.0042 783.75 64.0042 787.697 Q64.0042 794.253 59.0071 798.264 Q54.01 802.274 45.7664 802.274 Q37.491 802.274 32.4939 798.264 Q27.4968 794.253 27.4968 787.697 Q27.4968 783.75 29.0564 780.917 Q30.616 778.084 33.7671 776.27 L28.3562 776.27 L28.3562 770.414 L59.58 770.414 Z" fill="#000000" fill-rule="nonzero" fill-opacity="1" /><path clip-path="url(#clip450)" d="M33.8307 737.694 Q33.2578 738.681 33.0032 739.858 Q32.7167 741.004 32.7167 742.405 Q32.7167 747.37 35.9632 750.043 Q39.1779 752.685 45.2253 752.685 L64.0042 752.685 L64.0042 758.573 L28.3562 758.573 L28.3562 752.685 L33.8944 752.685 Q30.6479 750.839 29.0883 747.879 Q27.4968 744.919 27.4968 740.686 Q27.4968 740.081 27.5923 739.349 Q27.656 738.617 27.8151 737.726 L33.8307 737.694 Z" fill="#000000" fill-rule="nonzero" fill-opacity="1" /><path clip-path="url(#clip450)" d="M46.0847 715.35 Q46.0847 722.448 47.7079 725.185 Q49.3312 727.923 53.2461 727.923 Q56.3653 727.923 58.2114 725.886 Q60.0256 723.817 60.0256 720.284 Q60.0256 715.414 56.5881 712.486 Q53.1188 709.526 47.3897 709.526 L46.0847 709.526 L46.0847 715.35 M43.6657 703.669 L64.0042 703.669 L64.0042 709.526 L58.5933 709.526 Q61.8398 711.531 63.3994 714.523 Q64.9272 717.515 64.9272 721.843 Q64.9272 727.318 61.8716 730.564 Q58.7843 733.779 53.6281 733.779 Q47.6125 733.779 44.5569 729.769 Q41.5014 725.726 41.5014 717.737 L41.5014 709.526 L40.9285 709.526 Q36.8862 709.526 34.6901 712.199 Q32.4621 714.841 32.4621 719.647 Q32.4621 722.703 33.1941 725.599 Q33.9262 728.495 35.3903 731.169 L29.9795 731.169 Q28.7381 727.954 28.1334 724.931 Q27.4968 721.907 27.4968 719.042 Q27.4968 711.308 31.5072 707.489 Q35.5176 703.669 43.6657 703.669 Z" fill="#000000" fill-rule="nonzero" fill-opacity="1" /><path clip-path="url(#clip450)" d="M42.4881 661.974 L64.0042 661.974 L64.0042 667.83 L42.679 667.83 Q37.6183 667.83 35.1038 669.804 Q32.5894 671.777 32.5894 675.724 Q32.5894 680.466 35.6131 683.203 Q38.6368 685.941 43.8567 685.941 L64.0042 685.941 L64.0042 691.829 L28.3562 691.829 L28.3562 685.941 L33.8944 685.941 Q30.6797 683.84 29.0883 681.007 Q27.4968 678.143 27.4968 674.419 Q27.4968 668.276 31.3163 665.125 Q35.1038 661.974 42.4881 661.974 Z" fill="#000000" fill-rule="nonzero" fill-opacity="1" /><path clip-path="url(#clip450)" d="M33.7671 626.835 L14.479 626.835 L14.479 620.979 L64.0042 620.979 L64.0042 626.835 L58.657 626.835 Q61.8398 628.681 63.3994 631.514 Q64.9272 634.315 64.9272 638.262 Q64.9272 644.723 59.771 648.797 Q54.6147 652.839 46.212 652.839 Q37.8093 652.839 32.6531 648.797 Q27.4968 644.723 27.4968 638.262 Q27.4968 634.315 29.0564 631.514 Q30.5842 628.681 33.7671 626.835 M46.212 646.792 Q52.6732 646.792 56.3653 644.15 Q60.0256 641.476 60.0256 636.829 Q60.0256 632.182 56.3653 629.509 Q52.6732 626.835 46.212 626.835 Q39.7508 626.835 36.0905 629.509 Q32.3984 632.182 32.3984 636.829 Q32.3984 641.476 36.0905 644.15 Q39.7508 646.792 46.212 646.792 Z" fill="#000000" fill-rule="nonzero" fill-opacity="1" /><path clip-path="url(#clip450)" d="M927.89 20.1573 L916.79 50.2555 L939.03 50.2555 L927.89 20.1573 M923.272 12.096 L932.549 12.096 L955.598 72.576 L947.091 72.576 L941.582 57.061 L914.319 57.061 L908.81 72.576 L900.182 72.576 L923.272 12.096 Z" fill="#000000" fill-rule="nonzero" fill-opacity="1" /><path clip-path="url(#clip450)" d="M1001.82 45.1919 L1001.82 72.576 L994.365 72.576 L994.365 45.4349 Q994.365 38.994 991.854 35.7938 Q989.342 32.5936 984.319 32.5936 Q978.283 32.5936 974.799 36.4419 Q971.316 40.2903 971.316 46.9338 L971.316 72.576 L963.821 72.576 L963.821 27.2059 L971.316 27.2059 L971.316 34.2544 Q973.989 30.163 977.595 28.1376 Q981.24 26.1121 985.98 26.1121 Q993.798 26.1121 997.809 30.9732 Q1001.82 35.7938 1001.82 45.1919 Z" fill="#000000" fill-rule="nonzero" fill-opacity="1" /><path clip-path="url(#clip450)" d="M1013.45 27.2059 L1048.85 27.2059 L1048.85 34.0114 L1020.82 66.6212 L1048.85 66.6212 L1048.85 72.576 L1012.43 72.576 L1012.43 65.7705 L1040.46 33.1607 L1013.45 33.1607 L1013.45 27.2059 Z" fill="#000000" fill-rule="nonzero" fill-opacity="1" /><path clip-path="url(#clip450)" d="M1099.04 48.0275 L1099.04 51.6733 L1064.77 51.6733 Q1065.26 59.3701 1069.39 63.421 Q1073.56 67.4314 1080.97 67.4314 Q1085.27 67.4314 1089.28 66.3781 Q1093.33 65.3249 1097.3 63.2184 L1097.3 70.267 Q1093.29 71.9684 1089.08 72.8596 Q1084.86 73.7508 1080.53 73.7508 Q1069.67 73.7508 1063.31 67.4314 Q1056.99 61.1119 1056.99 50.3365 Q1056.99 39.1965 1062.99 32.6746 Q1069.02 26.1121 1079.23 26.1121 Q1088.39 26.1121 1093.69 32.0264 Q1099.04 37.9003 1099.04 48.0275 M1091.59 45.84 Q1091.51 39.7232 1088.14 36.0774 Q1084.82 32.4315 1079.31 32.4315 Q1073.07 32.4315 1069.31 35.9558 Q1065.58 39.4801 1065.01 45.8805 L1091.59 45.84 Z" fill="#000000" fill-rule="nonzero" fill-opacity="1" /><path clip-path="url(#clip450)" d="M1111.27 9.54393 L1118.73 9.54393 L1118.73 72.576 L1111.27 72.576 L1111.27 9.54393 Z" fill="#000000" fill-rule="nonzero" fill-opacity="1" /><path clip-path="url(#clip450)" d="M1134.32 27.2059 L1141.78 27.2059 L1141.78 72.576 L1134.32 72.576 L1134.32 27.2059 M1134.32 9.54393 L1141.78 9.54393 L1141.78 18.9825 L1134.32 18.9825 L1134.32 9.54393 Z" fill="#000000" fill-rule="nonzero" fill-opacity="1" /><path clip-path="url(#clip450)" d="M1156.6 54.671 L1156.6 27.2059 L1164.06 27.2059 L1164.06 54.3874 Q1164.06 60.8284 1166.57 64.0691 Q1169.08 67.2693 1174.1 67.2693 Q1180.14 67.2693 1183.62 63.421 Q1187.15 59.5726 1187.15 52.9291 L1187.15 27.2059 L1194.6 27.2059 L1194.6 72.576 L1187.15 72.576 L1187.15 65.6084 Q1184.43 69.7404 1180.83 71.7658 Q1177.26 73.7508 1172.52 73.7508 Q1164.71 73.7508 1160.65 68.8897 Q1156.6 64.0286 1156.6 54.671 M1175.36 26.1121 L1175.36 26.1121 Z" fill="#000000" fill-rule="nonzero" fill-opacity="1" /><path clip-path="url(#clip450)" d="M1238.88 28.5427 L1238.88 35.5912 Q1235.72 33.9709 1232.32 33.1607 Q1228.91 32.3505 1225.27 32.3505 Q1219.72 32.3505 1216.92 34.0519 Q1214.17 35.7533 1214.17 39.156 Q1214.17 41.7486 1216.15 43.2475 Q1218.14 44.7058 1224.13 46.0426 L1226.68 46.6097 Q1234.62 48.3111 1237.95 51.4303 Q1241.31 54.509 1241.31 60.0587 Q1241.31 66.3781 1236.29 70.0644 Q1231.3 73.7508 1222.55 73.7508 Q1218.91 73.7508 1214.94 73.0216 Q1211.01 72.3329 1206.63 70.9151 L1206.63 63.2184 Q1210.76 65.3654 1214.78 66.4591 Q1218.79 67.5124 1222.71 67.5124 Q1227.98 67.5124 1230.82 65.73 Q1233.65 63.9071 1233.65 60.6258 Q1233.65 57.5877 1231.59 55.9673 Q1229.56 54.3469 1222.63 52.8481 L1220.04 52.2405 Q1213.11 50.7821 1210.04 47.7845 Q1206.96 44.7463 1206.96 39.4801 Q1206.96 33.0797 1211.49 29.5959 Q1216.03 26.1121 1224.38 26.1121 Q1228.51 26.1121 1232.15 26.7198 Q1235.8 27.3274 1238.88 28.5427 Z" fill="#000000" fill-rule="nonzero" fill-opacity="1" /><path clip-path="url(#clip450)" d="M1260.23 12.096 L1260.23 34.5785 L1253.34 34.5785 L1253.34 12.096 L1260.23 12.096 Z" fill="#000000" fill-rule="nonzero" fill-opacity="1" /><path clip-path="url(#clip450)" d="M1304.91 28.5427 L1304.91 35.5912 Q1301.75 33.9709 1298.35 33.1607 Q1294.94 32.3505 1291.3 32.3505 Q1285.75 32.3505 1282.95 34.0519 Q1280.2 35.7533 1280.2 39.156 Q1280.2 41.7486 1282.18 43.2475 Q1284.17 44.7058 1290.16 46.0426 L1292.71 46.6097 Q1300.65 48.3111 1303.98 51.4303 Q1307.34 54.509 1307.34 60.0587 Q1307.34 66.3781 1302.32 70.0644 Q1297.33 73.7508 1288.58 73.7508 Q1284.94 73.7508 1280.97 73.0216 Q1277.04 72.3329 1272.66 70.9151 L1272.66 63.2184 Q1276.79 65.3654 1280.8 66.4591 Q1284.82 67.5124 1288.74 67.5124 Q1294.01 67.5124 1296.85 65.73 Q1299.68 63.9071 1299.68 60.6258 Q1299.68 57.5877 1297.62 55.9673 Q1295.59 54.3469 1288.66 52.8481 L1286.07 52.2405 Q1279.14 50.7821 1276.07 47.7845 Q1272.99 44.7463 1272.99 39.4801 Q1272.99 33.0797 1277.52 29.5959 Q1282.06 26.1121 1290.41 26.1121 Q1294.54 26.1121 1298.18 26.7198 Q1301.83 27.3274 1304.91 28.5427 Z" fill="#000000" fill-rule="nonzero" fill-opacity="1" /><path clip-path="url(#clip450)" d="M1345.58 27.2059 L1353.03 27.2059 L1353.03 72.576 L1345.58 72.576 L1345.58 27.2059 M1345.58 9.54393 L1353.03 9.54393 L1353.03 18.9825 L1345.58 18.9825 L1345.58 9.54393 Z" fill="#000000" fill-rule="nonzero" fill-opacity="1" /><path clip-path="url(#clip450)" d="M1406.34 45.1919 L1406.34 72.576 L1398.89 72.576 L1398.89 45.4349 Q1398.89 38.994 1396.38 35.7938 Q1393.87 32.5936 1388.84 32.5936 Q1382.81 32.5936 1379.32 36.4419 Q1375.84 40.2903 1375.84 46.9338 L1375.84 72.576 L1368.34 72.576 L1368.34 27.2059 L1375.84 27.2059 L1375.84 34.2544 Q1378.51 30.163 1382.12 28.1376 Q1385.76 26.1121 1390.5 26.1121 Q1398.32 26.1121 1402.33 30.9732 Q1406.34 35.7938 1406.34 45.1919 Z" fill="#000000" fill-rule="nonzero" fill-opacity="1" /><path clip-path="url(#clip450)" d="M1428.58 14.324 L1428.58 27.2059 L1443.93 27.2059 L1443.93 32.9987 L1428.58 32.9987 L1428.58 57.6282 Q1428.58 63.1779 1430.08 64.7578 Q1431.62 66.3376 1436.28 66.3376 L1443.93 66.3376 L1443.93 72.576 L1436.28 72.576 Q1427.65 72.576 1424.37 69.3758 Q1421.09 66.1351 1421.09 57.6282 L1421.09 32.9987 L1415.62 32.9987 L1415.62 27.2059 L1421.09 27.2059 L1421.09 14.324 L1428.58 14.324 Z" fill="#000000" fill-rule="nonzero" fill-opacity="1" /><path clip-path="url(#clip450)" d="M1492.55 48.0275 L1492.55 51.6733 L1458.27 51.6733 Q1458.76 59.3701 1462.89 63.421 Q1467.07 67.4314 1474.48 67.4314 Q1478.77 67.4314 1482.78 66.3781 Q1486.83 65.3249 1490.8 63.2184 L1490.8 70.267 Q1486.79 71.9684 1482.58 72.8596 Q1478.37 73.7508 1474.03 73.7508 Q1463.18 73.7508 1456.82 67.4314 Q1450.5 61.1119 1450.5 50.3365 Q1450.5 39.1965 1456.49 32.6746 Q1462.53 26.1121 1472.74 26.1121 Q1481.89 26.1121 1487.2 32.0264 Q1492.55 37.9003 1492.55 48.0275 M1485.09 45.84 Q1485.01 39.7232 1481.65 36.0774 Q1478.33 32.4315 1472.82 32.4315 Q1466.58 32.4315 1462.81 35.9558 Q1459.09 39.4801 1458.52 45.8805 L1485.09 45.84 Z" fill="#000000" fill-rule="nonzero" fill-opacity="1" /><path clip-path="url(#clip450)" d="M1534.63 49.3643 Q1534.63 41.2625 1531.27 36.8065 Q1527.95 32.3505 1521.91 32.3505 Q1515.92 32.3505 1512.56 36.8065 Q1509.24 41.2625 1509.24 49.3643 Q1509.24 57.4256 1512.56 61.8816 Q1515.92 66.3376 1521.91 66.3376 Q1527.95 66.3376 1531.27 61.8816 Q1534.63 57.4256 1534.63 49.3643 M1542.09 66.9452 Q1542.09 78.5308 1536.94 84.1616 Q1531.8 89.8329 1521.19 89.8329 Q1517.26 89.8329 1513.77 89.2252 Q1510.29 88.6581 1507.01 87.4428 L1507.01 80.1917 Q1510.29 81.9741 1513.49 82.8248 Q1516.69 83.6755 1520.01 83.6755 Q1527.34 83.6755 1530.99 79.8271 Q1534.63 76.0193 1534.63 68.282 L1534.63 64.5957 Q1532.33 68.6061 1528.72 70.5911 Q1525.11 72.576 1520.09 72.576 Q1511.75 72.576 1506.64 66.2161 Q1501.54 59.8562 1501.54 49.3643 Q1501.54 38.832 1506.64 32.472 Q1511.75 26.1121 1520.09 26.1121 Q1525.11 26.1121 1528.72 28.0971 Q1532.33 30.082 1534.63 34.0924 L1534.63 27.2059 L1542.09 27.2059 L1542.09 66.9452 Z" fill="#000000" fill-rule="nonzero" fill-opacity="1" /><path clip-path="url(#clip450)" d="M1583.73 34.1734 Q1582.48 33.4443 1580.98 33.1202 Q1579.52 32.7556 1577.74 32.7556 Q1571.42 32.7556 1568.01 36.8875 Q1564.65 40.9789 1564.65 48.6757 L1564.65 72.576 L1557.16 72.576 L1557.16 27.2059 L1564.65 27.2059 L1564.65 34.2544 Q1567 30.1225 1570.77 28.1376 Q1574.54 26.1121 1579.92 26.1121 Q1580.69 26.1121 1581.62 26.2337 Q1582.56 26.3147 1583.69 26.5172 L1583.73 34.1734 Z" fill="#000000" fill-rule="nonzero" fill-opacity="1" /><path clip-path="url(#clip450)" d="M1612.17 49.7694 Q1603.14 49.7694 1599.65 51.8354 Q1596.17 53.9013 1596.17 58.8839 Q1596.17 62.8538 1598.76 65.2034 Q1601.39 67.5124 1605.89 67.5124 Q1612.09 67.5124 1615.81 63.1374 Q1619.58 58.7219 1619.58 51.4303 L1619.58 49.7694 L1612.17 49.7694 M1627.04 46.6907 L1627.04 72.576 L1619.58 72.576 L1619.58 65.6895 Q1617.03 69.8214 1613.22 71.8063 Q1609.41 73.7508 1603.9 73.7508 Q1596.94 73.7508 1592.81 69.8619 Q1588.71 65.9325 1588.71 59.3701 Q1588.71 51.7138 1593.82 47.825 Q1598.96 43.9361 1609.13 43.9361 L1619.58 43.9361 L1619.58 43.2069 Q1619.58 38.0623 1616.18 35.2672 Q1612.82 32.4315 1606.7 32.4315 Q1602.81 32.4315 1599.12 33.3632 Q1595.44 34.295 1592.04 36.1584 L1592.04 29.2718 Q1596.13 27.692 1599.98 26.9223 Q1603.82 26.1121 1607.47 26.1121 Q1617.31 26.1121 1622.17 31.2163 Q1627.04 36.3204 1627.04 46.6907 Z" fill="#000000" fill-rule="nonzero" fill-opacity="1" /><path clip-path="url(#clip450)" d="M1680.1 45.1919 L1680.1 72.576 L1672.65 72.576 L1672.65 45.4349 Q1672.65 38.994 1670.14 35.7938 Q1667.63 32.5936 1662.6 32.5936 Q1656.57 32.5936 1653.08 36.4419 Q1649.6 40.2903 1649.6 46.9338 L1649.6 72.576 L1642.1 72.576 L1642.1 27.2059 L1649.6 27.2059 L1649.6 34.2544 Q1652.27 30.163 1655.88 28.1376 Q1659.52 26.1121 1664.26 26.1121 Q1672.08 26.1121 1676.09 30.9732 Q1680.1 35.7938 1680.1 45.1919 Z" fill="#000000" fill-rule="nonzero" fill-opacity="1" /><path clip-path="url(#clip450)" d="M1724.82 34.0924 L1724.82 9.54393 L1732.28 9.54393 L1732.28 72.576 L1724.82 72.576 L1724.82 65.7705 Q1722.47 69.8214 1718.87 71.8063 Q1715.3 73.7508 1710.28 73.7508 Q1702.06 73.7508 1696.87 67.1883 Q1691.73 60.6258 1691.73 49.9314 Q1691.73 39.2371 1696.87 32.6746 Q1702.06 26.1121 1710.28 26.1121 Q1715.3 26.1121 1718.87 28.0971 Q1722.47 30.0415 1724.82 34.0924 M1699.43 49.9314 Q1699.43 58.1548 1702.79 62.8538 Q1706.19 67.5124 1712.1 67.5124 Q1718.02 67.5124 1721.42 62.8538 Q1724.82 58.1548 1724.82 49.9314 Q1724.82 41.7081 1721.42 37.0496 Q1718.02 32.3505 1712.1 32.3505 Q1706.19 32.3505 1702.79 37.0496 Q1699.43 41.7081 1699.43 49.9314 Z" fill="#000000" fill-rule="nonzero" fill-opacity="1" /><polyline clip-path="url(#clip452)" style="stroke:#1b9e77; stroke-linecap:round; stroke-linejoin:round; stroke-width:8; stroke-opacity:1; fill:none" points="279.704,1375.84 283.078,1375.51 286.452,1375.16 289.826,1374.81 293.201,1374.44 324.4,1370.55 355.599,1365.58 386.798,1359.3 417.997,1351.43 436.746,1345.82 455.496,1339.47 474.245,1332.29 492.995,1324.22 524.699,1308.32 556.404,1289.24 573.624,1277.42 590.844,1264.48 608.064,1250.38 625.284,1235.06 641.16,1219.81 657.035,1203.45 672.911,1185.93 688.786,1167.24 705.806,1145.87 722.826,1123.11 739.846,1098.95 756.867,1073.4 776.586,1042.06 796.305,1008.91 816.025,974.004 835.744,937.445 853.269,903.659 870.793,868.755 888.317,832.849 905.842,796.073 936.576,729.93 967.311,662.484 1000.82,588.687 1034.33,516.063 1051.18,480.475 1068.04,445.793 1084.89,412.223 1101.74,379.974 1120.38,346.102 1139.01,314.362 1157.65,285.01 1176.28,258.288 1194.01,235.509 1211.74,215.488 1220.61,206.56 1229.47,198.378 1238.34,190.958 1247.2,184.314 1256.42,178.242 1265.64,173.035 1274.85,168.705 1284.07,165.26 1293.29,162.708 1302.51,161.052 1311.73,160.297 1320.94,160.444 1336.46,162.723 1351.98,167.537 1367.5,174.852 1383.02,184.621 1392.49,191.764 1401.96,199.781 1411.44,208.654 1420.91,218.361 1439.86,240.188 1458.8,265.065 1476.16,290.341 1493.51,317.803 1510.87,347.255 1528.23,378.489 1544.26,408.733 1560.28,440.142 1576.31,472.54 1592.34,505.752 1624.82,574.822 1657.29,645.12 1693.69,723.743 1730.08,800.597 1746.57,834.446 1763.06,867.523 1779.55,899.729 1796.04,930.973 1814.92,965.467 1833.8,998.504 1852.68,1030.01 1871.56,1059.93 1889.05,1086.18 1906.53,1111.02 1924.01,1134.44 1941.49,1156.46 1958.72,1176.8 1975.96,1195.8 1993.19,1213.51 2010.43,1229.96 2027.16,1244.76 2043.89,1258.46 2060.63,1271.1 2077.36,1282.73 2094.51,1293.65 2111.67,1303.62 2128.82,1312.7 2145.97,1320.94 2164.77,1329.08 2183.56,1336.34 2202.35,1342.81 2221.15,1348.55 2248.45,1355.73 2275.75,1361.7 2303.05,1366.62 2330.35,1370.66 2335.95,1371.39 2341.55,1372.09 2347.16,1372.77 2352.76,1373.41 "/>
<circle clip-path="url(#clip452)" cx="1316.23" cy="160.256" r="14.4" fill="#e26f46" fill-rule="evenodd" fill-opacity="1" stroke="#000000" stroke-opacity="1" stroke-width="3.2"/>
<path clip-path="url(#clip452)" d="M279.704 1375.84 L286.452 1375.16 L348.851 1366.76 L386.349 1359.4 L418.054 1351.42 L452.494 1340.54 L484.245 1328.1 L501.265 1320.36 L518.285 1311.78 L538.005 1300.72 L557.724 1288.37 L575.248 1276.24 L592.773 1262.96 L608.14 1250.32 L623.507 1236.7 L640.262 1220.71 L657.016 1203.47 L673.87 1184.84 L690.724 1164.88 L709.359 1141.24 L727.993 1115.93 L745.723 1090.29 L763.453 1063.13 L781.888 1033.32 L800.323 1001.93 L815.842 974.336 L831.36 945.711 L850.306 909.452 L869.253 871.865 L886.609 836.391 L903.965 800.05 L936.024 731.133 L968.499 659.865 L1004.89 579.763 L1037.87 508.511 L1056.75 468.9 L1075.63 430.51 L1093.12 396.308 L1110.6 363.635 L1127.83 333.139 L1145.07 304.555 L1161.8 278.822 L1178.53 255.251 L1195.68 233.5 L1212.84 214.344 L1222.24 205.001 L1231.63 196.499 L1241.03 188.858 L1250.43 182.092 L1264.08 173.855 L1277.73 167.536 L1291.38 163.164 L1305.03 160.756 L1307.83 160.507 L1310.63 160.34 L1313.43 160.256 L1316.23 160.256 L1316.23 1386.4 L1313.43 1386.4 L1310.63 1386.4 L1307.83 1386.4 L1305.03 1386.4 L1291.38 1386.4 L1277.73 1386.4 L1264.08 1386.4 L1250.43 1386.4 L1241.03 1386.4 L1231.63 1386.4 L1222.24 1386.4 L1212.84 1386.4 L1195.68 1386.4 L1178.53 1386.4 L1161.8 1386.4 L1145.07 1386.4 L1127.83 1386.4 L1110.6 1386.4 L1093.12 1386.4 L1075.63 1386.4 L1056.75 1386.4 L1037.87 1386.4 L1004.89 1386.4 L968.499 1386.4 L936.024 1386.4 L903.965 1386.4 L886.609 1386.4 L869.253 1386.4 L850.306 1386.4 L831.36 1386.4 L815.842 1386.4 L800.323 1386.4 L781.888 1386.4 L763.453 1386.4 L745.723 1386.4 L727.993 1386.4 L709.359 1386.4 L690.724 1386.4 L673.87 1386.4 L657.016 1386.4 L640.262 1386.4 L623.507 1386.4 L608.14 1386.4 L592.773 1386.4 L575.248 1386.4 L557.724 1386.4 L538.005 1386.4 L518.285 1386.4 L501.265 1386.4 L484.245 1386.4 L452.494 1386.4 L418.054 1386.4 L386.349 1386.4 L348.851 1386.4 L286.452 1386.4 L279.704 1386.4  Z" fill="#1b9e77" fill-rule="evenodd" fill-opacity="0.5"/>
<polyline clip-path="url(#clip452)" style="stroke:#3da44d; stroke-linecap:round; stroke-linejoin:round; stroke-width:4; stroke-opacity:1; fill:none" points="279.704,1375.84 286.452,1375.16 348.851,1366.76 386.349,1359.4 418.054,1351.42 452.494,1340.54 484.245,1328.1 501.265,1320.36 518.285,1311.78 538.005,1300.72 557.724,1288.37 575.248,1276.24 592.773,1262.96 608.14,1250.32 623.507,1236.7 640.262,1220.71 657.016,1203.47 673.87,1184.84 690.724,1164.88 709.359,1141.24 727.993,1115.93 745.723,1090.29 763.453,1063.13 781.888,1033.32 800.323,1001.93 815.842,974.336 831.36,945.711 850.306,909.452 869.253,871.865 886.609,836.391 903.965,800.05 936.024,731.133 968.499,659.865 1004.89,579.763 1037.87,508.511 1056.75,468.9 1075.63,430.51 1093.12,396.308 1110.6,363.635 1127.83,333.139 1145.07,304.555 1161.8,278.822 1178.53,255.251 1195.68,233.5 1212.84,214.344 1222.24,205.001 1231.63,196.499 1241.03,188.858 1250.43,182.092 1264.08,173.855 1277.73,167.536 1291.38,163.164 1305.03,160.756 1307.83,160.507 1310.63,160.34 1313.43,160.256 1316.23,160.256 "/>
<path clip-path="url(#clip450)" d="M1956.16 322.316 L2283.65 322.316 L2283.65 166.796 L1956.16 166.796  Z" fill="#ffffff" fill-rule="evenodd" fill-opacity="1"/>
<polyline clip-path="url(#clip450)" style="stroke:#000000; stroke-linecap:round; stroke-linejoin:round; stroke-width:4; stroke-opacity:1; fill:none" points="1956.16,322.316 2283.65,322.316 2283.65,166.796 1956.16,166.796 1956.16,322.316 "/>
<polyline clip-path="url(#clip450)" style="stroke:#1b9e77; stroke-linecap:round; stroke-linejoin:round; stroke-width:8; stroke-opacity:1; fill:none" points="1979.2,218.636 2117.4,218.636 "/>
<path clip-path="url(#clip450)" d="M2156.94 199.897 L2156.94 203.439 L2152.87 203.439 Q2150.57 203.439 2149.67 204.365 Q2148.79 205.291 2148.79 207.698 L2148.79 209.99 L2155.81 209.99 L2155.81 213.3 L2148.79 213.3 L2148.79 235.916 L2144.51 235.916 L2144.51 213.3 L2140.44 213.3 L2140.44 209.99 L2144.51 209.99 L2144.51 208.184 Q2144.51 203.856 2146.52 201.888 Q2148.54 199.897 2152.91 199.897 L2156.94 199.897 Z" fill="#000000" fill-rule="nonzero" fill-opacity="1" /><path clip-path="url(#clip450)" d="M2170.74 199.944 Q2167.63 205.268 2166.13 210.476 Q2164.63 215.684 2164.63 221.032 Q2164.63 226.379 2166.13 231.633 Q2167.66 236.865 2170.74 242.166 L2167.03 242.166 Q2163.56 236.726 2161.82 231.471 Q2160.11 226.217 2160.11 221.032 Q2160.11 215.87 2161.82 210.638 Q2163.54 205.407 2167.03 199.944 L2170.74 199.944 Z" fill="#000000" fill-rule="nonzero" fill-opacity="1" /><path clip-path="url(#clip450)" d="M2200.55 209.99 L2191.18 222.606 L2201.04 235.916 L2196.01 235.916 L2188.47 225.731 L2180.92 235.916 L2175.9 235.916 L2185.97 222.351 L2176.75 209.99 L2181.78 209.99 L2188.65 219.226 L2195.53 209.99 L2200.55 209.99 Z" fill="#000000" fill-rule="nonzero" fill-opacity="1" /><path clip-path="url(#clip450)" d="M2208.14 230.036 L2213.03 230.036 L2213.03 234.018 L2209.23 241.425 L2206.25 241.425 L2208.14 234.018 L2208.14 230.036 Z" fill="#000000" fill-rule="nonzero" fill-opacity="1" /><path clip-path="url(#clip450)" d="M2234.83 231.194 Q2235.67 232.305 2238.17 232.305 L2240.23 232.305 L2240.23 235.916 L2237.66 235.916 Q2233.49 235.916 2231.59 233.694 Q2229.69 231.425 2229.69 226.518 L2229.69 214.249 L2219.97 214.249 L2219.97 209.99 L2243.88 209.99 L2243.88 214.249 L2234.05 214.249 L2234.05 226.772 Q2234.05 230.129 2234.83 231.194 Z" fill="#000000" fill-rule="nonzero" fill-opacity="1" /><path clip-path="url(#clip450)" d="M2250 199.944 L2253.7 199.944 Q2257.17 205.407 2258.88 210.638 Q2260.62 215.87 2260.62 221.032 Q2260.62 226.217 2258.88 231.471 Q2257.17 236.726 2253.7 242.166 L2250 242.166 Q2253.07 236.865 2254.58 231.633 Q2256.11 226.379 2256.11 221.032 Q2256.11 215.684 2254.58 210.476 Q2253.07 205.268 2250 199.944 Z" fill="#000000" fill-rule="nonzero" fill-opacity="1" /><circle clip-path="url(#clip450)" cx="2048.3" cy="270.476" r="20.48" fill="#e26f46" fill-rule="evenodd" fill-opacity="1" stroke="#000000" stroke-opacity="1" stroke-width="4.55111"/>
<path clip-path="url(#clip450)" d="M2165.09 261.83 L2155.71 274.446 L2165.57 287.756 L2160.55 287.756 L2153.01 277.571 L2145.46 287.756 L2140.44 287.756 L2150.51 274.191 L2141.29 261.83 L2146.32 261.83 L2153.19 271.066 L2160.07 261.83 L2165.09 261.83 Z" fill="#000000" fill-rule="nonzero" fill-opacity="1" /><path clip-path="url(#clip450)" d="M2172.15 266.228 L2201.82 266.228 L2201.82 270.117 L2172.15 270.117 L2172.15 266.228 M2172.15 275.672 L2201.82 275.672 L2201.82 279.608 L2172.15 279.608 L2172.15 275.672 Z" fill="#000000" fill-rule="nonzero" fill-opacity="1" /><path clip-path="url(#clip450)" d="M2212.73 283.821 L2220.37 283.821 L2220.37 257.455 L2212.06 259.122 L2212.06 254.862 L2220.32 253.196 L2225 253.196 L2225 283.821 L2232.63 283.821 L2232.63 287.756 L2212.73 287.756 L2212.73 283.821 Z" fill="#000000" fill-rule="nonzero" fill-opacity="1" /></svg>
