<?xml version="1.0" encoding="utf-8"?>
<svg xmlns="http://www.w3.org/2000/svg" xmlns:xlink="http://www.w3.org/1999/xlink" width="600" height="400" viewBox="0 0 2400 1600">
<defs>
  <clipPath id="clip080">
    <rect x="0" y="0" width="2400" height="1600"/>
  </clipPath>
</defs>
<path clip-path="url(#clip080)" d="M0 1600 L2400 1600 L2400 0 L0 0  Z" fill="#ffffff" fill-rule="evenodd" fill-opacity="1"/>
<defs>
  <clipPath id="clip081">
    <rect x="480" y="0" width="1681" height="1600"/>
  </clipPath>
</defs>
<path clip-path="url(#clip080)" d="M249.542 1423.18 L2352.76 1423.18 L2352.76 47.2441 L249.542 47.2441  Z" fill="#ffffff" fill-rule="evenodd" fill-opacity="1"/>
<defs>
  <clipPath id="clip082">
    <rect x="249" y="47" width="2104" height="1377"/>
  </clipPath>
</defs>
<polyline clip-path="url(#clip082)" style="stroke:#000000; stroke-linecap:round; stroke-linejoin:round; stroke-width:2; stroke-opacity:0.1; fill:none" points="249.542,1423.18 249.542,47.2441 "/>
<polyline clip-path="url(#clip082)" style="stroke:#000000; stroke-linecap:round; stroke-linejoin:round; stroke-width:2; stroke-opacity:0.1; fill:none" points="775.346,1423.18 775.346,47.2441 "/>
<polyline clip-path="url(#clip082)" style="stroke:#000000; stroke-linecap:round; stroke-linejoin:round; stroke-width:2; stroke-opacity:0.1; fill:none" points="1301.15,1423.18 1301.15,47.2441 "/>
<polyline clip-path="url(#clip082)" style="stroke:#000000; stroke-linecap:round; stroke-linejoin:round; stroke-width:2; stroke-opacity:0.1; fill:none" points="1826.95,1423.18 1826.95,47.2441 "/>
<polyline clip-path="url(#clip082)" style="stroke:#000000; stroke-linecap:round; stroke-linejoin:round; stroke-width:2; stroke-opacity:0.1; fill:none" points="2352.76,1423.18 2352.76,47.2441 "/>
<polyline clip-path="url(#clip080)" style="stroke:#000000; stroke-linecap:round; stroke-linejoin:round; stroke-width:4; stroke-opacity:1; fill:none" points="249.542,1423.18 2352.76,1423.18 "/>
<polyline clip-path="url(#clip080)" style="stroke:#000000; stroke-linecap:round; stroke-linejoin:round; stroke-width:4; stroke-opacity:1; fill:none" points="249.542,1423.18 249.542,1404.28 "/>
<polyline clip-path="url(#clip080)" style="stroke:#000000; stroke-linecap:round; stroke-linejoin:round; stroke-width:4; stroke-opacity:1; fill:none" points="775.346,1423.18 775.346,1404.28 "/>
<polyline clip-path="url(#clip080)" style="stroke:#000000; stroke-linecap:round; stroke-linejoin:round; stroke-width:4; stroke-opacity:1; fill:none" points="1301.15,1423.18 1301.15,1404.28 "/>
<polyline clip-path="url(#clip080)" style="stroke:#000000; stroke-linecap:round; stroke-linejoin:round; stroke-width:4; stroke-opacity:1; fill:none" points="1826.95,1423.18 1826.95,1404.28 "/>
<polyline clip-path="url(#clip080)" style="stroke:#000000; stroke-linecap:round; stroke-linejoin:round; stroke-width:4; stroke-opacity:1; fill:none" points="2352.76,1423.18 2352.76,1404.28 "/>
<path clip-path="url(#clip080)" d="M201.614 1481.64 L209.253 1481.64 L209.253 1455.28 L200.943 1456.95 L200.943 1452.69 L209.207 1451.02 L213.883 1451.02 L213.883 1481.64 L221.521 1481.64 L221.521 1485.58 L201.614 1485.58 L201.614 1481.64 Z" fill="#000000" fill-rule="nonzero" fill-opacity="1" /><path clip-path="url(#clip080)" d="M240.966 1454.1 Q237.355 1454.1 235.526 1457.66 Q233.72 1461.2 233.72 1468.33 Q233.72 1475.44 235.526 1479.01 Q237.355 1482.55 240.966 1482.55 Q244.6 1482.55 246.405 1479.01 Q248.234 1475.44 248.234 1468.33 Q248.234 1461.2 246.405 1457.66 Q244.6 1454.1 240.966 1454.1 M240.966 1450.39 Q246.776 1450.39 249.831 1455 Q252.91 1459.58 252.91 1468.33 Q252.91 1477.06 249.831 1481.67 Q246.776 1486.25 240.966 1486.25 Q235.156 1486.25 232.077 1481.67 Q229.021 1477.06 229.021 1468.33 Q229.021 1459.58 232.077 1455 Q235.156 1450.39 240.966 1450.39 Z" fill="#000000" fill-rule="nonzero" fill-opacity="1" /><path clip-path="url(#clip080)" d="M261.128 1479.7 L266.012 1479.7 L266.012 1485.58 L261.128 1485.58 L261.128 1479.7 Z" fill="#000000" fill-rule="nonzero" fill-opacity="1" /><path clip-path="url(#clip080)" d="M286.197 1454.1 Q282.586 1454.1 280.757 1457.66 Q278.952 1461.2 278.952 1468.33 Q278.952 1475.44 280.757 1479.01 Q282.586 1482.55 286.197 1482.55 Q289.831 1482.55 291.637 1479.01 Q293.465 1475.44 293.465 1468.33 Q293.465 1461.2 291.637 1457.66 Q289.831 1454.1 286.197 1454.1 M286.197 1450.39 Q292.007 1450.39 295.063 1455 Q298.141 1459.58 298.141 1468.33 Q298.141 1477.06 295.063 1481.67 Q292.007 1486.25 286.197 1486.25 Q280.387 1486.25 277.308 1481.67 Q274.253 1477.06 274.253 1468.33 Q274.253 1459.58 277.308 1455 Q280.387 1450.39 286.197 1450.39 Z" fill="#000000" fill-rule="nonzero" fill-opacity="1" /><path clip-path="url(#clip080)" d="M727.915 1481.64 L735.554 1481.64 L735.554 1455.28 L727.244 1456.95 L727.244 1452.69 L735.508 1451.02 L740.184 1451.02 L740.184 1481.64 L747.823 1481.64 L747.823 1485.58 L727.915 1485.58 L727.915 1481.64 Z" fill="#000000" fill-rule="nonzero" fill-opacity="1" /><path clip-path="url(#clip080)" d="M761.295 1481.64 L777.614 1481.64 L777.614 1485.58 L755.67 1485.58 L755.67 1481.64 Q758.332 1478.89 762.915 1474.26 Q767.521 1469.61 768.702 1468.27 Q770.947 1465.74 771.827 1464.01 Q772.73 1462.25 772.73 1460.56 Q772.73 1457.8 770.785 1456.07 Q768.864 1454.33 765.762 1454.33 Q763.563 1454.33 761.109 1455.09 Q758.679 1455.86 755.901 1457.41 L755.901 1452.69 Q758.725 1451.55 761.179 1450.97 Q763.633 1450.39 765.67 1450.39 Q771.04 1450.39 774.234 1453.08 Q777.429 1455.77 777.429 1460.26 Q777.429 1462.39 776.619 1464.31 Q775.832 1466.2 773.725 1468.8 Q773.146 1469.47 770.045 1472.69 Q766.943 1475.88 761.295 1481.64 Z" fill="#000000" fill-rule="nonzero" fill-opacity="1" /><path clip-path="url(#clip080)" d="M787.429 1479.7 L792.313 1479.7 L792.313 1485.58 L787.429 1485.58 L787.429 1479.7 Z" fill="#000000" fill-rule="nonzero" fill-opacity="1" /><path clip-path="url(#clip080)" d="M802.544 1451.02 L820.901 1451.02 L820.901 1454.96 L806.827 1454.96 L806.827 1463.43 Q807.845 1463.08 808.864 1462.92 Q809.882 1462.73 810.901 1462.73 Q816.688 1462.73 820.067 1465.9 Q823.447 1469.08 823.447 1474.49 Q823.447 1480.07 819.975 1483.17 Q816.503 1486.25 810.183 1486.25 Q808.007 1486.25 805.739 1485.88 Q803.493 1485.51 801.086 1484.77 L801.086 1480.07 Q803.169 1481.2 805.392 1481.76 Q807.614 1482.32 810.091 1482.32 Q814.095 1482.32 816.433 1480.21 Q818.771 1478.1 818.771 1474.49 Q818.771 1470.88 816.433 1468.77 Q814.095 1466.67 810.091 1466.67 Q808.216 1466.67 806.341 1467.08 Q804.489 1467.5 802.544 1468.38 L802.544 1451.02 Z" fill="#000000" fill-rule="nonzero" fill-opacity="1" /><path clip-path="url(#clip080)" d="M1253.22 1481.64 L1260.86 1481.64 L1260.86 1455.28 L1252.55 1456.95 L1252.55 1452.69 L1260.81 1451.02 L1265.49 1451.02 L1265.49 1481.64 L1273.13 1481.64 L1273.13 1485.58 L1253.22 1485.58 L1253.22 1481.64 Z" fill="#000000" fill-rule="nonzero" fill-opacity="1" /><path clip-path="url(#clip080)" d="M1282.62 1451.02 L1300.98 1451.02 L1300.98 1454.96 L1286.9 1454.96 L1286.9 1463.43 Q1287.92 1463.08 1288.94 1462.92 Q1289.96 1462.73 1290.98 1462.73 Q1296.76 1462.73 1300.14 1465.9 Q1303.52 1469.08 1303.52 1474.49 Q1303.52 1480.07 1300.05 1483.17 Q1296.58 1486.25 1290.26 1486.25 Q1288.08 1486.25 1285.81 1485.88 Q1283.57 1485.51 1281.16 1484.77 L1281.16 1480.07 Q1283.24 1481.2 1285.47 1481.76 Q1287.69 1482.32 1290.17 1482.32 Q1294.17 1482.32 1296.51 1480.21 Q1298.85 1478.1 1298.85 1474.49 Q1298.85 1470.88 1296.51 1468.77 Q1294.17 1466.67 1290.17 1466.67 Q1288.29 1466.67 1286.42 1467.08 Q1284.56 1467.5 1282.62 1468.38 L1282.62 1451.02 Z" fill="#000000" fill-rule="nonzero" fill-opacity="1" /><path clip-path="url(#clip080)" d="M1312.73 1479.7 L1317.62 1479.7 L1317.62 1485.58 L1312.73 1485.58 L1312.73 1479.7 Z" fill="#000000" fill-rule="nonzero" fill-opacity="1" /><path clip-path="url(#clip080)" d="M1337.8 1454.1 Q1334.19 1454.1 1332.36 1457.66 Q1330.56 1461.2 1330.56 1468.33 Q1330.56 1475.44 1332.36 1479.01 Q1334.19 1482.55 1337.8 1482.55 Q1341.44 1482.55 1343.24 1479.01 Q1345.07 1475.44 1345.07 1468.33 Q1345.07 1461.2 1343.24 1457.66 Q1341.44 1454.1 1337.8 1454.1 M1337.8 1450.39 Q1343.61 1450.39 1346.67 1455 Q1349.75 1459.58 1349.75 1468.33 Q1349.75 1477.06 1346.67 1481.67 Q1343.61 1486.25 1337.8 1486.25 Q1331.99 1486.25 1328.92 1481.67 Q1325.86 1477.06 1325.86 1468.33 Q1325.86 1459.58 1328.92 1455 Q1331.99 1450.39 1337.8 1450.39 Z" fill="#000000" fill-rule="nonzero" fill-opacity="1" /><path clip-path="url(#clip080)" d="M1779.52 1481.64 L1787.16 1481.64 L1787.16 1455.28 L1778.85 1456.95 L1778.85 1452.69 L1787.11 1451.02 L1791.79 1451.02 L1791.79 1481.64 L1799.43 1481.64 L1799.43 1485.58 L1779.52 1485.58 L1779.52 1481.64 Z" fill="#000000" fill-rule="nonzero" fill-opacity="1" /><path clip-path="url(#clip080)" d="M1807.69 1451.02 L1829.92 1451.02 L1829.92 1453.01 L1817.37 1485.58 L1812.48 1485.58 L1824.29 1454.96 L1807.69 1454.96 L1807.69 1451.02 Z" fill="#000000" fill-rule="nonzero" fill-opacity="1" /><path clip-path="url(#clip080)" d="M1839.04 1479.7 L1843.92 1479.7 L1843.92 1485.58 L1839.04 1485.58 L1839.04 1479.7 Z" fill="#000000" fill-rule="nonzero" fill-opacity="1" /><path clip-path="url(#clip080)" d="M1854.15 1451.02 L1872.51 1451.02 L1872.51 1454.96 L1858.43 1454.96 L1858.43 1463.43 Q1859.45 1463.08 1860.47 1462.92 Q1861.49 1462.73 1862.51 1462.73 Q1868.29 1462.73 1871.67 1465.9 Q1875.05 1469.08 1875.05 1474.49 Q1875.05 1480.07 1871.58 1483.17 Q1868.11 1486.25 1861.79 1486.25 Q1859.61 1486.25 1857.35 1485.88 Q1855.1 1485.51 1852.69 1484.77 L1852.69 1480.07 Q1854.78 1481.2 1857 1481.76 Q1859.22 1482.32 1861.7 1482.32 Q1865.7 1482.32 1868.04 1480.21 Q1870.38 1478.1 1870.38 1474.49 Q1870.38 1470.88 1868.04 1468.77 Q1865.7 1466.67 1861.7 1466.67 Q1859.82 1466.67 1857.95 1467.08 Q1856.1 1467.5 1854.15 1468.38 L1854.15 1451.02 Z" fill="#000000" fill-rule="nonzero" fill-opacity="1" /><path clip-path="url(#clip080)" d="M2308.91 1481.64 L2325.23 1481.64 L2325.23 1485.58 L2303.29 1485.58 L2303.29 1481.64 Q2305.95 1478.89 2310.53 1474.26 Q2315.14 1469.61 2316.32 1468.27 Q2318.57 1465.74 2319.45 1464.01 Q2320.35 1462.25 2320.35 1460.56 Q2320.35 1457.8 2318.4 1456.07 Q2316.48 1454.33 2313.38 1454.33 Q2311.18 1454.33 2308.73 1455.09 Q2306.3 1455.86 2303.52 1457.41 L2303.52 1452.69 Q2306.34 1451.55 2308.8 1450.97 Q2311.25 1450.39 2313.29 1450.39 Q2318.66 1450.39 2321.85 1453.08 Q2325.05 1455.77 2325.05 1460.26 Q2325.05 1462.39 2324.24 1464.31 Q2323.45 1466.2 2321.34 1468.8 Q2320.77 1469.47 2317.66 1472.69 Q2314.56 1475.88 2308.91 1481.64 Z" fill="#000000" fill-rule="nonzero" fill-opacity="1" /><path clip-path="url(#clip080)" d="M2345.05 1454.1 Q2341.44 1454.1 2339.61 1457.66 Q2337.8 1461.2 2337.8 1468.33 Q2337.8 1475.44 2339.61 1479.01 Q2341.44 1482.55 2345.05 1482.55 Q2348.68 1482.55 2350.49 1479.01 Q2352.32 1475.44 2352.32 1468.33 Q2352.32 1461.2 2350.49 1457.66 Q2348.68 1454.1 2345.05 1454.1 M2345.05 1450.39 Q2350.86 1450.39 2353.91 1455 Q2356.99 1459.58 2356.99 1468.33 Q2356.99 1477.06 2353.91 1481.67 Q2350.86 1486.25 2345.05 1486.25 Q2339.24 1486.25 2336.16 1481.67 Q2333.1 1477.06 2333.1 1468.33 Q2333.1 1459.58 2336.16 1455 Q2339.24 1450.39 2345.05 1450.39 Z" fill="#000000" fill-rule="nonzero" fill-opacity="1" /><path clip-path="url(#clip080)" d="M2365.21 1479.7 L2370.09 1479.7 L2370.09 1485.58 L2365.21 1485.58 L2365.21 1479.7 Z" fill="#000000" fill-rule="nonzero" fill-opacity="1" /><path clip-path="url(#clip080)" d="M2390.28 1454.1 Q2386.67 1454.1 2384.84 1457.66 Q2383.03 1461.2 2383.03 1468.33 Q2383.03 1475.44 2384.84 1479.01 Q2386.67 1482.55 2390.28 1482.55 Q2393.91 1482.55 2395.72 1479.01 Q2397.55 1475.44 2397.55 1468.33 Q2397.55 1461.2 2395.72 1457.66 Q2393.91 1454.1 2390.28 1454.1 M2390.28 1450.39 Q2396.09 1450.39 2399.14 1455 Q2402.22 1459.58 2402.22 1468.33 Q2402.22 1477.06 2399.14 1481.67 Q2396.09 1486.25 2390.28 1486.25 Q2384.47 1486.25 2381.39 1481.67 Q2378.33 1477.06 2378.33 1468.33 Q2378.33 1459.58 2381.39 1455 Q2384.47 1450.39 2390.28 1450.39 Z" fill="#000000" fill-rule="nonzero" fill-opacity="1" /><path clip-path="url(#clip080)" d="M1188.6 1522.27 L1188.6 1532.4 L1200.67 1532.4 L1200.67 1536.95 L1188.6 1536.95 L1188.6 1556.3 Q1188.6 1560.66 1189.78 1561.9 Q1190.99 1563.14 1194.65 1563.14 L1200.67 1563.14 L1200.67 1568.04 L1194.65 1568.04 Q1187.87 1568.04 1185.29 1565.53 Q1182.71 1562.98 1182.71 1556.3 L1182.71 1536.95 L1178.42 1536.95 L1178.42 1532.4 L1182.71 1532.4 L1182.71 1522.27 L1188.6 1522.27 Z" fill="#000000" fill-rule="nonzero" fill-opacity="1" /><path clip-path="url(#clip080)" d="M1208.37 1532.4 L1214.23 1532.4 L1214.23 1568.04 L1208.37 1568.04 L1208.37 1532.4 M1208.37 1518.52 L1214.23 1518.52 L1214.23 1525.93 L1208.37 1525.93 L1208.37 1518.52 Z" fill="#000000" fill-rule="nonzero" fill-opacity="1" /><path clip-path="url(#clip080)" d="M1254.23 1539.24 Q1256.43 1535.29 1259.49 1533.41 Q1262.54 1531.54 1266.68 1531.54 Q1272.25 1531.54 1275.27 1535.45 Q1278.3 1539.33 1278.3 1546.53 L1278.3 1568.04 L1272.41 1568.04 L1272.41 1546.72 Q1272.41 1541.59 1270.59 1539.11 Q1268.78 1536.63 1265.06 1536.63 Q1260.5 1536.63 1257.86 1539.65 Q1255.22 1542.68 1255.22 1547.9 L1255.22 1568.04 L1249.33 1568.04 L1249.33 1546.72 Q1249.33 1541.56 1247.52 1539.11 Q1245.7 1536.63 1241.92 1536.63 Q1237.43 1536.63 1234.79 1539.68 Q1232.14 1542.71 1232.14 1547.9 L1232.14 1568.04 L1226.26 1568.04 L1226.26 1532.4 L1232.14 1532.4 L1232.14 1537.93 Q1234.15 1534.66 1236.95 1533.1 Q1239.75 1531.54 1243.6 1531.54 Q1247.49 1531.54 1250.19 1533.51 Q1252.93 1535.48 1254.23 1539.24 Z" fill="#000000" fill-rule="nonzero" fill-opacity="1" /><path clip-path="url(#clip080)" d="M1320.47 1548.76 L1320.47 1551.62 L1293.54 1551.62 Q1293.92 1557.67 1297.17 1560.85 Q1300.45 1564 1306.27 1564 Q1309.65 1564 1312.8 1563.17 Q1315.98 1562.35 1319.1 1560.69 L1319.1 1566.23 Q1315.95 1567.57 1312.64 1568.27 Q1309.33 1568.97 1305.92 1568.97 Q1297.39 1568.97 1292.4 1564 Q1287.43 1559.04 1287.43 1550.57 Q1287.43 1541.82 1292.14 1536.69 Q1296.88 1531.54 1304.9 1531.54 Q1312.1 1531.54 1316.27 1536.18 Q1320.47 1540.8 1320.47 1548.76 M1314.61 1547.04 Q1314.55 1542.23 1311.91 1539.37 Q1309.3 1536.5 1304.97 1536.5 Q1300.07 1536.5 1297.11 1539.27 Q1294.18 1542.04 1293.73 1547.07 L1314.61 1547.04 Z" fill="#000000" fill-rule="nonzero" fill-opacity="1" /><path clip-path="url(#clip080)" d="M1364.87 1518.58 Q1360.6 1525.9 1358.54 1533.06 Q1356.47 1540.23 1356.47 1547.58 Q1356.47 1554.93 1358.54 1562.16 Q1360.64 1569.35 1364.87 1576.64 L1359.78 1576.64 Q1355 1569.16 1352.62 1561.93 Q1350.26 1554.71 1350.26 1547.58 Q1350.26 1540.48 1352.62 1533.29 Q1354.97 1526.09 1359.78 1518.58 L1364.87 1518.58 Z" fill="#000000" fill-rule="nonzero" fill-opacity="1" /><path clip-path="url(#clip080)" d="M1398.96 1533.45 L1398.96 1538.98 Q1396.48 1537.71 1393.8 1537.07 Q1391.13 1536.44 1388.26 1536.44 Q1383.9 1536.44 1381.71 1537.77 Q1379.54 1539.11 1379.54 1541.79 Q1379.54 1543.82 1381.1 1545 Q1382.66 1546.15 1387.37 1547.2 L1389.38 1547.64 Q1395.62 1548.98 1398.23 1551.43 Q1400.87 1553.85 1400.87 1558.21 Q1400.87 1563.17 1396.92 1566.07 Q1393.01 1568.97 1386.13 1568.97 Q1383.27 1568.97 1380.15 1568.39 Q1377.06 1567.85 1373.62 1566.74 L1373.62 1560.69 Q1376.87 1562.38 1380.02 1563.24 Q1383.17 1564.07 1386.26 1564.07 Q1390.4 1564.07 1392.62 1562.66 Q1394.85 1561.23 1394.85 1558.65 Q1394.85 1556.27 1393.23 1554.99 Q1391.64 1553.72 1386.19 1552.54 L1384.16 1552.07 Q1378.72 1550.92 1376.3 1548.56 Q1373.88 1546.18 1373.88 1542.04 Q1373.88 1537.01 1377.44 1534.27 Q1381.01 1531.54 1387.56 1531.54 Q1390.81 1531.54 1393.67 1532.01 Q1396.54 1532.49 1398.96 1533.45 Z" fill="#000000" fill-rule="nonzero" fill-opacity="1" /><path clip-path="url(#clip080)" d="M1409.27 1518.58 L1414.36 1518.58 Q1419.14 1526.09 1421.49 1533.29 Q1423.88 1540.48 1423.88 1547.58 Q1423.88 1554.71 1421.49 1561.93 Q1419.14 1569.16 1414.36 1576.64 L1409.27 1576.64 Q1413.5 1569.35 1415.57 1562.16 Q1417.67 1554.93 1417.67 1547.58 Q1417.67 1540.23 1415.57 1533.06 Q1413.5 1525.9 1409.27 1518.58 Z" fill="#000000" fill-rule="nonzero" fill-opacity="1" /><polyline clip-path="url(#clip082)" style="stroke:#000000; stroke-linecap:round; stroke-linejoin:round; stroke-width:2; stroke-opacity:0.1; fill:none" points="249.542,1198.61 2352.76,1198.61 "/>
<polyline clip-path="url(#clip082)" style="stroke:#000000; stroke-linecap:round; stroke-linejoin:round; stroke-width:2; stroke-opacity:0.1; fill:none" points="249.542,936.742 2352.76,936.742 "/>
<polyline clip-path="url(#clip082)" style="stroke:#000000; stroke-linecap:round; stroke-linejoin:round; stroke-width:2; stroke-opacity:0.1; fill:none" points="249.542,674.879 2352.76,674.879 "/>
<polyline clip-path="url(#clip082)" style="stroke:#000000; stroke-linecap:round; stroke-linejoin:round; stroke-width:2; stroke-opacity:0.1; fill:none" points="249.542,413.016 2352.76,413.016 "/>
<polyline clip-path="url(#clip082)" style="stroke:#000000; stroke-linecap:round; stroke-linejoin:round; stroke-width:2; stroke-opacity:0.1; fill:none" points="249.542,151.153 2352.76,151.153 "/>
<polyline clip-path="url(#clip080)" style="stroke:#000000; stroke-linecap:round; stroke-linejoin:round; stroke-width:4; stroke-opacity:1; fill:none" points="249.542,1423.18 249.542,47.2441 "/>
<polyline clip-path="url(#clip080)" style="stroke:#000000; stroke-linecap:round; stroke-linejoin:round; stroke-width:4; stroke-opacity:1; fill:none" points="249.542,1198.61 268.44,1198.61 "/>
<polyline clip-path="url(#clip080)" style="stroke:#000000; stroke-linecap:round; stroke-linejoin:round; stroke-width:4; stroke-opacity:1; fill:none" points="249.542,936.742 268.44,936.742 "/>
<polyline clip-path="url(#clip080)" style="stroke:#000000; stroke-linecap:round; stroke-linejoin:round; stroke-width:4; stroke-opacity:1; fill:none" points="249.542,674.879 268.44,674.879 "/>
<polyline clip-path="url(#clip080)" style="stroke:#000000; stroke-linecap:round; stroke-linejoin:round; stroke-width:4; stroke-opacity:1; fill:none" points="249.542,413.016 268.44,413.016 "/>
<polyline clip-path="url(#clip080)" style="stroke:#000000; stroke-linecap:round; stroke-linejoin:round; stroke-width:4; stroke-opacity:1; fill:none" points="249.542,151.153 268.44,151.153 "/>
<path clip-path="url(#clip080)" d="M126.205 1184.4 Q122.593 1184.4 120.765 1187.97 Q118.959 1191.51 118.959 1198.64 Q118.959 1205.75 120.765 1209.31 Q122.593 1212.85 126.205 1212.85 Q129.839 1212.85 131.644 1209.31 Q133.473 1205.75 133.473 1198.64 Q133.473 1191.51 131.644 1187.97 Q129.839 1184.4 126.205 1184.4 M126.205 1180.7 Q132.015 1180.7 135.07 1185.31 Q138.149 1189.89 138.149 1198.64 Q138.149 1207.37 135.07 1211.97 Q132.015 1216.56 126.205 1216.56 Q120.394 1216.56 117.316 1211.97 Q114.26 1207.37 114.26 1198.64 Q114.26 1189.89 117.316 1185.31 Q120.394 1180.7 126.205 1180.7 Z" fill="#000000" fill-rule="nonzero" fill-opacity="1" /><path clip-path="url(#clip080)" d="M146.366 1210.01 L151.251 1210.01 L151.251 1215.89 L146.366 1215.89 L146.366 1210.01 Z" fill="#000000" fill-rule="nonzero" fill-opacity="1" /><path clip-path="url(#clip080)" d="M171.436 1184.4 Q167.825 1184.4 165.996 1187.97 Q164.19 1191.51 164.19 1198.64 Q164.19 1205.75 165.996 1209.31 Q167.825 1212.85 171.436 1212.85 Q175.07 1212.85 176.876 1209.31 Q178.704 1205.75 178.704 1198.64 Q178.704 1191.51 176.876 1187.97 Q175.07 1184.4 171.436 1184.4 M171.436 1180.7 Q177.246 1180.7 180.301 1185.31 Q183.38 1189.89 183.38 1198.64 Q183.38 1207.37 180.301 1211.97 Q177.246 1216.56 171.436 1216.56 Q165.626 1216.56 162.547 1211.97 Q159.491 1207.37 159.491 1198.64 Q159.491 1189.89 162.547 1185.31 Q165.626 1180.7 171.436 1180.7 Z" fill="#000000" fill-rule="nonzero" fill-opacity="1" /><path clip-path="url(#clip080)" d="M201.598 1184.4 Q197.987 1184.4 196.158 1187.97 Q194.352 1191.51 194.352 1198.64 Q194.352 1205.75 196.158 1209.31 Q197.987 1212.85 201.598 1212.85 Q205.232 1212.85 207.037 1209.31 Q208.866 1205.75 208.866 1198.64 Q208.866 1191.51 207.037 1187.97 Q205.232 1184.4 201.598 1184.4 M201.598 1180.7 Q207.408 1180.7 210.463 1185.31 Q213.542 1189.89 213.542 1198.64 Q213.542 1207.37 210.463 1211.97 Q207.408 1216.56 201.598 1216.56 Q195.787 1216.56 192.709 1211.97 Q189.653 1207.37 189.653 1198.64 Q189.653 1189.89 192.709 1185.31 Q195.787 1180.7 201.598 1180.7 Z" fill="#000000" fill-rule="nonzero" fill-opacity="1" /><path clip-path="url(#clip080)" d="M127.2 922.541 Q123.589 922.541 121.76 926.106 Q119.955 929.648 119.955 936.777 Q119.955 943.884 121.76 947.448 Q123.589 950.99 127.2 950.99 Q130.834 950.99 132.64 947.448 Q134.468 943.884 134.468 936.777 Q134.468 929.648 132.64 926.106 Q130.834 922.541 127.2 922.541 M127.2 918.837 Q133.01 918.837 136.066 923.444 Q139.144 928.027 139.144 936.777 Q139.144 945.504 136.066 950.11 Q133.01 954.694 127.2 954.694 Q121.39 954.694 118.311 950.11 Q115.256 945.504 115.256 936.777 Q115.256 928.027 118.311 923.444 Q121.39 918.837 127.2 918.837 Z" fill="#000000" fill-rule="nonzero" fill-opacity="1" /><path clip-path="url(#clip080)" d="M147.362 948.143 L152.246 948.143 L152.246 954.022 L147.362 954.022 L147.362 948.143 Z" fill="#000000" fill-rule="nonzero" fill-opacity="1" /><path clip-path="url(#clip080)" d="M172.431 922.541 Q168.82 922.541 166.991 926.106 Q165.186 929.648 165.186 936.777 Q165.186 943.884 166.991 947.448 Q168.82 950.99 172.431 950.99 Q176.065 950.99 177.871 947.448 Q179.7 943.884 179.7 936.777 Q179.7 929.648 177.871 926.106 Q176.065 922.541 172.431 922.541 M172.431 918.837 Q178.241 918.837 181.297 923.444 Q184.376 928.027 184.376 936.777 Q184.376 945.504 181.297 950.11 Q178.241 954.694 172.431 954.694 Q166.621 954.694 163.542 950.11 Q160.487 945.504 160.487 936.777 Q160.487 928.027 163.542 923.444 Q166.621 918.837 172.431 918.837 Z" fill="#000000" fill-rule="nonzero" fill-opacity="1" /><path clip-path="url(#clip080)" d="M192.639 919.462 L210.996 919.462 L210.996 923.398 L196.922 923.398 L196.922 931.87 Q197.94 931.523 198.959 931.361 Q199.977 931.175 200.996 931.175 Q206.783 931.175 210.162 934.347 Q213.542 937.518 213.542 942.935 Q213.542 948.513 210.07 951.615 Q206.598 954.694 200.278 954.694 Q198.102 954.694 195.834 954.323 Q193.588 953.953 191.181 953.212 L191.181 948.513 Q193.264 949.647 195.487 950.203 Q197.709 950.759 200.186 950.759 Q204.19 950.759 206.528 948.652 Q208.866 946.546 208.866 942.935 Q208.866 939.323 206.528 937.217 Q204.19 935.111 200.186 935.111 Q198.311 935.111 196.436 935.527 Q194.584 935.944 192.639 936.823 L192.639 919.462 Z" fill="#000000" fill-rule="nonzero" fill-opacity="1" /><path clip-path="url(#clip080)" d="M126.205 660.678 Q122.593 660.678 120.765 664.243 Q118.959 667.784 118.959 674.914 Q118.959 682.021 120.765 685.585 Q122.593 689.127 126.205 689.127 Q129.839 689.127 131.644 685.585 Q133.473 682.021 133.473 674.914 Q133.473 667.784 131.644 664.243 Q129.839 660.678 126.205 660.678 M126.205 656.974 Q132.015 656.974 135.07 661.581 Q138.149 666.164 138.149 674.914 Q138.149 683.641 135.07 688.247 Q132.015 692.831 126.205 692.831 Q120.394 692.831 117.316 688.247 Q114.26 683.641 114.26 674.914 Q114.26 666.164 117.316 661.581 Q120.394 656.974 126.205 656.974 Z" fill="#000000" fill-rule="nonzero" fill-opacity="1" /><path clip-path="url(#clip080)" d="M146.366 686.28 L151.251 686.28 L151.251 692.159 L146.366 692.159 L146.366 686.28 Z" fill="#000000" fill-rule="nonzero" fill-opacity="1" /><path clip-path="url(#clip080)" d="M162.246 688.224 L169.885 688.224 L169.885 661.859 L161.575 663.525 L161.575 659.266 L169.839 657.599 L174.514 657.599 L174.514 688.224 L182.153 688.224 L182.153 692.159 L162.246 692.159 L162.246 688.224 Z" fill="#000000" fill-rule="nonzero" fill-opacity="1" /><path clip-path="url(#clip080)" d="M201.598 660.678 Q197.987 660.678 196.158 664.243 Q194.352 667.784 194.352 674.914 Q194.352 682.021 196.158 685.585 Q197.987 689.127 201.598 689.127 Q205.232 689.127 207.037 685.585 Q208.866 682.021 208.866 674.914 Q208.866 667.784 207.037 664.243 Q205.232 660.678 201.598 660.678 M201.598 656.974 Q207.408 656.974 210.463 661.581 Q213.542 666.164 213.542 674.914 Q213.542 683.641 210.463 688.247 Q207.408 692.831 201.598 692.831 Q195.787 692.831 192.709 688.247 Q189.653 683.641 189.653 674.914 Q189.653 666.164 192.709 661.581 Q195.787 656.974 201.598 656.974 Z" fill="#000000" fill-rule="nonzero" fill-opacity="1" /><path clip-path="url(#clip080)" d="M127.2 398.815 Q123.589 398.815 121.76 402.38 Q119.955 405.921 119.955 413.051 Q119.955 420.157 121.76 423.722 Q123.589 427.264 127.2 427.264 Q130.834 427.264 132.64 423.722 Q134.468 420.157 134.468 413.051 Q134.468 405.921 132.64 402.38 Q130.834 398.815 127.2 398.815 M127.2 395.111 Q133.01 395.111 136.066 399.718 Q139.144 404.301 139.144 413.051 Q139.144 421.778 136.066 426.384 Q133.01 430.968 127.2 430.968 Q121.39 430.968 118.311 426.384 Q115.256 421.778 115.256 413.051 Q115.256 404.301 118.311 399.718 Q121.39 395.111 127.2 395.111 Z" fill="#000000" fill-rule="nonzero" fill-opacity="1" /><path clip-path="url(#clip080)" d="M147.362 424.417 L152.246 424.417 L152.246 430.296 L147.362 430.296 L147.362 424.417 Z" fill="#000000" fill-rule="nonzero" fill-opacity="1" /><path clip-path="url(#clip080)" d="M163.241 426.361 L170.88 426.361 L170.88 399.995 L162.57 401.662 L162.57 397.403 L170.834 395.736 L175.51 395.736 L175.51 426.361 L183.149 426.361 L183.149 430.296 L163.241 430.296 L163.241 426.361 Z" fill="#000000" fill-rule="nonzero" fill-opacity="1" /><path clip-path="url(#clip080)" d="M192.639 395.736 L210.996 395.736 L210.996 399.671 L196.922 399.671 L196.922 408.144 Q197.94 407.796 198.959 407.634 Q199.977 407.449 200.996 407.449 Q206.783 407.449 210.162 410.62 Q213.542 413.792 213.542 419.208 Q213.542 424.787 210.07 427.889 Q206.598 430.968 200.278 430.968 Q198.102 430.968 195.834 430.597 Q193.588 430.227 191.181 429.486 L191.181 424.787 Q193.264 425.921 195.487 426.477 Q197.709 427.032 200.186 427.032 Q204.19 427.032 206.528 424.926 Q208.866 422.819 208.866 419.208 Q208.866 415.597 206.528 413.491 Q204.19 411.384 200.186 411.384 Q198.311 411.384 196.436 411.801 Q194.584 412.218 192.639 413.097 L192.639 395.736 Z" fill="#000000" fill-rule="nonzero" fill-opacity="1" /><path clip-path="url(#clip080)" d="M126.205 136.952 Q122.593 136.952 120.765 140.517 Q118.959 144.058 118.959 151.188 Q118.959 158.294 120.765 161.859 Q122.593 165.401 126.205 165.401 Q129.839 165.401 131.644 161.859 Q133.473 158.294 133.473 151.188 Q133.473 144.058 131.644 140.517 Q129.839 136.952 126.205 136.952 M126.205 133.248 Q132.015 133.248 135.07 137.855 Q138.149 142.438 138.149 151.188 Q138.149 159.915 135.07 164.521 Q132.015 169.104 126.205 169.104 Q120.394 169.104 117.316 164.521 Q114.26 159.915 114.26 151.188 Q114.26 142.438 117.316 137.855 Q120.394 133.248 126.205 133.248 Z" fill="#000000" fill-rule="nonzero" fill-opacity="1" /><path clip-path="url(#clip080)" d="M146.366 162.554 L151.251 162.554 L151.251 168.433 L146.366 168.433 L146.366 162.554 Z" fill="#000000" fill-rule="nonzero" fill-opacity="1" /><path clip-path="url(#clip080)" d="M165.464 164.498 L181.783 164.498 L181.783 168.433 L159.839 168.433 L159.839 164.498 Q162.501 161.743 167.084 157.114 Q171.69 152.461 172.871 151.118 Q175.116 148.595 175.996 146.859 Q176.899 145.1 176.899 143.41 Q176.899 140.656 174.954 138.919 Q173.033 137.183 169.931 137.183 Q167.732 137.183 165.278 137.947 Q162.848 138.711 160.07 140.262 L160.07 135.54 Q162.894 134.406 165.348 133.827 Q167.802 133.248 169.839 133.248 Q175.209 133.248 178.403 135.933 Q181.598 138.618 181.598 143.109 Q181.598 145.239 180.788 147.16 Q180.001 149.058 177.894 151.651 Q177.315 152.322 174.214 155.54 Q171.112 158.734 165.464 164.498 Z" fill="#000000" fill-rule="nonzero" fill-opacity="1" /><path clip-path="url(#clip080)" d="M201.598 136.952 Q197.987 136.952 196.158 140.517 Q194.352 144.058 194.352 151.188 Q194.352 158.294 196.158 161.859 Q197.987 165.401 201.598 165.401 Q205.232 165.401 207.037 161.859 Q208.866 158.294 208.866 151.188 Q208.866 144.058 207.037 140.517 Q205.232 136.952 201.598 136.952 M201.598 133.248 Q207.408 133.248 210.463 137.855 Q213.542 142.438 213.542 151.188 Q213.542 159.915 210.463 164.521 Q207.408 169.104 201.598 169.104 Q195.787 169.104 192.709 164.521 Q189.653 159.915 189.653 151.188 Q189.653 142.438 192.709 137.855 Q195.787 133.248 201.598 133.248 Z" fill="#000000" fill-rule="nonzero" fill-opacity="1" /><path clip-path="url(#clip080)" d="M29.7248 1045.51 L35.1993 1045.51 Q33.8307 1047.99 33.1623 1050.51 Q32.4621 1052.99 32.4621 1055.53 Q32.4621 1061.23 36.0905 1064.38 Q39.6872 1067.53 46.212 1067.53 Q52.7369 1067.53 56.3653 1064.38 Q59.9619 1061.23 59.9619 1055.53 Q59.9619 1052.99 59.2935 1050.51 Q58.5933 1047.99 57.2247 1045.51 L62.6355 1045.51 Q63.7814 1047.96 64.3543 1050.6 Q64.9272 1053.21 64.9272 1056.17 Q64.9272 1064.22 59.8664 1068.97 Q54.8057 1073.71 46.212 1073.71 Q37.491 1073.71 32.4939 1068.93 Q27.4968 1064.13 27.4968 1055.79 Q27.4968 1053.08 28.0697 1050.51 Q28.6108 1047.93 29.7248 1045.51 Z" fill="#000000" fill-rule="nonzero" fill-opacity="1" /><path clip-path="url(#clip080)" d="M32.4621 1021.51 Q32.4621 1026.22 36.1542 1028.96 Q39.8145 1031.69 46.212 1031.69 Q52.6095 1031.69 56.3017 1028.99 Q59.9619 1026.25 59.9619 1021.51 Q59.9619 1016.83 56.2698 1014.09 Q52.5777 1011.36 46.212 1011.36 Q39.8781 1011.36 36.186 1014.09 Q32.4621 1016.83 32.4621 1021.51 M27.4968 1021.51 Q27.4968 1013.87 32.4621 1009.51 Q37.4273 1005.15 46.212 1005.15 Q54.9649 1005.15 59.9619 1009.51 Q64.9272 1013.87 64.9272 1021.51 Q64.9272 1029.18 59.9619 1033.54 Q54.9649 1037.87 46.212 1037.87 Q37.4273 1037.87 32.4621 1033.54 Q27.4968 1029.18 27.4968 1021.51 Z" fill="#000000" fill-rule="nonzero" fill-opacity="1" /><path clip-path="url(#clip080)" d="M42.4881 965.81 L64.0042 965.81 L64.0042 971.666 L42.679 971.666 Q37.6183 971.666 35.1038 973.64 Q32.5894 975.613 32.5894 979.56 Q32.5894 984.302 35.6131 987.039 Q38.6368 989.777 43.8567 989.777 L64.0042 989.777 L64.0042 995.665 L28.3562 995.665 L28.3562 989.777 L33.8944 989.777 Q30.6797 987.676 29.0883 984.843 Q27.4968 981.979 27.4968 978.255 Q27.4968 972.112 31.3163 968.961 Q35.1038 965.81 42.4881 965.81 Z" fill="#000000" fill-rule="nonzero" fill-opacity="1" /><path clip-path="url(#clip080)" d="M29.7248 928.475 L35.1993 928.475 Q33.8307 930.957 33.1623 933.472 Q32.4621 935.955 32.4621 938.501 Q32.4621 944.198 36.0905 947.349 Q39.6872 950.5 46.212 950.5 Q52.7369 950.5 56.3653 947.349 Q59.9619 944.198 59.9619 938.501 Q59.9619 935.955 59.2935 933.472 Q58.5933 930.957 57.2247 928.475 L62.6355 928.475 Q63.7814 930.926 64.3543 933.567 Q64.9272 936.177 64.9272 939.137 Q64.9272 947.19 59.8664 951.932 Q54.8057 956.675 46.212 956.675 Q37.491 956.675 32.4939 951.901 Q27.4968 947.095 27.4968 938.755 Q27.4968 936.05 28.0697 933.472 Q28.6108 930.894 29.7248 928.475 Z" fill="#000000" fill-rule="nonzero" fill-opacity="1" /><path clip-path="url(#clip080)" d="M44.7161 887.798 L47.5806 887.798 L47.5806 914.725 Q53.6281 914.343 56.8109 911.096 Q59.9619 907.818 59.9619 901.993 Q59.9619 898.62 59.1344 895.469 Q58.3069 892.286 56.6518 889.167 L62.1899 889.167 Q63.5267 892.318 64.227 895.628 Q64.9272 898.938 64.9272 902.344 Q64.9272 910.874 59.9619 915.871 Q54.9967 920.836 46.5303 920.836 Q37.7774 920.836 32.6531 916.125 Q27.4968 911.383 27.4968 903.362 Q27.4968 896.169 32.1438 891.999 Q36.7589 887.798 44.7161 887.798 M42.9973 893.654 Q38.1912 893.718 35.3266 896.36 Q32.4621 898.97 32.4621 903.298 Q32.4621 908.2 35.2312 911.16 Q38.0002 914.088 43.0292 914.534 L42.9973 893.654 Z" fill="#000000" fill-rule="nonzero" fill-opacity="1" /><path clip-path="url(#clip080)" d="M42.4881 848.553 L64.0042 848.553 L64.0042 854.41 L42.679 854.41 Q37.6183 854.41 35.1038 856.383 Q32.5894 858.357 32.5894 862.303 Q32.5894 867.046 35.6131 869.783 Q38.6368 872.52 43.8567 872.52 L64.0042 872.52 L64.0042 878.409 L28.3562 878.409 L28.3562 872.52 L33.8944 872.52 Q30.6797 870.42 29.0883 867.587 Q27.4968 864.722 27.4968 860.998 Q27.4968 854.855 31.3163 851.704 Q35.1038 848.553 42.4881 848.553 Z" fill="#000000" fill-rule="nonzero" fill-opacity="1" /><path clip-path="url(#clip080)" d="M18.2347 831.08 L28.3562 831.08 L28.3562 819.016 L32.9077 819.016 L32.9077 831.08 L52.2594 831.08 Q56.6199 831.08 57.8613 829.902 Q59.1026 828.692 59.1026 825.032 L59.1026 819.016 L64.0042 819.016 L64.0042 825.032 Q64.0042 831.812 61.4897 834.39 Q58.9434 836.968 52.2594 836.968 L32.9077 836.968 L32.9077 841.265 L28.3562 841.265 L28.3562 836.968 L18.2347 836.968 L18.2347 831.08 Z" fill="#000000" fill-rule="nonzero" fill-opacity="1" /><path clip-path="url(#clip080)" d="M33.8307 790.657 Q33.2578 791.644 33.0032 792.822 Q32.7167 793.967 32.7167 795.368 Q32.7167 800.333 35.9632 803.007 Q39.1779 805.649 45.2253 805.649 L64.0042 805.649 L64.0042 811.537 L28.3562 811.537 L28.3562 805.649 L33.8944 805.649 Q30.6479 803.802 29.0883 800.842 Q27.4968 797.882 27.4968 793.649 Q27.4968 793.044 27.5923 792.312 Q27.656 791.58 27.8151 790.689 L33.8307 790.657 Z" fill="#000000" fill-rule="nonzero" fill-opacity="1" /><path clip-path="url(#clip080)" d="M46.0847 768.314 Q46.0847 775.411 47.7079 778.149 Q49.3312 780.886 53.2461 780.886 Q56.3653 780.886 58.2114 778.849 Q60.0256 776.78 60.0256 773.247 Q60.0256 768.377 56.5881 765.449 Q53.1188 762.489 47.3897 762.489 L46.0847 762.489 L46.0847 768.314 M43.6657 756.633 L64.0042 756.633 L64.0042 762.489 L58.5933 762.489 Q61.8398 764.494 63.3994 767.486 Q64.9272 770.478 64.9272 774.807 Q64.9272 780.281 61.8716 783.528 Q58.7843 786.742 53.6281 786.742 Q47.6125 786.742 44.5569 782.732 Q41.5014 778.69 41.5014 770.701 L41.5014 762.489 L40.9285 762.489 Q36.8862 762.489 34.6901 765.163 Q32.4621 767.804 32.4621 772.61 Q32.4621 775.666 33.1941 778.562 Q33.9262 781.459 35.3903 784.132 L29.9795 784.132 Q28.7381 780.918 28.1334 777.894 Q27.4968 774.87 27.4968 772.006 Q27.4968 764.271 31.5072 760.452 Q35.5176 756.633 43.6657 756.633 Z" fill="#000000" fill-rule="nonzero" fill-opacity="1" /><path clip-path="url(#clip080)" d="M18.2347 738.777 L28.3562 738.777 L28.3562 726.714 L32.9077 726.714 L32.9077 738.777 L52.2594 738.777 Q56.6199 738.777 57.8613 737.599 Q59.1026 736.39 59.1026 732.729 L59.1026 726.714 L64.0042 726.714 L64.0042 732.729 Q64.0042 739.509 61.4897 742.087 Q58.9434 744.665 52.2594 744.665 L32.9077 744.665 L32.9077 748.962 L28.3562 748.962 L28.3562 744.665 L18.2347 744.665 L18.2347 738.777 Z" fill="#000000" fill-rule="nonzero" fill-opacity="1" /><path clip-path="url(#clip080)" d="M28.3562 719.011 L28.3562 713.155 L64.0042 713.155 L64.0042 719.011 L28.3562 719.011 M14.479 719.011 L14.479 713.155 L21.895 713.155 L21.895 719.011 L14.479 719.011 Z" fill="#000000" fill-rule="nonzero" fill-opacity="1" /><path clip-path="url(#clip080)" d="M32.4621 687.087 Q32.4621 691.798 36.1542 694.535 Q39.8145 697.272 46.212 697.272 Q52.6095 697.272 56.3017 694.567 Q59.9619 691.83 59.9619 687.087 Q59.9619 682.408 56.2698 679.671 Q52.5777 676.934 46.212 676.934 Q39.8781 676.934 36.186 679.671 Q32.4621 682.408 32.4621 687.087 M27.4968 687.087 Q27.4968 679.448 32.4621 675.088 Q37.4273 670.727 46.212 670.727 Q54.9649 670.727 59.9619 675.088 Q64.9272 679.448 64.9272 687.087 Q64.9272 694.758 59.9619 699.118 Q54.9649 703.447 46.212 703.447 Q37.4273 703.447 32.4621 699.118 Q27.4968 694.758 27.4968 687.087 Z" fill="#000000" fill-rule="nonzero" fill-opacity="1" /><path clip-path="url(#clip080)" d="M42.4881 631.387 L64.0042 631.387 L64.0042 637.244 L42.679 637.244 Q37.6183 637.244 35.1038 639.217 Q32.5894 641.19 32.5894 645.137 Q32.5894 649.88 35.6131 652.617 Q38.6368 655.354 43.8567 655.354 L64.0042 655.354 L64.0042 661.242 L28.3562 661.242 L28.3562 655.354 L33.8944 655.354 Q30.6797 653.253 29.0883 650.421 Q27.4968 647.556 27.4968 643.832 Q27.4968 637.689 31.3163 634.538 Q35.1038 631.387 42.4881 631.387 Z" fill="#000000" fill-rule="nonzero" fill-opacity="1" /><path clip-path="url(#clip080)" d="M14.5426 584.918 Q21.8632 589.183 29.0246 591.252 Q36.186 593.32 43.5384 593.32 Q50.8908 593.32 58.1159 591.252 Q65.3091 589.151 72.5979 584.918 L72.5979 590.01 Q65.1182 594.784 57.8931 597.172 Q50.668 599.527 43.5384 599.527 Q36.4406 599.527 29.2474 597.172 Q22.0542 594.816 14.5426 590.01 L14.5426 584.918 Z" fill="#000000" fill-rule="nonzero" fill-opacity="1" /><path clip-path="url(#clip080)" d="M35.1993 545.8 Q31.2526 543.604 29.3747 540.549 Q27.4968 537.493 27.4968 533.355 Q27.4968 527.785 31.4117 524.762 Q35.2948 521.738 42.4881 521.738 L64.0042 521.738 L64.0042 527.626 L42.679 527.626 Q37.5546 527.626 35.072 529.441 Q32.5894 531.255 32.5894 534.979 Q32.5894 539.53 35.6131 542.172 Q38.6368 544.814 43.8567 544.814 L64.0042 544.814 L64.0042 550.702 L42.679 550.702 Q37.5228 550.702 35.072 552.516 Q32.5894 554.33 32.5894 558.118 Q32.5894 562.606 35.6449 565.248 Q38.6686 567.889 43.8567 567.889 L64.0042 567.889 L64.0042 573.778 L28.3562 573.778 L28.3562 567.889 L33.8944 567.889 Q30.616 565.884 29.0564 563.083 Q27.4968 560.282 27.4968 556.431 Q27.4968 552.548 29.4702 549.843 Q31.4436 547.105 35.1993 545.8 Z" fill="#000000" fill-rule="nonzero" fill-opacity="1" /><path clip-path="url(#clip080)" d="M45.7664 486.599 Q39.4007 486.599 35.8996 489.241 Q32.3984 491.851 32.3984 496.593 Q32.3984 501.304 35.8996 503.946 Q39.4007 506.556 45.7664 506.556 Q52.1003 506.556 55.6014 503.946 Q59.1026 501.304 59.1026 496.593 Q59.1026 491.851 55.6014 489.241 Q52.1003 486.599 45.7664 486.599 M59.58 480.743 Q68.683 480.743 73.1071 484.785 Q77.5631 488.827 77.5631 497.166 Q77.5631 500.254 77.0857 502.991 Q76.6401 505.728 75.6852 508.306 L69.9879 508.306 Q71.3884 505.728 72.0568 503.214 Q72.7252 500.699 72.7252 498.089 Q72.7252 492.328 69.7015 489.464 Q66.7096 486.599 60.6303 486.599 L57.7339 486.599 Q60.885 488.414 62.4446 491.246 Q64.0042 494.079 64.0042 498.026 Q64.0042 504.582 59.0071 508.593 Q54.01 512.603 45.7664 512.603 Q37.491 512.603 32.4939 508.593 Q27.4968 504.582 27.4968 498.026 Q27.4968 494.079 29.0564 491.246 Q30.616 488.414 33.7671 486.599 L28.3562 486.599 L28.3562 480.743 L59.58 480.743 Z" fill="#000000" fill-rule="nonzero" fill-opacity="1" /><path clip-path="url(#clip080)" d="M16.4842 458.272 L16.4842 452.861 L70.0516 469.412 L70.0516 474.823 L16.4842 458.272 Z" fill="#000000" fill-rule="nonzero" fill-opacity="1" /><path clip-path="url(#clip080)" d="M16.4842 446.464 L16.4842 440.034 L58.5933 440.034 L58.5933 416.895 L64.0042 416.895 L64.0042 446.464 L16.4842 446.464 Z" fill="#000000" fill-rule="nonzero" fill-opacity="1" /><path clip-path="url(#clip080)" d="M14.5426 411.325 L14.5426 406.232 Q22.0542 401.458 29.2474 399.103 Q36.4406 396.716 43.5384 396.716 Q50.668 396.716 57.8931 399.103 Q65.1182 401.458 72.5979 406.232 L72.5979 411.325 Q65.3091 407.092 58.1159 405.023 Q50.8908 402.922 43.5384 402.922 Q36.186 402.922 29.0246 405.023 Q21.8632 407.092 14.5426 411.325 Z" fill="#000000" fill-rule="nonzero" fill-opacity="1" /><polyline clip-path="url(#clip082)" style="stroke:#66a61e; stroke-linecap:round; stroke-linejoin:round; stroke-width:4; stroke-opacity:1; fill:none" stroke-dasharray="16, 10" points="249.542,96.9743 263.235,97.5525 389.847,104.293 465.936,109.733 530.268,115.3 600.151,122.477 664.576,130.358 733.647,140.214 813.673,153.678 884.79,167.869 947.153,181.967 981.15,190.125 1015.15,198.788 1049.34,208.267 1083.54,218.418 1121.35,230.355 1159.16,242.782 1195.14,255.582 1231.12,268.855 1268.52,283.445 1305.93,298.802 1337.42,312.302 1368.91,326.296 1407.35,344.082 1445.79,362.722 1481.01,380.65 1516.23,399.146 1548.75,416.781 1581.28,435.043 1614.23,454.024 1647.18,473.602 1721.02,519.283 1787.94,562.716 1864.56,614.617 1935.51,664.368 2005.45,714.719 2073.35,764.476 2142.96,815.945 2219.23,872.445 2330.03,953.537 2352.76,969.887 "/>
<polyline clip-path="url(#clip082)" style="stroke:#66a61e; stroke-linecap:round; stroke-linejoin:round; stroke-width:4; stroke-opacity:1; fill:none" stroke-dasharray="16, 10" points="249.542,86.5507 263.235,86.5711 389.847,87.3284 465.936,88.2706 530.268,89.5852 600.151,91.7097 664.576,94.6182 733.647,99.4694 813.673,107.849 849.231,112.546 884.79,118.292 915.972,124.222 947.153,131.154 981.15,139.95 1015.15,149.988 1049.34,161.55 1083.54,174.849 1121.35,191.544 1159.16,210.652 1195.14,231.233 1231.12,254.362 1268.52,281.068 1305.93,310.761 1337.42,338.144 1368.91,367.72 1407.35,406.791 1445.79,449.126 1481.01,490.666 1516.23,534.766 1548.75,577.61 1581.28,622.225 1614.23,669.128 1647.18,717.386 1721.02,829.031 1787.94,931.439 1826.25,989.205 1864.56,1045.45 1900.03,1095.56 1935.51,1143.17 1952.99,1165.54 1970.48,1187.1 1987.96,1207.78 2005.45,1227.55 2022.42,1245.79 2039.4,1263.08 2056.38,1279.31 2073.35,1294.48 2090.76,1308.9 2108.16,1322.11 2125.56,1334.09 2142.96,1344.82 2162.03,1355.09 2181.1,1363.84 2200.17,1371.02 2219.23,1376.64 2246.93,1382.05 2274.63,1384.24 2302.33,1383.31 2330.03,1379.4 2335.71,1378.26 2341.39,1376.98 2347.07,1375.62 2352.76,1374.08 "/>
<polyline clip-path="url(#clip082)" style="stroke:#66a61e; stroke-linecap:round; stroke-linejoin:round; stroke-width:4; stroke-opacity:1; fill:none" stroke-dasharray="16, 10" points="249.542,86.2143 263.235,86.2171 389.847,86.2343 465.936,86.2445 530.268,86.2967 600.151,86.3787 664.576,87.3609 733.647,88.224 813.673,90.8382 884.79,96.1025 947.153,103.75 981.15,109.938 1015.15,117.93 1049.34,128.197 1083.54,141.129 1102.45,149.59 1121.35,159.193 1140.26,169.885 1159.16,181.879 1177.15,194.522 1195.14,208.425 1213.13,223.723 1231.12,240.475 1249.82,259.484 1268.52,280.178 1287.23,302.653 1305.93,326.905 1321.67,348.773 1337.42,371.921 1353.16,396.411 1368.91,422.191 1388.13,455.409 1407.35,490.504 1426.57,527.359 1445.79,565.911 1463.4,602.56 1481.01,640.368 1498.62,679.183 1516.23,718.837 1548.75,793.652 1581.28,869.308 1614.23,945.258 1647.18,1018.8 1665.64,1058.3 1684.1,1096.18 1702.56,1132.13 1721.02,1165.88 1737.75,1194.32 1754.48,1220.54 1771.21,1244.39 1787.94,1265.71 1797.52,1276.73 1807.1,1286.87 1816.68,1296.11 1826.25,1304.45 1835.83,1311.87 1845.41,1318.37 1854.99,1323.94 1864.56,1328.61 1882.3,1334.84 1900.03,1338.04 1917.77,1338.3 1935.51,1335.79 1952.99,1330.81 1970.48,1323.55 1987.96,1314.28 2005.45,1303.27 2039.4,1278.11 2073.35,1249.94 2108.16,1220.49 2142.96,1192.93 2162.03,1179.45 2181.1,1167.45 2200.17,1157.26 2219.23,1148.98 2233.08,1144.3 2246.93,1140.75 2260.78,1138.3 2274.63,1137.03 2288.48,1136.85 2302.33,1137.72 2316.18,1139.6 2330.03,1142.41 2335.71,1143.81 2341.39,1145.38 2347.07,1147.03 2352.76,1148.83 "/>
<polyline clip-path="url(#clip082)" style="stroke:#66a61e; stroke-linecap:round; stroke-linejoin:round; stroke-width:4; stroke-opacity:1; fill:none" stroke-dasharray="16, 10" points="249.542,86.2091 263.235,86.2066 389.847,86.2225 465.936,86.2278 530.268,86.3733 600.151,86.1857 664.576,86.2684 733.647,86.3521 813.673,86.7895 884.79,88.1469 947.153,91.2331 981.15,94.3977 1015.15,99.2455 1032.25,102.537 1049.34,106.543 1066.44,111.384 1083.54,117.198 1102.45,124.936 1121.35,134.274 1140.26,145.433 1159.16,158.672 1177.15,173.427 1195.14,190.506 1213.13,210.127 1231.12,232.493 1240.47,245.263 1249.82,258.849 1259.17,273.261 1268.52,288.519 1277.88,304.643 1287.23,321.635 1296.58,339.498 1305.93,358.239 1321.67,391.757 1337.42,427.685 1353.16,465.935 1368.91,506.351 1388.13,558.353 1407.35,612.837 1426.57,669.239 1445.79,726.894 1463.4,780.164 1481.01,833.222 1498.62,885.406 1516.23,936.041 1524.36,958.715 1532.49,980.855 1540.62,1002.39 1548.75,1023.27 1556.89,1043.44 1565.02,1062.83 1573.15,1081.41 1581.28,1099.12 1589.52,1116.13 1597.75,1132.17 1605.99,1147.21 1614.23,1161.22 1622.46,1174.19 1630.7,1186.08 1638.94,1196.91 1647.18,1206.66 1656.41,1216.32 1665.64,1224.65 1674.87,1231.69 1684.1,1237.46 1693.33,1242.02 1702.56,1245.42 1711.79,1247.72 1721.02,1248.99 1737.75,1248.94 1754.48,1246.27 1771.21,1241.53 1787.94,1235.28 1826.25,1218.2 1864.56,1201.93 1882.3,1195.88 1900.03,1191.14 1917.77,1187.82 1935.51,1185.91 1970.48,1185.91 2005.45,1189.52 2039.4,1194.53 2073.35,1199.19 2108.16,1202.32 2142.96,1203.28 2181.1,1202.22 2219.23,1200.03 2274.63,1197.29 2330.03,1196.78 2341.39,1196.95 2352.76,1197.18 "/>
<polyline clip-path="url(#clip082)" style="stroke:#66a61e; stroke-linecap:round; stroke-linejoin:round; stroke-width:4; stroke-opacity:1; fill:none" stroke-dasharray="16, 10" points="249.542,86.2251 263.235,86.2387 389.847,86.2368 465.936,86.4044 530.268,86.2431 600.151,86.2035 664.576,86.2167 733.647,86.2143 813.673,86.2379 884.79,86.4342 947.153,87.2627 981.15,88.5003 1015.15,90.9479 1032.25,92.9126 1049.34,95.5745 1066.44,99.1316 1083.54,103.82 1102.45,110.653 1121.35,119.629 1130.81,125.066 1140.26,131.222 1149.71,138.158 1159.16,145.938 1168.16,154.186 1177.15,163.315 1186.15,173.376 1195.14,184.427 1204.13,196.51 1213.13,209.671 1222.12,223.952 1231.12,239.378 1240.47,256.667 1249.82,275.244 1259.17,295.114 1268.52,316.277 1277.88,338.716 1287.23,362.398 1296.58,387.279 1305.93,413.304 1321.67,459.487 1337.42,508.26 1353.16,559.088 1368.91,611.342 1388.13,676.068 1407.35,740.551 1426.57,803.449 1445.79,863.48 1454.6,889.702 1463.4,914.99 1472.21,939.255 1481.01,962.431 1489.82,984.45 1498.62,1005.27 1507.42,1024.86 1516.23,1043.18 1524.36,1058.98 1532.49,1073.71 1540.62,1087.36 1548.75,1099.96 1556.89,1111.53 1565.02,1122.11 1573.15,1131.73 1581.28,1140.44 1589.52,1148.37 1597.75,1155.45 1605.99,1161.75 1614.23,1167.32 1630.7,1176.48 1647.18,1183.38 1665.64,1188.94 1684.1,1192.72 1702.56,1195.2 1721.02,1196.75 1754.48,1198.1 1787.94,1198.53 1864.56,1198.62 1935.51,1198.6 2005.45,1198.61 2073.35,1198.6 2142.96,1198.61 2219.23,1198.61 2330.03,1198.61 2352.76,1198.61 "/>
<polyline clip-path="url(#clip082)" style="stroke:#66a61e; stroke-linecap:round; stroke-linejoin:round; stroke-width:12; stroke-opacity:1; fill:none" points="249.542,86.2111 263.235,86.2111 389.847,86.2111 465.936,86.2111 530.268,86.2111 600.151,86.2111 664.576,86.2111 733.647,86.2114 813.673,86.2187 884.79,86.2994 947.153,86.7883 981.15,87.6612 1015.15,89.6074 1032.25,91.2876 1049.34,93.6695 1066.44,96.9839 1083.54,101.512 1102.45,108.331 1121.35,117.555 1130.81,123.246 1140.26,129.758 1149.71,137.166 1159.16,145.547 1168.16,154.496 1177.15,164.458 1186.15,175.494 1195.14,187.659 1204.13,201.002 1213.13,215.566 1222.12,231.383 1231.12,248.479 1240.47,267.624 1249.82,288.165 1259.17,310.089 1268.52,333.366 1277.88,357.949 1287.23,383.777 1296.58,410.77 1305.93,438.835 1321.67,488.195 1337.42,539.671 1353.16,592.573 1368.91,646.15 1388.13,711.343 1407.35,774.99 1416.96,805.822 1426.57,835.797 1436.18,864.779 1445.79,892.653 1454.6,917.127 1463.4,940.52 1472.21,962.779 1481.01,983.865 1489.82,1003.75 1498.62,1022.42 1507.42,1039.87 1516.23,1056.1 1524.36,1070.03 1532.49,1082.96 1540.62,1094.92 1548.75,1105.93 1556.89,1116.04 1565.02,1125.28 1573.15,1133.69 1581.28,1141.33 1597.75,1154.59 1614.23,1165.24 1630.7,1173.65 1647.18,1180.2 1665.64,1185.73 1684.1,1189.75 1702.56,1192.63 1721.02,1194.64 1754.48,1196.8 1787.94,1197.83 1864.56,1198.52 1935.51,1198.6 2005.45,1198.6 2073.35,1198.61 2142.96,1198.61 2219.23,1198.61 2330.03,1198.61 2352.76,1198.61 "/>
<polyline clip-path="url(#clip082)" style="stroke:#d95f02; stroke-linecap:round; stroke-linejoin:round; stroke-width:8; stroke-opacity:1; fill:none" stroke-dasharray="32, 16, 4, 16" points="249.542,86.2111 263.235,86.2111 389.847,86.2111 465.936,86.2111 530.268,86.2111 600.151,86.2111 664.576,86.2111 733.647,86.2112 813.673,86.2151 884.79,86.2723 947.153,86.6877 981.15,87.4989 1015.15,89.4092 1032.25,91.1102 1049.34,93.5657 1066.44,97.0346 1083.54,101.832 1102.45,109.132 1121.35,119.084 1130.81,125.249 1140.26,132.315 1149.71,140.366 1159.16,149.48 1168.16,159.213 1177.15,170.044 1186.15,182.032 1195.14,195.23 1204.13,209.682 1213.13,225.424 1222.12,242.479 1231.12,260.86 1240.47,281.379 1249.82,303.315 1259.17,326.637 1268.52,351.295 1277.88,377.222 1287.23,404.334 1296.58,432.532 1305.93,461.701 1321.67,512.64 1337.42,565.279 1353.16,618.867 1368.91,672.62 1388.13,737.331 1407.35,799.773 1416.96,829.763 1426.57,858.755 1436.18,886.636 1445.79,913.308 1454.6,936.612 1463.4,958.786 1472.21,979.795 1481.01,999.614 1489.82,1018.23 1498.62,1035.65 1507.42,1051.87 1516.23,1066.91 1524.36,1079.79 1532.49,1091.71 1540.62,1102.71 1548.75,1112.83 1556.89,1122.09 1565.02,1130.56 1573.15,1138.26 1581.28,1145.25 1597.75,1157.38 1614.23,1167.14 1630.7,1174.87 1647.18,1180.91 1665.64,1186.05 1684.1,1189.83 1702.56,1192.56 1721.02,1194.51 1754.48,1196.65 1787.94,1197.72 1864.56,1198.48 1935.51,1198.59 2005.45,1198.6 2073.35,1198.61 2142.96,1198.61 2219.23,1198.61 2330.03,1198.61 2352.76,1198.61 "/>
<path clip-path="url(#clip080)" d="M319.649 962.516 L1147.1 962.516 L1147.1 547.796 L319.649 547.796  Z" fill="#ffffff" fill-rule="evenodd" fill-opacity="1"/>
<polyline clip-path="url(#clip080)" style="stroke:#000000; stroke-linecap:round; stroke-linejoin:round; stroke-width:4; stroke-opacity:1; fill:none" points="319.649,962.516 1147.1,962.516 1147.1,547.796 319.649,547.796 319.649,962.516 "/>
<polyline clip-path="url(#clip080)" style="stroke:#66a61e; stroke-linecap:round; stroke-linejoin:round; stroke-width:4; stroke-opacity:1; fill:none" stroke-dasharray="16, 10" points="343.018,599.636 483.232,599.636 "/>
<path clip-path="url(#clip080)" d="M528.314 601.268 L528.314 616.916 L524.055 616.916 L524.055 601.407 Q524.055 597.727 522.62 595.898 Q521.185 594.069 518.314 594.069 Q514.865 594.069 512.875 596.268 Q510.884 598.468 510.884 602.264 L510.884 616.916 L506.602 616.916 L506.602 590.991 L510.884 590.991 L510.884 595.018 Q512.412 592.681 514.472 591.523 Q516.555 590.366 519.263 590.366 Q523.731 590.366 526.023 593.143 Q528.314 595.898 528.314 601.268 Z" fill="#000000" fill-rule="nonzero" fill-opacity="1" /><path clip-path="url(#clip080)" d="M537.365 595.389 L567.041 595.389 L567.041 599.278 L537.365 599.278 L537.365 595.389 M537.365 604.833 L567.041 604.833 L567.041 608.768 L537.365 608.768 L537.365 604.833 Z" fill="#000000" fill-rule="nonzero" fill-opacity="1" /><path clip-path="url(#clip080)" d="M577.944 612.981 L585.583 612.981 L585.583 586.616 L577.272 588.282 L577.272 584.023 L585.536 582.356 L590.212 582.356 L590.212 612.981 L597.851 612.981 L597.851 616.916 L577.944 616.916 L577.944 612.981 Z" fill="#000000" fill-rule="nonzero" fill-opacity="1" /><path clip-path="url(#clip080)" d="M617.295 585.435 Q613.684 585.435 611.856 589 Q610.05 592.542 610.05 599.671 Q610.05 606.778 611.856 610.342 Q613.684 613.884 617.295 613.884 Q620.93 613.884 622.735 610.342 Q624.564 606.778 624.564 599.671 Q624.564 592.542 622.735 589 Q620.93 585.435 617.295 585.435 M617.295 581.731 Q623.106 581.731 626.161 586.338 Q629.24 590.921 629.24 599.671 Q629.24 608.398 626.161 613.004 Q623.106 617.588 617.295 617.588 Q611.485 617.588 608.407 613.004 Q605.351 608.398 605.351 599.671 Q605.351 590.921 608.407 586.338 Q611.485 581.731 617.295 581.731 Z" fill="#000000" fill-rule="nonzero" fill-opacity="1" /><polyline clip-path="url(#clip080)" style="stroke:#66a61e; stroke-linecap:round; stroke-linejoin:round; stroke-width:4; stroke-opacity:1; fill:none" stroke-dasharray="16, 10" points="343.018,651.476 483.232,651.476 "/>
<path clip-path="url(#clip080)" d="M528.314 653.108 L528.314 668.756 L524.055 668.756 L524.055 653.247 Q524.055 649.567 522.62 647.738 Q521.185 645.909 518.314 645.909 Q514.865 645.909 512.875 648.108 Q510.884 650.308 510.884 654.104 L510.884 668.756 L506.602 668.756 L506.602 642.831 L510.884 642.831 L510.884 646.858 Q512.412 644.521 514.472 643.363 Q516.555 642.206 519.263 642.206 Q523.731 642.206 526.023 644.983 Q528.314 647.738 528.314 653.108 Z" fill="#000000" fill-rule="nonzero" fill-opacity="1" /><path clip-path="url(#clip080)" d="M537.365 647.229 L567.041 647.229 L567.041 651.118 L537.365 651.118 L537.365 647.229 M537.365 656.673 L567.041 656.673 L567.041 660.608 L537.365 660.608 L537.365 656.673 Z" fill="#000000" fill-rule="nonzero" fill-opacity="1" /><path clip-path="url(#clip080)" d="M581.161 664.821 L597.481 664.821 L597.481 668.756 L575.536 668.756 L575.536 664.821 Q578.198 662.067 582.782 657.437 Q587.388 652.784 588.569 651.442 Q590.814 648.919 591.694 647.183 Q592.596 645.423 592.596 643.733 Q592.596 640.979 590.652 639.243 Q588.731 637.507 585.629 637.507 Q583.43 637.507 580.976 638.271 Q578.546 639.034 575.768 640.585 L575.768 635.863 Q578.592 634.729 581.046 634.15 Q583.499 633.571 585.536 633.571 Q590.907 633.571 594.101 636.257 Q597.295 638.942 597.295 643.433 Q597.295 645.562 596.485 647.483 Q595.698 649.382 593.592 651.974 Q593.013 652.645 589.911 655.863 Q586.809 659.057 581.161 664.821 Z" fill="#000000" fill-rule="nonzero" fill-opacity="1" /><path clip-path="url(#clip080)" d="M607.342 634.196 L625.698 634.196 L625.698 638.132 L611.624 638.132 L611.624 646.604 Q612.643 646.257 613.661 646.095 Q614.68 645.909 615.698 645.909 Q621.485 645.909 624.865 649.081 Q628.244 652.252 628.244 657.669 Q628.244 663.247 624.772 666.349 Q621.3 669.428 614.981 669.428 Q612.805 669.428 610.536 669.057 Q608.291 668.687 605.883 667.946 L605.883 663.247 Q607.967 664.382 610.189 664.937 Q612.411 665.493 614.888 665.493 Q618.893 665.493 621.231 663.386 Q623.568 661.28 623.568 657.669 Q623.568 654.057 621.231 651.951 Q618.893 649.845 614.888 649.845 Q613.013 649.845 611.138 650.261 Q609.286 650.678 607.342 651.558 L607.342 634.196 Z" fill="#000000" fill-rule="nonzero" fill-opacity="1" /><polyline clip-path="url(#clip080)" style="stroke:#66a61e; stroke-linecap:round; stroke-linejoin:round; stroke-width:4; stroke-opacity:1; fill:none" stroke-dasharray="16, 10" points="343.018,703.316 483.232,703.316 "/>
<path clip-path="url(#clip080)" d="M528.314 704.948 L528.314 720.596 L524.055 720.596 L524.055 705.087 Q524.055 701.407 522.62 699.578 Q521.185 697.749 518.314 697.749 Q514.865 697.749 512.875 699.948 Q510.884 702.148 510.884 705.944 L510.884 720.596 L506.602 720.596 L506.602 694.671 L510.884 694.671 L510.884 698.698 Q512.412 696.361 514.472 695.203 Q516.555 694.046 519.263 694.046 Q523.731 694.046 526.023 696.823 Q528.314 699.578 528.314 704.948 Z" fill="#000000" fill-rule="nonzero" fill-opacity="1" /><path clip-path="url(#clip080)" d="M537.365 699.069 L567.041 699.069 L567.041 702.958 L537.365 702.958 L537.365 699.069 M537.365 708.513 L567.041 708.513 L567.041 712.448 L537.365 712.448 L537.365 708.513 Z" fill="#000000" fill-rule="nonzero" fill-opacity="1" /><path clip-path="url(#clip080)" d="M577.18 686.036 L595.536 686.036 L595.536 689.972 L581.462 689.972 L581.462 698.444 Q582.481 698.097 583.499 697.935 Q584.518 697.749 585.536 697.749 Q591.323 697.749 594.703 700.921 Q598.082 704.092 598.082 709.509 Q598.082 715.087 594.61 718.189 Q591.138 721.268 584.819 721.268 Q582.643 721.268 580.374 720.897 Q578.129 720.527 575.722 719.786 L575.722 715.087 Q577.805 716.222 580.027 716.777 Q582.249 717.333 584.726 717.333 Q588.731 717.333 591.069 715.226 Q593.407 713.12 593.407 709.509 Q593.407 705.897 591.069 703.791 Q588.731 701.685 584.726 701.685 Q582.851 701.685 580.976 702.101 Q579.124 702.518 577.18 703.398 L577.18 686.036 Z" fill="#000000" fill-rule="nonzero" fill-opacity="1" /><path clip-path="url(#clip080)" d="M617.295 689.115 Q613.684 689.115 611.856 692.68 Q610.05 696.222 610.05 703.351 Q610.05 710.458 611.856 714.022 Q613.684 717.564 617.295 717.564 Q620.93 717.564 622.735 714.022 Q624.564 710.458 624.564 703.351 Q624.564 696.222 622.735 692.68 Q620.93 689.115 617.295 689.115 M617.295 685.411 Q623.106 685.411 626.161 690.018 Q629.24 694.601 629.24 703.351 Q629.24 712.078 626.161 716.684 Q623.106 721.268 617.295 721.268 Q611.485 721.268 608.407 716.684 Q605.351 712.078 605.351 703.351 Q605.351 694.601 608.407 690.018 Q611.485 685.411 617.295 685.411 Z" fill="#000000" fill-rule="nonzero" fill-opacity="1" /><polyline clip-path="url(#clip080)" style="stroke:#66a61e; stroke-linecap:round; stroke-linejoin:round; stroke-width:4; stroke-opacity:1; fill:none" stroke-dasharray="16, 10" points="343.018,755.156 483.232,755.156 "/>
<path clip-path="url(#clip080)" d="M528.314 756.788 L528.314 772.436 L524.055 772.436 L524.055 756.927 Q524.055 753.247 522.62 751.418 Q521.185 749.589 518.314 749.589 Q514.865 749.589 512.875 751.788 Q510.884 753.988 510.884 757.784 L510.884 772.436 L506.602 772.436 L506.602 746.511 L510.884 746.511 L510.884 750.538 Q512.412 748.201 514.472 747.043 Q516.555 745.886 519.263 745.886 Q523.731 745.886 526.023 748.663 Q528.314 751.418 528.314 756.788 Z" fill="#000000" fill-rule="nonzero" fill-opacity="1" /><path clip-path="url(#clip080)" d="M537.365 750.909 L567.041 750.909 L567.041 754.798 L537.365 754.798 L537.365 750.909 M537.365 760.353 L567.041 760.353 L567.041 764.288 L537.365 764.288 L537.365 760.353 Z" fill="#000000" fill-rule="nonzero" fill-opacity="1" /><path clip-path="url(#clip080)" d="M577.944 768.501 L585.583 768.501 L585.583 742.136 L577.272 743.802 L577.272 739.543 L585.536 737.876 L590.212 737.876 L590.212 768.501 L597.851 768.501 L597.851 772.436 L577.944 772.436 L577.944 768.501 Z" fill="#000000" fill-rule="nonzero" fill-opacity="1" /><path clip-path="url(#clip080)" d="M617.295 740.955 Q613.684 740.955 611.856 744.52 Q610.05 748.062 610.05 755.191 Q610.05 762.298 611.856 765.862 Q613.684 769.404 617.295 769.404 Q620.93 769.404 622.735 765.862 Q624.564 762.298 624.564 755.191 Q624.564 748.062 622.735 744.52 Q620.93 740.955 617.295 740.955 M617.295 737.251 Q623.106 737.251 626.161 741.858 Q629.24 746.441 629.24 755.191 Q629.24 763.918 626.161 768.524 Q623.106 773.108 617.295 773.108 Q611.485 773.108 608.407 768.524 Q605.351 763.918 605.351 755.191 Q605.351 746.441 608.407 741.858 Q611.485 737.251 617.295 737.251 Z" fill="#000000" fill-rule="nonzero" fill-opacity="1" /><path clip-path="url(#clip080)" d="M647.457 740.955 Q643.846 740.955 642.017 744.52 Q640.212 748.062 640.212 755.191 Q640.212 762.298 642.017 765.862 Q643.846 769.404 647.457 769.404 Q651.091 769.404 652.897 765.862 Q654.726 762.298 654.726 755.191 Q654.726 748.062 652.897 744.52 Q651.091 740.955 647.457 740.955 M647.457 737.251 Q653.267 737.251 656.323 741.858 Q659.402 746.441 659.402 755.191 Q659.402 763.918 656.323 768.524 Q653.267 773.108 647.457 773.108 Q641.647 773.108 638.568 768.524 Q635.513 763.918 635.513 755.191 Q635.513 746.441 638.568 741.858 Q641.647 737.251 647.457 737.251 Z" fill="#000000" fill-rule="nonzero" fill-opacity="1" /><polyline clip-path="url(#clip080)" style="stroke:#66a61e; stroke-linecap:round; stroke-linejoin:round; stroke-width:4; stroke-opacity:1; fill:none" stroke-dasharray="16, 10" points="343.018,806.996 483.232,806.996 "/>
<path clip-path="url(#clip080)" d="M528.314 808.628 L528.314 824.276 L524.055 824.276 L524.055 808.767 Q524.055 805.087 522.62 803.258 Q521.185 801.429 518.314 801.429 Q514.865 801.429 512.875 803.628 Q510.884 805.828 510.884 809.624 L510.884 824.276 L506.602 824.276 L506.602 798.351 L510.884 798.351 L510.884 802.378 Q512.412 800.041 514.472 798.883 Q516.555 797.726 519.263 797.726 Q523.731 797.726 526.023 800.503 Q528.314 803.258 528.314 808.628 Z" fill="#000000" fill-rule="nonzero" fill-opacity="1" /><path clip-path="url(#clip080)" d="M537.365 802.749 L567.041 802.749 L567.041 806.638 L537.365 806.638 L537.365 802.749 M537.365 812.193 L567.041 812.193 L567.041 816.128 L537.365 816.128 L537.365 812.193 Z" fill="#000000" fill-rule="nonzero" fill-opacity="1" /><path clip-path="url(#clip080)" d="M581.161 820.341 L597.481 820.341 L597.481 824.276 L575.536 824.276 L575.536 820.341 Q578.198 817.587 582.782 812.957 Q587.388 808.304 588.569 806.962 Q590.814 804.439 591.694 802.703 Q592.596 800.943 592.596 799.253 Q592.596 796.499 590.652 794.763 Q588.731 793.027 585.629 793.027 Q583.43 793.027 580.976 793.791 Q578.546 794.554 575.768 796.105 L575.768 791.383 Q578.592 790.249 581.046 789.67 Q583.499 789.091 585.536 789.091 Q590.907 789.091 594.101 791.777 Q597.295 794.462 597.295 798.953 Q597.295 801.082 596.485 803.003 Q595.698 804.902 593.592 807.494 Q593.013 808.165 589.911 811.383 Q586.809 814.577 581.161 820.341 Z" fill="#000000" fill-rule="nonzero" fill-opacity="1" /><path clip-path="url(#clip080)" d="M607.342 789.716 L625.698 789.716 L625.698 793.652 L611.624 793.652 L611.624 802.124 Q612.643 801.777 613.661 801.615 Q614.68 801.429 615.698 801.429 Q621.485 801.429 624.865 804.601 Q628.244 807.772 628.244 813.189 Q628.244 818.767 624.772 821.869 Q621.3 824.948 614.981 824.948 Q612.805 824.948 610.536 824.577 Q608.291 824.207 605.883 823.466 L605.883 818.767 Q607.967 819.902 610.189 820.457 Q612.411 821.013 614.888 821.013 Q618.893 821.013 621.231 818.906 Q623.568 816.8 623.568 813.189 Q623.568 809.577 621.231 807.471 Q618.893 805.365 614.888 805.365 Q613.013 805.365 611.138 805.781 Q609.286 806.198 607.342 807.078 L607.342 789.716 Z" fill="#000000" fill-rule="nonzero" fill-opacity="1" /><path clip-path="url(#clip080)" d="M647.457 792.795 Q643.846 792.795 642.017 796.36 Q640.212 799.902 640.212 807.031 Q640.212 814.138 642.017 817.702 Q643.846 821.244 647.457 821.244 Q651.091 821.244 652.897 817.702 Q654.726 814.138 654.726 807.031 Q654.726 799.902 652.897 796.36 Q651.091 792.795 647.457 792.795 M647.457 789.091 Q653.267 789.091 656.323 793.698 Q659.402 798.281 659.402 807.031 Q659.402 815.758 656.323 820.364 Q653.267 824.948 647.457 824.948 Q641.647 824.948 638.568 820.364 Q635.513 815.758 635.513 807.031 Q635.513 798.281 638.568 793.698 Q641.647 789.091 647.457 789.091 Z" fill="#000000" fill-rule="nonzero" fill-opacity="1" /><polyline clip-path="url(#clip080)" style="stroke:#66a61e; stroke-linecap:round; stroke-linejoin:round; stroke-width:12; stroke-opacity:1; fill:none" points="343.018,858.836 483.232,858.836 "/>
<path clip-path="url(#clip080)" d="M506.602 841.556 L513.569 841.556 L522.388 865.075 L531.254 841.556 L538.222 841.556 L538.222 876.116 L533.662 876.116 L533.662 845.769 L524.75 869.473 L520.051 869.473 L511.139 845.769 L511.139 876.116 L506.602 876.116 L506.602 841.556 Z" fill="#000000" fill-rule="nonzero" fill-opacity="1" /><path clip-path="url(#clip080)" d="M569.495 862.089 L569.495 864.172 L549.911 864.172 Q550.189 868.57 552.55 870.885 Q554.935 873.177 559.171 873.177 Q561.624 873.177 563.916 872.575 Q566.231 871.973 568.499 870.769 L568.499 874.797 Q566.208 875.769 563.8 876.279 Q561.393 876.788 558.916 876.788 Q552.712 876.788 549.078 873.177 Q545.467 869.566 545.467 863.408 Q545.467 857.043 548.893 853.316 Q552.342 849.566 558.175 849.566 Q563.407 849.566 566.439 852.945 Q569.495 856.302 569.495 862.089 M565.235 860.839 Q565.189 857.343 563.268 855.26 Q561.37 853.177 558.222 853.177 Q554.657 853.177 552.504 855.191 Q550.374 857.205 550.05 860.862 L565.235 860.839 Z" fill="#000000" fill-rule="nonzero" fill-opacity="1" /><path clip-path="url(#clip080)" d="M580.698 842.83 L580.698 850.191 L589.471 850.191 L589.471 853.501 L580.698 853.501 L580.698 867.575 Q580.698 870.746 581.555 871.649 Q582.434 872.552 585.096 872.552 L589.471 872.552 L589.471 876.116 L585.096 876.116 Q580.166 876.116 578.291 874.288 Q576.416 872.436 576.416 867.575 L576.416 853.501 L573.291 853.501 L573.291 850.191 L576.416 850.191 L576.416 842.83 L580.698 842.83 Z" fill="#000000" fill-rule="nonzero" fill-opacity="1" /><path clip-path="url(#clip080)" d="M616.624 860.468 L616.624 876.116 L612.365 876.116 L612.365 860.607 Q612.365 856.927 610.93 855.098 Q609.494 853.269 606.624 853.269 Q603.175 853.269 601.184 855.468 Q599.194 857.668 599.194 861.464 L599.194 876.116 L594.911 876.116 L594.911 840.098 L599.194 840.098 L599.194 854.218 Q600.721 851.881 602.782 850.723 Q604.865 849.566 607.573 849.566 Q612.041 849.566 614.332 852.343 Q616.624 855.098 616.624 860.468 Z" fill="#000000" fill-rule="nonzero" fill-opacity="1" /><path clip-path="url(#clip080)" d="M635.166 853.177 Q631.74 853.177 629.749 855.862 Q627.758 858.524 627.758 863.177 Q627.758 867.83 629.726 870.515 Q631.717 873.177 635.166 873.177 Q638.568 873.177 640.559 870.492 Q642.55 867.806 642.55 863.177 Q642.55 858.57 640.559 855.885 Q638.568 853.177 635.166 853.177 M635.166 849.566 Q640.721 849.566 643.892 853.177 Q647.064 856.788 647.064 863.177 Q647.064 869.542 643.892 873.177 Q640.721 876.788 635.166 876.788 Q629.587 876.788 626.416 873.177 Q623.268 869.542 623.268 863.177 Q623.268 856.788 626.416 853.177 Q629.587 849.566 635.166 849.566 Z" fill="#000000" fill-rule="nonzero" fill-opacity="1" /><path clip-path="url(#clip080)" d="M671.184 854.126 L671.184 840.098 L675.443 840.098 L675.443 876.116 L671.184 876.116 L671.184 872.228 Q669.841 874.542 667.781 875.677 Q665.744 876.788 662.874 876.788 Q658.175 876.788 655.212 873.038 Q652.272 869.288 652.272 863.177 Q652.272 857.066 655.212 853.316 Q658.175 849.566 662.874 849.566 Q665.744 849.566 667.781 850.7 Q669.841 851.811 671.184 854.126 M656.67 863.177 Q656.67 867.876 658.591 870.561 Q660.536 873.223 663.915 873.223 Q667.295 873.223 669.24 870.561 Q671.184 867.876 671.184 863.177 Q671.184 858.478 669.24 855.816 Q667.295 853.131 663.915 853.131 Q660.536 853.131 658.591 855.816 Q656.67 858.478 656.67 863.177 Z" fill="#000000" fill-rule="nonzero" fill-opacity="1" /><path clip-path="url(#clip080)" d="M709.332 853.177 Q705.906 853.177 703.915 855.862 Q701.925 858.524 701.925 863.177 Q701.925 867.83 703.892 870.515 Q705.883 873.177 709.332 873.177 Q712.735 873.177 714.725 870.492 Q716.716 867.806 716.716 863.177 Q716.716 858.57 714.725 855.885 Q712.735 853.177 709.332 853.177 M709.332 849.566 Q714.887 849.566 718.059 853.177 Q721.23 856.788 721.23 863.177 Q721.23 869.542 718.059 873.177 Q714.887 876.788 709.332 876.788 Q703.753 876.788 700.582 873.177 Q697.434 869.542 697.434 863.177 Q697.434 856.788 700.582 853.177 Q703.753 849.566 709.332 849.566 Z" fill="#000000" fill-rule="nonzero" fill-opacity="1" /><path clip-path="url(#clip080)" d="M741.415 840.098 L741.415 843.64 L737.341 843.64 Q735.049 843.64 734.147 844.566 Q733.267 845.492 733.267 847.899 L733.267 850.191 L740.281 850.191 L740.281 853.501 L733.267 853.501 L733.267 876.116 L728.985 876.116 L728.985 853.501 L724.911 853.501 L724.911 850.191 L728.985 850.191 L728.985 848.385 Q728.985 844.056 730.998 842.089 Q733.012 840.098 737.387 840.098 L741.415 840.098 Z" fill="#000000" fill-rule="nonzero" fill-opacity="1" /><path clip-path="url(#clip080)" d="M760.234 841.556 L764.91 841.556 L764.91 872.181 L781.739 872.181 L781.739 876.116 L760.234 876.116 L760.234 841.556 Z" fill="#000000" fill-rule="nonzero" fill-opacity="1" /><path clip-path="url(#clip080)" d="M786.461 850.191 L790.72 850.191 L790.72 876.116 L786.461 876.116 L786.461 850.191 M786.461 840.098 L790.72 840.098 L790.72 845.492 L786.461 845.492 L786.461 840.098 Z" fill="#000000" fill-rule="nonzero" fill-opacity="1" /><path clip-path="url(#clip080)" d="M821.183 860.468 L821.183 876.116 L816.924 876.116 L816.924 860.607 Q816.924 856.927 815.489 855.098 Q814.054 853.269 811.183 853.269 Q807.734 853.269 805.743 855.468 Q803.753 857.668 803.753 861.464 L803.753 876.116 L799.47 876.116 L799.47 850.191 L803.753 850.191 L803.753 854.218 Q805.28 851.881 807.341 850.723 Q809.424 849.566 812.132 849.566 Q816.6 849.566 818.891 852.343 Q821.183 855.098 821.183 860.468 Z" fill="#000000" fill-rule="nonzero" fill-opacity="1" /><path clip-path="url(#clip080)" d="M851.854 862.089 L851.854 864.172 L832.271 864.172 Q832.549 868.57 834.91 870.885 Q837.294 873.177 841.53 873.177 Q843.984 873.177 846.276 872.575 Q848.59 871.973 850.859 870.769 L850.859 874.797 Q848.567 875.769 846.16 876.279 Q843.752 876.788 841.276 876.788 Q835.072 876.788 831.438 873.177 Q827.827 869.566 827.827 863.408 Q827.827 857.043 831.253 853.316 Q834.702 849.566 840.535 849.566 Q845.766 849.566 848.799 852.945 Q851.854 856.302 851.854 862.089 M847.595 860.839 Q847.549 857.343 845.627 855.26 Q843.729 853.177 840.581 853.177 Q837.016 853.177 834.864 855.191 Q832.734 857.205 832.41 860.862 L847.595 860.839 Z" fill="#000000" fill-rule="nonzero" fill-opacity="1" /><path clip-path="url(#clip080)" d="M875.373 850.955 L875.373 854.982 Q873.567 854.056 871.623 853.593 Q869.678 853.131 867.595 853.131 Q864.424 853.131 862.826 854.103 Q861.252 855.075 861.252 857.019 Q861.252 858.501 862.387 859.357 Q863.521 860.191 866.947 860.955 L868.405 861.279 Q872.942 862.251 874.84 864.033 Q876.762 865.792 876.762 868.964 Q876.762 872.575 873.891 874.681 Q871.044 876.788 866.044 876.788 Q863.961 876.788 861.692 876.371 Q859.447 875.978 856.947 875.167 L856.947 870.769 Q859.308 871.996 861.6 872.621 Q863.891 873.223 866.137 873.223 Q869.146 873.223 870.766 872.204 Q872.387 871.163 872.387 869.288 Q872.387 867.552 871.206 866.626 Q870.049 865.7 866.09 864.843 L864.609 864.496 Q860.651 863.663 858.891 861.95 Q857.132 860.214 857.132 857.205 Q857.132 853.547 859.725 851.556 Q862.317 849.566 867.086 849.566 Q869.447 849.566 871.53 849.913 Q873.613 850.26 875.373 850.955 Z" fill="#000000" fill-rule="nonzero" fill-opacity="1" /><path clip-path="url(#clip080)" d="M884.632 870.237 L889.516 870.237 L889.516 874.218 L885.72 881.626 L882.734 881.626 L884.632 874.218 L884.632 870.237 Z" fill="#000000" fill-rule="nonzero" fill-opacity="1" /><path clip-path="url(#clip080)" d="M935.233 860.468 L935.233 876.116 L930.974 876.116 L930.974 860.607 Q930.974 856.927 929.539 855.098 Q928.104 853.269 925.234 853.269 Q921.784 853.269 919.794 855.468 Q917.803 857.668 917.803 861.464 L917.803 876.116 L913.521 876.116 L913.521 850.191 L917.803 850.191 L917.803 854.218 Q919.331 851.881 921.391 850.723 Q923.474 849.566 926.183 849.566 Q930.65 849.566 932.942 852.343 Q935.233 855.098 935.233 860.468 Z" fill="#000000" fill-rule="nonzero" fill-opacity="1" /><path clip-path="url(#clip080)" d="M944.284 854.589 L973.96 854.589 L973.96 858.478 L944.284 858.478 L944.284 854.589 M944.284 864.033 L973.96 864.033 L973.96 867.968 L944.284 867.968 L944.284 864.033 Z" fill="#000000" fill-rule="nonzero" fill-opacity="1" /><path clip-path="url(#clip080)" d="M984.099 841.556 L1002.46 841.556 L1002.46 845.492 L988.381 845.492 L988.381 853.964 Q989.4 853.617 990.418 853.455 Q991.437 853.269 992.455 853.269 Q998.242 853.269 1001.62 856.441 Q1005 859.612 1005 865.029 Q1005 870.607 1001.53 873.709 Q998.057 876.788 991.738 876.788 Q989.562 876.788 987.293 876.417 Q985.048 876.047 982.641 875.306 L982.641 870.607 Q984.724 871.742 986.946 872.297 Q989.168 872.853 991.645 872.853 Q995.65 872.853 997.988 870.746 Q1000.33 868.64 1000.33 865.029 Q1000.33 861.417 997.988 859.311 Q995.65 857.205 991.645 857.205 Q989.77 857.205 987.895 857.621 Q986.043 858.038 984.099 858.918 L984.099 841.556 Z" fill="#000000" fill-rule="nonzero" fill-opacity="1" /><path clip-path="url(#clip080)" d="M1024.21 844.635 Q1020.6 844.635 1018.77 848.2 Q1016.97 851.742 1016.97 858.871 Q1016.97 865.978 1018.77 869.542 Q1020.6 873.084 1024.21 873.084 Q1027.85 873.084 1029.65 869.542 Q1031.48 865.978 1031.48 858.871 Q1031.48 851.742 1029.65 848.2 Q1027.85 844.635 1024.21 844.635 M1024.21 840.931 Q1030.02 840.931 1033.08 845.538 Q1036.16 850.121 1036.16 858.871 Q1036.16 867.598 1033.08 872.204 Q1030.02 876.788 1024.21 876.788 Q1018.4 876.788 1015.33 872.204 Q1012.27 867.598 1012.27 858.871 Q1012.27 850.121 1015.33 845.538 Q1018.4 840.931 1024.21 840.931 Z" fill="#000000" fill-rule="nonzero" fill-opacity="1" /><path clip-path="url(#clip080)" d="M1054.38 844.635 Q1050.77 844.635 1048.94 848.2 Q1047.13 851.742 1047.13 858.871 Q1047.13 865.978 1048.94 869.542 Q1050.77 873.084 1054.38 873.084 Q1058.01 873.084 1059.82 869.542 Q1061.64 865.978 1061.64 858.871 Q1061.64 851.742 1059.82 848.2 Q1058.01 844.635 1054.38 844.635 M1054.38 840.931 Q1060.19 840.931 1063.24 845.538 Q1066.32 850.121 1066.32 858.871 Q1066.32 867.598 1063.24 872.204 Q1060.19 876.788 1054.38 876.788 Q1048.57 876.788 1045.49 872.204 Q1042.43 867.598 1042.43 858.871 Q1042.43 850.121 1045.49 845.538 Q1048.57 840.931 1054.38 840.931 Z" fill="#000000" fill-rule="nonzero" fill-opacity="1" /><polyline clip-path="url(#clip080)" style="stroke:#d95f02; stroke-linecap:round; stroke-linejoin:round; stroke-width:8; stroke-opacity:1; fill:none" stroke-dasharray="32, 16, 4, 16" points="343.018,910.676 483.232,910.676 "/>
<path clip-path="url(#clip080)" d="M522.435 898.003 L516.092 915.202 L528.8 915.202 L522.435 898.003 M519.796 893.396 L525.097 893.396 L538.268 927.956 L533.407 927.956 L530.259 919.091 L514.68 919.091 L511.532 927.956 L506.602 927.956 L519.796 893.396 Z" fill="#000000" fill-rule="nonzero" fill-opacity="1" /><path clip-path="url(#clip080)" d="M564.68 912.308 L564.68 927.956 L560.421 927.956 L560.421 912.447 Q560.421 908.767 558.985 906.938 Q557.55 905.109 554.68 905.109 Q551.231 905.109 549.24 907.308 Q547.249 909.508 547.249 913.304 L547.249 927.956 L542.967 927.956 L542.967 902.031 L547.249 902.031 L547.249 906.058 Q548.777 903.721 550.837 902.563 Q552.921 901.406 555.629 901.406 Q560.097 901.406 562.388 904.183 Q564.68 906.938 564.68 912.308 Z" fill="#000000" fill-rule="nonzero" fill-opacity="1" /><path clip-path="url(#clip080)" d="M571.323 902.031 L591.555 902.031 L591.555 905.92 L575.536 924.554 L591.555 924.554 L591.555 927.956 L570.745 927.956 L570.745 924.068 L586.763 905.433 L571.323 905.433 L571.323 902.031 Z" fill="#000000" fill-rule="nonzero" fill-opacity="1" /><path clip-path="url(#clip080)" d="M620.235 913.929 L620.235 916.012 L600.652 916.012 Q600.93 920.41 603.291 922.725 Q605.675 925.017 609.911 925.017 Q612.365 925.017 614.656 924.415 Q616.971 923.813 619.24 922.609 L619.24 926.637 Q616.948 927.609 614.541 928.119 Q612.133 928.628 609.657 928.628 Q603.453 928.628 599.819 925.017 Q596.208 921.406 596.208 915.248 Q596.208 908.883 599.633 905.156 Q603.082 901.406 608.916 901.406 Q614.147 901.406 617.18 904.785 Q620.235 908.142 620.235 913.929 M615.976 912.679 Q615.93 909.183 614.008 907.1 Q612.11 905.017 608.962 905.017 Q605.397 905.017 603.245 907.031 Q601.115 909.045 600.791 912.702 L615.976 912.679 Z" fill="#000000" fill-rule="nonzero" fill-opacity="1" /><path clip-path="url(#clip080)" d="M627.226 891.938 L631.485 891.938 L631.485 927.956 L627.226 927.956 L627.226 891.938 Z" fill="#000000" fill-rule="nonzero" fill-opacity="1" /><path clip-path="url(#clip080)" d="M640.397 902.031 L644.656 902.031 L644.656 927.956 L640.397 927.956 L640.397 902.031 M640.397 891.938 L644.656 891.938 L644.656 897.332 L640.397 897.332 L640.397 891.938 Z" fill="#000000" fill-rule="nonzero" fill-opacity="1" /><path clip-path="url(#clip080)" d="M653.128 917.725 L653.128 902.031 L657.388 902.031 L657.388 917.563 Q657.388 921.244 658.823 923.095 Q660.258 924.924 663.128 924.924 Q666.578 924.924 668.568 922.725 Q670.582 920.526 670.582 916.73 L670.582 902.031 L674.841 902.031 L674.841 927.956 L670.582 927.956 L670.582 923.975 Q669.031 926.336 666.971 927.494 Q664.934 928.628 662.226 928.628 Q657.758 928.628 655.443 925.85 Q653.128 923.072 653.128 917.725 M663.846 901.406 L663.846 901.406 Z" fill="#000000" fill-rule="nonzero" fill-opacity="1" /><path clip-path="url(#clip080)" d="M700.142 902.795 L700.142 906.822 Q698.337 905.896 696.392 905.433 Q694.448 904.971 692.364 904.971 Q689.193 904.971 687.596 905.943 Q686.022 906.915 686.022 908.859 Q686.022 910.341 687.156 911.197 Q688.29 912.031 691.716 912.795 L693.175 913.119 Q697.712 914.091 699.61 915.873 Q701.531 917.632 701.531 920.804 Q701.531 924.415 698.661 926.521 Q695.813 928.628 690.813 928.628 Q688.73 928.628 686.462 928.211 Q684.216 927.818 681.716 927.007 L681.716 922.609 Q684.077 923.836 686.369 924.461 Q688.661 925.063 690.906 925.063 Q693.915 925.063 695.536 924.044 Q697.156 923.003 697.156 921.128 Q697.156 919.392 695.975 918.466 Q694.818 917.54 690.86 916.683 L689.378 916.336 Q685.42 915.503 683.661 913.79 Q681.901 912.054 681.901 909.045 Q681.901 905.387 684.494 903.396 Q687.087 901.406 691.855 901.406 Q694.216 901.406 696.3 901.753 Q698.383 902.1 700.142 902.795 Z" fill="#000000" fill-rule="nonzero" fill-opacity="1" /><path clip-path="url(#clip080)" d="M709.401 922.077 L714.286 922.077 L714.286 926.058 L710.489 933.466 L707.503 933.466 L709.401 926.058 L709.401 922.077 Z" fill="#000000" fill-rule="nonzero" fill-opacity="1" /><path clip-path="url(#clip080)" d="M738.452 891.938 L742.711 891.938 L742.711 927.956 L738.452 927.956 L738.452 891.938 Z" fill="#000000" fill-rule="nonzero" fill-opacity="1" /><path clip-path="url(#clip080)" d="M751.623 902.031 L755.883 902.031 L755.883 927.956 L751.623 927.956 L751.623 902.031 M751.623 891.938 L755.883 891.938 L755.883 897.332 L751.623 897.332 L751.623 891.938 Z" fill="#000000" fill-rule="nonzero" fill-opacity="1" /><path clip-path="url(#clip080)" d="M786.345 912.308 L786.345 927.956 L782.086 927.956 L782.086 912.447 Q782.086 908.767 780.651 906.938 Q779.216 905.109 776.345 905.109 Q772.896 905.109 770.906 907.308 Q768.915 909.508 768.915 913.304 L768.915 927.956 L764.633 927.956 L764.633 902.031 L768.915 902.031 L768.915 906.058 Q770.443 903.721 772.503 902.563 Q774.586 901.406 777.295 901.406 Q781.762 901.406 784.054 904.183 Q786.345 906.938 786.345 912.308 Z" fill="#000000" fill-rule="nonzero" fill-opacity="1" /><path clip-path="url(#clip080)" d="M817.017 913.929 L817.017 916.012 L797.433 916.012 Q797.711 920.41 800.072 922.725 Q802.456 925.017 806.692 925.017 Q809.146 925.017 811.438 924.415 Q813.753 923.813 816.021 922.609 L816.021 926.637 Q813.729 927.609 811.322 928.119 Q808.915 928.628 806.438 928.628 Q800.234 928.628 796.6 925.017 Q792.989 921.406 792.989 915.248 Q792.989 908.883 796.415 905.156 Q799.864 901.406 805.697 901.406 Q810.929 901.406 813.961 904.785 Q817.017 908.142 817.017 913.929 M812.757 912.679 Q812.711 909.183 810.79 907.1 Q808.892 905.017 805.743 905.017 Q802.179 905.017 800.026 907.031 Q797.896 909.045 797.572 912.702 L812.757 912.679 Z" fill="#000000" fill-rule="nonzero" fill-opacity="1" /><path clip-path="url(#clip080)" d="M835.79 914.924 Q830.628 914.924 828.637 916.105 Q826.646 917.285 826.646 920.132 Q826.646 922.401 828.128 923.744 Q829.632 925.063 832.202 925.063 Q835.743 925.063 837.873 922.563 Q840.026 920.04 840.026 915.873 L840.026 914.924 L835.79 914.924 M844.285 913.165 L844.285 927.956 L840.026 927.956 L840.026 924.021 Q838.567 926.382 836.391 927.517 Q834.215 928.628 831.067 928.628 Q827.086 928.628 824.725 926.406 Q822.387 924.16 822.387 920.41 Q822.387 916.035 825.304 913.813 Q828.243 911.591 834.053 911.591 L840.026 911.591 L840.026 911.174 Q840.026 908.234 838.081 906.637 Q836.16 905.017 832.665 905.017 Q830.442 905.017 828.336 905.549 Q826.229 906.082 824.285 907.146 L824.285 903.211 Q826.623 902.308 828.822 901.869 Q831.021 901.406 833.104 901.406 Q838.729 901.406 841.507 904.322 Q844.285 907.239 844.285 913.165 Z" fill="#000000" fill-rule="nonzero" fill-opacity="1" /><path clip-path="url(#clip080)" d="M868.081 906.012 Q867.363 905.596 866.507 905.41 Q865.674 905.202 864.655 905.202 Q861.044 905.202 859.1 907.563 Q857.178 909.901 857.178 914.299 L857.178 927.956 L852.896 927.956 L852.896 902.031 L857.178 902.031 L857.178 906.058 Q858.521 903.697 860.674 902.563 Q862.826 901.406 865.905 901.406 Q866.345 901.406 866.877 901.475 Q867.41 901.521 868.058 901.637 L868.081 906.012 Z" fill="#000000" fill-rule="nonzero" fill-opacity="1" /><path clip-path="url(#clip080)" d="M902.641 906.012 Q901.923 905.596 901.067 905.41 Q900.234 905.202 899.215 905.202 Q895.604 905.202 893.66 907.563 Q891.738 909.901 891.738 914.299 L891.738 927.956 L887.456 927.956 L887.456 902.031 L891.738 902.031 L891.738 906.058 Q893.081 903.697 895.234 902.563 Q897.386 901.406 900.465 901.406 Q900.905 901.406 901.437 901.475 Q901.97 901.521 902.618 901.637 L902.641 906.012 Z" fill="#000000" fill-rule="nonzero" fill-opacity="1" /><path clip-path="url(#clip080)" d="M928.243 913.929 L928.243 916.012 L908.66 916.012 Q908.937 920.41 911.298 922.725 Q913.683 925.017 917.919 925.017 Q920.372 925.017 922.664 924.415 Q924.979 923.813 927.247 922.609 L927.247 926.637 Q924.956 927.609 922.548 928.119 Q920.141 928.628 917.664 928.628 Q911.46 928.628 907.826 925.017 Q904.215 921.406 904.215 915.248 Q904.215 908.883 907.641 905.156 Q911.09 901.406 916.923 901.406 Q922.155 901.406 925.187 904.785 Q928.243 908.142 928.243 913.929 M923.984 912.679 Q923.937 909.183 922.016 907.1 Q920.118 905.017 916.97 905.017 Q913.405 905.017 911.252 907.031 Q909.122 909.045 908.798 912.702 L923.984 912.679 Z" fill="#000000" fill-rule="nonzero" fill-opacity="1" /><path clip-path="url(#clip080)" d="M951.761 902.795 L951.761 906.822 Q949.956 905.896 948.011 905.433 Q946.067 904.971 943.983 904.971 Q940.812 904.971 939.215 905.943 Q937.641 906.915 937.641 908.859 Q937.641 910.341 938.775 911.197 Q939.909 912.031 943.335 912.795 L944.794 913.119 Q949.331 914.091 951.229 915.873 Q953.15 917.632 953.15 920.804 Q953.15 924.415 950.28 926.521 Q947.432 928.628 942.433 928.628 Q940.349 928.628 938.081 928.211 Q935.835 927.818 933.335 927.007 L933.335 922.609 Q935.696 923.836 937.988 924.461 Q940.28 925.063 942.525 925.063 Q945.534 925.063 947.155 924.044 Q948.775 923.003 948.775 921.128 Q948.775 919.392 947.595 918.466 Q946.437 917.54 942.479 916.683 L940.997 916.336 Q937.039 915.503 935.28 913.79 Q933.521 912.054 933.521 909.045 Q933.521 905.387 936.113 903.396 Q938.706 901.406 943.474 901.406 Q945.835 901.406 947.919 901.753 Q950.002 902.1 951.761 902.795 Z" fill="#000000" fill-rule="nonzero" fill-opacity="1" /><path clip-path="url(#clip080)" d="M959.932 902.031 L964.192 902.031 L964.192 927.956 L959.932 927.956 L959.932 902.031 M959.932 891.938 L964.192 891.938 L964.192 897.332 L959.932 897.332 L959.932 891.938 Z" fill="#000000" fill-rule="nonzero" fill-opacity="1" /><path clip-path="url(#clip080)" d="M989.631 902.795 L989.631 906.822 Q987.826 905.896 985.881 905.433 Q983.937 904.971 981.854 904.971 Q978.682 904.971 977.085 905.943 Q975.511 906.915 975.511 908.859 Q975.511 910.341 976.645 911.197 Q977.78 912.031 981.205 912.795 L982.664 913.119 Q987.201 914.091 989.099 915.873 Q991.02 917.632 991.02 920.804 Q991.02 924.415 988.15 926.521 Q985.303 928.628 980.303 928.628 Q978.219 928.628 975.951 928.211 Q973.705 927.818 971.205 927.007 L971.205 922.609 Q973.567 923.836 975.858 924.461 Q978.15 925.063 980.395 925.063 Q983.405 925.063 985.025 924.044 Q986.645 923.003 986.645 921.128 Q986.645 919.392 985.465 918.466 Q984.307 917.54 980.349 916.683 L978.867 916.336 Q974.909 915.503 973.15 913.79 Q971.391 912.054 971.391 909.045 Q971.391 905.387 973.983 903.396 Q976.576 901.406 981.344 901.406 Q983.705 901.406 985.789 901.753 Q987.872 902.1 989.631 902.795 Z" fill="#000000" fill-rule="nonzero" fill-opacity="1" /><path clip-path="url(#clip080)" d="M1002.02 894.67 L1002.02 902.031 L1010.79 902.031 L1010.79 905.341 L1002.02 905.341 L1002.02 919.415 Q1002.02 922.586 1002.87 923.489 Q1003.75 924.392 1006.41 924.392 L1010.79 924.392 L1010.79 927.956 L1006.41 927.956 Q1001.48 927.956 999.608 926.128 Q997.733 924.276 997.733 919.415 L997.733 905.341 L994.608 905.341 L994.608 902.031 L997.733 902.031 L997.733 894.67 L1002.02 894.67 Z" fill="#000000" fill-rule="nonzero" fill-opacity="1" /><path clip-path="url(#clip080)" d="M1028.17 914.924 Q1023.01 914.924 1021.02 916.105 Q1019.03 917.285 1019.03 920.132 Q1019.03 922.401 1020.51 923.744 Q1022.02 925.063 1024.58 925.063 Q1028.13 925.063 1030.26 922.563 Q1032.41 920.04 1032.41 915.873 L1032.41 914.924 L1028.17 914.924 M1036.67 913.165 L1036.67 927.956 L1032.41 927.956 L1032.41 924.021 Q1030.95 926.382 1028.77 927.517 Q1026.6 928.628 1023.45 928.628 Q1019.47 928.628 1017.11 926.406 Q1014.77 924.16 1014.77 920.41 Q1014.77 916.035 1017.69 913.813 Q1020.63 911.591 1026.44 911.591 L1032.41 911.591 L1032.41 911.174 Q1032.41 908.234 1030.46 906.637 Q1028.54 905.017 1025.05 905.017 Q1022.83 905.017 1020.72 905.549 Q1018.61 906.082 1016.67 907.146 L1016.67 903.211 Q1019.01 902.308 1021.21 901.869 Q1023.4 901.406 1025.49 901.406 Q1031.11 901.406 1033.89 904.322 Q1036.67 907.239 1036.67 913.165 Z" fill="#000000" fill-rule="nonzero" fill-opacity="1" /><path clip-path="url(#clip080)" d="M1066.99 912.308 L1066.99 927.956 L1062.73 927.956 L1062.73 912.447 Q1062.73 908.767 1061.3 906.938 Q1059.86 905.109 1056.99 905.109 Q1053.54 905.109 1051.55 907.308 Q1049.56 909.508 1049.56 913.304 L1049.56 927.956 L1045.28 927.956 L1045.28 902.031 L1049.56 902.031 L1049.56 906.058 Q1051.09 903.721 1053.15 902.563 Q1055.23 901.406 1057.94 901.406 Q1062.41 901.406 1064.7 904.183 Q1066.99 906.938 1066.99 912.308 Z" fill="#000000" fill-rule="nonzero" fill-opacity="1" /><path clip-path="url(#clip080)" d="M1094.14 903.026 L1094.14 907.008 Q1092.34 906.012 1090.51 905.526 Q1088.7 905.017 1086.85 905.017 Q1082.71 905.017 1080.42 907.656 Q1078.13 910.271 1078.13 915.017 Q1078.13 919.762 1080.42 922.401 Q1082.71 925.017 1086.85 925.017 Q1088.7 925.017 1090.51 924.531 Q1092.34 924.021 1094.14 923.026 L1094.14 926.961 Q1092.36 927.794 1090.44 928.211 Q1088.54 928.628 1086.39 928.628 Q1080.53 928.628 1077.08 924.947 Q1073.64 921.267 1073.64 915.017 Q1073.64 908.674 1077.11 905.04 Q1080.6 901.406 1086.67 901.406 Q1088.64 901.406 1090.51 901.822 Q1092.39 902.216 1094.14 903.026 Z" fill="#000000" fill-rule="nonzero" fill-opacity="1" /><path clip-path="url(#clip080)" d="M1123.73 913.929 L1123.73 916.012 L1104.14 916.012 Q1104.42 920.41 1106.78 922.725 Q1109.17 925.017 1113.4 925.017 Q1115.86 925.017 1118.15 924.415 Q1120.46 923.813 1122.73 922.609 L1122.73 926.637 Q1120.44 927.609 1118.03 928.119 Q1115.63 928.628 1113.15 928.628 Q1106.95 928.628 1103.31 925.017 Q1099.7 921.406 1099.7 915.248 Q1099.7 908.883 1103.13 905.156 Q1106.58 901.406 1112.41 901.406 Q1117.64 901.406 1120.67 904.785 Q1123.73 908.142 1123.73 913.929 M1119.47 912.679 Q1119.42 909.183 1117.5 907.1 Q1115.6 905.017 1112.45 905.017 Q1108.89 905.017 1106.74 907.031 Q1104.61 909.045 1104.28 912.702 L1119.47 912.679 Z" fill="#000000" fill-rule="nonzero" fill-opacity="1" /></svg>
