<?xml version="1.0" encoding="utf-8"?>
<svg xmlns="http://www.w3.org/2000/svg" xmlns:xlink="http://www.w3.org/1999/xlink" width="600" height="400" viewBox="0 0 2400 1600">
<defs>
  <clipPath id="clip990">
    <rect x="0" y="0" width="2400" height="1600"/>
  </clipPath>
</defs>
<path clip-path="url(#clip990)" d="M0 1600 L2400 1600 L2400 0 L0 0  Z" fill="#ffffff" fill-rule="evenodd" fill-opacity="1"/>
<defs>
  <clipPath id="clip991">
    <rect x="480" y="0" width="1681" height="1600"/>
  </clipPath>
</defs>
<path clip-path="url(#clip990)" d="M249.542 1423.18 L2352.76 1423.18 L2352.76 47.2441 L249.542 47.2441  Z" fill="#ffffff" fill-rule="evenodd" fill-opacity="1"/>
<defs>
  <clipPath id="clip992">
    <rect x="249" y="47" width="2104" height="1377"/>
  </clipPath>
</defs>
<polyline clip-path="url(#clip992)" style="stroke:#000000; stroke-linecap:round; stroke-linejoin:round; stroke-width:2; stroke-opacity:0.1; fill:none" points="514.045,1423.18 514.045,47.2441 "/>
<polyline clip-path="url(#clip992)" style="stroke:#000000; stroke-linecap:round; stroke-linejoin:round; stroke-width:2; stroke-opacity:0.1; fill:none" points="857.963,1423.18 857.963,47.2441 "/>
<polyline clip-path="url(#clip992)" style="stroke:#000000; stroke-linecap:round; stroke-linejoin:round; stroke-width:2; stroke-opacity:0.1; fill:none" points="1201.88,1423.18 1201.88,47.2441 "/>
<polyline clip-path="url(#clip992)" style="stroke:#000000; stroke-linecap:round; stroke-linejoin:round; stroke-width:2; stroke-opacity:0.1; fill:none" points="1545.8,1423.18 1545.8,47.2441 "/>
<polyline clip-path="url(#clip992)" style="stroke:#000000; stroke-linecap:round; stroke-linejoin:round; stroke-width:2; stroke-opacity:0.1; fill:none" points="1889.72,1423.18 1889.72,47.2441 "/>
<polyline clip-path="url(#clip992)" style="stroke:#000000; stroke-linecap:round; stroke-linejoin:round; stroke-width:2; stroke-opacity:0.1; fill:none" points="2233.63,1423.18 2233.63,47.2441 "/>
<polyline clip-path="url(#clip990)" style="stroke:#000000; stroke-linecap:round; stroke-linejoin:round; stroke-width:4; stroke-opacity:1; fill:none" points="249.542,1423.18 2352.76,1423.18 "/>
<polyline clip-path="url(#clip990)" style="stroke:#000000; stroke-linecap:round; stroke-linejoin:round; stroke-width:4; stroke-opacity:1; fill:none" points="514.045,1423.18 514.045,1404.28 "/>
<polyline clip-path="url(#clip990)" style="stroke:#000000; stroke-linecap:round; stroke-linejoin:round; stroke-width:4; stroke-opacity:1; fill:none" points="857.963,1423.18 857.963,1404.28 "/>
<polyline clip-path="url(#clip990)" style="stroke:#000000; stroke-linecap:round; stroke-linejoin:round; stroke-width:4; stroke-opacity:1; fill:none" points="1201.88,1423.18 1201.88,1404.28 "/>
<polyline clip-path="url(#clip990)" style="stroke:#000000; stroke-linecap:round; stroke-linejoin:round; stroke-width:4; stroke-opacity:1; fill:none" points="1545.8,1423.18 1545.8,1404.28 "/>
<polyline clip-path="url(#clip990)" style="stroke:#000000; stroke-linecap:round; stroke-linejoin:round; stroke-width:4; stroke-opacity:1; fill:none" points="1889.72,1423.18 1889.72,1404.28 "/>
<polyline clip-path="url(#clip990)" style="stroke:#000000; stroke-linecap:round; stroke-linejoin:round; stroke-width:4; stroke-opacity:1; fill:none" points="2233.63,1423.18 2233.63,1404.28 "/>
<path clip-path="url(#clip990)" d="M489.057 1481.64 L496.696 1481.64 L496.696 1455.28 L488.386 1456.95 L488.386 1452.69 L496.65 1451.02 L501.325 1451.02 L501.325 1481.64 L508.964 1481.64 L508.964 1485.58 L489.057 1485.58 L489.057 1481.64 Z" fill="#000000" fill-rule="nonzero" fill-opacity="1" /><path clip-path="url(#clip990)" d="M532.575 1466.95 Q535.932 1467.66 537.807 1469.93 Q539.705 1472.2 539.705 1475.53 Q539.705 1480.65 536.186 1483.45 Q532.668 1486.25 526.186 1486.25 Q524.011 1486.25 521.696 1485.81 Q519.404 1485.39 516.95 1484.54 L516.95 1480.02 Q518.895 1481.16 521.21 1481.74 Q523.524 1482.32 526.048 1482.32 Q530.446 1482.32 532.737 1480.58 Q535.052 1478.84 535.052 1475.53 Q535.052 1472.48 532.899 1470.77 Q530.77 1469.03 526.95 1469.03 L522.923 1469.03 L522.923 1465.19 L527.136 1465.19 Q530.585 1465.19 532.413 1463.82 Q534.242 1462.43 534.242 1459.84 Q534.242 1457.18 532.344 1455.77 Q530.469 1454.33 526.95 1454.33 Q525.029 1454.33 522.83 1454.75 Q520.631 1455.16 517.992 1456.04 L517.992 1451.88 Q520.654 1451.14 522.969 1450.77 Q525.307 1450.39 527.367 1450.39 Q532.691 1450.39 535.793 1452.83 Q538.895 1455.23 538.895 1459.35 Q538.895 1462.22 537.251 1464.21 Q535.608 1466.18 532.575 1466.95 Z" fill="#000000" fill-rule="nonzero" fill-opacity="1" /><path clip-path="url(#clip990)" d="M832.408 1481.64 L840.047 1481.64 L840.047 1455.28 L831.736 1456.95 L831.736 1452.69 L840 1451.02 L844.676 1451.02 L844.676 1481.64 L852.315 1481.64 L852.315 1485.58 L832.408 1485.58 L832.408 1481.64 Z" fill="#000000" fill-rule="nonzero" fill-opacity="1" /><path clip-path="url(#clip990)" d="M874.607 1455.09 L862.801 1473.54 L874.607 1473.54 L874.607 1455.09 M873.38 1451.02 L879.259 1451.02 L879.259 1473.54 L884.19 1473.54 L884.19 1477.43 L879.259 1477.43 L879.259 1485.58 L874.607 1485.58 L874.607 1477.43 L859.005 1477.43 L859.005 1472.92 L873.38 1451.02 Z" fill="#000000" fill-rule="nonzero" fill-opacity="1" /><path clip-path="url(#clip990)" d="M1177.07 1481.64 L1184.71 1481.64 L1184.71 1455.28 L1176.39 1456.95 L1176.39 1452.69 L1184.66 1451.02 L1189.33 1451.02 L1189.33 1481.64 L1196.97 1481.64 L1196.97 1485.58 L1177.07 1485.58 L1177.07 1481.64 Z" fill="#000000" fill-rule="nonzero" fill-opacity="1" /><path clip-path="url(#clip990)" d="M1206.46 1451.02 L1224.82 1451.02 L1224.82 1454.96 L1210.75 1454.96 L1210.75 1463.43 Q1211.77 1463.08 1212.78 1462.92 Q1213.8 1462.73 1214.82 1462.73 Q1220.61 1462.73 1223.99 1465.9 Q1227.37 1469.08 1227.37 1474.49 Q1227.37 1480.07 1223.89 1483.17 Q1220.42 1486.25 1214.1 1486.25 Q1211.93 1486.25 1209.66 1485.88 Q1207.41 1485.51 1205.01 1484.77 L1205.01 1480.07 Q1207.09 1481.2 1209.31 1481.76 Q1211.53 1482.32 1214.01 1482.32 Q1218.02 1482.32 1220.35 1480.21 Q1222.69 1478.1 1222.69 1474.49 Q1222.69 1470.88 1220.35 1468.77 Q1218.02 1466.67 1214.01 1466.67 Q1212.14 1466.67 1210.26 1467.08 Q1208.41 1467.5 1206.46 1468.38 L1206.46 1451.02 Z" fill="#000000" fill-rule="nonzero" fill-opacity="1" /><path clip-path="url(#clip990)" d="M1520.41 1481.64 L1528.04 1481.64 L1528.04 1455.28 L1519.73 1456.95 L1519.73 1452.69 L1528 1451.02 L1532.67 1451.02 L1532.67 1481.64 L1540.31 1481.64 L1540.31 1485.58 L1520.41 1485.58 L1520.41 1481.64 Z" fill="#000000" fill-rule="nonzero" fill-opacity="1" /><path clip-path="url(#clip990)" d="M1560.34 1466.44 Q1557.19 1466.44 1555.34 1468.59 Q1553.51 1470.74 1553.51 1474.49 Q1553.51 1478.22 1555.34 1480.39 Q1557.19 1482.55 1560.34 1482.55 Q1563.48 1482.55 1565.31 1480.39 Q1567.16 1478.22 1567.16 1474.49 Q1567.16 1470.74 1565.31 1468.59 Q1563.48 1466.44 1560.34 1466.44 M1569.62 1451.78 L1569.62 1456.04 Q1567.86 1455.21 1566.05 1454.77 Q1564.27 1454.33 1562.51 1454.33 Q1557.88 1454.33 1555.43 1457.45 Q1553 1460.58 1552.65 1466.9 Q1554.02 1464.89 1556.08 1463.82 Q1558.14 1462.73 1560.61 1462.73 Q1565.82 1462.73 1568.83 1465.9 Q1571.86 1469.05 1571.86 1474.49 Q1571.86 1479.82 1568.72 1483.03 Q1565.57 1486.25 1560.34 1486.25 Q1554.34 1486.25 1551.17 1481.67 Q1548 1477.06 1548 1468.33 Q1548 1460.14 1551.89 1455.28 Q1555.78 1450.39 1562.33 1450.39 Q1564.09 1450.39 1565.87 1450.74 Q1567.67 1451.09 1569.62 1451.78 Z" fill="#000000" fill-rule="nonzero" fill-opacity="1" /><path clip-path="url(#clip990)" d="M1864.86 1481.64 L1872.49 1481.64 L1872.49 1455.28 L1864.18 1456.95 L1864.18 1452.69 L1872.45 1451.02 L1877.12 1451.02 L1877.12 1481.64 L1884.76 1481.64 L1884.76 1485.58 L1864.86 1485.58 L1864.86 1481.64 Z" fill="#000000" fill-rule="nonzero" fill-opacity="1" /><path clip-path="url(#clip990)" d="M1893.03 1451.02 L1915.25 1451.02 L1915.25 1453.01 L1902.7 1485.58 L1897.82 1485.58 L1909.62 1454.96 L1893.03 1454.96 L1893.03 1451.02 Z" fill="#000000" fill-rule="nonzero" fill-opacity="1" /><path clip-path="url(#clip990)" d="M2208.37 1481.64 L2216.01 1481.64 L2216.01 1455.28 L2207.7 1456.95 L2207.7 1452.69 L2215.96 1451.02 L2220.64 1451.02 L2220.64 1481.64 L2228.28 1481.64 L2228.28 1485.58 L2208.37 1485.58 L2208.37 1481.64 Z" fill="#000000" fill-rule="nonzero" fill-opacity="1" /><path clip-path="url(#clip990)" d="M2247.72 1469.17 Q2244.39 1469.17 2242.47 1470.95 Q2240.57 1472.73 2240.57 1475.86 Q2240.57 1478.98 2242.47 1480.77 Q2244.39 1482.55 2247.72 1482.55 Q2251.05 1482.55 2252.97 1480.77 Q2254.9 1478.96 2254.9 1475.86 Q2254.9 1472.73 2252.97 1470.95 Q2251.08 1469.17 2247.72 1469.17 M2243.04 1467.18 Q2240.03 1466.44 2238.34 1464.38 Q2236.68 1462.32 2236.68 1459.35 Q2236.68 1455.21 2239.62 1452.8 Q2242.58 1450.39 2247.72 1450.39 Q2252.88 1450.39 2255.82 1452.8 Q2258.76 1455.21 2258.76 1459.35 Q2258.76 1462.32 2257.07 1464.38 Q2255.4 1466.44 2252.42 1467.18 Q2255.8 1467.96 2257.67 1470.26 Q2259.57 1472.55 2259.57 1475.86 Q2259.57 1480.88 2256.49 1483.57 Q2253.44 1486.25 2247.72 1486.25 Q2242 1486.25 2238.92 1483.57 Q2235.87 1480.88 2235.87 1475.86 Q2235.87 1472.55 2237.77 1470.26 Q2239.66 1467.96 2243.04 1467.18 M2241.33 1459.79 Q2241.33 1462.48 2243 1463.98 Q2244.69 1465.49 2247.72 1465.49 Q2250.73 1465.49 2252.42 1463.98 Q2254.13 1462.48 2254.13 1459.79 Q2254.13 1457.11 2252.42 1455.6 Q2250.73 1454.1 2247.72 1454.1 Q2244.69 1454.1 2243 1455.6 Q2241.33 1457.11 2241.33 1459.79 Z" fill="#000000" fill-rule="nonzero" fill-opacity="1" /><path clip-path="url(#clip990)" d="M1188.6 1522.27 L1188.6 1532.4 L1200.67 1532.4 L1200.67 1536.95 L1188.6 1536.95 L1188.6 1556.3 Q1188.6 1560.66 1189.78 1561.9 Q1190.99 1563.14 1194.65 1563.14 L1200.67 1563.14 L1200.67 1568.04 L1194.65 1568.04 Q1187.87 1568.04 1185.29 1565.53 Q1182.71 1562.98 1182.71 1556.3 L1182.71 1536.95 L1178.42 1536.95 L1178.42 1532.4 L1182.71 1532.4 L1182.71 1522.27 L1188.6 1522.27 Z" fill="#000000" fill-rule="nonzero" fill-opacity="1" /><path clip-path="url(#clip990)" d="M1208.37 1532.4 L1214.23 1532.4 L1214.23 1568.04 L1208.37 1568.04 L1208.37 1532.4 M1208.37 1518.52 L1214.23 1518.52 L1214.23 1525.93 L1208.37 1525.93 L1208.37 1518.52 Z" fill="#000000" fill-rule="nonzero" fill-opacity="1" /><path clip-path="url(#clip990)" d="M1254.23 1539.24 Q1256.43 1535.29 1259.49 1533.41 Q1262.54 1531.54 1266.68 1531.54 Q1272.25 1531.54 1275.27 1535.45 Q1278.3 1539.33 1278.3 1546.53 L1278.3 1568.04 L1272.41 1568.04 L1272.41 1546.72 Q1272.41 1541.59 1270.59 1539.11 Q1268.78 1536.63 1265.06 1536.63 Q1260.5 1536.63 1257.86 1539.65 Q1255.22 1542.68 1255.22 1547.9 L1255.22 1568.04 L1249.33 1568.04 L1249.33 1546.72 Q1249.33 1541.56 1247.52 1539.11 Q1245.7 1536.63 1241.92 1536.63 Q1237.43 1536.63 1234.79 1539.68 Q1232.14 1542.71 1232.14 1547.9 L1232.14 1568.04 L1226.26 1568.04 L1226.26 1532.4 L1232.14 1532.4 L1232.14 1537.93 Q1234.15 1534.66 1236.95 1533.1 Q1239.75 1531.54 1243.6 1531.54 Q1247.49 1531.54 1250.19 1533.51 Q1252.93 1535.48 1254.23 1539.24 Z" fill="#000000" fill-rule="nonzero" fill-opacity="1" /><path clip-path="url(#clip990)" d="M1320.47 1548.76 L1320.47 1551.62 L1293.54 1551.62 Q1293.92 1557.67 1297.17 1560.85 Q1300.45 1564 1306.27 1564 Q1309.65 1564 1312.8 1563.17 Q1315.98 1562.35 1319.1 1560.69 L1319.1 1566.23 Q1315.95 1567.57 1312.64 1568.27 Q1309.33 1568.97 1305.92 1568.97 Q1297.39 1568.97 1292.4 1564 Q1287.43 1559.04 1287.43 1550.57 Q1287.43 1541.82 1292.14 1536.69 Q1296.88 1531.54 1304.9 1531.54 Q1312.1 1531.54 1316.27 1536.18 Q1320.47 1540.8 1320.47 1548.76 M1314.61 1547.04 Q1314.55 1542.23 1311.91 1539.37 Q1309.3 1536.5 1304.97 1536.5 Q1300.07 1536.5 1297.11 1539.27 Q1294.18 1542.04 1293.73 1547.07 L1314.61 1547.04 Z" fill="#000000" fill-rule="nonzero" fill-opacity="1" /><path clip-path="url(#clip990)" d="M1364.87 1518.58 Q1360.6 1525.9 1358.54 1533.06 Q1356.47 1540.23 1356.47 1547.58 Q1356.47 1554.93 1358.54 1562.16 Q1360.64 1569.35 1364.87 1576.64 L1359.78 1576.64 Q1355 1569.16 1352.62 1561.93 Q1350.26 1554.71 1350.26 1547.58 Q1350.26 1540.48 1352.62 1533.29 Q1354.97 1526.09 1359.78 1518.58 L1364.87 1518.58 Z" fill="#000000" fill-rule="nonzero" fill-opacity="1" /><path clip-path="url(#clip990)" d="M1398.96 1533.45 L1398.96 1538.98 Q1396.48 1537.71 1393.8 1537.07 Q1391.13 1536.44 1388.26 1536.44 Q1383.9 1536.44 1381.71 1537.77 Q1379.54 1539.11 1379.54 1541.79 Q1379.54 1543.82 1381.1 1545 Q1382.66 1546.15 1387.37 1547.2 L1389.38 1547.64 Q1395.62 1548.98 1398.23 1551.43 Q1400.87 1553.85 1400.87 1558.21 Q1400.87 1563.17 1396.92 1566.07 Q1393.01 1568.97 1386.13 1568.97 Q1383.27 1568.97 1380.15 1568.39 Q1377.06 1567.85 1373.62 1566.74 L1373.62 1560.69 Q1376.87 1562.38 1380.02 1563.24 Q1383.17 1564.07 1386.26 1564.07 Q1390.4 1564.07 1392.62 1562.66 Q1394.85 1561.23 1394.85 1558.65 Q1394.85 1556.27 1393.23 1554.99 Q1391.64 1553.72 1386.19 1552.54 L1384.16 1552.07 Q1378.72 1550.92 1376.3 1548.56 Q1373.88 1546.18 1373.88 1542.04 Q1373.88 1537.01 1377.44 1534.27 Q1381.01 1531.54 1387.56 1531.54 Q1390.81 1531.54 1393.67 1532.01 Q1396.54 1532.49 1398.96 1533.45 Z" fill="#000000" fill-rule="nonzero" fill-opacity="1" /><path clip-path="url(#clip990)" d="M1409.27 1518.58 L1414.36 1518.58 Q1419.14 1526.09 1421.49 1533.29 Q1423.88 1540.48 1423.88 1547.58 Q1423.88 1554.71 1421.49 1561.93 Q1419.14 1569.16 1414.36 1576.64 L1409.27 1576.64 Q1413.5 1569.35 1415.57 1562.16 Q1417.67 1554.93 1417.67 1547.58 Q1417.67 1540.23 1415.57 1533.06 Q1413.5 1525.9 1409.27 1518.58 Z" fill="#000000" fill-rule="nonzero" fill-opacity="1" /><polyline clip-path="url(#clip992)" style="stroke:#000000; stroke-linecap:round; stroke-linejoin:round; stroke-width:2; stroke-opacity:0.1; fill:none" points="249.542,1384.24 2352.76,1384.24 "/>
<polyline clip-path="url(#clip992)" style="stroke:#000000; stroke-linecap:round; stroke-linejoin:round; stroke-width:2; stroke-opacity:0.1; fill:none" points="249.542,1078.67 2352.76,1078.67 "/>
<polyline clip-path="url(#clip992)" style="stroke:#000000; stroke-linecap:round; stroke-linejoin:round; stroke-width:2; stroke-opacity:0.1; fill:none" points="249.542,773.102 2352.76,773.102 "/>
<polyline clip-path="url(#clip992)" style="stroke:#000000; stroke-linecap:round; stroke-linejoin:round; stroke-width:2; stroke-opacity:0.1; fill:none" points="249.542,467.534 2352.76,467.534 "/>
<polyline clip-path="url(#clip992)" style="stroke:#000000; stroke-linecap:round; stroke-linejoin:round; stroke-width:2; stroke-opacity:0.1; fill:none" points="249.542,161.967 2352.76,161.967 "/>
<polyline clip-path="url(#clip990)" style="stroke:#000000; stroke-linecap:round; stroke-linejoin:round; stroke-width:4; stroke-opacity:1; fill:none" points="249.542,1423.18 249.542,47.2441 "/>
<polyline clip-path="url(#clip990)" style="stroke:#000000; stroke-linecap:round; stroke-linejoin:round; stroke-width:4; stroke-opacity:1; fill:none" points="249.542,1384.24 268.44,1384.24 "/>
<polyline clip-path="url(#clip990)" style="stroke:#000000; stroke-linecap:round; stroke-linejoin:round; stroke-width:4; stroke-opacity:1; fill:none" points="249.542,1078.67 268.44,1078.67 "/>
<polyline clip-path="url(#clip990)" style="stroke:#000000; stroke-linecap:round; stroke-linejoin:round; stroke-width:4; stroke-opacity:1; fill:none" points="249.542,773.102 268.44,773.102 "/>
<polyline clip-path="url(#clip990)" style="stroke:#000000; stroke-linecap:round; stroke-linejoin:round; stroke-width:4; stroke-opacity:1; fill:none" points="249.542,467.534 268.44,467.534 "/>
<polyline clip-path="url(#clip990)" style="stroke:#000000; stroke-linecap:round; stroke-linejoin:round; stroke-width:4; stroke-opacity:1; fill:none" points="249.542,161.967 268.44,161.967 "/>
<path clip-path="url(#clip990)" d="M126.205 1370.04 Q122.593 1370.04 120.765 1373.6 Q118.959 1377.14 118.959 1384.27 Q118.959 1391.38 120.765 1394.94 Q122.593 1398.49 126.205 1398.49 Q129.839 1398.49 131.644 1394.94 Q133.473 1391.38 133.473 1384.27 Q133.473 1377.14 131.644 1373.6 Q129.839 1370.04 126.205 1370.04 M126.205 1366.33 Q132.015 1366.33 135.07 1370.94 Q138.149 1375.52 138.149 1384.27 Q138.149 1393 135.07 1397.61 Q132.015 1402.19 126.205 1402.19 Q120.394 1402.19 117.316 1397.61 Q114.26 1393 114.26 1384.27 Q114.26 1375.52 117.316 1370.94 Q120.394 1366.33 126.205 1366.33 Z" fill="#000000" fill-rule="nonzero" fill-opacity="1" /><path clip-path="url(#clip990)" d="M146.366 1395.64 L151.251 1395.64 L151.251 1401.52 L146.366 1401.52 L146.366 1395.64 Z" fill="#000000" fill-rule="nonzero" fill-opacity="1" /><path clip-path="url(#clip990)" d="M171.436 1370.04 Q167.825 1370.04 165.996 1373.6 Q164.19 1377.14 164.19 1384.27 Q164.19 1391.38 165.996 1394.94 Q167.825 1398.49 171.436 1398.49 Q175.07 1398.49 176.876 1394.94 Q178.704 1391.38 178.704 1384.27 Q178.704 1377.14 176.876 1373.6 Q175.07 1370.04 171.436 1370.04 M171.436 1366.33 Q177.246 1366.33 180.301 1370.94 Q183.38 1375.52 183.38 1384.27 Q183.38 1393 180.301 1397.61 Q177.246 1402.19 171.436 1402.19 Q165.626 1402.19 162.547 1397.61 Q159.491 1393 159.491 1384.27 Q159.491 1375.52 162.547 1370.94 Q165.626 1366.33 171.436 1366.33 Z" fill="#000000" fill-rule="nonzero" fill-opacity="1" /><path clip-path="url(#clip990)" d="M201.598 1370.04 Q197.987 1370.04 196.158 1373.6 Q194.352 1377.14 194.352 1384.27 Q194.352 1391.38 196.158 1394.94 Q197.987 1398.49 201.598 1398.49 Q205.232 1398.49 207.037 1394.94 Q208.866 1391.38 208.866 1384.27 Q208.866 1377.14 207.037 1373.6 Q205.232 1370.04 201.598 1370.04 M201.598 1366.33 Q207.408 1366.33 210.463 1370.94 Q213.542 1375.52 213.542 1384.27 Q213.542 1393 210.463 1397.61 Q207.408 1402.19 201.598 1402.19 Q195.787 1402.19 192.709 1397.61 Q189.653 1393 189.653 1384.27 Q189.653 1375.52 192.709 1370.94 Q195.787 1366.33 201.598 1366.33 Z" fill="#000000" fill-rule="nonzero" fill-opacity="1" /><path clip-path="url(#clip990)" d="M127.2 1064.47 Q123.589 1064.47 121.76 1068.03 Q119.955 1071.58 119.955 1078.71 Q119.955 1085.81 121.76 1089.38 Q123.589 1092.92 127.2 1092.92 Q130.834 1092.92 132.64 1089.38 Q134.468 1085.81 134.468 1078.71 Q134.468 1071.58 132.64 1068.03 Q130.834 1064.47 127.2 1064.47 M127.2 1060.77 Q133.01 1060.77 136.066 1065.37 Q139.144 1069.96 139.144 1078.71 Q139.144 1087.43 136.066 1092.04 Q133.01 1096.62 127.2 1096.62 Q121.39 1096.62 118.311 1092.04 Q115.256 1087.43 115.256 1078.71 Q115.256 1069.96 118.311 1065.37 Q121.39 1060.77 127.2 1060.77 Z" fill="#000000" fill-rule="nonzero" fill-opacity="1" /><path clip-path="url(#clip990)" d="M147.362 1090.07 L152.246 1090.07 L152.246 1095.95 L147.362 1095.95 L147.362 1090.07 Z" fill="#000000" fill-rule="nonzero" fill-opacity="1" /><path clip-path="url(#clip990)" d="M172.431 1064.47 Q168.82 1064.47 166.991 1068.03 Q165.186 1071.58 165.186 1078.71 Q165.186 1085.81 166.991 1089.38 Q168.82 1092.92 172.431 1092.92 Q176.065 1092.92 177.871 1089.38 Q179.7 1085.81 179.7 1078.71 Q179.7 1071.58 177.871 1068.03 Q176.065 1064.47 172.431 1064.47 M172.431 1060.77 Q178.241 1060.77 181.297 1065.37 Q184.376 1069.96 184.376 1078.71 Q184.376 1087.43 181.297 1092.04 Q178.241 1096.62 172.431 1096.62 Q166.621 1096.62 163.542 1092.04 Q160.487 1087.43 160.487 1078.71 Q160.487 1069.96 163.542 1065.37 Q166.621 1060.77 172.431 1060.77 Z" fill="#000000" fill-rule="nonzero" fill-opacity="1" /><path clip-path="url(#clip990)" d="M192.639 1061.39 L210.996 1061.39 L210.996 1065.33 L196.922 1065.33 L196.922 1073.8 Q197.94 1073.45 198.959 1073.29 Q199.977 1073.1 200.996 1073.1 Q206.783 1073.1 210.162 1076.27 Q213.542 1079.45 213.542 1084.86 Q213.542 1090.44 210.07 1093.54 Q206.598 1096.62 200.278 1096.62 Q198.102 1096.62 195.834 1096.25 Q193.588 1095.88 191.181 1095.14 L191.181 1090.44 Q193.264 1091.58 195.487 1092.13 Q197.709 1092.69 200.186 1092.69 Q204.19 1092.69 206.528 1090.58 Q208.866 1088.47 208.866 1084.86 Q208.866 1081.25 206.528 1079.14 Q204.19 1077.04 200.186 1077.04 Q198.311 1077.04 196.436 1077.46 Q194.584 1077.87 192.639 1078.75 L192.639 1061.39 Z" fill="#000000" fill-rule="nonzero" fill-opacity="1" /><path clip-path="url(#clip990)" d="M126.205 758.901 Q122.593 758.901 120.765 762.466 Q118.959 766.008 118.959 773.137 Q118.959 780.244 120.765 783.808 Q122.593 787.35 126.205 787.35 Q129.839 787.35 131.644 783.808 Q133.473 780.244 133.473 773.137 Q133.473 766.008 131.644 762.466 Q129.839 758.901 126.205 758.901 M126.205 755.197 Q132.015 755.197 135.07 759.804 Q138.149 764.387 138.149 773.137 Q138.149 781.864 135.07 786.47 Q132.015 791.054 126.205 791.054 Q120.394 791.054 117.316 786.47 Q114.26 781.864 114.26 773.137 Q114.26 764.387 117.316 759.804 Q120.394 755.197 126.205 755.197 Z" fill="#000000" fill-rule="nonzero" fill-opacity="1" /><path clip-path="url(#clip990)" d="M146.366 784.503 L151.251 784.503 L151.251 790.382 L146.366 790.382 L146.366 784.503 Z" fill="#000000" fill-rule="nonzero" fill-opacity="1" /><path clip-path="url(#clip990)" d="M162.246 786.447 L169.885 786.447 L169.885 760.082 L161.575 761.748 L161.575 757.489 L169.839 755.822 L174.514 755.822 L174.514 786.447 L182.153 786.447 L182.153 790.382 L162.246 790.382 L162.246 786.447 Z" fill="#000000" fill-rule="nonzero" fill-opacity="1" /><path clip-path="url(#clip990)" d="M201.598 758.901 Q197.987 758.901 196.158 762.466 Q194.352 766.008 194.352 773.137 Q194.352 780.244 196.158 783.808 Q197.987 787.35 201.598 787.35 Q205.232 787.35 207.037 783.808 Q208.866 780.244 208.866 773.137 Q208.866 766.008 207.037 762.466 Q205.232 758.901 201.598 758.901 M201.598 755.197 Q207.408 755.197 210.463 759.804 Q213.542 764.387 213.542 773.137 Q213.542 781.864 210.463 786.47 Q207.408 791.054 201.598 791.054 Q195.787 791.054 192.709 786.47 Q189.653 781.864 189.653 773.137 Q189.653 764.387 192.709 759.804 Q195.787 755.197 201.598 755.197 Z" fill="#000000" fill-rule="nonzero" fill-opacity="1" /><path clip-path="url(#clip990)" d="M127.2 453.333 Q123.589 453.333 121.76 456.898 Q119.955 460.44 119.955 467.569 Q119.955 474.676 121.76 478.24 Q123.589 481.782 127.2 481.782 Q130.834 481.782 132.64 478.24 Q134.468 474.676 134.468 467.569 Q134.468 460.44 132.64 456.898 Q130.834 453.333 127.2 453.333 M127.2 449.629 Q133.01 449.629 136.066 454.236 Q139.144 458.819 139.144 467.569 Q139.144 476.296 136.066 480.902 Q133.01 485.486 127.2 485.486 Q121.39 485.486 118.311 480.902 Q115.256 476.296 115.256 467.569 Q115.256 458.819 118.311 454.236 Q121.39 449.629 127.2 449.629 Z" fill="#000000" fill-rule="nonzero" fill-opacity="1" /><path clip-path="url(#clip990)" d="M147.362 478.935 L152.246 478.935 L152.246 484.814 L147.362 484.814 L147.362 478.935 Z" fill="#000000" fill-rule="nonzero" fill-opacity="1" /><path clip-path="url(#clip990)" d="M163.241 480.879 L170.88 480.879 L170.88 454.514 L162.57 456.18 L162.57 451.921 L170.834 450.254 L175.51 450.254 L175.51 480.879 L183.149 480.879 L183.149 484.814 L163.241 484.814 L163.241 480.879 Z" fill="#000000" fill-rule="nonzero" fill-opacity="1" /><path clip-path="url(#clip990)" d="M192.639 450.254 L210.996 450.254 L210.996 454.19 L196.922 454.19 L196.922 462.662 Q197.94 462.315 198.959 462.153 Q199.977 461.967 200.996 461.967 Q206.783 461.967 210.162 465.139 Q213.542 468.31 213.542 473.727 Q213.542 479.305 210.07 482.407 Q206.598 485.486 200.278 485.486 Q198.102 485.486 195.834 485.115 Q193.588 484.745 191.181 484.004 L191.181 479.305 Q193.264 480.439 195.487 480.995 Q197.709 481.551 200.186 481.551 Q204.19 481.551 206.528 479.444 Q208.866 477.338 208.866 473.727 Q208.866 470.115 206.528 468.009 Q204.19 465.903 200.186 465.903 Q198.311 465.903 196.436 466.319 Q194.584 466.736 192.639 467.615 L192.639 450.254 Z" fill="#000000" fill-rule="nonzero" fill-opacity="1" /><path clip-path="url(#clip990)" d="M126.205 147.765 Q122.593 147.765 120.765 151.33 Q118.959 154.872 118.959 162.001 Q118.959 169.108 120.765 172.672 Q122.593 176.214 126.205 176.214 Q129.839 176.214 131.644 172.672 Q133.473 169.108 133.473 162.001 Q133.473 154.872 131.644 151.33 Q129.839 147.765 126.205 147.765 M126.205 144.062 Q132.015 144.062 135.07 148.668 Q138.149 153.251 138.149 162.001 Q138.149 170.728 135.07 175.335 Q132.015 179.918 126.205 179.918 Q120.394 179.918 117.316 175.335 Q114.26 170.728 114.26 162.001 Q114.26 153.251 117.316 148.668 Q120.394 144.062 126.205 144.062 Z" fill="#000000" fill-rule="nonzero" fill-opacity="1" /><path clip-path="url(#clip990)" d="M146.366 173.367 L151.251 173.367 L151.251 179.247 L146.366 179.247 L146.366 173.367 Z" fill="#000000" fill-rule="nonzero" fill-opacity="1" /><path clip-path="url(#clip990)" d="M165.464 175.311 L181.783 175.311 L181.783 179.247 L159.839 179.247 L159.839 175.311 Q162.501 172.557 167.084 167.927 Q171.69 163.274 172.871 161.932 Q175.116 159.409 175.996 157.673 Q176.899 155.913 176.899 154.224 Q176.899 151.469 174.954 149.733 Q173.033 147.997 169.931 147.997 Q167.732 147.997 165.278 148.761 Q162.848 149.524 160.07 151.075 L160.07 146.353 Q162.894 145.219 165.348 144.64 Q167.802 144.062 169.839 144.062 Q175.209 144.062 178.403 146.747 Q181.598 149.432 181.598 153.923 Q181.598 156.052 180.788 157.973 Q180.001 159.872 177.894 162.464 Q177.315 163.135 174.214 166.353 Q171.112 169.547 165.464 175.311 Z" fill="#000000" fill-rule="nonzero" fill-opacity="1" /><path clip-path="url(#clip990)" d="M201.598 147.765 Q197.987 147.765 196.158 151.33 Q194.352 154.872 194.352 162.001 Q194.352 169.108 196.158 172.672 Q197.987 176.214 201.598 176.214 Q205.232 176.214 207.037 172.672 Q208.866 169.108 208.866 162.001 Q208.866 154.872 207.037 151.33 Q205.232 147.765 201.598 147.765 M201.598 144.062 Q207.408 144.062 210.463 148.668 Q213.542 153.251 213.542 162.001 Q213.542 170.728 210.463 175.335 Q207.408 179.918 201.598 179.918 Q195.787 179.918 192.709 175.335 Q189.653 170.728 189.653 162.001 Q189.653 153.251 192.709 148.668 Q195.787 144.062 201.598 144.062 Z" fill="#000000" fill-rule="nonzero" fill-opacity="1" /><path clip-path="url(#clip990)" d="M29.7248 1045.51 L35.1993 1045.51 Q33.8307 1047.99 33.1623 1050.51 Q32.4621 1052.99 32.4621 1055.53 Q32.4621 1061.23 36.0905 1064.38 Q39.6872 1067.53 46.212 1067.53 Q52.7369 1067.53 56.3653 1064.38 Q59.9619 1061.23 59.9619 1055.53 Q59.9619 1052.99 59.2935 1050.51 Q58.5933 1047.99 57.2247 1045.51 L62.6355 1045.51 Q63.7814 1047.96 64.3543 1050.6 Q64.9272 1053.21 64.9272 1056.17 Q64.9272 1064.22 59.8664 1068.97 Q54.8057 1073.71 46.212 1073.71 Q37.491 1073.71 32.4939 1068.93 Q27.4968 1064.13 27.4968 1055.79 Q27.4968 1053.08 28.0697 1050.51 Q28.6108 1047.93 29.7248 1045.51 Z" fill="#000000" fill-rule="nonzero" fill-opacity="1" /><path clip-path="url(#clip990)" d="M32.4621 1021.51 Q32.4621 1026.22 36.1542 1028.96 Q39.8145 1031.69 46.212 1031.69 Q52.6095 1031.69 56.3017 1028.99 Q59.9619 1026.25 59.9619 1021.51 Q59.9619 1016.83 56.2698 1014.09 Q52.5777 1011.36 46.212 1011.36 Q39.8781 1011.36 36.186 1014.09 Q32.4621 1016.83 32.4621 1021.51 M27.4968 1021.51 Q27.4968 1013.87 32.4621 1009.51 Q37.4273 1005.15 46.212 1005.15 Q54.9649 1005.15 59.9619 1009.51 Q64.9272 1013.87 64.9272 1021.51 Q64.9272 1029.18 59.9619 1033.54 Q54.9649 1037.87 46.212 1037.87 Q37.4273 1037.87 32.4621 1033.54 Q27.4968 1029.18 27.4968 1021.51 Z" fill="#000000" fill-rule="nonzero" fill-opacity="1" /><path clip-path="url(#clip990)" d="M42.4881 965.81 L64.0042 965.81 L64.0042 971.666 L42.679 971.666 Q37.6183 971.666 35.1038 973.64 Q32.5894 975.613 32.5894 979.56 Q32.5894 984.302 35.6131 987.039 Q38.6368 989.777 43.8567 989.777 L64.0042 989.777 L64.0042 995.665 L28.3562 995.665 L28.3562 989.777 L33.8944 989.777 Q30.6797 987.676 29.0883 984.843 Q27.4968 981.979 27.4968 978.255 Q27.4968 972.112 31.3163 968.961 Q35.1038 965.81 42.4881 965.81 Z" fill="#000000" fill-rule="nonzero" fill-opacity="1" /><path clip-path="url(#clip990)" d="M29.7248 928.475 L35.1993 928.475 Q33.8307 930.957 33.1623 933.472 Q32.4621 935.955 32.4621 938.501 Q32.4621 944.198 36.0905 947.349 Q39.6872 950.5 46.212 950.5 Q52.7369 950.5 56.3653 947.349 Q59.9619 944.198 59.9619 938.501 Q59.9619 935.955 59.2935 933.472 Q58.5933 930.957 57.2247 928.475 L62.6355 928.475 Q63.7814 930.926 64.3543 933.567 Q64.9272 936.177 64.9272 939.137 Q64.9272 947.19 59.8664 951.932 Q54.8057 956.675 46.212 956.675 Q37.491 956.675 32.4939 951.901 Q27.4968 947.095 27.4968 938.755 Q27.4968 936.05 28.0697 933.472 Q28.6108 930.894 29.7248 928.475 Z" fill="#000000" fill-rule="nonzero" fill-opacity="1" /><path clip-path="url(#clip990)" d="M44.7161 887.798 L47.5806 887.798 L47.5806 914.725 Q53.6281 914.343 56.8109 911.096 Q59.9619 907.818 59.9619 901.993 Q59.9619 898.62 59.1344 895.469 Q58.3069 892.286 56.6518 889.167 L62.1899 889.167 Q63.5267 892.318 64.227 895.628 Q64.9272 898.938 64.9272 902.344 Q64.9272 910.874 59.9619 915.871 Q54.9967 920.836 46.5303 920.836 Q37.7774 920.836 32.6531 916.125 Q27.4968 911.383 27.4968 903.362 Q27.4968 896.169 32.1438 891.999 Q36.7589 887.798 44.7161 887.798 M42.9973 893.654 Q38.1912 893.718 35.3266 896.36 Q32.4621 898.97 32.4621 903.298 Q32.4621 908.2 35.2312 911.16 Q38.0002 914.088 43.0292 914.534 L42.9973 893.654 Z" fill="#000000" fill-rule="nonzero" fill-opacity="1" /><path clip-path="url(#clip990)" d="M42.4881 848.553 L64.0042 848.553 L64.0042 854.41 L42.679 854.41 Q37.6183 854.41 35.1038 856.383 Q32.5894 858.357 32.5894 862.303 Q32.5894 867.046 35.6131 869.783 Q38.6368 872.52 43.8567 872.52 L64.0042 872.52 L64.0042 878.409 L28.3562 878.409 L28.3562 872.52 L33.8944 872.52 Q30.6797 870.42 29.0883 867.587 Q27.4968 864.722 27.4968 860.998 Q27.4968 854.855 31.3163 851.704 Q35.1038 848.553 42.4881 848.553 Z" fill="#000000" fill-rule="nonzero" fill-opacity="1" /><path clip-path="url(#clip990)" d="M18.2347 831.08 L28.3562 831.08 L28.3562 819.016 L32.9077 819.016 L32.9077 831.08 L52.2594 831.08 Q56.6199 831.08 57.8613 829.902 Q59.1026 828.692 59.1026 825.032 L59.1026 819.016 L64.0042 819.016 L64.0042 825.032 Q64.0042 831.812 61.4897 834.39 Q58.9434 836.968 52.2594 836.968 L32.9077 836.968 L32.9077 841.265 L28.3562 841.265 L28.3562 836.968 L18.2347 836.968 L18.2347 831.08 Z" fill="#000000" fill-rule="nonzero" fill-opacity="1" /><path clip-path="url(#clip990)" d="M33.8307 790.657 Q33.2578 791.644 33.0032 792.822 Q32.7167 793.967 32.7167 795.368 Q32.7167 800.333 35.9632 803.007 Q39.1779 805.649 45.2253 805.649 L64.0042 805.649 L64.0042 811.537 L28.3562 811.537 L28.3562 805.649 L33.8944 805.649 Q30.6479 803.802 29.0883 800.842 Q27.4968 797.882 27.4968 793.649 Q27.4968 793.044 27.5923 792.312 Q27.656 791.58 27.8151 790.689 L33.8307 790.657 Z" fill="#000000" fill-rule="nonzero" fill-opacity="1" /><path clip-path="url(#clip990)" d="M46.0847 768.314 Q46.0847 775.411 47.7079 778.149 Q49.3312 780.886 53.2461 780.886 Q56.3653 780.886 58.2114 778.849 Q60.0256 776.78 60.0256 773.247 Q60.0256 768.377 56.5881 765.449 Q53.1188 762.489 47.3897 762.489 L46.0847 762.489 L46.0847 768.314 M43.6657 756.633 L64.0042 756.633 L64.0042 762.489 L58.5933 762.489 Q61.8398 764.494 63.3994 767.486 Q64.9272 770.478 64.9272 774.807 Q64.9272 780.281 61.8716 783.528 Q58.7843 786.742 53.6281 786.742 Q47.6125 786.742 44.5569 782.732 Q41.5014 778.69 41.5014 770.701 L41.5014 762.489 L40.9285 762.489 Q36.8862 762.489 34.6901 765.163 Q32.4621 767.804 32.4621 772.61 Q32.4621 775.666 33.1941 778.562 Q33.9262 781.459 35.3903 784.132 L29.9795 784.132 Q28.7381 780.918 28.1334 777.894 Q27.4968 774.87 27.4968 772.006 Q27.4968 764.271 31.5072 760.452 Q35.5176 756.633 43.6657 756.633 Z" fill="#000000" fill-rule="nonzero" fill-opacity="1" /><path clip-path="url(#clip990)" d="M18.2347 738.777 L28.3562 738.777 L28.3562 726.714 L32.9077 726.714 L32.9077 738.777 L52.2594 738.777 Q56.6199 738.777 57.8613 737.599 Q59.1026 736.39 59.1026 732.729 L59.1026 726.714 L64.0042 726.714 L64.0042 732.729 Q64.0042 739.509 61.4897 742.087 Q58.9434 744.665 52.2594 744.665 L32.9077 744.665 L32.9077 748.962 L28.3562 748.962 L28.3562 744.665 L18.2347 744.665 L18.2347 738.777 Z" fill="#000000" fill-rule="nonzero" fill-opacity="1" /><path clip-path="url(#clip990)" d="M28.3562 719.011 L28.3562 713.155 L64.0042 713.155 L64.0042 719.011 L28.3562 719.011 M14.479 719.011 L14.479 713.155 L21.895 713.155 L21.895 719.011 L14.479 719.011 Z" fill="#000000" fill-rule="nonzero" fill-opacity="1" /><path clip-path="url(#clip990)" d="M32.4621 687.087 Q32.4621 691.798 36.1542 694.535 Q39.8145 697.272 46.212 697.272 Q52.6095 697.272 56.3017 694.567 Q59.9619 691.83 59.9619 687.087 Q59.9619 682.408 56.2698 679.671 Q52.5777 676.934 46.212 676.934 Q39.8781 676.934 36.186 679.671 Q32.4621 682.408 32.4621 687.087 M27.4968 687.087 Q27.4968 679.448 32.4621 675.088 Q37.4273 670.727 46.212 670.727 Q54.9649 670.727 59.9619 675.088 Q64.9272 679.448 64.9272 687.087 Q64.9272 694.758 59.9619 699.118 Q54.9649 703.447 46.212 703.447 Q37.4273 703.447 32.4621 699.118 Q27.4968 694.758 27.4968 687.087 Z" fill="#000000" fill-rule="nonzero" fill-opacity="1" /><path clip-path="url(#clip990)" d="M42.4881 631.387 L64.0042 631.387 L64.0042 637.244 L42.679 637.244 Q37.6183 637.244 35.1038 639.217 Q32.5894 641.19 32.5894 645.137 Q32.5894 649.88 35.6131 652.617 Q38.6368 655.354 43.8567 655.354 L64.0042 655.354 L64.0042 661.242 L28.3562 661.242 L28.3562 655.354 L33.8944 655.354 Q30.6797 653.253 29.0883 650.421 Q27.4968 647.556 27.4968 643.832 Q27.4968 637.689 31.3163 634.538 Q35.1038 631.387 42.4881 631.387 Z" fill="#000000" fill-rule="nonzero" fill-opacity="1" /><path clip-path="url(#clip990)" d="M14.5426 584.918 Q21.8632 589.183 29.0246 591.252 Q36.186 593.32 43.5384 593.32 Q50.8908 593.32 58.1159 591.252 Q65.3091 589.151 72.5979 584.918 L72.5979 590.01 Q65.1182 594.784 57.8931 597.172 Q50.668 599.527 43.5384 599.527 Q36.4406 599.527 29.2474 597.172 Q22.0542 594.816 14.5426 590.01 L14.5426 584.918 Z" fill="#000000" fill-rule="nonzero" fill-opacity="1" /><path clip-path="url(#clip990)" d="M35.1993 545.8 Q31.2526 543.604 29.3747 540.549 Q27.4968 537.493 27.4968 533.355 Q27.4968 527.785 31.4117 524.762 Q35.2948 521.738 42.4881 521.738 L64.0042 521.738 L64.0042 527.626 L42.679 527.626 Q37.5546 527.626 35.072 529.441 Q32.5894 531.255 32.5894 534.979 Q32.5894 539.53 35.6131 542.172 Q38.6368 544.814 43.8567 544.814 L64.0042 544.814 L64.0042 550.702 L42.679 550.702 Q37.5228 550.702 35.072 552.516 Q32.5894 554.33 32.5894 558.118 Q32.5894 562.606 35.6449 565.248 Q38.6686 567.889 43.8567 567.889 L64.0042 567.889 L64.0042 573.778 L28.3562 573.778 L28.3562 567.889 L33.8944 567.889 Q30.616 565.884 29.0564 563.083 Q27.4968 560.282 27.4968 556.431 Q27.4968 552.548 29.4702 549.843 Q31.4436 547.105 35.1993 545.8 Z" fill="#000000" fill-rule="nonzero" fill-opacity="1" /><path clip-path="url(#clip990)" d="M45.7664 486.599 Q39.4007 486.599 35.8996 489.241 Q32.3984 491.851 32.3984 496.593 Q32.3984 501.304 35.8996 503.946 Q39.4007 506.556 45.7664 506.556 Q52.1003 506.556 55.6014 503.946 Q59.1026 501.304 59.1026 496.593 Q59.1026 491.851 55.6014 489.241 Q52.1003 486.599 45.7664 486.599 M59.58 480.743 Q68.683 480.743 73.1071 484.785 Q77.5631 488.827 77.5631 497.166 Q77.5631 500.254 77.0857 502.991 Q76.6401 505.728 75.6852 508.306 L69.9879 508.306 Q71.3884 505.728 72.0568 503.214 Q72.7252 500.699 72.7252 498.089 Q72.7252 492.328 69.7015 489.464 Q66.7096 486.599 60.6303 486.599 L57.7339 486.599 Q60.885 488.414 62.4446 491.246 Q64.0042 494.079 64.0042 498.026 Q64.0042 504.582 59.0071 508.593 Q54.01 512.603 45.7664 512.603 Q37.491 512.603 32.4939 508.593 Q27.4968 504.582 27.4968 498.026 Q27.4968 494.079 29.0564 491.246 Q30.616 488.414 33.7671 486.599 L28.3562 486.599 L28.3562 480.743 L59.58 480.743 Z" fill="#000000" fill-rule="nonzero" fill-opacity="1" /><path clip-path="url(#clip990)" d="M16.4842 458.272 L16.4842 452.861 L70.0516 469.412 L70.0516 474.823 L16.4842 458.272 Z" fill="#000000" fill-rule="nonzero" fill-opacity="1" /><path clip-path="url(#clip990)" d="M16.4842 446.464 L16.4842 440.034 L58.5933 440.034 L58.5933 416.895 L64.0042 416.895 L64.0042 446.464 L16.4842 446.464 Z" fill="#000000" fill-rule="nonzero" fill-opacity="1" /><path clip-path="url(#clip990)" d="M14.5426 411.325 L14.5426 406.232 Q22.0542 401.458 29.2474 399.103 Q36.4406 396.716 43.5384 396.716 Q50.668 396.716 57.8931 399.103 Q65.1182 401.458 72.5979 406.232 L72.5979 411.325 Q65.3091 407.092 58.1159 405.023 Q50.8908 402.922 43.5384 402.922 Q36.186 402.922 29.0246 405.023 Q21.8632 407.092 14.5426 411.325 Z" fill="#000000" fill-rule="nonzero" fill-opacity="1" /><polyline clip-path="url(#clip992)" style="stroke:#1b9e77; stroke-linecap:round; stroke-linejoin:round; stroke-width:8; stroke-opacity:1; fill:none" stroke-dasharray="32, 16, 4, 16" points="249.542,86.1857 263.235,86.1857 389.847,86.1857 465.936,86.1857 530.268,86.1857 600.151,86.1857 664.576,86.1857 733.647,86.1857 813.673,86.1857 884.79,86.1857 947.153,86.1857 981.15,86.1858 1015.15,86.1878 1049.34,86.2146 1083.54,86.4664 1102.45,87.0498 1121.35,88.6102 1130.81,90.1101 1140.26,92.3964 1149.71,95.7979 1159.16,100.738 1168.16,107.344 1177.15,116.355 1181.65,121.951 1186.15,128.383 1190.64,135.736 1195.14,144.096 1199.64,153.55 1204.13,164.185 1208.63,176.084 1213.13,189.327 1217.63,203.986 1222.12,220.127 1226.62,237.806 1231.12,257.066 1235.79,278.803 1240.47,302.299 1245.14,327.555 1249.82,354.545 1254.5,383.228 1259.17,413.535 1263.85,445.379 1268.52,478.649 1273.2,513.213 1277.88,548.92 1282.55,585.6 1287.23,623.07 1296.58,699.582 1305.93,776.79 1313.8,841.067 1321.67,903.644 1325.61,934.008 1329.55,963.619 1333.48,992.381 1337.42,1020.21 1341.35,1047.03 1345.29,1072.79 1349.23,1097.41 1353.16,1120.88 1357.1,1143.14 1361.04,1164.19 1364.97,1184.01 1368.91,1202.61 1373.71,1223.66 1378.52,1242.92 1383.32,1260.46 1388.13,1276.33 1392.93,1290.62 1397.74,1303.39 1402.55,1314.76 1407.35,1324.82 1412.16,1333.67 1416.96,1341.41 1421.77,1348.14 1426.57,1353.96 1436.18,1363.26 1445.79,1369.98 1454.6,1374.41 1463.4,1377.57 1472.21,1379.79 1481.01,1381.32 1498.62,1383.05 1516.23,1383.78 1548.75,1384.17 1581.28,1384.23 1614.23,1384.24 1647.18,1384.24 1721.02,1384.24 1787.94,1384.24 1864.56,1384.24 1935.51,1384.24 2005.45,1384.24 2073.35,1384.24 2142.96,1384.24 2219.23,1384.24 2330.03,1384.24 2352.76,1384.24 "/>
<polyline clip-path="url(#clip992)" style="stroke:#d95f02; stroke-linecap:round; stroke-linejoin:round; stroke-width:8; stroke-opacity:1; fill:none" stroke-dasharray="32, 20" points="249.542,86.1857 263.235,86.1857 389.847,86.1872 465.936,86.1971 530.268,86.2403 600.151,86.4387 664.576,87.0871 699.112,87.873 733.647,89.2312 773.66,91.9618 813.673,96.6488 831.452,99.6162 849.231,103.277 867.011,107.752 884.79,113.171 900.381,118.812 915.972,125.386 931.562,132.997 947.153,141.748 964.152,152.71 981.15,165.281 998.148,179.585 1015.15,195.737 1032.25,213.949 1049.34,234.214 1066.44,256.593 1083.54,281.12 1102.45,310.747 1121.35,342.974 1140.26,377.719 1159.16,414.849 1177.15,452.227 1195.14,491.407 1213.13,532.158 1231.12,574.22 1268.52,664.618 1305.93,756.634 1337.42,833.222 1368.91,907.271 1388.13,950.595 1407.35,992.144 1426.57,1031.68 1445.79,1069 1463.4,1101.12 1481.01,1131.19 1498.62,1159.14 1516.23,1184.98 1532.49,1206.96 1548.75,1227.18 1565.02,1245.66 1581.28,1262.49 1597.75,1277.9 1614.23,1291.76 1630.7,1304.15 1647.18,1315.19 1665.64,1326.05 1684.1,1335.47 1702.56,1343.59 1721.02,1350.53 1754.48,1360.56 1787.94,1367.89 1826.25,1373.77 1864.56,1377.69 1900.03,1380.08 1935.51,1381.64 2005.45,1383.27 2073.35,1383.89 2142.96,1384.13 2219.23,1384.21 2330.03,1384.23 2352.76,1384.24 "/>
<polyline clip-path="url(#clip992)" style="stroke:#e72989; stroke-linecap:round; stroke-linejoin:round; stroke-width:8; stroke-opacity:1; fill:none" points="249.542,86.2104 263.235,86.2167 389.847,86.437 465.936,86.9835 530.268,88.1417 600.151,90.9552 664.576,96.2584 699.112,100.804 733.647,106.996 753.653,111.501 773.66,116.791 793.666,122.96 813.673,130.106 831.452,137.358 849.231,145.531 867.011,154.695 884.79,164.917 900.381,174.803 915.972,185.593 931.562,197.326 947.153,210.034 964.152,225.036 981.15,241.262 998.148,258.735 1015.15,277.468 1032.25,297.588 1049.34,318.979 1066.44,341.623 1083.54,365.49 1102.45,393.251 1121.35,422.384 1140.26,452.798 1159.16,484.387 1195.14,547.305 1231.12,613.075 1305.93,754.159 1368.91,871.155 1388.13,905.553 1407.35,939.072 1426.57,971.582 1445.79,1002.96 1463.4,1030.64 1481.01,1057.21 1498.62,1082.63 1516.23,1106.86 1532.49,1128.15 1548.75,1148.37 1565.02,1167.53 1581.28,1185.61 1597.75,1202.85 1614.23,1219 1630.7,1234.1 1647.18,1248.16 1665.64,1262.72 1684.1,1276.07 1702.56,1288.25 1721.02,1299.34 1737.75,1308.48 1754.48,1316.81 1771.21,1324.39 1787.94,1331.25 1826.25,1344.53 1864.56,1354.89 1900.03,1362.32 1935.51,1368.05 2005.45,1375.63 2073.35,1379.77 2142.96,1382.05 2219.23,1383.29 2330.03,1383.98 2352.76,1384.04 "/>
<path clip-path="url(#clip990)" d="M1835.38 300.469 L2282.65 300.469 L2282.65 93.1086 L1835.38 93.1086  Z" fill="#ffffff" fill-rule="evenodd" fill-opacity="1"/>
<polyline clip-path="url(#clip990)" style="stroke:#000000; stroke-linecap:round; stroke-linejoin:round; stroke-width:4; stroke-opacity:1; fill:none" points="1835.38,300.469 2282.65,300.469 2282.65,93.1086 1835.38,93.1086 1835.38,300.469 "/>
<polyline clip-path="url(#clip990)" style="stroke:#1b9e77; stroke-linecap:round; stroke-linejoin:round; stroke-width:8; stroke-opacity:1; fill:none" stroke-dasharray="32, 16, 4, 16" points="1858.75,144.949 1998.97,144.949 "/>
<path clip-path="url(#clip990)" d="M2038.17 132.275 L2031.83 149.474 L2044.54 149.474 L2038.17 132.275 M2035.53 127.669 L2040.83 127.669 L2054 162.229 L2049.14 162.229 L2045.99 153.363 L2030.42 153.363 L2027.27 162.229 L2022.34 162.229 L2035.53 127.669 Z" fill="#000000" fill-rule="nonzero" fill-opacity="1" /><path clip-path="url(#clip990)" d="M2080.41 146.581 L2080.41 162.229 L2076.16 162.229 L2076.16 146.719 Q2076.16 143.039 2074.72 141.21 Q2073.29 139.382 2070.42 139.382 Q2066.97 139.382 2064.98 141.581 Q2062.98 143.78 2062.98 147.576 L2062.98 162.229 L2058.7 162.229 L2058.7 136.303 L2062.98 136.303 L2062.98 140.331 Q2064.51 137.993 2066.57 136.835 Q2068.66 135.678 2071.36 135.678 Q2075.83 135.678 2078.12 138.456 Q2080.41 141.21 2080.41 146.581 Z" fill="#000000" fill-rule="nonzero" fill-opacity="1" /><path clip-path="url(#clip990)" d="M2087.06 136.303 L2107.29 136.303 L2107.29 140.192 L2091.27 158.826 L2107.29 158.826 L2107.29 162.229 L2086.48 162.229 L2086.48 158.34 L2102.5 139.706 L2087.06 139.706 L2087.06 136.303 Z" fill="#000000" fill-rule="nonzero" fill-opacity="1" /><path clip-path="url(#clip990)" d="M2135.97 148.201 L2135.97 150.284 L2116.39 150.284 Q2116.66 154.682 2119.03 156.997 Q2121.41 159.289 2125.65 159.289 Q2128.1 159.289 2130.39 158.687 Q2132.71 158.085 2134.97 156.881 L2134.97 160.909 Q2132.68 161.881 2130.28 162.391 Q2127.87 162.9 2125.39 162.9 Q2119.19 162.9 2115.55 159.289 Q2111.94 155.678 2111.94 149.52 Q2111.94 143.155 2115.37 139.428 Q2118.82 135.678 2124.65 135.678 Q2129.88 135.678 2132.91 139.057 Q2135.97 142.414 2135.97 148.201 M2131.71 146.951 Q2131.66 143.456 2129.74 141.372 Q2127.85 139.289 2124.7 139.289 Q2121.13 139.289 2118.98 141.303 Q2116.85 143.317 2116.53 146.974 L2131.71 146.951 Z" fill="#000000" fill-rule="nonzero" fill-opacity="1" /><path clip-path="url(#clip990)" d="M2142.96 126.21 L2147.22 126.21 L2147.22 162.229 L2142.96 162.229 L2142.96 126.21 Z" fill="#000000" fill-rule="nonzero" fill-opacity="1" /><path clip-path="url(#clip990)" d="M2156.13 136.303 L2160.39 136.303 L2160.39 162.229 L2156.13 162.229 L2156.13 136.303 M2156.13 126.21 L2160.39 126.21 L2160.39 131.604 L2156.13 131.604 L2156.13 126.21 Z" fill="#000000" fill-rule="nonzero" fill-opacity="1" /><path clip-path="url(#clip990)" d="M2168.86 151.997 L2168.86 136.303 L2173.12 136.303 L2173.12 151.835 Q2173.12 155.516 2174.56 157.368 Q2175.99 159.196 2178.86 159.196 Q2182.31 159.196 2184.3 156.997 Q2186.32 154.798 2186.32 151.002 L2186.32 136.303 L2190.58 136.303 L2190.58 162.229 L2186.32 162.229 L2186.32 158.247 Q2184.77 160.608 2182.71 161.766 Q2180.67 162.9 2177.96 162.9 Q2173.49 162.9 2171.18 160.122 Q2168.86 157.344 2168.86 151.997 M2179.58 135.678 L2179.58 135.678 Z" fill="#000000" fill-rule="nonzero" fill-opacity="1" /><path clip-path="url(#clip990)" d="M2215.88 137.067 L2215.88 141.094 Q2214.07 140.169 2212.13 139.706 Q2210.18 139.243 2208.1 139.243 Q2204.93 139.243 2203.33 140.215 Q2201.76 141.187 2201.76 143.131 Q2201.76 144.613 2202.89 145.469 Q2204.03 146.303 2207.45 147.067 L2208.91 147.391 Q2213.45 148.363 2215.34 150.145 Q2217.27 151.905 2217.27 155.076 Q2217.27 158.687 2214.4 160.793 Q2211.55 162.9 2206.55 162.9 Q2204.47 162.9 2202.2 162.483 Q2199.95 162.09 2197.45 161.28 L2197.45 156.881 Q2199.81 158.108 2202.1 158.733 Q2204.4 159.335 2206.64 159.335 Q2209.65 159.335 2211.27 158.317 Q2212.89 157.275 2212.89 155.4 Q2212.89 153.664 2211.71 152.738 Q2210.55 151.812 2206.59 150.956 L2205.11 150.608 Q2201.16 149.775 2199.4 148.062 Q2197.64 146.326 2197.64 143.317 Q2197.64 139.659 2200.23 137.669 Q2202.82 135.678 2207.59 135.678 Q2209.95 135.678 2212.03 136.025 Q2214.12 136.372 2215.88 137.067 Z" fill="#000000" fill-rule="nonzero" fill-opacity="1" /><polyline clip-path="url(#clip990)" style="stroke:#d95f02; stroke-linecap:round; stroke-linejoin:round; stroke-width:8; stroke-opacity:1; fill:none" stroke-dasharray="32, 20" points="1858.75,196.789 1998.97,196.789 "/>
<path clip-path="url(#clip990)" d="M2038.73 197.865 Q2040.23 198.374 2041.64 200.041 Q2043.08 201.708 2044.51 204.624 L2049.26 214.069 L2044.23 214.069 L2039.81 205.203 Q2038.1 201.731 2036.48 200.596 Q2034.88 199.462 2032.11 199.462 L2027.01 199.462 L2027.01 214.069 L2022.34 214.069 L2022.34 179.509 L2032.89 179.509 Q2038.82 179.509 2041.73 181.985 Q2044.65 184.462 2044.65 189.462 Q2044.65 192.726 2043.12 194.879 Q2041.62 197.032 2038.73 197.865 M2027.01 183.351 L2027.01 195.62 L2032.89 195.62 Q2036.27 195.62 2037.98 194.069 Q2039.72 192.495 2039.72 189.462 Q2039.72 186.43 2037.98 184.902 Q2036.27 183.351 2032.89 183.351 L2027.01 183.351 Z" fill="#000000" fill-rule="nonzero" fill-opacity="1" /><path clip-path="url(#clip990)" d="M2063.01 191.129 Q2059.58 191.129 2057.59 193.814 Q2055.6 196.476 2055.6 201.129 Q2055.6 205.782 2057.57 208.467 Q2059.56 211.129 2063.01 211.129 Q2066.41 211.129 2068.4 208.444 Q2070.39 205.758 2070.39 201.129 Q2070.39 196.522 2068.4 193.837 Q2066.41 191.129 2063.01 191.129 M2063.01 187.518 Q2068.56 187.518 2071.73 191.129 Q2074.91 194.74 2074.91 201.129 Q2074.91 207.495 2071.73 211.129 Q2068.56 214.74 2063.01 214.74 Q2057.43 214.74 2054.26 211.129 Q2051.11 207.495 2051.11 201.129 Q2051.11 194.74 2054.26 191.129 Q2057.43 187.518 2063.01 187.518 Z" fill="#000000" fill-rule="nonzero" fill-opacity="1" /><path clip-path="url(#clip990)" d="M2098.49 188.907 L2098.49 192.934 Q2096.69 192.009 2094.74 191.546 Q2092.8 191.083 2090.72 191.083 Q2087.54 191.083 2085.95 192.055 Q2084.37 193.027 2084.37 194.971 Q2084.37 196.453 2085.51 197.309 Q2086.64 198.143 2090.07 198.907 L2091.53 199.231 Q2096.06 200.203 2097.96 201.985 Q2099.88 203.745 2099.88 206.916 Q2099.88 210.527 2097.01 212.633 Q2094.16 214.74 2089.16 214.74 Q2087.08 214.74 2084.81 214.323 Q2082.57 213.93 2080.07 213.12 L2080.07 208.721 Q2082.43 209.948 2084.72 210.573 Q2087.01 211.175 2089.26 211.175 Q2092.27 211.175 2093.89 210.157 Q2095.51 209.115 2095.51 207.24 Q2095.51 205.504 2094.33 204.578 Q2093.17 203.652 2089.21 202.796 L2087.73 202.448 Q2083.77 201.615 2082.01 199.902 Q2080.25 198.166 2080.25 195.157 Q2080.25 191.499 2082.85 189.509 Q2085.44 187.518 2090.21 187.518 Q2092.57 187.518 2094.65 187.865 Q2096.73 188.212 2098.49 188.907 Z" fill="#000000" fill-rule="nonzero" fill-opacity="1" /><path clip-path="url(#clip990)" d="M2128.84 200.041 L2128.84 202.124 L2109.26 202.124 Q2109.54 206.522 2111.9 208.837 Q2114.28 211.129 2118.52 211.129 Q2120.97 211.129 2123.26 210.527 Q2125.58 209.925 2127.85 208.721 L2127.85 212.749 Q2125.55 213.721 2123.15 214.231 Q2120.74 214.74 2118.26 214.74 Q2112.06 214.74 2108.42 211.129 Q2104.81 207.518 2104.81 201.36 Q2104.81 194.995 2108.24 191.268 Q2111.69 187.518 2117.52 187.518 Q2122.75 187.518 2125.79 190.897 Q2128.84 194.254 2128.84 200.041 M2124.58 198.791 Q2124.54 195.296 2122.61 193.212 Q2120.72 191.129 2117.57 191.129 Q2114 191.129 2111.85 193.143 Q2109.72 195.157 2109.4 198.814 L2124.58 198.791 Z" fill="#000000" fill-rule="nonzero" fill-opacity="1" /><path clip-path="url(#clip990)" d="M2157.38 198.421 L2157.38 214.069 L2153.12 214.069 L2153.12 198.559 Q2153.12 194.879 2151.69 193.05 Q2150.25 191.222 2147.38 191.222 Q2143.93 191.222 2141.94 193.421 Q2139.95 195.62 2139.95 199.416 L2139.95 214.069 L2135.67 214.069 L2135.67 188.143 L2139.95 188.143 L2139.95 192.171 Q2141.48 189.833 2143.54 188.675 Q2145.62 187.518 2148.33 187.518 Q2152.8 187.518 2155.09 190.296 Q2157.38 193.05 2157.38 198.421 Z" fill="#000000" fill-rule="nonzero" fill-opacity="1" /><polyline clip-path="url(#clip990)" style="stroke:#e72989; stroke-linecap:round; stroke-linejoin:round; stroke-width:8; stroke-opacity:1; fill:none" points="1858.75,248.629 1998.97,248.629 "/>
<path clip-path="url(#clip990)" d="M2038.73 249.705 Q2040.23 250.214 2041.64 251.881 Q2043.08 253.548 2044.51 256.464 L2049.26 265.909 L2044.23 265.909 L2039.81 257.043 Q2038.1 253.571 2036.48 252.436 Q2034.88 251.302 2032.11 251.302 L2027.01 251.302 L2027.01 265.909 L2022.34 265.909 L2022.34 231.349 L2032.89 231.349 Q2038.82 231.349 2041.73 233.825 Q2044.65 236.302 2044.65 241.302 Q2044.65 244.566 2043.12 246.719 Q2041.62 248.872 2038.73 249.705 M2027.01 235.191 L2027.01 247.46 L2032.89 247.46 Q2036.27 247.46 2037.98 245.909 Q2039.72 244.335 2039.72 241.302 Q2039.72 238.27 2037.98 236.742 Q2036.27 235.191 2032.89 235.191 L2027.01 235.191 Z" fill="#000000" fill-rule="nonzero" fill-opacity="1" /><path clip-path="url(#clip990)" d="M2065.83 252.876 Q2060.67 252.876 2058.68 254.057 Q2056.69 255.237 2056.69 258.085 Q2056.69 260.353 2058.17 261.696 Q2059.67 263.015 2062.24 263.015 Q2065.79 263.015 2067.92 260.515 Q2070.07 257.992 2070.07 253.825 L2070.07 252.876 L2065.83 252.876 M2074.33 251.117 L2074.33 265.909 L2070.07 265.909 L2070.07 261.973 Q2068.61 264.335 2066.43 265.469 Q2064.26 266.58 2061.11 266.58 Q2057.13 266.58 2054.77 264.358 Q2052.43 262.112 2052.43 258.362 Q2052.43 253.987 2055.35 251.765 Q2058.29 249.543 2064.1 249.543 L2070.07 249.543 L2070.07 249.126 Q2070.07 246.187 2068.12 244.589 Q2066.2 242.969 2062.71 242.969 Q2060.48 242.969 2058.38 243.501 Q2056.27 244.034 2054.33 245.099 L2054.33 241.163 Q2056.67 240.261 2058.86 239.821 Q2061.06 239.358 2063.15 239.358 Q2068.77 239.358 2071.55 242.274 Q2074.33 245.191 2074.33 251.117 Z" fill="#000000" fill-rule="nonzero" fill-opacity="1" /><path clip-path="url(#clip990)" d="M2099.63 240.747 L2099.63 244.774 Q2097.82 243.849 2095.88 243.386 Q2093.93 242.923 2091.85 242.923 Q2088.68 242.923 2087.08 243.895 Q2085.51 244.867 2085.51 246.811 Q2085.51 248.293 2086.64 249.149 Q2087.78 249.983 2091.2 250.747 L2092.66 251.071 Q2097.2 252.043 2099.1 253.825 Q2101.02 255.585 2101.02 258.756 Q2101.02 262.367 2098.15 264.473 Q2095.3 266.58 2090.3 266.58 Q2088.22 266.58 2085.95 266.163 Q2083.7 265.77 2081.2 264.96 L2081.2 260.561 Q2083.56 261.788 2085.85 262.413 Q2088.15 263.015 2090.39 263.015 Q2093.4 263.015 2095.02 261.997 Q2096.64 260.955 2096.64 259.08 Q2096.64 257.344 2095.46 256.418 Q2094.3 255.492 2090.35 254.636 L2088.86 254.288 Q2084.91 253.455 2083.15 251.742 Q2081.39 250.006 2081.39 246.997 Q2081.39 243.339 2083.98 241.349 Q2086.57 239.358 2091.34 239.358 Q2093.7 239.358 2095.79 239.705 Q2097.87 240.052 2099.63 240.747 Z" fill="#000000" fill-rule="nonzero" fill-opacity="1" /><path clip-path="url(#clip990)" d="M2127.98 244.96 Q2129.58 242.089 2131.8 240.724 Q2134.03 239.358 2137.04 239.358 Q2141.09 239.358 2143.28 242.205 Q2145.48 245.029 2145.48 250.261 L2145.48 265.909 L2141.2 265.909 L2141.2 250.399 Q2141.2 246.673 2139.88 244.867 Q2138.56 243.062 2135.85 243.062 Q2132.54 243.062 2130.62 245.261 Q2128.7 247.46 2128.7 251.256 L2128.7 265.909 L2124.42 265.909 L2124.42 250.399 Q2124.42 246.649 2123.1 244.867 Q2121.78 243.062 2119.03 243.062 Q2115.76 243.062 2113.84 245.284 Q2111.92 247.483 2111.92 251.256 L2111.92 265.909 L2107.64 265.909 L2107.64 239.983 L2111.92 239.983 L2111.92 244.011 Q2113.38 241.626 2115.41 240.492 Q2117.45 239.358 2120.25 239.358 Q2123.08 239.358 2125.04 240.793 Q2127.04 242.228 2127.98 244.96 Z" fill="#000000" fill-rule="nonzero" fill-opacity="1" /><path clip-path="url(#clip990)" d="M2153.54 255.677 L2153.54 239.983 L2157.8 239.983 L2157.8 255.515 Q2157.8 259.196 2159.23 261.048 Q2160.67 262.876 2163.54 262.876 Q2166.99 262.876 2168.98 260.677 Q2170.99 258.478 2170.99 254.682 L2170.99 239.983 L2175.25 239.983 L2175.25 265.909 L2170.99 265.909 L2170.99 261.927 Q2169.44 264.288 2167.38 265.446 Q2165.35 266.58 2162.64 266.58 Q2158.17 266.58 2155.85 263.802 Q2153.54 261.024 2153.54 255.677 M2164.26 239.358 L2164.26 239.358 Z" fill="#000000" fill-rule="nonzero" fill-opacity="1" /><path clip-path="url(#clip990)" d="M2200.55 240.747 L2200.55 244.774 Q2198.75 243.849 2196.8 243.386 Q2194.86 242.923 2192.78 242.923 Q2189.6 242.923 2188.01 243.895 Q2186.43 244.867 2186.43 246.811 Q2186.43 248.293 2187.57 249.149 Q2188.7 249.983 2192.13 250.747 L2193.59 251.071 Q2198.12 252.043 2200.02 253.825 Q2201.94 255.585 2201.94 258.756 Q2201.94 262.367 2199.07 264.473 Q2196.22 266.58 2191.22 266.58 Q2189.14 266.58 2186.87 266.163 Q2184.63 265.77 2182.13 264.96 L2182.13 260.561 Q2184.49 261.788 2186.78 262.413 Q2189.07 263.015 2191.32 263.015 Q2194.33 263.015 2195.95 261.997 Q2197.57 260.955 2197.57 259.08 Q2197.57 257.344 2196.39 256.418 Q2195.23 255.492 2191.27 254.636 L2189.79 254.288 Q2185.83 253.455 2184.07 251.742 Q2182.31 250.006 2182.31 246.997 Q2182.31 243.339 2184.91 241.349 Q2187.5 239.358 2192.27 239.358 Q2194.63 239.358 2196.71 239.705 Q2198.79 240.052 2200.55 240.747 Z" fill="#000000" fill-rule="nonzero" fill-opacity="1" /><path clip-path="url(#clip990)" d="M2218.77 242.969 Q2215.34 242.969 2213.35 245.654 Q2211.36 248.316 2211.36 252.969 Q2211.36 257.622 2213.33 260.307 Q2215.32 262.969 2218.77 262.969 Q2222.17 262.969 2224.16 260.284 Q2226.15 257.598 2226.15 252.969 Q2226.15 248.362 2224.16 245.677 Q2222.17 242.969 2218.77 242.969 M2218.77 239.358 Q2224.33 239.358 2227.5 242.969 Q2230.67 246.58 2230.67 252.969 Q2230.67 259.335 2227.5 262.969 Q2224.33 266.58 2218.77 266.58 Q2213.19 266.58 2210.02 262.969 Q2206.87 259.335 2206.87 252.969 Q2206.87 246.58 2210.02 242.969 Q2213.19 239.358 2218.77 239.358 Z" fill="#000000" fill-rule="nonzero" fill-opacity="1" /><path clip-path="url(#clip990)" d="M2259.28 250.261 L2259.28 265.909 L2255.02 265.909 L2255.02 250.399 Q2255.02 246.719 2253.59 244.89 Q2252.15 243.062 2249.28 243.062 Q2245.83 243.062 2243.84 245.261 Q2241.85 247.46 2241.85 251.256 L2241.85 265.909 L2237.57 265.909 L2237.57 239.983 L2241.85 239.983 L2241.85 244.011 Q2243.38 241.673 2245.44 240.515 Q2247.52 239.358 2250.23 239.358 Q2254.7 239.358 2256.99 242.136 Q2259.28 244.89 2259.28 250.261 Z" fill="#000000" fill-rule="nonzero" fill-opacity="1" /></svg>
