<?xml version="1.0" encoding="utf-8"?>
<svg xmlns="http://www.w3.org/2000/svg" xmlns:xlink="http://www.w3.org/1999/xlink" width="600" height="400" viewBox="0 0 2400 1600">
<defs>
  <clipPath id="clip170">
    <rect x="0" y="0" width="2400" height="1600"/>
  </clipPath>
</defs>
<path clip-path="url(#clip170)" d="M0 1600 L2400 1600 L2400 0 L0 0  Z" fill="#ffffff" fill-rule="evenodd" fill-opacity="1"/>
<defs>
  <clipPath id="clip171">
    <rect x="480" y="0" width="1681" height="1600"/>
  </clipPath>
</defs>
<path clip-path="url(#clip170)" d="M249.542 1423.18 L2352.76 1423.18 L2352.76 47.2441 L249.542 47.2441  Z" fill="#ffffff" fill-rule="evenodd" fill-opacity="1"/>
<defs>
  <clipPath id="clip172">
    <rect x="249" y="47" width="2104" height="1377"/>
  </clipPath>
</defs>
<polyline clip-path="url(#clip172)" style="stroke:#000000; stroke-linecap:round; stroke-linejoin:round; stroke-width:2; stroke-opacity:0.1; fill:none" points="249.542,1423.18 249.542,47.2441 "/>
<polyline clip-path="url(#clip172)" style="stroke:#000000; stroke-linecap:round; stroke-linejoin:round; stroke-width:2; stroke-opacity:0.1; fill:none" points="950.613,1423.18 950.613,47.2441 "/>
<polyline clip-path="url(#clip172)" style="stroke:#000000; stroke-linecap:round; stroke-linejoin:round; stroke-width:2; stroke-opacity:0.1; fill:none" points="1651.68,1423.18 1651.68,47.2441 "/>
<polyline clip-path="url(#clip172)" style="stroke:#000000; stroke-linecap:round; stroke-linejoin:round; stroke-width:2; stroke-opacity:0.1; fill:none" points="2352.76,1423.18 2352.76,47.2441 "/>
<polyline clip-path="url(#clip170)" style="stroke:#000000; stroke-linecap:round; stroke-linejoin:round; stroke-width:4; stroke-opacity:1; fill:none" points="249.542,1423.18 2352.76,1423.18 "/>
<polyline clip-path="url(#clip170)" style="stroke:#000000; stroke-linecap:round; stroke-linejoin:round; stroke-width:4; stroke-opacity:1; fill:none" points="249.542,1423.18 249.542,1404.28 "/>
<polyline clip-path="url(#clip170)" style="stroke:#000000; stroke-linecap:round; stroke-linejoin:round; stroke-width:4; stroke-opacity:1; fill:none" points="950.613,1423.18 950.613,1404.28 "/>
<polyline clip-path="url(#clip170)" style="stroke:#000000; stroke-linecap:round; stroke-linejoin:round; stroke-width:4; stroke-opacity:1; fill:none" points="1651.68,1423.18 1651.68,1404.28 "/>
<polyline clip-path="url(#clip170)" style="stroke:#000000; stroke-linecap:round; stroke-linejoin:round; stroke-width:4; stroke-opacity:1; fill:none" points="2352.76,1423.18 2352.76,1404.28 "/>
<path clip-path="url(#clip170)" d="M249.542 1454.1 Q245.931 1454.1 244.102 1457.66 Q242.297 1461.2 242.297 1468.33 Q242.297 1475.44 244.102 1479.01 Q245.931 1482.55 249.542 1482.55 Q253.176 1482.55 254.982 1479.01 Q256.811 1475.44 256.811 1468.33 Q256.811 1461.2 254.982 1457.66 Q253.176 1454.1 249.542 1454.1 M249.542 1450.39 Q255.352 1450.39 258.408 1455 Q261.486 1459.58 261.486 1468.33 Q261.486 1477.06 258.408 1481.67 Q255.352 1486.25 249.542 1486.25 Q243.732 1486.25 240.653 1481.67 Q237.598 1477.06 237.598 1468.33 Q237.598 1459.58 240.653 1455 Q243.732 1450.39 249.542 1450.39 Z" fill="#000000" fill-rule="nonzero" fill-opacity="1" /><path clip-path="url(#clip170)" d="M925.301 1481.64 L932.94 1481.64 L932.94 1455.28 L924.63 1456.95 L924.63 1452.69 L932.894 1451.02 L937.569 1451.02 L937.569 1481.64 L945.208 1481.64 L945.208 1485.58 L925.301 1485.58 L925.301 1481.64 Z" fill="#000000" fill-rule="nonzero" fill-opacity="1" /><path clip-path="url(#clip170)" d="M964.653 1454.1 Q961.042 1454.1 959.213 1457.66 Q957.407 1461.2 957.407 1468.33 Q957.407 1475.44 959.213 1479.01 Q961.042 1482.55 964.653 1482.55 Q968.287 1482.55 970.092 1479.01 Q971.921 1475.44 971.921 1468.33 Q971.921 1461.2 970.092 1457.66 Q968.287 1454.1 964.653 1454.1 M964.653 1450.39 Q970.463 1450.39 973.518 1455 Q976.597 1459.58 976.597 1468.33 Q976.597 1477.06 973.518 1481.67 Q970.463 1486.25 964.653 1486.25 Q958.842 1486.25 955.764 1481.67 Q952.708 1477.06 952.708 1468.33 Q952.708 1459.58 955.764 1455 Q958.842 1450.39 964.653 1450.39 Z" fill="#000000" fill-rule="nonzero" fill-opacity="1" /><path clip-path="url(#clip170)" d="M1630.46 1481.64 L1646.78 1481.64 L1646.78 1485.58 L1624.83 1485.58 L1624.83 1481.64 Q1627.49 1478.89 1632.08 1474.26 Q1636.68 1469.61 1637.87 1468.27 Q1640.11 1465.74 1640.99 1464.01 Q1641.89 1462.25 1641.89 1460.56 Q1641.89 1457.8 1639.95 1456.07 Q1638.03 1454.33 1634.93 1454.33 Q1632.73 1454.33 1630.27 1455.09 Q1627.84 1455.86 1625.06 1457.41 L1625.06 1452.69 Q1627.89 1451.55 1630.34 1450.97 Q1632.8 1450.39 1634.83 1450.39 Q1640.2 1450.39 1643.4 1453.08 Q1646.59 1455.77 1646.59 1460.26 Q1646.59 1462.39 1645.78 1464.31 Q1644.99 1466.2 1642.89 1468.8 Q1642.31 1469.47 1639.21 1472.69 Q1636.11 1475.88 1630.46 1481.64 Z" fill="#000000" fill-rule="nonzero" fill-opacity="1" /><path clip-path="url(#clip170)" d="M1666.59 1454.1 Q1662.98 1454.1 1661.15 1457.66 Q1659.35 1461.2 1659.35 1468.33 Q1659.35 1475.44 1661.15 1479.01 Q1662.98 1482.55 1666.59 1482.55 Q1670.23 1482.55 1672.03 1479.01 Q1673.86 1475.44 1673.86 1468.33 Q1673.86 1461.2 1672.03 1457.66 Q1670.23 1454.1 1666.59 1454.1 M1666.59 1450.39 Q1672.4 1450.39 1675.46 1455 Q1678.54 1459.58 1678.54 1468.33 Q1678.54 1477.06 1675.46 1481.67 Q1672.4 1486.25 1666.59 1486.25 Q1660.78 1486.25 1657.7 1481.67 Q1654.65 1477.06 1654.65 1468.33 Q1654.65 1459.58 1657.7 1455 Q1660.78 1450.39 1666.59 1450.39 Z" fill="#000000" fill-rule="nonzero" fill-opacity="1" /><path clip-path="url(#clip170)" d="M2341.6 1466.95 Q2344.96 1467.66 2346.83 1469.93 Q2348.73 1472.2 2348.73 1475.53 Q2348.73 1480.65 2345.21 1483.45 Q2341.69 1486.25 2335.21 1486.25 Q2333.03 1486.25 2330.72 1485.81 Q2328.43 1485.39 2325.97 1484.54 L2325.97 1480.02 Q2327.92 1481.16 2330.23 1481.74 Q2332.55 1482.32 2335.07 1482.32 Q2339.47 1482.32 2341.76 1480.58 Q2344.08 1478.84 2344.08 1475.53 Q2344.08 1472.48 2341.92 1470.77 Q2339.79 1469.03 2335.97 1469.03 L2331.95 1469.03 L2331.95 1465.19 L2336.16 1465.19 Q2339.61 1465.19 2341.44 1463.82 Q2343.27 1462.43 2343.27 1459.84 Q2343.27 1457.18 2341.37 1455.77 Q2339.49 1454.33 2335.97 1454.33 Q2334.05 1454.33 2331.85 1454.75 Q2329.65 1455.16 2327.02 1456.04 L2327.02 1451.88 Q2329.68 1451.14 2331.99 1450.77 Q2334.33 1450.39 2336.39 1450.39 Q2341.71 1450.39 2344.82 1452.83 Q2347.92 1455.23 2347.92 1459.35 Q2347.92 1462.22 2346.27 1464.21 Q2344.63 1466.18 2341.6 1466.95 Z" fill="#000000" fill-rule="nonzero" fill-opacity="1" /><path clip-path="url(#clip170)" d="M2367.59 1454.1 Q2363.98 1454.1 2362.15 1457.66 Q2360.35 1461.2 2360.35 1468.33 Q2360.35 1475.44 2362.15 1479.01 Q2363.98 1482.55 2367.59 1482.55 Q2371.23 1482.55 2373.03 1479.01 Q2374.86 1475.44 2374.86 1468.33 Q2374.86 1461.2 2373.03 1457.66 Q2371.23 1454.1 2367.59 1454.1 M2367.59 1450.39 Q2373.4 1450.39 2376.46 1455 Q2379.54 1459.58 2379.54 1468.33 Q2379.54 1477.06 2376.46 1481.67 Q2373.4 1486.25 2367.59 1486.25 Q2361.78 1486.25 2358.7 1481.67 Q2355.65 1477.06 2355.65 1468.33 Q2355.65 1459.58 2358.7 1455 Q2361.78 1450.39 2367.59 1450.39 Z" fill="#000000" fill-rule="nonzero" fill-opacity="1" /><path clip-path="url(#clip170)" d="M1188.6 1522.27 L1188.6 1532.4 L1200.67 1532.4 L1200.67 1536.95 L1188.6 1536.95 L1188.6 1556.3 Q1188.6 1560.66 1189.78 1561.9 Q1190.99 1563.14 1194.65 1563.14 L1200.67 1563.14 L1200.67 1568.04 L1194.65 1568.04 Q1187.87 1568.04 1185.29 1565.53 Q1182.71 1562.98 1182.71 1556.3 L1182.71 1536.95 L1178.42 1536.95 L1178.42 1532.4 L1182.71 1532.4 L1182.71 1522.27 L1188.6 1522.27 Z" fill="#000000" fill-rule="nonzero" fill-opacity="1" /><path clip-path="url(#clip170)" d="M1208.37 1532.4 L1214.23 1532.4 L1214.23 1568.04 L1208.37 1568.04 L1208.37 1532.4 M1208.37 1518.52 L1214.23 1518.52 L1214.23 1525.93 L1208.37 1525.93 L1208.37 1518.52 Z" fill="#000000" fill-rule="nonzero" fill-opacity="1" /><path clip-path="url(#clip170)" d="M1254.23 1539.24 Q1256.43 1535.29 1259.49 1533.41 Q1262.54 1531.54 1266.68 1531.54 Q1272.25 1531.54 1275.27 1535.45 Q1278.3 1539.33 1278.3 1546.53 L1278.3 1568.04 L1272.41 1568.04 L1272.41 1546.72 Q1272.41 1541.59 1270.59 1539.11 Q1268.78 1536.63 1265.06 1536.63 Q1260.5 1536.63 1257.86 1539.65 Q1255.22 1542.68 1255.22 1547.9 L1255.22 1568.04 L1249.33 1568.04 L1249.33 1546.72 Q1249.33 1541.56 1247.52 1539.11 Q1245.7 1536.63 1241.92 1536.63 Q1237.43 1536.63 1234.79 1539.68 Q1232.14 1542.71 1232.14 1547.9 L1232.14 1568.04 L1226.26 1568.04 L1226.26 1532.4 L1232.14 1532.4 L1232.14 1537.93 Q1234.15 1534.66 1236.95 1533.1 Q1239.75 1531.54 1243.6 1531.54 Q1247.49 1531.54 1250.19 1533.51 Q1252.93 1535.48 1254.23 1539.24 Z" fill="#000000" fill-rule="nonzero" fill-opacity="1" /><path clip-path="url(#clip170)" d="M1320.47 1548.76 L1320.47 1551.62 L1293.54 1551.62 Q1293.92 1557.67 1297.17 1560.85 Q1300.45 1564 1306.27 1564 Q1309.65 1564 1312.8 1563.17 Q1315.98 1562.35 1319.1 1560.69 L1319.1 1566.23 Q1315.95 1567.57 1312.64 1568.27 Q1309.33 1568.97 1305.92 1568.97 Q1297.39 1568.97 1292.4 1564 Q1287.43 1559.04 1287.43 1550.57 Q1287.43 1541.82 1292.14 1536.69 Q1296.88 1531.54 1304.9 1531.54 Q1312.1 1531.54 1316.27 1536.18 Q1320.47 1540.8 1320.47 1548.76 M1314.61 1547.04 Q1314.55 1542.23 1311.91 1539.37 Q1309.3 1536.5 1304.97 1536.5 Q1300.07 1536.5 1297.11 1539.27 Q1294.18 1542.04 1293.73 1547.07 L1314.61 1547.04 Z" fill="#000000" fill-rule="nonzero" fill-opacity="1" /><path clip-path="url(#clip170)" d="M1364.87 1518.58 Q1360.6 1525.9 1358.54 1533.06 Q1356.47 1540.23 1356.47 1547.58 Q1356.47 1554.93 1358.54 1562.16 Q1360.64 1569.35 1364.87 1576.64 L1359.78 1576.64 Q1355 1569.16 1352.62 1561.93 Q1350.26 1554.71 1350.26 1547.58 Q1350.26 1540.48 1352.62 1533.29 Q1354.97 1526.09 1359.78 1518.58 L1364.87 1518.58 Z" fill="#000000" fill-rule="nonzero" fill-opacity="1" /><path clip-path="url(#clip170)" d="M1398.96 1533.45 L1398.96 1538.98 Q1396.48 1537.71 1393.8 1537.07 Q1391.13 1536.44 1388.26 1536.44 Q1383.9 1536.44 1381.71 1537.77 Q1379.54 1539.11 1379.54 1541.79 Q1379.54 1543.82 1381.1 1545 Q1382.66 1546.15 1387.37 1547.2 L1389.38 1547.64 Q1395.62 1548.98 1398.23 1551.43 Q1400.87 1553.85 1400.87 1558.21 Q1400.87 1563.17 1396.92 1566.07 Q1393.01 1568.97 1386.13 1568.97 Q1383.27 1568.97 1380.15 1568.39 Q1377.06 1567.85 1373.62 1566.74 L1373.62 1560.69 Q1376.87 1562.38 1380.02 1563.24 Q1383.17 1564.07 1386.26 1564.07 Q1390.4 1564.07 1392.62 1562.66 Q1394.85 1561.23 1394.85 1558.65 Q1394.85 1556.27 1393.23 1554.99 Q1391.64 1553.72 1386.19 1552.54 L1384.16 1552.07 Q1378.72 1550.92 1376.3 1548.56 Q1373.88 1546.18 1373.88 1542.04 Q1373.88 1537.01 1377.44 1534.27 Q1381.01 1531.54 1387.56 1531.54 Q1390.81 1531.54 1393.67 1532.01 Q1396.54 1532.49 1398.96 1533.45 Z" fill="#000000" fill-rule="nonzero" fill-opacity="1" /><path clip-path="url(#clip170)" d="M1409.27 1518.58 L1414.36 1518.58 Q1419.14 1526.09 1421.49 1533.29 Q1423.88 1540.48 1423.88 1547.58 Q1423.88 1554.71 1421.49 1561.93 Q1419.14 1569.16 1414.36 1576.64 L1409.27 1576.64 Q1413.5 1569.35 1415.57 1562.16 Q1417.67 1554.93 1417.67 1547.58 Q1417.67 1540.23 1415.57 1533.06 Q1413.5 1525.9 1409.27 1518.58 Z" fill="#000000" fill-rule="nonzero" fill-opacity="1" /><polyline clip-path="url(#clip172)" style="stroke:#000000; stroke-linecap:round; stroke-linejoin:round; stroke-width:2; stroke-opacity:0.1; fill:none" points="249.542,1384.23 2352.76,1384.23 "/>
<polyline clip-path="url(#clip172)" style="stroke:#000000; stroke-linecap:round; stroke-linejoin:round; stroke-width:2; stroke-opacity:0.1; fill:none" points="249.542,1078.67 2352.76,1078.67 "/>
<polyline clip-path="url(#clip172)" style="stroke:#000000; stroke-linecap:round; stroke-linejoin:round; stroke-width:2; stroke-opacity:0.1; fill:none" points="249.542,773.111 2352.76,773.111 "/>
<polyline clip-path="url(#clip172)" style="stroke:#000000; stroke-linecap:round; stroke-linejoin:round; stroke-width:2; stroke-opacity:0.1; fill:none" points="249.542,467.549 2352.76,467.549 "/>
<polyline clip-path="url(#clip172)" style="stroke:#000000; stroke-linecap:round; stroke-linejoin:round; stroke-width:2; stroke-opacity:0.1; fill:none" points="249.542,161.987 2352.76,161.987 "/>
<polyline clip-path="url(#clip170)" style="stroke:#000000; stroke-linecap:round; stroke-linejoin:round; stroke-width:4; stroke-opacity:1; fill:none" points="249.542,1423.18 249.542,47.2441 "/>
<polyline clip-path="url(#clip170)" style="stroke:#000000; stroke-linecap:round; stroke-linejoin:round; stroke-width:4; stroke-opacity:1; fill:none" points="249.542,1384.23 268.44,1384.23 "/>
<polyline clip-path="url(#clip170)" style="stroke:#000000; stroke-linecap:round; stroke-linejoin:round; stroke-width:4; stroke-opacity:1; fill:none" points="249.542,1078.67 268.44,1078.67 "/>
<polyline clip-path="url(#clip170)" style="stroke:#000000; stroke-linecap:round; stroke-linejoin:round; stroke-width:4; stroke-opacity:1; fill:none" points="249.542,773.111 268.44,773.111 "/>
<polyline clip-path="url(#clip170)" style="stroke:#000000; stroke-linecap:round; stroke-linejoin:round; stroke-width:4; stroke-opacity:1; fill:none" points="249.542,467.549 268.44,467.549 "/>
<polyline clip-path="url(#clip170)" style="stroke:#000000; stroke-linecap:round; stroke-linejoin:round; stroke-width:4; stroke-opacity:1; fill:none" points="249.542,161.987 268.44,161.987 "/>
<path clip-path="url(#clip170)" d="M126.205 1370.03 Q122.593 1370.03 120.765 1373.6 Q118.959 1377.14 118.959 1384.27 Q118.959 1391.38 120.765 1394.94 Q122.593 1398.48 126.205 1398.48 Q129.839 1398.48 131.644 1394.94 Q133.473 1391.38 133.473 1384.27 Q133.473 1377.14 131.644 1373.6 Q129.839 1370.03 126.205 1370.03 M126.205 1366.33 Q132.015 1366.33 135.07 1370.94 Q138.149 1375.52 138.149 1384.27 Q138.149 1393 135.07 1397.6 Q132.015 1402.19 126.205 1402.19 Q120.394 1402.19 117.316 1397.6 Q114.26 1393 114.26 1384.27 Q114.26 1375.52 117.316 1370.94 Q120.394 1366.33 126.205 1366.33 Z" fill="#000000" fill-rule="nonzero" fill-opacity="1" /><path clip-path="url(#clip170)" d="M146.366 1395.64 L151.251 1395.64 L151.251 1401.51 L146.366 1401.51 L146.366 1395.64 Z" fill="#000000" fill-rule="nonzero" fill-opacity="1" /><path clip-path="url(#clip170)" d="M171.436 1370.03 Q167.825 1370.03 165.996 1373.6 Q164.19 1377.14 164.19 1384.27 Q164.19 1391.38 165.996 1394.94 Q167.825 1398.48 171.436 1398.48 Q175.07 1398.48 176.876 1394.94 Q178.704 1391.38 178.704 1384.27 Q178.704 1377.14 176.876 1373.6 Q175.07 1370.03 171.436 1370.03 M171.436 1366.33 Q177.246 1366.33 180.301 1370.94 Q183.38 1375.52 183.38 1384.27 Q183.38 1393 180.301 1397.6 Q177.246 1402.19 171.436 1402.19 Q165.626 1402.19 162.547 1397.6 Q159.491 1393 159.491 1384.27 Q159.491 1375.52 162.547 1370.94 Q165.626 1366.33 171.436 1366.33 Z" fill="#000000" fill-rule="nonzero" fill-opacity="1" /><path clip-path="url(#clip170)" d="M201.598 1370.03 Q197.987 1370.03 196.158 1373.6 Q194.352 1377.14 194.352 1384.27 Q194.352 1391.38 196.158 1394.94 Q197.987 1398.48 201.598 1398.48 Q205.232 1398.48 207.037 1394.94 Q208.866 1391.38 208.866 1384.27 Q208.866 1377.14 207.037 1373.6 Q205.232 1370.03 201.598 1370.03 M201.598 1366.33 Q207.408 1366.33 210.463 1370.94 Q213.542 1375.52 213.542 1384.27 Q213.542 1393 210.463 1397.6 Q207.408 1402.19 201.598 1402.19 Q195.787 1402.19 192.709 1397.6 Q189.653 1393 189.653 1384.27 Q189.653 1375.52 192.709 1370.94 Q195.787 1366.33 201.598 1366.33 Z" fill="#000000" fill-rule="nonzero" fill-opacity="1" /><path clip-path="url(#clip170)" d="M127.2 1064.47 Q123.589 1064.47 121.76 1068.04 Q119.955 1071.58 119.955 1078.71 Q119.955 1085.81 121.76 1089.38 Q123.589 1092.92 127.2 1092.92 Q130.834 1092.92 132.64 1089.38 Q134.468 1085.81 134.468 1078.71 Q134.468 1071.58 132.64 1068.04 Q130.834 1064.47 127.2 1064.47 M127.2 1060.77 Q133.01 1060.77 136.066 1065.37 Q139.144 1069.96 139.144 1078.71 Q139.144 1087.43 136.066 1092.04 Q133.01 1096.62 127.2 1096.62 Q121.39 1096.62 118.311 1092.04 Q115.256 1087.43 115.256 1078.71 Q115.256 1069.96 118.311 1065.37 Q121.39 1060.77 127.2 1060.77 Z" fill="#000000" fill-rule="nonzero" fill-opacity="1" /><path clip-path="url(#clip170)" d="M147.362 1090.07 L152.246 1090.07 L152.246 1095.95 L147.362 1095.95 L147.362 1090.07 Z" fill="#000000" fill-rule="nonzero" fill-opacity="1" /><path clip-path="url(#clip170)" d="M172.431 1064.47 Q168.82 1064.47 166.991 1068.04 Q165.186 1071.58 165.186 1078.71 Q165.186 1085.81 166.991 1089.38 Q168.82 1092.92 172.431 1092.92 Q176.065 1092.92 177.871 1089.38 Q179.7 1085.81 179.7 1078.71 Q179.7 1071.58 177.871 1068.04 Q176.065 1064.47 172.431 1064.47 M172.431 1060.77 Q178.241 1060.77 181.297 1065.37 Q184.376 1069.96 184.376 1078.71 Q184.376 1087.43 181.297 1092.04 Q178.241 1096.62 172.431 1096.62 Q166.621 1096.62 163.542 1092.04 Q160.487 1087.43 160.487 1078.71 Q160.487 1069.96 163.542 1065.37 Q166.621 1060.77 172.431 1060.77 Z" fill="#000000" fill-rule="nonzero" fill-opacity="1" /><path clip-path="url(#clip170)" d="M192.639 1061.39 L210.996 1061.39 L210.996 1065.33 L196.922 1065.33 L196.922 1073.8 Q197.94 1073.45 198.959 1073.29 Q199.977 1073.11 200.996 1073.11 Q206.783 1073.11 210.162 1076.28 Q213.542 1079.45 213.542 1084.87 Q213.542 1090.44 210.07 1093.55 Q206.598 1096.62 200.278 1096.62 Q198.102 1096.62 195.834 1096.25 Q193.588 1095.88 191.181 1095.14 L191.181 1090.44 Q193.264 1091.58 195.487 1092.13 Q197.709 1092.69 200.186 1092.69 Q204.19 1092.69 206.528 1090.58 Q208.866 1088.48 208.866 1084.87 Q208.866 1081.25 206.528 1079.15 Q204.19 1077.04 200.186 1077.04 Q198.311 1077.04 196.436 1077.46 Q194.584 1077.87 192.639 1078.75 L192.639 1061.39 Z" fill="#000000" fill-rule="nonzero" fill-opacity="1" /><path clip-path="url(#clip170)" d="M126.205 758.91 Q122.593 758.91 120.765 762.475 Q118.959 766.016 118.959 773.146 Q118.959 780.252 120.765 783.817 Q122.593 787.359 126.205 787.359 Q129.839 787.359 131.644 783.817 Q133.473 780.252 133.473 773.146 Q133.473 766.016 131.644 762.475 Q129.839 758.91 126.205 758.91 M126.205 755.206 Q132.015 755.206 135.07 759.812 Q138.149 764.396 138.149 773.146 Q138.149 781.873 135.07 786.479 Q132.015 791.062 126.205 791.062 Q120.394 791.062 117.316 786.479 Q114.26 781.873 114.26 773.146 Q114.26 764.396 117.316 759.812 Q120.394 755.206 126.205 755.206 Z" fill="#000000" fill-rule="nonzero" fill-opacity="1" /><path clip-path="url(#clip170)" d="M146.366 784.511 L151.251 784.511 L151.251 790.391 L146.366 790.391 L146.366 784.511 Z" fill="#000000" fill-rule="nonzero" fill-opacity="1" /><path clip-path="url(#clip170)" d="M162.246 786.456 L169.885 786.456 L169.885 760.09 L161.575 761.757 L161.575 757.498 L169.839 755.831 L174.514 755.831 L174.514 786.456 L182.153 786.456 L182.153 790.391 L162.246 790.391 L162.246 786.456 Z" fill="#000000" fill-rule="nonzero" fill-opacity="1" /><path clip-path="url(#clip170)" d="M201.598 758.91 Q197.987 758.91 196.158 762.475 Q194.352 766.016 194.352 773.146 Q194.352 780.252 196.158 783.817 Q197.987 787.359 201.598 787.359 Q205.232 787.359 207.037 783.817 Q208.866 780.252 208.866 773.146 Q208.866 766.016 207.037 762.475 Q205.232 758.91 201.598 758.91 M201.598 755.206 Q207.408 755.206 210.463 759.812 Q213.542 764.396 213.542 773.146 Q213.542 781.873 210.463 786.479 Q207.408 791.062 201.598 791.062 Q195.787 791.062 192.709 786.479 Q189.653 781.873 189.653 773.146 Q189.653 764.396 192.709 759.812 Q195.787 755.206 201.598 755.206 Z" fill="#000000" fill-rule="nonzero" fill-opacity="1" /><path clip-path="url(#clip170)" d="M127.2 453.348 Q123.589 453.348 121.76 456.913 Q119.955 460.454 119.955 467.584 Q119.955 474.69 121.76 478.255 Q123.589 481.797 127.2 481.797 Q130.834 481.797 132.64 478.255 Q134.468 474.69 134.468 467.584 Q134.468 460.454 132.64 456.913 Q130.834 453.348 127.2 453.348 M127.2 449.644 Q133.01 449.644 136.066 454.251 Q139.144 458.834 139.144 467.584 Q139.144 476.311 136.066 480.917 Q133.01 485.5 127.2 485.5 Q121.39 485.5 118.311 480.917 Q115.256 476.311 115.256 467.584 Q115.256 458.834 118.311 454.251 Q121.39 449.644 127.2 449.644 Z" fill="#000000" fill-rule="nonzero" fill-opacity="1" /><path clip-path="url(#clip170)" d="M147.362 478.949 L152.246 478.949 L152.246 484.829 L147.362 484.829 L147.362 478.949 Z" fill="#000000" fill-rule="nonzero" fill-opacity="1" /><path clip-path="url(#clip170)" d="M163.241 480.894 L170.88 480.894 L170.88 454.528 L162.57 456.195 L162.57 451.936 L170.834 450.269 L175.51 450.269 L175.51 480.894 L183.149 480.894 L183.149 484.829 L163.241 484.829 L163.241 480.894 Z" fill="#000000" fill-rule="nonzero" fill-opacity="1" /><path clip-path="url(#clip170)" d="M192.639 450.269 L210.996 450.269 L210.996 454.204 L196.922 454.204 L196.922 462.676 Q197.94 462.329 198.959 462.167 Q199.977 461.982 200.996 461.982 Q206.783 461.982 210.162 465.153 Q213.542 468.325 213.542 473.741 Q213.542 479.32 210.07 482.422 Q206.598 485.5 200.278 485.5 Q198.102 485.5 195.834 485.13 Q193.588 484.76 191.181 484.019 L191.181 479.32 Q193.264 480.454 195.487 481.01 Q197.709 481.565 200.186 481.565 Q204.19 481.565 206.528 479.459 Q208.866 477.352 208.866 473.741 Q208.866 470.13 206.528 468.024 Q204.19 465.917 200.186 465.917 Q198.311 465.917 196.436 466.334 Q194.584 466.75 192.639 467.63 L192.639 450.269 Z" fill="#000000" fill-rule="nonzero" fill-opacity="1" /><path clip-path="url(#clip170)" d="M126.205 147.786 Q122.593 147.786 120.765 151.351 Q118.959 154.892 118.959 162.022 Q118.959 169.128 120.765 172.693 Q122.593 176.235 126.205 176.235 Q129.839 176.235 131.644 172.693 Q133.473 169.128 133.473 162.022 Q133.473 154.892 131.644 151.351 Q129.839 147.786 126.205 147.786 M126.205 144.082 Q132.015 144.082 135.07 148.689 Q138.149 153.272 138.149 162.022 Q138.149 170.749 135.07 175.355 Q132.015 179.938 126.205 179.938 Q120.394 179.938 117.316 175.355 Q114.26 170.749 114.26 162.022 Q114.26 153.272 117.316 148.689 Q120.394 144.082 126.205 144.082 Z" fill="#000000" fill-rule="nonzero" fill-opacity="1" /><path clip-path="url(#clip170)" d="M146.366 173.387 L151.251 173.387 L151.251 179.267 L146.366 179.267 L146.366 173.387 Z" fill="#000000" fill-rule="nonzero" fill-opacity="1" /><path clip-path="url(#clip170)" d="M165.464 175.332 L181.783 175.332 L181.783 179.267 L159.839 179.267 L159.839 175.332 Q162.501 172.577 167.084 167.948 Q171.69 163.295 172.871 161.952 Q175.116 159.429 175.996 157.693 Q176.899 155.934 176.899 154.244 Q176.899 151.489 174.954 149.753 Q173.033 148.017 169.931 148.017 Q167.732 148.017 165.278 148.781 Q162.848 149.545 160.07 151.096 L160.07 146.374 Q162.894 145.239 165.348 144.661 Q167.802 144.082 169.839 144.082 Q175.209 144.082 178.403 146.767 Q181.598 149.452 181.598 153.943 Q181.598 156.073 180.788 157.994 Q180.001 159.892 177.894 162.485 Q177.315 163.156 174.214 166.374 Q171.112 169.568 165.464 175.332 Z" fill="#000000" fill-rule="nonzero" fill-opacity="1" /><path clip-path="url(#clip170)" d="M201.598 147.786 Q197.987 147.786 196.158 151.351 Q194.352 154.892 194.352 162.022 Q194.352 169.128 196.158 172.693 Q197.987 176.235 201.598 176.235 Q205.232 176.235 207.037 172.693 Q208.866 169.128 208.866 162.022 Q208.866 154.892 207.037 151.351 Q205.232 147.786 201.598 147.786 M201.598 144.082 Q207.408 144.082 210.463 148.689 Q213.542 153.272 213.542 162.022 Q213.542 170.749 210.463 175.355 Q207.408 179.938 201.598 179.938 Q195.787 179.938 192.709 175.355 Q189.653 170.749 189.653 162.022 Q189.653 153.272 192.709 148.689 Q195.787 144.082 201.598 144.082 Z" fill="#000000" fill-rule="nonzero" fill-opacity="1" /><path clip-path="url(#clip170)" d="M29.7248 1045.51 L35.1993 1045.51 Q33.8307 1047.99 33.1623 1050.51 Q32.4621 1052.99 32.4621 1055.53 Q32.4621 1061.23 36.0905 1064.38 Q39.6872 1067.53 46.212 1067.53 Q52.7369 1067.53 56.3653 1064.38 Q59.9619 1061.23 59.9619 1055.53 Q59.9619 1052.99 59.2935 1050.51 Q58.5933 1047.99 57.2247 1045.51 L62.6355 1045.51 Q63.7814 1047.96 64.3543 1050.6 Q64.9272 1053.21 64.9272 1056.17 Q64.9272 1064.22 59.8664 1068.97 Q54.8057 1073.71 46.212 1073.71 Q37.491 1073.71 32.4939 1068.93 Q27.4968 1064.13 27.4968 1055.79 Q27.4968 1053.08 28.0697 1050.51 Q28.6108 1047.93 29.7248 1045.51 Z" fill="#000000" fill-rule="nonzero" fill-opacity="1" /><path clip-path="url(#clip170)" d="M32.4621 1021.51 Q32.4621 1026.22 36.1542 1028.96 Q39.8145 1031.69 46.212 1031.69 Q52.6095 1031.69 56.3017 1028.99 Q59.9619 1026.25 59.9619 1021.51 Q59.9619 1016.83 56.2698 1014.09 Q52.5777 1011.36 46.212 1011.36 Q39.8781 1011.36 36.186 1014.09 Q32.4621 1016.83 32.4621 1021.51 M27.4968 1021.51 Q27.4968 1013.87 32.4621 1009.51 Q37.4273 1005.15 46.212 1005.15 Q54.9649 1005.15 59.9619 1009.51 Q64.9272 1013.87 64.9272 1021.51 Q64.9272 1029.18 59.9619 1033.54 Q54.9649 1037.87 46.212 1037.87 Q37.4273 1037.87 32.4621 1033.54 Q27.4968 1029.18 27.4968 1021.51 Z" fill="#000000" fill-rule="nonzero" fill-opacity="1" /><path clip-path="url(#clip170)" d="M42.4881 965.81 L64.0042 965.81 L64.0042 971.666 L42.679 971.666 Q37.6183 971.666 35.1038 973.64 Q32.5894 975.613 32.5894 979.56 Q32.5894 984.302 35.6131 987.039 Q38.6368 989.777 43.8567 989.777 L64.0042 989.777 L64.0042 995.665 L28.3562 995.665 L28.3562 989.777 L33.8944 989.777 Q30.6797 987.676 29.0883 984.843 Q27.4968 981.979 27.4968 978.255 Q27.4968 972.112 31.3163 968.961 Q35.1038 965.81 42.4881 965.81 Z" fill="#000000" fill-rule="nonzero" fill-opacity="1" /><path clip-path="url(#clip170)" d="M29.7248 928.475 L35.1993 928.475 Q33.8307 930.957 33.1623 933.472 Q32.4621 935.955 32.4621 938.501 Q32.4621 944.198 36.0905 947.349 Q39.6872 950.5 46.212 950.5 Q52.7369 950.5 56.3653 947.349 Q59.9619 944.198 59.9619 938.501 Q59.9619 935.955 59.2935 933.472 Q58.5933 930.957 57.2247 928.475 L62.6355 928.475 Q63.7814 930.926 64.3543 933.567 Q64.9272 936.177 64.9272 939.137 Q64.9272 947.19 59.8664 951.932 Q54.8057 956.675 46.212 956.675 Q37.491 956.675 32.4939 951.901 Q27.4968 947.095 27.4968 938.755 Q27.4968 936.05 28.0697 933.472 Q28.6108 930.894 29.7248 928.475 Z" fill="#000000" fill-rule="nonzero" fill-opacity="1" /><path clip-path="url(#clip170)" d="M44.7161 887.798 L47.5806 887.798 L47.5806 914.725 Q53.6281 914.343 56.8109 911.096 Q59.9619 907.818 59.9619 901.993 Q59.9619 898.62 59.1344 895.469 Q58.3069 892.286 56.6518 889.167 L62.1899 889.167 Q63.5267 892.318 64.227 895.628 Q64.9272 898.938 64.9272 902.344 Q64.9272 910.874 59.9619 915.871 Q54.9967 920.836 46.5303 920.836 Q37.7774 920.836 32.6531 916.125 Q27.4968 911.383 27.4968 903.362 Q27.4968 896.169 32.1438 891.999 Q36.7589 887.798 44.7161 887.798 M42.9973 893.654 Q38.1912 893.718 35.3266 896.36 Q32.4621 898.97 32.4621 903.298 Q32.4621 908.2 35.2312 911.16 Q38.0002 914.088 43.0292 914.534 L42.9973 893.654 Z" fill="#000000" fill-rule="nonzero" fill-opacity="1" /><path clip-path="url(#clip170)" d="M42.4881 848.553 L64.0042 848.553 L64.0042 854.41 L42.679 854.41 Q37.6183 854.41 35.1038 856.383 Q32.5894 858.357 32.5894 862.303 Q32.5894 867.046 35.6131 869.783 Q38.6368 872.52 43.8567 872.52 L64.0042 872.52 L64.0042 878.409 L28.3562 878.409 L28.3562 872.52 L33.8944 872.52 Q30.6797 870.42 29.0883 867.587 Q27.4968 864.722 27.4968 860.998 Q27.4968 854.855 31.3163 851.704 Q35.1038 848.553 42.4881 848.553 Z" fill="#000000" fill-rule="nonzero" fill-opacity="1" /><path clip-path="url(#clip170)" d="M18.2347 831.08 L28.3562 831.08 L28.3562 819.016 L32.9077 819.016 L32.9077 831.08 L52.2594 831.08 Q56.6199 831.08 57.8613 829.902 Q59.1026 828.692 59.1026 825.032 L59.1026 819.016 L64.0042 819.016 L64.0042 825.032 Q64.0042 831.812 61.4897 834.39 Q58.9434 836.968 52.2594 836.968 L32.9077 836.968 L32.9077 841.265 L28.3562 841.265 L28.3562 836.968 L18.2347 836.968 L18.2347 831.08 Z" fill="#000000" fill-rule="nonzero" fill-opacity="1" /><path clip-path="url(#clip170)" d="M33.8307 790.657 Q33.2578 791.644 33.0032 792.822 Q32.7167 793.967 32.7167 795.368 Q32.7167 800.333 35.9632 803.007 Q39.1779 805.649 45.2253 805.649 L64.0042 805.649 L64.0042 811.537 L28.3562 811.537 L28.3562 805.649 L33.8944 805.649 Q30.6479 803.802 29.0883 800.842 Q27.4968 797.882 27.4968 793.649 Q27.4968 793.044 27.5923 792.312 Q27.656 791.58 27.8151 790.689 L33.8307 790.657 Z" fill="#000000" fill-rule="nonzero" fill-opacity="1" /><path clip-path="url(#clip170)" d="M46.0847 768.314 Q46.0847 775.411 47.7079 778.149 Q49.3312 780.886 53.2461 780.886 Q56.3653 780.886 58.2114 778.849 Q60.0256 776.78 60.0256 773.247 Q60.0256 768.377 56.5881 765.449 Q53.1188 762.489 47.3897 762.489 L46.0847 762.489 L46.0847 768.314 M43.6657 756.633 L64.0042 756.633 L64.0042 762.489 L58.5933 762.489 Q61.8398 764.494 63.3994 767.486 Q64.9272 770.478 64.9272 774.807 Q64.9272 780.281 61.8716 783.528 Q58.7843 786.742 53.6281 786.742 Q47.6125 786.742 44.5569 782.732 Q41.5014 778.69 41.5014 770.701 L41.5014 762.489 L40.9285 762.489 Q36.8862 762.489 34.6901 765.163 Q32.4621 767.804 32.4621 772.61 Q32.4621 775.666 33.1941 778.562 Q33.9262 781.459 35.3903 784.132 L29.9795 784.132 Q28.7381 780.918 28.1334 777.894 Q27.4968 774.87 27.4968 772.006 Q27.4968 764.271 31.5072 760.452 Q35.5176 756.633 43.6657 756.633 Z" fill="#000000" fill-rule="nonzero" fill-opacity="1" /><path clip-path="url(#clip170)" d="M18.2347 738.777 L28.3562 738.777 L28.3562 726.714 L32.9077 726.714 L32.9077 738.777 L52.2594 738.777 Q56.6199 738.777 57.8613 737.599 Q59.1026 736.39 59.1026 732.729 L59.1026 726.714 L64.0042 726.714 L64.0042 732.729 Q64.0042 739.509 61.4897 742.087 Q58.9434 744.665 52.2594 744.665 L32.9077 744.665 L32.9077 748.962 L28.3562 748.962 L28.3562 744.665 L18.2347 744.665 L18.2347 738.777 Z" fill="#000000" fill-rule="nonzero" fill-opacity="1" /><path clip-path="url(#clip170)" d="M28.3562 719.011 L28.3562 713.155 L64.0042 713.155 L64.0042 719.011 L28.3562 719.011 M14.479 719.011 L14.479 713.155 L21.895 713.155 L21.895 719.011 L14.479 719.011 Z" fill="#000000" fill-rule="nonzero" fill-opacity="1" /><path clip-path="url(#clip170)" d="M32.4621 687.087 Q32.4621 691.798 36.1542 694.535 Q39.8145 697.272 46.212 697.272 Q52.6095 697.272 56.3017 694.567 Q59.9619 691.83 59.9619 687.087 Q59.9619 682.408 56.2698 679.671 Q52.5777 676.934 46.212 676.934 Q39.8781 676.934 36.186 679.671 Q32.4621 682.408 32.4621 687.087 M27.4968 687.087 Q27.4968 679.448 32.4621 675.088 Q37.4273 670.727 46.212 670.727 Q54.9649 670.727 59.9619 675.088 Q64.9272 679.448 64.9272 687.087 Q64.9272 694.758 59.9619 699.118 Q54.9649 703.447 46.212 703.447 Q37.4273 703.447 32.4621 699.118 Q27.4968 694.758 27.4968 687.087 Z" fill="#000000" fill-rule="nonzero" fill-opacity="1" /><path clip-path="url(#clip170)" d="M42.4881 631.387 L64.0042 631.387 L64.0042 637.244 L42.679 637.244 Q37.6183 637.244 35.1038 639.217 Q32.5894 641.19 32.5894 645.137 Q32.5894 649.88 35.6131 652.617 Q38.6368 655.354 43.8567 655.354 L64.0042 655.354 L64.0042 661.242 L28.3562 661.242 L28.3562 655.354 L33.8944 655.354 Q30.6797 653.253 29.0883 650.421 Q27.4968 647.556 27.4968 643.832 Q27.4968 637.689 31.3163 634.538 Q35.1038 631.387 42.4881 631.387 Z" fill="#000000" fill-rule="nonzero" fill-opacity="1" /><path clip-path="url(#clip170)" d="M14.5426 584.918 Q21.8632 589.183 29.0246 591.252 Q36.186 593.32 43.5384 593.32 Q50.8908 593.32 58.1159 591.252 Q65.3091 589.151 72.5979 584.918 L72.5979 590.01 Q65.1182 594.784 57.8931 597.172 Q50.668 599.527 43.5384 599.527 Q36.4406 599.527 29.2474 597.172 Q22.0542 594.816 14.5426 590.01 L14.5426 584.918 Z" fill="#000000" fill-rule="nonzero" fill-opacity="1" /><path clip-path="url(#clip170)" d="M35.1993 545.8 Q31.2526 543.604 29.3747 540.549 Q27.4968 537.493 27.4968 533.355 Q27.4968 527.785 31.4117 524.762 Q35.2948 521.738 42.4881 521.738 L64.0042 521.738 L64.0042 527.626 L42.679 527.626 Q37.5546 527.626 35.072 529.441 Q32.5894 531.255 32.5894 534.979 Q32.5894 539.53 35.6131 542.172 Q38.6368 544.814 43.8567 544.814 L64.0042 544.814 L64.0042 550.702 L42.679 550.702 Q37.5228 550.702 35.072 552.516 Q32.5894 554.33 32.5894 558.118 Q32.5894 562.606 35.6449 565.248 Q38.6686 567.889 43.8567 567.889 L64.0042 567.889 L64.0042 573.778 L28.3562 573.778 L28.3562 567.889 L33.8944 567.889 Q30.616 565.884 29.0564 563.083 Q27.4968 560.282 27.4968 556.431 Q27.4968 552.548 29.4702 549.843 Q31.4436 547.105 35.1993 545.8 Z" fill="#000000" fill-rule="nonzero" fill-opacity="1" /><path clip-path="url(#clip170)" d="M45.7664 486.599 Q39.4007 486.599 35.8996 489.241 Q32.3984 491.851 32.3984 496.593 Q32.3984 501.304 35.8996 503.946 Q39.4007 506.556 45.7664 506.556 Q52.1003 506.556 55.6014 503.946 Q59.1026 501.304 59.1026 496.593 Q59.1026 491.851 55.6014 489.241 Q52.1003 486.599 45.7664 486.599 M59.58 480.743 Q68.683 480.743 73.1071 484.785 Q77.5631 488.827 77.5631 497.166 Q77.5631 500.254 77.0857 502.991 Q76.6401 505.728 75.6852 508.306 L69.9879 508.306 Q71.3884 505.728 72.0568 503.214 Q72.7252 500.699 72.7252 498.089 Q72.7252 492.328 69.7015 489.464 Q66.7096 486.599 60.6303 486.599 L57.7339 486.599 Q60.885 488.414 62.4446 491.246 Q64.0042 494.079 64.0042 498.026 Q64.0042 504.582 59.0071 508.593 Q54.01 512.603 45.7664 512.603 Q37.491 512.603 32.4939 508.593 Q27.4968 504.582 27.4968 498.026 Q27.4968 494.079 29.0564 491.246 Q30.616 488.414 33.7671 486.599 L28.3562 486.599 L28.3562 480.743 L59.58 480.743 Z" fill="#000000" fill-rule="nonzero" fill-opacity="1" /><path clip-path="url(#clip170)" d="M16.4842 458.272 L16.4842 452.861 L70.0516 469.412 L70.0516 474.823 L16.4842 458.272 Z" fill="#000000" fill-rule="nonzero" fill-opacity="1" /><path clip-path="url(#clip170)" d="M16.4842 446.464 L16.4842 440.034 L58.5933 440.034 L58.5933 416.895 L64.0042 416.895 L64.0042 446.464 L16.4842 446.464 Z" fill="#000000" fill-rule="nonzero" fill-opacity="1" /><path clip-path="url(#clip170)" d="M14.5426 411.325 L14.5426 406.232 Q22.0542 401.458 29.2474 399.103 Q36.4406 396.716 43.5384 396.716 Q50.668 396.716 57.8931 399.103 Q65.1182 401.458 72.5979 406.232 L72.5979 411.325 Q65.3091 407.092 58.1159 405.023 Q50.8908 402.922 43.5384 402.922 Q36.186 402.922 29.0246 405.023 Q21.8632 407.092 14.5426 411.325 Z" fill="#000000" fill-rule="nonzero" fill-opacity="1" /><polyline clip-path="url(#clip172)" style="stroke:#1b9e77; stroke-linecap:round; stroke-linejoin:round; stroke-width:8; stroke-opacity:1; fill:none" points="249.542,86.211 263.235,86.211 389.847,86.211 465.936,86.211 530.268,86.211 600.151,86.211 664.576,86.211 733.647,86.211 813.673,86.211 884.79,86.211 947.153,86.211 1015.15,86.211 1083.54,86.2131 1121.35,86.2879 1159.16,87.6021 1168.16,88.7283 1177.15,90.6109 1186.15,93.6465 1195.14,98.3717 1199.64,101.578 1204.13,105.477 1208.63,110.18 1213.13,115.806 1217.63,122.48 1222.12,130.334 1226.62,139.5 1231.12,150.113 1235.79,162.826 1240.47,177.386 1245.14,193.923 1249.82,212.552 1254.5,233.366 1259.17,256.431 1263.85,281.789 1268.52,309.444 1273.2,339.371 1277.88,371.502 1282.55,405.737 1287.23,441.934 1291.9,479.92 1296.58,519.484 1301.25,560.388 1305.93,602.369 1313.8,674.686 1321.67,747.816 1329.55,820.306 1337.42,890.764 1341.35,924.831 1345.29,957.935 1349.23,989.949 1353.16,1020.76 1357.1,1050.29 1361.04,1078.44 1364.97,1105.17 1368.91,1130.42 1373.71,1159.22 1378.52,1185.77 1383.32,1210.08 1388.13,1232.2 1392.93,1252.2 1397.74,1270.15 1402.55,1286.18 1407.35,1300.38 1412.16,1312.9 1416.96,1323.87 1421.77,1333.41 1426.57,1341.66 1431.38,1348.76 1436.18,1354.82 1440.99,1359.98 1445.79,1364.33 1454.6,1370.56 1463.4,1375 1472.21,1378.1 1481.01,1380.23 1498.62,1382.61 1516.23,1383.62 1548.75,1384.15 1581.28,1384.23 1614.23,1384.24 1647.18,1384.24 1721.02,1384.24 1787.94,1384.24 1864.56,1384.24 1935.51,1384.24 2005.45,1384.24 2073.35,1384.24 2142.96,1384.24 2219.23,1384.24 2330.03,1384.24 2352.76,1384.24 "/>
<polyline clip-path="url(#clip172)" style="stroke:#d95f02; stroke-linecap:round; stroke-linejoin:round; stroke-width:8; stroke-opacity:1; fill:none" points="249.542,86.2099 263.235,86.2099 389.847,86.2099 465.936,86.2099 530.268,86.2099 600.151,86.2099 664.576,86.2099 733.647,86.2099 813.673,86.2099 884.79,86.2099 947.153,86.2105 981.15,86.218 1015.15,86.2869 1049.34,86.7378 1083.54,88.887 1093,90.2067 1102.45,92.0621 1111.9,94.6197 1121.35,98.0784 1130.81,102.669 1140.26,108.655 1149.71,116.323 1159.16,125.98 1168.16,137.306 1177.15,150.993 1186.15,167.298 1195.14,186.458 1204.13,208.671 1213.13,234.089 1217.63,248.031 1222.12,262.803 1226.62,278.408 1231.12,294.84 1235.79,312.795 1240.47,331.622 1245.14,351.299 1249.82,371.8 1259.17,415.142 1268.52,461.327 1277.88,509.959 1287.23,560.573 1296.58,612.652 1305.93,665.646 1321.67,755.355 1337.42,843.386 1345.29,885.999 1353.16,927.313 1361.04,967.092 1368.91,1005.13 1378.52,1048.99 1388.13,1089.78 1392.93,1108.98 1397.74,1127.36 1402.55,1144.92 1407.35,1161.67 1416.96,1192.7 1426.57,1220.51 1436.18,1245.22 1445.79,1266.99 1454.6,1284.52 1463.4,1299.89 1472.21,1313.28 1481.01,1324.88 1489.82,1334.84 1498.62,1343.36 1507.42,1350.58 1516.23,1356.68 1532.49,1365.44 1548.75,1371.64 1565.02,1375.94 1581.28,1378.86 1614.23,1382.12 1647.18,1383.45 1721.02,1384.17 1787.94,1384.23 1864.56,1384.24 1935.51,1384.24 2005.45,1384.24 2073.35,1384.24 2142.96,1384.24 2219.23,1384.24 2330.03,1384.24 2352.76,1384.24 "/>
<polyline clip-path="url(#clip172)" style="stroke:#756fb3; stroke-linecap:round; stroke-linejoin:round; stroke-width:8; stroke-opacity:1; fill:none" points="249.542,86.21 263.235,86.21 389.847,86.21 465.936,86.21 530.268,86.21 600.151,86.21 664.576,86.21 733.647,86.21 813.673,86.2316 849.231,86.3493 884.79,86.8495 915.972,88.1661 947.153,91.2861 964.152,94.2591 981.15,98.5151 998.148,104.406 1015.15,112.31 1032.25,122.688 1049.34,135.89 1057.89,143.664 1066.44,152.276 1074.99,161.761 1083.54,172.154 1093,184.732 1102.45,198.481 1111.9,213.42 1121.35,229.56 1130.81,246.901 1140.26,265.434 1149.71,285.139 1159.16,305.986 1168.16,326.845 1177.15,348.659 1186.15,371.38 1195.14,394.949 1213.13,444.381 1231.12,496.394 1249.82,552.538 1268.52,610.049 1287.23,668.165 1305.93,726.143 1321.67,774.322 1337.42,821.52 1353.16,867.39 1368.91,911.629 1388.13,963.064 1407.35,1011.33 1416.96,1034.19 1426.57,1056.17 1436.18,1077.25 1445.79,1097.42 1463.4,1132.01 1481.01,1163.56 1498.62,1192.13 1516.23,1217.81 1532.49,1239.1 1548.75,1258.17 1565.02,1275.17 1581.28,1290.24 1597.75,1303.7 1614.23,1315.49 1630.7,1325.78 1647.18,1334.72 1665.64,1343.29 1684.1,1350.53 1702.56,1356.61 1721.02,1361.69 1754.48,1368.8 1787.94,1373.81 1864.56,1380.18 1935.51,1382.63 2005.45,1383.63 2073.35,1384.01 2142.96,1384.16 2219.23,1384.21 2330.03,1384.23 2352.76,1384.23 "/>
<polyline clip-path="url(#clip172)" style="stroke:#e72989; stroke-linecap:round; stroke-linejoin:round; stroke-width:8; stroke-opacity:1; fill:none" points="249.542,86.2135 263.235,86.2017 389.847,86.2434 465.936,86.1857 530.268,86.1857 600.151,86.2706 664.576,86.2705 699.112,87.0994 733.647,89.8716 753.653,92.9548 773.66,97.5007 793.666,103.788 813.673,112.05 831.452,121.188 849.231,132.094 867.011,144.802 884.79,159.308 900.381,173.479 915.972,188.966 931.562,205.717 947.153,223.672 964.152,244.545 981.15,266.682 998.148,289.986 1015.15,314.354 1032.25,339.832 1049.34,366.166 1066.44,393.236 1083.54,420.926 1159.16,547.827 1231.12,669.37 1268.52,730.759 1305.93,790.005 1337.42,837.809 1368.91,883.456 1388.13,910.185 1407.35,936.019 1426.57,960.938 1445.79,984.929 1481.01,1026.45 1516.23,1064.79 1548.75,1097.41 1581.28,1127.41 1614.23,1155.23 1647.18,1180.58 1684.1,1206.23 1721.02,1229.14 1754.48,1247.68 1787.94,1264.29 1826.25,1281.12 1864.56,1295.85 1900.03,1307.8 1935.51,1318.29 1970.48,1327.34 2005.45,1335.24 2039.4,1341.94 2073.35,1347.8 2142.96,1357.56 2219.23,1365.41 2330.03,1373.07 2352.76,1374.22 "/>
<path clip-path="url(#clip170)" d="M319.649 884.756 L1021.38 884.756 L1021.38 625.556 L319.649 625.556  Z" fill="#ffffff" fill-rule="evenodd" fill-opacity="1"/>
<polyline clip-path="url(#clip170)" style="stroke:#000000; stroke-linecap:round; stroke-linejoin:round; stroke-width:4; stroke-opacity:1; fill:none" points="319.649,884.756 1021.38,884.756 1021.38,625.556 319.649,625.556 319.649,884.756 "/>
<polyline clip-path="url(#clip170)" style="stroke:#1b9e77; stroke-linecap:round; stroke-linejoin:round; stroke-width:8; stroke-opacity:1; fill:none" points="343.018,677.396 483.232,677.396 "/>
<path clip-path="url(#clip170)" d="M518.5 671.737 Q515.074 671.737 513.083 674.422 Q511.092 677.084 511.092 681.737 Q511.092 686.39 513.06 689.075 Q515.051 691.737 518.5 691.737 Q521.902 691.737 523.893 689.052 Q525.884 686.366 525.884 681.737 Q525.884 677.13 523.893 674.445 Q521.902 671.737 518.5 671.737 M518.5 668.126 Q524.055 668.126 527.226 671.737 Q530.398 675.348 530.398 681.737 Q530.398 688.102 527.226 691.737 Q524.055 695.348 518.5 695.348 Q512.921 695.348 509.75 691.737 Q506.602 688.102 506.602 681.737 Q506.602 675.348 509.75 671.737 Q512.921 668.126 518.5 668.126 Z" fill="#000000" fill-rule="nonzero" fill-opacity="1" /><path clip-path="url(#clip170)" d="M552.481 672.732 Q551.763 672.316 550.907 672.13 Q550.073 671.922 549.055 671.922 Q545.444 671.922 543.499 674.283 Q541.578 676.621 541.578 681.019 L541.578 694.676 L537.296 694.676 L537.296 668.751 L541.578 668.751 L541.578 672.778 Q542.921 670.417 545.074 669.283 Q547.226 668.126 550.305 668.126 Q550.745 668.126 551.277 668.195 Q551.81 668.241 552.458 668.357 L552.481 672.732 Z" fill="#000000" fill-rule="nonzero" fill-opacity="1" /><path clip-path="url(#clip170)" d="M556.948 668.751 L561.208 668.751 L561.208 694.676 L556.948 694.676 L556.948 668.751 M556.948 658.658 L561.208 658.658 L561.208 664.052 L556.948 664.052 L556.948 658.658 Z" fill="#000000" fill-rule="nonzero" fill-opacity="1" /><path clip-path="url(#clip170)" d="M587.18 681.413 Q587.18 676.783 585.258 674.237 Q583.36 671.691 579.911 671.691 Q576.485 671.691 574.564 674.237 Q572.666 676.783 572.666 681.413 Q572.666 686.019 574.564 688.565 Q576.485 691.112 579.911 691.112 Q583.36 691.112 585.258 688.565 Q587.18 686.019 587.18 681.413 M591.439 691.459 Q591.439 698.079 588.499 701.297 Q585.559 704.538 579.495 704.538 Q577.249 704.538 575.259 704.19 Q573.268 703.866 571.393 703.172 L571.393 699.028 Q573.268 700.047 575.097 700.533 Q576.925 701.019 578.823 701.019 Q583.013 701.019 585.096 698.82 Q587.18 696.644 587.18 692.223 L587.18 690.116 Q585.86 692.408 583.8 693.542 Q581.74 694.676 578.87 694.676 Q574.101 694.676 571.184 691.042 Q568.268 687.408 568.268 681.413 Q568.268 675.394 571.184 671.76 Q574.101 668.126 578.87 668.126 Q581.74 668.126 583.8 669.26 Q585.86 670.394 587.18 672.686 L587.18 668.751 L591.439 668.751 L591.439 691.459 Z" fill="#000000" fill-rule="nonzero" fill-opacity="1" /><path clip-path="url(#clip170)" d="M600.212 668.751 L604.471 668.751 L604.471 694.676 L600.212 694.676 L600.212 668.751 M600.212 658.658 L604.471 658.658 L604.471 664.052 L600.212 664.052 L600.212 658.658 Z" fill="#000000" fill-rule="nonzero" fill-opacity="1" /><path clip-path="url(#clip170)" d="M634.934 679.028 L634.934 694.676 L630.675 694.676 L630.675 679.167 Q630.675 675.487 629.24 673.658 Q627.805 671.829 624.934 671.829 Q621.485 671.829 619.494 674.028 Q617.504 676.228 617.504 680.024 L617.504 694.676 L613.221 694.676 L613.221 668.751 L617.504 668.751 L617.504 672.778 Q619.031 670.441 621.092 669.283 Q623.175 668.126 625.883 668.126 Q630.351 668.126 632.642 670.903 Q634.934 673.658 634.934 679.028 Z" fill="#000000" fill-rule="nonzero" fill-opacity="1" /><path clip-path="url(#clip170)" d="M655.212 681.644 Q650.05 681.644 648.059 682.825 Q646.068 684.005 646.068 686.852 Q646.068 689.121 647.55 690.464 Q649.054 691.783 651.624 691.783 Q655.166 691.783 657.295 689.283 Q659.448 686.76 659.448 682.593 L659.448 681.644 L655.212 681.644 M663.707 679.885 L663.707 694.676 L659.448 694.676 L659.448 690.741 Q657.99 693.102 655.814 694.237 Q653.638 695.348 650.49 695.348 Q646.508 695.348 644.147 693.126 Q641.809 690.88 641.809 687.13 Q641.809 682.755 644.726 680.533 Q647.666 678.311 653.476 678.311 L659.448 678.311 L659.448 677.894 Q659.448 674.954 657.503 673.357 Q655.582 671.737 652.087 671.737 Q649.865 671.737 647.758 672.269 Q645.652 672.802 643.707 673.866 L643.707 669.931 Q646.045 669.028 648.244 668.589 Q650.443 668.126 652.527 668.126 Q658.152 668.126 660.929 671.042 Q663.707 673.959 663.707 679.885 Z" fill="#000000" fill-rule="nonzero" fill-opacity="1" /><path clip-path="url(#clip170)" d="M672.48 658.658 L676.739 658.658 L676.739 694.676 L672.48 694.676 L672.48 658.658 Z" fill="#000000" fill-rule="nonzero" fill-opacity="1" /><polyline clip-path="url(#clip170)" style="stroke:#d95f02; stroke-linecap:round; stroke-linejoin:round; stroke-width:8; stroke-opacity:1; fill:none" points="343.018,729.236 483.232,729.236 "/>
<path clip-path="url(#clip170)" d="M512.226 742.581 L528.546 742.581 L528.546 746.516 L506.602 746.516 L506.602 742.581 Q509.264 739.827 513.847 735.197 Q518.453 730.544 519.634 729.202 Q521.879 726.679 522.759 724.943 Q523.662 723.183 523.662 721.493 Q523.662 718.739 521.717 717.003 Q519.796 715.267 516.694 715.267 Q514.495 715.267 512.041 716.031 Q509.611 716.794 506.833 718.345 L506.833 713.623 Q509.657 712.489 512.111 711.91 Q514.564 711.331 516.601 711.331 Q521.972 711.331 525.166 714.017 Q528.361 716.702 528.361 721.193 Q528.361 723.322 527.55 725.243 Q526.763 727.142 524.657 729.734 Q524.078 730.405 520.976 733.623 Q517.875 736.817 512.226 742.581 Z" fill="#000000" fill-rule="nonzero" fill-opacity="1" /><path clip-path="url(#clip170)" d="M566.532 721.054 L555.953 731.679 L566.532 742.257 L563.777 745.058 L553.152 734.433 L542.527 745.058 L539.796 742.257 L550.351 731.679 L539.796 721.054 L542.527 718.253 L553.152 728.878 L563.777 718.253 L566.532 721.054 Z" fill="#000000" fill-rule="nonzero" fill-opacity="1" /><path clip-path="url(#clip170)" d="M596.67 742.628 L596.67 756.378 L592.388 756.378 L592.388 720.591 L596.67 720.591 L596.67 724.526 Q598.013 722.211 600.05 721.1 Q602.11 719.966 604.957 719.966 Q609.68 719.966 612.619 723.716 Q615.582 727.466 615.582 733.577 Q615.582 739.688 612.619 743.438 Q609.68 747.188 604.957 747.188 Q602.11 747.188 600.05 746.077 Q598.013 744.942 596.67 742.628 M611.161 733.577 Q611.161 728.878 609.217 726.216 Q607.295 723.531 603.916 723.531 Q600.536 723.531 598.592 726.216 Q596.67 728.878 596.67 733.577 Q596.67 738.276 598.592 740.961 Q600.536 743.623 603.916 743.623 Q607.295 743.623 609.217 740.961 Q611.161 738.276 611.161 733.577 Z" fill="#000000" fill-rule="nonzero" fill-opacity="1" /><path clip-path="url(#clip170)" d="M634.425 733.484 Q629.263 733.484 627.272 734.665 Q625.281 735.845 625.281 738.692 Q625.281 740.961 626.763 742.304 Q628.268 743.623 630.837 743.623 Q634.379 743.623 636.508 741.123 Q638.661 738.6 638.661 734.433 L638.661 733.484 L634.425 733.484 M642.92 731.725 L642.92 746.516 L638.661 746.516 L638.661 742.581 Q637.203 744.942 635.027 746.077 Q632.851 747.188 629.703 747.188 Q625.721 747.188 623.36 744.966 Q621.022 742.72 621.022 738.97 Q621.022 734.595 623.939 732.373 Q626.879 730.151 632.689 730.151 L638.661 730.151 L638.661 729.734 Q638.661 726.794 636.717 725.197 Q634.795 723.577 631.3 723.577 Q629.078 723.577 626.971 724.109 Q624.865 724.642 622.92 725.706 L622.92 721.771 Q625.258 720.868 627.457 720.429 Q629.656 719.966 631.74 719.966 Q637.365 719.966 640.142 722.882 Q642.92 725.799 642.92 731.725 Z" fill="#000000" fill-rule="nonzero" fill-opacity="1" /><path clip-path="url(#clip170)" d="M666.716 724.572 Q665.999 724.156 665.142 723.97 Q664.309 723.762 663.29 723.762 Q659.679 723.762 657.735 726.123 Q655.814 728.461 655.814 732.859 L655.814 746.516 L651.531 746.516 L651.531 720.591 L655.814 720.591 L655.814 724.618 Q657.156 722.257 659.309 721.123 Q661.462 719.966 664.54 719.966 Q664.98 719.966 665.513 720.035 Q666.045 720.081 666.693 720.197 L666.716 724.572 Z" fill="#000000" fill-rule="nonzero" fill-opacity="1" /><path clip-path="url(#clip170)" d="M675.397 713.23 L675.397 720.591 L684.17 720.591 L684.17 723.901 L675.397 723.901 L675.397 737.975 Q675.397 741.146 676.253 742.049 Q677.133 742.952 679.795 742.952 L684.17 742.952 L684.17 746.516 L679.795 746.516 Q674.864 746.516 672.99 744.688 Q671.115 742.836 671.115 737.975 L671.115 723.901 L667.99 723.901 L667.99 720.591 L671.115 720.591 L671.115 713.23 L675.397 713.23 Z" fill="#000000" fill-rule="nonzero" fill-opacity="1" /><path clip-path="url(#clip170)" d="M689.772 720.591 L694.031 720.591 L694.031 746.516 L689.772 746.516 L689.772 720.591 M689.772 710.498 L694.031 710.498 L694.031 715.892 L689.772 715.892 L689.772 710.498 Z" fill="#000000" fill-rule="nonzero" fill-opacity="1" /><path clip-path="url(#clip170)" d="M721.6 721.586 L721.6 725.568 Q719.795 724.572 717.966 724.086 Q716.161 723.577 714.309 723.577 Q710.165 723.577 707.874 726.216 Q705.582 728.831 705.582 733.577 Q705.582 738.322 707.874 740.961 Q710.165 743.577 714.309 743.577 Q716.161 743.577 717.966 743.091 Q719.795 742.581 721.6 741.586 L721.6 745.521 Q719.818 746.354 717.897 746.771 Q715.999 747.188 713.846 747.188 Q707.989 747.188 704.54 743.507 Q701.091 739.827 701.091 733.577 Q701.091 727.234 704.563 723.6 Q708.059 719.966 714.124 719.966 Q716.091 719.966 717.966 720.382 Q719.841 720.776 721.6 721.586 Z" fill="#000000" fill-rule="nonzero" fill-opacity="1" /><path clip-path="url(#clip170)" d="M729.008 710.498 L733.267 710.498 L733.267 746.516 L729.008 746.516 L729.008 710.498 Z" fill="#000000" fill-rule="nonzero" fill-opacity="1" /><path clip-path="url(#clip170)" d="M764.355 732.489 L764.355 734.572 L744.772 734.572 Q745.049 738.97 747.41 741.285 Q749.795 743.577 754.031 743.577 Q756.484 743.577 758.776 742.975 Q761.091 742.373 763.359 741.169 L763.359 745.197 Q761.068 746.169 758.66 746.679 Q756.253 747.188 753.776 747.188 Q747.572 747.188 743.938 743.577 Q740.327 739.966 740.327 733.808 Q740.327 727.443 743.753 723.716 Q747.202 719.966 753.035 719.966 Q758.267 719.966 761.299 723.345 Q764.355 726.702 764.355 732.489 M760.096 731.239 Q760.049 727.743 758.128 725.66 Q756.23 723.577 753.082 723.577 Q749.517 723.577 747.364 725.591 Q745.234 727.605 744.91 731.262 L760.096 731.239 Z" fill="#000000" fill-rule="nonzero" fill-opacity="1" /><path clip-path="url(#clip170)" d="M803.475 724.526 L803.475 710.498 L807.734 710.498 L807.734 746.516 L803.475 746.516 L803.475 742.628 Q802.132 744.942 800.072 746.077 Q798.035 747.188 795.165 747.188 Q790.466 747.188 787.503 743.438 Q784.563 739.688 784.563 733.577 Q784.563 727.466 787.503 723.716 Q790.466 719.966 795.165 719.966 Q798.035 719.966 800.072 721.1 Q802.132 722.211 803.475 724.526 M788.961 733.577 Q788.961 738.276 790.882 740.961 Q792.827 743.623 796.206 743.623 Q799.586 743.623 801.53 740.961 Q803.475 738.276 803.475 733.577 Q803.475 728.878 801.53 726.216 Q799.586 723.531 796.206 723.531 Q792.827 723.531 790.882 726.216 Q788.961 728.878 788.961 733.577 Z" fill="#000000" fill-rule="nonzero" fill-opacity="1" /><path clip-path="url(#clip170)" d="M816.507 720.591 L820.766 720.591 L820.766 746.516 L816.507 746.516 L816.507 720.591 M816.507 710.498 L820.766 710.498 L820.766 715.892 L816.507 715.892 L816.507 710.498 Z" fill="#000000" fill-rule="nonzero" fill-opacity="1" /><path clip-path="url(#clip170)" d="M841.461 733.484 Q836.299 733.484 834.308 734.665 Q832.317 735.845 832.317 738.692 Q832.317 740.961 833.799 742.304 Q835.303 743.623 837.873 743.623 Q841.415 743.623 843.544 741.123 Q845.697 738.6 845.697 734.433 L845.697 733.484 L841.461 733.484 M849.956 731.725 L849.956 746.516 L845.697 746.516 L845.697 742.581 Q844.239 744.942 842.063 746.077 Q839.887 747.188 836.739 747.188 Q832.757 747.188 830.396 744.966 Q828.058 742.72 828.058 738.97 Q828.058 734.595 830.975 732.373 Q833.915 730.151 839.725 730.151 L845.697 730.151 L845.697 729.734 Q845.697 726.794 843.752 725.197 Q841.831 723.577 838.336 723.577 Q836.114 723.577 834.007 724.109 Q831.901 724.642 829.956 725.706 L829.956 721.771 Q832.294 720.868 834.493 720.429 Q836.692 719.966 838.776 719.966 Q844.401 719.966 847.178 722.882 Q849.956 725.799 849.956 731.725 Z" fill="#000000" fill-rule="nonzero" fill-opacity="1" /><path clip-path="url(#clip170)" d="M878.914 725.568 Q880.512 722.697 882.734 721.331 Q884.956 719.966 887.965 719.966 Q892.016 719.966 894.215 722.813 Q896.414 725.637 896.414 730.868 L896.414 746.516 L892.132 746.516 L892.132 731.007 Q892.132 727.28 890.812 725.475 Q889.493 723.669 886.785 723.669 Q883.474 723.669 881.553 725.868 Q879.632 728.068 879.632 731.864 L879.632 746.516 L875.35 746.516 L875.35 731.007 Q875.35 727.257 874.03 725.475 Q872.711 723.669 869.956 723.669 Q866.692 723.669 864.771 725.892 Q862.85 728.091 862.85 731.864 L862.85 746.516 L858.567 746.516 L858.567 720.591 L862.85 720.591 L862.85 724.618 Q864.308 722.234 866.345 721.1 Q868.382 719.966 871.183 719.966 Q874.007 719.966 875.975 721.401 Q877.965 722.836 878.914 725.568 Z" fill="#000000" fill-rule="nonzero" fill-opacity="1" /><path clip-path="url(#clip170)" d="M927.085 732.489 L927.085 734.572 L907.502 734.572 Q907.78 738.97 910.141 741.285 Q912.525 743.577 916.761 743.577 Q919.215 743.577 921.507 742.975 Q923.821 742.373 926.09 741.169 L926.09 745.197 Q923.798 746.169 921.391 746.679 Q918.984 747.188 916.507 747.188 Q910.303 747.188 906.669 743.577 Q903.058 739.966 903.058 733.808 Q903.058 727.443 906.484 723.716 Q909.933 719.966 915.766 719.966 Q920.997 719.966 924.03 723.345 Q927.085 726.702 927.085 732.489 M922.826 731.239 Q922.78 727.743 920.859 725.66 Q918.96 723.577 915.812 723.577 Q912.247 723.577 910.095 725.591 Q907.965 727.605 907.641 731.262 L922.826 731.239 Z" fill="#000000" fill-rule="nonzero" fill-opacity="1" /><path clip-path="url(#clip170)" d="M938.289 713.23 L938.289 720.591 L947.062 720.591 L947.062 723.901 L938.289 723.901 L938.289 737.975 Q938.289 741.146 939.145 742.049 Q940.025 742.952 942.687 742.952 L947.062 742.952 L947.062 746.516 L942.687 746.516 Q937.757 746.516 935.882 744.688 Q934.007 742.836 934.007 737.975 L934.007 723.901 L930.882 723.901 L930.882 720.591 L934.007 720.591 L934.007 713.23 L938.289 713.23 Z" fill="#000000" fill-rule="nonzero" fill-opacity="1" /><path clip-path="url(#clip170)" d="M974.84 732.489 L974.84 734.572 L955.257 734.572 Q955.534 738.97 957.895 741.285 Q960.28 743.577 964.516 743.577 Q966.969 743.577 969.261 742.975 Q971.576 742.373 973.844 741.169 L973.844 745.197 Q971.553 746.169 969.145 746.679 Q966.738 747.188 964.261 747.188 Q958.057 747.188 954.423 743.577 Q950.812 739.966 950.812 733.808 Q950.812 727.443 954.238 723.716 Q957.687 719.966 963.52 719.966 Q968.752 719.966 971.784 723.345 Q974.84 726.702 974.84 732.489 M970.581 731.239 Q970.534 727.743 968.613 725.66 Q966.715 723.577 963.567 723.577 Q960.002 723.577 957.849 725.591 Q955.719 727.605 955.395 731.262 L970.581 731.239 Z" fill="#000000" fill-rule="nonzero" fill-opacity="1" /><path clip-path="url(#clip170)" d="M996.854 724.572 Q996.136 724.156 995.279 723.97 Q994.446 723.762 993.428 723.762 Q989.817 723.762 987.872 726.123 Q985.951 728.461 985.951 732.859 L985.951 746.516 L981.668 746.516 L981.668 720.591 L985.951 720.591 L985.951 724.618 Q987.293 722.257 989.446 721.123 Q991.599 719.966 994.678 719.966 Q995.117 719.966 995.65 720.035 Q996.182 720.081 996.83 720.197 L996.854 724.572 Z" fill="#000000" fill-rule="nonzero" fill-opacity="1" /><polyline clip-path="url(#clip170)" style="stroke:#756fb3; stroke-linecap:round; stroke-linejoin:round; stroke-width:8; stroke-opacity:1; fill:none" points="343.018,781.076 483.232,781.076 "/>
<path clip-path="url(#clip170)" d="M522.203 767.871 L510.398 786.32 L522.203 786.32 L522.203 767.871 M520.976 763.796 L526.856 763.796 L526.856 786.32 L531.787 786.32 L531.787 790.208 L526.856 790.208 L526.856 798.356 L522.203 798.356 L522.203 790.208 L506.602 790.208 L506.602 785.695 L520.976 763.796 Z" fill="#000000" fill-rule="nonzero" fill-opacity="1" /><path clip-path="url(#clip170)" d="M567.689 772.894 L557.11 783.519 L567.689 794.097 L564.935 796.898 L554.31 786.273 L543.685 796.898 L540.953 794.097 L551.509 783.519 L540.953 772.894 L543.685 770.093 L554.31 780.718 L564.935 770.093 L567.689 772.894 Z" fill="#000000" fill-rule="nonzero" fill-opacity="1" /><path clip-path="url(#clip170)" d="M597.828 794.468 L597.828 808.218 L593.545 808.218 L593.545 772.431 L597.828 772.431 L597.828 776.366 Q599.17 774.051 601.207 772.94 Q603.268 771.806 606.115 771.806 Q610.837 771.806 613.777 775.556 Q616.74 779.306 616.74 785.417 Q616.74 791.528 613.777 795.278 Q610.837 799.028 606.115 799.028 Q603.268 799.028 601.207 797.917 Q599.17 796.782 597.828 794.468 M612.319 785.417 Q612.319 780.718 610.374 778.056 Q608.453 775.371 605.073 775.371 Q601.694 775.371 599.749 778.056 Q597.828 780.718 597.828 785.417 Q597.828 790.116 599.749 792.801 Q601.694 795.463 605.073 795.463 Q608.453 795.463 610.374 792.801 Q612.319 790.116 612.319 785.417 Z" fill="#000000" fill-rule="nonzero" fill-opacity="1" /><path clip-path="url(#clip170)" d="M635.582 785.324 Q630.42 785.324 628.43 786.505 Q626.439 787.685 626.439 790.532 Q626.439 792.801 627.92 794.144 Q629.425 795.463 631.994 795.463 Q635.536 795.463 637.666 792.963 Q639.818 790.44 639.818 786.273 L639.818 785.324 L635.582 785.324 M644.078 783.565 L644.078 798.356 L639.818 798.356 L639.818 794.421 Q638.36 796.782 636.184 797.917 Q634.008 799.028 630.86 799.028 Q626.879 799.028 624.518 796.806 Q622.18 794.56 622.18 790.81 Q622.18 786.435 625.096 784.213 Q628.036 781.991 633.846 781.991 L639.818 781.991 L639.818 781.574 Q639.818 778.634 637.874 777.037 Q635.953 775.417 632.457 775.417 Q630.235 775.417 628.129 775.949 Q626.022 776.482 624.078 777.546 L624.078 773.611 Q626.416 772.708 628.615 772.269 Q630.814 771.806 632.897 771.806 Q638.522 771.806 641.3 774.722 Q644.078 777.639 644.078 783.565 Z" fill="#000000" fill-rule="nonzero" fill-opacity="1" /><path clip-path="url(#clip170)" d="M667.874 776.412 Q667.156 775.996 666.3 775.81 Q665.466 775.602 664.448 775.602 Q660.837 775.602 658.892 777.963 Q656.971 780.301 656.971 784.699 L656.971 798.356 L652.689 798.356 L652.689 772.431 L656.971 772.431 L656.971 776.458 Q658.314 774.097 660.466 772.963 Q662.619 771.806 665.698 771.806 Q666.138 771.806 666.67 771.875 Q667.202 771.921 667.851 772.037 L667.874 776.412 Z" fill="#000000" fill-rule="nonzero" fill-opacity="1" /><path clip-path="url(#clip170)" d="M676.554 765.07 L676.554 772.431 L685.327 772.431 L685.327 775.741 L676.554 775.741 L676.554 789.815 Q676.554 792.986 677.411 793.889 Q678.29 794.792 680.952 794.792 L685.327 794.792 L685.327 798.356 L680.952 798.356 Q676.022 798.356 674.147 796.528 Q672.272 794.676 672.272 789.815 L672.272 775.741 L669.147 775.741 L669.147 772.431 L672.272 772.431 L672.272 765.07 L676.554 765.07 Z" fill="#000000" fill-rule="nonzero" fill-opacity="1" /><path clip-path="url(#clip170)" d="M690.929 772.431 L695.188 772.431 L695.188 798.356 L690.929 798.356 L690.929 772.431 M690.929 762.338 L695.188 762.338 L695.188 767.732 L690.929 767.732 L690.929 762.338 Z" fill="#000000" fill-rule="nonzero" fill-opacity="1" /><path clip-path="url(#clip170)" d="M722.758 773.426 L722.758 777.408 Q720.952 776.412 719.124 775.926 Q717.318 775.417 715.466 775.417 Q711.323 775.417 709.031 778.056 Q706.739 780.671 706.739 785.417 Q706.739 790.162 709.031 792.801 Q711.323 795.417 715.466 795.417 Q717.318 795.417 719.124 794.931 Q720.952 794.421 722.758 793.426 L722.758 797.361 Q720.975 798.194 719.054 798.611 Q717.156 799.028 715.003 799.028 Q709.147 799.028 705.698 795.347 Q702.249 791.667 702.249 785.417 Q702.249 779.074 705.721 775.44 Q709.216 771.806 715.281 771.806 Q717.249 771.806 719.124 772.222 Q720.999 772.616 722.758 773.426 Z" fill="#000000" fill-rule="nonzero" fill-opacity="1" /><path clip-path="url(#clip170)" d="M730.165 762.338 L734.424 762.338 L734.424 798.356 L730.165 798.356 L730.165 762.338 Z" fill="#000000" fill-rule="nonzero" fill-opacity="1" /><path clip-path="url(#clip170)" d="M765.512 784.329 L765.512 786.412 L745.929 786.412 Q746.207 790.81 748.568 793.125 Q750.952 795.417 755.188 795.417 Q757.642 795.417 759.933 794.815 Q762.248 794.213 764.517 793.009 L764.517 797.037 Q762.225 798.009 759.818 798.519 Q757.41 799.028 754.934 799.028 Q748.73 799.028 745.096 795.417 Q741.485 791.806 741.485 785.648 Q741.485 779.283 744.91 775.556 Q748.359 771.806 754.193 771.806 Q759.424 771.806 762.457 775.185 Q765.512 778.542 765.512 784.329 M761.253 783.079 Q761.207 779.583 759.285 777.5 Q757.387 775.417 754.239 775.417 Q750.674 775.417 748.522 777.431 Q746.392 779.445 746.068 783.102 L761.253 783.079 Z" fill="#000000" fill-rule="nonzero" fill-opacity="1" /><path clip-path="url(#clip170)" d="M804.632 776.366 L804.632 762.338 L808.892 762.338 L808.892 798.356 L804.632 798.356 L804.632 794.468 Q803.29 796.782 801.23 797.917 Q799.193 799.028 796.322 799.028 Q791.623 799.028 788.66 795.278 Q785.72 791.528 785.72 785.417 Q785.72 779.306 788.66 775.556 Q791.623 771.806 796.322 771.806 Q799.193 771.806 801.23 772.94 Q803.29 774.051 804.632 776.366 M790.119 785.417 Q790.119 790.116 792.04 792.801 Q793.984 795.463 797.364 795.463 Q800.743 795.463 802.688 792.801 Q804.632 790.116 804.632 785.417 Q804.632 780.718 802.688 778.056 Q800.743 775.371 797.364 775.371 Q793.984 775.371 792.04 778.056 Q790.119 780.718 790.119 785.417 Z" fill="#000000" fill-rule="nonzero" fill-opacity="1" /><path clip-path="url(#clip170)" d="M817.665 772.431 L821.924 772.431 L821.924 798.356 L817.665 798.356 L817.665 772.431 M817.665 762.338 L821.924 762.338 L821.924 767.732 L817.665 767.732 L817.665 762.338 Z" fill="#000000" fill-rule="nonzero" fill-opacity="1" /><path clip-path="url(#clip170)" d="M842.618 785.324 Q837.456 785.324 835.465 786.505 Q833.475 787.685 833.475 790.532 Q833.475 792.801 834.956 794.144 Q836.461 795.463 839.03 795.463 Q842.572 795.463 844.702 792.963 Q846.854 790.44 846.854 786.273 L846.854 785.324 L842.618 785.324 M851.114 783.565 L851.114 798.356 L846.854 798.356 L846.854 794.421 Q845.396 796.782 843.22 797.917 Q841.044 799.028 837.896 799.028 Q833.915 799.028 831.553 796.806 Q829.216 794.56 829.216 790.81 Q829.216 786.435 832.132 784.213 Q835.072 781.991 840.882 781.991 L846.854 781.991 L846.854 781.574 Q846.854 778.634 844.91 777.037 Q842.989 775.417 839.493 775.417 Q837.271 775.417 835.165 775.949 Q833.058 776.482 831.114 777.546 L831.114 773.611 Q833.452 772.708 835.651 772.269 Q837.85 771.806 839.933 771.806 Q845.558 771.806 848.336 774.722 Q851.114 777.639 851.114 783.565 Z" fill="#000000" fill-rule="nonzero" fill-opacity="1" /><path clip-path="url(#clip170)" d="M880.072 777.408 Q881.669 774.537 883.891 773.171 Q886.113 771.806 889.123 771.806 Q893.174 771.806 895.373 774.653 Q897.572 777.477 897.572 782.708 L897.572 798.356 L893.289 798.356 L893.289 782.847 Q893.289 779.12 891.97 777.315 Q890.65 775.509 887.942 775.509 Q884.632 775.509 882.711 777.708 Q880.789 779.908 880.789 783.704 L880.789 798.356 L876.507 798.356 L876.507 782.847 Q876.507 779.097 875.187 777.315 Q873.868 775.509 871.113 775.509 Q867.85 775.509 865.928 777.732 Q864.007 779.931 864.007 783.704 L864.007 798.356 L859.725 798.356 L859.725 772.431 L864.007 772.431 L864.007 776.458 Q865.465 774.074 867.502 772.94 Q869.539 771.806 872.34 771.806 Q875.164 771.806 877.132 773.241 Q879.123 774.676 880.072 777.408 Z" fill="#000000" fill-rule="nonzero" fill-opacity="1" /><path clip-path="url(#clip170)" d="M928.243 784.329 L928.243 786.412 L908.66 786.412 Q908.937 790.81 911.298 793.125 Q913.683 795.417 917.919 795.417 Q920.372 795.417 922.664 794.815 Q924.979 794.213 927.247 793.009 L927.247 797.037 Q924.956 798.009 922.548 798.519 Q920.141 799.028 917.664 799.028 Q911.46 799.028 907.826 795.417 Q904.215 791.806 904.215 785.648 Q904.215 779.283 907.641 775.556 Q911.09 771.806 916.923 771.806 Q922.155 771.806 925.187 775.185 Q928.243 778.542 928.243 784.329 M923.984 783.079 Q923.937 779.583 922.016 777.5 Q920.118 775.417 916.97 775.417 Q913.405 775.417 911.252 777.431 Q909.122 779.445 908.798 783.102 L923.984 783.079 Z" fill="#000000" fill-rule="nonzero" fill-opacity="1" /><path clip-path="url(#clip170)" d="M939.446 765.07 L939.446 772.431 L948.22 772.431 L948.22 775.741 L939.446 775.741 L939.446 789.815 Q939.446 792.986 940.303 793.889 Q941.183 794.792 943.845 794.792 L948.22 794.792 L948.22 798.356 L943.845 798.356 Q938.914 798.356 937.039 796.528 Q935.164 794.676 935.164 789.815 L935.164 775.741 L932.039 775.741 L932.039 772.431 L935.164 772.431 L935.164 765.07 L939.446 765.07 Z" fill="#000000" fill-rule="nonzero" fill-opacity="1" /><path clip-path="url(#clip170)" d="M975.997 784.329 L975.997 786.412 L956.414 786.412 Q956.692 790.81 959.053 793.125 Q961.437 795.417 965.673 795.417 Q968.127 795.417 970.418 794.815 Q972.733 794.213 975.002 793.009 L975.002 797.037 Q972.71 798.009 970.303 798.519 Q967.895 799.028 965.418 799.028 Q959.215 799.028 955.581 795.417 Q951.969 791.806 951.969 785.648 Q951.969 779.283 955.395 775.556 Q958.844 771.806 964.678 771.806 Q969.909 771.806 972.942 775.185 Q975.997 778.542 975.997 784.329 M971.738 783.079 Q971.692 779.583 969.77 777.5 Q967.872 775.417 964.724 775.417 Q961.159 775.417 959.006 777.431 Q956.877 779.445 956.553 783.102 L971.738 783.079 Z" fill="#000000" fill-rule="nonzero" fill-opacity="1" /><path clip-path="url(#clip170)" d="M998.011 776.412 Q997.293 775.996 996.437 775.81 Q995.604 775.602 994.585 775.602 Q990.974 775.602 989.029 777.963 Q987.108 780.301 987.108 784.699 L987.108 798.356 L982.826 798.356 L982.826 772.431 L987.108 772.431 L987.108 776.458 Q988.451 774.097 990.604 772.963 Q992.756 771.806 995.835 771.806 Q996.275 771.806 996.807 771.875 Q997.34 771.921 997.988 772.037 L998.011 776.412 Z" fill="#000000" fill-rule="nonzero" fill-opacity="1" /><polyline clip-path="url(#clip170)" style="stroke:#e72989; stroke-linecap:round; stroke-linejoin:round; stroke-width:8; stroke-opacity:1; fill:none" points="343.018,832.916 483.232,832.916 "/>
<path clip-path="url(#clip170)" d="M518.453 833.785 Q515.12 833.785 513.199 835.567 Q511.301 837.349 511.301 840.474 Q511.301 843.599 513.199 845.382 Q515.12 847.164 518.453 847.164 Q521.787 847.164 523.708 845.382 Q525.629 843.576 525.629 840.474 Q525.629 837.349 523.708 835.567 Q521.81 833.785 518.453 833.785 M513.777 831.794 Q510.768 831.053 509.078 828.993 Q507.412 826.933 507.412 823.97 Q507.412 819.826 510.351 817.419 Q513.314 815.011 518.453 815.011 Q523.615 815.011 526.555 817.419 Q529.495 819.826 529.495 823.97 Q529.495 826.933 527.805 828.993 Q526.138 831.053 523.152 831.794 Q526.532 832.581 528.407 834.873 Q530.305 837.164 530.305 840.474 Q530.305 845.497 527.226 848.183 Q524.171 850.868 518.453 850.868 Q512.736 850.868 509.657 848.183 Q506.602 845.497 506.602 840.474 Q506.602 837.164 508.5 834.873 Q510.398 832.581 513.777 831.794 M512.064 824.41 Q512.064 827.095 513.731 828.599 Q515.421 830.104 518.453 830.104 Q521.463 830.104 523.152 828.599 Q524.865 827.095 524.865 824.41 Q524.865 821.724 523.152 820.22 Q521.463 818.715 518.453 818.715 Q515.421 818.715 513.731 820.22 Q512.064 821.724 512.064 824.41 Z" fill="#000000" fill-rule="nonzero" fill-opacity="1" /><path clip-path="url(#clip170)" d="M566.786 824.734 L556.208 835.359 L566.786 845.937 L564.032 848.738 L553.407 838.113 L542.782 848.738 L540.05 845.937 L550.606 835.359 L540.05 824.734 L542.782 821.933 L553.407 832.558 L564.032 821.933 L566.786 824.734 Z" fill="#000000" fill-rule="nonzero" fill-opacity="1" /><path clip-path="url(#clip170)" d="M596.925 846.308 L596.925 860.058 L592.643 860.058 L592.643 824.271 L596.925 824.271 L596.925 828.206 Q598.268 825.891 600.305 824.78 Q602.365 823.646 605.212 823.646 Q609.934 823.646 612.874 827.396 Q615.837 831.146 615.837 837.257 Q615.837 843.368 612.874 847.118 Q609.934 850.868 605.212 850.868 Q602.365 850.868 600.305 849.757 Q598.268 848.622 596.925 846.308 M611.416 837.257 Q611.416 832.558 609.471 829.896 Q607.55 827.211 604.17 827.211 Q600.791 827.211 598.846 829.896 Q596.925 832.558 596.925 837.257 Q596.925 841.956 598.846 844.641 Q600.791 847.303 604.17 847.303 Q607.55 847.303 609.471 844.641 Q611.416 841.956 611.416 837.257 Z" fill="#000000" fill-rule="nonzero" fill-opacity="1" /><path clip-path="url(#clip170)" d="M634.68 837.164 Q629.518 837.164 627.527 838.345 Q625.536 839.525 625.536 842.372 Q625.536 844.641 627.018 845.984 Q628.522 847.303 631.092 847.303 Q634.633 847.303 636.763 844.803 Q638.916 842.28 638.916 838.113 L638.916 837.164 L634.68 837.164 M643.175 835.405 L643.175 850.196 L638.916 850.196 L638.916 846.261 Q637.457 848.622 635.281 849.757 Q633.105 850.868 629.957 850.868 Q625.976 850.868 623.615 848.646 Q621.277 846.4 621.277 842.65 Q621.277 838.275 624.193 836.053 Q627.133 833.831 632.943 833.831 L638.916 833.831 L638.916 833.414 Q638.916 830.474 636.971 828.877 Q635.05 827.257 631.555 827.257 Q629.332 827.257 627.226 827.789 Q625.119 828.322 623.175 829.386 L623.175 825.451 Q625.513 824.548 627.712 824.109 Q629.911 823.646 631.994 823.646 Q637.619 823.646 640.397 826.562 Q643.175 829.479 643.175 835.405 Z" fill="#000000" fill-rule="nonzero" fill-opacity="1" /><path clip-path="url(#clip170)" d="M666.971 828.252 Q666.253 827.836 665.397 827.65 Q664.564 827.442 663.545 827.442 Q659.934 827.442 657.99 829.803 Q656.068 832.141 656.068 836.539 L656.068 850.196 L651.786 850.196 L651.786 824.271 L656.068 824.271 L656.068 828.298 Q657.411 825.937 659.564 824.803 Q661.716 823.646 664.795 823.646 Q665.235 823.646 665.767 823.715 Q666.3 823.761 666.948 823.877 L666.971 828.252 Z" fill="#000000" fill-rule="nonzero" fill-opacity="1" /><path clip-path="url(#clip170)" d="M675.652 816.91 L675.652 824.271 L684.425 824.271 L684.425 827.581 L675.652 827.581 L675.652 841.655 Q675.652 844.826 676.508 845.729 Q677.388 846.632 680.05 846.632 L684.425 846.632 L684.425 850.196 L680.05 850.196 Q675.119 850.196 673.244 848.368 Q671.369 846.516 671.369 841.655 L671.369 827.581 L668.244 827.581 L668.244 824.271 L671.369 824.271 L671.369 816.91 L675.652 816.91 Z" fill="#000000" fill-rule="nonzero" fill-opacity="1" /><path clip-path="url(#clip170)" d="M690.026 824.271 L694.286 824.271 L694.286 850.196 L690.026 850.196 L690.026 824.271 M690.026 814.178 L694.286 814.178 L694.286 819.572 L690.026 819.572 L690.026 814.178 Z" fill="#000000" fill-rule="nonzero" fill-opacity="1" /><path clip-path="url(#clip170)" d="M721.855 825.266 L721.855 829.248 Q720.049 828.252 718.221 827.766 Q716.415 827.257 714.563 827.257 Q710.42 827.257 708.128 829.896 Q705.837 832.511 705.837 837.257 Q705.837 842.002 708.128 844.641 Q710.42 847.257 714.563 847.257 Q716.415 847.257 718.221 846.771 Q720.049 846.261 721.855 845.266 L721.855 849.201 Q720.073 850.034 718.151 850.451 Q716.253 850.868 714.1 850.868 Q708.244 850.868 704.795 847.187 Q701.346 843.507 701.346 837.257 Q701.346 830.914 704.818 827.28 Q708.313 823.646 714.378 823.646 Q716.346 823.646 718.221 824.062 Q720.096 824.456 721.855 825.266 Z" fill="#000000" fill-rule="nonzero" fill-opacity="1" /><path clip-path="url(#clip170)" d="M729.262 814.178 L733.522 814.178 L733.522 850.196 L729.262 850.196 L729.262 814.178 Z" fill="#000000" fill-rule="nonzero" fill-opacity="1" /><path clip-path="url(#clip170)" d="M764.609 836.169 L764.609 838.252 L745.026 838.252 Q745.304 842.65 747.665 844.965 Q750.049 847.257 754.285 847.257 Q756.739 847.257 759.031 846.655 Q761.346 846.053 763.614 844.849 L763.614 848.877 Q761.322 849.849 758.915 850.359 Q756.508 850.868 754.031 850.868 Q747.827 850.868 744.193 847.257 Q740.582 843.646 740.582 837.488 Q740.582 831.123 744.008 827.396 Q747.457 823.646 753.29 823.646 Q758.521 823.646 761.554 827.025 Q764.609 830.382 764.609 836.169 M760.35 834.919 Q760.304 831.423 758.383 829.34 Q756.484 827.257 753.336 827.257 Q749.771 827.257 747.619 829.271 Q745.489 831.285 745.165 834.942 L760.35 834.919 Z" fill="#000000" fill-rule="nonzero" fill-opacity="1" /><path clip-path="url(#clip170)" d="M803.73 828.206 L803.73 814.178 L807.989 814.178 L807.989 850.196 L803.73 850.196 L803.73 846.308 Q802.387 848.622 800.327 849.757 Q798.29 850.868 795.419 850.868 Q790.72 850.868 787.757 847.118 Q784.818 843.368 784.818 837.257 Q784.818 831.146 787.757 827.396 Q790.72 823.646 795.419 823.646 Q798.29 823.646 800.327 824.78 Q802.387 825.891 803.73 828.206 M789.216 837.257 Q789.216 841.956 791.137 844.641 Q793.081 847.303 796.461 847.303 Q799.841 847.303 801.785 844.641 Q803.73 841.956 803.73 837.257 Q803.73 832.558 801.785 829.896 Q799.841 827.211 796.461 827.211 Q793.081 827.211 791.137 829.896 Q789.216 832.558 789.216 837.257 Z" fill="#000000" fill-rule="nonzero" fill-opacity="1" /><path clip-path="url(#clip170)" d="M816.762 824.271 L821.021 824.271 L821.021 850.196 L816.762 850.196 L816.762 824.271 M816.762 814.178 L821.021 814.178 L821.021 819.572 L816.762 819.572 L816.762 814.178 Z" fill="#000000" fill-rule="nonzero" fill-opacity="1" /><path clip-path="url(#clip170)" d="M841.715 837.164 Q836.553 837.164 834.563 838.345 Q832.572 839.525 832.572 842.372 Q832.572 844.641 834.053 845.984 Q835.558 847.303 838.128 847.303 Q841.669 847.303 843.799 844.803 Q845.952 842.28 845.952 838.113 L845.952 837.164 L841.715 837.164 M850.211 835.405 L850.211 850.196 L845.952 850.196 L845.952 846.261 Q844.493 848.622 842.317 849.757 Q840.141 850.868 836.993 850.868 Q833.012 850.868 830.651 848.646 Q828.313 846.4 828.313 842.65 Q828.313 838.275 831.229 836.053 Q834.169 833.831 839.979 833.831 L845.952 833.831 L845.952 833.414 Q845.952 830.474 844.007 828.877 Q842.086 827.257 838.59 827.257 Q836.368 827.257 834.262 827.789 Q832.155 828.322 830.211 829.386 L830.211 825.451 Q832.549 824.548 834.748 824.109 Q836.947 823.646 839.03 823.646 Q844.655 823.646 847.433 826.562 Q850.211 829.479 850.211 835.405 Z" fill="#000000" fill-rule="nonzero" fill-opacity="1" /><path clip-path="url(#clip170)" d="M879.169 829.248 Q880.766 826.377 882.988 825.011 Q885.211 823.646 888.22 823.646 Q892.271 823.646 894.47 826.493 Q896.669 829.317 896.669 834.548 L896.669 850.196 L892.386 850.196 L892.386 834.687 Q892.386 830.96 891.067 829.155 Q889.748 827.349 887.039 827.349 Q883.729 827.349 881.808 829.548 Q879.887 831.748 879.887 835.544 L879.887 850.196 L875.604 850.196 L875.604 834.687 Q875.604 830.937 874.285 829.155 Q872.965 827.349 870.211 827.349 Q866.947 827.349 865.026 829.572 Q863.104 831.771 863.104 835.544 L863.104 850.196 L858.822 850.196 L858.822 824.271 L863.104 824.271 L863.104 828.298 Q864.563 825.914 866.6 824.78 Q868.637 823.646 871.438 823.646 Q874.262 823.646 876.229 825.081 Q878.22 826.516 879.169 829.248 Z" fill="#000000" fill-rule="nonzero" fill-opacity="1" /><path clip-path="url(#clip170)" d="M927.34 836.169 L927.34 838.252 L907.757 838.252 Q908.035 842.65 910.396 844.965 Q912.78 847.257 917.016 847.257 Q919.47 847.257 921.761 846.655 Q924.076 846.053 926.345 844.849 L926.345 848.877 Q924.053 849.849 921.646 850.359 Q919.238 850.868 916.761 850.868 Q910.558 850.868 906.923 847.257 Q903.312 843.646 903.312 837.488 Q903.312 831.123 906.738 827.396 Q910.187 823.646 916.021 823.646 Q921.252 823.646 924.284 827.025 Q927.34 830.382 927.34 836.169 M923.081 834.919 Q923.034 831.423 921.113 829.34 Q919.215 827.257 916.067 827.257 Q912.502 827.257 910.349 829.271 Q908.22 831.285 907.896 834.942 L923.081 834.919 Z" fill="#000000" fill-rule="nonzero" fill-opacity="1" /><path clip-path="url(#clip170)" d="M938.544 816.91 L938.544 824.271 L947.317 824.271 L947.317 827.581 L938.544 827.581 L938.544 841.655 Q938.544 844.826 939.4 845.729 Q940.28 846.632 942.942 846.632 L947.317 846.632 L947.317 850.196 L942.942 850.196 Q938.011 850.196 936.136 848.368 Q934.261 846.516 934.261 841.655 L934.261 827.581 L931.136 827.581 L931.136 824.271 L934.261 824.271 L934.261 816.91 L938.544 816.91 Z" fill="#000000" fill-rule="nonzero" fill-opacity="1" /><path clip-path="url(#clip170)" d="M975.094 836.169 L975.094 838.252 L955.511 838.252 Q955.789 842.65 958.15 844.965 Q960.534 847.257 964.77 847.257 Q967.224 847.257 969.516 846.655 Q971.83 846.053 974.099 844.849 L974.099 848.877 Q971.807 849.849 969.4 850.359 Q966.993 850.868 964.516 850.868 Q958.312 850.868 954.678 847.257 Q951.067 843.646 951.067 837.488 Q951.067 831.123 954.493 827.396 Q957.942 823.646 963.775 823.646 Q969.006 823.646 972.039 827.025 Q975.094 830.382 975.094 836.169 M970.835 834.919 Q970.789 831.423 968.868 829.34 Q966.969 827.257 963.821 827.257 Q960.256 827.257 958.104 829.271 Q955.974 831.285 955.65 834.942 L970.835 834.919 Z" fill="#000000" fill-rule="nonzero" fill-opacity="1" /><path clip-path="url(#clip170)" d="M997.108 828.252 Q996.391 827.836 995.534 827.65 Q994.701 827.442 993.682 827.442 Q990.071 827.442 988.127 829.803 Q986.205 832.141 986.205 836.539 L986.205 850.196 L981.923 850.196 L981.923 824.271 L986.205 824.271 L986.205 828.298 Q987.548 825.937 989.701 824.803 Q991.854 823.646 994.932 823.646 Q995.372 823.646 995.904 823.715 Q996.437 823.761 997.085 823.877 L997.108 828.252 Z" fill="#000000" fill-rule="nonzero" fill-opacity="1" /></svg>
