<?xml version="1.0" encoding="utf-8"?>
<svg xmlns="http://www.w3.org/2000/svg" xmlns:xlink="http://www.w3.org/1999/xlink" width="600" height="400" viewBox="0 0 2400 1600">
<defs>
  <clipPath id="clip810">
    <rect x="0" y="0" width="2400" height="1600"/>
  </clipPath>
</defs>
<path clip-path="url(#clip810)" d="M0 1600 L2400 1600 L2400 0 L0 0  Z" fill="#ffffff" fill-rule="evenodd" fill-opacity="1"/>
<defs>
  <clipPath id="clip811">
    <rect x="480" y="0" width="1681" height="1600"/>
  </clipPath>
</defs>
<path clip-path="url(#clip810)" d="M249.542 1423.18 L2352.76 1423.18 L2352.76 47.2441 L249.542 47.2441  Z" fill="#ffffff" fill-rule="evenodd" fill-opacity="1"/>
<defs>
  <clipPath id="clip812">
    <rect x="249" y="47" width="2104" height="1377"/>
  </clipPath>
</defs>
<polyline clip-path="url(#clip812)" style="stroke:#000000; stroke-linecap:round; stroke-linejoin:round; stroke-width:2; stroke-opacity:0.1; fill:none" points="414.777,1423.18 414.777,47.2441 "/>
<polyline clip-path="url(#clip812)" style="stroke:#000000; stroke-linecap:round; stroke-linejoin:round; stroke-width:2; stroke-opacity:0.1; fill:none" points="758.695,1423.18 758.695,47.2441 "/>
<polyline clip-path="url(#clip812)" style="stroke:#000000; stroke-linecap:round; stroke-linejoin:round; stroke-width:2; stroke-opacity:0.1; fill:none" points="1102.61,1423.18 1102.61,47.2441 "/>
<polyline clip-path="url(#clip812)" style="stroke:#000000; stroke-linecap:round; stroke-linejoin:round; stroke-width:2; stroke-opacity:0.1; fill:none" points="1446.53,1423.18 1446.53,47.2441 "/>
<polyline clip-path="url(#clip812)" style="stroke:#000000; stroke-linecap:round; stroke-linejoin:round; stroke-width:2; stroke-opacity:0.1; fill:none" points="1790.45,1423.18 1790.45,47.2441 "/>
<polyline clip-path="url(#clip812)" style="stroke:#000000; stroke-linecap:round; stroke-linejoin:round; stroke-width:2; stroke-opacity:0.1; fill:none" points="2134.37,1423.18 2134.37,47.2441 "/>
<polyline clip-path="url(#clip810)" style="stroke:#000000; stroke-linecap:round; stroke-linejoin:round; stroke-width:4; stroke-opacity:1; fill:none" points="249.542,1423.18 2352.76,1423.18 "/>
<polyline clip-path="url(#clip810)" style="stroke:#000000; stroke-linecap:round; stroke-linejoin:round; stroke-width:4; stroke-opacity:1; fill:none" points="414.777,1423.18 414.777,1404.28 "/>
<polyline clip-path="url(#clip810)" style="stroke:#000000; stroke-linecap:round; stroke-linejoin:round; stroke-width:4; stroke-opacity:1; fill:none" points="758.695,1423.18 758.695,1404.28 "/>
<polyline clip-path="url(#clip810)" style="stroke:#000000; stroke-linecap:round; stroke-linejoin:round; stroke-width:4; stroke-opacity:1; fill:none" points="1102.61,1423.18 1102.61,1404.28 "/>
<polyline clip-path="url(#clip810)" style="stroke:#000000; stroke-linecap:round; stroke-linejoin:round; stroke-width:4; stroke-opacity:1; fill:none" points="1446.53,1423.18 1446.53,1404.28 "/>
<polyline clip-path="url(#clip810)" style="stroke:#000000; stroke-linecap:round; stroke-linejoin:round; stroke-width:4; stroke-opacity:1; fill:none" points="1790.45,1423.18 1790.45,1404.28 "/>
<polyline clip-path="url(#clip810)" style="stroke:#000000; stroke-linecap:round; stroke-linejoin:round; stroke-width:4; stroke-opacity:1; fill:none" points="2134.37,1423.18 2134.37,1404.28 "/>
<path clip-path="url(#clip810)" d="M366.849 1481.64 L374.488 1481.64 L374.488 1455.28 L366.178 1456.95 L366.178 1452.69 L374.442 1451.02 L379.118 1451.02 L379.118 1481.64 L386.757 1481.64 L386.757 1485.58 L366.849 1485.58 L366.849 1481.64 Z" fill="#000000" fill-rule="nonzero" fill-opacity="1" /><path clip-path="url(#clip810)" d="M409.048 1455.09 L397.243 1473.54 L409.048 1473.54 L409.048 1455.09 M407.821 1451.02 L413.701 1451.02 L413.701 1473.54 L418.631 1473.54 L418.631 1477.43 L413.701 1477.43 L413.701 1485.58 L409.048 1485.58 L409.048 1477.43 L393.446 1477.43 L393.446 1472.92 L407.821 1451.02 Z" fill="#000000" fill-rule="nonzero" fill-opacity="1" /><path clip-path="url(#clip810)" d="M426.363 1479.7 L431.247 1479.7 L431.247 1485.58 L426.363 1485.58 L426.363 1479.7 Z" fill="#000000" fill-rule="nonzero" fill-opacity="1" /><path clip-path="url(#clip810)" d="M451.432 1454.1 Q447.821 1454.1 445.992 1457.66 Q444.187 1461.2 444.187 1468.33 Q444.187 1475.44 445.992 1479.01 Q447.821 1482.55 451.432 1482.55 Q455.066 1482.55 456.872 1479.01 Q458.701 1475.44 458.701 1468.33 Q458.701 1461.2 456.872 1457.66 Q455.066 1454.1 451.432 1454.1 M451.432 1450.39 Q457.242 1450.39 460.298 1455 Q463.377 1459.58 463.377 1468.33 Q463.377 1477.06 460.298 1481.67 Q457.242 1486.25 451.432 1486.25 Q445.622 1486.25 442.543 1481.67 Q439.488 1477.06 439.488 1468.33 Q439.488 1459.58 442.543 1455 Q445.622 1450.39 451.432 1450.39 Z" fill="#000000" fill-rule="nonzero" fill-opacity="1" /><path clip-path="url(#clip810)" d="M711.265 1481.64 L718.904 1481.64 L718.904 1455.28 L710.593 1456.95 L710.593 1452.69 L718.857 1451.02 L723.533 1451.02 L723.533 1481.64 L731.172 1481.64 L731.172 1485.58 L711.265 1485.58 L711.265 1481.64 Z" fill="#000000" fill-rule="nonzero" fill-opacity="1" /><path clip-path="url(#clip810)" d="M753.464 1455.09 L741.658 1473.54 L753.464 1473.54 L753.464 1455.09 M752.237 1451.02 L758.116 1451.02 L758.116 1473.54 L763.047 1473.54 L763.047 1477.43 L758.116 1477.43 L758.116 1485.58 L753.464 1485.58 L753.464 1477.43 L737.862 1477.43 L737.862 1472.92 L752.237 1451.02 Z" fill="#000000" fill-rule="nonzero" fill-opacity="1" /><path clip-path="url(#clip810)" d="M770.778 1479.7 L775.663 1479.7 L775.663 1485.58 L770.778 1485.58 L770.778 1479.7 Z" fill="#000000" fill-rule="nonzero" fill-opacity="1" /><path clip-path="url(#clip810)" d="M785.894 1451.02 L804.25 1451.02 L804.25 1454.96 L790.176 1454.96 L790.176 1463.43 Q791.195 1463.08 792.213 1462.92 Q793.232 1462.73 794.25 1462.73 Q800.037 1462.73 803.417 1465.9 Q806.797 1469.08 806.797 1474.49 Q806.797 1480.07 803.324 1483.17 Q799.852 1486.25 793.533 1486.25 Q791.357 1486.25 789.088 1485.88 Q786.843 1485.51 784.436 1484.77 L784.436 1480.07 Q786.519 1481.2 788.741 1481.76 Q790.963 1482.32 793.44 1482.32 Q797.445 1482.32 799.783 1480.21 Q802.121 1478.1 802.121 1474.49 Q802.121 1470.88 799.783 1468.77 Q797.445 1466.67 793.44 1466.67 Q791.565 1466.67 789.69 1467.08 Q787.838 1467.5 785.894 1468.38 L785.894 1451.02 Z" fill="#000000" fill-rule="nonzero" fill-opacity="1" /><path clip-path="url(#clip810)" d="M1054.68 1481.64 L1062.32 1481.64 L1062.32 1455.28 L1054.01 1456.95 L1054.01 1452.69 L1062.28 1451.02 L1066.95 1451.02 L1066.95 1481.64 L1074.59 1481.64 L1074.59 1485.58 L1054.68 1485.58 L1054.68 1481.64 Z" fill="#000000" fill-rule="nonzero" fill-opacity="1" /><path clip-path="url(#clip810)" d="M1084.08 1451.02 L1102.44 1451.02 L1102.44 1454.96 L1088.37 1454.96 L1088.37 1463.43 Q1089.38 1463.08 1090.4 1462.92 Q1091.42 1462.73 1092.44 1462.73 Q1098.23 1462.73 1101.61 1465.9 Q1104.99 1469.08 1104.99 1474.49 Q1104.99 1480.07 1101.51 1483.17 Q1098.04 1486.25 1091.72 1486.25 Q1089.55 1486.25 1087.28 1485.88 Q1085.03 1485.51 1082.62 1484.77 L1082.62 1480.07 Q1084.71 1481.2 1086.93 1481.76 Q1089.15 1482.32 1091.63 1482.32 Q1095.63 1482.32 1097.97 1480.21 Q1100.31 1478.1 1100.31 1474.49 Q1100.31 1470.88 1097.97 1468.77 Q1095.63 1466.67 1091.63 1466.67 Q1089.75 1466.67 1087.88 1467.08 Q1086.03 1467.5 1084.08 1468.38 L1084.08 1451.02 Z" fill="#000000" fill-rule="nonzero" fill-opacity="1" /><path clip-path="url(#clip810)" d="M1114.2 1479.7 L1119.08 1479.7 L1119.08 1485.58 L1114.2 1485.58 L1114.2 1479.7 Z" fill="#000000" fill-rule="nonzero" fill-opacity="1" /><path clip-path="url(#clip810)" d="M1139.27 1454.1 Q1135.66 1454.1 1133.83 1457.66 Q1132.02 1461.2 1132.02 1468.33 Q1132.02 1475.44 1133.83 1479.01 Q1135.66 1482.55 1139.27 1482.55 Q1142.9 1482.55 1144.71 1479.01 Q1146.54 1475.44 1146.54 1468.33 Q1146.54 1461.2 1144.71 1457.66 Q1142.9 1454.1 1139.27 1454.1 M1139.27 1450.39 Q1145.08 1450.39 1148.13 1455 Q1151.21 1459.58 1151.21 1468.33 Q1151.21 1477.06 1148.13 1481.67 Q1145.08 1486.25 1139.27 1486.25 Q1133.46 1486.25 1130.38 1481.67 Q1127.32 1477.06 1127.32 1468.33 Q1127.32 1459.58 1130.38 1455 Q1133.46 1450.39 1139.27 1450.39 Z" fill="#000000" fill-rule="nonzero" fill-opacity="1" /><path clip-path="url(#clip810)" d="M1399.1 1481.64 L1406.74 1481.64 L1406.74 1455.28 L1398.43 1456.95 L1398.43 1452.69 L1406.69 1451.02 L1411.37 1451.02 L1411.37 1481.64 L1419.01 1481.64 L1419.01 1485.58 L1399.1 1485.58 L1399.1 1481.64 Z" fill="#000000" fill-rule="nonzero" fill-opacity="1" /><path clip-path="url(#clip810)" d="M1428.5 1451.02 L1446.85 1451.02 L1446.85 1454.96 L1432.78 1454.96 L1432.78 1463.43 Q1433.8 1463.08 1434.82 1462.92 Q1435.84 1462.73 1436.85 1462.73 Q1442.64 1462.73 1446.02 1465.9 Q1449.4 1469.08 1449.4 1474.49 Q1449.4 1480.07 1445.93 1483.17 Q1442.46 1486.25 1436.14 1486.25 Q1433.96 1486.25 1431.69 1485.88 Q1429.45 1485.51 1427.04 1484.77 L1427.04 1480.07 Q1429.12 1481.2 1431.35 1481.76 Q1433.57 1482.32 1436.04 1482.32 Q1440.05 1482.32 1442.39 1480.21 Q1444.73 1478.1 1444.73 1474.49 Q1444.73 1470.88 1442.39 1468.77 Q1440.05 1466.67 1436.04 1466.67 Q1434.17 1466.67 1432.29 1467.08 Q1430.44 1467.5 1428.5 1468.38 L1428.5 1451.02 Z" fill="#000000" fill-rule="nonzero" fill-opacity="1" /><path clip-path="url(#clip810)" d="M1458.61 1479.7 L1463.5 1479.7 L1463.5 1485.58 L1458.61 1485.58 L1458.61 1479.7 Z" fill="#000000" fill-rule="nonzero" fill-opacity="1" /><path clip-path="url(#clip810)" d="M1473.73 1451.02 L1492.09 1451.02 L1492.09 1454.96 L1478.01 1454.96 L1478.01 1463.43 Q1479.03 1463.08 1480.05 1462.92 Q1481.07 1462.73 1482.09 1462.73 Q1487.87 1462.73 1491.25 1465.9 Q1494.63 1469.08 1494.63 1474.49 Q1494.63 1480.07 1491.16 1483.17 Q1487.69 1486.25 1481.37 1486.25 Q1479.19 1486.25 1476.92 1485.88 Q1474.68 1485.51 1472.27 1484.77 L1472.27 1480.07 Q1474.35 1481.2 1476.58 1481.76 Q1478.8 1482.32 1481.28 1482.32 Q1485.28 1482.32 1487.62 1480.21 Q1489.96 1478.1 1489.96 1474.49 Q1489.96 1470.88 1487.62 1468.77 Q1485.28 1466.67 1481.28 1466.67 Q1479.4 1466.67 1477.53 1467.08 Q1475.67 1467.5 1473.73 1468.38 L1473.73 1451.02 Z" fill="#000000" fill-rule="nonzero" fill-opacity="1" /><path clip-path="url(#clip810)" d="M1742.52 1481.64 L1750.16 1481.64 L1750.16 1455.28 L1741.85 1456.95 L1741.85 1452.69 L1750.11 1451.02 L1754.79 1451.02 L1754.79 1481.64 L1762.43 1481.64 L1762.43 1485.58 L1742.52 1485.58 L1742.52 1481.64 Z" fill="#000000" fill-rule="nonzero" fill-opacity="1" /><path clip-path="url(#clip810)" d="M1782.45 1466.44 Q1779.3 1466.44 1777.45 1468.59 Q1775.62 1470.74 1775.62 1474.49 Q1775.62 1478.22 1777.45 1480.39 Q1779.3 1482.55 1782.45 1482.55 Q1785.6 1482.55 1787.43 1480.39 Q1789.28 1478.22 1789.28 1474.49 Q1789.28 1470.74 1787.43 1468.59 Q1785.6 1466.44 1782.45 1466.44 M1791.73 1451.78 L1791.73 1456.04 Q1789.97 1455.21 1788.17 1454.77 Q1786.39 1454.33 1784.63 1454.33 Q1780 1454.33 1777.54 1457.45 Q1775.11 1460.58 1774.77 1466.9 Q1776.13 1464.89 1778.19 1463.82 Q1780.25 1462.73 1782.73 1462.73 Q1787.94 1462.73 1790.95 1465.9 Q1793.98 1469.05 1793.98 1474.49 Q1793.98 1479.82 1790.83 1483.03 Q1787.68 1486.25 1782.45 1486.25 Q1776.46 1486.25 1773.28 1481.67 Q1770.11 1477.06 1770.11 1468.33 Q1770.11 1460.14 1774 1455.28 Q1777.89 1450.39 1784.44 1450.39 Q1786.2 1450.39 1787.98 1450.74 Q1789.79 1451.09 1791.73 1451.78 Z" fill="#000000" fill-rule="nonzero" fill-opacity="1" /><path clip-path="url(#clip810)" d="M1802.03 1479.7 L1806.92 1479.7 L1806.92 1485.58 L1802.03 1485.58 L1802.03 1479.7 Z" fill="#000000" fill-rule="nonzero" fill-opacity="1" /><path clip-path="url(#clip810)" d="M1827.1 1454.1 Q1823.49 1454.1 1821.66 1457.66 Q1819.86 1461.2 1819.86 1468.33 Q1819.86 1475.44 1821.66 1479.01 Q1823.49 1482.55 1827.1 1482.55 Q1830.74 1482.55 1832.54 1479.01 Q1834.37 1475.44 1834.37 1468.33 Q1834.37 1461.2 1832.54 1457.66 Q1830.74 1454.1 1827.1 1454.1 M1827.1 1450.39 Q1832.91 1450.39 1835.97 1455 Q1839.05 1459.58 1839.05 1468.33 Q1839.05 1477.06 1835.97 1481.67 Q1832.91 1486.25 1827.1 1486.25 Q1821.29 1486.25 1818.21 1481.67 Q1815.16 1477.06 1815.16 1468.33 Q1815.16 1459.58 1818.21 1455 Q1821.29 1450.39 1827.1 1450.39 Z" fill="#000000" fill-rule="nonzero" fill-opacity="1" /><path clip-path="url(#clip810)" d="M2086.94 1481.64 L2094.57 1481.64 L2094.57 1455.28 L2086.26 1456.95 L2086.26 1452.69 L2094.53 1451.02 L2099.2 1451.02 L2099.2 1481.64 L2106.84 1481.64 L2106.84 1485.58 L2086.94 1485.58 L2086.94 1481.64 Z" fill="#000000" fill-rule="nonzero" fill-opacity="1" /><path clip-path="url(#clip810)" d="M2126.87 1466.44 Q2123.72 1466.44 2121.87 1468.59 Q2120.04 1470.74 2120.04 1474.49 Q2120.04 1478.22 2121.87 1480.39 Q2123.72 1482.55 2126.87 1482.55 Q2130.01 1482.55 2131.84 1480.39 Q2133.69 1478.22 2133.69 1474.49 Q2133.69 1470.74 2131.84 1468.59 Q2130.01 1466.44 2126.87 1466.44 M2136.15 1451.78 L2136.15 1456.04 Q2134.39 1455.21 2132.58 1454.77 Q2130.8 1454.33 2129.04 1454.33 Q2124.41 1454.33 2121.96 1457.45 Q2119.53 1460.58 2119.18 1466.9 Q2120.55 1464.89 2122.61 1463.82 Q2124.67 1462.73 2127.14 1462.73 Q2132.35 1462.73 2135.36 1465.9 Q2138.39 1469.05 2138.39 1474.49 Q2138.39 1479.82 2135.25 1483.03 Q2132.1 1486.25 2126.87 1486.25 Q2120.87 1486.25 2117.7 1481.67 Q2114.53 1477.06 2114.53 1468.33 Q2114.53 1460.14 2118.42 1455.28 Q2122.31 1450.39 2128.86 1450.39 Q2130.62 1450.39 2132.4 1450.74 Q2134.2 1451.09 2136.15 1451.78 Z" fill="#000000" fill-rule="nonzero" fill-opacity="1" /><path clip-path="url(#clip810)" d="M2146.45 1479.7 L2151.33 1479.7 L2151.33 1485.58 L2146.45 1485.58 L2146.45 1479.7 Z" fill="#000000" fill-rule="nonzero" fill-opacity="1" /><path clip-path="url(#clip810)" d="M2161.57 1451.02 L2179.92 1451.02 L2179.92 1454.96 L2165.85 1454.96 L2165.85 1463.43 Q2166.87 1463.08 2167.88 1462.92 Q2168.9 1462.73 2169.92 1462.73 Q2175.71 1462.73 2179.09 1465.9 Q2182.47 1469.08 2182.47 1474.49 Q2182.47 1480.07 2179 1483.17 Q2175.52 1486.25 2169.2 1486.25 Q2167.03 1486.25 2164.76 1485.88 Q2162.51 1485.51 2160.11 1484.77 L2160.11 1480.07 Q2162.19 1481.2 2164.41 1481.76 Q2166.63 1482.32 2169.11 1482.32 Q2173.12 1482.32 2175.45 1480.21 Q2177.79 1478.1 2177.79 1474.49 Q2177.79 1470.88 2175.45 1468.77 Q2173.12 1466.67 2169.11 1466.67 Q2167.24 1466.67 2165.36 1467.08 Q2163.51 1467.5 2161.57 1468.38 L2161.57 1451.02 Z" fill="#000000" fill-rule="nonzero" fill-opacity="1" /><path clip-path="url(#clip810)" d="M1188.6 1522.27 L1188.6 1532.4 L1200.67 1532.4 L1200.67 1536.95 L1188.6 1536.95 L1188.6 1556.3 Q1188.6 1560.66 1189.78 1561.9 Q1190.99 1563.14 1194.65 1563.14 L1200.67 1563.14 L1200.67 1568.04 L1194.65 1568.04 Q1187.87 1568.04 1185.29 1565.53 Q1182.71 1562.98 1182.71 1556.3 L1182.71 1536.95 L1178.42 1536.95 L1178.42 1532.4 L1182.71 1532.4 L1182.71 1522.27 L1188.6 1522.27 Z" fill="#000000" fill-rule="nonzero" fill-opacity="1" /><path clip-path="url(#clip810)" d="M1208.37 1532.4 L1214.23 1532.4 L1214.23 1568.04 L1208.37 1568.04 L1208.37 1532.4 M1208.37 1518.52 L1214.23 1518.52 L1214.23 1525.93 L1208.37 1525.93 L1208.37 1518.52 Z" fill="#000000" fill-rule="nonzero" fill-opacity="1" /><path clip-path="url(#clip810)" d="M1254.23 1539.24 Q1256.43 1535.29 1259.49 1533.41 Q1262.54 1531.54 1266.68 1531.54 Q1272.25 1531.54 1275.27 1535.45 Q1278.3 1539.33 1278.3 1546.53 L1278.3 1568.04 L1272.41 1568.04 L1272.41 1546.72 Q1272.41 1541.59 1270.59 1539.11 Q1268.78 1536.63 1265.06 1536.63 Q1260.5 1536.63 1257.86 1539.65 Q1255.22 1542.68 1255.22 1547.9 L1255.22 1568.04 L1249.33 1568.04 L1249.33 1546.72 Q1249.33 1541.56 1247.52 1539.11 Q1245.7 1536.63 1241.92 1536.63 Q1237.43 1536.63 1234.79 1539.68 Q1232.14 1542.71 1232.14 1547.9 L1232.14 1568.04 L1226.26 1568.04 L1226.26 1532.4 L1232.14 1532.4 L1232.14 1537.93 Q1234.15 1534.66 1236.95 1533.1 Q1239.75 1531.54 1243.6 1531.54 Q1247.49 1531.54 1250.19 1533.51 Q1252.93 1535.48 1254.23 1539.24 Z" fill="#000000" fill-rule="nonzero" fill-opacity="1" /><path clip-path="url(#clip810)" d="M1320.47 1548.76 L1320.47 1551.62 L1293.54 1551.62 Q1293.92 1557.67 1297.17 1560.85 Q1300.45 1564 1306.27 1564 Q1309.65 1564 1312.8 1563.17 Q1315.98 1562.35 1319.1 1560.69 L1319.1 1566.23 Q1315.95 1567.57 1312.64 1568.27 Q1309.33 1568.97 1305.92 1568.97 Q1297.39 1568.97 1292.4 1564 Q1287.43 1559.04 1287.43 1550.57 Q1287.43 1541.82 1292.14 1536.69 Q1296.88 1531.54 1304.9 1531.54 Q1312.1 1531.54 1316.27 1536.18 Q1320.47 1540.8 1320.47 1548.76 M1314.61 1547.04 Q1314.55 1542.23 1311.91 1539.37 Q1309.3 1536.5 1304.97 1536.5 Q1300.07 1536.5 1297.11 1539.27 Q1294.18 1542.04 1293.73 1547.07 L1314.61 1547.04 Z" fill="#000000" fill-rule="nonzero" fill-opacity="1" /><path clip-path="url(#clip810)" d="M1364.87 1518.58 Q1360.6 1525.9 1358.54 1533.06 Q1356.47 1540.23 1356.47 1547.58 Q1356.47 1554.93 1358.54 1562.16 Q1360.64 1569.35 1364.87 1576.64 L1359.78 1576.64 Q1355 1569.16 1352.62 1561.93 Q1350.26 1554.71 1350.26 1547.58 Q1350.26 1540.48 1352.62 1533.29 Q1354.97 1526.09 1359.78 1518.58 L1364.87 1518.58 Z" fill="#000000" fill-rule="nonzero" fill-opacity="1" /><path clip-path="url(#clip810)" d="M1398.96 1533.45 L1398.96 1538.98 Q1396.48 1537.71 1393.8 1537.07 Q1391.13 1536.44 1388.26 1536.44 Q1383.9 1536.44 1381.71 1537.77 Q1379.54 1539.11 1379.54 1541.79 Q1379.54 1543.82 1381.1 1545 Q1382.66 1546.15 1387.37 1547.2 L1389.38 1547.64 Q1395.62 1548.98 1398.23 1551.43 Q1400.87 1553.85 1400.87 1558.21 Q1400.87 1563.17 1396.92 1566.07 Q1393.01 1568.97 1386.13 1568.97 Q1383.27 1568.97 1380.15 1568.39 Q1377.06 1567.85 1373.62 1566.74 L1373.62 1560.69 Q1376.87 1562.38 1380.02 1563.24 Q1383.17 1564.07 1386.26 1564.07 Q1390.4 1564.07 1392.62 1562.66 Q1394.85 1561.23 1394.85 1558.65 Q1394.85 1556.27 1393.23 1554.99 Q1391.64 1553.72 1386.19 1552.54 L1384.16 1552.07 Q1378.72 1550.92 1376.3 1548.56 Q1373.88 1546.18 1373.88 1542.04 Q1373.88 1537.01 1377.44 1534.27 Q1381.01 1531.54 1387.56 1531.54 Q1390.81 1531.54 1393.67 1532.01 Q1396.54 1532.49 1398.96 1533.45 Z" fill="#000000" fill-rule="nonzero" fill-opacity="1" /><path clip-path="url(#clip810)" d="M1409.27 1518.58 L1414.36 1518.58 Q1419.14 1526.09 1421.49 1533.29 Q1423.88 1540.48 1423.88 1547.58 Q1423.88 1554.71 1421.49 1561.93 Q1419.14 1569.16 1414.36 1576.64 L1409.27 1576.64 Q1413.5 1569.35 1415.57 1562.16 Q1417.67 1554.93 1417.67 1547.58 Q1417.67 1540.23 1415.57 1533.06 Q1413.5 1525.9 1409.27 1518.58 Z" fill="#000000" fill-rule="nonzero" fill-opacity="1" /><polyline clip-path="url(#clip812)" style="stroke:#000000; stroke-linecap:round; stroke-linejoin:round; stroke-width:2; stroke-opacity:0.1; fill:none" points="249.542,1384.24 2352.76,1384.24 "/>
<polyline clip-path="url(#clip812)" style="stroke:#000000; stroke-linecap:round; stroke-linejoin:round; stroke-width:2; stroke-opacity:0.1; fill:none" points="249.542,1078.67 2352.76,1078.67 "/>
<polyline clip-path="url(#clip812)" style="stroke:#000000; stroke-linecap:round; stroke-linejoin:round; stroke-width:2; stroke-opacity:0.1; fill:none" points="249.542,773.102 2352.76,773.102 "/>
<polyline clip-path="url(#clip812)" style="stroke:#000000; stroke-linecap:round; stroke-linejoin:round; stroke-width:2; stroke-opacity:0.1; fill:none" points="249.542,467.534 2352.76,467.534 "/>
<polyline clip-path="url(#clip812)" style="stroke:#000000; stroke-linecap:round; stroke-linejoin:round; stroke-width:2; stroke-opacity:0.1; fill:none" points="249.542,161.967 2352.76,161.967 "/>
<polyline clip-path="url(#clip810)" style="stroke:#000000; stroke-linecap:round; stroke-linejoin:round; stroke-width:4; stroke-opacity:1; fill:none" points="249.542,1423.18 249.542,47.2441 "/>
<polyline clip-path="url(#clip810)" style="stroke:#000000; stroke-linecap:round; stroke-linejoin:round; stroke-width:4; stroke-opacity:1; fill:none" points="249.542,1384.24 268.44,1384.24 "/>
<polyline clip-path="url(#clip810)" style="stroke:#000000; stroke-linecap:round; stroke-linejoin:round; stroke-width:4; stroke-opacity:1; fill:none" points="249.542,1078.67 268.44,1078.67 "/>
<polyline clip-path="url(#clip810)" style="stroke:#000000; stroke-linecap:round; stroke-linejoin:round; stroke-width:4; stroke-opacity:1; fill:none" points="249.542,773.102 268.44,773.102 "/>
<polyline clip-path="url(#clip810)" style="stroke:#000000; stroke-linecap:round; stroke-linejoin:round; stroke-width:4; stroke-opacity:1; fill:none" points="249.542,467.534 268.44,467.534 "/>
<polyline clip-path="url(#clip810)" style="stroke:#000000; stroke-linecap:round; stroke-linejoin:round; stroke-width:4; stroke-opacity:1; fill:none" points="249.542,161.967 268.44,161.967 "/>
<path clip-path="url(#clip810)" d="M126.205 1370.04 Q122.593 1370.04 120.765 1373.6 Q118.959 1377.14 118.959 1384.27 Q118.959 1391.38 120.765 1394.94 Q122.593 1398.49 126.205 1398.49 Q129.839 1398.49 131.644 1394.94 Q133.473 1391.38 133.473 1384.27 Q133.473 1377.14 131.644 1373.6 Q129.839 1370.04 126.205 1370.04 M126.205 1366.33 Q132.015 1366.33 135.07 1370.94 Q138.149 1375.52 138.149 1384.27 Q138.149 1393 135.07 1397.61 Q132.015 1402.19 126.205 1402.19 Q120.394 1402.19 117.316 1397.61 Q114.26 1393 114.26 1384.27 Q114.26 1375.52 117.316 1370.94 Q120.394 1366.33 126.205 1366.33 Z" fill="#000000" fill-rule="nonzero" fill-opacity="1" /><path clip-path="url(#clip810)" d="M146.366 1395.64 L151.251 1395.64 L151.251 1401.52 L146.366 1401.52 L146.366 1395.64 Z" fill="#000000" fill-rule="nonzero" fill-opacity="1" /><path clip-path="url(#clip810)" d="M171.436 1370.04 Q167.825 1370.04 165.996 1373.6 Q164.19 1377.14 164.19 1384.27 Q164.19 1391.38 165.996 1394.94 Q167.825 1398.49 171.436 1398.49 Q175.07 1398.49 176.876 1394.94 Q178.704 1391.38 178.704 1384.27 Q178.704 1377.14 176.876 1373.6 Q175.07 1370.04 171.436 1370.04 M171.436 1366.33 Q177.246 1366.33 180.301 1370.94 Q183.38 1375.52 183.38 1384.27 Q183.38 1393 180.301 1397.61 Q177.246 1402.19 171.436 1402.19 Q165.626 1402.19 162.547 1397.61 Q159.491 1393 159.491 1384.27 Q159.491 1375.52 162.547 1370.94 Q165.626 1366.33 171.436 1366.33 Z" fill="#000000" fill-rule="nonzero" fill-opacity="1" /><path clip-path="url(#clip810)" d="M201.598 1370.04 Q197.987 1370.04 196.158 1373.6 Q194.352 1377.14 194.352 1384.27 Q194.352 1391.38 196.158 1394.94 Q197.987 1398.49 201.598 1398.49 Q205.232 1398.49 207.037 1394.94 Q208.866 1391.38 208.866 1384.27 Q208.866 1377.14 207.037 1373.6 Q205.232 1370.04 201.598 1370.04 M201.598 1366.33 Q207.408 1366.33 210.463 1370.94 Q213.542 1375.52 213.542 1384.27 Q213.542 1393 210.463 1397.61 Q207.408 1402.19 201.598 1402.19 Q195.787 1402.19 192.709 1397.61 Q189.653 1393 189.653 1384.27 Q189.653 1375.52 192.709 1370.94 Q195.787 1366.33 201.598 1366.33 Z" fill="#000000" fill-rule="nonzero" fill-opacity="1" /><path clip-path="url(#clip810)" d="M127.2 1064.47 Q123.589 1064.47 121.76 1068.03 Q119.955 1071.58 119.955 1078.71 Q119.955 1085.81 121.76 1089.38 Q123.589 1092.92 127.2 1092.92 Q130.834 1092.92 132.64 1089.38 Q134.468 1085.81 134.468 1078.71 Q134.468 1071.58 132.64 1068.03 Q130.834 1064.47 127.2 1064.47 M127.2 1060.77 Q133.01 1060.77 136.066 1065.37 Q139.144 1069.96 139.144 1078.71 Q139.144 1087.43 136.066 1092.04 Q133.01 1096.62 127.2 1096.62 Q121.39 1096.62 118.311 1092.04 Q115.256 1087.43 115.256 1078.71 Q115.256 1069.96 118.311 1065.37 Q121.39 1060.77 127.2 1060.77 Z" fill="#000000" fill-rule="nonzero" fill-opacity="1" /><path clip-path="url(#clip810)" d="M147.362 1090.07 L152.246 1090.07 L152.246 1095.95 L147.362 1095.95 L147.362 1090.07 Z" fill="#000000" fill-rule="nonzero" fill-opacity="1" /><path clip-path="url(#clip810)" d="M172.431 1064.47 Q168.82 1064.47 166.991 1068.03 Q165.186 1071.58 165.186 1078.71 Q165.186 1085.81 166.991 1089.38 Q168.82 1092.92 172.431 1092.92 Q176.065 1092.92 177.871 1089.38 Q179.7 1085.81 179.7 1078.71 Q179.7 1071.58 177.871 1068.03 Q176.065 1064.47 172.431 1064.47 M172.431 1060.77 Q178.241 1060.77 181.297 1065.37 Q184.376 1069.96 184.376 1078.71 Q184.376 1087.43 181.297 1092.04 Q178.241 1096.62 172.431 1096.62 Q166.621 1096.62 163.542 1092.04 Q160.487 1087.43 160.487 1078.71 Q160.487 1069.96 163.542 1065.37 Q166.621 1060.77 172.431 1060.77 Z" fill="#000000" fill-rule="nonzero" fill-opacity="1" /><path clip-path="url(#clip810)" d="M192.639 1061.39 L210.996 1061.39 L210.996 1065.33 L196.922 1065.33 L196.922 1073.8 Q197.94 1073.45 198.959 1073.29 Q199.977 1073.1 200.996 1073.1 Q206.783 1073.1 210.162 1076.27 Q213.542 1079.45 213.542 1084.86 Q213.542 1090.44 210.07 1093.54 Q206.598 1096.62 200.278 1096.62 Q198.102 1096.62 195.834 1096.25 Q193.588 1095.88 191.181 1095.14 L191.181 1090.44 Q193.264 1091.58 195.487 1092.13 Q197.709 1092.69 200.186 1092.69 Q204.19 1092.69 206.528 1090.58 Q208.866 1088.47 208.866 1084.86 Q208.866 1081.25 206.528 1079.14 Q204.19 1077.04 200.186 1077.04 Q198.311 1077.04 196.436 1077.46 Q194.584 1077.87 192.639 1078.75 L192.639 1061.39 Z" fill="#000000" fill-rule="nonzero" fill-opacity="1" /><path clip-path="url(#clip810)" d="M126.205 758.901 Q122.593 758.901 120.765 762.466 Q118.959 766.008 118.959 773.137 Q118.959 780.244 120.765 783.808 Q122.593 787.35 126.205 787.35 Q129.839 787.35 131.644 783.808 Q133.473 780.244 133.473 773.137 Q133.473 766.008 131.644 762.466 Q129.839 758.901 126.205 758.901 M126.205 755.197 Q132.015 755.197 135.07 759.804 Q138.149 764.387 138.149 773.137 Q138.149 781.864 135.07 786.47 Q132.015 791.054 126.205 791.054 Q120.394 791.054 117.316 786.47 Q114.26 781.864 114.26 773.137 Q114.26 764.387 117.316 759.804 Q120.394 755.197 126.205 755.197 Z" fill="#000000" fill-rule="nonzero" fill-opacity="1" /><path clip-path="url(#clip810)" d="M146.366 784.503 L151.251 784.503 L151.251 790.382 L146.366 790.382 L146.366 784.503 Z" fill="#000000" fill-rule="nonzero" fill-opacity="1" /><path clip-path="url(#clip810)" d="M162.246 786.447 L169.885 786.447 L169.885 760.082 L161.575 761.748 L161.575 757.489 L169.839 755.822 L174.514 755.822 L174.514 786.447 L182.153 786.447 L182.153 790.382 L162.246 790.382 L162.246 786.447 Z" fill="#000000" fill-rule="nonzero" fill-opacity="1" /><path clip-path="url(#clip810)" d="M201.598 758.901 Q197.987 758.901 196.158 762.466 Q194.352 766.008 194.352 773.137 Q194.352 780.244 196.158 783.808 Q197.987 787.35 201.598 787.35 Q205.232 787.35 207.037 783.808 Q208.866 780.244 208.866 773.137 Q208.866 766.008 207.037 762.466 Q205.232 758.901 201.598 758.901 M201.598 755.197 Q207.408 755.197 210.463 759.804 Q213.542 764.387 213.542 773.137 Q213.542 781.864 210.463 786.47 Q207.408 791.054 201.598 791.054 Q195.787 791.054 192.709 786.47 Q189.653 781.864 189.653 773.137 Q189.653 764.387 192.709 759.804 Q195.787 755.197 201.598 755.197 Z" fill="#000000" fill-rule="nonzero" fill-opacity="1" /><path clip-path="url(#clip810)" d="M127.2 453.333 Q123.589 453.333 121.76 456.898 Q119.955 460.44 119.955 467.569 Q119.955 474.676 121.76 478.24 Q123.589 481.782 127.2 481.782 Q130.834 481.782 132.64 478.24 Q134.468 474.676 134.468 467.569 Q134.468 460.44 132.64 456.898 Q130.834 453.333 127.2 453.333 M127.2 449.629 Q133.01 449.629 136.066 454.236 Q139.144 458.819 139.144 467.569 Q139.144 476.296 136.066 480.902 Q133.01 485.486 127.2 485.486 Q121.39 485.486 118.311 480.902 Q115.256 476.296 115.256 467.569 Q115.256 458.819 118.311 454.236 Q121.39 449.629 127.2 449.629 Z" fill="#000000" fill-rule="nonzero" fill-opacity="1" /><path clip-path="url(#clip810)" d="M147.362 478.935 L152.246 478.935 L152.246 484.814 L147.362 484.814 L147.362 478.935 Z" fill="#000000" fill-rule="nonzero" fill-opacity="1" /><path clip-path="url(#clip810)" d="M163.241 480.879 L170.88 480.879 L170.88 454.514 L162.57 456.18 L162.57 451.921 L170.834 450.254 L175.51 450.254 L175.51 480.879 L183.149 480.879 L183.149 484.814 L163.241 484.814 L163.241 480.879 Z" fill="#000000" fill-rule="nonzero" fill-opacity="1" /><path clip-path="url(#clip810)" d="M192.639 450.254 L210.996 450.254 L210.996 454.19 L196.922 454.19 L196.922 462.662 Q197.94 462.315 198.959 462.153 Q199.977 461.967 200.996 461.967 Q206.783 461.967 210.162 465.139 Q213.542 468.31 213.542 473.727 Q213.542 479.305 210.07 482.407 Q206.598 485.486 200.278 485.486 Q198.102 485.486 195.834 485.115 Q193.588 484.745 191.181 484.004 L191.181 479.305 Q193.264 480.439 195.487 480.995 Q197.709 481.551 200.186 481.551 Q204.19 481.551 206.528 479.444 Q208.866 477.338 208.866 473.727 Q208.866 470.115 206.528 468.009 Q204.19 465.903 200.186 465.903 Q198.311 465.903 196.436 466.319 Q194.584 466.736 192.639 467.615 L192.639 450.254 Z" fill="#000000" fill-rule="nonzero" fill-opacity="1" /><path clip-path="url(#clip810)" d="M126.205 147.765 Q122.593 147.765 120.765 151.33 Q118.959 154.872 118.959 162.001 Q118.959 169.108 120.765 172.672 Q122.593 176.214 126.205 176.214 Q129.839 176.214 131.644 172.672 Q133.473 169.108 133.473 162.001 Q133.473 154.872 131.644 151.33 Q129.839 147.765 126.205 147.765 M126.205 144.062 Q132.015 144.062 135.07 148.668 Q138.149 153.251 138.149 162.001 Q138.149 170.728 135.07 175.335 Q132.015 179.918 126.205 179.918 Q120.394 179.918 117.316 175.335 Q114.26 170.728 114.26 162.001 Q114.26 153.251 117.316 148.668 Q120.394 144.062 126.205 144.062 Z" fill="#000000" fill-rule="nonzero" fill-opacity="1" /><path clip-path="url(#clip810)" d="M146.366 173.367 L151.251 173.367 L151.251 179.247 L146.366 179.247 L146.366 173.367 Z" fill="#000000" fill-rule="nonzero" fill-opacity="1" /><path clip-path="url(#clip810)" d="M165.464 175.311 L181.783 175.311 L181.783 179.247 L159.839 179.247 L159.839 175.311 Q162.501 172.557 167.084 167.927 Q171.69 163.274 172.871 161.932 Q175.116 159.409 175.996 157.673 Q176.899 155.913 176.899 154.224 Q176.899 151.469 174.954 149.733 Q173.033 147.997 169.931 147.997 Q167.732 147.997 165.278 148.761 Q162.848 149.524 160.07 151.075 L160.07 146.353 Q162.894 145.219 165.348 144.64 Q167.802 144.062 169.839 144.062 Q175.209 144.062 178.403 146.747 Q181.598 149.432 181.598 153.923 Q181.598 156.052 180.788 157.973 Q180.001 159.872 177.894 162.464 Q177.315 163.135 174.214 166.353 Q171.112 169.547 165.464 175.311 Z" fill="#000000" fill-rule="nonzero" fill-opacity="1" /><path clip-path="url(#clip810)" d="M201.598 147.765 Q197.987 147.765 196.158 151.33 Q194.352 154.872 194.352 162.001 Q194.352 169.108 196.158 172.672 Q197.987 176.214 201.598 176.214 Q205.232 176.214 207.037 172.672 Q208.866 169.108 208.866 162.001 Q208.866 154.872 207.037 151.33 Q205.232 147.765 201.598 147.765 M201.598 144.062 Q207.408 144.062 210.463 148.668 Q213.542 153.251 213.542 162.001 Q213.542 170.728 210.463 175.335 Q207.408 179.918 201.598 179.918 Q195.787 179.918 192.709 175.335 Q189.653 170.728 189.653 162.001 Q189.653 153.251 192.709 148.668 Q195.787 144.062 201.598 144.062 Z" fill="#000000" fill-rule="nonzero" fill-opacity="1" /><path clip-path="url(#clip810)" d="M29.7248 1045.51 L35.1993 1045.51 Q33.8307 1047.99 33.1623 1050.51 Q32.4621 1052.99 32.4621 1055.53 Q32.4621 1061.23 36.0905 1064.38 Q39.6872 1067.53 46.212 1067.53 Q52.7369 1067.53 56.3653 1064.38 Q59.9619 1061.23 59.9619 1055.53 Q59.9619 1052.99 59.2935 1050.51 Q58.5933 1047.99 57.2247 1045.51 L62.6355 1045.51 Q63.7814 1047.96 64.3543 1050.6 Q64.9272 1053.21 64.9272 1056.17 Q64.9272 1064.22 59.8664 1068.97 Q54.8057 1073.71 46.212 1073.71 Q37.491 1073.71 32.4939 1068.93 Q27.4968 1064.13 27.4968 1055.79 Q27.4968 1053.08 28.0697 1050.51 Q28.6108 1047.93 29.7248 1045.51 Z" fill="#000000" fill-rule="nonzero" fill-opacity="1" /><path clip-path="url(#clip810)" d="M32.4621 1021.51 Q32.4621 1026.22 36.1542 1028.96 Q39.8145 1031.69 46.212 1031.69 Q52.6095 1031.69 56.3017 1028.99 Q59.9619 1026.25 59.9619 1021.51 Q59.9619 1016.83 56.2698 1014.09 Q52.5777 1011.36 46.212 1011.36 Q39.8781 1011.36 36.186 1014.09 Q32.4621 1016.83 32.4621 1021.51 M27.4968 1021.51 Q27.4968 1013.87 32.4621 1009.51 Q37.4273 1005.15 46.212 1005.15 Q54.9649 1005.15 59.9619 1009.51 Q64.9272 1013.87 64.9272 1021.51 Q64.9272 1029.18 59.9619 1033.54 Q54.9649 1037.87 46.212 1037.87 Q37.4273 1037.87 32.4621 1033.54 Q27.4968 1029.18 27.4968 1021.51 Z" fill="#000000" fill-rule="nonzero" fill-opacity="1" /><path clip-path="url(#clip810)" d="M42.4881 965.81 L64.0042 965.81 L64.0042 971.666 L42.679 971.666 Q37.6183 971.666 35.1038 973.64 Q32.5894 975.613 32.5894 979.56 Q32.5894 984.302 35.6131 987.039 Q38.6368 989.777 43.8567 989.777 L64.0042 989.777 L64.0042 995.665 L28.3562 995.665 L28.3562 989.777 L33.8944 989.777 Q30.6797 987.676 29.0883 984.843 Q27.4968 981.979 27.4968 978.255 Q27.4968 972.112 31.3163 968.961 Q35.1038 965.81 42.4881 965.81 Z" fill="#000000" fill-rule="nonzero" fill-opacity="1" /><path clip-path="url(#clip810)" d="M29.7248 928.475 L35.1993 928.475 Q33.8307 930.957 33.1623 933.472 Q32.4621 935.955 32.4621 938.501 Q32.4621 944.198 36.0905 947.349 Q39.6872 950.5 46.212 950.5 Q52.7369 950.5 56.3653 947.349 Q59.9619 944.198 59.9619 938.501 Q59.9619 935.955 59.2935 933.472 Q58.5933 930.957 57.2247 928.475 L62.6355 928.475 Q63.7814 930.926 64.3543 933.567 Q64.9272 936.177 64.9272 939.137 Q64.9272 947.19 59.8664 951.932 Q54.8057 956.675 46.212 956.675 Q37.491 956.675 32.4939 951.901 Q27.4968 947.095 27.4968 938.755 Q27.4968 936.05 28.0697 933.472 Q28.6108 930.894 29.7248 928.475 Z" fill="#000000" fill-rule="nonzero" fill-opacity="1" /><path clip-path="url(#clip810)" d="M44.7161 887.798 L47.5806 887.798 L47.5806 914.725 Q53.6281 914.343 56.8109 911.096 Q59.9619 907.818 59.9619 901.993 Q59.9619 898.62 59.1344 895.469 Q58.3069 892.286 56.6518 889.167 L62.1899 889.167 Q63.5267 892.318 64.227 895.628 Q64.9272 898.938 64.9272 902.344 Q64.9272 910.874 59.9619 915.871 Q54.9967 920.836 46.5303 920.836 Q37.7774 920.836 32.6531 916.125 Q27.4968 911.383 27.4968 903.362 Q27.4968 896.169 32.1438 891.999 Q36.7589 887.798 44.7161 887.798 M42.9973 893.654 Q38.1912 893.718 35.3266 896.36 Q32.4621 898.97 32.4621 903.298 Q32.4621 908.2 35.2312 911.16 Q38.0002 914.088 43.0292 914.534 L42.9973 893.654 Z" fill="#000000" fill-rule="nonzero" fill-opacity="1" /><path clip-path="url(#clip810)" d="M42.4881 848.553 L64.0042 848.553 L64.0042 854.41 L42.679 854.41 Q37.6183 854.41 35.1038 856.383 Q32.5894 858.357 32.5894 862.303 Q32.5894 867.046 35.6131 869.783 Q38.6368 872.52 43.8567 872.52 L64.0042 872.52 L64.0042 878.409 L28.3562 878.409 L28.3562 872.52 L33.8944 872.52 Q30.6797 870.42 29.0883 867.587 Q27.4968 864.722 27.4968 860.998 Q27.4968 854.855 31.3163 851.704 Q35.1038 848.553 42.4881 848.553 Z" fill="#000000" fill-rule="nonzero" fill-opacity="1" /><path clip-path="url(#clip810)" d="M18.2347 831.08 L28.3562 831.08 L28.3562 819.016 L32.9077 819.016 L32.9077 831.08 L52.2594 831.08 Q56.6199 831.08 57.8613 829.902 Q59.1026 828.692 59.1026 825.032 L59.1026 819.016 L64.0042 819.016 L64.0042 825.032 Q64.0042 831.812 61.4897 834.39 Q58.9434 836.968 52.2594 836.968 L32.9077 836.968 L32.9077 841.265 L28.3562 841.265 L28.3562 836.968 L18.2347 836.968 L18.2347 831.08 Z" fill="#000000" fill-rule="nonzero" fill-opacity="1" /><path clip-path="url(#clip810)" d="M33.8307 790.657 Q33.2578 791.644 33.0032 792.822 Q32.7167 793.967 32.7167 795.368 Q32.7167 800.333 35.9632 803.007 Q39.1779 805.649 45.2253 805.649 L64.0042 805.649 L64.0042 811.537 L28.3562 811.537 L28.3562 805.649 L33.8944 805.649 Q30.6479 803.802 29.0883 800.842 Q27.4968 797.882 27.4968 793.649 Q27.4968 793.044 27.5923 792.312 Q27.656 791.58 27.8151 790.689 L33.8307 790.657 Z" fill="#000000" fill-rule="nonzero" fill-opacity="1" /><path clip-path="url(#clip810)" d="M46.0847 768.314 Q46.0847 775.411 47.7079 778.149 Q49.3312 780.886 53.2461 780.886 Q56.3653 780.886 58.2114 778.849 Q60.0256 776.78 60.0256 773.247 Q60.0256 768.377 56.5881 765.449 Q53.1188 762.489 47.3897 762.489 L46.0847 762.489 L46.0847 768.314 M43.6657 756.633 L64.0042 756.633 L64.0042 762.489 L58.5933 762.489 Q61.8398 764.494 63.3994 767.486 Q64.9272 770.478 64.9272 774.807 Q64.9272 780.281 61.8716 783.528 Q58.7843 786.742 53.6281 786.742 Q47.6125 786.742 44.5569 782.732 Q41.5014 778.69 41.5014 770.701 L41.5014 762.489 L40.9285 762.489 Q36.8862 762.489 34.6901 765.163 Q32.4621 767.804 32.4621 772.61 Q32.4621 775.666 33.1941 778.562 Q33.9262 781.459 35.3903 784.132 L29.9795 784.132 Q28.7381 780.918 28.1334 777.894 Q27.4968 774.87 27.4968 772.006 Q27.4968 764.271 31.5072 760.452 Q35.5176 756.633 43.6657 756.633 Z" fill="#000000" fill-rule="nonzero" fill-opacity="1" /><path clip-path="url(#clip810)" d="M18.2347 738.777 L28.3562 738.777 L28.3562 726.714 L32.9077 726.714 L32.9077 738.777 L52.2594 738.777 Q56.6199 738.777 57.8613 737.599 Q59.1026 736.39 59.1026 732.729 L59.1026 726.714 L64.0042 726.714 L64.0042 732.729 Q64.0042 739.509 61.4897 742.087 Q58.9434 744.665 52.2594 744.665 L32.9077 744.665 L32.9077 748.962 L28.3562 748.962 L28.3562 744.665 L18.2347 744.665 L18.2347 738.777 Z" fill="#000000" fill-rule="nonzero" fill-opacity="1" /><path clip-path="url(#clip810)" d="M28.3562 719.011 L28.3562 713.155 L64.0042 713.155 L64.0042 719.011 L28.3562 719.011 M14.479 719.011 L14.479 713.155 L21.895 713.155 L21.895 719.011 L14.479 719.011 Z" fill="#000000" fill-rule="nonzero" fill-opacity="1" /><path clip-path="url(#clip810)" d="M32.4621 687.087 Q32.4621 691.798 36.1542 694.535 Q39.8145 697.272 46.212 697.272 Q52.6095 697.272 56.3017 694.567 Q59.9619 691.83 59.9619 687.087 Q59.9619 682.408 56.2698 679.671 Q52.5777 676.934 46.212 676.934 Q39.8781 676.934 36.186 679.671 Q32.4621 682.408 32.4621 687.087 M27.4968 687.087 Q27.4968 679.448 32.4621 675.088 Q37.4273 670.727 46.212 670.727 Q54.9649 670.727 59.9619 675.088 Q64.9272 679.448 64.9272 687.087 Q64.9272 694.758 59.9619 699.118 Q54.9649 703.447 46.212 703.447 Q37.4273 703.447 32.4621 699.118 Q27.4968 694.758 27.4968 687.087 Z" fill="#000000" fill-rule="nonzero" fill-opacity="1" /><path clip-path="url(#clip810)" d="M42.4881 631.387 L64.0042 631.387 L64.0042 637.244 L42.679 637.244 Q37.6183 637.244 35.1038 639.217 Q32.5894 641.19 32.5894 645.137 Q32.5894 649.88 35.6131 652.617 Q38.6368 655.354 43.8567 655.354 L64.0042 655.354 L64.0042 661.242 L28.3562 661.242 L28.3562 655.354 L33.8944 655.354 Q30.6797 653.253 29.0883 650.421 Q27.4968 647.556 27.4968 643.832 Q27.4968 637.689 31.3163 634.538 Q35.1038 631.387 42.4881 631.387 Z" fill="#000000" fill-rule="nonzero" fill-opacity="1" /><path clip-path="url(#clip810)" d="M14.5426 584.918 Q21.8632 589.183 29.0246 591.252 Q36.186 593.32 43.5384 593.32 Q50.8908 593.32 58.1159 591.252 Q65.3091 589.151 72.5979 584.918 L72.5979 590.01 Q65.1182 594.784 57.8931 597.172 Q50.668 599.527 43.5384 599.527 Q36.4406 599.527 29.2474 597.172 Q22.0542 594.816 14.5426 590.01 L14.5426 584.918 Z" fill="#000000" fill-rule="nonzero" fill-opacity="1" /><path clip-path="url(#clip810)" d="M35.1993 545.8 Q31.2526 543.604 29.3747 540.549 Q27.4968 537.493 27.4968 533.355 Q27.4968 527.785 31.4117 524.762 Q35.2948 521.738 42.4881 521.738 L64.0042 521.738 L64.0042 527.626 L42.679 527.626 Q37.5546 527.626 35.072 529.441 Q32.5894 531.255 32.5894 534.979 Q32.5894 539.53 35.6131 542.172 Q38.6368 544.814 43.8567 544.814 L64.0042 544.814 L64.0042 550.702 L42.679 550.702 Q37.5228 550.702 35.072 552.516 Q32.5894 554.33 32.5894 558.118 Q32.5894 562.606 35.6449 565.248 Q38.6686 567.889 43.8567 567.889 L64.0042 567.889 L64.0042 573.778 L28.3562 573.778 L28.3562 567.889 L33.8944 567.889 Q30.616 565.884 29.0564 563.083 Q27.4968 560.282 27.4968 556.431 Q27.4968 552.548 29.4702 549.843 Q31.4436 547.105 35.1993 545.8 Z" fill="#000000" fill-rule="nonzero" fill-opacity="1" /><path clip-path="url(#clip810)" d="M45.7664 486.599 Q39.4007 486.599 35.8996 489.241 Q32.3984 491.851 32.3984 496.593 Q32.3984 501.304 35.8996 503.946 Q39.4007 506.556 45.7664 506.556 Q52.1003 506.556 55.6014 503.946 Q59.1026 501.304 59.1026 496.593 Q59.1026 491.851 55.6014 489.241 Q52.1003 486.599 45.7664 486.599 M59.58 480.743 Q68.683 480.743 73.1071 484.785 Q77.5631 488.827 77.5631 497.166 Q77.5631 500.254 77.0857 502.991 Q76.6401 505.728 75.6852 508.306 L69.9879 508.306 Q71.3884 505.728 72.0568 503.214 Q72.7252 500.699 72.7252 498.089 Q72.7252 492.328 69.7015 489.464 Q66.7096 486.599 60.6303 486.599 L57.7339 486.599 Q60.885 488.414 62.4446 491.246 Q64.0042 494.079 64.0042 498.026 Q64.0042 504.582 59.0071 508.593 Q54.01 512.603 45.7664 512.603 Q37.491 512.603 32.4939 508.593 Q27.4968 504.582 27.4968 498.026 Q27.4968 494.079 29.0564 491.246 Q30.616 488.414 33.7671 486.599 L28.3562 486.599 L28.3562 480.743 L59.58 480.743 Z" fill="#000000" fill-rule="nonzero" fill-opacity="1" /><path clip-path="url(#clip810)" d="M16.4842 458.272 L16.4842 452.861 L70.0516 469.412 L70.0516 474.823 L16.4842 458.272 Z" fill="#000000" fill-rule="nonzero" fill-opacity="1" /><path clip-path="url(#clip810)" d="M16.4842 446.464 L16.4842 440.034 L58.5933 440.034 L58.5933 416.895 L64.0042 416.895 L64.0042 446.464 L16.4842 446.464 Z" fill="#000000" fill-rule="nonzero" fill-opacity="1" /><path clip-path="url(#clip810)" d="M14.5426 411.325 L14.5426 406.232 Q22.0542 401.458 29.2474 399.103 Q36.4406 396.716 43.5384 396.716 Q50.668 396.716 57.8931 399.103 Q65.1182 401.458 72.5979 406.232 L72.5979 411.325 Q65.3091 407.092 58.1159 405.023 Q50.8908 402.922 43.5384 402.922 Q36.186 402.922 29.0246 405.023 Q21.8632 407.092 14.5426 411.325 Z" fill="#000000" fill-rule="nonzero" fill-opacity="1" /><polyline clip-path="url(#clip812)" style="stroke:#1b9e77; stroke-linecap:round; stroke-linejoin:round; stroke-width:8; stroke-opacity:1; fill:none" stroke-dasharray="32, 16, 4, 16" points="249.542,86.1857 263.235,86.1857 389.847,86.1857 465.936,86.1857 530.268,86.1857 600.151,86.1857 664.576,86.1858 733.647,86.1883 813.673,86.2365 884.79,86.6832 947.153,88.9881 964.152,90.4852 981.15,92.6633 998.148,95.7704 1015.15,100.117 1032.25,106.122 1049.34,114.215 1057.89,119.204 1066.44,124.912 1074.99,131.412 1083.54,138.777 1093,148.017 1102.45,158.508 1111.9,170.347 1121.35,183.63 1130.81,198.445 1140.26,214.871 1149.71,232.978 1159.16,252.82 1168.16,273.347 1177.15,295.5 1186.15,319.282 1195.14,344.678 1204.13,371.656 1213.13,400.164 1222.12,430.131 1231.12,461.469 1240.47,495.389 1249.82,530.531 1259.17,566.736 1268.52,603.826 1287.23,679.889 1305.93,757.081 1321.67,821.683 1337.42,884.876 1345.29,915.65 1353.16,945.73 1361.04,975.018 1368.91,1003.42 1378.52,1036.79 1388.13,1068.6 1397.74,1098.74 1407.35,1127.15 1416.96,1153.76 1426.57,1178.55 1436.18,1201.5 1445.79,1222.64 1454.6,1240.44 1463.4,1256.78 1472.21,1271.71 1481.01,1285.29 1489.82,1297.57 1498.62,1308.64 1507.42,1318.55 1516.23,1327.4 1532.49,1341.19 1548.75,1352.09 1565.02,1360.57 1581.28,1367.06 1597.75,1372 1614.23,1375.64 1630.7,1378.29 1647.18,1380.18 1684.1,1382.61 1721.02,1383.63 1754.48,1384.01 1787.94,1384.15 1864.56,1384.23 1935.51,1384.24 2005.45,1384.24 2073.35,1384.24 2142.96,1384.24 2219.23,1384.24 2330.03,1384.24 2352.76,1384.24 "/>
<polyline clip-path="url(#clip812)" style="stroke:#d95f02; stroke-linecap:round; stroke-linejoin:round; stroke-width:8; stroke-opacity:1; fill:none" points="249.542,92.1136 256.389,92.4327 263.235,92.7669 326.541,96.6747 389.847,102.445 427.892,107.071 465.936,112.757 498.102,118.518 530.268,125.267 565.209,133.85 600.151,143.878 632.363,154.528 664.576,166.642 699.112,181.372 733.647,198.021 773.66,219.844 813.673,244.505 849.231,268.869 884.79,295.564 915.972,320.884 947.153,347.959 981.15,379.415 1015.15,412.794 1049.34,448.178 1083.54,485.211 1121.35,527.839 1159.16,571.946 1195.14,614.986 1231.12,658.761 1305.93,750.761 1368.91,827.477 1407.35,873.217 1445.79,917.706 1481.01,957.096 1516.23,994.963 1548.75,1028.43 1581.28,1060.32 1614.23,1090.92 1647.18,1119.74 1684.1,1149.86 1721.02,1177.65 1754.48,1200.83 1787.94,1222.11 1826.25,1244.23 1864.56,1264.03 1900.03,1280.39 1935.51,1294.97 1970.48,1307.72 2005.45,1318.96 2039.4,1328.55 2073.35,1336.95 2108.16,1344.43 2142.96,1350.89 2181.1,1356.92 2219.23,1361.98 2274.63,1367.88 2330.03,1372.36 2341.39,1373.13 2352.76,1373.86 "/>
<polyline clip-path="url(#clip812)" style="stroke:#756fb3; stroke-linecap:round; stroke-linejoin:round; stroke-width:8; stroke-opacity:1; fill:none" stroke-dasharray="32, 20" points="249.542,94.2868 256.389,94.6661 263.235,95.0611 326.541,99.5535 389.847,105.913 427.892,110.868 465.936,116.845 498.102,122.807 530.268,129.705 565.209,138.374 600.151,148.396 632.363,158.948 664.576,170.864 699.112,185.264 733.647,201.455 773.66,222.588 813.673,246.392 849.231,269.866 884.79,295.567 915.972,319.948 947.153,346.037 981.15,376.389 1015.15,408.663 1049.34,442.963 1083.54,478.971 1121.35,520.572 1159.16,563.798 1195.14,606.165 1231.12,649.453 1305.93,741.094 1368.91,818.21 1407.35,864.49 1445.79,909.716 1481.01,949.929 1516.23,988.73 1548.75,1023.13 1581.28,1056 1614.23,1087.62 1647.18,1117.45 1684.1,1148.67 1721.02,1177.5 1754.48,1201.54 1787.94,1223.6 1826.25,1246.49 1864.56,1266.93 1900.03,1283.76 1935.51,1298.69 1970.48,1311.66 2005.45,1323.04 2039.4,1332.66 2073.35,1341.02 2108.16,1348.4 2142.96,1354.7 2181.1,1360.5 2219.23,1365.3 2274.63,1370.78 2330.03,1374.82 2341.39,1375.5 2352.76,1376.14 "/>
<polyline clip-path="url(#clip812)" style="stroke:#e72989; stroke-linecap:round; stroke-linejoin:round; stroke-width:8; stroke-opacity:1; fill:none" stroke-dasharray="32, 16, 4, 16, 4, 16" points="249.542,93.1261 256.389,93.4794 263.235,93.8485 326.541,98.111 389.847,104.286 427.892,109.17 465.936,115.12 498.102,121.101 530.268,128.063 565.209,136.862 600.151,147.082 632.363,157.883 664.576,170.113 699.112,184.925 733.647,201.605 773.66,223.391 813.673,247.932 849.231,272.118 884.79,298.566 915.972,323.616 947.153,350.372 981.15,381.432 1015.15,414.37 1049.34,449.275 1083.54,485.803 1121.35,527.857 1159.16,571.389 1195.14,613.893 1231.12,657.16 1305.93,748.234 1368.91,824.362 1407.35,869.842 1445.79,914.151 1481.01,953.446 1516.23,991.282 1548.75,1024.77 1581.28,1056.73 1614.23,1087.45 1647.18,1116.42 1684.1,1146.75 1721.02,1174.78 1754.48,1198.18 1787.94,1219.71 1826.25,1242.1 1864.56,1262.18 1900.03,1278.79 1935.51,1293.6 1970.48,1306.56 2005.45,1318 2039.4,1327.76 2073.35,1336.31 2108.16,1343.93 2142.96,1350.51 2181.1,1356.64 2219.23,1361.8 2274.63,1367.8 2330.03,1372.34 2341.39,1373.12 2352.76,1373.86 "/>
<path clip-path="url(#clip810)" d="M1294.44 352.309 L2282.65 352.309 L2282.65 93.1086 L1294.44 93.1086  Z" fill="#ffffff" fill-rule="evenodd" fill-opacity="1"/>
<polyline clip-path="url(#clip810)" style="stroke:#000000; stroke-linecap:round; stroke-linejoin:round; stroke-width:4; stroke-opacity:1; fill:none" points="1294.44,352.309 2282.65,352.309 2282.65,93.1086 1294.44,93.1086 1294.44,352.309 "/>
<polyline clip-path="url(#clip810)" style="stroke:#1b9e77; stroke-linecap:round; stroke-linejoin:round; stroke-width:8; stroke-opacity:1; fill:none" stroke-dasharray="32, 16, 4, 16" points="1317.81,144.949 1458.02,144.949 "/>
<path clip-path="url(#clip810)" d="M1497.22 132.275 L1490.88 149.474 L1503.59 149.474 L1497.22 132.275 M1494.58 127.669 L1499.89 127.669 L1513.06 162.229 L1508.2 162.229 L1505.05 153.363 L1489.47 153.363 L1486.32 162.229 L1481.39 162.229 L1494.58 127.669 Z" fill="#000000" fill-rule="nonzero" fill-opacity="1" /><path clip-path="url(#clip810)" d="M1539.47 146.581 L1539.47 162.229 L1535.21 162.229 L1535.21 146.719 Q1535.21 143.039 1533.77 141.21 Q1532.34 139.382 1529.47 139.382 Q1526.02 139.382 1524.03 141.581 Q1522.04 143.78 1522.04 147.576 L1522.04 162.229 L1517.76 162.229 L1517.76 136.303 L1522.04 136.303 L1522.04 140.331 Q1523.57 137.993 1525.63 136.835 Q1527.71 135.678 1530.42 135.678 Q1534.89 135.678 1537.18 138.456 Q1539.47 141.21 1539.47 146.581 Z" fill="#000000" fill-rule="nonzero" fill-opacity="1" /><path clip-path="url(#clip810)" d="M1546.11 136.303 L1566.34 136.303 L1566.34 140.192 L1550.33 158.826 L1566.34 158.826 L1566.34 162.229 L1545.53 162.229 L1545.53 158.34 L1561.55 139.706 L1546.11 139.706 L1546.11 136.303 Z" fill="#000000" fill-rule="nonzero" fill-opacity="1" /><path clip-path="url(#clip810)" d="M1595.02 148.201 L1595.02 150.284 L1575.44 150.284 Q1575.72 154.682 1578.08 156.997 Q1580.46 159.289 1584.7 159.289 Q1587.15 159.289 1589.45 158.687 Q1591.76 158.085 1594.03 156.881 L1594.03 160.909 Q1591.74 161.881 1589.33 162.391 Q1586.92 162.9 1584.45 162.9 Q1578.24 162.9 1574.61 159.289 Q1571 155.678 1571 149.52 Q1571 143.155 1574.42 139.428 Q1577.87 135.678 1583.7 135.678 Q1588.94 135.678 1591.97 139.057 Q1595.02 142.414 1595.02 148.201 M1590.76 146.951 Q1590.72 143.456 1588.8 141.372 Q1586.9 139.289 1583.75 139.289 Q1580.19 139.289 1578.03 141.303 Q1575.9 143.317 1575.58 146.974 L1590.76 146.951 Z" fill="#000000" fill-rule="nonzero" fill-opacity="1" /><path clip-path="url(#clip810)" d="M1602.01 126.21 L1606.27 126.21 L1606.27 162.229 L1602.01 162.229 L1602.01 126.21 Z" fill="#000000" fill-rule="nonzero" fill-opacity="1" /><path clip-path="url(#clip810)" d="M1615.19 136.303 L1619.45 136.303 L1619.45 162.229 L1615.19 162.229 L1615.19 136.303 M1615.19 126.21 L1619.45 126.21 L1619.45 131.604 L1615.19 131.604 L1615.19 126.21 Z" fill="#000000" fill-rule="nonzero" fill-opacity="1" /><path clip-path="url(#clip810)" d="M1627.92 151.997 L1627.92 136.303 L1632.18 136.303 L1632.18 151.835 Q1632.18 155.516 1633.61 157.368 Q1635.05 159.196 1637.92 159.196 Q1641.37 159.196 1643.36 156.997 Q1645.37 154.798 1645.37 151.002 L1645.37 136.303 L1649.63 136.303 L1649.63 162.229 L1645.37 162.229 L1645.37 158.247 Q1643.82 160.608 1641.76 161.766 Q1639.72 162.9 1637.01 162.9 Q1632.55 162.9 1630.23 160.122 Q1627.92 157.344 1627.92 151.997 M1638.63 135.678 L1638.63 135.678 Z" fill="#000000" fill-rule="nonzero" fill-opacity="1" /><path clip-path="url(#clip810)" d="M1674.93 137.067 L1674.93 141.094 Q1673.13 140.169 1671.18 139.706 Q1669.24 139.243 1667.15 139.243 Q1663.98 139.243 1662.38 140.215 Q1660.81 141.187 1660.81 143.131 Q1660.81 144.613 1661.94 145.469 Q1663.08 146.303 1666.51 147.067 L1667.96 147.391 Q1672.5 148.363 1674.4 150.145 Q1676.32 151.905 1676.32 155.076 Q1676.32 158.687 1673.45 160.793 Q1670.6 162.9 1665.6 162.9 Q1663.52 162.9 1661.25 162.483 Q1659.01 162.09 1656.51 161.28 L1656.51 156.881 Q1658.87 158.108 1661.16 158.733 Q1663.45 159.335 1665.69 159.335 Q1668.7 159.335 1670.32 158.317 Q1671.94 157.275 1671.94 155.4 Q1671.94 153.664 1670.76 152.738 Q1669.61 151.812 1665.65 150.956 L1664.17 150.608 Q1660.21 149.775 1658.45 148.062 Q1656.69 146.326 1656.69 143.317 Q1656.69 139.659 1659.28 137.669 Q1661.88 135.678 1666.64 135.678 Q1669.01 135.678 1671.09 136.025 Q1673.17 136.372 1674.93 137.067 Z" fill="#000000" fill-rule="nonzero" fill-opacity="1" /><polyline clip-path="url(#clip810)" style="stroke:#d95f02; stroke-linecap:round; stroke-linejoin:round; stroke-width:8; stroke-opacity:1; fill:none" points="1317.81,196.789 1458.02,196.789 "/>
<path clip-path="url(#clip810)" d="M1497.78 197.865 Q1499.28 198.374 1500.7 200.041 Q1502.13 201.708 1503.57 204.624 L1508.31 214.069 L1503.29 214.069 L1498.87 205.203 Q1497.15 201.731 1495.53 200.596 Q1493.94 199.462 1491.16 199.462 L1486.07 199.462 L1486.07 214.069 L1481.39 214.069 L1481.39 179.509 L1491.95 179.509 Q1497.87 179.509 1500.79 181.985 Q1503.71 184.462 1503.71 189.462 Q1503.71 192.726 1502.18 194.879 Q1500.67 197.032 1497.78 197.865 M1486.07 183.351 L1486.07 195.62 L1491.95 195.62 Q1495.33 195.62 1497.04 194.069 Q1498.77 192.495 1498.77 189.462 Q1498.77 186.43 1497.04 184.902 Q1495.33 183.351 1491.95 183.351 L1486.07 183.351 Z" fill="#000000" fill-rule="nonzero" fill-opacity="1" /><path clip-path="url(#clip810)" d="M1522.06 191.129 Q1518.64 191.129 1516.64 193.814 Q1514.65 196.476 1514.65 201.129 Q1514.65 205.782 1516.62 208.467 Q1518.61 211.129 1522.06 211.129 Q1525.46 211.129 1527.45 208.444 Q1529.45 205.758 1529.45 201.129 Q1529.45 196.522 1527.45 193.837 Q1525.46 191.129 1522.06 191.129 M1522.06 187.518 Q1527.62 187.518 1530.79 191.129 Q1533.96 194.74 1533.96 201.129 Q1533.96 207.495 1530.79 211.129 Q1527.62 214.74 1522.06 214.74 Q1516.48 214.74 1513.31 211.129 Q1510.16 207.495 1510.16 201.129 Q1510.16 194.74 1513.31 191.129 Q1516.48 187.518 1522.06 187.518 Z" fill="#000000" fill-rule="nonzero" fill-opacity="1" /><path clip-path="url(#clip810)" d="M1557.55 188.907 L1557.55 192.934 Q1555.74 192.009 1553.8 191.546 Q1551.85 191.083 1549.77 191.083 Q1546.6 191.083 1545 192.055 Q1543.43 193.027 1543.43 194.971 Q1543.43 196.453 1544.56 197.309 Q1545.7 198.143 1549.12 198.907 L1550.58 199.231 Q1555.12 200.203 1557.01 201.985 Q1558.94 203.745 1558.94 206.916 Q1558.94 210.527 1556.07 212.633 Q1553.22 214.74 1548.22 214.74 Q1546.14 214.74 1543.87 214.323 Q1541.62 213.93 1539.12 213.12 L1539.12 208.721 Q1541.48 209.948 1543.77 210.573 Q1546.07 211.175 1548.31 211.175 Q1551.32 211.175 1552.94 210.157 Q1554.56 209.115 1554.56 207.24 Q1554.56 205.504 1553.38 204.578 Q1552.22 203.652 1548.27 202.796 L1546.78 202.448 Q1542.83 201.615 1541.07 199.902 Q1539.31 198.166 1539.31 195.157 Q1539.31 191.499 1541.9 189.509 Q1544.49 187.518 1549.26 187.518 Q1551.62 187.518 1553.7 187.865 Q1555.79 188.212 1557.55 188.907 Z" fill="#000000" fill-rule="nonzero" fill-opacity="1" /><path clip-path="url(#clip810)" d="M1587.89 200.041 L1587.89 202.124 L1568.31 202.124 Q1568.59 206.522 1570.95 208.837 Q1573.33 211.129 1577.57 211.129 Q1580.02 211.129 1582.32 210.527 Q1584.63 209.925 1586.9 208.721 L1586.9 212.749 Q1584.61 213.721 1582.2 214.231 Q1579.79 214.74 1577.32 214.74 Q1571.11 214.74 1567.48 211.129 Q1563.87 207.518 1563.87 201.36 Q1563.87 194.995 1567.29 191.268 Q1570.74 187.518 1576.58 187.518 Q1581.81 187.518 1584.84 190.897 Q1587.89 194.254 1587.89 200.041 M1583.64 198.791 Q1583.59 195.296 1581.67 193.212 Q1579.77 191.129 1576.62 191.129 Q1573.06 191.129 1570.9 193.143 Q1568.77 195.157 1568.45 198.814 L1583.64 198.791 Z" fill="#000000" fill-rule="nonzero" fill-opacity="1" /><path clip-path="url(#clip810)" d="M1616.44 198.421 L1616.44 214.069 L1612.18 214.069 L1612.18 198.559 Q1612.18 194.879 1610.74 193.05 Q1609.31 191.222 1606.44 191.222 Q1602.99 191.222 1601 193.421 Q1599.01 195.62 1599.01 199.416 L1599.01 214.069 L1594.72 214.069 L1594.72 188.143 L1599.01 188.143 L1599.01 192.171 Q1600.53 189.833 1602.59 188.675 Q1604.68 187.518 1607.39 187.518 Q1611.85 187.518 1614.14 190.296 Q1616.44 193.05 1616.44 198.421 Z" fill="#000000" fill-rule="nonzero" fill-opacity="1" /><polyline clip-path="url(#clip810)" style="stroke:#756fb3; stroke-linecap:round; stroke-linejoin:round; stroke-width:8; stroke-opacity:1; fill:none" stroke-dasharray="32, 20" points="1317.81,248.629 1458.02,248.629 "/>
<path clip-path="url(#clip810)" d="M1497.22 235.955 L1490.88 253.154 L1503.59 253.154 L1497.22 235.955 M1494.58 231.349 L1499.89 231.349 L1513.06 265.909 L1508.2 265.909 L1505.05 257.043 L1489.47 257.043 L1486.32 265.909 L1481.39 265.909 L1494.58 231.349 Z" fill="#000000" fill-rule="nonzero" fill-opacity="1" /><path clip-path="url(#clip810)" d="M1534.45 240.747 L1534.45 244.774 Q1532.64 243.849 1530.7 243.386 Q1528.75 242.923 1526.67 242.923 Q1523.5 242.923 1521.9 243.895 Q1520.33 244.867 1520.33 246.811 Q1520.33 248.293 1521.46 249.149 Q1522.59 249.983 1526.02 250.747 L1527.48 251.071 Q1532.02 252.043 1533.91 253.825 Q1535.83 255.585 1535.83 258.756 Q1535.83 262.367 1532.96 264.473 Q1530.12 266.58 1525.12 266.58 Q1523.03 266.58 1520.77 266.163 Q1518.52 265.77 1516.02 264.96 L1516.02 260.561 Q1518.38 261.788 1520.67 262.413 Q1522.96 263.015 1525.21 263.015 Q1528.22 263.015 1529.84 261.997 Q1531.46 260.955 1531.46 259.08 Q1531.46 257.344 1530.28 256.418 Q1529.12 255.492 1525.16 254.636 L1523.68 254.288 Q1519.72 253.455 1517.96 251.742 Q1516.21 250.006 1516.21 246.997 Q1516.21 243.339 1518.8 241.349 Q1521.39 239.358 1526.16 239.358 Q1528.52 239.358 1530.6 239.705 Q1532.69 240.052 1534.45 240.747 Z" fill="#000000" fill-rule="nonzero" fill-opacity="1" /><path clip-path="url(#clip810)" d="M1553.4 268.316 Q1551.6 272.946 1549.89 274.358 Q1548.17 275.77 1545.3 275.77 L1541.9 275.77 L1541.9 272.205 L1544.4 272.205 Q1546.16 272.205 1547.13 271.372 Q1548.1 270.538 1549.28 267.436 L1550.05 265.492 L1539.56 239.983 L1544.08 239.983 L1552.18 260.261 L1560.28 239.983 L1564.79 239.983 L1553.4 268.316 Z" fill="#000000" fill-rule="nonzero" fill-opacity="1" /><path clip-path="url(#clip810)" d="M1590.86 244.96 Q1592.45 242.089 1594.68 240.724 Q1596.9 239.358 1599.91 239.358 Q1603.96 239.358 1606.16 242.205 Q1608.36 245.029 1608.36 250.261 L1608.36 265.909 L1604.07 265.909 L1604.07 250.399 Q1604.07 246.673 1602.76 244.867 Q1601.44 243.062 1598.73 243.062 Q1595.42 243.062 1593.5 245.261 Q1591.57 247.46 1591.57 251.256 L1591.57 265.909 L1587.29 265.909 L1587.29 250.399 Q1587.29 246.649 1585.97 244.867 Q1584.65 243.062 1581.9 243.062 Q1578.64 243.062 1576.71 245.284 Q1574.79 247.483 1574.79 251.256 L1574.79 265.909 L1570.51 265.909 L1570.51 239.983 L1574.79 239.983 L1574.79 244.011 Q1576.25 241.626 1578.29 240.492 Q1580.33 239.358 1583.13 239.358 Q1585.95 239.358 1587.92 240.793 Q1589.91 242.228 1590.86 244.96 Z" fill="#000000" fill-rule="nonzero" fill-opacity="1" /><path clip-path="url(#clip810)" d="M1620.97 262.02 L1620.97 275.77 L1616.69 275.77 L1616.69 239.983 L1620.97 239.983 L1620.97 243.918 Q1622.32 241.603 1624.35 240.492 Q1626.41 239.358 1629.26 239.358 Q1633.98 239.358 1636.92 243.108 Q1639.88 246.858 1639.88 252.969 Q1639.88 259.08 1636.92 262.83 Q1633.98 266.58 1629.26 266.58 Q1626.41 266.58 1624.35 265.469 Q1622.32 264.335 1620.97 262.02 M1635.46 252.969 Q1635.46 248.27 1633.52 245.608 Q1631.6 242.923 1628.22 242.923 Q1624.84 242.923 1622.89 245.608 Q1620.97 248.27 1620.97 252.969 Q1620.97 257.668 1622.89 260.353 Q1624.84 263.015 1628.22 263.015 Q1631.6 263.015 1633.52 260.353 Q1635.46 257.668 1635.46 252.969 Z" fill="#000000" fill-rule="nonzero" fill-opacity="1" /><path clip-path="url(#clip810)" d="M1651.16 232.622 L1651.16 239.983 L1659.93 239.983 L1659.93 243.293 L1651.16 243.293 L1651.16 257.367 Q1651.16 260.538 1652.01 261.441 Q1652.89 262.344 1655.56 262.344 L1659.93 262.344 L1659.93 265.909 L1655.56 265.909 Q1650.63 265.909 1648.75 264.08 Q1646.88 262.228 1646.88 257.367 L1646.88 243.293 L1643.75 243.293 L1643.75 239.983 L1646.88 239.983 L1646.88 232.622 L1651.16 232.622 Z" fill="#000000" fill-rule="nonzero" fill-opacity="1" /><path clip-path="url(#clip810)" d="M1675.58 242.969 Q1672.15 242.969 1670.16 245.654 Q1668.17 248.316 1668.17 252.969 Q1668.17 257.622 1670.14 260.307 Q1672.13 262.969 1675.58 262.969 Q1678.98 262.969 1680.97 260.284 Q1682.96 257.598 1682.96 252.969 Q1682.96 248.362 1680.97 245.677 Q1678.98 242.969 1675.58 242.969 M1675.58 239.358 Q1681.13 239.358 1684.31 242.969 Q1687.48 246.58 1687.48 252.969 Q1687.48 259.335 1684.31 262.969 Q1681.13 266.58 1675.58 266.58 Q1670 266.58 1666.83 262.969 Q1663.68 259.335 1663.68 252.969 Q1663.68 246.58 1666.83 242.969 Q1670 239.358 1675.58 239.358 Z" fill="#000000" fill-rule="nonzero" fill-opacity="1" /><path clip-path="url(#clip810)" d="M1698.75 232.622 L1698.75 239.983 L1707.52 239.983 L1707.52 243.293 L1698.75 243.293 L1698.75 257.367 Q1698.75 260.538 1699.61 261.441 Q1700.49 262.344 1703.15 262.344 L1707.52 262.344 L1707.52 265.909 L1703.15 265.909 Q1698.22 265.909 1696.34 264.08 Q1694.47 262.228 1694.47 257.367 L1694.47 243.293 L1691.34 243.293 L1691.34 239.983 L1694.47 239.983 L1694.47 232.622 L1698.75 232.622 Z" fill="#000000" fill-rule="nonzero" fill-opacity="1" /><path clip-path="url(#clip810)" d="M1713.13 239.983 L1717.38 239.983 L1717.38 265.909 L1713.13 265.909 L1713.13 239.983 M1713.13 229.89 L1717.38 229.89 L1717.38 235.284 L1713.13 235.284 L1713.13 229.89 Z" fill="#000000" fill-rule="nonzero" fill-opacity="1" /><path clip-path="url(#clip810)" d="M1744.95 240.978 L1744.95 244.96 Q1743.15 243.964 1741.32 243.478 Q1739.51 242.969 1737.66 242.969 Q1733.52 242.969 1731.23 245.608 Q1728.94 248.224 1728.94 252.969 Q1728.94 257.714 1731.23 260.353 Q1733.52 262.969 1737.66 262.969 Q1739.51 262.969 1741.32 262.483 Q1743.15 261.973 1744.95 260.978 L1744.95 264.913 Q1743.17 265.747 1741.25 266.163 Q1739.35 266.58 1737.2 266.58 Q1731.34 266.58 1727.89 262.899 Q1724.44 259.219 1724.44 252.969 Q1724.44 246.626 1727.92 242.992 Q1731.41 239.358 1737.48 239.358 Q1739.44 239.358 1741.32 239.775 Q1743.19 240.168 1744.95 240.978 Z" fill="#000000" fill-rule="nonzero" fill-opacity="1" /><path clip-path="url(#clip810)" d="M1779.21 252.876 Q1774.05 252.876 1772.06 254.057 Q1770.07 255.237 1770.07 258.085 Q1770.07 260.353 1771.55 261.696 Q1773.06 263.015 1775.62 263.015 Q1779.17 263.015 1781.3 260.515 Q1783.45 257.992 1783.45 253.825 L1783.45 252.876 L1779.21 252.876 M1787.71 251.117 L1787.71 265.909 L1783.45 265.909 L1783.45 261.973 Q1781.99 264.335 1779.81 265.469 Q1777.64 266.58 1774.49 266.58 Q1770.51 266.58 1768.15 264.358 Q1765.81 262.112 1765.81 258.362 Q1765.81 253.987 1768.73 251.765 Q1771.67 249.543 1777.48 249.543 L1783.45 249.543 L1783.45 249.126 Q1783.45 246.187 1781.5 244.589 Q1779.58 242.969 1776.09 242.969 Q1773.87 242.969 1771.76 243.501 Q1769.65 244.034 1767.71 245.099 L1767.71 241.163 Q1770.05 240.261 1772.25 239.821 Q1774.44 239.358 1776.53 239.358 Q1782.15 239.358 1784.93 242.274 Q1787.71 245.191 1787.71 251.117 Z" fill="#000000" fill-rule="nonzero" fill-opacity="1" /><path clip-path="url(#clip810)" d="M1800.6 262.02 L1800.6 275.77 L1796.32 275.77 L1796.32 239.983 L1800.6 239.983 L1800.6 243.918 Q1801.94 241.603 1803.98 240.492 Q1806.04 239.358 1808.89 239.358 Q1813.61 239.358 1816.55 243.108 Q1819.51 246.858 1819.51 252.969 Q1819.51 259.08 1816.55 262.83 Q1813.61 266.58 1808.89 266.58 Q1806.04 266.58 1803.98 265.469 Q1801.94 264.335 1800.6 262.02 M1815.09 252.969 Q1815.09 248.27 1813.15 245.608 Q1811.23 242.923 1807.85 242.923 Q1804.47 242.923 1802.52 245.608 Q1800.6 248.27 1800.6 252.969 Q1800.6 257.668 1802.52 260.353 Q1804.47 263.015 1807.85 263.015 Q1811.23 263.015 1813.15 260.353 Q1815.09 257.668 1815.09 252.969 Z" fill="#000000" fill-rule="nonzero" fill-opacity="1" /><path clip-path="url(#clip810)" d="M1830.69 262.02 L1830.69 275.77 L1826.41 275.77 L1826.41 239.983 L1830.69 239.983 L1830.69 243.918 Q1832.04 241.603 1834.07 240.492 Q1836.13 239.358 1838.98 239.358 Q1843.7 239.358 1846.64 243.108 Q1849.61 246.858 1849.61 252.969 Q1849.61 259.08 1846.64 262.83 Q1843.7 266.58 1838.98 266.58 Q1836.13 266.58 1834.07 265.469 Q1832.04 264.335 1830.69 262.02 M1845.18 252.969 Q1845.18 248.27 1843.24 245.608 Q1841.32 242.923 1837.94 242.923 Q1834.56 242.923 1832.62 245.608 Q1830.69 248.27 1830.69 252.969 Q1830.69 257.668 1832.62 260.353 Q1834.56 263.015 1837.94 263.015 Q1841.32 263.015 1843.24 260.353 Q1845.18 257.668 1845.18 252.969 Z" fill="#000000" fill-rule="nonzero" fill-opacity="1" /><path clip-path="url(#clip810)" d="M1871.69 243.964 Q1870.97 243.548 1870.12 243.362 Q1869.28 243.154 1868.26 243.154 Q1864.65 243.154 1862.71 245.515 Q1860.79 247.853 1860.79 252.251 L1860.79 265.909 L1856.5 265.909 L1856.5 239.983 L1860.79 239.983 L1860.79 244.011 Q1862.13 241.649 1864.28 240.515 Q1866.43 239.358 1869.51 239.358 Q1869.95 239.358 1870.49 239.427 Q1871.02 239.474 1871.67 239.589 L1871.69 243.964 Z" fill="#000000" fill-rule="nonzero" fill-opacity="1" /><path clip-path="url(#clip810)" d="M1885.16 242.969 Q1881.74 242.969 1879.74 245.654 Q1877.75 248.316 1877.75 252.969 Q1877.75 257.622 1879.72 260.307 Q1881.71 262.969 1885.16 262.969 Q1888.56 262.969 1890.55 260.284 Q1892.55 257.598 1892.55 252.969 Q1892.55 248.362 1890.55 245.677 Q1888.56 242.969 1885.16 242.969 M1885.16 239.358 Q1890.72 239.358 1893.89 242.969 Q1897.06 246.58 1897.06 252.969 Q1897.06 259.335 1893.89 262.969 Q1890.72 266.58 1885.16 266.58 Q1879.58 266.58 1876.41 262.969 Q1873.26 259.335 1873.26 252.969 Q1873.26 246.58 1876.41 242.969 Q1879.58 239.358 1885.16 239.358 Z" fill="#000000" fill-rule="nonzero" fill-opacity="1" /><path clip-path="url(#clip810)" d="M1924.21 239.983 L1914.84 252.599 L1924.7 265.909 L1919.68 265.909 L1912.13 255.723 L1904.58 265.909 L1899.56 265.909 L1909.63 252.344 L1900.42 239.983 L1905.44 239.983 L1912.31 249.219 L1919.19 239.983 L1924.21 239.983 Z" fill="#000000" fill-rule="nonzero" fill-opacity="1" /><path clip-path="url(#clip810)" d="M1930.72 239.983 L1934.98 239.983 L1934.98 265.909 L1930.72 265.909 L1930.72 239.983 M1930.72 229.89 L1934.98 229.89 L1934.98 235.284 L1930.72 235.284 L1930.72 229.89 Z" fill="#000000" fill-rule="nonzero" fill-opacity="1" /><path clip-path="url(#clip810)" d="M1964.07 244.96 Q1965.67 242.089 1967.89 240.724 Q1970.11 239.358 1973.12 239.358 Q1977.17 239.358 1979.37 242.205 Q1981.57 245.029 1981.57 250.261 L1981.57 265.909 L1977.29 265.909 L1977.29 250.399 Q1977.29 246.673 1975.97 244.867 Q1974.65 243.062 1971.94 243.062 Q1968.63 243.062 1966.71 245.261 Q1964.79 247.46 1964.79 251.256 L1964.79 265.909 L1960.51 265.909 L1960.51 250.399 Q1960.51 246.649 1959.19 244.867 Q1957.87 243.062 1955.11 243.062 Q1951.85 243.062 1949.93 245.284 Q1948.01 247.483 1948.01 251.256 L1948.01 265.909 L1943.73 265.909 L1943.73 239.983 L1948.01 239.983 L1948.01 244.011 Q1949.47 241.626 1951.5 240.492 Q1953.54 239.358 1956.34 239.358 Q1959.17 239.358 1961.13 240.793 Q1963.12 242.228 1964.07 244.96 Z" fill="#000000" fill-rule="nonzero" fill-opacity="1" /><path clip-path="url(#clip810)" d="M2001.85 252.876 Q1996.69 252.876 1994.7 254.057 Q1992.71 255.237 1992.71 258.085 Q1992.71 260.353 1994.19 261.696 Q1995.69 263.015 1998.26 263.015 Q2001.8 263.015 2003.93 260.515 Q2006.09 257.992 2006.09 253.825 L2006.09 252.876 L2001.85 252.876 M2010.35 251.117 L2010.35 265.909 L2006.09 265.909 L2006.09 261.973 Q2004.63 264.335 2002.45 265.469 Q2000.28 266.58 1997.13 266.58 Q1993.15 266.58 1990.79 264.358 Q1988.45 262.112 1988.45 258.362 Q1988.45 253.987 1991.36 251.765 Q1994.3 249.543 2000.11 249.543 L2006.09 249.543 L2006.09 249.126 Q2006.09 246.187 2004.14 244.589 Q2002.22 242.969 1998.73 242.969 Q1996.5 242.969 1994.4 243.501 Q1992.29 244.034 1990.35 245.099 L1990.35 241.163 Q1992.68 240.261 1994.88 239.821 Q1997.08 239.358 1999.17 239.358 Q2004.79 239.358 2007.57 242.274 Q2010.35 245.191 2010.35 251.117 Z" fill="#000000" fill-rule="nonzero" fill-opacity="1" /><path clip-path="url(#clip810)" d="M2023.33 232.622 L2023.33 239.983 L2032.11 239.983 L2032.11 243.293 L2023.33 243.293 L2023.33 257.367 Q2023.33 260.538 2024.19 261.441 Q2025.07 262.344 2027.73 262.344 L2032.11 262.344 L2032.11 265.909 L2027.73 265.909 Q2022.8 265.909 2020.92 264.08 Q2019.05 262.228 2019.05 257.367 L2019.05 243.293 L2015.92 243.293 L2015.92 239.983 L2019.05 239.983 L2019.05 232.622 L2023.33 232.622 Z" fill="#000000" fill-rule="nonzero" fill-opacity="1" /><path clip-path="url(#clip810)" d="M2037.71 239.983 L2041.97 239.983 L2041.97 265.909 L2037.71 265.909 L2037.71 239.983 M2037.71 229.89 L2041.97 229.89 L2041.97 235.284 L2037.71 235.284 L2037.71 229.89 Z" fill="#000000" fill-rule="nonzero" fill-opacity="1" /><path clip-path="url(#clip810)" d="M2060.92 242.969 Q2057.5 242.969 2055.51 245.654 Q2053.52 248.316 2053.52 252.969 Q2053.52 257.622 2055.48 260.307 Q2057.48 262.969 2060.92 262.969 Q2064.33 262.969 2066.32 260.284 Q2068.31 257.598 2068.31 252.969 Q2068.31 248.362 2066.32 245.677 Q2064.33 242.969 2060.92 242.969 M2060.92 239.358 Q2066.48 239.358 2069.65 242.969 Q2072.82 246.58 2072.82 252.969 Q2072.82 259.335 2069.65 262.969 Q2066.48 266.58 2060.92 266.58 Q2055.35 266.58 2052.17 262.969 Q2049.03 259.335 2049.03 252.969 Q2049.03 246.58 2052.17 242.969 Q2055.35 239.358 2060.92 239.358 Z" fill="#000000" fill-rule="nonzero" fill-opacity="1" /><path clip-path="url(#clip810)" d="M2101.43 250.261 L2101.43 265.909 L2097.17 265.909 L2097.17 250.399 Q2097.17 246.719 2095.74 244.89 Q2094.3 243.062 2091.43 243.062 Q2087.98 243.062 2085.99 245.261 Q2084 247.46 2084 251.256 L2084 265.909 L2079.72 265.909 L2079.72 239.983 L2084 239.983 L2084 244.011 Q2085.53 241.673 2087.59 240.515 Q2089.67 239.358 2092.38 239.358 Q2096.85 239.358 2099.14 242.136 Q2101.43 244.89 2101.43 250.261 Z" fill="#000000" fill-rule="nonzero" fill-opacity="1" /><polyline clip-path="url(#clip810)" style="stroke:#e72989; stroke-linecap:round; stroke-linejoin:round; stroke-width:8; stroke-opacity:1; fill:none" stroke-dasharray="32, 16, 4, 16, 4, 16" points="1317.81,300.469 1458.02,300.469 "/>
<path clip-path="url(#clip810)" d="M1497.22 287.795 L1490.88 304.994 L1503.59 304.994 L1497.22 287.795 M1494.58 283.189 L1499.89 283.189 L1513.06 317.749 L1508.2 317.749 L1505.05 308.883 L1489.47 308.883 L1486.32 317.749 L1481.39 317.749 L1494.58 283.189 Z" fill="#000000" fill-rule="nonzero" fill-opacity="1" /><path clip-path="url(#clip810)" d="M1539.47 302.101 L1539.47 317.749 L1535.21 317.749 L1535.21 302.239 Q1535.21 298.559 1533.77 296.73 Q1532.34 294.902 1529.47 294.902 Q1526.02 294.902 1524.03 297.101 Q1522.04 299.3 1522.04 303.096 L1522.04 317.749 L1517.76 317.749 L1517.76 291.823 L1522.04 291.823 L1522.04 295.851 Q1523.57 293.513 1525.63 292.355 Q1527.71 291.198 1530.42 291.198 Q1534.89 291.198 1537.18 293.976 Q1539.47 296.73 1539.47 302.101 Z" fill="#000000" fill-rule="nonzero" fill-opacity="1" /><path clip-path="url(#clip810)" d="M1546.11 291.823 L1566.34 291.823 L1566.34 295.712 L1550.33 314.346 L1566.34 314.346 L1566.34 317.749 L1545.53 317.749 L1545.53 313.86 L1561.55 295.226 L1546.11 295.226 L1546.11 291.823 Z" fill="#000000" fill-rule="nonzero" fill-opacity="1" /><path clip-path="url(#clip810)" d="M1595.02 303.721 L1595.02 305.804 L1575.44 305.804 Q1575.72 310.202 1578.08 312.517 Q1580.46 314.809 1584.7 314.809 Q1587.15 314.809 1589.45 314.207 Q1591.76 313.605 1594.03 312.401 L1594.03 316.429 Q1591.74 317.401 1589.33 317.911 Q1586.92 318.42 1584.45 318.42 Q1578.24 318.42 1574.61 314.809 Q1571 311.198 1571 305.04 Q1571 298.675 1574.42 294.948 Q1577.87 291.198 1583.7 291.198 Q1588.94 291.198 1591.97 294.577 Q1595.02 297.934 1595.02 303.721 M1590.76 302.471 Q1590.72 298.976 1588.8 296.892 Q1586.9 294.809 1583.75 294.809 Q1580.19 294.809 1578.03 296.823 Q1575.9 298.837 1575.58 302.494 L1590.76 302.471 Z" fill="#000000" fill-rule="nonzero" fill-opacity="1" /><path clip-path="url(#clip810)" d="M1602.01 281.73 L1606.27 281.73 L1606.27 317.749 L1602.01 317.749 L1602.01 281.73 Z" fill="#000000" fill-rule="nonzero" fill-opacity="1" /><path clip-path="url(#clip810)" d="M1615.19 291.823 L1619.45 291.823 L1619.45 317.749 L1615.19 317.749 L1615.19 291.823 M1615.19 281.73 L1619.45 281.73 L1619.45 287.124 L1615.19 287.124 L1615.19 281.73 Z" fill="#000000" fill-rule="nonzero" fill-opacity="1" /><path clip-path="url(#clip810)" d="M1627.92 307.517 L1627.92 291.823 L1632.18 291.823 L1632.18 307.355 Q1632.18 311.036 1633.61 312.888 Q1635.05 314.716 1637.92 314.716 Q1641.37 314.716 1643.36 312.517 Q1645.37 310.318 1645.37 306.522 L1645.37 291.823 L1649.63 291.823 L1649.63 317.749 L1645.37 317.749 L1645.37 313.767 Q1643.82 316.128 1641.76 317.286 Q1639.72 318.42 1637.01 318.42 Q1632.55 318.42 1630.23 315.642 Q1627.92 312.864 1627.92 307.517 M1638.63 291.198 L1638.63 291.198 Z" fill="#000000" fill-rule="nonzero" fill-opacity="1" /><path clip-path="url(#clip810)" d="M1674.93 292.587 L1674.93 296.614 Q1673.13 295.689 1671.18 295.226 Q1669.24 294.763 1667.15 294.763 Q1663.98 294.763 1662.38 295.735 Q1660.81 296.707 1660.81 298.651 Q1660.81 300.133 1661.94 300.989 Q1663.08 301.823 1666.51 302.587 L1667.96 302.911 Q1672.5 303.883 1674.4 305.665 Q1676.32 307.425 1676.32 310.596 Q1676.32 314.207 1673.45 316.313 Q1670.6 318.42 1665.6 318.42 Q1663.52 318.42 1661.25 318.003 Q1659.01 317.61 1656.51 316.8 L1656.51 312.401 Q1658.87 313.628 1661.16 314.253 Q1663.45 314.855 1665.69 314.855 Q1668.7 314.855 1670.32 313.837 Q1671.94 312.795 1671.94 310.92 Q1671.94 309.184 1670.76 308.258 Q1669.61 307.332 1665.65 306.476 L1664.17 306.128 Q1660.21 305.295 1658.45 303.582 Q1656.69 301.846 1656.69 298.837 Q1656.69 295.179 1659.28 293.189 Q1661.88 291.198 1666.64 291.198 Q1669.01 291.198 1671.09 291.545 Q1673.17 291.892 1674.93 292.587 Z" fill="#000000" fill-rule="nonzero" fill-opacity="1" /><path clip-path="url(#clip810)" d="M1684.19 311.869 L1689.07 311.869 L1689.07 315.85 L1685.28 323.258 L1682.29 323.258 L1684.19 315.85 L1684.19 311.869 Z" fill="#000000" fill-rule="nonzero" fill-opacity="1" /><path clip-path="url(#clip810)" d="M1713.24 281.73 L1717.5 281.73 L1717.5 317.749 L1713.24 317.749 L1713.24 281.73 Z" fill="#000000" fill-rule="nonzero" fill-opacity="1" /><path clip-path="url(#clip810)" d="M1726.41 291.823 L1730.67 291.823 L1730.67 317.749 L1726.41 317.749 L1726.41 291.823 M1726.41 281.73 L1730.67 281.73 L1730.67 287.124 L1726.41 287.124 L1726.41 281.73 Z" fill="#000000" fill-rule="nonzero" fill-opacity="1" /><path clip-path="url(#clip810)" d="M1761.13 302.101 L1761.13 317.749 L1756.88 317.749 L1756.88 302.239 Q1756.88 298.559 1755.44 296.73 Q1754 294.902 1751.13 294.902 Q1747.69 294.902 1745.69 297.101 Q1743.7 299.3 1743.7 303.096 L1743.7 317.749 L1739.42 317.749 L1739.42 291.823 L1743.7 291.823 L1743.7 295.851 Q1745.23 293.513 1747.29 292.355 Q1749.38 291.198 1752.08 291.198 Q1756.55 291.198 1758.84 293.976 Q1761.13 296.73 1761.13 302.101 Z" fill="#000000" fill-rule="nonzero" fill-opacity="1" /><path clip-path="url(#clip810)" d="M1791.81 303.721 L1791.81 305.804 L1772.22 305.804 Q1772.5 310.202 1774.86 312.517 Q1777.25 314.809 1781.48 314.809 Q1783.94 314.809 1786.23 314.207 Q1788.54 313.605 1790.81 312.401 L1790.81 316.429 Q1788.52 317.401 1786.11 317.911 Q1783.7 318.42 1781.23 318.42 Q1775.02 318.42 1771.39 314.809 Q1767.78 311.198 1767.78 305.04 Q1767.78 298.675 1771.2 294.948 Q1774.65 291.198 1780.49 291.198 Q1785.72 291.198 1788.75 294.577 Q1791.81 297.934 1791.81 303.721 M1787.55 302.471 Q1787.5 298.976 1785.58 296.892 Q1783.68 294.809 1780.53 294.809 Q1776.97 294.809 1774.81 296.823 Q1772.69 298.837 1772.36 302.494 L1787.55 302.471 Z" fill="#000000" fill-rule="nonzero" fill-opacity="1" /><path clip-path="url(#clip810)" d="M1810.58 304.716 Q1805.42 304.716 1803.43 305.897 Q1801.43 307.077 1801.43 309.925 Q1801.43 312.193 1802.92 313.536 Q1804.42 314.855 1806.99 314.855 Q1810.53 314.855 1812.66 312.355 Q1814.81 309.832 1814.81 305.665 L1814.81 304.716 L1810.58 304.716 M1819.07 302.957 L1819.07 317.749 L1814.81 317.749 L1814.81 313.813 Q1813.36 316.175 1811.18 317.309 Q1809 318.42 1805.86 318.42 Q1801.87 318.42 1799.51 316.198 Q1797.18 313.952 1797.18 310.202 Q1797.18 305.827 1800.09 303.605 Q1803.03 301.383 1808.84 301.383 L1814.81 301.383 L1814.81 300.966 Q1814.81 298.027 1812.87 296.429 Q1810.95 294.809 1807.45 294.809 Q1805.23 294.809 1803.12 295.341 Q1801.02 295.874 1799.07 296.939 L1799.07 293.003 Q1801.41 292.101 1803.61 291.661 Q1805.81 291.198 1807.89 291.198 Q1813.52 291.198 1816.3 294.114 Q1819.07 297.031 1819.07 302.957 Z" fill="#000000" fill-rule="nonzero" fill-opacity="1" /><path clip-path="url(#clip810)" d="M1842.87 295.804 Q1842.15 295.388 1841.3 295.202 Q1840.46 294.994 1839.44 294.994 Q1835.83 294.994 1833.89 297.355 Q1831.97 299.693 1831.97 304.091 L1831.97 317.749 L1827.68 317.749 L1827.68 291.823 L1831.97 291.823 L1831.97 295.851 Q1833.31 293.489 1835.46 292.355 Q1837.62 291.198 1840.69 291.198 Q1841.13 291.198 1841.67 291.267 Q1842.2 291.314 1842.85 291.429 L1842.87 295.804 Z" fill="#000000" fill-rule="nonzero" fill-opacity="1" /><path clip-path="url(#clip810)" d="M1877.43 295.804 Q1876.71 295.388 1875.86 295.202 Q1875.02 294.994 1874 294.994 Q1870.39 294.994 1868.45 297.355 Q1866.53 299.693 1866.53 304.091 L1866.53 317.749 L1862.24 317.749 L1862.24 291.823 L1866.53 291.823 L1866.53 295.851 Q1867.87 293.489 1870.02 292.355 Q1872.18 291.198 1875.25 291.198 Q1875.69 291.198 1876.23 291.267 Q1876.76 291.314 1877.41 291.429 L1877.43 295.804 Z" fill="#000000" fill-rule="nonzero" fill-opacity="1" /><path clip-path="url(#clip810)" d="M1903.03 303.721 L1903.03 305.804 L1883.45 305.804 Q1883.73 310.202 1886.09 312.517 Q1888.47 314.809 1892.71 314.809 Q1895.16 314.809 1897.45 314.207 Q1899.77 313.605 1902.04 312.401 L1902.04 316.429 Q1899.74 317.401 1897.34 317.911 Q1894.93 318.42 1892.45 318.42 Q1886.25 318.42 1882.62 314.809 Q1879 311.198 1879 305.04 Q1879 298.675 1882.43 294.948 Q1885.88 291.198 1891.71 291.198 Q1896.94 291.198 1899.98 294.577 Q1903.03 297.934 1903.03 303.721 M1898.77 302.471 Q1898.73 298.976 1896.8 296.892 Q1894.91 294.809 1891.76 294.809 Q1888.19 294.809 1886.04 296.823 Q1883.91 298.837 1883.59 302.494 L1898.77 302.471 Z" fill="#000000" fill-rule="nonzero" fill-opacity="1" /><path clip-path="url(#clip810)" d="M1926.55 292.587 L1926.55 296.614 Q1924.74 295.689 1922.8 295.226 Q1920.86 294.763 1918.77 294.763 Q1915.6 294.763 1914 295.735 Q1912.43 296.707 1912.43 298.651 Q1912.43 300.133 1913.56 300.989 Q1914.7 301.823 1918.12 302.587 L1919.58 302.911 Q1924.12 303.883 1926.02 305.665 Q1927.94 307.425 1927.94 310.596 Q1927.94 314.207 1925.07 316.313 Q1922.22 318.42 1917.22 318.42 Q1915.14 318.42 1912.87 318.003 Q1910.62 317.61 1908.12 316.8 L1908.12 312.401 Q1910.49 313.628 1912.78 314.253 Q1915.07 314.855 1917.31 314.855 Q1920.32 314.855 1921.94 313.837 Q1923.56 312.795 1923.56 310.92 Q1923.56 309.184 1922.38 308.258 Q1921.23 307.332 1917.27 306.476 L1915.79 306.128 Q1911.83 305.295 1910.07 303.582 Q1908.31 301.846 1908.31 298.837 Q1908.31 295.179 1910.9 293.189 Q1913.49 291.198 1918.26 291.198 Q1920.62 291.198 1922.71 291.545 Q1924.79 291.892 1926.55 292.587 Z" fill="#000000" fill-rule="nonzero" fill-opacity="1" /><path clip-path="url(#clip810)" d="M1934.72 291.823 L1938.98 291.823 L1938.98 317.749 L1934.72 317.749 L1934.72 291.823 M1934.72 281.73 L1938.98 281.73 L1938.98 287.124 L1934.72 287.124 L1934.72 281.73 Z" fill="#000000" fill-rule="nonzero" fill-opacity="1" /><path clip-path="url(#clip810)" d="M1964.42 292.587 L1964.42 296.614 Q1962.61 295.689 1960.67 295.226 Q1958.73 294.763 1956.64 294.763 Q1953.47 294.763 1951.87 295.735 Q1950.3 296.707 1950.3 298.651 Q1950.3 300.133 1951.43 300.989 Q1952.57 301.823 1955.99 302.587 L1957.45 302.911 Q1961.99 303.883 1963.89 305.665 Q1965.81 307.425 1965.81 310.596 Q1965.81 314.207 1962.94 316.313 Q1960.09 318.42 1955.09 318.42 Q1953.01 318.42 1950.74 318.003 Q1948.49 317.61 1945.99 316.8 L1945.99 312.401 Q1948.36 313.628 1950.65 314.253 Q1952.94 314.855 1955.18 314.855 Q1958.19 314.855 1959.81 313.837 Q1961.43 312.795 1961.43 310.92 Q1961.43 309.184 1960.25 308.258 Q1959.1 307.332 1955.14 306.476 L1953.66 306.128 Q1949.7 305.295 1947.94 303.582 Q1946.18 301.846 1946.18 298.837 Q1946.18 295.179 1948.77 293.189 Q1951.36 291.198 1956.13 291.198 Q1958.49 291.198 1960.58 291.545 Q1962.66 291.892 1964.42 292.587 Z" fill="#000000" fill-rule="nonzero" fill-opacity="1" /><path clip-path="url(#clip810)" d="M1976.8 284.462 L1976.8 291.823 L1985.58 291.823 L1985.58 295.133 L1976.8 295.133 L1976.8 309.207 Q1976.8 312.378 1977.66 313.281 Q1978.54 314.184 1981.2 314.184 L1985.58 314.184 L1985.58 317.749 L1981.2 317.749 Q1976.27 317.749 1974.4 315.92 Q1972.52 314.068 1972.52 309.207 L1972.52 295.133 L1969.4 295.133 L1969.4 291.823 L1972.52 291.823 L1972.52 284.462 L1976.8 284.462 Z" fill="#000000" fill-rule="nonzero" fill-opacity="1" /><path clip-path="url(#clip810)" d="M2002.96 304.716 Q1997.8 304.716 1995.81 305.897 Q1993.82 307.077 1993.82 309.925 Q1993.82 312.193 1995.3 313.536 Q1996.8 314.855 1999.37 314.855 Q2002.92 314.855 2005.04 312.355 Q2007.2 309.832 2007.2 305.665 L2007.2 304.716 L2002.96 304.716 M2011.46 302.957 L2011.46 317.749 L2007.2 317.749 L2007.2 313.813 Q2005.74 316.175 2003.56 317.309 Q2001.39 318.42 1998.24 318.42 Q1994.26 318.42 1991.9 316.198 Q1989.56 313.952 1989.56 310.202 Q1989.56 305.827 1992.48 303.605 Q1995.42 301.383 2001.23 301.383 L2007.2 301.383 L2007.2 300.966 Q2007.2 298.027 2005.25 296.429 Q2003.33 294.809 1999.84 294.809 Q1997.61 294.809 1995.51 295.341 Q1993.4 295.874 1991.46 296.939 L1991.46 293.003 Q1993.8 292.101 1995.99 291.661 Q1998.19 291.198 2000.28 291.198 Q2005.9 291.198 2008.68 294.114 Q2011.46 297.031 2011.46 302.957 Z" fill="#000000" fill-rule="nonzero" fill-opacity="1" /><path clip-path="url(#clip810)" d="M2041.78 302.101 L2041.78 317.749 L2037.52 317.749 L2037.52 302.239 Q2037.52 298.559 2036.09 296.73 Q2034.65 294.902 2031.78 294.902 Q2028.33 294.902 2026.34 297.101 Q2024.35 299.3 2024.35 303.096 L2024.35 317.749 L2020.07 317.749 L2020.07 291.823 L2024.35 291.823 L2024.35 295.851 Q2025.88 293.513 2027.94 292.355 Q2030.02 291.198 2032.73 291.198 Q2037.2 291.198 2039.49 293.976 Q2041.78 296.73 2041.78 302.101 Z" fill="#000000" fill-rule="nonzero" fill-opacity="1" /><path clip-path="url(#clip810)" d="M2068.93 292.818 L2068.93 296.8 Q2067.13 295.804 2065.3 295.318 Q2063.49 294.809 2061.64 294.809 Q2057.5 294.809 2055.21 297.448 Q2052.92 300.064 2052.92 304.809 Q2052.92 309.554 2055.21 312.193 Q2057.5 314.809 2061.64 314.809 Q2063.49 314.809 2065.3 314.323 Q2067.13 313.813 2068.93 312.818 L2068.93 316.753 Q2067.15 317.587 2065.23 318.003 Q2063.33 318.42 2061.18 318.42 Q2055.32 318.42 2051.87 314.739 Q2048.42 311.059 2048.42 304.809 Q2048.42 298.466 2051.9 294.832 Q2055.39 291.198 2061.46 291.198 Q2063.42 291.198 2065.3 291.615 Q2067.17 292.008 2068.93 292.818 Z" fill="#000000" fill-rule="nonzero" fill-opacity="1" /><path clip-path="url(#clip810)" d="M2098.52 303.721 L2098.52 305.804 L2078.93 305.804 Q2079.21 310.202 2081.57 312.517 Q2083.96 314.809 2088.19 314.809 Q2090.65 314.809 2092.94 314.207 Q2095.25 313.605 2097.52 312.401 L2097.52 316.429 Q2095.23 317.401 2092.82 317.911 Q2090.41 318.42 2087.94 318.42 Q2081.73 318.42 2078.1 314.809 Q2074.49 311.198 2074.49 305.04 Q2074.49 298.675 2077.91 294.948 Q2081.36 291.198 2087.2 291.198 Q2092.43 291.198 2095.46 294.577 Q2098.52 297.934 2098.52 303.721 M2094.26 302.471 Q2094.21 298.976 2092.29 296.892 Q2090.39 294.809 2087.24 294.809 Q2083.68 294.809 2081.53 296.823 Q2079.4 298.837 2079.07 302.494 L2094.26 302.471 Z" fill="#000000" fill-rule="nonzero" fill-opacity="1" /><path clip-path="url(#clip810)" d="M2140.76 296.8 Q2142.36 293.929 2144.58 292.564 Q2146.8 291.198 2149.81 291.198 Q2153.86 291.198 2156.06 294.045 Q2158.26 296.869 2158.26 302.101 L2158.26 317.749 L2153.98 317.749 L2153.98 302.239 Q2153.98 298.513 2152.66 296.707 Q2151.34 294.902 2148.63 294.902 Q2145.32 294.902 2143.4 297.101 Q2141.48 299.3 2141.48 303.096 L2141.48 317.749 L2137.2 317.749 L2137.2 302.239 Q2137.2 298.489 2135.88 296.707 Q2134.56 294.902 2131.8 294.902 Q2128.54 294.902 2126.62 297.124 Q2124.7 299.323 2124.7 303.096 L2124.7 317.749 L2120.41 317.749 L2120.41 291.823 L2124.7 291.823 L2124.7 295.851 Q2126.16 293.466 2128.19 292.332 Q2130.23 291.198 2133.03 291.198 Q2135.85 291.198 2137.82 292.633 Q2139.81 294.068 2140.76 296.8 Z" fill="#000000" fill-rule="nonzero" fill-opacity="1" /><path clip-path="url(#clip810)" d="M2176.8 294.809 Q2173.38 294.809 2171.39 297.494 Q2169.4 300.156 2169.4 304.809 Q2169.4 309.462 2171.36 312.147 Q2173.35 314.809 2176.8 314.809 Q2180.21 314.809 2182.2 312.124 Q2184.19 309.438 2184.19 304.809 Q2184.19 300.202 2182.2 297.517 Q2180.21 294.809 2176.8 294.809 M2176.8 291.198 Q2182.36 291.198 2185.53 294.809 Q2188.7 298.42 2188.7 304.809 Q2188.7 311.175 2185.53 314.809 Q2182.36 318.42 2176.8 318.42 Q2171.22 318.42 2168.05 314.809 Q2164.91 311.175 2164.91 304.809 Q2164.91 298.42 2168.05 294.809 Q2171.22 291.198 2176.8 291.198 Z" fill="#000000" fill-rule="nonzero" fill-opacity="1" /><path clip-path="url(#clip810)" d="M2212.82 295.758 L2212.82 281.73 L2217.08 281.73 L2217.08 317.749 L2212.82 317.749 L2212.82 313.86 Q2211.48 316.175 2209.42 317.309 Q2207.38 318.42 2204.51 318.42 Q2199.81 318.42 2196.85 314.67 Q2193.91 310.92 2193.91 304.809 Q2193.91 298.698 2196.85 294.948 Q2199.81 291.198 2204.51 291.198 Q2207.38 291.198 2209.42 292.332 Q2211.48 293.443 2212.82 295.758 M2198.31 304.809 Q2198.31 309.508 2200.23 312.193 Q2202.17 314.855 2205.55 314.855 Q2208.93 314.855 2210.88 312.193 Q2212.82 309.508 2212.82 304.809 Q2212.82 300.11 2210.88 297.448 Q2208.93 294.763 2205.55 294.763 Q2202.17 294.763 2200.23 297.448 Q2198.31 300.11 2198.31 304.809 Z" fill="#000000" fill-rule="nonzero" fill-opacity="1" /><path clip-path="url(#clip810)" d="M2248.03 303.721 L2248.03 305.804 L2228.45 305.804 Q2228.72 310.202 2231.09 312.517 Q2233.47 314.809 2237.71 314.809 Q2240.16 314.809 2242.45 314.207 Q2244.77 313.605 2247.03 312.401 L2247.03 316.429 Q2244.74 317.401 2242.34 317.911 Q2239.93 318.42 2237.45 318.42 Q2231.25 318.42 2227.61 314.809 Q2224 311.198 2224 305.04 Q2224 298.675 2227.43 294.948 Q2230.88 291.198 2236.71 291.198 Q2241.94 291.198 2244.97 294.577 Q2248.03 297.934 2248.03 303.721 M2243.77 302.471 Q2243.72 298.976 2241.8 296.892 Q2239.9 294.809 2236.76 294.809 Q2233.19 294.809 2231.04 296.823 Q2228.91 298.837 2228.59 302.494 L2243.77 302.471 Z" fill="#000000" fill-rule="nonzero" fill-opacity="1" /><path clip-path="url(#clip810)" d="M2255.02 281.73 L2259.28 281.73 L2259.28 317.749 L2255.02 317.749 L2255.02 281.73 Z" fill="#000000" fill-rule="nonzero" fill-opacity="1" /></svg>
