<?xml version="1.0" encoding="utf-8"?>
<svg xmlns="http://www.w3.org/2000/svg" xmlns:xlink="http://www.w3.org/1999/xlink" width="600" height="400" viewBox="0 0 2400 1600">
<defs>
  <clipPath id="clip900">
    <rect x="0" y="0" width="2400" height="1600"/>
  </clipPath>
</defs>
<path clip-path="url(#clip900)" d="M0 1600 L2400 1600 L2400 0 L0 0  Z" fill="#ffffff" fill-rule="evenodd" fill-opacity="1"/>
<defs>
  <clipPath id="clip901">
    <rect x="480" y="0" width="1681" height="1600"/>
  </clipPath>
</defs>
<path clip-path="url(#clip900)" d="M210.977 1423.18 L2352.76 1423.18 L2352.76 123.472 L210.977 123.472  Z" fill="#ffffff" fill-rule="evenodd" fill-opacity="1"/>
<defs>
  <clipPath id="clip902">
    <rect x="210" y="123" width="2143" height="1301"/>
  </clipPath>
</defs>
<polyline clip-path="url(#clip902)" style="stroke:#000000; stroke-linecap:round; stroke-linejoin:round; stroke-width:2; stroke-opacity:0.1; fill:none" points="210.977,1423.18 210.977,123.472 "/>
<polyline clip-path="url(#clip902)" style="stroke:#000000; stroke-linecap:round; stroke-linejoin:round; stroke-width:2; stroke-opacity:0.1; fill:none" points="639.333,1423.18 639.333,123.472 "/>
<polyline clip-path="url(#clip902)" style="stroke:#000000; stroke-linecap:round; stroke-linejoin:round; stroke-width:2; stroke-opacity:0.1; fill:none" points="1067.69,1423.18 1067.69,123.472 "/>
<polyline clip-path="url(#clip902)" style="stroke:#000000; stroke-linecap:round; stroke-linejoin:round; stroke-width:2; stroke-opacity:0.1; fill:none" points="1496.04,1423.18 1496.04,123.472 "/>
<polyline clip-path="url(#clip902)" style="stroke:#000000; stroke-linecap:round; stroke-linejoin:round; stroke-width:2; stroke-opacity:0.1; fill:none" points="1924.4,1423.18 1924.4,123.472 "/>
<polyline clip-path="url(#clip902)" style="stroke:#000000; stroke-linecap:round; stroke-linejoin:round; stroke-width:2; stroke-opacity:0.1; fill:none" points="2352.76,1423.18 2352.76,123.472 "/>
<polyline clip-path="url(#clip900)" style="stroke:#000000; stroke-linecap:round; stroke-linejoin:round; stroke-width:4; stroke-opacity:1; fill:none" points="210.977,1423.18 2352.76,1423.18 "/>
<polyline clip-path="url(#clip900)" style="stroke:#000000; stroke-linecap:round; stroke-linejoin:round; stroke-width:4; stroke-opacity:1; fill:none" points="210.977,1423.18 210.977,1404.28 "/>
<polyline clip-path="url(#clip900)" style="stroke:#000000; stroke-linecap:round; stroke-linejoin:round; stroke-width:4; stroke-opacity:1; fill:none" points="639.333,1423.18 639.333,1404.28 "/>
<polyline clip-path="url(#clip900)" style="stroke:#000000; stroke-linecap:round; stroke-linejoin:round; stroke-width:4; stroke-opacity:1; fill:none" points="1067.69,1423.18 1067.69,1404.28 "/>
<polyline clip-path="url(#clip900)" style="stroke:#000000; stroke-linecap:round; stroke-linejoin:round; stroke-width:4; stroke-opacity:1; fill:none" points="1496.04,1423.18 1496.04,1404.28 "/>
<polyline clip-path="url(#clip900)" style="stroke:#000000; stroke-linecap:round; stroke-linejoin:round; stroke-width:4; stroke-opacity:1; fill:none" points="1924.4,1423.18 1924.4,1404.28 "/>
<polyline clip-path="url(#clip900)" style="stroke:#000000; stroke-linecap:round; stroke-linejoin:round; stroke-width:4; stroke-opacity:1; fill:none" points="2352.76,1423.18 2352.76,1404.28 "/>
<path clip-path="url(#clip900)" d="M188.362 1454.1 Q184.751 1454.1 182.922 1457.66 Q181.116 1461.2 181.116 1468.33 Q181.116 1475.44 182.922 1479.01 Q184.751 1482.55 188.362 1482.55 Q191.996 1482.55 193.802 1479.01 Q195.63 1475.44 195.63 1468.33 Q195.63 1461.2 193.802 1457.66 Q191.996 1454.1 188.362 1454.1 M188.362 1450.39 Q194.172 1450.39 197.227 1455 Q200.306 1459.58 200.306 1468.33 Q200.306 1477.06 197.227 1481.67 Q194.172 1486.25 188.362 1486.25 Q182.552 1486.25 179.473 1481.67 Q176.417 1477.06 176.417 1468.33 Q176.417 1459.58 179.473 1455 Q182.552 1450.39 188.362 1450.39 Z" fill="#000000" fill-rule="nonzero" fill-opacity="1" /><path clip-path="url(#clip900)" d="M208.524 1479.7 L213.408 1479.7 L213.408 1485.58 L208.524 1485.58 L208.524 1479.7 Z" fill="#000000" fill-rule="nonzero" fill-opacity="1" /><path clip-path="url(#clip900)" d="M233.593 1454.1 Q229.982 1454.1 228.153 1457.66 Q226.348 1461.2 226.348 1468.33 Q226.348 1475.44 228.153 1479.01 Q229.982 1482.55 233.593 1482.55 Q237.227 1482.55 239.033 1479.01 Q240.862 1475.44 240.862 1468.33 Q240.862 1461.2 239.033 1457.66 Q237.227 1454.1 233.593 1454.1 M233.593 1450.39 Q239.403 1450.39 242.459 1455 Q245.537 1459.58 245.537 1468.33 Q245.537 1477.06 242.459 1481.67 Q239.403 1486.25 233.593 1486.25 Q227.783 1486.25 224.704 1481.67 Q221.649 1477.06 221.649 1468.33 Q221.649 1459.58 224.704 1455 Q227.783 1450.39 233.593 1450.39 Z" fill="#000000" fill-rule="nonzero" fill-opacity="1" /><path clip-path="url(#clip900)" d="M617.516 1454.1 Q613.905 1454.1 612.076 1457.66 Q610.271 1461.2 610.271 1468.33 Q610.271 1475.44 612.076 1479.01 Q613.905 1482.55 617.516 1482.55 Q621.15 1482.55 622.956 1479.01 Q624.785 1475.44 624.785 1468.33 Q624.785 1461.2 622.956 1457.66 Q621.15 1454.1 617.516 1454.1 M617.516 1450.39 Q623.326 1450.39 626.382 1455 Q629.46 1459.58 629.46 1468.33 Q629.46 1477.06 626.382 1481.67 Q623.326 1486.25 617.516 1486.25 Q611.706 1486.25 608.627 1481.67 Q605.572 1477.06 605.572 1468.33 Q605.572 1459.58 608.627 1455 Q611.706 1450.39 617.516 1450.39 Z" fill="#000000" fill-rule="nonzero" fill-opacity="1" /><path clip-path="url(#clip900)" d="M637.678 1479.7 L642.562 1479.7 L642.562 1485.58 L637.678 1485.58 L637.678 1479.7 Z" fill="#000000" fill-rule="nonzero" fill-opacity="1" /><path clip-path="url(#clip900)" d="M656.775 1481.64 L673.095 1481.64 L673.095 1485.58 L651.15 1485.58 L651.15 1481.64 Q653.812 1478.89 658.396 1474.26 Q663.002 1469.61 664.183 1468.27 Q666.428 1465.74 667.308 1464.01 Q668.21 1462.25 668.21 1460.56 Q668.21 1457.8 666.266 1456.07 Q664.345 1454.33 661.243 1454.33 Q659.044 1454.33 656.59 1455.09 Q654.159 1455.86 651.382 1457.41 L651.382 1452.69 Q654.206 1451.55 656.659 1450.97 Q659.113 1450.39 661.15 1450.39 Q666.52 1450.39 669.715 1453.08 Q672.909 1455.77 672.909 1460.26 Q672.909 1462.39 672.099 1464.31 Q671.312 1466.2 669.206 1468.8 Q668.627 1469.47 665.525 1472.69 Q662.423 1475.88 656.775 1481.64 Z" fill="#000000" fill-rule="nonzero" fill-opacity="1" /><path clip-path="url(#clip900)" d="M1044.83 1454.1 Q1041.22 1454.1 1039.39 1457.66 Q1037.58 1461.2 1037.58 1468.33 Q1037.58 1475.44 1039.39 1479.01 Q1041.22 1482.55 1044.83 1482.55 Q1048.46 1482.55 1050.27 1479.01 Q1052.1 1475.44 1052.1 1468.33 Q1052.1 1461.2 1050.27 1457.66 Q1048.46 1454.1 1044.83 1454.1 M1044.83 1450.39 Q1050.64 1450.39 1053.7 1455 Q1056.77 1459.58 1056.77 1468.33 Q1056.77 1477.06 1053.7 1481.67 Q1050.64 1486.25 1044.83 1486.25 Q1039.02 1486.25 1035.94 1481.67 Q1032.89 1477.06 1032.89 1468.33 Q1032.89 1459.58 1035.94 1455 Q1039.02 1450.39 1044.83 1450.39 Z" fill="#000000" fill-rule="nonzero" fill-opacity="1" /><path clip-path="url(#clip900)" d="M1064.99 1479.7 L1069.88 1479.7 L1069.88 1485.58 L1064.99 1485.58 L1064.99 1479.7 Z" fill="#000000" fill-rule="nonzero" fill-opacity="1" /><path clip-path="url(#clip900)" d="M1092.91 1455.09 L1081.1 1473.54 L1092.91 1473.54 L1092.91 1455.09 M1091.68 1451.02 L1097.56 1451.02 L1097.56 1473.54 L1102.49 1473.54 L1102.49 1477.43 L1097.56 1477.43 L1097.56 1485.58 L1092.91 1485.58 L1092.91 1477.43 L1077.31 1477.43 L1077.31 1472.92 L1091.68 1451.02 Z" fill="#000000" fill-rule="nonzero" fill-opacity="1" /><path clip-path="url(#clip900)" d="M1473.35 1454.1 Q1469.74 1454.1 1467.91 1457.66 Q1466.1 1461.2 1466.1 1468.33 Q1466.1 1475.44 1467.91 1479.01 Q1469.74 1482.55 1473.35 1482.55 Q1476.98 1482.55 1478.79 1479.01 Q1480.62 1475.44 1480.62 1468.33 Q1480.62 1461.2 1478.79 1457.66 Q1476.98 1454.1 1473.35 1454.1 M1473.35 1450.39 Q1479.16 1450.39 1482.21 1455 Q1485.29 1459.58 1485.29 1468.33 Q1485.29 1477.06 1482.21 1481.67 Q1479.16 1486.25 1473.35 1486.25 Q1467.54 1486.25 1464.46 1481.67 Q1461.4 1477.06 1461.4 1468.33 Q1461.4 1459.58 1464.46 1455 Q1467.54 1450.39 1473.35 1450.39 Z" fill="#000000" fill-rule="nonzero" fill-opacity="1" /><path clip-path="url(#clip900)" d="M1493.51 1479.7 L1498.39 1479.7 L1498.39 1485.58 L1493.51 1485.58 L1493.51 1479.7 Z" fill="#000000" fill-rule="nonzero" fill-opacity="1" /><path clip-path="url(#clip900)" d="M1519.16 1466.44 Q1516.01 1466.44 1514.16 1468.59 Q1512.33 1470.74 1512.33 1474.49 Q1512.33 1478.22 1514.16 1480.39 Q1516.01 1482.55 1519.16 1482.55 Q1522.31 1482.55 1524.13 1480.39 Q1525.99 1478.22 1525.99 1474.49 Q1525.99 1470.74 1524.13 1468.59 Q1522.31 1466.44 1519.16 1466.44 M1528.44 1451.78 L1528.44 1456.04 Q1526.68 1455.21 1524.88 1454.77 Q1523.09 1454.33 1521.33 1454.33 Q1516.7 1454.33 1514.25 1457.45 Q1511.82 1460.58 1511.47 1466.9 Q1512.84 1464.89 1514.9 1463.82 Q1516.96 1462.73 1519.44 1462.73 Q1524.64 1462.73 1527.65 1465.9 Q1530.69 1469.05 1530.69 1474.49 Q1530.69 1479.82 1527.54 1483.03 Q1524.39 1486.25 1519.16 1486.25 Q1513.16 1486.25 1509.99 1481.67 Q1506.82 1477.06 1506.82 1468.33 Q1506.82 1460.14 1510.71 1455.28 Q1514.6 1450.39 1521.15 1450.39 Q1522.91 1450.39 1524.69 1450.74 Q1526.5 1451.09 1528.44 1451.78 Z" fill="#000000" fill-rule="nonzero" fill-opacity="1" /><path clip-path="url(#clip900)" d="M1901.83 1454.1 Q1898.22 1454.1 1896.39 1457.66 Q1894.59 1461.2 1894.59 1468.33 Q1894.59 1475.44 1896.39 1479.01 Q1898.22 1482.55 1901.83 1482.55 Q1905.47 1482.55 1907.27 1479.01 Q1909.1 1475.44 1909.1 1468.33 Q1909.1 1461.2 1907.27 1457.66 Q1905.47 1454.1 1901.83 1454.1 M1901.83 1450.39 Q1907.64 1450.39 1910.7 1455 Q1913.78 1459.58 1913.78 1468.33 Q1913.78 1477.06 1910.7 1481.67 Q1907.64 1486.25 1901.83 1486.25 Q1896.02 1486.25 1892.94 1481.67 Q1889.89 1477.06 1889.89 1468.33 Q1889.89 1459.58 1892.94 1455 Q1896.02 1450.39 1901.83 1450.39 Z" fill="#000000" fill-rule="nonzero" fill-opacity="1" /><path clip-path="url(#clip900)" d="M1921.99 1479.7 L1926.88 1479.7 L1926.88 1485.58 L1921.99 1485.58 L1921.99 1479.7 Z" fill="#000000" fill-rule="nonzero" fill-opacity="1" /><path clip-path="url(#clip900)" d="M1947.06 1469.17 Q1943.73 1469.17 1941.81 1470.95 Q1939.91 1472.73 1939.91 1475.86 Q1939.91 1478.98 1941.81 1480.77 Q1943.73 1482.55 1947.06 1482.55 Q1950.4 1482.55 1952.32 1480.77 Q1954.24 1478.96 1954.24 1475.86 Q1954.24 1472.73 1952.32 1470.95 Q1950.42 1469.17 1947.06 1469.17 M1942.39 1467.18 Q1939.38 1466.44 1937.69 1464.38 Q1936.02 1462.32 1936.02 1459.35 Q1936.02 1455.21 1938.96 1452.8 Q1941.92 1450.39 1947.06 1450.39 Q1952.22 1450.39 1955.16 1452.8 Q1958.1 1455.21 1958.1 1459.35 Q1958.1 1462.32 1956.41 1464.38 Q1954.75 1466.44 1951.76 1467.18 Q1955.14 1467.96 1957.02 1470.26 Q1958.91 1472.55 1958.91 1475.86 Q1958.91 1480.88 1955.84 1483.57 Q1952.78 1486.25 1947.06 1486.25 Q1941.34 1486.25 1938.27 1483.57 Q1935.21 1480.88 1935.21 1475.86 Q1935.21 1472.55 1937.11 1470.26 Q1939.01 1467.96 1942.39 1467.18 M1940.67 1459.79 Q1940.67 1462.48 1942.34 1463.98 Q1944.03 1465.49 1947.06 1465.49 Q1950.07 1465.49 1951.76 1463.98 Q1953.47 1462.48 1953.47 1459.79 Q1953.47 1457.11 1951.76 1455.6 Q1950.07 1454.1 1947.06 1454.1 Q1944.03 1454.1 1942.34 1455.6 Q1940.67 1457.11 1940.67 1459.79 Z" fill="#000000" fill-rule="nonzero" fill-opacity="1" /><path clip-path="url(#clip900)" d="M2319.91 1481.64 L2327.55 1481.64 L2327.55 1455.28 L2319.24 1456.95 L2319.24 1452.69 L2327.5 1451.02 L2332.18 1451.02 L2332.18 1481.64 L2339.82 1481.64 L2339.82 1485.58 L2319.91 1485.58 L2319.91 1481.64 Z" fill="#000000" fill-rule="nonzero" fill-opacity="1" /><path clip-path="url(#clip900)" d="M2349.26 1479.7 L2354.14 1479.7 L2354.14 1485.58 L2349.26 1485.58 L2349.26 1479.7 Z" fill="#000000" fill-rule="nonzero" fill-opacity="1" /><path clip-path="url(#clip900)" d="M2374.33 1454.1 Q2370.72 1454.1 2368.89 1457.66 Q2367.08 1461.2 2367.08 1468.33 Q2367.08 1475.44 2368.89 1479.01 Q2370.72 1482.55 2374.33 1482.55 Q2377.96 1482.55 2379.77 1479.01 Q2381.6 1475.44 2381.6 1468.33 Q2381.6 1461.2 2379.77 1457.66 Q2377.96 1454.1 2374.33 1454.1 M2374.33 1450.39 Q2380.14 1450.39 2383.2 1455 Q2386.27 1459.58 2386.27 1468.33 Q2386.27 1477.06 2383.2 1481.67 Q2380.14 1486.25 2374.33 1486.25 Q2368.52 1486.25 2365.44 1481.67 Q2362.39 1477.06 2362.39 1468.33 Q2362.39 1459.58 2365.44 1455 Q2368.52 1450.39 2374.33 1450.39 Z" fill="#000000" fill-rule="nonzero" fill-opacity="1" /><path clip-path="url(#clip900)" d="M1282.76 1524.09 L1299.21 1568.04 L1293.01 1568.04 L1283.01 1541.69 L1270.73 1568.04 L1264.52 1568.04 L1280.15 1533.86 L1277.79 1527.56 Q1276.3 1523.55 1272.89 1523.55 L1269.84 1523.55 L1269.84 1518.52 L1273.56 1518.58 Q1280.75 1518.68 1282.76 1524.09 Z" fill="#000000" fill-rule="nonzero" fill-opacity="1" /><polyline clip-path="url(#clip902)" style="stroke:#000000; stroke-linecap:round; stroke-linejoin:round; stroke-width:2; stroke-opacity:0.1; fill:none" points="210.977,1270.27 2352.76,1270.27 "/>
<polyline clip-path="url(#clip902)" style="stroke:#000000; stroke-linecap:round; stroke-linejoin:round; stroke-width:2; stroke-opacity:0.1; fill:none" points="210.977,888.006 2352.76,888.006 "/>
<polyline clip-path="url(#clip902)" style="stroke:#000000; stroke-linecap:round; stroke-linejoin:round; stroke-width:2; stroke-opacity:0.1; fill:none" points="210.977,505.739 2352.76,505.739 "/>
<polyline clip-path="url(#clip902)" style="stroke:#000000; stroke-linecap:round; stroke-linejoin:round; stroke-width:2; stroke-opacity:0.1; fill:none" points="210.977,123.472 2352.76,123.472 "/>
<polyline clip-path="url(#clip900)" style="stroke:#000000; stroke-linecap:round; stroke-linejoin:round; stroke-width:4; stroke-opacity:1; fill:none" points="210.977,1423.18 210.977,123.472 "/>
<polyline clip-path="url(#clip900)" style="stroke:#000000; stroke-linecap:round; stroke-linejoin:round; stroke-width:4; stroke-opacity:1; fill:none" points="210.977,1270.27 229.875,1270.27 "/>
<polyline clip-path="url(#clip900)" style="stroke:#000000; stroke-linecap:round; stroke-linejoin:round; stroke-width:4; stroke-opacity:1; fill:none" points="210.977,888.006 229.875,888.006 "/>
<polyline clip-path="url(#clip900)" style="stroke:#000000; stroke-linecap:round; stroke-linejoin:round; stroke-width:4; stroke-opacity:1; fill:none" points="210.977,505.739 229.875,505.739 "/>
<polyline clip-path="url(#clip900)" style="stroke:#000000; stroke-linecap:round; stroke-linejoin:round; stroke-width:4; stroke-opacity:1; fill:none" points="210.977,123.472 229.875,123.472 "/>
<path clip-path="url(#clip900)" d="M114.26 1270.72 L143.936 1270.72 L143.936 1274.66 L114.26 1274.66 L114.26 1270.72 Z" fill="#000000" fill-rule="nonzero" fill-opacity="1" /><path clip-path="url(#clip900)" d="M154.075 1252.99 L172.431 1252.99 L172.431 1256.93 L158.357 1256.93 L158.357 1265.4 Q159.376 1265.05 160.394 1264.89 Q161.413 1264.71 162.431 1264.71 Q168.218 1264.71 171.598 1267.88 Q174.977 1271.05 174.977 1276.47 Q174.977 1282.04 171.505 1285.15 Q168.033 1288.22 161.714 1288.22 Q159.538 1288.22 157.269 1287.85 Q155.024 1287.48 152.616 1286.74 L152.616 1282.04 Q154.7 1283.18 156.922 1283.73 Q159.144 1284.29 161.621 1284.29 Q165.626 1284.29 167.964 1282.18 Q170.302 1280.08 170.302 1276.47 Q170.302 1272.85 167.964 1270.75 Q165.626 1268.64 161.621 1268.64 Q159.746 1268.64 157.871 1269.06 Q156.019 1269.47 154.075 1270.35 L154.075 1252.99 Z" fill="#000000" fill-rule="nonzero" fill-opacity="1" /><path clip-path="url(#clip900)" d="M163.033 873.805 Q159.422 873.805 157.593 877.37 Q155.788 880.911 155.788 888.041 Q155.788 895.147 157.593 898.712 Q159.422 902.254 163.033 902.254 Q166.667 902.254 168.473 898.712 Q170.302 895.147 170.302 888.041 Q170.302 880.911 168.473 877.37 Q166.667 873.805 163.033 873.805 M163.033 870.101 Q168.843 870.101 171.899 874.708 Q174.977 879.291 174.977 888.041 Q174.977 896.768 171.899 901.374 Q168.843 905.957 163.033 905.957 Q157.223 905.957 154.144 901.374 Q151.089 896.768 151.089 888.041 Q151.089 879.291 154.144 874.708 Q157.223 870.101 163.033 870.101 Z" fill="#000000" fill-rule="nonzero" fill-opacity="1" /><path clip-path="url(#clip900)" d="M154.075 488.459 L172.431 488.459 L172.431 492.394 L158.357 492.394 L158.357 500.866 Q159.376 500.519 160.394 500.357 Q161.413 500.172 162.431 500.172 Q168.218 500.172 171.598 503.343 Q174.977 506.515 174.977 511.931 Q174.977 517.51 171.505 520.612 Q168.033 523.69 161.714 523.69 Q159.538 523.69 157.269 523.32 Q155.024 522.95 152.616 522.209 L152.616 517.51 Q154.7 518.644 156.922 519.2 Q159.144 519.755 161.621 519.755 Q165.626 519.755 167.964 517.649 Q170.302 515.542 170.302 511.931 Q170.302 508.32 167.964 506.214 Q165.626 504.107 161.621 504.107 Q159.746 504.107 157.871 504.524 Q156.019 504.94 154.075 505.82 L154.075 488.459 Z" fill="#000000" fill-rule="nonzero" fill-opacity="1" /><path clip-path="url(#clip900)" d="M123.681 136.817 L131.32 136.817 L131.32 110.451 L123.01 112.118 L123.01 107.859 L131.274 106.192 L135.95 106.192 L135.95 136.817 L143.589 136.817 L143.589 140.752 L123.681 140.752 L123.681 136.817 Z" fill="#000000" fill-rule="nonzero" fill-opacity="1" /><path clip-path="url(#clip900)" d="M163.033 109.271 Q159.422 109.271 157.593 112.836 Q155.788 116.377 155.788 123.507 Q155.788 130.613 157.593 134.178 Q159.422 137.72 163.033 137.72 Q166.667 137.72 168.473 134.178 Q170.302 130.613 170.302 123.507 Q170.302 116.377 168.473 112.836 Q166.667 109.271 163.033 109.271 M163.033 105.567 Q168.843 105.567 171.899 110.174 Q174.977 114.757 174.977 123.507 Q174.977 132.234 171.899 136.84 Q168.843 141.423 163.033 141.423 Q157.223 141.423 154.144 136.84 Q151.089 132.234 151.089 123.507 Q151.089 114.757 154.144 110.174 Q157.223 105.567 163.033 105.567 Z" fill="#000000" fill-rule="nonzero" fill-opacity="1" /><path clip-path="url(#clip900)" d="M16.4842 925.673 L16.4842 919.244 L64.0042 919.244 L64.0042 925.673 L16.4842 925.673 Z" fill="#000000" fill-rule="nonzero" fill-opacity="1" /><path clip-path="url(#clip900)" d="M42.4881 877.071 L64.0042 877.071 L64.0042 882.928 L42.679 882.928 Q37.6183 882.928 35.1038 884.901 Q32.5894 886.874 32.5894 890.821 Q32.5894 895.563 35.6131 898.301 Q38.6368 901.038 43.8567 901.038 L64.0042 901.038 L64.0042 906.926 L28.3562 906.926 L28.3562 901.038 L33.8944 901.038 Q30.6797 898.937 29.0883 896.105 Q27.4968 893.24 27.4968 889.516 Q27.4968 883.373 31.3163 880.222 Q35.1038 877.071 42.4881 877.071 Z" fill="#000000" fill-rule="nonzero" fill-opacity="1" /><path clip-path="url(#clip900)" d="M18.2347 859.597 L28.3562 859.597 L28.3562 847.534 L32.9077 847.534 L32.9077 859.597 L52.2594 859.597 Q56.6199 859.597 57.8613 858.42 Q59.1026 857.21 59.1026 853.55 L59.1026 847.534 L64.0042 847.534 L64.0042 853.55 Q64.0042 860.329 61.4897 862.907 Q58.9434 865.486 52.2594 865.486 L32.9077 865.486 L32.9077 869.782 L28.3562 869.782 L28.3562 865.486 L18.2347 865.486 L18.2347 859.597 Z" fill="#000000" fill-rule="nonzero" fill-opacity="1" /><path clip-path="url(#clip900)" d="M44.7161 809.34 L47.5806 809.34 L47.5806 836.267 Q53.6281 835.885 56.8109 832.638 Q59.9619 829.36 59.9619 823.535 Q59.9619 820.162 59.1344 817.011 Q58.3069 813.828 56.6518 810.709 L62.1899 810.709 Q63.5267 813.86 64.227 817.17 Q64.9272 820.48 64.9272 823.886 Q64.9272 832.416 59.9619 837.413 Q54.9967 842.378 46.5303 842.378 Q37.7774 842.378 32.6531 837.667 Q27.4968 832.925 27.4968 824.904 Q27.4968 817.711 32.1438 813.541 Q36.7589 809.34 44.7161 809.34 M42.9973 815.196 Q38.1912 815.26 35.3266 817.902 Q32.4621 820.512 32.4621 824.84 Q32.4621 829.742 35.2312 832.702 Q38.0002 835.63 43.0292 836.076 L42.9973 815.196 Z" fill="#000000" fill-rule="nonzero" fill-opacity="1" /><path clip-path="url(#clip900)" d="M45.7664 776.27 Q39.4007 776.27 35.8996 778.912 Q32.3984 781.522 32.3984 786.264 Q32.3984 790.975 35.8996 793.617 Q39.4007 796.227 45.7664 796.227 Q52.1003 796.227 55.6014 793.617 Q59.1026 790.975 59.1026 786.264 Q59.1026 781.522 55.6014 778.912 Q52.1003 776.27 45.7664 776.27 M59.58 770.414 Q68.683 770.414 73.1071 774.456 Q77.5631 778.498 77.5631 786.837 Q77.5631 789.925 77.0857 792.662 Q76.6401 795.399 75.6852 797.977 L69.9879 797.977 Q71.3884 795.399 72.0568 792.885 Q72.7252 790.37 72.7252 787.76 Q72.7252 781.999 69.7015 779.135 Q66.7096 776.27 60.6303 776.27 L57.7339 776.27 Q60.885 778.084 62.4446 780.917 Q64.0042 783.75 64.0042 787.697 Q64.0042 794.253 59.0071 798.264 Q54.01 802.274 45.7664 802.274 Q37.491 802.274 32.4939 798.264 Q27.4968 794.253 27.4968 787.697 Q27.4968 783.75 29.0564 780.917 Q30.616 778.084 33.7671 776.27 L28.3562 776.27 L28.3562 770.414 L59.58 770.414 Z" fill="#000000" fill-rule="nonzero" fill-opacity="1" /><path clip-path="url(#clip900)" d="M33.8307 737.694 Q33.2578 738.681 33.0032 739.858 Q32.7167 741.004 32.7167 742.405 Q32.7167 747.37 35.9632 750.043 Q39.1779 752.685 45.2253 752.685 L64.0042 752.685 L64.0042 758.573 L28.3562 758.573 L28.3562 752.685 L33.8944 752.685 Q30.6479 750.839 29.0883 747.879 Q27.4968 744.919 27.4968 740.686 Q27.4968 740.081 27.5923 739.349 Q27.656 738.617 27.8151 737.726 L33.8307 737.694 Z" fill="#000000" fill-rule="nonzero" fill-opacity="1" /><path clip-path="url(#clip900)" d="M46.0847 715.35 Q46.0847 722.448 47.7079 725.185 Q49.3312 727.923 53.2461 727.923 Q56.3653 727.923 58.2114 725.886 Q60.0256 723.817 60.0256 720.284 Q60.0256 715.414 56.5881 712.486 Q53.1188 709.526 47.3897 709.526 L46.0847 709.526 L46.0847 715.35 M43.6657 703.669 L64.0042 703.669 L64.0042 709.526 L58.5933 709.526 Q61.8398 711.531 63.3994 714.523 Q64.9272 717.515 64.9272 721.843 Q64.9272 727.318 61.8716 730.564 Q58.7843 733.779 53.6281 733.779 Q47.6125 733.779 44.5569 729.769 Q41.5014 725.726 41.5014 717.737 L41.5014 709.526 L40.9285 709.526 Q36.8862 709.526 34.6901 712.199 Q32.4621 714.841 32.4621 719.647 Q32.4621 722.703 33.1941 725.599 Q33.9262 728.495 35.3903 731.169 L29.9795 731.169 Q28.7381 727.954 28.1334 724.931 Q27.4968 721.907 27.4968 719.042 Q27.4968 711.308 31.5072 707.489 Q35.5176 703.669 43.6657 703.669 Z" fill="#000000" fill-rule="nonzero" fill-opacity="1" /><path clip-path="url(#clip900)" d="M42.4881 661.974 L64.0042 661.974 L64.0042 667.83 L42.679 667.83 Q37.6183 667.83 35.1038 669.804 Q32.5894 671.777 32.5894 675.724 Q32.5894 680.466 35.6131 683.203 Q38.6368 685.941 43.8567 685.941 L64.0042 685.941 L64.0042 691.829 L28.3562 691.829 L28.3562 685.941 L33.8944 685.941 Q30.6797 683.84 29.0883 681.007 Q27.4968 678.143 27.4968 674.419 Q27.4968 668.276 31.3163 665.125 Q35.1038 661.974 42.4881 661.974 Z" fill="#000000" fill-rule="nonzero" fill-opacity="1" /><path clip-path="url(#clip900)" d="M33.7671 626.835 L14.479 626.835 L14.479 620.979 L64.0042 620.979 L64.0042 626.835 L58.657 626.835 Q61.8398 628.681 63.3994 631.514 Q64.9272 634.315 64.9272 638.262 Q64.9272 644.723 59.771 648.797 Q54.6147 652.839 46.212 652.839 Q37.8093 652.839 32.6531 648.797 Q27.4968 644.723 27.4968 638.262 Q27.4968 634.315 29.0564 631.514 Q30.5842 628.681 33.7671 626.835 M46.212 646.792 Q52.6732 646.792 56.3653 644.15 Q60.0256 641.476 60.0256 636.829 Q60.0256 632.182 56.3653 629.509 Q52.6732 626.835 46.212 626.835 Q39.7508 626.835 36.0905 629.509 Q32.3984 632.182 32.3984 636.829 Q32.3984 641.476 36.0905 644.15 Q39.7508 646.792 46.212 646.792 Z" fill="#000000" fill-rule="nonzero" fill-opacity="1" /><path clip-path="url(#clip900)" d="M650.797 44.2197 Q653.43 45.1109 655.901 48.0275 Q658.412 50.9442 660.924 56.0483 L669.228 72.576 L660.438 72.576 L652.7 57.061 Q649.703 50.9847 646.867 48.9997 Q644.072 47.0148 639.211 47.0148 L630.299 47.0148 L630.299 72.576 L622.116 72.576 L622.116 12.096 L640.588 12.096 Q650.959 12.096 656.063 16.4305 Q661.167 20.7649 661.167 29.5149 Q661.167 35.2267 658.493 38.994 Q655.86 42.7613 650.797 44.2197 M630.299 18.8205 L630.299 40.2903 L640.588 40.2903 Q646.503 40.2903 649.5 37.5762 Q652.538 34.8216 652.538 29.5149 Q652.538 24.2082 649.5 21.5346 Q646.503 18.8205 640.588 18.8205 L630.299 18.8205 Z" fill="#000000" fill-rule="nonzero" fill-opacity="1" /><path clip-path="url(#clip900)" d="M698.233 49.7694 Q689.199 49.7694 685.715 51.8354 Q682.232 53.9013 682.232 58.8839 Q682.232 62.8538 684.824 65.2034 Q687.457 67.5124 691.954 67.5124 Q698.152 67.5124 701.878 63.1374 Q705.646 58.7219 705.646 51.4303 L705.646 49.7694 L698.233 49.7694 M713.099 46.6907 L713.099 72.576 L705.646 72.576 L705.646 65.6895 Q703.094 69.8214 699.286 71.8063 Q695.478 73.7508 689.969 73.7508 Q683.001 73.7508 678.869 69.8619 Q674.778 65.9325 674.778 59.3701 Q674.778 51.7138 679.882 47.825 Q685.027 43.9361 695.194 43.9361 L705.646 43.9361 L705.646 43.2069 Q705.646 38.0623 702.243 35.2672 Q698.881 32.4315 692.764 32.4315 Q688.875 32.4315 685.189 33.3632 Q681.502 34.295 678.1 36.1584 L678.1 29.2718 Q682.191 27.692 686.039 26.9223 Q689.888 26.1121 693.534 26.1121 Q703.377 26.1121 708.238 31.2163 Q713.099 36.3204 713.099 46.6907 Z" fill="#000000" fill-rule="nonzero" fill-opacity="1" /><path clip-path="url(#clip900)" d="M757.376 28.5427 L757.376 35.5912 Q754.216 33.9709 750.813 33.1607 Q747.411 32.3505 743.765 32.3505 Q738.215 32.3505 735.42 34.0519 Q732.665 35.7533 732.665 39.156 Q732.665 41.7486 734.65 43.2475 Q736.635 44.7058 742.631 46.0426 L745.183 46.6097 Q753.122 48.3111 756.444 51.4303 Q759.806 54.509 759.806 60.0587 Q759.806 66.3781 754.783 70.0644 Q749.801 73.7508 741.051 73.7508 Q737.405 73.7508 733.435 73.0216 Q729.506 72.3329 725.131 70.9151 L725.131 63.2184 Q729.263 65.3654 733.273 66.4591 Q737.283 67.5124 741.213 67.5124 Q746.479 67.5124 749.315 65.73 Q752.15 63.9071 752.15 60.6258 Q752.15 57.5877 750.084 55.9673 Q748.059 54.3469 741.132 52.8481 L738.539 52.2405 Q731.612 50.7821 728.533 47.7845 Q725.455 44.7463 725.455 39.4801 Q725.455 33.0797 729.992 29.5959 Q734.529 26.1121 742.874 26.1121 Q747.006 26.1121 750.651 26.7198 Q754.297 27.3274 757.376 28.5427 Z" fill="#000000" fill-rule="nonzero" fill-opacity="1" /><path clip-path="url(#clip900)" d="M806.999 35.9153 Q809.795 30.8922 813.683 28.5022 Q817.572 26.1121 822.838 26.1121 Q829.928 26.1121 833.776 31.0947 Q837.624 36.0368 837.624 45.1919 L837.624 72.576 L830.13 72.576 L830.13 45.4349 Q830.13 38.913 827.821 35.7533 Q825.512 32.5936 820.772 32.5936 Q814.98 32.5936 811.617 36.4419 Q808.255 40.2903 808.255 46.9338 L808.255 72.576 L800.761 72.576 L800.761 45.4349 Q800.761 38.8725 798.452 35.7533 Q796.143 32.5936 791.322 32.5936 Q785.611 32.5936 782.248 36.4824 Q778.886 40.3308 778.886 46.9338 L778.886 72.576 L771.392 72.576 L771.392 27.2059 L778.886 27.2059 L778.886 34.2544 Q781.438 30.082 785.003 28.0971 Q788.568 26.1121 793.469 26.1121 Q798.412 26.1121 801.855 28.6237 Q805.339 31.1352 806.999 35.9153 Z" fill="#000000" fill-rule="nonzero" fill-opacity="1" /><path clip-path="url(#clip900)" d="M851.721 54.671 L851.721 27.2059 L859.175 27.2059 L859.175 54.3874 Q859.175 60.8284 861.687 64.0691 Q864.198 67.2693 869.221 67.2693 Q875.257 67.2693 878.741 63.421 Q882.265 59.5726 882.265 52.9291 L882.265 27.2059 L889.719 27.2059 L889.719 72.576 L882.265 72.576 L882.265 65.6084 Q879.551 69.7404 875.946 71.7658 Q872.381 73.7508 867.641 73.7508 Q859.823 73.7508 855.772 68.8897 Q851.721 64.0286 851.721 54.671 M870.477 26.1121 L870.477 26.1121 Z" fill="#000000" fill-rule="nonzero" fill-opacity="1" /><path clip-path="url(#clip900)" d="M933.995 28.5427 L933.995 35.5912 Q930.836 33.9709 927.433 33.1607 Q924.03 32.3505 920.384 32.3505 Q914.834 32.3505 912.039 34.0519 Q909.285 35.7533 909.285 39.156 Q909.285 41.7486 911.27 43.2475 Q913.255 44.7058 919.25 46.0426 L921.802 46.6097 Q929.742 48.3111 933.064 51.4303 Q936.426 54.509 936.426 60.0587 Q936.426 66.3781 931.403 70.0644 Q926.42 73.7508 917.67 73.7508 Q914.024 73.7508 910.054 73.0216 Q906.125 72.3329 901.75 70.9151 L901.75 63.2184 Q905.882 65.3654 909.892 66.4591 Q913.903 67.5124 917.832 67.5124 Q923.098 67.5124 925.934 65.73 Q928.77 63.9071 928.77 60.6258 Q928.77 57.5877 926.704 55.9673 Q924.678 54.3469 917.751 52.8481 L915.159 52.2405 Q908.232 50.7821 905.153 47.7845 Q902.074 44.7463 902.074 39.4801 Q902.074 33.0797 906.611 29.5959 Q911.148 26.1121 919.493 26.1121 Q923.625 26.1121 927.271 26.7198 Q930.917 27.3274 933.995 28.5427 Z" fill="#000000" fill-rule="nonzero" fill-opacity="1" /><path clip-path="url(#clip900)" d="M965.876 32.4315 Q959.881 32.4315 956.397 37.1306 Q952.913 41.7891 952.913 49.9314 Q952.913 58.0738 956.356 62.7728 Q959.84 67.4314 965.876 67.4314 Q971.831 67.4314 975.314 62.7323 Q978.798 58.0333 978.798 49.9314 Q978.798 41.8701 975.314 37.1711 Q971.831 32.4315 965.876 32.4315 M965.876 26.1121 Q975.598 26.1121 981.148 32.4315 Q986.698 38.7509 986.698 49.9314 Q986.698 61.0714 981.148 67.4314 Q975.598 73.7508 965.876 73.7508 Q956.113 73.7508 950.563 67.4314 Q945.054 61.0714 945.054 49.9314 Q945.054 38.7509 950.563 32.4315 Q956.113 26.1121 965.876 26.1121 Z" fill="#000000" fill-rule="nonzero" fill-opacity="1" /><path clip-path="url(#clip900)" d="M1036.77 45.1919 L1036.77 72.576 L1029.31 72.576 L1029.31 45.4349 Q1029.31 38.994 1026.8 35.7938 Q1024.29 32.5936 1019.27 32.5936 Q1013.23 32.5936 1009.75 36.4419 Q1006.26 40.2903 1006.26 46.9338 L1006.26 72.576 L998.769 72.576 L998.769 27.2059 L1006.26 27.2059 L1006.26 34.2544 Q1008.94 30.163 1012.54 28.1376 Q1016.19 26.1121 1020.93 26.1121 Q1028.75 26.1121 1032.76 30.9732 Q1036.77 35.7938 1036.77 45.1919 Z" fill="#000000" fill-rule="nonzero" fill-opacity="1" /><path clip-path="url(#clip900)" d="M1058.68 12.096 L1058.68 34.5785 L1051.8 34.5785 L1051.8 12.096 L1058.68 12.096 Z" fill="#000000" fill-rule="nonzero" fill-opacity="1" /><path clip-path="url(#clip900)" d="M1103.36 28.5427 L1103.36 35.5912 Q1100.2 33.9709 1096.8 33.1607 Q1093.4 32.3505 1089.75 32.3505 Q1084.2 32.3505 1081.41 34.0519 Q1078.65 35.7533 1078.65 39.156 Q1078.65 41.7486 1080.64 43.2475 Q1082.62 44.7058 1088.62 46.0426 L1091.17 46.6097 Q1099.11 48.3111 1102.43 51.4303 Q1105.79 54.509 1105.79 60.0587 Q1105.79 66.3781 1100.77 70.0644 Q1095.79 73.7508 1087.04 73.7508 Q1083.39 73.7508 1079.42 73.0216 Q1075.49 72.3329 1071.12 70.9151 L1071.12 63.2184 Q1075.25 65.3654 1079.26 66.4591 Q1083.27 67.5124 1087.2 67.5124 Q1092.47 67.5124 1095.3 65.73 Q1098.14 63.9071 1098.14 60.6258 Q1098.14 57.5877 1096.07 55.9673 Q1094.05 54.3469 1087.12 52.8481 L1084.53 52.2405 Q1077.6 50.7821 1074.52 47.7845 Q1071.44 44.7463 1071.44 39.4801 Q1071.44 33.0797 1075.98 29.5959 Q1080.52 26.1121 1088.86 26.1121 Q1092.99 26.1121 1096.64 26.7198 Q1100.28 27.3274 1103.36 28.5427 Z" fill="#000000" fill-rule="nonzero" fill-opacity="1" /><path clip-path="url(#clip900)" d="M1144.03 27.2059 L1151.49 27.2059 L1151.49 72.576 L1144.03 72.576 L1144.03 27.2059 M1144.03 9.54393 L1151.49 9.54393 L1151.49 18.9825 L1144.03 18.9825 L1144.03 9.54393 Z" fill="#000000" fill-rule="nonzero" fill-opacity="1" /><path clip-path="url(#clip900)" d="M1204.8 45.1919 L1204.8 72.576 L1197.34 72.576 L1197.34 45.4349 Q1197.34 38.994 1194.83 35.7938 Q1192.32 32.5936 1187.3 32.5936 Q1181.26 32.5936 1177.78 36.4419 Q1174.29 40.2903 1174.29 46.9338 L1174.29 72.576 L1166.8 72.576 L1166.8 27.2059 L1174.29 27.2059 L1174.29 34.2544 Q1176.97 30.163 1180.57 28.1376 Q1184.22 26.1121 1188.96 26.1121 Q1196.78 26.1121 1200.79 30.9732 Q1204.8 35.7938 1204.8 45.1919 Z" fill="#000000" fill-rule="nonzero" fill-opacity="1" /><path clip-path="url(#clip900)" d="M1227.04 14.324 L1227.04 27.2059 L1242.39 27.2059 L1242.39 32.9987 L1227.04 32.9987 L1227.04 57.6282 Q1227.04 63.1779 1228.54 64.7578 Q1230.08 66.3376 1234.73 66.3376 L1242.39 66.3376 L1242.39 72.576 L1234.73 72.576 Q1226.11 72.576 1222.82 69.3758 Q1219.54 66.1351 1219.54 57.6282 L1219.54 32.9987 L1214.07 32.9987 L1214.07 27.2059 L1219.54 27.2059 L1219.54 14.324 L1227.04 14.324 Z" fill="#000000" fill-rule="nonzero" fill-opacity="1" /><path clip-path="url(#clip900)" d="M1291 48.0275 L1291 51.6733 L1256.73 51.6733 Q1257.22 59.3701 1261.35 63.421 Q1265.52 67.4314 1272.93 67.4314 Q1277.23 67.4314 1281.24 66.3781 Q1285.29 65.3249 1289.26 63.2184 L1289.26 70.267 Q1285.25 71.9684 1281.04 72.8596 Q1276.82 73.7508 1272.49 73.7508 Q1261.63 73.7508 1255.27 67.4314 Q1248.95 61.1119 1248.95 50.3365 Q1248.95 39.1965 1254.95 32.6746 Q1260.98 26.1121 1271.19 26.1121 Q1280.35 26.1121 1285.65 32.0264 Q1291 37.9003 1291 48.0275 M1283.55 45.84 Q1283.47 39.7232 1280.1 36.0774 Q1276.78 32.4315 1271.27 32.4315 Q1265.04 32.4315 1261.27 35.9558 Q1257.54 39.4801 1256.97 45.8805 L1283.55 45.84 Z" fill="#000000" fill-rule="nonzero" fill-opacity="1" /><path clip-path="url(#clip900)" d="M1333.09 49.3643 Q1333.09 41.2625 1329.73 36.8065 Q1326.41 32.3505 1320.37 32.3505 Q1314.38 32.3505 1311.01 36.8065 Q1307.69 41.2625 1307.69 49.3643 Q1307.69 57.4256 1311.01 61.8816 Q1314.38 66.3376 1320.37 66.3376 Q1326.41 66.3376 1329.73 61.8816 Q1333.09 57.4256 1333.09 49.3643 M1340.54 66.9452 Q1340.54 78.5308 1335.4 84.1616 Q1330.25 89.8329 1319.64 89.8329 Q1315.71 89.8329 1312.23 89.2252 Q1308.74 88.6581 1305.46 87.4428 L1305.46 80.1917 Q1308.74 81.9741 1311.94 82.8248 Q1315.14 83.6755 1318.47 83.6755 Q1325.8 83.6755 1329.44 79.8271 Q1333.09 76.0193 1333.09 68.282 L1333.09 64.5957 Q1330.78 68.6061 1327.18 70.5911 Q1323.57 72.576 1318.55 72.576 Q1310.2 72.576 1305.1 66.2161 Q1299.99 59.8562 1299.99 49.3643 Q1299.99 38.832 1305.1 32.472 Q1310.2 26.1121 1318.55 26.1121 Q1323.57 26.1121 1327.18 28.0971 Q1330.78 30.082 1333.09 34.0924 L1333.09 27.2059 L1340.54 27.2059 L1340.54 66.9452 Z" fill="#000000" fill-rule="nonzero" fill-opacity="1" /><path clip-path="url(#clip900)" d="M1382.19 34.1734 Q1380.93 33.4443 1379.43 33.1202 Q1377.97 32.7556 1376.19 32.7556 Q1369.87 32.7556 1366.47 36.8875 Q1363.11 40.9789 1363.11 48.6757 L1363.11 72.576 L1355.61 72.576 L1355.61 27.2059 L1363.11 27.2059 L1363.11 34.2544 Q1365.46 30.1225 1369.22 28.1376 Q1372.99 26.1121 1378.38 26.1121 Q1379.15 26.1121 1380.08 26.2337 Q1381.01 26.3147 1382.15 26.5172 L1382.19 34.1734 Z" fill="#000000" fill-rule="nonzero" fill-opacity="1" /><path clip-path="url(#clip900)" d="M1410.62 49.7694 Q1401.59 49.7694 1398.11 51.8354 Q1394.62 53.9013 1394.62 58.8839 Q1394.62 62.8538 1397.22 65.2034 Q1399.85 67.5124 1404.35 67.5124 Q1410.54 67.5124 1414.27 63.1374 Q1418.04 58.7219 1418.04 51.4303 L1418.04 49.7694 L1410.62 49.7694 M1425.49 46.6907 L1425.49 72.576 L1418.04 72.576 L1418.04 65.6895 Q1415.49 69.8214 1411.68 71.8063 Q1407.87 73.7508 1402.36 73.7508 Q1395.39 73.7508 1391.26 69.8619 Q1387.17 65.9325 1387.17 59.3701 Q1387.17 51.7138 1392.27 47.825 Q1397.42 43.9361 1407.59 43.9361 L1418.04 43.9361 L1418.04 43.2069 Q1418.04 38.0623 1414.64 35.2672 Q1411.27 32.4315 1405.16 32.4315 Q1401.27 32.4315 1397.58 33.3632 Q1393.89 34.295 1390.49 36.1584 L1390.49 29.2718 Q1394.58 27.692 1398.43 26.9223 Q1402.28 26.1121 1405.93 26.1121 Q1415.77 26.1121 1420.63 31.2163 Q1425.49 36.3204 1425.49 46.6907 Z" fill="#000000" fill-rule="nonzero" fill-opacity="1" /><path clip-path="url(#clip900)" d="M1478.56 45.1919 L1478.56 72.576 L1471.1 72.576 L1471.1 45.4349 Q1471.1 38.994 1468.59 35.7938 Q1466.08 32.5936 1461.06 32.5936 Q1455.02 32.5936 1451.54 36.4419 Q1448.06 40.2903 1448.06 46.9338 L1448.06 72.576 L1440.56 72.576 L1440.56 27.2059 L1448.06 27.2059 L1448.06 34.2544 Q1450.73 30.163 1454.33 28.1376 Q1457.98 26.1121 1462.72 26.1121 Q1470.54 26.1121 1474.55 30.9732 Q1478.56 35.7938 1478.56 45.1919 Z" fill="#000000" fill-rule="nonzero" fill-opacity="1" /><path clip-path="url(#clip900)" d="M1523.28 34.0924 L1523.28 9.54393 L1530.73 9.54393 L1530.73 72.576 L1523.28 72.576 L1523.28 65.7705 Q1520.93 69.8214 1517.33 71.8063 Q1513.76 73.7508 1508.74 73.7508 Q1500.51 73.7508 1495.33 67.1883 Q1490.18 60.6258 1490.18 49.9314 Q1490.18 39.2371 1495.33 32.6746 Q1500.51 26.1121 1508.74 26.1121 Q1513.76 26.1121 1517.33 28.0971 Q1520.93 30.0415 1523.28 34.0924 M1497.88 49.9314 Q1497.88 58.1548 1501.24 62.8538 Q1504.65 67.5124 1510.56 67.5124 Q1516.47 67.5124 1519.88 62.8538 Q1523.28 58.1548 1523.28 49.9314 Q1523.28 41.7081 1519.88 37.0496 Q1516.47 32.3505 1510.56 32.3505 Q1504.65 32.3505 1501.24 37.0496 Q1497.88 41.7081 1497.88 49.9314 Z" fill="#000000" fill-rule="nonzero" fill-opacity="1" /><path clip-path="url(#clip900)" d="M1547.99 62.2867 L1556.54 62.2867 L1556.54 69.2543 L1549.89 82.2172 L1544.67 82.2172 L1547.99 69.2543 L1547.99 62.2867 Z" fill="#000000" fill-rule="nonzero" fill-opacity="1" /><path clip-path="url(#clip900)" d="M1617.71 76.7889 Q1614.55 84.8907 1611.55 87.3618 Q1608.55 89.8329 1603.53 89.8329 L1597.57 89.8329 L1597.57 83.5945 L1601.95 83.5945 Q1605.03 83.5945 1606.73 82.1361 Q1608.43 80.6778 1610.5 75.2496 L1611.83 71.8468 L1593.48 27.2059 L1601.38 27.2059 L1615.56 62.6918 L1629.74 27.2059 L1637.64 27.2059 L1617.71 76.7889 Z" fill="#000000" fill-rule="nonzero" fill-opacity="1" /><path clip-path="url(#clip900)" d="M1648.9 34.9026 L1700.83 34.9026 L1700.83 41.7081 L1648.9 41.7081 L1648.9 34.9026 M1648.9 51.4303 L1700.83 51.4303 L1700.83 58.3168 L1648.9 58.3168 L1648.9 51.4303 Z" fill="#000000" fill-rule="nonzero" fill-opacity="1" /><path clip-path="url(#clip900)" d="M1725.54 65.6895 L1754.1 65.6895 L1754.1 72.576 L1715.7 72.576 L1715.7 65.6895 Q1720.36 60.8689 1728.38 52.7671 Q1736.44 44.6248 1738.5 42.2752 Q1742.43 37.8598 1743.97 34.8216 Q1745.55 31.7429 1745.55 28.7857 Q1745.55 23.9651 1742.15 20.927 Q1738.79 17.8888 1733.36 17.8888 Q1729.51 17.8888 1725.22 19.2256 Q1720.96 20.5624 1716.1 23.2765 L1716.1 15.0127 Q1721.05 13.0277 1725.34 12.015 Q1729.63 11.0023 1733.2 11.0023 Q1742.6 11.0023 1748.19 15.7013 Q1753.78 20.4004 1753.78 28.2591 Q1753.78 31.9859 1752.36 35.3482 Q1750.98 38.6699 1747.3 43.2069 Q1746.28 44.3817 1740.85 50.0125 Q1735.43 55.6027 1725.54 65.6895 Z" fill="#000000" fill-rule="nonzero" fill-opacity="1" /><path clip-path="url(#clip900)" d="M1789.79 39.075 Q1784.28 39.075 1781.04 42.8424 Q1777.84 46.6097 1777.84 53.1722 Q1777.84 59.6941 1781.04 63.502 Q1784.28 67.2693 1789.79 67.2693 Q1795.3 67.2693 1798.5 63.502 Q1801.74 59.6941 1801.74 53.1722 Q1801.74 46.6097 1798.5 42.8424 Q1795.3 39.075 1789.79 39.075 M1806.03 13.4328 L1806.03 20.8865 Q1802.95 19.4281 1799.8 18.6585 Q1796.68 17.8888 1793.6 17.8888 Q1785.5 17.8888 1781.2 23.3575 Q1776.95 28.8262 1776.34 39.8852 Q1778.73 36.3609 1782.34 34.4975 Q1785.94 32.5936 1790.28 32.5936 Q1799.39 32.5936 1804.66 38.1433 Q1809.96 43.6525 1809.96 53.1722 Q1809.96 62.4892 1804.45 68.12 Q1798.94 73.7508 1789.79 73.7508 Q1779.3 73.7508 1773.75 65.73 Q1768.2 57.6687 1768.2 42.3968 Q1768.2 28.0566 1775 19.5497 Q1781.81 11.0023 1793.27 11.0023 Q1796.35 11.0023 1799.47 11.6099 Q1802.63 12.2175 1806.03 13.4328 Z" fill="#000000" fill-rule="nonzero" fill-opacity="1" /><path clip-path="url(#clip900)" d="M1824.14 12.096 L1856.26 12.096 L1856.26 18.9825 L1831.64 18.9825 L1831.64 33.8088 Q1833.42 33.2012 1835.2 32.9176 Q1836.98 32.5936 1838.76 32.5936 Q1848.89 32.5936 1854.81 38.1433 Q1860.72 43.6931 1860.72 53.1722 Q1860.72 62.9348 1854.64 68.3631 Q1848.57 73.7508 1837.51 73.7508 Q1833.7 73.7508 1829.73 73.1026 Q1825.8 72.4545 1821.59 71.1582 L1821.59 62.9348 Q1825.23 64.9198 1829.12 65.892 Q1833.01 66.8642 1837.35 66.8642 Q1844.35 66.8642 1848.45 63.1779 Q1852.54 59.4916 1852.54 53.1722 Q1852.54 46.8528 1848.45 43.1664 Q1844.35 39.4801 1837.35 39.4801 Q1834.07 39.4801 1830.78 40.2093 Q1827.54 40.9384 1824.14 42.4778 L1824.14 12.096 Z" fill="#000000" fill-rule="nonzero" fill-opacity="1" /><path clip-path="url(#clip900)" d="M1876.84 62.2867 L1885.39 62.2867 L1885.39 72.576 L1876.84 72.576 L1876.84 62.2867 Z" fill="#000000" fill-rule="nonzero" fill-opacity="1" /><path clip-path="url(#clip900)" d="M1920.71 17.4837 Q1914.4 17.4837 1911.19 23.7221 Q1908.04 29.92 1908.04 42.3968 Q1908.04 54.833 1911.19 61.0714 Q1914.4 67.2693 1920.71 67.2693 Q1927.07 67.2693 1930.23 61.0714 Q1933.43 54.833 1933.43 42.3968 Q1933.43 29.92 1930.23 23.7221 Q1927.07 17.4837 1920.71 17.4837 M1920.71 11.0023 Q1930.88 11.0023 1936.23 19.0636 Q1941.62 27.0843 1941.62 42.3968 Q1941.62 57.6687 1936.23 65.73 Q1930.88 73.7508 1920.71 73.7508 Q1910.55 73.7508 1905.16 65.73 Q1899.81 57.6687 1899.81 42.3968 Q1899.81 27.0843 1905.16 19.0636 Q1910.55 11.0023 1920.71 11.0023 Z" fill="#000000" fill-rule="nonzero" fill-opacity="1" /><polyline clip-path="url(#clip902)" style="stroke:#1b9e77; stroke-linecap:round; stroke-linejoin:round; stroke-width:8; stroke-opacity:1; fill:none" points="214.463,871.493 217.949,854.977 221.436,838.462 224.922,821.948 257.155,669.385 289.388,518.514 297.447,481.58 305.505,445.203 313.564,409.55 321.622,374.818 329.68,341.234 337.739,309.056 345.797,278.574 353.855,250.109 358.698,234.118 363.541,219.062 368.384,205.027 373.226,192.098 378.069,180.367 382.912,169.925 387.755,160.867 392.597,153.287 397.44,147.282 402.283,142.946 407.125,140.374 411.968,139.658 416.811,140.889 421.654,144.15 426.496,149.525 431.339,157.085 435.434,165.234 439.528,175.029 443.623,186.501 447.717,199.676 451.812,214.572 455.906,231.201 460,249.568 464.095,269.668 468.189,291.49 472.284,315.012 476.378,340.202 480.473,367.02 484.567,395.413 488.662,425.317 492.756,456.657 496.851,489.346 501.299,526.267 505.746,564.52 510.194,603.944 514.642,644.36 523.537,727.377 532.433,811.828 541.328,895.736 550.224,976.941 554.671,1015.82 559.119,1053.15 563.567,1088.66 568.015,1122.03 572.115,1150.68 576.216,1177.05 580.316,1200.95 584.416,1222.19 586.467,1231.74 588.517,1240.57 590.567,1248.63 592.617,1255.93 594.667,1262.43 596.718,1268.12 598.768,1272.99 600.818,1277.02 602.868,1280.2 604.919,1282.53 606.969,1283.98 609.019,1284.56 611.069,1284.27 613.119,1283.08 615.17,1281.02 617.22,1278.07 619.27,1274.24 621.32,1269.54 623.371,1263.97 625.421,1257.54 627.471,1250.27 629.521,1242.16 631.571,1233.24 633.622,1223.52 635.82,1212.23 638.018,1200.08 640.216,1187.1 642.414,1173.32 646.81,1143.5 651.206,1110.98 655.602,1076.12 659.998,1039.35 664.394,1001.1 668.79,961.875 677.583,882.549 686.375,805.659 690.771,769.498 695.167,735.579 697.365,719.621 699.563,704.414 701.761,690.018 703.959,676.489 706.506,661.971 709.052,648.77 711.599,636.959 714.146,626.605 716.692,617.766 719.239,610.495 721.786,604.836 724.332,600.823 726.879,598.482 729.426,597.83 731.972,598.874 734.519,601.61 737.066,606.026 739.612,612.098 742.159,619.791 744.706,629.063 747.252,639.857 749.799,652.11 752.345,665.746 754.892,680.682 757.439,696.823 759.985,714.068 762.532,732.304 765.079,751.414 770.172,791.746 775.265,833.986 780.359,876.982 785.452,919.541 789.978,956.019 794.505,990.369 796.768,1006.5 799.031,1021.8 801.294,1036.18 803.557,1049.56 805.82,1061.87 808.084,1073.01 810.347,1082.94 812.61,1091.58 814.873,1098.88 817.136,1104.81 819.399,1109.32 821.663,1112.38 823.926,1113.98 826.189,1114.11 828.452,1112.78 830.715,1109.98 832.978,1105.74 835.242,1100.08 837.505,1093.06 839.768,1084.72 842.031,1075.11 844.294,1064.31 846.557,1052.38 848.821,1039.42 853.347,1010.77 857.873,979.166 865.812,919.412 873.75,858.781 877.719,829.869 881.688,802.793 885.657,778.185 889.627,756.62 891.611,747.14 893.596,738.604 895.58,731.063 897.565,724.56 899.55,719.132 901.534,714.812 903.519,711.622 905.503,709.58 907.488,708.695 909.473,708.969 911.457,710.397 913.442,712.966 915.426,716.655 917.411,721.436 919.396,727.274 921.38,734.127 923.544,742.697 925.708,752.341 927.871,762.977 930.035,774.517 934.363,799.907 938.69,827.654 947.345,886.415 956,942.889 958.164,955.733 960.327,967.842 962.491,979.111 964.655,989.445 966.819,998.756 968.982,1006.97 971.146,1014.01 973.31,1019.82 975.474,1024.37 977.637,1027.6 979.801,1029.51 981.965,1030.07 984.129,1029.3 986.292,1027.21 988.456,1023.83 990.62,1019.19 992.796,1013.32 994.973,1006.29 997.15,998.19 999.326,989.104 1003.68,968.368 1008.03,944.953 1016.74,894.069 1025.45,844.813 1027.62,833.721 1029.8,823.353 1031.98,813.816 1034.15,805.204 1036.33,797.603 1038.5,791.089 1040.68,785.722 1042.86,781.553 1045.03,778.617 1047.21,776.937 1049.39,776.52 1051.56,777.359 1053.74,779.434 1055.92,782.712 1058.09,787.142 1060.27,792.664 1062.68,799.951 1065.08,808.367 1067.49,817.779 1069.9,828.042 1074.71,850.486 1079.52,874.346 1084.34,898.202 1089.15,920.651 1091.56,930.933 1093.96,940.388 1096.37,948.88 1098.77,956.291 1101.18,962.52 1103.59,967.486 1105.99,971.127 1108.4,973.401 1110.81,974.292 1113.21,973.802 1115.62,971.957 1118.03,968.805 1120.43,964.414 1122.84,958.87 1125.25,952.28 1127.65,944.766 1132.47,927.522 1137.28,908.354 1141.86,889.54 1146.44,871.338 1151.02,854.847 1155.6,841.036 1157.89,835.39 1160.18,830.691 1162.47,826.999 1164.76,824.36 1167.05,822.8 1169.34,822.328 1171.62,822.934 1173.91,824.592 1176.2,827.259 1178.49,830.873 1180.78,835.361 1183.07,840.633 1187.65,853.114 1192.23,867.394 1196.81,882.452 1201.39,897.237 1203.68,904.209 1205.97,910.743 1208.26,916.732 1210.55,922.079 1212.93,926.87 1215.31,930.798 1217.69,933.806 1220.07,935.851 1222.45,936.912 1224.84,936.987 1227.22,936.093 1229.6,934.269 1234.36,928.061 1239.12,918.994 1243.88,907.908 1248.64,895.778 1253.4,883.636 1258.17,872.48 1262.93,863.191 1267.69,856.466 1270.07,854.217 1272.45,852.758 1274.83,852.104 1277.21,852.249 1279.59,853.172 1281.97,854.835 1284.35,857.184 1286.74,860.151 1294.75,873.537 1302.77,889.171 1306.78,896.551 1310.78,903.012 1314.79,908.171 1318.8,911.745 1322.81,913.566 1326.82,913.59 1330.83,911.896 1334.83,908.676 1338.84,904.219 1342.85,898.888 1346.86,893.094 1350.87,887.261 1355.76,880.684 1360.65,875.316 1365.55,871.651 1370.44,869.977 1375.34,870.351 1380.23,872.606 1385.12,876.379 1390.02,881.156 1394.91,886.344 1399.8,891.335 1404.7,895.578 1409.59,898.641 1414.48,900.253 1419.38,900.325 1424.27,898.957 1429.16,896.411 1438.13,890.018 1447.1,883.783 1451.58,881.512 1456.06,880.089 1460.54,879.603 1465.03,880.038 1473.99,883.147 1482.96,887.721 1491.92,891.689 1500.89,893.503 1509.17,892.868 1517.45,890.558 1525.73,887.669 1534.01,885.366 1542.29,884.435 1550.57,885.022 1558.85,886.667 1567.13,888.556 1600.69,888.388 1634.24,887.388 1709.44,887.892 1777.59,887.966 1855.61,888.032 1927.85,888.012 1999.08,888.006 2068.23,888.006 2139.12,888.006 2216.79,888.006 2329.61,888.006 2352.76,888.006 "/>
<polyline clip-path="url(#clip902)" style="stroke:#d95f02; stroke-linecap:round; stroke-linejoin:round; stroke-width:8; stroke-opacity:1; fill:none" points="211.086,-1.50222e+06 211.195,-750665 211.304,-500147 211.413,-374888 211.522,-299733 211.631,-249629 211.74,-213841 211.849,-187000 211.958,-166124 212.067,-149422 212.176,-135758 212.285,-124371 212.394,-114735 212.503,-106477 212.612,-99319 212.72,-93056.1 212.829,-87529.9 212.938,-82617.8 213.047,-78222.8 213.156,-74267.2 213.374,-67435 213.592,-61741.4 213.81,-56923.7 214.028,-52794.3 214.246,-49215.5 214.463,-46084 214.681,-43321 214.899,-40864.9 215.117,-38667.4 215.335,-36689.6 215.771,-33273.5 216.206,-30426.7 216.642,-28017.9 217.078,-25953.2 217.514,-24163.7 217.949,-22598 218.385,-21216.5 218.821,-19988.5 219.257,-18889.7 219.693,-17900.8 220.564,-16192.7 221.436,-14769.3 222.307,-13564.9 223.179,-12532.6 223.614,-12069.8 224.05,-11637.9 224.486,-11233.8 224.922,-10855 228.951,-8222.51 232.98,-6554.15 237.009,-5402.26 241.038,-4559.14 249.097,-3407.62 257.155,-2657.99 265.213,-2131.11 273.272,-1740.54 281.33,-1439.43 289.388,-1200.21 305.505,-844.093 321.622,-591.674 337.739,-403.385 353.855,-257.51 373.226,-120.431 392.597,-12.4711 411.968,74.8157 431.339,146.909 464.095,244.09 496.851,319.531 532.433,384.741 568.015,437.747 600.818,478.82 633.622,514.327 703.959,577.346 785.452,636.045 857.873,680.406 921.38,715.237 990.62,749.736 1060.27,780.951 1137.28,811.068 1210.55,834.925 1286.74,854.379 1350.87,866.544 1429.16,876.696 1500.89,882.318 1567.13,885.267 1634.24,886.827 1709.44,887.606 1777.59,887.875 1855.61,887.975 1927.85,887.999 1999.08,888.005 2068.23,888.006 2139.12,888.006 2216.79,888.006 2329.61,888.006 2352.76,888.006 "/>
<path clip-path="url(#clip900)" d="M1894.48 322.316 L2281.36 322.316 L2281.36 166.796 L1894.48 166.796  Z" fill="#ffffff" fill-rule="evenodd" fill-opacity="1"/>
<polyline clip-path="url(#clip900)" style="stroke:#000000; stroke-linecap:round; stroke-linejoin:round; stroke-width:4; stroke-opacity:1; fill:none" points="1894.48,322.316 2281.36,322.316 2281.36,166.796 1894.48,166.796 1894.48,322.316 "/>
<polyline clip-path="url(#clip900)" style="stroke:#1b9e77; stroke-linecap:round; stroke-linejoin:round; stroke-width:8; stroke-opacity:1; fill:none" points="1918.28,218.636 2061.06,218.636 "/>
<path clip-path="url(#clip900)" d="M2101.36 199.897 L2101.36 203.439 L2097.29 203.439 Q2095 203.439 2094.09 204.365 Q2093.21 205.291 2093.21 207.698 L2093.21 209.99 L2100.23 209.99 L2100.23 213.3 L2093.21 213.3 L2093.21 235.916 L2088.93 235.916 L2088.93 213.3 L2084.86 213.3 L2084.86 209.99 L2088.93 209.99 L2088.93 208.184 Q2088.93 203.856 2090.95 201.888 Q2092.96 199.897 2097.34 199.897 L2101.36 199.897 Z" fill="#000000" fill-rule="nonzero" fill-opacity="1" /><path clip-path="url(#clip900)" d="M2115.16 199.944 Q2112.06 205.268 2110.55 210.476 Q2109.05 215.684 2109.05 221.032 Q2109.05 226.379 2110.55 231.633 Q2112.08 236.865 2115.16 242.166 L2111.46 242.166 Q2107.98 236.726 2106.25 231.471 Q2104.53 226.217 2104.53 221.032 Q2104.53 215.87 2106.25 210.638 Q2107.96 205.407 2111.46 199.944 L2115.16 199.944 Z" fill="#000000" fill-rule="nonzero" fill-opacity="1" /><path clip-path="url(#clip900)" d="M2133.63 203.948 L2145.6 235.916 L2141.08 235.916 L2133.82 216.749 L2124.88 235.916 L2120.37 235.916 L2131.73 211.055 L2130.02 206.471 Q2128.93 203.555 2126.46 203.555 L2124.23 203.555 L2124.23 199.897 L2126.94 199.944 Q2132.17 200.013 2133.63 203.948 Z" fill="#000000" fill-rule="nonzero" fill-opacity="1" /><path clip-path="url(#clip900)" d="M2150.81 199.944 L2154.51 199.944 Q2157.98 205.407 2159.7 210.638 Q2161.43 215.87 2161.43 221.032 Q2161.43 226.217 2159.7 231.471 Q2157.98 236.726 2154.51 242.166 L2150.81 242.166 Q2153.89 236.865 2155.39 231.633 Q2156.92 226.379 2156.92 221.032 Q2156.92 215.684 2155.39 210.476 Q2153.89 205.268 2150.81 199.944 Z" fill="#000000" fill-rule="nonzero" fill-opacity="1" /><path clip-path="url(#clip900)" d="M2170.16 201.356 L2174.83 201.356 L2174.83 215.962 L2190.34 201.356 L2196.36 201.356 L2179.21 217.467 L2197.59 235.916 L2191.43 235.916 L2174.83 219.272 L2174.83 235.916 L2170.16 235.916 L2170.16 201.356 Z" fill="#000000" fill-rule="nonzero" fill-opacity="1" /><path clip-path="url(#clip900)" d="M2211.29 199.944 Q2208.19 205.268 2206.69 210.476 Q2205.18 215.684 2205.18 221.032 Q2205.18 226.379 2206.69 231.633 Q2208.21 236.865 2211.29 242.166 L2207.59 242.166 Q2204.12 236.726 2202.38 231.471 Q2200.67 226.217 2200.67 221.032 Q2200.67 215.87 2202.38 210.638 Q2204.09 205.407 2207.59 199.944 L2211.29 199.944 Z" fill="#000000" fill-rule="nonzero" fill-opacity="1" /><path clip-path="url(#clip900)" d="M2229.76 203.948 L2241.73 235.916 L2237.22 235.916 L2229.95 216.749 L2221.02 235.916 L2216.5 235.916 L2227.87 211.055 L2226.15 206.471 Q2225.07 203.555 2222.59 203.555 L2220.37 203.555 L2220.37 199.897 L2223.08 199.944 Q2228.31 200.013 2229.76 203.948 Z" fill="#000000" fill-rule="nonzero" fill-opacity="1" /><path clip-path="url(#clip900)" d="M2246.94 199.944 L2250.64 199.944 Q2254.12 205.407 2255.83 210.638 Q2257.57 215.87 2257.57 221.032 Q2257.57 226.217 2255.83 231.471 Q2254.12 236.726 2250.64 242.166 L2246.94 242.166 Q2250.02 236.865 2251.52 231.633 Q2253.05 226.379 2253.05 221.032 Q2253.05 215.684 2251.52 210.476 Q2250.02 205.268 2246.94 199.944 Z" fill="#000000" fill-rule="nonzero" fill-opacity="1" /><polyline clip-path="url(#clip900)" style="stroke:#d95f02; stroke-linecap:round; stroke-linejoin:round; stroke-width:8; stroke-opacity:1; fill:none" points="1918.28,270.476 2061.06,270.476 "/>
<path clip-path="url(#clip900)" d="M2101.36 251.737 L2101.36 255.279 L2097.29 255.279 Q2095 255.279 2094.09 256.205 Q2093.21 257.131 2093.21 259.538 L2093.21 261.83 L2100.23 261.83 L2100.23 265.14 L2093.21 265.14 L2093.21 287.756 L2088.93 287.756 L2088.93 265.14 L2084.86 265.14 L2084.86 261.83 L2088.93 261.83 L2088.93 260.024 Q2088.93 255.696 2090.95 253.728 Q2092.96 251.737 2097.34 251.737 L2101.36 251.737 Z" fill="#000000" fill-rule="nonzero" fill-opacity="1" /><path clip-path="url(#clip900)" d="M2115.16 251.784 Q2112.06 257.108 2110.55 262.316 Q2109.05 267.524 2109.05 272.872 Q2109.05 278.219 2110.55 283.473 Q2112.08 288.705 2115.16 294.006 L2111.46 294.006 Q2107.98 288.566 2106.25 283.311 Q2104.53 278.057 2104.53 272.872 Q2104.53 267.71 2106.25 262.478 Q2107.96 257.247 2111.46 251.784 L2115.16 251.784 Z" fill="#000000" fill-rule="nonzero" fill-opacity="1" /><path clip-path="url(#clip900)" d="M2133.63 255.788 L2145.6 287.756 L2141.08 287.756 L2133.82 268.589 L2124.88 287.756 L2120.37 287.756 L2131.73 262.895 L2130.02 258.311 Q2128.93 255.395 2126.46 255.395 L2124.23 255.395 L2124.23 251.737 L2126.94 251.784 Q2132.17 251.853 2133.63 255.788 Z" fill="#000000" fill-rule="nonzero" fill-opacity="1" /><path clip-path="url(#clip900)" d="M2150.81 251.784 L2154.51 251.784 Q2157.98 257.247 2159.7 262.478 Q2161.43 267.71 2161.43 272.872 Q2161.43 278.057 2159.7 283.311 Q2157.98 288.566 2154.51 294.006 L2150.81 294.006 Q2153.89 288.705 2155.39 283.473 Q2156.92 278.219 2156.92 272.872 Q2156.92 267.524 2155.39 262.316 Q2153.89 257.108 2150.81 251.784 Z" fill="#000000" fill-rule="nonzero" fill-opacity="1" /></svg>
