<?xml version="1.0" encoding="utf-8"?>
<svg xmlns="http://www.w3.org/2000/svg" xmlns:xlink="http://www.w3.org/1999/xlink" width="600" height="400" viewBox="0 0 2400 1600">
<defs>
  <clipPath id="clip170">
    <rect x="0" y="0" width="2400" height="1600"/>
  </clipPath>
</defs>
<path clip-path="url(#clip170)" d="
M0 1600 L2400 1600 L2400 0 L0 0  Z
  " fill="#ffffff" fill-rule="evenodd" fill-opacity="1"/>
<defs>
  <clipPath id="clip171">
    <rect x="480" y="0" width="1681" height="1600"/>
  </clipPath>
</defs>
<path clip-path="url(#clip170)" d="
M238.13 1423.18 L2352.76 1423.18 L2352.76 183.952 L238.13 183.952  Z
  " fill="#ffffff" fill-rule="evenodd" fill-opacity="1"/>
<defs>
  <clipPath id="clip172">
    <rect x="238" y="183" width="2116" height="1240"/>
  </clipPath>
</defs>
<polyline clip-path="url(#clip172)" style="stroke:#000000; stroke-width:2; stroke-opacity:0.1; fill:none" points="
  277.622,1423.18 277.622,183.952 
  "/>
<polyline clip-path="url(#clip172)" style="stroke:#000000; stroke-width:2; stroke-opacity:0.1; fill:none" points="
  684.75,1423.18 684.75,183.952 
  "/>
<polyline clip-path="url(#clip172)" style="stroke:#000000; stroke-width:2; stroke-opacity:0.1; fill:none" points="
  1091.88,1423.18 1091.88,183.952 
  "/>
<polyline clip-path="url(#clip172)" style="stroke:#000000; stroke-width:2; stroke-opacity:0.1; fill:none" points="
  1499.01,1423.18 1499.01,183.952 
  "/>
<polyline clip-path="url(#clip172)" style="stroke:#000000; stroke-width:2; stroke-opacity:0.1; fill:none" points="
  1906.14,1423.18 1906.14,183.952 
  "/>
<polyline clip-path="url(#clip172)" style="stroke:#000000; stroke-width:2; stroke-opacity:0.1; fill:none" points="
  2313.26,1423.18 2313.26,183.952 
  "/>
<polyline clip-path="url(#clip170)" style="stroke:#000000; stroke-width:4; stroke-opacity:1; fill:none" points="
  238.13,1423.18 2352.76,1423.18 
  "/>
<polyline clip-path="url(#clip170)" style="stroke:#000000; stroke-width:4; stroke-opacity:1; fill:none" points="
  277.622,1423.18 277.622,1408.31 
  "/>
<polyline clip-path="url(#clip170)" style="stroke:#000000; stroke-width:4; stroke-opacity:1; fill:none" points="
  684.75,1423.18 684.75,1408.31 
  "/>
<polyline clip-path="url(#clip170)" style="stroke:#000000; stroke-width:4; stroke-opacity:1; fill:none" points="
  1091.88,1423.18 1091.88,1408.31 
  "/>
<polyline clip-path="url(#clip170)" style="stroke:#000000; stroke-width:4; stroke-opacity:1; fill:none" points="
  1499.01,1423.18 1499.01,1408.31 
  "/>
<polyline clip-path="url(#clip170)" style="stroke:#000000; stroke-width:4; stroke-opacity:1; fill:none" points="
  1906.14,1423.18 1906.14,1408.31 
  "/>
<polyline clip-path="url(#clip170)" style="stroke:#000000; stroke-width:4; stroke-opacity:1; fill:none" points="
  2313.26,1423.18 2313.26,1408.31 
  "/>
<path clip-path="url(#clip170)" d="M 0 0 M277.622 1452.37 Q274.01 1452.37 272.182 1455.94 Q270.376 1459.48 270.376 1466.61 Q270.376 1473.71 272.182 1477.28 Q274.01 1480.82 277.622 1480.82 Q281.256 1480.82 283.061 1477.28 Q284.89 1473.71 284.89 1466.61 Q284.89 1459.48 283.061 1455.94 Q281.256 1452.37 277.622 1452.37 M277.622 1448.67 Q283.432 1448.67 286.487 1453.27 Q289.566 1457.86 289.566 1466.61 Q289.566 1475.33 286.487 1479.94 Q283.432 1484.52 277.622 1484.52 Q271.811 1484.52 268.733 1479.94 Q265.677 1475.33 265.677 1466.61 Q265.677 1457.86 268.733 1453.27 Q271.811 1448.67 277.622 1448.67 Z" fill="#000000" fill-rule="evenodd" fill-opacity="1" /><path clip-path="url(#clip170)" d="M 0 0 M661.625 1479.92 L669.264 1479.92 L669.264 1453.55 L660.954 1455.22 L660.954 1450.96 L669.218 1449.29 L673.894 1449.29 L673.894 1479.92 L681.533 1479.92 L681.533 1483.85 L661.625 1483.85 L661.625 1479.92 Z" fill="#000000" fill-rule="evenodd" fill-opacity="1" /><path clip-path="url(#clip170)" d="M 0 0 M696.602 1452.37 Q692.991 1452.37 691.162 1455.94 Q689.357 1459.48 689.357 1466.61 Q689.357 1473.71 691.162 1477.28 Q692.991 1480.82 696.602 1480.82 Q700.236 1480.82 702.042 1477.28 Q703.87 1473.71 703.87 1466.61 Q703.87 1459.48 702.042 1455.94 Q700.236 1452.37 696.602 1452.37 M696.602 1448.67 Q702.412 1448.67 705.468 1453.27 Q708.546 1457.86 708.546 1466.61 Q708.546 1475.33 705.468 1479.94 Q702.412 1484.52 696.602 1484.52 Q690.792 1484.52 687.713 1479.94 Q684.658 1475.33 684.658 1466.61 Q684.658 1457.86 687.713 1453.27 Q690.792 1448.67 696.602 1448.67 Z" fill="#000000" fill-rule="evenodd" fill-opacity="1" /><path clip-path="url(#clip170)" d="M 0 0 M1073.02 1479.92 L1089.34 1479.92 L1089.34 1483.85 L1067.4 1483.85 L1067.4 1479.92 Q1070.06 1477.16 1074.64 1472.53 Q1079.25 1467.88 1080.43 1466.54 Q1082.68 1464.01 1083.56 1462.28 Q1084.46 1460.52 1084.46 1458.83 Q1084.46 1456.07 1082.52 1454.34 Q1080.59 1452.6 1077.49 1452.6 Q1075.29 1452.6 1072.84 1453.37 Q1070.41 1454.13 1067.63 1455.68 L1067.63 1450.96 Q1070.46 1449.82 1072.91 1449.25 Q1075.36 1448.67 1077.4 1448.67 Q1082.77 1448.67 1085.96 1451.35 Q1089.16 1454.04 1089.16 1458.53 Q1089.16 1460.66 1088.35 1462.58 Q1087.56 1464.48 1085.46 1467.07 Q1084.88 1467.74 1081.77 1470.96 Q1078.67 1474.15 1073.02 1479.92 Z" fill="#000000" fill-rule="evenodd" fill-opacity="1" /><path clip-path="url(#clip170)" d="M 0 0 M1104.41 1452.37 Q1100.8 1452.37 1098.97 1455.94 Q1097.17 1459.48 1097.17 1466.61 Q1097.17 1473.71 1098.97 1477.28 Q1100.8 1480.82 1104.41 1480.82 Q1108.05 1480.82 1109.85 1477.28 Q1111.68 1473.71 1111.68 1466.61 Q1111.68 1459.48 1109.85 1455.94 Q1108.05 1452.37 1104.41 1452.37 M1104.41 1448.67 Q1110.22 1448.67 1113.28 1453.27 Q1116.36 1457.86 1116.36 1466.61 Q1116.36 1475.33 1113.28 1479.94 Q1110.22 1484.52 1104.41 1484.52 Q1098.6 1484.52 1095.52 1479.94 Q1092.47 1475.33 1092.47 1466.61 Q1092.47 1457.86 1095.52 1453.27 Q1098.6 1448.67 1104.41 1448.67 Z" fill="#000000" fill-rule="evenodd" fill-opacity="1" /><path clip-path="url(#clip170)" d="M 0 0 M1489.75 1465.22 Q1493.1 1465.94 1494.98 1468.2 Q1496.88 1470.47 1496.88 1473.81 Q1496.88 1478.92 1493.36 1481.72 Q1489.84 1484.52 1483.36 1484.52 Q1481.18 1484.52 1478.87 1484.08 Q1476.58 1483.67 1474.12 1482.81 L1474.12 1478.3 Q1476.07 1479.43 1478.38 1480.01 Q1480.7 1480.59 1483.22 1480.59 Q1487.62 1480.59 1489.91 1478.85 Q1492.22 1477.12 1492.22 1473.81 Q1492.22 1470.75 1490.07 1469.04 Q1487.94 1467.3 1484.12 1467.3 L1480.1 1467.3 L1480.1 1463.46 L1484.31 1463.46 Q1487.76 1463.46 1489.59 1462.09 Q1491.41 1460.7 1491.41 1458.11 Q1491.41 1455.45 1489.52 1454.04 Q1487.64 1452.6 1484.12 1452.6 Q1482.2 1452.6 1480 1453.02 Q1477.8 1453.44 1475.16 1454.31 L1475.16 1450.15 Q1477.83 1449.41 1480.14 1449.04 Q1482.48 1448.67 1484.54 1448.67 Q1489.86 1448.67 1492.97 1451.1 Q1496.07 1453.5 1496.07 1457.63 Q1496.07 1460.5 1494.42 1462.49 Q1492.78 1464.45 1489.75 1465.22 Z" fill="#000000" fill-rule="evenodd" fill-opacity="1" /><path clip-path="url(#clip170)" d="M 0 0 M1511.95 1452.37 Q1508.34 1452.37 1506.51 1455.94 Q1504.7 1459.48 1504.7 1466.61 Q1504.7 1473.71 1506.51 1477.28 Q1508.34 1480.82 1511.95 1480.82 Q1515.58 1480.82 1517.39 1477.28 Q1519.22 1473.71 1519.22 1466.61 Q1519.22 1459.48 1517.39 1455.94 Q1515.58 1452.37 1511.95 1452.37 M1511.95 1448.67 Q1517.76 1448.67 1520.81 1453.27 Q1523.89 1457.86 1523.89 1466.61 Q1523.89 1475.33 1520.81 1479.94 Q1517.76 1484.52 1511.95 1484.52 Q1506.14 1484.52 1503.06 1479.94 Q1500 1475.33 1500 1466.61 Q1500 1457.86 1503.06 1453.27 Q1506.14 1448.67 1511.95 1448.67 Z" fill="#000000" fill-rule="evenodd" fill-opacity="1" /><path clip-path="url(#clip170)" d="M 0 0 M1895.64 1453.37 L1883.83 1471.81 L1895.64 1471.81 L1895.64 1453.37 M1894.41 1449.29 L1900.29 1449.29 L1900.29 1471.81 L1905.22 1471.81 L1905.22 1475.7 L1900.29 1475.7 L1900.29 1483.85 L1895.64 1483.85 L1895.64 1475.7 L1880.04 1475.7 L1880.04 1471.19 L1894.41 1449.29 Z" fill="#000000" fill-rule="evenodd" fill-opacity="1" /><path clip-path="url(#clip170)" d="M 0 0 M1920.29 1452.37 Q1916.68 1452.37 1914.85 1455.94 Q1913.05 1459.48 1913.05 1466.61 Q1913.05 1473.71 1914.85 1477.28 Q1916.68 1480.82 1920.29 1480.82 Q1923.93 1480.82 1925.73 1477.28 Q1927.56 1473.71 1927.56 1466.61 Q1927.56 1459.48 1925.73 1455.94 Q1923.93 1452.37 1920.29 1452.37 M1920.29 1448.67 Q1926.1 1448.67 1929.16 1453.27 Q1932.24 1457.86 1932.24 1466.61 Q1932.24 1475.33 1929.16 1479.94 Q1926.1 1484.52 1920.29 1484.52 Q1914.48 1484.52 1911.4 1479.94 Q1908.35 1475.33 1908.35 1466.61 Q1908.35 1457.86 1911.4 1453.27 Q1914.48 1448.67 1920.29 1448.67 Z" fill="#000000" fill-rule="evenodd" fill-opacity="1" /><path clip-path="url(#clip170)" d="M 0 0 M2290.04 1449.29 L2308.39 1449.29 L2308.39 1453.23 L2294.32 1453.23 L2294.32 1461.7 Q2295.34 1461.35 2296.35 1461.19 Q2297.37 1461 2298.39 1461 Q2304.18 1461 2307.56 1464.18 Q2310.94 1467.35 2310.94 1472.76 Q2310.94 1478.34 2307.47 1481.44 Q2303.99 1484.52 2297.67 1484.52 Q2295.5 1484.52 2293.23 1484.15 Q2290.98 1483.78 2288.58 1483.04 L2288.58 1478.34 Q2290.66 1479.48 2292.88 1480.03 Q2295.1 1480.59 2297.58 1480.59 Q2301.59 1480.59 2303.92 1478.48 Q2306.26 1476.38 2306.26 1472.76 Q2306.26 1469.15 2303.92 1467.05 Q2301.59 1464.94 2297.58 1464.94 Q2295.71 1464.94 2293.83 1465.36 Q2291.98 1465.77 2290.04 1466.65 L2290.04 1449.29 Z" fill="#000000" fill-rule="evenodd" fill-opacity="1" /><path clip-path="url(#clip170)" d="M 0 0 M2326.01 1452.37 Q2322.4 1452.37 2320.57 1455.94 Q2318.76 1459.48 2318.76 1466.61 Q2318.76 1473.71 2320.57 1477.28 Q2322.4 1480.82 2326.01 1480.82 Q2329.64 1480.82 2331.45 1477.28 Q2333.28 1473.71 2333.28 1466.61 Q2333.28 1459.48 2331.45 1455.94 Q2329.64 1452.37 2326.01 1452.37 M2326.01 1448.67 Q2331.82 1448.67 2334.87 1453.27 Q2337.95 1457.86 2337.95 1466.61 Q2337.95 1475.33 2334.87 1479.94 Q2331.82 1484.52 2326.01 1484.52 Q2320.2 1484.52 2317.12 1479.94 Q2314.06 1475.33 2314.06 1466.61 Q2314.06 1457.86 2317.12 1453.27 Q2320.2 1448.67 2326.01 1448.67 Z" fill="#000000" fill-rule="evenodd" fill-opacity="1" /><path clip-path="url(#clip170)" d="M 0 0 M1050.08 1508.52 L1056.57 1508.52 L1066.56 1548.69 L1076.53 1508.52 L1083.75 1508.52 L1093.75 1548.69 L1103.71 1508.52 L1110.23 1508.52 L1098.3 1556.04 L1090.21 1556.04 L1080.19 1514.79 L1070.07 1556.04 L1061.98 1556.04 L1050.08 1508.52 Z" fill="#000000" fill-rule="evenodd" fill-opacity="1" /><path clip-path="url(#clip170)" d="M 0 0 M1114.94 1520.4 L1120.8 1520.4 L1120.8 1556.04 L1114.94 1556.04 L1114.94 1520.4 M1114.94 1506.52 L1120.8 1506.52 L1120.8 1513.93 L1114.94 1513.93 L1114.94 1506.52 Z" fill="#000000" fill-rule="evenodd" fill-opacity="1" /><path clip-path="url(#clip170)" d="M 0 0 M1156.58 1534.53 L1156.58 1556.04 L1150.72 1556.04 L1150.72 1534.72 Q1150.72 1529.66 1148.75 1527.14 Q1146.77 1524.63 1142.83 1524.63 Q1138.08 1524.63 1135.35 1527.65 Q1132.61 1530.68 1132.61 1535.9 L1132.61 1556.04 L1126.72 1556.04 L1126.72 1520.4 L1132.61 1520.4 L1132.61 1525.93 Q1134.71 1522.72 1137.54 1521.13 Q1140.41 1519.54 1144.13 1519.54 Q1150.27 1519.54 1153.42 1523.36 Q1156.58 1527.14 1156.58 1534.53 Z" fill="#000000" fill-rule="evenodd" fill-opacity="1" /><path clip-path="url(#clip170)" d="M 0 0 M1186.18 1525.81 L1186.18 1506.52 L1192.03 1506.52 L1192.03 1556.04 L1186.18 1556.04 L1186.18 1550.7 Q1184.33 1553.88 1181.5 1555.44 Q1178.7 1556.97 1174.75 1556.97 Q1168.29 1556.97 1164.21 1551.81 Q1160.17 1546.65 1160.17 1538.25 Q1160.17 1529.85 1164.21 1524.69 Q1168.29 1519.54 1174.75 1519.54 Q1178.7 1519.54 1181.5 1521.1 Q1184.33 1522.62 1186.18 1525.81 M1166.22 1538.25 Q1166.22 1544.71 1168.86 1548.4 Q1171.53 1552.07 1176.18 1552.07 Q1180.83 1552.07 1183.5 1548.4 Q1186.18 1544.71 1186.18 1538.25 Q1186.18 1531.79 1183.5 1528.13 Q1180.83 1524.44 1176.18 1524.44 Q1171.53 1524.44 1168.86 1528.13 Q1166.22 1531.79 1166.22 1538.25 Z" fill="#000000" fill-rule="evenodd" fill-opacity="1" /><path clip-path="url(#clip170)" d="M 0 0 M1220.9 1521.45 L1220.9 1526.98 Q1218.42 1525.71 1215.74 1525.07 Q1213.07 1524.44 1210.21 1524.44 Q1205.85 1524.44 1203.65 1525.77 Q1201.49 1527.11 1201.49 1529.79 Q1201.49 1531.82 1203.04 1533 Q1204.6 1534.15 1209.31 1535.2 L1211.32 1535.64 Q1217.56 1536.98 1220.17 1539.43 Q1222.81 1541.85 1222.81 1546.21 Q1222.81 1551.17 1218.86 1554.07 Q1214.95 1556.97 1208.07 1556.97 Q1205.21 1556.97 1202.09 1556.39 Q1199 1555.85 1195.57 1554.74 L1195.57 1548.69 Q1198.81 1550.38 1201.96 1551.24 Q1205.11 1552.07 1208.2 1552.07 Q1212.34 1552.07 1214.57 1550.66 Q1216.79 1549.23 1216.79 1546.65 Q1216.79 1544.27 1215.17 1542.99 Q1213.58 1541.72 1208.14 1540.54 L1206.1 1540.07 Q1200.66 1538.92 1198.24 1536.56 Q1195.82 1534.18 1195.82 1530.04 Q1195.82 1525.01 1199.38 1522.27 Q1202.95 1519.54 1209.51 1519.54 Q1212.75 1519.54 1215.62 1520.01 Q1218.48 1520.49 1220.9 1521.45 Z" fill="#000000" fill-rule="evenodd" fill-opacity="1" /><path clip-path="url(#clip170)" d="M 0 0 M1234.62 1550.7 L1234.62 1569.6 L1228.73 1569.6 L1228.73 1520.4 L1234.62 1520.4 L1234.62 1525.81 Q1236.46 1522.62 1239.27 1521.1 Q1242.1 1519.54 1246.01 1519.54 Q1252.51 1519.54 1256.55 1524.69 Q1260.62 1529.85 1260.62 1538.25 Q1260.62 1546.65 1256.55 1551.81 Q1252.51 1556.97 1246.01 1556.97 Q1242.1 1556.97 1239.27 1555.44 Q1236.46 1553.88 1234.62 1550.7 M1254.54 1538.25 Q1254.54 1531.79 1251.87 1528.13 Q1249.23 1524.44 1244.58 1524.44 Q1239.93 1524.44 1237.26 1528.13 Q1234.62 1531.79 1234.62 1538.25 Q1234.62 1544.71 1237.26 1548.4 Q1239.93 1552.07 1244.58 1552.07 Q1249.23 1552.07 1251.87 1548.4 Q1254.54 1544.71 1254.54 1538.25 Z" fill="#000000" fill-rule="evenodd" fill-opacity="1" /><path clip-path="url(#clip170)" d="M 0 0 M1297.26 1536.76 L1297.26 1539.62 L1270.33 1539.62 Q1270.71 1545.67 1273.96 1548.85 Q1277.24 1552 1283.06 1552 Q1286.44 1552 1289.59 1551.17 Q1292.77 1550.35 1295.89 1548.69 L1295.89 1554.23 Q1292.74 1555.57 1289.43 1556.27 Q1286.12 1556.97 1282.71 1556.97 Q1274.18 1556.97 1269.18 1552 Q1264.22 1547.04 1264.22 1538.57 Q1264.22 1529.82 1268.93 1524.69 Q1273.67 1519.54 1281.69 1519.54 Q1288.89 1519.54 1293.06 1524.18 Q1297.26 1528.8 1297.26 1536.76 M1291.4 1535.04 Q1291.34 1530.23 1288.7 1527.37 Q1286.09 1524.5 1281.76 1524.5 Q1276.86 1524.5 1273.9 1527.27 Q1270.97 1530.04 1270.52 1535.07 L1291.4 1535.04 Z" fill="#000000" fill-rule="evenodd" fill-opacity="1" /><path clip-path="url(#clip170)" d="M 0 0 M1333.89 1536.76 L1333.89 1539.62 L1306.96 1539.62 Q1307.35 1545.67 1310.59 1548.85 Q1313.87 1552 1319.7 1552 Q1323.07 1552 1326.22 1551.17 Q1329.4 1550.35 1332.52 1548.69 L1332.52 1554.23 Q1329.37 1555.57 1326.06 1556.27 Q1322.75 1556.97 1319.35 1556.97 Q1310.82 1556.97 1305.82 1552 Q1300.85 1547.04 1300.85 1538.57 Q1300.85 1529.82 1305.56 1524.69 Q1310.31 1519.54 1318.33 1519.54 Q1325.52 1519.54 1329.69 1524.18 Q1333.89 1528.8 1333.89 1536.76 M1328.04 1535.04 Q1327.97 1530.23 1325.33 1527.37 Q1322.72 1524.5 1318.39 1524.5 Q1313.49 1524.5 1310.53 1527.27 Q1307.6 1530.04 1307.16 1535.07 L1328.04 1535.04 Z" fill="#000000" fill-rule="evenodd" fill-opacity="1" /><path clip-path="url(#clip170)" d="M 0 0 M1363.49 1525.81 L1363.49 1506.52 L1369.35 1506.52 L1369.35 1556.04 L1363.49 1556.04 L1363.49 1550.7 Q1361.65 1553.88 1358.81 1555.44 Q1356.01 1556.97 1352.07 1556.97 Q1345.6 1556.97 1341.53 1551.81 Q1337.49 1546.65 1337.49 1538.25 Q1337.49 1529.85 1341.53 1524.69 Q1345.6 1519.54 1352.07 1519.54 Q1356.01 1519.54 1358.81 1521.1 Q1361.65 1522.62 1363.49 1525.81 M1343.54 1538.25 Q1343.54 1544.71 1346.18 1548.4 Q1348.85 1552.07 1353.5 1552.07 Q1358.15 1552.07 1360.82 1548.4 Q1363.49 1544.71 1363.49 1538.25 Q1363.49 1531.79 1360.82 1528.13 Q1358.15 1524.44 1353.5 1524.44 Q1348.85 1524.44 1346.18 1528.13 Q1343.54 1531.79 1343.54 1538.25 Z" fill="#000000" fill-rule="evenodd" fill-opacity="1" /><path clip-path="url(#clip170)" d="M 0 0 M1410.28 1506.58 Q1406.02 1513.9 1403.95 1521.06 Q1401.88 1528.23 1401.88 1535.58 Q1401.88 1542.93 1403.95 1550.16 Q1406.05 1557.35 1410.28 1564.64 L1405.19 1564.64 Q1400.41 1557.16 1398.03 1549.93 Q1395.67 1542.71 1395.67 1535.58 Q1395.67 1528.48 1398.03 1521.29 Q1400.38 1514.09 1405.19 1506.58 L1410.28 1506.58 Z" fill="#000000" fill-rule="evenodd" fill-opacity="1" /><path clip-path="url(#clip170)" d="M 0 0 M1444.18 1527.24 Q1446.37 1523.29 1449.43 1521.41 Q1452.48 1519.54 1456.62 1519.54 Q1462.19 1519.54 1465.22 1523.45 Q1468.24 1527.33 1468.24 1534.53 L1468.24 1556.04 L1462.35 1556.04 L1462.35 1534.72 Q1462.35 1529.59 1460.54 1527.11 Q1458.72 1524.63 1455 1524.63 Q1450.45 1524.63 1447.81 1527.65 Q1445.16 1530.68 1445.16 1535.9 L1445.16 1556.04 L1439.28 1556.04 L1439.28 1534.72 Q1439.28 1529.56 1437.46 1527.11 Q1435.65 1524.63 1431.86 1524.63 Q1427.37 1524.63 1424.73 1527.68 Q1422.09 1530.71 1422.09 1535.9 L1422.09 1556.04 L1416.2 1556.04 L1416.2 1520.4 L1422.09 1520.4 L1422.09 1525.93 Q1424.09 1522.66 1426.89 1521.1 Q1429.7 1519.54 1433.55 1519.54 Q1437.43 1519.54 1440.14 1521.51 Q1442.87 1523.48 1444.18 1527.24 Z" fill="#000000" fill-rule="evenodd" fill-opacity="1" /><path clip-path="url(#clip170)" d="M 0 0 M1484.79 1508.52 L1490.2 1508.52 L1473.65 1562.09 L1468.24 1562.09 L1484.79 1508.52 Z" fill="#000000" fill-rule="evenodd" fill-opacity="1" /><path clip-path="url(#clip170)" d="M 0 0 M1519.07 1521.45 L1519.07 1526.98 Q1516.59 1525.71 1513.91 1525.07 Q1511.24 1524.44 1508.38 1524.44 Q1504.02 1524.44 1501.82 1525.77 Q1499.65 1527.11 1499.65 1529.79 Q1499.65 1531.82 1501.21 1533 Q1502.77 1534.15 1507.48 1535.2 L1509.49 1535.64 Q1515.73 1536.98 1518.34 1539.43 Q1520.98 1541.85 1520.98 1546.21 Q1520.98 1551.17 1517.03 1554.07 Q1513.12 1556.97 1506.24 1556.97 Q1503.38 1556.97 1500.26 1556.39 Q1497.17 1555.85 1493.73 1554.74 L1493.73 1548.69 Q1496.98 1550.38 1500.13 1551.24 Q1503.28 1552.07 1506.37 1552.07 Q1510.51 1552.07 1512.74 1550.66 Q1514.96 1549.23 1514.96 1546.65 Q1514.96 1544.27 1513.34 1542.99 Q1511.75 1541.72 1506.31 1540.54 L1504.27 1540.07 Q1498.83 1538.92 1496.41 1536.56 Q1493.99 1534.18 1493.99 1530.04 Q1493.99 1525.01 1497.55 1522.27 Q1501.12 1519.54 1507.68 1519.54 Q1510.92 1519.54 1513.79 1520.01 Q1516.65 1520.49 1519.07 1521.45 Z" fill="#000000" fill-rule="evenodd" fill-opacity="1" /><path clip-path="url(#clip170)" d="M 0 0 M1526.2 1506.58 L1531.29 1506.58 Q1536.07 1514.09 1538.42 1521.29 Q1540.81 1528.48 1540.81 1535.58 Q1540.81 1542.71 1538.42 1549.93 Q1536.07 1557.16 1531.29 1564.64 L1526.2 1564.64 Q1530.43 1557.35 1532.5 1550.16 Q1534.6 1542.93 1534.6 1535.58 Q1534.6 1528.23 1532.5 1521.06 Q1530.43 1513.9 1526.2 1506.58 Z" fill="#000000" fill-rule="evenodd" fill-opacity="1" /><polyline clip-path="url(#clip172)" style="stroke:#000000; stroke-width:2; stroke-opacity:0.1; fill:none" points="
  238.13,1390.44 2352.76,1390.44 
  "/>
<polyline clip-path="url(#clip172)" style="stroke:#000000; stroke-width:2; stroke-opacity:0.1; fill:none" points="
  238.13,1177.73 2352.76,1177.73 
  "/>
<polyline clip-path="url(#clip172)" style="stroke:#000000; stroke-width:2; stroke-opacity:0.1; fill:none" points="
  238.13,965.012 2352.76,965.012 
  "/>
<polyline clip-path="url(#clip172)" style="stroke:#000000; stroke-width:2; stroke-opacity:0.1; fill:none" points="
  238.13,752.297 2352.76,752.297 
  "/>
<polyline clip-path="url(#clip172)" style="stroke:#000000; stroke-width:2; stroke-opacity:0.1; fill:none" points="
  238.13,539.582 2352.76,539.582 
  "/>
<polyline clip-path="url(#clip172)" style="stroke:#000000; stroke-width:2; stroke-opacity:0.1; fill:none" points="
  238.13,326.867 2352.76,326.867 
  "/>
<polyline clip-path="url(#clip170)" style="stroke:#000000; stroke-width:4; stroke-opacity:1; fill:none" points="
  238.13,1423.18 238.13,183.952 
  "/>
<polyline clip-path="url(#clip170)" style="stroke:#000000; stroke-width:4; stroke-opacity:1; fill:none" points="
  238.13,1390.44 263.506,1390.44 
  "/>
<polyline clip-path="url(#clip170)" style="stroke:#000000; stroke-width:4; stroke-opacity:1; fill:none" points="
  238.13,1177.73 263.506,1177.73 
  "/>
<polyline clip-path="url(#clip170)" style="stroke:#000000; stroke-width:4; stroke-opacity:1; fill:none" points="
  238.13,965.012 263.506,965.012 
  "/>
<polyline clip-path="url(#clip170)" style="stroke:#000000; stroke-width:4; stroke-opacity:1; fill:none" points="
  238.13,752.297 263.506,752.297 
  "/>
<polyline clip-path="url(#clip170)" style="stroke:#000000; stroke-width:4; stroke-opacity:1; fill:none" points="
  238.13,539.582 263.506,539.582 
  "/>
<polyline clip-path="url(#clip170)" style="stroke:#000000; stroke-width:4; stroke-opacity:1; fill:none" points="
  238.13,326.867 263.506,326.867 
  "/>
<path clip-path="url(#clip170)" d="M 0 0 M126.205 1376.24 Q122.593 1376.24 120.765 1379.8 Q118.959 1383.35 118.959 1390.48 Q118.959 1397.58 120.765 1401.15 Q122.593 1404.69 126.205 1404.69 Q129.839 1404.69 131.644 1401.15 Q133.473 1397.58 133.473 1390.48 Q133.473 1383.35 131.644 1379.8 Q129.839 1376.24 126.205 1376.24 M126.205 1372.54 Q132.015 1372.54 135.07 1377.14 Q138.149 1381.73 138.149 1390.48 Q138.149 1399.2 135.07 1403.81 Q132.015 1408.39 126.205 1408.39 Q120.394 1408.39 117.316 1403.81 Q114.26 1399.2 114.26 1390.48 Q114.26 1381.73 117.316 1377.14 Q120.394 1372.54 126.205 1372.54 Z" fill="#000000" fill-rule="evenodd" fill-opacity="1" /><path clip-path="url(#clip170)" d="M 0 0 M143.218 1401.84 L148.103 1401.84 L148.103 1407.72 L143.218 1407.72 L143.218 1401.84 Z" fill="#000000" fill-rule="evenodd" fill-opacity="1" /><path clip-path="url(#clip170)" d="M 0 0 M163.172 1376.24 Q159.561 1376.24 157.732 1379.8 Q155.927 1383.35 155.927 1390.48 Q155.927 1397.58 157.732 1401.15 Q159.561 1404.69 163.172 1404.69 Q166.806 1404.69 168.612 1401.15 Q170.44 1397.58 170.44 1390.48 Q170.44 1383.35 168.612 1379.8 Q166.806 1376.24 163.172 1376.24 M163.172 1372.54 Q168.982 1372.54 172.038 1377.14 Q175.116 1381.73 175.116 1390.48 Q175.116 1399.2 172.038 1403.81 Q168.982 1408.39 163.172 1408.39 Q157.362 1408.39 154.283 1403.81 Q151.228 1399.2 151.228 1390.48 Q151.228 1381.73 154.283 1377.14 Q157.362 1372.54 163.172 1372.54 Z" fill="#000000" fill-rule="evenodd" fill-opacity="1" /><path clip-path="url(#clip170)" d="M 0 0 M190.186 1376.24 Q186.575 1376.24 184.746 1379.8 Q182.94 1383.35 182.94 1390.48 Q182.94 1397.58 184.746 1401.15 Q186.575 1404.69 190.186 1404.69 Q193.82 1404.69 195.625 1401.15 Q197.454 1397.58 197.454 1390.48 Q197.454 1383.35 195.625 1379.8 Q193.82 1376.24 190.186 1376.24 M190.186 1372.54 Q195.996 1372.54 199.051 1377.14 Q202.13 1381.73 202.13 1390.48 Q202.13 1399.2 199.051 1403.81 Q195.996 1408.39 190.186 1408.39 Q184.376 1408.39 181.297 1403.81 Q178.241 1399.2 178.241 1390.48 Q178.241 1381.73 181.297 1377.14 Q184.376 1372.54 190.186 1372.54 Z" fill="#000000" fill-rule="evenodd" fill-opacity="1" /><path clip-path="url(#clip170)" d="M 0 0 M127.2 1163.53 Q123.589 1163.53 121.76 1167.09 Q119.955 1170.63 119.955 1177.76 Q119.955 1184.87 121.76 1188.43 Q123.589 1191.97 127.2 1191.97 Q130.834 1191.97 132.64 1188.43 Q134.468 1184.87 134.468 1177.76 Q134.468 1170.63 132.64 1167.09 Q130.834 1163.53 127.2 1163.53 M127.2 1159.82 Q133.01 1159.82 136.066 1164.43 Q139.144 1169.01 139.144 1177.76 Q139.144 1186.49 136.066 1191.09 Q133.01 1195.68 127.2 1195.68 Q121.39 1195.68 118.311 1191.09 Q115.256 1186.49 115.256 1177.76 Q115.256 1169.01 118.311 1164.43 Q121.39 1159.82 127.2 1159.82 Z" fill="#000000" fill-rule="evenodd" fill-opacity="1" /><path clip-path="url(#clip170)" d="M 0 0 M144.214 1189.13 L149.098 1189.13 L149.098 1195.01 L144.214 1195.01 L144.214 1189.13 Z" fill="#000000" fill-rule="evenodd" fill-opacity="1" /><path clip-path="url(#clip170)" d="M 0 0 M164.167 1163.53 Q160.556 1163.53 158.728 1167.09 Q156.922 1170.63 156.922 1177.76 Q156.922 1184.87 158.728 1188.43 Q160.556 1191.97 164.167 1191.97 Q167.802 1191.97 169.607 1188.43 Q171.436 1184.87 171.436 1177.76 Q171.436 1170.63 169.607 1167.09 Q167.802 1163.53 164.167 1163.53 M164.167 1159.82 Q169.977 1159.82 173.033 1164.43 Q176.112 1169.01 176.112 1177.76 Q176.112 1186.49 173.033 1191.09 Q169.977 1195.68 164.167 1195.68 Q158.357 1195.68 155.278 1191.09 Q152.223 1186.49 152.223 1177.76 Q152.223 1169.01 155.278 1164.43 Q158.357 1159.82 164.167 1159.82 Z" fill="#000000" fill-rule="evenodd" fill-opacity="1" /><path clip-path="url(#clip170)" d="M 0 0 M181.227 1160.45 L199.584 1160.45 L199.584 1164.38 L185.51 1164.38 L185.51 1172.85 Q186.528 1172.51 187.547 1172.34 Q188.565 1172.16 189.584 1172.16 Q195.371 1172.16 198.75 1175.33 Q202.13 1178.5 202.13 1183.92 Q202.13 1189.5 198.658 1192.6 Q195.186 1195.68 188.866 1195.68 Q186.69 1195.68 184.422 1195.31 Q182.176 1194.94 179.769 1194.2 L179.769 1189.5 Q181.852 1190.63 184.075 1191.19 Q186.297 1191.74 188.774 1191.74 Q192.778 1191.74 195.116 1189.64 Q197.454 1187.53 197.454 1183.92 Q197.454 1180.31 195.116 1178.2 Q192.778 1176.09 188.774 1176.09 Q186.899 1176.09 185.024 1176.51 Q183.172 1176.93 181.227 1177.81 L181.227 1160.45 Z" fill="#000000" fill-rule="evenodd" fill-opacity="1" /><path clip-path="url(#clip170)" d="M 0 0 M127.431 950.81 Q123.82 950.81 121.992 954.375 Q120.186 957.917 120.186 965.046 Q120.186 972.153 121.992 975.718 Q123.82 979.259 127.431 979.259 Q131.066 979.259 132.871 975.718 Q134.7 972.153 134.7 965.046 Q134.7 957.917 132.871 954.375 Q131.066 950.81 127.431 950.81 M127.431 947.107 Q133.242 947.107 136.297 951.713 Q139.376 956.296 139.376 965.046 Q139.376 973.773 136.297 978.38 Q133.242 982.963 127.431 982.963 Q121.621 982.963 118.543 978.38 Q115.487 973.773 115.487 965.046 Q115.487 956.296 118.543 951.713 Q121.621 947.107 127.431 947.107 Z" fill="#000000" fill-rule="evenodd" fill-opacity="1" /><path clip-path="url(#clip170)" d="M 0 0 M144.445 976.412 L149.329 976.412 L149.329 982.292 L144.445 982.292 L144.445 976.412 Z" fill="#000000" fill-rule="evenodd" fill-opacity="1" /><path clip-path="url(#clip170)" d="M 0 0 M155.209 978.356 L162.848 978.356 L162.848 951.991 L154.538 953.658 L154.538 949.398 L162.802 947.732 L167.477 947.732 L167.477 978.356 L175.116 978.356 L175.116 982.292 L155.209 982.292 L155.209 978.356 Z" fill="#000000" fill-rule="evenodd" fill-opacity="1" /><path clip-path="url(#clip170)" d="M 0 0 M190.186 950.81 Q186.575 950.81 184.746 954.375 Q182.94 957.917 182.94 965.046 Q182.94 972.153 184.746 975.718 Q186.575 979.259 190.186 979.259 Q193.82 979.259 195.625 975.718 Q197.454 972.153 197.454 965.046 Q197.454 957.917 195.625 954.375 Q193.82 950.81 190.186 950.81 M190.186 947.107 Q195.996 947.107 199.051 951.713 Q202.13 956.296 202.13 965.046 Q202.13 973.773 199.051 978.38 Q195.996 982.963 190.186 982.963 Q184.376 982.963 181.297 978.38 Q178.241 973.773 178.241 965.046 Q178.241 956.296 181.297 951.713 Q184.376 947.107 190.186 947.107 Z" fill="#000000" fill-rule="evenodd" fill-opacity="1" /><path clip-path="url(#clip170)" d="M 0 0 M128.427 738.095 Q124.816 738.095 122.987 741.66 Q121.181 745.202 121.181 752.332 Q121.181 759.438 122.987 763.003 Q124.816 766.544 128.427 766.544 Q132.061 766.544 133.867 763.003 Q135.695 759.438 135.695 752.332 Q135.695 745.202 133.867 741.66 Q132.061 738.095 128.427 738.095 M128.427 734.392 Q134.237 734.392 137.292 738.998 Q140.371 743.582 140.371 752.332 Q140.371 761.058 137.292 765.665 Q134.237 770.248 128.427 770.248 Q122.617 770.248 119.538 765.665 Q116.482 761.058 116.482 752.332 Q116.482 743.582 119.538 738.998 Q122.617 734.392 128.427 734.392 Z" fill="#000000" fill-rule="evenodd" fill-opacity="1" /><path clip-path="url(#clip170)" d="M 0 0 M145.441 763.697 L150.325 763.697 L150.325 769.577 L145.441 769.577 L145.441 763.697 Z" fill="#000000" fill-rule="evenodd" fill-opacity="1" /><path clip-path="url(#clip170)" d="M 0 0 M156.204 765.642 L163.843 765.642 L163.843 739.276 L155.533 740.943 L155.533 736.683 L163.797 735.017 L168.473 735.017 L168.473 765.642 L176.112 765.642 L176.112 769.577 L156.204 769.577 L156.204 765.642 Z" fill="#000000" fill-rule="evenodd" fill-opacity="1" /><path clip-path="url(#clip170)" d="M 0 0 M181.227 735.017 L199.584 735.017 L199.584 738.952 L185.51 738.952 L185.51 747.424 Q186.528 747.077 187.547 746.915 Q188.565 746.73 189.584 746.73 Q195.371 746.73 198.75 749.901 Q202.13 753.072 202.13 758.489 Q202.13 764.068 198.658 767.169 Q195.186 770.248 188.866 770.248 Q186.69 770.248 184.422 769.878 Q182.176 769.507 179.769 768.767 L179.769 764.068 Q181.852 765.202 184.075 765.757 Q186.297 766.313 188.774 766.313 Q192.778 766.313 195.116 764.206 Q197.454 762.1 197.454 758.489 Q197.454 754.878 195.116 752.771 Q192.778 750.665 188.774 750.665 Q186.899 750.665 185.024 751.082 Q183.172 751.498 181.227 752.378 L181.227 735.017 Z" fill="#000000" fill-rule="evenodd" fill-opacity="1" /><path clip-path="url(#clip170)" d="M 0 0 M127.802 525.381 Q124.191 525.381 122.362 528.945 Q120.556 532.487 120.556 539.617 Q120.556 546.723 122.362 550.288 Q124.191 553.83 127.802 553.83 Q131.436 553.83 133.242 550.288 Q135.07 546.723 135.07 539.617 Q135.07 532.487 133.242 528.945 Q131.436 525.381 127.802 525.381 M127.802 521.677 Q133.612 521.677 136.667 526.283 Q139.746 530.867 139.746 539.617 Q139.746 548.344 136.667 552.95 Q133.612 557.533 127.802 557.533 Q121.992 557.533 118.913 552.95 Q115.857 548.344 115.857 539.617 Q115.857 530.867 118.913 526.283 Q121.992 521.677 127.802 521.677 Z" fill="#000000" fill-rule="evenodd" fill-opacity="1" /><path clip-path="url(#clip170)" d="M 0 0 M144.816 550.982 L149.7 550.982 L149.7 556.862 L144.816 556.862 L144.816 550.982 Z" fill="#000000" fill-rule="evenodd" fill-opacity="1" /><path clip-path="url(#clip170)" d="M 0 0 M158.797 552.927 L175.116 552.927 L175.116 556.862 L153.172 556.862 L153.172 552.927 Q155.834 550.172 160.417 545.543 Q165.024 540.89 166.204 539.547 Q168.45 537.024 169.329 535.288 Q170.232 533.529 170.232 531.839 Q170.232 529.084 168.288 527.348 Q166.366 525.612 163.265 525.612 Q161.065 525.612 158.612 526.376 Q156.181 527.14 153.403 528.691 L153.403 523.969 Q156.228 522.834 158.681 522.256 Q161.135 521.677 163.172 521.677 Q168.542 521.677 171.737 524.362 Q174.931 527.047 174.931 531.538 Q174.931 533.668 174.121 535.589 Q173.334 537.487 171.227 540.08 Q170.649 540.751 167.547 543.969 Q164.445 547.163 158.797 552.927 Z" fill="#000000" fill-rule="evenodd" fill-opacity="1" /><path clip-path="url(#clip170)" d="M 0 0 M190.186 525.381 Q186.575 525.381 184.746 528.945 Q182.94 532.487 182.94 539.617 Q182.94 546.723 184.746 550.288 Q186.575 553.83 190.186 553.83 Q193.82 553.83 195.625 550.288 Q197.454 546.723 197.454 539.617 Q197.454 532.487 195.625 528.945 Q193.82 525.381 190.186 525.381 M190.186 521.677 Q195.996 521.677 199.051 526.283 Q202.13 530.867 202.13 539.617 Q202.13 548.344 199.051 552.95 Q195.996 557.533 190.186 557.533 Q184.376 557.533 181.297 552.95 Q178.241 548.344 178.241 539.617 Q178.241 530.867 181.297 526.283 Q184.376 521.677 190.186 521.677 Z" fill="#000000" fill-rule="evenodd" fill-opacity="1" /><path clip-path="url(#clip170)" d="M 0 0 M128.797 312.666 Q125.186 312.666 123.357 316.231 Q121.552 319.772 121.552 326.902 Q121.552 334.008 123.357 337.573 Q125.186 341.115 128.797 341.115 Q132.431 341.115 134.237 337.573 Q136.066 334.008 136.066 326.902 Q136.066 319.772 134.237 316.231 Q132.431 312.666 128.797 312.666 M128.797 308.962 Q134.607 308.962 137.663 313.569 Q140.741 318.152 140.741 326.902 Q140.741 335.629 137.663 340.235 Q134.607 344.818 128.797 344.818 Q122.987 344.818 119.908 340.235 Q116.853 335.629 116.853 326.902 Q116.853 318.152 119.908 313.569 Q122.987 308.962 128.797 308.962 Z" fill="#000000" fill-rule="evenodd" fill-opacity="1" /><path clip-path="url(#clip170)" d="M 0 0 M145.811 338.268 L150.695 338.268 L150.695 344.147 L145.811 344.147 L145.811 338.268 Z" fill="#000000" fill-rule="evenodd" fill-opacity="1" /><path clip-path="url(#clip170)" d="M 0 0 M159.792 340.212 L176.112 340.212 L176.112 344.147 L154.167 344.147 L154.167 340.212 Q156.829 337.457 161.413 332.828 Q166.019 328.175 167.2 326.832 Q169.445 324.309 170.325 322.573 Q171.227 320.814 171.227 319.124 Q171.227 316.37 169.283 314.633 Q167.362 312.897 164.26 312.897 Q162.061 312.897 159.607 313.661 Q157.177 314.425 154.399 315.976 L154.399 311.254 Q157.223 310.12 159.677 309.541 Q162.13 308.962 164.167 308.962 Q169.538 308.962 172.732 311.647 Q175.926 314.332 175.926 318.823 Q175.926 320.953 175.116 322.874 Q174.329 324.772 172.223 327.365 Q171.644 328.036 168.542 331.254 Q165.44 334.448 159.792 340.212 Z" fill="#000000" fill-rule="evenodd" fill-opacity="1" /><path clip-path="url(#clip170)" d="M 0 0 M181.227 309.587 L199.584 309.587 L199.584 313.522 L185.51 313.522 L185.51 321.994 Q186.528 321.647 187.547 321.485 Q188.565 321.3 189.584 321.3 Q195.371 321.3 198.75 324.471 Q202.13 327.643 202.13 333.059 Q202.13 338.638 198.658 341.74 Q195.186 344.818 188.866 344.818 Q186.69 344.818 184.422 344.448 Q182.176 344.078 179.769 343.337 L179.769 338.638 Q181.852 339.772 184.075 340.328 Q186.297 340.883 188.774 340.883 Q192.778 340.883 195.116 338.777 Q197.454 336.67 197.454 333.059 Q197.454 329.448 195.116 327.342 Q192.778 325.235 188.774 325.235 Q186.899 325.235 185.024 325.652 Q183.172 326.069 181.227 326.948 L181.227 309.587 Z" fill="#000000" fill-rule="evenodd" fill-opacity="1" /><path clip-path="url(#clip170)" d="M 0 0 M44.1444 1104.19 L50.9239 1104.19 Q47.9002 1107.43 46.4043 1111.13 Q44.9083 1114.79 44.9083 1118.92 Q44.9083 1127.07 49.9054 1131.4 Q54.8707 1135.73 64.2919 1135.73 Q73.6813 1135.73 78.6784 1131.4 Q83.6436 1127.07 83.6436 1118.92 Q83.6436 1114.79 82.1477 1111.13 Q80.6518 1107.43 77.6281 1104.19 L84.3439 1104.19 Q86.6355 1107.56 87.7814 1111.35 Q88.9272 1115.1 88.9272 1119.31 Q88.9272 1130.09 82.3387 1136.3 Q75.7183 1142.51 64.2919 1142.51 Q52.8336 1142.51 46.2451 1136.3 Q39.6248 1130.09 39.6248 1119.31 Q39.6248 1115.04 40.7706 1111.28 Q41.8846 1107.5 44.1444 1104.19 Z" fill="#000000" fill-rule="evenodd" fill-opacity="1" /><path clip-path="url(#clip170)" d="M 0 0 M56.4621 1084.23 Q56.4621 1088.94 60.1542 1091.68 Q63.8145 1094.42 70.212 1094.42 Q76.6095 1094.42 80.3017 1091.71 Q83.9619 1088.97 83.9619 1084.23 Q83.9619 1079.55 80.2698 1076.81 Q76.5777 1074.08 70.212 1074.08 Q63.8781 1074.08 60.186 1076.81 Q56.4621 1079.55 56.4621 1084.23 M51.4968 1084.23 Q51.4968 1076.59 56.4621 1072.23 Q61.4273 1067.87 70.212 1067.87 Q78.9649 1067.87 83.9619 1072.23 Q88.9272 1076.59 88.9272 1084.23 Q88.9272 1091.9 83.9619 1096.26 Q78.9649 1100.59 70.212 1100.59 Q61.4273 1100.59 56.4621 1096.26 Q51.4968 1091.9 51.4968 1084.23 Z" fill="#000000" fill-rule="evenodd" fill-opacity="1" /><path clip-path="url(#clip170)" d="M 0 0 M66.4881 1032.09 L88.0042 1032.09 L88.0042 1037.95 L66.679 1037.95 Q61.6183 1037.95 59.1038 1039.92 Q56.5894 1041.9 56.5894 1045.84 Q56.5894 1050.59 59.6131 1053.32 Q62.6368 1056.06 67.8567 1056.06 L88.0042 1056.06 L88.0042 1061.95 L52.3562 1061.95 L52.3562 1056.06 L57.8944 1056.06 Q54.6797 1053.96 53.0883 1051.13 Q51.4968 1048.26 51.4968 1044.54 Q51.4968 1038.4 55.3163 1035.25 Q59.1038 1032.09 66.4881 1032.09 Z" fill="#000000" fill-rule="evenodd" fill-opacity="1" /><path clip-path="url(#clip170)" d="M 0 0 M53.7248 1000.3 L59.1993 1000.3 Q57.8307 1002.78 57.1623 1005.3 Q56.4621 1007.78 56.4621 1010.32 Q56.4621 1016.02 60.0905 1019.17 Q63.6872 1022.32 70.212 1022.32 Q76.7369 1022.32 80.3653 1019.17 Q83.9619 1016.02 83.9619 1010.32 Q83.9619 1007.78 83.2935 1005.3 Q82.5933 1002.78 81.2247 1000.3 L86.6355 1000.3 Q87.7814 1002.75 88.3543 1005.39 Q88.9272 1008 88.9272 1010.96 Q88.9272 1019.01 83.8664 1023.76 Q78.8057 1028.5 70.212 1028.5 Q61.491 1028.5 56.4939 1023.72 Q51.4968 1018.92 51.4968 1010.58 Q51.4968 1007.87 52.0697 1005.3 Q52.6108 1002.72 53.7248 1000.3 Z" fill="#000000" fill-rule="evenodd" fill-opacity="1" /><path clip-path="url(#clip170)" d="M 0 0 M68.7161 963.664 L71.5806 963.664 L71.5806 990.59 Q77.6281 990.209 80.8109 986.962 Q83.9619 983.684 83.9619 977.859 Q83.9619 974.485 83.1344 971.334 Q82.3069 968.151 80.6518 965.032 L86.1899 965.032 Q87.5267 968.183 88.227 971.493 Q88.9272 974.803 88.9272 978.209 Q88.9272 986.739 83.9619 991.736 Q78.9967 996.702 70.5303 996.702 Q61.7774 996.702 56.6531 991.991 Q51.4968 987.248 51.4968 979.228 Q51.4968 972.034 56.1438 967.865 Q60.7589 963.664 68.7161 963.664 M66.9973 969.52 Q62.1912 969.584 59.3266 972.225 Q56.4621 974.835 56.4621 979.164 Q56.4621 984.066 59.2312 987.026 Q62.0002 989.954 67.0292 990.399 L66.9973 969.52 Z" fill="#000000" fill-rule="evenodd" fill-opacity="1" /><path clip-path="url(#clip170)" d="M 0 0 M66.4881 927.888 L88.0042 927.888 L88.0042 933.745 L66.679 933.745 Q61.6183 933.745 59.1038 935.718 Q56.5894 937.691 56.5894 941.638 Q56.5894 946.381 59.6131 949.118 Q62.6368 951.855 67.8567 951.855 L88.0042 951.855 L88.0042 957.743 L52.3562 957.743 L52.3562 951.855 L57.8944 951.855 Q54.6797 949.754 53.0883 946.922 Q51.4968 944.057 51.4968 940.333 Q51.4968 934.19 55.3163 931.039 Q59.1038 927.888 66.4881 927.888 Z" fill="#000000" fill-rule="evenodd" fill-opacity="1" /><path clip-path="url(#clip170)" d="M 0 0 M42.2347 915.953 L52.3562 915.953 L52.3562 903.89 L56.9077 903.89 L56.9077 915.953 L76.2594 915.953 Q80.6199 915.953 81.8613 914.775 Q83.1026 913.565 83.1026 909.905 L83.1026 903.89 L88.0042 903.89 L88.0042 909.905 Q88.0042 916.685 85.4897 919.263 Q82.9434 921.841 76.2594 921.841 L56.9077 921.841 L56.9077 926.138 L52.3562 926.138 L52.3562 921.841 L42.2347 921.841 L42.2347 915.953 Z" fill="#000000" fill-rule="evenodd" fill-opacity="1" /><path clip-path="url(#clip170)" d="M 0 0 M57.8307 877.09 Q57.2578 878.077 57.0032 879.254 Q56.7167 880.4 56.7167 881.801 Q56.7167 886.766 59.9632 889.439 Q63.1779 892.081 69.2253 892.081 L88.0042 892.081 L88.0042 897.969 L52.3562 897.969 L52.3562 892.081 L57.8944 892.081 Q54.6479 890.235 53.0883 887.275 Q51.4968 884.315 51.4968 880.082 Q51.4968 879.477 51.5923 878.745 Q51.656 878.013 51.8151 877.122 L57.8307 877.09 Z" fill="#000000" fill-rule="evenodd" fill-opacity="1" /><path clip-path="url(#clip170)" d="M 0 0 M70.0847 854.746 Q70.0847 861.844 71.7079 864.581 Q73.3312 867.319 77.2461 867.319 Q80.3653 867.319 82.2114 865.282 Q84.0256 863.213 84.0256 859.68 Q84.0256 854.81 80.5881 851.882 Q77.1188 848.922 71.3897 848.922 L70.0847 848.922 L70.0847 854.746 M67.6657 843.065 L88.0042 843.065 L88.0042 848.922 L82.5933 848.922 Q85.8398 850.927 87.3994 853.919 Q88.9272 856.911 88.9272 861.239 Q88.9272 866.714 85.8716 869.96 Q82.7843 873.175 77.6281 873.175 Q71.6125 873.175 68.5569 869.165 Q65.5014 865.122 65.5014 857.133 L65.5014 848.922 L64.9285 848.922 Q60.8862 848.922 58.6901 851.595 Q56.4621 854.237 56.4621 859.043 Q56.4621 862.099 57.1941 864.995 Q57.9262 867.891 59.3903 870.565 L53.9795 870.565 Q52.7381 867.35 52.1334 864.327 Q51.4968 861.303 51.4968 858.438 Q51.4968 850.704 55.5072 846.885 Q59.5176 843.065 67.6657 843.065 Z" fill="#000000" fill-rule="evenodd" fill-opacity="1" /><path clip-path="url(#clip170)" d="M 0 0 M42.2347 831.129 L52.3562 831.129 L52.3562 819.066 L56.9077 819.066 L56.9077 831.129 L76.2594 831.129 Q80.6199 831.129 81.8613 829.952 Q83.1026 828.742 83.1026 825.082 L83.1026 819.066 L88.0042 819.066 L88.0042 825.082 Q88.0042 831.862 85.4897 834.44 Q82.9434 837.018 76.2594 837.018 L56.9077 837.018 L56.9077 841.315 L52.3562 841.315 L52.3562 837.018 L42.2347 837.018 L42.2347 831.129 Z" fill="#000000" fill-rule="evenodd" fill-opacity="1" /><path clip-path="url(#clip170)" d="M 0 0 M52.3562 812.924 L52.3562 807.067 L88.0042 807.067 L88.0042 812.924 L52.3562 812.924 M38.479 812.924 L38.479 807.067 L45.895 807.067 L45.895 812.924 L38.479 812.924 Z" fill="#000000" fill-rule="evenodd" fill-opacity="1" /><path clip-path="url(#clip170)" d="M 0 0 M56.4621 787.111 Q56.4621 791.821 60.1542 794.559 Q63.8145 797.296 70.212 797.296 Q76.6095 797.296 80.3017 794.59 Q83.9619 791.853 83.9619 787.111 Q83.9619 782.432 80.2698 779.695 Q76.5777 776.957 70.212 776.957 Q63.8781 776.957 60.186 779.695 Q56.4621 782.432 56.4621 787.111 M51.4968 787.111 Q51.4968 779.472 56.4621 775.111 Q61.4273 770.751 70.212 770.751 Q78.9649 770.751 83.9619 775.111 Q88.9272 779.472 88.9272 787.111 Q88.9272 794.781 83.9619 799.142 Q78.9649 803.47 70.212 803.47 Q61.4273 803.47 56.4621 799.142 Q51.4968 794.781 51.4968 787.111 Z" fill="#000000" fill-rule="evenodd" fill-opacity="1" /><path clip-path="url(#clip170)" d="M 0 0 M66.4881 734.975 L88.0042 734.975 L88.0042 740.832 L66.679 740.832 Q61.6183 740.832 59.1038 742.805 Q56.5894 744.779 56.5894 748.725 Q56.5894 753.468 59.6131 756.205 Q62.6368 758.942 67.8567 758.942 L88.0042 758.942 L88.0042 764.831 L52.3562 764.831 L52.3562 758.942 L57.8944 758.942 Q54.6797 756.842 53.0883 754.009 Q51.4968 751.144 51.4968 747.42 Q51.4968 741.278 55.3163 738.127 Q59.1038 734.975 66.4881 734.975 Z" fill="#000000" fill-rule="evenodd" fill-opacity="1" /><path clip-path="url(#clip170)" d="M 0 0 M38.5426 694.044 Q45.8632 698.309 53.0246 700.378 Q60.186 702.447 67.5384 702.447 Q74.8908 702.447 82.1159 700.378 Q89.3091 698.277 96.5979 694.044 L96.5979 699.137 Q89.1182 703.911 81.8931 706.298 Q74.668 708.653 67.5384 708.653 Q60.4406 708.653 53.2474 706.298 Q46.0542 703.943 38.5426 699.137 L38.5426 694.044 Z" fill="#000000" fill-rule="evenodd" fill-opacity="1" /><path clip-path="url(#clip170)" d="M 0 0 M59.1993 660.147 Q55.2526 657.95 53.3747 654.895 Q51.4968 651.839 51.4968 647.702 Q51.4968 642.132 55.4117 639.108 Q59.2948 636.084 66.4881 636.084 L88.0042 636.084 L88.0042 641.973 L66.679 641.973 Q61.5546 641.973 59.072 643.787 Q56.5894 645.601 56.5894 649.325 Q56.5894 653.876 59.6131 656.518 Q62.6368 659.16 67.8567 659.16 L88.0042 659.16 L88.0042 665.048 L66.679 665.048 Q61.5228 665.048 59.072 666.862 Q56.5894 668.677 56.5894 672.464 Q56.5894 676.952 59.6449 679.594 Q62.6686 682.236 67.8567 682.236 L88.0042 682.236 L88.0042 688.124 L52.3562 688.124 L52.3562 682.236 L57.8944 682.236 Q54.616 680.23 53.0564 677.43 Q51.4968 674.629 51.4968 670.777 Q51.4968 666.894 53.4702 664.189 Q55.4436 661.452 59.1993 660.147 Z" fill="#000000" fill-rule="evenodd" fill-opacity="1" /><path clip-path="url(#clip170)" d="M 0 0 M69.7664 606.484 Q63.4007 606.484 59.8996 609.125 Q56.3984 611.735 56.3984 616.478 Q56.3984 621.188 59.8996 623.83 Q63.4007 626.44 69.7664 626.44 Q76.1003 626.44 79.6014 623.83 Q83.1026 621.188 83.1026 616.478 Q83.1026 611.735 79.6014 609.125 Q76.1003 606.484 69.7664 606.484 M83.58 600.627 Q92.683 600.627 97.1071 604.669 Q101.563 608.712 101.563 617.051 Q101.563 620.138 101.086 622.875 Q100.64 625.613 99.6852 628.191 L93.9879 628.191 Q95.3884 625.613 96.0568 623.098 Q96.7252 620.584 96.7252 617.974 Q96.7252 612.213 93.7015 609.348 Q90.7096 606.484 84.6303 606.484 L81.7339 606.484 Q84.885 608.298 86.4446 611.131 Q88.0042 613.963 88.0042 617.91 Q88.0042 624.467 83.0071 628.477 Q78.01 632.488 69.7664 632.488 Q61.491 632.488 56.4939 628.477 Q51.4968 624.467 51.4968 617.91 Q51.4968 613.963 53.0564 611.131 Q54.616 608.298 57.7671 606.484 L52.3562 606.484 L52.3562 600.627 L83.58 600.627 Z" fill="#000000" fill-rule="evenodd" fill-opacity="1" /><path clip-path="url(#clip170)" d="M 0 0 M40.4842 584.076 L40.4842 578.666 L94.0516 595.216 L94.0516 600.627 L40.4842 584.076 Z" fill="#000000" fill-rule="evenodd" fill-opacity="1" /><path clip-path="url(#clip170)" d="M 0 0 M59.1993 544.768 Q55.2526 542.572 53.3747 539.516 Q51.4968 536.461 51.4968 532.323 Q51.4968 526.753 55.4117 523.73 Q59.2948 520.706 66.4881 520.706 L88.0042 520.706 L88.0042 526.594 L66.679 526.594 Q61.5546 526.594 59.072 528.408 Q56.5894 530.223 56.5894 533.946 Q56.5894 538.498 59.6131 541.14 Q62.6368 543.781 67.8567 543.781 L88.0042 543.781 L88.0042 549.67 L66.679 549.67 Q61.5228 549.67 59.072 551.484 Q56.5894 553.298 56.5894 557.086 Q56.5894 561.574 59.6449 564.215 Q62.6686 566.857 67.8567 566.857 L88.0042 566.857 L88.0042 572.745 L52.3562 572.745 L52.3562 566.857 L57.8944 566.857 Q54.616 564.852 53.0564 562.051 Q51.4968 559.25 51.4968 555.399 Q51.4968 551.516 53.4702 548.81 Q55.4436 546.073 59.1993 544.768 Z" fill="#000000" fill-rule="evenodd" fill-opacity="1" /><path clip-path="url(#clip170)" d="M 0 0 M62.3822 494.256 Q63.3689 489.641 66.4881 487.063 Q69.6073 484.453 74.1906 484.453 Q81.2247 484.453 85.0759 489.291 Q88.9272 494.129 88.9272 503.041 Q88.9272 506.033 88.3224 509.216 Q87.7495 512.367 86.5719 515.741 L80.3653 515.741 Q81.9249 513.067 82.7206 509.884 Q83.5163 506.701 83.5163 503.232 Q83.5163 497.185 81.1292 494.033 Q78.7421 490.851 74.1906 490.851 Q69.9892 490.851 67.6339 493.811 Q65.2468 496.739 65.2468 501.991 L65.2468 507.529 L59.9632 507.529 L59.9632 501.736 Q59.9632 496.994 58.0853 494.479 Q56.1756 491.965 52.6108 491.965 Q48.9505 491.965 47.009 494.575 Q45.0356 497.153 45.0356 501.991 Q45.0356 504.632 45.6086 507.656 Q46.1815 510.68 47.3909 514.308 L41.6618 514.308 Q40.6433 510.648 40.134 507.465 Q39.6248 504.25 39.6248 501.418 Q39.6248 494.097 42.9668 489.832 Q46.277 485.567 51.9424 485.567 Q55.8892 485.567 58.6264 487.827 Q61.3318 490.087 62.3822 494.256 Z" fill="#000000" fill-rule="evenodd" fill-opacity="1" /><path clip-path="url(#clip170)" d="M 0 0 M38.5426 479.233 L38.5426 474.141 Q46.0542 469.366 53.2474 467.011 Q60.4406 464.624 67.5384 464.624 Q74.668 464.624 81.8931 467.011 Q89.1182 469.366 96.5979 474.141 L96.5979 479.233 Q89.3091 475 82.1159 472.931 Q74.8908 470.83 67.5384 470.83 Q60.186 470.83 53.0246 472.931 Q45.8632 475 38.5426 479.233 Z" fill="#000000" fill-rule="evenodd" fill-opacity="1" /><path clip-path="url(#clip170)" d="M 0 0 M614.466 34.1734 Q613.21 33.4443 611.711 33.1202 Q610.253 32.7556 608.47 32.7556 Q602.151 32.7556 598.748 36.8875 Q595.386 40.9789 595.386 48.6757 L595.386 72.576 L587.892 72.576 L587.892 27.2059 L595.386 27.2059 L595.386 34.2544 Q597.735 30.1225 601.503 28.1376 Q605.27 26.1121 610.658 26.1121 Q611.428 26.1121 612.359 26.2337 Q613.291 26.3147 614.425 26.5172 L614.466 34.1734 Z" fill="#000000" fill-rule="evenodd" fill-opacity="1" /><path clip-path="url(#clip170)" d="M 0 0 M659.269 48.0275 L659.269 51.6733 L624.998 51.6733 Q625.484 59.3701 629.616 63.421 Q633.789 67.4314 641.202 67.4314 Q645.496 67.4314 649.506 66.3781 Q653.557 65.3249 657.527 63.2184 L657.527 70.267 Q653.516 71.9684 649.304 72.8596 Q645.091 73.7508 640.756 73.7508 Q629.9 73.7508 623.54 67.4314 Q617.22 61.1119 617.22 50.3365 Q617.22 39.1965 623.216 32.6746 Q629.252 26.1121 639.46 26.1121 Q648.615 26.1121 653.922 32.0264 Q659.269 37.9003 659.269 48.0275 M651.815 45.84 Q651.734 39.7232 648.372 36.0774 Q645.05 32.4315 639.541 32.4315 Q633.302 32.4315 629.535 35.9558 Q625.808 39.4801 625.241 45.8805 L651.815 45.84 Z" fill="#000000" fill-rule="evenodd" fill-opacity="1" /><path clip-path="url(#clip170)" d="M 0 0 M699.737 28.9478 L699.737 35.9153 Q696.578 34.1734 693.377 33.3227 Q690.218 32.4315 686.977 32.4315 Q679.726 32.4315 675.715 37.0496 Q671.705 41.6271 671.705 49.9314 Q671.705 58.2358 675.715 62.8538 Q679.726 67.4314 686.977 67.4314 Q690.218 67.4314 693.377 66.5807 Q696.578 65.6895 699.737 63.9476 L699.737 70.8341 Q696.618 72.2924 693.256 73.0216 Q689.934 73.7508 686.167 73.7508 Q675.918 73.7508 669.882 67.3098 Q663.846 60.8689 663.846 49.9314 Q663.846 38.832 669.923 32.472 Q676.039 26.1121 686.653 26.1121 Q690.096 26.1121 693.377 26.8413 Q696.659 27.5299 699.737 28.9478 Z" fill="#000000" fill-rule="evenodd" fill-opacity="1" /><path clip-path="url(#clip170)" d="M 0 0 M746.363 48.0275 L746.363 51.6733 L712.093 51.6733 Q712.579 59.3701 716.711 63.421 Q720.883 67.4314 728.296 67.4314 Q732.59 67.4314 736.6 66.3781 Q740.651 65.3249 744.621 63.2184 L744.621 70.267 Q740.611 71.9684 736.398 72.8596 Q732.185 73.7508 727.851 73.7508 Q716.994 73.7508 710.634 67.4314 Q704.315 61.1119 704.315 50.3365 Q704.315 39.1965 710.31 32.6746 Q716.346 26.1121 726.554 26.1121 Q735.709 26.1121 741.016 32.0264 Q746.363 37.9003 746.363 48.0275 M738.91 45.84 Q738.828 39.7232 735.466 36.0774 Q732.144 32.4315 726.635 32.4315 Q720.397 32.4315 716.63 35.9558 Q712.903 39.4801 712.336 45.8805 L738.91 45.84 Z" fill="#000000" fill-rule="evenodd" fill-opacity="1" /><path clip-path="url(#clip170)" d="M 0 0 M761.392 65.7705 L761.392 89.8329 L753.898 89.8329 L753.898 27.2059 L761.392 27.2059 L761.392 34.0924 Q763.742 30.0415 767.306 28.0971 Q770.912 26.1121 775.894 26.1121 Q784.158 26.1121 789.303 32.6746 Q794.488 39.2371 794.488 49.9314 Q794.488 60.6258 789.303 67.1883 Q784.158 73.7508 775.894 73.7508 Q770.912 73.7508 767.306 71.8063 Q763.742 69.8214 761.392 65.7705 M786.751 49.9314 Q786.751 41.7081 783.348 37.0496 Q779.986 32.3505 774.071 32.3505 Q768.157 32.3505 764.754 37.0496 Q761.392 41.7081 761.392 49.9314 Q761.392 58.1548 764.754 62.8538 Q768.157 67.5124 774.071 67.5124 Q779.986 67.5124 783.348 62.8538 Q786.751 58.1548 786.751 49.9314 Z" fill="#000000" fill-rule="evenodd" fill-opacity="1" /><path clip-path="url(#clip170)" d="M 0 0 M809.679 14.324 L809.679 27.2059 L825.032 27.2059 L825.032 32.9987 L809.679 32.9987 L809.679 57.6282 Q809.679 63.1779 811.178 64.7578 Q812.717 66.3376 817.376 66.3376 L825.032 66.3376 L825.032 72.576 L817.376 72.576 Q808.747 72.576 805.466 69.3758 Q802.185 66.1351 802.185 57.6282 L802.185 32.9987 L796.716 32.9987 L796.716 27.2059 L802.185 27.2059 L802.185 14.324 L809.679 14.324 Z" fill="#000000" fill-rule="evenodd" fill-opacity="1" /><path clip-path="url(#clip170)" d="M 0 0 M850.431 32.4315 Q844.436 32.4315 840.952 37.1306 Q837.468 41.7891 837.468 49.9314 Q837.468 58.0738 840.911 62.7728 Q844.395 67.4314 850.431 67.4314 Q856.386 67.4314 859.87 62.7323 Q863.353 58.0333 863.353 49.9314 Q863.353 41.8701 859.87 37.1711 Q856.386 32.4315 850.431 32.4315 M850.431 26.1121 Q860.153 26.1121 865.703 32.4315 Q871.253 38.7509 871.253 49.9314 Q871.253 61.0714 865.703 67.4314 Q860.153 73.7508 850.431 73.7508 Q840.668 73.7508 835.118 67.4314 Q829.609 61.0714 829.609 49.9314 Q829.609 38.7509 835.118 32.4315 Q840.668 26.1121 850.431 26.1121 Z" fill="#000000" fill-rule="evenodd" fill-opacity="1" /><path clip-path="url(#clip170)" d="M 0 0 M905.361 34.1734 Q904.105 33.4443 902.607 33.1202 Q901.148 32.7556 899.366 32.7556 Q893.046 32.7556 889.644 36.8875 Q886.281 40.9789 886.281 48.6757 L886.281 72.576 L878.787 72.576 L878.787 27.2059 L886.281 27.2059 L886.281 34.2544 Q888.631 30.1225 892.398 28.1376 Q896.166 26.1121 901.553 26.1121 Q902.323 26.1121 903.255 26.2337 Q904.186 26.3147 905.321 26.5172 L905.361 34.1734 Z" fill="#000000" fill-rule="evenodd" fill-opacity="1" /><path clip-path="url(#clip170)" d="M 0 0 M972.201 28.9478 L972.201 35.9153 Q969.041 34.1734 965.841 33.3227 Q962.681 32.4315 959.441 32.4315 Q952.19 32.4315 948.179 37.0496 Q944.169 41.6271 944.169 49.9314 Q944.169 58.2358 948.179 62.8538 Q952.19 67.4314 959.441 67.4314 Q962.681 67.4314 965.841 66.5807 Q969.041 65.6895 972.201 63.9476 L972.201 70.8341 Q969.082 72.2924 965.72 73.0216 Q962.398 73.7508 958.631 73.7508 Q948.382 73.7508 942.346 67.3098 Q936.31 60.8689 936.31 49.9314 Q936.31 38.832 942.386 32.472 Q948.503 26.1121 959.117 26.1121 Q962.56 26.1121 965.841 26.8413 Q969.122 27.5299 972.201 28.9478 Z" fill="#000000" fill-rule="evenodd" fill-opacity="1" /><path clip-path="url(#clip170)" d="M 0 0 M997.6 32.4315 Q991.605 32.4315 988.121 37.1306 Q984.637 41.7891 984.637 49.9314 Q984.637 58.0738 988.081 62.7728 Q991.564 67.4314 997.6 67.4314 Q1003.56 67.4314 1007.04 62.7323 Q1010.52 58.0333 1010.52 49.9314 Q1010.52 41.8701 1007.04 37.1711 Q1003.56 32.4315 997.6 32.4315 M997.6 26.1121 Q1007.32 26.1121 1012.87 32.4315 Q1018.42 38.7509 1018.42 49.9314 Q1018.42 61.0714 1012.87 67.4314 Q1007.32 73.7508 997.6 73.7508 Q987.838 73.7508 982.288 67.4314 Q976.779 61.0714 976.779 49.9314 Q976.779 38.7509 982.288 32.4315 Q987.838 26.1121 997.6 26.1121 Z" fill="#000000" fill-rule="evenodd" fill-opacity="1" /><path clip-path="url(#clip170)" d="M 0 0 M1063.95 45.1919 L1063.95 72.576 L1056.5 72.576 L1056.5 45.4349 Q1056.5 38.994 1053.99 35.7938 Q1051.48 32.5936 1046.45 32.5936 Q1040.42 32.5936 1036.93 36.4419 Q1033.45 40.2903 1033.45 46.9338 L1033.45 72.576 L1025.96 72.576 L1025.96 27.2059 L1033.45 27.2059 L1033.45 34.2544 Q1036.12 30.163 1039.73 28.1376 Q1043.38 26.1121 1048.12 26.1121 Q1055.93 26.1121 1059.94 30.9732 Q1063.95 35.7938 1063.95 45.1919 Z" fill="#000000" fill-rule="evenodd" fill-opacity="1" /><path clip-path="url(#clip170)" d="M 0 0 M1104.42 28.9478 L1104.42 35.9153 Q1101.26 34.1734 1098.06 33.3227 Q1094.9 32.4315 1091.66 32.4315 Q1084.41 32.4315 1080.4 37.0496 Q1076.39 41.6271 1076.39 49.9314 Q1076.39 58.2358 1080.4 62.8538 Q1084.41 67.4314 1091.66 67.4314 Q1094.9 67.4314 1098.06 66.5807 Q1101.26 65.6895 1104.42 63.9476 L1104.42 70.8341 Q1101.3 72.2924 1097.94 73.0216 Q1094.62 73.7508 1090.85 73.7508 Q1080.6 73.7508 1074.57 67.3098 Q1068.53 60.8689 1068.53 49.9314 Q1068.53 38.832 1074.61 32.472 Q1080.72 26.1121 1091.34 26.1121 Q1094.78 26.1121 1098.06 26.8413 Q1101.34 27.5299 1104.42 28.9478 Z" fill="#000000" fill-rule="evenodd" fill-opacity="1" /><path clip-path="url(#clip170)" d="M 0 0 M1151.05 48.0275 L1151.05 51.6733 L1116.78 51.6733 Q1117.26 59.3701 1121.4 63.421 Q1125.57 67.4314 1132.98 67.4314 Q1137.28 67.4314 1141.29 66.3781 Q1145.34 65.3249 1149.31 63.2184 L1149.31 70.267 Q1145.3 71.9684 1141.08 72.8596 Q1136.87 73.7508 1132.54 73.7508 Q1121.68 73.7508 1115.32 67.4314 Q1109 61.1119 1109 50.3365 Q1109 39.1965 1115 32.6746 Q1121.03 26.1121 1131.24 26.1121 Q1140.39 26.1121 1145.7 32.0264 Q1151.05 37.9003 1151.05 48.0275 M1143.59 45.84 Q1143.51 39.7232 1140.15 36.0774 Q1136.83 32.4315 1131.32 32.4315 Q1125.08 32.4315 1121.31 35.9558 Q1117.59 39.4801 1117.02 45.8805 L1143.59 45.84 Z" fill="#000000" fill-rule="evenodd" fill-opacity="1" /><path clip-path="url(#clip170)" d="M 0 0 M1196.58 45.1919 L1196.58 72.576 L1189.13 72.576 L1189.13 45.4349 Q1189.13 38.994 1186.62 35.7938 Q1184.1 32.5936 1179.08 32.5936 Q1173.04 32.5936 1169.56 36.4419 Q1166.08 40.2903 1166.08 46.9338 L1166.08 72.576 L1158.58 72.576 L1158.58 27.2059 L1166.08 27.2059 L1166.08 34.2544 Q1168.75 30.163 1172.36 28.1376 Q1176 26.1121 1180.74 26.1121 Q1188.56 26.1121 1192.57 30.9732 Q1196.58 35.7938 1196.58 45.1919 Z" fill="#000000" fill-rule="evenodd" fill-opacity="1" /><path clip-path="url(#clip170)" d="M 0 0 M1211.77 14.324 L1211.77 27.2059 L1227.12 27.2059 L1227.12 32.9987 L1211.77 32.9987 L1211.77 57.6282 Q1211.77 63.1779 1213.27 64.7578 Q1214.81 66.3376 1219.47 66.3376 L1227.12 66.3376 L1227.12 72.576 L1219.47 72.576 Q1210.84 72.576 1207.56 69.3758 Q1204.28 66.1351 1204.28 57.6282 L1204.28 32.9987 L1198.81 32.9987 L1198.81 27.2059 L1204.28 27.2059 L1204.28 14.324 L1211.77 14.324 Z" fill="#000000" fill-rule="evenodd" fill-opacity="1" /><path clip-path="url(#clip170)" d="M 0 0 M1261.23 34.1734 Q1259.98 33.4443 1258.48 33.1202 Q1257.02 32.7556 1255.24 32.7556 Q1248.92 32.7556 1245.52 36.8875 Q1242.15 40.9789 1242.15 48.6757 L1242.15 72.576 L1234.66 72.576 L1234.66 27.2059 L1242.15 27.2059 L1242.15 34.2544 Q1244.5 30.1225 1248.27 28.1376 Q1252.04 26.1121 1257.43 26.1121 Q1258.19 26.1121 1259.13 26.2337 Q1260.06 26.3147 1261.19 26.5172 L1261.23 34.1734 Z" fill="#000000" fill-rule="evenodd" fill-opacity="1" /><path clip-path="url(#clip170)" d="M 0 0 M1289.67 49.7694 Q1280.64 49.7694 1277.15 51.8354 Q1273.67 53.9013 1273.67 58.8839 Q1273.67 62.8538 1276.26 65.2034 Q1278.9 67.5124 1283.39 67.5124 Q1289.59 67.5124 1293.32 63.1374 Q1297.08 58.7219 1297.08 51.4303 L1297.08 49.7694 L1289.67 49.7694 M1304.54 46.6907 L1304.54 72.576 L1297.08 72.576 L1297.08 65.6895 Q1294.53 69.8214 1290.72 71.8063 Q1286.92 73.7508 1281.41 73.7508 Q1274.44 73.7508 1270.31 69.8619 Q1266.22 65.9325 1266.22 59.3701 Q1266.22 51.7138 1271.32 47.825 Q1276.46 43.9361 1286.63 43.9361 L1297.08 43.9361 L1297.08 43.2069 Q1297.08 38.0623 1293.68 35.2672 Q1290.32 32.4315 1284.2 32.4315 Q1280.31 32.4315 1276.63 33.3632 Q1272.94 34.295 1269.54 36.1584 L1269.54 29.2718 Q1273.63 27.692 1277.48 26.9223 Q1281.33 26.1121 1284.97 26.1121 Q1294.82 26.1121 1299.68 31.2163 Q1304.54 36.3204 1304.54 46.6907 Z" fill="#000000" fill-rule="evenodd" fill-opacity="1" /><path clip-path="url(#clip170)" d="M 0 0 M1319.73 14.324 L1319.73 27.2059 L1335.08 27.2059 L1335.08 32.9987 L1319.73 32.9987 L1319.73 57.6282 Q1319.73 63.1779 1321.23 64.7578 Q1322.77 66.3376 1327.42 66.3376 L1335.08 66.3376 L1335.08 72.576 L1327.42 72.576 Q1318.8 72.576 1315.52 69.3758 Q1312.23 66.1351 1312.23 57.6282 L1312.23 32.9987 L1306.77 32.9987 L1306.77 27.2059 L1312.23 27.2059 L1312.23 14.324 L1319.73 14.324 Z" fill="#000000" fill-rule="evenodd" fill-opacity="1" /><path clip-path="url(#clip170)" d="M 0 0 M1342.9 27.2059 L1350.35 27.2059 L1350.35 72.576 L1342.9 72.576 L1342.9 27.2059 M1342.9 9.54393 L1350.35 9.54393 L1350.35 18.9825 L1342.9 18.9825 L1342.9 9.54393 Z" fill="#000000" fill-rule="evenodd" fill-opacity="1" /><path clip-path="url(#clip170)" d="M 0 0 M1375.75 32.4315 Q1369.76 32.4315 1366.27 37.1306 Q1362.79 41.7891 1362.79 49.9314 Q1362.79 58.0738 1366.23 62.7728 Q1369.72 67.4314 1375.75 67.4314 Q1381.71 67.4314 1385.19 62.7323 Q1388.67 58.0333 1388.67 49.9314 Q1388.67 41.8701 1385.19 37.1711 Q1381.71 32.4315 1375.75 32.4315 M1375.75 26.1121 Q1385.47 26.1121 1391.02 32.4315 Q1396.57 38.7509 1396.57 49.9314 Q1396.57 61.0714 1391.02 67.4314 Q1385.47 73.7508 1375.75 73.7508 Q1365.99 73.7508 1360.44 67.4314 Q1354.93 61.0714 1354.93 49.9314 Q1354.93 38.7509 1360.44 32.4315 Q1365.99 26.1121 1375.75 26.1121 Z" fill="#000000" fill-rule="evenodd" fill-opacity="1" /><path clip-path="url(#clip170)" d="M 0 0 M1442.11 45.1919 L1442.11 72.576 L1434.65 72.576 L1434.65 45.4349 Q1434.65 38.994 1432.14 35.7938 Q1429.63 32.5936 1424.61 32.5936 Q1418.57 32.5936 1415.09 36.4419 Q1411.6 40.2903 1411.6 46.9338 L1411.6 72.576 L1404.11 72.576 L1404.11 27.2059 L1411.6 27.2059 L1411.6 34.2544 Q1414.28 30.163 1417.88 28.1376 Q1421.53 26.1121 1426.27 26.1121 Q1434.09 26.1121 1438.1 30.9732 Q1442.11 35.7938 1442.11 45.1919 Z" fill="#000000" fill-rule="evenodd" fill-opacity="1" /><path clip-path="url(#clip170)" d="M 0 0 M1470.95 27.2059 L1478.85 27.2059 L1493.03 65.2844 L1507.2 27.2059 L1515.1 27.2059 L1498.09 72.576 L1487.96 72.576 L1470.95 27.2059 Z" fill="#000000" fill-rule="evenodd" fill-opacity="1" /><path clip-path="url(#clip170)" d="M 0 0 M1551.84 28.5427 L1551.84 35.5912 Q1548.69 33.9709 1545.28 33.1607 Q1541.88 32.3505 1538.23 32.3505 Q1532.68 32.3505 1529.89 34.0519 Q1527.13 35.7533 1527.13 39.156 Q1527.13 41.7486 1529.12 43.2475 Q1531.1 44.7058 1537.1 46.0426 L1539.65 46.6097 Q1547.59 48.3111 1550.91 51.4303 Q1554.28 54.509 1554.28 60.0587 Q1554.28 66.3781 1549.25 70.0644 Q1544.27 73.7508 1535.52 73.7508 Q1531.87 73.7508 1527.9 73.0216 Q1523.97 72.3329 1519.6 70.9151 L1519.6 63.2184 Q1523.73 65.3654 1527.74 66.4591 Q1531.75 67.5124 1535.68 67.5124 Q1540.95 67.5124 1543.78 65.73 Q1546.62 63.9071 1546.62 60.6258 Q1546.62 57.5877 1544.55 55.9673 Q1542.53 54.3469 1535.6 52.8481 L1533.01 52.2405 Q1526.08 50.7821 1523 47.7845 Q1519.92 44.7463 1519.92 39.4801 Q1519.92 33.0797 1524.46 29.5959 Q1529 26.1121 1537.34 26.1121 Q1541.47 26.1121 1545.12 26.7198 Q1548.77 27.3274 1551.84 28.5427 Z" fill="#000000" fill-rule="evenodd" fill-opacity="1" /><path clip-path="url(#clip170)" d="M 0 0 M1584.13 27.2059 L1591.58 27.2059 L1600.9 62.6108 L1610.18 27.2059 L1618.97 27.2059 L1628.29 62.6108 L1637.56 27.2059 L1645.02 27.2059 L1633.15 72.576 L1624.36 72.576 L1614.59 35.3887 L1604.79 72.576 L1596 72.576 L1584.13 27.2059 Z" fill="#000000" fill-rule="evenodd" fill-opacity="1" /><path clip-path="url(#clip170)" d="M 0 0 M1652.83 27.2059 L1660.29 27.2059 L1660.29 72.576 L1652.83 72.576 L1652.83 27.2059 M1652.83 9.54393 L1660.29 9.54393 L1660.29 18.9825 L1652.83 18.9825 L1652.83 9.54393 Z" fill="#000000" fill-rule="evenodd" fill-opacity="1" /><path clip-path="url(#clip170)" d="M 0 0 M1705.82 45.1919 L1705.82 72.576 L1698.37 72.576 L1698.37 45.4349 Q1698.37 38.994 1695.85 35.7938 Q1693.34 32.5936 1688.32 32.5936 Q1682.28 32.5936 1678.8 36.4419 Q1675.32 40.2903 1675.32 46.9338 L1675.32 72.576 L1667.82 72.576 L1667.82 27.2059 L1675.32 27.2059 L1675.32 34.2544 Q1677.99 30.163 1681.6 28.1376 Q1685.24 26.1121 1689.98 26.1121 Q1697.8 26.1121 1701.81 30.9732 Q1705.82 35.7938 1705.82 45.1919 Z" fill="#000000" fill-rule="evenodd" fill-opacity="1" /><path clip-path="url(#clip170)" d="M 0 0 M1743.49 34.0924 L1743.49 9.54393 L1750.95 9.54393 L1750.95 72.576 L1743.49 72.576 L1743.49 65.7705 Q1741.14 69.8214 1737.54 71.8063 Q1733.97 73.7508 1728.95 73.7508 Q1720.73 73.7508 1715.54 67.1883 Q1710.4 60.6258 1710.4 49.9314 Q1710.4 39.2371 1715.54 32.6746 Q1720.73 26.1121 1728.95 26.1121 Q1733.97 26.1121 1737.54 28.0971 Q1741.14 30.0415 1743.49 34.0924 M1718.09 49.9314 Q1718.09 58.1548 1721.46 62.8538 Q1724.86 67.5124 1730.77 67.5124 Q1736.69 67.5124 1740.09 62.8538 Q1743.49 58.1548 1743.49 49.9314 Q1743.49 41.7081 1740.09 37.0496 Q1736.69 32.3505 1730.77 32.3505 Q1724.86 32.3505 1721.46 37.0496 Q1718.09 41.7081 1718.09 49.9314 Z" fill="#000000" fill-rule="evenodd" fill-opacity="1" /><path clip-path="url(#clip170)" d="M 0 0 M1787.69 28.5427 L1787.69 35.5912 Q1784.53 33.9709 1781.13 33.1607 Q1777.72 32.3505 1774.08 32.3505 Q1768.53 32.3505 1765.73 34.0519 Q1762.98 35.7533 1762.98 39.156 Q1762.98 41.7486 1764.96 43.2475 Q1766.95 44.7058 1772.94 46.0426 L1775.5 46.6097 Q1783.44 48.3111 1786.76 51.4303 Q1790.12 54.509 1790.12 60.0587 Q1790.12 66.3781 1785.1 70.0644 Q1780.11 73.7508 1771.36 73.7508 Q1767.72 73.7508 1763.75 73.0216 Q1759.82 72.3329 1755.44 70.9151 L1755.44 63.2184 Q1759.58 65.3654 1763.59 66.4591 Q1767.6 67.5124 1771.53 67.5124 Q1776.79 67.5124 1779.63 65.73 Q1782.46 63.9071 1782.46 60.6258 Q1782.46 57.5877 1780.4 55.9673 Q1778.37 54.3469 1771.44 52.8481 L1768.85 52.2405 Q1761.92 50.7821 1758.85 47.7845 Q1755.77 44.7463 1755.77 39.4801 Q1755.77 33.0797 1760.3 29.5959 Q1764.84 26.1121 1773.19 26.1121 Q1777.32 26.1121 1780.96 26.7198 Q1784.61 27.3274 1787.69 28.5427 Z" fill="#000000" fill-rule="evenodd" fill-opacity="1" /><path clip-path="url(#clip170)" d="M 0 0 M1805.15 65.7705 L1805.15 89.8329 L1797.65 89.8329 L1797.65 27.2059 L1805.15 27.2059 L1805.15 34.0924 Q1807.5 30.0415 1811.06 28.0971 Q1814.67 26.1121 1819.65 26.1121 Q1827.91 26.1121 1833.06 32.6746 Q1838.24 39.2371 1838.24 49.9314 Q1838.24 60.6258 1833.06 67.1883 Q1827.91 73.7508 1819.65 73.7508 Q1814.67 73.7508 1811.06 71.8063 Q1807.5 69.8214 1805.15 65.7705 M1830.51 49.9314 Q1830.51 41.7081 1827.1 37.0496 Q1823.74 32.3505 1817.83 32.3505 Q1811.91 32.3505 1808.51 37.0496 Q1805.15 41.7081 1805.15 49.9314 Q1805.15 58.1548 1808.51 62.8538 Q1811.91 67.5124 1817.83 67.5124 Q1823.74 67.5124 1827.1 62.8538 Q1830.51 58.1548 1830.51 49.9314 Z" fill="#000000" fill-rule="evenodd" fill-opacity="1" /><path clip-path="url(#clip170)" d="M 0 0 M1884.87 48.0275 L1884.87 51.6733 L1850.6 51.6733 Q1851.09 59.3701 1855.22 63.421 Q1859.39 67.4314 1866.8 67.4314 Q1871.1 67.4314 1875.11 66.3781 Q1879.16 65.3249 1883.13 63.2184 L1883.13 70.267 Q1879.12 71.9684 1874.9 72.8596 Q1870.69 73.7508 1866.36 73.7508 Q1855.5 73.7508 1849.14 67.4314 Q1842.82 61.1119 1842.82 50.3365 Q1842.82 39.1965 1848.82 32.6746 Q1854.85 26.1121 1865.06 26.1121 Q1874.22 26.1121 1879.52 32.0264 Q1884.87 37.9003 1884.87 48.0275 M1877.42 45.84 Q1877.34 39.7232 1873.97 36.0774 Q1870.65 32.4315 1865.14 32.4315 Q1858.9 32.4315 1855.14 35.9558 Q1851.41 39.4801 1850.84 45.8805 L1877.42 45.84 Z" fill="#000000" fill-rule="evenodd" fill-opacity="1" /><path clip-path="url(#clip170)" d="M 0 0 M1931.5 48.0275 L1931.5 51.6733 L1897.23 51.6733 Q1897.71 59.3701 1901.84 63.421 Q1906.02 67.4314 1913.43 67.4314 Q1917.72 67.4314 1921.73 66.3781 Q1925.78 65.3249 1929.75 63.2184 L1929.75 70.267 Q1925.74 71.9684 1921.53 72.8596 Q1917.32 73.7508 1912.98 73.7508 Q1902.13 73.7508 1895.77 67.4314 Q1889.45 61.1119 1889.45 50.3365 Q1889.45 39.1965 1895.44 32.6746 Q1901.48 26.1121 1911.69 26.1121 Q1920.84 26.1121 1926.15 32.0264 Q1931.5 37.9003 1931.5 48.0275 M1924.04 45.84 Q1923.96 39.7232 1920.6 36.0774 Q1917.28 32.4315 1911.77 32.4315 Q1905.53 32.4315 1901.76 35.9558 Q1898.04 39.4801 1897.47 45.8805 L1924.04 45.84 Z" fill="#000000" fill-rule="evenodd" fill-opacity="1" /><path clip-path="url(#clip170)" d="M 0 0 M1969.17 34.0924 L1969.17 9.54393 L1976.62 9.54393 L1976.62 72.576 L1969.17 72.576 L1969.17 65.7705 Q1966.82 69.8214 1963.21 71.8063 Q1959.65 73.7508 1954.63 73.7508 Q1946.4 73.7508 1941.22 67.1883 Q1936.07 60.6258 1936.07 49.9314 Q1936.07 39.2371 1941.22 32.6746 Q1946.4 26.1121 1954.63 26.1121 Q1959.65 26.1121 1963.21 28.0971 Q1966.82 30.0415 1969.17 34.0924 M1943.77 49.9314 Q1943.77 58.1548 1947.13 62.8538 Q1950.53 67.5124 1956.45 67.5124 Q1962.36 67.5124 1965.77 62.8538 Q1969.17 58.1548 1969.17 49.9314 Q1969.17 41.7081 1965.77 37.0496 Q1962.36 32.3505 1956.45 32.3505 Q1950.53 32.3505 1947.13 37.0496 Q1943.77 41.7081 1943.77 49.9314 Z" fill="#000000" fill-rule="evenodd" fill-opacity="1" /><path clip-path="url(#clip170)" d="M 0 0 M911.924 138.748 L911.924 142.393 L877.653 142.393 Q878.139 150.09 882.271 154.141 Q886.443 158.151 893.857 158.151 Q898.151 158.151 902.161 157.098 Q906.212 156.045 910.182 153.938 L910.182 160.987 Q906.171 162.688 901.958 163.58 Q897.745 164.471 893.411 164.471 Q882.555 164.471 876.195 158.151 Q869.875 151.832 869.875 141.057 Q869.875 129.917 875.871 123.395 Q881.906 116.832 892.115 116.832 Q901.27 116.832 906.576 122.746 Q911.924 128.62 911.924 138.748 M904.47 136.56 Q904.389 130.443 901.027 126.797 Q897.705 123.152 892.196 123.152 Q885.957 123.152 882.19 126.676 Q878.463 130.2 877.896 136.601 L904.47 136.56 Z" fill="#000000" fill-rule="evenodd" fill-opacity="1" /><path clip-path="url(#clip170)" d="M 0 0 M919.742 100.264 L927.196 100.264 L927.196 163.296 L919.742 163.296 L919.742 100.264 Z" fill="#000000" fill-rule="evenodd" fill-opacity="1" /><path clip-path="url(#clip170)" d="M 0 0 M973.821 138.748 L973.821 142.393 L939.551 142.393 Q940.037 150.09 944.169 154.141 Q948.341 158.151 955.754 158.151 Q960.048 158.151 964.059 157.098 Q968.11 156.045 972.08 153.938 L972.08 160.987 Q968.069 162.688 963.856 163.58 Q959.643 164.471 955.309 164.471 Q944.452 164.471 938.092 158.151 Q931.773 151.832 931.773 141.057 Q931.773 129.917 937.768 123.395 Q943.804 116.832 954.013 116.832 Q963.168 116.832 968.474 122.746 Q973.821 128.62 973.821 138.748 M966.368 136.56 Q966.287 130.443 962.925 126.797 Q959.603 123.152 954.094 123.152 Q947.855 123.152 944.088 126.676 Q940.361 130.2 939.794 136.601 L966.368 136.56 Z" fill="#000000" fill-rule="evenodd" fill-opacity="1" /><path clip-path="url(#clip170)" d="M 0 0 M976.292 117.926 L984.192 117.926 L998.37 156.004 L1012.55 117.926 L1020.45 117.926 L1003.43 163.296 L993.306 163.296 L976.292 117.926 Z" fill="#000000" fill-rule="evenodd" fill-opacity="1" /><path clip-path="url(#clip170)" d="M 0 0 M1048.88 140.489 Q1039.85 140.489 1036.37 142.555 Q1032.88 144.621 1032.88 149.604 Q1032.88 153.574 1035.48 155.923 Q1038.11 158.232 1042.61 158.232 Q1048.8 158.232 1052.53 153.857 Q1056.3 149.442 1056.3 142.15 L1056.3 140.489 L1048.88 140.489 M1063.75 137.411 L1063.75 163.296 L1056.3 163.296 L1056.3 156.409 Q1053.75 160.541 1049.94 162.526 Q1046.13 164.471 1040.62 164.471 Q1033.65 164.471 1029.52 160.582 Q1025.43 156.653 1025.43 150.09 Q1025.43 142.434 1030.53 138.545 Q1035.68 134.656 1045.85 134.656 L1056.3 134.656 L1056.3 133.927 Q1056.3 128.782 1052.9 125.987 Q1049.53 123.152 1043.42 123.152 Q1039.53 123.152 1035.84 124.083 Q1032.15 125.015 1028.75 126.878 L1028.75 119.992 Q1032.84 118.412 1036.69 117.642 Q1040.54 116.832 1044.19 116.832 Q1054.03 116.832 1058.89 121.936 Q1063.75 127.04 1063.75 137.411 Z" fill="#000000" fill-rule="evenodd" fill-opacity="1" /><path clip-path="url(#clip170)" d="M 0 0 M1078.94 105.044 L1078.94 117.926 L1094.3 117.926 L1094.3 123.719 L1078.94 123.719 L1078.94 148.348 Q1078.94 153.898 1080.44 155.478 Q1081.98 157.058 1086.64 157.058 L1094.3 157.058 L1094.3 163.296 L1086.64 163.296 Q1078.01 163.296 1074.73 160.096 Q1071.45 156.855 1071.45 148.348 L1071.45 123.719 L1065.98 123.719 L1065.98 117.926 L1071.45 117.926 L1071.45 105.044 L1078.94 105.044 Z" fill="#000000" fill-rule="evenodd" fill-opacity="1" /><path clip-path="url(#clip170)" d="M 0 0 M1140.92 138.748 L1140.92 142.393 L1106.65 142.393 Q1107.14 150.09 1111.27 154.141 Q1115.44 158.151 1122.85 158.151 Q1127.15 158.151 1131.16 157.098 Q1135.21 156.045 1139.18 153.938 L1139.18 160.987 Q1135.17 162.688 1130.96 163.58 Q1126.74 164.471 1122.41 164.471 Q1111.55 164.471 1105.19 158.151 Q1098.87 151.832 1098.87 141.057 Q1098.87 129.917 1104.87 123.395 Q1110.9 116.832 1121.11 116.832 Q1130.27 116.832 1135.57 122.746 Q1140.92 128.62 1140.92 138.748 M1133.47 136.56 Q1133.39 130.443 1130.02 126.797 Q1126.7 123.152 1121.19 123.152 Q1114.95 123.152 1111.19 126.676 Q1107.46 130.2 1106.89 136.601 L1133.47 136.56 Z" fill="#000000" fill-rule="evenodd" fill-opacity="1" /><path clip-path="url(#clip170)" d="M 0 0 M1178.59 124.812 L1178.59 100.264 L1186.05 100.264 L1186.05 163.296 L1178.59 163.296 L1178.59 156.49 Q1176.25 160.541 1172.64 162.526 Q1169.08 164.471 1164.05 164.471 Q1155.83 164.471 1150.64 157.908 Q1145.5 151.346 1145.5 140.651 Q1145.5 129.957 1150.64 123.395 Q1155.83 116.832 1164.05 116.832 Q1169.08 116.832 1172.64 118.817 Q1176.25 120.762 1178.59 124.812 M1153.2 140.651 Q1153.2 148.875 1156.56 153.574 Q1159.96 158.232 1165.87 158.232 Q1171.79 158.232 1175.19 153.574 Q1178.59 148.875 1178.59 140.651 Q1178.59 132.428 1175.19 127.77 Q1171.79 123.071 1165.87 123.071 Q1159.96 123.071 1156.56 127.77 Q1153.2 132.428 1153.2 140.651 Z" fill="#000000" fill-rule="evenodd" fill-opacity="1" /><path clip-path="url(#clip170)" d="M 0 0 M1215.9 117.926 L1223.36 117.926 L1232.67 153.331 L1241.95 117.926 L1250.74 117.926 L1260.06 153.331 L1269.33 117.926 L1276.79 117.926 L1264.92 163.296 L1256.13 163.296 L1246.37 126.109 L1236.56 163.296 L1227.77 163.296 L1215.9 117.926 Z" fill="#000000" fill-rule="evenodd" fill-opacity="1" /><path clip-path="url(#clip170)" d="M 0 0 M1302.19 123.152 Q1296.19 123.152 1292.71 127.851 Q1289.22 132.509 1289.22 140.651 Q1289.22 148.794 1292.67 153.493 Q1296.15 158.151 1302.19 158.151 Q1308.14 158.151 1311.63 153.452 Q1315.11 148.753 1315.11 140.651 Q1315.11 132.59 1311.63 127.891 Q1308.14 123.152 1302.19 123.152 M1302.19 116.832 Q1311.91 116.832 1317.46 123.152 Q1323.01 129.471 1323.01 140.651 Q1323.01 151.791 1317.46 158.151 Q1311.91 164.471 1302.19 164.471 Q1292.43 164.471 1286.88 158.151 Q1281.37 151.791 1281.37 140.651 Q1281.37 129.471 1286.88 123.152 Q1292.43 116.832 1302.19 116.832 Z" fill="#000000" fill-rule="evenodd" fill-opacity="1" /><path clip-path="url(#clip170)" d="M 0 0 M1357.12 124.893 Q1355.86 124.164 1354.36 123.84 Q1352.91 123.476 1351.12 123.476 Q1344.8 123.476 1341.4 127.608 Q1338.04 131.699 1338.04 139.396 L1338.04 163.296 L1330.54 163.296 L1330.54 117.926 L1338.04 117.926 L1338.04 124.974 Q1340.39 120.843 1344.16 118.858 Q1347.92 116.832 1353.31 116.832 Q1354.08 116.832 1355.01 116.954 Q1355.94 117.035 1357.08 117.237 L1357.12 124.893 Z" fill="#000000" fill-rule="evenodd" fill-opacity="1" /><path clip-path="url(#clip170)" d="M 0 0 M1364.65 100.264 L1372.15 100.264 L1372.15 137.492 L1394.39 117.926 L1403.91 117.926 L1379.84 139.153 L1404.92 163.296 L1395.2 163.296 L1372.15 141.138 L1372.15 163.296 L1364.65 163.296 L1364.65 100.264 Z" fill="#000000" fill-rule="evenodd" fill-opacity="1" /><path clip-path="url(#clip170)" d="M 0 0 M1446.32 156.49 L1446.32 180.553 L1438.82 180.553 L1438.82 117.926 L1446.32 117.926 L1446.32 124.812 Q1448.67 120.762 1452.23 118.817 Q1455.84 116.832 1460.82 116.832 Q1469.08 116.832 1474.23 123.395 Q1479.41 129.957 1479.41 140.651 Q1479.41 151.346 1474.23 157.908 Q1469.08 164.471 1460.82 164.471 Q1455.84 164.471 1452.23 162.526 Q1448.67 160.541 1446.32 156.49 M1471.68 140.651 Q1471.68 132.428 1468.27 127.77 Q1464.91 123.071 1459 123.071 Q1453.08 123.071 1449.68 127.77 Q1446.32 132.428 1446.32 140.651 Q1446.32 148.875 1449.68 153.574 Q1453.08 158.232 1459 158.232 Q1464.91 158.232 1468.27 153.574 Q1471.68 148.875 1471.68 140.651 Z" fill="#000000" fill-rule="evenodd" fill-opacity="1" /><path clip-path="url(#clip170)" d="M 0 0 M1487.23 100.264 L1494.69 100.264 L1494.69 163.296 L1487.23 163.296 L1487.23 100.264 Z" fill="#000000" fill-rule="evenodd" fill-opacity="1" /><path clip-path="url(#clip170)" d="M 0 0 M1523.12 140.489 Q1514.09 140.489 1510.61 142.555 Q1507.12 144.621 1507.12 149.604 Q1507.12 153.574 1509.72 155.923 Q1512.35 158.232 1516.85 158.232 Q1523.04 158.232 1526.77 153.857 Q1530.54 149.442 1530.54 142.15 L1530.54 140.489 L1523.12 140.489 M1537.99 137.411 L1537.99 163.296 L1530.54 163.296 L1530.54 156.409 Q1527.99 160.541 1524.18 162.526 Q1520.37 164.471 1514.86 164.471 Q1507.89 164.471 1503.76 160.582 Q1499.67 156.653 1499.67 150.09 Q1499.67 142.434 1504.77 138.545 Q1509.92 134.656 1520.09 134.656 L1530.54 134.656 L1530.54 133.927 Q1530.54 128.782 1527.13 125.987 Q1523.77 123.152 1517.66 123.152 Q1513.77 123.152 1510.08 124.083 Q1506.39 125.015 1502.99 126.878 L1502.99 119.992 Q1507.08 118.412 1510.93 117.642 Q1514.78 116.832 1518.43 116.832 Q1528.27 116.832 1533.13 121.936 Q1537.99 127.04 1537.99 137.411 Z" fill="#000000" fill-rule="evenodd" fill-opacity="1" /><path clip-path="url(#clip170)" d="M 0 0 M1553.18 105.044 L1553.18 117.926 L1568.53 117.926 L1568.53 123.719 L1553.18 123.719 L1553.18 148.348 Q1553.18 153.898 1554.68 155.478 Q1556.22 157.058 1560.88 157.058 L1568.53 157.058 L1568.53 163.296 L1560.88 163.296 Q1552.25 163.296 1548.97 160.096 Q1545.69 156.855 1545.69 148.348 L1545.69 123.719 L1540.22 123.719 L1540.22 117.926 L1545.69 117.926 L1545.69 105.044 L1553.18 105.044 Z" fill="#000000" fill-rule="evenodd" fill-opacity="1" /><path clip-path="url(#clip170)" d="M 0 0 M1599.32 100.264 L1599.32 106.462 L1592.19 106.462 Q1588.18 106.462 1586.6 108.082 Q1585.06 109.703 1585.06 113.915 L1585.06 117.926 L1597.34 117.926 L1597.34 123.719 L1585.06 123.719 L1585.06 163.296 L1577.57 163.296 L1577.57 123.719 L1570.44 123.719 L1570.44 117.926 L1577.57 117.926 L1577.57 114.766 Q1577.57 107.191 1581.09 103.748 Q1584.62 100.264 1592.27 100.264 L1599.32 100.264 Z" fill="#000000" fill-rule="evenodd" fill-opacity="1" /><path clip-path="url(#clip170)" d="M 0 0 M1624.72 123.152 Q1618.73 123.152 1615.24 127.851 Q1611.76 132.509 1611.76 140.651 Q1611.76 148.794 1615.2 153.493 Q1618.68 158.151 1624.72 158.151 Q1630.68 158.151 1634.16 153.452 Q1637.64 148.753 1637.64 140.651 Q1637.64 132.59 1634.16 127.891 Q1630.68 123.152 1624.72 123.152 M1624.72 116.832 Q1634.44 116.832 1639.99 123.152 Q1645.54 129.471 1645.54 140.651 Q1645.54 151.791 1639.99 158.151 Q1634.44 164.471 1624.72 164.471 Q1614.96 164.471 1609.41 158.151 Q1603.9 151.791 1603.9 140.651 Q1603.9 129.471 1609.41 123.152 Q1614.96 116.832 1624.72 116.832 Z" fill="#000000" fill-rule="evenodd" fill-opacity="1" /><path clip-path="url(#clip170)" d="M 0 0 M1679.65 124.893 Q1678.4 124.164 1676.9 123.84 Q1675.44 123.476 1673.66 123.476 Q1667.34 123.476 1663.93 127.608 Q1660.57 131.699 1660.57 139.396 L1660.57 163.296 L1653.08 163.296 L1653.08 117.926 L1660.57 117.926 L1660.57 124.974 Q1662.92 120.843 1666.69 118.858 Q1670.46 116.832 1675.84 116.832 Q1676.61 116.832 1677.54 116.954 Q1678.48 117.035 1679.61 117.237 L1679.65 124.893 Z" fill="#000000" fill-rule="evenodd" fill-opacity="1" /><path clip-path="url(#clip170)" d="M 0 0 M1721.33 126.635 Q1724.13 121.612 1728.02 119.222 Q1731.91 116.832 1737.17 116.832 Q1744.26 116.832 1748.11 121.815 Q1751.96 126.757 1751.96 135.912 L1751.96 163.296 L1744.47 163.296 L1744.47 136.155 Q1744.47 129.633 1742.16 126.473 Q1739.85 123.314 1735.11 123.314 Q1729.32 123.314 1725.95 127.162 Q1722.59 131.01 1722.59 137.654 L1722.59 163.296 L1715.1 163.296 L1715.1 136.155 Q1715.1 129.592 1712.79 126.473 Q1710.48 123.314 1705.66 123.314 Q1699.95 123.314 1696.58 127.202 Q1693.22 131.051 1693.22 137.654 L1693.22 163.296 L1685.73 163.296 L1685.73 117.926 L1693.22 117.926 L1693.22 124.974 Q1695.77 120.802 1699.34 118.817 Q1702.9 116.832 1707.8 116.832 Q1712.75 116.832 1716.19 119.344 Q1719.67 121.855 1721.33 126.635 Z" fill="#000000" fill-rule="evenodd" fill-opacity="1" /><polyline clip-path="url(#clip172)" style="stroke:#009af9; stroke-width:4; stroke-opacity:1; fill:none" points="
  297.978,1387.82 338.691,1376.47 379.404,1336.78 
  "/>
<polyline clip-path="url(#clip172)" style="stroke:#e26f46; stroke-width:4; stroke-opacity:1; fill:none" points="
  297.978,1387.93 338.691,1379.9 379.404,1354.04 420.117,1296.72 460.829,1212.07 
  "/>
<polyline clip-path="url(#clip172)" style="stroke:#3da44d; stroke-width:4; stroke-opacity:1; fill:none" points="
  297.978,1388.04 338.691,1382.79 379.404,1369.88 420.117,1341.03 460.829,1288.77 501.542,1212.22 542.255,1118.7 582.968,1019.54 623.681,925.045 664.394,841.973 
  705.107,773.403 745.819,719.752 786.532,679.885 827.245,651.968 867.958,633.989 908.671,624.04 949.384,620.442 990.097,621.781 1030.81,626.9 1071.52,634.865 
  1112.24,644.936 1152.95,656.528 1193.66,669.186 1234.37,682.554 1275.09,696.357 1315.8,710.384 1356.51,724.473 1397.23,738.501 1437.94,752.375 1478.65,766.028 
  1519.36,779.409 1560.08,792.483 1600.79,805.226 1641.5,817.623 1682.22,829.665 1722.93,841.349 1763.64,852.675 1804.35,863.647 1845.07,874.27 1885.78,884.554 
  1926.49,894.505 1967.21,904.134 2007.92,913.451 2048.63,922.465 2089.34,931.189 2130.06,939.631 2170.77,947.803 2211.48,955.715 2252.2,963.376 2292.91,970.797 
  
  "/>
<polyline clip-path="url(#clip172)" style="stroke:#c271d2; stroke-width:4; stroke-opacity:1; fill:none" points="
  297.978,1388.11 338.691,1384.34 379.404,1377.94 420.117,1366.57 460.829,1347.17 501.542,1316.31 542.255,1271.17 582.968,1210.68 623.681,1135.91 664.394,1049.94 
  705.107,956.978 745.819,861.55 786.532,767.722 827.245,678.724 867.958,596.819 908.671,523.368 949.384,458.984 990.097,403.722 1030.81,357.246 1071.52,318.977 
  1112.24,288.199 1152.95,264.142 1193.66,246.032 1234.37,233.127 1275.09,224.736 1315.8,220.228 1356.51,219.04 1397.23,220.672 1437.94,224.682 1478.65,230.687 
  1519.36,238.354 1560.08,247.396 1600.79,257.563 1641.5,268.644 1682.22,280.457 1722.93,292.845 1763.64,305.676 1804.35,318.837 1845.07,332.232 1885.78,345.781 
  1926.49,359.414 1967.21,373.074 2007.92,386.713 2048.63,400.289 2089.34,413.77 2130.06,427.126 2170.77,440.337 2211.48,453.381 2252.2,466.245 2292.91,478.917 
  
  "/>
<polyline clip-path="url(#clip172)" style="stroke:#ac8d18; stroke-width:4; stroke-opacity:1; fill:none" points="
  297.978,1383.74 338.691,1384.69 379.404,1379.67 420.117,1371.89 460.829,1359.88 
  "/>
<polyline clip-path="url(#clip172)" style="stroke:#00a9ad; stroke-width:4; stroke-opacity:1; fill:none" points="
  297.978,1381.3 338.691,1384.36 379.404,1381.18 
  "/>
<circle clip-path="url(#clip172)" cx="1352.21" cy="219.025" r="14" fill="#ed5d92" fill-rule="evenodd" fill-opacity="1" stroke="#000000" stroke-opacity="1" stroke-width="3.2"/>
<path clip-path="url(#clip170)" d="
M308.618 709.1 L789.663 709.1 L789.663 225.26 L308.618 225.26  Z
  " fill="#ffffff" fill-rule="evenodd" fill-opacity="1"/>
<polyline clip-path="url(#clip170)" style="stroke:#000000; stroke-width:4; stroke-opacity:1; fill:none" points="
  308.618,709.1 789.663,709.1 789.663,225.26 308.618,225.26 308.618,709.1 
  "/>
<polyline clip-path="url(#clip170)" style="stroke:#009af9; stroke-width:4; stroke-opacity:1; fill:none" points="
  332.113,285.74 473.088,285.74 
  "/>
<path clip-path="url(#clip170)" d="M 0 0 M512.418 273.066 L506.075 290.265 L518.783 290.265 L512.418 273.066 M509.779 268.46 L515.08 268.46 L528.251 303.02 L523.39 303.02 L520.242 294.154 L504.663 294.154 L501.515 303.02 L496.584 303.02 L509.779 268.46 Z" fill="#000000" fill-rule="evenodd" fill-opacity="1" /><polyline clip-path="url(#clip170)" style="stroke:#e26f46; stroke-width:4; stroke-opacity:1; fill:none" points="
  332.113,346.22 473.088,346.22 
  "/>
<path clip-path="url(#clip170)" d="M 0 0 M501.26 346.995 L501.26 359.657 L508.76 359.657 Q512.533 359.657 514.339 358.106 Q516.168 356.532 516.168 353.315 Q516.168 350.074 514.339 348.546 Q512.533 346.995 508.76 346.995 L501.26 346.995 M501.26 332.782 L501.26 343.199 L508.181 343.199 Q511.607 343.199 513.274 341.926 Q514.964 340.629 514.964 337.991 Q514.964 335.375 513.274 334.079 Q511.607 332.782 508.181 332.782 L501.26 332.782 M496.584 328.94 L508.529 328.94 Q513.876 328.94 516.769 331.162 Q519.663 333.384 519.663 337.481 Q519.663 340.653 518.181 342.528 Q516.7 344.403 513.83 344.866 Q517.279 345.606 519.177 347.967 Q521.098 350.305 521.098 353.824 Q521.098 358.453 517.95 360.977 Q514.802 363.5 508.992 363.5 L496.584 363.5 L496.584 328.94 Z" fill="#000000" fill-rule="evenodd" fill-opacity="1" /><polyline clip-path="url(#clip170)" style="stroke:#3da44d; stroke-width:4; stroke-opacity:1; fill:none" points="
  332.113,406.7 473.088,406.7 
  "/>
<path clip-path="url(#clip170)" d="M 0 0 M524.455 392.082 L524.455 397.012 Q522.093 394.813 519.408 393.725 Q516.746 392.637 513.737 392.637 Q507.811 392.637 504.663 396.272 Q501.515 399.883 501.515 406.734 Q501.515 413.563 504.663 417.197 Q507.811 420.808 513.737 420.808 Q516.746 420.808 519.408 419.72 Q522.093 418.633 524.455 416.433 L524.455 421.318 Q522.001 422.984 519.246 423.818 Q516.515 424.651 513.459 424.651 Q505.612 424.651 501.098 419.859 Q496.584 415.045 496.584 406.734 Q496.584 398.401 501.098 393.61 Q505.612 388.795 513.459 388.795 Q516.561 388.795 519.293 389.628 Q522.047 390.438 524.455 392.082 Z" fill="#000000" fill-rule="evenodd" fill-opacity="1" /><polyline clip-path="url(#clip170)" style="stroke:#c271d2; stroke-width:4; stroke-opacity:1; fill:none" points="
  332.113,467.18 473.088,467.18 
  "/>
<path clip-path="url(#clip170)" d="M 0 0 M501.26 453.742 L501.26 480.617 L506.908 480.617 Q514.061 480.617 517.371 477.376 Q520.705 474.136 520.705 467.145 Q520.705 460.201 517.371 456.983 Q514.061 453.742 506.908 453.742 L501.26 453.742 M496.584 449.9 L506.191 449.9 Q516.237 449.9 520.936 454.09 Q525.635 458.256 525.635 467.145 Q525.635 476.08 520.913 480.27 Q516.191 484.46 506.191 484.46 L496.584 484.46 L496.584 449.9 Z" fill="#000000" fill-rule="evenodd" fill-opacity="1" /><polyline clip-path="url(#clip170)" style="stroke:#ac8d18; stroke-width:4; stroke-opacity:1; fill:none" points="
  332.113,527.66 473.088,527.66 
  "/>
<path clip-path="url(#clip170)" d="M 0 0 M496.584 510.38 L518.436 510.38 L518.436 514.315 L501.26 514.315 L501.26 524.546 L517.718 524.546 L517.718 528.481 L501.26 528.481 L501.26 541.005 L518.853 541.005 L518.853 544.94 L496.584 544.94 L496.584 510.38 Z" fill="#000000" fill-rule="evenodd" fill-opacity="1" /><polyline clip-path="url(#clip170)" style="stroke:#00a9ad; stroke-width:4; stroke-opacity:1; fill:none" points="
  332.113,588.14 473.088,588.14 
  "/>
<path clip-path="url(#clip170)" d="M 0 0 M496.584 570.86 L516.445 570.86 L516.445 574.795 L501.26 574.795 L501.26 584.98 L514.964 584.98 L514.964 588.915 L501.26 588.915 L501.26 605.42 L496.584 605.42 L496.584 570.86 Z" fill="#000000" fill-rule="evenodd" fill-opacity="1" /><circle clip-path="url(#clip170)" cx="402.601" cy="648.62" r="23" fill="#ed5d92" fill-rule="evenodd" fill-opacity="1" stroke="#000000" stroke-opacity="1" stroke-width="5.12"/>
<path clip-path="url(#clip170)" d="M 0 0 M496.584 631.34 L501.307 631.34 L508.575 660.553 L515.82 631.34 L521.075 631.34 L528.343 660.553 L535.589 631.34 L540.334 631.34 L531.654 665.9 L525.774 665.9 L518.482 635.9 L511.121 665.9 L505.242 665.9 L496.584 631.34 Z" fill="#000000" fill-rule="evenodd" fill-opacity="1" /><path clip-path="url(#clip170)" d="M 0 0 M552.07 642.96 Q548.644 642.96 546.654 645.645 Q544.663 648.307 544.663 652.96 Q544.663 657.613 546.63 660.298 Q548.621 662.96 552.07 662.96 Q555.473 662.96 557.464 660.275 Q559.454 657.59 559.454 652.96 Q559.454 648.354 557.464 645.668 Q555.473 642.96 552.07 642.96 M552.07 639.349 Q557.626 639.349 560.797 642.96 Q563.968 646.571 563.968 652.96 Q563.968 659.326 560.797 662.96 Q557.626 666.571 552.07 666.571 Q546.491 666.571 543.32 662.96 Q540.172 659.326 540.172 652.96 Q540.172 646.571 543.32 642.96 Q546.491 639.349 552.07 639.349 Z" fill="#000000" fill-rule="evenodd" fill-opacity="1" /><path clip-path="url(#clip170)" d="M 0 0 M583.459 643.955 Q582.741 643.539 581.885 643.354 Q581.051 643.145 580.033 643.145 Q576.422 643.145 574.477 645.506 Q572.556 647.844 572.556 652.242 L572.556 665.9 L568.274 665.9 L568.274 639.974 L572.556 639.974 L572.556 644.002 Q573.899 641.641 576.051 640.506 Q578.204 639.349 581.283 639.349 Q581.723 639.349 582.255 639.418 Q582.788 639.465 583.436 639.58 L583.459 643.955 Z" fill="#000000" fill-rule="evenodd" fill-opacity="1" /><path clip-path="url(#clip170)" d="M 0 0 M604.454 640.738 L604.454 644.766 Q602.649 643.84 600.704 643.377 Q598.76 642.914 596.676 642.914 Q593.505 642.914 591.908 643.886 Q590.334 644.858 590.334 646.803 Q590.334 648.284 591.468 649.141 Q592.602 649.974 596.028 650.738 L597.487 651.062 Q602.024 652.034 603.922 653.816 Q605.843 655.576 605.843 658.747 Q605.843 662.358 602.973 664.465 Q600.125 666.571 595.125 666.571 Q593.042 666.571 590.774 666.154 Q588.528 665.761 586.028 664.951 L586.028 660.553 Q588.389 661.779 590.681 662.404 Q592.973 663.006 595.218 663.006 Q598.227 663.006 599.848 661.988 Q601.468 660.946 601.468 659.071 Q601.468 657.335 600.287 656.409 Q599.13 655.483 595.172 654.627 L593.69 654.279 Q589.732 653.446 587.973 651.733 Q586.213 649.997 586.213 646.988 Q586.213 643.33 588.806 641.34 Q591.399 639.349 596.167 639.349 Q598.528 639.349 600.612 639.696 Q602.695 640.043 604.454 640.738 Z" fill="#000000" fill-rule="evenodd" fill-opacity="1" /><path clip-path="url(#clip170)" d="M 0 0 M614.524 632.613 L614.524 639.974 L623.297 639.974 L623.297 643.284 L614.524 643.284 L614.524 657.358 Q614.524 660.529 615.38 661.432 Q616.26 662.335 618.922 662.335 L623.297 662.335 L623.297 665.9 L618.922 665.9 Q613.991 665.9 612.116 664.071 Q610.241 662.219 610.241 657.358 L610.241 643.284 L607.116 643.284 L607.116 639.974 L610.241 639.974 L610.241 632.613 L614.524 632.613 Z" fill="#000000" fill-rule="evenodd" fill-opacity="1" /><path clip-path="url(#clip170)" d="M 0 0 M668.898 634.002 L668.898 638.932 Q666.537 636.733 663.852 635.645 Q661.19 634.557 658.181 634.557 Q652.255 634.557 649.107 638.192 Q645.959 641.803 645.959 648.654 Q645.959 655.483 649.107 659.117 Q652.255 662.728 658.181 662.728 Q661.19 662.728 663.852 661.64 Q666.537 660.553 668.898 658.353 L668.898 663.238 Q666.445 664.904 663.69 665.738 Q660.958 666.571 657.903 666.571 Q650.056 666.571 645.542 661.779 Q641.028 656.965 641.028 648.654 Q641.028 640.321 645.542 635.53 Q650.056 630.715 657.903 630.715 Q661.005 630.715 663.736 631.548 Q666.491 632.358 668.898 634.002 Z" fill="#000000" fill-rule="evenodd" fill-opacity="1" /><path clip-path="url(#clip170)" d="M 0 0 M685.148 652.867 Q679.986 652.867 677.995 654.048 Q676.005 655.228 676.005 658.076 Q676.005 660.344 677.486 661.687 Q678.991 663.006 681.56 663.006 Q685.102 663.006 687.231 660.506 Q689.384 657.983 689.384 653.816 L689.384 652.867 L685.148 652.867 M693.643 651.108 L693.643 665.9 L689.384 665.9 L689.384 661.965 Q687.926 664.326 685.75 665.46 Q683.574 666.571 680.426 666.571 Q676.444 666.571 674.083 664.349 Q671.745 662.103 671.745 658.353 Q671.745 653.978 674.662 651.756 Q677.602 649.534 683.412 649.534 L689.384 649.534 L689.384 649.117 Q689.384 646.178 687.44 644.58 Q685.519 642.96 682.023 642.96 Q679.801 642.96 677.694 643.492 Q675.588 644.025 673.644 645.09 L673.644 641.154 Q675.982 640.252 678.181 639.812 Q680.38 639.349 682.463 639.349 Q688.088 639.349 690.866 642.266 Q693.643 645.182 693.643 651.108 Z" fill="#000000" fill-rule="evenodd" fill-opacity="1" /><path clip-path="url(#clip170)" d="M 0 0 M714.639 640.738 L714.639 644.766 Q712.833 643.84 710.889 643.377 Q708.944 642.914 706.861 642.914 Q703.69 642.914 702.092 643.886 Q700.518 644.858 700.518 646.803 Q700.518 648.284 701.653 649.141 Q702.787 649.974 706.213 650.738 L707.671 651.062 Q712.208 652.034 714.106 653.816 Q716.028 655.576 716.028 658.747 Q716.028 662.358 713.157 664.465 Q710.31 666.571 705.31 666.571 Q703.227 666.571 700.958 666.154 Q698.713 665.761 696.213 664.951 L696.213 660.553 Q698.574 661.779 700.866 662.404 Q703.157 663.006 705.403 663.006 Q708.412 663.006 710.032 661.988 Q711.653 660.946 711.653 659.071 Q711.653 657.335 710.472 656.409 Q709.315 655.483 705.356 654.627 L703.875 654.279 Q699.917 653.446 698.157 651.733 Q696.398 649.997 696.398 646.988 Q696.398 643.33 698.991 641.34 Q701.583 639.349 706.352 639.349 Q708.713 639.349 710.796 639.696 Q712.879 640.043 714.639 640.738 Z" fill="#000000" fill-rule="evenodd" fill-opacity="1" /><path clip-path="url(#clip170)" d="M 0 0 M742.671 651.872 L742.671 653.955 L723.088 653.955 Q723.366 658.353 725.727 660.668 Q728.111 662.96 732.347 662.96 Q734.801 662.96 737.092 662.358 Q739.407 661.756 741.676 660.553 L741.676 664.58 Q739.384 665.552 736.977 666.062 Q734.569 666.571 732.092 666.571 Q725.889 666.571 722.254 662.96 Q718.643 659.349 718.643 653.191 Q718.643 646.826 722.069 643.099 Q725.518 639.349 731.352 639.349 Q736.583 639.349 739.615 642.729 Q742.671 646.085 742.671 651.872 M738.412 650.622 Q738.365 647.127 736.444 645.043 Q734.546 642.96 731.398 642.96 Q727.833 642.96 725.68 644.974 Q723.551 646.988 723.227 650.645 L738.412 650.622 Z" fill="#000000" fill-rule="evenodd" fill-opacity="1" /></svg>
