<?xml version="1.0" encoding="utf-8"?>
<svg xmlns="http://www.w3.org/2000/svg" xmlns:xlink="http://www.w3.org/1999/xlink" width="600" height="400" viewBox="0 0 2400 1600">
<defs>
  <clipPath id="clip130">
    <rect x="0" y="0" width="2400" height="1600"/>
  </clipPath>
</defs>
<path clip-path="url(#clip130)" d="
M0 1600 L2400 1600 L2400 0 L0 0  Z
  " fill="#ffffff" fill-rule="evenodd" fill-opacity="1"/>
<defs>
  <clipPath id="clip131">
    <rect x="480" y="0" width="1681" height="1600"/>
  </clipPath>
</defs>
<path clip-path="url(#clip130)" d="
M211.602 1423.18 L2352.76 1423.18 L2352.76 183.952 L211.602 183.952  Z
  " fill="#ffffff" fill-rule="evenodd" fill-opacity="1"/>
<defs>
  <clipPath id="clip132">
    <rect x="211" y="183" width="2142" height="1240"/>
  </clipPath>
</defs>
<polyline clip-path="url(#clip132)" style="stroke:#000000; stroke-width:2; stroke-opacity:0.1; fill:none" points="
  262.101,1423.18 262.101,183.952 
  "/>
<polyline clip-path="url(#clip132)" style="stroke:#000000; stroke-width:2; stroke-opacity:0.1; fill:none" points="
  767.09,1423.18 767.09,183.952 
  "/>
<polyline clip-path="url(#clip132)" style="stroke:#000000; stroke-width:2; stroke-opacity:0.1; fill:none" points="
  1272.08,1423.18 1272.08,183.952 
  "/>
<polyline clip-path="url(#clip132)" style="stroke:#000000; stroke-width:2; stroke-opacity:0.1; fill:none" points="
  1777.07,1423.18 1777.07,183.952 
  "/>
<polyline clip-path="url(#clip132)" style="stroke:#000000; stroke-width:2; stroke-opacity:0.1; fill:none" points="
  2282.06,1423.18 2282.06,183.952 
  "/>
<polyline clip-path="url(#clip130)" style="stroke:#000000; stroke-width:4; stroke-opacity:1; fill:none" points="
  211.602,1423.18 2352.76,1423.18 
  "/>
<polyline clip-path="url(#clip130)" style="stroke:#000000; stroke-width:4; stroke-opacity:1; fill:none" points="
  262.101,1423.18 262.101,1408.31 
  "/>
<polyline clip-path="url(#clip130)" style="stroke:#000000; stroke-width:4; stroke-opacity:1; fill:none" points="
  767.09,1423.18 767.09,1408.31 
  "/>
<polyline clip-path="url(#clip130)" style="stroke:#000000; stroke-width:4; stroke-opacity:1; fill:none" points="
  1272.08,1423.18 1272.08,1408.31 
  "/>
<polyline clip-path="url(#clip130)" style="stroke:#000000; stroke-width:4; stroke-opacity:1; fill:none" points="
  1777.07,1423.18 1777.07,1408.31 
  "/>
<polyline clip-path="url(#clip130)" style="stroke:#000000; stroke-width:4; stroke-opacity:1; fill:none" points="
  2282.06,1423.18 2282.06,1408.31 
  "/>
<path clip-path="url(#clip130)" d="M 0 0 M262.101 1452.37 Q258.49 1452.37 256.662 1455.94 Q254.856 1459.48 254.856 1466.61 Q254.856 1473.71 256.662 1477.28 Q258.49 1480.82 262.101 1480.82 Q265.736 1480.82 267.541 1477.28 Q269.37 1473.71 269.37 1466.61 Q269.37 1459.48 267.541 1455.94 Q265.736 1452.37 262.101 1452.37 M262.101 1448.67 Q267.911 1448.67 270.967 1453.27 Q274.046 1457.86 274.046 1466.61 Q274.046 1475.33 270.967 1479.94 Q267.911 1484.52 262.101 1484.52 Q256.291 1484.52 253.212 1479.94 Q250.157 1475.33 250.157 1466.61 Q250.157 1457.86 253.212 1453.27 Q256.291 1448.67 262.101 1448.67 Z" fill="#000000" fill-rule="evenodd" fill-opacity="1" /><path clip-path="url(#clip130)" d="M 0 0 M748.734 1479.92 L765.053 1479.92 L765.053 1483.85 L743.109 1483.85 L743.109 1479.92 Q745.771 1477.16 750.354 1472.53 Q754.961 1467.88 756.141 1466.54 Q758.387 1464.01 759.266 1462.28 Q760.169 1460.52 760.169 1458.83 Q760.169 1456.07 758.225 1454.34 Q756.303 1452.6 753.202 1452.6 Q751.002 1452.6 748.549 1453.37 Q746.118 1454.13 743.34 1455.68 L743.34 1450.96 Q746.165 1449.82 748.618 1449.25 Q751.072 1448.67 753.109 1448.67 Q758.479 1448.67 761.674 1451.35 Q764.868 1454.04 764.868 1458.53 Q764.868 1460.66 764.058 1462.58 Q763.271 1464.48 761.164 1467.07 Q760.586 1467.74 757.484 1470.96 Q754.382 1474.15 748.734 1479.92 Z" fill="#000000" fill-rule="evenodd" fill-opacity="1" /><path clip-path="url(#clip130)" d="M 0 0 M770.169 1449.29 L788.525 1449.29 L788.525 1453.23 L774.451 1453.23 L774.451 1461.7 Q775.47 1461.35 776.488 1461.19 Q777.507 1461 778.525 1461 Q784.312 1461 787.692 1464.18 Q791.072 1467.35 791.072 1472.76 Q791.072 1478.34 787.6 1481.44 Q784.127 1484.52 777.808 1484.52 Q775.632 1484.52 773.363 1484.15 Q771.118 1483.78 768.711 1483.04 L768.711 1478.34 Q770.794 1479.48 773.016 1480.03 Q775.238 1480.59 777.715 1480.59 Q781.72 1480.59 784.058 1478.48 Q786.396 1476.38 786.396 1472.76 Q786.396 1469.15 784.058 1467.05 Q781.72 1464.94 777.715 1464.94 Q775.84 1464.94 773.965 1465.36 Q772.113 1465.77 770.169 1466.65 L770.169 1449.29 Z" fill="#000000" fill-rule="evenodd" fill-opacity="1" /><path clip-path="url(#clip130)" d="M 0 0 M1248.85 1449.29 L1267.21 1449.29 L1267.21 1453.23 L1253.13 1453.23 L1253.13 1461.7 Q1254.15 1461.35 1255.17 1461.19 Q1256.19 1461 1257.21 1461 Q1262.99 1461 1266.37 1464.18 Q1269.75 1467.35 1269.75 1472.76 Q1269.75 1478.34 1266.28 1481.44 Q1262.81 1484.52 1256.49 1484.52 Q1254.31 1484.52 1252.04 1484.15 Q1249.8 1483.78 1247.39 1483.04 L1247.39 1478.34 Q1249.48 1479.48 1251.7 1480.03 Q1253.92 1480.59 1256.4 1480.59 Q1260.4 1480.59 1262.74 1478.48 Q1265.08 1476.38 1265.08 1472.76 Q1265.08 1469.15 1262.74 1467.05 Q1260.4 1464.94 1256.4 1464.94 Q1254.52 1464.94 1252.65 1465.36 Q1250.79 1465.77 1248.85 1466.65 L1248.85 1449.29 Z" fill="#000000" fill-rule="evenodd" fill-opacity="1" /><path clip-path="url(#clip130)" d="M 0 0 M1284.82 1452.37 Q1281.21 1452.37 1279.38 1455.94 Q1277.58 1459.48 1277.58 1466.61 Q1277.58 1473.71 1279.38 1477.28 Q1281.21 1480.82 1284.82 1480.82 Q1288.46 1480.82 1290.26 1477.28 Q1292.09 1473.71 1292.09 1466.61 Q1292.09 1459.48 1290.26 1455.94 Q1288.46 1452.37 1284.82 1452.37 M1284.82 1448.67 Q1290.63 1448.67 1293.69 1453.27 Q1296.77 1457.86 1296.77 1466.61 Q1296.77 1475.33 1293.69 1479.94 Q1290.63 1484.52 1284.82 1484.52 Q1279.01 1484.52 1275.93 1479.94 Q1272.88 1475.33 1272.88 1466.61 Q1272.88 1457.86 1275.93 1453.27 Q1279.01 1448.67 1284.82 1448.67 Z" fill="#000000" fill-rule="evenodd" fill-opacity="1" /><path clip-path="url(#clip130)" d="M 0 0 M1752.95 1449.29 L1775.17 1449.29 L1775.17 1451.28 L1762.62 1483.85 L1757.74 1483.85 L1769.55 1453.23 L1752.95 1453.23 L1752.95 1449.29 Z" fill="#000000" fill-rule="evenodd" fill-opacity="1" /><path clip-path="url(#clip130)" d="M 0 0 M1780.29 1449.29 L1798.64 1449.29 L1798.64 1453.23 L1784.57 1453.23 L1784.57 1461.7 Q1785.59 1461.35 1786.61 1461.19 Q1787.62 1461 1788.64 1461 Q1794.43 1461 1797.81 1464.18 Q1801.19 1467.35 1801.19 1472.76 Q1801.19 1478.34 1797.72 1481.44 Q1794.24 1484.52 1787.92 1484.52 Q1785.75 1484.52 1783.48 1484.15 Q1781.24 1483.78 1778.83 1483.04 L1778.83 1478.34 Q1780.91 1479.48 1783.13 1480.03 Q1785.36 1480.59 1787.83 1480.59 Q1791.84 1480.59 1794.17 1478.48 Q1796.51 1476.38 1796.51 1472.76 Q1796.51 1469.15 1794.17 1467.05 Q1791.84 1464.94 1787.83 1464.94 Q1785.96 1464.94 1784.08 1465.36 Q1782.23 1465.77 1780.29 1466.65 L1780.29 1449.29 Z" fill="#000000" fill-rule="evenodd" fill-opacity="1" /><path clip-path="url(#clip130)" d="M 0 0 M2245.43 1479.92 L2253.06 1479.92 L2253.06 1453.55 L2244.75 1455.22 L2244.75 1450.96 L2253.02 1449.29 L2257.69 1449.29 L2257.69 1479.92 L2265.33 1479.92 L2265.33 1483.85 L2245.43 1483.85 L2245.43 1479.92 Z" fill="#000000" fill-rule="evenodd" fill-opacity="1" /><path clip-path="url(#clip130)" d="M 0 0 M2280.4 1452.37 Q2276.79 1452.37 2274.96 1455.94 Q2273.16 1459.48 2273.16 1466.61 Q2273.16 1473.71 2274.96 1477.28 Q2276.79 1480.82 2280.4 1480.82 Q2284.04 1480.82 2285.84 1477.28 Q2287.67 1473.71 2287.67 1466.61 Q2287.67 1459.48 2285.84 1455.94 Q2284.04 1452.37 2280.4 1452.37 M2280.4 1448.67 Q2286.21 1448.67 2289.27 1453.27 Q2292.35 1457.86 2292.35 1466.61 Q2292.35 1475.33 2289.27 1479.94 Q2286.21 1484.52 2280.4 1484.52 Q2274.59 1484.52 2271.51 1479.94 Q2268.46 1475.33 2268.46 1466.61 Q2268.46 1457.86 2271.51 1453.27 Q2274.59 1448.67 2280.4 1448.67 Z" fill="#000000" fill-rule="evenodd" fill-opacity="1" /><path clip-path="url(#clip130)" d="M 0 0 M2307.42 1452.37 Q2303.81 1452.37 2301.98 1455.94 Q2300.17 1459.48 2300.17 1466.61 Q2300.17 1473.71 2301.98 1477.28 Q2303.81 1480.82 2307.42 1480.82 Q2311.05 1480.82 2312.86 1477.28 Q2314.68 1473.71 2314.68 1466.61 Q2314.68 1459.48 2312.86 1455.94 Q2311.05 1452.37 2307.42 1452.37 M2307.42 1448.67 Q2313.23 1448.67 2316.28 1453.27 Q2319.36 1457.86 2319.36 1466.61 Q2319.36 1475.33 2316.28 1479.94 Q2313.23 1484.52 2307.42 1484.52 Q2301.61 1484.52 2298.53 1479.94 Q2295.47 1475.33 2295.47 1466.61 Q2295.47 1457.86 2298.53 1453.27 Q2301.61 1448.67 2307.42 1448.67 Z" fill="#000000" fill-rule="evenodd" fill-opacity="1" /><path clip-path="url(#clip130)" d="M 0 0 M1036.81 1508.52 L1043.31 1508.52 L1053.3 1548.69 L1063.26 1508.52 L1070.49 1508.52 L1080.48 1548.69 L1090.44 1508.52 L1096.97 1508.52 L1085.03 1556.04 L1076.95 1556.04 L1066.92 1514.79 L1056.8 1556.04 L1048.72 1556.04 L1036.81 1508.52 Z" fill="#000000" fill-rule="evenodd" fill-opacity="1" /><path clip-path="url(#clip130)" d="M 0 0 M1101.68 1520.4 L1107.54 1520.4 L1107.54 1556.04 L1101.68 1556.04 L1101.68 1520.4 M1101.68 1506.52 L1107.54 1506.52 L1107.54 1513.93 L1101.68 1513.93 L1101.68 1506.52 Z" fill="#000000" fill-rule="evenodd" fill-opacity="1" /><path clip-path="url(#clip130)" d="M 0 0 M1143.31 1534.53 L1143.31 1556.04 L1137.45 1556.04 L1137.45 1534.72 Q1137.45 1529.66 1135.48 1527.14 Q1133.51 1524.63 1129.56 1524.63 Q1124.82 1524.63 1122.08 1527.65 Q1119.34 1530.68 1119.34 1535.9 L1119.34 1556.04 L1113.46 1556.04 L1113.46 1520.4 L1119.34 1520.4 L1119.34 1525.93 Q1121.45 1522.72 1124.28 1521.13 Q1127.14 1519.54 1130.87 1519.54 Q1137.01 1519.54 1140.16 1523.36 Q1143.31 1527.14 1143.31 1534.53 Z" fill="#000000" fill-rule="evenodd" fill-opacity="1" /><path clip-path="url(#clip130)" d="M 0 0 M1172.91 1525.81 L1172.91 1506.52 L1178.77 1506.52 L1178.77 1556.04 L1172.91 1556.04 L1172.91 1550.7 Q1171.07 1553.88 1168.23 1555.44 Q1165.43 1556.97 1161.49 1556.97 Q1155.02 1556.97 1150.95 1551.81 Q1146.91 1546.65 1146.91 1538.25 Q1146.91 1529.85 1150.95 1524.69 Q1155.02 1519.54 1161.49 1519.54 Q1165.43 1519.54 1168.23 1521.1 Q1171.07 1522.62 1172.91 1525.81 M1152.96 1538.25 Q1152.96 1544.71 1155.6 1548.4 Q1158.27 1552.07 1162.92 1552.07 Q1167.56 1552.07 1170.24 1548.4 Q1172.91 1544.71 1172.91 1538.25 Q1172.91 1531.79 1170.24 1528.13 Q1167.56 1524.44 1162.92 1524.44 Q1158.27 1524.44 1155.6 1528.13 Q1152.96 1531.79 1152.96 1538.25 Z" fill="#000000" fill-rule="evenodd" fill-opacity="1" /><path clip-path="url(#clip130)" d="M 0 0 M1207.64 1521.45 L1207.64 1526.98 Q1205.15 1525.71 1202.48 1525.07 Q1199.81 1524.44 1196.94 1524.44 Q1192.58 1524.44 1190.39 1525.77 Q1188.22 1527.11 1188.22 1529.79 Q1188.22 1531.82 1189.78 1533 Q1191.34 1534.15 1196.05 1535.2 L1198.06 1535.64 Q1204.29 1536.98 1206.9 1539.43 Q1209.55 1541.85 1209.55 1546.21 Q1209.55 1551.17 1205.6 1554.07 Q1201.68 1556.97 1194.81 1556.97 Q1191.95 1556.97 1188.83 1556.39 Q1185.74 1555.85 1182.3 1554.74 L1182.3 1548.69 Q1185.55 1550.38 1188.7 1551.24 Q1191.85 1552.07 1194.94 1552.07 Q1199.07 1552.07 1201.3 1550.66 Q1203.53 1549.23 1203.53 1546.65 Q1203.53 1544.27 1201.91 1542.99 Q1200.32 1541.72 1194.87 1540.54 L1192.84 1540.07 Q1187.39 1538.92 1184.97 1536.56 Q1182.56 1534.18 1182.56 1530.04 Q1182.56 1525.01 1186.12 1522.27 Q1189.69 1519.54 1196.24 1519.54 Q1199.49 1519.54 1202.35 1520.01 Q1205.22 1520.49 1207.64 1521.45 Z" fill="#000000" fill-rule="evenodd" fill-opacity="1" /><path clip-path="url(#clip130)" d="M 0 0 M1221.35 1550.7 L1221.35 1569.6 L1215.47 1569.6 L1215.47 1520.4 L1221.35 1520.4 L1221.35 1525.81 Q1223.2 1522.62 1226 1521.1 Q1228.83 1519.54 1232.75 1519.54 Q1239.24 1519.54 1243.28 1524.69 Q1247.36 1529.85 1247.36 1538.25 Q1247.36 1546.65 1243.28 1551.81 Q1239.24 1556.97 1232.75 1556.97 Q1228.83 1556.97 1226 1555.44 Q1223.2 1553.88 1221.35 1550.7 M1241.28 1538.25 Q1241.28 1531.79 1238.61 1528.13 Q1235.96 1524.44 1231.32 1524.44 Q1226.67 1524.44 1224 1528.13 Q1221.35 1531.79 1221.35 1538.25 Q1221.35 1544.71 1224 1548.4 Q1226.67 1552.07 1231.32 1552.07 Q1235.96 1552.07 1238.61 1548.4 Q1241.28 1544.71 1241.28 1538.25 Z" fill="#000000" fill-rule="evenodd" fill-opacity="1" /><path clip-path="url(#clip130)" d="M 0 0 M1283.99 1536.76 L1283.99 1539.62 L1257.07 1539.62 Q1257.45 1545.67 1260.69 1548.85 Q1263.97 1552 1269.8 1552 Q1273.17 1552 1276.32 1551.17 Q1279.51 1550.35 1282.62 1548.69 L1282.62 1554.23 Q1279.47 1555.57 1276.16 1556.27 Q1272.85 1556.97 1269.45 1556.97 Q1260.92 1556.97 1255.92 1552 Q1250.96 1547.04 1250.96 1538.57 Q1250.96 1529.82 1255.67 1524.69 Q1260.41 1519.54 1268.43 1519.54 Q1275.62 1519.54 1279.79 1524.18 Q1283.99 1528.8 1283.99 1536.76 M1278.14 1535.04 Q1278.07 1530.23 1275.43 1527.37 Q1272.82 1524.5 1268.49 1524.5 Q1263.59 1524.5 1260.63 1527.27 Q1257.7 1530.04 1257.26 1535.07 L1278.14 1535.04 Z" fill="#000000" fill-rule="evenodd" fill-opacity="1" /><path clip-path="url(#clip130)" d="M 0 0 M1320.63 1536.76 L1320.63 1539.62 L1293.7 1539.62 Q1294.08 1545.67 1297.33 1548.85 Q1300.61 1552 1306.43 1552 Q1309.81 1552 1312.96 1551.17 Q1316.14 1550.35 1319.26 1548.69 L1319.26 1554.23 Q1316.11 1555.57 1312.8 1556.27 Q1309.49 1556.97 1306.08 1556.97 Q1297.55 1556.97 1292.56 1552 Q1287.59 1547.04 1287.59 1538.57 Q1287.59 1529.82 1292.3 1524.69 Q1297.04 1519.54 1305.06 1519.54 Q1312.26 1519.54 1316.43 1524.18 Q1320.63 1528.8 1320.63 1536.76 M1314.77 1535.04 Q1314.71 1530.23 1312.07 1527.37 Q1309.46 1524.5 1305.13 1524.5 Q1300.23 1524.5 1297.27 1527.27 Q1294.34 1530.04 1293.89 1535.07 L1314.77 1535.04 Z" fill="#000000" fill-rule="evenodd" fill-opacity="1" /><path clip-path="url(#clip130)" d="M 0 0 M1350.23 1525.81 L1350.23 1506.52 L1356.09 1506.52 L1356.09 1556.04 L1350.23 1556.04 L1350.23 1550.7 Q1348.38 1553.88 1345.55 1555.44 Q1342.75 1556.97 1338.8 1556.97 Q1332.34 1556.97 1328.27 1551.81 Q1324.22 1546.65 1324.22 1538.25 Q1324.22 1529.85 1328.27 1524.69 Q1332.34 1519.54 1338.8 1519.54 Q1342.75 1519.54 1345.55 1521.1 Q1348.38 1522.62 1350.23 1525.81 M1330.27 1538.25 Q1330.27 1544.71 1332.91 1548.4 Q1335.59 1552.07 1340.23 1552.07 Q1344.88 1552.07 1347.55 1548.4 Q1350.23 1544.71 1350.23 1538.25 Q1350.23 1531.79 1347.55 1528.13 Q1344.88 1524.44 1340.23 1524.44 Q1335.59 1524.44 1332.91 1528.13 Q1330.27 1531.79 1330.27 1538.25 Z" fill="#000000" fill-rule="evenodd" fill-opacity="1" /><path clip-path="url(#clip130)" d="M 0 0 M1397.02 1506.58 Q1392.75 1513.9 1390.68 1521.06 Q1388.61 1528.23 1388.61 1535.58 Q1388.61 1542.93 1390.68 1550.16 Q1392.78 1557.35 1397.02 1564.64 L1391.92 1564.64 Q1387.15 1557.16 1384.76 1549.93 Q1382.41 1542.71 1382.41 1535.58 Q1382.41 1528.48 1384.76 1521.29 Q1387.12 1514.09 1391.92 1506.58 L1397.02 1506.58 Z" fill="#000000" fill-rule="evenodd" fill-opacity="1" /><path clip-path="url(#clip130)" d="M 0 0 M1430.91 1527.24 Q1433.11 1523.29 1436.17 1521.41 Q1439.22 1519.54 1443.36 1519.54 Q1448.93 1519.54 1451.95 1523.45 Q1454.98 1527.33 1454.98 1534.53 L1454.98 1556.04 L1449.09 1556.04 L1449.09 1534.72 Q1449.09 1529.59 1447.27 1527.11 Q1445.46 1524.63 1441.74 1524.63 Q1437.18 1524.63 1434.54 1527.65 Q1431.9 1530.68 1431.9 1535.9 L1431.9 1556.04 L1426.01 1556.04 L1426.01 1534.72 Q1426.01 1529.56 1424.2 1527.11 Q1422.38 1524.63 1418.6 1524.63 Q1414.11 1524.63 1411.47 1527.68 Q1408.82 1530.71 1408.82 1535.9 L1408.82 1556.04 L1402.94 1556.04 L1402.94 1520.4 L1408.82 1520.4 L1408.82 1525.93 Q1410.83 1522.66 1413.63 1521.1 Q1416.43 1519.54 1420.28 1519.54 Q1424.17 1519.54 1426.87 1521.51 Q1429.61 1523.48 1430.91 1527.24 Z" fill="#000000" fill-rule="evenodd" fill-opacity="1" /><path clip-path="url(#clip130)" d="M 0 0 M1471.53 1508.52 L1476.94 1508.52 L1460.39 1562.09 L1454.98 1562.09 L1471.53 1508.52 Z" fill="#000000" fill-rule="evenodd" fill-opacity="1" /><path clip-path="url(#clip130)" d="M 0 0 M1505.81 1521.45 L1505.81 1526.98 Q1503.32 1525.71 1500.65 1525.07 Q1497.98 1524.44 1495.11 1524.44 Q1490.75 1524.44 1488.56 1525.77 Q1486.39 1527.11 1486.39 1529.79 Q1486.39 1531.82 1487.95 1533 Q1489.51 1534.15 1494.22 1535.2 L1496.23 1535.64 Q1502.46 1536.98 1505.07 1539.43 Q1507.72 1541.85 1507.72 1546.21 Q1507.72 1551.17 1503.77 1554.07 Q1499.85 1556.97 1492.98 1556.97 Q1490.11 1556.97 1487 1556.39 Q1483.91 1555.85 1480.47 1554.74 L1480.47 1548.69 Q1483.72 1550.38 1486.87 1551.24 Q1490.02 1552.07 1493.11 1552.07 Q1497.24 1552.07 1499.47 1550.66 Q1501.7 1549.23 1501.7 1546.65 Q1501.7 1544.27 1500.08 1542.99 Q1498.49 1541.72 1493.04 1540.54 L1491.01 1540.07 Q1485.56 1538.92 1483.14 1536.56 Q1480.73 1534.18 1480.73 1530.04 Q1480.73 1525.01 1484.29 1522.27 Q1487.86 1519.54 1494.41 1519.54 Q1497.66 1519.54 1500.52 1520.01 Q1503.39 1520.49 1505.81 1521.45 Z" fill="#000000" fill-rule="evenodd" fill-opacity="1" /><path clip-path="url(#clip130)" d="M 0 0 M1512.94 1506.58 L1518.03 1506.58 Q1522.8 1514.09 1525.16 1521.29 Q1527.55 1528.48 1527.55 1535.58 Q1527.55 1542.71 1525.16 1549.93 Q1522.8 1557.16 1518.03 1564.64 L1512.94 1564.64 Q1517.17 1557.35 1519.24 1550.16 Q1521.34 1542.93 1521.34 1535.58 Q1521.34 1528.23 1519.24 1521.06 Q1517.17 1513.9 1512.94 1506.58 Z" fill="#000000" fill-rule="evenodd" fill-opacity="1" /><polyline clip-path="url(#clip132)" style="stroke:#000000; stroke-width:2; stroke-opacity:0.1; fill:none" points="
  211.602,1389.33 2352.76,1389.33 
  "/>
<polyline clip-path="url(#clip132)" style="stroke:#000000; stroke-width:2; stroke-opacity:0.1; fill:none" points="
  211.602,1167.26 2352.76,1167.26 
  "/>
<polyline clip-path="url(#clip132)" style="stroke:#000000; stroke-width:2; stroke-opacity:0.1; fill:none" points="
  211.602,945.194 2352.76,945.194 
  "/>
<polyline clip-path="url(#clip132)" style="stroke:#000000; stroke-width:2; stroke-opacity:0.1; fill:none" points="
  211.602,723.128 2352.76,723.128 
  "/>
<polyline clip-path="url(#clip132)" style="stroke:#000000; stroke-width:2; stroke-opacity:0.1; fill:none" points="
  211.602,501.062 2352.76,501.062 
  "/>
<polyline clip-path="url(#clip132)" style="stroke:#000000; stroke-width:2; stroke-opacity:0.1; fill:none" points="
  211.602,278.997 2352.76,278.997 
  "/>
<polyline clip-path="url(#clip130)" style="stroke:#000000; stroke-width:4; stroke-opacity:1; fill:none" points="
  211.602,1423.18 211.602,183.952 
  "/>
<polyline clip-path="url(#clip130)" style="stroke:#000000; stroke-width:4; stroke-opacity:1; fill:none" points="
  211.602,1389.33 237.296,1389.33 
  "/>
<polyline clip-path="url(#clip130)" style="stroke:#000000; stroke-width:4; stroke-opacity:1; fill:none" points="
  211.602,1167.26 237.296,1167.26 
  "/>
<polyline clip-path="url(#clip130)" style="stroke:#000000; stroke-width:4; stroke-opacity:1; fill:none" points="
  211.602,945.194 237.296,945.194 
  "/>
<polyline clip-path="url(#clip130)" style="stroke:#000000; stroke-width:4; stroke-opacity:1; fill:none" points="
  211.602,723.128 237.296,723.128 
  "/>
<polyline clip-path="url(#clip130)" style="stroke:#000000; stroke-width:4; stroke-opacity:1; fill:none" points="
  211.602,501.062 237.296,501.062 
  "/>
<polyline clip-path="url(#clip130)" style="stroke:#000000; stroke-width:4; stroke-opacity:1; fill:none" points="
  211.602,278.997 237.296,278.997 
  "/>
<path clip-path="url(#clip130)" d="M 0 0 M126.691 1375.12 Q123.08 1375.12 121.251 1378.69 Q119.445 1382.23 119.445 1389.36 Q119.445 1396.47 121.251 1400.03 Q123.08 1403.57 126.691 1403.57 Q130.325 1403.57 132.13 1400.03 Q133.959 1396.47 133.959 1389.36 Q133.959 1382.23 132.13 1378.69 Q130.325 1375.12 126.691 1375.12 M126.691 1371.42 Q132.501 1371.42 135.556 1376.03 Q138.635 1380.61 138.635 1389.36 Q138.635 1398.09 135.556 1402.69 Q132.501 1407.28 126.691 1407.28 Q120.88 1407.28 117.802 1402.69 Q114.746 1398.09 114.746 1389.36 Q114.746 1380.61 117.802 1376.03 Q120.88 1371.42 126.691 1371.42 Z" fill="#000000" fill-rule="evenodd" fill-opacity="1" /><path clip-path="url(#clip130)" d="M 0 0 M143.704 1400.73 L148.589 1400.73 L148.589 1406.61 L143.704 1406.61 L143.704 1400.73 Z" fill="#000000" fill-rule="evenodd" fill-opacity="1" /><path clip-path="url(#clip130)" d="M 0 0 M163.658 1375.12 Q160.047 1375.12 158.218 1378.69 Q156.413 1382.23 156.413 1389.36 Q156.413 1396.47 158.218 1400.03 Q160.047 1403.57 163.658 1403.57 Q167.292 1403.57 169.098 1400.03 Q170.927 1396.47 170.927 1389.36 Q170.927 1382.23 169.098 1378.69 Q167.292 1375.12 163.658 1375.12 M163.658 1371.42 Q169.468 1371.42 172.524 1376.03 Q175.602 1380.61 175.602 1389.36 Q175.602 1398.09 172.524 1402.69 Q169.468 1407.28 163.658 1407.28 Q157.848 1407.28 154.769 1402.69 Q151.714 1398.09 151.714 1389.36 Q151.714 1380.61 154.769 1376.03 Q157.848 1371.42 163.658 1371.42 Z" fill="#000000" fill-rule="evenodd" fill-opacity="1" /><path clip-path="url(#clip130)" d="M 0 0 M127.917 1153.06 Q124.306 1153.06 122.478 1156.62 Q120.672 1160.16 120.672 1167.29 Q120.672 1174.4 122.478 1177.97 Q124.306 1181.51 127.917 1181.51 Q131.552 1181.51 133.357 1177.97 Q135.186 1174.4 135.186 1167.29 Q135.186 1160.16 133.357 1156.62 Q131.552 1153.06 127.917 1153.06 M127.917 1149.35 Q133.728 1149.35 136.783 1153.96 Q139.862 1158.54 139.862 1167.29 Q139.862 1176.02 136.783 1180.63 Q133.728 1185.21 127.917 1185.21 Q122.107 1185.21 119.029 1180.63 Q115.973 1176.02 115.973 1167.29 Q115.973 1158.54 119.029 1153.96 Q122.107 1149.35 127.917 1149.35 Z" fill="#000000" fill-rule="evenodd" fill-opacity="1" /><path clip-path="url(#clip130)" d="M 0 0 M144.931 1178.66 L149.816 1178.66 L149.816 1184.54 L144.931 1184.54 L144.931 1178.66 Z" fill="#000000" fill-rule="evenodd" fill-opacity="1" /><path clip-path="url(#clip130)" d="M 0 0 M155.695 1180.6 L163.334 1180.6 L163.334 1154.24 L155.024 1155.91 L155.024 1151.65 L163.288 1149.98 L167.964 1149.98 L167.964 1180.6 L175.602 1180.6 L175.602 1184.54 L155.695 1184.54 L155.695 1180.6 Z" fill="#000000" fill-rule="evenodd" fill-opacity="1" /><path clip-path="url(#clip130)" d="M 0 0 M128.288 930.993 Q124.677 930.993 122.848 934.558 Q121.043 938.099 121.043 945.229 Q121.043 952.335 122.848 955.9 Q124.677 959.442 128.288 959.442 Q131.922 959.442 133.728 955.9 Q135.556 952.335 135.556 945.229 Q135.556 938.099 133.728 934.558 Q131.922 930.993 128.288 930.993 M128.288 927.289 Q134.098 927.289 137.154 931.895 Q140.232 936.479 140.232 945.229 Q140.232 953.956 137.154 958.562 Q134.098 963.145 128.288 963.145 Q122.478 963.145 119.399 958.562 Q116.343 953.956 116.343 945.229 Q116.343 936.479 119.399 931.895 Q122.478 927.289 128.288 927.289 Z" fill="#000000" fill-rule="evenodd" fill-opacity="1" /><path clip-path="url(#clip130)" d="M 0 0 M145.302 956.594 L150.186 956.594 L150.186 962.474 L145.302 962.474 L145.302 956.594 Z" fill="#000000" fill-rule="evenodd" fill-opacity="1" /><path clip-path="url(#clip130)" d="M 0 0 M159.283 958.539 L175.602 958.539 L175.602 962.474 L153.658 962.474 L153.658 958.539 Q156.32 955.784 160.903 951.155 Q165.51 946.502 166.69 945.159 Q168.936 942.636 169.815 940.9 Q170.718 939.141 170.718 937.451 Q170.718 934.696 168.774 932.96 Q166.852 931.224 163.751 931.224 Q161.552 931.224 159.098 931.988 Q156.667 932.752 153.89 934.303 L153.89 929.581 Q156.714 928.446 159.167 927.868 Q161.621 927.289 163.658 927.289 Q169.028 927.289 172.223 929.974 Q175.417 932.659 175.417 937.15 Q175.417 939.28 174.607 941.201 Q173.82 943.099 171.714 945.692 Q171.135 946.363 168.033 949.581 Q164.931 952.775 159.283 958.539 Z" fill="#000000" fill-rule="evenodd" fill-opacity="1" /><path clip-path="url(#clip130)" d="M 0 0 M127.339 708.927 Q123.728 708.927 121.899 712.492 Q120.093 716.033 120.093 723.163 Q120.093 730.269 121.899 733.834 Q123.728 737.376 127.339 737.376 Q130.973 737.376 132.779 733.834 Q134.607 730.269 134.607 723.163 Q134.607 716.033 132.779 712.492 Q130.973 708.927 127.339 708.927 M127.339 705.223 Q133.149 705.223 136.204 709.83 Q139.283 714.413 139.283 723.163 Q139.283 731.89 136.204 736.496 Q133.149 741.08 127.339 741.08 Q121.529 741.08 118.45 736.496 Q115.394 731.89 115.394 723.163 Q115.394 714.413 118.45 709.83 Q121.529 705.223 127.339 705.223 Z" fill="#000000" fill-rule="evenodd" fill-opacity="1" /><path clip-path="url(#clip130)" d="M 0 0 M144.353 734.529 L149.237 734.529 L149.237 740.408 L144.353 740.408 L144.353 734.529 Z" fill="#000000" fill-rule="evenodd" fill-opacity="1" /><path clip-path="url(#clip130)" d="M 0 0 M168.473 721.774 Q171.829 722.492 173.704 724.76 Q175.602 727.029 175.602 730.362 Q175.602 735.478 172.084 738.279 Q168.565 741.08 162.084 741.08 Q159.908 741.08 157.593 740.64 Q155.302 740.223 152.848 739.367 L152.848 734.853 Q154.792 735.987 157.107 736.566 Q159.422 737.144 161.945 737.144 Q166.343 737.144 168.635 735.408 Q170.95 733.672 170.95 730.362 Q170.95 727.306 168.797 725.593 Q166.667 723.857 162.848 723.857 L158.82 723.857 L158.82 720.015 L163.033 720.015 Q166.482 720.015 168.311 718.649 Q170.139 717.26 170.139 714.668 Q170.139 712.006 168.241 710.594 Q166.366 709.158 162.848 709.158 Q160.927 709.158 158.728 709.575 Q156.528 709.992 153.89 710.871 L153.89 706.705 Q156.552 705.964 158.866 705.594 Q161.204 705.223 163.265 705.223 Q168.589 705.223 171.69 707.654 Q174.792 710.061 174.792 714.182 Q174.792 717.052 173.149 719.043 Q171.505 721.01 168.473 721.774 Z" fill="#000000" fill-rule="evenodd" fill-opacity="1" /><path clip-path="url(#clip130)" d="M 0 0 M126.205 486.861 Q122.593 486.861 120.765 490.426 Q118.959 493.968 118.959 501.097 Q118.959 508.204 120.765 511.768 Q122.593 515.31 126.205 515.31 Q129.839 515.31 131.644 511.768 Q133.473 508.204 133.473 501.097 Q133.473 493.968 131.644 490.426 Q129.839 486.861 126.205 486.861 M126.205 483.157 Q132.015 483.157 135.07 487.764 Q138.149 492.347 138.149 501.097 Q138.149 509.824 135.07 514.43 Q132.015 519.014 126.205 519.014 Q120.394 519.014 117.316 514.43 Q114.26 509.824 114.26 501.097 Q114.26 492.347 117.316 487.764 Q120.394 483.157 126.205 483.157 Z" fill="#000000" fill-rule="evenodd" fill-opacity="1" /><path clip-path="url(#clip130)" d="M 0 0 M143.218 512.463 L148.103 512.463 L148.103 518.342 L143.218 518.342 L143.218 512.463 Z" fill="#000000" fill-rule="evenodd" fill-opacity="1" /><path clip-path="url(#clip130)" d="M 0 0 M166.019 487.856 L154.214 506.305 L166.019 506.305 L166.019 487.856 M164.792 483.782 L170.672 483.782 L170.672 506.305 L175.602 506.305 L175.602 510.194 L170.672 510.194 L170.672 518.342 L166.019 518.342 L166.019 510.194 L150.417 510.194 L150.417 505.68 L164.792 483.782 Z" fill="#000000" fill-rule="evenodd" fill-opacity="1" /><path clip-path="url(#clip130)" d="M 0 0 M127.686 264.795 Q124.075 264.795 122.246 268.36 Q120.441 271.902 120.441 279.031 Q120.441 286.138 122.246 289.703 Q124.075 293.244 127.686 293.244 Q131.32 293.244 133.126 289.703 Q134.954 286.138 134.954 279.031 Q134.954 271.902 133.126 268.36 Q131.32 264.795 127.686 264.795 M127.686 261.092 Q133.496 261.092 136.552 265.698 Q139.63 270.281 139.63 279.031 Q139.63 287.758 136.552 292.365 Q133.496 296.948 127.686 296.948 Q121.876 296.948 118.797 292.365 Q115.742 287.758 115.742 279.031 Q115.742 270.281 118.797 265.698 Q121.876 261.092 127.686 261.092 Z" fill="#000000" fill-rule="evenodd" fill-opacity="1" /><path clip-path="url(#clip130)" d="M 0 0 M144.7 290.397 L149.584 290.397 L149.584 296.277 L144.7 296.277 L144.7 290.397 Z" fill="#000000" fill-rule="evenodd" fill-opacity="1" /><path clip-path="url(#clip130)" d="M 0 0 M154.7 261.717 L173.056 261.717 L173.056 265.652 L158.982 265.652 L158.982 274.124 Q160.001 273.777 161.019 273.615 Q162.038 273.43 163.056 273.43 Q168.843 273.43 172.223 276.601 Q175.602 279.772 175.602 285.189 Q175.602 290.767 172.13 293.869 Q168.658 296.948 162.339 296.948 Q160.163 296.948 157.894 296.578 Q155.649 296.207 153.241 295.466 L153.241 290.767 Q155.325 291.902 157.547 292.457 Q159.769 293.013 162.246 293.013 Q166.251 293.013 168.589 290.906 Q170.927 288.8 170.927 285.189 Q170.927 281.578 168.589 279.471 Q166.251 277.365 162.246 277.365 Q160.371 277.365 158.496 277.781 Q156.644 278.198 154.7 279.078 L154.7 261.717 Z" fill="#000000" fill-rule="evenodd" fill-opacity="1" /><path clip-path="url(#clip130)" d="M 0 0 M44.1444 1104.19 L50.9239 1104.19 Q47.9002 1107.43 46.4043 1111.13 Q44.9083 1114.79 44.9083 1118.92 Q44.9083 1127.07 49.9054 1131.4 Q54.8707 1135.73 64.2919 1135.73 Q73.6813 1135.73 78.6784 1131.4 Q83.6436 1127.07 83.6436 1118.92 Q83.6436 1114.79 82.1477 1111.13 Q80.6518 1107.43 77.6281 1104.19 L84.3439 1104.19 Q86.6355 1107.56 87.7814 1111.35 Q88.9272 1115.1 88.9272 1119.31 Q88.9272 1130.09 82.3387 1136.3 Q75.7183 1142.51 64.2919 1142.51 Q52.8336 1142.51 46.2451 1136.3 Q39.6248 1130.09 39.6248 1119.31 Q39.6248 1115.04 40.7706 1111.28 Q41.8846 1107.5 44.1444 1104.19 Z" fill="#000000" fill-rule="evenodd" fill-opacity="1" /><path clip-path="url(#clip130)" d="M 0 0 M56.4621 1084.23 Q56.4621 1088.94 60.1542 1091.68 Q63.8145 1094.42 70.212 1094.42 Q76.6095 1094.42 80.3017 1091.71 Q83.9619 1088.97 83.9619 1084.23 Q83.9619 1079.55 80.2698 1076.81 Q76.5777 1074.08 70.212 1074.08 Q63.8781 1074.08 60.186 1076.81 Q56.4621 1079.55 56.4621 1084.23 M51.4968 1084.23 Q51.4968 1076.59 56.4621 1072.23 Q61.4273 1067.87 70.212 1067.87 Q78.9649 1067.87 83.9619 1072.23 Q88.9272 1076.59 88.9272 1084.23 Q88.9272 1091.9 83.9619 1096.26 Q78.9649 1100.59 70.212 1100.59 Q61.4273 1100.59 56.4621 1096.26 Q51.4968 1091.9 51.4968 1084.23 Z" fill="#000000" fill-rule="evenodd" fill-opacity="1" /><path clip-path="url(#clip130)" d="M 0 0 M66.4881 1032.09 L88.0042 1032.09 L88.0042 1037.95 L66.679 1037.95 Q61.6183 1037.95 59.1038 1039.92 Q56.5894 1041.9 56.5894 1045.84 Q56.5894 1050.59 59.6131 1053.32 Q62.6368 1056.06 67.8567 1056.06 L88.0042 1056.06 L88.0042 1061.95 L52.3562 1061.95 L52.3562 1056.06 L57.8944 1056.06 Q54.6797 1053.96 53.0883 1051.13 Q51.4968 1048.26 51.4968 1044.54 Q51.4968 1038.4 55.3163 1035.25 Q59.1038 1032.09 66.4881 1032.09 Z" fill="#000000" fill-rule="evenodd" fill-opacity="1" /><path clip-path="url(#clip130)" d="M 0 0 M53.7248 1000.3 L59.1993 1000.3 Q57.8307 1002.78 57.1623 1005.3 Q56.4621 1007.78 56.4621 1010.32 Q56.4621 1016.02 60.0905 1019.17 Q63.6872 1022.32 70.212 1022.32 Q76.7369 1022.32 80.3653 1019.17 Q83.9619 1016.02 83.9619 1010.32 Q83.9619 1007.78 83.2935 1005.3 Q82.5933 1002.78 81.2247 1000.3 L86.6355 1000.3 Q87.7814 1002.75 88.3543 1005.39 Q88.9272 1008 88.9272 1010.96 Q88.9272 1019.01 83.8664 1023.76 Q78.8057 1028.5 70.212 1028.5 Q61.491 1028.5 56.4939 1023.72 Q51.4968 1018.92 51.4968 1010.58 Q51.4968 1007.87 52.0697 1005.3 Q52.6108 1002.72 53.7248 1000.3 Z" fill="#000000" fill-rule="evenodd" fill-opacity="1" /><path clip-path="url(#clip130)" d="M 0 0 M68.7161 963.664 L71.5806 963.664 L71.5806 990.59 Q77.6281 990.209 80.8109 986.962 Q83.9619 983.684 83.9619 977.859 Q83.9619 974.485 83.1344 971.334 Q82.3069 968.151 80.6518 965.032 L86.1899 965.032 Q87.5267 968.183 88.227 971.493 Q88.9272 974.803 88.9272 978.209 Q88.9272 986.739 83.9619 991.736 Q78.9967 996.702 70.5303 996.702 Q61.7774 996.702 56.6531 991.991 Q51.4968 987.248 51.4968 979.228 Q51.4968 972.034 56.1438 967.865 Q60.7589 963.664 68.7161 963.664 M66.9973 969.52 Q62.1912 969.584 59.3266 972.225 Q56.4621 974.835 56.4621 979.164 Q56.4621 984.066 59.2312 987.026 Q62.0002 989.954 67.0292 990.399 L66.9973 969.52 Z" fill="#000000" fill-rule="evenodd" fill-opacity="1" /><path clip-path="url(#clip130)" d="M 0 0 M66.4881 927.888 L88.0042 927.888 L88.0042 933.745 L66.679 933.745 Q61.6183 933.745 59.1038 935.718 Q56.5894 937.691 56.5894 941.638 Q56.5894 946.381 59.6131 949.118 Q62.6368 951.855 67.8567 951.855 L88.0042 951.855 L88.0042 957.743 L52.3562 957.743 L52.3562 951.855 L57.8944 951.855 Q54.6797 949.754 53.0883 946.922 Q51.4968 944.057 51.4968 940.333 Q51.4968 934.19 55.3163 931.039 Q59.1038 927.888 66.4881 927.888 Z" fill="#000000" fill-rule="evenodd" fill-opacity="1" /><path clip-path="url(#clip130)" d="M 0 0 M42.2347 915.953 L52.3562 915.953 L52.3562 903.89 L56.9077 903.89 L56.9077 915.953 L76.2594 915.953 Q80.6199 915.953 81.8613 914.775 Q83.1026 913.565 83.1026 909.905 L83.1026 903.89 L88.0042 903.89 L88.0042 909.905 Q88.0042 916.685 85.4897 919.263 Q82.9434 921.841 76.2594 921.841 L56.9077 921.841 L56.9077 926.138 L52.3562 926.138 L52.3562 921.841 L42.2347 921.841 L42.2347 915.953 Z" fill="#000000" fill-rule="evenodd" fill-opacity="1" /><path clip-path="url(#clip130)" d="M 0 0 M57.8307 877.09 Q57.2578 878.077 57.0032 879.254 Q56.7167 880.4 56.7167 881.801 Q56.7167 886.766 59.9632 889.439 Q63.1779 892.081 69.2253 892.081 L88.0042 892.081 L88.0042 897.969 L52.3562 897.969 L52.3562 892.081 L57.8944 892.081 Q54.6479 890.235 53.0883 887.275 Q51.4968 884.315 51.4968 880.082 Q51.4968 879.477 51.5923 878.745 Q51.656 878.013 51.8151 877.122 L57.8307 877.09 Z" fill="#000000" fill-rule="evenodd" fill-opacity="1" /><path clip-path="url(#clip130)" d="M 0 0 M70.0847 854.746 Q70.0847 861.844 71.7079 864.581 Q73.3312 867.319 77.2461 867.319 Q80.3653 867.319 82.2114 865.282 Q84.0256 863.213 84.0256 859.68 Q84.0256 854.81 80.5881 851.882 Q77.1188 848.922 71.3897 848.922 L70.0847 848.922 L70.0847 854.746 M67.6657 843.065 L88.0042 843.065 L88.0042 848.922 L82.5933 848.922 Q85.8398 850.927 87.3994 853.919 Q88.9272 856.911 88.9272 861.239 Q88.9272 866.714 85.8716 869.96 Q82.7843 873.175 77.6281 873.175 Q71.6125 873.175 68.5569 869.165 Q65.5014 865.122 65.5014 857.133 L65.5014 848.922 L64.9285 848.922 Q60.8862 848.922 58.6901 851.595 Q56.4621 854.237 56.4621 859.043 Q56.4621 862.099 57.1941 864.995 Q57.9262 867.891 59.3903 870.565 L53.9795 870.565 Q52.7381 867.35 52.1334 864.327 Q51.4968 861.303 51.4968 858.438 Q51.4968 850.704 55.5072 846.885 Q59.5176 843.065 67.6657 843.065 Z" fill="#000000" fill-rule="evenodd" fill-opacity="1" /><path clip-path="url(#clip130)" d="M 0 0 M42.2347 831.129 L52.3562 831.129 L52.3562 819.066 L56.9077 819.066 L56.9077 831.129 L76.2594 831.129 Q80.6199 831.129 81.8613 829.952 Q83.1026 828.742 83.1026 825.082 L83.1026 819.066 L88.0042 819.066 L88.0042 825.082 Q88.0042 831.862 85.4897 834.44 Q82.9434 837.018 76.2594 837.018 L56.9077 837.018 L56.9077 841.315 L52.3562 841.315 L52.3562 837.018 L42.2347 837.018 L42.2347 831.129 Z" fill="#000000" fill-rule="evenodd" fill-opacity="1" /><path clip-path="url(#clip130)" d="M 0 0 M52.3562 812.924 L52.3562 807.067 L88.0042 807.067 L88.0042 812.924 L52.3562 812.924 M38.479 812.924 L38.479 807.067 L45.895 807.067 L45.895 812.924 L38.479 812.924 Z" fill="#000000" fill-rule="evenodd" fill-opacity="1" /><path clip-path="url(#clip130)" d="M 0 0 M56.4621 787.111 Q56.4621 791.821 60.1542 794.559 Q63.8145 797.296 70.212 797.296 Q76.6095 797.296 80.3017 794.59 Q83.9619 791.853 83.9619 787.111 Q83.9619 782.432 80.2698 779.695 Q76.5777 776.957 70.212 776.957 Q63.8781 776.957 60.186 779.695 Q56.4621 782.432 56.4621 787.111 M51.4968 787.111 Q51.4968 779.472 56.4621 775.111 Q61.4273 770.751 70.212 770.751 Q78.9649 770.751 83.9619 775.111 Q88.9272 779.472 88.9272 787.111 Q88.9272 794.781 83.9619 799.142 Q78.9649 803.47 70.212 803.47 Q61.4273 803.47 56.4621 799.142 Q51.4968 794.781 51.4968 787.111 Z" fill="#000000" fill-rule="evenodd" fill-opacity="1" /><path clip-path="url(#clip130)" d="M 0 0 M66.4881 734.975 L88.0042 734.975 L88.0042 740.832 L66.679 740.832 Q61.6183 740.832 59.1038 742.805 Q56.5894 744.779 56.5894 748.725 Q56.5894 753.468 59.6131 756.205 Q62.6368 758.942 67.8567 758.942 L88.0042 758.942 L88.0042 764.831 L52.3562 764.831 L52.3562 758.942 L57.8944 758.942 Q54.6797 756.842 53.0883 754.009 Q51.4968 751.144 51.4968 747.42 Q51.4968 741.278 55.3163 738.127 Q59.1038 734.975 66.4881 734.975 Z" fill="#000000" fill-rule="evenodd" fill-opacity="1" /><path clip-path="url(#clip130)" d="M 0 0 M38.5426 694.044 Q45.8632 698.309 53.0246 700.378 Q60.186 702.447 67.5384 702.447 Q74.8908 702.447 82.1159 700.378 Q89.3091 698.277 96.5979 694.044 L96.5979 699.137 Q89.1182 703.911 81.8931 706.298 Q74.668 708.653 67.5384 708.653 Q60.4406 708.653 53.2474 706.298 Q46.0542 703.943 38.5426 699.137 L38.5426 694.044 Z" fill="#000000" fill-rule="evenodd" fill-opacity="1" /><path clip-path="url(#clip130)" d="M 0 0 M59.1993 660.147 Q55.2526 657.95 53.3747 654.895 Q51.4968 651.839 51.4968 647.702 Q51.4968 642.132 55.4117 639.108 Q59.2948 636.084 66.4881 636.084 L88.0042 636.084 L88.0042 641.973 L66.679 641.973 Q61.5546 641.973 59.072 643.787 Q56.5894 645.601 56.5894 649.325 Q56.5894 653.876 59.6131 656.518 Q62.6368 659.16 67.8567 659.16 L88.0042 659.16 L88.0042 665.048 L66.679 665.048 Q61.5228 665.048 59.072 666.862 Q56.5894 668.677 56.5894 672.464 Q56.5894 676.952 59.6449 679.594 Q62.6686 682.236 67.8567 682.236 L88.0042 682.236 L88.0042 688.124 L52.3562 688.124 L52.3562 682.236 L57.8944 682.236 Q54.616 680.23 53.0564 677.43 Q51.4968 674.629 51.4968 670.777 Q51.4968 666.894 53.4702 664.189 Q55.4436 661.452 59.1993 660.147 Z" fill="#000000" fill-rule="evenodd" fill-opacity="1" /><path clip-path="url(#clip130)" d="M 0 0 M69.7664 606.484 Q63.4007 606.484 59.8996 609.125 Q56.3984 611.735 56.3984 616.478 Q56.3984 621.188 59.8996 623.83 Q63.4007 626.44 69.7664 626.44 Q76.1003 626.44 79.6014 623.83 Q83.1026 621.188 83.1026 616.478 Q83.1026 611.735 79.6014 609.125 Q76.1003 606.484 69.7664 606.484 M83.58 600.627 Q92.683 600.627 97.1071 604.669 Q101.563 608.712 101.563 617.051 Q101.563 620.138 101.086 622.875 Q100.64 625.613 99.6852 628.191 L93.9879 628.191 Q95.3884 625.613 96.0568 623.098 Q96.7252 620.584 96.7252 617.974 Q96.7252 612.213 93.7015 609.348 Q90.7096 606.484 84.6303 606.484 L81.7339 606.484 Q84.885 608.298 86.4446 611.131 Q88.0042 613.963 88.0042 617.91 Q88.0042 624.467 83.0071 628.477 Q78.01 632.488 69.7664 632.488 Q61.491 632.488 56.4939 628.477 Q51.4968 624.467 51.4968 617.91 Q51.4968 613.963 53.0564 611.131 Q54.616 608.298 57.7671 606.484 L52.3562 606.484 L52.3562 600.627 L83.58 600.627 Z" fill="#000000" fill-rule="evenodd" fill-opacity="1" /><path clip-path="url(#clip130)" d="M 0 0 M40.4842 584.076 L40.4842 578.666 L94.0516 595.216 L94.0516 600.627 L40.4842 584.076 Z" fill="#000000" fill-rule="evenodd" fill-opacity="1" /><path clip-path="url(#clip130)" d="M 0 0 M59.1993 544.768 Q55.2526 542.572 53.3747 539.516 Q51.4968 536.461 51.4968 532.323 Q51.4968 526.753 55.4117 523.73 Q59.2948 520.706 66.4881 520.706 L88.0042 520.706 L88.0042 526.594 L66.679 526.594 Q61.5546 526.594 59.072 528.408 Q56.5894 530.223 56.5894 533.946 Q56.5894 538.498 59.6131 541.14 Q62.6368 543.781 67.8567 543.781 L88.0042 543.781 L88.0042 549.67 L66.679 549.67 Q61.5228 549.67 59.072 551.484 Q56.5894 553.298 56.5894 557.086 Q56.5894 561.574 59.6449 564.215 Q62.6686 566.857 67.8567 566.857 L88.0042 566.857 L88.0042 572.745 L52.3562 572.745 L52.3562 566.857 L57.8944 566.857 Q54.616 564.852 53.0564 562.051 Q51.4968 559.25 51.4968 555.399 Q51.4968 551.516 53.4702 548.81 Q55.4436 546.073 59.1993 544.768 Z" fill="#000000" fill-rule="evenodd" fill-opacity="1" /><path clip-path="url(#clip130)" d="M 0 0 M62.3822 494.256 Q63.3689 489.641 66.4881 487.063 Q69.6073 484.453 74.1906 484.453 Q81.2247 484.453 85.0759 489.291 Q88.9272 494.129 88.9272 503.041 Q88.9272 506.033 88.3224 509.216 Q87.7495 512.367 86.5719 515.741 L80.3653 515.741 Q81.9249 513.067 82.7206 509.884 Q83.5163 506.701 83.5163 503.232 Q83.5163 497.185 81.1292 494.033 Q78.7421 490.851 74.1906 490.851 Q69.9892 490.851 67.6339 493.811 Q65.2468 496.739 65.2468 501.991 L65.2468 507.529 L59.9632 507.529 L59.9632 501.736 Q59.9632 496.994 58.0853 494.479 Q56.1756 491.965 52.6108 491.965 Q48.9505 491.965 47.009 494.575 Q45.0356 497.153 45.0356 501.991 Q45.0356 504.632 45.6086 507.656 Q46.1815 510.68 47.3909 514.308 L41.6618 514.308 Q40.6433 510.648 40.134 507.465 Q39.6248 504.25 39.6248 501.418 Q39.6248 494.097 42.9668 489.832 Q46.277 485.567 51.9424 485.567 Q55.8892 485.567 58.6264 487.827 Q61.3318 490.087 62.3822 494.256 Z" fill="#000000" fill-rule="evenodd" fill-opacity="1" /><path clip-path="url(#clip130)" d="M 0 0 M38.5426 479.233 L38.5426 474.141 Q46.0542 469.366 53.2474 467.011 Q60.4406 464.624 67.5384 464.624 Q74.668 464.624 81.8931 467.011 Q89.1182 469.366 96.5979 474.141 L96.5979 479.233 Q89.3091 475 82.1159 472.931 Q74.8908 470.83 67.5384 470.83 Q60.186 470.83 53.0246 472.931 Q45.8632 475 38.5426 479.233 Z" fill="#000000" fill-rule="evenodd" fill-opacity="1" /><path clip-path="url(#clip130)" d="M 0 0 M601.202 34.1734 Q599.946 33.4443 598.447 33.1202 Q596.989 32.7556 595.207 32.7556 Q588.887 32.7556 585.484 36.8875 Q582.122 40.9789 582.122 48.6757 L582.122 72.576 L574.628 72.576 L574.628 27.2059 L582.122 27.2059 L582.122 34.2544 Q584.472 30.1225 588.239 28.1376 Q592.006 26.1121 597.394 26.1121 Q598.164 26.1121 599.095 26.2337 Q600.027 26.3147 601.161 26.5172 L601.202 34.1734 Z" fill="#000000" fill-rule="evenodd" fill-opacity="1" /><path clip-path="url(#clip130)" d="M 0 0 M646.005 48.0275 L646.005 51.6733 L611.734 51.6733 Q612.22 59.3701 616.352 63.421 Q620.525 67.4314 627.938 67.4314 Q632.232 67.4314 636.242 66.3781 Q640.293 65.3249 644.263 63.2184 L644.263 70.267 Q640.253 71.9684 636.04 72.8596 Q631.827 73.7508 627.492 73.7508 Q616.636 73.7508 610.276 67.4314 Q603.957 61.1119 603.957 50.3365 Q603.957 39.1965 609.952 32.6746 Q615.988 26.1121 626.196 26.1121 Q635.351 26.1121 640.658 32.0264 Q646.005 37.9003 646.005 48.0275 M638.551 45.84 Q638.47 39.7232 635.108 36.0774 Q631.786 32.4315 626.277 32.4315 Q620.039 32.4315 616.271 35.9558 Q612.544 39.4801 611.977 45.8805 L638.551 45.84 Z" fill="#000000" fill-rule="evenodd" fill-opacity="1" /><path clip-path="url(#clip130)" d="M 0 0 M686.473 28.9478 L686.473 35.9153 Q683.314 34.1734 680.114 33.3227 Q676.954 32.4315 673.713 32.4315 Q666.462 32.4315 662.452 37.0496 Q658.441 41.6271 658.441 49.9314 Q658.441 58.2358 662.452 62.8538 Q666.462 67.4314 673.713 67.4314 Q676.954 67.4314 680.114 66.5807 Q683.314 65.6895 686.473 63.9476 L686.473 70.8341 Q683.354 72.2924 679.992 73.0216 Q676.67 73.7508 672.903 73.7508 Q662.654 73.7508 656.618 67.3098 Q650.582 60.8689 650.582 49.9314 Q650.582 38.832 656.659 32.472 Q662.776 26.1121 673.389 26.1121 Q676.832 26.1121 680.114 26.8413 Q683.395 27.5299 686.473 28.9478 Z" fill="#000000" fill-rule="evenodd" fill-opacity="1" /><path clip-path="url(#clip130)" d="M 0 0 M733.099 48.0275 L733.099 51.6733 L698.829 51.6733 Q699.315 59.3701 703.447 63.421 Q707.619 67.4314 715.032 67.4314 Q719.326 67.4314 723.337 66.3781 Q727.388 65.3249 731.357 63.2184 L731.357 70.267 Q727.347 71.9684 723.134 72.8596 Q718.921 73.7508 714.587 73.7508 Q703.73 73.7508 697.37 67.4314 Q691.051 61.1119 691.051 50.3365 Q691.051 39.1965 697.046 32.6746 Q703.082 26.1121 713.29 26.1121 Q722.445 26.1121 727.752 32.0264 Q733.099 37.9003 733.099 48.0275 M725.646 45.84 Q725.565 39.7232 722.202 36.0774 Q718.881 32.4315 713.371 32.4315 Q707.133 32.4315 703.366 35.9558 Q699.639 39.4801 699.072 45.8805 L725.646 45.84 Z" fill="#000000" fill-rule="evenodd" fill-opacity="1" /><path clip-path="url(#clip130)" d="M 0 0 M748.128 65.7705 L748.128 89.8329 L740.634 89.8329 L740.634 27.2059 L748.128 27.2059 L748.128 34.0924 Q750.478 30.0415 754.043 28.0971 Q757.648 26.1121 762.63 26.1121 Q770.894 26.1121 776.039 32.6746 Q781.224 39.2371 781.224 49.9314 Q781.224 60.6258 776.039 67.1883 Q770.894 73.7508 762.63 73.7508 Q757.648 73.7508 754.043 71.8063 Q750.478 69.8214 748.128 65.7705 M773.487 49.9314 Q773.487 41.7081 770.084 37.0496 Q766.722 32.3505 760.808 32.3505 Q754.893 32.3505 751.49 37.0496 Q748.128 41.7081 748.128 49.9314 Q748.128 58.1548 751.49 62.8538 Q754.893 67.5124 760.808 67.5124 Q766.722 67.5124 770.084 62.8538 Q773.487 58.1548 773.487 49.9314 Z" fill="#000000" fill-rule="evenodd" fill-opacity="1" /><path clip-path="url(#clip130)" d="M 0 0 M796.415 14.324 L796.415 27.2059 L811.768 27.2059 L811.768 32.9987 L796.415 32.9987 L796.415 57.6282 Q796.415 63.1779 797.914 64.7578 Q799.453 66.3376 804.112 66.3376 L811.768 66.3376 L811.768 72.576 L804.112 72.576 Q795.483 72.576 792.202 69.3758 Q788.921 66.1351 788.921 57.6282 L788.921 32.9987 L783.452 32.9987 L783.452 27.2059 L788.921 27.2059 L788.921 14.324 L796.415 14.324 Z" fill="#000000" fill-rule="evenodd" fill-opacity="1" /><path clip-path="url(#clip130)" d="M 0 0 M837.167 32.4315 Q831.172 32.4315 827.688 37.1306 Q824.204 41.7891 824.204 49.9314 Q824.204 58.0738 827.647 62.7728 Q831.131 67.4314 837.167 67.4314 Q843.122 67.4314 846.606 62.7323 Q850.089 58.0333 850.089 49.9314 Q850.089 41.8701 846.606 37.1711 Q843.122 32.4315 837.167 32.4315 M837.167 26.1121 Q846.889 26.1121 852.439 32.4315 Q857.989 38.7509 857.989 49.9314 Q857.989 61.0714 852.439 67.4314 Q846.889 73.7508 837.167 73.7508 Q827.404 73.7508 821.855 67.4314 Q816.345 61.0714 816.345 49.9314 Q816.345 38.7509 821.855 32.4315 Q827.404 26.1121 837.167 26.1121 Z" fill="#000000" fill-rule="evenodd" fill-opacity="1" /><path clip-path="url(#clip130)" d="M 0 0 M892.097 34.1734 Q890.842 33.4443 889.343 33.1202 Q887.884 32.7556 886.102 32.7556 Q879.783 32.7556 876.38 36.8875 Q873.018 40.9789 873.018 48.6757 L873.018 72.576 L865.523 72.576 L865.523 27.2059 L873.018 27.2059 L873.018 34.2544 Q875.367 30.1225 879.134 28.1376 Q882.902 26.1121 888.289 26.1121 Q889.059 26.1121 889.991 26.2337 Q890.923 26.3147 892.057 26.5172 L892.097 34.1734 Z" fill="#000000" fill-rule="evenodd" fill-opacity="1" /><path clip-path="url(#clip130)" d="M 0 0 M958.937 28.9478 L958.937 35.9153 Q955.778 34.1734 952.577 33.3227 Q949.418 32.4315 946.177 32.4315 Q938.926 32.4315 934.915 37.0496 Q930.905 41.6271 930.905 49.9314 Q930.905 58.2358 934.915 62.8538 Q938.926 67.4314 946.177 67.4314 Q949.418 67.4314 952.577 66.5807 Q955.778 65.6895 958.937 63.9476 L958.937 70.8341 Q955.818 72.2924 952.456 73.0216 Q949.134 73.7508 945.367 73.7508 Q935.118 73.7508 929.082 67.3098 Q923.046 60.8689 923.046 49.9314 Q923.046 38.832 929.123 32.472 Q935.239 26.1121 945.853 26.1121 Q949.296 26.1121 952.577 26.8413 Q955.859 27.5299 958.937 28.9478 Z" fill="#000000" fill-rule="evenodd" fill-opacity="1" /><path clip-path="url(#clip130)" d="M 0 0 M984.336 32.4315 Q978.341 32.4315 974.857 37.1306 Q971.374 41.7891 971.374 49.9314 Q971.374 58.0738 974.817 62.7728 Q978.301 67.4314 984.336 67.4314 Q990.291 67.4314 993.775 62.7323 Q997.259 58.0333 997.259 49.9314 Q997.259 41.8701 993.775 37.1711 Q990.291 32.4315 984.336 32.4315 M984.336 26.1121 Q994.059 26.1121 999.608 32.4315 Q1005.16 38.7509 1005.16 49.9314 Q1005.16 61.0714 999.608 67.4314 Q994.059 73.7508 984.336 73.7508 Q974.574 73.7508 969.024 67.4314 Q963.515 61.0714 963.515 49.9314 Q963.515 38.7509 969.024 32.4315 Q974.574 26.1121 984.336 26.1121 Z" fill="#000000" fill-rule="evenodd" fill-opacity="1" /><path clip-path="url(#clip130)" d="M 0 0 M1050.69 45.1919 L1050.69 72.576 L1043.24 72.576 L1043.24 45.4349 Q1043.24 38.994 1040.73 35.7938 Q1038.21 32.5936 1033.19 32.5936 Q1027.15 32.5936 1023.67 36.4419 Q1020.19 40.2903 1020.19 46.9338 L1020.19 72.576 L1012.69 72.576 L1012.69 27.2059 L1020.19 27.2059 L1020.19 34.2544 Q1022.86 30.163 1026.47 28.1376 Q1030.11 26.1121 1034.85 26.1121 Q1042.67 26.1121 1046.68 30.9732 Q1050.69 35.7938 1050.69 45.1919 Z" fill="#000000" fill-rule="evenodd" fill-opacity="1" /><path clip-path="url(#clip130)" d="M 0 0 M1091.16 28.9478 L1091.16 35.9153 Q1088 34.1734 1084.8 33.3227 Q1081.64 32.4315 1078.4 32.4315 Q1071.15 32.4315 1067.14 37.0496 Q1063.13 41.6271 1063.13 49.9314 Q1063.13 58.2358 1067.14 62.8538 Q1071.15 67.4314 1078.4 67.4314 Q1081.64 67.4314 1084.8 66.5807 Q1088 65.6895 1091.16 63.9476 L1091.16 70.8341 Q1088.04 72.2924 1084.68 73.0216 Q1081.36 73.7508 1077.59 73.7508 Q1067.34 73.7508 1061.3 67.3098 Q1055.27 60.8689 1055.27 49.9314 Q1055.27 38.832 1061.34 32.472 Q1067.46 26.1121 1078.07 26.1121 Q1081.52 26.1121 1084.8 26.8413 Q1088.08 27.5299 1091.16 28.9478 Z" fill="#000000" fill-rule="evenodd" fill-opacity="1" /><path clip-path="url(#clip130)" d="M 0 0 M1137.78 48.0275 L1137.78 51.6733 L1103.51 51.6733 Q1104 59.3701 1108.13 63.421 Q1112.3 67.4314 1119.72 67.4314 Q1124.01 67.4314 1128.02 66.3781 Q1132.07 65.3249 1136.04 63.2184 L1136.04 70.267 Q1132.03 71.9684 1127.82 72.8596 Q1123.61 73.7508 1119.27 73.7508 Q1108.42 73.7508 1102.06 67.4314 Q1095.74 61.1119 1095.74 50.3365 Q1095.74 39.1965 1101.73 32.6746 Q1107.77 26.1121 1117.98 26.1121 Q1127.13 26.1121 1132.44 32.0264 Q1137.78 37.9003 1137.78 48.0275 M1130.33 45.84 Q1130.25 39.7232 1126.89 36.0774 Q1123.57 32.4315 1118.06 32.4315 Q1111.82 32.4315 1108.05 35.9558 Q1104.32 39.4801 1103.76 45.8805 L1130.33 45.84 Z" fill="#000000" fill-rule="evenodd" fill-opacity="1" /><path clip-path="url(#clip130)" d="M 0 0 M1183.32 45.1919 L1183.32 72.576 L1175.86 72.576 L1175.86 45.4349 Q1175.86 38.994 1173.35 35.7938 Q1170.84 32.5936 1165.82 32.5936 Q1159.78 32.5936 1156.3 36.4419 Q1152.81 40.2903 1152.81 46.9338 L1152.81 72.576 L1145.32 72.576 L1145.32 27.2059 L1152.81 27.2059 L1152.81 34.2544 Q1155.49 30.163 1159.09 28.1376 Q1162.74 26.1121 1167.48 26.1121 Q1175.3 26.1121 1179.31 30.9732 Q1183.32 35.7938 1183.32 45.1919 Z" fill="#000000" fill-rule="evenodd" fill-opacity="1" /><path clip-path="url(#clip130)" d="M 0 0 M1198.51 14.324 L1198.51 27.2059 L1213.86 27.2059 L1213.86 32.9987 L1198.51 32.9987 L1198.51 57.6282 Q1198.51 63.1779 1200.01 64.7578 Q1201.55 66.3376 1206.2 66.3376 L1213.86 66.3376 L1213.86 72.576 L1206.2 72.576 Q1197.58 72.576 1194.29 69.3758 Q1191.01 66.1351 1191.01 57.6282 L1191.01 32.9987 L1185.54 32.9987 L1185.54 27.2059 L1191.01 27.2059 L1191.01 14.324 L1198.51 14.324 Z" fill="#000000" fill-rule="evenodd" fill-opacity="1" /><path clip-path="url(#clip130)" d="M 0 0 M1247.97 34.1734 Q1246.71 33.4443 1245.21 33.1202 Q1243.76 32.7556 1241.97 32.7556 Q1235.65 32.7556 1232.25 36.8875 Q1228.89 40.9789 1228.89 48.6757 L1228.89 72.576 L1221.4 72.576 L1221.4 27.2059 L1228.89 27.2059 L1228.89 34.2544 Q1231.24 30.1225 1235.01 28.1376 Q1238.77 26.1121 1244.16 26.1121 Q1244.93 26.1121 1245.86 26.2337 Q1246.79 26.3147 1247.93 26.5172 L1247.97 34.1734 Z" fill="#000000" fill-rule="evenodd" fill-opacity="1" /><path clip-path="url(#clip130)" d="M 0 0 M1276.41 49.7694 Q1267.37 49.7694 1263.89 51.8354 Q1260.41 53.9013 1260.41 58.8839 Q1260.41 62.8538 1263 65.2034 Q1265.63 67.5124 1270.13 67.5124 Q1276.33 67.5124 1280.05 63.1374 Q1283.82 58.7219 1283.82 51.4303 L1283.82 49.7694 L1276.41 49.7694 M1291.27 46.6907 L1291.27 72.576 L1283.82 72.576 L1283.82 65.6895 Q1281.27 69.8214 1277.46 71.8063 Q1273.65 73.7508 1268.14 73.7508 Q1261.18 73.7508 1257.04 69.8619 Q1252.95 65.9325 1252.95 59.3701 Q1252.95 51.7138 1258.06 47.825 Q1263.2 43.9361 1273.37 43.9361 L1283.82 43.9361 L1283.82 43.2069 Q1283.82 38.0623 1280.42 35.2672 Q1277.05 32.4315 1270.94 32.4315 Q1267.05 32.4315 1263.36 33.3632 Q1259.68 34.295 1256.27 36.1584 L1256.27 29.2718 Q1260.37 27.692 1264.21 26.9223 Q1268.06 26.1121 1271.71 26.1121 Q1281.55 26.1121 1286.41 31.2163 Q1291.27 36.3204 1291.27 46.6907 Z" fill="#000000" fill-rule="evenodd" fill-opacity="1" /><path clip-path="url(#clip130)" d="M 0 0 M1306.46 14.324 L1306.46 27.2059 L1321.82 27.2059 L1321.82 32.9987 L1306.46 32.9987 L1306.46 57.6282 Q1306.46 63.1779 1307.96 64.7578 Q1309.5 66.3376 1314.16 66.3376 L1321.82 66.3376 L1321.82 72.576 L1314.16 72.576 Q1305.53 72.576 1302.25 69.3758 Q1298.97 66.1351 1298.97 57.6282 L1298.97 32.9987 L1293.5 32.9987 L1293.5 27.2059 L1298.97 27.2059 L1298.97 14.324 L1306.46 14.324 Z" fill="#000000" fill-rule="evenodd" fill-opacity="1" /><path clip-path="url(#clip130)" d="M 0 0 M1329.64 27.2059 L1337.09 27.2059 L1337.09 72.576 L1329.64 72.576 L1329.64 27.2059 M1329.64 9.54393 L1337.09 9.54393 L1337.09 18.9825 L1329.64 18.9825 L1329.64 9.54393 Z" fill="#000000" fill-rule="evenodd" fill-opacity="1" /><path clip-path="url(#clip130)" d="M 0 0 M1362.49 32.4315 Q1356.49 32.4315 1353.01 37.1306 Q1349.53 41.7891 1349.53 49.9314 Q1349.53 58.0738 1352.97 62.7728 Q1356.45 67.4314 1362.49 67.4314 Q1368.44 67.4314 1371.93 62.7323 Q1375.41 58.0333 1375.41 49.9314 Q1375.41 41.8701 1371.93 37.1711 Q1368.44 32.4315 1362.49 32.4315 M1362.49 26.1121 Q1372.21 26.1121 1377.76 32.4315 Q1383.31 38.7509 1383.31 49.9314 Q1383.31 61.0714 1377.76 67.4314 Q1372.21 73.7508 1362.49 73.7508 Q1352.73 73.7508 1347.18 67.4314 Q1341.67 61.0714 1341.67 49.9314 Q1341.67 38.7509 1347.18 32.4315 Q1352.73 26.1121 1362.49 26.1121 Z" fill="#000000" fill-rule="evenodd" fill-opacity="1" /><path clip-path="url(#clip130)" d="M 0 0 M1428.84 45.1919 L1428.84 72.576 L1421.39 72.576 L1421.39 45.4349 Q1421.39 38.994 1418.88 35.7938 Q1416.37 32.5936 1411.34 32.5936 Q1405.31 32.5936 1401.82 36.4419 Q1398.34 40.2903 1398.34 46.9338 L1398.34 72.576 L1390.84 72.576 L1390.84 27.2059 L1398.34 27.2059 L1398.34 34.2544 Q1401.01 30.163 1404.62 28.1376 Q1408.26 26.1121 1413 26.1121 Q1420.82 26.1121 1424.83 30.9732 Q1428.84 35.7938 1428.84 45.1919 Z" fill="#000000" fill-rule="evenodd" fill-opacity="1" /><path clip-path="url(#clip130)" d="M 0 0 M1457.68 27.2059 L1465.58 27.2059 L1479.76 65.2844 L1493.94 27.2059 L1501.84 27.2059 L1484.83 72.576 L1474.7 72.576 L1457.68 27.2059 Z" fill="#000000" fill-rule="evenodd" fill-opacity="1" /><path clip-path="url(#clip130)" d="M 0 0 M1538.58 28.5427 L1538.58 35.5912 Q1535.42 33.9709 1532.02 33.1607 Q1528.62 32.3505 1524.97 32.3505 Q1519.42 32.3505 1516.63 34.0519 Q1513.87 35.7533 1513.87 39.156 Q1513.87 41.7486 1515.86 43.2475 Q1517.84 44.7058 1523.84 46.0426 L1526.39 46.6097 Q1534.33 48.3111 1537.65 51.4303 Q1541.01 54.509 1541.01 60.0587 Q1541.01 66.3781 1535.99 70.0644 Q1531.01 73.7508 1522.26 73.7508 Q1518.61 73.7508 1514.64 73.0216 Q1510.71 72.3329 1506.34 70.9151 L1506.34 63.2184 Q1510.47 65.3654 1514.48 66.4591 Q1518.49 67.5124 1522.42 67.5124 Q1527.68 67.5124 1530.52 65.73 Q1533.36 63.9071 1533.36 60.6258 Q1533.36 57.5877 1531.29 55.9673 Q1529.26 54.3469 1522.34 52.8481 L1519.74 52.2405 Q1512.82 50.7821 1509.74 47.7845 Q1506.66 44.7463 1506.66 39.4801 Q1506.66 33.0797 1511.2 29.5959 Q1515.73 26.1121 1524.08 26.1121 Q1528.21 26.1121 1531.86 26.7198 Q1535.5 27.3274 1538.58 28.5427 Z" fill="#000000" fill-rule="evenodd" fill-opacity="1" /><path clip-path="url(#clip130)" d="M 0 0 M1570.87 27.2059 L1578.32 27.2059 L1587.64 62.6108 L1596.91 27.2059 L1605.7 27.2059 L1615.02 62.6108 L1624.3 27.2059 L1631.75 27.2059 L1619.88 72.576 L1611.09 72.576 L1601.33 35.3887 L1591.53 72.576 L1582.74 72.576 L1570.87 27.2059 Z" fill="#000000" fill-rule="evenodd" fill-opacity="1" /><path clip-path="url(#clip130)" d="M 0 0 M1639.57 27.2059 L1647.02 27.2059 L1647.02 72.576 L1639.57 72.576 L1639.57 27.2059 M1639.57 9.54393 L1647.02 9.54393 L1647.02 18.9825 L1639.57 18.9825 L1639.57 9.54393 Z" fill="#000000" fill-rule="evenodd" fill-opacity="1" /><path clip-path="url(#clip130)" d="M 0 0 M1692.56 45.1919 L1692.56 72.576 L1685.1 72.576 L1685.1 45.4349 Q1685.1 38.994 1682.59 35.7938 Q1680.08 32.5936 1675.06 32.5936 Q1669.02 32.5936 1665.54 36.4419 Q1662.05 40.2903 1662.05 46.9338 L1662.05 72.576 L1654.56 72.576 L1654.56 27.2059 L1662.05 27.2059 L1662.05 34.2544 Q1664.73 30.163 1668.33 28.1376 Q1671.98 26.1121 1676.72 26.1121 Q1684.54 26.1121 1688.55 30.9732 Q1692.56 35.7938 1692.56 45.1919 Z" fill="#000000" fill-rule="evenodd" fill-opacity="1" /><path clip-path="url(#clip130)" d="M 0 0 M1730.23 34.0924 L1730.23 9.54393 L1737.68 9.54393 L1737.68 72.576 L1730.23 72.576 L1730.23 65.7705 Q1727.88 69.8214 1724.27 71.8063 Q1720.71 73.7508 1715.69 73.7508 Q1707.46 73.7508 1702.28 67.1883 Q1697.13 60.6258 1697.13 49.9314 Q1697.13 39.2371 1702.28 32.6746 Q1707.46 26.1121 1715.69 26.1121 Q1720.71 26.1121 1724.27 28.0971 Q1727.88 30.0415 1730.23 34.0924 M1704.83 49.9314 Q1704.83 58.1548 1708.19 62.8538 Q1711.6 67.5124 1717.51 67.5124 Q1723.42 67.5124 1726.83 62.8538 Q1730.23 58.1548 1730.23 49.9314 Q1730.23 41.7081 1726.83 37.0496 Q1723.42 32.3505 1717.51 32.3505 Q1711.6 32.3505 1708.19 37.0496 Q1704.83 41.7081 1704.83 49.9314 Z" fill="#000000" fill-rule="evenodd" fill-opacity="1" /><path clip-path="url(#clip130)" d="M 0 0 M1774.42 28.5427 L1774.42 35.5912 Q1771.27 33.9709 1767.86 33.1607 Q1764.46 32.3505 1760.81 32.3505 Q1755.26 32.3505 1752.47 34.0519 Q1749.71 35.7533 1749.71 39.156 Q1749.71 41.7486 1751.7 43.2475 Q1753.68 44.7058 1759.68 46.0426 L1762.23 46.6097 Q1770.17 48.3111 1773.49 51.4303 Q1776.86 54.509 1776.86 60.0587 Q1776.86 66.3781 1771.83 70.0644 Q1766.85 73.7508 1758.1 73.7508 Q1754.45 73.7508 1750.48 73.0216 Q1746.55 72.3329 1742.18 70.9151 L1742.18 63.2184 Q1746.31 65.3654 1750.32 66.4591 Q1754.33 67.5124 1758.26 67.5124 Q1763.53 67.5124 1766.36 65.73 Q1769.2 63.9071 1769.2 60.6258 Q1769.2 57.5877 1767.13 55.9673 Q1765.11 54.3469 1758.18 52.8481 L1755.59 52.2405 Q1748.66 50.7821 1745.58 47.7845 Q1742.5 44.7463 1742.5 39.4801 Q1742.5 33.0797 1747.04 29.5959 Q1751.58 26.1121 1759.92 26.1121 Q1764.05 26.1121 1767.7 26.7198 Q1771.35 27.3274 1774.42 28.5427 Z" fill="#000000" fill-rule="evenodd" fill-opacity="1" /><path clip-path="url(#clip130)" d="M 0 0 M1791.88 65.7705 L1791.88 89.8329 L1784.39 89.8329 L1784.39 27.2059 L1791.88 27.2059 L1791.88 34.0924 Q1794.23 30.0415 1797.8 28.0971 Q1801.4 26.1121 1806.39 26.1121 Q1814.65 26.1121 1819.79 32.6746 Q1824.98 39.2371 1824.98 49.9314 Q1824.98 60.6258 1819.79 67.1883 Q1814.65 73.7508 1806.39 73.7508 Q1801.4 73.7508 1797.8 71.8063 Q1794.23 69.8214 1791.88 65.7705 M1817.24 49.9314 Q1817.24 41.7081 1813.84 37.0496 Q1810.48 32.3505 1804.56 32.3505 Q1798.65 32.3505 1795.25 37.0496 Q1791.88 41.7081 1791.88 49.9314 Q1791.88 58.1548 1795.25 62.8538 Q1798.65 67.5124 1804.56 67.5124 Q1810.48 67.5124 1813.84 62.8538 Q1817.24 58.1548 1817.24 49.9314 Z" fill="#000000" fill-rule="evenodd" fill-opacity="1" /><path clip-path="url(#clip130)" d="M 0 0 M1871.61 48.0275 L1871.61 51.6733 L1837.34 51.6733 Q1837.82 59.3701 1841.95 63.421 Q1846.13 67.4314 1853.54 67.4314 Q1857.83 67.4314 1861.84 66.3781 Q1865.89 65.3249 1869.86 63.2184 L1869.86 70.267 Q1865.85 71.9684 1861.64 72.8596 Q1857.43 73.7508 1853.09 73.7508 Q1842.24 73.7508 1835.88 67.4314 Q1829.56 61.1119 1829.56 50.3365 Q1829.56 39.1965 1835.55 32.6746 Q1841.59 26.1121 1851.8 26.1121 Q1860.95 26.1121 1866.26 32.0264 Q1871.61 37.9003 1871.61 48.0275 M1864.15 45.84 Q1864.07 39.7232 1860.71 36.0774 Q1857.39 32.4315 1851.88 32.4315 Q1845.64 32.4315 1841.87 35.9558 Q1838.15 39.4801 1837.58 45.8805 L1864.15 45.84 Z" fill="#000000" fill-rule="evenodd" fill-opacity="1" /><path clip-path="url(#clip130)" d="M 0 0 M1918.23 48.0275 L1918.23 51.6733 L1883.96 51.6733 Q1884.45 59.3701 1888.58 63.421 Q1892.75 67.4314 1900.16 67.4314 Q1904.46 67.4314 1908.47 66.3781 Q1912.52 65.3249 1916.49 63.2184 L1916.49 70.267 Q1912.48 71.9684 1908.27 72.8596 Q1904.05 73.7508 1899.72 73.7508 Q1888.86 73.7508 1882.5 67.4314 Q1876.18 61.1119 1876.18 50.3365 Q1876.18 39.1965 1882.18 32.6746 Q1888.21 26.1121 1898.42 26.1121 Q1907.58 26.1121 1912.88 32.0264 Q1918.23 37.9003 1918.23 48.0275 M1910.78 45.84 Q1910.7 39.7232 1907.33 36.0774 Q1904.01 32.4315 1898.5 32.4315 Q1892.27 32.4315 1888.5 35.9558 Q1884.77 39.4801 1884.2 45.8805 L1910.78 45.84 Z" fill="#000000" fill-rule="evenodd" fill-opacity="1" /><path clip-path="url(#clip130)" d="M 0 0 M1955.91 34.0924 L1955.91 9.54393 L1963.36 9.54393 L1963.36 72.576 L1955.91 72.576 L1955.91 65.7705 Q1953.56 69.8214 1949.95 71.8063 Q1946.39 73.7508 1941.36 73.7508 Q1933.14 73.7508 1927.95 67.1883 Q1922.81 60.6258 1922.81 49.9314 Q1922.81 39.2371 1927.95 32.6746 Q1933.14 26.1121 1941.36 26.1121 Q1946.39 26.1121 1949.95 28.0971 Q1953.56 30.0415 1955.91 34.0924 M1930.51 49.9314 Q1930.51 58.1548 1933.87 62.8538 Q1937.27 67.5124 1943.19 67.5124 Q1949.1 67.5124 1952.5 62.8538 Q1955.91 58.1548 1955.91 49.9314 Q1955.91 41.7081 1952.5 37.0496 Q1949.1 32.3505 1943.19 32.3505 Q1937.27 32.3505 1933.87 37.0496 Q1930.51 41.7081 1930.51 49.9314 Z" fill="#000000" fill-rule="evenodd" fill-opacity="1" /><path clip-path="url(#clip130)" d="M 0 0 M898.66 138.748 L898.66 142.393 L864.389 142.393 Q864.875 150.09 869.007 154.141 Q873.18 158.151 880.593 158.151 Q884.887 158.151 888.897 157.098 Q892.948 156.045 896.918 153.938 L896.918 160.987 Q892.908 162.688 888.695 163.58 Q884.482 164.471 880.147 164.471 Q869.291 164.471 862.931 158.151 Q856.611 151.832 856.611 141.057 Q856.611 129.917 862.607 123.395 Q868.643 116.832 878.851 116.832 Q888.006 116.832 893.313 122.746 Q898.66 128.62 898.66 138.748 M891.206 136.56 Q891.125 130.443 887.763 126.797 Q884.441 123.152 878.932 123.152 Q872.694 123.152 868.926 126.676 Q865.199 130.2 864.632 136.601 L891.206 136.56 Z" fill="#000000" fill-rule="evenodd" fill-opacity="1" /><path clip-path="url(#clip130)" d="M 0 0 M906.478 100.264 L913.932 100.264 L913.932 163.296 L906.478 163.296 L906.478 100.264 Z" fill="#000000" fill-rule="evenodd" fill-opacity="1" /><path clip-path="url(#clip130)" d="M 0 0 M960.558 138.748 L960.558 142.393 L926.287 142.393 Q926.773 150.09 930.905 154.141 Q935.077 158.151 942.491 158.151 Q946.785 158.151 950.795 157.098 Q954.846 156.045 958.816 153.938 L958.816 160.987 Q954.805 162.688 950.592 163.58 Q946.379 164.471 942.045 164.471 Q931.189 164.471 924.829 158.151 Q918.509 151.832 918.509 141.057 Q918.509 129.917 924.505 123.395 Q930.54 116.832 940.749 116.832 Q949.904 116.832 955.21 122.746 Q960.558 128.62 960.558 138.748 M953.104 136.56 Q953.023 130.443 949.661 126.797 Q946.339 123.152 940.83 123.152 Q934.591 123.152 930.824 126.676 Q927.097 130.2 926.53 136.601 L953.104 136.56 Z" fill="#000000" fill-rule="evenodd" fill-opacity="1" /><path clip-path="url(#clip130)" d="M 0 0 M963.029 117.926 L970.928 117.926 L985.106 156.004 L999.284 117.926 L1007.18 117.926 L990.17 163.296 L980.042 163.296 L963.029 117.926 Z" fill="#000000" fill-rule="evenodd" fill-opacity="1" /><path clip-path="url(#clip130)" d="M 0 0 M1035.62 140.489 Q1026.59 140.489 1023.1 142.555 Q1019.62 144.621 1019.62 149.604 Q1019.62 153.574 1022.21 155.923 Q1024.85 158.232 1029.34 158.232 Q1035.54 158.232 1039.27 153.857 Q1043.03 149.442 1043.03 142.15 L1043.03 140.489 L1035.62 140.489 M1050.49 137.411 L1050.49 163.296 L1043.03 163.296 L1043.03 156.409 Q1040.48 160.541 1036.67 162.526 Q1032.87 164.471 1027.36 164.471 Q1020.39 164.471 1016.26 160.582 Q1012.17 156.653 1012.17 150.09 Q1012.17 142.434 1017.27 138.545 Q1022.41 134.656 1032.58 134.656 L1043.03 134.656 L1043.03 133.927 Q1043.03 128.782 1039.63 125.987 Q1036.27 123.152 1030.15 123.152 Q1026.26 123.152 1022.58 124.083 Q1018.89 125.015 1015.49 126.878 L1015.49 119.992 Q1019.58 118.412 1023.43 117.642 Q1027.28 116.832 1030.92 116.832 Q1040.77 116.832 1045.63 121.936 Q1050.49 127.04 1050.49 137.411 Z" fill="#000000" fill-rule="evenodd" fill-opacity="1" /><path clip-path="url(#clip130)" d="M 0 0 M1065.68 105.044 L1065.68 117.926 L1081.03 117.926 L1081.03 123.719 L1065.68 123.719 L1065.68 148.348 Q1065.68 153.898 1067.18 155.478 Q1068.72 157.058 1073.38 157.058 L1081.03 157.058 L1081.03 163.296 L1073.38 163.296 Q1064.75 163.296 1061.47 160.096 Q1058.18 156.855 1058.18 148.348 L1058.18 123.719 L1052.72 123.719 L1052.72 117.926 L1058.18 117.926 L1058.18 105.044 L1065.68 105.044 Z" fill="#000000" fill-rule="evenodd" fill-opacity="1" /><path clip-path="url(#clip130)" d="M 0 0 M1127.66 138.748 L1127.66 142.393 L1093.39 142.393 Q1093.87 150.09 1098 154.141 Q1102.18 158.151 1109.59 158.151 Q1113.88 158.151 1117.89 157.098 Q1121.95 156.045 1125.92 153.938 L1125.92 160.987 Q1121.91 162.688 1117.69 163.58 Q1113.48 164.471 1109.14 164.471 Q1098.29 164.471 1091.93 158.151 Q1085.61 151.832 1085.61 141.057 Q1085.61 129.917 1091.6 123.395 Q1097.64 116.832 1107.85 116.832 Q1117 116.832 1122.31 122.746 Q1127.66 128.62 1127.66 138.748 M1120.2 136.56 Q1120.12 130.443 1116.76 126.797 Q1113.44 123.152 1107.93 123.152 Q1101.69 123.152 1097.92 126.676 Q1094.2 130.2 1093.63 136.601 L1120.2 136.56 Z" fill="#000000" fill-rule="evenodd" fill-opacity="1" /><path clip-path="url(#clip130)" d="M 0 0 M1165.33 124.812 L1165.33 100.264 L1172.78 100.264 L1172.78 163.296 L1165.33 163.296 L1165.33 156.49 Q1162.98 160.541 1159.38 162.526 Q1155.81 164.471 1150.79 164.471 Q1142.56 164.471 1137.38 157.908 Q1132.23 151.346 1132.23 140.651 Q1132.23 129.957 1137.38 123.395 Q1142.56 116.832 1150.79 116.832 Q1155.81 116.832 1159.38 118.817 Q1162.98 120.762 1165.33 124.812 M1139.93 140.651 Q1139.93 148.875 1143.29 153.574 Q1146.7 158.232 1152.61 158.232 Q1158.53 158.232 1161.93 153.574 Q1165.33 148.875 1165.33 140.651 Q1165.33 132.428 1161.93 127.77 Q1158.53 123.071 1152.61 123.071 Q1146.7 123.071 1143.29 127.77 Q1139.93 132.428 1139.93 140.651 Z" fill="#000000" fill-rule="evenodd" fill-opacity="1" /><path clip-path="url(#clip130)" d="M 0 0 M1202.64 117.926 L1210.09 117.926 L1219.41 153.331 L1228.69 117.926 L1237.48 117.926 L1246.79 153.331 L1256.07 117.926 L1263.52 117.926 L1251.66 163.296 L1242.87 163.296 L1233.1 126.109 L1223.3 163.296 L1214.51 163.296 L1202.64 117.926 Z" fill="#000000" fill-rule="evenodd" fill-opacity="1" /><path clip-path="url(#clip130)" d="M 0 0 M1288.92 123.152 Q1282.93 123.152 1279.44 127.851 Q1275.96 132.509 1275.96 140.651 Q1275.96 148.794 1279.4 153.493 Q1282.89 158.151 1288.92 158.151 Q1294.88 158.151 1298.36 153.452 Q1301.85 148.753 1301.85 140.651 Q1301.85 132.59 1298.36 127.891 Q1294.88 123.152 1288.92 123.152 M1288.92 116.832 Q1298.65 116.832 1304.2 123.152 Q1309.75 129.471 1309.75 140.651 Q1309.75 151.791 1304.2 158.151 Q1298.65 164.471 1288.92 164.471 Q1279.16 164.471 1273.61 158.151 Q1268.1 151.791 1268.1 140.651 Q1268.1 129.471 1273.61 123.152 Q1279.16 116.832 1288.92 116.832 Z" fill="#000000" fill-rule="evenodd" fill-opacity="1" /><path clip-path="url(#clip130)" d="M 0 0 M1343.85 124.893 Q1342.6 124.164 1341.1 123.84 Q1339.64 123.476 1337.86 123.476 Q1331.54 123.476 1328.14 127.608 Q1324.77 131.699 1324.77 139.396 L1324.77 163.296 L1317.28 163.296 L1317.28 117.926 L1324.77 117.926 L1324.77 124.974 Q1327.12 120.843 1330.89 118.858 Q1334.66 116.832 1340.05 116.832 Q1340.82 116.832 1341.75 116.954 Q1342.68 117.035 1343.81 117.237 L1343.85 124.893 Z" fill="#000000" fill-rule="evenodd" fill-opacity="1" /><path clip-path="url(#clip130)" d="M 0 0 M1351.39 100.264 L1358.88 100.264 L1358.88 137.492 L1381.12 117.926 L1390.64 117.926 L1366.58 139.153 L1391.65 163.296 L1381.93 163.296 L1358.88 141.138 L1358.88 163.296 L1351.39 163.296 L1351.39 100.264 Z" fill="#000000" fill-rule="evenodd" fill-opacity="1" /><path clip-path="url(#clip130)" d="M 0 0 M1433.06 156.49 L1433.06 180.553 L1425.56 180.553 L1425.56 117.926 L1433.06 117.926 L1433.06 124.812 Q1435.4 120.762 1438.97 118.817 Q1442.57 116.832 1447.56 116.832 Q1455.82 116.832 1460.97 123.395 Q1466.15 129.957 1466.15 140.651 Q1466.15 151.346 1460.97 157.908 Q1455.82 164.471 1447.56 164.471 Q1442.57 164.471 1438.97 162.526 Q1435.4 160.541 1433.06 156.49 M1458.41 140.651 Q1458.41 132.428 1455.01 127.77 Q1451.65 123.071 1445.73 123.071 Q1439.82 123.071 1436.42 127.77 Q1433.06 132.428 1433.06 140.651 Q1433.06 148.875 1436.42 153.574 Q1439.82 158.232 1445.73 158.232 Q1451.65 158.232 1455.01 153.574 Q1458.41 148.875 1458.41 140.651 Z" fill="#000000" fill-rule="evenodd" fill-opacity="1" /><path clip-path="url(#clip130)" d="M 0 0 M1473.97 100.264 L1481.42 100.264 L1481.42 163.296 L1473.97 163.296 L1473.97 100.264 Z" fill="#000000" fill-rule="evenodd" fill-opacity="1" /><path clip-path="url(#clip130)" d="M 0 0 M1509.86 140.489 Q1500.83 140.489 1497.34 142.555 Q1493.86 144.621 1493.86 149.604 Q1493.86 153.574 1496.45 155.923 Q1499.08 158.232 1503.58 158.232 Q1509.78 158.232 1513.51 153.857 Q1517.27 149.442 1517.27 142.15 L1517.27 140.489 L1509.86 140.489 M1524.73 137.411 L1524.73 163.296 L1517.27 163.296 L1517.27 156.409 Q1514.72 160.541 1510.91 162.526 Q1507.11 164.471 1501.6 164.471 Q1494.63 164.471 1490.5 160.582 Q1486.41 156.653 1486.41 150.09 Q1486.41 142.434 1491.51 138.545 Q1496.65 134.656 1506.82 134.656 L1517.27 134.656 L1517.27 133.927 Q1517.27 128.782 1513.87 125.987 Q1510.51 123.152 1504.39 123.152 Q1500.5 123.152 1496.82 124.083 Q1493.13 125.015 1489.73 126.878 L1489.73 119.992 Q1493.82 118.412 1497.67 117.642 Q1501.52 116.832 1505.16 116.832 Q1515 116.832 1519.87 121.936 Q1524.73 127.04 1524.73 137.411 Z" fill="#000000" fill-rule="evenodd" fill-opacity="1" /><path clip-path="url(#clip130)" d="M 0 0 M1539.92 105.044 L1539.92 117.926 L1555.27 117.926 L1555.27 123.719 L1539.92 123.719 L1539.92 148.348 Q1539.92 153.898 1541.42 155.478 Q1542.96 157.058 1547.61 157.058 L1555.27 157.058 L1555.27 163.296 L1547.61 163.296 Q1538.99 163.296 1535.71 160.096 Q1532.42 156.855 1532.42 148.348 L1532.42 123.719 L1526.96 123.719 L1526.96 117.926 L1532.42 117.926 L1532.42 105.044 L1539.92 105.044 Z" fill="#000000" fill-rule="evenodd" fill-opacity="1" /><path clip-path="url(#clip130)" d="M 0 0 M1586.06 100.264 L1586.06 106.462 L1578.93 106.462 Q1574.92 106.462 1573.34 108.082 Q1571.8 109.703 1571.8 113.915 L1571.8 117.926 L1584.07 117.926 L1584.07 123.719 L1571.8 123.719 L1571.8 163.296 L1564.3 163.296 L1564.3 123.719 L1557.17 123.719 L1557.17 117.926 L1564.3 117.926 L1564.3 114.766 Q1564.3 107.191 1567.83 103.748 Q1571.35 100.264 1579.01 100.264 L1586.06 100.264 Z" fill="#000000" fill-rule="evenodd" fill-opacity="1" /><path clip-path="url(#clip130)" d="M 0 0 M1611.46 123.152 Q1605.46 123.152 1601.98 127.851 Q1598.49 132.509 1598.49 140.651 Q1598.49 148.794 1601.94 153.493 Q1605.42 158.151 1611.46 158.151 Q1617.41 158.151 1620.9 153.452 Q1624.38 148.753 1624.38 140.651 Q1624.38 132.59 1620.9 127.891 Q1617.41 123.152 1611.46 123.152 M1611.46 116.832 Q1621.18 116.832 1626.73 123.152 Q1632.28 129.471 1632.28 140.651 Q1632.28 151.791 1626.73 158.151 Q1621.18 164.471 1611.46 164.471 Q1601.69 164.471 1596.14 158.151 Q1590.64 151.791 1590.64 140.651 Q1590.64 129.471 1596.14 123.152 Q1601.69 116.832 1611.46 116.832 Z" fill="#000000" fill-rule="evenodd" fill-opacity="1" /><path clip-path="url(#clip130)" d="M 0 0 M1666.39 124.893 Q1665.13 124.164 1663.63 123.84 Q1662.17 123.476 1660.39 123.476 Q1654.07 123.476 1650.67 127.608 Q1647.31 131.699 1647.31 139.396 L1647.31 163.296 L1639.81 163.296 L1639.81 117.926 L1647.31 117.926 L1647.31 124.974 Q1649.66 120.843 1653.42 118.858 Q1657.19 116.832 1662.58 116.832 Q1663.35 116.832 1664.28 116.954 Q1665.21 117.035 1666.35 117.237 L1666.39 124.893 Z" fill="#000000" fill-rule="evenodd" fill-opacity="1" /><path clip-path="url(#clip130)" d="M 0 0 M1708.07 126.635 Q1710.87 121.612 1714.75 119.222 Q1718.64 116.832 1723.91 116.832 Q1731 116.832 1734.85 121.815 Q1738.7 126.757 1738.7 135.912 L1738.7 163.296 L1731.2 163.296 L1731.2 136.155 Q1731.2 129.633 1728.89 126.473 Q1726.58 123.314 1721.84 123.314 Q1716.05 123.314 1712.69 127.162 Q1709.33 131.01 1709.33 137.654 L1709.33 163.296 L1701.83 163.296 L1701.83 136.155 Q1701.83 129.592 1699.52 126.473 Q1697.21 123.314 1692.39 123.314 Q1686.68 123.314 1683.32 127.202 Q1679.96 131.051 1679.96 137.654 L1679.96 163.296 L1672.46 163.296 L1672.46 117.926 L1679.96 117.926 L1679.96 124.974 Q1682.51 120.802 1686.07 118.817 Q1689.64 116.832 1694.54 116.832 Q1699.48 116.832 1702.93 119.344 Q1706.41 121.855 1708.07 126.635 Z" fill="#000000" fill-rule="evenodd" fill-opacity="1" /><polyline clip-path="url(#clip132)" style="stroke:#009af9; stroke-width:4; stroke-opacity:1; fill:none" points="
  272.201,1387.96 292.401,1382.03 312.6,1361.31 332.8,1322.65 352.999,1279.16 373.199,1243.42 393.398,1219.27 413.598,1205.31 433.798,1198.81 453.997,1197.34 
  474.197,1199.05 494.396,1202.73 514.596,1207.54 534.795,1212.96 554.995,1218.64 575.195,1224.38 595.394,1230.04 615.594,1235.54 635.793,1240.83 655.993,1245.88 
  676.192,1250.7 696.392,1255.28 716.591,1259.62 736.791,1263.74 756.991,1267.64 777.19,1271.33 797.39,1274.83 817.589,1278.15 837.789,1281.29 857.988,1284.28 
  878.188,1287.12 898.388,1289.82 918.587,1292.39 938.787,1294.83 958.986,1297.16 979.186,1299.39 999.385,1301.51 1019.58,1303.54 1039.78,1305.49 1059.98,1307.35 
  1080.18,1309.13 1100.38,1310.83 1120.58,1312.47 1140.78,1314.05 1160.98,1315.56 1181.18,1317.01 1201.38,1318.41 1221.58,1319.76 1241.78,1321.06 1261.98,1322.31 
  1282.18,1323.51 1302.38,1324.68 1322.58,1325.8 1342.78,1326.89 1362.98,1327.94 1383.18,1328.96 1403.38,1329.94 1423.58,1330.9 1443.78,1331.82 1463.98,1332.72 
  1484.17,1333.58 1504.37,1334.43 1524.57,1335.24 1544.77,1336.04 1564.97,1336.81 1585.17,1337.56 1605.37,1338.29 1625.57,1338.99 1645.77,1339.68 1665.97,1340.35 
  1686.17,1341.01 1706.37,1341.64 1726.57,1342.26 1746.77,1342.87 1766.97,1343.45 1787.17,1344.03 1807.37,1344.59 1827.57,1345.13 1847.77,1345.67 1867.97,1346.19 
  1888.17,1346.7 1908.37,1347.19 1928.57,1347.68 1948.76,1348.15 1968.96,1348.62 1989.16,1349.07 2009.36,1349.51 2029.56,1349.95 2049.76,1350.37 2069.96,1350.79 
  2090.16,1351.19 2110.36,1351.59 2130.56,1351.98 2150.76,1352.36 2170.96,1352.74 2191.16,1353.1 2211.36,1353.46 2231.56,1353.82 2251.76,1354.16 2271.96,1354.5 
  2292.16,1354.83 
  "/>
<polyline clip-path="url(#clip132)" style="stroke:#e26f46; stroke-width:4; stroke-opacity:1; fill:none" points="
  272.201,1388.01 292.401,1383.82 312.6,1370.32 332.8,1340.41 352.999,1296.22 373.199,1248.12 393.398,1205.51 413.598,1172.68 433.798,1149.95 453.997,1135.79 
  474.197,1128.25 494.396,1125.54 514.596,1126.23 534.795,1129.24 554.995,1133.79 575.195,1139.31 595.394,1145.42 615.594,1151.84 635.793,1158.38 655.993,1164.91 
  676.192,1171.34 696.392,1177.61 716.591,1183.69 736.791,1189.57 756.991,1195.21 777.19,1200.63 797.39,1205.83 817.589,1210.8 837.789,1215.55 857.988,1220.09 
  878.188,1224.44 898.388,1228.6 918.587,1232.57 938.787,1236.37 958.986,1240.01 979.186,1243.49 999.385,1246.83 1019.58,1250.03 1039.78,1253.1 1059.98,1256.04 
  1080.18,1258.87 1100.38,1261.59 1120.58,1264.2 1140.78,1266.71 1160.98,1269.12 1181.18,1271.45 1201.38,1273.69 1221.58,1275.85 1241.78,1277.94 1261.98,1279.95 
  1282.18,1281.89 1302.38,1283.77 1322.58,1285.59 1342.78,1287.34 1362.98,1289.04 1383.18,1290.68 1403.38,1292.28 1423.58,1293.82 1443.78,1295.32 1463.98,1296.77 
  1484.17,1298.17 1504.37,1299.54 1524.57,1300.87 1544.77,1302.15 1564.97,1303.41 1585.17,1304.62 1605.37,1305.81 1625.57,1306.96 1645.77,1308.08 1665.97,1309.17 
  1686.17,1310.23 1706.37,1311.27 1726.57,1312.28 1746.77,1313.26 1766.97,1314.22 1787.17,1315.15 1807.37,1316.07 1827.57,1316.96 1847.77,1317.83 1867.97,1318.68 
  1888.17,1319.51 1908.37,1320.32 1928.57,1321.11 1948.76,1321.88 1968.96,1322.64 1989.16,1323.38 2009.36,1324.1 2029.56,1324.81 2049.76,1325.5 2069.96,1326.18 
  2090.16,1326.85 2110.36,1327.5 2130.56,1328.14 2150.76,1328.76 2170.96,1329.37 2191.16,1329.97 2211.36,1330.56 2231.56,1331.14 2251.76,1331.7 2271.96,1332.26 
  2292.16,1332.8 
  "/>
<polyline clip-path="url(#clip132)" style="stroke:#3da44d; stroke-width:4; stroke-opacity:1; fill:none" points="
  272.201,1388.07 292.401,1385.33 312.6,1378.59 332.8,1363.53 352.999,1336.25 373.199,1296.3 393.398,1247.48 413.598,1195.72 433.798,1146.4 453.997,1103.04 
  474.197,1067.24 494.396,1039.24 514.596,1018.43 534.795,1003.86 554.995,994.473 575.195,989.279 595.394,987.401 615.594,988.101 635.793,990.772 655.993,994.93 
  676.192,1000.19 696.392,1006.24 716.591,1012.84 736.791,1019.82 756.991,1027.03 777.19,1034.35 797.39,1041.7 817.589,1049.03 837.789,1056.27 857.988,1063.39 
  878.188,1070.38 898.388,1077.2 918.587,1083.86 938.787,1090.33 958.986,1096.61 979.186,1102.71 999.385,1108.62 1019.58,1114.35 1039.78,1119.89 1059.98,1125.26 
  1080.18,1130.46 1100.38,1135.48 1120.58,1140.35 1140.78,1145.05 1160.98,1149.6 1181.18,1154.01 1201.38,1158.28 1221.58,1162.41 1241.78,1166.41 1261.98,1170.28 
  1282.18,1174.03 1302.38,1177.67 1322.58,1181.2 1342.78,1184.61 1362.98,1187.93 1383.18,1191.15 1403.38,1194.27 1423.58,1197.3 1443.78,1200.25 1463.98,1203.11 
  1484.17,1205.89 1504.37,1208.59 1524.57,1211.22 1544.77,1213.78 1564.97,1216.27 1585.17,1218.69 1605.37,1221.05 1625.57,1223.34 1645.77,1225.58 1665.97,1227.76 
  1686.17,1229.88 1706.37,1231.95 1726.57,1233.97 1746.77,1235.94 1766.97,1237.86 1787.17,1239.74 1807.37,1241.57 1827.57,1243.36 1847.77,1245.11 1867.97,1246.81 
  1888.17,1248.48 1908.37,1250.11 1928.57,1251.71 1948.76,1253.26 1968.96,1254.79 1989.16,1256.28 2009.36,1257.74 2029.56,1259.17 2049.76,1260.57 2069.96,1261.94 
  2090.16,1263.28 2110.36,1264.59 2130.56,1265.88 2150.76,1267.14 2170.96,1268.38 2191.16,1269.59 2211.36,1270.78 2231.56,1271.95 2251.76,1273.09 2271.96,1274.21 
  2292.16,1275.31 
  "/>
<polyline clip-path="url(#clip132)" style="stroke:#c271d2; stroke-width:4; stroke-opacity:1; fill:none" points="
  272.201,1388.11 292.401,1386.14 312.6,1382.8 332.8,1376.87 352.999,1366.74 373.199,1350.63 393.398,1327.07 413.598,1295.49 433.798,1256.47 453.997,1211.59 
  474.197,1163.07 494.396,1113.26 514.596,1064.28 534.795,1017.82 554.995,975.071 575.195,936.73 595.394,903.123 615.594,874.278 635.793,850.018 655.993,830.042 
  676.192,813.977 696.392,801.42 716.591,791.967 736.791,785.231 756.991,780.851 777.19,778.498 797.39,777.878 817.589,778.729 837.789,780.822 857.988,783.957 
  878.188,787.959 898.388,792.679 918.587,797.986 938.787,803.77 958.986,809.936 979.186,816.402 999.385,823.1 1019.58,829.969 1039.78,836.962 1059.98,844.034 
  1080.18,851.15 1100.38,858.28 1120.58,865.399 1140.78,872.486 1160.98,879.522 1181.18,886.494 1201.38,893.39 1221.58,900.199 1241.78,906.914 1261.98,913.528 
  1282.18,920.037 1302.38,926.437 1322.58,932.726 1342.78,938.901 1362.98,944.961 1383.18,950.906 1403.38,956.735 1423.58,962.45 1443.78,968.051 1463.98,973.539 
  1484.17,978.916 1504.37,984.182 1524.57,989.34 1544.77,994.392 1564.97,999.339 1585.17,1004.18 1605.37,1008.93 1625.57,1013.57 1645.77,1018.12 1665.97,1022.58 
  1686.17,1026.94 1706.37,1031.21 1726.57,1035.4 1746.77,1039.5 1766.97,1043.51 1787.17,1047.45 1807.37,1051.3 1827.57,1055.08 1847.77,1058.78 1867.97,1062.41 
  1888.17,1065.97 1908.37,1069.45 1928.57,1072.87 1948.76,1076.22 1968.96,1079.51 1989.16,1082.73 2009.36,1085.9 2029.56,1089 2049.76,1092.04 2069.96,1095.03 
  2090.16,1097.96 2110.36,1100.84 2130.56,1103.66 2150.76,1106.43 2170.96,1109.16 2191.16,1111.83 2211.36,1114.46 2231.56,1117.04 2251.76,1119.57 2271.96,1122.06 
  2292.16,1124.51 
  "/>
<polyline clip-path="url(#clip132)" style="stroke:#ac8d18; stroke-width:4; stroke-opacity:1; fill:none" points="
  272.201,1385.83 292.401,1386.32 312.6,1383.7 332.8,1379.64 352.999,1373.37 373.199,1363.88 393.398,1350.05 413.598,1330.85 433.798,1305.53 453.997,1273.82 
  474.197,1236.01 494.396,1192.9 514.596,1145.65 534.795,1095.68 554.995,1044.43 575.195,993.248 595.394,943.303 615.594,895.538 635.793,850.659 655.993,809.144 
  676.192,771.279 696.392,737.188 716.591,706.869 736.791,680.224 756.991,657.092 777.19,637.266 797.39,620.514 817.589,606.589 837.789,595.247 857.988,586.244 
  878.188,579.35 898.388,574.344 918.587,571.025 938.787,569.202 958.986,568.705 979.186,569.376 999.385,571.073 1019.58,573.669 1039.78,577.048 1059.98,581.107 
  1080.18,585.754 1100.38,590.908 1120.58,596.494 1140.78,602.448 1160.98,608.712 1181.18,615.235 1201.38,621.971 1221.58,628.882 1241.78,635.931 1261.98,643.087 
  1282.18,650.322 1302.38,657.614 1322.58,664.939 1342.78,672.281 1362.98,679.622 1383.18,686.949 1403.38,694.248 1423.58,701.51 1443.78,708.726 1463.98,715.886 
  1484.17,722.984 1504.37,730.014 1524.57,736.972 1544.77,743.853 1564.97,750.654 1585.17,757.371 1605.37,764.003 1625.57,770.547 1645.77,777.003 1665.97,783.369 
  1686.17,789.644 1706.37,795.829 1726.57,801.922 1746.77,807.924 1766.97,813.836 1787.17,819.657 1807.37,825.389 1827.57,831.031 1847.77,836.585 1867.97,842.052 
  1888.17,847.433 1908.37,852.728 1928.57,857.939 1948.76,863.068 1968.96,868.114 1989.16,873.08 2009.36,877.967 2029.56,882.775 2049.76,887.507 2069.96,892.164 
  2090.16,896.746 2110.36,901.256 2130.56,905.694 2150.76,910.062 2170.96,914.36 2191.16,918.592 2211.36,922.757 2231.56,926.856 2251.76,930.892 2271.96,934.865 
  2292.16,938.777 
  "/>
<polyline clip-path="url(#clip132)" style="stroke:#00a9ad; stroke-width:4; stroke-opacity:1; fill:none" points="
  272.201,1384.55 292.401,1386.15 312.6,1384.49 332.8,1381.96 352.999,1378.75 373.199,1374.58 393.398,1369.15 413.598,1362.08 433.798,1352.98 453.997,1341.44 
  474.197,1327.07 494.396,1309.5 514.596,1288.48 534.795,1263.83 554.995,1235.53 575.195,1203.64 595.394,1168.39 615.594,1130.11 635.793,1089.19 655.993,1046.13 
  676.192,1001.44 696.392,955.644 716.591,909.269 736.791,862.807 756.991,816.712 777.19,771.389 797.39,727.19 817.589,684.411 837.789,643.292 857.988,604.023 
  878.188,566.745 898.388,531.556 918.587,498.515 938.787,467.649 958.986,438.958 979.186,412.416 999.385,387.982 1019.58,365.597 1039.78,345.193 1059.98,326.692 
  1080.18,310.009 1100.38,295.058 1120.58,281.748 1140.78,269.99 1160.98,259.693 1181.18,250.769 1201.38,243.132 1221.58,236.698 1241.78,231.386 1261.98,227.12 
  1282.18,223.826 1302.38,221.434 1322.58,219.877 1342.78,219.094 1362.98,219.025 1383.18,219.614 1403.38,220.811 1423.58,222.565 1443.78,224.832 1463.98,227.568 
  1484.17,230.735 1504.37,234.294 1524.57,238.212 1544.77,242.457 1564.97,246.998 1585.17,251.809 1605.37,256.862 1625.57,262.135 1645.77,267.605 1665.97,273.251 
  1686.17,279.056 1706.37,285 1726.57,291.069 1746.77,297.246 1766.97,303.518 1787.17,309.872 1807.37,316.297 1827.57,322.781 1847.77,329.314 1867.97,335.887 
  1888.17,342.491 1908.37,349.119 1928.57,355.763 1948.76,362.417 1968.96,369.074 1989.16,375.729 2009.36,382.376 2029.56,389.012 2049.76,395.631 2069.96,402.229 
  2090.16,408.804 2110.36,415.351 2130.56,421.868 2150.76,428.352 2170.96,434.8 2191.16,441.211 2211.36,447.582 2231.56,453.912 2251.76,460.198 2271.96,466.44 
  2292.16,472.636 
  "/>
<path clip-path="url(#clip130)" d="
M282.974 648.62 L552.547 648.62 L552.547 225.26 L282.974 225.26  Z
  " fill="#ffffff" fill-rule="evenodd" fill-opacity="1"/>
<polyline clip-path="url(#clip130)" style="stroke:#000000; stroke-width:4; stroke-opacity:1; fill:none" points="
  282.974,648.62 552.547,648.62 552.547,225.26 282.974,225.26 282.974,648.62 
  "/>
<polyline clip-path="url(#clip130)" style="stroke:#009af9; stroke-width:4; stroke-opacity:1; fill:none" points="
  306.765,285.74 449.508,285.74 
  "/>
<path clip-path="url(#clip130)" d="M 0 0 M489.132 273.066 L482.79 290.265 L495.498 290.265 L489.132 273.066 M486.493 268.46 L491.794 268.46 L504.965 303.02 L500.104 303.02 L496.956 294.154 L481.378 294.154 L478.229 303.02 L473.299 303.02 L486.493 268.46 Z" fill="#000000" fill-rule="evenodd" fill-opacity="1" /><polyline clip-path="url(#clip130)" style="stroke:#e26f46; stroke-width:4; stroke-opacity:1; fill:none" points="
  306.765,346.22 449.508,346.22 
  "/>
<path clip-path="url(#clip130)" d="M 0 0 M477.975 346.995 L477.975 359.657 L485.475 359.657 Q489.248 359.657 491.053 358.106 Q492.882 356.532 492.882 353.315 Q492.882 350.074 491.053 348.546 Q489.248 346.995 485.475 346.995 L477.975 346.995 M477.975 332.782 L477.975 343.199 L484.896 343.199 Q488.322 343.199 489.989 341.926 Q491.678 340.629 491.678 337.991 Q491.678 335.375 489.989 334.079 Q488.322 332.782 484.896 332.782 L477.975 332.782 M473.299 328.94 L485.243 328.94 Q490.591 328.94 493.484 331.162 Q496.378 333.384 496.378 337.481 Q496.378 340.653 494.896 342.528 Q493.415 344.403 490.544 344.866 Q493.993 345.606 495.891 347.967 Q497.813 350.305 497.813 353.824 Q497.813 358.453 494.665 360.977 Q491.516 363.5 485.706 363.5 L473.299 363.5 L473.299 328.94 Z" fill="#000000" fill-rule="evenodd" fill-opacity="1" /><polyline clip-path="url(#clip130)" style="stroke:#3da44d; stroke-width:4; stroke-opacity:1; fill:none" points="
  306.765,406.7 449.508,406.7 
  "/>
<path clip-path="url(#clip130)" d="M 0 0 M501.169 392.082 L501.169 397.012 Q498.808 394.813 496.123 393.725 Q493.461 392.637 490.452 392.637 Q484.526 392.637 481.378 396.272 Q478.229 399.883 478.229 406.734 Q478.229 413.563 481.378 417.197 Q484.526 420.808 490.452 420.808 Q493.461 420.808 496.123 419.72 Q498.808 418.633 501.169 416.433 L501.169 421.318 Q498.715 422.984 495.961 423.818 Q493.229 424.651 490.174 424.651 Q482.327 424.651 477.813 419.859 Q473.299 415.045 473.299 406.734 Q473.299 398.401 477.813 393.61 Q482.327 388.795 490.174 388.795 Q493.276 388.795 496.007 389.628 Q498.762 390.438 501.169 392.082 Z" fill="#000000" fill-rule="evenodd" fill-opacity="1" /><polyline clip-path="url(#clip130)" style="stroke:#c271d2; stroke-width:4; stroke-opacity:1; fill:none" points="
  306.765,467.18 449.508,467.18 
  "/>
<path clip-path="url(#clip130)" d="M 0 0 M477.975 453.742 L477.975 480.617 L483.623 480.617 Q490.776 480.617 494.086 477.376 Q497.419 474.136 497.419 467.145 Q497.419 460.201 494.086 456.983 Q490.776 453.742 483.623 453.742 L477.975 453.742 M473.299 449.9 L482.905 449.9 Q492.952 449.9 497.651 454.09 Q502.35 458.256 502.35 467.145 Q502.35 476.08 497.628 480.27 Q492.905 484.46 482.905 484.46 L473.299 484.46 L473.299 449.9 Z" fill="#000000" fill-rule="evenodd" fill-opacity="1" /><polyline clip-path="url(#clip130)" style="stroke:#ac8d18; stroke-width:4; stroke-opacity:1; fill:none" points="
  306.765,527.66 449.508,527.66 
  "/>
<path clip-path="url(#clip130)" d="M 0 0 M473.299 510.38 L495.151 510.38 L495.151 514.315 L477.975 514.315 L477.975 524.546 L494.433 524.546 L494.433 528.481 L477.975 528.481 L477.975 541.005 L495.567 541.005 L495.567 544.94 L473.299 544.94 L473.299 510.38 Z" fill="#000000" fill-rule="evenodd" fill-opacity="1" /><polyline clip-path="url(#clip130)" style="stroke:#00a9ad; stroke-width:4; stroke-opacity:1; fill:none" points="
  306.765,588.14 449.508,588.14 
  "/>
<path clip-path="url(#clip130)" d="M 0 0 M473.299 570.86 L493.16 570.86 L493.16 574.795 L477.975 574.795 L477.975 584.98 L491.678 584.98 L491.678 588.915 L477.975 588.915 L477.975 605.42 L473.299 605.42 L473.299 570.86 Z" fill="#000000" fill-rule="evenodd" fill-opacity="1" /></svg>
