<?xml version="1.0" encoding="utf-8"?>
<svg xmlns="http://www.w3.org/2000/svg" xmlns:xlink="http://www.w3.org/1999/xlink" width="600" height="400" viewBox="0 0 2400 1600">
<defs>
  <clipPath id="clip800">
    <rect x="0" y="0" width="2400" height="1600"/>
  </clipPath>
</defs>
<path clip-path="url(#clip800)" d="M0 1600 L2400 1600 L2400 0 L0 0  Z" fill="#ffffff" fill-rule="evenodd" fill-opacity="1"/>
<defs>
  <clipPath id="clip801">
    <rect x="480" y="0" width="1681" height="1600"/>
  </clipPath>
</defs>
<path clip-path="url(#clip800)" d="M251.669 1423.18 L2352.76 1423.18 L2352.76 123.472 L251.669 123.472  Z" fill="#ffffff" fill-rule="evenodd" fill-opacity="1"/>
<defs>
  <clipPath id="clip802">
    <rect x="251" y="123" width="2102" height="1301"/>
  </clipPath>
</defs>
<polyline clip-path="url(#clip802)" style="stroke:#000000; stroke-linecap:round; stroke-linejoin:round; stroke-width:2; stroke-opacity:0.1; fill:none" points="251.669,1423.18 251.669,123.472 "/>
<polyline clip-path="url(#clip802)" style="stroke:#000000; stroke-linecap:round; stroke-linejoin:round; stroke-width:2; stroke-opacity:0.1; fill:none" points="601.85,1423.18 601.85,123.472 "/>
<polyline clip-path="url(#clip802)" style="stroke:#000000; stroke-linecap:round; stroke-linejoin:round; stroke-width:2; stroke-opacity:0.1; fill:none" points="952.031,1423.18 952.031,123.472 "/>
<polyline clip-path="url(#clip802)" style="stroke:#000000; stroke-linecap:round; stroke-linejoin:round; stroke-width:2; stroke-opacity:0.1; fill:none" points="1302.21,1423.18 1302.21,123.472 "/>
<polyline clip-path="url(#clip802)" style="stroke:#000000; stroke-linecap:round; stroke-linejoin:round; stroke-width:2; stroke-opacity:0.1; fill:none" points="1652.39,1423.18 1652.39,123.472 "/>
<polyline clip-path="url(#clip802)" style="stroke:#000000; stroke-linecap:round; stroke-linejoin:round; stroke-width:2; stroke-opacity:0.1; fill:none" points="2002.57,1423.18 2002.57,123.472 "/>
<polyline clip-path="url(#clip802)" style="stroke:#000000; stroke-linecap:round; stroke-linejoin:round; stroke-width:2; stroke-opacity:0.1; fill:none" points="2352.76,1423.18 2352.76,123.472 "/>
<polyline clip-path="url(#clip800)" style="stroke:#000000; stroke-linecap:round; stroke-linejoin:round; stroke-width:4; stroke-opacity:1; fill:none" points="251.669,1423.18 2352.76,1423.18 "/>
<polyline clip-path="url(#clip800)" style="stroke:#000000; stroke-linecap:round; stroke-linejoin:round; stroke-width:4; stroke-opacity:1; fill:none" points="251.669,1423.18 251.669,1404.28 "/>
<polyline clip-path="url(#clip800)" style="stroke:#000000; stroke-linecap:round; stroke-linejoin:round; stroke-width:4; stroke-opacity:1; fill:none" points="601.85,1423.18 601.85,1404.28 "/>
<polyline clip-path="url(#clip800)" style="stroke:#000000; stroke-linecap:round; stroke-linejoin:round; stroke-width:4; stroke-opacity:1; fill:none" points="952.031,1423.18 952.031,1404.28 "/>
<polyline clip-path="url(#clip800)" style="stroke:#000000; stroke-linecap:round; stroke-linejoin:round; stroke-width:4; stroke-opacity:1; fill:none" points="1302.21,1423.18 1302.21,1404.28 "/>
<polyline clip-path="url(#clip800)" style="stroke:#000000; stroke-linecap:round; stroke-linejoin:round; stroke-width:4; stroke-opacity:1; fill:none" points="1652.39,1423.18 1652.39,1404.28 "/>
<polyline clip-path="url(#clip800)" style="stroke:#000000; stroke-linecap:round; stroke-linejoin:round; stroke-width:4; stroke-opacity:1; fill:none" points="2002.57,1423.18 2002.57,1404.28 "/>
<polyline clip-path="url(#clip800)" style="stroke:#000000; stroke-linecap:round; stroke-linejoin:round; stroke-width:4; stroke-opacity:1; fill:none" points="2352.76,1423.18 2352.76,1404.28 "/>
<path clip-path="url(#clip800)" d="M198.891 1454.1 Q195.28 1454.1 193.451 1457.66 Q191.646 1461.2 191.646 1468.33 Q191.646 1475.44 193.451 1479.01 Q195.28 1482.55 198.891 1482.55 Q202.525 1482.55 204.331 1479.01 Q206.159 1475.44 206.159 1468.33 Q206.159 1461.2 204.331 1457.66 Q202.525 1454.1 198.891 1454.1 M198.891 1450.39 Q204.701 1450.39 207.757 1455 Q210.835 1459.58 210.835 1468.33 Q210.835 1477.06 207.757 1481.67 Q204.701 1486.25 198.891 1486.25 Q193.081 1486.25 190.002 1481.67 Q186.947 1477.06 186.947 1468.33 Q186.947 1459.58 190.002 1455 Q193.081 1450.39 198.891 1450.39 Z" fill="#000000" fill-rule="nonzero" fill-opacity="1" /><path clip-path="url(#clip800)" d="M219.053 1479.7 L223.937 1479.7 L223.937 1485.58 L219.053 1485.58 L219.053 1479.7 Z" fill="#000000" fill-rule="nonzero" fill-opacity="1" /><path clip-path="url(#clip800)" d="M244.122 1454.1 Q240.511 1454.1 238.682 1457.66 Q236.877 1461.2 236.877 1468.33 Q236.877 1475.44 238.682 1479.01 Q240.511 1482.55 244.122 1482.55 Q247.756 1482.55 249.562 1479.01 Q251.391 1475.44 251.391 1468.33 Q251.391 1461.2 249.562 1457.66 Q247.756 1454.1 244.122 1454.1 M244.122 1450.39 Q249.932 1450.39 252.988 1455 Q256.067 1459.58 256.067 1468.33 Q256.067 1477.06 252.988 1481.67 Q249.932 1486.25 244.122 1486.25 Q238.312 1486.25 235.233 1481.67 Q232.178 1477.06 232.178 1468.33 Q232.178 1459.58 235.233 1455 Q238.312 1450.39 244.122 1450.39 Z" fill="#000000" fill-rule="nonzero" fill-opacity="1" /><path clip-path="url(#clip800)" d="M274.284 1454.1 Q270.673 1454.1 268.844 1457.66 Q267.039 1461.2 267.039 1468.33 Q267.039 1475.44 268.844 1479.01 Q270.673 1482.55 274.284 1482.55 Q277.918 1482.55 279.724 1479.01 Q281.553 1475.44 281.553 1468.33 Q281.553 1461.2 279.724 1457.66 Q277.918 1454.1 274.284 1454.1 M274.284 1450.39 Q280.094 1450.39 283.15 1455 Q286.229 1459.58 286.229 1468.33 Q286.229 1477.06 283.15 1481.67 Q280.094 1486.25 274.284 1486.25 Q268.474 1486.25 265.395 1481.67 Q262.34 1477.06 262.34 1468.33 Q262.34 1459.58 265.395 1455 Q268.474 1450.39 274.284 1450.39 Z" fill="#000000" fill-rule="nonzero" fill-opacity="1" /><path clip-path="url(#clip800)" d="M304.446 1454.1 Q300.835 1454.1 299.006 1457.66 Q297.201 1461.2 297.201 1468.33 Q297.201 1475.44 299.006 1479.01 Q300.835 1482.55 304.446 1482.55 Q308.08 1482.55 309.886 1479.01 Q311.714 1475.44 311.714 1468.33 Q311.714 1461.2 309.886 1457.66 Q308.08 1454.1 304.446 1454.1 M304.446 1450.39 Q310.256 1450.39 313.312 1455 Q316.39 1459.58 316.39 1468.33 Q316.39 1477.06 313.312 1481.67 Q310.256 1486.25 304.446 1486.25 Q298.636 1486.25 295.557 1481.67 Q292.502 1477.06 292.502 1468.33 Q292.502 1459.58 295.557 1455 Q298.636 1450.39 304.446 1450.39 Z" fill="#000000" fill-rule="nonzero" fill-opacity="1" /><path clip-path="url(#clip800)" d="M549.57 1454.1 Q545.959 1454.1 544.13 1457.66 Q542.325 1461.2 542.325 1468.33 Q542.325 1475.44 544.13 1479.01 Q545.959 1482.55 549.57 1482.55 Q553.204 1482.55 555.01 1479.01 Q556.838 1475.44 556.838 1468.33 Q556.838 1461.2 555.01 1457.66 Q553.204 1454.1 549.57 1454.1 M549.57 1450.39 Q555.38 1450.39 558.436 1455 Q561.514 1459.58 561.514 1468.33 Q561.514 1477.06 558.436 1481.67 Q555.38 1486.25 549.57 1486.25 Q543.76 1486.25 540.681 1481.67 Q537.626 1477.06 537.626 1468.33 Q537.626 1459.58 540.681 1455 Q543.76 1450.39 549.57 1450.39 Z" fill="#000000" fill-rule="nonzero" fill-opacity="1" /><path clip-path="url(#clip800)" d="M569.732 1479.7 L574.616 1479.7 L574.616 1485.58 L569.732 1485.58 L569.732 1479.7 Z" fill="#000000" fill-rule="nonzero" fill-opacity="1" /><path clip-path="url(#clip800)" d="M594.801 1454.1 Q591.19 1454.1 589.361 1457.66 Q587.556 1461.2 587.556 1468.33 Q587.556 1475.44 589.361 1479.01 Q591.19 1482.55 594.801 1482.55 Q598.435 1482.55 600.241 1479.01 Q602.07 1475.44 602.07 1468.33 Q602.07 1461.2 600.241 1457.66 Q598.435 1454.1 594.801 1454.1 M594.801 1450.39 Q600.611 1450.39 603.667 1455 Q606.746 1459.58 606.746 1468.33 Q606.746 1477.06 603.667 1481.67 Q600.611 1486.25 594.801 1486.25 Q588.991 1486.25 585.912 1481.67 Q582.857 1477.06 582.857 1468.33 Q582.857 1459.58 585.912 1455 Q588.991 1450.39 594.801 1450.39 Z" fill="#000000" fill-rule="nonzero" fill-opacity="1" /><path clip-path="url(#clip800)" d="M624.963 1454.1 Q621.352 1454.1 619.523 1457.66 Q617.718 1461.2 617.718 1468.33 Q617.718 1475.44 619.523 1479.01 Q621.352 1482.55 624.963 1482.55 Q628.597 1482.55 630.403 1479.01 Q632.232 1475.44 632.232 1468.33 Q632.232 1461.2 630.403 1457.66 Q628.597 1454.1 624.963 1454.1 M624.963 1450.39 Q630.773 1450.39 633.829 1455 Q636.907 1459.58 636.907 1468.33 Q636.907 1477.06 633.829 1481.67 Q630.773 1486.25 624.963 1486.25 Q619.153 1486.25 616.074 1481.67 Q613.019 1477.06 613.019 1468.33 Q613.019 1459.58 616.074 1455 Q619.153 1450.39 624.963 1450.39 Z" fill="#000000" fill-rule="nonzero" fill-opacity="1" /><path clip-path="url(#clip800)" d="M645.171 1451.02 L663.528 1451.02 L663.528 1454.96 L649.454 1454.96 L649.454 1463.43 Q650.472 1463.08 651.491 1462.92 Q652.509 1462.73 653.528 1462.73 Q659.315 1462.73 662.694 1465.9 Q666.074 1469.08 666.074 1474.49 Q666.074 1480.07 662.602 1483.17 Q659.13 1486.25 652.81 1486.25 Q650.634 1486.25 648.366 1485.88 Q646.12 1485.51 643.713 1484.77 L643.713 1480.07 Q645.796 1481.2 648.018 1481.76 Q650.241 1482.32 652.718 1482.32 Q656.722 1482.32 659.06 1480.21 Q661.398 1478.1 661.398 1474.49 Q661.398 1470.88 659.06 1468.77 Q656.722 1466.67 652.718 1466.67 Q650.843 1466.67 648.968 1467.08 Q647.116 1467.5 645.171 1468.38 L645.171 1451.02 Z" fill="#000000" fill-rule="nonzero" fill-opacity="1" /><path clip-path="url(#clip800)" d="M899.253 1454.1 Q895.642 1454.1 893.814 1457.66 Q892.008 1461.2 892.008 1468.33 Q892.008 1475.44 893.814 1479.01 Q895.642 1482.55 899.253 1482.55 Q902.888 1482.55 904.693 1479.01 Q906.522 1475.44 906.522 1468.33 Q906.522 1461.2 904.693 1457.66 Q902.888 1454.1 899.253 1454.1 M899.253 1450.39 Q905.064 1450.39 908.119 1455 Q911.198 1459.58 911.198 1468.33 Q911.198 1477.06 908.119 1481.67 Q905.064 1486.25 899.253 1486.25 Q893.443 1486.25 890.365 1481.67 Q887.309 1477.06 887.309 1468.33 Q887.309 1459.58 890.365 1455 Q893.443 1450.39 899.253 1450.39 Z" fill="#000000" fill-rule="nonzero" fill-opacity="1" /><path clip-path="url(#clip800)" d="M919.415 1479.7 L924.3 1479.7 L924.3 1485.58 L919.415 1485.58 L919.415 1479.7 Z" fill="#000000" fill-rule="nonzero" fill-opacity="1" /><path clip-path="url(#clip800)" d="M944.485 1454.1 Q940.874 1454.1 939.045 1457.66 Q937.239 1461.2 937.239 1468.33 Q937.239 1475.44 939.045 1479.01 Q940.874 1482.55 944.485 1482.55 Q948.119 1482.55 949.924 1479.01 Q951.753 1475.44 951.753 1468.33 Q951.753 1461.2 949.924 1457.66 Q948.119 1454.1 944.485 1454.1 M944.485 1450.39 Q950.295 1450.39 953.35 1455 Q956.429 1459.58 956.429 1468.33 Q956.429 1477.06 953.35 1481.67 Q950.295 1486.25 944.485 1486.25 Q938.675 1486.25 935.596 1481.67 Q932.54 1477.06 932.54 1468.33 Q932.54 1459.58 935.596 1455 Q938.675 1450.39 944.485 1450.39 Z" fill="#000000" fill-rule="nonzero" fill-opacity="1" /><path clip-path="url(#clip800)" d="M965.457 1481.64 L973.096 1481.64 L973.096 1455.28 L964.786 1456.95 L964.786 1452.69 L973.049 1451.02 L977.725 1451.02 L977.725 1481.64 L985.364 1481.64 L985.364 1485.58 L965.457 1485.58 L965.457 1481.64 Z" fill="#000000" fill-rule="nonzero" fill-opacity="1" /><path clip-path="url(#clip800)" d="M1004.81 1454.1 Q1001.2 1454.1 999.369 1457.66 Q997.563 1461.2 997.563 1468.33 Q997.563 1475.44 999.369 1479.01 Q1001.2 1482.55 1004.81 1482.55 Q1008.44 1482.55 1010.25 1479.01 Q1012.08 1475.44 1012.08 1468.33 Q1012.08 1461.2 1010.25 1457.66 Q1008.44 1454.1 1004.81 1454.1 M1004.81 1450.39 Q1010.62 1450.39 1013.67 1455 Q1016.75 1459.58 1016.75 1468.33 Q1016.75 1477.06 1013.67 1481.67 Q1010.62 1486.25 1004.81 1486.25 Q998.998 1486.25 995.92 1481.67 Q992.864 1477.06 992.864 1468.33 Q992.864 1459.58 995.92 1455 Q998.998 1450.39 1004.81 1450.39 Z" fill="#000000" fill-rule="nonzero" fill-opacity="1" /><path clip-path="url(#clip800)" d="M1249.93 1454.1 Q1246.32 1454.1 1244.49 1457.66 Q1242.69 1461.2 1242.69 1468.33 Q1242.69 1475.44 1244.49 1479.01 Q1246.32 1482.55 1249.93 1482.55 Q1253.57 1482.55 1255.37 1479.01 Q1257.2 1475.44 1257.2 1468.33 Q1257.2 1461.2 1255.37 1457.66 Q1253.57 1454.1 1249.93 1454.1 M1249.93 1450.39 Q1255.74 1450.39 1258.8 1455 Q1261.88 1459.58 1261.88 1468.33 Q1261.88 1477.06 1258.8 1481.67 Q1255.74 1486.25 1249.93 1486.25 Q1244.12 1486.25 1241.04 1481.67 Q1237.99 1477.06 1237.99 1468.33 Q1237.99 1459.58 1241.04 1455 Q1244.12 1450.39 1249.93 1450.39 Z" fill="#000000" fill-rule="nonzero" fill-opacity="1" /><path clip-path="url(#clip800)" d="M1270.09 1479.7 L1274.98 1479.7 L1274.98 1485.58 L1270.09 1485.58 L1270.09 1479.7 Z" fill="#000000" fill-rule="nonzero" fill-opacity="1" /><path clip-path="url(#clip800)" d="M1295.16 1454.1 Q1291.55 1454.1 1289.72 1457.66 Q1287.92 1461.2 1287.92 1468.33 Q1287.92 1475.44 1289.72 1479.01 Q1291.55 1482.55 1295.16 1482.55 Q1298.8 1482.55 1300.6 1479.01 Q1302.43 1475.44 1302.43 1468.33 Q1302.43 1461.2 1300.6 1457.66 Q1298.8 1454.1 1295.16 1454.1 M1295.16 1450.39 Q1300.97 1450.39 1304.03 1455 Q1307.11 1459.58 1307.11 1468.33 Q1307.11 1477.06 1304.03 1481.67 Q1300.97 1486.25 1295.16 1486.25 Q1289.35 1486.25 1286.27 1481.67 Q1283.22 1477.06 1283.22 1468.33 Q1283.22 1459.58 1286.27 1455 Q1289.35 1450.39 1295.16 1450.39 Z" fill="#000000" fill-rule="nonzero" fill-opacity="1" /><path clip-path="url(#clip800)" d="M1316.14 1481.64 L1323.77 1481.64 L1323.77 1455.28 L1315.46 1456.95 L1315.46 1452.69 L1323.73 1451.02 L1328.4 1451.02 L1328.4 1481.64 L1336.04 1481.64 L1336.04 1485.58 L1316.14 1485.58 L1316.14 1481.64 Z" fill="#000000" fill-rule="nonzero" fill-opacity="1" /><path clip-path="url(#clip800)" d="M1345.53 1451.02 L1363.89 1451.02 L1363.89 1454.96 L1349.82 1454.96 L1349.82 1463.43 Q1350.83 1463.08 1351.85 1462.92 Q1352.87 1462.73 1353.89 1462.73 Q1359.68 1462.73 1363.06 1465.9 Q1366.44 1469.08 1366.44 1474.49 Q1366.44 1480.07 1362.96 1483.17 Q1359.49 1486.25 1353.17 1486.25 Q1351 1486.25 1348.73 1485.88 Q1346.48 1485.51 1344.08 1484.77 L1344.08 1480.07 Q1346.16 1481.2 1348.38 1481.76 Q1350.6 1482.32 1353.08 1482.32 Q1357.08 1482.32 1359.42 1480.21 Q1361.76 1478.1 1361.76 1474.49 Q1361.76 1470.88 1359.42 1468.77 Q1357.08 1466.67 1353.08 1466.67 Q1351.2 1466.67 1349.33 1467.08 Q1347.48 1467.5 1345.53 1468.38 L1345.53 1451.02 Z" fill="#000000" fill-rule="nonzero" fill-opacity="1" /><path clip-path="url(#clip800)" d="M1599.62 1454.1 Q1596 1454.1 1594.18 1457.66 Q1592.37 1461.2 1592.37 1468.33 Q1592.37 1475.44 1594.18 1479.01 Q1596 1482.55 1599.62 1482.55 Q1603.25 1482.55 1605.06 1479.01 Q1606.88 1475.44 1606.88 1468.33 Q1606.88 1461.2 1605.06 1457.66 Q1603.25 1454.1 1599.62 1454.1 M1599.62 1450.39 Q1605.43 1450.39 1608.48 1455 Q1611.56 1459.58 1611.56 1468.33 Q1611.56 1477.06 1608.48 1481.67 Q1605.43 1486.25 1599.62 1486.25 Q1593.81 1486.25 1590.73 1481.67 Q1587.67 1477.06 1587.67 1468.33 Q1587.67 1459.58 1590.73 1455 Q1593.81 1450.39 1599.62 1450.39 Z" fill="#000000" fill-rule="nonzero" fill-opacity="1" /><path clip-path="url(#clip800)" d="M1619.78 1479.7 L1624.66 1479.7 L1624.66 1485.58 L1619.78 1485.58 L1619.78 1479.7 Z" fill="#000000" fill-rule="nonzero" fill-opacity="1" /><path clip-path="url(#clip800)" d="M1644.85 1454.1 Q1641.24 1454.1 1639.41 1457.66 Q1637.6 1461.2 1637.6 1468.33 Q1637.6 1475.44 1639.41 1479.01 Q1641.24 1482.55 1644.85 1482.55 Q1648.48 1482.55 1650.29 1479.01 Q1652.12 1475.44 1652.12 1468.33 Q1652.12 1461.2 1650.29 1457.66 Q1648.48 1454.1 1644.85 1454.1 M1644.85 1450.39 Q1650.66 1450.39 1653.71 1455 Q1656.79 1459.58 1656.79 1468.33 Q1656.79 1477.06 1653.71 1481.67 Q1650.66 1486.25 1644.85 1486.25 Q1639.04 1486.25 1635.96 1481.67 Q1632.9 1477.06 1632.9 1468.33 Q1632.9 1459.58 1635.96 1455 Q1639.04 1450.39 1644.85 1450.39 Z" fill="#000000" fill-rule="nonzero" fill-opacity="1" /><path clip-path="url(#clip800)" d="M1669.04 1481.64 L1685.36 1481.64 L1685.36 1485.58 L1663.41 1485.58 L1663.41 1481.64 Q1666.07 1478.89 1670.66 1474.26 Q1675.26 1469.61 1676.44 1468.27 Q1678.69 1465.74 1679.57 1464.01 Q1680.47 1462.25 1680.47 1460.56 Q1680.47 1457.8 1678.53 1456.07 Q1676.61 1454.33 1673.5 1454.33 Q1671.31 1454.33 1668.85 1455.09 Q1666.42 1455.86 1663.64 1457.41 L1663.64 1452.69 Q1666.47 1451.55 1668.92 1450.97 Q1671.37 1450.39 1673.41 1450.39 Q1678.78 1450.39 1681.98 1453.08 Q1685.17 1455.77 1685.17 1460.26 Q1685.17 1462.39 1684.36 1464.31 Q1683.57 1466.2 1681.47 1468.8 Q1680.89 1469.47 1677.79 1472.69 Q1674.68 1475.88 1669.04 1481.64 Z" fill="#000000" fill-rule="nonzero" fill-opacity="1" /><path clip-path="url(#clip800)" d="M1705.17 1454.1 Q1701.56 1454.1 1699.73 1457.66 Q1697.93 1461.2 1697.93 1468.33 Q1697.93 1475.44 1699.73 1479.01 Q1701.56 1482.55 1705.17 1482.55 Q1708.81 1482.55 1710.61 1479.01 Q1712.44 1475.44 1712.44 1468.33 Q1712.44 1461.2 1710.61 1457.66 Q1708.81 1454.1 1705.17 1454.1 M1705.17 1450.39 Q1710.98 1450.39 1714.04 1455 Q1717.12 1459.58 1717.12 1468.33 Q1717.12 1477.06 1714.04 1481.67 Q1710.98 1486.25 1705.17 1486.25 Q1699.36 1486.25 1696.28 1481.67 Q1693.23 1477.06 1693.23 1468.33 Q1693.23 1459.58 1696.28 1455 Q1699.36 1450.39 1705.17 1450.39 Z" fill="#000000" fill-rule="nonzero" fill-opacity="1" /><path clip-path="url(#clip800)" d="M1950.29 1454.1 Q1946.68 1454.1 1944.86 1457.66 Q1943.05 1461.2 1943.05 1468.33 Q1943.05 1475.44 1944.86 1479.01 Q1946.68 1482.55 1950.29 1482.55 Q1953.93 1482.55 1955.73 1479.01 Q1957.56 1475.44 1957.56 1468.33 Q1957.56 1461.2 1955.73 1457.66 Q1953.93 1454.1 1950.29 1454.1 M1950.29 1450.39 Q1956.11 1450.39 1959.16 1455 Q1962.24 1459.58 1962.24 1468.33 Q1962.24 1477.06 1959.16 1481.67 Q1956.11 1486.25 1950.29 1486.25 Q1944.48 1486.25 1941.41 1481.67 Q1938.35 1477.06 1938.35 1468.33 Q1938.35 1459.58 1941.41 1455 Q1944.48 1450.39 1950.29 1450.39 Z" fill="#000000" fill-rule="nonzero" fill-opacity="1" /><path clip-path="url(#clip800)" d="M1970.46 1479.7 L1975.34 1479.7 L1975.34 1485.58 L1970.46 1485.58 L1970.46 1479.7 Z" fill="#000000" fill-rule="nonzero" fill-opacity="1" /><path clip-path="url(#clip800)" d="M1995.53 1454.1 Q1991.92 1454.1 1990.09 1457.66 Q1988.28 1461.2 1988.28 1468.33 Q1988.28 1475.44 1990.09 1479.01 Q1991.92 1482.55 1995.53 1482.55 Q1999.16 1482.55 2000.97 1479.01 Q2002.79 1475.44 2002.79 1468.33 Q2002.79 1461.2 2000.97 1457.66 Q1999.16 1454.1 1995.53 1454.1 M1995.53 1450.39 Q2001.34 1450.39 2004.39 1455 Q2007.47 1459.58 2007.47 1468.33 Q2007.47 1477.06 2004.39 1481.67 Q2001.34 1486.25 1995.53 1486.25 Q1989.72 1486.25 1986.64 1481.67 Q1983.58 1477.06 1983.58 1468.33 Q1983.58 1459.58 1986.64 1455 Q1989.72 1450.39 1995.53 1450.39 Z" fill="#000000" fill-rule="nonzero" fill-opacity="1" /><path clip-path="url(#clip800)" d="M2019.72 1481.64 L2036.04 1481.64 L2036.04 1485.58 L2014.09 1485.58 L2014.09 1481.64 Q2016.75 1478.89 2021.34 1474.26 Q2025.94 1469.61 2027.12 1468.27 Q2029.37 1465.74 2030.25 1464.01 Q2031.15 1462.25 2031.15 1460.56 Q2031.15 1457.8 2029.21 1456.07 Q2027.29 1454.33 2024.18 1454.33 Q2021.98 1454.33 2019.53 1455.09 Q2017.1 1455.86 2014.32 1457.41 L2014.32 1452.69 Q2017.15 1451.55 2019.6 1450.97 Q2022.05 1450.39 2024.09 1450.39 Q2029.46 1450.39 2032.66 1453.08 Q2035.85 1455.77 2035.85 1460.26 Q2035.85 1462.39 2035.04 1464.31 Q2034.25 1466.2 2032.15 1468.8 Q2031.57 1469.47 2028.47 1472.69 Q2025.36 1475.88 2019.72 1481.64 Z" fill="#000000" fill-rule="nonzero" fill-opacity="1" /><path clip-path="url(#clip800)" d="M2045.9 1451.02 L2064.25 1451.02 L2064.25 1454.96 L2050.18 1454.96 L2050.18 1463.43 Q2051.2 1463.08 2052.22 1462.92 Q2053.23 1462.73 2054.25 1462.73 Q2060.04 1462.73 2063.42 1465.9 Q2066.8 1469.08 2066.8 1474.49 Q2066.8 1480.07 2063.33 1483.17 Q2059.85 1486.25 2053.54 1486.25 Q2051.36 1486.25 2049.09 1485.88 Q2046.85 1485.51 2044.44 1484.77 L2044.44 1480.07 Q2046.52 1481.2 2048.74 1481.76 Q2050.97 1482.32 2053.44 1482.32 Q2057.45 1482.32 2059.79 1480.21 Q2062.12 1478.1 2062.12 1474.49 Q2062.12 1470.88 2059.79 1468.77 Q2057.45 1466.67 2053.44 1466.67 Q2051.57 1466.67 2049.69 1467.08 Q2047.84 1467.5 2045.9 1468.38 L2045.9 1451.02 Z" fill="#000000" fill-rule="nonzero" fill-opacity="1" /><path clip-path="url(#clip800)" d="M2299.98 1454.1 Q2296.37 1454.1 2294.54 1457.66 Q2292.73 1461.2 2292.73 1468.33 Q2292.73 1475.44 2294.54 1479.01 Q2296.37 1482.55 2299.98 1482.55 Q2303.61 1482.55 2305.42 1479.01 Q2307.25 1475.44 2307.25 1468.33 Q2307.25 1461.2 2305.42 1457.66 Q2303.61 1454.1 2299.98 1454.1 M2299.98 1450.39 Q2305.79 1450.39 2308.84 1455 Q2311.92 1459.58 2311.92 1468.33 Q2311.92 1477.06 2308.84 1481.67 Q2305.79 1486.25 2299.98 1486.25 Q2294.17 1486.25 2291.09 1481.67 Q2288.03 1477.06 2288.03 1468.33 Q2288.03 1459.58 2291.09 1455 Q2294.17 1450.39 2299.98 1450.39 Z" fill="#000000" fill-rule="nonzero" fill-opacity="1" /><path clip-path="url(#clip800)" d="M2320.14 1479.7 L2325.02 1479.7 L2325.02 1485.58 L2320.14 1485.58 L2320.14 1479.7 Z" fill="#000000" fill-rule="nonzero" fill-opacity="1" /><path clip-path="url(#clip800)" d="M2345.21 1454.1 Q2341.6 1454.1 2339.77 1457.66 Q2337.96 1461.2 2337.96 1468.33 Q2337.96 1475.44 2339.77 1479.01 Q2341.6 1482.55 2345.21 1482.55 Q2348.84 1482.55 2350.65 1479.01 Q2352.48 1475.44 2352.48 1468.33 Q2352.48 1461.2 2350.65 1457.66 Q2348.84 1454.1 2345.21 1454.1 M2345.21 1450.39 Q2351.02 1450.39 2354.08 1455 Q2357.15 1459.58 2357.15 1468.33 Q2357.15 1477.06 2354.08 1481.67 Q2351.02 1486.25 2345.21 1486.25 Q2339.4 1486.25 2336.32 1481.67 Q2333.27 1477.06 2333.27 1468.33 Q2333.27 1459.58 2336.32 1455 Q2339.4 1450.39 2345.21 1450.39 Z" fill="#000000" fill-rule="nonzero" fill-opacity="1" /><path clip-path="url(#clip800)" d="M2379.54 1466.95 Q2382.89 1467.66 2384.77 1469.93 Q2386.67 1472.2 2386.67 1475.53 Q2386.67 1480.65 2383.15 1483.45 Q2379.63 1486.25 2373.15 1486.25 Q2370.97 1486.25 2368.66 1485.81 Q2366.37 1485.39 2363.91 1484.54 L2363.91 1480.02 Q2365.86 1481.16 2368.17 1481.74 Q2370.49 1482.32 2373.01 1482.32 Q2377.41 1482.32 2379.7 1480.58 Q2382.02 1478.84 2382.02 1475.53 Q2382.02 1472.48 2379.86 1470.77 Q2377.73 1469.03 2373.91 1469.03 L2369.89 1469.03 L2369.89 1465.19 L2374.1 1465.19 Q2377.55 1465.19 2379.38 1463.82 Q2381.2 1462.43 2381.2 1459.84 Q2381.2 1457.18 2379.31 1455.77 Q2377.43 1454.33 2373.91 1454.33 Q2371.99 1454.33 2369.79 1454.75 Q2367.59 1455.16 2364.95 1456.04 L2364.95 1451.88 Q2367.62 1451.14 2369.93 1450.77 Q2372.27 1450.39 2374.33 1450.39 Q2379.65 1450.39 2382.76 1452.83 Q2385.86 1455.23 2385.86 1459.35 Q2385.86 1462.22 2384.21 1464.21 Q2382.57 1466.18 2379.54 1466.95 Z" fill="#000000" fill-rule="nonzero" fill-opacity="1" /><path clip-path="url(#clip800)" d="M2405.53 1454.1 Q2401.92 1454.1 2400.09 1457.66 Q2398.29 1461.2 2398.29 1468.33 Q2398.29 1475.44 2400.09 1479.01 Q2401.92 1482.55 2405.53 1482.55 Q2409.17 1482.55 2410.97 1479.01 Q2412.8 1475.44 2412.8 1468.33 Q2412.8 1461.2 2410.97 1457.66 Q2409.17 1454.1 2405.53 1454.1 M2405.53 1450.39 Q2411.34 1450.39 2414.4 1455 Q2417.48 1459.58 2417.48 1468.33 Q2417.48 1477.06 2414.4 1481.67 Q2411.34 1486.25 2405.53 1486.25 Q2399.72 1486.25 2396.64 1481.67 Q2393.59 1477.06 2393.59 1468.33 Q2393.59 1459.58 2396.64 1455 Q2399.72 1450.39 2405.53 1450.39 Z" fill="#000000" fill-rule="nonzero" fill-opacity="1" /><path clip-path="url(#clip800)" d="M512.499 1520.52 L539.807 1520.52 L539.807 1525.93 L518.928 1525.93 L518.928 1539.94 L537.77 1539.94 L537.77 1545.35 L518.928 1545.35 L518.928 1568.04 L512.499 1568.04 L512.499 1520.52 Z" fill="#000000" fill-rule="nonzero" fill-opacity="1" /><path clip-path="url(#clip800)" d="M565.652 1537.87 Q564.666 1537.3 563.488 1537.04 Q562.342 1536.76 560.942 1536.76 Q555.976 1536.76 553.303 1540 Q550.661 1543.22 550.661 1549.27 L550.661 1568.04 L544.773 1568.04 L544.773 1532.4 L550.661 1532.4 L550.661 1537.93 Q552.507 1534.69 555.467 1533.13 Q558.427 1531.54 562.66 1531.54 Q563.265 1531.54 563.997 1531.63 Q564.729 1531.7 565.62 1531.85 L565.652 1537.87 Z" fill="#000000" fill-rule="nonzero" fill-opacity="1" /><path clip-path="url(#clip800)" d="M587.996 1550.12 Q580.898 1550.12 578.161 1551.75 Q575.424 1553.37 575.424 1557.29 Q575.424 1560.4 577.461 1562.25 Q579.529 1564.07 583.062 1564.07 Q587.932 1564.07 590.86 1560.63 Q593.82 1557.16 593.82 1551.43 L593.82 1550.12 L587.996 1550.12 M599.677 1547.71 L599.677 1568.04 L593.82 1568.04 L593.82 1562.63 Q591.815 1565.88 588.823 1567.44 Q585.831 1568.97 581.503 1568.97 Q576.028 1568.97 572.782 1565.91 Q569.567 1562.82 569.567 1557.67 Q569.567 1551.65 573.578 1548.6 Q577.62 1545.54 585.609 1545.54 L593.82 1545.54 L593.82 1544.97 Q593.82 1540.93 591.147 1538.73 Q588.505 1536.5 583.699 1536.5 Q580.643 1536.5 577.747 1537.23 Q574.851 1537.97 572.177 1539.43 L572.177 1534.02 Q575.392 1532.78 578.415 1532.17 Q581.439 1531.54 584.304 1531.54 Q592.038 1531.54 595.857 1535.55 Q599.677 1539.56 599.677 1547.71 Z" fill="#000000" fill-rule="nonzero" fill-opacity="1" /><path clip-path="url(#clip800)" d="M637.394 1533.76 L637.394 1539.24 Q634.911 1537.87 632.397 1537.2 Q629.914 1536.5 627.368 1536.5 Q621.67 1536.5 618.519 1540.13 Q615.368 1543.73 615.368 1550.25 Q615.368 1556.78 618.519 1560.4 Q621.67 1564 627.368 1564 Q629.914 1564 632.397 1563.33 Q634.911 1562.63 637.394 1561.26 L637.394 1566.68 Q634.943 1567.82 632.301 1568.39 Q629.691 1568.97 626.731 1568.97 Q618.679 1568.97 613.936 1563.91 Q609.194 1558.85 609.194 1550.25 Q609.194 1541.53 613.968 1536.53 Q618.774 1531.54 627.113 1531.54 Q629.819 1531.54 632.397 1532.11 Q634.975 1532.65 637.394 1533.76 Z" fill="#000000" fill-rule="nonzero" fill-opacity="1" /><path clip-path="url(#clip800)" d="M653.372 1522.27 L653.372 1532.4 L665.435 1532.4 L665.435 1536.95 L653.372 1536.95 L653.372 1556.3 Q653.372 1560.66 654.549 1561.9 Q655.759 1563.14 659.419 1563.14 L665.435 1563.14 L665.435 1568.04 L659.419 1568.04 Q652.64 1568.04 650.061 1565.53 Q647.483 1562.98 647.483 1556.3 L647.483 1536.95 L643.187 1536.95 L643.187 1532.4 L647.483 1532.4 L647.483 1522.27 L653.372 1522.27 Z" fill="#000000" fill-rule="nonzero" fill-opacity="1" /><path clip-path="url(#clip800)" d="M673.137 1532.4 L678.994 1532.4 L678.994 1568.04 L673.137 1568.04 L673.137 1532.4 M673.137 1518.52 L678.994 1518.52 L678.994 1525.93 L673.137 1525.93 L673.137 1518.52 Z" fill="#000000" fill-rule="nonzero" fill-opacity="1" /><path clip-path="url(#clip800)" d="M705.061 1536.5 Q700.351 1536.5 697.613 1540.19 Q694.876 1543.85 694.876 1550.25 Q694.876 1556.65 697.581 1560.34 Q700.319 1564 705.061 1564 Q709.74 1564 712.477 1560.31 Q715.214 1556.62 715.214 1550.25 Q715.214 1543.92 712.477 1540.23 Q709.74 1536.5 705.061 1536.5 M705.061 1531.54 Q712.7 1531.54 717.061 1536.5 Q721.421 1541.47 721.421 1550.25 Q721.421 1559 717.061 1564 Q712.7 1568.97 705.061 1568.97 Q697.391 1568.97 693.03 1564 Q688.701 1559 688.701 1550.25 Q688.701 1541.47 693.03 1536.5 Q697.391 1531.54 705.061 1531.54 Z" fill="#000000" fill-rule="nonzero" fill-opacity="1" /><path clip-path="url(#clip800)" d="M760.761 1546.53 L760.761 1568.04 L754.905 1568.04 L754.905 1546.72 Q754.905 1541.66 752.931 1539.14 Q750.958 1536.63 747.011 1536.63 Q742.269 1536.63 739.531 1539.65 Q736.794 1542.68 736.794 1547.9 L736.794 1568.04 L730.906 1568.04 L730.906 1532.4 L736.794 1532.4 L736.794 1537.93 Q738.895 1534.72 741.728 1533.13 Q744.592 1531.54 748.316 1531.54 Q754.459 1531.54 757.61 1535.36 Q760.761 1539.14 760.761 1546.53 Z" fill="#000000" fill-rule="nonzero" fill-opacity="1" /><path clip-path="url(#clip800)" d="M806.976 1536.5 Q802.266 1536.5 799.528 1540.19 Q796.791 1543.85 796.791 1550.25 Q796.791 1556.65 799.496 1560.34 Q802.234 1564 806.976 1564 Q811.655 1564 814.392 1560.31 Q817.129 1556.62 817.129 1550.25 Q817.129 1543.92 814.392 1540.23 Q811.655 1536.5 806.976 1536.5 M806.976 1531.54 Q814.615 1531.54 818.975 1536.5 Q823.336 1541.47 823.336 1550.25 Q823.336 1559 818.975 1564 Q814.615 1568.97 806.976 1568.97 Q799.305 1568.97 794.945 1564 Q790.616 1559 790.616 1550.25 Q790.616 1541.47 794.945 1536.5 Q799.305 1531.54 806.976 1531.54 Z" fill="#000000" fill-rule="nonzero" fill-opacity="1" /><path clip-path="url(#clip800)" d="M851.09 1518.52 L851.09 1523.39 L845.489 1523.39 Q842.338 1523.39 841.096 1524.66 Q839.887 1525.93 839.887 1529.24 L839.887 1532.4 L849.531 1532.4 L849.531 1536.95 L839.887 1536.95 L839.887 1568.04 L833.999 1568.04 L833.999 1536.95 L828.397 1536.95 L828.397 1532.4 L833.999 1532.4 L833.999 1529.91 Q833.999 1523.96 836.768 1521.26 Q839.537 1518.52 845.552 1518.52 L851.09 1518.52 Z" fill="#000000" fill-rule="nonzero" fill-opacity="1" /><path clip-path="url(#clip800)" d="M906.345 1546.53 L906.345 1568.04 L900.488 1568.04 L900.488 1546.72 Q900.488 1541.66 898.515 1539.14 Q896.542 1536.63 892.595 1536.63 Q887.852 1536.63 885.115 1539.65 Q882.378 1542.68 882.378 1547.9 L882.378 1568.04 L876.49 1568.04 L876.49 1518.52 L882.378 1518.52 L882.378 1537.93 Q884.479 1534.72 887.311 1533.13 Q890.176 1531.54 893.9 1531.54 Q900.043 1531.54 903.194 1535.36 Q906.345 1539.14 906.345 1546.53 Z" fill="#000000" fill-rule="nonzero" fill-opacity="1" /><path clip-path="url(#clip800)" d="M932.858 1571.35 Q930.375 1577.72 928.02 1579.66 Q925.665 1581.6 921.718 1581.6 L917.039 1581.6 L917.039 1576.7 L920.477 1576.7 Q922.896 1576.7 924.232 1575.56 Q925.569 1574.41 927.193 1570.14 L928.243 1567.47 L913.825 1532.4 L920.031 1532.4 L931.171 1560.28 L942.311 1532.4 L948.518 1532.4 L932.858 1571.35 Z" fill="#000000" fill-rule="nonzero" fill-opacity="1" /><path clip-path="url(#clip800)" d="M980.06 1537.81 L980.06 1518.52 L985.916 1518.52 L985.916 1568.04 L980.06 1568.04 L980.06 1562.7 Q978.214 1565.88 975.381 1567.44 Q972.58 1568.97 968.633 1568.97 Q962.172 1568.97 958.098 1563.81 Q954.056 1558.65 954.056 1550.25 Q954.056 1541.85 958.098 1536.69 Q962.172 1531.54 968.633 1531.54 Q972.58 1531.54 975.381 1533.1 Q978.214 1534.62 980.06 1537.81 M960.103 1550.25 Q960.103 1556.71 962.745 1560.4 Q965.419 1564.07 970.066 1564.07 Q974.713 1564.07 977.386 1560.4 Q980.06 1556.71 980.06 1550.25 Q980.06 1543.79 977.386 1540.13 Q974.713 1536.44 970.066 1536.44 Q965.419 1536.44 962.745 1540.13 Q960.103 1543.79 960.103 1550.25 Z" fill="#000000" fill-rule="nonzero" fill-opacity="1" /><path clip-path="url(#clip800)" d="M1018.64 1537.87 Q1017.65 1537.3 1016.47 1537.04 Q1015.33 1536.76 1013.93 1536.76 Q1008.96 1536.76 1006.29 1540 Q1003.64 1543.22 1003.64 1549.27 L1003.64 1568.04 L997.756 1568.04 L997.756 1532.4 L1003.64 1532.4 L1003.64 1537.93 Q1005.49 1534.69 1008.45 1533.13 Q1011.41 1531.54 1015.64 1531.54 Q1016.25 1531.54 1016.98 1531.63 Q1017.71 1531.7 1018.6 1531.85 L1018.64 1537.87 Z" fill="#000000" fill-rule="nonzero" fill-opacity="1" /><path clip-path="url(#clip800)" d="M1037.16 1536.5 Q1032.45 1536.5 1029.71 1540.19 Q1026.97 1543.85 1026.97 1550.25 Q1026.97 1556.65 1029.68 1560.34 Q1032.42 1564 1037.16 1564 Q1041.84 1564 1044.58 1560.31 Q1047.31 1556.62 1047.31 1550.25 Q1047.31 1543.92 1044.58 1540.23 Q1041.84 1536.5 1037.16 1536.5 M1037.16 1531.54 Q1044.8 1531.54 1049.16 1536.5 Q1053.52 1541.47 1053.52 1550.25 Q1053.52 1559 1049.16 1564 Q1044.8 1568.97 1037.16 1568.97 Q1029.49 1568.97 1025.13 1564 Q1020.8 1559 1020.8 1550.25 Q1020.8 1541.47 1025.13 1536.5 Q1029.49 1531.54 1037.16 1531.54 Z" fill="#000000" fill-rule="nonzero" fill-opacity="1" /><path clip-path="url(#clip800)" d="M1086.69 1549.81 Q1086.69 1543.44 1084.04 1539.94 Q1081.43 1536.44 1076.69 1536.44 Q1071.98 1536.44 1069.34 1539.94 Q1066.73 1543.44 1066.73 1549.81 Q1066.73 1556.14 1069.34 1559.64 Q1071.98 1563.14 1076.69 1563.14 Q1081.43 1563.14 1084.04 1559.64 Q1086.69 1556.14 1086.69 1549.81 M1092.54 1563.62 Q1092.54 1572.72 1088.5 1577.15 Q1084.46 1581.6 1076.12 1581.6 Q1073.03 1581.6 1070.29 1581.13 Q1067.56 1580.68 1064.98 1579.72 L1064.98 1574.03 Q1067.56 1575.43 1070.07 1576.1 Q1072.59 1576.76 1075.2 1576.76 Q1080.96 1576.76 1083.82 1573.74 Q1086.69 1570.75 1086.69 1564.67 L1086.69 1561.77 Q1084.87 1564.92 1082.04 1566.48 Q1079.21 1568.04 1075.26 1568.04 Q1068.7 1568.04 1064.69 1563.05 Q1060.68 1558.05 1060.68 1549.81 Q1060.68 1541.53 1064.69 1536.53 Q1068.7 1531.54 1075.26 1531.54 Q1079.21 1531.54 1082.04 1533.1 Q1084.87 1534.66 1086.69 1537.81 L1086.69 1532.4 L1092.54 1532.4 L1092.54 1563.62 Z" fill="#000000" fill-rule="nonzero" fill-opacity="1" /><path clip-path="url(#clip800)" d="M1135.1 1548.76 L1135.1 1551.62 L1108.17 1551.62 Q1108.55 1557.67 1111.8 1560.85 Q1115.08 1564 1120.9 1564 Q1124.27 1564 1127.43 1563.17 Q1130.61 1562.35 1133.73 1560.69 L1133.73 1566.23 Q1130.58 1567.57 1127.27 1568.27 Q1123.96 1568.97 1120.55 1568.97 Q1112.02 1568.97 1107.02 1564 Q1102.06 1559.04 1102.06 1550.57 Q1102.06 1541.82 1106.77 1536.69 Q1111.51 1531.54 1119.53 1531.54 Q1126.73 1531.54 1130.9 1536.18 Q1135.1 1540.8 1135.1 1548.76 M1129.24 1547.04 Q1129.18 1542.23 1126.53 1539.37 Q1123.92 1536.5 1119.6 1536.5 Q1114.69 1536.5 1111.73 1539.27 Q1108.81 1542.04 1108.36 1547.07 L1129.24 1547.04 Z" fill="#000000" fill-rule="nonzero" fill-opacity="1" /><path clip-path="url(#clip800)" d="M1174.34 1546.53 L1174.34 1568.04 L1168.48 1568.04 L1168.48 1546.72 Q1168.48 1541.66 1166.51 1539.14 Q1164.54 1536.63 1160.59 1536.63 Q1155.85 1536.63 1153.11 1539.65 Q1150.37 1542.68 1150.37 1547.9 L1150.37 1568.04 L1144.49 1568.04 L1144.49 1532.4 L1150.37 1532.4 L1150.37 1537.93 Q1152.47 1534.72 1155.31 1533.13 Q1158.17 1531.54 1161.9 1531.54 Q1168.04 1531.54 1171.19 1535.36 Q1174.34 1539.14 1174.34 1546.53 Z" fill="#000000" fill-rule="nonzero" fill-opacity="1" /><path clip-path="url(#clip800)" d="M1206.74 1518.52 L1212.6 1518.52 L1212.6 1568.04 L1206.74 1568.04 L1206.74 1518.52 Z" fill="#000000" fill-rule="nonzero" fill-opacity="1" /><path clip-path="url(#clip800)" d="M1238.67 1536.5 Q1233.96 1536.5 1231.22 1540.19 Q1228.48 1543.85 1228.48 1550.25 Q1228.48 1556.65 1231.19 1560.34 Q1233.92 1564 1238.67 1564 Q1243.35 1564 1246.08 1560.31 Q1248.82 1556.62 1248.82 1550.25 Q1248.82 1543.92 1246.08 1540.23 Q1243.35 1536.5 1238.67 1536.5 M1238.67 1531.54 Q1246.31 1531.54 1250.67 1536.5 Q1255.03 1541.47 1255.03 1550.25 Q1255.03 1559 1250.67 1564 Q1246.31 1568.97 1238.67 1568.97 Q1231 1568.97 1226.64 1564 Q1222.31 1559 1222.31 1550.25 Q1222.31 1541.47 1226.64 1536.5 Q1231 1531.54 1238.67 1531.54 Z" fill="#000000" fill-rule="nonzero" fill-opacity="1" /><path clip-path="url(#clip800)" d="M1287.46 1533.45 L1287.46 1538.98 Q1284.98 1537.71 1282.3 1537.07 Q1279.63 1536.44 1276.77 1536.44 Q1272.4 1536.44 1270.21 1537.77 Q1268.04 1539.11 1268.04 1541.79 Q1268.04 1543.82 1269.6 1545 Q1271.16 1546.15 1275.87 1547.2 L1277.88 1547.64 Q1284.12 1548.98 1286.73 1551.43 Q1289.37 1553.85 1289.37 1558.21 Q1289.37 1563.17 1285.42 1566.07 Q1281.51 1568.97 1274.63 1568.97 Q1271.77 1568.97 1268.65 1568.39 Q1265.56 1567.85 1262.12 1566.74 L1262.12 1560.69 Q1265.37 1562.38 1268.52 1563.24 Q1271.67 1564.07 1274.76 1564.07 Q1278.9 1564.07 1281.13 1562.66 Q1283.35 1561.23 1283.35 1558.65 Q1283.35 1556.27 1281.73 1554.99 Q1280.14 1553.72 1274.7 1552.54 L1272.66 1552.07 Q1267.22 1550.92 1264.8 1548.56 Q1262.38 1546.18 1262.38 1542.04 Q1262.38 1537.01 1265.94 1534.27 Q1269.51 1531.54 1276.07 1531.54 Q1279.31 1531.54 1282.18 1532.01 Q1285.04 1532.49 1287.46 1533.45 Z" fill="#000000" fill-rule="nonzero" fill-opacity="1" /><path clip-path="url(#clip800)" d="M1304.49 1522.27 L1304.49 1532.4 L1316.55 1532.4 L1316.55 1536.95 L1304.49 1536.95 L1304.49 1556.3 Q1304.49 1560.66 1305.67 1561.9 Q1306.88 1563.14 1310.54 1563.14 L1316.55 1563.14 L1316.55 1568.04 L1310.54 1568.04 Q1303.76 1568.04 1301.18 1565.53 Q1298.6 1562.98 1298.6 1556.3 L1298.6 1536.95 L1294.3 1536.95 L1294.3 1532.4 L1298.6 1532.4 L1298.6 1522.27 L1304.49 1522.27 Z" fill="#000000" fill-rule="nonzero" fill-opacity="1" /><path clip-path="url(#clip800)" d="M1350.77 1522.27 L1350.77 1532.4 L1362.83 1532.4 L1362.83 1536.95 L1350.77 1536.95 L1350.77 1556.3 Q1350.77 1560.66 1351.94 1561.9 Q1353.15 1563.14 1356.81 1563.14 L1362.83 1563.14 L1362.83 1568.04 L1356.81 1568.04 Q1350.03 1568.04 1347.46 1565.53 Q1344.88 1562.98 1344.88 1556.3 L1344.88 1536.95 L1340.58 1536.95 L1340.58 1532.4 L1344.88 1532.4 L1344.88 1522.27 L1350.77 1522.27 Z" fill="#000000" fill-rule="nonzero" fill-opacity="1" /><path clip-path="url(#clip800)" d="M1384.35 1536.5 Q1379.64 1536.5 1376.9 1540.19 Q1374.16 1543.85 1374.16 1550.25 Q1374.16 1556.65 1376.87 1560.34 Q1379.6 1564 1384.35 1564 Q1389.02 1564 1391.76 1560.31 Q1394.5 1556.62 1394.5 1550.25 Q1394.5 1543.92 1391.76 1540.23 Q1389.02 1536.5 1384.35 1536.5 M1384.35 1531.54 Q1391.98 1531.54 1396.35 1536.5 Q1400.71 1541.47 1400.71 1550.25 Q1400.71 1559 1396.35 1564 Q1391.98 1568.97 1384.35 1568.97 Q1376.68 1568.97 1372.31 1564 Q1367.99 1559 1367.99 1550.25 Q1367.99 1541.47 1372.31 1536.5 Q1376.68 1531.54 1384.35 1531.54 Z" fill="#000000" fill-rule="nonzero" fill-opacity="1" /><path clip-path="url(#clip800)" d="M1449.18 1518.52 L1449.18 1523.39 L1443.58 1523.39 Q1440.43 1523.39 1439.19 1524.66 Q1437.98 1525.93 1437.98 1529.24 L1437.98 1532.4 L1447.62 1532.4 L1447.62 1536.95 L1437.98 1536.95 L1437.98 1568.04 L1432.09 1568.04 L1432.09 1536.95 L1426.49 1536.95 L1426.49 1532.4 L1432.09 1532.4 L1432.09 1529.91 Q1432.09 1523.96 1434.86 1521.26 Q1437.63 1518.52 1443.64 1518.52 L1449.18 1518.52 Z" fill="#000000" fill-rule="nonzero" fill-opacity="1" /><path clip-path="url(#clip800)" d="M1453.48 1553.98 L1453.48 1532.4 L1459.33 1532.4 L1459.33 1553.75 Q1459.33 1558.81 1461.31 1561.36 Q1463.28 1563.87 1467.23 1563.87 Q1471.97 1563.87 1474.71 1560.85 Q1477.48 1557.83 1477.48 1552.61 L1477.48 1532.4 L1483.33 1532.4 L1483.33 1568.04 L1477.48 1568.04 L1477.48 1562.57 Q1475.34 1565.82 1472.51 1567.41 Q1469.71 1568.97 1465.99 1568.97 Q1459.84 1568.97 1456.66 1565.15 Q1453.48 1561.33 1453.48 1553.98 M1468.21 1531.54 L1468.21 1531.54 Z" fill="#000000" fill-rule="nonzero" fill-opacity="1" /><path clip-path="url(#clip800)" d="M1518.85 1549.81 Q1518.85 1543.44 1516.21 1539.94 Q1513.6 1536.44 1508.86 1536.44 Q1504.15 1536.44 1501.51 1539.94 Q1498.9 1543.44 1498.9 1549.81 Q1498.9 1556.14 1501.51 1559.64 Q1504.15 1563.14 1508.86 1563.14 Q1513.6 1563.14 1516.21 1559.64 Q1518.85 1556.14 1518.85 1549.81 M1524.71 1563.62 Q1524.71 1572.72 1520.67 1577.15 Q1516.63 1581.6 1508.29 1581.6 Q1505.2 1581.6 1502.46 1581.13 Q1499.72 1580.68 1497.15 1579.72 L1497.15 1574.03 Q1499.72 1575.43 1502.24 1576.1 Q1504.75 1576.76 1507.36 1576.76 Q1513.12 1576.76 1515.99 1573.74 Q1518.85 1570.75 1518.85 1564.67 L1518.85 1561.77 Q1517.04 1564.92 1514.21 1566.48 Q1511.37 1568.04 1507.43 1568.04 Q1500.87 1568.04 1496.86 1563.05 Q1492.85 1558.05 1492.85 1549.81 Q1492.85 1541.53 1496.86 1536.53 Q1500.87 1531.54 1507.43 1531.54 Q1511.37 1531.54 1514.21 1533.1 Q1517.04 1534.66 1518.85 1537.81 L1518.85 1532.4 L1524.71 1532.4 L1524.71 1563.62 Z" fill="#000000" fill-rule="nonzero" fill-opacity="1" /><path clip-path="url(#clip800)" d="M1536.77 1532.4 L1542.63 1532.4 L1542.63 1568.04 L1536.77 1568.04 L1536.77 1532.4 M1536.77 1518.52 L1542.63 1518.52 L1542.63 1525.93 L1536.77 1525.93 L1536.77 1518.52 Z" fill="#000000" fill-rule="nonzero" fill-opacity="1" /><path clip-path="url(#clip800)" d="M1560.68 1522.27 L1560.68 1532.4 L1572.74 1532.4 L1572.74 1536.95 L1560.68 1536.95 L1560.68 1556.3 Q1560.68 1560.66 1561.85 1561.9 Q1563.06 1563.14 1566.72 1563.14 L1572.74 1563.14 L1572.74 1568.04 L1566.72 1568.04 Q1559.94 1568.04 1557.37 1565.53 Q1554.79 1562.98 1554.79 1556.3 L1554.79 1536.95 L1550.49 1536.95 L1550.49 1532.4 L1554.79 1532.4 L1554.79 1522.27 L1560.68 1522.27 Z" fill="#000000" fill-rule="nonzero" fill-opacity="1" /><path clip-path="url(#clip800)" d="M1580.44 1532.4 L1586.3 1532.4 L1586.3 1568.04 L1580.44 1568.04 L1580.44 1532.4 M1580.44 1518.52 L1586.3 1518.52 L1586.3 1525.93 L1580.44 1525.93 L1580.44 1518.52 Z" fill="#000000" fill-rule="nonzero" fill-opacity="1" /><path clip-path="url(#clip800)" d="M1594.35 1532.4 L1600.56 1532.4 L1611.7 1562.31 L1622.84 1532.4 L1629.04 1532.4 L1615.68 1568.04 L1607.72 1568.04 L1594.35 1532.4 Z" fill="#000000" fill-rule="nonzero" fill-opacity="1" /><path clip-path="url(#clip800)" d="M1667.62 1548.76 L1667.62 1551.62 L1640.69 1551.62 Q1641.07 1557.67 1644.32 1560.85 Q1647.6 1564 1653.42 1564 Q1656.8 1564 1659.95 1563.17 Q1663.13 1562.35 1666.25 1560.69 L1666.25 1566.23 Q1663.1 1567.57 1659.79 1568.27 Q1656.48 1568.97 1653.07 1568.97 Q1644.54 1568.97 1639.55 1564 Q1634.58 1559.04 1634.58 1550.57 Q1634.58 1541.82 1639.29 1536.69 Q1644.03 1531.54 1652.06 1531.54 Q1659.25 1531.54 1663.42 1536.18 Q1667.62 1540.8 1667.62 1548.76 M1661.76 1547.04 Q1661.7 1542.23 1659.06 1539.37 Q1656.45 1536.5 1652.12 1536.5 Q1647.22 1536.5 1644.26 1539.27 Q1641.33 1542.04 1640.88 1547.07 L1661.76 1547.04 Z" fill="#000000" fill-rule="nonzero" fill-opacity="1" /><path clip-path="url(#clip800)" d="M1728.44 1548.76 L1728.44 1551.62 L1701.52 1551.62 Q1701.9 1557.67 1705.15 1560.85 Q1708.42 1564 1714.25 1564 Q1717.62 1564 1720.77 1563.17 Q1723.96 1562.35 1727.08 1560.69 L1727.08 1566.23 Q1723.92 1567.57 1720.61 1568.27 Q1717.3 1568.97 1713.9 1568.97 Q1705.37 1568.97 1700.37 1564 Q1695.41 1559.04 1695.41 1550.57 Q1695.41 1541.82 1700.12 1536.69 Q1704.86 1531.54 1712.88 1531.54 Q1720.07 1531.54 1724.24 1536.18 Q1728.44 1540.8 1728.44 1548.76 M1722.59 1547.04 Q1722.52 1542.23 1719.88 1539.37 Q1717.27 1536.5 1712.94 1536.5 Q1708.04 1536.5 1705.08 1539.27 Q1702.15 1542.04 1701.71 1547.07 L1722.59 1547.04 Z" fill="#000000" fill-rule="nonzero" fill-opacity="1" /><path clip-path="url(#clip800)" d="M1765.81 1539.24 Q1768.01 1535.29 1771.06 1533.41 Q1774.12 1531.54 1778.26 1531.54 Q1783.83 1531.54 1786.85 1535.45 Q1789.87 1539.33 1789.87 1546.53 L1789.87 1568.04 L1783.98 1568.04 L1783.98 1546.72 Q1783.98 1541.59 1782.17 1539.11 Q1780.36 1536.63 1776.63 1536.63 Q1772.08 1536.63 1769.44 1539.65 Q1766.8 1542.68 1766.8 1547.9 L1766.8 1568.04 L1760.91 1568.04 L1760.91 1546.72 Q1760.91 1541.56 1759.09 1539.11 Q1757.28 1536.63 1753.49 1536.63 Q1749.01 1536.63 1746.36 1539.68 Q1743.72 1542.71 1743.72 1547.9 L1743.72 1568.04 L1737.83 1568.04 L1737.83 1532.4 L1743.72 1532.4 L1743.72 1537.93 Q1745.73 1534.66 1748.53 1533.1 Q1751.33 1531.54 1755.18 1531.54 Q1759.06 1531.54 1761.77 1533.51 Q1764.51 1535.48 1765.81 1539.24 Z" fill="#000000" fill-rule="nonzero" fill-opacity="1" /><path clip-path="url(#clip800)" d="M1801.55 1532.4 L1807.41 1532.4 L1807.41 1568.04 L1801.55 1568.04 L1801.55 1532.4 M1801.55 1518.52 L1807.41 1518.52 L1807.41 1525.93 L1801.55 1525.93 L1801.55 1518.52 Z" fill="#000000" fill-rule="nonzero" fill-opacity="1" /><path clip-path="url(#clip800)" d="M1842.39 1533.45 L1842.39 1538.98 Q1839.91 1537.71 1837.23 1537.07 Q1834.56 1536.44 1831.7 1536.44 Q1827.34 1536.44 1825.14 1537.77 Q1822.97 1539.11 1822.97 1541.79 Q1822.97 1543.82 1824.53 1545 Q1826.09 1546.15 1830.8 1547.2 L1832.81 1547.64 Q1839.05 1548.98 1841.66 1551.43 Q1844.3 1553.85 1844.3 1558.21 Q1844.3 1563.17 1840.35 1566.07 Q1836.44 1568.97 1829.56 1568.97 Q1826.7 1568.97 1823.58 1568.39 Q1820.49 1567.85 1817.05 1566.74 L1817.05 1560.69 Q1820.3 1562.38 1823.45 1563.24 Q1826.6 1564.07 1829.69 1564.07 Q1833.83 1564.07 1836.06 1562.66 Q1838.28 1561.23 1838.28 1558.65 Q1838.28 1556.27 1836.66 1554.99 Q1835.07 1553.72 1829.63 1552.54 L1827.59 1552.07 Q1822.15 1550.92 1819.73 1548.56 Q1817.31 1546.18 1817.31 1542.04 Q1817.31 1537.01 1820.87 1534.27 Q1824.44 1531.54 1831 1531.54 Q1834.24 1531.54 1837.11 1532.01 Q1839.97 1532.49 1842.39 1533.45 Z" fill="#000000" fill-rule="nonzero" fill-opacity="1" /><path clip-path="url(#clip800)" d="M1876.35 1533.45 L1876.35 1538.98 Q1873.87 1537.71 1871.19 1537.07 Q1868.52 1536.44 1865.66 1536.44 Q1861.3 1536.44 1859.1 1537.77 Q1856.94 1539.11 1856.94 1541.79 Q1856.94 1543.82 1858.5 1545 Q1860.05 1546.15 1864.77 1547.2 L1866.77 1547.64 Q1873.01 1548.98 1875.62 1551.43 Q1878.26 1553.85 1878.26 1558.21 Q1878.26 1563.17 1874.31 1566.07 Q1870.4 1568.97 1863.52 1568.97 Q1860.66 1568.97 1857.54 1568.39 Q1854.45 1567.85 1851.02 1566.74 L1851.02 1560.69 Q1854.26 1562.38 1857.41 1563.24 Q1860.56 1564.07 1863.65 1564.07 Q1867.79 1564.07 1870.02 1562.66 Q1872.25 1561.23 1872.25 1558.65 Q1872.25 1556.27 1870.62 1554.99 Q1869.03 1553.72 1863.59 1552.54 L1861.55 1552.07 Q1856.11 1550.92 1853.69 1548.56 Q1851.27 1546.18 1851.27 1542.04 Q1851.27 1537.01 1854.84 1534.27 Q1858.4 1531.54 1864.96 1531.54 Q1868.2 1531.54 1871.07 1532.01 Q1873.93 1532.49 1876.35 1533.45 Z" fill="#000000" fill-rule="nonzero" fill-opacity="1" /><path clip-path="url(#clip800)" d="M1887.59 1532.4 L1893.44 1532.4 L1893.44 1568.04 L1887.59 1568.04 L1887.59 1532.4 M1887.59 1518.52 L1893.44 1518.52 L1893.44 1525.93 L1887.59 1525.93 L1887.59 1518.52 Z" fill="#000000" fill-rule="nonzero" fill-opacity="1" /><path clip-path="url(#clip800)" d="M1919.51 1536.5 Q1914.8 1536.5 1912.06 1540.19 Q1909.33 1543.85 1909.33 1550.25 Q1909.33 1556.65 1912.03 1560.34 Q1914.77 1564 1919.51 1564 Q1924.19 1564 1926.93 1560.31 Q1929.66 1556.62 1929.66 1550.25 Q1929.66 1543.92 1926.93 1540.23 Q1924.19 1536.5 1919.51 1536.5 M1919.51 1531.54 Q1927.15 1531.54 1931.51 1536.5 Q1935.87 1541.47 1935.87 1550.25 Q1935.87 1559 1931.51 1564 Q1927.15 1568.97 1919.51 1568.97 Q1911.84 1568.97 1907.48 1564 Q1903.15 1559 1903.15 1550.25 Q1903.15 1541.47 1907.48 1536.5 Q1911.84 1531.54 1919.51 1531.54 Z" fill="#000000" fill-rule="nonzero" fill-opacity="1" /><path clip-path="url(#clip800)" d="M1975.21 1546.53 L1975.21 1568.04 L1969.35 1568.04 L1969.35 1546.72 Q1969.35 1541.66 1967.38 1539.14 Q1965.41 1536.63 1961.46 1536.63 Q1956.72 1536.63 1953.98 1539.65 Q1951.24 1542.68 1951.24 1547.9 L1951.24 1568.04 L1945.36 1568.04 L1945.36 1532.4 L1951.24 1532.4 L1951.24 1537.93 Q1953.34 1534.72 1956.18 1533.13 Q1959.04 1531.54 1962.77 1531.54 Q1968.91 1531.54 1972.06 1535.36 Q1975.21 1539.14 1975.21 1546.53 Z" fill="#000000" fill-rule="nonzero" fill-opacity="1" /><path clip-path="url(#clip800)" d="M2009.62 1533.45 L2009.62 1538.98 Q2007.13 1537.71 2004.46 1537.07 Q2001.79 1536.44 1998.92 1536.44 Q1994.56 1536.44 1992.37 1537.77 Q1990.2 1539.11 1990.2 1541.79 Q1990.2 1543.82 1991.76 1545 Q1993.32 1546.15 1998.03 1547.2 L2000.04 1547.64 Q2006.28 1548.98 2008.89 1551.43 Q2011.53 1553.85 2011.53 1558.21 Q2011.53 1563.17 2007.58 1566.07 Q2003.67 1568.97 1996.79 1568.97 Q1993.93 1568.97 1990.81 1568.39 Q1987.72 1567.85 1984.28 1566.74 L1984.28 1560.69 Q1987.53 1562.38 1990.68 1563.24 Q1993.83 1564.07 1996.92 1564.07 Q2001.06 1564.07 2003.28 1562.66 Q2005.51 1561.23 2005.51 1558.65 Q2005.51 1556.27 2003.89 1554.99 Q2002.3 1553.72 1996.85 1552.54 L1994.82 1552.07 Q1989.37 1550.92 1986.96 1548.56 Q1984.54 1546.18 1984.54 1542.04 Q1984.54 1537.01 1988.1 1534.27 Q1991.67 1531.54 1998.22 1531.54 Q2001.47 1531.54 2004.33 1532.01 Q2007.2 1532.49 2009.62 1533.45 Z" fill="#000000" fill-rule="nonzero" fill-opacity="1" /><path clip-path="url(#clip800)" d="M2022.35 1559.96 L2029.06 1559.96 L2029.06 1565.43 L2023.84 1575.62 L2019.74 1575.62 L2022.35 1565.43 L2022.35 1559.96 Z" fill="#000000" fill-rule="nonzero" fill-opacity="1" /><path clip-path="url(#clip800)" d="M2091.93 1546.53 L2091.93 1581.6 L2086.07 1581.6 L2086.07 1546.72 Q2086.07 1541.66 2084.1 1539.14 Q2082.12 1536.63 2078.18 1536.63 Q2073.43 1536.63 2070.7 1539.65 Q2067.96 1542.68 2067.96 1547.9 L2067.96 1568.04 L2062.07 1568.04 L2062.07 1532.4 L2067.96 1532.4 L2067.96 1537.93 Q2070.06 1534.72 2072.89 1533.13 Q2075.76 1531.54 2079.48 1531.54 Q2085.62 1531.54 2088.77 1535.32 Q2091.93 1539.14 2091.93 1546.53 Z" fill="#000000" fill-rule="nonzero" fill-opacity="1" /><polyline clip-path="url(#clip802)" style="stroke:#000000; stroke-linecap:round; stroke-linejoin:round; stroke-width:2; stroke-opacity:0.1; fill:none" points="251.669,1386.4 2352.76,1386.4 "/>
<polyline clip-path="url(#clip802)" style="stroke:#000000; stroke-linecap:round; stroke-linejoin:round; stroke-width:2; stroke-opacity:0.1; fill:none" points="251.669,1098.35 2352.76,1098.35 "/>
<polyline clip-path="url(#clip802)" style="stroke:#000000; stroke-linecap:round; stroke-linejoin:round; stroke-width:2; stroke-opacity:0.1; fill:none" points="251.669,810.298 2352.76,810.298 "/>
<polyline clip-path="url(#clip802)" style="stroke:#000000; stroke-linecap:round; stroke-linejoin:round; stroke-width:2; stroke-opacity:0.1; fill:none" points="251.669,522.249 2352.76,522.249 "/>
<polyline clip-path="url(#clip802)" style="stroke:#000000; stroke-linecap:round; stroke-linejoin:round; stroke-width:2; stroke-opacity:0.1; fill:none" points="251.669,234.201 2352.76,234.201 "/>
<polyline clip-path="url(#clip800)" style="stroke:#000000; stroke-linecap:round; stroke-linejoin:round; stroke-width:4; stroke-opacity:1; fill:none" points="251.669,1423.18 251.669,123.472 "/>
<polyline clip-path="url(#clip800)" style="stroke:#000000; stroke-linecap:round; stroke-linejoin:round; stroke-width:4; stroke-opacity:1; fill:none" points="251.669,1386.4 270.566,1386.4 "/>
<polyline clip-path="url(#clip800)" style="stroke:#000000; stroke-linecap:round; stroke-linejoin:round; stroke-width:4; stroke-opacity:1; fill:none" points="251.669,1098.35 270.566,1098.35 "/>
<polyline clip-path="url(#clip800)" style="stroke:#000000; stroke-linecap:round; stroke-linejoin:round; stroke-width:4; stroke-opacity:1; fill:none" points="251.669,810.298 270.566,810.298 "/>
<polyline clip-path="url(#clip800)" style="stroke:#000000; stroke-linecap:round; stroke-linejoin:round; stroke-width:4; stroke-opacity:1; fill:none" points="251.669,522.249 270.566,522.249 "/>
<polyline clip-path="url(#clip800)" style="stroke:#000000; stroke-linecap:round; stroke-linejoin:round; stroke-width:4; stroke-opacity:1; fill:none" points="251.669,234.201 270.566,234.201 "/>
<path clip-path="url(#clip800)" d="M158.493 1372.19 Q154.882 1372.19 153.053 1375.76 Q151.248 1379.3 151.248 1386.43 Q151.248 1393.54 153.053 1397.1 Q154.882 1400.64 158.493 1400.64 Q162.127 1400.64 163.933 1397.1 Q165.761 1393.54 165.761 1386.43 Q165.761 1379.3 163.933 1375.76 Q162.127 1372.19 158.493 1372.19 M158.493 1368.49 Q164.303 1368.49 167.359 1373.1 Q170.437 1377.68 170.437 1386.43 Q170.437 1395.16 167.359 1399.76 Q164.303 1404.35 158.493 1404.35 Q152.683 1404.35 149.604 1399.76 Q146.549 1395.16 146.549 1386.43 Q146.549 1377.68 149.604 1373.1 Q152.683 1368.49 158.493 1368.49 Z" fill="#000000" fill-rule="nonzero" fill-opacity="1" /><path clip-path="url(#clip800)" d="M178.655 1397.8 L183.539 1397.8 L183.539 1403.68 L178.655 1403.68 L178.655 1397.8 Z" fill="#000000" fill-rule="nonzero" fill-opacity="1" /><path clip-path="url(#clip800)" d="M203.724 1372.19 Q200.113 1372.19 198.284 1375.76 Q196.479 1379.3 196.479 1386.43 Q196.479 1393.54 198.284 1397.1 Q200.113 1400.64 203.724 1400.64 Q207.358 1400.64 209.164 1397.1 Q210.993 1393.54 210.993 1386.43 Q210.993 1379.3 209.164 1375.76 Q207.358 1372.19 203.724 1372.19 M203.724 1368.49 Q209.534 1368.49 212.59 1373.1 Q215.669 1377.68 215.669 1386.43 Q215.669 1395.16 212.59 1399.76 Q209.534 1404.35 203.724 1404.35 Q197.914 1404.35 194.835 1399.76 Q191.78 1395.16 191.78 1386.43 Q191.78 1377.68 194.835 1373.1 Q197.914 1368.49 203.724 1368.49 Z" fill="#000000" fill-rule="nonzero" fill-opacity="1" /><path clip-path="url(#clip800)" d="M153.516 1111.69 L169.835 1111.69 L169.835 1115.63 L147.891 1115.63 L147.891 1111.69 Q150.553 1108.94 155.136 1104.31 Q159.743 1099.65 160.923 1098.31 Q163.169 1095.79 164.048 1094.05 Q164.951 1092.29 164.951 1090.6 Q164.951 1087.85 163.007 1086.11 Q161.085 1084.38 157.984 1084.38 Q155.785 1084.38 153.331 1085.14 Q150.9 1085.9 148.123 1087.46 L148.123 1082.73 Q150.947 1081.6 153.4 1081.02 Q155.854 1080.44 157.891 1080.44 Q163.261 1080.44 166.456 1083.13 Q169.65 1085.81 169.65 1090.3 Q169.65 1092.43 168.84 1094.35 Q168.053 1096.25 165.947 1098.84 Q165.368 1099.52 162.266 1102.73 Q159.164 1105.93 153.516 1111.69 Z" fill="#000000" fill-rule="nonzero" fill-opacity="1" /><path clip-path="url(#clip800)" d="M179.65 1109.75 L184.534 1109.75 L184.534 1115.63 L179.65 1115.63 L179.65 1109.75 Z" fill="#000000" fill-rule="nonzero" fill-opacity="1" /><path clip-path="url(#clip800)" d="M194.766 1081.07 L213.122 1081.07 L213.122 1085 L199.048 1085 L199.048 1093.47 Q200.067 1093.13 201.085 1092.96 Q202.104 1092.78 203.122 1092.78 Q208.909 1092.78 212.289 1095.95 Q215.669 1099.12 215.669 1104.54 Q215.669 1110.12 212.196 1113.22 Q208.724 1116.3 202.405 1116.3 Q200.229 1116.3 197.96 1115.93 Q195.715 1115.56 193.308 1114.82 L193.308 1110.12 Q195.391 1111.25 197.613 1111.81 Q199.835 1112.36 202.312 1112.36 Q206.317 1112.36 208.655 1110.26 Q210.993 1108.15 210.993 1104.54 Q210.993 1100.93 208.655 1098.82 Q206.317 1096.71 202.312 1096.71 Q200.437 1096.71 198.562 1097.13 Q196.71 1097.55 194.766 1098.43 L194.766 1081.07 Z" fill="#000000" fill-rule="nonzero" fill-opacity="1" /><path clip-path="url(#clip800)" d="M148.539 793.018 L166.896 793.018 L166.896 796.953 L152.822 796.953 L152.822 805.425 Q153.84 805.078 154.859 804.916 Q155.877 804.731 156.896 804.731 Q162.683 804.731 166.062 807.902 Q169.442 811.074 169.442 816.49 Q169.442 822.069 165.97 825.171 Q162.497 828.249 156.178 828.249 Q154.002 828.249 151.734 827.879 Q149.488 827.509 147.081 826.768 L147.081 822.069 Q149.164 823.203 151.386 823.759 Q153.609 824.314 156.085 824.314 Q160.09 824.314 162.428 822.208 Q164.766 820.101 164.766 816.49 Q164.766 812.879 162.428 810.773 Q160.09 808.666 156.085 808.666 Q154.21 808.666 152.336 809.083 Q150.484 809.499 148.539 810.379 L148.539 793.018 Z" fill="#000000" fill-rule="nonzero" fill-opacity="1" /><path clip-path="url(#clip800)" d="M178.655 821.698 L183.539 821.698 L183.539 827.578 L178.655 827.578 L178.655 821.698 Z" fill="#000000" fill-rule="nonzero" fill-opacity="1" /><path clip-path="url(#clip800)" d="M203.724 796.097 Q200.113 796.097 198.284 799.662 Q196.479 803.203 196.479 810.333 Q196.479 817.439 198.284 821.004 Q200.113 824.546 203.724 824.546 Q207.358 824.546 209.164 821.004 Q210.993 817.439 210.993 810.333 Q210.993 803.203 209.164 799.662 Q207.358 796.097 203.724 796.097 M203.724 792.393 Q209.534 792.393 212.59 797 Q215.669 801.583 215.669 810.333 Q215.669 819.06 212.59 823.666 Q209.534 828.249 203.724 828.249 Q197.914 828.249 194.835 823.666 Q191.78 819.06 191.78 810.333 Q191.78 801.583 194.835 797 Q197.914 792.393 203.724 792.393 Z" fill="#000000" fill-rule="nonzero" fill-opacity="1" /><path clip-path="url(#clip800)" d="M148.308 504.969 L170.53 504.969 L170.53 506.96 L157.984 539.529 L153.099 539.529 L164.905 508.904 L148.308 508.904 L148.308 504.969 Z" fill="#000000" fill-rule="nonzero" fill-opacity="1" /><path clip-path="url(#clip800)" d="M179.65 533.65 L184.534 533.65 L184.534 539.529 L179.65 539.529 L179.65 533.65 Z" fill="#000000" fill-rule="nonzero" fill-opacity="1" /><path clip-path="url(#clip800)" d="M194.766 504.969 L213.122 504.969 L213.122 508.904 L199.048 508.904 L199.048 517.377 Q200.067 517.029 201.085 516.867 Q202.104 516.682 203.122 516.682 Q208.909 516.682 212.289 519.853 Q215.669 523.025 215.669 528.441 Q215.669 534.02 212.196 537.122 Q208.724 540.201 202.405 540.201 Q200.229 540.201 197.96 539.83 Q195.715 539.46 193.308 538.719 L193.308 534.02 Q195.391 535.154 197.613 535.71 Q199.835 536.265 202.312 536.265 Q206.317 536.265 208.655 534.159 Q210.993 532.052 210.993 528.441 Q210.993 524.83 208.655 522.724 Q206.317 520.617 202.312 520.617 Q200.437 520.617 198.562 521.034 Q196.71 521.451 194.766 522.33 L194.766 504.969 Z" fill="#000000" fill-rule="nonzero" fill-opacity="1" /><path clip-path="url(#clip800)" d="M119.141 247.545 L126.78 247.545 L126.78 221.18 L118.47 222.846 L118.47 218.587 L126.734 216.921 L131.41 216.921 L131.41 247.545 L139.049 247.545 L139.049 251.481 L119.141 251.481 L119.141 247.545 Z" fill="#000000" fill-rule="nonzero" fill-opacity="1" /><path clip-path="url(#clip800)" d="M158.493 219.999 Q154.882 219.999 153.053 223.564 Q151.248 227.106 151.248 234.235 Q151.248 241.342 153.053 244.906 Q154.882 248.448 158.493 248.448 Q162.127 248.448 163.933 244.906 Q165.761 241.342 165.761 234.235 Q165.761 227.106 163.933 223.564 Q162.127 219.999 158.493 219.999 M158.493 216.296 Q164.303 216.296 167.359 220.902 Q170.437 225.485 170.437 234.235 Q170.437 242.962 167.359 247.568 Q164.303 252.152 158.493 252.152 Q152.683 252.152 149.604 247.568 Q146.549 242.962 146.549 234.235 Q146.549 225.485 149.604 220.902 Q152.683 216.296 158.493 216.296 Z" fill="#000000" fill-rule="nonzero" fill-opacity="1" /><path clip-path="url(#clip800)" d="M178.655 245.601 L183.539 245.601 L183.539 251.481 L178.655 251.481 L178.655 245.601 Z" fill="#000000" fill-rule="nonzero" fill-opacity="1" /><path clip-path="url(#clip800)" d="M203.724 219.999 Q200.113 219.999 198.284 223.564 Q196.479 227.106 196.479 234.235 Q196.479 241.342 198.284 244.906 Q200.113 248.448 203.724 248.448 Q207.358 248.448 209.164 244.906 Q210.993 241.342 210.993 234.235 Q210.993 227.106 209.164 223.564 Q207.358 219.999 203.724 219.999 M203.724 216.296 Q209.534 216.296 212.59 220.902 Q215.669 225.485 215.669 234.235 Q215.669 242.962 212.59 247.568 Q209.534 252.152 203.724 252.152 Q197.914 252.152 194.835 247.568 Q191.78 242.962 191.78 234.235 Q191.78 225.485 194.835 220.902 Q197.914 216.296 203.724 216.296 Z" fill="#000000" fill-rule="nonzero" fill-opacity="1" /><path clip-path="url(#clip800)" d="M18.4505 824.486 L29.8514 825.807 Q30.882 825.903 31.204 826.064 Q31.4939 826.225 31.4939 826.741 Q31.4939 827.127 31.2684 827.353 Q31.0108 827.546 30.7209 827.546 Q30.5599 827.546 30.1412 827.514 Q29.7225 827.482 29.5293 827.482 Q27.5325 827.192 26.0189 827.192 Q23.217 827.192 21.7033 828.029 Q20.1574 828.866 19.4489 831.024 Q18.7081 833.182 18.7081 837.24 L18.7081 846.515 Q18.7081 848.641 19.0946 849.156 Q19.4811 849.639 21.2846 850.09 L37.1621 854.051 L37.1621 847.836 Q37.1621 845.517 36.8722 844.132 Q36.5824 842.715 35.7772 841.781 Q34.9399 840.815 33.8127 840.299 Q32.6855 839.752 30.6565 839.204 Q29.9802 839.043 29.7225 838.882 Q29.4649 838.689 29.4649 838.27 Q29.4649 837.948 29.6903 837.723 Q29.8836 837.498 30.1734 837.498 L45.6 841.266 Q46.373 841.459 46.6628 841.652 Q46.9205 841.845 46.9205 842.232 Q46.9205 842.65 46.695 842.876 Q46.4696 843.101 46.2119 843.101 Q45.9543 843.101 45.4712 842.908 Q43.3778 842.425 42.2506 842.425 Q41.6065 842.425 41.2844 842.489 Q40.9624 842.522 40.5115 842.812 Q40.0284 843.069 39.803 843.649 Q39.5775 844.229 39.4165 845.324 Q39.2233 846.419 39.2233 848.061 L39.2233 854.567 L57.2264 859.075 Q58.418 859.398 58.74 859.398 Q59.0943 859.398 59.2231 859.237 Q59.3197 859.043 59.3841 858.528 Q59.4808 857.948 59.4808 857.079 L59.4808 847.449 Q59.4808 845.324 59.2875 843.617 Q59.0943 841.91 58.6112 840.493 Q58.1281 839.043 57.5806 837.948 Q57.0331 836.853 56.0347 835.823 Q55.0041 834.792 54.1024 834.084 Q53.1684 833.343 51.5903 832.473 Q50.0122 831.604 48.724 830.992 Q47.4036 830.38 45.278 829.446 Q44.505 829.188 44.505 828.577 Q44.505 828.222 44.6983 828.029 Q44.8593 827.836 45.0203 827.804 L45.2136 827.804 Q45.8255 827.997 46.1475 828.126 L60.3825 834.18 Q61.1877 834.535 61.3487 834.824 Q61.5097 835.114 61.5097 836.242 L61.5097 870.476 Q61.5097 871.249 61.4775 871.571 Q61.4453 871.861 61.2843 872.087 Q61.0911 872.312 60.7046 872.312 Q60.0927 872.312 59.835 872.054 Q59.5452 871.797 59.513 871.507 Q59.4808 871.217 59.4808 870.476 Q59.4808 868.866 59.3841 867.9 Q59.2875 866.934 59.1587 866.322 Q58.9977 865.678 58.5468 865.356 Q58.0959 865.001 57.7094 864.84 Q57.2908 864.679 56.3568 864.454 L21.4778 855.758 Q20.2862 855.436 19.8998 855.436 Q19.4811 855.436 19.2234 855.726 Q18.9658 855.984 18.8692 856.692 Q18.7403 857.401 18.7403 857.98 Q18.7081 858.528 18.7081 859.72 Q18.7081 860.493 18.6759 860.815 Q18.6437 861.104 18.4827 861.33 Q18.3217 861.555 17.9674 861.555 Q17.0656 861.555 16.8724 861.169 Q16.647 860.75 16.647 859.591 L16.647 826.29 Q16.647 824.969 16.9368 824.68 Q17.1945 824.358 18.4505 824.486 Z" fill="#000000" fill-rule="nonzero" fill-opacity="1" /><path clip-path="url(#clip800)" d="M51.481 794.77 Q52.7209 794.77 53.4874 795.559 Q54.2539 796.326 54.2539 797.295 Q54.2539 797.994 53.8256 798.512 Q53.3973 799.008 52.6533 799.008 Q51.8868 799.008 51.0752 798.422 Q50.2636 797.836 50.1509 796.506 Q49.3168 797.385 49.3168 798.783 Q49.3168 799.482 49.7677 800.068 Q50.196 800.632 50.8949 800.947 Q51.6163 801.285 55.6968 802.052 Q57.0269 802.3 58.3119 802.525 Q59.5969 802.751 60.9495 803.021 L60.9495 799.189 Q60.9495 798.693 60.9721 798.49 Q60.9946 798.287 61.1073 798.129 Q61.2201 797.949 61.4681 797.949 Q62.0993 797.949 62.2571 798.242 Q62.3924 798.512 62.3924 799.324 L62.3924 803.292 L77.0235 806.065 Q77.4518 806.132 78.8045 806.425 Q80.1346 806.696 82.3213 807.35 Q84.5307 808.004 85.8382 808.657 Q86.5822 809.018 87.281 809.491 Q88.0025 809.942 88.7239 810.596 Q89.4453 811.25 89.8736 812.107 Q90.3245 812.963 90.3245 813.865 Q90.3245 815.398 89.4678 816.593 Q88.6112 817.788 87.1458 817.788 Q85.9059 817.788 85.1394 817.021 Q84.3729 816.232 84.3729 815.263 Q84.3729 814.564 84.8012 814.068 Q85.2295 813.549 85.9735 813.549 Q86.2891 813.549 86.6498 813.662 Q87.0105 813.775 87.4163 814.023 Q87.8447 814.271 88.1377 814.812 Q88.4308 815.353 88.4759 816.097 Q89.31 815.218 89.31 813.865 Q89.31 813.437 89.1297 813.053 Q88.9719 812.67 88.5661 812.355 Q88.1603 812.016 87.7545 811.768 Q87.3712 811.52 86.6273 811.272 Q85.9059 811.024 85.3648 810.867 Q84.8237 810.709 83.8543 810.506 Q82.8849 810.281 82.2988 810.168 Q81.7352 810.055 80.6305 809.852 L62.3924 806.403 L62.3924 809.446 Q62.3924 809.987 62.3698 810.213 Q62.3473 810.416 62.2346 810.574 Q62.0993 810.731 61.8288 810.731 Q61.4004 810.731 61.2201 810.551 Q61.0172 810.348 60.9946 810.123 Q60.9495 809.897 60.9495 809.356 L60.9495 806.155 Q55.2459 805.073 53.7129 804.644 Q52.0897 804.149 50.9625 803.382 Q49.8128 802.616 49.2717 801.759 Q48.7306 800.902 48.5277 800.203 Q48.3023 799.482 48.3023 798.783 Q48.3023 797.205 49.159 795.988 Q49.9931 794.77 51.481 794.77 Z" fill="#000000" fill-rule="nonzero" fill-opacity="1" /><path clip-path="url(#clip800)" d="M77.0652 788.352 Q76.7431 788.352 76.0346 788.094 L13.8128 764.809 Q13.7484 764.809 13.3942 764.648 Q13.0399 764.487 12.8145 764.391 Q12.5568 764.294 12.3636 764.101 Q12.1704 763.875 12.1704 763.618 Q12.1704 762.974 12.9755 762.974 Q13.0399 762.974 13.8128 763.167 L76.099 786.516 Q77.2262 786.903 77.5482 787.16 Q77.8703 787.386 77.8703 787.772 Q77.8703 788.352 77.0652 788.352 Z" fill="#000000" fill-rule="nonzero" fill-opacity="1" /><path clip-path="url(#clip800)" d="M18.4505 707.862 L29.8514 709.182 Q30.882 709.279 31.204 709.44 Q31.4939 709.601 31.4939 710.116 Q31.4939 710.503 31.2684 710.728 Q31.0108 710.922 30.7209 710.922 Q30.5599 710.922 30.1412 710.889 Q29.7225 710.857 29.5293 710.857 Q27.5325 710.567 26.0189 710.567 Q23.217 710.567 21.7033 711.405 Q20.1574 712.242 19.4489 714.4 Q18.7081 716.558 18.7081 720.616 L18.7081 729.891 Q18.7081 732.016 19.0946 732.532 Q19.4811 733.015 21.2846 733.466 L37.1621 737.427 L37.1621 731.211 Q37.1621 728.892 36.8722 727.508 Q36.5824 726.091 35.7772 725.157 Q34.9399 724.19 33.8127 723.675 Q32.6855 723.128 30.6565 722.58 Q29.9802 722.419 29.7225 722.258 Q29.4649 722.065 29.4649 721.646 Q29.4649 721.324 29.6903 721.099 Q29.8836 720.873 30.1734 720.873 L45.6 724.641 Q46.373 724.834 46.6628 725.028 Q46.9205 725.221 46.9205 725.607 Q46.9205 726.026 46.695 726.252 Q46.4696 726.477 46.2119 726.477 Q45.9543 726.477 45.4712 726.284 Q43.3778 725.801 42.2506 725.801 Q41.6065 725.801 41.2844 725.865 Q40.9624 725.897 40.5115 726.187 Q40.0284 726.445 39.803 727.024 Q39.5775 727.604 39.4165 728.699 Q39.2233 729.794 39.2233 731.437 L39.2233 737.942 L57.2264 742.451 Q58.418 742.773 58.74 742.773 Q59.0943 742.773 59.2231 742.612 Q59.3197 742.419 59.3841 741.904 Q59.4808 741.324 59.4808 740.454 L59.4808 730.825 Q59.4808 728.699 59.2875 726.992 Q59.0943 725.285 58.6112 723.868 Q58.1281 722.419 57.5806 721.324 Q57.0331 720.229 56.0347 719.198 Q55.0041 718.168 54.1024 717.459 Q53.1684 716.719 51.5903 715.849 Q50.0122 714.98 48.724 714.368 Q47.4036 713.756 45.278 712.822 Q44.505 712.564 44.505 711.952 Q44.505 711.598 44.6983 711.405 Q44.8593 711.211 45.0203 711.179 L45.2136 711.179 Q45.8255 711.372 46.1475 711.501 L60.3825 717.556 Q61.1877 717.91 61.3487 718.2 Q61.5097 718.49 61.5097 719.617 L61.5097 753.852 Q61.5097 754.625 61.4775 754.947 Q61.4453 755.237 61.2843 755.462 Q61.0911 755.688 60.7046 755.688 Q60.0927 755.688 59.835 755.43 Q59.5452 755.172 59.513 754.883 Q59.4808 754.593 59.4808 753.852 Q59.4808 752.242 59.3841 751.276 Q59.2875 750.309 59.1587 749.697 Q58.9977 749.053 58.5468 748.731 Q58.0959 748.377 57.7094 748.216 Q57.2908 748.055 56.3568 747.829 L21.4778 739.134 Q20.2862 738.812 19.8998 738.812 Q19.4811 738.812 19.2234 739.102 Q18.9658 739.359 18.8692 740.068 Q18.7403 740.776 18.7403 741.356 Q18.7081 741.904 18.7081 743.095 Q18.7081 743.868 18.6759 744.19 Q18.6437 744.48 18.4827 744.706 Q18.3217 744.931 17.9674 744.931 Q17.0656 744.931 16.8724 744.544 Q16.647 744.126 16.647 742.966 L16.647 709.666 Q16.647 708.345 16.9368 708.055 Q17.1945 707.733 18.4505 707.862 Z" fill="#000000" fill-rule="nonzero" fill-opacity="1" /><path clip-path="url(#clip800)" d="M68.2943 683.376 Q68.4972 683.196 68.7001 683.196 Q68.903 683.196 69.4891 683.647 Q70.0753 684.075 70.8643 684.999 Q71.6533 685.924 72.3973 687.118 Q73.1413 688.313 73.6372 690.072 Q74.1557 691.83 74.1557 693.679 Q74.1557 697.128 71.8788 699.157 Q69.6018 701.163 66.3329 701.163 Q63.1542 701.163 60.1108 699.382 Q57.0448 697.601 55.1511 694.716 Q53.2348 691.83 53.2348 688.787 Q53.2348 686.374 54.362 684.864 Q55.4892 683.353 57.2026 683.353 Q58.5327 683.353 59.3443 684.12 Q60.1559 684.886 60.1559 685.924 Q60.1559 686.645 59.7501 687.141 Q59.3217 687.637 58.5327 687.637 Q57.5182 687.637 56.7292 686.803 Q56.4135 686.487 56.2783 686.126 Q56.1205 685.743 56.1205 685.518 Q56.0979 685.292 56.0979 684.774 Q55.2187 685.247 54.7453 686.374 Q54.2493 687.479 54.2493 688.742 Q54.2493 690.613 55.5569 692.394 Q56.8419 694.175 58.8708 695.257 Q60.8547 696.339 63.6727 697.038 Q66.4682 697.737 68.0914 697.737 Q70.3232 697.737 71.721 696.7 Q73.1187 695.663 73.1187 693.589 Q73.1187 693.183 73.0962 692.754 Q73.0736 692.304 72.8256 691.176 Q72.5777 690.027 72.1493 689.012 Q71.721 687.998 70.7967 686.713 Q69.8498 685.405 68.5648 684.368 Q68.0914 684.007 68.0914 683.759 Q68.0914 683.556 68.2943 683.376 Z" fill="#000000" fill-rule="nonzero" fill-opacity="1" /><path clip-path="url(#clip800)" d="M227.426 12.096 L262.183 12.096 L262.183 18.9825 L235.609 18.9825 L235.609 36.8065 L259.59 36.8065 L259.59 43.6931 L235.609 43.6931 L235.609 72.576 L227.426 72.576 L227.426 12.096 Z" fill="#000000" fill-rule="nonzero" fill-opacity="1" /><path clip-path="url(#clip800)" d="M269.515 54.671 L269.515 27.2059 L276.969 27.2059 L276.969 54.3874 Q276.969 60.8284 279.48 64.0691 Q281.992 67.2693 287.015 67.2693 Q293.051 67.2693 296.535 63.421 Q300.059 59.5726 300.059 52.9291 L300.059 27.2059 L307.513 27.2059 L307.513 72.576 L300.059 72.576 L300.059 65.6084 Q297.345 69.7404 293.74 71.7658 Q290.175 73.7508 285.435 73.7508 Q277.617 73.7508 273.566 68.8897 Q269.515 64.0286 269.515 54.671 M288.271 26.1121 L288.271 26.1121 Z" fill="#000000" fill-rule="nonzero" fill-opacity="1" /><path clip-path="url(#clip800)" d="M352.721 49.3643 Q352.721 41.2625 349.359 36.8065 Q346.037 32.3505 340.001 32.3505 Q334.006 32.3505 330.643 36.8065 Q327.322 41.2625 327.322 49.3643 Q327.322 57.4256 330.643 61.8816 Q334.006 66.3376 340.001 66.3376 Q346.037 66.3376 349.359 61.8816 Q352.721 57.4256 352.721 49.3643 M360.174 66.9452 Q360.174 78.5308 355.03 84.1616 Q349.885 89.8329 339.272 89.8329 Q335.342 89.8329 331.859 89.2252 Q328.375 88.6581 325.094 87.4428 L325.094 80.1917 Q328.375 81.9741 331.575 82.8248 Q334.775 83.6755 338.097 83.6755 Q345.429 83.6755 349.075 79.8271 Q352.721 76.0193 352.721 68.282 L352.721 64.5957 Q350.412 68.6061 346.806 70.5911 Q343.201 72.576 338.178 72.576 Q329.833 72.576 324.729 66.2161 Q319.625 59.8562 319.625 49.3643 Q319.625 38.832 324.729 32.472 Q329.833 26.1121 338.178 26.1121 Q343.201 26.1121 346.806 28.0971 Q350.412 30.082 352.721 34.0924 L352.721 27.2059 L360.174 27.2059 L360.174 66.9452 Z" fill="#000000" fill-rule="nonzero" fill-opacity="1" /><path clip-path="url(#clip800)" d="M375.527 27.2059 L382.981 27.2059 L382.981 72.576 L375.527 72.576 L375.527 27.2059 M375.527 9.54393 L382.981 9.54393 L382.981 18.9825 L375.527 18.9825 L375.527 9.54393 Z" fill="#000000" fill-rule="nonzero" fill-opacity="1" /><path clip-path="url(#clip800)" d="M405.95 14.324 L405.95 27.2059 L421.303 27.2059 L421.303 32.9987 L405.95 32.9987 L405.95 57.6282 Q405.95 63.1779 407.448 64.7578 Q408.988 66.3376 413.646 66.3376 L421.303 66.3376 L421.303 72.576 L413.646 72.576 Q405.018 72.576 401.737 69.3758 Q398.455 66.1351 398.455 57.6282 L398.455 32.9987 L392.987 32.9987 L392.987 27.2059 L398.455 27.2059 L398.455 14.324 L405.95 14.324 Z" fill="#000000" fill-rule="nonzero" fill-opacity="1" /><path clip-path="url(#clip800)" d="M431.106 27.2059 L438.559 27.2059 L438.559 72.576 L431.106 72.576 L431.106 27.2059 M431.106 9.54393 L438.559 9.54393 L438.559 18.9825 L431.106 18.9825 L431.106 9.54393 Z" fill="#000000" fill-rule="nonzero" fill-opacity="1" /><path clip-path="url(#clip800)" d="M448.808 27.2059 L456.707 27.2059 L470.886 65.2844 L485.064 27.2059 L492.963 27.2059 L475.949 72.576 L465.822 72.576 L448.808 27.2059 Z" fill="#000000" fill-rule="nonzero" fill-opacity="1" /><path clip-path="url(#clip800)" d="M542.06 48.0275 L542.06 51.6733 L507.789 51.6733 Q508.275 59.3701 512.407 63.421 Q516.58 67.4314 523.993 67.4314 Q528.287 67.4314 532.297 66.3781 Q536.348 65.3249 540.318 63.2184 L540.318 70.267 Q536.308 71.9684 532.095 72.8596 Q527.882 73.7508 523.547 73.7508 Q512.691 73.7508 506.331 67.4314 Q500.012 61.1119 500.012 50.3365 Q500.012 39.1965 506.007 32.6746 Q512.043 26.1121 522.251 26.1121 Q531.406 26.1121 536.713 32.0264 Q542.06 37.9003 542.06 48.0275 M534.606 45.84 Q534.525 39.7232 531.163 36.0774 Q527.841 32.4315 522.332 32.4315 Q516.094 32.4315 512.326 35.9558 Q508.6 39.4801 508.032 45.8805 L534.606 45.84 Z" fill="#000000" fill-rule="nonzero" fill-opacity="1" /><path clip-path="url(#clip800)" d="M619.473 48.0275 L619.473 51.6733 L585.202 51.6733 Q585.688 59.3701 589.82 63.421 Q593.993 67.4314 601.406 67.4314 Q605.7 67.4314 609.71 66.3781 Q613.761 65.3249 617.731 63.2184 L617.731 70.267 Q613.721 71.9684 609.508 72.8596 Q605.295 73.7508 600.96 73.7508 Q590.104 73.7508 583.744 67.4314 Q577.424 61.1119 577.424 50.3365 Q577.424 39.1965 583.42 32.6746 Q589.456 26.1121 599.664 26.1121 Q608.819 26.1121 614.126 32.0264 Q619.473 37.9003 619.473 48.0275 M612.019 45.84 Q611.938 39.7232 608.576 36.0774 Q605.254 32.4315 599.745 32.4315 Q593.507 32.4315 589.739 35.9558 Q586.012 39.4801 585.445 45.8805 L612.019 45.84 Z" fill="#000000" fill-rule="nonzero" fill-opacity="1" /><path clip-path="url(#clip800)" d="M667.03 35.9153 Q669.826 30.8922 673.714 28.5022 Q677.603 26.1121 682.869 26.1121 Q689.959 26.1121 693.807 31.0947 Q697.655 36.0368 697.655 45.1919 L697.655 72.576 L690.161 72.576 L690.161 45.4349 Q690.161 38.913 687.852 35.7533 Q685.543 32.5936 680.803 32.5936 Q675.011 32.5936 671.648 36.4419 Q668.286 40.2903 668.286 46.9338 L668.286 72.576 L660.792 72.576 L660.792 45.4349 Q660.792 38.8725 658.483 35.7533 Q656.174 32.5936 651.353 32.5936 Q645.642 32.5936 642.279 36.4824 Q638.917 40.3308 638.917 46.9338 L638.917 72.576 L631.423 72.576 L631.423 27.2059 L638.917 27.2059 L638.917 34.2544 Q641.469 30.082 645.034 28.0971 Q648.599 26.1121 653.5 26.1121 Q658.443 26.1121 661.886 28.6237 Q665.37 31.1352 667.03 35.9153 Z" fill="#000000" fill-rule="nonzero" fill-opacity="1" /><path clip-path="url(#clip800)" d="M712.522 27.2059 L719.976 27.2059 L719.976 72.576 L712.522 72.576 L712.522 27.2059 M712.522 9.54393 L719.976 9.54393 L719.976 18.9825 L712.522 18.9825 L712.522 9.54393 Z" fill="#000000" fill-rule="nonzero" fill-opacity="1" /><path clip-path="url(#clip800)" d="M764.495 28.5427 L764.495 35.5912 Q761.335 33.9709 757.933 33.1607 Q754.53 32.3505 750.884 32.3505 Q745.334 32.3505 742.539 34.0519 Q739.785 35.7533 739.785 39.156 Q739.785 41.7486 741.77 43.2475 Q743.755 44.7058 749.75 46.0426 L752.302 46.6097 Q760.242 48.3111 763.563 51.4303 Q766.926 54.509 766.926 60.0587 Q766.926 66.3781 761.903 70.0644 Q756.92 73.7508 748.17 73.7508 Q744.524 73.7508 740.554 73.0216 Q736.625 72.3329 732.25 70.9151 L732.25 63.2184 Q736.382 65.3654 740.392 66.4591 Q744.403 67.5124 748.332 67.5124 Q753.598 67.5124 756.434 65.73 Q759.27 63.9071 759.27 60.6258 Q759.27 57.5877 757.204 55.9673 Q755.178 54.3469 748.251 52.8481 L745.658 52.2405 Q738.731 50.7821 735.653 47.7845 Q732.574 44.7463 732.574 39.4801 Q732.574 33.0797 737.111 29.5959 Q741.648 26.1121 749.993 26.1121 Q754.125 26.1121 757.771 26.7198 Q761.416 27.3274 764.495 28.5427 Z" fill="#000000" fill-rule="nonzero" fill-opacity="1" /><path clip-path="url(#clip800)" d="M807.718 28.5427 L807.718 35.5912 Q804.559 33.9709 801.156 33.1607 Q797.753 32.3505 794.107 32.3505 Q788.558 32.3505 785.762 34.0519 Q783.008 35.7533 783.008 39.156 Q783.008 41.7486 784.993 43.2475 Q786.978 44.7058 792.973 46.0426 L795.525 46.6097 Q803.465 48.3111 806.787 51.4303 Q810.149 54.509 810.149 60.0587 Q810.149 66.3781 805.126 70.0644 Q800.143 73.7508 791.393 73.7508 Q787.747 73.7508 783.777 73.0216 Q779.848 72.3329 775.473 70.9151 L775.473 63.2184 Q779.605 65.3654 783.615 66.4591 Q787.626 67.5124 791.555 67.5124 Q796.821 67.5124 799.657 65.73 Q802.493 63.9071 802.493 60.6258 Q802.493 57.5877 800.427 55.9673 Q798.401 54.3469 791.474 52.8481 L788.882 52.2405 Q781.955 50.7821 778.876 47.7845 Q775.797 44.7463 775.797 39.4801 Q775.797 33.0797 780.334 29.5959 Q784.871 26.1121 793.216 26.1121 Q797.348 26.1121 800.994 26.7198 Q804.64 27.3274 807.718 28.5427 Z" fill="#000000" fill-rule="nonzero" fill-opacity="1" /><path clip-path="url(#clip800)" d="M822.018 27.2059 L829.472 27.2059 L829.472 72.576 L822.018 72.576 L822.018 27.2059 M822.018 9.54393 L829.472 9.54393 L829.472 18.9825 L822.018 18.9825 L822.018 9.54393 Z" fill="#000000" fill-rule="nonzero" fill-opacity="1" /><path clip-path="url(#clip800)" d="M862.649 32.4315 Q856.653 32.4315 853.169 37.1306 Q849.686 41.7891 849.686 49.9314 Q849.686 58.0738 853.129 62.7728 Q856.613 67.4314 862.649 67.4314 Q868.603 67.4314 872.087 62.7323 Q875.571 58.0333 875.571 49.9314 Q875.571 41.8701 872.087 37.1711 Q868.603 32.4315 862.649 32.4315 M862.649 26.1121 Q872.371 26.1121 877.92 32.4315 Q883.47 38.7509 883.47 49.9314 Q883.47 61.0714 877.92 67.4314 Q872.371 73.7508 862.649 73.7508 Q852.886 73.7508 847.336 67.4314 Q841.827 61.0714 841.827 49.9314 Q841.827 38.7509 847.336 32.4315 Q852.886 26.1121 862.649 26.1121 Z" fill="#000000" fill-rule="nonzero" fill-opacity="1" /><path clip-path="url(#clip800)" d="M933.539 45.1919 L933.539 72.576 L926.086 72.576 L926.086 45.4349 Q926.086 38.994 923.574 35.7938 Q921.063 32.5936 916.04 32.5936 Q910.004 32.5936 906.52 36.4419 Q903.036 40.2903 903.036 46.9338 L903.036 72.576 L895.542 72.576 L895.542 27.2059 L903.036 27.2059 L903.036 34.2544 Q905.71 30.163 909.315 28.1376 Q912.961 26.1121 917.7 26.1121 Q925.519 26.1121 929.529 30.9732 Q933.539 35.7938 933.539 45.1919 Z" fill="#000000" fill-rule="nonzero" fill-opacity="1" /><path clip-path="url(#clip800)" d="M977.33 28.5427 L977.33 35.5912 Q974.17 33.9709 970.767 33.1607 Q967.364 32.3505 963.719 32.3505 Q958.169 32.3505 955.374 34.0519 Q952.619 35.7533 952.619 39.156 Q952.619 41.7486 954.604 43.2475 Q956.589 44.7058 962.584 46.0426 L965.136 46.6097 Q973.076 48.3111 976.398 51.4303 Q979.76 54.509 979.76 60.0587 Q979.76 66.3781 974.737 70.0644 Q969.754 73.7508 961.005 73.7508 Q957.359 73.7508 953.389 73.0216 Q949.459 72.3329 945.084 70.9151 L945.084 63.2184 Q949.216 65.3654 953.227 66.4591 Q957.237 67.5124 961.167 67.5124 Q966.433 67.5124 969.268 65.73 Q972.104 63.9071 972.104 60.6258 Q972.104 57.5877 970.038 55.9673 Q968.013 54.3469 961.086 52.8481 L958.493 52.2405 Q951.566 50.7821 948.487 47.7845 Q945.409 44.7463 945.409 39.4801 Q945.409 33.0797 949.946 29.5959 Q954.483 26.1121 962.827 26.1121 Q966.959 26.1121 970.605 26.7198 Q974.251 27.3274 977.33 28.5427 Z" fill="#000000" fill-rule="nonzero" fill-opacity="1" /><path clip-path="url(#clip800)" d="M1044.29 34.1734 Q1043.04 33.4443 1041.54 33.1202 Q1040.08 32.7556 1038.3 32.7556 Q1031.98 32.7556 1028.57 36.8875 Q1025.21 40.9789 1025.21 48.6757 L1025.21 72.576 L1017.72 72.576 L1017.72 27.2059 L1025.21 27.2059 L1025.21 34.2544 Q1027.56 30.1225 1031.33 28.1376 Q1035.1 26.1121 1040.48 26.1121 Q1041.25 26.1121 1042.18 26.2337 Q1043.12 26.3147 1044.25 26.5172 L1044.29 34.1734 Z" fill="#000000" fill-rule="nonzero" fill-opacity="1" /><path clip-path="url(#clip800)" d="M1089.09 48.0275 L1089.09 51.6733 L1054.82 51.6733 Q1055.31 59.3701 1059.44 63.421 Q1063.61 67.4314 1071.03 67.4314 Q1075.32 67.4314 1079.33 66.3781 Q1083.38 65.3249 1087.35 63.2184 L1087.35 70.267 Q1083.34 71.9684 1079.13 72.8596 Q1074.92 73.7508 1070.58 73.7508 Q1059.73 73.7508 1053.37 67.4314 Q1047.05 61.1119 1047.05 50.3365 Q1047.05 39.1965 1053.04 32.6746 Q1059.08 26.1121 1069.29 26.1121 Q1078.44 26.1121 1083.75 32.0264 Q1089.09 37.9003 1089.09 48.0275 M1081.64 45.84 Q1081.56 39.7232 1078.2 36.0774 Q1074.88 32.4315 1069.37 32.4315 Q1063.13 32.4315 1059.36 35.9558 Q1055.63 39.4801 1055.07 45.8805 L1081.64 45.84 Z" fill="#000000" fill-rule="nonzero" fill-opacity="1" /><path clip-path="url(#clip800)" d="M1101.33 9.54393 L1108.78 9.54393 L1108.78 72.576 L1101.33 72.576 L1101.33 9.54393 Z" fill="#000000" fill-rule="nonzero" fill-opacity="1" /><path clip-path="url(#clip800)" d="M1145 49.7694 Q1135.96 49.7694 1132.48 51.8354 Q1129 53.9013 1129 58.8839 Q1129 62.8538 1131.59 65.2034 Q1134.22 67.5124 1138.72 67.5124 Q1144.92 67.5124 1148.64 63.1374 Q1152.41 58.7219 1152.41 51.4303 L1152.41 49.7694 L1145 49.7694 M1159.86 46.6907 L1159.86 72.576 L1152.41 72.576 L1152.41 65.6895 Q1149.86 69.8214 1146.05 71.8063 Q1142.24 73.7508 1136.73 73.7508 Q1129.77 73.7508 1125.63 69.8619 Q1121.54 65.9325 1121.54 59.3701 Q1121.54 51.7138 1126.65 47.825 Q1131.79 43.9361 1141.96 43.9361 L1152.41 43.9361 L1152.41 43.2069 Q1152.41 38.0623 1149.01 35.2672 Q1145.64 32.4315 1139.53 32.4315 Q1135.64 32.4315 1131.95 33.3632 Q1128.27 34.295 1124.86 36.1584 L1124.86 29.2718 Q1128.96 27.692 1132.8 26.9223 Q1136.65 26.1121 1140.3 26.1121 Q1150.14 26.1121 1155 31.2163 Q1159.86 36.3204 1159.86 46.6907 Z" fill="#000000" fill-rule="nonzero" fill-opacity="1" /><path clip-path="url(#clip800)" d="M1182.59 14.324 L1182.59 27.2059 L1197.94 27.2059 L1197.94 32.9987 L1182.59 32.9987 L1182.59 57.6282 Q1182.59 63.1779 1184.09 64.7578 Q1185.63 66.3376 1190.29 66.3376 L1197.94 66.3376 L1197.94 72.576 L1190.29 72.576 Q1181.66 72.576 1178.38 69.3758 Q1175.09 66.1351 1175.09 57.6282 L1175.09 32.9987 L1169.63 32.9987 L1169.63 27.2059 L1175.09 27.2059 L1175.09 14.324 L1182.59 14.324 Z" fill="#000000" fill-rule="nonzero" fill-opacity="1" /><path clip-path="url(#clip800)" d="M1207.75 27.2059 L1215.2 27.2059 L1215.2 72.576 L1207.75 72.576 L1207.75 27.2059 M1207.75 9.54393 L1215.2 9.54393 L1215.2 18.9825 L1207.75 18.9825 L1207.75 9.54393 Z" fill="#000000" fill-rule="nonzero" fill-opacity="1" /><path clip-path="url(#clip800)" d="M1225.45 27.2059 L1233.35 27.2059 L1247.52 65.2844 L1261.7 27.2059 L1269.6 27.2059 L1252.59 72.576 L1242.46 72.576 L1225.45 27.2059 Z" fill="#000000" fill-rule="nonzero" fill-opacity="1" /><path clip-path="url(#clip800)" d="M1318.7 48.0275 L1318.7 51.6733 L1284.43 51.6733 Q1284.91 59.3701 1289.05 63.421 Q1293.22 67.4314 1300.63 67.4314 Q1304.93 67.4314 1308.94 66.3781 Q1312.99 65.3249 1316.96 63.2184 L1316.96 70.267 Q1312.95 71.9684 1308.73 72.8596 Q1304.52 73.7508 1300.19 73.7508 Q1289.33 73.7508 1282.97 67.4314 Q1276.65 61.1119 1276.65 50.3365 Q1276.65 39.1965 1282.65 32.6746 Q1288.68 26.1121 1298.89 26.1121 Q1308.05 26.1121 1313.35 32.0264 Q1318.7 37.9003 1318.7 48.0275 M1311.25 45.84 Q1311.16 39.7232 1307.8 36.0774 Q1304.48 32.4315 1298.97 32.4315 Q1292.73 32.4315 1288.97 35.9558 Q1285.24 39.4801 1284.67 45.8805 L1311.25 45.84 Z" fill="#000000" fill-rule="nonzero" fill-opacity="1" /><path clip-path="url(#clip800)" d="M1364.68 14.324 L1364.68 27.2059 L1380.03 27.2059 L1380.03 32.9987 L1364.68 32.9987 L1364.68 57.6282 Q1364.68 63.1779 1366.18 64.7578 Q1367.72 66.3376 1372.37 66.3376 L1380.03 66.3376 L1380.03 72.576 L1372.37 72.576 Q1363.75 72.576 1360.46 69.3758 Q1357.18 66.1351 1357.18 57.6282 L1357.18 32.9987 L1351.71 32.9987 L1351.71 27.2059 L1357.18 27.2059 L1357.18 14.324 L1364.68 14.324 Z" fill="#000000" fill-rule="nonzero" fill-opacity="1" /><path clip-path="url(#clip800)" d="M1407.41 32.4315 Q1401.42 32.4315 1397.94 37.1306 Q1394.45 41.7891 1394.45 49.9314 Q1394.45 58.0738 1397.89 62.7728 Q1401.38 67.4314 1407.41 67.4314 Q1413.37 67.4314 1416.85 62.7323 Q1420.34 58.0333 1420.34 49.9314 Q1420.34 41.8701 1416.85 37.1711 Q1413.37 32.4315 1407.41 32.4315 M1407.41 26.1121 Q1417.14 26.1121 1422.69 32.4315 Q1428.24 38.7509 1428.24 49.9314 Q1428.24 61.0714 1422.69 67.4314 Q1417.14 73.7508 1407.41 73.7508 Q1397.65 73.7508 1392.1 67.4314 Q1386.59 61.0714 1386.59 49.9314 Q1386.59 38.7509 1392.1 32.4315 Q1397.65 26.1121 1407.41 26.1121 Z" fill="#000000" fill-rule="nonzero" fill-opacity="1" /><path clip-path="url(#clip800)" d="M1499.61 28.9478 L1499.61 35.9153 Q1496.45 34.1734 1493.25 33.3227 Q1490.09 32.4315 1486.85 32.4315 Q1479.6 32.4315 1475.59 37.0496 Q1471.58 41.6271 1471.58 49.9314 Q1471.58 58.2358 1475.59 62.8538 Q1479.6 67.4314 1486.85 67.4314 Q1490.09 67.4314 1493.25 66.5807 Q1496.45 65.6895 1499.61 63.9476 L1499.61 70.8341 Q1496.49 72.2924 1493.13 73.0216 Q1489.81 73.7508 1486.04 73.7508 Q1475.79 73.7508 1469.76 67.3098 Q1463.72 60.8689 1463.72 49.9314 Q1463.72 38.832 1469.8 32.472 Q1475.91 26.1121 1486.53 26.1121 Q1489.97 26.1121 1493.25 26.8413 Q1496.53 27.5299 1499.61 28.9478 Z" fill="#000000" fill-rule="nonzero" fill-opacity="1" /><path clip-path="url(#clip800)" d="M1530.16 32.4315 Q1524.16 32.4315 1520.68 37.1306 Q1517.19 41.7891 1517.19 49.9314 Q1517.19 58.0738 1520.64 62.7728 Q1524.12 67.4314 1530.16 67.4314 Q1536.11 67.4314 1539.6 62.7323 Q1543.08 58.0333 1543.08 49.9314 Q1543.08 41.8701 1539.6 37.1711 Q1536.11 32.4315 1530.16 32.4315 M1530.16 26.1121 Q1539.88 26.1121 1545.43 32.4315 Q1550.98 38.7509 1550.98 49.9314 Q1550.98 61.0714 1545.43 67.4314 Q1539.88 73.7508 1530.16 73.7508 Q1520.39 73.7508 1514.84 67.4314 Q1509.33 61.0714 1509.33 49.9314 Q1509.33 38.7509 1514.84 32.4315 Q1520.39 26.1121 1530.16 26.1121 Z" fill="#000000" fill-rule="nonzero" fill-opacity="1" /><path clip-path="url(#clip800)" d="M1598.66 35.9153 Q1601.45 30.8922 1605.34 28.5022 Q1609.23 26.1121 1614.5 26.1121 Q1621.59 26.1121 1625.43 31.0947 Q1629.28 36.0368 1629.28 45.1919 L1629.28 72.576 L1621.79 72.576 L1621.79 45.4349 Q1621.79 38.913 1619.48 35.7533 Q1617.17 32.5936 1612.43 32.5936 Q1606.64 32.5936 1603.28 36.4419 Q1599.91 40.2903 1599.91 46.9338 L1599.91 72.576 L1592.42 72.576 L1592.42 45.4349 Q1592.42 38.8725 1590.11 35.7533 Q1587.8 32.5936 1582.98 32.5936 Q1577.27 32.5936 1573.91 36.4824 Q1570.54 40.3308 1570.54 46.9338 L1570.54 72.576 L1563.05 72.576 L1563.05 27.2059 L1570.54 27.2059 L1570.54 34.2544 Q1573.1 30.082 1576.66 28.0971 Q1580.23 26.1121 1585.13 26.1121 Q1590.07 26.1121 1593.51 28.6237 Q1597 31.1352 1598.66 35.9153 Z" fill="#000000" fill-rule="nonzero" fill-opacity="1" /><path clip-path="url(#clip800)" d="M1676.72 49.9314 Q1676.72 41.7081 1673.32 37.0496 Q1669.95 32.3505 1664.04 32.3505 Q1658.12 32.3505 1654.72 37.0496 Q1651.36 41.7081 1651.36 49.9314 Q1651.36 58.1548 1654.72 62.8538 Q1658.12 67.5124 1664.04 67.5124 Q1669.95 67.5124 1673.32 62.8538 Q1676.72 58.1548 1676.72 49.9314 M1651.36 34.0924 Q1653.71 30.0415 1657.27 28.0971 Q1660.88 26.1121 1665.86 26.1121 Q1674.13 26.1121 1679.27 32.6746 Q1684.46 39.2371 1684.46 49.9314 Q1684.46 60.6258 1679.27 67.1883 Q1674.13 73.7508 1665.86 73.7508 Q1660.88 73.7508 1657.27 71.8063 Q1653.71 69.8214 1651.36 65.7705 L1651.36 72.576 L1643.87 72.576 L1643.87 9.54393 L1651.36 9.54393 L1651.36 34.0924 Z" fill="#000000" fill-rule="nonzero" fill-opacity="1" /><path clip-path="url(#clip800)" d="M1696.04 54.671 L1696.04 27.2059 L1703.49 27.2059 L1703.49 54.3874 Q1703.49 60.8284 1706.01 64.0691 Q1708.52 67.2693 1713.54 67.2693 Q1719.58 67.2693 1723.06 63.421 Q1726.58 59.5726 1726.58 52.9291 L1726.58 27.2059 L1734.04 27.2059 L1734.04 72.576 L1726.58 72.576 L1726.58 65.6084 Q1723.87 69.7404 1720.27 71.7658 Q1716.7 73.7508 1711.96 73.7508 Q1704.14 73.7508 1700.09 68.8897 Q1696.04 64.0286 1696.04 54.671 M1714.8 26.1121 L1714.8 26.1121 Z" fill="#000000" fill-rule="nonzero" fill-opacity="1" /><path clip-path="url(#clip800)" d="M1778.31 28.5427 L1778.31 35.5912 Q1775.16 33.9709 1771.75 33.1607 Q1768.35 32.3505 1764.7 32.3505 Q1759.15 32.3505 1756.36 34.0519 Q1753.6 35.7533 1753.6 39.156 Q1753.6 41.7486 1755.59 43.2475 Q1757.57 44.7058 1763.57 46.0426 L1766.12 46.6097 Q1774.06 48.3111 1777.38 51.4303 Q1780.75 54.509 1780.75 60.0587 Q1780.75 66.3781 1775.72 70.0644 Q1770.74 73.7508 1761.99 73.7508 Q1758.34 73.7508 1754.37 73.0216 Q1750.44 72.3329 1746.07 70.9151 L1746.07 63.2184 Q1750.2 65.3654 1754.21 66.4591 Q1758.22 67.5124 1762.15 67.5124 Q1767.42 67.5124 1770.25 65.73 Q1773.09 63.9071 1773.09 60.6258 Q1773.09 57.5877 1771.02 55.9673 Q1769 54.3469 1762.07 52.8481 L1759.48 52.2405 Q1752.55 50.7821 1749.47 47.7845 Q1746.39 44.7463 1746.39 39.4801 Q1746.39 33.0797 1750.93 29.5959 Q1755.47 26.1121 1763.81 26.1121 Q1767.94 26.1121 1771.59 26.7198 Q1775.24 27.3274 1778.31 28.5427 Z" fill="#000000" fill-rule="nonzero" fill-opacity="1" /><path clip-path="url(#clip800)" d="M1799.99 14.324 L1799.99 27.2059 L1815.34 27.2059 L1815.34 32.9987 L1799.99 32.9987 L1799.99 57.6282 Q1799.99 63.1779 1801.49 64.7578 Q1803.03 66.3376 1807.68 66.3376 L1815.34 66.3376 L1815.34 72.576 L1807.68 72.576 Q1799.06 72.576 1795.77 69.3758 Q1792.49 66.1351 1792.49 57.6282 L1792.49 32.9987 L1787.02 32.9987 L1787.02 27.2059 L1792.49 27.2059 L1792.49 14.324 L1799.99 14.324 Z" fill="#000000" fill-rule="nonzero" fill-opacity="1" /><path clip-path="url(#clip800)" d="M1825.14 27.2059 L1832.6 27.2059 L1832.6 72.576 L1825.14 72.576 L1825.14 27.2059 M1825.14 9.54393 L1832.6 9.54393 L1832.6 18.9825 L1825.14 18.9825 L1825.14 9.54393 Z" fill="#000000" fill-rule="nonzero" fill-opacity="1" /><path clip-path="url(#clip800)" d="M1865.77 32.4315 Q1859.78 32.4315 1856.29 37.1306 Q1852.81 41.7891 1852.81 49.9314 Q1852.81 58.0738 1856.25 62.7728 Q1859.74 67.4314 1865.77 67.4314 Q1871.73 67.4314 1875.21 62.7323 Q1878.7 58.0333 1878.7 49.9314 Q1878.7 41.8701 1875.21 37.1711 Q1871.73 32.4315 1865.77 32.4315 M1865.77 26.1121 Q1875.5 26.1121 1881.05 32.4315 Q1886.6 38.7509 1886.6 49.9314 Q1886.6 61.0714 1881.05 67.4314 Q1875.5 73.7508 1865.77 73.7508 Q1856.01 73.7508 1850.46 67.4314 Q1844.95 61.0714 1844.95 49.9314 Q1844.95 38.7509 1850.46 32.4315 Q1856.01 26.1121 1865.77 26.1121 Z" fill="#000000" fill-rule="nonzero" fill-opacity="1" /><path clip-path="url(#clip800)" d="M1936.66 45.1919 L1936.66 72.576 L1929.21 72.576 L1929.21 45.4349 Q1929.21 38.994 1926.7 35.7938 Q1924.19 32.5936 1919.16 32.5936 Q1913.13 32.5936 1909.65 36.4419 Q1906.16 40.2903 1906.16 46.9338 L1906.16 72.576 L1898.67 72.576 L1898.67 27.2059 L1906.16 27.2059 L1906.16 34.2544 Q1908.84 30.163 1912.44 28.1376 Q1916.09 26.1121 1920.83 26.1121 Q1928.64 26.1121 1932.65 30.9732 Q1936.66 35.7938 1936.66 45.1919 Z" fill="#000000" fill-rule="nonzero" fill-opacity="1" /><path clip-path="url(#clip800)" d="M2016.71 48.0275 L2016.71 51.6733 L1982.44 51.6733 Q1982.93 59.3701 1987.06 63.421 Q1991.23 67.4314 1998.64 67.4314 Q2002.94 67.4314 2006.95 66.3781 Q2011 65.3249 2014.97 63.2184 L2014.97 70.267 Q2010.96 71.9684 2006.75 72.8596 Q2002.53 73.7508 1998.2 73.7508 Q1987.34 73.7508 1980.98 67.4314 Q1974.66 61.1119 1974.66 50.3365 Q1974.66 39.1965 1980.66 32.6746 Q1986.69 26.1121 1996.9 26.1121 Q2006.06 26.1121 2011.36 32.0264 Q2016.71 37.9003 2016.71 48.0275 M2009.26 45.84 Q2009.18 39.7232 2005.81 36.0774 Q2002.49 32.4315 1996.98 32.4315 Q1990.74 32.4315 1986.98 35.9558 Q1983.25 39.4801 1982.68 45.8805 L2009.26 45.84 Z" fill="#000000" fill-rule="nonzero" fill-opacity="1" /><path clip-path="url(#clip800)" d="M2064.27 35.9153 Q2067.06 30.8922 2070.95 28.5022 Q2074.84 26.1121 2080.11 26.1121 Q2087.2 26.1121 2091.04 31.0947 Q2094.89 36.0368 2094.89 45.1919 L2094.89 72.576 L2087.4 72.576 L2087.4 45.4349 Q2087.4 38.913 2085.09 35.7533 Q2082.78 32.5936 2078.04 32.5936 Q2072.25 32.5936 2068.89 36.4419 Q2065.52 40.2903 2065.52 46.9338 L2065.52 72.576 L2058.03 72.576 L2058.03 45.4349 Q2058.03 38.8725 2055.72 35.7533 Q2053.41 32.5936 2048.59 32.5936 Q2042.88 32.5936 2039.52 36.4824 Q2036.16 40.3308 2036.16 46.9338 L2036.16 72.576 L2028.66 72.576 L2028.66 27.2059 L2036.16 27.2059 L2036.16 34.2544 Q2038.71 30.082 2042.27 28.0971 Q2045.84 26.1121 2050.74 26.1121 Q2055.68 26.1121 2059.12 28.6237 Q2062.61 31.1352 2064.27 35.9153 Z" fill="#000000" fill-rule="nonzero" fill-opacity="1" /><path clip-path="url(#clip800)" d="M2109.76 27.2059 L2117.21 27.2059 L2117.21 72.576 L2109.76 72.576 L2109.76 27.2059 M2109.76 9.54393 L2117.21 9.54393 L2117.21 18.9825 L2109.76 18.9825 L2109.76 9.54393 Z" fill="#000000" fill-rule="nonzero" fill-opacity="1" /><path clip-path="url(#clip800)" d="M2161.73 28.5427 L2161.73 35.5912 Q2158.57 33.9709 2155.17 33.1607 Q2151.77 32.3505 2148.12 32.3505 Q2142.57 32.3505 2139.78 34.0519 Q2137.02 35.7533 2137.02 39.156 Q2137.02 41.7486 2139.01 43.2475 Q2140.99 44.7058 2146.99 46.0426 L2149.54 46.6097 Q2157.48 48.3111 2160.8 51.4303 Q2164.16 54.509 2164.16 60.0587 Q2164.16 66.3781 2159.14 70.0644 Q2154.16 73.7508 2145.41 73.7508 Q2141.76 73.7508 2137.79 73.0216 Q2133.86 72.3329 2129.49 70.9151 L2129.49 63.2184 Q2133.62 65.3654 2137.63 66.4591 Q2141.64 67.5124 2145.57 67.5124 Q2150.84 67.5124 2153.67 65.73 Q2156.51 63.9071 2156.51 60.6258 Q2156.51 57.5877 2154.44 55.9673 Q2152.42 54.3469 2145.49 52.8481 L2142.9 52.2405 Q2135.97 50.7821 2132.89 47.7845 Q2129.81 44.7463 2129.81 39.4801 Q2129.81 33.0797 2134.35 29.5959 Q2138.89 26.1121 2147.23 26.1121 Q2151.36 26.1121 2155.01 26.7198 Q2158.65 27.3274 2161.73 28.5427 Z" fill="#000000" fill-rule="nonzero" fill-opacity="1" /><path clip-path="url(#clip800)" d="M2204.96 28.5427 L2204.96 35.5912 Q2201.8 33.9709 2198.39 33.1607 Q2194.99 32.3505 2191.35 32.3505 Q2185.8 32.3505 2183 34.0519 Q2180.25 35.7533 2180.25 39.156 Q2180.25 41.7486 2182.23 43.2475 Q2184.22 44.7058 2190.21 46.0426 L2192.76 46.6097 Q2200.7 48.3111 2204.02 51.4303 Q2207.39 54.509 2207.39 60.0587 Q2207.39 66.3781 2202.36 70.0644 Q2197.38 73.7508 2188.63 73.7508 Q2184.99 73.7508 2181.02 73.0216 Q2177.09 72.3329 2172.71 70.9151 L2172.71 63.2184 Q2176.84 65.3654 2180.85 66.4591 Q2184.86 67.5124 2188.79 67.5124 Q2194.06 67.5124 2196.89 65.73 Q2199.73 63.9071 2199.73 60.6258 Q2199.73 57.5877 2197.66 55.9673 Q2195.64 54.3469 2188.71 52.8481 L2186.12 52.2405 Q2179.19 50.7821 2176.11 47.7845 Q2173.04 44.7463 2173.04 39.4801 Q2173.04 33.0797 2177.57 29.5959 Q2182.11 26.1121 2190.45 26.1121 Q2194.59 26.1121 2198.23 26.7198 Q2201.88 27.3274 2204.96 28.5427 Z" fill="#000000" fill-rule="nonzero" fill-opacity="1" /><path clip-path="url(#clip800)" d="M2219.26 27.2059 L2226.71 27.2059 L2226.71 72.576 L2219.26 72.576 L2219.26 27.2059 M2219.26 9.54393 L2226.71 9.54393 L2226.71 18.9825 L2219.26 18.9825 L2219.26 9.54393 Z" fill="#000000" fill-rule="nonzero" fill-opacity="1" /><path clip-path="url(#clip800)" d="M2259.89 32.4315 Q2253.89 32.4315 2250.41 37.1306 Q2246.92 41.7891 2246.92 49.9314 Q2246.92 58.0738 2250.37 62.7728 Q2253.85 67.4314 2259.89 67.4314 Q2265.84 67.4314 2269.33 62.7323 Q2272.81 58.0333 2272.81 49.9314 Q2272.81 41.8701 2269.33 37.1711 Q2265.84 32.4315 2259.89 32.4315 M2259.89 26.1121 Q2269.61 26.1121 2275.16 32.4315 Q2280.71 38.7509 2280.71 49.9314 Q2280.71 61.0714 2275.16 67.4314 Q2269.61 73.7508 2259.89 73.7508 Q2250.12 73.7508 2244.57 67.4314 Q2239.06 61.0714 2239.06 49.9314 Q2239.06 38.7509 2244.57 32.4315 Q2250.12 26.1121 2259.89 26.1121 Z" fill="#000000" fill-rule="nonzero" fill-opacity="1" /><path clip-path="url(#clip800)" d="M2330.78 45.1919 L2330.78 72.576 L2323.32 72.576 L2323.32 45.4349 Q2323.32 38.994 2320.81 35.7938 Q2318.3 32.5936 2313.28 32.5936 Q2307.24 32.5936 2303.76 36.4419 Q2300.27 40.2903 2300.27 46.9338 L2300.27 72.576 L2292.78 72.576 L2292.78 27.2059 L2300.27 27.2059 L2300.27 34.2544 Q2302.95 30.163 2306.55 28.1376 Q2310.2 26.1121 2314.94 26.1121 Q2322.76 26.1121 2326.77 30.9732 Q2330.78 35.7938 2330.78 45.1919 Z" fill="#000000" fill-rule="nonzero" fill-opacity="1" /><path clip-path="url(#clip800)" d="M2374.57 28.5427 L2374.57 35.5912 Q2371.41 33.9709 2368.01 33.1607 Q2364.6 32.3505 2360.96 32.3505 Q2355.41 32.3505 2352.61 34.0519 Q2349.86 35.7533 2349.86 39.156 Q2349.86 41.7486 2351.84 43.2475 Q2353.83 44.7058 2359.82 46.0426 L2362.37 46.6097 Q2370.31 48.3111 2373.64 51.4303 Q2377 54.509 2377 60.0587 Q2377 66.3781 2371.97 70.0644 Q2366.99 73.7508 2358.24 73.7508 Q2354.6 73.7508 2350.63 73.0216 Q2346.7 72.3329 2342.32 70.9151 L2342.32 63.2184 Q2346.45 65.3654 2350.46 66.4591 Q2354.48 67.5124 2358.4 67.5124 Q2363.67 67.5124 2366.51 65.73 Q2369.34 63.9071 2369.34 60.6258 Q2369.34 57.5877 2367.28 55.9673 Q2365.25 54.3469 2358.32 52.8481 L2355.73 52.2405 Q2348.8 50.7821 2345.73 47.7845 Q2342.65 44.7463 2342.65 39.4801 Q2342.65 33.0797 2347.18 29.5959 Q2351.72 26.1121 2360.07 26.1121 Q2364.2 26.1121 2367.84 26.7198 Q2371.49 27.3274 2374.57 28.5427 Z" fill="#000000" fill-rule="nonzero" fill-opacity="1" /><polyline clip-path="url(#clip802)" style="stroke:#009af9; stroke-linecap:round; stroke-linejoin:round; stroke-width:4; stroke-opacity:1; fill:none" points="251.669,1386.4 265.348,1378.65 391.832,1306.89 467.844,1263.65 532.111,1227.01 601.923,1187.13 666.283,1150.3 735.284,1110.73 815.229,1064.8 886.274,1023.88 948.574,987.936 1016.5,948.671 1084.83,909.095 1160.37,865.248 1232.25,823.439 1306.99,779.875 1369.9,743.131 1446.71,698.178 1517.07,656.911 1582.06,618.723 1647.89,579.966 1721.66,536.441 1788.52,496.92 1865.06,451.576 1935.93,409.501 2005.8,367.934 2073.63,327.495 2143.18,285.956 2219.37,240.348 2330.05,173.912 2352.76,160.256 "/>
</svg>
