<?xml version="1.0" encoding="utf-8"?>
<svg xmlns="http://www.w3.org/2000/svg" xmlns:xlink="http://www.w3.org/1999/xlink" width="600" height="400" viewBox="0 0 2400 1600">
<defs>
  <clipPath id="clip580">
    <rect x="0" y="0" width="2400" height="1600"/>
  </clipPath>
</defs>
<path clip-path="url(#clip580)" d="
M0 1600 L2400 1600 L2400 0 L0 0  Z
  " fill="#ffffff" fill-rule="evenodd" fill-opacity="1"/>
<defs>
  <clipPath id="clip581">
    <rect x="480" y="0" width="1681" height="1600"/>
  </clipPath>
</defs>
<path clip-path="url(#clip580)" d="
M235.283 1423.18 L2352.76 1423.18 L2352.76 123.472 L235.283 123.472  Z
  " fill="#ffffff" fill-rule="evenodd" fill-opacity="1"/>
<defs>
  <clipPath id="clip582">
    <rect x="235" y="123" width="2118" height="1301"/>
  </clipPath>
</defs>
<polyline clip-path="url(#clip582)" style="stroke:#000000; stroke-width:2; stroke-opacity:0.1; fill:none" points="
  295.211,1423.18 295.211,123.472 
  "/>
<polyline clip-path="url(#clip582)" style="stroke:#000000; stroke-width:2; stroke-opacity:0.1; fill:none" points="
  970.462,1423.18 970.462,123.472 
  "/>
<polyline clip-path="url(#clip582)" style="stroke:#000000; stroke-width:2; stroke-opacity:0.1; fill:none" points="
  1645.71,1423.18 1645.71,123.472 
  "/>
<polyline clip-path="url(#clip582)" style="stroke:#000000; stroke-width:2; stroke-opacity:0.1; fill:none" points="
  2320.96,1423.18 2320.96,123.472 
  "/>
<polyline clip-path="url(#clip580)" style="stroke:#000000; stroke-width:4; stroke-opacity:1; fill:none" points="
  235.283,1423.18 2352.76,1423.18 
  "/>
<polyline clip-path="url(#clip580)" style="stroke:#000000; stroke-width:4; stroke-opacity:1; fill:none" points="
  295.211,1423.18 295.211,1407.58 
  "/>
<polyline clip-path="url(#clip580)" style="stroke:#000000; stroke-width:4; stroke-opacity:1; fill:none" points="
  970.462,1423.18 970.462,1407.58 
  "/>
<polyline clip-path="url(#clip580)" style="stroke:#000000; stroke-width:4; stroke-opacity:1; fill:none" points="
  1645.71,1423.18 1645.71,1407.58 
  "/>
<polyline clip-path="url(#clip580)" style="stroke:#000000; stroke-width:4; stroke-opacity:1; fill:none" points="
  2320.96,1423.18 2320.96,1407.58 
  "/>
<path clip-path="url(#clip580)" d="M 0 0 M166.393 1479.92 L182.712 1479.92 L182.712 1483.85 L160.768 1483.85 L160.768 1479.92 Q163.43 1477.16 168.013 1472.53 Q172.619 1467.88 173.8 1466.54 Q176.045 1464.01 176.925 1462.28 Q177.828 1460.52 177.828 1458.83 Q177.828 1456.07 175.883 1454.34 Q173.962 1452.6 170.86 1452.6 Q168.661 1452.6 166.207 1453.37 Q163.777 1454.13 160.999 1455.68 L160.999 1450.96 Q163.823 1449.82 166.277 1449.25 Q168.731 1448.67 170.768 1448.67 Q176.138 1448.67 179.332 1451.35 Q182.527 1454.04 182.527 1458.53 Q182.527 1460.66 181.717 1462.58 Q180.93 1464.48 178.823 1467.07 Q178.244 1467.74 175.143 1470.96 Q172.041 1474.15 166.393 1479.92 Z" fill="#000000" fill-rule="evenodd" fill-opacity="1" /><path clip-path="url(#clip580)" d="M 0 0 M202.527 1452.37 Q198.916 1452.37 197.087 1455.94 Q195.281 1459.48 195.281 1466.61 Q195.281 1473.71 197.087 1477.28 Q198.916 1480.82 202.527 1480.82 Q206.161 1480.82 207.966 1477.28 Q209.795 1473.71 209.795 1466.61 Q209.795 1459.48 207.966 1455.94 Q206.161 1452.37 202.527 1452.37 M202.527 1448.67 Q208.337 1448.67 211.392 1453.27 Q214.471 1457.86 214.471 1466.61 Q214.471 1475.33 211.392 1479.94 Q208.337 1484.52 202.527 1484.52 Q196.716 1484.52 193.638 1479.94 Q190.582 1475.33 190.582 1466.61 Q190.582 1457.86 193.638 1453.27 Q196.716 1448.67 202.527 1448.67 Z" fill="#000000" fill-rule="evenodd" fill-opacity="1" /><path clip-path="url(#clip580)" d="M 0 0 M223.499 1479.92 L231.138 1479.92 L231.138 1453.55 L222.827 1455.22 L222.827 1450.96 L231.091 1449.29 L235.767 1449.29 L235.767 1479.92 L243.406 1479.92 L243.406 1483.85 L223.499 1483.85 L223.499 1479.92 Z" fill="#000000" fill-rule="evenodd" fill-opacity="1" /><path clip-path="url(#clip580)" d="M 0 0 M252.989 1483.13 L252.989 1478.88 Q254.749 1479.71 256.554 1480.15 Q258.36 1480.59 260.096 1480.59 Q264.725 1480.59 267.156 1477.49 Q269.61 1474.36 269.957 1468.02 Q268.614 1470.01 266.554 1471.07 Q264.494 1472.14 261.994 1472.14 Q256.809 1472.14 253.776 1469.01 Q250.767 1465.87 250.767 1460.43 Q250.767 1455.1 253.915 1451.88 Q257.063 1448.67 262.295 1448.67 Q268.29 1448.67 271.438 1453.27 Q274.61 1457.86 274.61 1466.61 Q274.61 1474.78 270.721 1479.66 Q266.855 1484.52 260.304 1484.52 Q258.545 1484.52 256.739 1484.18 Q254.934 1483.83 252.989 1483.13 M262.295 1468.48 Q265.443 1468.48 267.272 1466.33 Q269.124 1464.18 269.124 1460.43 Q269.124 1456.7 267.272 1454.55 Q265.443 1452.37 262.295 1452.37 Q259.147 1452.37 257.295 1454.55 Q255.466 1456.7 255.466 1460.43 Q255.466 1464.18 257.295 1466.33 Q259.147 1468.48 262.295 1468.48 Z" fill="#000000" fill-rule="evenodd" fill-opacity="1" /><path clip-path="url(#clip580)" d="M 0 0 M280.258 1468.97 L292.734 1468.97 L292.734 1472.76 L280.258 1472.76 L280.258 1468.97 Z" fill="#000000" fill-rule="evenodd" fill-opacity="1" /><path clip-path="url(#clip580)" d="M 0 0 M310.119 1452.37 Q306.508 1452.37 304.679 1455.94 Q302.873 1459.48 302.873 1466.61 Q302.873 1473.71 304.679 1477.28 Q306.508 1480.82 310.119 1480.82 Q313.753 1480.82 315.558 1477.28 Q317.387 1473.71 317.387 1466.61 Q317.387 1459.48 315.558 1455.94 Q313.753 1452.37 310.119 1452.37 M310.119 1448.67 Q315.929 1448.67 318.984 1453.27 Q322.063 1457.86 322.063 1466.61 Q322.063 1475.33 318.984 1479.94 Q315.929 1484.52 310.119 1484.52 Q304.309 1484.52 301.23 1479.94 Q298.174 1475.33 298.174 1466.61 Q298.174 1457.86 301.23 1453.27 Q304.309 1448.67 310.119 1448.67 Z" fill="#000000" fill-rule="evenodd" fill-opacity="1" /><path clip-path="url(#clip580)" d="M 0 0 M330.327 1449.29 L348.683 1449.29 L348.683 1453.23 L334.609 1453.23 L334.609 1461.7 Q335.628 1461.35 336.646 1461.19 Q337.665 1461 338.683 1461 Q344.47 1461 347.85 1464.18 Q351.23 1467.35 351.23 1472.76 Q351.23 1478.34 347.757 1481.44 Q344.285 1484.52 337.966 1484.52 Q335.79 1484.52 333.521 1484.15 Q331.276 1483.78 328.869 1483.04 L328.869 1478.34 Q330.952 1479.48 333.174 1480.03 Q335.396 1480.59 337.873 1480.59 Q341.878 1480.59 344.216 1478.48 Q346.554 1476.38 346.554 1472.76 Q346.554 1469.15 344.216 1467.05 Q341.878 1464.94 337.873 1464.94 Q335.998 1464.94 334.123 1465.36 Q332.271 1465.77 330.327 1466.65 L330.327 1449.29 Z" fill="#000000" fill-rule="evenodd" fill-opacity="1" /><path clip-path="url(#clip580)" d="M 0 0 M357.688 1468.97 L370.165 1468.97 L370.165 1472.76 L357.688 1472.76 L357.688 1468.97 Z" fill="#000000" fill-rule="evenodd" fill-opacity="1" /><path clip-path="url(#clip580)" d="M 0 0 M391.715 1465.22 Q395.072 1465.94 396.947 1468.2 Q398.845 1470.47 398.845 1473.81 Q398.845 1478.92 395.327 1481.72 Q391.808 1484.52 385.327 1484.52 Q383.151 1484.52 380.836 1484.08 Q378.544 1483.67 376.091 1482.81 L376.091 1478.3 Q378.035 1479.43 380.35 1480.01 Q382.665 1480.59 385.188 1480.59 Q389.586 1480.59 391.877 1478.85 Q394.192 1477.12 394.192 1473.81 Q394.192 1470.75 392.04 1469.04 Q389.91 1467.3 386.09 1467.3 L382.063 1467.3 L382.063 1463.46 L386.276 1463.46 Q389.725 1463.46 391.553 1462.09 Q393.382 1460.7 393.382 1458.11 Q393.382 1455.45 391.484 1454.04 Q389.609 1452.6 386.09 1452.6 Q384.169 1452.6 381.97 1453.02 Q379.771 1453.44 377.132 1454.31 L377.132 1450.15 Q379.794 1449.41 382.109 1449.04 Q384.447 1448.67 386.507 1448.67 Q391.831 1448.67 394.933 1451.1 Q398.035 1453.5 398.035 1457.63 Q398.035 1460.5 396.391 1462.49 Q394.748 1464.45 391.715 1465.22 Z" fill="#000000" fill-rule="evenodd" fill-opacity="1" /><path clip-path="url(#clip580)" d="M 0 0 M417.711 1452.37 Q414.1 1452.37 412.271 1455.94 Q410.465 1459.48 410.465 1466.61 Q410.465 1473.71 412.271 1477.28 Q414.1 1480.82 417.711 1480.82 Q421.345 1480.82 423.15 1477.28 Q424.979 1473.71 424.979 1466.61 Q424.979 1459.48 423.15 1455.94 Q421.345 1452.37 417.711 1452.37 M417.711 1448.67 Q423.521 1448.67 426.576 1453.27 Q429.655 1457.86 429.655 1466.61 Q429.655 1475.33 426.576 1479.94 Q423.521 1484.52 417.711 1484.52 Q411.901 1484.52 408.822 1479.94 Q405.766 1475.33 405.766 1466.61 Q405.766 1457.86 408.822 1453.27 Q411.901 1448.67 417.711 1448.67 Z" fill="#000000" fill-rule="evenodd" fill-opacity="1" /><path clip-path="url(#clip580)" d="M 0 0 M842.257 1479.92 L858.576 1479.92 L858.576 1483.85 L836.632 1483.85 L836.632 1479.92 Q839.294 1477.16 843.877 1472.53 Q848.483 1467.88 849.664 1466.54 Q851.909 1464.01 852.789 1462.28 Q853.692 1460.52 853.692 1458.83 Q853.692 1456.07 851.747 1454.34 Q849.826 1452.6 846.724 1452.6 Q844.525 1452.6 842.071 1453.37 Q839.641 1454.13 836.863 1455.68 L836.863 1450.96 Q839.687 1449.82 842.141 1449.25 Q844.594 1448.67 846.631 1448.67 Q852.002 1448.67 855.196 1451.35 Q858.391 1454.04 858.391 1458.53 Q858.391 1460.66 857.581 1462.58 Q856.793 1464.48 854.687 1467.07 Q854.108 1467.74 851.006 1470.96 Q847.905 1474.15 842.257 1479.92 Z" fill="#000000" fill-rule="evenodd" fill-opacity="1" /><path clip-path="url(#clip580)" d="M 0 0 M878.391 1452.37 Q874.779 1452.37 872.951 1455.94 Q871.145 1459.48 871.145 1466.61 Q871.145 1473.71 872.951 1477.28 Q874.779 1480.82 878.391 1480.82 Q882.025 1480.82 883.83 1477.28 Q885.659 1473.71 885.659 1466.61 Q885.659 1459.48 883.83 1455.94 Q882.025 1452.37 878.391 1452.37 M878.391 1448.67 Q884.201 1448.67 887.256 1453.27 Q890.335 1457.86 890.335 1466.61 Q890.335 1475.33 887.256 1479.94 Q884.201 1484.52 878.391 1484.52 Q872.58 1484.52 869.502 1479.94 Q866.446 1475.33 866.446 1466.61 Q866.446 1457.86 869.502 1453.27 Q872.58 1448.67 878.391 1448.67 Z" fill="#000000" fill-rule="evenodd" fill-opacity="1" /><path clip-path="url(#clip580)" d="M 0 0 M899.363 1479.92 L907.002 1479.92 L907.002 1453.55 L898.691 1455.22 L898.691 1450.96 L906.955 1449.29 L911.631 1449.29 L911.631 1479.92 L919.27 1479.92 L919.27 1483.85 L899.363 1483.85 L899.363 1479.92 Z" fill="#000000" fill-rule="evenodd" fill-opacity="1" /><path clip-path="url(#clip580)" d="M 0 0 M928.853 1483.13 L928.853 1478.88 Q930.613 1479.71 932.418 1480.15 Q934.224 1480.59 935.96 1480.59 Q940.589 1480.59 943.02 1477.49 Q945.474 1474.36 945.821 1468.02 Q944.478 1470.01 942.418 1471.07 Q940.358 1472.14 937.858 1472.14 Q932.673 1472.14 929.64 1469.01 Q926.631 1465.87 926.631 1460.43 Q926.631 1455.1 929.779 1451.88 Q932.927 1448.67 938.159 1448.67 Q944.154 1448.67 947.302 1453.27 Q950.474 1457.86 950.474 1466.61 Q950.474 1474.78 946.585 1479.66 Q942.719 1484.52 936.168 1484.52 Q934.409 1484.52 932.603 1484.18 Q930.798 1483.83 928.853 1483.13 M938.159 1468.48 Q941.307 1468.48 943.136 1466.33 Q944.987 1464.18 944.987 1460.43 Q944.987 1456.7 943.136 1454.55 Q941.307 1452.37 938.159 1452.37 Q935.011 1452.37 933.159 1454.55 Q931.33 1456.7 931.33 1460.43 Q931.33 1464.18 933.159 1466.33 Q935.011 1468.48 938.159 1468.48 Z" fill="#000000" fill-rule="evenodd" fill-opacity="1" /><path clip-path="url(#clip580)" d="M 0 0 M956.122 1468.97 L968.598 1468.97 L968.598 1472.76 L956.122 1472.76 L956.122 1468.97 Z" fill="#000000" fill-rule="evenodd" fill-opacity="1" /><path clip-path="url(#clip580)" d="M 0 0 M985.983 1452.37 Q982.372 1452.37 980.543 1455.94 Q978.737 1459.48 978.737 1466.61 Q978.737 1473.71 980.543 1477.28 Q982.372 1480.82 985.983 1480.82 Q989.617 1480.82 991.422 1477.28 Q993.251 1473.71 993.251 1466.61 Q993.251 1459.48 991.422 1455.94 Q989.617 1452.37 985.983 1452.37 M985.983 1448.67 Q991.793 1448.67 994.848 1453.27 Q997.927 1457.86 997.927 1466.61 Q997.927 1475.33 994.848 1479.94 Q991.793 1484.52 985.983 1484.52 Q980.172 1484.52 977.094 1479.94 Q974.038 1475.33 974.038 1466.61 Q974.038 1457.86 977.094 1453.27 Q980.172 1448.67 985.983 1448.67 Z" fill="#000000" fill-rule="evenodd" fill-opacity="1" /><path clip-path="url(#clip580)" d="M 0 0 M1006.19 1449.29 L1024.55 1449.29 L1024.55 1453.23 L1010.47 1453.23 L1010.47 1461.7 Q1011.49 1461.35 1012.51 1461.19 Q1013.53 1461 1014.55 1461 Q1020.33 1461 1023.71 1464.18 Q1027.09 1467.35 1027.09 1472.76 Q1027.09 1478.34 1023.62 1481.44 Q1020.15 1484.52 1013.83 1484.52 Q1011.65 1484.52 1009.39 1484.15 Q1007.14 1483.78 1004.73 1483.04 L1004.73 1478.34 Q1006.82 1479.48 1009.04 1480.03 Q1011.26 1480.59 1013.74 1480.59 Q1017.74 1480.59 1020.08 1478.48 Q1022.42 1476.38 1022.42 1472.76 Q1022.42 1469.15 1020.08 1467.05 Q1017.74 1464.94 1013.74 1464.94 Q1011.86 1464.94 1009.99 1465.36 Q1008.14 1465.77 1006.19 1466.65 L1006.19 1449.29 Z" fill="#000000" fill-rule="evenodd" fill-opacity="1" /><path clip-path="url(#clip580)" d="M 0 0 M1033.55 1468.97 L1046.03 1468.97 L1046.03 1472.76 L1033.55 1472.76 L1033.55 1468.97 Z" fill="#000000" fill-rule="evenodd" fill-opacity="1" /><path clip-path="url(#clip580)" d="M 0 0 M1067.58 1465.22 Q1070.94 1465.94 1072.81 1468.2 Q1074.71 1470.47 1074.71 1473.81 Q1074.71 1478.92 1071.19 1481.72 Q1067.67 1484.52 1061.19 1484.52 Q1059.01 1484.52 1056.7 1484.08 Q1054.41 1483.67 1051.95 1482.81 L1051.95 1478.3 Q1053.9 1479.43 1056.21 1480.01 Q1058.53 1480.59 1061.05 1480.59 Q1065.45 1480.59 1067.74 1478.85 Q1070.06 1477.12 1070.06 1473.81 Q1070.06 1470.75 1067.9 1469.04 Q1065.77 1467.3 1061.95 1467.3 L1057.93 1467.3 L1057.93 1463.46 L1062.14 1463.46 Q1065.59 1463.46 1067.42 1462.09 Q1069.25 1460.7 1069.25 1458.11 Q1069.25 1455.45 1067.35 1454.04 Q1065.47 1452.6 1061.95 1452.6 Q1060.03 1452.6 1057.83 1453.02 Q1055.63 1453.44 1053 1454.31 L1053 1450.15 Q1055.66 1449.41 1057.97 1449.04 Q1060.31 1448.67 1062.37 1448.67 Q1067.7 1448.67 1070.8 1451.1 Q1073.9 1453.5 1073.9 1457.63 Q1073.9 1460.5 1072.26 1462.49 Q1070.61 1464.45 1067.58 1465.22 Z" fill="#000000" fill-rule="evenodd" fill-opacity="1" /><path clip-path="url(#clip580)" d="M 0 0 M1084.38 1479.92 L1092.02 1479.92 L1092.02 1453.55 L1083.71 1455.22 L1083.71 1450.96 L1091.98 1449.29 L1096.65 1449.29 L1096.65 1479.92 L1104.29 1479.92 L1104.29 1483.85 L1084.38 1483.85 L1084.38 1479.92 Z" fill="#000000" fill-rule="evenodd" fill-opacity="1" /><path clip-path="url(#clip580)" d="M 0 0 M1517.51 1479.92 L1533.83 1479.92 L1533.83 1483.85 L1511.88 1483.85 L1511.88 1479.92 Q1514.54 1477.16 1519.13 1472.53 Q1523.73 1467.88 1524.91 1466.54 Q1527.16 1464.01 1528.04 1462.28 Q1528.94 1460.52 1528.94 1458.83 Q1528.94 1456.07 1527 1454.34 Q1525.08 1452.6 1521.97 1452.6 Q1519.78 1452.6 1517.32 1453.37 Q1514.89 1454.13 1512.11 1455.68 L1512.11 1450.96 Q1514.94 1449.82 1517.39 1449.25 Q1519.84 1448.67 1521.88 1448.67 Q1527.25 1448.67 1530.45 1451.35 Q1533.64 1454.04 1533.64 1458.53 Q1533.64 1460.66 1532.83 1462.58 Q1532.04 1464.48 1529.94 1467.07 Q1529.36 1467.74 1526.26 1470.96 Q1523.16 1474.15 1517.51 1479.92 Z" fill="#000000" fill-rule="evenodd" fill-opacity="1" /><path clip-path="url(#clip580)" d="M 0 0 M1553.64 1452.37 Q1550.03 1452.37 1548.2 1455.94 Q1546.4 1459.48 1546.4 1466.61 Q1546.4 1473.71 1548.2 1477.28 Q1550.03 1480.82 1553.64 1480.82 Q1557.28 1480.82 1559.08 1477.28 Q1560.91 1473.71 1560.91 1466.61 Q1560.91 1459.48 1559.08 1455.94 Q1557.28 1452.37 1553.64 1452.37 M1553.64 1448.67 Q1559.45 1448.67 1562.51 1453.27 Q1565.59 1457.86 1565.59 1466.61 Q1565.59 1475.33 1562.51 1479.94 Q1559.45 1484.52 1553.64 1484.52 Q1547.83 1484.52 1544.75 1479.94 Q1541.7 1475.33 1541.7 1466.61 Q1541.7 1457.86 1544.75 1453.27 Q1547.83 1448.67 1553.64 1448.67 Z" fill="#000000" fill-rule="evenodd" fill-opacity="1" /><path clip-path="url(#clip580)" d="M 0 0 M1574.61 1479.92 L1582.25 1479.92 L1582.25 1453.55 L1573.94 1455.22 L1573.94 1450.96 L1582.21 1449.29 L1586.88 1449.29 L1586.88 1479.92 L1594.52 1479.92 L1594.52 1483.85 L1574.61 1483.85 L1574.61 1479.92 Z" fill="#000000" fill-rule="evenodd" fill-opacity="1" /><path clip-path="url(#clip580)" d="M 0 0 M1604.1 1483.13 L1604.1 1478.88 Q1605.86 1479.71 1607.67 1480.15 Q1609.47 1480.59 1611.21 1480.59 Q1615.84 1480.59 1618.27 1477.49 Q1620.72 1474.36 1621.07 1468.02 Q1619.73 1470.01 1617.67 1471.07 Q1615.61 1472.14 1613.11 1472.14 Q1607.92 1472.14 1604.89 1469.01 Q1601.88 1465.87 1601.88 1460.43 Q1601.88 1455.1 1605.03 1451.88 Q1608.18 1448.67 1613.41 1448.67 Q1619.4 1448.67 1622.55 1453.27 Q1625.72 1457.86 1625.72 1466.61 Q1625.72 1474.78 1621.84 1479.66 Q1617.97 1484.52 1611.42 1484.52 Q1609.66 1484.52 1607.85 1484.18 Q1606.05 1483.83 1604.1 1483.13 M1613.41 1468.48 Q1616.56 1468.48 1618.39 1466.33 Q1620.24 1464.18 1620.24 1460.43 Q1620.24 1456.7 1618.39 1454.55 Q1616.56 1452.37 1613.41 1452.37 Q1610.26 1452.37 1608.41 1454.55 Q1606.58 1456.7 1606.58 1460.43 Q1606.58 1464.18 1608.41 1466.33 Q1610.26 1468.48 1613.41 1468.48 Z" fill="#000000" fill-rule="evenodd" fill-opacity="1" /><path clip-path="url(#clip580)" d="M 0 0 M1631.37 1468.97 L1643.85 1468.97 L1643.85 1472.76 L1631.37 1472.76 L1631.37 1468.97 Z" fill="#000000" fill-rule="evenodd" fill-opacity="1" /><path clip-path="url(#clip580)" d="M 0 0 M1661.23 1452.37 Q1657.62 1452.37 1655.79 1455.94 Q1653.99 1459.48 1653.99 1466.61 Q1653.99 1473.71 1655.79 1477.28 Q1657.62 1480.82 1661.23 1480.82 Q1664.87 1480.82 1666.67 1477.28 Q1668.5 1473.71 1668.5 1466.61 Q1668.5 1459.48 1666.67 1455.94 Q1664.87 1452.37 1661.23 1452.37 M1661.23 1448.67 Q1667.04 1448.67 1670.1 1453.27 Q1673.18 1457.86 1673.18 1466.61 Q1673.18 1475.33 1670.1 1479.94 Q1667.04 1484.52 1661.23 1484.52 Q1655.42 1484.52 1652.34 1479.94 Q1649.29 1475.33 1649.29 1466.61 Q1649.29 1457.86 1652.34 1453.27 Q1655.42 1448.67 1661.23 1448.67 Z" fill="#000000" fill-rule="evenodd" fill-opacity="1" /><path clip-path="url(#clip580)" d="M 0 0 M1691.97 1464.71 Q1688.83 1464.71 1686.97 1466.86 Q1685.15 1469.01 1685.15 1472.76 Q1685.15 1476.49 1686.97 1478.67 Q1688.83 1480.82 1691.97 1480.82 Q1695.12 1480.82 1696.95 1478.67 Q1698.8 1476.49 1698.8 1472.76 Q1698.8 1469.01 1696.95 1466.86 Q1695.12 1464.71 1691.97 1464.71 M1701.26 1450.06 L1701.26 1454.31 Q1699.5 1453.48 1697.69 1453.04 Q1695.91 1452.6 1694.15 1452.6 Q1689.52 1452.6 1687.07 1455.73 Q1684.64 1458.85 1684.29 1465.17 Q1685.65 1463.16 1687.71 1462.09 Q1689.77 1461 1692.25 1461 Q1697.46 1461 1700.47 1464.18 Q1703.5 1467.32 1703.5 1472.76 Q1703.5 1478.09 1700.35 1481.31 Q1697.21 1484.52 1691.97 1484.52 Q1685.98 1484.52 1682.81 1479.94 Q1679.64 1475.33 1679.64 1466.61 Q1679.64 1458.41 1683.52 1453.55 Q1687.41 1448.67 1693.96 1448.67 Q1695.72 1448.67 1697.51 1449.01 Q1699.31 1449.36 1701.26 1450.06 Z" fill="#000000" fill-rule="evenodd" fill-opacity="1" /><path clip-path="url(#clip580)" d="M 0 0 M1708.8 1468.97 L1721.28 1468.97 L1721.28 1472.76 L1708.8 1472.76 L1708.8 1468.97 Z" fill="#000000" fill-rule="evenodd" fill-opacity="1" /><path clip-path="url(#clip580)" d="M 0 0 M1738.66 1452.37 Q1735.05 1452.37 1733.22 1455.94 Q1731.42 1459.48 1731.42 1466.61 Q1731.42 1473.71 1733.22 1477.28 Q1735.05 1480.82 1738.66 1480.82 Q1742.3 1480.82 1744.1 1477.28 Q1745.93 1473.71 1745.93 1466.61 Q1745.93 1459.48 1744.1 1455.94 Q1742.3 1452.37 1738.66 1452.37 M1738.66 1448.67 Q1744.47 1448.67 1747.53 1453.27 Q1750.61 1457.86 1750.61 1466.61 Q1750.61 1475.33 1747.53 1479.94 Q1744.47 1484.52 1738.66 1484.52 Q1732.85 1484.52 1729.77 1479.94 Q1726.72 1475.33 1726.72 1466.61 Q1726.72 1457.86 1729.77 1453.27 Q1732.85 1448.67 1738.66 1448.67 Z" fill="#000000" fill-rule="evenodd" fill-opacity="1" /><path clip-path="url(#clip580)" d="M 0 0 M1759.64 1479.92 L1767.27 1479.92 L1767.27 1453.55 L1758.96 1455.22 L1758.96 1450.96 L1767.23 1449.29 L1771.9 1449.29 L1771.9 1479.92 L1779.54 1479.92 L1779.54 1483.85 L1759.64 1483.85 L1759.64 1479.92 Z" fill="#000000" fill-rule="evenodd" fill-opacity="1" /><path clip-path="url(#clip580)" d="M 0 0 M2192.94 1479.92 L2209.26 1479.92 L2209.26 1483.85 L2187.32 1483.85 L2187.32 1479.92 Q2189.98 1477.16 2194.56 1472.53 Q2199.17 1467.88 2200.35 1466.54 Q2202.6 1464.01 2203.48 1462.28 Q2204.38 1460.52 2204.38 1458.83 Q2204.38 1456.07 2202.43 1454.34 Q2200.51 1452.6 2197.41 1452.6 Q2195.21 1452.6 2192.76 1453.37 Q2190.33 1454.13 2187.55 1455.68 L2187.55 1450.96 Q2190.37 1449.82 2192.83 1449.25 Q2195.28 1448.67 2197.32 1448.67 Q2202.69 1448.67 2205.88 1451.35 Q2209.08 1454.04 2209.08 1458.53 Q2209.08 1460.66 2208.27 1462.58 Q2207.48 1464.48 2205.37 1467.07 Q2204.79 1467.74 2201.69 1470.96 Q2198.59 1474.15 2192.94 1479.92 Z" fill="#000000" fill-rule="evenodd" fill-opacity="1" /><path clip-path="url(#clip580)" d="M 0 0 M2229.08 1452.37 Q2225.47 1452.37 2223.64 1455.94 Q2221.83 1459.48 2221.83 1466.61 Q2221.83 1473.71 2223.64 1477.28 Q2225.47 1480.82 2229.08 1480.82 Q2232.71 1480.82 2234.52 1477.28 Q2236.35 1473.71 2236.35 1466.61 Q2236.35 1459.48 2234.52 1455.94 Q2232.71 1452.37 2229.08 1452.37 M2229.08 1448.67 Q2234.89 1448.67 2237.94 1453.27 Q2241.02 1457.86 2241.02 1466.61 Q2241.02 1475.33 2237.94 1479.94 Q2234.89 1484.52 2229.08 1484.52 Q2223.27 1484.52 2220.19 1479.94 Q2217.13 1475.33 2217.13 1466.61 Q2217.13 1457.86 2220.19 1453.27 Q2223.27 1448.67 2229.08 1448.67 Z" fill="#000000" fill-rule="evenodd" fill-opacity="1" /><path clip-path="url(#clip580)" d="M 0 0 M2250.05 1479.92 L2257.69 1479.92 L2257.69 1453.55 L2249.38 1455.22 L2249.38 1450.96 L2257.64 1449.29 L2262.32 1449.29 L2262.32 1479.92 L2269.96 1479.92 L2269.96 1483.85 L2250.05 1483.85 L2250.05 1479.92 Z" fill="#000000" fill-rule="evenodd" fill-opacity="1" /><path clip-path="url(#clip580)" d="M 0 0 M2279.54 1483.13 L2279.54 1478.88 Q2281.3 1479.71 2283.1 1480.15 Q2284.91 1480.59 2286.65 1480.59 Q2291.28 1480.59 2293.71 1477.49 Q2296.16 1474.36 2296.51 1468.02 Q2295.16 1470.01 2293.1 1471.07 Q2291.04 1472.14 2288.54 1472.14 Q2283.36 1472.14 2280.33 1469.01 Q2277.32 1465.87 2277.32 1460.43 Q2277.32 1455.1 2280.47 1451.88 Q2283.61 1448.67 2288.84 1448.67 Q2294.84 1448.67 2297.99 1453.27 Q2301.16 1457.86 2301.16 1466.61 Q2301.16 1474.78 2297.27 1479.66 Q2293.41 1484.52 2286.85 1484.52 Q2285.09 1484.52 2283.29 1484.18 Q2281.48 1483.83 2279.54 1483.13 M2288.84 1468.48 Q2291.99 1468.48 2293.82 1466.33 Q2295.67 1464.18 2295.67 1460.43 Q2295.67 1456.7 2293.82 1454.55 Q2291.99 1452.37 2288.84 1452.37 Q2285.7 1452.37 2283.85 1454.55 Q2282.02 1456.7 2282.02 1460.43 Q2282.02 1464.18 2283.85 1466.33 Q2285.7 1468.48 2288.84 1468.48 Z" fill="#000000" fill-rule="evenodd" fill-opacity="1" /><path clip-path="url(#clip580)" d="M 0 0 M2306.81 1468.97 L2319.28 1468.97 L2319.28 1472.76 L2306.81 1472.76 L2306.81 1468.97 Z" fill="#000000" fill-rule="evenodd" fill-opacity="1" /><path clip-path="url(#clip580)" d="M 0 0 M2336.67 1452.37 Q2333.06 1452.37 2331.23 1455.94 Q2329.42 1459.48 2329.42 1466.61 Q2329.42 1473.71 2331.23 1477.28 Q2333.06 1480.82 2336.67 1480.82 Q2340.3 1480.82 2342.11 1477.28 Q2343.94 1473.71 2343.94 1466.61 Q2343.94 1459.48 2342.11 1455.94 Q2340.3 1452.37 2336.67 1452.37 M2336.67 1448.67 Q2342.48 1448.67 2345.53 1453.27 Q2348.61 1457.86 2348.61 1466.61 Q2348.61 1475.33 2345.53 1479.94 Q2342.48 1484.52 2336.67 1484.52 Q2330.86 1484.52 2327.78 1479.94 Q2324.72 1475.33 2324.72 1466.61 Q2324.72 1457.86 2327.78 1453.27 Q2330.86 1448.67 2336.67 1448.67 Z" fill="#000000" fill-rule="evenodd" fill-opacity="1" /><path clip-path="url(#clip580)" d="M 0 0 M2367.41 1464.71 Q2364.26 1464.71 2362.41 1466.86 Q2360.58 1469.01 2360.58 1472.76 Q2360.58 1476.49 2362.41 1478.67 Q2364.26 1480.82 2367.41 1480.82 Q2370.56 1480.82 2372.39 1478.67 Q2374.24 1476.49 2374.24 1472.76 Q2374.24 1469.01 2372.39 1466.86 Q2370.56 1464.71 2367.41 1464.71 M2376.69 1450.06 L2376.69 1454.31 Q2374.93 1453.48 2373.13 1453.04 Q2371.34 1452.6 2369.59 1452.6 Q2364.96 1452.6 2362.5 1455.73 Q2360.07 1458.85 2359.72 1465.17 Q2361.09 1463.16 2363.15 1462.09 Q2365.21 1461 2367.69 1461 Q2372.9 1461 2375.9 1464.18 Q2378.94 1467.32 2378.94 1472.76 Q2378.94 1478.09 2375.79 1481.31 Q2372.64 1484.52 2367.41 1484.52 Q2361.41 1484.52 2358.24 1479.94 Q2355.07 1475.33 2355.07 1466.61 Q2355.07 1458.41 2358.96 1453.55 Q2362.85 1448.67 2369.4 1448.67 Q2371.16 1448.67 2372.94 1449.01 Q2374.75 1449.36 2376.69 1450.06 Z" fill="#000000" fill-rule="evenodd" fill-opacity="1" /><path clip-path="url(#clip580)" d="M 0 0 M2384.24 1468.97 L2396.71 1468.97 L2396.71 1472.76 L2384.24 1472.76 L2384.24 1468.97 Z" fill="#000000" fill-rule="evenodd" fill-opacity="1" /><path clip-path="url(#clip580)" d="M 0 0 M2414.1 1452.37 Q2410.49 1452.37 2408.66 1455.94 Q2406.85 1459.48 2406.85 1466.61 Q2406.85 1473.71 2408.66 1477.28 Q2410.49 1480.82 2414.1 1480.82 Q2417.73 1480.82 2419.54 1477.28 Q2421.37 1473.71 2421.37 1466.61 Q2421.37 1459.48 2419.54 1455.94 Q2417.73 1452.37 2414.1 1452.37 M2414.1 1448.67 Q2419.91 1448.67 2422.96 1453.27 Q2426.04 1457.86 2426.04 1466.61 Q2426.04 1475.33 2422.96 1479.94 Q2419.91 1484.52 2414.1 1484.52 Q2408.29 1484.52 2405.21 1479.94 Q2402.15 1475.33 2402.15 1466.61 Q2402.15 1457.86 2405.21 1453.27 Q2408.29 1448.67 2414.1 1448.67 Z" fill="#000000" fill-rule="evenodd" fill-opacity="1" /><path clip-path="url(#clip580)" d="M 0 0 M2438.29 1479.92 L2454.61 1479.92 L2454.61 1483.85 L2432.66 1483.85 L2432.66 1479.92 Q2435.33 1477.16 2439.91 1472.53 Q2444.52 1467.88 2445.7 1466.54 Q2447.94 1464.01 2448.82 1462.28 Q2449.72 1460.52 2449.72 1458.83 Q2449.72 1456.07 2447.78 1454.34 Q2445.86 1452.6 2442.76 1452.6 Q2440.56 1452.6 2438.1 1453.37 Q2435.67 1454.13 2432.9 1455.68 L2432.9 1450.96 Q2435.72 1449.82 2438.17 1449.25 Q2440.63 1448.67 2442.66 1448.67 Q2448.03 1448.67 2451.23 1451.35 Q2454.42 1454.04 2454.42 1458.53 Q2454.42 1460.66 2453.61 1462.58 Q2452.83 1464.48 2450.72 1467.07 Q2450.14 1467.74 2447.04 1470.96 Q2443.94 1474.15 2438.29 1479.92 Z" fill="#000000" fill-rule="evenodd" fill-opacity="1" /><path clip-path="url(#clip580)" d="M 0 0 M1227.48 1525.81 L1227.48 1562.76 L1235.25 1562.76 Q1245.08 1562.76 1249.63 1558.3 Q1254.22 1553.85 1254.22 1544.24 Q1254.22 1534.69 1249.63 1530.26 Q1245.08 1525.81 1235.25 1525.81 L1227.48 1525.81 M1221.05 1520.52 L1234.26 1520.52 Q1248.07 1520.52 1254.54 1526.28 Q1261 1532.01 1261 1544.24 Q1261 1556.52 1254.5 1562.28 Q1248.01 1568.04 1234.26 1568.04 L1221.05 1568.04 L1221.05 1520.52 Z" fill="#000000" fill-rule="evenodd" fill-opacity="1" /><path clip-path="url(#clip580)" d="M 0 0 M1287.19 1550.12 Q1280.09 1550.12 1277.36 1551.75 Q1274.62 1553.37 1274.62 1557.29 Q1274.62 1560.4 1276.66 1562.25 Q1278.73 1564.07 1282.26 1564.07 Q1287.13 1564.07 1290.06 1560.63 Q1293.02 1557.16 1293.02 1551.43 L1293.02 1550.12 L1287.19 1550.12 M1298.87 1547.71 L1298.87 1568.04 L1293.02 1568.04 L1293.02 1562.63 Q1291.01 1565.88 1288.02 1567.44 Q1285.03 1568.97 1280.7 1568.97 Q1275.22 1568.97 1271.98 1565.91 Q1268.76 1562.82 1268.76 1557.67 Q1268.76 1551.65 1272.77 1548.6 Q1276.82 1545.54 1284.81 1545.54 L1293.02 1545.54 L1293.02 1544.97 Q1293.02 1540.93 1290.34 1538.73 Q1287.7 1536.5 1282.9 1536.5 Q1279.84 1536.5 1276.94 1537.23 Q1274.05 1537.97 1271.37 1539.43 L1271.37 1534.02 Q1274.59 1532.78 1277.61 1532.17 Q1280.64 1531.54 1283.5 1531.54 Q1291.23 1531.54 1295.05 1535.55 Q1298.87 1539.56 1298.87 1547.71 Z" fill="#000000" fill-rule="evenodd" fill-opacity="1" /><path clip-path="url(#clip580)" d="M 0 0 M1316.73 1522.27 L1316.73 1532.4 L1328.79 1532.4 L1328.79 1536.95 L1316.73 1536.95 L1316.73 1556.3 Q1316.73 1560.66 1317.91 1561.9 Q1319.12 1563.14 1322.78 1563.14 L1328.79 1563.14 L1328.79 1568.04 L1322.78 1568.04 Q1316 1568.04 1313.42 1565.53 Q1310.84 1562.98 1310.84 1556.3 L1310.84 1536.95 L1306.54 1536.95 L1306.54 1532.4 L1310.84 1532.4 L1310.84 1522.27 L1316.73 1522.27 Z" fill="#000000" fill-rule="evenodd" fill-opacity="1" /><path clip-path="url(#clip580)" d="M 0 0 M1366.99 1548.76 L1366.99 1551.62 L1340.06 1551.62 Q1340.44 1557.67 1343.69 1560.85 Q1346.97 1564 1352.79 1564 Q1356.16 1564 1359.32 1563.17 Q1362.5 1562.35 1365.62 1560.69 L1365.62 1566.23 Q1362.47 1567.57 1359.16 1568.27 Q1355.85 1568.97 1352.44 1568.97 Q1343.91 1568.97 1338.91 1564 Q1333.95 1559.04 1333.95 1550.57 Q1333.95 1541.82 1338.66 1536.69 Q1343.4 1531.54 1351.42 1531.54 Q1358.62 1531.54 1362.78 1536.18 Q1366.99 1540.8 1366.99 1548.76 M1361.13 1547.04 Q1361.07 1542.23 1358.42 1539.37 Q1355.81 1536.5 1351.49 1536.5 Q1346.58 1536.5 1343.62 1539.27 Q1340.7 1542.04 1340.25 1547.07 L1361.13 1547.04 Z" fill="#000000" fill-rule="evenodd" fill-opacity="1" /><polyline clip-path="url(#clip582)" style="stroke:#000000; stroke-width:2; stroke-opacity:0.1; fill:none" points="
  235.283,1166.26 2352.76,1166.26 
  "/>
<polyline clip-path="url(#clip582)" style="stroke:#000000; stroke-width:2; stroke-opacity:0.1; fill:none" points="
  235.283,907.697 2352.76,907.697 
  "/>
<polyline clip-path="url(#clip582)" style="stroke:#000000; stroke-width:2; stroke-opacity:0.1; fill:none" points="
  235.283,649.137 2352.76,649.137 
  "/>
<polyline clip-path="url(#clip582)" style="stroke:#000000; stroke-width:2; stroke-opacity:0.1; fill:none" points="
  235.283,390.577 2352.76,390.577 
  "/>
<polyline clip-path="url(#clip582)" style="stroke:#000000; stroke-width:2; stroke-opacity:0.1; fill:none" points="
  235.283,132.017 2352.76,132.017 
  "/>
<polyline clip-path="url(#clip580)" style="stroke:#000000; stroke-width:4; stroke-opacity:1; fill:none" points="
  235.283,1423.18 235.283,123.472 
  "/>
<polyline clip-path="url(#clip580)" style="stroke:#000000; stroke-width:4; stroke-opacity:1; fill:none" points="
  235.283,1166.26 260.693,1166.26 
  "/>
<polyline clip-path="url(#clip580)" style="stroke:#000000; stroke-width:4; stroke-opacity:1; fill:none" points="
  235.283,907.697 260.693,907.697 
  "/>
<polyline clip-path="url(#clip580)" style="stroke:#000000; stroke-width:4; stroke-opacity:1; fill:none" points="
  235.283,649.137 260.693,649.137 
  "/>
<polyline clip-path="url(#clip580)" style="stroke:#000000; stroke-width:4; stroke-opacity:1; fill:none" points="
  235.283,390.577 260.693,390.577 
  "/>
<polyline clip-path="url(#clip580)" style="stroke:#000000; stroke-width:4; stroke-opacity:1; fill:none" points="
  235.283,132.017 260.693,132.017 
  "/>
<path clip-path="url(#clip580)" d="M 0 0 M117.825 1179.6 L125.464 1179.6 L125.464 1153.24 L117.154 1154.9 L117.154 1150.64 L125.418 1148.98 L130.093 1148.98 L130.093 1179.6 L137.732 1179.6 L137.732 1183.54 L117.825 1183.54 L117.825 1179.6 Z" fill="#000000" fill-rule="evenodd" fill-opacity="1" /><path clip-path="url(#clip580)" d="M 0 0 M157.177 1152.06 Q153.566 1152.06 151.737 1155.62 Q149.931 1159.16 149.931 1166.29 Q149.931 1173.4 151.737 1176.96 Q153.566 1180.51 157.177 1180.51 Q160.811 1180.51 162.616 1176.96 Q164.445 1173.4 164.445 1166.29 Q164.445 1159.16 162.616 1155.62 Q160.811 1152.06 157.177 1152.06 M157.177 1148.35 Q162.987 1148.35 166.042 1152.96 Q169.121 1157.54 169.121 1166.29 Q169.121 1175.02 166.042 1179.63 Q162.987 1184.21 157.177 1184.21 Q151.366 1184.21 148.288 1179.63 Q145.232 1175.02 145.232 1166.29 Q145.232 1157.54 148.288 1152.96 Q151.366 1148.35 157.177 1148.35 Z" fill="#000000" fill-rule="evenodd" fill-opacity="1" /><path clip-path="url(#clip580)" d="M 0 0 M187.338 1152.06 Q183.727 1152.06 181.899 1155.62 Q180.093 1159.16 180.093 1166.29 Q180.093 1173.4 181.899 1176.96 Q183.727 1180.51 187.338 1180.51 Q190.973 1180.51 192.778 1176.96 Q194.607 1173.4 194.607 1166.29 Q194.607 1159.16 192.778 1155.62 Q190.973 1152.06 187.338 1152.06 M187.338 1148.35 Q193.149 1148.35 196.204 1152.96 Q199.283 1157.54 199.283 1166.29 Q199.283 1175.02 196.204 1179.63 Q193.149 1184.21 187.338 1184.21 Q181.528 1184.21 178.45 1179.63 Q175.394 1175.02 175.394 1166.29 Q175.394 1157.54 178.45 1152.96 Q181.528 1148.35 187.338 1148.35 Z" fill="#000000" fill-rule="evenodd" fill-opacity="1" /><path clip-path="url(#clip580)" d="M 0 0 M121.043 921.042 L137.362 921.042 L137.362 924.977 L115.418 924.977 L115.418 921.042 Q118.08 918.288 122.663 913.658 Q127.269 909.005 128.45 907.663 Q130.695 905.14 131.575 903.403 Q132.478 901.644 132.478 899.954 Q132.478 897.2 130.533 895.464 Q128.612 893.728 125.51 893.728 Q123.311 893.728 120.857 894.492 Q118.427 895.255 115.649 896.806 L115.649 892.084 Q118.473 890.95 120.927 890.371 Q123.38 889.792 125.418 889.792 Q130.788 889.792 133.982 892.478 Q137.177 895.163 137.177 899.654 Q137.177 901.783 136.367 903.704 Q135.579 905.603 133.473 908.195 Q132.894 908.866 129.792 912.084 Q126.691 915.278 121.043 921.042 Z" fill="#000000" fill-rule="evenodd" fill-opacity="1" /><path clip-path="url(#clip580)" d="M 0 0 M157.177 893.496 Q153.566 893.496 151.737 897.061 Q149.931 900.603 149.931 907.732 Q149.931 914.839 151.737 918.403 Q153.566 921.945 157.177 921.945 Q160.811 921.945 162.616 918.403 Q164.445 914.839 164.445 907.732 Q164.445 900.603 162.616 897.061 Q160.811 893.496 157.177 893.496 M157.177 889.792 Q162.987 889.792 166.042 894.399 Q169.121 898.982 169.121 907.732 Q169.121 916.459 166.042 921.065 Q162.987 925.649 157.177 925.649 Q151.366 925.649 148.288 921.065 Q145.232 916.459 145.232 907.732 Q145.232 898.982 148.288 894.399 Q151.366 889.792 157.177 889.792 Z" fill="#000000" fill-rule="evenodd" fill-opacity="1" /><path clip-path="url(#clip580)" d="M 0 0 M187.338 893.496 Q183.727 893.496 181.899 897.061 Q180.093 900.603 180.093 907.732 Q180.093 914.839 181.899 918.403 Q183.727 921.945 187.338 921.945 Q190.973 921.945 192.778 918.403 Q194.607 914.839 194.607 907.732 Q194.607 900.603 192.778 897.061 Q190.973 893.496 187.338 893.496 M187.338 889.792 Q193.149 889.792 196.204 894.399 Q199.283 898.982 199.283 907.732 Q199.283 916.459 196.204 921.065 Q193.149 925.649 187.338 925.649 Q181.528 925.649 178.45 921.065 Q175.394 916.459 175.394 907.732 Q175.394 898.982 178.45 894.399 Q181.528 889.792 187.338 889.792 Z" fill="#000000" fill-rule="evenodd" fill-opacity="1" /><path clip-path="url(#clip580)" d="M 0 0 M131.181 647.783 Q134.538 648.501 136.413 650.769 Q138.311 653.038 138.311 656.371 Q138.311 661.487 134.792 664.288 Q131.274 667.089 124.793 667.089 Q122.617 667.089 120.302 666.649 Q118.01 666.232 115.556 665.376 L115.556 660.862 Q117.501 661.996 119.816 662.575 Q122.13 663.154 124.654 663.154 Q129.052 663.154 131.343 661.417 Q133.658 659.681 133.658 656.371 Q133.658 653.316 131.505 651.603 Q129.376 649.867 125.556 649.867 L121.529 649.867 L121.529 646.024 L125.742 646.024 Q129.191 646.024 131.019 644.658 Q132.848 643.269 132.848 640.677 Q132.848 638.015 130.95 636.603 Q129.075 635.168 125.556 635.168 Q123.635 635.168 121.436 635.584 Q119.237 636.001 116.598 636.881 L116.598 632.714 Q119.26 631.973 121.575 631.603 Q123.913 631.232 125.973 631.232 Q131.297 631.232 134.399 633.663 Q137.501 636.07 137.501 640.191 Q137.501 643.061 135.857 645.052 Q134.214 647.019 131.181 647.783 Z" fill="#000000" fill-rule="evenodd" fill-opacity="1" /><path clip-path="url(#clip580)" d="M 0 0 M157.177 634.936 Q153.566 634.936 151.737 638.501 Q149.931 642.043 149.931 649.172 Q149.931 656.279 151.737 659.843 Q153.566 663.385 157.177 663.385 Q160.811 663.385 162.616 659.843 Q164.445 656.279 164.445 649.172 Q164.445 642.043 162.616 638.501 Q160.811 634.936 157.177 634.936 M157.177 631.232 Q162.987 631.232 166.042 635.839 Q169.121 640.422 169.121 649.172 Q169.121 657.899 166.042 662.505 Q162.987 667.089 157.177 667.089 Q151.366 667.089 148.288 662.505 Q145.232 657.899 145.232 649.172 Q145.232 640.422 148.288 635.839 Q151.366 631.232 157.177 631.232 Z" fill="#000000" fill-rule="evenodd" fill-opacity="1" /><path clip-path="url(#clip580)" d="M 0 0 M187.338 634.936 Q183.727 634.936 181.899 638.501 Q180.093 642.043 180.093 649.172 Q180.093 656.279 181.899 659.843 Q183.727 663.385 187.338 663.385 Q190.973 663.385 192.778 659.843 Q194.607 656.279 194.607 649.172 Q194.607 642.043 192.778 638.501 Q190.973 634.936 187.338 634.936 M187.338 631.232 Q193.149 631.232 196.204 635.839 Q199.283 640.422 199.283 649.172 Q199.283 657.899 196.204 662.505 Q193.149 667.089 187.338 667.089 Q181.528 667.089 178.45 662.505 Q175.394 657.899 175.394 649.172 Q175.394 640.422 178.45 635.839 Q181.528 631.232 187.338 631.232 Z" fill="#000000" fill-rule="evenodd" fill-opacity="1" /><path clip-path="url(#clip580)" d="M 0 0 M129.862 377.371 L118.056 395.82 L129.862 395.82 L129.862 377.371 M128.635 373.297 L134.515 373.297 L134.515 395.82 L139.445 395.82 L139.445 399.709 L134.515 399.709 L134.515 407.857 L129.862 407.857 L129.862 399.709 L114.26 399.709 L114.26 395.195 L128.635 373.297 Z" fill="#000000" fill-rule="evenodd" fill-opacity="1" /><path clip-path="url(#clip580)" d="M 0 0 M157.177 376.376 Q153.566 376.376 151.737 379.941 Q149.931 383.483 149.931 390.612 Q149.931 397.719 151.737 401.283 Q153.566 404.825 157.177 404.825 Q160.811 404.825 162.616 401.283 Q164.445 397.719 164.445 390.612 Q164.445 383.483 162.616 379.941 Q160.811 376.376 157.177 376.376 M157.177 372.672 Q162.987 372.672 166.042 377.279 Q169.121 381.862 169.121 390.612 Q169.121 399.339 166.042 403.945 Q162.987 408.529 157.177 408.529 Q151.366 408.529 148.288 403.945 Q145.232 399.339 145.232 390.612 Q145.232 381.862 148.288 377.279 Q151.366 372.672 157.177 372.672 Z" fill="#000000" fill-rule="evenodd" fill-opacity="1" /><path clip-path="url(#clip580)" d="M 0 0 M187.338 376.376 Q183.727 376.376 181.899 379.941 Q180.093 383.483 180.093 390.612 Q180.093 397.719 181.899 401.283 Q183.727 404.825 187.338 404.825 Q190.973 404.825 192.778 401.283 Q194.607 397.719 194.607 390.612 Q194.607 383.483 192.778 379.941 Q190.973 376.376 187.338 376.376 M187.338 372.672 Q193.149 372.672 196.204 377.279 Q199.283 381.862 199.283 390.612 Q199.283 399.339 196.204 403.945 Q193.149 408.529 187.338 408.529 Q181.528 408.529 178.45 403.945 Q175.394 399.339 175.394 390.612 Q175.394 381.862 178.45 377.279 Q181.528 372.672 187.338 372.672 Z" fill="#000000" fill-rule="evenodd" fill-opacity="1" /><path clip-path="url(#clip580)" d="M 0 0 M117.061 114.737 L135.417 114.737 L135.417 118.673 L121.343 118.673 L121.343 127.145 Q122.362 126.798 123.38 126.636 Q124.399 126.45 125.418 126.45 Q131.205 126.45 134.584 129.622 Q137.964 132.793 137.964 138.21 Q137.964 143.788 134.492 146.89 Q131.019 149.969 124.7 149.969 Q122.524 149.969 120.255 149.598 Q118.01 149.228 115.603 148.487 L115.603 143.788 Q117.686 144.922 119.908 145.478 Q122.13 146.034 124.607 146.034 Q128.612 146.034 130.95 143.927 Q133.288 141.821 133.288 138.21 Q133.288 134.598 130.95 132.492 Q128.612 130.385 124.607 130.385 Q122.732 130.385 120.857 130.802 Q119.006 131.219 117.061 132.098 L117.061 114.737 Z" fill="#000000" fill-rule="evenodd" fill-opacity="1" /><path clip-path="url(#clip580)" d="M 0 0 M157.177 117.816 Q153.566 117.816 151.737 121.381 Q149.931 124.923 149.931 132.052 Q149.931 139.159 151.737 142.723 Q153.566 146.265 157.177 146.265 Q160.811 146.265 162.616 142.723 Q164.445 139.159 164.445 132.052 Q164.445 124.923 162.616 121.381 Q160.811 117.816 157.177 117.816 M157.177 114.112 Q162.987 114.112 166.042 118.719 Q169.121 123.302 169.121 132.052 Q169.121 140.779 166.042 145.385 Q162.987 149.969 157.177 149.969 Q151.366 149.969 148.288 145.385 Q145.232 140.779 145.232 132.052 Q145.232 123.302 148.288 118.719 Q151.366 114.112 157.177 114.112 Z" fill="#000000" fill-rule="evenodd" fill-opacity="1" /><path clip-path="url(#clip580)" d="M 0 0 M187.338 117.816 Q183.727 117.816 181.899 121.381 Q180.093 124.923 180.093 132.052 Q180.093 139.159 181.899 142.723 Q183.727 146.265 187.338 146.265 Q190.973 146.265 192.778 142.723 Q194.607 139.159 194.607 132.052 Q194.607 124.923 192.778 121.381 Q190.973 117.816 187.338 117.816 M187.338 114.112 Q193.149 114.112 196.204 118.719 Q199.283 123.302 199.283 132.052 Q199.283 140.779 196.204 145.385 Q193.149 149.969 187.338 149.969 Q181.528 149.969 178.45 145.385 Q175.394 140.779 175.394 132.052 Q175.394 123.302 178.45 118.719 Q181.528 114.112 187.338 114.112 Z" fill="#000000" fill-rule="evenodd" fill-opacity="1" /><path clip-path="url(#clip580)" d="M 0 0 M21.7677 979.591 L39.6235 979.591 L39.6235 971.506 Q39.6235 967.019 37.3 964.568 Q34.9765 962.117 30.6797 962.117 Q26.4147 962.117 24.0912 964.568 Q21.7677 967.019 21.7677 971.506 L21.7677 979.591 M16.4842 986.02 L16.4842 971.506 Q16.4842 963.517 20.1126 959.443 Q23.7092 955.337 30.6797 955.337 Q37.7138 955.337 41.3104 959.443 Q44.907 963.517 44.907 971.506 L44.907 979.591 L64.0042 979.591 L64.0042 986.02 L16.4842 986.02 Z" fill="#000000" fill-rule="evenodd" fill-opacity="1" /><path clip-path="url(#clip580)" d="M 0 0 M16.4842 946.712 L16.4842 937.132 L48.8219 925.005 L16.4842 912.815 L16.4842 903.234 L64.0042 903.234 L64.0042 909.504 L22.277 909.504 L54.8694 921.758 L54.8694 928.22 L22.277 940.474 L64.0042 940.474 L64.0042 946.712 L16.4842 946.712 Z" fill="#000000" fill-rule="evenodd" fill-opacity="1" /><path clip-path="url(#clip580)" d="M 0 0 M58.5933 884.36 L58.5933 861.921 L64.0042 861.921 L64.0042 892.094 L58.5933 892.094 Q54.8057 888.434 48.44 882.132 Q42.0425 875.798 40.1964 874.175 Q36.7271 871.087 34.34 869.878 Q31.921 868.637 29.5975 868.637 Q25.8099 868.637 23.4228 871.31 Q21.0356 873.952 21.0356 878.217 Q21.0356 881.241 22.086 884.614 Q23.1363 887.956 25.2688 891.776 L18.7758 891.776 Q17.2162 887.893 16.4205 884.519 Q15.6248 881.145 15.6248 878.344 Q15.6248 870.96 19.3169 866.568 Q23.009 862.175 29.1837 862.175 Q32.112 862.175 34.7537 863.289 Q37.3637 864.372 40.9285 867.268 Q41.8515 868.064 46.2757 872.329 Q50.668 876.594 58.5933 884.36 Z" fill="#000000" fill-rule="evenodd" fill-opacity="1" /><path clip-path="url(#clip580)" d="M 0 0 M55.9197 848.425 L55.9197 841.71 L64.0042 841.71 L64.0042 848.425 L55.9197 848.425 Z" fill="#000000" fill-rule="evenodd" fill-opacity="1" /><path clip-path="url(#clip580)" d="M 0 0 M16.4842 827.641 L16.4842 802.401 L21.895 802.401 L21.895 821.753 L33.5443 821.753 Q33.0668 820.353 32.844 818.952 Q32.5894 817.552 32.5894 816.151 Q32.5894 808.194 36.9499 803.547 Q41.3104 798.9 48.7583 798.9 Q56.429 798.9 60.694 803.674 Q64.9272 808.449 64.9272 817.138 Q64.9272 820.13 64.4179 823.249 Q63.9087 826.336 62.8902 829.647 L56.429 829.647 Q57.9886 826.782 58.7524 823.726 Q59.5163 820.671 59.5163 817.265 Q59.5163 811.759 56.6199 808.544 Q53.7235 805.33 48.7583 805.33 Q43.793 805.33 40.8966 808.544 Q38.0002 811.759 38.0002 817.265 Q38.0002 819.843 38.5732 822.421 Q39.1461 824.968 40.3556 827.641 L16.4842 827.641 Z" fill="#000000" fill-rule="evenodd" fill-opacity="1" /><path clip-path="url(#clip580)" d="M 0 0 M55.9197 785.564 L55.9197 778.848 L61.3942 778.848 L71.5793 784.068 L71.5793 788.174 L61.3942 785.564 L55.9197 785.564 Z" fill="#000000" fill-rule="evenodd" fill-opacity="1" /><path clip-path="url(#clip580)" d="M 0 0 M77.5631 746.224 L28.3562 746.224 L28.3562 740.368 L50.5089 740.368 Q55.124 740.368 57.4793 738.171 Q59.8346 735.975 59.8346 731.678 Q59.8346 726.968 57.161 724.612 Q54.4874 722.225 49.1402 722.225 L28.3562 722.225 L28.3562 716.369 L55.7924 716.369 Q57.7021 716.369 58.6251 715.828 Q59.5163 715.255 59.5163 714.077 Q59.5163 713.791 59.3572 713.281 Q59.1662 712.772 58.7843 711.881 L63.4949 711.881 Q64.227 713.186 64.5771 714.364 Q64.9272 715.509 64.9272 716.623 Q64.9272 718.82 63.6859 720.125 Q62.4446 721.43 59.8983 721.907 Q62.4127 723.498 63.6859 725.822 Q64.9272 728.114 64.9272 731.233 Q64.9272 734.479 63.6859 736.771 Q62.4446 739.031 59.9619 740.368 L77.5631 740.368 L77.5631 746.224 Z" fill="#000000" fill-rule="evenodd" fill-opacity="1" /><path clip-path="url(#clip580)" d="M 0 0 M45.7664 680.689 Q39.4007 680.689 35.8996 683.331 Q32.3984 685.941 32.3984 690.683 Q32.3984 695.394 35.8996 698.036 Q39.4007 700.646 45.7664 700.646 Q52.1003 700.646 55.6014 698.036 Q59.1026 695.394 59.1026 690.683 Q59.1026 685.941 55.6014 683.331 Q52.1003 680.689 45.7664 680.689 M59.58 674.833 Q68.683 674.833 73.1071 678.875 Q77.5631 682.917 77.5631 691.256 Q77.5631 694.343 77.0857 697.081 Q76.6401 699.818 75.6852 702.396 L69.9879 702.396 Q71.3884 699.818 72.0568 697.304 Q72.7252 694.789 72.7252 692.179 Q72.7252 686.418 69.7015 683.554 Q66.7096 680.689 60.6303 680.689 L57.7339 680.689 Q60.885 682.503 62.4446 685.336 Q64.0042 688.169 64.0042 692.115 Q64.0042 698.672 59.0071 702.683 Q54.01 706.693 45.7664 706.693 Q37.491 706.693 32.4939 702.683 Q27.4968 698.672 27.4968 692.115 Q27.4968 688.169 29.0564 685.336 Q30.616 682.503 33.7671 680.689 L28.3562 680.689 L28.3562 674.833 L59.58 674.833 Z" fill="#000000" fill-rule="evenodd" fill-opacity="1" /><path clip-path="url(#clip580)" d="M 0 0 M16.4842 652.362 L16.4842 646.951 L70.0516 663.502 L70.0516 668.912 L16.4842 652.362 Z" fill="#000000" fill-rule="evenodd" fill-opacity="1" /><path clip-path="url(#clip580)" d="M 0 0 M35.1993 613.053 Q31.2526 610.857 29.3747 607.802 Q27.4968 604.746 27.4968 600.608 Q27.4968 595.038 31.4117 592.015 Q35.2948 588.991 42.4881 588.991 L64.0042 588.991 L64.0042 594.879 L42.679 594.879 Q37.5546 594.879 35.072 596.694 Q32.5894 598.508 32.5894 602.232 Q32.5894 606.783 35.6131 609.425 Q38.6368 612.067 43.8567 612.067 L64.0042 612.067 L64.0042 617.955 L42.679 617.955 Q37.5228 617.955 35.072 619.769 Q32.5894 621.583 32.5894 625.371 Q32.5894 629.859 35.6449 632.501 Q38.6686 635.142 43.8567 635.142 L64.0042 635.142 L64.0042 641.031 L28.3562 641.031 L28.3562 635.142 L33.8944 635.142 Q30.616 633.137 29.0564 630.336 Q27.4968 627.535 27.4968 623.684 Q27.4968 619.801 29.4702 617.096 Q31.4436 614.358 35.1993 613.053 Z" fill="#000000" fill-rule="evenodd" fill-opacity="1" /><path clip-path="url(#clip580)" d="M 0 0 M28.3562 566.775 Q28.9291 563.846 30.6797 562.255 Q32.3984 560.632 35.0084 560.632 Q38.9551 560.632 41.0876 563.656 Q43.2201 566.679 43.2201 572.313 Q43.2201 574.127 42.9018 576.132 Q42.5517 578.106 41.9152 580.334 L38.0639 580.334 Q38.9233 578.679 39.337 576.801 Q39.7508 574.891 39.7508 572.758 Q39.7508 569.289 38.5095 567.379 Q37.2364 565.47 35.0084 565.47 Q32.6531 565.47 31.4436 567.252 Q30.2341 569.003 30.2341 572.44 L30.2341 575.177 L26.7966 575.177 L26.7966 572.186 Q26.7966 569.194 25.8099 567.666 Q24.7914 566.106 22.8817 566.106 Q21.0356 566.106 20.0808 567.698 Q19.0941 569.289 19.0941 572.313 Q19.0941 573.586 19.3806 575.209 Q19.667 576.833 20.3991 579.411 L16.7388 579.411 Q16.1977 577.087 15.9112 575.05 Q15.6248 573.013 15.6248 571.263 Q15.6248 566.679 17.5027 564.006 Q19.3806 561.3 22.5316 561.3 Q24.7277 561.3 26.2555 562.732 Q27.7833 564.165 28.3562 566.775 Z" fill="#000000" fill-rule="evenodd" fill-opacity="1" /><path clip-path="url(#clip580)" d="M 0 0 M596.676 12.096 L634.917 12.096 L634.917 18.9825 L604.859 18.9825 L604.859 36.8875 L633.661 36.8875 L633.661 43.7741 L604.859 43.7741 L604.859 65.6895 L635.646 65.6895 L635.646 72.576 L596.676 72.576 L596.676 12.096 Z" fill="#000000" fill-rule="evenodd" fill-opacity="1" /><path clip-path="url(#clip580)" d="M 0 0 M671.74 9.54393 L671.74 15.7418 L664.61 15.7418 Q660.6 15.7418 659.02 17.3622 Q657.481 18.9825 657.481 23.1955 L657.481 27.2059 L669.755 27.2059 L669.755 32.9987 L657.481 32.9987 L657.481 72.576 L649.986 72.576 L649.986 32.9987 L642.857 32.9987 L642.857 27.2059 L649.986 27.2059 L649.986 24.0462 Q649.986 16.471 653.511 13.0277 Q657.035 9.54393 664.691 9.54393 L671.74 9.54393 Z" fill="#000000" fill-rule="evenodd" fill-opacity="1" /><path clip-path="url(#clip580)" d="M 0 0 M700.947 9.54393 L700.947 15.7418 L693.817 15.7418 Q689.807 15.7418 688.227 17.3622 Q686.688 18.9825 686.688 23.1955 L686.688 27.2059 L698.962 27.2059 L698.962 32.9987 L686.688 32.9987 L686.688 72.576 L679.193 72.576 L679.193 32.9987 L672.064 32.9987 L672.064 27.2059 L679.193 27.2059 L679.193 24.0462 Q679.193 16.471 682.718 13.0277 Q686.242 9.54393 693.898 9.54393 L700.947 9.54393 Z" fill="#000000" fill-rule="evenodd" fill-opacity="1" /><path clip-path="url(#clip580)" d="M 0 0 M745.993 48.0275 L745.993 51.6733 L711.722 51.6733 Q712.208 59.3701 716.34 63.421 Q720.513 67.4314 727.926 67.4314 Q732.22 67.4314 736.23 66.3781 Q740.281 65.3249 744.251 63.2184 L744.251 70.267 Q740.241 71.9684 736.028 72.8596 Q731.815 73.7508 727.48 73.7508 Q716.624 73.7508 710.264 67.4314 Q703.944 61.1119 703.944 50.3365 Q703.944 39.1965 709.94 32.6746 Q715.976 26.1121 726.184 26.1121 Q735.339 26.1121 740.646 32.0264 Q745.993 37.9003 745.993 48.0275 M738.539 45.84 Q738.458 39.7232 735.096 36.0774 Q731.774 32.4315 726.265 32.4315 Q720.027 32.4315 716.259 35.9558 Q712.532 39.4801 711.965 45.8805 L738.539 45.84 Z" fill="#000000" fill-rule="evenodd" fill-opacity="1" /><path clip-path="url(#clip580)" d="M 0 0 M790.877 28.9478 L790.877 35.9153 Q787.717 34.1734 784.517 33.3227 Q781.357 32.4315 778.116 32.4315 Q770.865 32.4315 766.855 37.0496 Q762.845 41.6271 762.845 49.9314 Q762.845 58.2358 766.855 62.8538 Q770.865 67.4314 778.116 67.4314 Q781.357 67.4314 784.517 66.5807 Q787.717 65.6895 790.877 63.9476 L790.877 70.8341 Q787.758 72.2924 784.395 73.0216 Q781.074 73.7508 777.306 73.7508 Q767.058 73.7508 761.022 67.3098 Q754.986 60.8689 754.986 49.9314 Q754.986 38.832 761.062 32.472 Q767.179 26.1121 777.792 26.1121 Q781.236 26.1121 784.517 26.8413 Q787.798 27.5299 790.877 28.9478 Z" fill="#000000" fill-rule="evenodd" fill-opacity="1" /><path clip-path="url(#clip580)" d="M 0 0 M811.212 14.324 L811.212 27.2059 L826.565 27.2059 L826.565 32.9987 L811.212 32.9987 L811.212 57.6282 Q811.212 63.1779 812.711 64.7578 Q814.251 66.3376 818.909 66.3376 L826.565 66.3376 L826.565 72.576 L818.909 72.576 Q810.281 72.576 806.999 69.3758 Q803.718 66.1351 803.718 57.6282 L803.718 32.9987 L798.249 32.9987 L798.249 27.2059 L803.718 27.2059 L803.718 14.324 L811.212 14.324 Z" fill="#000000" fill-rule="evenodd" fill-opacity="1" /><path clip-path="url(#clip580)" d="M 0 0 M836.368 27.2059 L843.822 27.2059 L843.822 72.576 L836.368 72.576 L836.368 27.2059 M836.368 9.54393 L843.822 9.54393 L843.822 18.9825 L836.368 18.9825 L836.368 9.54393 Z" fill="#000000" fill-rule="evenodd" fill-opacity="1" /><path clip-path="url(#clip580)" d="M 0 0 M854.071 27.2059 L861.97 27.2059 L876.148 65.2844 L890.327 27.2059 L898.226 27.2059 L881.212 72.576 L871.085 72.576 L854.071 27.2059 Z" fill="#000000" fill-rule="evenodd" fill-opacity="1" /><path clip-path="url(#clip580)" d="M 0 0 M947.323 48.0275 L947.323 51.6733 L913.052 51.6733 Q913.538 59.3701 917.67 63.421 Q921.843 67.4314 929.256 67.4314 Q933.55 67.4314 937.56 66.3781 Q941.611 65.3249 945.581 63.2184 L945.581 70.267 Q941.57 71.9684 937.358 72.8596 Q933.145 73.7508 928.81 73.7508 Q917.954 73.7508 911.594 67.4314 Q905.274 61.1119 905.274 50.3365 Q905.274 39.1965 911.27 32.6746 Q917.306 26.1121 927.514 26.1121 Q936.669 26.1121 941.976 32.0264 Q947.323 37.9003 947.323 48.0275 M939.869 45.84 Q939.788 39.7232 936.426 36.0774 Q933.104 32.4315 927.595 32.4315 Q921.356 32.4315 917.589 35.9558 Q913.862 39.4801 913.295 45.8805 L939.869 45.84 Z" fill="#000000" fill-rule="evenodd" fill-opacity="1" /><path clip-path="url(#clip580)" d="M 0 0 M980.581 27.2059 L988.48 27.2059 L1002.66 65.2844 L1016.84 27.2059 L1024.74 27.2059 L1007.72 72.576 L997.594 72.576 L980.581 27.2059 Z" fill="#000000" fill-rule="evenodd" fill-opacity="1" /><path clip-path="url(#clip580)" d="M 0 0 M1073.83 48.0275 L1073.83 51.6733 L1039.56 51.6733 Q1040.05 59.3701 1044.18 63.421 Q1048.35 67.4314 1055.77 67.4314 Q1060.06 67.4314 1064.07 66.3781 Q1068.12 65.3249 1072.09 63.2184 L1072.09 70.267 Q1068.08 71.9684 1063.87 72.8596 Q1059.65 73.7508 1055.32 73.7508 Q1044.46 73.7508 1038.1 67.4314 Q1031.78 61.1119 1031.78 50.3365 Q1031.78 39.1965 1037.78 32.6746 Q1043.82 26.1121 1054.02 26.1121 Q1063.18 26.1121 1068.49 32.0264 Q1073.83 37.9003 1073.83 48.0275 M1066.38 45.84 Q1066.3 39.7232 1062.94 36.0774 Q1059.61 32.4315 1054.1 32.4315 Q1047.87 32.4315 1044.1 35.9558 Q1040.37 39.4801 1039.8 45.8805 L1066.38 45.84 Z" fill="#000000" fill-rule="evenodd" fill-opacity="1" /><path clip-path="url(#clip580)" d="M 0 0 M1123.78 45.1919 L1123.78 72.576 L1116.33 72.576 L1116.33 45.4349 Q1116.33 38.994 1113.81 35.7938 Q1111.3 32.5936 1106.28 32.5936 Q1100.24 32.5936 1096.76 36.4419 Q1093.28 40.2903 1093.28 46.9338 L1093.28 72.576 L1085.78 72.576 L1085.78 27.2059 L1093.28 27.2059 L1093.28 34.2544 Q1095.95 30.163 1099.56 28.1376 Q1103.2 26.1121 1107.94 26.1121 Q1115.76 26.1121 1119.77 30.9732 Q1123.78 35.7938 1123.78 45.1919 Z" fill="#000000" fill-rule="evenodd" fill-opacity="1" /><path clip-path="url(#clip580)" d="M 0 0 M1146.02 14.324 L1146.02 27.2059 L1161.37 27.2059 L1161.37 32.9987 L1146.02 32.9987 L1146.02 57.6282 Q1146.02 63.1779 1147.52 64.7578 Q1149.06 66.3376 1153.72 66.3376 L1161.37 66.3376 L1161.37 72.576 L1153.72 72.576 Q1145.09 72.576 1141.81 69.3758 Q1138.53 66.1351 1138.53 57.6282 L1138.53 32.9987 L1133.06 32.9987 L1133.06 27.2059 L1138.53 27.2059 L1138.53 14.324 L1146.02 14.324 Z" fill="#000000" fill-rule="evenodd" fill-opacity="1" /><path clip-path="url(#clip580)" d="M 0 0 M1171.18 27.2059 L1178.63 27.2059 L1178.63 72.576 L1171.18 72.576 L1171.18 27.2059 M1171.18 9.54393 L1178.63 9.54393 L1178.63 18.9825 L1171.18 18.9825 L1171.18 9.54393 Z" fill="#000000" fill-rule="evenodd" fill-opacity="1" /><path clip-path="url(#clip580)" d="M 0 0 M1194.23 9.54393 L1201.68 9.54393 L1201.68 72.576 L1194.23 72.576 L1194.23 9.54393 Z" fill="#000000" fill-rule="evenodd" fill-opacity="1" /><path clip-path="url(#clip580)" d="M 0 0 M1237.89 49.7694 Q1228.86 49.7694 1225.38 51.8354 Q1221.89 53.9013 1221.89 58.8839 Q1221.89 62.8538 1224.49 65.2034 Q1227.12 67.5124 1231.62 67.5124 Q1237.81 67.5124 1241.54 63.1374 Q1245.31 58.7219 1245.31 51.4303 L1245.31 49.7694 L1237.89 49.7694 M1252.76 46.6907 L1252.76 72.576 L1245.31 72.576 L1245.31 65.6895 Q1242.76 69.8214 1238.95 71.8063 Q1235.14 73.7508 1229.63 73.7508 Q1222.66 73.7508 1218.53 69.8619 Q1214.44 65.9325 1214.44 59.3701 Q1214.44 51.7138 1219.54 47.825 Q1224.69 43.9361 1234.86 43.9361 L1245.31 43.9361 L1245.31 43.2069 Q1245.31 38.0623 1241.9 35.2672 Q1238.54 32.4315 1232.43 32.4315 Q1228.54 32.4315 1224.85 33.3632 Q1221.16 34.295 1217.76 36.1584 L1217.76 29.2718 Q1221.85 27.692 1225.7 26.9223 Q1229.55 26.1121 1233.2 26.1121 Q1243.04 26.1121 1247.9 31.2163 Q1252.76 36.3204 1252.76 46.6907 Z" fill="#000000" fill-rule="evenodd" fill-opacity="1" /><path clip-path="url(#clip580)" d="M 0 0 M1275.49 14.324 L1275.49 27.2059 L1290.84 27.2059 L1290.84 32.9987 L1275.49 32.9987 L1275.49 57.6282 Q1275.49 63.1779 1276.99 64.7578 Q1278.52 66.3376 1283.18 66.3376 L1290.84 66.3376 L1290.84 72.576 L1283.18 72.576 Q1274.55 72.576 1271.27 69.3758 Q1267.99 66.1351 1267.99 57.6282 L1267.99 32.9987 L1262.52 32.9987 L1262.52 27.2059 L1267.99 27.2059 L1267.99 14.324 L1275.49 14.324 Z" fill="#000000" fill-rule="evenodd" fill-opacity="1" /><path clip-path="url(#clip580)" d="M 0 0 M1300.64 27.2059 L1308.1 27.2059 L1308.1 72.576 L1300.64 72.576 L1300.64 27.2059 M1300.64 9.54393 L1308.1 9.54393 L1308.1 18.9825 L1300.64 18.9825 L1300.64 9.54393 Z" fill="#000000" fill-rule="evenodd" fill-opacity="1" /><path clip-path="url(#clip580)" d="M 0 0 M1341.27 32.4315 Q1335.28 32.4315 1331.79 37.1306 Q1328.31 41.7891 1328.31 49.9314 Q1328.31 58.0738 1331.75 62.7728 Q1335.24 67.4314 1341.27 67.4314 Q1347.23 67.4314 1350.71 62.7323 Q1354.2 58.0333 1354.2 49.9314 Q1354.2 41.8701 1350.71 37.1711 Q1347.23 32.4315 1341.27 32.4315 M1341.27 26.1121 Q1351 26.1121 1356.55 32.4315 Q1362.09 38.7509 1362.09 49.9314 Q1362.09 61.0714 1356.55 67.4314 Q1351 73.7508 1341.27 73.7508 Q1331.51 73.7508 1325.96 67.4314 Q1320.45 61.0714 1320.45 49.9314 Q1320.45 38.7509 1325.96 32.4315 Q1331.51 26.1121 1341.27 26.1121 Z" fill="#000000" fill-rule="evenodd" fill-opacity="1" /><path clip-path="url(#clip580)" d="M 0 0 M1412.16 45.1919 L1412.16 72.576 L1404.71 72.576 L1404.71 45.4349 Q1404.71 38.994 1402.2 35.7938 Q1399.69 32.5936 1394.66 32.5936 Q1388.63 32.5936 1385.14 36.4419 Q1381.66 40.2903 1381.66 46.9338 L1381.66 72.576 L1374.17 72.576 L1374.17 27.2059 L1381.66 27.2059 L1381.66 34.2544 Q1384.33 30.163 1387.94 28.1376 Q1391.59 26.1121 1396.32 26.1121 Q1404.14 26.1121 1408.15 30.9732 Q1412.16 35.7938 1412.16 45.1919 Z" fill="#000000" fill-rule="evenodd" fill-opacity="1" /><path clip-path="url(#clip580)" d="M 0 0 M1479.69 34.1734 Q1478.44 33.4443 1476.94 33.1202 Q1475.48 32.7556 1473.7 32.7556 Q1467.38 32.7556 1463.98 36.8875 Q1460.61 40.9789 1460.61 48.6757 L1460.61 72.576 L1453.12 72.576 L1453.12 27.2059 L1460.61 27.2059 L1460.61 34.2544 Q1462.96 30.1225 1466.73 28.1376 Q1470.5 26.1121 1475.88 26.1121 Q1476.65 26.1121 1477.59 26.2337 Q1478.52 26.3147 1479.65 26.5172 L1479.69 34.1734 Z" fill="#000000" fill-rule="evenodd" fill-opacity="1" /><path clip-path="url(#clip580)" d="M 0 0 M1508.13 49.7694 Q1499.1 49.7694 1495.61 51.8354 Q1492.13 53.9013 1492.13 58.8839 Q1492.13 62.8538 1494.72 65.2034 Q1497.35 67.5124 1501.85 67.5124 Q1508.05 67.5124 1511.78 63.1374 Q1515.54 58.7219 1515.54 51.4303 L1515.54 49.7694 L1508.13 49.7694 M1523 46.6907 L1523 72.576 L1515.54 72.576 L1515.54 65.6895 Q1512.99 69.8214 1509.18 71.8063 Q1505.38 73.7508 1499.87 73.7508 Q1492.9 73.7508 1488.77 69.8619 Q1484.68 65.9325 1484.68 59.3701 Q1484.68 51.7138 1489.78 47.825 Q1494.92 43.9361 1505.09 43.9361 L1515.54 43.9361 L1515.54 43.2069 Q1515.54 38.0623 1512.14 35.2672 Q1508.78 32.4315 1502.66 32.4315 Q1498.77 32.4315 1495.09 33.3632 Q1491.4 34.295 1488 36.1584 L1488 29.2718 Q1492.09 27.692 1495.94 26.9223 Q1499.79 26.1121 1503.43 26.1121 Q1513.27 26.1121 1518.14 31.2163 Q1523 36.3204 1523 46.6907 Z" fill="#000000" fill-rule="evenodd" fill-opacity="1" /><path clip-path="url(#clip580)" d="M 0 0 M1545.72 14.324 L1545.72 27.2059 L1561.08 27.2059 L1561.08 32.9987 L1545.72 32.9987 L1545.72 57.6282 Q1545.72 63.1779 1547.22 64.7578 Q1548.76 66.3376 1553.42 66.3376 L1561.08 66.3376 L1561.08 72.576 L1553.42 72.576 Q1544.79 72.576 1541.51 69.3758 Q1538.23 66.1351 1538.23 57.6282 L1538.23 32.9987 L1532.76 32.9987 L1532.76 27.2059 L1538.23 27.2059 L1538.23 14.324 L1545.72 14.324 Z" fill="#000000" fill-rule="evenodd" fill-opacity="1" /><path clip-path="url(#clip580)" d="M 0 0 M1609.69 48.0275 L1609.69 51.6733 L1575.42 51.6733 Q1575.9 59.3701 1580.03 63.421 Q1584.21 67.4314 1591.62 67.4314 Q1595.91 67.4314 1599.92 66.3781 Q1603.97 65.3249 1607.94 63.2184 L1607.94 70.267 Q1603.93 71.9684 1599.72 72.8596 Q1595.51 73.7508 1591.17 73.7508 Q1580.32 73.7508 1573.96 67.4314 Q1567.64 61.1119 1567.64 50.3365 Q1567.64 39.1965 1573.63 32.6746 Q1579.67 26.1121 1589.88 26.1121 Q1599.03 26.1121 1604.34 32.0264 Q1609.69 37.9003 1609.69 48.0275 M1602.23 45.84 Q1602.15 39.7232 1598.79 36.0774 Q1595.47 32.4315 1589.96 32.4315 Q1583.72 32.4315 1579.95 35.9558 Q1576.23 39.4801 1575.66 45.8805 L1602.23 45.84 Z" fill="#000000" fill-rule="evenodd" fill-opacity="1" /><path clip-path="url(#clip580)" d="M 0 0 M1666.16 16.633 L1687.1 72.576 L1679.2 72.576 L1666.48 39.0345 L1650.84 72.576 L1642.94 72.576 L1662.83 29.0693 L1659.84 21.0485 Q1657.93 15.9444 1653.6 15.9444 L1649.71 15.9444 L1649.71 9.54393 L1654.45 9.62495 Q1663.6 9.74648 1666.16 16.633 Z" fill="#000000" fill-rule="evenodd" fill-opacity="1" /><path clip-path="url(#clip580)" d="M 0 0 M1698.36 34.9026 L1750.29 34.9026 L1750.29 41.7081 L1698.36 41.7081 L1698.36 34.9026 M1698.36 51.4303 L1750.29 51.4303 L1750.29 58.3168 L1698.36 58.3168 L1698.36 51.4303 Z" fill="#000000" fill-rule="evenodd" fill-opacity="1" /><path clip-path="url(#clip580)" d="M 0 0 M1785.45 17.4837 Q1779.14 17.4837 1775.94 23.7221 Q1772.78 29.92 1772.78 42.3968 Q1772.78 54.833 1775.94 61.0714 Q1779.14 67.2693 1785.45 67.2693 Q1791.81 67.2693 1794.97 61.0714 Q1798.17 54.833 1798.17 42.3968 Q1798.17 29.92 1794.97 23.7221 Q1791.81 17.4837 1785.45 17.4837 M1785.45 11.0023 Q1795.62 11.0023 1800.97 19.0636 Q1806.36 27.0843 1806.36 42.3968 Q1806.36 57.6687 1800.97 65.73 Q1795.62 73.7508 1785.45 73.7508 Q1775.29 73.7508 1769.9 65.73 Q1764.55 57.6687 1764.55 42.3968 Q1764.55 27.0843 1769.9 19.0636 Q1775.29 11.0023 1785.45 11.0023 Z" fill="#000000" fill-rule="evenodd" fill-opacity="1" /><path clip-path="url(#clip580)" d="M 0 0 M1820.74 62.2867 L1829.29 62.2867 L1829.29 72.576 L1820.74 72.576 L1820.74 62.2867 Z" fill="#000000" fill-rule="evenodd" fill-opacity="1" /><path clip-path="url(#clip580)" d="M 0 0 M1854.16 65.6895 L1882.72 65.6895 L1882.72 72.576 L1844.31 72.576 L1844.31 65.6895 Q1848.97 60.8689 1856.99 52.7671 Q1865.06 44.6248 1867.12 42.2752 Q1871.05 37.8598 1872.59 34.8216 Q1874.17 31.7429 1874.17 28.7857 Q1874.17 23.9651 1870.77 20.927 Q1867.4 17.8888 1861.98 17.8888 Q1858.13 17.8888 1853.83 19.2256 Q1849.58 20.5624 1844.72 23.2765 L1844.72 15.0127 Q1849.66 13.0277 1853.96 12.015 Q1858.25 11.0023 1861.81 11.0023 Q1871.21 11.0023 1876.8 15.7013 Q1882.39 20.4004 1882.39 28.2591 Q1882.39 31.9859 1880.98 35.3482 Q1879.6 38.6699 1875.91 43.2069 Q1874.9 44.3817 1869.47 50.0125 Q1864.04 55.6027 1854.16 65.6895 Z" fill="#000000" fill-rule="evenodd" fill-opacity="1" /><path clip-path="url(#clip580)" d="M 0 0 M1924.68 39.9662 Q1930.56 41.222 1933.84 45.1919 Q1937.16 49.1618 1937.16 54.9951 Q1937.16 63.9476 1931 68.8492 Q1924.85 73.7508 1913.5 73.7508 Q1909.7 73.7508 1905.65 72.9811 Q1901.63 72.2519 1897.34 70.7531 L1897.34 62.8538 Q1900.74 64.8388 1904.79 65.8515 Q1908.85 66.8642 1913.26 66.8642 Q1920.96 66.8642 1924.97 63.826 Q1929.02 60.7879 1929.02 54.9951 Q1929.02 49.6479 1925.25 46.6502 Q1921.52 43.612 1914.84 43.612 L1907.79 43.612 L1907.79 36.8875 L1915.16 36.8875 Q1921.2 36.8875 1924.4 34.4975 Q1927.6 32.067 1927.6 27.5299 Q1927.6 22.8714 1924.28 20.4004 Q1921 17.8888 1914.84 17.8888 Q1911.48 17.8888 1907.63 18.618 Q1903.78 19.3471 1899.16 20.8865 L1899.16 13.5948 Q1903.82 12.2985 1907.87 11.6504 Q1911.96 11.0023 1915.57 11.0023 Q1924.89 11.0023 1930.32 15.2557 Q1935.74 19.4686 1935.74 26.6793 Q1935.74 31.7024 1932.87 35.1862 Q1929.99 38.6294 1924.68 39.9662 Z" fill="#000000" fill-rule="evenodd" fill-opacity="1" /><path clip-path="url(#clip580)" d="M 0 0 M1971.19 39.075 Q1965.68 39.075 1962.44 42.8424 Q1959.24 46.6097 1959.24 53.1722 Q1959.24 59.6941 1962.44 63.502 Q1965.68 67.2693 1971.19 67.2693 Q1976.7 67.2693 1979.9 63.502 Q1983.14 59.6941 1983.14 53.1722 Q1983.14 46.6097 1979.9 42.8424 Q1976.7 39.075 1971.19 39.075 M1987.43 13.4328 L1987.43 20.8865 Q1984.35 19.4281 1981.19 18.6585 Q1978.08 17.8888 1975 17.8888 Q1966.89 17.8888 1962.6 23.3575 Q1958.35 28.8262 1957.74 39.8852 Q1960.13 36.3609 1963.74 34.4975 Q1967.34 32.5936 1971.67 32.5936 Q1980.79 32.5936 1986.06 38.1433 Q1991.36 43.6525 1991.36 53.1722 Q1991.36 62.4892 1985.85 68.12 Q1980.34 73.7508 1971.19 73.7508 Q1960.7 73.7508 1955.15 65.73 Q1949.6 57.6687 1949.6 42.3968 Q1949.6 28.0566 1956.4 19.5497 Q1963.21 11.0023 1974.67 11.0023 Q1977.75 11.0023 1980.87 11.6099 Q1984.03 12.2175 1987.43 13.4328 Z" fill="#000000" fill-rule="evenodd" fill-opacity="1" /><polyline clip-path="url(#clip582)" style="stroke:#009af9; stroke-width:4; stroke-opacity:1; fill:none" points="
  295.211,1383.04 323.347,1383.68 351.482,1386.2 379.618,1386.4 407.753,1382.68 435.889,1371.19 464.024,1350.59 492.159,1331.85 520.295,1320.43 548.43,1314.44 
  576.566,1313.55 604.701,1318.9 632.837,1325.58 660.972,1332.54 689.107,1285.48 717.243,1093.53 745.378,780.191 773.514,455.765 801.649,229.897 829.785,160.256 
  857.92,195.422 886.056,319.968 914.191,500.323 942.326,674.247 970.462,822.353 998.597,943.317 1026.73,1037.56 1054.87,1108.78 1083,1163.76 1111.14,1208.73 
  1139.27,1245.89 1167.41,1277.31 1195.55,1303.12 1223.68,1322.78 1251.82,1340.94 1279.95,1349.98 1308.09,1344.95 1336.22,1329.26 1364.36,1312.17 1392.49,1295.6 
  1420.63,1282.76 1448.76,1275.2 1476.9,1271.76 1505.04,1272.59 1533.17,1274.33 1561.31,1270.93 1589.44,1271.12 1617.58,1277.34 1645.71,1282.77 1673.85,1284.84 
  1701.98,1284.11 1730.12,1279.82 1758.25,1274.94 1786.39,1272.02 1814.52,1270.52 1842.66,1271.09 1870.8,1270.03 1898.93,1266.55 1927.07,1259.67 1955.2,1253.98 
  1983.34,1254.84 2011.47,1262.51 2039.61,1273.92 2067.74,1286.43 2095.88,1297.17 2124.01,1309.35 2152.15,1322.62 2180.29,1333.39 2208.42,1342.61 2236.56,1348.79 
  2264.69,1352.99 2292.83,1356.67 
  "/>
<circle clip-path="url(#clip582)" cx="295.211" cy="1382.95" r="14" fill="#e26f46" fill-rule="evenodd" fill-opacity="1" stroke="#000000" stroke-opacity="1" stroke-width="3.2"/>
<circle clip-path="url(#clip582)" cx="323.347" cy="1375.51" r="14" fill="#e26f46" fill-rule="evenodd" fill-opacity="1" stroke="#000000" stroke-opacity="1" stroke-width="3.2"/>
<circle clip-path="url(#clip582)" cx="351.482" cy="1385.03" r="14" fill="#e26f46" fill-rule="evenodd" fill-opacity="1" stroke="#000000" stroke-opacity="1" stroke-width="3.2"/>
<circle clip-path="url(#clip582)" cx="379.618" cy="1383.92" r="14" fill="#e26f46" fill-rule="evenodd" fill-opacity="1" stroke="#000000" stroke-opacity="1" stroke-width="3.2"/>
<circle clip-path="url(#clip582)" cx="407.753" cy="1384.87" r="14" fill="#e26f46" fill-rule="evenodd" fill-opacity="1" stroke="#000000" stroke-opacity="1" stroke-width="3.2"/>
<circle clip-path="url(#clip582)" cx="435.889" cy="1370.1" r="14" fill="#e26f46" fill-rule="evenodd" fill-opacity="1" stroke="#000000" stroke-opacity="1" stroke-width="3.2"/>
<circle clip-path="url(#clip582)" cx="464.024" cy="1344.06" r="14" fill="#e26f46" fill-rule="evenodd" fill-opacity="1" stroke="#000000" stroke-opacity="1" stroke-width="3.2"/>
<circle clip-path="url(#clip582)" cx="492.159" cy="1346.35" r="14" fill="#e26f46" fill-rule="evenodd" fill-opacity="1" stroke="#000000" stroke-opacity="1" stroke-width="3.2"/>
<circle clip-path="url(#clip582)" cx="520.295" cy="1319.71" r="14" fill="#e26f46" fill-rule="evenodd" fill-opacity="1" stroke="#000000" stroke-opacity="1" stroke-width="3.2"/>
<circle clip-path="url(#clip582)" cx="548.43" cy="1305.02" r="14" fill="#e26f46" fill-rule="evenodd" fill-opacity="1" stroke="#000000" stroke-opacity="1" stroke-width="3.2"/>
<circle clip-path="url(#clip582)" cx="576.566" cy="1320.28" r="14" fill="#e26f46" fill-rule="evenodd" fill-opacity="1" stroke="#000000" stroke-opacity="1" stroke-width="3.2"/>
<circle clip-path="url(#clip582)" cx="604.701" cy="1304.85" r="14" fill="#e26f46" fill-rule="evenodd" fill-opacity="1" stroke="#000000" stroke-opacity="1" stroke-width="3.2"/>
<circle clip-path="url(#clip582)" cx="632.837" cy="1318.74" r="14" fill="#e26f46" fill-rule="evenodd" fill-opacity="1" stroke="#000000" stroke-opacity="1" stroke-width="3.2"/>
<circle clip-path="url(#clip582)" cx="660.972" cy="1313.64" r="14" fill="#e26f46" fill-rule="evenodd" fill-opacity="1" stroke="#000000" stroke-opacity="1" stroke-width="3.2"/>
<circle clip-path="url(#clip582)" cx="689.107" cy="1275.99" r="14" fill="#e26f46" fill-rule="evenodd" fill-opacity="1" stroke="#000000" stroke-opacity="1" stroke-width="3.2"/>
<circle clip-path="url(#clip582)" cx="717.243" cy="991.696" r="14" fill="#e26f46" fill-rule="evenodd" fill-opacity="1" stroke="#000000" stroke-opacity="1" stroke-width="3.2"/>
<circle clip-path="url(#clip582)" cx="745.378" cy="721.905" r="14" fill="#e26f46" fill-rule="evenodd" fill-opacity="1" stroke="#000000" stroke-opacity="1" stroke-width="3.2"/>
<circle clip-path="url(#clip582)" cx="773.514" cy="464.365" r="14" fill="#e26f46" fill-rule="evenodd" fill-opacity="1" stroke="#000000" stroke-opacity="1" stroke-width="3.2"/>
<circle clip-path="url(#clip582)" cx="801.649" cy="182.328" r="14" fill="#e26f46" fill-rule="evenodd" fill-opacity="1" stroke="#000000" stroke-opacity="1" stroke-width="3.2"/>
<circle clip-path="url(#clip582)" cx="829.785" cy="209.915" r="14" fill="#e26f46" fill-rule="evenodd" fill-opacity="1" stroke="#000000" stroke-opacity="1" stroke-width="3.2"/>
<circle clip-path="url(#clip582)" cx="857.92" cy="292.039" r="14" fill="#e26f46" fill-rule="evenodd" fill-opacity="1" stroke="#000000" stroke-opacity="1" stroke-width="3.2"/>
<circle clip-path="url(#clip582)" cx="886.056" cy="352.452" r="14" fill="#e26f46" fill-rule="evenodd" fill-opacity="1" stroke="#000000" stroke-opacity="1" stroke-width="3.2"/>
<circle clip-path="url(#clip582)" cx="914.191" cy="451.97" r="14" fill="#e26f46" fill-rule="evenodd" fill-opacity="1" stroke="#000000" stroke-opacity="1" stroke-width="3.2"/>
<circle clip-path="url(#clip582)" cx="942.326" cy="760.041" r="14" fill="#e26f46" fill-rule="evenodd" fill-opacity="1" stroke="#000000" stroke-opacity="1" stroke-width="3.2"/>
<circle clip-path="url(#clip582)" cx="970.462" cy="825.015" r="14" fill="#e26f46" fill-rule="evenodd" fill-opacity="1" stroke="#000000" stroke-opacity="1" stroke-width="3.2"/>
<circle clip-path="url(#clip582)" cx="998.597" cy="1030.2" r="14" fill="#e26f46" fill-rule="evenodd" fill-opacity="1" stroke="#000000" stroke-opacity="1" stroke-width="3.2"/>
<circle clip-path="url(#clip582)" cx="1026.73" cy="1035.8" r="14" fill="#e26f46" fill-rule="evenodd" fill-opacity="1" stroke="#000000" stroke-opacity="1" stroke-width="3.2"/>
<circle clip-path="url(#clip582)" cx="1054.87" cy="1159.01" r="14" fill="#e26f46" fill-rule="evenodd" fill-opacity="1" stroke="#000000" stroke-opacity="1" stroke-width="3.2"/>
<circle clip-path="url(#clip582)" cx="1083" cy="1180.55" r="14" fill="#e26f46" fill-rule="evenodd" fill-opacity="1" stroke="#000000" stroke-opacity="1" stroke-width="3.2"/>
<circle clip-path="url(#clip582)" cx="1111.14" cy="1224.38" r="14" fill="#e26f46" fill-rule="evenodd" fill-opacity="1" stroke="#000000" stroke-opacity="1" stroke-width="3.2"/>
<circle clip-path="url(#clip582)" cx="1139.27" cy="1298.09" r="14" fill="#e26f46" fill-rule="evenodd" fill-opacity="1" stroke="#000000" stroke-opacity="1" stroke-width="3.2"/>
<circle clip-path="url(#clip582)" cx="1167.41" cy="1289.73" r="14" fill="#e26f46" fill-rule="evenodd" fill-opacity="1" stroke="#000000" stroke-opacity="1" stroke-width="3.2"/>
<circle clip-path="url(#clip582)" cx="1195.55" cy="1310.4" r="14" fill="#e26f46" fill-rule="evenodd" fill-opacity="1" stroke="#000000" stroke-opacity="1" stroke-width="3.2"/>
<circle clip-path="url(#clip582)" cx="1223.68" cy="1346.97" r="14" fill="#e26f46" fill-rule="evenodd" fill-opacity="1" stroke="#000000" stroke-opacity="1" stroke-width="3.2"/>
<circle clip-path="url(#clip582)" cx="1251.82" cy="1351.14" r="14" fill="#e26f46" fill-rule="evenodd" fill-opacity="1" stroke="#000000" stroke-opacity="1" stroke-width="3.2"/>
<circle clip-path="url(#clip582)" cx="1279.95" cy="1372.68" r="14" fill="#e26f46" fill-rule="evenodd" fill-opacity="1" stroke="#000000" stroke-opacity="1" stroke-width="3.2"/>
<circle clip-path="url(#clip582)" cx="1308.09" cy="1350.35" r="14" fill="#e26f46" fill-rule="evenodd" fill-opacity="1" stroke="#000000" stroke-opacity="1" stroke-width="3.2"/>
<circle clip-path="url(#clip582)" cx="1336.22" cy="1341.23" r="14" fill="#e26f46" fill-rule="evenodd" fill-opacity="1" stroke="#000000" stroke-opacity="1" stroke-width="3.2"/>
<circle clip-path="url(#clip582)" cx="1364.36" cy="1324.14" r="14" fill="#e26f46" fill-rule="evenodd" fill-opacity="1" stroke="#000000" stroke-opacity="1" stroke-width="3.2"/>
<circle clip-path="url(#clip582)" cx="1392.49" cy="1284.65" r="14" fill="#e26f46" fill-rule="evenodd" fill-opacity="1" stroke="#000000" stroke-opacity="1" stroke-width="3.2"/>
<circle clip-path="url(#clip582)" cx="1420.63" cy="1291.69" r="14" fill="#e26f46" fill-rule="evenodd" fill-opacity="1" stroke="#000000" stroke-opacity="1" stroke-width="3.2"/>
<circle clip-path="url(#clip582)" cx="1448.76" cy="1257.33" r="14" fill="#e26f46" fill-rule="evenodd" fill-opacity="1" stroke="#000000" stroke-opacity="1" stroke-width="3.2"/>
<circle clip-path="url(#clip582)" cx="1476.9" cy="1266.44" r="14" fill="#e26f46" fill-rule="evenodd" fill-opacity="1" stroke="#000000" stroke-opacity="1" stroke-width="3.2"/>
<circle clip-path="url(#clip582)" cx="1505.04" cy="1270.82" r="14" fill="#e26f46" fill-rule="evenodd" fill-opacity="1" stroke="#000000" stroke-opacity="1" stroke-width="3.2"/>
<circle clip-path="url(#clip582)" cx="1533.17" cy="1262.47" r="14" fill="#e26f46" fill-rule="evenodd" fill-opacity="1" stroke="#000000" stroke-opacity="1" stroke-width="3.2"/>
<circle clip-path="url(#clip582)" cx="1561.31" cy="1255.63" r="14" fill="#e26f46" fill-rule="evenodd" fill-opacity="1" stroke="#000000" stroke-opacity="1" stroke-width="3.2"/>
<circle clip-path="url(#clip582)" cx="1589.44" cy="1283.44" r="14" fill="#e26f46" fill-rule="evenodd" fill-opacity="1" stroke="#000000" stroke-opacity="1" stroke-width="3.2"/>
<circle clip-path="url(#clip582)" cx="1617.58" cy="1296.73" r="14" fill="#e26f46" fill-rule="evenodd" fill-opacity="1" stroke="#000000" stroke-opacity="1" stroke-width="3.2"/>
<circle clip-path="url(#clip582)" cx="1645.71" cy="1273.69" r="14" fill="#e26f46" fill-rule="evenodd" fill-opacity="1" stroke="#000000" stroke-opacity="1" stroke-width="3.2"/>
<circle clip-path="url(#clip582)" cx="1673.85" cy="1291.03" r="14" fill="#e26f46" fill-rule="evenodd" fill-opacity="1" stroke="#000000" stroke-opacity="1" stroke-width="3.2"/>
<circle clip-path="url(#clip582)" cx="1701.98" cy="1278.19" r="14" fill="#e26f46" fill-rule="evenodd" fill-opacity="1" stroke="#000000" stroke-opacity="1" stroke-width="3.2"/>
<circle clip-path="url(#clip582)" cx="1730.12" cy="1300.98" r="14" fill="#e26f46" fill-rule="evenodd" fill-opacity="1" stroke="#000000" stroke-opacity="1" stroke-width="3.2"/>
<circle clip-path="url(#clip582)" cx="1758.25" cy="1275.91" r="14" fill="#e26f46" fill-rule="evenodd" fill-opacity="1" stroke="#000000" stroke-opacity="1" stroke-width="3.2"/>
<circle clip-path="url(#clip582)" cx="1786.39" cy="1265.5" r="14" fill="#e26f46" fill-rule="evenodd" fill-opacity="1" stroke="#000000" stroke-opacity="1" stroke-width="3.2"/>
<circle clip-path="url(#clip582)" cx="1814.52" cy="1284.15" r="14" fill="#e26f46" fill-rule="evenodd" fill-opacity="1" stroke="#000000" stroke-opacity="1" stroke-width="3.2"/>
<circle clip-path="url(#clip582)" cx="1842.66" cy="1243.56" r="14" fill="#e26f46" fill-rule="evenodd" fill-opacity="1" stroke="#000000" stroke-opacity="1" stroke-width="3.2"/>
<circle clip-path="url(#clip582)" cx="1870.8" cy="1254.42" r="14" fill="#e26f46" fill-rule="evenodd" fill-opacity="1" stroke="#000000" stroke-opacity="1" stroke-width="3.2"/>
<circle clip-path="url(#clip582)" cx="1898.93" cy="1279.02" r="14" fill="#e26f46" fill-rule="evenodd" fill-opacity="1" stroke="#000000" stroke-opacity="1" stroke-width="3.2"/>
<circle clip-path="url(#clip582)" cx="1927.07" cy="1256" r="14" fill="#e26f46" fill-rule="evenodd" fill-opacity="1" stroke="#000000" stroke-opacity="1" stroke-width="3.2"/>
<circle clip-path="url(#clip582)" cx="1955.2" cy="1248.74" r="14" fill="#e26f46" fill-rule="evenodd" fill-opacity="1" stroke="#000000" stroke-opacity="1" stroke-width="3.2"/>
<circle clip-path="url(#clip582)" cx="1983.34" cy="1273.61" r="14" fill="#e26f46" fill-rule="evenodd" fill-opacity="1" stroke="#000000" stroke-opacity="1" stroke-width="3.2"/>
<circle clip-path="url(#clip582)" cx="2011.47" cy="1279.52" r="14" fill="#e26f46" fill-rule="evenodd" fill-opacity="1" stroke="#000000" stroke-opacity="1" stroke-width="3.2"/>
<circle clip-path="url(#clip582)" cx="2039.61" cy="1278.79" r="14" fill="#e26f46" fill-rule="evenodd" fill-opacity="1" stroke="#000000" stroke-opacity="1" stroke-width="3.2"/>
<circle clip-path="url(#clip582)" cx="2067.74" cy="1279.25" r="14" fill="#e26f46" fill-rule="evenodd" fill-opacity="1" stroke="#000000" stroke-opacity="1" stroke-width="3.2"/>
<circle clip-path="url(#clip582)" cx="2095.88" cy="1316.91" r="14" fill="#e26f46" fill-rule="evenodd" fill-opacity="1" stroke="#000000" stroke-opacity="1" stroke-width="3.2"/>
<circle clip-path="url(#clip582)" cx="2124.01" cy="1324.03" r="14" fill="#e26f46" fill-rule="evenodd" fill-opacity="1" stroke="#000000" stroke-opacity="1" stroke-width="3.2"/>
<circle clip-path="url(#clip582)" cx="2152.15" cy="1294.35" r="14" fill="#e26f46" fill-rule="evenodd" fill-opacity="1" stroke="#000000" stroke-opacity="1" stroke-width="3.2"/>
<circle clip-path="url(#clip582)" cx="2180.29" cy="1343.54" r="14" fill="#e26f46" fill-rule="evenodd" fill-opacity="1" stroke="#000000" stroke-opacity="1" stroke-width="3.2"/>
<circle clip-path="url(#clip582)" cx="2208.42" cy="1348.42" r="14" fill="#e26f46" fill-rule="evenodd" fill-opacity="1" stroke="#000000" stroke-opacity="1" stroke-width="3.2"/>
<circle clip-path="url(#clip582)" cx="2236.56" cy="1356.59" r="14" fill="#e26f46" fill-rule="evenodd" fill-opacity="1" stroke="#000000" stroke-opacity="1" stroke-width="3.2"/>
<circle clip-path="url(#clip582)" cx="2264.69" cy="1361.16" r="14" fill="#e26f46" fill-rule="evenodd" fill-opacity="1" stroke="#000000" stroke-opacity="1" stroke-width="3.2"/>
<circle clip-path="url(#clip582)" cx="2292.83" cy="1350.88" r="14" fill="#e26f46" fill-rule="evenodd" fill-opacity="1" stroke="#000000" stroke-opacity="1" stroke-width="3.2"/>
<path clip-path="url(#clip580)" d="
M1765.72 833.806 L2282.17 833.806 L2282.17 652.366 L1765.72 652.366  Z
  " fill="#ffffff" fill-rule="evenodd" fill-opacity="1"/>
<polyline clip-path="url(#clip580)" style="stroke:#000000; stroke-width:4; stroke-opacity:1; fill:none" points="
  1765.72,833.806 2282.17,833.806 2282.17,652.366 1765.72,652.366 1765.72,833.806 
  "/>
<polyline clip-path="url(#clip580)" style="stroke:#009af9; stroke-width:4; stroke-opacity:1; fill:none" points="
  1789.25,712.846 1930.41,712.846 
  "/>
<path clip-path="url(#clip580)" d="M 0 0 M1953.94 695.566 L1973.8 695.566 L1973.8 699.501 L1958.62 699.501 L1958.62 709.686 L1972.32 709.686 L1972.32 713.621 L1958.62 713.621 L1958.62 730.126 L1953.94 730.126 L1953.94 695.566 Z" fill="#000000" fill-rule="evenodd" fill-opacity="1" /><path clip-path="url(#clip580)" d="M 0 0 M1977.57 704.2 L1981.83 704.2 L1981.83 730.126 L1977.57 730.126 L1977.57 704.2 M1977.57 694.108 L1981.83 694.108 L1981.83 699.501 L1977.57 699.501 L1977.57 694.108 Z" fill="#000000" fill-rule="evenodd" fill-opacity="1" /><path clip-path="url(#clip580)" d="M 0 0 M1994.96 696.839 L1994.96 704.2 L2003.73 704.2 L2003.73 707.51 L1994.96 707.51 L1994.96 721.584 Q1994.96 724.756 1995.81 725.658 Q1996.69 726.561 1999.36 726.561 L2003.73 726.561 L2003.73 730.126 L1999.36 730.126 Q1994.43 730.126 1992.55 728.297 Q1990.68 726.445 1990.68 721.584 L1990.68 707.51 L1987.55 707.51 L1987.55 704.2 L1990.68 704.2 L1990.68 696.839 L1994.96 696.839 Z" fill="#000000" fill-rule="evenodd" fill-opacity="1" /><path clip-path="url(#clip580)" d="M 0 0 M2013.55 696.839 L2013.55 704.2 L2022.32 704.2 L2022.32 707.51 L2013.55 707.51 L2013.55 721.584 Q2013.55 724.756 2014.4 725.658 Q2015.28 726.561 2017.94 726.561 L2022.32 726.561 L2022.32 730.126 L2017.94 730.126 Q2013.01 730.126 2011.14 728.297 Q2009.26 726.445 2009.26 721.584 L2009.26 707.51 L2006.14 707.51 L2006.14 704.2 L2009.26 704.2 L2009.26 696.839 L2013.55 696.839 Z" fill="#000000" fill-rule="evenodd" fill-opacity="1" /><path clip-path="url(#clip580)" d="M 0 0 M2050.1 716.098 L2050.1 718.182 L2030.51 718.182 Q2030.79 722.58 2033.15 724.895 Q2035.54 727.186 2039.77 727.186 Q2042.23 727.186 2044.52 726.584 Q2046.83 725.982 2049.1 724.779 L2049.1 728.807 Q2046.81 729.779 2044.4 730.288 Q2041.99 730.797 2039.52 730.797 Q2033.31 730.797 2029.68 727.186 Q2026.07 723.575 2026.07 717.418 Q2026.07 711.052 2029.49 707.325 Q2032.94 703.575 2038.78 703.575 Q2044.01 703.575 2047.04 706.955 Q2050.1 710.311 2050.1 716.098 M2045.84 714.848 Q2045.79 711.353 2043.87 709.27 Q2041.97 707.186 2038.82 707.186 Q2035.26 707.186 2033.11 709.2 Q2030.98 711.214 2030.65 714.871 L2045.84 714.848 Z" fill="#000000" fill-rule="evenodd" fill-opacity="1" /><path clip-path="url(#clip580)" d="M 0 0 M2074.15 708.135 L2074.15 694.108 L2078.41 694.108 L2078.41 730.126 L2074.15 730.126 L2074.15 726.237 Q2072.8 728.552 2070.74 729.686 Q2068.71 730.797 2065.84 730.797 Q2061.14 730.797 2058.18 727.047 Q2055.24 723.297 2055.24 717.186 Q2055.24 711.075 2058.18 707.325 Q2061.14 703.575 2065.84 703.575 Q2068.71 703.575 2070.74 704.709 Q2072.8 705.821 2074.15 708.135 M2059.63 717.186 Q2059.63 721.885 2061.55 724.57 Q2063.5 727.232 2066.88 727.232 Q2070.26 727.232 2072.2 724.57 Q2074.15 721.885 2074.15 717.186 Q2074.15 712.487 2072.2 709.825 Q2070.26 707.14 2066.88 707.14 Q2063.5 707.14 2061.55 709.825 Q2059.63 712.487 2059.63 717.186 Z" fill="#000000" fill-rule="evenodd" fill-opacity="1" /><path clip-path="url(#clip580)" d="M 0 0 M2128.31 698.228 L2128.31 703.159 Q2125.95 700.959 2123.27 699.872 Q2120.61 698.784 2117.6 698.784 Q2111.67 698.784 2108.52 702.418 Q2105.37 706.029 2105.37 712.881 Q2105.37 719.709 2108.52 723.344 Q2111.67 726.955 2117.6 726.955 Q2120.61 726.955 2123.27 725.867 Q2125.95 724.779 2128.31 722.58 L2128.31 727.464 Q2125.86 729.131 2123.11 729.964 Q2120.37 730.797 2117.32 730.797 Q2109.47 730.797 2104.96 726.006 Q2100.44 721.191 2100.44 712.881 Q2100.44 704.547 2104.96 699.756 Q2109.47 694.941 2117.32 694.941 Q2120.42 694.941 2123.15 695.774 Q2125.91 696.584 2128.31 698.228 Z" fill="#000000" fill-rule="evenodd" fill-opacity="1" /><path clip-path="url(#clip580)" d="M 0 0 M2134.91 719.895 L2134.91 704.2 L2139.17 704.2 L2139.17 719.733 Q2139.17 723.413 2140.61 725.265 Q2142.04 727.094 2144.91 727.094 Q2148.36 727.094 2150.35 724.895 Q2152.36 722.695 2152.36 718.899 L2152.36 704.2 L2156.62 704.2 L2156.62 730.126 L2152.36 730.126 L2152.36 726.145 Q2150.81 728.506 2148.75 729.663 Q2146.72 730.797 2144.01 730.797 Q2139.54 730.797 2137.23 728.02 Q2134.91 725.242 2134.91 719.895 M2145.63 703.575 L2145.63 703.575 Z" fill="#000000" fill-rule="evenodd" fill-opacity="1" /><path clip-path="url(#clip580)" d="M 0 0 M2180.42 708.182 Q2179.7 707.765 2178.85 707.58 Q2178.01 707.371 2176.99 707.371 Q2173.38 707.371 2171.44 709.733 Q2169.52 712.071 2169.52 716.469 L2169.52 730.126 L2165.23 730.126 L2165.23 704.2 L2169.52 704.2 L2169.52 708.228 Q2170.86 705.867 2173.01 704.733 Q2175.17 703.575 2178.24 703.575 Q2178.68 703.575 2179.22 703.645 Q2179.75 703.691 2180.4 703.807 L2180.42 708.182 Z" fill="#000000" fill-rule="evenodd" fill-opacity="1" /><path clip-path="url(#clip580)" d="M 0 0 M2181.83 704.2 L2186.35 704.2 L2194.45 725.959 L2202.55 704.2 L2207.06 704.2 L2197.34 730.126 L2191.55 730.126 L2181.83 704.2 Z" fill="#000000" fill-rule="evenodd" fill-opacity="1" /><path clip-path="url(#clip580)" d="M 0 0 M2235.12 716.098 L2235.12 718.182 L2215.54 718.182 Q2215.81 722.58 2218.17 724.895 Q2220.56 727.186 2224.79 727.186 Q2227.25 727.186 2229.54 726.584 Q2231.85 725.982 2234.12 724.779 L2234.12 728.807 Q2231.83 729.779 2229.42 730.288 Q2227.02 730.797 2224.54 730.797 Q2218.34 730.797 2214.7 727.186 Q2211.09 723.575 2211.09 717.418 Q2211.09 711.052 2214.52 707.325 Q2217.97 703.575 2223.8 703.575 Q2229.03 703.575 2232.06 706.955 Q2235.12 710.311 2235.12 716.098 M2230.86 714.848 Q2230.81 711.353 2228.89 709.27 Q2226.99 707.186 2223.85 707.186 Q2220.28 707.186 2218.13 709.2 Q2216 711.214 2215.67 714.871 L2230.86 714.848 Z" fill="#000000" fill-rule="evenodd" fill-opacity="1" /><circle clip-path="url(#clip580)" cx="1859.83" cy="773.326" r="23" fill="#e26f46" fill-rule="evenodd" fill-opacity="1" stroke="#000000" stroke-opacity="1" stroke-width="5.12"/>
<path clip-path="url(#clip580)" d="M 0 0 M1958.62 759.889 L1958.62 786.763 L1964.26 786.763 Q1971.42 786.763 1974.73 783.523 Q1978.06 780.282 1978.06 773.291 Q1978.06 766.347 1974.73 763.129 Q1971.42 759.889 1964.26 759.889 L1958.62 759.889 M1953.94 756.046 L1963.55 756.046 Q1973.59 756.046 1978.29 760.236 Q1982.99 764.402 1982.99 773.291 Q1982.99 782.226 1978.27 786.416 Q1973.55 790.606 1963.55 790.606 L1953.94 790.606 L1953.94 756.046 Z" fill="#000000" fill-rule="evenodd" fill-opacity="1" /><path clip-path="url(#clip580)" d="M 0 0 M2002.04 777.574 Q1996.88 777.574 1994.89 778.754 Q1992.9 779.935 1992.9 782.782 Q1992.9 785.05 1994.38 786.393 Q1995.88 787.712 1998.45 787.712 Q2001.99 787.712 2004.12 785.212 Q2006.28 782.689 2006.28 778.523 L2006.28 777.574 L2002.04 777.574 M2010.54 775.814 L2010.54 790.606 L2006.28 790.606 L2006.28 786.671 Q2004.82 789.032 2002.64 790.166 Q2000.47 791.277 1997.32 791.277 Q1993.34 791.277 1990.98 789.055 Q1988.64 786.81 1988.64 783.06 Q1988.64 778.685 1991.56 776.463 Q1994.49 774.24 2000.3 774.24 L2006.28 774.24 L2006.28 773.824 Q2006.28 770.884 2004.33 769.287 Q2002.41 767.666 1998.92 767.666 Q1996.69 767.666 1994.59 768.199 Q1992.48 768.731 1990.54 769.796 L1990.54 765.861 Q1992.87 764.958 1995.07 764.518 Q1997.27 764.055 1999.36 764.055 Q2004.98 764.055 2007.76 766.972 Q2010.54 769.889 2010.54 775.814 Z" fill="#000000" fill-rule="evenodd" fill-opacity="1" /><path clip-path="url(#clip580)" d="M 0 0 M2023.52 757.319 L2023.52 764.68 L2032.3 764.68 L2032.3 767.99 L2023.52 767.99 L2023.52 782.064 Q2023.52 785.236 2024.38 786.138 Q2025.26 787.041 2027.92 787.041 L2032.3 787.041 L2032.3 790.606 L2027.92 790.606 Q2022.99 790.606 2021.12 788.777 Q2019.24 786.925 2019.24 782.064 L2019.24 767.99 L2016.12 767.99 L2016.12 764.68 L2019.24 764.68 L2019.24 757.319 L2023.52 757.319 Z" fill="#000000" fill-rule="evenodd" fill-opacity="1" /><path clip-path="url(#clip580)" d="M 0 0 M2049.68 777.574 Q2044.52 777.574 2042.53 778.754 Q2040.54 779.935 2040.54 782.782 Q2040.54 785.05 2042.02 786.393 Q2043.52 787.712 2046.09 787.712 Q2049.63 787.712 2051.76 785.212 Q2053.92 782.689 2053.92 778.523 L2053.92 777.574 L2049.68 777.574 M2058.18 775.814 L2058.18 790.606 L2053.92 790.606 L2053.92 786.671 Q2052.46 789.032 2050.28 790.166 Q2048.11 791.277 2044.96 791.277 Q2040.98 791.277 2038.61 789.055 Q2036.28 786.81 2036.28 783.06 Q2036.28 778.685 2039.19 776.463 Q2042.13 774.24 2047.94 774.24 L2053.92 774.24 L2053.92 773.824 Q2053.92 770.884 2051.97 769.287 Q2050.05 767.666 2046.55 767.666 Q2044.33 767.666 2042.23 768.199 Q2040.12 768.731 2038.18 769.796 L2038.18 765.861 Q2040.51 764.958 2042.71 764.518 Q2044.91 764.055 2046.99 764.055 Q2052.62 764.055 2055.4 766.972 Q2058.18 769.889 2058.18 775.814 Z" fill="#000000" fill-rule="evenodd" fill-opacity="1" /></svg>
