<?xml version="1.0" encoding="utf-8"?>
<svg xmlns="http://www.w3.org/2000/svg" xmlns:xlink="http://www.w3.org/1999/xlink" width="600" height="400" viewBox="0 0 2400 1600">
<defs>
  <clipPath id="clip660">
    <rect x="0" y="0" width="2400" height="1600"/>
  </clipPath>
</defs>
<path clip-path="url(#clip660)" d="
M0 1600 L2400 1600 L2400 0 L0 0  Z
  " fill="#ffffff" fill-rule="evenodd" fill-opacity="1"/>
<defs>
  <clipPath id="clip661">
    <rect x="480" y="0" width="1681" height="1600"/>
  </clipPath>
</defs>
<path clip-path="url(#clip660)" d="
M235.283 1423.18 L2352.76 1423.18 L2352.76 123.472 L235.283 123.472  Z
  " fill="#ffffff" fill-rule="evenodd" fill-opacity="1"/>
<defs>
  <clipPath id="clip662">
    <rect x="235" y="123" width="2118" height="1301"/>
  </clipPath>
</defs>
<polyline clip-path="url(#clip662)" style="stroke:#000000; stroke-width:2; stroke-opacity:0.1; fill:none" points="
  295.211,1423.18 295.211,123.472 
  "/>
<polyline clip-path="url(#clip662)" style="stroke:#000000; stroke-width:2; stroke-opacity:0.1; fill:none" points="
  970.462,1423.18 970.462,123.472 
  "/>
<polyline clip-path="url(#clip662)" style="stroke:#000000; stroke-width:2; stroke-opacity:0.1; fill:none" points="
  1645.71,1423.18 1645.71,123.472 
  "/>
<polyline clip-path="url(#clip662)" style="stroke:#000000; stroke-width:2; stroke-opacity:0.1; fill:none" points="
  2320.96,1423.18 2320.96,123.472 
  "/>
<polyline clip-path="url(#clip660)" style="stroke:#000000; stroke-width:4; stroke-opacity:1; fill:none" points="
  235.283,1423.18 2352.76,1423.18 
  "/>
<polyline clip-path="url(#clip660)" style="stroke:#000000; stroke-width:4; stroke-opacity:1; fill:none" points="
  295.211,1423.18 295.211,1407.58 
  "/>
<polyline clip-path="url(#clip660)" style="stroke:#000000; stroke-width:4; stroke-opacity:1; fill:none" points="
  970.462,1423.18 970.462,1407.58 
  "/>
<polyline clip-path="url(#clip660)" style="stroke:#000000; stroke-width:4; stroke-opacity:1; fill:none" points="
  1645.71,1423.18 1645.71,1407.58 
  "/>
<polyline clip-path="url(#clip660)" style="stroke:#000000; stroke-width:4; stroke-opacity:1; fill:none" points="
  2320.96,1423.18 2320.96,1407.58 
  "/>
<path clip-path="url(#clip660)" d="M 0 0 M166.393 1479.92 L182.712 1479.92 L182.712 1483.85 L160.768 1483.85 L160.768 1479.92 Q163.43 1477.16 168.013 1472.53 Q172.619 1467.88 173.8 1466.54 Q176.045 1464.01 176.925 1462.28 Q177.828 1460.52 177.828 1458.83 Q177.828 1456.07 175.883 1454.34 Q173.962 1452.6 170.86 1452.6 Q168.661 1452.6 166.207 1453.37 Q163.777 1454.13 160.999 1455.68 L160.999 1450.96 Q163.823 1449.82 166.277 1449.25 Q168.731 1448.67 170.768 1448.67 Q176.138 1448.67 179.332 1451.35 Q182.527 1454.04 182.527 1458.53 Q182.527 1460.66 181.717 1462.58 Q180.93 1464.48 178.823 1467.07 Q178.244 1467.74 175.143 1470.96 Q172.041 1474.15 166.393 1479.92 Z" fill="#000000" fill-rule="evenodd" fill-opacity="1" /><path clip-path="url(#clip660)" d="M 0 0 M202.527 1452.37 Q198.916 1452.37 197.087 1455.94 Q195.281 1459.48 195.281 1466.61 Q195.281 1473.71 197.087 1477.28 Q198.916 1480.82 202.527 1480.82 Q206.161 1480.82 207.966 1477.28 Q209.795 1473.71 209.795 1466.61 Q209.795 1459.48 207.966 1455.94 Q206.161 1452.37 202.527 1452.37 M202.527 1448.67 Q208.337 1448.67 211.392 1453.27 Q214.471 1457.86 214.471 1466.61 Q214.471 1475.33 211.392 1479.94 Q208.337 1484.52 202.527 1484.52 Q196.716 1484.52 193.638 1479.94 Q190.582 1475.33 190.582 1466.61 Q190.582 1457.86 193.638 1453.27 Q196.716 1448.67 202.527 1448.67 Z" fill="#000000" fill-rule="evenodd" fill-opacity="1" /><path clip-path="url(#clip660)" d="M 0 0 M223.499 1479.92 L231.138 1479.92 L231.138 1453.55 L222.827 1455.22 L222.827 1450.96 L231.091 1449.29 L235.767 1449.29 L235.767 1479.92 L243.406 1479.92 L243.406 1483.85 L223.499 1483.85 L223.499 1479.92 Z" fill="#000000" fill-rule="evenodd" fill-opacity="1" /><path clip-path="url(#clip660)" d="M 0 0 M252.989 1483.13 L252.989 1478.88 Q254.749 1479.71 256.554 1480.15 Q258.36 1480.59 260.096 1480.59 Q264.725 1480.59 267.156 1477.49 Q269.61 1474.36 269.957 1468.02 Q268.614 1470.01 266.554 1471.07 Q264.494 1472.14 261.994 1472.14 Q256.809 1472.14 253.776 1469.01 Q250.767 1465.87 250.767 1460.43 Q250.767 1455.1 253.915 1451.88 Q257.063 1448.67 262.295 1448.67 Q268.29 1448.67 271.438 1453.27 Q274.61 1457.86 274.61 1466.61 Q274.61 1474.78 270.721 1479.66 Q266.855 1484.52 260.304 1484.52 Q258.545 1484.52 256.739 1484.18 Q254.934 1483.83 252.989 1483.13 M262.295 1468.48 Q265.443 1468.48 267.272 1466.33 Q269.124 1464.18 269.124 1460.43 Q269.124 1456.7 267.272 1454.55 Q265.443 1452.37 262.295 1452.37 Q259.147 1452.37 257.295 1454.55 Q255.466 1456.7 255.466 1460.43 Q255.466 1464.18 257.295 1466.33 Q259.147 1468.48 262.295 1468.48 Z" fill="#000000" fill-rule="evenodd" fill-opacity="1" /><path clip-path="url(#clip660)" d="M 0 0 M280.258 1468.97 L292.734 1468.97 L292.734 1472.76 L280.258 1472.76 L280.258 1468.97 Z" fill="#000000" fill-rule="evenodd" fill-opacity="1" /><path clip-path="url(#clip660)" d="M 0 0 M310.119 1452.37 Q306.508 1452.37 304.679 1455.94 Q302.873 1459.48 302.873 1466.61 Q302.873 1473.71 304.679 1477.28 Q306.508 1480.82 310.119 1480.82 Q313.753 1480.82 315.558 1477.28 Q317.387 1473.71 317.387 1466.61 Q317.387 1459.48 315.558 1455.94 Q313.753 1452.37 310.119 1452.37 M310.119 1448.67 Q315.929 1448.67 318.984 1453.27 Q322.063 1457.86 322.063 1466.61 Q322.063 1475.33 318.984 1479.94 Q315.929 1484.52 310.119 1484.52 Q304.309 1484.52 301.23 1479.94 Q298.174 1475.33 298.174 1466.61 Q298.174 1457.86 301.23 1453.27 Q304.309 1448.67 310.119 1448.67 Z" fill="#000000" fill-rule="evenodd" fill-opacity="1" /><path clip-path="url(#clip660)" d="M 0 0 M330.327 1449.29 L348.683 1449.29 L348.683 1453.23 L334.609 1453.23 L334.609 1461.7 Q335.628 1461.35 336.646 1461.19 Q337.665 1461 338.683 1461 Q344.47 1461 347.85 1464.18 Q351.23 1467.35 351.23 1472.76 Q351.23 1478.34 347.757 1481.44 Q344.285 1484.52 337.966 1484.52 Q335.79 1484.52 333.521 1484.15 Q331.276 1483.78 328.869 1483.04 L328.869 1478.34 Q330.952 1479.48 333.174 1480.03 Q335.396 1480.59 337.873 1480.59 Q341.878 1480.59 344.216 1478.48 Q346.554 1476.38 346.554 1472.76 Q346.554 1469.15 344.216 1467.05 Q341.878 1464.94 337.873 1464.94 Q335.998 1464.94 334.123 1465.36 Q332.271 1465.77 330.327 1466.65 L330.327 1449.29 Z" fill="#000000" fill-rule="evenodd" fill-opacity="1" /><path clip-path="url(#clip660)" d="M 0 0 M357.688 1468.97 L370.165 1468.97 L370.165 1472.76 L357.688 1472.76 L357.688 1468.97 Z" fill="#000000" fill-rule="evenodd" fill-opacity="1" /><path clip-path="url(#clip660)" d="M 0 0 M391.715 1465.22 Q395.072 1465.94 396.947 1468.2 Q398.845 1470.47 398.845 1473.81 Q398.845 1478.92 395.327 1481.72 Q391.808 1484.52 385.327 1484.52 Q383.151 1484.52 380.836 1484.08 Q378.544 1483.67 376.091 1482.81 L376.091 1478.3 Q378.035 1479.43 380.35 1480.01 Q382.665 1480.59 385.188 1480.59 Q389.586 1480.59 391.877 1478.85 Q394.192 1477.12 394.192 1473.81 Q394.192 1470.75 392.04 1469.04 Q389.91 1467.3 386.09 1467.3 L382.063 1467.3 L382.063 1463.46 L386.276 1463.46 Q389.725 1463.46 391.553 1462.09 Q393.382 1460.7 393.382 1458.11 Q393.382 1455.45 391.484 1454.04 Q389.609 1452.6 386.09 1452.6 Q384.169 1452.6 381.97 1453.02 Q379.771 1453.44 377.132 1454.31 L377.132 1450.15 Q379.794 1449.41 382.109 1449.04 Q384.447 1448.67 386.507 1448.67 Q391.831 1448.67 394.933 1451.1 Q398.035 1453.5 398.035 1457.63 Q398.035 1460.5 396.391 1462.49 Q394.748 1464.45 391.715 1465.22 Z" fill="#000000" fill-rule="evenodd" fill-opacity="1" /><path clip-path="url(#clip660)" d="M 0 0 M417.711 1452.37 Q414.1 1452.37 412.271 1455.94 Q410.465 1459.48 410.465 1466.61 Q410.465 1473.71 412.271 1477.28 Q414.1 1480.82 417.711 1480.82 Q421.345 1480.82 423.15 1477.28 Q424.979 1473.71 424.979 1466.61 Q424.979 1459.48 423.15 1455.94 Q421.345 1452.37 417.711 1452.37 M417.711 1448.67 Q423.521 1448.67 426.576 1453.27 Q429.655 1457.86 429.655 1466.61 Q429.655 1475.33 426.576 1479.94 Q423.521 1484.52 417.711 1484.52 Q411.901 1484.52 408.822 1479.94 Q405.766 1475.33 405.766 1466.61 Q405.766 1457.86 408.822 1453.27 Q411.901 1448.67 417.711 1448.67 Z" fill="#000000" fill-rule="evenodd" fill-opacity="1" /><path clip-path="url(#clip660)" d="M 0 0 M842.257 1479.92 L858.576 1479.92 L858.576 1483.85 L836.632 1483.85 L836.632 1479.92 Q839.294 1477.16 843.877 1472.53 Q848.483 1467.88 849.664 1466.54 Q851.909 1464.01 852.789 1462.28 Q853.692 1460.52 853.692 1458.83 Q853.692 1456.07 851.747 1454.34 Q849.826 1452.6 846.724 1452.6 Q844.525 1452.6 842.071 1453.37 Q839.641 1454.13 836.863 1455.68 L836.863 1450.96 Q839.687 1449.82 842.141 1449.25 Q844.594 1448.67 846.631 1448.67 Q852.002 1448.67 855.196 1451.35 Q858.391 1454.04 858.391 1458.53 Q858.391 1460.66 857.581 1462.58 Q856.793 1464.48 854.687 1467.07 Q854.108 1467.74 851.006 1470.96 Q847.905 1474.15 842.257 1479.92 Z" fill="#000000" fill-rule="evenodd" fill-opacity="1" /><path clip-path="url(#clip660)" d="M 0 0 M878.391 1452.37 Q874.779 1452.37 872.951 1455.94 Q871.145 1459.48 871.145 1466.61 Q871.145 1473.71 872.951 1477.28 Q874.779 1480.82 878.391 1480.82 Q882.025 1480.82 883.83 1477.28 Q885.659 1473.71 885.659 1466.61 Q885.659 1459.48 883.83 1455.94 Q882.025 1452.37 878.391 1452.37 M878.391 1448.67 Q884.201 1448.67 887.256 1453.27 Q890.335 1457.86 890.335 1466.61 Q890.335 1475.33 887.256 1479.94 Q884.201 1484.52 878.391 1484.52 Q872.58 1484.52 869.502 1479.94 Q866.446 1475.33 866.446 1466.61 Q866.446 1457.86 869.502 1453.27 Q872.58 1448.67 878.391 1448.67 Z" fill="#000000" fill-rule="evenodd" fill-opacity="1" /><path clip-path="url(#clip660)" d="M 0 0 M899.363 1479.92 L907.002 1479.92 L907.002 1453.55 L898.691 1455.22 L898.691 1450.96 L906.955 1449.29 L911.631 1449.29 L911.631 1479.92 L919.27 1479.92 L919.27 1483.85 L899.363 1483.85 L899.363 1479.92 Z" fill="#000000" fill-rule="evenodd" fill-opacity="1" /><path clip-path="url(#clip660)" d="M 0 0 M928.853 1483.13 L928.853 1478.88 Q930.613 1479.71 932.418 1480.15 Q934.224 1480.59 935.96 1480.59 Q940.589 1480.59 943.02 1477.49 Q945.474 1474.36 945.821 1468.02 Q944.478 1470.01 942.418 1471.07 Q940.358 1472.14 937.858 1472.14 Q932.673 1472.14 929.64 1469.01 Q926.631 1465.87 926.631 1460.43 Q926.631 1455.1 929.779 1451.88 Q932.927 1448.67 938.159 1448.67 Q944.154 1448.67 947.302 1453.27 Q950.474 1457.86 950.474 1466.61 Q950.474 1474.78 946.585 1479.66 Q942.719 1484.52 936.168 1484.52 Q934.409 1484.52 932.603 1484.18 Q930.798 1483.83 928.853 1483.13 M938.159 1468.48 Q941.307 1468.48 943.136 1466.33 Q944.987 1464.18 944.987 1460.43 Q944.987 1456.7 943.136 1454.55 Q941.307 1452.37 938.159 1452.37 Q935.011 1452.37 933.159 1454.55 Q931.33 1456.7 931.33 1460.43 Q931.33 1464.18 933.159 1466.33 Q935.011 1468.48 938.159 1468.48 Z" fill="#000000" fill-rule="evenodd" fill-opacity="1" /><path clip-path="url(#clip660)" d="M 0 0 M956.122 1468.97 L968.598 1468.97 L968.598 1472.76 L956.122 1472.76 L956.122 1468.97 Z" fill="#000000" fill-rule="evenodd" fill-opacity="1" /><path clip-path="url(#clip660)" d="M 0 0 M985.983 1452.37 Q982.372 1452.37 980.543 1455.94 Q978.737 1459.48 978.737 1466.61 Q978.737 1473.71 980.543 1477.28 Q982.372 1480.82 985.983 1480.82 Q989.617 1480.82 991.422 1477.28 Q993.251 1473.71 993.251 1466.61 Q993.251 1459.48 991.422 1455.94 Q989.617 1452.37 985.983 1452.37 M985.983 1448.67 Q991.793 1448.67 994.848 1453.27 Q997.927 1457.86 997.927 1466.61 Q997.927 1475.33 994.848 1479.94 Q991.793 1484.52 985.983 1484.52 Q980.172 1484.52 977.094 1479.94 Q974.038 1475.33 974.038 1466.61 Q974.038 1457.86 977.094 1453.27 Q980.172 1448.67 985.983 1448.67 Z" fill="#000000" fill-rule="evenodd" fill-opacity="1" /><path clip-path="url(#clip660)" d="M 0 0 M1006.19 1449.29 L1024.55 1449.29 L1024.55 1453.23 L1010.47 1453.23 L1010.47 1461.7 Q1011.49 1461.35 1012.51 1461.19 Q1013.53 1461 1014.55 1461 Q1020.33 1461 1023.71 1464.18 Q1027.09 1467.35 1027.09 1472.76 Q1027.09 1478.34 1023.62 1481.44 Q1020.15 1484.52 1013.83 1484.52 Q1011.65 1484.52 1009.39 1484.15 Q1007.14 1483.78 1004.73 1483.04 L1004.73 1478.34 Q1006.82 1479.48 1009.04 1480.03 Q1011.26 1480.59 1013.74 1480.59 Q1017.74 1480.59 1020.08 1478.48 Q1022.42 1476.38 1022.42 1472.76 Q1022.42 1469.15 1020.08 1467.05 Q1017.74 1464.94 1013.74 1464.94 Q1011.86 1464.94 1009.99 1465.36 Q1008.14 1465.77 1006.19 1466.65 L1006.19 1449.29 Z" fill="#000000" fill-rule="evenodd" fill-opacity="1" /><path clip-path="url(#clip660)" d="M 0 0 M1033.55 1468.97 L1046.03 1468.97 L1046.03 1472.76 L1033.55 1472.76 L1033.55 1468.97 Z" fill="#000000" fill-rule="evenodd" fill-opacity="1" /><path clip-path="url(#clip660)" d="M 0 0 M1067.58 1465.22 Q1070.94 1465.94 1072.81 1468.2 Q1074.71 1470.47 1074.71 1473.81 Q1074.71 1478.92 1071.19 1481.72 Q1067.67 1484.52 1061.19 1484.52 Q1059.01 1484.52 1056.7 1484.08 Q1054.41 1483.67 1051.95 1482.81 L1051.95 1478.3 Q1053.9 1479.43 1056.21 1480.01 Q1058.53 1480.59 1061.05 1480.59 Q1065.45 1480.59 1067.74 1478.85 Q1070.06 1477.12 1070.06 1473.81 Q1070.06 1470.75 1067.9 1469.04 Q1065.77 1467.3 1061.95 1467.3 L1057.93 1467.3 L1057.93 1463.46 L1062.14 1463.46 Q1065.59 1463.46 1067.42 1462.09 Q1069.25 1460.7 1069.25 1458.11 Q1069.25 1455.45 1067.35 1454.04 Q1065.47 1452.6 1061.95 1452.6 Q1060.03 1452.6 1057.83 1453.02 Q1055.63 1453.44 1053 1454.31 L1053 1450.15 Q1055.66 1449.41 1057.97 1449.04 Q1060.31 1448.67 1062.37 1448.67 Q1067.7 1448.67 1070.8 1451.1 Q1073.9 1453.5 1073.9 1457.63 Q1073.9 1460.5 1072.26 1462.49 Q1070.61 1464.45 1067.58 1465.22 Z" fill="#000000" fill-rule="evenodd" fill-opacity="1" /><path clip-path="url(#clip660)" d="M 0 0 M1084.38 1479.92 L1092.02 1479.92 L1092.02 1453.55 L1083.71 1455.22 L1083.71 1450.96 L1091.98 1449.29 L1096.65 1449.29 L1096.65 1479.92 L1104.29 1479.92 L1104.29 1483.85 L1084.38 1483.85 L1084.38 1479.92 Z" fill="#000000" fill-rule="evenodd" fill-opacity="1" /><path clip-path="url(#clip660)" d="M 0 0 M1517.51 1479.92 L1533.83 1479.92 L1533.83 1483.85 L1511.88 1483.85 L1511.88 1479.92 Q1514.54 1477.16 1519.13 1472.53 Q1523.73 1467.88 1524.91 1466.54 Q1527.16 1464.01 1528.04 1462.28 Q1528.94 1460.52 1528.94 1458.83 Q1528.94 1456.07 1527 1454.34 Q1525.08 1452.6 1521.97 1452.6 Q1519.78 1452.6 1517.32 1453.37 Q1514.89 1454.13 1512.11 1455.68 L1512.11 1450.96 Q1514.94 1449.82 1517.39 1449.25 Q1519.84 1448.67 1521.88 1448.67 Q1527.25 1448.67 1530.45 1451.35 Q1533.64 1454.04 1533.64 1458.53 Q1533.64 1460.66 1532.83 1462.58 Q1532.04 1464.48 1529.94 1467.07 Q1529.36 1467.74 1526.26 1470.96 Q1523.16 1474.15 1517.51 1479.92 Z" fill="#000000" fill-rule="evenodd" fill-opacity="1" /><path clip-path="url(#clip660)" d="M 0 0 M1553.64 1452.37 Q1550.03 1452.37 1548.2 1455.94 Q1546.4 1459.48 1546.4 1466.61 Q1546.4 1473.71 1548.2 1477.28 Q1550.03 1480.82 1553.64 1480.82 Q1557.28 1480.82 1559.08 1477.28 Q1560.91 1473.71 1560.91 1466.61 Q1560.91 1459.48 1559.08 1455.94 Q1557.28 1452.37 1553.64 1452.37 M1553.64 1448.67 Q1559.45 1448.67 1562.51 1453.27 Q1565.59 1457.86 1565.59 1466.61 Q1565.59 1475.33 1562.51 1479.94 Q1559.45 1484.52 1553.64 1484.52 Q1547.83 1484.52 1544.75 1479.94 Q1541.7 1475.33 1541.7 1466.61 Q1541.7 1457.86 1544.75 1453.27 Q1547.83 1448.67 1553.64 1448.67 Z" fill="#000000" fill-rule="evenodd" fill-opacity="1" /><path clip-path="url(#clip660)" d="M 0 0 M1574.61 1479.92 L1582.25 1479.92 L1582.25 1453.55 L1573.94 1455.22 L1573.94 1450.96 L1582.21 1449.29 L1586.88 1449.29 L1586.88 1479.92 L1594.52 1479.92 L1594.52 1483.85 L1574.61 1483.85 L1574.61 1479.92 Z" fill="#000000" fill-rule="evenodd" fill-opacity="1" /><path clip-path="url(#clip660)" d="M 0 0 M1604.1 1483.13 L1604.1 1478.88 Q1605.86 1479.71 1607.67 1480.15 Q1609.47 1480.59 1611.21 1480.59 Q1615.84 1480.59 1618.27 1477.49 Q1620.72 1474.36 1621.07 1468.02 Q1619.73 1470.01 1617.67 1471.07 Q1615.61 1472.14 1613.11 1472.14 Q1607.92 1472.14 1604.89 1469.01 Q1601.88 1465.87 1601.88 1460.43 Q1601.88 1455.1 1605.03 1451.88 Q1608.18 1448.67 1613.41 1448.67 Q1619.4 1448.67 1622.55 1453.27 Q1625.72 1457.86 1625.72 1466.61 Q1625.72 1474.78 1621.84 1479.66 Q1617.97 1484.52 1611.42 1484.52 Q1609.66 1484.52 1607.85 1484.18 Q1606.05 1483.83 1604.1 1483.13 M1613.41 1468.48 Q1616.56 1468.48 1618.39 1466.33 Q1620.24 1464.18 1620.24 1460.43 Q1620.24 1456.7 1618.39 1454.55 Q1616.56 1452.37 1613.41 1452.37 Q1610.26 1452.37 1608.41 1454.55 Q1606.58 1456.7 1606.58 1460.43 Q1606.58 1464.18 1608.41 1466.33 Q1610.26 1468.48 1613.41 1468.48 Z" fill="#000000" fill-rule="evenodd" fill-opacity="1" /><path clip-path="url(#clip660)" d="M 0 0 M1631.37 1468.97 L1643.85 1468.97 L1643.85 1472.76 L1631.37 1472.76 L1631.37 1468.97 Z" fill="#000000" fill-rule="evenodd" fill-opacity="1" /><path clip-path="url(#clip660)" d="M 0 0 M1661.23 1452.37 Q1657.62 1452.37 1655.79 1455.94 Q1653.99 1459.48 1653.99 1466.61 Q1653.99 1473.71 1655.79 1477.28 Q1657.62 1480.82 1661.23 1480.82 Q1664.87 1480.82 1666.67 1477.28 Q1668.5 1473.71 1668.5 1466.61 Q1668.5 1459.48 1666.67 1455.94 Q1664.87 1452.37 1661.23 1452.37 M1661.23 1448.67 Q1667.04 1448.67 1670.1 1453.27 Q1673.18 1457.86 1673.18 1466.61 Q1673.18 1475.33 1670.1 1479.94 Q1667.04 1484.52 1661.23 1484.52 Q1655.42 1484.52 1652.34 1479.94 Q1649.29 1475.33 1649.29 1466.61 Q1649.29 1457.86 1652.34 1453.27 Q1655.42 1448.67 1661.23 1448.67 Z" fill="#000000" fill-rule="evenodd" fill-opacity="1" /><path clip-path="url(#clip660)" d="M 0 0 M1691.97 1464.71 Q1688.83 1464.71 1686.97 1466.86 Q1685.15 1469.01 1685.15 1472.76 Q1685.15 1476.49 1686.97 1478.67 Q1688.83 1480.82 1691.97 1480.82 Q1695.12 1480.82 1696.95 1478.67 Q1698.8 1476.49 1698.8 1472.76 Q1698.8 1469.01 1696.95 1466.86 Q1695.12 1464.71 1691.97 1464.71 M1701.26 1450.06 L1701.26 1454.31 Q1699.5 1453.48 1697.69 1453.04 Q1695.91 1452.6 1694.15 1452.6 Q1689.52 1452.6 1687.07 1455.73 Q1684.64 1458.85 1684.29 1465.17 Q1685.65 1463.16 1687.71 1462.09 Q1689.77 1461 1692.25 1461 Q1697.46 1461 1700.47 1464.18 Q1703.5 1467.32 1703.5 1472.76 Q1703.5 1478.09 1700.35 1481.31 Q1697.21 1484.52 1691.97 1484.52 Q1685.98 1484.52 1682.81 1479.94 Q1679.64 1475.33 1679.64 1466.61 Q1679.64 1458.41 1683.52 1453.55 Q1687.41 1448.67 1693.96 1448.67 Q1695.72 1448.67 1697.51 1449.01 Q1699.31 1449.36 1701.26 1450.06 Z" fill="#000000" fill-rule="evenodd" fill-opacity="1" /><path clip-path="url(#clip660)" d="M 0 0 M1708.8 1468.97 L1721.28 1468.97 L1721.28 1472.76 L1708.8 1472.76 L1708.8 1468.97 Z" fill="#000000" fill-rule="evenodd" fill-opacity="1" /><path clip-path="url(#clip660)" d="M 0 0 M1738.66 1452.37 Q1735.05 1452.37 1733.22 1455.94 Q1731.42 1459.48 1731.42 1466.61 Q1731.42 1473.71 1733.22 1477.28 Q1735.05 1480.82 1738.66 1480.82 Q1742.3 1480.82 1744.1 1477.28 Q1745.93 1473.71 1745.93 1466.61 Q1745.93 1459.48 1744.1 1455.94 Q1742.3 1452.37 1738.66 1452.37 M1738.66 1448.67 Q1744.47 1448.67 1747.53 1453.27 Q1750.61 1457.86 1750.61 1466.61 Q1750.61 1475.33 1747.53 1479.94 Q1744.47 1484.52 1738.66 1484.52 Q1732.85 1484.52 1729.77 1479.94 Q1726.72 1475.33 1726.72 1466.61 Q1726.72 1457.86 1729.77 1453.27 Q1732.85 1448.67 1738.66 1448.67 Z" fill="#000000" fill-rule="evenodd" fill-opacity="1" /><path clip-path="url(#clip660)" d="M 0 0 M1759.64 1479.92 L1767.27 1479.92 L1767.27 1453.55 L1758.96 1455.22 L1758.96 1450.96 L1767.23 1449.29 L1771.9 1449.29 L1771.9 1479.92 L1779.54 1479.92 L1779.54 1483.85 L1759.64 1483.85 L1759.64 1479.92 Z" fill="#000000" fill-rule="evenodd" fill-opacity="1" /><path clip-path="url(#clip660)" d="M 0 0 M2192.94 1479.92 L2209.26 1479.92 L2209.26 1483.85 L2187.32 1483.85 L2187.32 1479.92 Q2189.98 1477.16 2194.56 1472.53 Q2199.17 1467.88 2200.35 1466.54 Q2202.6 1464.01 2203.48 1462.28 Q2204.38 1460.52 2204.38 1458.83 Q2204.38 1456.07 2202.43 1454.34 Q2200.51 1452.6 2197.41 1452.6 Q2195.21 1452.6 2192.76 1453.37 Q2190.33 1454.13 2187.55 1455.68 L2187.55 1450.96 Q2190.37 1449.82 2192.83 1449.25 Q2195.28 1448.67 2197.32 1448.67 Q2202.69 1448.67 2205.88 1451.35 Q2209.08 1454.04 2209.08 1458.53 Q2209.08 1460.66 2208.27 1462.58 Q2207.48 1464.48 2205.37 1467.07 Q2204.79 1467.74 2201.69 1470.96 Q2198.59 1474.15 2192.94 1479.92 Z" fill="#000000" fill-rule="evenodd" fill-opacity="1" /><path clip-path="url(#clip660)" d="M 0 0 M2229.08 1452.37 Q2225.47 1452.37 2223.64 1455.94 Q2221.83 1459.48 2221.83 1466.61 Q2221.83 1473.71 2223.64 1477.28 Q2225.47 1480.82 2229.08 1480.82 Q2232.71 1480.82 2234.52 1477.28 Q2236.35 1473.71 2236.35 1466.61 Q2236.35 1459.48 2234.52 1455.94 Q2232.71 1452.37 2229.08 1452.37 M2229.08 1448.67 Q2234.89 1448.67 2237.94 1453.27 Q2241.02 1457.86 2241.02 1466.61 Q2241.02 1475.33 2237.94 1479.94 Q2234.89 1484.52 2229.08 1484.52 Q2223.27 1484.52 2220.19 1479.94 Q2217.13 1475.33 2217.13 1466.61 Q2217.13 1457.86 2220.19 1453.27 Q2223.27 1448.67 2229.08 1448.67 Z" fill="#000000" fill-rule="evenodd" fill-opacity="1" /><path clip-path="url(#clip660)" d="M 0 0 M2250.05 1479.92 L2257.69 1479.92 L2257.69 1453.55 L2249.38 1455.22 L2249.38 1450.96 L2257.64 1449.29 L2262.32 1449.29 L2262.32 1479.92 L2269.96 1479.92 L2269.96 1483.85 L2250.05 1483.85 L2250.05 1479.92 Z" fill="#000000" fill-rule="evenodd" fill-opacity="1" /><path clip-path="url(#clip660)" d="M 0 0 M2279.54 1483.13 L2279.54 1478.88 Q2281.3 1479.71 2283.1 1480.15 Q2284.91 1480.59 2286.65 1480.59 Q2291.28 1480.59 2293.71 1477.49 Q2296.16 1474.36 2296.51 1468.02 Q2295.16 1470.01 2293.1 1471.07 Q2291.04 1472.14 2288.54 1472.14 Q2283.36 1472.14 2280.33 1469.01 Q2277.32 1465.87 2277.32 1460.43 Q2277.32 1455.1 2280.47 1451.88 Q2283.61 1448.67 2288.84 1448.67 Q2294.84 1448.67 2297.99 1453.27 Q2301.16 1457.86 2301.16 1466.61 Q2301.16 1474.78 2297.27 1479.66 Q2293.41 1484.52 2286.85 1484.52 Q2285.09 1484.52 2283.29 1484.18 Q2281.48 1483.83 2279.54 1483.13 M2288.84 1468.48 Q2291.99 1468.48 2293.82 1466.33 Q2295.67 1464.18 2295.67 1460.43 Q2295.67 1456.7 2293.82 1454.55 Q2291.99 1452.37 2288.84 1452.37 Q2285.7 1452.37 2283.85 1454.55 Q2282.02 1456.7 2282.02 1460.43 Q2282.02 1464.18 2283.85 1466.33 Q2285.7 1468.48 2288.84 1468.48 Z" fill="#000000" fill-rule="evenodd" fill-opacity="1" /><path clip-path="url(#clip660)" d="M 0 0 M2306.81 1468.97 L2319.28 1468.97 L2319.28 1472.76 L2306.81 1472.76 L2306.81 1468.97 Z" fill="#000000" fill-rule="evenodd" fill-opacity="1" /><path clip-path="url(#clip660)" d="M 0 0 M2336.67 1452.37 Q2333.06 1452.37 2331.23 1455.94 Q2329.42 1459.48 2329.42 1466.61 Q2329.42 1473.71 2331.23 1477.28 Q2333.06 1480.82 2336.67 1480.82 Q2340.3 1480.82 2342.11 1477.28 Q2343.94 1473.71 2343.94 1466.61 Q2343.94 1459.48 2342.11 1455.94 Q2340.3 1452.37 2336.67 1452.37 M2336.67 1448.67 Q2342.48 1448.67 2345.53 1453.27 Q2348.61 1457.86 2348.61 1466.61 Q2348.61 1475.33 2345.53 1479.94 Q2342.48 1484.52 2336.67 1484.52 Q2330.86 1484.52 2327.78 1479.94 Q2324.72 1475.33 2324.72 1466.61 Q2324.72 1457.86 2327.78 1453.27 Q2330.86 1448.67 2336.67 1448.67 Z" fill="#000000" fill-rule="evenodd" fill-opacity="1" /><path clip-path="url(#clip660)" d="M 0 0 M2367.41 1464.71 Q2364.26 1464.71 2362.41 1466.86 Q2360.58 1469.01 2360.58 1472.76 Q2360.58 1476.49 2362.41 1478.67 Q2364.26 1480.82 2367.41 1480.82 Q2370.56 1480.82 2372.39 1478.67 Q2374.24 1476.49 2374.24 1472.76 Q2374.24 1469.01 2372.39 1466.86 Q2370.56 1464.71 2367.41 1464.71 M2376.69 1450.06 L2376.69 1454.31 Q2374.93 1453.48 2373.13 1453.04 Q2371.34 1452.6 2369.59 1452.6 Q2364.96 1452.6 2362.5 1455.73 Q2360.07 1458.85 2359.72 1465.17 Q2361.09 1463.16 2363.15 1462.09 Q2365.21 1461 2367.69 1461 Q2372.9 1461 2375.9 1464.18 Q2378.94 1467.32 2378.94 1472.76 Q2378.94 1478.09 2375.79 1481.31 Q2372.64 1484.52 2367.41 1484.52 Q2361.41 1484.52 2358.24 1479.94 Q2355.07 1475.33 2355.07 1466.61 Q2355.07 1458.41 2358.96 1453.55 Q2362.85 1448.67 2369.4 1448.67 Q2371.16 1448.67 2372.94 1449.01 Q2374.75 1449.36 2376.69 1450.06 Z" fill="#000000" fill-rule="evenodd" fill-opacity="1" /><path clip-path="url(#clip660)" d="M 0 0 M2384.24 1468.97 L2396.71 1468.97 L2396.71 1472.76 L2384.24 1472.76 L2384.24 1468.97 Z" fill="#000000" fill-rule="evenodd" fill-opacity="1" /><path clip-path="url(#clip660)" d="M 0 0 M2414.1 1452.37 Q2410.49 1452.37 2408.66 1455.94 Q2406.85 1459.48 2406.85 1466.61 Q2406.85 1473.71 2408.66 1477.28 Q2410.49 1480.82 2414.1 1480.82 Q2417.73 1480.82 2419.54 1477.28 Q2421.37 1473.71 2421.37 1466.61 Q2421.37 1459.48 2419.54 1455.94 Q2417.73 1452.37 2414.1 1452.37 M2414.1 1448.67 Q2419.91 1448.67 2422.96 1453.27 Q2426.04 1457.86 2426.04 1466.61 Q2426.04 1475.33 2422.96 1479.94 Q2419.91 1484.52 2414.1 1484.52 Q2408.29 1484.52 2405.21 1479.94 Q2402.15 1475.33 2402.15 1466.61 Q2402.15 1457.86 2405.21 1453.27 Q2408.29 1448.67 2414.1 1448.67 Z" fill="#000000" fill-rule="evenodd" fill-opacity="1" /><path clip-path="url(#clip660)" d="M 0 0 M2438.29 1479.92 L2454.61 1479.92 L2454.61 1483.85 L2432.66 1483.85 L2432.66 1479.92 Q2435.33 1477.16 2439.91 1472.53 Q2444.52 1467.88 2445.7 1466.54 Q2447.94 1464.01 2448.82 1462.28 Q2449.72 1460.52 2449.72 1458.83 Q2449.72 1456.07 2447.78 1454.34 Q2445.86 1452.6 2442.76 1452.6 Q2440.56 1452.6 2438.1 1453.37 Q2435.67 1454.13 2432.9 1455.68 L2432.9 1450.96 Q2435.72 1449.82 2438.17 1449.25 Q2440.63 1448.67 2442.66 1448.67 Q2448.03 1448.67 2451.23 1451.35 Q2454.42 1454.04 2454.42 1458.53 Q2454.42 1460.66 2453.61 1462.58 Q2452.83 1464.48 2450.72 1467.07 Q2450.14 1467.74 2447.04 1470.96 Q2443.94 1474.15 2438.29 1479.92 Z" fill="#000000" fill-rule="evenodd" fill-opacity="1" /><path clip-path="url(#clip660)" d="M 0 0 M1227.48 1525.81 L1227.48 1562.76 L1235.25 1562.76 Q1245.08 1562.76 1249.63 1558.3 Q1254.22 1553.85 1254.22 1544.24 Q1254.22 1534.69 1249.63 1530.26 Q1245.08 1525.81 1235.25 1525.81 L1227.48 1525.81 M1221.05 1520.52 L1234.26 1520.52 Q1248.07 1520.52 1254.54 1526.28 Q1261 1532.01 1261 1544.24 Q1261 1556.52 1254.5 1562.28 Q1248.01 1568.04 1234.26 1568.04 L1221.05 1568.04 L1221.05 1520.52 Z" fill="#000000" fill-rule="evenodd" fill-opacity="1" /><path clip-path="url(#clip660)" d="M 0 0 M1287.19 1550.12 Q1280.09 1550.12 1277.36 1551.75 Q1274.62 1553.37 1274.62 1557.29 Q1274.62 1560.4 1276.66 1562.25 Q1278.73 1564.07 1282.26 1564.07 Q1287.13 1564.07 1290.06 1560.63 Q1293.02 1557.16 1293.02 1551.43 L1293.02 1550.12 L1287.19 1550.12 M1298.87 1547.71 L1298.87 1568.04 L1293.02 1568.04 L1293.02 1562.63 Q1291.01 1565.88 1288.02 1567.44 Q1285.03 1568.97 1280.7 1568.97 Q1275.22 1568.97 1271.98 1565.91 Q1268.76 1562.82 1268.76 1557.67 Q1268.76 1551.65 1272.77 1548.6 Q1276.82 1545.54 1284.81 1545.54 L1293.02 1545.54 L1293.02 1544.97 Q1293.02 1540.93 1290.34 1538.73 Q1287.7 1536.5 1282.9 1536.5 Q1279.84 1536.5 1276.94 1537.23 Q1274.05 1537.97 1271.37 1539.43 L1271.37 1534.02 Q1274.59 1532.78 1277.61 1532.17 Q1280.64 1531.54 1283.5 1531.54 Q1291.23 1531.54 1295.05 1535.55 Q1298.87 1539.56 1298.87 1547.71 Z" fill="#000000" fill-rule="evenodd" fill-opacity="1" /><path clip-path="url(#clip660)" d="M 0 0 M1316.73 1522.27 L1316.73 1532.4 L1328.79 1532.4 L1328.79 1536.95 L1316.73 1536.95 L1316.73 1556.3 Q1316.73 1560.66 1317.91 1561.9 Q1319.12 1563.14 1322.78 1563.14 L1328.79 1563.14 L1328.79 1568.04 L1322.78 1568.04 Q1316 1568.04 1313.42 1565.53 Q1310.84 1562.98 1310.84 1556.3 L1310.84 1536.95 L1306.54 1536.95 L1306.54 1532.4 L1310.84 1532.4 L1310.84 1522.27 L1316.73 1522.27 Z" fill="#000000" fill-rule="evenodd" fill-opacity="1" /><path clip-path="url(#clip660)" d="M 0 0 M1366.99 1548.76 L1366.99 1551.62 L1340.06 1551.62 Q1340.44 1557.67 1343.69 1560.85 Q1346.97 1564 1352.79 1564 Q1356.16 1564 1359.32 1563.17 Q1362.5 1562.35 1365.62 1560.69 L1365.62 1566.23 Q1362.47 1567.57 1359.16 1568.27 Q1355.85 1568.97 1352.44 1568.97 Q1343.91 1568.97 1338.91 1564 Q1333.95 1559.04 1333.95 1550.57 Q1333.95 1541.82 1338.66 1536.69 Q1343.4 1531.54 1351.42 1531.54 Q1358.62 1531.54 1362.78 1536.18 Q1366.99 1540.8 1366.99 1548.76 M1361.13 1547.04 Q1361.07 1542.23 1358.42 1539.37 Q1355.81 1536.5 1351.49 1536.5 Q1346.58 1536.5 1343.62 1539.27 Q1340.7 1542.04 1340.25 1547.07 L1361.13 1547.04 Z" fill="#000000" fill-rule="evenodd" fill-opacity="1" /><polyline clip-path="url(#clip662)" style="stroke:#000000; stroke-width:2; stroke-opacity:0.1; fill:none" points="
  235.283,1417.85 2352.76,1417.85 
  "/>
<polyline clip-path="url(#clip662)" style="stroke:#000000; stroke-width:2; stroke-opacity:0.1; fill:none" points="
  235.283,1156.15 2352.76,1156.15 
  "/>
<polyline clip-path="url(#clip662)" style="stroke:#000000; stroke-width:2; stroke-opacity:0.1; fill:none" points="
  235.283,894.445 2352.76,894.445 
  "/>
<polyline clip-path="url(#clip662)" style="stroke:#000000; stroke-width:2; stroke-opacity:0.1; fill:none" points="
  235.283,632.742 2352.76,632.742 
  "/>
<polyline clip-path="url(#clip662)" style="stroke:#000000; stroke-width:2; stroke-opacity:0.1; fill:none" points="
  235.283,371.038 2352.76,371.038 
  "/>
<polyline clip-path="url(#clip660)" style="stroke:#000000; stroke-width:4; stroke-opacity:1; fill:none" points="
  235.283,1423.18 235.283,123.472 
  "/>
<polyline clip-path="url(#clip660)" style="stroke:#000000; stroke-width:4; stroke-opacity:1; fill:none" points="
  235.283,1417.85 260.693,1417.85 
  "/>
<polyline clip-path="url(#clip660)" style="stroke:#000000; stroke-width:4; stroke-opacity:1; fill:none" points="
  235.283,1156.15 260.693,1156.15 
  "/>
<polyline clip-path="url(#clip660)" style="stroke:#000000; stroke-width:4; stroke-opacity:1; fill:none" points="
  235.283,894.445 260.693,894.445 
  "/>
<polyline clip-path="url(#clip660)" style="stroke:#000000; stroke-width:4; stroke-opacity:1; fill:none" points="
  235.283,632.742 260.693,632.742 
  "/>
<polyline clip-path="url(#clip660)" style="stroke:#000000; stroke-width:4; stroke-opacity:1; fill:none" points="
  235.283,371.038 260.693,371.038 
  "/>
<path clip-path="url(#clip660)" d="M 0 0 M187.338 1403.65 Q183.727 1403.65 181.899 1407.22 Q180.093 1410.76 180.093 1417.89 Q180.093 1424.99 181.899 1428.56 Q183.727 1432.1 187.338 1432.1 Q190.973 1432.1 192.778 1428.56 Q194.607 1424.99 194.607 1417.89 Q194.607 1410.76 192.778 1407.22 Q190.973 1403.65 187.338 1403.65 M187.338 1399.95 Q193.149 1399.95 196.204 1404.55 Q199.283 1409.14 199.283 1417.89 Q199.283 1426.61 196.204 1431.22 Q193.149 1435.8 187.338 1435.8 Q181.528 1435.8 178.45 1431.22 Q175.394 1426.61 175.394 1417.89 Q175.394 1409.14 178.45 1404.55 Q181.528 1399.95 187.338 1399.95 Z" fill="#000000" fill-rule="evenodd" fill-opacity="1" /><path clip-path="url(#clip660)" d="M 0 0 M117.825 1169.49 L125.464 1169.49 L125.464 1143.13 L117.154 1144.79 L117.154 1140.54 L125.418 1138.87 L130.093 1138.87 L130.093 1169.49 L137.732 1169.49 L137.732 1173.43 L117.825 1173.43 L117.825 1169.49 Z" fill="#000000" fill-rule="evenodd" fill-opacity="1" /><path clip-path="url(#clip660)" d="M 0 0 M157.177 1141.95 Q153.566 1141.95 151.737 1145.51 Q149.931 1149.05 149.931 1156.18 Q149.931 1163.29 151.737 1166.85 Q153.566 1170.4 157.177 1170.4 Q160.811 1170.4 162.616 1166.85 Q164.445 1163.29 164.445 1156.18 Q164.445 1149.05 162.616 1145.51 Q160.811 1141.95 157.177 1141.95 M157.177 1138.24 Q162.987 1138.24 166.042 1142.85 Q169.121 1147.43 169.121 1156.18 Q169.121 1164.91 166.042 1169.52 Q162.987 1174.1 157.177 1174.1 Q151.366 1174.1 148.288 1169.52 Q145.232 1164.91 145.232 1156.18 Q145.232 1147.43 148.288 1142.85 Q151.366 1138.24 157.177 1138.24 Z" fill="#000000" fill-rule="evenodd" fill-opacity="1" /><path clip-path="url(#clip660)" d="M 0 0 M187.338 1141.95 Q183.727 1141.95 181.899 1145.51 Q180.093 1149.05 180.093 1156.18 Q180.093 1163.29 181.899 1166.85 Q183.727 1170.4 187.338 1170.4 Q190.973 1170.4 192.778 1166.85 Q194.607 1163.29 194.607 1156.18 Q194.607 1149.05 192.778 1145.51 Q190.973 1141.95 187.338 1141.95 M187.338 1138.24 Q193.149 1138.24 196.204 1142.85 Q199.283 1147.43 199.283 1156.18 Q199.283 1164.91 196.204 1169.52 Q193.149 1174.1 187.338 1174.1 Q181.528 1174.1 178.45 1169.52 Q175.394 1164.91 175.394 1156.18 Q175.394 1147.43 178.45 1142.85 Q181.528 1138.24 187.338 1138.24 Z" fill="#000000" fill-rule="evenodd" fill-opacity="1" /><path clip-path="url(#clip660)" d="M 0 0 M121.043 907.79 L137.362 907.79 L137.362 911.725 L115.418 911.725 L115.418 907.79 Q118.08 905.035 122.663 900.406 Q127.269 895.753 128.45 894.41 Q130.695 891.887 131.575 890.151 Q132.478 888.392 132.478 886.702 Q132.478 883.948 130.533 882.211 Q128.612 880.475 125.51 880.475 Q123.311 880.475 120.857 881.239 Q118.427 882.003 115.649 883.554 L115.649 878.832 Q118.473 877.698 120.927 877.119 Q123.38 876.54 125.418 876.54 Q130.788 876.54 133.982 879.225 Q137.177 881.911 137.177 886.401 Q137.177 888.531 136.367 890.452 Q135.579 892.35 133.473 894.943 Q132.894 895.614 129.792 898.832 Q126.691 902.026 121.043 907.79 Z" fill="#000000" fill-rule="evenodd" fill-opacity="1" /><path clip-path="url(#clip660)" d="M 0 0 M157.177 880.244 Q153.566 880.244 151.737 883.809 Q149.931 887.35 149.931 894.48 Q149.931 901.586 151.737 905.151 Q153.566 908.693 157.177 908.693 Q160.811 908.693 162.616 905.151 Q164.445 901.586 164.445 894.48 Q164.445 887.35 162.616 883.809 Q160.811 880.244 157.177 880.244 M157.177 876.54 Q162.987 876.54 166.042 881.147 Q169.121 885.73 169.121 894.48 Q169.121 903.207 166.042 907.813 Q162.987 912.397 157.177 912.397 Q151.366 912.397 148.288 907.813 Q145.232 903.207 145.232 894.48 Q145.232 885.73 148.288 881.147 Q151.366 876.54 157.177 876.54 Z" fill="#000000" fill-rule="evenodd" fill-opacity="1" /><path clip-path="url(#clip660)" d="M 0 0 M187.338 880.244 Q183.727 880.244 181.899 883.809 Q180.093 887.35 180.093 894.48 Q180.093 901.586 181.899 905.151 Q183.727 908.693 187.338 908.693 Q190.973 908.693 192.778 905.151 Q194.607 901.586 194.607 894.48 Q194.607 887.35 192.778 883.809 Q190.973 880.244 187.338 880.244 M187.338 876.54 Q193.149 876.54 196.204 881.147 Q199.283 885.73 199.283 894.48 Q199.283 903.207 196.204 907.813 Q193.149 912.397 187.338 912.397 Q181.528 912.397 178.45 907.813 Q175.394 903.207 175.394 894.48 Q175.394 885.73 178.45 881.147 Q181.528 876.54 187.338 876.54 Z" fill="#000000" fill-rule="evenodd" fill-opacity="1" /><path clip-path="url(#clip660)" d="M 0 0 M131.181 631.387 Q134.538 632.105 136.413 634.373 Q138.311 636.642 138.311 639.975 Q138.311 645.091 134.792 647.892 Q131.274 650.693 124.793 650.693 Q122.617 650.693 120.302 650.253 Q118.01 649.836 115.556 648.98 L115.556 644.466 Q117.501 645.6 119.816 646.179 Q122.13 646.758 124.654 646.758 Q129.052 646.758 131.343 645.022 Q133.658 643.285 133.658 639.975 Q133.658 636.92 131.505 635.207 Q129.376 633.471 125.556 633.471 L121.529 633.471 L121.529 629.628 L125.742 629.628 Q129.191 629.628 131.019 628.262 Q132.848 626.874 132.848 624.281 Q132.848 621.619 130.95 620.207 Q129.075 618.772 125.556 618.772 Q123.635 618.772 121.436 619.188 Q119.237 619.605 116.598 620.485 L116.598 616.318 Q119.26 615.577 121.575 615.207 Q123.913 614.837 125.973 614.837 Q131.297 614.837 134.399 617.267 Q137.501 619.674 137.501 623.795 Q137.501 626.665 135.857 628.656 Q134.214 630.623 131.181 631.387 Z" fill="#000000" fill-rule="evenodd" fill-opacity="1" /><path clip-path="url(#clip660)" d="M 0 0 M157.177 618.54 Q153.566 618.54 151.737 622.105 Q149.931 625.647 149.931 632.776 Q149.931 639.883 151.737 643.447 Q153.566 646.989 157.177 646.989 Q160.811 646.989 162.616 643.447 Q164.445 639.883 164.445 632.776 Q164.445 625.647 162.616 622.105 Q160.811 618.54 157.177 618.54 M157.177 614.837 Q162.987 614.837 166.042 619.443 Q169.121 624.026 169.121 632.776 Q169.121 641.503 166.042 646.11 Q162.987 650.693 157.177 650.693 Q151.366 650.693 148.288 646.11 Q145.232 641.503 145.232 632.776 Q145.232 624.026 148.288 619.443 Q151.366 614.837 157.177 614.837 Z" fill="#000000" fill-rule="evenodd" fill-opacity="1" /><path clip-path="url(#clip660)" d="M 0 0 M187.338 618.54 Q183.727 618.54 181.899 622.105 Q180.093 625.647 180.093 632.776 Q180.093 639.883 181.899 643.447 Q183.727 646.989 187.338 646.989 Q190.973 646.989 192.778 643.447 Q194.607 639.883 194.607 632.776 Q194.607 625.647 192.778 622.105 Q190.973 618.54 187.338 618.54 M187.338 614.837 Q193.149 614.837 196.204 619.443 Q199.283 624.026 199.283 632.776 Q199.283 641.503 196.204 646.11 Q193.149 650.693 187.338 650.693 Q181.528 650.693 178.45 646.11 Q175.394 641.503 175.394 632.776 Q175.394 624.026 178.45 619.443 Q181.528 614.837 187.338 614.837 Z" fill="#000000" fill-rule="evenodd" fill-opacity="1" /><path clip-path="url(#clip660)" d="M 0 0 M129.862 357.832 L118.056 376.281 L129.862 376.281 L129.862 357.832 M128.635 353.758 L134.515 353.758 L134.515 376.281 L139.445 376.281 L139.445 380.17 L134.515 380.17 L134.515 388.318 L129.862 388.318 L129.862 380.17 L114.26 380.17 L114.26 375.656 L128.635 353.758 Z" fill="#000000" fill-rule="evenodd" fill-opacity="1" /><path clip-path="url(#clip660)" d="M 0 0 M157.177 356.837 Q153.566 356.837 151.737 360.401 Q149.931 363.943 149.931 371.073 Q149.931 378.179 151.737 381.744 Q153.566 385.285 157.177 385.285 Q160.811 385.285 162.616 381.744 Q164.445 378.179 164.445 371.073 Q164.445 363.943 162.616 360.401 Q160.811 356.837 157.177 356.837 M157.177 353.133 Q162.987 353.133 166.042 357.739 Q169.121 362.323 169.121 371.073 Q169.121 379.799 166.042 384.406 Q162.987 388.989 157.177 388.989 Q151.366 388.989 148.288 384.406 Q145.232 379.799 145.232 371.073 Q145.232 362.323 148.288 357.739 Q151.366 353.133 157.177 353.133 Z" fill="#000000" fill-rule="evenodd" fill-opacity="1" /><path clip-path="url(#clip660)" d="M 0 0 M187.338 356.837 Q183.727 356.837 181.899 360.401 Q180.093 363.943 180.093 371.073 Q180.093 378.179 181.899 381.744 Q183.727 385.285 187.338 385.285 Q190.973 385.285 192.778 381.744 Q194.607 378.179 194.607 371.073 Q194.607 363.943 192.778 360.401 Q190.973 356.837 187.338 356.837 M187.338 353.133 Q193.149 353.133 196.204 357.739 Q199.283 362.323 199.283 371.073 Q199.283 379.799 196.204 384.406 Q193.149 388.989 187.338 388.989 Q181.528 388.989 178.45 384.406 Q175.394 379.799 175.394 371.073 Q175.394 362.323 178.45 357.739 Q181.528 353.133 187.338 353.133 Z" fill="#000000" fill-rule="evenodd" fill-opacity="1" /><path clip-path="url(#clip660)" d="M 0 0 M21.7677 979.591 L39.6235 979.591 L39.6235 971.506 Q39.6235 967.019 37.3 964.568 Q34.9765 962.117 30.6797 962.117 Q26.4147 962.117 24.0912 964.568 Q21.7677 967.019 21.7677 971.506 L21.7677 979.591 M16.4842 986.02 L16.4842 971.506 Q16.4842 963.517 20.1126 959.443 Q23.7092 955.337 30.6797 955.337 Q37.7138 955.337 41.3104 959.443 Q44.907 963.517 44.907 971.506 L44.907 979.591 L64.0042 979.591 L64.0042 986.02 L16.4842 986.02 Z" fill="#000000" fill-rule="evenodd" fill-opacity="1" /><path clip-path="url(#clip660)" d="M 0 0 M16.4842 946.712 L16.4842 937.132 L48.8219 925.005 L16.4842 912.815 L16.4842 903.234 L64.0042 903.234 L64.0042 909.504 L22.277 909.504 L54.8694 921.758 L54.8694 928.22 L22.277 940.474 L64.0042 940.474 L64.0042 946.712 L16.4842 946.712 Z" fill="#000000" fill-rule="evenodd" fill-opacity="1" /><path clip-path="url(#clip660)" d="M 0 0 M58.5933 884.36 L58.5933 861.921 L64.0042 861.921 L64.0042 892.094 L58.5933 892.094 Q54.8057 888.434 48.44 882.132 Q42.0425 875.798 40.1964 874.175 Q36.7271 871.087 34.34 869.878 Q31.921 868.637 29.5975 868.637 Q25.8099 868.637 23.4228 871.31 Q21.0356 873.952 21.0356 878.217 Q21.0356 881.241 22.086 884.614 Q23.1363 887.956 25.2688 891.776 L18.7758 891.776 Q17.2162 887.893 16.4205 884.519 Q15.6248 881.145 15.6248 878.344 Q15.6248 870.96 19.3169 866.568 Q23.009 862.175 29.1837 862.175 Q32.112 862.175 34.7537 863.289 Q37.3637 864.372 40.9285 867.268 Q41.8515 868.064 46.2757 872.329 Q50.668 876.594 58.5933 884.36 Z" fill="#000000" fill-rule="evenodd" fill-opacity="1" /><path clip-path="url(#clip660)" d="M 0 0 M55.9197 848.425 L55.9197 841.71 L64.0042 841.71 L64.0042 848.425 L55.9197 848.425 Z" fill="#000000" fill-rule="evenodd" fill-opacity="1" /><path clip-path="url(#clip660)" d="M 0 0 M16.4842 827.641 L16.4842 802.401 L21.895 802.401 L21.895 821.753 L33.5443 821.753 Q33.0668 820.353 32.844 818.952 Q32.5894 817.552 32.5894 816.151 Q32.5894 808.194 36.9499 803.547 Q41.3104 798.9 48.7583 798.9 Q56.429 798.9 60.694 803.674 Q64.9272 808.449 64.9272 817.138 Q64.9272 820.13 64.4179 823.249 Q63.9087 826.336 62.8902 829.647 L56.429 829.647 Q57.9886 826.782 58.7524 823.726 Q59.5163 820.671 59.5163 817.265 Q59.5163 811.759 56.6199 808.544 Q53.7235 805.33 48.7583 805.33 Q43.793 805.33 40.8966 808.544 Q38.0002 811.759 38.0002 817.265 Q38.0002 819.843 38.5732 822.421 Q39.1461 824.968 40.3556 827.641 L16.4842 827.641 Z" fill="#000000" fill-rule="evenodd" fill-opacity="1" /><path clip-path="url(#clip660)" d="M 0 0 M55.9197 785.564 L55.9197 778.848 L61.3942 778.848 L71.5793 784.068 L71.5793 788.174 L61.3942 785.564 L55.9197 785.564 Z" fill="#000000" fill-rule="evenodd" fill-opacity="1" /><path clip-path="url(#clip660)" d="M 0 0 M77.5631 746.224 L28.3562 746.224 L28.3562 740.368 L50.5089 740.368 Q55.124 740.368 57.4793 738.171 Q59.8346 735.975 59.8346 731.678 Q59.8346 726.968 57.161 724.612 Q54.4874 722.225 49.1402 722.225 L28.3562 722.225 L28.3562 716.369 L55.7924 716.369 Q57.7021 716.369 58.6251 715.828 Q59.5163 715.255 59.5163 714.077 Q59.5163 713.791 59.3572 713.281 Q59.1662 712.772 58.7843 711.881 L63.4949 711.881 Q64.227 713.186 64.5771 714.364 Q64.9272 715.509 64.9272 716.623 Q64.9272 718.82 63.6859 720.125 Q62.4446 721.43 59.8983 721.907 Q62.4127 723.498 63.6859 725.822 Q64.9272 728.114 64.9272 731.233 Q64.9272 734.479 63.6859 736.771 Q62.4446 739.031 59.9619 740.368 L77.5631 740.368 L77.5631 746.224 Z" fill="#000000" fill-rule="evenodd" fill-opacity="1" /><path clip-path="url(#clip660)" d="M 0 0 M45.7664 680.689 Q39.4007 680.689 35.8996 683.331 Q32.3984 685.941 32.3984 690.683 Q32.3984 695.394 35.8996 698.036 Q39.4007 700.646 45.7664 700.646 Q52.1003 700.646 55.6014 698.036 Q59.1026 695.394 59.1026 690.683 Q59.1026 685.941 55.6014 683.331 Q52.1003 680.689 45.7664 680.689 M59.58 674.833 Q68.683 674.833 73.1071 678.875 Q77.5631 682.917 77.5631 691.256 Q77.5631 694.343 77.0857 697.081 Q76.6401 699.818 75.6852 702.396 L69.9879 702.396 Q71.3884 699.818 72.0568 697.304 Q72.7252 694.789 72.7252 692.179 Q72.7252 686.418 69.7015 683.554 Q66.7096 680.689 60.6303 680.689 L57.7339 680.689 Q60.885 682.503 62.4446 685.336 Q64.0042 688.169 64.0042 692.115 Q64.0042 698.672 59.0071 702.683 Q54.01 706.693 45.7664 706.693 Q37.491 706.693 32.4939 702.683 Q27.4968 698.672 27.4968 692.115 Q27.4968 688.169 29.0564 685.336 Q30.616 682.503 33.7671 680.689 L28.3562 680.689 L28.3562 674.833 L59.58 674.833 Z" fill="#000000" fill-rule="evenodd" fill-opacity="1" /><path clip-path="url(#clip660)" d="M 0 0 M16.4842 652.362 L16.4842 646.951 L70.0516 663.502 L70.0516 668.912 L16.4842 652.362 Z" fill="#000000" fill-rule="evenodd" fill-opacity="1" /><path clip-path="url(#clip660)" d="M 0 0 M35.1993 613.053 Q31.2526 610.857 29.3747 607.802 Q27.4968 604.746 27.4968 600.608 Q27.4968 595.038 31.4117 592.015 Q35.2948 588.991 42.4881 588.991 L64.0042 588.991 L64.0042 594.879 L42.679 594.879 Q37.5546 594.879 35.072 596.694 Q32.5894 598.508 32.5894 602.232 Q32.5894 606.783 35.6131 609.425 Q38.6368 612.067 43.8567 612.067 L64.0042 612.067 L64.0042 617.955 L42.679 617.955 Q37.5228 617.955 35.072 619.769 Q32.5894 621.583 32.5894 625.371 Q32.5894 629.859 35.6449 632.501 Q38.6686 635.142 43.8567 635.142 L64.0042 635.142 L64.0042 641.031 L28.3562 641.031 L28.3562 635.142 L33.8944 635.142 Q30.616 633.137 29.0564 630.336 Q27.4968 627.535 27.4968 623.684 Q27.4968 619.801 29.4702 617.096 Q31.4436 614.358 35.1993 613.053 Z" fill="#000000" fill-rule="evenodd" fill-opacity="1" /><path clip-path="url(#clip660)" d="M 0 0 M28.3562 566.775 Q28.9291 563.846 30.6797 562.255 Q32.3984 560.632 35.0084 560.632 Q38.9551 560.632 41.0876 563.656 Q43.2201 566.679 43.2201 572.313 Q43.2201 574.127 42.9018 576.132 Q42.5517 578.106 41.9152 580.334 L38.0639 580.334 Q38.9233 578.679 39.337 576.801 Q39.7508 574.891 39.7508 572.758 Q39.7508 569.289 38.5095 567.379 Q37.2364 565.47 35.0084 565.47 Q32.6531 565.47 31.4436 567.252 Q30.2341 569.003 30.2341 572.44 L30.2341 575.177 L26.7966 575.177 L26.7966 572.186 Q26.7966 569.194 25.8099 567.666 Q24.7914 566.106 22.8817 566.106 Q21.0356 566.106 20.0808 567.698 Q19.0941 569.289 19.0941 572.313 Q19.0941 573.586 19.3806 575.209 Q19.667 576.833 20.3991 579.411 L16.7388 579.411 Q16.1977 577.087 15.9112 575.05 Q15.6248 573.013 15.6248 571.263 Q15.6248 566.679 17.5027 564.006 Q19.3806 561.3 22.5316 561.3 Q24.7277 561.3 26.2555 562.732 Q27.7833 564.165 28.3562 566.775 Z" fill="#000000" fill-rule="evenodd" fill-opacity="1" /><path clip-path="url(#clip660)" d="M 0 0 M889.577 16.7545 L889.577 25.383 Q885.445 21.5346 880.746 19.6307 Q876.088 17.7268 870.821 17.7268 Q860.451 17.7268 854.942 24.0867 Q849.433 30.4061 849.433 42.3968 Q849.433 54.3469 854.942 60.7069 Q860.451 67.0263 870.821 67.0263 Q876.088 67.0263 880.746 65.1223 Q885.445 63.2184 889.577 59.3701 L889.577 67.9175 Q885.283 70.8341 880.463 72.2924 Q875.682 73.7508 870.335 73.7508 Q856.603 73.7508 848.703 65.3654 Q840.804 56.9395 840.804 42.3968 Q840.804 27.8135 848.703 19.4281 Q856.603 11.0023 870.335 11.0023 Q875.764 11.0023 880.544 12.4606 Q885.364 13.8784 889.577 16.7545 Z" fill="#000000" fill-rule="evenodd" fill-opacity="1" /><path clip-path="url(#clip660)" d="M 0 0 M901.122 54.671 L901.122 27.2059 L908.576 27.2059 L908.576 54.3874 Q908.576 60.8284 911.087 64.0691 Q913.599 67.2693 918.622 67.2693 Q924.658 67.2693 928.142 63.421 Q931.666 59.5726 931.666 52.9291 L931.666 27.2059 L939.12 27.2059 L939.12 72.576 L931.666 72.576 L931.666 65.6084 Q928.952 69.7404 925.347 71.7658 Q921.782 73.7508 917.042 73.7508 Q909.224 73.7508 905.173 68.8897 Q901.122 64.0286 901.122 54.671 M919.878 26.1121 L919.878 26.1121 Z" fill="#000000" fill-rule="evenodd" fill-opacity="1" /><path clip-path="url(#clip660)" d="M 0 0 M980.763 34.1734 Q979.507 33.4443 978.008 33.1202 Q976.55 32.7556 974.768 32.7556 Q968.448 32.7556 965.045 36.8875 Q961.683 40.9789 961.683 48.6757 L961.683 72.576 L954.189 72.576 L954.189 27.2059 L961.683 27.2059 L961.683 34.2544 Q964.033 30.1225 967.8 28.1376 Q971.567 26.1121 976.955 26.1121 Q977.725 26.1121 978.656 26.2337 Q979.588 26.3147 980.722 26.5172 L980.763 34.1734 Z" fill="#000000" fill-rule="evenodd" fill-opacity="1" /><path clip-path="url(#clip660)" d="M 0 0 M983.234 27.2059 L991.133 27.2059 L1005.31 65.2844 L1019.49 27.2059 L1027.39 27.2059 L1010.38 72.576 L1000.25 72.576 L983.234 27.2059 Z" fill="#000000" fill-rule="evenodd" fill-opacity="1" /><path clip-path="url(#clip660)" d="M 0 0 M1076.49 48.0275 L1076.49 51.6733 L1042.22 51.6733 Q1042.7 59.3701 1046.83 63.421 Q1051.01 67.4314 1058.42 67.4314 Q1062.71 67.4314 1066.72 66.3781 Q1070.77 65.3249 1074.74 63.2184 L1074.74 70.267 Q1070.73 71.9684 1066.52 72.8596 Q1062.31 73.7508 1057.97 73.7508 Q1047.12 73.7508 1040.76 67.4314 Q1034.44 61.1119 1034.44 50.3365 Q1034.44 39.1965 1040.43 32.6746 Q1046.47 26.1121 1056.68 26.1121 Q1065.83 26.1121 1071.14 32.0264 Q1076.49 37.9003 1076.49 48.0275 M1069.03 45.84 Q1068.95 39.7232 1065.59 36.0774 Q1062.27 32.4315 1056.76 32.4315 Q1050.52 32.4315 1046.75 35.9558 Q1043.03 39.4801 1042.46 45.8805 L1069.03 45.84 Z" fill="#000000" fill-rule="evenodd" fill-opacity="1" /><path clip-path="url(#clip660)" d="M 0 0 M1115.42 12.096 L1150.17 12.096 L1150.17 18.9825 L1123.6 18.9825 L1123.6 36.8065 L1147.58 36.8065 L1147.58 43.6931 L1123.6 43.6931 L1123.6 72.576 L1115.42 72.576 L1115.42 12.096 Z" fill="#000000" fill-rule="evenodd" fill-opacity="1" /><path clip-path="url(#clip660)" d="M 0 0 M1156.77 27.2059 L1164.23 27.2059 L1164.23 72.576 L1156.77 72.576 L1156.77 27.2059 M1156.77 9.54393 L1164.23 9.54393 L1164.23 18.9825 L1156.77 18.9825 L1156.77 9.54393 Z" fill="#000000" fill-rule="evenodd" fill-opacity="1" /><path clip-path="url(#clip660)" d="M 0 0 M1187.2 14.324 L1187.2 27.2059 L1202.55 27.2059 L1202.55 32.9987 L1187.2 32.9987 L1187.2 57.6282 Q1187.2 63.1779 1188.7 64.7578 Q1190.24 66.3376 1194.89 66.3376 L1202.55 66.3376 L1202.55 72.576 L1194.89 72.576 Q1186.27 72.576 1182.98 69.3758 Q1179.7 66.1351 1179.7 57.6282 L1179.7 32.9987 L1174.23 32.9987 L1174.23 27.2059 L1179.7 27.2059 L1179.7 14.324 L1187.2 14.324 Z" fill="#000000" fill-rule="evenodd" fill-opacity="1" /><path clip-path="url(#clip660)" d="M 0 0 M1219.73 14.324 L1219.73 27.2059 L1235.08 27.2059 L1235.08 32.9987 L1219.73 32.9987 L1219.73 57.6282 Q1219.73 63.1779 1221.22 64.7578 Q1222.76 66.3376 1227.42 66.3376 L1235.08 66.3376 L1235.08 72.576 L1227.42 72.576 Q1218.79 72.576 1215.51 69.3758 Q1212.23 66.1351 1212.23 57.6282 L1212.23 32.9987 L1206.76 32.9987 L1206.76 27.2059 L1212.23 27.2059 L1212.23 14.324 L1219.73 14.324 Z" fill="#000000" fill-rule="evenodd" fill-opacity="1" /><path clip-path="url(#clip660)" d="M 0 0 M1244.88 27.2059 L1252.34 27.2059 L1252.34 72.576 L1244.88 72.576 L1244.88 27.2059 M1244.88 9.54393 L1252.34 9.54393 L1252.34 18.9825 L1244.88 18.9825 L1244.88 9.54393 Z" fill="#000000" fill-rule="evenodd" fill-opacity="1" /><path clip-path="url(#clip660)" d="M 0 0 M1305.65 45.1919 L1305.65 72.576 L1298.19 72.576 L1298.19 45.4349 Q1298.19 38.994 1295.68 35.7938 Q1293.17 32.5936 1288.15 32.5936 Q1282.11 32.5936 1278.63 36.4419 Q1275.14 40.2903 1275.14 46.9338 L1275.14 72.576 L1267.65 72.576 L1267.65 27.2059 L1275.14 27.2059 L1275.14 34.2544 Q1277.82 30.163 1281.42 28.1376 Q1285.07 26.1121 1289.81 26.1121 Q1297.62 26.1121 1301.64 30.9732 Q1305.65 35.7938 1305.65 45.1919 Z" fill="#000000" fill-rule="evenodd" fill-opacity="1" /><path clip-path="url(#clip660)" d="M 0 0 M1350.37 49.3643 Q1350.37 41.2625 1347.01 36.8065 Q1343.68 32.3505 1337.65 32.3505 Q1331.65 32.3505 1328.29 36.8065 Q1324.97 41.2625 1324.97 49.3643 Q1324.97 57.4256 1328.29 61.8816 Q1331.65 66.3376 1337.65 66.3376 Q1343.68 66.3376 1347.01 61.8816 Q1350.37 57.4256 1350.37 49.3643 M1357.82 66.9452 Q1357.82 78.5308 1352.68 84.1616 Q1347.53 89.8329 1336.92 89.8329 Q1332.99 89.8329 1329.51 89.2252 Q1326.02 88.6581 1322.74 87.4428 L1322.74 80.1917 Q1326.02 81.9741 1329.22 82.8248 Q1332.42 83.6755 1335.74 83.6755 Q1343.08 83.6755 1346.72 79.8271 Q1350.37 76.0193 1350.37 68.282 L1350.37 64.5957 Q1348.06 68.6061 1344.45 70.5911 Q1340.85 72.576 1335.82 72.576 Q1327.48 72.576 1322.38 66.2161 Q1317.27 59.8562 1317.27 49.3643 Q1317.27 38.832 1322.38 32.472 Q1327.48 26.1121 1335.82 26.1121 Q1340.85 26.1121 1344.45 28.0971 Q1348.06 30.082 1350.37 34.0924 L1350.37 27.2059 L1357.82 27.2059 L1357.82 66.9452 Z" fill="#000000" fill-rule="evenodd" fill-opacity="1" /><path clip-path="url(#clip660)" d="M 0 0 M1399.87 12.096 L1438.11 12.096 L1438.11 18.9825 L1408.05 18.9825 L1408.05 36.8875 L1436.85 36.8875 L1436.85 43.7741 L1408.05 43.7741 L1408.05 65.6895 L1438.84 65.6895 L1438.84 72.576 L1399.87 72.576 L1399.87 12.096 Z" fill="#000000" fill-rule="evenodd" fill-opacity="1" /><path clip-path="url(#clip660)" d="M 0 0 M1489.68 27.2059 L1473.27 49.2833 L1490.53 72.576 L1481.74 72.576 L1468.53 54.752 L1455.33 72.576 L1446.54 72.576 L1464.16 48.8377 L1448.03 27.2059 L1456.83 27.2059 L1468.86 43.369 L1480.89 27.2059 L1489.68 27.2059 Z" fill="#000000" fill-rule="evenodd" fill-opacity="1" /><path clip-path="url(#clip660)" d="M 0 0 M1521.68 49.7694 Q1512.65 49.7694 1509.16 51.8354 Q1505.68 53.9013 1505.68 58.8839 Q1505.68 62.8538 1508.27 65.2034 Q1510.9 67.5124 1515.4 67.5124 Q1521.6 67.5124 1525.33 63.1374 Q1529.09 58.7219 1529.09 51.4303 L1529.09 49.7694 L1521.68 49.7694 M1536.55 46.6907 L1536.55 72.576 L1529.09 72.576 L1529.09 65.6895 Q1526.54 69.8214 1522.73 71.8063 Q1518.93 73.7508 1513.42 73.7508 Q1506.45 73.7508 1502.32 69.8619 Q1498.23 65.9325 1498.23 59.3701 Q1498.23 51.7138 1503.33 47.825 Q1508.47 43.9361 1518.64 43.9361 L1529.09 43.9361 L1529.09 43.2069 Q1529.09 38.0623 1525.69 35.2672 Q1522.33 32.4315 1516.21 32.4315 Q1512.32 32.4315 1508.64 33.3632 Q1504.95 34.295 1501.55 36.1584 L1501.55 29.2718 Q1505.64 27.692 1509.49 26.9223 Q1513.34 26.1121 1516.98 26.1121 Q1526.82 26.1121 1531.69 31.2163 Q1536.55 36.3204 1536.55 46.6907 Z" fill="#000000" fill-rule="evenodd" fill-opacity="1" /><path clip-path="url(#clip660)" d="M 0 0 M1587.22 35.9153 Q1590.02 30.8922 1593.91 28.5022 Q1597.8 26.1121 1603.06 26.1121 Q1610.15 26.1121 1614 31.0947 Q1617.85 36.0368 1617.85 45.1919 L1617.85 72.576 L1610.35 72.576 L1610.35 45.4349 Q1610.35 38.913 1608.05 35.7533 Q1605.74 32.5936 1601 32.5936 Q1595.2 32.5936 1591.84 36.4419 Q1588.48 40.2903 1588.48 46.9338 L1588.48 72.576 L1580.99 72.576 L1580.99 45.4349 Q1580.99 38.8725 1578.68 35.7533 Q1576.37 32.5936 1571.55 32.5936 Q1565.84 32.5936 1562.47 36.4824 Q1559.11 40.3308 1559.11 46.9338 L1559.11 72.576 L1551.62 72.576 L1551.62 27.2059 L1559.11 27.2059 L1559.11 34.2544 Q1561.66 30.082 1565.23 28.0971 Q1568.79 26.1121 1573.69 26.1121 Q1578.64 26.1121 1582.08 28.6237 Q1585.56 31.1352 1587.22 35.9153 Z" fill="#000000" fill-rule="evenodd" fill-opacity="1" /><path clip-path="url(#clip660)" d="M 0 0 M1639.93 65.7705 L1639.93 89.8329 L1632.43 89.8329 L1632.43 27.2059 L1639.93 27.2059 L1639.93 34.0924 Q1642.28 30.0415 1645.84 28.0971 Q1649.45 26.1121 1654.43 26.1121 Q1662.69 26.1121 1667.84 32.6746 Q1673.02 39.2371 1673.02 49.9314 Q1673.02 60.6258 1667.84 67.1883 Q1662.69 73.7508 1654.43 73.7508 Q1649.45 73.7508 1645.84 71.8063 Q1642.28 69.8214 1639.93 65.7705 M1665.28 49.9314 Q1665.28 41.7081 1661.88 37.0496 Q1658.52 32.3505 1652.61 32.3505 Q1646.69 32.3505 1643.29 37.0496 Q1639.93 41.7081 1639.93 49.9314 Q1639.93 58.1548 1643.29 62.8538 Q1646.69 67.5124 1652.61 67.5124 Q1658.52 67.5124 1661.88 62.8538 Q1665.28 58.1548 1665.28 49.9314 Z" fill="#000000" fill-rule="evenodd" fill-opacity="1" /><path clip-path="url(#clip660)" d="M 0 0 M1685.38 9.54393 L1692.83 9.54393 L1692.83 72.576 L1685.38 72.576 L1685.38 9.54393 Z" fill="#000000" fill-rule="evenodd" fill-opacity="1" /><path clip-path="url(#clip660)" d="M 0 0 M1747.23 48.0275 L1747.23 51.6733 L1712.96 51.6733 Q1713.45 59.3701 1717.58 63.421 Q1721.75 67.4314 1729.17 67.4314 Q1733.46 67.4314 1737.47 66.3781 Q1741.52 65.3249 1745.49 63.2184 L1745.49 70.267 Q1741.48 71.9684 1737.27 72.8596 Q1733.06 73.7508 1728.72 73.7508 Q1717.87 73.7508 1711.51 67.4314 Q1705.19 61.1119 1705.19 50.3365 Q1705.19 39.1965 1711.18 32.6746 Q1717.22 26.1121 1727.43 26.1121 Q1736.58 26.1121 1741.89 32.0264 Q1747.23 37.9003 1747.23 48.0275 M1739.78 45.84 Q1739.7 39.7232 1736.34 36.0774 Q1733.02 32.4315 1727.51 32.4315 Q1721.27 32.4315 1717.5 35.9558 Q1713.77 39.4801 1713.21 45.8805 L1739.78 45.84 Z" fill="#000000" fill-rule="evenodd" fill-opacity="1" /><polyline clip-path="url(#clip662)" style="stroke:#009af9; stroke-width:4; stroke-opacity:1; fill:none" points="
  295.211,1382.76 323.347,1381.43 351.482,1383.95 379.618,1386.4 407.753,1384.11 435.889,1378.34 464.024,1360.07 492.159,1336.07 520.295,1323.02 548.43,1315.71 
  576.566,1314.4 604.701,1317.52 632.837,1328 660.972,1334.57 689.107,1338.25 717.243,1219.55 745.378,942.758 773.514,581.904 801.649,294.402 829.785,165.562 
  857.92,198.839 886.056,312.145 914.191,513.153 942.326,720.554 970.462,887.728 998.597,1021.11 1026.73,1117.27 1054.87,1187.7 1083,1235.05 1111.14,1271.76 
  1139.27,1299.46 1167.41,1322.83 1195.55,1341.84 1223.68,1355.88 1251.82,1363.92 1279.95,1373.35 1308.09,1371.56 1336.22,1354.48 1364.36,1333.69 1392.49,1314.84 
  1420.63,1294.49 1448.76,1285.31 1476.9,1282.61 1505.04,1280.62 1533.17,1285.57 1561.31,1286.3 1589.44,1282.18 1617.58,1287.89 1645.71,1295.02 1673.85,1299.12 
  1701.98,1299.23 1730.12,1298.15 1758.25,1288.59 1786.39,1284.45 1814.52,1283.73 1842.66,1282.61 1870.8,1283.54 1898.93,1281.3 1927.07,1277.9 1955.2,1267.8 
  1983.34,1266.18 2011.47,1271.4 2039.61,1284.01 2067.74,1296.25 2095.88,1308.2 2124.01,1317.03 2152.15,1333.47 2180.29,1342.11 2208.42,1352 2236.56,1358.13 
  2264.69,1361.49 2292.83,1363.38 
  "/>
<circle clip-path="url(#clip662)" cx="295.211" cy="1375.48" r="14" fill="#e26f46" fill-rule="evenodd" fill-opacity="1" stroke="#000000" stroke-opacity="1" stroke-width="3.2"/>
<circle clip-path="url(#clip662)" cx="323.347" cy="1367.95" r="14" fill="#e26f46" fill-rule="evenodd" fill-opacity="1" stroke="#000000" stroke-opacity="1" stroke-width="3.2"/>
<circle clip-path="url(#clip662)" cx="351.482" cy="1377.59" r="14" fill="#e26f46" fill-rule="evenodd" fill-opacity="1" stroke="#000000" stroke-opacity="1" stroke-width="3.2"/>
<circle clip-path="url(#clip662)" cx="379.618" cy="1376.46" r="14" fill="#e26f46" fill-rule="evenodd" fill-opacity="1" stroke="#000000" stroke-opacity="1" stroke-width="3.2"/>
<circle clip-path="url(#clip662)" cx="407.753" cy="1377.42" r="14" fill="#e26f46" fill-rule="evenodd" fill-opacity="1" stroke="#000000" stroke-opacity="1" stroke-width="3.2"/>
<circle clip-path="url(#clip662)" cx="435.889" cy="1362.47" r="14" fill="#e26f46" fill-rule="evenodd" fill-opacity="1" stroke="#000000" stroke-opacity="1" stroke-width="3.2"/>
<circle clip-path="url(#clip662)" cx="464.024" cy="1336.11" r="14" fill="#e26f46" fill-rule="evenodd" fill-opacity="1" stroke="#000000" stroke-opacity="1" stroke-width="3.2"/>
<circle clip-path="url(#clip662)" cx="492.159" cy="1338.43" r="14" fill="#e26f46" fill-rule="evenodd" fill-opacity="1" stroke="#000000" stroke-opacity="1" stroke-width="3.2"/>
<circle clip-path="url(#clip662)" cx="520.295" cy="1311.47" r="14" fill="#e26f46" fill-rule="evenodd" fill-opacity="1" stroke="#000000" stroke-opacity="1" stroke-width="3.2"/>
<circle clip-path="url(#clip662)" cx="548.43" cy="1296.6" r="14" fill="#e26f46" fill-rule="evenodd" fill-opacity="1" stroke="#000000" stroke-opacity="1" stroke-width="3.2"/>
<circle clip-path="url(#clip662)" cx="576.566" cy="1312.05" r="14" fill="#e26f46" fill-rule="evenodd" fill-opacity="1" stroke="#000000" stroke-opacity="1" stroke-width="3.2"/>
<circle clip-path="url(#clip662)" cx="604.701" cy="1296.42" r="14" fill="#e26f46" fill-rule="evenodd" fill-opacity="1" stroke="#000000" stroke-opacity="1" stroke-width="3.2"/>
<circle clip-path="url(#clip662)" cx="632.837" cy="1310.49" r="14" fill="#e26f46" fill-rule="evenodd" fill-opacity="1" stroke="#000000" stroke-opacity="1" stroke-width="3.2"/>
<circle clip-path="url(#clip662)" cx="660.972" cy="1305.33" r="14" fill="#e26f46" fill-rule="evenodd" fill-opacity="1" stroke="#000000" stroke-opacity="1" stroke-width="3.2"/>
<circle clip-path="url(#clip662)" cx="689.107" cy="1267.22" r="14" fill="#e26f46" fill-rule="evenodd" fill-opacity="1" stroke="#000000" stroke-opacity="1" stroke-width="3.2"/>
<circle clip-path="url(#clip662)" cx="717.243" cy="979.465" r="14" fill="#e26f46" fill-rule="evenodd" fill-opacity="1" stroke="#000000" stroke-opacity="1" stroke-width="3.2"/>
<circle clip-path="url(#clip662)" cx="745.378" cy="706.394" r="14" fill="#e26f46" fill-rule="evenodd" fill-opacity="1" stroke="#000000" stroke-opacity="1" stroke-width="3.2"/>
<circle clip-path="url(#clip662)" cx="773.514" cy="445.723" r="14" fill="#e26f46" fill-rule="evenodd" fill-opacity="1" stroke="#000000" stroke-opacity="1" stroke-width="3.2"/>
<circle clip-path="url(#clip662)" cx="801.649" cy="160.256" r="14" fill="#e26f46" fill-rule="evenodd" fill-opacity="1" stroke="#000000" stroke-opacity="1" stroke-width="3.2"/>
<circle clip-path="url(#clip662)" cx="829.785" cy="188.179" r="14" fill="#e26f46" fill-rule="evenodd" fill-opacity="1" stroke="#000000" stroke-opacity="1" stroke-width="3.2"/>
<circle clip-path="url(#clip662)" cx="857.92" cy="271.301" r="14" fill="#e26f46" fill-rule="evenodd" fill-opacity="1" stroke="#000000" stroke-opacity="1" stroke-width="3.2"/>
<circle clip-path="url(#clip662)" cx="886.056" cy="332.449" r="14" fill="#e26f46" fill-rule="evenodd" fill-opacity="1" stroke="#000000" stroke-opacity="1" stroke-width="3.2"/>
<circle clip-path="url(#clip662)" cx="914.191" cy="433.177" r="14" fill="#e26f46" fill-rule="evenodd" fill-opacity="1" stroke="#000000" stroke-opacity="1" stroke-width="3.2"/>
<circle clip-path="url(#clip662)" cx="942.326" cy="744.993" r="14" fill="#e26f46" fill-rule="evenodd" fill-opacity="1" stroke="#000000" stroke-opacity="1" stroke-width="3.2"/>
<circle clip-path="url(#clip662)" cx="970.462" cy="810.758" r="14" fill="#e26f46" fill-rule="evenodd" fill-opacity="1" stroke="#000000" stroke-opacity="1" stroke-width="3.2"/>
<circle clip-path="url(#clip662)" cx="998.597" cy="1018.44" r="14" fill="#e26f46" fill-rule="evenodd" fill-opacity="1" stroke="#000000" stroke-opacity="1" stroke-width="3.2"/>
<circle clip-path="url(#clip662)" cx="1026.73" cy="1024.11" r="14" fill="#e26f46" fill-rule="evenodd" fill-opacity="1" stroke="#000000" stroke-opacity="1" stroke-width="3.2"/>
<circle clip-path="url(#clip662)" cx="1054.87" cy="1148.81" r="14" fill="#e26f46" fill-rule="evenodd" fill-opacity="1" stroke="#000000" stroke-opacity="1" stroke-width="3.2"/>
<circle clip-path="url(#clip662)" cx="1083" cy="1170.62" r="14" fill="#e26f46" fill-rule="evenodd" fill-opacity="1" stroke="#000000" stroke-opacity="1" stroke-width="3.2"/>
<circle clip-path="url(#clip662)" cx="1111.14" cy="1214.98" r="14" fill="#e26f46" fill-rule="evenodd" fill-opacity="1" stroke="#000000" stroke-opacity="1" stroke-width="3.2"/>
<circle clip-path="url(#clip662)" cx="1139.27" cy="1289.58" r="14" fill="#e26f46" fill-rule="evenodd" fill-opacity="1" stroke="#000000" stroke-opacity="1" stroke-width="3.2"/>
<circle clip-path="url(#clip662)" cx="1167.41" cy="1281.13" r="14" fill="#e26f46" fill-rule="evenodd" fill-opacity="1" stroke="#000000" stroke-opacity="1" stroke-width="3.2"/>
<circle clip-path="url(#clip662)" cx="1195.55" cy="1302.04" r="14" fill="#e26f46" fill-rule="evenodd" fill-opacity="1" stroke="#000000" stroke-opacity="1" stroke-width="3.2"/>
<circle clip-path="url(#clip662)" cx="1223.68" cy="1339.06" r="14" fill="#e26f46" fill-rule="evenodd" fill-opacity="1" stroke="#000000" stroke-opacity="1" stroke-width="3.2"/>
<circle clip-path="url(#clip662)" cx="1251.82" cy="1343.28" r="14" fill="#e26f46" fill-rule="evenodd" fill-opacity="1" stroke="#000000" stroke-opacity="1" stroke-width="3.2"/>
<circle clip-path="url(#clip662)" cx="1279.95" cy="1365.09" r="14" fill="#e26f46" fill-rule="evenodd" fill-opacity="1" stroke="#000000" stroke-opacity="1" stroke-width="3.2"/>
<circle clip-path="url(#clip662)" cx="1308.09" cy="1342.48" r="14" fill="#e26f46" fill-rule="evenodd" fill-opacity="1" stroke="#000000" stroke-opacity="1" stroke-width="3.2"/>
<circle clip-path="url(#clip662)" cx="1336.22" cy="1333.25" r="14" fill="#e26f46" fill-rule="evenodd" fill-opacity="1" stroke="#000000" stroke-opacity="1" stroke-width="3.2"/>
<circle clip-path="url(#clip662)" cx="1364.36" cy="1315.95" r="14" fill="#e26f46" fill-rule="evenodd" fill-opacity="1" stroke="#000000" stroke-opacity="1" stroke-width="3.2"/>
<circle clip-path="url(#clip662)" cx="1392.49" cy="1275.98" r="14" fill="#e26f46" fill-rule="evenodd" fill-opacity="1" stroke="#000000" stroke-opacity="1" stroke-width="3.2"/>
<circle clip-path="url(#clip662)" cx="1420.63" cy="1283.11" r="14" fill="#e26f46" fill-rule="evenodd" fill-opacity="1" stroke="#000000" stroke-opacity="1" stroke-width="3.2"/>
<circle clip-path="url(#clip662)" cx="1448.76" cy="1248.33" r="14" fill="#e26f46" fill-rule="evenodd" fill-opacity="1" stroke="#000000" stroke-opacity="1" stroke-width="3.2"/>
<circle clip-path="url(#clip662)" cx="1476.9" cy="1257.55" r="14" fill="#e26f46" fill-rule="evenodd" fill-opacity="1" stroke="#000000" stroke-opacity="1" stroke-width="3.2"/>
<circle clip-path="url(#clip662)" cx="1505.04" cy="1261.99" r="14" fill="#e26f46" fill-rule="evenodd" fill-opacity="1" stroke="#000000" stroke-opacity="1" stroke-width="3.2"/>
<circle clip-path="url(#clip662)" cx="1533.17" cy="1253.54" r="14" fill="#e26f46" fill-rule="evenodd" fill-opacity="1" stroke="#000000" stroke-opacity="1" stroke-width="3.2"/>
<circle clip-path="url(#clip662)" cx="1561.31" cy="1246.61" r="14" fill="#e26f46" fill-rule="evenodd" fill-opacity="1" stroke="#000000" stroke-opacity="1" stroke-width="3.2"/>
<circle clip-path="url(#clip662)" cx="1589.44" cy="1274.76" r="14" fill="#e26f46" fill-rule="evenodd" fill-opacity="1" stroke="#000000" stroke-opacity="1" stroke-width="3.2"/>
<circle clip-path="url(#clip662)" cx="1617.58" cy="1288.21" r="14" fill="#e26f46" fill-rule="evenodd" fill-opacity="1" stroke="#000000" stroke-opacity="1" stroke-width="3.2"/>
<circle clip-path="url(#clip662)" cx="1645.71" cy="1264.89" r="14" fill="#e26f46" fill-rule="evenodd" fill-opacity="1" stroke="#000000" stroke-opacity="1" stroke-width="3.2"/>
<circle clip-path="url(#clip662)" cx="1673.85" cy="1282.44" r="14" fill="#e26f46" fill-rule="evenodd" fill-opacity="1" stroke="#000000" stroke-opacity="1" stroke-width="3.2"/>
<circle clip-path="url(#clip662)" cx="1701.98" cy="1269.44" r="14" fill="#e26f46" fill-rule="evenodd" fill-opacity="1" stroke="#000000" stroke-opacity="1" stroke-width="3.2"/>
<circle clip-path="url(#clip662)" cx="1730.12" cy="1292.51" r="14" fill="#e26f46" fill-rule="evenodd" fill-opacity="1" stroke="#000000" stroke-opacity="1" stroke-width="3.2"/>
<circle clip-path="url(#clip662)" cx="1758.25" cy="1267.13" r="14" fill="#e26f46" fill-rule="evenodd" fill-opacity="1" stroke="#000000" stroke-opacity="1" stroke-width="3.2"/>
<circle clip-path="url(#clip662)" cx="1786.39" cy="1256.6" r="14" fill="#e26f46" fill-rule="evenodd" fill-opacity="1" stroke="#000000" stroke-opacity="1" stroke-width="3.2"/>
<circle clip-path="url(#clip662)" cx="1814.52" cy="1275.47" r="14" fill="#e26f46" fill-rule="evenodd" fill-opacity="1" stroke="#000000" stroke-opacity="1" stroke-width="3.2"/>
<circle clip-path="url(#clip662)" cx="1842.66" cy="1234.39" r="14" fill="#e26f46" fill-rule="evenodd" fill-opacity="1" stroke="#000000" stroke-opacity="1" stroke-width="3.2"/>
<circle clip-path="url(#clip662)" cx="1870.8" cy="1245.38" r="14" fill="#e26f46" fill-rule="evenodd" fill-opacity="1" stroke="#000000" stroke-opacity="1" stroke-width="3.2"/>
<circle clip-path="url(#clip662)" cx="1898.93" cy="1270.29" r="14" fill="#e26f46" fill-rule="evenodd" fill-opacity="1" stroke="#000000" stroke-opacity="1" stroke-width="3.2"/>
<circle clip-path="url(#clip662)" cx="1927.07" cy="1246.98" r="14" fill="#e26f46" fill-rule="evenodd" fill-opacity="1" stroke="#000000" stroke-opacity="1" stroke-width="3.2"/>
<circle clip-path="url(#clip662)" cx="1955.2" cy="1239.63" r="14" fill="#e26f46" fill-rule="evenodd" fill-opacity="1" stroke="#000000" stroke-opacity="1" stroke-width="3.2"/>
<circle clip-path="url(#clip662)" cx="1983.34" cy="1264.81" r="14" fill="#e26f46" fill-rule="evenodd" fill-opacity="1" stroke="#000000" stroke-opacity="1" stroke-width="3.2"/>
<circle clip-path="url(#clip662)" cx="2011.47" cy="1270.78" r="14" fill="#e26f46" fill-rule="evenodd" fill-opacity="1" stroke="#000000" stroke-opacity="1" stroke-width="3.2"/>
<circle clip-path="url(#clip662)" cx="2039.61" cy="1270.05" r="14" fill="#e26f46" fill-rule="evenodd" fill-opacity="1" stroke="#000000" stroke-opacity="1" stroke-width="3.2"/>
<circle clip-path="url(#clip662)" cx="2067.74" cy="1270.51" r="14" fill="#e26f46" fill-rule="evenodd" fill-opacity="1" stroke="#000000" stroke-opacity="1" stroke-width="3.2"/>
<circle clip-path="url(#clip662)" cx="2095.88" cy="1308.64" r="14" fill="#e26f46" fill-rule="evenodd" fill-opacity="1" stroke="#000000" stroke-opacity="1" stroke-width="3.2"/>
<circle clip-path="url(#clip662)" cx="2124.01" cy="1315.84" r="14" fill="#e26f46" fill-rule="evenodd" fill-opacity="1" stroke="#000000" stroke-opacity="1" stroke-width="3.2"/>
<circle clip-path="url(#clip662)" cx="2152.15" cy="1285.8" r="14" fill="#e26f46" fill-rule="evenodd" fill-opacity="1" stroke="#000000" stroke-opacity="1" stroke-width="3.2"/>
<circle clip-path="url(#clip662)" cx="2180.29" cy="1335.59" r="14" fill="#e26f46" fill-rule="evenodd" fill-opacity="1" stroke="#000000" stroke-opacity="1" stroke-width="3.2"/>
<circle clip-path="url(#clip662)" cx="2208.42" cy="1340.52" r="14" fill="#e26f46" fill-rule="evenodd" fill-opacity="1" stroke="#000000" stroke-opacity="1" stroke-width="3.2"/>
<circle clip-path="url(#clip662)" cx="2236.56" cy="1348.79" r="14" fill="#e26f46" fill-rule="evenodd" fill-opacity="1" stroke="#000000" stroke-opacity="1" stroke-width="3.2"/>
<circle clip-path="url(#clip662)" cx="2264.69" cy="1353.42" r="14" fill="#e26f46" fill-rule="evenodd" fill-opacity="1" stroke="#000000" stroke-opacity="1" stroke-width="3.2"/>
<circle clip-path="url(#clip662)" cx="2292.83" cy="1343.02" r="14" fill="#e26f46" fill-rule="evenodd" fill-opacity="1" stroke="#000000" stroke-opacity="1" stroke-width="3.2"/>
<path clip-path="url(#clip660)" d="
M1765.72 833.806 L2282.17 833.806 L2282.17 652.366 L1765.72 652.366  Z
  " fill="#ffffff" fill-rule="evenodd" fill-opacity="1"/>
<polyline clip-path="url(#clip660)" style="stroke:#000000; stroke-width:4; stroke-opacity:1; fill:none" points="
  1765.72,833.806 2282.17,833.806 2282.17,652.366 1765.72,652.366 1765.72,833.806 
  "/>
<polyline clip-path="url(#clip660)" style="stroke:#009af9; stroke-width:4; stroke-opacity:1; fill:none" points="
  1789.25,712.846 1930.41,712.846 
  "/>
<path clip-path="url(#clip660)" d="M 0 0 M1953.94 695.566 L1973.8 695.566 L1973.8 699.501 L1958.62 699.501 L1958.62 709.686 L1972.32 709.686 L1972.32 713.621 L1958.62 713.621 L1958.62 730.126 L1953.94 730.126 L1953.94 695.566 Z" fill="#000000" fill-rule="evenodd" fill-opacity="1" /><path clip-path="url(#clip660)" d="M 0 0 M1977.57 704.2 L1981.83 704.2 L1981.83 730.126 L1977.57 730.126 L1977.57 704.2 M1977.57 694.108 L1981.83 694.108 L1981.83 699.501 L1977.57 699.501 L1977.57 694.108 Z" fill="#000000" fill-rule="evenodd" fill-opacity="1" /><path clip-path="url(#clip660)" d="M 0 0 M1994.96 696.839 L1994.96 704.2 L2003.73 704.2 L2003.73 707.51 L1994.96 707.51 L1994.96 721.584 Q1994.96 724.756 1995.81 725.658 Q1996.69 726.561 1999.36 726.561 L2003.73 726.561 L2003.73 730.126 L1999.36 730.126 Q1994.43 730.126 1992.55 728.297 Q1990.68 726.445 1990.68 721.584 L1990.68 707.51 L1987.55 707.51 L1987.55 704.2 L1990.68 704.2 L1990.68 696.839 L1994.96 696.839 Z" fill="#000000" fill-rule="evenodd" fill-opacity="1" /><path clip-path="url(#clip660)" d="M 0 0 M2013.55 696.839 L2013.55 704.2 L2022.32 704.2 L2022.32 707.51 L2013.55 707.51 L2013.55 721.584 Q2013.55 724.756 2014.4 725.658 Q2015.28 726.561 2017.94 726.561 L2022.32 726.561 L2022.32 730.126 L2017.94 730.126 Q2013.01 730.126 2011.14 728.297 Q2009.26 726.445 2009.26 721.584 L2009.26 707.51 L2006.14 707.51 L2006.14 704.2 L2009.26 704.2 L2009.26 696.839 L2013.55 696.839 Z" fill="#000000" fill-rule="evenodd" fill-opacity="1" /><path clip-path="url(#clip660)" d="M 0 0 M2050.1 716.098 L2050.1 718.182 L2030.51 718.182 Q2030.79 722.58 2033.15 724.895 Q2035.54 727.186 2039.77 727.186 Q2042.23 727.186 2044.52 726.584 Q2046.83 725.982 2049.1 724.779 L2049.1 728.807 Q2046.81 729.779 2044.4 730.288 Q2041.99 730.797 2039.52 730.797 Q2033.31 730.797 2029.68 727.186 Q2026.07 723.575 2026.07 717.418 Q2026.07 711.052 2029.49 707.325 Q2032.94 703.575 2038.78 703.575 Q2044.01 703.575 2047.04 706.955 Q2050.1 710.311 2050.1 716.098 M2045.84 714.848 Q2045.79 711.353 2043.87 709.27 Q2041.97 707.186 2038.82 707.186 Q2035.26 707.186 2033.11 709.2 Q2030.98 711.214 2030.65 714.871 L2045.84 714.848 Z" fill="#000000" fill-rule="evenodd" fill-opacity="1" /><path clip-path="url(#clip660)" d="M 0 0 M2074.15 708.135 L2074.15 694.108 L2078.41 694.108 L2078.41 730.126 L2074.15 730.126 L2074.15 726.237 Q2072.8 728.552 2070.74 729.686 Q2068.71 730.797 2065.84 730.797 Q2061.14 730.797 2058.18 727.047 Q2055.24 723.297 2055.24 717.186 Q2055.24 711.075 2058.18 707.325 Q2061.14 703.575 2065.84 703.575 Q2068.71 703.575 2070.74 704.709 Q2072.8 705.821 2074.15 708.135 M2059.63 717.186 Q2059.63 721.885 2061.55 724.57 Q2063.5 727.232 2066.88 727.232 Q2070.26 727.232 2072.2 724.57 Q2074.15 721.885 2074.15 717.186 Q2074.15 712.487 2072.2 709.825 Q2070.26 707.14 2066.88 707.14 Q2063.5 707.14 2061.55 709.825 Q2059.63 712.487 2059.63 717.186 Z" fill="#000000" fill-rule="evenodd" fill-opacity="1" /><path clip-path="url(#clip660)" d="M 0 0 M2128.31 698.228 L2128.31 703.159 Q2125.95 700.959 2123.27 699.872 Q2120.61 698.784 2117.6 698.784 Q2111.67 698.784 2108.52 702.418 Q2105.37 706.029 2105.37 712.881 Q2105.37 719.709 2108.52 723.344 Q2111.67 726.955 2117.6 726.955 Q2120.61 726.955 2123.27 725.867 Q2125.95 724.779 2128.31 722.58 L2128.31 727.464 Q2125.86 729.131 2123.11 729.964 Q2120.37 730.797 2117.32 730.797 Q2109.47 730.797 2104.96 726.006 Q2100.44 721.191 2100.44 712.881 Q2100.44 704.547 2104.96 699.756 Q2109.47 694.941 2117.32 694.941 Q2120.42 694.941 2123.15 695.774 Q2125.91 696.584 2128.31 698.228 Z" fill="#000000" fill-rule="evenodd" fill-opacity="1" /><path clip-path="url(#clip660)" d="M 0 0 M2134.91 719.895 L2134.91 704.2 L2139.17 704.2 L2139.17 719.733 Q2139.17 723.413 2140.61 725.265 Q2142.04 727.094 2144.91 727.094 Q2148.36 727.094 2150.35 724.895 Q2152.36 722.695 2152.36 718.899 L2152.36 704.2 L2156.62 704.2 L2156.62 730.126 L2152.36 730.126 L2152.36 726.145 Q2150.81 728.506 2148.75 729.663 Q2146.72 730.797 2144.01 730.797 Q2139.54 730.797 2137.23 728.02 Q2134.91 725.242 2134.91 719.895 M2145.63 703.575 L2145.63 703.575 Z" fill="#000000" fill-rule="evenodd" fill-opacity="1" /><path clip-path="url(#clip660)" d="M 0 0 M2180.42 708.182 Q2179.7 707.765 2178.85 707.58 Q2178.01 707.371 2176.99 707.371 Q2173.38 707.371 2171.44 709.733 Q2169.52 712.071 2169.52 716.469 L2169.52 730.126 L2165.23 730.126 L2165.23 704.2 L2169.52 704.2 L2169.52 708.228 Q2170.86 705.867 2173.01 704.733 Q2175.17 703.575 2178.24 703.575 Q2178.68 703.575 2179.22 703.645 Q2179.75 703.691 2180.4 703.807 L2180.42 708.182 Z" fill="#000000" fill-rule="evenodd" fill-opacity="1" /><path clip-path="url(#clip660)" d="M 0 0 M2181.83 704.2 L2186.35 704.2 L2194.45 725.959 L2202.55 704.2 L2207.06 704.2 L2197.34 730.126 L2191.55 730.126 L2181.83 704.2 Z" fill="#000000" fill-rule="evenodd" fill-opacity="1" /><path clip-path="url(#clip660)" d="M 0 0 M2235.12 716.098 L2235.12 718.182 L2215.54 718.182 Q2215.81 722.58 2218.17 724.895 Q2220.56 727.186 2224.79 727.186 Q2227.25 727.186 2229.54 726.584 Q2231.85 725.982 2234.12 724.779 L2234.12 728.807 Q2231.83 729.779 2229.42 730.288 Q2227.02 730.797 2224.54 730.797 Q2218.34 730.797 2214.7 727.186 Q2211.09 723.575 2211.09 717.418 Q2211.09 711.052 2214.52 707.325 Q2217.97 703.575 2223.8 703.575 Q2229.03 703.575 2232.06 706.955 Q2235.12 710.311 2235.12 716.098 M2230.86 714.848 Q2230.81 711.353 2228.89 709.27 Q2226.99 707.186 2223.85 707.186 Q2220.28 707.186 2218.13 709.2 Q2216 711.214 2215.67 714.871 L2230.86 714.848 Z" fill="#000000" fill-rule="evenodd" fill-opacity="1" /><circle clip-path="url(#clip660)" cx="1859.83" cy="773.326" r="23" fill="#e26f46" fill-rule="evenodd" fill-opacity="1" stroke="#000000" stroke-opacity="1" stroke-width="5.12"/>
<path clip-path="url(#clip660)" d="M 0 0 M1958.62 759.889 L1958.62 786.763 L1964.26 786.763 Q1971.42 786.763 1974.73 783.523 Q1978.06 780.282 1978.06 773.291 Q1978.06 766.347 1974.73 763.129 Q1971.42 759.889 1964.26 759.889 L1958.62 759.889 M1953.94 756.046 L1963.55 756.046 Q1973.59 756.046 1978.29 760.236 Q1982.99 764.402 1982.99 773.291 Q1982.99 782.226 1978.27 786.416 Q1973.55 790.606 1963.55 790.606 L1953.94 790.606 L1953.94 756.046 Z" fill="#000000" fill-rule="evenodd" fill-opacity="1" /><path clip-path="url(#clip660)" d="M 0 0 M2002.04 777.574 Q1996.88 777.574 1994.89 778.754 Q1992.9 779.935 1992.9 782.782 Q1992.9 785.05 1994.38 786.393 Q1995.88 787.712 1998.45 787.712 Q2001.99 787.712 2004.12 785.212 Q2006.28 782.689 2006.28 778.523 L2006.28 777.574 L2002.04 777.574 M2010.54 775.814 L2010.54 790.606 L2006.28 790.606 L2006.28 786.671 Q2004.82 789.032 2002.64 790.166 Q2000.47 791.277 1997.32 791.277 Q1993.34 791.277 1990.98 789.055 Q1988.64 786.81 1988.64 783.06 Q1988.64 778.685 1991.56 776.463 Q1994.49 774.24 2000.3 774.24 L2006.28 774.24 L2006.28 773.824 Q2006.28 770.884 2004.33 769.287 Q2002.41 767.666 1998.92 767.666 Q1996.69 767.666 1994.59 768.199 Q1992.48 768.731 1990.54 769.796 L1990.54 765.861 Q1992.87 764.958 1995.07 764.518 Q1997.27 764.055 1999.36 764.055 Q2004.98 764.055 2007.76 766.972 Q2010.54 769.889 2010.54 775.814 Z" fill="#000000" fill-rule="evenodd" fill-opacity="1" /><path clip-path="url(#clip660)" d="M 0 0 M2023.52 757.319 L2023.52 764.68 L2032.3 764.68 L2032.3 767.99 L2023.52 767.99 L2023.52 782.064 Q2023.52 785.236 2024.38 786.138 Q2025.26 787.041 2027.92 787.041 L2032.3 787.041 L2032.3 790.606 L2027.92 790.606 Q2022.99 790.606 2021.12 788.777 Q2019.24 786.925 2019.24 782.064 L2019.24 767.99 L2016.12 767.99 L2016.12 764.68 L2019.24 764.68 L2019.24 757.319 L2023.52 757.319 Z" fill="#000000" fill-rule="evenodd" fill-opacity="1" /><path clip-path="url(#clip660)" d="M 0 0 M2049.68 777.574 Q2044.52 777.574 2042.53 778.754 Q2040.54 779.935 2040.54 782.782 Q2040.54 785.05 2042.02 786.393 Q2043.52 787.712 2046.09 787.712 Q2049.63 787.712 2051.76 785.212 Q2053.92 782.689 2053.92 778.523 L2053.92 777.574 L2049.68 777.574 M2058.18 775.814 L2058.18 790.606 L2053.92 790.606 L2053.92 786.671 Q2052.46 789.032 2050.28 790.166 Q2048.11 791.277 2044.96 791.277 Q2040.98 791.277 2038.61 789.055 Q2036.28 786.81 2036.28 783.06 Q2036.28 778.685 2039.19 776.463 Q2042.13 774.24 2047.94 774.24 L2053.92 774.24 L2053.92 773.824 Q2053.92 770.884 2051.97 769.287 Q2050.05 767.666 2046.55 767.666 Q2044.33 767.666 2042.23 768.199 Q2040.12 768.731 2038.18 769.796 L2038.18 765.861 Q2040.51 764.958 2042.71 764.518 Q2044.91 764.055 2046.99 764.055 Q2052.62 764.055 2055.4 766.972 Q2058.18 769.889 2058.18 775.814 Z" fill="#000000" fill-rule="evenodd" fill-opacity="1" /></svg>
