<?xml version="1.0" encoding="utf-8"?>
<svg xmlns="http://www.w3.org/2000/svg" xmlns:xlink="http://www.w3.org/1999/xlink" width="600" height="400" viewBox="0 0 2400 1600">
<defs>
  <clipPath id="clip380">
    <rect x="0" y="0" width="2400" height="1600"/>
  </clipPath>
</defs>
<path clip-path="url(#clip380)" d="
M0 1600 L2400 1600 L2400 0 L0 0  Z
  " fill="#ffffff" fill-rule="evenodd" fill-opacity="1"/>
<defs>
  <clipPath id="clip381">
    <rect x="480" y="0" width="1681" height="1600"/>
  </clipPath>
</defs>
<path clip-path="url(#clip380)" d="
M249.542 1423.18 L2352.76 1423.18 L2352.76 123.472 L249.542 123.472  Z
  " fill="#ffffff" fill-rule="evenodd" fill-opacity="1"/>
<defs>
  <clipPath id="clip382">
    <rect x="249" y="123" width="2104" height="1301"/>
  </clipPath>
</defs>
<polyline clip-path="url(#clip382)" style="stroke:#000000; stroke-width:2; stroke-opacity:0.1; fill:none" points="
  309.067,1423.18 309.067,123.472 
  "/>
<polyline clip-path="url(#clip382)" style="stroke:#000000; stroke-width:2; stroke-opacity:0.1; fill:none" points="
  705.9,1423.18 705.9,123.472 
  "/>
<polyline clip-path="url(#clip382)" style="stroke:#000000; stroke-width:2; stroke-opacity:0.1; fill:none" points="
  1102.73,1423.18 1102.73,123.472 
  "/>
<polyline clip-path="url(#clip382)" style="stroke:#000000; stroke-width:2; stroke-opacity:0.1; fill:none" points="
  1499.57,1423.18 1499.57,123.472 
  "/>
<polyline clip-path="url(#clip382)" style="stroke:#000000; stroke-width:2; stroke-opacity:0.1; fill:none" points="
  1896.4,1423.18 1896.4,123.472 
  "/>
<polyline clip-path="url(#clip382)" style="stroke:#000000; stroke-width:2; stroke-opacity:0.1; fill:none" points="
  2293.23,1423.18 2293.23,123.472 
  "/>
<polyline clip-path="url(#clip380)" style="stroke:#000000; stroke-width:4; stroke-opacity:1; fill:none" points="
  249.542,1423.18 2352.76,1423.18 
  "/>
<polyline clip-path="url(#clip380)" style="stroke:#000000; stroke-width:4; stroke-opacity:1; fill:none" points="
  309.067,1423.18 309.067,1407.58 
  "/>
<polyline clip-path="url(#clip380)" style="stroke:#000000; stroke-width:4; stroke-opacity:1; fill:none" points="
  705.9,1423.18 705.9,1407.58 
  "/>
<polyline clip-path="url(#clip380)" style="stroke:#000000; stroke-width:4; stroke-opacity:1; fill:none" points="
  1102.73,1423.18 1102.73,1407.58 
  "/>
<polyline clip-path="url(#clip380)" style="stroke:#000000; stroke-width:4; stroke-opacity:1; fill:none" points="
  1499.57,1423.18 1499.57,1407.58 
  "/>
<polyline clip-path="url(#clip380)" style="stroke:#000000; stroke-width:4; stroke-opacity:1; fill:none" points="
  1896.4,1423.18 1896.4,1407.58 
  "/>
<polyline clip-path="url(#clip380)" style="stroke:#000000; stroke-width:4; stroke-opacity:1; fill:none" points="
  2293.23,1423.18 2293.23,1407.58 
  "/>
<path clip-path="url(#clip380)" d="M 0 0 M309.067 1452.37 Q305.456 1452.37 303.627 1455.94 Q301.822 1459.48 301.822 1466.61 Q301.822 1473.71 303.627 1477.28 Q305.456 1480.82 309.067 1480.82 Q312.701 1480.82 314.507 1477.28 Q316.335 1473.71 316.335 1466.61 Q316.335 1459.48 314.507 1455.94 Q312.701 1452.37 309.067 1452.37 M309.067 1448.67 Q314.877 1448.67 317.933 1453.27 Q321.011 1457.86 321.011 1466.61 Q321.011 1475.33 317.933 1479.94 Q314.877 1484.52 309.067 1484.52 Q303.257 1484.52 300.178 1479.94 Q297.123 1475.33 297.123 1466.61 Q297.123 1457.86 300.178 1453.27 Q303.257 1448.67 309.067 1448.67 Z" fill="#000000" fill-rule="evenodd" fill-opacity="1" /><path clip-path="url(#clip380)" d="M 0 0 M696.178 1449.29 L714.534 1449.29 L714.534 1453.23 L700.46 1453.23 L700.46 1461.7 Q701.478 1461.35 702.497 1461.19 Q703.516 1461 704.534 1461 Q710.321 1461 713.701 1464.18 Q717.08 1467.35 717.08 1472.76 Q717.08 1478.34 713.608 1481.44 Q710.136 1484.52 703.816 1484.52 Q701.641 1484.52 699.372 1484.15 Q697.127 1483.78 694.719 1483.04 L694.719 1478.34 Q696.803 1479.48 699.025 1480.03 Q701.247 1480.59 703.724 1480.59 Q707.728 1480.59 710.066 1478.48 Q712.404 1476.38 712.404 1472.76 Q712.404 1469.15 710.066 1467.05 Q707.728 1464.94 703.724 1464.94 Q701.849 1464.94 699.974 1465.36 Q698.122 1465.77 696.178 1466.65 L696.178 1449.29 Z" fill="#000000" fill-rule="evenodd" fill-opacity="1" /><path clip-path="url(#clip380)" d="M 0 0 M1077.42 1479.92 L1085.06 1479.92 L1085.06 1453.55 L1076.75 1455.22 L1076.75 1450.96 L1085.01 1449.29 L1089.69 1449.29 L1089.69 1479.92 L1097.33 1479.92 L1097.33 1483.85 L1077.42 1483.85 L1077.42 1479.92 Z" fill="#000000" fill-rule="evenodd" fill-opacity="1" /><path clip-path="url(#clip380)" d="M 0 0 M1116.77 1452.37 Q1113.16 1452.37 1111.33 1455.94 Q1109.53 1459.48 1109.53 1466.61 Q1109.53 1473.71 1111.33 1477.28 Q1113.16 1480.82 1116.77 1480.82 Q1120.41 1480.82 1122.21 1477.28 Q1124.04 1473.71 1124.04 1466.61 Q1124.04 1459.48 1122.21 1455.94 Q1120.41 1452.37 1116.77 1452.37 M1116.77 1448.67 Q1122.58 1448.67 1125.64 1453.27 Q1128.72 1457.86 1128.72 1466.61 Q1128.72 1475.33 1125.64 1479.94 Q1122.58 1484.52 1116.77 1484.52 Q1110.96 1484.52 1107.88 1479.94 Q1104.83 1475.33 1104.83 1466.61 Q1104.83 1457.86 1107.88 1453.27 Q1110.96 1448.67 1116.77 1448.67 Z" fill="#000000" fill-rule="evenodd" fill-opacity="1" /><path clip-path="url(#clip380)" d="M 0 0 M1474.75 1479.92 L1482.39 1479.92 L1482.39 1453.55 L1474.08 1455.22 L1474.08 1450.96 L1482.34 1449.29 L1487.02 1449.29 L1487.02 1479.92 L1494.66 1479.92 L1494.66 1483.85 L1474.75 1483.85 L1474.75 1479.92 Z" fill="#000000" fill-rule="evenodd" fill-opacity="1" /><path clip-path="url(#clip380)" d="M 0 0 M1504.15 1449.29 L1522.51 1449.29 L1522.51 1453.23 L1508.43 1453.23 L1508.43 1461.7 Q1509.45 1461.35 1510.47 1461.19 Q1511.49 1461 1512.51 1461 Q1518.29 1461 1521.67 1464.18 Q1525.05 1467.35 1525.05 1472.76 Q1525.05 1478.34 1521.58 1481.44 Q1518.11 1484.52 1511.79 1484.52 Q1509.61 1484.52 1507.34 1484.15 Q1505.1 1483.78 1502.69 1483.04 L1502.69 1478.34 Q1504.77 1479.48 1507 1480.03 Q1509.22 1480.59 1511.69 1480.59 Q1515.7 1480.59 1518.04 1478.48 Q1520.38 1476.38 1520.38 1472.76 Q1520.38 1469.15 1518.04 1467.05 Q1515.7 1464.94 1511.69 1464.94 Q1509.82 1464.94 1507.94 1465.36 Q1506.09 1465.77 1504.15 1466.65 L1504.15 1449.29 Z" fill="#000000" fill-rule="evenodd" fill-opacity="1" /><path clip-path="url(#clip380)" d="M 0 0 M1875.17 1479.92 L1891.49 1479.92 L1891.49 1483.85 L1869.55 1483.85 L1869.55 1479.92 Q1872.21 1477.16 1876.79 1472.53 Q1881.4 1467.88 1882.58 1466.54 Q1884.82 1464.01 1885.7 1462.28 Q1886.61 1460.52 1886.61 1458.83 Q1886.61 1456.07 1884.66 1454.34 Q1882.74 1452.6 1879.64 1452.6 Q1877.44 1452.6 1874.99 1453.37 Q1872.56 1454.13 1869.78 1455.68 L1869.78 1450.96 Q1872.6 1449.82 1875.06 1449.25 Q1877.51 1448.67 1879.55 1448.67 Q1884.92 1448.67 1888.11 1451.35 Q1891.31 1454.04 1891.31 1458.53 Q1891.31 1460.66 1890.5 1462.58 Q1889.71 1464.48 1887.6 1467.07 Q1887.02 1467.74 1883.92 1470.96 Q1880.82 1474.15 1875.17 1479.92 Z" fill="#000000" fill-rule="evenodd" fill-opacity="1" /><path clip-path="url(#clip380)" d="M 0 0 M1911.31 1452.37 Q1907.69 1452.37 1905.87 1455.94 Q1904.06 1459.48 1904.06 1466.61 Q1904.06 1473.71 1905.87 1477.28 Q1907.69 1480.82 1911.31 1480.82 Q1914.94 1480.82 1916.75 1477.28 Q1918.57 1473.71 1918.57 1466.61 Q1918.57 1459.48 1916.75 1455.94 Q1914.94 1452.37 1911.31 1452.37 M1911.31 1448.67 Q1917.12 1448.67 1920.17 1453.27 Q1923.25 1457.86 1923.25 1466.61 Q1923.25 1475.33 1920.17 1479.94 Q1917.12 1484.52 1911.31 1484.52 Q1905.5 1484.52 1902.42 1479.94 Q1899.36 1475.33 1899.36 1466.61 Q1899.36 1457.86 1902.42 1453.27 Q1905.5 1448.67 1911.31 1448.67 Z" fill="#000000" fill-rule="evenodd" fill-opacity="1" /><path clip-path="url(#clip380)" d="M 0 0 M2272.5 1479.92 L2288.82 1479.92 L2288.82 1483.85 L2266.88 1483.85 L2266.88 1479.92 Q2269.54 1477.16 2274.12 1472.53 Q2278.73 1467.88 2279.91 1466.54 Q2282.15 1464.01 2283.03 1462.28 Q2283.94 1460.52 2283.94 1458.83 Q2283.94 1456.07 2281.99 1454.34 Q2280.07 1452.6 2276.97 1452.6 Q2274.77 1452.6 2272.32 1453.37 Q2269.89 1454.13 2267.11 1455.68 L2267.11 1450.96 Q2269.93 1449.82 2272.39 1449.25 Q2274.84 1448.67 2276.88 1448.67 Q2282.25 1448.67 2285.44 1451.35 Q2288.64 1454.04 2288.64 1458.53 Q2288.64 1460.66 2287.83 1462.58 Q2287.04 1464.48 2284.93 1467.07 Q2284.35 1467.74 2281.25 1470.96 Q2278.15 1474.15 2272.5 1479.92 Z" fill="#000000" fill-rule="evenodd" fill-opacity="1" /><path clip-path="url(#clip380)" d="M 0 0 M2298.68 1449.29 L2317.04 1449.29 L2317.04 1453.23 L2302.96 1453.23 L2302.96 1461.7 Q2303.98 1461.35 2305 1461.19 Q2306.02 1461 2307.04 1461 Q2312.83 1461 2316.21 1464.18 Q2319.59 1467.35 2319.59 1472.76 Q2319.59 1478.34 2316.11 1481.44 Q2312.64 1484.52 2306.32 1484.52 Q2304.15 1484.52 2301.88 1484.15 Q2299.63 1483.78 2297.22 1483.04 L2297.22 1478.34 Q2299.31 1479.48 2301.53 1480.03 Q2303.75 1480.59 2306.23 1480.59 Q2310.23 1480.59 2312.57 1478.48 Q2314.91 1476.38 2314.91 1472.76 Q2314.91 1469.15 2312.57 1467.05 Q2310.23 1464.94 2306.23 1464.94 Q2304.35 1464.94 2302.48 1465.36 Q2300.63 1465.77 2298.68 1466.65 L2298.68 1449.29 Z" fill="#000000" fill-rule="evenodd" fill-opacity="1" /><path clip-path="url(#clip380)" d="M 0 0 M1182.68 1520.52 L1222.88 1520.52 L1222.88 1525.93 L1206.01 1525.93 L1206.01 1568.04 L1199.55 1568.04 L1199.55 1525.93 L1182.68 1525.93 L1182.68 1520.52 Z" fill="#000000" fill-rule="evenodd" fill-opacity="1" /><path clip-path="url(#clip380)" d="M 0 0 M1226.83 1532.4 L1232.69 1532.4 L1232.69 1568.04 L1226.83 1568.04 L1226.83 1532.4 M1226.83 1518.52 L1232.69 1518.52 L1232.69 1525.93 L1226.83 1525.93 L1226.83 1518.52 Z" fill="#000000" fill-rule="evenodd" fill-opacity="1" /><path clip-path="url(#clip380)" d="M 0 0 M1272.69 1539.24 Q1274.89 1535.29 1277.95 1533.41 Q1281 1531.54 1285.14 1531.54 Q1290.71 1531.54 1293.73 1535.45 Q1296.76 1539.33 1296.76 1546.53 L1296.76 1568.04 L1290.87 1568.04 L1290.87 1546.72 Q1290.87 1541.59 1289.05 1539.11 Q1287.24 1536.63 1283.52 1536.63 Q1278.96 1536.63 1276.32 1539.65 Q1273.68 1542.68 1273.68 1547.9 L1273.68 1568.04 L1267.79 1568.04 L1267.79 1546.72 Q1267.79 1541.56 1265.98 1539.11 Q1264.16 1536.63 1260.38 1536.63 Q1255.89 1536.63 1253.25 1539.68 Q1250.61 1542.71 1250.61 1547.9 L1250.61 1568.04 L1244.72 1568.04 L1244.72 1532.4 L1250.61 1532.4 L1250.61 1537.93 Q1252.61 1534.66 1255.41 1533.1 Q1258.21 1531.54 1262.06 1531.54 Q1265.95 1531.54 1268.65 1533.51 Q1271.39 1535.48 1272.69 1539.24 Z" fill="#000000" fill-rule="evenodd" fill-opacity="1" /><path clip-path="url(#clip380)" d="M 0 0 M1338.93 1548.76 L1338.93 1551.62 L1312 1551.62 Q1312.38 1557.67 1315.63 1560.85 Q1318.91 1564 1324.73 1564 Q1328.11 1564 1331.26 1563.17 Q1334.44 1562.35 1337.56 1560.69 L1337.56 1566.23 Q1334.41 1567.57 1331.1 1568.27 Q1327.79 1568.97 1324.38 1568.97 Q1315.85 1568.97 1310.86 1564 Q1305.89 1559.04 1305.89 1550.57 Q1305.89 1541.82 1310.6 1536.69 Q1315.34 1531.54 1323.37 1531.54 Q1330.56 1531.54 1334.73 1536.18 Q1338.93 1540.8 1338.93 1548.76 M1333.07 1547.04 Q1333.01 1542.23 1330.37 1539.37 Q1327.76 1536.5 1323.43 1536.5 Q1318.53 1536.5 1315.57 1539.27 Q1312.64 1542.04 1312.19 1547.07 L1333.07 1547.04 Z" fill="#000000" fill-rule="evenodd" fill-opacity="1" /><path clip-path="url(#clip380)" d="M 0 0 M1350.04 1559.96 L1356.75 1559.96 L1356.75 1565.43 L1351.53 1575.62 L1347.43 1575.62 L1350.04 1565.43 L1350.04 1559.96 Z" fill="#000000" fill-rule="evenodd" fill-opacity="1" /><path clip-path="url(#clip380)" d="M 0 0 M1419.61 1546.53 L1419.61 1568.04 L1413.76 1568.04 L1413.76 1546.72 Q1413.76 1541.66 1411.78 1539.14 Q1409.81 1536.63 1405.86 1536.63 Q1401.12 1536.63 1398.39 1539.65 Q1395.65 1542.68 1395.65 1547.9 L1395.65 1568.04 L1389.76 1568.04 L1389.76 1518.52 L1395.65 1518.52 L1395.65 1537.93 Q1397.75 1534.72 1400.58 1533.13 Q1403.45 1531.54 1407.17 1531.54 Q1413.31 1531.54 1416.46 1535.36 Q1419.61 1539.14 1419.61 1546.53 Z" fill="#000000" fill-rule="evenodd" fill-opacity="1" /><polyline clip-path="url(#clip382)" style="stroke:#000000; stroke-width:2; stroke-opacity:0.1; fill:none" points="
  249.542,1386.4 2352.76,1386.4 
  "/>
<polyline clip-path="url(#clip382)" style="stroke:#000000; stroke-width:2; stroke-opacity:0.1; fill:none" points="
  249.542,1079.86 2352.76,1079.86 
  "/>
<polyline clip-path="url(#clip382)" style="stroke:#000000; stroke-width:2; stroke-opacity:0.1; fill:none" points="
  249.542,773.326 2352.76,773.326 
  "/>
<polyline clip-path="url(#clip382)" style="stroke:#000000; stroke-width:2; stroke-opacity:0.1; fill:none" points="
  249.542,466.791 2352.76,466.791 
  "/>
<polyline clip-path="url(#clip382)" style="stroke:#000000; stroke-width:2; stroke-opacity:0.1; fill:none" points="
  249.542,160.256 2352.76,160.256 
  "/>
<polyline clip-path="url(#clip380)" style="stroke:#000000; stroke-width:4; stroke-opacity:1; fill:none" points="
  249.542,1423.18 249.542,123.472 
  "/>
<polyline clip-path="url(#clip380)" style="stroke:#000000; stroke-width:4; stroke-opacity:1; fill:none" points="
  249.542,1386.4 274.781,1386.4 
  "/>
<polyline clip-path="url(#clip380)" style="stroke:#000000; stroke-width:4; stroke-opacity:1; fill:none" points="
  249.542,1079.86 274.781,1079.86 
  "/>
<polyline clip-path="url(#clip380)" style="stroke:#000000; stroke-width:4; stroke-opacity:1; fill:none" points="
  249.542,773.326 274.781,773.326 
  "/>
<polyline clip-path="url(#clip380)" style="stroke:#000000; stroke-width:4; stroke-opacity:1; fill:none" points="
  249.542,466.791 274.781,466.791 
  "/>
<polyline clip-path="url(#clip380)" style="stroke:#000000; stroke-width:4; stroke-opacity:1; fill:none" points="
  249.542,160.256 274.781,160.256 
  "/>
<path clip-path="url(#clip380)" d="M 0 0 M126.205 1372.19 Q122.593 1372.19 120.765 1375.76 Q118.959 1379.3 118.959 1386.43 Q118.959 1393.54 120.765 1397.1 Q122.593 1400.64 126.205 1400.64 Q129.839 1400.64 131.644 1397.1 Q133.473 1393.54 133.473 1386.43 Q133.473 1379.3 131.644 1375.76 Q129.839 1372.19 126.205 1372.19 M126.205 1368.49 Q132.015 1368.49 135.07 1373.1 Q138.149 1377.68 138.149 1386.43 Q138.149 1395.16 135.07 1399.76 Q132.015 1404.35 126.205 1404.35 Q120.394 1404.35 117.316 1399.76 Q114.26 1395.16 114.26 1386.43 Q114.26 1377.68 117.316 1373.1 Q120.394 1368.49 126.205 1368.49 Z" fill="#000000" fill-rule="evenodd" fill-opacity="1" /><path clip-path="url(#clip380)" d="M 0 0 M146.366 1397.8 L151.251 1397.8 L151.251 1403.68 L146.366 1403.68 L146.366 1397.8 Z" fill="#000000" fill-rule="evenodd" fill-opacity="1" /><path clip-path="url(#clip380)" d="M 0 0 M171.436 1372.19 Q167.825 1372.19 165.996 1375.76 Q164.19 1379.3 164.19 1386.43 Q164.19 1393.54 165.996 1397.1 Q167.825 1400.64 171.436 1400.64 Q175.07 1400.64 176.876 1397.1 Q178.704 1393.54 178.704 1386.43 Q178.704 1379.3 176.876 1375.76 Q175.07 1372.19 171.436 1372.19 M171.436 1368.49 Q177.246 1368.49 180.301 1373.1 Q183.38 1377.68 183.38 1386.43 Q183.38 1395.16 180.301 1399.76 Q177.246 1404.35 171.436 1404.35 Q165.626 1404.35 162.547 1399.76 Q159.491 1395.16 159.491 1386.43 Q159.491 1377.68 162.547 1373.1 Q165.626 1368.49 171.436 1368.49 Z" fill="#000000" fill-rule="evenodd" fill-opacity="1" /><path clip-path="url(#clip380)" d="M 0 0 M201.598 1372.19 Q197.987 1372.19 196.158 1375.76 Q194.352 1379.3 194.352 1386.43 Q194.352 1393.54 196.158 1397.1 Q197.987 1400.64 201.598 1400.64 Q205.232 1400.64 207.037 1397.1 Q208.866 1393.54 208.866 1386.43 Q208.866 1379.3 207.037 1375.76 Q205.232 1372.19 201.598 1372.19 M201.598 1368.49 Q207.408 1368.49 210.463 1373.1 Q213.542 1377.68 213.542 1386.43 Q213.542 1395.16 210.463 1399.76 Q207.408 1404.35 201.598 1404.35 Q195.787 1404.35 192.709 1399.76 Q189.653 1395.16 189.653 1386.43 Q189.653 1377.68 192.709 1373.1 Q195.787 1368.49 201.598 1368.49 Z" fill="#000000" fill-rule="evenodd" fill-opacity="1" /><path clip-path="url(#clip380)" d="M 0 0 M127.2 1065.66 Q123.589 1065.66 121.76 1069.22 Q119.955 1072.77 119.955 1079.9 Q119.955 1087 121.76 1090.57 Q123.589 1094.11 127.2 1094.11 Q130.834 1094.11 132.64 1090.57 Q134.468 1087 134.468 1079.9 Q134.468 1072.77 132.64 1069.22 Q130.834 1065.66 127.2 1065.66 M127.2 1061.96 Q133.01 1061.96 136.066 1066.56 Q139.144 1071.15 139.144 1079.9 Q139.144 1088.62 136.066 1093.23 Q133.01 1097.81 127.2 1097.81 Q121.39 1097.81 118.311 1093.23 Q115.256 1088.62 115.256 1079.9 Q115.256 1071.15 118.311 1066.56 Q121.39 1061.96 127.2 1061.96 Z" fill="#000000" fill-rule="evenodd" fill-opacity="1" /><path clip-path="url(#clip380)" d="M 0 0 M147.362 1091.26 L152.246 1091.26 L152.246 1097.14 L147.362 1097.14 L147.362 1091.26 Z" fill="#000000" fill-rule="evenodd" fill-opacity="1" /><path clip-path="url(#clip380)" d="M 0 0 M166.459 1093.21 L182.778 1093.21 L182.778 1097.14 L160.834 1097.14 L160.834 1093.21 Q163.496 1090.45 168.079 1085.82 Q172.686 1081.17 173.866 1079.83 Q176.112 1077.3 176.991 1075.57 Q177.894 1073.81 177.894 1072.12 Q177.894 1069.36 175.95 1067.63 Q174.028 1065.89 170.927 1065.89 Q168.727 1065.89 166.274 1066.65 Q163.843 1067.42 161.065 1068.97 L161.065 1064.25 Q163.89 1063.11 166.343 1062.53 Q168.797 1061.96 170.834 1061.96 Q176.204 1061.96 179.399 1064.64 Q182.593 1067.33 182.593 1071.82 Q182.593 1073.95 181.783 1075.87 Q180.996 1077.77 178.889 1080.36 Q178.311 1081.03 175.209 1084.25 Q172.107 1087.44 166.459 1093.21 Z" fill="#000000" fill-rule="evenodd" fill-opacity="1" /><path clip-path="url(#clip380)" d="M 0 0 M192.639 1062.58 L210.996 1062.58 L210.996 1066.52 L196.922 1066.52 L196.922 1074.99 Q197.94 1074.64 198.959 1074.48 Q199.977 1074.29 200.996 1074.29 Q206.783 1074.29 210.162 1077.47 Q213.542 1080.64 213.542 1086.05 Q213.542 1091.63 210.07 1094.73 Q206.598 1097.81 200.278 1097.81 Q198.102 1097.81 195.834 1097.44 Q193.588 1097.07 191.181 1096.33 L191.181 1091.63 Q193.264 1092.77 195.487 1093.32 Q197.709 1093.88 200.186 1093.88 Q204.19 1093.88 206.528 1091.77 Q208.866 1089.66 208.866 1086.05 Q208.866 1082.44 206.528 1080.34 Q204.19 1078.23 200.186 1078.23 Q198.311 1078.23 196.436 1078.65 Q194.584 1079.06 192.639 1079.94 L192.639 1062.58 Z" fill="#000000" fill-rule="evenodd" fill-opacity="1" /><path clip-path="url(#clip380)" d="M 0 0 M126.205 759.125 Q122.593 759.125 120.765 762.689 Q118.959 766.231 118.959 773.361 Q118.959 780.467 120.765 784.032 Q122.593 787.574 126.205 787.574 Q129.839 787.574 131.644 784.032 Q133.473 780.467 133.473 773.361 Q133.473 766.231 131.644 762.689 Q129.839 759.125 126.205 759.125 M126.205 755.421 Q132.015 755.421 135.07 760.027 Q138.149 764.611 138.149 773.361 Q138.149 782.088 135.07 786.694 Q132.015 791.277 126.205 791.277 Q120.394 791.277 117.316 786.694 Q114.26 782.088 114.26 773.361 Q114.26 764.611 117.316 760.027 Q120.394 755.421 126.205 755.421 Z" fill="#000000" fill-rule="evenodd" fill-opacity="1" /><path clip-path="url(#clip380)" d="M 0 0 M146.366 784.726 L151.251 784.726 L151.251 790.606 L146.366 790.606 L146.366 784.726 Z" fill="#000000" fill-rule="evenodd" fill-opacity="1" /><path clip-path="url(#clip380)" d="M 0 0 M161.482 756.046 L179.839 756.046 L179.839 759.981 L165.765 759.981 L165.765 768.453 Q166.783 768.106 167.802 767.944 Q168.82 767.759 169.839 767.759 Q175.626 767.759 179.005 770.93 Q182.385 774.101 182.385 779.518 Q182.385 785.097 178.913 788.199 Q175.44 791.277 169.121 791.277 Q166.945 791.277 164.677 790.907 Q162.431 790.537 160.024 789.796 L160.024 785.097 Q162.107 786.231 164.329 786.787 Q166.552 787.342 169.028 787.342 Q173.033 787.342 175.371 785.236 Q177.709 783.129 177.709 779.518 Q177.709 775.907 175.371 773.801 Q173.033 771.694 169.028 771.694 Q167.153 771.694 165.278 772.111 Q163.427 772.527 161.482 773.407 L161.482 756.046 Z" fill="#000000" fill-rule="evenodd" fill-opacity="1" /><path clip-path="url(#clip380)" d="M 0 0 M201.598 759.125 Q197.987 759.125 196.158 762.689 Q194.352 766.231 194.352 773.361 Q194.352 780.467 196.158 784.032 Q197.987 787.574 201.598 787.574 Q205.232 787.574 207.037 784.032 Q208.866 780.467 208.866 773.361 Q208.866 766.231 207.037 762.689 Q205.232 759.125 201.598 759.125 M201.598 755.421 Q207.408 755.421 210.463 760.027 Q213.542 764.611 213.542 773.361 Q213.542 782.088 210.463 786.694 Q207.408 791.277 201.598 791.277 Q195.787 791.277 192.709 786.694 Q189.653 782.088 189.653 773.361 Q189.653 764.611 192.709 760.027 Q195.787 755.421 201.598 755.421 Z" fill="#000000" fill-rule="evenodd" fill-opacity="1" /><path clip-path="url(#clip380)" d="M 0 0 M127.2 452.59 Q123.589 452.59 121.76 456.155 Q119.955 459.696 119.955 466.826 Q119.955 473.932 121.76 477.497 Q123.589 481.039 127.2 481.039 Q130.834 481.039 132.64 477.497 Q134.468 473.932 134.468 466.826 Q134.468 459.696 132.64 456.155 Q130.834 452.59 127.2 452.59 M127.2 448.886 Q133.01 448.886 136.066 453.493 Q139.144 458.076 139.144 466.826 Q139.144 475.553 136.066 480.159 Q133.01 484.742 127.2 484.742 Q121.39 484.742 118.311 480.159 Q115.256 475.553 115.256 466.826 Q115.256 458.076 118.311 453.493 Q121.39 448.886 127.2 448.886 Z" fill="#000000" fill-rule="evenodd" fill-opacity="1" /><path clip-path="url(#clip380)" d="M 0 0 M147.362 478.192 L152.246 478.192 L152.246 484.071 L147.362 484.071 L147.362 478.192 Z" fill="#000000" fill-rule="evenodd" fill-opacity="1" /><path clip-path="url(#clip380)" d="M 0 0 M161.251 449.511 L183.473 449.511 L183.473 451.502 L170.927 484.071 L166.042 484.071 L177.848 453.446 L161.251 453.446 L161.251 449.511 Z" fill="#000000" fill-rule="evenodd" fill-opacity="1" /><path clip-path="url(#clip380)" d="M 0 0 M192.639 449.511 L210.996 449.511 L210.996 453.446 L196.922 453.446 L196.922 461.918 Q197.94 461.571 198.959 461.409 Q199.977 461.224 200.996 461.224 Q206.783 461.224 210.162 464.395 Q213.542 467.567 213.542 472.983 Q213.542 478.562 210.07 481.664 Q206.598 484.742 200.278 484.742 Q198.102 484.742 195.834 484.372 Q193.588 484.002 191.181 483.261 L191.181 478.562 Q193.264 479.696 195.487 480.252 Q197.709 480.807 200.186 480.807 Q204.19 480.807 206.528 478.701 Q208.866 476.594 208.866 472.983 Q208.866 469.372 206.528 467.266 Q204.19 465.159 200.186 465.159 Q198.311 465.159 196.436 465.576 Q194.584 465.993 192.639 466.872 L192.639 449.511 Z" fill="#000000" fill-rule="evenodd" fill-opacity="1" /><path clip-path="url(#clip380)" d="M 0 0 M117.015 173.601 L124.654 173.601 L124.654 147.236 L116.343 148.902 L116.343 144.643 L124.607 142.976 L129.283 142.976 L129.283 173.601 L136.922 173.601 L136.922 177.536 L117.015 177.536 L117.015 173.601 Z" fill="#000000" fill-rule="evenodd" fill-opacity="1" /><path clip-path="url(#clip380)" d="M 0 0 M146.366 171.657 L151.251 171.657 L151.251 177.536 L146.366 177.536 L146.366 171.657 Z" fill="#000000" fill-rule="evenodd" fill-opacity="1" /><path clip-path="url(#clip380)" d="M 0 0 M171.436 146.055 Q167.825 146.055 165.996 149.62 Q164.19 153.161 164.19 160.291 Q164.19 167.397 165.996 170.962 Q167.825 174.504 171.436 174.504 Q175.07 174.504 176.876 170.962 Q178.704 167.397 178.704 160.291 Q178.704 153.161 176.876 149.62 Q175.07 146.055 171.436 146.055 M171.436 142.351 Q177.246 142.351 180.301 146.958 Q183.38 151.541 183.38 160.291 Q183.38 169.018 180.301 173.624 Q177.246 178.208 171.436 178.208 Q165.626 178.208 162.547 173.624 Q159.491 169.018 159.491 160.291 Q159.491 151.541 162.547 146.958 Q165.626 142.351 171.436 142.351 Z" fill="#000000" fill-rule="evenodd" fill-opacity="1" /><path clip-path="url(#clip380)" d="M 0 0 M201.598 146.055 Q197.987 146.055 196.158 149.62 Q194.352 153.161 194.352 160.291 Q194.352 167.397 196.158 170.962 Q197.987 174.504 201.598 174.504 Q205.232 174.504 207.037 170.962 Q208.866 167.397 208.866 160.291 Q208.866 153.161 207.037 149.62 Q205.232 146.055 201.598 146.055 M201.598 142.351 Q207.408 142.351 210.463 146.958 Q213.542 151.541 213.542 160.291 Q213.542 169.018 210.463 173.624 Q207.408 178.208 201.598 178.208 Q195.787 178.208 192.709 173.624 Q189.653 169.018 189.653 160.291 Q189.653 151.541 192.709 146.958 Q195.787 142.351 201.598 142.351 Z" fill="#000000" fill-rule="evenodd" fill-opacity="1" /><path clip-path="url(#clip380)" d="M 0 0 M20.1444 1061.92 L26.9239 1061.92 Q23.9002 1065.16 22.4043 1068.85 Q20.9083 1072.51 20.9083 1076.65 Q20.9083 1084.8 25.9054 1089.13 Q30.8707 1093.46 40.2919 1093.46 Q49.6813 1093.46 54.6784 1089.13 Q59.6436 1084.8 59.6436 1076.65 Q59.6436 1072.51 58.1477 1068.85 Q56.6518 1065.16 53.6281 1061.92 L60.3439 1061.92 Q62.6355 1065.29 63.7814 1069.08 Q64.9272 1072.83 64.9272 1077.03 Q64.9272 1087.82 58.3387 1094.03 Q51.7183 1100.24 40.2919 1100.24 Q28.8336 1100.24 22.2451 1094.03 Q15.6248 1087.82 15.6248 1077.03 Q15.6248 1072.77 16.7706 1069.01 Q17.8846 1065.23 20.1444 1061.92 Z" fill="#000000" fill-rule="evenodd" fill-opacity="1" /><path clip-path="url(#clip380)" d="M 0 0 M32.4621 1038.43 Q32.4621 1043.14 36.1542 1045.87 Q39.8145 1048.61 46.212 1048.61 Q52.6095 1048.61 56.3017 1045.91 Q59.9619 1043.17 59.9619 1038.43 Q59.9619 1033.75 56.2698 1031.01 Q52.5777 1028.27 46.212 1028.27 Q39.8781 1028.27 36.186 1031.01 Q32.4621 1033.75 32.4621 1038.43 M27.4968 1038.43 Q27.4968 1030.79 32.4621 1026.43 Q37.4273 1022.07 46.212 1022.07 Q54.9649 1022.07 59.9619 1026.43 Q64.9272 1030.79 64.9272 1038.43 Q64.9272 1046.1 59.9619 1050.46 Q54.9649 1054.79 46.212 1054.79 Q37.4273 1054.79 32.4621 1050.46 Q27.4968 1046.1 27.4968 1038.43 Z" fill="#000000" fill-rule="evenodd" fill-opacity="1" /><path clip-path="url(#clip380)" d="M 0 0 M42.4881 982.726 L64.0042 982.726 L64.0042 988.582 L42.679 988.582 Q37.6183 988.582 35.1038 990.556 Q32.5894 992.529 32.5894 996.476 Q32.5894 1001.22 35.6131 1003.96 Q38.6368 1006.69 43.8567 1006.69 L64.0042 1006.69 L64.0042 1012.58 L28.3562 1012.58 L28.3562 1006.69 L33.8944 1006.69 Q30.6797 1004.59 29.0883 1001.76 Q27.4968 998.895 27.4968 995.171 Q27.4968 989.028 31.3163 985.877 Q35.1038 982.726 42.4881 982.726 Z" fill="#000000" fill-rule="evenodd" fill-opacity="1" /><path clip-path="url(#clip380)" d="M 0 0 M29.7248 945.391 L35.1993 945.391 Q33.8307 947.874 33.1623 950.388 Q32.4621 952.871 32.4621 955.417 Q32.4621 961.114 36.0905 964.265 Q39.6872 967.416 46.212 967.416 Q52.7369 967.416 56.3653 964.265 Q59.9619 961.114 59.9619 955.417 Q59.9619 952.871 59.2935 950.388 Q58.5933 947.874 57.2247 945.391 L62.6355 945.391 Q63.7814 947.842 64.3543 950.484 Q64.9272 953.094 64.9272 956.054 Q64.9272 964.106 59.8664 968.849 Q54.8057 973.591 46.212 973.591 Q37.491 973.591 32.4939 968.817 Q27.4968 964.011 27.4968 955.672 Q27.4968 952.966 28.0697 950.388 Q28.6108 947.81 29.7248 945.391 Z" fill="#000000" fill-rule="evenodd" fill-opacity="1" /><path clip-path="url(#clip380)" d="M 0 0 M44.7161 904.714 L47.5806 904.714 L47.5806 931.641 Q53.6281 931.259 56.8109 928.013 Q59.9619 924.734 59.9619 918.91 Q59.9619 915.536 59.1344 912.385 Q58.3069 909.202 56.6518 906.083 L62.1899 906.083 Q63.5267 909.234 64.227 912.544 Q64.9272 915.854 64.9272 919.26 Q64.9272 927.79 59.9619 932.787 Q54.9967 937.752 46.5303 937.752 Q37.7774 937.752 32.6531 933.042 Q27.4968 928.299 27.4968 920.278 Q27.4968 913.085 32.1438 908.916 Q36.7589 904.714 44.7161 904.714 M42.9973 910.571 Q38.1912 910.634 35.3266 913.276 Q32.4621 915.886 32.4621 920.215 Q32.4621 925.116 35.2312 928.076 Q38.0002 931.005 43.0292 931.45 L42.9973 910.571 Z" fill="#000000" fill-rule="evenodd" fill-opacity="1" /><path clip-path="url(#clip380)" d="M 0 0 M42.4881 865.47 L64.0042 865.47 L64.0042 871.326 L42.679 871.326 Q37.6183 871.326 35.1038 873.299 Q32.5894 875.273 32.5894 879.22 Q32.5894 883.962 35.6131 886.699 Q38.6368 889.436 43.8567 889.436 L64.0042 889.436 L64.0042 895.325 L28.3562 895.325 L28.3562 889.436 L33.8944 889.436 Q30.6797 887.336 29.0883 884.503 Q27.4968 881.638 27.4968 877.915 Q27.4968 871.772 31.3163 868.621 Q35.1038 865.47 42.4881 865.47 Z" fill="#000000" fill-rule="evenodd" fill-opacity="1" /><path clip-path="url(#clip380)" d="M 0 0 M18.2347 847.996 L28.3562 847.996 L28.3562 835.933 L32.9077 835.933 L32.9077 847.996 L52.2594 847.996 Q56.6199 847.996 57.8613 846.818 Q59.1026 845.609 59.1026 841.948 L59.1026 835.933 L64.0042 835.933 L64.0042 841.948 Q64.0042 848.728 61.4897 851.306 Q58.9434 853.884 52.2594 853.884 L32.9077 853.884 L32.9077 858.181 L28.3562 858.181 L28.3562 853.884 L18.2347 853.884 L18.2347 847.996 Z" fill="#000000" fill-rule="evenodd" fill-opacity="1" /><path clip-path="url(#clip380)" d="M 0 0 M33.8307 807.573 Q33.2578 808.56 33.0032 809.738 Q32.7167 810.884 32.7167 812.284 Q32.7167 817.249 35.9632 819.923 Q39.1779 822.565 45.2253 822.565 L64.0042 822.565 L64.0042 828.453 L28.3562 828.453 L28.3562 822.565 L33.8944 822.565 Q30.6479 820.719 29.0883 817.759 Q27.4968 814.799 27.4968 810.565 Q27.4968 809.961 27.5923 809.229 Q27.656 808.497 27.8151 807.605 L33.8307 807.573 Z" fill="#000000" fill-rule="evenodd" fill-opacity="1" /><path clip-path="url(#clip380)" d="M 0 0 M46.0847 785.23 Q46.0847 792.328 47.7079 795.065 Q49.3312 797.802 53.2461 797.802 Q56.3653 797.802 58.2114 795.765 Q60.0256 793.696 60.0256 790.163 Q60.0256 785.294 56.5881 782.365 Q53.1188 779.405 47.3897 779.405 L46.0847 779.405 L46.0847 785.23 M43.6657 773.549 L64.0042 773.549 L64.0042 779.405 L58.5933 779.405 Q61.8398 781.41 63.3994 784.402 Q64.9272 787.394 64.9272 791.723 Q64.9272 797.197 61.8716 800.444 Q58.7843 803.659 53.6281 803.659 Q47.6125 803.659 44.5569 799.648 Q41.5014 795.606 41.5014 787.617 L41.5014 779.405 L40.9285 779.405 Q36.8862 779.405 34.6901 782.079 Q32.4621 784.721 32.4621 789.527 Q32.4621 792.582 33.1941 795.479 Q33.9262 798.375 35.3903 801.049 L29.9795 801.049 Q28.7381 797.834 28.1334 794.81 Q27.4968 791.787 27.4968 788.922 Q27.4968 781.188 31.5072 777.368 Q35.5176 773.549 43.6657 773.549 Z" fill="#000000" fill-rule="evenodd" fill-opacity="1" /><path clip-path="url(#clip380)" d="M 0 0 M18.2347 755.693 L28.3562 755.693 L28.3562 743.63 L32.9077 743.63 L32.9077 755.693 L52.2594 755.693 Q56.6199 755.693 57.8613 754.515 Q59.1026 753.306 59.1026 749.646 L59.1026 743.63 L64.0042 743.63 L64.0042 749.646 Q64.0042 756.425 61.4897 759.003 Q58.9434 761.581 52.2594 761.581 L32.9077 761.581 L32.9077 765.878 L28.3562 765.878 L28.3562 761.581 L18.2347 761.581 L18.2347 755.693 Z" fill="#000000" fill-rule="evenodd" fill-opacity="1" /><path clip-path="url(#clip380)" d="M 0 0 M28.3562 735.927 L28.3562 730.071 L64.0042 730.071 L64.0042 735.927 L28.3562 735.927 M14.479 735.927 L14.479 730.071 L21.895 730.071 L21.895 735.927 L14.479 735.927 Z" fill="#000000" fill-rule="evenodd" fill-opacity="1" /><path clip-path="url(#clip380)" d="M 0 0 M32.4621 704.003 Q32.4621 708.714 36.1542 711.451 Q39.8145 714.189 46.212 714.189 Q52.6095 714.189 56.3017 711.483 Q59.9619 708.746 59.9619 704.003 Q59.9619 699.325 56.2698 696.587 Q52.5777 693.85 46.212 693.85 Q39.8781 693.85 36.186 696.587 Q32.4621 699.325 32.4621 704.003 M27.4968 704.003 Q27.4968 696.365 32.4621 692.004 Q37.4273 687.644 46.212 687.644 Q54.9649 687.644 59.9619 692.004 Q64.9272 696.365 64.9272 704.003 Q64.9272 711.674 59.9619 716.035 Q54.9649 720.363 46.212 720.363 Q37.4273 720.363 32.4621 716.035 Q27.4968 711.674 27.4968 704.003 Z" fill="#000000" fill-rule="evenodd" fill-opacity="1" /><path clip-path="url(#clip380)" d="M 0 0 M42.4881 648.304 L64.0042 648.304 L64.0042 654.16 L42.679 654.16 Q37.6183 654.16 35.1038 656.133 Q32.5894 658.107 32.5894 662.053 Q32.5894 666.796 35.6131 669.533 Q38.6368 672.27 43.8567 672.27 L64.0042 672.27 L64.0042 678.159 L28.3562 678.159 L28.3562 672.27 L33.8944 672.27 Q30.6797 670.17 29.0883 667.337 Q27.4968 664.472 27.4968 660.748 Q27.4968 654.606 31.3163 651.455 Q35.1038 648.304 42.4881 648.304 Z" fill="#000000" fill-rule="evenodd" fill-opacity="1" /><path clip-path="url(#clip380)" d="M 0 0 M55.9197 635.126 L55.9197 628.411 L61.3942 628.411 L71.5793 633.631 L71.5793 637.736 L61.3942 635.126 L55.9197 635.126 Z" fill="#000000" fill-rule="evenodd" fill-opacity="1" /><path clip-path="url(#clip380)" d="M 0 0 M28.3562 599.383 L28.3562 593.176 L58.275 582.036 L28.3562 570.897 L28.3562 564.69 L64.0042 578.058 L64.0042 586.015 L28.3562 599.383 Z" fill="#000000" fill-rule="evenodd" fill-opacity="1" /><path clip-path="url(#clip380)" d="M 0 0 M32.4621 542.792 Q32.4621 547.503 36.1542 550.24 Q39.8145 552.977 46.212 552.977 Q52.6095 552.977 56.3017 550.272 Q59.9619 547.534 59.9619 542.792 Q59.9619 538.113 56.2698 535.376 Q52.5777 532.639 46.212 532.639 Q39.8781 532.639 36.186 535.376 Q32.4621 538.113 32.4621 542.792 M27.4968 542.792 Q27.4968 535.153 32.4621 530.793 Q37.4273 526.432 46.212 526.432 Q54.9649 526.432 59.9619 530.793 Q64.9272 535.153 64.9272 542.792 Q64.9272 550.463 59.9619 554.823 Q54.9649 559.152 46.212 559.152 Q37.4273 559.152 32.4621 554.823 Q27.4968 550.463 27.4968 542.792 Z" fill="#000000" fill-rule="evenodd" fill-opacity="1" /><path clip-path="url(#clip380)" d="M 0 0 M14.479 516.724 L14.479 510.868 L64.0042 510.868 L64.0042 516.724 L14.479 516.724 Z" fill="#000000" fill-rule="evenodd" fill-opacity="1" /><path clip-path="url(#clip380)" d="M 0 0 M43.0928 457.364 Q43.0928 460.133 45.4481 461.725 Q47.8034 463.284 52.0048 463.284 Q56.1425 463.284 58.5296 461.725 Q60.885 460.133 60.885 457.364 Q60.885 454.659 58.5296 453.099 Q56.1425 451.508 52.0048 451.508 Q47.8353 451.508 45.48 453.099 Q43.0928 454.659 43.0928 457.364 M39.0506 457.364 Q39.0506 452.335 42.5517 449.375 Q46.0529 446.415 52.0048 446.415 Q57.9567 446.415 61.4579 449.407 Q64.9272 452.367 64.9272 457.364 Q64.9272 462.457 61.4579 465.417 Q57.9567 468.377 52.0048 468.377 Q46.021 468.377 42.5517 465.417 Q39.0506 462.425 39.0506 457.364 M19.667 490.211 Q19.667 492.948 22.0542 494.54 Q24.4095 496.099 28.5472 496.099 Q32.7485 496.099 35.1038 494.54 Q37.4592 492.98 37.4592 490.211 Q37.4592 487.442 35.1038 485.883 Q32.7485 484.291 28.5472 484.291 Q24.4413 484.291 22.0542 485.883 Q19.667 487.474 19.667 490.211 M15.6248 461.47 L15.6248 456.377 L64.9272 486.105 L64.9272 491.198 L15.6248 461.47 M15.6248 490.211 Q15.6248 485.182 19.1259 482.19 Q22.5952 479.199 28.5472 479.199 Q34.5628 479.199 38.0321 482.19 Q41.5014 485.15 41.5014 490.211 Q41.5014 495.272 38.0321 498.232 Q34.5309 501.16 28.5472 501.16 Q22.6271 501.16 19.1259 498.2 Q15.6248 495.24 15.6248 490.211 Z" fill="#000000" fill-rule="evenodd" fill-opacity="1" /><path clip-path="url(#clip380)" d="M 0 0 M159.604 43.6931 L159.604 65.8515 L172.729 65.8515 Q179.332 65.8515 182.492 63.1374 Q185.692 60.3828 185.692 54.752 Q185.692 49.0808 182.492 46.4072 Q179.332 43.6931 172.729 43.6931 L159.604 43.6931 M159.604 18.8205 L159.604 37.0496 L171.716 37.0496 Q177.712 37.0496 180.628 34.8216 Q183.586 32.5531 183.586 27.935 Q183.586 23.3575 180.628 21.089 Q177.712 18.8205 171.716 18.8205 L159.604 18.8205 M151.421 12.096 L172.324 12.096 Q181.682 12.096 186.745 15.9849 Q191.809 19.8737 191.809 27.0438 Q191.809 32.5936 189.216 35.8748 Q186.624 39.156 181.601 39.9662 Q187.636 41.2625 190.958 45.3944 Q194.32 49.4858 194.32 55.6432 Q194.32 63.745 188.811 68.1605 Q183.302 72.576 173.134 72.576 L151.421 72.576 L151.421 12.096 Z" fill="#000000" fill-rule="evenodd" fill-opacity="1" /><path clip-path="url(#clip380)" d="M 0 0 M207.243 54.671 L207.243 27.2059 L214.696 27.2059 L214.696 54.3874 Q214.696 60.8284 217.208 64.0691 Q219.72 67.2693 224.743 67.2693 Q230.779 67.2693 234.262 63.421 Q237.787 59.5726 237.787 52.9291 L237.787 27.2059 L245.24 27.2059 L245.24 72.576 L237.787 72.576 L237.787 65.6084 Q235.073 69.7404 231.467 71.7658 Q227.902 73.7508 223.163 73.7508 Q215.345 73.7508 211.294 68.8897 Q207.243 64.0286 207.243 54.671 M225.998 26.1121 L225.998 26.1121 Z" fill="#000000" fill-rule="evenodd" fill-opacity="1" /><path clip-path="url(#clip380)" d="M 0 0 M260.593 27.2059 L268.047 27.2059 L268.047 72.576 L260.593 72.576 L260.593 27.2059 M260.593 9.54393 L268.047 9.54393 L268.047 18.9825 L260.593 18.9825 L260.593 9.54393 Z" fill="#000000" fill-rule="evenodd" fill-opacity="1" /><path clip-path="url(#clip380)" d="M 0 0 M283.643 9.54393 L291.097 9.54393 L291.097 72.576 L283.643 72.576 L283.643 9.54393 Z" fill="#000000" fill-rule="evenodd" fill-opacity="1" /><path clip-path="url(#clip380)" d="M 0 0 M336.548 34.0924 L336.548 9.54393 L344.001 9.54393 L344.001 72.576 L336.548 72.576 L336.548 65.7705 Q334.198 69.8214 330.593 71.8063 Q327.028 73.7508 322.005 73.7508 Q313.782 73.7508 308.596 67.1883 Q303.452 60.6258 303.452 49.9314 Q303.452 39.2371 308.596 32.6746 Q313.782 26.1121 322.005 26.1121 Q327.028 26.1121 330.593 28.0971 Q334.198 30.0415 336.548 34.0924 M311.148 49.9314 Q311.148 58.1548 314.511 62.8538 Q317.913 67.5124 323.828 67.5124 Q329.742 67.5124 333.145 62.8538 Q336.548 58.1548 336.548 49.9314 Q336.548 41.7081 333.145 37.0496 Q329.742 32.3505 323.828 32.3505 Q317.913 32.3505 314.511 37.0496 Q311.148 41.7081 311.148 49.9314 Z" fill="#000000" fill-rule="evenodd" fill-opacity="1" /><path clip-path="url(#clip380)" d="M 0 0 M359.354 27.2059 L366.808 27.2059 L366.808 72.576 L359.354 72.576 L359.354 27.2059 M359.354 9.54393 L366.808 9.54393 L366.808 18.9825 L359.354 18.9825 L359.354 9.54393 Z" fill="#000000" fill-rule="evenodd" fill-opacity="1" /><path clip-path="url(#clip380)" d="M 0 0 M420.118 45.1919 L420.118 72.576 L412.664 72.576 L412.664 45.4349 Q412.664 38.994 410.153 35.7938 Q407.641 32.5936 402.618 32.5936 Q396.582 32.5936 393.098 36.4419 Q389.615 40.2903 389.615 46.9338 L389.615 72.576 L382.12 72.576 L382.12 27.2059 L389.615 27.2059 L389.615 34.2544 Q392.288 30.163 395.893 28.1376 Q399.539 26.1121 404.279 26.1121 Q412.097 26.1121 416.107 30.9732 Q420.118 35.7938 420.118 45.1919 Z" fill="#000000" fill-rule="evenodd" fill-opacity="1" /><path clip-path="url(#clip380)" d="M 0 0 M464.84 49.3643 Q464.84 41.2625 461.478 36.8065 Q458.156 32.3505 452.12 32.3505 Q446.125 32.3505 442.762 36.8065 Q439.441 41.2625 439.441 49.3643 Q439.441 57.4256 442.762 61.8816 Q446.125 66.3376 452.12 66.3376 Q458.156 66.3376 461.478 61.8816 Q464.84 57.4256 464.84 49.3643 M472.293 66.9452 Q472.293 78.5308 467.149 84.1616 Q462.004 89.8329 451.391 89.8329 Q447.461 89.8329 443.978 89.2252 Q440.494 88.6581 437.213 87.4428 L437.213 80.1917 Q440.494 81.9741 443.694 82.8248 Q446.894 83.6755 450.216 83.6755 Q457.548 83.6755 461.194 79.8271 Q464.84 76.0193 464.84 68.282 L464.84 64.5957 Q462.531 68.6061 458.925 70.5911 Q455.32 72.576 450.297 72.576 Q441.952 72.576 436.848 66.2161 Q431.744 59.8562 431.744 49.3643 Q431.744 38.832 436.848 32.472 Q441.952 26.1121 450.297 26.1121 Q455.32 26.1121 458.925 28.0971 Q462.531 30.082 464.84 34.0924 L464.84 27.2059 L472.293 27.2059 L472.293 66.9452 Z" fill="#000000" fill-rule="evenodd" fill-opacity="1" /><path clip-path="url(#clip380)" d="M 0 0 M514.018 27.2059 L521.471 27.2059 L521.471 72.576 L514.018 72.576 L514.018 27.2059 M514.018 9.54393 L521.471 9.54393 L521.471 18.9825 L514.018 18.9825 L514.018 9.54393 Z" fill="#000000" fill-rule="evenodd" fill-opacity="1" /><path clip-path="url(#clip380)" d="M 0 0 M574.781 45.1919 L574.781 72.576 L567.328 72.576 L567.328 45.4349 Q567.328 38.994 564.816 35.7938 Q562.305 32.5936 557.281 32.5936 Q551.246 32.5936 547.762 36.4419 Q544.278 40.2903 544.278 46.9338 L544.278 72.576 L536.784 72.576 L536.784 27.2059 L544.278 27.2059 L544.278 34.2544 Q546.952 30.163 550.557 28.1376 Q554.203 26.1121 558.942 26.1121 Q566.761 26.1121 570.771 30.9732 Q574.781 35.7938 574.781 45.1919 Z" fill="#000000" fill-rule="evenodd" fill-opacity="1" /><path clip-path="url(#clip380)" d="M 0 0 M612.617 9.54393 L612.617 15.7418 L605.487 15.7418 Q601.477 15.7418 599.897 17.3622 Q598.358 18.9825 598.358 23.1955 L598.358 27.2059 L610.632 27.2059 L610.632 32.9987 L598.358 32.9987 L598.358 72.576 L590.863 72.576 L590.863 32.9987 L583.734 32.9987 L583.734 27.2059 L590.863 27.2059 L590.863 24.0462 Q590.863 16.471 594.388 13.0277 Q597.912 9.54393 605.568 9.54393 L612.617 9.54393 Z" fill="#000000" fill-rule="evenodd" fill-opacity="1" /><path clip-path="url(#clip380)" d="M 0 0 M618.855 27.2059 L626.309 27.2059 L626.309 72.576 L618.855 72.576 L618.855 27.2059 M618.855 9.54393 L626.309 9.54393 L626.309 18.9825 L618.855 18.9825 L618.855 9.54393 Z" fill="#000000" fill-rule="evenodd" fill-opacity="1" /><path clip-path="url(#clip380)" d="M 0 0 M641.905 9.54393 L649.358 9.54393 L649.358 72.576 L641.905 72.576 L641.905 9.54393 Z" fill="#000000" fill-rule="evenodd" fill-opacity="1" /><path clip-path="url(#clip380)" d="M 0 0 M672.327 14.324 L672.327 27.2059 L687.68 27.2059 L687.68 32.9987 L672.327 32.9987 L672.327 57.6282 Q672.327 63.1779 673.826 64.7578 Q675.365 66.3376 680.024 66.3376 L687.68 66.3376 L687.68 72.576 L680.024 72.576 Q671.395 72.576 668.114 69.3758 Q664.833 66.1351 664.833 57.6282 L664.833 32.9987 L659.364 32.9987 L659.364 27.2059 L664.833 27.2059 L664.833 14.324 L672.327 14.324 Z" fill="#000000" fill-rule="evenodd" fill-opacity="1" /><path clip-path="url(#clip380)" d="M 0 0 M723.774 34.1734 Q722.518 33.4443 721.019 33.1202 Q719.561 32.7556 717.778 32.7556 Q711.459 32.7556 708.056 36.8875 Q704.694 40.9789 704.694 48.6757 L704.694 72.576 L697.2 72.576 L697.2 27.2059 L704.694 27.2059 L704.694 34.2544 Q707.043 30.1225 710.811 28.1376 Q714.578 26.1121 719.966 26.1121 Q720.735 26.1121 721.667 26.2337 Q722.599 26.3147 723.733 26.5172 L723.774 34.1734 Z" fill="#000000" fill-rule="evenodd" fill-opacity="1" /><path clip-path="url(#clip380)" d="M 0 0 M752.211 49.7694 Q743.177 49.7694 739.694 51.8354 Q736.21 53.9013 736.21 58.8839 Q736.21 62.8538 738.802 65.2034 Q741.436 67.5124 745.932 67.5124 Q752.13 67.5124 755.857 63.1374 Q759.624 58.7219 759.624 51.4303 L759.624 49.7694 L752.211 49.7694 M767.078 46.6907 L767.078 72.576 L759.624 72.576 L759.624 65.6895 Q757.072 69.8214 753.264 71.8063 Q749.456 73.7508 743.947 73.7508 Q736.98 73.7508 732.848 69.8619 Q728.756 65.9325 728.756 59.3701 Q728.756 51.7138 733.86 47.825 Q739.005 43.9361 749.173 43.9361 L759.624 43.9361 L759.624 43.2069 Q759.624 38.0623 756.221 35.2672 Q752.859 32.4315 746.742 32.4315 Q742.853 32.4315 739.167 33.3632 Q735.481 34.295 732.078 36.1584 L732.078 29.2718 Q736.169 27.692 740.018 26.9223 Q743.866 26.1121 747.512 26.1121 Q757.356 26.1121 762.217 31.2163 Q767.078 36.3204 767.078 46.6907 Z" fill="#000000" fill-rule="evenodd" fill-opacity="1" /><path clip-path="url(#clip380)" d="M 0 0 M789.803 14.324 L789.803 27.2059 L805.156 27.2059 L805.156 32.9987 L789.803 32.9987 L789.803 57.6282 Q789.803 63.1779 791.302 64.7578 Q792.842 66.3376 797.5 66.3376 L805.156 66.3376 L805.156 72.576 L797.5 72.576 Q788.872 72.576 785.59 69.3758 Q782.309 66.1351 782.309 57.6282 L782.309 32.9987 L776.84 32.9987 L776.84 27.2059 L782.309 27.2059 L782.309 14.324 L789.803 14.324 Z" fill="#000000" fill-rule="evenodd" fill-opacity="1" /><path clip-path="url(#clip380)" d="M 0 0 M814.959 27.2059 L822.413 27.2059 L822.413 72.576 L814.959 72.576 L814.959 27.2059 M814.959 9.54393 L822.413 9.54393 L822.413 18.9825 L814.959 18.9825 L814.959 9.54393 Z" fill="#000000" fill-rule="evenodd" fill-opacity="1" /><path clip-path="url(#clip380)" d="M 0 0 M855.59 32.4315 Q849.595 32.4315 846.111 37.1306 Q842.627 41.7891 842.627 49.9314 Q842.627 58.0738 846.07 62.7728 Q849.554 67.4314 855.59 67.4314 Q861.545 67.4314 865.029 62.7323 Q868.512 58.0333 868.512 49.9314 Q868.512 41.8701 865.029 37.1711 Q861.545 32.4315 855.59 32.4315 M855.59 26.1121 Q865.312 26.1121 870.862 32.4315 Q876.412 38.7509 876.412 49.9314 Q876.412 61.0714 870.862 67.4314 Q865.312 73.7508 855.59 73.7508 Q845.827 73.7508 840.278 67.4314 Q834.768 61.0714 834.768 49.9314 Q834.768 38.7509 840.278 32.4315 Q845.827 26.1121 855.59 26.1121 Z" fill="#000000" fill-rule="evenodd" fill-opacity="1" /><path clip-path="url(#clip380)" d="M 0 0 M926.481 45.1919 L926.481 72.576 L919.027 72.576 L919.027 45.4349 Q919.027 38.994 916.516 35.7938 Q914.004 32.5936 908.981 32.5936 Q902.945 32.5936 899.461 36.4419 Q895.978 40.2903 895.978 46.9338 L895.978 72.576 L888.483 72.576 L888.483 27.2059 L895.978 27.2059 L895.978 34.2544 Q898.651 30.163 902.256 28.1376 Q905.902 26.1121 910.642 26.1121 Q918.46 26.1121 922.47 30.9732 Q926.481 35.7938 926.481 45.1919 Z" fill="#000000" fill-rule="evenodd" fill-opacity="1" /><path clip-path="url(#clip380)" d="M 0 0 M990.688 9.54393 L990.688 15.7418 L983.558 15.7418 Q979.548 15.7418 977.968 17.3622 Q976.428 18.9825 976.428 23.1955 L976.428 27.2059 L988.703 27.2059 L988.703 32.9987 L976.428 32.9987 L976.428 72.576 L968.934 72.576 L968.934 32.9987 L961.805 32.9987 L961.805 27.2059 L968.934 27.2059 L968.934 24.0462 Q968.934 16.471 972.459 13.0277 Q975.983 9.54393 983.639 9.54393 L990.688 9.54393 Z" fill="#000000" fill-rule="evenodd" fill-opacity="1" /><path clip-path="url(#clip380)" d="M 0 0 M1014.51 32.4315 Q1008.51 32.4315 1005.03 37.1306 Q1001.54 41.7891 1001.54 49.9314 Q1001.54 58.0738 1004.99 62.7728 Q1008.47 67.4314 1014.51 67.4314 Q1020.46 67.4314 1023.95 62.7323 Q1027.43 58.0333 1027.43 49.9314 Q1027.43 41.8701 1023.95 37.1711 Q1020.46 32.4315 1014.51 32.4315 M1014.51 26.1121 Q1024.23 26.1121 1029.78 32.4315 Q1035.33 38.7509 1035.33 49.9314 Q1035.33 61.0714 1029.78 67.4314 Q1024.23 73.7508 1014.51 73.7508 Q1004.74 73.7508 999.195 67.4314 Q993.685 61.0714 993.685 49.9314 Q993.685 38.7509 999.195 32.4315 Q1004.74 26.1121 1014.51 26.1121 Z" fill="#000000" fill-rule="evenodd" fill-opacity="1" /><path clip-path="url(#clip380)" d="M 0 0 M1073.97 34.1734 Q1072.72 33.4443 1071.22 33.1202 Q1069.76 32.7556 1067.98 32.7556 Q1061.66 32.7556 1058.26 36.8875 Q1054.89 40.9789 1054.89 48.6757 L1054.89 72.576 L1047.4 72.576 L1047.4 27.2059 L1054.89 27.2059 L1054.89 34.2544 Q1057.24 30.1225 1061.01 28.1376 Q1064.78 26.1121 1070.17 26.1121 Q1070.94 26.1121 1071.87 26.2337 Q1072.8 26.3147 1073.93 26.5172 L1073.97 34.1734 Z" fill="#000000" fill-rule="evenodd" fill-opacity="1" /><path clip-path="url(#clip380)" d="M 0 0 M1128.78 49.7694 Q1119.75 49.7694 1116.27 51.8354 Q1112.78 53.9013 1112.78 58.8839 Q1112.78 62.8538 1115.37 65.2034 Q1118.01 67.5124 1122.5 67.5124 Q1128.7 67.5124 1132.43 63.1374 Q1136.2 58.7219 1136.2 51.4303 L1136.2 49.7694 L1128.78 49.7694 M1143.65 46.6907 L1143.65 72.576 L1136.2 72.576 L1136.2 65.6895 Q1133.64 69.8214 1129.84 71.8063 Q1126.03 73.7508 1120.52 73.7508 Q1113.55 73.7508 1109.42 69.8619 Q1105.33 65.9325 1105.33 59.3701 Q1105.33 51.7138 1110.43 47.825 Q1115.58 43.9361 1125.74 43.9361 L1136.2 43.9361 L1136.2 43.2069 Q1136.2 38.0623 1132.79 35.2672 Q1129.43 32.4315 1123.31 32.4315 Q1119.43 32.4315 1115.74 33.3632 Q1112.05 34.295 1108.65 36.1584 L1108.65 29.2718 Q1112.74 27.692 1116.59 26.9223 Q1120.44 26.1121 1124.08 26.1121 Q1133.93 26.1121 1138.79 31.2163 Q1143.65 36.3204 1143.65 46.6907 Z" fill="#000000" fill-rule="evenodd" fill-opacity="1" /><path clip-path="url(#clip380)" d="M 0 0 M1192.58 65.7705 L1192.58 89.8329 L1185.09 89.8329 L1185.09 27.2059 L1192.58 27.2059 L1192.58 34.0924 Q1194.93 30.0415 1198.5 28.0971 Q1202.1 26.1121 1207.09 26.1121 Q1215.35 26.1121 1220.5 32.6746 Q1225.68 39.2371 1225.68 49.9314 Q1225.68 60.6258 1220.5 67.1883 Q1215.35 73.7508 1207.09 73.7508 Q1202.1 73.7508 1198.5 71.8063 Q1194.93 69.8214 1192.58 65.7705 M1217.94 49.9314 Q1217.94 41.7081 1214.54 37.0496 Q1211.18 32.3505 1205.26 32.3505 Q1199.35 32.3505 1195.95 37.0496 Q1192.58 41.7081 1192.58 49.9314 Q1192.58 58.1548 1195.95 62.8538 Q1199.35 67.5124 1205.26 67.5124 Q1211.18 67.5124 1214.54 62.8538 Q1217.94 58.1548 1217.94 49.9314 Z" fill="#000000" fill-rule="evenodd" fill-opacity="1" /><path clip-path="url(#clip380)" d="M 0 0 M1237.27 54.671 L1237.27 27.2059 L1244.72 27.2059 L1244.72 54.3874 Q1244.72 60.8284 1247.23 64.0691 Q1249.74 67.2693 1254.77 67.2693 Q1260.8 67.2693 1264.29 63.421 Q1267.81 59.5726 1267.81 52.9291 L1267.81 27.2059 L1275.26 27.2059 L1275.26 72.576 L1267.81 72.576 L1267.81 65.6084 Q1265.1 69.7404 1261.49 71.7658 Q1257.93 73.7508 1253.19 73.7508 Q1245.37 73.7508 1241.32 68.8897 Q1237.27 64.0286 1237.27 54.671 M1256.02 26.1121 L1256.02 26.1121 Z" fill="#000000" fill-rule="evenodd" fill-opacity="1" /><path clip-path="url(#clip380)" d="M 0 0 M1290.62 9.54393 L1298.07 9.54393 L1298.07 72.576 L1290.62 72.576 L1290.62 9.54393 Z" fill="#000000" fill-rule="evenodd" fill-opacity="1" /><path clip-path="url(#clip380)" d="M 0 0 M1342.59 28.5427 L1342.59 35.5912 Q1339.43 33.9709 1336.03 33.1607 Q1332.62 32.3505 1328.98 32.3505 Q1323.43 32.3505 1320.63 34.0519 Q1317.88 35.7533 1317.88 39.156 Q1317.88 41.7486 1319.86 43.2475 Q1321.85 44.7058 1327.84 46.0426 L1330.4 46.6097 Q1338.34 48.3111 1341.66 51.4303 Q1345.02 54.509 1345.02 60.0587 Q1345.02 66.3781 1340 70.0644 Q1335.01 73.7508 1326.26 73.7508 Q1322.62 73.7508 1318.65 73.0216 Q1314.72 72.3329 1310.34 70.9151 L1310.34 63.2184 Q1314.48 65.3654 1318.49 66.4591 Q1322.5 67.5124 1326.43 67.5124 Q1331.69 67.5124 1334.53 65.73 Q1337.36 63.9071 1337.36 60.6258 Q1337.36 57.5877 1335.3 55.9673 Q1333.27 54.3469 1326.35 52.8481 L1323.75 52.2405 Q1316.83 50.7821 1313.75 47.7845 Q1310.67 44.7463 1310.67 39.4801 Q1310.67 33.0797 1315.21 29.5959 Q1319.74 26.1121 1328.09 26.1121 Q1332.22 26.1121 1335.87 26.7198 Q1339.51 27.3274 1342.59 28.5427 Z" fill="#000000" fill-rule="evenodd" fill-opacity="1" /><path clip-path="url(#clip380)" d="M 0 0 M1395.7 48.0275 L1395.7 51.6733 L1361.43 51.6733 Q1361.91 59.3701 1366.04 63.421 Q1370.22 67.4314 1377.63 67.4314 Q1381.92 67.4314 1385.93 66.3781 Q1389.99 65.3249 1393.96 63.2184 L1393.96 70.267 Q1389.94 71.9684 1385.73 72.8596 Q1381.52 73.7508 1377.18 73.7508 Q1366.33 73.7508 1359.97 67.4314 Q1353.65 61.1119 1353.65 50.3365 Q1353.65 39.1965 1359.64 32.6746 Q1365.68 26.1121 1375.89 26.1121 Q1385.04 26.1121 1390.35 32.0264 Q1395.7 37.9003 1395.7 48.0275 M1388.24 45.84 Q1388.16 39.7232 1384.8 36.0774 Q1381.48 32.4315 1375.97 32.4315 Q1369.73 32.4315 1365.96 35.9558 Q1362.24 39.4801 1361.67 45.8805 L1388.24 45.84 Z" fill="#000000" fill-rule="evenodd" fill-opacity="1" /><path clip-path="url(#clip380)" d="M 0 0 M1451.88 32.4315 Q1445.89 32.4315 1442.4 37.1306 Q1438.92 41.7891 1438.92 49.9314 Q1438.92 58.0738 1442.36 62.7728 Q1445.85 67.4314 1451.88 67.4314 Q1457.84 67.4314 1461.32 62.7323 Q1464.81 58.0333 1464.81 49.9314 Q1464.81 41.8701 1461.32 37.1711 Q1457.84 32.4315 1451.88 32.4315 M1451.88 26.1121 Q1461.61 26.1121 1467.16 32.4315 Q1472.7 38.7509 1472.7 49.9314 Q1472.7 61.0714 1467.16 67.4314 Q1461.61 73.7508 1451.88 73.7508 Q1442.12 73.7508 1436.57 67.4314 Q1431.06 61.0714 1431.06 49.9314 Q1431.06 38.7509 1436.57 32.4315 Q1442.12 26.1121 1451.88 26.1121 Z" fill="#000000" fill-rule="evenodd" fill-opacity="1" /><path clip-path="url(#clip380)" d="M 0 0 M1508.03 9.54393 L1508.03 15.7418 L1500.9 15.7418 Q1496.89 15.7418 1495.31 17.3622 Q1493.77 18.9825 1493.77 23.1955 L1493.77 27.2059 L1506.04 27.2059 L1506.04 32.9987 L1493.77 32.9987 L1493.77 72.576 L1486.28 72.576 L1486.28 32.9987 L1479.15 32.9987 L1479.15 27.2059 L1486.28 27.2059 L1486.28 24.0462 Q1486.28 16.471 1489.8 13.0277 Q1493.32 9.54393 1500.98 9.54393 L1508.03 9.54393 Z" fill="#000000" fill-rule="evenodd" fill-opacity="1" /><path clip-path="url(#clip380)" d="M 0 0 M1558.22 32.4315 Q1552.22 32.4315 1548.74 37.1306 Q1545.26 41.7891 1545.26 49.9314 Q1545.26 58.0738 1548.7 62.7728 Q1552.18 67.4314 1558.22 67.4314 Q1564.17 67.4314 1567.66 62.7323 Q1571.14 58.0333 1571.14 49.9314 Q1571.14 41.8701 1567.66 37.1711 Q1564.17 32.4315 1558.22 32.4315 M1558.22 26.1121 Q1567.94 26.1121 1573.49 32.4315 Q1579.04 38.7509 1579.04 49.9314 Q1579.04 61.0714 1573.49 67.4314 Q1567.94 73.7508 1558.22 73.7508 Q1548.46 73.7508 1542.91 67.4314 Q1537.4 61.0714 1537.4 49.9314 Q1537.4 38.7509 1542.91 32.4315 Q1548.46 26.1121 1558.22 26.1121 Z" fill="#000000" fill-rule="evenodd" fill-opacity="1" /><path clip-path="url(#clip380)" d="M 0 0 M1590.63 54.671 L1590.63 27.2059 L1598.08 27.2059 L1598.08 54.3874 Q1598.08 60.8284 1600.59 64.0691 Q1603.1 67.2693 1608.13 67.2693 Q1614.16 67.2693 1617.65 63.421 Q1621.17 59.5726 1621.17 52.9291 L1621.17 27.2059 L1628.62 27.2059 L1628.62 72.576 L1621.17 72.576 L1621.17 65.6084 Q1618.46 69.7404 1614.85 71.7658 Q1611.29 73.7508 1606.55 73.7508 Q1598.73 73.7508 1594.68 68.8897 Q1590.63 64.0286 1590.63 54.671 M1609.38 26.1121 L1609.38 26.1121 Z" fill="#000000" fill-rule="evenodd" fill-opacity="1" /><path clip-path="url(#clip380)" d="M 0 0 M1651.35 14.324 L1651.35 27.2059 L1666.7 27.2059 L1666.7 32.9987 L1651.35 32.9987 L1651.35 57.6282 Q1651.35 63.1779 1652.85 64.7578 Q1654.39 66.3376 1659.05 66.3376 L1666.7 66.3376 L1666.7 72.576 L1659.05 72.576 Q1650.42 72.576 1647.14 69.3758 Q1643.86 66.1351 1643.86 57.6282 L1643.86 32.9987 L1638.39 32.9987 L1638.39 27.2059 L1643.86 27.2059 L1643.86 14.324 L1651.35 14.324 Z" fill="#000000" fill-rule="evenodd" fill-opacity="1" /><path clip-path="url(#clip380)" d="M 0 0 M1706.36 34.0924 L1706.36 9.54393 L1713.81 9.54393 L1713.81 72.576 L1706.36 72.576 L1706.36 65.7705 Q1704.01 69.8214 1700.41 71.8063 Q1696.84 73.7508 1691.82 73.7508 Q1683.59 73.7508 1678.41 67.1883 Q1673.27 60.6258 1673.27 49.9314 Q1673.27 39.2371 1678.41 32.6746 Q1683.59 26.1121 1691.82 26.1121 Q1696.84 26.1121 1700.41 28.0971 Q1704.01 30.0415 1706.36 34.0924 M1680.96 49.9314 Q1680.96 58.1548 1684.32 62.8538 Q1687.73 67.5124 1693.64 67.5124 Q1699.56 67.5124 1702.96 62.8538 Q1706.36 58.1548 1706.36 49.9314 Q1706.36 41.7081 1702.96 37.0496 Q1699.56 32.3505 1693.64 32.3505 Q1687.73 32.3505 1684.32 37.0496 Q1680.96 41.7081 1680.96 49.9314 Z" fill="#000000" fill-rule="evenodd" fill-opacity="1" /><path clip-path="url(#clip380)" d="M 0 0 M1746.75 32.4315 Q1740.75 32.4315 1737.27 37.1306 Q1733.79 41.7891 1733.79 49.9314 Q1733.79 58.0738 1737.23 62.7728 Q1740.71 67.4314 1746.75 67.4314 Q1752.7 67.4314 1756.19 62.7323 Q1759.67 58.0333 1759.67 49.9314 Q1759.67 41.8701 1756.19 37.1711 Q1752.7 32.4315 1746.75 32.4315 M1746.75 26.1121 Q1756.47 26.1121 1762.02 32.4315 Q1767.57 38.7509 1767.57 49.9314 Q1767.57 61.0714 1762.02 67.4314 Q1756.47 73.7508 1746.75 73.7508 Q1736.99 73.7508 1731.44 67.4314 Q1725.93 61.0714 1725.93 49.9314 Q1725.93 38.7509 1731.44 32.4315 Q1736.99 26.1121 1746.75 26.1121 Z" fill="#000000" fill-rule="evenodd" fill-opacity="1" /><path clip-path="url(#clip380)" d="M 0 0 M1797.51 32.4315 Q1791.51 32.4315 1788.03 37.1306 Q1784.54 41.7891 1784.54 49.9314 Q1784.54 58.0738 1787.99 62.7728 Q1791.47 67.4314 1797.51 67.4314 Q1803.46 67.4314 1806.94 62.7323 Q1810.43 58.0333 1810.43 49.9314 Q1810.43 41.8701 1806.94 37.1711 Q1803.46 32.4315 1797.51 32.4315 M1797.51 26.1121 Q1807.23 26.1121 1812.78 32.4315 Q1818.33 38.7509 1818.33 49.9314 Q1818.33 61.0714 1812.78 67.4314 Q1807.23 73.7508 1797.51 73.7508 Q1787.74 73.7508 1782.19 67.4314 Q1776.68 61.0714 1776.68 49.9314 Q1776.68 38.7509 1782.19 32.4315 Q1787.74 26.1121 1797.51 26.1121 Z" fill="#000000" fill-rule="evenodd" fill-opacity="1" /><path clip-path="url(#clip380)" d="M 0 0 M1856.97 34.1734 Q1855.72 33.4443 1854.22 33.1202 Q1852.76 32.7556 1850.98 32.7556 Q1844.66 32.7556 1841.26 36.8875 Q1837.89 40.9789 1837.89 48.6757 L1837.89 72.576 L1830.4 72.576 L1830.4 27.2059 L1837.89 27.2059 L1837.89 34.2544 Q1840.24 30.1225 1844.01 28.1376 Q1847.78 26.1121 1853.17 26.1121 Q1853.94 26.1121 1854.87 26.2337 Q1855.8 26.3147 1856.93 26.5172 L1856.97 34.1734 Z" fill="#000000" fill-rule="evenodd" fill-opacity="1" /><path clip-path="url(#clip380)" d="M 0 0 M1923.81 28.9478 L1923.81 35.9153 Q1920.65 34.1734 1917.45 33.3227 Q1914.29 32.4315 1911.05 32.4315 Q1903.8 32.4315 1899.79 37.0496 Q1895.78 41.6271 1895.78 49.9314 Q1895.78 58.2358 1899.79 62.8538 Q1903.8 67.4314 1911.05 67.4314 Q1914.29 67.4314 1917.45 66.5807 Q1920.65 65.6895 1923.81 63.9476 L1923.81 70.8341 Q1920.69 72.2924 1917.33 73.0216 Q1914.01 73.7508 1910.24 73.7508 Q1899.99 73.7508 1893.96 67.3098 Q1887.92 60.8689 1887.92 49.9314 Q1887.92 38.832 1894 32.472 Q1900.12 26.1121 1910.73 26.1121 Q1914.17 26.1121 1917.45 26.8413 Q1920.73 27.5299 1923.81 28.9478 Z" fill="#000000" fill-rule="evenodd" fill-opacity="1" /><path clip-path="url(#clip380)" d="M 0 0 M1954.36 32.4315 Q1948.36 32.4315 1944.88 37.1306 Q1941.39 41.7891 1941.39 49.9314 Q1941.39 58.0738 1944.84 62.7728 Q1948.32 67.4314 1954.36 67.4314 Q1960.31 67.4314 1963.8 62.7323 Q1967.28 58.0333 1967.28 49.9314 Q1967.28 41.8701 1963.8 37.1711 Q1960.31 32.4315 1954.36 32.4315 M1954.36 26.1121 Q1964.08 26.1121 1969.63 32.4315 Q1975.18 38.7509 1975.18 49.9314 Q1975.18 61.0714 1969.63 67.4314 Q1964.08 73.7508 1954.36 73.7508 Q1944.59 73.7508 1939.04 67.4314 Q1933.54 61.0714 1933.54 49.9314 Q1933.54 38.7509 1939.04 32.4315 Q1944.59 26.1121 1954.36 26.1121 Z" fill="#000000" fill-rule="evenodd" fill-opacity="1" /><path clip-path="url(#clip380)" d="M 0 0 M2025.25 45.1919 L2025.25 72.576 L2017.79 72.576 L2017.79 45.4349 Q2017.79 38.994 2015.28 35.7938 Q2012.77 32.5936 2007.75 32.5936 Q2001.71 32.5936 1998.23 36.4419 Q1994.74 40.2903 1994.74 46.9338 L1994.74 72.576 L1987.25 72.576 L1987.25 27.2059 L1994.74 27.2059 L1994.74 34.2544 Q1997.42 30.163 2001.02 28.1376 Q2004.67 26.1121 2009.41 26.1121 Q2017.23 26.1121 2021.24 30.9732 Q2025.25 35.7938 2025.25 45.1919 Z" fill="#000000" fill-rule="evenodd" fill-opacity="1" /><path clip-path="url(#clip380)" d="M 0 0 M2072.77 28.9478 L2072.77 35.9153 Q2069.61 34.1734 2066.41 33.3227 Q2063.25 32.4315 2060 32.4315 Q2052.75 32.4315 2048.74 37.0496 Q2044.73 41.6271 2044.73 49.9314 Q2044.73 58.2358 2048.74 62.8538 Q2052.75 67.4314 2060 67.4314 Q2063.25 67.4314 2066.41 66.5807 Q2069.61 65.6895 2072.77 63.9476 L2072.77 70.8341 Q2069.65 72.2924 2066.28 73.0216 Q2062.96 73.7508 2059.19 73.7508 Q2048.95 73.7508 2042.91 67.3098 Q2036.87 60.8689 2036.87 49.9314 Q2036.87 38.832 2042.95 32.472 Q2049.07 26.1121 2059.68 26.1121 Q2063.12 26.1121 2066.41 26.8413 Q2069.69 27.5299 2072.77 28.9478 Z" fill="#000000" fill-rule="evenodd" fill-opacity="1" /><path clip-path="url(#clip380)" d="M 0 0 M2124.54 48.0275 L2124.54 51.6733 L2090.27 51.6733 Q2090.75 59.3701 2094.88 63.421 Q2099.06 67.4314 2106.47 67.4314 Q2110.76 67.4314 2114.77 66.3781 Q2118.82 65.3249 2122.79 63.2184 L2122.79 70.267 Q2118.78 71.9684 2114.57 72.8596 Q2110.36 73.7508 2106.02 73.7508 Q2095.17 73.7508 2088.81 67.4314 Q2082.49 61.1119 2082.49 50.3365 Q2082.49 39.1965 2088.48 32.6746 Q2094.52 26.1121 2104.73 26.1121 Q2113.88 26.1121 2119.19 32.0264 Q2124.54 37.9003 2124.54 48.0275 M2117.08 45.84 Q2117 39.7232 2113.64 36.0774 Q2110.32 32.4315 2104.81 32.4315 Q2098.57 32.4315 2094.8 35.9558 Q2091.08 39.4801 2090.51 45.8805 L2117.08 45.84 Z" fill="#000000" fill-rule="evenodd" fill-opacity="1" /><path clip-path="url(#clip380)" d="M 0 0 M2174.48 45.1919 L2174.48 72.576 L2167.03 72.576 L2167.03 45.4349 Q2167.03 38.994 2164.52 35.7938 Q2162.01 32.5936 2156.98 32.5936 Q2150.95 32.5936 2147.46 36.4419 Q2143.98 40.2903 2143.98 46.9338 L2143.98 72.576 L2136.49 72.576 L2136.49 27.2059 L2143.98 27.2059 L2143.98 34.2544 Q2146.65 30.163 2150.26 28.1376 Q2153.9 26.1121 2158.64 26.1121 Q2166.46 26.1121 2170.47 30.9732 Q2174.48 35.7938 2174.48 45.1919 Z" fill="#000000" fill-rule="evenodd" fill-opacity="1" /><path clip-path="url(#clip380)" d="M 0 0 M2196.72 14.324 L2196.72 27.2059 L2212.08 27.2059 L2212.08 32.9987 L2196.72 32.9987 L2196.72 57.6282 Q2196.72 63.1779 2198.22 64.7578 Q2199.76 66.3376 2204.42 66.3376 L2212.08 66.3376 L2212.08 72.576 L2204.42 72.576 Q2195.79 72.576 2192.51 69.3758 Q2189.23 66.1351 2189.23 57.6282 L2189.23 32.9987 L2183.76 32.9987 L2183.76 27.2059 L2189.23 27.2059 L2189.23 14.324 L2196.72 14.324 Z" fill="#000000" fill-rule="evenodd" fill-opacity="1" /><path clip-path="url(#clip380)" d="M 0 0 M2248.17 34.1734 Q2246.91 33.4443 2245.41 33.1202 Q2243.96 32.7556 2242.17 32.7556 Q2235.85 32.7556 2232.45 36.8875 Q2229.09 40.9789 2229.09 48.6757 L2229.09 72.576 L2221.6 72.576 L2221.6 27.2059 L2229.09 27.2059 L2229.09 34.2544 Q2231.44 30.1225 2235.21 28.1376 Q2238.97 26.1121 2244.36 26.1121 Q2245.13 26.1121 2246.06 26.2337 Q2246.99 26.3147 2248.13 26.5172 L2248.17 34.1734 Z" fill="#000000" fill-rule="evenodd" fill-opacity="1" /><path clip-path="url(#clip380)" d="M 0 0 M2276.61 49.7694 Q2267.57 49.7694 2264.09 51.8354 Q2260.61 53.9013 2260.61 58.8839 Q2260.61 62.8538 2263.2 65.2034 Q2265.83 67.5124 2270.33 67.5124 Q2276.53 67.5124 2280.25 63.1374 Q2284.02 58.7219 2284.02 51.4303 L2284.02 49.7694 L2276.61 49.7694 M2291.47 46.6907 L2291.47 72.576 L2284.02 72.576 L2284.02 65.6895 Q2281.47 69.8214 2277.66 71.8063 Q2273.85 73.7508 2268.34 73.7508 Q2261.38 73.7508 2257.24 69.8619 Q2253.15 65.9325 2253.15 59.3701 Q2253.15 51.7138 2258.26 47.825 Q2263.4 43.9361 2273.57 43.9361 L2284.02 43.9361 L2284.02 43.2069 Q2284.02 38.0623 2280.62 35.2672 Q2277.25 32.4315 2271.14 32.4315 Q2267.25 32.4315 2263.56 33.3632 Q2259.88 34.295 2256.47 36.1584 L2256.47 29.2718 Q2260.57 27.692 2264.41 26.9223 Q2268.26 26.1121 2271.91 26.1121 Q2281.75 26.1121 2286.61 31.2163 Q2291.47 36.3204 2291.47 46.6907 Z" fill="#000000" fill-rule="evenodd" fill-opacity="1" /><path clip-path="url(#clip380)" d="M 0 0 M2314.2 14.324 L2314.2 27.2059 L2329.55 27.2059 L2329.55 32.9987 L2314.2 32.9987 L2314.2 57.6282 Q2314.2 63.1779 2315.7 64.7578 Q2317.24 66.3376 2321.9 66.3376 L2329.55 66.3376 L2329.55 72.576 L2321.9 72.576 Q2313.27 72.576 2309.99 69.3758 Q2306.7 66.1351 2306.7 57.6282 L2306.7 32.9987 L2301.24 32.9987 L2301.24 27.2059 L2306.7 27.2059 L2306.7 14.324 L2314.2 14.324 Z" fill="#000000" fill-rule="evenodd" fill-opacity="1" /><path clip-path="url(#clip380)" d="M 0 0 M2339.36 27.2059 L2346.81 27.2059 L2346.81 72.576 L2339.36 72.576 L2339.36 27.2059 M2339.36 9.54393 L2346.81 9.54393 L2346.81 18.9825 L2339.36 18.9825 L2339.36 9.54393 Z" fill="#000000" fill-rule="evenodd" fill-opacity="1" /><path clip-path="url(#clip380)" d="M 0 0 M2379.99 32.4315 Q2373.99 32.4315 2370.51 37.1306 Q2367.02 41.7891 2367.02 49.9314 Q2367.02 58.0738 2370.47 62.7728 Q2373.95 67.4314 2379.99 67.4314 Q2385.94 67.4314 2389.42 62.7323 Q2392.91 58.0333 2392.91 49.9314 Q2392.91 41.8701 2389.42 37.1711 Q2385.94 32.4315 2379.99 32.4315 M2379.99 26.1121 Q2389.71 26.1121 2395.26 32.4315 Q2400.81 38.7509 2400.81 49.9314 Q2400.81 61.0714 2395.26 67.4314 Q2389.71 73.7508 2379.99 73.7508 Q2370.22 73.7508 2364.67 67.4314 Q2359.16 61.0714 2359.16 49.9314 Q2359.16 38.7509 2364.67 32.4315 Q2370.22 26.1121 2379.99 26.1121 Z" fill="#000000" fill-rule="evenodd" fill-opacity="1" /><path clip-path="url(#clip380)" d="M 0 0 M2450.88 45.1919 L2450.88 72.576 L2443.42 72.576 L2443.42 45.4349 Q2443.42 38.994 2440.91 35.7938 Q2438.4 32.5936 2433.38 32.5936 Q2427.34 32.5936 2423.86 36.4419 Q2420.37 40.2903 2420.37 46.9338 L2420.37 72.576 L2412.88 72.576 L2412.88 27.2059 L2420.37 27.2059 L2420.37 34.2544 Q2423.05 30.163 2426.65 28.1376 Q2430.3 26.1121 2435.04 26.1121 Q2442.86 26.1121 2446.87 30.9732 Q2450.88 35.7938 2450.88 45.1919 Z" fill="#000000" fill-rule="evenodd" fill-opacity="1" /><polyline clip-path="url(#clip382)" style="stroke:#009af9; stroke-width:4; stroke-opacity:1; fill:none" points="
  309.067,1386.4 705.9,1386.4 705.9,160.256 1896.4,160.256 1896.4,1386.4 2293.23,1386.4 
  "/>
<polyline clip-path="url(#clip382)" style="stroke:#e26f46; stroke-width:4; stroke-opacity:1; fill:none" points="
  309.067,1386.4 348.75,1386.4 388.434,1386.4 428.117,1386.4 467.8,1386.4 507.483,1386.4 547.167,1386.4 586.85,1386.4 626.533,1386.4 666.216,1386.4 
  705.9,1372.55 745.583,1245.98 785.266,1106.81 824.95,998.151 864.633,899.696 904.316,812.804 943.999,736.12 983.683,668.458 1023.37,608.75 1063.05,556.052 
  1102.73,509.544 1142.42,468.502 1182.1,432.283 1221.78,400.313 1261.47,372.101 1301.15,347.21 1340.83,325.249 1380.52,305.864 1420.2,288.752 1459.88,273.65 
  1499.57,260.327 1539.25,248.572 1578.93,238.196 1618.62,229.034 1658.3,220.946 1697.98,213.811 1737.67,207.52 1777.35,201.972 1817.03,197.076 1856.71,183.982 
  1896.4,258.942 1936.08,392.778 1975.76,509.539 2015.45,612.58 2055.13,703.5 2094.81,783.734 2134.5,854.548 2174.18,917.042 2213.86,972.192 2253.55,1020.86 
  2293.23,1063.81 
  "/>
<polyline clip-path="url(#clip382)" style="stroke:#3da44d; stroke-width:4; stroke-opacity:1; fill:none" points="
  309.067,1386.4 348.75,1386.4 388.434,1386.4 428.117,1386.4 467.8,1386.4 507.483,1386.4 547.167,1386.4 586.85,1386.4 626.533,1386.4 666.216,1386.4 
  705.9,1386.36 745.583,1145.04 785.266,928.827 824.95,758.811 864.633,626.419 904.316,523.304 943.999,442.999 983.683,380.448 1023.37,331.75 1063.05,293.812 
  1102.73,264.27 1142.42,241.265 1182.1,223.336 1221.78,209.386 1261.47,198.527 1301.15,190.053 1340.83,183.46 1380.52,178.335 1420.2,174.336 1459.88,171.212 
  1499.57,168.787 1539.25,166.909 1578.93,165.442 1618.62,164.288 1658.3,163.391 1697.98,162.699 1737.67,162.166 1777.35,161.747 1817.03,161.417 1856.71,161.161 
  1896.4,162.916 1936.08,402.526 1975.76,622.412 2015.45,791.411 2055.13,923.035 2094.81,1025.51 2134.5,1105.34 2174.18,1167.51 2213.86,1215.93 2253.55,1253.63 
  2293.23,1283 
  "/>
<polyline clip-path="url(#clip382)" style="stroke:#c271d2; stroke-width:4; stroke-opacity:1; fill:none" points="
  309.067,1386.4 348.75,1386.4 388.434,1386.4 428.117,1386.4 467.8,1386.4 507.483,1386.4 547.167,1386.4 586.85,1386.4 626.533,1386.4 666.216,1386.4 
  705.9,1376.57 745.583,903.912 785.266,611.308 824.95,433.831 864.633,326.191 904.316,260.9 943.999,221.29 983.683,197.285 1023.37,182.709 1063.05,173.878 
  1102.73,168.512 1142.42,165.273 1182.1,163.289 1221.78,162.105 1261.47,161.374 1301.15,160.929 1340.83,160.674 1380.52,160.508 1420.2,160.403 1459.88,160.348 
  1499.57,160.318 1539.25,160.291 1578.93,160.273 1618.62,160.267 1658.3,160.267 1697.98,160.265 1737.67,160.261 1777.35,160.259 1817.03,160.258 1856.71,160.258 
  1896.4,190.489 1936.08,662.269 1975.76,947.188 2015.45,1120 2055.13,1224.82 2094.81,1288.4 2134.5,1326.96 2174.18,1350.34 2213.86,1364.53 2253.55,1373.13 
  2293.23,1378.35 
  "/>
<path clip-path="url(#clip380)" d="
M740.564 1379.86 L1347.89 1379.86 L1347.89 1016.98 L740.564 1016.98  Z
  " fill="#ffffff" fill-rule="evenodd" fill-opacity="1"/>
<polyline clip-path="url(#clip380)" style="stroke:#000000; stroke-width:4; stroke-opacity:1; fill:none" points="
  740.564,1379.86 1347.89,1379.86 1347.89,1016.98 740.564,1016.98 740.564,1379.86 
  "/>
<path clip-path="url(#clip380)" d="M 0 0 M868.711 1094.74 L855.517 1060.18 L860.401 1060.18 L871.35 1089.27 L882.322 1060.18 L887.183 1060.18 L874.012 1094.74 L868.711 1094.74 Z" fill="#000000" fill-rule="evenodd" fill-opacity="1" /><path clip-path="url(#clip380)" d="M 0 0 M910.54 1080.71 L910.54 1082.79 L890.956 1082.79 Q891.234 1087.19 893.595 1089.5 Q895.979 1091.8 900.216 1091.8 Q902.669 1091.8 904.961 1091.19 Q907.276 1090.59 909.544 1089.39 L909.544 1093.42 Q907.253 1094.39 904.845 1094.9 Q902.438 1095.41 899.961 1095.41 Q893.757 1095.41 890.123 1091.8 Q886.512 1088.19 886.512 1082.03 Q886.512 1075.66 889.938 1071.94 Q893.387 1068.19 899.22 1068.19 Q904.452 1068.19 907.484 1071.57 Q910.54 1074.92 910.54 1080.71 M906.28 1079.46 Q906.234 1075.96 904.313 1073.88 Q902.415 1071.8 899.266 1071.8 Q895.702 1071.8 893.549 1073.81 Q891.419 1075.82 891.095 1079.48 L906.28 1079.46 Z" fill="#000000" fill-rule="evenodd" fill-opacity="1" /><path clip-path="url(#clip380)" d="M 0 0 M939.081 1079.09 L939.081 1094.74 L934.822 1094.74 L934.822 1079.23 Q934.822 1075.55 933.387 1073.72 Q931.951 1071.89 929.081 1071.89 Q925.632 1071.89 923.641 1074.09 Q921.651 1076.29 921.651 1080.08 L921.651 1094.74 L917.368 1094.74 L917.368 1068.81 L921.651 1068.81 L921.651 1072.84 Q923.178 1070.5 925.239 1069.34 Q927.322 1068.19 930.03 1068.19 Q934.498 1068.19 936.789 1070.96 Q939.081 1073.72 939.081 1079.09 Z" fill="#000000" fill-rule="evenodd" fill-opacity="1" /><path clip-path="url(#clip380)" d="M 0 0 M951.789 1061.45 L951.789 1068.81 L960.562 1068.81 L960.562 1072.12 L951.789 1072.12 L951.789 1086.19 Q951.789 1089.37 952.646 1090.27 Q953.525 1091.17 956.187 1091.17 L960.562 1091.17 L960.562 1094.74 L956.187 1094.74 Q951.257 1094.74 949.382 1092.91 Q947.507 1091.06 947.507 1086.19 L947.507 1072.12 L944.382 1072.12 L944.382 1068.81 L947.507 1068.81 L947.507 1061.45 L951.789 1061.45 Z" fill="#000000" fill-rule="evenodd" fill-opacity="1" /><path clip-path="url(#clip380)" d="M 0 0 M966.164 1068.81 L970.424 1068.81 L970.424 1094.74 L966.164 1094.74 L966.164 1068.81 M966.164 1058.72 L970.424 1058.72 L970.424 1064.11 L966.164 1064.11 L966.164 1058.72 Z" fill="#000000" fill-rule="evenodd" fill-opacity="1" /><path clip-path="url(#clip380)" d="M 0 0 M979.335 1058.72 L983.595 1058.72 L983.595 1094.74 L979.335 1094.74 L979.335 1058.72 Z" fill="#000000" fill-rule="evenodd" fill-opacity="1" /><path clip-path="url(#clip380)" d="M 0 0 M1004.29 1081.7 Q999.127 1081.7 997.136 1082.88 Q995.146 1084.07 995.146 1086.91 Q995.146 1089.18 996.627 1090.52 Q998.132 1091.84 1000.7 1091.84 Q1004.24 1091.84 1006.37 1089.34 Q1008.53 1086.82 1008.53 1082.65 L1008.53 1081.7 L1004.29 1081.7 M1012.78 1079.94 L1012.78 1094.74 L1008.53 1094.74 L1008.53 1090.8 Q1007.07 1093.16 1004.89 1094.3 Q1002.71 1095.41 999.567 1095.41 Q995.585 1095.41 993.224 1093.19 Q990.886 1090.94 990.886 1087.19 Q990.886 1082.82 993.803 1080.59 Q996.743 1078.37 1002.55 1078.37 L1008.53 1078.37 L1008.53 1077.95 Q1008.53 1075.01 1006.58 1073.42 Q1004.66 1071.8 1001.16 1071.8 Q998.942 1071.8 996.835 1072.33 Q994.729 1072.86 992.784 1073.93 L992.784 1069.99 Q995.122 1069.09 997.322 1068.65 Q999.521 1068.19 1001.6 1068.19 Q1007.23 1068.19 1010.01 1071.1 Q1012.78 1074.02 1012.78 1079.94 Z" fill="#000000" fill-rule="evenodd" fill-opacity="1" /><path clip-path="url(#clip380)" d="M 0 0 M1025.77 1061.45 L1025.77 1068.81 L1034.54 1068.81 L1034.54 1072.12 L1025.77 1072.12 L1025.77 1086.19 Q1025.77 1089.37 1026.63 1090.27 Q1027.51 1091.17 1030.17 1091.17 L1034.54 1091.17 L1034.54 1094.74 L1030.17 1094.74 Q1025.24 1094.74 1023.36 1092.91 Q1021.49 1091.06 1021.49 1086.19 L1021.49 1072.12 L1018.36 1072.12 L1018.36 1068.81 L1021.49 1068.81 L1021.49 1061.45 L1025.77 1061.45 Z" fill="#000000" fill-rule="evenodd" fill-opacity="1" /><path clip-path="url(#clip380)" d="M 0 0 M1040.15 1068.81 L1044.4 1068.81 L1044.4 1094.74 L1040.15 1094.74 L1040.15 1068.81 M1040.15 1058.72 L1044.4 1058.72 L1044.4 1064.11 L1040.15 1064.11 L1040.15 1058.72 Z" fill="#000000" fill-rule="evenodd" fill-opacity="1" /><path clip-path="url(#clip380)" d="M 0 0 M1063.36 1071.8 Q1059.94 1071.8 1057.95 1074.48 Q1055.96 1077.14 1055.96 1081.8 Q1055.96 1086.45 1057.92 1089.13 Q1059.91 1091.8 1063.36 1091.8 Q1066.77 1091.8 1068.76 1089.11 Q1070.75 1086.43 1070.75 1081.8 Q1070.75 1077.19 1068.76 1074.5 Q1066.77 1071.8 1063.36 1071.8 M1063.36 1068.19 Q1068.92 1068.19 1072.09 1071.8 Q1075.26 1075.41 1075.26 1081.8 Q1075.26 1088.16 1072.09 1091.8 Q1068.92 1095.41 1063.36 1095.41 Q1057.78 1095.41 1054.61 1091.8 Q1051.46 1088.16 1051.46 1081.8 Q1051.46 1075.41 1054.61 1071.8 Q1057.78 1068.19 1063.36 1068.19 Z" fill="#000000" fill-rule="evenodd" fill-opacity="1" /><path clip-path="url(#clip380)" d="M 0 0 M1103.87 1079.09 L1103.87 1094.74 L1099.61 1094.74 L1099.61 1079.23 Q1099.61 1075.55 1098.18 1073.72 Q1096.74 1071.89 1093.87 1071.89 Q1090.42 1071.89 1088.43 1074.09 Q1086.44 1076.29 1086.44 1080.08 L1086.44 1094.74 L1082.16 1094.74 L1082.16 1068.81 L1086.44 1068.81 L1086.44 1072.84 Q1087.97 1070.5 1090.03 1069.34 Q1092.11 1068.19 1094.82 1068.19 Q1099.29 1068.19 1101.58 1070.96 Q1103.87 1073.72 1103.87 1079.09 Z" fill="#000000" fill-rule="evenodd" fill-opacity="1" /><path clip-path="url(#clip380)" d="M 0 0 M1144.01 1078.53 Q1145.52 1079.04 1146.93 1080.71 Q1148.36 1082.38 1149.8 1085.29 L1154.54 1094.74 L1149.52 1094.74 L1145.1 1085.87 Q1143.39 1082.4 1141.77 1081.26 Q1140.17 1080.13 1137.39 1080.13 L1132.3 1080.13 L1132.3 1094.74 L1127.62 1094.74 L1127.62 1060.18 L1138.18 1060.18 Q1144.1 1060.18 1147.02 1062.65 Q1149.94 1065.13 1149.94 1070.13 Q1149.94 1073.39 1148.41 1075.55 Q1146.9 1077.7 1144.01 1078.53 M1132.3 1064.02 L1132.3 1076.29 L1138.18 1076.29 Q1141.56 1076.29 1143.27 1074.74 Q1145.01 1073.16 1145.01 1070.13 Q1145.01 1067.1 1143.27 1065.57 Q1141.56 1064.02 1138.18 1064.02 L1132.3 1064.02 Z" fill="#000000" fill-rule="evenodd" fill-opacity="1" /><path clip-path="url(#clip380)" d="M 0 0 M1171.12 1081.7 Q1165.95 1081.7 1163.96 1082.88 Q1161.97 1084.07 1161.97 1086.91 Q1161.97 1089.18 1163.45 1090.52 Q1164.96 1091.84 1167.53 1091.84 Q1171.07 1091.84 1173.2 1089.34 Q1175.35 1086.82 1175.35 1082.65 L1175.35 1081.7 L1171.12 1081.7 M1179.61 1079.94 L1179.61 1094.74 L1175.35 1094.74 L1175.35 1090.8 Q1173.89 1093.16 1171.72 1094.3 Q1169.54 1095.41 1166.39 1095.41 Q1162.41 1095.41 1160.05 1093.19 Q1157.71 1090.94 1157.71 1087.19 Q1157.71 1082.82 1160.63 1080.59 Q1163.57 1078.37 1169.38 1078.37 L1175.35 1078.37 L1175.35 1077.95 Q1175.35 1075.01 1173.41 1073.42 Q1171.49 1071.8 1167.99 1071.8 Q1165.77 1071.8 1163.66 1072.33 Q1161.56 1072.86 1159.61 1073.93 L1159.61 1069.99 Q1161.95 1069.09 1164.15 1068.65 Q1166.35 1068.19 1168.43 1068.19 Q1174.06 1068.19 1176.83 1071.1 Q1179.61 1074.02 1179.61 1079.94 Z" fill="#000000" fill-rule="evenodd" fill-opacity="1" /><path clip-path="url(#clip380)" d="M 0 0 M1192.6 1061.45 L1192.6 1068.81 L1201.37 1068.81 L1201.37 1072.12 L1192.6 1072.12 L1192.6 1086.19 Q1192.6 1089.37 1193.45 1090.27 Q1194.33 1091.17 1197 1091.17 L1201.37 1091.17 L1201.37 1094.74 L1197 1094.74 Q1192.07 1094.74 1190.19 1092.91 Q1188.32 1091.06 1188.32 1086.19 L1188.32 1072.12 L1185.19 1072.12 L1185.19 1068.81 L1188.32 1068.81 L1188.32 1061.45 L1192.6 1061.45 Z" fill="#000000" fill-rule="evenodd" fill-opacity="1" /><path clip-path="url(#clip380)" d="M 0 0 M1229.15 1080.71 L1229.15 1082.79 L1209.57 1082.79 Q1209.84 1087.19 1212.2 1089.5 Q1214.59 1091.8 1218.82 1091.8 Q1221.28 1091.8 1223.57 1091.19 Q1225.89 1090.59 1228.15 1089.39 L1228.15 1093.42 Q1225.86 1094.39 1223.45 1094.9 Q1221.05 1095.41 1218.57 1095.41 Q1212.37 1095.41 1208.73 1091.8 Q1205.12 1088.19 1205.12 1082.03 Q1205.12 1075.66 1208.55 1071.94 Q1212 1068.19 1217.83 1068.19 Q1223.06 1068.19 1226.09 1071.57 Q1229.15 1074.92 1229.15 1080.71 M1224.89 1079.46 Q1224.84 1075.96 1222.92 1073.88 Q1221.02 1071.8 1217.88 1071.8 Q1214.31 1071.8 1212.16 1073.81 Q1210.03 1075.82 1209.7 1079.48 L1224.89 1079.46 Z" fill="#000000" fill-rule="evenodd" fill-opacity="1" /><polyline clip-path="url(#clip380)" style="stroke:#009af9; stroke-width:4; stroke-opacity:1; fill:none" points="
  763.933,1137.94 904.148,1137.94 
  "/>
<path clip-path="url(#clip380)" d="M 0 0 M943.535 1123.83 Q938.443 1123.83 935.433 1127.62 Q932.447 1131.42 932.447 1137.97 Q932.447 1144.5 935.433 1148.29 Q938.443 1152.09 943.535 1152.09 Q948.628 1152.09 951.591 1148.29 Q954.577 1144.5 954.577 1137.97 Q954.577 1131.42 951.591 1127.62 Q948.628 1123.83 943.535 1123.83 M943.535 1120.03 Q950.804 1120.03 955.155 1124.92 Q959.507 1129.78 959.507 1137.97 Q959.507 1146.14 955.155 1151.03 Q950.804 1155.89 943.535 1155.89 Q936.244 1155.89 931.869 1151.03 Q927.517 1146.17 927.517 1137.97 Q927.517 1129.78 931.869 1124.92 Q936.244 1120.03 943.535 1120.03 Z" fill="#000000" fill-rule="evenodd" fill-opacity="1" /><path clip-path="url(#clip380)" d="M 0 0 M966.197 1144.98 L966.197 1129.29 L970.456 1129.29 L970.456 1144.82 Q970.456 1148.5 971.891 1150.36 Q973.327 1152.18 976.197 1152.18 Q979.646 1152.18 981.637 1149.98 Q983.651 1147.79 983.651 1143.99 L983.651 1129.29 L987.91 1129.29 L987.91 1155.22 L983.651 1155.22 L983.651 1151.23 Q982.1 1153.6 980.04 1154.75 Q978.003 1155.89 975.294 1155.89 Q970.827 1155.89 968.512 1153.11 Q966.197 1150.33 966.197 1144.98 M976.915 1128.67 L976.915 1128.67 Z" fill="#000000" fill-rule="evenodd" fill-opacity="1" /><path clip-path="url(#clip380)" d="M 0 0 M1000.9 1121.93 L1000.9 1129.29 L1009.67 1129.29 L1009.67 1132.6 L1000.9 1132.6 L1000.9 1146.67 Q1000.9 1149.85 1001.75 1150.75 Q1002.63 1151.65 1005.29 1151.65 L1009.67 1151.65 L1009.67 1155.22 L1005.29 1155.22 Q1000.36 1155.22 998.489 1153.39 Q996.614 1151.54 996.614 1146.67 L996.614 1132.6 L993.489 1132.6 L993.489 1129.29 L996.614 1129.29 L996.614 1121.93 L1000.9 1121.93 Z" fill="#000000" fill-rule="evenodd" fill-opacity="1" /><path clip-path="url(#clip380)" d="M 0 0 M1032.33 1133.23 L1032.33 1119.2 L1036.59 1119.2 L1036.59 1155.22 L1032.33 1155.22 L1032.33 1151.33 Q1030.99 1153.64 1028.93 1154.78 Q1026.89 1155.89 1024.02 1155.89 Q1019.32 1155.89 1016.36 1152.14 Q1013.42 1148.39 1013.42 1142.28 Q1013.42 1136.17 1016.36 1132.42 Q1019.32 1128.67 1024.02 1128.67 Q1026.89 1128.67 1028.93 1129.8 Q1030.99 1130.91 1032.33 1133.23 M1017.82 1142.28 Q1017.82 1146.98 1019.74 1149.66 Q1021.68 1152.32 1025.06 1152.32 Q1028.44 1152.32 1030.39 1149.66 Q1032.33 1146.98 1032.33 1142.28 Q1032.33 1137.58 1030.39 1134.92 Q1028.44 1132.23 1025.06 1132.23 Q1021.68 1132.23 1019.74 1134.92 Q1017.82 1137.58 1017.82 1142.28 Z" fill="#000000" fill-rule="evenodd" fill-opacity="1" /><path clip-path="url(#clip380)" d="M 0 0 M1055.41 1132.28 Q1051.98 1132.28 1049.99 1134.96 Q1048 1137.62 1048 1142.28 Q1048 1146.93 1049.97 1149.61 Q1051.96 1152.28 1055.41 1152.28 Q1058.81 1152.28 1060.8 1149.59 Q1062.79 1146.91 1062.79 1142.28 Q1062.79 1137.67 1060.8 1134.98 Q1058.81 1132.28 1055.41 1132.28 M1055.41 1128.67 Q1060.97 1128.67 1064.14 1132.28 Q1067.31 1135.89 1067.31 1142.28 Q1067.31 1148.64 1064.14 1152.28 Q1060.97 1155.89 1055.41 1155.89 Q1049.83 1155.89 1046.66 1152.28 Q1043.51 1148.64 1043.51 1142.28 Q1043.51 1135.89 1046.66 1132.28 Q1049.83 1128.67 1055.41 1128.67 Z" fill="#000000" fill-rule="evenodd" fill-opacity="1" /><path clip-path="url(#clip380)" d="M 0 0 M1084.41 1132.28 Q1080.99 1132.28 1079 1134.96 Q1077.01 1137.62 1077.01 1142.28 Q1077.01 1146.93 1078.97 1149.61 Q1080.96 1152.28 1084.41 1152.28 Q1087.82 1152.28 1089.81 1149.59 Q1091.8 1146.91 1091.8 1142.28 Q1091.8 1137.67 1089.81 1134.98 Q1087.82 1132.28 1084.41 1132.28 M1084.41 1128.67 Q1089.97 1128.67 1093.14 1132.28 Q1096.31 1135.89 1096.31 1142.28 Q1096.31 1148.64 1093.14 1152.28 Q1089.97 1155.89 1084.41 1155.89 Q1078.84 1155.89 1075.66 1152.28 Q1072.52 1148.64 1072.52 1142.28 Q1072.52 1135.89 1075.66 1132.28 Q1078.84 1128.67 1084.41 1128.67 Z" fill="#000000" fill-rule="evenodd" fill-opacity="1" /><path clip-path="url(#clip380)" d="M 0 0 M1118.4 1133.27 Q1117.68 1132.86 1116.82 1132.67 Q1115.99 1132.46 1114.97 1132.46 Q1111.36 1132.46 1109.41 1134.82 Q1107.49 1137.16 1107.49 1141.56 L1107.49 1155.22 L1103.21 1155.22 L1103.21 1129.29 L1107.49 1129.29 L1107.49 1133.32 Q1108.84 1130.96 1110.99 1129.82 Q1113.14 1128.67 1116.22 1128.67 Q1116.66 1128.67 1117.19 1128.73 Q1117.72 1128.78 1118.37 1128.9 L1118.4 1133.27 Z" fill="#000000" fill-rule="evenodd" fill-opacity="1" /><polyline clip-path="url(#clip380)" style="stroke:#e26f46; stroke-width:4; stroke-opacity:1; fill:none" points="
  763.933,1198.42 904.148,1198.42 
  "/>
<path clip-path="url(#clip380)" d="M 0 0 M939.461 1184.21 Q935.85 1184.21 934.021 1187.78 Q932.216 1191.32 932.216 1198.45 Q932.216 1205.56 934.021 1209.12 Q935.85 1212.66 939.461 1212.66 Q943.095 1212.66 944.901 1209.12 Q946.73 1205.56 946.73 1198.45 Q946.73 1191.32 944.901 1187.78 Q943.095 1184.21 939.461 1184.21 M939.461 1180.51 Q945.271 1180.51 948.327 1185.12 Q951.405 1189.7 951.405 1198.45 Q951.405 1207.18 948.327 1211.78 Q945.271 1216.37 939.461 1216.37 Q933.651 1216.37 930.572 1211.78 Q927.517 1207.18 927.517 1198.45 Q927.517 1189.7 930.572 1185.12 Q933.651 1180.51 939.461 1180.51 Z" fill="#000000" fill-rule="evenodd" fill-opacity="1" /><path clip-path="url(#clip380)" d="M 0 0 M959.623 1209.82 L964.507 1209.82 L964.507 1215.7 L959.623 1215.7 L959.623 1209.82 Z" fill="#000000" fill-rule="evenodd" fill-opacity="1" /><path clip-path="url(#clip380)" d="M 0 0 M978.72 1211.76 L995.039 1211.76 L995.039 1215.7 L973.095 1215.7 L973.095 1211.76 Q975.757 1209.01 980.341 1204.38 Q984.947 1199.72 986.128 1198.38 Q988.373 1195.86 989.252 1194.12 Q990.155 1192.36 990.155 1190.67 Q990.155 1187.92 988.211 1186.18 Q986.29 1184.45 983.188 1184.45 Q980.989 1184.45 978.535 1185.21 Q976.104 1185.97 973.327 1187.53 L973.327 1182.8 Q976.151 1181.67 978.604 1181.09 Q981.058 1180.51 983.095 1180.51 Q988.465 1180.51 991.66 1183.2 Q994.854 1185.88 994.854 1190.37 Q994.854 1192.5 994.044 1194.42 Q993.257 1196.32 991.151 1198.91 Q990.572 1199.59 987.47 1202.8 Q984.368 1206 978.72 1211.76 Z" fill="#000000" fill-rule="evenodd" fill-opacity="1" /><path clip-path="url(#clip380)" d="M 0 0 M1004.9 1181.14 L1023.26 1181.14 L1023.26 1185.07 L1009.18 1185.07 L1009.18 1193.54 Q1010.2 1193.2 1011.22 1193.03 Q1012.24 1192.85 1013.26 1192.85 Q1019.04 1192.85 1022.42 1196.02 Q1025.8 1199.19 1025.8 1204.61 Q1025.8 1210.19 1022.33 1213.29 Q1018.86 1216.37 1012.54 1216.37 Q1010.36 1216.37 1008.09 1216 Q1005.85 1215.63 1003.44 1214.89 L1003.44 1210.19 Q1005.53 1211.32 1007.75 1211.88 Q1009.97 1212.43 1012.45 1212.43 Q1016.45 1212.43 1018.79 1210.33 Q1021.13 1208.22 1021.13 1204.61 Q1021.13 1201 1018.79 1198.89 Q1016.45 1196.78 1012.45 1196.78 Q1010.57 1196.78 1008.7 1197.2 Q1006.84 1197.62 1004.9 1198.5 L1004.9 1181.14 Z" fill="#000000" fill-rule="evenodd" fill-opacity="1" /><polyline clip-path="url(#clip380)" style="stroke:#3da44d; stroke-width:4; stroke-opacity:1; fill:none" points="
  763.933,1258.9 904.148,1258.9 
  "/>
<path clip-path="url(#clip380)" d="M 0 0 M939.461 1244.69 Q935.85 1244.69 934.021 1248.26 Q932.216 1251.8 932.216 1258.93 Q932.216 1266.04 934.021 1269.6 Q935.85 1273.14 939.461 1273.14 Q943.095 1273.14 944.901 1269.6 Q946.73 1266.04 946.73 1258.93 Q946.73 1251.8 944.901 1248.26 Q943.095 1244.69 939.461 1244.69 M939.461 1240.99 Q945.271 1240.99 948.327 1245.6 Q951.405 1250.18 951.405 1258.93 Q951.405 1267.66 948.327 1272.26 Q945.271 1276.85 939.461 1276.85 Q933.651 1276.85 930.572 1272.26 Q927.517 1267.66 927.517 1258.93 Q927.517 1250.18 930.572 1245.6 Q933.651 1240.99 939.461 1240.99 Z" fill="#000000" fill-rule="evenodd" fill-opacity="1" /><path clip-path="url(#clip380)" d="M 0 0 M959.623 1270.3 L964.507 1270.3 L964.507 1276.18 L959.623 1276.18 L959.623 1270.3 Z" fill="#000000" fill-rule="evenodd" fill-opacity="1" /><path clip-path="url(#clip380)" d="M 0 0 M974.739 1241.62 L993.095 1241.62 L993.095 1245.55 L979.021 1245.55 L979.021 1254.02 Q980.04 1253.68 981.058 1253.51 Q982.077 1253.33 983.095 1253.33 Q988.882 1253.33 992.262 1256.5 Q995.641 1259.67 995.641 1265.09 Q995.641 1270.67 992.169 1273.77 Q988.697 1276.85 982.378 1276.85 Q980.202 1276.85 977.933 1276.48 Q975.688 1276.11 973.28 1275.37 L973.28 1270.67 Q975.364 1271.8 977.586 1272.36 Q979.808 1272.91 982.285 1272.91 Q986.29 1272.91 988.627 1270.81 Q990.965 1268.7 990.965 1265.09 Q990.965 1261.48 988.627 1259.37 Q986.29 1257.26 982.285 1257.26 Q980.41 1257.26 978.535 1257.68 Q976.683 1258.1 974.739 1258.98 L974.739 1241.62 Z" fill="#000000" fill-rule="evenodd" fill-opacity="1" /><polyline clip-path="url(#clip380)" style="stroke:#c271d2; stroke-width:4; stroke-opacity:1; fill:none" points="
  763.933,1319.38 904.148,1319.38 
  "/>
<path clip-path="url(#clip380)" d="M 0 0 M928.188 1332.72 L935.827 1332.72 L935.827 1306.36 L927.517 1308.02 L927.517 1303.76 L935.781 1302.1 L940.456 1302.1 L940.456 1332.72 L948.095 1332.72 L948.095 1336.66 L928.188 1336.66 L928.188 1332.72 Z" fill="#000000" fill-rule="evenodd" fill-opacity="1" /><path clip-path="url(#clip380)" d="M 0 0 M957.54 1330.78 L962.424 1330.78 L962.424 1336.66 L957.54 1336.66 L957.54 1330.78 Z" fill="#000000" fill-rule="evenodd" fill-opacity="1" /><path clip-path="url(#clip380)" d="M 0 0 M982.609 1305.17 Q978.998 1305.17 977.169 1308.74 Q975.364 1312.28 975.364 1319.41 Q975.364 1326.52 977.169 1330.08 Q978.998 1333.62 982.609 1333.62 Q986.243 1333.62 988.049 1330.08 Q989.877 1326.52 989.877 1319.41 Q989.877 1312.28 988.049 1308.74 Q986.243 1305.17 982.609 1305.17 M982.609 1301.47 Q988.419 1301.47 991.475 1306.08 Q994.553 1310.66 994.553 1319.41 Q994.553 1328.14 991.475 1332.74 Q988.419 1337.33 982.609 1337.33 Q976.799 1337.33 973.72 1332.74 Q970.665 1328.14 970.665 1319.41 Q970.665 1310.66 973.72 1306.08 Q976.799 1301.47 982.609 1301.47 Z" fill="#000000" fill-rule="evenodd" fill-opacity="1" /></svg>
