<?xml version="1.0" encoding="utf-8"?>
<svg xmlns="http://www.w3.org/2000/svg" xmlns:xlink="http://www.w3.org/1999/xlink" width="600" height="400" viewBox="0 0 2400 1600">
<defs>
  <clipPath id="clip610">
    <rect x="0" y="0" width="2400" height="1600"/>
  </clipPath>
</defs>
<path clip-path="url(#clip610)" d="
M0 1600 L2400 1600 L2400 0 L0 0  Z
  " fill="#ffffff" fill-rule="evenodd" fill-opacity="1"/>
<defs>
  <clipPath id="clip611">
    <rect x="480" y="0" width="1681" height="1600"/>
  </clipPath>
</defs>
<path clip-path="url(#clip610)" d="
M205.121 1423.18 L2352.76 1423.18 L2352.76 47.2441 L205.121 47.2441  Z
  " fill="#ffffff" fill-rule="evenodd" fill-opacity="1"/>
<defs>
  <clipPath id="clip612">
    <rect x="205" y="47" width="2149" height="1377"/>
  </clipPath>
</defs>
<polyline clip-path="url(#clip612)" style="stroke:#000000; stroke-linecap:round; stroke-linejoin:round; stroke-width:2; stroke-opacity:0.1; fill:none" points="
  205.121,1423.18 205.121,47.2441 
  "/>
<polyline clip-path="url(#clip612)" style="stroke:#000000; stroke-linecap:round; stroke-linejoin:round; stroke-width:2; stroke-opacity:0.1; fill:none" points="
  732.364,1423.18 732.364,47.2441 
  "/>
<polyline clip-path="url(#clip612)" style="stroke:#000000; stroke-linecap:round; stroke-linejoin:round; stroke-width:2; stroke-opacity:0.1; fill:none" points="
  1259.61,1423.18 1259.61,47.2441 
  "/>
<polyline clip-path="url(#clip612)" style="stroke:#000000; stroke-linecap:round; stroke-linejoin:round; stroke-width:2; stroke-opacity:0.1; fill:none" points="
  1786.85,1423.18 1786.85,47.2441 
  "/>
<polyline clip-path="url(#clip612)" style="stroke:#000000; stroke-linecap:round; stroke-linejoin:round; stroke-width:2; stroke-opacity:0.1; fill:none" points="
  2314.09,1423.18 2314.09,47.2441 
  "/>
<polyline clip-path="url(#clip610)" style="stroke:#000000; stroke-linecap:round; stroke-linejoin:round; stroke-width:4; stroke-opacity:1; fill:none" points="
  205.121,1423.18 2352.76,1423.18 
  "/>
<polyline clip-path="url(#clip610)" style="stroke:#000000; stroke-linecap:round; stroke-linejoin:round; stroke-width:4; stroke-opacity:1; fill:none" points="
  205.121,1423.18 205.121,1404.28 
  "/>
<polyline clip-path="url(#clip610)" style="stroke:#000000; stroke-linecap:round; stroke-linejoin:round; stroke-width:4; stroke-opacity:1; fill:none" points="
  732.364,1423.18 732.364,1404.28 
  "/>
<polyline clip-path="url(#clip610)" style="stroke:#000000; stroke-linecap:round; stroke-linejoin:round; stroke-width:4; stroke-opacity:1; fill:none" points="
  1259.61,1423.18 1259.61,1404.28 
  "/>
<polyline clip-path="url(#clip610)" style="stroke:#000000; stroke-linecap:round; stroke-linejoin:round; stroke-width:4; stroke-opacity:1; fill:none" points="
  1786.85,1423.18 1786.85,1404.28 
  "/>
<polyline clip-path="url(#clip610)" style="stroke:#000000; stroke-linecap:round; stroke-linejoin:round; stroke-width:4; stroke-opacity:1; fill:none" points="
  2314.09,1423.18 2314.09,1404.28 
  "/>
<path clip-path="url(#clip610)" d="M182.505 1454.1 Q178.894 1454.1 177.066 1457.66 Q175.26 1461.2 175.26 1468.33 Q175.26 1475.44 177.066 1479.01 Q178.894 1482.55 182.505 1482.55 Q186.14 1482.55 187.945 1479.01 Q189.774 1475.44 189.774 1468.33 Q189.774 1461.2 187.945 1457.66 Q186.14 1454.1 182.505 1454.1 M182.505 1450.39 Q188.316 1450.39 191.371 1455 Q194.45 1459.58 194.45 1468.33 Q194.45 1477.06 191.371 1481.67 Q188.316 1486.25 182.505 1486.25 Q176.695 1486.25 173.617 1481.67 Q170.561 1477.06 170.561 1468.33 Q170.561 1459.58 173.617 1455 Q176.695 1450.39 182.505 1450.39 Z" fill="#000000" fill-rule="evenodd" fill-opacity="1" /><path clip-path="url(#clip610)" d="M202.667 1479.7 L207.552 1479.7 L207.552 1485.58 L202.667 1485.58 L202.667 1479.7 Z" fill="#000000" fill-rule="evenodd" fill-opacity="1" /><path clip-path="url(#clip610)" d="M227.737 1454.1 Q224.126 1454.1 222.297 1457.66 Q220.491 1461.2 220.491 1468.33 Q220.491 1475.44 222.297 1479.01 Q224.126 1482.55 227.737 1482.55 Q231.371 1482.55 233.176 1479.01 Q235.005 1475.44 235.005 1468.33 Q235.005 1461.2 233.176 1457.66 Q231.371 1454.1 227.737 1454.1 M227.737 1450.39 Q233.547 1450.39 236.602 1455 Q239.681 1459.58 239.681 1468.33 Q239.681 1477.06 236.602 1481.67 Q233.547 1486.25 227.737 1486.25 Q221.926 1486.25 218.848 1481.67 Q215.792 1477.06 215.792 1468.33 Q215.792 1459.58 218.848 1455 Q221.926 1450.39 227.737 1450.39 Z" fill="#000000" fill-rule="evenodd" fill-opacity="1" /><path clip-path="url(#clip610)" d="M704.1 1481.64 L720.419 1481.64 L720.419 1485.58 L698.475 1485.58 L698.475 1481.64 Q701.137 1478.89 705.72 1474.26 Q710.327 1469.61 711.507 1468.27 Q713.753 1465.74 714.632 1464.01 Q715.535 1462.25 715.535 1460.56 Q715.535 1457.8 713.591 1456.07 Q711.669 1454.33 708.567 1454.33 Q706.368 1454.33 703.915 1455.09 Q701.484 1455.86 698.706 1457.41 L698.706 1452.69 Q701.53 1451.55 703.984 1450.97 Q706.438 1450.39 708.475 1450.39 Q713.845 1450.39 717.04 1453.08 Q720.234 1455.77 720.234 1460.26 Q720.234 1462.39 719.424 1464.31 Q718.637 1466.2 716.53 1468.8 Q715.952 1469.47 712.85 1472.69 Q709.748 1475.88 704.1 1481.64 Z" fill="#000000" fill-rule="evenodd" fill-opacity="1" /><path clip-path="url(#clip610)" d="M730.234 1479.7 L735.118 1479.7 L735.118 1485.58 L730.234 1485.58 L730.234 1479.7 Z" fill="#000000" fill-rule="evenodd" fill-opacity="1" /><path clip-path="url(#clip610)" d="M745.35 1451.02 L763.706 1451.02 L763.706 1454.96 L749.632 1454.96 L749.632 1463.43 Q750.651 1463.08 751.669 1462.92 Q752.688 1462.73 753.706 1462.73 Q759.493 1462.73 762.873 1465.9 Q766.252 1469.08 766.252 1474.49 Q766.252 1480.07 762.78 1483.17 Q759.308 1486.25 752.988 1486.25 Q750.813 1486.25 748.544 1485.88 Q746.299 1485.51 743.891 1484.77 L743.891 1480.07 Q745.975 1481.2 748.197 1481.76 Q750.419 1482.32 752.896 1482.32 Q756.9 1482.32 759.238 1480.21 Q761.576 1478.1 761.576 1474.49 Q761.576 1470.88 759.238 1468.77 Q756.9 1466.67 752.896 1466.67 Q751.021 1466.67 749.146 1467.08 Q747.294 1467.5 745.35 1468.38 L745.35 1451.02 Z" fill="#000000" fill-rule="evenodd" fill-opacity="1" /><path clip-path="url(#clip610)" d="M1226.77 1451.02 L1245.13 1451.02 L1245.13 1454.96 L1231.05 1454.96 L1231.05 1463.43 Q1232.07 1463.08 1233.09 1462.92 Q1234.11 1462.73 1235.13 1462.73 Q1240.91 1462.73 1244.29 1465.9 Q1247.67 1469.08 1247.67 1474.49 Q1247.67 1480.07 1244.2 1483.17 Q1240.73 1486.25 1234.41 1486.25 Q1232.23 1486.25 1229.97 1485.88 Q1227.72 1485.51 1225.31 1484.77 L1225.31 1480.07 Q1227.4 1481.2 1229.62 1481.76 Q1231.84 1482.32 1234.32 1482.32 Q1238.32 1482.32 1240.66 1480.21 Q1243 1478.1 1243 1474.49 Q1243 1470.88 1240.66 1468.77 Q1238.32 1466.67 1234.32 1466.67 Q1232.44 1466.67 1230.57 1467.08 Q1228.72 1467.5 1226.77 1468.38 L1226.77 1451.02 Z" fill="#000000" fill-rule="evenodd" fill-opacity="1" /><path clip-path="url(#clip610)" d="M1256.89 1479.7 L1261.77 1479.7 L1261.77 1485.58 L1256.89 1485.58 L1256.89 1479.7 Z" fill="#000000" fill-rule="evenodd" fill-opacity="1" /><path clip-path="url(#clip610)" d="M1281.96 1454.1 Q1278.34 1454.1 1276.52 1457.66 Q1274.71 1461.2 1274.71 1468.33 Q1274.71 1475.44 1276.52 1479.01 Q1278.34 1482.55 1281.96 1482.55 Q1285.59 1482.55 1287.4 1479.01 Q1289.22 1475.44 1289.22 1468.33 Q1289.22 1461.2 1287.4 1457.66 Q1285.59 1454.1 1281.96 1454.1 M1281.96 1450.39 Q1287.77 1450.39 1290.82 1455 Q1293.9 1459.58 1293.9 1468.33 Q1293.9 1477.06 1290.82 1481.67 Q1287.77 1486.25 1281.96 1486.25 Q1276.15 1486.25 1273.07 1481.67 Q1270.01 1477.06 1270.01 1468.33 Q1270.01 1459.58 1273.07 1455 Q1276.15 1450.39 1281.96 1450.39 Z" fill="#000000" fill-rule="evenodd" fill-opacity="1" /><path clip-path="url(#clip610)" d="M1753.17 1451.02 L1775.39 1451.02 L1775.39 1453.01 L1762.84 1485.58 L1757.96 1485.58 L1769.77 1454.96 L1753.17 1454.96 L1753.17 1451.02 Z" fill="#000000" fill-rule="evenodd" fill-opacity="1" /><path clip-path="url(#clip610)" d="M1784.51 1479.7 L1789.4 1479.7 L1789.4 1485.58 L1784.51 1485.58 L1784.51 1479.7 Z" fill="#000000" fill-rule="evenodd" fill-opacity="1" /><path clip-path="url(#clip610)" d="M1799.63 1451.02 L1817.98 1451.02 L1817.98 1454.96 L1803.91 1454.96 L1803.91 1463.43 Q1804.93 1463.08 1805.95 1462.92 Q1806.96 1462.73 1807.98 1462.73 Q1813.77 1462.73 1817.15 1465.9 Q1820.53 1469.08 1820.53 1474.49 Q1820.53 1480.07 1817.06 1483.17 Q1813.58 1486.25 1807.27 1486.25 Q1805.09 1486.25 1802.82 1485.88 Q1800.58 1485.51 1798.17 1484.77 L1798.17 1480.07 Q1800.25 1481.2 1802.47 1481.76 Q1804.7 1482.32 1807.17 1482.32 Q1811.18 1482.32 1813.52 1480.21 Q1815.85 1478.1 1815.85 1474.49 Q1815.85 1470.88 1813.52 1468.77 Q1811.18 1466.67 1807.17 1466.67 Q1805.3 1466.67 1803.42 1467.08 Q1801.57 1467.5 1799.63 1468.38 L1799.63 1451.02 Z" fill="#000000" fill-rule="evenodd" fill-opacity="1" /><path clip-path="url(#clip610)" d="M2266.16 1481.64 L2273.8 1481.64 L2273.8 1455.28 L2265.49 1456.95 L2265.49 1452.69 L2273.76 1451.02 L2278.43 1451.02 L2278.43 1481.64 L2286.07 1481.64 L2286.07 1485.58 L2266.16 1485.58 L2266.16 1481.64 Z" fill="#000000" fill-rule="evenodd" fill-opacity="1" /><path clip-path="url(#clip610)" d="M2305.52 1454.1 Q2301.9 1454.1 2300.08 1457.66 Q2298.27 1461.2 2298.27 1468.33 Q2298.27 1475.44 2300.08 1479.01 Q2301.9 1482.55 2305.52 1482.55 Q2309.15 1482.55 2310.95 1479.01 Q2312.78 1475.44 2312.78 1468.33 Q2312.78 1461.2 2310.95 1457.66 Q2309.15 1454.1 2305.52 1454.1 M2305.52 1450.39 Q2311.33 1450.39 2314.38 1455 Q2317.46 1459.58 2317.46 1468.33 Q2317.46 1477.06 2314.38 1481.67 Q2311.33 1486.25 2305.52 1486.25 Q2299.7 1486.25 2296.63 1481.67 Q2293.57 1477.06 2293.57 1468.33 Q2293.57 1459.58 2296.63 1455 Q2299.7 1450.39 2305.52 1450.39 Z" fill="#000000" fill-rule="evenodd" fill-opacity="1" /><path clip-path="url(#clip610)" d="M2325.68 1479.7 L2330.56 1479.7 L2330.56 1485.58 L2325.68 1485.58 L2325.68 1479.7 Z" fill="#000000" fill-rule="evenodd" fill-opacity="1" /><path clip-path="url(#clip610)" d="M2350.75 1454.1 Q2347.14 1454.1 2345.31 1457.66 Q2343.5 1461.2 2343.5 1468.33 Q2343.5 1475.44 2345.31 1479.01 Q2347.14 1482.55 2350.75 1482.55 Q2354.38 1482.55 2356.19 1479.01 Q2358.01 1475.44 2358.01 1468.33 Q2358.01 1461.2 2356.19 1457.66 Q2354.38 1454.1 2350.75 1454.1 M2350.75 1450.39 Q2356.56 1450.39 2359.61 1455 Q2362.69 1459.58 2362.69 1468.33 Q2362.69 1477.06 2359.61 1481.67 Q2356.56 1486.25 2350.75 1486.25 Q2344.94 1486.25 2341.86 1481.67 Q2338.8 1477.06 2338.8 1468.33 Q2338.8 1459.58 2341.86 1455 Q2344.94 1450.39 2350.75 1450.39 Z" fill="#000000" fill-rule="evenodd" fill-opacity="1" /><path clip-path="url(#clip610)" d="M1145.43 1520.52 L1185.63 1520.52 L1185.63 1525.93 L1168.76 1525.93 L1168.76 1568.04 L1162.3 1568.04 L1162.3 1525.93 L1145.43 1525.93 L1145.43 1520.52 Z" fill="#000000" fill-rule="evenodd" fill-opacity="1" /><path clip-path="url(#clip610)" d="M1189.58 1532.4 L1195.44 1532.4 L1195.44 1568.04 L1189.58 1568.04 L1189.58 1532.4 M1189.58 1518.52 L1195.44 1518.52 L1195.44 1525.93 L1189.58 1525.93 L1189.58 1518.52 Z" fill="#000000" fill-rule="evenodd" fill-opacity="1" /><path clip-path="url(#clip610)" d="M1235.44 1539.24 Q1237.64 1535.29 1240.7 1533.41 Q1243.75 1531.54 1247.89 1531.54 Q1253.46 1531.54 1256.48 1535.45 Q1259.51 1539.33 1259.51 1546.53 L1259.51 1568.04 L1253.62 1568.04 L1253.62 1546.72 Q1253.62 1541.59 1251.8 1539.11 Q1249.99 1536.63 1246.27 1536.63 Q1241.71 1536.63 1239.07 1539.65 Q1236.43 1542.68 1236.43 1547.9 L1236.43 1568.04 L1230.54 1568.04 L1230.54 1546.72 Q1230.54 1541.56 1228.73 1539.11 Q1226.91 1536.63 1223.13 1536.63 Q1218.64 1536.63 1216 1539.68 Q1213.36 1542.71 1213.36 1547.9 L1213.36 1568.04 L1207.47 1568.04 L1207.47 1532.4 L1213.36 1532.4 L1213.36 1537.93 Q1215.36 1534.66 1218.16 1533.1 Q1220.96 1531.54 1224.81 1531.54 Q1228.7 1531.54 1231.4 1533.51 Q1234.14 1535.48 1235.44 1539.24 Z" fill="#000000" fill-rule="evenodd" fill-opacity="1" /><path clip-path="url(#clip610)" d="M1301.68 1548.76 L1301.68 1551.62 L1274.75 1551.62 Q1275.13 1557.67 1278.38 1560.85 Q1281.66 1564 1287.48 1564 Q1290.86 1564 1294.01 1563.17 Q1297.19 1562.35 1300.31 1560.69 L1300.31 1566.23 Q1297.16 1567.57 1293.85 1568.27 Q1290.54 1568.97 1287.13 1568.97 Q1278.6 1568.97 1273.61 1564 Q1268.64 1559.04 1268.64 1550.57 Q1268.64 1541.82 1273.35 1536.69 Q1278.09 1531.54 1286.12 1531.54 Q1293.31 1531.54 1297.48 1536.18 Q1301.68 1540.8 1301.68 1548.76 M1295.82 1547.04 Q1295.76 1542.23 1293.12 1539.37 Q1290.51 1536.5 1286.18 1536.5 Q1281.28 1536.5 1278.32 1539.27 Q1275.39 1542.04 1274.94 1547.07 L1295.82 1547.04 Z" fill="#000000" fill-rule="evenodd" fill-opacity="1" /><path clip-path="url(#clip610)" d="M1346.08 1518.58 Q1341.82 1525.9 1339.75 1533.06 Q1337.68 1540.23 1337.68 1547.58 Q1337.68 1554.93 1339.75 1562.16 Q1341.85 1569.35 1346.08 1576.64 L1340.99 1576.64 Q1336.21 1569.16 1333.83 1561.93 Q1331.47 1554.71 1331.47 1547.58 Q1331.47 1540.48 1333.83 1533.29 Q1336.18 1526.09 1340.99 1518.58 L1346.08 1518.58 Z" fill="#000000" fill-rule="evenodd" fill-opacity="1" /><path clip-path="url(#clip610)" d="M1387.08 1546.53 L1387.08 1568.04 L1381.22 1568.04 L1381.22 1546.72 Q1381.22 1541.66 1379.25 1539.14 Q1377.27 1536.63 1373.33 1536.63 Q1368.58 1536.63 1365.85 1539.65 Q1363.11 1542.68 1363.11 1547.9 L1363.11 1568.04 L1357.22 1568.04 L1357.22 1518.52 L1363.11 1518.52 L1363.11 1537.93 Q1365.21 1534.72 1368.04 1533.13 Q1370.91 1531.54 1374.63 1531.54 Q1380.77 1531.54 1383.92 1535.36 Q1387.08 1539.14 1387.08 1546.53 Z" fill="#000000" fill-rule="evenodd" fill-opacity="1" /><path clip-path="url(#clip610)" d="M1397.83 1518.58 L1402.93 1518.58 Q1407.7 1526.09 1410.06 1533.29 Q1412.44 1540.48 1412.44 1547.58 Q1412.44 1554.71 1410.06 1561.93 Q1407.7 1569.16 1402.93 1576.64 L1397.83 1576.64 Q1402.07 1569.35 1404.14 1562.16 Q1406.24 1554.93 1406.24 1547.58 Q1406.24 1540.23 1404.14 1533.06 Q1402.07 1525.9 1397.83 1518.58 Z" fill="#000000" fill-rule="evenodd" fill-opacity="1" /><polyline clip-path="url(#clip612)" style="stroke:#000000; stroke-linecap:round; stroke-linejoin:round; stroke-width:2; stroke-opacity:0.1; fill:none" points="
  205.121,1154.38 2352.76,1154.38 
  "/>
<polyline clip-path="url(#clip612)" style="stroke:#000000; stroke-linecap:round; stroke-linejoin:round; stroke-width:2; stroke-opacity:0.1; fill:none" points="
  205.121,800.763 2352.76,800.763 
  "/>
<polyline clip-path="url(#clip612)" style="stroke:#000000; stroke-linecap:round; stroke-linejoin:round; stroke-width:2; stroke-opacity:0.1; fill:none" points="
  205.121,447.141 2352.76,447.141 
  "/>
<polyline clip-path="url(#clip612)" style="stroke:#000000; stroke-linecap:round; stroke-linejoin:round; stroke-width:2; stroke-opacity:0.1; fill:none" points="
  205.121,93.52 2352.76,93.52 
  "/>
<polyline clip-path="url(#clip610)" style="stroke:#000000; stroke-linecap:round; stroke-linejoin:round; stroke-width:4; stroke-opacity:1; fill:none" points="
  205.121,1423.18 205.121,47.2441 
  "/>
<polyline clip-path="url(#clip610)" style="stroke:#000000; stroke-linecap:round; stroke-linejoin:round; stroke-width:4; stroke-opacity:1; fill:none" points="
  205.121,1154.38 224.019,1154.38 
  "/>
<polyline clip-path="url(#clip610)" style="stroke:#000000; stroke-linecap:round; stroke-linejoin:round; stroke-width:4; stroke-opacity:1; fill:none" points="
  205.121,800.763 224.019,800.763 
  "/>
<polyline clip-path="url(#clip610)" style="stroke:#000000; stroke-linecap:round; stroke-linejoin:round; stroke-width:4; stroke-opacity:1; fill:none" points="
  205.121,447.141 224.019,447.141 
  "/>
<polyline clip-path="url(#clip610)" style="stroke:#000000; stroke-linecap:round; stroke-linejoin:round; stroke-width:4; stroke-opacity:1; fill:none" points="
  205.121,93.52 224.019,93.52 
  "/>
<path clip-path="url(#clip610)" d="M121.043 1167.73 L137.362 1167.73 L137.362 1171.66 L115.418 1171.66 L115.418 1167.73 Q118.08 1164.97 122.663 1160.34 Q127.269 1155.69 128.45 1154.35 Q130.695 1151.83 131.575 1150.09 Q132.478 1148.33 132.478 1146.64 Q132.478 1143.89 130.533 1142.15 Q128.612 1140.41 125.51 1140.41 Q123.311 1140.41 120.857 1141.18 Q118.427 1141.94 115.649 1143.49 L115.649 1138.77 Q118.473 1137.64 120.927 1137.06 Q123.38 1136.48 125.418 1136.48 Q130.788 1136.48 133.982 1139.16 Q137.177 1141.85 137.177 1146.34 Q137.177 1148.47 136.367 1150.39 Q135.579 1152.29 133.473 1154.88 Q132.894 1155.55 129.792 1158.77 Q126.691 1161.97 121.043 1167.73 Z" fill="#000000" fill-rule="evenodd" fill-opacity="1" /><path clip-path="url(#clip610)" d="M157.177 1140.18 Q153.566 1140.18 151.737 1143.75 Q149.931 1147.29 149.931 1154.42 Q149.931 1161.53 151.737 1165.09 Q153.566 1168.63 157.177 1168.63 Q160.811 1168.63 162.616 1165.09 Q164.445 1161.53 164.445 1154.42 Q164.445 1147.29 162.616 1143.75 Q160.811 1140.18 157.177 1140.18 M157.177 1136.48 Q162.987 1136.48 166.042 1141.09 Q169.121 1145.67 169.121 1154.42 Q169.121 1163.15 166.042 1167.75 Q162.987 1172.34 157.177 1172.34 Q151.366 1172.34 148.288 1167.75 Q145.232 1163.15 145.232 1154.42 Q145.232 1145.67 148.288 1141.09 Q151.366 1136.48 157.177 1136.48 Z" fill="#000000" fill-rule="evenodd" fill-opacity="1" /><path clip-path="url(#clip610)" d="M129.862 787.557 L118.056 806.006 L129.862 806.006 L129.862 787.557 M128.635 783.483 L134.515 783.483 L134.515 806.006 L139.445 806.006 L139.445 809.895 L134.515 809.895 L134.515 818.043 L129.862 818.043 L129.862 809.895 L114.26 809.895 L114.26 805.381 L128.635 783.483 Z" fill="#000000" fill-rule="evenodd" fill-opacity="1" /><path clip-path="url(#clip610)" d="M157.177 786.562 Q153.566 786.562 151.737 790.126 Q149.931 793.668 149.931 800.798 Q149.931 807.904 151.737 811.469 Q153.566 815.01 157.177 815.01 Q160.811 815.01 162.616 811.469 Q164.445 807.904 164.445 800.798 Q164.445 793.668 162.616 790.126 Q160.811 786.562 157.177 786.562 M157.177 782.858 Q162.987 782.858 166.042 787.464 Q169.121 792.048 169.121 800.798 Q169.121 809.524 166.042 814.131 Q162.987 818.714 157.177 818.714 Q151.366 818.714 148.288 814.131 Q145.232 809.524 145.232 800.798 Q145.232 792.048 148.288 787.464 Q151.366 782.858 157.177 782.858 Z" fill="#000000" fill-rule="evenodd" fill-opacity="1" /><path clip-path="url(#clip610)" d="M127.593 445.278 Q124.445 445.278 122.593 447.431 Q120.765 449.584 120.765 453.334 Q120.765 457.06 122.593 459.236 Q124.445 461.389 127.593 461.389 Q130.742 461.389 132.57 459.236 Q134.422 457.06 134.422 453.334 Q134.422 449.584 132.57 447.431 Q130.742 445.278 127.593 445.278 M136.876 430.625 L136.876 434.885 Q135.117 434.051 133.311 433.611 Q131.529 433.172 129.769 433.172 Q125.14 433.172 122.686 436.297 Q120.255 439.422 119.908 445.741 Q121.274 443.727 123.334 442.662 Q125.394 441.574 127.871 441.574 Q133.08 441.574 136.089 444.746 Q139.121 447.894 139.121 453.334 Q139.121 458.658 135.973 461.875 Q132.825 465.093 127.593 465.093 Q121.598 465.093 118.427 460.509 Q115.256 455.903 115.256 447.176 Q115.256 438.982 119.144 434.121 Q123.033 429.236 129.584 429.236 Q131.343 429.236 133.126 429.584 Q134.931 429.931 136.876 430.625 Z" fill="#000000" fill-rule="evenodd" fill-opacity="1" /><path clip-path="url(#clip610)" d="M157.177 432.94 Q153.566 432.94 151.737 436.505 Q149.931 440.047 149.931 447.176 Q149.931 454.283 151.737 457.847 Q153.566 461.389 157.177 461.389 Q160.811 461.389 162.616 457.847 Q164.445 454.283 164.445 447.176 Q164.445 440.047 162.616 436.505 Q160.811 432.94 157.177 432.94 M157.177 429.236 Q162.987 429.236 166.042 433.843 Q169.121 438.426 169.121 447.176 Q169.121 455.903 166.042 460.509 Q162.987 465.093 157.177 465.093 Q151.366 465.093 148.288 460.509 Q145.232 455.903 145.232 447.176 Q145.232 438.426 148.288 433.843 Q151.366 429.236 157.177 429.236 Z" fill="#000000" fill-rule="evenodd" fill-opacity="1" /><path clip-path="url(#clip610)" d="M127.015 94.388 Q123.681 94.388 121.76 96.1704 Q119.862 97.9528 119.862 101.078 Q119.862 104.203 121.76 105.985 Q123.681 107.768 127.015 107.768 Q130.348 107.768 132.269 105.985 Q134.191 104.18 134.191 101.078 Q134.191 97.9528 132.269 96.1704 Q130.371 94.388 127.015 94.388 M122.339 92.3973 Q119.33 91.6566 117.64 89.5964 Q115.973 87.5362 115.973 84.5733 Q115.973 80.4298 118.913 78.0224 Q121.876 75.615 127.015 75.615 Q132.177 75.615 135.117 78.0224 Q138.056 80.4298 138.056 84.5733 Q138.056 87.5362 136.367 89.5964 Q134.7 91.6566 131.714 92.3973 Q135.093 93.1843 136.968 95.476 Q138.867 97.7676 138.867 101.078 Q138.867 106.101 135.788 108.786 Q132.732 111.471 127.015 111.471 Q121.297 111.471 118.218 108.786 Q115.163 106.101 115.163 101.078 Q115.163 97.7676 117.061 95.476 Q118.959 93.1843 122.339 92.3973 M120.626 85.0131 Q120.626 87.6982 122.293 89.2029 Q123.982 90.7075 127.015 90.7075 Q130.024 90.7075 131.714 89.2029 Q133.427 87.6982 133.427 85.0131 Q133.427 82.3279 131.714 80.8233 Q130.024 79.3187 127.015 79.3187 Q123.982 79.3187 122.293 80.8233 Q120.626 82.3279 120.626 85.0131 Z" fill="#000000" fill-rule="evenodd" fill-opacity="1" /><path clip-path="url(#clip610)" d="M157.177 79.3187 Q153.566 79.3187 151.737 82.8835 Q149.931 86.4251 149.931 93.5547 Q149.931 100.661 151.737 104.226 Q153.566 107.768 157.177 107.768 Q160.811 107.768 162.616 104.226 Q164.445 100.661 164.445 93.5547 Q164.445 86.4251 162.616 82.8835 Q160.811 79.3187 157.177 79.3187 M157.177 75.615 Q162.987 75.615 166.042 80.2214 Q169.121 84.8047 169.121 93.5547 Q169.121 102.281 166.042 106.888 Q162.987 111.471 157.177 111.471 Q151.366 111.471 148.288 106.888 Q145.232 102.281 145.232 93.5547 Q145.232 84.8047 148.288 80.2214 Q151.366 75.615 157.177 75.615 Z" fill="#000000" fill-rule="evenodd" fill-opacity="1" /><path clip-path="url(#clip610)" d="M58.657 960.844 L77.5631 960.844 L77.5631 966.733 L28.3562 966.733 L28.3562 960.844 L33.7671 960.844 Q30.5842 958.998 29.0564 956.197 Q27.4968 953.365 27.4968 949.45 Q27.4968 942.957 32.6531 938.915 Q37.8093 934.841 46.212 934.841 Q54.6147 934.841 59.771 938.915 Q64.9272 942.957 64.9272 949.45 Q64.9272 953.365 63.3994 956.197 Q61.8398 958.998 58.657 960.844 M46.212 940.92 Q39.7508 940.92 36.0905 943.593 Q32.3984 946.235 32.3984 950.882 Q32.3984 955.529 36.0905 958.203 Q39.7508 960.844 46.212 960.844 Q52.6732 960.844 56.3653 958.203 Q60.0256 955.529 60.0256 950.882 Q60.0256 946.235 56.3653 943.593 Q52.6732 940.92 46.212 940.92 Z" fill="#000000" fill-rule="evenodd" fill-opacity="1" /><path clip-path="url(#clip610)" d="M35.1993 897.378 Q31.2526 895.182 29.3747 892.127 Q27.4968 889.071 27.4968 884.933 Q27.4968 879.363 31.4117 876.34 Q35.2948 873.316 42.4881 873.316 L64.0042 873.316 L64.0042 879.204 L42.679 879.204 Q37.5546 879.204 35.072 881.018 Q32.5894 882.833 32.5894 886.557 Q32.5894 891.108 35.6131 893.75 Q38.6368 896.392 43.8567 896.392 L64.0042 896.392 L64.0042 902.28 L42.679 902.28 Q37.5228 902.28 35.072 904.094 Q32.5894 905.908 32.5894 909.696 Q32.5894 914.184 35.6449 916.826 Q38.6686 919.467 43.8567 919.467 L64.0042 919.467 L64.0042 925.356 L28.3562 925.356 L28.3562 919.467 L33.8944 919.467 Q30.616 917.462 29.0564 914.661 Q27.4968 911.86 27.4968 908.009 Q27.4968 904.126 29.4702 901.421 Q31.4436 898.683 35.1993 897.378 Z" fill="#000000" fill-rule="evenodd" fill-opacity="1" /><path clip-path="url(#clip610)" d="M58.5933 855.269 L58.5933 832.83 L64.0042 832.83 L64.0042 863.004 L58.5933 863.004 Q54.8057 859.343 48.44 853.041 Q42.0425 846.707 40.1964 845.084 Q36.7271 841.997 34.34 840.787 Q31.921 839.546 29.5975 839.546 Q25.8099 839.546 23.4228 842.219 Q21.0356 844.861 21.0356 849.126 Q21.0356 852.15 22.086 855.524 Q23.1363 858.866 25.2688 862.685 L18.7758 862.685 Q17.2162 858.802 16.4205 855.428 Q15.6248 852.055 15.6248 849.254 Q15.6248 841.869 19.3169 837.477 Q23.009 833.085 29.1837 833.085 Q32.112 833.085 34.7537 834.199 Q37.3637 835.281 40.9285 838.177 Q41.8515 838.973 46.2757 843.238 Q50.668 847.503 58.5933 855.269 Z" fill="#000000" fill-rule="evenodd" fill-opacity="1" /><path clip-path="url(#clip610)" d="M55.9197 819.335 L55.9197 812.619 L64.0042 812.619 L64.0042 819.335 L55.9197 819.335 Z" fill="#000000" fill-rule="evenodd" fill-opacity="1" /><path clip-path="url(#clip610)" d="M16.4842 798.551 L16.4842 773.311 L21.895 773.311 L21.895 792.662 L33.5443 792.662 Q33.0668 791.262 32.844 789.862 Q32.5894 788.461 32.5894 787.061 Q32.5894 779.104 36.9499 774.457 Q41.3104 769.81 48.7583 769.81 Q56.429 769.81 60.694 774.584 Q64.9272 779.358 64.9272 788.047 Q64.9272 791.039 64.4179 794.158 Q63.9087 797.246 62.8902 800.556 L56.429 800.556 Q57.9886 797.691 58.7524 794.636 Q59.5163 791.58 59.5163 788.175 Q59.5163 782.668 56.6199 779.454 Q53.7235 776.239 48.7583 776.239 Q43.793 776.239 40.8966 779.454 Q38.0002 782.668 38.0002 788.175 Q38.0002 790.753 38.5732 793.331 Q39.1461 795.877 40.3556 798.551 L16.4842 798.551 Z" fill="#000000" fill-rule="evenodd" fill-opacity="1" /><path clip-path="url(#clip610)" d="M14.5426 723.181 Q21.8632 727.446 29.0246 729.515 Q36.186 731.584 43.5384 731.584 Q50.8908 731.584 58.1159 729.515 Q65.3091 727.414 72.5979 723.181 L72.5979 728.273 Q65.1182 733.048 57.8931 735.435 Q50.668 737.79 43.5384 737.79 Q36.4406 737.79 29.2474 735.435 Q22.0542 733.079 14.5426 728.273 L14.5426 723.181 Z" fill="#000000" fill-rule="evenodd" fill-opacity="1" /><path clip-path="url(#clip610)" d="M77.5631 712.423 L28.3562 712.423 L28.3562 706.566 L50.5089 706.566 Q55.124 706.566 57.4793 704.37 Q59.8346 702.174 59.8346 697.877 Q59.8346 693.166 57.161 690.811 Q54.4874 688.424 49.1402 688.424 L28.3562 688.424 L28.3562 682.568 L55.7924 682.568 Q57.7021 682.568 58.6251 682.026 Q59.5163 681.454 59.5163 680.276 Q59.5163 679.989 59.3572 679.48 Q59.1662 678.971 58.7843 678.08 L63.4949 678.08 Q64.227 679.385 64.5771 680.562 Q64.9272 681.708 64.9272 682.822 Q64.9272 685.018 63.6859 686.323 Q62.4446 687.628 59.8983 688.106 Q62.4127 689.697 63.6859 692.021 Q64.9272 694.312 64.9272 697.431 Q64.9272 700.678 63.6859 702.97 Q62.4446 705.229 59.9619 706.566 L77.5631 706.566 L77.5631 712.423 Z" fill="#000000" fill-rule="evenodd" fill-opacity="1" /><path clip-path="url(#clip610)" d="M45.7664 646.888 Q39.4007 646.888 35.8996 649.53 Q32.3984 652.139 32.3984 656.882 Q32.3984 661.593 35.8996 664.234 Q39.4007 666.844 45.7664 666.844 Q52.1003 666.844 55.6014 664.234 Q59.1026 661.593 59.1026 656.882 Q59.1026 652.139 55.6014 649.53 Q52.1003 646.888 45.7664 646.888 M59.58 641.031 Q68.683 641.031 73.1071 645.074 Q77.5631 649.116 77.5631 657.455 Q77.5631 660.542 77.0857 663.279 Q76.6401 666.017 75.6852 668.595 L69.9879 668.595 Q71.3884 666.017 72.0568 663.502 Q72.7252 660.988 72.7252 658.378 Q72.7252 652.617 69.7015 649.752 Q66.7096 646.888 60.6303 646.888 L57.7339 646.888 Q60.885 648.702 62.4446 651.535 Q64.0042 654.367 64.0042 658.314 Q64.0042 664.871 59.0071 668.881 Q54.01 672.892 45.7664 672.892 Q37.491 672.892 32.4939 668.881 Q27.4968 664.871 27.4968 658.314 Q27.4968 654.367 29.0564 651.535 Q30.616 648.702 33.7671 646.888 L28.3562 646.888 L28.3562 641.031 L59.58 641.031 Z" fill="#000000" fill-rule="evenodd" fill-opacity="1" /><path clip-path="url(#clip610)" d="M16.4842 618.56 L16.4842 613.15 L70.0516 629.7 L70.0516 635.111 L16.4842 618.56 Z" fill="#000000" fill-rule="evenodd" fill-opacity="1" /><path clip-path="url(#clip610)" d="M35.1993 579.252 Q31.2526 577.056 29.3747 574 Q27.4968 570.945 27.4968 566.807 Q27.4968 561.237 31.4117 558.213 Q35.2948 555.19 42.4881 555.19 L64.0042 555.19 L64.0042 561.078 L42.679 561.078 Q37.5546 561.078 35.072 562.892 Q32.5894 564.707 32.5894 568.43 Q32.5894 572.982 35.6131 575.624 Q38.6368 578.265 43.8567 578.265 L64.0042 578.265 L64.0042 584.154 L42.679 584.154 Q37.5228 584.154 35.072 585.968 Q32.5894 587.782 32.5894 591.57 Q32.5894 596.058 35.6449 598.699 Q38.6686 601.341 43.8567 601.341 L64.0042 601.341 L64.0042 607.229 L28.3562 607.229 L28.3562 601.341 L33.8944 601.341 Q30.616 599.336 29.0564 596.535 Q27.4968 593.734 27.4968 589.883 Q27.4968 586 29.4702 583.294 Q31.4436 580.557 35.1993 579.252 Z" fill="#000000" fill-rule="evenodd" fill-opacity="1" /><path clip-path="url(#clip610)" d="M28.3562 532.973 Q28.9291 530.045 30.6797 528.454 Q32.3984 526.831 35.0084 526.831 Q38.9551 526.831 41.0876 529.854 Q43.2201 532.878 43.2201 538.512 Q43.2201 540.326 42.9018 542.331 Q42.5517 544.304 41.9152 546.532 L38.0639 546.532 Q38.9233 544.877 39.337 542.999 Q39.7508 541.09 39.7508 538.957 Q39.7508 535.488 38.5095 533.578 Q37.2364 531.668 35.0084 531.668 Q32.6531 531.668 31.4436 533.451 Q30.2341 535.201 30.2341 538.639 L30.2341 541.376 L26.7966 541.376 L26.7966 538.384 Q26.7966 535.392 25.8099 533.865 Q24.7914 532.305 22.8817 532.305 Q21.0356 532.305 20.0808 533.896 Q19.0941 535.488 19.0941 538.512 Q19.0941 539.785 19.3806 541.408 Q19.667 543.031 20.3991 545.609 L16.7388 545.609 Q16.1977 543.286 15.9112 541.249 Q15.6248 539.212 15.6248 537.461 Q15.6248 532.878 17.5027 530.204 Q19.3806 527.499 22.5316 527.499 Q24.7277 527.499 26.2555 528.931 Q27.7833 530.364 28.3562 532.973 Z" fill="#000000" fill-rule="evenodd" fill-opacity="1" /><path clip-path="url(#clip610)" d="M14.5426 518.301 L14.5426 513.208 Q22.0542 508.434 29.2474 506.078 Q36.4406 503.691 43.5384 503.691 Q50.668 503.691 57.8931 506.078 Q65.1182 508.434 72.5979 513.208 L72.5979 518.301 Q65.3091 514.067 58.1159 511.998 Q50.8908 509.898 43.5384 509.898 Q36.186 509.898 29.0246 511.998 Q21.8632 514.067 14.5426 518.301 Z" fill="#000000" fill-rule="evenodd" fill-opacity="1" /><polyline clip-path="url(#clip612)" style="stroke:#009af9; stroke-linecap:round; stroke-linejoin:round; stroke-width:4; stroke-opacity:1; fill:none" points="
  205.121,1384.24 207.271,1381.31 209.421,1378.39 211.57,1375.47 213.72,1372.53 215.87,1369.58 218.02,1366.61 220.169,1363.65 222.319,1360.68 224.469,1357.74 
  226.619,1354.82 228.769,1351.91 230.918,1348.99 233.068,1346.08 235.218,1343.16 237.368,1340.23 239.518,1337.31 241.667,1334.4 243.817,1331.49 245.967,1328.6 
  248.117,1325.73 250.266,1322.88 252.416,1320.04 254.566,1317.23 256.716,1314.45 258.866,1311.69 261.015,1308.93 263.165,1306.18 265.315,1303.44 267.465,1300.71 
  269.615,1297.99 271.764,1295.29 273.914,1292.59 276.064,1289.91 278.214,1287.23 280.363,1284.57 282.513,1281.9 284.663,1279.23 286.813,1276.57 288.963,1273.94 
  291.112,1271.33 293.262,1268.74 295.412,1266.16 297.562,1263.59 299.712,1261.04 301.861,1258.5 304.011,1255.98 306.161,1253.47 308.311,1250.99 310.46,1248.52 
  312.61,1246.07 314.76,1243.62 316.91,1241.18 319.06,1238.74 321.209,1236.31 323.359,1233.87 325.509,1231.44 327.659,1229.01 329.808,1226.57 331.958,1224.14 
  334.108,1221.71 336.258,1219.29 338.408,1216.87 340.557,1214.47 342.707,1212.09 344.857,1209.72 347.007,1207.39 349.157,1205.08 351.306,1202.79 353.456,1200.52 
  355.606,1198.26 357.756,1196.02 359.905,1193.79 362.055,1191.57 364.205,1189.37 366.355,1187.17 368.505,1184.98 370.654,1182.79 372.804,1180.61 374.954,1178.43 
  377.104,1176.26 379.254,1174.07 381.403,1171.89 383.553,1169.7 385.703,1167.52 387.853,1165.35 390.002,1163.18 392.152,1161.03 394.302,1158.89 396.452,1156.77 
  398.602,1154.66 400.751,1152.57 402.901,1150.49 405.051,1148.42 407.201,1146.37 409.351,1144.33 411.5,1142.3 413.65,1140.26 415.8,1138.22 417.95,1136.18 
  420.099,1134.14 422.249,1132.11 424.399,1130.09 426.549,1128.08 428.699,1126.09 430.848,1124.11 432.998,1122.15 435.148,1120.21 437.298,1118.29 439.448,1116.38 
  441.597,1114.49 443.747,1112.62 445.897,1110.75 448.047,1108.9 450.196,1107.05 452.346,1105.2 454.496,1103.34 456.646,1101.49 458.796,1099.66 460.945,1097.84 
  463.095,1096.03 465.245,1094.24 467.395,1092.46 469.544,1090.69 471.694,1088.94 473.844,1087.19 475.994,1085.45 478.144,1083.73 480.293,1082.01 482.443,1080.29 
  484.593,1078.58 486.743,1076.87 488.893,1075.16 491.042,1073.44 493.192,1071.73 495.342,1070.02 497.492,1068.32 499.641,1066.63 501.791,1064.94 503.941,1063.25 
  506.091,1061.57 508.241,1059.89 510.39,1058.21 512.54,1056.53 514.69,1054.86 516.84,1053.18 518.99,1051.51 521.139,1049.83 523.289,1048.16 525.439,1046.49 
  527.589,1044.82 529.738,1043.15 531.888,1041.49 534.038,1039.82 536.188,1038.16 538.338,1036.5 540.487,1034.84 542.637,1033.19 544.787,1031.55 546.937,1029.91 
  549.087,1028.27 551.236,1026.61 553.386,1024.95 555.536,1023.28 557.686,1021.61 559.835,1019.93 561.985,1018.25 564.135,1016.57 566.285,1014.89 568.435,1013.22 
  570.584,1011.54 572.734,1009.87 574.884,1008.21 577.034,1006.54 579.184,1004.88 581.333,1003.23 583.483,1001.58 585.633,999.926 587.783,998.279 589.932,996.633 
  592.082,994.986 594.232,993.338 596.382,991.687 598.532,990.031 600.681,988.37 602.831,986.717 604.981,985.073 607.131,983.44 609.281,981.817 611.43,980.204 
  613.58,978.602 615.73,977.01 617.88,975.43 620.029,973.86 622.179,972.3 624.329,970.751 626.479,969.212 628.629,967.682 630.778,966.162 632.928,964.651 
  635.078,963.148 637.228,961.652 639.377,960.164 641.527,958.682 643.677,957.205 645.827,955.733 647.977,954.265 650.126,952.799 652.276,951.336 654.426,949.872 
  656.576,948.408 658.726,946.942 660.875,945.473 663.025,944 665.175,942.527 667.325,941.071 669.474,939.629 671.624,938.198 673.774,936.772 675.924,935.349 
  678.074,933.925 680.223,932.499 682.373,931.067 684.523,929.628 686.673,928.181 688.823,926.726 690.972,925.261 693.122,923.787 695.272,922.304 697.422,920.813 
  699.571,919.316 701.721,917.813 703.871,916.308 706.021,914.803 708.171,913.301 710.32,911.805 712.47,910.32 714.62,908.85 716.77,907.398 718.92,905.972 
  721.069,904.574 723.219,903.166 725.369,901.738 727.519,900.294 729.668,898.841 731.818,897.383 733.968,895.926 736.118,894.472 738.268,893.026 740.417,891.589 
  742.567,890.166 744.717,888.756 746.867,887.363 749.017,885.985 751.166,884.625 753.316,883.28 755.466,881.951 757.616,880.637 759.765,879.335 761.915,878.042 
  764.065,876.757 766.215,875.475 768.365,874.192 770.514,872.905 772.664,871.607 774.814,870.294 776.964,868.959 779.113,867.598 781.263,866.235 783.413,864.88 
  785.563,863.532 787.713,862.191 789.862,860.856 792.012,859.526 794.162,858.2 796.312,856.88 798.462,855.563 800.611,854.252 802.761,852.945 804.911,851.643 
  807.061,850.346 809.21,849.054 811.36,847.77 813.51,846.492 815.66,845.222 817.81,843.962 819.959,842.712 822.109,841.474 824.259,840.248 826.409,839.038 
  828.559,837.843 830.708,836.667 832.858,835.51 835.008,834.376 837.158,833.251 839.307,832.1 841.457,830.931 843.607,829.748 845.757,828.558 847.907,827.367 
  850.056,826.179 852.206,824.999 854.356,823.831 856.506,822.679 858.656,821.545 860.805,820.431 862.955,819.341 865.105,818.275 867.255,817.234 869.404,816.219 
  871.554,815.23 873.704,814.266 875.854,813.326 878.004,812.408 880.153,811.511 882.303,810.632 884.453,809.768 886.603,808.916 888.753,808.07 890.902,807.228 
  893.052,806.383 895.202,805.531 897.352,804.664 899.501,803.777 901.651,802.863 903.801,801.913 905.951,800.92 908.101,799.876 910.25,798.771 912.4,797.624 
  914.55,796.481 916.7,795.341 918.85,794.204 920.999,793.07 923.149,791.94 925.299,790.812 927.449,789.687 929.598,788.564 931.748,787.443 933.898,786.324 
  936.048,785.207 938.198,784.092 940.347,782.978 942.497,781.866 944.647,780.754 946.797,779.643 948.946,778.533 951.096,777.424 953.246,776.314 955.396,775.205 
  957.546,774.096 959.695,772.986 961.845,771.875 963.995,770.764 966.145,769.652 968.295,768.532 970.444,767.401 972.594,766.261 974.744,765.115 976.894,763.965 
  979.043,762.813 981.193,761.66 983.343,760.509 985.493,759.361 987.643,758.217 989.792,757.078 991.942,755.946 994.092,754.821 996.242,753.705 998.392,752.598 
  1000.54,751.5 1002.69,750.412 1004.84,749.334 1006.99,748.267 1009.14,747.21 1011.29,746.163 1013.44,745.125 1015.59,744.097 1017.74,743.078 1019.89,742.066 
  1022.04,741.062 1024.19,740.063 1026.34,739.069 1028.49,738.079 1030.64,737.091 1032.79,736.103 1034.94,735.113 1037.09,734.121 1039.24,733.123 1041.39,732.118 
  1043.54,731.103 1045.69,730.075 1047.84,729.039 1049.99,728 1052.14,726.961 1054.29,725.922 1056.44,724.882 1058.59,723.844 1060.74,722.807 1062.89,721.772 
  1065.03,720.739 1067.18,719.709 1069.33,718.681 1071.48,717.657 1073.63,716.637 1075.78,715.62 1077.93,714.608 1080.08,713.599 1082.23,712.594 1084.38,711.594 
  1086.53,710.598 1088.68,709.606 1090.83,708.618 1092.98,707.635 1095.13,706.655 1097.28,705.679 1099.43,704.706 1101.58,703.737 1103.73,702.77 1105.88,701.806 
  1108.03,700.844 1110.18,699.883 1112.33,698.924 1114.48,697.966 1116.63,697.007 1118.78,696.053 1120.93,695.11 1123.08,694.175 1125.23,693.247 1127.38,692.325 
  1129.53,691.407 1131.68,690.492 1133.83,689.579 1135.98,688.666 1138.13,687.753 1140.28,686.837 1142.43,685.92 1144.58,684.998 1146.73,684.073 1148.88,683.142 
  1151.03,682.207 1153.18,681.265 1155.33,680.317 1157.48,679.361 1159.63,678.399 1161.78,677.43 1163.92,676.454 1166.07,675.47 1168.22,674.479 1170.37,673.48 
  1172.52,672.475 1174.67,671.464 1176.82,670.446 1178.97,669.423 1181.12,668.394 1183.27,667.361 1185.42,666.325 1187.57,665.285 1189.72,664.244 1191.87,663.202 
  1194.02,662.16 1196.17,661.119 1198.32,660.08 1200.47,659.046 1202.62,658.017 1204.77,656.994 1206.92,655.98 1209.07,654.975 1211.22,653.983 1213.37,653.004 
  1215.52,652.036 1217.67,651.065 1219.82,650.09 1221.97,649.11 1224.12,648.126 1226.27,647.139 1228.42,646.149 1230.57,645.156 1232.72,644.16 1234.87,643.162 
  1237.02,642.162 1239.17,641.16 1241.32,640.157 1243.47,639.152 1245.62,638.145 1247.77,637.138 1249.92,636.13 1252.07,635.121 1254.22,634.111 1256.37,633.101 
  1258.52,632.09 1260.67,631.078 1262.82,630.066 1264.96,629.054 1267.11,628.041 1269.26,627.028 1271.41,626.014 1273.56,625 1275.71,623.985 1277.86,622.969 
  1280.01,621.953 1282.16,620.935 1284.31,619.916 1286.46,618.897 1288.61,617.875 1290.76,616.852 1292.91,615.827 1295.06,614.8 1297.21,613.767 1299.36,612.729 
  1301.51,611.685 1303.66,610.637 1305.81,609.584 1307.96,608.527 1310.11,607.466 1312.26,606.401 1314.41,605.333 1316.56,604.262 1318.71,603.187 1320.86,602.109 
  1323.01,601.027 1325.16,599.942 1327.31,598.854 1329.46,597.762 1331.61,596.666 1333.76,595.566 1335.91,594.462 1338.06,593.352 1340.21,592.238 1342.36,591.118 
  1344.51,589.992 1346.66,588.86 1348.81,587.72 1350.96,586.573 1353.11,585.417 1355.26,584.252 1357.41,583.077 1359.56,581.892 1361.71,580.695 1363.85,579.486 
  1366,578.264 1368.15,577.027 1370.3,575.775 1372.45,574.507 1374.6,573.221 1376.75,571.917 1378.9,570.593 1381.05,569.248 1383.2,567.88 1385.35,566.489 
  1387.5,565.073 1389.65,563.631 1391.8,562.16 1393.95,560.664 1396.1,559.144 1398.25,557.606 1400.4,556.052 1402.55,554.484 1404.7,552.907 1406.85,551.322 
  1409,549.732 1411.15,548.14 1413.3,546.548 1415.45,544.957 1417.6,543.369 1419.75,541.787 1421.9,540.211 1424.05,538.643 1426.2,537.084 1428.35,535.535 
  1430.5,533.996 1432.65,532.469 1434.8,530.952 1436.95,529.448 1439.1,527.955 1441.25,526.474 1443.4,525.004 1445.55,523.545 1447.7,522.095 1449.85,520.655 
  1452,519.223 1454.15,517.798 1456.3,516.378 1458.45,514.963 1460.6,513.549 1462.75,512.136 1464.89,510.72 1467.04,509.301 1469.19,507.874 1471.34,506.439 
  1473.49,504.991 1475.64,503.528 1477.79,502.047 1479.94,500.543 1482.09,499.02 1484.24,497.487 1486.39,495.946 1488.54,494.4 1490.69,492.849 1492.84,491.295 
  1494.99,489.74 1497.14,488.185 1499.29,486.631 1501.44,485.08 1503.59,483.531 1505.74,481.987 1507.89,480.449 1510.04,478.916 1512.19,477.39 1514.34,475.871 
  1516.49,474.36 1518.64,472.857 1520.79,471.362 1522.94,469.877 1525.09,468.4 1527.24,466.933 1529.39,465.475 1531.54,464.025 1533.69,462.585 1535.84,461.153 
  1537.99,459.729 1540.14,458.313 1542.29,456.904 1544.44,455.501 1546.59,454.105 1548.74,452.713 1550.89,451.326 1553.04,449.942 1555.19,448.56 1557.34,447.179 
  1559.49,445.798 1561.64,444.415 1563.78,443.029 1565.93,441.639 1568.08,440.243 1570.23,438.843 1572.38,437.459 1574.53,436.092 1576.68,434.74 1578.83,433.398 
  1580.98,432.066 1583.13,430.741 1585.28,429.421 1587.43,428.104 1589.58,426.787 1591.73,425.47 1593.88,424.151 1596.03,422.828 1598.18,421.501 1600.33,420.167 
  1602.48,418.826 1604.63,417.477 1606.78,416.119 1608.93,414.753 1611.08,413.376 1613.23,411.989 1615.38,410.592 1617.53,409.185 1619.68,407.768 1621.83,406.34 
  1623.98,404.903 1626.13,403.456 1628.28,402.001 1630.43,400.538 1632.58,399.068 1634.73,397.592 1636.88,396.111 1639.03,394.627 1641.18,393.141 1643.33,391.654 
  1645.48,390.168 1647.63,388.686 1649.78,387.209 1651.93,385.739 1654.08,384.278 1656.23,382.83 1658.38,381.395 1660.53,379.978 1662.68,378.58 1664.82,377.206 
  1666.97,375.857 1669.12,374.537 1671.27,373.249 1673.42,371.985 1675.57,370.721 1677.72,369.457 1679.87,368.194 1682.02,366.933 1684.17,365.673 1686.32,364.415 
  1688.47,363.16 1690.62,361.908 1692.77,360.659 1694.92,359.414 1697.07,358.172 1699.22,356.935 1701.37,355.701 1703.52,354.472 1705.67,353.247 1707.82,352.027 
  1709.97,350.811 1712.12,349.6 1714.27,348.393 1716.42,347.19 1718.57,345.991 1720.72,344.797 1722.87,343.606 1725.02,342.418 1727.17,341.234 1729.32,340.053 
  1731.47,338.875 1733.62,337.699 1735.77,336.524 1737.92,335.351 1740.07,334.179 1742.22,333.007 1744.37,331.835 1746.52,330.661 1748.67,329.487 1750.82,328.31 
  1752.97,327.13 1755.12,325.947 1757.27,324.758 1759.42,323.565 1761.57,322.364 1763.71,321.139 1765.86,319.886 1768.01,318.609 1770.16,317.314 1772.31,316.002 
  1774.46,314.678 1776.61,313.346 1778.76,312.008 1780.91,310.668 1783.06,309.328 1785.21,307.991 1787.36,306.66 1789.51,305.337 1791.66,304.025 1793.81,302.724 
  1795.96,301.438 1798.11,300.168 1800.26,298.915 1802.41,297.68 1804.56,296.466 1806.71,295.272 1808.86,294.1 1811.01,292.95 1813.16,291.823 1815.31,290.719 
  1817.46,289.639 1819.61,288.581 1821.76,287.547 1823.91,286.535 1826.06,285.544 1828.21,284.576 1830.36,283.627 1832.51,282.698 1834.66,281.787 1836.81,280.893 
  1838.96,280.013 1841.11,279.147 1843.26,278.292 1845.41,277.447 1847.56,276.608 1849.71,275.774 1851.86,274.941 1854.01,274.108 1856.16,273.271 1858.31,272.427 
  1860.46,271.572 1862.6,270.703 1864.75,269.817 1866.9,268.91 1869.05,267.977 1871.2,267.015 1873.35,266.019 1875.5,264.984 1877.65,263.906 1879.8,262.781 
  1881.95,261.603 1884.1,260.408 1886.25,259.217 1888.4,258.027 1890.55,256.84 1892.7,255.655 1894.85,254.471 1897,253.288 1899.15,252.106 1901.3,250.926 
  1903.45,249.746 1905.6,248.566 1907.75,247.387 1909.9,246.208 1912.05,245.03 1914.2,243.852 1916.35,242.674 1918.5,241.496 1920.65,240.319 1922.8,239.142 
  1924.95,237.965 1927.1,236.789 1929.25,235.613 1931.4,234.438 1933.55,233.264 1935.7,232.091 1937.85,230.92 1940,229.75 1942.15,228.582 1944.3,227.417 
  1946.45,226.254 1948.6,225.093 1950.75,223.936 1952.9,222.783 1955.05,221.634 1957.2,220.489 1959.35,219.35 1961.5,218.216 1963.64,217.088 1965.79,215.966 
  1967.94,214.852 1970.09,213.742 1972.24,212.627 1974.39,211.508 1976.54,210.387 1978.69,209.263 1980.84,208.139 1982.99,207.015 1985.14,205.893 1987.29,204.773 
  1989.44,203.657 1991.59,202.544 1993.74,201.437 1995.89,200.335 1998.04,199.24 2000.19,198.152 2002.34,197.071 2004.49,196 2006.64,194.937 2008.79,193.884 
  2010.94,192.84 2013.09,191.808 2015.24,190.785 2017.39,189.774 2019.54,188.775 2021.69,187.787 2023.84,186.81 2025.99,185.846 2028.14,184.893 2030.29,183.953 
  2032.44,183.024 2034.59,182.108 2036.74,181.204 2038.89,180.311 2041.04,179.43 2043.19,178.56 2045.34,177.702 2047.49,176.854 2049.64,176.016 2051.79,175.189 
  2053.94,174.371 2056.09,173.562 2058.24,172.762 2060.39,171.97 2062.53,171.185 2064.68,170.406 2066.83,169.634 2068.98,168.866 2071.13,168.103 2073.28,167.343 
  2075.43,166.585 2077.58,165.829 2079.73,165.074 2081.88,164.318 2084.03,163.56 2086.18,162.8 2088.33,162.035 2090.48,161.266 2092.63,160.498 2094.78,159.734 
  2096.93,158.972 2099.08,158.214 2101.23,157.459 2103.38,156.708 2105.53,155.96 2107.68,155.216 2109.83,154.476 2111.98,153.739 2114.13,153.007 2116.28,152.278 
  2118.43,151.554 2120.58,150.834 2122.73,150.118 2124.88,149.406 2127.03,148.698 2129.18,147.995 2131.33,147.295 2133.48,146.601 2135.63,145.91 2137.78,145.224 
  2139.93,144.542 2142.08,143.864 2144.23,143.191 2146.38,142.522 2148.53,141.857 2150.68,141.196 2152.83,140.54 2154.98,139.887 2157.13,139.239 2159.28,138.595 
  2161.43,137.954 2163.57,137.318 2165.72,136.685 2167.87,136.056 2170.02,135.43 2172.17,134.809 2174.32,134.19 2176.47,133.575 2178.62,132.963 2180.77,132.354 
  2182.92,131.748 2185.07,131.145 2187.22,130.545 2189.37,129.947 2191.52,129.351 2193.67,128.758 2195.82,128.167 2197.97,127.577 2200.12,126.99 2202.27,126.404 
  2204.42,125.819 2206.57,125.235 2208.72,124.653 2210.87,124.074 2213.02,123.498 2215.17,122.927 2217.32,122.359 2219.47,121.794 2221.62,121.232 2223.77,120.672 
  2225.92,120.115 2228.07,119.559 2230.22,119.005 2232.37,118.452 2234.52,117.9 2236.67,117.349 2238.82,116.798 2240.97,116.247 2243.12,115.697 2245.27,115.147 
  2247.42,114.596 2249.57,114.044 2251.72,113.492 2253.87,112.939 2256.02,112.385 2258.17,111.829 2260.32,111.273 2262.46,110.715 2264.61,110.155 2266.76,109.594 
  2268.91,109.031 2271.06,108.467 2273.21,107.9 2275.36,107.332 2277.51,106.762 2279.66,106.189 2281.81,105.615 2283.96,105.039 2286.11,104.461 2288.26,103.881 
  2290.41,103.299 2292.56,102.715 2294.71,102.13 2296.86,101.542 2299.01,100.953 2301.16,100.363 2303.31,99.7706 2305.46,99.1772 2307.61,98.5825 2309.76,97.9868 
  2311.91,97.3901 2314.06,96.7926 2316.21,96.1944 2318.36,95.5959 2320.51,94.997 2322.66,94.3981 2324.81,93.7994 2326.96,93.2011 2329.11,92.6034 2331.26,92.0066 
  2333.41,91.4109 2335.56,90.8166 2337.71,90.2236 2339.86,89.6299 2342.01,89.0391 2344.16,88.4548 2346.31,87.8785 2348.46,87.3099 2350.61,86.747 2352.76,86.1857 
  
  "/>
<circle clip-path="url(#clip612)" cx="208.636" cy="1384.24" r="14.4" fill="#e26f46" fill-rule="evenodd" fill-opacity="1" stroke="#000000" stroke-opacity="1" stroke-width="3.2"/>
<circle clip-path="url(#clip612)" cx="212.151" cy="1366.56" r="14.4" fill="#e26f46" fill-rule="evenodd" fill-opacity="1" stroke="#000000" stroke-opacity="1" stroke-width="3.2"/>
<circle clip-path="url(#clip612)" cx="261.36" cy="1384.24" r="14.4" fill="#e26f46" fill-rule="evenodd" fill-opacity="1" stroke="#000000" stroke-opacity="1" stroke-width="3.2"/>
<circle clip-path="url(#clip612)" cx="264.875" cy="1331.2" r="14.4" fill="#e26f46" fill-rule="evenodd" fill-opacity="1" stroke="#000000" stroke-opacity="1" stroke-width="3.2"/>
<circle clip-path="url(#clip612)" cx="268.39" cy="1295.83" r="14.4" fill="#e26f46" fill-rule="evenodd" fill-opacity="1" stroke="#000000" stroke-opacity="1" stroke-width="3.2"/>
<circle clip-path="url(#clip612)" cx="321.114" cy="1207.43" r="14.4" fill="#e26f46" fill-rule="evenodd" fill-opacity="1" stroke="#000000" stroke-opacity="1" stroke-width="3.2"/>
<circle clip-path="url(#clip612)" cx="324.629" cy="1189.75" r="14.4" fill="#e26f46" fill-rule="evenodd" fill-opacity="1" stroke="#000000" stroke-opacity="1" stroke-width="3.2"/>
<circle clip-path="url(#clip612)" cx="377.354" cy="1119.02" r="14.4" fill="#e26f46" fill-rule="evenodd" fill-opacity="1" stroke="#000000" stroke-opacity="1" stroke-width="3.2"/>
<circle clip-path="url(#clip612)" cx="380.869" cy="1083.66" r="14.4" fill="#e26f46" fill-rule="evenodd" fill-opacity="1" stroke="#000000" stroke-opacity="1" stroke-width="3.2"/>
<circle clip-path="url(#clip612)" cx="437.108" cy="1030.62" r="14.4" fill="#e26f46" fill-rule="evenodd" fill-opacity="1" stroke="#000000" stroke-opacity="1" stroke-width="3.2"/>
<circle clip-path="url(#clip612)" cx="489.832" cy="959.893" r="14.4" fill="#e26f46" fill-rule="evenodd" fill-opacity="1" stroke="#000000" stroke-opacity="1" stroke-width="3.2"/>
<circle clip-path="url(#clip612)" cx="546.071" cy="959.893" r="14.4" fill="#e26f46" fill-rule="evenodd" fill-opacity="1" stroke="#000000" stroke-opacity="1" stroke-width="3.2"/>
<circle clip-path="url(#clip612)" cx="549.586" cy="942.211" r="14.4" fill="#e26f46" fill-rule="evenodd" fill-opacity="1" stroke="#000000" stroke-opacity="1" stroke-width="3.2"/>
<circle clip-path="url(#clip612)" cx="553.101" cy="924.53" r="14.4" fill="#e26f46" fill-rule="evenodd" fill-opacity="1" stroke="#000000" stroke-opacity="1" stroke-width="3.2"/>
<circle clip-path="url(#clip612)" cx="602.31" cy="906.849" r="14.4" fill="#e26f46" fill-rule="evenodd" fill-opacity="1" stroke="#000000" stroke-opacity="1" stroke-width="3.2"/>
<circle clip-path="url(#clip612)" cx="605.825" cy="889.168" r="14.4" fill="#e26f46" fill-rule="evenodd" fill-opacity="1" stroke="#000000" stroke-opacity="1" stroke-width="3.2"/>
<circle clip-path="url(#clip612)" cx="609.34" cy="871.487" r="14.4" fill="#e26f46" fill-rule="evenodd" fill-opacity="1" stroke="#000000" stroke-opacity="1" stroke-width="3.2"/>
<circle clip-path="url(#clip612)" cx="658.55" cy="889.168" r="14.4" fill="#e26f46" fill-rule="evenodd" fill-opacity="1" stroke="#000000" stroke-opacity="1" stroke-width="3.2"/>
<circle clip-path="url(#clip612)" cx="662.065" cy="800.763" r="14.4" fill="#e26f46" fill-rule="evenodd" fill-opacity="1" stroke="#000000" stroke-opacity="1" stroke-width="3.2"/>
<circle clip-path="url(#clip612)" cx="714.789" cy="853.806" r="14.4" fill="#e26f46" fill-rule="evenodd" fill-opacity="1" stroke="#000000" stroke-opacity="1" stroke-width="3.2"/>
<circle clip-path="url(#clip612)" cx="718.304" cy="800.763" r="14.4" fill="#e26f46" fill-rule="evenodd" fill-opacity="1" stroke="#000000" stroke-opacity="1" stroke-width="3.2"/>
<circle clip-path="url(#clip612)" cx="721.819" cy="783.082" r="14.4" fill="#e26f46" fill-rule="evenodd" fill-opacity="1" stroke="#000000" stroke-opacity="1" stroke-width="3.2"/>
<circle clip-path="url(#clip612)" cx="771.028" cy="871.487" r="14.4" fill="#e26f46" fill-rule="evenodd" fill-opacity="1" stroke="#000000" stroke-opacity="1" stroke-width="3.2"/>
<circle clip-path="url(#clip612)" cx="774.543" cy="783.082" r="14.4" fill="#e26f46" fill-rule="evenodd" fill-opacity="1" stroke="#000000" stroke-opacity="1" stroke-width="3.2"/>
<circle clip-path="url(#clip612)" cx="778.058" cy="765.401" r="14.4" fill="#e26f46" fill-rule="evenodd" fill-opacity="1" stroke="#000000" stroke-opacity="1" stroke-width="3.2"/>
<circle clip-path="url(#clip612)" cx="827.267" cy="800.763" r="14.4" fill="#e26f46" fill-rule="evenodd" fill-opacity="1" stroke="#000000" stroke-opacity="1" stroke-width="3.2"/>
<circle clip-path="url(#clip612)" cx="830.782" cy="730.039" r="14.4" fill="#e26f46" fill-rule="evenodd" fill-opacity="1" stroke="#000000" stroke-opacity="1" stroke-width="3.2"/>
<circle clip-path="url(#clip612)" cx="883.506" cy="765.401" r="14.4" fill="#e26f46" fill-rule="evenodd" fill-opacity="1" stroke="#000000" stroke-opacity="1" stroke-width="3.2"/>
<circle clip-path="url(#clip612)" cx="887.021" cy="747.72" r="14.4" fill="#e26f46" fill-rule="evenodd" fill-opacity="1" stroke="#000000" stroke-opacity="1" stroke-width="3.2"/>
<circle clip-path="url(#clip612)" cx="890.536" cy="712.358" r="14.4" fill="#e26f46" fill-rule="evenodd" fill-opacity="1" stroke="#000000" stroke-opacity="1" stroke-width="3.2"/>
<circle clip-path="url(#clip612)" cx="939.746" cy="730.039" r="14.4" fill="#e26f46" fill-rule="evenodd" fill-opacity="1" stroke="#000000" stroke-opacity="1" stroke-width="3.2"/>
<circle clip-path="url(#clip612)" cx="943.261" cy="712.358" r="14.4" fill="#e26f46" fill-rule="evenodd" fill-opacity="1" stroke="#000000" stroke-opacity="1" stroke-width="3.2"/>
<circle clip-path="url(#clip612)" cx="995.985" cy="730.039" r="14.4" fill="#e26f46" fill-rule="evenodd" fill-opacity="1" stroke="#000000" stroke-opacity="1" stroke-width="3.2"/>
<circle clip-path="url(#clip612)" cx="1003.01" cy="676.995" r="14.4" fill="#e26f46" fill-rule="evenodd" fill-opacity="1" stroke="#000000" stroke-opacity="1" stroke-width="3.2"/>
<circle clip-path="url(#clip612)" cx="1055.74" cy="712.358" r="14.4" fill="#e26f46" fill-rule="evenodd" fill-opacity="1" stroke="#000000" stroke-opacity="1" stroke-width="3.2"/>
<circle clip-path="url(#clip612)" cx="1059.25" cy="694.676" r="14.4" fill="#e26f46" fill-rule="evenodd" fill-opacity="1" stroke="#000000" stroke-opacity="1" stroke-width="3.2"/>
<circle clip-path="url(#clip612)" cx="1111.98" cy="730.039" r="14.4" fill="#e26f46" fill-rule="evenodd" fill-opacity="1" stroke="#000000" stroke-opacity="1" stroke-width="3.2"/>
<circle clip-path="url(#clip612)" cx="1115.49" cy="676.995" r="14.4" fill="#e26f46" fill-rule="evenodd" fill-opacity="1" stroke="#000000" stroke-opacity="1" stroke-width="3.2"/>
<circle clip-path="url(#clip612)" cx="1168.22" cy="747.72" r="14.4" fill="#e26f46" fill-rule="evenodd" fill-opacity="1" stroke="#000000" stroke-opacity="1" stroke-width="3.2"/>
<circle clip-path="url(#clip612)" cx="1171.73" cy="676.995" r="14.4" fill="#e26f46" fill-rule="evenodd" fill-opacity="1" stroke="#000000" stroke-opacity="1" stroke-width="3.2"/>
<circle clip-path="url(#clip612)" cx="1175.25" cy="659.314" r="14.4" fill="#e26f46" fill-rule="evenodd" fill-opacity="1" stroke="#000000" stroke-opacity="1" stroke-width="3.2"/>
<circle clip-path="url(#clip612)" cx="1224.46" cy="694.676" r="14.4" fill="#e26f46" fill-rule="evenodd" fill-opacity="1" stroke="#000000" stroke-opacity="1" stroke-width="3.2"/>
<circle clip-path="url(#clip612)" cx="1227.97" cy="641.633" r="14.4" fill="#e26f46" fill-rule="evenodd" fill-opacity="1" stroke="#000000" stroke-opacity="1" stroke-width="3.2"/>
<circle clip-path="url(#clip612)" cx="1284.21" cy="606.271" r="14.4" fill="#e26f46" fill-rule="evenodd" fill-opacity="1" stroke="#000000" stroke-opacity="1" stroke-width="3.2"/>
<circle clip-path="url(#clip612)" cx="1336.94" cy="659.314" r="14.4" fill="#e26f46" fill-rule="evenodd" fill-opacity="1" stroke="#000000" stroke-opacity="1" stroke-width="3.2"/>
<circle clip-path="url(#clip612)" cx="1340.45" cy="588.59" r="14.4" fill="#e26f46" fill-rule="evenodd" fill-opacity="1" stroke="#000000" stroke-opacity="1" stroke-width="3.2"/>
<circle clip-path="url(#clip612)" cx="1393.17" cy="659.314" r="14.4" fill="#e26f46" fill-rule="evenodd" fill-opacity="1" stroke="#000000" stroke-opacity="1" stroke-width="3.2"/>
<circle clip-path="url(#clip612)" cx="1396.69" cy="535.547" r="14.4" fill="#e26f46" fill-rule="evenodd" fill-opacity="1" stroke="#000000" stroke-opacity="1" stroke-width="3.2"/>
<circle clip-path="url(#clip612)" cx="1449.41" cy="500.185" r="14.4" fill="#e26f46" fill-rule="evenodd" fill-opacity="1" stroke="#000000" stroke-opacity="1" stroke-width="3.2"/>
<circle clip-path="url(#clip612)" cx="1452.93" cy="464.822" r="14.4" fill="#e26f46" fill-rule="evenodd" fill-opacity="1" stroke="#000000" stroke-opacity="1" stroke-width="3.2"/>
<circle clip-path="url(#clip612)" cx="1456.44" cy="482.504" r="14.4" fill="#e26f46" fill-rule="evenodd" fill-opacity="1" stroke="#000000" stroke-opacity="1" stroke-width="3.2"/>
<circle clip-path="url(#clip612)" cx="1505.65" cy="517.866" r="14.4" fill="#e26f46" fill-rule="evenodd" fill-opacity="1" stroke="#000000" stroke-opacity="1" stroke-width="3.2"/>
<circle clip-path="url(#clip612)" cx="1509.17" cy="482.504" r="14.4" fill="#e26f46" fill-rule="evenodd" fill-opacity="1" stroke="#000000" stroke-opacity="1" stroke-width="3.2"/>
<circle clip-path="url(#clip612)" cx="1512.68" cy="464.822" r="14.4" fill="#e26f46" fill-rule="evenodd" fill-opacity="1" stroke="#000000" stroke-opacity="1" stroke-width="3.2"/>
<circle clip-path="url(#clip612)" cx="1561.89" cy="482.504" r="14.4" fill="#e26f46" fill-rule="evenodd" fill-opacity="1" stroke="#000000" stroke-opacity="1" stroke-width="3.2"/>
<circle clip-path="url(#clip612)" cx="1565.41" cy="376.417" r="14.4" fill="#e26f46" fill-rule="evenodd" fill-opacity="1" stroke="#000000" stroke-opacity="1" stroke-width="3.2"/>
<circle clip-path="url(#clip612)" cx="1568.92" cy="358.736" r="14.4" fill="#e26f46" fill-rule="evenodd" fill-opacity="1" stroke="#000000" stroke-opacity="1" stroke-width="3.2"/>
<circle clip-path="url(#clip612)" cx="1618.13" cy="447.141" r="14.4" fill="#e26f46" fill-rule="evenodd" fill-opacity="1" stroke="#000000" stroke-opacity="1" stroke-width="3.2"/>
<circle clip-path="url(#clip612)" cx="1621.65" cy="341.055" r="14.4" fill="#e26f46" fill-rule="evenodd" fill-opacity="1" stroke="#000000" stroke-opacity="1" stroke-width="3.2"/>
<circle clip-path="url(#clip612)" cx="1625.16" cy="305.693" r="14.4" fill="#e26f46" fill-rule="evenodd" fill-opacity="1" stroke="#000000" stroke-opacity="1" stroke-width="3.2"/>
<circle clip-path="url(#clip612)" cx="1674.37" cy="358.736" r="14.4" fill="#e26f46" fill-rule="evenodd" fill-opacity="1" stroke="#000000" stroke-opacity="1" stroke-width="3.2"/>
<circle clip-path="url(#clip612)" cx="1677.89" cy="270.331" r="14.4" fill="#e26f46" fill-rule="evenodd" fill-opacity="1" stroke="#000000" stroke-opacity="1" stroke-width="3.2"/>
<circle clip-path="url(#clip612)" cx="1681.4" cy="288.012" r="14.4" fill="#e26f46" fill-rule="evenodd" fill-opacity="1" stroke="#000000" stroke-opacity="1" stroke-width="3.2"/>
<circle clip-path="url(#clip612)" cx="1730.61" cy="305.693" r="14.4" fill="#e26f46" fill-rule="evenodd" fill-opacity="1" stroke="#000000" stroke-opacity="1" stroke-width="3.2"/>
<circle clip-path="url(#clip612)" cx="1734.12" cy="358.736" r="14.4" fill="#e26f46" fill-rule="evenodd" fill-opacity="1" stroke="#000000" stroke-opacity="1" stroke-width="3.2"/>
<circle clip-path="url(#clip612)" cx="1737.64" cy="323.374" r="14.4" fill="#e26f46" fill-rule="evenodd" fill-opacity="1" stroke="#000000" stroke-opacity="1" stroke-width="3.2"/>
<circle clip-path="url(#clip612)" cx="1790.36" cy="358.736" r="14.4" fill="#e26f46" fill-rule="evenodd" fill-opacity="1" stroke="#000000" stroke-opacity="1" stroke-width="3.2"/>
<circle clip-path="url(#clip612)" cx="1793.88" cy="252.65" r="14.4" fill="#e26f46" fill-rule="evenodd" fill-opacity="1" stroke="#000000" stroke-opacity="1" stroke-width="3.2"/>
<circle clip-path="url(#clip612)" cx="1846.6" cy="376.417" r="14.4" fill="#e26f46" fill-rule="evenodd" fill-opacity="1" stroke="#000000" stroke-opacity="1" stroke-width="3.2"/>
<circle clip-path="url(#clip612)" cx="1850.12" cy="252.65" r="14.4" fill="#e26f46" fill-rule="evenodd" fill-opacity="1" stroke="#000000" stroke-opacity="1" stroke-width="3.2"/>
<circle clip-path="url(#clip612)" cx="1902.84" cy="323.374" r="14.4" fill="#e26f46" fill-rule="evenodd" fill-opacity="1" stroke="#000000" stroke-opacity="1" stroke-width="3.2"/>
<circle clip-path="url(#clip612)" cx="1906.36" cy="234.969" r="14.4" fill="#e26f46" fill-rule="evenodd" fill-opacity="1" stroke="#000000" stroke-opacity="1" stroke-width="3.2"/>
<circle clip-path="url(#clip612)" cx="1959.08" cy="217.287" r="14.4" fill="#e26f46" fill-rule="evenodd" fill-opacity="1" stroke="#000000" stroke-opacity="1" stroke-width="3.2"/>
<circle clip-path="url(#clip612)" cx="1962.6" cy="181.925" r="14.4" fill="#e26f46" fill-rule="evenodd" fill-opacity="1" stroke="#000000" stroke-opacity="1" stroke-width="3.2"/>
<circle clip-path="url(#clip612)" cx="2015.32" cy="270.331" r="14.4" fill="#e26f46" fill-rule="evenodd" fill-opacity="1" stroke="#000000" stroke-opacity="1" stroke-width="3.2"/>
<circle clip-path="url(#clip612)" cx="2018.84" cy="217.287" r="14.4" fill="#e26f46" fill-rule="evenodd" fill-opacity="1" stroke="#000000" stroke-opacity="1" stroke-width="3.2"/>
<circle clip-path="url(#clip612)" cx="2022.35" cy="199.606" r="14.4" fill="#e26f46" fill-rule="evenodd" fill-opacity="1" stroke="#000000" stroke-opacity="1" stroke-width="3.2"/>
<circle clip-path="url(#clip612)" cx="2071.56" cy="252.65" r="14.4" fill="#e26f46" fill-rule="evenodd" fill-opacity="1" stroke="#000000" stroke-opacity="1" stroke-width="3.2"/>
<circle clip-path="url(#clip612)" cx="2075.07" cy="217.287" r="14.4" fill="#e26f46" fill-rule="evenodd" fill-opacity="1" stroke="#000000" stroke-opacity="1" stroke-width="3.2"/>
<circle clip-path="url(#clip612)" cx="2127.8" cy="234.969" r="14.4" fill="#e26f46" fill-rule="evenodd" fill-opacity="1" stroke="#000000" stroke-opacity="1" stroke-width="3.2"/>
<circle clip-path="url(#clip612)" cx="2131.31" cy="181.925" r="14.4" fill="#e26f46" fill-rule="evenodd" fill-opacity="1" stroke="#000000" stroke-opacity="1" stroke-width="3.2"/>
<circle clip-path="url(#clip612)" cx="2187.55" cy="164.244" r="14.4" fill="#e26f46" fill-rule="evenodd" fill-opacity="1" stroke="#000000" stroke-opacity="1" stroke-width="3.2"/>
<circle clip-path="url(#clip612)" cx="2191.07" cy="217.287" r="14.4" fill="#e26f46" fill-rule="evenodd" fill-opacity="1" stroke="#000000" stroke-opacity="1" stroke-width="3.2"/>
<circle clip-path="url(#clip612)" cx="2240.28" cy="288.012" r="14.4" fill="#e26f46" fill-rule="evenodd" fill-opacity="1" stroke="#000000" stroke-opacity="1" stroke-width="3.2"/>
<circle clip-path="url(#clip612)" cx="2243.79" cy="252.65" r="14.4" fill="#e26f46" fill-rule="evenodd" fill-opacity="1" stroke="#000000" stroke-opacity="1" stroke-width="3.2"/>
<circle clip-path="url(#clip612)" cx="2247.31" cy="217.287" r="14.4" fill="#e26f46" fill-rule="evenodd" fill-opacity="1" stroke="#000000" stroke-opacity="1" stroke-width="3.2"/>
<circle clip-path="url(#clip612)" cx="2296.52" cy="270.331" r="14.4" fill="#e26f46" fill-rule="evenodd" fill-opacity="1" stroke="#000000" stroke-opacity="1" stroke-width="3.2"/>
<circle clip-path="url(#clip612)" cx="2300.03" cy="234.969" r="14.4" fill="#e26f46" fill-rule="evenodd" fill-opacity="1" stroke="#000000" stroke-opacity="1" stroke-width="3.2"/>
<circle clip-path="url(#clip612)" cx="2303.55" cy="199.606" r="14.4" fill="#e26f46" fill-rule="evenodd" fill-opacity="1" stroke="#000000" stroke-opacity="1" stroke-width="3.2"/>
<circle clip-path="url(#clip612)" cx="2352.76" cy="234.969" r="14.4" fill="#e26f46" fill-rule="evenodd" fill-opacity="1" stroke="#000000" stroke-opacity="1" stroke-width="3.2"/>
<path clip-path="url(#clip610)" d="
M1843.79 832.916 L2281.17 832.916 L2281.17 677.396 L1843.79 677.396  Z
  " fill="#ffffff" fill-rule="evenodd" fill-opacity="1"/>
<polyline clip-path="url(#clip610)" style="stroke:#000000; stroke-linecap:round; stroke-linejoin:round; stroke-width:4; stroke-opacity:1; fill:none" points="
  1843.79,832.916 2281.17,832.916 2281.17,677.396 1843.79,677.396 1843.79,832.916 
  "/>
<polyline clip-path="url(#clip610)" style="stroke:#009af9; stroke-linecap:round; stroke-linejoin:round; stroke-width:4; stroke-opacity:1; fill:none" points="
  1867.65,729.236 2010.83,729.236 
  "/>
<path clip-path="url(#clip610)" d="M2034.69 711.956 L2054.55 711.956 L2054.55 715.892 L2039.37 715.892 L2039.37 726.077 L2053.07 726.077 L2053.07 730.012 L2039.37 730.012 L2039.37 746.516 L2034.69 746.516 L2034.69 711.956 Z" fill="#000000" fill-rule="evenodd" fill-opacity="1" /><path clip-path="url(#clip610)" d="M2058.33 720.591 L2062.58 720.591 L2062.58 746.516 L2058.33 746.516 L2058.33 720.591 M2058.33 710.498 L2062.58 710.498 L2062.58 715.892 L2058.33 715.892 L2058.33 710.498 Z" fill="#000000" fill-rule="evenodd" fill-opacity="1" /><path clip-path="url(#clip610)" d="M2075.71 713.23 L2075.71 720.591 L2084.48 720.591 L2084.48 723.901 L2075.71 723.901 L2075.71 737.975 Q2075.71 741.146 2076.57 742.049 Q2077.45 742.952 2080.11 742.952 L2084.48 742.952 L2084.48 746.516 L2080.11 746.516 Q2075.18 746.516 2073.3 744.688 Q2071.43 742.836 2071.43 737.975 L2071.43 723.901 L2068.3 723.901 L2068.3 720.591 L2071.43 720.591 L2071.43 713.23 L2075.71 713.23 Z" fill="#000000" fill-rule="evenodd" fill-opacity="1" /><circle clip-path="url(#clip610)" cx="1939.24" cy="781.076" r="23.04" fill="#e26f46" fill-rule="evenodd" fill-opacity="1" stroke="#000000" stroke-opacity="1" stroke-width="5.12"/>
<path clip-path="url(#clip610)" d="M2034.69 763.796 L2041.66 763.796 L2050.48 787.315 L2059.34 763.796 L2066.31 763.796 L2066.31 798.356 L2061.75 798.356 L2061.75 768.009 L2052.84 791.713 L2048.14 791.713 L2039.23 768.009 L2039.23 798.356 L2034.69 798.356 L2034.69 763.796 Z" fill="#000000" fill-rule="evenodd" fill-opacity="1" /><path clip-path="url(#clip610)" d="M2097.58 784.329 L2097.58 786.412 L2078 786.412 Q2078.28 790.81 2080.64 793.125 Q2083.02 795.417 2087.26 795.417 Q2089.71 795.417 2092.01 794.815 Q2094.32 794.213 2096.59 793.009 L2096.59 797.037 Q2094.3 798.009 2091.89 798.519 Q2089.48 799.028 2087.01 799.028 Q2080.8 799.028 2077.17 795.417 Q2073.56 791.806 2073.56 785.648 Q2073.56 779.283 2076.98 775.556 Q2080.43 771.806 2086.26 771.806 Q2091.5 771.806 2094.53 775.185 Q2097.58 778.542 2097.58 784.329 M2093.32 783.079 Q2093.28 779.583 2091.36 777.5 Q2089.46 775.417 2086.31 775.417 Q2082.75 775.417 2080.59 777.431 Q2078.46 779.445 2078.14 783.102 L2093.32 783.079 Z" fill="#000000" fill-rule="evenodd" fill-opacity="1" /><path clip-path="url(#clip610)" d="M2116.36 785.324 Q2111.2 785.324 2109.2 786.505 Q2107.21 787.685 2107.21 790.532 Q2107.21 792.801 2108.7 794.144 Q2110.2 795.463 2112.77 795.463 Q2116.31 795.463 2118.44 792.963 Q2120.59 790.44 2120.59 786.273 L2120.59 785.324 L2116.36 785.324 M2124.85 783.565 L2124.85 798.356 L2120.59 798.356 L2120.59 794.421 Q2119.13 796.782 2116.96 797.917 Q2114.78 799.028 2111.63 799.028 Q2107.65 799.028 2105.29 796.806 Q2102.95 794.56 2102.95 790.81 Q2102.95 786.435 2105.87 784.213 Q2108.81 781.991 2114.62 781.991 L2120.59 781.991 L2120.59 781.574 Q2120.59 778.634 2118.65 777.037 Q2116.73 775.417 2113.23 775.417 Q2111.01 775.417 2108.9 775.949 Q2106.8 776.482 2104.85 777.546 L2104.85 773.611 Q2107.19 772.708 2109.39 772.269 Q2111.59 771.806 2113.67 771.806 Q2119.3 771.806 2122.07 774.722 Q2124.85 777.639 2124.85 783.565 Z" fill="#000000" fill-rule="evenodd" fill-opacity="1" /><path clip-path="url(#clip610)" d="M2150.15 773.195 L2150.15 777.222 Q2148.35 776.296 2146.4 775.833 Q2144.46 775.371 2142.38 775.371 Q2139.2 775.371 2137.61 776.343 Q2136.03 777.315 2136.03 779.259 Q2136.03 780.741 2137.17 781.597 Q2138.3 782.431 2141.73 783.195 L2143.19 783.519 Q2147.72 784.491 2149.62 786.273 Q2151.54 788.032 2151.54 791.204 Q2151.54 794.815 2148.67 796.921 Q2145.82 799.028 2140.82 799.028 Q2138.74 799.028 2136.47 798.611 Q2134.23 798.218 2131.73 797.407 L2131.73 793.009 Q2134.09 794.236 2136.38 794.861 Q2138.67 795.463 2140.92 795.463 Q2143.93 795.463 2145.55 794.444 Q2147.17 793.403 2147.17 791.528 Q2147.17 789.792 2145.99 788.866 Q2144.83 787.94 2140.87 787.083 L2139.39 786.736 Q2135.43 785.903 2133.67 784.19 Q2131.91 782.454 2131.91 779.445 Q2131.91 775.787 2134.51 773.796 Q2137.1 771.806 2141.87 771.806 Q2144.23 771.806 2146.31 772.153 Q2148.39 772.5 2150.15 773.195 Z" fill="#000000" fill-rule="evenodd" fill-opacity="1" /><path clip-path="url(#clip610)" d="M2157.88 788.125 L2157.88 772.431 L2162.14 772.431 L2162.14 787.963 Q2162.14 791.644 2163.58 793.495 Q2165.01 795.324 2167.88 795.324 Q2171.33 795.324 2173.32 793.125 Q2175.34 790.926 2175.34 787.13 L2175.34 772.431 L2179.6 772.431 L2179.6 798.356 L2175.34 798.356 L2175.34 794.375 Q2173.79 796.736 2171.73 797.894 Q2169.69 799.028 2166.98 799.028 Q2162.51 799.028 2160.2 796.25 Q2157.88 793.472 2157.88 788.125 M2168.6 771.806 L2168.6 771.806 Z" fill="#000000" fill-rule="evenodd" fill-opacity="1" /><path clip-path="url(#clip610)" d="M2203.39 776.412 Q2202.68 775.996 2201.82 775.81 Q2200.99 775.602 2199.97 775.602 Q2196.36 775.602 2194.41 777.963 Q2192.49 780.301 2192.49 784.699 L2192.49 798.356 L2188.21 798.356 L2188.21 772.431 L2192.49 772.431 L2192.49 776.458 Q2193.83 774.097 2195.99 772.963 Q2198.14 771.806 2201.22 771.806 Q2201.66 771.806 2202.19 771.875 Q2202.72 771.921 2203.37 772.037 L2203.39 776.412 Z" fill="#000000" fill-rule="evenodd" fill-opacity="1" /><path clip-path="url(#clip610)" d="M2229 784.329 L2229 786.412 L2209.41 786.412 Q2209.69 790.81 2212.05 793.125 Q2214.44 795.417 2218.67 795.417 Q2221.13 795.417 2223.42 794.815 Q2225.73 794.213 2228 793.009 L2228 797.037 Q2225.71 798.009 2223.3 798.519 Q2220.89 799.028 2218.42 799.028 Q2212.21 799.028 2208.58 795.417 Q2204.97 791.806 2204.97 785.648 Q2204.97 779.283 2208.39 775.556 Q2211.84 771.806 2217.68 771.806 Q2222.91 771.806 2225.94 775.185 Q2229 778.542 2229 784.329 M2224.74 783.079 Q2224.69 779.583 2222.77 777.5 Q2220.87 775.417 2217.72 775.417 Q2214.16 775.417 2212 777.431 Q2209.88 779.445 2209.55 783.102 L2224.74 783.079 Z" fill="#000000" fill-rule="evenodd" fill-opacity="1" /><path clip-path="url(#clip610)" d="M2253.05 776.366 L2253.05 762.338 L2257.31 762.338 L2257.31 798.356 L2253.05 798.356 L2253.05 794.468 Q2251.7 796.782 2249.64 797.917 Q2247.61 799.028 2244.74 799.028 Q2240.04 799.028 2237.07 795.278 Q2234.13 791.528 2234.13 785.417 Q2234.13 779.306 2237.07 775.556 Q2240.04 771.806 2244.74 771.806 Q2247.61 771.806 2249.64 772.94 Q2251.7 774.051 2253.05 776.366 M2238.53 785.417 Q2238.53 790.116 2240.45 792.801 Q2242.4 795.463 2245.78 795.463 Q2249.16 795.463 2251.1 792.801 Q2253.05 790.116 2253.05 785.417 Q2253.05 780.718 2251.1 778.056 Q2249.16 775.371 2245.78 775.371 Q2242.4 775.371 2240.45 778.056 Q2238.53 780.718 2238.53 785.417 Z" fill="#000000" fill-rule="evenodd" fill-opacity="1" /></svg>
