<?xml version="1.0" encoding="utf-8"?>
<svg xmlns="http://www.w3.org/2000/svg" xmlns:xlink="http://www.w3.org/1999/xlink" width="600" height="400" viewBox="0 0 2400 1600">
<defs>
  <clipPath id="clip570">
    <rect x="0" y="0" width="2400" height="1600"/>
  </clipPath>
</defs>
<path clip-path="url(#clip570)" d="
M0 1600 L2400 1600 L2400 0 L0 0  Z
  " fill="#ffffff" fill-rule="evenodd" fill-opacity="1"/>
<defs>
  <clipPath id="clip571">
    <rect x="480" y="0" width="1681" height="1600"/>
  </clipPath>
</defs>
<path clip-path="url(#clip570)" d="
M234.125 1423.18 L2352.76 1423.18 L2352.76 47.2441 L234.125 47.2441  Z
  " fill="#ffffff" fill-rule="evenodd" fill-opacity="1"/>
<defs>
  <clipPath id="clip572">
    <rect x="234" y="47" width="2120" height="1377"/>
  </clipPath>
</defs>
<polyline clip-path="url(#clip572)" style="stroke:#000000; stroke-linecap:round; stroke-linejoin:round; stroke-width:2; stroke-opacity:0.1; fill:none" points="
  473.408,1423.18 473.408,47.2441 
  "/>
<polyline clip-path="url(#clip572)" style="stroke:#000000; stroke-linecap:round; stroke-linejoin:round; stroke-width:2; stroke-opacity:0.1; fill:none" points="
  746.097,1423.18 746.097,47.2441 
  "/>
<polyline clip-path="url(#clip572)" style="stroke:#000000; stroke-linecap:round; stroke-linejoin:round; stroke-width:2; stroke-opacity:0.1; fill:none" points="
  1018.79,1423.18 1018.79,47.2441 
  "/>
<polyline clip-path="url(#clip572)" style="stroke:#000000; stroke-linecap:round; stroke-linejoin:round; stroke-width:2; stroke-opacity:0.1; fill:none" points="
  1291.48,1423.18 1291.48,47.2441 
  "/>
<polyline clip-path="url(#clip572)" style="stroke:#000000; stroke-linecap:round; stroke-linejoin:round; stroke-width:2; stroke-opacity:0.1; fill:none" points="
  1564.17,1423.18 1564.17,47.2441 
  "/>
<polyline clip-path="url(#clip572)" style="stroke:#000000; stroke-linecap:round; stroke-linejoin:round; stroke-width:2; stroke-opacity:0.1; fill:none" points="
  1836.86,1423.18 1836.86,47.2441 
  "/>
<polyline clip-path="url(#clip572)" style="stroke:#000000; stroke-linecap:round; stroke-linejoin:round; stroke-width:2; stroke-opacity:0.1; fill:none" points="
  2109.55,1423.18 2109.55,47.2441 
  "/>
<polyline clip-path="url(#clip570)" style="stroke:#000000; stroke-linecap:round; stroke-linejoin:round; stroke-width:4; stroke-opacity:1; fill:none" points="
  234.125,1423.18 2352.76,1423.18 
  "/>
<polyline clip-path="url(#clip570)" style="stroke:#000000; stroke-linecap:round; stroke-linejoin:round; stroke-width:4; stroke-opacity:1; fill:none" points="
  473.408,1423.18 473.408,1404.28 
  "/>
<polyline clip-path="url(#clip570)" style="stroke:#000000; stroke-linecap:round; stroke-linejoin:round; stroke-width:4; stroke-opacity:1; fill:none" points="
  746.097,1423.18 746.097,1404.28 
  "/>
<polyline clip-path="url(#clip570)" style="stroke:#000000; stroke-linecap:round; stroke-linejoin:round; stroke-width:4; stroke-opacity:1; fill:none" points="
  1018.79,1423.18 1018.79,1404.28 
  "/>
<polyline clip-path="url(#clip570)" style="stroke:#000000; stroke-linecap:round; stroke-linejoin:round; stroke-width:4; stroke-opacity:1; fill:none" points="
  1291.48,1423.18 1291.48,1404.28 
  "/>
<polyline clip-path="url(#clip570)" style="stroke:#000000; stroke-linecap:round; stroke-linejoin:round; stroke-width:4; stroke-opacity:1; fill:none" points="
  1564.17,1423.18 1564.17,1404.28 
  "/>
<polyline clip-path="url(#clip570)" style="stroke:#000000; stroke-linecap:round; stroke-linejoin:round; stroke-width:4; stroke-opacity:1; fill:none" points="
  1836.86,1423.18 1836.86,1404.28 
  "/>
<polyline clip-path="url(#clip570)" style="stroke:#000000; stroke-linecap:round; stroke-linejoin:round; stroke-width:4; stroke-opacity:1; fill:none" points="
  2109.55,1423.18 2109.55,1404.28 
  "/>
<path clip-path="url(#clip570)" d="M409.947 1481.64 L417.586 1481.64 L417.586 1455.28 L409.276 1456.95 L409.276 1452.69 L417.54 1451.02 L422.216 1451.02 L422.216 1481.64 L429.855 1481.64 L429.855 1485.58 L409.947 1485.58 L409.947 1481.64 Z" fill="#000000" fill-rule="evenodd" fill-opacity="1" /><path clip-path="url(#clip570)" d="M439.345 1451.02 L457.702 1451.02 L457.702 1454.96 L443.628 1454.96 L443.628 1463.43 Q444.646 1463.08 445.665 1462.92 Q446.683 1462.73 447.702 1462.73 Q453.489 1462.73 456.868 1465.9 Q460.248 1469.08 460.248 1474.49 Q460.248 1480.07 456.776 1483.17 Q453.304 1486.25 446.984 1486.25 Q444.808 1486.25 442.54 1485.88 Q440.294 1485.51 437.887 1484.77 L437.887 1480.07 Q439.97 1481.2 442.192 1481.76 Q444.415 1482.32 446.892 1482.32 Q450.896 1482.32 453.234 1480.21 Q455.572 1478.1 455.572 1474.49 Q455.572 1470.88 453.234 1468.77 Q450.896 1466.67 446.892 1466.67 Q445.017 1466.67 443.142 1467.08 Q441.29 1467.5 439.345 1468.38 L439.345 1451.02 Z" fill="#000000" fill-rule="evenodd" fill-opacity="1" /><path clip-path="url(#clip570)" d="M469.947 1479.7 L474.831 1479.7 L474.831 1485.58 L469.947 1485.58 L469.947 1479.7 M469.947 1461.07 L474.831 1461.07 L474.831 1466.95 L469.947 1466.95 L469.947 1461.07 Z" fill="#000000" fill-rule="evenodd" fill-opacity="1" /><path clip-path="url(#clip570)" d="M486.243 1481.64 L493.882 1481.64 L493.882 1455.28 L485.572 1456.95 L485.572 1452.69 L493.836 1451.02 L498.512 1451.02 L498.512 1481.64 L506.15 1481.64 L506.15 1485.58 L486.243 1485.58 L486.243 1481.64 Z" fill="#000000" fill-rule="evenodd" fill-opacity="1" /><path clip-path="url(#clip570)" d="M525.595 1454.1 Q521.984 1454.1 520.155 1457.66 Q518.349 1461.2 518.349 1468.33 Q518.349 1475.44 520.155 1479.01 Q521.984 1482.55 525.595 1482.55 Q529.229 1482.55 531.035 1479.01 Q532.863 1475.44 532.863 1468.33 Q532.863 1461.2 531.035 1457.66 Q529.229 1454.1 525.595 1454.1 M525.595 1450.39 Q531.405 1450.39 534.46 1455 Q537.539 1459.58 537.539 1468.33 Q537.539 1477.06 534.46 1481.67 Q531.405 1486.25 525.595 1486.25 Q519.785 1486.25 516.706 1481.67 Q513.65 1477.06 513.65 1468.33 Q513.65 1459.58 516.706 1455 Q519.785 1450.39 525.595 1450.39 Z" fill="#000000" fill-rule="evenodd" fill-opacity="1" /><path clip-path="url(#clip570)" d="M682.961 1481.64 L690.6 1481.64 L690.6 1455.28 L682.29 1456.95 L682.29 1452.69 L690.554 1451.02 L695.23 1451.02 L695.23 1481.64 L702.869 1481.64 L702.869 1485.58 L682.961 1485.58 L682.961 1481.64 Z" fill="#000000" fill-rule="evenodd" fill-opacity="1" /><path clip-path="url(#clip570)" d="M722.892 1466.44 Q719.743 1466.44 717.892 1468.59 Q716.063 1470.74 716.063 1474.49 Q716.063 1478.22 717.892 1480.39 Q719.743 1482.55 722.892 1482.55 Q726.04 1482.55 727.868 1480.39 Q729.72 1478.22 729.72 1474.49 Q729.72 1470.74 727.868 1468.59 Q726.04 1466.44 722.892 1466.44 M732.174 1451.78 L732.174 1456.04 Q730.415 1455.21 728.609 1454.77 Q726.827 1454.33 725.068 1454.33 Q720.438 1454.33 717.984 1457.45 Q715.554 1460.58 715.206 1466.9 Q716.572 1464.89 718.632 1463.82 Q720.693 1462.73 723.169 1462.73 Q728.378 1462.73 731.387 1465.9 Q734.419 1469.05 734.419 1474.49 Q734.419 1479.82 731.271 1483.03 Q728.123 1486.25 722.892 1486.25 Q716.896 1486.25 713.725 1481.67 Q710.554 1477.06 710.554 1468.33 Q710.554 1460.14 714.443 1455.28 Q718.331 1450.39 724.882 1450.39 Q726.642 1450.39 728.424 1450.74 Q730.23 1451.09 732.174 1451.78 Z" fill="#000000" fill-rule="evenodd" fill-opacity="1" /><path clip-path="url(#clip570)" d="M742.961 1479.7 L747.845 1479.7 L747.845 1485.58 L742.961 1485.58 L742.961 1479.7 M742.961 1461.07 L747.845 1461.07 L747.845 1466.95 L742.961 1466.95 L742.961 1461.07 Z" fill="#000000" fill-rule="evenodd" fill-opacity="1" /><path clip-path="url(#clip570)" d="M772.614 1466.95 Q775.97 1467.66 777.845 1469.93 Q779.743 1472.2 779.743 1475.53 Q779.743 1480.65 776.225 1483.45 Q772.706 1486.25 766.225 1486.25 Q764.049 1486.25 761.734 1485.81 Q759.442 1485.39 756.989 1484.54 L756.989 1480.02 Q758.933 1481.16 761.248 1481.74 Q763.563 1482.32 766.086 1482.32 Q770.484 1482.32 772.776 1480.58 Q775.09 1478.84 775.09 1475.53 Q775.09 1472.48 772.938 1470.77 Q770.808 1469.03 766.989 1469.03 L762.961 1469.03 L762.961 1465.19 L767.174 1465.19 Q770.623 1465.19 772.452 1463.82 Q774.28 1462.43 774.28 1459.84 Q774.28 1457.18 772.382 1455.77 Q770.507 1454.33 766.989 1454.33 Q765.067 1454.33 762.868 1454.75 Q760.669 1455.16 758.03 1456.04 L758.03 1451.88 Q760.692 1451.14 763.007 1450.77 Q765.345 1450.39 767.405 1450.39 Q772.729 1450.39 775.831 1452.83 Q778.933 1455.23 778.933 1459.35 Q778.933 1462.22 777.289 1464.21 Q775.646 1466.18 772.614 1466.95 Z" fill="#000000" fill-rule="evenodd" fill-opacity="1" /><path clip-path="url(#clip570)" d="M802.775 1466.95 Q806.132 1467.66 808.007 1469.93 Q809.905 1472.2 809.905 1475.53 Q809.905 1480.65 806.387 1483.45 Q802.868 1486.25 796.387 1486.25 Q794.211 1486.25 791.896 1485.81 Q789.604 1485.39 787.151 1484.54 L787.151 1480.02 Q789.095 1481.16 791.41 1481.74 Q793.725 1482.32 796.248 1482.32 Q800.646 1482.32 802.937 1480.58 Q805.252 1478.84 805.252 1475.53 Q805.252 1472.48 803.099 1470.77 Q800.97 1469.03 797.15 1469.03 L793.123 1469.03 L793.123 1465.19 L797.336 1465.19 Q800.785 1465.19 802.613 1463.82 Q804.442 1462.43 804.442 1459.84 Q804.442 1457.18 802.544 1455.77 Q800.669 1454.33 797.15 1454.33 Q795.229 1454.33 793.03 1454.75 Q790.831 1455.16 788.192 1456.04 L788.192 1451.88 Q790.854 1451.14 793.169 1450.77 Q795.507 1450.39 797.567 1450.39 Q802.891 1450.39 805.993 1452.83 Q809.095 1455.23 809.095 1459.35 Q809.095 1462.22 807.451 1464.21 Q805.808 1466.18 802.775 1466.95 Z" fill="#000000" fill-rule="evenodd" fill-opacity="1" /><path clip-path="url(#clip570)" d="M955.246 1481.64 L962.885 1481.64 L962.885 1455.28 L954.575 1456.95 L954.575 1452.69 L962.839 1451.02 L967.515 1451.02 L967.515 1481.64 L975.153 1481.64 L975.153 1485.58 L955.246 1485.58 L955.246 1481.64 Z" fill="#000000" fill-rule="evenodd" fill-opacity="1" /><path clip-path="url(#clip570)" d="M983.417 1451.02 L1005.64 1451.02 L1005.64 1453.01 L993.093 1485.58 L988.209 1485.58 L1000.01 1454.96 L983.417 1454.96 L983.417 1451.02 Z" fill="#000000" fill-rule="evenodd" fill-opacity="1" /><path clip-path="url(#clip570)" d="M1015.25 1479.7 L1020.13 1479.7 L1020.13 1485.58 L1015.25 1485.58 L1015.25 1479.7 M1015.25 1461.07 L1020.13 1461.07 L1020.13 1466.95 L1015.25 1466.95 L1015.25 1461.07 Z" fill="#000000" fill-rule="evenodd" fill-opacity="1" /><path clip-path="url(#clip570)" d="M1030.78 1451.02 L1049.13 1451.02 L1049.13 1454.96 L1035.06 1454.96 L1035.06 1463.43 Q1036.08 1463.08 1037.1 1462.92 Q1038.12 1462.73 1039.13 1462.73 Q1044.92 1462.73 1048.3 1465.9 Q1051.68 1469.08 1051.68 1474.49 Q1051.68 1480.07 1048.21 1483.17 Q1044.74 1486.25 1038.42 1486.25 Q1036.24 1486.25 1033.97 1485.88 Q1031.73 1485.51 1029.32 1484.77 L1029.32 1480.07 Q1031.4 1481.2 1033.63 1481.76 Q1035.85 1482.32 1038.32 1482.32 Q1042.33 1482.32 1044.67 1480.21 Q1047 1478.1 1047 1474.49 Q1047 1470.88 1044.67 1468.77 Q1042.33 1466.67 1038.32 1466.67 Q1036.45 1466.67 1034.57 1467.08 Q1032.72 1467.5 1030.78 1468.38 L1030.78 1451.02 Z" fill="#000000" fill-rule="evenodd" fill-opacity="1" /><path clip-path="url(#clip570)" d="M1071.47 1466.44 Q1068.32 1466.44 1066.47 1468.59 Q1064.64 1470.74 1064.64 1474.49 Q1064.64 1478.22 1066.47 1480.39 Q1068.32 1482.55 1071.47 1482.55 Q1074.62 1482.55 1076.45 1480.39 Q1078.3 1478.22 1078.3 1474.49 Q1078.3 1470.74 1076.45 1468.59 Q1074.62 1466.44 1071.47 1466.44 M1080.75 1451.78 L1080.75 1456.04 Q1079 1455.21 1077.19 1454.77 Q1075.41 1454.33 1073.65 1454.33 Q1069.02 1454.33 1066.56 1457.45 Q1064.13 1460.58 1063.79 1466.9 Q1065.15 1464.89 1067.21 1463.82 Q1069.27 1462.73 1071.75 1462.73 Q1076.96 1462.73 1079.97 1465.9 Q1083 1469.05 1083 1474.49 Q1083 1479.82 1079.85 1483.03 Q1076.7 1486.25 1071.47 1486.25 Q1065.48 1486.25 1062.31 1481.67 Q1059.13 1477.06 1059.13 1468.33 Q1059.13 1460.14 1063.02 1455.28 Q1066.91 1450.39 1073.46 1450.39 Q1075.22 1450.39 1077 1450.74 Q1078.81 1451.09 1080.75 1451.78 Z" fill="#000000" fill-rule="evenodd" fill-opacity="1" /><path clip-path="url(#clip570)" d="M1228.02 1481.64 L1235.66 1481.64 L1235.66 1455.28 L1227.35 1456.95 L1227.35 1452.69 L1235.61 1451.02 L1240.29 1451.02 L1240.29 1481.64 L1247.92 1481.64 L1247.92 1485.58 L1228.02 1485.58 L1228.02 1481.64 Z" fill="#000000" fill-rule="evenodd" fill-opacity="1" /><path clip-path="url(#clip570)" d="M1257.51 1484.86 L1257.51 1480.6 Q1259.27 1481.44 1261.07 1481.88 Q1262.88 1482.32 1264.61 1482.32 Q1269.24 1482.32 1271.67 1479.21 Q1274.13 1476.09 1274.48 1469.75 Q1273.13 1471.74 1271.07 1472.8 Q1269.01 1473.87 1266.51 1473.87 Q1261.33 1473.87 1258.29 1470.74 Q1255.29 1467.59 1255.29 1462.15 Q1255.29 1456.83 1258.43 1453.61 Q1261.58 1450.39 1266.81 1450.39 Q1272.81 1450.39 1275.96 1455 Q1279.13 1459.58 1279.13 1468.33 Q1279.13 1476.51 1275.24 1481.39 Q1271.37 1486.25 1264.82 1486.25 Q1263.06 1486.25 1261.26 1485.9 Q1259.45 1485.56 1257.51 1484.86 M1266.81 1470.21 Q1269.96 1470.21 1271.79 1468.06 Q1273.64 1465.9 1273.64 1462.15 Q1273.64 1458.43 1271.79 1456.27 Q1269.96 1454.1 1266.81 1454.1 Q1263.66 1454.1 1261.81 1456.27 Q1259.98 1458.43 1259.98 1462.15 Q1259.98 1465.9 1261.81 1468.06 Q1263.66 1470.21 1266.81 1470.21 Z" fill="#000000" fill-rule="evenodd" fill-opacity="1" /><path clip-path="url(#clip570)" d="M1288.02 1479.7 L1292.9 1479.7 L1292.9 1485.58 L1288.02 1485.58 L1288.02 1479.7 M1288.02 1461.07 L1292.9 1461.07 L1292.9 1466.95 L1288.02 1466.95 L1288.02 1461.07 Z" fill="#000000" fill-rule="evenodd" fill-opacity="1" /><path clip-path="url(#clip570)" d="M1307.53 1481.64 L1323.85 1481.64 L1323.85 1485.58 L1301.91 1485.58 L1301.91 1481.64 Q1304.57 1478.89 1309.15 1474.26 Q1313.76 1469.61 1314.94 1468.27 Q1317.18 1465.74 1318.06 1464.01 Q1318.97 1462.25 1318.97 1460.56 Q1318.97 1457.8 1317.02 1456.07 Q1315.1 1454.33 1312 1454.33 Q1309.8 1454.33 1307.35 1455.09 Q1304.91 1455.86 1302.14 1457.41 L1302.14 1452.69 Q1304.96 1451.55 1307.41 1450.97 Q1309.87 1450.39 1311.91 1450.39 Q1317.28 1450.39 1320.47 1453.08 Q1323.66 1455.77 1323.66 1460.26 Q1323.66 1462.39 1322.85 1464.31 Q1322.07 1466.2 1319.96 1468.8 Q1319.38 1469.47 1316.28 1472.69 Q1313.18 1475.88 1307.53 1481.64 Z" fill="#000000" fill-rule="evenodd" fill-opacity="1" /><path clip-path="url(#clip570)" d="M1343.66 1454.1 Q1340.05 1454.1 1338.22 1457.66 Q1336.42 1461.2 1336.42 1468.33 Q1336.42 1475.44 1338.22 1479.01 Q1340.05 1482.55 1343.66 1482.55 Q1347.3 1482.55 1349.1 1479.01 Q1350.93 1475.44 1350.93 1468.33 Q1350.93 1461.2 1349.1 1457.66 Q1347.3 1454.1 1343.66 1454.1 M1343.66 1450.39 Q1349.47 1450.39 1352.53 1455 Q1355.61 1459.58 1355.61 1468.33 Q1355.61 1477.06 1352.53 1481.67 Q1349.47 1486.25 1343.66 1486.25 Q1337.85 1486.25 1334.78 1481.67 Q1331.72 1477.06 1331.72 1468.33 Q1331.72 1459.58 1334.78 1455 Q1337.85 1450.39 1343.66 1450.39 Z" fill="#000000" fill-rule="evenodd" fill-opacity="1" /><path clip-path="url(#clip570)" d="M1505.12 1481.64 L1521.44 1481.64 L1521.44 1485.58 L1499.49 1485.58 L1499.49 1481.64 Q1502.15 1478.89 1506.74 1474.26 Q1511.34 1469.61 1512.52 1468.27 Q1514.77 1465.74 1515.65 1464.01 Q1516.55 1462.25 1516.55 1460.56 Q1516.55 1457.8 1514.61 1456.07 Q1512.69 1454.33 1509.58 1454.33 Q1507.39 1454.33 1504.93 1455.09 Q1502.5 1455.86 1499.72 1457.41 L1499.72 1452.69 Q1502.55 1451.55 1505 1450.97 Q1507.45 1450.39 1509.49 1450.39 Q1514.86 1450.39 1518.06 1453.08 Q1521.25 1455.77 1521.25 1460.26 Q1521.25 1462.39 1520.44 1464.31 Q1519.65 1466.2 1517.55 1468.8 Q1516.97 1469.47 1513.87 1472.69 Q1510.76 1475.88 1505.12 1481.64 Z" fill="#000000" fill-rule="evenodd" fill-opacity="1" /><path clip-path="url(#clip570)" d="M1541.25 1454.1 Q1537.64 1454.1 1535.81 1457.66 Q1534.01 1461.2 1534.01 1468.33 Q1534.01 1475.44 1535.81 1479.01 Q1537.64 1482.55 1541.25 1482.55 Q1544.88 1482.55 1546.69 1479.01 Q1548.52 1475.44 1548.52 1468.33 Q1548.52 1461.2 1546.69 1457.66 Q1544.88 1454.1 1541.25 1454.1 M1541.25 1450.39 Q1547.06 1450.39 1550.12 1455 Q1553.2 1459.58 1553.2 1468.33 Q1553.2 1477.06 1550.12 1481.67 Q1547.06 1486.25 1541.25 1486.25 Q1535.44 1486.25 1532.36 1481.67 Q1529.31 1477.06 1529.31 1468.33 Q1529.31 1459.58 1532.36 1455 Q1535.44 1450.39 1541.25 1450.39 Z" fill="#000000" fill-rule="evenodd" fill-opacity="1" /><path clip-path="url(#clip570)" d="M1561.9 1479.7 L1566.78 1479.7 L1566.78 1485.58 L1561.9 1485.58 L1561.9 1479.7 M1561.9 1461.07 L1566.78 1461.07 L1566.78 1466.95 L1561.9 1466.95 L1561.9 1461.07 Z" fill="#000000" fill-rule="evenodd" fill-opacity="1" /><path clip-path="url(#clip570)" d="M1590.23 1455.09 L1578.43 1473.54 L1590.23 1473.54 L1590.23 1455.09 M1589.01 1451.02 L1594.88 1451.02 L1594.88 1473.54 L1599.82 1473.54 L1599.82 1477.43 L1594.88 1477.43 L1594.88 1485.58 L1590.23 1485.58 L1590.23 1477.43 L1574.63 1477.43 L1574.63 1472.92 L1589.01 1451.02 Z" fill="#000000" fill-rule="evenodd" fill-opacity="1" /><path clip-path="url(#clip570)" d="M1621.71 1466.95 Q1625.07 1467.66 1626.94 1469.93 Q1628.84 1472.2 1628.84 1475.53 Q1628.84 1480.65 1625.32 1483.45 Q1621.81 1486.25 1615.32 1486.25 Q1613.15 1486.25 1610.83 1485.81 Q1608.54 1485.39 1606.09 1484.54 L1606.09 1480.02 Q1608.03 1481.16 1610.35 1481.74 Q1612.66 1482.32 1615.19 1482.32 Q1619.58 1482.32 1621.88 1480.58 Q1624.19 1478.84 1624.19 1475.53 Q1624.19 1472.48 1622.04 1470.77 Q1619.91 1469.03 1616.09 1469.03 L1612.06 1469.03 L1612.06 1465.19 L1616.27 1465.19 Q1619.72 1465.19 1621.55 1463.82 Q1623.38 1462.43 1623.38 1459.84 Q1623.38 1457.18 1621.48 1455.77 Q1619.61 1454.33 1616.09 1454.33 Q1614.17 1454.33 1611.97 1454.75 Q1609.77 1455.16 1607.13 1456.04 L1607.13 1451.88 Q1609.79 1451.14 1612.11 1450.77 Q1614.44 1450.39 1616.5 1450.39 Q1621.83 1450.39 1624.93 1452.83 Q1628.03 1455.23 1628.03 1459.35 Q1628.03 1462.22 1626.39 1464.21 Q1624.75 1466.18 1621.71 1466.95 Z" fill="#000000" fill-rule="evenodd" fill-opacity="1" /><path clip-path="url(#clip570)" d="M1777.4 1481.64 L1793.72 1481.64 L1793.72 1485.58 L1771.78 1485.58 L1771.78 1481.64 Q1774.44 1478.89 1779.02 1474.26 Q1783.63 1469.61 1784.81 1468.27 Q1787.05 1465.74 1787.93 1464.01 Q1788.84 1462.25 1788.84 1460.56 Q1788.84 1457.8 1786.89 1456.07 Q1784.97 1454.33 1781.87 1454.33 Q1779.67 1454.33 1777.22 1455.09 Q1774.79 1455.86 1772.01 1457.41 L1772.01 1452.69 Q1774.83 1451.55 1777.29 1450.97 Q1779.74 1450.39 1781.78 1450.39 Q1787.15 1450.39 1790.34 1453.08 Q1793.54 1455.77 1793.54 1460.26 Q1793.54 1462.39 1792.73 1464.31 Q1791.94 1466.2 1789.83 1468.8 Q1789.25 1469.47 1786.15 1472.69 Q1783.05 1475.88 1777.4 1481.64 Z" fill="#000000" fill-rule="evenodd" fill-opacity="1" /><path clip-path="url(#clip570)" d="M1807.56 1481.64 L1823.88 1481.64 L1823.88 1485.58 L1801.94 1485.58 L1801.94 1481.64 Q1804.6 1478.89 1809.18 1474.26 Q1813.79 1469.61 1814.97 1468.27 Q1817.22 1465.74 1818.1 1464.01 Q1819 1462.25 1819 1460.56 Q1819 1457.8 1817.05 1456.07 Q1815.13 1454.33 1812.03 1454.33 Q1809.83 1454.33 1807.38 1455.09 Q1804.95 1455.86 1802.17 1457.41 L1802.17 1452.69 Q1804.99 1451.55 1807.45 1450.97 Q1809.9 1450.39 1811.94 1450.39 Q1817.31 1450.39 1820.5 1453.08 Q1823.7 1455.77 1823.7 1460.26 Q1823.7 1462.39 1822.89 1464.31 Q1822.1 1466.2 1819.99 1468.8 Q1819.42 1469.47 1816.31 1472.69 Q1813.21 1475.88 1807.56 1481.64 Z" fill="#000000" fill-rule="evenodd" fill-opacity="1" /><path clip-path="url(#clip570)" d="M1834.18 1479.7 L1839.07 1479.7 L1839.07 1485.58 L1834.18 1485.58 L1834.18 1479.7 M1834.18 1461.07 L1839.07 1461.07 L1839.07 1466.95 L1834.18 1466.95 L1834.18 1461.07 Z" fill="#000000" fill-rule="evenodd" fill-opacity="1" /><path clip-path="url(#clip570)" d="M1859.67 1454.1 Q1856.06 1454.1 1854.23 1457.66 Q1852.42 1461.2 1852.42 1468.33 Q1852.42 1475.44 1854.23 1479.01 Q1856.06 1482.55 1859.67 1482.55 Q1863.3 1482.55 1865.11 1479.01 Q1866.94 1475.44 1866.94 1468.33 Q1866.94 1461.2 1865.11 1457.66 Q1863.3 1454.1 1859.67 1454.1 M1859.67 1450.39 Q1865.48 1450.39 1868.54 1455 Q1871.61 1459.58 1871.61 1468.33 Q1871.61 1477.06 1868.54 1481.67 Q1865.48 1486.25 1859.67 1486.25 Q1853.86 1486.25 1850.78 1481.67 Q1847.73 1477.06 1847.73 1468.33 Q1847.73 1459.58 1850.78 1455 Q1853.86 1450.39 1859.67 1450.39 Z" fill="#000000" fill-rule="evenodd" fill-opacity="1" /><path clip-path="url(#clip570)" d="M1890.41 1466.44 Q1887.26 1466.44 1885.41 1468.59 Q1883.58 1470.74 1883.58 1474.49 Q1883.58 1478.22 1885.41 1480.39 Q1887.26 1482.55 1890.41 1482.55 Q1893.56 1482.55 1895.39 1480.39 Q1897.24 1478.22 1897.24 1474.49 Q1897.24 1470.74 1895.39 1468.59 Q1893.56 1466.44 1890.41 1466.44 M1899.69 1451.78 L1899.69 1456.04 Q1897.93 1455.21 1896.13 1454.77 Q1894.35 1454.33 1892.59 1454.33 Q1887.96 1454.33 1885.5 1457.45 Q1883.07 1460.58 1882.72 1466.9 Q1884.09 1464.89 1886.15 1463.82 Q1888.21 1462.73 1890.69 1462.73 Q1895.9 1462.73 1898.91 1465.9 Q1901.94 1469.05 1901.94 1474.49 Q1901.94 1479.82 1898.79 1483.03 Q1895.64 1486.25 1890.41 1486.25 Q1884.41 1486.25 1881.24 1481.67 Q1878.07 1477.06 1878.07 1468.33 Q1878.07 1460.14 1881.96 1455.28 Q1885.85 1450.39 1892.4 1450.39 Q1894.16 1450.39 1895.94 1450.74 Q1897.75 1451.09 1899.69 1451.78 Z" fill="#000000" fill-rule="evenodd" fill-opacity="1" /><path clip-path="url(#clip570)" d="M2050.17 1481.64 L2066.49 1481.64 L2066.49 1485.58 L2044.55 1485.58 L2044.55 1481.64 Q2047.21 1478.89 2051.79 1474.26 Q2056.4 1469.61 2057.58 1468.27 Q2059.83 1465.74 2060.7 1464.01 Q2061.61 1462.25 2061.61 1460.56 Q2061.61 1457.8 2059.66 1456.07 Q2057.74 1454.33 2054.64 1454.33 Q2052.44 1454.33 2049.99 1455.09 Q2047.56 1455.86 2044.78 1457.41 L2044.78 1452.69 Q2047.6 1451.55 2050.06 1450.97 Q2052.51 1450.39 2054.55 1450.39 Q2059.92 1450.39 2063.11 1453.08 Q2066.31 1455.77 2066.31 1460.26 Q2066.31 1462.39 2065.5 1464.31 Q2064.71 1466.2 2062.6 1468.8 Q2062.02 1469.47 2058.92 1472.69 Q2055.82 1475.88 2050.17 1481.64 Z" fill="#000000" fill-rule="evenodd" fill-opacity="1" /><path clip-path="url(#clip570)" d="M2090.47 1466.95 Q2093.83 1467.66 2095.7 1469.93 Q2097.6 1472.2 2097.6 1475.53 Q2097.6 1480.65 2094.08 1483.45 Q2090.57 1486.25 2084.08 1486.25 Q2081.91 1486.25 2079.59 1485.81 Q2077.3 1485.39 2074.85 1484.54 L2074.85 1480.02 Q2076.79 1481.16 2079.11 1481.74 Q2081.42 1482.32 2083.95 1482.32 Q2088.34 1482.32 2090.64 1480.58 Q2092.95 1478.84 2092.95 1475.53 Q2092.95 1472.48 2090.8 1470.77 Q2088.67 1469.03 2084.85 1469.03 L2080.82 1469.03 L2080.82 1465.19 L2085.03 1465.19 Q2088.48 1465.19 2090.31 1463.82 Q2092.14 1462.43 2092.14 1459.84 Q2092.14 1457.18 2090.24 1455.77 Q2088.37 1454.33 2084.85 1454.33 Q2082.93 1454.33 2080.73 1454.75 Q2078.53 1455.16 2075.89 1456.04 L2075.89 1451.88 Q2078.55 1451.14 2080.87 1450.77 Q2083.2 1450.39 2085.26 1450.39 Q2090.59 1450.39 2093.69 1452.83 Q2096.79 1455.23 2096.79 1459.35 Q2096.79 1462.22 2095.15 1464.21 Q2093.51 1466.18 2090.47 1466.95 Z" fill="#000000" fill-rule="evenodd" fill-opacity="1" /><path clip-path="url(#clip570)" d="M2106.95 1479.7 L2111.84 1479.7 L2111.84 1485.58 L2106.95 1485.58 L2106.95 1479.7 M2106.95 1461.07 L2111.84 1461.07 L2111.84 1466.95 L2106.95 1466.95 L2106.95 1461.07 Z" fill="#000000" fill-rule="evenodd" fill-opacity="1" /><path clip-path="url(#clip570)" d="M2136.61 1466.95 Q2139.96 1467.66 2141.84 1469.93 Q2143.74 1472.2 2143.74 1475.53 Q2143.74 1480.65 2140.22 1483.45 Q2136.7 1486.25 2130.22 1486.25 Q2128.04 1486.25 2125.73 1485.81 Q2123.44 1485.39 2120.98 1484.54 L2120.98 1480.02 Q2122.93 1481.16 2125.24 1481.74 Q2127.56 1482.32 2130.08 1482.32 Q2134.48 1482.32 2136.77 1480.58 Q2139.08 1478.84 2139.08 1475.53 Q2139.08 1472.48 2136.93 1470.77 Q2134.8 1469.03 2130.98 1469.03 L2126.95 1469.03 L2126.95 1465.19 L2131.17 1465.19 Q2134.62 1465.19 2136.45 1463.82 Q2138.27 1462.43 2138.27 1459.84 Q2138.27 1457.18 2136.38 1455.77 Q2134.5 1454.33 2130.98 1454.33 Q2129.06 1454.33 2126.86 1454.75 Q2124.66 1455.16 2122.02 1456.04 L2122.02 1451.88 Q2124.69 1451.14 2127 1450.77 Q2129.34 1450.39 2131.4 1450.39 Q2136.72 1450.39 2139.82 1452.83 Q2142.93 1455.23 2142.93 1459.35 Q2142.93 1462.22 2141.28 1464.21 Q2139.64 1466.18 2136.61 1466.95 Z" fill="#000000" fill-rule="evenodd" fill-opacity="1" /><path clip-path="url(#clip570)" d="M2162.6 1454.1 Q2158.99 1454.1 2157.16 1457.66 Q2155.36 1461.2 2155.36 1468.33 Q2155.36 1475.44 2157.16 1479.01 Q2158.99 1482.55 2162.6 1482.55 Q2166.24 1482.55 2168.04 1479.01 Q2169.87 1475.44 2169.87 1468.33 Q2169.87 1461.2 2168.04 1457.66 Q2166.24 1454.1 2162.6 1454.1 M2162.6 1450.39 Q2168.41 1450.39 2171.47 1455 Q2174.55 1459.58 2174.55 1468.33 Q2174.55 1477.06 2171.47 1481.67 Q2168.41 1486.25 2162.6 1486.25 Q2156.79 1486.25 2153.71 1481.67 Q2150.66 1477.06 2150.66 1468.33 Q2150.66 1459.58 2153.71 1455 Q2156.79 1450.39 2162.6 1450.39 Z" fill="#000000" fill-rule="evenodd" fill-opacity="1" /><path clip-path="url(#clip570)" d="M1215.32 1520.52 L1255.52 1520.52 L1255.52 1525.93 L1238.65 1525.93 L1238.65 1568.04 L1232.19 1568.04 L1232.19 1525.93 L1215.32 1525.93 L1215.32 1520.52 Z" fill="#000000" fill-rule="evenodd" fill-opacity="1" /><path clip-path="url(#clip570)" d="M1259.46 1532.4 L1265.32 1532.4 L1265.32 1568.04 L1259.46 1568.04 L1259.46 1532.4 M1259.46 1518.52 L1265.32 1518.52 L1265.32 1525.93 L1259.46 1525.93 L1259.46 1518.52 Z" fill="#000000" fill-rule="evenodd" fill-opacity="1" /><path clip-path="url(#clip570)" d="M1305.33 1539.24 Q1307.52 1535.29 1310.58 1533.41 Q1313.64 1531.54 1317.77 1531.54 Q1323.34 1531.54 1326.37 1535.45 Q1329.39 1539.33 1329.39 1546.53 L1329.39 1568.04 L1323.5 1568.04 L1323.5 1546.72 Q1323.5 1541.59 1321.69 1539.11 Q1319.87 1536.63 1316.15 1536.63 Q1311.6 1536.63 1308.96 1539.65 Q1306.32 1542.68 1306.32 1547.9 L1306.32 1568.04 L1300.43 1568.04 L1300.43 1546.72 Q1300.43 1541.56 1298.61 1539.11 Q1296.8 1536.63 1293.01 1536.63 Q1288.52 1536.63 1285.88 1539.68 Q1283.24 1542.71 1283.24 1547.9 L1283.24 1568.04 L1277.35 1568.04 L1277.35 1532.4 L1283.24 1532.4 L1283.24 1537.93 Q1285.24 1534.66 1288.05 1533.1 Q1290.85 1531.54 1294.7 1531.54 Q1298.58 1531.54 1301.29 1533.51 Q1304.02 1535.48 1305.33 1539.24 Z" fill="#000000" fill-rule="evenodd" fill-opacity="1" /><path clip-path="url(#clip570)" d="M1371.56 1548.76 L1371.56 1551.62 L1344.64 1551.62 Q1345.02 1557.67 1348.27 1560.85 Q1351.54 1564 1357.37 1564 Q1360.74 1564 1363.89 1563.17 Q1367.08 1562.35 1370.2 1560.69 L1370.2 1566.23 Q1367.04 1567.57 1363.73 1568.27 Q1360.42 1568.97 1357.02 1568.97 Q1348.49 1568.97 1343.49 1564 Q1338.53 1559.04 1338.53 1550.57 Q1338.53 1541.82 1343.24 1536.69 Q1347.98 1531.54 1356 1531.54 Q1363.19 1531.54 1367.36 1536.18 Q1371.56 1540.8 1371.56 1548.76 M1365.71 1547.04 Q1365.64 1542.23 1363 1539.37 Q1360.39 1536.5 1356.06 1536.5 Q1351.16 1536.5 1348.2 1539.27 Q1345.27 1542.04 1344.83 1547.07 L1365.71 1547.04 Z" fill="#000000" fill-rule="evenodd" fill-opacity="1" /><polyline clip-path="url(#clip572)" style="stroke:#000000; stroke-linecap:round; stroke-linejoin:round; stroke-width:2; stroke-opacity:0.1; fill:none" points="
  234.125,1119.41 2352.76,1119.41 
  "/>
<polyline clip-path="url(#clip572)" style="stroke:#000000; stroke-linecap:round; stroke-linejoin:round; stroke-width:2; stroke-opacity:0.1; fill:none" points="
  234.125,811.473 2352.76,811.473 
  "/>
<polyline clip-path="url(#clip572)" style="stroke:#000000; stroke-linecap:round; stroke-linejoin:round; stroke-width:2; stroke-opacity:0.1; fill:none" points="
  234.125,503.535 2352.76,503.535 
  "/>
<polyline clip-path="url(#clip572)" style="stroke:#000000; stroke-linecap:round; stroke-linejoin:round; stroke-width:2; stroke-opacity:0.1; fill:none" points="
  234.125,195.596 2352.76,195.596 
  "/>
<polyline clip-path="url(#clip570)" style="stroke:#000000; stroke-linecap:round; stroke-linejoin:round; stroke-width:4; stroke-opacity:1; fill:none" points="
  234.125,1423.18 234.125,47.2441 
  "/>
<polyline clip-path="url(#clip570)" style="stroke:#000000; stroke-linecap:round; stroke-linejoin:round; stroke-width:4; stroke-opacity:1; fill:none" points="
  234.125,1119.41 253.023,1119.41 
  "/>
<polyline clip-path="url(#clip570)" style="stroke:#000000; stroke-linecap:round; stroke-linejoin:round; stroke-width:4; stroke-opacity:1; fill:none" points="
  234.125,811.473 253.023,811.473 
  "/>
<polyline clip-path="url(#clip570)" style="stroke:#000000; stroke-linecap:round; stroke-linejoin:round; stroke-width:4; stroke-opacity:1; fill:none" points="
  234.125,503.535 253.023,503.535 
  "/>
<polyline clip-path="url(#clip570)" style="stroke:#000000; stroke-linecap:round; stroke-linejoin:round; stroke-width:4; stroke-opacity:1; fill:none" points="
  234.125,195.596 253.023,195.596 
  "/>
<path clip-path="url(#clip570)" d="M146.066 1102.13 L164.422 1102.13 L164.422 1106.07 L150.348 1106.07 L150.348 1114.54 Q151.366 1114.19 152.385 1114.03 Q153.403 1113.84 154.422 1113.84 Q160.209 1113.84 163.589 1117.02 Q166.968 1120.19 166.968 1125.6 Q166.968 1131.18 163.496 1134.28 Q160.024 1137.36 153.704 1137.36 Q151.528 1137.36 149.26 1136.99 Q147.015 1136.62 144.607 1135.88 L144.607 1131.18 Q146.691 1132.32 148.913 1132.87 Q151.135 1133.43 153.612 1133.43 Q157.616 1133.43 159.954 1131.32 Q162.292 1129.21 162.292 1125.6 Q162.292 1121.99 159.954 1119.89 Q157.616 1117.78 153.612 1117.78 Q151.737 1117.78 149.862 1118.2 Q148.01 1118.61 146.066 1119.49 L146.066 1102.13 Z" fill="#000000" fill-rule="evenodd" fill-opacity="1" /><path clip-path="url(#clip570)" d="M186.181 1105.21 Q182.57 1105.21 180.741 1108.77 Q178.936 1112.32 178.936 1119.45 Q178.936 1126.55 180.741 1130.12 Q182.57 1133.66 186.181 1133.66 Q189.815 1133.66 191.621 1130.12 Q193.45 1126.55 193.45 1119.45 Q193.45 1112.32 191.621 1108.77 Q189.815 1105.21 186.181 1105.21 M186.181 1101.51 Q191.991 1101.51 195.047 1106.11 Q198.125 1110.7 198.125 1119.45 Q198.125 1128.17 195.047 1132.78 Q191.991 1137.36 186.181 1137.36 Q180.371 1137.36 177.292 1132.78 Q174.237 1128.17 174.237 1119.45 Q174.237 1110.7 177.292 1106.11 Q180.371 1101.51 186.181 1101.51 Z" fill="#000000" fill-rule="evenodd" fill-opacity="1" /><path clip-path="url(#clip570)" d="M116.668 824.818 L124.306 824.818 L124.306 798.452 L115.996 800.119 L115.996 795.86 L124.26 794.193 L128.936 794.193 L128.936 824.818 L136.575 824.818 L136.575 828.753 L116.668 828.753 L116.668 824.818 Z" fill="#000000" fill-rule="evenodd" fill-opacity="1" /><path clip-path="url(#clip570)" d="M156.019 797.272 Q152.408 797.272 150.579 800.836 Q148.774 804.378 148.774 811.508 Q148.774 818.614 150.579 822.179 Q152.408 825.721 156.019 825.721 Q159.653 825.721 161.459 822.179 Q163.288 818.614 163.288 811.508 Q163.288 804.378 161.459 800.836 Q159.653 797.272 156.019 797.272 M156.019 793.568 Q161.829 793.568 164.885 798.174 Q167.964 802.758 167.964 811.508 Q167.964 820.234 164.885 824.841 Q161.829 829.424 156.019 829.424 Q150.209 829.424 147.13 824.841 Q144.075 820.234 144.075 811.508 Q144.075 802.758 147.13 798.174 Q150.209 793.568 156.019 793.568 Z" fill="#000000" fill-rule="evenodd" fill-opacity="1" /><path clip-path="url(#clip570)" d="M186.181 797.272 Q182.57 797.272 180.741 800.836 Q178.936 804.378 178.936 811.508 Q178.936 818.614 180.741 822.179 Q182.57 825.721 186.181 825.721 Q189.815 825.721 191.621 822.179 Q193.45 818.614 193.45 811.508 Q193.45 804.378 191.621 800.836 Q189.815 797.272 186.181 797.272 M186.181 793.568 Q191.991 793.568 195.047 798.174 Q198.125 802.758 198.125 811.508 Q198.125 820.234 195.047 824.841 Q191.991 829.424 186.181 829.424 Q180.371 829.424 177.292 824.841 Q174.237 820.234 174.237 811.508 Q174.237 802.758 177.292 798.174 Q180.371 793.568 186.181 793.568 Z" fill="#000000" fill-rule="evenodd" fill-opacity="1" /><path clip-path="url(#clip570)" d="M116.668 516.879 L124.306 516.879 L124.306 490.514 L115.996 492.18 L115.996 487.921 L124.26 486.255 L128.936 486.255 L128.936 516.879 L136.575 516.879 L136.575 520.815 L116.668 520.815 L116.668 516.879 Z" fill="#000000" fill-rule="evenodd" fill-opacity="1" /><path clip-path="url(#clip570)" d="M146.066 486.255 L164.422 486.255 L164.422 490.19 L150.348 490.19 L150.348 498.662 Q151.366 498.315 152.385 498.153 Q153.403 497.967 154.422 497.967 Q160.209 497.967 163.589 501.139 Q166.968 504.31 166.968 509.727 Q166.968 515.305 163.496 518.407 Q160.024 521.486 153.704 521.486 Q151.528 521.486 149.26 521.115 Q147.015 520.745 144.607 520.004 L144.607 515.305 Q146.691 516.44 148.913 516.995 Q151.135 517.551 153.612 517.551 Q157.616 517.551 159.954 515.444 Q162.292 513.338 162.292 509.727 Q162.292 506.116 159.954 504.009 Q157.616 501.903 153.612 501.903 Q151.737 501.903 149.862 502.319 Q148.01 502.736 146.066 503.616 L146.066 486.255 Z" fill="#000000" fill-rule="evenodd" fill-opacity="1" /><path clip-path="url(#clip570)" d="M186.181 489.333 Q182.57 489.333 180.741 492.898 Q178.936 496.44 178.936 503.569 Q178.936 510.676 180.741 514.241 Q182.57 517.782 186.181 517.782 Q189.815 517.782 191.621 514.241 Q193.45 510.676 193.45 503.569 Q193.45 496.44 191.621 492.898 Q189.815 489.333 186.181 489.333 M186.181 485.63 Q191.991 485.63 195.047 490.236 Q198.125 494.819 198.125 503.569 Q198.125 512.296 195.047 516.903 Q191.991 521.486 186.181 521.486 Q180.371 521.486 177.292 516.903 Q174.237 512.296 174.237 503.569 Q174.237 494.819 177.292 490.236 Q180.371 485.63 186.181 485.63 Z" fill="#000000" fill-rule="evenodd" fill-opacity="1" /><path clip-path="url(#clip570)" d="M119.885 208.941 L136.204 208.941 L136.204 212.876 L114.26 212.876 L114.26 208.941 Q116.922 206.186 121.505 201.557 Q126.112 196.904 127.292 195.561 Q129.538 193.038 130.417 191.302 Q131.32 189.543 131.32 187.853 Q131.32 185.099 129.376 183.362 Q127.455 181.626 124.353 181.626 Q122.154 181.626 119.7 182.39 Q117.269 183.154 114.492 184.705 L114.492 179.983 Q117.316 178.849 119.769 178.27 Q122.223 177.691 124.26 177.691 Q129.63 177.691 132.825 180.376 Q136.019 183.062 136.019 187.552 Q136.019 189.682 135.209 191.603 Q134.422 193.501 132.316 196.094 Q131.737 196.765 128.635 199.983 Q125.533 203.177 119.885 208.941 Z" fill="#000000" fill-rule="evenodd" fill-opacity="1" /><path clip-path="url(#clip570)" d="M156.019 181.395 Q152.408 181.395 150.579 184.96 Q148.774 188.501 148.774 195.631 Q148.774 202.737 150.579 206.302 Q152.408 209.844 156.019 209.844 Q159.653 209.844 161.459 206.302 Q163.288 202.737 163.288 195.631 Q163.288 188.501 161.459 184.96 Q159.653 181.395 156.019 181.395 M156.019 177.691 Q161.829 177.691 164.885 182.298 Q167.964 186.881 167.964 195.631 Q167.964 204.358 164.885 208.964 Q161.829 213.547 156.019 213.547 Q150.209 213.547 147.13 208.964 Q144.075 204.358 144.075 195.631 Q144.075 186.881 147.13 182.298 Q150.209 177.691 156.019 177.691 Z" fill="#000000" fill-rule="evenodd" fill-opacity="1" /><path clip-path="url(#clip570)" d="M186.181 181.395 Q182.57 181.395 180.741 184.96 Q178.936 188.501 178.936 195.631 Q178.936 202.737 180.741 206.302 Q182.57 209.844 186.181 209.844 Q189.815 209.844 191.621 206.302 Q193.45 202.737 193.45 195.631 Q193.45 188.501 191.621 184.96 Q189.815 181.395 186.181 181.395 M186.181 177.691 Q191.991 177.691 195.047 182.298 Q198.125 186.881 198.125 195.631 Q198.125 204.358 195.047 208.964 Q191.991 213.547 186.181 213.547 Q180.371 213.547 177.292 208.964 Q174.237 204.358 174.237 195.631 Q174.237 186.881 177.292 182.298 Q180.371 177.691 186.181 177.691 Z" fill="#000000" fill-rule="evenodd" fill-opacity="1" /><path clip-path="url(#clip570)" d="M58.657 960.844 L77.5631 960.844 L77.5631 966.733 L28.3562 966.733 L28.3562 960.844 L33.7671 960.844 Q30.5842 958.998 29.0564 956.197 Q27.4968 953.365 27.4968 949.45 Q27.4968 942.957 32.6531 938.915 Q37.8093 934.841 46.212 934.841 Q54.6147 934.841 59.771 938.915 Q64.9272 942.957 64.9272 949.45 Q64.9272 953.365 63.3994 956.197 Q61.8398 958.998 58.657 960.844 M46.212 940.92 Q39.7508 940.92 36.0905 943.593 Q32.3984 946.235 32.3984 950.882 Q32.3984 955.529 36.0905 958.203 Q39.7508 960.844 46.212 960.844 Q52.6732 960.844 56.3653 958.203 Q60.0256 955.529 60.0256 950.882 Q60.0256 946.235 56.3653 943.593 Q52.6732 940.92 46.212 940.92 Z" fill="#000000" fill-rule="evenodd" fill-opacity="1" /><path clip-path="url(#clip570)" d="M35.1993 897.378 Q31.2526 895.182 29.3747 892.127 Q27.4968 889.071 27.4968 884.933 Q27.4968 879.363 31.4117 876.34 Q35.2948 873.316 42.4881 873.316 L64.0042 873.316 L64.0042 879.204 L42.679 879.204 Q37.5546 879.204 35.072 881.018 Q32.5894 882.833 32.5894 886.557 Q32.5894 891.108 35.6131 893.75 Q38.6368 896.392 43.8567 896.392 L64.0042 896.392 L64.0042 902.28 L42.679 902.28 Q37.5228 902.28 35.072 904.094 Q32.5894 905.908 32.5894 909.696 Q32.5894 914.184 35.6449 916.826 Q38.6686 919.467 43.8567 919.467 L64.0042 919.467 L64.0042 925.356 L28.3562 925.356 L28.3562 919.467 L33.8944 919.467 Q30.616 917.462 29.0564 914.661 Q27.4968 911.86 27.4968 908.009 Q27.4968 904.126 29.4702 901.421 Q31.4436 898.683 35.1993 897.378 Z" fill="#000000" fill-rule="evenodd" fill-opacity="1" /><path clip-path="url(#clip570)" d="M58.5933 855.269 L58.5933 832.83 L64.0042 832.83 L64.0042 863.004 L58.5933 863.004 Q54.8057 859.343 48.44 853.041 Q42.0425 846.707 40.1964 845.084 Q36.7271 841.997 34.34 840.787 Q31.921 839.546 29.5975 839.546 Q25.8099 839.546 23.4228 842.219 Q21.0356 844.861 21.0356 849.126 Q21.0356 852.15 22.086 855.524 Q23.1363 858.866 25.2688 862.685 L18.7758 862.685 Q17.2162 858.802 16.4205 855.428 Q15.6248 852.055 15.6248 849.254 Q15.6248 841.869 19.3169 837.477 Q23.009 833.085 29.1837 833.085 Q32.112 833.085 34.7537 834.199 Q37.3637 835.281 40.9285 838.177 Q41.8515 838.973 46.2757 843.238 Q50.668 847.503 58.5933 855.269 Z" fill="#000000" fill-rule="evenodd" fill-opacity="1" /><path clip-path="url(#clip570)" d="M55.9197 819.335 L55.9197 812.619 L64.0042 812.619 L64.0042 819.335 L55.9197 819.335 Z" fill="#000000" fill-rule="evenodd" fill-opacity="1" /><path clip-path="url(#clip570)" d="M16.4842 798.551 L16.4842 773.311 L21.895 773.311 L21.895 792.662 L33.5443 792.662 Q33.0668 791.262 32.844 789.862 Q32.5894 788.461 32.5894 787.061 Q32.5894 779.104 36.9499 774.457 Q41.3104 769.81 48.7583 769.81 Q56.429 769.81 60.694 774.584 Q64.9272 779.358 64.9272 788.047 Q64.9272 791.039 64.4179 794.158 Q63.9087 797.246 62.8902 800.556 L56.429 800.556 Q57.9886 797.691 58.7524 794.636 Q59.5163 791.58 59.5163 788.175 Q59.5163 782.668 56.6199 779.454 Q53.7235 776.239 48.7583 776.239 Q43.793 776.239 40.8966 779.454 Q38.0002 782.668 38.0002 788.175 Q38.0002 790.753 38.5732 793.331 Q39.1461 795.877 40.3556 798.551 L16.4842 798.551 Z" fill="#000000" fill-rule="evenodd" fill-opacity="1" /><path clip-path="url(#clip570)" d="M14.5426 723.181 Q21.8632 727.446 29.0246 729.515 Q36.186 731.584 43.5384 731.584 Q50.8908 731.584 58.1159 729.515 Q65.3091 727.414 72.5979 723.181 L72.5979 728.273 Q65.1182 733.048 57.8931 735.435 Q50.668 737.79 43.5384 737.79 Q36.4406 737.79 29.2474 735.435 Q22.0542 733.079 14.5426 728.273 L14.5426 723.181 Z" fill="#000000" fill-rule="evenodd" fill-opacity="1" /><path clip-path="url(#clip570)" d="M77.5631 712.423 L28.3562 712.423 L28.3562 706.566 L50.5089 706.566 Q55.124 706.566 57.4793 704.37 Q59.8346 702.174 59.8346 697.877 Q59.8346 693.166 57.161 690.811 Q54.4874 688.424 49.1402 688.424 L28.3562 688.424 L28.3562 682.568 L55.7924 682.568 Q57.7021 682.568 58.6251 682.026 Q59.5163 681.454 59.5163 680.276 Q59.5163 679.989 59.3572 679.48 Q59.1662 678.971 58.7843 678.08 L63.4949 678.08 Q64.227 679.385 64.5771 680.562 Q64.9272 681.708 64.9272 682.822 Q64.9272 685.018 63.6859 686.323 Q62.4446 687.628 59.8983 688.106 Q62.4127 689.697 63.6859 692.021 Q64.9272 694.312 64.9272 697.431 Q64.9272 700.678 63.6859 702.97 Q62.4446 705.229 59.9619 706.566 L77.5631 706.566 L77.5631 712.423 Z" fill="#000000" fill-rule="evenodd" fill-opacity="1" /><path clip-path="url(#clip570)" d="M45.7664 646.888 Q39.4007 646.888 35.8996 649.53 Q32.3984 652.139 32.3984 656.882 Q32.3984 661.593 35.8996 664.234 Q39.4007 666.844 45.7664 666.844 Q52.1003 666.844 55.6014 664.234 Q59.1026 661.593 59.1026 656.882 Q59.1026 652.139 55.6014 649.53 Q52.1003 646.888 45.7664 646.888 M59.58 641.031 Q68.683 641.031 73.1071 645.074 Q77.5631 649.116 77.5631 657.455 Q77.5631 660.542 77.0857 663.279 Q76.6401 666.017 75.6852 668.595 L69.9879 668.595 Q71.3884 666.017 72.0568 663.502 Q72.7252 660.988 72.7252 658.378 Q72.7252 652.617 69.7015 649.752 Q66.7096 646.888 60.6303 646.888 L57.7339 646.888 Q60.885 648.702 62.4446 651.535 Q64.0042 654.367 64.0042 658.314 Q64.0042 664.871 59.0071 668.881 Q54.01 672.892 45.7664 672.892 Q37.491 672.892 32.4939 668.881 Q27.4968 664.871 27.4968 658.314 Q27.4968 654.367 29.0564 651.535 Q30.616 648.702 33.7671 646.888 L28.3562 646.888 L28.3562 641.031 L59.58 641.031 Z" fill="#000000" fill-rule="evenodd" fill-opacity="1" /><path clip-path="url(#clip570)" d="M16.4842 618.56 L16.4842 613.15 L70.0516 629.7 L70.0516 635.111 L16.4842 618.56 Z" fill="#000000" fill-rule="evenodd" fill-opacity="1" /><path clip-path="url(#clip570)" d="M35.1993 579.252 Q31.2526 577.056 29.3747 574 Q27.4968 570.945 27.4968 566.807 Q27.4968 561.237 31.4117 558.213 Q35.2948 555.19 42.4881 555.19 L64.0042 555.19 L64.0042 561.078 L42.679 561.078 Q37.5546 561.078 35.072 562.892 Q32.5894 564.707 32.5894 568.43 Q32.5894 572.982 35.6131 575.624 Q38.6368 578.265 43.8567 578.265 L64.0042 578.265 L64.0042 584.154 L42.679 584.154 Q37.5228 584.154 35.072 585.968 Q32.5894 587.782 32.5894 591.57 Q32.5894 596.058 35.6449 598.699 Q38.6686 601.341 43.8567 601.341 L64.0042 601.341 L64.0042 607.229 L28.3562 607.229 L28.3562 601.341 L33.8944 601.341 Q30.616 599.336 29.0564 596.535 Q27.4968 593.734 27.4968 589.883 Q27.4968 586 29.4702 583.294 Q31.4436 580.557 35.1993 579.252 Z" fill="#000000" fill-rule="evenodd" fill-opacity="1" /><path clip-path="url(#clip570)" d="M28.3562 532.973 Q28.9291 530.045 30.6797 528.454 Q32.3984 526.831 35.0084 526.831 Q38.9551 526.831 41.0876 529.854 Q43.2201 532.878 43.2201 538.512 Q43.2201 540.326 42.9018 542.331 Q42.5517 544.304 41.9152 546.532 L38.0639 546.532 Q38.9233 544.877 39.337 542.999 Q39.7508 541.09 39.7508 538.957 Q39.7508 535.488 38.5095 533.578 Q37.2364 531.668 35.0084 531.668 Q32.6531 531.668 31.4436 533.451 Q30.2341 535.201 30.2341 538.639 L30.2341 541.376 L26.7966 541.376 L26.7966 538.384 Q26.7966 535.392 25.8099 533.865 Q24.7914 532.305 22.8817 532.305 Q21.0356 532.305 20.0808 533.896 Q19.0941 535.488 19.0941 538.512 Q19.0941 539.785 19.3806 541.408 Q19.667 543.031 20.3991 545.609 L16.7388 545.609 Q16.1977 543.286 15.9112 541.249 Q15.6248 539.212 15.6248 537.461 Q15.6248 532.878 17.5027 530.204 Q19.3806 527.499 22.5316 527.499 Q24.7277 527.499 26.2555 528.931 Q27.7833 530.364 28.3562 532.973 Z" fill="#000000" fill-rule="evenodd" fill-opacity="1" /><path clip-path="url(#clip570)" d="M14.5426 518.301 L14.5426 513.208 Q22.0542 508.434 29.2474 506.078 Q36.4406 503.691 43.5384 503.691 Q50.668 503.691 57.8931 506.078 Q65.1182 508.434 72.5979 513.208 L72.5979 518.301 Q65.3091 514.067 58.1159 511.998 Q50.8908 509.898 43.5384 509.898 Q36.186 509.898 29.0246 511.998 Q21.8632 514.067 14.5426 518.301 Z" fill="#000000" fill-rule="evenodd" fill-opacity="1" /><polyline clip-path="url(#clip572)" style="stroke:#009af9; stroke-linecap:round; stroke-linejoin:round; stroke-width:4; stroke-opacity:1; fill:none" points="
  296.705,1384.24 299.977,1378.08 345.789,1384.24 349.061,1365.76 352.333,1353.44 401.417,1322.65 404.69,1316.49 453.774,1291.86 457.046,1279.54 509.403,1261.06 
  558.487,1236.43 610.843,1236.43 614.116,1230.27 617.388,1224.11 663.2,1217.95 666.472,1211.79 669.744,1205.63 715.556,1211.79 718.828,1181 767.913,1199.48 
  771.185,1181 774.457,1174.84 820.269,1205.63 823.541,1174.84 826.814,1168.68 872.626,1181 875.898,1156.36 924.982,1168.68 928.254,1162.52 931.527,1150.21 
  977.339,1156.36 980.611,1150.21 1029.69,1156.36 1036.24,1137.89 1085.32,1150.21 1088.6,1144.05 1137.68,1156.36 1140.95,1137.89 1190.04,1162.52 1193.31,1137.89 
  1196.58,1131.73 1242.39,1144.05 1245.67,1125.57 1298.02,1113.25 1347.11,1131.73 1350.38,1107.09 1399.46,1131.73 1402.73,1088.62 1451.82,1076.3 1455.09,1063.98 
  1458.36,1070.14 1504.18,1082.46 1507.45,1070.14 1510.72,1063.98 1556.53,1070.14 1559.8,1033.19 1563.08,1027.03 1608.89,1057.82 1612.16,1020.87 1615.43,1008.55 
  1661.24,1027.03 1664.52,996.236 1667.79,1002.39 1713.6,1008.55 1716.87,1027.03 1720.15,1014.71 1769.23,1027.03 1772.5,990.077 1821.59,1033.19 1824.86,990.077 
  1873.94,1014.71 1877.22,983.918 1926.3,977.76 1929.57,965.442 1978.66,996.236 1981.93,977.76 1985.2,971.601 2031.01,990.077 2034.28,977.76 2083.37,983.918 
  2086.64,965.442 2139,959.283 2142.27,977.76 2188.08,1002.39 2191.35,990.077 2194.63,977.76 2240.44,996.236 2243.71,983.918 2246.98,971.601 2292.79,983.918 
  
  "/>
<polyline clip-path="url(#clip572)" style="stroke:#e26f46; stroke-linecap:round; stroke-linejoin:round; stroke-width:4; stroke-opacity:1; fill:none" points="
  294.087,104.97 300.631,107.433 307.176,86.1857 313.884,104.416 320.265,98.9959 326.864,89.573 333.409,138.35 339.953,145.525 346.498,178.044 353.042,166.681 
  359.587,193.256 366.131,173.794 372.676,212.009 379.22,227.16 385.765,245.02 392.31,279.386 398.854,265.406 405.399,280.218 411.943,296.169 418.488,293.367 
  425.032,316.246 431.577,321.327 438.121,361.39 444.666,358.773 451.211,370.69 457.755,344.792 464.3,367.149 470.844,383.131 477.389,402.592 483.933,410.352 
  490.478,426.735 497.023,424.672 503.567,431.138 510.112,425.38 516.656,460.423 523.255,469.015 529.8,506.768 536.344,506.214 542.889,529.032 549.434,519.517 
  555.978,531.649 562.523,525.183 569.067,532.819 575.612,541.565 582.265,545.137 588.701,553.698 595.245,551.665 601.79,536.853 608.335,538.578 614.879,558.625 
  621.424,536.946 627.968,525.152 634.513,535.037 641.057,530.079 647.602,521.179 654.146,528.939 660.691,522.719 667.236,528.478 673.78,551.173 680.325,566.508 
  686.869,564.691 693.414,579.903 699.958,588.033 706.503,587.602 713.047,578.702 719.592,583.968 726.137,611.375 732.681,603.06 739.226,592.96 745.77,589.634 
  752.315,595.146 758.859,586.278 765.404,594.038 771.948,612.083 778.493,616.733 785.038,617.503 791.582,592.837 798.127,611.067 804.671,610.02 811.216,605.739 
  817.924,628.096 824.305,604.785 830.85,611.713 837.394,614.238 843.939,625.139 850.483,633.177 857.028,633.423 863.572,651.222 870.117,665.972 876.661,692.701 
  883.261,717.736 889.751,711.732 896.295,712.378 902.84,727.252 909.384,705.819 915.983,703.879 922.528,703.51 929.072,705.788 935.617,710.192 942.162,706.835 
  948.706,677.797 955.251,688.575 961.795,683.432 968.34,687.374 974.884,695.041 981.429,691.654 987.973,680.23 994.518,694.025 1001.06,687.405 1007.61,670.683 
  1014.15,687.897 1020.7,690.145 1027.24,677.335 1033.79,680.045 1040.33,686.481 1046.87,688.698 1053.42,700.03 1059.96,695.688 1066.51,708.745 1073.05,702.309 
  1079.6,708.498 1086.14,706.374 1092.69,699.537 1099.23,706.25 1105.78,713.302 1112.37,707.39 1118.92,718.322 1125.46,729.992 1132.01,729.931 1138.55,730.855 
  1145.1,724.788 1151.64,715.766 1158.19,726.851 1164.73,721.062 1171.28,727.775 1177.82,717.582 1184.36,731.809 1190.91,736.644 1197.45,733.103 1204,719.83 
  1210.54,732.302 1217.09,723.187 1223.63,708.468 1230.18,712.348 1236.72,704.31 1243.27,694.58 1249.81,687.066 1256.35,685.618 1263.01,687.559 1269.44,672.685 
  1275.99,698.46 1282.53,690.638 1289.08,683.371 1295.62,679.491 1302.17,681.153 1308.71,665.541 1315.26,665.941 1321.8,649.713 1328.34,645.833 1334.89,652.115 
  1341.43,619.35 1347.98,586.832 1354.52,543.474 1361.07,545.691 1367.61,513.235 1374.16,525.059 1380.7,514.158 1387.25,496.052 1393.79,467.875 1400.34,450.939 
  1406.88,439.945 1413.42,435.172 1419.97,432.432 1426.57,400.56 1433.06,403.978 1439.6,416.788 1446.2,420.545 1452.86,398.25 1459.24,425.595 1465.94,429.722 
  1472.33,425.195 1478.87,413.986 1485.41,413.924 1491.96,400.529 1498.56,409.367 1505.1,409.86 1511.65,399.113 1518.19,426.488 1524.85,425.811 1531.28,427.689 
  1537.83,420.176 1544.37,439.945 1550.91,450.076 1557.46,442.44 1564,444.256 1570.55,451.185 1577.09,448.691 1583.64,451.123 1590.18,446.042 1596.73,450.662 
  1603.27,467.598 1609.82,454.88 1616.36,459.284 1622.9,476.19 1629.45,470.831 1635.99,463.01 1642.54,468.522 1649.08,463.595 1655.63,482.379 1662.17,481.332 
  1668.72,481.147 1675.26,486.105 1681.81,481.178 1688.35,497.099 1694.89,494.235 1701.44,481.024 1708.04,495.189 1714.58,489.523 1721.13,480.655 1727.62,504.582 
  1734.16,497.037 1740.76,492.141 1747.25,488.969 1753.85,494.142 1760.39,493.681 1766.94,494.697 1773.48,497.53 1780.03,492.387 1786.57,489.092 1793.06,476.22 
  1799.66,480.624 1806.21,495.528 1812.7,492.387 1819.3,487.614 1825.84,488.045 1832.39,476.713 1838.93,490.293 1845.47,499.162 1852.02,467.537 1858.56,482.348 
  1865.11,476.805 1871.65,475.235 1878.2,472.895 1884.74,471.078 1891.29,476.19 1897.83,475.297 1904.38,477.514 1910.92,484.596 1917.46,471.694 1924.01,487.553 
  1930.55,494.697 1937.1,494.142 1943.64,488.661 1950.19,493.126 1956.73,504.027 1963.28,513.327 1969.82,513.45 1976.37,521.303 1982.91,545.168 1989.45,534.698 
  1996,546.923 2002.54,559.364 2009.09,561.704 2015.63,596.963 2022.18,614.762 2028.72,615.716 2035.27,618.857 2041.81,618.796 2048.36,623.23 2054.9,633.485 
  2061.44,633.823 2067.99,645.155 2074.53,641.953 2081.08,642.107 2087.62,662.092 2094.22,656.641 2100.77,657.165 2107.31,658.859 2113.86,656.734 2120.4,670.499 
  2126.94,663.786 2133.49,666.773 2140.03,671.176 2146.58,679.614 2153.12,682.755 2159.67,694.21 2166.21,696.366 2172.76,699.075 2179.3,697.443 2185.85,694.949 
  2192.39,698.244 2198.93,703.417 2205.48,702.34 2212.02,694.241 2218.57,684.387 2225.11,672.87 2231.66,697.905 2238.2,683.586 2244.75,684.171 2251.29,692.701 
  2257.84,666.034 2264.38,672.131 2270.92,670.776 2277.47,675.457 2284.01,677.828 2290.61,687.281 
  "/>
<polyline clip-path="url(#clip572)" style="stroke:#3da44d; stroke-linecap:round; stroke-linejoin:round; stroke-width:4; stroke-opacity:1; fill:none" points="
  294.087,934.648 2290.61,934.648 
  "/>
<path clip-path="url(#clip570)" d="
M1826.29 300.469 L2282.13 300.469 L2282.13 93.1086 L1826.29 93.1086  Z
  " fill="#ffffff" fill-rule="evenodd" fill-opacity="1"/>
<polyline clip-path="url(#clip570)" style="stroke:#000000; stroke-linecap:round; stroke-linejoin:round; stroke-width:4; stroke-opacity:1; fill:none" points="
  1826.29,300.469 2282.13,300.469 2282.13,93.1086 1826.29,93.1086 1826.29,300.469 
  "/>
<polyline clip-path="url(#clip570)" style="stroke:#009af9; stroke-linecap:round; stroke-linejoin:round; stroke-width:4; stroke-opacity:1; fill:none" points="
  1849.83,144.949 1991.07,144.949 
  "/>
<path clip-path="url(#clip570)" d="M2014.61 127.669 L2019.29 127.669 L2019.29 162.229 L2014.61 162.229 L2014.61 127.669 Z" fill="#000000" fill-rule="evenodd" fill-opacity="1" /><path clip-path="url(#clip570)" d="M2049.96 146.581 L2049.96 162.229 L2045.7 162.229 L2045.7 146.719 Q2045.7 143.039 2044.27 141.21 Q2042.83 139.382 2039.96 139.382 Q2036.51 139.382 2034.52 141.581 Q2032.53 143.78 2032.53 147.576 L2032.53 162.229 L2028.25 162.229 L2028.25 136.303 L2032.53 136.303 L2032.53 140.331 Q2034.06 137.993 2036.12 136.835 Q2038.2 135.678 2040.91 135.678 Q2045.38 135.678 2047.67 138.456 Q2049.96 141.21 2049.96 146.581 Z" fill="#000000" fill-rule="evenodd" fill-opacity="1" /><path clip-path="url(#clip570)" d="M2075.52 140.238 L2075.52 126.21 L2079.78 126.21 L2079.78 162.229 L2075.52 162.229 L2075.52 158.34 Q2074.17 160.655 2072.11 161.789 Q2070.08 162.9 2067.21 162.9 Q2062.51 162.9 2059.54 159.15 Q2056.6 155.4 2056.6 149.289 Q2056.6 143.178 2059.54 139.428 Q2062.51 135.678 2067.21 135.678 Q2070.08 135.678 2072.11 136.812 Q2074.17 137.923 2075.52 140.238 M2061 149.289 Q2061 153.988 2062.92 156.673 Q2064.87 159.335 2068.25 159.335 Q2071.63 159.335 2073.57 156.673 Q2075.52 153.988 2075.52 149.289 Q2075.52 144.59 2073.57 141.928 Q2071.63 139.243 2068.25 139.243 Q2064.87 139.243 2062.92 141.928 Q2061 144.59 2061 149.289 Z" fill="#000000" fill-rule="evenodd" fill-opacity="1" /><path clip-path="url(#clip570)" d="M2098.6 139.289 Q2095.17 139.289 2093.18 141.974 Q2091.19 144.636 2091.19 149.289 Q2091.19 153.942 2093.16 156.627 Q2095.15 159.289 2098.6 159.289 Q2102 159.289 2103.99 156.604 Q2105.98 153.918 2105.98 149.289 Q2105.98 144.682 2103.99 141.997 Q2102 139.289 2098.6 139.289 M2098.6 135.678 Q2104.15 135.678 2107.32 139.289 Q2110.49 142.9 2110.49 149.289 Q2110.49 155.655 2107.32 159.289 Q2104.15 162.9 2098.6 162.9 Q2093.02 162.9 2089.85 159.289 Q2086.7 155.655 2086.7 149.289 Q2086.7 142.9 2089.85 139.289 Q2093.02 135.678 2098.6 135.678 Z" fill="#000000" fill-rule="evenodd" fill-opacity="1" /><path clip-path="url(#clip570)" d="M2127.6 139.289 Q2124.17 139.289 2122.18 141.974 Q2120.19 144.636 2120.19 149.289 Q2120.19 153.942 2122.16 156.627 Q2124.15 159.289 2127.6 159.289 Q2131 159.289 2132.99 156.604 Q2134.98 153.918 2134.98 149.289 Q2134.98 144.682 2132.99 141.997 Q2131 139.289 2127.6 139.289 M2127.6 135.678 Q2133.16 135.678 2136.33 139.289 Q2139.5 142.9 2139.5 149.289 Q2139.5 155.655 2136.33 159.289 Q2133.16 162.9 2127.6 162.9 Q2122.02 162.9 2118.85 159.289 Q2115.7 155.655 2115.7 149.289 Q2115.7 142.9 2118.85 139.289 Q2122.02 135.678 2127.6 135.678 Z" fill="#000000" fill-rule="evenodd" fill-opacity="1" /><path clip-path="url(#clip570)" d="M2161.58 140.284 Q2160.86 139.868 2160.01 139.682 Q2159.17 139.474 2158.16 139.474 Q2154.54 139.474 2152.6 141.835 Q2150.68 144.173 2150.68 148.571 L2150.68 162.229 L2146.4 162.229 L2146.4 136.303 L2150.68 136.303 L2150.68 140.331 Q2152.02 137.969 2154.17 136.835 Q2156.33 135.678 2159.41 135.678 Q2159.85 135.678 2160.38 135.747 Q2160.91 135.794 2161.56 135.909 L2161.58 140.284 Z" fill="#000000" fill-rule="evenodd" fill-opacity="1" /><polyline clip-path="url(#clip570)" style="stroke:#e26f46; stroke-linecap:round; stroke-linejoin:round; stroke-width:4; stroke-opacity:1; fill:none" points="
  1849.83,196.789 1991.07,196.789 
  "/>
<path clip-path="url(#clip570)" d="M2030.63 182.68 Q2025.54 182.68 2022.53 186.476 Q2019.54 190.272 2019.54 196.823 Q2019.54 203.351 2022.53 207.147 Q2025.54 210.944 2030.63 210.944 Q2035.73 210.944 2038.69 207.147 Q2041.67 203.351 2041.67 196.823 Q2041.67 190.272 2038.69 186.476 Q2035.73 182.68 2030.63 182.68 M2030.63 178.884 Q2037.9 178.884 2042.25 183.768 Q2046.6 188.629 2046.6 196.823 Q2046.6 204.995 2042.25 209.879 Q2037.9 214.74 2030.63 214.74 Q2023.34 214.74 2018.97 209.879 Q2014.61 205.018 2014.61 196.823 Q2014.61 188.629 2018.97 183.768 Q2023.34 178.884 2030.63 178.884 Z" fill="#000000" fill-rule="evenodd" fill-opacity="1" /><path clip-path="url(#clip570)" d="M2053.29 203.837 L2053.29 188.143 L2057.55 188.143 L2057.55 203.675 Q2057.55 207.356 2058.99 209.208 Q2060.42 211.036 2063.29 211.036 Q2066.74 211.036 2068.73 208.837 Q2070.75 206.638 2070.75 202.842 L2070.75 188.143 L2075.01 188.143 L2075.01 214.069 L2070.75 214.069 L2070.75 210.087 Q2069.2 212.448 2067.14 213.606 Q2065.1 214.74 2062.39 214.74 Q2057.92 214.74 2055.61 211.962 Q2053.29 209.184 2053.29 203.837 M2064.01 187.518 L2064.01 187.518 Z" fill="#000000" fill-rule="evenodd" fill-opacity="1" /><path clip-path="url(#clip570)" d="M2087.99 180.782 L2087.99 188.143 L2096.77 188.143 L2096.77 191.453 L2087.99 191.453 L2087.99 205.527 Q2087.99 208.698 2088.85 209.601 Q2089.73 210.504 2092.39 210.504 L2096.77 210.504 L2096.77 214.069 L2092.39 214.069 Q2087.46 214.069 2085.59 212.24 Q2083.71 210.388 2083.71 205.527 L2083.71 191.453 L2080.59 191.453 L2080.59 188.143 L2083.71 188.143 L2083.71 180.782 L2087.99 180.782 Z" fill="#000000" fill-rule="evenodd" fill-opacity="1" /><path clip-path="url(#clip570)" d="M2119.43 192.078 L2119.43 178.05 L2123.69 178.05 L2123.69 214.069 L2119.43 214.069 L2119.43 210.18 Q2118.09 212.495 2116.03 213.629 Q2113.99 214.74 2111.12 214.74 Q2106.42 214.74 2103.46 210.99 Q2100.52 207.24 2100.52 201.129 Q2100.52 195.018 2103.46 191.268 Q2106.42 187.518 2111.12 187.518 Q2113.99 187.518 2116.03 188.652 Q2118.09 189.763 2119.43 192.078 M2104.91 201.129 Q2104.91 205.828 2106.84 208.513 Q2108.78 211.175 2112.16 211.175 Q2115.54 211.175 2117.48 208.513 Q2119.43 205.828 2119.43 201.129 Q2119.43 196.43 2117.48 193.768 Q2115.54 191.083 2112.16 191.083 Q2108.78 191.083 2106.84 193.768 Q2104.91 196.43 2104.91 201.129 Z" fill="#000000" fill-rule="evenodd" fill-opacity="1" /><path clip-path="url(#clip570)" d="M2142.51 191.129 Q2139.08 191.129 2137.09 193.814 Q2135.1 196.476 2135.1 201.129 Q2135.1 205.782 2137.07 208.467 Q2139.06 211.129 2142.51 211.129 Q2145.91 211.129 2147.9 208.444 Q2149.89 205.758 2149.89 201.129 Q2149.89 196.522 2147.9 193.837 Q2145.91 191.129 2142.51 191.129 M2142.51 187.518 Q2148.06 187.518 2151.23 191.129 Q2154.41 194.74 2154.41 201.129 Q2154.41 207.495 2151.23 211.129 Q2148.06 214.74 2142.51 214.74 Q2136.93 214.74 2133.76 211.129 Q2130.61 207.495 2130.61 201.129 Q2130.61 194.74 2133.76 191.129 Q2136.93 187.518 2142.51 187.518 Z" fill="#000000" fill-rule="evenodd" fill-opacity="1" /><path clip-path="url(#clip570)" d="M2171.51 191.129 Q2168.09 191.129 2166.1 193.814 Q2164.1 196.476 2164.1 201.129 Q2164.1 205.782 2166.07 208.467 Q2168.06 211.129 2171.51 211.129 Q2174.91 211.129 2176.91 208.444 Q2178.9 205.758 2178.9 201.129 Q2178.9 196.522 2176.91 193.837 Q2174.91 191.129 2171.51 191.129 M2171.51 187.518 Q2177.07 187.518 2180.24 191.129 Q2183.41 194.74 2183.41 201.129 Q2183.41 207.495 2180.24 211.129 Q2177.07 214.74 2171.51 214.74 Q2165.93 214.74 2162.76 211.129 Q2159.61 207.495 2159.61 201.129 Q2159.61 194.74 2162.76 191.129 Q2165.93 187.518 2171.51 187.518 Z" fill="#000000" fill-rule="evenodd" fill-opacity="1" /><path clip-path="url(#clip570)" d="M2205.49 192.124 Q2204.78 191.708 2203.92 191.522 Q2203.09 191.314 2202.07 191.314 Q2198.46 191.314 2196.51 193.675 Q2194.59 196.013 2194.59 200.411 L2194.59 214.069 L2190.31 214.069 L2190.31 188.143 L2194.59 188.143 L2194.59 192.171 Q2195.93 189.809 2198.09 188.675 Q2200.24 187.518 2203.32 187.518 Q2203.76 187.518 2204.29 187.587 Q2204.82 187.634 2205.47 187.749 L2205.49 192.124 Z" fill="#000000" fill-rule="evenodd" fill-opacity="1" /><polyline clip-path="url(#clip570)" style="stroke:#3da44d; stroke-linecap:round; stroke-linejoin:round; stroke-width:4; stroke-opacity:1; fill:none" points="
  1849.83,248.629 1991.07,248.629 
  "/>
<path clip-path="url(#clip570)" d="M2015.29 261.973 L2022.92 261.973 L2022.92 235.608 L2014.61 237.275 L2014.61 233.015 L2022.88 231.349 L2027.55 231.349 L2027.55 261.973 L2035.19 261.973 L2035.19 265.909 L2015.29 265.909 L2015.29 261.973 Z" fill="#000000" fill-rule="evenodd" fill-opacity="1" /><path clip-path="url(#clip570)" d="M2041.88 251.024 L2054.36 251.024 L2054.36 254.821 L2041.88 254.821 L2041.88 251.024 Z" fill="#000000" fill-rule="evenodd" fill-opacity="1" /><path clip-path="url(#clip570)" d="M2082.69 250.261 L2082.69 265.909 L2078.43 265.909 L2078.43 250.399 Q2078.43 246.719 2077 244.89 Q2075.56 243.062 2072.69 243.062 Q2069.24 243.062 2067.25 245.261 Q2065.26 247.46 2065.26 251.256 L2065.26 265.909 L2060.98 265.909 L2060.98 229.89 L2065.26 229.89 L2065.26 244.011 Q2066.79 241.673 2068.85 240.515 Q2070.93 239.358 2073.64 239.358 Q2078.11 239.358 2080.4 242.136 Q2082.69 244.89 2082.69 250.261 Z" fill="#000000" fill-rule="evenodd" fill-opacity="1" /><path clip-path="url(#clip570)" d="M2106.21 243.964 Q2105.49 243.548 2104.64 243.362 Q2103.8 243.154 2102.79 243.154 Q2099.17 243.154 2097.23 245.515 Q2095.31 247.853 2095.31 252.251 L2095.31 265.909 L2091.03 265.909 L2091.03 239.983 L2095.31 239.983 L2095.31 244.011 Q2096.65 241.649 2098.8 240.515 Q2100.96 239.358 2104.04 239.358 Q2104.48 239.358 2105.01 239.427 Q2105.54 239.474 2106.19 239.589 L2106.21 243.964 Z" fill="#000000" fill-rule="evenodd" fill-opacity="1" /><path clip-path="url(#clip570)" d="M2137.48 235.955 L2131.14 253.154 L2143.85 253.154 L2137.48 235.955 M2134.85 231.349 L2140.15 231.349 L2153.32 265.909 L2148.46 265.909 L2145.31 257.043 L2129.73 257.043 L2126.58 265.909 L2121.65 265.909 L2134.85 231.349 Z" fill="#000000" fill-rule="evenodd" fill-opacity="1" /><path clip-path="url(#clip570)" d="M2171.23 235.955 L2164.89 253.154 L2177.6 253.154 L2171.23 235.955 M2168.6 231.349 L2173.9 231.349 L2187.07 265.909 L2182.21 265.909 L2179.06 257.043 L2163.48 257.043 L2160.33 265.909 L2155.4 265.909 L2168.6 231.349 Z" fill="#000000" fill-rule="evenodd" fill-opacity="1" /><path clip-path="url(#clip570)" d="M2205.31 234.52 Q2200.22 234.52 2197.21 238.316 Q2194.22 242.112 2194.22 248.663 Q2194.22 255.191 2197.21 258.987 Q2200.22 262.784 2205.31 262.784 Q2210.4 262.784 2213.36 258.987 Q2216.35 255.191 2216.35 248.663 Q2216.35 242.112 2213.36 238.316 Q2210.4 234.52 2205.31 234.52 M2211.86 265.284 L2218.02 272.02 L2212.37 272.02 L2207.25 266.487 Q2206.49 266.534 2206.07 266.557 Q2205.68 266.58 2205.31 266.58 Q2198.02 266.58 2193.64 261.719 Q2189.29 256.835 2189.29 248.663 Q2189.29 240.469 2193.64 235.608 Q2198.02 230.724 2205.31 230.724 Q2212.58 230.724 2216.93 235.608 Q2221.28 240.469 2221.28 248.663 Q2221.28 254.682 2218.85 258.964 Q2216.44 263.247 2211.86 265.284 Z" fill="#000000" fill-rule="evenodd" fill-opacity="1" /><path clip-path="url(#clip570)" d="M2242.62 234.52 Q2237.53 234.52 2234.52 238.316 Q2231.53 242.112 2231.53 248.663 Q2231.53 255.191 2234.52 258.987 Q2237.53 262.784 2242.62 262.784 Q2247.71 262.784 2250.68 258.987 Q2253.66 255.191 2253.66 248.663 Q2253.66 242.112 2250.68 238.316 Q2247.71 234.52 2242.62 234.52 M2242.62 230.724 Q2249.89 230.724 2254.24 235.608 Q2258.59 240.469 2258.59 248.663 Q2258.59 256.835 2254.24 261.719 Q2249.89 266.58 2242.62 266.58 Q2235.33 266.58 2230.96 261.719 Q2226.6 256.858 2226.6 248.663 Q2226.6 240.469 2230.96 235.608 Q2235.33 230.724 2242.62 230.724 Z" fill="#000000" fill-rule="evenodd" fill-opacity="1" /></svg>
