<?xml version="1.0" encoding="utf-8"?>
<svg xmlns="http://www.w3.org/2000/svg" xmlns:xlink="http://www.w3.org/1999/xlink" width="600" height="400" viewBox="0 0 2400 1600">
<defs>
  <clipPath id="clip120">
    <rect x="0" y="0" width="2400" height="1600"/>
  </clipPath>
</defs>
<path clip-path="url(#clip120)" d="
M0 1600 L2400 1600 L2400 0 L0 0  Z
  " fill="#ffffff" fill-rule="evenodd" fill-opacity="1"/>
<defs>
  <clipPath id="clip121">
    <rect x="480" y="0" width="1681" height="1600"/>
  </clipPath>
</defs>
<path clip-path="url(#clip120)" d="
M238.13 1423.18 L2352.76 1423.18 L2352.76 123.472 L238.13 123.472  Z
  " fill="#ffffff" fill-rule="evenodd" fill-opacity="1"/>
<defs>
  <clipPath id="clip122">
    <rect x="238" y="123" width="2116" height="1301"/>
  </clipPath>
</defs>
<polyline clip-path="url(#clip122)" style="stroke:#000000; stroke-width:2; stroke-opacity:0.1; fill:none" points="
  259.199,1423.18 259.199,123.472 
  "/>
<polyline clip-path="url(#clip122)" style="stroke:#000000; stroke-width:2; stroke-opacity:0.1; fill:none" points="
  768.11,1423.18 768.11,123.472 
  "/>
<polyline clip-path="url(#clip122)" style="stroke:#000000; stroke-width:2; stroke-opacity:0.1; fill:none" points="
  1277.02,1423.18 1277.02,123.472 
  "/>
<polyline clip-path="url(#clip122)" style="stroke:#000000; stroke-width:2; stroke-opacity:0.1; fill:none" points="
  1785.93,1423.18 1785.93,123.472 
  "/>
<polyline clip-path="url(#clip122)" style="stroke:#000000; stroke-width:2; stroke-opacity:0.1; fill:none" points="
  2294.84,1423.18 2294.84,123.472 
  "/>
<polyline clip-path="url(#clip120)" style="stroke:#000000; stroke-width:4; stroke-opacity:1; fill:none" points="
  238.13,1423.18 2352.76,1423.18 
  "/>
<polyline clip-path="url(#clip120)" style="stroke:#000000; stroke-width:4; stroke-opacity:1; fill:none" points="
  259.199,1423.18 259.199,1407.58 
  "/>
<polyline clip-path="url(#clip120)" style="stroke:#000000; stroke-width:4; stroke-opacity:1; fill:none" points="
  768.11,1423.18 768.11,1407.58 
  "/>
<polyline clip-path="url(#clip120)" style="stroke:#000000; stroke-width:4; stroke-opacity:1; fill:none" points="
  1277.02,1423.18 1277.02,1407.58 
  "/>
<polyline clip-path="url(#clip120)" style="stroke:#000000; stroke-width:4; stroke-opacity:1; fill:none" points="
  1785.93,1423.18 1785.93,1407.58 
  "/>
<polyline clip-path="url(#clip120)" style="stroke:#000000; stroke-width:4; stroke-opacity:1; fill:none" points="
  2294.84,1423.18 2294.84,1407.58 
  "/>
<path clip-path="url(#clip120)" d="M 0 0 M240.715 1452.37 Q237.104 1452.37 235.275 1455.94 Q233.47 1459.48 233.47 1466.61 Q233.47 1473.71 235.275 1477.28 Q237.104 1480.82 240.715 1480.82 Q244.35 1480.82 246.155 1477.28 Q247.984 1473.71 247.984 1466.61 Q247.984 1459.48 246.155 1455.94 Q244.35 1452.37 240.715 1452.37 M240.715 1448.67 Q246.525 1448.67 249.581 1453.27 Q252.66 1457.86 252.66 1466.61 Q252.66 1475.33 249.581 1479.94 Q246.525 1484.52 240.715 1484.52 Q234.905 1484.52 231.826 1479.94 Q228.771 1475.33 228.771 1466.61 Q228.771 1457.86 231.826 1453.27 Q234.905 1448.67 240.715 1448.67 Z" fill="#000000" fill-rule="evenodd" fill-opacity="1" /><path clip-path="url(#clip120)" d="M 0 0 M257.729 1477.97 L262.613 1477.97 L262.613 1483.85 L257.729 1483.85 L257.729 1477.97 Z" fill="#000000" fill-rule="evenodd" fill-opacity="1" /><path clip-path="url(#clip120)" d="M 0 0 M277.683 1452.37 Q274.072 1452.37 272.243 1455.94 Q270.437 1459.48 270.437 1466.61 Q270.437 1473.71 272.243 1477.28 Q274.072 1480.82 277.683 1480.82 Q281.317 1480.82 283.122 1477.28 Q284.951 1473.71 284.951 1466.61 Q284.951 1459.48 283.122 1455.94 Q281.317 1452.37 277.683 1452.37 M277.683 1448.67 Q283.493 1448.67 286.548 1453.27 Q289.627 1457.86 289.627 1466.61 Q289.627 1475.33 286.548 1479.94 Q283.493 1484.52 277.683 1484.52 Q271.873 1484.52 268.794 1479.94 Q265.738 1475.33 265.738 1466.61 Q265.738 1457.86 268.794 1453.27 Q271.873 1448.67 277.683 1448.67 Z" fill="#000000" fill-rule="evenodd" fill-opacity="1" /><path clip-path="url(#clip120)" d="M 0 0 M750.124 1452.37 Q746.513 1452.37 744.684 1455.94 Q742.878 1459.48 742.878 1466.61 Q742.878 1473.71 744.684 1477.28 Q746.513 1480.82 750.124 1480.82 Q753.758 1480.82 755.563 1477.28 Q757.392 1473.71 757.392 1466.61 Q757.392 1459.48 755.563 1455.94 Q753.758 1452.37 750.124 1452.37 M750.124 1448.67 Q755.934 1448.67 758.989 1453.27 Q762.068 1457.86 762.068 1466.61 Q762.068 1475.33 758.989 1479.94 Q755.934 1484.52 750.124 1484.52 Q744.314 1484.52 741.235 1479.94 Q738.179 1475.33 738.179 1466.61 Q738.179 1457.86 741.235 1453.27 Q744.314 1448.67 750.124 1448.67 Z" fill="#000000" fill-rule="evenodd" fill-opacity="1" /><path clip-path="url(#clip120)" d="M 0 0 M767.137 1477.97 L772.022 1477.97 L772.022 1483.85 L767.137 1483.85 L767.137 1477.97 Z" fill="#000000" fill-rule="evenodd" fill-opacity="1" /><path clip-path="url(#clip120)" d="M 0 0 M777.137 1449.29 L795.494 1449.29 L795.494 1453.23 L781.42 1453.23 L781.42 1461.7 Q782.438 1461.35 783.457 1461.19 Q784.475 1461 785.494 1461 Q791.281 1461 794.66 1464.18 Q798.04 1467.35 798.04 1472.76 Q798.04 1478.34 794.568 1481.44 Q791.096 1484.52 784.776 1484.52 Q782.6 1484.52 780.332 1484.15 Q778.086 1483.78 775.679 1483.04 L775.679 1478.34 Q777.762 1479.48 779.985 1480.03 Q782.207 1480.59 784.684 1480.59 Q788.688 1480.59 791.026 1478.48 Q793.364 1476.38 793.364 1472.76 Q793.364 1469.15 791.026 1467.05 Q788.688 1464.94 784.684 1464.94 Q782.809 1464.94 780.934 1465.36 Q779.082 1465.77 777.137 1466.65 L777.137 1449.29 Z" fill="#000000" fill-rule="evenodd" fill-opacity="1" /><path clip-path="url(#clip120)" d="M 0 0 M1248.92 1479.92 L1256.56 1479.92 L1256.56 1453.55 L1248.25 1455.22 L1248.25 1450.96 L1256.51 1449.29 L1261.19 1449.29 L1261.19 1479.92 L1268.83 1479.92 L1268.83 1483.85 L1248.92 1483.85 L1248.92 1479.92 Z" fill="#000000" fill-rule="evenodd" fill-opacity="1" /><path clip-path="url(#clip120)" d="M 0 0 M1273.9 1477.97 L1278.78 1477.97 L1278.78 1483.85 L1273.9 1483.85 L1273.9 1477.97 Z" fill="#000000" fill-rule="evenodd" fill-opacity="1" /><path clip-path="url(#clip120)" d="M 0 0 M1293.85 1452.37 Q1290.24 1452.37 1288.41 1455.94 Q1286.6 1459.48 1286.6 1466.61 Q1286.6 1473.71 1288.41 1477.28 Q1290.24 1480.82 1293.85 1480.82 Q1297.48 1480.82 1299.29 1477.28 Q1301.12 1473.71 1301.12 1466.61 Q1301.12 1459.48 1299.29 1455.94 Q1297.48 1452.37 1293.85 1452.37 M1293.85 1448.67 Q1299.66 1448.67 1302.71 1453.27 Q1305.79 1457.86 1305.79 1466.61 Q1305.79 1475.33 1302.71 1479.94 Q1299.66 1484.52 1293.85 1484.52 Q1288.04 1484.52 1284.96 1479.94 Q1281.9 1475.33 1281.9 1466.61 Q1281.9 1457.86 1284.96 1453.27 Q1288.04 1448.67 1293.85 1448.67 Z" fill="#000000" fill-rule="evenodd" fill-opacity="1" /><path clip-path="url(#clip120)" d="M 0 0 M1758.33 1479.92 L1765.97 1479.92 L1765.97 1453.55 L1757.66 1455.22 L1757.66 1450.96 L1765.92 1449.29 L1770.6 1449.29 L1770.6 1479.92 L1778.23 1479.92 L1778.23 1483.85 L1758.33 1483.85 L1758.33 1479.92 Z" fill="#000000" fill-rule="evenodd" fill-opacity="1" /><path clip-path="url(#clip120)" d="M 0 0 M1783.3 1477.97 L1788.19 1477.97 L1788.19 1483.85 L1783.3 1483.85 L1783.3 1477.97 Z" fill="#000000" fill-rule="evenodd" fill-opacity="1" /><path clip-path="url(#clip120)" d="M 0 0 M1793.3 1449.29 L1811.66 1449.29 L1811.66 1453.23 L1797.59 1453.23 L1797.59 1461.7 Q1798.6 1461.35 1799.62 1461.19 Q1800.64 1461 1801.66 1461 Q1807.45 1461 1810.83 1464.18 Q1814.21 1467.35 1814.21 1472.76 Q1814.21 1478.34 1810.73 1481.44 Q1807.26 1484.52 1800.94 1484.52 Q1798.77 1484.52 1796.5 1484.15 Q1794.25 1483.78 1791.85 1483.04 L1791.85 1478.34 Q1793.93 1479.48 1796.15 1480.03 Q1798.37 1480.59 1800.85 1480.59 Q1804.85 1480.59 1807.19 1478.48 Q1809.53 1476.38 1809.53 1472.76 Q1809.53 1469.15 1807.19 1467.05 Q1804.85 1464.94 1800.85 1464.94 Q1798.98 1464.94 1797.1 1465.36 Q1795.25 1465.77 1793.3 1466.65 L1793.3 1449.29 Z" fill="#000000" fill-rule="evenodd" fill-opacity="1" /><path clip-path="url(#clip120)" d="M 0 0 M2271.01 1479.92 L2287.33 1479.92 L2287.33 1483.85 L2265.39 1483.85 L2265.39 1479.92 Q2268.05 1477.16 2272.63 1472.53 Q2277.24 1467.88 2278.42 1466.54 Q2280.66 1464.01 2281.54 1462.28 Q2282.45 1460.52 2282.45 1458.83 Q2282.45 1456.07 2280.5 1454.34 Q2278.58 1452.6 2275.48 1452.6 Q2273.28 1452.6 2270.83 1453.37 Q2268.4 1454.13 2265.62 1455.68 L2265.62 1450.96 Q2268.44 1449.82 2270.9 1449.25 Q2273.35 1448.67 2275.39 1448.67 Q2280.76 1448.67 2283.95 1451.35 Q2287.15 1454.04 2287.15 1458.53 Q2287.15 1460.66 2286.33 1462.58 Q2285.55 1464.48 2283.44 1467.07 Q2282.86 1467.74 2279.76 1470.96 Q2276.66 1474.15 2271.01 1479.92 Z" fill="#000000" fill-rule="evenodd" fill-opacity="1" /><path clip-path="url(#clip120)" d="M 0 0 M2292.4 1477.97 L2297.28 1477.97 L2297.28 1483.85 L2292.4 1483.85 L2292.4 1477.97 Z" fill="#000000" fill-rule="evenodd" fill-opacity="1" /><path clip-path="url(#clip120)" d="M 0 0 M2312.35 1452.37 Q2308.74 1452.37 2306.91 1455.94 Q2305.11 1459.48 2305.11 1466.61 Q2305.11 1473.71 2306.91 1477.28 Q2308.74 1480.82 2312.35 1480.82 Q2315.99 1480.82 2317.79 1477.28 Q2319.62 1473.71 2319.62 1466.61 Q2319.62 1459.48 2317.79 1455.94 Q2315.99 1452.37 2312.35 1452.37 M2312.35 1448.67 Q2318.16 1448.67 2321.22 1453.27 Q2324.3 1457.86 2324.3 1466.61 Q2324.3 1475.33 2321.22 1479.94 Q2318.16 1484.52 2312.35 1484.52 Q2306.54 1484.52 2303.46 1479.94 Q2300.41 1475.33 2300.41 1466.61 Q2300.41 1457.86 2303.46 1453.27 Q2306.54 1448.67 2312.35 1448.67 Z" fill="#000000" fill-rule="evenodd" fill-opacity="1" /><path clip-path="url(#clip120)" d="M 0 0 M885.81 1513.81 L885.81 1550.76 L893.576 1550.76 Q903.411 1550.76 907.962 1546.3 Q912.546 1541.85 912.546 1532.24 Q912.546 1522.69 907.962 1518.26 Q903.411 1513.81 893.576 1513.81 L885.81 1513.81 M879.38 1508.52 L892.589 1508.52 Q906.403 1508.52 912.864 1514.28 Q919.325 1520.01 919.325 1532.24 Q919.325 1544.52 912.832 1550.28 Q906.339 1556.04 892.589 1556.04 L879.38 1556.04 L879.38 1508.52 Z" fill="#000000" fill-rule="evenodd" fill-opacity="1" /><path clip-path="url(#clip120)" d="M 0 0 M939.282 1524.5 Q934.571 1524.5 931.834 1528.19 Q929.097 1531.85 929.097 1538.25 Q929.097 1544.65 931.802 1548.34 Q934.539 1552 939.282 1552 Q943.96 1552 946.698 1548.31 Q949.435 1544.62 949.435 1538.25 Q949.435 1531.92 946.698 1528.23 Q943.96 1524.5 939.282 1524.5 M939.282 1519.54 Q946.921 1519.54 951.281 1524.5 Q955.642 1529.47 955.642 1538.25 Q955.642 1547 951.281 1552 Q946.921 1556.97 939.282 1556.97 Q931.611 1556.97 927.251 1552 Q922.922 1547 922.922 1538.25 Q922.922 1529.47 927.251 1524.5 Q931.611 1519.54 939.282 1519.54 Z" fill="#000000" fill-rule="evenodd" fill-opacity="1" /><path clip-path="url(#clip120)" d="M 0 0 M958.379 1520.4 L964.235 1520.4 L971.556 1548.21 L978.845 1520.4 L985.751 1520.4 L993.072 1548.21 L1000.36 1520.4 L1006.22 1520.4 L996.891 1556.04 L989.985 1556.04 L982.314 1526.83 L974.611 1556.04 L967.705 1556.04 L958.379 1520.4 Z" fill="#000000" fill-rule="evenodd" fill-opacity="1" /><path clip-path="url(#clip120)" d="M 0 0 M1041.99 1534.53 L1041.99 1556.04 L1036.14 1556.04 L1036.14 1534.72 Q1036.14 1529.66 1034.16 1527.14 Q1032.19 1524.63 1028.24 1524.63 Q1023.5 1524.63 1020.76 1527.65 Q1018.03 1530.68 1018.03 1535.9 L1018.03 1556.04 L1012.14 1556.04 L1012.14 1520.4 L1018.03 1520.4 L1018.03 1525.93 Q1020.13 1522.72 1022.96 1521.13 Q1025.82 1519.54 1029.55 1519.54 Q1035.69 1519.54 1038.84 1523.36 Q1041.99 1527.14 1041.99 1534.53 Z" fill="#000000" fill-rule="evenodd" fill-opacity="1" /><path clip-path="url(#clip120)" d="M 0 0 M1070.86 1521.45 L1070.86 1526.98 Q1068.38 1525.71 1065.7 1525.07 Q1063.03 1524.44 1060.17 1524.44 Q1055.81 1524.44 1053.61 1525.77 Q1051.45 1527.11 1051.45 1529.79 Q1051.45 1531.82 1053.01 1533 Q1054.56 1534.15 1059.28 1535.2 L1061.28 1535.64 Q1067.52 1536.98 1070.13 1539.43 Q1072.77 1541.85 1072.77 1546.21 Q1072.77 1551.17 1068.82 1554.07 Q1064.91 1556.97 1058.03 1556.97 Q1055.17 1556.97 1052.05 1556.39 Q1048.96 1555.85 1045.53 1554.74 L1045.53 1548.69 Q1048.77 1550.38 1051.92 1551.24 Q1055.07 1552.07 1058.16 1552.07 Q1062.3 1552.07 1064.53 1550.66 Q1066.75 1549.23 1066.75 1546.65 Q1066.75 1544.27 1065.13 1542.99 Q1063.54 1541.72 1058.1 1540.54 L1056.06 1540.07 Q1050.62 1538.92 1048.2 1536.56 Q1045.78 1534.18 1045.78 1530.04 Q1045.78 1525.01 1049.34 1522.27 Q1052.91 1519.54 1059.47 1519.54 Q1062.71 1519.54 1065.58 1520.01 Q1068.44 1520.49 1070.86 1521.45 Z" fill="#000000" fill-rule="evenodd" fill-opacity="1" /><path clip-path="url(#clip120)" d="M 0 0 M1084.71 1510.27 L1084.71 1520.4 L1096.77 1520.4 L1096.77 1524.95 L1084.71 1524.95 L1084.71 1544.3 Q1084.71 1548.66 1085.88 1549.9 Q1087.09 1551.14 1090.75 1551.14 L1096.77 1551.14 L1096.77 1556.04 L1090.75 1556.04 Q1083.97 1556.04 1081.4 1553.53 Q1078.82 1550.98 1078.82 1544.3 L1078.82 1524.95 L1074.52 1524.95 L1074.52 1520.4 L1078.82 1520.4 L1078.82 1510.27 L1084.71 1510.27 Z" fill="#000000" fill-rule="evenodd" fill-opacity="1" /><path clip-path="url(#clip120)" d="M 0 0 M1123.57 1525.87 Q1122.58 1525.3 1121.4 1525.04 Q1120.26 1524.76 1118.86 1524.76 Q1113.89 1524.76 1111.22 1528 Q1108.58 1531.22 1108.58 1537.27 L1108.58 1556.04 L1102.69 1556.04 L1102.69 1520.4 L1108.58 1520.4 L1108.58 1525.93 Q1110.42 1522.69 1113.38 1521.13 Q1116.34 1519.54 1120.58 1519.54 Q1121.18 1519.54 1121.91 1519.63 Q1122.65 1519.7 1123.54 1519.85 L1123.57 1525.87 Z" fill="#000000" fill-rule="evenodd" fill-opacity="1" /><path clip-path="url(#clip120)" d="M 0 0 M1158.77 1536.76 L1158.77 1539.62 L1131.84 1539.62 Q1132.23 1545.67 1135.47 1548.85 Q1138.75 1552 1144.58 1552 Q1147.95 1552 1151.1 1551.17 Q1154.28 1550.35 1157.4 1548.69 L1157.4 1554.23 Q1154.25 1555.57 1150.94 1556.27 Q1147.63 1556.97 1144.23 1556.97 Q1135.7 1556.97 1130.7 1552 Q1125.73 1547.04 1125.73 1538.57 Q1125.73 1529.82 1130.44 1524.69 Q1135.19 1519.54 1143.21 1519.54 Q1150.4 1519.54 1154.57 1524.18 Q1158.77 1528.8 1158.77 1536.76 M1152.91 1535.04 Q1152.85 1530.23 1150.21 1527.37 Q1147.6 1524.5 1143.27 1524.5 Q1138.37 1524.5 1135.41 1527.27 Q1132.48 1530.04 1132.04 1535.07 L1152.91 1535.04 Z" fill="#000000" fill-rule="evenodd" fill-opacity="1" /><path clip-path="url(#clip120)" d="M 0 0 M1181.11 1538.12 Q1174.02 1538.12 1171.28 1539.75 Q1168.54 1541.37 1168.54 1545.29 Q1168.54 1548.4 1170.58 1550.25 Q1172.65 1552.07 1176.18 1552.07 Q1181.05 1552.07 1183.98 1548.63 Q1186.94 1545.16 1186.94 1539.43 L1186.94 1538.12 L1181.11 1538.12 M1192.8 1535.71 L1192.8 1556.04 L1186.94 1556.04 L1186.94 1550.63 Q1184.93 1553.88 1181.94 1555.44 Q1178.95 1556.97 1174.62 1556.97 Q1169.15 1556.97 1165.9 1553.91 Q1162.69 1550.82 1162.69 1545.67 Q1162.69 1539.65 1166.7 1536.6 Q1170.74 1533.54 1178.73 1533.54 L1186.94 1533.54 L1186.94 1532.97 Q1186.94 1528.93 1184.27 1526.73 Q1181.62 1524.5 1176.82 1524.5 Q1173.76 1524.5 1170.87 1525.23 Q1167.97 1525.97 1165.3 1527.43 L1165.3 1522.02 Q1168.51 1520.78 1171.53 1520.17 Q1174.56 1519.54 1177.42 1519.54 Q1185.16 1519.54 1188.98 1523.55 Q1192.8 1527.56 1192.8 1535.71 Z" fill="#000000" fill-rule="evenodd" fill-opacity="1" /><path clip-path="url(#clip120)" d="M 0 0 M1226.69 1527.24 Q1228.89 1523.29 1231.95 1521.41 Q1235 1519.54 1239.14 1519.54 Q1244.71 1519.54 1247.73 1523.45 Q1250.76 1527.33 1250.76 1534.53 L1250.76 1556.04 L1244.87 1556.04 L1244.87 1534.72 Q1244.87 1529.59 1243.05 1527.11 Q1241.24 1524.63 1237.52 1524.63 Q1232.96 1524.63 1230.32 1527.65 Q1227.68 1530.68 1227.68 1535.9 L1227.68 1556.04 L1221.79 1556.04 L1221.79 1534.72 Q1221.79 1529.56 1219.98 1527.11 Q1218.16 1524.63 1214.38 1524.63 Q1209.89 1524.63 1207.25 1527.68 Q1204.6 1530.71 1204.6 1535.9 L1204.6 1556.04 L1198.72 1556.04 L1198.72 1520.4 L1204.6 1520.4 L1204.6 1525.93 Q1206.61 1522.66 1209.41 1521.1 Q1212.21 1519.54 1216.06 1519.54 Q1219.95 1519.54 1222.65 1521.51 Q1225.39 1523.48 1226.69 1527.24 Z" fill="#000000" fill-rule="evenodd" fill-opacity="1" /><path clip-path="url(#clip120)" d="M 0 0 M1301.08 1525.81 L1301.08 1506.52 L1306.93 1506.52 L1306.93 1556.04 L1301.08 1556.04 L1301.08 1550.7 Q1299.23 1553.88 1296.4 1555.44 Q1293.6 1556.97 1289.65 1556.97 Q1283.19 1556.97 1279.11 1551.81 Q1275.07 1546.65 1275.07 1538.25 Q1275.07 1529.85 1279.11 1524.69 Q1283.19 1519.54 1289.65 1519.54 Q1293.6 1519.54 1296.4 1521.1 Q1299.23 1522.62 1301.08 1525.81 M1281.12 1538.25 Q1281.12 1544.71 1283.76 1548.4 Q1286.44 1552.07 1291.08 1552.07 Q1295.73 1552.07 1298.4 1548.4 Q1301.08 1544.71 1301.08 1538.25 Q1301.08 1531.79 1298.4 1528.13 Q1295.73 1524.44 1291.08 1524.44 Q1286.44 1524.44 1283.76 1528.13 Q1281.12 1531.79 1281.12 1538.25 Z" fill="#000000" fill-rule="evenodd" fill-opacity="1" /><path clip-path="url(#clip120)" d="M 0 0 M1313.08 1520.4 L1318.93 1520.4 L1318.93 1556.04 L1313.08 1556.04 L1313.08 1520.4 M1313.08 1506.52 L1318.93 1506.52 L1318.93 1513.93 L1313.08 1513.93 L1313.08 1506.52 Z" fill="#000000" fill-rule="evenodd" fill-opacity="1" /><path clip-path="url(#clip120)" d="M 0 0 M1347.8 1521.45 L1347.8 1526.98 Q1345.32 1525.71 1342.64 1525.07 Q1339.97 1524.44 1337.11 1524.44 Q1332.75 1524.44 1330.55 1525.77 Q1328.39 1527.11 1328.39 1529.79 Q1328.39 1531.82 1329.95 1533 Q1331.5 1534.15 1336.22 1535.2 L1338.22 1535.64 Q1344.46 1536.98 1347.07 1539.43 Q1349.71 1541.85 1349.71 1546.21 Q1349.71 1551.17 1345.76 1554.07 Q1341.85 1556.97 1334.97 1556.97 Q1332.11 1556.97 1328.99 1556.39 Q1325.9 1555.85 1322.47 1554.74 L1322.47 1548.69 Q1325.71 1550.38 1328.86 1551.24 Q1332.01 1552.07 1335.1 1552.07 Q1339.24 1552.07 1341.47 1550.66 Q1343.7 1549.23 1343.7 1546.65 Q1343.7 1544.27 1342.07 1542.99 Q1340.48 1541.72 1335.04 1540.54 L1333 1540.07 Q1327.56 1538.92 1325.14 1536.56 Q1322.72 1534.18 1322.72 1530.04 Q1322.72 1525.01 1326.28 1522.27 Q1329.85 1519.54 1336.41 1519.54 Q1339.65 1519.54 1342.52 1520.01 Q1345.38 1520.49 1347.8 1521.45 Z" fill="#000000" fill-rule="evenodd" fill-opacity="1" /><path clip-path="url(#clip120)" d="M 0 0 M1361.65 1510.27 L1361.65 1520.4 L1373.71 1520.4 L1373.71 1524.95 L1361.65 1524.95 L1361.65 1544.3 Q1361.65 1548.66 1362.82 1549.9 Q1364.03 1551.14 1367.69 1551.14 L1373.71 1551.14 L1373.71 1556.04 L1367.69 1556.04 Q1360.91 1556.04 1358.34 1553.53 Q1355.76 1550.98 1355.76 1544.3 L1355.76 1524.95 L1351.46 1524.95 L1351.46 1520.4 L1355.76 1520.4 L1355.76 1510.27 L1361.65 1510.27 Z" fill="#000000" fill-rule="evenodd" fill-opacity="1" /><path clip-path="url(#clip120)" d="M 0 0 M1396.05 1538.12 Q1388.96 1538.12 1386.22 1539.75 Q1383.48 1541.37 1383.48 1545.29 Q1383.48 1548.4 1385.52 1550.25 Q1387.59 1552.07 1391.12 1552.07 Q1395.99 1552.07 1398.92 1548.63 Q1401.88 1545.16 1401.88 1539.43 L1401.88 1538.12 L1396.05 1538.12 M1407.73 1535.71 L1407.73 1556.04 L1401.88 1556.04 L1401.88 1550.63 Q1399.87 1553.88 1396.88 1555.44 Q1393.89 1556.97 1389.56 1556.97 Q1384.09 1556.97 1380.84 1553.91 Q1377.62 1550.82 1377.62 1545.67 Q1377.62 1539.65 1381.63 1536.6 Q1385.68 1533.54 1393.67 1533.54 L1401.88 1533.54 L1401.88 1532.97 Q1401.88 1528.93 1399.2 1526.73 Q1396.56 1524.5 1391.76 1524.5 Q1388.7 1524.5 1385.8 1525.23 Q1382.91 1525.97 1380.23 1527.43 L1380.23 1522.02 Q1383.45 1520.78 1386.47 1520.17 Q1389.5 1519.54 1392.36 1519.54 Q1400.1 1519.54 1403.91 1523.55 Q1407.73 1527.56 1407.73 1535.71 Z" fill="#000000" fill-rule="evenodd" fill-opacity="1" /><path clip-path="url(#clip120)" d="M 0 0 M1443.51 1534.53 L1443.51 1556.04 L1437.65 1556.04 L1437.65 1534.72 Q1437.65 1529.66 1435.68 1527.14 Q1433.71 1524.63 1429.76 1524.63 Q1425.02 1524.63 1422.28 1527.65 Q1419.54 1530.68 1419.54 1535.9 L1419.54 1556.04 L1413.65 1556.04 L1413.65 1520.4 L1419.54 1520.4 L1419.54 1525.93 Q1421.64 1522.72 1424.48 1521.13 Q1427.34 1519.54 1431.06 1519.54 Q1437.21 1519.54 1440.36 1523.36 Q1443.51 1527.14 1443.51 1534.53 Z" fill="#000000" fill-rule="evenodd" fill-opacity="1" /><path clip-path="url(#clip120)" d="M 0 0 M1475.31 1521.76 L1475.31 1527.24 Q1472.82 1525.87 1470.31 1525.2 Q1467.83 1524.5 1465.28 1524.5 Q1459.58 1524.5 1456.43 1528.13 Q1453.28 1531.73 1453.28 1538.25 Q1453.28 1544.78 1456.43 1548.4 Q1459.58 1552 1465.28 1552 Q1467.83 1552 1470.31 1551.33 Q1472.82 1550.63 1475.31 1549.26 L1475.31 1554.68 Q1472.86 1555.82 1470.21 1556.39 Q1467.6 1556.97 1464.64 1556.97 Q1456.59 1556.97 1451.85 1551.91 Q1447.11 1546.85 1447.11 1538.25 Q1447.11 1529.53 1451.88 1524.53 Q1456.69 1519.54 1465.03 1519.54 Q1467.73 1519.54 1470.31 1520.11 Q1472.89 1520.65 1475.31 1521.76 Z" fill="#000000" fill-rule="evenodd" fill-opacity="1" /><path clip-path="url(#clip120)" d="M 0 0 M1511.94 1536.76 L1511.94 1539.62 L1485.01 1539.62 Q1485.4 1545.67 1488.64 1548.85 Q1491.92 1552 1497.75 1552 Q1501.12 1552 1504.27 1551.17 Q1507.45 1550.35 1510.57 1548.69 L1510.57 1554.23 Q1507.42 1555.57 1504.11 1556.27 Q1500.8 1556.97 1497.4 1556.97 Q1488.86 1556.97 1483.87 1552 Q1478.9 1547.04 1478.9 1538.57 Q1478.9 1529.82 1483.61 1524.69 Q1488.36 1519.54 1496.38 1519.54 Q1503.57 1519.54 1507.74 1524.18 Q1511.94 1528.8 1511.94 1536.76 M1506.08 1535.04 Q1506.02 1530.23 1503.38 1527.37 Q1500.77 1524.5 1496.44 1524.5 Q1491.54 1524.5 1488.58 1527.27 Q1485.65 1530.04 1485.2 1535.07 L1506.08 1535.04 Z" fill="#000000" fill-rule="evenodd" fill-opacity="1" /><path clip-path="url(#clip120)" d="M 0 0 M1519.58 1547.96 L1526.3 1547.96 L1526.3 1553.43 L1521.08 1563.62 L1516.97 1563.62 L1519.58 1553.43 L1519.58 1547.96 Z" fill="#000000" fill-rule="evenodd" fill-opacity="1" /><path clip-path="url(#clip120)" d="M 0 0 M1550.61 1520.4 L1578.43 1520.4 L1578.43 1525.74 L1556.41 1551.37 L1578.43 1551.37 L1578.43 1556.04 L1549.82 1556.04 L1549.82 1550.7 L1571.84 1525.07 L1550.61 1525.07 L1550.61 1520.4 Z" fill="#000000" fill-rule="evenodd" fill-opacity="1" /><path clip-path="url(#clip120)" d="M 0 0 M1586.07 1547.96 L1592.79 1547.96 L1592.79 1553.43 L1587.57 1563.62 L1583.46 1563.62 L1586.07 1553.43 L1586.07 1547.96 Z" fill="#000000" fill-rule="evenodd" fill-opacity="1" /><path clip-path="url(#clip120)" d="M 0 0 M1633.72 1506.58 Q1629.45 1513.9 1627.38 1521.06 Q1625.31 1528.23 1625.31 1535.58 Q1625.31 1542.93 1627.38 1550.16 Q1629.48 1557.35 1633.72 1564.64 L1628.62 1564.64 Q1623.85 1557.16 1621.46 1549.93 Q1619.11 1542.71 1619.11 1535.58 Q1619.11 1528.48 1621.46 1521.29 Q1623.82 1514.09 1628.62 1506.58 L1633.72 1506.58 Z" fill="#000000" fill-rule="evenodd" fill-opacity="1" /><path clip-path="url(#clip120)" d="M 0 0 M1667.61 1527.24 Q1669.81 1523.29 1672.87 1521.41 Q1675.92 1519.54 1680.06 1519.54 Q1685.63 1519.54 1688.65 1523.45 Q1691.68 1527.33 1691.68 1534.53 L1691.68 1556.04 L1685.79 1556.04 L1685.79 1534.72 Q1685.79 1529.59 1683.97 1527.11 Q1682.16 1524.63 1678.44 1524.63 Q1673.88 1524.63 1671.24 1527.65 Q1668.6 1530.68 1668.6 1535.9 L1668.6 1556.04 L1662.71 1556.04 L1662.71 1534.72 Q1662.71 1529.56 1660.9 1527.11 Q1659.08 1524.63 1655.3 1524.63 Q1650.81 1524.63 1648.17 1527.68 Q1645.53 1530.71 1645.53 1535.9 L1645.53 1556.04 L1639.64 1556.04 L1639.64 1520.4 L1645.53 1520.4 L1645.53 1525.93 Q1647.53 1522.66 1650.33 1521.1 Q1653.13 1519.54 1656.98 1519.54 Q1660.87 1519.54 1663.57 1521.51 Q1666.31 1523.48 1667.61 1527.24 Z" fill="#000000" fill-rule="evenodd" fill-opacity="1" /><path clip-path="url(#clip120)" d="M 0 0 M1696.9 1506.58 L1701.99 1506.58 Q1706.76 1514.09 1709.12 1521.29 Q1711.51 1528.48 1711.51 1535.58 Q1711.51 1542.71 1709.12 1549.93 Q1706.76 1557.16 1701.99 1564.64 L1696.9 1564.64 Q1701.13 1557.35 1703.2 1550.16 Q1705.3 1542.93 1705.3 1535.58 Q1705.3 1528.23 1703.2 1521.06 Q1701.13 1513.9 1696.9 1506.58 Z" fill="#000000" fill-rule="evenodd" fill-opacity="1" /><polyline clip-path="url(#clip122)" style="stroke:#000000; stroke-width:2; stroke-opacity:0.1; fill:none" points="
  238.13,1410.23 2352.76,1410.23 
  "/>
<polyline clip-path="url(#clip122)" style="stroke:#000000; stroke-width:2; stroke-opacity:0.1; fill:none" points="
  238.13,1113.92 2352.76,1113.92 
  "/>
<polyline clip-path="url(#clip122)" style="stroke:#000000; stroke-width:2; stroke-opacity:0.1; fill:none" points="
  238.13,817.611 2352.76,817.611 
  "/>
<polyline clip-path="url(#clip122)" style="stroke:#000000; stroke-width:2; stroke-opacity:0.1; fill:none" points="
  238.13,521.302 2352.76,521.302 
  "/>
<polyline clip-path="url(#clip122)" style="stroke:#000000; stroke-width:2; stroke-opacity:0.1; fill:none" points="
  238.13,224.992 2352.76,224.992 
  "/>
<polyline clip-path="url(#clip120)" style="stroke:#000000; stroke-width:4; stroke-opacity:1; fill:none" points="
  238.13,1423.18 238.13,123.472 
  "/>
<polyline clip-path="url(#clip120)" style="stroke:#000000; stroke-width:4; stroke-opacity:1; fill:none" points="
  238.13,1410.23 263.506,1410.23 
  "/>
<polyline clip-path="url(#clip120)" style="stroke:#000000; stroke-width:4; stroke-opacity:1; fill:none" points="
  238.13,1113.92 263.506,1113.92 
  "/>
<polyline clip-path="url(#clip120)" style="stroke:#000000; stroke-width:4; stroke-opacity:1; fill:none" points="
  238.13,817.611 263.506,817.611 
  "/>
<polyline clip-path="url(#clip120)" style="stroke:#000000; stroke-width:4; stroke-opacity:1; fill:none" points="
  238.13,521.302 263.506,521.302 
  "/>
<polyline clip-path="url(#clip120)" style="stroke:#000000; stroke-width:4; stroke-opacity:1; fill:none" points="
  238.13,224.992 263.506,224.992 
  "/>
<path clip-path="url(#clip120)" d="M 0 0 M126.205 1396.03 Q122.593 1396.03 120.765 1399.59 Q118.959 1403.14 118.959 1410.27 Q118.959 1417.37 120.765 1420.94 Q122.593 1424.48 126.205 1424.48 Q129.839 1424.48 131.644 1420.94 Q133.473 1417.37 133.473 1410.27 Q133.473 1403.14 131.644 1399.59 Q129.839 1396.03 126.205 1396.03 M126.205 1392.33 Q132.015 1392.33 135.07 1396.93 Q138.149 1401.52 138.149 1410.27 Q138.149 1418.99 135.07 1423.6 Q132.015 1428.18 126.205 1428.18 Q120.394 1428.18 117.316 1423.6 Q114.26 1418.99 114.26 1410.27 Q114.26 1401.52 117.316 1396.93 Q120.394 1392.33 126.205 1392.33 Z" fill="#000000" fill-rule="evenodd" fill-opacity="1" /><path clip-path="url(#clip120)" d="M 0 0 M143.218 1421.63 L148.103 1421.63 L148.103 1427.51 L143.218 1427.51 L143.218 1421.63 Z" fill="#000000" fill-rule="evenodd" fill-opacity="1" /><path clip-path="url(#clip120)" d="M 0 0 M163.172 1396.03 Q159.561 1396.03 157.732 1399.59 Q155.927 1403.14 155.927 1410.27 Q155.927 1417.37 157.732 1420.94 Q159.561 1424.48 163.172 1424.48 Q166.806 1424.48 168.612 1420.94 Q170.44 1417.37 170.44 1410.27 Q170.44 1403.14 168.612 1399.59 Q166.806 1396.03 163.172 1396.03 M163.172 1392.33 Q168.982 1392.33 172.038 1396.93 Q175.116 1401.52 175.116 1410.27 Q175.116 1418.99 172.038 1423.6 Q168.982 1428.18 163.172 1428.18 Q157.362 1428.18 154.283 1423.6 Q151.228 1418.99 151.228 1410.27 Q151.228 1401.52 154.283 1396.93 Q157.362 1392.33 163.172 1392.33 Z" fill="#000000" fill-rule="evenodd" fill-opacity="1" /><path clip-path="url(#clip120)" d="M 0 0 M190.186 1396.03 Q186.575 1396.03 184.746 1399.59 Q182.94 1403.14 182.94 1410.27 Q182.94 1417.37 184.746 1420.94 Q186.575 1424.48 190.186 1424.48 Q193.82 1424.48 195.625 1420.94 Q197.454 1417.37 197.454 1410.27 Q197.454 1403.14 195.625 1399.59 Q193.82 1396.03 190.186 1396.03 M190.186 1392.33 Q195.996 1392.33 199.051 1396.93 Q202.13 1401.52 202.13 1410.27 Q202.13 1418.99 199.051 1423.6 Q195.996 1428.18 190.186 1428.18 Q184.376 1428.18 181.297 1423.6 Q178.241 1418.99 178.241 1410.27 Q178.241 1401.52 181.297 1396.93 Q184.376 1392.33 190.186 1392.33 Z" fill="#000000" fill-rule="evenodd" fill-opacity="1" /><path clip-path="url(#clip120)" d="M 0 0 M128.797 1099.72 Q125.186 1099.72 123.357 1103.28 Q121.552 1106.83 121.552 1113.96 Q121.552 1121.06 123.357 1124.63 Q125.186 1128.17 128.797 1128.17 Q132.431 1128.17 134.237 1124.63 Q136.066 1121.06 136.066 1113.96 Q136.066 1106.83 134.237 1103.28 Q132.431 1099.72 128.797 1099.72 M128.797 1096.02 Q134.607 1096.02 137.663 1100.62 Q140.741 1105.21 140.741 1113.96 Q140.741 1122.68 137.663 1127.29 Q134.607 1131.87 128.797 1131.87 Q122.987 1131.87 119.908 1127.29 Q116.853 1122.68 116.853 1113.96 Q116.853 1105.21 119.908 1100.62 Q122.987 1096.02 128.797 1096.02 Z" fill="#000000" fill-rule="evenodd" fill-opacity="1" /><path clip-path="url(#clip120)" d="M 0 0 M145.811 1125.32 L150.695 1125.32 L150.695 1131.2 L145.811 1131.2 L145.811 1125.32 Z" fill="#000000" fill-rule="evenodd" fill-opacity="1" /><path clip-path="url(#clip120)" d="M 0 0 M159.792 1127.27 L176.112 1127.27 L176.112 1131.2 L154.167 1131.2 L154.167 1127.27 Q156.829 1124.51 161.413 1119.88 Q166.019 1115.23 167.2 1113.89 Q169.445 1111.36 170.325 1109.63 Q171.227 1107.87 171.227 1106.18 Q171.227 1103.42 169.283 1101.69 Q167.362 1099.95 164.26 1099.95 Q162.061 1099.95 159.607 1100.71 Q157.177 1101.48 154.399 1103.03 L154.399 1098.31 Q157.223 1097.17 159.677 1096.59 Q162.13 1096.02 164.167 1096.02 Q169.538 1096.02 172.732 1098.7 Q175.926 1101.39 175.926 1105.88 Q175.926 1108.01 175.116 1109.93 Q174.329 1111.83 172.223 1114.42 Q171.644 1115.09 168.542 1118.31 Q165.44 1121.5 159.792 1127.27 Z" fill="#000000" fill-rule="evenodd" fill-opacity="1" /><path clip-path="url(#clip120)" d="M 0 0 M181.227 1096.64 L199.584 1096.64 L199.584 1100.58 L185.51 1100.58 L185.51 1109.05 Q186.528 1108.7 187.547 1108.54 Q188.565 1108.35 189.584 1108.35 Q195.371 1108.35 198.75 1111.53 Q202.13 1114.7 202.13 1120.11 Q202.13 1125.69 198.658 1128.79 Q195.186 1131.87 188.866 1131.87 Q186.69 1131.87 184.422 1131.5 Q182.176 1131.13 179.769 1130.39 L179.769 1125.69 Q181.852 1126.83 184.075 1127.38 Q186.297 1127.94 188.774 1127.94 Q192.778 1127.94 195.116 1125.83 Q197.454 1123.72 197.454 1120.11 Q197.454 1116.5 195.116 1114.4 Q192.778 1112.29 188.774 1112.29 Q186.899 1112.29 185.024 1112.71 Q183.172 1113.12 181.227 1114 L181.227 1096.64 Z" fill="#000000" fill-rule="evenodd" fill-opacity="1" /><path clip-path="url(#clip120)" d="M 0 0 M127.2 803.41 Q123.589 803.41 121.76 806.975 Q119.955 810.517 119.955 817.646 Q119.955 824.753 121.76 828.317 Q123.589 831.859 127.2 831.859 Q130.834 831.859 132.64 828.317 Q134.468 824.753 134.468 817.646 Q134.468 810.517 132.64 806.975 Q130.834 803.41 127.2 803.41 M127.2 799.706 Q133.01 799.706 136.066 804.313 Q139.144 808.896 139.144 817.646 Q139.144 826.373 136.066 830.979 Q133.01 835.563 127.2 835.563 Q121.39 835.563 118.311 830.979 Q115.256 826.373 115.256 817.646 Q115.256 808.896 118.311 804.313 Q121.39 799.706 127.2 799.706 Z" fill="#000000" fill-rule="evenodd" fill-opacity="1" /><path clip-path="url(#clip120)" d="M 0 0 M144.214 829.012 L149.098 829.012 L149.098 834.891 L144.214 834.891 L144.214 829.012 Z" fill="#000000" fill-rule="evenodd" fill-opacity="1" /><path clip-path="url(#clip120)" d="M 0 0 M154.214 800.331 L172.57 800.331 L172.57 804.267 L158.496 804.267 L158.496 812.739 Q159.515 812.392 160.533 812.229 Q161.552 812.044 162.57 812.044 Q168.357 812.044 171.737 815.216 Q175.116 818.387 175.116 823.803 Q175.116 829.382 171.644 832.484 Q168.172 835.563 161.852 835.563 Q159.677 835.563 157.408 835.192 Q155.163 834.822 152.755 834.081 L152.755 829.382 Q154.839 830.516 157.061 831.072 Q159.283 831.628 161.76 831.628 Q165.765 831.628 168.102 829.521 Q170.44 827.415 170.44 823.803 Q170.44 820.192 168.102 818.086 Q165.765 815.979 161.76 815.979 Q159.885 815.979 158.01 816.396 Q156.158 816.813 154.214 817.692 L154.214 800.331 Z" fill="#000000" fill-rule="evenodd" fill-opacity="1" /><path clip-path="url(#clip120)" d="M 0 0 M190.186 803.41 Q186.575 803.41 184.746 806.975 Q182.94 810.517 182.94 817.646 Q182.94 824.753 184.746 828.317 Q186.575 831.859 190.186 831.859 Q193.82 831.859 195.625 828.317 Q197.454 824.753 197.454 817.646 Q197.454 810.517 195.625 806.975 Q193.82 803.41 190.186 803.41 M190.186 799.706 Q195.996 799.706 199.051 804.313 Q202.13 808.896 202.13 817.646 Q202.13 826.373 199.051 830.979 Q195.996 835.563 190.186 835.563 Q184.376 835.563 181.297 830.979 Q178.241 826.373 178.241 817.646 Q178.241 808.896 181.297 804.313 Q184.376 799.706 190.186 799.706 Z" fill="#000000" fill-rule="evenodd" fill-opacity="1" /><path clip-path="url(#clip120)" d="M 0 0 M128.103 507.101 Q124.492 507.101 122.663 510.665 Q120.857 514.207 120.857 521.337 Q120.857 528.443 122.663 532.008 Q124.492 535.55 128.103 535.55 Q131.737 535.55 133.542 532.008 Q135.371 528.443 135.371 521.337 Q135.371 514.207 133.542 510.665 Q131.737 507.101 128.103 507.101 M128.103 503.397 Q133.913 503.397 136.968 508.003 Q140.047 512.587 140.047 521.337 Q140.047 530.063 136.968 534.67 Q133.913 539.253 128.103 539.253 Q122.293 539.253 119.214 534.67 Q116.158 530.063 116.158 521.337 Q116.158 512.587 119.214 508.003 Q122.293 503.397 128.103 503.397 Z" fill="#000000" fill-rule="evenodd" fill-opacity="1" /><path clip-path="url(#clip120)" d="M 0 0 M145.116 532.702 L150.001 532.702 L150.001 538.582 L145.116 538.582 L145.116 532.702 Z" fill="#000000" fill-rule="evenodd" fill-opacity="1" /><path clip-path="url(#clip120)" d="M 0 0 M153.89 504.022 L176.112 504.022 L176.112 506.013 L163.565 538.582 L158.681 538.582 L170.487 507.957 L153.89 507.957 L153.89 504.022 Z" fill="#000000" fill-rule="evenodd" fill-opacity="1" /><path clip-path="url(#clip120)" d="M 0 0 M181.227 504.022 L199.584 504.022 L199.584 507.957 L185.51 507.957 L185.51 516.429 Q186.528 516.082 187.547 515.92 Q188.565 515.735 189.584 515.735 Q195.371 515.735 198.75 518.906 Q202.13 522.077 202.13 527.494 Q202.13 533.073 198.658 536.175 Q195.186 539.253 188.866 539.253 Q186.69 539.253 184.422 538.883 Q182.176 538.512 179.769 537.772 L179.769 533.073 Q181.852 534.207 184.075 534.762 Q186.297 535.318 188.774 535.318 Q192.778 535.318 195.116 533.212 Q197.454 531.105 197.454 527.494 Q197.454 523.883 195.116 521.776 Q192.778 519.67 188.774 519.67 Q186.899 519.67 185.024 520.087 Q183.172 520.503 181.227 521.383 L181.227 504.022 Z" fill="#000000" fill-rule="evenodd" fill-opacity="1" /><path clip-path="url(#clip120)" d="M 0 0 M118.242 238.337 L125.88 238.337 L125.88 211.972 L117.57 213.638 L117.57 209.379 L125.834 207.712 L130.51 207.712 L130.51 238.337 L138.149 238.337 L138.149 242.272 L118.242 242.272 L118.242 238.337 Z" fill="#000000" fill-rule="evenodd" fill-opacity="1" /><path clip-path="url(#clip120)" d="M 0 0 M143.218 236.393 L148.103 236.393 L148.103 242.272 L143.218 242.272 L143.218 236.393 Z" fill="#000000" fill-rule="evenodd" fill-opacity="1" /><path clip-path="url(#clip120)" d="M 0 0 M163.172 210.791 Q159.561 210.791 157.732 214.356 Q155.927 217.898 155.927 225.027 Q155.927 232.134 157.732 235.698 Q159.561 239.24 163.172 239.24 Q166.806 239.24 168.612 235.698 Q170.44 232.134 170.44 225.027 Q170.44 217.898 168.612 214.356 Q166.806 210.791 163.172 210.791 M163.172 207.087 Q168.982 207.087 172.038 211.694 Q175.116 216.277 175.116 225.027 Q175.116 233.754 172.038 238.36 Q168.982 242.944 163.172 242.944 Q157.362 242.944 154.283 238.36 Q151.228 233.754 151.228 225.027 Q151.228 216.277 154.283 211.694 Q157.362 207.087 163.172 207.087 Z" fill="#000000" fill-rule="evenodd" fill-opacity="1" /><path clip-path="url(#clip120)" d="M 0 0 M190.186 210.791 Q186.575 210.791 184.746 214.356 Q182.94 217.898 182.94 225.027 Q182.94 232.134 184.746 235.698 Q186.575 239.24 190.186 239.24 Q193.82 239.24 195.625 235.698 Q197.454 232.134 197.454 225.027 Q197.454 217.898 195.625 214.356 Q193.82 210.791 190.186 210.791 M190.186 207.087 Q195.996 207.087 199.051 211.694 Q202.13 216.277 202.13 225.027 Q202.13 233.754 199.051 238.36 Q195.996 242.944 190.186 242.944 Q184.376 242.944 181.297 238.36 Q178.241 233.754 178.241 225.027 Q178.241 216.277 181.297 211.694 Q184.376 207.087 190.186 207.087 Z" fill="#000000" fill-rule="evenodd" fill-opacity="1" /><path clip-path="url(#clip120)" d="M 0 0 M44.1444 1062.47 L50.9239 1062.47 Q47.9002 1065.72 46.4043 1069.41 Q44.9083 1073.07 44.9083 1077.21 Q44.9083 1085.36 49.9054 1089.69 Q54.8707 1094.01 64.2919 1094.01 Q73.6813 1094.01 78.6784 1089.69 Q83.6436 1085.36 83.6436 1077.21 Q83.6436 1073.07 82.1477 1069.41 Q80.6518 1065.72 77.6281 1062.47 L84.3439 1062.47 Q86.6355 1065.85 87.7814 1069.63 Q88.9272 1073.39 88.9272 1077.59 Q88.9272 1088.38 82.3387 1094.59 Q75.7183 1100.79 64.2919 1100.79 Q52.8336 1100.79 46.2451 1094.59 Q39.6248 1088.38 39.6248 1077.59 Q39.6248 1073.33 40.7706 1069.57 Q41.8846 1065.78 44.1444 1062.47 Z" fill="#000000" fill-rule="evenodd" fill-opacity="1" /><path clip-path="url(#clip120)" d="M 0 0 M56.4621 1042.52 Q56.4621 1047.23 60.1542 1049.96 Q63.8145 1052.7 70.212 1052.7 Q76.6095 1052.7 80.3017 1050 Q83.9619 1047.26 83.9619 1042.52 Q83.9619 1037.84 80.2698 1035.1 Q76.5777 1032.36 70.212 1032.36 Q63.8781 1032.36 60.186 1035.1 Q56.4621 1037.84 56.4621 1042.52 M51.4968 1042.52 Q51.4968 1034.88 56.4621 1030.52 Q61.4273 1026.16 70.212 1026.16 Q78.9649 1026.16 83.9619 1030.52 Q88.9272 1034.88 88.9272 1042.52 Q88.9272 1050.19 83.9619 1054.55 Q78.9649 1058.88 70.212 1058.88 Q61.4273 1058.88 56.4621 1054.55 Q51.4968 1050.19 51.4968 1042.52 Z" fill="#000000" fill-rule="evenodd" fill-opacity="1" /><path clip-path="url(#clip120)" d="M 0 0 M66.4881 990.381 L88.0042 990.381 L88.0042 996.237 L66.679 996.237 Q61.6183 996.237 59.1038 998.21 Q56.5894 1000.18 56.5894 1004.13 Q56.5894 1008.87 59.6131 1011.61 Q62.6368 1014.35 67.8567 1014.35 L88.0042 1014.35 L88.0042 1020.24 L52.3562 1020.24 L52.3562 1014.35 L57.8944 1014.35 Q54.6797 1012.25 53.0883 1009.41 Q51.4968 1006.55 51.4968 1002.83 Q51.4968 996.683 55.3163 993.532 Q59.1038 990.381 66.4881 990.381 Z" fill="#000000" fill-rule="evenodd" fill-opacity="1" /><path clip-path="url(#clip120)" d="M 0 0 M53.7248 958.584 L59.1993 958.584 Q57.8307 961.067 57.1623 963.581 Q56.4621 966.064 56.4621 968.61 Q56.4621 974.307 60.0905 977.458 Q63.6872 980.609 70.212 980.609 Q76.7369 980.609 80.3653 977.458 Q83.9619 974.307 83.9619 968.61 Q83.9619 966.064 83.2935 963.581 Q82.5933 961.067 81.2247 958.584 L86.6355 958.584 Q87.7814 961.035 88.3543 963.677 Q88.9272 966.286 88.9272 969.247 Q88.9272 977.299 83.8664 982.042 Q78.8057 986.784 70.212 986.784 Q61.491 986.784 56.4939 982.01 Q51.4968 977.204 51.4968 968.865 Q51.4968 966.159 52.0697 963.581 Q52.6108 961.003 53.7248 958.584 Z" fill="#000000" fill-rule="evenodd" fill-opacity="1" /><path clip-path="url(#clip120)" d="M 0 0 M68.7161 921.949 L71.5806 921.949 L71.5806 948.876 Q77.6281 948.494 80.8109 945.248 Q83.9619 941.969 83.9619 936.145 Q83.9619 932.771 83.1344 929.62 Q82.3069 926.437 80.6518 923.318 L86.1899 923.318 Q87.5267 926.469 88.227 929.779 Q88.9272 933.089 88.9272 936.495 Q88.9272 945.025 83.9619 950.022 Q78.9967 954.987 70.5303 954.987 Q61.7774 954.987 56.6531 950.277 Q51.4968 945.534 51.4968 937.513 Q51.4968 930.32 56.1438 926.151 Q60.7589 921.949 68.7161 921.949 M66.9973 927.806 Q62.1912 927.869 59.3266 930.511 Q56.4621 933.121 56.4621 937.45 Q56.4621 942.351 59.2312 945.311 Q62.0002 948.24 67.0292 948.685 L66.9973 927.806 Z" fill="#000000" fill-rule="evenodd" fill-opacity="1" /><path clip-path="url(#clip120)" d="M 0 0 M66.4881 886.174 L88.0042 886.174 L88.0042 892.03 L66.679 892.03 Q61.6183 892.03 59.1038 894.004 Q56.5894 895.977 56.5894 899.924 Q56.5894 904.666 59.6131 907.404 Q62.6368 910.141 67.8567 910.141 L88.0042 910.141 L88.0042 916.029 L52.3562 916.029 L52.3562 910.141 L57.8944 910.141 Q54.6797 908.04 53.0883 905.208 Q51.4968 902.343 51.4968 898.619 Q51.4968 892.476 55.3163 889.325 Q59.1038 886.174 66.4881 886.174 Z" fill="#000000" fill-rule="evenodd" fill-opacity="1" /><path clip-path="url(#clip120)" d="M 0 0 M42.2347 874.238 L52.3562 874.238 L52.3562 862.175 L56.9077 862.175 L56.9077 874.238 L76.2594 874.238 Q80.6199 874.238 81.8613 873.061 Q83.1026 871.851 83.1026 868.191 L83.1026 862.175 L88.0042 862.175 L88.0042 868.191 Q88.0042 874.97 85.4897 877.549 Q82.9434 880.127 76.2594 880.127 L56.9077 880.127 L56.9077 884.423 L52.3562 884.423 L52.3562 880.127 L42.2347 880.127 L42.2347 874.238 Z" fill="#000000" fill-rule="evenodd" fill-opacity="1" /><path clip-path="url(#clip120)" d="M 0 0 M57.8307 835.376 Q57.2578 836.362 57.0032 837.54 Q56.7167 838.686 56.7167 840.086 Q56.7167 845.052 59.9632 847.725 Q63.1779 850.367 69.2253 850.367 L88.0042 850.367 L88.0042 856.255 L52.3562 856.255 L52.3562 850.367 L57.8944 850.367 Q54.6479 848.521 53.0883 845.561 Q51.4968 842.601 51.4968 838.368 Q51.4968 837.763 51.5923 837.031 Q51.656 836.299 51.8151 835.408 L57.8307 835.376 Z" fill="#000000" fill-rule="evenodd" fill-opacity="1" /><path clip-path="url(#clip120)" d="M 0 0 M70.0847 813.032 Q70.0847 820.13 71.7079 822.867 Q73.3312 825.604 77.2461 825.604 Q80.3653 825.604 82.2114 823.567 Q84.0256 821.498 84.0256 817.966 Q84.0256 813.096 80.5881 810.168 Q77.1188 807.207 71.3897 807.207 L70.0847 807.207 L70.0847 813.032 M67.6657 801.351 L88.0042 801.351 L88.0042 807.207 L82.5933 807.207 Q85.8398 809.213 87.3994 812.205 Q88.9272 815.196 88.9272 819.525 Q88.9272 825 85.8716 828.246 Q82.7843 831.461 77.6281 831.461 Q71.6125 831.461 68.5569 827.45 Q65.5014 823.408 65.5014 815.419 L65.5014 807.207 L64.9285 807.207 Q60.8862 807.207 58.6901 809.881 Q56.4621 812.523 56.4621 817.329 Q56.4621 820.384 57.1941 823.281 Q57.9262 826.177 59.3903 828.851 L53.9795 828.851 Q52.7381 825.636 52.1334 822.612 Q51.4968 819.589 51.4968 816.724 Q51.4968 808.99 55.5072 805.17 Q59.5176 801.351 67.6657 801.351 Z" fill="#000000" fill-rule="evenodd" fill-opacity="1" /><path clip-path="url(#clip120)" d="M 0 0 M42.2347 789.415 L52.3562 789.415 L52.3562 777.352 L56.9077 777.352 L56.9077 789.415 L76.2594 789.415 Q80.6199 789.415 81.8613 788.238 Q83.1026 787.028 83.1026 783.368 L83.1026 777.352 L88.0042 777.352 L88.0042 783.368 Q88.0042 790.147 85.4897 792.725 Q82.9434 795.304 76.2594 795.304 L56.9077 795.304 L56.9077 799.6 L52.3562 799.6 L52.3562 795.304 L42.2347 795.304 L42.2347 789.415 Z" fill="#000000" fill-rule="evenodd" fill-opacity="1" /><path clip-path="url(#clip120)" d="M 0 0 M52.3562 771.209 L52.3562 765.353 L88.0042 765.353 L88.0042 771.209 L52.3562 771.209 M38.479 771.209 L38.479 765.353 L45.895 765.353 L45.895 771.209 L38.479 771.209 Z" fill="#000000" fill-rule="evenodd" fill-opacity="1" /><path clip-path="url(#clip120)" d="M 0 0 M56.4621 745.396 Q56.4621 750.107 60.1542 752.844 Q63.8145 755.582 70.212 755.582 Q76.6095 755.582 80.3017 752.876 Q83.9619 750.139 83.9619 745.396 Q83.9619 740.718 80.2698 737.98 Q76.5777 735.243 70.212 735.243 Q63.8781 735.243 60.186 737.98 Q56.4621 740.718 56.4621 745.396 M51.4968 745.396 Q51.4968 737.758 56.4621 733.397 Q61.4273 729.037 70.212 729.037 Q78.9649 729.037 83.9619 733.397 Q88.9272 737.758 88.9272 745.396 Q88.9272 753.067 83.9619 757.428 Q78.9649 761.756 70.212 761.756 Q61.4273 761.756 56.4621 757.428 Q51.4968 753.067 51.4968 745.396 Z" fill="#000000" fill-rule="evenodd" fill-opacity="1" /><path clip-path="url(#clip120)" d="M 0 0 M66.4881 693.261 L88.0042 693.261 L88.0042 699.118 L66.679 699.118 Q61.6183 699.118 59.1038 701.091 Q56.5894 703.064 56.5894 707.011 Q56.5894 711.754 59.6131 714.491 Q62.6368 717.228 67.8567 717.228 L88.0042 717.228 L88.0042 723.116 L52.3562 723.116 L52.3562 717.228 L57.8944 717.228 Q54.6797 715.128 53.0883 712.295 Q51.4968 709.43 51.4968 705.706 Q51.4968 699.563 55.3163 696.412 Q59.1038 693.261 66.4881 693.261 Z" fill="#000000" fill-rule="evenodd" fill-opacity="1" /><path clip-path="url(#clip120)" d="M 0 0 M79.9197 685.622 L79.9197 678.907 L85.3942 678.907 L95.5793 684.127 L95.5793 688.232 L85.3942 685.622 L79.9197 685.622 Z" fill="#000000" fill-rule="evenodd" fill-opacity="1" /><path clip-path="url(#clip120)" d="M 0 0 M44.1444 616.204 L50.9239 616.204 Q47.9002 619.451 46.4043 623.143 Q44.9083 626.803 44.9083 630.941 Q44.9083 639.089 49.9054 643.418 Q54.8707 647.747 64.2919 647.747 Q73.6813 647.747 78.6784 643.418 Q83.6436 639.089 83.6436 630.941 Q83.6436 626.803 82.1477 623.143 Q80.6518 619.451 77.6281 616.204 L84.3439 616.204 Q86.6355 619.578 87.7814 623.366 Q88.9272 627.122 88.9272 631.323 Q88.9272 642.113 82.3387 648.319 Q75.7183 654.526 64.2919 654.526 Q52.8336 654.526 46.2451 648.319 Q39.6248 642.113 39.6248 631.323 Q39.6248 627.058 40.7706 623.302 Q41.8846 619.515 44.1444 616.204 Z" fill="#000000" fill-rule="evenodd" fill-opacity="1" /><path clip-path="url(#clip120)" d="M 0 0 M79.9197 608.566 L79.9197 601.85 L85.3942 601.85 L95.5793 607.07 L95.5793 611.176 L85.3942 608.566 L79.9197 608.566 Z" fill="#000000" fill-rule="evenodd" fill-opacity="1" /><path clip-path="url(#clip120)" d="M 0 0 M38.5426 560.918 Q45.8632 565.183 53.0246 567.252 Q60.186 569.321 67.5384 569.321 Q74.8908 569.321 82.1159 567.252 Q89.3091 565.151 96.5979 560.918 L96.5979 566.011 Q89.1182 570.785 81.8931 573.172 Q74.668 575.528 67.5384 575.528 Q60.4406 575.528 53.2474 573.172 Q46.0542 570.817 38.5426 566.011 L38.5426 560.918 Z" fill="#000000" fill-rule="evenodd" fill-opacity="1" /><path clip-path="url(#clip120)" d="M 0 0 M52.3562 558.977 L52.3562 552.77 L82.275 541.63 L52.3562 530.49 L52.3562 524.284 L88.0042 537.652 L88.0042 545.609 L52.3562 558.977 Z" fill="#000000" fill-rule="evenodd" fill-opacity="1" /><path clip-path="url(#clip120)" d="M 0 0 M40.4842 507.733 L40.4842 502.322 L94.0516 518.873 L94.0516 524.284 L40.4842 507.733 Z" fill="#000000" fill-rule="evenodd" fill-opacity="1" /><path clip-path="url(#clip120)" d="M 0 0 M52.3562 500.38 L52.3562 494.174 L82.275 483.034 L52.3562 471.894 L52.3562 465.687 L88.0042 479.055 L88.0042 487.012 L52.3562 500.38 Z" fill="#000000" fill-rule="evenodd" fill-opacity="1" /><path clip-path="url(#clip120)" d="M 0 0 M38.5426 460.467 L38.5426 455.375 Q46.0542 450.601 53.2474 448.245 Q60.4406 445.858 67.5384 445.858 Q74.668 445.858 81.8931 448.245 Q89.1182 450.601 96.5979 455.375 L96.5979 460.467 Q89.3091 456.234 82.1159 454.165 Q74.8908 452.065 67.5384 452.065 Q60.186 452.065 53.0246 454.165 Q45.8632 456.234 38.5426 460.467 Z" fill="#000000" fill-rule="evenodd" fill-opacity="1" /><path clip-path="url(#clip120)" d="M 0 0 M730.018 16.7545 L730.018 25.383 Q725.886 21.5346 721.187 19.6307 Q716.528 17.7268 711.262 17.7268 Q700.892 17.7268 695.383 24.0867 Q689.873 30.4061 689.873 42.3968 Q689.873 54.3469 695.383 60.7069 Q700.892 67.0263 711.262 67.0263 Q716.528 67.0263 721.187 65.1223 Q725.886 63.2184 730.018 59.3701 L730.018 67.9175 Q725.724 70.8341 720.903 72.2924 Q716.123 73.7508 710.776 73.7508 Q697.043 73.7508 689.144 65.3654 Q681.245 56.9395 681.245 42.3968 Q681.245 27.8135 689.144 19.4281 Q697.043 11.0023 710.776 11.0023 Q716.204 11.0023 720.984 12.4606 Q725.805 13.8784 730.018 16.7545 Z" fill="#000000" fill-rule="evenodd" fill-opacity="1" /><path clip-path="url(#clip120)" d="M 0 0 M755.417 32.4315 Q749.422 32.4315 745.938 37.1306 Q742.454 41.7891 742.454 49.9314 Q742.454 58.0738 745.897 62.7728 Q749.381 67.4314 755.417 67.4314 Q761.372 67.4314 764.856 62.7323 Q768.339 58.0333 768.339 49.9314 Q768.339 41.8701 764.856 37.1711 Q761.372 32.4315 755.417 32.4315 M755.417 26.1121 Q765.139 26.1121 770.689 32.4315 Q776.239 38.7509 776.239 49.9314 Q776.239 61.0714 770.689 67.4314 Q765.139 73.7508 755.417 73.7508 Q745.654 73.7508 740.105 67.4314 Q734.595 61.0714 734.595 49.9314 Q734.595 38.7509 740.105 32.4315 Q745.654 26.1121 755.417 26.1121 Z" fill="#000000" fill-rule="evenodd" fill-opacity="1" /><path clip-path="url(#clip120)" d="M 0 0 M821.771 45.1919 L821.771 72.576 L814.317 72.576 L814.317 45.4349 Q814.317 38.994 811.806 35.7938 Q809.294 32.5936 804.271 32.5936 Q798.235 32.5936 794.751 36.4419 Q791.267 40.2903 791.267 46.9338 L791.267 72.576 L783.773 72.576 L783.773 27.2059 L791.267 27.2059 L791.267 34.2544 Q793.941 30.163 797.546 28.1376 Q801.192 26.1121 805.932 26.1121 Q813.75 26.1121 817.76 30.9732 Q821.771 35.7938 821.771 45.1919 Z" fill="#000000" fill-rule="evenodd" fill-opacity="1" /><path clip-path="url(#clip120)" d="M 0 0 M862.239 28.9478 L862.239 35.9153 Q859.08 34.1734 855.879 33.3227 Q852.72 32.4315 849.479 32.4315 Q842.228 32.4315 838.217 37.0496 Q834.207 41.6271 834.207 49.9314 Q834.207 58.2358 838.217 62.8538 Q842.228 67.4314 849.479 67.4314 Q852.72 67.4314 855.879 66.5807 Q859.08 65.6895 862.239 63.9476 L862.239 70.8341 Q859.12 72.2924 855.758 73.0216 Q852.436 73.7508 848.669 73.7508 Q838.42 73.7508 832.384 67.3098 Q826.348 60.8689 826.348 49.9314 Q826.348 38.832 832.425 32.472 Q838.541 26.1121 849.155 26.1121 Q852.598 26.1121 855.879 26.8413 Q859.161 27.5299 862.239 28.9478 Z" fill="#000000" fill-rule="evenodd" fill-opacity="1" /><path clip-path="url(#clip120)" d="M 0 0 M908.865 48.0275 L908.865 51.6733 L874.595 51.6733 Q875.081 59.3701 879.213 63.421 Q883.385 67.4314 890.798 67.4314 Q895.092 67.4314 899.103 66.3781 Q903.153 65.3249 907.123 63.2184 L907.123 70.267 Q903.113 71.9684 898.9 72.8596 Q894.687 73.7508 890.353 73.7508 Q879.496 73.7508 873.136 67.4314 Q866.817 61.1119 866.817 50.3365 Q866.817 39.1965 872.812 32.6746 Q878.848 26.1121 889.056 26.1121 Q898.211 26.1121 903.518 32.0264 Q908.865 37.9003 908.865 48.0275 M901.412 45.84 Q901.331 39.7232 897.968 36.0774 Q894.647 32.4315 889.137 32.4315 Q882.899 32.4315 879.132 35.9558 Q875.405 39.4801 874.838 45.8805 L901.412 45.84 Z" fill="#000000" fill-rule="evenodd" fill-opacity="1" /><path clip-path="url(#clip120)" d="M 0 0 M954.397 45.1919 L954.397 72.576 L946.944 72.576 L946.944 45.4349 Q946.944 38.994 944.432 35.7938 Q941.921 32.5936 936.897 32.5936 Q930.862 32.5936 927.378 36.4419 Q923.894 40.2903 923.894 46.9338 L923.894 72.576 L916.4 72.576 L916.4 27.2059 L923.894 27.2059 L923.894 34.2544 Q926.568 30.163 930.173 28.1376 Q933.819 26.1121 938.558 26.1121 Q946.377 26.1121 950.387 30.9732 Q954.397 35.7938 954.397 45.1919 Z" fill="#000000" fill-rule="evenodd" fill-opacity="1" /><path clip-path="url(#clip120)" d="M 0 0 M969.588 14.324 L969.588 27.2059 L984.941 27.2059 L984.941 32.9987 L969.588 32.9987 L969.588 57.6282 Q969.588 63.1779 971.087 64.7578 Q972.626 66.3376 977.285 66.3376 L984.941 66.3376 L984.941 72.576 L977.285 72.576 Q968.657 72.576 965.375 69.3758 Q962.094 66.1351 962.094 57.6282 L962.094 32.9987 L956.625 32.9987 L956.625 27.2059 L962.094 27.2059 L962.094 14.324 L969.588 14.324 Z" fill="#000000" fill-rule="evenodd" fill-opacity="1" /><path clip-path="url(#clip120)" d="M 0 0 M1019.05 34.1734 Q1017.79 33.4443 1016.3 33.1202 Q1014.84 32.7556 1013.05 32.7556 Q1006.74 32.7556 1003.33 36.8875 Q999.97 40.9789 999.97 48.6757 L999.97 72.576 L992.476 72.576 L992.476 27.2059 L999.97 27.2059 L999.97 34.2544 Q1002.32 30.1225 1006.09 28.1376 Q1009.85 26.1121 1015.24 26.1121 Q1016.01 26.1121 1016.94 26.2337 Q1017.88 26.3147 1019.01 26.5172 L1019.05 34.1734 Z" fill="#000000" fill-rule="evenodd" fill-opacity="1" /><path clip-path="url(#clip120)" d="M 0 0 M1047.49 49.7694 Q1038.45 49.7694 1034.97 51.8354 Q1031.49 53.9013 1031.49 58.8839 Q1031.49 62.8538 1034.08 65.2034 Q1036.71 67.5124 1041.21 67.5124 Q1047.41 67.5124 1051.13 63.1374 Q1054.9 58.7219 1054.9 51.4303 L1054.9 49.7694 L1047.49 49.7694 M1062.35 46.6907 L1062.35 72.576 L1054.9 72.576 L1054.9 65.6895 Q1052.35 69.8214 1048.54 71.8063 Q1044.73 73.7508 1039.22 73.7508 Q1032.26 73.7508 1028.12 69.8619 Q1024.03 65.9325 1024.03 59.3701 Q1024.03 51.7138 1029.14 47.825 Q1034.28 43.9361 1044.45 43.9361 L1054.9 43.9361 L1054.9 43.2069 Q1054.9 38.0623 1051.5 35.2672 Q1048.14 32.4315 1042.02 32.4315 Q1038.13 32.4315 1034.44 33.3632 Q1030.76 34.295 1027.35 36.1584 L1027.35 29.2718 Q1031.45 27.692 1035.29 26.9223 Q1039.14 26.1121 1042.79 26.1121 Q1052.63 26.1121 1057.49 31.2163 Q1062.35 36.3204 1062.35 46.6907 Z" fill="#000000" fill-rule="evenodd" fill-opacity="1" /><path clip-path="url(#clip120)" d="M 0 0 M1077.54 14.324 L1077.54 27.2059 L1092.9 27.2059 L1092.9 32.9987 L1077.54 32.9987 L1077.54 57.6282 Q1077.54 63.1779 1079.04 64.7578 Q1080.58 66.3376 1085.24 66.3376 L1092.9 66.3376 L1092.9 72.576 L1085.24 72.576 Q1076.61 72.576 1073.33 69.3758 Q1070.05 66.1351 1070.05 57.6282 L1070.05 32.9987 L1064.58 32.9987 L1064.58 27.2059 L1070.05 27.2059 L1070.05 14.324 L1077.54 14.324 Z" fill="#000000" fill-rule="evenodd" fill-opacity="1" /><path clip-path="url(#clip120)" d="M 0 0 M1100.72 27.2059 L1108.17 27.2059 L1108.17 72.576 L1100.72 72.576 L1100.72 27.2059 M1100.72 9.54393 L1108.17 9.54393 L1108.17 18.9825 L1100.72 18.9825 L1100.72 9.54393 Z" fill="#000000" fill-rule="evenodd" fill-opacity="1" /><path clip-path="url(#clip120)" d="M 0 0 M1133.57 32.4315 Q1127.57 32.4315 1124.09 37.1306 Q1120.61 41.7891 1120.61 49.9314 Q1120.61 58.0738 1124.05 62.7728 Q1127.53 67.4314 1133.57 67.4314 Q1139.52 67.4314 1143.01 62.7323 Q1146.49 58.0333 1146.49 49.9314 Q1146.49 41.8701 1143.01 37.1711 Q1139.52 32.4315 1133.57 32.4315 M1133.57 26.1121 Q1143.29 26.1121 1148.84 32.4315 Q1154.39 38.7509 1154.39 49.9314 Q1154.39 61.0714 1148.84 67.4314 Q1143.29 73.7508 1133.57 73.7508 Q1123.81 73.7508 1118.26 67.4314 Q1112.75 61.0714 1112.75 49.9314 Q1112.75 38.7509 1118.26 32.4315 Q1123.81 26.1121 1133.57 26.1121 Z" fill="#000000" fill-rule="evenodd" fill-opacity="1" /><path clip-path="url(#clip120)" d="M 0 0 M1199.92 45.1919 L1199.92 72.576 L1192.47 72.576 L1192.47 45.4349 Q1192.47 38.994 1189.96 35.7938 Q1187.45 32.5936 1182.42 32.5936 Q1176.39 32.5936 1172.9 36.4419 Q1169.42 40.2903 1169.42 46.9338 L1169.42 72.576 L1161.93 72.576 L1161.93 27.2059 L1169.42 27.2059 L1169.42 34.2544 Q1172.09 30.163 1175.7 28.1376 Q1179.34 26.1121 1184.08 26.1121 Q1191.9 26.1121 1195.91 30.9732 Q1199.92 35.7938 1199.92 45.1919 Z" fill="#000000" fill-rule="evenodd" fill-opacity="1" /><path clip-path="url(#clip120)" d="M 0 0 M1251.69 32.4315 Q1245.7 32.4315 1242.21 37.1306 Q1238.73 41.7891 1238.73 49.9314 Q1238.73 58.0738 1242.17 62.7728 Q1245.66 67.4314 1251.69 67.4314 Q1257.65 67.4314 1261.13 62.7323 Q1264.62 58.0333 1264.62 49.9314 Q1264.62 41.8701 1261.13 37.1711 Q1257.65 32.4315 1251.69 32.4315 M1251.69 26.1121 Q1261.42 26.1121 1266.97 32.4315 Q1272.51 38.7509 1272.51 49.9314 Q1272.51 61.0714 1266.97 67.4314 Q1261.42 73.7508 1251.69 73.7508 Q1241.93 73.7508 1236.38 67.4314 Q1230.87 61.0714 1230.87 49.9314 Q1230.87 38.7509 1236.38 32.4315 Q1241.93 26.1121 1251.69 26.1121 Z" fill="#000000" fill-rule="evenodd" fill-opacity="1" /><path clip-path="url(#clip120)" d="M 0 0 M1303.3 9.54393 L1303.3 15.7418 L1296.17 15.7418 Q1292.16 15.7418 1290.58 17.3622 Q1289.04 18.9825 1289.04 23.1955 L1289.04 27.2059 L1301.32 27.2059 L1301.32 32.9987 L1289.04 32.9987 L1289.04 72.576 L1281.55 72.576 L1281.55 32.9987 L1274.42 32.9987 L1274.42 27.2059 L1281.55 27.2059 L1281.55 24.0462 Q1281.55 16.471 1285.07 13.0277 Q1288.6 9.54393 1296.25 9.54393 L1303.3 9.54393 Z" fill="#000000" fill-rule="evenodd" fill-opacity="1" /><path clip-path="url(#clip120)" d="M 0 0 M1358.03 20.1573 L1346.93 50.2555 L1369.17 50.2555 L1358.03 20.1573 M1353.41 12.096 L1362.69 12.096 L1385.74 72.576 L1377.23 72.576 L1371.72 57.061 L1344.46 57.061 L1338.95 72.576 L1330.32 72.576 L1353.41 12.096 Z" fill="#000000" fill-rule="evenodd" fill-opacity="1" /><path clip-path="url(#clip120)" d="M 0 0 M1424.75 28.9478 L1424.75 35.9153 Q1421.59 34.1734 1418.39 33.3227 Q1415.23 32.4315 1411.99 32.4315 Q1404.74 32.4315 1400.73 37.0496 Q1396.72 41.6271 1396.72 49.9314 Q1396.72 58.2358 1400.73 62.8538 Q1404.74 67.4314 1411.99 67.4314 Q1415.23 67.4314 1418.39 66.5807 Q1421.59 65.6895 1424.75 63.9476 L1424.75 70.8341 Q1421.63 72.2924 1418.27 73.0216 Q1414.94 73.7508 1411.18 73.7508 Q1400.93 73.7508 1394.89 67.3098 Q1388.86 60.8689 1388.86 49.9314 Q1388.86 38.832 1394.93 32.472 Q1401.05 26.1121 1411.66 26.1121 Q1415.11 26.1121 1418.39 26.8413 Q1421.67 27.5299 1424.75 28.9478 Z" fill="#000000" fill-rule="evenodd" fill-opacity="1" /><path clip-path="url(#clip120)" d="M 0 0 M1471.37 48.0275 L1471.37 51.6733 L1437.1 51.6733 Q1437.59 59.3701 1441.72 63.421 Q1445.89 67.4314 1453.31 67.4314 Q1457.6 67.4314 1461.61 66.3781 Q1465.66 65.3249 1469.63 63.2184 L1469.63 70.267 Q1465.62 71.9684 1461.41 72.8596 Q1457.2 73.7508 1452.86 73.7508 Q1442 73.7508 1435.64 67.4314 Q1429.33 61.1119 1429.33 50.3365 Q1429.33 39.1965 1435.32 32.6746 Q1441.36 26.1121 1451.56 26.1121 Q1460.72 26.1121 1466.03 32.0264 Q1471.37 37.9003 1471.37 48.0275 M1463.92 45.84 Q1463.84 39.7232 1460.48 36.0774 Q1457.16 32.4315 1451.65 32.4315 Q1445.41 32.4315 1441.64 35.9558 Q1437.91 39.4801 1437.35 45.8805 L1463.92 45.84 Z" fill="#000000" fill-rule="evenodd" fill-opacity="1" /><path clip-path="url(#clip120)" d="M 0 0 M1486.56 14.324 L1486.56 27.2059 L1501.92 27.2059 L1501.92 32.9987 L1486.56 32.9987 L1486.56 57.6282 Q1486.56 63.1779 1488.06 64.7578 Q1489.6 66.3376 1494.26 66.3376 L1501.92 66.3376 L1501.92 72.576 L1494.26 72.576 Q1485.63 72.576 1482.35 69.3758 Q1479.07 66.1351 1479.07 57.6282 L1479.07 32.9987 L1473.6 32.9987 L1473.6 27.2059 L1479.07 27.2059 L1479.07 14.324 L1486.56 14.324 Z" fill="#000000" fill-rule="evenodd" fill-opacity="1" /><path clip-path="url(#clip120)" d="M 0 0 M1528.61 76.7889 Q1525.45 84.8907 1522.46 87.3618 Q1519.46 89.8329 1514.43 89.8329 L1508.48 89.8329 L1508.48 83.5945 L1512.86 83.5945 Q1515.93 83.5945 1517.64 82.1361 Q1519.34 80.6778 1521.4 75.2496 L1522.74 71.8468 L1504.39 27.2059 L1512.29 27.2059 L1526.47 62.6918 L1540.64 27.2059 L1548.54 27.2059 L1528.61 76.7889 Z" fill="#000000" fill-rule="evenodd" fill-opacity="1" /><path clip-path="url(#clip120)" d="M 0 0 M1556.36 9.54393 L1563.82 9.54393 L1563.82 72.576 L1556.36 72.576 L1556.36 9.54393 Z" fill="#000000" fill-rule="evenodd" fill-opacity="1" /><path clip-path="url(#clip120)" d="M 0 0 M1610.44 48.0275 L1610.44 51.6733 L1576.17 51.6733 Q1576.66 59.3701 1580.79 63.421 Q1584.96 67.4314 1592.37 67.4314 Q1596.67 67.4314 1600.68 66.3781 Q1604.73 65.3249 1608.7 63.2184 L1608.7 70.267 Q1604.69 71.9684 1600.48 72.8596 Q1596.26 73.7508 1591.93 73.7508 Q1581.07 73.7508 1574.71 67.4314 Q1568.39 61.1119 1568.39 50.3365 Q1568.39 39.1965 1574.39 32.6746 Q1580.42 26.1121 1590.63 26.1121 Q1599.79 26.1121 1605.09 32.0264 Q1610.44 37.9003 1610.44 48.0275 M1602.99 45.84 Q1602.91 39.7232 1599.54 36.0774 Q1596.22 32.4315 1590.71 32.4315 Q1584.47 32.4315 1580.71 35.9558 Q1576.98 39.4801 1576.41 45.8805 L1602.99 45.84 Z" fill="#000000" fill-rule="evenodd" fill-opacity="1" /><path clip-path="url(#clip120)" d="M 0 0 M1655.97 45.1919 L1655.97 72.576 L1648.52 72.576 L1648.52 45.4349 Q1648.52 38.994 1646.01 35.7938 Q1643.5 32.5936 1638.47 32.5936 Q1632.44 32.5936 1628.95 36.4419 Q1625.47 40.2903 1625.47 46.9338 L1625.47 72.576 L1617.98 72.576 L1617.98 27.2059 L1625.47 27.2059 L1625.47 34.2544 Q1628.14 30.163 1631.75 28.1376 Q1635.39 26.1121 1640.13 26.1121 Q1647.95 26.1121 1651.96 30.9732 Q1655.97 35.7938 1655.97 45.1919 Z" fill="#000000" fill-rule="evenodd" fill-opacity="1" /><path clip-path="url(#clip120)" d="M 0 0 M1702.6 48.0275 L1702.6 51.6733 L1668.33 51.6733 Q1668.81 59.3701 1672.95 63.421 Q1677.12 67.4314 1684.53 67.4314 Q1688.83 67.4314 1692.84 66.3781 Q1696.89 65.3249 1700.86 63.2184 L1700.86 70.267 Q1696.85 71.9684 1692.63 72.8596 Q1688.42 73.7508 1684.09 73.7508 Q1673.23 73.7508 1666.87 67.4314 Q1660.55 61.1119 1660.55 50.3365 Q1660.55 39.1965 1666.55 32.6746 Q1672.58 26.1121 1682.79 26.1121 Q1691.95 26.1121 1697.25 32.0264 Q1702.6 37.9003 1702.6 48.0275 M1695.15 45.84 Q1695.06 39.7232 1691.7 36.0774 Q1688.38 32.4315 1682.87 32.4315 Q1676.63 32.4315 1672.87 35.9558 Q1669.14 39.4801 1668.57 45.8805 L1695.15 45.84 Z" fill="#000000" fill-rule="evenodd" fill-opacity="1" /><path clip-path="url(#clip120)" d="M 0 0 M1736.79 27.2059 L1744.24 27.2059 L1744.24 72.576 L1736.79 72.576 L1736.79 27.2059 M1736.79 9.54393 L1744.24 9.54393 L1744.24 18.9825 L1736.79 18.9825 L1736.79 9.54393 Z" fill="#000000" fill-rule="evenodd" fill-opacity="1" /><path clip-path="url(#clip120)" d="M 0 0 M1789.77 45.1919 L1789.77 72.576 L1782.32 72.576 L1782.32 45.4349 Q1782.32 38.994 1779.81 35.7938 Q1777.3 32.5936 1772.27 32.5936 Q1766.24 32.5936 1762.76 36.4419 Q1759.27 40.2903 1759.27 46.9338 L1759.27 72.576 L1751.78 72.576 L1751.78 27.2059 L1759.27 27.2059 L1759.27 34.2544 Q1761.95 30.163 1765.55 28.1376 Q1769.2 26.1121 1773.94 26.1121 Q1781.75 26.1121 1785.76 30.9732 Q1789.77 35.7938 1789.77 45.1919 Z" fill="#000000" fill-rule="evenodd" fill-opacity="1" /><path clip-path="url(#clip120)" d="M 0 0 M1824.29 12.096 L1832.47 12.096 L1832.47 68.3631 Q1832.47 79.3005 1828.3 84.2426 Q1824.17 89.1847 1814.97 89.1847 L1811.85 89.1847 L1811.85 82.2982 L1814.4 82.2982 Q1819.83 82.2982 1822.06 79.26 Q1824.29 76.2218 1824.29 68.3631 L1824.29 12.096 Z" fill="#000000" fill-rule="evenodd" fill-opacity="1" /><path clip-path="url(#clip120)" d="M 0 0 M1879.1 48.0275 L1879.1 51.6733 L1844.83 51.6733 Q1845.31 59.3701 1849.44 63.421 Q1853.62 67.4314 1861.03 67.4314 Q1865.32 67.4314 1869.33 66.3781 Q1873.39 65.3249 1877.36 63.2184 L1877.36 70.267 Q1873.34 71.9684 1869.13 72.8596 Q1864.92 73.7508 1860.58 73.7508 Q1849.73 73.7508 1843.37 67.4314 Q1837.05 61.1119 1837.05 50.3365 Q1837.05 39.1965 1843.04 32.6746 Q1849.08 26.1121 1859.29 26.1121 Q1868.44 26.1121 1873.75 32.0264 Q1879.1 37.9003 1879.1 48.0275 M1871.64 45.84 Q1871.56 39.7232 1868.2 36.0774 Q1864.88 32.4315 1859.37 32.4315 Q1853.13 32.4315 1849.36 35.9558 Q1845.64 39.4801 1845.07 45.8805 L1871.64 45.84 Z" fill="#000000" fill-rule="evenodd" fill-opacity="1" /><path clip-path="url(#clip120)" d="M 0 0 M1894.29 14.324 L1894.29 27.2059 L1909.64 27.2059 L1909.64 32.9987 L1894.29 32.9987 L1894.29 57.6282 Q1894.29 63.1779 1895.79 64.7578 Q1897.33 66.3376 1901.98 66.3376 L1909.64 66.3376 L1909.64 72.576 L1901.98 72.576 Q1893.36 72.576 1890.08 69.3758 Q1886.79 66.1351 1886.79 57.6282 L1886.79 32.9987 L1881.33 32.9987 L1881.33 27.2059 L1886.79 27.2059 L1886.79 14.324 L1894.29 14.324 Z" fill="#000000" fill-rule="evenodd" fill-opacity="1" /><polyline clip-path="url(#clip122)" style="stroke:#009af9; stroke-width:4; stroke-opacity:1; fill:none" points="
  297.978,160.256 318.334,590.54 338.691,800.448 359.047,924.766 379.404,1006.98 399.76,1065.38 420.117,1109 440.473,1142.83 460.829,1169.83 481.186,1191.87 
  501.542,1210.21 521.899,1225.71 542.255,1238.98 562.612,1250.47 582.968,1260.52 603.324,1269.37 623.681,1277.24 644.037,1284.27 664.394,1290.6 684.75,1296.32 
  705.107,1301.52 725.463,1306.27 745.819,1310.62 766.176,1314.62 786.532,1318.31 806.889,1321.73 827.245,1324.9 847.602,1327.85 867.958,1330.6 888.314,1333.18 
  908.671,1335.6 929.027,1337.86 949.384,1340 969.74,1342.01 990.097,1343.91 1010.45,1345.71 1030.81,1347.41 1051.17,1349.02 1071.52,1350.56 1091.88,1352.02 
  1112.24,1353.41 1132.59,1354.73 1152.95,1356 1173.3,1357.2 1193.66,1358.36 1214.02,1359.46 1234.37,1360.52 1254.73,1361.54 1275.09,1362.52 1295.44,1363.45 
  1315.8,1364.35 1336.16,1365.22 1356.51,1366.06 1376.87,1366.86 1397.23,1367.64 1417.58,1368.39 1437.94,1369.11 1458.29,1369.81 1478.65,1370.48 1499.01,1371.13 
  1519.36,1371.76 1539.72,1372.38 1560.08,1372.97 1580.43,1373.54 1600.79,1374.1 1621.15,1374.64 1641.5,1375.16 1661.86,1375.67 1682.22,1376.17 1702.57,1376.65 
  1722.93,1377.11 1743.28,1377.57 1763.64,1378.01 1784,1378.44 1804.35,1378.86 1824.71,1379.27 1845.07,1379.66 1865.42,1380.05 1885.78,1380.43 1906.14,1380.8 
  1926.49,1381.16 1946.85,1381.51 1967.21,1381.85 1987.56,1382.18 2007.92,1382.51 2028.27,1382.83 2048.63,1383.14 2068.99,1383.45 2089.34,1383.74 2109.7,1384.04 
  2130.06,1384.32 2150.41,1384.6 2170.77,1384.87 2191.13,1385.14 2211.48,1385.4 2231.84,1385.66 2252.2,1385.91 2272.55,1386.15 2292.91,1386.4 
  "/>
<circle clip-path="url(#clip122)" cx="1895.08" cy="1380.6" r="14" fill="#e26f46" fill-rule="evenodd" fill-opacity="1" stroke="#000000" stroke-opacity="1" stroke-width="3.2"/>
<path clip-path="url(#clip120)" d="
M1518.96 348.236 L2282.27 348.236 L2282.27 166.796 L1518.96 166.796  Z
  " fill="#ffffff" fill-rule="evenodd" fill-opacity="1"/>
<polyline clip-path="url(#clip120)" style="stroke:#000000; stroke-width:4; stroke-opacity:1; fill:none" points="
  1518.96,348.236 2282.27,348.236 2282.27,166.796 1518.96,166.796 1518.96,348.236 
  "/>
<polyline clip-path="url(#clip120)" style="stroke:#009af9; stroke-width:4; stroke-opacity:1; fill:none" points="
  1542.45,227.276 1683.43,227.276 
  "/>
<path clip-path="url(#clip120)" d="M 0 0 M1734.79 212.658 L1734.79 217.588 Q1732.43 215.389 1729.75 214.301 Q1727.08 213.213 1724.08 213.213 Q1718.15 213.213 1715 216.848 Q1711.85 220.459 1711.85 227.31 Q1711.85 234.139 1715 237.773 Q1718.15 241.384 1724.08 241.384 Q1727.08 241.384 1729.75 240.296 Q1732.43 239.209 1734.79 237.009 L1734.79 241.894 Q1732.34 243.56 1729.58 244.394 Q1726.85 245.227 1723.8 245.227 Q1715.95 245.227 1711.44 240.435 Q1706.92 235.621 1706.92 227.31 Q1706.92 218.977 1711.44 214.186 Q1715.95 209.371 1723.8 209.371 Q1726.9 209.371 1729.63 210.204 Q1732.39 211.014 1734.79 212.658 Z" fill="#000000" fill-rule="evenodd" fill-opacity="1" /><path clip-path="url(#clip120)" d="M 0 0 M1761.44 230.528 L1761.44 232.611 L1741.85 232.611 Q1742.13 237.009 1744.49 239.324 Q1746.88 241.616 1751.11 241.616 Q1753.57 241.616 1755.86 241.014 Q1758.17 240.412 1760.44 239.209 L1760.44 243.236 Q1758.15 244.208 1755.74 244.718 Q1753.33 245.227 1750.86 245.227 Q1744.65 245.227 1741.02 241.616 Q1737.41 238.005 1737.41 231.847 Q1737.41 225.482 1740.83 221.755 Q1744.28 218.005 1750.12 218.005 Q1755.35 218.005 1758.38 221.385 Q1761.44 224.741 1761.44 230.528 M1757.18 229.278 Q1757.13 225.783 1755.21 223.699 Q1753.31 221.616 1750.16 221.616 Q1746.6 221.616 1744.45 223.63 Q1742.32 225.644 1741.99 229.301 L1757.18 229.278 Z" fill="#000000" fill-rule="evenodd" fill-opacity="1" /><path clip-path="url(#clip120)" d="M 0 0 M1787.46 228.908 L1787.46 244.556 L1783.2 244.556 L1783.2 229.047 Q1783.2 225.366 1781.76 223.537 Q1780.33 221.709 1777.46 221.709 Q1774.01 221.709 1772.02 223.908 Q1770.02 226.107 1770.02 229.903 L1770.02 244.556 L1765.74 244.556 L1765.74 218.63 L1770.02 218.63 L1770.02 222.658 Q1771.55 220.32 1773.61 219.162 Q1775.7 218.005 1778.4 218.005 Q1782.87 218.005 1785.16 220.783 Q1787.46 223.537 1787.46 228.908 Z" fill="#000000" fill-rule="evenodd" fill-opacity="1" /><path clip-path="url(#clip120)" d="M 0 0 M1796.14 211.269 L1796.14 218.63 L1804.91 218.63 L1804.91 221.94 L1796.14 221.94 L1796.14 236.014 Q1796.14 239.185 1796.99 240.088 Q1797.87 240.991 1800.53 240.991 L1804.91 240.991 L1804.91 244.556 L1800.53 244.556 Q1795.6 244.556 1793.73 242.727 Q1791.85 240.875 1791.85 236.014 L1791.85 221.94 L1788.73 221.94 L1788.73 218.63 L1791.85 218.63 L1791.85 211.269 L1796.14 211.269 Z" fill="#000000" fill-rule="evenodd" fill-opacity="1" /><path clip-path="url(#clip120)" d="M 0 0 M1831.55 230.528 L1831.55 232.611 L1811.97 232.611 Q1812.25 237.009 1814.61 239.324 Q1816.99 241.616 1821.23 241.616 Q1823.68 241.616 1825.97 241.014 Q1828.29 240.412 1830.56 239.209 L1830.56 243.236 Q1828.26 244.208 1825.86 244.718 Q1823.45 245.227 1820.97 245.227 Q1814.77 245.227 1811.14 241.616 Q1807.52 238.005 1807.52 231.847 Q1807.52 225.482 1810.95 221.755 Q1814.4 218.005 1820.23 218.005 Q1825.46 218.005 1828.5 221.385 Q1831.55 224.741 1831.55 230.528 M1827.29 229.278 Q1827.25 225.783 1825.33 223.699 Q1823.43 221.616 1820.28 221.616 Q1816.71 221.616 1814.56 223.63 Q1812.43 225.644 1812.11 229.301 L1827.29 229.278 Z" fill="#000000" fill-rule="evenodd" fill-opacity="1" /><path clip-path="url(#clip120)" d="M 0 0 M1851.04 222.611 Q1850.33 222.195 1849.47 222.01 Q1848.64 221.801 1847.62 221.801 Q1844.01 221.801 1842.06 224.162 Q1840.14 226.5 1840.14 230.898 L1840.14 244.556 L1835.86 244.556 L1835.86 218.63 L1840.14 218.63 L1840.14 222.658 Q1841.48 220.297 1843.64 219.162 Q1845.79 218.005 1848.87 218.005 Q1849.31 218.005 1849.84 218.074 Q1850.37 218.121 1851.02 218.236 L1851.04 222.611 Z" fill="#000000" fill-rule="evenodd" fill-opacity="1" /><path clip-path="url(#clip120)" d="M 0 0 M1855.51 208.537 L1859.77 208.537 L1859.77 244.556 L1855.51 244.556 L1855.51 208.537 Z" fill="#000000" fill-rule="evenodd" fill-opacity="1" /><path clip-path="url(#clip120)" d="M 0 0 M1864.24 218.63 L1868.5 218.63 L1868.5 244.556 L1864.24 244.556 L1864.24 218.63 M1864.24 208.537 L1868.5 208.537 L1868.5 213.931 L1864.24 213.931 L1864.24 208.537 Z" fill="#000000" fill-rule="evenodd" fill-opacity="1" /><path clip-path="url(#clip120)" d="M 0 0 M1894.51 228.908 L1894.51 244.556 L1890.26 244.556 L1890.26 229.047 Q1890.26 225.366 1888.82 223.537 Q1887.39 221.709 1884.51 221.709 Q1881.07 221.709 1879.07 223.908 Q1877.08 226.107 1877.08 229.903 L1877.08 244.556 L1872.8 244.556 L1872.8 218.63 L1877.08 218.63 L1877.08 222.658 Q1878.61 220.32 1880.67 219.162 Q1882.76 218.005 1885.46 218.005 Q1889.93 218.005 1892.22 220.783 Q1894.51 223.537 1894.51 228.908 Z" fill="#000000" fill-rule="evenodd" fill-opacity="1" /><path clip-path="url(#clip120)" d="M 0 0 M1921.16 230.528 L1921.16 232.611 L1901.57 232.611 Q1901.85 237.009 1904.21 239.324 Q1906.6 241.616 1910.83 241.616 Q1913.29 241.616 1915.58 241.014 Q1917.89 240.412 1920.16 239.209 L1920.16 243.236 Q1917.87 244.208 1915.46 244.718 Q1913.06 245.227 1910.58 245.227 Q1904.38 245.227 1900.74 241.616 Q1897.13 238.005 1897.13 231.847 Q1897.13 225.482 1900.56 221.755 Q1904.01 218.005 1909.84 218.005 Q1915.07 218.005 1918.1 221.385 Q1921.16 224.741 1921.16 230.528 M1916.9 229.278 Q1916.85 225.783 1914.93 223.699 Q1913.03 221.616 1909.88 221.616 Q1906.32 221.616 1904.17 223.63 Q1902.04 225.644 1901.71 229.301 L1916.9 229.278 Z" fill="#000000" fill-rule="evenodd" fill-opacity="1" /><path clip-path="url(#clip120)" d="M 0 0 M1966.76 212.658 L1966.76 217.588 Q1964.4 215.389 1961.71 214.301 Q1959.05 213.213 1956.04 213.213 Q1950.12 213.213 1946.97 216.848 Q1943.82 220.459 1943.82 227.31 Q1943.82 234.139 1946.97 237.773 Q1950.12 241.384 1956.04 241.384 Q1959.05 241.384 1961.71 240.296 Q1964.4 239.209 1966.76 237.009 L1966.76 241.894 Q1964.31 243.56 1961.55 244.394 Q1958.82 245.227 1955.76 245.227 Q1947.92 245.227 1943.4 240.435 Q1938.89 235.621 1938.89 227.31 Q1938.89 218.977 1943.4 214.186 Q1947.92 209.371 1955.76 209.371 Q1958.87 209.371 1961.6 210.204 Q1964.35 211.014 1966.76 212.658 Z" fill="#000000" fill-rule="evenodd" fill-opacity="1" /><path clip-path="url(#clip120)" d="M 0 0 M1981.27 221.616 Q1977.85 221.616 1975.86 224.301 Q1973.87 226.963 1973.87 231.616 Q1973.87 236.269 1975.83 238.954 Q1977.82 241.616 1981.27 241.616 Q1984.68 241.616 1986.67 238.931 Q1988.66 236.246 1988.66 231.616 Q1988.66 227.01 1986.67 224.324 Q1984.68 221.616 1981.27 221.616 M1981.27 218.005 Q1986.83 218.005 1990 221.616 Q1993.17 225.227 1993.17 231.616 Q1993.17 237.982 1990 241.616 Q1986.83 245.227 1981.27 245.227 Q1975.69 245.227 1972.52 241.616 Q1969.38 237.982 1969.38 231.616 Q1969.38 225.227 1972.52 221.616 Q1975.69 218.005 1981.27 218.005 Z" fill="#000000" fill-rule="evenodd" fill-opacity="1" /><path clip-path="url(#clip120)" d="M 0 0 M2019.19 228.908 L2019.19 244.556 L2014.93 244.556 L2014.93 229.047 Q2014.93 225.366 2013.5 223.537 Q2012.06 221.709 2009.19 221.709 Q2005.74 221.709 2003.75 223.908 Q2001.76 226.107 2001.76 229.903 L2001.76 244.556 L1997.48 244.556 L1997.48 218.63 L2001.76 218.63 L2001.76 222.658 Q2003.29 220.32 2005.35 219.162 Q2007.43 218.005 2010.14 218.005 Q2014.61 218.005 2016.9 220.783 Q2019.19 223.537 2019.19 228.908 Z" fill="#000000" fill-rule="evenodd" fill-opacity="1" /><path clip-path="url(#clip120)" d="M 0 0 M2042.31 219.625 L2042.31 223.607 Q2040.51 222.611 2038.68 222.125 Q2036.87 221.616 2035.02 221.616 Q2030.88 221.616 2028.59 224.255 Q2026.3 226.871 2026.3 231.616 Q2026.3 236.361 2028.59 239 Q2030.88 241.616 2035.02 241.616 Q2036.87 241.616 2038.68 241.13 Q2040.51 240.621 2042.31 239.625 L2042.31 243.56 Q2040.53 244.394 2038.61 244.81 Q2036.71 245.227 2034.56 245.227 Q2028.7 245.227 2025.25 241.546 Q2021.81 237.866 2021.81 231.616 Q2021.81 225.273 2025.28 221.639 Q2028.77 218.005 2034.84 218.005 Q2036.81 218.005 2038.68 218.422 Q2040.56 218.815 2042.31 219.625 Z" fill="#000000" fill-rule="evenodd" fill-opacity="1" /><path clip-path="url(#clip120)" d="M 0 0 M2068.96 230.528 L2068.96 232.611 L2049.37 232.611 Q2049.65 237.009 2052.01 239.324 Q2054.4 241.616 2058.63 241.616 Q2061.09 241.616 2063.38 241.014 Q2065.69 240.412 2067.96 239.209 L2067.96 243.236 Q2065.67 244.208 2063.26 244.718 Q2060.86 245.227 2058.38 245.227 Q2052.18 245.227 2048.54 241.616 Q2044.93 238.005 2044.93 231.847 Q2044.93 225.482 2048.36 221.755 Q2051.81 218.005 2057.64 218.005 Q2062.87 218.005 2065.9 221.385 Q2068.96 224.741 2068.96 230.528 M2064.7 229.278 Q2064.65 225.783 2062.73 223.699 Q2060.83 221.616 2057.69 221.616 Q2054.12 221.616 2051.97 223.63 Q2049.84 225.644 2049.51 229.301 L2064.7 229.278 Z" fill="#000000" fill-rule="evenodd" fill-opacity="1" /><path clip-path="url(#clip120)" d="M 0 0 M2094.98 228.908 L2094.98 244.556 L2090.72 244.556 L2090.72 229.047 Q2090.72 225.366 2089.28 223.537 Q2087.85 221.709 2084.98 221.709 Q2081.53 221.709 2079.54 223.908 Q2077.55 226.107 2077.55 229.903 L2077.55 244.556 L2073.26 244.556 L2073.26 218.63 L2077.55 218.63 L2077.55 222.658 Q2079.07 220.32 2081.13 219.162 Q2083.22 218.005 2085.93 218.005 Q2090.39 218.005 2092.68 220.783 Q2094.98 223.537 2094.98 228.908 Z" fill="#000000" fill-rule="evenodd" fill-opacity="1" /><path clip-path="url(#clip120)" d="M 0 0 M2103.66 211.269 L2103.66 218.63 L2112.43 218.63 L2112.43 221.94 L2103.66 221.94 L2103.66 236.014 Q2103.66 239.185 2104.51 240.088 Q2105.39 240.991 2108.06 240.991 L2112.43 240.991 L2112.43 244.556 L2108.06 244.556 Q2103.12 244.556 2101.25 242.727 Q2099.37 240.875 2099.37 236.014 L2099.37 221.94 L2096.25 221.94 L2096.25 218.63 L2099.37 218.63 L2099.37 211.269 L2103.66 211.269 Z" fill="#000000" fill-rule="evenodd" fill-opacity="1" /><path clip-path="url(#clip120)" d="M 0 0 M2131.92 222.611 Q2131.2 222.195 2130.35 222.01 Q2129.51 221.801 2128.49 221.801 Q2124.88 221.801 2122.94 224.162 Q2121.02 226.5 2121.02 230.898 L2121.02 244.556 L2116.74 244.556 L2116.74 218.63 L2121.02 218.63 L2121.02 222.658 Q2122.36 220.297 2124.51 219.162 Q2126.67 218.005 2129.74 218.005 Q2130.18 218.005 2130.72 218.074 Q2131.25 218.121 2131.9 218.236 L2131.92 222.611 Z" fill="#000000" fill-rule="evenodd" fill-opacity="1" /><path clip-path="url(#clip120)" d="M 0 0 M2148.17 231.523 Q2143.01 231.523 2141.02 232.704 Q2139.03 233.884 2139.03 236.732 Q2139.03 239 2140.51 240.343 Q2142.01 241.662 2144.58 241.662 Q2148.12 241.662 2150.25 239.162 Q2152.41 236.639 2152.41 232.472 L2152.41 231.523 L2148.17 231.523 M2156.67 229.764 L2156.67 244.556 L2152.41 244.556 L2152.41 240.621 Q2150.95 242.982 2148.77 244.116 Q2146.6 245.227 2143.45 245.227 Q2139.47 245.227 2137.11 243.005 Q2134.77 240.759 2134.77 237.009 Q2134.77 232.634 2137.68 230.412 Q2140.62 228.19 2146.43 228.19 L2152.41 228.19 L2152.41 227.773 Q2152.41 224.834 2150.46 223.236 Q2148.54 221.616 2145.05 221.616 Q2142.82 221.616 2140.72 222.148 Q2138.61 222.681 2136.67 223.746 L2136.67 219.81 Q2139 218.908 2141.2 218.468 Q2143.4 218.005 2145.49 218.005 Q2151.11 218.005 2153.89 220.922 Q2156.67 223.838 2156.67 229.764 Z" fill="#000000" fill-rule="evenodd" fill-opacity="1" /><path clip-path="url(#clip120)" d="M 0 0 M2165.35 211.269 L2165.35 218.63 L2174.12 218.63 L2174.12 221.94 L2165.35 221.94 L2165.35 236.014 Q2165.35 239.185 2166.2 240.088 Q2167.08 240.991 2169.74 240.991 L2174.12 240.991 L2174.12 244.556 L2169.74 244.556 Q2164.81 244.556 2162.94 242.727 Q2161.06 240.875 2161.06 236.014 L2161.06 221.94 L2157.94 221.94 L2157.94 218.63 L2161.06 218.63 L2161.06 211.269 L2165.35 211.269 Z" fill="#000000" fill-rule="evenodd" fill-opacity="1" /><path clip-path="url(#clip120)" d="M 0 0 M2178.59 218.63 L2182.85 218.63 L2182.85 244.556 L2178.59 244.556 L2178.59 218.63 M2178.59 208.537 L2182.85 208.537 L2182.85 213.931 L2178.59 213.931 L2178.59 208.537 Z" fill="#000000" fill-rule="evenodd" fill-opacity="1" /><path clip-path="url(#clip120)" d="M 0 0 M2197.36 221.616 Q2193.93 221.616 2191.94 224.301 Q2189.95 226.963 2189.95 231.616 Q2189.95 236.269 2191.92 238.954 Q2193.91 241.616 2197.36 241.616 Q2200.76 241.616 2202.75 238.931 Q2204.74 236.246 2204.74 231.616 Q2204.74 227.01 2202.75 224.324 Q2200.76 221.616 2197.36 221.616 M2197.36 218.005 Q2202.92 218.005 2206.09 221.616 Q2209.26 225.227 2209.26 231.616 Q2209.26 237.982 2206.09 241.616 Q2202.92 245.227 2197.36 245.227 Q2191.78 245.227 2188.61 241.616 Q2185.46 237.982 2185.46 231.616 Q2185.46 225.227 2188.61 221.616 Q2191.78 218.005 2197.36 218.005 Z" fill="#000000" fill-rule="evenodd" fill-opacity="1" /><path clip-path="url(#clip120)" d="M 0 0 M2235.28 228.908 L2235.28 244.556 L2231.02 244.556 L2231.02 229.047 Q2231.02 225.366 2229.58 223.537 Q2228.15 221.709 2225.28 221.709 Q2221.83 221.709 2219.84 223.908 Q2217.85 226.107 2217.85 229.903 L2217.85 244.556 L2213.56 244.556 L2213.56 218.63 L2217.85 218.63 L2217.85 222.658 Q2219.37 220.32 2221.43 219.162 Q2223.52 218.005 2226.23 218.005 Q2230.69 218.005 2232.99 220.783 Q2235.28 223.537 2235.28 228.908 Z" fill="#000000" fill-rule="evenodd" fill-opacity="1" /><circle clip-path="url(#clip120)" cx="1612.94" cy="287.756" r="23" fill="#e26f46" fill-rule="evenodd" fill-opacity="1" stroke="#000000" stroke-opacity="1" stroke-width="5.12"/>
<path clip-path="url(#clip120)" d="M 0 0 M1706.92 270.476 L1711.6 270.476 L1711.6 301.101 L1728.43 301.101 L1728.43 305.036 L1706.92 305.036 L1706.92 270.476 Z" fill="#000000" fill-rule="evenodd" fill-opacity="1" /><path clip-path="url(#clip120)" d="M 0 0 M1742.11 282.096 Q1738.68 282.096 1736.69 284.781 Q1734.7 287.443 1734.7 292.096 Q1734.7 296.749 1736.67 299.434 Q1738.66 302.096 1742.11 302.096 Q1745.51 302.096 1747.5 299.411 Q1749.49 296.726 1749.49 292.096 Q1749.49 287.49 1747.5 284.804 Q1745.51 282.096 1742.11 282.096 M1742.11 278.485 Q1747.66 278.485 1750.83 282.096 Q1754.01 285.707 1754.01 292.096 Q1754.01 298.462 1750.83 302.096 Q1747.66 305.707 1742.11 305.707 Q1736.53 305.707 1733.36 302.096 Q1730.21 298.462 1730.21 292.096 Q1730.21 285.707 1733.36 282.096 Q1736.53 278.485 1742.11 278.485 Z" fill="#000000" fill-rule="evenodd" fill-opacity="1" /><path clip-path="url(#clip120)" d="M 0 0 M1756 279.11 L1760.26 279.11 L1765.58 299.341 L1770.88 279.11 L1775.9 279.11 L1781.23 299.341 L1786.53 279.11 L1790.79 279.11 L1784.01 305.036 L1778.98 305.036 L1773.4 283.786 L1767.8 305.036 L1762.78 305.036 L1756 279.11 Z" fill="#000000" fill-rule="evenodd" fill-opacity="1" /><path clip-path="url(#clip120)" d="M 0 0 M1817.43 291.008 L1817.43 293.091 L1797.85 293.091 Q1798.13 297.489 1800.49 299.804 Q1802.87 302.096 1807.11 302.096 Q1809.56 302.096 1811.85 301.494 Q1814.17 300.892 1816.44 299.689 L1816.44 303.716 Q1814.14 304.688 1811.74 305.198 Q1809.33 305.707 1806.85 305.707 Q1800.65 305.707 1797.02 302.096 Q1793.4 298.485 1793.4 292.327 Q1793.4 285.962 1796.83 282.235 Q1800.28 278.485 1806.11 278.485 Q1811.34 278.485 1814.38 281.865 Q1817.43 285.221 1817.43 291.008 M1813.17 289.758 Q1813.13 286.263 1811.2 284.179 Q1809.31 282.096 1806.16 282.096 Q1802.59 282.096 1800.44 284.11 Q1798.31 286.124 1797.99 289.781 L1813.17 289.758 Z" fill="#000000" fill-rule="evenodd" fill-opacity="1" /><path clip-path="url(#clip120)" d="M 0 0 M1836.92 283.091 Q1836.2 282.675 1835.35 282.49 Q1834.51 282.281 1833.5 282.281 Q1829.89 282.281 1827.94 284.642 Q1826.02 286.98 1826.02 291.378 L1826.02 305.036 L1821.74 305.036 L1821.74 279.11 L1826.02 279.11 L1826.02 283.138 Q1827.36 280.777 1829.51 279.642 Q1831.67 278.485 1834.75 278.485 Q1835.19 278.485 1835.72 278.554 Q1836.25 278.601 1836.9 278.716 L1836.92 283.091 Z" fill="#000000" fill-rule="evenodd" fill-opacity="1" /><path clip-path="url(#clip120)" d="M 0 0 M1856.64 270.476 L1878.5 270.476 L1878.5 274.411 L1861.32 274.411 L1861.32 284.642 L1877.78 284.642 L1877.78 288.577 L1861.32 288.577 L1861.32 301.101 L1878.91 301.101 L1878.91 305.036 L1856.64 305.036 L1856.64 270.476 Z" fill="#000000" fill-rule="evenodd" fill-opacity="1" /><path clip-path="url(#clip120)" d="M 0 0 M1904.93 279.11 L1895.56 291.726 L1905.42 305.036 L1900.39 305.036 L1892.85 294.851 L1885.3 305.036 L1880.28 305.036 L1890.35 291.471 L1881.14 279.11 L1886.16 279.11 L1893.03 288.346 L1899.91 279.11 L1904.93 279.11 Z" fill="#000000" fill-rule="evenodd" fill-opacity="1" /><path clip-path="url(#clip120)" d="M 0 0 M1914.01 301.147 L1914.01 314.897 L1909.72 314.897 L1909.72 279.11 L1914.01 279.11 L1914.01 283.045 Q1915.35 280.73 1917.38 279.619 Q1919.45 278.485 1922.29 278.485 Q1927.01 278.485 1929.95 282.235 Q1932.92 285.985 1932.92 292.096 Q1932.92 298.207 1929.95 301.957 Q1927.01 305.707 1922.29 305.707 Q1919.45 305.707 1917.38 304.596 Q1915.35 303.462 1914.01 301.147 M1928.5 292.096 Q1928.5 287.397 1926.55 284.735 Q1924.63 282.05 1921.25 282.05 Q1917.87 282.05 1915.93 284.735 Q1914.01 287.397 1914.01 292.096 Q1914.01 296.795 1915.93 299.48 Q1917.87 302.142 1921.25 302.142 Q1924.63 302.142 1926.55 299.48 Q1928.5 296.795 1928.5 292.096 Z" fill="#000000" fill-rule="evenodd" fill-opacity="1" /><path clip-path="url(#clip120)" d="M 0 0 M1937.38 269.017 L1941.64 269.017 L1941.64 305.036 L1937.38 305.036 L1937.38 269.017 Z" fill="#000000" fill-rule="evenodd" fill-opacity="1" /><path clip-path="url(#clip120)" d="M 0 0 M1956.16 282.096 Q1952.73 282.096 1950.74 284.781 Q1948.75 287.443 1948.75 292.096 Q1948.75 296.749 1950.72 299.434 Q1952.71 302.096 1956.16 302.096 Q1959.56 302.096 1961.55 299.411 Q1963.54 296.726 1963.54 292.096 Q1963.54 287.49 1961.55 284.804 Q1959.56 282.096 1956.16 282.096 M1956.16 278.485 Q1961.71 278.485 1964.88 282.096 Q1968.06 285.707 1968.06 292.096 Q1968.06 298.462 1964.88 302.096 Q1961.71 305.707 1956.16 305.707 Q1950.58 305.707 1947.41 302.096 Q1944.26 298.462 1944.26 292.096 Q1944.26 285.707 1947.41 282.096 Q1950.58 278.485 1956.16 278.485 Z" fill="#000000" fill-rule="evenodd" fill-opacity="1" /><path clip-path="url(#clip120)" d="M 0 0 M1989.05 279.874 L1989.05 283.902 Q1987.25 282.976 1985.3 282.513 Q1983.36 282.05 1981.27 282.05 Q1978.1 282.05 1976.5 283.022 Q1974.93 283.994 1974.93 285.939 Q1974.93 287.42 1976.07 288.277 Q1977.2 289.11 1980.63 289.874 L1982.08 290.198 Q1986.62 291.17 1988.52 292.952 Q1990.44 294.712 1990.44 297.883 Q1990.44 301.494 1987.57 303.601 Q1984.72 305.707 1979.72 305.707 Q1977.64 305.707 1975.37 305.29 Q1973.13 304.897 1970.63 304.087 L1970.63 299.689 Q1972.99 300.915 1975.28 301.54 Q1977.57 302.142 1979.82 302.142 Q1982.82 302.142 1984.44 301.124 Q1986.07 300.082 1986.07 298.207 Q1986.07 296.471 1984.88 295.545 Q1983.73 294.619 1979.77 293.763 L1978.29 293.415 Q1974.33 292.582 1972.57 290.869 Q1970.81 289.133 1970.81 286.124 Q1970.81 282.466 1973.4 280.476 Q1976 278.485 1980.76 278.485 Q1983.13 278.485 1985.21 278.832 Q1987.29 279.179 1989.05 279.874 Z" fill="#000000" fill-rule="evenodd" fill-opacity="1" /><path clip-path="url(#clip120)" d="M 0 0 M1994.91 279.11 L1999.17 279.11 L1999.17 305.036 L1994.91 305.036 L1994.91 279.11 M1994.91 269.017 L1999.17 269.017 L1999.17 274.411 L1994.91 274.411 L1994.91 269.017 Z" fill="#000000" fill-rule="evenodd" fill-opacity="1" /><path clip-path="url(#clip120)" d="M 0 0 M2000.58 279.11 L2005.09 279.11 L2013.19 300.869 L2021.3 279.11 L2025.81 279.11 L2016.09 305.036 L2010.3 305.036 L2000.58 279.11 Z" fill="#000000" fill-rule="evenodd" fill-opacity="1" /><path clip-path="url(#clip120)" d="M 0 0 M2052.45 291.008 L2052.45 293.091 L2032.87 293.091 Q2033.15 297.489 2035.51 299.804 Q2037.89 302.096 2042.13 302.096 Q2044.58 302.096 2046.87 301.494 Q2049.19 300.892 2051.46 299.689 L2051.46 303.716 Q2049.17 304.688 2046.76 305.198 Q2044.35 305.707 2041.87 305.707 Q2035.67 305.707 2032.04 302.096 Q2028.43 298.485 2028.43 292.327 Q2028.43 285.962 2031.85 282.235 Q2035.3 278.485 2041.13 278.485 Q2046.37 278.485 2049.4 281.865 Q2052.45 285.221 2052.45 291.008 M2048.19 289.758 Q2048.15 286.263 2046.23 284.179 Q2044.33 282.096 2041.18 282.096 Q2037.62 282.096 2035.46 284.11 Q2033.33 286.124 2033.01 289.781 L2048.19 289.758 Z" fill="#000000" fill-rule="evenodd" fill-opacity="1" /><path clip-path="url(#clip120)" d="M 0 0 M2072.18 270.476 L2076.85 270.476 L2076.85 301.101 L2093.68 301.101 L2093.68 305.036 L2072.18 305.036 L2072.18 270.476 Z" fill="#000000" fill-rule="evenodd" fill-opacity="1" /><path clip-path="url(#clip120)" d="M 0 0 M2098.15 279.11 L2102.41 279.11 L2102.41 305.036 L2098.15 305.036 L2098.15 279.11 M2098.15 269.017 L2102.41 269.017 L2102.41 274.411 L2098.15 274.411 L2098.15 269.017 Z" fill="#000000" fill-rule="evenodd" fill-opacity="1" /><path clip-path="url(#clip120)" d="M 0 0 M2127.06 284.087 Q2128.66 281.216 2130.88 279.851 Q2133.1 278.485 2136.11 278.485 Q2140.16 278.485 2142.36 281.332 Q2144.56 284.156 2144.56 289.388 L2144.56 305.036 L2140.28 305.036 L2140.28 289.527 Q2140.28 285.8 2138.96 283.994 Q2137.64 282.189 2134.93 282.189 Q2131.62 282.189 2129.7 284.388 Q2127.78 286.587 2127.78 290.383 L2127.78 305.036 L2123.49 305.036 L2123.49 289.527 Q2123.49 285.777 2122.18 283.994 Q2120.86 282.189 2118.1 282.189 Q2114.84 282.189 2112.92 284.411 Q2110.99 286.61 2110.99 290.383 L2110.99 305.036 L2106.71 305.036 L2106.71 279.11 L2110.99 279.11 L2110.99 283.138 Q2112.45 280.753 2114.49 279.619 Q2116.53 278.485 2119.33 278.485 Q2122.15 278.485 2124.12 279.92 Q2126.11 281.355 2127.06 284.087 Z" fill="#000000" fill-rule="evenodd" fill-opacity="1" /><path clip-path="url(#clip120)" d="M 0 0 M2149.03 279.11 L2153.29 279.11 L2153.29 305.036 L2149.03 305.036 L2149.03 279.11 M2149.03 269.017 L2153.29 269.017 L2153.29 274.411 L2149.03 274.411 L2149.03 269.017 Z" fill="#000000" fill-rule="evenodd" fill-opacity="1" /><path clip-path="url(#clip120)" d="M 0 0 M2161.97 271.749 L2161.97 279.11 L2170.74 279.11 L2170.74 282.42 L2161.97 282.42 L2161.97 296.494 Q2161.97 299.665 2162.82 300.568 Q2163.7 301.471 2166.37 301.471 L2170.74 301.471 L2170.74 305.036 L2166.37 305.036 Q2161.43 305.036 2159.56 303.207 Q2157.68 301.355 2157.68 296.494 L2157.68 282.42 L2154.56 282.42 L2154.56 279.11 L2157.68 279.11 L2157.68 271.749 L2161.97 271.749 Z" fill="#000000" fill-rule="evenodd" fill-opacity="1" /></svg>
