<?xml version="1.0" encoding="utf-8"?>
<svg xmlns="http://www.w3.org/2000/svg" xmlns:xlink="http://www.w3.org/1999/xlink" width="600" height="350" viewBox="0 0 2400 1400">
<defs>
  <clipPath id="clip670">
    <rect x="0" y="0" width="2400" height="1400"/>
  </clipPath>
</defs>
<path clip-path="url(#clip670)" d="
M0 1400 L2400 1400 L2400 0 L0 0  Z
  " fill="#a9a9a9" fill-rule="evenodd" fill-opacity="1"/>
<defs>
  <clipPath id="clip671">
    <rect x="480" y="0" width="1681" height="1400"/>
  </clipPath>
</defs>
<path clip-path="url(#clip670)" d="
M160.649 1243 L2352.76 1243 L2352.76 115.912 L160.649 115.912  Z
  " fill="#a9a9a9" fill-rule="evenodd" fill-opacity="1"/>
<defs>
  <clipPath id="clip672">
    <rect x="160" y="115" width="2193" height="1128"/>
  </clipPath>
</defs>
<polyline clip-path="url(#clip672)" style="stroke:#ffffff; stroke-linecap:butt; stroke-linejoin:round; stroke-width:2; stroke-opacity:0.1; fill:none" points="
  222.69,1243 222.69,115.912 
  "/>
<polyline clip-path="url(#clip672)" style="stroke:#ffffff; stroke-linecap:butt; stroke-linejoin:round; stroke-width:2; stroke-opacity:0.1; fill:none" points="
  532.971,1243 532.971,115.912 
  "/>
<polyline clip-path="url(#clip672)" style="stroke:#ffffff; stroke-linecap:butt; stroke-linejoin:round; stroke-width:2; stroke-opacity:0.1; fill:none" points="
  843.252,1243 843.252,115.912 
  "/>
<polyline clip-path="url(#clip672)" style="stroke:#ffffff; stroke-linecap:butt; stroke-linejoin:round; stroke-width:2; stroke-opacity:0.1; fill:none" points="
  1153.53,1243 1153.53,115.912 
  "/>
<polyline clip-path="url(#clip672)" style="stroke:#ffffff; stroke-linecap:butt; stroke-linejoin:round; stroke-width:2; stroke-opacity:0.1; fill:none" points="
  1463.82,1243 1463.82,115.912 
  "/>
<polyline clip-path="url(#clip672)" style="stroke:#ffffff; stroke-linecap:butt; stroke-linejoin:round; stroke-width:2; stroke-opacity:0.1; fill:none" points="
  1774.1,1243 1774.1,115.912 
  "/>
<polyline clip-path="url(#clip672)" style="stroke:#ffffff; stroke-linecap:butt; stroke-linejoin:round; stroke-width:2; stroke-opacity:0.1; fill:none" points="
  2084.38,1243 2084.38,115.912 
  "/>
<polyline clip-path="url(#clip670)" style="stroke:#ffffff; stroke-linecap:butt; stroke-linejoin:round; stroke-width:4; stroke-opacity:1; fill:none" points="
  160.649,1243 2352.76,1243 
  "/>
<polyline clip-path="url(#clip670)" style="stroke:#ffffff; stroke-linecap:butt; stroke-linejoin:round; stroke-width:4; stroke-opacity:1; fill:none" points="
  222.69,1243 222.69,1229.47 
  "/>
<polyline clip-path="url(#clip670)" style="stroke:#ffffff; stroke-linecap:butt; stroke-linejoin:round; stroke-width:4; stroke-opacity:1; fill:none" points="
  532.971,1243 532.971,1229.47 
  "/>
<polyline clip-path="url(#clip670)" style="stroke:#ffffff; stroke-linecap:butt; stroke-linejoin:round; stroke-width:4; stroke-opacity:1; fill:none" points="
  843.252,1243 843.252,1229.47 
  "/>
<polyline clip-path="url(#clip670)" style="stroke:#ffffff; stroke-linecap:butt; stroke-linejoin:round; stroke-width:4; stroke-opacity:1; fill:none" points="
  1153.53,1243 1153.53,1229.47 
  "/>
<polyline clip-path="url(#clip670)" style="stroke:#ffffff; stroke-linecap:butt; stroke-linejoin:round; stroke-width:4; stroke-opacity:1; fill:none" points="
  1463.82,1243 1463.82,1229.47 
  "/>
<polyline clip-path="url(#clip670)" style="stroke:#ffffff; stroke-linecap:butt; stroke-linejoin:round; stroke-width:4; stroke-opacity:1; fill:none" points="
  1774.1,1243 1774.1,1229.47 
  "/>
<polyline clip-path="url(#clip670)" style="stroke:#ffffff; stroke-linecap:butt; stroke-linejoin:round; stroke-width:4; stroke-opacity:1; fill:none" points="
  2084.38,1243 2084.38,1229.47 
  "/>
<path clip-path="url(#clip670)" d="M222.69 1272.19 Q219.079 1272.19 217.25 1275.76 Q215.444 1279.3 215.444 1286.43 Q215.444 1293.53 217.25 1297.1 Q219.079 1300.64 222.69 1300.64 Q226.324 1300.64 228.129 1297.1 Q229.958 1293.53 229.958 1286.43 Q229.958 1279.3 228.129 1275.76 Q226.324 1272.19 222.69 1272.19 M222.69 1268.49 Q228.5 1268.49 231.555 1273.09 Q234.634 1277.68 234.634 1286.43 Q234.634 1295.15 231.555 1299.76 Q228.5 1304.34 222.69 1304.34 Q216.88 1304.34 213.801 1299.76 Q210.745 1295.15 210.745 1286.43 Q210.745 1277.68 213.801 1273.09 Q216.88 1268.49 222.69 1268.49 Z" fill="#ffffff" fill-rule="evenodd" fill-opacity="1" /><path clip-path="url(#clip670)" d="M511.744 1299.74 L528.064 1299.74 L528.064 1303.67 L506.119 1303.67 L506.119 1299.74 Q508.781 1296.98 513.365 1292.35 Q517.971 1287.7 519.152 1286.36 Q521.397 1283.83 522.277 1282.1 Q523.179 1280.34 523.179 1278.65 Q523.179 1275.89 521.235 1274.16 Q519.314 1272.42 516.212 1272.42 Q514.013 1272.42 511.559 1273.19 Q509.129 1273.95 506.351 1275.5 L506.351 1270.78 Q509.175 1269.64 511.629 1269.07 Q514.082 1268.49 516.119 1268.49 Q521.49 1268.49 524.684 1271.17 Q527.879 1273.86 527.879 1278.35 Q527.879 1280.48 527.068 1282.4 Q526.281 1284.3 524.175 1286.89 Q523.596 1287.56 520.494 1290.78 Q517.392 1293.97 511.744 1299.74 Z" fill="#ffffff" fill-rule="evenodd" fill-opacity="1" /><path clip-path="url(#clip670)" d="M547.878 1272.19 Q544.267 1272.19 542.439 1275.76 Q540.633 1279.3 540.633 1286.43 Q540.633 1293.53 542.439 1297.1 Q544.267 1300.64 547.878 1300.64 Q551.513 1300.64 553.318 1297.1 Q555.147 1293.53 555.147 1286.43 Q555.147 1279.3 553.318 1275.76 Q551.513 1272.19 547.878 1272.19 M547.878 1268.49 Q553.689 1268.49 556.744 1273.09 Q559.823 1277.68 559.823 1286.43 Q559.823 1295.15 556.744 1299.76 Q553.689 1304.34 547.878 1304.34 Q542.068 1304.34 538.99 1299.76 Q535.934 1295.15 535.934 1286.43 Q535.934 1277.68 538.99 1273.09 Q542.068 1268.49 547.878 1268.49 Z" fill="#ffffff" fill-rule="evenodd" fill-opacity="1" /><path clip-path="url(#clip670)" d="M831.424 1273.19 L819.618 1291.63 L831.424 1291.63 L831.424 1273.19 M830.197 1269.11 L836.077 1269.11 L836.077 1291.63 L841.007 1291.63 L841.007 1295.52 L836.077 1295.52 L836.077 1303.67 L831.424 1303.67 L831.424 1295.52 L815.822 1295.52 L815.822 1291.01 L830.197 1269.11 Z" fill="#ffffff" fill-rule="evenodd" fill-opacity="1" /><path clip-path="url(#clip670)" d="M858.738 1272.19 Q855.127 1272.19 853.299 1275.76 Q851.493 1279.3 851.493 1286.43 Q851.493 1293.53 853.299 1297.1 Q855.127 1300.64 858.738 1300.64 Q862.373 1300.64 864.178 1297.1 Q866.007 1293.53 866.007 1286.43 Q866.007 1279.3 864.178 1275.76 Q862.373 1272.19 858.738 1272.19 M858.738 1268.49 Q864.549 1268.49 867.604 1273.09 Q870.683 1277.68 870.683 1286.43 Q870.683 1295.15 867.604 1299.76 Q864.549 1304.34 858.738 1304.34 Q852.928 1304.34 849.85 1299.76 Q846.794 1295.15 846.794 1286.43 Q846.794 1277.68 849.85 1273.09 Q852.928 1268.49 858.738 1268.49 Z" fill="#ffffff" fill-rule="evenodd" fill-opacity="1" /><path clip-path="url(#clip670)" d="M1138.94 1284.53 Q1135.79 1284.53 1133.94 1286.68 Q1132.11 1288.83 1132.11 1292.58 Q1132.11 1296.31 1133.94 1298.49 Q1135.79 1300.64 1138.94 1300.64 Q1142.09 1300.64 1143.92 1298.49 Q1145.77 1296.31 1145.77 1292.58 Q1145.77 1288.83 1143.92 1286.68 Q1142.09 1284.53 1138.94 1284.53 M1148.22 1269.88 L1148.22 1274.13 Q1146.46 1273.3 1144.66 1272.86 Q1142.87 1272.42 1141.11 1272.42 Q1136.49 1272.42 1134.03 1275.55 Q1131.6 1278.67 1131.25 1284.99 Q1132.62 1282.98 1134.68 1281.91 Q1136.74 1280.82 1139.22 1280.82 Q1144.43 1280.82 1147.43 1284 Q1150.47 1287.14 1150.47 1292.58 Q1150.47 1297.91 1147.32 1301.13 Q1144.17 1304.34 1138.94 1304.34 Q1132.94 1304.34 1129.77 1299.76 Q1126.6 1295.15 1126.6 1286.43 Q1126.6 1278.23 1130.49 1273.37 Q1134.38 1268.49 1140.93 1268.49 Q1142.69 1268.49 1144.47 1268.83 Q1146.28 1269.18 1148.22 1269.88 Z" fill="#ffffff" fill-rule="evenodd" fill-opacity="1" /><path clip-path="url(#clip670)" d="M1168.52 1272.19 Q1164.91 1272.19 1163.08 1275.76 Q1161.28 1279.3 1161.28 1286.43 Q1161.28 1293.53 1163.08 1297.1 Q1164.91 1300.64 1168.52 1300.64 Q1172.16 1300.64 1173.96 1297.1 Q1175.79 1293.53 1175.79 1286.43 Q1175.79 1279.3 1173.96 1275.76 Q1172.16 1272.19 1168.52 1272.19 M1168.52 1268.49 Q1174.33 1268.49 1177.39 1273.09 Q1180.47 1277.68 1180.47 1286.43 Q1180.47 1295.15 1177.39 1299.76 Q1174.33 1304.34 1168.52 1304.34 Q1162.71 1304.34 1159.63 1299.76 Q1156.58 1295.15 1156.58 1286.43 Q1156.58 1277.68 1159.63 1273.09 Q1162.71 1268.49 1168.52 1268.49 Z" fill="#ffffff" fill-rule="evenodd" fill-opacity="1" /><path clip-path="url(#clip670)" d="M1448.69 1287.26 Q1445.35 1287.26 1443.43 1289.04 Q1441.54 1290.82 1441.54 1293.95 Q1441.54 1297.07 1443.43 1298.86 Q1445.35 1300.64 1448.69 1300.64 Q1452.02 1300.64 1453.94 1298.86 Q1455.86 1297.05 1455.86 1293.95 Q1455.86 1290.82 1453.94 1289.04 Q1452.04 1287.26 1448.69 1287.26 M1444.01 1285.27 Q1441 1284.53 1439.31 1282.47 Q1437.65 1280.41 1437.65 1277.45 Q1437.65 1273.3 1440.59 1270.89 Q1443.55 1268.49 1448.69 1268.49 Q1453.85 1268.49 1456.79 1270.89 Q1459.73 1273.3 1459.73 1277.45 Q1459.73 1280.41 1458.04 1282.47 Q1456.37 1284.53 1453.39 1285.27 Q1456.77 1286.06 1458.64 1288.35 Q1460.54 1290.64 1460.54 1293.95 Q1460.54 1298.97 1457.46 1301.66 Q1454.41 1304.34 1448.69 1304.34 Q1442.97 1304.34 1439.89 1301.66 Q1436.84 1298.97 1436.84 1293.95 Q1436.84 1290.64 1438.73 1288.35 Q1440.63 1286.06 1444.01 1285.27 M1442.3 1277.88 Q1442.3 1280.57 1443.97 1282.07 Q1445.66 1283.58 1448.69 1283.58 Q1451.7 1283.58 1453.39 1282.07 Q1455.1 1280.57 1455.1 1277.88 Q1455.1 1275.2 1453.39 1273.7 Q1451.7 1272.19 1448.69 1272.19 Q1445.66 1272.19 1443.97 1273.7 Q1442.3 1275.2 1442.3 1277.88 Z" fill="#ffffff" fill-rule="evenodd" fill-opacity="1" /><path clip-path="url(#clip670)" d="M1478.85 1272.19 Q1475.24 1272.19 1473.41 1275.76 Q1471.6 1279.3 1471.6 1286.43 Q1471.6 1293.53 1473.41 1297.1 Q1475.24 1300.64 1478.85 1300.64 Q1482.48 1300.64 1484.29 1297.1 Q1486.12 1293.53 1486.12 1286.43 Q1486.12 1279.3 1484.29 1275.76 Q1482.48 1272.19 1478.85 1272.19 M1478.85 1268.49 Q1484.66 1268.49 1487.72 1273.09 Q1490.79 1277.68 1490.79 1286.43 Q1490.79 1295.15 1487.72 1299.76 Q1484.66 1304.34 1478.85 1304.34 Q1473.04 1304.34 1469.96 1299.76 Q1466.91 1295.15 1466.91 1286.43 Q1466.91 1277.68 1469.96 1273.09 Q1473.04 1268.49 1478.85 1268.49 Z" fill="#ffffff" fill-rule="evenodd" fill-opacity="1" /><path clip-path="url(#clip670)" d="M1733.7 1299.74 L1741.34 1299.74 L1741.34 1273.37 L1733.03 1275.04 L1733.03 1270.78 L1741.3 1269.11 L1745.97 1269.11 L1745.97 1299.74 L1753.61 1299.74 L1753.61 1303.67 L1733.7 1303.67 L1733.7 1299.74 Z" fill="#ffffff" fill-rule="evenodd" fill-opacity="1" /><path clip-path="url(#clip670)" d="M1773.05 1272.19 Q1769.44 1272.19 1767.62 1275.76 Q1765.81 1279.3 1765.81 1286.43 Q1765.81 1293.53 1767.62 1297.1 Q1769.44 1300.64 1773.05 1300.64 Q1776.69 1300.64 1778.49 1297.1 Q1780.32 1293.53 1780.32 1286.43 Q1780.32 1279.3 1778.49 1275.76 Q1776.69 1272.19 1773.05 1272.19 M1773.05 1268.49 Q1778.87 1268.49 1781.92 1273.09 Q1785 1277.68 1785 1286.43 Q1785 1295.15 1781.92 1299.76 Q1778.87 1304.34 1773.05 1304.34 Q1767.24 1304.34 1764.17 1299.76 Q1761.11 1295.15 1761.11 1286.43 Q1761.11 1277.68 1764.17 1273.09 Q1767.24 1268.49 1773.05 1268.49 Z" fill="#ffffff" fill-rule="evenodd" fill-opacity="1" /><path clip-path="url(#clip670)" d="M1803.22 1272.19 Q1799.61 1272.19 1797.78 1275.76 Q1795.97 1279.3 1795.97 1286.43 Q1795.97 1293.53 1797.78 1297.1 Q1799.61 1300.64 1803.22 1300.64 Q1806.85 1300.64 1808.66 1297.1 Q1810.49 1293.53 1810.49 1286.43 Q1810.49 1279.3 1808.66 1275.76 Q1806.85 1272.19 1803.22 1272.19 M1803.22 1268.49 Q1809.03 1268.49 1812.08 1273.09 Q1815.16 1277.68 1815.16 1286.43 Q1815.16 1295.15 1812.08 1299.76 Q1809.03 1304.34 1803.22 1304.34 Q1797.41 1304.34 1794.33 1299.76 Q1791.27 1295.15 1791.27 1286.43 Q1791.27 1277.68 1794.33 1273.09 Q1797.41 1268.49 1803.22 1268.49 Z" fill="#ffffff" fill-rule="evenodd" fill-opacity="1" /><path clip-path="url(#clip670)" d="M2043.98 1299.74 L2051.62 1299.74 L2051.62 1273.37 L2043.31 1275.04 L2043.31 1270.78 L2051.58 1269.11 L2056.25 1269.11 L2056.25 1299.74 L2063.89 1299.74 L2063.89 1303.67 L2043.98 1303.67 L2043.98 1299.74 Z" fill="#ffffff" fill-rule="evenodd" fill-opacity="1" /><path clip-path="url(#clip670)" d="M2077.36 1299.74 L2093.68 1299.74 L2093.68 1303.67 L2071.74 1303.67 L2071.74 1299.74 Q2074.4 1296.98 2078.98 1292.35 Q2083.59 1287.7 2084.77 1286.36 Q2087.02 1283.83 2087.9 1282.1 Q2088.8 1280.34 2088.8 1278.65 Q2088.8 1275.89 2086.85 1274.16 Q2084.93 1272.42 2081.83 1272.42 Q2079.63 1272.42 2077.18 1273.19 Q2074.75 1273.95 2071.97 1275.5 L2071.97 1270.78 Q2074.79 1269.64 2077.25 1269.07 Q2079.7 1268.49 2081.74 1268.49 Q2087.11 1268.49 2090.3 1271.17 Q2093.5 1273.86 2093.5 1278.35 Q2093.5 1280.48 2092.69 1282.4 Q2091.9 1284.3 2089.79 1286.89 Q2089.22 1287.56 2086.11 1290.78 Q2083.01 1293.97 2077.36 1299.74 Z" fill="#ffffff" fill-rule="evenodd" fill-opacity="1" /><path clip-path="url(#clip670)" d="M2113.5 1272.19 Q2109.89 1272.19 2108.06 1275.76 Q2106.25 1279.3 2106.25 1286.43 Q2106.25 1293.53 2108.06 1297.1 Q2109.89 1300.64 2113.5 1300.64 Q2117.13 1300.64 2118.94 1297.1 Q2120.77 1293.53 2120.77 1286.43 Q2120.77 1279.3 2118.94 1275.76 Q2117.13 1272.19 2113.5 1272.19 M2113.5 1268.49 Q2119.31 1268.49 2122.36 1273.09 Q2125.44 1277.68 2125.44 1286.43 Q2125.44 1295.15 2122.36 1299.76 Q2119.31 1304.34 2113.5 1304.34 Q2107.69 1304.34 2104.61 1299.76 Q2101.55 1295.15 2101.55 1286.43 Q2101.55 1277.68 2104.61 1273.09 Q2107.69 1268.49 2113.5 1268.49 Z" fill="#ffffff" fill-rule="evenodd" fill-opacity="1" /><path clip-path="url(#clip670)" d="M1161.82 1338.62 L1194.71 1338.62 L1194.71 1343.04 L1180.91 1343.04 L1180.91 1377.5 L1175.62 1377.5 L1175.62 1343.04 L1161.82 1343.04 L1161.82 1338.62 Z" fill="#ffffff" fill-rule="evenodd" fill-opacity="1" /><path clip-path="url(#clip670)" d="M1197.94 1348.33 L1202.73 1348.33 L1202.73 1377.5 L1197.94 1377.5 L1197.94 1348.33 M1197.94 1336.98 L1202.73 1336.98 L1202.73 1343.04 L1197.94 1343.04 L1197.94 1336.98 Z" fill="#ffffff" fill-rule="evenodd" fill-opacity="1" /><path clip-path="url(#clip670)" d="M1235.47 1353.93 Q1237.26 1350.7 1239.76 1349.16 Q1242.26 1347.63 1245.65 1347.63 Q1250.21 1347.63 1252.68 1350.83 Q1255.15 1354.01 1255.15 1359.89 L1255.15 1377.5 L1250.34 1377.5 L1250.34 1360.05 Q1250.34 1355.86 1248.85 1353.82 Q1247.37 1351.79 1244.32 1351.79 Q1240.6 1351.79 1238.43 1354.27 Q1236.27 1356.74 1236.27 1361.01 L1236.27 1377.5 L1231.46 1377.5 L1231.46 1360.05 Q1231.46 1355.83 1229.97 1353.82 Q1228.49 1351.79 1225.39 1351.79 Q1221.72 1351.79 1219.55 1354.29 Q1217.39 1356.77 1217.39 1361.01 L1217.39 1377.5 L1212.58 1377.5 L1212.58 1348.33 L1217.39 1348.33 L1217.39 1352.86 Q1219.03 1350.18 1221.32 1348.9 Q1223.62 1347.63 1226.77 1347.63 Q1229.94 1347.63 1232.16 1349.24 Q1234.4 1350.86 1235.47 1353.93 Z" fill="#ffffff" fill-rule="evenodd" fill-opacity="1" /><path clip-path="url(#clip670)" d="M1289.66 1361.71 L1289.66 1364.06 L1267.63 1364.06 Q1267.94 1369.01 1270.6 1371.61 Q1273.28 1374.19 1278.04 1374.19 Q1280.8 1374.19 1283.38 1373.51 Q1285.99 1372.83 1288.54 1371.48 L1288.54 1376.01 Q1285.96 1377.11 1283.25 1377.68 Q1280.54 1378.25 1277.76 1378.25 Q1270.78 1378.25 1266.69 1374.19 Q1262.63 1370.13 1262.63 1363.2 Q1262.63 1356.04 1266.48 1351.84 Q1270.36 1347.63 1276.92 1347.63 Q1282.81 1347.63 1286.22 1351.43 Q1289.66 1355.2 1289.66 1361.71 M1284.87 1360.31 Q1284.81 1356.38 1282.65 1354.03 Q1280.52 1351.69 1276.98 1351.69 Q1272.97 1351.69 1270.54 1353.95 Q1268.15 1356.22 1267.78 1360.33 L1284.87 1360.31 Z" fill="#ffffff" fill-rule="evenodd" fill-opacity="1" /><path clip-path="url(#clip670)" d="M1298.75 1370.88 L1304.24 1370.88 L1304.24 1375.36 L1299.97 1383.69 L1296.61 1383.69 L1298.75 1375.36 L1298.75 1370.88 Z" fill="#ffffff" fill-rule="evenodd" fill-opacity="1" /><path clip-path="url(#clip670)" d="M1350.02 1349.19 L1350.02 1353.72 Q1347.99 1352.68 1345.8 1352.16 Q1343.62 1351.64 1341.27 1351.64 Q1337.7 1351.64 1335.91 1352.73 Q1334.14 1353.82 1334.14 1356.01 Q1334.14 1357.68 1335.41 1358.64 Q1336.69 1359.58 1340.54 1360.44 L1342.18 1360.8 Q1347.29 1361.9 1349.42 1363.9 Q1351.58 1365.88 1351.58 1369.45 Q1351.58 1373.51 1348.36 1375.88 Q1345.15 1378.25 1339.53 1378.25 Q1337.18 1378.25 1334.63 1377.78 Q1332.11 1377.34 1329.29 1376.43 L1329.29 1371.48 Q1331.95 1372.86 1334.53 1373.56 Q1337.11 1374.24 1339.63 1374.24 Q1343.02 1374.24 1344.84 1373.09 Q1346.66 1371.92 1346.66 1369.81 Q1346.66 1367.86 1345.33 1366.82 Q1344.03 1365.78 1339.58 1364.81 L1337.91 1364.42 Q1333.46 1363.49 1331.48 1361.56 Q1329.5 1359.61 1329.5 1356.22 Q1329.5 1352.11 1332.42 1349.87 Q1335.33 1347.63 1340.7 1347.63 Q1343.36 1347.63 1345.7 1348.02 Q1348.04 1348.41 1350.02 1349.19 Z" fill="#ffffff" fill-rule="evenodd" fill-opacity="1" /><polyline clip-path="url(#clip672)" style="stroke:#ffffff; stroke-linecap:butt; stroke-linejoin:round; stroke-width:2; stroke-opacity:0.1; fill:none" points="
  160.649,1211.1 2352.76,1211.1 
  "/>
<polyline clip-path="url(#clip672)" style="stroke:#ffffff; stroke-linecap:butt; stroke-linejoin:round; stroke-width:2; stroke-opacity:0.1; fill:none" points="
  160.649,929.726 2352.76,929.726 
  "/>
<polyline clip-path="url(#clip672)" style="stroke:#ffffff; stroke-linecap:butt; stroke-linejoin:round; stroke-width:2; stroke-opacity:0.1; fill:none" points="
  160.649,648.351 2352.76,648.351 
  "/>
<polyline clip-path="url(#clip672)" style="stroke:#ffffff; stroke-linecap:butt; stroke-linejoin:round; stroke-width:2; stroke-opacity:0.1; fill:none" points="
  160.649,366.977 2352.76,366.977 
  "/>
<polyline clip-path="url(#clip670)" style="stroke:#ffffff; stroke-linecap:butt; stroke-linejoin:round; stroke-width:4; stroke-opacity:1; fill:none" points="
  160.649,1243 160.649,115.912 
  "/>
<polyline clip-path="url(#clip670)" style="stroke:#ffffff; stroke-linecap:butt; stroke-linejoin:round; stroke-width:4; stroke-opacity:1; fill:none" points="
  160.649,1211.1 186.954,1211.1 
  "/>
<polyline clip-path="url(#clip670)" style="stroke:#ffffff; stroke-linecap:butt; stroke-linejoin:round; stroke-width:4; stroke-opacity:1; fill:none" points="
  160.649,929.726 186.954,929.726 
  "/>
<polyline clip-path="url(#clip670)" style="stroke:#ffffff; stroke-linecap:butt; stroke-linejoin:round; stroke-width:4; stroke-opacity:1; fill:none" points="
  160.649,648.351 186.954,648.351 
  "/>
<polyline clip-path="url(#clip670)" style="stroke:#ffffff; stroke-linecap:butt; stroke-linejoin:round; stroke-width:4; stroke-opacity:1; fill:none" points="
  160.649,366.977 186.954,366.977 
  "/>
<path clip-path="url(#clip670)" d="M112.705 1196.9 Q109.093 1196.9 107.265 1200.46 Q105.459 1204.01 105.459 1211.14 Q105.459 1218.24 107.265 1221.81 Q109.093 1225.35 112.705 1225.35 Q116.339 1225.35 118.144 1221.81 Q119.973 1218.24 119.973 1211.14 Q119.973 1204.01 118.144 1200.46 Q116.339 1196.9 112.705 1196.9 M112.705 1193.2 Q118.515 1193.2 121.57 1197.8 Q124.649 1202.39 124.649 1211.14 Q124.649 1219.86 121.57 1224.47 Q118.515 1229.05 112.705 1229.05 Q106.894 1229.05 103.816 1224.47 Q100.76 1219.86 100.76 1211.14 Q100.76 1202.39 103.816 1197.8 Q106.894 1193.2 112.705 1193.2 Z" fill="#ffffff" fill-rule="evenodd" fill-opacity="1" /><path clip-path="url(#clip670)" d="M104.742 943.071 L112.38 943.071 L112.38 916.706 L104.07 918.372 L104.07 914.113 L112.334 912.446 L117.01 912.446 L117.01 943.071 L124.649 943.071 L124.649 947.006 L104.742 947.006 L104.742 943.071 Z" fill="#ffffff" fill-rule="evenodd" fill-opacity="1" /><path clip-path="url(#clip670)" d="M108.33 661.696 L124.649 661.696 L124.649 665.631 L102.705 665.631 L102.705 661.696 Q105.367 658.942 109.95 654.312 Q114.556 649.659 115.737 648.317 Q117.982 645.794 118.862 644.058 Q119.765 642.298 119.765 640.608 Q119.765 637.854 117.82 636.118 Q115.899 634.382 112.797 634.382 Q110.598 634.382 108.144 635.146 Q105.714 635.909 102.936 637.46 L102.936 632.738 Q105.76 631.604 108.214 631.025 Q110.668 630.446 112.705 630.446 Q118.075 630.446 121.269 633.132 Q124.464 635.817 124.464 640.308 Q124.464 642.437 123.654 644.358 Q122.867 646.257 120.76 648.849 Q120.181 649.52 117.08 652.738 Q113.978 655.932 108.33 661.696 Z" fill="#ffffff" fill-rule="evenodd" fill-opacity="1" /><path clip-path="url(#clip670)" d="M117.519 365.623 Q120.876 366.34 122.751 368.609 Q124.649 370.877 124.649 374.21 Q124.649 379.326 121.13 382.127 Q117.612 384.928 111.13 384.928 Q108.955 384.928 106.64 384.488 Q104.348 384.071 101.894 383.215 L101.894 378.701 Q103.839 379.835 106.154 380.414 Q108.468 380.993 110.992 380.993 Q115.39 380.993 117.681 379.257 Q119.996 377.521 119.996 374.21 Q119.996 371.155 117.843 369.442 Q115.714 367.706 111.894 367.706 L107.867 367.706 L107.867 363.863 L112.08 363.863 Q115.529 363.863 117.357 362.498 Q119.186 361.109 119.186 358.516 Q119.186 355.854 117.288 354.442 Q115.413 353.007 111.894 353.007 Q109.973 353.007 107.774 353.423 Q105.575 353.84 102.936 354.72 L102.936 350.553 Q105.598 349.812 107.913 349.442 Q110.251 349.072 112.311 349.072 Q117.635 349.072 120.737 351.502 Q123.839 353.91 123.839 358.03 Q123.839 360.9 122.195 362.891 Q120.552 364.859 117.519 365.623 Z" fill="#ffffff" fill-rule="evenodd" fill-opacity="1" /><path clip-path="url(#clip670)" d="M17.2109 928.869 L22.7578 928.869 Q20.2838 931.525 19.0599 934.546 Q17.8359 937.541 17.8359 940.926 Q17.8359 947.593 21.9244 951.134 Q25.9869 954.676 33.6952 954.676 Q41.3775 954.676 45.466 951.134 Q49.5285 947.593 49.5285 940.926 Q49.5285 937.541 48.3045 934.546 Q47.0806 931.525 44.6066 928.869 L50.1014 928.869 Q51.9764 931.629 52.9139 934.728 Q53.8514 937.801 53.8514 941.238 Q53.8514 950.067 48.4608 955.145 Q43.0441 960.223 33.6952 960.223 Q24.3203 960.223 18.9297 955.145 Q13.513 950.067 13.513 941.238 Q13.513 937.749 14.4505 934.676 Q15.362 931.577 17.2109 928.869 Z" fill="#ffffff" fill-rule="evenodd" fill-opacity="1" /><path clip-path="url(#clip670)" d="M27.289 909.65 Q27.289 913.504 30.3098 915.744 Q33.3046 917.983 38.5389 917.983 Q43.7733 917.983 46.7941 915.77 Q49.7889 913.53 49.7889 909.65 Q49.7889 905.822 46.7681 903.582 Q43.7472 901.343 38.5389 901.343 Q33.3567 901.343 30.3359 903.582 Q27.289 905.822 27.289 909.65 M23.2265 909.65 Q23.2265 903.4 27.289 899.832 Q31.3515 896.265 38.5389 896.265 Q45.7004 896.265 49.7889 899.832 Q53.8514 903.4 53.8514 909.65 Q53.8514 915.926 49.7889 919.494 Q45.7004 923.035 38.5389 923.035 Q31.3515 923.035 27.289 919.494 Q23.2265 915.926 23.2265 909.65 Z" fill="#ffffff" fill-rule="evenodd" fill-opacity="1" /><path clip-path="url(#clip670)" d="M35.4921 864.077 L53.0962 864.077 L53.0962 868.869 L35.6483 868.869 Q31.5077 868.869 29.4505 870.484 Q27.3932 872.098 27.3932 875.327 Q27.3932 879.208 29.8671 881.447 Q32.3411 883.687 36.6119 883.687 L53.0962 883.687 L53.0962 888.504 L23.9296 888.504 L23.9296 883.687 L28.4609 883.687 Q25.8307 881.968 24.5286 879.65 Q23.2265 877.306 23.2265 874.26 Q23.2265 869.234 26.3515 866.656 Q29.4505 864.077 35.4921 864.077 Z" fill="#ffffff" fill-rule="evenodd" fill-opacity="1" /><path clip-path="url(#clip670)" d="M25.0494 833.531 L29.5286 833.531 Q28.4088 835.562 27.8619 837.619 Q27.289 839.65 27.289 841.734 Q27.289 846.395 30.2577 848.973 Q33.2004 851.551 38.5389 851.551 Q43.8775 851.551 46.8462 848.973 Q49.7889 846.395 49.7889 841.734 Q49.7889 839.65 49.242 837.619 Q48.6691 835.562 47.5493 833.531 L51.9764 833.531 Q52.9139 835.536 53.3826 837.697 Q53.8514 839.833 53.8514 842.255 Q53.8514 848.843 49.7108 852.723 Q45.5702 856.603 38.5389 856.603 Q31.4036 856.603 27.315 852.697 Q23.2265 848.765 23.2265 841.942 Q23.2265 839.729 23.6953 837.619 Q24.138 835.51 25.0494 833.531 Z" fill="#ffffff" fill-rule="evenodd" fill-opacity="1" /><path clip-path="url(#clip670)" d="M37.315 800.25 L39.6587 800.25 L39.6587 822.281 Q44.6066 821.968 47.2108 819.312 Q49.7889 816.63 49.7889 811.864 Q49.7889 809.104 49.1118 806.526 Q48.4347 803.921 47.0806 801.369 L51.6118 801.369 Q52.7055 803.948 53.2784 806.656 Q53.8514 809.364 53.8514 812.151 Q53.8514 819.13 49.7889 823.218 Q45.7264 827.281 38.7994 827.281 Q31.6379 827.281 27.4453 823.427 Q23.2265 819.546 23.2265 812.984 Q23.2265 807.099 27.0286 803.687 Q30.8046 800.25 37.315 800.25 M35.9087 805.041 Q31.9765 805.093 29.6327 807.255 Q27.289 809.39 27.289 812.932 Q27.289 816.942 29.5546 819.364 Q31.8202 821.76 35.9348 822.124 L35.9087 805.041 Z" fill="#ffffff" fill-rule="evenodd" fill-opacity="1" /><path clip-path="url(#clip670)" d="M35.4921 768.14 L53.0962 768.14 L53.0962 772.932 L35.6483 772.932 Q31.5077 772.932 29.4505 774.547 Q27.3932 776.161 27.3932 779.39 Q27.3932 783.271 29.8671 785.51 Q32.3411 787.75 36.6119 787.75 L53.0962 787.75 L53.0962 792.567 L23.9296 792.567 L23.9296 787.75 L28.4609 787.75 Q25.8307 786.031 24.5286 783.713 Q23.2265 781.37 23.2265 778.323 Q23.2265 773.297 26.3515 770.719 Q29.4505 768.14 35.4921 768.14 Z" fill="#ffffff" fill-rule="evenodd" fill-opacity="1" /><path clip-path="url(#clip670)" d="M15.6484 753.844 L23.9296 753.844 L23.9296 743.974 L27.6536 743.974 L27.6536 753.844 L43.4868 753.844 Q47.0545 753.844 48.0701 752.88 Q49.0858 751.89 49.0858 748.896 L49.0858 743.974 L53.0962 743.974 L53.0962 748.896 Q53.0962 754.443 51.0389 756.552 Q48.9556 758.661 43.4868 758.661 L27.6536 758.661 L27.6536 762.177 L23.9296 762.177 L23.9296 758.661 L15.6484 758.661 L15.6484 753.844 Z" fill="#ffffff" fill-rule="evenodd" fill-opacity="1" /><path clip-path="url(#clip670)" d="M28.4088 720.771 Q27.94 721.578 27.7317 722.542 Q27.4973 723.479 27.4973 724.625 Q27.4973 728.687 30.1536 730.875 Q32.7838 733.036 37.7317 733.036 L53.0962 733.036 L53.0962 737.854 L23.9296 737.854 L23.9296 733.036 L28.4609 733.036 Q25.8046 731.526 24.5286 729.104 Q23.2265 726.682 23.2265 723.219 Q23.2265 722.724 23.3047 722.125 Q23.3567 721.526 23.4869 720.797 L28.4088 720.771 Z" fill="#ffffff" fill-rule="evenodd" fill-opacity="1" /><path clip-path="url(#clip670)" d="M38.4348 702.49 Q38.4348 708.297 39.7629 710.537 Q41.091 712.776 44.2941 712.776 Q46.8462 712.776 48.3566 711.109 Q49.841 709.417 49.841 706.526 Q49.841 702.542 47.0285 700.146 Q44.19 697.724 39.5025 697.724 L38.4348 697.724 L38.4348 702.49 M36.4556 692.932 L53.0962 692.932 L53.0962 697.724 L48.6691 697.724 Q51.3253 699.365 52.6014 701.813 Q53.8514 704.261 53.8514 707.802 Q53.8514 712.281 51.3514 714.938 Q48.8253 717.568 44.6066 717.568 Q39.6848 717.568 37.1848 714.287 Q34.6848 710.979 34.6848 704.443 L34.6848 697.724 L34.2161 697.724 Q30.9088 697.724 29.1119 699.912 Q27.289 702.073 27.289 706.005 Q27.289 708.505 27.888 710.875 Q28.4869 713.245 29.6848 715.432 L25.2578 715.432 Q24.2421 712.802 23.7474 710.328 Q23.2265 707.854 23.2265 705.511 Q23.2265 699.182 26.5078 696.057 Q29.789 692.932 36.4556 692.932 Z" fill="#ffffff" fill-rule="evenodd" fill-opacity="1" /><path clip-path="url(#clip670)" d="M15.6484 678.323 L23.9296 678.323 L23.9296 668.453 L27.6536 668.453 L27.6536 678.323 L43.4868 678.323 Q47.0545 678.323 48.0701 677.36 Q49.0858 676.37 49.0858 673.375 L49.0858 668.453 L53.0962 668.453 L53.0962 673.375 Q53.0962 678.922 51.0389 681.031 Q48.9556 683.141 43.4868 683.141 L27.6536 683.141 L27.6536 686.656 L23.9296 686.656 L23.9296 683.141 L15.6484 683.141 L15.6484 678.323 Z" fill="#ffffff" fill-rule="evenodd" fill-opacity="1" /><path clip-path="url(#clip670)" d="M23.9296 662.151 L23.9296 657.36 L53.0962 657.36 L53.0962 662.151 L23.9296 662.151 M12.5755 662.151 L12.5755 657.36 L18.6432 657.36 L18.6432 662.151 L12.5755 662.151 Z" fill="#ffffff" fill-rule="evenodd" fill-opacity="1" /><path clip-path="url(#clip670)" d="M27.289 636.032 Q27.289 639.886 30.3098 642.125 Q33.3046 644.365 38.5389 644.365 Q43.7733 644.365 46.7941 642.151 Q49.7889 639.912 49.7889 636.032 Q49.7889 632.204 46.7681 629.964 Q43.7472 627.724 38.5389 627.724 Q33.3567 627.724 30.3359 629.964 Q27.289 632.204 27.289 636.032 M23.2265 636.032 Q23.2265 629.782 27.289 626.214 Q31.3515 622.646 38.5389 622.646 Q45.7004 622.646 49.7889 626.214 Q53.8514 629.782 53.8514 636.032 Q53.8514 642.308 49.7889 645.875 Q45.7004 649.417 38.5389 649.417 Q31.3515 649.417 27.289 645.875 Q23.2265 642.308 23.2265 636.032 Z" fill="#ffffff" fill-rule="evenodd" fill-opacity="1" /><path clip-path="url(#clip670)" d="M35.4921 590.459 L53.0962 590.459 L53.0962 595.251 L35.6483 595.251 Q31.5077 595.251 29.4505 596.865 Q27.3932 598.48 27.3932 601.709 Q27.3932 605.589 29.8671 607.829 Q32.3411 610.068 36.6119 610.068 L53.0962 610.068 L53.0962 614.886 L23.9296 614.886 L23.9296 610.068 L28.4609 610.068 Q25.8307 608.35 24.5286 606.032 Q23.2265 603.688 23.2265 600.641 Q23.2265 595.615 26.3515 593.037 Q29.4505 590.459 35.4921 590.459 Z" fill="#ffffff" fill-rule="evenodd" fill-opacity="1" /><path clip-path="url(#clip670)" d="M46.4816 579.678 L46.4816 574.183 L50.9608 574.183 L59.294 578.454 L59.294 581.813 L50.9608 579.678 L46.4816 579.678 Z" fill="#ffffff" fill-rule="evenodd" fill-opacity="1" /><path clip-path="url(#clip670)" d="M12.5755 547.178 L12.5755 542.36 L36.5077 542.36 L23.9296 528.064 L23.9296 521.944 L37.5754 537.412 L53.0962 521.293 L53.0962 527.543 L38.8514 542.36 L53.0962 542.36 L53.0962 547.178 L12.5755 547.178 Z" fill="#ffffff" fill-rule="evenodd" fill-opacity="1" /><path clip-path="url(#clip670)" d="M38.1744 496.918 Q32.9661 496.918 30.1015 499.079 Q27.2369 501.215 27.2369 505.095 Q27.2369 508.949 30.1015 511.111 Q32.9661 513.246 38.1744 513.246 Q43.3566 513.246 46.2212 511.111 Q49.0858 508.949 49.0858 505.095 Q49.0858 501.215 46.2212 499.079 Q43.3566 496.918 38.1744 496.918 M49.4764 492.126 Q56.9243 492.126 60.544 495.434 Q64.1898 498.741 64.1898 505.564 Q64.1898 508.09 63.7992 510.329 Q63.4346 512.569 62.6534 514.678 L57.992 514.678 Q59.1378 512.569 59.6847 510.512 Q60.2315 508.454 60.2315 506.319 Q60.2315 501.605 57.7576 499.262 Q55.3097 496.918 50.3358 496.918 L47.966 496.918 Q50.5441 498.402 51.8201 500.72 Q53.0962 503.038 53.0962 506.267 Q53.0962 511.631 49.0076 514.913 Q44.9191 518.194 38.1744 518.194 Q31.4036 518.194 27.315 514.913 Q23.2265 511.631 23.2265 506.267 Q23.2265 503.038 24.5026 500.72 Q25.7786 498.402 28.3567 496.918 L23.9296 496.918 L23.9296 492.126 L49.4764 492.126 Z" fill="#ffffff" fill-rule="evenodd" fill-opacity="1" /><path clip-path="url(#clip670)" d="M14.2162 473.741 L14.2162 469.314 L58.044 482.855 L58.044 487.283 L14.2162 473.741 Z" fill="#ffffff" fill-rule="evenodd" fill-opacity="1" /><path clip-path="url(#clip670)" d="M29.5286 441.58 Q26.2994 439.783 24.763 437.283 Q23.2265 434.783 23.2265 431.397 Q23.2265 426.84 26.4296 424.366 Q29.6067 421.892 35.4921 421.892 L53.0962 421.892 L53.0962 426.71 L35.6483 426.71 Q31.4556 426.71 29.4244 428.194 Q27.3932 429.679 27.3932 432.726 Q27.3932 436.449 29.8671 438.611 Q32.3411 440.772 36.6119 440.772 L53.0962 440.772 L53.0962 445.59 L35.6483 445.59 Q31.4296 445.59 29.4244 447.074 Q27.3932 448.559 27.3932 451.658 Q27.3932 455.33 29.8932 457.491 Q32.3671 459.652 36.6119 459.652 L53.0962 459.652 L53.0962 464.47 L23.9296 464.47 L23.9296 459.652 L28.4609 459.652 Q25.7786 458.012 24.5026 455.72 Q23.2265 453.429 23.2265 450.278 Q23.2265 447.1 24.8411 444.887 Q26.4557 442.647 29.5286 441.58 Z" fill="#ffffff" fill-rule="evenodd" fill-opacity="1" /><path clip-path="url(#clip670)" d="M23.9296 403.715 Q24.3984 401.319 25.8307 400.017 Q27.2369 398.689 29.3723 398.689 Q32.6015 398.689 34.3463 401.163 Q36.091 403.637 36.091 408.246 Q36.091 409.731 35.8306 411.371 Q35.5442 412.986 35.0233 414.809 L31.8723 414.809 Q32.5754 413.455 32.914 411.918 Q33.2525 410.356 33.2525 408.611 Q33.2525 405.773 32.2369 404.21 Q31.1952 402.648 29.3723 402.648 Q27.4453 402.648 26.4557 404.106 Q25.4661 405.538 25.4661 408.351 L25.4661 410.59 L22.6536 410.59 L22.6536 408.142 Q22.6536 405.694 21.8463 404.444 Q21.013 403.168 19.4505 403.168 Q17.9401 403.168 17.1589 404.47 Q16.3516 405.773 16.3516 408.246 Q16.3516 409.288 16.5859 410.616 Q16.8203 411.944 17.4193 414.054 L14.4245 414.054 Q13.9818 412.153 13.7474 410.486 Q13.513 408.819 13.513 407.387 Q13.513 403.637 15.0495 401.45 Q16.5859 399.236 19.164 399.236 Q20.9609 399.236 22.2109 400.408 Q23.4609 401.58 23.9296 403.715 Z" fill="#ffffff" fill-rule="evenodd" fill-opacity="1" /><path clip-path="url(#clip670)" d="M456.183 17.6457 Q447.271 17.6457 442.005 24.2892 Q436.779 30.9327 436.779 42.3968 Q436.779 53.8203 442.005 60.4638 Q447.271 67.1073 456.183 67.1073 Q465.095 67.1073 470.28 60.4638 Q475.506 53.8203 475.506 42.3968 Q475.506 30.9327 470.28 24.2892 Q465.095 17.6457 456.183 17.6457 M456.183 11.0023 Q468.903 11.0023 476.519 19.5497 Q484.134 28.0566 484.134 42.3968 Q484.134 56.6965 476.519 65.2439 Q468.903 73.7508 456.183 73.7508 Q443.423 73.7508 435.766 65.2439 Q428.151 56.737 428.151 42.3968 Q428.151 28.0566 435.766 19.5497 Q443.423 11.0023 456.183 11.0023 Z" fill="#ffffff" fill-rule="evenodd" fill-opacity="1" /><path clip-path="url(#clip670)" d="M495.841 54.671 L495.841 27.2059 L503.295 27.2059 L503.295 54.3874 Q503.295 60.8284 505.807 64.0691 Q508.318 67.2693 513.341 67.2693 Q519.377 67.2693 522.861 63.421 Q526.385 59.5726 526.385 52.9291 L526.385 27.2059 L533.839 27.2059 L533.839 72.576 L526.385 72.576 L526.385 65.6084 Q523.671 69.7404 520.066 71.7658 Q516.501 73.7508 511.761 73.7508 Q503.943 73.7508 499.892 68.8897 Q495.841 64.0286 495.841 54.671 M514.597 26.1121 L514.597 26.1121 Z" fill="#ffffff" fill-rule="evenodd" fill-opacity="1" /><path clip-path="url(#clip670)" d="M556.564 14.324 L556.564 27.2059 L571.917 27.2059 L571.917 32.9987 L556.564 32.9987 L556.564 57.6282 Q556.564 63.1779 558.063 64.7578 Q559.603 66.3376 564.261 66.3376 L571.917 66.3376 L571.917 72.576 L564.261 72.576 Q555.633 72.576 552.351 69.3758 Q549.07 66.1351 549.07 57.6282 L549.07 32.9987 L543.601 32.9987 L543.601 27.2059 L549.07 27.2059 L549.07 14.324 L556.564 14.324 Z" fill="#ffffff" fill-rule="evenodd" fill-opacity="1" /><path clip-path="url(#clip670)" d="M611.576 34.0924 L611.576 9.54393 L619.029 9.54393 L619.029 72.576 L611.576 72.576 L611.576 65.7705 Q609.226 69.8214 605.621 71.8063 Q602.056 73.7508 597.033 73.7508 Q588.81 73.7508 583.624 67.1883 Q578.48 60.6258 578.48 49.9314 Q578.48 39.2371 583.624 32.6746 Q588.81 26.1121 597.033 26.1121 Q602.056 26.1121 605.621 28.0971 Q609.226 30.0415 611.576 34.0924 M586.176 49.9314 Q586.176 58.1548 589.539 62.8538 Q592.942 67.5124 598.856 67.5124 Q604.77 67.5124 608.173 62.8538 Q611.576 58.1548 611.576 49.9314 Q611.576 41.7081 608.173 37.0496 Q604.77 32.3505 598.856 32.3505 Q592.942 32.3505 589.539 37.0496 Q586.176 41.7081 586.176 49.9314 Z" fill="#ffffff" fill-rule="evenodd" fill-opacity="1" /><path clip-path="url(#clip670)" d="M651.963 32.4315 Q645.968 32.4315 642.484 37.1306 Q639 41.7891 639 49.9314 Q639 58.0738 642.444 62.7728 Q645.927 67.4314 651.963 67.4314 Q657.918 67.4314 661.402 62.7323 Q664.886 58.0333 664.886 49.9314 Q664.886 41.8701 661.402 37.1711 Q657.918 32.4315 651.963 32.4315 M651.963 26.1121 Q661.685 26.1121 667.235 32.4315 Q672.785 38.7509 672.785 49.9314 Q672.785 61.0714 667.235 67.4314 Q661.685 73.7508 651.963 73.7508 Q642.2 73.7508 636.651 67.4314 Q631.142 61.0714 631.142 49.9314 Q631.142 38.7509 636.651 32.4315 Q642.2 26.1121 651.963 26.1121 Z" fill="#ffffff" fill-rule="evenodd" fill-opacity="1" /><path clip-path="url(#clip670)" d="M702.721 32.4315 Q696.726 32.4315 693.242 37.1306 Q689.758 41.7891 689.758 49.9314 Q689.758 58.0738 693.201 62.7728 Q696.685 67.4314 702.721 67.4314 Q708.676 67.4314 712.16 62.7323 Q715.643 58.0333 715.643 49.9314 Q715.643 41.8701 712.16 37.1711 Q708.676 32.4315 702.721 32.4315 M702.721 26.1121 Q712.443 26.1121 717.993 32.4315 Q723.543 38.7509 723.543 49.9314 Q723.543 61.0714 717.993 67.4314 Q712.443 73.7508 702.721 73.7508 Q692.958 73.7508 687.409 67.4314 Q681.899 61.0714 681.899 49.9314 Q681.899 38.7509 687.409 32.4315 Q692.958 26.1121 702.721 26.1121 Z" fill="#ffffff" fill-rule="evenodd" fill-opacity="1" /><path clip-path="url(#clip670)" d="M762.188 34.1734 Q760.932 33.4443 759.434 33.1202 Q757.975 32.7556 756.193 32.7556 Q749.874 32.7556 746.471 36.8875 Q743.109 40.9789 743.109 48.6757 L743.109 72.576 L735.614 72.576 L735.614 27.2059 L743.109 27.2059 L743.109 34.2544 Q745.458 30.1225 749.225 28.1376 Q752.993 26.1121 758.38 26.1121 Q759.15 26.1121 760.082 26.2337 Q761.014 26.3147 762.148 26.5172 L762.188 34.1734 Z" fill="#ffffff" fill-rule="evenodd" fill-opacity="1" /><path clip-path="url(#clip670)" d="M829.028 28.9478 L829.028 35.9153 Q825.868 34.1734 822.668 33.3227 Q819.509 32.4315 816.268 32.4315 Q809.017 32.4315 805.006 37.0496 Q800.996 41.6271 800.996 49.9314 Q800.996 58.2358 805.006 62.8538 Q809.017 67.4314 816.268 67.4314 Q819.509 67.4314 822.668 66.5807 Q825.868 65.6895 829.028 63.9476 L829.028 70.8341 Q825.909 72.2924 822.547 73.0216 Q819.225 73.7508 815.458 73.7508 Q805.209 73.7508 799.173 67.3098 Q793.137 60.8689 793.137 49.9314 Q793.137 38.832 799.214 32.472 Q805.33 26.1121 815.944 26.1121 Q819.387 26.1121 822.668 26.8413 Q825.95 27.5299 829.028 28.9478 Z" fill="#ffffff" fill-rule="evenodd" fill-opacity="1" /><path clip-path="url(#clip670)" d="M859.572 32.4315 Q853.577 32.4315 850.093 37.1306 Q846.609 41.7891 846.609 49.9314 Q846.609 58.0738 850.052 62.7728 Q853.536 67.4314 859.572 67.4314 Q865.527 67.4314 869.011 62.7323 Q872.494 58.0333 872.494 49.9314 Q872.494 41.8701 869.011 37.1711 Q865.527 32.4315 859.572 32.4315 M859.572 26.1121 Q869.294 26.1121 874.844 32.4315 Q880.394 38.7509 880.394 49.9314 Q880.394 61.0714 874.844 67.4314 Q869.294 73.7508 859.572 73.7508 Q849.809 73.7508 844.26 67.4314 Q838.75 61.0714 838.75 49.9314 Q838.75 38.7509 844.26 32.4315 Q849.809 26.1121 859.572 26.1121 Z" fill="#ffffff" fill-rule="evenodd" fill-opacity="1" /><path clip-path="url(#clip670)" d="M930.463 45.1919 L930.463 72.576 L923.009 72.576 L923.009 45.4349 Q923.009 38.994 920.498 35.7938 Q917.986 32.5936 912.963 32.5936 Q906.927 32.5936 903.443 36.4419 Q899.96 40.2903 899.96 46.9338 L899.96 72.576 L892.465 72.576 L892.465 27.2059 L899.96 27.2059 L899.96 34.2544 Q902.633 30.163 906.238 28.1376 Q909.884 26.1121 914.624 26.1121 Q922.442 26.1121 926.452 30.9732 Q930.463 35.7938 930.463 45.1919 Z" fill="#ffffff" fill-rule="evenodd" fill-opacity="1" /><path clip-path="url(#clip670)" d="M977.98 28.9478 L977.98 35.9153 Q974.82 34.1734 971.62 33.3227 Q968.46 32.4315 965.22 32.4315 Q957.968 32.4315 953.958 37.0496 Q949.948 41.6271 949.948 49.9314 Q949.948 58.2358 953.958 62.8538 Q957.968 67.4314 965.22 67.4314 Q968.46 67.4314 971.62 66.5807 Q974.82 65.6895 977.98 63.9476 L977.98 70.8341 Q974.861 72.2924 971.499 73.0216 Q968.177 73.7508 964.409 73.7508 Q954.161 73.7508 948.125 67.3098 Q942.089 60.8689 942.089 49.9314 Q942.089 38.832 948.165 32.472 Q954.282 26.1121 964.896 26.1121 Q968.339 26.1121 971.62 26.8413 Q974.901 27.5299 977.98 28.9478 Z" fill="#ffffff" fill-rule="evenodd" fill-opacity="1" /><path clip-path="url(#clip670)" d="M1029.75 48.0275 L1029.75 51.6733 L995.48 51.6733 Q995.966 59.3701 1000.1 63.421 Q1004.27 67.4314 1011.68 67.4314 Q1015.98 67.4314 1019.99 66.3781 Q1024.04 65.3249 1028.01 63.2184 L1028.01 70.267 Q1024 71.9684 1019.79 72.8596 Q1015.57 73.7508 1011.24 73.7508 Q1000.38 73.7508 994.022 67.4314 Q987.702 61.1119 987.702 50.3365 Q987.702 39.1965 993.697 32.6746 Q999.733 26.1121 1009.94 26.1121 Q1019.1 26.1121 1024.4 32.0264 Q1029.75 37.9003 1029.75 48.0275 M1022.3 45.84 Q1022.22 39.7232 1018.85 36.0774 Q1015.53 32.4315 1010.02 32.4315 Q1003.78 32.4315 1000.02 35.9558 Q996.29 39.4801 995.723 45.8805 L1022.3 45.84 Z" fill="#ffffff" fill-rule="evenodd" fill-opacity="1" /><path clip-path="url(#clip670)" d="M1079.7 45.1919 L1079.7 72.576 L1072.24 72.576 L1072.24 45.4349 Q1072.24 38.994 1069.73 35.7938 Q1067.22 32.5936 1062.2 32.5936 Q1056.16 32.5936 1052.68 36.4419 Q1049.19 40.2903 1049.19 46.9338 L1049.19 72.576 L1041.7 72.576 L1041.7 27.2059 L1049.19 27.2059 L1049.19 34.2544 Q1051.87 30.163 1055.47 28.1376 Q1059.12 26.1121 1063.86 26.1121 Q1071.68 26.1121 1075.69 30.9732 Q1079.7 35.7938 1079.7 45.1919 Z" fill="#ffffff" fill-rule="evenodd" fill-opacity="1" /><path clip-path="url(#clip670)" d="M1101.94 14.324 L1101.94 27.2059 L1117.29 27.2059 L1117.29 32.9987 L1101.94 32.9987 L1101.94 57.6282 Q1101.94 63.1779 1103.44 64.7578 Q1104.98 66.3376 1109.63 66.3376 L1117.29 66.3376 L1117.29 72.576 L1109.63 72.576 Q1101.01 72.576 1097.72 69.3758 Q1094.44 66.1351 1094.44 57.6282 L1094.44 32.9987 L1088.97 32.9987 L1088.97 27.2059 L1094.44 27.2059 L1094.44 14.324 L1101.94 14.324 Z" fill="#ffffff" fill-rule="evenodd" fill-opacity="1" /><path clip-path="url(#clip670)" d="M1153.38 34.1734 Q1152.13 33.4443 1150.63 33.1202 Q1149.17 32.7556 1147.39 32.7556 Q1141.07 32.7556 1137.67 36.8875 Q1134.3 40.9789 1134.3 48.6757 L1134.3 72.576 L1126.81 72.576 L1126.81 27.2059 L1134.3 27.2059 L1134.3 34.2544 Q1136.65 30.1225 1140.42 28.1376 Q1144.19 26.1121 1149.58 26.1121 Q1150.35 26.1121 1151.28 26.2337 Q1152.21 26.3147 1153.34 26.5172 L1153.38 34.1734 Z" fill="#ffffff" fill-rule="evenodd" fill-opacity="1" /><path clip-path="url(#clip670)" d="M1181.82 49.7694 Q1172.79 49.7694 1169.3 51.8354 Q1165.82 53.9013 1165.82 58.8839 Q1165.82 62.8538 1168.41 65.2034 Q1171.05 67.5124 1175.54 67.5124 Q1181.74 67.5124 1185.47 63.1374 Q1189.23 58.7219 1189.23 51.4303 L1189.23 49.7694 L1181.82 49.7694 M1196.69 46.6907 L1196.69 72.576 L1189.23 72.576 L1189.23 65.6895 Q1186.68 69.8214 1182.87 71.8063 Q1179.07 73.7508 1173.56 73.7508 Q1166.59 73.7508 1162.46 69.8619 Q1158.37 65.9325 1158.37 59.3701 Q1158.37 51.7138 1163.47 47.825 Q1168.62 43.9361 1178.78 43.9361 L1189.23 43.9361 L1189.23 43.2069 Q1189.23 38.0623 1185.83 35.2672 Q1182.47 32.4315 1176.35 32.4315 Q1172.46 32.4315 1168.78 33.3632 Q1165.09 34.295 1161.69 36.1584 L1161.69 29.2718 Q1165.78 27.692 1169.63 26.9223 Q1173.48 26.1121 1177.12 26.1121 Q1186.97 26.1121 1191.83 31.2163 Q1196.69 36.3204 1196.69 46.6907 Z" fill="#ffffff" fill-rule="evenodd" fill-opacity="1" /><path clip-path="url(#clip670)" d="M1219.41 14.324 L1219.41 27.2059 L1234.77 27.2059 L1234.77 32.9987 L1219.41 32.9987 L1219.41 57.6282 Q1219.41 63.1779 1220.91 64.7578 Q1222.45 66.3376 1227.11 66.3376 L1234.77 66.3376 L1234.77 72.576 L1227.11 72.576 Q1218.48 72.576 1215.2 69.3758 Q1211.92 66.1351 1211.92 57.6282 L1211.92 32.9987 L1206.45 32.9987 L1206.45 27.2059 L1211.92 27.2059 L1211.92 14.324 L1219.41 14.324 Z" fill="#ffffff" fill-rule="evenodd" fill-opacity="1" /><path clip-path="url(#clip670)" d="M1244.57 27.2059 L1252.02 27.2059 L1252.02 72.576 L1244.57 72.576 L1244.57 27.2059 M1244.57 9.54393 L1252.02 9.54393 L1252.02 18.9825 L1244.57 18.9825 L1244.57 9.54393 Z" fill="#ffffff" fill-rule="evenodd" fill-opacity="1" /><path clip-path="url(#clip670)" d="M1285.2 32.4315 Q1279.21 32.4315 1275.72 37.1306 Q1272.24 41.7891 1272.24 49.9314 Q1272.24 58.0738 1275.68 62.7728 Q1279.16 67.4314 1285.2 67.4314 Q1291.16 67.4314 1294.64 62.7323 Q1298.12 58.0333 1298.12 49.9314 Q1298.12 41.8701 1294.64 37.1711 Q1291.16 32.4315 1285.2 32.4315 M1285.2 26.1121 Q1294.92 26.1121 1300.47 32.4315 Q1306.02 38.7509 1306.02 49.9314 Q1306.02 61.0714 1300.47 67.4314 Q1294.92 73.7508 1285.2 73.7508 Q1275.44 73.7508 1269.89 67.4314 Q1264.38 61.0714 1264.38 49.9314 Q1264.38 38.7509 1269.89 32.4315 Q1275.44 26.1121 1285.2 26.1121 Z" fill="#ffffff" fill-rule="evenodd" fill-opacity="1" /><path clip-path="url(#clip670)" d="M1356.09 45.1919 L1356.09 72.576 L1348.64 72.576 L1348.64 45.4349 Q1348.64 38.994 1346.13 35.7938 Q1343.61 32.5936 1338.59 32.5936 Q1332.56 32.5936 1329.07 36.4419 Q1325.59 40.2903 1325.59 46.9338 L1325.59 72.576 L1318.09 72.576 L1318.09 27.2059 L1325.59 27.2059 L1325.59 34.2544 Q1328.26 30.163 1331.87 28.1376 Q1335.51 26.1121 1340.25 26.1121 Q1348.07 26.1121 1352.08 30.9732 Q1356.09 35.7938 1356.09 45.1919 Z" fill="#ffffff" fill-rule="evenodd" fill-opacity="1" /><path clip-path="url(#clip670)" d="M1417.95 49.7694 Q1408.92 49.7694 1405.43 51.8354 Q1401.95 53.9013 1401.95 58.8839 Q1401.95 62.8538 1404.54 65.2034 Q1407.17 67.5124 1411.67 67.5124 Q1417.87 67.5124 1421.59 63.1374 Q1425.36 58.7219 1425.36 51.4303 L1425.36 49.7694 L1417.95 49.7694 M1432.82 46.6907 L1432.82 72.576 L1425.36 72.576 L1425.36 65.6895 Q1422.81 69.8214 1419 71.8063 Q1415.19 73.7508 1409.68 73.7508 Q1402.72 73.7508 1398.59 69.8619 Q1394.49 65.9325 1394.49 59.3701 Q1394.49 51.7138 1399.6 47.825 Q1404.74 43.9361 1414.91 43.9361 L1425.36 43.9361 L1425.36 43.2069 Q1425.36 38.0623 1421.96 35.2672 Q1418.6 32.4315 1412.48 32.4315 Q1408.59 32.4315 1404.9 33.3632 Q1401.22 34.295 1397.82 36.1584 L1397.82 29.2718 Q1401.91 27.692 1405.76 26.9223 Q1409.6 26.1121 1413.25 26.1121 Q1423.09 26.1121 1427.95 31.2163 Q1432.82 36.3204 1432.82 46.6907 Z" fill="#ffffff" fill-rule="evenodd" fill-opacity="1" /><path clip-path="url(#clip670)" d="M1455.54 14.324 L1455.54 27.2059 L1470.89 27.2059 L1470.89 32.9987 L1455.54 32.9987 L1455.54 57.6282 Q1455.54 63.1779 1457.04 64.7578 Q1458.58 66.3376 1463.24 66.3376 L1470.89 66.3376 L1470.89 72.576 L1463.24 72.576 Q1454.61 72.576 1451.33 69.3758 Q1448.05 66.1351 1448.05 57.6282 L1448.05 32.9987 L1442.58 32.9987 L1442.58 27.2059 L1448.05 27.2059 L1448.05 14.324 L1455.54 14.324 Z" fill="#ffffff" fill-rule="evenodd" fill-opacity="1" /><path clip-path="url(#clip670)" d="M1533.36 34.1734 Q1532.1 33.4443 1530.6 33.1202 Q1529.15 32.7556 1527.36 32.7556 Q1521.04 32.7556 1517.64 36.8875 Q1514.28 40.9789 1514.28 48.6757 L1514.28 72.576 L1506.78 72.576 L1506.78 27.2059 L1514.28 27.2059 L1514.28 34.2544 Q1516.63 30.1225 1520.4 28.1376 Q1524.16 26.1121 1529.55 26.1121 Q1530.32 26.1121 1531.25 26.2337 Q1532.18 26.3147 1533.32 26.5172 L1533.36 34.1734 Z" fill="#ffffff" fill-rule="evenodd" fill-opacity="1" /><path clip-path="url(#clip670)" d="M1578.16 48.0275 L1578.16 51.6733 L1543.89 51.6733 Q1544.38 59.3701 1548.51 63.421 Q1552.68 67.4314 1560.09 67.4314 Q1564.39 67.4314 1568.4 66.3781 Q1572.45 65.3249 1576.42 63.2184 L1576.42 70.267 Q1572.41 71.9684 1568.2 72.8596 Q1563.98 73.7508 1559.65 73.7508 Q1548.79 73.7508 1542.43 67.4314 Q1536.11 61.1119 1536.11 50.3365 Q1536.11 39.1965 1542.11 32.6746 Q1548.14 26.1121 1558.35 26.1121 Q1567.51 26.1121 1572.81 32.0264 Q1578.16 37.9003 1578.16 48.0275 M1570.71 45.84 Q1570.63 39.7232 1567.26 36.0774 Q1563.94 32.4315 1558.43 32.4315 Q1552.2 32.4315 1548.43 35.9558 Q1544.7 39.4801 1544.13 45.8805 L1570.71 45.84 Z" fill="#ffffff" fill-rule="evenodd" fill-opacity="1" /><path clip-path="url(#clip670)" d="M1623.05 28.9478 L1623.05 35.9153 Q1619.89 34.1734 1616.69 33.3227 Q1613.53 32.4315 1610.29 32.4315 Q1603.03 32.4315 1599.02 37.0496 Q1595.01 41.6271 1595.01 49.9314 Q1595.01 58.2358 1599.02 62.8538 Q1603.03 67.4314 1610.29 67.4314 Q1613.53 67.4314 1616.69 66.5807 Q1619.89 65.6895 1623.05 63.9476 L1623.05 70.8341 Q1619.93 72.2924 1616.56 73.0216 Q1613.24 73.7508 1609.48 73.7508 Q1599.23 73.7508 1593.19 67.3098 Q1587.15 60.8689 1587.15 49.9314 Q1587.15 38.832 1593.23 32.472 Q1599.35 26.1121 1609.96 26.1121 Q1613.4 26.1121 1616.69 26.8413 Q1619.97 27.5299 1623.05 28.9478 Z" fill="#ffffff" fill-rule="evenodd" fill-opacity="1" /><path clip-path="url(#clip670)" d="M1674.82 48.0275 L1674.82 51.6733 L1640.55 51.6733 Q1641.03 59.3701 1645.16 63.421 Q1649.34 67.4314 1656.75 67.4314 Q1661.04 67.4314 1665.05 66.3781 Q1669.1 65.3249 1673.07 63.2184 L1673.07 70.267 Q1669.06 71.9684 1664.85 72.8596 Q1660.64 73.7508 1656.3 73.7508 Q1645.45 73.7508 1639.09 67.4314 Q1632.77 61.1119 1632.77 50.3365 Q1632.77 39.1965 1638.76 32.6746 Q1644.8 26.1121 1655.01 26.1121 Q1664.16 26.1121 1669.47 32.0264 Q1674.82 37.9003 1674.82 48.0275 M1667.36 45.84 Q1667.28 39.7232 1663.92 36.0774 Q1660.6 32.4315 1655.09 32.4315 Q1648.85 32.4315 1645.08 35.9558 Q1641.36 39.4801 1640.79 45.8805 L1667.36 45.84 Z" fill="#ffffff" fill-rule="evenodd" fill-opacity="1" /><path clip-path="url(#clip670)" d="M1694.26 65.7705 L1694.26 89.8329 L1686.77 89.8329 L1686.77 27.2059 L1694.26 27.2059 L1694.26 34.0924 Q1696.61 30.0415 1700.18 28.0971 Q1703.78 26.1121 1708.76 26.1121 Q1717.03 26.1121 1722.17 32.6746 Q1727.36 39.2371 1727.36 49.9314 Q1727.36 60.6258 1722.17 67.1883 Q1717.03 73.7508 1708.76 73.7508 Q1703.78 73.7508 1700.18 71.8063 Q1696.61 69.8214 1694.26 65.7705 M1719.62 49.9314 Q1719.62 41.7081 1716.22 37.0496 Q1712.85 32.3505 1706.94 32.3505 Q1701.03 32.3505 1697.62 37.0496 Q1694.26 41.7081 1694.26 49.9314 Q1694.26 58.1548 1697.62 62.8538 Q1701.03 67.5124 1706.94 67.5124 Q1712.85 67.5124 1716.22 62.8538 Q1719.62 58.1548 1719.62 49.9314 Z" fill="#ffffff" fill-rule="evenodd" fill-opacity="1" /><path clip-path="url(#clip670)" d="M1747.08 14.324 L1747.08 27.2059 L1762.44 27.2059 L1762.44 32.9987 L1747.08 32.9987 L1747.08 57.6282 Q1747.08 63.1779 1748.58 64.7578 Q1750.12 66.3376 1754.78 66.3376 L1762.44 66.3376 L1762.44 72.576 L1754.78 72.576 Q1746.15 72.576 1742.87 69.3758 Q1739.59 66.1351 1739.59 57.6282 L1739.59 32.9987 L1734.12 32.9987 L1734.12 27.2059 L1739.59 27.2059 L1739.59 14.324 L1747.08 14.324 Z" fill="#ffffff" fill-rule="evenodd" fill-opacity="1" /><path clip-path="url(#clip670)" d="M1789.82 32.4315 Q1783.83 32.4315 1780.34 37.1306 Q1776.86 41.7891 1776.86 49.9314 Q1776.86 58.0738 1780.3 62.7728 Q1783.79 67.4314 1789.82 67.4314 Q1795.78 67.4314 1799.26 62.7323 Q1802.74 58.0333 1802.74 49.9314 Q1802.74 41.8701 1799.26 37.1711 Q1795.78 32.4315 1789.82 32.4315 M1789.82 26.1121 Q1799.54 26.1121 1805.09 32.4315 Q1810.64 38.7509 1810.64 49.9314 Q1810.64 61.0714 1805.09 67.4314 Q1799.54 73.7508 1789.82 73.7508 Q1780.06 73.7508 1774.51 67.4314 Q1769 61.0714 1769 49.9314 Q1769 38.7509 1774.51 32.4315 Q1780.06 26.1121 1789.82 26.1121 Z" fill="#ffffff" fill-rule="evenodd" fill-opacity="1" /><path clip-path="url(#clip670)" d="M1849.29 34.1734 Q1848.03 33.4443 1846.53 33.1202 Q1845.08 32.7556 1843.29 32.7556 Q1836.97 32.7556 1833.57 36.8875 Q1830.21 40.9789 1830.21 48.6757 L1830.21 72.576 L1822.72 72.576 L1822.72 27.2059 L1830.21 27.2059 L1830.21 34.2544 Q1832.56 30.1225 1836.33 28.1376 Q1840.09 26.1121 1845.48 26.1121 Q1846.25 26.1121 1847.18 26.2337 Q1848.11 26.3147 1849.25 26.5172 L1849.29 34.1734 Z" fill="#ffffff" fill-rule="evenodd" fill-opacity="1" /><path clip-path="url(#clip670)" d="M1890.69 65.7705 L1890.69 89.8329 L1883.2 89.8329 L1883.2 27.2059 L1890.69 27.2059 L1890.69 34.0924 Q1893.04 30.0415 1896.6 28.0971 Q1900.21 26.1121 1905.19 26.1121 Q1913.46 26.1121 1918.6 32.6746 Q1923.79 39.2371 1923.79 49.9314 Q1923.79 60.6258 1918.6 67.1883 Q1913.46 73.7508 1905.19 73.7508 Q1900.21 73.7508 1896.6 71.8063 Q1893.04 69.8214 1890.69 65.7705 M1916.05 49.9314 Q1916.05 41.7081 1912.65 37.0496 Q1909.28 32.3505 1903.37 32.3505 Q1897.45 32.3505 1894.05 37.0496 Q1890.69 41.7081 1890.69 49.9314 Q1890.69 58.1548 1894.05 62.8538 Q1897.45 67.5124 1903.37 67.5124 Q1909.28 67.5124 1912.65 62.8538 Q1916.05 58.1548 1916.05 49.9314 Z" fill="#ffffff" fill-rule="evenodd" fill-opacity="1" /><path clip-path="url(#clip670)" d="M1953.72 32.4315 Q1947.73 32.4315 1944.24 37.1306 Q1940.76 41.7891 1940.76 49.9314 Q1940.76 58.0738 1944.2 62.7728 Q1947.69 67.4314 1953.72 67.4314 Q1959.68 67.4314 1963.16 62.7323 Q1966.64 58.0333 1966.64 49.9314 Q1966.64 41.8701 1963.16 37.1711 Q1959.68 32.4315 1953.72 32.4315 M1953.72 26.1121 Q1963.44 26.1121 1968.99 32.4315 Q1974.54 38.7509 1974.54 49.9314 Q1974.54 61.0714 1968.99 67.4314 Q1963.44 73.7508 1953.72 73.7508 Q1943.96 73.7508 1938.41 67.4314 Q1932.9 61.0714 1932.9 49.9314 Q1932.9 38.7509 1938.41 32.4315 Q1943.96 26.1121 1953.72 26.1121 Z" fill="#ffffff" fill-rule="evenodd" fill-opacity="1" /><path clip-path="url(#clip670)" d="M1986.9 27.2059 L1994.35 27.2059 L1994.35 72.576 L1986.9 72.576 L1986.9 27.2059 M1986.9 9.54393 L1994.35 9.54393 L1994.35 18.9825 L1986.9 18.9825 L1986.9 9.54393 Z" fill="#ffffff" fill-rule="evenodd" fill-opacity="1" /><path clip-path="url(#clip670)" d="M2047.66 45.1919 L2047.66 72.576 L2040.21 72.576 L2040.21 45.4349 Q2040.21 38.994 2037.7 35.7938 Q2035.18 32.5936 2030.16 32.5936 Q2024.13 32.5936 2020.64 36.4419 Q2017.16 40.2903 2017.16 46.9338 L2017.16 72.576 L2009.66 72.576 L2009.66 27.2059 L2017.16 27.2059 L2017.16 34.2544 Q2019.83 30.163 2023.44 28.1376 Q2027.08 26.1121 2031.82 26.1121 Q2039.64 26.1121 2043.65 30.9732 Q2047.66 35.7938 2047.66 45.1919 Z" fill="#ffffff" fill-rule="evenodd" fill-opacity="1" /><path clip-path="url(#clip670)" d="M2069.9 14.324 L2069.9 27.2059 L2085.25 27.2059 L2085.25 32.9987 L2069.9 32.9987 L2069.9 57.6282 Q2069.9 63.1779 2071.4 64.7578 Q2072.94 66.3376 2077.6 66.3376 L2085.25 66.3376 L2085.25 72.576 L2077.6 72.576 Q2068.97 72.576 2065.69 69.3758 Q2062.41 66.1351 2062.41 57.6282 L2062.41 32.9987 L2056.94 32.9987 L2056.94 27.2059 L2062.41 27.2059 L2062.41 14.324 L2069.9 14.324 Z" fill="#ffffff" fill-rule="evenodd" fill-opacity="1" /><polyline clip-path="url(#clip672)" style="stroke:#009af9; stroke-linecap:butt; stroke-linejoin:round; stroke-width:4; stroke-opacity:1; fill:none" points="
  222.69,1211.1 224.241,1211.1 225.792,1211.1 227.344,1211.1 228.895,1211.1 230.447,1211.1 231.998,1211.1 233.55,1211.1 235.101,1211.1 236.652,1211.1 
  238.204,1211.1 239.755,1211.1 241.307,1211.1 242.858,1211.1 244.409,1211.1 245.961,1211.1 247.512,1211.1 249.064,1211.1 250.615,1211.1 252.166,1211.1 
  253.718,1211.1 255.269,1211.1 256.821,1211.1 258.372,1211.1 259.923,1211.1 261.475,1211.1 263.026,1211.1 264.578,1211.1 266.129,1211.1 267.68,1211.1 
  269.232,1211.1 270.783,1211.1 272.335,1211.1 273.886,1211.1 275.438,1211.1 276.989,1211.1 278.54,1211.1 280.092,1211.1 281.643,1211.1 283.195,1211.1 
  284.746,1211.1 286.297,1211.1 287.849,1211.1 289.4,1211.1 290.952,1211.1 292.503,1211.1 294.054,1211.1 295.606,1211.1 297.157,1211.1 298.709,1211.1 
  300.26,1211.1 301.811,1211.1 303.363,1211.1 304.914,1211.1 306.466,1211.1 308.017,1211.1 309.568,1211.1 311.12,1211.1 312.671,1211.1 314.223,1211.1 
  315.774,1211.1 317.326,1211.1 318.877,1211.1 320.428,1211.1 321.98,1211.1 323.531,1211.1 325.083,1211.1 326.634,1211.1 328.185,1211.1 329.737,1211.1 
  331.288,1211.1 332.84,1211.1 334.391,1211.1 335.942,1211.1 337.494,1211.1 339.045,1211.1 340.597,1211.1 342.148,1211.1 343.699,1211.1 345.251,1211.1 
  346.802,1211.1 348.354,1211.1 349.905,1211.1 351.456,1211.1 353.008,1211.1 354.559,1211.1 356.111,1211.1 357.662,1211.1 359.213,1211.1 360.765,1211.1 
  362.316,1211.1 363.868,1211.1 365.419,1211.1 366.971,1211.1 368.522,1211.1 370.073,1211.1 371.625,1211.1 373.176,1211.1 374.728,1211.1 376.279,1211.1 
  377.83,1211.1 379.382,1211.1 380.933,1211.1 382.485,1211.1 384.036,1211.1 385.587,1211.1 387.139,1211.1 388.69,1211.1 390.242,1211.1 391.793,1211.1 
  393.344,1211.1 394.896,1211.1 396.447,1211.1 397.999,1211.1 399.55,1211.1 401.101,1211.1 402.653,1211.1 404.204,1211.1 405.756,1211.1 407.307,1211.1 
  408.859,1211.1 410.41,1211.1 411.961,1211.1 413.513,1211.1 415.064,1211.1 416.616,1211.1 418.167,1211.1 419.718,1211.1 421.27,1211.1 422.821,1211.1 
  424.373,1211.1 425.924,1211.1 427.475,1211.1 429.027,1211.1 430.578,1211.1 432.13,1211.1 433.681,1211.1 435.232,1211.1 436.784,1211.1 438.335,1211.1 
  439.887,1211.1 441.438,1211.1 442.989,1211.1 444.541,1211.1 446.092,1211.1 447.644,1211.1 449.195,1211.1 450.747,1211.1 452.298,1211.1 453.849,1211.1 
  455.401,1211.1 456.952,1211.1 458.504,1211.1 460.055,1211.1 461.606,1211.1 463.158,1211.1 464.709,1211.1 466.261,1211.1 467.812,1211.1 469.363,1211.1 
  470.915,1211.1 472.466,1211.1 474.018,1211.1 475.569,1211.1 477.12,1211.1 478.672,1211.1 480.223,1211.1 481.775,1211.1 483.326,1211.1 484.877,1211.1 
  486.429,1211.1 487.98,1211.1 489.532,1211.1 491.083,1211.1 492.634,1211.1 494.186,1211.1 495.737,1211.1 497.289,1211.1 498.84,1211.1 500.392,1211.1 
  501.943,1211.1 503.494,1211.1 505.046,1211.1 506.597,1211.1 508.149,1211.1 509.7,1211.1 511.251,1211.1 512.803,1211.1 514.354,1211.1 515.906,1211.1 
  517.457,1211.1 519.008,1211.1 520.56,1211.1 522.111,1211.1 523.663,1211.1 525.214,1211.1 526.765,1211.1 528.317,1211.1 529.868,1211.1 531.42,1211.1 
  532.971,1211.1 534.522,1211.1 536.074,1211.1 537.625,1211.1 539.177,1211.1 540.728,1211.1 542.28,1211.1 543.831,1211.1 545.382,1211.1 546.934,1211.1 
  548.485,1211.1 550.037,1211.1 551.588,1211.1 553.139,1211.1 554.691,1211.1 556.242,1211.1 557.794,1211.1 559.345,1211.1 560.896,1211.1 562.448,1211.1 
  563.999,1211.1 565.551,1211.1 567.102,1211.1 568.653,1211.1 570.205,1211.1 571.756,1211.1 573.308,1211.1 574.859,1211.1 576.41,1211.1 577.962,1211.1 
  579.513,1211.1 581.065,1211.1 582.616,1211.1 584.168,1211.1 585.719,1211.1 587.27,1211.1 588.822,1211.1 590.373,1211.1 591.925,1211.1 593.476,1211.1 
  595.027,1211.1 596.579,1211.1 598.13,1211.1 599.682,1211.1 601.233,1211.1 602.784,1211.1 604.336,1211.1 605.887,1211.1 607.439,1211.1 608.99,1211.1 
  610.541,1211.1 612.093,1211.1 613.644,1211.1 615.196,1211.1 616.747,1211.1 618.298,1211.1 619.85,1211.1 621.401,1211.1 622.953,1211.1 624.504,1211.1 
  626.055,1211.1 627.607,1211.1 629.158,1211.1 630.71,1211.1 632.261,1211.1 633.813,1211.1 635.364,1211.1 636.915,1211.1 638.467,1211.1 640.018,1211.1 
  641.57,1211.1 643.121,1211.1 644.672,1211.1 646.224,1211.1 647.775,1211.1 649.327,1211.1 650.878,1211.1 652.429,1211.1 653.981,1211.1 655.532,1211.1 
  657.084,1211.1 658.635,1211.1 660.186,1211.1 661.738,1211.1 663.289,1211.1 664.841,1211.1 666.392,1211.1 667.943,1211.1 669.495,1211.1 671.046,1211.1 
  672.598,1211.1 674.149,1211.1 675.701,1211.1 677.252,1211.1 678.803,1211.1 680.355,1211.1 681.906,1211.1 683.458,1211.1 685.009,1211.1 686.56,1211.1 
  688.112,1211.1 689.663,1211.1 691.215,1211.1 692.766,1211.1 694.317,1211.1 695.869,1211.1 697.42,1211.1 698.972,1211.1 700.523,1211.1 702.074,1211.1 
  703.626,1211.1 705.177,1211.1 706.729,1211.1 708.28,1211.1 709.831,1211.1 711.383,1211.1 712.934,1211.1 714.486,1211.1 716.037,1211.1 717.588,1211.1 
  719.14,1211.1 720.691,1211.1 722.243,1211.1 723.794,1211.1 725.346,1211.1 726.897,1211.1 728.448,1211.1 730,1211.1 731.551,1211.1 733.103,1211.1 
  734.654,1211.1 736.205,1211.1 737.757,1211.1 739.308,1211.1 740.86,1211.1 742.411,1211.1 743.962,1211.1 745.514,1211.1 747.065,1211.1 748.617,1211.1 
  750.168,1211.1 751.719,1211.1 753.271,1211.1 754.822,1211.1 756.374,1211.1 757.925,1211.1 759.476,1211.1 761.028,1211.1 762.579,1211.1 764.131,1211.1 
  765.682,1211.1 767.234,1211.1 768.785,1211.1 770.336,1211.1 771.888,1211.1 773.439,1211.1 774.991,1211.1 776.542,1211.1 778.093,1211.1 779.645,1211.1 
  781.196,1211.1 782.748,1211.1 784.299,1211.1 785.85,1211.1 787.402,1211.1 788.953,1211.1 790.505,1211.1 792.056,1211.1 793.607,1211.1 795.159,1211.1 
  796.71,1211.1 798.262,1211.1 799.813,1211.1 801.364,1211.1 802.916,1211.1 804.467,1211.1 806.019,1211.1 807.57,1211.1 809.122,1211.1 810.673,1211.1 
  812.224,1211.1 813.776,1211.1 815.327,1211.1 816.879,1211.1 818.43,1211.1 819.981,1211.1 821.533,1211.1 823.084,1211.1 824.636,1211.1 826.187,1211.1 
  827.738,1211.1 829.29,1211.1 830.841,1211.1 832.393,1211.1 833.944,1211.1 835.495,1211.1 837.047,1211.1 838.598,1211.1 840.15,1211.1 841.701,1211.1 
  843.252,1211.1 844.804,1211.1 846.355,1211.1 847.907,1211.1 849.458,1211.1 851.009,1211.1 852.561,1211.1 854.112,1211.1 855.664,1211.1 857.215,1211.1 
  858.767,1211.1 860.318,1211.1 861.869,1211.1 863.421,1211.1 864.972,1211.1 866.524,1211.1 868.075,1211.1 869.626,1211.1 871.178,1211.1 872.729,1211.1 
  874.281,1211.1 875.832,1211.1 877.383,1211.1 878.935,1211.1 880.486,1211.1 882.038,1211.1 883.589,1211.1 885.14,1211.1 886.692,1211.1 888.243,1211.1 
  889.795,1211.1 891.346,1211.1 892.897,1211.1 894.449,1211.1 896,1211.1 897.552,1211.1 899.103,1211.1 900.655,1211.1 902.206,1211.1 903.757,1211.1 
  905.309,1211.1 906.86,1211.1 908.412,1211.1 909.963,1211.1 911.514,1211.1 913.066,1211.1 914.617,1211.1 916.169,1211.1 917.72,1211.1 919.271,1211.1 
  920.823,1211.1 922.374,1211.1 923.926,1211.1 925.477,1211.1 927.028,1211.1 928.58,1211.1 930.131,1211.1 931.683,1211.1 933.234,1211.1 934.785,1211.1 
  936.337,1211.1 937.888,1211.1 939.44,1211.1 940.991,1211.1 942.543,1211.1 944.094,1211.1 945.645,1211.1 947.197,1211.1 948.748,1211.1 950.3,1211.1 
  951.851,1211.1 953.402,1211.1 954.954,1211.1 956.505,1211.1 958.057,1211.1 959.608,1211.1 961.159,1211.1 962.711,1211.1 964.262,1211.1 965.814,1211.1 
  967.365,1211.1 968.916,1211.1 970.468,1211.1 972.019,1211.1 973.571,1211.1 975.122,1211.1 976.673,1211.1 978.225,1211.1 979.776,1211.1 981.328,1211.1 
  982.879,1211.1 984.43,1211.1 985.982,1211.1 987.533,1211.1 989.085,1211.1 990.636,1211.1 992.188,1211.1 993.739,1211.1 995.29,1211.1 996.842,1211.1 
  998.393,1211.1 999.945,1211.1 1001.5,1211.1 1003.05,1211.1 1004.6,1211.1 1006.15,1211.1 1007.7,1211.1 1009.25,1211.1 1010.8,1211.1 1012.36,1211.1 
  1013.91,1211.1 1015.46,1211.1 1017.01,1211.1 1018.56,1211.1 1020.11,1211.1 1021.66,1211.1 1023.22,1211.1 1024.77,1211.1 1026.32,1211.1 1027.87,1211.1 
  1029.42,1211.1 1030.97,1211.1 1032.52,1211.1 1034.08,1211.1 1035.63,1211.1 1037.18,1211.1 1038.73,1211.1 1040.28,1211.1 1041.83,1211.1 1043.38,1211.1 
  1044.94,1211.1 1046.49,1211.1 1048.04,1211.1 1049.59,1211.1 1051.14,1211.1 1052.69,1211.1 1054.24,1211.1 1055.8,1211.1 1057.35,1211.1 1058.9,1211.1 
  1060.45,1211.1 1062,1211.1 1063.55,1211.1 1065.1,1211.1 1066.66,1211.1 1068.21,1211.1 1069.76,1211.1 1071.31,1211.1 1072.86,1211.1 1074.41,1211.1 
  1075.96,1211.1 1077.51,1211.1 1079.07,1211.1 1080.62,1211.1 1082.17,1211.1 1083.72,1211.1 1085.27,1211.1 1086.82,1211.1 1088.37,1211.1 1089.93,1211.1 
  1091.48,1211.1 1093.03,1211.1 1094.58,1211.1 1096.13,1211.1 1097.68,1211.1 1099.23,1211.1 1100.79,1211.1 1102.34,1211.1 1103.89,1211.1 1105.44,1211.1 
  1106.99,1211.1 1108.54,1211.1 1110.09,1211.1 1111.65,1211.1 1113.2,1211.1 1114.75,1211.1 1116.3,1211.1 1117.85,1211.1 1119.4,1211.1 1120.95,1211.1 
  1122.51,1211.1 1124.06,1211.1 1125.61,1211.1 1127.16,1211.1 1128.71,1211.1 1130.26,1211.1 1131.81,1211.1 1133.37,1211.1 1134.92,1211.1 1136.47,1211.1 
  1138.02,1211.1 1139.57,1211.1 1141.12,1211.1 1142.67,1211.1 1144.23,1211.1 1145.78,1211.1 1147.33,1211.1 1148.88,1211.1 1150.43,1211.1 1151.98,1211.1 
  1153.53,1211.1 1155.09,1211.1 1156.64,1211.1 1158.19,1211.1 1159.74,1211.1 1161.29,1211.1 1162.84,1211.1 1164.39,1211.1 1165.95,1211.1 1167.5,1211.1 
  1169.05,1211.1 1170.6,1211.1 1172.15,1211.1 1173.7,1211.1 1175.25,1211.1 1176.8,1211.1 1178.36,1211.1 1179.91,1211.1 1181.46,1211.1 1183.01,1211.1 
  1184.56,1211.1 1186.11,1211.1 1187.66,1211.1 1189.22,1211.1 1190.77,1211.1 1192.32,1211.1 1193.87,1211.1 1195.42,1211.1 1196.97,1211.09 1198.52,1211.08 
  1200.08,1211.07 1201.63,1211.05 1203.18,1211 1204.73,1210.94 1206.28,1210.83 1207.83,1210.65 1209.38,1210.37 1210.94,1209.94 1212.49,1209.27 1214.04,1208.27 
  1215.59,1206.79 1217.14,1204.64 1218.69,1201.56 1220.24,1197.22 1221.8,1191.23 1223.35,1183.09 1224.9,1172.22 1226.45,1157.96 1228,1139.58 1229.55,1116.33 
  1231.1,1087.46 1232.66,1052.27 1234.21,1010.2 1235.76,960.893 1237.31,904.276 1238.86,840.632 1240.41,770.663 1241.96,695.529 1243.52,616.856 1245.07,536.707 
  1246.62,457.514 1248.17,381.967 1249.72,312.87 1251.27,252.975 1252.82,204.798 1254.38,170.446 1255.93,151.465 1257.48,148.726 1259.03,162.353 1260.58,191.722 
  1262.13,235.5 1263.68,291.752 1265.24,358.079 1266.79,431.789 1268.34,510.074 1269.89,590.19 1271.44,669.604 1272.99,746.121 1274.54,817.964 1276.09,883.817 
  1277.65,942.827 1279.2,994.578 1280.75,1039.03 1282.3,1076.46 1283.85,1107.37 1285.4,1132.41 1286.95,1152.32 1288.51,1167.87 1290.06,1179.8 1291.61,1188.78 
  1293.16,1195.43 1294.71,1200.27 1296.26,1203.73 1297.81,1206.16 1299.37,1207.84 1300.92,1208.98 1302.47,1209.75 1304.02,1210.25 1305.57,1210.57 1307.12,1210.78 
  1308.67,1210.91 1310.23,1210.99 1311.78,1211.03 1313.33,1211.06 1314.88,1211.08 1316.43,1211.09 1317.98,1211.09 1319.53,1211.1 1321.09,1211.1 1322.64,1211.1 
  1324.19,1211.1 1325.74,1211.1 1327.29,1211.1 1328.84,1211.1 1330.39,1211.1 1331.95,1211.1 1333.5,1211.1 1335.05,1211.1 1336.6,1211.1 1338.15,1211.1 
  1339.7,1211.1 1341.25,1211.1 1342.81,1211.1 1344.36,1211.1 1345.91,1211.1 1347.46,1211.1 1349.01,1211.1 1350.56,1211.1 1352.11,1211.1 1353.67,1211.1 
  1355.22,1211.1 1356.77,1211.1 1358.32,1211.1 1359.87,1211.1 1361.42,1211.1 1362.97,1211.1 1364.53,1211.1 1366.08,1211.1 1367.63,1211.1 1369.18,1211.1 
  1370.73,1211.1 1372.28,1211.1 1373.83,1211.1 1375.39,1211.1 1376.94,1211.1 1378.49,1211.1 1380.04,1211.1 1381.59,1211.1 1383.14,1211.1 1384.69,1211.1 
  1386.24,1211.1 1387.8,1211.1 1389.35,1211.1 1390.9,1211.1 1392.45,1211.1 1394,1211.1 1395.55,1211.1 1397.1,1211.1 1398.66,1211.1 1400.21,1211.1 
  1401.76,1211.1 1403.31,1211.1 1404.86,1211.1 1406.41,1211.1 1407.96,1211.1 1409.52,1211.1 1411.07,1211.1 1412.62,1211.1 1414.17,1211.1 1415.72,1211.1 
  1417.27,1211.1 1418.82,1211.1 1420.38,1211.1 1421.93,1211.1 1423.48,1211.1 1425.03,1211.1 1426.58,1211.1 1428.13,1211.1 1429.68,1211.1 1431.24,1211.1 
  1432.79,1211.1 1434.34,1211.1 1435.89,1211.1 1437.44,1211.1 1438.99,1211.1 1440.54,1211.1 1442.1,1211.1 1443.65,1211.1 1445.2,1211.1 1446.75,1211.1 
  1448.3,1211.1 1449.85,1211.1 1451.4,1211.1 1452.96,1211.1 1454.51,1211.1 1456.06,1211.1 1457.61,1211.1 1459.16,1211.1 1460.71,1211.1 1462.26,1211.1 
  1463.82,1211.1 1465.37,1211.1 1466.92,1211.1 1468.47,1211.1 1470.02,1211.1 1471.57,1211.1 1473.12,1211.1 1474.68,1211.1 1476.23,1211.1 1477.78,1211.1 
  1479.33,1211.1 1480.88,1211.1 1482.43,1211.1 1483.98,1211.1 1485.53,1211.1 1487.09,1211.1 1488.64,1211.1 1490.19,1211.1 1491.74,1211.1 1493.29,1211.1 
  1494.84,1211.1 1496.39,1211.1 1497.95,1211.1 1499.5,1211.1 1501.05,1211.1 1502.6,1211.1 1504.15,1211.1 1505.7,1211.1 1507.25,1211.1 1508.81,1211.1 
  1510.36,1211.1 1511.91,1211.1 1513.46,1211.1 1515.01,1211.1 1516.56,1211.1 1518.11,1211.1 1519.67,1211.1 1521.22,1211.1 1522.77,1211.1 1524.32,1211.1 
  1525.87,1211.1 1527.42,1211.1 1528.97,1211.1 1530.53,1211.1 1532.08,1211.1 1533.63,1211.1 1535.18,1211.1 1536.73,1211.1 1538.28,1211.1 1539.83,1211.1 
  1541.39,1211.1 1542.94,1211.1 1544.49,1211.1 1546.04,1211.1 1547.59,1211.1 1549.14,1211.1 1550.69,1211.1 1552.25,1211.1 1553.8,1211.1 1555.35,1211.1 
  1556.9,1211.1 1558.45,1211.1 1560,1211.1 1561.55,1211.1 1563.11,1211.1 1564.66,1211.1 1566.21,1211.1 1567.76,1211.1 1569.31,1211.1 1570.86,1211.1 
  1572.41,1211.1 1573.97,1211.1 1575.52,1211.1 1577.07,1211.1 1578.62,1211.1 1580.17,1211.1 1581.72,1211.1 1583.27,1211.1 1584.82,1211.1 1586.38,1211.1 
  1587.93,1211.1 1589.48,1211.1 1591.03,1211.1 1592.58,1211.1 1594.13,1211.1 1595.68,1211.1 1597.24,1211.1 1598.79,1211.1 1600.34,1211.1 1601.89,1211.1 
  1603.44,1211.1 1604.99,1211.1 1606.54,1211.1 1608.1,1211.1 1609.65,1211.1 1611.2,1211.1 1612.75,1211.1 1614.3,1211.1 1615.85,1211.1 1617.4,1211.1 
  1618.96,1211.1 1620.51,1211.1 1622.06,1211.1 1623.61,1211.1 1625.16,1211.1 1626.71,1211.1 1628.26,1211.1 1629.82,1211.1 1631.37,1211.1 1632.92,1211.1 
  1634.47,1211.1 1636.02,1211.1 1637.57,1211.1 1639.12,1211.1 1640.68,1211.1 1642.23,1211.1 1643.78,1211.1 1645.33,1211.1 1646.88,1211.1 1648.43,1211.1 
  1649.98,1211.1 1651.54,1211.1 1653.09,1211.1 1654.64,1211.1 1656.19,1211.1 1657.74,1211.1 1659.29,1211.1 1660.84,1211.1 1662.4,1211.1 1663.95,1211.1 
  1665.5,1211.1 1667.05,1211.1 1668.6,1211.1 1670.15,1211.1 1671.7,1211.1 1673.26,1211.1 1674.81,1211.1 1676.36,1211.1 1677.91,1211.1 1679.46,1211.1 
  1681.01,1211.1 1682.56,1211.1 1684.12,1211.1 1685.67,1211.1 1687.22,1211.1 1688.77,1211.1 1690.32,1211.1 1691.87,1211.1 1693.42,1211.1 1694.97,1211.1 
  1696.53,1211.1 1698.08,1211.1 1699.63,1211.1 1701.18,1211.1 1702.73,1211.1 1704.28,1211.1 1705.83,1211.1 1707.39,1211.1 1708.94,1211.1 1710.49,1211.1 
  1712.04,1211.1 1713.59,1211.1 1715.14,1211.1 1716.69,1211.1 1718.25,1211.1 1719.8,1211.1 1721.35,1211.1 1722.9,1211.1 1724.45,1211.1 1726,1211.1 
  1727.55,1211.1 1729.11,1211.1 1730.66,1211.1 1732.21,1211.1 1733.76,1211.1 1735.31,1211.1 1736.86,1211.1 1738.41,1211.1 1739.97,1211.1 1741.52,1211.1 
  1743.07,1211.1 1744.62,1211.1 1746.17,1211.1 1747.72,1211.1 1749.27,1211.1 1750.83,1211.1 1752.38,1211.1 1753.93,1211.1 1755.48,1211.1 1757.03,1211.1 
  1758.58,1211.1 1760.13,1211.1 1761.69,1211.1 1763.24,1211.1 1764.79,1211.1 1766.34,1211.1 1767.89,1211.1 1769.44,1211.1 1770.99,1211.1 1772.55,1211.1 
  1774.1,1211.1 1775.65,1211.1 1777.2,1211.1 1778.75,1211.1 1780.3,1211.1 1781.85,1211.1 1783.41,1211.1 1784.96,1211.1 1786.51,1211.1 1788.06,1211.1 
  1789.61,1211.1 1791.16,1211.1 1792.71,1211.1 1794.26,1211.1 1795.82,1211.1 1797.37,1211.1 1798.92,1211.1 1800.47,1211.1 1802.02,1211.1 1803.57,1211.1 
  1805.12,1211.1 1806.68,1211.1 1808.23,1211.1 1809.78,1211.1 1811.33,1211.1 1812.88,1211.1 1814.43,1211.1 1815.98,1211.1 1817.54,1211.1 1819.09,1211.1 
  1820.64,1211.1 1822.19,1211.1 1823.74,1211.1 1825.29,1211.1 1826.84,1211.1 1828.4,1211.1 1829.95,1211.1 1831.5,1211.1 1833.05,1211.1 1834.6,1211.1 
  1836.15,1211.1 1837.7,1211.1 1839.26,1211.1 1840.81,1211.1 1842.36,1211.1 1843.91,1211.1 1845.46,1211.1 1847.01,1211.1 1848.56,1211.1 1850.12,1211.1 
  1851.67,1211.1 1853.22,1211.1 1854.77,1211.1 1856.32,1211.1 1857.87,1211.1 1859.42,1211.1 1860.98,1211.1 1862.53,1211.1 1864.08,1211.1 1865.63,1211.1 
  1867.18,1211.1 1868.73,1211.1 1870.28,1211.1 1871.84,1211.1 1873.39,1211.1 1874.94,1211.1 1876.49,1211.1 1878.04,1211.1 1879.59,1211.1 1881.14,1211.1 
  1882.7,1211.1 1884.25,1211.1 1885.8,1211.1 1887.35,1211.1 1888.9,1211.1 1890.45,1211.1 1892,1211.1 1893.55,1211.1 1895.11,1211.1 1896.66,1211.1 
  1898.21,1211.1 1899.76,1211.1 1901.31,1211.1 1902.86,1211.1 1904.41,1211.1 1905.97,1211.1 1907.52,1211.1 1909.07,1211.1 1910.62,1211.1 1912.17,1211.1 
  1913.72,1211.1 1915.27,1211.1 1916.83,1211.1 1918.38,1211.1 1919.93,1211.1 1921.48,1211.1 1923.03,1211.1 1924.58,1211.1 1926.13,1211.1 1927.69,1211.1 
  1929.24,1211.1 1930.79,1211.1 1932.34,1211.1 1933.89,1211.1 1935.44,1211.1 1936.99,1211.1 1938.55,1211.1 1940.1,1211.1 1941.65,1211.1 1943.2,1211.1 
  1944.75,1211.1 1946.3,1211.1 1947.85,1211.1 1949.41,1211.1 1950.96,1211.1 1952.51,1211.1 1954.06,1211.1 1955.61,1211.1 1957.16,1211.1 1958.71,1211.1 
  1960.27,1211.1 1961.82,1211.1 1963.37,1211.1 1964.92,1211.1 1966.47,1211.1 1968.02,1211.1 1969.57,1211.1 1971.13,1211.1 1972.68,1211.1 1974.23,1211.1 
  1975.78,1211.1 1977.33,1211.1 1978.88,1211.1 1980.43,1211.1 1981.99,1211.1 1983.54,1211.1 1985.09,1211.1 1986.64,1211.1 1988.19,1211.1 1989.74,1211.1 
  1991.29,1211.1 1992.85,1211.1 1994.4,1211.1 1995.95,1211.1 1997.5,1211.1 1999.05,1211.1 2000.6,1211.1 2002.15,1211.1 2003.7,1211.1 2005.26,1211.1 
  2006.81,1211.1 2008.36,1211.1 2009.91,1211.1 2011.46,1211.1 2013.01,1211.1 2014.56,1211.1 2016.12,1211.1 2017.67,1211.1 2019.22,1211.1 2020.77,1211.1 
  2022.32,1211.1 2023.87,1211.1 2025.42,1211.1 2026.98,1211.1 2028.53,1211.1 2030.08,1211.1 2031.63,1211.1 2033.18,1211.1 2034.73,1211.1 2036.28,1211.1 
  2037.84,1211.1 2039.39,1211.1 2040.94,1211.1 2042.49,1211.1 2044.04,1211.1 2045.59,1211.1 2047.14,1211.1 2048.7,1211.1 2050.25,1211.1 2051.8,1211.1 
  2053.35,1211.1 2054.9,1211.1 2056.45,1211.1 2058,1211.1 2059.56,1211.1 2061.11,1211.1 2062.66,1211.1 2064.21,1211.1 2065.76,1211.1 2067.31,1211.1 
  2068.86,1211.1 2070.42,1211.1 2071.97,1211.1 2073.52,1211.1 2075.07,1211.1 2076.62,1211.1 2078.17,1211.1 2079.72,1211.1 2081.28,1211.1 2082.83,1211.1 
  2084.38,1211.1 2085.93,1211.1 2087.48,1211.1 2089.03,1211.1 2090.58,1211.1 2092.14,1211.1 2093.69,1211.1 2095.24,1211.1 2096.79,1211.1 2098.34,1211.1 
  2099.89,1211.1 2101.44,1211.1 2102.99,1211.1 2104.55,1211.1 2106.1,1211.1 2107.65,1211.1 2109.2,1211.1 2110.75,1211.1 2112.3,1211.1 2113.85,1211.1 
  2115.41,1211.1 2116.96,1211.1 2118.51,1211.1 2120.06,1211.1 2121.61,1211.1 2123.16,1211.1 2124.71,1211.1 2126.27,1211.1 2127.82,1211.1 2129.37,1211.1 
  2130.92,1211.1 2132.47,1211.1 2134.02,1211.1 2135.57,1211.1 2137.13,1211.1 2138.68,1211.1 2140.23,1211.1 2141.78,1211.1 2143.33,1211.1 2144.88,1211.1 
  2146.43,1211.1 2147.99,1211.1 2149.54,1211.1 2151.09,1211.1 2152.64,1211.1 2154.19,1211.1 2155.74,1211.1 2157.29,1211.1 2158.85,1211.1 2160.4,1211.1 
  2161.95,1211.1 2163.5,1211.1 2165.05,1211.1 2166.6,1211.1 2168.15,1211.1 2169.71,1211.1 2171.26,1211.1 2172.81,1211.1 2174.36,1211.1 2175.91,1211.1 
  2177.46,1211.1 2179.01,1211.1 2180.57,1211.1 2182.12,1211.1 2183.67,1211.1 2185.22,1211.1 2186.77,1211.1 2188.32,1211.1 2189.87,1211.1 2191.43,1211.1 
  2192.98,1211.1 2194.53,1211.1 2196.08,1211.1 2197.63,1211.1 2199.18,1211.1 2200.73,1211.1 2202.28,1211.1 2203.84,1211.1 2205.39,1211.1 2206.94,1211.1 
  2208.49,1211.1 2210.04,1211.1 2211.59,1211.1 2213.14,1211.1 2214.7,1211.1 2216.25,1211.1 2217.8,1211.1 2219.35,1211.1 2220.9,1211.1 2222.45,1211.1 
  2224,1211.1 2225.56,1211.1 2227.11,1211.1 2228.66,1211.1 2230.21,1211.1 2231.76,1211.1 2233.31,1211.1 2234.86,1211.1 2236.42,1211.1 2237.97,1211.1 
  2239.52,1211.1 2241.07,1211.1 2242.62,1211.1 2244.17,1211.1 2245.72,1211.1 2247.28,1211.1 2248.83,1211.1 2250.38,1211.1 2251.93,1211.1 2253.48,1211.1 
  2255.03,1211.1 2256.58,1211.1 2258.14,1211.1 2259.69,1211.1 2261.24,1211.1 2262.79,1211.1 2264.34,1211.1 2265.89,1211.1 2267.44,1211.1 2269,1211.1 
  2270.55,1211.1 2272.1,1211.1 2273.65,1211.1 2275.2,1211.1 2276.75,1211.1 2278.3,1211.1 2279.86,1211.1 2281.41,1211.1 2282.96,1211.1 2284.51,1211.1 
  2286.06,1211.1 2287.61,1211.1 2289.16,1211.1 2290.72,1211.1 
  "/>
<circle clip-path="url(#clip672)" cx="1256.96" cy="147.811" r="14" fill="#e26f46" fill-rule="evenodd" fill-opacity="1" stroke="#ffffff" stroke-opacity="1" stroke-width="2.8"/>
<path clip-path="url(#clip670)" d="
M1460.77 274.442 L2279.69 274.442 L2279.69 153.482 L1460.77 153.482  Z
  " fill="#a9a9a9" fill-rule="evenodd" fill-opacity="1"/>
<polyline clip-path="url(#clip670)" style="stroke:#ffffff; stroke-linecap:butt; stroke-linejoin:round; stroke-width:4; stroke-opacity:1; fill:none" points="
  1460.77,274.442 2279.69,274.442 2279.69,153.482 1460.77,153.482 1460.77,274.442 
  "/>
<circle clip-path="url(#clip670)" cx="1558.2" cy="213.962" r="23" fill="#e26f46" fill-rule="evenodd" fill-opacity="1" stroke="#ffffff" stroke-opacity="1" stroke-width="4.48"/>
<path clip-path="url(#clip670)" d="M1655.63 196.682 L1662.6 196.682 L1671.41 220.2 L1680.28 196.682 L1687.25 196.682 L1687.25 231.242 L1682.69 231.242 L1682.69 200.895 L1673.78 224.598 L1669.08 224.598 L1660.17 200.895 L1660.17 231.242 L1655.63 231.242 L1655.63 196.682 Z" fill="#ffffff" fill-rule="evenodd" fill-opacity="1" /><path clip-path="url(#clip670)" d="M1708.13 218.209 Q1702.97 218.209 1700.98 219.39 Q1698.98 220.57 1698.98 223.418 Q1698.98 225.686 1700.47 227.029 Q1701.97 228.348 1704.54 228.348 Q1708.08 228.348 1710.21 225.848 Q1712.36 223.325 1712.36 219.158 L1712.36 218.209 L1708.13 218.209 M1716.62 216.45 L1716.62 231.242 L1712.36 231.242 L1712.36 227.307 Q1710.91 229.668 1708.73 230.802 Q1706.55 231.913 1703.41 231.913 Q1699.42 231.913 1697.06 229.691 Q1694.73 227.445 1694.73 223.695 Q1694.73 219.32 1697.64 217.098 Q1700.58 214.876 1706.39 214.876 L1712.36 214.876 L1712.36 214.459 Q1712.36 211.52 1710.42 209.922 Q1708.5 208.302 1705 208.302 Q1702.78 208.302 1700.67 208.834 Q1698.57 209.367 1696.62 210.432 L1696.62 206.496 Q1698.96 205.594 1701.16 205.154 Q1703.36 204.691 1705.44 204.691 Q1711.07 204.691 1713.85 207.608 Q1716.62 210.524 1716.62 216.45 Z" fill="#ffffff" fill-rule="evenodd" fill-opacity="1" /><path clip-path="url(#clip670)" d="M1746.95 205.316 L1737.57 217.932 L1747.43 231.242 L1742.41 231.242 L1734.86 221.057 L1727.32 231.242 L1722.29 231.242 L1732.36 217.677 L1723.15 205.316 L1728.17 205.316 L1735.05 214.552 L1741.92 205.316 L1746.95 205.316 Z" fill="#ffffff" fill-rule="evenodd" fill-opacity="1" /><path clip-path="url(#clip670)" d="M1753.45 205.316 L1757.71 205.316 L1757.71 231.242 L1753.45 231.242 L1753.45 205.316 M1753.45 195.223 L1757.71 195.223 L1757.71 200.617 L1753.45 200.617 L1753.45 195.223 Z" fill="#ffffff" fill-rule="evenodd" fill-opacity="1" /><path clip-path="url(#clip670)" d="M1786.81 210.293 Q1788.41 207.422 1790.63 206.057 Q1792.85 204.691 1795.86 204.691 Q1799.91 204.691 1802.11 207.538 Q1804.31 210.362 1804.31 215.594 L1804.31 231.242 L1800.03 231.242 L1800.03 215.733 Q1800.03 212.006 1798.71 210.2 Q1797.39 208.395 1794.68 208.395 Q1791.37 208.395 1789.45 210.594 Q1787.53 212.793 1787.53 216.589 L1787.53 231.242 L1783.24 231.242 L1783.24 215.733 Q1783.24 211.983 1781.92 210.2 Q1780.6 208.395 1777.85 208.395 Q1774.59 208.395 1772.66 210.617 Q1770.74 212.816 1770.74 216.589 L1770.74 231.242 L1766.46 231.242 L1766.46 205.316 L1770.74 205.316 L1770.74 209.344 Q1772.2 206.959 1774.24 205.825 Q1776.28 204.691 1779.08 204.691 Q1781.9 204.691 1783.87 206.126 Q1785.86 207.561 1786.81 210.293 Z" fill="#ffffff" fill-rule="evenodd" fill-opacity="1" /><path clip-path="url(#clip670)" d="M1812.36 221.01 L1812.36 205.316 L1816.62 205.316 L1816.62 220.848 Q1816.62 224.529 1818.06 226.381 Q1819.49 228.209 1822.36 228.209 Q1825.81 228.209 1827.8 226.01 Q1829.82 223.811 1829.82 220.015 L1829.82 205.316 L1834.08 205.316 L1834.08 231.242 L1829.82 231.242 L1829.82 227.26 Q1828.27 229.621 1826.21 230.779 Q1824.17 231.913 1821.46 231.913 Q1816.99 231.913 1814.68 229.135 Q1812.36 226.357 1812.36 221.01 M1823.08 204.691 L1823.08 204.691 Z" fill="#ffffff" fill-rule="evenodd" fill-opacity="1" /><path clip-path="url(#clip670)" d="M1863.03 210.293 Q1864.63 207.422 1866.85 206.057 Q1869.08 204.691 1872.09 204.691 Q1876.14 204.691 1878.34 207.538 Q1880.53 210.362 1880.53 215.594 L1880.53 231.242 L1876.25 231.242 L1876.25 215.733 Q1876.25 212.006 1874.93 210.2 Q1873.61 208.395 1870.9 208.395 Q1867.59 208.395 1865.67 210.594 Q1863.75 212.793 1863.75 216.589 L1863.75 231.242 L1859.47 231.242 L1859.47 215.733 Q1859.47 211.983 1858.15 210.2 Q1856.83 208.395 1854.08 208.395 Q1850.81 208.395 1848.89 210.617 Q1846.97 212.816 1846.97 216.589 L1846.97 231.242 L1842.69 231.242 L1842.69 205.316 L1846.97 205.316 L1846.97 209.344 Q1848.43 206.959 1850.46 205.825 Q1852.5 204.691 1855.3 204.691 Q1858.13 204.691 1860.09 206.126 Q1862.09 207.561 1863.03 210.293 Z" fill="#ffffff" fill-rule="evenodd" fill-opacity="1" /><path clip-path="url(#clip670)" d="M1930.16 199.344 L1930.16 204.274 Q1927.8 202.075 1925.12 200.987 Q1922.46 199.899 1919.45 199.899 Q1913.52 199.899 1910.37 203.534 Q1907.22 207.145 1907.22 213.996 Q1907.22 220.825 1910.37 224.459 Q1913.52 228.07 1919.45 228.07 Q1922.46 228.07 1925.12 226.982 Q1927.8 225.895 1930.16 223.695 L1930.16 228.58 Q1927.71 230.246 1924.96 231.08 Q1922.22 231.913 1919.17 231.913 Q1911.32 231.913 1906.81 227.121 Q1902.29 222.307 1902.29 213.996 Q1902.29 205.663 1906.81 200.872 Q1911.32 196.057 1919.17 196.057 Q1922.27 196.057 1925 196.89 Q1927.76 197.7 1930.16 199.344 Z" fill="#ffffff" fill-rule="evenodd" fill-opacity="1" /><path clip-path="url(#clip670)" d="M1947.25 208.302 Q1943.82 208.302 1941.83 210.987 Q1939.84 213.649 1939.84 218.302 Q1939.84 222.955 1941.81 225.64 Q1943.8 228.302 1947.25 228.302 Q1950.65 228.302 1952.64 225.617 Q1954.63 222.932 1954.63 218.302 Q1954.63 213.696 1952.64 211.01 Q1950.65 208.302 1947.25 208.302 M1947.25 204.691 Q1952.8 204.691 1955.97 208.302 Q1959.14 211.913 1959.14 218.302 Q1959.14 224.668 1955.97 228.302 Q1952.8 231.913 1947.25 231.913 Q1941.67 231.913 1938.5 228.302 Q1935.35 224.668 1935.35 218.302 Q1935.35 211.913 1938.5 208.302 Q1941.67 204.691 1947.25 204.691 Z" fill="#ffffff" fill-rule="evenodd" fill-opacity="1" /><path clip-path="url(#clip670)" d="M1987.76 215.594 L1987.76 231.242 L1983.5 231.242 L1983.5 215.733 Q1983.5 212.052 1982.06 210.223 Q1980.63 208.395 1977.76 208.395 Q1974.31 208.395 1972.32 210.594 Q1970.33 212.793 1970.33 216.589 L1970.33 231.242 L1966.04 231.242 L1966.04 205.316 L1970.33 205.316 L1970.33 209.344 Q1971.85 207.006 1973.91 205.848 Q1976 204.691 1978.71 204.691 Q1983.17 204.691 1985.46 207.469 Q1987.76 210.223 1987.76 215.594 Z" fill="#ffffff" fill-rule="evenodd" fill-opacity="1" /><path clip-path="url(#clip670)" d="M2014.91 206.311 L2014.91 210.293 Q2013.1 209.297 2011.27 208.811 Q2009.47 208.302 2007.62 208.302 Q2003.47 208.302 2001.18 210.941 Q1998.89 213.557 1998.89 218.302 Q1998.89 223.047 2001.18 225.686 Q2003.47 228.302 2007.62 228.302 Q2009.47 228.302 2011.27 227.816 Q2013.1 227.307 2014.91 226.311 L2014.91 230.246 Q2013.13 231.08 2011.2 231.496 Q2009.31 231.913 2007.15 231.913 Q2001.3 231.913 1997.85 228.232 Q1994.4 224.552 1994.4 218.302 Q1994.4 211.959 1997.87 208.325 Q2001.37 204.691 2007.43 204.691 Q2009.4 204.691 2011.27 205.108 Q2013.15 205.501 2014.91 206.311 Z" fill="#ffffff" fill-rule="evenodd" fill-opacity="1" /><path clip-path="url(#clip670)" d="M2044.49 217.214 L2044.49 219.297 L2024.91 219.297 Q2025.19 223.695 2027.55 226.01 Q2029.93 228.302 2034.17 228.302 Q2036.62 228.302 2038.91 227.7 Q2041.23 227.098 2043.5 225.895 L2043.5 229.922 Q2041.2 230.894 2038.8 231.404 Q2036.39 231.913 2033.91 231.913 Q2027.71 231.913 2024.08 228.302 Q2020.46 224.691 2020.46 218.533 Q2020.46 212.168 2023.89 208.441 Q2027.34 204.691 2033.17 204.691 Q2038.4 204.691 2041.44 208.071 Q2044.49 211.427 2044.49 217.214 M2040.23 215.964 Q2040.19 212.469 2038.26 210.385 Q2036.37 208.302 2033.22 208.302 Q2029.65 208.302 2027.5 210.316 Q2025.37 212.33 2025.05 215.987 L2040.23 215.964 Z" fill="#ffffff" fill-rule="evenodd" fill-opacity="1" /><path clip-path="url(#clip670)" d="M2073.03 215.594 L2073.03 231.242 L2068.77 231.242 L2068.77 215.733 Q2068.77 212.052 2067.34 210.223 Q2065.9 208.395 2063.03 208.395 Q2059.58 208.395 2057.59 210.594 Q2055.6 212.793 2055.6 216.589 L2055.6 231.242 L2051.32 231.242 L2051.32 205.316 L2055.6 205.316 L2055.6 209.344 Q2057.13 207.006 2059.19 205.848 Q2061.27 204.691 2063.98 204.691 Q2068.45 204.691 2070.74 207.469 Q2073.03 210.223 2073.03 215.594 Z" fill="#ffffff" fill-rule="evenodd" fill-opacity="1" /><path clip-path="url(#clip670)" d="M2085.74 197.955 L2085.74 205.316 L2094.51 205.316 L2094.51 208.626 L2085.74 208.626 L2085.74 222.7 Q2085.74 225.871 2086.6 226.774 Q2087.48 227.677 2090.14 227.677 L2094.51 227.677 L2094.51 231.242 L2090.14 231.242 Q2085.21 231.242 2083.33 229.413 Q2081.46 227.561 2081.46 222.7 L2081.46 208.626 L2078.33 208.626 L2078.33 205.316 L2081.46 205.316 L2081.46 197.955 L2085.74 197.955 Z" fill="#ffffff" fill-rule="evenodd" fill-opacity="1" /><path clip-path="url(#clip670)" d="M2115.14 209.297 Q2114.42 208.881 2113.57 208.696 Q2112.73 208.487 2111.71 208.487 Q2108.1 208.487 2106.16 210.848 Q2104.24 213.186 2104.24 217.584 L2104.24 231.242 L2099.95 231.242 L2099.95 205.316 L2104.24 205.316 L2104.24 209.344 Q2105.58 206.983 2107.73 205.848 Q2109.88 204.691 2112.96 204.691 Q2113.4 204.691 2113.94 204.76 Q2114.47 204.807 2115.12 204.922 L2115.14 209.297 Z" fill="#ffffff" fill-rule="evenodd" fill-opacity="1" /><path clip-path="url(#clip670)" d="M2131.39 218.209 Q2126.23 218.209 2124.24 219.39 Q2122.25 220.57 2122.25 223.418 Q2122.25 225.686 2123.73 227.029 Q2125.23 228.348 2127.8 228.348 Q2131.34 228.348 2133.47 225.848 Q2135.63 223.325 2135.63 219.158 L2135.63 218.209 L2131.39 218.209 M2139.88 216.45 L2139.88 231.242 L2135.63 231.242 L2135.63 227.307 Q2134.17 229.668 2131.99 230.802 Q2129.82 231.913 2126.67 231.913 Q2122.69 231.913 2120.32 229.691 Q2117.99 227.445 2117.99 223.695 Q2117.99 219.32 2120.9 217.098 Q2123.84 214.876 2129.65 214.876 L2135.63 214.876 L2135.63 214.459 Q2135.63 211.52 2133.68 209.922 Q2131.76 208.302 2128.26 208.302 Q2126.04 208.302 2123.94 208.834 Q2121.83 209.367 2119.88 210.432 L2119.88 206.496 Q2122.22 205.594 2124.42 205.154 Q2126.62 204.691 2128.7 204.691 Q2134.33 204.691 2137.11 207.608 Q2139.88 210.524 2139.88 216.45 Z" fill="#ffffff" fill-rule="evenodd" fill-opacity="1" /><path clip-path="url(#clip670)" d="M2152.87 197.955 L2152.87 205.316 L2161.64 205.316 L2161.64 208.626 L2152.87 208.626 L2152.87 222.7 Q2152.87 225.871 2153.73 226.774 Q2154.61 227.677 2157.27 227.677 L2161.64 227.677 L2161.64 231.242 L2157.27 231.242 Q2152.34 231.242 2150.46 229.413 Q2148.59 227.561 2148.59 222.7 L2148.59 208.626 L2145.46 208.626 L2145.46 205.316 L2148.59 205.316 L2148.59 197.955 L2152.87 197.955 Z" fill="#ffffff" fill-rule="evenodd" fill-opacity="1" /><path clip-path="url(#clip670)" d="M2167.25 205.316 L2171.5 205.316 L2171.5 231.242 L2167.25 231.242 L2167.25 205.316 M2167.25 195.223 L2171.5 195.223 L2171.5 200.617 L2167.25 200.617 L2167.25 195.223 Z" fill="#ffffff" fill-rule="evenodd" fill-opacity="1" /><path clip-path="url(#clip670)" d="M2190.46 208.302 Q2187.04 208.302 2185.05 210.987 Q2183.06 213.649 2183.06 218.302 Q2183.06 222.955 2185.02 225.64 Q2187.01 228.302 2190.46 228.302 Q2193.87 228.302 2195.86 225.617 Q2197.85 222.932 2197.85 218.302 Q2197.85 213.696 2195.86 211.01 Q2193.87 208.302 2190.46 208.302 M2190.46 204.691 Q2196.02 204.691 2199.19 208.302 Q2202.36 211.913 2202.36 218.302 Q2202.36 224.668 2199.19 228.302 Q2196.02 231.913 2190.46 231.913 Q2184.88 231.913 2181.71 228.302 Q2178.57 224.668 2178.57 218.302 Q2178.57 211.913 2181.71 208.302 Q2184.88 204.691 2190.46 204.691 Z" fill="#ffffff" fill-rule="evenodd" fill-opacity="1" /><path clip-path="url(#clip670)" d="M2230.97 215.594 L2230.97 231.242 L2226.71 231.242 L2226.71 215.733 Q2226.71 212.052 2225.28 210.223 Q2223.84 208.395 2220.97 208.395 Q2217.52 208.395 2215.53 210.594 Q2213.54 212.793 2213.54 216.589 L2213.54 231.242 L2209.26 231.242 L2209.26 205.316 L2213.54 205.316 L2213.54 209.344 Q2215.07 207.006 2217.13 205.848 Q2219.21 204.691 2221.92 204.691 Q2226.39 204.691 2228.68 207.469 Q2230.97 210.223 2230.97 215.594 Z" fill="#ffffff" fill-rule="evenodd" fill-opacity="1" /></svg>
