<?xml version="1.0" encoding="utf-8"?>
<svg xmlns="http://www.w3.org/2000/svg" xmlns:xlink="http://www.w3.org/1999/xlink" width="600" height="400" viewBox="0 0 2400 1600">
<defs>
  <clipPath id="clip660">
    <rect x="0" y="0" width="2400" height="1600"/>
  </clipPath>
</defs>
<path clip-path="url(#clip660)" d="
M0 1600 L2400 1600 L2400 0 L0 0  Z
  " fill="#ffffff" fill-rule="evenodd" fill-opacity="1"/>
<defs>
  <clipPath id="clip661">
    <rect x="480" y="0" width="1681" height="1600"/>
  </clipPath>
</defs>
<path clip-path="url(#clip660)" d="
M238.13 1423.18 L2352.76 1423.18 L2352.76 123.472 L238.13 123.472  Z
  " fill="#ffffff" fill-rule="evenodd" fill-opacity="1"/>
<defs>
  <clipPath id="clip662">
    <rect x="238" y="123" width="2116" height="1301"/>
  </clipPath>
</defs>
<polyline clip-path="url(#clip662)" style="stroke:#000000; stroke-width:2; stroke-opacity:0.1; fill:none" points="
  297.978,1423.18 297.978,123.472 
  "/>
<polyline clip-path="url(#clip662)" style="stroke:#000000; stroke-width:2; stroke-opacity:0.1; fill:none" points="
  901.891,1423.18 901.891,123.472 
  "/>
<polyline clip-path="url(#clip662)" style="stroke:#000000; stroke-width:2; stroke-opacity:0.1; fill:none" points="
  1505.8,1423.18 1505.8,123.472 
  "/>
<polyline clip-path="url(#clip662)" style="stroke:#000000; stroke-width:2; stroke-opacity:0.1; fill:none" points="
  2109.72,1423.18 2109.72,123.472 
  "/>
<polyline clip-path="url(#clip660)" style="stroke:#000000; stroke-width:4; stroke-opacity:1; fill:none" points="
  238.13,1423.18 2352.76,1423.18 
  "/>
<polyline clip-path="url(#clip660)" style="stroke:#000000; stroke-width:4; stroke-opacity:1; fill:none" points="
  297.978,1423.18 297.978,1407.58 
  "/>
<polyline clip-path="url(#clip660)" style="stroke:#000000; stroke-width:4; stroke-opacity:1; fill:none" points="
  901.891,1423.18 901.891,1407.58 
  "/>
<polyline clip-path="url(#clip660)" style="stroke:#000000; stroke-width:4; stroke-opacity:1; fill:none" points="
  1505.8,1423.18 1505.8,1407.58 
  "/>
<polyline clip-path="url(#clip660)" style="stroke:#000000; stroke-width:4; stroke-opacity:1; fill:none" points="
  2109.72,1423.18 2109.72,1407.58 
  "/>
<path clip-path="url(#clip660)" d="M 0 0 M297.978 1452.37 Q294.367 1452.37 292.538 1455.94 Q290.733 1459.48 290.733 1466.61 Q290.733 1473.71 292.538 1477.28 Q294.367 1480.82 297.978 1480.82 Q301.612 1480.82 303.418 1477.28 Q305.246 1473.71 305.246 1466.61 Q305.246 1459.48 303.418 1455.94 Q301.612 1452.37 297.978 1452.37 M297.978 1448.67 Q303.788 1448.67 306.844 1453.27 Q309.922 1457.86 309.922 1466.61 Q309.922 1475.33 306.844 1479.94 Q303.788 1484.52 297.978 1484.52 Q292.168 1484.52 289.089 1479.94 Q286.034 1475.33 286.034 1466.61 Q286.034 1457.86 289.089 1453.27 Q292.168 1448.67 297.978 1448.67 Z" fill="#000000" fill-rule="evenodd" fill-opacity="1" /><path clip-path="url(#clip660)" d="M 0 0 M865.259 1479.92 L872.898 1479.92 L872.898 1453.55 L864.588 1455.22 L864.588 1450.96 L872.852 1449.29 L877.528 1449.29 L877.528 1479.92 L885.167 1479.92 L885.167 1483.85 L865.259 1483.85 L865.259 1479.92 Z" fill="#000000" fill-rule="evenodd" fill-opacity="1" /><path clip-path="url(#clip660)" d="M 0 0 M900.236 1452.37 Q896.625 1452.37 894.796 1455.94 Q892.991 1459.48 892.991 1466.61 Q892.991 1473.71 894.796 1477.28 Q896.625 1480.82 900.236 1480.82 Q903.87 1480.82 905.676 1477.28 Q907.504 1473.71 907.504 1466.61 Q907.504 1459.48 905.676 1455.94 Q903.87 1452.37 900.236 1452.37 M900.236 1448.67 Q906.046 1448.67 909.102 1453.27 Q912.18 1457.86 912.18 1466.61 Q912.18 1475.33 909.102 1479.94 Q906.046 1484.52 900.236 1484.52 Q894.426 1484.52 891.347 1479.94 Q888.292 1475.33 888.292 1466.61 Q888.292 1457.86 891.347 1453.27 Q894.426 1448.67 900.236 1448.67 Z" fill="#000000" fill-rule="evenodd" fill-opacity="1" /><path clip-path="url(#clip660)" d="M 0 0 M927.25 1452.37 Q923.639 1452.37 921.81 1455.94 Q920.004 1459.48 920.004 1466.61 Q920.004 1473.71 921.81 1477.28 Q923.639 1480.82 927.25 1480.82 Q930.884 1480.82 932.689 1477.28 Q934.518 1473.71 934.518 1466.61 Q934.518 1459.48 932.689 1455.94 Q930.884 1452.37 927.25 1452.37 M927.25 1448.67 Q933.06 1448.67 936.115 1453.27 Q939.194 1457.86 939.194 1466.61 Q939.194 1475.33 936.115 1479.94 Q933.06 1484.52 927.25 1484.52 Q921.44 1484.52 918.361 1479.94 Q915.305 1475.33 915.305 1466.61 Q915.305 1457.86 918.361 1453.27 Q921.44 1448.67 927.25 1448.67 Z" fill="#000000" fill-rule="evenodd" fill-opacity="1" /><path clip-path="url(#clip660)" d="M 0 0 M1473.44 1479.92 L1489.76 1479.92 L1489.76 1483.85 L1467.82 1483.85 L1467.82 1479.92 Q1470.48 1477.16 1475.06 1472.53 Q1479.67 1467.88 1480.85 1466.54 Q1483.1 1464.01 1483.98 1462.28 Q1484.88 1460.52 1484.88 1458.83 Q1484.88 1456.07 1482.93 1454.34 Q1481.01 1452.6 1477.91 1452.6 Q1475.71 1452.6 1473.26 1453.37 Q1470.83 1454.13 1468.05 1455.68 L1468.05 1450.96 Q1470.87 1449.82 1473.33 1449.25 Q1475.78 1448.67 1477.82 1448.67 Q1483.19 1448.67 1486.38 1451.35 Q1489.58 1454.04 1489.58 1458.53 Q1489.58 1460.66 1488.77 1462.58 Q1487.98 1464.48 1485.87 1467.07 Q1485.29 1467.74 1482.19 1470.96 Q1479.09 1474.15 1473.44 1479.92 Z" fill="#000000" fill-rule="evenodd" fill-opacity="1" /><path clip-path="url(#clip660)" d="M 0 0 M1504.83 1452.37 Q1501.22 1452.37 1499.39 1455.94 Q1497.59 1459.48 1497.59 1466.61 Q1497.59 1473.71 1499.39 1477.28 Q1501.22 1480.82 1504.83 1480.82 Q1508.47 1480.82 1510.27 1477.28 Q1512.1 1473.71 1512.1 1466.61 Q1512.1 1459.48 1510.27 1455.94 Q1508.47 1452.37 1504.83 1452.37 M1504.83 1448.67 Q1510.64 1448.67 1513.7 1453.27 Q1516.78 1457.86 1516.78 1466.61 Q1516.78 1475.33 1513.7 1479.94 Q1510.64 1484.52 1504.83 1484.52 Q1499.02 1484.52 1495.94 1479.94 Q1492.89 1475.33 1492.89 1466.61 Q1492.89 1457.86 1495.94 1453.27 Q1499.02 1448.67 1504.83 1448.67 Z" fill="#000000" fill-rule="evenodd" fill-opacity="1" /><path clip-path="url(#clip660)" d="M 0 0 M1531.85 1452.37 Q1528.23 1452.37 1526.41 1455.94 Q1524.6 1459.48 1524.6 1466.61 Q1524.6 1473.71 1526.41 1477.28 Q1528.23 1480.82 1531.85 1480.82 Q1535.48 1480.82 1537.29 1477.28 Q1539.11 1473.71 1539.11 1466.61 Q1539.11 1459.48 1537.29 1455.94 Q1535.48 1452.37 1531.85 1452.37 M1531.85 1448.67 Q1537.66 1448.67 1540.71 1453.27 Q1543.79 1457.86 1543.79 1466.61 Q1543.79 1475.33 1540.71 1479.94 Q1537.66 1484.52 1531.85 1484.52 Q1526.04 1484.52 1522.96 1479.94 Q1519.9 1475.33 1519.9 1466.61 Q1519.9 1457.86 1522.96 1453.27 Q1526.04 1448.67 1531.85 1448.67 Z" fill="#000000" fill-rule="evenodd" fill-opacity="1" /><path clip-path="url(#clip660)" d="M 0 0 M2086.95 1465.22 Q2090.31 1465.94 2092.18 1468.2 Q2094.08 1470.47 2094.08 1473.81 Q2094.08 1478.92 2090.56 1481.72 Q2087.04 1484.52 2080.56 1484.52 Q2078.39 1484.52 2076.07 1484.08 Q2073.78 1483.67 2071.33 1482.81 L2071.33 1478.3 Q2073.27 1479.43 2075.59 1480.01 Q2077.9 1480.59 2080.42 1480.59 Q2084.82 1480.59 2087.11 1478.85 Q2089.43 1477.12 2089.43 1473.81 Q2089.43 1470.75 2087.28 1469.04 Q2085.15 1467.3 2081.33 1467.3 L2077.3 1467.3 L2077.3 1463.46 L2081.51 1463.46 Q2084.96 1463.46 2086.79 1462.09 Q2088.62 1460.7 2088.62 1458.11 Q2088.62 1455.45 2086.72 1454.04 Q2084.84 1452.6 2081.33 1452.6 Q2079.4 1452.6 2077.21 1453.02 Q2075.01 1453.44 2072.37 1454.31 L2072.37 1450.15 Q2075.03 1449.41 2077.34 1449.04 Q2079.68 1448.67 2081.74 1448.67 Q2087.07 1448.67 2090.17 1451.1 Q2093.27 1453.5 2093.27 1457.63 Q2093.27 1460.5 2091.63 1462.49 Q2089.98 1464.45 2086.95 1465.22 Z" fill="#000000" fill-rule="evenodd" fill-opacity="1" /><path clip-path="url(#clip660)" d="M 0 0 M2109.15 1452.37 Q2105.54 1452.37 2103.71 1455.94 Q2101.9 1459.48 2101.9 1466.61 Q2101.9 1473.71 2103.71 1477.28 Q2105.54 1480.82 2109.15 1480.82 Q2112.78 1480.82 2114.59 1477.28 Q2116.42 1473.71 2116.42 1466.61 Q2116.42 1459.48 2114.59 1455.94 Q2112.78 1452.37 2109.15 1452.37 M2109.15 1448.67 Q2114.96 1448.67 2118.02 1453.27 Q2121.09 1457.86 2121.09 1466.61 Q2121.09 1475.33 2118.02 1479.94 Q2114.96 1484.52 2109.15 1484.52 Q2103.34 1484.52 2100.26 1479.94 Q2097.21 1475.33 2097.21 1466.61 Q2097.21 1457.86 2100.26 1453.27 Q2103.34 1448.67 2109.15 1448.67 Z" fill="#000000" fill-rule="evenodd" fill-opacity="1" /><path clip-path="url(#clip660)" d="M 0 0 M2136.16 1452.37 Q2132.55 1452.37 2130.72 1455.94 Q2128.92 1459.48 2128.92 1466.61 Q2128.92 1473.71 2130.72 1477.28 Q2132.55 1480.82 2136.16 1480.82 Q2139.8 1480.82 2141.6 1477.28 Q2143.43 1473.71 2143.43 1466.61 Q2143.43 1459.48 2141.6 1455.94 Q2139.8 1452.37 2136.16 1452.37 M2136.16 1448.67 Q2141.97 1448.67 2145.03 1453.27 Q2148.11 1457.86 2148.11 1466.61 Q2148.11 1475.33 2145.03 1479.94 Q2141.97 1484.52 2136.16 1484.52 Q2130.35 1484.52 2127.27 1479.94 Q2124.22 1475.33 2124.22 1466.61 Q2124.22 1457.86 2127.27 1453.27 Q2130.35 1448.67 2136.16 1448.67 Z" fill="#000000" fill-rule="evenodd" fill-opacity="1" /><path clip-path="url(#clip660)" d="M 0 0 M987.327 1525.81 L987.327 1506.52 L993.183 1506.52 L993.183 1556.04 L987.327 1556.04 L987.327 1550.7 Q985.481 1553.88 982.648 1555.44 Q979.847 1556.97 975.9 1556.97 Q969.439 1556.97 965.365 1551.81 Q961.323 1546.65 961.323 1538.25 Q961.323 1529.85 965.365 1524.69 Q969.439 1519.54 975.9 1519.54 Q979.847 1519.54 982.648 1521.1 Q985.481 1522.62 987.327 1525.81 M967.37 1538.25 Q967.37 1544.71 970.012 1548.4 Q972.686 1552.07 977.333 1552.07 Q981.98 1552.07 984.653 1548.4 Q987.327 1544.71 987.327 1538.25 Q987.327 1531.79 984.653 1528.13 Q981.98 1524.44 977.333 1524.44 Q972.686 1524.44 970.012 1528.13 Q967.37 1531.79 967.37 1538.25 Z" fill="#000000" fill-rule="evenodd" fill-opacity="1" /><path clip-path="url(#clip660)" d="M 0 0 M1013.14 1524.5 Q1008.43 1524.5 1005.69 1528.19 Q1002.95 1531.85 1002.95 1538.25 Q1002.95 1544.65 1005.66 1548.34 Q1008.4 1552 1013.14 1552 Q1017.82 1552 1020.56 1548.31 Q1023.29 1544.62 1023.29 1538.25 Q1023.29 1531.92 1020.56 1528.23 Q1017.82 1524.5 1013.14 1524.5 M1013.14 1519.54 Q1020.78 1519.54 1025.14 1524.5 Q1029.5 1529.47 1029.5 1538.25 Q1029.5 1547 1025.14 1552 Q1020.78 1556.97 1013.14 1556.97 Q1005.47 1556.97 1001.11 1552 Q996.78 1547 996.78 1538.25 Q996.78 1529.47 1001.11 1524.5 Q1005.47 1519.54 1013.14 1519.54 Z" fill="#000000" fill-rule="evenodd" fill-opacity="1" /><path clip-path="url(#clip660)" d="M 0 0 M1032.24 1520.4 L1038.09 1520.4 L1045.41 1548.21 L1052.7 1520.4 L1059.61 1520.4 L1066.93 1548.21 L1074.22 1520.4 L1080.08 1520.4 L1070.75 1556.04 L1063.84 1556.04 L1056.17 1526.83 L1048.47 1556.04 L1041.56 1556.04 L1032.24 1520.4 Z" fill="#000000" fill-rule="evenodd" fill-opacity="1" /><path clip-path="url(#clip660)" d="M 0 0 M1115.85 1534.53 L1115.85 1556.04 L1109.99 1556.04 L1109.99 1534.72 Q1109.99 1529.66 1108.02 1527.14 Q1106.05 1524.63 1102.1 1524.63 Q1097.36 1524.63 1094.62 1527.65 Q1091.88 1530.68 1091.88 1535.9 L1091.88 1556.04 L1086 1556.04 L1086 1520.4 L1091.88 1520.4 L1091.88 1525.93 Q1093.98 1522.72 1096.82 1521.13 Q1099.68 1519.54 1103.41 1519.54 Q1109.55 1519.54 1112.7 1523.36 Q1115.85 1527.14 1115.85 1534.53 Z" fill="#000000" fill-rule="evenodd" fill-opacity="1" /><path clip-path="url(#clip660)" d="M 0 0 M1118.59 1520.4 L1124.44 1520.4 L1131.76 1548.21 L1139.05 1520.4 L1145.96 1520.4 L1153.28 1548.21 L1160.57 1520.4 L1166.43 1520.4 L1157.1 1556.04 L1150.19 1556.04 L1142.52 1526.83 L1134.82 1556.04 L1127.91 1556.04 L1118.59 1520.4 Z" fill="#000000" fill-rule="evenodd" fill-opacity="1" /><path clip-path="url(#clip660)" d="M 0 0 M1172.57 1520.4 L1178.43 1520.4 L1178.43 1556.04 L1172.57 1556.04 L1172.57 1520.4 M1172.57 1506.52 L1178.43 1506.52 L1178.43 1513.93 L1172.57 1513.93 L1172.57 1506.52 Z" fill="#000000" fill-rule="evenodd" fill-opacity="1" /><path clip-path="url(#clip660)" d="M 0 0 M1214.2 1534.53 L1214.2 1556.04 L1208.34 1556.04 L1208.34 1534.72 Q1208.34 1529.66 1206.37 1527.14 Q1204.4 1524.63 1200.45 1524.63 Q1195.71 1524.63 1192.97 1527.65 Q1190.23 1530.68 1190.23 1535.9 L1190.23 1556.04 L1184.35 1556.04 L1184.35 1520.4 L1190.23 1520.4 L1190.23 1525.93 Q1192.33 1522.72 1195.17 1521.13 Q1198.03 1519.54 1201.76 1519.54 Q1207.9 1519.54 1211.05 1523.36 Q1214.2 1527.14 1214.2 1534.53 Z" fill="#000000" fill-rule="evenodd" fill-opacity="1" /><path clip-path="url(#clip660)" d="M 0 0 M1243.8 1525.81 L1243.8 1506.52 L1249.66 1506.52 L1249.66 1556.04 L1243.8 1556.04 L1243.8 1550.7 Q1241.96 1553.88 1239.12 1555.44 Q1236.32 1556.97 1232.37 1556.97 Q1225.91 1556.97 1221.84 1551.81 Q1217.8 1546.65 1217.8 1538.25 Q1217.8 1529.85 1221.84 1524.69 Q1225.91 1519.54 1232.37 1519.54 Q1236.32 1519.54 1239.12 1521.1 Q1241.96 1522.62 1243.8 1525.81 M1223.84 1538.25 Q1223.84 1544.71 1226.49 1548.4 Q1229.16 1552.07 1233.81 1552.07 Q1238.45 1552.07 1241.13 1548.4 Q1243.8 1544.71 1243.8 1538.25 Q1243.8 1531.79 1241.13 1528.13 Q1238.45 1524.44 1233.81 1524.44 Q1229.16 1524.44 1226.49 1528.13 Q1223.84 1531.79 1223.84 1538.25 Z" fill="#000000" fill-rule="evenodd" fill-opacity="1" /><path clip-path="url(#clip660)" d="M 0 0 M1299.98 1525.81 L1299.98 1506.52 L1305.83 1506.52 L1305.83 1556.04 L1299.98 1556.04 L1299.98 1550.7 Q1298.13 1553.88 1295.3 1555.44 Q1292.5 1556.97 1288.55 1556.97 Q1282.09 1556.97 1278.02 1551.81 Q1273.97 1546.65 1273.97 1538.25 Q1273.97 1529.85 1278.02 1524.69 Q1282.09 1519.54 1288.55 1519.54 Q1292.5 1519.54 1295.3 1521.1 Q1298.13 1522.62 1299.98 1525.81 M1280.02 1538.25 Q1280.02 1544.71 1282.66 1548.4 Q1285.34 1552.07 1289.98 1552.07 Q1294.63 1552.07 1297.3 1548.4 Q1299.98 1544.71 1299.98 1538.25 Q1299.98 1531.79 1297.3 1528.13 Q1294.63 1524.44 1289.98 1524.44 Q1285.34 1524.44 1282.66 1528.13 Q1280.02 1531.79 1280.02 1538.25 Z" fill="#000000" fill-rule="evenodd" fill-opacity="1" /><path clip-path="url(#clip660)" d="M 0 0 M1311.98 1520.4 L1317.83 1520.4 L1317.83 1556.04 L1311.98 1556.04 L1311.98 1520.4 M1311.98 1506.52 L1317.83 1506.52 L1317.83 1513.93 L1311.98 1513.93 L1311.98 1506.52 Z" fill="#000000" fill-rule="evenodd" fill-opacity="1" /><path clip-path="url(#clip660)" d="M 0 0 M1346.7 1521.45 L1346.7 1526.98 Q1344.22 1525.71 1341.55 1525.07 Q1338.87 1524.44 1336.01 1524.44 Q1331.65 1524.44 1329.45 1525.77 Q1327.29 1527.11 1327.29 1529.79 Q1327.29 1531.82 1328.85 1533 Q1330.41 1534.15 1335.12 1535.2 L1337.12 1535.64 Q1343.36 1536.98 1345.97 1539.43 Q1348.61 1541.85 1348.61 1546.21 Q1348.61 1551.17 1344.67 1554.07 Q1340.75 1556.97 1333.88 1556.97 Q1331.01 1556.97 1327.89 1556.39 Q1324.8 1555.85 1321.37 1554.74 L1321.37 1548.69 Q1324.61 1550.38 1327.76 1551.24 Q1330.92 1552.07 1334 1552.07 Q1338.14 1552.07 1340.37 1550.66 Q1342.6 1549.23 1342.6 1546.65 Q1342.6 1544.27 1340.97 1542.99 Q1339.38 1541.72 1333.94 1540.54 L1331.9 1540.07 Q1326.46 1538.92 1324.04 1536.56 Q1321.62 1534.18 1321.62 1530.04 Q1321.62 1525.01 1325.19 1522.27 Q1328.75 1519.54 1335.31 1519.54 Q1338.55 1519.54 1341.42 1520.01 Q1344.28 1520.49 1346.7 1521.45 Z" fill="#000000" fill-rule="evenodd" fill-opacity="1" /><path clip-path="url(#clip660)" d="M 0 0 M1360.55 1510.27 L1360.55 1520.4 L1372.61 1520.4 L1372.61 1524.95 L1360.55 1524.95 L1360.55 1544.3 Q1360.55 1548.66 1361.73 1549.9 Q1362.94 1551.14 1366.6 1551.14 L1372.61 1551.14 L1372.61 1556.04 L1366.6 1556.04 Q1359.82 1556.04 1357.24 1553.53 Q1354.66 1550.98 1354.66 1544.3 L1354.66 1524.95 L1350.36 1524.95 L1350.36 1520.4 L1354.66 1520.4 L1354.66 1510.27 L1360.55 1510.27 Z" fill="#000000" fill-rule="evenodd" fill-opacity="1" /><path clip-path="url(#clip660)" d="M 0 0 M1394.95 1538.12 Q1387.86 1538.12 1385.12 1539.75 Q1382.38 1541.37 1382.38 1545.29 Q1382.38 1548.4 1384.42 1550.25 Q1386.49 1552.07 1390.02 1552.07 Q1394.89 1552.07 1397.82 1548.63 Q1400.78 1545.16 1400.78 1539.43 L1400.78 1538.12 L1394.95 1538.12 M1406.64 1535.71 L1406.64 1556.04 L1400.78 1556.04 L1400.78 1550.63 Q1398.77 1553.88 1395.78 1555.44 Q1392.79 1556.97 1388.46 1556.97 Q1382.99 1556.97 1379.74 1553.91 Q1376.53 1550.82 1376.53 1545.67 Q1376.53 1539.65 1380.54 1536.6 Q1384.58 1533.54 1392.57 1533.54 L1400.78 1533.54 L1400.78 1532.97 Q1400.78 1528.93 1398.11 1526.73 Q1395.46 1524.5 1390.66 1524.5 Q1387.6 1524.5 1384.71 1525.23 Q1381.81 1525.97 1379.14 1527.43 L1379.14 1522.02 Q1382.35 1520.78 1385.37 1520.17 Q1388.4 1519.54 1391.26 1519.54 Q1399 1519.54 1402.82 1523.55 Q1406.64 1527.56 1406.64 1535.71 Z" fill="#000000" fill-rule="evenodd" fill-opacity="1" /><path clip-path="url(#clip660)" d="M 0 0 M1442.41 1534.53 L1442.41 1556.04 L1436.55 1556.04 L1436.55 1534.72 Q1436.55 1529.66 1434.58 1527.14 Q1432.61 1524.63 1428.66 1524.63 Q1423.92 1524.63 1421.18 1527.65 Q1418.44 1530.68 1418.44 1535.9 L1418.44 1556.04 L1412.56 1556.04 L1412.56 1520.4 L1418.44 1520.4 L1418.44 1525.93 Q1420.55 1522.72 1423.38 1521.13 Q1426.24 1519.54 1429.97 1519.54 Q1436.11 1519.54 1439.26 1523.36 Q1442.41 1527.14 1442.41 1534.53 Z" fill="#000000" fill-rule="evenodd" fill-opacity="1" /><path clip-path="url(#clip660)" d="M 0 0 M1474.21 1521.76 L1474.21 1527.24 Q1471.73 1525.87 1469.21 1525.2 Q1466.73 1524.5 1464.18 1524.5 Q1458.48 1524.5 1455.33 1528.13 Q1452.18 1531.73 1452.18 1538.25 Q1452.18 1544.78 1455.33 1548.4 Q1458.48 1552 1464.18 1552 Q1466.73 1552 1469.21 1551.33 Q1471.73 1550.63 1474.21 1549.26 L1474.21 1554.68 Q1471.76 1555.82 1469.12 1556.39 Q1466.51 1556.97 1463.55 1556.97 Q1455.49 1556.97 1450.75 1551.91 Q1446.01 1546.85 1446.01 1538.25 Q1446.01 1529.53 1450.78 1524.53 Q1455.59 1519.54 1463.93 1519.54 Q1466.63 1519.54 1469.21 1520.11 Q1471.79 1520.65 1474.21 1521.76 Z" fill="#000000" fill-rule="evenodd" fill-opacity="1" /><path clip-path="url(#clip660)" d="M 0 0 M1510.84 1536.76 L1510.84 1539.62 L1483.92 1539.62 Q1484.3 1545.67 1487.54 1548.85 Q1490.82 1552 1496.65 1552 Q1500.02 1552 1503.17 1551.17 Q1506.35 1550.35 1509.47 1548.69 L1509.47 1554.23 Q1506.32 1555.57 1503.01 1556.27 Q1499.7 1556.97 1496.3 1556.97 Q1487.77 1556.97 1482.77 1552 Q1477.8 1547.04 1477.8 1538.57 Q1477.8 1529.82 1482.52 1524.69 Q1487.26 1519.54 1495.28 1519.54 Q1502.47 1519.54 1506.64 1524.18 Q1510.84 1528.8 1510.84 1536.76 M1504.99 1535.04 Q1504.92 1530.23 1502.28 1527.37 Q1499.67 1524.5 1495.34 1524.5 Q1490.44 1524.5 1487.48 1527.27 Q1484.55 1530.04 1484.11 1535.07 L1504.99 1535.04 Z" fill="#000000" fill-rule="evenodd" fill-opacity="1" /><path clip-path="url(#clip660)" d="M 0 0 M1551.77 1506.58 Q1547.51 1513.9 1545.44 1521.06 Q1543.37 1528.23 1543.37 1535.58 Q1543.37 1542.93 1545.44 1550.16 Q1547.54 1557.35 1551.77 1564.64 L1546.68 1564.64 Q1541.91 1557.16 1539.52 1549.93 Q1537.16 1542.71 1537.16 1535.58 Q1537.16 1528.48 1539.52 1521.29 Q1541.88 1514.09 1546.68 1506.58 L1551.77 1506.58 Z" fill="#000000" fill-rule="evenodd" fill-opacity="1" /><path clip-path="url(#clip660)" d="M 0 0 M1585.67 1527.24 Q1587.87 1523.29 1590.92 1521.41 Q1593.98 1519.54 1598.12 1519.54 Q1603.69 1519.54 1606.71 1523.45 Q1609.73 1527.33 1609.73 1534.53 L1609.73 1556.04 L1603.85 1556.04 L1603.85 1534.72 Q1603.85 1529.59 1602.03 1527.11 Q1600.22 1524.63 1596.49 1524.63 Q1591.94 1524.63 1589.3 1527.65 Q1586.66 1530.68 1586.66 1535.9 L1586.66 1556.04 L1580.77 1556.04 L1580.77 1534.72 Q1580.77 1529.56 1578.96 1527.11 Q1577.14 1524.63 1573.35 1524.63 Q1568.87 1524.63 1566.22 1527.68 Q1563.58 1530.71 1563.58 1535.9 L1563.58 1556.04 L1557.69 1556.04 L1557.69 1520.4 L1563.58 1520.4 L1563.58 1525.93 Q1565.59 1522.66 1568.39 1521.1 Q1571.19 1519.54 1575.04 1519.54 Q1578.92 1519.54 1581.63 1521.51 Q1584.37 1523.48 1585.67 1527.24 Z" fill="#000000" fill-rule="evenodd" fill-opacity="1" /><path clip-path="url(#clip660)" d="M 0 0 M1614.95 1506.58 L1620.05 1506.58 Q1624.82 1514.09 1627.18 1521.29 Q1629.56 1528.48 1629.56 1535.58 Q1629.56 1542.71 1627.18 1549.93 Q1624.82 1557.16 1620.05 1564.64 L1614.95 1564.64 Q1619.19 1557.35 1621.26 1550.16 Q1623.36 1542.93 1623.36 1535.58 Q1623.36 1528.23 1621.26 1521.06 Q1619.19 1513.9 1614.95 1506.58 Z" fill="#000000" fill-rule="evenodd" fill-opacity="1" /><polyline clip-path="url(#clip662)" style="stroke:#000000; stroke-width:2; stroke-opacity:0.1; fill:none" points="
  238.13,1387.62 2352.76,1387.62 
  "/>
<polyline clip-path="url(#clip662)" style="stroke:#000000; stroke-width:2; stroke-opacity:0.1; fill:none" points="
  238.13,1080.78 2352.76,1080.78 
  "/>
<polyline clip-path="url(#clip662)" style="stroke:#000000; stroke-width:2; stroke-opacity:0.1; fill:none" points="
  238.13,773.94 2352.76,773.94 
  "/>
<polyline clip-path="url(#clip662)" style="stroke:#000000; stroke-width:2; stroke-opacity:0.1; fill:none" points="
  238.13,467.098 2352.76,467.098 
  "/>
<polyline clip-path="url(#clip662)" style="stroke:#000000; stroke-width:2; stroke-opacity:0.1; fill:none" points="
  238.13,160.256 2352.76,160.256 
  "/>
<polyline clip-path="url(#clip660)" style="stroke:#000000; stroke-width:4; stroke-opacity:1; fill:none" points="
  238.13,1423.18 238.13,123.472 
  "/>
<polyline clip-path="url(#clip660)" style="stroke:#000000; stroke-width:4; stroke-opacity:1; fill:none" points="
  238.13,1387.62 263.506,1387.62 
  "/>
<polyline clip-path="url(#clip660)" style="stroke:#000000; stroke-width:4; stroke-opacity:1; fill:none" points="
  238.13,1080.78 263.506,1080.78 
  "/>
<polyline clip-path="url(#clip660)" style="stroke:#000000; stroke-width:4; stroke-opacity:1; fill:none" points="
  238.13,773.94 263.506,773.94 
  "/>
<polyline clip-path="url(#clip660)" style="stroke:#000000; stroke-width:4; stroke-opacity:1; fill:none" points="
  238.13,467.098 263.506,467.098 
  "/>
<polyline clip-path="url(#clip660)" style="stroke:#000000; stroke-width:4; stroke-opacity:1; fill:none" points="
  238.13,160.256 263.506,160.256 
  "/>
<path clip-path="url(#clip660)" d="M 0 0 M126.205 1373.42 Q122.593 1373.42 120.765 1376.99 Q118.959 1380.53 118.959 1387.66 Q118.959 1394.76 120.765 1398.33 Q122.593 1401.87 126.205 1401.87 Q129.839 1401.87 131.644 1398.33 Q133.473 1394.76 133.473 1387.66 Q133.473 1380.53 131.644 1376.99 Q129.839 1373.42 126.205 1373.42 M126.205 1369.72 Q132.015 1369.72 135.07 1374.32 Q138.149 1378.91 138.149 1387.66 Q138.149 1396.38 135.07 1400.99 Q132.015 1405.57 126.205 1405.57 Q120.394 1405.57 117.316 1400.99 Q114.26 1396.38 114.26 1387.66 Q114.26 1378.91 117.316 1374.32 Q120.394 1369.72 126.205 1369.72 Z" fill="#000000" fill-rule="evenodd" fill-opacity="1" /><path clip-path="url(#clip660)" d="M 0 0 M143.218 1399.02 L148.103 1399.02 L148.103 1404.9 L143.218 1404.9 L143.218 1399.02 Z" fill="#000000" fill-rule="evenodd" fill-opacity="1" /><path clip-path="url(#clip660)" d="M 0 0 M163.172 1373.42 Q159.561 1373.42 157.732 1376.99 Q155.927 1380.53 155.927 1387.66 Q155.927 1394.76 157.732 1398.33 Q159.561 1401.87 163.172 1401.87 Q166.806 1401.87 168.612 1398.33 Q170.44 1394.76 170.44 1387.66 Q170.44 1380.53 168.612 1376.99 Q166.806 1373.42 163.172 1373.42 M163.172 1369.72 Q168.982 1369.72 172.038 1374.32 Q175.116 1378.91 175.116 1387.66 Q175.116 1396.38 172.038 1400.99 Q168.982 1405.57 163.172 1405.57 Q157.362 1405.57 154.283 1400.99 Q151.228 1396.38 151.228 1387.66 Q151.228 1378.91 154.283 1374.32 Q157.362 1369.72 163.172 1369.72 Z" fill="#000000" fill-rule="evenodd" fill-opacity="1" /><path clip-path="url(#clip660)" d="M 0 0 M190.186 1373.42 Q186.575 1373.42 184.746 1376.99 Q182.94 1380.53 182.94 1387.66 Q182.94 1394.76 184.746 1398.33 Q186.575 1401.87 190.186 1401.87 Q193.82 1401.87 195.625 1398.33 Q197.454 1394.76 197.454 1387.66 Q197.454 1380.53 195.625 1376.99 Q193.82 1373.42 190.186 1373.42 M190.186 1369.72 Q195.996 1369.72 199.051 1374.32 Q202.13 1378.91 202.13 1387.66 Q202.13 1396.38 199.051 1400.99 Q195.996 1405.57 190.186 1405.57 Q184.376 1405.57 181.297 1400.99 Q178.241 1396.38 178.241 1387.66 Q178.241 1378.91 181.297 1374.32 Q184.376 1369.72 190.186 1369.72 Z" fill="#000000" fill-rule="evenodd" fill-opacity="1" /><path clip-path="url(#clip660)" d="M 0 0 M128.797 1066.58 Q125.186 1066.58 123.357 1070.14 Q121.552 1073.69 121.552 1080.82 Q121.552 1087.92 123.357 1091.49 Q125.186 1095.03 128.797 1095.03 Q132.431 1095.03 134.237 1091.49 Q136.066 1087.92 136.066 1080.82 Q136.066 1073.69 134.237 1070.14 Q132.431 1066.58 128.797 1066.58 M128.797 1062.88 Q134.607 1062.88 137.663 1067.48 Q140.741 1072.07 140.741 1080.82 Q140.741 1089.54 137.663 1094.15 Q134.607 1098.73 128.797 1098.73 Q122.987 1098.73 119.908 1094.15 Q116.853 1089.54 116.853 1080.82 Q116.853 1072.07 119.908 1067.48 Q122.987 1062.88 128.797 1062.88 Z" fill="#000000" fill-rule="evenodd" fill-opacity="1" /><path clip-path="url(#clip660)" d="M 0 0 M145.811 1092.18 L150.695 1092.18 L150.695 1098.06 L145.811 1098.06 L145.811 1092.18 Z" fill="#000000" fill-rule="evenodd" fill-opacity="1" /><path clip-path="url(#clip660)" d="M 0 0 M159.792 1094.13 L176.112 1094.13 L176.112 1098.06 L154.167 1098.06 L154.167 1094.13 Q156.829 1091.37 161.413 1086.74 Q166.019 1082.09 167.2 1080.75 Q169.445 1078.22 170.325 1076.49 Q171.227 1074.73 171.227 1073.04 Q171.227 1070.28 169.283 1068.55 Q167.362 1066.81 164.26 1066.81 Q162.061 1066.81 159.607 1067.58 Q157.177 1068.34 154.399 1069.89 L154.399 1065.17 Q157.223 1064.03 159.677 1063.46 Q162.13 1062.88 164.167 1062.88 Q169.538 1062.88 172.732 1065.56 Q175.926 1068.25 175.926 1072.74 Q175.926 1074.87 175.116 1076.79 Q174.329 1078.69 172.223 1081.28 Q171.644 1081.95 168.542 1085.17 Q165.44 1088.36 159.792 1094.13 Z" fill="#000000" fill-rule="evenodd" fill-opacity="1" /><path clip-path="url(#clip660)" d="M 0 0 M181.227 1063.5 L199.584 1063.5 L199.584 1067.44 L185.51 1067.44 L185.51 1075.91 Q186.528 1075.56 187.547 1075.4 Q188.565 1075.21 189.584 1075.21 Q195.371 1075.21 198.75 1078.39 Q202.13 1081.56 202.13 1086.97 Q202.13 1092.55 198.658 1095.65 Q195.186 1098.73 188.866 1098.73 Q186.69 1098.73 184.422 1098.36 Q182.176 1097.99 179.769 1097.25 L179.769 1092.55 Q181.852 1093.69 184.075 1094.24 Q186.297 1094.8 188.774 1094.8 Q192.778 1094.8 195.116 1092.69 Q197.454 1090.58 197.454 1086.97 Q197.454 1083.36 195.116 1081.26 Q192.778 1079.15 188.774 1079.15 Q186.899 1079.15 185.024 1079.57 Q183.172 1079.98 181.227 1080.86 L181.227 1063.5 Z" fill="#000000" fill-rule="evenodd" fill-opacity="1" /><path clip-path="url(#clip660)" d="M 0 0 M127.2 759.738 Q123.589 759.738 121.76 763.303 Q119.955 766.845 119.955 773.974 Q119.955 781.081 121.76 784.646 Q123.589 788.187 127.2 788.187 Q130.834 788.187 132.64 784.646 Q134.468 781.081 134.468 773.974 Q134.468 766.845 132.64 763.303 Q130.834 759.738 127.2 759.738 M127.2 756.035 Q133.01 756.035 136.066 760.641 Q139.144 765.224 139.144 773.974 Q139.144 782.701 136.066 787.308 Q133.01 791.891 127.2 791.891 Q121.39 791.891 118.311 787.308 Q115.256 782.701 115.256 773.974 Q115.256 765.224 118.311 760.641 Q121.39 756.035 127.2 756.035 Z" fill="#000000" fill-rule="evenodd" fill-opacity="1" /><path clip-path="url(#clip660)" d="M 0 0 M144.214 785.34 L149.098 785.34 L149.098 791.22 L144.214 791.22 L144.214 785.34 Z" fill="#000000" fill-rule="evenodd" fill-opacity="1" /><path clip-path="url(#clip660)" d="M 0 0 M154.214 756.66 L172.57 756.66 L172.57 760.595 L158.496 760.595 L158.496 769.067 Q159.515 768.72 160.533 768.558 Q161.552 768.373 162.57 768.373 Q168.357 768.373 171.737 771.544 Q175.116 774.715 175.116 780.132 Q175.116 785.71 171.644 788.812 Q168.172 791.891 161.852 791.891 Q159.677 791.891 157.408 791.521 Q155.163 791.15 152.755 790.409 L152.755 785.71 Q154.839 786.845 157.061 787.4 Q159.283 787.956 161.76 787.956 Q165.765 787.956 168.102 785.849 Q170.44 783.743 170.44 780.132 Q170.44 776.521 168.102 774.414 Q165.765 772.308 161.76 772.308 Q159.885 772.308 158.01 772.724 Q156.158 773.141 154.214 774.021 L154.214 756.66 Z" fill="#000000" fill-rule="evenodd" fill-opacity="1" /><path clip-path="url(#clip660)" d="M 0 0 M190.186 759.738 Q186.575 759.738 184.746 763.303 Q182.94 766.845 182.94 773.974 Q182.94 781.081 184.746 784.646 Q186.575 788.187 190.186 788.187 Q193.82 788.187 195.625 784.646 Q197.454 781.081 197.454 773.974 Q197.454 766.845 195.625 763.303 Q193.82 759.738 190.186 759.738 M190.186 756.035 Q195.996 756.035 199.051 760.641 Q202.13 765.224 202.13 773.974 Q202.13 782.701 199.051 787.308 Q195.996 791.891 190.186 791.891 Q184.376 791.891 181.297 787.308 Q178.241 782.701 178.241 773.974 Q178.241 765.224 181.297 760.641 Q184.376 756.035 190.186 756.035 Z" fill="#000000" fill-rule="evenodd" fill-opacity="1" /><path clip-path="url(#clip660)" d="M 0 0 M128.103 452.897 Q124.492 452.897 122.663 456.461 Q120.857 460.003 120.857 467.133 Q120.857 474.239 122.663 477.804 Q124.492 481.346 128.103 481.346 Q131.737 481.346 133.542 477.804 Q135.371 474.239 135.371 467.133 Q135.371 460.003 133.542 456.461 Q131.737 452.897 128.103 452.897 M128.103 449.193 Q133.913 449.193 136.968 453.799 Q140.047 458.383 140.047 467.133 Q140.047 475.86 136.968 480.466 Q133.913 485.049 128.103 485.049 Q122.293 485.049 119.214 480.466 Q116.158 475.86 116.158 467.133 Q116.158 458.383 119.214 453.799 Q122.293 449.193 128.103 449.193 Z" fill="#000000" fill-rule="evenodd" fill-opacity="1" /><path clip-path="url(#clip660)" d="M 0 0 M145.116 478.498 L150.001 478.498 L150.001 484.378 L145.116 484.378 L145.116 478.498 Z" fill="#000000" fill-rule="evenodd" fill-opacity="1" /><path clip-path="url(#clip660)" d="M 0 0 M153.89 449.818 L176.112 449.818 L176.112 451.809 L163.565 484.378 L158.681 484.378 L170.487 453.753 L153.89 453.753 L153.89 449.818 Z" fill="#000000" fill-rule="evenodd" fill-opacity="1" /><path clip-path="url(#clip660)" d="M 0 0 M181.227 449.818 L199.584 449.818 L199.584 453.753 L185.51 453.753 L185.51 462.225 Q186.528 461.878 187.547 461.716 Q188.565 461.531 189.584 461.531 Q195.371 461.531 198.75 464.702 Q202.13 467.873 202.13 473.29 Q202.13 478.869 198.658 481.971 Q195.186 485.049 188.866 485.049 Q186.69 485.049 184.422 484.679 Q182.176 484.309 179.769 483.568 L179.769 478.869 Q181.852 480.003 184.075 480.559 Q186.297 481.114 188.774 481.114 Q192.778 481.114 195.116 479.008 Q197.454 476.901 197.454 473.29 Q197.454 469.679 195.116 467.573 Q192.778 465.466 188.774 465.466 Q186.899 465.466 185.024 465.883 Q183.172 466.299 181.227 467.179 L181.227 449.818 Z" fill="#000000" fill-rule="evenodd" fill-opacity="1" /><path clip-path="url(#clip660)" d="M 0 0 M118.242 173.601 L125.88 173.601 L125.88 147.236 L117.57 148.902 L117.57 144.643 L125.834 142.976 L130.51 142.976 L130.51 173.601 L138.149 173.601 L138.149 177.536 L118.242 177.536 L118.242 173.601 Z" fill="#000000" fill-rule="evenodd" fill-opacity="1" /><path clip-path="url(#clip660)" d="M 0 0 M143.218 171.657 L148.103 171.657 L148.103 177.536 L143.218 177.536 L143.218 171.657 Z" fill="#000000" fill-rule="evenodd" fill-opacity="1" /><path clip-path="url(#clip660)" d="M 0 0 M163.172 146.055 Q159.561 146.055 157.732 149.62 Q155.927 153.161 155.927 160.291 Q155.927 167.397 157.732 170.962 Q159.561 174.504 163.172 174.504 Q166.806 174.504 168.612 170.962 Q170.44 167.397 170.44 160.291 Q170.44 153.161 168.612 149.62 Q166.806 146.055 163.172 146.055 M163.172 142.351 Q168.982 142.351 172.038 146.958 Q175.116 151.541 175.116 160.291 Q175.116 169.018 172.038 173.624 Q168.982 178.208 163.172 178.208 Q157.362 178.208 154.283 173.624 Q151.228 169.018 151.228 160.291 Q151.228 151.541 154.283 146.958 Q157.362 142.351 163.172 142.351 Z" fill="#000000" fill-rule="evenodd" fill-opacity="1" /><path clip-path="url(#clip660)" d="M 0 0 M190.186 146.055 Q186.575 146.055 184.746 149.62 Q182.94 153.161 182.94 160.291 Q182.94 167.397 184.746 170.962 Q186.575 174.504 190.186 174.504 Q193.82 174.504 195.625 170.962 Q197.454 167.397 197.454 160.291 Q197.454 153.161 195.625 149.62 Q193.82 146.055 190.186 146.055 M190.186 142.351 Q195.996 142.351 199.051 146.958 Q202.13 151.541 202.13 160.291 Q202.13 169.018 199.051 173.624 Q195.996 178.208 190.186 178.208 Q184.376 178.208 181.297 173.624 Q178.241 169.018 178.241 160.291 Q178.241 151.541 181.297 146.958 Q184.376 142.351 190.186 142.351 Z" fill="#000000" fill-rule="evenodd" fill-opacity="1" /><path clip-path="url(#clip660)" d="M 0 0 M53.7248 1045.86 L59.1993 1045.86 Q57.8307 1048.34 57.1623 1050.85 Q56.4621 1053.34 56.4621 1055.88 Q56.4621 1061.58 60.0905 1064.73 Q63.6872 1067.88 70.212 1067.88 Q76.7369 1067.88 80.3653 1064.73 Q83.9619 1061.58 83.9619 1055.88 Q83.9619 1053.34 83.2935 1050.85 Q82.5933 1048.34 81.2247 1045.86 L86.6355 1045.86 Q87.7814 1048.31 88.3543 1050.95 Q88.9272 1053.56 88.9272 1056.52 Q88.9272 1064.57 83.8664 1069.32 Q78.8057 1074.06 70.212 1074.06 Q61.491 1074.06 56.4939 1069.28 Q51.4968 1064.48 51.4968 1056.14 Q51.4968 1053.43 52.0697 1050.85 Q52.6108 1048.28 53.7248 1045.86 Z" fill="#000000" fill-rule="evenodd" fill-opacity="1" /><path clip-path="url(#clip660)" d="M 0 0 M56.4621 1025.9 Q56.4621 1030.61 60.1542 1033.35 Q63.8145 1036.09 70.212 1036.09 Q76.6095 1036.09 80.3017 1033.38 Q83.9619 1030.64 83.9619 1025.9 Q83.9619 1021.22 80.2698 1018.49 Q76.5777 1015.75 70.212 1015.75 Q63.8781 1015.75 60.186 1018.49 Q56.4621 1021.22 56.4621 1025.9 M51.4968 1025.9 Q51.4968 1018.26 56.4621 1013.9 Q61.4273 1009.54 70.212 1009.54 Q78.9649 1009.54 83.9619 1013.9 Q88.9272 1018.26 88.9272 1025.9 Q88.9272 1033.57 83.9619 1037.93 Q78.9649 1042.26 70.212 1042.26 Q61.4273 1042.26 56.4621 1037.93 Q51.4968 1033.57 51.4968 1025.9 Z" fill="#000000" fill-rule="evenodd" fill-opacity="1" /><path clip-path="url(#clip660)" d="M 0 0 M66.4881 973.766 L88.0042 973.766 L88.0042 979.623 L66.679 979.623 Q61.6183 979.623 59.1038 981.596 Q56.5894 983.569 56.5894 987.516 Q56.5894 992.259 59.6131 994.996 Q62.6368 997.733 67.8567 997.733 L88.0042 997.733 L88.0042 1003.62 L52.3562 1003.62 L52.3562 997.733 L57.8944 997.733 Q54.6797 995.632 53.0883 992.8 Q51.4968 989.935 51.4968 986.211 Q51.4968 980.068 55.3163 976.917 Q59.1038 973.766 66.4881 973.766 Z" fill="#000000" fill-rule="evenodd" fill-opacity="1" /><path clip-path="url(#clip660)" d="M 0 0 M53.7248 941.969 L59.1993 941.969 Q57.8307 944.452 57.1623 946.967 Q56.4621 949.449 56.4621 951.995 Q56.4621 957.693 60.0905 960.844 Q63.6872 963.995 70.212 963.995 Q76.7369 963.995 80.3653 960.844 Q83.9619 957.693 83.9619 951.995 Q83.9619 949.449 83.2935 946.967 Q82.5933 944.452 81.2247 941.969 L86.6355 941.969 Q87.7814 944.42 88.3543 947.062 Q88.9272 949.672 88.9272 952.632 Q88.9272 960.685 83.8664 965.427 Q78.8057 970.17 70.212 970.17 Q61.491 970.17 56.4939 965.395 Q51.4968 960.589 51.4968 952.25 Q51.4968 949.545 52.0697 946.967 Q52.6108 944.388 53.7248 941.969 Z" fill="#000000" fill-rule="evenodd" fill-opacity="1" /><path clip-path="url(#clip660)" d="M 0 0 M68.7161 905.335 L71.5806 905.335 L71.5806 932.262 Q77.6281 931.88 80.8109 928.633 Q83.9619 925.355 83.9619 919.53 Q83.9619 916.157 83.1344 913.006 Q82.3069 909.823 80.6518 906.703 L86.1899 906.703 Q87.5267 909.854 88.227 913.165 Q88.9272 916.475 88.9272 919.88 Q88.9272 928.411 83.9619 933.408 Q78.9967 938.373 70.5303 938.373 Q61.7774 938.373 56.6531 933.662 Q51.4968 928.92 51.4968 920.899 Q51.4968 913.706 56.1438 909.536 Q60.7589 905.335 68.7161 905.335 M66.9973 911.191 Q62.1912 911.255 59.3266 913.897 Q56.4621 916.507 56.4621 920.835 Q56.4621 925.737 59.2312 928.697 Q62.0002 931.625 67.0292 932.071 L66.9973 911.191 Z" fill="#000000" fill-rule="evenodd" fill-opacity="1" /><path clip-path="url(#clip660)" d="M 0 0 M66.4881 869.56 L88.0042 869.56 L88.0042 875.416 L66.679 875.416 Q61.6183 875.416 59.1038 877.389 Q56.5894 879.363 56.5894 883.309 Q56.5894 888.052 59.6131 890.789 Q62.6368 893.526 67.8567 893.526 L88.0042 893.526 L88.0042 899.415 L52.3562 899.415 L52.3562 893.526 L57.8944 893.526 Q54.6797 891.426 53.0883 888.593 Q51.4968 885.728 51.4968 882.005 Q51.4968 875.862 55.3163 872.711 Q59.1038 869.56 66.4881 869.56 Z" fill="#000000" fill-rule="evenodd" fill-opacity="1" /><path clip-path="url(#clip660)" d="M 0 0 M42.2347 857.624 L52.3562 857.624 L52.3562 845.561 L56.9077 845.561 L56.9077 857.624 L76.2594 857.624 Q80.6199 857.624 81.8613 856.446 Q83.1026 855.237 83.1026 851.576 L83.1026 845.561 L88.0042 845.561 L88.0042 851.576 Q88.0042 858.356 85.4897 860.934 Q82.9434 863.512 76.2594 863.512 L56.9077 863.512 L56.9077 867.809 L52.3562 867.809 L52.3562 863.512 L42.2347 863.512 L42.2347 857.624 Z" fill="#000000" fill-rule="evenodd" fill-opacity="1" /><path clip-path="url(#clip660)" d="M 0 0 M57.8307 818.761 Q57.2578 819.748 57.0032 820.926 Q56.7167 822.071 56.7167 823.472 Q56.7167 828.437 59.9632 831.111 Q63.1779 833.752 69.2253 833.752 L88.0042 833.752 L88.0042 839.641 L52.3562 839.641 L52.3562 833.752 L57.8944 833.752 Q54.6479 831.906 53.0883 828.946 Q51.4968 825.986 51.4968 821.753 Q51.4968 821.148 51.5923 820.416 Q51.656 819.684 51.8151 818.793 L57.8307 818.761 Z" fill="#000000" fill-rule="evenodd" fill-opacity="1" /><path clip-path="url(#clip660)" d="M 0 0 M70.0847 796.418 Q70.0847 803.515 71.7079 806.253 Q73.3312 808.99 77.2461 808.99 Q80.3653 808.99 82.2114 806.953 Q84.0256 804.884 84.0256 801.351 Q84.0256 796.481 80.5881 793.553 Q77.1188 790.593 71.3897 790.593 L70.0847 790.593 L70.0847 796.418 M67.6657 784.737 L88.0042 784.737 L88.0042 790.593 L82.5933 790.593 Q85.8398 792.598 87.3994 795.59 Q88.9272 798.582 88.9272 802.911 Q88.9272 808.385 85.8716 811.632 Q82.7843 814.846 77.6281 814.846 Q71.6125 814.846 68.5569 810.836 Q65.5014 806.794 65.5014 798.805 L65.5014 790.593 L64.9285 790.593 Q60.8862 790.593 58.6901 793.267 Q56.4621 795.908 56.4621 800.714 Q56.4621 803.77 57.1941 806.666 Q57.9262 809.563 59.3903 812.236 L53.9795 812.236 Q52.7381 809.022 52.1334 805.998 Q51.4968 802.974 51.4968 800.11 Q51.4968 792.375 55.5072 788.556 Q59.5176 784.737 67.6657 784.737 Z" fill="#000000" fill-rule="evenodd" fill-opacity="1" /><path clip-path="url(#clip660)" d="M 0 0 M42.2347 772.801 L52.3562 772.801 L52.3562 760.738 L56.9077 760.738 L56.9077 772.801 L76.2594 772.801 Q80.6199 772.801 81.8613 771.623 Q83.1026 770.414 83.1026 766.753 L83.1026 760.738 L88.0042 760.738 L88.0042 766.753 Q88.0042 773.533 85.4897 776.111 Q82.9434 778.689 76.2594 778.689 L56.9077 778.689 L56.9077 782.986 L52.3562 782.986 L52.3562 778.689 L42.2347 778.689 L42.2347 772.801 Z" fill="#000000" fill-rule="evenodd" fill-opacity="1" /><path clip-path="url(#clip660)" d="M 0 0 M52.3562 754.595 L52.3562 748.738 L88.0042 748.738 L88.0042 754.595 L52.3562 754.595 M38.479 754.595 L38.479 748.738 L45.895 748.738 L45.895 754.595 L38.479 754.595 Z" fill="#000000" fill-rule="evenodd" fill-opacity="1" /><path clip-path="url(#clip660)" d="M 0 0 M56.4621 728.782 Q56.4621 733.493 60.1542 736.23 Q63.8145 738.967 70.212 738.967 Q76.6095 738.967 80.3017 736.262 Q83.9619 733.524 83.9619 728.782 Q83.9619 724.103 80.2698 721.366 Q76.5777 718.629 70.212 718.629 Q63.8781 718.629 60.186 721.366 Q56.4621 724.103 56.4621 728.782 M51.4968 728.782 Q51.4968 721.143 56.4621 716.783 Q61.4273 712.422 70.212 712.422 Q78.9649 712.422 83.9619 716.783 Q88.9272 721.143 88.9272 728.782 Q88.9272 736.453 83.9619 740.813 Q78.9649 745.142 70.212 745.142 Q61.4273 745.142 56.4621 740.813 Q51.4968 736.453 51.4968 728.782 Z" fill="#000000" fill-rule="evenodd" fill-opacity="1" /><path clip-path="url(#clip660)" d="M 0 0 M66.4881 676.647 L88.0042 676.647 L88.0042 682.503 L66.679 682.503 Q61.6183 682.503 59.1038 684.477 Q56.5894 686.45 56.5894 690.397 Q56.5894 695.139 59.6131 697.876 Q62.6368 700.614 67.8567 700.614 L88.0042 700.614 L88.0042 706.502 L52.3562 706.502 L52.3562 700.614 L57.8944 700.614 Q54.6797 698.513 53.0883 695.68 Q51.4968 692.816 51.4968 689.092 Q51.4968 682.949 55.3163 679.798 Q59.1038 676.647 66.4881 676.647 Z" fill="#000000" fill-rule="evenodd" fill-opacity="1" /><path clip-path="url(#clip660)" d="M 0 0 M38.5426 635.715 Q45.8632 639.98 53.0246 642.049 Q60.186 644.118 67.5384 644.118 Q74.8908 644.118 82.1159 642.049 Q89.3091 639.949 96.5979 635.715 L96.5979 640.808 Q89.1182 645.582 81.8931 647.969 Q74.668 650.325 67.5384 650.325 Q60.4406 650.325 53.2474 647.969 Q46.0542 645.614 38.5426 640.808 L38.5426 635.715 Z" fill="#000000" fill-rule="evenodd" fill-opacity="1" /><path clip-path="url(#clip660)" d="M 0 0 M52.3562 633.774 L52.3562 627.567 L82.275 616.427 L52.3562 605.287 L52.3562 599.081 L88.0042 612.449 L88.0042 620.406 L52.3562 633.774 Z" fill="#000000" fill-rule="evenodd" fill-opacity="1" /><path clip-path="url(#clip660)" d="M 0 0 M56.4621 579.124 Q56.4621 583.835 60.1542 586.572 Q63.8145 589.309 70.212 589.309 Q76.6095 589.309 80.3017 586.604 Q83.9619 583.867 83.9619 579.124 Q83.9619 574.445 80.2698 571.708 Q76.5777 568.971 70.212 568.971 Q63.8781 568.971 60.186 571.708 Q56.4621 574.445 56.4621 579.124 M51.4968 579.124 Q51.4968 571.485 56.4621 567.125 Q61.4273 562.764 70.212 562.764 Q78.9649 562.764 83.9619 567.125 Q88.9272 571.485 88.9272 579.124 Q88.9272 586.795 83.9619 591.155 Q78.9649 595.484 70.212 595.484 Q61.4273 595.484 56.4621 591.155 Q51.4968 586.795 51.4968 579.124 Z" fill="#000000" fill-rule="evenodd" fill-opacity="1" /><path clip-path="url(#clip660)" d="M 0 0 M38.479 556.621 L38.479 550.765 L88.0042 550.765 L88.0042 556.621 L38.479 556.621 Z" fill="#000000" fill-rule="evenodd" fill-opacity="1" /><path clip-path="url(#clip660)" d="M 0 0 M67.0928 503.372 Q67.0928 506.141 69.4481 507.733 Q71.8034 509.292 76.0048 509.292 Q80.1425 509.292 82.5296 507.733 Q84.885 506.141 84.885 503.372 Q84.885 500.667 82.5296 499.107 Q80.1425 497.516 76.0048 497.516 Q71.8353 497.516 69.48 499.107 Q67.0928 500.667 67.0928 503.372 M63.0506 503.372 Q63.0506 498.343 66.5517 495.383 Q70.0529 492.423 76.0048 492.423 Q81.9567 492.423 85.4579 495.415 Q88.9272 498.375 88.9272 503.372 Q88.9272 508.465 85.4579 511.425 Q81.9567 514.385 76.0048 514.385 Q70.021 514.385 66.5517 511.425 Q63.0506 508.433 63.0506 503.372 M43.667 536.219 Q43.667 538.957 46.0542 540.548 Q48.4095 542.108 52.5472 542.108 Q56.7485 542.108 59.1038 540.548 Q61.4592 538.988 61.4592 536.219 Q61.4592 533.45 59.1038 531.891 Q56.7485 530.299 52.5472 530.299 Q48.4413 530.299 46.0542 531.891 Q43.667 533.482 43.667 536.219 M39.6248 507.478 L39.6248 502.386 L88.9272 532.113 L88.9272 537.206 L39.6248 507.478 M39.6248 536.219 Q39.6248 531.19 43.1259 528.199 Q46.5952 525.207 52.5472 525.207 Q58.5628 525.207 62.0321 528.199 Q65.5014 531.159 65.5014 536.219 Q65.5014 541.28 62.0321 544.24 Q58.5309 547.168 52.5472 547.168 Q46.6271 547.168 43.1259 544.208 Q39.6248 541.248 39.6248 536.219 Z" fill="#000000" fill-rule="evenodd" fill-opacity="1" /><path clip-path="url(#clip660)" d="M 0 0 M38.5426 487.203 L38.5426 482.111 Q46.0542 477.337 53.2474 474.981 Q60.4406 472.594 67.5384 472.594 Q74.668 472.594 81.8931 474.981 Q89.1182 477.337 96.5979 482.111 L96.5979 487.203 Q89.3091 482.97 82.1159 480.901 Q74.8908 478.801 67.5384 478.801 Q60.186 478.801 53.0246 480.901 Q45.8632 482.97 38.5426 487.203 Z" fill="#000000" fill-rule="evenodd" fill-opacity="1" /><path clip-path="url(#clip660)" d="M 0 0 M500.899 16.7545 L500.899 25.383 Q496.767 21.5346 492.068 19.6307 Q487.409 17.7268 482.143 17.7268 Q471.773 17.7268 466.263 24.0867 Q460.754 30.4061 460.754 42.3968 Q460.754 54.3469 466.263 60.7069 Q471.773 67.0263 482.143 67.0263 Q487.409 67.0263 492.068 65.1223 Q496.767 63.2184 500.899 59.3701 L500.899 67.9175 Q496.605 70.8341 491.784 72.2924 Q487.004 73.7508 481.657 73.7508 Q467.924 73.7508 460.025 65.3654 Q452.126 56.9395 452.126 42.3968 Q452.126 27.8135 460.025 19.4281 Q467.924 11.0023 481.657 11.0023 Q487.085 11.0023 491.865 12.4606 Q496.686 13.8784 500.899 16.7545 Z" fill="#000000" fill-rule="evenodd" fill-opacity="1" /><path clip-path="url(#clip660)" d="M 0 0 M526.298 32.4315 Q520.302 32.4315 516.819 37.1306 Q513.335 41.7891 513.335 49.9314 Q513.335 58.0738 516.778 62.7728 Q520.262 67.4314 526.298 67.4314 Q532.253 67.4314 535.736 62.7323 Q539.22 58.0333 539.22 49.9314 Q539.22 41.8701 535.736 37.1711 Q532.253 32.4315 526.298 32.4315 M526.298 26.1121 Q536.02 26.1121 541.57 32.4315 Q547.119 38.7509 547.119 49.9314 Q547.119 61.0714 541.57 67.4314 Q536.02 73.7508 526.298 73.7508 Q516.535 73.7508 510.985 67.4314 Q505.476 61.0714 505.476 49.9314 Q505.476 38.7509 510.985 32.4315 Q516.535 26.1121 526.298 26.1121 Z" fill="#000000" fill-rule="evenodd" fill-opacity="1" /><path clip-path="url(#clip660)" d="M 0 0 M592.652 45.1919 L592.652 72.576 L585.198 72.576 L585.198 45.4349 Q585.198 38.994 582.686 35.7938 Q580.175 32.5936 575.152 32.5936 Q569.116 32.5936 565.632 36.4419 Q562.148 40.2903 562.148 46.9338 L562.148 72.576 L554.654 72.576 L554.654 27.2059 L562.148 27.2059 L562.148 34.2544 Q564.822 30.163 568.427 28.1376 Q572.073 26.1121 576.813 26.1121 Q584.631 26.1121 588.641 30.9732 Q592.652 35.7938 592.652 45.1919 Z" fill="#000000" fill-rule="evenodd" fill-opacity="1" /><path clip-path="url(#clip660)" d="M 0 0 M633.12 28.9478 L633.12 35.9153 Q629.96 34.1734 626.76 33.3227 Q623.601 32.4315 620.36 32.4315 Q613.109 32.4315 609.098 37.0496 Q605.088 41.6271 605.088 49.9314 Q605.088 58.2358 609.098 62.8538 Q613.109 67.4314 620.36 67.4314 Q623.601 67.4314 626.76 66.5807 Q629.96 65.6895 633.12 63.9476 L633.12 70.8341 Q630.001 72.2924 626.639 73.0216 Q623.317 73.7508 619.55 73.7508 Q609.301 73.7508 603.265 67.3098 Q597.229 60.8689 597.229 49.9314 Q597.229 38.832 603.305 32.472 Q609.422 26.1121 620.036 26.1121 Q623.479 26.1121 626.76 26.8413 Q630.041 27.5299 633.12 28.9478 Z" fill="#000000" fill-rule="evenodd" fill-opacity="1" /><path clip-path="url(#clip660)" d="M 0 0 M679.746 48.0275 L679.746 51.6733 L645.475 51.6733 Q645.962 59.3701 650.093 63.421 Q654.266 67.4314 661.679 67.4314 Q665.973 67.4314 669.983 66.3781 Q674.034 65.3249 678.004 63.2184 L678.004 70.267 Q673.994 71.9684 669.781 72.8596 Q665.568 73.7508 661.233 73.7508 Q650.377 73.7508 644.017 67.4314 Q637.698 61.1119 637.698 50.3365 Q637.698 39.1965 643.693 32.6746 Q649.729 26.1121 659.937 26.1121 Q669.092 26.1121 674.399 32.0264 Q679.746 37.9003 679.746 48.0275 M672.292 45.84 Q672.211 39.7232 668.849 36.0774 Q665.527 32.4315 660.018 32.4315 Q653.78 32.4315 650.012 35.9558 Q646.286 39.4801 645.718 45.8805 L672.292 45.84 Z" fill="#000000" fill-rule="evenodd" fill-opacity="1" /><path clip-path="url(#clip660)" d="M 0 0 M725.278 45.1919 L725.278 72.576 L717.825 72.576 L717.825 45.4349 Q717.825 38.994 715.313 35.7938 Q712.801 32.5936 707.778 32.5936 Q701.742 32.5936 698.259 36.4419 Q694.775 40.2903 694.775 46.9338 L694.775 72.576 L687.281 72.576 L687.281 27.2059 L694.775 27.2059 L694.775 34.2544 Q697.449 30.163 701.054 28.1376 Q704.7 26.1121 709.439 26.1121 Q717.257 26.1121 721.268 30.9732 Q725.278 35.7938 725.278 45.1919 Z" fill="#000000" fill-rule="evenodd" fill-opacity="1" /><path clip-path="url(#clip660)" d="M 0 0 M740.469 14.324 L740.469 27.2059 L755.822 27.2059 L755.822 32.9987 L740.469 32.9987 L740.469 57.6282 Q740.469 63.1779 741.968 64.7578 Q743.507 66.3376 748.166 66.3376 L755.822 66.3376 L755.822 72.576 L748.166 72.576 Q739.537 72.576 736.256 69.3758 Q732.975 66.1351 732.975 57.6282 L732.975 32.9987 L727.506 32.9987 L727.506 27.2059 L732.975 27.2059 L732.975 14.324 L740.469 14.324 Z" fill="#000000" fill-rule="evenodd" fill-opacity="1" /><path clip-path="url(#clip660)" d="M 0 0 M789.931 34.1734 Q788.675 33.4443 787.176 33.1202 Q785.718 32.7556 783.935 32.7556 Q777.616 32.7556 774.213 36.8875 Q770.851 40.9789 770.851 48.6757 L770.851 72.576 L763.357 72.576 L763.357 27.2059 L770.851 27.2059 L770.851 34.2544 Q773.2 30.1225 776.968 28.1376 Q780.735 26.1121 786.123 26.1121 Q786.892 26.1121 787.824 26.2337 Q788.756 26.3147 789.89 26.5172 L789.931 34.1734 Z" fill="#000000" fill-rule="evenodd" fill-opacity="1" /><path clip-path="url(#clip660)" d="M 0 0 M818.368 49.7694 Q809.334 49.7694 805.851 51.8354 Q802.367 53.9013 802.367 58.8839 Q802.367 62.8538 804.959 65.2034 Q807.593 67.5124 812.089 67.5124 Q818.287 67.5124 822.014 63.1374 Q825.781 58.7219 825.781 51.4303 L825.781 49.7694 L818.368 49.7694 M833.235 46.6907 L833.235 72.576 L825.781 72.576 L825.781 65.6895 Q823.229 69.8214 819.421 71.8063 Q815.613 73.7508 810.104 73.7508 Q803.137 73.7508 799.005 69.8619 Q794.913 65.9325 794.913 59.3701 Q794.913 51.7138 800.017 47.825 Q805.162 43.9361 815.33 43.9361 L825.781 43.9361 L825.781 43.2069 Q825.781 38.0623 822.378 35.2672 Q819.016 32.4315 812.899 32.4315 Q809.01 32.4315 805.324 33.3632 Q801.638 34.295 798.235 36.1584 L798.235 29.2718 Q802.326 27.692 806.175 26.9223 Q810.023 26.1121 813.669 26.1121 Q823.513 26.1121 828.374 31.2163 Q833.235 36.3204 833.235 46.6907 Z" fill="#000000" fill-rule="evenodd" fill-opacity="1" /><path clip-path="url(#clip660)" d="M 0 0 M848.426 14.324 L848.426 27.2059 L863.779 27.2059 L863.779 32.9987 L848.426 32.9987 L848.426 57.6282 Q848.426 63.1779 849.925 64.7578 Q851.464 66.3376 856.122 66.3376 L863.779 66.3376 L863.779 72.576 L856.122 72.576 Q847.494 72.576 844.213 69.3758 Q840.932 66.1351 840.932 57.6282 L840.932 32.9987 L835.463 32.9987 L835.463 27.2059 L840.932 27.2059 L840.932 14.324 L848.426 14.324 Z" fill="#000000" fill-rule="evenodd" fill-opacity="1" /><path clip-path="url(#clip660)" d="M 0 0 M871.597 27.2059 L879.051 27.2059 L879.051 72.576 L871.597 72.576 L871.597 27.2059 M871.597 9.54393 L879.051 9.54393 L879.051 18.9825 L871.597 18.9825 L871.597 9.54393 Z" fill="#000000" fill-rule="evenodd" fill-opacity="1" /><path clip-path="url(#clip660)" d="M 0 0 M904.45 32.4315 Q898.454 32.4315 894.971 37.1306 Q891.487 41.7891 891.487 49.9314 Q891.487 58.0738 894.93 62.7728 Q898.414 67.4314 904.45 67.4314 Q910.405 67.4314 913.888 62.7323 Q917.372 58.0333 917.372 49.9314 Q917.372 41.8701 913.888 37.1711 Q910.405 32.4315 904.45 32.4315 M904.45 26.1121 Q914.172 26.1121 919.722 32.4315 Q925.271 38.7509 925.271 49.9314 Q925.271 61.0714 919.722 67.4314 Q914.172 73.7508 904.45 73.7508 Q894.687 73.7508 889.137 67.4314 Q883.628 61.0714 883.628 49.9314 Q883.628 38.7509 889.137 32.4315 Q894.687 26.1121 904.45 26.1121 Z" fill="#000000" fill-rule="evenodd" fill-opacity="1" /><path clip-path="url(#clip660)" d="M 0 0 M970.804 45.1919 L970.804 72.576 L963.35 72.576 L963.35 45.4349 Q963.35 38.994 960.838 35.7938 Q958.327 32.5936 953.304 32.5936 Q947.268 32.5936 943.784 36.4419 Q940.3 40.2903 940.3 46.9338 L940.3 72.576 L932.806 72.576 L932.806 27.2059 L940.3 27.2059 L940.3 34.2544 Q942.974 30.163 946.579 28.1376 Q950.225 26.1121 954.964 26.1121 Q962.783 26.1121 966.793 30.9732 Q970.804 35.7938 970.804 45.1919 Z" fill="#000000" fill-rule="evenodd" fill-opacity="1" /><path clip-path="url(#clip660)" d="M 0 0 M1012.2 65.7705 L1012.2 89.8329 L1004.71 89.8329 L1004.71 27.2059 L1012.2 27.2059 L1012.2 34.0924 Q1014.55 30.0415 1018.12 28.0971 Q1021.72 26.1121 1026.71 26.1121 Q1034.97 26.1121 1040.11 32.6746 Q1045.3 39.2371 1045.3 49.9314 Q1045.3 60.6258 1040.11 67.1883 Q1034.97 73.7508 1026.71 73.7508 Q1021.72 73.7508 1018.12 71.8063 Q1014.55 69.8214 1012.2 65.7705 M1037.56 49.9314 Q1037.56 41.7081 1034.16 37.0496 Q1030.8 32.3505 1024.88 32.3505 Q1018.97 32.3505 1015.57 37.0496 Q1012.2 41.7081 1012.2 49.9314 Q1012.2 58.1548 1015.57 62.8538 Q1018.97 67.5124 1024.88 67.5124 Q1030.8 67.5124 1034.16 62.8538 Q1037.56 58.1548 1037.56 49.9314 Z" fill="#000000" fill-rule="evenodd" fill-opacity="1" /><path clip-path="url(#clip660)" d="M 0 0 M1079.41 34.1734 Q1078.15 33.4443 1076.65 33.1202 Q1075.2 32.7556 1073.41 32.7556 Q1067.09 32.7556 1063.69 36.8875 Q1060.33 40.9789 1060.33 48.6757 L1060.33 72.576 L1052.83 72.576 L1052.83 27.2059 L1060.33 27.2059 L1060.33 34.2544 Q1062.68 30.1225 1066.45 28.1376 Q1070.21 26.1121 1075.6 26.1121 Q1076.37 26.1121 1077.3 26.2337 Q1078.23 26.3147 1079.37 26.5172 L1079.41 34.1734 Z" fill="#000000" fill-rule="evenodd" fill-opacity="1" /><path clip-path="url(#clip660)" d="M 0 0 M1102.98 32.4315 Q1096.99 32.4315 1093.51 37.1306 Q1090.02 41.7891 1090.02 49.9314 Q1090.02 58.0738 1093.46 62.7728 Q1096.95 67.4314 1102.98 67.4314 Q1108.94 67.4314 1112.42 62.7323 Q1115.91 58.0333 1115.91 49.9314 Q1115.91 41.8701 1112.42 37.1711 Q1108.94 32.4315 1102.98 32.4315 M1102.98 26.1121 Q1112.71 26.1121 1118.26 32.4315 Q1123.81 38.7509 1123.81 49.9314 Q1123.81 61.0714 1118.26 67.4314 Q1112.71 73.7508 1102.98 73.7508 Q1093.22 73.7508 1087.67 67.4314 Q1082.16 61.0714 1082.16 49.9314 Q1082.16 38.7509 1087.67 32.4315 Q1093.22 26.1121 1102.98 26.1121 Z" fill="#000000" fill-rule="evenodd" fill-opacity="1" /><path clip-path="url(#clip660)" d="M 0 0 M1154.59 9.54393 L1154.59 15.7418 L1147.46 15.7418 Q1143.45 15.7418 1141.87 17.3622 Q1140.33 18.9825 1140.33 23.1955 L1140.33 27.2059 L1152.61 27.2059 L1152.61 32.9987 L1140.33 32.9987 L1140.33 72.576 L1132.84 72.576 L1132.84 32.9987 L1125.71 32.9987 L1125.71 27.2059 L1132.84 27.2059 L1132.84 24.0462 Q1132.84 16.471 1136.36 13.0277 Q1139.89 9.54393 1147.54 9.54393 L1154.59 9.54393 Z" fill="#000000" fill-rule="evenodd" fill-opacity="1" /><path clip-path="url(#clip660)" d="M 0 0 M1162.41 27.2059 L1169.86 27.2059 L1169.86 72.576 L1162.41 72.576 L1162.41 27.2059 M1162.41 9.54393 L1169.86 9.54393 L1169.86 18.9825 L1162.41 18.9825 L1162.41 9.54393 Z" fill="#000000" fill-rule="evenodd" fill-opacity="1" /><path clip-path="url(#clip660)" d="M 0 0 M1177.68 9.54393 L1185.14 9.54393 L1185.14 72.576 L1177.68 72.576 L1177.68 9.54393 Z" fill="#000000" fill-rule="evenodd" fill-opacity="1" /><path clip-path="url(#clip660)" d="M 0 0 M1231.76 48.0275 L1231.76 51.6733 L1197.49 51.6733 Q1197.98 59.3701 1202.11 63.421 Q1206.28 67.4314 1213.7 67.4314 Q1217.99 67.4314 1222 66.3781 Q1226.05 65.3249 1230.02 63.2184 L1230.02 70.267 Q1226.01 71.9684 1221.8 72.8596 Q1217.58 73.7508 1213.25 73.7508 Q1202.39 73.7508 1196.03 67.4314 Q1189.71 61.1119 1189.71 50.3365 Q1189.71 39.1965 1195.71 32.6746 Q1201.75 26.1121 1211.95 26.1121 Q1221.11 26.1121 1226.42 32.0264 Q1231.76 37.9003 1231.76 48.0275 M1224.31 45.84 Q1224.23 39.7232 1220.87 36.0774 Q1217.54 32.4315 1212.03 32.4315 Q1205.8 32.4315 1202.03 35.9558 Q1198.3 39.4801 1197.74 45.8805 L1224.31 45.84 Z" fill="#000000" fill-rule="evenodd" fill-opacity="1" /><path clip-path="url(#clip660)" d="M 0 0 M1288.92 9.54393 L1288.92 15.7418 L1281.79 15.7418 Q1277.78 15.7418 1276.2 17.3622 Q1274.66 18.9825 1274.66 23.1955 L1274.66 27.2059 L1286.94 27.2059 L1286.94 32.9987 L1274.66 32.9987 L1274.66 72.576 L1267.17 72.576 L1267.17 32.9987 L1260.04 32.9987 L1260.04 27.2059 L1267.17 27.2059 L1267.17 24.0462 Q1267.17 16.471 1270.69 13.0277 Q1274.22 9.54393 1281.87 9.54393 L1288.92 9.54393 Z" fill="#000000" fill-rule="evenodd" fill-opacity="1" /><path clip-path="url(#clip660)" d="M 0 0 M1314.32 32.4315 Q1308.32 32.4315 1304.84 37.1306 Q1301.36 41.7891 1301.36 49.9314 Q1301.36 58.0738 1304.8 62.7728 Q1308.28 67.4314 1314.32 67.4314 Q1320.28 67.4314 1323.76 62.7323 Q1327.24 58.0333 1327.24 49.9314 Q1327.24 41.8701 1323.76 37.1711 Q1320.28 32.4315 1314.32 32.4315 M1314.32 26.1121 Q1324.04 26.1121 1329.59 32.4315 Q1335.14 38.7509 1335.14 49.9314 Q1335.14 61.0714 1329.59 67.4314 Q1324.04 73.7508 1314.32 73.7508 Q1304.56 73.7508 1299.01 67.4314 Q1293.5 61.0714 1293.5 49.9314 Q1293.5 38.7509 1299.01 32.4315 Q1304.56 26.1121 1314.32 26.1121 Z" fill="#000000" fill-rule="evenodd" fill-opacity="1" /><path clip-path="url(#clip660)" d="M 0 0 M1369.25 34.1734 Q1367.99 33.4443 1366.5 33.1202 Q1365.04 32.7556 1363.26 32.7556 Q1356.94 32.7556 1353.53 36.8875 Q1350.17 40.9789 1350.17 48.6757 L1350.17 72.576 L1342.68 72.576 L1342.68 27.2059 L1350.17 27.2059 L1350.17 34.2544 Q1352.52 30.1225 1356.29 28.1376 Q1360.05 26.1121 1365.44 26.1121 Q1366.21 26.1121 1367.14 26.2337 Q1368.08 26.3147 1369.21 26.5172 L1369.25 34.1734 Z" fill="#000000" fill-rule="evenodd" fill-opacity="1" /><path clip-path="url(#clip660)" d="M 0 0 M1433.3 34.0924 L1433.3 9.54393 L1440.75 9.54393 L1440.75 72.576 L1433.3 72.576 L1433.3 65.7705 Q1430.95 69.8214 1427.34 71.8063 Q1423.78 73.7508 1418.75 73.7508 Q1410.53 73.7508 1405.34 67.1883 Q1400.2 60.6258 1400.2 49.9314 Q1400.2 39.2371 1405.34 32.6746 Q1410.53 26.1121 1418.75 26.1121 Q1423.78 26.1121 1427.34 28.0971 Q1430.95 30.0415 1433.3 34.0924 M1407.9 49.9314 Q1407.9 58.1548 1411.26 62.8538 Q1414.66 67.5124 1420.58 67.5124 Q1426.49 67.5124 1429.89 62.8538 Q1433.3 58.1548 1433.3 49.9314 Q1433.3 41.7081 1429.89 37.0496 Q1426.49 32.3505 1420.58 32.3505 Q1414.66 32.3505 1411.26 37.0496 Q1407.9 41.7081 1407.9 49.9314 Z" fill="#000000" fill-rule="evenodd" fill-opacity="1" /><path clip-path="url(#clip660)" d="M 0 0 M1466.15 32.4315 Q1460.15 32.4315 1456.67 37.1306 Q1453.19 41.7891 1453.19 49.9314 Q1453.19 58.0738 1456.63 62.7728 Q1460.11 67.4314 1466.15 67.4314 Q1472.1 67.4314 1475.59 62.7323 Q1479.07 58.0333 1479.07 49.9314 Q1479.07 41.8701 1475.59 37.1711 Q1472.1 32.4315 1466.15 32.4315 M1466.15 26.1121 Q1475.87 26.1121 1481.42 32.4315 Q1486.97 38.7509 1486.97 49.9314 Q1486.97 61.0714 1481.42 67.4314 Q1475.87 73.7508 1466.15 73.7508 Q1456.39 73.7508 1450.84 67.4314 Q1445.33 61.0714 1445.33 49.9314 Q1445.33 38.7509 1450.84 32.4315 Q1456.39 26.1121 1466.15 26.1121 Z" fill="#000000" fill-rule="evenodd" fill-opacity="1" /><path clip-path="url(#clip660)" d="M 0 0 M1490.45 27.2059 L1497.91 27.2059 L1507.22 62.6108 L1516.5 27.2059 L1525.29 27.2059 L1534.61 62.6108 L1543.88 27.2059 L1551.34 27.2059 L1539.47 72.576 L1530.68 72.576 L1520.92 35.3887 L1511.11 72.576 L1502.32 72.576 L1490.45 27.2059 Z" fill="#000000" fill-rule="evenodd" fill-opacity="1" /><path clip-path="url(#clip660)" d="M 0 0 M1596.87 45.1919 L1596.87 72.576 L1589.42 72.576 L1589.42 45.4349 Q1589.42 38.994 1586.91 35.7938 Q1584.39 32.5936 1579.37 32.5936 Q1573.34 32.5936 1569.85 36.4419 Q1566.37 40.2903 1566.37 46.9338 L1566.37 72.576 L1558.87 72.576 L1558.87 27.2059 L1566.37 27.2059 L1566.37 34.2544 Q1569.04 30.163 1572.65 28.1376 Q1576.29 26.1121 1581.03 26.1121 Q1588.85 26.1121 1592.86 30.9732 Q1596.87 35.7938 1596.87 45.1919 Z" fill="#000000" fill-rule="evenodd" fill-opacity="1" /><path clip-path="url(#clip660)" d="M 0 0 M1600.35 27.2059 L1607.81 27.2059 L1617.13 62.6108 L1626.4 27.2059 L1635.19 27.2059 L1644.51 62.6108 L1653.79 27.2059 L1661.24 27.2059 L1649.37 72.576 L1640.58 72.576 L1630.82 35.3887 L1621.01 72.576 L1612.22 72.576 L1600.35 27.2059 Z" fill="#000000" fill-rule="evenodd" fill-opacity="1" /><path clip-path="url(#clip660)" d="M 0 0 M1669.06 27.2059 L1676.51 27.2059 L1676.51 72.576 L1669.06 72.576 L1669.06 27.2059 M1669.06 9.54393 L1676.51 9.54393 L1676.51 18.9825 L1669.06 18.9825 L1669.06 9.54393 Z" fill="#000000" fill-rule="evenodd" fill-opacity="1" /><path clip-path="url(#clip660)" d="M 0 0 M1722.04 45.1919 L1722.04 72.576 L1714.59 72.576 L1714.59 45.4349 Q1714.59 38.994 1712.08 35.7938 Q1709.57 32.5936 1704.54 32.5936 Q1698.51 32.5936 1695.02 36.4419 Q1691.54 40.2903 1691.54 46.9338 L1691.54 72.576 L1684.05 72.576 L1684.05 27.2059 L1691.54 27.2059 L1691.54 34.2544 Q1694.21 30.163 1697.82 28.1376 Q1701.47 26.1121 1706.2 26.1121 Q1714.02 26.1121 1718.03 30.9732 Q1722.04 35.7938 1722.04 45.1919 Z" fill="#000000" fill-rule="evenodd" fill-opacity="1" /><path clip-path="url(#clip660)" d="M 0 0 M1759.72 34.0924 L1759.72 9.54393 L1767.17 9.54393 L1767.17 72.576 L1759.72 72.576 L1759.72 65.7705 Q1757.37 69.8214 1753.76 71.8063 Q1750.2 73.7508 1745.17 73.7508 Q1736.95 73.7508 1731.77 67.1883 Q1726.62 60.6258 1726.62 49.9314 Q1726.62 39.2371 1731.77 32.6746 Q1736.95 26.1121 1745.17 26.1121 Q1750.2 26.1121 1753.76 28.0971 Q1757.37 30.0415 1759.72 34.0924 M1734.32 49.9314 Q1734.32 58.1548 1737.68 62.8538 Q1741.08 67.5124 1747 67.5124 Q1752.91 67.5124 1756.31 62.8538 Q1759.72 58.1548 1759.72 49.9314 Q1759.72 41.7081 1756.31 37.0496 Q1752.91 32.3505 1747 32.3505 Q1741.08 32.3505 1737.68 37.0496 Q1734.32 41.7081 1734.32 49.9314 Z" fill="#000000" fill-rule="evenodd" fill-opacity="1" /><path clip-path="url(#clip660)" d="M 0 0 M1831.22 34.0924 L1831.22 9.54393 L1838.67 9.54393 L1838.67 72.576 L1831.22 72.576 L1831.22 65.7705 Q1828.87 69.8214 1825.26 71.8063 Q1821.7 73.7508 1816.67 73.7508 Q1808.45 73.7508 1803.26 67.1883 Q1798.12 60.6258 1798.12 49.9314 Q1798.12 39.2371 1803.26 32.6746 Q1808.45 26.1121 1816.67 26.1121 Q1821.7 26.1121 1825.26 28.0971 Q1828.87 30.0415 1831.22 34.0924 M1805.82 49.9314 Q1805.82 58.1548 1809.18 62.8538 Q1812.58 67.5124 1818.5 67.5124 Q1824.41 67.5124 1827.81 62.8538 Q1831.22 58.1548 1831.22 49.9314 Q1831.22 41.7081 1827.81 37.0496 Q1824.41 32.3505 1818.5 32.3505 Q1812.58 32.3505 1809.18 37.0496 Q1805.82 41.7081 1805.82 49.9314 Z" fill="#000000" fill-rule="evenodd" fill-opacity="1" /><path clip-path="url(#clip660)" d="M 0 0 M1846.49 27.2059 L1853.94 27.2059 L1853.94 72.576 L1846.49 72.576 L1846.49 27.2059 M1846.49 9.54393 L1853.94 9.54393 L1853.94 18.9825 L1846.49 18.9825 L1846.49 9.54393 Z" fill="#000000" fill-rule="evenodd" fill-opacity="1" /><path clip-path="url(#clip660)" d="M 0 0 M1890.68 28.5427 L1890.68 35.5912 Q1887.52 33.9709 1884.12 33.1607 Q1880.72 32.3505 1877.07 32.3505 Q1871.52 32.3505 1868.73 34.0519 Q1865.97 35.7533 1865.97 39.156 Q1865.97 41.7486 1867.96 43.2475 Q1869.94 44.7058 1875.94 46.0426 L1878.49 46.6097 Q1886.43 48.3111 1889.75 51.4303 Q1893.11 54.509 1893.11 60.0587 Q1893.11 66.3781 1888.09 70.0644 Q1883.11 73.7508 1874.36 73.7508 Q1870.71 73.7508 1866.74 73.0216 Q1862.81 72.3329 1858.44 70.9151 L1858.44 63.2184 Q1862.57 65.3654 1866.58 66.4591 Q1870.59 67.5124 1874.52 67.5124 Q1879.79 67.5124 1882.62 65.73 Q1885.46 63.9071 1885.46 60.6258 Q1885.46 57.5877 1883.39 55.9673 Q1881.37 54.3469 1874.44 52.8481 L1871.85 52.2405 Q1864.92 50.7821 1861.84 47.7845 Q1858.76 44.7463 1858.76 39.4801 Q1858.76 33.0797 1863.3 29.5959 Q1867.84 26.1121 1876.18 26.1121 Q1880.31 26.1121 1883.96 26.7198 Q1887.6 27.3274 1890.68 28.5427 Z" fill="#000000" fill-rule="evenodd" fill-opacity="1" /><path clip-path="url(#clip660)" d="M 0 0 M1908.3 14.324 L1908.3 27.2059 L1923.66 27.2059 L1923.66 32.9987 L1908.3 32.9987 L1908.3 57.6282 Q1908.3 63.1779 1909.8 64.7578 Q1911.34 66.3376 1916 66.3376 L1923.66 66.3376 L1923.66 72.576 L1916 72.576 Q1907.37 72.576 1904.09 69.3758 Q1900.81 66.1351 1900.81 57.6282 L1900.81 32.9987 L1895.34 32.9987 L1895.34 27.2059 L1900.81 27.2059 L1900.81 14.324 L1908.3 14.324 Z" fill="#000000" fill-rule="evenodd" fill-opacity="1" /><path clip-path="url(#clip660)" d="M 0 0 M1952.09 49.7694 Q1943.06 49.7694 1939.58 51.8354 Q1936.09 53.9013 1936.09 58.8839 Q1936.09 62.8538 1938.69 65.2034 Q1941.32 67.5124 1945.82 67.5124 Q1952.01 67.5124 1955.74 63.1374 Q1959.51 58.7219 1959.51 51.4303 L1959.51 49.7694 L1952.09 49.7694 M1966.96 46.6907 L1966.96 72.576 L1959.51 72.576 L1959.51 65.6895 Q1956.96 69.8214 1953.15 71.8063 Q1949.34 73.7508 1943.83 73.7508 Q1936.86 73.7508 1932.73 69.8619 Q1928.64 65.9325 1928.64 59.3701 Q1928.64 51.7138 1933.74 47.825 Q1938.89 43.9361 1949.06 43.9361 L1959.51 43.9361 L1959.51 43.2069 Q1959.51 38.0623 1956.1 35.2672 Q1952.74 32.4315 1946.63 32.4315 Q1942.74 32.4315 1939.05 33.3632 Q1935.36 34.295 1931.96 36.1584 L1931.96 29.2718 Q1936.05 27.692 1939.9 26.9223 Q1943.75 26.1121 1947.4 26.1121 Q1957.24 26.1121 1962.1 31.2163 Q1966.96 36.3204 1966.96 46.6907 Z" fill="#000000" fill-rule="evenodd" fill-opacity="1" /><path clip-path="url(#clip660)" d="M 0 0 M2012.49 45.1919 L2012.49 72.576 L2005.04 72.576 L2005.04 45.4349 Q2005.04 38.994 2002.53 35.7938 Q2000.02 32.5936 1994.99 32.5936 Q1988.96 32.5936 1985.47 36.4419 Q1981.99 40.2903 1981.99 46.9338 L1981.99 72.576 L1974.5 72.576 L1974.5 27.2059 L1981.99 27.2059 L1981.99 34.2544 Q1984.66 30.163 1988.27 28.1376 Q1991.91 26.1121 1996.65 26.1121 Q2004.47 26.1121 2008.48 30.9732 Q2012.49 35.7938 2012.49 45.1919 Z" fill="#000000" fill-rule="evenodd" fill-opacity="1" /><path clip-path="url(#clip660)" d="M 0 0 M2052.96 28.9478 L2052.96 35.9153 Q2049.8 34.1734 2046.6 33.3227 Q2043.44 32.4315 2040.2 32.4315 Q2032.95 32.4315 2028.94 37.0496 Q2024.93 41.6271 2024.93 49.9314 Q2024.93 58.2358 2028.94 62.8538 Q2032.95 67.4314 2040.2 67.4314 Q2043.44 67.4314 2046.6 66.5807 Q2049.8 65.6895 2052.96 63.9476 L2052.96 70.8341 Q2049.84 72.2924 2046.48 73.0216 Q2043.16 73.7508 2039.39 73.7508 Q2029.14 73.7508 2023.11 67.3098 Q2017.07 60.8689 2017.07 49.9314 Q2017.07 38.832 2023.15 32.472 Q2029.26 26.1121 2039.88 26.1121 Q2043.32 26.1121 2046.6 26.8413 Q2049.88 27.5299 2052.96 28.9478 Z" fill="#000000" fill-rule="evenodd" fill-opacity="1" /><path clip-path="url(#clip660)" d="M 0 0 M2099.59 48.0275 L2099.59 51.6733 L2065.32 51.6733 Q2065.8 59.3701 2069.94 63.421 Q2074.11 67.4314 2081.52 67.4314 Q2085.81 67.4314 2089.83 66.3781 Q2093.88 65.3249 2097.85 63.2184 L2097.85 70.267 Q2093.84 71.9684 2089.62 72.8596 Q2085.41 73.7508 2081.08 73.7508 Q2070.22 73.7508 2063.86 67.4314 Q2057.54 61.1119 2057.54 50.3365 Q2057.54 39.1965 2063.53 32.6746 Q2069.57 26.1121 2079.78 26.1121 Q2088.93 26.1121 2094.24 32.0264 Q2099.59 37.9003 2099.59 48.0275 M2092.13 45.84 Q2092.05 39.7232 2088.69 36.0774 Q2085.37 32.4315 2079.86 32.4315 Q2073.62 32.4315 2069.85 35.9558 Q2066.13 39.4801 2065.56 45.8805 L2092.13 45.84 Z" fill="#000000" fill-rule="evenodd" fill-opacity="1" /><path clip-path="url(#clip660)" d="M 0 0 M2136.33 28.5427 L2136.33 35.5912 Q2133.17 33.9709 2129.77 33.1607 Q2126.36 32.3505 2122.72 32.3505 Q2117.17 32.3505 2114.37 34.0519 Q2111.62 35.7533 2111.62 39.156 Q2111.62 41.7486 2113.6 43.2475 Q2115.59 44.7058 2121.58 46.0426 L2124.14 46.6097 Q2132.08 48.3111 2135.4 51.4303 Q2138.76 54.509 2138.76 60.0587 Q2138.76 66.3781 2133.74 70.0644 Q2128.75 73.7508 2120 73.7508 Q2116.36 73.7508 2112.39 73.0216 Q2108.46 72.3329 2104.08 70.9151 L2104.08 63.2184 Q2108.22 65.3654 2112.23 66.4591 Q2116.24 67.5124 2120.17 67.5124 Q2125.43 67.5124 2128.27 65.73 Q2131.1 63.9071 2131.1 60.6258 Q2131.1 57.5877 2129.04 55.9673 Q2127.01 54.3469 2120.09 52.8481 L2117.49 52.2405 Q2110.57 50.7821 2107.49 47.7845 Q2104.41 44.7463 2104.41 39.4801 Q2104.41 33.0797 2108.95 29.5959 Q2113.48 26.1121 2121.83 26.1121 Q2125.96 26.1121 2129.61 26.7198 Q2133.25 27.3274 2136.33 28.5427 Z" fill="#000000" fill-rule="evenodd" fill-opacity="1" /><polyline clip-path="url(#clip662)" style="stroke:#009af9; stroke-width:4; stroke-opacity:1; fill:none" points="
  2292.91,1386.4 1715.85,1381.49 1161.96,1375.35 851.436,1363.08 644.446,1326.25 532.362,1264.89 
  "/>
<polyline clip-path="url(#clip662)" style="stroke:#e26f46; stroke-width:4; stroke-opacity:1; fill:none" points="
  297.978,160.256 313.767,203.261 329.555,315.915 345.344,462.563 361.133,611.287 376.922,744.272 392.71,855.648 408.499,946.002 424.288,1018.37 440.077,1076.2 
  
  "/>
<circle clip-path="url(#clip662)" cx="1299.57" cy="1377.18" r="14" fill="#3da44d" fill-rule="evenodd" fill-opacity="1" stroke="#000000" stroke-opacity="1" stroke-width="3.2"/>
<path clip-path="url(#clip660)" d="
M1459.91 408.716 L2282.27 408.716 L2282.27 166.796 L1459.91 166.796  Z
  " fill="#ffffff" fill-rule="evenodd" fill-opacity="1"/>
<polyline clip-path="url(#clip660)" style="stroke:#000000; stroke-width:4; stroke-opacity:1; fill:none" points="
  1459.91,408.716 2282.27,408.716 2282.27,166.796 1459.91,166.796 1459.91,408.716 
  "/>
<polyline clip-path="url(#clip660)" style="stroke:#009af9; stroke-width:4; stroke-opacity:1; fill:none" points="
  1483.4,227.276 1624.38,227.276 
  "/>
<path clip-path="url(#clip660)" d="M 0 0 M1652.55 228.051 L1652.55 240.713 L1660.05 240.713 Q1663.82 240.713 1665.63 239.162 Q1667.46 237.588 1667.46 234.371 Q1667.46 231.13 1665.63 229.602 Q1663.82 228.051 1660.05 228.051 L1652.55 228.051 M1652.55 213.838 L1652.55 224.255 L1659.47 224.255 Q1662.9 224.255 1664.56 222.982 Q1666.25 221.685 1666.25 219.047 Q1666.25 216.431 1664.56 215.135 Q1662.9 213.838 1659.47 213.838 L1652.55 213.838 M1647.87 209.996 L1659.82 209.996 Q1665.16 209.996 1668.06 212.218 Q1670.95 214.44 1670.95 218.537 Q1670.95 221.709 1669.47 223.584 Q1667.99 225.459 1665.12 225.922 Q1668.57 226.662 1670.46 229.023 Q1672.39 231.361 1672.39 234.88 Q1672.39 239.509 1669.24 242.033 Q1666.09 244.556 1660.28 244.556 L1647.87 244.556 L1647.87 209.996 Z" fill="#000000" fill-rule="evenodd" fill-opacity="1" /><path clip-path="url(#clip660)" d="M 0 0 M1691.88 222.611 Q1691.16 222.195 1690.3 222.01 Q1689.47 221.801 1688.45 221.801 Q1684.84 221.801 1682.9 224.162 Q1680.97 226.5 1680.97 230.898 L1680.97 244.556 L1676.69 244.556 L1676.69 218.63 L1680.97 218.63 L1680.97 222.658 Q1682.32 220.297 1684.47 219.162 Q1686.62 218.005 1689.7 218.005 Q1690.14 218.005 1690.67 218.074 Q1691.21 218.121 1691.85 218.236 L1691.88 222.611 Z" fill="#000000" fill-rule="evenodd" fill-opacity="1" /><path clip-path="url(#clip660)" d="M 0 0 M1696.34 218.63 L1700.6 218.63 L1700.6 244.556 L1696.34 244.556 L1696.34 218.63 M1696.34 208.537 L1700.6 208.537 L1700.6 213.931 L1696.34 213.931 L1696.34 208.537 Z" fill="#000000" fill-rule="evenodd" fill-opacity="1" /><path clip-path="url(#clip660)" d="M 0 0 M1709.28 211.269 L1709.28 218.63 L1718.06 218.63 L1718.06 221.94 L1709.28 221.94 L1709.28 236.014 Q1709.28 239.185 1710.14 240.088 Q1711.02 240.991 1713.68 240.991 L1718.06 240.991 L1718.06 244.556 L1713.68 244.556 Q1708.75 244.556 1706.88 242.727 Q1705 240.875 1705 236.014 L1705 221.94 L1701.88 221.94 L1701.88 218.63 L1705 218.63 L1705 211.269 L1709.28 211.269 Z" fill="#000000" fill-rule="evenodd" fill-opacity="1" /><path clip-path="url(#clip660)" d="M 0 0 M1726.74 211.269 L1726.74 218.63 L1735.51 218.63 L1735.51 221.94 L1726.74 221.94 L1726.74 236.014 Q1726.74 239.185 1727.59 240.088 Q1728.47 240.991 1731.14 240.991 L1735.51 240.991 L1735.51 244.556 L1731.14 244.556 Q1726.21 244.556 1724.33 242.727 Q1722.46 240.875 1722.46 236.014 L1722.46 221.94 L1719.33 221.94 L1719.33 218.63 L1722.46 218.63 L1722.46 211.269 L1726.74 211.269 Z" fill="#000000" fill-rule="evenodd" fill-opacity="1" /><path clip-path="url(#clip660)" d="M 0 0 M1762.15 230.528 L1762.15 232.611 L1742.57 232.611 Q1742.85 237.009 1745.21 239.324 Q1747.59 241.616 1751.83 241.616 Q1754.28 241.616 1756.58 241.014 Q1758.89 240.412 1761.16 239.209 L1761.16 243.236 Q1758.87 244.208 1756.46 244.718 Q1754.05 245.227 1751.58 245.227 Q1745.37 245.227 1741.74 241.616 Q1738.13 238.005 1738.13 231.847 Q1738.13 225.482 1741.55 221.755 Q1745 218.005 1750.83 218.005 Q1756.07 218.005 1759.1 221.385 Q1762.15 224.741 1762.15 230.528 M1757.89 229.278 Q1757.85 225.783 1755.93 223.699 Q1754.03 221.616 1750.88 221.616 Q1747.32 221.616 1745.16 223.63 Q1743.03 225.644 1742.71 229.301 L1757.89 229.278 Z" fill="#000000" fill-rule="evenodd" fill-opacity="1" /><path clip-path="url(#clip660)" d="M 0 0 M1781.64 222.611 Q1780.93 222.195 1780.07 222.01 Q1779.24 221.801 1778.22 221.801 Q1774.61 221.801 1772.66 224.162 Q1770.74 226.5 1770.74 230.898 L1770.74 244.556 L1766.46 244.556 L1766.46 218.63 L1770.74 218.63 L1770.74 222.658 Q1772.08 220.297 1774.24 219.162 Q1776.39 218.005 1779.47 218.005 Q1779.91 218.005 1780.44 218.074 Q1780.97 218.121 1781.62 218.236 L1781.64 222.611 Z" fill="#000000" fill-rule="evenodd" fill-opacity="1" /><path clip-path="url(#clip660)" d="M 0 0 M1780.93 229.672 L1793.4 229.672 L1793.4 233.468 L1780.93 233.468 L1780.93 229.672 Z" fill="#000000" fill-rule="evenodd" fill-opacity="1" /><path clip-path="url(#clip660)" d="M 0 0 M1798.06 209.996 L1805.02 209.996 L1813.84 233.514 L1822.71 209.996 L1829.68 209.996 L1829.68 244.556 L1825.12 244.556 L1825.12 214.209 L1816.2 237.912 L1811.51 237.912 L1802.59 214.209 L1802.59 244.556 L1798.06 244.556 L1798.06 209.996 Z" fill="#000000" fill-rule="evenodd" fill-opacity="1" /><path clip-path="url(#clip660)" d="M 0 0 M1852.8 219.625 L1852.8 223.607 Q1851 222.611 1849.17 222.125 Q1847.36 221.616 1845.51 221.616 Q1841.37 221.616 1839.08 224.255 Q1836.78 226.871 1836.78 231.616 Q1836.78 236.361 1839.08 239 Q1841.37 241.616 1845.51 241.616 Q1847.36 241.616 1849.17 241.13 Q1851 240.621 1852.8 239.625 L1852.8 243.56 Q1851.02 244.394 1849.1 244.81 Q1847.2 245.227 1845.05 245.227 Q1839.19 245.227 1835.74 241.546 Q1832.29 237.866 1832.29 231.616 Q1832.29 225.273 1835.76 221.639 Q1839.26 218.005 1845.33 218.005 Q1847.29 218.005 1849.17 218.422 Q1851.04 218.815 1852.8 219.625 Z" fill="#000000" fill-rule="evenodd" fill-opacity="1" /><path clip-path="url(#clip660)" d="M 0 0 M1871.48 213.167 Q1866.39 213.167 1863.38 216.963 Q1860.39 220.76 1860.39 227.31 Q1860.39 233.838 1863.38 237.634 Q1866.39 241.431 1871.48 241.431 Q1876.57 241.431 1879.54 237.634 Q1882.52 233.838 1882.52 227.31 Q1882.52 220.76 1879.54 216.963 Q1876.57 213.167 1871.48 213.167 M1878.03 243.931 L1884.19 250.667 L1878.54 250.667 L1873.43 245.134 Q1872.66 245.181 1872.25 245.204 Q1871.85 245.227 1871.48 245.227 Q1864.19 245.227 1859.82 240.366 Q1855.46 235.482 1855.46 227.31 Q1855.46 219.116 1859.82 214.255 Q1864.19 209.371 1871.48 209.371 Q1878.75 209.371 1883.1 214.255 Q1887.45 219.116 1887.45 227.31 Q1887.45 233.329 1885.02 237.611 Q1882.62 241.894 1878.03 243.931 Z" fill="#000000" fill-rule="evenodd" fill-opacity="1" /><path clip-path="url(#clip660)" d="M 0 0 M1891.48 234.324 L1891.48 218.63 L1895.74 218.63 L1895.74 234.162 Q1895.74 237.843 1897.18 239.695 Q1898.61 241.523 1901.48 241.523 Q1904.93 241.523 1906.92 239.324 Q1908.94 237.125 1908.94 233.329 L1908.94 218.63 L1913.2 218.63 L1913.2 244.556 L1908.94 244.556 L1908.94 240.574 Q1907.38 242.935 1905.32 244.093 Q1903.29 245.227 1900.58 245.227 Q1896.11 245.227 1893.8 242.449 Q1891.48 239.671 1891.48 234.324 M1902.2 218.005 L1902.2 218.005 Z" fill="#000000" fill-rule="evenodd" fill-opacity="1" /><path clip-path="url(#clip660)" d="M 0 0 M1929.44 231.523 Q1924.28 231.523 1922.29 232.704 Q1920.3 233.884 1920.3 236.732 Q1920.3 239 1921.78 240.343 Q1923.29 241.662 1925.86 241.662 Q1929.4 241.662 1931.53 239.162 Q1933.68 236.639 1933.68 232.472 L1933.68 231.523 L1929.44 231.523 M1937.94 229.764 L1937.94 244.556 L1933.68 244.556 L1933.68 240.621 Q1932.22 242.982 1930.05 244.116 Q1927.87 245.227 1924.72 245.227 Q1920.74 245.227 1918.38 243.005 Q1916.04 240.759 1916.04 237.009 Q1916.04 232.634 1918.96 230.412 Q1921.9 228.19 1927.71 228.19 L1933.68 228.19 L1933.68 227.773 Q1933.68 224.834 1931.74 223.236 Q1929.82 221.616 1926.32 221.616 Q1924.1 221.616 1921.99 222.148 Q1919.88 222.681 1917.94 223.746 L1917.94 219.81 Q1920.28 218.908 1922.48 218.468 Q1924.68 218.005 1926.76 218.005 Q1932.38 218.005 1935.16 220.922 Q1937.94 223.838 1937.94 229.764 Z" fill="#000000" fill-rule="evenodd" fill-opacity="1" /><path clip-path="url(#clip660)" d="M 0 0 M1942.41 218.63 L1946.67 218.63 L1946.67 244.556 L1942.41 244.556 L1942.41 218.63 M1942.41 208.537 L1946.67 208.537 L1946.67 213.931 L1942.41 213.931 L1942.41 208.537 Z" fill="#000000" fill-rule="evenodd" fill-opacity="1" /><path clip-path="url(#clip660)" d="M 0 0 M1968.19 222.565 L1968.19 208.537 L1972.45 208.537 L1972.45 244.556 L1968.19 244.556 L1968.19 240.667 Q1966.85 242.982 1964.79 244.116 Q1962.76 245.227 1959.88 245.227 Q1955.19 245.227 1952.22 241.477 Q1949.28 237.727 1949.28 231.616 Q1949.28 225.505 1952.22 221.755 Q1955.19 218.005 1959.88 218.005 Q1962.76 218.005 1964.79 219.139 Q1966.85 220.25 1968.19 222.565 M1953.68 231.616 Q1953.68 236.315 1955.6 239 Q1957.55 241.662 1960.93 241.662 Q1964.31 241.662 1966.25 239 Q1968.19 236.315 1968.19 231.616 Q1968.19 226.917 1966.25 224.255 Q1964.31 221.57 1960.93 221.57 Q1957.55 221.57 1955.6 224.255 Q1953.68 226.917 1953.68 231.616 Z" fill="#000000" fill-rule="evenodd" fill-opacity="1" /><path clip-path="url(#clip660)" d="M 0 0 M2010.65 219.625 L2010.65 223.607 Q2008.84 222.611 2007.01 222.125 Q2005.21 221.616 2003.36 221.616 Q1999.21 221.616 1996.92 224.255 Q1994.63 226.871 1994.63 231.616 Q1994.63 236.361 1996.92 239 Q1999.21 241.616 2003.36 241.616 Q2005.21 241.616 2007.01 241.13 Q2008.84 240.621 2010.65 239.625 L2010.65 243.56 Q2008.87 244.394 2006.94 244.81 Q2005.05 245.227 2002.89 245.227 Q1997.04 245.227 1993.59 241.546 Q1990.14 237.866 1990.14 231.616 Q1990.14 225.273 1993.61 221.639 Q1997.11 218.005 2003.17 218.005 Q2005.14 218.005 2007.01 218.422 Q2008.89 218.815 2010.65 219.625 Z" fill="#000000" fill-rule="evenodd" fill-opacity="1" /><path clip-path="url(#clip660)" d="M 0 0 M2025.16 221.616 Q2021.74 221.616 2019.75 224.301 Q2017.75 226.963 2017.75 231.616 Q2017.75 236.269 2019.72 238.954 Q2021.71 241.616 2025.16 241.616 Q2028.56 241.616 2030.56 238.931 Q2032.55 236.246 2032.55 231.616 Q2032.55 227.01 2030.56 224.324 Q2028.56 221.616 2025.16 221.616 M2025.16 218.005 Q2030.72 218.005 2033.89 221.616 Q2037.06 225.227 2037.06 231.616 Q2037.06 237.982 2033.89 241.616 Q2030.72 245.227 2025.16 245.227 Q2019.58 245.227 2016.41 241.616 Q2013.26 237.982 2013.26 231.616 Q2013.26 225.227 2016.41 221.616 Q2019.58 218.005 2025.16 218.005 Z" fill="#000000" fill-rule="evenodd" fill-opacity="1" /><path clip-path="url(#clip660)" d="M 0 0 M2056.55 222.611 Q2055.83 222.195 2054.98 222.01 Q2054.14 221.801 2053.12 221.801 Q2049.51 221.801 2047.57 224.162 Q2045.65 226.5 2045.65 230.898 L2045.65 244.556 L2041.37 244.556 L2041.37 218.63 L2045.65 218.63 L2045.65 222.658 Q2046.99 220.297 2049.14 219.162 Q2051.3 218.005 2054.37 218.005 Q2054.81 218.005 2055.35 218.074 Q2055.88 218.121 2056.53 218.236 L2056.55 222.611 Z" fill="#000000" fill-rule="evenodd" fill-opacity="1" /><path clip-path="url(#clip660)" d="M 0 0 M2075.21 222.611 Q2074.49 222.195 2073.63 222.01 Q2072.8 221.801 2071.78 221.801 Q2068.17 221.801 2066.23 224.162 Q2064.31 226.5 2064.31 230.898 L2064.31 244.556 L2060.02 244.556 L2060.02 218.63 L2064.31 218.63 L2064.31 222.658 Q2065.65 220.297 2067.8 219.162 Q2069.95 218.005 2073.03 218.005 Q2073.47 218.005 2074 218.074 Q2074.54 218.121 2075.18 218.236 L2075.21 222.611 Z" fill="#000000" fill-rule="evenodd" fill-opacity="1" /><path clip-path="url(#clip660)" d="M 0 0 M2100.81 230.528 L2100.81 232.611 L2081.23 232.611 Q2081.5 237.009 2083.87 239.324 Q2086.25 241.616 2090.49 241.616 Q2092.94 241.616 2095.23 241.014 Q2097.55 240.412 2099.81 239.209 L2099.81 243.236 Q2097.52 244.208 2095.12 244.718 Q2092.71 245.227 2090.23 245.227 Q2084.03 245.227 2080.39 241.616 Q2076.78 238.005 2076.78 231.847 Q2076.78 225.482 2080.21 221.755 Q2083.66 218.005 2089.49 218.005 Q2094.72 218.005 2097.75 221.385 Q2100.81 224.741 2100.81 230.528 M2096.55 229.278 Q2096.5 225.783 2094.58 223.699 Q2092.68 221.616 2089.54 221.616 Q2085.97 221.616 2083.82 223.63 Q2081.69 225.644 2081.37 229.301 L2096.55 229.278 Z" fill="#000000" fill-rule="evenodd" fill-opacity="1" /><path clip-path="url(#clip660)" d="M 0 0 M2105.28 208.537 L2109.54 208.537 L2109.54 244.556 L2105.28 244.556 L2105.28 208.537 Z" fill="#000000" fill-rule="evenodd" fill-opacity="1" /><path clip-path="url(#clip660)" d="M 0 0 M2125.79 231.523 Q2120.62 231.523 2118.63 232.704 Q2116.64 233.884 2116.64 236.732 Q2116.64 239 2118.12 240.343 Q2119.63 241.662 2122.2 241.662 Q2125.74 241.662 2127.87 239.162 Q2130.02 236.639 2130.02 232.472 L2130.02 231.523 L2125.79 231.523 M2134.28 229.764 L2134.28 244.556 L2130.02 244.556 L2130.02 240.621 Q2128.56 242.982 2126.39 244.116 Q2124.21 245.227 2121.06 245.227 Q2117.08 245.227 2114.72 243.005 Q2112.38 240.759 2112.38 237.009 Q2112.38 232.634 2115.3 230.412 Q2118.24 228.19 2124.05 228.19 L2130.02 228.19 L2130.02 227.773 Q2130.02 224.834 2128.08 223.236 Q2126.16 221.616 2122.66 221.616 Q2120.44 221.616 2118.33 222.148 Q2116.23 222.681 2114.28 223.746 L2114.28 219.81 Q2116.62 218.908 2118.82 218.468 Q2121.02 218.005 2123.1 218.005 Q2128.73 218.005 2131.5 220.922 Q2134.28 223.838 2134.28 229.764 Z" fill="#000000" fill-rule="evenodd" fill-opacity="1" /><path clip-path="url(#clip660)" d="M 0 0 M2142.96 211.269 L2142.96 218.63 L2151.74 218.63 L2151.74 221.94 L2142.96 221.94 L2142.96 236.014 Q2142.96 239.185 2143.82 240.088 Q2144.7 240.991 2147.36 240.991 L2151.74 240.991 L2151.74 244.556 L2147.36 244.556 Q2142.43 244.556 2140.55 242.727 Q2138.68 240.875 2138.68 236.014 L2138.68 221.94 L2135.56 221.94 L2135.56 218.63 L2138.68 218.63 L2138.68 211.269 L2142.96 211.269 Z" fill="#000000" fill-rule="evenodd" fill-opacity="1" /><path clip-path="url(#clip660)" d="M 0 0 M2156.2 218.63 L2160.46 218.63 L2160.46 244.556 L2156.2 244.556 L2156.2 218.63 M2156.2 208.537 L2160.46 208.537 L2160.46 213.931 L2156.2 213.931 L2156.2 208.537 Z" fill="#000000" fill-rule="evenodd" fill-opacity="1" /><path clip-path="url(#clip660)" d="M 0 0 M2174.98 221.616 Q2171.55 221.616 2169.56 224.301 Q2167.57 226.963 2167.57 231.616 Q2167.57 236.269 2169.54 238.954 Q2171.53 241.616 2174.98 241.616 Q2178.38 241.616 2180.37 238.931 Q2182.36 236.246 2182.36 231.616 Q2182.36 227.01 2180.37 224.324 Q2178.38 221.616 2174.98 221.616 M2174.98 218.005 Q2180.53 218.005 2183.7 221.616 Q2186.87 225.227 2186.87 231.616 Q2186.87 237.982 2183.7 241.616 Q2180.53 245.227 2174.98 245.227 Q2169.4 245.227 2166.23 241.616 Q2163.08 237.982 2163.08 231.616 Q2163.08 225.227 2166.23 221.616 Q2169.4 218.005 2174.98 218.005 Z" fill="#000000" fill-rule="evenodd" fill-opacity="1" /><path clip-path="url(#clip660)" d="M 0 0 M2212.89 228.908 L2212.89 244.556 L2208.63 244.556 L2208.63 229.047 Q2208.63 225.366 2207.2 223.537 Q2205.76 221.709 2202.89 221.709 Q2199.44 221.709 2197.45 223.908 Q2195.46 226.107 2195.46 229.903 L2195.46 244.556 L2191.18 244.556 L2191.18 218.63 L2195.46 218.63 L2195.46 222.658 Q2196.99 220.32 2199.05 219.162 Q2201.13 218.005 2203.84 218.005 Q2208.31 218.005 2210.6 220.783 Q2212.89 223.537 2212.89 228.908 Z" fill="#000000" fill-rule="evenodd" fill-opacity="1" /><path clip-path="url(#clip660)" d="M 0 0 M2233.89 219.394 L2233.89 223.422 Q2232.08 222.496 2230.14 222.033 Q2228.19 221.57 2226.11 221.57 Q2222.94 221.57 2221.34 222.542 Q2219.77 223.514 2219.77 225.459 Q2219.77 226.94 2220.9 227.797 Q2222.04 228.63 2225.46 229.394 L2226.92 229.718 Q2231.46 230.69 2233.36 232.472 Q2235.28 234.232 2235.28 237.403 Q2235.28 241.014 2232.41 243.121 Q2229.56 245.227 2224.56 245.227 Q2222.48 245.227 2220.21 244.81 Q2217.96 244.417 2215.46 243.607 L2215.46 239.209 Q2217.82 240.435 2220.11 241.06 Q2222.41 241.662 2224.65 241.662 Q2227.66 241.662 2229.28 240.644 Q2230.9 239.602 2230.9 237.727 Q2230.9 235.991 2229.72 235.065 Q2228.56 234.139 2224.61 233.283 L2223.12 232.935 Q2219.17 232.102 2217.41 230.389 Q2215.65 228.653 2215.65 225.644 Q2215.65 221.986 2218.24 219.996 Q2220.83 218.005 2225.6 218.005 Q2227.96 218.005 2230.05 218.352 Q2232.13 218.699 2233.89 219.394 Z" fill="#000000" fill-rule="evenodd" fill-opacity="1" /><polyline clip-path="url(#clip660)" style="stroke:#e26f46; stroke-width:4; stroke-opacity:1; fill:none" points="
  1483.4,287.756 1624.38,287.756 
  "/>
<path clip-path="url(#clip660)" d="M 0 0 M1672.53 279.11 L1663.15 291.726 L1673.01 305.036 L1667.99 305.036 L1660.44 294.851 L1652.9 305.036 L1647.87 305.036 L1657.94 291.471 L1648.73 279.11 L1653.75 279.11 L1660.63 288.346 L1667.5 279.11 L1672.53 279.11 Z" fill="#000000" fill-rule="evenodd" fill-opacity="1" /><path clip-path="url(#clip660)" d="M 0 0 M1722.78 281.703 L1698.89 290.198 L1722.78 298.647 L1722.78 302.86 L1693.1 292.096 L1693.1 288.253 L1722.78 277.49 L1722.78 281.703 Z" fill="#000000" fill-rule="evenodd" fill-opacity="1" /><path clip-path="url(#clip660)" d="M 0 0 M1757.08 286.402 Q1760.44 287.119 1762.32 289.388 Q1764.21 291.656 1764.21 294.989 Q1764.21 300.105 1760.7 302.906 Q1757.18 305.707 1750.7 305.707 Q1748.52 305.707 1746.21 305.267 Q1743.91 304.851 1741.46 303.994 L1741.46 299.48 Q1743.4 300.614 1745.72 301.193 Q1748.03 301.772 1750.56 301.772 Q1754.96 301.772 1757.25 300.036 Q1759.56 298.3 1759.56 294.989 Q1759.56 291.934 1757.41 290.221 Q1755.28 288.485 1751.46 288.485 L1747.43 288.485 L1747.43 284.642 L1751.65 284.642 Q1755.09 284.642 1756.92 283.277 Q1758.75 281.888 1758.75 279.295 Q1758.75 276.633 1756.85 275.221 Q1754.98 273.786 1751.46 273.786 Q1749.54 273.786 1747.34 274.203 Q1745.14 274.619 1742.5 275.499 L1742.5 271.332 Q1745.16 270.591 1747.48 270.221 Q1749.82 269.851 1751.88 269.851 Q1757.2 269.851 1760.3 272.281 Q1763.4 274.689 1763.4 278.809 Q1763.4 281.679 1761.76 283.67 Q1760.12 285.638 1757.08 286.402 Z" fill="#000000" fill-rule="evenodd" fill-opacity="1" /><path clip-path="url(#clip660)" d="M 0 0 M1779.28 273.554 Q1775.67 273.554 1773.84 277.119 Q1772.04 280.661 1772.04 287.79 Q1772.04 294.897 1773.84 298.462 Q1775.67 302.003 1779.28 302.003 Q1782.92 302.003 1784.72 298.462 Q1786.55 294.897 1786.55 287.79 Q1786.55 280.661 1784.72 277.119 Q1782.92 273.554 1779.28 273.554 M1779.28 269.851 Q1785.09 269.851 1788.15 274.457 Q1791.23 279.04 1791.23 287.79 Q1791.23 296.517 1788.15 301.124 Q1785.09 305.707 1779.28 305.707 Q1773.47 305.707 1770.39 301.124 Q1767.34 296.517 1767.34 287.79 Q1767.34 279.04 1770.39 274.457 Q1773.47 269.851 1779.28 269.851 Z" fill="#000000" fill-rule="evenodd" fill-opacity="1" /><path clip-path="url(#clip660)" d="M 0 0 M1815.63 274.318 L1815.63 301.193 L1821.27 301.193 Q1828.43 301.193 1831.74 297.952 Q1835.07 294.712 1835.07 287.721 Q1835.07 280.777 1831.74 277.559 Q1828.43 274.318 1821.27 274.318 L1815.63 274.318 M1810.95 270.476 L1820.56 270.476 Q1830.6 270.476 1835.3 274.666 Q1840 278.832 1840 287.721 Q1840 296.656 1835.28 300.846 Q1830.56 305.036 1820.56 305.036 L1810.95 305.036 L1810.95 270.476 Z" fill="#000000" fill-rule="evenodd" fill-opacity="1" /><path clip-path="url(#clip660)" d="M 0 0 M1881.71 291.008 L1881.71 293.091 L1862.13 293.091 Q1862.41 297.489 1864.77 299.804 Q1867.15 302.096 1871.39 302.096 Q1873.84 302.096 1876.14 301.494 Q1878.45 300.892 1880.72 299.689 L1880.72 303.716 Q1878.43 304.688 1876.02 305.198 Q1873.61 305.707 1871.14 305.707 Q1864.93 305.707 1861.3 302.096 Q1857.69 298.485 1857.69 292.327 Q1857.69 285.962 1861.11 282.235 Q1864.56 278.485 1870.39 278.485 Q1875.63 278.485 1878.66 281.865 Q1881.71 285.221 1881.71 291.008 M1877.45 289.758 Q1877.41 286.263 1875.49 284.179 Q1873.59 282.096 1870.44 282.096 Q1866.88 282.096 1864.72 284.11 Q1862.59 286.124 1862.27 289.781 L1877.45 289.758 Z" fill="#000000" fill-rule="evenodd" fill-opacity="1" /><path clip-path="url(#clip660)" d="M 0 0 M1888.73 292.096 Q1888.73 296.795 1890.65 299.48 Q1892.59 302.142 1895.97 302.142 Q1899.35 302.142 1901.3 299.48 Q1903.24 296.795 1903.24 292.096 Q1903.24 287.397 1901.3 284.735 Q1899.35 282.05 1895.97 282.05 Q1892.59 282.05 1890.65 284.735 Q1888.73 287.397 1888.73 292.096 M1903.24 301.147 Q1901.9 303.462 1899.84 304.596 Q1897.8 305.707 1894.93 305.707 Q1890.23 305.707 1887.27 301.957 Q1884.33 298.207 1884.33 292.096 Q1884.33 285.985 1887.27 282.235 Q1890.23 278.485 1894.93 278.485 Q1897.8 278.485 1899.84 279.619 Q1901.9 280.73 1903.24 283.045 L1903.24 279.11 L1907.5 279.11 L1907.5 314.897 L1903.24 314.897 L1903.24 301.147 Z" fill="#000000" fill-rule="evenodd" fill-opacity="1" /><path clip-path="url(#clip660)" d="M 0 0 M1911.53 294.804 L1911.53 279.11 L1915.79 279.11 L1915.79 294.642 Q1915.79 298.323 1917.22 300.175 Q1918.66 302.003 1921.53 302.003 Q1924.98 302.003 1926.97 299.804 Q1928.98 297.605 1928.98 293.809 L1928.98 279.11 L1933.24 279.11 L1933.24 305.036 L1928.98 305.036 L1928.98 301.054 Q1927.43 303.415 1925.37 304.573 Q1923.33 305.707 1920.63 305.707 Q1916.16 305.707 1913.84 302.929 Q1911.53 300.151 1911.53 294.804 M1922.25 278.485 L1922.25 278.485 Z" fill="#000000" fill-rule="evenodd" fill-opacity="1" /><path clip-path="url(#clip660)" d="M 0 0 M1949.49 292.003 Q1944.33 292.003 1942.34 293.184 Q1940.35 294.364 1940.35 297.212 Q1940.35 299.48 1941.83 300.823 Q1943.33 302.142 1945.9 302.142 Q1949.44 302.142 1951.57 299.642 Q1953.73 297.119 1953.73 292.952 L1953.73 292.003 L1949.49 292.003 M1957.99 290.244 L1957.99 305.036 L1953.73 305.036 L1953.73 301.101 Q1952.27 303.462 1950.09 304.596 Q1947.92 305.707 1944.77 305.707 Q1940.79 305.707 1938.43 303.485 Q1936.09 301.239 1936.09 297.489 Q1936.09 293.114 1939.01 290.892 Q1941.94 288.67 1947.76 288.67 L1953.73 288.67 L1953.73 288.253 Q1953.73 285.314 1951.78 283.716 Q1949.86 282.096 1946.37 282.096 Q1944.14 282.096 1942.04 282.628 Q1939.93 283.161 1937.99 284.226 L1937.99 280.29 Q1940.32 279.388 1942.52 278.948 Q1944.72 278.485 1946.81 278.485 Q1952.43 278.485 1955.21 281.402 Q1957.99 284.318 1957.99 290.244 Z" fill="#000000" fill-rule="evenodd" fill-opacity="1" /><path clip-path="url(#clip660)" d="M 0 0 M1966.67 271.749 L1966.67 279.11 L1975.44 279.11 L1975.44 282.42 L1966.67 282.42 L1966.67 296.494 Q1966.67 299.665 1967.52 300.568 Q1968.4 301.471 1971.07 301.471 L1975.44 301.471 L1975.44 305.036 L1971.07 305.036 Q1966.13 305.036 1964.26 303.207 Q1962.38 301.355 1962.38 296.494 L1962.38 282.42 L1959.26 282.42 L1959.26 279.11 L1962.38 279.11 L1962.38 271.749 L1966.67 271.749 Z" fill="#000000" fill-rule="evenodd" fill-opacity="1" /><path clip-path="url(#clip660)" d="M 0 0 M1979.91 279.11 L1984.17 279.11 L1984.17 305.036 L1979.91 305.036 L1979.91 279.11 M1979.91 269.017 L1984.17 269.017 L1984.17 274.411 L1979.91 274.411 L1979.91 269.017 Z" fill="#000000" fill-rule="evenodd" fill-opacity="1" /><path clip-path="url(#clip660)" d="M 0 0 M1998.68 282.096 Q1995.25 282.096 1993.26 284.781 Q1991.27 287.443 1991.27 292.096 Q1991.27 296.749 1993.24 299.434 Q1995.23 302.096 1998.68 302.096 Q2002.08 302.096 2004.07 299.411 Q2006.06 296.726 2006.06 292.096 Q2006.06 287.49 2004.07 284.804 Q2002.08 282.096 1998.68 282.096 M1998.68 278.485 Q2004.24 278.485 2007.41 282.096 Q2010.58 285.707 2010.58 292.096 Q2010.58 298.462 2007.41 302.096 Q2004.24 305.707 1998.68 305.707 Q1993.1 305.707 1989.93 302.096 Q1986.78 298.462 1986.78 292.096 Q1986.78 285.707 1989.93 282.096 Q1993.1 278.485 1998.68 278.485 Z" fill="#000000" fill-rule="evenodd" fill-opacity="1" /><path clip-path="url(#clip660)" d="M 0 0 M2036.6 289.388 L2036.6 305.036 L2032.34 305.036 L2032.34 289.527 Q2032.34 285.846 2030.9 284.017 Q2029.47 282.189 2026.6 282.189 Q2023.15 282.189 2021.16 284.388 Q2019.17 286.587 2019.17 290.383 L2019.17 305.036 L2014.88 305.036 L2014.88 279.11 L2019.17 279.11 L2019.17 283.138 Q2020.69 280.8 2022.75 279.642 Q2024.84 278.485 2027.55 278.485 Q2032.01 278.485 2034.31 281.263 Q2036.6 284.017 2036.6 289.388 Z" fill="#000000" fill-rule="evenodd" fill-opacity="1" /><circle clip-path="url(#clip660)" cx="1553.89" cy="348.236" r="23" fill="#3da44d" fill-rule="evenodd" fill-opacity="1" stroke="#000000" stroke-opacity="1" stroke-width="5.12"/>
<path clip-path="url(#clip660)" d="M 0 0 M1648.54 361.581 L1656.18 361.581 L1656.18 335.215 L1647.87 336.882 L1647.87 332.622 L1656.14 330.956 L1660.81 330.956 L1660.81 361.581 L1668.45 361.581 L1668.45 365.516 L1648.54 365.516 L1648.54 361.581 Z" fill="#000000" fill-rule="evenodd" fill-opacity="1" /><path clip-path="url(#clip660)" d="M 0 0 M1680.49 330.956 L1684.42 330.956 L1672.39 369.914 L1668.45 369.914 L1680.49 330.956 Z" fill="#000000" fill-rule="evenodd" fill-opacity="1" /><path clip-path="url(#clip660)" d="M 0 0 M1693.52 361.581 L1709.84 361.581 L1709.84 365.516 L1687.9 365.516 L1687.9 361.581 Q1690.56 358.826 1695.14 354.196 Q1699.75 349.544 1700.93 348.201 Q1703.17 345.678 1704.05 343.942 Q1704.96 342.183 1704.96 340.493 Q1704.96 337.738 1703.01 336.002 Q1701.09 334.266 1697.99 334.266 Q1695.79 334.266 1693.34 335.03 Q1690.9 335.794 1688.13 337.345 L1688.13 332.622 Q1690.95 331.488 1693.4 330.909 Q1695.86 330.331 1697.9 330.331 Q1703.27 330.331 1706.46 333.016 Q1709.65 335.701 1709.65 340.192 Q1709.65 342.321 1708.84 344.243 Q1708.06 346.141 1705.95 348.733 Q1705.37 349.405 1702.27 352.622 Q1699.17 355.817 1693.52 361.581 Z" fill="#000000" fill-rule="evenodd" fill-opacity="1" /><path clip-path="url(#clip660)" d="M 0 0 M1729.56 330.956 L1734.24 330.956 L1734.24 361.581 L1751.07 361.581 L1751.07 365.516 L1729.56 365.516 L1729.56 330.956 Z" fill="#000000" fill-rule="evenodd" fill-opacity="1" /><path clip-path="url(#clip660)" d="M 0 0 M1755.72 330.956 L1775.58 330.956 L1775.58 334.891 L1760.39 334.891 L1760.39 345.076 L1774.1 345.076 L1774.1 349.011 L1760.39 349.011 L1760.39 365.516 L1755.72 365.516 L1755.72 330.956 Z" fill="#000000" fill-rule="evenodd" fill-opacity="1" /><path clip-path="url(#clip660)" d="M 0 0 M1780.23 330.956 L1784.91 330.956 L1784.91 361.581 L1801.74 361.581 L1801.74 365.516 L1780.23 365.516 L1780.23 330.956 Z" fill="#000000" fill-rule="evenodd" fill-opacity="1" /></svg>
