<?xml version="1.0" encoding="utf-8"?>
<svg xmlns="http://www.w3.org/2000/svg" xmlns:xlink="http://www.w3.org/1999/xlink" width="600" height="400" viewBox="0 0 2400 1600">
<defs>
  <clipPath id="clip740">
    <rect x="0" y="0" width="2400" height="1600"/>
  </clipPath>
</defs>
<path clip-path="url(#clip740)" d="
M0 1600 L2400 1600 L2400 0 L0 0  Z
  " fill="#ffffff" fill-rule="evenodd" fill-opacity="1"/>
<defs>
  <clipPath id="clip741">
    <rect x="480" y="0" width="1681" height="1600"/>
  </clipPath>
</defs>
<path clip-path="url(#clip740)" d="
M243.386 1410.9 L2352.76 1410.9 L2352.76 123.472 L243.386 123.472  Z
  " fill="#ffffff" fill-rule="evenodd" fill-opacity="1"/>
<defs>
  <clipPath id="clip742">
    <rect x="243" y="123" width="2110" height="1288"/>
  </clipPath>
</defs>
<polyline clip-path="url(#clip742)" style="stroke:#000000; stroke-width:2; stroke-opacity:0.1; fill:none" points="
  303.227,1410.9 303.227,123.472 
  "/>
<polyline clip-path="url(#clip742)" style="stroke:#000000; stroke-width:2; stroke-opacity:0.1; fill:none" points="
  966.504,1410.9 966.504,123.472 
  "/>
<polyline clip-path="url(#clip742)" style="stroke:#000000; stroke-width:2; stroke-opacity:0.1; fill:none" points="
  1629.78,1410.9 1629.78,123.472 
  "/>
<polyline clip-path="url(#clip742)" style="stroke:#000000; stroke-width:2; stroke-opacity:0.1; fill:none" points="
  2293.06,1410.9 2293.06,123.472 
  "/>
<polyline clip-path="url(#clip740)" style="stroke:#000000; stroke-width:4; stroke-opacity:1; fill:none" points="
  243.386,1410.9 2352.76,1410.9 
  "/>
<polyline clip-path="url(#clip740)" style="stroke:#000000; stroke-width:4; stroke-opacity:1; fill:none" points="
  303.227,1410.9 303.227,1395.45 
  "/>
<polyline clip-path="url(#clip740)" style="stroke:#000000; stroke-width:4; stroke-opacity:1; fill:none" points="
  966.504,1410.9 966.504,1395.45 
  "/>
<polyline clip-path="url(#clip740)" style="stroke:#000000; stroke-width:4; stroke-opacity:1; fill:none" points="
  1629.78,1410.9 1629.78,1395.45 
  "/>
<polyline clip-path="url(#clip740)" style="stroke:#000000; stroke-width:4; stroke-opacity:1; fill:none" points="
  2293.06,1410.9 2293.06,1395.45 
  "/>
<path clip-path="url(#clip740)" d="M 0 0 M257.721 1489.17 L265.36 1489.17 L265.36 1462.8 L257.05 1464.47 L257.05 1460.21 L265.314 1458.54 L269.989 1458.54 L269.989 1489.17 L277.628 1489.17 L277.628 1493.1 L257.721 1493.1 L257.721 1489.17 Z" fill="#000000" fill-rule="evenodd" fill-opacity="1" /><path clip-path="url(#clip740)" d="M 0 0 M292.698 1461.62 Q289.087 1461.62 287.258 1465.19 Q285.452 1468.73 285.452 1475.86 Q285.452 1482.97 287.258 1486.53 Q289.087 1490.07 292.698 1490.07 Q296.332 1490.07 298.137 1486.53 Q299.966 1482.97 299.966 1475.86 Q299.966 1468.73 298.137 1465.19 Q296.332 1461.62 292.698 1461.62 M292.698 1457.92 Q298.508 1457.92 301.563 1462.53 Q304.642 1467.11 304.642 1475.86 Q304.642 1484.59 301.563 1489.19 Q298.508 1493.78 292.698 1493.78 Q286.888 1493.78 283.809 1489.19 Q280.753 1484.59 280.753 1475.86 Q280.753 1467.11 283.809 1462.53 Q286.888 1457.92 292.698 1457.92 Z" fill="#000000" fill-rule="evenodd" fill-opacity="1" /><path clip-path="url(#clip740)" d="M 0 0 M304.642 1452.02 L328.754 1452.02 L328.754 1455.22 L304.642 1455.22 L304.642 1452.02 Z" fill="#000000" fill-rule="evenodd" fill-opacity="1" /><path clip-path="url(#clip740)" d="M 0 0 M336.145 1462.5 L349.405 1462.5 L349.405 1465.69 L331.575 1465.69 L331.575 1462.5 Q333.738 1460.26 337.462 1456.5 Q341.204 1452.72 342.164 1451.63 Q343.988 1449.58 344.703 1448.16 Q345.436 1446.74 345.436 1445.36 Q345.436 1443.12 343.856 1441.71 Q342.295 1440.3 339.775 1440.3 Q337.988 1440.3 335.995 1440.92 Q334.02 1441.54 331.763 1442.8 L331.763 1438.97 Q334.057 1438.05 336.051 1437.58 Q338.045 1437.11 339.7 1437.11 Q344.063 1437.11 346.659 1439.29 Q349.254 1441.47 349.254 1445.12 Q349.254 1446.85 348.596 1448.41 Q347.956 1449.95 346.245 1452.06 Q345.775 1452.6 343.254 1455.22 Q340.734 1457.81 336.145 1462.5 Z" fill="#000000" fill-rule="evenodd" fill-opacity="1" /><path clip-path="url(#clip740)" d="M 0 0 M920.847 1489.17 L928.486 1489.17 L928.486 1462.8 L920.176 1464.47 L920.176 1460.21 L928.44 1458.54 L933.116 1458.54 L933.116 1489.17 L940.754 1489.17 L940.754 1493.1 L920.847 1493.1 L920.847 1489.17 Z" fill="#000000" fill-rule="evenodd" fill-opacity="1" /><path clip-path="url(#clip740)" d="M 0 0 M955.824 1461.62 Q952.213 1461.62 950.384 1465.19 Q948.578 1468.73 948.578 1475.86 Q948.578 1482.97 950.384 1486.53 Q952.213 1490.07 955.824 1490.07 Q959.458 1490.07 961.264 1486.53 Q963.092 1482.97 963.092 1475.86 Q963.092 1468.73 961.264 1465.19 Q959.458 1461.62 955.824 1461.62 M955.824 1457.92 Q961.634 1457.92 964.689 1462.53 Q967.768 1467.11 967.768 1475.86 Q967.768 1484.59 964.689 1489.19 Q961.634 1493.78 955.824 1493.78 Q950.014 1493.78 946.935 1489.19 Q943.879 1484.59 943.879 1475.86 Q943.879 1467.11 946.935 1462.53 Q950.014 1457.92 955.824 1457.92 Z" fill="#000000" fill-rule="evenodd" fill-opacity="1" /><path clip-path="url(#clip740)" d="M 0 0 M967.768 1452.02 L991.88 1452.02 L991.88 1455.22 L967.768 1455.22 L967.768 1452.02 Z" fill="#000000" fill-rule="evenodd" fill-opacity="1" /><path clip-path="url(#clip740)" d="M 0 0 M996.657 1462.5 L1002.86 1462.5 L1002.86 1441.07 L996.111 1442.43 L996.111 1438.97 L1002.83 1437.61 L1006.63 1437.61 L1006.63 1462.5 L1012.83 1462.5 L1012.83 1465.69 L996.657 1465.69 L996.657 1462.5 Z" fill="#000000" fill-rule="evenodd" fill-opacity="1" /><path clip-path="url(#clip740)" d="M 0 0 M1596.95 1489.17 L1604.59 1489.17 L1604.59 1462.8 L1596.28 1464.47 L1596.28 1460.21 L1604.54 1458.54 L1609.22 1458.54 L1609.22 1489.17 L1616.86 1489.17 L1616.86 1493.1 L1596.95 1493.1 L1596.95 1489.17 Z" fill="#000000" fill-rule="evenodd" fill-opacity="1" /><path clip-path="url(#clip740)" d="M 0 0 M1631.93 1461.62 Q1628.32 1461.62 1626.49 1465.19 Q1624.68 1468.73 1624.68 1475.86 Q1624.68 1482.97 1626.49 1486.53 Q1628.32 1490.07 1631.93 1490.07 Q1635.56 1490.07 1637.37 1486.53 Q1639.2 1482.97 1639.2 1475.86 Q1639.2 1468.73 1637.37 1465.19 Q1635.56 1461.62 1631.93 1461.62 M1631.93 1457.92 Q1637.74 1457.92 1640.79 1462.53 Q1643.87 1467.11 1643.87 1475.86 Q1643.87 1484.59 1640.79 1489.19 Q1637.74 1493.78 1631.93 1493.78 Q1626.12 1493.78 1623.04 1489.19 Q1619.98 1484.59 1619.98 1475.86 Q1619.98 1467.11 1623.04 1462.53 Q1626.12 1457.92 1631.93 1457.92 Z" fill="#000000" fill-rule="evenodd" fill-opacity="1" /><path clip-path="url(#clip740)" d="M 0 0 M1653.58 1440.11 Q1650.64 1440.11 1649.16 1443.01 Q1647.69 1445.89 1647.69 1451.68 Q1647.69 1457.46 1649.16 1460.35 Q1650.64 1463.23 1653.58 1463.23 Q1656.53 1463.23 1658 1460.35 Q1659.48 1457.46 1659.48 1451.68 Q1659.48 1445.89 1658 1443.01 Q1656.53 1440.11 1653.58 1440.11 M1653.58 1437.11 Q1658.3 1437.11 1660.78 1440.85 Q1663.28 1444.57 1663.28 1451.68 Q1663.28 1458.77 1660.78 1462.51 Q1658.3 1466.24 1653.58 1466.24 Q1648.86 1466.24 1646.35 1462.51 Q1643.87 1458.77 1643.87 1451.68 Q1643.87 1444.57 1646.35 1440.85 Q1648.86 1437.11 1653.58 1437.11 Z" fill="#000000" fill-rule="evenodd" fill-opacity="1" /><path clip-path="url(#clip740)" d="M 0 0 M2261.57 1489.17 L2269.21 1489.17 L2269.21 1462.8 L2260.9 1464.47 L2260.9 1460.21 L2269.16 1458.54 L2273.84 1458.54 L2273.84 1489.17 L2281.48 1489.17 L2281.48 1493.1 L2261.57 1493.1 L2261.57 1489.17 Z" fill="#000000" fill-rule="evenodd" fill-opacity="1" /><path clip-path="url(#clip740)" d="M 0 0 M2296.55 1461.62 Q2292.94 1461.62 2291.11 1465.19 Q2289.3 1468.73 2289.3 1475.86 Q2289.3 1482.97 2291.11 1486.53 Q2292.94 1490.07 2296.55 1490.07 Q2300.18 1490.07 2301.99 1486.53 Q2303.82 1482.97 2303.82 1475.86 Q2303.82 1468.73 2301.99 1465.19 Q2300.18 1461.62 2296.55 1461.62 M2296.55 1457.92 Q2302.36 1457.92 2305.41 1462.53 Q2308.49 1467.11 2308.49 1475.86 Q2308.49 1484.59 2305.41 1489.19 Q2302.36 1493.78 2296.55 1493.78 Q2290.74 1493.78 2287.66 1489.19 Q2284.6 1484.59 2284.6 1475.86 Q2284.6 1467.11 2287.66 1462.53 Q2290.74 1457.92 2296.55 1457.92 Z" fill="#000000" fill-rule="evenodd" fill-opacity="1" /><path clip-path="url(#clip740)" d="M 0 0 M2309.04 1462.5 L2315.24 1462.5 L2315.24 1441.07 L2308.49 1442.43 L2308.49 1438.97 L2315.21 1437.61 L2319.01 1437.61 L2319.01 1462.5 L2325.21 1462.5 L2325.21 1465.69 L2309.04 1465.69 L2309.04 1462.5 Z" fill="#000000" fill-rule="evenodd" fill-opacity="1" /><path clip-path="url(#clip740)" d="M 0 0 M1100.94 1516.23 L1100.94 1522.5 Q1097.28 1520.74 1094.03 1519.89 Q1090.79 1519.03 1087.76 1519.03 Q1082.51 1519.03 1079.65 1521.06 Q1076.81 1523.1 1076.81 1526.86 Q1076.81 1530.01 1078.69 1531.63 Q1080.6 1533.22 1085.89 1534.21 L1089.77 1535 Q1096.96 1536.37 1100.37 1539.84 Q1103.81 1543.28 1103.81 1549.07 Q1103.81 1555.98 1099.16 1559.54 Q1094.54 1563.11 1085.6 1563.11 Q1082.23 1563.11 1078.41 1562.34 Q1074.62 1561.58 1070.54 1560.08 L1070.54 1553.46 Q1074.46 1555.66 1078.22 1556.77 Q1081.97 1557.89 1085.6 1557.89 Q1091.11 1557.89 1094.1 1555.72 Q1097.09 1553.56 1097.09 1549.55 Q1097.09 1546.05 1094.93 1544.08 Q1092.79 1542.1 1087.89 1541.11 L1083.98 1540.35 Q1076.78 1538.92 1073.57 1535.86 Q1070.35 1532.81 1070.35 1527.37 Q1070.35 1521.06 1074.78 1517.43 Q1079.23 1513.81 1087.03 1513.81 Q1090.37 1513.81 1093.84 1514.41 Q1097.31 1515.02 1100.94 1516.23 Z" fill="#000000" fill-rule="evenodd" fill-opacity="1" /><path clip-path="url(#clip740)" d="M 0 0 M1135.6 1527.91 L1135.6 1533.38 Q1133.12 1532.01 1130.61 1531.34 Q1128.12 1530.64 1125.58 1530.64 Q1119.88 1530.64 1116.73 1534.27 Q1113.58 1537.87 1113.58 1544.39 Q1113.58 1550.92 1116.73 1554.55 Q1119.88 1558.14 1125.58 1558.14 Q1128.12 1558.14 1130.61 1557.47 Q1133.12 1556.77 1135.6 1555.41 L1135.6 1560.82 Q1133.15 1561.96 1130.51 1562.54 Q1127.9 1563.11 1124.94 1563.11 Q1116.89 1563.11 1112.14 1558.05 Q1107.4 1552.99 1107.4 1544.39 Q1107.4 1535.67 1112.18 1530.68 Q1116.98 1525.68 1125.32 1525.68 Q1128.03 1525.68 1130.61 1526.25 Q1133.18 1526.79 1135.6 1527.91 Z" fill="#000000" fill-rule="evenodd" fill-opacity="1" /><path clip-path="url(#clip740)" d="M 0 0 M1157.95 1544.27 Q1150.85 1544.27 1148.11 1545.89 Q1145.37 1547.51 1145.37 1551.43 Q1145.37 1554.55 1147.41 1556.39 Q1149.48 1558.21 1153.01 1558.21 Q1157.88 1558.21 1160.81 1554.77 Q1163.77 1551.3 1163.77 1545.57 L1163.77 1544.27 L1157.95 1544.27 M1169.63 1541.85 L1169.63 1562.19 L1163.77 1562.19 L1163.77 1556.77 Q1161.77 1560.02 1158.77 1561.58 Q1155.78 1563.11 1151.45 1563.11 Q1145.98 1563.11 1142.73 1560.05 Q1139.52 1556.97 1139.52 1551.81 Q1139.52 1545.79 1143.53 1542.74 Q1147.57 1539.68 1155.56 1539.68 L1163.77 1539.68 L1163.77 1539.11 Q1163.77 1535.07 1161.1 1532.87 Q1158.46 1530.64 1153.65 1530.64 Q1150.59 1530.64 1147.7 1531.38 Q1144.8 1532.11 1142.13 1533.57 L1142.13 1528.16 Q1145.34 1526.92 1148.37 1526.31 Q1151.39 1525.68 1154.25 1525.68 Q1161.99 1525.68 1165.81 1529.69 Q1169.63 1533.7 1169.63 1541.85 Z" fill="#000000" fill-rule="evenodd" fill-opacity="1" /><path clip-path="url(#clip740)" d="M 0 0 M1175.77 1512.66 L1181.63 1512.66 L1181.63 1562.19 L1175.77 1562.19 L1175.77 1512.66 Z" fill="#000000" fill-rule="evenodd" fill-opacity="1" /><path clip-path="url(#clip740)" d="M 0 0 M1218.26 1542.9 L1218.26 1545.76 L1191.33 1545.76 Q1191.72 1551.81 1194.96 1554.99 Q1198.24 1558.14 1204.07 1558.14 Q1207.44 1558.14 1210.59 1557.32 Q1213.77 1556.49 1216.89 1554.83 L1216.89 1560.37 Q1213.74 1561.71 1210.43 1562.41 Q1207.12 1563.11 1203.72 1563.11 Q1195.19 1563.11 1190.19 1558.14 Q1185.22 1553.18 1185.22 1544.71 Q1185.22 1535.96 1189.93 1530.83 Q1194.68 1525.68 1202.7 1525.68 Q1209.89 1525.68 1214.06 1530.33 Q1218.26 1534.94 1218.26 1542.9 M1212.4 1541.18 Q1212.34 1536.37 1209.7 1533.51 Q1207.09 1530.64 1202.76 1530.64 Q1197.86 1530.64 1194.9 1533.41 Q1191.97 1536.18 1191.52 1541.21 L1212.4 1541.18 Z" fill="#000000" fill-rule="evenodd" fill-opacity="1" /><path clip-path="url(#clip740)" d="M 0 0 M1247.86 1531.95 L1247.86 1512.66 L1253.72 1512.66 L1253.72 1562.19 L1247.86 1562.19 L1247.86 1556.84 Q1246.02 1560.02 1243.18 1561.58 Q1240.38 1563.11 1236.44 1563.11 Q1229.97 1563.11 1225.9 1557.95 Q1221.86 1552.8 1221.86 1544.39 Q1221.86 1535.99 1225.9 1530.83 Q1229.97 1525.68 1236.44 1525.68 Q1240.38 1525.68 1243.18 1527.24 Q1246.02 1528.77 1247.86 1531.95 M1227.91 1544.39 Q1227.91 1550.85 1230.55 1554.55 Q1233.22 1558.21 1237.87 1558.21 Q1242.51 1558.21 1245.19 1554.55 Q1247.86 1550.85 1247.86 1544.39 Q1247.86 1537.93 1245.19 1534.27 Q1242.51 1530.58 1237.87 1530.58 Q1233.22 1530.58 1230.55 1534.27 Q1227.91 1537.93 1227.91 1544.39 Z" fill="#000000" fill-rule="evenodd" fill-opacity="1" /><path clip-path="url(#clip740)" d="M 0 0 M1287.27 1519.95 L1287.27 1556.9 L1295.03 1556.9 Q1304.87 1556.9 1309.42 1552.45 Q1314 1547.99 1314 1538.38 Q1314 1528.83 1309.42 1524.4 Q1304.87 1519.95 1295.03 1519.95 L1287.27 1519.95 M1280.84 1514.67 L1294.04 1514.67 Q1307.86 1514.67 1314.32 1520.43 Q1320.78 1526.16 1320.78 1538.38 Q1320.78 1550.66 1314.29 1556.42 Q1307.79 1562.19 1294.04 1562.19 L1280.84 1562.19 L1280.84 1514.67 Z" fill="#000000" fill-rule="evenodd" fill-opacity="1" /><path clip-path="url(#clip740)" d="M 0 0 M1326.92 1526.54 L1332.78 1526.54 L1332.78 1562.19 L1326.92 1562.19 L1326.92 1526.54 M1326.92 1512.66 L1332.78 1512.66 L1332.78 1520.08 L1326.92 1520.08 L1326.92 1512.66 Z" fill="#000000" fill-rule="evenodd" fill-opacity="1" /><path clip-path="url(#clip740)" d="M 0 0 M1361.65 1527.59 L1361.65 1533.13 Q1359.17 1531.85 1356.49 1531.22 Q1353.82 1530.58 1350.95 1530.58 Q1346.59 1530.58 1344.4 1531.92 Q1342.23 1533.25 1342.23 1535.93 Q1342.23 1537.96 1343.79 1539.14 Q1345.35 1540.29 1350.06 1541.34 L1352.07 1541.78 Q1358.31 1543.12 1360.92 1545.57 Q1363.56 1547.99 1363.56 1552.35 Q1363.56 1557.32 1359.61 1560.21 Q1355.7 1563.11 1348.82 1563.11 Q1345.96 1563.11 1342.84 1562.54 Q1339.75 1561.99 1336.31 1560.88 L1336.31 1554.83 Q1339.56 1556.52 1342.71 1557.38 Q1345.86 1558.21 1348.95 1558.21 Q1353.09 1558.21 1355.31 1556.81 Q1357.54 1555.37 1357.54 1552.8 Q1357.54 1550.41 1355.92 1549.14 Q1354.33 1547.86 1348.89 1546.68 L1346.85 1546.21 Q1341.41 1545.06 1338.99 1542.71 Q1336.57 1540.32 1336.57 1536.18 Q1336.57 1531.15 1340.13 1528.42 Q1343.7 1525.68 1350.25 1525.68 Q1353.5 1525.68 1356.36 1526.16 Q1359.23 1526.63 1361.65 1527.59 Z" fill="#000000" fill-rule="evenodd" fill-opacity="1" /><path clip-path="url(#clip740)" d="M 0 0 M1375.49 1516.42 L1375.49 1526.54 L1387.56 1526.54 L1387.56 1531.09 L1375.49 1531.09 L1375.49 1550.44 Q1375.49 1554.8 1376.67 1556.04 Q1377.88 1557.28 1381.54 1557.28 L1387.56 1557.28 L1387.56 1562.19 L1381.54 1562.19 Q1374.76 1562.19 1372.18 1559.67 Q1369.61 1557.12 1369.61 1550.44 L1369.61 1531.09 L1365.31 1531.09 L1365.31 1526.54 L1369.61 1526.54 L1369.61 1516.42 L1375.49 1516.42 Z" fill="#000000" fill-rule="evenodd" fill-opacity="1" /><path clip-path="url(#clip740)" d="M 0 0 M1409.9 1544.27 Q1402.8 1544.27 1400.07 1545.89 Q1397.33 1547.51 1397.33 1551.43 Q1397.33 1554.55 1399.37 1556.39 Q1401.43 1558.21 1404.97 1558.21 Q1409.84 1558.21 1412.77 1554.77 Q1415.73 1551.3 1415.73 1545.57 L1415.73 1544.27 L1409.9 1544.27 M1421.58 1541.85 L1421.58 1562.19 L1415.73 1562.19 L1415.73 1556.77 Q1413.72 1560.02 1410.73 1561.58 Q1407.74 1563.11 1403.41 1563.11 Q1397.93 1563.11 1394.69 1560.05 Q1391.47 1556.97 1391.47 1551.81 Q1391.47 1545.79 1395.48 1542.74 Q1399.52 1539.68 1407.51 1539.68 L1415.73 1539.68 L1415.73 1539.11 Q1415.73 1535.07 1413.05 1532.87 Q1410.41 1530.64 1405.6 1530.64 Q1402.55 1530.64 1399.65 1531.38 Q1396.76 1532.11 1394.08 1533.57 L1394.08 1528.16 Q1397.3 1526.92 1400.32 1526.31 Q1403.34 1525.68 1406.21 1525.68 Q1413.94 1525.68 1417.76 1529.69 Q1421.58 1533.7 1421.58 1541.85 Z" fill="#000000" fill-rule="evenodd" fill-opacity="1" /><path clip-path="url(#clip740)" d="M 0 0 M1457.36 1540.67 L1457.36 1562.19 L1451.5 1562.19 L1451.5 1540.86 Q1451.5 1535.8 1449.53 1533.29 Q1447.55 1530.77 1443.61 1530.77 Q1438.86 1530.77 1436.13 1533.79 Q1433.39 1536.82 1433.39 1542.04 L1433.39 1562.19 L1427.5 1562.19 L1427.5 1526.54 L1433.39 1526.54 L1433.39 1532.08 Q1435.49 1528.86 1438.32 1527.27 Q1441.19 1525.68 1444.91 1525.68 Q1451.05 1525.68 1454.21 1529.5 Q1457.36 1533.29 1457.36 1540.67 Z" fill="#000000" fill-rule="evenodd" fill-opacity="1" /><path clip-path="url(#clip740)" d="M 0 0 M1489.15 1527.91 L1489.15 1533.38 Q1486.67 1532.01 1484.16 1531.34 Q1481.67 1530.64 1479.13 1530.64 Q1473.43 1530.64 1470.28 1534.27 Q1467.13 1537.87 1467.13 1544.39 Q1467.13 1550.92 1470.28 1554.55 Q1473.43 1558.14 1479.13 1558.14 Q1481.67 1558.14 1484.16 1557.47 Q1486.67 1556.77 1489.15 1555.41 L1489.15 1560.82 Q1486.7 1561.96 1484.06 1562.54 Q1481.45 1563.11 1478.49 1563.11 Q1470.44 1563.11 1465.7 1558.05 Q1460.95 1552.99 1460.95 1544.39 Q1460.95 1535.67 1465.73 1530.68 Q1470.53 1525.68 1478.87 1525.68 Q1481.58 1525.68 1484.16 1526.25 Q1486.73 1526.79 1489.15 1527.91 Z" fill="#000000" fill-rule="evenodd" fill-opacity="1" /><path clip-path="url(#clip740)" d="M 0 0 M1525.79 1542.9 L1525.79 1545.76 L1498.86 1545.76 Q1499.24 1551.81 1502.49 1554.99 Q1505.77 1558.14 1511.59 1558.14 Q1514.97 1558.14 1518.12 1557.32 Q1521.3 1556.49 1524.42 1554.83 L1524.42 1560.37 Q1521.27 1561.71 1517.96 1562.41 Q1514.65 1563.11 1511.24 1563.11 Q1502.71 1563.11 1497.72 1558.14 Q1492.75 1553.18 1492.75 1544.71 Q1492.75 1535.96 1497.46 1530.83 Q1502.2 1525.68 1510.22 1525.68 Q1517.42 1525.68 1521.59 1530.33 Q1525.79 1534.94 1525.79 1542.9 M1519.93 1541.18 Q1519.87 1536.37 1517.23 1533.51 Q1514.62 1530.64 1510.29 1530.64 Q1505.39 1530.64 1502.43 1533.41 Q1499.5 1536.18 1499.05 1541.21 L1519.93 1541.18 Z" fill="#000000" fill-rule="evenodd" fill-opacity="1" /><polyline clip-path="url(#clip742)" style="stroke:#000000; stroke-width:2; stroke-opacity:0.1; fill:none" points="
  243.386,1378 2352.76,1378 
  "/>
<polyline clip-path="url(#clip742)" style="stroke:#000000; stroke-width:2; stroke-opacity:0.1; fill:none" points="
  243.386,1095.17 2352.76,1095.17 
  "/>
<polyline clip-path="url(#clip742)" style="stroke:#000000; stroke-width:2; stroke-opacity:0.1; fill:none" points="
  243.386,812.343 2352.76,812.343 
  "/>
<polyline clip-path="url(#clip742)" style="stroke:#000000; stroke-width:2; stroke-opacity:0.1; fill:none" points="
  243.386,529.514 2352.76,529.514 
  "/>
<polyline clip-path="url(#clip742)" style="stroke:#000000; stroke-width:2; stroke-opacity:0.1; fill:none" points="
  243.386,246.684 2352.76,246.684 
  "/>
<polyline clip-path="url(#clip740)" style="stroke:#000000; stroke-width:4; stroke-opacity:1; fill:none" points="
  243.386,1410.9 243.386,123.472 
  "/>
<polyline clip-path="url(#clip740)" style="stroke:#000000; stroke-width:4; stroke-opacity:1; fill:none" points="
  243.386,1378 268.699,1378 
  "/>
<polyline clip-path="url(#clip740)" style="stroke:#000000; stroke-width:4; stroke-opacity:1; fill:none" points="
  243.386,1095.17 268.699,1095.17 
  "/>
<polyline clip-path="url(#clip740)" style="stroke:#000000; stroke-width:4; stroke-opacity:1; fill:none" points="
  243.386,812.343 268.699,812.343 
  "/>
<polyline clip-path="url(#clip740)" style="stroke:#000000; stroke-width:4; stroke-opacity:1; fill:none" points="
  243.386,529.514 268.699,529.514 
  "/>
<polyline clip-path="url(#clip740)" style="stroke:#000000; stroke-width:4; stroke-opacity:1; fill:none" points="
  243.386,246.684 268.699,246.684 
  "/>
<path clip-path="url(#clip740)" d="M 0 0 M114.931 1397.79 L122.57 1397.79 L122.57 1371.43 L114.26 1373.1 L114.26 1368.84 L122.524 1367.17 L127.2 1367.17 L127.2 1397.79 L134.839 1397.79 L134.839 1401.73 L114.931 1401.73 L114.931 1397.79 Z" fill="#000000" fill-rule="evenodd" fill-opacity="1" /><path clip-path="url(#clip740)" d="M 0 0 M149.908 1370.25 Q146.297 1370.25 144.468 1373.81 Q142.663 1377.35 142.663 1384.48 Q142.663 1391.59 144.468 1395.16 Q146.297 1398.7 149.908 1398.7 Q153.542 1398.7 155.348 1395.16 Q157.177 1391.59 157.177 1384.48 Q157.177 1377.35 155.348 1373.81 Q153.542 1370.25 149.908 1370.25 M149.908 1366.54 Q155.718 1366.54 158.774 1371.15 Q161.852 1375.73 161.852 1384.48 Q161.852 1393.21 158.774 1397.82 Q155.718 1402.4 149.908 1402.4 Q144.098 1402.4 141.019 1397.82 Q137.964 1393.21 137.964 1384.48 Q137.964 1375.73 141.019 1371.15 Q144.098 1366.54 149.908 1366.54 Z" fill="#000000" fill-rule="evenodd" fill-opacity="1" /><path clip-path="url(#clip740)" d="M 0 0 M161.852 1360.65 L185.964 1360.65 L185.964 1363.84 L161.852 1363.84 L161.852 1360.65 Z" fill="#000000" fill-rule="evenodd" fill-opacity="1" /><path clip-path="url(#clip740)" d="M 0 0 M201.593 1359.18 Q204.32 1359.76 205.844 1361.61 Q207.386 1363.45 207.386 1366.16 Q207.386 1370.31 204.527 1372.59 Q201.669 1374.86 196.402 1374.86 Q194.634 1374.86 192.754 1374.51 Q190.892 1374.17 188.898 1373.47 L188.898 1369.81 Q190.478 1370.73 192.359 1371.2 Q194.239 1371.67 196.29 1371.67 Q199.863 1371.67 201.725 1370.26 Q203.606 1368.85 203.606 1366.16 Q203.606 1363.67 201.857 1362.28 Q200.126 1360.87 197.023 1360.87 L193.75 1360.87 L193.75 1357.75 L197.173 1357.75 Q199.976 1357.75 201.462 1356.64 Q202.947 1355.51 202.947 1353.41 Q202.947 1351.24 201.405 1350.1 Q199.882 1348.93 197.023 1348.93 Q195.462 1348.93 193.675 1349.27 Q191.889 1349.61 189.744 1350.32 L189.744 1346.94 Q191.907 1346.33 193.788 1346.03 Q195.688 1345.73 197.362 1345.73 Q201.687 1345.73 204.208 1347.71 Q206.728 1349.66 206.728 1353.01 Q206.728 1355.34 205.392 1356.96 Q204.057 1358.56 201.593 1359.18 Z" fill="#000000" fill-rule="evenodd" fill-opacity="1" /><path clip-path="url(#clip740)" d="M 0 0 M115.703 1114.97 L123.341 1114.97 L123.341 1088.6 L115.031 1090.27 L115.031 1086.01 L123.295 1084.34 L127.971 1084.34 L127.971 1114.97 L135.61 1114.97 L135.61 1118.9 L115.703 1118.9 L115.703 1114.97 Z" fill="#000000" fill-rule="evenodd" fill-opacity="1" /><path clip-path="url(#clip740)" d="M 0 0 M150.679 1087.42 Q147.068 1087.42 145.239 1090.98 Q143.434 1094.53 143.434 1101.66 Q143.434 1108.76 145.239 1112.33 Q147.068 1115.87 150.679 1115.87 Q154.313 1115.87 156.119 1112.33 Q157.948 1108.76 157.948 1101.66 Q157.948 1094.53 156.119 1090.98 Q154.313 1087.42 150.679 1087.42 M150.679 1083.72 Q156.489 1083.72 159.545 1088.32 Q162.624 1092.91 162.624 1101.66 Q162.624 1110.38 159.545 1114.99 Q156.489 1119.57 150.679 1119.57 Q144.869 1119.57 141.79 1114.99 Q138.735 1110.38 138.735 1101.66 Q138.735 1092.91 141.79 1088.32 Q144.869 1083.72 150.679 1083.72 Z" fill="#000000" fill-rule="evenodd" fill-opacity="1" /><path clip-path="url(#clip740)" d="M 0 0 M162.624 1077.82 L186.735 1077.82 L186.735 1081.01 L162.624 1081.01 L162.624 1077.82 Z" fill="#000000" fill-rule="evenodd" fill-opacity="1" /><path clip-path="url(#clip740)" d="M 0 0 M194.127 1088.29 L207.386 1088.29 L207.386 1091.49 L189.556 1091.49 L189.556 1088.29 Q191.719 1086.05 195.443 1082.29 Q199.186 1078.51 200.145 1077.42 Q201.969 1075.37 202.684 1073.96 Q203.418 1072.53 203.418 1071.16 Q203.418 1068.92 201.838 1067.51 Q200.277 1066.1 197.757 1066.1 Q195.97 1066.1 193.976 1066.72 Q192.001 1067.34 189.744 1068.6 L189.744 1064.76 Q192.039 1063.84 194.033 1063.37 Q196.026 1062.9 197.681 1062.9 Q202.045 1062.9 204.64 1065.08 Q207.236 1067.27 207.236 1070.91 Q207.236 1072.64 206.577 1074.21 Q205.938 1075.75 204.226 1077.85 Q203.756 1078.4 201.236 1081.01 Q198.716 1083.61 194.127 1088.29 Z" fill="#000000" fill-rule="evenodd" fill-opacity="1" /><path clip-path="url(#clip740)" d="M 0 0 M115.402 832.136 L123.04 832.136 L123.04 805.77 L114.73 807.437 L114.73 803.178 L122.994 801.511 L127.67 801.511 L127.67 832.136 L135.309 832.136 L135.309 836.071 L115.402 836.071 L115.402 832.136 Z" fill="#000000" fill-rule="evenodd" fill-opacity="1" /><path clip-path="url(#clip740)" d="M 0 0 M150.378 804.59 Q146.767 804.59 144.939 808.154 Q143.133 811.696 143.133 818.826 Q143.133 825.932 144.939 829.497 Q146.767 833.039 150.378 833.039 Q154.013 833.039 155.818 829.497 Q157.647 825.932 157.647 818.826 Q157.647 811.696 155.818 808.154 Q154.013 804.59 150.378 804.59 M150.378 800.886 Q156.188 800.886 159.244 805.492 Q162.323 810.076 162.323 818.826 Q162.323 827.552 159.244 832.159 Q156.188 836.742 150.378 836.742 Q144.568 836.742 141.489 832.159 Q138.434 827.552 138.434 818.826 Q138.434 810.076 141.489 805.492 Q144.568 800.886 150.378 800.886 Z" fill="#000000" fill-rule="evenodd" fill-opacity="1" /><path clip-path="url(#clip740)" d="M 0 0 M162.323 794.987 L186.434 794.987 L186.434 798.185 L162.323 798.185 L162.323 794.987 Z" fill="#000000" fill-rule="evenodd" fill-opacity="1" /><path clip-path="url(#clip740)" d="M 0 0 M191.211 805.463 L197.418 805.463 L197.418 784.041 L190.666 785.395 L190.666 781.935 L197.38 780.581 L201.18 780.581 L201.18 805.463 L207.386 805.463 L207.386 808.661 L191.211 808.661 L191.211 805.463 Z" fill="#000000" fill-rule="evenodd" fill-opacity="1" /><path clip-path="url(#clip740)" d="M 0 0 M141.055 549.306 L148.694 549.306 L148.694 522.941 L140.384 524.607 L140.384 520.348 L148.648 518.681 L153.324 518.681 L153.324 549.306 L160.963 549.306 L160.963 553.241 L141.055 553.241 L141.055 549.306 Z" fill="#000000" fill-rule="evenodd" fill-opacity="1" /><path clip-path="url(#clip740)" d="M 0 0 M176.032 521.76 Q172.421 521.76 170.592 525.325 Q168.787 528.867 168.787 535.996 Q168.787 543.103 170.592 546.667 Q172.421 550.209 176.032 550.209 Q179.666 550.209 181.472 546.667 Q183.301 543.103 183.301 535.996 Q183.301 528.867 181.472 525.325 Q179.666 521.76 176.032 521.76 M176.032 518.056 Q181.842 518.056 184.898 522.663 Q187.976 527.246 187.976 535.996 Q187.976 544.723 184.898 549.329 Q181.842 553.913 176.032 553.913 Q170.222 553.913 167.143 549.329 Q164.088 544.723 164.088 535.996 Q164.088 527.246 167.143 522.663 Q170.222 518.056 176.032 518.056 Z" fill="#000000" fill-rule="evenodd" fill-opacity="1" /><path clip-path="url(#clip740)" d="M 0 0 M197.681 500.253 Q194.747 500.253 193.261 503.149 Q191.794 506.026 191.794 511.819 Q191.794 517.593 193.261 520.49 Q194.747 523.367 197.681 523.367 Q200.634 523.367 202.101 520.49 Q203.587 517.593 203.587 511.819 Q203.587 506.026 202.101 503.149 Q200.634 500.253 197.681 500.253 M197.681 497.243 Q202.402 497.243 204.885 500.986 Q207.386 504.71 207.386 511.819 Q207.386 518.91 204.885 522.653 Q202.402 526.376 197.681 526.376 Q192.961 526.376 190.459 522.653 Q187.976 518.91 187.976 511.819 Q187.976 504.71 190.459 500.986 Q192.961 497.243 197.681 497.243 Z" fill="#000000" fill-rule="evenodd" fill-opacity="1" /><path clip-path="url(#clip740)" d="M 0 0 M143.745 266.477 L151.384 266.477 L151.384 240.111 L143.074 241.778 L143.074 237.519 L151.338 235.852 L156.013 235.852 L156.013 266.477 L163.652 266.477 L163.652 270.412 L143.745 270.412 L143.745 266.477 Z" fill="#000000" fill-rule="evenodd" fill-opacity="1" /><path clip-path="url(#clip740)" d="M 0 0 M178.722 238.931 Q175.111 238.931 173.282 242.496 Q171.476 246.037 171.476 253.167 Q171.476 260.273 173.282 263.838 Q175.111 267.38 178.722 267.38 Q182.356 267.38 184.161 263.838 Q185.99 260.273 185.99 253.167 Q185.99 246.037 184.161 242.496 Q182.356 238.931 178.722 238.931 M178.722 235.227 Q184.532 235.227 187.587 239.833 Q190.666 244.417 190.666 253.167 Q190.666 261.894 187.587 266.5 Q184.532 271.083 178.722 271.083 Q172.911 271.083 169.833 266.5 Q166.777 261.894 166.777 253.167 Q166.777 244.417 169.833 239.833 Q172.911 235.227 178.722 235.227 Z" fill="#000000" fill-rule="evenodd" fill-opacity="1" /><path clip-path="url(#clip740)" d="M 0 0 M191.211 239.804 L197.418 239.804 L197.418 218.382 L190.666 219.736 L190.666 216.276 L197.38 214.922 L201.18 214.922 L201.18 239.804 L207.386 239.804 L207.386 243.002 L191.211 243.002 L191.211 239.804 Z" fill="#000000" fill-rule="evenodd" fill-opacity="1" /><path clip-path="url(#clip740)" d="M 0 0 M44.8447 946.57 Q44.8447 953.572 50.0645 957.71 Q55.2844 961.816 64.2919 961.816 Q73.2675 961.816 78.4874 957.71 Q83.7073 953.572 83.7073 946.57 Q83.7073 939.568 78.4874 935.494 Q73.2675 931.388 64.2919 931.388 Q55.2844 931.388 50.0645 935.494 Q44.8447 939.568 44.8447 946.57 M39.6248 946.57 Q39.6248 936.576 46.3406 930.592 Q53.0246 924.608 64.2919 924.608 Q75.5274 924.608 82.2432 930.592 Q88.9272 936.576 88.9272 946.57 Q88.9272 956.596 82.2432 962.612 Q75.5592 968.595 64.2919 968.595 Q53.0246 968.595 46.3406 962.612 Q39.6248 956.596 39.6248 946.57 Z" fill="#000000" fill-rule="evenodd" fill-opacity="1" /><path clip-path="url(#clip740)" d="M 0 0 M52.3562 922.667 L52.3562 916.46 L82.275 905.32 L52.3562 894.18 L52.3562 887.974 L88.0042 901.342 L88.0042 909.299 L52.3562 922.667 Z" fill="#000000" fill-rule="evenodd" fill-opacity="1" /><path clip-path="url(#clip740)" d="M 0 0 M68.7161 851.339 L71.5806 851.339 L71.5806 878.266 Q77.6281 877.884 80.8109 874.638 Q83.9619 871.359 83.9619 865.535 Q83.9619 862.161 83.1344 859.01 Q82.3069 855.827 80.6518 852.708 L86.1899 852.708 Q87.5267 855.859 88.227 859.169 Q88.9272 862.479 88.9272 865.885 Q88.9272 874.415 83.9619 879.412 Q78.9967 884.377 70.5303 884.377 Q61.7774 884.377 56.6531 879.666 Q51.4968 874.924 51.4968 866.903 Q51.4968 859.71 56.1438 855.54 Q60.7589 851.339 68.7161 851.339 M66.9973 857.195 Q62.1912 857.259 59.3266 859.901 Q56.4621 862.511 56.4621 866.84 Q56.4621 871.741 59.2312 874.701 Q62.0002 877.629 67.0292 878.075 L66.9973 857.195 Z" fill="#000000" fill-rule="evenodd" fill-opacity="1" /><path clip-path="url(#clip740)" d="M 0 0 M57.8307 824.539 Q57.2578 825.526 57.0032 826.704 Q56.7167 827.85 56.7167 829.25 Q56.7167 834.215 59.9632 836.889 Q63.1779 839.531 69.2253 839.531 L88.0042 839.531 L88.0042 845.419 L52.3562 845.419 L52.3562 839.531 L57.8944 839.531 Q54.6479 837.685 53.0883 834.725 Q51.4968 831.764 51.4968 827.531 Q51.4968 826.927 51.5923 826.194 Q51.656 825.462 51.8151 824.571 L57.8307 824.539 Z" fill="#000000" fill-rule="evenodd" fill-opacity="1" /><path clip-path="url(#clip740)" d="M 0 0 M82.657 812.731 L101.563 812.731 L101.563 818.619 L52.3562 818.619 L52.3562 812.731 L57.7671 812.731 Q54.5842 810.885 53.0564 808.084 Q51.4968 805.251 51.4968 801.336 Q51.4968 794.843 56.6531 790.801 Q61.8093 786.727 70.212 786.727 Q78.6147 786.727 83.771 790.801 Q88.9272 794.843 88.9272 801.336 Q88.9272 805.251 87.3994 808.084 Q85.8398 810.885 82.657 812.731 M70.212 792.806 Q63.7508 792.806 60.0905 795.48 Q56.3984 798.122 56.3984 802.769 Q56.3984 807.416 60.0905 810.089 Q63.7508 812.731 70.212 812.731 Q76.6732 812.731 80.3653 810.089 Q84.0256 807.416 84.0256 802.769 Q84.0256 798.122 80.3653 795.48 Q76.6732 792.806 70.212 792.806 Z" fill="#000000" fill-rule="evenodd" fill-opacity="1" /><path clip-path="url(#clip740)" d="M 0 0 M57.8307 759.927 Q57.2578 760.914 57.0032 762.092 Q56.7167 763.238 56.7167 764.638 Q56.7167 769.603 59.9632 772.277 Q63.1779 774.919 69.2253 774.919 L88.0042 774.919 L88.0042 780.807 L52.3562 780.807 L52.3562 774.919 L57.8944 774.919 Q54.6479 773.073 53.0883 770.113 Q51.4968 767.153 51.4968 762.919 Q51.4968 762.315 51.5923 761.583 Q51.656 760.851 51.8151 759.959 L57.8307 759.927 Z" fill="#000000" fill-rule="evenodd" fill-opacity="1" /><path clip-path="url(#clip740)" d="M 0 0 M68.7161 724.725 L71.5806 724.725 L71.5806 751.652 Q77.6281 751.27 80.8109 748.024 Q83.9619 744.745 83.9619 738.921 Q83.9619 735.547 83.1344 732.396 Q82.3069 729.213 80.6518 726.094 L86.1899 726.094 Q87.5267 729.245 88.227 732.555 Q88.9272 735.865 88.9272 739.271 Q88.9272 747.801 83.9619 752.798 Q78.9967 757.763 70.5303 757.763 Q61.7774 757.763 56.6531 753.053 Q51.4968 748.31 51.4968 740.289 Q51.4968 733.096 56.1438 728.926 Q60.7589 724.725 68.7161 724.725 M66.9973 730.582 Q62.1912 730.645 59.3266 733.287 Q56.4621 735.897 56.4621 740.226 Q56.4621 745.127 59.2312 748.087 Q62.0002 751.015 67.0292 751.461 L66.9973 730.582 Z" fill="#000000" fill-rule="evenodd" fill-opacity="1" /><path clip-path="url(#clip740)" d="M 0 0 M53.4065 695.857 L58.9447 695.857 Q57.6716 698.339 57.035 701.013 Q56.3984 703.686 56.3984 706.551 Q56.3984 710.912 57.7352 713.108 Q59.072 715.272 61.7456 715.272 Q63.7826 715.272 64.9603 713.712 Q66.1061 712.153 67.1565 707.442 L67.6021 705.437 Q68.9389 699.199 71.3897 696.589 Q73.8086 693.947 78.1691 693.947 Q83.1344 693.947 86.0308 697.894 Q88.9272 701.809 88.9272 708.684 Q88.9272 711.548 88.3543 714.667 Q87.8132 717.755 86.6992 721.192 L80.6518 721.192 Q82.3387 717.946 83.198 714.795 Q84.0256 711.644 84.0256 708.556 Q84.0256 704.419 82.6251 702.191 Q81.1929 699.963 78.6147 699.963 Q76.2276 699.963 74.9545 701.586 Q73.6813 703.177 72.5037 708.62 L72.0262 710.657 Q70.8804 716.1 68.5251 718.519 Q66.138 720.938 62.0002 720.938 Q56.9713 720.938 54.2341 717.373 Q51.4968 713.808 51.4968 707.251 Q51.4968 704.005 51.9743 701.14 Q52.4517 698.276 53.4065 695.857 Z" fill="#000000" fill-rule="evenodd" fill-opacity="1" /><path clip-path="url(#clip740)" d="M 0 0 M53.4065 665.078 L58.9447 665.078 Q57.6716 667.561 57.035 670.235 Q56.3984 672.908 56.3984 675.773 Q56.3984 680.133 57.7352 682.33 Q59.072 684.494 61.7456 684.494 Q63.7826 684.494 64.9603 682.934 Q66.1061 681.375 67.1565 676.664 L67.6021 674.659 Q68.9389 668.42 71.3897 665.811 Q73.8086 663.169 78.1691 663.169 Q83.1344 663.169 86.0308 667.115 Q88.9272 671.03 88.9272 677.905 Q88.9272 680.77 88.3543 683.889 Q87.8132 686.976 86.6992 690.414 L80.6518 690.414 Q82.3387 687.167 83.198 684.016 Q84.0256 680.865 84.0256 677.778 Q84.0256 673.64 82.6251 671.412 Q81.1929 669.184 78.6147 669.184 Q76.2276 669.184 74.9545 670.808 Q73.6813 672.399 72.5037 677.842 L72.0262 679.879 Q70.8804 685.321 68.5251 687.74 Q66.138 690.159 62.0002 690.159 Q56.9713 690.159 54.2341 686.595 Q51.4968 683.03 51.4968 676.473 Q51.4968 673.227 51.9743 670.362 Q52.4517 667.497 53.4065 665.078 Z" fill="#000000" fill-rule="evenodd" fill-opacity="1" /><path clip-path="url(#clip740)" d="M 0 0 M73.9359 657.631 L52.3562 657.631 L52.3562 651.774 L73.7131 651.774 Q78.7739 651.774 81.3202 649.801 Q83.8346 647.827 83.8346 643.881 Q83.8346 639.138 80.8109 636.401 Q77.7872 633.632 72.5673 633.632 L52.3562 633.632 L52.3562 627.775 L88.0042 627.775 L88.0042 633.632 L82.5296 633.632 Q85.7762 635.764 87.3676 638.597 Q88.9272 641.398 88.9272 645.122 Q88.9272 651.265 85.1078 654.448 Q81.2883 657.631 73.9359 657.631 M51.4968 642.894 L51.4968 642.894 Z" fill="#000000" fill-rule="evenodd" fill-opacity="1" /><path clip-path="url(#clip740)" d="M 0 0 M57.8307 600.976 Q57.2578 601.962 57.0032 603.14 Q56.7167 604.286 56.7167 605.686 Q56.7167 610.652 59.9632 613.325 Q63.1779 615.967 69.2253 615.967 L88.0042 615.967 L88.0042 621.855 L52.3562 621.855 L52.3562 615.967 L57.8944 615.967 Q54.6479 614.121 53.0883 611.161 Q51.4968 608.201 51.4968 603.968 Q51.4968 603.363 51.5923 602.631 Q51.656 601.899 51.8151 601.008 L57.8307 600.976 Z" fill="#000000" fill-rule="evenodd" fill-opacity="1" /><path clip-path="url(#clip740)" d="M 0 0 M68.7161 565.773 L71.5806 565.773 L71.5806 592.7 Q77.6281 592.318 80.8109 589.072 Q83.9619 585.794 83.9619 579.969 Q83.9619 576.595 83.1344 573.444 Q82.3069 570.261 80.6518 567.142 L86.1899 567.142 Q87.5267 570.293 88.227 573.603 Q88.9272 576.913 88.9272 580.319 Q88.9272 588.849 83.9619 593.846 Q78.9967 598.811 70.5303 598.811 Q61.7774 598.811 56.6531 594.101 Q51.4968 589.358 51.4968 581.338 Q51.4968 574.144 56.1438 569.975 Q60.7589 565.773 68.7161 565.773 M66.9973 571.63 Q62.1912 571.694 59.3266 574.335 Q56.4621 576.945 56.4621 581.274 Q56.4621 586.176 59.2312 589.136 Q62.0002 592.064 67.0292 592.509 L66.9973 571.63 Z" fill="#000000" fill-rule="evenodd" fill-opacity="1" /><path clip-path="url(#clip740)" d="M 0 0 M607.878 16.7545 L607.878 25.383 Q603.746 21.5346 599.047 19.6307 Q594.388 17.7268 589.122 17.7268 Q578.752 17.7268 573.243 24.0867 Q567.733 30.4061 567.733 42.3968 Q567.733 54.3469 573.243 60.7069 Q578.752 67.0263 589.122 67.0263 Q594.388 67.0263 599.047 65.1223 Q603.746 63.2184 607.878 59.3701 L607.878 67.9175 Q603.584 70.8341 598.763 72.2924 Q593.983 73.7508 588.636 73.7508 Q574.904 73.7508 567.004 65.3654 Q559.105 56.9395 559.105 42.3968 Q559.105 27.8135 567.004 19.4281 Q574.904 11.0023 588.636 11.0023 Q594.064 11.0023 598.844 12.4606 Q603.665 13.8784 607.878 16.7545 Z" fill="#000000" fill-rule="evenodd" fill-opacity="1" /><path clip-path="url(#clip740)" d="M 0 0 M614.927 54.671 L614.927 27.2059 L622.38 27.2059 L622.38 54.3874 Q622.38 60.8284 624.892 64.0691 Q627.403 67.2693 632.426 67.2693 Q638.462 67.2693 641.946 63.421 Q645.47 59.5726 645.47 52.9291 L645.47 27.2059 L652.924 27.2059 L652.924 72.576 L645.47 72.576 L645.47 65.6084 Q642.756 69.7404 639.151 71.7658 Q635.586 73.7508 630.847 73.7508 Q623.028 73.7508 618.977 68.8897 Q614.927 64.0286 614.927 54.671 M633.682 26.1121 L633.682 26.1121 Z" fill="#000000" fill-rule="evenodd" fill-opacity="1" /><path clip-path="url(#clip740)" d="M 0 0 M687.033 34.1734 Q685.777 33.4443 684.278 33.1202 Q682.82 32.7556 681.037 32.7556 Q674.718 32.7556 671.315 36.8875 Q667.953 40.9789 667.953 48.6757 L667.953 72.576 L660.459 72.576 L660.459 27.2059 L667.953 27.2059 L667.953 34.2544 Q670.302 30.1225 674.07 28.1376 Q677.837 26.1121 683.225 26.1121 Q683.994 26.1121 684.926 26.2337 Q685.858 26.3147 686.992 26.5172 L687.033 34.1734 Z" fill="#000000" fill-rule="evenodd" fill-opacity="1" /><path clip-path="url(#clip740)" d="M 0 0 M719.683 34.1734 Q718.427 33.4443 716.928 33.1202 Q715.47 32.7556 713.688 32.7556 Q707.368 32.7556 703.965 36.8875 Q700.603 40.9789 700.603 48.6757 L700.603 72.576 L693.109 72.576 L693.109 27.2059 L700.603 27.2059 L700.603 34.2544 Q702.953 30.1225 706.72 28.1376 Q710.487 26.1121 715.875 26.1121 Q716.645 26.1121 717.576 26.2337 Q718.508 26.3147 719.642 26.5172 L719.683 34.1734 Z" fill="#000000" fill-rule="evenodd" fill-opacity="1" /><path clip-path="url(#clip740)" d="M 0 0 M764.486 48.0275 L764.486 51.6733 L730.215 51.6733 Q730.701 59.3701 734.833 63.421 Q739.006 67.4314 746.419 67.4314 Q750.713 67.4314 754.723 66.3781 Q758.774 65.3249 762.744 63.2184 L762.744 70.267 Q758.734 71.9684 754.521 72.8596 Q750.308 73.7508 745.973 73.7508 Q735.117 73.7508 728.757 67.4314 Q722.438 61.1119 722.438 50.3365 Q722.438 39.1965 728.433 32.6746 Q734.469 26.1121 744.677 26.1121 Q753.832 26.1121 759.139 32.0264 Q764.486 37.9003 764.486 48.0275 M757.032 45.84 Q756.951 39.7232 753.589 36.0774 Q750.267 32.4315 744.758 32.4315 Q738.52 32.4315 734.752 35.9558 Q731.025 39.4801 730.458 45.8805 L757.032 45.84 Z" fill="#000000" fill-rule="evenodd" fill-opacity="1" /><path clip-path="url(#clip740)" d="M 0 0 M810.018 45.1919 L810.018 72.576 L802.564 72.576 L802.564 45.4349 Q802.564 38.994 800.053 35.7938 Q797.541 32.5936 792.518 32.5936 Q786.482 32.5936 782.999 36.4419 Q779.515 40.2903 779.515 46.9338 L779.515 72.576 L772.021 72.576 L772.021 27.2059 L779.515 27.2059 L779.515 34.2544 Q782.188 30.163 785.794 28.1376 Q789.439 26.1121 794.179 26.1121 Q801.997 26.1121 806.008 30.9732 Q810.018 35.7938 810.018 45.1919 Z" fill="#000000" fill-rule="evenodd" fill-opacity="1" /><path clip-path="url(#clip740)" d="M 0 0 M825.209 14.324 L825.209 27.2059 L840.562 27.2059 L840.562 32.9987 L825.209 32.9987 L825.209 57.6282 Q825.209 63.1779 826.708 64.7578 Q828.247 66.3376 832.906 66.3376 L840.562 66.3376 L840.562 72.576 L832.906 72.576 Q824.277 72.576 820.996 69.3758 Q817.715 66.1351 817.715 57.6282 L817.715 32.9987 L812.246 32.9987 L812.246 27.2059 L817.715 27.2059 L817.715 14.324 L825.209 14.324 Z" fill="#000000" fill-rule="evenodd" fill-opacity="1" /><path clip-path="url(#clip740)" d="M 0 0 M903.675 28.5427 L903.675 35.5912 Q900.515 33.9709 897.113 33.1607 Q893.71 32.3505 890.064 32.3505 Q884.514 32.3505 881.719 34.0519 Q878.964 35.7533 878.964 39.156 Q878.964 41.7486 880.949 43.2475 Q882.934 44.7058 888.93 46.0426 L891.482 46.6097 Q899.422 48.3111 902.743 51.4303 Q906.106 54.509 906.106 60.0587 Q906.106 66.3781 901.082 70.0644 Q896.1 73.7508 887.35 73.7508 Q883.704 73.7508 879.734 73.0216 Q875.805 72.3329 871.43 70.9151 L871.43 63.2184 Q875.562 65.3654 879.572 66.4591 Q883.582 67.5124 887.512 67.5124 Q892.778 67.5124 895.614 65.73 Q898.449 63.9071 898.449 60.6258 Q898.449 57.5877 896.383 55.9673 Q894.358 54.3469 887.431 52.8481 L884.838 52.2405 Q877.911 50.7821 874.833 47.7845 Q871.754 44.7463 871.754 39.4801 Q871.754 33.0797 876.291 29.5959 Q880.828 26.1121 889.173 26.1121 Q893.305 26.1121 896.95 26.7198 Q900.596 27.3274 903.675 28.5427 Z" fill="#000000" fill-rule="evenodd" fill-opacity="1" /><path clip-path="url(#clip740)" d="M 0 0 M946.574 28.9478 L946.574 35.9153 Q943.414 34.1734 940.214 33.3227 Q937.054 32.4315 933.814 32.4315 Q926.563 32.4315 922.552 37.0496 Q918.542 41.6271 918.542 49.9314 Q918.542 58.2358 922.552 62.8538 Q926.563 67.4314 933.814 67.4314 Q937.054 67.4314 940.214 66.5807 Q943.414 65.6895 946.574 63.9476 L946.574 70.8341 Q943.455 72.2924 940.093 73.0216 Q936.771 73.7508 933.004 73.7508 Q922.755 73.7508 916.719 67.3098 Q910.683 60.8689 910.683 49.9314 Q910.683 38.832 916.759 32.472 Q922.876 26.1121 933.49 26.1121 Q936.933 26.1121 940.214 26.8413 Q943.495 27.5299 946.574 28.9478 Z" fill="#000000" fill-rule="evenodd" fill-opacity="1" /><path clip-path="url(#clip740)" d="M 0 0 M993.2 48.0275 L993.2 51.6733 L958.929 51.6733 Q959.415 59.3701 963.547 63.421 Q967.72 67.4314 975.133 67.4314 Q979.427 67.4314 983.437 66.3781 Q987.488 65.3249 991.458 63.2184 L991.458 70.267 Q987.448 71.9684 983.235 72.8596 Q979.022 73.7508 974.687 73.7508 Q963.831 73.7508 957.471 67.4314 Q951.152 61.1119 951.152 50.3365 Q951.152 39.1965 957.147 32.6746 Q963.183 26.1121 973.391 26.1121 Q982.546 26.1121 987.853 32.0264 Q993.2 37.9003 993.2 48.0275 M985.746 45.84 Q985.665 39.7232 982.303 36.0774 Q978.981 32.4315 973.472 32.4315 Q967.234 32.4315 963.466 35.9558 Q959.739 39.4801 959.172 45.8805 L985.746 45.84 Z" fill="#000000" fill-rule="evenodd" fill-opacity="1" /><path clip-path="url(#clip740)" d="M 0 0 M1038.73 45.1919 L1038.73 72.576 L1031.28 72.576 L1031.28 45.4349 Q1031.28 38.994 1028.77 35.7938 Q1026.26 32.5936 1021.23 32.5936 Q1015.2 32.5936 1011.71 36.4419 Q1008.23 40.2903 1008.23 46.9338 L1008.23 72.576 L1000.73 72.576 L1000.73 27.2059 L1008.23 27.2059 L1008.23 34.2544 Q1010.9 30.163 1014.51 28.1376 Q1018.15 26.1121 1022.89 26.1121 Q1030.71 26.1121 1034.72 30.9732 Q1038.73 35.7938 1038.73 45.1919 Z" fill="#000000" fill-rule="evenodd" fill-opacity="1" /><path clip-path="url(#clip740)" d="M 0 0 M1067.17 49.7694 Q1058.14 49.7694 1054.65 51.8354 Q1051.17 53.9013 1051.17 58.8839 Q1051.17 62.8538 1053.76 65.2034 Q1056.39 67.5124 1060.89 67.5124 Q1067.09 67.5124 1070.82 63.1374 Q1074.58 58.7219 1074.58 51.4303 L1074.58 49.7694 L1067.17 49.7694 M1082.04 46.6907 L1082.04 72.576 L1074.58 72.576 L1074.58 65.6895 Q1072.03 69.8214 1068.22 71.8063 Q1064.41 73.7508 1058.91 73.7508 Q1051.94 73.7508 1047.81 69.8619 Q1043.71 65.9325 1043.71 59.3701 Q1043.71 51.7138 1048.82 47.825 Q1053.96 43.9361 1064.13 43.9361 L1074.58 43.9361 L1074.58 43.2069 Q1074.58 38.0623 1071.18 35.2672 Q1067.82 32.4315 1061.7 32.4315 Q1057.81 32.4315 1054.13 33.3632 Q1050.44 34.295 1047.04 36.1584 L1047.04 29.2718 Q1051.13 27.692 1054.98 26.9223 Q1058.82 26.1121 1062.47 26.1121 Q1072.31 26.1121 1077.18 31.2163 Q1082.04 36.3204 1082.04 46.6907 Z" fill="#000000" fill-rule="evenodd" fill-opacity="1" /><path clip-path="url(#clip740)" d="M 0 0 M1116.14 34.1734 Q1114.89 33.4443 1113.39 33.1202 Q1111.93 32.7556 1110.15 32.7556 Q1103.83 32.7556 1100.43 36.8875 Q1097.07 40.9789 1097.07 48.6757 L1097.07 72.576 L1089.57 72.576 L1089.57 27.2059 L1097.07 27.2059 L1097.07 34.2544 Q1099.41 30.1225 1103.18 28.1376 Q1106.95 26.1121 1112.34 26.1121 Q1113.11 26.1121 1114.04 26.2337 Q1114.97 26.3147 1116.1 26.5172 L1116.14 34.1734 Z" fill="#000000" fill-rule="evenodd" fill-opacity="1" /><path clip-path="url(#clip740)" d="M 0 0 M1123.96 27.2059 L1131.42 27.2059 L1131.42 72.576 L1123.96 72.576 L1123.96 27.2059 M1123.96 9.54393 L1131.42 9.54393 L1131.42 18.9825 L1123.96 18.9825 L1123.96 9.54393 Z" fill="#000000" fill-rule="evenodd" fill-opacity="1" /><path clip-path="url(#clip740)" d="M 0 0 M1156.82 32.4315 Q1150.82 32.4315 1147.34 37.1306 Q1143.85 41.7891 1143.85 49.9314 Q1143.85 58.0738 1147.3 62.7728 Q1150.78 67.4314 1156.82 67.4314 Q1162.77 67.4314 1166.25 62.7323 Q1169.74 58.0333 1169.74 49.9314 Q1169.74 41.8701 1166.25 37.1711 Q1162.77 32.4315 1156.82 32.4315 M1156.82 26.1121 Q1166.54 26.1121 1172.09 32.4315 Q1177.64 38.7509 1177.64 49.9314 Q1177.64 61.0714 1172.09 67.4314 Q1166.54 73.7508 1156.82 73.7508 Q1147.05 73.7508 1141.5 67.4314 Q1135.99 61.0714 1135.99 49.9314 Q1135.99 38.7509 1141.5 32.4315 Q1147.05 26.1121 1156.82 26.1121 Z" fill="#000000" fill-rule="evenodd" fill-opacity="1" /><path clip-path="url(#clip740)" d="M 0 0 M1238.12 34.1734 Q1236.86 33.4443 1235.36 33.1202 Q1233.9 32.7556 1232.12 32.7556 Q1225.8 32.7556 1222.4 36.8875 Q1219.04 40.9789 1219.04 48.6757 L1219.04 72.576 L1211.54 72.576 L1211.54 27.2059 L1219.04 27.2059 L1219.04 34.2544 Q1221.39 30.1225 1225.15 28.1376 Q1228.92 26.1121 1234.31 26.1121 Q1235.08 26.1121 1236.01 26.2337 Q1236.94 26.3147 1238.08 26.5172 L1238.12 34.1734 Z" fill="#000000" fill-rule="evenodd" fill-opacity="1" /><path clip-path="url(#clip740)" d="M 0 0 M1282.92 48.0275 L1282.92 51.6733 L1248.65 51.6733 Q1249.14 59.3701 1253.27 63.421 Q1257.44 67.4314 1264.85 67.4314 Q1269.15 67.4314 1273.16 66.3781 Q1277.21 65.3249 1281.18 63.2184 L1281.18 70.267 Q1277.17 71.9684 1272.96 72.8596 Q1268.74 73.7508 1264.41 73.7508 Q1253.55 73.7508 1247.19 67.4314 Q1240.87 61.1119 1240.87 50.3365 Q1240.87 39.1965 1246.87 32.6746 Q1252.9 26.1121 1263.11 26.1121 Q1272.27 26.1121 1277.57 32.0264 Q1282.92 37.9003 1282.92 48.0275 M1275.47 45.84 Q1275.39 39.7232 1272.02 36.0774 Q1268.7 32.4315 1263.19 32.4315 Q1256.95 32.4315 1253.19 35.9558 Q1249.46 39.4801 1248.89 45.8805 L1275.47 45.84 Z" fill="#000000" fill-rule="evenodd" fill-opacity="1" /><path clip-path="url(#clip740)" d="M 0 0 M1290.74 9.54393 L1298.19 9.54393 L1298.19 72.576 L1290.74 72.576 L1290.74 9.54393 Z" fill="#000000" fill-rule="evenodd" fill-opacity="1" /><path clip-path="url(#clip740)" d="M 0 0 M1326.63 49.7694 Q1317.6 49.7694 1314.11 51.8354 Q1310.63 53.9013 1310.63 58.8839 Q1310.63 62.8538 1313.22 65.2034 Q1315.85 67.5124 1320.35 67.5124 Q1326.55 67.5124 1330.28 63.1374 Q1334.04 58.7219 1334.04 51.4303 L1334.04 49.7694 L1326.63 49.7694 M1341.5 46.6907 L1341.5 72.576 L1334.04 72.576 L1334.04 65.6895 Q1331.49 69.8214 1327.68 71.8063 Q1323.88 73.7508 1318.37 73.7508 Q1311.4 73.7508 1307.27 69.8619 Q1303.18 65.9325 1303.18 59.3701 Q1303.18 51.7138 1308.28 47.825 Q1313.42 43.9361 1323.59 43.9361 L1334.04 43.9361 L1334.04 43.2069 Q1334.04 38.0623 1330.64 35.2672 Q1327.28 32.4315 1321.16 32.4315 Q1317.27 32.4315 1313.59 33.3632 Q1309.9 34.295 1306.5 36.1584 L1306.5 29.2718 Q1310.59 27.692 1314.44 26.9223 Q1318.29 26.1121 1321.93 26.1121 Q1331.77 26.1121 1336.64 31.2163 Q1341.5 36.3204 1341.5 46.6907 Z" fill="#000000" fill-rule="evenodd" fill-opacity="1" /><path clip-path="url(#clip740)" d="M 0 0 M1356.69 14.324 L1356.69 27.2059 L1372.04 27.2059 L1372.04 32.9987 L1356.69 32.9987 L1356.69 57.6282 Q1356.69 63.1779 1358.19 64.7578 Q1359.73 66.3376 1364.38 66.3376 L1372.04 66.3376 L1372.04 72.576 L1364.38 72.576 Q1355.76 72.576 1352.47 69.3758 Q1349.19 66.1351 1349.19 57.6282 L1349.19 32.9987 L1343.72 32.9987 L1343.72 27.2059 L1349.19 27.2059 L1349.19 14.324 L1356.69 14.324 Z" fill="#000000" fill-rule="evenodd" fill-opacity="1" /><path clip-path="url(#clip740)" d="M 0 0 M1379.86 27.2059 L1387.31 27.2059 L1387.31 72.576 L1379.86 72.576 L1379.86 27.2059 M1379.86 9.54393 L1387.31 9.54393 L1387.31 18.9825 L1379.86 18.9825 L1379.86 9.54393 Z" fill="#000000" fill-rule="evenodd" fill-opacity="1" /><path clip-path="url(#clip740)" d="M 0 0 M1389.78 27.2059 L1397.68 27.2059 L1411.86 65.2844 L1426.04 27.2059 L1433.94 27.2059 L1416.92 72.576 L1406.8 72.576 L1389.78 27.2059 Z" fill="#000000" fill-rule="evenodd" fill-opacity="1" /><path clip-path="url(#clip740)" d="M 0 0 M1480.56 48.0275 L1480.56 51.6733 L1446.29 51.6733 Q1446.78 59.3701 1450.91 63.421 Q1455.08 67.4314 1462.5 67.4314 Q1466.79 67.4314 1470.8 66.3781 Q1474.85 65.3249 1478.82 63.2184 L1478.82 70.267 Q1474.81 71.9684 1470.6 72.8596 Q1466.39 73.7508 1462.05 73.7508 Q1451.2 73.7508 1444.84 67.4314 Q1438.52 61.1119 1438.52 50.3365 Q1438.52 39.1965 1444.51 32.6746 Q1450.55 26.1121 1460.76 26.1121 Q1469.91 26.1121 1475.22 32.0264 Q1480.56 37.9003 1480.56 48.0275 M1473.11 45.84 Q1473.03 39.7232 1469.67 36.0774 Q1466.35 32.4315 1460.84 32.4315 Q1454.6 32.4315 1450.83 35.9558 Q1447.1 39.4801 1446.54 45.8805 L1473.11 45.84 Z" fill="#000000" fill-rule="evenodd" fill-opacity="1" /><path clip-path="url(#clip740)" d="M 0 0 M1522.13 14.324 L1522.13 27.2059 L1537.48 27.2059 L1537.48 32.9987 L1522.13 32.9987 L1522.13 57.6282 Q1522.13 63.1779 1523.63 64.7578 Q1525.16 66.3376 1529.82 66.3376 L1537.48 66.3376 L1537.48 72.576 L1529.82 72.576 Q1521.19 72.576 1517.91 69.3758 Q1514.63 66.1351 1514.63 57.6282 L1514.63 32.9987 L1509.16 32.9987 L1509.16 27.2059 L1514.63 27.2059 L1514.63 14.324 L1522.13 14.324 Z" fill="#000000" fill-rule="evenodd" fill-opacity="1" /><path clip-path="url(#clip740)" d="M 0 0 M1562.88 32.4315 Q1556.88 32.4315 1553.4 37.1306 Q1549.92 41.7891 1549.92 49.9314 Q1549.92 58.0738 1553.36 62.7728 Q1556.84 67.4314 1562.88 67.4314 Q1568.83 67.4314 1572.32 62.7323 Q1575.8 58.0333 1575.8 49.9314 Q1575.8 41.8701 1572.32 37.1711 Q1568.83 32.4315 1562.88 32.4315 M1562.88 26.1121 Q1572.6 26.1121 1578.15 32.4315 Q1583.7 38.7509 1583.7 49.9314 Q1583.7 61.0714 1578.15 67.4314 Q1572.6 73.7508 1562.88 73.7508 Q1553.12 73.7508 1547.57 67.4314 Q1542.06 61.0714 1542.06 49.9314 Q1542.06 38.7509 1547.57 32.4315 Q1553.12 26.1121 1562.88 26.1121 Z" fill="#000000" fill-rule="evenodd" fill-opacity="1" /><path clip-path="url(#clip740)" d="M 0 0 M1626.4 43.6931 L1626.4 65.8515 L1639.52 65.8515 Q1646.12 65.8515 1649.28 63.1374 Q1652.48 60.3828 1652.48 54.752 Q1652.48 49.0808 1649.28 46.4072 Q1646.12 43.6931 1639.52 43.6931 L1626.4 43.6931 M1626.4 18.8205 L1626.4 37.0496 L1638.51 37.0496 Q1644.5 37.0496 1647.42 34.8216 Q1650.38 32.5531 1650.38 27.935 Q1650.38 23.3575 1647.42 21.089 Q1644.5 18.8205 1638.51 18.8205 L1626.4 18.8205 M1618.21 12.096 L1639.12 12.096 Q1648.47 12.096 1653.54 15.9849 Q1658.6 19.8737 1658.6 27.0438 Q1658.6 32.5936 1656.01 35.8748 Q1653.42 39.156 1648.39 39.9662 Q1654.43 41.2625 1657.75 45.3944 Q1661.11 49.4858 1661.11 55.6432 Q1661.11 63.745 1655.6 68.1605 Q1650.09 72.576 1639.93 72.576 L1618.21 72.576 L1618.21 12.096 Z" fill="#000000" fill-rule="evenodd" fill-opacity="1" /><path clip-path="url(#clip740)" d="M 0 0 M1704.05 14.0809 L1704.05 22.0612 Q1699.39 19.8332 1695.26 18.7395 Q1691.13 17.6457 1687.28 17.6457 Q1680.6 17.6457 1676.95 20.2383 Q1673.35 22.8309 1673.35 27.611 Q1673.35 31.6214 1675.74 33.6873 Q1678.17 35.7128 1684.89 36.9686 L1689.83 37.9813 Q1698.99 39.7232 1703.32 44.1387 Q1707.7 48.5136 1707.7 55.8863 Q1707.7 64.6767 1701.78 69.2137 Q1695.91 73.7508 1684.53 73.7508 Q1680.23 73.7508 1675.37 72.7785 Q1670.55 71.8063 1665.37 69.9024 L1665.37 61.4765 Q1670.35 64.2716 1675.13 65.6895 Q1679.91 67.1073 1684.53 67.1073 Q1691.54 67.1073 1695.34 64.3527 Q1699.15 61.598 1699.15 56.4939 Q1699.15 52.0379 1696.4 49.5264 Q1693.68 47.0148 1687.44 45.759 L1682.46 44.7868 Q1673.31 42.9639 1669.21 39.075 Q1665.12 35.1862 1665.12 28.2591 Q1665.12 20.2383 1670.75 15.6203 Q1676.43 11.0023 1686.35 11.0023 Q1690.6 11.0023 1695.02 11.7719 Q1699.43 12.5416 1704.05 14.0809 Z" fill="#000000" fill-rule="evenodd" fill-opacity="1" /><path clip-path="url(#clip740)" d="M 0 0 M1707.46 12.096 L1758.62 12.096 L1758.62 18.9825 L1737.15 18.9825 L1737.15 72.576 L1728.93 72.576 L1728.93 18.9825 L1707.46 18.9825 L1707.46 12.096 Z" fill="#000000" fill-rule="evenodd" fill-opacity="1" /><path clip-path="url(#clip740)" d="M 0 0 M1825.46 28.9478 L1825.46 35.9153 Q1822.3 34.1734 1819.1 33.3227 Q1815.94 32.4315 1812.7 32.4315 Q1805.45 32.4315 1801.44 37.0496 Q1797.43 41.6271 1797.43 49.9314 Q1797.43 58.2358 1801.44 62.8538 Q1805.45 67.4314 1812.7 67.4314 Q1815.94 67.4314 1819.1 66.5807 Q1822.3 65.6895 1825.46 63.9476 L1825.46 70.8341 Q1822.34 72.2924 1818.98 73.0216 Q1815.66 73.7508 1811.89 73.7508 Q1801.64 73.7508 1795.6 67.3098 Q1789.57 60.8689 1789.57 49.9314 Q1789.57 38.832 1795.64 32.472 Q1801.76 26.1121 1812.37 26.1121 Q1815.82 26.1121 1819.1 26.8413 Q1822.38 27.5299 1825.46 28.9478 Z" fill="#000000" fill-rule="evenodd" fill-opacity="1" /><path clip-path="url(#clip740)" d="M 0 0 M1832.51 54.671 L1832.51 27.2059 L1839.96 27.2059 L1839.96 54.3874 Q1839.96 60.8284 1842.47 64.0691 Q1844.98 67.2693 1850.01 67.2693 Q1856.04 67.2693 1859.53 63.421 Q1863.05 59.5726 1863.05 52.9291 L1863.05 27.2059 L1870.5 27.2059 L1870.5 72.576 L1863.05 72.576 L1863.05 65.6084 Q1860.34 69.7404 1856.73 71.7658 Q1853.17 73.7508 1848.43 73.7508 Q1840.61 73.7508 1836.56 68.8897 Q1832.51 64.0286 1832.51 54.671 M1851.26 26.1121 L1851.26 26.1121 Z" fill="#000000" fill-rule="evenodd" fill-opacity="1" /><path clip-path="url(#clip740)" d="M 0 0 M1904.61 34.1734 Q1903.36 33.4443 1901.86 33.1202 Q1900.4 32.7556 1898.62 32.7556 Q1892.3 32.7556 1888.9 36.8875 Q1885.53 40.9789 1885.53 48.6757 L1885.53 72.576 L1878.04 72.576 L1878.04 27.2059 L1885.53 27.2059 L1885.53 34.2544 Q1887.88 30.1225 1891.65 28.1376 Q1895.42 26.1121 1900.81 26.1121 Q1901.57 26.1121 1902.51 26.2337 Q1903.44 26.3147 1904.57 26.5172 L1904.61 34.1734 Z" fill="#000000" fill-rule="evenodd" fill-opacity="1" /><path clip-path="url(#clip740)" d="M 0 0 M1907.08 27.2059 L1914.98 27.2059 L1929.16 65.2844 L1943.34 27.2059 L1951.24 27.2059 L1934.23 72.576 L1924.1 72.576 L1907.08 27.2059 Z" fill="#000000" fill-rule="evenodd" fill-opacity="1" /><path clip-path="url(#clip740)" d="M 0 0 M1997.86 48.0275 L1997.86 51.6733 L1963.59 51.6733 Q1964.08 59.3701 1968.21 63.421 Q1972.38 67.4314 1979.8 67.4314 Q1984.09 67.4314 1988.1 66.3781 Q1992.15 65.3249 1996.12 63.2184 L1996.12 70.267 Q1992.11 71.9684 1987.9 72.8596 Q1983.69 73.7508 1979.35 73.7508 Q1968.5 73.7508 1962.14 67.4314 Q1955.82 61.1119 1955.82 50.3365 Q1955.82 39.1965 1961.81 32.6746 Q1967.85 26.1121 1978.06 26.1121 Q1987.21 26.1121 1992.52 32.0264 Q1997.86 37.9003 1997.86 48.0275 M1990.41 45.84 Q1990.33 39.7232 1986.97 36.0774 Q1983.65 32.4315 1978.14 32.4315 Q1971.9 32.4315 1968.13 35.9558 Q1964.4 39.4801 1963.84 45.8805 L1990.41 45.84 Z" fill="#000000" fill-rule="evenodd" fill-opacity="1" /><path clip-path="url(#clip740)" d="M 0 0 M2034.61 28.5427 L2034.61 35.5912 Q2031.45 33.9709 2028.04 33.1607 Q2024.64 32.3505 2021 32.3505 Q2015.45 32.3505 2012.65 34.0519 Q2009.9 35.7533 2009.9 39.156 Q2009.9 41.7486 2011.88 43.2475 Q2013.87 44.7058 2019.86 46.0426 L2022.41 46.6097 Q2030.35 48.3111 2033.67 51.4303 Q2037.04 54.509 2037.04 60.0587 Q2037.04 66.3781 2032.01 70.0644 Q2027.03 73.7508 2018.28 73.7508 Q2014.64 73.7508 2010.67 73.0216 Q2006.74 72.3329 2002.36 70.9151 L2002.36 63.2184 Q2006.49 65.3654 2010.5 66.4591 Q2014.51 67.5124 2018.44 67.5124 Q2023.71 67.5124 2026.55 65.73 Q2029.38 63.9071 2029.38 60.6258 Q2029.38 57.5877 2027.31 55.9673 Q2025.29 54.3469 2018.36 52.8481 L2015.77 52.2405 Q2008.84 50.7821 2005.76 47.7845 Q2002.69 44.7463 2002.69 39.4801 Q2002.69 33.0797 2007.22 29.5959 Q2011.76 26.1121 2020.1 26.1121 Q2024.24 26.1121 2027.88 26.7198 Q2031.53 27.3274 2034.61 28.5427 Z" fill="#000000" fill-rule="evenodd" fill-opacity="1" /><polyline clip-path="url(#clip742)" style="stroke:#009af9; stroke-width:4; stroke-opacity:1; fill:none" points="
  308.338,1094 316.916,1094.84 325.468,1093.96 334.033,1093.94 342.599,1093.92 351.164,1093.9 359.729,1093.88 368.294,1093.86 376.871,1094.7 385.436,1094.68 
  393.989,1093.8 402.554,1093.78 411.119,1093.76 419.684,1093.75 428.261,1094.59 436.814,1093.71 445.391,1094.55 453.944,1093.67 462.521,1094.51 471.074,1093.63 
  479.651,1094.47 488.216,1094.45 496.781,1094.43 505.346,1094.41 513.899,1093.53 522.476,1094.37 531.029,1093.49 539.594,1093.47 548.159,1093.45 556.725,1093.43 
  565.29,1093.41 573.855,1093.4 582.42,1093.38 590.985,1093.36 599.55,1093.34 608.115,1093.32 616.68,1093.3 625.245,1093.28 633.81,1093.26 642.375,1093.24 
  650.94,1093.22 659.505,1093.2 668.07,1093.18 676.635,1093.16 685.2,1093.14 693.765,1093.12 702.33,1093.1 710.895,1093.08 719.46,1093.06 728.025,1093.04 
  736.59,1093.03 745.155,1093.01 753.72,1092.99 762.286,1092.97 770.851,1092.95 779.416,1092.93 787.981,1092.91 796.546,1092.89 805.111,1092.87 813.676,1092.85 
  822.241,1092.83 830.806,1092.81 839.371,1092.79 847.936,1092.77 856.501,1092.75 865.066,1092.73 873.631,1092.71 882.196,1092.69 890.761,1092.68 899.326,1092.66 
  907.891,1092.64 916.456,1092.62 925.021,1092.6 933.586,1092.58 942.151,1092.56 950.716,1092.54 959.281,1092.52 967.847,1092.5 976.412,1092.48 984.977,1092.46 
  993.542,1092.44 1002.11,1092.42 1010.67,1092.4 1019.24,1092.38 1027.8,1092.36 1036.37,1092.34 1044.93,1092.32 1053.5,1092.31 1062.06,1092.29 1070.63,1092.27 
  1079.19,1092.25 1087.76,1092.23 1096.32,1092.21 1104.89,1092.19 1113.45,1092.17 1122.02,1092.15 1130.58,1092.13 1139.15,1092.11 1147.71,1092.09 1156.28,1092.07 
  1164.84,1092.05 1173.41,1092.03 1181.97,1092.01 1190.54,1091.99 1199.1,1091.97 1207.67,1091.95 1216.23,1091.94 1224.8,1091.92 1233.37,1092.76 1241.94,1092.74 
  1250.49,1091.86 1259.06,1091.84 1267.62,1091.82 1276.19,1091.8 1284.77,1092.64 1293.33,1092.62 1301.9,1092.6 1310.46,1092.58 1319.01,1091.7 1327.6,1095.17 
  1336.23,1097.69 1344.83,1100.26 1353.45,1104.54 1362.07,1107.97 1370.68,1111.39 1379.3,1114.82 1387.91,1118.24 1396.52,1121.67 1405.14,1125.09 1413.75,1128.52 
  1422.36,1131.95 1430.99,1136.23 1439.6,1139.66 1448.21,1143.08 1456.83,1146.51 1465.44,1149.93 1474.05,1153.36 1482.66,1155.92 1491.28,1160.21 1499.9,1163.63 
  1508.51,1167.06 1517.12,1170.49 1525.74,1173.91 1534.35,1177.34 1542.96,1180.76 1551.58,1184.19 1560.19,1187.61 1568.81,1191.9 1577.43,1195.32 1586.05,1199.61 
  1594.67,1203.04 1603.29,1207.32 1611.91,1210.75 1620.53,1215.03 1629.16,1219.32 1637.78,1223.61 1646.4,1227.03 1655.02,1231.32 1663.64,1234.75 1672.26,1239.03 
  1680.9,1244.18 1689.52,1248.47 1698.15,1252.75 1706.76,1256.18 1715.39,1260.46 1724.01,1264.75 1732.64,1269.04 1741.26,1273.32 1749.89,1277.61 1758.52,1281.9 
  1767.13,1285.32 1775.75,1289.61 1784.38,1293.9 1793.01,1298.18 1801.63,1302.47 1810.24,1305.89 1818.87,1310.18 1827.5,1314.47 1836.11,1317.89 1844.73,1322.18 
  1853.35,1325.6 1861.97,1329.89 1870.6,1334.18 1879.21,1337.6 1887.83,1341.03 1896.46,1346.18 1905.09,1350.46 1913.7,1353.89 1922.33,1358.18 1930.95,1362.46 
  1939.58,1366.75 1948.19,1370.17 1956.82,1374.46 
  "/>
<polyline clip-path="url(#clip742)" style="stroke:#e26f46; stroke-width:4; stroke-opacity:1; fill:none" points="
  303.085,922.256 311.657,922.24 320.219,921.362 328.801,922.206 337.363,921.329 345.945,922.173 354.517,922.156 363.089,922.14 371.661,922.123 380.234,922.106 
  388.806,922.089 397.367,921.212 405.95,922.056 414.511,921.179 423.083,921.162 431.655,921.145 440.227,921.129 448.81,921.973 457.371,921.095 465.943,921.079 
  474.515,921.062 483.098,921.906 491.659,921.029 500.242,921.873 508.804,920.995 517.386,921.839 525.948,920.962 534.53,921.806 543.092,920.928 551.664,920.912 
  560.236,920.895 568.808,920.878 577.38,920.862 585.952,920.845 594.534,921.689 603.096,920.812 611.668,920.795 620.24,920.778 628.812,920.762 637.384,920.745 
  645.956,920.728 654.528,920.712 663.1,920.695 671.672,920.678 680.244,920.661 688.816,920.645 697.388,920.628 705.96,920.611 714.532,920.595 723.104,920.578 
  731.676,920.561 740.248,920.545 748.821,920.528 757.393,920.511 765.965,920.495 774.537,920.478 783.109,920.461 791.681,920.445 800.253,920.428 808.825,920.411 
  817.397,920.395 825.969,920.378 834.541,920.361 843.113,920.344 851.685,920.328 860.257,920.311 868.829,920.294 877.401,920.278 885.973,920.261 894.545,920.244 
  903.117,920.228 911.689,920.211 920.261,920.194 928.833,920.178 937.405,920.161 945.977,920.144 954.549,920.128 963.121,920.111 971.693,920.094 980.265,920.077 
  988.837,920.061 997.409,920.044 1005.98,920.027 1014.55,920.011 1023.13,919.994 1031.7,919.977 1040.27,919.961 1048.84,919.944 1057.41,919.927 1065.99,919.911 
  1074.55,919.033 1083.13,919.877 1091.7,919.861 1100.27,919.844 1108.85,919.827 1117.42,919.811 1125.99,919.794 1134.56,919.777 1143.13,919.76 1151.7,918.883 
  1160.28,919.727 1168.84,918.85 1177.42,919.694 1185.99,919.677 1194.57,919.66 1203.14,919.644 1211.7,918.766 1220.28,919.61 1228.85,919.594 1237.43,919.577 
  1246,919.56 1254.57,919.544 1263.14,919.527 1271.71,919.51 1280.28,918.633 1288.86,919.477 1297.43,919.46 1306,919.443 1314.57,919.427 1323.15,919.41 
  1331.76,922.836 1340.37,926.262 1348.99,929.688 1357.6,933.114 1366.21,936.54 1374.83,939.967 1383.44,943.393 1392.06,946.819 1400.67,950.245 1409.28,953.671 
  1417.91,957.958 1426.52,961.384 1435.13,964.81 1443.75,968.236 1452.36,971.662 1460.97,975.088 1469.59,978.514 1478.2,981.94 1486.81,985.366 1495.44,989.653 
  1504.05,993.079 1512.66,995.644 1521.28,999.931 1529.88,1002.5 1538.51,1006.78 1547.11,1009.35 1555.73,1013.64 1564.35,1017.06 1572.96,1020.49 1581.57,1023.91 
  1590.19,1027.34 1598.81,1031.63 1607.43,1035.05 1616.03,1037.62 1624.65,1041.9 1633.27,1045.33 1641.88,1048.76 1650.49,1052.18 1659.11,1055.61 1667.72,1059.04 
  1676.33,1062.46 1684.95,1065.89 1693.57,1070.17 1702.18,1072.74 1710.8,1077.03 1719.41,1080.45 1728.03,1083.88 1736.64,1087.3 1745.26,1091.59 1753.88,1095.02 
  1762.49,1098.44 1771.1,1101.87 1779.72,1105.3 1788.34,1109.58 1796.95,1112.15 1805.56,1115.57 1814.17,1119 1822.8,1123.29 1831.41,1126.71 1840.01,1129.28 
  1848.63,1132.7 1857.25,1136.99 1865.86,1140.42 1874.48,1143.84 1883.09,1147.27 1891.69,1149.83 1900.31,1153.26 1908.91,1155.83 1917.54,1160.11 1926.14,1162.68 
  1934.76,1166.96 1943.38,1170.39 1951.99,1173.82 1960.59,1176.38 1969.21,1179.81 1977.82,1183.23 1986.43,1186.66 1995.05,1190.09 2003.67,1194.37 2012.3,1198.66 
  2020.91,1202.09 2029.53,1206.37 2038.15,1209.8 2046.77,1214.09 2055.39,1218.37 2064.02,1222.66 2072.64,1226.95 2081.27,1231.23 2089.88,1234.66 2098.5,1238.95 
  2107.14,1244.09 2115.76,1248.38 2124.39,1252.67 2133.01,1256.95 2141.62,1260.38 2150.25,1264.67 2158.87,1268.95 2167.5,1273.24 2176.12,1277.53 2184.74,1281.81 
  2193.37,1286.1 2201.99,1290.39 2210.62,1294.67 2219.24,1298.96 2227.85,1302.39 2236.49,1307.53 2245.1,1310.96 2253.72,1315.25 2262.35,1319.53 2270.97,1323.82 
  2279.6,1328.11 2288.21,1331.53 
  "/>
<polyline clip-path="url(#clip742)" style="stroke:#3da44d; stroke-width:4; stroke-opacity:1; fill:none" points="
  565.834,852.027 574.396,851.15 582.957,850.273 591.519,849.395 600.081,848.518 608.642,847.64 617.204,846.763 625.765,845.886 634.327,845.008 642.878,843.27 
  651.44,842.393 660.002,841.516 668.563,840.638 677.125,839.761 685.687,838.883 694.238,837.145 702.81,837.129 711.372,836.251 719.943,836.235 728.505,835.357 
  737.077,835.341 745.639,834.463 754.211,834.446 762.773,833.569 771.345,833.552 779.906,832.675 788.478,832.658 797.04,831.781 805.602,830.904 814.163,830.026 
  822.725,829.149 831.286,828.271 839.848,827.394 848.41,826.517 856.971,825.639 865.543,825.623 874.105,824.745 882.667,823.868 891.239,823.851 899.8,822.974 
  908.362,822.096 916.934,822.08 925.506,822.063 934.078,822.046 942.65,822.03 951.233,822.874 959.805,822.857 968.377,822.84 976.949,822.824 985.521,822.807 
  994.093,822.79 1002.66,822.774 1011.24,822.757 1019.81,822.74 1028.38,822.724 1036.95,822.707 1045.52,822.69 1054.1,822.673 1062.67,822.657 1071.24,822.64 
  1079.81,822.623 1088.39,822.607 1096.96,822.59 1105.53,822.573 1114.1,822.557 1122.67,822.54 1131.25,822.523 1139.82,822.507 1148.39,822.49 1156.96,822.473 
  1165.53,822.457 1174.11,822.44 1182.68,822.423 1191.25,822.407 1199.82,822.39 1208.39,822.373 1216.97,822.356 1225.54,822.34 1234.11,822.323 1242.68,822.306 
  1251.25,822.29 1259.83,822.273 1268.4,822.256 1276.97,822.24 1285.54,822.223 1294.11,822.206 1302.69,822.19 1311.26,822.173 1319.83,822.156 1328.41,823 
  1336.98,822.984 1345.57,823.828 1354.15,824.672 1362.73,825.516 1371.33,828.081 1379.94,830.646 1388.54,833.212 1397.14,835.777 1405.75,838.342 1414.35,840.908 
  1422.94,842.613 1431.57,846.899 1440.18,850.325 1448.81,854.612 1457.43,858.899 1466.05,863.186 1474.67,866.612 1483.28,870.038 1491.89,873.464 1500.51,876.89 
  1509.12,880.316 1517.73,883.742 1526.35,887.168 1534.96,890.594 1543.59,894.881 1552.19,897.446 1560.8,900.873 1569.42,904.299 1578.03,907.725 1586.64,911.151 
  1595.27,915.438 1603.88,918.864 1612.49,922.29 1621.1,924.855 1629.72,929.142 1638.32,931.707 1646.95,935.994 1655.56,939.42 1664.18,942.846 1672.79,946.272 
  1681.4,949.698 1690.03,953.985 1698.64,957.411 1707.25,960.837 1715.87,964.263 1724.49,968.55 1733.11,971.976 1741.72,975.402 1750.33,978.828 1758.96,983.115 
  1767.57,986.541 1776.18,989.967 1784.8,993.393 1793.41,996.819 1802.02,1000.25 1810.64,1003.67 1819.25,1007.1 1827.86,1010.52 1836.48,1013.95 1845.1,1018.24 
  1853.71,1020.8 1862.33,1025.09 1870.94,1028.51 1879.55,1031.08 1888.16,1034.51 1896.77,1037.93 1905.4,1042.22 1914.01,1045.65 1922.61,1048.21 1931.23,1051.64 
  1939.84,1055.06 1948.45,1058.49 1957.07,1061.91 1965.68,1065.34 1974.3,1068.77 1982.91,1072.19 1991.52,1075.62 2000.14,1079.05 2008.75,1082.47 2017.36,1085.9 
  2025.98,1089.32 2034.59,1092.75 2043.2,1096.18 2051.82,1099.6 2060.44,1103.89 2069.04,1106.45 2077.66,1109.88 2086.28,1114.17 2094.9,1117.59 2103.51,1121.02 
  2112.12,1124.44 2120.74,1127.87 2129.35,1131.3 2137.96,1134.72 2146.59,1139.01 2155.2,1142.44 2163.82,1145.86 2172.43,1149.29 2181.04,1152.71 2189.66,1156.14 
  2198.26,1158.71 2206.87,1162.13 2215.5,1166.42 2224.11,1169.84 2232.72,1173.27 2241.34,1176.7 2249.95,1180.12 2258.56,1183.55 2267.18,1186.97 2275.79,1190.4 
  2284.41,1193.83 
  "/>
<polyline clip-path="url(#clip742)" style="stroke:#c271d2; stroke-width:4; stroke-opacity:1; fill:none" points="
  698.849,686.512 707.421,686.495 715.993,686.479 724.565,686.462 733.117,684.724 741.678,683.847 750.229,682.108 758.791,681.231 767.363,681.214 775.935,681.198 
  784.507,681.181 793.079,681.164 801.651,681.148 810.223,681.131 818.795,681.114 827.367,681.098 835.939,681.081 844.512,681.064 853.084,681.048 861.656,681.031 
  870.228,681.014 878.8,680.998 887.372,680.981 895.933,680.103 904.495,679.226 913.046,677.488 921.608,676.611 930.18,676.594 938.742,675.717 947.314,675.7 
  955.886,675.683 964.458,675.666 973.03,675.65 981.602,675.633 990.174,675.616 998.746,675.6 1007.32,675.583 1015.89,675.566 1024.46,675.55 1033.03,675.533 
  1041.61,675.516 1050.18,675.5 1058.75,675.483 1067.32,675.466 1075.89,675.45 1084.47,675.433 1093.04,675.416 1101.61,675.4 1110.18,675.383 1118.75,675.366 
  1127.33,675.349 1135.9,675.333 1144.47,675.316 1153.04,675.299 1161.61,675.283 1170.19,675.266 1178.76,675.249 1187.33,675.233 1195.9,675.216 1204.47,675.199 
  1213.05,675.183 1221.62,675.166 1230.2,676.01 1238.78,676.854 1247.36,676.837 1255.94,677.681 1264.52,678.525 1273.1,679.369 1281.69,680.213 1290.27,681.057 
  1298.85,681.901 1307.43,682.745 1316.01,683.589 1324.62,686.155 1333.23,689.581 1341.83,692.146 1350.45,695.572 1359.06,698.998 1367.67,701.564 1376.27,704.129 
  1384.87,706.694 1393.47,709.26 1402.11,714.407 1410.74,719.555 1419.38,724.702 1427.99,728.128 1436.59,730.694 1445.19,732.398 1453.79,734.964 1462.38,736.668 
  1470.99,739.234 1479.59,741.799 1488.2,745.225 1496.82,748.651 1505.44,752.938 1514.04,755.503 1522.67,759.79 1531.28,763.216 1539.9,766.642 1548.51,770.069 
  1557.12,773.495 1565.74,776.921 1574.36,781.207 1582.97,784.633 1591.59,788.06 1600.2,791.486 1608.81,794.912 1617.44,799.198 1626.05,802.625 1634.68,806.911 
  1643.29,810.337 1651.9,813.763 1660.52,817.19 1669.14,821.476 1677.75,824.902 1686.37,828.328 1694.98,831.755 1703.61,836.041 1712.22,839.467 1720.83,842.893 
  1729.45,846.32 1738.07,850.606 1746.68,854.032 1755.3,857.458 1763.92,861.745 1772.53,865.171 1781.15,868.597 1789.76,872.023 1798.38,875.45 1806.99,878.876 
  1815.6,882.302 1824.22,885.728 1832.83,889.154 1841.45,893.441 1850.06,896.006 1858.68,900.293 1867.29,903.719 1875.91,907.145 1884.52,910.571 1893.13,913.997 
  1901.75,917.423 1910.37,921.71 1918.98,924.275 1927.6,928.562 1936.2,931.127 1944.83,935.414 1953.44,938.84 1962.05,942.266 1970.68,946.553 1979.29,949.979 
  1987.9,953.405 1996.52,956.831 2005.12,959.397 2013.74,962.823 2022.34,965.388 2030.95,968.814 2039.58,973.101 2048.19,976.527 2056.8,979.953 2065.42,983.379 
  2074.03,986.805 2082.63,989.371 2091.25,992.797 2099.86,996.223 2108.48,1000.51 2117.1,1003.94 2125.71,1007.36 2134.35,1012.51 2142.98,1017.66 2151.58,1020.22 
  2160.2,1023.65 2168.8,1026.21 2177.4,1028.78 2186.02,1032.2 2194.63,1035.63 2203.24,1039.06 2211.87,1043.34 2220.48,1046.77 2229.1,1050.2 2237.72,1054.48 
  2246.35,1059.63 2254.99,1064.78 2263.61,1069.06 2272.22,1071.63 2280.83,1075.06 2289.42,1076.76 
  "/>
<polyline clip-path="url(#clip742)" style="stroke:#ac8d18; stroke-width:4; stroke-opacity:1; fill:none" points="
  757.046,536.635 765.618,536.618 774.18,535.741 782.752,535.724 791.324,535.708 799.896,535.691 808.447,533.953 817.009,533.076 825.581,533.059 834.143,532.182 
  842.715,532.165 851.266,530.427 859.817,528.689 868.379,527.811 876.941,526.934 885.502,526.057 894.064,525.179 902.636,525.162 911.197,524.285 919.759,523.408 
  928.321,522.53 936.862,519.932 945.413,518.194 953.975,517.316 962.536,516.439 971.108,516.422 979.67,515.545 988.242,515.528 996.803,514.651 1005.38,514.634 
  1013.94,513.757 1022.51,513.74 1031.07,512.863 1039.64,512.846 1048.2,511.968 1056.78,511.952 1065.34,511.074 1073.92,511.918 1082.51,513.623 1091.11,515.328 
  1099.7,517.033 1108.3,519.598 1116.9,521.303 1125.49,523.007 1134.06,522.991 1142.64,523.835 1151.22,524.679 1159.81,525.523 1168.39,526.367 1176.97,527.211 
  1185.55,528.055 1194.15,529.759 1202.73,530.603 1211.31,531.447 1219.89,532.291 1228.49,533.996 1237.08,535.701 1245.67,537.405 1254.27,539.11 1262.86,540.815 
  1271.44,541.659 1280.03,543.364 1288.63,545.068 1297.21,545.912 1305.8,547.617 1314.39,549.322 1322.99,551.026 1331.59,553.592 1340.19,556.157 1348.8,558.722 
  1357.4,561.288 1366.01,564.714 1374.64,569.001 1383.25,572.427 1391.88,576.714 1400.49,580.14 1409.11,584.426 1417.73,587.852 1426.35,592.139 1434.96,595.565 
  1443.58,598.991 1452.19,602.417 1460.81,606.704 1469.43,610.13 1478.05,614.417 1486.68,618.704 1495.3,622.991 1503.92,627.277 1512.55,631.564 1521.16,634.99 
  1529.79,639.277 1538.4,642.703 1547.01,646.129 1555.63,649.555 1564.26,654.703 1572.88,658.989 1581.52,664.137 1590.15,669.284 1598.77,672.71 1607.38,676.136 
  1615.99,679.563 1624.61,682.989 1633.22,686.415 1641.85,690.701 1650.46,694.128 1659.07,697.554 1667.69,700.98 1676.3,704.406 1684.91,707.832 1693.53,711.258 
  1702.14,714.684 1710.75,718.11 1719.38,722.397 1727.98,724.962 1736.61,729.249 1745.22,732.675 1753.83,736.101 1762.45,739.527 1771.06,742.953 1779.67,746.379 
  1788.29,749.805 1796.9,753.232 1805.51,756.658 1814.13,760.084 1822.74,763.51 1831.35,766.936 1839.97,770.362 1848.58,773.788 1857.2,777.214 1865.81,780.64 
  1874.3,784.934 1882.94,788.929 1891.58,792.013 1900.22,797.331 1908.87,799.525 1917.5,802.057 1926.11,805.483 1934.73,808.909 1943.34,812.335 1951.96,815.762 
  1960.57,819.188 1969.18,822.614 1977.8,826.04 1986.41,829.466 1995.02,832.892 2003.64,836.318 2012.26,840.605 2020.86,843.17 2029.49,847.457 2038.1,850.883 
  2046.71,854.309 2055.34,858.596 2063.95,862.022 2072.57,865.448 2081.18,868.874 2089.79,872.3 2098.41,875.726 2107.02,879.152 2115.63,882.578 2124.25,886.004 
  2132.86,889.431 2141.47,892.857 2150.1,897.143 2158.71,900.569 2167.33,903.996 2175.94,907.422 2184.56,911.708 2193.18,915.134 2201.79,918.56 2210.4,921.987 
  2219.02,925.413 2227.63,928.839 2236.23,931.404 2244.86,935.691 2253.47,939.117 2262.09,942.543 2270.7,945.969 2279.31,949.395 2287.45,913.23 
  "/>
<polyline clip-path="url(#clip742)" style="stroke:#00a9ad; stroke-width:4; stroke-opacity:1; fill:none" points="
  753.512,421.307 774.89,416.962 804.881,416.043 821.974,411.706 869.109,410.753 884.059,406.421 922.633,406.346 950.44,401.988 999.698,399.31 1051.1,396.628 
  1143.25,396.448 1177.58,399.824 1209.77,404.065 1259.37,428.929 1302.44,446.92 1345.49,462.329 1373.6,482.932 1403.83,501.808 1436.29,527.567 1466.62,555.05 
  1492.47,566.189 1518.43,585.935 1550.8,604.808 1578.86,621.107 1609.05,636.541 1645.68,653.683 1684.44,668.24 1768.44,703.366 1805.07,719.648 1843.82,734.205 
  1889.01,749.609 1929.95,768.465 1990.24,791.587 2046.23,813.857 2102.21,836.126 2153.9,856.683 2212.04,879.809 2248.64,893.509 2285.21,905.487 
  "/>
<polyline clip-path="url(#clip742)" style="stroke:#ed5d92; stroke-width:4; stroke-opacity:1; fill:none" points="
  752.161,309.417 816.368,302.406 867.759,298.864 914.874,296.19 970.52,290.056 1024.06,287.37 1069.02,282.979 1114.02,282.891 1146.15,281.968 1180.51,287.926 
  1208.57,304.225 1225.96,324.848 1241.15,340.312 1260.67,359.209 1276,386.722 1286.96,407.358 1295.74,424.555 1306.71,445.191 1317.59,458.941 1337.11,477.838 
  1356.67,501.039 1369.72,516.507 1382.75,531.114 1406.54,549.142 1441.09,570.593 1479.93,592.035 1512.29,610.047 1546.77,626.333 1570.46,635.755 1585.54,641.751 
  1615.76,659.767 1660.95,675.171 1697.53,688.011 1725.53,699.146 1744.91,706.854 1781.46,717.112 1830.98,735.951 1927.79,766.748 1975.16,785.591 2031.15,807.861 
  2074.22,824.991 2117.29,842.122 2160.37,860.113 2203.42,876.383 2237.87,889.226 2285.21,905.487 
  "/>
<polyline clip-path="url(#clip742)" style="stroke:#c68125; stroke-width:4; stroke-opacity:1; fill:none" points="
  749.187,240.566 770.618,240.524 809.067,230.121 858.2,217.115 915.989,210.977 967.338,203.992 1005.85,198.752 1055.12,196.935 1083.23,217.537 1100.62,238.16 
  1115.89,260.509 1129.01,282.002 1137.78,298.338 1144.38,312.957 1146.59,318.117 1166.06,333.572 1189.91,355.904 1213.69,373.072 1235.34,391.105 1265.5,404.817 
  1274.11,407.383 1306.33,414.206 1338.7,432.218 1379.7,455.377 1407.92,485.447 1431.74,506.058 1449.09,523.238 1466.42,538.697 1483.76,555.017 1501.12,572.197 
  1527.06,591.082 1552.93,603.943 1578.81,616.803 1600.4,630.532 1615.52,639.971 1643.51,651.106 1671.52,663.101 1701.66,675.092 1744.74,693.083 1768.45,704.226 
  1796.45,716.222 1837.37,732.496 1873.93,743.614 1904.1,757.326 1932.11,769.322 1970.86,783.878 2013.93,801.009 2050.53,815.57 2082.83,828.417 2119.44,842.978 
  2158.2,858.396 2190.5,871.243 2220.65,883.235 2250.8,895.226 2285.22,906.348 
  "/>
<polyline clip-path="url(#clip742)" style="stroke:#00a98d; stroke-width:4; stroke-opacity:1; fill:none" points="
  746.764,217.332 770.306,214.704 802.337,205.173 827.959,197.377 855.725,189.577 881.348,181.78 909.093,172.259 941.144,164.45 975.401,161.801 1020.38,159.992 
  1063.24,159.909 1093.28,162.432 1108.44,176.174 1117.23,194.232 1123.84,208.851 1128.3,223.475 1132.82,242.401 1137.29,257.886 1141.79,275.952 1148.34,285.407 
  1161.4,302.596 1172.32,318.928 1189.67,336.108 1209.21,357.588 1226.48,367.883 1241.62,379.043 1256.84,397.088 1267.66,405.674 1291.41,420.26 1302.23,428.846 
  1343.17,447.702 1356.14,457.144 1371.3,470.026 1390.81,488.062 1408.15,504.382 1436.29,527.567 1473.05,555.038 1490.32,565.333 1511.96,582.505 1542.17,599.66 
  1576.68,618.529 1609.04,635.68 1643.51,651.106 1671.52,663.101 1708.11,676.801 1740.42,690.51 1772.75,705.079 1809.37,721.361 1839.52,733.352 1878.24,745.327 
  1925.65,766.752 1977.32,786.448 2018.23,802.722 2059.15,818.996 2095.75,833.557 2136.66,848.97 2175.43,865.248 2209.88,878.952 2240.02,890.083 2285.21,905.487 
  
  "/>
<polyline clip-path="url(#clip742)" style="stroke:#000000; stroke-width:12; stroke-opacity:1; fill:none" points="
  966.504,844.481 993.958,844.428 1019.02,844.379 1042.08,844.334 1063.43,844.292 1083.3,844.254 1101.89,844.218 1119.36,844.184 1135.82,844.152 1151.39,843.988 
  1166.17,843.998 1180.22,844.065 1193.62,844.039 1206.43,843.962 1218.69,843.964 1230.45,843.967 1241.75,843.945 1252.62,843.924 1263.09,843.904 1273.2,843.86 
  1282.97,843.77 1292.41,843.847 1301.56,843.829 1310.42,843.812 1319.02,843.795 1327.37,844.678 1335.49,845.26 1343.38,846.271 1351.06,847.374 1358.54,848.445 
  1365.84,850.003 1372.95,852.23 1379.89,854.407 1386.67,856.517 1393.29,858.584 1399.76,860.609 1406.1,862.594 1412.29,864.562 1418.36,866.196 1424.29,867.877 
  1430.11,870.687 1435.82,873.078 1441.41,875.413 1446.9,878.058 1452.28,880.654 1457.57,883.231 1462.76,885.713 1467.86,888.036 1472.87,890.027 1477.79,891.983 
  1482.63,893.919 1487.39,895.808 1492.08,897.753 1496.69,899.618 1501.22,901.435 1505.69,903.176 1510.09,904.875 1514.42,906.574 1518.69,908.342 1522.89,910.019 
  1527.04,911.623 1531.12,913.21 1535.15,914.902 1539.13,916.836 1543.04,918.694 1546.91,919.936 1550.73,921.176 1554.49,922.596 1558.21,924.09 1561.88,925.558 
  1565.5,926.989 1569.08,928.428 1572.61,929.82 1576.11,931.211 1579.56,932.587 1582.97,933.935 1586.33,935.291 1589.66,936.852 1592.96,938.481 1596.21,940.034 
  1599.43,941.341 1602.61,942.615 1605.76,943.865 1608.88,945.078 1611.96,946.274 1615,947.224 1618.02,948.176 1621.01,949.161 1623.96,950.591 1626.89,952.012 
  1629.78,953.426 1632.65,954.311 1635.48,955.196 1638.29,956.085 1641.08,957.401 1643.83,958.729 1646.57,960.07 1649.27,961.169 1651.95,962.23 1654.6,963.297 
  1657.24,964.34 1659.84,965.37 1662.43,966.402 1664.99,967.428 1667.52,968.427 1670.04,969.427 1672.53,970.434 1675.01,971.406 1677.46,972.376 1679.89,973.35 
  1682.3,974.387 1684.69,975.527 1687.06,976.7 1689.41,977.887 1691.74,978.896 1694.06,979.83 1696.35,980.713 1698.63,981.603 1700.89,982.455 1703.13,983.336 
  1705.36,984.256 1707.56,985.177 1709.75,986.067 1711.93,986.943 1714.09,987.807 1716.23,988.699 1718.35,989.708 1720.46,990.722 1722.56,991.741 1724.64,992.752 
  1726.7,993.56 1728.75,994.371 1730.79,995.184 1732.81,996.001 1734.82,996.79 1736.81,997.58 1738.79,998.394 1740.76,999.213 1742.71,1000.02 1744.65,1000.81 
  1746.58,1001.58 1748.49,1002.35 1750.39,1003.12 1752.28,1004.02 1754.16,1004.92 1756.02,1005.82 1757.88,1006.72 1759.72,1007.56 1761.54,1008.27 1763.36,1008.99 
  1765.17,1009.71 1766.96,1010.44 1768.75,1011.14 1770.52,1011.84 1772.28,1012.54 1774.03,1013.24 1775.77,1013.94 1777.5,1014.63 1779.22,1015.3 1780.93,1016 
  1782.63,1016.7 1784.32,1017.41 1786,1018.09 1787.67,1018.78 1789.33,1019.43 1790.98,1020.07 1792.62,1020.71 1794.26,1021.33 1795.88,1021.95 1797.49,1022.57 
  1799.1,1023.21 1800.69,1023.85 1802.28,1024.49 1803.86,1025.11 1805.43,1025.73 1806.99,1026.35 1808.54,1026.97 1810.09,1027.59 1811.62,1028.2 1813.15,1028.8 
  1814.67,1029.41 1816.18,1030.03 1817.69,1030.66 1819.18,1031.28 1820.67,1031.89 1822.15,1032.49 1823.63,1033.09 1825.09,1033.67 1826.55,1034.26 1828,1034.84 
  1829.45,1035.41 1830.88,1035.97 1832.31,1036.53 1833.74,1037.08 1835.15,1037.63 1836.56,1038.18 1837.96,1038.82 1839.36,1039.47 1840.74,1040.13 1842.13,1040.8 
  1843.5,1041.47 1844.87,1042.14 1846.23,1042.61 1847.59,1043.03 1848.94,1043.45 1850.28,1043.89 1851.62,1044.32 1852.95,1044.76 1854.27,1045.29 1855.59,1045.93 
  1856.9,1046.58 1858.21,1047.21 1859.51,1047.85 1860.8,1048.48 1862.09,1049.12 1863.37,1049.64 1864.65,1050.14 1865.92,1050.65 1867.19,1051.15 1868.45,1051.65 
  1869.71,1052.16 1870.96,1052.66 1872.2,1053.05 1873.44,1053.43 1874.67,1053.81 1875.9,1054.2 1877.12,1054.58 1878.34,1054.96 1879.55,1055.35 1880.76,1055.82 
  1881.97,1056.29 1883.16,1056.77 1884.36,1057.22 1885.54,1057.68 1886.73,1058.14 1887.9,1058.6 1889.08,1059.05 1890.25,1059.49 1891.41,1059.93 1892.57,1060.39 
  1893.72,1060.85 1894.87,1061.31 1896.02,1061.77 1897.16,1062.26 1898.3,1062.8 1899.43,1063.34 1900.56,1063.87 1901.68,1064.4 1902.8,1064.93 1903.91,1065.46 
  1905.02,1065.99 1906.13,1066.44 1907.23,1066.86 1908.33,1067.28 1909.42,1067.71 1910.51,1068.15 1911.59,1068.6 1912.68,1069.05 1913.75,1069.51 1914.82,1069.88 
  1915.89,1070.22 1916.96,1070.57 1918.02,1070.9 1919.08,1071.22 1920.13,1071.53 1921.18,1071.85 1922.22,1072.17 1923.27,1072.53 1924.3,1072.92 1925.34,1073.31 
  1926.37,1073.71 1927.4,1074.13 1928.42,1074.56 1929.44,1074.98 1930.46,1075.4 1931.47,1075.83 1932.48,1076.24 1933.48,1076.64 1934.48,1077.06 1935.48,1077.46 
  1936.48,1077.85 1937.47,1078.25 1938.46,1078.65 1939.44,1079.05 1940.42,1079.43 1941.4,1079.82 1942.38,1080.2 1943.35,1080.59 1944.32,1080.97 1945.28,1081.35 
  1946.24,1081.74 1947.2,1082.12 1948.16,1082.51 1949.11,1082.89 1950.06,1083.26 1951,1083.63 1951.95,1084.01 1952.89,1084.37 1953.82,1084.73 1954.76,1085.09 
  1955.69,1085.45 1956.62,1085.81 1957.54,1086.17 1958.46,1086.51 1959.38,1086.86 1960.3,1087.21 1961.21,1087.57 1962.12,1087.93 1963.03,1088.29 1963.93,1088.65 
  1964.83,1089.02 1965.73,1089.38 1966.63,1089.73 1967.52,1090.08 1968.41,1090.43 1969.3,1090.79 1970.19,1091.14 1971.07,1091.49 1971.95,1091.84 1972.82,1092.19 
  1973.7,1092.55 1974.57,1092.9 1975.44,1093.24 1976.31,1093.58 1977.17,1093.92 1978.03,1094.26 1978.89,1094.6 1979.74,1094.94 1980.6,1095.28 1981.45,1095.62 
  1982.3,1095.97 1983.14,1096.31 1983.99,1096.64 1984.83,1096.97 1985.67,1097.3 1986.5,1097.63 1987.34,1097.96 1988.17,1098.29 1989,1098.62 1989.82,1098.95 
  1990.65,1099.29 1991.47,1099.62 1992.29,1099.94 1993.11,1100.26 1993.92,1100.58 1994.73,1100.9 1995.54,1101.23 1996.35,1101.56 1997.16,1101.89 1997.96,1102.23 
  1998.76,1102.56 1999.56,1102.9 2000.36,1103.23 2001.15,1103.55 2001.95,1103.87 2002.74,1104.19 2003.52,1104.52 2004.31,1104.84 2005.09,1105.16 2005.88,1105.48 
  2006.66,1105.81 2007.43,1106.13 2008.21,1106.46 2008.98,1106.78 2009.75,1107.09 2010.52,1107.4 2011.29,1107.72 2012.05,1108.03 2012.82,1108.34 2013.58,1108.64 
  2014.34,1108.94 2015.09,1109.24 2015.85,1109.55 2016.6,1109.85 2017.35,1110.16 2018.1,1110.45 2018.85,1110.74 2019.6,1111.04 2020.34,1111.33 2021.08,1111.63 
  2021.82,1111.93 2022.56,1112.23 2023.29,1112.54 2024.03,1112.84 2024.76,1113.15 2025.49,1113.45 2026.22,1113.76 2026.94,1114.05 2027.67,1114.34 2028.39,1114.64 
  2029.11,1114.93 2029.83,1115.23 2030.55,1115.51 2031.26,1115.79 2031.98,1116.08 2032.69,1116.37 2033.4,1116.65 2034.11,1116.94 2034.82,1117.22 2035.52,1117.5 
  2036.23,1117.77 2036.93,1118.05 2037.63,1118.33 2038.33,1118.61 2039.02,1118.89 2039.72,1119.18 2040.41,1119.46 2041.1,1119.75 2041.79,1120.04 2042.48,1120.33 
  2043.17,1120.62 2043.85,1120.89 2044.54,1121.17 2045.22,1121.45 2045.9,1121.72 2046.58,1122 2047.25,1122.28 2047.93,1122.56 2048.6,1122.84 2049.27,1123.11 
  2049.94,1123.39 2050.61,1123.67 2051.28,1123.95 2051.95,1124.24 2052.61,1124.56 2053.28,1124.89 2053.94,1125.21 2054.6,1125.54 2055.25,1125.86 2055.91,1126.19 
  2056.57,1126.51 2057.22,1126.84 2057.87,1127.16 2058.52,1127.49 2059.17,1127.82 2059.82,1128.15 2060.47,1128.47 2061.11,1128.68 2061.76,1128.89 2062.4,1129.09 
  2063.04,1129.3 2063.68,1129.51 2064.32,1129.72 2064.95,1129.92 2065.59,1130.13 2066.22,1130.34 2066.86,1130.54 2067.49,1130.75 2068.12,1130.96 2068.75,1131.17 
  2069.37,1131.4 2070,1131.65 2070.62,1131.9 2071.24,1132.16 2071.87,1132.41 2072.49,1132.67 2073.1,1132.92 2073.72,1133.17 2074.34,1133.43 2074.95,1133.68 
  2075.57,1133.93 2076.18,1134.19 2076.79,1134.44 2077.4,1134.7 2078.01,1134.98 2078.62,1135.27 2079.22,1135.57 2079.83,1135.87 2080.43,1136.16 2081.03,1136.46 
  2081.63,1136.75 2082.23,1137.04 2082.83,1137.33 2083.43,1137.62 2084.02,1137.91 2084.62,1138.21 2085.21,1138.5 2085.8,1138.79 2086.39,1139.07 2086.98,1139.3 
  2087.57,1139.53 2088.16,1139.76 2088.74,1139.99 2089.33,1140.22 2089.91,1140.46 2090.5,1140.69 2091.08,1140.93 2091.66,1141.17 2092.24,1141.41 2092.81,1141.65 
  2093.39,1141.89 2093.97,1142.13 2094.54,1142.37 2095.11,1142.61 2095.69,1142.84 2096.26,1143.07 2096.83,1143.3 2097.4,1143.54 2097.96,1143.77 2098.53,1144 
  2099.09,1144.24 2099.66,1144.48 2100.22,1144.72 2100.78,1144.96 2101.35,1145.2 2101.91,1145.44 2102.46,1145.68 2103.02,1145.92 2103.58,1146.16 2104.13,1146.39 
  2104.69,1146.62 2105.24,1146.85 2105.79,1147.09 2106.35,1147.32 2106.9,1147.55 2107.44,1147.78 2107.99,1148.01 2108.54,1148.23 2109.09,1148.46 2109.63,1148.68 
  2110.18,1148.91 2110.72,1149.13 2111.26,1149.36 2111.8,1149.59 2112.34,1149.81 2112.88,1150.03 2113.42,1150.24 2113.96,1150.46 2114.49,1150.68 2115.03,1150.9 
  2115.56,1151.12 2116.09,1151.34 2116.62,1151.55 2117.16,1151.77 2117.69,1151.99 2118.21,1152.21 2118.74,1152.43 2119.27,1152.65 2119.8,1152.87 2120.32,1153.09 
  2120.85,1153.31 2121.37,1153.52 2121.89,1153.73 2122.41,1153.94 2122.93,1154.15 2123.45,1154.36 2123.97,1154.58 2124.49,1154.79 2125.01,1155 2125.52,1155.21 
  2126.04,1155.42 2126.55,1155.63 2127.06,1155.85 2127.57,1156.06 2128.09,1156.27 2128.6,1156.49 2129.11,1156.7 2129.61,1156.91 2130.12,1157.11 2130.63,1157.32 
  2131.13,1157.52 2131.64,1157.73 2132.14,1157.93 2132.65,1158.14 2133.15,1158.34 2133.65,1158.54 2134.15,1158.74 2134.65,1158.94 2135.15,1159.14 2135.65,1159.34 
  2136.14,1159.54 2136.64,1159.74 2137.14,1159.94 2137.63,1160.14 2138.12,1160.35 2138.62,1160.59 2139.11,1160.82 2139.6,1161.05 2140.09,1161.29 2140.58,1161.52 
  2141.07,1161.76 2141.56,1161.99 2142.04,1162.23 2142.53,1162.47 2143.01,1162.71 2143.5,1162.95 2143.98,1163.2 2144.47,1163.44 2144.95,1163.68 2145.43,1163.93 
  2145.91,1164.17 2146.39,1164.41 2146.87,1164.63 2147.35,1164.82 2147.82,1165.01 2148.3,1165.21 2148.78,1165.4 2149.25,1165.59 2149.73,1165.79 2150.2,1165.98 
  2150.67,1166.18 2151.14,1166.37 2151.61,1166.56 2152.08,1166.76 2152.55,1166.95 2153.02,1167.14 2153.49,1167.34 2153.96,1167.53 2154.42,1167.73 2154.89,1167.92 
  2155.36,1168.12 2155.82,1168.3 2156.28,1168.49 2156.75,1168.68 2157.21,1168.87 2157.67,1169.05 2158.13,1169.24 2158.59,1169.43 2159.05,1169.62 2159.51,1169.8 
  2159.96,1169.99 2160.42,1170.18 2160.88,1170.37 2161.33,1170.56 2161.79,1170.74 2162.24,1170.93 2162.69,1171.12 2163.15,1171.31 2163.6,1171.5 2164.05,1171.69 
  2164.5,1171.87 2164.95,1172.05 2165.4,1172.23 2165.85,1172.41 2166.3,1172.6 2166.74,1172.78 2167.19,1172.96 2167.63,1173.14 2168.08,1173.33 2168.52,1173.51 
  2168.97,1173.69 2169.41,1173.87 2169.85,1174.06 2170.29,1174.24 2170.73,1174.42 2171.17,1174.6 2171.61,1174.79 2172.05,1174.97 2172.49,1175.16 2172.93,1175.33 
  2173.36,1175.51 2173.8,1175.68 2174.24,1175.86 2174.67,1176.04 2175.11,1176.21 2175.54,1176.39 2175.97,1176.57 2176.4,1176.75 2176.84,1176.92 2177.27,1177.1 
  2177.7,1177.28 2178.13,1177.45 2178.55,1177.63 2178.98,1177.81 2179.41,1177.99 2179.84,1178.16 2180.26,1178.34 2180.69,1178.52 2181.12,1178.7 2181.54,1178.87 
  2181.96,1179.04 2182.39,1179.21 2182.81,1179.38 2183.23,1179.55 2183.65,1179.72 2184.07,1179.9 2184.49,1180.07 2184.91,1180.24 2185.33,1180.41 2185.75,1180.58 
  2186.17,1180.75 2186.59,1180.93 2187,1181.1 2187.42,1181.27 2187.83,1181.44 2188.25,1181.62 2188.66,1181.79 2189.08,1181.96 2189.49,1182.13 2189.9,1182.28 
  2190.31,1182.41 2190.73,1182.55 2191.14,1182.68 2191.55,1182.81 2191.96,1182.94 2192.36,1183.07 2192.77,1183.2 2193.18,1183.34 2193.59,1183.47 2193.99,1183.6 
  2194.4,1183.73 2194.81,1183.86 2195.21,1183.99 2195.61,1184.12 2196.02,1184.25 2196.42,1184.39 2196.82,1184.52 2197.23,1184.65 2197.63,1184.78 2198.03,1184.91 
  2198.43,1185.06 2198.83,1185.22 2199.23,1185.38 2199.63,1185.54 2200.02,1185.7 2200.42,1185.86 2200.82,1186.02 2201.22,1186.19 2201.61,1186.35 2202.01,1186.51 
  2202.4,1186.67 2202.8,1186.83 2203.19,1186.99 2203.58,1187.15 2203.98,1187.32 2204.37,1187.48 2204.76,1187.64 2205.15,1187.8 2205.54,1187.97 2205.93,1188.13 
  2206.32,1188.29 2206.71,1188.46 2207.1,1188.63 2207.49,1188.82 2207.87,1189.01 2208.26,1189.2 2208.65,1189.39 2209.03,1189.58 2209.42,1189.77 2209.8,1189.96 
  2210.19,1190.15 2210.57,1190.34 2210.95,1190.53 2211.34,1190.72 2211.72,1190.91 2212.1,1191.1 2212.48,1191.29 2212.86,1191.48 2213.24,1191.67 2213.62,1191.86 
  2214,1192.05 2214.38,1192.24 2214.76,1192.43 2215.14,1192.63 2215.52,1192.82 2215.89,1192.97 2216.27,1193.12 2216.64,1193.27 2217.02,1193.42 2217.39,1193.58 
  2217.77,1193.73 2218.14,1193.88 2218.52,1194.03 2218.89,1194.18 2219.26,1194.34 2219.63,1194.48 2220,1194.63 2220.38,1194.78 2220.75,1194.93 2221.12,1195.07 
  2221.49,1195.22 2221.85,1195.37 2222.22,1195.52 2222.59,1195.67 2222.96,1195.82 2223.33,1195.97 2223.69,1196.11 2224.06,1196.26 2224.43,1196.41 2224.79,1196.55 
  2225.16,1196.69 2225.52,1196.83 2225.88,1196.98 2226.25,1197.12 2226.61,1197.26 2226.97,1197.41 2227.33,1197.55 2227.7,1197.69 2228.06,1197.84 2228.42,1197.99 
  2228.78,1198.14 2229.14,1198.3 2229.5,1198.45 2229.86,1198.6 2230.22,1198.75 2230.57,1198.9 2230.93,1199.06 2231.29,1199.21 2231.64,1199.36 2232,1199.52 
  2232.36,1199.67 2232.71,1199.82 2233.07,1199.97 2233.42,1200.12 2233.78,1200.27 2234.13,1200.41 2234.48,1200.56 2234.84,1200.71 2235.19,1200.86 2235.54,1201 
  2235.89,1201.15 2236.24,1201.3 2236.59,1201.45 2236.94,1201.58 2237.29,1201.72 2237.64,1201.86 2237.99,1202 2238.34,1202.14 2238.69,1202.28 2239.04,1202.42 
  2239.38,1202.56 2239.73,1202.7 2240.08,1202.84 2240.42,1202.98 2240.77,1203.12 2241.11,1203.26 2241.46,1203.4 2241.8,1203.53 2242.15,1203.67 2242.49,1203.8 
  2242.83,1203.93 2243.18,1204.07 2243.52,1204.2 2243.86,1204.34 2244.2,1204.47 2244.54,1204.61 2244.88,1204.74 2245.22,1204.88 2245.56,1205.02 2245.9,1205.16 
  2246.24,1205.3 2246.58,1205.43 2246.92,1205.57 2247.26,1205.71 2247.59,1205.85 2247.93,1205.99 2248.27,1206.13 2248.6,1206.27 2248.94,1206.41 2249.28,1206.55 
  2249.61,1206.69 2249.95,1206.83 2250.28,1206.97 2250.61,1207.1 2250.95,1207.24 2251.28,1207.37 2251.61,1207.51 2251.95,1207.64 2252.28,1207.78 2252.61,1207.91 
  2252.94,1208.05 2253.27,1208.18 2253.6,1208.32 2253.93,1208.45 2254.26,1208.59 2254.59,1208.72 2254.92,1208.85 2255.25,1208.99 2255.58,1209.12 2255.91,1209.26 
  2256.23,1209.4 2256.56,1209.53 2256.89,1209.67 2257.21,1209.8 2257.54,1209.94 2257.87,1210.07 2258.19,1210.21 2258.52,1210.35 2258.84,1210.48 2259.16,1210.61 
  2259.49,1210.74 2259.81,1210.87 2260.13,1211 2260.46,1211.13 2260.78,1211.26 2261.1,1211.39 2261.42,1211.52 2261.75,1211.65 2262.07,1211.79 2262.39,1211.92 
  2262.71,1212.05 2263.03,1212.18 2263.35,1212.31 2263.67,1212.44 2263.98,1212.57 2264.3,1212.7 2264.62,1212.83 2264.94,1212.96 2265.26,1213.1 2265.57,1213.23 
  2265.89,1213.36 2266.21,1213.49 2266.52,1213.62 2266.84,1213.76 2267.15,1213.89 2267.47,1214.02 2267.78,1214.14 2268.1,1214.27 2268.41,1214.39 2268.72,1214.52 
  2269.04,1214.65 2269.35,1214.78 2269.66,1214.9 2269.98,1215.03 2270.29,1215.16 2270.6,1215.28 2270.91,1215.41 2271.22,1215.54 2271.53,1215.67 2271.84,1215.79 
  2272.15,1215.92 2272.46,1216.05 2272.77,1216.17 2273.08,1216.3 2273.39,1216.43 2273.7,1216.56 2274,1216.68 2274.31,1216.81 2274.62,1216.94 2274.93,1217.07 
  2275.23,1217.2 2275.54,1217.32 2275.85,1217.45 2276.15,1217.57 2276.46,1217.7 2276.76,1217.82 2277.07,1217.94 2277.37,1218.06 2277.67,1218.19 2277.98,1218.31 
  2278.28,1218.43 2278.58,1218.56 2278.89,1218.68 2279.19,1218.8 2279.49,1218.93 2279.79,1219.05 2280.09,1219.17 2280.4,1219.29 2280.7,1219.41 2281,1219.53 
  2281.3,1219.65 2281.6,1219.77 2281.9,1219.89 2282.2,1220.01 2282.5,1220.13 2282.79,1220.25 2283.09,1220.37 2283.39,1220.49 2283.69,1220.61 2283.99,1220.73 
  2284.28,1220.85 2284.58,1220.97 2284.88,1221.1 2285.17,1221.22 2285.47,1221.34 2285.76,1221.46 2286.06,1221.58 2286.35,1221.7 2286.65,1221.83 2286.94,1221.95 
  2287.24,1222.07 2287.53,1222.19 2287.82,1222.31 2288.12,1222.44 2288.41,1222.56 2288.7,1222.68 2289,1222.81 2289.29,1222.93 2289.58,1223.05 2289.87,1223.18 
  2290.16,1223.3 2290.45,1223.42 2290.74,1223.55 2291.03,1223.67 2291.32,1223.79 2291.61,1223.92 2291.9,1224.04 2292.19,1224.17 2292.48,1224.29 2292.77,1224.42 
  2293.06,1224.54 
  "/>
<path clip-path="url(#clip740)" d="
M1873.09 287.346 L2282.44 287.346 L2282.44 166.386 L1873.09 166.386  Z
  " fill="#ffffff" fill-rule="evenodd" fill-opacity="1"/>
<polyline clip-path="url(#clip740)" style="stroke:#000000; stroke-width:4; stroke-opacity:1; fill:none" points="
  1873.09,287.346 2282.44,287.346 2282.44,166.386 1873.09,166.386 1873.09,287.346 
  "/>
<polyline clip-path="url(#clip740)" style="stroke:#000000; stroke-width:4; stroke-opacity:1; fill:none" points="
  1896.53,226.866 2037.16,226.866 
  "/>
<path clip-path="url(#clip740)" d="M 0 0 M2079.02 218.984 L2079.02 223.012 Q2077.21 222.086 2075.27 221.623 Q2073.32 221.16 2071.24 221.16 Q2068.07 221.16 2066.47 222.133 Q2064.9 223.105 2064.9 225.049 Q2064.9 226.531 2066.03 227.387 Q2067.17 228.22 2070.59 228.984 L2072.05 229.308 Q2076.59 230.281 2078.49 232.063 Q2080.41 233.822 2080.41 236.994 Q2080.41 240.605 2077.54 242.711 Q2074.69 244.818 2069.69 244.818 Q2067.61 244.818 2065.34 244.401 Q2063.09 244.007 2060.59 243.197 L2060.59 238.799 Q2062.95 240.026 2065.25 240.651 Q2067.54 241.253 2069.78 241.253 Q2072.79 241.253 2074.41 240.234 Q2076.03 239.193 2076.03 237.318 Q2076.03 235.582 2074.85 234.656 Q2073.69 233.73 2069.74 232.873 L2068.25 232.526 Q2064.3 231.693 2062.54 229.98 Q2060.78 228.244 2060.78 225.234 Q2060.78 221.577 2063.37 219.586 Q2065.96 217.595 2070.73 217.595 Q2073.09 217.595 2075.18 217.943 Q2077.26 218.29 2079.02 218.984 Z" fill="#000000" fill-rule="evenodd" fill-opacity="1" /><path clip-path="url(#clip740)" d="M 0 0 M2103.53 219.216 L2103.53 223.197 Q2101.73 222.202 2099.9 221.716 Q2098.09 221.207 2096.24 221.207 Q2092.1 221.207 2089.81 223.845 Q2087.51 226.461 2087.51 231.207 Q2087.51 235.952 2089.81 238.591 Q2092.1 241.206 2096.24 241.206 Q2098.09 241.206 2099.9 240.72 Q2101.73 240.211 2103.53 239.216 L2103.53 243.151 Q2101.75 243.984 2099.83 244.401 Q2097.93 244.818 2095.78 244.818 Q2089.92 244.818 2086.47 241.137 Q2083.02 237.456 2083.02 231.207 Q2083.02 224.864 2086.5 221.23 Q2089.99 217.595 2096.06 217.595 Q2098.02 217.595 2099.9 218.012 Q2101.77 218.406 2103.53 219.216 Z" fill="#000000" fill-rule="evenodd" fill-opacity="1" /><path clip-path="url(#clip740)" d="M 0 0 M2130.18 230.119 L2130.18 232.202 L2110.59 232.202 Q2110.87 236.6 2113.23 238.915 Q2115.62 241.206 2119.85 241.206 Q2122.31 241.206 2124.6 240.605 Q2126.91 240.003 2129.18 238.799 L2129.18 242.827 Q2126.89 243.799 2124.48 244.308 Q2122.07 244.818 2119.6 244.818 Q2113.39 244.818 2109.76 241.206 Q2106.15 237.595 2106.15 231.438 Q2106.15 225.072 2109.57 221.345 Q2113.02 217.595 2118.86 217.595 Q2124.09 217.595 2127.12 220.975 Q2130.18 224.332 2130.18 230.119 M2125.92 228.869 Q2125.87 225.373 2123.95 223.29 Q2122.05 221.207 2118.9 221.207 Q2115.34 221.207 2113.19 223.22 Q2111.06 225.234 2110.73 228.892 L2125.92 228.869 Z" fill="#000000" fill-rule="evenodd" fill-opacity="1" /><path clip-path="url(#clip740)" d="M 0 0 M2156.19 228.498 L2156.19 244.146 L2151.93 244.146 L2151.93 228.637 Q2151.93 224.957 2150.5 223.128 Q2149.06 221.299 2146.19 221.299 Q2142.75 221.299 2140.75 223.498 Q2138.76 225.697 2138.76 229.494 L2138.76 244.146 L2134.48 244.146 L2134.48 218.22 L2138.76 218.22 L2138.76 222.248 Q2140.29 219.91 2142.35 218.753 Q2144.43 217.595 2147.14 217.595 Q2151.61 217.595 2153.9 220.373 Q2156.19 223.128 2156.19 228.498 Z" fill="#000000" fill-rule="evenodd" fill-opacity="1" /><path clip-path="url(#clip740)" d="M 0 0 M2172.44 231.114 Q2167.28 231.114 2165.29 232.294 Q2163.3 233.475 2163.3 236.322 Q2163.3 238.591 2164.78 239.933 Q2166.29 241.253 2168.86 241.253 Q2172.4 241.253 2174.53 238.753 Q2176.68 236.23 2176.68 232.063 L2176.68 231.114 L2172.44 231.114 M2180.94 229.355 L2180.94 244.146 L2176.68 244.146 L2176.68 240.211 Q2175.22 242.572 2173.05 243.706 Q2170.87 244.818 2167.72 244.818 Q2163.74 244.818 2161.38 242.595 Q2159.04 240.35 2159.04 236.6 Q2159.04 232.225 2161.96 230.003 Q2164.9 227.781 2170.71 227.781 L2176.68 227.781 L2176.68 227.364 Q2176.68 224.424 2174.74 222.827 Q2172.81 221.207 2169.32 221.207 Q2167.1 221.207 2164.99 221.739 Q2162.88 222.271 2160.94 223.336 L2160.94 219.401 Q2163.28 218.498 2165.48 218.058 Q2167.68 217.595 2169.76 217.595 Q2175.38 217.595 2178.16 220.512 Q2180.94 223.429 2180.94 229.355 Z" fill="#000000" fill-rule="evenodd" fill-opacity="1" /><path clip-path="url(#clip740)" d="M 0 0 M2200.43 222.202 Q2199.71 221.785 2198.86 221.6 Q2198.02 221.392 2197 221.392 Q2193.39 221.392 2191.45 223.753 Q2189.53 226.091 2189.53 230.489 L2189.53 244.146 L2185.24 244.146 L2185.24 218.22 L2189.53 218.22 L2189.53 222.248 Q2190.87 219.887 2193.02 218.753 Q2195.18 217.595 2198.25 217.595 Q2198.69 217.595 2199.23 217.665 Q2199.76 217.711 2200.41 217.827 L2200.43 222.202 Z" fill="#000000" fill-rule="evenodd" fill-opacity="1" /><path clip-path="url(#clip740)" d="M 0 0 M2204.9 218.22 L2209.16 218.22 L2209.16 244.146 L2204.9 244.146 L2204.9 218.22 M2204.9 208.128 L2209.16 208.128 L2209.16 213.521 L2204.9 213.521 L2204.9 208.128 Z" fill="#000000" fill-rule="evenodd" fill-opacity="1" /><path clip-path="url(#clip740)" d="M 0 0 M2223.67 221.207 Q2220.24 221.207 2218.25 223.892 Q2216.26 226.554 2216.26 231.207 Q2216.26 235.859 2218.23 238.544 Q2220.22 241.206 2223.67 241.206 Q2227.07 241.206 2229.06 238.521 Q2231.05 235.836 2231.05 231.207 Q2231.05 226.6 2229.06 223.915 Q2227.07 221.207 2223.67 221.207 M2223.67 217.595 Q2229.23 217.595 2232.4 221.207 Q2235.57 224.818 2235.57 231.207 Q2235.57 237.572 2232.4 241.206 Q2229.23 244.818 2223.67 244.818 Q2218.09 244.818 2214.92 241.206 Q2211.77 237.572 2211.77 231.207 Q2211.77 224.818 2214.92 221.207 Q2218.09 217.595 2223.67 217.595 Z" fill="#000000" fill-rule="evenodd" fill-opacity="1" /></svg>
