<?xml version="1.0" encoding="utf-8"?>
<svg xmlns="http://www.w3.org/2000/svg" xmlns:xlink="http://www.w3.org/1999/xlink" width="600" height="400" viewBox="0 0 2400 1600">
<defs>
  <clipPath id="clip620">
    <rect x="0" y="0" width="2400" height="1600"/>
  </clipPath>
</defs>
<path clip-path="url(#clip620)" d="
M0 1600 L2400 1600 L2400 0 L0 0  Z
  " fill="#ffffff" fill-rule="evenodd" fill-opacity="1"/>
<defs>
  <clipPath id="clip621">
    <rect x="480" y="0" width="1681" height="1600"/>
  </clipPath>
</defs>
<path clip-path="url(#clip620)" d="
M209.658 1423.18 L2352.76 1423.18 L2352.76 123.472 L209.658 123.472  Z
  " fill="#ffffff" fill-rule="evenodd" fill-opacity="1"/>
<defs>
  <clipPath id="clip622">
    <rect x="209" y="123" width="2144" height="1301"/>
  </clipPath>
</defs>
<polyline clip-path="url(#clip622)" style="stroke:#000000; stroke-width:2; stroke-opacity:0.1; fill:none" points="
  270.312,1423.18 270.312,123.472 
  "/>
<polyline clip-path="url(#clip622)" style="stroke:#000000; stroke-width:2; stroke-opacity:0.1; fill:none" points="
  778.299,1423.18 778.299,123.472 
  "/>
<polyline clip-path="url(#clip622)" style="stroke:#000000; stroke-width:2; stroke-opacity:0.1; fill:none" points="
  1286.29,1423.18 1286.29,123.472 
  "/>
<polyline clip-path="url(#clip622)" style="stroke:#000000; stroke-width:2; stroke-opacity:0.1; fill:none" points="
  1794.27,1423.18 1794.27,123.472 
  "/>
<polyline clip-path="url(#clip622)" style="stroke:#000000; stroke-width:2; stroke-opacity:0.1; fill:none" points="
  2302.26,1423.18 2302.26,123.472 
  "/>
<polyline clip-path="url(#clip620)" style="stroke:#000000; stroke-width:4; stroke-opacity:1; fill:none" points="
  209.658,1423.18 2352.76,1423.18 
  "/>
<polyline clip-path="url(#clip620)" style="stroke:#000000; stroke-width:4; stroke-opacity:1; fill:none" points="
  270.312,1423.18 270.312,1407.58 
  "/>
<polyline clip-path="url(#clip620)" style="stroke:#000000; stroke-width:4; stroke-opacity:1; fill:none" points="
  778.299,1423.18 778.299,1407.58 
  "/>
<polyline clip-path="url(#clip620)" style="stroke:#000000; stroke-width:4; stroke-opacity:1; fill:none" points="
  1286.29,1423.18 1286.29,1407.58 
  "/>
<polyline clip-path="url(#clip620)" style="stroke:#000000; stroke-width:4; stroke-opacity:1; fill:none" points="
  1794.27,1423.18 1794.27,1407.58 
  "/>
<polyline clip-path="url(#clip620)" style="stroke:#000000; stroke-width:4; stroke-opacity:1; fill:none" points="
  2302.26,1423.18 2302.26,1407.58 
  "/>
<path clip-path="url(#clip620)" d="M 0 0 M224.097 1467.02 L253.772 1467.02 L253.772 1470.96 L224.097 1470.96 L224.097 1467.02 Z" fill="#000000" fill-rule="evenodd" fill-opacity="1" /><path clip-path="url(#clip620)" d="M 0 0 M259.652 1479.92 L267.291 1479.92 L267.291 1453.55 L258.981 1455.22 L258.981 1450.96 L267.245 1449.29 L271.92 1449.29 L271.92 1479.92 L279.559 1479.92 L279.559 1483.85 L259.652 1483.85 L259.652 1479.92 Z" fill="#000000" fill-rule="evenodd" fill-opacity="1" /><path clip-path="url(#clip620)" d="M 0 0 M284.629 1477.97 L289.513 1477.97 L289.513 1483.85 L284.629 1483.85 L284.629 1477.97 Z" fill="#000000" fill-rule="evenodd" fill-opacity="1" /><path clip-path="url(#clip620)" d="M 0 0 M304.582 1452.37 Q300.971 1452.37 299.143 1455.94 Q297.337 1459.48 297.337 1466.61 Q297.337 1473.71 299.143 1477.28 Q300.971 1480.82 304.582 1480.82 Q308.217 1480.82 310.022 1477.28 Q311.851 1473.71 311.851 1466.61 Q311.851 1459.48 310.022 1455.94 Q308.217 1452.37 304.582 1452.37 M304.582 1448.67 Q310.393 1448.67 313.448 1453.27 Q316.527 1457.86 316.527 1466.61 Q316.527 1475.33 313.448 1479.94 Q310.393 1484.52 304.582 1484.52 Q298.772 1484.52 295.694 1479.94 Q292.638 1475.33 292.638 1466.61 Q292.638 1457.86 295.694 1453.27 Q298.772 1448.67 304.582 1448.67 Z" fill="#000000" fill-rule="evenodd" fill-opacity="1" /><path clip-path="url(#clip620)" d="M 0 0 M731.968 1467.02 L761.644 1467.02 L761.644 1470.96 L731.968 1470.96 L731.968 1467.02 Z" fill="#000000" fill-rule="evenodd" fill-opacity="1" /><path clip-path="url(#clip620)" d="M 0 0 M776.714 1452.37 Q773.103 1452.37 771.274 1455.94 Q769.468 1459.48 769.468 1466.61 Q769.468 1473.71 771.274 1477.28 Q773.103 1480.82 776.714 1480.82 Q780.348 1480.82 782.153 1477.28 Q783.982 1473.71 783.982 1466.61 Q783.982 1459.48 782.153 1455.94 Q780.348 1452.37 776.714 1452.37 M776.714 1448.67 Q782.524 1448.67 785.579 1453.27 Q788.658 1457.86 788.658 1466.61 Q788.658 1475.33 785.579 1479.94 Q782.524 1484.52 776.714 1484.52 Q770.903 1484.52 767.825 1479.94 Q764.769 1475.33 764.769 1466.61 Q764.769 1457.86 767.825 1453.27 Q770.903 1448.67 776.714 1448.67 Z" fill="#000000" fill-rule="evenodd" fill-opacity="1" /><path clip-path="url(#clip620)" d="M 0 0 M793.727 1477.97 L798.612 1477.97 L798.612 1483.85 L793.727 1483.85 L793.727 1477.97 Z" fill="#000000" fill-rule="evenodd" fill-opacity="1" /><path clip-path="url(#clip620)" d="M 0 0 M803.727 1449.29 L822.084 1449.29 L822.084 1453.23 L808.01 1453.23 L808.01 1461.7 Q809.028 1461.35 810.047 1461.19 Q811.065 1461 812.084 1461 Q817.871 1461 821.25 1464.18 Q824.63 1467.35 824.63 1472.76 Q824.63 1478.34 821.158 1481.44 Q817.686 1484.52 811.366 1484.52 Q809.19 1484.52 806.922 1484.15 Q804.676 1483.78 802.269 1483.04 L802.269 1478.34 Q804.352 1479.48 806.575 1480.03 Q808.797 1480.59 811.274 1480.59 Q815.278 1480.59 817.616 1478.48 Q819.954 1476.38 819.954 1472.76 Q819.954 1469.15 817.616 1467.05 Q815.278 1464.94 811.274 1464.94 Q809.399 1464.94 807.524 1465.36 Q805.672 1465.77 803.727 1466.65 L803.727 1449.29 Z" fill="#000000" fill-rule="evenodd" fill-opacity="1" /><path clip-path="url(#clip620)" d="M 0 0 M1267.8 1452.37 Q1264.19 1452.37 1262.36 1455.94 Q1260.56 1459.48 1260.56 1466.61 Q1260.56 1473.71 1262.36 1477.28 Q1264.19 1480.82 1267.8 1480.82 Q1271.44 1480.82 1273.24 1477.28 Q1275.07 1473.71 1275.07 1466.61 Q1275.07 1459.48 1273.24 1455.94 Q1271.44 1452.37 1267.8 1452.37 M1267.8 1448.67 Q1273.61 1448.67 1276.67 1453.27 Q1279.75 1457.86 1279.75 1466.61 Q1279.75 1475.33 1276.67 1479.94 Q1273.61 1484.52 1267.8 1484.52 Q1261.99 1484.52 1258.91 1479.94 Q1255.86 1475.33 1255.86 1466.61 Q1255.86 1457.86 1258.91 1453.27 Q1261.99 1448.67 1267.8 1448.67 Z" fill="#000000" fill-rule="evenodd" fill-opacity="1" /><path clip-path="url(#clip620)" d="M 0 0 M1284.82 1477.97 L1289.7 1477.97 L1289.7 1483.85 L1284.82 1483.85 L1284.82 1477.97 Z" fill="#000000" fill-rule="evenodd" fill-opacity="1" /><path clip-path="url(#clip620)" d="M 0 0 M1304.77 1452.37 Q1301.16 1452.37 1299.33 1455.94 Q1297.53 1459.48 1297.53 1466.61 Q1297.53 1473.71 1299.33 1477.28 Q1301.16 1480.82 1304.77 1480.82 Q1308.4 1480.82 1310.21 1477.28 Q1312.04 1473.71 1312.04 1466.61 Q1312.04 1459.48 1310.21 1455.94 Q1308.4 1452.37 1304.77 1452.37 M1304.77 1448.67 Q1310.58 1448.67 1313.64 1453.27 Q1316.71 1457.86 1316.71 1466.61 Q1316.71 1475.33 1313.64 1479.94 Q1310.58 1484.52 1304.77 1484.52 Q1298.96 1484.52 1295.88 1479.94 Q1292.83 1475.33 1292.83 1466.61 Q1292.83 1457.86 1295.88 1453.27 Q1298.96 1448.67 1304.77 1448.67 Z" fill="#000000" fill-rule="evenodd" fill-opacity="1" /><path clip-path="url(#clip620)" d="M 0 0 M1776.29 1452.37 Q1772.68 1452.37 1770.85 1455.94 Q1769.04 1459.48 1769.04 1466.61 Q1769.04 1473.71 1770.85 1477.28 Q1772.68 1480.82 1776.29 1480.82 Q1779.92 1480.82 1781.73 1477.28 Q1783.56 1473.71 1783.56 1466.61 Q1783.56 1459.48 1781.73 1455.94 Q1779.92 1452.37 1776.29 1452.37 M1776.29 1448.67 Q1782.1 1448.67 1785.15 1453.27 Q1788.23 1457.86 1788.23 1466.61 Q1788.23 1475.33 1785.15 1479.94 Q1782.1 1484.52 1776.29 1484.52 Q1770.48 1484.52 1767.4 1479.94 Q1764.34 1475.33 1764.34 1466.61 Q1764.34 1457.86 1767.4 1453.27 Q1770.48 1448.67 1776.29 1448.67 Z" fill="#000000" fill-rule="evenodd" fill-opacity="1" /><path clip-path="url(#clip620)" d="M 0 0 M1793.3 1477.97 L1798.19 1477.97 L1798.19 1483.85 L1793.3 1483.85 L1793.3 1477.97 Z" fill="#000000" fill-rule="evenodd" fill-opacity="1" /><path clip-path="url(#clip620)" d="M 0 0 M1803.3 1449.29 L1821.66 1449.29 L1821.66 1453.23 L1807.58 1453.23 L1807.58 1461.7 Q1808.6 1461.35 1809.62 1461.19 Q1810.64 1461 1811.66 1461 Q1817.45 1461 1820.83 1464.18 Q1824.2 1467.35 1824.2 1472.76 Q1824.2 1478.34 1820.73 1481.44 Q1817.26 1484.52 1810.94 1484.52 Q1808.77 1484.52 1806.5 1484.15 Q1804.25 1483.78 1801.84 1483.04 L1801.84 1478.34 Q1803.93 1479.48 1806.15 1480.03 Q1808.37 1480.59 1810.85 1480.59 Q1814.85 1480.59 1817.19 1478.48 Q1819.53 1476.38 1819.53 1472.76 Q1819.53 1469.15 1817.19 1467.05 Q1814.85 1464.94 1810.85 1464.94 Q1808.97 1464.94 1807.1 1465.36 Q1805.25 1465.77 1803.3 1466.65 L1803.3 1449.29 Z" fill="#000000" fill-rule="evenodd" fill-opacity="1" /><path clip-path="url(#clip620)" d="M 0 0 M2274.16 1479.92 L2281.8 1479.92 L2281.8 1453.55 L2273.49 1455.22 L2273.49 1450.96 L2281.75 1449.29 L2286.43 1449.29 L2286.43 1479.92 L2294.07 1479.92 L2294.07 1483.85 L2274.16 1483.85 L2274.16 1479.92 Z" fill="#000000" fill-rule="evenodd" fill-opacity="1" /><path clip-path="url(#clip620)" d="M 0 0 M2299.14 1477.97 L2304.02 1477.97 L2304.02 1483.85 L2299.14 1483.85 L2299.14 1477.97 Z" fill="#000000" fill-rule="evenodd" fill-opacity="1" /><path clip-path="url(#clip620)" d="M 0 0 M2319.09 1452.37 Q2315.48 1452.37 2313.65 1455.94 Q2311.85 1459.48 2311.85 1466.61 Q2311.85 1473.71 2313.65 1477.28 Q2315.48 1480.82 2319.09 1480.82 Q2322.72 1480.82 2324.53 1477.28 Q2326.36 1473.71 2326.36 1466.61 Q2326.36 1459.48 2324.53 1455.94 Q2322.72 1452.37 2319.09 1452.37 M2319.09 1448.67 Q2324.9 1448.67 2327.96 1453.27 Q2331.03 1457.86 2331.03 1466.61 Q2331.03 1475.33 2327.96 1479.94 Q2324.9 1484.52 2319.09 1484.52 Q2313.28 1484.52 2310.2 1479.94 Q2307.15 1475.33 2307.15 1466.61 Q2307.15 1457.86 2310.2 1453.27 Q2313.28 1448.67 2319.09 1448.67 Z" fill="#000000" fill-rule="evenodd" fill-opacity="1" /><path clip-path="url(#clip620)" d="M 0 0 M1286.41 1539.46 L1285.01 1532.11 Q1283.58 1524.57 1277.91 1524.57 Q1273.65 1524.57 1271.71 1528.07 Q1269.26 1532.46 1269.26 1538.25 Q1269.26 1545.25 1271.64 1548.6 Q1274.06 1552 1277.91 1552 Q1282.18 1552 1284.47 1545.22 L1286.41 1539.46 M1289.69 1529.72 L1292.84 1520.4 L1298.06 1520.4 L1291.54 1539.72 L1292.81 1546.69 Q1293.09 1548.25 1294.21 1549.55 Q1295.51 1551.08 1296.53 1551.08 L1299.33 1551.08 L1299.33 1556.04 L1295.83 1556.04 Q1292.84 1556.04 1290.17 1553.37 Q1288.86 1552.03 1288.32 1549.23 Q1286.86 1552.77 1283.86 1555.53 Q1282.46 1556.84 1277.91 1556.84 Q1270.43 1556.84 1266.8 1552 Q1263.08 1547 1263.08 1538.25 Q1263.08 1528.89 1267.12 1524.5 Q1271.61 1519.6 1277.91 1519.6 Q1287.81 1519.6 1289.69 1529.72 Z" fill="#000000" fill-rule="evenodd" fill-opacity="1" /><polyline clip-path="url(#clip622)" style="stroke:#000000; stroke-width:2; stroke-opacity:0.1; fill:none" points="
  209.658,1209.47 2352.76,1209.47 
  "/>
<polyline clip-path="url(#clip622)" style="stroke:#000000; stroke-width:2; stroke-opacity:0.1; fill:none" points="
  209.658,962.596 2352.76,962.596 
  "/>
<polyline clip-path="url(#clip622)" style="stroke:#000000; stroke-width:2; stroke-opacity:0.1; fill:none" points="
  209.658,715.722 2352.76,715.722 
  "/>
<polyline clip-path="url(#clip622)" style="stroke:#000000; stroke-width:2; stroke-opacity:0.1; fill:none" points="
  209.658,468.848 2352.76,468.848 
  "/>
<polyline clip-path="url(#clip622)" style="stroke:#000000; stroke-width:2; stroke-opacity:0.1; fill:none" points="
  209.658,221.975 2352.76,221.975 
  "/>
<polyline clip-path="url(#clip620)" style="stroke:#000000; stroke-width:4; stroke-opacity:1; fill:none" points="
  209.658,1423.18 209.658,123.472 
  "/>
<polyline clip-path="url(#clip620)" style="stroke:#000000; stroke-width:4; stroke-opacity:1; fill:none" points="
  209.658,1209.47 235.375,1209.47 
  "/>
<polyline clip-path="url(#clip620)" style="stroke:#000000; stroke-width:4; stroke-opacity:1; fill:none" points="
  209.658,962.596 235.375,962.596 
  "/>
<polyline clip-path="url(#clip620)" style="stroke:#000000; stroke-width:4; stroke-opacity:1; fill:none" points="
  209.658,715.722 235.375,715.722 
  "/>
<polyline clip-path="url(#clip620)" style="stroke:#000000; stroke-width:4; stroke-opacity:1; fill:none" points="
  209.658,468.848 235.375,468.848 
  "/>
<polyline clip-path="url(#clip620)" style="stroke:#000000; stroke-width:4; stroke-opacity:1; fill:none" points="
  209.658,221.975 235.375,221.975 
  "/>
<path clip-path="url(#clip620)" d="M 0 0 M117.779 1222.81 L125.418 1222.81 L125.418 1196.45 L117.107 1198.12 L117.107 1193.86 L125.371 1192.19 L130.047 1192.19 L130.047 1222.81 L137.686 1222.81 L137.686 1226.75 L117.779 1226.75 L117.779 1222.81 Z" fill="#000000" fill-rule="evenodd" fill-opacity="1" /><path clip-path="url(#clip620)" d="M 0 0 M142.755 1220.87 L147.64 1220.87 L147.64 1226.75 L142.755 1226.75 L142.755 1220.87 Z" fill="#000000" fill-rule="evenodd" fill-opacity="1" /><path clip-path="url(#clip620)" d="M 0 0 M152.755 1192.19 L171.112 1192.19 L171.112 1196.12 L157.038 1196.12 L157.038 1204.6 Q158.056 1204.25 159.075 1204.09 Q160.093 1203.9 161.112 1203.9 Q166.899 1203.9 170.278 1207.07 Q173.658 1210.24 173.658 1215.66 Q173.658 1221.24 170.186 1224.34 Q166.714 1227.42 160.394 1227.42 Q158.218 1227.42 155.95 1227.05 Q153.704 1226.68 151.297 1225.94 L151.297 1221.24 Q153.38 1222.37 155.603 1222.93 Q157.825 1223.49 160.302 1223.49 Q164.306 1223.49 166.644 1221.38 Q168.982 1219.27 168.982 1215.66 Q168.982 1212.05 166.644 1209.94 Q164.306 1207.84 160.302 1207.84 Q158.427 1207.84 156.552 1208.25 Q154.7 1208.67 152.755 1209.55 L152.755 1192.19 Z" fill="#000000" fill-rule="evenodd" fill-opacity="1" /><path clip-path="url(#clip620)" d="M 0 0 M116.876 975.941 L124.515 975.941 L124.515 949.575 L116.205 951.242 L116.205 946.982 L124.468 945.316 L129.144 945.316 L129.144 975.941 L136.783 975.941 L136.783 979.876 L116.876 979.876 L116.876 975.941 Z" fill="#000000" fill-rule="evenodd" fill-opacity="1" /><path clip-path="url(#clip620)" d="M 0 0 M141.853 973.996 L146.737 973.996 L146.737 979.876 L141.853 979.876 L141.853 973.996 Z" fill="#000000" fill-rule="evenodd" fill-opacity="1" /><path clip-path="url(#clip620)" d="M 0 0 M161.806 963.464 Q158.473 963.464 156.552 965.246 Q154.653 967.029 154.653 970.154 Q154.653 973.279 156.552 975.061 Q158.473 976.843 161.806 976.843 Q165.14 976.843 167.061 975.061 Q168.982 973.255 168.982 970.154 Q168.982 967.029 167.061 965.246 Q165.163 963.464 161.806 963.464 M157.13 961.473 Q154.121 960.732 152.431 958.672 Q150.765 956.612 150.765 953.649 Q150.765 949.506 153.704 947.098 Q156.667 944.691 161.806 944.691 Q166.968 944.691 169.908 947.098 Q172.848 949.506 172.848 953.649 Q172.848 956.612 171.158 958.672 Q169.491 960.732 166.505 961.473 Q169.885 962.26 171.76 964.552 Q173.658 966.843 173.658 970.154 Q173.658 975.177 170.579 977.862 Q167.524 980.547 161.806 980.547 Q156.089 980.547 153.01 977.862 Q149.954 975.177 149.954 970.154 Q149.954 966.843 151.853 964.552 Q153.751 962.26 157.13 961.473 M155.417 954.089 Q155.417 956.774 157.084 958.279 Q158.774 959.783 161.806 959.783 Q164.815 959.783 166.505 958.279 Q168.218 956.774 168.218 954.089 Q168.218 951.404 166.505 949.899 Q164.815 948.395 161.806 948.395 Q158.774 948.395 157.084 949.899 Q155.417 951.404 155.417 954.089 Z" fill="#000000" fill-rule="evenodd" fill-opacity="1" /><path clip-path="url(#clip620)" d="M 0 0 M121.598 729.067 L137.917 729.067 L137.917 733.002 L115.973 733.002 L115.973 729.067 Q118.635 726.312 123.218 721.683 Q127.825 717.03 129.005 715.687 Q131.251 713.164 132.13 711.428 Q133.033 709.669 133.033 707.979 Q133.033 705.224 131.089 703.488 Q129.167 701.752 126.066 701.752 Q123.867 701.752 121.413 702.516 Q118.982 703.28 116.205 704.831 L116.205 700.109 Q119.029 698.975 121.482 698.396 Q123.936 697.817 125.973 697.817 Q131.343 697.817 134.538 700.502 Q137.732 703.187 137.732 707.678 Q137.732 709.808 136.922 711.729 Q136.135 713.627 134.029 716.22 Q133.45 716.891 130.348 720.109 Q127.246 723.303 121.598 729.067 Z" fill="#000000" fill-rule="evenodd" fill-opacity="1" /><path clip-path="url(#clip620)" d="M 0 0 M142.987 727.123 L147.871 727.123 L147.871 733.002 L142.987 733.002 L142.987 727.123 Z" fill="#000000" fill-rule="evenodd" fill-opacity="1" /><path clip-path="url(#clip620)" d="M 0 0 M153.751 729.067 L161.39 729.067 L161.39 702.701 L153.079 704.368 L153.079 700.109 L161.343 698.442 L166.019 698.442 L166.019 729.067 L173.658 729.067 L173.658 733.002 L153.751 733.002 L153.751 729.067 Z" fill="#000000" fill-rule="evenodd" fill-opacity="1" /><path clip-path="url(#clip620)" d="M 0 0 M119.885 482.193 L136.204 482.193 L136.204 486.128 L114.26 486.128 L114.26 482.193 Q116.922 479.439 121.505 474.809 Q126.112 470.156 127.292 468.814 Q129.538 466.291 130.417 464.554 Q131.32 462.795 131.32 461.105 Q131.32 458.351 129.376 456.615 Q127.455 454.879 124.353 454.879 Q122.154 454.879 119.7 455.642 Q117.269 456.406 114.492 457.957 L114.492 453.235 Q117.316 452.101 119.769 451.522 Q122.223 450.943 124.26 450.943 Q129.63 450.943 132.825 453.629 Q136.019 456.314 136.019 460.804 Q136.019 462.934 135.209 464.855 Q134.422 466.754 132.316 469.346 Q131.737 470.017 128.635 473.235 Q125.533 476.429 119.885 482.193 Z" fill="#000000" fill-rule="evenodd" fill-opacity="1" /><path clip-path="url(#clip620)" d="M 0 0 M141.274 480.249 L146.158 480.249 L146.158 486.128 L141.274 486.128 L141.274 480.249 Z" fill="#000000" fill-rule="evenodd" fill-opacity="1" /><path clip-path="url(#clip620)" d="M 0 0 M164.075 455.642 L152.269 474.091 L164.075 474.091 L164.075 455.642 M162.848 451.568 L168.727 451.568 L168.727 474.091 L173.658 474.091 L173.658 477.98 L168.727 477.98 L168.727 486.128 L164.075 486.128 L164.075 477.98 L148.473 477.98 L148.473 473.466 L162.848 451.568 Z" fill="#000000" fill-rule="evenodd" fill-opacity="1" /><path clip-path="url(#clip620)" d="M 0 0 M121.274 235.32 L137.593 235.32 L137.593 239.255 L115.649 239.255 L115.649 235.32 Q118.311 232.565 122.894 227.935 Q127.501 223.283 128.681 221.94 Q130.927 219.417 131.806 217.681 Q132.709 215.922 132.709 214.232 Q132.709 211.477 130.765 209.741 Q128.843 208.005 125.742 208.005 Q123.543 208.005 121.089 208.769 Q118.658 209.533 115.881 211.084 L115.881 206.361 Q118.705 205.227 121.158 204.648 Q123.612 204.07 125.649 204.07 Q131.019 204.07 134.214 206.755 Q137.408 209.44 137.408 213.931 Q137.408 216.06 136.598 217.982 Q135.811 219.88 133.704 222.472 Q133.126 223.144 130.024 226.361 Q126.922 229.556 121.274 235.32 Z" fill="#000000" fill-rule="evenodd" fill-opacity="1" /><path clip-path="url(#clip620)" d="M 0 0 M142.663 233.375 L147.547 233.375 L147.547 239.255 L142.663 239.255 L142.663 233.375 Z" fill="#000000" fill-rule="evenodd" fill-opacity="1" /><path clip-path="url(#clip620)" d="M 0 0 M151.436 204.695 L173.658 204.695 L173.658 206.685 L161.112 239.255 L156.228 239.255 L168.033 208.63 L151.436 208.63 L151.436 204.695 Z" fill="#000000" fill-rule="evenodd" fill-opacity="1" /><path clip-path="url(#clip620)" d="M 0 0 M85.808 782.843 L101.563 782.843 L101.563 788.731 L52.579 788.731 Q38.0652 788.731 38.0652 775.172 Q38.0652 761.358 50.3192 761.358 Q59.0402 761.358 62.223 766.833 Q65.0876 757.921 73.5858 757.921 Q88.6726 757.921 88.6726 773.262 Q88.6726 780.01 85.808 782.843 M78.1691 782.843 Q83.6755 779.31 83.6755 773.04 Q83.6755 763.873 73.6813 763.873 Q64.7057 763.873 65.4059 778.641 L59.995 778.641 Q59.995 767.088 49.8099 767.088 Q42.8395 767.088 42.8395 774.535 Q42.8395 782.843 52.77 782.843 L78.1691 782.843 Z" fill="#000000" fill-rule="evenodd" fill-opacity="1" /><path clip-path="url(#clip620)" d="M 0 0 M775.411 43.6931 L775.411 65.8515 L788.536 65.8515 Q795.139 65.8515 798.299 63.1374 Q801.499 60.3828 801.499 54.752 Q801.499 49.0808 798.299 46.4072 Q795.139 43.6931 788.536 43.6931 L775.411 43.6931 M775.411 18.8205 L775.411 37.0496 L787.523 37.0496 Q793.519 37.0496 796.435 34.8216 Q799.392 32.5531 799.392 27.935 Q799.392 23.3575 796.435 21.089 Q793.519 18.8205 787.523 18.8205 L775.411 18.8205 M767.228 12.096 L788.131 12.096 Q797.488 12.096 802.552 15.9849 Q807.616 19.8737 807.616 27.0438 Q807.616 32.5936 805.023 35.8748 Q802.431 39.156 797.407 39.9662 Q803.443 41.2625 806.765 45.3944 Q810.127 49.4858 810.127 55.6432 Q810.127 63.745 804.618 68.1605 Q799.109 72.576 788.941 72.576 L767.228 72.576 L767.228 12.096 Z" fill="#000000" fill-rule="evenodd" fill-opacity="1" /><path clip-path="url(#clip620)" d="M 0 0 M844.236 34.1734 Q842.98 33.4443 841.481 33.1202 Q840.023 32.7556 838.241 32.7556 Q831.921 32.7556 828.518 36.8875 Q825.156 40.9789 825.156 48.6757 L825.156 72.576 L817.662 72.576 L817.662 27.2059 L825.156 27.2059 L825.156 34.2544 Q827.506 30.1225 831.273 28.1376 Q835.04 26.1121 840.428 26.1121 Q841.198 26.1121 842.129 26.2337 Q843.061 26.3147 844.195 26.5172 L844.236 34.1734 Z" fill="#000000" fill-rule="evenodd" fill-opacity="1" /><path clip-path="url(#clip620)" d="M 0 0 M852.054 27.2059 L859.508 27.2059 L859.508 72.576 L852.054 72.576 L852.054 27.2059 M852.054 9.54393 L859.508 9.54393 L859.508 18.9825 L852.054 18.9825 L852.054 9.54393 Z" fill="#000000" fill-rule="evenodd" fill-opacity="1" /><path clip-path="url(#clip620)" d="M 0 0 M874.699 14.324 L874.699 27.2059 L890.052 27.2059 L890.052 32.9987 L874.699 32.9987 L874.699 57.6282 Q874.699 63.1779 876.198 64.7578 Q877.737 66.3376 882.395 66.3376 L890.052 66.3376 L890.052 72.576 L882.395 72.576 Q873.767 72.576 870.486 69.3758 Q867.205 66.1351 867.205 57.6282 L867.205 32.9987 L861.736 32.9987 L861.736 27.2059 L867.205 27.2059 L867.205 14.324 L874.699 14.324 Z" fill="#000000" fill-rule="evenodd" fill-opacity="1" /><path clip-path="url(#clip620)" d="M 0 0 M905.243 14.324 L905.243 27.2059 L920.595 27.2059 L920.595 32.9987 L905.243 32.9987 L905.243 57.6282 Q905.243 63.1779 906.741 64.7578 Q908.281 66.3376 912.939 66.3376 L920.595 66.3376 L920.595 72.576 L912.939 72.576 Q904.311 72.576 901.03 69.3758 Q897.748 66.1351 897.748 57.6282 L897.748 32.9987 L892.28 32.9987 L892.28 27.2059 L897.748 27.2059 L897.748 14.324 L905.243 14.324 Z" fill="#000000" fill-rule="evenodd" fill-opacity="1" /><path clip-path="url(#clip620)" d="M 0 0 M967.221 48.0275 L967.221 51.6733 L932.951 51.6733 Q933.437 59.3701 937.569 63.421 Q941.741 67.4314 949.154 67.4314 Q953.448 67.4314 957.459 66.3781 Q961.51 65.3249 965.479 63.2184 L965.479 70.267 Q961.469 71.9684 957.256 72.8596 Q953.043 73.7508 948.709 73.7508 Q937.852 73.7508 931.492 67.4314 Q925.173 61.1119 925.173 50.3365 Q925.173 39.1965 931.168 32.6746 Q937.204 26.1121 947.412 26.1121 Q956.567 26.1121 961.874 32.0264 Q967.221 37.9003 967.221 48.0275 M959.768 45.84 Q959.687 39.7232 956.324 36.0774 Q953.003 32.4315 947.493 32.4315 Q941.255 32.4315 937.488 35.9558 Q933.761 39.4801 933.194 45.8805 L959.768 45.84 Z" fill="#000000" fill-rule="evenodd" fill-opacity="1" /><path clip-path="url(#clip620)" d="M 0 0 M1001.33 34.1734 Q1000.07 33.4443 998.575 33.1202 Q997.117 32.7556 995.335 32.7556 Q989.015 32.7556 985.612 36.8875 Q982.25 40.9789 982.25 48.6757 L982.25 72.576 L974.756 72.576 L974.756 27.2059 L982.25 27.2059 L982.25 34.2544 Q984.6 30.1225 988.367 28.1376 Q992.134 26.1121 997.522 26.1121 Q998.292 26.1121 999.224 26.2337 Q1000.16 26.3147 1001.29 26.5172 L1001.33 34.1734 Z" fill="#000000" fill-rule="evenodd" fill-opacity="1" /><path clip-path="url(#clip620)" d="M 0 0 M1000.07 46.5287 L1021.91 46.5287 L1021.91 53.1722 L1000.07 53.1722 L1000.07 46.5287 Z" fill="#000000" fill-rule="evenodd" fill-opacity="1" /><path clip-path="url(#clip620)" d="M 0 0 M1030.05 12.096 L1042.24 12.096 L1057.68 53.2532 L1073.19 12.096 L1085.39 12.096 L1085.39 72.576 L1077.41 72.576 L1077.41 19.4686 L1061.81 60.9499 L1053.59 60.9499 L1037.99 19.4686 L1037.99 72.576 L1030.05 72.576 L1030.05 12.096 Z" fill="#000000" fill-rule="evenodd" fill-opacity="1" /><path clip-path="url(#clip620)" d="M 0 0 M1125.85 28.9478 L1125.85 35.9153 Q1122.7 34.1734 1119.49 33.3227 Q1116.34 32.4315 1113.09 32.4315 Q1105.84 32.4315 1101.83 37.0496 Q1097.82 41.6271 1097.82 49.9314 Q1097.82 58.2358 1101.83 62.8538 Q1105.84 67.4314 1113.09 67.4314 Q1116.34 67.4314 1119.49 66.5807 Q1122.7 65.6895 1125.85 63.9476 L1125.85 70.8341 Q1122.74 72.2924 1119.37 73.0216 Q1116.05 73.7508 1112.28 73.7508 Q1102.04 73.7508 1096 67.3098 Q1089.96 60.8689 1089.96 49.9314 Q1089.96 38.832 1096.04 32.472 Q1102.16 26.1121 1112.77 26.1121 Q1116.21 26.1121 1119.49 26.8413 Q1122.78 27.5299 1125.85 28.9478 Z" fill="#000000" fill-rule="evenodd" fill-opacity="1" /><path clip-path="url(#clip620)" d="M 0 0 M1158.55 17.6457 Q1149.63 17.6457 1144.37 24.2892 Q1139.14 30.9327 1139.14 42.3968 Q1139.14 53.8203 1144.37 60.4638 Q1149.63 67.1073 1158.55 67.1073 Q1167.46 67.1073 1172.64 60.4638 Q1177.87 53.8203 1177.87 42.3968 Q1177.87 30.9327 1172.64 24.2892 Q1167.46 17.6457 1158.55 17.6457 M1170.01 71.4823 L1180.79 83.2704 L1170.9 83.2704 L1161.95 73.5887 Q1160.61 73.6697 1159.88 73.7103 Q1159.19 73.7508 1158.55 73.7508 Q1145.79 73.7508 1138.13 65.2439 Q1130.51 56.6965 1130.51 42.3968 Q1130.51 28.0566 1138.13 19.5497 Q1145.79 11.0023 1158.55 11.0023 Q1171.27 11.0023 1178.88 19.5497 Q1186.5 28.0566 1186.5 42.3968 Q1186.5 52.9291 1182.24 60.4233 Q1178.03 67.9175 1170.01 71.4823 Z" fill="#000000" fill-rule="evenodd" fill-opacity="1" /><path clip-path="url(#clip620)" d="M 0 0 M1193.55 54.671 L1193.55 27.2059 L1201 27.2059 L1201 54.3874 Q1201 60.8284 1203.51 64.0691 Q1206.02 67.2693 1211.05 67.2693 Q1217.08 67.2693 1220.56 63.421 Q1224.09 59.5726 1224.09 52.9291 L1224.09 27.2059 L1231.54 27.2059 L1231.54 72.576 L1224.09 72.576 L1224.09 65.6084 Q1221.38 69.7404 1217.77 71.7658 Q1214.2 73.7508 1209.47 73.7508 Q1201.65 73.7508 1197.6 68.8897 Q1193.55 64.0286 1193.55 54.671 M1212.3 26.1121 L1212.3 26.1121 Z" fill="#000000" fill-rule="evenodd" fill-opacity="1" /><path clip-path="url(#clip620)" d="M 0 0 M1259.98 49.7694 Q1250.95 49.7694 1247.46 51.8354 Q1243.98 53.9013 1243.98 58.8839 Q1243.98 62.8538 1246.57 65.2034 Q1249.2 67.5124 1253.7 67.5124 Q1259.9 67.5124 1263.63 63.1374 Q1267.39 58.7219 1267.39 51.4303 L1267.39 49.7694 L1259.98 49.7694 M1274.85 46.6907 L1274.85 72.576 L1267.39 72.576 L1267.39 65.6895 Q1264.84 69.8214 1261.03 71.8063 Q1257.23 73.7508 1251.72 73.7508 Q1244.75 73.7508 1240.62 69.8619 Q1236.53 65.9325 1236.53 59.3701 Q1236.53 51.7138 1241.63 47.825 Q1246.77 43.9361 1256.94 43.9361 L1267.39 43.9361 L1267.39 43.2069 Q1267.39 38.0623 1263.99 35.2672 Q1260.63 32.4315 1254.51 32.4315 Q1250.62 32.4315 1246.94 33.3632 Q1243.25 34.295 1239.85 36.1584 L1239.85 29.2718 Q1243.94 27.692 1247.79 26.9223 Q1251.64 26.1121 1255.28 26.1121 Q1265.12 26.1121 1269.99 31.2163 Q1274.85 36.3204 1274.85 46.6907 Z" fill="#000000" fill-rule="evenodd" fill-opacity="1" /><path clip-path="url(#clip620)" d="M 0 0 M1282.67 27.2059 L1290.12 27.2059 L1290.12 72.576 L1282.67 72.576 L1282.67 27.2059 M1282.67 9.54393 L1290.12 9.54393 L1290.12 18.9825 L1282.67 18.9825 L1282.67 9.54393 Z" fill="#000000" fill-rule="evenodd" fill-opacity="1" /><path clip-path="url(#clip620)" d="M 0 0 M1327.79 34.0924 L1327.79 9.54393 L1335.25 9.54393 L1335.25 72.576 L1327.79 72.576 L1327.79 65.7705 Q1325.44 69.8214 1321.84 71.8063 Q1318.27 73.7508 1313.25 73.7508 Q1305.03 73.7508 1299.84 67.1883 Q1294.7 60.6258 1294.7 49.9314 Q1294.7 39.2371 1299.84 32.6746 Q1305.03 26.1121 1313.25 26.1121 Q1318.27 26.1121 1321.84 28.0971 Q1325.44 30.0415 1327.79 34.0924 M1302.39 49.9314 Q1302.39 58.1548 1305.76 62.8538 Q1309.16 67.5124 1315.07 67.5124 Q1320.99 67.5124 1324.39 62.8538 Q1327.79 58.1548 1327.79 49.9314 Q1327.79 41.7081 1324.39 37.0496 Q1320.99 32.3505 1315.07 32.3505 Q1309.16 32.3505 1305.76 37.0496 Q1302.39 41.7081 1302.39 49.9314 Z" fill="#000000" fill-rule="evenodd" fill-opacity="1" /><path clip-path="url(#clip620)" d="M 0 0 M1402.09 28.9478 L1402.09 35.9153 Q1398.93 34.1734 1395.73 33.3227 Q1392.57 32.4315 1389.33 32.4315 Q1382.07 32.4315 1378.06 37.0496 Q1374.05 41.6271 1374.05 49.9314 Q1374.05 58.2358 1378.06 62.8538 Q1382.07 67.4314 1389.33 67.4314 Q1392.57 67.4314 1395.73 66.5807 Q1398.93 65.6895 1402.09 63.9476 L1402.09 70.8341 Q1398.97 72.2924 1395.6 73.0216 Q1392.28 73.7508 1388.52 73.7508 Q1378.27 73.7508 1372.23 67.3098 Q1366.19 60.8689 1366.19 49.9314 Q1366.19 38.832 1372.27 32.472 Q1378.39 26.1121 1389 26.1121 Q1392.44 26.1121 1395.73 26.8413 Q1399.01 27.5299 1402.09 28.9478 Z" fill="#000000" fill-rule="evenodd" fill-opacity="1" /><path clip-path="url(#clip620)" d="M 0 0 M1427.49 32.4315 Q1421.49 32.4315 1418.01 37.1306 Q1414.52 41.7891 1414.52 49.9314 Q1414.52 58.0738 1417.97 62.7728 Q1421.45 67.4314 1427.49 67.4314 Q1433.44 67.4314 1436.92 62.7323 Q1440.41 58.0333 1440.41 49.9314 Q1440.41 41.8701 1436.92 37.1711 Q1433.44 32.4315 1427.49 32.4315 M1427.49 26.1121 Q1437.21 26.1121 1442.76 32.4315 Q1448.31 38.7509 1448.31 49.9314 Q1448.31 61.0714 1442.76 67.4314 Q1437.21 73.7508 1427.49 73.7508 Q1417.72 73.7508 1412.17 67.4314 Q1406.66 61.0714 1406.66 49.9314 Q1406.66 38.7509 1412.17 32.4315 Q1417.72 26.1121 1427.49 26.1121 Z" fill="#000000" fill-rule="evenodd" fill-opacity="1" /><path clip-path="url(#clip620)" d="M 0 0 M1482.42 34.1734 Q1481.16 33.4443 1479.66 33.1202 Q1478.2 32.7556 1476.42 32.7556 Q1470.1 32.7556 1466.7 36.8875 Q1463.34 40.9789 1463.34 48.6757 L1463.34 72.576 L1455.84 72.576 L1455.84 27.2059 L1463.34 27.2059 L1463.34 34.2544 Q1465.69 30.1225 1469.45 28.1376 Q1473.22 26.1121 1478.61 26.1121 Q1479.38 26.1121 1480.31 26.2337 Q1481.24 26.3147 1482.37 26.5172 L1482.42 34.1734 Z" fill="#000000" fill-rule="evenodd" fill-opacity="1" /><path clip-path="url(#clip620)" d="M 0 0 M1515.07 34.1734 Q1513.81 33.4443 1512.31 33.1202 Q1510.85 32.7556 1509.07 32.7556 Q1502.75 32.7556 1499.35 36.8875 Q1495.99 40.9789 1495.99 48.6757 L1495.99 72.576 L1488.49 72.576 L1488.49 27.2059 L1495.99 27.2059 L1495.99 34.2544 Q1498.34 30.1225 1502.1 28.1376 Q1505.87 26.1121 1511.26 26.1121 Q1512.03 26.1121 1512.96 26.2337 Q1513.89 26.3147 1515.03 26.5172 L1515.07 34.1734 Z" fill="#000000" fill-rule="evenodd" fill-opacity="1" /><path clip-path="url(#clip620)" d="M 0 0 M1559.87 48.0275 L1559.87 51.6733 L1525.6 51.6733 Q1526.08 59.3701 1530.22 63.421 Q1534.39 67.4314 1541.8 67.4314 Q1546.1 67.4314 1550.11 66.3781 Q1554.16 65.3249 1558.13 63.2184 L1558.13 70.267 Q1554.12 71.9684 1549.9 72.8596 Q1545.69 73.7508 1541.36 73.7508 Q1530.5 73.7508 1524.14 67.4314 Q1517.82 61.1119 1517.82 50.3365 Q1517.82 39.1965 1523.82 32.6746 Q1529.85 26.1121 1540.06 26.1121 Q1549.21 26.1121 1554.52 32.0264 Q1559.87 37.9003 1559.87 48.0275 M1552.41 45.84 Q1552.33 39.7232 1548.97 36.0774 Q1545.65 32.4315 1540.14 32.4315 Q1533.9 32.4315 1530.14 35.9558 Q1526.41 39.4801 1525.84 45.8805 L1552.41 45.84 Z" fill="#000000" fill-rule="evenodd" fill-opacity="1" /><path clip-path="url(#clip620)" d="M 0 0 M1567.69 9.54393 L1575.14 9.54393 L1575.14 72.576 L1567.69 72.576 L1567.69 9.54393 Z" fill="#000000" fill-rule="evenodd" fill-opacity="1" /><path clip-path="url(#clip620)" d="M 0 0 M1603.58 49.7694 Q1594.54 49.7694 1591.06 51.8354 Q1587.58 53.9013 1587.58 58.8839 Q1587.58 62.8538 1590.17 65.2034 Q1592.8 67.5124 1597.3 67.5124 Q1603.5 67.5124 1607.22 63.1374 Q1610.99 58.7219 1610.99 51.4303 L1610.99 49.7694 L1603.58 49.7694 M1618.44 46.6907 L1618.44 72.576 L1610.99 72.576 L1610.99 65.6895 Q1608.44 69.8214 1604.63 71.8063 Q1600.82 73.7508 1595.31 73.7508 Q1588.35 73.7508 1584.21 69.8619 Q1580.12 65.9325 1580.12 59.3701 Q1580.12 51.7138 1585.23 47.825 Q1590.37 43.9361 1600.54 43.9361 L1610.99 43.9361 L1610.99 43.2069 Q1610.99 38.0623 1607.59 35.2672 Q1604.23 32.4315 1598.11 32.4315 Q1594.22 32.4315 1590.53 33.3632 Q1586.85 34.295 1583.44 36.1584 L1583.44 29.2718 Q1587.54 27.692 1591.38 26.9223 Q1595.23 26.1121 1598.88 26.1121 Q1608.72 26.1121 1613.58 31.2163 Q1618.44 36.3204 1618.44 46.6907 Z" fill="#000000" fill-rule="evenodd" fill-opacity="1" /><path clip-path="url(#clip620)" d="M 0 0 M1633.64 14.324 L1633.64 27.2059 L1648.99 27.2059 L1648.99 32.9987 L1633.64 32.9987 L1633.64 57.6282 Q1633.64 63.1779 1635.13 64.7578 Q1636.67 66.3376 1641.33 66.3376 L1648.99 66.3376 L1648.99 72.576 L1641.33 72.576 Q1632.7 72.576 1629.42 69.3758 Q1626.14 66.1351 1626.14 57.6282 L1626.14 32.9987 L1620.67 32.9987 L1620.67 27.2059 L1626.14 27.2059 L1626.14 14.324 L1633.64 14.324 Z" fill="#000000" fill-rule="evenodd" fill-opacity="1" /><path clip-path="url(#clip620)" d="M 0 0 M1656.81 27.2059 L1664.26 27.2059 L1664.26 72.576 L1656.81 72.576 L1656.81 27.2059 M1656.81 9.54393 L1664.26 9.54393 L1664.26 18.9825 L1656.81 18.9825 L1656.81 9.54393 Z" fill="#000000" fill-rule="evenodd" fill-opacity="1" /><path clip-path="url(#clip620)" d="M 0 0 M1689.66 32.4315 Q1683.66 32.4315 1680.18 37.1306 Q1676.7 41.7891 1676.7 49.9314 Q1676.7 58.0738 1680.14 62.7728 Q1683.62 67.4314 1689.66 67.4314 Q1695.61 67.4314 1699.1 62.7323 Q1702.58 58.0333 1702.58 49.9314 Q1702.58 41.8701 1699.1 37.1711 Q1695.61 32.4315 1689.66 32.4315 M1689.66 26.1121 Q1699.38 26.1121 1704.93 32.4315 Q1710.48 38.7509 1710.48 49.9314 Q1710.48 61.0714 1704.93 67.4314 Q1699.38 73.7508 1689.66 73.7508 Q1679.9 73.7508 1674.35 67.4314 Q1668.84 61.0714 1668.84 49.9314 Q1668.84 38.7509 1674.35 32.4315 Q1679.9 26.1121 1689.66 26.1121 Z" fill="#000000" fill-rule="evenodd" fill-opacity="1" /><path clip-path="url(#clip620)" d="M 0 0 M1756.01 45.1919 L1756.01 72.576 L1748.56 72.576 L1748.56 45.4349 Q1748.56 38.994 1746.05 35.7938 Q1743.54 32.5936 1738.51 32.5936 Q1732.48 32.5936 1728.99 36.4419 Q1725.51 40.2903 1725.51 46.9338 L1725.51 72.576 L1718.02 72.576 L1718.02 27.2059 L1725.51 27.2059 L1725.51 34.2544 Q1728.18 30.163 1731.79 28.1376 Q1735.43 26.1121 1740.17 26.1121 Q1747.99 26.1121 1752 30.9732 Q1756.01 35.7938 1756.01 45.1919 Z" fill="#000000" fill-rule="evenodd" fill-opacity="1" /><path clip-path="url(#clip620)" d="M 0 0 M1792.76 28.5427 L1792.76 35.5912 Q1789.6 33.9709 1786.19 33.1607 Q1782.79 32.3505 1779.14 32.3505 Q1773.59 32.3505 1770.8 34.0519 Q1768.04 35.7533 1768.04 39.156 Q1768.04 41.7486 1770.03 43.2475 Q1772.01 44.7058 1778.01 46.0426 L1780.56 46.6097 Q1788.5 48.3111 1791.82 51.4303 Q1795.19 54.509 1795.19 60.0587 Q1795.19 66.3781 1790.16 70.0644 Q1785.18 73.7508 1776.43 73.7508 Q1772.78 73.7508 1768.81 73.0216 Q1764.88 72.3329 1760.51 70.9151 L1760.51 63.2184 Q1764.64 65.3654 1768.65 66.4591 Q1772.66 67.5124 1776.59 67.5124 Q1781.86 67.5124 1784.69 65.73 Q1787.53 63.9071 1787.53 60.6258 Q1787.53 57.5877 1785.46 55.9673 Q1783.44 54.3469 1776.51 52.8481 L1773.92 52.2405 Q1766.99 50.7821 1763.91 47.7845 Q1760.83 44.7463 1760.83 39.4801 Q1760.83 33.0797 1765.37 29.5959 Q1769.91 26.1121 1778.25 26.1121 Q1782.38 26.1121 1786.03 26.7198 Q1789.68 27.3274 1792.76 28.5427 Z" fill="#000000" fill-rule="evenodd" fill-opacity="1" /><polyline clip-path="url(#clip622)" style="stroke:#009af9; stroke-width:4; stroke-opacity:1; fill:none" points="
  270.312,304.266 280.471,304.266 290.631,304.266 300.791,304.266 310.951,304.266 321.11,304.266 331.27,304.266 341.43,304.266 351.59,304.266 361.749,304.266 
  371.909,304.266 382.069,304.266 392.229,304.266 402.388,304.266 412.548,304.266 422.708,304.266 432.868,304.266 443.027,304.266 453.187,304.266 463.347,304.266 
  473.507,304.266 483.666,304.266 493.826,304.266 503.986,304.266 514.146,304.266 524.305,304.266 534.465,304.266 544.625,304.266 554.785,304.266 564.944,304.266 
  575.104,304.266 585.264,303.525 595.424,300.316 605.583,297.107 615.743,293.897 625.903,290.688 636.063,287.479 646.222,284.269 656.382,281.06 666.542,277.85 
  676.702,274.641 686.862,271.432 697.021,268.222 707.181,265.013 717.341,261.804 727.501,258.594 737.66,255.385 747.82,252.176 757.98,248.966 768.14,245.757 
  778.299,242.548 788.459,239.338 798.619,236.129 808.779,232.919 818.938,229.71 829.098,226.501 839.258,223.291 849.418,220.082 859.577,216.873 869.737,213.663 
  879.897,210.454 890.057,207.245 900.216,204.035 910.376,200.826 920.536,197.617 930.696,194.407 940.855,191.198 951.015,187.988 961.175,184.779 971.335,181.57 
  981.494,178.36 991.654,175.151 1001.81,171.942 1011.97,168.732 1022.13,165.523 1032.29,164.371 1042.45,164.371 1052.61,164.371 1062.77,164.371 1072.93,164.371 
  1083.09,164.371 1093.25,164.371 1103.41,164.371 1113.57,164.371 1123.73,164.371 1133.89,164.371 1144.05,164.371 1154.21,160.256 1164.37,164.371 1174.53,168.485 
  1184.69,172.6 1194.85,176.715 1205.01,180.829 1215.17,184.944 1225.33,189.058 1235.49,193.173 1245.65,197.287 1255.81,201.402 1265.97,205.516 1276.13,209.631 
  1286.29,213.746 1296.45,217.86 1306.61,221.975 1316.77,226.089 1326.93,230.204 1337.09,234.318 1347.25,238.433 1357.41,242.548 1367.56,246.662 1377.72,250.777 
  1387.88,254.891 1398.04,259.006 1408.2,263.12 1418.36,267.235 1428.52,271.349 1438.68,275.464 1448.84,279.579 1459,283.693 1469.16,287.808 1479.32,291.922 
  1489.48,296.037 1499.64,300.151 1509.8,304.266 1519.96,308.381 1530.12,312.495 1540.28,316.61 1550.44,320.724 1560.6,324.839 1570.76,328.953 1580.92,333.068 
  1591.08,337.182 1601.24,341.297 1611.4,345.412 1621.56,349.526 1631.72,353.641 1641.88,357.755 1652.04,361.87 1662.2,365.984 1672.36,370.099 1682.52,374.214 
  1692.68,378.328 1702.84,382.443 1713,386.557 1723.16,390.672 1733.32,394.786 1743.48,398.901 1753.64,403.015 1763.8,407.13 1773.95,411.245 1784.11,415.359 
  1794.27,419.474 1804.43,423.588 1814.59,427.703 1824.75,431.817 1834.91,435.932 1845.07,440.046 1855.23,444.161 1865.39,448.276 1875.55,452.39 1885.71,456.505 
  1895.87,460.619 1906.03,464.734 1916.19,468.848 1926.35,472.963 1936.51,477.078 1946.67,481.192 1956.83,485.307 1966.99,489.421 1977.15,493.536 1987.31,497.65 
  1997.47,501.765 2007.63,505.879 2017.79,509.994 2027.95,514.109 2038.11,518.223 2048.27,522.338 2058.43,526.452 2068.59,530.567 2078.75,534.681 2088.91,538.796 
  2099.07,542.911 2109.23,547.025 2119.39,551.14 2129.55,555.254 2139.71,559.369 2149.87,563.483 2160.03,567.598 2170.19,571.712 2180.34,575.827 2190.5,579.942 
  2200.66,584.056 2210.82,588.171 2220.98,592.285 2231.14,596.4 2241.3,600.514 2251.46,604.629 2261.62,608.744 2271.78,612.858 2281.94,616.973 2292.1,621.087 
  
  "/>
<polyline clip-path="url(#clip622)" style="stroke:#e26f46; stroke-width:4; stroke-opacity:1; fill:none" points="
  270.312,592.285 280.471,592.285 290.631,592.285 300.791,592.285 310.951,592.285 321.11,592.285 331.27,592.285 341.43,592.285 351.59,592.285 361.749,592.285 
  371.909,592.285 382.069,592.285 392.229,592.285 402.388,592.285 412.548,592.285 422.708,592.285 432.868,592.285 443.027,592.285 453.187,592.285 463.347,592.285 
  473.507,592.285 483.666,592.285 493.826,592.285 503.986,592.285 514.146,592.285 524.305,592.285 534.465,592.285 544.625,592.285 554.785,592.285 564.944,592.285 
  575.104,594.754 585.264,590.722 595.424,586.689 605.583,582.657 615.743,578.625 625.903,574.593 636.063,570.56 646.222,566.528 656.382,562.496 666.542,558.464 
  676.702,554.431 686.862,550.399 697.021,546.367 707.181,542.334 717.341,538.302 727.501,534.27 737.66,530.238 747.82,526.205 757.98,522.173 768.14,518.141 
  778.299,514.109 788.459,510.076 798.619,506.044 808.779,502.012 818.938,497.98 829.098,493.947 839.258,489.915 849.418,485.883 859.577,481.85 869.737,477.818 
  879.897,473.786 890.057,469.754 900.216,465.721 910.376,461.689 920.536,457.657 930.696,453.625 940.855,449.592 951.015,445.56 961.175,441.528 971.335,437.495 
  981.494,433.463 991.654,427.703 1001.81,427.703 1011.97,427.703 1022.13,427.703 1032.29,427.703 1042.45,427.703 1052.61,427.703 1062.77,427.703 1072.93,427.703 
  1083.09,424.411 1093.25,428.69 1103.41,432.969 1113.57,437.249 1123.73,441.528 1133.89,445.807 1144.05,450.086 1154.21,454.365 1164.37,458.644 1174.53,462.923 
  1184.69,467.203 1194.85,471.482 1205.01,475.761 1215.17,480.04 1225.33,484.319 1235.49,488.598 1245.65,492.877 1255.81,497.157 1265.97,501.436 1276.13,505.715 
  1286.29,509.994 1296.45,514.273 1306.61,518.552 1316.77,522.831 1326.93,527.111 1337.09,531.39 1347.25,535.669 1357.41,539.948 1367.56,544.227 1377.72,548.506 
  1387.88,552.785 1398.04,557.065 1408.2,561.344 1418.36,565.623 1428.52,569.902 1438.68,574.181 1448.84,578.46 1459,582.739 1469.16,587.019 1479.32,591.298 
  1489.48,595.577 1499.64,599.856 1509.8,604.135 1519.96,608.414 1530.12,612.693 1540.28,616.973 1550.44,621.252 1560.6,625.531 1570.76,629.81 1580.92,634.089 
  1591.08,638.368 1601.24,642.648 1611.4,646.927 1621.56,651.206 1631.72,655.485 1641.88,659.764 1652.04,664.043 1662.2,668.322 1672.36,672.602 1682.52,676.881 
  1692.68,681.16 1702.84,685.439 1713,689.718 1723.16,693.997 1733.32,698.276 1743.48,702.556 1753.64,706.835 1763.8,711.114 1773.95,715.393 1784.11,719.672 
  1794.27,723.951 1804.43,728.23 1814.59,732.51 1824.75,736.789 1834.91,741.068 1845.07,745.347 1855.23,749.626 1865.39,753.905 1875.55,758.184 1885.71,762.464 
  1895.87,766.743 1906.03,771.022 1916.19,775.301 1926.35,779.58 1936.51,783.859 1946.67,788.138 1956.83,792.418 1966.99,796.697 1977.15,800.976 1987.31,805.255 
  1997.47,809.534 2007.63,813.813 2017.79,818.092 2027.95,822.372 2038.11,826.651 2048.27,830.93 2058.43,835.209 2068.59,839.488 2078.75,843.767 2088.91,848.046 
  2099.07,852.326 2109.23,856.605 2119.39,860.884 2129.55,865.163 2139.71,869.442 2149.87,873.721 2160.03,878 2170.19,882.28 2180.34,886.559 2190.5,890.838 
  2200.66,895.117 2210.82,899.396 2220.98,903.675 2231.14,907.954 2241.3,912.234 2251.46,916.513 2261.62,920.792 2271.78,925.071 2281.94,929.35 2292.1,933.629 
  
  "/>
<polyline clip-path="url(#clip622)" style="stroke:#3da44d; stroke-width:4; stroke-opacity:1; fill:none" points="
  270.312,732.18 280.471,732.18 290.631,732.18 300.791,732.18 310.951,732.18 321.11,732.18 331.27,732.18 341.43,732.18 351.59,732.18 361.749,732.18 
  371.909,732.18 382.069,732.18 392.229,732.18 402.388,732.18 412.548,732.18 422.708,732.18 432.868,732.18 443.027,732.18 453.187,732.18 463.347,732.18 
  473.507,732.18 483.666,732.18 493.826,732.18 503.986,732.18 514.146,732.18 524.305,732.18 534.465,732.18 544.625,732.18 554.785,732.18 564.944,732.18 
  575.104,732.18 585.264,732.592 595.424,728.889 605.583,725.186 615.743,721.483 625.903,717.779 636.063,714.076 646.222,710.373 656.382,706.67 666.542,702.967 
  676.702,699.264 686.862,695.561 697.021,691.858 707.181,688.155 717.341,684.451 727.501,680.748 737.66,677.045 747.82,673.342 757.98,669.639 768.14,665.936 
  778.299,662.233 788.459,658.53 798.619,654.827 808.779,651.124 818.938,647.42 829.098,643.717 839.258,640.014 849.418,636.311 859.577,632.608 869.737,628.905 
  879.897,625.202 890.057,621.499 900.216,617.796 910.376,614.092 920.536,610.389 930.696,606.686 940.855,602.983 951.015,599.28 961.175,595.577 971.335,592.285 
  981.494,592.285 991.654,592.285 1001.81,592.285 1011.97,592.285 1022.13,592.285 1032.29,592.285 1042.45,592.285 1052.61,592.285 1062.77,592.285 1072.93,592.285 
  1083.09,592.285 1093.25,592.285 1103.41,592.285 1113.57,592.285 1123.73,595.248 1133.89,599.691 1144.05,604.135 1154.21,608.579 1164.37,613.023 1174.53,617.466 
  1184.69,621.91 1194.85,626.354 1205.01,630.798 1215.17,635.241 1225.33,639.685 1235.49,644.129 1245.65,648.572 1255.81,653.016 1265.97,657.46 1276.13,661.904 
  1286.29,666.347 1296.45,670.791 1306.61,675.235 1316.77,679.679 1326.93,684.122 1337.09,688.566 1347.25,693.01 1357.41,697.453 1367.56,701.897 1377.72,706.341 
  1387.88,710.785 1398.04,715.228 1408.2,719.672 1418.36,724.116 1428.52,728.56 1438.68,733.003 1448.84,737.447 1459,741.891 1469.16,746.334 1479.32,750.778 
  1489.48,755.222 1499.64,759.666 1509.8,764.109 1519.96,768.553 1530.12,772.997 1540.28,777.441 1550.44,781.884 1560.6,786.328 1570.76,790.772 1580.92,795.215 
  1591.08,799.659 1601.24,804.103 1611.4,808.547 1621.56,812.99 1631.72,817.434 1641.88,821.878 1652.04,826.322 1662.2,830.765 1672.36,835.209 1682.52,839.653 
  1692.68,844.096 1702.84,848.54 1713,852.984 1723.16,857.428 1733.32,861.871 1743.48,866.315 1753.64,870.759 1763.8,875.203 1773.95,879.646 1784.11,884.09 
  1794.27,888.534 1804.43,892.977 1814.59,897.421 1824.75,901.865 1834.91,906.309 1845.07,910.752 1855.23,915.196 1865.39,919.64 1875.55,924.084 1885.71,928.527 
  1895.87,932.971 1906.03,937.415 1916.19,941.858 1926.35,946.302 1936.51,950.746 1946.67,955.19 1956.83,959.633 1966.99,964.077 1977.15,968.521 1987.31,972.965 
  1997.47,977.408 2007.63,981.852 2017.79,986.296 2027.95,990.739 2038.11,995.183 2048.27,999.627 2058.43,1004.07 2068.59,1008.51 2078.75,1012.96 2088.91,1017.4 
  2099.07,1021.85 2109.23,1026.29 2119.39,1030.73 2129.55,1035.18 2139.71,1039.62 2149.87,1044.06 2160.03,1048.51 2170.19,1052.95 2180.34,1057.4 2190.5,1061.84 
  2200.66,1066.28 2210.82,1070.73 2220.98,1075.17 2231.14,1079.61 2241.3,1084.06 2251.46,1088.5 2261.62,1092.95 2271.78,1097.39 2281.94,1101.83 2292.1,1106.28 
  
  "/>
<polyline clip-path="url(#clip622)" style="stroke:#c271d2; stroke-width:4; stroke-opacity:1; fill:none" points="
  270.312,863.846 280.471,863.846 290.631,863.846 300.791,863.846 310.951,863.846 321.11,863.846 331.27,863.846 341.43,863.846 351.59,863.846 361.749,863.846 
  371.909,863.846 382.069,863.846 392.229,863.846 402.388,863.846 412.548,863.846 422.708,863.846 432.868,863.846 443.027,863.846 453.187,863.846 463.347,863.846 
  473.507,863.846 483.666,863.846 493.826,863.846 503.986,863.846 514.146,863.846 524.305,863.846 534.465,863.846 544.625,863.846 554.785,863.846 564.944,863.846 
  575.104,863.846 585.264,863.846 595.424,867.796 605.583,864.834 615.743,861.871 625.903,858.909 636.063,855.946 646.222,852.984 656.382,850.021 666.542,847.059 
  676.702,844.096 686.862,841.134 697.021,838.171 707.181,835.209 717.341,832.247 727.501,829.284 737.66,826.322 747.82,823.359 757.98,820.397 768.14,817.434 
  778.299,814.472 788.459,811.509 798.619,808.547 808.779,805.584 818.938,802.622 829.098,799.659 839.258,796.697 849.418,793.734 859.577,790.772 869.737,787.809 
  879.897,784.847 890.057,781.884 900.216,778.922 910.376,775.959 920.536,772.997 930.696,770.034 940.855,767.072 951.015,764.109 961.175,761.147 971.335,758.184 
  981.494,755.222 991.654,748.639 1001.81,748.639 1011.97,748.639 1022.13,748.639 1032.29,748.639 1042.45,748.639 1052.61,748.639 1062.77,748.639 1072.93,748.639 
  1083.09,748.639 1093.25,748.639 1103.41,747.98 1113.57,752.589 1123.73,757.197 1133.89,761.805 1144.05,766.414 1154.21,771.022 1164.37,775.63 1174.53,780.238 
  1184.69,784.847 1194.85,789.455 1205.01,794.063 1215.17,798.672 1225.33,803.28 1235.49,807.888 1245.65,812.497 1255.81,817.105 1265.97,821.713 1276.13,826.322 
  1286.29,830.93 1296.45,835.538 1306.61,840.146 1316.77,844.755 1326.93,849.363 1337.09,853.971 1347.25,858.58 1357.41,863.188 1367.56,867.796 1377.72,872.405 
  1387.88,877.013 1398.04,881.621 1408.2,886.23 1418.36,890.838 1428.52,895.446 1438.68,900.054 1448.84,904.663 1459,909.271 1469.16,913.879 1479.32,918.488 
  1489.48,923.096 1499.64,927.704 1509.8,932.313 1519.96,936.921 1530.12,941.529 1540.28,946.138 1550.44,950.746 1560.6,955.354 1570.76,959.962 1580.92,964.571 
  1591.08,969.179 1601.24,973.787 1611.4,978.396 1621.56,983.004 1631.72,987.612 1641.88,992.221 1652.04,996.829 1662.2,1001.44 1672.36,1006.05 1682.52,1010.65 
  1692.68,1015.26 1702.84,1019.87 1713,1024.48 1723.16,1029.09 1733.32,1033.7 1743.48,1038.3 1753.64,1042.91 1763.8,1047.52 1773.95,1052.13 1784.11,1056.74 
  1794.27,1061.35 1804.43,1065.95 1814.59,1070.56 1824.75,1075.17 1834.91,1079.78 1845.07,1084.39 1855.23,1089 1865.39,1093.6 1875.55,1098.21 1885.71,1102.82 
  1895.87,1107.43 1906.03,1112.04 1916.19,1116.65 1926.35,1121.25 1936.51,1125.86 1946.67,1130.47 1956.83,1135.08 1966.99,1139.69 1977.15,1144.29 1987.31,1148.9 
  1997.47,1153.51 2007.63,1158.12 2017.79,1162.73 2027.95,1167.34 2038.11,1171.94 2048.27,1176.55 2058.43,1181.16 2068.59,1185.77 2078.75,1190.38 2088.91,1194.99 
  2099.07,1199.59 2109.23,1204.2 2119.39,1208.81 2129.55,1213.42 2139.71,1218.03 2149.87,1222.64 2160.03,1227.24 2170.19,1231.85 2180.34,1236.46 2190.5,1241.07 
  2200.66,1245.68 2210.82,1250.29 2220.98,1254.89 2231.14,1259.5 2241.3,1264.11 2251.46,1268.72 2261.62,1273.33 2271.78,1277.94 2281.94,1282.54 2292.1,1287.15 
  
  "/>
<polyline clip-path="url(#clip622)" style="stroke:#ac8d18; stroke-width:4; stroke-opacity:1; fill:none" points="
  270.312,1003.74 280.471,1003.74 290.631,1003.74 300.791,1003.74 310.951,1003.74 321.11,1003.74 331.27,1003.74 341.43,1003.74 351.59,1003.74 361.749,1003.74 
  371.909,1003.74 382.069,1003.74 392.229,1003.74 402.388,1003.74 412.548,1003.74 422.708,1003.74 432.868,1003.74 443.027,1003.74 453.187,1003.74 463.347,1003.74 
  473.507,1003.74 483.666,1003.74 493.826,1003.74 503.986,1003.74 514.146,1003.74 524.305,1003.74 534.465,1003.74 544.625,1003.74 554.785,1003.74 564.944,1003.74 
  575.104,1003.74 585.264,1003.74 595.424,1003.74 605.583,1003.74 615.743,1003.74 625.903,1003.74 636.063,1003.74 646.222,1003.74 656.382,1003.74 666.542,1003.74 
  676.702,1003.74 686.862,1003.74 697.021,1003.74 707.181,1003.74 717.341,1003.74 727.501,1005.39 737.66,1003.41 747.82,1001.44 757.98,999.462 768.14,997.487 
  778.299,995.512 788.459,993.537 798.619,991.562 808.779,989.587 818.938,987.612 829.098,985.637 839.258,983.662 849.418,981.687 859.577,979.712 869.737,977.737 
  879.897,975.762 890.057,973.787 900.216,971.812 910.376,969.837 920.536,967.862 930.696,965.887 940.855,963.912 951.015,961.937 961.175,959.962 971.335,957.988 
  981.494,956.013 991.654,954.038 1001.81,952.063 1011.97,950.088 1022.13,948.113 1032.29,946.138 1042.45,944.163 1052.61,942.188 1062.77,940.213 1072.93,938.238 
  1083.09,936.263 1093.25,934.288 1103.41,932.313 1113.57,930.338 1123.73,928.363 1133.89,926.388 1144.05,921.45 1154.21,925.565 1164.37,929.679 1174.53,933.794 
  1184.69,937.908 1194.85,942.023 1205.01,946.138 1215.17,950.252 1225.33,954.367 1235.49,958.481 1245.65,962.596 1255.81,966.71 1265.97,970.825 1276.13,974.94 
  1286.29,979.054 1296.45,983.169 1306.61,987.283 1316.77,991.398 1326.93,995.512 1337.09,999.627 1347.25,1003.74 1357.41,1007.86 1367.56,1011.97 1377.72,1016.09 
  1387.88,1020.2 1398.04,1024.31 1408.2,1028.43 1418.36,1032.54 1428.52,1036.66 1438.68,1040.77 1448.84,1044.89 1459,1049 1469.16,1053.12 1479.32,1057.23 
  1489.48,1061.35 1499.64,1065.46 1509.8,1069.57 1519.96,1073.69 1530.12,1077.8 1540.28,1081.92 1550.44,1086.03 1560.6,1090.15 1570.76,1094.26 1580.92,1098.38 
  1591.08,1102.49 1601.24,1106.61 1611.4,1110.72 1621.56,1114.83 1631.72,1118.95 1641.88,1123.06 1652.04,1127.18 1662.2,1131.29 1672.36,1135.41 1682.52,1139.52 
  1692.68,1143.64 1702.84,1147.75 1713,1151.87 1723.16,1155.98 1733.32,1160.09 1743.48,1164.21 1753.64,1168.32 1763.8,1172.44 1773.95,1176.55 1784.11,1180.67 
  1794.27,1184.78 1804.43,1188.9 1814.59,1193.01 1824.75,1197.13 1834.91,1201.24 1845.07,1205.35 1855.23,1209.47 1865.39,1213.58 1875.55,1217.7 1885.71,1221.81 
  1895.87,1225.93 1906.03,1230.04 1916.19,1234.16 1926.35,1238.27 1936.51,1242.39 1946.67,1246.5 1956.83,1250.62 1966.99,1254.73 1977.15,1258.84 1987.31,1262.96 
  1997.47,1267.07 2007.63,1271.19 2017.79,1275.3 2027.95,1279.42 2038.11,1283.53 2048.27,1287.65 2058.43,1291.76 2068.59,1295.88 2078.75,1299.99 2088.91,1304.1 
  2099.07,1308.22 2109.23,1312.33 2119.39,1316.45 2129.55,1320.56 2139.71,1324.68 2149.87,1328.79 2160.03,1332.91 2170.19,1337.02 2180.34,1341.14 2190.5,1345.25 
  2200.66,1349.36 2210.82,1353.48 2220.98,1357.59 2231.14,1361.71 2241.3,1365.82 2251.46,1369.94 2261.62,1374.05 2271.78,1378.17 2281.94,1382.28 2292.1,1386.4 
  
  "/>
<path clip-path="url(#clip620)" d="
M1754.17 590.156 L2281.32 590.156 L2281.32 166.796 L1754.17 166.796  Z
  " fill="#ffffff" fill-rule="evenodd" fill-opacity="1"/>
<polyline clip-path="url(#clip620)" style="stroke:#000000; stroke-width:4; stroke-opacity:1; fill:none" points="
  1754.17,590.156 2281.32,590.156 2281.32,166.796 1754.17,166.796 1754.17,590.156 
  "/>
<path clip-path="url(#clip620)" d="M 0 0 M1893.18 219.625 L1893.18 223.607 Q1891.37 222.611 1889.54 222.125 Q1887.74 221.616 1885.89 221.616 Q1881.74 221.616 1879.45 224.255 Q1877.16 226.871 1877.16 231.616 Q1877.16 236.361 1879.45 239 Q1881.74 241.616 1885.89 241.616 Q1887.74 241.616 1889.54 241.13 Q1891.37 240.621 1893.18 239.625 L1893.18 243.56 Q1891.4 244.394 1889.47 244.81 Q1887.58 245.227 1885.42 245.227 Q1879.57 245.227 1876.12 241.546 Q1872.67 237.866 1872.67 231.616 Q1872.67 225.273 1876.14 221.639 Q1879.64 218.005 1885.7 218.005 Q1887.67 218.005 1889.54 218.422 Q1891.42 218.815 1893.18 219.625 Z" fill="#000000" fill-rule="evenodd" fill-opacity="1" /><path clip-path="url(#clip620)" d="M 0 0 M1907.69 221.616 Q1904.27 221.616 1902.28 224.301 Q1900.28 226.963 1900.28 231.616 Q1900.28 236.269 1902.25 238.954 Q1904.24 241.616 1907.69 241.616 Q1911.09 241.616 1913.09 238.931 Q1915.08 236.246 1915.08 231.616 Q1915.08 227.01 1913.09 224.324 Q1911.09 221.616 1907.69 221.616 M1907.69 218.005 Q1913.25 218.005 1916.42 221.616 Q1919.59 225.227 1919.59 231.616 Q1919.59 237.982 1916.42 241.616 Q1913.25 245.227 1907.69 245.227 Q1902.11 245.227 1898.94 241.616 Q1895.79 237.982 1895.79 231.616 Q1895.79 225.227 1898.94 221.616 Q1902.11 218.005 1907.69 218.005 Z" fill="#000000" fill-rule="evenodd" fill-opacity="1" /><path clip-path="url(#clip620)" d="M 0 0 M1945.61 228.908 L1945.61 244.556 L1941.35 244.556 L1941.35 229.047 Q1941.35 225.366 1939.91 223.537 Q1938.48 221.709 1935.61 221.709 Q1932.16 221.709 1930.17 223.908 Q1928.18 226.107 1928.18 229.903 L1928.18 244.556 L1923.9 244.556 L1923.9 218.63 L1928.18 218.63 L1928.18 222.658 Q1929.71 220.32 1931.77 219.162 Q1933.85 218.005 1936.56 218.005 Q1941.02 218.005 1943.32 220.783 Q1945.61 223.537 1945.61 228.908 Z" fill="#000000" fill-rule="evenodd" fill-opacity="1" /><path clip-path="url(#clip620)" d="M 0 0 M1968.73 219.625 L1968.73 223.607 Q1966.93 222.611 1965.1 222.125 Q1963.29 221.616 1961.44 221.616 Q1957.3 221.616 1955.01 224.255 Q1952.71 226.871 1952.71 231.616 Q1952.71 236.361 1955.01 239 Q1957.3 241.616 1961.44 241.616 Q1963.29 241.616 1965.1 241.13 Q1966.93 240.621 1968.73 239.625 L1968.73 243.56 Q1966.95 244.394 1965.03 244.81 Q1963.13 245.227 1960.98 245.227 Q1955.12 245.227 1951.67 241.546 Q1948.22 237.866 1948.22 231.616 Q1948.22 225.273 1951.7 221.639 Q1955.19 218.005 1961.26 218.005 Q1963.22 218.005 1965.1 218.422 Q1966.97 218.815 1968.73 219.625 Z" fill="#000000" fill-rule="evenodd" fill-opacity="1" /><path clip-path="url(#clip620)" d="M 0 0 M1995.38 230.528 L1995.38 232.611 L1975.79 232.611 Q1976.07 237.009 1978.43 239.324 Q1980.82 241.616 1985.05 241.616 Q1987.51 241.616 1989.8 241.014 Q1992.11 240.412 1994.38 239.209 L1994.38 243.236 Q1992.09 244.208 1989.68 244.718 Q1987.27 245.227 1984.8 245.227 Q1978.59 245.227 1974.96 241.616 Q1971.35 238.005 1971.35 231.847 Q1971.35 225.482 1974.77 221.755 Q1978.22 218.005 1984.06 218.005 Q1989.29 218.005 1992.32 221.385 Q1995.38 224.741 1995.38 230.528 M1991.12 229.278 Q1991.07 225.783 1989.15 223.699 Q1987.25 221.616 1984.1 221.616 Q1980.54 221.616 1978.39 223.63 Q1976.26 225.644 1975.93 229.301 L1991.12 229.278 Z" fill="#000000" fill-rule="evenodd" fill-opacity="1" /><path clip-path="url(#clip620)" d="M 0 0 M2021.39 228.908 L2021.39 244.556 L2017.14 244.556 L2017.14 229.047 Q2017.14 225.366 2015.7 223.537 Q2014.27 221.709 2011.39 221.709 Q2007.95 221.709 2005.96 223.908 Q2003.96 226.107 2003.96 229.903 L2003.96 244.556 L1999.68 244.556 L1999.68 218.63 L2003.96 218.63 L2003.96 222.658 Q2005.49 220.32 2007.55 219.162 Q2009.64 218.005 2012.34 218.005 Q2016.81 218.005 2019.1 220.783 Q2021.39 223.537 2021.39 228.908 Z" fill="#000000" fill-rule="evenodd" fill-opacity="1" /><path clip-path="url(#clip620)" d="M 0 0 M2030.08 211.269 L2030.08 218.63 L2038.85 218.63 L2038.85 221.94 L2030.08 221.94 L2030.08 236.014 Q2030.08 239.185 2030.93 240.088 Q2031.81 240.991 2034.47 240.991 L2038.85 240.991 L2038.85 244.556 L2034.47 244.556 Q2029.54 244.556 2027.67 242.727 Q2025.79 240.875 2025.79 236.014 L2025.79 221.94 L2022.67 221.94 L2022.67 218.63 L2025.79 218.63 L2025.79 211.269 L2030.08 211.269 Z" fill="#000000" fill-rule="evenodd" fill-opacity="1" /><path clip-path="url(#clip620)" d="M 0 0 M2058.34 222.611 Q2057.62 222.195 2056.76 222.01 Q2055.93 221.801 2054.91 221.801 Q2051.3 221.801 2049.36 224.162 Q2047.44 226.5 2047.44 230.898 L2047.44 244.556 L2043.15 244.556 L2043.15 218.63 L2047.44 218.63 L2047.44 222.658 Q2048.78 220.297 2050.93 219.162 Q2053.08 218.005 2056.16 218.005 Q2056.6 218.005 2057.14 218.074 Q2057.67 218.121 2058.32 218.236 L2058.34 222.611 Z" fill="#000000" fill-rule="evenodd" fill-opacity="1" /><path clip-path="url(#clip620)" d="M 0 0 M2074.59 231.523 Q2069.43 231.523 2067.44 232.704 Q2065.45 233.884 2065.45 236.732 Q2065.45 239 2066.93 240.343 Q2068.43 241.662 2071 241.662 Q2074.54 241.662 2076.67 239.162 Q2078.82 236.639 2078.82 232.472 L2078.82 231.523 L2074.59 231.523 M2083.08 229.764 L2083.08 244.556 L2078.82 244.556 L2078.82 240.621 Q2077.37 242.982 2075.19 244.116 Q2073.01 245.227 2069.87 245.227 Q2065.89 245.227 2063.52 243.005 Q2061.19 240.759 2061.19 237.009 Q2061.19 232.634 2064.1 230.412 Q2067.04 228.19 2072.85 228.19 L2078.82 228.19 L2078.82 227.773 Q2078.82 224.834 2076.88 223.236 Q2074.96 221.616 2071.46 221.616 Q2069.24 221.616 2067.14 222.148 Q2065.03 222.681 2063.08 223.746 L2063.08 219.81 Q2065.42 218.908 2067.62 218.468 Q2069.82 218.005 2071.9 218.005 Q2077.53 218.005 2080.31 220.922 Q2083.08 223.838 2083.08 229.764 Z" fill="#000000" fill-rule="evenodd" fill-opacity="1" /><path clip-path="url(#clip620)" d="M 0 0 M2091.76 211.269 L2091.76 218.63 L2100.54 218.63 L2100.54 221.94 L2091.76 221.94 L2091.76 236.014 Q2091.76 239.185 2092.62 240.088 Q2093.5 240.991 2096.16 240.991 L2100.54 240.991 L2100.54 244.556 L2096.16 244.556 Q2091.23 244.556 2089.36 242.727 Q2087.48 240.875 2087.48 236.014 L2087.48 221.94 L2084.36 221.94 L2084.36 218.63 L2087.48 218.63 L2087.48 211.269 L2091.76 211.269 Z" fill="#000000" fill-rule="evenodd" fill-opacity="1" /><path clip-path="url(#clip620)" d="M 0 0 M2105.01 218.63 L2109.26 218.63 L2109.26 244.556 L2105.01 244.556 L2105.01 218.63 M2105.01 208.537 L2109.26 208.537 L2109.26 213.931 L2105.01 213.931 L2105.01 208.537 Z" fill="#000000" fill-rule="evenodd" fill-opacity="1" /><path clip-path="url(#clip620)" d="M 0 0 M2123.78 221.616 Q2120.35 221.616 2118.36 224.301 Q2116.37 226.963 2116.37 231.616 Q2116.37 236.269 2118.34 238.954 Q2120.33 241.616 2123.78 241.616 Q2127.18 241.616 2129.17 238.931 Q2131.16 236.246 2131.16 231.616 Q2131.16 227.01 2129.17 224.324 Q2127.18 221.616 2123.78 221.616 M2123.78 218.005 Q2129.33 218.005 2132.51 221.616 Q2135.68 225.227 2135.68 231.616 Q2135.68 237.982 2132.51 241.616 Q2129.33 245.227 2123.78 245.227 Q2118.2 245.227 2115.03 241.616 Q2111.88 237.982 2111.88 231.616 Q2111.88 225.227 2115.03 221.616 Q2118.2 218.005 2123.78 218.005 Z" fill="#000000" fill-rule="evenodd" fill-opacity="1" /><path clip-path="url(#clip620)" d="M 0 0 M2161.69 228.908 L2161.69 244.556 L2157.44 244.556 L2157.44 229.047 Q2157.44 225.366 2156 223.537 Q2154.57 221.709 2151.69 221.709 Q2148.25 221.709 2146.26 223.908 Q2144.26 226.107 2144.26 229.903 L2144.26 244.556 L2139.98 244.556 L2139.98 218.63 L2144.26 218.63 L2144.26 222.658 Q2145.79 220.32 2147.85 219.162 Q2149.94 218.005 2152.64 218.005 Q2157.11 218.005 2159.4 220.783 Q2161.69 223.537 2161.69 228.908 Z" fill="#000000" fill-rule="evenodd" fill-opacity="1" /><polyline clip-path="url(#clip620)" style="stroke:#009af9; stroke-width:4; stroke-opacity:1; fill:none" points="
  1777.98,287.756 1920.86,287.756 
  "/>
<path clip-path="url(#clip620)" d="M 0 0 M1956.61 273.554 Q1953 273.554 1951.17 277.119 Q1949.37 280.661 1949.37 287.79 Q1949.37 294.897 1951.17 298.462 Q1953 302.003 1956.61 302.003 Q1960.25 302.003 1962.05 298.462 Q1963.88 294.897 1963.88 287.79 Q1963.88 280.661 1962.05 277.119 Q1960.25 273.554 1956.61 273.554 M1956.61 269.851 Q1962.42 269.851 1965.48 274.457 Q1968.56 279.04 1968.56 287.79 Q1968.56 296.517 1965.48 301.124 Q1962.42 305.707 1956.61 305.707 Q1950.8 305.707 1947.72 301.124 Q1944.67 296.517 1944.67 287.79 Q1944.67 279.04 1947.72 274.457 Q1950.8 269.851 1956.61 269.851 Z" fill="#000000" fill-rule="evenodd" fill-opacity="1" /><path clip-path="url(#clip620)" d="M 0 0 M1973.63 299.156 L1978.51 299.156 L1978.51 305.036 L1973.63 305.036 L1973.63 299.156 Z" fill="#000000" fill-rule="evenodd" fill-opacity="1" /><path clip-path="url(#clip620)" d="M 0 0 M1993.58 273.554 Q1989.97 273.554 1988.14 277.119 Q1986.34 280.661 1986.34 287.79 Q1986.34 294.897 1988.14 298.462 Q1989.97 302.003 1993.58 302.003 Q1997.21 302.003 1999.02 298.462 Q2000.85 294.897 2000.85 287.79 Q2000.85 280.661 1999.02 277.119 Q1997.21 273.554 1993.58 273.554 M1993.58 269.851 Q1999.39 269.851 2002.45 274.457 Q2005.52 279.04 2005.52 287.79 Q2005.52 296.517 2002.45 301.124 Q1999.39 305.707 1993.58 305.707 Q1987.77 305.707 1984.69 301.124 Q1981.64 296.517 1981.64 287.79 Q1981.64 279.04 1984.69 274.457 Q1987.77 269.851 1993.58 269.851 Z" fill="#000000" fill-rule="evenodd" fill-opacity="1" /><path clip-path="url(#clip620)" d="M 0 0 M2020.59 273.554 Q2016.98 273.554 2015.15 277.119 Q2013.35 280.661 2013.35 287.79 Q2013.35 294.897 2015.15 298.462 Q2016.98 302.003 2020.59 302.003 Q2024.23 302.003 2026.03 298.462 Q2027.86 294.897 2027.86 287.79 Q2027.86 280.661 2026.03 277.119 Q2024.23 273.554 2020.59 273.554 M2020.59 269.851 Q2026.4 269.851 2029.46 274.457 Q2032.54 279.04 2032.54 287.79 Q2032.54 296.517 2029.46 301.124 Q2026.4 305.707 2020.59 305.707 Q2014.78 305.707 2011.71 301.124 Q2008.65 296.517 2008.65 287.79 Q2008.65 279.04 2011.71 274.457 Q2014.78 269.851 2020.59 269.851 Z" fill="#000000" fill-rule="evenodd" fill-opacity="1" /><path clip-path="url(#clip620)" d="M 0 0 M2038.42 301.101 L2046.06 301.101 L2046.06 274.735 L2037.75 276.402 L2037.75 272.142 L2046.01 270.476 L2050.69 270.476 L2050.69 301.101 L2058.33 301.101 L2058.33 305.036 L2038.42 305.036 L2038.42 301.101 Z" fill="#000000" fill-rule="evenodd" fill-opacity="1" /><polyline clip-path="url(#clip620)" style="stroke:#e26f46; stroke-width:4; stroke-opacity:1; fill:none" points="
  1777.98,348.236 1920.86,348.236 
  "/>
<path clip-path="url(#clip620)" d="M 0 0 M1956.61 334.034 Q1953 334.034 1951.17 337.599 Q1949.37 341.141 1949.37 348.27 Q1949.37 355.377 1951.17 358.942 Q1953 362.483 1956.61 362.483 Q1960.25 362.483 1962.05 358.942 Q1963.88 355.377 1963.88 348.27 Q1963.88 341.141 1962.05 337.599 Q1960.25 334.034 1956.61 334.034 M1956.61 330.331 Q1962.42 330.331 1965.48 334.937 Q1968.56 339.52 1968.56 348.27 Q1968.56 356.997 1965.48 361.604 Q1962.42 366.187 1956.61 366.187 Q1950.8 366.187 1947.72 361.604 Q1944.67 356.997 1944.67 348.27 Q1944.67 339.52 1947.72 334.937 Q1950.8 330.331 1956.61 330.331 Z" fill="#000000" fill-rule="evenodd" fill-opacity="1" /><path clip-path="url(#clip620)" d="M 0 0 M1973.63 359.636 L1978.51 359.636 L1978.51 365.516 L1973.63 365.516 L1973.63 359.636 Z" fill="#000000" fill-rule="evenodd" fill-opacity="1" /><path clip-path="url(#clip620)" d="M 0 0 M1993.58 334.034 Q1989.97 334.034 1988.14 337.599 Q1986.34 341.141 1986.34 348.27 Q1986.34 355.377 1988.14 358.942 Q1989.97 362.483 1993.58 362.483 Q1997.21 362.483 1999.02 358.942 Q2000.85 355.377 2000.85 348.27 Q2000.85 341.141 1999.02 337.599 Q1997.21 334.034 1993.58 334.034 M1993.58 330.331 Q1999.39 330.331 2002.45 334.937 Q2005.52 339.52 2005.52 348.27 Q2005.52 356.997 2002.45 361.604 Q1999.39 366.187 1993.58 366.187 Q1987.77 366.187 1984.69 361.604 Q1981.64 356.997 1981.64 348.27 Q1981.64 339.52 1984.69 334.937 Q1987.77 330.331 1993.58 330.331 Z" fill="#000000" fill-rule="evenodd" fill-opacity="1" /><path clip-path="url(#clip620)" d="M 0 0 M2011.4 361.581 L2019.04 361.581 L2019.04 335.215 L2010.73 336.882 L2010.73 332.622 L2019 330.956 L2023.67 330.956 L2023.67 361.581 L2031.31 361.581 L2031.31 365.516 L2011.4 365.516 L2011.4 361.581 Z" fill="#000000" fill-rule="evenodd" fill-opacity="1" /><path clip-path="url(#clip620)" d="M 0 0 M2046.38 334.034 Q2042.77 334.034 2040.94 337.599 Q2039.14 341.141 2039.14 348.27 Q2039.14 355.377 2040.94 358.942 Q2042.77 362.483 2046.38 362.483 Q2050.02 362.483 2051.82 358.942 Q2053.65 355.377 2053.65 348.27 Q2053.65 341.141 2051.82 337.599 Q2050.02 334.034 2046.38 334.034 M2046.38 330.331 Q2052.19 330.331 2055.25 334.937 Q2058.33 339.52 2058.33 348.27 Q2058.33 356.997 2055.25 361.604 Q2052.19 366.187 2046.38 366.187 Q2040.57 366.187 2037.49 361.604 Q2034.44 356.997 2034.44 348.27 Q2034.44 339.52 2037.49 334.937 Q2040.57 330.331 2046.38 330.331 Z" fill="#000000" fill-rule="evenodd" fill-opacity="1" /><polyline clip-path="url(#clip620)" style="stroke:#3da44d; stroke-width:4; stroke-opacity:1; fill:none" points="
  1777.98,408.716 1920.86,408.716 
  "/>
<path clip-path="url(#clip620)" d="M 0 0 M1956.61 394.514 Q1953 394.514 1951.17 398.079 Q1949.37 401.621 1949.37 408.75 Q1949.37 415.857 1951.17 419.422 Q1953 422.963 1956.61 422.963 Q1960.25 422.963 1962.05 419.422 Q1963.88 415.857 1963.88 408.75 Q1963.88 401.621 1962.05 398.079 Q1960.25 394.514 1956.61 394.514 M1956.61 390.811 Q1962.42 390.811 1965.48 395.417 Q1968.56 400 1968.56 408.75 Q1968.56 417.477 1965.48 422.084 Q1962.42 426.667 1956.61 426.667 Q1950.8 426.667 1947.72 422.084 Q1944.67 417.477 1944.67 408.75 Q1944.67 400 1947.72 395.417 Q1950.8 390.811 1956.61 390.811 Z" fill="#000000" fill-rule="evenodd" fill-opacity="1" /><path clip-path="url(#clip620)" d="M 0 0 M1973.63 420.116 L1978.51 420.116 L1978.51 425.996 L1973.63 425.996 L1973.63 420.116 Z" fill="#000000" fill-rule="evenodd" fill-opacity="1" /><path clip-path="url(#clip620)" d="M 0 0 M1993.58 394.514 Q1989.97 394.514 1988.14 398.079 Q1986.34 401.621 1986.34 408.75 Q1986.34 415.857 1988.14 419.422 Q1989.97 422.963 1993.58 422.963 Q1997.21 422.963 1999.02 419.422 Q2000.85 415.857 2000.85 408.75 Q2000.85 401.621 1999.02 398.079 Q1997.21 394.514 1993.58 394.514 M1993.58 390.811 Q1999.39 390.811 2002.45 395.417 Q2005.52 400 2005.52 408.75 Q2005.52 417.477 2002.45 422.084 Q1999.39 426.667 1993.58 426.667 Q1987.77 426.667 1984.69 422.084 Q1981.64 417.477 1981.64 408.75 Q1981.64 400 1984.69 395.417 Q1987.77 390.811 1993.58 390.811 Z" fill="#000000" fill-rule="evenodd" fill-opacity="1" /><path clip-path="url(#clip620)" d="M 0 0 M2014.62 422.061 L2030.94 422.061 L2030.94 425.996 L2009 425.996 L2009 422.061 Q2011.66 419.306 2016.24 414.676 Q2020.85 410.024 2022.03 408.681 Q2024.27 406.158 2025.15 404.422 Q2026.06 402.663 2026.06 400.973 Q2026.06 398.218 2024.11 396.482 Q2022.19 394.746 2019.09 394.746 Q2016.89 394.746 2014.44 395.51 Q2012.01 396.274 2009.23 397.825 L2009.23 393.102 Q2012.05 391.968 2014.51 391.389 Q2016.96 390.811 2019 390.811 Q2024.37 390.811 2027.56 393.496 Q2030.76 396.181 2030.76 400.672 Q2030.76 402.801 2029.95 404.723 Q2029.16 406.621 2027.05 409.213 Q2026.47 409.885 2023.37 413.102 Q2020.27 416.297 2014.62 422.061 Z" fill="#000000" fill-rule="evenodd" fill-opacity="1" /><path clip-path="url(#clip620)" d="M 0 0 M2046.01 394.514 Q2042.4 394.514 2040.57 398.079 Q2038.77 401.621 2038.77 408.75 Q2038.77 415.857 2040.57 419.422 Q2042.4 422.963 2046.01 422.963 Q2049.64 422.963 2051.45 419.422 Q2053.28 415.857 2053.28 408.75 Q2053.28 401.621 2051.45 398.079 Q2049.64 394.514 2046.01 394.514 M2046.01 390.811 Q2051.82 390.811 2054.88 395.417 Q2057.96 400 2057.96 408.75 Q2057.96 417.477 2054.88 422.084 Q2051.82 426.667 2046.01 426.667 Q2040.2 426.667 2037.12 422.084 Q2034.07 417.477 2034.07 408.75 Q2034.07 400 2037.12 395.417 Q2040.2 390.811 2046.01 390.811 Z" fill="#000000" fill-rule="evenodd" fill-opacity="1" /><polyline clip-path="url(#clip620)" style="stroke:#c271d2; stroke-width:4; stroke-opacity:1; fill:none" points="
  1777.98,469.196 1920.86,469.196 
  "/>
<path clip-path="url(#clip620)" d="M 0 0 M1956.61 454.994 Q1953 454.994 1951.17 458.559 Q1949.37 462.101 1949.37 469.23 Q1949.37 476.337 1951.17 479.902 Q1953 483.443 1956.61 483.443 Q1960.25 483.443 1962.05 479.902 Q1963.88 476.337 1963.88 469.23 Q1963.88 462.101 1962.05 458.559 Q1960.25 454.994 1956.61 454.994 M1956.61 451.291 Q1962.42 451.291 1965.48 455.897 Q1968.56 460.48 1968.56 469.23 Q1968.56 477.957 1965.48 482.564 Q1962.42 487.147 1956.61 487.147 Q1950.8 487.147 1947.72 482.564 Q1944.67 477.957 1944.67 469.23 Q1944.67 460.48 1947.72 455.897 Q1950.8 451.291 1956.61 451.291 Z" fill="#000000" fill-rule="evenodd" fill-opacity="1" /><path clip-path="url(#clip620)" d="M 0 0 M1973.63 480.596 L1978.51 480.596 L1978.51 486.476 L1973.63 486.476 L1973.63 480.596 Z" fill="#000000" fill-rule="evenodd" fill-opacity="1" /><path clip-path="url(#clip620)" d="M 0 0 M1993.58 454.994 Q1989.97 454.994 1988.14 458.559 Q1986.34 462.101 1986.34 469.23 Q1986.34 476.337 1988.14 479.902 Q1989.97 483.443 1993.58 483.443 Q1997.21 483.443 1999.02 479.902 Q2000.85 476.337 2000.85 469.23 Q2000.85 462.101 1999.02 458.559 Q1997.21 454.994 1993.58 454.994 M1993.58 451.291 Q1999.39 451.291 2002.45 455.897 Q2005.52 460.48 2005.52 469.23 Q2005.52 477.957 2002.45 482.564 Q1999.39 487.147 1993.58 487.147 Q1987.77 487.147 1984.69 482.564 Q1981.64 477.957 1981.64 469.23 Q1981.64 460.48 1984.69 455.897 Q1987.77 451.291 1993.58 451.291 Z" fill="#000000" fill-rule="evenodd" fill-opacity="1" /><path clip-path="url(#clip620)" d="M 0 0 M2010.64 451.916 L2029 451.916 L2029 455.851 L2014.92 455.851 L2014.92 464.323 Q2015.94 463.976 2016.96 463.814 Q2017.98 463.629 2019 463.629 Q2024.78 463.629 2028.16 466.8 Q2031.54 469.971 2031.54 475.388 Q2031.54 480.966 2028.07 484.068 Q2024.6 487.147 2018.28 487.147 Q2016.1 487.147 2013.83 486.777 Q2011.59 486.406 2009.18 485.666 L2009.18 480.966 Q2011.27 482.101 2013.49 482.656 Q2015.71 483.212 2018.19 483.212 Q2022.19 483.212 2024.53 481.105 Q2026.87 478.999 2026.87 475.388 Q2026.87 471.777 2024.53 469.67 Q2022.19 467.564 2018.19 467.564 Q2016.31 467.564 2014.44 467.98 Q2012.58 468.397 2010.64 469.277 L2010.64 451.916 Z" fill="#000000" fill-rule="evenodd" fill-opacity="1" /><path clip-path="url(#clip620)" d="M 0 0 M2046.61 454.994 Q2043 454.994 2041.17 458.559 Q2039.37 462.101 2039.37 469.23 Q2039.37 476.337 2041.17 479.902 Q2043 483.443 2046.61 483.443 Q2050.25 483.443 2052.05 479.902 Q2053.88 476.337 2053.88 469.23 Q2053.88 462.101 2052.05 458.559 Q2050.25 454.994 2046.61 454.994 M2046.61 451.291 Q2052.42 451.291 2055.48 455.897 Q2058.56 460.48 2058.56 469.23 Q2058.56 477.957 2055.48 482.564 Q2052.42 487.147 2046.61 487.147 Q2040.8 487.147 2037.72 482.564 Q2034.67 477.957 2034.67 469.23 Q2034.67 460.48 2037.72 455.897 Q2040.8 451.291 2046.61 451.291 Z" fill="#000000" fill-rule="evenodd" fill-opacity="1" /><polyline clip-path="url(#clip620)" style="stroke:#ac8d18; stroke-width:4; stroke-opacity:1; fill:none" points="
  1777.98,529.676 1920.86,529.676 
  "/>
<path clip-path="url(#clip620)" d="M 0 0 M1956.61 515.474 Q1953 515.474 1951.17 519.039 Q1949.37 522.581 1949.37 529.71 Q1949.37 536.817 1951.17 540.382 Q1953 543.923 1956.61 543.923 Q1960.25 543.923 1962.05 540.382 Q1963.88 536.817 1963.88 529.71 Q1963.88 522.581 1962.05 519.039 Q1960.25 515.474 1956.61 515.474 M1956.61 511.771 Q1962.42 511.771 1965.48 516.377 Q1968.56 520.96 1968.56 529.71 Q1968.56 538.437 1965.48 543.044 Q1962.42 547.627 1956.61 547.627 Q1950.8 547.627 1947.72 543.044 Q1944.67 538.437 1944.67 529.71 Q1944.67 520.96 1947.72 516.377 Q1950.8 511.771 1956.61 511.771 Z" fill="#000000" fill-rule="evenodd" fill-opacity="1" /><path clip-path="url(#clip620)" d="M 0 0 M1973.63 541.076 L1978.51 541.076 L1978.51 546.956 L1973.63 546.956 L1973.63 541.076 Z" fill="#000000" fill-rule="evenodd" fill-opacity="1" /><path clip-path="url(#clip620)" d="M 0 0 M1984.39 543.021 L1992.03 543.021 L1992.03 516.655 L1983.72 518.322 L1983.72 514.062 L1991.98 512.396 L1996.66 512.396 L1996.66 543.021 L2004.3 543.021 L2004.3 546.956 L1984.39 546.956 L1984.39 543.021 Z" fill="#000000" fill-rule="evenodd" fill-opacity="1" /><path clip-path="url(#clip620)" d="M 0 0 M2019.37 515.474 Q2015.76 515.474 2013.93 519.039 Q2012.12 522.581 2012.12 529.71 Q2012.12 536.817 2013.93 540.382 Q2015.76 543.923 2019.37 543.923 Q2023 543.923 2024.81 540.382 Q2026.64 536.817 2026.64 529.71 Q2026.64 522.581 2024.81 519.039 Q2023 515.474 2019.37 515.474 M2019.37 511.771 Q2025.18 511.771 2028.23 516.377 Q2031.31 520.96 2031.31 529.71 Q2031.31 538.437 2028.23 543.044 Q2025.18 547.627 2019.37 547.627 Q2013.56 547.627 2010.48 543.044 Q2007.42 538.437 2007.42 529.71 Q2007.42 520.96 2010.48 516.377 Q2013.56 511.771 2019.37 511.771 Z" fill="#000000" fill-rule="evenodd" fill-opacity="1" /><path clip-path="url(#clip620)" d="M 0 0 M2046.38 515.474 Q2042.77 515.474 2040.94 519.039 Q2039.14 522.581 2039.14 529.71 Q2039.14 536.817 2040.94 540.382 Q2042.77 543.923 2046.38 543.923 Q2050.02 543.923 2051.82 540.382 Q2053.65 536.817 2053.65 529.71 Q2053.65 522.581 2051.82 519.039 Q2050.02 515.474 2046.38 515.474 M2046.38 511.771 Q2052.19 511.771 2055.25 516.377 Q2058.33 520.96 2058.33 529.71 Q2058.33 538.437 2055.25 543.044 Q2052.19 547.627 2046.38 547.627 Q2040.57 547.627 2037.49 543.044 Q2034.44 538.437 2034.44 529.71 Q2034.44 520.96 2037.49 516.377 Q2040.57 511.771 2046.38 511.771 Z" fill="#000000" fill-rule="evenodd" fill-opacity="1" /></svg>
