<?xml version="1.0" encoding="utf-8"?>
<svg xmlns="http://www.w3.org/2000/svg" xmlns:xlink="http://www.w3.org/1999/xlink" width="600" height="400" viewBox="0 0 2400 1600">
<defs>
  <clipPath id="clip700">
    <rect x="0" y="0" width="2400" height="1600"/>
  </clipPath>
</defs>
<path clip-path="url(#clip700)" d="
M0 1600 L2400 1600 L2400 0 L0 0  Z
  " fill="#ffffff" fill-rule="evenodd" fill-opacity="1"/>
<defs>
  <clipPath id="clip701">
    <rect x="480" y="0" width="1681" height="1600"/>
  </clipPath>
</defs>
<path clip-path="url(#clip700)" d="
M243.386 1410.9 L2352.76 1410.9 L2352.76 123.472 L243.386 123.472  Z
  " fill="#ffffff" fill-rule="evenodd" fill-opacity="1"/>
<defs>
  <clipPath id="clip702">
    <rect x="243" y="123" width="2110" height="1288"/>
  </clipPath>
</defs>
<polyline clip-path="url(#clip702)" style="stroke:#000000; stroke-width:2; stroke-opacity:0.1; fill:none" points="
  303.227,1410.9 303.227,123.472 
  "/>
<polyline clip-path="url(#clip702)" style="stroke:#000000; stroke-width:2; stroke-opacity:0.1; fill:none" points="
  967.718,1410.9 967.718,123.472 
  "/>
<polyline clip-path="url(#clip702)" style="stroke:#000000; stroke-width:2; stroke-opacity:0.1; fill:none" points="
  1632.21,1410.9 1632.21,123.472 
  "/>
<polyline clip-path="url(#clip702)" style="stroke:#000000; stroke-width:2; stroke-opacity:0.1; fill:none" points="
  2296.7,1410.9 2296.7,123.472 
  "/>
<polyline clip-path="url(#clip700)" style="stroke:#000000; stroke-width:4; stroke-opacity:1; fill:none" points="
  243.386,1410.9 2352.76,1410.9 
  "/>
<polyline clip-path="url(#clip700)" style="stroke:#000000; stroke-width:4; stroke-opacity:1; fill:none" points="
  303.227,1410.9 303.227,1395.45 
  "/>
<polyline clip-path="url(#clip700)" style="stroke:#000000; stroke-width:4; stroke-opacity:1; fill:none" points="
  967.718,1410.9 967.718,1395.45 
  "/>
<polyline clip-path="url(#clip700)" style="stroke:#000000; stroke-width:4; stroke-opacity:1; fill:none" points="
  1632.21,1410.9 1632.21,1395.45 
  "/>
<polyline clip-path="url(#clip700)" style="stroke:#000000; stroke-width:4; stroke-opacity:1; fill:none" points="
  2296.7,1410.9 2296.7,1395.45 
  "/>
<path clip-path="url(#clip700)" d="M 0 0 M257.721 1489.17 L265.36 1489.17 L265.36 1462.8 L257.05 1464.47 L257.05 1460.21 L265.314 1458.54 L269.99 1458.54 L269.99 1489.17 L277.629 1489.17 L277.629 1493.1 L257.721 1493.1 L257.721 1489.17 Z" fill="#000000" fill-rule="evenodd" fill-opacity="1" /><path clip-path="url(#clip700)" d="M 0 0 M292.698 1461.62 Q289.087 1461.62 287.258 1465.19 Q285.453 1468.73 285.453 1475.86 Q285.453 1482.97 287.258 1486.53 Q289.087 1490.07 292.698 1490.07 Q296.332 1490.07 298.138 1486.53 Q299.966 1482.97 299.966 1475.86 Q299.966 1468.73 298.138 1465.19 Q296.332 1461.62 292.698 1461.62 M292.698 1457.92 Q298.508 1457.92 301.564 1462.53 Q304.642 1467.11 304.642 1475.86 Q304.642 1484.59 301.564 1489.19 Q298.508 1493.78 292.698 1493.78 Q286.888 1493.78 283.809 1489.19 Q280.754 1484.59 280.754 1475.86 Q280.754 1467.11 283.809 1462.53 Q286.888 1457.92 292.698 1457.92 Z" fill="#000000" fill-rule="evenodd" fill-opacity="1" /><path clip-path="url(#clip700)" d="M 0 0 M304.642 1452.02 L328.754 1452.02 L328.754 1455.22 L304.642 1455.22 L304.642 1452.02 Z" fill="#000000" fill-rule="evenodd" fill-opacity="1" /><path clip-path="url(#clip700)" d="M 0 0 M336.145 1462.5 L349.405 1462.5 L349.405 1465.69 L331.575 1465.69 L331.575 1462.5 Q333.738 1460.26 337.462 1456.5 Q341.205 1452.72 342.164 1451.63 Q343.988 1449.58 344.703 1448.16 Q345.436 1446.74 345.436 1445.36 Q345.436 1443.12 343.857 1441.71 Q342.295 1440.3 339.775 1440.3 Q337.989 1440.3 335.995 1440.92 Q334.02 1441.54 331.763 1442.8 L331.763 1438.97 Q334.058 1438.05 336.051 1437.58 Q338.045 1437.11 339.7 1437.11 Q344.063 1437.11 346.659 1439.29 Q349.254 1441.47 349.254 1445.12 Q349.254 1446.85 348.596 1448.41 Q347.957 1449.95 346.245 1452.06 Q345.775 1452.6 343.255 1455.22 Q340.734 1457.81 336.145 1462.5 Z" fill="#000000" fill-rule="evenodd" fill-opacity="1" /><path clip-path="url(#clip700)" d="M 0 0 M922.061 1489.17 L929.7 1489.17 L929.7 1462.8 L921.39 1464.47 L921.39 1460.21 L929.654 1458.54 L934.33 1458.54 L934.33 1489.17 L941.968 1489.17 L941.968 1493.1 L922.061 1493.1 L922.061 1489.17 Z" fill="#000000" fill-rule="evenodd" fill-opacity="1" /><path clip-path="url(#clip700)" d="M 0 0 M957.038 1461.62 Q953.427 1461.62 951.598 1465.19 Q949.793 1468.73 949.793 1475.86 Q949.793 1482.97 951.598 1486.53 Q953.427 1490.07 957.038 1490.07 Q960.672 1490.07 962.478 1486.53 Q964.306 1482.97 964.306 1475.86 Q964.306 1468.73 962.478 1465.19 Q960.672 1461.62 957.038 1461.62 M957.038 1457.92 Q962.848 1457.92 965.904 1462.53 Q968.982 1467.11 968.982 1475.86 Q968.982 1484.59 965.904 1489.19 Q962.848 1493.78 957.038 1493.78 Q951.228 1493.78 948.149 1489.19 Q945.093 1484.59 945.093 1475.86 Q945.093 1467.11 948.149 1462.53 Q951.228 1457.92 957.038 1457.92 Z" fill="#000000" fill-rule="evenodd" fill-opacity="1" /><path clip-path="url(#clip700)" d="M 0 0 M968.982 1452.02 L993.094 1452.02 L993.094 1455.22 L968.982 1455.22 L968.982 1452.02 Z" fill="#000000" fill-rule="evenodd" fill-opacity="1" /><path clip-path="url(#clip700)" d="M 0 0 M997.871 1462.5 L1004.08 1462.5 L1004.08 1441.07 L997.326 1442.43 L997.326 1438.97 L1004.04 1437.61 L1007.84 1437.61 L1007.84 1462.5 L1014.05 1462.5 L1014.05 1465.69 L997.871 1465.69 L997.871 1462.5 Z" fill="#000000" fill-rule="evenodd" fill-opacity="1" /><path clip-path="url(#clip700)" d="M 0 0 M1599.38 1489.17 L1607.02 1489.17 L1607.02 1462.8 L1598.71 1464.47 L1598.71 1460.21 L1606.97 1458.54 L1611.65 1458.54 L1611.65 1489.17 L1619.29 1489.17 L1619.29 1493.1 L1599.38 1493.1 L1599.38 1489.17 Z" fill="#000000" fill-rule="evenodd" fill-opacity="1" /><path clip-path="url(#clip700)" d="M 0 0 M1634.36 1461.62 Q1630.74 1461.62 1628.92 1465.19 Q1627.11 1468.73 1627.11 1475.86 Q1627.11 1482.97 1628.92 1486.53 Q1630.74 1490.07 1634.36 1490.07 Q1637.99 1490.07 1639.79 1486.53 Q1641.62 1482.97 1641.62 1475.86 Q1641.62 1468.73 1639.79 1465.19 Q1637.99 1461.62 1634.36 1461.62 M1634.36 1457.92 Q1640.17 1457.92 1643.22 1462.53 Q1646.3 1467.11 1646.3 1475.86 Q1646.3 1484.59 1643.22 1489.19 Q1640.17 1493.78 1634.36 1493.78 Q1628.54 1493.78 1625.47 1489.19 Q1622.41 1484.59 1622.41 1475.86 Q1622.41 1467.11 1625.47 1462.53 Q1628.54 1457.92 1634.36 1457.92 Z" fill="#000000" fill-rule="evenodd" fill-opacity="1" /><path clip-path="url(#clip700)" d="M 0 0 M1656 1440.11 Q1653.07 1440.11 1651.58 1443.01 Q1650.12 1445.89 1650.12 1451.68 Q1650.12 1457.46 1651.58 1460.35 Q1653.07 1463.23 1656 1463.23 Q1658.96 1463.23 1660.42 1460.35 Q1661.91 1457.46 1661.91 1451.68 Q1661.91 1445.89 1660.42 1443.01 Q1658.96 1440.11 1656 1440.11 M1656 1437.11 Q1660.73 1437.11 1663.21 1440.85 Q1665.71 1444.57 1665.71 1451.68 Q1665.71 1458.77 1663.21 1462.51 Q1660.73 1466.24 1656 1466.24 Q1651.28 1466.24 1648.78 1462.51 Q1646.3 1458.77 1646.3 1451.68 Q1646.3 1444.57 1648.78 1440.85 Q1651.28 1437.11 1656 1437.11 Z" fill="#000000" fill-rule="evenodd" fill-opacity="1" /><path clip-path="url(#clip700)" d="M 0 0 M2265.21 1489.17 L2272.85 1489.17 L2272.85 1462.8 L2264.54 1464.47 L2264.54 1460.21 L2272.81 1458.54 L2277.48 1458.54 L2277.48 1489.17 L2285.12 1489.17 L2285.12 1493.1 L2265.21 1493.1 L2265.21 1489.17 Z" fill="#000000" fill-rule="evenodd" fill-opacity="1" /><path clip-path="url(#clip700)" d="M 0 0 M2300.19 1461.62 Q2296.58 1461.62 2294.75 1465.19 Q2292.94 1468.73 2292.94 1475.86 Q2292.94 1482.97 2294.75 1486.53 Q2296.58 1490.07 2300.19 1490.07 Q2303.82 1490.07 2305.63 1486.53 Q2307.46 1482.97 2307.46 1475.86 Q2307.46 1468.73 2305.63 1465.19 Q2303.82 1461.62 2300.19 1461.62 M2300.19 1457.92 Q2306 1457.92 2309.06 1462.53 Q2312.13 1467.11 2312.13 1475.86 Q2312.13 1484.59 2309.06 1489.19 Q2306 1493.78 2300.19 1493.78 Q2294.38 1493.78 2291.3 1489.19 Q2288.25 1484.59 2288.25 1475.86 Q2288.25 1467.11 2291.3 1462.53 Q2294.38 1457.92 2300.19 1457.92 Z" fill="#000000" fill-rule="evenodd" fill-opacity="1" /><path clip-path="url(#clip700)" d="M 0 0 M2312.68 1462.5 L2318.89 1462.5 L2318.89 1441.07 L2312.13 1442.43 L2312.13 1438.97 L2318.85 1437.61 L2322.65 1437.61 L2322.65 1462.5 L2328.85 1462.5 L2328.85 1465.69 L2312.68 1465.69 L2312.68 1462.5 Z" fill="#000000" fill-rule="evenodd" fill-opacity="1" /><path clip-path="url(#clip700)" d="M 0 0 M1100.94 1516.23 L1100.94 1522.5 Q1097.28 1520.74 1094.03 1519.89 Q1090.79 1519.03 1087.76 1519.03 Q1082.51 1519.03 1079.65 1521.06 Q1076.81 1523.1 1076.81 1526.86 Q1076.81 1530.01 1078.69 1531.63 Q1080.6 1533.22 1085.89 1534.21 L1089.77 1535 Q1096.96 1536.37 1100.37 1539.84 Q1103.81 1543.28 1103.81 1549.07 Q1103.81 1555.98 1099.16 1559.54 Q1094.54 1563.11 1085.6 1563.11 Q1082.23 1563.11 1078.41 1562.34 Q1074.62 1561.58 1070.54 1560.08 L1070.54 1553.46 Q1074.46 1555.66 1078.22 1556.77 Q1081.97 1557.89 1085.6 1557.89 Q1091.11 1557.89 1094.1 1555.72 Q1097.09 1553.56 1097.09 1549.55 Q1097.09 1546.05 1094.93 1544.08 Q1092.79 1542.1 1087.89 1541.11 L1083.98 1540.35 Q1076.78 1538.92 1073.57 1535.86 Q1070.35 1532.81 1070.35 1527.37 Q1070.35 1521.06 1074.78 1517.43 Q1079.23 1513.81 1087.03 1513.81 Q1090.37 1513.81 1093.84 1514.41 Q1097.31 1515.02 1100.94 1516.23 Z" fill="#000000" fill-rule="evenodd" fill-opacity="1" /><path clip-path="url(#clip700)" d="M 0 0 M1135.6 1527.91 L1135.6 1533.38 Q1133.12 1532.01 1130.61 1531.34 Q1128.12 1530.64 1125.58 1530.64 Q1119.88 1530.64 1116.73 1534.27 Q1113.58 1537.87 1113.58 1544.39 Q1113.58 1550.92 1116.73 1554.55 Q1119.88 1558.14 1125.58 1558.14 Q1128.12 1558.14 1130.61 1557.47 Q1133.12 1556.77 1135.6 1555.41 L1135.6 1560.82 Q1133.15 1561.96 1130.51 1562.54 Q1127.9 1563.11 1124.94 1563.11 Q1116.89 1563.11 1112.14 1558.05 Q1107.4 1552.99 1107.4 1544.39 Q1107.4 1535.67 1112.18 1530.68 Q1116.98 1525.68 1125.32 1525.68 Q1128.03 1525.68 1130.61 1526.25 Q1133.18 1526.79 1135.6 1527.91 Z" fill="#000000" fill-rule="evenodd" fill-opacity="1" /><path clip-path="url(#clip700)" d="M 0 0 M1157.95 1544.27 Q1150.85 1544.27 1148.11 1545.89 Q1145.37 1547.51 1145.37 1551.43 Q1145.37 1554.55 1147.41 1556.39 Q1149.48 1558.21 1153.01 1558.21 Q1157.88 1558.21 1160.81 1554.77 Q1163.77 1551.3 1163.77 1545.57 L1163.77 1544.27 L1157.95 1544.27 M1169.63 1541.85 L1169.63 1562.19 L1163.77 1562.19 L1163.77 1556.77 Q1161.77 1560.02 1158.77 1561.58 Q1155.78 1563.11 1151.45 1563.11 Q1145.98 1563.11 1142.73 1560.05 Q1139.52 1556.97 1139.52 1551.81 Q1139.52 1545.79 1143.53 1542.74 Q1147.57 1539.68 1155.56 1539.68 L1163.77 1539.68 L1163.77 1539.11 Q1163.77 1535.07 1161.1 1532.87 Q1158.46 1530.64 1153.65 1530.64 Q1150.59 1530.64 1147.7 1531.38 Q1144.8 1532.11 1142.13 1533.57 L1142.13 1528.16 Q1145.34 1526.92 1148.37 1526.31 Q1151.39 1525.68 1154.25 1525.68 Q1161.99 1525.68 1165.81 1529.69 Q1169.63 1533.7 1169.63 1541.85 Z" fill="#000000" fill-rule="evenodd" fill-opacity="1" /><path clip-path="url(#clip700)" d="M 0 0 M1175.77 1512.66 L1181.63 1512.66 L1181.63 1562.19 L1175.77 1562.19 L1175.77 1512.66 Z" fill="#000000" fill-rule="evenodd" fill-opacity="1" /><path clip-path="url(#clip700)" d="M 0 0 M1218.26 1542.9 L1218.26 1545.76 L1191.33 1545.76 Q1191.72 1551.81 1194.96 1554.99 Q1198.24 1558.14 1204.07 1558.14 Q1207.44 1558.14 1210.59 1557.32 Q1213.77 1556.49 1216.89 1554.83 L1216.89 1560.37 Q1213.74 1561.71 1210.43 1562.41 Q1207.12 1563.11 1203.72 1563.11 Q1195.19 1563.11 1190.19 1558.14 Q1185.22 1553.18 1185.22 1544.71 Q1185.22 1535.96 1189.93 1530.83 Q1194.68 1525.68 1202.7 1525.68 Q1209.89 1525.68 1214.06 1530.33 Q1218.26 1534.94 1218.26 1542.9 M1212.4 1541.18 Q1212.34 1536.37 1209.7 1533.51 Q1207.09 1530.64 1202.76 1530.64 Q1197.86 1530.64 1194.9 1533.41 Q1191.97 1536.18 1191.52 1541.21 L1212.4 1541.18 Z" fill="#000000" fill-rule="evenodd" fill-opacity="1" /><path clip-path="url(#clip700)" d="M 0 0 M1247.86 1531.95 L1247.86 1512.66 L1253.72 1512.66 L1253.72 1562.19 L1247.86 1562.19 L1247.86 1556.84 Q1246.02 1560.02 1243.18 1561.58 Q1240.38 1563.11 1236.44 1563.11 Q1229.97 1563.11 1225.9 1557.95 Q1221.86 1552.8 1221.86 1544.39 Q1221.86 1535.99 1225.9 1530.83 Q1229.97 1525.68 1236.44 1525.68 Q1240.38 1525.68 1243.18 1527.24 Q1246.02 1528.77 1247.86 1531.95 M1227.91 1544.39 Q1227.91 1550.85 1230.55 1554.55 Q1233.22 1558.21 1237.87 1558.21 Q1242.51 1558.21 1245.19 1554.55 Q1247.86 1550.85 1247.86 1544.39 Q1247.86 1537.93 1245.19 1534.27 Q1242.51 1530.58 1237.87 1530.58 Q1233.22 1530.58 1230.55 1534.27 Q1227.91 1537.93 1227.91 1544.39 Z" fill="#000000" fill-rule="evenodd" fill-opacity="1" /><path clip-path="url(#clip700)" d="M 0 0 M1287.27 1519.95 L1287.27 1556.9 L1295.03 1556.9 Q1304.87 1556.9 1309.42 1552.45 Q1314 1547.99 1314 1538.38 Q1314 1528.83 1309.42 1524.4 Q1304.87 1519.95 1295.03 1519.95 L1287.27 1519.95 M1280.84 1514.67 L1294.04 1514.67 Q1307.86 1514.67 1314.32 1520.43 Q1320.78 1526.16 1320.78 1538.38 Q1320.78 1550.66 1314.29 1556.42 Q1307.79 1562.19 1294.04 1562.19 L1280.84 1562.19 L1280.84 1514.67 Z" fill="#000000" fill-rule="evenodd" fill-opacity="1" /><path clip-path="url(#clip700)" d="M 0 0 M1326.92 1526.54 L1332.78 1526.54 L1332.78 1562.19 L1326.92 1562.19 L1326.92 1526.54 M1326.92 1512.66 L1332.78 1512.66 L1332.78 1520.08 L1326.92 1520.08 L1326.92 1512.66 Z" fill="#000000" fill-rule="evenodd" fill-opacity="1" /><path clip-path="url(#clip700)" d="M 0 0 M1361.65 1527.59 L1361.65 1533.13 Q1359.17 1531.85 1356.49 1531.22 Q1353.82 1530.58 1350.95 1530.58 Q1346.59 1530.58 1344.4 1531.92 Q1342.23 1533.25 1342.23 1535.93 Q1342.23 1537.96 1343.79 1539.14 Q1345.35 1540.29 1350.06 1541.34 L1352.07 1541.78 Q1358.31 1543.12 1360.92 1545.57 Q1363.56 1547.99 1363.56 1552.35 Q1363.56 1557.32 1359.61 1560.21 Q1355.7 1563.11 1348.82 1563.11 Q1345.96 1563.11 1342.84 1562.54 Q1339.75 1561.99 1336.31 1560.88 L1336.31 1554.83 Q1339.56 1556.52 1342.71 1557.38 Q1345.86 1558.21 1348.95 1558.21 Q1353.09 1558.21 1355.31 1556.81 Q1357.54 1555.37 1357.54 1552.8 Q1357.54 1550.41 1355.92 1549.14 Q1354.33 1547.86 1348.89 1546.68 L1346.85 1546.21 Q1341.41 1545.06 1338.99 1542.71 Q1336.57 1540.32 1336.57 1536.18 Q1336.57 1531.15 1340.13 1528.42 Q1343.7 1525.68 1350.25 1525.68 Q1353.5 1525.68 1356.36 1526.16 Q1359.23 1526.63 1361.65 1527.59 Z" fill="#000000" fill-rule="evenodd" fill-opacity="1" /><path clip-path="url(#clip700)" d="M 0 0 M1375.49 1516.42 L1375.49 1526.54 L1387.56 1526.54 L1387.56 1531.09 L1375.49 1531.09 L1375.49 1550.44 Q1375.49 1554.8 1376.67 1556.04 Q1377.88 1557.28 1381.54 1557.28 L1387.56 1557.28 L1387.56 1562.19 L1381.54 1562.19 Q1374.76 1562.19 1372.18 1559.67 Q1369.61 1557.12 1369.61 1550.44 L1369.61 1531.09 L1365.31 1531.09 L1365.31 1526.54 L1369.61 1526.54 L1369.61 1516.42 L1375.49 1516.42 Z" fill="#000000" fill-rule="evenodd" fill-opacity="1" /><path clip-path="url(#clip700)" d="M 0 0 M1409.9 1544.27 Q1402.8 1544.27 1400.07 1545.89 Q1397.33 1547.51 1397.33 1551.43 Q1397.33 1554.55 1399.37 1556.39 Q1401.43 1558.21 1404.97 1558.21 Q1409.84 1558.21 1412.77 1554.77 Q1415.73 1551.3 1415.73 1545.57 L1415.73 1544.27 L1409.9 1544.27 M1421.58 1541.85 L1421.58 1562.19 L1415.73 1562.19 L1415.73 1556.77 Q1413.72 1560.02 1410.73 1561.58 Q1407.74 1563.11 1403.41 1563.11 Q1397.93 1563.11 1394.69 1560.05 Q1391.47 1556.97 1391.47 1551.81 Q1391.47 1545.79 1395.48 1542.74 Q1399.52 1539.68 1407.51 1539.68 L1415.73 1539.68 L1415.73 1539.11 Q1415.73 1535.07 1413.05 1532.87 Q1410.41 1530.64 1405.6 1530.64 Q1402.55 1530.64 1399.65 1531.38 Q1396.76 1532.11 1394.08 1533.57 L1394.08 1528.16 Q1397.3 1526.92 1400.32 1526.31 Q1403.34 1525.68 1406.21 1525.68 Q1413.94 1525.68 1417.76 1529.69 Q1421.58 1533.7 1421.58 1541.85 Z" fill="#000000" fill-rule="evenodd" fill-opacity="1" /><path clip-path="url(#clip700)" d="M 0 0 M1457.36 1540.67 L1457.36 1562.19 L1451.5 1562.19 L1451.5 1540.86 Q1451.5 1535.8 1449.53 1533.29 Q1447.55 1530.77 1443.61 1530.77 Q1438.86 1530.77 1436.13 1533.79 Q1433.39 1536.82 1433.39 1542.04 L1433.39 1562.19 L1427.5 1562.19 L1427.5 1526.54 L1433.39 1526.54 L1433.39 1532.08 Q1435.49 1528.86 1438.32 1527.27 Q1441.19 1525.68 1444.91 1525.68 Q1451.05 1525.68 1454.21 1529.5 Q1457.36 1533.29 1457.36 1540.67 Z" fill="#000000" fill-rule="evenodd" fill-opacity="1" /><path clip-path="url(#clip700)" d="M 0 0 M1489.15 1527.91 L1489.15 1533.38 Q1486.67 1532.01 1484.16 1531.34 Q1481.67 1530.64 1479.13 1530.64 Q1473.43 1530.64 1470.28 1534.27 Q1467.13 1537.87 1467.13 1544.39 Q1467.13 1550.92 1470.28 1554.55 Q1473.43 1558.14 1479.13 1558.14 Q1481.67 1558.14 1484.16 1557.47 Q1486.67 1556.77 1489.15 1555.41 L1489.15 1560.82 Q1486.7 1561.96 1484.06 1562.54 Q1481.45 1563.11 1478.49 1563.11 Q1470.44 1563.11 1465.7 1558.05 Q1460.95 1552.99 1460.95 1544.39 Q1460.95 1535.67 1465.73 1530.68 Q1470.53 1525.68 1478.87 1525.68 Q1481.58 1525.68 1484.16 1526.25 Q1486.73 1526.79 1489.15 1527.91 Z" fill="#000000" fill-rule="evenodd" fill-opacity="1" /><path clip-path="url(#clip700)" d="M 0 0 M1525.79 1542.9 L1525.79 1545.76 L1498.86 1545.76 Q1499.24 1551.81 1502.49 1554.99 Q1505.77 1558.14 1511.59 1558.14 Q1514.97 1558.14 1518.12 1557.32 Q1521.3 1556.49 1524.42 1554.83 L1524.42 1560.37 Q1521.27 1561.71 1517.96 1562.41 Q1514.65 1563.11 1511.24 1563.11 Q1502.71 1563.11 1497.72 1558.14 Q1492.75 1553.18 1492.75 1544.71 Q1492.75 1535.96 1497.46 1530.83 Q1502.2 1525.68 1510.22 1525.68 Q1517.42 1525.68 1521.59 1530.33 Q1525.79 1534.94 1525.79 1542.9 M1519.93 1541.18 Q1519.87 1536.37 1517.23 1533.51 Q1514.62 1530.64 1510.29 1530.64 Q1505.39 1530.64 1502.43 1533.41 Q1499.5 1536.18 1499.05 1541.21 L1519.93 1541.18 Z" fill="#000000" fill-rule="evenodd" fill-opacity="1" /><polyline clip-path="url(#clip702)" style="stroke:#000000; stroke-width:2; stroke-opacity:0.1; fill:none" points="
  243.386,1378 2352.76,1378 
  "/>
<polyline clip-path="url(#clip702)" style="stroke:#000000; stroke-width:2; stroke-opacity:0.1; fill:none" points="
  243.386,1095.17 2352.76,1095.17 
  "/>
<polyline clip-path="url(#clip702)" style="stroke:#000000; stroke-width:2; stroke-opacity:0.1; fill:none" points="
  243.386,812.343 2352.76,812.343 
  "/>
<polyline clip-path="url(#clip702)" style="stroke:#000000; stroke-width:2; stroke-opacity:0.1; fill:none" points="
  243.386,529.514 2352.76,529.514 
  "/>
<polyline clip-path="url(#clip702)" style="stroke:#000000; stroke-width:2; stroke-opacity:0.1; fill:none" points="
  243.386,246.684 2352.76,246.684 
  "/>
<polyline clip-path="url(#clip700)" style="stroke:#000000; stroke-width:4; stroke-opacity:1; fill:none" points="
  243.386,1410.9 243.386,123.472 
  "/>
<polyline clip-path="url(#clip700)" style="stroke:#000000; stroke-width:4; stroke-opacity:1; fill:none" points="
  243.386,1378 268.699,1378 
  "/>
<polyline clip-path="url(#clip700)" style="stroke:#000000; stroke-width:4; stroke-opacity:1; fill:none" points="
  243.386,1095.17 268.699,1095.17 
  "/>
<polyline clip-path="url(#clip700)" style="stroke:#000000; stroke-width:4; stroke-opacity:1; fill:none" points="
  243.386,812.343 268.699,812.343 
  "/>
<polyline clip-path="url(#clip700)" style="stroke:#000000; stroke-width:4; stroke-opacity:1; fill:none" points="
  243.386,529.514 268.699,529.514 
  "/>
<polyline clip-path="url(#clip700)" style="stroke:#000000; stroke-width:4; stroke-opacity:1; fill:none" points="
  243.386,246.684 268.699,246.684 
  "/>
<path clip-path="url(#clip700)" d="M 0 0 M114.931 1397.79 L122.57 1397.79 L122.57 1371.43 L114.26 1373.1 L114.26 1368.84 L122.524 1367.17 L127.2 1367.17 L127.2 1397.79 L134.839 1397.79 L134.839 1401.73 L114.931 1401.73 L114.931 1397.79 Z" fill="#000000" fill-rule="evenodd" fill-opacity="1" /><path clip-path="url(#clip700)" d="M 0 0 M149.908 1370.25 Q146.297 1370.25 144.468 1373.81 Q142.663 1377.35 142.663 1384.48 Q142.663 1391.59 144.468 1395.16 Q146.297 1398.7 149.908 1398.7 Q153.542 1398.7 155.348 1395.16 Q157.177 1391.59 157.177 1384.48 Q157.177 1377.35 155.348 1373.81 Q153.542 1370.25 149.908 1370.25 M149.908 1366.54 Q155.718 1366.54 158.774 1371.15 Q161.852 1375.73 161.852 1384.48 Q161.852 1393.21 158.774 1397.82 Q155.718 1402.4 149.908 1402.4 Q144.098 1402.4 141.019 1397.82 Q137.964 1393.21 137.964 1384.48 Q137.964 1375.73 141.019 1371.15 Q144.098 1366.54 149.908 1366.54 Z" fill="#000000" fill-rule="evenodd" fill-opacity="1" /><path clip-path="url(#clip700)" d="M 0 0 M161.852 1360.65 L185.964 1360.65 L185.964 1363.84 L161.852 1363.84 L161.852 1360.65 Z" fill="#000000" fill-rule="evenodd" fill-opacity="1" /><path clip-path="url(#clip700)" d="M 0 0 M201.593 1359.18 Q204.32 1359.76 205.844 1361.61 Q207.386 1363.45 207.386 1366.16 Q207.386 1370.31 204.527 1372.59 Q201.669 1374.86 196.402 1374.86 Q194.634 1374.86 192.754 1374.51 Q190.892 1374.17 188.898 1373.47 L188.898 1369.81 Q190.478 1370.73 192.359 1371.2 Q194.239 1371.67 196.29 1371.67 Q199.863 1371.67 201.725 1370.26 Q203.606 1368.85 203.606 1366.16 Q203.606 1363.67 201.857 1362.28 Q200.126 1360.87 197.023 1360.87 L193.75 1360.87 L193.75 1357.75 L197.173 1357.75 Q199.976 1357.75 201.462 1356.64 Q202.947 1355.51 202.947 1353.41 Q202.947 1351.24 201.405 1350.1 Q199.882 1348.93 197.023 1348.93 Q195.462 1348.93 193.675 1349.27 Q191.889 1349.61 189.744 1350.32 L189.744 1346.94 Q191.907 1346.33 193.788 1346.03 Q195.688 1345.73 197.362 1345.73 Q201.687 1345.73 204.208 1347.71 Q206.728 1349.66 206.728 1353.01 Q206.728 1355.34 205.392 1356.96 Q204.057 1358.56 201.593 1359.18 Z" fill="#000000" fill-rule="evenodd" fill-opacity="1" /><path clip-path="url(#clip700)" d="M 0 0 M115.703 1114.97 L123.341 1114.97 L123.341 1088.6 L115.031 1090.27 L115.031 1086.01 L123.295 1084.34 L127.971 1084.34 L127.971 1114.97 L135.61 1114.97 L135.61 1118.9 L115.703 1118.9 L115.703 1114.97 Z" fill="#000000" fill-rule="evenodd" fill-opacity="1" /><path clip-path="url(#clip700)" d="M 0 0 M150.679 1087.42 Q147.068 1087.42 145.239 1090.98 Q143.434 1094.53 143.434 1101.66 Q143.434 1108.76 145.239 1112.33 Q147.068 1115.87 150.679 1115.87 Q154.313 1115.87 156.119 1112.33 Q157.948 1108.76 157.948 1101.66 Q157.948 1094.53 156.119 1090.98 Q154.313 1087.42 150.679 1087.42 M150.679 1083.72 Q156.489 1083.72 159.545 1088.32 Q162.624 1092.91 162.624 1101.66 Q162.624 1110.38 159.545 1114.99 Q156.489 1119.57 150.679 1119.57 Q144.869 1119.57 141.79 1114.99 Q138.735 1110.38 138.735 1101.66 Q138.735 1092.91 141.79 1088.32 Q144.869 1083.72 150.679 1083.72 Z" fill="#000000" fill-rule="evenodd" fill-opacity="1" /><path clip-path="url(#clip700)" d="M 0 0 M162.624 1077.82 L186.735 1077.82 L186.735 1081.01 L162.624 1081.01 L162.624 1077.82 Z" fill="#000000" fill-rule="evenodd" fill-opacity="1" /><path clip-path="url(#clip700)" d="M 0 0 M194.127 1088.29 L207.386 1088.29 L207.386 1091.49 L189.556 1091.49 L189.556 1088.29 Q191.719 1086.05 195.443 1082.29 Q199.186 1078.51 200.145 1077.42 Q201.969 1075.37 202.684 1073.96 Q203.418 1072.53 203.418 1071.16 Q203.418 1068.92 201.838 1067.51 Q200.277 1066.1 197.757 1066.1 Q195.97 1066.1 193.976 1066.72 Q192.001 1067.34 189.744 1068.6 L189.744 1064.76 Q192.039 1063.84 194.033 1063.37 Q196.026 1062.9 197.681 1062.9 Q202.045 1062.9 204.64 1065.08 Q207.236 1067.27 207.236 1070.91 Q207.236 1072.64 206.577 1074.21 Q205.938 1075.75 204.226 1077.85 Q203.756 1078.4 201.236 1081.01 Q198.716 1083.61 194.127 1088.29 Z" fill="#000000" fill-rule="evenodd" fill-opacity="1" /><path clip-path="url(#clip700)" d="M 0 0 M115.402 832.136 L123.04 832.136 L123.04 805.77 L114.73 807.437 L114.73 803.178 L122.994 801.511 L127.67 801.511 L127.67 832.136 L135.309 832.136 L135.309 836.071 L115.402 836.071 L115.402 832.136 Z" fill="#000000" fill-rule="evenodd" fill-opacity="1" /><path clip-path="url(#clip700)" d="M 0 0 M150.378 804.59 Q146.767 804.59 144.939 808.154 Q143.133 811.696 143.133 818.826 Q143.133 825.932 144.939 829.497 Q146.767 833.039 150.378 833.039 Q154.013 833.039 155.818 829.497 Q157.647 825.932 157.647 818.826 Q157.647 811.696 155.818 808.154 Q154.013 804.59 150.378 804.59 M150.378 800.886 Q156.188 800.886 159.244 805.492 Q162.323 810.076 162.323 818.826 Q162.323 827.552 159.244 832.159 Q156.188 836.742 150.378 836.742 Q144.568 836.742 141.489 832.159 Q138.434 827.552 138.434 818.826 Q138.434 810.076 141.489 805.492 Q144.568 800.886 150.378 800.886 Z" fill="#000000" fill-rule="evenodd" fill-opacity="1" /><path clip-path="url(#clip700)" d="M 0 0 M162.323 794.987 L186.434 794.987 L186.434 798.185 L162.323 798.185 L162.323 794.987 Z" fill="#000000" fill-rule="evenodd" fill-opacity="1" /><path clip-path="url(#clip700)" d="M 0 0 M191.211 805.463 L197.418 805.463 L197.418 784.041 L190.666 785.395 L190.666 781.935 L197.38 780.581 L201.18 780.581 L201.18 805.463 L207.386 805.463 L207.386 808.661 L191.211 808.661 L191.211 805.463 Z" fill="#000000" fill-rule="evenodd" fill-opacity="1" /><path clip-path="url(#clip700)" d="M 0 0 M141.055 549.306 L148.694 549.306 L148.694 522.941 L140.384 524.607 L140.384 520.348 L148.648 518.681 L153.324 518.681 L153.324 549.306 L160.963 549.306 L160.963 553.241 L141.055 553.241 L141.055 549.306 Z" fill="#000000" fill-rule="evenodd" fill-opacity="1" /><path clip-path="url(#clip700)" d="M 0 0 M176.032 521.76 Q172.421 521.76 170.592 525.325 Q168.787 528.867 168.787 535.996 Q168.787 543.103 170.592 546.667 Q172.421 550.209 176.032 550.209 Q179.666 550.209 181.472 546.667 Q183.301 543.103 183.301 535.996 Q183.301 528.867 181.472 525.325 Q179.666 521.76 176.032 521.76 M176.032 518.056 Q181.842 518.056 184.898 522.663 Q187.976 527.246 187.976 535.996 Q187.976 544.723 184.898 549.329 Q181.842 553.913 176.032 553.913 Q170.222 553.913 167.143 549.329 Q164.088 544.723 164.088 535.996 Q164.088 527.246 167.143 522.663 Q170.222 518.056 176.032 518.056 Z" fill="#000000" fill-rule="evenodd" fill-opacity="1" /><path clip-path="url(#clip700)" d="M 0 0 M197.681 500.253 Q194.747 500.253 193.261 503.149 Q191.794 506.026 191.794 511.819 Q191.794 517.593 193.261 520.49 Q194.747 523.367 197.681 523.367 Q200.634 523.367 202.101 520.49 Q203.587 517.593 203.587 511.819 Q203.587 506.026 202.101 503.149 Q200.634 500.253 197.681 500.253 M197.681 497.243 Q202.402 497.243 204.885 500.986 Q207.386 504.71 207.386 511.819 Q207.386 518.91 204.885 522.653 Q202.402 526.376 197.681 526.376 Q192.961 526.376 190.459 522.653 Q187.976 518.91 187.976 511.819 Q187.976 504.71 190.459 500.986 Q192.961 497.243 197.681 497.243 Z" fill="#000000" fill-rule="evenodd" fill-opacity="1" /><path clip-path="url(#clip700)" d="M 0 0 M143.745 266.477 L151.384 266.477 L151.384 240.111 L143.074 241.778 L143.074 237.519 L151.338 235.852 L156.013 235.852 L156.013 266.477 L163.652 266.477 L163.652 270.412 L143.745 270.412 L143.745 266.477 Z" fill="#000000" fill-rule="evenodd" fill-opacity="1" /><path clip-path="url(#clip700)" d="M 0 0 M178.722 238.931 Q175.111 238.931 173.282 242.496 Q171.476 246.037 171.476 253.167 Q171.476 260.273 173.282 263.838 Q175.111 267.38 178.722 267.38 Q182.356 267.38 184.161 263.838 Q185.99 260.273 185.99 253.167 Q185.99 246.037 184.161 242.496 Q182.356 238.931 178.722 238.931 M178.722 235.227 Q184.532 235.227 187.587 239.833 Q190.666 244.417 190.666 253.167 Q190.666 261.894 187.587 266.5 Q184.532 271.083 178.722 271.083 Q172.911 271.083 169.833 266.5 Q166.777 261.894 166.777 253.167 Q166.777 244.417 169.833 239.833 Q172.911 235.227 178.722 235.227 Z" fill="#000000" fill-rule="evenodd" fill-opacity="1" /><path clip-path="url(#clip700)" d="M 0 0 M191.211 239.804 L197.418 239.804 L197.418 218.382 L190.666 219.736 L190.666 216.276 L197.38 214.922 L201.18 214.922 L201.18 239.804 L207.386 239.804 L207.386 243.002 L191.211 243.002 L191.211 239.804 Z" fill="#000000" fill-rule="evenodd" fill-opacity="1" /><path clip-path="url(#clip700)" d="M 0 0 M44.8447 946.57 Q44.8447 953.572 50.0645 957.71 Q55.2844 961.816 64.2919 961.816 Q73.2675 961.816 78.4874 957.71 Q83.7073 953.572 83.7073 946.57 Q83.7073 939.568 78.4874 935.494 Q73.2675 931.388 64.2919 931.388 Q55.2844 931.388 50.0645 935.494 Q44.8447 939.568 44.8447 946.57 M39.6248 946.57 Q39.6248 936.576 46.3406 930.592 Q53.0246 924.608 64.2919 924.608 Q75.5274 924.608 82.2432 930.592 Q88.9272 936.576 88.9272 946.57 Q88.9272 956.596 82.2432 962.612 Q75.5592 968.595 64.2919 968.595 Q53.0246 968.595 46.3406 962.612 Q39.6248 956.596 39.6248 946.57 Z" fill="#000000" fill-rule="evenodd" fill-opacity="1" /><path clip-path="url(#clip700)" d="M 0 0 M52.3562 922.667 L52.3562 916.46 L82.275 905.32 L52.3562 894.18 L52.3562 887.974 L88.0042 901.342 L88.0042 909.299 L52.3562 922.667 Z" fill="#000000" fill-rule="evenodd" fill-opacity="1" /><path clip-path="url(#clip700)" d="M 0 0 M68.7161 851.339 L71.5806 851.339 L71.5806 878.266 Q77.6281 877.884 80.8109 874.638 Q83.9619 871.359 83.9619 865.535 Q83.9619 862.161 83.1344 859.01 Q82.3069 855.827 80.6518 852.708 L86.1899 852.708 Q87.5267 855.859 88.227 859.169 Q88.9272 862.479 88.9272 865.885 Q88.9272 874.415 83.9619 879.412 Q78.9967 884.377 70.5303 884.377 Q61.7774 884.377 56.6531 879.666 Q51.4968 874.924 51.4968 866.903 Q51.4968 859.71 56.1438 855.54 Q60.7589 851.339 68.7161 851.339 M66.9973 857.195 Q62.1912 857.259 59.3266 859.901 Q56.4621 862.511 56.4621 866.84 Q56.4621 871.741 59.2312 874.701 Q62.0002 877.629 67.0292 878.075 L66.9973 857.195 Z" fill="#000000" fill-rule="evenodd" fill-opacity="1" /><path clip-path="url(#clip700)" d="M 0 0 M57.8307 824.539 Q57.2578 825.526 57.0032 826.704 Q56.7167 827.85 56.7167 829.25 Q56.7167 834.215 59.9632 836.889 Q63.1779 839.531 69.2253 839.531 L88.0042 839.531 L88.0042 845.419 L52.3562 845.419 L52.3562 839.531 L57.8944 839.531 Q54.6479 837.685 53.0883 834.725 Q51.4968 831.764 51.4968 827.531 Q51.4968 826.927 51.5923 826.194 Q51.656 825.462 51.8151 824.571 L57.8307 824.539 Z" fill="#000000" fill-rule="evenodd" fill-opacity="1" /><path clip-path="url(#clip700)" d="M 0 0 M82.657 812.731 L101.563 812.731 L101.563 818.619 L52.3562 818.619 L52.3562 812.731 L57.7671 812.731 Q54.5842 810.885 53.0564 808.084 Q51.4968 805.251 51.4968 801.336 Q51.4968 794.843 56.6531 790.801 Q61.8093 786.727 70.212 786.727 Q78.6147 786.727 83.771 790.801 Q88.9272 794.843 88.9272 801.336 Q88.9272 805.251 87.3994 808.084 Q85.8398 810.885 82.657 812.731 M70.212 792.806 Q63.7508 792.806 60.0905 795.48 Q56.3984 798.122 56.3984 802.769 Q56.3984 807.416 60.0905 810.089 Q63.7508 812.731 70.212 812.731 Q76.6732 812.731 80.3653 810.089 Q84.0256 807.416 84.0256 802.769 Q84.0256 798.122 80.3653 795.48 Q76.6732 792.806 70.212 792.806 Z" fill="#000000" fill-rule="evenodd" fill-opacity="1" /><path clip-path="url(#clip700)" d="M 0 0 M57.8307 759.927 Q57.2578 760.914 57.0032 762.092 Q56.7167 763.238 56.7167 764.638 Q56.7167 769.603 59.9632 772.277 Q63.1779 774.919 69.2253 774.919 L88.0042 774.919 L88.0042 780.807 L52.3562 780.807 L52.3562 774.919 L57.8944 774.919 Q54.6479 773.073 53.0883 770.113 Q51.4968 767.153 51.4968 762.919 Q51.4968 762.315 51.5923 761.583 Q51.656 760.851 51.8151 759.959 L57.8307 759.927 Z" fill="#000000" fill-rule="evenodd" fill-opacity="1" /><path clip-path="url(#clip700)" d="M 0 0 M68.7161 724.725 L71.5806 724.725 L71.5806 751.652 Q77.6281 751.27 80.8109 748.024 Q83.9619 744.745 83.9619 738.921 Q83.9619 735.547 83.1344 732.396 Q82.3069 729.213 80.6518 726.094 L86.1899 726.094 Q87.5267 729.245 88.227 732.555 Q88.9272 735.865 88.9272 739.271 Q88.9272 747.801 83.9619 752.798 Q78.9967 757.763 70.5303 757.763 Q61.7774 757.763 56.6531 753.053 Q51.4968 748.31 51.4968 740.289 Q51.4968 733.096 56.1438 728.926 Q60.7589 724.725 68.7161 724.725 M66.9973 730.582 Q62.1912 730.645 59.3266 733.287 Q56.4621 735.897 56.4621 740.226 Q56.4621 745.127 59.2312 748.087 Q62.0002 751.015 67.0292 751.461 L66.9973 730.582 Z" fill="#000000" fill-rule="evenodd" fill-opacity="1" /><path clip-path="url(#clip700)" d="M 0 0 M53.4065 695.857 L58.9447 695.857 Q57.6716 698.339 57.035 701.013 Q56.3984 703.686 56.3984 706.551 Q56.3984 710.912 57.7352 713.108 Q59.072 715.272 61.7456 715.272 Q63.7826 715.272 64.9603 713.712 Q66.1061 712.153 67.1565 707.442 L67.6021 705.437 Q68.9389 699.199 71.3897 696.589 Q73.8086 693.947 78.1691 693.947 Q83.1344 693.947 86.0308 697.894 Q88.9272 701.809 88.9272 708.684 Q88.9272 711.548 88.3543 714.667 Q87.8132 717.755 86.6992 721.192 L80.6518 721.192 Q82.3387 717.946 83.198 714.795 Q84.0256 711.644 84.0256 708.556 Q84.0256 704.419 82.6251 702.191 Q81.1929 699.963 78.6147 699.963 Q76.2276 699.963 74.9545 701.586 Q73.6813 703.177 72.5037 708.62 L72.0262 710.657 Q70.8804 716.1 68.5251 718.519 Q66.138 720.938 62.0002 720.938 Q56.9713 720.938 54.2341 717.373 Q51.4968 713.808 51.4968 707.251 Q51.4968 704.005 51.9743 701.14 Q52.4517 698.276 53.4065 695.857 Z" fill="#000000" fill-rule="evenodd" fill-opacity="1" /><path clip-path="url(#clip700)" d="M 0 0 M53.4065 665.078 L58.9447 665.078 Q57.6716 667.561 57.035 670.235 Q56.3984 672.908 56.3984 675.773 Q56.3984 680.133 57.7352 682.33 Q59.072 684.494 61.7456 684.494 Q63.7826 684.494 64.9603 682.934 Q66.1061 681.375 67.1565 676.664 L67.6021 674.659 Q68.9389 668.42 71.3897 665.811 Q73.8086 663.169 78.1691 663.169 Q83.1344 663.169 86.0308 667.115 Q88.9272 671.03 88.9272 677.905 Q88.9272 680.77 88.3543 683.889 Q87.8132 686.976 86.6992 690.414 L80.6518 690.414 Q82.3387 687.167 83.198 684.016 Q84.0256 680.865 84.0256 677.778 Q84.0256 673.64 82.6251 671.412 Q81.1929 669.184 78.6147 669.184 Q76.2276 669.184 74.9545 670.808 Q73.6813 672.399 72.5037 677.842 L72.0262 679.879 Q70.8804 685.321 68.5251 687.74 Q66.138 690.159 62.0002 690.159 Q56.9713 690.159 54.2341 686.595 Q51.4968 683.03 51.4968 676.473 Q51.4968 673.227 51.9743 670.362 Q52.4517 667.497 53.4065 665.078 Z" fill="#000000" fill-rule="evenodd" fill-opacity="1" /><path clip-path="url(#clip700)" d="M 0 0 M73.9359 657.631 L52.3562 657.631 L52.3562 651.774 L73.7131 651.774 Q78.7739 651.774 81.3202 649.801 Q83.8346 647.827 83.8346 643.881 Q83.8346 639.138 80.8109 636.401 Q77.7872 633.632 72.5673 633.632 L52.3562 633.632 L52.3562 627.775 L88.0042 627.775 L88.0042 633.632 L82.5296 633.632 Q85.7762 635.764 87.3676 638.597 Q88.9272 641.398 88.9272 645.122 Q88.9272 651.265 85.1078 654.448 Q81.2883 657.631 73.9359 657.631 M51.4968 642.894 L51.4968 642.894 Z" fill="#000000" fill-rule="evenodd" fill-opacity="1" /><path clip-path="url(#clip700)" d="M 0 0 M57.8307 600.976 Q57.2578 601.962 57.0032 603.14 Q56.7167 604.286 56.7167 605.686 Q56.7167 610.652 59.9632 613.325 Q63.1779 615.967 69.2253 615.967 L88.0042 615.967 L88.0042 621.855 L52.3562 621.855 L52.3562 615.967 L57.8944 615.967 Q54.6479 614.121 53.0883 611.161 Q51.4968 608.201 51.4968 603.968 Q51.4968 603.363 51.5923 602.631 Q51.656 601.899 51.8151 601.008 L57.8307 600.976 Z" fill="#000000" fill-rule="evenodd" fill-opacity="1" /><path clip-path="url(#clip700)" d="M 0 0 M68.7161 565.773 L71.5806 565.773 L71.5806 592.7 Q77.6281 592.318 80.8109 589.072 Q83.9619 585.794 83.9619 579.969 Q83.9619 576.595 83.1344 573.444 Q82.3069 570.261 80.6518 567.142 L86.1899 567.142 Q87.5267 570.293 88.227 573.603 Q88.9272 576.913 88.9272 580.319 Q88.9272 588.849 83.9619 593.846 Q78.9967 598.811 70.5303 598.811 Q61.7774 598.811 56.6531 594.101 Q51.4968 589.358 51.4968 581.338 Q51.4968 574.144 56.1438 569.975 Q60.7589 565.773 68.7161 565.773 M66.9973 571.63 Q62.1912 571.694 59.3266 574.335 Q56.4621 576.945 56.4621 581.274 Q56.4621 586.176 59.2312 589.136 Q62.0002 592.064 67.0292 592.509 L66.9973 571.63 Z" fill="#000000" fill-rule="evenodd" fill-opacity="1" /><path clip-path="url(#clip700)" d="M 0 0 M682.374 43.6931 L682.374 65.8515 L695.499 65.8515 Q702.102 65.8515 705.262 63.1374 Q708.462 60.3828 708.462 54.752 Q708.462 49.0808 705.262 46.4072 Q702.102 43.6931 695.499 43.6931 L682.374 43.6931 M682.374 18.8205 L682.374 37.0496 L694.486 37.0496 Q700.482 37.0496 703.398 34.8216 Q706.355 32.5531 706.355 27.935 Q706.355 23.3575 703.398 21.089 Q700.482 18.8205 694.486 18.8205 L682.374 18.8205 M674.191 12.096 L695.094 12.096 Q704.452 12.096 709.515 15.9849 Q714.579 19.8737 714.579 27.0438 Q714.579 32.5936 711.986 35.8748 Q709.394 39.156 704.37 39.9662 Q710.406 41.2625 713.728 45.3944 Q717.09 49.4858 717.09 55.6432 Q717.09 63.745 711.581 68.1605 Q706.072 72.576 695.904 72.576 L674.191 72.576 L674.191 12.096 Z" fill="#000000" fill-rule="evenodd" fill-opacity="1" /><path clip-path="url(#clip700)" d="M 0 0 M745.528 49.7694 Q736.494 49.7694 733.01 51.8354 Q729.527 53.9013 729.527 58.8839 Q729.527 62.8538 732.119 65.2034 Q734.752 67.5124 739.249 67.5124 Q745.447 67.5124 749.173 63.1374 Q752.941 58.7219 752.941 51.4303 L752.941 49.7694 L745.528 49.7694 M760.394 46.6907 L760.394 72.576 L752.941 72.576 L752.941 65.6895 Q750.389 69.8214 746.581 71.8063 Q742.773 73.7508 737.264 73.7508 Q730.296 73.7508 726.164 69.8619 Q722.073 65.9325 722.073 59.3701 Q722.073 51.7138 727.177 47.825 Q732.322 43.9361 742.489 43.9361 L752.941 43.9361 L752.941 43.2069 Q752.941 38.0623 749.538 35.2672 Q746.176 32.4315 740.059 32.4315 Q736.17 32.4315 732.484 33.3632 Q728.797 34.295 725.395 36.1584 L725.395 29.2718 Q729.486 27.692 733.334 26.9223 Q737.183 26.1121 740.829 26.1121 Q750.672 26.1121 755.533 31.2163 Q760.394 36.3204 760.394 46.6907 Z" fill="#000000" fill-rule="evenodd" fill-opacity="1" /><path clip-path="url(#clip700)" d="M 0 0 M767.929 9.54393 L775.423 9.54393 L775.423 46.7717 L797.663 27.2059 L807.182 27.2059 L783.12 48.4326 L808.195 72.576 L798.473 72.576 L775.423 50.4176 L775.423 72.576 L767.929 72.576 L767.929 9.54393 Z" fill="#000000" fill-rule="evenodd" fill-opacity="1" /><path clip-path="url(#clip700)" d="M 0 0 M851.864 48.0275 L851.864 51.6733 L817.593 51.6733 Q818.079 59.3701 822.211 63.421 Q826.384 67.4314 833.797 67.4314 Q838.091 67.4314 842.101 66.3781 Q846.152 65.3249 850.122 63.2184 L850.122 70.267 Q846.112 71.9684 841.899 72.8596 Q837.686 73.7508 833.351 73.7508 Q822.495 73.7508 816.135 67.4314 Q809.816 61.1119 809.816 50.3365 Q809.816 39.1965 815.811 32.6746 Q821.847 26.1121 832.055 26.1121 Q841.21 26.1121 846.517 32.0264 Q851.864 37.9003 851.864 48.0275 M844.41 45.84 Q844.329 39.7232 840.967 36.0774 Q837.645 32.4315 832.136 32.4315 Q825.898 32.4315 822.13 35.9558 Q818.403 39.4801 817.836 45.8805 L844.41 45.84 Z" fill="#000000" fill-rule="evenodd" fill-opacity="1" /><path clip-path="url(#clip700)" d="M 0 0 M885.973 34.1734 Q884.717 33.4443 883.218 33.1202 Q881.76 32.7556 879.977 32.7556 Q873.658 32.7556 870.255 36.8875 Q866.893 40.9789 866.893 48.6757 L866.893 72.576 L859.399 72.576 L859.399 27.2059 L866.893 27.2059 L866.893 34.2544 Q869.242 30.1225 873.01 28.1376 Q876.777 26.1121 882.165 26.1121 Q882.934 26.1121 883.866 26.2337 Q884.798 26.3147 885.932 26.5172 L885.973 34.1734 Z" fill="#000000" fill-rule="evenodd" fill-opacity="1" /><path clip-path="url(#clip700)" d="M 0 0 M884.717 46.5287 L906.551 46.5287 L906.551 53.1722 L884.717 53.1722 L884.717 46.5287 Z" fill="#000000" fill-rule="evenodd" fill-opacity="1" /><path clip-path="url(#clip700)" d="M 0 0 M950.949 14.0809 L950.949 22.0612 Q946.29 19.8332 942.159 18.7395 Q938.027 17.6457 934.178 17.6457 Q927.494 17.6457 923.848 20.2383 Q920.243 22.8309 920.243 27.611 Q920.243 31.6214 922.633 33.6873 Q925.064 35.7128 931.788 36.9686 L936.73 37.9813 Q945.885 39.7232 950.22 44.1387 Q954.595 48.5136 954.595 55.8863 Q954.595 64.6767 948.681 69.2137 Q942.807 73.7508 931.424 73.7508 Q927.13 73.7508 922.269 72.7785 Q917.448 71.8063 912.263 69.9024 L912.263 61.4765 Q917.245 64.2716 922.026 65.6895 Q926.806 67.1073 931.424 67.1073 Q938.432 67.1073 942.24 64.3527 Q946.047 61.598 946.047 56.4939 Q946.047 52.0379 943.293 49.5264 Q940.579 47.0148 934.34 45.759 L929.358 44.7868 Q920.203 42.9639 916.111 39.075 Q912.02 35.1862 912.02 28.2591 Q912.02 20.2383 917.651 15.6203 Q923.322 11.0023 933.247 11.0023 Q937.5 11.0023 941.916 11.7719 Q946.331 12.5416 950.949 14.0809 Z" fill="#000000" fill-rule="evenodd" fill-opacity="1" /><path clip-path="url(#clip700)" d="M 0 0 M969.786 14.324 L969.786 27.2059 L985.139 27.2059 L985.139 32.9987 L969.786 32.9987 L969.786 57.6282 Q969.786 63.1779 971.285 64.7578 Q972.824 66.3376 977.482 66.3376 L985.139 66.3376 L985.139 72.576 L977.482 72.576 Q968.854 72.576 965.573 69.3758 Q962.292 66.1351 962.292 57.6282 L962.292 32.9987 L956.823 32.9987 L956.823 27.2059 L962.292 27.2059 L962.292 14.324 L969.786 14.324 Z" fill="#000000" fill-rule="evenodd" fill-opacity="1" /><path clip-path="url(#clip700)" d="M 0 0 M1019.25 34.1734 Q1017.99 33.4443 1016.49 33.1202 Q1015.03 32.7556 1013.25 32.7556 Q1006.93 32.7556 1003.53 36.8875 Q1000.17 40.9789 1000.17 48.6757 L1000.17 72.576 L992.673 72.576 L992.673 27.2059 L1000.17 27.2059 L1000.17 34.2544 Q1002.52 30.1225 1006.28 28.1376 Q1010.05 26.1121 1015.44 26.1121 Q1016.21 26.1121 1017.14 26.2337 Q1018.07 26.3147 1019.21 26.5172 L1019.25 34.1734 Z" fill="#000000" fill-rule="evenodd" fill-opacity="1" /><path clip-path="url(#clip700)" d="M 0 0 M1064.05 48.0275 L1064.05 51.6733 L1029.78 51.6733 Q1030.27 59.3701 1034.4 63.421 Q1038.57 67.4314 1045.98 67.4314 Q1050.28 67.4314 1054.29 66.3781 Q1058.34 65.3249 1062.31 63.2184 L1062.31 70.267 Q1058.3 71.9684 1054.09 72.8596 Q1049.87 73.7508 1045.54 73.7508 Q1034.68 73.7508 1028.32 67.4314 Q1022 61.1119 1022 50.3365 Q1022 39.1965 1028 32.6746 Q1034.03 26.1121 1044.24 26.1121 Q1053.4 26.1121 1058.7 32.0264 Q1064.05 37.9003 1064.05 48.0275 M1056.6 45.84 Q1056.52 39.7232 1053.15 36.0774 Q1049.83 32.4315 1044.32 32.4315 Q1038.08 32.4315 1034.32 35.9558 Q1030.59 39.4801 1030.02 45.8805 L1056.6 45.84 Z" fill="#000000" fill-rule="evenodd" fill-opacity="1" /><path clip-path="url(#clip700)" d="M 0 0 M1109.58 45.1919 L1109.58 72.576 L1102.13 72.576 L1102.13 45.4349 Q1102.13 38.994 1099.62 35.7938 Q1097.11 32.5936 1092.08 32.5936 Q1086.05 32.5936 1082.56 36.4419 Q1079.08 40.2903 1079.08 46.9338 L1079.08 72.576 L1071.58 72.576 L1071.58 9.54393 L1079.08 9.54393 L1079.08 34.2544 Q1081.75 30.163 1085.36 28.1376 Q1089 26.1121 1093.74 26.1121 Q1101.56 26.1121 1105.57 30.9732 Q1109.58 35.7938 1109.58 45.1919 Z" fill="#000000" fill-rule="evenodd" fill-opacity="1" /><path clip-path="url(#clip700)" d="M 0 0 M1117.4 9.54393 L1124.85 9.54393 L1124.85 72.576 L1117.4 72.576 L1117.4 9.54393 Z" fill="#000000" fill-rule="evenodd" fill-opacity="1" /><path clip-path="url(#clip700)" d="M 0 0 M1150.25 32.4315 Q1144.26 32.4315 1140.77 37.1306 Q1137.29 41.7891 1137.29 49.9314 Q1137.29 58.0738 1140.73 62.7728 Q1144.22 67.4314 1150.25 67.4314 Q1156.21 67.4314 1159.69 62.7323 Q1163.18 58.0333 1163.18 49.9314 Q1163.18 41.8701 1159.69 37.1711 Q1156.21 32.4315 1150.25 32.4315 M1150.25 26.1121 Q1159.98 26.1121 1165.53 32.4315 Q1171.08 38.7509 1171.08 49.9314 Q1171.08 61.0714 1165.53 67.4314 Q1159.98 73.7508 1150.25 73.7508 Q1140.49 73.7508 1134.94 67.4314 Q1129.43 61.0714 1129.43 49.9314 Q1129.43 38.7509 1134.94 32.4315 Q1140.49 26.1121 1150.25 26.1121 Z" fill="#000000" fill-rule="evenodd" fill-opacity="1" /><path clip-path="url(#clip700)" d="M 0 0 M1174.56 27.2059 L1182.01 27.2059 L1191.33 62.6108 L1200.61 27.2059 L1209.4 27.2059 L1218.71 62.6108 L1227.99 27.2059 L1235.44 27.2059 L1223.57 72.576 L1214.78 72.576 L1205.02 35.3887 L1195.22 72.576 L1186.43 72.576 L1174.56 27.2059 Z" fill="#000000" fill-rule="evenodd" fill-opacity="1" /><path clip-path="url(#clip700)" d="M 0 0 M1239.49 46.5287 L1261.33 46.5287 L1261.33 53.1722 L1239.49 53.1722 L1239.49 46.5287 Z" fill="#000000" fill-rule="evenodd" fill-opacity="1" /><path clip-path="url(#clip700)" d="M 0 0 M1253.47 12.096 L1304.63 12.096 L1304.63 18.9825 L1283.16 18.9825 L1283.16 72.576 L1274.94 72.576 L1274.94 18.9825 L1253.47 18.9825 L1253.47 12.096 Z" fill="#000000" fill-rule="evenodd" fill-opacity="1" /><path clip-path="url(#clip700)" d="M 0 0 M1319.34 49.7694 Q1310.3 49.7694 1306.82 51.8354 Q1303.34 53.9013 1303.34 58.8839 Q1303.34 62.8538 1305.93 65.2034 Q1308.56 67.5124 1313.06 67.5124 Q1319.26 67.5124 1322.98 63.1374 Q1326.75 58.7219 1326.75 51.4303 L1326.75 49.7694 L1319.34 49.7694 M1334.21 46.6907 L1334.21 72.576 L1326.75 72.576 L1326.75 65.6895 Q1324.2 69.8214 1320.39 71.8063 Q1316.58 73.7508 1311.07 73.7508 Q1304.11 73.7508 1299.97 69.8619 Q1295.88 65.9325 1295.88 59.3701 Q1295.88 51.7138 1300.99 47.825 Q1306.13 43.9361 1316.3 43.9361 L1326.75 43.9361 L1326.75 43.2069 Q1326.75 38.0623 1323.35 35.2672 Q1319.99 32.4315 1313.87 32.4315 Q1309.98 32.4315 1306.29 33.3632 Q1302.61 34.295 1299.21 36.1584 L1299.21 29.2718 Q1303.3 27.692 1307.15 26.9223 Q1310.99 26.1121 1314.64 26.1121 Q1324.48 26.1121 1329.34 31.2163 Q1334.21 36.3204 1334.21 46.6907 Z" fill="#000000" fill-rule="evenodd" fill-opacity="1" /><path clip-path="url(#clip700)" d="M 0 0 M1379.74 45.1919 L1379.74 72.576 L1372.28 72.576 L1372.28 45.4349 Q1372.28 38.994 1369.77 35.7938 Q1367.26 32.5936 1362.24 32.5936 Q1356.2 32.5936 1352.72 36.4419 Q1349.23 40.2903 1349.23 46.9338 L1349.23 72.576 L1341.74 72.576 L1341.74 27.2059 L1349.23 27.2059 L1349.23 34.2544 Q1351.91 30.163 1355.51 28.1376 Q1359.16 26.1121 1363.9 26.1121 Q1371.72 26.1121 1375.73 30.9732 Q1379.74 35.7938 1379.74 45.1919 Z" fill="#000000" fill-rule="evenodd" fill-opacity="1" /><path clip-path="url(#clip700)" d="M 0 0 M1417.41 49.3643 Q1417.41 41.2625 1414.05 36.8065 Q1410.73 32.3505 1404.69 32.3505 Q1398.7 32.3505 1395.33 36.8065 Q1392.01 41.2625 1392.01 49.3643 Q1392.01 57.4256 1395.33 61.8816 Q1398.7 66.3376 1404.69 66.3376 Q1410.73 66.3376 1414.05 61.8816 Q1417.41 57.4256 1417.41 49.3643 M1424.86 66.9452 Q1424.86 78.5308 1419.72 84.1616 Q1414.58 89.8329 1403.96 89.8329 Q1400.03 89.8329 1396.55 89.2252 Q1393.06 88.6581 1389.78 87.4428 L1389.78 80.1917 Q1393.06 81.9741 1396.26 82.8248 Q1399.47 83.6755 1402.79 83.6755 Q1410.12 83.6755 1413.76 79.8271 Q1417.41 76.0193 1417.41 68.282 L1417.41 64.5957 Q1415.1 68.6061 1411.5 70.5911 Q1407.89 72.576 1402.87 72.576 Q1394.52 72.576 1389.42 66.2161 Q1384.31 59.8562 1384.31 49.3643 Q1384.31 38.832 1389.42 32.472 Q1394.52 26.1121 1402.87 26.1121 Q1407.89 26.1121 1411.5 28.0971 Q1415.1 30.082 1417.41 34.0924 L1417.41 27.2059 L1424.86 27.2059 L1424.86 66.9452 Z" fill="#000000" fill-rule="evenodd" fill-opacity="1" /><path clip-path="url(#clip700)" d="M 0 0 M1467.56 43.6931 L1467.56 65.8515 L1480.69 65.8515 Q1487.29 65.8515 1490.45 63.1374 Q1493.65 60.3828 1493.65 54.752 Q1493.65 49.0808 1490.45 46.4072 Q1487.29 43.6931 1480.69 43.6931 L1467.56 43.6931 M1467.56 18.8205 L1467.56 37.0496 L1479.67 37.0496 Q1485.67 37.0496 1488.59 34.8216 Q1491.54 32.5531 1491.54 27.935 Q1491.54 23.3575 1488.59 21.089 Q1485.67 18.8205 1479.67 18.8205 L1467.56 18.8205 M1459.38 12.096 L1480.28 12.096 Q1489.64 12.096 1494.7 15.9849 Q1499.77 19.8737 1499.77 27.0438 Q1499.77 32.5936 1497.17 35.8748 Q1494.58 39.156 1489.56 39.9662 Q1495.59 41.2625 1498.91 45.3944 Q1502.28 49.4858 1502.28 55.6432 Q1502.28 63.745 1496.77 68.1605 Q1491.26 72.576 1481.09 72.576 L1459.38 72.576 L1459.38 12.096 Z" fill="#000000" fill-rule="evenodd" fill-opacity="1" /><path clip-path="url(#clip700)" d="M 0 0 M1510.1 9.54393 L1517.55 9.54393 L1517.55 72.576 L1510.1 72.576 L1510.1 9.54393 Z" fill="#000000" fill-rule="evenodd" fill-opacity="1" /><path clip-path="url(#clip700)" d="M 0 0 M1545.99 49.7694 Q1536.95 49.7694 1533.47 51.8354 Q1529.99 53.9013 1529.99 58.8839 Q1529.99 62.8538 1532.58 65.2034 Q1535.21 67.5124 1539.71 67.5124 Q1545.91 67.5124 1549.63 63.1374 Q1553.4 58.7219 1553.4 51.4303 L1553.4 49.7694 L1545.99 49.7694 M1560.85 46.6907 L1560.85 72.576 L1553.4 72.576 L1553.4 65.6895 Q1550.85 69.8214 1547.04 71.8063 Q1543.23 73.7508 1537.72 73.7508 Q1530.75 73.7508 1526.62 69.8619 Q1522.53 65.9325 1522.53 59.3701 Q1522.53 51.7138 1527.64 47.825 Q1532.78 43.9361 1542.95 43.9361 L1553.4 43.9361 L1553.4 43.2069 Q1553.4 38.0623 1550 35.2672 Q1546.63 32.4315 1540.52 32.4315 Q1536.63 32.4315 1532.94 33.3632 Q1529.26 34.295 1525.85 36.1584 L1525.85 29.2718 Q1529.94 27.692 1533.79 26.9223 Q1537.64 26.1121 1541.29 26.1121 Q1551.13 26.1121 1555.99 31.2163 Q1560.85 36.3204 1560.85 46.6907 Z" fill="#000000" fill-rule="evenodd" fill-opacity="1" /><path clip-path="url(#clip700)" d="M 0 0 M1597.59 28.5427 L1597.59 35.5912 Q1594.44 33.9709 1591.03 33.1607 Q1587.63 32.3505 1583.98 32.3505 Q1578.43 32.3505 1575.64 34.0519 Q1572.88 35.7533 1572.88 39.156 Q1572.88 41.7486 1574.87 43.2475 Q1576.85 44.7058 1582.85 46.0426 L1585.4 46.6097 Q1593.34 48.3111 1596.66 51.4303 Q1600.03 54.509 1600.03 60.0587 Q1600.03 66.3781 1595 70.0644 Q1590.02 73.7508 1581.27 73.7508 Q1577.62 73.7508 1573.65 73.0216 Q1569.72 72.3329 1565.35 70.9151 L1565.35 63.2184 Q1569.48 65.3654 1573.49 66.4591 Q1577.5 67.5124 1581.43 67.5124 Q1586.7 67.5124 1589.53 65.73 Q1592.37 63.9071 1592.37 60.6258 Q1592.37 57.5877 1590.3 55.9673 Q1588.28 54.3469 1581.35 52.8481 L1578.76 52.2405 Q1571.83 50.7821 1568.75 47.7845 Q1565.67 44.7463 1565.67 39.4801 Q1565.67 33.0797 1570.21 29.5959 Q1574.75 26.1121 1583.09 26.1121 Q1587.22 26.1121 1590.87 26.7198 Q1594.52 27.3274 1597.59 28.5427 Z" fill="#000000" fill-rule="evenodd" fill-opacity="1" /><path clip-path="url(#clip700)" d="M 0 0 M1615.22 14.324 L1615.22 27.2059 L1630.57 27.2059 L1630.57 32.9987 L1615.22 32.9987 L1615.22 57.6282 Q1615.22 63.1779 1616.72 64.7578 Q1618.25 66.3376 1622.91 66.3376 L1630.57 66.3376 L1630.57 72.576 L1622.91 72.576 Q1614.28 72.576 1611 69.3758 Q1607.72 66.1351 1607.72 57.6282 L1607.72 32.9987 L1602.25 32.9987 L1602.25 27.2059 L1607.72 27.2059 L1607.72 14.324 L1615.22 14.324 Z" fill="#000000" fill-rule="evenodd" fill-opacity="1" /><path clip-path="url(#clip700)" d="M 0 0 M1710.37 16.7545 L1710.37 25.383 Q1706.24 21.5346 1701.54 19.6307 Q1696.88 17.7268 1691.62 17.7268 Q1681.25 17.7268 1675.74 24.0867 Q1670.23 30.4061 1670.23 42.3968 Q1670.23 54.3469 1675.74 60.7069 Q1681.25 67.0263 1691.62 67.0263 Q1696.88 67.0263 1701.54 65.1223 Q1706.24 63.2184 1710.37 59.3701 L1710.37 67.9175 Q1706.08 70.8341 1701.26 72.2924 Q1696.48 73.7508 1691.13 73.7508 Q1677.4 73.7508 1669.5 65.3654 Q1661.6 56.9395 1661.6 42.3968 Q1661.6 27.8135 1669.5 19.4281 Q1677.4 11.0023 1691.13 11.0023 Q1696.56 11.0023 1701.34 12.4606 Q1706.16 13.8784 1710.37 16.7545 Z" fill="#000000" fill-rule="evenodd" fill-opacity="1" /><path clip-path="url(#clip700)" d="M 0 0 M1717.42 54.671 L1717.42 27.2059 L1724.87 27.2059 L1724.87 54.3874 Q1724.87 60.8284 1727.39 64.0691 Q1729.9 67.2693 1734.92 67.2693 Q1740.96 67.2693 1744.44 63.421 Q1747.96 59.5726 1747.96 52.9291 L1747.96 27.2059 L1755.42 27.2059 L1755.42 72.576 L1747.96 72.576 L1747.96 65.6084 Q1745.25 69.7404 1741.65 71.7658 Q1738.08 73.7508 1733.34 73.7508 Q1725.52 73.7508 1721.47 68.8897 Q1717.42 64.0286 1717.42 54.671 M1736.18 26.1121 L1736.18 26.1121 Z" fill="#000000" fill-rule="evenodd" fill-opacity="1" /><path clip-path="url(#clip700)" d="M 0 0 M1789.53 34.1734 Q1788.27 33.4443 1786.77 33.1202 Q1785.31 32.7556 1783.53 32.7556 Q1777.21 32.7556 1773.81 36.8875 Q1770.45 40.9789 1770.45 48.6757 L1770.45 72.576 L1762.95 72.576 L1762.95 27.2059 L1770.45 27.2059 L1770.45 34.2544 Q1772.8 30.1225 1776.56 28.1376 Q1780.33 26.1121 1785.72 26.1121 Q1786.49 26.1121 1787.42 26.2337 Q1788.35 26.3147 1789.49 26.5172 L1789.53 34.1734 Z" fill="#000000" fill-rule="evenodd" fill-opacity="1" /><path clip-path="url(#clip700)" d="M 0 0 M1792 27.2059 L1799.9 27.2059 L1814.08 65.2844 L1828.25 27.2059 L1836.15 27.2059 L1819.14 72.576 L1809.01 72.576 L1792 27.2059 Z" fill="#000000" fill-rule="evenodd" fill-opacity="1" /><path clip-path="url(#clip700)" d="M 0 0 M1882.78 48.0275 L1882.78 51.6733 L1848.51 51.6733 Q1848.99 59.3701 1853.13 63.421 Q1857.3 67.4314 1864.71 67.4314 Q1869.01 67.4314 1873.02 66.3781 Q1877.07 65.3249 1881.04 63.2184 L1881.04 70.267 Q1877.03 71.9684 1872.81 72.8596 Q1868.6 73.7508 1864.27 73.7508 Q1853.41 73.7508 1847.05 67.4314 Q1840.73 61.1119 1840.73 50.3365 Q1840.73 39.1965 1846.73 32.6746 Q1852.76 26.1121 1862.97 26.1121 Q1872.12 26.1121 1877.43 32.0264 Q1882.78 37.9003 1882.78 48.0275 M1875.32 45.84 Q1875.24 39.7232 1871.88 36.0774 Q1868.56 32.4315 1863.05 32.4315 Q1856.81 32.4315 1853.04 35.9558 Q1849.32 39.4801 1848.75 45.8805 L1875.32 45.84 Z" fill="#000000" fill-rule="evenodd" fill-opacity="1" /><path clip-path="url(#clip700)" d="M 0 0 M1919.52 28.5427 L1919.52 35.5912 Q1916.36 33.9709 1912.96 33.1607 Q1909.55 32.3505 1905.91 32.3505 Q1900.36 32.3505 1897.56 34.0519 Q1894.81 35.7533 1894.81 39.156 Q1894.81 41.7486 1896.79 43.2475 Q1898.78 44.7058 1904.77 46.0426 L1907.33 46.6097 Q1915.27 48.3111 1918.59 51.4303 Q1921.95 54.509 1921.95 60.0587 Q1921.95 66.3781 1916.93 70.0644 Q1911.95 73.7508 1903.2 73.7508 Q1899.55 73.7508 1895.58 73.0216 Q1891.65 72.3329 1887.28 70.9151 L1887.28 63.2184 Q1891.41 65.3654 1895.42 66.4591 Q1899.43 67.5124 1903.36 67.5124 Q1908.62 67.5124 1911.46 65.73 Q1914.29 63.9071 1914.29 60.6258 Q1914.29 57.5877 1912.23 55.9673 Q1910.2 54.3469 1903.28 52.8481 L1900.68 52.2405 Q1893.76 50.7821 1890.68 47.7845 Q1887.6 44.7463 1887.6 39.4801 Q1887.6 33.0797 1892.14 29.5959 Q1896.67 26.1121 1905.02 26.1121 Q1909.15 26.1121 1912.8 26.7198 Q1916.44 27.3274 1919.52 28.5427 Z" fill="#000000" fill-rule="evenodd" fill-opacity="1" /><polyline clip-path="url(#clip702)" style="stroke:#009af9; stroke-width:4; stroke-opacity:1; fill:none" points="
  308.348,1094 316.941,1094.84 325.509,1093.96 334.09,1093.94 342.671,1093.92 351.252,1093.9 359.832,1093.88 368.413,1093.86 377.006,1094.7 385.586,1094.68 
  394.155,1093.8 402.736,1093.78 411.317,1093.76 419.897,1093.75 428.49,1094.59 437.059,1093.71 445.652,1094.55 454.22,1093.67 462.813,1094.51 471.382,1093.63 
  479.974,1094.47 488.555,1094.45 497.136,1094.43 505.717,1094.41 514.285,1093.53 522.878,1094.37 531.447,1093.49 540.027,1093.47 548.608,1093.45 557.189,1093.43 
  565.769,1093.41 574.35,1093.4 582.931,1093.38 591.512,1093.36 600.092,1093.34 608.673,1093.32 617.254,1093.3 625.834,1093.28 634.415,1093.26 642.996,1093.24 
  651.577,1093.22 660.157,1093.2 668.738,1093.18 677.319,1093.16 685.899,1093.14 694.48,1093.12 703.061,1093.1 711.642,1093.08 720.222,1093.06 728.803,1093.04 
  737.384,1093.03 745.964,1093.01 754.545,1092.99 763.126,1092.97 771.707,1092.95 780.287,1092.93 788.868,1092.91 797.449,1092.89 806.029,1092.87 814.61,1092.85 
  823.191,1092.83 831.772,1092.81 840.352,1092.79 848.933,1092.77 857.514,1092.75 866.094,1092.73 874.675,1092.71 883.256,1092.69 891.837,1092.68 900.417,1092.66 
  908.998,1092.64 917.579,1092.62 926.159,1092.6 934.74,1092.58 943.321,1092.56 951.902,1092.54 960.482,1092.52 969.063,1092.5 977.644,1092.48 986.224,1092.46 
  994.805,1092.44 1003.39,1092.42 1011.97,1092.4 1020.55,1092.38 1029.13,1092.36 1037.71,1092.34 1046.29,1092.32 1054.87,1092.31 1063.45,1092.29 1072.03,1092.27 
  1080.61,1092.25 1089.19,1092.23 1097.77,1092.21 1106.35,1092.19 1114.94,1092.17 1123.52,1092.15 1132.1,1092.13 1140.68,1092.11 1149.26,1092.09 1157.84,1092.07 
  1166.42,1092.05 1175,1092.03 1183.58,1092.01 1192.16,1091.99 1200.74,1091.97 1209.32,1091.95 1217.9,1091.94 1226.48,1091.92 1235.08,1092.76 1243.66,1092.74 
  1252.23,1091.86 1260.81,1091.84 1269.39,1091.82 1277.97,1091.8 1286.56,1092.64 1295.14,1092.62 1303.72,1092.6 1312.3,1092.58 1320.87,1091.7 1329.48,1095.17 
  1338.12,1097.69 1346.74,1100.26 1355.38,1104.54 1364.01,1107.97 1372.64,1111.39 1381.26,1114.82 1389.89,1118.24 1398.52,1121.67 1407.15,1125.09 1415.78,1128.52 
  1424.41,1131.95 1433.05,1136.23 1441.68,1139.66 1450.31,1143.08 1458.94,1146.51 1467.57,1149.93 1476.2,1153.36 1484.81,1155.92 1493.46,1160.21 1502.09,1163.63 
  1510.71,1167.06 1519.34,1170.49 1527.97,1173.91 1536.6,1177.34 1545.23,1180.76 1553.86,1184.19 1562.49,1187.61 1571.13,1191.9 1579.76,1195.32 1588.4,1199.61 
  1597.03,1203.04 1605.67,1207.32 1614.3,1210.75 1622.94,1215.03 1631.58,1219.32 1640.23,1223.61 1648.85,1227.03 1657.5,1231.32 1666.13,1234.75 1674.77,1239.03 
  1683.42,1244.18 1692.06,1248.47 1700.7,1252.75 1709.33,1256.18 1717.97,1260.46 1726.61,1264.75 1735.26,1269.04 1743.9,1273.32 1752.54,1277.61 1761.18,1281.9 
  1769.81,1285.32 1778.45,1289.61 1787.09,1293.9 1795.73,1298.18 1804.37,1302.47 1813,1305.89 1821.64,1310.18 1830.29,1314.47 1838.91,1317.89 1847.56,1322.18 
  1856.19,1325.6 1864.83,1329.89 1873.47,1334.18 1882.1,1337.6 1890.73,1341.03 1899.38,1346.18 1908.02,1350.46 1916.65,1353.89 1925.29,1358.18 1933.93,1362.46 
  1942.57,1366.75 1951.2,1370.17 1959.84,1374.46 
  "/>
<polyline clip-path="url(#clip702)" style="stroke:#e26f46; stroke-width:4; stroke-opacity:1; fill:none" points="
  303.085,922.256 311.673,922.24 320.25,921.362 328.848,922.206 337.426,921.329 346.024,922.173 354.612,922.156 363.199,922.14 371.787,922.123 380.375,922.106 
  388.962,922.089 397.54,921.212 406.138,922.056 414.715,921.179 423.303,921.162 431.891,921.145 440.478,921.129 449.076,921.973 457.654,921.095 466.241,921.079 
  474.829,921.062 483.427,921.906 492.005,921.029 500.603,921.873 509.18,920.995 517.778,921.839 526.356,920.962 534.954,921.806 543.531,920.928 552.119,920.912 
  560.706,920.895 569.294,920.878 577.882,920.862 586.47,920.845 595.068,921.689 603.645,920.812 612.233,920.795 620.82,920.778 629.408,920.762 637.996,920.745 
  646.584,920.728 655.171,920.712 663.759,920.695 672.347,920.678 680.934,920.661 689.522,920.645 698.11,920.628 706.698,920.611 715.285,920.595 723.873,920.578 
  732.461,920.561 741.048,920.545 749.636,920.528 758.224,920.511 766.812,920.495 775.399,920.478 783.987,920.461 792.575,920.445 801.162,920.428 809.75,920.411 
  818.338,920.395 826.926,920.378 835.513,920.361 844.101,920.344 852.689,920.328 861.277,920.311 869.864,920.294 878.452,920.278 887.04,920.261 895.627,920.244 
  904.215,920.228 912.803,920.211 921.391,920.194 929.978,920.178 938.566,920.161 947.154,920.144 955.741,920.128 964.329,920.111 972.917,920.094 981.505,920.077 
  990.092,920.061 998.68,920.044 1007.27,920.027 1015.86,920.011 1024.44,919.994 1033.03,919.977 1041.62,919.961 1050.21,919.944 1058.79,919.927 1067.38,919.911 
  1075.96,919.033 1084.56,919.877 1093.14,919.861 1101.73,919.844 1110.32,919.827 1118.91,919.811 1127.5,919.794 1136.08,919.777 1144.67,919.76 1153.25,918.883 
  1161.85,919.727 1170.42,918.85 1179.02,919.694 1187.61,919.677 1196.2,919.66 1204.79,919.644 1213.36,918.766 1221.96,919.61 1230.55,919.594 1239.14,919.577 
  1247.72,919.56 1256.31,919.544 1264.9,919.527 1273.49,919.51 1282.06,918.633 1290.66,919.477 1299.25,919.46 1307.84,919.443 1316.43,919.427 1325.01,919.41 
  1333.64,922.836 1342.27,926.262 1350.9,929.688 1359.53,933.114 1368.16,936.54 1376.79,939.967 1385.42,943.393 1394.05,946.819 1402.68,950.245 1411.31,953.671 
  1419.95,957.958 1428.58,961.384 1437.21,964.81 1445.83,968.236 1454.46,971.662 1463.09,975.088 1471.72,978.514 1480.35,981.94 1488.98,985.366 1497.62,989.653 
  1506.25,993.079 1514.87,995.644 1523.51,999.931 1532.13,1002.5 1540.77,1006.78 1549.39,1009.35 1558.03,1013.64 1566.66,1017.06 1575.29,1020.49 1583.91,1023.91 
  1592.54,1027.34 1601.18,1031.63 1609.81,1035.05 1618.43,1037.62 1627.07,1041.9 1635.7,1045.33 1644.33,1048.76 1652.96,1052.18 1661.59,1055.61 1670.22,1059.04 
  1678.85,1062.46 1687.48,1065.89 1696.12,1070.17 1704.74,1072.74 1713.38,1077.03 1722,1080.45 1730.63,1083.88 1739.26,1087.3 1747.9,1091.59 1756.53,1095.02 
  1765.16,1098.44 1773.79,1101.87 1782.42,1105.3 1791.06,1109.58 1799.68,1112.15 1808.31,1115.57 1816.94,1119 1825.58,1123.29 1834.21,1126.71 1842.83,1129.28 
  1851.46,1132.7 1860.09,1136.99 1868.72,1140.42 1877.35,1143.84 1885.98,1147.27 1894.6,1149.83 1903.23,1153.26 1911.85,1155.83 1920.49,1160.11 1929.11,1162.68 
  1937.75,1166.96 1946.38,1170.39 1955.01,1173.82 1963.63,1176.38 1972.26,1179.81 1980.88,1183.23 1989.51,1186.66 1998.14,1190.09 2006.78,1194.37 2015.42,1198.66 
  2024.05,1202.09 2032.69,1206.37 2041.32,1209.8 2049.96,1214.09 2058.6,1218.37 2067.24,1222.66 2075.88,1226.95 2084.52,1231.23 2093.15,1234.66 2101.79,1238.95 
  2110.44,1244.09 2119.08,1248.38 2127.72,1252.67 2136.36,1256.95 2144.99,1260.38 2153.63,1264.67 2162.27,1268.95 2170.91,1273.24 2179.55,1277.53 2188.19,1281.81 
  2196.83,1286.1 2205.47,1290.39 2214.11,1294.67 2222.75,1298.96 2231.38,1302.39 2240.03,1307.53 2248.65,1310.96 2257.29,1315.25 2265.93,1319.53 2274.57,1323.82 
  2283.21,1328.11 2291.84,1331.53 
  "/>
<polyline clip-path="url(#clip702)" style="stroke:#3da44d; stroke-width:4; stroke-opacity:1; fill:none" points="
  566.315,852.027 574.892,851.15 583.469,850.273 592.047,849.395 600.624,848.518 609.201,847.64 617.779,846.763 626.356,845.886 634.933,845.008 643.5,843.27 
  652.078,842.393 660.655,841.516 669.232,840.638 677.809,839.761 686.387,838.883 694.954,837.145 703.541,837.129 712.119,836.251 720.706,836.235 729.284,835.357 
  737.871,835.341 746.449,834.463 755.036,834.446 763.614,833.569 772.201,833.552 780.779,832.675 789.367,832.658 797.944,831.781 806.521,830.904 815.098,830.026 
  823.676,829.149 832.253,828.271 840.83,827.394 849.408,826.517 857.985,825.639 866.573,825.623 875.15,824.745 883.727,823.868 892.315,823.851 900.892,822.974 
  909.47,822.096 918.057,822.08 926.645,822.063 935.233,822.046 943.821,822.03 952.419,822.874 961.006,822.857 969.594,822.84 978.182,822.824 986.77,822.807 
  995.357,822.79 1003.95,822.774 1012.53,822.757 1021.12,822.74 1029.71,822.724 1038.3,822.707 1046.88,822.69 1055.47,822.673 1064.06,822.657 1072.65,822.64 
  1081.23,822.623 1089.82,822.607 1098.41,822.59 1107,822.573 1115.59,822.557 1124.17,822.54 1132.76,822.523 1141.35,822.507 1149.94,822.49 1158.52,822.473 
  1167.11,822.457 1175.7,822.44 1184.29,822.423 1192.87,822.407 1201.46,822.39 1210.05,822.373 1218.64,822.356 1227.23,822.34 1235.81,822.323 1244.4,822.306 
  1252.99,822.29 1261.58,822.273 1270.16,822.256 1278.75,822.24 1287.34,822.223 1295.93,822.206 1304.52,822.19 1313.1,822.173 1321.69,822.156 1330.29,823 
  1338.88,822.984 1347.47,823.828 1356.07,824.672 1364.67,825.516 1373.29,828.081 1381.91,830.646 1390.53,833.212 1399.15,835.777 1407.77,838.342 1416.38,840.908 
  1424.99,842.613 1433.63,846.899 1442.26,850.325 1450.9,854.612 1459.54,858.899 1468.18,863.186 1476.81,866.612 1485.44,870.038 1494.07,873.464 1502.7,876.89 
  1511.33,880.316 1519.96,883.742 1528.59,887.168 1537.22,890.594 1545.86,894.881 1554.47,897.446 1563.1,900.873 1571.73,904.299 1580.36,907.725 1588.99,911.151 
  1597.63,915.438 1606.26,918.864 1614.89,922.29 1623.51,924.855 1632.15,929.142 1640.77,931.707 1649.41,935.994 1658.04,939.42 1666.67,942.846 1675.3,946.272 
  1683.93,949.698 1692.56,953.985 1701.19,957.411 1709.82,960.837 1718.45,964.263 1727.09,968.55 1735.72,971.976 1744.35,975.402 1752.98,978.828 1761.62,983.115 
  1770.25,986.541 1778.88,989.967 1787.51,993.393 1796.14,996.819 1804.77,1000.25 1813.4,1003.67 1822.03,1007.1 1830.66,1010.52 1839.28,1013.95 1847.92,1018.24 
  1856.54,1020.8 1865.18,1025.09 1873.81,1028.51 1882.43,1031.08 1891.06,1034.51 1899.69,1037.93 1908.33,1042.22 1916.96,1045.65 1925.58,1048.21 1934.21,1051.64 
  1942.84,1055.06 1951.47,1058.49 1960.1,1061.91 1968.72,1065.34 1977.35,1068.77 1985.98,1072.19 1994.61,1075.62 2003.24,1079.05 2011.87,1082.47 2020.5,1085.9 
  2029.13,1089.32 2037.76,1092.75 2046.39,1096.18 2055.02,1099.6 2063.66,1103.89 2072.28,1106.45 2080.91,1109.88 2089.55,1114.17 2098.18,1117.59 2106.8,1121.02 
  2115.43,1124.44 2124.06,1127.87 2132.69,1131.3 2141.32,1134.72 2149.96,1139.01 2158.59,1142.44 2167.22,1145.86 2175.85,1149.29 2184.48,1152.71 2193.11,1156.14 
  2201.73,1158.71 2210.36,1162.13 2219,1166.42 2227.63,1169.84 2236.25,1173.27 2244.88,1176.7 2253.51,1180.12 2262.14,1183.55 2270.77,1186.97 2279.4,1190.4 
  2288.03,1193.83 
  "/>
<polyline clip-path="url(#clip702)" style="stroke:#c271d2; stroke-width:4; stroke-opacity:1; fill:none" points="
  699.574,686.512 708.161,686.495 716.749,686.479 725.337,686.462 733.904,684.724 742.481,683.847 751.048,682.108 759.625,681.231 768.213,681.214 776.801,681.198 
  785.388,681.181 793.976,681.164 802.564,681.148 811.151,681.131 819.739,681.114 828.327,681.098 836.915,681.081 845.502,681.064 854.09,681.048 862.678,681.031 
  871.266,681.014 879.853,680.998 888.441,680.981 897.018,680.103 905.596,679.226 914.162,677.488 922.74,676.611 931.328,676.594 939.905,675.717 948.493,675.7 
  957.08,675.683 965.668,675.666 974.256,675.65 982.843,675.633 991.431,675.616 1000.02,675.6 1008.61,675.583 1017.19,675.566 1025.78,675.55 1034.37,675.533 
  1042.96,675.516 1051.55,675.5 1060.13,675.483 1068.72,675.466 1077.31,675.45 1085.9,675.433 1094.48,675.416 1103.07,675.4 1111.66,675.383 1120.25,675.366 
  1128.83,675.349 1137.42,675.333 1146.01,675.316 1154.6,675.299 1163.19,675.283 1171.77,675.266 1180.36,675.249 1188.95,675.233 1197.54,675.216 1206.12,675.199 
  1214.71,675.183 1223.3,675.166 1231.9,676.01 1240.5,676.854 1249.08,676.837 1257.68,677.681 1266.28,678.525 1274.88,679.369 1283.48,680.213 1292.07,681.057 
  1300.67,681.901 1309.27,682.745 1317.87,683.589 1326.49,686.155 1335.12,689.581 1343.74,692.146 1352.37,695.572 1360.99,698.998 1369.61,701.564 1378.23,704.129 
  1386.85,706.694 1395.47,709.26 1404.12,714.407 1412.77,719.555 1421.42,724.702 1430.05,728.128 1438.67,730.694 1447.28,732.398 1455.9,734.964 1464.5,736.668 
  1473.12,739.234 1481.74,741.799 1490.37,745.225 1499,748.651 1507.64,752.938 1516.26,755.503 1524.9,759.79 1533.53,763.216 1542.16,766.642 1550.79,770.069 
  1559.42,773.495 1568.05,776.921 1576.69,781.207 1585.32,784.633 1593.94,788.06 1602.57,791.486 1611.2,794.912 1619.84,799.198 1628.47,802.625 1637.11,806.911 
  1645.74,810.337 1654.37,813.763 1663,817.19 1671.64,821.476 1680.27,824.902 1688.9,828.328 1697.53,831.755 1706.17,836.041 1714.8,839.467 1723.43,842.893 
  1732.06,846.32 1740.7,850.606 1749.33,854.032 1757.95,857.458 1766.59,861.745 1775.22,865.171 1783.85,868.597 1792.48,872.023 1801.11,875.45 1809.74,878.876 
  1818.37,882.302 1827,885.728 1835.63,889.154 1844.27,893.441 1852.89,896.006 1861.53,900.293 1870.16,903.719 1878.79,907.145 1887.42,910.571 1896.04,913.997 
  1904.67,917.423 1913.31,921.71 1921.93,924.275 1930.57,928.562 1939.19,931.127 1947.83,935.414 1956.46,938.84 1965.09,942.266 1973.73,946.553 1982.36,949.979 
  1990.99,953.405 1999.62,956.831 2008.24,959.397 2016.87,962.823 2025.48,965.388 2034.11,968.814 2042.75,973.101 2051.38,976.527 2060.01,979.953 2068.64,983.379 
  2077.27,986.805 2085.89,989.371 2094.52,992.797 2103.15,996.223 2111.79,1000.51 2120.42,1003.94 2129.05,1007.36 2137.7,1012.51 2146.35,1017.66 2154.97,1020.22 
  2163.6,1023.65 2172.21,1026.21 2180.83,1028.78 2189.46,1032.2 2198.09,1035.63 2206.72,1039.06 2215.36,1043.34 2223.99,1046.77 2232.62,1050.2 2241.26,1054.48 
  2249.91,1059.63 2258.56,1064.78 2267.2,1069.06 2275.82,1071.63 2284.45,1075.06 2293.06,1076.76 
  "/>
<polyline clip-path="url(#clip702)" style="stroke:#ac8d18; stroke-width:4; stroke-opacity:1; fill:none" points="
  757.877,536.635 766.465,536.618 775.042,535.741 783.63,535.724 792.218,535.708 800.805,535.691 809.372,533.953 817.949,533.076 826.537,533.059 835.115,532.182 
  843.702,532.165 852.269,530.427 860.836,528.689 869.413,527.811 877.991,526.934 886.568,526.057 895.145,525.179 903.733,525.162 912.31,524.285 920.888,523.408 
  929.465,522.53 938.021,519.932 946.588,518.194 955.166,517.316 963.743,516.439 972.331,516.422 980.908,515.545 989.496,515.528 998.073,514.651 1006.66,514.634 
  1015.24,513.757 1023.83,513.74 1032.4,512.863 1040.99,512.846 1049.57,511.968 1058.16,511.952 1066.73,511.074 1075.33,511.918 1083.94,513.623 1092.55,515.328 
  1101.16,517.033 1109.78,519.598 1118.38,521.303 1126.99,523.007 1135.58,522.991 1144.18,523.835 1152.78,524.679 1161.38,525.523 1169.97,526.367 1178.57,527.211 
  1187.17,528.055 1195.78,529.759 1204.38,530.603 1212.97,531.447 1221.57,532.291 1230.18,533.996 1238.79,535.701 1247.4,537.405 1256.01,539.11 1264.61,540.815 
  1273.21,541.659 1281.82,543.364 1290.43,545.068 1299.03,545.912 1307.64,547.617 1316.25,549.322 1324.85,551.026 1333.47,553.592 1342.09,556.157 1350.71,558.722 
  1359.33,561.288 1367.96,564.714 1376.6,569.001 1385.23,572.427 1393.87,576.714 1402.5,580.14 1411.14,584.426 1419.77,587.852 1428.41,592.139 1437.04,595.565 
  1445.66,598.991 1454.29,602.417 1462.93,606.704 1471.56,610.13 1480.2,614.417 1488.84,618.704 1497.48,622.991 1506.12,627.277 1514.76,631.564 1523.39,634.99 
  1532.03,639.277 1540.66,642.703 1549.29,646.129 1557.92,649.555 1566.57,654.703 1575.21,658.989 1583.86,664.137 1592.51,669.284 1601.14,672.71 1609.77,676.136 
  1618.4,679.563 1627.03,682.989 1635.66,686.415 1644.3,690.701 1652.92,694.128 1661.55,697.554 1670.18,700.98 1678.81,704.406 1687.44,707.832 1696.07,711.258 
  1704.7,714.684 1713.33,718.11 1721.97,722.397 1730.59,724.962 1739.23,729.249 1747.86,732.675 1756.49,736.101 1765.12,739.527 1773.75,742.953 1782.38,746.379 
  1791,749.805 1799.63,753.232 1808.26,756.658 1816.89,760.084 1825.52,763.51 1834.15,766.936 1842.78,770.362 1851.41,773.788 1860.04,777.214 1868.67,780.64 
  1877.17,784.934 1885.83,788.929 1894.48,792.013 1903.14,797.331 1911.81,799.525 1920.46,802.057 1929.08,805.483 1937.71,808.909 1946.34,812.335 1954.97,815.762 
  1963.6,819.188 1972.23,822.614 1980.86,826.04 1989.49,829.466 1998.12,832.892 2006.75,836.318 2015.39,840.605 2024.01,843.17 2032.65,847.457 2041.28,850.883 
  2049.91,854.309 2058.55,858.596 2067.17,862.022 2075.8,865.448 2084.43,868.874 2093.06,872.3 2101.69,875.726 2110.32,879.152 2118.95,882.578 2127.58,886.004 
  2136.21,889.431 2144.84,892.857 2153.48,897.143 2162.11,900.569 2170.74,903.996 2179.37,907.422 2188.01,911.708 2196.64,915.134 2205.26,918.56 2213.89,921.987 
  2222.52,925.413 2231.15,928.839 2239.77,931.404 2248.41,935.691 2257.04,939.117 2265.67,942.543 2274.3,945.969 2282.93,949.395 2291.08,913.23 
  "/>
<polyline clip-path="url(#clip702)" style="stroke:#00a9ad; stroke-width:4; stroke-opacity:1; fill:none" points="
  754.336,421.307 775.753,416.962 805.8,416.043 822.923,411.706 870.145,410.753 885.122,406.421 923.766,406.346 951.624,401.988 1000.97,399.31 1052.47,396.628 
  1144.79,396.448 1179.18,399.824 1211.43,404.065 1261.12,428.929 1304.27,446.92 1347.4,462.329 1375.56,482.932 1405.84,501.808 1438.36,527.567 1468.75,555.05 
  1494.65,566.189 1520.65,585.935 1553.08,604.808 1581.19,621.107 1611.44,636.541 1648.14,653.683 1686.96,668.24 1771.12,703.366 1807.82,719.648 1846.64,734.205 
  1891.91,749.609 1932.93,768.465 1993.33,791.587 2049.42,813.857 2105.51,836.126 2157.28,856.683 2215.53,879.809 2252.2,893.509 2288.84,905.487 
  "/>
<polyline clip-path="url(#clip702)" style="stroke:#ed5d92; stroke-width:4; stroke-opacity:1; fill:none" points="
  752.983,309.417 817.308,302.406 868.793,298.864 915.994,296.19 971.741,290.056 1025.38,287.37 1070.42,282.979 1115.5,282.891 1147.7,281.968 1182.12,287.926 
  1210.23,304.225 1227.65,324.848 1242.87,340.312 1262.42,359.209 1277.78,386.722 1288.77,407.358 1297.56,424.555 1308.55,445.191 1319.45,458.941 1339,477.838 
  1358.6,501.039 1371.67,516.507 1384.73,531.114 1408.56,549.142 1443.17,570.593 1482.08,592.035 1514.5,610.047 1549.05,626.333 1572.78,635.755 1587.88,641.751 
  1618.16,659.767 1663.43,675.171 1700.08,688.011 1728.13,699.146 1747.55,706.854 1784.17,717.112 1833.78,735.951 1930.76,766.748 1978.22,785.591 2034.32,807.861 
  2077.46,824.991 2120.61,842.122 2163.77,860.113 2206.9,876.383 2241.41,889.226 2288.84,905.487 
  "/>
<polyline clip-path="url(#clip702)" style="stroke:#c68125; stroke-width:4; stroke-opacity:1; fill:none" points="
  750.004,240.566 771.473,240.524 809.993,230.121 859.216,217.115 917.111,210.977 968.554,203.992 1007.14,198.752 1056.49,196.935 1084.65,217.537 1102.08,238.16 
  1117.38,260.509 1130.52,282.002 1139.31,298.338 1145.92,312.957 1148.13,318.117 1167.64,333.572 1191.53,355.904 1215.35,373.072 1237.04,391.105 1267.26,404.817 
  1275.88,407.383 1308.17,414.206 1340.59,432.218 1381.67,455.377 1409.94,485.447 1433.81,506.058 1451.19,523.238 1468.55,538.697 1485.93,555.017 1503.31,572.197 
  1529.3,591.082 1555.22,603.943 1581.14,616.803 1602.78,630.532 1617.92,639.971 1645.96,651.106 1674.02,663.101 1704.22,675.092 1747.38,693.083 1771.13,704.226 
  1799.19,716.222 1840.18,732.496 1876.81,743.614 1907.03,757.326 1935.09,769.322 1973.91,783.878 2017.06,801.009 2053.73,815.57 2086.09,828.417 2122.77,842.978 
  2161.6,858.396 2193.96,871.243 2224.16,883.235 2254.36,895.226 2288.85,906.348 
  "/>
<polyline clip-path="url(#clip702)" style="stroke:#00a98d; stroke-width:4; stroke-opacity:1; fill:none" points="
  747.576,217.332 771.161,214.704 803.25,205.173 828.92,197.377 856.736,189.577 882.406,181.78 910.202,172.259 942.312,164.45 976.632,161.801 1021.7,159.992 
  1064.63,159.909 1094.72,162.432 1109.92,176.174 1118.72,194.232 1125.34,208.851 1129.81,223.475 1134.34,242.401 1138.82,257.886 1143.33,275.952 1149.88,285.407 
  1162.97,302.596 1173.91,318.928 1191.29,336.108 1210.87,357.588 1228.17,367.883 1243.34,379.043 1258.58,397.088 1269.42,405.674 1293.22,420.26 1304.05,428.846 
  1345.07,447.702 1358.07,457.144 1373.26,470.026 1392.8,488.062 1410.17,504.382 1438.36,527.567 1475.19,555.038 1492.49,565.333 1514.17,582.505 1544.43,599.66 
  1579.01,618.529 1611.43,635.68 1645.96,651.106 1674.02,663.101 1710.68,676.801 1743.05,690.51 1775.44,705.079 1812.13,721.361 1842.33,733.352 1881.12,745.327 
  1928.62,766.752 1980.38,786.448 2021.37,802.722 2062.36,818.996 2099.04,833.557 2140.01,848.97 2178.86,865.248 2213.37,878.952 2243.57,890.083 2288.84,905.487 
  
  "/>
<path clip-path="url(#clip700)" d="
M1908.19 831.666 L2282.44 831.666 L2282.44 166.386 L1908.19 166.386  Z
  " fill="#ffffff" fill-rule="evenodd" fill-opacity="1"/>
<polyline clip-path="url(#clip700)" style="stroke:#000000; stroke-width:4; stroke-opacity:1; fill:none" points="
  1908.19,831.666 2282.44,831.666 2282.44,166.386 1908.19,166.386 1908.19,831.666 
  "/>
<path clip-path="url(#clip700)" d="M 0 0 M2069.02 209.586 L2075.99 209.586 L2084.81 233.105 L2093.67 209.586 L2100.64 209.586 L2100.64 244.146 L2096.08 244.146 L2096.08 213.799 L2087.17 237.503 L2082.47 237.503 L2073.56 213.799 L2073.56 244.146 L2069.02 244.146 L2069.02 209.586 Z" fill="#000000" fill-rule="evenodd" fill-opacity="1" /><path clip-path="url(#clip700)" d="M 0 0 M2118.23 208.128 L2118.23 211.67 L2114.16 211.67 Q2111.87 211.67 2110.96 212.596 Q2110.09 213.521 2110.09 215.929 L2110.09 218.22 L2117.1 218.22 L2117.1 221.531 L2110.09 221.531 L2110.09 244.146 L2105.8 244.146 L2105.8 221.531 L2101.73 221.531 L2101.73 218.22 L2105.8 218.22 L2105.8 216.415 Q2105.8 212.086 2107.82 210.119 Q2109.83 208.128 2114.21 208.128 L2118.23 208.128 Z" fill="#000000" fill-rule="evenodd" fill-opacity="1" /><polyline clip-path="url(#clip700)" style="stroke:#009af9; stroke-width:4; stroke-opacity:1; fill:none" points="
  1931.62,287.346 2072.25,287.346 
  "/>
<path clip-path="url(#clip700)" d="M 0 0 M2107.63 273.145 Q2104.02 273.145 2102.19 276.71 Q2100.38 280.251 2100.38 287.381 Q2100.38 294.487 2102.19 298.052 Q2104.02 301.594 2107.63 301.594 Q2111.26 301.594 2113.07 298.052 Q2114.9 294.487 2114.9 287.381 Q2114.9 280.251 2113.07 276.71 Q2111.26 273.145 2107.63 273.145 M2107.63 269.441 Q2113.44 269.441 2116.5 274.048 Q2119.57 278.631 2119.57 287.381 Q2119.57 296.108 2116.5 300.714 Q2113.44 305.298 2107.63 305.298 Q2101.82 305.298 2098.74 300.714 Q2095.69 296.108 2095.69 287.381 Q2095.69 278.631 2098.74 274.048 Q2101.82 269.441 2107.63 269.441 Z" fill="#000000" fill-rule="evenodd" fill-opacity="1" /><path clip-path="url(#clip700)" d="M 0 0 M2124.64 298.747 L2129.53 298.747 L2129.53 304.626 L2124.64 304.626 L2124.64 298.747 Z" fill="#000000" fill-rule="evenodd" fill-opacity="1" /><path clip-path="url(#clip700)" d="M 0 0 M2144.6 273.145 Q2140.99 273.145 2139.16 276.71 Q2137.35 280.251 2137.35 287.381 Q2137.35 294.487 2139.16 298.052 Q2140.99 301.594 2144.6 301.594 Q2148.23 301.594 2150.04 298.052 Q2151.87 294.487 2151.87 287.381 Q2151.87 280.251 2150.04 276.71 Q2148.23 273.145 2144.6 273.145 M2144.6 269.441 Q2150.41 269.441 2153.46 274.048 Q2156.54 278.631 2156.54 287.381 Q2156.54 296.108 2153.46 300.714 Q2150.41 305.298 2144.6 305.298 Q2138.79 305.298 2135.71 300.714 Q2132.65 296.108 2132.65 287.381 Q2132.65 278.631 2135.71 274.048 Q2138.79 269.441 2144.6 269.441 Z" fill="#000000" fill-rule="evenodd" fill-opacity="1" /><path clip-path="url(#clip700)" d="M 0 0 M2175.78 285.992 Q2179.13 286.71 2181.01 288.978 Q2182.91 291.247 2182.91 294.58 Q2182.91 299.696 2179.39 302.497 Q2175.87 305.298 2169.39 305.298 Q2167.21 305.298 2164.9 304.858 Q2162.61 304.441 2160.15 303.585 L2160.15 299.071 Q2162.1 300.205 2164.41 300.784 Q2166.73 301.362 2169.25 301.362 Q2173.65 301.362 2175.94 299.626 Q2178.25 297.89 2178.25 294.58 Q2178.25 291.524 2176.1 289.812 Q2173.97 288.075 2170.15 288.075 L2166.12 288.075 L2166.12 284.233 L2170.34 284.233 Q2173.79 284.233 2175.62 282.867 Q2177.44 281.478 2177.44 278.886 Q2177.44 276.224 2175.55 274.812 Q2173.67 273.376 2170.15 273.376 Q2168.23 273.376 2166.03 273.793 Q2163.83 274.21 2161.19 275.089 L2161.19 270.923 Q2163.86 270.182 2166.17 269.812 Q2168.51 269.441 2170.57 269.441 Q2175.89 269.441 2178.99 271.872 Q2182.1 274.279 2182.1 278.4 Q2182.1 281.27 2180.45 283.261 Q2178.81 285.228 2175.78 285.992 Z" fill="#000000" fill-rule="evenodd" fill-opacity="1" /><path clip-path="url(#clip700)" d="M 0 0 M2186.8 270.066 L2209.02 270.066 L2209.02 272.057 L2196.47 304.626 L2191.59 304.626 L2203.39 274.001 L2186.8 274.001 L2186.8 270.066 Z" fill="#000000" fill-rule="evenodd" fill-opacity="1" /><polyline clip-path="url(#clip700)" style="stroke:#e26f46; stroke-width:4; stroke-opacity:1; fill:none" points="
  1931.62,347.826 2072.25,347.826 
  "/>
<path clip-path="url(#clip700)" d="M 0 0 M2107.63 333.625 Q2104.02 333.625 2102.19 337.19 Q2100.38 340.731 2100.38 347.861 Q2100.38 354.967 2102.19 358.532 Q2104.02 362.074 2107.63 362.074 Q2111.26 362.074 2113.07 358.532 Q2114.9 354.967 2114.9 347.861 Q2114.9 340.731 2113.07 337.19 Q2111.26 333.625 2107.63 333.625 M2107.63 329.921 Q2113.44 329.921 2116.5 334.528 Q2119.57 339.111 2119.57 347.861 Q2119.57 356.588 2116.5 361.194 Q2113.44 365.778 2107.63 365.778 Q2101.82 365.778 2098.74 361.194 Q2095.69 356.588 2095.69 347.861 Q2095.69 339.111 2098.74 334.528 Q2101.82 329.921 2107.63 329.921 Z" fill="#000000" fill-rule="evenodd" fill-opacity="1" /><path clip-path="url(#clip700)" d="M 0 0 M2124.64 359.227 L2129.53 359.227 L2129.53 365.106 L2124.64 365.106 L2124.64 359.227 Z" fill="#000000" fill-rule="evenodd" fill-opacity="1" /><path clip-path="url(#clip700)" d="M 0 0 M2144.6 333.625 Q2140.99 333.625 2139.16 337.19 Q2137.35 340.731 2137.35 347.861 Q2137.35 354.967 2139.16 358.532 Q2140.99 362.074 2144.6 362.074 Q2148.23 362.074 2150.04 358.532 Q2151.87 354.967 2151.87 347.861 Q2151.87 340.731 2150.04 337.19 Q2148.23 333.625 2144.6 333.625 M2144.6 329.921 Q2150.41 329.921 2153.46 334.528 Q2156.54 339.111 2156.54 347.861 Q2156.54 356.588 2153.46 361.194 Q2150.41 365.778 2144.6 365.778 Q2138.79 365.778 2135.71 361.194 Q2132.65 356.588 2132.65 347.861 Q2132.65 339.111 2135.71 334.528 Q2138.79 329.921 2144.6 329.921 Z" fill="#000000" fill-rule="evenodd" fill-opacity="1" /><path clip-path="url(#clip700)" d="M 0 0 M2160.43 330.546 L2182.65 330.546 L2182.65 332.537 L2170.11 365.106 L2165.22 365.106 L2177.03 334.481 L2160.43 334.481 L2160.43 330.546 Z" fill="#000000" fill-rule="evenodd" fill-opacity="1" /><path clip-path="url(#clip700)" d="M 0 0 M2200.57 334.62 L2188.76 353.069 L2200.57 353.069 L2200.57 334.62 M2199.34 330.546 L2205.22 330.546 L2205.22 353.069 L2210.15 353.069 L2210.15 356.958 L2205.22 356.958 L2205.22 365.106 L2200.57 365.106 L2200.57 356.958 L2184.97 356.958 L2184.97 352.444 L2199.34 330.546 Z" fill="#000000" fill-rule="evenodd" fill-opacity="1" /><path clip-path="url(#clip700)" d="M 0 0 M2219.25 361.171 L2235.57 361.171 L2235.57 365.106 L2213.62 365.106 L2213.62 361.171 Q2216.29 358.416 2220.87 353.787 Q2225.48 349.134 2226.66 347.792 Q2228.9 345.268 2229.78 343.532 Q2230.68 341.773 2230.68 340.083 Q2230.68 337.329 2228.74 335.593 Q2226.82 333.856 2223.72 333.856 Q2221.52 333.856 2219.06 334.62 Q2216.63 335.384 2213.86 336.935 L2213.86 332.213 Q2216.68 331.079 2219.13 330.5 Q2221.59 329.921 2223.62 329.921 Q2228.99 329.921 2232.19 332.606 Q2235.38 335.292 2235.38 339.782 Q2235.38 341.912 2234.57 343.833 Q2233.79 345.731 2231.68 348.324 Q2231.1 348.995 2228 352.213 Q2224.9 355.407 2219.25 361.171 Z" fill="#000000" fill-rule="evenodd" fill-opacity="1" /><polyline clip-path="url(#clip700)" style="stroke:#3da44d; stroke-width:4; stroke-opacity:1; fill:none" points="
  1931.62,408.306 2072.25,408.306 
  "/>
<path clip-path="url(#clip700)" d="M 0 0 M2107.63 394.105 Q2104.02 394.105 2102.19 397.67 Q2100.38 401.211 2100.38 408.341 Q2100.38 415.447 2102.19 419.012 Q2104.02 422.554 2107.63 422.554 Q2111.26 422.554 2113.07 419.012 Q2114.9 415.447 2114.9 408.341 Q2114.9 401.211 2113.07 397.67 Q2111.26 394.105 2107.63 394.105 M2107.63 390.401 Q2113.44 390.401 2116.5 395.008 Q2119.57 399.591 2119.57 408.341 Q2119.57 417.068 2116.5 421.674 Q2113.44 426.258 2107.63 426.258 Q2101.82 426.258 2098.74 421.674 Q2095.69 417.068 2095.69 408.341 Q2095.69 399.591 2098.74 395.008 Q2101.82 390.401 2107.63 390.401 Z" fill="#000000" fill-rule="evenodd" fill-opacity="1" /><path clip-path="url(#clip700)" d="M 0 0 M2124.64 419.707 L2129.53 419.707 L2129.53 425.586 L2124.64 425.586 L2124.64 419.707 Z" fill="#000000" fill-rule="evenodd" fill-opacity="1" /><path clip-path="url(#clip700)" d="M 0 0 M2135.41 421.651 L2143.05 421.651 L2143.05 395.286 L2134.74 396.952 L2134.74 392.693 L2143 391.026 L2147.68 391.026 L2147.68 421.651 L2155.31 421.651 L2155.31 425.586 L2135.41 425.586 L2135.41 421.651 Z" fill="#000000" fill-rule="evenodd" fill-opacity="1" /><path clip-path="url(#clip700)" d="M 0 0 M2164.41 421.651 L2180.73 421.651 L2180.73 425.586 L2158.79 425.586 L2158.79 421.651 Q2161.45 418.896 2166.03 414.267 Q2170.64 409.614 2171.82 408.272 Q2174.06 405.748 2174.94 404.012 Q2175.85 402.253 2175.85 400.563 Q2175.85 397.809 2173.9 396.073 Q2171.98 394.336 2168.88 394.336 Q2166.68 394.336 2164.23 395.1 Q2161.8 395.864 2159.02 397.415 L2159.02 392.693 Q2161.84 391.559 2164.3 390.98 Q2166.75 390.401 2168.79 390.401 Q2174.16 390.401 2177.35 393.086 Q2180.55 395.772 2180.55 400.262 Q2180.55 402.392 2179.74 404.313 Q2178.95 406.211 2176.84 408.804 Q2176.26 409.475 2173.16 412.693 Q2170.06 415.887 2164.41 421.651 Z" fill="#000000" fill-rule="evenodd" fill-opacity="1" /><path clip-path="url(#clip700)" d="M 0 0 M2185.85 391.026 L2204.2 391.026 L2204.2 394.961 L2190.13 394.961 L2190.13 403.434 Q2191.15 403.086 2192.17 402.924 Q2193.18 402.739 2194.2 402.739 Q2199.99 402.739 2203.37 405.91 Q2206.75 409.082 2206.75 414.498 Q2206.75 420.077 2203.28 423.179 Q2199.8 426.258 2193.49 426.258 Q2191.31 426.258 2189.04 425.887 Q2186.8 425.517 2184.39 424.776 L2184.39 420.077 Q2186.47 421.211 2188.69 421.767 Q2190.92 422.322 2193.39 422.322 Q2197.4 422.322 2199.74 420.216 Q2202.07 418.109 2202.07 414.498 Q2202.07 410.887 2199.74 408.781 Q2197.4 406.674 2193.39 406.674 Q2191.52 406.674 2189.64 407.091 Q2187.79 407.508 2185.85 408.387 L2185.85 391.026 Z" fill="#000000" fill-rule="evenodd" fill-opacity="1" /><polyline clip-path="url(#clip700)" style="stroke:#c271d2; stroke-width:4; stroke-opacity:1; fill:none" points="
  1931.62,468.786 2072.25,468.786 
  "/>
<path clip-path="url(#clip700)" d="M 0 0 M2107.63 454.585 Q2104.02 454.585 2102.19 458.15 Q2100.38 461.691 2100.38 468.821 Q2100.38 475.927 2102.19 479.492 Q2104.02 483.034 2107.63 483.034 Q2111.26 483.034 2113.07 479.492 Q2114.9 475.927 2114.9 468.821 Q2114.9 461.691 2113.07 458.15 Q2111.26 454.585 2107.63 454.585 M2107.63 450.881 Q2113.44 450.881 2116.5 455.488 Q2119.57 460.071 2119.57 468.821 Q2119.57 477.548 2116.5 482.154 Q2113.44 486.738 2107.63 486.738 Q2101.82 486.738 2098.74 482.154 Q2095.69 477.548 2095.69 468.821 Q2095.69 460.071 2098.74 455.488 Q2101.82 450.881 2107.63 450.881 Z" fill="#000000" fill-rule="evenodd" fill-opacity="1" /><path clip-path="url(#clip700)" d="M 0 0 M2124.64 480.187 L2129.53 480.187 L2129.53 486.066 L2124.64 486.066 L2124.64 480.187 Z" fill="#000000" fill-rule="evenodd" fill-opacity="1" /><path clip-path="url(#clip700)" d="M 0 0 M2138.62 482.131 L2154.94 482.131 L2154.94 486.066 L2133 486.066 L2133 482.131 Q2135.66 479.376 2140.25 474.747 Q2144.85 470.094 2146.03 468.752 Q2148.28 466.228 2149.16 464.492 Q2150.06 462.733 2150.06 461.043 Q2150.06 458.289 2148.12 456.553 Q2146.19 454.816 2143.09 454.816 Q2140.89 454.816 2138.44 455.58 Q2136.01 456.344 2133.23 457.895 L2133.23 453.173 Q2136.06 452.039 2138.51 451.46 Q2140.96 450.881 2143 450.881 Q2148.37 450.881 2151.56 453.566 Q2154.76 456.252 2154.76 460.742 Q2154.76 462.872 2153.95 464.793 Q2153.16 466.691 2151.06 469.284 Q2150.48 469.955 2147.37 473.173 Q2144.27 476.367 2138.62 482.131 Z" fill="#000000" fill-rule="evenodd" fill-opacity="1" /><path clip-path="url(#clip700)" d="M 0 0 M2160.06 451.506 L2178.42 451.506 L2178.42 455.441 L2164.34 455.441 L2164.34 463.914 Q2165.36 463.566 2166.38 463.404 Q2167.4 463.219 2168.42 463.219 Q2174.2 463.219 2177.58 466.39 Q2180.96 469.562 2180.96 474.978 Q2180.96 480.557 2177.49 483.659 Q2174.02 486.738 2167.7 486.738 Q2165.52 486.738 2163.25 486.367 Q2161.01 485.997 2158.6 485.256 L2158.6 480.557 Q2160.68 481.691 2162.91 482.247 Q2165.13 482.802 2167.61 482.802 Q2171.61 482.802 2173.95 480.696 Q2176.29 478.589 2176.29 474.978 Q2176.29 471.367 2173.95 469.261 Q2171.61 467.154 2167.61 467.154 Q2165.73 467.154 2163.86 467.571 Q2162 467.988 2160.06 468.867 L2160.06 451.506 Z" fill="#000000" fill-rule="evenodd" fill-opacity="1" /><polyline clip-path="url(#clip700)" style="stroke:#ac8d18; stroke-width:4; stroke-opacity:1; fill:none" points="
  1931.62,529.266 2072.25,529.266 
  "/>
<path clip-path="url(#clip700)" d="M 0 0 M2107.63 515.065 Q2104.02 515.065 2102.19 518.63 Q2100.38 522.171 2100.38 529.301 Q2100.38 536.407 2102.19 539.972 Q2104.02 543.514 2107.63 543.514 Q2111.26 543.514 2113.07 539.972 Q2114.9 536.407 2114.9 529.301 Q2114.9 522.171 2113.07 518.63 Q2111.26 515.065 2107.63 515.065 M2107.63 511.361 Q2113.44 511.361 2116.5 515.968 Q2119.57 520.551 2119.57 529.301 Q2119.57 538.028 2116.5 542.634 Q2113.44 547.218 2107.63 547.218 Q2101.82 547.218 2098.74 542.634 Q2095.69 538.028 2095.69 529.301 Q2095.69 520.551 2098.74 515.968 Q2101.82 511.361 2107.63 511.361 Z" fill="#000000" fill-rule="evenodd" fill-opacity="1" /><path clip-path="url(#clip700)" d="M 0 0 M2124.64 540.667 L2129.53 540.667 L2129.53 546.546 L2124.64 546.546 L2124.64 540.667 Z" fill="#000000" fill-rule="evenodd" fill-opacity="1" /><path clip-path="url(#clip700)" d="M 0 0 M2134.64 511.986 L2153 511.986 L2153 515.921 L2138.93 515.921 L2138.93 524.394 Q2139.94 524.046 2140.96 523.884 Q2141.98 523.699 2143 523.699 Q2148.79 523.699 2152.17 526.87 Q2155.55 530.042 2155.55 535.458 Q2155.55 541.037 2152.07 544.139 Q2148.6 547.218 2142.28 547.218 Q2140.11 547.218 2137.84 546.847 Q2135.59 546.477 2133.18 545.736 L2133.18 541.037 Q2135.27 542.171 2137.49 542.727 Q2139.71 543.282 2142.19 543.282 Q2146.19 543.282 2148.53 541.176 Q2150.87 539.069 2150.87 535.458 Q2150.87 531.847 2148.53 529.741 Q2146.19 527.634 2142.19 527.634 Q2140.31 527.634 2138.44 528.051 Q2136.59 528.468 2134.64 529.347 L2134.64 511.986 Z" fill="#000000" fill-rule="evenodd" fill-opacity="1" /><polyline clip-path="url(#clip700)" style="stroke:#00a9ad; stroke-width:4; stroke-opacity:1; fill:none" points="
  1931.62,589.746 2072.25,589.746 
  "/>
<path clip-path="url(#clip700)" d="M 0 0 M2096.36 603.091 L2104 603.091 L2104 576.726 L2095.69 578.392 L2095.69 574.133 L2103.95 572.466 L2108.62 572.466 L2108.62 603.091 L2116.26 603.091 L2116.26 607.026 L2096.36 607.026 L2096.36 603.091 Z" fill="#000000" fill-rule="evenodd" fill-opacity="1" /><path clip-path="url(#clip700)" d="M 0 0 M2121.33 601.147 L2126.22 601.147 L2126.22 607.026 L2121.33 607.026 L2121.33 601.147 Z" fill="#000000" fill-rule="evenodd" fill-opacity="1" /><path clip-path="url(#clip700)" d="M 0 0 M2141.29 575.545 Q2137.68 575.545 2135.85 579.11 Q2134.04 582.651 2134.04 589.781 Q2134.04 596.887 2135.85 600.452 Q2137.68 603.994 2141.29 603.994 Q2144.92 603.994 2146.73 600.452 Q2148.56 596.887 2148.56 589.781 Q2148.56 582.651 2146.73 579.11 Q2144.92 575.545 2141.29 575.545 M2141.29 571.841 Q2147.1 571.841 2150.15 576.448 Q2153.23 581.031 2153.23 589.781 Q2153.23 598.508 2150.15 603.114 Q2147.1 607.698 2141.29 607.698 Q2135.48 607.698 2132.4 603.114 Q2129.34 598.508 2129.34 589.781 Q2129.34 581.031 2132.4 576.448 Q2135.48 571.841 2141.29 571.841 Z" fill="#000000" fill-rule="evenodd" fill-opacity="1" /><polyline clip-path="url(#clip700)" style="stroke:#ed5d92; stroke-width:4; stroke-opacity:1; fill:none" points="
  1931.62,650.226 2072.25,650.226 
  "/>
<path clip-path="url(#clip700)" d="M 0 0 M2101.31 663.571 L2117.63 663.571 L2117.63 667.506 L2095.69 667.506 L2095.69 663.571 Q2098.35 660.816 2102.93 656.187 Q2107.54 651.534 2108.72 650.192 Q2110.96 647.668 2111.84 645.932 Q2112.75 644.173 2112.75 642.483 Q2112.75 639.729 2110.8 637.993 Q2108.88 636.256 2105.78 636.256 Q2103.58 636.256 2101.12 637.02 Q2098.69 637.784 2095.92 639.335 L2095.92 634.613 Q2098.74 633.479 2101.19 632.9 Q2103.65 632.321 2105.69 632.321 Q2111.06 632.321 2114.25 635.006 Q2117.44 637.692 2117.44 642.182 Q2117.44 644.312 2116.63 646.233 Q2115.85 648.131 2113.74 650.724 Q2113.16 651.395 2110.06 654.613 Q2106.96 657.807 2101.31 663.571 Z" fill="#000000" fill-rule="evenodd" fill-opacity="1" /><path clip-path="url(#clip700)" d="M 0 0 M2122.7 661.627 L2127.58 661.627 L2127.58 667.506 L2122.7 667.506 L2122.7 661.627 Z" fill="#000000" fill-rule="evenodd" fill-opacity="1" /><path clip-path="url(#clip700)" d="M 0 0 M2142.65 636.025 Q2139.04 636.025 2137.21 639.59 Q2135.41 643.131 2135.41 650.261 Q2135.41 657.367 2137.21 660.932 Q2139.04 664.474 2142.65 664.474 Q2146.29 664.474 2148.09 660.932 Q2149.92 657.367 2149.92 650.261 Q2149.92 643.131 2148.09 639.59 Q2146.29 636.025 2142.65 636.025 M2142.65 632.321 Q2148.46 632.321 2151.52 636.928 Q2154.6 641.511 2154.6 650.261 Q2154.6 658.988 2151.52 663.594 Q2148.46 668.178 2142.65 668.178 Q2136.84 668.178 2133.76 663.594 Q2130.71 658.988 2130.71 650.261 Q2130.71 641.511 2133.76 636.928 Q2136.84 632.321 2142.65 632.321 Z" fill="#000000" fill-rule="evenodd" fill-opacity="1" /><polyline clip-path="url(#clip700)" style="stroke:#c68125; stroke-width:4; stroke-opacity:1; fill:none" points="
  1931.62,710.706 2072.25,710.706 
  "/>
<path clip-path="url(#clip700)" d="M 0 0 M2111.29 697.5 L2099.48 715.949 L2111.29 715.949 L2111.29 697.5 M2110.06 693.426 L2115.94 693.426 L2115.94 715.949 L2120.87 715.949 L2120.87 719.838 L2115.94 719.838 L2115.94 727.986 L2111.29 727.986 L2111.29 719.838 L2095.69 719.838 L2095.69 715.324 L2110.06 693.426 Z" fill="#000000" fill-rule="evenodd" fill-opacity="1" /><path clip-path="url(#clip700)" d="M 0 0 M2125.94 722.107 L2130.82 722.107 L2130.82 727.986 L2125.94 727.986 L2125.94 722.107 Z" fill="#000000" fill-rule="evenodd" fill-opacity="1" /><path clip-path="url(#clip700)" d="M 0 0 M2145.89 696.505 Q2142.28 696.505 2140.45 700.07 Q2138.65 703.611 2138.65 710.741 Q2138.65 717.847 2140.45 721.412 Q2142.28 724.954 2145.89 724.954 Q2149.53 724.954 2151.33 721.412 Q2153.16 717.847 2153.16 710.741 Q2153.16 703.611 2151.33 700.07 Q2149.53 696.505 2145.89 696.505 M2145.89 692.801 Q2151.7 692.801 2154.76 697.408 Q2157.84 701.991 2157.84 710.741 Q2157.84 719.468 2154.76 724.074 Q2151.7 728.658 2145.89 728.658 Q2140.08 728.658 2137 724.074 Q2133.95 719.468 2133.95 710.741 Q2133.95 701.991 2137 697.408 Q2140.08 692.801 2145.89 692.801 Z" fill="#000000" fill-rule="evenodd" fill-opacity="1" /><polyline clip-path="url(#clip700)" style="stroke:#00a98d; stroke-width:4; stroke-opacity:1; fill:none" points="
  1931.62,771.186 2072.25,771.186 
  "/>
<path clip-path="url(#clip700)" d="M 0 0 M2097.14 753.906 L2115.5 753.906 L2115.5 757.841 L2101.43 757.841 L2101.43 766.314 Q2102.44 765.966 2103.46 765.804 Q2104.48 765.619 2105.5 765.619 Q2111.29 765.619 2114.67 768.79 Q2118.05 771.962 2118.05 777.378 Q2118.05 782.957 2114.57 786.059 Q2111.1 789.138 2104.78 789.138 Q2102.61 789.138 2100.34 788.767 Q2098.09 788.397 2095.69 787.656 L2095.69 782.957 Q2097.77 784.091 2099.99 784.647 Q2102.21 785.202 2104.69 785.202 Q2108.69 785.202 2111.03 783.096 Q2113.37 780.989 2113.37 777.378 Q2113.37 773.767 2111.03 771.661 Q2108.69 769.554 2104.69 769.554 Q2102.81 769.554 2100.94 769.971 Q2099.09 770.388 2097.14 771.267 L2097.14 753.906 Z" fill="#000000" fill-rule="evenodd" fill-opacity="1" /><path clip-path="url(#clip700)" d="M 0 0 M2123.12 782.587 L2128 782.587 L2128 788.466 L2123.12 788.466 L2123.12 782.587 Z" fill="#000000" fill-rule="evenodd" fill-opacity="1" /><path clip-path="url(#clip700)" d="M 0 0 M2137.1 784.531 L2153.42 784.531 L2153.42 788.466 L2131.47 788.466 L2131.47 784.531 Q2134.13 781.776 2138.72 777.147 Q2143.32 772.494 2144.5 771.152 Q2146.75 768.628 2147.63 766.892 Q2148.53 765.133 2148.53 763.443 Q2148.53 760.689 2146.59 758.953 Q2144.67 757.216 2141.56 757.216 Q2139.37 757.216 2136.91 757.98 Q2134.48 758.744 2131.7 760.295 L2131.7 755.573 Q2134.53 754.439 2136.98 753.86 Q2139.43 753.281 2141.47 753.281 Q2146.84 753.281 2150.04 755.966 Q2153.23 758.652 2153.23 763.142 Q2153.23 765.272 2152.42 767.193 Q2151.63 769.091 2149.53 771.684 Q2148.95 772.355 2145.85 775.573 Q2142.75 778.767 2137.1 784.531 Z" fill="#000000" fill-rule="evenodd" fill-opacity="1" /></svg>
