<?xml version="1.0" encoding="utf-8"?>
<svg xmlns="http://www.w3.org/2000/svg" xmlns:xlink="http://www.w3.org/1999/xlink" width="600" height="400" viewBox="0 0 2400 1600">
<defs>
  <clipPath id="clip200">
    <rect x="0" y="0" width="2400" height="1600"/>
  </clipPath>
</defs>
<path clip-path="url(#clip200)" d="
M0 1600 L2400 1600 L2400 0 L0 0  Z
  " fill="#ffffff" fill-rule="evenodd" fill-opacity="1"/>
<defs>
  <clipPath id="clip201">
    <rect x="480" y="0" width="1681" height="1600"/>
  </clipPath>
</defs>
<path clip-path="url(#clip200)" d="
M219.866 1423.18 L2352.76 1423.18 L2352.76 47.2441 L219.866 47.2441  Z
  " fill="#ffffff" fill-rule="evenodd" fill-opacity="1"/>
<defs>
  <clipPath id="clip202">
    <rect x="219" y="47" width="2134" height="1377"/>
  </clipPath>
</defs>
<polyline clip-path="url(#clip202)" style="stroke:#000000; stroke-linecap:butt; stroke-linejoin:round; stroke-width:2; stroke-opacity:0.1; fill:none" points="
  273.501,1423.18 273.501,47.2441 
  "/>
<polyline clip-path="url(#clip202)" style="stroke:#000000; stroke-linecap:butt; stroke-linejoin:round; stroke-width:2; stroke-opacity:0.1; fill:none" points="
  946.465,1423.18 946.465,47.2441 
  "/>
<polyline clip-path="url(#clip202)" style="stroke:#000000; stroke-linecap:butt; stroke-linejoin:round; stroke-width:2; stroke-opacity:0.1; fill:none" points="
  1619.43,1423.18 1619.43,47.2441 
  "/>
<polyline clip-path="url(#clip202)" style="stroke:#000000; stroke-linecap:butt; stroke-linejoin:round; stroke-width:2; stroke-opacity:0.1; fill:none" points="
  2292.39,1423.18 2292.39,47.2441 
  "/>
<polyline clip-path="url(#clip200)" style="stroke:#000000; stroke-linecap:butt; stroke-linejoin:round; stroke-width:4; stroke-opacity:1; fill:none" points="
  219.866,1423.18 2352.76,1423.18 
  "/>
<polyline clip-path="url(#clip200)" style="stroke:#000000; stroke-linecap:butt; stroke-linejoin:round; stroke-width:4; stroke-opacity:1; fill:none" points="
  273.501,1423.18 273.501,1404.28 
  "/>
<polyline clip-path="url(#clip200)" style="stroke:#000000; stroke-linecap:butt; stroke-linejoin:round; stroke-width:4; stroke-opacity:1; fill:none" points="
  946.465,1423.18 946.465,1404.28 
  "/>
<polyline clip-path="url(#clip200)" style="stroke:#000000; stroke-linecap:butt; stroke-linejoin:round; stroke-width:4; stroke-opacity:1; fill:none" points="
  1619.43,1423.18 1619.43,1404.28 
  "/>
<polyline clip-path="url(#clip200)" style="stroke:#000000; stroke-linecap:butt; stroke-linejoin:round; stroke-width:4; stroke-opacity:1; fill:none" points="
  2292.39,1423.18 2292.39,1404.28 
  "/>
<path clip-path="url(#clip200)" d="M273.501 1454.1 Q269.89 1454.1 268.062 1457.66 Q266.256 1461.2 266.256 1468.33 Q266.256 1475.44 268.062 1479.01 Q269.89 1482.55 273.501 1482.55 Q277.136 1482.55 278.941 1479.01 Q280.77 1475.44 280.77 1468.33 Q280.77 1461.2 278.941 1457.66 Q277.136 1454.1 273.501 1454.1 M273.501 1450.39 Q279.312 1450.39 282.367 1455 Q285.446 1459.58 285.446 1468.33 Q285.446 1477.06 282.367 1481.67 Q279.312 1486.25 273.501 1486.25 Q267.691 1486.25 264.613 1481.67 Q261.557 1477.06 261.557 1468.33 Q261.557 1459.58 264.613 1455 Q267.691 1450.39 273.501 1450.39 Z" fill="#000000" fill-rule="evenodd" fill-opacity="1" /><path clip-path="url(#clip200)" d="M906.071 1481.64 L913.71 1481.64 L913.71 1455.28 L905.4 1456.95 L905.4 1452.69 L913.664 1451.02 L918.34 1451.02 L918.34 1481.64 L925.979 1481.64 L925.979 1485.58 L906.071 1485.58 L906.071 1481.64 Z" fill="#000000" fill-rule="evenodd" fill-opacity="1" /><path clip-path="url(#clip200)" d="M945.423 1454.1 Q941.812 1454.1 939.983 1457.66 Q938.178 1461.2 938.178 1468.33 Q938.178 1475.44 939.983 1479.01 Q941.812 1482.55 945.423 1482.55 Q949.057 1482.55 950.863 1479.01 Q952.691 1475.44 952.691 1468.33 Q952.691 1461.2 950.863 1457.66 Q949.057 1454.1 945.423 1454.1 M945.423 1450.39 Q951.233 1450.39 954.289 1455 Q957.367 1459.58 957.367 1468.33 Q957.367 1477.06 954.289 1481.67 Q951.233 1486.25 945.423 1486.25 Q939.613 1486.25 936.534 1481.67 Q933.479 1477.06 933.479 1468.33 Q933.479 1459.58 936.534 1455 Q939.613 1450.39 945.423 1450.39 Z" fill="#000000" fill-rule="evenodd" fill-opacity="1" /><path clip-path="url(#clip200)" d="M975.585 1454.1 Q971.974 1454.1 970.145 1457.66 Q968.34 1461.2 968.34 1468.33 Q968.34 1475.44 970.145 1479.01 Q971.974 1482.55 975.585 1482.55 Q979.219 1482.55 981.025 1479.01 Q982.853 1475.44 982.853 1468.33 Q982.853 1461.2 981.025 1457.66 Q979.219 1454.1 975.585 1454.1 M975.585 1450.39 Q981.395 1450.39 984.451 1455 Q987.529 1459.58 987.529 1468.33 Q987.529 1477.06 984.451 1481.67 Q981.395 1486.25 975.585 1486.25 Q969.775 1486.25 966.696 1481.67 Q963.64 1477.06 963.64 1468.33 Q963.64 1459.58 966.696 1455 Q969.775 1450.39 975.585 1450.39 Z" fill="#000000" fill-rule="evenodd" fill-opacity="1" /><path clip-path="url(#clip200)" d="M1583.12 1481.64 L1599.44 1481.64 L1599.44 1485.58 L1577.5 1485.58 L1577.5 1481.64 Q1580.16 1478.89 1584.74 1474.26 Q1589.35 1469.61 1590.53 1468.27 Q1592.77 1465.74 1593.65 1464.01 Q1594.56 1462.25 1594.56 1460.56 Q1594.56 1457.8 1592.61 1456.07 Q1590.69 1454.33 1587.59 1454.33 Q1585.39 1454.33 1582.94 1455.09 Q1580.5 1455.86 1577.73 1457.41 L1577.73 1452.69 Q1580.55 1451.55 1583 1450.97 Q1585.46 1450.39 1587.5 1450.39 Q1592.87 1450.39 1596.06 1453.08 Q1599.25 1455.77 1599.25 1460.26 Q1599.25 1462.39 1598.44 1464.31 Q1597.66 1466.2 1595.55 1468.8 Q1594.97 1469.47 1591.87 1472.69 Q1588.77 1475.88 1583.12 1481.64 Z" fill="#000000" fill-rule="evenodd" fill-opacity="1" /><path clip-path="url(#clip200)" d="M1619.25 1454.1 Q1615.64 1454.1 1613.81 1457.66 Q1612.01 1461.2 1612.01 1468.33 Q1612.01 1475.44 1613.81 1479.01 Q1615.64 1482.55 1619.25 1482.55 Q1622.89 1482.55 1624.69 1479.01 Q1626.52 1475.44 1626.52 1468.33 Q1626.52 1461.2 1624.69 1457.66 Q1622.89 1454.1 1619.25 1454.1 M1619.25 1450.39 Q1625.06 1450.39 1628.12 1455 Q1631.2 1459.58 1631.2 1468.33 Q1631.2 1477.06 1628.12 1481.67 Q1625.06 1486.25 1619.25 1486.25 Q1613.44 1486.25 1610.37 1481.67 Q1607.31 1477.06 1607.31 1468.33 Q1607.31 1459.58 1610.37 1455 Q1613.44 1450.39 1619.25 1450.39 Z" fill="#000000" fill-rule="evenodd" fill-opacity="1" /><path clip-path="url(#clip200)" d="M1649.42 1454.1 Q1645.81 1454.1 1643.98 1457.66 Q1642.17 1461.2 1642.17 1468.33 Q1642.17 1475.44 1643.98 1479.01 Q1645.81 1482.55 1649.42 1482.55 Q1653.05 1482.55 1654.86 1479.01 Q1656.68 1475.44 1656.68 1468.33 Q1656.68 1461.2 1654.86 1457.66 Q1653.05 1454.1 1649.42 1454.1 M1649.42 1450.39 Q1655.23 1450.39 1658.28 1455 Q1661.36 1459.58 1661.36 1468.33 Q1661.36 1477.06 1658.28 1481.67 Q1655.23 1486.25 1649.42 1486.25 Q1643.61 1486.25 1640.53 1481.67 Q1637.47 1477.06 1637.47 1468.33 Q1637.47 1459.58 1640.53 1455 Q1643.61 1450.39 1649.42 1450.39 Z" fill="#000000" fill-rule="evenodd" fill-opacity="1" /><path clip-path="url(#clip200)" d="M2266.15 1466.95 Q2269.51 1467.66 2271.38 1469.93 Q2273.28 1472.2 2273.28 1475.53 Q2273.28 1480.65 2269.76 1483.45 Q2266.25 1486.25 2259.76 1486.25 Q2257.59 1486.25 2255.27 1485.81 Q2252.98 1485.39 2250.53 1484.54 L2250.53 1480.02 Q2252.47 1481.16 2254.79 1481.74 Q2257.1 1482.32 2259.63 1482.32 Q2264.02 1482.32 2266.31 1480.58 Q2268.63 1478.84 2268.63 1475.53 Q2268.63 1472.48 2266.48 1470.77 Q2264.35 1469.03 2260.53 1469.03 L2256.5 1469.03 L2256.5 1465.19 L2260.71 1465.19 Q2264.16 1465.19 2265.99 1463.82 Q2267.82 1462.43 2267.82 1459.84 Q2267.82 1457.18 2265.92 1455.77 Q2264.05 1454.33 2260.53 1454.33 Q2258.61 1454.33 2256.41 1454.75 Q2254.21 1455.16 2251.57 1456.04 L2251.57 1451.88 Q2254.23 1451.14 2256.55 1450.77 Q2258.88 1450.39 2260.94 1450.39 Q2266.27 1450.39 2269.37 1452.83 Q2272.47 1455.23 2272.47 1459.35 Q2272.47 1462.22 2270.83 1464.21 Q2269.19 1466.18 2266.15 1466.95 Z" fill="#000000" fill-rule="evenodd" fill-opacity="1" /><path clip-path="url(#clip200)" d="M2292.15 1454.1 Q2288.54 1454.1 2286.71 1457.66 Q2284.9 1461.2 2284.9 1468.33 Q2284.9 1475.44 2286.71 1479.01 Q2288.54 1482.55 2292.15 1482.55 Q2295.78 1482.55 2297.59 1479.01 Q2299.42 1475.44 2299.42 1468.33 Q2299.42 1461.2 2297.59 1457.66 Q2295.78 1454.1 2292.15 1454.1 M2292.15 1450.39 Q2297.96 1450.39 2301.01 1455 Q2304.09 1459.58 2304.09 1468.33 Q2304.09 1477.06 2301.01 1481.67 Q2297.96 1486.25 2292.15 1486.25 Q2286.34 1486.25 2283.26 1481.67 Q2280.2 1477.06 2280.2 1468.33 Q2280.2 1459.58 2283.26 1455 Q2286.34 1450.39 2292.15 1450.39 Z" fill="#000000" fill-rule="evenodd" fill-opacity="1" /><path clip-path="url(#clip200)" d="M2322.31 1454.1 Q2318.7 1454.1 2316.87 1457.66 Q2315.06 1461.2 2315.06 1468.33 Q2315.06 1475.44 2316.87 1479.01 Q2318.7 1482.55 2322.31 1482.55 Q2325.94 1482.55 2327.75 1479.01 Q2329.58 1475.44 2329.58 1468.33 Q2329.58 1461.2 2327.75 1457.66 Q2325.94 1454.1 2322.31 1454.1 M2322.31 1450.39 Q2328.12 1450.39 2331.18 1455 Q2334.25 1459.58 2334.25 1468.33 Q2334.25 1477.06 2331.18 1481.67 Q2328.12 1486.25 2322.31 1486.25 Q2316.5 1486.25 2313.42 1481.67 Q2310.37 1477.06 2310.37 1468.33 Q2310.37 1459.58 2313.42 1455 Q2316.5 1450.39 2322.31 1450.39 Z" fill="#000000" fill-rule="evenodd" fill-opacity="1" /><path clip-path="url(#clip200)" d="M1176.36 1526.86 L1163.31 1562.7 L1189.44 1562.7 L1176.36 1526.86 M1154.59 1568.04 L1172.73 1520.52 L1180.02 1520.52 L1198.13 1568.04 L1154.59 1568.04 Z" fill="#000000" fill-rule="evenodd" fill-opacity="1" /><path clip-path="url(#clip200)" d="M1211.5 1525.81 L1211.5 1543.66 L1219.58 1543.66 Q1224.07 1543.66 1226.52 1541.34 Q1228.97 1539.02 1228.97 1534.72 Q1228.97 1530.45 1226.52 1528.13 Q1224.07 1525.81 1219.58 1525.81 L1211.5 1525.81 M1205.07 1520.52 L1219.58 1520.52 Q1227.57 1520.52 1231.65 1524.15 Q1235.75 1527.75 1235.75 1534.72 Q1235.75 1541.75 1231.65 1545.35 Q1227.57 1548.95 1219.58 1548.95 L1211.5 1548.95 L1211.5 1568.04 L1205.07 1568.04 L1205.07 1520.52 Z" fill="#000000" fill-rule="evenodd" fill-opacity="1" /><path clip-path="url(#clip200)" d="M1278.91 1518.58 Q1274.65 1525.9 1272.58 1533.06 Q1270.51 1540.23 1270.51 1547.58 Q1270.51 1554.93 1272.58 1562.16 Q1274.68 1569.35 1278.91 1576.64 L1273.82 1576.64 Q1269.04 1569.16 1266.66 1561.93 Q1264.3 1554.71 1264.3 1547.58 Q1264.3 1540.48 1266.66 1533.29 Q1269.01 1526.09 1273.82 1518.58 L1278.91 1518.58 Z" fill="#000000" fill-rule="evenodd" fill-opacity="1" /><path clip-path="url(#clip200)" d="M1290.05 1518.52 L1295.94 1518.52 L1295.94 1547.77 L1313.41 1532.4 L1320.89 1532.4 L1301.99 1549.07 L1321.69 1568.04 L1314.05 1568.04 L1295.94 1550.63 L1295.94 1568.04 L1290.05 1568.04 L1290.05 1518.52 Z" fill="#000000" fill-rule="evenodd" fill-opacity="1" /><path clip-path="url(#clip200)" d="M1334.71 1525.81 L1334.71 1543.66 L1342.79 1543.66 Q1347.28 1543.66 1349.73 1541.34 Q1352.18 1539.02 1352.18 1534.72 Q1352.18 1530.45 1349.73 1528.13 Q1347.28 1525.81 1342.79 1525.81 L1334.71 1525.81 M1328.28 1520.52 L1342.79 1520.52 Q1350.78 1520.52 1354.85 1524.15 Q1358.96 1527.75 1358.96 1534.72 Q1358.96 1541.75 1354.85 1545.35 Q1350.78 1548.95 1342.79 1548.95 L1334.71 1548.95 L1334.71 1568.04 L1328.28 1568.04 L1328.28 1520.52 Z" fill="#000000" fill-rule="evenodd" fill-opacity="1" /><path clip-path="url(#clip200)" d="M1380.6 1550.12 Q1373.51 1550.12 1370.77 1551.75 Q1368.03 1553.37 1368.03 1557.29 Q1368.03 1560.4 1370.07 1562.25 Q1372.14 1564.07 1375.67 1564.07 Q1380.54 1564.07 1383.47 1560.63 Q1386.43 1557.16 1386.43 1551.43 L1386.43 1550.12 L1380.6 1550.12 M1392.28 1547.71 L1392.28 1568.04 L1386.43 1568.04 L1386.43 1562.63 Q1384.42 1565.88 1381.43 1567.44 Q1378.44 1568.97 1374.11 1568.97 Q1368.64 1568.97 1365.39 1565.91 Q1362.17 1562.82 1362.17 1557.67 Q1362.17 1551.65 1366.18 1548.6 Q1370.23 1545.54 1378.22 1545.54 L1386.43 1545.54 L1386.43 1544.97 Q1386.43 1540.93 1383.75 1538.73 Q1381.11 1536.5 1376.31 1536.5 Q1373.25 1536.5 1370.35 1537.23 Q1367.46 1537.97 1364.78 1539.43 L1364.78 1534.02 Q1368 1532.78 1371.02 1532.17 Q1374.05 1531.54 1376.91 1531.54 Q1384.65 1531.54 1388.46 1535.55 Q1392.28 1539.56 1392.28 1547.71 Z" fill="#000000" fill-rule="evenodd" fill-opacity="1" /><path clip-path="url(#clip200)" d="M1403.42 1518.58 L1408.52 1518.58 Q1413.29 1526.09 1415.65 1533.29 Q1418.03 1540.48 1418.03 1547.58 Q1418.03 1554.71 1415.65 1561.93 Q1413.29 1569.16 1408.52 1576.64 L1403.42 1576.64 Q1407.66 1569.35 1409.73 1562.16 Q1411.83 1554.93 1411.83 1547.58 Q1411.83 1540.23 1409.73 1533.06 Q1407.66 1525.9 1403.42 1518.58 Z" fill="#000000" fill-rule="evenodd" fill-opacity="1" /><polyline clip-path="url(#clip202)" style="stroke:#000000; stroke-linecap:butt; stroke-linejoin:round; stroke-width:2; stroke-opacity:0.1; fill:none" points="
  219.866,1146.06 2352.76,1146.06 
  "/>
<polyline clip-path="url(#clip202)" style="stroke:#000000; stroke-linecap:butt; stroke-linejoin:round; stroke-width:2; stroke-opacity:0.1; fill:none" points="
  219.866,861.182 2352.76,861.182 
  "/>
<polyline clip-path="url(#clip202)" style="stroke:#000000; stroke-linecap:butt; stroke-linejoin:round; stroke-width:2; stroke-opacity:0.1; fill:none" points="
  219.866,576.302 2352.76,576.302 
  "/>
<polyline clip-path="url(#clip202)" style="stroke:#000000; stroke-linecap:butt; stroke-linejoin:round; stroke-width:2; stroke-opacity:0.1; fill:none" points="
  219.866,291.422 2352.76,291.422 
  "/>
<polyline clip-path="url(#clip200)" style="stroke:#000000; stroke-linecap:butt; stroke-linejoin:round; stroke-width:4; stroke-opacity:1; fill:none" points="
  219.866,1423.18 219.866,47.2441 
  "/>
<polyline clip-path="url(#clip200)" style="stroke:#000000; stroke-linecap:butt; stroke-linejoin:round; stroke-width:4; stroke-opacity:1; fill:none" points="
  219.866,1146.06 238.764,1146.06 
  "/>
<polyline clip-path="url(#clip200)" style="stroke:#000000; stroke-linecap:butt; stroke-linejoin:round; stroke-width:4; stroke-opacity:1; fill:none" points="
  219.866,861.182 238.764,861.182 
  "/>
<polyline clip-path="url(#clip200)" style="stroke:#000000; stroke-linecap:butt; stroke-linejoin:round; stroke-width:4; stroke-opacity:1; fill:none" points="
  219.866,576.302 238.764,576.302 
  "/>
<polyline clip-path="url(#clip200)" style="stroke:#000000; stroke-linecap:butt; stroke-linejoin:round; stroke-width:4; stroke-opacity:1; fill:none" points="
  219.866,291.422 238.764,291.422 
  "/>
<path clip-path="url(#clip200)" d="M128.288 1131.86 Q124.677 1131.86 122.848 1135.43 Q121.043 1138.97 121.043 1146.1 Q121.043 1153.2 122.848 1156.77 Q124.677 1160.31 128.288 1160.31 Q131.922 1160.31 133.728 1156.77 Q135.556 1153.2 135.556 1146.1 Q135.556 1138.97 133.728 1135.43 Q131.922 1131.86 128.288 1131.86 M128.288 1128.16 Q134.098 1128.16 137.154 1132.76 Q140.232 1137.35 140.232 1146.1 Q140.232 1154.82 137.154 1159.43 Q134.098 1164.01 128.288 1164.01 Q122.478 1164.01 119.399 1159.43 Q116.343 1154.82 116.343 1146.1 Q116.343 1137.35 119.399 1132.76 Q122.478 1128.16 128.288 1128.16 Z" fill="#000000" fill-rule="evenodd" fill-opacity="1" /><path clip-path="url(#clip200)" d="M148.45 1157.46 L153.334 1157.46 L153.334 1163.34 L148.45 1163.34 L148.45 1157.46 Z" fill="#000000" fill-rule="evenodd" fill-opacity="1" /><path clip-path="url(#clip200)" d="M167.547 1159.41 L183.866 1159.41 L183.866 1163.34 L161.922 1163.34 L161.922 1159.41 Q164.584 1156.65 169.167 1152.02 Q173.774 1147.37 174.954 1146.03 Q177.2 1143.5 178.079 1141.77 Q178.982 1140.01 178.982 1138.32 Q178.982 1135.56 177.038 1133.83 Q175.116 1132.09 172.014 1132.09 Q169.815 1132.09 167.362 1132.86 Q164.931 1133.62 162.153 1135.17 L162.153 1130.45 Q164.977 1129.31 167.431 1128.74 Q169.885 1128.16 171.922 1128.16 Q177.292 1128.16 180.487 1130.84 Q183.681 1133.53 183.681 1138.02 Q183.681 1140.15 182.871 1142.07 Q182.084 1143.97 179.977 1146.56 Q179.399 1147.23 176.297 1150.45 Q173.195 1153.64 167.547 1159.41 Z" fill="#000000" fill-rule="evenodd" fill-opacity="1" /><path clip-path="url(#clip200)" d="M126.205 846.98 Q122.593 846.98 120.765 850.545 Q118.959 854.087 118.959 861.216 Q118.959 868.323 120.765 871.888 Q122.593 875.429 126.205 875.429 Q129.839 875.429 131.644 871.888 Q133.473 868.323 133.473 861.216 Q133.473 854.087 131.644 850.545 Q129.839 846.98 126.205 846.98 M126.205 843.277 Q132.015 843.277 135.07 847.883 Q138.149 852.466 138.149 861.216 Q138.149 869.943 135.07 874.55 Q132.015 879.133 126.205 879.133 Q120.394 879.133 117.316 874.55 Q114.26 869.943 114.26 861.216 Q114.26 852.466 117.316 847.883 Q120.394 843.277 126.205 843.277 Z" fill="#000000" fill-rule="evenodd" fill-opacity="1" /><path clip-path="url(#clip200)" d="M146.366 872.582 L151.251 872.582 L151.251 878.462 L146.366 878.462 L146.366 872.582 Z" fill="#000000" fill-rule="evenodd" fill-opacity="1" /><path clip-path="url(#clip200)" d="M174.283 847.976 L162.477 866.425 L174.283 866.425 L174.283 847.976 M173.056 843.902 L178.936 843.902 L178.936 866.425 L183.866 866.425 L183.866 870.313 L178.936 870.313 L178.936 878.462 L174.283 878.462 L174.283 870.313 L158.681 870.313 L158.681 865.8 L173.056 843.902 Z" fill="#000000" fill-rule="evenodd" fill-opacity="1" /><path clip-path="url(#clip200)" d="M126.529 562.1 Q122.918 562.1 121.089 565.665 Q119.283 569.207 119.283 576.336 Q119.283 583.443 121.089 587.008 Q122.918 590.549 126.529 590.549 Q130.163 590.549 131.968 587.008 Q133.797 583.443 133.797 576.336 Q133.797 569.207 131.968 565.665 Q130.163 562.1 126.529 562.1 M126.529 558.397 Q132.339 558.397 135.394 563.003 Q138.473 567.586 138.473 576.336 Q138.473 585.063 135.394 589.67 Q132.339 594.253 126.529 594.253 Q120.718 594.253 117.64 589.67 Q114.584 585.063 114.584 576.336 Q114.584 567.586 117.64 563.003 Q120.718 558.397 126.529 558.397 Z" fill="#000000" fill-rule="evenodd" fill-opacity="1" /><path clip-path="url(#clip200)" d="M146.691 587.702 L151.575 587.702 L151.575 593.582 L146.691 593.582 L146.691 587.702 Z" fill="#000000" fill-rule="evenodd" fill-opacity="1" /><path clip-path="url(#clip200)" d="M172.339 574.438 Q169.19 574.438 167.339 576.591 Q165.51 578.744 165.51 582.494 Q165.51 586.221 167.339 588.396 Q169.19 590.549 172.339 590.549 Q175.487 590.549 177.315 588.396 Q179.167 586.221 179.167 582.494 Q179.167 578.744 177.315 576.591 Q175.487 574.438 172.339 574.438 M181.621 559.785 L181.621 564.045 Q179.862 563.211 178.056 562.772 Q176.274 562.332 174.514 562.332 Q169.885 562.332 167.431 565.457 Q165.001 568.582 164.653 574.901 Q166.019 572.887 168.079 571.822 Q170.139 570.735 172.616 570.735 Q177.825 570.735 180.834 573.906 Q183.866 577.054 183.866 582.494 Q183.866 587.818 180.718 591.035 Q177.57 594.253 172.339 594.253 Q166.343 594.253 163.172 589.67 Q160.001 585.063 160.001 576.336 Q160.001 568.142 163.89 563.281 Q167.778 558.397 174.329 558.397 Q176.089 558.397 177.871 558.744 Q179.676 559.091 181.621 559.785 Z" fill="#000000" fill-rule="evenodd" fill-opacity="1" /><path clip-path="url(#clip200)" d="M126.783 277.22 Q123.172 277.22 121.343 280.785 Q119.538 284.327 119.538 291.456 Q119.538 298.563 121.343 302.128 Q123.172 305.669 126.783 305.669 Q130.417 305.669 132.223 302.128 Q134.052 298.563 134.052 291.456 Q134.052 284.327 132.223 280.785 Q130.417 277.22 126.783 277.22 M126.783 273.517 Q132.593 273.517 135.649 278.123 Q138.728 282.706 138.728 291.456 Q138.728 300.183 135.649 304.79 Q132.593 309.373 126.783 309.373 Q120.973 309.373 117.894 304.79 Q114.839 300.183 114.839 291.456 Q114.839 282.706 117.894 278.123 Q120.973 273.517 126.783 273.517 Z" fill="#000000" fill-rule="evenodd" fill-opacity="1" /><path clip-path="url(#clip200)" d="M146.945 302.822 L151.829 302.822 L151.829 308.702 L146.945 308.702 L146.945 302.822 Z" fill="#000000" fill-rule="evenodd" fill-opacity="1" /><path clip-path="url(#clip200)" d="M172.014 292.29 Q168.681 292.29 166.76 294.072 Q164.862 295.854 164.862 298.979 Q164.862 302.104 166.76 303.887 Q168.681 305.669 172.014 305.669 Q175.348 305.669 177.269 303.887 Q179.19 302.081 179.19 298.979 Q179.19 295.854 177.269 294.072 Q175.371 292.29 172.014 292.29 M167.339 290.299 Q164.329 289.558 162.64 287.498 Q160.973 285.438 160.973 282.475 Q160.973 278.331 163.913 275.924 Q166.876 273.517 172.014 273.517 Q177.176 273.517 180.116 275.924 Q183.056 278.331 183.056 282.475 Q183.056 285.438 181.366 287.498 Q179.7 289.558 176.714 290.299 Q180.093 291.086 181.968 293.378 Q183.866 295.669 183.866 298.979 Q183.866 304.003 180.788 306.688 Q177.732 309.373 172.014 309.373 Q166.297 309.373 163.218 306.688 Q160.163 304.003 160.163 298.979 Q160.163 295.669 162.061 293.378 Q163.959 291.086 167.339 290.299 M165.626 282.915 Q165.626 285.6 167.292 287.105 Q168.982 288.609 172.014 288.609 Q175.024 288.609 176.714 287.105 Q178.426 285.6 178.426 282.915 Q178.426 280.23 176.714 278.725 Q175.024 277.22 172.014 277.22 Q168.982 277.22 167.292 278.725 Q165.626 280.23 165.626 282.915 Z" fill="#000000" fill-rule="evenodd" fill-opacity="1" /><path clip-path="url(#clip200)" d="M35.1993 836.538 Q31.2526 834.342 29.3747 831.286 Q27.4968 828.231 27.4968 824.093 Q27.4968 818.523 31.4117 815.499 Q35.2948 812.476 42.4881 812.476 L64.0042 812.476 L64.0042 818.364 L42.679 818.364 Q37.5546 818.364 35.072 820.178 Q32.5894 821.992 32.5894 825.716 Q32.5894 830.268 35.6131 832.91 Q38.6368 835.551 43.8567 835.551 L64.0042 835.551 L64.0042 841.44 L42.679 841.44 Q37.5228 841.44 35.072 843.254 Q32.5894 845.068 32.5894 848.856 Q32.5894 853.344 35.6449 855.985 Q38.6686 858.627 43.8567 858.627 L64.0042 858.627 L64.0042 864.515 L28.3562 864.515 L28.3562 858.627 L33.8944 858.627 Q30.616 856.622 29.0564 853.821 Q27.4968 851.02 27.4968 847.169 Q27.4968 843.286 29.4702 840.58 Q31.4436 837.843 35.1993 836.538 Z" fill="#000000" fill-rule="evenodd" fill-opacity="1" /><path clip-path="url(#clip200)" d="M14.479 826.226 L14.479 820.369 L21.895 820.369 L21.895 826.226 L14.479 826.226 M27.4968 823.234 L27.4968 823.234 Z" fill="#000000" fill-rule="evenodd" fill-opacity="1" /><path clip-path="url(#clip200)" d="M14.5426 766.006 Q21.8632 770.271 29.0246 772.34 Q36.186 774.409 43.5384 774.409 Q50.8908 774.409 58.1159 772.34 Q65.3091 770.239 72.5979 766.006 L72.5979 771.099 Q65.1182 775.873 57.8931 778.26 Q50.668 780.615 43.5384 780.615 Q36.4406 780.615 29.2474 778.26 Q22.0542 775.905 14.5426 771.099 L14.5426 766.006 Z" fill="#000000" fill-rule="evenodd" fill-opacity="1" /><path clip-path="url(#clip200)" d="M14.479 754.866 L14.479 748.978 L43.7294 748.978 L28.3562 731.504 L28.3562 724.024 L45.0344 742.93 L64.0042 723.229 L64.0042 730.867 L46.5939 748.978 L64.0042 748.978 L64.0042 754.866 L14.479 754.866 Z" fill="#000000" fill-rule="evenodd" fill-opacity="1" /><path clip-path="url(#clip200)" d="M45.7664 693.437 Q39.4007 693.437 35.8996 696.079 Q32.3984 698.689 32.3984 703.431 Q32.3984 708.142 35.8996 710.784 Q39.4007 713.394 45.7664 713.394 Q52.1003 713.394 55.6014 710.784 Q59.1026 708.142 59.1026 703.431 Q59.1026 698.689 55.6014 696.079 Q52.1003 693.437 45.7664 693.437 M59.58 687.581 Q68.683 687.581 73.1071 691.623 Q77.5631 695.665 77.5631 704.004 Q77.5631 707.091 77.0857 709.829 Q76.6401 712.566 75.6852 715.144 L69.9879 715.144 Q71.3884 712.566 72.0568 710.052 Q72.7252 707.537 72.7252 704.927 Q72.7252 699.166 69.7015 696.302 Q66.7096 693.437 60.6303 693.437 L57.7339 693.437 Q60.885 695.251 62.4446 698.084 Q64.0042 700.917 64.0042 704.863 Q64.0042 711.42 59.0071 715.431 Q54.01 719.441 45.7664 719.441 Q37.491 719.441 32.4939 715.431 Q27.4968 711.42 27.4968 704.863 Q27.4968 700.917 29.0564 698.084 Q30.616 695.251 33.7671 693.437 L28.3562 693.437 L28.3562 687.581 L59.58 687.581 Z" fill="#000000" fill-rule="evenodd" fill-opacity="1" /><path clip-path="url(#clip200)" d="M16.4842 665.11 L16.4842 659.699 L70.0516 676.25 L70.0516 681.66 L16.4842 665.11 Z" fill="#000000" fill-rule="evenodd" fill-opacity="1" /><path clip-path="url(#clip200)" d="M29.4065 630.83 L34.9447 630.83 Q33.6716 633.313 33.035 635.987 Q32.3984 638.66 32.3984 641.525 Q32.3984 645.885 33.7352 648.081 Q35.072 650.246 37.7456 650.246 Q39.7826 650.246 40.9603 648.686 Q42.1061 647.127 43.1565 642.416 L43.6021 640.411 Q44.9389 634.172 47.3897 631.562 Q49.8086 628.921 54.1691 628.921 Q59.1344 628.921 62.0308 632.867 Q64.9272 636.782 64.9272 643.657 Q64.9272 646.522 64.3543 649.641 Q63.8132 652.728 62.6992 656.166 L56.6518 656.166 Q58.3387 652.919 59.198 649.768 Q60.0256 646.617 60.0256 643.53 Q60.0256 639.392 58.6251 637.164 Q57.1929 634.936 54.6147 634.936 Q52.2276 634.936 50.9545 636.559 Q49.6813 638.151 48.5037 643.594 L48.0262 645.631 Q46.8804 651.073 44.5251 653.492 Q42.138 655.911 38.0002 655.911 Q32.9713 655.911 30.2341 652.346 Q27.4968 648.782 27.4968 642.225 Q27.4968 638.978 27.9743 636.114 Q28.4517 633.249 29.4065 630.83 Z" fill="#000000" fill-rule="evenodd" fill-opacity="1" /><path clip-path="url(#clip200)" d="M14.5426 620.518 L14.5426 615.425 Q22.0542 610.651 29.2474 608.296 Q36.4406 605.909 43.5384 605.909 Q50.668 605.909 57.8931 608.296 Q65.1182 610.651 72.5979 615.425 L72.5979 620.518 Q65.3091 616.285 58.1159 614.216 Q50.8908 612.115 43.5384 612.115 Q36.186 612.115 29.0246 614.216 Q21.8632 616.285 14.5426 620.518 Z" fill="#000000" fill-rule="evenodd" fill-opacity="1" /><polyline clip-path="url(#clip202)" style="stroke:#023eff; stroke-linecap:butt; stroke-linejoin:round; stroke-width:4; stroke-opacity:1; fill:none" points="
  280.231,1384.24 300.556,1332.71 320.881,1298.4 341.206,1270.31 361.53,1245.68 381.855,1223.34 402.18,1202.62 422.505,1183.14 442.83,1164.63 463.155,1146.91 
  483.48,1129.85 503.804,1113.35 524.129,1097.32 544.454,1081.7 564.779,1066.44 585.104,1051.5 605.429,1036.85 625.753,1022.45 646.078,1008.29 666.403,994.334 
  686.728,980.572 707.053,966.985 727.378,953.559 747.703,940.282 768.027,927.144 788.352,914.134 808.677,901.243 829.002,888.464 849.327,875.789 869.652,863.213 
  889.977,850.728 910.301,838.331 930.626,826.015 950.951,813.777 971.276,801.613 991.601,789.518 1011.93,777.489 1032.25,765.523 1052.58,753.617 1072.9,741.768 
  1093.23,729.974 1113.55,718.232 1133.87,706.54 1154.2,694.896 1174.52,683.298 1194.85,671.743 1215.17,660.231 1235.5,648.76 1255.82,637.328 1276.15,625.933 
  1296.47,614.575 1316.8,603.252 1337.12,591.962 1357.45,580.706 1377.77,569.481 1398.1,558.286 1418.42,547.121 1438.75,535.985 1459.07,524.876 1479.4,513.794 
  1499.72,502.739 1520.05,491.708 1540.37,480.703 1560.7,469.721 1581.02,458.762 1601.35,447.826 1621.67,436.912 1642,426.019 1662.32,415.147 1682.65,404.296 
  1702.97,393.464 1723.3,382.651 1743.62,371.857 1763.95,361.082 1784.27,350.324 1804.59,339.584 1824.92,328.861 1845.24,318.154 1865.57,307.464 1885.89,296.79 
  1906.22,286.131 1926.54,275.488 1946.87,264.859 1967.19,254.245 1987.52,243.646 2007.84,233.06 2028.17,222.488 2048.49,211.929 2068.82,201.384 2089.14,190.852 
  2109.47,180.332 2129.79,169.824 2150.12,159.329 2170.44,148.846 2190.77,138.374 2211.09,127.915 2231.42,117.466 2251.74,107.028 2272.07,96.6016 2292.39,86.1857 
  
  "/>
<circle clip-path="url(#clip202)" cx="946.465" cy="816.472" r="14.4" fill="#ff0000" fill-rule="evenodd" fill-opacity="1" stroke="#000000" stroke-opacity="1" stroke-width="3.2"/>
<path clip-path="url(#clip200)" d="
M1694.77 787.052 L2281.66 787.052 L2281.66 631.532 L1694.77 631.532  Z
  " fill="#ffffff" fill-rule="evenodd" fill-opacity="1"/>
<polyline clip-path="url(#clip200)" style="stroke:#000000; stroke-linecap:butt; stroke-linejoin:round; stroke-width:4; stroke-opacity:1; fill:none" points="
  1694.77,787.052 2281.66,787.052 2281.66,631.532 1694.77,631.532 1694.77,787.052 
  "/>
<polyline clip-path="url(#clip200)" style="stroke:#023eff; stroke-linecap:butt; stroke-linejoin:round; stroke-width:4; stroke-opacity:1; fill:none" points="
  1718.47,683.372 1860.66,683.372 
  "/>
<path clip-path="url(#clip200)" d="M1884.36 666.092 L1889.03 666.092 L1889.03 700.652 L1884.36 700.652 L1884.36 666.092 Z" fill="#000000" fill-rule="evenodd" fill-opacity="1" /><path clip-path="url(#clip200)" d="M1914.68 675.49 L1914.68 679.518 Q1912.87 678.592 1910.93 678.129 Q1908.99 677.666 1906.9 677.666 Q1903.73 677.666 1902.13 678.638 Q1900.56 679.61 1900.56 681.555 Q1900.56 683.036 1901.69 683.893 Q1902.83 684.726 1906.25 685.49 L1907.71 685.814 Q1912.25 686.786 1914.15 688.569 Q1916.07 690.328 1916.07 693.499 Q1916.07 697.11 1913.2 699.217 Q1910.35 701.323 1905.35 701.323 Q1903.27 701.323 1901 700.907 Q1898.75 700.513 1896.25 699.703 L1896.25 695.305 Q1898.62 696.532 1900.91 697.157 Q1903.2 697.758 1905.44 697.758 Q1908.45 697.758 1910.07 696.74 Q1911.69 695.698 1911.69 693.823 Q1911.69 692.087 1910.51 691.161 Q1909.36 690.235 1905.4 689.379 L1903.92 689.032 Q1899.96 688.198 1898.2 686.485 Q1896.44 684.749 1896.44 681.74 Q1896.44 678.083 1899.03 676.092 Q1901.62 674.101 1906.39 674.101 Q1908.75 674.101 1910.84 674.448 Q1912.92 674.796 1914.68 675.49 Z" fill="#000000" fill-rule="evenodd" fill-opacity="1" /><path clip-path="url(#clip200)" d="M1945.03 686.624 L1945.03 688.708 L1925.44 688.708 Q1925.72 693.106 1928.08 695.421 Q1930.47 697.712 1934.7 697.712 Q1937.16 697.712 1939.45 697.11 Q1941.76 696.508 1944.03 695.305 L1944.03 699.333 Q1941.74 700.305 1939.33 700.814 Q1936.93 701.323 1934.45 701.323 Q1928.25 701.323 1924.61 697.712 Q1921 694.101 1921 687.944 Q1921 681.578 1924.43 677.851 Q1927.87 674.101 1933.71 674.101 Q1938.94 674.101 1941.97 677.481 Q1945.03 680.837 1945.03 686.624 M1940.77 685.374 Q1940.72 681.879 1938.8 679.796 Q1936.9 677.712 1933.75 677.712 Q1930.19 677.712 1928.04 679.726 Q1925.91 681.74 1925.58 685.397 L1940.77 685.374 Z" fill="#000000" fill-rule="evenodd" fill-opacity="1" /><path clip-path="url(#clip200)" d="M1973.57 685.004 L1973.57 700.652 L1969.31 700.652 L1969.31 685.143 Q1969.31 681.462 1967.87 679.634 Q1966.44 677.805 1963.57 677.805 Q1960.12 677.805 1958.13 680.004 Q1956.14 682.203 1956.14 685.999 L1956.14 700.652 L1951.86 700.652 L1951.86 674.726 L1956.14 674.726 L1956.14 678.754 Q1957.67 676.416 1959.73 675.259 Q1961.81 674.101 1964.52 674.101 Q1968.99 674.101 1971.28 676.879 Q1973.57 679.634 1973.57 685.004 Z" fill="#000000" fill-rule="evenodd" fill-opacity="1" /><path clip-path="url(#clip200)" d="M1986.28 667.365 L1986.28 674.726 L1995.05 674.726 L1995.05 678.036 L1986.28 678.036 L1986.28 692.11 Q1986.28 695.282 1987.13 696.184 Q1988.01 697.087 1990.68 697.087 L1995.05 697.087 L1995.05 700.652 L1990.68 700.652 Q1985.74 700.652 1983.87 698.823 Q1981.99 696.971 1981.99 692.11 L1981.99 678.036 L1978.87 678.036 L1978.87 674.726 L1981.99 674.726 L1981.99 667.365 L1986.28 667.365 Z" fill="#000000" fill-rule="evenodd" fill-opacity="1" /><path clip-path="url(#clip200)" d="M2015.68 678.708 Q2014.96 678.291 2014.1 678.106 Q2013.27 677.897 2012.25 677.897 Q2008.64 677.897 2006.69 680.259 Q2004.77 682.597 2004.77 686.995 L2004.77 700.652 L2000.49 700.652 L2000.49 674.726 L2004.77 674.726 L2004.77 678.754 Q2006.12 676.393 2008.27 675.259 Q2010.42 674.101 2013.5 674.101 Q2013.94 674.101 2014.47 674.171 Q2015 674.217 2015.65 674.333 L2015.68 678.708 Z" fill="#000000" fill-rule="evenodd" fill-opacity="1" /><path clip-path="url(#clip200)" d="M2029.15 677.712 Q2025.72 677.712 2023.73 680.397 Q2021.74 683.059 2021.74 687.712 Q2021.74 692.365 2023.71 695.05 Q2025.7 697.712 2029.15 697.712 Q2032.55 697.712 2034.54 695.027 Q2036.53 692.342 2036.53 687.712 Q2036.53 683.106 2034.54 680.421 Q2032.55 677.712 2029.15 677.712 M2029.15 674.101 Q2034.7 674.101 2037.87 677.712 Q2041.05 681.323 2041.05 687.712 Q2041.05 694.078 2037.87 697.712 Q2034.7 701.323 2029.15 701.323 Q2023.57 701.323 2020.4 697.712 Q2017.25 694.078 2017.25 687.712 Q2017.25 681.323 2020.4 677.712 Q2023.57 674.101 2029.15 674.101 Z" fill="#000000" fill-rule="evenodd" fill-opacity="1" /><path clip-path="url(#clip200)" d="M2052.23 696.763 L2052.23 710.513 L2047.94 710.513 L2047.94 674.726 L2052.23 674.726 L2052.23 678.661 Q2053.57 676.347 2055.61 675.235 Q2057.67 674.101 2060.51 674.101 Q2065.24 674.101 2068.17 677.851 Q2071.14 681.601 2071.14 687.712 Q2071.14 693.823 2068.17 697.573 Q2065.24 701.323 2060.51 701.323 Q2057.67 701.323 2055.61 700.212 Q2053.57 699.078 2052.23 696.763 M2066.72 687.712 Q2066.72 683.013 2064.77 680.351 Q2062.85 677.666 2059.47 677.666 Q2056.09 677.666 2054.15 680.351 Q2052.23 683.013 2052.23 687.712 Q2052.23 692.411 2054.15 695.096 Q2056.09 697.758 2059.47 697.758 Q2062.85 697.758 2064.77 695.096 Q2066.72 692.411 2066.72 687.712 Z" fill="#000000" fill-rule="evenodd" fill-opacity="1" /><path clip-path="url(#clip200)" d="M2078.2 674.726 L2082.46 674.726 L2082.46 700.652 L2078.2 700.652 L2078.2 674.726 M2078.2 664.634 L2082.46 664.634 L2082.46 670.027 L2078.2 670.027 L2078.2 664.634 Z" fill="#000000" fill-rule="evenodd" fill-opacity="1" /><path clip-path="url(#clip200)" d="M2110.03 675.722 L2110.03 679.703 Q2108.22 678.708 2106.39 678.222 Q2104.59 677.712 2102.73 677.712 Q2098.59 677.712 2096.3 680.351 Q2094.01 682.967 2094.01 687.712 Q2094.01 692.458 2096.3 695.096 Q2098.59 697.712 2102.73 697.712 Q2104.59 697.712 2106.39 697.226 Q2108.22 696.717 2110.03 695.721 L2110.03 699.657 Q2108.24 700.49 2106.32 700.907 Q2104.42 701.323 2102.27 701.323 Q2096.42 701.323 2092.97 697.643 Q2089.52 693.962 2089.52 687.712 Q2089.52 681.37 2092.99 677.735 Q2096.48 674.101 2102.55 674.101 Q2104.52 674.101 2106.39 674.518 Q2108.27 674.911 2110.03 675.722 Z" fill="#000000" fill-rule="evenodd" fill-opacity="1" /><path clip-path="url(#clip200)" d="M2132.69 666.092 L2152.55 666.092 L2152.55 670.027 L2137.36 670.027 L2137.36 680.212 L2151.07 680.212 L2151.07 684.147 L2137.36 684.147 L2137.36 700.652 L2132.69 700.652 L2132.69 666.092 Z" fill="#000000" fill-rule="evenodd" fill-opacity="1" /><path clip-path="url(#clip200)" d="M2159.77 664.634 L2164.03 664.634 L2164.03 700.652 L2159.77 700.652 L2159.77 664.634 Z" fill="#000000" fill-rule="evenodd" fill-opacity="1" /><path clip-path="url(#clip200)" d="M2182.99 677.712 Q2179.56 677.712 2177.57 680.397 Q2175.58 683.059 2175.58 687.712 Q2175.58 692.365 2177.55 695.05 Q2179.54 697.712 2182.99 697.712 Q2186.39 697.712 2188.38 695.027 Q2190.37 692.342 2190.37 687.712 Q2190.37 683.106 2188.38 680.421 Q2186.39 677.712 2182.99 677.712 M2182.99 674.101 Q2188.54 674.101 2191.72 677.712 Q2194.89 681.323 2194.89 687.712 Q2194.89 694.078 2191.72 697.712 Q2188.54 701.323 2182.99 701.323 Q2177.41 701.323 2174.24 697.712 Q2171.09 694.078 2171.09 687.712 Q2171.09 681.323 2174.24 677.712 Q2177.41 674.101 2182.99 674.101 Z" fill="#000000" fill-rule="evenodd" fill-opacity="1" /><path clip-path="url(#clip200)" d="M2199.47 674.726 L2203.73 674.726 L2209.05 694.958 L2214.35 674.726 L2219.38 674.726 L2224.7 694.958 L2230 674.726 L2234.26 674.726 L2227.48 700.652 L2222.46 700.652 L2216.88 679.402 L2211.28 700.652 L2206.25 700.652 L2199.47 674.726 Z" fill="#000000" fill-rule="evenodd" fill-opacity="1" /><circle clip-path="url(#clip200)" cx="1789.56" cy="735.212" r="23.04" fill="#ff0000" fill-rule="evenodd" fill-opacity="1" stroke="#000000" stroke-opacity="1" stroke-width="5.12"/>
<path clip-path="url(#clip200)" d="M1884.36 717.932 L1913.59 717.932 L1913.59 721.867 L1901.32 721.867 L1901.32 752.492 L1896.62 752.492 L1896.62 721.867 L1884.36 721.867 L1884.36 717.932 Z" fill="#000000" fill-rule="evenodd" fill-opacity="1" /><path clip-path="url(#clip200)" d="M1939.47 736.844 L1939.47 752.492 L1935.21 752.492 L1935.21 736.983 Q1935.21 733.302 1933.78 731.474 Q1932.34 729.645 1929.47 729.645 Q1926.02 729.645 1924.03 731.844 Q1922.04 734.043 1922.04 737.839 L1922.04 752.492 L1917.76 752.492 L1917.76 716.474 L1922.04 716.474 L1922.04 730.594 Q1923.57 728.256 1925.63 727.099 Q1927.71 725.941 1930.42 725.941 Q1934.89 725.941 1937.18 728.719 Q1939.47 731.474 1939.47 736.844 Z" fill="#000000" fill-rule="evenodd" fill-opacity="1" /><path clip-path="url(#clip200)" d="M1947.97 726.566 L1952.23 726.566 L1952.23 752.492 L1947.97 752.492 L1947.97 726.566 M1947.97 716.474 L1952.23 716.474 L1952.23 721.867 L1947.97 721.867 L1947.97 716.474 Z" fill="#000000" fill-rule="evenodd" fill-opacity="1" /><path clip-path="url(#clip200)" d="M1977.67 727.33 L1977.67 731.358 Q1975.86 730.432 1973.92 729.969 Q1971.97 729.506 1969.89 729.506 Q1966.72 729.506 1965.12 730.478 Q1963.55 731.45 1963.55 733.395 Q1963.55 734.876 1964.68 735.733 Q1965.81 736.566 1969.24 737.33 L1970.7 737.654 Q1975.24 738.626 1977.13 740.409 Q1979.06 742.168 1979.06 745.339 Q1979.06 748.95 1976.18 751.057 Q1973.34 753.163 1968.34 753.163 Q1966.25 753.163 1963.99 752.747 Q1961.74 752.353 1959.24 751.543 L1959.24 747.145 Q1961.6 748.372 1963.89 748.997 Q1966.18 749.598 1968.43 749.598 Q1971.44 749.598 1973.06 748.58 Q1974.68 747.538 1974.68 745.663 Q1974.68 743.927 1973.5 743.001 Q1972.34 742.075 1968.38 741.219 L1966.9 740.872 Q1962.94 740.038 1961.18 738.325 Q1959.43 736.589 1959.43 733.58 Q1959.43 729.923 1962.02 727.932 Q1964.61 725.941 1969.38 725.941 Q1971.74 725.941 1973.82 726.288 Q1975.91 726.636 1977.67 727.33 Z" fill="#000000" fill-rule="evenodd" fill-opacity="1" /><path clip-path="url(#clip200)" d="M2001.09 717.932 L2022.94 717.932 L2022.94 721.867 L2005.77 721.867 L2005.77 732.099 L2022.23 732.099 L2022.23 736.034 L2005.77 736.034 L2005.77 748.557 L2023.36 748.557 L2023.36 752.492 L2001.09 752.492 L2001.09 717.932 Z" fill="#000000" fill-rule="evenodd" fill-opacity="1" /><path clip-path="url(#clip200)" d="M2052.41 726.566 L2043.04 739.182 L2052.9 752.492 L2047.87 752.492 L2040.33 742.307 L2032.78 752.492 L2027.76 752.492 L2037.83 738.927 L2028.61 726.566 L2033.64 726.566 L2040.51 735.802 L2047.39 726.566 L2052.41 726.566 Z" fill="#000000" fill-rule="evenodd" fill-opacity="1" /><path clip-path="url(#clip200)" d="M2070.7 739.46 Q2065.54 739.46 2063.55 740.64 Q2061.55 741.821 2061.55 744.668 Q2061.55 746.936 2063.04 748.279 Q2064.54 749.598 2067.11 749.598 Q2070.65 749.598 2072.78 747.098 Q2074.93 744.575 2074.93 740.409 L2074.93 739.46 L2070.7 739.46 M2079.19 737.7 L2079.19 752.492 L2074.93 752.492 L2074.93 748.557 Q2073.48 750.918 2071.3 752.052 Q2069.12 753.163 2065.98 753.163 Q2061.99 753.163 2059.63 750.941 Q2057.3 748.696 2057.3 744.946 Q2057.3 740.571 2060.21 738.349 Q2063.15 736.126 2068.96 736.126 L2074.93 736.126 L2074.93 735.71 Q2074.93 732.77 2072.99 731.173 Q2071.07 729.552 2067.57 729.552 Q2065.35 729.552 2063.24 730.085 Q2061.14 730.617 2059.19 731.682 L2059.19 727.747 Q2061.53 726.844 2063.73 726.404 Q2065.93 725.941 2068.01 725.941 Q2073.64 725.941 2076.42 728.858 Q2079.19 731.774 2079.19 737.7 Z" fill="#000000" fill-rule="evenodd" fill-opacity="1" /><path clip-path="url(#clip200)" d="M2108.15 731.543 Q2109.75 728.673 2111.97 727.307 Q2114.19 725.941 2117.2 725.941 Q2121.25 725.941 2123.45 728.788 Q2125.65 731.612 2125.65 736.844 L2125.65 752.492 L2121.37 752.492 L2121.37 736.983 Q2121.37 733.256 2120.05 731.45 Q2118.73 729.645 2116.02 729.645 Q2112.71 729.645 2110.79 731.844 Q2108.87 734.043 2108.87 737.839 L2108.87 752.492 L2104.59 752.492 L2104.59 736.983 Q2104.59 733.233 2103.27 731.45 Q2101.95 729.645 2099.19 729.645 Q2095.93 729.645 2094.01 731.867 Q2092.09 734.066 2092.09 737.839 L2092.09 752.492 L2087.8 752.492 L2087.8 726.566 L2092.09 726.566 L2092.09 730.594 Q2093.55 728.21 2095.58 727.075 Q2097.62 725.941 2100.42 725.941 Q2103.24 725.941 2105.21 727.376 Q2107.2 728.812 2108.15 731.543 Z" fill="#000000" fill-rule="evenodd" fill-opacity="1" /><path clip-path="url(#clip200)" d="M2138.27 748.603 L2138.27 762.353 L2133.98 762.353 L2133.98 726.566 L2138.27 726.566 L2138.27 730.501 Q2139.61 728.187 2141.65 727.075 Q2143.71 725.941 2146.55 725.941 Q2151.28 725.941 2154.22 729.691 Q2157.18 733.441 2157.18 739.552 Q2157.18 745.663 2154.22 749.413 Q2151.28 753.163 2146.55 753.163 Q2143.71 753.163 2141.65 752.052 Q2139.61 750.918 2138.27 748.603 M2152.76 739.552 Q2152.76 734.853 2150.81 732.191 Q2148.89 729.506 2145.51 729.506 Q2142.13 729.506 2140.19 732.191 Q2138.27 734.853 2138.27 739.552 Q2138.27 744.251 2140.19 746.936 Q2142.13 749.598 2145.51 749.598 Q2148.89 749.598 2150.81 746.936 Q2152.76 744.251 2152.76 739.552 Z" fill="#000000" fill-rule="evenodd" fill-opacity="1" /><path clip-path="url(#clip200)" d="M2164.24 716.474 L2168.5 716.474 L2168.5 752.492 L2164.24 752.492 L2164.24 716.474 Z" fill="#000000" fill-rule="evenodd" fill-opacity="1" /><path clip-path="url(#clip200)" d="M2199.59 738.464 L2199.59 740.548 L2180 740.548 Q2180.28 744.946 2182.64 747.261 Q2185.03 749.552 2189.26 749.552 Q2191.72 749.552 2194.01 748.95 Q2196.32 748.348 2198.59 747.145 L2198.59 751.173 Q2196.3 752.145 2193.89 752.654 Q2191.48 753.163 2189.01 753.163 Q2182.8 753.163 2179.17 749.552 Q2175.56 745.941 2175.56 739.784 Q2175.56 733.418 2178.98 729.691 Q2182.43 725.941 2188.27 725.941 Q2193.5 725.941 2196.53 729.321 Q2199.59 732.677 2199.59 738.464 M2195.33 737.214 Q2195.28 733.719 2193.36 731.636 Q2191.46 729.552 2188.31 729.552 Q2184.75 729.552 2182.6 731.566 Q2180.47 733.58 2180.14 737.237 L2195.33 737.214 Z" fill="#000000" fill-rule="evenodd" fill-opacity="1" /></svg>
