<?xml version="1.0" encoding="utf-8"?>
<svg xmlns="http://www.w3.org/2000/svg" xmlns:xlink="http://www.w3.org/1999/xlink" width="600" height="400" viewBox="0 0 2400 1600">
<defs>
  <clipPath id="clip480">
    <rect x="0" y="0" width="2400" height="1600"/>
  </clipPath>
</defs>
<path clip-path="url(#clip480)" d="
M0 1600 L2400 1600 L2400 0 L0 0  Z
  " fill="#ffffff" fill-rule="evenodd" fill-opacity="1"/>
<defs>
  <clipPath id="clip481">
    <rect x="480" y="0" width="1681" height="1600"/>
  </clipPath>
</defs>
<path clip-path="url(#clip480)" d="
M249.542 1423.18 L2352.76 1423.18 L2352.76 123.472 L249.542 123.472  Z
  " fill="#ffffff" fill-rule="evenodd" fill-opacity="1"/>
<defs>
  <clipPath id="clip482">
    <rect x="249" y="123" width="2104" height="1301"/>
  </clipPath>
</defs>
<polyline clip-path="url(#clip482)" style="stroke:#000000; stroke-linecap:butt; stroke-linejoin:round; stroke-width:2; stroke-opacity:0.1; fill:none" points="
  307.478,1423.18 307.478,123.472 
  "/>
<polyline clip-path="url(#clip482)" style="stroke:#000000; stroke-linecap:butt; stroke-linejoin:round; stroke-width:2; stroke-opacity:0.1; fill:none" points="
  625.199,1423.18 625.199,123.472 
  "/>
<polyline clip-path="url(#clip482)" style="stroke:#000000; stroke-linecap:butt; stroke-linejoin:round; stroke-width:2; stroke-opacity:0.1; fill:none" points="
  942.919,1423.18 942.919,123.472 
  "/>
<polyline clip-path="url(#clip482)" style="stroke:#000000; stroke-linecap:butt; stroke-linejoin:round; stroke-width:2; stroke-opacity:0.1; fill:none" points="
  1260.64,1423.18 1260.64,123.472 
  "/>
<polyline clip-path="url(#clip482)" style="stroke:#000000; stroke-linecap:butt; stroke-linejoin:round; stroke-width:2; stroke-opacity:0.1; fill:none" points="
  1578.36,1423.18 1578.36,123.472 
  "/>
<polyline clip-path="url(#clip482)" style="stroke:#000000; stroke-linecap:butt; stroke-linejoin:round; stroke-width:2; stroke-opacity:0.1; fill:none" points="
  1896.08,1423.18 1896.08,123.472 
  "/>
<polyline clip-path="url(#clip482)" style="stroke:#000000; stroke-linecap:butt; stroke-linejoin:round; stroke-width:2; stroke-opacity:0.1; fill:none" points="
  2213.8,1423.18 2213.8,123.472 
  "/>
<polyline clip-path="url(#clip480)" style="stroke:#000000; stroke-linecap:butt; stroke-linejoin:round; stroke-width:4; stroke-opacity:1; fill:none" points="
  249.542,1423.18 2352.76,1423.18 
  "/>
<polyline clip-path="url(#clip480)" style="stroke:#000000; stroke-linecap:butt; stroke-linejoin:round; stroke-width:4; stroke-opacity:1; fill:none" points="
  307.478,1423.18 307.478,1404.28 
  "/>
<polyline clip-path="url(#clip480)" style="stroke:#000000; stroke-linecap:butt; stroke-linejoin:round; stroke-width:4; stroke-opacity:1; fill:none" points="
  625.199,1423.18 625.199,1404.28 
  "/>
<polyline clip-path="url(#clip480)" style="stroke:#000000; stroke-linecap:butt; stroke-linejoin:round; stroke-width:4; stroke-opacity:1; fill:none" points="
  942.919,1423.18 942.919,1404.28 
  "/>
<polyline clip-path="url(#clip480)" style="stroke:#000000; stroke-linecap:butt; stroke-linejoin:round; stroke-width:4; stroke-opacity:1; fill:none" points="
  1260.64,1423.18 1260.64,1404.28 
  "/>
<polyline clip-path="url(#clip480)" style="stroke:#000000; stroke-linecap:butt; stroke-linejoin:round; stroke-width:4; stroke-opacity:1; fill:none" points="
  1578.36,1423.18 1578.36,1404.28 
  "/>
<polyline clip-path="url(#clip480)" style="stroke:#000000; stroke-linecap:butt; stroke-linejoin:round; stroke-width:4; stroke-opacity:1; fill:none" points="
  1896.08,1423.18 1896.08,1404.28 
  "/>
<polyline clip-path="url(#clip480)" style="stroke:#000000; stroke-linecap:butt; stroke-linejoin:round; stroke-width:4; stroke-opacity:1; fill:none" points="
  2213.8,1423.18 2213.8,1404.28 
  "/>
<path clip-path="url(#clip480)" d="M307.478 1454.1 Q303.867 1454.1 302.039 1457.66 Q300.233 1461.2 300.233 1468.33 Q300.233 1475.44 302.039 1479.01 Q303.867 1482.55 307.478 1482.55 Q311.113 1482.55 312.918 1479.01 Q314.747 1475.44 314.747 1468.33 Q314.747 1461.2 312.918 1457.66 Q311.113 1454.1 307.478 1454.1 M307.478 1450.39 Q313.289 1450.39 316.344 1455 Q319.423 1459.58 319.423 1468.33 Q319.423 1477.06 316.344 1481.67 Q313.289 1486.25 307.478 1486.25 Q301.668 1486.25 298.59 1481.67 Q295.534 1477.06 295.534 1468.33 Q295.534 1459.58 298.59 1455 Q301.668 1450.39 307.478 1450.39 Z" fill="#000000" fill-rule="evenodd" fill-opacity="1" /><path clip-path="url(#clip480)" d="M588.891 1481.64 L605.21 1481.64 L605.21 1485.58 L583.266 1485.58 L583.266 1481.64 Q585.928 1478.89 590.511 1474.26 Q595.118 1469.61 596.298 1468.27 Q598.544 1465.74 599.423 1464.01 Q600.326 1462.25 600.326 1460.56 Q600.326 1457.8 598.382 1456.07 Q596.461 1454.33 593.359 1454.33 Q591.16 1454.33 588.706 1455.09 Q586.275 1455.86 583.498 1457.41 L583.498 1452.69 Q586.322 1451.55 588.775 1450.97 Q591.229 1450.39 593.266 1450.39 Q598.636 1450.39 601.831 1453.08 Q605.025 1455.77 605.025 1460.26 Q605.025 1462.39 604.215 1464.31 Q603.428 1466.2 601.322 1468.8 Q600.743 1469.47 597.641 1472.69 Q594.539 1475.88 588.891 1481.64 Z" fill="#000000" fill-rule="evenodd" fill-opacity="1" /><path clip-path="url(#clip480)" d="M625.025 1454.1 Q621.414 1454.1 619.585 1457.66 Q617.78 1461.2 617.78 1468.33 Q617.78 1475.44 619.585 1479.01 Q621.414 1482.55 625.025 1482.55 Q628.659 1482.55 630.465 1479.01 Q632.294 1475.44 632.294 1468.33 Q632.294 1461.2 630.465 1457.66 Q628.659 1454.1 625.025 1454.1 M625.025 1450.39 Q630.835 1450.39 633.891 1455 Q636.97 1459.58 636.97 1468.33 Q636.97 1477.06 633.891 1481.67 Q630.835 1486.25 625.025 1486.25 Q619.215 1486.25 616.136 1481.67 Q613.081 1477.06 613.081 1468.33 Q613.081 1459.58 616.136 1455 Q619.215 1450.39 625.025 1450.39 Z" fill="#000000" fill-rule="evenodd" fill-opacity="1" /><path clip-path="url(#clip480)" d="M655.187 1454.1 Q651.576 1454.1 649.747 1457.66 Q647.942 1461.2 647.942 1468.33 Q647.942 1475.44 649.747 1479.01 Q651.576 1482.55 655.187 1482.55 Q658.821 1482.55 660.627 1479.01 Q662.456 1475.44 662.456 1468.33 Q662.456 1461.2 660.627 1457.66 Q658.821 1454.1 655.187 1454.1 M655.187 1450.39 Q660.997 1450.39 664.053 1455 Q667.131 1459.58 667.131 1468.33 Q667.131 1477.06 664.053 1481.67 Q660.997 1486.25 655.187 1486.25 Q649.377 1486.25 646.298 1481.67 Q643.243 1477.06 643.243 1468.33 Q643.243 1459.58 646.298 1455 Q649.377 1450.39 655.187 1450.39 Z" fill="#000000" fill-rule="evenodd" fill-opacity="1" /><path clip-path="url(#clip480)" d="M916.01 1455.09 L904.204 1473.54 L916.01 1473.54 L916.01 1455.09 M914.783 1451.02 L920.662 1451.02 L920.662 1473.54 L925.593 1473.54 L925.593 1477.43 L920.662 1477.43 L920.662 1485.58 L916.01 1485.58 L916.01 1477.43 L900.408 1477.43 L900.408 1472.92 L914.783 1451.02 Z" fill="#000000" fill-rule="evenodd" fill-opacity="1" /><path clip-path="url(#clip480)" d="M943.324 1454.1 Q939.713 1454.1 937.884 1457.66 Q936.079 1461.2 936.079 1468.33 Q936.079 1475.44 937.884 1479.01 Q939.713 1482.55 943.324 1482.55 Q946.959 1482.55 948.764 1479.01 Q950.593 1475.44 950.593 1468.33 Q950.593 1461.2 948.764 1457.66 Q946.959 1454.1 943.324 1454.1 M943.324 1450.39 Q949.134 1450.39 952.19 1455 Q955.269 1459.58 955.269 1468.33 Q955.269 1477.06 952.19 1481.67 Q949.134 1486.25 943.324 1486.25 Q937.514 1486.25 934.435 1481.67 Q931.38 1477.06 931.38 1468.33 Q931.38 1459.58 934.435 1455 Q937.514 1450.39 943.324 1450.39 Z" fill="#000000" fill-rule="evenodd" fill-opacity="1" /><path clip-path="url(#clip480)" d="M973.486 1454.1 Q969.875 1454.1 968.046 1457.66 Q966.241 1461.2 966.241 1468.33 Q966.241 1475.44 968.046 1479.01 Q969.875 1482.55 973.486 1482.55 Q977.12 1482.55 978.926 1479.01 Q980.755 1475.44 980.755 1468.33 Q980.755 1461.2 978.926 1457.66 Q977.12 1454.1 973.486 1454.1 M973.486 1450.39 Q979.296 1450.39 982.352 1455 Q985.431 1459.58 985.431 1468.33 Q985.431 1477.06 982.352 1481.67 Q979.296 1486.25 973.486 1486.25 Q967.676 1486.25 964.597 1481.67 Q961.542 1477.06 961.542 1468.33 Q961.542 1459.58 964.597 1455 Q967.676 1450.39 973.486 1450.39 Z" fill="#000000" fill-rule="evenodd" fill-opacity="1" /><path clip-path="url(#clip480)" d="M1230.96 1466.44 Q1227.82 1466.44 1225.96 1468.59 Q1224.14 1470.74 1224.14 1474.49 Q1224.14 1478.22 1225.96 1480.39 Q1227.82 1482.55 1230.96 1482.55 Q1234.11 1482.55 1235.94 1480.39 Q1237.79 1478.22 1237.79 1474.49 Q1237.79 1470.74 1235.94 1468.59 Q1234.11 1466.44 1230.96 1466.44 M1240.25 1451.78 L1240.25 1456.04 Q1238.49 1455.21 1236.68 1454.77 Q1234.9 1454.33 1233.14 1454.33 Q1228.51 1454.33 1226.06 1457.45 Q1223.63 1460.58 1223.28 1466.9 Q1224.64 1464.89 1226.7 1463.82 Q1228.76 1462.73 1231.24 1462.73 Q1236.45 1462.73 1239.46 1465.9 Q1242.49 1469.05 1242.49 1474.49 Q1242.49 1479.82 1239.34 1483.03 Q1236.2 1486.25 1230.96 1486.25 Q1224.97 1486.25 1221.8 1481.67 Q1218.63 1477.06 1218.63 1468.33 Q1218.63 1460.14 1222.51 1455.28 Q1226.4 1450.39 1232.95 1450.39 Q1234.71 1450.39 1236.5 1450.74 Q1238.3 1451.09 1240.25 1451.78 Z" fill="#000000" fill-rule="evenodd" fill-opacity="1" /><path clip-path="url(#clip480)" d="M1260.55 1454.1 Q1256.94 1454.1 1255.11 1457.66 Q1253.3 1461.2 1253.3 1468.33 Q1253.3 1475.44 1255.11 1479.01 Q1256.94 1482.55 1260.55 1482.55 Q1264.18 1482.55 1265.99 1479.01 Q1267.82 1475.44 1267.82 1468.33 Q1267.82 1461.2 1265.99 1457.66 Q1264.18 1454.1 1260.55 1454.1 M1260.55 1450.39 Q1266.36 1450.39 1269.41 1455 Q1272.49 1459.58 1272.49 1468.33 Q1272.49 1477.06 1269.41 1481.67 Q1266.36 1486.25 1260.55 1486.25 Q1254.74 1486.25 1251.66 1481.67 Q1248.6 1477.06 1248.6 1468.33 Q1248.6 1459.58 1251.66 1455 Q1254.74 1450.39 1260.55 1450.39 Z" fill="#000000" fill-rule="evenodd" fill-opacity="1" /><path clip-path="url(#clip480)" d="M1290.71 1454.1 Q1287.1 1454.1 1285.27 1457.66 Q1283.46 1461.2 1283.46 1468.33 Q1283.46 1475.44 1285.27 1479.01 Q1287.1 1482.55 1290.71 1482.55 Q1294.34 1482.55 1296.15 1479.01 Q1297.98 1475.44 1297.98 1468.33 Q1297.98 1461.2 1296.15 1457.66 Q1294.34 1454.1 1290.71 1454.1 M1290.71 1450.39 Q1296.52 1450.39 1299.57 1455 Q1302.65 1459.58 1302.65 1468.33 Q1302.65 1477.06 1299.57 1481.67 Q1296.52 1486.25 1290.71 1486.25 Q1284.9 1486.25 1281.82 1481.67 Q1278.76 1477.06 1278.76 1468.33 Q1278.76 1459.58 1281.82 1455 Q1284.9 1450.39 1290.71 1450.39 Z" fill="#000000" fill-rule="evenodd" fill-opacity="1" /><path clip-path="url(#clip480)" d="M1548.15 1469.17 Q1544.82 1469.17 1542.9 1470.95 Q1541 1472.73 1541 1475.86 Q1541 1478.98 1542.9 1480.77 Q1544.82 1482.55 1548.15 1482.55 Q1551.49 1482.55 1553.41 1480.77 Q1555.33 1478.96 1555.33 1475.86 Q1555.33 1472.73 1553.41 1470.95 Q1551.51 1469.17 1548.15 1469.17 M1543.48 1467.18 Q1540.47 1466.44 1538.78 1464.38 Q1537.11 1462.32 1537.11 1459.35 Q1537.11 1455.21 1540.05 1452.8 Q1543.01 1450.39 1548.15 1450.39 Q1553.31 1450.39 1556.25 1452.8 Q1559.19 1455.21 1559.19 1459.35 Q1559.19 1462.32 1557.5 1464.38 Q1555.84 1466.44 1552.85 1467.18 Q1556.23 1467.96 1558.11 1470.26 Q1560 1472.55 1560 1475.86 Q1560 1480.88 1556.92 1483.57 Q1553.87 1486.25 1548.15 1486.25 Q1542.43 1486.25 1539.36 1483.57 Q1536.3 1480.88 1536.3 1475.86 Q1536.3 1472.55 1538.2 1470.26 Q1540.1 1467.96 1543.48 1467.18 M1541.76 1459.79 Q1541.76 1462.48 1543.43 1463.98 Q1545.12 1465.49 1548.15 1465.49 Q1551.16 1465.49 1552.85 1463.98 Q1554.56 1462.48 1554.56 1459.79 Q1554.56 1457.11 1552.85 1455.6 Q1551.16 1454.1 1548.15 1454.1 Q1545.12 1454.1 1543.43 1455.6 Q1541.76 1457.11 1541.76 1459.79 Z" fill="#000000" fill-rule="evenodd" fill-opacity="1" /><path clip-path="url(#clip480)" d="M1578.31 1454.1 Q1574.7 1454.1 1572.87 1457.66 Q1571.07 1461.2 1571.07 1468.33 Q1571.07 1475.44 1572.87 1479.01 Q1574.7 1482.55 1578.31 1482.55 Q1581.95 1482.55 1583.75 1479.01 Q1585.58 1475.44 1585.58 1468.33 Q1585.58 1461.2 1583.75 1457.66 Q1581.95 1454.1 1578.31 1454.1 M1578.31 1450.39 Q1584.12 1450.39 1587.18 1455 Q1590.26 1459.58 1590.26 1468.33 Q1590.26 1477.06 1587.18 1481.67 Q1584.12 1486.25 1578.31 1486.25 Q1572.5 1486.25 1569.42 1481.67 Q1566.37 1477.06 1566.37 1468.33 Q1566.37 1459.58 1569.42 1455 Q1572.5 1450.39 1578.31 1450.39 Z" fill="#000000" fill-rule="evenodd" fill-opacity="1" /><path clip-path="url(#clip480)" d="M1608.48 1454.1 Q1604.86 1454.1 1603.04 1457.66 Q1601.23 1461.2 1601.23 1468.33 Q1601.23 1475.44 1603.04 1479.01 Q1604.86 1482.55 1608.48 1482.55 Q1612.11 1482.55 1613.92 1479.01 Q1615.74 1475.44 1615.74 1468.33 Q1615.74 1461.2 1613.92 1457.66 Q1612.11 1454.1 1608.48 1454.1 M1608.48 1450.39 Q1614.29 1450.39 1617.34 1455 Q1620.42 1459.58 1620.42 1468.33 Q1620.42 1477.06 1617.34 1481.67 Q1614.29 1486.25 1608.48 1486.25 Q1602.67 1486.25 1599.59 1481.67 Q1596.53 1477.06 1596.53 1468.33 Q1596.53 1459.58 1599.59 1455 Q1602.67 1450.39 1608.48 1450.39 Z" fill="#000000" fill-rule="evenodd" fill-opacity="1" /><path clip-path="url(#clip480)" d="M1840.61 1481.64 L1848.25 1481.64 L1848.25 1455.28 L1839.93 1456.95 L1839.93 1452.69 L1848.2 1451.02 L1852.87 1451.02 L1852.87 1481.64 L1860.51 1481.64 L1860.51 1485.58 L1840.61 1485.58 L1840.61 1481.64 Z" fill="#000000" fill-rule="evenodd" fill-opacity="1" /><path clip-path="url(#clip480)" d="M1879.96 1454.1 Q1876.35 1454.1 1874.52 1457.66 Q1872.71 1461.2 1872.71 1468.33 Q1872.71 1475.44 1874.52 1479.01 Q1876.35 1482.55 1879.96 1482.55 Q1883.59 1482.55 1885.4 1479.01 Q1887.23 1475.44 1887.23 1468.33 Q1887.23 1461.2 1885.4 1457.66 Q1883.59 1454.1 1879.96 1454.1 M1879.96 1450.39 Q1885.77 1450.39 1888.82 1455 Q1891.9 1459.58 1891.9 1468.33 Q1891.9 1477.06 1888.82 1481.67 Q1885.77 1486.25 1879.96 1486.25 Q1874.15 1486.25 1871.07 1481.67 Q1868.01 1477.06 1868.01 1468.33 Q1868.01 1459.58 1871.07 1455 Q1874.15 1450.39 1879.96 1450.39 Z" fill="#000000" fill-rule="evenodd" fill-opacity="1" /><path clip-path="url(#clip480)" d="M1910.12 1454.1 Q1906.51 1454.1 1904.68 1457.66 Q1902.87 1461.2 1902.87 1468.33 Q1902.87 1475.44 1904.68 1479.01 Q1906.51 1482.55 1910.12 1482.55 Q1913.75 1482.55 1915.56 1479.01 Q1917.39 1475.44 1917.39 1468.33 Q1917.39 1461.2 1915.56 1457.66 Q1913.75 1454.1 1910.12 1454.1 M1910.12 1450.39 Q1915.93 1450.39 1918.99 1455 Q1922.06 1459.58 1922.06 1468.33 Q1922.06 1477.06 1918.99 1481.67 Q1915.93 1486.25 1910.12 1486.25 Q1904.31 1486.25 1901.23 1481.67 Q1898.18 1477.06 1898.18 1468.33 Q1898.18 1459.58 1901.23 1455 Q1904.31 1450.39 1910.12 1450.39 Z" fill="#000000" fill-rule="evenodd" fill-opacity="1" /><path clip-path="url(#clip480)" d="M1940.28 1454.1 Q1936.67 1454.1 1934.84 1457.66 Q1933.04 1461.2 1933.04 1468.33 Q1933.04 1475.44 1934.84 1479.01 Q1936.67 1482.55 1940.28 1482.55 Q1943.92 1482.55 1945.72 1479.01 Q1947.55 1475.44 1947.55 1468.33 Q1947.55 1461.2 1945.72 1457.66 Q1943.92 1454.1 1940.28 1454.1 M1940.28 1450.39 Q1946.09 1450.39 1949.15 1455 Q1952.23 1459.58 1952.23 1468.33 Q1952.23 1477.06 1949.15 1481.67 Q1946.09 1486.25 1940.28 1486.25 Q1934.47 1486.25 1931.39 1481.67 Q1928.34 1477.06 1928.34 1468.33 Q1928.34 1459.58 1931.39 1455 Q1934.47 1450.39 1940.28 1450.39 Z" fill="#000000" fill-rule="evenodd" fill-opacity="1" /><path clip-path="url(#clip480)" d="M2158.33 1481.64 L2165.97 1481.64 L2165.97 1455.28 L2157.66 1456.95 L2157.66 1452.69 L2165.92 1451.02 L2170.6 1451.02 L2170.6 1481.64 L2178.23 1481.64 L2178.23 1485.58 L2158.33 1485.58 L2158.33 1481.64 Z" fill="#000000" fill-rule="evenodd" fill-opacity="1" /><path clip-path="url(#clip480)" d="M2191.71 1481.64 L2208.03 1481.64 L2208.03 1485.58 L2186.08 1485.58 L2186.08 1481.64 Q2188.74 1478.89 2193.33 1474.26 Q2197.93 1469.61 2199.11 1468.27 Q2201.36 1465.74 2202.24 1464.01 Q2203.14 1462.25 2203.14 1460.56 Q2203.14 1457.8 2201.2 1456.07 Q2199.28 1454.33 2196.17 1454.33 Q2193.97 1454.33 2191.52 1455.09 Q2189.09 1455.86 2186.31 1457.41 L2186.31 1452.69 Q2189.14 1451.55 2191.59 1450.97 Q2194.04 1450.39 2196.08 1450.39 Q2201.45 1450.39 2204.65 1453.08 Q2207.84 1455.77 2207.84 1460.26 Q2207.84 1462.39 2207.03 1464.31 Q2206.24 1466.2 2204.14 1468.8 Q2203.56 1469.47 2200.46 1472.69 Q2197.35 1475.88 2191.71 1481.64 Z" fill="#000000" fill-rule="evenodd" fill-opacity="1" /><path clip-path="url(#clip480)" d="M2227.84 1454.1 Q2224.23 1454.1 2222.4 1457.66 Q2220.59 1461.2 2220.59 1468.33 Q2220.59 1475.44 2222.4 1479.01 Q2224.23 1482.55 2227.84 1482.55 Q2231.47 1482.55 2233.28 1479.01 Q2235.11 1475.44 2235.11 1468.33 Q2235.11 1461.2 2233.28 1457.66 Q2231.47 1454.1 2227.84 1454.1 M2227.84 1450.39 Q2233.65 1450.39 2236.71 1455 Q2239.78 1459.58 2239.78 1468.33 Q2239.78 1477.06 2236.71 1481.67 Q2233.65 1486.25 2227.84 1486.25 Q2222.03 1486.25 2218.95 1481.67 Q2215.9 1477.06 2215.9 1468.33 Q2215.9 1459.58 2218.95 1455 Q2222.03 1450.39 2227.84 1450.39 Z" fill="#000000" fill-rule="evenodd" fill-opacity="1" /><path clip-path="url(#clip480)" d="M2258 1454.1 Q2254.39 1454.1 2252.56 1457.66 Q2250.76 1461.2 2250.76 1468.33 Q2250.76 1475.44 2252.56 1479.01 Q2254.39 1482.55 2258 1482.55 Q2261.64 1482.55 2263.44 1479.01 Q2265.27 1475.44 2265.27 1468.33 Q2265.27 1461.2 2263.44 1457.66 Q2261.64 1454.1 2258 1454.1 M2258 1450.39 Q2263.81 1450.39 2266.87 1455 Q2269.95 1459.58 2269.95 1468.33 Q2269.95 1477.06 2266.87 1481.67 Q2263.81 1486.25 2258 1486.25 Q2252.19 1486.25 2249.11 1481.67 Q2246.06 1477.06 2246.06 1468.33 Q2246.06 1459.58 2249.11 1455 Q2252.19 1450.39 2258 1450.39 Z" fill="#000000" fill-rule="evenodd" fill-opacity="1" /><path clip-path="url(#clip480)" d="M1191.2 1526.86 L1178.15 1562.7 L1204.28 1562.7 L1191.2 1526.86 M1169.43 1568.04 L1187.57 1520.52 L1194.86 1520.52 L1212.97 1568.04 L1169.43 1568.04 Z" fill="#000000" fill-rule="evenodd" fill-opacity="1" /><path clip-path="url(#clip480)" d="M1226.34 1525.81 L1226.34 1543.66 L1234.42 1543.66 Q1238.91 1543.66 1241.36 1541.34 Q1243.81 1539.02 1243.81 1534.72 Q1243.81 1530.45 1241.36 1528.13 Q1238.91 1525.81 1234.42 1525.81 L1226.34 1525.81 M1219.91 1520.52 L1234.42 1520.52 Q1242.41 1520.52 1246.48 1524.15 Q1250.59 1527.75 1250.59 1534.72 Q1250.59 1541.75 1246.48 1545.35 Q1242.41 1548.95 1234.42 1548.95 L1226.34 1548.95 L1226.34 1568.04 L1219.91 1568.04 L1219.91 1520.52 Z" fill="#000000" fill-rule="evenodd" fill-opacity="1" /><path clip-path="url(#clip480)" d="M1293.75 1518.58 Q1289.48 1525.9 1287.41 1533.06 Q1285.35 1540.23 1285.35 1547.58 Q1285.35 1554.93 1287.41 1562.16 Q1289.52 1569.35 1293.75 1576.64 L1288.66 1576.64 Q1283.88 1569.16 1281.49 1561.93 Q1279.14 1554.71 1279.14 1547.58 Q1279.14 1540.48 1281.49 1533.29 Q1283.85 1526.09 1288.66 1518.58 L1293.75 1518.58 Z" fill="#000000" fill-rule="evenodd" fill-opacity="1" /><path clip-path="url(#clip480)" d="M1304.89 1518.52 L1310.78 1518.52 L1310.78 1547.77 L1328.25 1532.4 L1335.73 1532.4 L1316.82 1549.07 L1336.53 1568.04 L1328.89 1568.04 L1310.78 1550.63 L1310.78 1568.04 L1304.89 1568.04 L1304.89 1518.52 Z" fill="#000000" fill-rule="evenodd" fill-opacity="1" /><path clip-path="url(#clip480)" d="M1349.54 1525.81 L1349.54 1543.66 L1357.63 1543.66 Q1362.12 1543.66 1364.57 1541.34 Q1367.02 1539.02 1367.02 1534.72 Q1367.02 1530.45 1364.57 1528.13 Q1362.12 1525.81 1357.63 1525.81 L1349.54 1525.81 M1343.11 1520.52 L1357.63 1520.52 Q1365.62 1520.52 1369.69 1524.15 Q1373.8 1527.75 1373.8 1534.72 Q1373.8 1541.75 1369.69 1545.35 Q1365.62 1548.95 1357.63 1548.95 L1349.54 1548.95 L1349.54 1568.04 L1343.11 1568.04 L1343.11 1520.52 Z" fill="#000000" fill-rule="evenodd" fill-opacity="1" /><path clip-path="url(#clip480)" d="M1395.44 1550.12 Q1388.34 1550.12 1385.61 1551.75 Q1382.87 1553.37 1382.87 1557.29 Q1382.87 1560.4 1384.91 1562.25 Q1386.97 1564.07 1390.51 1564.07 Q1395.38 1564.07 1398.31 1560.63 Q1401.27 1557.16 1401.27 1551.43 L1401.27 1550.12 L1395.44 1550.12 M1407.12 1547.71 L1407.12 1568.04 L1401.27 1568.04 L1401.27 1562.63 Q1399.26 1565.88 1396.27 1567.44 Q1393.28 1568.97 1388.95 1568.97 Q1383.47 1568.97 1380.23 1565.91 Q1377.01 1562.82 1377.01 1557.67 Q1377.01 1551.65 1381.02 1548.6 Q1385.06 1545.54 1393.05 1545.54 L1401.27 1545.54 L1401.27 1544.97 Q1401.27 1540.93 1398.59 1538.73 Q1395.95 1536.5 1391.14 1536.5 Q1388.09 1536.5 1385.19 1537.23 Q1382.3 1537.97 1379.62 1539.43 L1379.62 1534.02 Q1382.84 1532.78 1385.86 1532.17 Q1388.88 1531.54 1391.75 1531.54 Q1399.48 1531.54 1403.3 1535.55 Q1407.12 1539.56 1407.12 1547.71 Z" fill="#000000" fill-rule="evenodd" fill-opacity="1" /><path clip-path="url(#clip480)" d="M1418.26 1518.58 L1423.35 1518.58 Q1428.13 1526.09 1430.48 1533.29 Q1432.87 1540.48 1432.87 1547.58 Q1432.87 1554.71 1430.48 1561.93 Q1428.13 1569.16 1423.35 1576.64 L1418.26 1576.64 Q1422.5 1569.35 1424.56 1562.16 Q1426.66 1554.93 1426.66 1547.58 Q1426.66 1540.23 1424.56 1533.06 Q1422.5 1525.9 1418.26 1518.58 Z" fill="#000000" fill-rule="evenodd" fill-opacity="1" /><polyline clip-path="url(#clip482)" style="stroke:#000000; stroke-linecap:butt; stroke-linejoin:round; stroke-width:2; stroke-opacity:0.1; fill:none" points="
  249.542,1399.8 2352.76,1399.8 
  "/>
<polyline clip-path="url(#clip482)" style="stroke:#000000; stroke-linecap:butt; stroke-linejoin:round; stroke-width:2; stroke-opacity:0.1; fill:none" points="
  249.542,1087.83 2352.76,1087.83 
  "/>
<polyline clip-path="url(#clip482)" style="stroke:#000000; stroke-linecap:butt; stroke-linejoin:round; stroke-width:2; stroke-opacity:0.1; fill:none" points="
  249.542,775.856 2352.76,775.856 
  "/>
<polyline clip-path="url(#clip482)" style="stroke:#000000; stroke-linecap:butt; stroke-linejoin:round; stroke-width:2; stroke-opacity:0.1; fill:none" points="
  249.542,463.886 2352.76,463.886 
  "/>
<polyline clip-path="url(#clip482)" style="stroke:#000000; stroke-linecap:butt; stroke-linejoin:round; stroke-width:2; stroke-opacity:0.1; fill:none" points="
  249.542,151.915 2352.76,151.915 
  "/>
<polyline clip-path="url(#clip480)" style="stroke:#000000; stroke-linecap:butt; stroke-linejoin:round; stroke-width:4; stroke-opacity:1; fill:none" points="
  249.542,1423.18 249.542,123.472 
  "/>
<polyline clip-path="url(#clip480)" style="stroke:#000000; stroke-linecap:butt; stroke-linejoin:round; stroke-width:4; stroke-opacity:1; fill:none" points="
  249.542,1399.8 268.44,1399.8 
  "/>
<polyline clip-path="url(#clip480)" style="stroke:#000000; stroke-linecap:butt; stroke-linejoin:round; stroke-width:4; stroke-opacity:1; fill:none" points="
  249.542,1087.83 268.44,1087.83 
  "/>
<polyline clip-path="url(#clip480)" style="stroke:#000000; stroke-linecap:butt; stroke-linejoin:round; stroke-width:4; stroke-opacity:1; fill:none" points="
  249.542,775.856 268.44,775.856 
  "/>
<polyline clip-path="url(#clip480)" style="stroke:#000000; stroke-linecap:butt; stroke-linejoin:round; stroke-width:4; stroke-opacity:1; fill:none" points="
  249.542,463.886 268.44,463.886 
  "/>
<polyline clip-path="url(#clip480)" style="stroke:#000000; stroke-linecap:butt; stroke-linejoin:round; stroke-width:4; stroke-opacity:1; fill:none" points="
  249.542,151.915 268.44,151.915 
  "/>
<path clip-path="url(#clip480)" d="M126.205 1385.6 Q122.593 1385.6 120.765 1389.16 Q118.959 1392.7 118.959 1399.83 Q118.959 1406.94 120.765 1410.5 Q122.593 1414.04 126.205 1414.04 Q129.839 1414.04 131.644 1410.5 Q133.473 1406.94 133.473 1399.83 Q133.473 1392.7 131.644 1389.16 Q129.839 1385.6 126.205 1385.6 M126.205 1381.89 Q132.015 1381.89 135.07 1386.5 Q138.149 1391.08 138.149 1399.83 Q138.149 1408.56 135.07 1413.17 Q132.015 1417.75 126.205 1417.75 Q120.394 1417.75 117.316 1413.17 Q114.26 1408.56 114.26 1399.83 Q114.26 1391.08 117.316 1386.5 Q120.394 1381.89 126.205 1381.89 Z" fill="#000000" fill-rule="evenodd" fill-opacity="1" /><path clip-path="url(#clip480)" d="M146.366 1411.2 L151.251 1411.2 L151.251 1417.08 L146.366 1417.08 L146.366 1411.2 Z" fill="#000000" fill-rule="evenodd" fill-opacity="1" /><path clip-path="url(#clip480)" d="M171.436 1385.6 Q167.825 1385.6 165.996 1389.16 Q164.19 1392.7 164.19 1399.83 Q164.19 1406.94 165.996 1410.5 Q167.825 1414.04 171.436 1414.04 Q175.07 1414.04 176.876 1410.5 Q178.704 1406.94 178.704 1399.83 Q178.704 1392.7 176.876 1389.16 Q175.07 1385.6 171.436 1385.6 M171.436 1381.89 Q177.246 1381.89 180.301 1386.5 Q183.38 1391.08 183.38 1399.83 Q183.38 1408.56 180.301 1413.17 Q177.246 1417.75 171.436 1417.75 Q165.626 1417.75 162.547 1413.17 Q159.491 1408.56 159.491 1399.83 Q159.491 1391.08 162.547 1386.5 Q165.626 1381.89 171.436 1381.89 Z" fill="#000000" fill-rule="evenodd" fill-opacity="1" /><path clip-path="url(#clip480)" d="M201.598 1385.6 Q197.987 1385.6 196.158 1389.16 Q194.352 1392.7 194.352 1399.83 Q194.352 1406.94 196.158 1410.5 Q197.987 1414.04 201.598 1414.04 Q205.232 1414.04 207.037 1410.5 Q208.866 1406.94 208.866 1399.83 Q208.866 1392.7 207.037 1389.16 Q205.232 1385.6 201.598 1385.6 M201.598 1381.89 Q207.408 1381.89 210.463 1386.5 Q213.542 1391.08 213.542 1399.83 Q213.542 1408.56 210.463 1413.17 Q207.408 1417.75 201.598 1417.75 Q195.787 1417.75 192.709 1413.17 Q189.653 1408.56 189.653 1399.83 Q189.653 1391.08 192.709 1386.5 Q195.787 1381.89 201.598 1381.89 Z" fill="#000000" fill-rule="evenodd" fill-opacity="1" /><path clip-path="url(#clip480)" d="M127.2 1073.63 Q123.589 1073.63 121.76 1077.19 Q119.955 1080.73 119.955 1087.86 Q119.955 1094.97 121.76 1098.53 Q123.589 1102.07 127.2 1102.07 Q130.834 1102.07 132.64 1098.53 Q134.468 1094.97 134.468 1087.86 Q134.468 1080.73 132.64 1077.19 Q130.834 1073.63 127.2 1073.63 M127.2 1069.92 Q133.01 1069.92 136.066 1074.53 Q139.144 1079.11 139.144 1087.86 Q139.144 1096.59 136.066 1101.19 Q133.01 1105.78 127.2 1105.78 Q121.39 1105.78 118.311 1101.19 Q115.256 1096.59 115.256 1087.86 Q115.256 1079.11 118.311 1074.53 Q121.39 1069.92 127.2 1069.92 Z" fill="#000000" fill-rule="evenodd" fill-opacity="1" /><path clip-path="url(#clip480)" d="M147.362 1099.23 L152.246 1099.23 L152.246 1105.11 L147.362 1105.11 L147.362 1099.23 Z" fill="#000000" fill-rule="evenodd" fill-opacity="1" /><path clip-path="url(#clip480)" d="M166.459 1101.17 L182.778 1101.17 L182.778 1105.11 L160.834 1105.11 L160.834 1101.17 Q163.496 1098.42 168.079 1093.79 Q172.686 1089.13 173.866 1087.79 Q176.112 1085.27 176.991 1083.53 Q177.894 1081.77 177.894 1080.08 Q177.894 1077.33 175.95 1075.59 Q174.028 1073.86 170.927 1073.86 Q168.727 1073.86 166.274 1074.62 Q163.843 1075.38 161.065 1076.94 L161.065 1072.21 Q163.89 1071.08 166.343 1070.5 Q168.797 1069.92 170.834 1069.92 Q176.204 1069.92 179.399 1072.61 Q182.593 1075.29 182.593 1079.78 Q182.593 1081.91 181.783 1083.83 Q180.996 1085.73 178.889 1088.32 Q178.311 1089 175.209 1092.21 Q172.107 1095.41 166.459 1101.17 Z" fill="#000000" fill-rule="evenodd" fill-opacity="1" /><path clip-path="url(#clip480)" d="M192.639 1070.55 L210.996 1070.55 L210.996 1074.48 L196.922 1074.48 L196.922 1082.95 Q197.94 1082.61 198.959 1082.44 Q199.977 1082.26 200.996 1082.26 Q206.783 1082.26 210.162 1085.43 Q213.542 1088.6 213.542 1094.02 Q213.542 1099.6 210.07 1102.7 Q206.598 1105.78 200.278 1105.78 Q198.102 1105.78 195.834 1105.41 Q193.588 1105.04 191.181 1104.3 L191.181 1099.6 Q193.264 1100.73 195.487 1101.29 Q197.709 1101.84 200.186 1101.84 Q204.19 1101.84 206.528 1099.74 Q208.866 1097.63 208.866 1094.02 Q208.866 1090.41 206.528 1088.3 Q204.19 1086.19 200.186 1086.19 Q198.311 1086.19 196.436 1086.61 Q194.584 1087.03 192.639 1087.91 L192.639 1070.55 Z" fill="#000000" fill-rule="evenodd" fill-opacity="1" /><path clip-path="url(#clip480)" d="M126.205 761.655 Q122.593 761.655 120.765 765.22 Q118.959 768.761 118.959 775.891 Q118.959 782.997 120.765 786.562 Q122.593 790.104 126.205 790.104 Q129.839 790.104 131.644 786.562 Q133.473 782.997 133.473 775.891 Q133.473 768.761 131.644 765.22 Q129.839 761.655 126.205 761.655 M126.205 757.951 Q132.015 757.951 135.07 762.558 Q138.149 767.141 138.149 775.891 Q138.149 784.618 135.07 789.224 Q132.015 793.807 126.205 793.807 Q120.394 793.807 117.316 789.224 Q114.26 784.618 114.26 775.891 Q114.26 767.141 117.316 762.558 Q120.394 757.951 126.205 757.951 Z" fill="#000000" fill-rule="evenodd" fill-opacity="1" /><path clip-path="url(#clip480)" d="M146.366 787.256 L151.251 787.256 L151.251 793.136 L146.366 793.136 L146.366 787.256 Z" fill="#000000" fill-rule="evenodd" fill-opacity="1" /><path clip-path="url(#clip480)" d="M161.482 758.576 L179.839 758.576 L179.839 762.511 L165.765 762.511 L165.765 770.983 Q166.783 770.636 167.802 770.474 Q168.82 770.289 169.839 770.289 Q175.626 770.289 179.005 773.46 Q182.385 776.632 182.385 782.048 Q182.385 787.627 178.913 790.729 Q175.44 793.807 169.121 793.807 Q166.945 793.807 164.677 793.437 Q162.431 793.067 160.024 792.326 L160.024 787.627 Q162.107 788.761 164.329 789.317 Q166.552 789.872 169.028 789.872 Q173.033 789.872 175.371 787.766 Q177.709 785.659 177.709 782.048 Q177.709 778.437 175.371 776.331 Q173.033 774.224 169.028 774.224 Q167.153 774.224 165.278 774.641 Q163.427 775.057 161.482 775.937 L161.482 758.576 Z" fill="#000000" fill-rule="evenodd" fill-opacity="1" /><path clip-path="url(#clip480)" d="M201.598 761.655 Q197.987 761.655 196.158 765.22 Q194.352 768.761 194.352 775.891 Q194.352 782.997 196.158 786.562 Q197.987 790.104 201.598 790.104 Q205.232 790.104 207.037 786.562 Q208.866 782.997 208.866 775.891 Q208.866 768.761 207.037 765.22 Q205.232 761.655 201.598 761.655 M201.598 757.951 Q207.408 757.951 210.463 762.558 Q213.542 767.141 213.542 775.891 Q213.542 784.618 210.463 789.224 Q207.408 793.807 201.598 793.807 Q195.787 793.807 192.709 789.224 Q189.653 784.618 189.653 775.891 Q189.653 767.141 192.709 762.558 Q195.787 757.951 201.598 757.951 Z" fill="#000000" fill-rule="evenodd" fill-opacity="1" /><path clip-path="url(#clip480)" d="M127.2 449.684 Q123.589 449.684 121.76 453.249 Q119.955 456.791 119.955 463.92 Q119.955 471.027 121.76 474.591 Q123.589 478.133 127.2 478.133 Q130.834 478.133 132.64 474.591 Q134.468 471.027 134.468 463.92 Q134.468 456.791 132.64 453.249 Q130.834 449.684 127.2 449.684 M127.2 445.981 Q133.01 445.981 136.066 450.587 Q139.144 455.17 139.144 463.92 Q139.144 472.647 136.066 477.253 Q133.01 481.837 127.2 481.837 Q121.39 481.837 118.311 477.253 Q115.256 472.647 115.256 463.92 Q115.256 455.17 118.311 450.587 Q121.39 445.981 127.2 445.981 Z" fill="#000000" fill-rule="evenodd" fill-opacity="1" /><path clip-path="url(#clip480)" d="M147.362 475.286 L152.246 475.286 L152.246 481.166 L147.362 481.166 L147.362 475.286 Z" fill="#000000" fill-rule="evenodd" fill-opacity="1" /><path clip-path="url(#clip480)" d="M161.251 446.606 L183.473 446.606 L183.473 448.596 L170.927 481.166 L166.042 481.166 L177.848 450.541 L161.251 450.541 L161.251 446.606 Z" fill="#000000" fill-rule="evenodd" fill-opacity="1" /><path clip-path="url(#clip480)" d="M192.639 446.606 L210.996 446.606 L210.996 450.541 L196.922 450.541 L196.922 459.013 Q197.94 458.666 198.959 458.504 Q199.977 458.318 200.996 458.318 Q206.783 458.318 210.162 461.49 Q213.542 464.661 213.542 470.078 Q213.542 475.656 210.07 478.758 Q206.598 481.837 200.278 481.837 Q198.102 481.837 195.834 481.466 Q193.588 481.096 191.181 480.355 L191.181 475.656 Q193.264 476.791 195.487 477.346 Q197.709 477.902 200.186 477.902 Q204.19 477.902 206.528 475.795 Q208.866 473.689 208.866 470.078 Q208.866 466.467 206.528 464.36 Q204.19 462.254 200.186 462.254 Q198.311 462.254 196.436 462.67 Q194.584 463.087 192.639 463.967 L192.639 446.606 Z" fill="#000000" fill-rule="evenodd" fill-opacity="1" /><path clip-path="url(#clip480)" d="M117.015 165.26 L124.654 165.26 L124.654 138.894 L116.343 140.561 L116.343 136.302 L124.607 134.635 L129.283 134.635 L129.283 165.26 L136.922 165.26 L136.922 169.195 L117.015 169.195 L117.015 165.26 Z" fill="#000000" fill-rule="evenodd" fill-opacity="1" /><path clip-path="url(#clip480)" d="M146.366 163.315 L151.251 163.315 L151.251 169.195 L146.366 169.195 L146.366 163.315 Z" fill="#000000" fill-rule="evenodd" fill-opacity="1" /><path clip-path="url(#clip480)" d="M171.436 137.714 Q167.825 137.714 165.996 141.278 Q164.19 144.82 164.19 151.95 Q164.19 159.056 165.996 162.621 Q167.825 166.163 171.436 166.163 Q175.07 166.163 176.876 162.621 Q178.704 159.056 178.704 151.95 Q178.704 144.82 176.876 141.278 Q175.07 137.714 171.436 137.714 M171.436 134.01 Q177.246 134.01 180.301 138.616 Q183.38 143.2 183.38 151.95 Q183.38 160.676 180.301 165.283 Q177.246 169.866 171.436 169.866 Q165.626 169.866 162.547 165.283 Q159.491 160.676 159.491 151.95 Q159.491 143.2 162.547 138.616 Q165.626 134.01 171.436 134.01 Z" fill="#000000" fill-rule="evenodd" fill-opacity="1" /><path clip-path="url(#clip480)" d="M201.598 137.714 Q197.987 137.714 196.158 141.278 Q194.352 144.82 194.352 151.95 Q194.352 159.056 196.158 162.621 Q197.987 166.163 201.598 166.163 Q205.232 166.163 207.037 162.621 Q208.866 159.056 208.866 151.95 Q208.866 144.82 207.037 141.278 Q205.232 137.714 201.598 137.714 M201.598 134.01 Q207.408 134.01 210.463 138.616 Q213.542 143.2 213.542 151.95 Q213.542 160.676 210.463 165.283 Q207.408 169.866 201.598 169.866 Q195.787 169.866 192.709 165.283 Q189.653 160.676 189.653 151.95 Q189.653 143.2 192.709 138.616 Q195.787 134.01 201.598 134.01 Z" fill="#000000" fill-rule="evenodd" fill-opacity="1" /><path clip-path="url(#clip480)" d="M35.1993 874.652 Q31.2526 872.456 29.3747 869.4 Q27.4968 866.345 27.4968 862.207 Q27.4968 856.637 31.4117 853.613 Q35.2948 850.59 42.4881 850.59 L64.0042 850.59 L64.0042 856.478 L42.679 856.478 Q37.5546 856.478 35.072 858.292 Q32.5894 860.106 32.5894 863.83 Q32.5894 868.382 35.6131 871.024 Q38.6368 873.665 43.8567 873.665 L64.0042 873.665 L64.0042 879.554 L42.679 879.554 Q37.5228 879.554 35.072 881.368 Q32.5894 883.182 32.5894 886.97 Q32.5894 891.458 35.6449 894.099 Q38.6686 896.741 43.8567 896.741 L64.0042 896.741 L64.0042 902.629 L28.3562 902.629 L28.3562 896.741 L33.8944 896.741 Q30.616 894.736 29.0564 891.935 Q27.4968 889.134 27.4968 885.283 Q27.4968 881.4 29.4702 878.694 Q31.4436 875.957 35.1993 874.652 Z" fill="#000000" fill-rule="evenodd" fill-opacity="1" /><path clip-path="url(#clip480)" d="M14.479 864.34 L14.479 858.483 L21.895 858.483 L21.895 864.34 L14.479 864.34 M27.4968 861.348 L27.4968 861.348 Z" fill="#000000" fill-rule="evenodd" fill-opacity="1" /><path clip-path="url(#clip480)" d="M14.5426 804.12 Q21.8632 808.385 29.0246 810.454 Q36.186 812.523 43.5384 812.523 Q50.8908 812.523 58.1159 810.454 Q65.3091 808.353 72.5979 804.12 L72.5979 809.213 Q65.1182 813.987 57.8931 816.374 Q50.668 818.729 43.5384 818.729 Q36.4406 818.729 29.2474 816.374 Q22.0542 814.019 14.5426 809.213 L14.5426 804.12 Z" fill="#000000" fill-rule="evenodd" fill-opacity="1" /><path clip-path="url(#clip480)" d="M14.479 792.98 L14.479 787.092 L43.7294 787.092 L28.3562 769.618 L28.3562 762.138 L45.0344 781.044 L64.0042 761.343 L64.0042 768.981 L46.5939 787.092 L64.0042 787.092 L64.0042 792.98 L14.479 792.98 Z" fill="#000000" fill-rule="evenodd" fill-opacity="1" /><path clip-path="url(#clip480)" d="M45.7664 731.551 Q39.4007 731.551 35.8996 734.193 Q32.3984 736.803 32.3984 741.545 Q32.3984 746.256 35.8996 748.898 Q39.4007 751.508 45.7664 751.508 Q52.1003 751.508 55.6014 748.898 Q59.1026 746.256 59.1026 741.545 Q59.1026 736.803 55.6014 734.193 Q52.1003 731.551 45.7664 731.551 M59.58 725.695 Q68.683 725.695 73.1071 729.737 Q77.5631 733.779 77.5631 742.118 Q77.5631 745.205 77.0857 747.943 Q76.6401 750.68 75.6852 753.258 L69.9879 753.258 Q71.3884 750.68 72.0568 748.166 Q72.7252 745.651 72.7252 743.041 Q72.7252 737.28 69.7015 734.416 Q66.7096 731.551 60.6303 731.551 L57.7339 731.551 Q60.885 733.365 62.4446 736.198 Q64.0042 739.031 64.0042 742.977 Q64.0042 749.534 59.0071 753.545 Q54.01 757.555 45.7664 757.555 Q37.491 757.555 32.4939 753.545 Q27.4968 749.534 27.4968 742.977 Q27.4968 739.031 29.0564 736.198 Q30.616 733.365 33.7671 731.551 L28.3562 731.551 L28.3562 725.695 L59.58 725.695 Z" fill="#000000" fill-rule="evenodd" fill-opacity="1" /><path clip-path="url(#clip480)" d="M16.4842 703.224 L16.4842 697.813 L70.0516 714.364 L70.0516 719.774 L16.4842 703.224 Z" fill="#000000" fill-rule="evenodd" fill-opacity="1" /><path clip-path="url(#clip480)" d="M29.4065 668.944 L34.9447 668.944 Q33.6716 671.427 33.035 674.101 Q32.3984 676.774 32.3984 679.639 Q32.3984 683.999 33.7352 686.195 Q35.072 688.36 37.7456 688.36 Q39.7826 688.36 40.9603 686.8 Q42.1061 685.241 43.1565 680.53 L43.6021 678.525 Q44.9389 672.286 47.3897 669.676 Q49.8086 667.035 54.1691 667.035 Q59.1344 667.035 62.0308 670.981 Q64.9272 674.896 64.9272 681.771 Q64.9272 684.636 64.3543 687.755 Q63.8132 690.842 62.6992 694.28 L56.6518 694.28 Q58.3387 691.033 59.198 687.882 Q60.0256 684.731 60.0256 681.644 Q60.0256 677.506 58.6251 675.278 Q57.1929 673.05 54.6147 673.05 Q52.2276 673.05 50.9545 674.673 Q49.6813 676.265 48.5037 681.708 L48.0262 683.745 Q46.8804 689.187 44.5251 691.606 Q42.138 694.025 38.0002 694.025 Q32.9713 694.025 30.2341 690.46 Q27.4968 686.896 27.4968 680.339 Q27.4968 677.092 27.9743 674.228 Q28.4517 671.363 29.4065 668.944 Z" fill="#000000" fill-rule="evenodd" fill-opacity="1" /><path clip-path="url(#clip480)" d="M14.5426 658.632 L14.5426 653.539 Q22.0542 648.765 29.2474 646.41 Q36.4406 644.023 43.5384 644.023 Q50.668 644.023 57.8931 646.41 Q65.1182 648.765 72.5979 653.539 L72.5979 658.632 Q65.3091 654.399 58.1159 652.33 Q50.8908 650.229 43.5384 650.229 Q36.186 650.229 29.0246 652.33 Q21.8632 654.399 14.5426 658.632 Z" fill="#000000" fill-rule="evenodd" fill-opacity="1" /><path clip-path="url(#clip480)" d="M551.347 12.096 L586.104 12.096 L586.104 18.9825 L559.53 18.9825 L559.53 36.8065 L583.511 36.8065 L583.511 43.6931 L559.53 43.6931 L559.53 72.576 L551.347 72.576 L551.347 12.096 Z" fill="#000000" fill-rule="evenodd" fill-opacity="1" /><path clip-path="url(#clip480)" d="M611.746 49.7694 Q602.712 49.7694 599.229 51.8354 Q595.745 53.9013 595.745 58.8839 Q595.745 62.8538 598.337 65.2034 Q600.97 67.5124 605.467 67.5124 Q611.665 67.5124 615.392 63.1374 Q619.159 58.7219 619.159 51.4303 L619.159 49.7694 L611.746 49.7694 M626.613 46.6907 L626.613 72.576 L619.159 72.576 L619.159 65.6895 Q616.607 69.8214 612.799 71.8063 Q608.991 73.7508 603.482 73.7508 Q596.514 73.7508 592.383 69.8619 Q588.291 65.9325 588.291 59.3701 Q588.291 51.7138 593.395 47.825 Q598.54 43.9361 608.708 43.9361 L619.159 43.9361 L619.159 43.2069 Q619.159 38.0623 615.756 35.2672 Q612.394 32.4315 606.277 32.4315 Q602.388 32.4315 598.702 33.3632 Q595.016 34.295 591.613 36.1584 L591.613 29.2718 Q595.704 27.692 599.553 26.9223 Q603.401 26.1121 607.047 26.1121 Q616.89 26.1121 621.752 31.2163 Q626.613 36.3204 626.613 46.6907 Z" fill="#000000" fill-rule="evenodd" fill-opacity="1" /><path clip-path="url(#clip480)" d="M679.679 45.1919 L679.679 72.576 L672.226 72.576 L672.226 45.4349 Q672.226 38.994 669.714 35.7938 Q667.203 32.5936 662.18 32.5936 Q656.144 32.5936 652.66 36.4419 Q649.176 40.2903 649.176 46.9338 L649.176 72.576 L641.682 72.576 L641.682 27.2059 L649.176 27.2059 L649.176 34.2544 Q651.85 30.163 655.455 28.1376 Q659.101 26.1121 663.84 26.1121 Q671.659 26.1121 675.669 30.9732 Q679.679 35.7938 679.679 45.1919 Z" fill="#000000" fill-rule="evenodd" fill-opacity="1" /><path clip-path="url(#clip480)" d="M732.26 45.1919 L732.26 72.576 L724.807 72.576 L724.807 45.4349 Q724.807 38.994 722.295 35.7938 Q719.783 32.5936 714.76 32.5936 Q708.724 32.5936 705.241 36.4419 Q701.757 40.2903 701.757 46.9338 L701.757 72.576 L694.263 72.576 L694.263 27.2059 L701.757 27.2059 L701.757 34.2544 Q704.431 30.163 708.036 28.1376 Q711.682 26.1121 716.421 26.1121 Q724.239 26.1121 728.25 30.9732 Q732.26 35.7938 732.26 45.1919 Z" fill="#000000" fill-rule="evenodd" fill-opacity="1" /><path clip-path="url(#clip480)" d="M764.708 32.4315 Q758.713 32.4315 755.229 37.1306 Q751.745 41.7891 751.745 49.9314 Q751.745 58.0738 755.188 62.7728 Q758.672 67.4314 764.708 67.4314 Q770.663 67.4314 774.147 62.7323 Q777.63 58.0333 777.63 49.9314 Q777.63 41.8701 774.147 37.1711 Q770.663 32.4315 764.708 32.4315 M764.708 26.1121 Q774.43 26.1121 779.98 32.4315 Q785.53 38.7509 785.53 49.9314 Q785.53 61.0714 779.98 67.4314 Q774.43 73.7508 764.708 73.7508 Q754.945 73.7508 749.396 67.4314 Q743.886 61.0714 743.886 49.9314 Q743.886 38.7509 749.396 32.4315 Q754.945 26.1121 764.708 26.1121 Z" fill="#000000" fill-rule="evenodd" fill-opacity="1" /><path clip-path="url(#clip480)" d="M844.875 49.7694 Q835.842 49.7694 832.358 51.8354 Q828.874 53.9013 828.874 58.8839 Q828.874 62.8538 831.467 65.2034 Q834.1 67.5124 838.596 67.5124 Q844.794 67.5124 848.521 63.1374 Q852.289 58.7219 852.289 51.4303 L852.289 49.7694 L844.875 49.7694 M859.742 46.6907 L859.742 72.576 L852.289 72.576 L852.289 65.6895 Q849.736 69.8214 845.929 71.8063 Q842.121 73.7508 836.612 73.7508 Q829.644 73.7508 825.512 69.8619 Q821.421 65.9325 821.421 59.3701 Q821.421 51.7138 826.525 47.825 Q831.669 43.9361 841.837 43.9361 L852.289 43.9361 L852.289 43.2069 Q852.289 38.0623 848.886 35.2672 Q845.524 32.4315 839.407 32.4315 Q835.518 32.4315 831.831 33.3632 Q828.145 34.295 824.742 36.1584 L824.742 29.2718 Q828.834 27.692 832.682 26.9223 Q836.531 26.1121 840.176 26.1121 Q850.02 26.1121 854.881 31.2163 Q859.742 36.3204 859.742 46.6907 Z" fill="#000000" fill-rule="evenodd" fill-opacity="1" /><path clip-path="url(#clip480)" d="M912.809 45.1919 L912.809 72.576 L905.355 72.576 L905.355 45.4349 Q905.355 38.994 902.844 35.7938 Q900.332 32.5936 895.309 32.5936 Q889.273 32.5936 885.79 36.4419 Q882.306 40.2903 882.306 46.9338 L882.306 72.576 L874.812 72.576 L874.812 27.2059 L882.306 27.2059 L882.306 34.2544 Q884.979 30.163 888.585 28.1376 Q892.23 26.1121 896.97 26.1121 Q904.788 26.1121 908.799 30.9732 Q912.809 35.7938 912.809 45.1919 Z" fill="#000000" fill-rule="evenodd" fill-opacity="1" /><path clip-path="url(#clip480)" d="M957.531 34.0924 L957.531 9.54393 L964.985 9.54393 L964.985 72.576 L957.531 72.576 L957.531 65.7705 Q955.181 69.8214 951.576 71.8063 Q948.011 73.7508 942.988 73.7508 Q934.765 73.7508 929.58 67.1883 Q924.435 60.6258 924.435 49.9314 Q924.435 39.2371 929.58 32.6746 Q934.765 26.1121 942.988 26.1121 Q948.011 26.1121 951.576 28.0971 Q955.181 30.0415 957.531 34.0924 M932.132 49.9314 Q932.132 58.1548 935.494 62.8538 Q938.897 67.5124 944.811 67.5124 Q950.725 67.5124 954.128 62.8538 Q957.531 58.1548 957.531 49.9314 Q957.531 41.7081 954.128 37.0496 Q950.725 32.3505 944.811 32.3505 Q938.897 32.3505 935.494 37.0496 Q932.132 41.7081 932.132 49.9314 Z" fill="#000000" fill-rule="evenodd" fill-opacity="1" /><path clip-path="url(#clip480)" d="M1007.03 12.096 L1015.22 12.096 L1015.22 72.576 L1007.03 72.576 L1007.03 12.096 Z" fill="#000000" fill-rule="evenodd" fill-opacity="1" /><path clip-path="url(#clip480)" d="M1060.1 28.5427 L1060.1 35.5912 Q1056.94 33.9709 1053.54 33.1607 Q1050.13 32.3505 1046.49 32.3505 Q1040.94 32.3505 1038.14 34.0519 Q1035.39 35.7533 1035.39 39.156 Q1035.39 41.7486 1037.37 43.2475 Q1039.36 44.7058 1045.35 46.0426 L1047.91 46.6097 Q1055.85 48.3111 1059.17 51.4303 Q1062.53 54.509 1062.53 60.0587 Q1062.53 66.3781 1057.51 70.0644 Q1052.52 73.7508 1043.77 73.7508 Q1040.13 73.7508 1036.16 73.0216 Q1032.23 72.3329 1027.85 70.9151 L1027.85 63.2184 Q1031.99 65.3654 1036 66.4591 Q1040.01 67.5124 1043.94 67.5124 Q1049.2 67.5124 1052.04 65.73 Q1054.87 63.9071 1054.87 60.6258 Q1054.87 57.5877 1052.81 55.9673 Q1050.78 54.3469 1043.86 52.8481 L1041.26 52.2405 Q1034.34 50.7821 1031.26 47.7845 Q1028.18 44.7463 1028.18 39.4801 Q1028.18 33.0797 1032.72 29.5959 Q1037.25 26.1121 1045.6 26.1121 Q1049.73 26.1121 1053.38 26.7198 Q1057.02 27.3274 1060.1 28.5427 Z" fill="#000000" fill-rule="evenodd" fill-opacity="1" /><path clip-path="url(#clip480)" d="M1091.98 32.4315 Q1085.99 32.4315 1082.5 37.1306 Q1079.02 41.7891 1079.02 49.9314 Q1079.02 58.0738 1082.46 62.7728 Q1085.94 67.4314 1091.98 67.4314 Q1097.94 67.4314 1101.42 62.7323 Q1104.9 58.0333 1104.9 49.9314 Q1104.9 41.8701 1101.42 37.1711 Q1097.94 32.4315 1091.98 32.4315 M1091.98 26.1121 Q1101.7 26.1121 1107.25 32.4315 Q1112.8 38.7509 1112.8 49.9314 Q1112.8 61.0714 1107.25 67.4314 Q1101.7 73.7508 1091.98 73.7508 Q1082.22 73.7508 1076.67 67.4314 Q1071.16 61.0714 1071.16 49.9314 Q1071.16 38.7509 1076.67 32.4315 Q1082.22 26.1121 1091.98 26.1121 Z" fill="#000000" fill-rule="evenodd" fill-opacity="1" /><path clip-path="url(#clip480)" d="M1132.53 14.324 L1132.53 27.2059 L1147.88 27.2059 L1147.88 32.9987 L1132.53 32.9987 L1132.53 57.6282 Q1132.53 63.1779 1134.03 64.7578 Q1135.57 66.3376 1140.23 66.3376 L1147.88 66.3376 L1147.88 72.576 L1140.23 72.576 Q1131.6 72.576 1128.32 69.3758 Q1125.04 66.1351 1125.04 57.6282 L1125.04 32.9987 L1119.57 32.9987 L1119.57 27.2059 L1125.04 27.2059 L1125.04 14.324 L1132.53 14.324 Z" fill="#000000" fill-rule="evenodd" fill-opacity="1" /><path clip-path="url(#clip480)" d="M1195.4 45.1919 L1195.4 72.576 L1187.95 72.576 L1187.95 45.4349 Q1187.95 38.994 1185.43 35.7938 Q1182.92 32.5936 1177.9 32.5936 Q1171.86 32.5936 1168.38 36.4419 Q1164.9 40.2903 1164.9 46.9338 L1164.9 72.576 L1157.4 72.576 L1157.4 9.54393 L1164.9 9.54393 L1164.9 34.2544 Q1167.57 30.163 1171.18 28.1376 Q1174.82 26.1121 1179.56 26.1121 Q1187.38 26.1121 1191.39 30.9732 Q1195.4 35.7938 1195.4 45.1919 Z" fill="#000000" fill-rule="evenodd" fill-opacity="1" /><path clip-path="url(#clip480)" d="M1249.07 48.0275 L1249.07 51.6733 L1214.8 51.6733 Q1215.29 59.3701 1219.42 63.421 Q1223.59 67.4314 1231.01 67.4314 Q1235.3 67.4314 1239.31 66.3781 Q1243.36 65.3249 1247.33 63.2184 L1247.33 70.267 Q1243.32 71.9684 1239.11 72.8596 Q1234.9 73.7508 1230.56 73.7508 Q1219.71 73.7508 1213.35 67.4314 Q1207.03 61.1119 1207.03 50.3365 Q1207.03 39.1965 1213.02 32.6746 Q1219.06 26.1121 1229.27 26.1121 Q1238.42 26.1121 1243.73 32.0264 Q1249.07 37.9003 1249.07 48.0275 M1241.62 45.84 Q1241.54 39.7232 1238.18 36.0774 Q1234.86 32.4315 1229.35 32.4315 Q1223.11 32.4315 1219.34 35.9558 Q1215.61 39.4801 1215.05 45.8805 L1241.62 45.84 Z" fill="#000000" fill-rule="evenodd" fill-opacity="1" /><path clip-path="url(#clip480)" d="M1287.6 34.1734 Q1286.34 33.4443 1284.84 33.1202 Q1283.39 32.7556 1281.6 32.7556 Q1275.28 32.7556 1271.88 36.8875 Q1268.52 40.9789 1268.52 48.6757 L1268.52 72.576 L1261.02 72.576 L1261.02 27.2059 L1268.52 27.2059 L1268.52 34.2544 Q1270.87 30.1225 1274.64 28.1376 Q1278.4 26.1121 1283.79 26.1121 Q1284.56 26.1121 1285.49 26.2337 Q1286.42 26.3147 1287.56 26.5172 L1287.6 34.1734 Z" fill="#000000" fill-rule="evenodd" fill-opacity="1" /><path clip-path="url(#clip480)" d="M1329.28 35.9153 Q1332.08 30.8922 1335.97 28.5022 Q1339.86 26.1121 1345.12 26.1121 Q1352.21 26.1121 1356.06 31.0947 Q1359.91 36.0368 1359.91 45.1919 L1359.91 72.576 L1352.41 72.576 L1352.41 45.4349 Q1352.41 38.913 1350.1 35.7533 Q1347.8 32.5936 1343.06 32.5936 Q1337.26 32.5936 1333.9 36.4419 Q1330.54 40.2903 1330.54 46.9338 L1330.54 72.576 L1323.04 72.576 L1323.04 45.4349 Q1323.04 38.8725 1320.74 35.7533 Q1318.43 32.5936 1313.61 32.5936 Q1307.89 32.5936 1304.53 36.4824 Q1301.17 40.3308 1301.17 46.9338 L1301.17 72.576 L1293.68 72.576 L1293.68 27.2059 L1301.17 27.2059 L1301.17 34.2544 Q1303.72 30.082 1307.29 28.0971 Q1310.85 26.1121 1315.75 26.1121 Q1320.69 26.1121 1324.14 28.6237 Q1327.62 31.1352 1329.28 35.9153 Z" fill="#000000" fill-rule="evenodd" fill-opacity="1" /><path clip-path="url(#clip480)" d="M1395.39 49.7694 Q1386.36 49.7694 1382.88 51.8354 Q1379.39 53.9013 1379.39 58.8839 Q1379.39 62.8538 1381.98 65.2034 Q1384.62 67.5124 1389.11 67.5124 Q1395.31 67.5124 1399.04 63.1374 Q1402.81 58.7219 1402.81 51.4303 L1402.81 49.7694 L1395.39 49.7694 M1410.26 46.6907 L1410.26 72.576 L1402.81 72.576 L1402.81 65.6895 Q1400.25 69.8214 1396.45 71.8063 Q1392.64 73.7508 1387.13 73.7508 Q1380.16 73.7508 1376.03 69.8619 Q1371.94 65.9325 1371.94 59.3701 Q1371.94 51.7138 1377.04 47.825 Q1382.19 43.9361 1392.36 43.9361 L1402.81 43.9361 L1402.81 43.2069 Q1402.81 38.0623 1399.4 35.2672 Q1396.04 32.4315 1389.92 32.4315 Q1386.04 32.4315 1382.35 33.3632 Q1378.66 34.295 1375.26 36.1584 L1375.26 29.2718 Q1379.35 27.692 1383.2 26.9223 Q1387.05 26.1121 1390.69 26.1121 Q1400.54 26.1121 1405.4 31.2163 Q1410.26 36.3204 1410.26 46.6907 Z" fill="#000000" fill-rule="evenodd" fill-opacity="1" /><path clip-path="url(#clip480)" d="M1425.61 9.54393 L1433.07 9.54393 L1433.07 72.576 L1425.61 72.576 L1425.61 9.54393 Z" fill="#000000" fill-rule="evenodd" fill-opacity="1" /><path clip-path="url(#clip480)" d="M1498 9.54393 L1498 15.7418 L1490.87 15.7418 Q1486.86 15.7418 1485.28 17.3622 Q1483.74 18.9825 1483.74 23.1955 L1483.74 27.2059 L1496.02 27.2059 L1496.02 32.9987 L1483.74 32.9987 L1483.74 72.576 L1476.25 72.576 L1476.25 32.9987 L1469.12 32.9987 L1469.12 27.2059 L1476.25 27.2059 L1476.25 24.0462 Q1476.25 16.471 1479.77 13.0277 Q1483.3 9.54393 1490.95 9.54393 L1498 9.54393 Z" fill="#000000" fill-rule="evenodd" fill-opacity="1" /><path clip-path="url(#clip480)" d="M1504.24 9.54393 L1511.69 9.54393 L1511.69 72.576 L1504.24 72.576 L1504.24 9.54393 Z" fill="#000000" fill-rule="evenodd" fill-opacity="1" /><path clip-path="url(#clip480)" d="M1544.87 32.4315 Q1538.88 32.4315 1535.39 37.1306 Q1531.91 41.7891 1531.91 49.9314 Q1531.91 58.0738 1535.35 62.7728 Q1538.84 67.4314 1544.87 67.4314 Q1550.83 67.4314 1554.31 62.7323 Q1557.79 58.0333 1557.79 49.9314 Q1557.79 41.8701 1554.31 37.1711 Q1550.83 32.4315 1544.87 32.4315 M1544.87 26.1121 Q1554.59 26.1121 1560.14 32.4315 Q1565.69 38.7509 1565.69 49.9314 Q1565.69 61.0714 1560.14 67.4314 Q1554.59 73.7508 1544.87 73.7508 Q1535.11 73.7508 1529.56 67.4314 Q1524.05 61.0714 1524.05 49.9314 Q1524.05 38.7509 1529.56 32.4315 Q1535.11 26.1121 1544.87 26.1121 Z" fill="#000000" fill-rule="evenodd" fill-opacity="1" /><path clip-path="url(#clip480)" d="M1573.71 27.2059 L1581.17 27.2059 L1590.48 62.6108 L1599.76 27.2059 L1608.55 27.2059 L1617.87 62.6108 L1627.15 27.2059 L1634.6 27.2059 L1622.73 72.576 L1613.94 72.576 L1604.18 35.3887 L1594.37 72.576 L1585.58 72.576 L1573.71 27.2059 Z" fill="#000000" fill-rule="evenodd" fill-opacity="1" /><path clip-path="url(#clip480)" d="M1692.89 49.7694 Q1683.86 49.7694 1680.37 51.8354 Q1676.89 53.9013 1676.89 58.8839 Q1676.89 62.8538 1679.48 65.2034 Q1682.12 67.5124 1686.61 67.5124 Q1692.81 67.5124 1696.54 63.1374 Q1700.3 58.7219 1700.3 51.4303 L1700.3 49.7694 L1692.89 49.7694 M1707.76 46.6907 L1707.76 72.576 L1700.3 72.576 L1700.3 65.6895 Q1697.75 69.8214 1693.94 71.8063 Q1690.14 73.7508 1684.63 73.7508 Q1677.66 73.7508 1673.53 69.8619 Q1669.44 65.9325 1669.44 59.3701 Q1669.44 51.7138 1674.54 47.825 Q1679.69 43.9361 1689.85 43.9361 L1700.3 43.9361 L1700.3 43.2069 Q1700.3 38.0623 1696.9 35.2672 Q1693.54 32.4315 1687.42 32.4315 Q1683.53 32.4315 1679.85 33.3632 Q1676.16 34.295 1672.76 36.1584 L1672.76 29.2718 Q1676.85 27.692 1680.7 26.9223 Q1684.55 26.1121 1688.19 26.1121 Q1698.04 26.1121 1702.9 31.2163 Q1707.76 36.3204 1707.76 46.6907 Z" fill="#000000" fill-rule="evenodd" fill-opacity="1" /><path clip-path="url(#clip480)" d="M1730.48 14.324 L1730.48 27.2059 L1745.84 27.2059 L1745.84 32.9987 L1730.48 32.9987 L1730.48 57.6282 Q1730.48 63.1779 1731.98 64.7578 Q1733.52 66.3376 1738.18 66.3376 L1745.84 66.3376 L1745.84 72.576 L1738.18 72.576 Q1729.55 72.576 1726.27 69.3758 Q1722.99 66.1351 1722.99 57.6282 L1722.99 32.9987 L1717.52 32.9987 L1717.52 27.2059 L1722.99 27.2059 L1722.99 14.324 L1730.48 14.324 Z" fill="#000000" fill-rule="evenodd" fill-opacity="1" /><path clip-path="url(#clip480)" d="M1782.34 12.096 L1790.52 12.096 L1790.52 37.6572 L1817.66 12.096 L1828.19 12.096 L1798.17 40.2903 L1830.34 72.576 L1819.56 72.576 L1790.52 43.45 L1790.52 72.576 L1782.34 72.576 L1782.34 12.096 Z" fill="#000000" fill-rule="evenodd" fill-opacity="1" /><path clip-path="url(#clip480)" d="M1837.39 34.9026 L1889.32 34.9026 L1889.32 41.7081 L1837.39 41.7081 L1837.39 34.9026 M1837.39 51.4303 L1889.32 51.4303 L1889.32 58.3168 L1837.39 58.3168 L1837.39 51.4303 Z" fill="#000000" fill-rule="evenodd" fill-opacity="1" /><path clip-path="url(#clip480)" d="M1908.4 65.6895 L1921.77 65.6895 L1921.77 19.5497 L1907.23 22.4663 L1907.23 15.0127 L1921.69 12.096 L1929.87 12.096 L1929.87 65.6895 L1943.24 65.6895 L1943.24 72.576 L1908.4 72.576 L1908.4 65.6895 Z" fill="#000000" fill-rule="evenodd" fill-opacity="1" /><path clip-path="url(#clip480)" d="M1977.27 17.4837 Q1970.95 17.4837 1967.75 23.7221 Q1964.59 29.92 1964.59 42.3968 Q1964.59 54.833 1967.75 61.0714 Q1970.95 67.2693 1977.27 67.2693 Q1983.63 67.2693 1986.78 61.0714 Q1989.98 54.833 1989.98 42.3968 Q1989.98 29.92 1986.78 23.7221 Q1983.63 17.4837 1977.27 17.4837 M1977.27 11.0023 Q1987.43 11.0023 1992.78 19.0636 Q1998.17 27.0843 1998.17 42.3968 Q1998.17 57.6687 1992.78 65.73 Q1987.43 73.7508 1977.27 73.7508 Q1967.1 73.7508 1961.71 65.73 Q1956.36 57.6687 1956.36 42.3968 Q1956.36 27.0843 1961.71 19.0636 Q1967.1 11.0023 1977.27 11.0023 Z" fill="#000000" fill-rule="evenodd" fill-opacity="1" /><path clip-path="url(#clip480)" d="M2030.05 17.4837 Q2023.73 17.4837 2020.53 23.7221 Q2017.37 29.92 2017.37 42.3968 Q2017.37 54.833 2020.53 61.0714 Q2023.73 67.2693 2030.05 67.2693 Q2036.41 67.2693 2039.57 61.0714 Q2042.77 54.833 2042.77 42.3968 Q2042.77 29.92 2039.57 23.7221 Q2036.41 17.4837 2030.05 17.4837 M2030.05 11.0023 Q2040.22 11.0023 2045.56 19.0636 Q2050.95 27.0843 2050.95 42.3968 Q2050.95 57.6687 2045.56 65.73 Q2040.22 73.7508 2030.05 73.7508 Q2019.88 73.7508 2014.49 65.73 Q2009.15 57.6687 2009.15 42.3968 Q2009.15 27.0843 2014.49 19.0636 Q2019.88 11.0023 2030.05 11.0023 Z" fill="#000000" fill-rule="evenodd" fill-opacity="1" /><polyline clip-path="url(#clip482)" style="stroke:#1ac938; stroke-linecap:butt; stroke-linejoin:round; stroke-width:4; stroke-opacity:1; fill:none" points="
  309.067,1386.4 329.109,1348.89 349.151,1327.18 369.193,1309.11 389.235,1292.81 409.277,1277.57 429.319,1263.05 449.361,1249.02 469.403,1235.37 489.446,1222.02 
  509.488,1208.89 529.53,1195.94 549.572,1183.15 569.614,1170.48 589.656,1157.92 609.698,1145.46 629.74,1133.07 649.782,1120.75 669.824,1108.49 689.866,1096.29 
  709.908,1084.13 729.95,1072.02 749.992,1059.94 770.034,1047.9 790.076,1035.89 810.118,1023.9 830.161,1011.94 850.203,1000.01 870.245,988.093 890.287,976.199 
  910.329,964.323 930.371,952.464 950.413,940.62 970.455,928.791 990.497,916.975 1010.54,905.172 1030.58,893.38 1050.62,881.6 1070.67,869.83 1090.71,858.069 
  1110.75,846.318 1130.79,834.575 1150.83,822.84 1170.88,811.113 1190.92,799.394 1210.96,787.681 1231,775.974 1251.04,764.274 1271.09,752.58 1291.13,740.891 
  1311.17,729.208 1331.21,717.529 1351.25,705.855 1371.3,694.186 1391.34,682.522 1411.38,670.861 1431.42,659.205 1451.46,647.552 1471.51,635.904 1491.55,624.258 
  1511.59,612.616 1531.63,600.977 1551.67,589.342 1571.72,577.709 1591.76,566.08 1611.8,554.453 1631.84,542.828 1651.89,531.207 1671.93,519.587 1691.97,507.97 
  1712.01,496.356 1732.05,484.743 1752.1,473.133 1772.14,461.525 1792.18,449.919 1812.22,438.315 1832.26,426.712 1852.31,415.112 1872.35,403.513 1892.39,391.916 
  1912.43,380.32 1932.47,368.726 1952.52,357.134 1972.56,345.543 1992.6,333.953 2012.64,322.365 2032.68,310.778 2052.73,299.193 2072.77,287.609 2092.81,276.026 
  2112.85,264.444 2132.89,252.863 2152.94,241.284 2172.98,229.705 2193.02,218.128 2213.06,206.552 2233.1,194.976 2253.15,183.402 2273.19,171.829 2293.23,160.256 
  
  "/>
<polyline clip-path="url(#clip482)" style="stroke:#8b2be2; stroke-linecap:butt; stroke-linejoin:round; stroke-width:4; stroke-opacity:1; fill:none" points="
  309.067,1386.4 329.109,1348.9 349.151,1327.19 369.193,1309.12 389.235,1292.83 409.277,1277.61 429.319,1263.09 449.361,1249.08 469.403,1235.45 489.446,1222.11 
  509.488,1209 529.53,1196.08 549.572,1183.31 569.614,1170.67 589.656,1158.14 609.698,1145.7 629.74,1133.34 649.782,1121.05 669.824,1108.82 689.866,1096.65 
  709.908,1084.52 729.95,1072.44 749.992,1060.4 770.034,1048.39 790.076,1036.41 810.118,1024.46 830.161,1012.54 850.203,1000.65 870.245,988.772 890.287,976.917 
  910.329,965.082 930.371,953.265 950.413,941.464 970.455,929.678 990.497,917.906 1010.54,906.148 1030.58,894.403 1050.62,882.669 1070.67,870.946 1090.71,859.234 
  1110.75,847.532 1130.79,835.84 1150.83,824.156 1170.88,812.481 1190.92,800.813 1210.96,789.154 1231,777.502 1251.04,765.856 1271.09,754.218 1291.13,742.585 
  1311.17,730.959 1331.21,719.339 1351.25,707.724 1371.3,696.115 1391.34,684.511 1411.38,672.912 1431.42,661.318 1451.46,649.728 1471.51,638.143 1491.55,626.562 
  1511.59,614.986 1531.63,603.413 1551.67,591.844 1571.72,580.28 1591.76,568.718 1611.8,557.161 1631.84,545.607 1651.89,534.056 1671.93,522.508 1691.97,510.964 
  1712.01,499.422 1732.05,487.884 1752.1,476.349 1772.14,464.816 1792.18,453.286 1812.22,441.759 1832.26,430.235 1852.31,418.713 1872.35,407.193 1892.39,395.676 
  1912.43,384.162 1932.47,372.649 1952.52,361.139 1972.56,349.632 1992.6,338.126 2012.64,326.623 2032.68,315.122 2052.73,303.622 2072.77,292.125 2092.81,280.63 
  2112.85,269.137 2132.89,257.645 2152.94,246.156 2172.98,234.668 2193.02,223.182 2213.06,211.698 2233.1,200.215 2253.15,188.735 2273.19,177.256 2293.23,165.778 
  
  "/>
<path clip-path="url(#clip480)" d="
M1679.77 825.166 L2282.65 825.166 L2282.65 669.646 L1679.77 669.646  Z
  " fill="#ffffff" fill-rule="evenodd" fill-opacity="1"/>
<polyline clip-path="url(#clip480)" style="stroke:#000000; stroke-linecap:butt; stroke-linejoin:round; stroke-width:4; stroke-opacity:1; fill:none" points="
  1679.77,825.166 2282.65,825.166 2282.65,669.646 1679.77,669.646 1679.77,825.166 
  "/>
<polyline clip-path="url(#clip480)" style="stroke:#1ac938; stroke-linecap:butt; stroke-linejoin:round; stroke-width:4; stroke-opacity:1; fill:none" points="
  1703.14,721.486 1843.35,721.486 
  "/>
<path clip-path="url(#clip480)" d="M1866.72 704.206 L1886.58 704.206 L1886.58 708.141 L1871.4 708.141 L1871.4 718.326 L1885.1 718.326 L1885.1 722.261 L1871.4 722.261 L1871.4 738.766 L1866.72 738.766 L1866.72 704.206 Z" fill="#000000" fill-rule="evenodd" fill-opacity="1" /><path clip-path="url(#clip480)" d="M1901.24 725.734 Q1896.07 725.734 1894.08 726.914 Q1892.09 728.095 1892.09 730.942 Q1892.09 733.21 1893.57 734.553 Q1895.08 735.872 1897.65 735.872 Q1901.19 735.872 1903.32 733.372 Q1905.47 730.849 1905.47 726.683 L1905.47 725.734 L1901.24 725.734 M1909.73 723.974 L1909.73 738.766 L1905.47 738.766 L1905.47 734.831 Q1904.01 737.192 1901.84 738.326 Q1899.66 739.437 1896.51 739.437 Q1892.53 739.437 1890.17 737.215 Q1887.83 734.97 1887.83 731.22 Q1887.83 726.845 1890.75 724.623 Q1893.69 722.4 1899.5 722.4 L1905.47 722.4 L1905.47 721.984 Q1905.47 719.044 1903.53 717.447 Q1901.61 715.826 1898.11 715.826 Q1895.89 715.826 1893.78 716.359 Q1891.68 716.891 1889.73 717.956 L1889.73 714.021 Q1892.07 713.118 1894.27 712.678 Q1896.47 712.215 1898.55 712.215 Q1904.18 712.215 1906.95 715.132 Q1909.73 718.049 1909.73 723.974 Z" fill="#000000" fill-rule="evenodd" fill-opacity="1" /><path clip-path="url(#clip480)" d="M1940.06 723.118 L1940.06 738.766 L1935.8 738.766 L1935.8 723.257 Q1935.8 719.576 1934.36 717.748 Q1932.93 715.919 1930.06 715.919 Q1926.61 715.919 1924.62 718.118 Q1922.63 720.317 1922.63 724.113 L1922.63 738.766 L1918.34 738.766 L1918.34 712.84 L1922.63 712.84 L1922.63 716.868 Q1924.15 714.53 1926.21 713.373 Q1928.3 712.215 1931 712.215 Q1935.47 712.215 1937.76 714.993 Q1940.06 717.748 1940.06 723.118 Z" fill="#000000" fill-rule="evenodd" fill-opacity="1" /><path clip-path="url(#clip480)" d="M1970.1 723.118 L1970.1 738.766 L1965.84 738.766 L1965.84 723.257 Q1965.84 719.576 1964.41 717.748 Q1962.97 715.919 1960.1 715.919 Q1956.65 715.919 1954.66 718.118 Q1952.67 720.317 1952.67 724.113 L1952.67 738.766 L1948.39 738.766 L1948.39 712.84 L1952.67 712.84 L1952.67 716.868 Q1954.2 714.53 1956.26 713.373 Q1958.34 712.215 1961.05 712.215 Q1965.52 712.215 1967.81 714.993 Q1970.1 717.748 1970.1 723.118 Z" fill="#000000" fill-rule="evenodd" fill-opacity="1" /><path clip-path="url(#clip480)" d="M1988.64 715.826 Q1985.22 715.826 1983.23 718.511 Q1981.24 721.173 1981.24 725.826 Q1981.24 730.479 1983.2 733.164 Q1985.19 735.826 1988.64 735.826 Q1992.05 735.826 1994.04 733.141 Q1996.03 730.456 1996.03 725.826 Q1996.03 721.22 1994.04 718.535 Q1992.05 715.826 1988.64 715.826 M1988.64 712.215 Q1994.2 712.215 1997.37 715.826 Q2000.54 719.437 2000.54 725.826 Q2000.54 732.192 1997.37 735.826 Q1994.2 739.437 1988.64 739.437 Q1983.06 739.437 1979.89 735.826 Q1976.75 732.192 1976.75 725.826 Q1976.75 719.437 1979.89 715.826 Q1983.06 712.215 1988.64 712.215 Z" fill="#000000" fill-rule="evenodd" fill-opacity="1" /><path clip-path="url(#clip480)" d="M2022.86 704.206 L2042.72 704.206 L2042.72 708.141 L2027.53 708.141 L2027.53 718.326 L2041.24 718.326 L2041.24 722.261 L2027.53 722.261 L2027.53 738.766 L2022.86 738.766 L2022.86 704.206 Z" fill="#000000" fill-rule="evenodd" fill-opacity="1" /><path clip-path="url(#clip480)" d="M2049.94 702.748 L2054.2 702.748 L2054.2 738.766 L2049.94 738.766 L2049.94 702.748 Z" fill="#000000" fill-rule="evenodd" fill-opacity="1" /><path clip-path="url(#clip480)" d="M2073.16 715.826 Q2069.73 715.826 2067.74 718.511 Q2065.75 721.173 2065.75 725.826 Q2065.75 730.479 2067.72 733.164 Q2069.71 735.826 2073.16 735.826 Q2076.56 735.826 2078.55 733.141 Q2080.54 730.456 2080.54 725.826 Q2080.54 721.22 2078.55 718.535 Q2076.56 715.826 2073.16 715.826 M2073.16 712.215 Q2078.71 712.215 2081.88 715.826 Q2085.06 719.437 2085.06 725.826 Q2085.06 732.192 2081.88 735.826 Q2078.71 739.437 2073.16 739.437 Q2067.58 739.437 2064.41 735.826 Q2061.26 732.192 2061.26 725.826 Q2061.26 719.437 2064.41 715.826 Q2067.58 712.215 2073.16 712.215 Z" fill="#000000" fill-rule="evenodd" fill-opacity="1" /><path clip-path="url(#clip480)" d="M2089.64 712.84 L2093.9 712.84 L2099.22 733.072 L2104.52 712.84 L2109.55 712.84 L2114.87 733.072 L2120.17 712.84 L2124.43 712.84 L2117.65 738.766 L2112.62 738.766 L2107.05 717.516 L2101.44 738.766 L2096.42 738.766 L2089.64 712.84 Z" fill="#000000" fill-rule="evenodd" fill-opacity="1" /><polyline clip-path="url(#clip480)" style="stroke:#8b2be2; stroke-linecap:butt; stroke-linejoin:round; stroke-width:4; stroke-opacity:1; fill:none" points="
  1703.14,773.326 1843.35,773.326 
  "/>
<path clip-path="url(#clip480)" d="M1866.72 756.046 L1871.4 756.046 L1871.4 790.606 L1866.72 790.606 L1866.72 756.046 Z" fill="#000000" fill-rule="evenodd" fill-opacity="1" /><path clip-path="url(#clip480)" d="M1897.05 765.444 L1897.05 769.472 Q1895.24 768.546 1893.3 768.083 Q1891.35 767.62 1889.27 767.62 Q1886.1 767.62 1884.5 768.592 Q1882.93 769.564 1882.93 771.509 Q1882.93 772.99 1884.06 773.847 Q1885.19 774.68 1888.62 775.444 L1890.08 775.768 Q1894.62 776.74 1896.51 778.523 Q1898.44 780.282 1898.44 783.453 Q1898.44 787.064 1895.57 789.171 Q1892.72 791.277 1887.72 791.277 Q1885.63 791.277 1883.37 790.861 Q1881.12 790.467 1878.62 789.657 L1878.62 785.259 Q1880.98 786.486 1883.27 787.111 Q1885.57 787.712 1887.81 787.712 Q1890.82 787.712 1892.44 786.694 Q1894.06 785.652 1894.06 783.777 Q1894.06 782.041 1892.88 781.115 Q1891.72 780.189 1887.76 779.333 L1886.28 778.986 Q1882.32 778.152 1880.57 776.439 Q1878.81 774.703 1878.81 771.694 Q1878.81 768.037 1881.4 766.046 Q1883.99 764.055 1888.76 764.055 Q1891.12 764.055 1893.2 764.402 Q1895.29 764.75 1897.05 765.444 Z" fill="#000000" fill-rule="evenodd" fill-opacity="1" /><path clip-path="url(#clip480)" d="M1915.26 767.666 Q1911.84 767.666 1909.85 770.351 Q1907.86 773.013 1907.86 777.666 Q1907.86 782.319 1909.82 785.004 Q1911.82 787.666 1915.26 787.666 Q1918.67 787.666 1920.66 784.981 Q1922.65 782.296 1922.65 777.666 Q1922.65 773.06 1920.66 770.375 Q1918.67 767.666 1915.26 767.666 M1915.26 764.055 Q1920.82 764.055 1923.99 767.666 Q1927.16 771.277 1927.16 777.666 Q1927.16 784.032 1923.99 787.666 Q1920.82 791.277 1915.26 791.277 Q1909.69 791.277 1906.51 787.666 Q1903.37 784.032 1903.37 777.666 Q1903.37 771.277 1906.51 767.666 Q1909.69 764.055 1915.26 764.055 Z" fill="#000000" fill-rule="evenodd" fill-opacity="1" /><path clip-path="url(#clip480)" d="M1938.44 757.319 L1938.44 764.68 L1947.21 764.68 L1947.21 767.99 L1938.44 767.99 L1938.44 782.064 Q1938.44 785.236 1939.29 786.138 Q1940.17 787.041 1942.83 787.041 L1947.21 787.041 L1947.21 790.606 L1942.83 790.606 Q1937.9 790.606 1936.03 788.777 Q1934.15 786.925 1934.15 782.064 L1934.15 767.99 L1931.03 767.99 L1931.03 764.68 L1934.15 764.68 L1934.15 757.319 L1938.44 757.319 Z" fill="#000000" fill-rule="evenodd" fill-opacity="1" /><path clip-path="url(#clip480)" d="M1974.36 774.958 L1974.36 790.606 L1970.1 790.606 L1970.1 775.097 Q1970.1 771.416 1968.67 769.588 Q1967.23 767.759 1964.36 767.759 Q1960.91 767.759 1958.92 769.958 Q1956.93 772.157 1956.93 775.953 L1956.93 790.606 L1952.65 790.606 L1952.65 754.588 L1956.93 754.588 L1956.93 768.708 Q1958.46 766.37 1960.52 765.213 Q1962.6 764.055 1965.31 764.055 Q1969.78 764.055 1972.07 766.833 Q1974.36 769.588 1974.36 774.958 Z" fill="#000000" fill-rule="evenodd" fill-opacity="1" /><path clip-path="url(#clip480)" d="M2005.03 776.578 L2005.03 778.662 L1985.45 778.662 Q1985.73 783.06 1988.09 785.375 Q1990.47 787.666 1994.71 787.666 Q1997.16 787.666 1999.45 787.064 Q2001.77 786.462 2004.04 785.259 L2004.04 789.287 Q2001.75 790.259 1999.34 790.768 Q1996.93 791.277 1994.45 791.277 Q1988.25 791.277 1984.62 787.666 Q1981 784.055 1981 777.898 Q1981 771.532 1984.43 767.805 Q1987.88 764.055 1993.71 764.055 Q1998.94 764.055 2001.98 767.435 Q2005.03 770.791 2005.03 776.578 M2000.77 775.328 Q2000.73 771.833 1998.81 769.75 Q1996.91 767.666 1993.76 767.666 Q1990.19 767.666 1988.04 769.68 Q1985.91 771.694 1985.59 775.351 L2000.77 775.328 Z" fill="#000000" fill-rule="evenodd" fill-opacity="1" /><path clip-path="url(#clip480)" d="M2027.05 768.662 Q2026.33 768.245 2025.47 768.06 Q2024.64 767.851 2023.62 767.851 Q2020.01 767.851 2018.06 770.213 Q2016.14 772.551 2016.14 776.949 L2016.14 790.606 L2011.86 790.606 L2011.86 764.68 L2016.14 764.68 L2016.14 768.708 Q2017.49 766.347 2019.64 765.213 Q2021.79 764.055 2024.87 764.055 Q2025.31 764.055 2025.84 764.125 Q2026.37 764.171 2027.02 764.287 L2027.05 768.662 Z" fill="#000000" fill-rule="evenodd" fill-opacity="1" /><path clip-path="url(#clip480)" d="M2050.87 769.657 Q2052.46 766.787 2054.68 765.421 Q2056.91 764.055 2059.92 764.055 Q2063.97 764.055 2066.17 766.902 Q2068.37 769.726 2068.37 774.958 L2068.37 790.606 L2064.08 790.606 L2064.08 775.097 Q2064.08 771.37 2062.76 769.564 Q2061.44 767.759 2058.74 767.759 Q2055.43 767.759 2053.5 769.958 Q2051.58 772.157 2051.58 775.953 L2051.58 790.606 L2047.3 790.606 L2047.3 775.097 Q2047.3 771.347 2045.98 769.564 Q2044.66 767.759 2041.91 767.759 Q2038.64 767.759 2036.72 769.981 Q2034.8 772.18 2034.8 775.953 L2034.8 790.606 L2030.52 790.606 L2030.52 764.68 L2034.8 764.68 L2034.8 768.708 Q2036.26 766.324 2038.3 765.189 Q2040.33 764.055 2043.13 764.055 Q2045.96 764.055 2047.93 765.49 Q2049.92 766.926 2050.87 769.657 Z" fill="#000000" fill-rule="evenodd" fill-opacity="1" /><path clip-path="url(#clip480)" d="M2088.64 777.574 Q2083.48 777.574 2081.49 778.754 Q2079.5 779.935 2079.5 782.782 Q2079.5 785.05 2080.98 786.393 Q2082.49 787.712 2085.06 787.712 Q2088.6 787.712 2090.73 785.212 Q2092.88 782.689 2092.88 778.523 L2092.88 777.574 L2088.64 777.574 M2097.14 775.814 L2097.14 790.606 L2092.88 790.606 L2092.88 786.671 Q2091.42 789.032 2089.24 790.166 Q2087.07 791.277 2083.92 791.277 Q2079.94 791.277 2077.58 789.055 Q2075.24 786.81 2075.24 783.06 Q2075.24 778.685 2078.16 776.463 Q2081.1 774.24 2086.91 774.24 L2092.88 774.24 L2092.88 773.824 Q2092.88 770.884 2090.93 769.287 Q2089.01 767.666 2085.52 767.666 Q2083.3 767.666 2081.19 768.199 Q2079.08 768.731 2077.14 769.796 L2077.14 765.861 Q2079.48 764.958 2081.68 764.518 Q2083.87 764.055 2085.96 764.055 Q2091.58 764.055 2094.36 766.972 Q2097.14 769.889 2097.14 775.814 Z" fill="#000000" fill-rule="evenodd" fill-opacity="1" /><path clip-path="url(#clip480)" d="M2105.91 754.588 L2110.17 754.588 L2110.17 790.606 L2105.91 790.606 L2105.91 754.588 Z" fill="#000000" fill-rule="evenodd" fill-opacity="1" /><path clip-path="url(#clip480)" d="M2134.34 756.046 L2154.2 756.046 L2154.2 759.981 L2139.01 759.981 L2139.01 770.166 L2152.72 770.166 L2152.72 774.101 L2139.01 774.101 L2139.01 790.606 L2134.34 790.606 L2134.34 756.046 Z" fill="#000000" fill-rule="evenodd" fill-opacity="1" /><path clip-path="url(#clip480)" d="M2161.42 754.588 L2165.68 754.588 L2165.68 790.606 L2161.42 790.606 L2161.42 754.588 Z" fill="#000000" fill-rule="evenodd" fill-opacity="1" /><path clip-path="url(#clip480)" d="M2184.64 767.666 Q2181.21 767.666 2179.22 770.351 Q2177.23 773.013 2177.23 777.666 Q2177.23 782.319 2179.2 785.004 Q2181.19 787.666 2184.64 787.666 Q2188.04 787.666 2190.03 784.981 Q2192.02 782.296 2192.02 777.666 Q2192.02 773.06 2190.03 770.375 Q2188.04 767.666 2184.64 767.666 M2184.64 764.055 Q2190.19 764.055 2193.36 767.666 Q2196.54 771.277 2196.54 777.666 Q2196.54 784.032 2193.36 787.666 Q2190.19 791.277 2184.64 791.277 Q2179.06 791.277 2175.89 787.666 Q2172.74 784.032 2172.74 777.666 Q2172.74 771.277 2175.89 767.666 Q2179.06 764.055 2184.64 764.055 Z" fill="#000000" fill-rule="evenodd" fill-opacity="1" /><path clip-path="url(#clip480)" d="M2201.12 764.68 L2205.38 764.68 L2210.7 784.912 L2216 764.68 L2221.03 764.68 L2226.35 784.912 L2231.65 764.68 L2235.91 764.68 L2229.13 790.606 L2224.11 790.606 L2218.53 769.356 L2212.92 790.606 L2207.9 790.606 L2201.12 764.68 Z" fill="#000000" fill-rule="evenodd" fill-opacity="1" /></svg>
