<?xml version="1.0" encoding="utf-8"?>
<svg xmlns="http://www.w3.org/2000/svg" xmlns:xlink="http://www.w3.org/1999/xlink" width="600" height="400" viewBox="0 0 2400 1600">
<defs>
  <clipPath id="clip280">
    <rect x="0" y="0" width="2400" height="1600"/>
  </clipPath>
</defs>
<path clip-path="url(#clip280)" d="
M0 1600 L2400 1600 L2400 0 L0 0  Z
  " fill="#ffffff" fill-rule="evenodd" fill-opacity="1"/>
<defs>
  <clipPath id="clip281">
    <rect x="480" y="0" width="1681" height="1600"/>
  </clipPath>
</defs>
<path clip-path="url(#clip280)" d="
M156.274 1423.18 L2352.76 1423.18 L2352.76 47.2441 L156.274 47.2441  Z
  " fill="#ffffff" fill-rule="evenodd" fill-opacity="1"/>
<defs>
  <clipPath id="clip282">
    <rect x="156" y="47" width="2197" height="1377"/>
  </clipPath>
</defs>
<polyline clip-path="url(#clip282)" style="stroke:#000000; stroke-linecap:butt; stroke-linejoin:round; stroke-width:2; stroke-opacity:0.1; fill:none" points="
  193.271,1423.18 193.271,47.2441 
  "/>
<polyline clip-path="url(#clip282)" style="stroke:#000000; stroke-linecap:butt; stroke-linejoin:round; stroke-width:2; stroke-opacity:0.1; fill:none" points="
  717.601,1423.18 717.601,47.2441 
  "/>
<polyline clip-path="url(#clip282)" style="stroke:#000000; stroke-linecap:butt; stroke-linejoin:round; stroke-width:2; stroke-opacity:0.1; fill:none" points="
  1241.93,1423.18 1241.93,47.2441 
  "/>
<polyline clip-path="url(#clip282)" style="stroke:#000000; stroke-linecap:butt; stroke-linejoin:round; stroke-width:2; stroke-opacity:0.1; fill:none" points="
  1766.26,1423.18 1766.26,47.2441 
  "/>
<polyline clip-path="url(#clip282)" style="stroke:#000000; stroke-linecap:butt; stroke-linejoin:round; stroke-width:2; stroke-opacity:0.1; fill:none" points="
  2290.59,1423.18 2290.59,47.2441 
  "/>
<polyline clip-path="url(#clip280)" style="stroke:#000000; stroke-linecap:butt; stroke-linejoin:round; stroke-width:4; stroke-opacity:1; fill:none" points="
  156.274,1423.18 2352.76,1423.18 
  "/>
<polyline clip-path="url(#clip280)" style="stroke:#000000; stroke-linecap:butt; stroke-linejoin:round; stroke-width:4; stroke-opacity:1; fill:none" points="
  193.271,1423.18 193.271,1404.28 
  "/>
<polyline clip-path="url(#clip280)" style="stroke:#000000; stroke-linecap:butt; stroke-linejoin:round; stroke-width:4; stroke-opacity:1; fill:none" points="
  717.601,1423.18 717.601,1404.28 
  "/>
<polyline clip-path="url(#clip280)" style="stroke:#000000; stroke-linecap:butt; stroke-linejoin:round; stroke-width:4; stroke-opacity:1; fill:none" points="
  1241.93,1423.18 1241.93,1404.28 
  "/>
<polyline clip-path="url(#clip280)" style="stroke:#000000; stroke-linecap:butt; stroke-linejoin:round; stroke-width:4; stroke-opacity:1; fill:none" points="
  1766.26,1423.18 1766.26,1404.28 
  "/>
<polyline clip-path="url(#clip280)" style="stroke:#000000; stroke-linecap:butt; stroke-linejoin:round; stroke-width:4; stroke-opacity:1; fill:none" points="
  2290.59,1423.18 2290.59,1404.28 
  "/>
<path clip-path="url(#clip280)" d="M193.271 1454.1 Q189.66 1454.1 187.831 1457.66 Q186.026 1461.2 186.026 1468.33 Q186.026 1475.44 187.831 1479.01 Q189.66 1482.55 193.271 1482.55 Q196.905 1482.55 198.711 1479.01 Q200.539 1475.44 200.539 1468.33 Q200.539 1461.2 198.711 1457.66 Q196.905 1454.1 193.271 1454.1 M193.271 1450.39 Q199.081 1450.39 202.137 1455 Q205.215 1459.58 205.215 1468.33 Q205.215 1477.06 202.137 1481.67 Q199.081 1486.25 193.271 1486.25 Q187.461 1486.25 184.382 1481.67 Q181.327 1477.06 181.327 1468.33 Q181.327 1459.58 184.382 1455 Q187.461 1450.39 193.271 1450.39 Z" fill="#000000" fill-rule="evenodd" fill-opacity="1" /><path clip-path="url(#clip280)" d="M696.872 1481.64 L713.191 1481.64 L713.191 1485.58 L691.247 1485.58 L691.247 1481.64 Q693.909 1478.89 698.492 1474.26 Q703.099 1469.61 704.279 1468.27 Q706.525 1465.74 707.404 1464.01 Q708.307 1462.25 708.307 1460.56 Q708.307 1457.8 706.363 1456.07 Q704.441 1454.33 701.34 1454.33 Q699.14 1454.33 696.687 1455.09 Q694.256 1455.86 691.478 1457.41 L691.478 1452.69 Q694.303 1451.55 696.756 1450.97 Q699.21 1450.39 701.247 1450.39 Q706.617 1450.39 709.812 1453.08 Q713.006 1455.77 713.006 1460.26 Q713.006 1462.39 712.196 1464.31 Q711.409 1466.2 709.302 1468.8 Q708.724 1469.47 705.622 1472.69 Q702.52 1475.88 696.872 1481.64 Z" fill="#000000" fill-rule="evenodd" fill-opacity="1" /><path clip-path="url(#clip280)" d="M723.052 1451.02 L741.409 1451.02 L741.409 1454.96 L727.335 1454.96 L727.335 1463.43 Q728.353 1463.08 729.372 1462.92 Q730.39 1462.73 731.409 1462.73 Q737.196 1462.73 740.575 1465.9 Q743.955 1469.08 743.955 1474.49 Q743.955 1480.07 740.483 1483.17 Q737.011 1486.25 730.691 1486.25 Q728.515 1486.25 726.247 1485.88 Q724.001 1485.51 721.594 1484.77 L721.594 1480.07 Q723.677 1481.2 725.9 1481.76 Q728.122 1482.32 730.599 1482.32 Q734.603 1482.32 736.941 1480.21 Q739.279 1478.1 739.279 1474.49 Q739.279 1470.88 736.941 1468.77 Q734.603 1466.67 730.599 1466.67 Q728.724 1466.67 726.849 1467.08 Q724.997 1467.5 723.052 1468.38 L723.052 1451.02 Z" fill="#000000" fill-rule="evenodd" fill-opacity="1" /><path clip-path="url(#clip280)" d="M1216.63 1451.02 L1234.99 1451.02 L1234.99 1454.96 L1220.91 1454.96 L1220.91 1463.43 Q1221.93 1463.08 1222.95 1462.92 Q1223.97 1462.73 1224.99 1462.73 Q1230.77 1462.73 1234.15 1465.9 Q1237.53 1469.08 1237.53 1474.49 Q1237.53 1480.07 1234.06 1483.17 Q1230.59 1486.25 1224.27 1486.25 Q1222.09 1486.25 1219.82 1485.88 Q1217.58 1485.51 1215.17 1484.77 L1215.17 1480.07 Q1217.26 1481.2 1219.48 1481.76 Q1221.7 1482.32 1224.18 1482.32 Q1228.18 1482.32 1230.52 1480.21 Q1232.86 1478.1 1232.86 1474.49 Q1232.86 1470.88 1230.52 1468.77 Q1228.18 1466.67 1224.18 1466.67 Q1222.3 1466.67 1220.43 1467.08 Q1218.57 1467.5 1216.63 1468.38 L1216.63 1451.02 Z" fill="#000000" fill-rule="evenodd" fill-opacity="1" /><path clip-path="url(#clip280)" d="M1256.75 1454.1 Q1253.13 1454.1 1251.31 1457.66 Q1249.5 1461.2 1249.5 1468.33 Q1249.5 1475.44 1251.31 1479.01 Q1253.13 1482.55 1256.75 1482.55 Q1260.38 1482.55 1262.19 1479.01 Q1264.01 1475.44 1264.01 1468.33 Q1264.01 1461.2 1262.19 1457.66 Q1260.38 1454.1 1256.75 1454.1 M1256.75 1450.39 Q1262.56 1450.39 1265.61 1455 Q1268.69 1459.58 1268.69 1468.33 Q1268.69 1477.06 1265.61 1481.67 Q1262.56 1486.25 1256.75 1486.25 Q1250.94 1486.25 1247.86 1481.67 Q1244.8 1477.06 1244.8 1468.33 Q1244.8 1459.58 1247.86 1455 Q1250.94 1450.39 1256.75 1450.39 Z" fill="#000000" fill-rule="evenodd" fill-opacity="1" /><path clip-path="url(#clip280)" d="M1740.12 1451.02 L1762.34 1451.02 L1762.34 1453.01 L1749.79 1485.58 L1744.91 1485.58 L1756.71 1454.96 L1740.12 1454.96 L1740.12 1451.02 Z" fill="#000000" fill-rule="evenodd" fill-opacity="1" /><path clip-path="url(#clip280)" d="M1771.5 1451.02 L1789.86 1451.02 L1789.86 1454.96 L1775.79 1454.96 L1775.79 1463.43 Q1776.81 1463.08 1777.82 1462.92 Q1778.84 1462.73 1779.86 1462.73 Q1785.65 1462.73 1789.03 1465.9 Q1792.41 1469.08 1792.41 1474.49 Q1792.41 1480.07 1788.93 1483.17 Q1785.46 1486.25 1779.14 1486.25 Q1776.97 1486.25 1774.7 1485.88 Q1772.45 1485.51 1770.05 1484.77 L1770.05 1480.07 Q1772.13 1481.2 1774.35 1481.76 Q1776.57 1482.32 1779.05 1482.32 Q1783.06 1482.32 1785.39 1480.21 Q1787.73 1478.1 1787.73 1474.49 Q1787.73 1470.88 1785.39 1468.77 Q1783.06 1466.67 1779.05 1466.67 Q1777.18 1466.67 1775.3 1467.08 Q1773.45 1467.5 1771.5 1468.38 L1771.5 1451.02 Z" fill="#000000" fill-rule="evenodd" fill-opacity="1" /><path clip-path="url(#clip280)" d="M2250.2 1481.64 L2257.84 1481.64 L2257.84 1455.28 L2249.53 1456.95 L2249.53 1452.69 L2257.79 1451.02 L2262.47 1451.02 L2262.47 1481.64 L2270.11 1481.64 L2270.11 1485.58 L2250.2 1485.58 L2250.2 1481.64 Z" fill="#000000" fill-rule="evenodd" fill-opacity="1" /><path clip-path="url(#clip280)" d="M2289.55 1454.1 Q2285.94 1454.1 2284.11 1457.66 Q2282.3 1461.2 2282.3 1468.33 Q2282.3 1475.44 2284.11 1479.01 Q2285.94 1482.55 2289.55 1482.55 Q2293.18 1482.55 2294.99 1479.01 Q2296.82 1475.44 2296.82 1468.33 Q2296.82 1461.2 2294.99 1457.66 Q2293.18 1454.1 2289.55 1454.1 M2289.55 1450.39 Q2295.36 1450.39 2298.42 1455 Q2301.49 1459.58 2301.49 1468.33 Q2301.49 1477.06 2298.42 1481.67 Q2295.36 1486.25 2289.55 1486.25 Q2283.74 1486.25 2280.66 1481.67 Q2277.61 1477.06 2277.61 1468.33 Q2277.61 1459.58 2280.66 1455 Q2283.74 1450.39 2289.55 1450.39 Z" fill="#000000" fill-rule="evenodd" fill-opacity="1" /><path clip-path="url(#clip280)" d="M2319.71 1454.1 Q2316.1 1454.1 2314.27 1457.66 Q2312.47 1461.2 2312.47 1468.33 Q2312.47 1475.44 2314.27 1479.01 Q2316.1 1482.55 2319.71 1482.55 Q2323.35 1482.55 2325.15 1479.01 Q2326.98 1475.44 2326.98 1468.33 Q2326.98 1461.2 2325.15 1457.66 Q2323.35 1454.1 2319.71 1454.1 M2319.71 1450.39 Q2325.52 1450.39 2328.58 1455 Q2331.66 1459.58 2331.66 1468.33 Q2331.66 1477.06 2328.58 1481.67 Q2325.52 1486.25 2319.71 1486.25 Q2313.9 1486.25 2310.82 1481.67 Q2307.77 1477.06 2307.77 1468.33 Q2307.77 1459.58 2310.82 1455 Q2313.9 1450.39 2319.71 1450.39 Z" fill="#000000" fill-rule="evenodd" fill-opacity="1" /><path clip-path="url(#clip280)" d="M1235.66 1520.52 L1242.09 1520.52 L1242.09 1540.61 L1263.41 1520.52 L1271.69 1520.52 L1248.1 1542.68 L1273.37 1568.04 L1264.91 1568.04 L1242.09 1545.16 L1242.09 1568.04 L1235.66 1568.04 L1235.66 1520.52 Z" fill="#000000" fill-rule="evenodd" fill-opacity="1" /><polyline clip-path="url(#clip282)" style="stroke:#000000; stroke-linecap:butt; stroke-linejoin:round; stroke-width:2; stroke-opacity:0.1; fill:none" points="
  156.274,1203.04 2352.76,1203.04 
  "/>
<polyline clip-path="url(#clip282)" style="stroke:#000000; stroke-linecap:butt; stroke-linejoin:round; stroke-width:2; stroke-opacity:0.1; fill:none" points="
  156.274,860.448 2352.76,860.448 
  "/>
<polyline clip-path="url(#clip282)" style="stroke:#000000; stroke-linecap:butt; stroke-linejoin:round; stroke-width:2; stroke-opacity:0.1; fill:none" points="
  156.274,517.854 2352.76,517.854 
  "/>
<polyline clip-path="url(#clip282)" style="stroke:#000000; stroke-linecap:butt; stroke-linejoin:round; stroke-width:2; stroke-opacity:0.1; fill:none" points="
  156.274,175.26 2352.76,175.26 
  "/>
<polyline clip-path="url(#clip280)" style="stroke:#000000; stroke-linecap:butt; stroke-linejoin:round; stroke-width:4; stroke-opacity:1; fill:none" points="
  156.274,1423.18 156.274,47.2441 
  "/>
<polyline clip-path="url(#clip280)" style="stroke:#000000; stroke-linecap:butt; stroke-linejoin:round; stroke-width:4; stroke-opacity:1; fill:none" points="
  156.274,1203.04 175.172,1203.04 
  "/>
<polyline clip-path="url(#clip280)" style="stroke:#000000; stroke-linecap:butt; stroke-linejoin:round; stroke-width:4; stroke-opacity:1; fill:none" points="
  156.274,860.448 175.172,860.448 
  "/>
<polyline clip-path="url(#clip280)" style="stroke:#000000; stroke-linecap:butt; stroke-linejoin:round; stroke-width:4; stroke-opacity:1; fill:none" points="
  156.274,517.854 175.172,517.854 
  "/>
<polyline clip-path="url(#clip280)" style="stroke:#000000; stroke-linecap:butt; stroke-linejoin:round; stroke-width:4; stroke-opacity:1; fill:none" points="
  156.274,175.26 175.172,175.26 
  "/>
<path clip-path="url(#clip280)" d="M62.9365 1188.84 Q59.3254 1188.84 57.4967 1192.41 Q55.6912 1195.95 55.6912 1203.08 Q55.6912 1210.18 57.4967 1213.75 Q59.3254 1217.29 62.9365 1217.29 Q66.5707 1217.29 68.3763 1213.75 Q70.205 1210.18 70.205 1203.08 Q70.205 1195.95 68.3763 1192.41 Q66.5707 1188.84 62.9365 1188.84 M62.9365 1185.14 Q68.7467 1185.14 71.8022 1189.74 Q74.8809 1194.33 74.8809 1203.08 Q74.8809 1211.8 71.8022 1216.41 Q68.7467 1220.99 62.9365 1220.99 Q57.1264 1220.99 54.0477 1216.41 Q50.9921 1211.8 50.9921 1203.08 Q50.9921 1194.33 54.0477 1189.74 Q57.1264 1185.14 62.9365 1185.14 Z" fill="#000000" fill-rule="evenodd" fill-opacity="1" /><path clip-path="url(#clip280)" d="M83.0984 1214.44 L87.9827 1214.44 L87.9827 1220.32 L83.0984 1220.32 L83.0984 1214.44 Z" fill="#000000" fill-rule="evenodd" fill-opacity="1" /><path clip-path="url(#clip280)" d="M108.746 1201.18 Q105.598 1201.18 103.746 1203.33 Q101.918 1205.48 101.918 1209.23 Q101.918 1212.96 103.746 1215.14 Q105.598 1217.29 108.746 1217.29 Q111.895 1217.29 113.723 1215.14 Q115.575 1212.96 115.575 1209.23 Q115.575 1205.48 113.723 1203.33 Q111.895 1201.18 108.746 1201.18 M118.029 1186.53 L118.029 1190.78 Q116.27 1189.95 114.464 1189.51 Q112.682 1189.07 110.922 1189.07 Q106.293 1189.07 103.839 1192.2 Q101.409 1195.32 101.061 1201.64 Q102.427 1199.63 104.487 1198.56 Q106.547 1197.47 109.024 1197.47 Q114.233 1197.47 117.242 1200.65 Q120.274 1203.79 120.274 1209.23 Q120.274 1214.56 117.126 1217.78 Q113.978 1220.99 108.746 1220.99 Q102.751 1220.99 99.5798 1216.41 Q96.4085 1211.8 96.4085 1203.08 Q96.4085 1194.88 100.297 1190.02 Q104.186 1185.14 110.737 1185.14 Q112.496 1185.14 114.279 1185.48 Q116.084 1185.83 118.029 1186.53 Z" fill="#000000" fill-rule="evenodd" fill-opacity="1" /><path clip-path="url(#clip280)" d="M64.0013 846.247 Q60.3902 846.247 58.5615 849.811 Q56.756 853.353 56.756 860.483 Q56.756 867.589 58.5615 871.154 Q60.3902 874.695 64.0013 874.695 Q67.6356 874.695 69.4411 871.154 Q71.2698 867.589 71.2698 860.483 Q71.2698 853.353 69.4411 849.811 Q67.6356 846.247 64.0013 846.247 M64.0013 842.543 Q69.8115 842.543 72.867 847.149 Q75.9457 851.733 75.9457 860.483 Q75.9457 869.209 72.867 873.816 Q69.8115 878.399 64.0013 878.399 Q58.1912 878.399 55.1125 873.816 Q52.0569 869.209 52.0569 860.483 Q52.0569 851.733 55.1125 847.149 Q58.1912 842.543 64.0013 842.543 Z" fill="#000000" fill-rule="evenodd" fill-opacity="1" /><path clip-path="url(#clip280)" d="M84.1632 871.848 L89.0475 871.848 L89.0475 877.728 L84.1632 877.728 L84.1632 871.848 Z" fill="#000000" fill-rule="evenodd" fill-opacity="1" /><path clip-path="url(#clip280)" d="M98.0521 843.168 L120.274 843.168 L120.274 845.159 L107.728 877.728 L102.844 877.728 L114.649 847.103 L98.0521 847.103 L98.0521 843.168 Z" fill="#000000" fill-rule="evenodd" fill-opacity="1" /><path clip-path="url(#clip280)" d="M63.1911 503.653 Q59.58 503.653 57.7513 507.217 Q55.9458 510.759 55.9458 517.889 Q55.9458 524.995 57.7513 528.56 Q59.58 532.102 63.1911 532.102 Q66.8254 532.102 68.6309 528.56 Q70.4596 524.995 70.4596 517.889 Q70.4596 510.759 68.6309 507.217 Q66.8254 503.653 63.1911 503.653 M63.1911 499.949 Q69.0013 499.949 72.0568 504.555 Q75.1355 509.139 75.1355 517.889 Q75.1355 526.615 72.0568 531.222 Q69.0013 535.805 63.1911 535.805 Q57.381 535.805 54.3023 531.222 Q51.2468 526.615 51.2468 517.889 Q51.2468 509.139 54.3023 504.555 Q57.381 499.949 63.1911 499.949 Z" fill="#000000" fill-rule="evenodd" fill-opacity="1" /><path clip-path="url(#clip280)" d="M83.3531 529.254 L88.2373 529.254 L88.2373 535.134 L83.3531 535.134 L83.3531 529.254 Z" fill="#000000" fill-rule="evenodd" fill-opacity="1" /><path clip-path="url(#clip280)" d="M108.422 518.722 Q105.089 518.722 103.168 520.504 Q101.27 522.287 101.27 525.412 Q101.27 528.537 103.168 530.319 Q105.089 532.102 108.422 532.102 Q111.756 532.102 113.677 530.319 Q115.598 528.514 115.598 525.412 Q115.598 522.287 113.677 520.504 Q111.779 518.722 108.422 518.722 M103.746 516.731 Q100.737 515.991 99.0474 513.93 Q97.3808 511.87 97.3808 508.907 Q97.3808 504.764 100.321 502.356 Q103.284 499.949 108.422 499.949 Q113.584 499.949 116.524 502.356 Q119.464 504.764 119.464 508.907 Q119.464 511.87 117.774 513.93 Q116.108 515.991 113.121 516.731 Q116.501 517.518 118.376 519.81 Q120.274 522.102 120.274 525.412 Q120.274 530.435 117.195 533.12 Q114.14 535.805 108.422 535.805 Q102.705 535.805 99.6261 533.12 Q96.5706 530.435 96.5706 525.412 Q96.5706 522.102 98.4687 519.81 Q100.367 517.518 103.746 516.731 M102.034 509.347 Q102.034 512.032 103.7 513.537 Q105.39 515.041 108.422 515.041 Q111.432 515.041 113.121 513.537 Q114.834 512.032 114.834 509.347 Q114.834 506.662 113.121 505.157 Q111.432 503.653 108.422 503.653 Q105.39 503.653 103.7 505.157 Q102.034 506.662 102.034 509.347 Z" fill="#000000" fill-rule="evenodd" fill-opacity="1" /><path clip-path="url(#clip280)" d="M63.2837 161.059 Q59.6726 161.059 57.8439 164.624 Q56.0384 168.165 56.0384 175.295 Q56.0384 182.401 57.8439 185.966 Q59.6726 189.508 63.2837 189.508 Q66.918 189.508 68.7235 185.966 Q70.5522 182.401 70.5522 175.295 Q70.5522 168.165 68.7235 164.624 Q66.918 161.059 63.2837 161.059 M63.2837 157.355 Q69.0939 157.355 72.1494 161.962 Q75.2281 166.545 75.2281 175.295 Q75.2281 184.022 72.1494 188.628 Q69.0939 193.211 63.2837 193.211 Q57.4736 193.211 54.3949 188.628 Q51.3393 184.022 51.3393 175.295 Q51.3393 166.545 54.3949 161.962 Q57.4736 157.355 63.2837 157.355 Z" fill="#000000" fill-rule="evenodd" fill-opacity="1" /><path clip-path="url(#clip280)" d="M83.4457 186.66 L88.3299 186.66 L88.3299 192.54 L83.4457 192.54 L83.4457 186.66 Z" fill="#000000" fill-rule="evenodd" fill-opacity="1" /><path clip-path="url(#clip280)" d="M98.6539 191.822 L98.6539 187.563 Q100.413 188.397 102.219 188.836 Q104.024 189.276 105.76 189.276 Q110.39 189.276 112.82 186.174 Q115.274 183.049 115.621 176.707 Q114.279 178.698 112.219 179.762 Q110.158 180.827 107.658 180.827 Q102.473 180.827 99.4409 177.702 Q96.4317 174.554 96.4317 169.114 Q96.4317 163.79 99.5798 160.573 Q102.728 157.355 107.959 157.355 Q113.955 157.355 117.103 161.962 Q120.274 166.545 120.274 175.295 Q120.274 183.466 116.385 188.35 Q112.52 193.211 105.969 193.211 Q104.209 193.211 102.404 192.864 Q100.598 192.517 98.6539 191.822 M107.959 177.17 Q111.108 177.17 112.936 175.017 Q114.788 172.864 114.788 169.114 Q114.788 165.387 112.936 163.235 Q111.108 161.059 107.959 161.059 Q104.811 161.059 102.959 163.235 Q101.131 165.387 101.131 169.114 Q101.131 172.864 102.959 175.017 Q104.811 177.17 107.959 177.17 Z" fill="#000000" fill-rule="evenodd" fill-opacity="1" /><polyline clip-path="url(#clip282)" style="stroke:#ffa500; stroke-linecap:butt; stroke-linejoin:round; stroke-width:4; stroke-opacity:1; fill:none" points="
  218.439,1201.77 239.37,1077.89 260.3,1011.79 281.231,969.185 302.162,938.989 323.093,916.315 344.024,898.612 364.955,884.397 385.885,872.739 406.816,863.018 
  427.747,854.806 448.678,847.795 469.609,841.756 490.54,836.517 511.47,831.944 532.401,827.933 553.332,824.398 574.263,821.274 595.194,818.503 616.125,816.041 
  637.055,813.849 657.986,811.894 678.917,810.15 699.848,808.592 720.779,807.202 741.71,805.961 762.64,804.855 783.571,803.87 804.502,802.994 825.433,802.219 
  846.364,801.534 867.295,800.931 888.225,800.405 909.156,799.947 930.087,799.553 951.018,799.217 971.949,798.935 992.88,798.702 1013.81,798.515 1034.74,798.371 
  1055.67,798.265 1076.6,798.196 1097.53,798.161 1118.46,798.157 1139.4,798.182 1160.33,798.235 1181.26,798.313 1202.19,798.414 1223.12,798.538 1244.05,798.682 
  1264.98,798.845 1285.91,799.027 1306.84,799.225 1327.77,799.44 1348.7,799.669 1369.63,799.912 1390.57,800.168 1411.5,800.436 1432.43,800.716 1453.36,801.007 
  1474.29,801.307 1495.22,801.618 1516.15,801.937 1537.08,802.265 1558.01,802.6 1578.94,802.943 1599.87,803.293 1620.8,803.65 1641.74,804.013 1662.67,804.381 
  1683.6,804.755 1704.53,805.135 1725.46,805.519 1746.39,805.907 1767.32,806.3 1788.25,806.697 1809.18,807.097 1830.11,807.501 1851.04,807.909 1871.97,808.319 
  1892.91,808.732 1913.84,809.148 1934.77,809.567 1955.7,809.988 1976.63,810.411 1997.56,810.836 2018.49,811.263 2039.42,811.692 2060.35,812.122 2081.28,812.554 
  2102.21,812.987 2123.14,813.421 2144.08,813.857 2165.01,814.294 2185.94,814.731 2206.87,815.17 2227.8,815.609 2248.73,816.049 2269.66,816.49 2290.59,816.931 
  
  "/>
<circle clip-path="url(#clip282)" cx="218.439" cy="1244.15" r="14.4" fill="#ffa500" fill-rule="evenodd" fill-opacity="1" stroke="#000000" stroke-opacity="1" stroke-width="3.2"/>
<circle clip-path="url(#clip282)" cx="224.731" cy="1182.49" r="14.4" fill="#ffa500" fill-rule="evenodd" fill-opacity="1" stroke="#000000" stroke-opacity="1" stroke-width="3.2"/>
<circle clip-path="url(#clip282)" cx="235.217" cy="1127.67" r="14.4" fill="#ffa500" fill-rule="evenodd" fill-opacity="1" stroke="#000000" stroke-opacity="1" stroke-width="3.2"/>
<circle clip-path="url(#clip282)" cx="256.191" cy="1069.43" r="14.4" fill="#ffa500" fill-rule="evenodd" fill-opacity="1" stroke="#000000" stroke-opacity="1" stroke-width="3.2"/>
<circle clip-path="url(#clip282)" cx="277.164" cy="1035.17" r="14.4" fill="#ffa500" fill-rule="evenodd" fill-opacity="1" stroke="#000000" stroke-opacity="1" stroke-width="3.2"/>
<circle clip-path="url(#clip282)" cx="319.11" cy="959.8" r="14.4" fill="#ffa500" fill-rule="evenodd" fill-opacity="1" stroke="#000000" stroke-opacity="1" stroke-width="3.2"/>
<circle clip-path="url(#clip282)" cx="361.057" cy="911.837" r="14.4" fill="#ffa500" fill-rule="evenodd" fill-opacity="1" stroke="#000000" stroke-opacity="1" stroke-width="3.2"/>
<circle clip-path="url(#clip282)" cx="403.003" cy="877.578" r="14.4" fill="#ffa500" fill-rule="evenodd" fill-opacity="1" stroke="#000000" stroke-opacity="1" stroke-width="3.2"/>
<circle clip-path="url(#clip282)" cx="507.869" cy="853.596" r="14.4" fill="#ffa500" fill-rule="evenodd" fill-opacity="1" stroke="#000000" stroke-opacity="1" stroke-width="3.2"/>
<circle clip-path="url(#clip282)" cx="612.735" cy="826.188" r="14.4" fill="#ffa500" fill-rule="evenodd" fill-opacity="1" stroke="#000000" stroke-opacity="1" stroke-width="3.2"/>
<circle clip-path="url(#clip282)" cx="1032.2" cy="826.188" r="14.4" fill="#ffa500" fill-rule="evenodd" fill-opacity="1" stroke="#000000" stroke-opacity="1" stroke-width="3.2"/>
<circle clip-path="url(#clip282)" cx="2290.59" cy="826.188" r="14.4" fill="#ffa500" fill-rule="evenodd" fill-opacity="1" stroke="#000000" stroke-opacity="1" stroke-width="3.2"/>
<polyline clip-path="url(#clip282)" style="stroke:#add8e6; stroke-linecap:butt; stroke-linejoin:round; stroke-width:4; stroke-opacity:1; fill:none" points="
  218.439,1384.24 239.37,1130.75 260.3,980.462 281.231,875.862 302.162,796.86 323.093,734.118 344.024,682.553 364.955,639.106 385.885,601.796 406.816,569.273 
  427.747,540.578 448.678,515.004 469.609,492.019 490.54,471.211 511.47,452.256 532.401,434.896 553.332,418.92 574.263,404.155 595.194,390.457 616.125,377.706 
  637.055,365.8 657.986,354.651 678.917,344.184 699.848,334.334 720.779,325.045 741.71,316.268 762.64,307.959 783.571,300.08 804.502,292.595 825.433,285.476 
  846.364,278.694 867.295,272.225 888.225,266.048 909.156,260.141 930.087,254.488 951.018,249.071 971.949,243.875 992.88,238.888 1013.81,234.095 1034.74,229.487 
  1055.67,225.052 1076.6,220.781 1097.53,216.664 1118.46,212.693 1139.4,208.861 1160.33,205.16 1181.26,201.584 1202.19,198.126 1223.12,194.781 1244.05,191.543 
  1264.98,188.408 1285.91,185.37 1306.84,182.425 1327.77,179.569 1348.7,176.798 1369.63,174.108 1390.57,171.496 1411.5,168.959 1432.43,166.494 1453.36,164.097 
  1474.29,161.767 1495.22,159.499 1516.15,157.293 1537.08,155.145 1558.01,153.053 1578.94,151.016 1599.87,149.031 1620.8,147.097 1641.74,145.211 1662.67,143.372 
  1683.6,141.578 1704.53,139.828 1725.46,138.12 1746.39,136.453 1767.32,134.826 1788.25,133.236 1809.18,131.684 1830.11,130.167 1851.04,128.685 1871.97,127.237 
  1892.91,125.821 1913.84,124.437 1934.77,123.083 1955.7,121.759 1976.63,120.463 1997.56,119.196 2018.49,117.956 2039.42,116.742 2060.35,115.554 2081.28,114.39 
  2102.21,113.251 2123.14,112.136 2144.08,111.043 2165.01,109.972 2185.94,108.924 2206.87,107.896 2227.8,106.889 2248.73,105.902 2269.66,104.934 2290.59,103.986 
  
  "/>
<circle clip-path="url(#clip282)" cx="218.439" cy="1367.49" r="14.4" fill="#add8e6" fill-rule="evenodd" fill-opacity="1" stroke="#000000" stroke-opacity="1" stroke-width="3.2"/>
<circle clip-path="url(#clip282)" cx="224.731" cy="1285.26" r="14.4" fill="#add8e6" fill-rule="evenodd" fill-opacity="1" stroke="#000000" stroke-opacity="1" stroke-width="3.2"/>
<circle clip-path="url(#clip282)" cx="235.217" cy="1161.93" r="14.4" fill="#add8e6" fill-rule="evenodd" fill-opacity="1" stroke="#000000" stroke-opacity="1" stroke-width="3.2"/>
<circle clip-path="url(#clip282)" cx="256.191" cy="990.634" r="14.4" fill="#add8e6" fill-rule="evenodd" fill-opacity="1" stroke="#000000" stroke-opacity="1" stroke-width="3.2"/>
<circle clip-path="url(#clip282)" cx="277.164" cy="870.726" r="14.4" fill="#add8e6" fill-rule="evenodd" fill-opacity="1" stroke="#000000" stroke-opacity="1" stroke-width="3.2"/>
<circle clip-path="url(#clip282)" cx="319.11" cy="733.688" r="14.4" fill="#add8e6" fill-rule="evenodd" fill-opacity="1" stroke="#000000" stroke-opacity="1" stroke-width="3.2"/>
<circle clip-path="url(#clip282)" cx="361.057" cy="648.04" r="14.4" fill="#add8e6" fill-rule="evenodd" fill-opacity="1" stroke="#000000" stroke-opacity="1" stroke-width="3.2"/>
<circle clip-path="url(#clip282)" cx="403.003" cy="572.669" r="14.4" fill="#add8e6" fill-rule="evenodd" fill-opacity="1" stroke="#000000" stroke-opacity="1" stroke-width="3.2"/>
<circle clip-path="url(#clip282)" cx="507.869" cy="456.187" r="14.4" fill="#add8e6" fill-rule="evenodd" fill-opacity="1" stroke="#000000" stroke-opacity="1" stroke-width="3.2"/>
<circle clip-path="url(#clip282)" cx="612.735" cy="384.242" r="14.4" fill="#add8e6" fill-rule="evenodd" fill-opacity="1" stroke="#000000" stroke-opacity="1" stroke-width="3.2"/>
<circle clip-path="url(#clip282)" cx="1032.2" cy="233.501" r="14.4" fill="#add8e6" fill-rule="evenodd" fill-opacity="1" stroke="#000000" stroke-opacity="1" stroke-width="3.2"/>
<circle clip-path="url(#clip282)" cx="2290.59" cy="86.1857" r="14.4" fill="#add8e6" fill-rule="evenodd" fill-opacity="1" stroke="#000000" stroke-opacity="1" stroke-width="3.2"/>
<path clip-path="url(#clip280)" d="
M1452.97 1377.32 L2279.54 1377.32 L2279.54 1221.8 L1452.97 1221.8  Z
  " fill="#ffffff" fill-rule="evenodd" fill-opacity="1"/>
<polyline clip-path="url(#clip280)" style="stroke:#000000; stroke-linecap:butt; stroke-linejoin:round; stroke-width:4; stroke-opacity:1; fill:none" points="
  1452.97,1377.32 2279.54,1377.32 2279.54,1221.8 1452.97,1221.8 1452.97,1377.32 
  "/>
<polyline clip-path="url(#clip280)" style="stroke:#ffa500; stroke-linecap:butt; stroke-linejoin:round; stroke-width:4; stroke-opacity:1; fill:none" points="
  1477.37,1273.64 1623.8,1273.64 
  "/>
<path clip-path="url(#clip280)" d="M1676.08 1259.02 L1676.08 1263.95 Q1673.72 1261.75 1671.03 1260.66 Q1668.37 1259.57 1665.36 1259.57 Q1659.44 1259.57 1656.29 1263.21 Q1653.14 1266.82 1653.14 1273.67 Q1653.14 1280.5 1656.29 1284.13 Q1659.44 1287.74 1665.36 1287.74 Q1668.37 1287.74 1671.03 1286.66 Q1673.72 1285.57 1676.08 1283.37 L1676.08 1288.25 Q1673.63 1289.92 1670.87 1290.75 Q1668.14 1291.59 1665.08 1291.59 Q1657.24 1291.59 1652.72 1286.79 Q1648.21 1281.98 1648.21 1273.67 Q1648.21 1265.34 1652.72 1260.55 Q1657.24 1255.73 1665.08 1255.73 Q1668.19 1255.73 1670.92 1256.56 Q1673.67 1257.37 1676.08 1259.02 Z" fill="#000000" fill-rule="evenodd" fill-opacity="1" /><path clip-path="url(#clip280)" d="M1698.14 1268.97 Q1697.42 1268.55 1696.57 1268.37 Q1695.73 1268.16 1694.71 1268.16 Q1691.1 1268.16 1689.16 1270.52 Q1687.24 1272.86 1687.24 1277.26 L1687.24 1290.92 L1682.95 1290.92 L1682.95 1264.99 L1687.24 1264.99 L1687.24 1269.02 Q1688.58 1266.66 1690.73 1265.52 Q1692.88 1264.36 1695.96 1264.36 Q1696.4 1264.36 1696.94 1264.43 Q1697.47 1264.48 1698.12 1264.6 L1698.14 1268.97 Z" fill="#000000" fill-rule="evenodd" fill-opacity="1" /><path clip-path="url(#clip280)" d="M1702.61 1264.99 L1706.87 1264.99 L1706.87 1290.92 L1702.61 1290.92 L1702.61 1264.99 M1702.61 1254.9 L1706.87 1254.9 L1706.87 1260.29 L1702.61 1260.29 L1702.61 1254.9 Z" fill="#000000" fill-rule="evenodd" fill-opacity="1" /><path clip-path="url(#clip280)" d="M1719.99 1257.63 L1719.99 1264.99 L1728.76 1264.99 L1728.76 1268.3 L1719.99 1268.3 L1719.99 1282.37 Q1719.99 1285.54 1720.85 1286.45 Q1721.73 1287.35 1724.39 1287.35 L1728.76 1287.35 L1728.76 1290.92 L1724.39 1290.92 Q1719.46 1290.92 1717.58 1289.09 Q1715.71 1287.23 1715.71 1282.37 L1715.71 1268.3 L1712.58 1268.3 L1712.58 1264.99 L1715.71 1264.99 L1715.71 1257.63 L1719.99 1257.63 Z" fill="#000000" fill-rule="evenodd" fill-opacity="1" /><path clip-path="url(#clip280)" d="M1734.37 1264.99 L1738.63 1264.99 L1738.63 1290.92 L1734.37 1290.92 L1734.37 1264.99 M1734.37 1254.9 L1738.63 1254.9 L1738.63 1260.29 L1734.37 1260.29 L1734.37 1254.9 Z" fill="#000000" fill-rule="evenodd" fill-opacity="1" /><path clip-path="url(#clip280)" d="M1766.19 1265.98 L1766.19 1269.97 Q1764.39 1268.97 1762.56 1268.48 Q1760.75 1267.98 1758.9 1267.98 Q1754.76 1267.98 1752.47 1270.61 Q1750.18 1273.23 1750.18 1277.98 Q1750.18 1282.72 1752.47 1285.36 Q1754.76 1287.98 1758.9 1287.98 Q1760.75 1287.98 1762.56 1287.49 Q1764.39 1286.98 1766.19 1285.98 L1766.19 1289.92 Q1764.41 1290.75 1762.49 1291.17 Q1760.59 1291.59 1758.44 1291.59 Q1752.58 1291.59 1749.13 1287.91 Q1745.69 1284.23 1745.69 1277.98 Q1745.69 1271.63 1749.16 1268 Q1752.65 1264.36 1758.72 1264.36 Q1760.69 1264.36 1762.56 1264.78 Q1764.44 1265.17 1766.19 1265.98 Z" fill="#000000" fill-rule="evenodd" fill-opacity="1" /><path clip-path="url(#clip280)" d="M1785.38 1277.88 Q1780.22 1277.88 1778.23 1279.06 Q1776.24 1280.24 1776.24 1283.09 Q1776.24 1285.36 1777.72 1286.7 Q1779.23 1288.02 1781.8 1288.02 Q1785.34 1288.02 1787.47 1285.52 Q1789.62 1283 1789.62 1278.83 L1789.62 1277.88 L1785.38 1277.88 M1793.88 1276.12 L1793.88 1290.92 L1789.62 1290.92 L1789.62 1286.98 Q1788.16 1289.34 1785.99 1290.48 Q1783.81 1291.59 1780.66 1291.59 Q1776.68 1291.59 1774.32 1289.36 Q1771.98 1287.12 1771.98 1283.37 Q1771.98 1278.99 1774.9 1276.77 Q1777.84 1274.55 1783.65 1274.55 L1789.62 1274.55 L1789.62 1274.13 Q1789.62 1271.19 1787.68 1269.6 Q1785.75 1267.98 1782.26 1267.98 Q1780.04 1267.98 1777.93 1268.51 Q1775.82 1269.04 1773.88 1270.11 L1773.88 1266.17 Q1776.22 1265.27 1778.42 1264.83 Q1780.62 1264.36 1782.7 1264.36 Q1788.32 1264.36 1791.1 1267.28 Q1793.88 1270.2 1793.88 1276.12 Z" fill="#000000" fill-rule="evenodd" fill-opacity="1" /><path clip-path="url(#clip280)" d="M1802.65 1254.9 L1806.91 1254.9 L1806.91 1290.92 L1802.65 1290.92 L1802.65 1254.9 Z" fill="#000000" fill-rule="evenodd" fill-opacity="1" /><path clip-path="url(#clip280)" d="M1831.08 1256.36 L1852.93 1256.36 L1852.93 1260.29 L1835.75 1260.29 L1835.75 1270.52 L1852.21 1270.52 L1852.21 1274.46 L1835.75 1274.46 L1835.75 1286.98 L1853.35 1286.98 L1853.35 1290.92 L1831.08 1290.92 L1831.08 1256.36 Z" fill="#000000" fill-rule="evenodd" fill-opacity="1" /><path clip-path="url(#clip280)" d="M1882.4 1264.99 L1873.02 1277.61 L1882.88 1290.92 L1877.86 1290.92 L1870.31 1280.73 L1862.77 1290.92 L1857.75 1290.92 L1867.81 1277.35 L1858.6 1264.99 L1863.62 1264.99 L1870.5 1274.23 L1877.37 1264.99 L1882.4 1264.99 Z" fill="#000000" fill-rule="evenodd" fill-opacity="1" /><path clip-path="url(#clip280)" d="M1893.02 1287.03 L1893.02 1300.78 L1888.74 1300.78 L1888.74 1264.99 L1893.02 1264.99 L1893.02 1268.92 Q1894.37 1266.61 1896.4 1265.5 Q1898.46 1264.36 1901.31 1264.36 Q1906.03 1264.36 1908.97 1268.11 Q1911.93 1271.86 1911.93 1277.98 Q1911.93 1284.09 1908.97 1287.84 Q1906.03 1291.59 1901.31 1291.59 Q1898.46 1291.59 1896.4 1290.48 Q1894.37 1289.34 1893.02 1287.03 M1907.51 1277.98 Q1907.51 1273.28 1905.57 1270.61 Q1903.65 1267.93 1900.27 1267.93 Q1896.89 1267.93 1894.94 1270.61 Q1893.02 1273.28 1893.02 1277.98 Q1893.02 1282.67 1894.94 1285.36 Q1896.89 1288.02 1900.27 1288.02 Q1903.65 1288.02 1905.57 1285.36 Q1907.51 1282.67 1907.51 1277.98 Z" fill="#000000" fill-rule="evenodd" fill-opacity="1" /><path clip-path="url(#clip280)" d="M1930.78 1277.88 Q1925.62 1277.88 1923.62 1279.06 Q1921.63 1280.24 1921.63 1283.09 Q1921.63 1285.36 1923.12 1286.7 Q1924.62 1288.02 1927.19 1288.02 Q1930.73 1288.02 1932.86 1285.52 Q1935.01 1283 1935.01 1278.83 L1935.01 1277.88 L1930.78 1277.88 M1939.27 1276.12 L1939.27 1290.92 L1935.01 1290.92 L1935.01 1286.98 Q1933.55 1289.34 1931.38 1290.48 Q1929.2 1291.59 1926.05 1291.59 Q1922.07 1291.59 1919.71 1289.36 Q1917.37 1287.12 1917.37 1283.37 Q1917.37 1278.99 1920.29 1276.77 Q1923.23 1274.55 1929.04 1274.55 L1935.01 1274.55 L1935.01 1274.13 Q1935.01 1271.19 1933.07 1269.6 Q1931.15 1267.98 1927.65 1267.98 Q1925.43 1267.98 1923.32 1268.51 Q1921.22 1269.04 1919.27 1270.11 L1919.27 1266.17 Q1921.61 1265.27 1923.81 1264.83 Q1926.01 1264.36 1928.09 1264.36 Q1933.72 1264.36 1936.49 1267.28 Q1939.27 1270.2 1939.27 1276.12 Z" fill="#000000" fill-rule="evenodd" fill-opacity="1" /><path clip-path="url(#clip280)" d="M1969.6 1275.27 L1969.6 1290.92 L1965.34 1290.92 L1965.34 1275.41 Q1965.34 1271.73 1963.9 1269.9 Q1962.47 1268.07 1959.6 1268.07 Q1956.15 1268.07 1954.16 1270.27 Q1952.17 1272.47 1952.17 1276.26 L1952.17 1290.92 L1947.88 1290.92 L1947.88 1264.99 L1952.17 1264.99 L1952.17 1269.02 Q1953.69 1266.68 1955.75 1265.52 Q1957.84 1264.36 1960.55 1264.36 Q1965.01 1264.36 1967.3 1267.14 Q1969.6 1269.9 1969.6 1275.27 Z" fill="#000000" fill-rule="evenodd" fill-opacity="1" /><path clip-path="url(#clip280)" d="M1994.62 1265.75 L1994.62 1269.78 Q1992.81 1268.86 1990.87 1268.39 Q1988.92 1267.93 1986.84 1267.93 Q1983.67 1267.93 1982.07 1268.9 Q1980.5 1269.87 1980.5 1271.82 Q1980.5 1273.3 1981.63 1274.16 Q1982.77 1274.99 1986.19 1275.75 L1987.65 1276.08 Q1992.19 1277.05 1994.09 1278.83 Q1996.01 1280.59 1996.01 1283.76 Q1996.01 1287.37 1993.14 1289.48 Q1990.29 1291.59 1985.29 1291.59 Q1983.21 1291.59 1980.94 1291.17 Q1978.69 1290.78 1976.19 1289.97 L1976.19 1285.57 Q1978.55 1286.79 1980.85 1287.42 Q1983.14 1288.02 1985.38 1288.02 Q1988.39 1288.02 1990.01 1287 Q1991.63 1285.96 1991.63 1284.09 Q1991.63 1282.35 1990.45 1281.42 Q1989.3 1280.5 1985.34 1279.64 L1983.86 1279.3 Q1979.9 1278.46 1978.14 1276.75 Q1976.38 1275.01 1976.38 1272 Q1976.38 1268.35 1978.97 1266.36 Q1981.56 1264.36 1986.33 1264.36 Q1988.69 1264.36 1990.78 1264.71 Q1992.86 1265.06 1994.62 1265.75 Z" fill="#000000" fill-rule="evenodd" fill-opacity="1" /><path clip-path="url(#clip280)" d="M2002.79 1264.99 L2007.05 1264.99 L2007.05 1290.92 L2002.79 1290.92 L2002.79 1264.99 M2002.79 1254.9 L2007.05 1254.9 L2007.05 1260.29 L2002.79 1260.29 L2002.79 1254.9 Z" fill="#000000" fill-rule="evenodd" fill-opacity="1" /><path clip-path="url(#clip280)" d="M2026.01 1267.98 Q2022.58 1267.98 2020.59 1270.66 Q2018.6 1273.32 2018.6 1277.98 Q2018.6 1282.63 2020.57 1285.31 Q2022.56 1287.98 2026.01 1287.98 Q2029.41 1287.98 2031.4 1285.29 Q2033.39 1282.61 2033.39 1277.98 Q2033.39 1273.37 2031.4 1270.68 Q2029.41 1267.98 2026.01 1267.98 M2026.01 1264.36 Q2031.56 1264.36 2034.73 1267.98 Q2037.91 1271.59 2037.91 1277.98 Q2037.91 1284.34 2034.73 1287.98 Q2031.56 1291.59 2026.01 1291.59 Q2020.43 1291.59 2017.26 1287.98 Q2014.11 1284.34 2014.11 1277.98 Q2014.11 1271.59 2017.26 1267.98 Q2020.43 1264.36 2026.01 1264.36 Z" fill="#000000" fill-rule="evenodd" fill-opacity="1" /><path clip-path="url(#clip280)" d="M2066.52 1275.27 L2066.52 1290.92 L2062.26 1290.92 L2062.26 1275.41 Q2062.26 1271.73 2060.82 1269.9 Q2059.39 1268.07 2056.52 1268.07 Q2053.07 1268.07 2051.08 1270.27 Q2049.09 1272.47 2049.09 1276.26 L2049.09 1290.92 L2044.8 1290.92 L2044.8 1264.99 L2049.09 1264.99 L2049.09 1269.02 Q2050.61 1266.68 2052.67 1265.52 Q2054.76 1264.36 2057.47 1264.36 Q2061.93 1264.36 2064.23 1267.14 Q2066.52 1269.9 2066.52 1275.27 Z" fill="#000000" fill-rule="evenodd" fill-opacity="1" /><path clip-path="url(#clip280)" d="M2090.27 1256.36 L2110.13 1256.36 L2110.13 1260.29 L2094.94 1260.29 L2094.94 1270.48 L2108.65 1270.48 L2108.65 1274.41 L2094.94 1274.41 L2094.94 1290.92 L2090.27 1290.92 L2090.27 1256.36 Z" fill="#000000" fill-rule="evenodd" fill-opacity="1" /><path clip-path="url(#clip280)" d="M2124.78 1277.88 Q2119.62 1277.88 2117.63 1279.06 Q2115.64 1280.24 2115.64 1283.09 Q2115.64 1285.36 2117.12 1286.7 Q2118.62 1288.02 2121.19 1288.02 Q2124.73 1288.02 2126.86 1285.52 Q2129.02 1283 2129.02 1278.83 L2129.02 1277.88 L2124.78 1277.88 M2133.28 1276.12 L2133.28 1290.92 L2129.02 1290.92 L2129.02 1286.98 Q2127.56 1289.34 2125.38 1290.48 Q2123.21 1291.59 2120.06 1291.59 Q2116.08 1291.59 2113.72 1289.36 Q2111.38 1287.12 2111.38 1283.37 Q2111.38 1278.99 2114.29 1276.77 Q2117.23 1274.55 2123.04 1274.55 L2129.02 1274.55 L2129.02 1274.13 Q2129.02 1271.19 2127.07 1269.6 Q2125.15 1267.98 2121.66 1267.98 Q2119.43 1267.98 2117.33 1268.51 Q2115.22 1269.04 2113.28 1270.11 L2113.28 1266.17 Q2115.61 1265.27 2117.81 1264.83 Q2120.01 1264.36 2122.1 1264.36 Q2127.72 1264.36 2130.5 1267.28 Q2133.28 1270.2 2133.28 1276.12 Z" fill="#000000" fill-rule="evenodd" fill-opacity="1" /><path clip-path="url(#clip280)" d="M2160.71 1265.98 L2160.71 1269.97 Q2158.9 1268.97 2157.07 1268.48 Q2155.27 1267.98 2153.41 1267.98 Q2149.27 1267.98 2146.98 1270.61 Q2144.69 1273.23 2144.69 1277.98 Q2144.69 1282.72 2146.98 1285.36 Q2149.27 1287.98 2153.41 1287.98 Q2155.27 1287.98 2157.07 1287.49 Q2158.9 1286.98 2160.71 1285.98 L2160.71 1289.92 Q2158.92 1290.75 2157 1291.17 Q2155.1 1291.59 2152.95 1291.59 Q2147.1 1291.59 2143.65 1287.91 Q2140.2 1284.23 2140.2 1277.98 Q2140.2 1271.63 2143.67 1268 Q2147.16 1264.36 2153.23 1264.36 Q2155.2 1264.36 2157.07 1264.78 Q2158.95 1265.17 2160.71 1265.98 Z" fill="#000000" fill-rule="evenodd" fill-opacity="1" /><path clip-path="url(#clip280)" d="M2172.33 1257.63 L2172.33 1264.99 L2181.1 1264.99 L2181.1 1268.3 L2172.33 1268.3 L2172.33 1282.37 Q2172.33 1285.54 2173.18 1286.45 Q2174.06 1287.35 2176.72 1287.35 L2181.1 1287.35 L2181.1 1290.92 L2176.72 1290.92 Q2171.79 1290.92 2169.92 1289.09 Q2168.04 1287.23 2168.04 1282.37 L2168.04 1268.3 L2164.92 1268.3 L2164.92 1264.99 L2168.04 1264.99 L2168.04 1257.63 L2172.33 1257.63 Z" fill="#000000" fill-rule="evenodd" fill-opacity="1" /><path clip-path="url(#clip280)" d="M2196.75 1267.98 Q2193.32 1267.98 2191.33 1270.66 Q2189.34 1273.32 2189.34 1277.98 Q2189.34 1282.63 2191.31 1285.31 Q2193.3 1287.98 2196.75 1287.98 Q2200.15 1287.98 2202.14 1285.29 Q2204.13 1282.61 2204.13 1277.98 Q2204.13 1273.37 2202.14 1270.68 Q2200.15 1267.98 2196.75 1267.98 M2196.75 1264.36 Q2202.3 1264.36 2205.47 1267.98 Q2208.65 1271.59 2208.65 1277.98 Q2208.65 1284.34 2205.47 1287.98 Q2202.3 1291.59 2196.75 1291.59 Q2191.17 1291.59 2188 1287.98 Q2184.85 1284.34 2184.85 1277.98 Q2184.85 1271.59 2188 1267.98 Q2191.17 1264.36 2196.75 1264.36 Z" fill="#000000" fill-rule="evenodd" fill-opacity="1" /><path clip-path="url(#clip280)" d="M2230.73 1268.97 Q2230.01 1268.55 2229.16 1268.37 Q2228.32 1268.16 2227.3 1268.16 Q2223.69 1268.16 2221.75 1270.52 Q2219.83 1272.86 2219.83 1277.26 L2219.83 1290.92 L2215.54 1290.92 L2215.54 1264.99 L2219.83 1264.99 L2219.83 1269.02 Q2221.17 1266.66 2223.32 1265.52 Q2225.47 1264.36 2228.55 1264.36 Q2228.99 1264.36 2229.53 1264.43 Q2230.06 1264.48 2230.71 1264.6 L2230.73 1268.97 Z" fill="#000000" fill-rule="evenodd" fill-opacity="1" /><polyline clip-path="url(#clip280)" style="stroke:#add8e6; stroke-linecap:butt; stroke-linejoin:round; stroke-width:4; stroke-opacity:1; fill:none" points="
  1477.37,1325.48 1623.8,1325.48 
  "/>
<path clip-path="url(#clip280)" d="M1676.08 1310.86 L1676.08 1315.79 Q1673.72 1313.59 1671.03 1312.5 Q1668.37 1311.41 1665.36 1311.41 Q1659.44 1311.41 1656.29 1315.05 Q1653.14 1318.66 1653.14 1325.51 Q1653.14 1332.34 1656.29 1335.97 Q1659.44 1339.58 1665.36 1339.58 Q1668.37 1339.58 1671.03 1338.5 Q1673.72 1337.41 1676.08 1335.21 L1676.08 1340.09 Q1673.63 1341.76 1670.87 1342.59 Q1668.14 1343.43 1665.08 1343.43 Q1657.24 1343.43 1652.72 1338.63 Q1648.21 1333.82 1648.21 1325.51 Q1648.21 1317.18 1652.72 1312.39 Q1657.24 1307.57 1665.08 1307.57 Q1668.19 1307.57 1670.92 1308.4 Q1673.67 1309.21 1676.08 1310.86 Z" fill="#000000" fill-rule="evenodd" fill-opacity="1" /><path clip-path="url(#clip280)" d="M1698.14 1320.81 Q1697.42 1320.39 1696.57 1320.21 Q1695.73 1320 1694.71 1320 Q1691.1 1320 1689.16 1322.36 Q1687.24 1324.7 1687.24 1329.1 L1687.24 1342.76 L1682.95 1342.76 L1682.95 1316.83 L1687.24 1316.83 L1687.24 1320.86 Q1688.58 1318.5 1690.73 1317.36 Q1692.88 1316.2 1695.96 1316.2 Q1696.4 1316.2 1696.94 1316.27 Q1697.47 1316.32 1698.12 1316.44 L1698.14 1320.81 Z" fill="#000000" fill-rule="evenodd" fill-opacity="1" /><path clip-path="url(#clip280)" d="M1702.61 1316.83 L1706.87 1316.83 L1706.87 1342.76 L1702.61 1342.76 L1702.61 1316.83 M1702.61 1306.74 L1706.87 1306.74 L1706.87 1312.13 L1702.61 1312.13 L1702.61 1306.74 Z" fill="#000000" fill-rule="evenodd" fill-opacity="1" /><path clip-path="url(#clip280)" d="M1719.99 1309.47 L1719.99 1316.83 L1728.76 1316.83 L1728.76 1320.14 L1719.99 1320.14 L1719.99 1334.21 Q1719.99 1337.38 1720.85 1338.29 Q1721.73 1339.19 1724.39 1339.19 L1728.76 1339.19 L1728.76 1342.76 L1724.39 1342.76 Q1719.46 1342.76 1717.58 1340.93 Q1715.71 1339.07 1715.71 1334.21 L1715.71 1320.14 L1712.58 1320.14 L1712.58 1316.83 L1715.71 1316.83 L1715.71 1309.47 L1719.99 1309.47 Z" fill="#000000" fill-rule="evenodd" fill-opacity="1" /><path clip-path="url(#clip280)" d="M1734.37 1316.83 L1738.63 1316.83 L1738.63 1342.76 L1734.37 1342.76 L1734.37 1316.83 M1734.37 1306.74 L1738.63 1306.74 L1738.63 1312.13 L1734.37 1312.13 L1734.37 1306.74 Z" fill="#000000" fill-rule="evenodd" fill-opacity="1" /><path clip-path="url(#clip280)" d="M1766.19 1317.82 L1766.19 1321.81 Q1764.39 1320.81 1762.56 1320.32 Q1760.75 1319.82 1758.9 1319.82 Q1754.76 1319.82 1752.47 1322.45 Q1750.18 1325.07 1750.18 1329.82 Q1750.18 1334.56 1752.47 1337.2 Q1754.76 1339.82 1758.9 1339.82 Q1760.75 1339.82 1762.56 1339.33 Q1764.39 1338.82 1766.19 1337.82 L1766.19 1341.76 Q1764.41 1342.59 1762.49 1343.01 Q1760.59 1343.43 1758.44 1343.43 Q1752.58 1343.43 1749.13 1339.75 Q1745.69 1336.07 1745.69 1329.82 Q1745.69 1323.47 1749.16 1319.84 Q1752.65 1316.2 1758.72 1316.2 Q1760.69 1316.2 1762.56 1316.62 Q1764.44 1317.01 1766.19 1317.82 Z" fill="#000000" fill-rule="evenodd" fill-opacity="1" /><path clip-path="url(#clip280)" d="M1785.38 1329.72 Q1780.22 1329.72 1778.23 1330.9 Q1776.24 1332.08 1776.24 1334.93 Q1776.24 1337.2 1777.72 1338.54 Q1779.23 1339.86 1781.8 1339.86 Q1785.34 1339.86 1787.47 1337.36 Q1789.62 1334.84 1789.62 1330.67 L1789.62 1329.72 L1785.38 1329.72 M1793.88 1327.96 L1793.88 1342.76 L1789.62 1342.76 L1789.62 1338.82 Q1788.16 1341.18 1785.99 1342.32 Q1783.81 1343.43 1780.66 1343.43 Q1776.68 1343.43 1774.32 1341.2 Q1771.98 1338.96 1771.98 1335.21 Q1771.98 1330.83 1774.9 1328.61 Q1777.84 1326.39 1783.65 1326.39 L1789.62 1326.39 L1789.62 1325.97 Q1789.62 1323.03 1787.68 1321.44 Q1785.75 1319.82 1782.26 1319.82 Q1780.04 1319.82 1777.93 1320.35 Q1775.82 1320.88 1773.88 1321.95 L1773.88 1318.01 Q1776.22 1317.11 1778.42 1316.67 Q1780.62 1316.2 1782.7 1316.2 Q1788.32 1316.2 1791.1 1319.12 Q1793.88 1322.04 1793.88 1327.96 Z" fill="#000000" fill-rule="evenodd" fill-opacity="1" /><path clip-path="url(#clip280)" d="M1802.65 1306.74 L1806.91 1306.74 L1806.91 1342.76 L1802.65 1342.76 L1802.65 1306.74 Z" fill="#000000" fill-rule="evenodd" fill-opacity="1" /><path clip-path="url(#clip280)" d="M1835.75 1312.04 L1835.75 1325.02 L1841.63 1325.02 Q1844.9 1325.02 1846.68 1323.33 Q1848.46 1321.64 1848.46 1318.52 Q1848.46 1315.42 1846.68 1313.73 Q1844.9 1312.04 1841.63 1312.04 L1835.75 1312.04 M1831.08 1308.2 L1841.63 1308.2 Q1847.44 1308.2 1850.41 1310.83 Q1853.39 1313.45 1853.39 1318.52 Q1853.39 1323.64 1850.41 1326.25 Q1847.44 1328.87 1841.63 1328.87 L1835.75 1328.87 L1835.75 1342.76 L1831.08 1342.76 L1831.08 1308.2 Z" fill="#000000" fill-rule="evenodd" fill-opacity="1" /><path clip-path="url(#clip280)" d="M1873.67 1320.81 Q1872.95 1320.39 1872.1 1320.21 Q1871.26 1320 1870.24 1320 Q1866.63 1320 1864.69 1322.36 Q1862.77 1324.7 1862.77 1329.1 L1862.77 1342.76 L1858.49 1342.76 L1858.49 1316.83 L1862.77 1316.83 L1862.77 1320.86 Q1864.11 1318.5 1866.26 1317.36 Q1868.42 1316.2 1871.49 1316.2 Q1871.93 1316.2 1872.47 1316.27 Q1873 1316.32 1873.65 1316.44 L1873.67 1320.81 Z" fill="#000000" fill-rule="evenodd" fill-opacity="1" /><path clip-path="url(#clip280)" d="M1899.27 1328.73 L1899.27 1330.81 L1879.69 1330.81 Q1879.97 1335.21 1882.33 1337.52 Q1884.71 1339.82 1888.95 1339.82 Q1891.4 1339.82 1893.69 1339.21 Q1896.01 1338.61 1898.28 1337.41 L1898.28 1341.44 Q1895.99 1342.41 1893.58 1342.92 Q1891.17 1343.43 1888.69 1343.43 Q1882.49 1343.43 1878.86 1339.82 Q1875.24 1336.2 1875.24 1330.05 Q1875.24 1323.68 1878.67 1319.95 Q1882.12 1316.2 1887.95 1316.2 Q1893.18 1316.2 1896.22 1319.58 Q1899.27 1322.94 1899.27 1328.73 M1895.01 1327.48 Q1894.97 1323.98 1893.05 1321.9 Q1891.15 1319.82 1888 1319.82 Q1884.43 1319.82 1882.28 1321.83 Q1880.15 1323.84 1879.83 1327.5 L1895.01 1327.48 Z" fill="#000000" fill-rule="evenodd" fill-opacity="1" /><path clip-path="url(#clip280)" d="M1922.79 1317.59 L1922.79 1321.62 Q1920.99 1320.7 1919.04 1320.23 Q1917.1 1319.77 1915.01 1319.77 Q1911.84 1319.77 1910.24 1320.74 Q1908.67 1321.71 1908.67 1323.66 Q1908.67 1325.14 1909.8 1326 Q1910.94 1326.83 1914.37 1327.59 L1915.82 1327.92 Q1920.36 1328.89 1922.26 1330.67 Q1924.18 1332.43 1924.18 1335.6 Q1924.18 1339.21 1921.31 1341.32 Q1918.46 1343.43 1913.46 1343.43 Q1911.38 1343.43 1909.11 1343.01 Q1906.87 1342.62 1904.37 1341.81 L1904.37 1337.41 Q1906.73 1338.63 1909.02 1339.26 Q1911.31 1339.86 1913.55 1339.86 Q1916.56 1339.86 1918.18 1338.84 Q1919.8 1337.8 1919.8 1335.93 Q1919.8 1334.19 1918.62 1333.26 Q1917.47 1332.34 1913.51 1331.48 L1912.03 1331.14 Q1908.07 1330.3 1906.31 1328.59 Q1904.55 1326.85 1904.55 1323.84 Q1904.55 1320.19 1907.14 1318.2 Q1909.74 1316.2 1914.5 1316.2 Q1916.87 1316.2 1918.95 1316.55 Q1921.03 1316.9 1922.79 1317.59 Z" fill="#000000" fill-rule="evenodd" fill-opacity="1" /><path clip-path="url(#clip280)" d="M1947.49 1317.59 L1947.49 1321.62 Q1945.68 1320.7 1943.74 1320.23 Q1941.8 1319.77 1939.71 1319.77 Q1936.54 1319.77 1934.94 1320.74 Q1933.37 1321.71 1933.37 1323.66 Q1933.37 1325.14 1934.5 1326 Q1935.64 1326.83 1939.06 1327.59 L1940.52 1327.92 Q1945.06 1328.89 1946.96 1330.67 Q1948.88 1332.43 1948.88 1335.6 Q1948.88 1339.21 1946.01 1341.32 Q1943.16 1343.43 1938.16 1343.43 Q1936.08 1343.43 1933.81 1343.01 Q1931.56 1342.62 1929.06 1341.81 L1929.06 1337.41 Q1931.43 1338.63 1933.72 1339.26 Q1936.01 1339.86 1938.25 1339.86 Q1941.26 1339.86 1942.88 1338.84 Q1944.5 1337.8 1944.5 1335.93 Q1944.5 1334.19 1943.32 1333.26 Q1942.17 1332.34 1938.21 1331.48 L1936.73 1331.14 Q1932.77 1330.3 1931.01 1328.59 Q1929.25 1326.85 1929.25 1323.84 Q1929.25 1320.19 1931.84 1318.2 Q1934.43 1316.2 1939.2 1316.2 Q1941.56 1316.2 1943.65 1316.55 Q1945.73 1316.9 1947.49 1317.59 Z" fill="#000000" fill-rule="evenodd" fill-opacity="1" /><path clip-path="url(#clip280)" d="M1955.22 1332.52 L1955.22 1316.83 L1959.48 1316.83 L1959.48 1332.36 Q1959.48 1336.04 1960.92 1337.89 Q1962.35 1339.72 1965.22 1339.72 Q1968.67 1339.72 1970.66 1337.52 Q1972.67 1335.32 1972.67 1331.53 L1972.67 1316.83 L1976.93 1316.83 L1976.93 1342.76 L1972.67 1342.76 L1972.67 1338.77 Q1971.12 1341.13 1969.06 1342.29 Q1967.03 1343.43 1964.32 1343.43 Q1959.85 1343.43 1957.54 1340.65 Q1955.22 1337.87 1955.22 1332.52 M1965.94 1316.2 L1965.94 1316.2 Z" fill="#000000" fill-rule="evenodd" fill-opacity="1" /><path clip-path="url(#clip280)" d="M2000.73 1320.81 Q2000.01 1320.39 1999.16 1320.21 Q1998.32 1320 1997.3 1320 Q1993.69 1320 1991.75 1322.36 Q1989.83 1324.7 1989.83 1329.1 L1989.83 1342.76 L1985.55 1342.76 L1985.55 1316.83 L1989.83 1316.83 L1989.83 1320.86 Q1991.17 1318.5 1993.32 1317.36 Q1995.48 1316.2 1998.55 1316.2 Q1998.99 1316.2 1999.53 1316.27 Q2000.06 1316.32 2000.71 1316.44 L2000.73 1320.81 Z" fill="#000000" fill-rule="evenodd" fill-opacity="1" /><path clip-path="url(#clip280)" d="M2026.33 1328.73 L2026.33 1330.81 L2006.75 1330.81 Q2007.03 1335.21 2009.39 1337.52 Q2011.77 1339.82 2016.01 1339.82 Q2018.46 1339.82 2020.75 1339.21 Q2023.07 1338.61 2025.34 1337.41 L2025.34 1341.44 Q2023.05 1342.41 2020.64 1342.92 Q2018.23 1343.43 2015.75 1343.43 Q2009.55 1343.43 2005.92 1339.82 Q2002.3 1336.2 2002.3 1330.05 Q2002.3 1323.68 2005.73 1319.95 Q2009.18 1316.2 2015.01 1316.2 Q2020.24 1316.2 2023.28 1319.58 Q2026.33 1322.94 2026.33 1328.73 M2022.07 1327.48 Q2022.03 1323.98 2020.11 1321.9 Q2018.21 1319.82 2015.06 1319.82 Q2011.49 1319.82 2009.34 1321.83 Q2007.21 1323.84 2006.89 1327.5 L2022.07 1327.48 Z" fill="#000000" fill-rule="evenodd" fill-opacity="1" /><path clip-path="url(#clip280)" d="M2064.97 1326.55 Q2066.47 1327.06 2067.88 1328.73 Q2069.32 1330.39 2070.75 1333.31 L2075.5 1342.76 L2070.48 1342.76 L2066.05 1333.89 Q2064.34 1330.42 2062.72 1329.28 Q2061.12 1328.15 2058.35 1328.15 L2053.25 1328.15 L2053.25 1342.76 L2048.58 1342.76 L2048.58 1308.2 L2059.13 1308.2 Q2065.06 1308.2 2067.98 1310.67 Q2070.89 1313.15 2070.89 1318.15 Q2070.89 1321.41 2069.36 1323.57 Q2067.86 1325.72 2064.97 1326.55 M2053.25 1312.04 L2053.25 1324.31 L2059.13 1324.31 Q2062.51 1324.31 2064.23 1322.76 Q2065.96 1321.18 2065.96 1318.15 Q2065.96 1315.12 2064.23 1313.59 Q2062.51 1312.04 2059.13 1312.04 L2053.25 1312.04 Z" fill="#000000" fill-rule="evenodd" fill-opacity="1" /><path clip-path="url(#clip280)" d="M2092.07 1329.72 Q2086.91 1329.72 2084.92 1330.9 Q2082.93 1332.08 2082.93 1334.93 Q2082.93 1337.2 2084.41 1338.54 Q2085.92 1339.86 2088.48 1339.86 Q2092.03 1339.86 2094.16 1337.36 Q2096.31 1334.84 2096.31 1330.67 L2096.31 1329.72 L2092.07 1329.72 M2100.57 1327.96 L2100.57 1342.76 L2096.31 1342.76 L2096.31 1338.82 Q2094.85 1341.18 2092.67 1342.32 Q2090.5 1343.43 2087.35 1343.43 Q2083.37 1343.43 2081.01 1341.2 Q2078.67 1338.96 2078.67 1335.21 Q2078.67 1330.83 2081.59 1328.61 Q2084.53 1326.39 2090.34 1326.39 L2096.31 1326.39 L2096.31 1325.97 Q2096.31 1323.03 2094.36 1321.44 Q2092.44 1319.82 2088.95 1319.82 Q2086.73 1319.82 2084.62 1320.35 Q2082.51 1320.88 2080.57 1321.95 L2080.57 1318.01 Q2082.91 1317.11 2085.1 1316.67 Q2087.3 1316.2 2089.39 1316.2 Q2095.01 1316.2 2097.79 1319.12 Q2100.57 1322.04 2100.57 1327.96 Z" fill="#000000" fill-rule="evenodd" fill-opacity="1" /><path clip-path="url(#clip280)" d="M2113.55 1309.47 L2113.55 1316.83 L2122.33 1316.83 L2122.33 1320.14 L2113.55 1320.14 L2113.55 1334.21 Q2113.55 1337.38 2114.41 1338.29 Q2115.29 1339.19 2117.95 1339.19 L2122.33 1339.19 L2122.33 1342.76 L2117.95 1342.76 Q2113.02 1342.76 2111.15 1340.93 Q2109.27 1339.07 2109.27 1334.21 L2109.27 1320.14 L2106.15 1320.14 L2106.15 1316.83 L2109.27 1316.83 L2109.27 1309.47 L2113.55 1309.47 Z" fill="#000000" fill-rule="evenodd" fill-opacity="1" /><path clip-path="url(#clip280)" d="M2127.93 1316.83 L2132.19 1316.83 L2132.19 1342.76 L2127.93 1342.76 L2127.93 1316.83 M2127.93 1306.74 L2132.19 1306.74 L2132.19 1312.13 L2127.93 1312.13 L2127.93 1306.74 Z" fill="#000000" fill-rule="evenodd" fill-opacity="1" /><path clip-path="url(#clip280)" d="M2151.15 1319.82 Q2147.72 1319.82 2145.73 1322.5 Q2143.74 1325.16 2143.74 1329.82 Q2143.74 1334.47 2145.71 1337.15 Q2147.7 1339.82 2151.15 1339.82 Q2154.55 1339.82 2156.54 1337.13 Q2158.53 1334.45 2158.53 1329.82 Q2158.53 1325.21 2156.54 1322.52 Q2154.55 1319.82 2151.15 1319.82 M2151.15 1316.2 Q2156.7 1316.2 2159.87 1319.82 Q2163.04 1323.43 2163.04 1329.82 Q2163.04 1336.18 2159.87 1339.82 Q2156.7 1343.43 2151.15 1343.43 Q2145.57 1343.43 2142.4 1339.82 Q2139.25 1336.18 2139.25 1329.82 Q2139.25 1323.43 2142.4 1319.82 Q2145.57 1316.2 2151.15 1316.2 Z" fill="#000000" fill-rule="evenodd" fill-opacity="1" /></svg>
