<?xml version="1.0" encoding="utf-8"?>
<svg xmlns="http://www.w3.org/2000/svg" xmlns:xlink="http://www.w3.org/1999/xlink" width="600" height="400" viewBox="0 0 2400 1600">
<defs>
  <clipPath id="clip570">
    <rect x="0" y="0" width="2400" height="1600"/>
  </clipPath>
</defs>
<path clip-path="url(#clip570)" d="
M0 1600 L2400 1600 L2400 0 L0 0  Z
  " fill="#ffffff" fill-rule="evenodd" fill-opacity="1"/>
<defs>
  <clipPath id="clip571">
    <rect x="480" y="0" width="1681" height="1600"/>
  </clipPath>
</defs>
<defs>
  <clipPath id="clip572">
    <rect x="279" y="123" width="2074" height="1255"/>
  </clipPath>
</defs>
<path clip-path="url(#clip570)" d="
M254.228 1410.1 L2352.76 1410.1 L2352.76 123.472 L254.228 123.472  Z
  " fill="#ffffff" fill-rule="evenodd" fill-opacity="1"/>
<defs>
  <clipPath id="clip573">
    <rect x="254" y="123" width="2100" height="1288"/>
  </clipPath>
</defs>
<polyline clip-path="url(#clip573)" style="stroke:#000000; stroke-linecap:butt; stroke-linejoin:round; stroke-width:2; stroke-opacity:0.1; fill:none" points="
  254.228,1410.1 254.228,123.472 
  "/>
<polyline clip-path="url(#clip573)" style="stroke:#000000; stroke-linecap:butt; stroke-linejoin:round; stroke-width:2; stroke-opacity:0.1; fill:none" points="
  749.164,1410.1 749.164,123.472 
  "/>
<polyline clip-path="url(#clip573)" style="stroke:#000000; stroke-linecap:butt; stroke-linejoin:round; stroke-width:2; stroke-opacity:0.1; fill:none" points="
  1244.1,1410.1 1244.1,123.472 
  "/>
<polyline clip-path="url(#clip573)" style="stroke:#000000; stroke-linecap:butt; stroke-linejoin:round; stroke-width:2; stroke-opacity:0.1; fill:none" points="
  1739.04,1410.1 1739.04,123.472 
  "/>
<polyline clip-path="url(#clip573)" style="stroke:#000000; stroke-linecap:butt; stroke-linejoin:round; stroke-width:2; stroke-opacity:0.1; fill:none" points="
  2233.97,1410.1 2233.97,123.472 
  "/>
<polyline clip-path="url(#clip570)" style="stroke:#000000; stroke-linecap:butt; stroke-linejoin:round; stroke-width:4; stroke-opacity:1; fill:none" points="
  254.228,1410.1 2352.76,1410.1 
  "/>
<polyline clip-path="url(#clip570)" style="stroke:#000000; stroke-linecap:butt; stroke-linejoin:round; stroke-width:4; stroke-opacity:1; fill:none" points="
  254.228,1410.1 254.228,1391.2 
  "/>
<polyline clip-path="url(#clip570)" style="stroke:#000000; stroke-linecap:butt; stroke-linejoin:round; stroke-width:4; stroke-opacity:1; fill:none" points="
  749.164,1410.1 749.164,1391.2 
  "/>
<polyline clip-path="url(#clip570)" style="stroke:#000000; stroke-linecap:butt; stroke-linejoin:round; stroke-width:4; stroke-opacity:1; fill:none" points="
  1244.1,1410.1 1244.1,1391.2 
  "/>
<polyline clip-path="url(#clip570)" style="stroke:#000000; stroke-linecap:butt; stroke-linejoin:round; stroke-width:4; stroke-opacity:1; fill:none" points="
  1739.04,1410.1 1739.04,1391.2 
  "/>
<polyline clip-path="url(#clip570)" style="stroke:#000000; stroke-linecap:butt; stroke-linejoin:round; stroke-width:4; stroke-opacity:1; fill:none" points="
  2233.97,1410.1 2233.97,1391.2 
  "/>
<path clip-path="url(#clip570)" d="M216.532 1441.02 Q212.921 1441.02 211.092 1444.58 Q209.286 1448.13 209.286 1455.26 Q209.286 1462.36 211.092 1465.93 Q212.921 1469.47 216.532 1469.47 Q220.166 1469.47 221.972 1465.93 Q223.8 1462.36 223.8 1455.26 Q223.8 1448.13 221.972 1444.58 Q220.166 1441.02 216.532 1441.02 M216.532 1437.32 Q222.342 1437.32 225.397 1441.92 Q228.476 1446.51 228.476 1455.26 Q228.476 1463.98 225.397 1468.59 Q222.342 1473.17 216.532 1473.17 Q210.722 1473.17 207.643 1468.59 Q204.587 1463.98 204.587 1455.26 Q204.587 1446.51 207.643 1441.92 Q210.722 1437.32 216.532 1437.32 Z" fill="#000000" fill-rule="evenodd" fill-opacity="1" /><path clip-path="url(#clip570)" d="M236.694 1466.62 L241.578 1466.62 L241.578 1472.5 L236.694 1472.5 L236.694 1466.62 Z" fill="#000000" fill-rule="evenodd" fill-opacity="1" /><path clip-path="url(#clip570)" d="M261.763 1441.02 Q258.152 1441.02 256.323 1444.58 Q254.518 1448.13 254.518 1455.26 Q254.518 1462.36 256.323 1465.93 Q258.152 1469.47 261.763 1469.47 Q265.397 1469.47 267.203 1465.93 Q269.032 1462.36 269.032 1455.26 Q269.032 1448.13 267.203 1444.58 Q265.397 1441.02 261.763 1441.02 M261.763 1437.32 Q267.573 1437.32 270.629 1441.92 Q273.707 1446.51 273.707 1455.26 Q273.707 1463.98 270.629 1468.59 Q267.573 1473.17 261.763 1473.17 Q255.953 1473.17 252.874 1468.59 Q249.819 1463.98 249.819 1455.26 Q249.819 1446.51 252.874 1441.92 Q255.953 1437.32 261.763 1437.32 Z" fill="#000000" fill-rule="evenodd" fill-opacity="1" /><path clip-path="url(#clip570)" d="M291.925 1441.02 Q288.314 1441.02 286.485 1444.58 Q284.68 1448.13 284.68 1455.26 Q284.68 1462.36 286.485 1465.93 Q288.314 1469.47 291.925 1469.47 Q295.559 1469.47 297.365 1465.93 Q299.193 1462.36 299.193 1455.26 Q299.193 1448.13 297.365 1444.58 Q295.559 1441.02 291.925 1441.02 M291.925 1437.32 Q297.735 1437.32 300.791 1441.92 Q303.869 1446.51 303.869 1455.26 Q303.869 1463.98 300.791 1468.59 Q297.735 1473.17 291.925 1473.17 Q286.115 1473.17 283.036 1468.59 Q279.981 1463.98 279.981 1455.26 Q279.981 1446.51 283.036 1441.92 Q286.115 1437.32 291.925 1437.32 Z" fill="#000000" fill-rule="evenodd" fill-opacity="1" /><path clip-path="url(#clip570)" d="M711.965 1441.02 Q708.354 1441.02 706.525 1444.58 Q704.72 1448.13 704.72 1455.26 Q704.72 1462.36 706.525 1465.93 Q708.354 1469.47 711.965 1469.47 Q715.599 1469.47 717.405 1465.93 Q719.234 1462.36 719.234 1455.26 Q719.234 1448.13 717.405 1444.58 Q715.599 1441.02 711.965 1441.02 M711.965 1437.32 Q717.775 1437.32 720.831 1441.92 Q723.91 1446.51 723.91 1455.26 Q723.91 1463.98 720.831 1468.59 Q717.775 1473.17 711.965 1473.17 Q706.155 1473.17 703.076 1468.59 Q700.021 1463.98 700.021 1455.26 Q700.021 1446.51 703.076 1441.92 Q706.155 1437.32 711.965 1437.32 Z" fill="#000000" fill-rule="evenodd" fill-opacity="1" /><path clip-path="url(#clip570)" d="M732.127 1466.62 L737.011 1466.62 L737.011 1472.5 L732.127 1472.5 L732.127 1466.62 Z" fill="#000000" fill-rule="evenodd" fill-opacity="1" /><path clip-path="url(#clip570)" d="M757.196 1441.02 Q753.585 1441.02 751.757 1444.58 Q749.951 1448.13 749.951 1455.26 Q749.951 1462.36 751.757 1465.93 Q753.585 1469.47 757.196 1469.47 Q760.831 1469.47 762.636 1465.93 Q764.465 1462.36 764.465 1455.26 Q764.465 1448.13 762.636 1444.58 Q760.831 1441.02 757.196 1441.02 M757.196 1437.32 Q763.007 1437.32 766.062 1441.92 Q769.141 1446.51 769.141 1455.26 Q769.141 1463.98 766.062 1468.59 Q763.007 1473.17 757.196 1473.17 Q751.386 1473.17 748.308 1468.59 Q745.252 1463.98 745.252 1455.26 Q745.252 1446.51 748.308 1441.92 Q751.386 1437.32 757.196 1437.32 Z" fill="#000000" fill-rule="evenodd" fill-opacity="1" /><path clip-path="url(#clip570)" d="M777.405 1437.94 L795.761 1437.94 L795.761 1441.88 L781.687 1441.88 L781.687 1450.35 Q782.706 1450 783.724 1449.84 Q784.743 1449.65 785.761 1449.65 Q791.548 1449.65 794.928 1452.82 Q798.307 1456 798.307 1461.41 Q798.307 1466.99 794.835 1470.09 Q791.363 1473.17 785.044 1473.17 Q782.868 1473.17 780.599 1472.8 Q778.354 1472.43 775.946 1471.69 L775.946 1466.99 Q778.03 1468.13 780.252 1468.68 Q782.474 1469.24 784.951 1469.24 Q788.956 1469.24 791.293 1467.13 Q793.631 1465.02 793.631 1461.41 Q793.631 1457.8 791.293 1455.7 Q788.956 1453.59 784.951 1453.59 Q783.076 1453.59 781.201 1454.01 Q779.349 1454.42 777.405 1455.3 L777.405 1437.94 Z" fill="#000000" fill-rule="evenodd" fill-opacity="1" /><path clip-path="url(#clip570)" d="M1206.4 1441.02 Q1202.79 1441.02 1200.96 1444.58 Q1199.16 1448.13 1199.16 1455.26 Q1199.16 1462.36 1200.96 1465.93 Q1202.79 1469.47 1206.4 1469.47 Q1210.04 1469.47 1211.84 1465.93 Q1213.67 1462.36 1213.67 1455.26 Q1213.67 1448.13 1211.84 1444.58 Q1210.04 1441.02 1206.4 1441.02 M1206.4 1437.32 Q1212.21 1437.32 1215.27 1441.92 Q1218.35 1446.51 1218.35 1455.26 Q1218.35 1463.98 1215.27 1468.59 Q1212.21 1473.17 1206.4 1473.17 Q1200.59 1473.17 1197.51 1468.59 Q1194.46 1463.98 1194.46 1455.26 Q1194.46 1446.51 1197.51 1441.92 Q1200.59 1437.32 1206.4 1437.32 Z" fill="#000000" fill-rule="evenodd" fill-opacity="1" /><path clip-path="url(#clip570)" d="M1226.57 1466.62 L1231.45 1466.62 L1231.45 1472.5 L1226.57 1472.5 L1226.57 1466.62 Z" fill="#000000" fill-rule="evenodd" fill-opacity="1" /><path clip-path="url(#clip570)" d="M1242.44 1468.57 L1250.08 1468.57 L1250.08 1442.2 L1241.77 1443.87 L1241.77 1439.61 L1250.04 1437.94 L1254.71 1437.94 L1254.71 1468.57 L1262.35 1468.57 L1262.35 1472.5 L1242.44 1472.5 L1242.44 1468.57 Z" fill="#000000" fill-rule="evenodd" fill-opacity="1" /><path clip-path="url(#clip570)" d="M1281.8 1441.02 Q1278.19 1441.02 1276.36 1444.58 Q1274.55 1448.13 1274.55 1455.26 Q1274.55 1462.36 1276.36 1465.93 Q1278.19 1469.47 1281.8 1469.47 Q1285.43 1469.47 1287.24 1465.93 Q1289.06 1462.36 1289.06 1455.26 Q1289.06 1448.13 1287.24 1444.58 Q1285.43 1441.02 1281.8 1441.02 M1281.8 1437.32 Q1287.61 1437.32 1290.66 1441.92 Q1293.74 1446.51 1293.74 1455.26 Q1293.74 1463.98 1290.66 1468.59 Q1287.61 1473.17 1281.8 1473.17 Q1275.99 1473.17 1272.91 1468.59 Q1269.85 1463.98 1269.85 1455.26 Q1269.85 1446.51 1272.91 1441.92 Q1275.99 1437.32 1281.8 1437.32 Z" fill="#000000" fill-rule="evenodd" fill-opacity="1" /><path clip-path="url(#clip570)" d="M1701.84 1441.02 Q1698.23 1441.02 1696.4 1444.58 Q1694.59 1448.13 1694.59 1455.26 Q1694.59 1462.36 1696.4 1465.93 Q1698.23 1469.47 1701.84 1469.47 Q1705.47 1469.47 1707.28 1465.93 Q1709.11 1462.36 1709.11 1455.26 Q1709.11 1448.13 1707.28 1444.58 Q1705.47 1441.02 1701.84 1441.02 M1701.84 1437.32 Q1707.65 1437.32 1710.7 1441.92 Q1713.78 1446.51 1713.78 1455.26 Q1713.78 1463.98 1710.7 1468.59 Q1707.65 1473.17 1701.84 1473.17 Q1696.03 1473.17 1692.95 1468.59 Q1689.89 1463.98 1689.89 1455.26 Q1689.89 1446.51 1692.95 1441.92 Q1696.03 1437.32 1701.84 1437.32 Z" fill="#000000" fill-rule="evenodd" fill-opacity="1" /><path clip-path="url(#clip570)" d="M1722 1466.62 L1726.88 1466.62 L1726.88 1472.5 L1722 1472.5 L1722 1466.62 Z" fill="#000000" fill-rule="evenodd" fill-opacity="1" /><path clip-path="url(#clip570)" d="M1737.88 1468.57 L1745.52 1468.57 L1745.52 1442.2 L1737.21 1443.87 L1737.21 1439.61 L1745.47 1437.94 L1750.15 1437.94 L1750.15 1468.57 L1757.79 1468.57 L1757.79 1472.5 L1737.88 1472.5 L1737.88 1468.57 Z" fill="#000000" fill-rule="evenodd" fill-opacity="1" /><path clip-path="url(#clip570)" d="M1767.28 1437.94 L1785.63 1437.94 L1785.63 1441.88 L1771.56 1441.88 L1771.56 1450.35 Q1772.58 1450 1773.6 1449.84 Q1774.61 1449.65 1775.63 1449.65 Q1781.42 1449.65 1784.8 1452.82 Q1788.18 1456 1788.18 1461.41 Q1788.18 1466.99 1784.71 1470.09 Q1781.23 1473.17 1774.92 1473.17 Q1772.74 1473.17 1770.47 1472.8 Q1768.23 1472.43 1765.82 1471.69 L1765.82 1466.99 Q1767.9 1468.13 1770.12 1468.68 Q1772.35 1469.24 1774.82 1469.24 Q1778.83 1469.24 1781.16 1467.13 Q1783.5 1465.02 1783.5 1461.41 Q1783.5 1457.8 1781.16 1455.7 Q1778.83 1453.59 1774.82 1453.59 Q1772.95 1453.59 1771.07 1454.01 Q1769.22 1454.42 1767.28 1455.3 L1767.28 1437.94 Z" fill="#000000" fill-rule="evenodd" fill-opacity="1" /><path clip-path="url(#clip570)" d="M2196.27 1441.02 Q2192.66 1441.02 2190.83 1444.58 Q2189.03 1448.13 2189.03 1455.26 Q2189.03 1462.36 2190.83 1465.93 Q2192.66 1469.47 2196.27 1469.47 Q2199.91 1469.47 2201.71 1465.93 Q2203.54 1462.36 2203.54 1455.26 Q2203.54 1448.13 2201.71 1444.58 Q2199.91 1441.02 2196.27 1441.02 M2196.27 1437.32 Q2202.08 1437.32 2205.14 1441.92 Q2208.22 1446.51 2208.22 1455.26 Q2208.22 1463.98 2205.14 1468.59 Q2202.08 1473.17 2196.27 1473.17 Q2190.46 1473.17 2187.39 1468.59 Q2184.33 1463.98 2184.33 1455.26 Q2184.33 1446.51 2187.39 1441.92 Q2190.46 1437.32 2196.27 1437.32 Z" fill="#000000" fill-rule="evenodd" fill-opacity="1" /><path clip-path="url(#clip570)" d="M2216.44 1466.62 L2221.32 1466.62 L2221.32 1472.5 L2216.44 1472.5 L2216.44 1466.62 Z" fill="#000000" fill-rule="evenodd" fill-opacity="1" /><path clip-path="url(#clip570)" d="M2235.53 1468.57 L2251.85 1468.57 L2251.85 1472.5 L2229.91 1472.5 L2229.91 1468.57 Q2232.57 1465.81 2237.15 1461.18 Q2241.76 1456.53 2242.94 1455.19 Q2245.19 1452.66 2246.07 1450.93 Q2246.97 1449.17 2246.97 1447.48 Q2246.97 1444.72 2245.02 1442.99 Q2243.1 1441.25 2240 1441.25 Q2237.8 1441.25 2235.35 1442.01 Q2232.92 1442.78 2230.14 1444.33 L2230.14 1439.61 Q2232.96 1438.47 2235.42 1437.89 Q2237.87 1437.32 2239.91 1437.32 Q2245.28 1437.32 2248.47 1440 Q2251.67 1442.69 2251.67 1447.18 Q2251.67 1449.31 2250.86 1451.23 Q2250.07 1453.13 2247.96 1455.72 Q2247.39 1456.39 2244.28 1459.61 Q2241.18 1462.8 2235.53 1468.57 Z" fill="#000000" fill-rule="evenodd" fill-opacity="1" /><path clip-path="url(#clip570)" d="M2271.67 1441.02 Q2268.06 1441.02 2266.23 1444.58 Q2264.42 1448.13 2264.42 1455.26 Q2264.42 1462.36 2266.23 1465.93 Q2268.06 1469.47 2271.67 1469.47 Q2275.3 1469.47 2277.11 1465.93 Q2278.94 1462.36 2278.94 1455.26 Q2278.94 1448.13 2277.11 1444.58 Q2275.3 1441.02 2271.67 1441.02 M2271.67 1437.32 Q2277.48 1437.32 2280.53 1441.92 Q2283.61 1446.51 2283.61 1455.26 Q2283.61 1463.98 2280.53 1468.59 Q2277.48 1473.17 2271.67 1473.17 Q2265.86 1473.17 2262.78 1468.59 Q2259.72 1463.98 2259.72 1455.26 Q2259.72 1446.51 2262.78 1441.92 Q2265.86 1437.32 2271.67 1437.32 Z" fill="#000000" fill-rule="evenodd" fill-opacity="1" /><path clip-path="url(#clip570)" d="M1317.51 1511.46 Q1317.51 1513.16 1316.38 1514.26 Q1315.29 1515.35 1313.87 1515.35 Q1312.64 1515.35 1312 1514.65 Q1311.36 1513.94 1311.36 1513.03 Q1311.36 1511.75 1312.36 1510.68 Q1313.35 1509.62 1314.8 1509.4 Q1313.74 1508.62 1312.03 1508.62 Q1309.23 1508.62 1306.75 1510.78 Q1305.66 1511.78 1304.46 1513.61 Q1303.27 1515.42 1303.05 1516.19 L1300.95 1524.79 Q1300.76 1525.76 1299.57 1530.39 Q1298.41 1535 1298.31 1535.19 Q1297.99 1536.09 1297.28 1536.58 Q1296.57 1537.06 1295.87 1537.06 Q1295.06 1537.06 1294.51 1536.58 Q1293.97 1536.09 1293.97 1535.26 Q1293.97 1535.13 1294.06 1534.64 Q1294.16 1534.16 1294.32 1533.49 Q1294.48 1532.81 1294.55 1532.42 L1298.38 1517.19 Q1299.09 1514.42 1299.25 1513.55 Q1299.44 1512.65 1299.44 1511.65 Q1299.44 1509.91 1298.89 1509.27 Q1298.35 1508.62 1297.38 1508.62 Q1295.7 1508.62 1294.61 1510.62 Q1293.51 1512.62 1292.58 1516.48 Q1292.29 1517.54 1292.1 1517.77 Q1291.94 1517.99 1291.45 1517.99 Q1290.65 1517.96 1290.65 1517.32 Q1290.65 1517.16 1290.91 1516.13 Q1291.16 1515.06 1291.65 1513.52 Q1292.16 1511.94 1292.71 1510.94 Q1293.03 1510.27 1293.32 1509.81 Q1293.61 1509.36 1294.19 1508.65 Q1294.77 1507.95 1295.64 1507.56 Q1296.51 1507.17 1297.57 1507.17 Q1299.89 1507.17 1301.53 1508.59 Q1303.21 1510.01 1303.6 1512.23 Q1304.4 1511.07 1305.4 1510.07 Q1306.4 1509.04 1308.23 1508.11 Q1310.07 1507.17 1312.03 1507.17 Q1314.48 1507.17 1315.99 1508.43 Q1317.51 1509.65 1317.51 1511.46 Z" fill="#000000" fill-rule="evenodd" fill-opacity="1" /><path clip-path="url(#clip570)" d="
M1289.65 1554.65 L1324.38 1554.65 L1324.38 1551.13 L1289.65 1551.13  Z
  " fill="#000000" fill-rule="evenodd" fill-opacity="1"/>
<path clip-path="url(#clip570)" d="M1317.6 1569.11 Q1317.6 1569.33 1317.06 1570.3 Q1316.54 1571.23 1314.64 1573.58 Q1312.74 1575.93 1309.91 1578.67 Q1308.84 1579.73 1307.23 1581.22 Q1305.62 1582.7 1304.53 1583.66 L1303.43 1584.63 Q1299.25 1588.17 1295.57 1592.13 Q1295.83 1592.04 1296.28 1592.01 Q1296.73 1591.94 1297.06 1591.94 L1297.38 1591.94 Q1299.05 1591.94 1301.98 1593.07 Q1304.56 1593.91 1305.88 1593.91 Q1307.17 1593.91 1308.59 1593.45 Q1310 1593 1311.55 1591.68 Q1313.09 1590.36 1313.8 1588.37 Q1313.93 1588.04 1314 1587.95 Q1314.06 1587.82 1314.25 1587.69 Q1314.45 1587.53 1314.7 1587.53 Q1315.06 1587.53 1315.28 1587.72 Q1315.51 1587.92 1315.51 1588.17 Q1315.51 1588.75 1315.06 1589.91 Q1314.64 1591.07 1313.71 1592.52 Q1312.8 1593.97 1311.61 1595.29 Q1310.45 1596.58 1308.71 1597.48 Q1306.98 1598.35 1305.14 1598.35 Q1303.82 1598.35 1302.85 1597.71 Q1301.89 1597.09 1300.92 1595.9 Q1299.6 1594.39 1298.89 1593.91 Q1298.18 1593.39 1297.09 1593.39 Q1294.16 1593.39 1291.48 1597.48 Q1291.19 1598.06 1291 1598.19 Q1290.84 1598.35 1290.45 1598.35 Q1289.65 1598.32 1289.65 1597.67 Q1289.65 1597.42 1290.36 1596.29 Q1291.1 1595.13 1292.74 1593.1 Q1294.41 1591.07 1296.44 1589.04 L1302.37 1583.5 Q1308.94 1577.96 1311.55 1574.84 Q1310.45 1574.84 1309.97 1574.81 Q1309.52 1574.78 1308.62 1574.58 Q1307.72 1574.36 1306.46 1573.87 Q1303.53 1572.87 1302.31 1572.87 Q1301.98 1572.87 1301.63 1572.91 Q1301.27 1572.94 1300.47 1573.1 Q1299.7 1573.26 1299.05 1573.58 Q1298.41 1573.87 1297.73 1574.52 Q1297.06 1575.13 1296.7 1575.97 Q1296.6 1576.22 1296.54 1576.35 Q1296.48 1576.48 1296.28 1576.61 Q1296.12 1576.71 1295.86 1576.71 Q1295.48 1576.71 1295.25 1576.48 Q1295.06 1576.26 1295.06 1575.97 Q1295.06 1575.39 1295.64 1574.2 Q1296.22 1573 1297.18 1571.72 Q1298.15 1570.4 1299.73 1569.43 Q1301.31 1568.46 1303.05 1568.46 Q1304.08 1568.46 1304.95 1568.91 Q1305.85 1569.36 1306.3 1569.85 Q1306.78 1570.3 1307.59 1571.3 Q1308.26 1572.07 1308.59 1572.39 Q1308.91 1572.71 1309.55 1573.07 Q1310.23 1573.39 1310.97 1573.39 Q1312.19 1573.39 1313.32 1572.46 Q1314.45 1571.49 1315.9 1569.17 Q1316.28 1568.46 1316.89 1568.46 Q1317.6 1568.46 1317.6 1569.11 Z" fill="#000000" fill-rule="evenodd" fill-opacity="1" /><polyline clip-path="url(#clip573)" style="stroke:#000000; stroke-linecap:butt; stroke-linejoin:round; stroke-width:2; stroke-opacity:0.1; fill:none" points="
  254.228,1410.1 2352.76,1410.1 
  "/>
<polyline clip-path="url(#clip573)" style="stroke:#000000; stroke-linecap:butt; stroke-linejoin:round; stroke-width:2; stroke-opacity:0.1; fill:none" points="
  254.228,1152.77 2352.76,1152.77 
  "/>
<polyline clip-path="url(#clip573)" style="stroke:#000000; stroke-linecap:butt; stroke-linejoin:round; stroke-width:2; stroke-opacity:0.1; fill:none" points="
  254.228,895.449 2352.76,895.449 
  "/>
<polyline clip-path="url(#clip573)" style="stroke:#000000; stroke-linecap:butt; stroke-linejoin:round; stroke-width:2; stroke-opacity:0.1; fill:none" points="
  254.228,638.124 2352.76,638.124 
  "/>
<polyline clip-path="url(#clip573)" style="stroke:#000000; stroke-linecap:butt; stroke-linejoin:round; stroke-width:2; stroke-opacity:0.1; fill:none" points="
  254.228,380.798 2352.76,380.798 
  "/>
<polyline clip-path="url(#clip573)" style="stroke:#000000; stroke-linecap:butt; stroke-linejoin:round; stroke-width:2; stroke-opacity:0.1; fill:none" points="
  254.228,123.472 2352.76,123.472 
  "/>
<polyline clip-path="url(#clip570)" style="stroke:#000000; stroke-linecap:butt; stroke-linejoin:round; stroke-width:4; stroke-opacity:1; fill:none" points="
  254.228,1410.1 254.228,123.472 
  "/>
<polyline clip-path="url(#clip570)" style="stroke:#000000; stroke-linecap:butt; stroke-linejoin:round; stroke-width:4; stroke-opacity:1; fill:none" points="
  254.228,1410.1 273.126,1410.1 
  "/>
<polyline clip-path="url(#clip570)" style="stroke:#000000; stroke-linecap:butt; stroke-linejoin:round; stroke-width:4; stroke-opacity:1; fill:none" points="
  254.228,1152.77 273.126,1152.77 
  "/>
<polyline clip-path="url(#clip570)" style="stroke:#000000; stroke-linecap:butt; stroke-linejoin:round; stroke-width:4; stroke-opacity:1; fill:none" points="
  254.228,895.449 273.126,895.449 
  "/>
<polyline clip-path="url(#clip570)" style="stroke:#000000; stroke-linecap:butt; stroke-linejoin:round; stroke-width:4; stroke-opacity:1; fill:none" points="
  254.228,638.124 273.126,638.124 
  "/>
<polyline clip-path="url(#clip570)" style="stroke:#000000; stroke-linecap:butt; stroke-linejoin:round; stroke-width:4; stroke-opacity:1; fill:none" points="
  254.228,380.798 273.126,380.798 
  "/>
<polyline clip-path="url(#clip570)" style="stroke:#000000; stroke-linecap:butt; stroke-linejoin:round; stroke-width:4; stroke-opacity:1; fill:none" points="
  254.228,123.472 273.126,123.472 
  "/>
<path clip-path="url(#clip570)" d="M161.053 1395.9 Q157.442 1395.9 155.613 1399.46 Q153.807 1403.01 153.807 1410.14 Q153.807 1417.24 155.613 1420.81 Q157.442 1424.35 161.053 1424.35 Q164.687 1424.35 166.493 1420.81 Q168.321 1417.24 168.321 1410.14 Q168.321 1403.01 166.493 1399.46 Q164.687 1395.9 161.053 1395.9 M161.053 1392.2 Q166.863 1392.2 169.918 1396.8 Q172.997 1401.39 172.997 1410.14 Q172.997 1418.86 169.918 1423.47 Q166.863 1428.05 161.053 1428.05 Q155.243 1428.05 152.164 1423.47 Q149.108 1418.86 149.108 1410.14 Q149.108 1401.39 152.164 1396.8 Q155.243 1392.2 161.053 1392.2 Z" fill="#000000" fill-rule="evenodd" fill-opacity="1" /><path clip-path="url(#clip570)" d="M181.215 1421.5 L186.099 1421.5 L186.099 1427.38 L181.215 1427.38 L181.215 1421.5 Z" fill="#000000" fill-rule="evenodd" fill-opacity="1" /><path clip-path="url(#clip570)" d="M206.284 1395.9 Q202.673 1395.9 200.844 1399.46 Q199.039 1403.01 199.039 1410.14 Q199.039 1417.24 200.844 1420.81 Q202.673 1424.35 206.284 1424.35 Q209.918 1424.35 211.724 1420.81 Q213.552 1417.24 213.552 1410.14 Q213.552 1403.01 211.724 1399.46 Q209.918 1395.9 206.284 1395.9 M206.284 1392.2 Q212.094 1392.2 215.15 1396.8 Q218.228 1401.39 218.228 1410.14 Q218.228 1418.86 215.15 1423.47 Q212.094 1428.05 206.284 1428.05 Q200.474 1428.05 197.395 1423.47 Q194.34 1418.86 194.34 1410.14 Q194.34 1401.39 197.395 1396.8 Q200.474 1392.2 206.284 1392.2 Z" fill="#000000" fill-rule="evenodd" fill-opacity="1" /><path clip-path="url(#clip570)" d="M162.65 1138.57 Q159.039 1138.57 157.21 1142.14 Q155.405 1145.68 155.405 1152.81 Q155.405 1159.92 157.21 1163.48 Q159.039 1167.02 162.65 1167.02 Q166.284 1167.02 168.09 1163.48 Q169.918 1159.92 169.918 1152.81 Q169.918 1145.68 168.09 1142.14 Q166.284 1138.57 162.65 1138.57 M162.65 1134.87 Q168.46 1134.87 171.516 1139.48 Q174.594 1144.06 174.594 1152.81 Q174.594 1161.54 171.516 1166.14 Q168.46 1170.73 162.65 1170.73 Q156.84 1170.73 153.761 1166.14 Q150.706 1161.54 150.706 1152.81 Q150.706 1144.06 153.761 1139.48 Q156.84 1134.87 162.65 1134.87 Z" fill="#000000" fill-rule="evenodd" fill-opacity="1" /><path clip-path="url(#clip570)" d="M182.812 1164.18 L187.696 1164.18 L187.696 1170.05 L182.812 1170.05 L182.812 1164.18 Z" fill="#000000" fill-rule="evenodd" fill-opacity="1" /><path clip-path="url(#clip570)" d="M201.909 1166.12 L218.228 1166.12 L218.228 1170.05 L196.284 1170.05 L196.284 1166.12 Q198.946 1163.37 203.529 1158.74 Q208.136 1154.08 209.316 1152.74 Q211.562 1150.22 212.441 1148.48 Q213.344 1146.72 213.344 1145.03 Q213.344 1142.28 211.4 1140.54 Q209.478 1138.81 206.377 1138.81 Q204.177 1138.81 201.724 1139.57 Q199.293 1140.33 196.516 1141.88 L196.516 1137.16 Q199.34 1136.03 201.793 1135.45 Q204.247 1134.87 206.284 1134.87 Q211.654 1134.87 214.849 1137.56 Q218.043 1140.24 218.043 1144.73 Q218.043 1146.86 217.233 1148.78 Q216.446 1150.68 214.339 1153.27 Q213.761 1153.94 210.659 1157.16 Q207.557 1160.36 201.909 1166.12 Z" fill="#000000" fill-rule="evenodd" fill-opacity="1" /><path clip-path="url(#clip570)" d="M160.567 881.248 Q156.956 881.248 155.127 884.813 Q153.321 888.354 153.321 895.484 Q153.321 902.59 155.127 906.155 Q156.956 909.697 160.567 909.697 Q164.201 909.697 166.006 906.155 Q167.835 902.59 167.835 895.484 Q167.835 888.354 166.006 884.813 Q164.201 881.248 160.567 881.248 M160.567 877.544 Q166.377 877.544 169.432 882.151 Q172.511 886.734 172.511 895.484 Q172.511 904.211 169.432 908.817 Q166.377 913.401 160.567 913.401 Q154.756 913.401 151.678 908.817 Q148.622 904.211 148.622 895.484 Q148.622 886.734 151.678 882.151 Q154.756 877.544 160.567 877.544 Z" fill="#000000" fill-rule="evenodd" fill-opacity="1" /><path clip-path="url(#clip570)" d="M180.729 906.85 L185.613 906.85 L185.613 912.729 L180.729 912.729 L180.729 906.85 Z" fill="#000000" fill-rule="evenodd" fill-opacity="1" /><path clip-path="url(#clip570)" d="M208.645 882.243 L196.84 900.692 L208.645 900.692 L208.645 882.243 M207.418 878.169 L213.298 878.169 L213.298 900.692 L218.228 900.692 L218.228 904.581 L213.298 904.581 L213.298 912.729 L208.645 912.729 L208.645 904.581 L193.043 904.581 L193.043 900.067 L207.418 878.169 Z" fill="#000000" fill-rule="evenodd" fill-opacity="1" /><path clip-path="url(#clip570)" d="M160.891 623.922 Q157.28 623.922 155.451 627.487 Q153.645 631.029 153.645 638.158 Q153.645 645.265 155.451 648.83 Q157.28 652.371 160.891 652.371 Q164.525 652.371 166.33 648.83 Q168.159 645.265 168.159 638.158 Q168.159 631.029 166.33 627.487 Q164.525 623.922 160.891 623.922 M160.891 620.219 Q166.701 620.219 169.756 624.825 Q172.835 629.408 172.835 638.158 Q172.835 646.885 169.756 651.492 Q166.701 656.075 160.891 656.075 Q155.081 656.075 152.002 651.492 Q148.946 646.885 148.946 638.158 Q148.946 629.408 152.002 624.825 Q155.081 620.219 160.891 620.219 Z" fill="#000000" fill-rule="evenodd" fill-opacity="1" /><path clip-path="url(#clip570)" d="M181.053 649.524 L185.937 649.524 L185.937 655.404 L181.053 655.404 L181.053 649.524 Z" fill="#000000" fill-rule="evenodd" fill-opacity="1" /><path clip-path="url(#clip570)" d="M206.701 636.26 Q203.553 636.26 201.701 638.413 Q199.872 640.566 199.872 644.316 Q199.872 648.042 201.701 650.218 Q203.553 652.371 206.701 652.371 Q209.849 652.371 211.677 650.218 Q213.529 648.042 213.529 644.316 Q213.529 640.566 211.677 638.413 Q209.849 636.26 206.701 636.26 M215.983 621.607 L215.983 625.867 Q214.224 625.033 212.418 624.594 Q210.636 624.154 208.877 624.154 Q204.247 624.154 201.793 627.279 Q199.363 630.404 199.015 636.723 Q200.381 634.709 202.441 633.644 Q204.502 632.556 206.978 632.556 Q212.187 632.556 215.196 635.728 Q218.228 638.876 218.228 644.316 Q218.228 649.64 215.08 652.857 Q211.932 656.075 206.701 656.075 Q200.705 656.075 197.534 651.492 Q194.363 646.885 194.363 638.158 Q194.363 629.964 198.252 625.103 Q202.14 620.219 208.691 620.219 Q210.451 620.219 212.233 620.566 Q214.039 620.913 215.983 621.607 Z" fill="#000000" fill-rule="evenodd" fill-opacity="1" /><path clip-path="url(#clip570)" d="M161.145 366.597 Q157.534 366.597 155.706 370.161 Q153.9 373.703 153.9 380.833 Q153.9 387.939 155.706 391.504 Q157.534 395.045 161.145 395.045 Q164.78 395.045 166.585 391.504 Q168.414 387.939 168.414 380.833 Q168.414 373.703 166.585 370.161 Q164.78 366.597 161.145 366.597 M161.145 362.893 Q166.955 362.893 170.011 367.499 Q173.09 372.083 173.09 380.833 Q173.09 389.559 170.011 394.166 Q166.955 398.749 161.145 398.749 Q155.335 398.749 152.256 394.166 Q149.201 389.559 149.201 380.833 Q149.201 372.083 152.256 367.499 Q155.335 362.893 161.145 362.893 Z" fill="#000000" fill-rule="evenodd" fill-opacity="1" /><path clip-path="url(#clip570)" d="M181.307 392.198 L186.191 392.198 L186.191 398.078 L181.307 398.078 L181.307 392.198 Z" fill="#000000" fill-rule="evenodd" fill-opacity="1" /><path clip-path="url(#clip570)" d="M206.377 381.666 Q203.043 381.666 201.122 383.448 Q199.224 385.231 199.224 388.356 Q199.224 391.481 201.122 393.263 Q203.043 395.045 206.377 395.045 Q209.71 395.045 211.631 393.263 Q213.552 391.458 213.552 388.356 Q213.552 385.231 211.631 383.448 Q209.733 381.666 206.377 381.666 M201.701 379.675 Q198.691 378.934 197.002 376.874 Q195.335 374.814 195.335 371.851 Q195.335 367.708 198.275 365.3 Q201.238 362.893 206.377 362.893 Q211.539 362.893 214.478 365.3 Q217.418 367.708 217.418 371.851 Q217.418 374.814 215.728 376.874 Q214.062 378.934 211.076 379.675 Q214.455 380.462 216.33 382.754 Q218.228 385.045 218.228 388.356 Q218.228 393.379 215.15 396.064 Q212.094 398.749 206.377 398.749 Q200.659 398.749 197.58 396.064 Q194.525 393.379 194.525 388.356 Q194.525 385.045 196.423 382.754 Q198.321 380.462 201.701 379.675 M199.988 372.291 Q199.988 374.976 201.654 376.481 Q203.344 377.985 206.377 377.985 Q209.386 377.985 211.076 376.481 Q212.789 374.976 212.789 372.291 Q212.789 369.606 211.076 368.101 Q209.386 366.597 206.377 366.597 Q203.344 366.597 201.654 368.101 Q199.988 369.606 199.988 372.291 Z" fill="#000000" fill-rule="evenodd" fill-opacity="1" /><path clip-path="url(#clip570)" d="M151.863 136.817 L159.502 136.817 L159.502 110.451 L151.192 112.118 L151.192 107.859 L159.456 106.192 L164.131 106.192 L164.131 136.817 L171.77 136.817 L171.77 140.752 L151.863 140.752 L151.863 136.817 Z" fill="#000000" fill-rule="evenodd" fill-opacity="1" /><path clip-path="url(#clip570)" d="M181.215 134.873 L186.099 134.873 L186.099 140.752 L181.215 140.752 L181.215 134.873 Z" fill="#000000" fill-rule="evenodd" fill-opacity="1" /><path clip-path="url(#clip570)" d="M206.284 109.271 Q202.673 109.271 200.844 112.836 Q199.039 116.377 199.039 123.507 Q199.039 130.613 200.844 134.178 Q202.673 137.72 206.284 137.72 Q209.918 137.72 211.724 134.178 Q213.552 130.613 213.552 123.507 Q213.552 116.377 211.724 112.836 Q209.918 109.271 206.284 109.271 M206.284 105.567 Q212.094 105.567 215.15 110.174 Q218.228 114.757 218.228 123.507 Q218.228 132.234 215.15 136.84 Q212.094 141.423 206.284 141.423 Q200.474 141.423 197.395 136.84 Q194.34 132.234 194.34 123.507 Q194.34 114.757 197.395 110.174 Q200.474 105.567 206.284 105.567 Z" fill="#000000" fill-rule="evenodd" fill-opacity="1" /><path clip-path="url(#clip570)" d="M3.63725 768.9 Q4.4746 768.9 6.1171 769.125 Q7.7596 769.351 10.1428 769.898 Q12.5261 770.446 15.0381 771.251 Q17.5502 772.024 20.0622 773.248 Q22.5421 774.472 24.5066 775.921 Q26.4712 777.37 27.695 779.399 Q28.9189 781.428 28.9189 783.715 Q28.9189 784.777 28.7578 785.808 Q28.5968 786.839 28.0815 788.127 Q27.5662 789.415 26.7289 790.349 Q25.8593 791.283 24.3134 791.927 Q22.7675 792.571 20.7386 792.571 Q18.6452 792.571 15.8433 791.798 Q13.0092 790.993 7.2121 788.803 Q4.21695 787.676 2.57446 787.676 Q1.83372 787.676 1.38284 787.837 Q0.899751 787.998 0.738722 788.32 Q0.545487 788.642 0.513281 788.835 Q0.481075 788.996 0.481075 789.318 Q0.481075 791.09 2.31681 792.893 Q4.15254 794.697 8.66136 795.985 Q9.46651 796.243 9.65975 796.404 Q9.85298 796.565 9.85298 797.048 Q9.82077 797.853 9.17666 797.853 Q8.98342 797.853 8.24269 797.628 Q7.46975 797.402 6.31034 796.983 Q5.11872 796.565 3.8949 795.824 Q2.63887 795.083 1.54387 794.181 Q0.448869 793.248 -0.25966 791.927 Q-0.968189 790.607 -0.968189 789.125 Q-0.968189 786.71 0.609899 785.228 Q2.15578 783.715 4.4424 783.715 Q5.69842 783.715 7.72739 784.52 Q11.3989 785.872 13.1702 786.484 Q14.9415 787.096 17.4536 787.74 Q19.9656 788.352 21.7047 788.352 Q24.3456 788.352 25.8915 787.128 Q27.4374 785.905 27.4374 783.457 Q27.4374 781.267 25.8593 779.302 Q24.249 777.306 21.9624 775.985 Q19.6436 774.665 17.0671 773.666 Q14.4584 772.668 12.4939 772.217 Q10.4971 771.734 9.56313 771.734 Q6.31034 771.734 4.18475 773.956 Q3.57284 774.568 3.18637 774.794 Q2.7999 775.019 2.18799 775.019 Q1.06078 775.019 0.0623989 774.021 Q-0.968189 772.99 -0.968189 771.798 Q-0.968189 770.703 0.126811 769.802 Q1.22181 768.9 3.63725 768.9 Z" fill="#000000" fill-rule="evenodd" fill-opacity="1" /><path clip-path="url(#clip570)" d="M21.0885 742.573 Q21.2463 742.573 21.9226 742.956 Q22.5764 743.317 24.2221 744.647 Q25.8678 745.977 27.7841 747.961 Q28.528 748.705 29.565 749.832 Q30.6021 750.959 31.2784 751.726 L31.9547 752.492 Q34.4346 755.423 37.2075 757.993 Q37.1399 757.813 37.1173 757.497 Q37.0722 757.181 37.0722 756.956 L37.0722 756.731 Q37.0722 755.558 37.8613 753.507 Q38.4474 751.703 38.4474 750.779 Q38.4474 749.877 38.1318 748.885 Q37.8162 747.893 36.8919 746.811 Q35.9676 745.729 34.5698 745.233 Q34.3444 745.143 34.2768 745.098 Q34.1866 745.053 34.0964 744.917 Q33.9837 744.782 33.9837 744.602 Q33.9837 744.354 34.119 744.196 Q34.2542 744.038 34.4346 744.038 Q34.8404 744.038 35.652 744.354 Q36.4635 744.647 37.478 745.301 Q38.4925 745.932 39.4168 746.766 Q40.3186 747.578 40.9498 748.795 Q41.5585 750.012 41.5585 751.297 Q41.5585 752.222 41.1076 752.898 Q40.6793 753.574 39.8452 754.251 Q38.7856 755.175 38.4474 755.671 Q38.0867 756.167 38.0867 756.933 Q38.0867 758.985 40.9498 760.856 Q41.3556 761.059 41.4458 761.194 Q41.5585 761.307 41.5585 761.577 Q41.536 762.141 41.0851 762.141 Q40.9047 762.141 40.1157 761.645 Q39.3041 761.127 37.8838 759.977 Q36.4635 758.805 35.0433 757.384 L31.1657 753.236 Q27.2881 748.637 25.1013 746.811 Q25.1013 747.578 25.0788 747.916 Q25.0562 748.231 24.921 748.863 Q24.7631 749.494 24.425 750.373 Q23.7261 752.425 23.7261 753.281 Q23.7261 753.507 23.7487 753.755 Q23.7712 754.003 23.8839 754.566 Q23.9966 755.107 24.2221 755.558 Q24.425 756.009 24.8759 756.483 Q25.3042 756.956 25.8904 757.204 Q26.0707 757.272 26.1609 757.317 Q26.2511 757.362 26.3412 757.497 Q26.4089 757.61 26.4089 757.79 Q26.4089 758.061 26.2511 758.218 Q26.0933 758.354 25.8904 758.354 Q25.4846 758.354 24.6504 757.948 Q23.8163 757.542 22.9145 756.866 Q21.9902 756.189 21.3139 755.085 Q20.6376 753.98 20.6376 752.763 Q20.6376 752.041 20.9532 751.433 Q21.2688 750.801 21.607 750.486 Q21.9226 750.148 22.6215 749.584 Q23.1625 749.111 23.388 748.885 Q23.6134 748.66 23.8614 748.209 Q24.0868 747.735 24.0868 747.217 Q24.0868 746.36 23.433 745.571 Q22.7567 744.782 21.1335 743.768 Q20.6376 743.497 20.6376 743.069 Q20.6376 742.573 21.0885 742.573 Z" fill="#000000" fill-rule="evenodd" fill-opacity="1" /><path clip-path="url(#clip570)" d="
M59.1541 797.853 L59.1541 728.68 L55.6341 728.68 L55.6341 797.853  Z
  " fill="#000000" fill-rule="evenodd" fill-opacity="1"/>
<path clip-path="url(#clip570)" d="M77.5682 768.9 Q78.4055 768.9 80.048 769.125 Q81.6905 769.351 84.0738 769.898 Q86.457 770.446 88.9691 771.251 Q91.4811 772.024 93.9932 773.248 Q96.473 774.472 98.4376 775.921 Q100.402 777.37 101.626 779.399 Q102.85 781.428 102.85 783.715 Q102.85 784.777 102.689 785.808 Q102.528 786.839 102.012 788.127 Q101.497 789.415 100.66 790.349 Q99.7902 791.283 98.2443 791.927 Q96.6985 792.571 94.6695 792.571 Q92.5761 792.571 89.7742 791.798 Q86.9401 790.993 81.143 788.803 Q78.1479 787.676 76.5054 787.676 Q75.7647 787.676 75.3138 787.837 Q74.8307 787.998 74.6697 788.32 Q74.4764 788.642 74.4442 788.835 Q74.412 788.996 74.412 789.318 Q74.412 791.09 76.2477 792.893 Q78.0835 794.697 82.5923 795.985 Q83.3974 796.243 83.5907 796.404 Q83.7839 796.565 83.7839 797.048 Q83.7517 797.853 83.1076 797.853 Q82.9144 797.853 82.1736 797.628 Q81.4007 797.402 80.2413 796.983 Q79.0497 796.565 77.8258 795.824 Q76.5698 795.083 75.4748 794.181 Q74.3798 793.248 73.6713 791.927 Q72.9627 790.607 72.9627 789.125 Q72.9627 786.71 74.5408 785.228 Q76.0867 783.715 78.3733 783.715 Q79.6294 783.715 81.6583 784.52 Q85.3298 785.872 87.1011 786.484 Q88.8724 787.096 91.3845 787.74 Q93.8966 788.352 95.6357 788.352 Q98.2766 788.352 99.8224 787.128 Q101.368 785.905 101.368 783.457 Q101.368 781.267 99.7902 779.302 Q98.1799 777.306 95.8933 775.985 Q93.5745 774.665 90.998 773.666 Q88.3894 772.668 86.4248 772.217 Q84.428 771.734 83.4941 771.734 Q80.2413 771.734 78.1157 773.956 Q77.5038 774.568 77.1173 774.794 Q76.7308 775.019 76.1189 775.019 Q74.9917 775.019 73.9933 774.021 Q72.9627 772.99 72.9627 771.798 Q72.9627 770.703 74.0577 769.802 Q75.1527 768.9 77.5682 768.9 Z" fill="#000000" fill-rule="evenodd" fill-opacity="1" /><path clip-path="url(#clip570)" d="M106.354 762.141 Q99.5678 762.141 95.8706 760.428 Q90.3698 758.038 90.3698 752.402 Q90.3698 751.207 90.708 749.967 Q91.0236 748.705 92.2635 747.127 Q93.5035 745.526 95.5324 744.557 Q99.4551 742.708 106.354 742.708 Q113.094 742.708 116.769 744.421 Q122.134 746.924 122.134 752.447 Q122.134 754.521 121.075 756.64 Q120.015 758.737 117.468 760.067 Q113.658 762.141 106.354 762.141 M105.79 758.309 Q112.756 758.309 115.529 757.813 Q118.527 757.249 119.835 755.716 Q121.12 754.16 121.12 752.447 Q121.12 750.599 119.745 749.066 Q118.347 747.51 115.349 747.037 Q112.395 746.518 105.79 746.541 Q99.3649 746.541 96.7949 746.991 Q93.7965 747.6 92.6017 749.223 Q91.3843 750.824 91.3843 752.447 Q91.3843 753.056 91.5647 753.71 Q91.745 754.341 92.2635 755.265 Q92.7821 756.189 94.0671 756.911 Q95.3521 757.61 97.2909 757.948 Q99.7933 758.309 105.79 758.309 Z" fill="#000000" fill-rule="evenodd" fill-opacity="1" /><path clip-path="url(#clip570)" d="M769.958 17.7409 L769.958 26.3694 Q765.826 22.521 761.127 20.6171 Q756.469 18.7132 751.202 18.7132 Q740.832 18.7132 735.323 25.0731 Q729.814 31.3925 729.814 43.3832 Q729.814 55.3333 735.323 61.6933 Q740.832 68.0127 751.202 68.0127 Q756.469 68.0127 761.127 66.1087 Q765.826 64.2048 769.958 60.3565 L769.958 68.9039 Q765.664 71.8205 760.844 73.2788 Q756.064 74.7372 750.716 74.7372 Q736.984 74.7372 729.085 66.3518 Q721.185 57.9259 721.185 43.3832 Q721.185 28.7999 729.085 20.4145 Q736.984 11.9887 750.716 11.9887 Q756.145 11.9887 760.925 13.447 Q765.745 14.8648 769.958 17.7409 Z" fill="#000000" fill-rule="evenodd" fill-opacity="1" /><path clip-path="url(#clip570)" d="M782.273 28.1923 L789.727 28.1923 L789.727 73.5624 L782.273 73.5624 L782.273 28.1923 M782.273 10.5303 L789.727 10.5303 L789.727 19.9689 L782.273 19.9689 L782.273 10.5303 Z" fill="#000000" fill-rule="evenodd" fill-opacity="1" /><path clip-path="url(#clip570)" d="M831.613 35.1598 Q830.357 34.4307 828.858 34.1066 Q827.4 33.742 825.618 33.742 Q819.298 33.742 815.895 37.8739 Q812.533 41.9654 812.533 49.6621 L812.533 73.5624 L805.039 73.5624 L805.039 28.1923 L812.533 28.1923 L812.533 35.2409 Q814.883 31.1089 818.65 29.124 Q822.417 27.0985 827.805 27.0985 Q828.575 27.0985 829.506 27.2201 Q830.438 27.3011 831.572 27.5036 L831.613 35.1598 Z" fill="#000000" fill-rule="evenodd" fill-opacity="1" /><path clip-path="url(#clip570)" d="M870.259 29.9342 L870.259 36.9017 Q867.099 35.1598 863.899 34.3091 Q860.739 33.4179 857.498 33.4179 Q850.247 33.4179 846.237 38.036 Q842.226 42.6135 842.226 50.9179 Q842.226 59.2222 846.237 63.8402 Q850.247 68.4178 857.498 68.4178 Q860.739 68.4178 863.899 67.5671 Q867.099 66.6759 870.259 64.934 L870.259 71.8205 Q867.139 73.2788 863.777 74.008 Q860.455 74.7372 856.688 74.7372 Q846.439 74.7372 840.403 68.2962 Q834.368 61.8553 834.368 50.9179 Q834.368 39.8184 840.444 33.4585 Q846.561 27.0985 857.174 27.0985 Q860.617 27.0985 863.899 27.8277 Q867.18 28.5164 870.259 29.9342 Z" fill="#000000" fill-rule="evenodd" fill-opacity="1" /><path clip-path="url(#clip570)" d="M882.452 55.6574 L882.452 28.1923 L889.905 28.1923 L889.905 55.3738 Q889.905 61.8148 892.417 65.0555 Q894.929 68.2557 899.952 68.2557 Q905.987 68.2557 909.471 64.4074 Q912.996 60.559 912.996 53.9155 L912.996 28.1923 L920.449 28.1923 L920.449 73.5624 L912.996 73.5624 L912.996 66.5949 Q910.281 70.7268 906.676 72.7522 Q903.111 74.7372 898.372 74.7372 Q890.554 74.7372 886.503 69.8761 Q882.452 65.015 882.452 55.6574 M901.207 27.0985 L901.207 27.0985 Z" fill="#000000" fill-rule="evenodd" fill-opacity="1" /><path clip-path="url(#clip570)" d="M935.802 10.5303 L943.256 10.5303 L943.256 73.5624 L935.802 73.5624 L935.802 10.5303 Z" fill="#000000" fill-rule="evenodd" fill-opacity="1" /><path clip-path="url(#clip570)" d="M979.471 50.7558 Q970.437 50.7558 966.954 52.8218 Q963.47 54.8877 963.47 59.8703 Q963.47 63.8402 966.062 66.1898 Q968.695 68.4988 973.192 68.4988 Q979.39 68.4988 983.117 64.1238 Q986.884 59.7083 986.884 52.4167 L986.884 50.7558 L979.471 50.7558 M994.338 47.6771 L994.338 73.5624 L986.884 73.5624 L986.884 66.6759 Q984.332 70.8078 980.524 72.7927 Q976.716 74.7372 971.207 74.7372 Q964.239 74.7372 960.108 70.8483 Q956.016 66.9189 956.016 60.3565 Q956.016 52.7002 961.12 48.8114 Q966.265 44.9225 976.433 44.9225 L986.884 44.9225 L986.884 44.1934 Q986.884 39.0487 983.481 36.2536 Q980.119 33.4179 974.002 33.4179 Q970.113 33.4179 966.427 34.3497 Q962.741 35.2814 959.338 37.1448 L959.338 30.2582 Q963.429 28.6784 967.278 27.9087 Q971.126 27.0985 974.772 27.0985 Q984.616 27.0985 989.477 32.2027 Q994.338 37.3068 994.338 47.6771 Z" fill="#000000" fill-rule="evenodd" fill-opacity="1" /><path clip-path="url(#clip570)" d="M1035.98 35.1598 Q1034.73 34.4307 1033.23 34.1066 Q1031.77 33.742 1029.99 33.742 Q1023.67 33.742 1020.26 37.8739 Q1016.9 41.9654 1016.9 49.6621 L1016.9 73.5624 L1009.41 73.5624 L1009.41 28.1923 L1016.9 28.1923 L1016.9 35.2409 Q1019.25 31.1089 1023.02 29.124 Q1026.79 27.0985 1032.17 27.0985 Q1032.94 27.0985 1033.87 27.2201 Q1034.81 27.3011 1035.94 27.5036 L1035.98 35.1598 Z" fill="#000000" fill-rule="evenodd" fill-opacity="1" /><path clip-path="url(#clip570)" d="M1062.11 13.0824 L1113.27 13.0824 L1113.27 19.9689 L1091.8 19.9689 L1091.8 73.5624 L1083.58 73.5624 L1083.58 19.9689 L1062.11 19.9689 L1062.11 13.0824 Z" fill="#000000" fill-rule="evenodd" fill-opacity="1" /><path clip-path="url(#clip570)" d="M1107.48 55.6574 L1107.48 28.1923 L1114.93 28.1923 L1114.93 55.3738 Q1114.93 61.8148 1117.44 65.0555 Q1119.96 68.2557 1124.98 68.2557 Q1131.02 68.2557 1134.5 64.4074 Q1138.02 60.559 1138.02 53.9155 L1138.02 28.1923 L1145.48 28.1923 L1145.48 73.5624 L1138.02 73.5624 L1138.02 66.5949 Q1135.31 70.7268 1131.7 72.7522 Q1128.14 74.7372 1123.4 74.7372 Q1115.58 74.7372 1111.53 69.8761 Q1107.48 65.015 1107.48 55.6574 M1126.24 27.0985 L1126.24 27.0985 Z" fill="#000000" fill-rule="evenodd" fill-opacity="1" /><path clip-path="url(#clip570)" d="M1187.12 35.1598 Q1185.86 34.4307 1184.37 34.1066 Q1182.91 33.742 1181.12 33.742 Q1174.81 33.742 1171.4 37.8739 Q1168.04 41.9654 1168.04 49.6621 L1168.04 73.5624 L1160.55 73.5624 L1160.55 28.1923 L1168.04 28.1923 L1168.04 35.2409 Q1170.39 31.1089 1174.16 29.124 Q1177.92 27.0985 1183.31 27.0985 Q1184.08 27.0985 1185.01 27.2201 Q1185.95 27.3011 1187.08 27.5036 L1187.12 35.1598 Z" fill="#000000" fill-rule="evenodd" fill-opacity="1" /><path clip-path="url(#clip570)" d="M1227.51 50.9179 Q1227.51 42.6945 1224.11 38.036 Q1220.74 33.3369 1214.83 33.3369 Q1208.91 33.3369 1205.51 38.036 Q1202.15 42.6945 1202.15 50.9179 Q1202.15 59.1412 1205.51 63.8402 Q1208.91 68.4988 1214.83 68.4988 Q1220.74 68.4988 1224.11 63.8402 Q1227.51 59.1412 1227.51 50.9179 M1202.15 35.0788 Q1204.5 31.0279 1208.06 29.0835 Q1211.67 27.0985 1216.65 27.0985 Q1224.92 27.0985 1230.06 33.661 Q1235.24 40.2235 1235.24 50.9179 Q1235.24 61.6122 1230.06 68.1747 Q1224.92 74.7372 1216.65 74.7372 Q1211.67 74.7372 1208.06 72.7927 Q1204.5 70.8078 1202.15 66.7569 L1202.15 73.5624 L1194.65 73.5624 L1194.65 10.5303 L1202.15 10.5303 L1202.15 35.0788 Z" fill="#000000" fill-rule="evenodd" fill-opacity="1" /><path clip-path="url(#clip570)" d="M1246.83 55.6574 L1246.83 28.1923 L1254.28 28.1923 L1254.28 55.3738 Q1254.28 61.8148 1256.8 65.0555 Q1259.31 68.2557 1264.33 68.2557 Q1270.37 68.2557 1273.85 64.4074 Q1277.37 60.559 1277.37 53.9155 L1277.37 28.1923 L1284.83 28.1923 L1284.83 73.5624 L1277.37 73.5624 L1277.37 66.5949 Q1274.66 70.7268 1271.05 72.7522 Q1267.49 74.7372 1262.75 74.7372 Q1254.93 74.7372 1250.88 69.8761 Q1246.83 65.015 1246.83 55.6574 M1265.59 27.0985 L1265.59 27.0985 Z" fill="#000000" fill-rule="evenodd" fill-opacity="1" /><path clip-path="url(#clip570)" d="M1300.18 10.5303 L1307.63 10.5303 L1307.63 73.5624 L1300.18 73.5624 L1300.18 10.5303 Z" fill="#000000" fill-rule="evenodd" fill-opacity="1" /><path clip-path="url(#clip570)" d="M1362.04 49.0139 L1362.04 52.6597 L1327.77 52.6597 Q1328.25 60.3565 1332.39 64.4074 Q1336.56 68.4178 1343.97 68.4178 Q1348.27 68.4178 1352.28 67.3645 Q1356.33 66.3113 1360.3 64.2048 L1360.3 71.2534 Q1356.29 72.9548 1352.07 73.846 Q1347.86 74.7372 1343.53 74.7372 Q1332.67 74.7372 1326.31 68.4178 Q1319.99 62.0983 1319.99 51.3229 Q1319.99 40.183 1325.99 33.661 Q1332.02 27.0985 1342.23 27.0985 Q1351.38 27.0985 1356.69 33.0129 Q1362.04 38.8867 1362.04 49.0139 M1354.58 46.8264 Q1354.5 40.7096 1351.14 37.0638 Q1347.82 33.4179 1342.31 33.4179 Q1336.07 33.4179 1332.3 36.9422 Q1328.58 40.4665 1328.01 46.8669 L1354.58 46.8264 Z" fill="#000000" fill-rule="evenodd" fill-opacity="1" /><path clip-path="url(#clip570)" d="M1411.99 46.1783 L1411.99 73.5624 L1404.53 73.5624 L1404.53 46.4213 Q1404.53 39.9804 1402.02 36.7802 Q1399.51 33.58 1394.49 33.58 Q1388.45 33.58 1384.97 37.4283 Q1381.48 41.2767 1381.48 47.9202 L1381.48 73.5624 L1373.99 73.5624 L1373.99 28.1923 L1381.48 28.1923 L1381.48 35.2409 Q1384.16 31.1494 1387.76 29.124 Q1391.41 27.0985 1396.15 27.0985 Q1403.97 27.0985 1407.98 31.9596 Q1411.99 36.7802 1411.99 46.1783 Z" fill="#000000" fill-rule="evenodd" fill-opacity="1" /><path clip-path="url(#clip570)" d="M1434.23 15.3104 L1434.23 28.1923 L1449.58 28.1923 L1449.58 33.9851 L1434.23 33.9851 L1434.23 58.6146 Q1434.23 64.1643 1435.72 65.7442 Q1437.26 67.324 1441.92 67.324 L1449.58 67.324 L1449.58 73.5624 L1441.92 73.5624 Q1433.29 73.5624 1430.01 70.3622 Q1426.73 67.1215 1426.73 58.6146 L1426.73 33.9851 L1421.26 33.9851 L1421.26 28.1923 L1426.73 28.1923 L1426.73 15.3104 L1434.23 15.3104 Z" fill="#000000" fill-rule="evenodd" fill-opacity="1" /><path clip-path="url(#clip570)" d="M1486.08 13.0824 L1494.26 13.0824 L1494.26 69.3495 Q1494.26 80.2869 1490.09 85.229 Q1485.96 90.1711 1476.76 90.1711 L1473.64 90.1711 L1473.64 83.2846 L1476.19 83.2846 Q1481.62 83.2846 1483.85 80.2464 Q1486.08 77.2082 1486.08 69.3495 L1486.08 13.0824 Z" fill="#000000" fill-rule="evenodd" fill-opacity="1" /><path clip-path="url(#clip570)" d="M1549.03 49.0139 L1549.03 52.6597 L1514.76 52.6597 Q1515.24 60.3565 1519.38 64.4074 Q1523.55 68.4178 1530.96 68.4178 Q1535.25 68.4178 1539.27 67.3645 Q1543.32 66.3113 1547.29 64.2048 L1547.29 71.2534 Q1543.28 72.9548 1539.06 73.846 Q1534.85 74.7372 1530.52 74.7372 Q1519.66 74.7372 1513.3 68.4178 Q1506.98 62.0983 1506.98 51.3229 Q1506.98 40.183 1512.97 33.661 Q1519.01 27.0985 1529.22 27.0985 Q1538.37 27.0985 1543.68 33.0129 Q1549.03 38.8867 1549.03 49.0139 M1541.57 46.8264 Q1541.49 40.7096 1538.13 37.0638 Q1534.81 33.4179 1529.3 33.4179 Q1523.06 33.4179 1519.29 36.9422 Q1515.57 40.4665 1515 46.8669 L1541.57 46.8264 Z" fill="#000000" fill-rule="evenodd" fill-opacity="1" /><path clip-path="url(#clip570)" d="M1568.63 15.3104 L1568.63 28.1923 L1583.99 28.1923 L1583.99 33.9851 L1568.63 33.9851 L1568.63 58.6146 Q1568.63 64.1643 1570.13 65.7442 Q1571.67 67.324 1576.33 67.324 L1583.99 67.324 L1583.99 73.5624 L1576.33 73.5624 Q1567.7 73.5624 1564.42 70.3622 Q1561.14 67.1215 1561.14 58.6146 L1561.14 33.9851 L1555.67 33.9851 L1555.67 28.1923 L1561.14 28.1923 L1561.14 15.3104 L1568.63 15.3104 Z" fill="#000000" fill-rule="evenodd" fill-opacity="1" /><path clip-path="url(#clip570)" d="M1647.92 37.2869 Q1647.92 37.5738 1647.23 38.8035 Q1646.57 39.9922 1644.15 42.9844 Q1641.73 45.9766 1638.13 49.4607 Q1636.77 50.8134 1634.72 52.6989 Q1632.67 54.5844 1631.28 55.814 L1629.89 57.0437 Q1624.56 61.5525 1619.89 66.5942 Q1620.21 66.4713 1620.79 66.4303 Q1621.36 66.3483 1621.77 66.3483 L1622.18 66.3483 Q1624.31 66.3483 1628.04 67.7829 Q1631.32 68.8486 1633 68.8486 Q1634.64 68.8486 1636.45 68.2748 Q1638.25 67.7009 1640.22 66.0204 Q1642.18 64.3398 1643.09 61.7985 Q1643.25 61.3886 1643.33 61.2656 Q1643.41 61.1017 1643.66 60.9377 Q1643.91 60.7328 1644.23 60.7328 Q1644.68 60.7328 1644.97 60.9787 Q1645.26 61.2246 1645.26 61.5525 Q1645.26 62.2904 1644.68 63.766 Q1644.15 65.2416 1642.96 67.0861 Q1641.81 68.9306 1640.3 70.6112 Q1638.82 72.2507 1636.61 73.3984 Q1634.4 74.5052 1632.06 74.5052 Q1630.38 74.5052 1629.15 73.6854 Q1627.92 72.9066 1626.69 71.39 Q1625.01 69.4635 1624.11 68.8486 Q1623.21 68.1928 1621.81 68.1928 Q1618.08 68.1928 1614.68 73.3984 Q1614.31 74.1363 1614.07 74.3002 Q1613.86 74.5052 1613.37 74.5052 Q1612.34 74.4642 1612.34 73.6444 Q1612.34 73.3165 1613.25 71.8818 Q1614.19 70.4062 1616.28 67.8239 Q1618.41 65.2416 1620.99 62.6593 L1628.53 55.6091 Q1636.9 48.5589 1640.22 44.583 Q1638.82 44.583 1638.21 44.542 Q1637.63 44.501 1636.49 44.2551 Q1635.34 43.9681 1633.74 43.3533 Q1630.01 42.0826 1628.45 42.0826 Q1628.04 42.0826 1627.59 42.1236 Q1627.14 42.1646 1626.12 42.3696 Q1625.13 42.5745 1624.31 42.9844 Q1623.49 43.3533 1622.63 44.1731 Q1621.77 44.9519 1621.32 46.0176 Q1621.2 46.3455 1621.12 46.5095 Q1621.03 46.6734 1620.79 46.8374 Q1620.58 46.9604 1620.25 46.9604 Q1619.76 46.9604 1619.48 46.6734 Q1619.23 46.3865 1619.23 46.0176 Q1619.23 45.2798 1619.97 43.7632 Q1620.71 42.2466 1621.94 40.607 Q1623.16 38.9265 1625.17 37.6968 Q1627.18 36.4671 1629.4 36.4671 Q1630.71 36.4671 1631.81 37.041 Q1632.96 37.6148 1633.54 38.2296 Q1634.15 38.8035 1635.17 40.0742 Q1636.04 41.0579 1636.45 41.4678 Q1636.86 41.8777 1637.68 42.3286 Q1638.54 42.7385 1639.48 42.7385 Q1641.04 42.7385 1642.47 41.5498 Q1643.91 40.3201 1645.75 37.3689 Q1646.24 36.4671 1647.02 36.4671 Q1647.92 36.4671 1647.92 37.2869 Z" fill="#000000" fill-rule="evenodd" fill-opacity="1" /><path clip-path="url(#clip570)" d="M1674.28 60.8147 Q1674.36 59.79 1675.96 59.79 L1727.4 59.79 Q1729.82 59.79 1729.86 60.7328 Q1729.86 61.7575 1727.57 61.7165 L1676.54 61.7165 Q1674.28 61.7575 1674.28 60.8147 M1674.28 44.419 Q1674.28 43.3943 1676.04 43.4353 L1727.32 43.4353 Q1729.82 43.4353 1729.86 44.419 Q1729.86 45.3618 1727.73 45.3618 L1675.96 45.3618 Q1674.28 45.3618 1674.28 44.419 Z" fill="#000000" fill-rule="evenodd" fill-opacity="1" /><path clip-path="url(#clip570)" d="M1762.24 34.0897 L1764.99 16.8332 L1767.08 16.8332 Q1767.32 17.858 1767.73 18.3089 Q1768.18 18.7597 1770.56 19.1286 Q1772.98 19.4975 1777.86 19.4975 L1798.23 19.4975 Q1798.23 21.424 1797.49 22.4488 L1786.14 38.3936 Q1782.53 43.4353 1780.93 52.7399 Q1779.99 58.9702 1780.03 66.5123 L1780.03 70.7751 Q1780.03 75.4069 1776.14 75.4069 Q1772.28 75.4069 1772.28 70.7751 Q1772.28 54.7483 1782.61 39.2134 Q1783.72 37.6148 1787.78 31.9173 Q1791.88 26.2198 1792.04 25.9739 L1774.66 25.9739 Q1767.04 25.9739 1766.42 26.4657 Q1765.6 27.2035 1764.33 34.0897 L1762.24 34.0897 Z" fill="#000000" fill-rule="evenodd" fill-opacity="1" /><path clip-path="url(#clip570)" d="M1843.78 16.2184 L1831.68 64.7497 Q1831.19 66.9221 1831.19 68.7667 Q1831.19 72.6197 1833.69 72.6197 Q1834.92 72.6197 1835.91 71.8409 Q1836.89 71.0621 1837.67 69.4225 Q1838.45 67.7829 1838.94 66.2663 Q1839.43 64.7087 1840.09 62.2494 Q1840.29 61.2656 1840.46 61.0197 Q1840.66 60.7328 1841.24 60.7328 Q1842.26 60.7328 1842.26 61.5525 Q1841.15 66.8402 1839.72 69.8734 Q1837.42 74.5052 1833.53 74.5052 Q1830.58 74.5052 1828.49 72.7016 Q1826.4 70.8981 1825.91 68.1928 Q1820.54 74.5052 1814.96 74.5052 Q1810.04 74.5052 1806.93 70.7751 Q1803.81 67.0041 1803.81 61.0607 Q1803.81 55.0762 1806.76 49.3377 Q1809.76 43.5992 1814.47 40.0332 Q1819.18 36.4671 1824.02 36.4671 Q1829.14 36.4671 1831.77 41.8367 L1836.81 21.9159 L1837.05 20.2763 Q1837.05 19.7845 1836.85 19.5385 Q1836.69 19.2516 1835.7 19.0467 Q1834.76 18.8417 1832.87 18.8417 Q1832.09 18.8417 1831.73 18.8007 Q1831.4 18.7597 1831.11 18.5548 Q1830.82 18.3089 1830.82 17.817 Q1830.82 16.3824 1832.01 16.2184 Q1839.88 15.3166 1842.67 15.3166 Q1843.16 15.3166 1843.45 15.5626 Q1843.74 15.7675 1843.74 16.0135 L1843.78 16.2184 M1830.74 45.6897 Q1830.74 45.3208 1830.45 44.2961 Q1830.17 43.2713 1829.51 41.8367 Q1828.86 40.4021 1827.42 39.3773 Q1826.03 38.3116 1824.14 38.3116 Q1821.6 38.3116 1818.94 40.4841 Q1816.31 42.6565 1814.39 46.3455 Q1812.91 49.2968 1811.31 55.4861 Q1809.76 61.6755 1809.76 64.7497 Q1809.76 66.6352 1810.17 68.3158 Q1810.62 69.9553 1811.89 71.308 Q1813.16 72.6197 1815.12 72.6197 Q1819.92 72.6197 1824.63 66.6762 Q1825.54 65.6515 1825.74 65.2416 Q1825.99 64.7907 1826.31 63.561 L1830.5 47.1243 Q1830.74 45.8946 1830.74 45.6897 Z" fill="#000000" fill-rule="evenodd" fill-opacity="1" /><path clip-path="url(#clip570)" d="M1852.35 78.9638 Q1852.35 70.3274 1854.53 65.6218 Q1857.57 58.6208 1864.75 58.6208 Q1866.27 58.6208 1867.84 59.0512 Q1869.45 59.4529 1871.46 61.031 Q1873.5 62.6091 1874.73 65.1914 Q1877.08 70.1839 1877.08 78.9638 Q1877.08 87.5429 1874.9 92.2198 Q1871.72 99.0486 1864.69 99.0486 Q1862.05 99.0486 1859.35 97.7 Q1856.68 96.3515 1854.99 93.1092 Q1852.35 88.2602 1852.35 78.9638 M1857.23 78.2465 Q1857.23 87.1125 1857.86 90.6417 Q1858.58 94.4578 1860.53 96.1219 Q1862.51 97.7574 1864.69 97.7574 Q1867.04 97.7574 1868.99 96.0072 Q1870.97 94.2282 1871.57 90.4121 Q1872.23 86.6534 1872.21 78.2465 Q1872.21 70.0691 1871.63 66.7982 Q1870.86 62.9821 1868.79 61.4614 Q1866.75 59.912 1864.69 59.912 Q1863.91 59.912 1863.08 60.1415 Q1862.28 60.3711 1861.1 61.031 Q1859.92 61.6909 1859.01 63.3264 Q1858.12 64.9619 1857.69 67.4294 Q1857.23 70.6143 1857.23 78.2465 Z" fill="#000000" fill-rule="evenodd" fill-opacity="1" /><polyline clip-path="url(#clip573)" style="stroke:#009af9; stroke-linecap:butt; stroke-linejoin:round; stroke-width:4; stroke-opacity:1; fill:none" points="
  254.228,128.997 262.622,129.817 271.017,131.317 279.411,133.259 287.805,135.555 296.199,138.155 304.593,141.025 312.987,144.14 321.381,147.479 329.775,151.027 
  338.169,154.769 346.564,158.694 354.958,162.791 363.352,167.051 371.746,171.467 380.14,176.031 388.534,180.735 396.928,185.574 405.322,190.541 413.716,195.633 
  422.111,200.842 430.505,206.166 438.899,211.599 447.293,217.138 455.687,222.776 464.081,228.513 472.475,234.342 480.869,240.262 489.263,246.269 497.658,252.359 
  506.052,258.529 514.446,264.777 522.84,271.1 531.234,277.494 539.628,283.957 548.022,290.486 556.416,297.079 564.81,303.734 573.205,310.448 581.599,317.218 
  589.993,324.042 598.387,330.919 606.781,337.845 615.175,344.819 623.569,351.839 631.963,358.903 640.357,366.008 648.752,373.154 657.146,380.337 665.54,387.556 
  673.934,394.809 682.328,402.095 690.722,409.412 699.116,416.758 707.51,424.131 715.904,431.53 724.299,438.953 732.693,446.398 741.087,453.865 749.481,461.351 
  757.875,468.855 766.269,476.375 774.663,483.911 783.057,491.46 791.451,499.022 799.846,506.595 808.24,514.177 816.634,521.768 825.028,529.365 833.422,536.969 
  841.816,544.577 850.21,552.188 858.604,559.801 866.998,567.415 875.393,575.029 883.787,582.642 892.181,590.252 900.575,597.858 908.969,605.46 917.363,613.056 
  925.757,620.645 934.151,628.227 942.545,635.799 950.939,643.362 959.334,650.914 967.728,658.454 976.122,665.982 984.516,673.496 992.91,680.995 1001.3,688.479 
  1009.7,695.947 1018.09,703.397 1026.49,710.83 1034.88,718.244 1043.27,725.638 1051.67,733.012 1060.06,740.365 1068.46,747.695 1076.85,755.004 1085.25,762.288 
  1093.64,769.549 1102.03,776.784 1110.43,783.994 1118.82,791.178 1127.22,798.335 1135.61,805.464 1144,812.565 1152.4,819.638 1160.79,826.681 1169.19,833.693 
  1177.58,840.676 1185.97,847.627 1194.37,854.546 1202.76,861.433 1211.16,868.287 1219.55,875.107 1227.95,881.894 1236.34,888.646 1244.73,895.363 1253.13,902.045 
  1261.52,908.691 1269.92,915.301 1278.31,921.874 1286.7,928.41 1295.1,934.908 1303.49,941.368 1311.89,947.79 1320.28,954.173 1328.67,960.516 1337.07,966.82 
  1345.46,973.084 1353.86,979.308 1362.25,985.491 1370.65,991.633 1379.04,997.734 1387.43,1003.79 1395.83,1009.81 1404.22,1015.79 1412.62,1021.72 1421.01,1027.61 
  1429.4,1033.45 1437.8,1039.26 1446.19,1045.02 1454.59,1050.73 1462.98,1056.4 1471.37,1062.03 1479.77,1067.62 1488.16,1073.15 1496.56,1078.65 1504.95,1084.1 
  1513.34,1089.5 1521.74,1094.86 1530.13,1100.17 1538.53,1105.44 1546.92,1110.66 1555.32,1115.83 1563.71,1120.96 1572.1,1126.04 1580.5,1131.08 1588.89,1136.07 
  1597.29,1141.01 1605.68,1145.91 1614.07,1150.76 1622.47,1155.56 1630.86,1160.31 1639.26,1165.02 1647.65,1169.68 1656.04,1174.3 1664.44,1178.86 1672.83,1183.38 
  1681.23,1187.86 1689.62,1192.28 1698.02,1196.66 1706.41,1200.99 1714.8,1205.27 1723.2,1209.51 1731.59,1213.7 1739.99,1217.84 1748.38,1221.93 1756.77,1225.98 
  1765.17,1229.97 1773.56,1233.92 1781.96,1237.83 1790.35,1241.69 1798.74,1245.49 1807.14,1249.26 1815.53,1252.97 1823.93,1256.64 1832.32,1260.26 1840.72,1263.83 
  1849.11,1267.36 1857.5,1270.84 1865.9,1274.27 1874.29,1277.66 1882.69,1281 1891.08,1284.29 1899.47,1287.54 1907.87,1290.74 1916.26,1293.9 1924.66,1297.01 
  1933.05,1300.07 1941.44,1303.08 1949.84,1306.06 1958.23,1308.98 1966.63,1311.86 1975.02,1314.69 1983.42,1317.48 1991.81,1320.23 2000.2,1322.93 2008.6,1325.58 
  2016.99,1328.19 2025.39,1330.75 2033.78,1333.27 2042.17,1335.75 2050.57,1338.18 2058.96,1340.57 2067.36,1342.91 2075.75,1345.21 2084.14,1347.47 2092.54,1349.68 
  2100.93,1351.85 2109.33,1353.98 2117.72,1356.06 2126.11,1358.1 2134.51,1360.1 2142.9,1362.06 2151.3,1363.97 2159.69,1365.85 2168.09,1367.68 2176.48,1369.46 
  2184.87,1371.21 2193.27,1372.92 2201.66,1374.58 2210.06,1376.21 2218.45,1377.79 2226.84,1379.33 2235.24,1380.84 2243.63,1382.3 2252.03,1383.72 2260.42,1385.1 
  2268.81,1386.45 2277.21,1387.75 2285.6,1389.01 2294,1390.24 2302.39,1391.43 2310.79,1392.57 2319.18,1393.68 2327.57,1394.76 2335.97,1395.79 2344.36,1396.78 
  2352.76,1397.74 
  "/>
<polyline clip-path="url(#clip573)" style="stroke:#e26f46; stroke-linecap:butt; stroke-linejoin:round; stroke-width:4; stroke-opacity:1; fill:none" points="
  254.228,202.003 262.622,202.103 271.017,202.403 279.411,202.903 287.805,203.603 296.199,204.501 304.593,205.598 312.987,206.892 321.381,208.383 329.775,210.069 
  338.169,211.949 346.564,214.022 354.958,216.287 363.352,218.741 371.746,221.383 380.14,224.21 388.534,227.222 396.928,230.415 405.322,233.788 413.716,237.338 
  422.111,241.062 430.505,244.959 438.899,249.024 447.293,253.256 455.687,257.651 464.081,262.206 472.475,266.919 480.869,271.786 489.263,276.804 497.658,281.97 
  506.052,287.279 514.446,292.729 522.84,298.317 531.234,304.038 539.628,309.889 548.022,315.866 556.416,321.965 564.81,328.184 573.205,334.517 581.599,340.962 
  589.993,347.514 598.387,354.17 606.781,360.925 615.175,367.776 623.569,374.719 631.963,381.75 640.357,388.866 648.752,396.061 657.146,403.334 665.54,410.678 
  673.934,418.092 682.328,425.571 690.722,433.111 699.116,440.709 707.51,448.361 715.904,456.063 724.299,463.811 732.693,471.603 741.087,479.434 749.481,487.301 
  757.875,495.201 766.269,503.13 774.663,511.084 783.057,519.062 791.451,527.059 799.846,535.072 808.24,543.098 816.634,551.134 825.028,559.177 833.422,567.225 
  841.816,575.274 850.21,583.321 858.604,591.365 866.998,599.402 875.393,607.429 883.787,615.444 892.181,623.446 900.575,631.43 908.969,639.396 917.363,647.34 
  925.757,655.261 934.151,663.157 942.545,671.025 950.939,678.864 959.334,686.671 967.728,694.446 976.122,702.185 984.516,709.888 992.91,717.553 1001.3,725.178 
  1009.7,732.762 1018.09,740.303 1026.49,747.801 1034.88,755.253 1043.27,762.658 1051.67,770.016 1060.06,777.325 1068.46,784.584 1076.85,791.792 1085.25,798.948 
  1093.64,806.052 1102.03,813.102 1110.43,820.097 1118.82,827.038 1127.22,833.922 1135.61,840.751 1144,847.522 1152.4,854.235 1160.79,860.891 1169.19,867.487 
  1177.58,874.025 1185.97,880.504 1194.37,886.923 1202.76,893.281 1211.16,899.58 1219.55,905.818 1227.95,911.996 1236.34,918.112 1244.73,924.168 1253.13,930.163 
  1261.52,936.097 1269.92,941.969 1278.31,947.781 1286.7,953.532 1295.1,959.221 1303.49,964.85 1311.89,970.418 1320.28,975.925 1328.67,981.371 1337.07,986.758 
  1345.46,992.084 1353.86,997.35 1362.25,1002.56 1370.65,1007.7 1379.04,1012.79 1387.43,1017.82 1395.83,1022.79 1404.22,1027.7 1412.62,1032.56 1421.01,1037.36 
  1429.4,1042.1 1437.8,1046.78 1446.19,1051.41 1454.59,1055.98 1462.98,1060.49 1471.37,1064.95 1479.77,1069.36 1488.16,1073.71 1496.56,1078 1504.95,1082.25 
  1513.34,1086.44 1521.74,1090.57 1530.13,1094.66 1538.53,1098.69 1546.92,1102.67 1555.32,1106.61 1563.71,1110.49 1572.1,1114.32 1580.5,1118.1 1588.89,1121.84 
  1597.29,1125.52 1605.68,1129.16 1614.07,1132.75 1622.47,1136.29 1630.86,1139.79 1639.26,1143.24 1647.65,1146.65 1656.04,1150.01 1664.44,1153.33 1672.83,1156.6 
  1681.23,1159.83 1689.62,1163.02 1698.02,1166.16 1706.41,1169.26 1714.8,1172.33 1723.2,1175.35 1731.59,1178.33 1739.99,1181.27 1748.38,1184.17 1756.77,1187.03 
  1765.17,1189.85 1773.56,1192.64 1781.96,1195.39 1790.35,1198.1 1798.74,1200.77 1807.14,1203.41 1815.53,1206.01 1823.93,1208.58 1832.32,1211.11 1840.72,1213.61 
  1849.11,1216.08 1857.5,1218.51 1865.9,1220.91 1874.29,1223.27 1882.69,1225.61 1891.08,1227.91 1899.47,1230.18 1907.87,1232.42 1916.26,1234.63 1924.66,1236.81 
  1933.05,1238.95 1941.44,1241.07 1949.84,1243.17 1958.23,1245.23 1966.63,1247.26 1975.02,1249.27 1983.42,1251.25 1991.81,1253.2 2000.2,1255.13 2008.6,1257.03 
  2016.99,1258.9 2025.39,1260.75 2033.78,1262.57 2042.17,1264.37 2050.57,1266.15 2058.96,1267.9 2067.36,1269.62 2075.75,1271.32 2084.14,1273 2092.54,1274.66 
  2100.93,1276.3 2109.33,1277.91 2117.72,1279.5 2126.11,1281.07 2134.51,1282.61 2142.9,1284.14 2151.3,1285.65 2159.69,1287.13 2168.09,1288.6 2176.48,1290.04 
  2184.87,1291.47 2193.27,1292.88 2201.66,1294.27 2210.06,1295.63 2218.45,1296.99 2226.84,1298.32 2235.24,1299.63 2243.63,1300.93 2252.03,1302.21 2260.42,1303.47 
  2268.81,1304.72 2277.21,1305.95 2285.6,1307.16 2294,1308.36 2302.39,1309.54 2310.79,1310.7 2319.18,1311.85 2327.57,1312.99 2335.97,1314.11 2344.36,1315.21 
  2352.76,1316.3 
  "/>
<polyline clip-path="url(#clip573)" style="stroke:#3da44d; stroke-linecap:butt; stroke-linejoin:round; stroke-width:4; stroke-opacity:1; fill:none" points="
  254.228,134.082 262.622,134.17 271.017,134.436 279.411,134.878 287.805,135.496 296.199,136.291 304.593,137.262 312.987,138.409 321.381,139.73 329.775,141.226 
  338.169,142.896 346.564,144.739 354.958,146.755 363.352,148.942 371.746,151.3 380.14,153.828 388.534,156.525 396.928,159.389 405.322,162.419 413.716,165.615 
  422.111,168.975 430.505,172.497 438.899,176.18 447.293,180.023 455.687,184.024 464.081,188.181 472.475,192.493 480.869,196.958 489.263,201.574 497.658,206.339 
  506.052,211.252 514.446,216.31 522.84,221.512 531.234,226.855 539.628,232.338 548.022,237.957 556.416,243.711 564.81,249.598 573.205,255.616 581.599,261.761 
  589.993,268.032 598.387,274.426 606.781,280.941 615.175,287.574 623.569,294.323 631.963,301.185 640.357,308.158 648.752,315.238 657.146,322.424 665.54,329.713 
  673.934,337.101 682.328,344.587 690.722,352.167 699.116,359.839 707.51,367.599 715.904,375.446 724.299,383.376 732.693,391.386 741.087,399.475 749.481,407.637 
  757.875,415.872 766.269,424.176 774.663,432.546 783.057,440.979 791.451,449.473 799.846,458.024 808.24,466.63 816.634,475.288 825.028,483.995 833.422,492.747 
  841.816,501.543 850.21,510.38 858.604,519.254 866.998,528.163 875.393,537.103 883.787,546.073 892.181,555.069 900.575,564.089 908.969,573.13 917.363,582.189 
  925.757,591.263 934.151,600.35 942.545,609.447 950.939,618.552 959.334,627.662 967.728,636.774 976.122,645.886 984.516,654.996 992.91,664.1 1001.3,673.196 
  1009.7,682.283 1018.09,691.357 1026.49,700.416 1034.88,709.459 1043.27,718.482 1051.67,727.483 1060.06,736.461 1068.46,745.413 1076.85,754.336 1085.25,763.23 
  1093.64,772.091 1102.03,780.919 1110.43,789.71 1118.82,798.463 1127.22,807.176 1135.61,815.848 1144,824.476 1152.4,833.058 1160.79,841.594 1169.19,850.081 
  1177.58,858.518 1185.97,866.903 1194.37,875.235 1202.76,883.512 1211.16,891.732 1219.55,899.896 1227.95,908 1236.34,916.044 1244.73,924.026 1253.13,931.946 
  1261.52,939.802 1269.92,947.593 1278.31,955.318 1286.7,962.976 1295.1,970.566 1303.49,978.087 1311.89,985.538 1320.28,992.919 1328.67,1000.23 1337.07,1007.46 
  1345.46,1014.63 1353.86,1021.72 1362.25,1028.73 1370.65,1035.68 1379.04,1042.54 1387.43,1049.33 1395.83,1056.04 1404.22,1062.68 1412.62,1069.24 1421.01,1075.72 
  1429.4,1082.13 1437.8,1088.45 1446.19,1094.7 1454.59,1100.87 1462.98,1106.96 1471.37,1112.97 1479.77,1118.91 1488.16,1124.76 1496.56,1130.54 1504.95,1136.23 
  1513.34,1141.85 1521.74,1147.39 1530.13,1152.85 1538.53,1158.23 1546.92,1163.53 1555.32,1168.76 1563.71,1173.91 1572.1,1178.98 1580.5,1183.97 1588.89,1188.88 
  1597.29,1193.72 1605.68,1198.48 1614.07,1203.17 1622.47,1207.78 1630.86,1212.31 1639.26,1216.77 1647.65,1221.15 1656.04,1225.47 1664.44,1229.7 1672.83,1233.87 
  1681.23,1237.96 1689.62,1241.98 1698.02,1245.93 1706.41,1249.81 1714.8,1253.62 1723.2,1257.36 1731.59,1261.03 1739.99,1264.64 1748.38,1268.17 1756.77,1271.64 
  1765.17,1275.04 1773.56,1278.38 1781.96,1281.65 1790.35,1284.86 1798.74,1288.01 1807.14,1291.09 1815.53,1294.11 1823.93,1297.07 1832.32,1299.97 1840.72,1302.81 
  1849.11,1305.6 1857.5,1308.32 1865.9,1310.99 1874.29,1313.6 1882.69,1316.15 1891.08,1318.65 1899.47,1321.09 1907.87,1323.49 1916.26,1325.83 1924.66,1328.11 
  1933.05,1330.35 1941.44,1332.54 1949.84,1334.67 1958.23,1336.76 1966.63,1338.8 1975.02,1340.79 1983.42,1342.74 1991.81,1344.64 2000.2,1346.5 2008.6,1348.31 
  2016.99,1350.08 2025.39,1351.8 2033.78,1353.49 2042.17,1355.13 2050.57,1356.74 2058.96,1358.3 2067.36,1359.82 2075.75,1361.31 2084.14,1362.76 2092.54,1364.17 
  2100.93,1365.55 2109.33,1366.89 2117.72,1368.2 2126.11,1369.47 2134.51,1370.71 2142.9,1371.92 2151.3,1373.09 2159.69,1374.23 2168.09,1375.35 2176.48,1376.43 
  2184.87,1377.49 2193.27,1378.51 2201.66,1379.51 2210.06,1380.48 2218.45,1381.42 2226.84,1382.34 2235.24,1383.23 2243.63,1384.1 2252.03,1384.94 2260.42,1385.76 
  2268.81,1386.55 2277.21,1387.33 2285.6,1388.08 2294,1388.8 2302.39,1389.51 2310.79,1390.2 2319.18,1390.86 2327.57,1391.51 2335.97,1392.14 2344.36,1392.75 
  2352.76,1393.34 
  "/>
<path clip-path="url(#clip570)" d="
M1541.03 373.72 L2282.8 373.72 L2282.8 166.36 L1541.03 166.36  Z
  " fill="#ffffff" fill-rule="evenodd" fill-opacity="1"/>
<polyline clip-path="url(#clip570)" style="stroke:#000000; stroke-linecap:butt; stroke-linejoin:round; stroke-width:4; stroke-opacity:1; fill:none" points="
  1541.03,373.72 2282.8,373.72 2282.8,166.36 1541.03,166.36 1541.03,373.72 
  "/>
<polyline clip-path="url(#clip570)" style="stroke:#009af9; stroke-linecap:butt; stroke-linejoin:round; stroke-width:4; stroke-opacity:1; fill:none" points="
  1564.34,218.2 1704.25,218.2 
  "/>
<path clip-path="url(#clip570)" d="M1732.24 204.762 L1732.24 217.748 L1738.12 217.748 Q1741.38 217.748 1743.16 216.059 Q1744.95 214.369 1744.95 211.244 Q1744.95 208.142 1743.16 206.452 Q1741.38 204.762 1738.12 204.762 L1732.24 204.762 M1727.56 200.92 L1738.12 200.92 Q1743.93 200.92 1746.89 203.559 Q1749.88 206.174 1749.88 211.244 Q1749.88 216.359 1746.89 218.975 Q1743.93 221.591 1738.12 221.591 L1732.24 221.591 L1732.24 235.48 L1727.56 235.48 L1727.56 200.92 Z" fill="#000000" fill-rule="evenodd" fill-opacity="1" /><path clip-path="url(#clip570)" d="M1770.16 213.535 Q1769.44 213.119 1768.58 212.934 Q1767.75 212.725 1766.73 212.725 Q1763.12 212.725 1761.17 215.086 Q1759.25 217.424 1759.25 221.822 L1759.25 235.48 L1754.97 235.48 L1754.97 209.554 L1759.25 209.554 L1759.25 213.582 Q1760.59 211.221 1762.75 210.086 Q1764.9 208.929 1767.98 208.929 Q1768.42 208.929 1768.95 208.998 Q1769.48 209.045 1770.13 209.16 L1770.16 213.535 Z" fill="#000000" fill-rule="evenodd" fill-opacity="1" /><path clip-path="url(#clip570)" d="M1786.4 222.447 Q1781.24 222.447 1779.25 223.628 Q1777.26 224.809 1777.26 227.656 Q1777.26 229.924 1778.74 231.267 Q1780.25 232.586 1782.82 232.586 Q1786.36 232.586 1788.49 230.086 Q1790.64 227.563 1790.64 223.396 L1790.64 222.447 L1786.4 222.447 M1794.9 220.688 L1794.9 235.48 L1790.64 235.48 L1790.64 231.545 Q1789.18 233.906 1787.01 235.04 Q1784.83 236.151 1781.68 236.151 Q1777.7 236.151 1775.34 233.929 Q1773 231.683 1773 227.933 Q1773 223.559 1775.92 221.336 Q1778.86 219.114 1784.67 219.114 L1790.64 219.114 L1790.64 218.697 Q1790.64 215.758 1788.7 214.16 Q1786.78 212.54 1783.28 212.54 Q1781.06 212.54 1778.95 213.072 Q1776.84 213.605 1774.9 214.67 L1774.9 210.735 Q1777.24 209.832 1779.44 209.392 Q1781.64 208.929 1783.72 208.929 Q1789.34 208.929 1792.12 211.846 Q1794.9 214.762 1794.9 220.688 Z" fill="#000000" fill-rule="evenodd" fill-opacity="1" /><path clip-path="url(#clip570)" d="M1825.22 219.832 L1825.22 235.48 L1820.96 235.48 L1820.96 219.971 Q1820.96 216.29 1819.53 214.461 Q1818.09 212.633 1815.22 212.633 Q1811.78 212.633 1809.78 214.832 Q1807.79 217.031 1807.79 220.827 L1807.79 235.48 L1803.51 235.48 L1803.51 209.554 L1807.79 209.554 L1807.79 213.582 Q1809.32 211.244 1811.38 210.086 Q1813.46 208.929 1816.17 208.929 Q1820.64 208.929 1822.93 211.707 Q1825.22 214.461 1825.22 219.832 Z" fill="#000000" fill-rule="evenodd" fill-opacity="1" /><path clip-path="url(#clip570)" d="M1850.78 213.489 L1850.78 199.461 L1855.04 199.461 L1855.04 235.48 L1850.78 235.48 L1850.78 231.591 Q1849.44 233.906 1847.38 235.04 Q1845.34 236.151 1842.47 236.151 Q1837.77 236.151 1834.81 232.401 Q1831.87 228.651 1831.87 222.54 Q1831.87 216.429 1834.81 212.679 Q1837.77 208.929 1842.47 208.929 Q1845.34 208.929 1847.38 210.063 Q1849.44 211.174 1850.78 213.489 M1836.27 222.54 Q1836.27 227.239 1838.19 229.924 Q1840.13 232.586 1843.51 232.586 Q1846.89 232.586 1848.84 229.924 Q1850.78 227.239 1850.78 222.54 Q1850.78 217.841 1848.84 215.179 Q1846.89 212.494 1843.51 212.494 Q1840.13 212.494 1838.19 215.179 Q1836.27 217.841 1836.27 222.54 Z" fill="#000000" fill-rule="evenodd" fill-opacity="1" /><path clip-path="url(#clip570)" d="M1868.02 202.193 L1868.02 209.554 L1876.8 209.554 L1876.8 212.864 L1868.02 212.864 L1868.02 226.938 Q1868.02 230.109 1868.88 231.012 Q1869.76 231.915 1872.42 231.915 L1876.8 231.915 L1876.8 235.48 L1872.42 235.48 Q1867.49 235.48 1865.62 233.651 Q1863.74 231.799 1863.74 226.938 L1863.74 212.864 L1860.62 212.864 L1860.62 209.554 L1863.74 209.554 L1863.74 202.193 L1868.02 202.193 Z" fill="#000000" fill-rule="evenodd" fill-opacity="1" /><path clip-path="url(#clip570)" d="M1882.4 199.461 L1886.66 199.461 L1886.66 235.48 L1882.4 235.48 L1882.4 199.461 Z" fill="#000000" fill-rule="evenodd" fill-opacity="1" /><path clip-path="url(#clip570)" d="M1910.83 200.92 L1917.79 200.92 L1926.61 224.438 L1935.48 200.92 L1942.45 200.92 L1942.45 235.48 L1937.89 235.48 L1937.89 205.133 L1928.97 228.836 L1924.27 228.836 L1915.36 205.133 L1915.36 235.48 L1910.83 235.48 L1910.83 200.92 Z" fill="#000000" fill-rule="evenodd" fill-opacity="1" /><path clip-path="url(#clip570)" d="M1951.54 209.554 L1955.8 209.554 L1955.8 235.48 L1951.54 235.48 L1951.54 209.554 M1951.54 199.461 L1955.8 199.461 L1955.8 204.855 L1951.54 204.855 L1951.54 199.461 Z" fill="#000000" fill-rule="evenodd" fill-opacity="1" /><path clip-path="url(#clip570)" d="M1986.26 209.554 L1976.89 222.17 L1986.75 235.48 L1981.73 235.48 L1974.18 225.295 L1966.64 235.48 L1961.61 235.48 L1971.68 221.915 L1962.47 209.554 L1967.49 209.554 L1974.37 218.79 L1981.24 209.554 L1986.26 209.554 Z" fill="#000000" fill-rule="evenodd" fill-opacity="1" /><path clip-path="url(#clip570)" d="M1992.77 209.554 L1997.03 209.554 L1997.03 235.48 L1992.77 235.48 L1992.77 209.554 M1992.77 199.461 L1997.03 199.461 L1997.03 204.855 L1992.77 204.855 L1992.77 199.461 Z" fill="#000000" fill-rule="evenodd" fill-opacity="1" /><path clip-path="url(#clip570)" d="M2027.49 219.832 L2027.49 235.48 L2023.23 235.48 L2023.23 219.971 Q2023.23 216.29 2021.8 214.461 Q2020.36 212.633 2017.49 212.633 Q2014.04 212.633 2012.05 214.832 Q2010.06 217.031 2010.06 220.827 L2010.06 235.48 L2005.78 235.48 L2005.78 209.554 L2010.06 209.554 L2010.06 213.582 Q2011.59 211.244 2013.65 210.086 Q2015.73 208.929 2018.44 208.929 Q2022.91 208.929 2025.2 211.707 Q2027.49 214.461 2027.49 219.832 Z" fill="#000000" fill-rule="evenodd" fill-opacity="1" /><path clip-path="url(#clip570)" d="M2053.05 222.216 Q2053.05 217.586 2051.13 215.04 Q2049.23 212.494 2045.78 212.494 Q2042.35 212.494 2040.43 215.04 Q2038.53 217.586 2038.53 222.216 Q2038.53 226.822 2040.43 229.369 Q2042.35 231.915 2045.78 231.915 Q2049.23 231.915 2051.13 229.369 Q2053.05 226.822 2053.05 222.216 M2057.31 232.262 Q2057.31 238.883 2054.37 242.1 Q2051.43 245.341 2045.36 245.341 Q2043.12 245.341 2041.13 244.994 Q2039.14 244.67 2037.26 243.975 L2037.26 239.832 Q2039.14 240.85 2040.96 241.336 Q2042.79 241.822 2044.69 241.822 Q2048.88 241.822 2050.96 239.623 Q2053.05 237.447 2053.05 233.026 L2053.05 230.92 Q2051.73 233.211 2049.67 234.345 Q2047.61 235.48 2044.74 235.48 Q2039.97 235.48 2037.05 231.846 Q2034.14 228.211 2034.14 222.216 Q2034.14 216.197 2037.05 212.563 Q2039.97 208.929 2044.74 208.929 Q2047.61 208.929 2049.67 210.063 Q2051.73 211.197 2053.05 213.489 L2053.05 209.554 L2057.31 209.554 L2057.31 232.262 Z" fill="#000000" fill-rule="evenodd" fill-opacity="1" /><path clip-path="url(#clip570)" d="M2081.33 200.92 L2086.01 200.92 L2086.01 231.545 L2102.84 231.545 L2102.84 235.48 L2081.33 235.48 L2081.33 200.92 Z" fill="#000000" fill-rule="evenodd" fill-opacity="1" /><path clip-path="url(#clip570)" d="M2128.9 221.452 L2128.9 223.535 L2109.32 223.535 Q2109.6 227.933 2111.96 230.248 Q2114.34 232.54 2118.58 232.54 Q2121.03 232.54 2123.32 231.938 Q2125.64 231.336 2127.91 230.133 L2127.91 234.16 Q2125.62 235.133 2123.21 235.642 Q2120.8 236.151 2118.32 236.151 Q2112.12 236.151 2108.49 232.54 Q2104.88 228.929 2104.88 222.771 Q2104.88 216.406 2108.3 212.679 Q2111.75 208.929 2117.58 208.929 Q2122.82 208.929 2125.85 212.309 Q2128.9 215.665 2128.9 221.452 M2124.64 220.202 Q2124.6 216.707 2122.68 214.623 Q2120.78 212.54 2117.63 212.54 Q2114.07 212.54 2111.91 214.554 Q2109.78 216.568 2109.46 220.225 L2124.64 220.202 Z" fill="#000000" fill-rule="evenodd" fill-opacity="1" /><path clip-path="url(#clip570)" d="M2157.44 219.832 L2157.44 235.48 L2153.19 235.48 L2153.19 219.971 Q2153.19 216.29 2151.75 214.461 Q2150.32 212.633 2147.44 212.633 Q2144 212.633 2142 214.832 Q2140.01 217.031 2140.01 220.827 L2140.01 235.48 L2135.73 235.48 L2135.73 209.554 L2140.01 209.554 L2140.01 213.582 Q2141.54 211.244 2143.6 210.086 Q2145.69 208.929 2148.39 208.929 Q2152.86 208.929 2155.15 211.707 Q2157.44 214.461 2157.44 219.832 Z" fill="#000000" fill-rule="evenodd" fill-opacity="1" /><path clip-path="url(#clip570)" d="M2183 222.216 Q2183 217.586 2181.08 215.04 Q2179.18 212.494 2175.73 212.494 Q2172.31 212.494 2170.38 215.04 Q2168.49 217.586 2168.49 222.216 Q2168.49 226.822 2170.38 229.369 Q2172.31 231.915 2175.73 231.915 Q2179.18 231.915 2181.08 229.369 Q2183 226.822 2183 222.216 M2187.26 232.262 Q2187.26 238.883 2184.32 242.1 Q2181.38 245.341 2175.31 245.341 Q2173.07 245.341 2171.08 244.994 Q2169.09 244.67 2167.21 243.975 L2167.21 239.832 Q2169.09 240.85 2170.92 241.336 Q2172.75 241.822 2174.64 241.822 Q2178.83 241.822 2180.92 239.623 Q2183 237.447 2183 233.026 L2183 230.92 Q2181.68 233.211 2179.62 234.345 Q2177.56 235.48 2174.69 235.48 Q2169.92 235.48 2167 231.846 Q2164.09 228.211 2164.09 222.216 Q2164.09 216.197 2167 212.563 Q2169.92 208.929 2174.69 208.929 Q2177.56 208.929 2179.62 210.063 Q2181.68 211.197 2183 213.489 L2183 209.554 L2187.26 209.554 L2187.26 232.262 Z" fill="#000000" fill-rule="evenodd" fill-opacity="1" /><path clip-path="url(#clip570)" d="M2200.25 202.193 L2200.25 209.554 L2209.02 209.554 L2209.02 212.864 L2200.25 212.864 L2200.25 226.938 Q2200.25 230.109 2201.1 231.012 Q2201.98 231.915 2204.64 231.915 L2209.02 231.915 L2209.02 235.48 L2204.64 235.48 Q2199.71 235.48 2197.84 233.651 Q2195.96 231.799 2195.96 226.938 L2195.96 212.864 L2192.84 212.864 L2192.84 209.554 L2195.96 209.554 L2195.96 202.193 L2200.25 202.193 Z" fill="#000000" fill-rule="evenodd" fill-opacity="1" /><path clip-path="url(#clip570)" d="M2236.17 219.832 L2236.17 235.48 L2231.91 235.48 L2231.91 219.971 Q2231.91 216.29 2230.48 214.461 Q2229.04 212.633 2226.17 212.633 Q2222.72 212.633 2220.73 214.832 Q2218.74 217.031 2218.74 220.827 L2218.74 235.48 L2214.46 235.48 L2214.46 199.461 L2218.74 199.461 L2218.74 213.582 Q2220.27 211.244 2222.33 210.086 Q2224.41 208.929 2227.12 208.929 Q2231.59 208.929 2233.88 211.707 Q2236.17 214.461 2236.17 219.832 Z" fill="#000000" fill-rule="evenodd" fill-opacity="1" /><polyline clip-path="url(#clip570)" style="stroke:#e26f46; stroke-linecap:butt; stroke-linejoin:round; stroke-width:4; stroke-opacity:1; fill:none" points="
  1564.34,270.04 1704.25,270.04 
  "/>
<path clip-path="url(#clip570)" d="M1727.56 252.76 L1749.41 252.76 L1749.41 256.695 L1732.24 256.695 L1732.24 266.926 L1748.7 266.926 L1748.7 270.861 L1732.24 270.861 L1732.24 283.385 L1749.83 283.385 L1749.83 287.32 L1727.56 287.32 L1727.56 252.76 Z" fill="#000000" fill-rule="evenodd" fill-opacity="1" /><path clip-path="url(#clip570)" d="M1774.39 265.329 L1774.39 251.301 L1778.65 251.301 L1778.65 287.32 L1774.39 287.32 L1774.39 283.431 Q1773.05 285.746 1770.99 286.88 Q1768.95 287.991 1766.08 287.991 Q1761.38 287.991 1758.42 284.241 Q1755.48 280.491 1755.48 274.38 Q1755.48 268.269 1758.42 264.519 Q1761.38 260.769 1766.08 260.769 Q1768.95 260.769 1770.99 261.903 Q1773.05 263.014 1774.39 265.329 M1759.88 274.38 Q1759.88 279.079 1761.8 281.764 Q1763.74 284.426 1767.12 284.426 Q1770.5 284.426 1772.45 281.764 Q1774.39 279.079 1774.39 274.38 Q1774.39 269.681 1772.45 267.019 Q1770.5 264.334 1767.12 264.334 Q1763.74 264.334 1761.8 267.019 Q1759.88 269.681 1759.88 274.38 Z" fill="#000000" fill-rule="evenodd" fill-opacity="1" /><path clip-path="url(#clip570)" d="M1804.48 265.329 L1804.48 251.301 L1808.74 251.301 L1808.74 287.32 L1804.48 287.32 L1804.48 283.431 Q1803.14 285.746 1801.08 286.88 Q1799.04 287.991 1796.17 287.991 Q1791.47 287.991 1788.51 284.241 Q1785.57 280.491 1785.57 274.38 Q1785.57 268.269 1788.51 264.519 Q1791.47 260.769 1796.17 260.769 Q1799.04 260.769 1801.08 261.903 Q1803.14 263.014 1804.48 265.329 M1789.97 274.38 Q1789.97 279.079 1791.89 281.764 Q1793.84 284.426 1797.22 284.426 Q1800.59 284.426 1802.54 281.764 Q1804.48 279.079 1804.48 274.38 Q1804.48 269.681 1802.54 267.019 Q1800.59 264.334 1797.22 264.334 Q1793.84 264.334 1791.89 267.019 Q1789.97 269.681 1789.97 274.38 Z" fill="#000000" fill-rule="evenodd" fill-opacity="1" /><path clip-path="url(#clip570)" d="M1828.3 289.727 Q1826.5 294.357 1824.78 295.769 Q1823.07 297.181 1820.2 297.181 L1816.8 297.181 L1816.8 293.616 L1819.3 293.616 Q1821.06 293.616 1822.03 292.783 Q1823 291.949 1824.18 288.848 L1824.95 286.903 L1814.46 261.394 L1818.97 261.394 L1827.08 281.672 L1835.18 261.394 L1839.69 261.394 L1828.3 289.727 Z" fill="#000000" fill-rule="evenodd" fill-opacity="1" /><path clip-path="url(#clip570)" d="M1869.74 287.32 L1856.54 252.76 L1861.43 252.76 L1872.38 281.857 L1883.35 252.76 L1888.21 252.76 L1875.04 287.32 L1869.74 287.32 Z" fill="#000000" fill-rule="evenodd" fill-opacity="1" /><path clip-path="url(#clip570)" d="M1892.03 261.394 L1896.29 261.394 L1896.29 287.32 L1892.03 287.32 L1892.03 261.394 M1892.03 251.301 L1896.29 251.301 L1896.29 256.695 L1892.03 256.695 L1892.03 251.301 Z" fill="#000000" fill-rule="evenodd" fill-opacity="1" /><path clip-path="url(#clip570)" d="M1921.73 262.158 L1921.73 266.186 Q1919.92 265.26 1917.98 264.797 Q1916.03 264.334 1913.95 264.334 Q1910.78 264.334 1909.18 265.306 Q1907.61 266.278 1907.61 268.223 Q1907.61 269.704 1908.74 270.561 Q1909.88 271.394 1913.3 272.158 L1914.76 272.482 Q1919.3 273.454 1921.2 275.236 Q1923.12 276.996 1923.12 280.167 Q1923.12 283.778 1920.25 285.885 Q1917.4 287.991 1912.4 287.991 Q1910.32 287.991 1908.05 287.574 Q1905.8 287.181 1903.3 286.371 L1903.3 281.973 Q1905.66 283.199 1907.96 283.824 Q1910.25 284.426 1912.49 284.426 Q1915.5 284.426 1917.12 283.408 Q1918.74 282.366 1918.74 280.491 Q1918.74 278.755 1917.56 277.829 Q1916.4 276.903 1912.45 276.047 L1910.96 275.699 Q1907.01 274.866 1905.25 273.153 Q1903.49 271.417 1903.49 268.408 Q1903.49 264.75 1906.08 262.76 Q1908.67 260.769 1913.44 260.769 Q1915.8 260.769 1917.89 261.116 Q1919.97 261.463 1921.73 262.158 Z" fill="#000000" fill-rule="evenodd" fill-opacity="1" /><path clip-path="url(#clip570)" d="M1948.56 262.389 L1948.56 266.371 Q1946.75 265.375 1944.92 264.889 Q1943.12 264.38 1941.27 264.38 Q1937.12 264.38 1934.83 267.019 Q1932.54 269.635 1932.54 274.38 Q1932.54 279.125 1934.83 281.764 Q1937.12 284.38 1941.27 284.38 Q1943.12 284.38 1944.92 283.894 Q1946.75 283.385 1948.56 282.389 L1948.56 286.324 Q1946.77 287.158 1944.85 287.574 Q1942.96 287.991 1940.8 287.991 Q1934.95 287.991 1931.5 284.311 Q1928.05 280.63 1928.05 274.38 Q1928.05 268.037 1931.52 264.403 Q1935.02 260.769 1941.08 260.769 Q1943.05 260.769 1944.92 261.186 Q1946.8 261.579 1948.56 262.389 Z" fill="#000000" fill-rule="evenodd" fill-opacity="1" /><path clip-path="url(#clip570)" d="M1966.01 264.38 Q1962.58 264.38 1960.59 267.065 Q1958.6 269.727 1958.6 274.38 Q1958.6 279.033 1960.57 281.718 Q1962.56 284.38 1966.01 284.38 Q1969.41 284.38 1971.4 281.695 Q1973.39 279.01 1973.39 274.38 Q1973.39 269.774 1971.4 267.088 Q1969.41 264.38 1966.01 264.38 M1966.01 260.769 Q1971.57 260.769 1974.74 264.38 Q1977.91 267.991 1977.91 274.38 Q1977.91 280.746 1974.74 284.38 Q1971.57 287.991 1966.01 287.991 Q1960.43 287.991 1957.26 284.38 Q1954.11 280.746 1954.11 274.38 Q1954.11 267.991 1957.26 264.38 Q1960.43 260.769 1966.01 260.769 Z" fill="#000000" fill-rule="evenodd" fill-opacity="1" /><path clip-path="url(#clip570)" d="M2001.5 262.158 L2001.5 266.186 Q1999.69 265.26 1997.75 264.797 Q1995.8 264.334 1993.72 264.334 Q1990.55 264.334 1988.95 265.306 Q1987.38 266.278 1987.38 268.223 Q1987.38 269.704 1988.51 270.561 Q1989.64 271.394 1993.07 272.158 L1994.53 272.482 Q1999.07 273.454 2000.96 275.236 Q2002.89 276.996 2002.89 280.167 Q2002.89 283.778 2000.01 285.885 Q1997.17 287.991 1992.17 287.991 Q1990.08 287.991 1987.82 287.574 Q1985.57 287.181 1983.07 286.371 L1983.07 281.973 Q1985.43 283.199 1987.72 283.824 Q1990.01 284.426 1992.26 284.426 Q1995.27 284.426 1996.89 283.408 Q1998.51 282.366 1998.51 280.491 Q1998.51 278.755 1997.33 277.829 Q1996.17 276.903 1992.21 276.047 L1990.73 275.699 Q1986.77 274.866 1985.01 273.153 Q1983.26 271.417 1983.26 268.408 Q1983.26 264.75 1985.85 262.76 Q1988.44 260.769 1993.21 260.769 Q1995.57 260.769 1997.65 261.116 Q1999.74 261.463 2001.5 262.158 Z" fill="#000000" fill-rule="evenodd" fill-opacity="1" /><path clip-path="url(#clip570)" d="M2009.67 261.394 L2013.93 261.394 L2013.93 287.32 L2009.67 287.32 L2009.67 261.394 M2009.67 251.301 L2013.93 251.301 L2013.93 256.695 L2009.67 256.695 L2009.67 251.301 Z" fill="#000000" fill-rule="evenodd" fill-opacity="1" /><path clip-path="url(#clip570)" d="M2027.05 254.033 L2027.05 261.394 L2035.82 261.394 L2035.82 264.704 L2027.05 264.704 L2027.05 278.778 Q2027.05 281.949 2027.91 282.852 Q2028.79 283.755 2031.45 283.755 L2035.82 283.755 L2035.82 287.32 L2031.45 287.32 Q2026.52 287.32 2024.64 285.491 Q2022.77 283.639 2022.77 278.778 L2022.77 264.704 L2019.64 264.704 L2019.64 261.394 L2022.77 261.394 L2022.77 254.033 L2027.05 254.033 Z" fill="#000000" fill-rule="evenodd" fill-opacity="1" /><path clip-path="url(#clip570)" d="M2052.21 289.727 Q2050.41 294.357 2048.7 295.769 Q2046.98 297.181 2044.11 297.181 L2040.71 297.181 L2040.71 293.616 L2043.21 293.616 Q2044.97 293.616 2045.94 292.783 Q2046.91 291.949 2048.09 288.848 L2048.86 286.903 L2038.37 261.394 L2042.89 261.394 L2050.99 281.672 L2059.09 261.394 L2063.6 261.394 L2052.21 289.727 Z" fill="#000000" fill-rule="evenodd" fill-opacity="1" /><polyline clip-path="url(#clip570)" style="stroke:#3da44d; stroke-linecap:butt; stroke-linejoin:round; stroke-width:4; stroke-opacity:1; fill:none" points="
  1564.34,321.88 1704.25,321.88 
  "/>
<path clip-path="url(#clip570)" d="M1753.12 334.229 L1753.12 324.947 L1745.48 324.947 L1745.48 321.104 L1757.75 321.104 L1757.75 335.942 Q1755.04 337.863 1751.78 338.859 Q1748.51 339.831 1744.81 339.831 Q1736.71 339.831 1732.12 335.109 Q1727.56 330.363 1727.56 321.914 Q1727.56 313.442 1732.12 308.72 Q1736.71 303.975 1744.81 303.975 Q1748.19 303.975 1751.22 304.808 Q1754.28 305.641 1756.84 307.262 L1756.84 312.239 Q1754.25 310.04 1751.34 308.928 Q1748.42 307.817 1745.2 307.817 Q1738.86 307.817 1735.66 311.359 Q1732.49 314.901 1732.49 321.914 Q1732.49 328.905 1735.66 332.447 Q1738.86 335.988 1745.2 335.988 Q1747.68 335.988 1749.62 335.572 Q1751.57 335.132 1753.12 334.229 Z" fill="#000000" fill-rule="evenodd" fill-opacity="1" /><path clip-path="url(#clip570)" d="M1777.89 326.127 Q1772.72 326.127 1770.73 327.308 Q1768.74 328.489 1768.74 331.336 Q1768.74 333.604 1770.22 334.947 Q1771.73 336.266 1774.3 336.266 Q1777.84 336.266 1779.97 333.766 Q1782.12 331.243 1782.12 327.076 L1782.12 326.127 L1777.89 326.127 M1786.38 324.368 L1786.38 339.16 L1782.12 339.16 L1782.12 335.225 Q1780.66 337.586 1778.49 338.72 Q1776.31 339.831 1773.16 339.831 Q1769.18 339.831 1766.82 337.609 Q1764.48 335.363 1764.48 331.613 Q1764.48 327.239 1767.4 325.016 Q1770.34 322.794 1776.15 322.794 L1782.12 322.794 L1782.12 322.377 Q1782.12 319.438 1780.18 317.84 Q1778.26 316.22 1774.76 316.22 Q1772.54 316.22 1770.43 316.752 Q1768.33 317.285 1766.38 318.35 L1766.38 314.415 Q1768.72 313.512 1770.92 313.072 Q1773.12 312.609 1775.2 312.609 Q1780.83 312.609 1783.6 315.526 Q1786.38 318.442 1786.38 324.368 Z" fill="#000000" fill-rule="evenodd" fill-opacity="1" /><path clip-path="url(#clip570)" d="M1794.72 328.928 L1794.72 313.234 L1798.97 313.234 L1798.97 328.766 Q1798.97 332.447 1800.41 334.299 Q1801.84 336.127 1804.72 336.127 Q1808.16 336.127 1810.15 333.928 Q1812.17 331.729 1812.17 327.933 L1812.17 313.234 L1816.43 313.234 L1816.43 339.16 L1812.17 339.16 L1812.17 335.178 Q1810.62 337.539 1808.56 338.697 Q1806.52 339.831 1803.81 339.831 Q1799.34 339.831 1797.03 337.053 Q1794.72 334.276 1794.72 328.928 M1805.43 312.609 L1805.43 312.609 Z" fill="#000000" fill-rule="evenodd" fill-opacity="1" /><path clip-path="url(#clip570)" d="M1841.73 313.998 L1841.73 318.026 Q1839.92 317.1 1837.98 316.637 Q1836.03 316.174 1833.95 316.174 Q1830.78 316.174 1829.18 317.146 Q1827.61 318.118 1827.61 320.063 Q1827.61 321.544 1828.74 322.401 Q1829.88 323.234 1833.3 323.998 L1834.76 324.322 Q1839.3 325.294 1841.2 327.076 Q1843.12 328.836 1843.12 332.007 Q1843.12 335.618 1840.25 337.725 Q1837.4 339.831 1832.4 339.831 Q1830.32 339.831 1828.05 339.414 Q1825.8 339.021 1823.3 338.211 L1823.3 333.813 Q1825.66 335.039 1827.96 335.664 Q1830.25 336.266 1832.49 336.266 Q1835.5 336.266 1837.12 335.248 Q1838.74 334.206 1838.74 332.331 Q1838.74 330.595 1837.56 329.669 Q1836.4 328.743 1832.45 327.887 L1830.96 327.539 Q1827.01 326.706 1825.25 324.993 Q1823.49 323.257 1823.49 320.248 Q1823.49 316.59 1826.08 314.6 Q1828.67 312.609 1833.44 312.609 Q1835.8 312.609 1837.89 312.956 Q1839.97 313.303 1841.73 313.998 Z" fill="#000000" fill-rule="evenodd" fill-opacity="1" /><path clip-path="url(#clip570)" d="M1866.43 313.998 L1866.43 318.026 Q1864.62 317.1 1862.68 316.637 Q1860.73 316.174 1858.65 316.174 Q1855.48 316.174 1853.88 317.146 Q1852.31 318.118 1852.31 320.063 Q1852.31 321.544 1853.44 322.401 Q1854.58 323.234 1858 323.998 L1859.46 324.322 Q1864 325.294 1865.9 327.076 Q1867.82 328.836 1867.82 332.007 Q1867.82 335.618 1864.95 337.725 Q1862.1 339.831 1857.1 339.831 Q1855.02 339.831 1852.75 339.414 Q1850.5 339.021 1848 338.211 L1848 333.813 Q1850.36 335.039 1852.65 335.664 Q1854.95 336.266 1857.19 336.266 Q1860.2 336.266 1861.82 335.248 Q1863.44 334.206 1863.44 332.331 Q1863.44 330.595 1862.26 329.669 Q1861.1 328.743 1857.15 327.887 L1855.66 327.539 Q1851.71 326.706 1849.95 324.993 Q1848.19 323.257 1848.19 320.248 Q1848.19 316.59 1850.78 314.6 Q1853.37 312.609 1858.14 312.609 Q1860.5 312.609 1862.59 312.956 Q1864.67 313.303 1866.43 313.998 Z" fill="#000000" fill-rule="evenodd" fill-opacity="1" /><path clip-path="url(#clip570)" d="M1874.6 313.234 L1878.86 313.234 L1878.86 339.16 L1874.6 339.16 L1874.6 313.234 M1874.6 303.141 L1878.86 303.141 L1878.86 308.535 L1874.6 308.535 L1874.6 303.141 Z" fill="#000000" fill-rule="evenodd" fill-opacity="1" /><path clip-path="url(#clip570)" d="M1899.55 326.127 Q1894.39 326.127 1892.4 327.308 Q1890.41 328.489 1890.41 331.336 Q1890.41 333.604 1891.89 334.947 Q1893.4 336.266 1895.96 336.266 Q1899.51 336.266 1901.64 333.766 Q1903.79 331.243 1903.79 327.076 L1903.79 326.127 L1899.55 326.127 M1908.05 324.368 L1908.05 339.16 L1903.79 339.16 L1903.79 335.225 Q1902.33 337.586 1900.15 338.72 Q1897.98 339.831 1894.83 339.831 Q1890.85 339.831 1888.49 337.609 Q1886.15 335.363 1886.15 331.613 Q1886.15 327.239 1889.07 325.016 Q1892.01 322.794 1897.82 322.794 L1903.79 322.794 L1903.79 322.377 Q1903.79 319.438 1901.84 317.84 Q1899.92 316.22 1896.43 316.22 Q1894.21 316.22 1892.1 316.752 Q1889.99 317.285 1888.05 318.35 L1888.05 314.415 Q1890.39 313.512 1892.58 313.072 Q1894.78 312.609 1896.87 312.609 Q1902.49 312.609 1905.27 315.526 Q1908.05 318.442 1908.05 324.368 Z" fill="#000000" fill-rule="evenodd" fill-opacity="1" /><path clip-path="url(#clip570)" d="M1938.37 323.512 L1938.37 339.16 L1934.11 339.16 L1934.11 323.651 Q1934.11 319.97 1932.68 318.141 Q1931.24 316.313 1928.37 316.313 Q1924.92 316.313 1922.93 318.512 Q1920.94 320.711 1920.94 324.507 L1920.94 339.16 L1916.66 339.16 L1916.66 313.234 L1920.94 313.234 L1920.94 317.262 Q1922.47 314.924 1924.53 313.766 Q1926.61 312.609 1929.32 312.609 Q1933.79 312.609 1936.08 315.387 Q1938.37 318.141 1938.37 323.512 Z" fill="#000000" fill-rule="evenodd" fill-opacity="1" /><path clip-path="url(#clip570)" d="M1972.17 303.188 Q1969.07 308.512 1967.56 313.72 Q1966.06 318.928 1966.06 324.276 Q1966.06 329.623 1967.56 334.877 Q1969.09 340.109 1972.17 345.41 L1968.46 345.41 Q1964.99 339.97 1963.26 334.715 Q1961.54 329.461 1961.54 324.276 Q1961.54 319.114 1963.26 313.882 Q1964.97 308.651 1968.46 303.188 L1972.17 303.188 Z" fill="#000000" fill-rule="evenodd" fill-opacity="1" /><path clip-path="url(#clip570)" d="M2002.61 325.132 L2002.61 327.215 L1983.02 327.215 Q1983.3 331.613 1985.66 333.928 Q1988.05 336.22 1992.28 336.22 Q1994.74 336.22 1997.03 335.618 Q1999.34 335.016 2001.61 333.813 L2001.61 337.84 Q1999.32 338.813 1996.91 339.322 Q1994.51 339.831 1992.03 339.831 Q1985.83 339.831 1982.19 336.22 Q1978.58 332.609 1978.58 326.451 Q1978.58 320.086 1982.01 316.359 Q1985.45 312.609 1991.29 312.609 Q1996.52 312.609 1999.55 315.989 Q2002.61 319.345 2002.61 325.132 M1998.35 323.882 Q1998.3 320.387 1996.38 318.303 Q1994.48 316.22 1991.33 316.22 Q1987.77 316.22 1985.62 318.234 Q1983.49 320.248 1983.16 323.905 L1998.35 323.882 Z" fill="#000000" fill-rule="evenodd" fill-opacity="1" /><path clip-path="url(#clip570)" d="M2029.78 318.211 Q2031.38 315.34 2033.6 313.975 Q2035.82 312.609 2038.83 312.609 Q2042.89 312.609 2045.08 315.456 Q2047.28 318.28 2047.28 323.512 L2047.28 339.16 L2043 339.16 L2043 323.651 Q2043 319.924 2041.68 318.118 Q2040.36 316.313 2037.65 316.313 Q2034.34 316.313 2032.42 318.512 Q2030.5 320.711 2030.5 324.507 L2030.5 339.16 L2026.22 339.16 L2026.22 323.651 Q2026.22 319.901 2024.9 318.118 Q2023.58 316.313 2020.82 316.313 Q2017.56 316.313 2015.64 318.535 Q2013.72 320.734 2013.72 324.507 L2013.72 339.16 L2009.44 339.16 L2009.44 313.234 L2013.72 313.234 L2013.72 317.262 Q2015.18 314.877 2017.21 313.743 Q2019.25 312.609 2022.05 312.609 Q2024.88 312.609 2026.84 314.044 Q2028.83 315.479 2029.78 318.211 Z" fill="#000000" fill-rule="evenodd" fill-opacity="1" /><path clip-path="url(#clip570)" d="M2059.9 335.271 L2059.9 349.021 L2055.62 349.021 L2055.62 313.234 L2059.9 313.234 L2059.9 317.169 Q2061.24 314.854 2063.28 313.743 Q2065.34 312.609 2068.19 312.609 Q2072.91 312.609 2075.85 316.359 Q2078.81 320.109 2078.81 326.22 Q2078.81 332.331 2075.85 336.081 Q2072.91 339.831 2068.19 339.831 Q2065.34 339.831 2063.28 338.72 Q2061.24 337.586 2059.9 335.271 M2074.39 326.22 Q2074.39 321.521 2072.45 318.859 Q2070.52 316.174 2067.14 316.174 Q2063.76 316.174 2061.82 318.859 Q2059.9 321.521 2059.9 326.22 Q2059.9 330.919 2061.82 333.604 Q2063.76 336.266 2067.14 336.266 Q2070.52 336.266 2072.45 333.604 Q2074.39 330.919 2074.39 326.22 Z" fill="#000000" fill-rule="evenodd" fill-opacity="1" /><path clip-path="url(#clip570)" d="M2085.87 313.234 L2090.13 313.234 L2090.13 339.16 L2085.87 339.16 L2085.87 313.234 M2085.87 303.141 L2090.13 303.141 L2090.13 308.535 L2085.87 308.535 L2085.87 303.141 Z" fill="#000000" fill-rule="evenodd" fill-opacity="1" /><path clip-path="url(#clip570)" d="M2114.07 317.215 Q2113.35 316.799 2112.49 316.614 Q2111.66 316.405 2110.64 316.405 Q2107.03 316.405 2105.08 318.766 Q2103.16 321.104 2103.16 325.502 L2103.16 339.16 L2098.88 339.16 L2098.88 313.234 L2103.16 313.234 L2103.16 317.262 Q2104.51 314.901 2106.66 313.766 Q2108.81 312.609 2111.89 312.609 Q2112.33 312.609 2112.86 312.678 Q2113.39 312.725 2114.04 312.84 L2114.07 317.215 Z" fill="#000000" fill-rule="evenodd" fill-opacity="1" /><path clip-path="url(#clip570)" d="M2118.53 313.234 L2122.79 313.234 L2122.79 339.16 L2118.53 339.16 L2118.53 313.234 M2118.53 303.141 L2122.79 303.141 L2122.79 308.535 L2118.53 308.535 L2118.53 303.141 Z" fill="#000000" fill-rule="evenodd" fill-opacity="1" /><path clip-path="url(#clip570)" d="M2150.36 314.229 L2150.36 318.211 Q2148.56 317.215 2146.73 316.729 Q2144.92 316.22 2143.07 316.22 Q2138.93 316.22 2136.63 318.859 Q2134.34 321.475 2134.34 326.22 Q2134.34 330.965 2136.63 333.604 Q2138.93 336.22 2143.07 336.22 Q2144.92 336.22 2146.73 335.734 Q2148.56 335.225 2150.36 334.229 L2150.36 338.164 Q2148.58 338.998 2146.66 339.414 Q2144.76 339.831 2142.61 339.831 Q2136.75 339.831 2133.3 336.151 Q2129.85 332.47 2129.85 326.22 Q2129.85 319.877 2133.32 316.243 Q2136.82 312.609 2142.88 312.609 Q2144.85 312.609 2146.73 313.026 Q2148.6 313.419 2150.36 314.229 Z" fill="#000000" fill-rule="evenodd" fill-opacity="1" /><path clip-path="url(#clip570)" d="M2169.55 326.127 Q2164.39 326.127 2162.4 327.308 Q2160.41 328.489 2160.41 331.336 Q2160.41 333.604 2161.89 334.947 Q2163.39 336.266 2165.96 336.266 Q2169.5 336.266 2171.63 333.766 Q2173.79 331.243 2173.79 327.076 L2173.79 326.127 L2169.55 326.127 M2178.05 324.368 L2178.05 339.16 L2173.79 339.16 L2173.79 335.225 Q2172.33 337.586 2170.15 338.72 Q2167.98 339.831 2164.83 339.831 Q2160.85 339.831 2158.49 337.609 Q2156.15 335.363 2156.15 331.613 Q2156.15 327.239 2159.06 325.016 Q2162 322.794 2167.81 322.794 L2173.79 322.794 L2173.79 322.377 Q2173.79 319.438 2171.84 317.84 Q2169.92 316.22 2166.43 316.22 Q2164.2 316.22 2162.1 316.752 Q2159.99 317.285 2158.05 318.35 L2158.05 314.415 Q2160.38 313.512 2162.58 313.072 Q2164.78 312.609 2166.87 312.609 Q2172.49 312.609 2175.27 315.526 Q2178.05 318.442 2178.05 324.368 Z" fill="#000000" fill-rule="evenodd" fill-opacity="1" /><path clip-path="url(#clip570)" d="M2186.82 303.141 L2191.08 303.141 L2191.08 339.16 L2186.82 339.16 L2186.82 303.141 Z" fill="#000000" fill-rule="evenodd" fill-opacity="1" /><path clip-path="url(#clip570)" d="M2199.32 303.188 L2203.02 303.188 Q2206.5 308.651 2208.21 313.882 Q2209.94 319.114 2209.94 324.276 Q2209.94 329.461 2208.21 334.715 Q2206.5 339.97 2203.02 345.41 L2199.32 345.41 Q2202.4 340.109 2203.9 334.877 Q2205.43 329.623 2205.43 324.276 Q2205.43 318.928 2203.9 313.72 Q2202.4 308.512 2199.32 303.188 Z" fill="#000000" fill-rule="evenodd" fill-opacity="1" /></svg>
