<?xml version="1.0" encoding="utf-8"?>
<svg xmlns="http://www.w3.org/2000/svg" xmlns:xlink="http://www.w3.org/1999/xlink" width="600" height="400" viewBox="0 0 2400 1600">
<defs>
  <clipPath id="clip450">
    <rect x="0" y="0" width="2400" height="1600"/>
  </clipPath>
</defs>
<path clip-path="url(#clip450)" d="
M0 1600 L2400 1600 L2400 0 L0 0  Z
  " fill="#ffffff" fill-rule="evenodd" fill-opacity="1"/>
<defs>
  <clipPath id="clip451">
    <rect x="480" y="0" width="1681" height="1600"/>
  </clipPath>
</defs>
<path clip-path="url(#clip450)" d="
M224.098 1423.18 L2352.76 1423.18 L2352.76 47.2441 L224.098 47.2441  Z
  " fill="#ffffff" fill-rule="evenodd" fill-opacity="1"/>
<defs>
  <clipPath id="clip452">
    <rect x="224" y="47" width="2130" height="1377"/>
  </clipPath>
</defs>
<polyline clip-path="url(#clip452)" style="stroke:#000000; stroke-linecap:butt; stroke-linejoin:round; stroke-width:2; stroke-opacity:0.1; fill:none" points="
  224.098,1423.18 224.098,47.2441 
  "/>
<polyline clip-path="url(#clip452)" style="stroke:#000000; stroke-linecap:butt; stroke-linejoin:round; stroke-width:2; stroke-opacity:0.1; fill:none" points="
  578.874,1423.18 578.874,47.2441 
  "/>
<polyline clip-path="url(#clip452)" style="stroke:#000000; stroke-linecap:butt; stroke-linejoin:round; stroke-width:2; stroke-opacity:0.1; fill:none" points="
  933.651,1423.18 933.651,47.2441 
  "/>
<polyline clip-path="url(#clip452)" style="stroke:#000000; stroke-linecap:butt; stroke-linejoin:round; stroke-width:2; stroke-opacity:0.1; fill:none" points="
  1288.43,1423.18 1288.43,47.2441 
  "/>
<polyline clip-path="url(#clip452)" style="stroke:#000000; stroke-linecap:butt; stroke-linejoin:round; stroke-width:2; stroke-opacity:0.1; fill:none" points="
  1643.2,1423.18 1643.2,47.2441 
  "/>
<polyline clip-path="url(#clip452)" style="stroke:#000000; stroke-linecap:butt; stroke-linejoin:round; stroke-width:2; stroke-opacity:0.1; fill:none" points="
  1997.98,1423.18 1997.98,47.2441 
  "/>
<polyline clip-path="url(#clip452)" style="stroke:#000000; stroke-linecap:butt; stroke-linejoin:round; stroke-width:2; stroke-opacity:0.1; fill:none" points="
  2352.76,1423.18 2352.76,47.2441 
  "/>
<polyline clip-path="url(#clip450)" style="stroke:#000000; stroke-linecap:butt; stroke-linejoin:round; stroke-width:4; stroke-opacity:1; fill:none" points="
  224.098,1423.18 2352.76,1423.18 
  "/>
<polyline clip-path="url(#clip450)" style="stroke:#000000; stroke-linecap:butt; stroke-linejoin:round; stroke-width:4; stroke-opacity:1; fill:none" points="
  224.098,1423.18 224.098,1404.28 
  "/>
<polyline clip-path="url(#clip450)" style="stroke:#000000; stroke-linecap:butt; stroke-linejoin:round; stroke-width:4; stroke-opacity:1; fill:none" points="
  578.874,1423.18 578.874,1404.28 
  "/>
<polyline clip-path="url(#clip450)" style="stroke:#000000; stroke-linecap:butt; stroke-linejoin:round; stroke-width:4; stroke-opacity:1; fill:none" points="
  933.651,1423.18 933.651,1404.28 
  "/>
<polyline clip-path="url(#clip450)" style="stroke:#000000; stroke-linecap:butt; stroke-linejoin:round; stroke-width:4; stroke-opacity:1; fill:none" points="
  1288.43,1423.18 1288.43,1404.28 
  "/>
<polyline clip-path="url(#clip450)" style="stroke:#000000; stroke-linecap:butt; stroke-linejoin:round; stroke-width:4; stroke-opacity:1; fill:none" points="
  1643.2,1423.18 1643.2,1404.28 
  "/>
<polyline clip-path="url(#clip450)" style="stroke:#000000; stroke-linecap:butt; stroke-linejoin:round; stroke-width:4; stroke-opacity:1; fill:none" points="
  1997.98,1423.18 1997.98,1404.28 
  "/>
<polyline clip-path="url(#clip450)" style="stroke:#000000; stroke-linecap:butt; stroke-linejoin:round; stroke-width:4; stroke-opacity:1; fill:none" points="
  2352.76,1423.18 2352.76,1404.28 
  "/>
<path clip-path="url(#clip450)" d="M224.098 1454.1 Q220.487 1454.1 218.658 1457.66 Q216.853 1461.2 216.853 1468.33 Q216.853 1475.44 218.658 1479.01 Q220.487 1482.55 224.098 1482.55 Q227.732 1482.55 229.538 1479.01 Q231.366 1475.44 231.366 1468.33 Q231.366 1461.2 229.538 1457.66 Q227.732 1454.1 224.098 1454.1 M224.098 1450.39 Q229.908 1450.39 232.964 1455 Q236.042 1459.58 236.042 1468.33 Q236.042 1477.06 232.964 1481.67 Q229.908 1486.25 224.098 1486.25 Q218.288 1486.25 215.209 1481.67 Q212.153 1477.06 212.153 1468.33 Q212.153 1459.58 215.209 1455 Q218.288 1450.39 224.098 1450.39 Z" fill="#000000" fill-rule="evenodd" fill-opacity="1" /><path clip-path="url(#clip450)" d="M569.256 1481.64 L576.895 1481.64 L576.895 1455.28 L568.585 1456.95 L568.585 1452.69 L576.849 1451.02 L581.525 1451.02 L581.525 1481.64 L589.164 1481.64 L589.164 1485.58 L569.256 1485.58 L569.256 1481.64 Z" fill="#000000" fill-rule="evenodd" fill-opacity="1" /><path clip-path="url(#clip450)" d="M928.303 1481.64 L944.623 1481.64 L944.623 1485.58 L922.678 1485.58 L922.678 1481.64 Q925.34 1478.89 929.924 1474.26 Q934.53 1469.61 935.711 1468.27 Q937.956 1465.74 938.836 1464.01 Q939.738 1462.25 939.738 1460.56 Q939.738 1457.8 937.794 1456.07 Q935.873 1454.33 932.771 1454.33 Q930.572 1454.33 928.118 1455.09 Q925.688 1455.86 922.91 1457.41 L922.91 1452.69 Q925.734 1451.55 928.188 1450.97 Q930.641 1450.39 932.678 1450.39 Q938.049 1450.39 941.243 1453.08 Q944.438 1455.77 944.438 1460.26 Q944.438 1462.39 943.627 1464.31 Q942.84 1466.2 940.734 1468.8 Q940.155 1469.47 937.053 1472.69 Q933.951 1475.88 928.303 1481.64 Z" fill="#000000" fill-rule="evenodd" fill-opacity="1" /><path clip-path="url(#clip450)" d="M1292.67 1466.95 Q1296.03 1467.66 1297.91 1469.93 Q1299.8 1472.2 1299.8 1475.53 Q1299.8 1480.65 1296.29 1483.45 Q1292.77 1486.25 1286.29 1486.25 Q1284.11 1486.25 1281.79 1485.81 Q1279.5 1485.39 1277.05 1484.54 L1277.05 1480.02 Q1278.99 1481.16 1281.31 1481.74 Q1283.62 1482.32 1286.15 1482.32 Q1290.54 1482.32 1292.84 1480.58 Q1295.15 1478.84 1295.15 1475.53 Q1295.15 1472.48 1293 1470.77 Q1290.87 1469.03 1287.05 1469.03 L1283.02 1469.03 L1283.02 1465.19 L1287.23 1465.19 Q1290.68 1465.19 1292.51 1463.82 Q1294.34 1462.43 1294.34 1459.84 Q1294.34 1457.18 1292.44 1455.77 Q1290.57 1454.33 1287.05 1454.33 Q1285.13 1454.33 1282.93 1454.75 Q1280.73 1455.16 1278.09 1456.04 L1278.09 1451.88 Q1280.75 1451.14 1283.07 1450.77 Q1285.41 1450.39 1287.47 1450.39 Q1292.79 1450.39 1295.89 1452.83 Q1298.99 1455.23 1298.99 1459.35 Q1298.99 1462.22 1297.35 1464.21 Q1295.71 1466.18 1292.67 1466.95 Z" fill="#000000" fill-rule="evenodd" fill-opacity="1" /><path clip-path="url(#clip450)" d="M1646.21 1455.09 L1634.41 1473.54 L1646.21 1473.54 L1646.21 1455.09 M1644.99 1451.02 L1650.87 1451.02 L1650.87 1473.54 L1655.8 1473.54 L1655.8 1477.43 L1650.87 1477.43 L1650.87 1485.58 L1646.21 1485.58 L1646.21 1477.43 L1630.61 1477.43 L1630.61 1472.92 L1644.99 1451.02 Z" fill="#000000" fill-rule="evenodd" fill-opacity="1" /><path clip-path="url(#clip450)" d="M1988.26 1451.02 L2006.61 1451.02 L2006.61 1454.96 L1992.54 1454.96 L1992.54 1463.43 Q1993.56 1463.08 1994.58 1462.92 Q1995.6 1462.73 1996.61 1462.73 Q2002.4 1462.73 2005.78 1465.9 Q2009.16 1469.08 2009.16 1474.49 Q2009.16 1480.07 2005.69 1483.17 Q2002.22 1486.25 1995.9 1486.25 Q1993.72 1486.25 1991.45 1485.88 Q1989.21 1485.51 1986.8 1484.77 L1986.8 1480.07 Q1988.88 1481.2 1991.1 1481.76 Q1993.33 1482.32 1995.8 1482.32 Q1999.81 1482.32 2002.15 1480.21 Q2004.48 1478.1 2004.48 1474.49 Q2004.48 1470.88 2002.15 1468.77 Q1999.81 1466.67 1995.8 1466.67 Q1993.93 1466.67 1992.05 1467.08 Q1990.2 1467.5 1988.26 1468.38 L1988.26 1451.02 Z" fill="#000000" fill-rule="evenodd" fill-opacity="1" /><path clip-path="url(#clip450)" d="M2353.16 1466.44 Q2350.01 1466.44 2348.16 1468.59 Q2346.33 1470.74 2346.33 1474.49 Q2346.33 1478.22 2348.16 1480.39 Q2350.01 1482.55 2353.16 1482.55 Q2356.31 1482.55 2358.14 1480.39 Q2359.99 1478.22 2359.99 1474.49 Q2359.99 1470.74 2358.14 1468.59 Q2356.31 1466.44 2353.16 1466.44 M2362.44 1451.78 L2362.44 1456.04 Q2360.68 1455.21 2358.88 1454.77 Q2357.1 1454.33 2355.34 1454.33 Q2350.71 1454.33 2348.25 1457.45 Q2345.82 1460.58 2345.48 1466.9 Q2346.84 1464.89 2348.9 1463.82 Q2350.96 1462.73 2353.44 1462.73 Q2358.65 1462.73 2361.66 1465.9 Q2364.69 1469.05 2364.69 1474.49 Q2364.69 1479.82 2361.54 1483.03 Q2358.39 1486.25 2353.16 1486.25 Q2347.17 1486.25 2343.99 1481.67 Q2340.82 1477.06 2340.82 1468.33 Q2340.82 1460.14 2344.71 1455.28 Q2348.6 1450.39 2355.15 1450.39 Q2356.91 1450.39 2358.69 1450.74 Q2360.5 1451.09 2362.44 1451.78 Z" fill="#000000" fill-rule="evenodd" fill-opacity="1" /><path clip-path="url(#clip450)" d="M1291.34 1518.52 L1291.34 1531.66 Q1297.67 1531.66 1301.91 1536.53 Q1306.27 1541.5 1306.27 1550.25 Q1306.27 1559 1301.91 1563.97 Q1297.67 1568.84 1291.34 1568.84 L1291.34 1581.6 L1285.51 1581.6 L1285.51 1568.84 Q1279.18 1568.84 1274.92 1563.97 Q1270.59 1559 1270.59 1550.25 Q1270.59 1541.5 1274.92 1536.53 Q1279.18 1531.66 1285.51 1531.66 L1285.51 1518.52 L1291.34 1518.52 M1291.34 1563.62 Q1294.94 1563.62 1297.39 1560.34 Q1300.06 1556.68 1300.09 1550.25 Q1300.12 1543.89 1297.39 1540.16 Q1294.94 1536.88 1291.34 1536.88 L1291.34 1563.62 M1285.51 1563.62 L1285.51 1536.88 Q1281.92 1536.88 1279.5 1540.16 Q1276.73 1543.89 1276.76 1550.25 Q1276.79 1556.68 1279.5 1560.34 Q1281.92 1563.62 1285.51 1563.62 Z" fill="#000000" fill-rule="evenodd" fill-opacity="1" /><polyline clip-path="url(#clip452)" style="stroke:#000000; stroke-linecap:butt; stroke-linejoin:round; stroke-width:2; stroke-opacity:0.1; fill:none" points="
  224.098,1226.88 2352.76,1226.88 
  "/>
<polyline clip-path="url(#clip452)" style="stroke:#000000; stroke-linecap:butt; stroke-linejoin:round; stroke-width:2; stroke-opacity:0.1; fill:none" points="
  224.098,941.715 2352.76,941.715 
  "/>
<polyline clip-path="url(#clip452)" style="stroke:#000000; stroke-linecap:butt; stroke-linejoin:round; stroke-width:2; stroke-opacity:0.1; fill:none" points="
  224.098,656.555 2352.76,656.555 
  "/>
<polyline clip-path="url(#clip452)" style="stroke:#000000; stroke-linecap:butt; stroke-linejoin:round; stroke-width:2; stroke-opacity:0.1; fill:none" points="
  224.098,371.395 2352.76,371.395 
  "/>
<polyline clip-path="url(#clip452)" style="stroke:#000000; stroke-linecap:butt; stroke-linejoin:round; stroke-width:2; stroke-opacity:0.1; fill:none" points="
  224.098,86.2355 2352.76,86.2355 
  "/>
<polyline clip-path="url(#clip450)" style="stroke:#000000; stroke-linecap:butt; stroke-linejoin:round; stroke-width:4; stroke-opacity:1; fill:none" points="
  224.098,1423.18 224.098,47.2441 
  "/>
<polyline clip-path="url(#clip450)" style="stroke:#000000; stroke-linecap:butt; stroke-linejoin:round; stroke-width:4; stroke-opacity:1; fill:none" points="
  224.098,1226.88 242.996,1226.88 
  "/>
<polyline clip-path="url(#clip450)" style="stroke:#000000; stroke-linecap:butt; stroke-linejoin:round; stroke-width:4; stroke-opacity:1; fill:none" points="
  224.098,941.715 242.996,941.715 
  "/>
<polyline clip-path="url(#clip450)" style="stroke:#000000; stroke-linecap:butt; stroke-linejoin:round; stroke-width:4; stroke-opacity:1; fill:none" points="
  224.098,656.555 242.996,656.555 
  "/>
<polyline clip-path="url(#clip450)" style="stroke:#000000; stroke-linecap:butt; stroke-linejoin:round; stroke-width:4; stroke-opacity:1; fill:none" points="
  224.098,371.395 242.996,371.395 
  "/>
<polyline clip-path="url(#clip450)" style="stroke:#000000; stroke-linecap:butt; stroke-linejoin:round; stroke-width:4; stroke-opacity:1; fill:none" points="
  224.098,86.2355 242.996,86.2355 
  "/>
<path clip-path="url(#clip450)" d="M50.9921 1227.33 L80.6679 1227.33 L80.6679 1231.26 L50.9921 1231.26 L50.9921 1227.33 Z" fill="#000000" fill-rule="evenodd" fill-opacity="1" /><path clip-path="url(#clip450)" d="M91.5706 1240.22 L99.2095 1240.22 L99.2095 1213.85 L90.8993 1215.52 L90.8993 1211.26 L99.1632 1209.6 L103.839 1209.6 L103.839 1240.22 L111.478 1240.22 L111.478 1244.16 L91.5706 1244.16 L91.5706 1240.22 Z" fill="#000000" fill-rule="evenodd" fill-opacity="1" /><path clip-path="url(#clip450)" d="M120.922 1238.28 L125.807 1238.28 L125.807 1244.16 L120.922 1244.16 L120.922 1238.28 Z" fill="#000000" fill-rule="evenodd" fill-opacity="1" /><path clip-path="url(#clip450)" d="M145.992 1212.67 Q142.381 1212.67 140.552 1216.24 Q138.746 1219.78 138.746 1226.91 Q138.746 1234.02 140.552 1237.58 Q142.381 1241.12 145.992 1241.12 Q149.626 1241.12 151.431 1237.58 Q153.26 1234.02 153.26 1226.91 Q153.26 1219.78 151.431 1216.24 Q149.626 1212.67 145.992 1212.67 M145.992 1208.97 Q151.802 1208.97 154.857 1213.58 Q157.936 1218.16 157.936 1226.91 Q157.936 1235.64 154.857 1240.24 Q151.802 1244.83 145.992 1244.83 Q140.181 1244.83 137.103 1240.24 Q134.047 1235.64 134.047 1226.91 Q134.047 1218.16 137.103 1213.58 Q140.181 1208.97 145.992 1208.97 Z" fill="#000000" fill-rule="evenodd" fill-opacity="1" /><path clip-path="url(#clip450)" d="M176.153 1212.67 Q172.542 1212.67 170.714 1216.24 Q168.908 1219.78 168.908 1226.91 Q168.908 1234.02 170.714 1237.58 Q172.542 1241.12 176.153 1241.12 Q179.788 1241.12 181.593 1237.58 Q183.422 1234.02 183.422 1226.91 Q183.422 1219.78 181.593 1216.24 Q179.788 1212.67 176.153 1212.67 M176.153 1208.97 Q181.964 1208.97 185.019 1213.58 Q188.098 1218.16 188.098 1226.91 Q188.098 1235.64 185.019 1240.24 Q181.964 1244.83 176.153 1244.83 Q170.343 1244.83 167.265 1240.24 Q164.209 1235.64 164.209 1226.91 Q164.209 1218.16 167.265 1213.58 Q170.343 1208.97 176.153 1208.97 Z" fill="#000000" fill-rule="evenodd" fill-opacity="1" /><path clip-path="url(#clip450)" d="M51.9875 942.167 L81.6633 942.167 L81.6633 946.102 L51.9875 946.102 L51.9875 942.167 Z" fill="#000000" fill-rule="evenodd" fill-opacity="1" /><path clip-path="url(#clip450)" d="M101.756 927.514 Q98.1447 927.514 96.316 931.079 Q94.5104 934.62 94.5104 941.75 Q94.5104 948.856 96.316 952.421 Q98.1447 955.963 101.756 955.963 Q105.39 955.963 107.196 952.421 Q109.024 948.856 109.024 941.75 Q109.024 934.62 107.196 931.079 Q105.39 927.514 101.756 927.514 M101.756 923.81 Q107.566 923.81 110.621 928.417 Q113.7 933 113.7 941.75 Q113.7 950.477 110.621 955.083 Q107.566 959.667 101.756 959.667 Q95.9456 959.667 92.8669 955.083 Q89.8114 950.477 89.8114 941.75 Q89.8114 933 92.8669 928.417 Q95.9456 923.81 101.756 923.81 Z" fill="#000000" fill-rule="evenodd" fill-opacity="1" /><path clip-path="url(#clip450)" d="M121.918 953.116 L126.802 953.116 L126.802 958.995 L121.918 958.995 L121.918 953.116 Z" fill="#000000" fill-rule="evenodd" fill-opacity="1" /><path clip-path="url(#clip450)" d="M135.806 924.435 L158.029 924.435 L158.029 926.426 L145.482 958.995 L140.598 958.995 L152.404 928.37 L135.806 928.37 L135.806 924.435 Z" fill="#000000" fill-rule="evenodd" fill-opacity="1" /><path clip-path="url(#clip450)" d="M167.195 924.435 L185.552 924.435 L185.552 928.37 L171.478 928.37 L171.478 936.843 Q172.496 936.495 173.515 936.333 Q174.533 936.148 175.552 936.148 Q181.339 936.148 184.718 939.319 Q188.098 942.491 188.098 947.907 Q188.098 953.486 184.626 956.588 Q181.153 959.667 174.834 959.667 Q172.658 959.667 170.39 959.296 Q168.144 958.926 165.737 958.185 L165.737 953.486 Q167.82 954.62 170.042 955.176 Q172.265 955.731 174.741 955.731 Q178.746 955.731 181.084 953.625 Q183.422 951.518 183.422 947.907 Q183.422 944.296 181.084 942.19 Q178.746 940.083 174.741 940.083 Q172.866 940.083 170.991 940.5 Q169.14 940.917 167.195 941.796 L167.195 924.435 Z" fill="#000000" fill-rule="evenodd" fill-opacity="1" /><path clip-path="url(#clip450)" d="M50.9921 657.007 L80.6679 657.007 L80.6679 660.942 L50.9921 660.942 L50.9921 657.007 Z" fill="#000000" fill-rule="evenodd" fill-opacity="1" /><path clip-path="url(#clip450)" d="M100.76 642.354 Q97.1493 642.354 95.3206 645.919 Q93.515 649.46 93.515 656.59 Q93.515 663.697 95.3206 667.261 Q97.1493 670.803 100.76 670.803 Q104.395 670.803 106.2 667.261 Q108.029 663.697 108.029 656.59 Q108.029 649.46 106.2 645.919 Q104.395 642.354 100.76 642.354 M100.76 638.65 Q106.571 638.65 109.626 643.257 Q112.705 647.84 112.705 656.59 Q112.705 665.317 109.626 669.923 Q106.571 674.507 100.76 674.507 Q94.9502 674.507 91.8715 669.923 Q88.816 665.317 88.816 656.59 Q88.816 647.84 91.8715 643.257 Q94.9502 638.65 100.76 638.65 Z" fill="#000000" fill-rule="evenodd" fill-opacity="1" /><path clip-path="url(#clip450)" d="M120.922 667.956 L125.807 667.956 L125.807 673.835 L120.922 673.835 L120.922 667.956 Z" fill="#000000" fill-rule="evenodd" fill-opacity="1" /><path clip-path="url(#clip450)" d="M136.038 639.275 L154.394 639.275 L154.394 643.211 L140.32 643.211 L140.32 651.683 Q141.339 651.335 142.357 651.173 Q143.376 650.988 144.394 650.988 Q150.181 650.988 153.561 654.16 Q156.941 657.331 156.941 662.747 Q156.941 668.326 153.468 671.428 Q149.996 674.507 143.677 674.507 Q141.501 674.507 139.232 674.136 Q136.987 673.766 134.58 673.025 L134.58 668.326 Q136.663 669.46 138.885 670.016 Q141.107 670.571 143.584 670.571 Q147.589 670.571 149.927 668.465 Q152.265 666.359 152.265 662.747 Q152.265 659.136 149.927 657.03 Q147.589 654.923 143.584 654.923 Q141.709 654.923 139.834 655.34 Q137.982 655.757 136.038 656.636 L136.038 639.275 Z" fill="#000000" fill-rule="evenodd" fill-opacity="1" /><path clip-path="url(#clip450)" d="M176.153 642.354 Q172.542 642.354 170.714 645.919 Q168.908 649.46 168.908 656.59 Q168.908 663.697 170.714 667.261 Q172.542 670.803 176.153 670.803 Q179.788 670.803 181.593 667.261 Q183.422 663.697 183.422 656.59 Q183.422 649.46 181.593 645.919 Q179.788 642.354 176.153 642.354 M176.153 638.65 Q181.964 638.65 185.019 643.257 Q188.098 647.84 188.098 656.59 Q188.098 665.317 185.019 669.923 Q181.964 674.507 176.153 674.507 Q170.343 674.507 167.265 669.923 Q164.209 665.317 164.209 656.59 Q164.209 647.84 167.265 643.257 Q170.343 638.65 176.153 638.65 Z" fill="#000000" fill-rule="evenodd" fill-opacity="1" /><path clip-path="url(#clip450)" d="M51.9875 371.847 L81.6633 371.847 L81.6633 375.782 L51.9875 375.782 L51.9875 371.847 Z" fill="#000000" fill-rule="evenodd" fill-opacity="1" /><path clip-path="url(#clip450)" d="M101.756 357.194 Q98.1447 357.194 96.316 360.759 Q94.5104 364.301 94.5104 371.43 Q94.5104 378.537 96.316 382.101 Q98.1447 385.643 101.756 385.643 Q105.39 385.643 107.196 382.101 Q109.024 378.537 109.024 371.43 Q109.024 364.301 107.196 360.759 Q105.39 357.194 101.756 357.194 M101.756 353.49 Q107.566 353.49 110.621 358.097 Q113.7 362.68 113.7 371.43 Q113.7 380.157 110.621 384.763 Q107.566 389.347 101.756 389.347 Q95.9456 389.347 92.8669 384.763 Q89.8114 380.157 89.8114 371.43 Q89.8114 362.68 92.8669 358.097 Q95.9456 353.49 101.756 353.49 Z" fill="#000000" fill-rule="evenodd" fill-opacity="1" /><path clip-path="url(#clip450)" d="M121.918 382.796 L126.802 382.796 L126.802 388.675 L121.918 388.675 L121.918 382.796 Z" fill="#000000" fill-rule="evenodd" fill-opacity="1" /><path clip-path="url(#clip450)" d="M141.015 384.74 L157.334 384.74 L157.334 388.675 L135.39 388.675 L135.39 384.74 Q138.052 381.986 142.635 377.356 Q147.242 372.703 148.422 371.361 Q150.668 368.838 151.547 367.101 Q152.45 365.342 152.45 363.652 Q152.45 360.898 150.505 359.162 Q148.584 357.426 145.482 357.426 Q143.283 357.426 140.83 358.189 Q138.399 358.953 135.621 360.504 L135.621 355.782 Q138.445 354.648 140.899 354.069 Q143.353 353.49 145.39 353.49 Q150.76 353.49 153.955 356.176 Q157.149 358.861 157.149 363.351 Q157.149 365.481 156.339 367.402 Q155.552 369.301 153.445 371.893 Q152.867 372.564 149.765 375.782 Q146.663 378.976 141.015 384.74 Z" fill="#000000" fill-rule="evenodd" fill-opacity="1" /><path clip-path="url(#clip450)" d="M167.195 354.115 L185.552 354.115 L185.552 358.051 L171.478 358.051 L171.478 366.523 Q172.496 366.176 173.515 366.014 Q174.533 365.828 175.552 365.828 Q181.339 365.828 184.718 369 Q188.098 372.171 188.098 377.588 Q188.098 383.166 184.626 386.268 Q181.153 389.347 174.834 389.347 Q172.658 389.347 170.39 388.976 Q168.144 388.606 165.737 387.865 L165.737 383.166 Q167.82 384.3 170.042 384.856 Q172.265 385.412 174.741 385.412 Q178.746 385.412 181.084 383.305 Q183.422 381.199 183.422 377.588 Q183.422 373.976 181.084 371.87 Q178.746 369.763 174.741 369.763 Q172.866 369.763 170.991 370.18 Q169.14 370.597 167.195 371.476 L167.195 354.115 Z" fill="#000000" fill-rule="evenodd" fill-opacity="1" /><path clip-path="url(#clip450)" d="M100.76 72.0342 Q97.1493 72.0342 95.3206 75.599 Q93.515 79.1406 93.515 86.2702 Q93.515 93.3767 95.3206 96.9415 Q97.1493 100.483 100.76 100.483 Q104.395 100.483 106.2 96.9415 Q108.029 93.3767 108.029 86.2702 Q108.029 79.1406 106.2 75.599 Q104.395 72.0342 100.76 72.0342 M100.76 68.3305 Q106.571 68.3305 109.626 72.937 Q112.705 77.5203 112.705 86.2702 Q112.705 94.997 109.626 99.6035 Q106.571 104.187 100.76 104.187 Q94.9502 104.187 91.8715 99.6035 Q88.816 94.997 88.816 86.2702 Q88.816 77.5203 91.8715 72.937 Q94.9502 68.3305 100.76 68.3305 Z" fill="#000000" fill-rule="evenodd" fill-opacity="1" /><path clip-path="url(#clip450)" d="M120.922 97.6359 L125.807 97.6359 L125.807 103.516 L120.922 103.516 L120.922 97.6359 Z" fill="#000000" fill-rule="evenodd" fill-opacity="1" /><path clip-path="url(#clip450)" d="M145.992 72.0342 Q142.381 72.0342 140.552 75.599 Q138.746 79.1406 138.746 86.2702 Q138.746 93.3767 140.552 96.9415 Q142.381 100.483 145.992 100.483 Q149.626 100.483 151.431 96.9415 Q153.26 93.3767 153.26 86.2702 Q153.26 79.1406 151.431 75.599 Q149.626 72.0342 145.992 72.0342 M145.992 68.3305 Q151.802 68.3305 154.857 72.937 Q157.936 77.5203 157.936 86.2702 Q157.936 94.997 154.857 99.6035 Q151.802 104.187 145.992 104.187 Q140.181 104.187 137.103 99.6035 Q134.047 94.997 134.047 86.2702 Q134.047 77.5203 137.103 72.937 Q140.181 68.3305 145.992 68.3305 Z" fill="#000000" fill-rule="evenodd" fill-opacity="1" /><path clip-path="url(#clip450)" d="M176.153 72.0342 Q172.542 72.0342 170.714 75.599 Q168.908 79.1406 168.908 86.2702 Q168.908 93.3767 170.714 96.9415 Q172.542 100.483 176.153 100.483 Q179.788 100.483 181.593 96.9415 Q183.422 93.3767 183.422 86.2702 Q183.422 79.1406 181.593 75.599 Q179.788 72.0342 176.153 72.0342 M176.153 68.3305 Q181.964 68.3305 185.019 72.937 Q188.098 77.5203 188.098 86.2702 Q188.098 94.997 185.019 99.6035 Q181.964 104.187 176.153 104.187 Q170.343 104.187 167.265 99.6035 Q164.209 94.997 164.209 86.2702 Q164.209 77.5203 167.265 72.937 Q170.343 68.3305 176.153 68.3305 Z" fill="#000000" fill-rule="evenodd" fill-opacity="1" /><polyline clip-path="url(#clip452)" style="stroke:#009af9; stroke-linecap:butt; stroke-linejoin:round; stroke-width:4; stroke-opacity:1; fill:none" points="
  224.098,86.2355 226.229,86.2561 228.359,86.3178 230.49,86.4205 232.621,86.5643 234.752,86.7491 236.883,86.9748 239.013,87.2412 241.144,87.5484 243.275,87.8963 
  245.406,88.2846 247.537,88.7134 249.667,89.1826 251.798,89.6919 253.929,90.2413 256.06,90.8308 258.19,91.46 260.321,92.129 262.452,92.8375 264.583,93.5855 
  266.714,94.3728 268.844,95.1992 270.975,96.0646 273.106,96.9689 275.237,97.9119 277.368,98.8934 279.498,99.9133 281.629,100.971 283.76,102.068 285.891,103.202 
  288.022,104.373 290.152,105.582 292.283,106.829 294.414,108.113 296.545,109.433 298.675,110.791 300.806,112.185 302.937,113.615 305.068,115.082 307.199,116.585 
  309.329,118.124 311.46,119.698 313.591,121.307 315.722,122.952 317.853,124.632 319.983,126.347 322.114,128.096 324.245,129.88 326.376,131.698 328.507,133.55 
  330.637,135.435 332.768,137.355 334.899,139.307 337.03,141.293 339.16,143.311 341.291,145.362 343.422,147.446 345.553,149.562 347.684,151.71 349.814,153.889 
  351.945,156.1 354.076,158.343 356.207,160.616 358.338,162.921 360.468,165.256 362.599,167.621 364.73,170.017 366.861,172.442 368.992,174.897 371.122,177.382 
  373.253,179.895 375.384,182.438 377.515,185.01 379.645,187.609 381.776,190.237 383.907,192.894 386.038,195.577 388.169,198.289 390.299,201.027 392.43,203.793 
  394.561,206.585 396.692,209.404 398.823,212.249 400.953,215.12 403.084,218.017 405.215,220.94 407.346,223.888 409.477,226.86 411.607,229.858 413.738,232.88 
  415.869,235.926 418,238.997 420.13,242.091 422.261,245.209 424.392,248.35 426.523,251.513 428.654,254.7 430.784,257.909 432.915,261.141 435.046,264.394 
  437.177,267.67 439.308,270.966 441.438,274.284 443.569,277.623 445.7,280.983 447.831,284.363 449.961,287.763 452.092,291.184 454.223,294.624 456.354,298.083 
  458.485,301.562 460.615,305.06 462.746,308.576 464.877,312.111 467.008,315.664 469.139,319.235 471.269,322.824 473.4,326.43 475.531,330.053 477.662,333.693 
  479.793,337.35 481.923,341.024 484.054,344.713 486.185,348.418 488.316,352.14 490.446,355.876 492.577,359.628 494.708,363.394 496.839,367.175 498.97,370.971 
  501.1,374.781 503.231,378.605 505.362,382.442 507.493,386.293 509.624,390.157 511.754,394.033 513.885,397.923 516.016,401.825 518.147,405.739 520.278,409.665 
  522.408,413.603 524.539,417.552 526.67,421.513 528.801,425.484 530.931,429.466 533.062,433.459 535.193,437.461 537.324,441.474 539.455,445.497 541.585,449.529 
  543.716,453.57 545.847,457.62 547.978,461.679 550.109,465.747 552.239,469.823 554.37,473.907 556.501,477.999 558.632,482.099 560.763,486.206 562.893,490.32 
  565.024,494.44 567.155,498.568 569.286,502.702 571.416,506.842 573.547,510.989 575.678,515.141 577.809,519.298 579.94,523.461 582.07,527.629 584.201,531.802 
  586.332,535.979 588.463,540.161 590.594,544.347 592.724,548.537 594.855,552.731 596.986,556.928 599.117,561.129 601.247,565.332 603.378,569.539 605.509,573.748 
  607.64,577.96 609.771,582.174 611.901,586.389 614.032,590.607 616.163,594.826 618.294,599.047 620.425,603.268 622.555,607.491 624.686,611.714 626.817,615.938 
  628.948,620.163 631.079,624.387 633.209,628.611 635.34,632.836 637.471,637.059 639.602,641.282 641.732,645.504 643.863,649.725 645.994,653.945 648.125,658.163 
  650.256,662.379 652.386,666.594 654.517,670.807 656.648,675.017 658.779,679.225 660.91,683.43 663.04,687.633 665.171,691.832 667.302,696.029 669.433,700.221 
  671.564,704.411 673.694,708.596 675.825,712.778 677.956,716.956 680.087,721.129 682.217,725.298 684.348,729.462 686.479,733.622 688.61,737.776 690.741,741.925 
  692.871,746.069 695.002,750.208 697.133,754.34 699.264,758.467 701.395,762.588 703.525,766.703 705.656,770.811 707.787,774.913 709.918,779.008 712.049,783.096 
  714.179,787.178 716.31,791.252 718.441,795.319 720.572,799.378 722.702,803.43 724.833,807.474 726.964,811.51 729.095,815.538 731.226,819.558 733.356,823.569 
  735.487,827.572 737.618,831.566 739.749,835.551 741.88,839.528 744.01,843.495 746.141,847.453 748.272,851.401 750.403,855.34 752.534,859.27 754.664,863.189 
  756.795,867.099 758.926,870.998 761.057,874.888 763.187,878.767 765.318,882.635 767.449,886.493 769.58,890.34 771.711,894.176 773.841,898.001 775.972,901.816 
  778.103,905.619 780.234,909.41 782.365,913.19 784.495,916.959 786.626,920.715 788.757,924.46 790.888,928.193 793.018,931.914 795.149,935.623 797.28,939.319 
  799.411,943.003 801.542,946.675 803.672,950.334 805.803,953.98 807.934,957.614 810.065,961.234 812.196,964.842 814.326,968.436 816.457,972.017 818.588,975.585 
  820.719,979.139 822.85,982.68 824.98,986.207 827.111,989.72 829.242,993.22 831.373,996.706 833.503,1000.18 835.634,1003.64 837.765,1007.08 839.896,1010.51 
  842.027,1013.92 844.157,1017.32 846.288,1020.71 848.419,1024.08 850.55,1027.44 852.681,1030.78 854.811,1034.11 856.942,1037.42 859.073,1040.72 861.204,1044 
  863.335,1047.27 865.465,1050.52 867.596,1053.75 869.727,1056.98 871.858,1060.18 873.988,1063.37 876.119,1066.55 878.25,1069.71 880.381,1072.85 882.512,1075.98 
  884.642,1079.09 886.773,1082.19 888.904,1085.27 891.035,1088.33 893.166,1091.38 895.296,1094.41 897.427,1097.43 899.558,1100.43 901.689,1103.41 903.82,1106.38 
  905.95,1109.33 908.081,1112.27 910.212,1115.19 912.343,1118.09 914.473,1120.98 916.604,1123.85 918.735,1126.7 920.866,1129.54 922.997,1132.36 925.127,1135.16 
  927.258,1137.94 929.389,1140.71 931.52,1143.47 933.651,1146.2 935.781,1148.92 937.912,1151.62 940.043,1154.31 942.174,1156.98 944.304,1159.63 946.435,1162.26 
  948.566,1164.88 950.697,1167.48 952.828,1170.07 954.958,1172.63 957.089,1175.18 959.22,1177.71 961.351,1180.23 963.482,1182.73 965.612,1185.21 967.743,1187.67 
  969.874,1190.12 972.005,1192.55 974.136,1194.96 976.266,1197.35 978.397,1199.73 980.528,1202.09 982.659,1204.44 984.789,1206.76 986.92,1209.07 989.051,1211.36 
  991.182,1213.64 993.313,1215.89 995.443,1218.13 997.574,1220.36 999.705,1222.56 1001.84,1224.75 1003.97,1226.92 1006.1,1229.08 1008.23,1231.21 1010.36,1233.33 
  1012.49,1235.43 1014.62,1237.52 1016.75,1239.59 1018.88,1241.64 1021.01,1243.67 1023.14,1245.69 1025.27,1247.69 1027.41,1249.67 1029.54,1251.64 1031.67,1253.58 
  1033.8,1255.51 1035.93,1257.43 1038.06,1259.33 1040.19,1261.21 1042.32,1263.07 1044.45,1264.92 1046.58,1266.75 1048.71,1268.56 1050.84,1270.35 1052.97,1272.13 
  1055.11,1273.9 1057.24,1275.64 1059.37,1277.37 1061.5,1279.08 1063.63,1280.78 1065.76,1282.46 1067.89,1284.12 1070.02,1285.76 1072.15,1287.39 1074.28,1289.01 
  1076.41,1290.6 1078.54,1292.18 1080.67,1293.75 1082.81,1295.29 1084.94,1296.82 1087.07,1298.34 1089.2,1299.84 1091.33,1301.32 1093.46,1302.79 1095.59,1304.24 
  1097.72,1305.67 1099.85,1307.09 1101.98,1308.49 1104.11,1309.88 1106.24,1311.25 1108.38,1312.6 1110.51,1313.94 1112.64,1315.27 1114.77,1316.58 1116.9,1317.87 
  1119.03,1319.15 1121.16,1320.41 1123.29,1321.66 1125.42,1322.89 1127.55,1324.1 1129.68,1325.3 1131.81,1326.49 1133.94,1327.66 1136.08,1328.82 1138.21,1329.96 
  1140.34,1331.08 1142.47,1332.2 1144.6,1333.29 1146.73,1334.37 1148.86,1335.44 1150.99,1336.5 1153.12,1337.53 1155.25,1338.56 1157.38,1339.57 1159.51,1340.56 
  1161.64,1341.55 1163.78,1342.51 1165.91,1343.47 1168.04,1344.41 1170.17,1345.33 1172.3,1346.24 1174.43,1347.14 1176.56,1348.03 1178.69,1348.9 1180.82,1349.76 
  1182.95,1350.6 1185.08,1351.43 1187.21,1352.25 1189.35,1353.05 1191.48,1353.85 1193.61,1354.63 1195.74,1355.39 1197.87,1356.14 1200,1356.88 1202.13,1357.61 
  1204.26,1358.33 1206.39,1359.03 1208.52,1359.72 1210.65,1360.4 1212.78,1361.07 1214.91,1361.72 1217.05,1362.36 1219.18,1362.99 1221.31,1363.61 1223.44,1364.22 
  1225.57,1364.81 1227.7,1365.4 1229.83,1365.97 1231.96,1366.53 1234.09,1367.08 1236.22,1367.62 1238.35,1368.14 1240.48,1368.66 1242.61,1369.17 1244.75,1369.66 
  1246.88,1370.14 1249.01,1370.62 1251.14,1371.08 1253.27,1371.53 1255.4,1371.98 1257.53,1372.41 1259.66,1372.83 1261.79,1373.24 1263.92,1373.65 1266.05,1374.04 
  1268.18,1374.42 1270.32,1374.8 1272.45,1375.16 1274.58,1375.52 1276.71,1375.86 1278.84,1376.2 1280.97,1376.53 1283.1,1376.85 1285.23,1377.16 1287.36,1377.46 
  1289.49,1377.75 1291.62,1378.04 1293.75,1378.31 1295.88,1378.58 1298.02,1378.84 1300.15,1379.09 1302.28,1379.34 1304.41,1379.57 1306.54,1379.8 1308.67,1380.02 
  1310.8,1380.24 1312.93,1380.45 1315.06,1380.65 1317.19,1380.84 1319.32,1381.02 1321.45,1381.2 1323.58,1381.37 1325.72,1381.54 1327.85,1381.7 1329.98,1381.85 
  1332.11,1382 1334.24,1382.14 1336.37,1382.28 1338.5,1382.4 1340.63,1382.53 1342.76,1382.64 1344.89,1382.76 1347.02,1382.86 1349.15,1382.97 1351.29,1383.06 
  1353.42,1383.15 1355.55,1383.24 1357.68,1383.32 1359.81,1383.4 1361.94,1383.47 1364.07,1383.54 1366.2,1383.61 1368.33,1383.67 1370.46,1383.72 1372.59,1383.78 
  1374.72,1383.82 1376.85,1383.87 1378.99,1383.91 1381.12,1383.95 1383.25,1383.99 1385.38,1384.02 1387.51,1384.05 1389.64,1384.07 1391.77,1384.1 1393.9,1384.12 
  1396.03,1384.14 1398.16,1384.16 1400.29,1384.17 1402.42,1384.18 1404.55,1384.2 1406.69,1384.21 1408.82,1384.21 1410.95,1384.22 1413.08,1384.23 1415.21,1384.23 
  1417.34,1384.23 1419.47,1384.23 1421.6,1384.24 1423.73,1384.24 1425.86,1384.24 1427.99,1384.24 1430.12,1384.24 1432.26,1384.24 1434.39,1384.24 1436.52,1384.24 
  1438.65,1384.24 1440.78,1384.24 1442.91,1384.24 1445.04,1384.24 1447.17,1384.24 1449.3,1384.24 1451.43,1384.24 1453.56,1384.24 1455.69,1384.24 1457.82,1384.24 
  1459.96,1384.24 1462.09,1384.24 1464.22,1384.24 1466.35,1384.24 1468.48,1384.24 1470.61,1384.24 1472.74,1384.23 1474.87,1384.23 1477,1384.23 1479.13,1384.23 
  1481.26,1384.23 1483.39,1384.23 1485.52,1384.23 1487.66,1384.23 1489.79,1384.23 1491.92,1384.23 1494.05,1384.23 1496.18,1384.23 1498.31,1384.23 1500.44,1384.23 
  1502.57,1384.23 1504.7,1384.23 1506.83,1384.23 1508.96,1384.23 1511.09,1384.23 1513.23,1384.23 1515.36,1384.23 1517.49,1384.23 1519.62,1384.23 1521.75,1384.23 
  1523.88,1384.23 1526.01,1384.23 1528.14,1384.23 1530.27,1384.23 1532.4,1384.23 1534.53,1384.23 1536.66,1384.23 1538.79,1384.23 1540.93,1384.23 1543.06,1384.23 
  1545.19,1384.23 1547.32,1384.23 1549.45,1384.23 1551.58,1384.23 1553.71,1384.23 1555.84,1384.23 1557.97,1384.23 1560.1,1384.23 1562.23,1384.23 1564.36,1384.23 
  1566.49,1384.23 1568.63,1384.23 1570.76,1384.23 1572.89,1384.23 1575.02,1384.23 1577.15,1384.23 1579.28,1384.23 1581.41,1384.23 1583.54,1384.23 1585.67,1384.23 
  1587.8,1384.22 1589.93,1384.22 1592.06,1384.22 1594.2,1384.22 1596.33,1384.22 1598.46,1384.22 1600.59,1384.22 1602.72,1384.22 1604.85,1384.22 1606.98,1384.22 
  1609.11,1384.22 1611.24,1384.22 1613.37,1384.22 1615.5,1384.22 1617.63,1384.22 1619.76,1384.22 1621.9,1384.22 1624.03,1384.22 1626.16,1384.22 1628.29,1384.22 
  1630.42,1384.22 1632.55,1384.22 1634.68,1384.22 1636.81,1384.22 1638.94,1384.22 1641.07,1384.22 1643.2,1384.22 1645.33,1384.22 1647.46,1384.22 1649.6,1384.22 
  1651.73,1384.22 1653.86,1384.22 1655.99,1384.22 1658.12,1384.22 1660.25,1384.22 1662.38,1384.22 1664.51,1384.22 1666.64,1384.22 1668.77,1384.22 1670.9,1384.22 
  1673.03,1384.22 1675.17,1384.22 1677.3,1384.22 1679.43,1384.22 1681.56,1384.22 1683.69,1384.22 1685.82,1384.22 1687.95,1384.22 1690.08,1384.22 1692.21,1384.22 
  1694.34,1384.21 1696.47,1384.21 1698.6,1384.21 1700.73,1384.21 1702.87,1384.21 1705,1384.21 1707.13,1384.21 1709.26,1384.21 1711.39,1384.21 1713.52,1384.21 
  1715.65,1384.21 1717.78,1384.21 1719.91,1384.21 1722.04,1384.21 1724.17,1384.21 1726.3,1384.21 1728.43,1384.21 1730.57,1384.21 1732.7,1384.21 1734.83,1384.21 
  1736.96,1384.21 1739.09,1384.21 1741.22,1384.21 1743.35,1384.21 1745.48,1384.21 1747.61,1384.21 1749.74,1384.21 1751.87,1384.21 1754,1384.21 1756.14,1384.21 
  1758.27,1384.21 1760.4,1384.21 1762.53,1384.21 1764.66,1384.21 1766.79,1384.21 1768.92,1384.21 1771.05,1384.21 1773.18,1384.21 1775.31,1384.21 1777.44,1384.21 
  1779.57,1384.21 1781.7,1384.21 1783.84,1384.21 1785.97,1384.21 1788.1,1384.21 1790.23,1384.21 1792.36,1384.21 1794.49,1384.2 1796.62,1384.2 1798.75,1384.2 
  1800.88,1384.2 1803.01,1384.2 1805.14,1384.2 1807.27,1384.2 1809.4,1384.2 1811.54,1384.2 1813.67,1384.2 1815.8,1384.2 1817.93,1384.2 1820.06,1384.2 
  1822.19,1384.2 1824.32,1384.2 1826.45,1384.2 1828.58,1384.2 1830.71,1384.2 1832.84,1384.2 1834.97,1384.2 1837.11,1384.2 1839.24,1384.2 1841.37,1384.2 
  1843.5,1384.2 1845.63,1384.2 1847.76,1384.2 1849.89,1384.2 1852.02,1384.2 1854.15,1384.2 1856.28,1384.2 1858.41,1384.2 1860.54,1384.2 1862.67,1384.2 
  1864.81,1384.2 1866.94,1384.2 1869.07,1384.2 1871.2,1384.2 1873.33,1384.2 1875.46,1384.2 1877.59,1384.2 1879.72,1384.2 1881.85,1384.2 1883.98,1384.2 
  1886.11,1384.2 1888.24,1384.19 1890.37,1384.19 1892.51,1384.19 1894.64,1384.19 1896.77,1384.19 1898.9,1384.19 1901.03,1384.19 1903.16,1384.19 1905.29,1384.19 
  1907.42,1384.19 1909.55,1384.19 1911.68,1384.19 1913.81,1384.19 1915.94,1384.19 1918.07,1384.19 1920.21,1384.19 1922.34,1384.19 1924.47,1384.19 1926.6,1384.19 
  1928.73,1384.19 1930.86,1384.19 1932.99,1384.19 1935.12,1384.19 1937.25,1384.19 1939.38,1384.19 1941.51,1384.19 1943.64,1384.19 1945.78,1384.19 1947.91,1384.19 
  1950.04,1384.19 1952.17,1384.19 1954.3,1384.19 1956.43,1384.19 1958.56,1384.19 1960.69,1384.19 1962.82,1384.19 1964.95,1384.19 1967.08,1384.19 1969.21,1384.19 
  1971.34,1384.19 1973.48,1384.19 1975.61,1384.19 1977.74,1384.18 1979.87,1384.18 1982,1384.18 1984.13,1384.18 1986.26,1384.18 1988.39,1384.18 1990.52,1384.18 
  1992.65,1384.18 1994.78,1384.18 1996.91,1384.18 1999.04,1384.18 2001.18,1384.18 2003.31,1384.18 2005.44,1384.18 2007.57,1384.18 2009.7,1384.18 2011.83,1384.18 
  2013.96,1384.18 2016.09,1384.18 2018.22,1384.18 2020.35,1384.18 2022.48,1384.18 2024.61,1384.18 2026.75,1384.18 2028.88,1384.18 2031.01,1384.18 2033.14,1384.18 
  2035.27,1384.18 2037.4,1384.18 2039.53,1384.18 2041.66,1384.18 2043.79,1384.18 2045.92,1384.18 2048.05,1384.18 2050.18,1384.18 2052.31,1384.18 2054.45,1384.18 
  2056.58,1384.18 2058.71,1384.18 2060.84,1384.17 2062.97,1384.17 2065.1,1384.17 2067.23,1384.17 2069.36,1384.17 2071.49,1384.17 2073.62,1384.17 2075.75,1384.17 
  2077.88,1384.17 2080.01,1384.17 2082.15,1384.17 2084.28,1384.17 2086.41,1384.17 2088.54,1384.17 2090.67,1384.17 2092.8,1384.17 2094.93,1384.17 2097.06,1384.17 
  2099.19,1384.17 2101.32,1384.17 2103.45,1384.17 2105.58,1384.17 2107.72,1384.17 2109.85,1384.17 2111.98,1384.17 2114.11,1384.17 2116.24,1384.17 2118.37,1384.17 
  2120.5,1384.17 2122.63,1384.17 2124.76,1384.17 2126.89,1384.17 2129.02,1384.17 2131.15,1384.17 2133.28,1384.17 2135.42,1384.17 2137.55,1384.17 2139.68,1384.17 
  2141.81,1384.16 2143.94,1384.16 2146.07,1384.16 2148.2,1384.16 2150.33,1384.16 2152.46,1384.16 2154.59,1384.16 2156.72,1384.16 2158.85,1384.16 2160.98,1384.16 
  2163.12,1384.16 2165.25,1384.16 2167.38,1384.16 2169.51,1384.16 2171.64,1384.16 2173.77,1384.16 2175.9,1384.16 2178.03,1384.16 2180.16,1384.16 2182.29,1384.16 
  2184.42,1384.16 2186.55,1384.16 2188.69,1384.16 2190.82,1384.16 2192.95,1384.16 2195.08,1384.16 2197.21,1384.16 2199.34,1384.16 2201.47,1384.16 2203.6,1384.16 
  2205.73,1384.16 2207.86,1384.16 2209.99,1384.16 2212.12,1384.16 2214.25,1384.16 2216.39,1384.16 2218.52,1384.16 2220.65,1384.15 2222.78,1384.15 2224.91,1384.15 
  2227.04,1384.15 2229.17,1384.15 2231.3,1384.15 2233.43,1384.15 2235.56,1384.15 2237.69,1384.15 2239.82,1384.15 2241.95,1384.15 2244.09,1384.15 2246.22,1384.15 
  2248.35,1384.15 2250.48,1384.15 2252.61,1384.15 2254.74,1384.15 2256.87,1384.15 2259,1384.15 2261.13,1384.15 2263.26,1384.15 2265.39,1384.15 2267.52,1384.15 
  2269.66,1384.15 2271.79,1384.15 2273.92,1384.15 2276.05,1384.15 2278.18,1384.15 2280.31,1384.15 2282.44,1384.15 2284.57,1384.15 2286.7,1384.15 2288.83,1384.15 
  2290.96,1384.15 2293.09,1384.15 2295.22,1384.14 2297.36,1384.14 2299.49,1384.14 2301.62,1384.14 2303.75,1384.14 2305.88,1384.14 2308.01,1384.14 2310.14,1384.14 
  2312.27,1384.14 2314.4,1384.14 2316.53,1384.14 2318.66,1384.14 2320.79,1384.14 2322.92,1384.14 2325.06,1384.14 2327.19,1384.14 2329.32,1384.14 2331.45,1384.14 
  2333.58,1384.14 2335.71,1384.14 2337.84,1384.14 2339.97,1384.14 2342.1,1384.14 2344.23,1384.14 2346.36,1384.14 2348.49,1384.14 2350.63,1384.14 2352.76,1384.14 
  
  "/>
<polyline clip-path="url(#clip452)" style="stroke:#e26f46; stroke-linecap:butt; stroke-linejoin:round; stroke-width:4; stroke-opacity:1; fill:none" points="
  224.098,86.2355 226.229,93.0847 228.359,99.9284 230.49,106.764 232.621,113.59 234.752,120.405 236.883,127.207 239.013,133.996 241.144,140.77 243.275,147.527 
  245.406,154.268 247.537,160.992 249.667,167.697 251.798,174.382 253.929,181.048 256.06,187.693 258.19,194.316 260.321,200.917 262.452,207.495 264.583,214.05 
  266.714,220.581 268.844,227.087 270.975,233.569 273.106,240.024 275.237,246.453 277.368,252.856 279.498,259.231 281.629,265.579 283.76,271.898 285.891,278.189 
  288.022,284.451 290.152,290.683 292.283,296.885 294.414,303.057 296.545,309.199 298.675,315.309 300.806,321.388 302.937,327.435 305.068,333.449 307.199,339.431 
  309.329,345.381 311.46,351.297 313.591,357.179 315.722,363.028 317.853,368.842 319.983,374.622 322.114,380.367 324.245,386.077 326.376,391.752 328.507,397.391 
  330.637,402.995 332.768,408.562 334.899,414.093 337.03,419.587 339.16,425.045 341.291,430.465 343.422,435.849 345.553,441.194 347.684,446.502 349.814,451.772 
  351.945,457.004 354.076,462.198 356.207,467.353 358.338,472.47 360.468,477.547 362.599,482.586 364.73,487.585 366.861,492.545 368.992,497.466 371.122,502.346 
  373.253,507.187 375.384,511.988 377.515,516.749 379.645,521.47 381.776,526.15 383.907,530.79 386.038,535.39 388.169,539.948 390.299,544.466 392.43,548.943 
  394.561,553.378 396.692,557.773 398.823,562.126 400.953,566.439 403.084,570.709 405.215,574.938 407.346,579.126 409.477,583.272 411.607,587.377 413.738,591.439 
  415.869,595.46 418,599.439 420.13,603.376 422.261,607.271 424.392,611.124 426.523,614.935 428.654,618.703 430.784,622.43 432.915,626.115 435.046,629.757 
  437.177,633.357 439.308,636.915 441.438,640.43 443.569,643.903 445.7,647.334 447.831,650.723 449.961,654.069 452.092,657.373 454.223,660.635 456.354,663.855 
  458.485,667.032 460.615,670.167 462.746,673.259 464.877,676.31 467.008,679.318 469.139,682.284 471.269,685.207 473.4,688.089 475.531,690.928 477.662,693.726 
  479.793,696.481 481.923,699.194 484.054,701.865 486.185,704.495 488.316,707.082 490.446,709.628 492.577,712.132 494.708,714.594 496.839,717.014 498.97,719.393 
  501.1,721.731 503.231,724.026 505.362,726.281 507.493,728.494 509.624,730.666 511.754,732.796 513.885,734.886 516.016,736.934 518.147,738.942 520.278,740.908 
  522.408,742.834 524.539,744.719 526.67,746.564 528.801,748.368 530.931,750.131 533.062,751.854 535.193,753.537 537.324,755.18 539.455,756.783 541.585,758.346 
  543.716,759.869 545.847,761.353 547.978,762.796 550.109,764.201 552.239,765.566 554.37,766.891 556.501,768.178 558.632,769.426 560.763,770.634 562.893,771.804 
  565.024,772.936 567.155,774.028 569.286,775.083 571.416,776.099 573.547,777.077 575.678,778.017 577.809,778.919 579.94,779.784 582.07,780.61 584.201,781.4 
  586.332,782.152 588.463,782.867 590.594,783.545 592.724,784.186 594.855,784.791 596.986,785.359 599.117,785.89 601.247,786.385 603.378,786.844 605.509,787.268 
  607.64,787.655 609.771,788.007 611.901,788.323 614.032,788.604 616.163,788.85 618.294,789.061 620.425,789.237 622.555,789.378 624.686,789.485 626.817,789.557 
  628.948,789.596 631.079,789.6 633.209,789.57 635.34,789.507 637.471,789.411 639.602,789.281 641.732,789.118 643.863,788.922 645.994,788.693 648.125,788.432 
  650.256,788.138 652.386,787.812 654.517,787.454 656.648,787.065 658.779,786.643 660.91,786.19 663.04,785.706 665.171,785.19 667.302,784.644 669.433,784.067 
  671.564,783.459 673.694,782.821 675.825,782.153 677.956,781.455 680.087,780.727 682.217,779.969 684.348,779.182 686.479,778.366 688.61,777.52 690.741,776.646 
  692.871,775.744 695.002,774.812 697.133,773.853 699.264,772.866 701.395,771.85 703.525,770.807 705.656,769.737 707.787,768.64 709.918,767.515 712.049,766.363 
  714.179,765.185 716.31,763.981 718.441,762.75 720.572,761.493 722.702,760.211 724.833,758.903 726.964,757.569 729.095,756.21 731.226,754.826 733.356,753.418 
  735.487,751.984 737.618,750.527 739.749,749.045 741.88,747.539 744.01,746.01 746.141,744.457 748.272,742.881 750.403,741.281 752.534,739.659 754.664,738.014 
  756.795,736.346 758.926,734.656 761.057,732.944 763.187,731.21 765.318,729.455 767.449,727.678 769.58,725.88 771.711,724.06 773.841,722.22 775.972,720.36 
  778.103,718.479 780.234,716.577 782.365,714.656 784.495,712.715 786.626,710.755 788.757,708.775 790.888,706.776 793.018,704.758 795.149,702.722 797.28,700.667 
  799.411,698.593 801.542,696.502 803.672,694.393 805.803,692.266 807.934,690.122 810.065,687.961 812.196,685.782 814.326,683.587 816.457,681.375 818.588,679.147 
  820.719,676.903 822.85,674.643 824.98,672.367 827.111,670.076 829.242,667.769 831.373,665.447 833.503,663.111 835.634,660.76 837.765,658.394 839.896,656.014 
  842.027,653.62 844.157,651.212 846.288,648.791 848.419,646.356 850.55,643.908 852.681,641.447 854.811,638.974 856.942,636.488 859.073,633.989 861.204,631.478 
  863.335,628.956 865.465,626.422 867.596,623.876 869.727,621.319 871.858,618.751 873.988,616.171 876.119,613.582 878.25,610.982 880.381,608.371 882.512,605.751 
  884.642,603.12 886.773,600.48 888.904,597.831 891.035,595.172 893.166,592.505 895.296,589.828 897.427,587.143 899.558,584.45 901.689,581.748 903.82,579.038 
  905.95,576.321 908.081,573.596 910.212,570.863 912.343,568.124 914.473,565.377 916.604,562.623 918.735,559.863 920.866,557.097 922.997,554.324 925.127,551.545 
  927.258,548.761 929.389,545.971 931.52,543.175 933.651,540.375 935.781,537.569 937.912,534.758 940.043,531.943 942.174,529.124 944.304,526.3 946.435,523.472 
  948.566,520.64 950.697,517.805 952.828,514.966 954.958,512.124 957.089,509.279 959.22,506.431 961.351,503.58 963.482,500.727 965.612,497.871 967.743,495.013 
  969.874,492.153 972.005,489.292 974.136,486.429 976.266,483.565 978.397,480.699 980.528,477.832 982.659,474.965 984.789,472.097 986.92,469.228 989.051,466.359 
  991.182,463.49 993.313,460.621 995.443,457.753 997.574,454.884 999.705,452.017 1001.84,449.15 1003.97,446.284 1006.1,443.42 1008.23,440.556 1010.36,437.694 
  1012.49,434.834 1014.62,431.976 1016.75,429.12 1018.88,426.266 1021.01,423.414 1023.14,420.565 1025.27,417.718 1027.41,414.875 1029.54,412.034 1031.67,409.197 
  1033.8,406.363 1035.93,403.533 1038.06,400.706 1040.19,397.883 1042.32,395.065 1044.45,392.25 1046.58,389.44 1048.71,386.635 1050.84,383.834 1052.97,381.038 
  1055.11,378.248 1057.24,375.462 1059.37,372.682 1061.5,369.907 1063.63,367.138 1065.76,364.375 1067.89,361.618 1070.02,358.867 1072.15,356.122 1074.28,353.384 
  1076.41,350.652 1078.54,347.927 1080.67,345.209 1082.81,342.499 1084.94,339.795 1087.07,337.099 1089.2,334.41 1091.33,331.729 1093.46,329.056 1095.59,326.391 
  1097.72,323.734 1099.85,321.085 1101.98,318.445 1104.11,315.813 1106.24,313.19 1108.38,310.576 1110.51,307.971 1112.64,305.374 1114.77,302.788 1116.9,300.21 
  1119.03,297.643 1121.16,295.085 1123.29,292.536 1125.42,289.998 1127.55,287.47 1129.68,284.952 1131.81,282.445 1133.94,279.948 1136.08,277.462 1138.21,274.986 
  1140.34,272.522 1142.47,270.068 1144.6,267.626 1146.73,265.195 1148.86,262.775 1150.99,260.368 1153.12,257.971 1155.25,255.587 1157.38,253.215 1159.51,250.854 
  1161.64,248.506 1163.78,246.171 1165.91,243.847 1168.04,241.537 1170.17,239.239 1172.3,236.954 1174.43,234.682 1176.56,232.423 1178.69,230.177 1180.82,227.944 
  1182.95,225.725 1185.08,223.52 1187.21,221.328 1189.35,219.15 1191.48,216.986 1193.61,214.836 1195.74,212.7 1197.87,210.578 1200,208.471 1202.13,206.378 
  1204.26,204.3 1206.39,202.236 1208.52,200.187 1210.65,198.153 1212.78,196.135 1214.91,194.131 1217.05,192.143 1219.18,190.17 1221.31,188.212 1223.44,186.27 
  1225.57,184.344 1227.7,182.433 1229.83,180.539 1231.96,178.66 1234.09,176.798 1236.22,174.951 1238.35,173.121 1240.48,171.307 1242.61,169.51 1244.75,167.73 
  1246.88,165.966 1249.01,164.219 1251.14,162.489 1253.27,160.775 1255.4,159.079 1257.53,157.4 1259.66,155.739 1261.79,154.094 1263.92,152.467 1266.05,150.858 
  1268.18,149.267 1270.32,147.693 1272.45,146.137 1274.58,144.598 1276.71,143.078 1278.84,141.576 1280.97,140.093 1283.1,138.627 1285.23,137.18 1287.36,135.751 
  1289.49,134.341 1291.62,132.95 1293.75,131.577 1295.88,130.223 1298.02,128.888 1300.15,127.572 1302.28,126.275 1304.41,124.997 1306.54,123.738 1308.67,122.499 
  1310.8,121.279 1312.93,120.078 1315.06,118.897 1317.19,117.736 1319.32,116.594 1321.45,115.473 1323.58,114.371 1325.72,113.289 1327.85,112.227 1329.98,111.185 
  1332.11,110.163 1334.24,109.162 1336.37,108.181 1338.5,107.22 1340.63,106.28 1342.76,105.36 1344.89,104.461 1347.02,103.583 1349.15,102.726 1351.29,101.889 
  1353.42,101.074 1355.55,100.279 1357.68,99.5043 1359.81,98.751 1361.94,98.019 1364.07,97.3084 1366.2,96.6194 1368.33,95.9521 1370.46,95.3066 1372.59,94.683 
  1374.72,94.0813 1376.85,93.5016 1378.99,92.9438 1381.12,92.4078 1383.25,91.8937 1385.38,91.4013 1387.51,90.9305 1389.64,90.4813 1391.77,90.0542 1393.9,89.6494 
  1396.03,89.267 1398.16,88.907 1400.29,88.5696 1402.42,88.2546 1404.55,87.9621 1406.69,87.6913 1408.82,87.4431 1410.95,87.2186 1413.08,87.0181 1415.21,86.8411 
  1417.34,86.6866 1419.47,86.5536 1421.6,86.4437 1423.73,86.3574 1425.86,86.2934 1427.99,86.2461 1430.12,86.2216 1432.26,86.2076 1434.39,86.2072 1436.52,86.2071 
  1438.65,86.2071 1440.78,86.207 1442.91,86.207 1445.04,86.2069 1447.17,86.2069 1449.3,86.2068 1451.43,86.2068 1453.56,86.2067 1455.69,86.2067 1457.82,86.2066 
  1459.96,86.2066 1462.09,86.2065 1464.22,86.2065 1466.35,86.2064 1468.48,86.2064 1470.61,86.2063 1472.74,86.2063 1474.87,86.2062 1477,86.2062 1479.13,86.2061 
  1481.26,86.2061 1483.39,86.206 1485.52,86.206 1487.66,86.2059 1489.79,86.2059 1491.92,86.2058 1494.05,86.2058 1496.18,86.2057 1498.31,86.2057 1500.44,86.2056 
  1502.57,86.2056 1504.7,86.2055 1506.83,86.2055 1508.96,86.2054 1511.09,86.2054 1513.23,86.2053 1515.36,86.2053 1517.49,86.2052 1519.62,86.2052 1521.75,86.2051 
  1523.88,86.2051 1526.01,86.205 1528.14,86.205 1530.27,86.2049 1532.4,86.2049 1534.53,86.2048 1536.66,86.2048 1538.79,86.2047 1540.93,86.2047 1543.06,86.2046 
  1545.19,86.2046 1547.32,86.2045 1549.45,86.2045 1551.58,86.2044 1553.71,86.2044 1555.84,86.2043 1557.97,86.2043 1560.1,86.2042 1562.23,86.2042 1564.36,86.2041 
  1566.49,86.2041 1568.63,86.204 1570.76,86.204 1572.89,86.2039 1575.02,86.2039 1577.15,86.2038 1579.28,86.2038 1581.41,86.2037 1583.54,86.2037 1585.67,86.2036 
  1587.8,86.2036 1589.93,86.2035 1592.06,86.2035 1594.2,86.2034 1596.33,86.2034 1598.46,86.2033 1600.59,86.2033 1602.72,86.2032 1604.85,86.2032 1606.98,86.2031 
  1609.11,86.2031 1611.24,86.203 1613.37,86.203 1615.5,86.2029 1617.63,86.2029 1619.76,86.2028 1621.9,86.2028 1624.03,86.2027 1626.16,86.2027 1628.29,86.2026 
  1630.42,86.2026 1632.55,86.2025 1634.68,86.2025 1636.81,86.2024 1638.94,86.2024 1641.07,86.2023 1643.2,86.2023 1645.33,86.2022 1647.46,86.2022 1649.6,86.2021 
  1651.73,86.2021 1653.86,86.202 1655.99,86.202 1658.12,86.2019 1660.25,86.2019 1662.38,86.2018 1664.51,86.2018 1666.64,86.2017 1668.77,86.2017 1670.9,86.2016 
  1673.03,86.2016 1675.17,86.2015 1677.3,86.2015 1679.43,86.2014 1681.56,86.2014 1683.69,86.2013 1685.82,86.2013 1687.95,86.2012 1690.08,86.2012 1692.21,86.2011 
  1694.34,86.2011 1696.47,86.201 1698.6,86.201 1700.73,86.2009 1702.87,86.2009 1705,86.2008 1707.13,86.2008 1709.26,86.2007 1711.39,86.2007 1713.52,86.2006 
  1715.65,86.2006 1717.78,86.2005 1719.91,86.2005 1722.04,86.2004 1724.17,86.2004 1726.3,86.2003 1728.43,86.2003 1730.57,86.2002 1732.7,86.2002 1734.83,86.2001 
  1736.96,86.2001 1739.09,86.2 1741.22,86.2 1743.35,86.1999 1745.48,86.1999 1747.61,86.1998 1749.74,86.1998 1751.87,86.1997 1754,86.1997 1756.14,86.1996 
  1758.27,86.1996 1760.4,86.1995 1762.53,86.1995 1764.66,86.1994 1766.79,86.1994 1768.92,86.1993 1771.05,86.1993 1773.18,86.1992 1775.31,86.1992 1777.44,86.1991 
  1779.57,86.1991 1781.7,86.199 1783.84,86.199 1785.97,86.1989 1788.1,86.1989 1790.23,86.1988 1792.36,86.1988 1794.49,86.1987 1796.62,86.1987 1798.75,86.1986 
  1800.88,86.1986 1803.01,86.1985 1805.14,86.1985 1807.27,86.1984 1809.4,86.1984 1811.54,86.1983 1813.67,86.1983 1815.8,86.1982 1817.93,86.1982 1820.06,86.1981 
  1822.19,86.1981 1824.32,86.198 1826.45,86.198 1828.58,86.1979 1830.71,86.1979 1832.84,86.1978 1834.97,86.1978 1837.11,86.1977 1839.24,86.1977 1841.37,86.1976 
  1843.5,86.1976 1845.63,86.1975 1847.76,86.1975 1849.89,86.1974 1852.02,86.1974 1854.15,86.1973 1856.28,86.1973 1858.41,86.1972 1860.54,86.1972 1862.67,86.1971 
  1864.81,86.1971 1866.94,86.197 1869.07,86.197 1871.2,86.1969 1873.33,86.1969 1875.46,86.1968 1877.59,86.1968 1879.72,86.1967 1881.85,86.1967 1883.98,86.1966 
  1886.11,86.1966 1888.24,86.1965 1890.37,86.1965 1892.51,86.1964 1894.64,86.1964 1896.77,86.1963 1898.9,86.1963 1901.03,86.1962 1903.16,86.1962 1905.29,86.1961 
  1907.42,86.1961 1909.55,86.196 1911.68,86.196 1913.81,86.1959 1915.94,86.1959 1918.07,86.1958 1920.21,86.1958 1922.34,86.1957 1924.47,86.1957 1926.6,86.1956 
  1928.73,86.1956 1930.86,86.1955 1932.99,86.1955 1935.12,86.1954 1937.25,86.1954 1939.38,86.1953 1941.51,86.1953 1943.64,86.1952 1945.78,86.1952 1947.91,86.1951 
  1950.04,86.1951 1952.17,86.195 1954.3,86.195 1956.43,86.1949 1958.56,86.1949 1960.69,86.1948 1962.82,86.1948 1964.95,86.1948 1967.08,86.1947 1969.21,86.1947 
  1971.34,86.1946 1973.48,86.1946 1975.61,86.1945 1977.74,86.1945 1979.87,86.1944 1982,86.1944 1984.13,86.1943 1986.26,86.1943 1988.39,86.1942 1990.52,86.1942 
  1992.65,86.1941 1994.78,86.1941 1996.91,86.194 1999.04,86.194 2001.18,86.1939 2003.31,86.1939 2005.44,86.1938 2007.57,86.1938 2009.7,86.1937 2011.83,86.1937 
  2013.96,86.1936 2016.09,86.1936 2018.22,86.1935 2020.35,86.1935 2022.48,86.1934 2024.61,86.1934 2026.75,86.1933 2028.88,86.1933 2031.01,86.1932 2033.14,86.1932 
  2035.27,86.1931 2037.4,86.1931 2039.53,86.193 2041.66,86.193 2043.79,86.1929 2045.92,86.1929 2048.05,86.1928 2050.18,86.1928 2052.31,86.1927 2054.45,86.1927 
  2056.58,86.1926 2058.71,86.1926 2060.84,86.1925 2062.97,86.1925 2065.1,86.1924 2067.23,86.1924 2069.36,86.1923 2071.49,86.1923 2073.62,86.1922 2075.75,86.1922 
  2077.88,86.1921 2080.01,86.1921 2082.15,86.192 2084.28,86.192 2086.41,86.1919 2088.54,86.1919 2090.67,86.1918 2092.8,86.1918 2094.93,86.1917 2097.06,86.1917 
  2099.19,86.1916 2101.32,86.1916 2103.45,86.1915 2105.58,86.1915 2107.72,86.1914 2109.85,86.1914 2111.98,86.1913 2114.11,86.1913 2116.24,86.1912 2118.37,86.1912 
  2120.5,86.1911 2122.63,86.1911 2124.76,86.191 2126.89,86.191 2129.02,86.1909 2131.15,86.1909 2133.28,86.1908 2135.42,86.1908 2137.55,86.1907 2139.68,86.1907 
  2141.81,86.1906 2143.94,86.1906 2146.07,86.1905 2148.2,86.1905 2150.33,86.1904 2152.46,86.1904 2154.59,86.1903 2156.72,86.1903 2158.85,86.1902 2160.98,86.1902 
  2163.12,86.1901 2165.25,86.1901 2167.38,86.19 2169.51,86.19 2171.64,86.1899 2173.77,86.1899 2175.9,86.1898 2178.03,86.1898 2180.16,86.1897 2182.29,86.1897 
  2184.42,86.1896 2186.55,86.1896 2188.69,86.1895 2190.82,86.1895 2192.95,86.1894 2195.08,86.1894 2197.21,86.1893 2199.34,86.1893 2201.47,86.1892 2203.6,86.1892 
  2205.73,86.1891 2207.86,86.1891 2209.99,86.189 2212.12,86.189 2214.25,86.1889 2216.39,86.1889 2218.52,86.1888 2220.65,86.1888 2222.78,86.1887 2224.91,86.1887 
  2227.04,86.1886 2229.17,86.1886 2231.3,86.1885 2233.43,86.1885 2235.56,86.1884 2237.69,86.1884 2239.82,86.1883 2241.95,86.1883 2244.09,86.1882 2246.22,86.1882 
  2248.35,86.1881 2250.48,86.1881 2252.61,86.188 2254.74,86.188 2256.87,86.1879 2259,86.1879 2261.13,86.1878 2263.26,86.1878 2265.39,86.1877 2267.52,86.1877 
  2269.66,86.1876 2271.79,86.1876 2273.92,86.1875 2276.05,86.1875 2278.18,86.1874 2280.31,86.1874 2282.44,86.1873 2284.57,86.1873 2286.7,86.1872 2288.83,86.1872 
  2290.96,86.1871 2293.09,86.1871 2295.22,86.187 2297.36,86.187 2299.49,86.1869 2301.62,86.1869 2303.75,86.1868 2305.88,86.1868 2308.01,86.1867 2310.14,86.1867 
  2312.27,86.1866 2314.4,86.1866 2316.53,86.1865 2318.66,86.1865 2320.79,86.1864 2322.92,86.1864 2325.06,86.1863 2327.19,86.1863 2329.32,86.1862 2331.45,86.1862 
  2333.58,86.1861 2335.71,86.1861 2337.84,86.186 2339.97,86.186 2342.1,86.1859 2344.23,86.1859 2346.36,86.1858 2348.49,86.1858 2350.63,86.1857 2352.76,86.1857 
  
  "/>
<path clip-path="url(#clip450)" d="
M1947.71 248.629 L2281.8 248.629 L2281.8 93.1086 L1947.71 93.1086  Z
  " fill="#ffffff" fill-rule="evenodd" fill-opacity="1"/>
<polyline clip-path="url(#clip450)" style="stroke:#000000; stroke-linecap:butt; stroke-linejoin:round; stroke-width:4; stroke-opacity:1; fill:none" points="
  1947.71,248.629 2281.8,248.629 2281.8,93.1086 1947.71,93.1086 1947.71,248.629 
  "/>
<polyline clip-path="url(#clip450)" style="stroke:#009af9; stroke-linecap:butt; stroke-linejoin:round; stroke-width:4; stroke-opacity:1; fill:none" points="
  1971.37,144.949 2113.28,144.949 
  "/>
<path clip-path="url(#clip450)" d="M2136.93 127.669 L2156.79 127.669 L2156.79 131.604 L2141.6 131.604 L2141.6 141.789 L2155.31 141.789 L2155.31 145.724 L2141.6 145.724 L2141.6 162.229 L2136.93 162.229 L2136.93 127.669 Z" fill="#000000" fill-rule="evenodd" fill-opacity="1" /><path clip-path="url(#clip450)" d="M2174.24 126.257 Q2171.14 131.581 2169.64 136.789 Q2168.13 141.997 2168.13 147.344 Q2168.13 152.692 2169.64 157.946 Q2171.16 163.178 2174.24 168.479 L2170.54 168.479 Q2167.07 163.039 2165.33 157.784 Q2163.62 152.53 2163.62 147.344 Q2163.62 142.182 2165.33 136.951 Q2167.04 131.72 2170.54 126.257 L2174.24 126.257 Z" fill="#000000" fill-rule="evenodd" fill-opacity="1" /><path clip-path="url(#clip450)" d="M2195.72 126.21 L2195.72 135.77 Q2200.33 135.77 2203.41 139.312 Q2206.58 142.923 2206.58 149.289 Q2206.58 155.655 2203.41 159.266 Q2200.33 162.807 2195.72 162.807 L2195.72 172.09 L2191.49 172.09 L2191.49 162.807 Q2186.88 162.807 2183.78 159.266 Q2180.63 155.655 2180.63 149.289 Q2180.63 142.923 2183.78 139.312 Q2186.88 135.77 2191.49 135.77 L2191.49 126.21 L2195.72 126.21 M2195.72 159.011 Q2198.34 159.011 2200.12 156.627 Q2202.07 153.965 2202.09 149.289 Q2202.11 144.659 2200.12 141.951 Q2198.34 139.567 2195.72 139.567 L2195.72 159.011 M2191.49 159.011 L2191.49 139.567 Q2188.87 139.567 2187.11 141.951 Q2185.1 144.659 2185.12 149.289 Q2185.15 153.965 2187.11 156.627 Q2188.87 159.011 2191.49 159.011 Z" fill="#000000" fill-rule="evenodd" fill-opacity="1" /><path clip-path="url(#clip450)" d="M2213.11 126.257 L2216.81 126.257 Q2220.28 131.72 2222 136.951 Q2223.73 142.182 2223.73 147.344 Q2223.73 152.53 2222 157.784 Q2220.28 163.039 2216.81 168.479 L2213.11 168.479 Q2216.19 163.178 2217.69 157.946 Q2219.22 152.692 2219.22 147.344 Q2219.22 141.997 2217.69 136.789 Q2216.19 131.581 2213.11 126.257 Z" fill="#000000" fill-rule="evenodd" fill-opacity="1" /><polyline clip-path="url(#clip450)" style="stroke:#e26f46; stroke-linecap:butt; stroke-linejoin:round; stroke-width:4; stroke-opacity:1; fill:none" points="
  1971.37,196.789 2113.28,196.789 
  "/>
<path clip-path="url(#clip450)" d="M2136.93 179.509 L2156.79 179.509 L2156.79 183.444 L2141.6 183.444 L2141.6 193.629 L2155.31 193.629 L2155.31 197.564 L2141.6 197.564 L2141.6 214.069 L2136.93 214.069 L2136.93 179.509 Z" fill="#000000" fill-rule="evenodd" fill-opacity="1" /><path clip-path="url(#clip450)" d="M2160.47 188.143 L2164.47 179.509 L2169.17 179.509 L2162.48 188.143 L2160.47 188.143 Z" fill="#000000" fill-rule="evenodd" fill-opacity="1" /><path clip-path="url(#clip450)" d="M2185.01 178.097 Q2181.9 183.421 2180.4 188.629 Q2178.9 193.837 2178.9 199.184 Q2178.9 204.532 2180.4 209.786 Q2181.93 215.018 2185.01 220.319 L2181.3 220.319 Q2177.83 214.879 2176.09 209.624 Q2174.38 204.37 2174.38 199.184 Q2174.38 194.022 2176.09 188.791 Q2177.81 183.56 2181.3 178.097 L2185.01 178.097 Z" fill="#000000" fill-rule="evenodd" fill-opacity="1" /><path clip-path="url(#clip450)" d="M2206.49 178.05 L2206.49 187.61 Q2211.09 187.61 2214.17 191.152 Q2217.34 194.763 2217.34 201.129 Q2217.34 207.495 2214.17 211.106 Q2211.09 214.647 2206.49 214.647 L2206.49 223.93 L2202.25 223.93 L2202.25 214.647 Q2197.65 214.647 2194.54 211.106 Q2191.4 207.495 2191.4 201.129 Q2191.4 194.763 2194.54 191.152 Q2197.65 187.61 2202.25 187.61 L2202.25 178.05 L2206.49 178.05 M2206.49 210.851 Q2209.1 210.851 2210.89 208.467 Q2212.83 205.805 2212.85 201.129 Q2212.88 196.499 2210.89 193.791 Q2209.1 191.407 2206.49 191.407 L2206.49 210.851 M2202.25 210.851 L2202.25 191.407 Q2199.64 191.407 2197.88 193.791 Q2195.86 196.499 2195.89 201.129 Q2195.91 205.805 2197.88 208.467 Q2199.64 210.851 2202.25 210.851 Z" fill="#000000" fill-rule="evenodd" fill-opacity="1" /><path clip-path="url(#clip450)" d="M2223.87 178.097 L2227.58 178.097 Q2231.05 183.56 2232.76 188.791 Q2234.5 194.022 2234.5 199.184 Q2234.5 204.37 2232.76 209.624 Q2231.05 214.879 2227.58 220.319 L2223.87 220.319 Q2226.95 215.018 2228.46 209.786 Q2229.98 204.532 2229.98 199.184 Q2229.98 193.837 2228.46 188.629 Q2226.95 183.421 2223.87 178.097 Z" fill="#000000" fill-rule="evenodd" fill-opacity="1" /></svg>
