<?xml version="1.0" encoding="utf-8"?>
<svg xmlns="http://www.w3.org/2000/svg" xmlns:xlink="http://www.w3.org/1999/xlink" width="600" height="400" viewBox="0 0 2400 1600">
<defs>
  <clipPath id="clip940">
    <rect x="0" y="0" width="2400" height="1600"/>
  </clipPath>
</defs>
<path clip-path="url(#clip940)" d="
M0 1600 L2400 1600 L2400 0 L0 0  Z
  " fill="#ffffff" fill-rule="evenodd" fill-opacity="1"/>
<defs>
  <clipPath id="clip941">
    <rect x="480" y="0" width="1681" height="1600"/>
  </clipPath>
</defs>
<path clip-path="url(#clip940)" d="
M251.071 1423.18 L2352.76 1423.18 L2352.76 47.2441 L251.071 47.2441  Z
  " fill="#ffffff" fill-rule="evenodd" fill-opacity="1"/>
<defs>
  <clipPath id="clip942">
    <rect x="251" y="47" width="2103" height="1377"/>
  </clipPath>
</defs>
<polyline clip-path="url(#clip942)" style="stroke:#000000; stroke-linecap:round; stroke-linejoin:round; stroke-width:2; stroke-opacity:0.1; fill:none" points="
  310.553,1423.18 310.553,47.2441 
  "/>
<polyline clip-path="url(#clip942)" style="stroke:#000000; stroke-linecap:round; stroke-linejoin:round; stroke-width:2; stroke-opacity:0.1; fill:none" points="
  707.097,1423.18 707.097,47.2441 
  "/>
<polyline clip-path="url(#clip942)" style="stroke:#000000; stroke-linecap:round; stroke-linejoin:round; stroke-width:2; stroke-opacity:0.1; fill:none" points="
  1103.64,1423.18 1103.64,47.2441 
  "/>
<polyline clip-path="url(#clip942)" style="stroke:#000000; stroke-linecap:round; stroke-linejoin:round; stroke-width:2; stroke-opacity:0.1; fill:none" points="
  1500.19,1423.18 1500.19,47.2441 
  "/>
<polyline clip-path="url(#clip942)" style="stroke:#000000; stroke-linecap:round; stroke-linejoin:round; stroke-width:2; stroke-opacity:0.1; fill:none" points="
  1896.73,1423.18 1896.73,47.2441 
  "/>
<polyline clip-path="url(#clip942)" style="stroke:#000000; stroke-linecap:round; stroke-linejoin:round; stroke-width:2; stroke-opacity:0.1; fill:none" points="
  2293.27,1423.18 2293.27,47.2441 
  "/>
<polyline clip-path="url(#clip940)" style="stroke:#000000; stroke-linecap:round; stroke-linejoin:round; stroke-width:4; stroke-opacity:1; fill:none" points="
  251.071,1423.18 2352.76,1423.18 
  "/>
<polyline clip-path="url(#clip940)" style="stroke:#000000; stroke-linecap:round; stroke-linejoin:round; stroke-width:4; stroke-opacity:1; fill:none" points="
  310.553,1423.18 310.553,1404.28 
  "/>
<polyline clip-path="url(#clip940)" style="stroke:#000000; stroke-linecap:round; stroke-linejoin:round; stroke-width:4; stroke-opacity:1; fill:none" points="
  707.097,1423.18 707.097,1404.28 
  "/>
<polyline clip-path="url(#clip940)" style="stroke:#000000; stroke-linecap:round; stroke-linejoin:round; stroke-width:4; stroke-opacity:1; fill:none" points="
  1103.64,1423.18 1103.64,1404.28 
  "/>
<polyline clip-path="url(#clip940)" style="stroke:#000000; stroke-linecap:round; stroke-linejoin:round; stroke-width:4; stroke-opacity:1; fill:none" points="
  1500.19,1423.18 1500.19,1404.28 
  "/>
<polyline clip-path="url(#clip940)" style="stroke:#000000; stroke-linecap:round; stroke-linejoin:round; stroke-width:4; stroke-opacity:1; fill:none" points="
  1896.73,1423.18 1896.73,1404.28 
  "/>
<polyline clip-path="url(#clip940)" style="stroke:#000000; stroke-linecap:round; stroke-linejoin:round; stroke-width:4; stroke-opacity:1; fill:none" points="
  2293.27,1423.18 2293.27,1404.28 
  "/>
<path clip-path="url(#clip940)" d="M310.553 1454.1 Q306.942 1454.1 305.113 1457.66 Q303.308 1461.2 303.308 1468.33 Q303.308 1475.44 305.113 1479.01 Q306.942 1482.55 310.553 1482.55 Q314.187 1482.55 315.993 1479.01 Q317.821 1475.44 317.821 1468.33 Q317.821 1461.2 315.993 1457.66 Q314.187 1454.1 310.553 1454.1 M310.553 1450.39 Q316.363 1450.39 319.419 1455 Q322.497 1459.58 322.497 1468.33 Q322.497 1477.06 319.419 1481.67 Q316.363 1486.25 310.553 1486.25 Q304.743 1486.25 301.664 1481.67 Q298.609 1477.06 298.609 1468.33 Q298.609 1459.58 301.664 1455 Q304.743 1450.39 310.553 1450.39 Z" fill="#000000" fill-rule="evenodd" fill-opacity="1" /><path clip-path="url(#clip940)" d="M651.623 1481.64 L659.262 1481.64 L659.262 1455.28 L650.952 1456.95 L650.952 1452.69 L659.215 1451.02 L663.891 1451.02 L663.891 1481.64 L671.53 1481.64 L671.53 1485.58 L651.623 1485.58 L651.623 1481.64 Z" fill="#000000" fill-rule="evenodd" fill-opacity="1" /><path clip-path="url(#clip940)" d="M690.975 1454.1 Q687.363 1454.1 685.535 1457.66 Q683.729 1461.2 683.729 1468.33 Q683.729 1475.44 685.535 1479.01 Q687.363 1482.55 690.975 1482.55 Q694.609 1482.55 696.414 1479.01 Q698.243 1475.44 698.243 1468.33 Q698.243 1461.2 696.414 1457.66 Q694.609 1454.1 690.975 1454.1 M690.975 1450.39 Q696.785 1450.39 699.84 1455 Q702.919 1459.58 702.919 1468.33 Q702.919 1477.06 699.84 1481.67 Q696.785 1486.25 690.975 1486.25 Q685.164 1486.25 682.086 1481.67 Q679.03 1477.06 679.03 1468.33 Q679.03 1459.58 682.086 1455 Q685.164 1450.39 690.975 1450.39 Z" fill="#000000" fill-rule="evenodd" fill-opacity="1" /><path clip-path="url(#clip940)" d="M721.136 1454.1 Q717.525 1454.1 715.697 1457.66 Q713.891 1461.2 713.891 1468.33 Q713.891 1475.44 715.697 1479.01 Q717.525 1482.55 721.136 1482.55 Q724.771 1482.55 726.576 1479.01 Q728.405 1475.44 728.405 1468.33 Q728.405 1461.2 726.576 1457.66 Q724.771 1454.1 721.136 1454.1 M721.136 1450.39 Q726.947 1450.39 730.002 1455 Q733.081 1459.58 733.081 1468.33 Q733.081 1477.06 730.002 1481.67 Q726.947 1486.25 721.136 1486.25 Q715.326 1486.25 712.248 1481.67 Q709.192 1477.06 709.192 1468.33 Q709.192 1459.58 712.248 1455 Q715.326 1450.39 721.136 1450.39 Z" fill="#000000" fill-rule="evenodd" fill-opacity="1" /><path clip-path="url(#clip940)" d="M751.298 1454.1 Q747.687 1454.1 745.859 1457.66 Q744.053 1461.2 744.053 1468.33 Q744.053 1475.44 745.859 1479.01 Q747.687 1482.55 751.298 1482.55 Q754.933 1482.55 756.738 1479.01 Q758.567 1475.44 758.567 1468.33 Q758.567 1461.2 756.738 1457.66 Q754.933 1454.1 751.298 1454.1 M751.298 1450.39 Q757.108 1450.39 760.164 1455 Q763.243 1459.58 763.243 1468.33 Q763.243 1477.06 760.164 1481.67 Q757.108 1486.25 751.298 1486.25 Q745.488 1486.25 742.409 1481.67 Q739.354 1477.06 739.354 1468.33 Q739.354 1459.58 742.409 1455 Q745.488 1450.39 751.298 1450.39 Z" fill="#000000" fill-rule="evenodd" fill-opacity="1" /><path clip-path="url(#clip940)" d="M1052.25 1481.64 L1068.57 1481.64 L1068.57 1485.58 L1046.63 1485.58 L1046.63 1481.64 Q1049.29 1478.89 1053.87 1474.26 Q1058.48 1469.61 1059.66 1468.27 Q1061.91 1465.74 1062.79 1464.01 Q1063.69 1462.25 1063.69 1460.56 Q1063.69 1457.8 1061.74 1456.07 Q1059.82 1454.33 1056.72 1454.33 Q1054.52 1454.33 1052.07 1455.09 Q1049.64 1455.86 1046.86 1457.41 L1046.86 1452.69 Q1049.68 1451.55 1052.14 1450.97 Q1054.59 1450.39 1056.63 1450.39 Q1062 1450.39 1065.19 1453.08 Q1068.39 1455.77 1068.39 1460.26 Q1068.39 1462.39 1067.58 1464.31 Q1066.79 1466.2 1064.68 1468.8 Q1064.1 1469.47 1061 1472.69 Q1057.9 1475.88 1052.25 1481.64 Z" fill="#000000" fill-rule="evenodd" fill-opacity="1" /><path clip-path="url(#clip940)" d="M1088.39 1454.1 Q1084.78 1454.1 1082.95 1457.66 Q1081.14 1461.2 1081.14 1468.33 Q1081.14 1475.44 1082.95 1479.01 Q1084.78 1482.55 1088.39 1482.55 Q1092.02 1482.55 1093.83 1479.01 Q1095.66 1475.44 1095.66 1468.33 Q1095.66 1461.2 1093.83 1457.66 Q1092.02 1454.1 1088.39 1454.1 M1088.39 1450.39 Q1094.2 1450.39 1097.25 1455 Q1100.33 1459.58 1100.33 1468.33 Q1100.33 1477.06 1097.25 1481.67 Q1094.2 1486.25 1088.39 1486.25 Q1082.58 1486.25 1079.5 1481.67 Q1076.44 1477.06 1076.44 1468.33 Q1076.44 1459.58 1079.5 1455 Q1082.58 1450.39 1088.39 1450.39 Z" fill="#000000" fill-rule="evenodd" fill-opacity="1" /><path clip-path="url(#clip940)" d="M1118.55 1454.1 Q1114.94 1454.1 1113.11 1457.66 Q1111.3 1461.2 1111.3 1468.33 Q1111.3 1475.44 1113.11 1479.01 Q1114.94 1482.55 1118.55 1482.55 Q1122.18 1482.55 1123.99 1479.01 Q1125.82 1475.44 1125.82 1468.33 Q1125.82 1461.2 1123.99 1457.66 Q1122.18 1454.1 1118.55 1454.1 M1118.55 1450.39 Q1124.36 1450.39 1127.41 1455 Q1130.49 1459.58 1130.49 1468.33 Q1130.49 1477.06 1127.41 1481.67 Q1124.36 1486.25 1118.55 1486.25 Q1112.74 1486.25 1109.66 1481.67 Q1106.6 1477.06 1106.6 1468.33 Q1106.6 1459.58 1109.66 1455 Q1112.74 1450.39 1118.55 1450.39 Z" fill="#000000" fill-rule="evenodd" fill-opacity="1" /><path clip-path="url(#clip940)" d="M1148.71 1454.1 Q1145.1 1454.1 1143.27 1457.66 Q1141.47 1461.2 1141.47 1468.33 Q1141.47 1475.44 1143.27 1479.01 Q1145.1 1482.55 1148.71 1482.55 Q1152.34 1482.55 1154.15 1479.01 Q1155.98 1475.44 1155.98 1468.33 Q1155.98 1461.2 1154.15 1457.66 Q1152.34 1454.1 1148.71 1454.1 M1148.71 1450.39 Q1154.52 1450.39 1157.58 1455 Q1160.66 1459.58 1160.66 1468.33 Q1160.66 1477.06 1157.58 1481.67 Q1154.52 1486.25 1148.71 1486.25 Q1142.9 1486.25 1139.82 1481.67 Q1136.77 1477.06 1136.77 1468.33 Q1136.77 1459.58 1139.82 1455 Q1142.9 1450.39 1148.71 1450.39 Z" fill="#000000" fill-rule="evenodd" fill-opacity="1" /><path clip-path="url(#clip940)" d="M1458.87 1466.95 Q1462.22 1467.66 1464.1 1469.93 Q1466 1472.2 1466 1475.53 Q1466 1480.65 1462.48 1483.45 Q1458.96 1486.25 1452.48 1486.25 Q1450.3 1486.25 1447.99 1485.81 Q1445.7 1485.39 1443.24 1484.54 L1443.24 1480.02 Q1445.19 1481.16 1447.5 1481.74 Q1449.82 1482.32 1452.34 1482.32 Q1456.74 1482.32 1459.03 1480.58 Q1461.34 1478.84 1461.34 1475.53 Q1461.34 1472.48 1459.19 1470.77 Q1457.06 1469.03 1453.24 1469.03 L1449.21 1469.03 L1449.21 1465.19 L1453.43 1465.19 Q1456.88 1465.19 1458.7 1463.82 Q1460.53 1462.43 1460.53 1459.84 Q1460.53 1457.18 1458.64 1455.77 Q1456.76 1454.33 1453.24 1454.33 Q1451.32 1454.33 1449.12 1454.75 Q1446.92 1455.16 1444.28 1456.04 L1444.28 1451.88 Q1446.95 1451.14 1449.26 1450.77 Q1451.6 1450.39 1453.66 1450.39 Q1458.98 1450.39 1462.08 1452.83 Q1465.19 1455.23 1465.19 1459.35 Q1465.19 1462.22 1463.54 1464.21 Q1461.9 1466.18 1458.87 1466.95 Z" fill="#000000" fill-rule="evenodd" fill-opacity="1" /><path clip-path="url(#clip940)" d="M1484.86 1454.1 Q1481.25 1454.1 1479.42 1457.66 Q1477.62 1461.2 1477.62 1468.33 Q1477.62 1475.44 1479.42 1479.01 Q1481.25 1482.55 1484.86 1482.55 Q1488.5 1482.55 1490.3 1479.01 Q1492.13 1475.44 1492.13 1468.33 Q1492.13 1461.2 1490.3 1457.66 Q1488.5 1454.1 1484.86 1454.1 M1484.86 1450.39 Q1490.67 1450.39 1493.73 1455 Q1496.81 1459.58 1496.81 1468.33 Q1496.81 1477.06 1493.73 1481.67 Q1490.67 1486.25 1484.86 1486.25 Q1479.05 1486.25 1475.97 1481.67 Q1472.92 1477.06 1472.92 1468.33 Q1472.92 1459.58 1475.97 1455 Q1479.05 1450.39 1484.86 1450.39 Z" fill="#000000" fill-rule="evenodd" fill-opacity="1" /><path clip-path="url(#clip940)" d="M1515.02 1454.1 Q1511.41 1454.1 1509.58 1457.66 Q1507.78 1461.2 1507.78 1468.33 Q1507.78 1475.44 1509.58 1479.01 Q1511.41 1482.55 1515.02 1482.55 Q1518.66 1482.55 1520.46 1479.01 Q1522.29 1475.44 1522.29 1468.33 Q1522.29 1461.2 1520.46 1457.66 Q1518.66 1454.1 1515.02 1454.1 M1515.02 1450.39 Q1520.83 1450.39 1523.89 1455 Q1526.97 1459.58 1526.97 1468.33 Q1526.97 1477.06 1523.89 1481.67 Q1520.83 1486.25 1515.02 1486.25 Q1509.21 1486.25 1506.13 1481.67 Q1503.08 1477.06 1503.08 1468.33 Q1503.08 1459.58 1506.13 1455 Q1509.21 1450.39 1515.02 1450.39 Z" fill="#000000" fill-rule="evenodd" fill-opacity="1" /><path clip-path="url(#clip940)" d="M1545.19 1454.1 Q1541.57 1454.1 1539.75 1457.66 Q1537.94 1461.2 1537.94 1468.33 Q1537.94 1475.44 1539.75 1479.01 Q1541.57 1482.55 1545.19 1482.55 Q1548.82 1482.55 1550.63 1479.01 Q1552.45 1475.44 1552.45 1468.33 Q1552.45 1461.2 1550.63 1457.66 Q1548.82 1454.1 1545.19 1454.1 M1545.19 1450.39 Q1551 1450.39 1554.05 1455 Q1557.13 1459.58 1557.13 1468.33 Q1557.13 1477.06 1554.05 1481.67 Q1551 1486.25 1545.19 1486.25 Q1539.38 1486.25 1536.3 1481.67 Q1533.24 1477.06 1533.24 1468.33 Q1533.24 1459.58 1536.3 1455 Q1539.38 1450.39 1545.19 1450.39 Z" fill="#000000" fill-rule="evenodd" fill-opacity="1" /><path clip-path="url(#clip940)" d="M1854.74 1455.09 L1842.93 1473.54 L1854.74 1473.54 L1854.74 1455.09 M1853.51 1451.02 L1859.39 1451.02 L1859.39 1473.54 L1864.32 1473.54 L1864.32 1477.43 L1859.39 1477.43 L1859.39 1485.58 L1854.74 1485.58 L1854.74 1477.43 L1839.14 1477.43 L1839.14 1472.92 L1853.51 1451.02 Z" fill="#000000" fill-rule="evenodd" fill-opacity="1" /><path clip-path="url(#clip940)" d="M1882.05 1454.1 Q1878.44 1454.1 1876.61 1457.66 Q1874.81 1461.2 1874.81 1468.33 Q1874.81 1475.44 1876.61 1479.01 Q1878.44 1482.55 1882.05 1482.55 Q1885.69 1482.55 1887.49 1479.01 Q1889.32 1475.44 1889.32 1468.33 Q1889.32 1461.2 1887.49 1457.66 Q1885.69 1454.1 1882.05 1454.1 M1882.05 1450.39 Q1887.86 1450.39 1890.92 1455 Q1894 1459.58 1894 1468.33 Q1894 1477.06 1890.92 1481.67 Q1887.86 1486.25 1882.05 1486.25 Q1876.24 1486.25 1873.17 1481.67 Q1870.11 1477.06 1870.11 1468.33 Q1870.11 1459.58 1873.17 1455 Q1876.24 1450.39 1882.05 1450.39 Z" fill="#000000" fill-rule="evenodd" fill-opacity="1" /><path clip-path="url(#clip940)" d="M1912.22 1454.1 Q1908.6 1454.1 1906.78 1457.66 Q1904.97 1461.2 1904.97 1468.33 Q1904.97 1475.44 1906.78 1479.01 Q1908.6 1482.55 1912.22 1482.55 Q1915.85 1482.55 1917.66 1479.01 Q1919.48 1475.44 1919.48 1468.33 Q1919.48 1461.2 1917.66 1457.66 Q1915.85 1454.1 1912.22 1454.1 M1912.22 1450.39 Q1918.03 1450.39 1921.08 1455 Q1924.16 1459.58 1924.16 1468.33 Q1924.16 1477.06 1921.08 1481.67 Q1918.03 1486.25 1912.22 1486.25 Q1906.41 1486.25 1903.33 1481.67 Q1900.27 1477.06 1900.27 1468.33 Q1900.27 1459.58 1903.33 1455 Q1906.41 1450.39 1912.22 1450.39 Z" fill="#000000" fill-rule="evenodd" fill-opacity="1" /><path clip-path="url(#clip940)" d="M1942.38 1454.1 Q1938.77 1454.1 1936.94 1457.66 Q1935.13 1461.2 1935.13 1468.33 Q1935.13 1475.44 1936.94 1479.01 Q1938.77 1482.55 1942.38 1482.55 Q1946.01 1482.55 1947.82 1479.01 Q1949.65 1475.44 1949.65 1468.33 Q1949.65 1461.2 1947.82 1457.66 Q1946.01 1454.1 1942.38 1454.1 M1942.38 1450.39 Q1948.19 1450.39 1951.24 1455 Q1954.32 1459.58 1954.32 1468.33 Q1954.32 1477.06 1951.24 1481.67 Q1948.19 1486.25 1942.38 1486.25 Q1936.57 1486.25 1933.49 1481.67 Q1930.43 1477.06 1930.43 1468.33 Q1930.43 1459.58 1933.49 1455 Q1936.57 1450.39 1942.38 1450.39 Z" fill="#000000" fill-rule="evenodd" fill-opacity="1" /><path clip-path="url(#clip940)" d="M2237.81 1451.02 L2256.17 1451.02 L2256.17 1454.96 L2242.09 1454.96 L2242.09 1463.43 Q2243.11 1463.08 2244.13 1462.92 Q2245.15 1462.73 2246.17 1462.73 Q2251.96 1462.73 2255.33 1465.9 Q2258.71 1469.08 2258.71 1474.49 Q2258.71 1480.07 2255.24 1483.17 Q2251.77 1486.25 2245.45 1486.25 Q2243.27 1486.25 2241.01 1485.88 Q2238.76 1485.51 2236.35 1484.77 L2236.35 1480.07 Q2238.44 1481.2 2240.66 1481.76 Q2242.88 1482.32 2245.36 1482.32 Q2249.36 1482.32 2251.7 1480.21 Q2254.04 1478.1 2254.04 1474.49 Q2254.04 1470.88 2251.7 1468.77 Q2249.36 1466.67 2245.36 1466.67 Q2243.48 1466.67 2241.61 1467.08 Q2239.76 1467.5 2237.81 1468.38 L2237.81 1451.02 Z" fill="#000000" fill-rule="evenodd" fill-opacity="1" /><path clip-path="url(#clip940)" d="M2277.93 1454.1 Q2274.32 1454.1 2272.49 1457.66 Q2270.68 1461.2 2270.68 1468.33 Q2270.68 1475.44 2272.49 1479.01 Q2274.32 1482.55 2277.93 1482.55 Q2281.56 1482.55 2283.37 1479.01 Q2285.2 1475.44 2285.2 1468.33 Q2285.2 1461.2 2283.37 1457.66 Q2281.56 1454.1 2277.93 1454.1 M2277.93 1450.39 Q2283.74 1450.39 2286.79 1455 Q2289.87 1459.58 2289.87 1468.33 Q2289.87 1477.06 2286.79 1481.67 Q2283.74 1486.25 2277.93 1486.25 Q2272.12 1486.25 2269.04 1481.67 Q2265.98 1477.06 2265.98 1468.33 Q2265.98 1459.58 2269.04 1455 Q2272.12 1450.39 2277.93 1450.39 Z" fill="#000000" fill-rule="evenodd" fill-opacity="1" /><path clip-path="url(#clip940)" d="M2308.09 1454.1 Q2304.48 1454.1 2302.65 1457.66 Q2300.84 1461.2 2300.84 1468.33 Q2300.84 1475.44 2302.65 1479.01 Q2304.48 1482.55 2308.09 1482.55 Q2311.72 1482.55 2313.53 1479.01 Q2315.36 1475.44 2315.36 1468.33 Q2315.36 1461.2 2313.53 1457.66 Q2311.72 1454.1 2308.09 1454.1 M2308.09 1450.39 Q2313.9 1450.39 2316.95 1455 Q2320.03 1459.58 2320.03 1468.33 Q2320.03 1477.06 2316.95 1481.67 Q2313.9 1486.25 2308.09 1486.25 Q2302.28 1486.25 2299.2 1481.67 Q2296.14 1477.06 2296.14 1468.33 Q2296.14 1459.58 2299.2 1455 Q2302.28 1450.39 2308.09 1450.39 Z" fill="#000000" fill-rule="evenodd" fill-opacity="1" /><path clip-path="url(#clip940)" d="M2338.25 1454.1 Q2334.64 1454.1 2332.81 1457.66 Q2331.01 1461.2 2331.01 1468.33 Q2331.01 1475.44 2332.81 1479.01 Q2334.64 1482.55 2338.25 1482.55 Q2341.89 1482.55 2343.69 1479.01 Q2345.52 1475.44 2345.52 1468.33 Q2345.52 1461.2 2343.69 1457.66 Q2341.89 1454.1 2338.25 1454.1 M2338.25 1450.39 Q2344.06 1450.39 2347.12 1455 Q2350.2 1459.58 2350.2 1468.33 Q2350.2 1477.06 2347.12 1481.67 Q2344.06 1486.25 2338.25 1486.25 Q2332.44 1486.25 2329.36 1481.67 Q2326.31 1477.06 2326.31 1468.33 Q2326.31 1459.58 2329.36 1455 Q2332.44 1450.39 2338.25 1450.39 Z" fill="#000000" fill-rule="evenodd" fill-opacity="1" /><path clip-path="url(#clip940)" d="M947.073 1520.52 L955.731 1520.52 L976.801 1560.28 L976.801 1520.52 L983.039 1520.52 L983.039 1568.04 L974.382 1568.04 L953.312 1528.29 L953.312 1568.04 L947.073 1568.04 L947.073 1520.52 Z" fill="#000000" fill-rule="evenodd" fill-opacity="1" /><path clip-path="url(#clip940)" d="M994.975 1553.98 L994.975 1532.4 L1000.83 1532.4 L1000.83 1553.75 Q1000.83 1558.81 1002.8 1561.36 Q1004.78 1563.87 1008.73 1563.87 Q1013.47 1563.87 1016.2 1560.85 Q1018.97 1557.83 1018.97 1552.61 L1018.97 1532.4 L1024.83 1532.4 L1024.83 1568.04 L1018.97 1568.04 L1018.97 1562.57 Q1016.84 1565.82 1014.01 1567.41 Q1011.21 1568.97 1007.48 1568.97 Q1001.34 1568.97 998.158 1565.15 Q994.975 1561.33 994.975 1553.98 M1009.71 1531.54 L1009.71 1531.54 Z" fill="#000000" fill-rule="evenodd" fill-opacity="1" /><path clip-path="url(#clip940)" d="M1064.65 1539.24 Q1066.84 1535.29 1069.9 1533.41 Q1072.96 1531.54 1077.09 1531.54 Q1082.66 1531.54 1085.69 1535.45 Q1088.71 1539.33 1088.71 1546.53 L1088.71 1568.04 L1082.82 1568.04 L1082.82 1546.72 Q1082.82 1541.59 1081.01 1539.11 Q1079.19 1536.63 1075.47 1536.63 Q1070.92 1536.63 1068.28 1539.65 Q1065.63 1542.68 1065.63 1547.9 L1065.63 1568.04 L1059.75 1568.04 L1059.75 1546.72 Q1059.75 1541.56 1057.93 1539.11 Q1056.12 1536.63 1052.33 1536.63 Q1047.84 1536.63 1045.2 1539.68 Q1042.56 1542.71 1042.56 1547.9 L1042.56 1568.04 L1036.67 1568.04 L1036.67 1532.4 L1042.56 1532.4 L1042.56 1537.93 Q1044.56 1534.66 1047.36 1533.1 Q1050.17 1531.54 1054.02 1531.54 Q1057.9 1531.54 1060.61 1533.51 Q1063.34 1535.48 1064.65 1539.24 Z" fill="#000000" fill-rule="evenodd" fill-opacity="1" /><path clip-path="url(#clip940)" d="M1125.98 1550.25 Q1125.98 1543.79 1123.31 1540.13 Q1120.67 1536.44 1116.02 1536.44 Q1111.37 1536.44 1108.7 1540.13 Q1106.06 1543.79 1106.06 1550.25 Q1106.06 1556.71 1108.7 1560.4 Q1111.37 1564.07 1116.02 1564.07 Q1120.67 1564.07 1123.31 1560.4 Q1125.98 1556.71 1125.98 1550.25 M1106.06 1537.81 Q1107.9 1534.62 1110.7 1533.1 Q1113.54 1531.54 1117.45 1531.54 Q1123.94 1531.54 1127.99 1536.69 Q1132.06 1541.85 1132.06 1550.25 Q1132.06 1558.65 1127.99 1563.81 Q1123.94 1568.97 1117.45 1568.97 Q1113.54 1568.97 1110.7 1567.44 Q1107.9 1565.88 1106.06 1562.7 L1106.06 1568.04 L1100.17 1568.04 L1100.17 1518.52 L1106.06 1518.52 L1106.06 1537.81 Z" fill="#000000" fill-rule="evenodd" fill-opacity="1" /><path clip-path="url(#clip940)" d="M1172.26 1548.76 L1172.26 1551.62 L1145.33 1551.62 Q1145.72 1557.67 1148.96 1560.85 Q1152.24 1564 1158.06 1564 Q1161.44 1564 1164.59 1563.17 Q1167.77 1562.35 1170.89 1560.69 L1170.89 1566.23 Q1167.74 1567.57 1164.43 1568.27 Q1161.12 1568.97 1157.71 1568.97 Q1149.18 1568.97 1144.19 1564 Q1139.22 1559.04 1139.22 1550.57 Q1139.22 1541.82 1143.93 1536.69 Q1148.68 1531.54 1156.7 1531.54 Q1163.89 1531.54 1168.06 1536.18 Q1172.26 1540.8 1172.26 1548.76 M1166.4 1547.04 Q1166.34 1542.23 1163.7 1539.37 Q1161.09 1536.5 1156.76 1536.5 Q1151.86 1536.5 1148.9 1539.27 Q1145.97 1542.04 1145.52 1547.07 L1166.4 1547.04 Z" fill="#000000" fill-rule="evenodd" fill-opacity="1" /><path clip-path="url(#clip940)" d="M1202.53 1537.87 Q1201.54 1537.3 1200.36 1537.04 Q1199.22 1536.76 1197.82 1536.76 Q1192.85 1536.76 1190.18 1540 Q1187.54 1543.22 1187.54 1549.27 L1187.54 1568.04 L1181.65 1568.04 L1181.65 1532.4 L1187.54 1532.4 L1187.54 1537.93 Q1189.38 1534.69 1192.34 1533.13 Q1195.3 1531.54 1199.54 1531.54 Q1200.14 1531.54 1200.87 1531.63 Q1201.61 1531.7 1202.5 1531.85 L1202.53 1537.87 Z" fill="#000000" fill-rule="evenodd" fill-opacity="1" /><path clip-path="url(#clip940)" d="M1243.21 1536.5 Q1238.5 1536.5 1235.76 1540.19 Q1233.02 1543.85 1233.02 1550.25 Q1233.02 1556.65 1235.73 1560.34 Q1238.46 1564 1243.21 1564 Q1247.88 1564 1250.62 1560.31 Q1253.36 1556.62 1253.36 1550.25 Q1253.36 1543.92 1250.62 1540.23 Q1247.88 1536.5 1243.21 1536.5 M1243.21 1531.54 Q1250.84 1531.54 1255.21 1536.5 Q1259.57 1541.47 1259.57 1550.25 Q1259.57 1559 1255.21 1564 Q1250.84 1568.97 1243.21 1568.97 Q1235.54 1568.97 1231.17 1564 Q1226.85 1559 1226.85 1550.25 Q1226.85 1541.47 1231.17 1536.5 Q1235.54 1531.54 1243.21 1531.54 Z" fill="#000000" fill-rule="evenodd" fill-opacity="1" /><path clip-path="url(#clip940)" d="M1287.32 1518.52 L1287.32 1523.39 L1281.72 1523.39 Q1278.57 1523.39 1277.33 1524.66 Q1276.12 1525.93 1276.12 1529.24 L1276.12 1532.4 L1285.76 1532.4 L1285.76 1536.95 L1276.12 1536.95 L1276.12 1568.04 L1270.23 1568.04 L1270.23 1536.95 L1264.63 1536.95 L1264.63 1532.4 L1270.23 1532.4 L1270.23 1529.91 Q1270.23 1523.96 1273 1521.26 Q1275.77 1518.52 1281.78 1518.52 L1287.32 1518.52 Z" fill="#000000" fill-rule="evenodd" fill-opacity="1" /><path clip-path="url(#clip940)" d="M1335.67 1533.45 L1335.67 1538.98 Q1333.19 1537.71 1330.51 1537.07 Q1327.84 1536.44 1324.97 1536.44 Q1320.61 1536.44 1318.42 1537.77 Q1316.25 1539.11 1316.25 1541.79 Q1316.25 1543.82 1317.81 1545 Q1319.37 1546.15 1324.08 1547.2 L1326.09 1547.64 Q1332.33 1548.98 1334.94 1551.43 Q1337.58 1553.85 1337.58 1558.21 Q1337.58 1563.17 1333.63 1566.07 Q1329.72 1568.97 1322.84 1568.97 Q1319.98 1568.97 1316.86 1568.39 Q1313.77 1567.85 1310.33 1566.74 L1310.33 1560.69 Q1313.58 1562.38 1316.73 1563.24 Q1319.88 1564.07 1322.97 1564.07 Q1327.11 1564.07 1329.33 1562.66 Q1331.56 1561.23 1331.56 1558.65 Q1331.56 1556.27 1329.94 1554.99 Q1328.35 1553.72 1322.9 1552.54 L1320.87 1552.07 Q1315.42 1550.92 1313.01 1548.56 Q1310.59 1546.18 1310.59 1542.04 Q1310.59 1537.01 1314.15 1534.27 Q1317.72 1531.54 1324.27 1531.54 Q1327.52 1531.54 1330.38 1532.01 Q1333.25 1532.49 1335.67 1533.45 Z" fill="#000000" fill-rule="evenodd" fill-opacity="1" /><path clip-path="url(#clip940)" d="M1363.1 1550.12 Q1356.01 1550.12 1353.27 1551.75 Q1350.53 1553.37 1350.53 1557.29 Q1350.53 1560.4 1352.57 1562.25 Q1354.64 1564.07 1358.17 1564.07 Q1363.04 1564.07 1365.97 1560.63 Q1368.93 1557.16 1368.93 1551.43 L1368.93 1550.12 L1363.1 1550.12 M1374.79 1547.71 L1374.79 1568.04 L1368.93 1568.04 L1368.93 1562.63 Q1366.92 1565.88 1363.93 1567.44 Q1360.94 1568.97 1356.61 1568.97 Q1351.14 1568.97 1347.89 1565.91 Q1344.68 1562.82 1344.68 1557.67 Q1344.68 1551.65 1348.69 1548.6 Q1352.73 1545.54 1360.72 1545.54 L1368.93 1545.54 L1368.93 1544.97 Q1368.93 1540.93 1366.25 1538.73 Q1363.61 1536.5 1358.81 1536.5 Q1355.75 1536.5 1352.86 1537.23 Q1349.96 1537.97 1347.29 1539.43 L1347.29 1534.02 Q1350.5 1532.78 1353.52 1532.17 Q1356.55 1531.54 1359.41 1531.54 Q1367.15 1531.54 1370.97 1535.55 Q1374.79 1539.56 1374.79 1547.71 Z" fill="#000000" fill-rule="evenodd" fill-opacity="1" /><path clip-path="url(#clip940)" d="M1414.6 1539.24 Q1416.8 1535.29 1419.85 1533.41 Q1422.91 1531.54 1427.05 1531.54 Q1432.62 1531.54 1435.64 1535.45 Q1438.66 1539.33 1438.66 1546.53 L1438.66 1568.04 L1432.78 1568.04 L1432.78 1546.72 Q1432.78 1541.59 1430.96 1539.11 Q1429.15 1536.63 1425.42 1536.63 Q1420.87 1536.63 1418.23 1539.65 Q1415.59 1542.68 1415.59 1547.9 L1415.59 1568.04 L1409.7 1568.04 L1409.7 1546.72 Q1409.7 1541.56 1407.89 1539.11 Q1406.07 1536.63 1402.28 1536.63 Q1397.8 1536.63 1395.16 1539.68 Q1392.51 1542.71 1392.51 1547.9 L1392.51 1568.04 L1386.63 1568.04 L1386.63 1532.4 L1392.51 1532.4 L1392.51 1537.93 Q1394.52 1534.66 1397.32 1533.1 Q1400.12 1531.54 1403.97 1531.54 Q1407.85 1531.54 1410.56 1533.51 Q1413.3 1535.48 1414.6 1539.24 Z" fill="#000000" fill-rule="evenodd" fill-opacity="1" /><path clip-path="url(#clip940)" d="M1456.01 1562.7 L1456.01 1581.6 L1450.12 1581.6 L1450.12 1532.4 L1456.01 1532.4 L1456.01 1537.81 Q1457.86 1534.62 1460.66 1533.1 Q1463.49 1531.54 1467.41 1531.54 Q1473.9 1531.54 1477.94 1536.69 Q1482.02 1541.85 1482.02 1550.25 Q1482.02 1558.65 1477.94 1563.81 Q1473.9 1568.97 1467.41 1568.97 Q1463.49 1568.97 1460.66 1567.44 Q1457.86 1565.88 1456.01 1562.7 M1475.94 1550.25 Q1475.94 1543.79 1473.26 1540.13 Q1470.62 1536.44 1465.97 1536.44 Q1461.33 1536.44 1458.65 1540.13 Q1456.01 1543.79 1456.01 1550.25 Q1456.01 1556.71 1458.65 1560.4 Q1461.33 1564.07 1465.97 1564.07 Q1470.62 1564.07 1473.26 1560.4 Q1475.94 1556.71 1475.94 1550.25 Z" fill="#000000" fill-rule="evenodd" fill-opacity="1" /><path clip-path="url(#clip940)" d="M1491.72 1518.52 L1497.58 1518.52 L1497.58 1568.04 L1491.72 1568.04 L1491.72 1518.52 Z" fill="#000000" fill-rule="evenodd" fill-opacity="1" /><path clip-path="url(#clip940)" d="M1540.33 1548.76 L1540.33 1551.62 L1513.4 1551.62 Q1513.78 1557.67 1517.03 1560.85 Q1520.31 1564 1526.13 1564 Q1529.5 1564 1532.65 1563.17 Q1535.84 1562.35 1538.96 1560.69 L1538.96 1566.23 Q1535.81 1567.57 1532.5 1568.27 Q1529.19 1568.97 1525.78 1568.97 Q1517.25 1568.97 1512.25 1564 Q1507.29 1559.04 1507.29 1550.57 Q1507.29 1541.82 1512 1536.69 Q1516.74 1531.54 1524.76 1531.54 Q1531.95 1531.54 1536.12 1536.18 Q1540.33 1540.8 1540.33 1548.76 M1534.47 1547.04 Q1534.41 1542.23 1531.76 1539.37 Q1529.15 1536.5 1524.82 1536.5 Q1519.92 1536.5 1516.96 1539.27 Q1514.03 1542.04 1513.59 1547.07 L1534.47 1547.04 Z" fill="#000000" fill-rule="evenodd" fill-opacity="1" /><path clip-path="url(#clip940)" d="M1572.66 1533.45 L1572.66 1538.98 Q1570.18 1537.71 1567.51 1537.07 Q1564.83 1536.44 1561.97 1536.44 Q1557.61 1536.44 1555.41 1537.77 Q1553.25 1539.11 1553.25 1541.79 Q1553.25 1543.82 1554.81 1545 Q1556.37 1546.15 1561.08 1547.2 L1563.08 1547.64 Q1569.32 1548.98 1571.93 1551.43 Q1574.57 1553.85 1574.57 1558.21 Q1574.57 1563.17 1570.63 1566.07 Q1566.71 1568.97 1559.84 1568.97 Q1556.97 1568.97 1553.85 1568.39 Q1550.76 1567.85 1547.33 1566.74 L1547.33 1560.69 Q1550.57 1562.38 1553.73 1563.24 Q1556.88 1564.07 1559.96 1564.07 Q1564.1 1564.07 1566.33 1562.66 Q1568.56 1561.23 1568.56 1558.65 Q1568.56 1556.27 1566.93 1554.99 Q1565.34 1553.72 1559.9 1552.54 L1557.86 1552.07 Q1552.42 1550.92 1550 1548.56 Q1547.58 1546.18 1547.58 1542.04 Q1547.58 1537.01 1551.15 1534.27 Q1554.71 1531.54 1561.27 1531.54 Q1564.51 1531.54 1567.38 1532.01 Q1570.24 1532.49 1572.66 1533.45 Z" fill="#000000" fill-rule="evenodd" fill-opacity="1" /><path clip-path="url(#clip940)" d="M1585.39 1559.96 L1592.11 1559.96 L1592.11 1565.43 L1586.89 1575.62 L1582.78 1575.62 L1585.39 1565.43 L1585.39 1559.96 Z" fill="#000000" fill-rule="evenodd" fill-opacity="1" /><path clip-path="url(#clip940)" d="M1625.12 1518.52 L1631 1518.52 L1631 1547.77 L1648.48 1532.4 L1655.96 1532.4 L1637.05 1549.07 L1656.75 1568.04 L1649.12 1568.04 L1631 1550.63 L1631 1568.04 L1625.12 1568.04 L1625.12 1518.52 Z" fill="#000000" fill-rule="evenodd" fill-opacity="1" /><polyline clip-path="url(#clip942)" style="stroke:#000000; stroke-linecap:round; stroke-linejoin:round; stroke-width:2; stroke-opacity:0.1; fill:none" points="
  251.071,1145.72 2352.76,1145.72 
  "/>
<polyline clip-path="url(#clip942)" style="stroke:#000000; stroke-linecap:round; stroke-linejoin:round; stroke-width:2; stroke-opacity:0.1; fill:none" points="
  251.071,764.713 2352.76,764.713 
  "/>
<polyline clip-path="url(#clip942)" style="stroke:#000000; stroke-linecap:round; stroke-linejoin:round; stroke-width:2; stroke-opacity:0.1; fill:none" points="
  251.071,383.707 2352.76,383.707 
  "/>
<polyline clip-path="url(#clip940)" style="stroke:#000000; stroke-linecap:round; stroke-linejoin:round; stroke-width:4; stroke-opacity:1; fill:none" points="
  251.071,1423.18 251.071,47.2441 
  "/>
<polyline clip-path="url(#clip940)" style="stroke:#000000; stroke-linecap:round; stroke-linejoin:round; stroke-width:4; stroke-opacity:1; fill:none" points="
  251.071,1145.72 269.969,1145.72 
  "/>
<polyline clip-path="url(#clip940)" style="stroke:#000000; stroke-linecap:round; stroke-linejoin:round; stroke-width:4; stroke-opacity:1; fill:none" points="
  251.071,764.713 269.969,764.713 
  "/>
<polyline clip-path="url(#clip940)" style="stroke:#000000; stroke-linecap:round; stroke-linejoin:round; stroke-width:4; stroke-opacity:1; fill:none" points="
  251.071,383.707 269.969,383.707 
  "/>
<path clip-path="url(#clip940)" d="M114.931 1165.51 L122.57 1165.51 L122.57 1139.15 L114.26 1140.81 L114.26 1136.55 L122.524 1134.89 L127.2 1134.89 L127.2 1165.51 L134.839 1165.51 L134.839 1169.45 L114.931 1169.45 L114.931 1165.51 Z" fill="#000000" fill-rule="evenodd" fill-opacity="1" /><path clip-path="url(#clip940)" d="M154.283 1137.97 Q150.672 1137.97 148.843 1141.53 Q147.038 1145.07 147.038 1152.2 Q147.038 1159.31 148.843 1162.87 Q150.672 1166.42 154.283 1166.42 Q157.917 1166.42 159.723 1162.87 Q161.552 1159.31 161.552 1152.2 Q161.552 1145.07 159.723 1141.53 Q157.917 1137.97 154.283 1137.97 M154.283 1134.26 Q160.093 1134.26 163.149 1138.87 Q166.227 1143.45 166.227 1152.2 Q166.227 1160.93 163.149 1165.54 Q160.093 1170.12 154.283 1170.12 Q148.473 1170.12 145.394 1165.54 Q142.339 1160.93 142.339 1152.2 Q142.339 1143.45 145.394 1138.87 Q148.473 1134.26 154.283 1134.26 Z" fill="#000000" fill-rule="evenodd" fill-opacity="1" /><path clip-path="url(#clip940)" d="M166.227 1128.36 L190.339 1128.36 L190.339 1131.56 L166.227 1131.56 L166.227 1128.36 Z" fill="#000000" fill-rule="evenodd" fill-opacity="1" /><path clip-path="url(#clip940)" d="M201.812 1138.84 L215.071 1138.84 L215.071 1142.04 L197.241 1142.04 L197.241 1138.84 Q199.404 1136.6 203.128 1132.84 Q206.871 1129.06 207.83 1127.97 Q209.655 1125.92 210.369 1124.51 Q211.103 1123.08 211.103 1121.71 Q211.103 1119.47 209.523 1118.06 Q207.962 1116.65 205.442 1116.65 Q203.655 1116.65 201.661 1117.27 Q199.686 1117.89 197.43 1119.15 L197.43 1115.31 Q199.724 1114.39 201.718 1113.92 Q203.711 1113.45 205.366 1113.45 Q209.73 1113.45 212.325 1115.63 Q214.921 1117.81 214.921 1121.46 Q214.921 1123.19 214.263 1124.75 Q213.623 1126.3 211.912 1128.4 Q211.441 1128.95 208.921 1131.56 Q206.401 1134.16 201.812 1138.84 Z" fill="#000000" fill-rule="evenodd" fill-opacity="1" /><path clip-path="url(#clip940)" d="M144.366 784.506 L152.004 784.506 L152.004 758.14 L143.694 759.807 L143.694 755.548 L151.958 753.881 L156.634 753.881 L156.634 784.506 L164.273 784.506 L164.273 788.441 L144.366 788.441 L144.366 784.506 Z" fill="#000000" fill-rule="evenodd" fill-opacity="1" /><path clip-path="url(#clip940)" d="M183.717 756.96 Q180.106 756.96 178.277 760.524 Q176.472 764.066 176.472 771.196 Q176.472 778.302 178.277 781.867 Q180.106 785.409 183.717 785.409 Q187.351 785.409 189.157 781.867 Q190.986 778.302 190.986 771.196 Q190.986 764.066 189.157 760.524 Q187.351 756.96 183.717 756.96 M183.717 753.256 Q189.527 753.256 192.583 757.862 Q195.662 762.446 195.662 771.196 Q195.662 779.922 192.583 784.529 Q189.527 789.112 183.717 789.112 Q177.907 789.112 174.828 784.529 Q171.773 779.922 171.773 771.196 Q171.773 762.446 174.828 757.862 Q177.907 753.256 183.717 753.256 Z" fill="#000000" fill-rule="evenodd" fill-opacity="1" /><path clip-path="url(#clip940)" d="M205.366 735.452 Q202.432 735.452 200.947 738.348 Q199.48 741.226 199.48 747.019 Q199.48 752.793 200.947 755.689 Q202.432 758.567 205.366 758.567 Q208.319 758.567 209.786 755.689 Q211.272 752.793 211.272 747.019 Q211.272 741.226 209.786 738.348 Q208.319 735.452 205.366 735.452 M205.366 732.443 Q210.087 732.443 212.57 736.185 Q215.071 739.909 215.071 747.019 Q215.071 754.109 212.57 757.852 Q210.087 761.576 205.366 761.576 Q200.646 761.576 198.144 757.852 Q195.662 754.109 195.662 747.019 Q195.662 739.909 198.144 736.185 Q200.646 732.443 205.366 732.443 Z" fill="#000000" fill-rule="evenodd" fill-opacity="1" /><path clip-path="url(#clip940)" d="M145.945 403.499 L153.584 403.499 L153.584 377.133 L145.274 378.8 L145.274 374.541 L153.538 372.874 L158.214 372.874 L158.214 403.499 L165.853 403.499 L165.853 407.434 L145.945 407.434 L145.945 403.499 Z" fill="#000000" fill-rule="evenodd" fill-opacity="1" /><path clip-path="url(#clip940)" d="M185.297 375.953 Q181.686 375.953 179.857 379.518 Q178.052 383.059 178.052 390.189 Q178.052 397.295 179.857 400.86 Q181.686 404.402 185.297 404.402 Q188.931 404.402 190.737 400.86 Q192.566 397.295 192.566 390.189 Q192.566 383.059 190.737 379.518 Q188.931 375.953 185.297 375.953 M185.297 372.249 Q191.107 372.249 194.163 376.856 Q197.241 381.439 197.241 390.189 Q197.241 398.916 194.163 403.522 Q191.107 408.105 185.297 408.105 Q179.487 408.105 176.408 403.522 Q173.353 398.916 173.353 390.189 Q173.353 381.439 176.408 376.856 Q179.487 372.249 185.297 372.249 Z" fill="#000000" fill-rule="evenodd" fill-opacity="1" /><path clip-path="url(#clip940)" d="M201.812 376.826 L215.071 376.826 L215.071 380.024 L197.241 380.024 L197.241 376.826 Q199.404 374.588 203.128 370.827 Q206.871 367.046 207.83 365.956 Q209.655 363.905 210.369 362.495 Q211.103 361.065 211.103 359.693 Q211.103 357.454 209.523 356.044 Q207.962 354.633 205.442 354.633 Q203.655 354.633 201.661 355.254 Q199.686 355.875 197.43 357.135 L197.43 353.298 Q199.724 352.376 201.718 351.906 Q203.711 351.436 205.366 351.436 Q209.73 351.436 212.325 353.618 Q214.921 355.799 214.921 359.448 Q214.921 361.178 214.263 362.739 Q213.623 364.282 211.912 366.388 Q211.441 366.934 208.921 369.548 Q206.401 372.143 201.812 376.826 Z" fill="#000000" fill-rule="evenodd" fill-opacity="1" /><path clip-path="url(#clip940)" d="M14.1925 847.614 L79.3773 847.614 L79.3773 853.025 L14.1925 853.025 L14.1925 847.614 Z" fill="#000000" fill-rule="evenodd" fill-opacity="1" /><path clip-path="url(#clip940)" d="M16.4842 835.233 L16.4842 828.326 L34.149 816.518 L16.4842 804.646 L16.4842 797.739 L39.3052 813.017 L64.0042 796.721 L64.0042 803.627 L43.793 816.995 L64.0042 830.459 L64.0042 837.397 L38.6368 820.433 L16.4842 835.233 Z" fill="#000000" fill-rule="evenodd" fill-opacity="1" /><path clip-path="url(#clip940)" d="M60.3757 786.154 L60.3757 772.658 L64.0042 772.658 L64.0042 791.692 L60.503 791.692 Q59.5163 790.61 57.7339 788.604 Q48.0262 777.655 45.0344 777.655 Q42.9337 777.655 41.6605 779.31 Q40.3556 780.965 40.3556 783.671 Q40.3556 785.326 40.9285 787.268 Q41.4696 789.209 42.5836 791.501 L38.6686 791.501 Q37.7774 789.05 37.3318 786.949 Q36.8862 784.817 36.8862 783.003 Q36.8862 778.387 38.9869 775.618 Q41.0876 772.849 44.5251 772.849 Q48.9493 772.849 57.9886 783.384 Q59.5163 785.167 60.3757 786.154 Z" fill="#000000" fill-rule="evenodd" fill-opacity="1" /><path clip-path="url(#clip940)" d="M43.5384 765.37 L43.5384 748.214 L48.7583 748.214 L48.7583 765.37 L43.5384 765.37 Z" fill="#000000" fill-rule="evenodd" fill-opacity="1" /><path clip-path="url(#clip940)" d="M22.818 724.183 L46.4666 732.904 L46.4666 715.431 L22.818 724.183 M16.4842 727.812 L16.4842 720.523 L64.0042 702.413 L64.0042 709.097 L51.8138 713.425 L51.8138 734.846 L64.0042 739.175 L64.0042 745.954 L16.4842 727.812 Z" fill="#000000" fill-rule="evenodd" fill-opacity="1" /><path clip-path="url(#clip940)" d="M16.4842 697.766 L16.4842 690.859 L34.149 679.051 L16.4842 667.178 L16.4842 660.272 L39.3052 675.549 L64.0042 659.253 L64.0042 666.16 L43.793 679.528 L64.0042 692.991 L64.0042 699.93 L38.6368 682.965 L16.4842 697.766 Z" fill="#000000" fill-rule="evenodd" fill-opacity="1" /><path clip-path="url(#clip940)" d="M60.503 652.251 L60.503 645.758 L41.0558 645.758 L42.3608 652.856 L38.6686 652.856 L37.4273 645.535 L37.4273 641.175 L60.503 641.175 L60.503 634.65 L64.0042 634.65 L64.0042 652.251 L60.503 652.251 Z" fill="#000000" fill-rule="evenodd" fill-opacity="1" /><path clip-path="url(#clip940)" d="M14.1925 617.399 L79.3773 617.399 L79.3773 622.81 L14.1925 622.81 L14.1925 617.399 Z" fill="#000000" fill-rule="evenodd" fill-opacity="1" /><polyline clip-path="url(#clip942)" style="stroke:#009af9; stroke-linecap:round; stroke-linejoin:round; stroke-width:4; stroke-opacity:1; fill:none" points="
  310.553,1384.24 2293.27,1384.24 
  "/>
<polyline clip-path="url(#clip942)" style="stroke:#e26f46; stroke-linecap:round; stroke-linejoin:round; stroke-width:4; stroke-opacity:1; fill:none" points="
  312.536,86.1857 350.207,1071.26 508.825,1167.74 707.097,1170.72 2293.27,1178.28 
  "/>
<path clip-path="url(#clip940)" d="
M1654.36 248.629 L2282.7 248.629 L2282.7 93.1086 L1654.36 93.1086  Z
  " fill="#ffffff" fill-rule="evenodd" fill-opacity="1"/>
<polyline clip-path="url(#clip940)" style="stroke:#000000; stroke-linecap:round; stroke-linejoin:round; stroke-width:4; stroke-opacity:1; fill:none" points="
  1654.36,248.629 2282.7,248.629 2282.7,93.1086 1654.36,93.1086 1654.36,248.629 
  "/>
<polyline clip-path="url(#clip940)" style="stroke:#009af9; stroke-linecap:round; stroke-linejoin:round; stroke-width:4; stroke-opacity:1; fill:none" points="
  1677.71,144.949 1817.83,144.949 
  "/>
<path clip-path="url(#clip940)" d="M1841.18 127.669 L1863.03 127.669 L1863.03 131.604 L1845.85 131.604 L1845.85 141.835 L1862.31 141.835 L1862.31 145.77 L1845.85 145.77 L1845.85 158.293 L1863.45 158.293 L1863.45 162.229 L1841.18 162.229 L1841.18 127.669 Z" fill="#000000" fill-rule="evenodd" fill-opacity="1" /><path clip-path="url(#clip940)" d="M1892.5 136.303 L1883.12 148.919 L1892.98 162.229 L1887.96 162.229 L1880.41 152.043 L1872.87 162.229 L1867.85 162.229 L1877.91 148.664 L1868.7 136.303 L1873.72 136.303 L1880.6 145.539 L1887.47 136.303 L1892.5 136.303 Z" fill="#000000" fill-rule="evenodd" fill-opacity="1" /><path clip-path="url(#clip940)" d="M1910.78 149.196 Q1905.62 149.196 1903.63 150.377 Q1901.64 151.557 1901.64 154.405 Q1901.64 156.673 1903.12 158.016 Q1904.63 159.335 1907.2 159.335 Q1910.74 159.335 1912.87 156.835 Q1915.02 154.312 1915.02 150.145 L1915.02 149.196 L1910.78 149.196 M1919.28 147.437 L1919.28 162.229 L1915.02 162.229 L1915.02 158.293 Q1913.56 160.655 1911.39 161.789 Q1909.21 162.9 1906.06 162.9 Q1902.08 162.9 1899.72 160.678 Q1897.38 158.432 1897.38 154.682 Q1897.38 150.307 1900.3 148.085 Q1903.24 145.863 1909.05 145.863 L1915.02 145.863 L1915.02 145.446 Q1915.02 142.507 1913.08 140.909 Q1911.16 139.289 1907.66 139.289 Q1905.44 139.289 1903.33 139.821 Q1901.22 140.354 1899.28 141.419 L1899.28 137.483 Q1901.62 136.581 1903.82 136.141 Q1906.02 135.678 1908.1 135.678 Q1913.72 135.678 1916.5 138.594 Q1919.28 141.511 1919.28 147.437 Z" fill="#000000" fill-rule="evenodd" fill-opacity="1" /><path clip-path="url(#clip940)" d="M1946.71 137.298 L1946.71 141.28 Q1944.9 140.284 1943.08 139.798 Q1941.27 139.289 1939.42 139.289 Q1935.28 139.289 1932.98 141.928 Q1930.69 144.544 1930.69 149.289 Q1930.69 154.034 1932.98 156.673 Q1935.28 159.289 1939.42 159.289 Q1941.27 159.289 1943.08 158.803 Q1944.9 158.293 1946.71 157.298 L1946.71 161.233 Q1944.93 162.067 1943.01 162.483 Q1941.11 162.9 1938.96 162.9 Q1933.1 162.9 1929.65 159.219 Q1926.2 155.539 1926.2 149.289 Q1926.2 142.946 1929.67 139.312 Q1933.17 135.678 1939.23 135.678 Q1941.2 135.678 1943.08 136.095 Q1944.95 136.488 1946.71 137.298 Z" fill="#000000" fill-rule="evenodd" fill-opacity="1" /><path clip-path="url(#clip940)" d="M1958.33 128.942 L1958.33 136.303 L1967.1 136.303 L1967.1 139.613 L1958.33 139.613 L1958.33 153.687 Q1958.33 156.858 1959.19 157.761 Q1960.07 158.664 1962.73 158.664 L1967.1 158.664 L1967.1 162.229 L1962.73 162.229 Q1957.8 162.229 1955.92 160.4 Q1954.05 158.548 1954.05 153.687 L1954.05 139.613 L1950.92 139.613 L1950.92 136.303 L1954.05 136.303 L1954.05 128.942 L1958.33 128.942 Z" fill="#000000" fill-rule="evenodd" fill-opacity="1" /><path clip-path="url(#clip940)" d="M1992.64 131.511 L1992.64 158.386 L1998.28 158.386 Q2005.44 158.386 2008.75 155.145 Q2012.08 151.905 2012.08 144.914 Q2012.08 137.969 2008.75 134.752 Q2005.44 131.511 1998.28 131.511 L1992.64 131.511 M1987.96 127.669 L1997.57 127.669 Q2007.61 127.669 2012.31 131.858 Q2017.01 136.025 2017.01 144.914 Q2017.01 153.849 2012.29 158.039 Q2007.57 162.229 1997.57 162.229 L1987.96 162.229 L1987.96 127.669 Z" fill="#000000" fill-rule="evenodd" fill-opacity="1" /><path clip-path="url(#clip940)" d="M2024.46 127.669 L2031.43 127.669 L2040.25 151.187 L2049.12 127.669 L2056.08 127.669 L2056.08 162.229 L2051.52 162.229 L2051.52 131.882 L2042.61 155.585 L2037.91 155.585 L2029 131.882 L2029 162.229 L2024.46 162.229 L2024.46 127.669 Z" fill="#000000" fill-rule="evenodd" fill-opacity="1" /><path clip-path="url(#clip940)" d="M2070.04 131.511 L2070.04 158.386 L2075.69 158.386 Q2082.84 158.386 2086.15 155.145 Q2089.49 151.905 2089.49 144.914 Q2089.49 137.969 2086.15 134.752 Q2082.84 131.511 2075.69 131.511 L2070.04 131.511 M2065.37 127.669 L2074.97 127.669 Q2085.02 127.669 2089.72 131.858 Q2094.42 136.025 2094.42 144.914 Q2094.42 153.849 2089.7 158.039 Q2084.97 162.229 2074.97 162.229 L2065.37 162.229 L2065.37 127.669 Z" fill="#000000" fill-rule="evenodd" fill-opacity="1" /><polyline clip-path="url(#clip940)" style="stroke:#e26f46; stroke-linecap:round; stroke-linejoin:round; stroke-width:4; stroke-opacity:1; fill:none" points="
  1677.71,196.789 1817.83,196.789 
  "/>
<path clip-path="url(#clip940)" d="M1869.05 182.171 L1869.05 187.101 Q1866.69 184.902 1864 183.814 Q1861.34 182.726 1858.33 182.726 Q1852.41 182.726 1849.26 186.36 Q1846.11 189.972 1846.11 196.823 Q1846.11 203.652 1849.26 207.286 Q1852.41 210.897 1858.33 210.897 Q1861.34 210.897 1864 209.809 Q1866.69 208.721 1869.05 206.522 L1869.05 211.407 Q1866.6 213.073 1863.84 213.907 Q1861.11 214.74 1858.05 214.74 Q1850.21 214.74 1845.69 209.948 Q1841.18 205.133 1841.18 196.823 Q1841.18 188.49 1845.69 183.698 Q1850.21 178.884 1858.05 178.884 Q1861.16 178.884 1863.89 179.717 Q1866.64 180.527 1869.05 182.171 Z" fill="#000000" fill-rule="evenodd" fill-opacity="1" /><path clip-path="url(#clip940)" d="M1886.13 191.129 Q1882.71 191.129 1880.72 193.814 Q1878.72 196.476 1878.72 201.129 Q1878.72 205.782 1880.69 208.467 Q1882.68 211.129 1886.13 211.129 Q1889.53 211.129 1891.53 208.444 Q1893.52 205.758 1893.52 201.129 Q1893.52 196.522 1891.53 193.837 Q1889.53 191.129 1886.13 191.129 M1886.13 187.518 Q1891.69 187.518 1894.86 191.129 Q1898.03 194.74 1898.03 201.129 Q1898.03 207.495 1894.86 211.129 Q1891.69 214.74 1886.13 214.74 Q1880.55 214.74 1877.38 211.129 Q1874.23 207.495 1874.23 201.129 Q1874.23 194.74 1877.38 191.129 Q1880.55 187.518 1886.13 187.518 Z" fill="#000000" fill-rule="evenodd" fill-opacity="1" /><path clip-path="url(#clip940)" d="M1925.28 193.12 Q1926.87 190.249 1929.09 188.884 Q1931.32 187.518 1934.33 187.518 Q1938.38 187.518 1940.58 190.365 Q1942.78 193.189 1942.78 198.421 L1942.78 214.069 L1938.49 214.069 L1938.49 198.559 Q1938.49 194.833 1937.17 193.027 Q1935.85 191.222 1933.15 191.222 Q1929.84 191.222 1927.91 193.421 Q1925.99 195.62 1925.99 199.416 L1925.99 214.069 L1921.71 214.069 L1921.71 198.559 Q1921.71 194.809 1920.39 193.027 Q1919.07 191.222 1916.32 191.222 Q1913.05 191.222 1911.13 193.444 Q1909.21 195.643 1909.21 199.416 L1909.21 214.069 L1904.93 214.069 L1904.93 188.143 L1909.21 188.143 L1909.21 192.171 Q1910.67 189.786 1912.71 188.652 Q1914.74 187.518 1917.54 187.518 Q1920.37 187.518 1922.34 188.953 Q1924.33 190.388 1925.28 193.12 Z" fill="#000000" fill-rule="evenodd" fill-opacity="1" /><path clip-path="url(#clip940)" d="M1955.39 210.18 L1955.39 223.93 L1951.11 223.93 L1951.11 188.143 L1955.39 188.143 L1955.39 192.078 Q1956.73 189.763 1958.77 188.652 Q1960.83 187.518 1963.68 187.518 Q1968.4 187.518 1971.34 191.268 Q1974.3 195.018 1974.3 201.129 Q1974.3 207.24 1971.34 210.99 Q1968.4 214.74 1963.68 214.74 Q1960.83 214.74 1958.77 213.629 Q1956.73 212.495 1955.39 210.18 M1969.88 201.129 Q1969.88 196.43 1967.94 193.768 Q1966.02 191.083 1962.64 191.083 Q1959.26 191.083 1957.31 193.768 Q1955.39 196.43 1955.39 201.129 Q1955.39 205.828 1957.31 208.513 Q1959.26 211.175 1962.64 211.175 Q1966.02 211.175 1967.94 208.513 Q1969.88 205.828 1969.88 201.129 Z" fill="#000000" fill-rule="evenodd" fill-opacity="1" /><path clip-path="url(#clip940)" d="M1996.39 192.124 Q1995.67 191.708 1994.81 191.522 Q1993.98 191.314 1992.96 191.314 Q1989.35 191.314 1987.4 193.675 Q1985.48 196.013 1985.48 200.411 L1985.48 214.069 L1981.2 214.069 L1981.2 188.143 L1985.48 188.143 L1985.48 192.171 Q1986.83 189.809 1988.98 188.675 Q1991.13 187.518 1994.21 187.518 Q1994.65 187.518 1995.18 187.587 Q1995.71 187.634 1996.36 187.749 L1996.39 192.124 Z" fill="#000000" fill-rule="evenodd" fill-opacity="1" /><path clip-path="url(#clip940)" d="M2021.99 200.041 L2021.99 202.124 L2002.4 202.124 Q2002.68 206.522 2005.04 208.837 Q2007.43 211.129 2011.66 211.129 Q2014.12 211.129 2016.41 210.527 Q2018.72 209.925 2020.99 208.721 L2020.99 212.749 Q2018.7 213.721 2016.29 214.231 Q2013.89 214.74 2011.41 214.74 Q2005.21 214.74 2001.57 211.129 Q1997.96 207.518 1997.96 201.36 Q1997.96 194.995 2001.39 191.268 Q2004.84 187.518 2010.67 187.518 Q2015.9 187.518 2018.93 190.897 Q2021.99 194.254 2021.99 200.041 M2017.73 198.791 Q2017.68 195.296 2015.76 193.212 Q2013.86 191.129 2010.71 191.129 Q2007.15 191.129 2005 193.143 Q2002.87 195.157 2002.54 198.814 L2017.73 198.791 Z" fill="#000000" fill-rule="evenodd" fill-opacity="1" /><path clip-path="url(#clip940)" d="M2045.51 188.907 L2045.51 192.934 Q2043.7 192.009 2041.76 191.546 Q2039.81 191.083 2037.73 191.083 Q2034.56 191.083 2032.96 192.055 Q2031.39 193.027 2031.39 194.971 Q2031.39 196.453 2032.52 197.309 Q2033.65 198.143 2037.08 198.907 L2038.54 199.231 Q2043.08 200.203 2044.97 201.985 Q2046.9 203.745 2046.9 206.916 Q2046.9 210.527 2044.02 212.633 Q2041.18 214.74 2036.18 214.74 Q2034.09 214.74 2031.83 214.323 Q2029.58 213.93 2027.08 213.12 L2027.08 208.721 Q2029.44 209.948 2031.73 210.573 Q2034.02 211.175 2036.27 211.175 Q2039.28 211.175 2040.9 210.157 Q2042.52 209.115 2042.52 207.24 Q2042.52 205.504 2041.34 204.578 Q2040.18 203.652 2036.22 202.796 L2034.74 202.448 Q2030.78 201.615 2029.02 199.902 Q2027.27 198.166 2027.27 195.157 Q2027.27 191.499 2029.86 189.509 Q2032.45 187.518 2037.22 187.518 Q2039.58 187.518 2041.66 187.865 Q2043.75 188.212 2045.51 188.907 Z" fill="#000000" fill-rule="evenodd" fill-opacity="1" /><path clip-path="url(#clip940)" d="M2070.21 188.907 L2070.21 192.934 Q2068.4 192.009 2066.46 191.546 Q2064.51 191.083 2062.43 191.083 Q2059.26 191.083 2057.66 192.055 Q2056.08 193.027 2056.08 194.971 Q2056.08 196.453 2057.22 197.309 Q2058.35 198.143 2061.78 198.907 L2063.24 199.231 Q2067.77 200.203 2069.67 201.985 Q2071.59 203.745 2071.59 206.916 Q2071.59 210.527 2068.72 212.633 Q2065.88 214.74 2060.88 214.74 Q2058.79 214.74 2056.52 214.323 Q2054.28 213.93 2051.78 213.12 L2051.78 208.721 Q2054.14 209.948 2056.43 210.573 Q2058.72 211.175 2060.97 211.175 Q2063.98 211.175 2065.6 210.157 Q2067.22 209.115 2067.22 207.24 Q2067.22 205.504 2066.04 204.578 Q2064.88 203.652 2060.92 202.796 L2059.44 202.448 Q2055.48 201.615 2053.72 199.902 Q2051.96 198.166 2051.96 195.157 Q2051.96 191.499 2054.56 189.509 Q2057.15 187.518 2061.92 187.518 Q2064.28 187.518 2066.36 187.865 Q2068.45 188.212 2070.21 188.907 Z" fill="#000000" fill-rule="evenodd" fill-opacity="1" /><path clip-path="url(#clip940)" d="M2100.55 200.041 L2100.55 202.124 L2080.97 202.124 Q2081.25 206.522 2083.61 208.837 Q2085.99 211.129 2090.23 211.129 Q2092.68 211.129 2094.97 210.527 Q2097.29 209.925 2099.56 208.721 L2099.56 212.749 Q2097.27 213.721 2094.86 214.231 Q2092.45 214.74 2089.97 214.74 Q2083.77 214.74 2080.14 211.129 Q2076.52 207.518 2076.52 201.36 Q2076.52 194.995 2079.95 191.268 Q2083.4 187.518 2089.23 187.518 Q2094.46 187.518 2097.5 190.897 Q2100.55 194.254 2100.55 200.041 M2096.29 198.791 Q2096.25 195.296 2094.33 193.212 Q2092.43 191.129 2089.28 191.129 Q2085.71 191.129 2083.56 193.143 Q2081.43 195.157 2081.11 198.814 L2096.29 198.791 Z" fill="#000000" fill-rule="evenodd" fill-opacity="1" /><path clip-path="url(#clip940)" d="M2124.6 192.078 L2124.6 178.05 L2128.86 178.05 L2128.86 214.069 L2124.6 214.069 L2124.6 210.18 Q2123.26 212.495 2121.2 213.629 Q2119.16 214.74 2116.29 214.74 Q2111.59 214.74 2108.63 210.99 Q2105.69 207.24 2105.69 201.129 Q2105.69 195.018 2108.63 191.268 Q2111.59 187.518 2116.29 187.518 Q2119.16 187.518 2121.2 188.652 Q2123.26 189.763 2124.6 192.078 M2110.09 201.129 Q2110.09 205.828 2112.01 208.513 Q2113.95 211.175 2117.33 211.175 Q2120.71 211.175 2122.66 208.513 Q2124.6 205.828 2124.6 201.129 Q2124.6 196.43 2122.66 193.768 Q2120.71 191.083 2117.33 191.083 Q2113.95 191.083 2112.01 193.768 Q2110.09 196.43 2110.09 201.129 Z" fill="#000000" fill-rule="evenodd" fill-opacity="1" /><path clip-path="url(#clip940)" d="M2157.57 183.351 L2157.57 210.226 L2163.21 210.226 Q2170.37 210.226 2173.68 206.985 Q2177.01 203.745 2177.01 196.754 Q2177.01 189.809 2173.68 186.592 Q2170.37 183.351 2163.21 183.351 L2157.57 183.351 M2152.89 179.509 L2162.5 179.509 Q2172.54 179.509 2177.24 183.698 Q2181.94 187.865 2181.94 196.754 Q2181.94 205.689 2177.22 209.879 Q2172.5 214.069 2162.5 214.069 L2152.89 214.069 L2152.89 179.509 Z" fill="#000000" fill-rule="evenodd" fill-opacity="1" /><path clip-path="url(#clip940)" d="M2189.39 179.509 L2196.36 179.509 L2205.18 203.027 L2214.05 179.509 L2221.01 179.509 L2221.01 214.069 L2216.45 214.069 L2216.45 183.722 L2207.54 207.425 L2202.84 207.425 L2193.93 183.722 L2193.93 214.069 L2189.39 214.069 L2189.39 179.509 Z" fill="#000000" fill-rule="evenodd" fill-opacity="1" /><path clip-path="url(#clip940)" d="M2234.97 183.351 L2234.97 210.226 L2240.62 210.226 Q2247.77 210.226 2251.08 206.985 Q2254.42 203.745 2254.42 196.754 Q2254.42 189.809 2251.08 186.592 Q2247.77 183.351 2240.62 183.351 L2234.97 183.351 M2230.3 179.509 L2239.9 179.509 Q2249.95 179.509 2254.65 183.698 Q2259.35 187.865 2259.35 196.754 Q2259.35 205.689 2254.63 209.879 Q2249.9 214.069 2239.9 214.069 L2230.3 214.069 L2230.3 179.509 Z" fill="#000000" fill-rule="evenodd" fill-opacity="1" /></svg>
