<?xml version="1.0" encoding="utf-8"?>
<svg xmlns="http://www.w3.org/2000/svg" xmlns:xlink="http://www.w3.org/1999/xlink" width="600" height="400" viewBox="0 0 2400 1600">
<defs>
  <clipPath id="clip850">
    <rect x="0" y="0" width="2400" height="1600"/>
  </clipPath>
</defs>
<path clip-path="url(#clip850)" d="
M0 1600 L2400 1600 L2400 0 L0 0  Z
  " fill="#ffffff" fill-rule="evenodd" fill-opacity="1"/>
<defs>
  <clipPath id="clip851">
    <rect x="480" y="0" width="1681" height="1600"/>
  </clipPath>
</defs>
<path clip-path="url(#clip850)" d="
M251.071 1423.18 L2352.76 1423.18 L2352.76 123.472 L251.071 123.472  Z
  " fill="#ffffff" fill-rule="evenodd" fill-opacity="1"/>
<defs>
  <clipPath id="clip852">
    <rect x="251" y="123" width="2103" height="1301"/>
  </clipPath>
</defs>
<polyline clip-path="url(#clip852)" style="stroke:#000000; stroke-linecap:round; stroke-linejoin:round; stroke-width:2; stroke-opacity:0.1; fill:none" points="
  297.246,1423.18 297.246,123.472 
  "/>
<polyline clip-path="url(#clip852)" style="stroke:#000000; stroke-linecap:round; stroke-linejoin:round; stroke-width:2; stroke-opacity:0.1; fill:none" points="
  962.589,1423.18 962.589,123.472 
  "/>
<polyline clip-path="url(#clip852)" style="stroke:#000000; stroke-linecap:round; stroke-linejoin:round; stroke-width:2; stroke-opacity:0.1; fill:none" points="
  1627.93,1423.18 1627.93,123.472 
  "/>
<polyline clip-path="url(#clip852)" style="stroke:#000000; stroke-linecap:round; stroke-linejoin:round; stroke-width:2; stroke-opacity:0.1; fill:none" points="
  2293.27,1423.18 2293.27,123.472 
  "/>
<polyline clip-path="url(#clip850)" style="stroke:#000000; stroke-linecap:round; stroke-linejoin:round; stroke-width:4; stroke-opacity:1; fill:none" points="
  251.071,1423.18 2352.76,1423.18 
  "/>
<polyline clip-path="url(#clip850)" style="stroke:#000000; stroke-linecap:round; stroke-linejoin:round; stroke-width:4; stroke-opacity:1; fill:none" points="
  297.246,1423.18 297.246,1404.28 
  "/>
<polyline clip-path="url(#clip850)" style="stroke:#000000; stroke-linecap:round; stroke-linejoin:round; stroke-width:4; stroke-opacity:1; fill:none" points="
  962.589,1423.18 962.589,1404.28 
  "/>
<polyline clip-path="url(#clip850)" style="stroke:#000000; stroke-linecap:round; stroke-linejoin:round; stroke-width:4; stroke-opacity:1; fill:none" points="
  1627.93,1423.18 1627.93,1404.28 
  "/>
<polyline clip-path="url(#clip850)" style="stroke:#000000; stroke-linecap:round; stroke-linejoin:round; stroke-width:4; stroke-opacity:1; fill:none" points="
  2293.27,1423.18 2293.27,1404.28 
  "/>
<path clip-path="url(#clip850)" d="M297.246 1454.1 Q293.635 1454.1 291.806 1457.66 Q290.001 1461.2 290.001 1468.33 Q290.001 1475.44 291.806 1479.01 Q293.635 1482.55 297.246 1482.55 Q300.88 1482.55 302.686 1479.01 Q304.515 1475.44 304.515 1468.33 Q304.515 1461.2 302.686 1457.66 Q300.88 1454.1 297.246 1454.1 M297.246 1450.39 Q303.056 1450.39 306.112 1455 Q309.19 1459.58 309.19 1468.33 Q309.19 1477.06 306.112 1481.67 Q303.056 1486.25 297.246 1486.25 Q291.436 1486.25 288.357 1481.67 Q285.302 1477.06 285.302 1468.33 Q285.302 1459.58 288.357 1455 Q291.436 1450.39 297.246 1450.39 Z" fill="#000000" fill-rule="evenodd" fill-opacity="1" /><path clip-path="url(#clip850)" d="M937.288 1451.02 L955.644 1451.02 L955.644 1454.96 L941.57 1454.96 L941.57 1463.43 Q942.589 1463.08 943.607 1462.92 Q944.626 1462.73 945.644 1462.73 Q951.431 1462.73 954.811 1465.9 Q958.191 1469.08 958.191 1474.49 Q958.191 1480.07 954.718 1483.17 Q951.246 1486.25 944.927 1486.25 Q942.751 1486.25 940.482 1485.88 Q938.237 1485.51 935.83 1484.77 L935.83 1480.07 Q937.913 1481.2 940.135 1481.76 Q942.357 1482.32 944.834 1482.32 Q948.839 1482.32 951.177 1480.21 Q953.515 1478.1 953.515 1474.49 Q953.515 1470.88 951.177 1468.77 Q948.839 1466.67 944.834 1466.67 Q942.959 1466.67 941.084 1467.08 Q939.232 1467.5 937.288 1468.38 L937.288 1451.02 Z" fill="#000000" fill-rule="evenodd" fill-opacity="1" /><path clip-path="url(#clip850)" d="M977.404 1454.1 Q973.792 1454.1 971.964 1457.66 Q970.158 1461.2 970.158 1468.33 Q970.158 1475.44 971.964 1479.01 Q973.792 1482.55 977.404 1482.55 Q981.038 1482.55 982.843 1479.01 Q984.672 1475.44 984.672 1468.33 Q984.672 1461.2 982.843 1457.66 Q981.038 1454.1 977.404 1454.1 M977.404 1450.39 Q983.214 1450.39 986.269 1455 Q989.348 1459.58 989.348 1468.33 Q989.348 1477.06 986.269 1481.67 Q983.214 1486.25 977.404 1486.25 Q971.593 1486.25 968.515 1481.67 Q965.459 1477.06 965.459 1468.33 Q965.459 1459.58 968.515 1455 Q971.593 1450.39 977.404 1450.39 Z" fill="#000000" fill-rule="evenodd" fill-opacity="1" /><path clip-path="url(#clip850)" d="M1587.54 1481.64 L1595.18 1481.64 L1595.18 1455.28 L1586.87 1456.95 L1586.87 1452.69 L1595.13 1451.02 L1599.81 1451.02 L1599.81 1481.64 L1607.45 1481.64 L1607.45 1485.58 L1587.54 1485.58 L1587.54 1481.64 Z" fill="#000000" fill-rule="evenodd" fill-opacity="1" /><path clip-path="url(#clip850)" d="M1626.89 1454.1 Q1623.28 1454.1 1621.45 1457.66 Q1619.64 1461.2 1619.64 1468.33 Q1619.64 1475.44 1621.45 1479.01 Q1623.28 1482.55 1626.89 1482.55 Q1630.52 1482.55 1632.33 1479.01 Q1634.16 1475.44 1634.16 1468.33 Q1634.16 1461.2 1632.33 1457.66 Q1630.52 1454.1 1626.89 1454.1 M1626.89 1450.39 Q1632.7 1450.39 1635.76 1455 Q1638.83 1459.58 1638.83 1468.33 Q1638.83 1477.06 1635.76 1481.67 Q1632.7 1486.25 1626.89 1486.25 Q1621.08 1486.25 1618 1481.67 Q1614.95 1477.06 1614.95 1468.33 Q1614.95 1459.58 1618 1455 Q1621.08 1450.39 1626.89 1450.39 Z" fill="#000000" fill-rule="evenodd" fill-opacity="1" /><path clip-path="url(#clip850)" d="M1657.05 1454.1 Q1653.44 1454.1 1651.61 1457.66 Q1649.81 1461.2 1649.81 1468.33 Q1649.81 1475.44 1651.61 1479.01 Q1653.44 1482.55 1657.05 1482.55 Q1660.69 1482.55 1662.49 1479.01 Q1664.32 1475.44 1664.32 1468.33 Q1664.32 1461.2 1662.49 1457.66 Q1660.69 1454.1 1657.05 1454.1 M1657.05 1450.39 Q1662.86 1450.39 1665.92 1455 Q1669 1459.58 1669 1468.33 Q1669 1477.06 1665.92 1481.67 Q1662.86 1486.25 1657.05 1486.25 Q1651.24 1486.25 1648.16 1481.67 Q1645.11 1477.06 1645.11 1468.33 Q1645.11 1459.58 1648.16 1455 Q1651.24 1450.39 1657.05 1450.39 Z" fill="#000000" fill-rule="evenodd" fill-opacity="1" /><path clip-path="url(#clip850)" d="M2252.88 1481.64 L2260.52 1481.64 L2260.52 1455.28 L2252.21 1456.95 L2252.21 1452.69 L2260.47 1451.02 L2265.15 1451.02 L2265.15 1481.64 L2272.79 1481.64 L2272.79 1485.58 L2252.88 1485.58 L2252.88 1481.64 Z" fill="#000000" fill-rule="evenodd" fill-opacity="1" /><path clip-path="url(#clip850)" d="M2282.28 1451.02 L2300.64 1451.02 L2300.64 1454.96 L2286.56 1454.96 L2286.56 1463.43 Q2287.58 1463.08 2288.6 1462.92 Q2289.62 1462.73 2290.64 1462.73 Q2296.42 1462.73 2299.8 1465.9 Q2303.18 1469.08 2303.18 1474.49 Q2303.18 1480.07 2299.71 1483.17 Q2296.24 1486.25 2289.92 1486.25 Q2287.74 1486.25 2285.47 1485.88 Q2283.23 1485.51 2280.82 1484.77 L2280.82 1480.07 Q2282.9 1481.2 2285.13 1481.76 Q2287.35 1482.32 2289.83 1482.32 Q2293.83 1482.32 2296.17 1480.21 Q2298.51 1478.1 2298.51 1474.49 Q2298.51 1470.88 2296.17 1468.77 Q2293.83 1466.67 2289.83 1466.67 Q2287.95 1466.67 2286.08 1467.08 Q2284.22 1467.5 2282.28 1468.38 L2282.28 1451.02 Z" fill="#000000" fill-rule="evenodd" fill-opacity="1" /><path clip-path="url(#clip850)" d="M2322.39 1454.1 Q2318.78 1454.1 2316.95 1457.66 Q2315.15 1461.2 2315.15 1468.33 Q2315.15 1475.44 2316.95 1479.01 Q2318.78 1482.55 2322.39 1482.55 Q2326.03 1482.55 2327.83 1479.01 Q2329.66 1475.44 2329.66 1468.33 Q2329.66 1461.2 2327.83 1457.66 Q2326.03 1454.1 2322.39 1454.1 M2322.39 1450.39 Q2328.2 1450.39 2331.26 1455 Q2334.34 1459.58 2334.34 1468.33 Q2334.34 1477.06 2331.26 1481.67 Q2328.2 1486.25 2322.39 1486.25 Q2316.58 1486.25 2313.51 1481.67 Q2310.45 1477.06 2310.45 1468.33 Q2310.45 1459.58 2313.51 1455 Q2316.58 1450.39 2322.39 1450.39 Z" fill="#000000" fill-rule="evenodd" fill-opacity="1" /><path clip-path="url(#clip850)" d="M1097.54 1520.52 L1137.74 1520.52 L1137.74 1525.93 L1120.87 1525.93 L1120.87 1568.04 L1114.41 1568.04 L1114.41 1525.93 L1097.54 1525.93 L1097.54 1520.52 Z" fill="#000000" fill-rule="evenodd" fill-opacity="1" /><path clip-path="url(#clip850)" d="M1154.77 1537.87 Q1153.78 1537.3 1152.61 1537.04 Q1151.46 1536.76 1150.06 1536.76 Q1145.09 1536.76 1142.42 1540 Q1139.78 1543.22 1139.78 1549.27 L1139.78 1568.04 L1133.89 1568.04 L1133.89 1532.4 L1139.78 1532.4 L1139.78 1537.93 Q1141.63 1534.69 1144.59 1533.13 Q1147.55 1531.54 1151.78 1531.54 Q1152.38 1531.54 1153.12 1531.63 Q1153.85 1531.7 1154.74 1531.85 L1154.77 1537.87 Z" fill="#000000" fill-rule="evenodd" fill-opacity="1" /><path clip-path="url(#clip850)" d="M1160.31 1553.98 L1160.31 1532.4 L1166.16 1532.4 L1166.16 1553.75 Q1166.16 1558.81 1168.14 1561.36 Q1170.11 1563.87 1174.06 1563.87 Q1178.8 1563.87 1181.54 1560.85 Q1184.31 1557.83 1184.31 1552.61 L1184.31 1532.4 L1190.16 1532.4 L1190.16 1568.04 L1184.31 1568.04 L1184.31 1562.57 Q1182.17 1565.82 1179.34 1567.41 Q1176.54 1568.97 1172.82 1568.97 Q1166.67 1568.97 1163.49 1565.15 Q1160.31 1561.33 1160.31 1553.98 M1175.05 1531.54 L1175.05 1531.54 Z" fill="#000000" fill-rule="evenodd" fill-opacity="1" /><path clip-path="url(#clip850)" d="M1231.86 1546.53 L1231.86 1568.04 L1226 1568.04 L1226 1546.72 Q1226 1541.66 1224.03 1539.14 Q1222.06 1536.63 1218.11 1536.63 Q1213.37 1536.63 1210.63 1539.65 Q1207.89 1542.68 1207.89 1547.9 L1207.89 1568.04 L1202 1568.04 L1202 1532.4 L1207.89 1532.4 L1207.89 1537.93 Q1209.99 1534.72 1212.83 1533.13 Q1215.69 1531.54 1219.41 1531.54 Q1225.56 1531.54 1228.71 1535.36 Q1231.86 1539.14 1231.86 1546.53 Z" fill="#000000" fill-rule="evenodd" fill-opacity="1" /><path clip-path="url(#clip850)" d="M1269.19 1533.76 L1269.19 1539.24 Q1266.71 1537.87 1264.2 1537.2 Q1261.71 1536.5 1259.17 1536.5 Q1253.47 1536.5 1250.32 1540.13 Q1247.17 1543.73 1247.17 1550.25 Q1247.17 1556.78 1250.32 1560.4 Q1253.47 1564 1259.17 1564 Q1261.71 1564 1264.2 1563.33 Q1266.71 1562.63 1269.19 1561.26 L1269.19 1566.68 Q1266.74 1567.82 1264.1 1568.39 Q1261.49 1568.97 1258.53 1568.97 Q1250.48 1568.97 1245.74 1563.91 Q1240.99 1558.85 1240.99 1550.25 Q1240.99 1541.53 1245.77 1536.53 Q1250.57 1531.54 1258.91 1531.54 Q1261.62 1531.54 1264.2 1532.11 Q1266.77 1532.65 1269.19 1533.76 Z" fill="#000000" fill-rule="evenodd" fill-opacity="1" /><path clip-path="url(#clip850)" d="M1295.58 1550.12 Q1288.48 1550.12 1285.74 1551.75 Q1283.01 1553.37 1283.01 1557.29 Q1283.01 1560.4 1285.04 1562.25 Q1287.11 1564.07 1290.65 1564.07 Q1295.52 1564.07 1298.44 1560.63 Q1301.4 1557.16 1301.4 1551.43 L1301.4 1550.12 L1295.58 1550.12 M1307.26 1547.71 L1307.26 1568.04 L1301.4 1568.04 L1301.4 1562.63 Q1299.4 1565.88 1296.41 1567.44 Q1293.42 1568.97 1289.09 1568.97 Q1283.61 1568.97 1280.37 1565.91 Q1277.15 1562.82 1277.15 1557.67 Q1277.15 1551.65 1281.16 1548.6 Q1285.2 1545.54 1293.19 1545.54 L1301.4 1545.54 L1301.4 1544.97 Q1301.4 1540.93 1298.73 1538.73 Q1296.09 1536.5 1291.28 1536.5 Q1288.23 1536.5 1285.33 1537.23 Q1282.43 1537.97 1279.76 1539.43 L1279.76 1534.02 Q1282.98 1532.78 1286 1532.17 Q1289.02 1531.54 1291.89 1531.54 Q1299.62 1531.54 1303.44 1535.55 Q1307.26 1539.56 1307.26 1547.71 Z" fill="#000000" fill-rule="evenodd" fill-opacity="1" /><path clip-path="url(#clip850)" d="M1325.12 1522.27 L1325.12 1532.4 L1337.18 1532.4 L1337.18 1536.95 L1325.12 1536.95 L1325.12 1556.3 Q1325.12 1560.66 1326.29 1561.9 Q1327.5 1563.14 1331.16 1563.14 L1337.18 1563.14 L1337.18 1568.04 L1331.16 1568.04 Q1324.38 1568.04 1321.81 1565.53 Q1319.23 1562.98 1319.23 1556.3 L1319.23 1536.95 L1314.93 1536.95 L1314.93 1532.4 L1319.23 1532.4 L1319.23 1522.27 L1325.12 1522.27 Z" fill="#000000" fill-rule="evenodd" fill-opacity="1" /><path clip-path="url(#clip850)" d="M1344.88 1532.4 L1350.74 1532.4 L1350.74 1568.04 L1344.88 1568.04 L1344.88 1532.4 M1344.88 1518.52 L1350.74 1518.52 L1350.74 1525.93 L1344.88 1525.93 L1344.88 1518.52 Z" fill="#000000" fill-rule="evenodd" fill-opacity="1" /><path clip-path="url(#clip850)" d="M1376.81 1536.5 Q1372.1 1536.5 1369.36 1540.19 Q1366.62 1543.85 1366.62 1550.25 Q1366.62 1556.65 1369.33 1560.34 Q1372.06 1564 1376.81 1564 Q1381.48 1564 1384.22 1560.31 Q1386.96 1556.62 1386.96 1550.25 Q1386.96 1543.92 1384.22 1540.23 Q1381.48 1536.5 1376.81 1536.5 M1376.81 1531.54 Q1384.44 1531.54 1388.81 1536.5 Q1393.17 1541.47 1393.17 1550.25 Q1393.17 1559 1388.81 1564 Q1384.44 1568.97 1376.81 1568.97 Q1369.14 1568.97 1364.77 1564 Q1360.45 1559 1360.45 1550.25 Q1360.45 1541.47 1364.77 1536.5 Q1369.14 1531.54 1376.81 1531.54 Z" fill="#000000" fill-rule="evenodd" fill-opacity="1" /><path clip-path="url(#clip850)" d="M1432.51 1546.53 L1432.51 1568.04 L1426.65 1568.04 L1426.65 1546.72 Q1426.65 1541.66 1424.68 1539.14 Q1422.7 1536.63 1418.76 1536.63 Q1414.01 1536.63 1411.28 1539.65 Q1408.54 1542.68 1408.54 1547.9 L1408.54 1568.04 L1402.65 1568.04 L1402.65 1532.4 L1408.54 1532.4 L1408.54 1537.93 Q1410.64 1534.72 1413.47 1533.13 Q1416.34 1531.54 1420.06 1531.54 Q1426.2 1531.54 1429.36 1535.36 Q1432.51 1539.14 1432.51 1546.53 Z" fill="#000000" fill-rule="evenodd" fill-opacity="1" /><path clip-path="url(#clip850)" d="M1445.68 1559.96 L1452.4 1559.96 L1452.4 1565.43 L1447.18 1575.62 L1443.07 1575.62 L1445.68 1565.43 L1445.68 1559.96 Z" fill="#000000" fill-rule="evenodd" fill-opacity="1" /><path clip-path="url(#clip850)" d="M1506.28 1537.87 Q1505.3 1537.3 1504.12 1537.04 Q1502.97 1536.76 1501.57 1536.76 Q1496.61 1536.76 1493.94 1540 Q1491.29 1543.22 1491.29 1549.27 L1491.29 1568.04 L1485.41 1568.04 L1485.41 1532.4 L1491.29 1532.4 L1491.29 1537.93 Q1493.14 1534.69 1496.1 1533.13 Q1499.06 1531.54 1503.29 1531.54 Q1503.9 1531.54 1504.63 1531.63 Q1505.36 1531.7 1506.25 1531.85 L1506.28 1537.87 Z" fill="#000000" fill-rule="evenodd" fill-opacity="1" /><polyline clip-path="url(#clip852)" style="stroke:#000000; stroke-linecap:round; stroke-linejoin:round; stroke-width:2; stroke-opacity:0.1; fill:none" points="
  251.071,1135.57 2352.76,1135.57 
  "/>
<polyline clip-path="url(#clip852)" style="stroke:#000000; stroke-linecap:round; stroke-linejoin:round; stroke-width:2; stroke-opacity:0.1; fill:none" points="
  251.071,784.229 2352.76,784.229 
  "/>
<polyline clip-path="url(#clip852)" style="stroke:#000000; stroke-linecap:round; stroke-linejoin:round; stroke-width:2; stroke-opacity:0.1; fill:none" points="
  251.071,432.886 2352.76,432.886 
  "/>
<polyline clip-path="url(#clip850)" style="stroke:#000000; stroke-linecap:round; stroke-linejoin:round; stroke-width:4; stroke-opacity:1; fill:none" points="
  251.071,1423.18 251.071,123.472 
  "/>
<polyline clip-path="url(#clip850)" style="stroke:#000000; stroke-linecap:round; stroke-linejoin:round; stroke-width:4; stroke-opacity:1; fill:none" points="
  251.071,1135.57 269.969,1135.57 
  "/>
<polyline clip-path="url(#clip850)" style="stroke:#000000; stroke-linecap:round; stroke-linejoin:round; stroke-width:4; stroke-opacity:1; fill:none" points="
  251.071,784.229 269.969,784.229 
  "/>
<polyline clip-path="url(#clip850)" style="stroke:#000000; stroke-linecap:round; stroke-linejoin:round; stroke-width:4; stroke-opacity:1; fill:none" points="
  251.071,432.886 269.969,432.886 
  "/>
<path clip-path="url(#clip850)" d="M114.931 1155.36 L122.57 1155.36 L122.57 1129 L114.26 1130.66 L114.26 1126.41 L122.524 1124.74 L127.2 1124.74 L127.2 1155.36 L134.839 1155.36 L134.839 1159.3 L114.931 1159.3 L114.931 1155.36 Z" fill="#000000" fill-rule="evenodd" fill-opacity="1" /><path clip-path="url(#clip850)" d="M154.283 1127.82 Q150.672 1127.82 148.843 1131.38 Q147.038 1134.92 147.038 1142.05 Q147.038 1149.16 148.843 1152.72 Q150.672 1156.27 154.283 1156.27 Q157.917 1156.27 159.723 1152.72 Q161.552 1149.16 161.552 1142.05 Q161.552 1134.92 159.723 1131.38 Q157.917 1127.82 154.283 1127.82 M154.283 1124.11 Q160.093 1124.11 163.149 1128.72 Q166.227 1133.3 166.227 1142.05 Q166.227 1150.78 163.149 1155.39 Q160.093 1159.97 154.283 1159.97 Q148.473 1159.97 145.394 1155.39 Q142.339 1150.78 142.339 1142.05 Q142.339 1133.3 145.394 1128.72 Q148.473 1124.11 154.283 1124.11 Z" fill="#000000" fill-rule="evenodd" fill-opacity="1" /><path clip-path="url(#clip850)" d="M166.227 1118.22 L190.339 1118.22 L190.339 1121.41 L166.227 1121.41 L166.227 1118.22 Z" fill="#000000" fill-rule="evenodd" fill-opacity="1" /><path clip-path="url(#clip850)" d="M201.812 1128.69 L215.071 1128.69 L215.071 1131.89 L197.241 1131.89 L197.241 1128.69 Q199.404 1126.45 203.128 1122.69 Q206.871 1118.91 207.83 1117.82 Q209.655 1115.77 210.369 1114.36 Q211.103 1112.93 211.103 1111.56 Q211.103 1109.32 209.523 1107.91 Q207.962 1106.5 205.442 1106.5 Q203.655 1106.5 201.661 1107.12 Q199.686 1107.74 197.43 1109 L197.43 1105.16 Q199.724 1104.24 201.718 1103.77 Q203.711 1103.3 205.366 1103.3 Q209.73 1103.3 212.325 1105.48 Q214.921 1107.66 214.921 1111.31 Q214.921 1113.04 214.263 1114.6 Q213.623 1116.15 211.912 1118.25 Q211.441 1118.8 208.921 1121.41 Q206.401 1124.01 201.812 1128.69 Z" fill="#000000" fill-rule="evenodd" fill-opacity="1" /><path clip-path="url(#clip850)" d="M144.366 804.021 L152.004 804.021 L152.004 777.655 L143.694 779.322 L143.694 775.063 L151.958 773.396 L156.634 773.396 L156.634 804.021 L164.273 804.021 L164.273 807.956 L144.366 807.956 L144.366 804.021 Z" fill="#000000" fill-rule="evenodd" fill-opacity="1" /><path clip-path="url(#clip850)" d="M183.717 776.475 Q180.106 776.475 178.277 780.04 Q176.472 783.581 176.472 790.711 Q176.472 797.817 178.277 801.382 Q180.106 804.924 183.717 804.924 Q187.351 804.924 189.157 801.382 Q190.986 797.817 190.986 790.711 Q190.986 783.581 189.157 780.04 Q187.351 776.475 183.717 776.475 M183.717 772.771 Q189.527 772.771 192.583 777.378 Q195.662 781.961 195.662 790.711 Q195.662 799.438 192.583 804.044 Q189.527 808.627 183.717 808.627 Q177.907 808.627 174.828 804.044 Q171.773 799.438 171.773 790.711 Q171.773 781.961 174.828 777.378 Q177.907 772.771 183.717 772.771 Z" fill="#000000" fill-rule="evenodd" fill-opacity="1" /><path clip-path="url(#clip850)" d="M205.366 754.967 Q202.432 754.967 200.947 757.864 Q199.48 760.741 199.48 766.534 Q199.48 772.308 200.947 775.204 Q202.432 778.082 205.366 778.082 Q208.319 778.082 209.786 775.204 Q211.272 772.308 211.272 766.534 Q211.272 760.741 209.786 757.864 Q208.319 754.967 205.366 754.967 M205.366 751.958 Q210.087 751.958 212.57 755.701 Q215.071 759.425 215.071 766.534 Q215.071 773.625 212.57 777.367 Q210.087 781.091 205.366 781.091 Q200.646 781.091 198.144 777.367 Q195.662 773.625 195.662 766.534 Q195.662 759.425 198.144 755.701 Q200.646 751.958 205.366 751.958 Z" fill="#000000" fill-rule="evenodd" fill-opacity="1" /><path clip-path="url(#clip850)" d="M145.945 452.678 L153.584 452.678 L153.584 426.313 L145.274 427.979 L145.274 423.72 L153.538 422.053 L158.214 422.053 L158.214 452.678 L165.853 452.678 L165.853 456.613 L145.945 456.613 L145.945 452.678 Z" fill="#000000" fill-rule="evenodd" fill-opacity="1" /><path clip-path="url(#clip850)" d="M185.297 425.132 Q181.686 425.132 179.857 428.697 Q178.052 432.239 178.052 439.368 Q178.052 446.475 179.857 450.039 Q181.686 453.581 185.297 453.581 Q188.931 453.581 190.737 450.039 Q192.566 446.475 192.566 439.368 Q192.566 432.239 190.737 428.697 Q188.931 425.132 185.297 425.132 M185.297 421.428 Q191.107 421.428 194.163 426.035 Q197.241 430.618 197.241 439.368 Q197.241 448.095 194.163 452.701 Q191.107 457.285 185.297 457.285 Q179.487 457.285 176.408 452.701 Q173.353 448.095 173.353 439.368 Q173.353 430.618 176.408 426.035 Q179.487 421.428 185.297 421.428 Z" fill="#000000" fill-rule="evenodd" fill-opacity="1" /><path clip-path="url(#clip850)" d="M201.812 426.006 L215.071 426.006 L215.071 429.203 L197.241 429.203 L197.241 426.006 Q199.404 423.768 203.128 420.006 Q206.871 416.226 207.83 415.135 Q209.655 413.085 210.369 411.674 Q211.103 410.245 211.103 408.872 Q211.103 406.634 209.523 405.223 Q207.962 403.813 205.442 403.813 Q203.655 403.813 201.661 404.433 Q199.686 405.054 197.43 406.314 L197.43 402.477 Q199.724 401.556 201.718 401.085 Q203.711 400.615 205.366 400.615 Q209.73 400.615 212.325 402.797 Q214.921 404.979 214.921 408.627 Q214.921 410.358 214.263 411.919 Q213.623 413.461 211.912 415.567 Q211.441 416.113 208.921 418.727 Q206.401 421.323 201.812 426.006 Z" fill="#000000" fill-rule="evenodd" fill-opacity="1" /><path clip-path="url(#clip850)" d="M18.0438 972.891 L24.314 972.891 Q22.5634 976.551 21.704 979.798 Q20.8447 983.044 20.8447 986.068 Q20.8447 991.32 22.8817 994.184 Q24.9187 997.017 28.6745 997.017 Q31.8255 997.017 33.4488 995.139 Q35.0402 993.229 36.0269 987.946 L36.8226 984.063 Q38.1912 976.869 41.6605 973.464 Q45.098 970.026 50.8908 970.026 Q57.7976 970.026 61.3624 974.673 Q64.9272 979.288 64.9272 988.232 Q64.9272 991.606 64.1633 995.425 Q63.3994 999.213 61.9035 1003.29 L55.2831 1003.29 Q57.4793 999.372 58.5933 995.616 Q59.7073 991.861 59.7073 988.232 Q59.7073 982.726 57.543 979.734 Q55.3786 976.742 51.3682 976.742 Q47.8671 976.742 45.8937 978.906 Q43.9204 981.039 42.9337 985.941 L42.1698 989.855 Q40.7375 997.049 37.682 1000.26 Q34.6264 1003.48 29.1837 1003.48 Q22.8817 1003.48 19.2532 999.054 Q15.6248 994.598 15.6248 986.8 Q15.6248 983.458 16.2295 979.989 Q16.8343 976.519 18.0438 972.891 Z" fill="#000000" fill-rule="evenodd" fill-opacity="1" /><path clip-path="url(#clip850)" d="M28.3562 960.255 L28.3562 954.399 L64.0042 954.399 L64.0042 960.255 L28.3562 960.255 M14.479 960.255 L14.479 954.399 L21.895 954.399 L21.895 960.255 L14.479 960.255 Z" fill="#000000" fill-rule="evenodd" fill-opacity="1" /><path clip-path="url(#clip850)" d="M42.4881 912.512 L64.0042 912.512 L64.0042 918.369 L42.679 918.369 Q37.6183 918.369 35.1038 920.342 Q32.5894 922.315 32.5894 926.262 Q32.5894 931.005 35.6131 933.742 Q38.6368 936.479 43.8567 936.479 L64.0042 936.479 L64.0042 942.367 L28.3562 942.367 L28.3562 936.479 L33.8944 936.479 Q30.6797 934.378 29.0883 931.546 Q27.4968 928.681 27.4968 924.957 Q27.4968 918.814 31.3163 915.663 Q35.1038 912.512 42.4881 912.512 Z" fill="#000000" fill-rule="evenodd" fill-opacity="1" /><path clip-path="url(#clip850)" d="M45.7664 877.373 Q39.4007 877.373 35.8996 880.015 Q32.3984 882.625 32.3984 887.368 Q32.3984 892.078 35.8996 894.72 Q39.4007 897.33 45.7664 897.33 Q52.1003 897.33 55.6014 894.72 Q59.1026 892.078 59.1026 887.368 Q59.1026 882.625 55.6014 880.015 Q52.1003 877.373 45.7664 877.373 M59.58 871.517 Q68.683 871.517 73.1071 875.559 Q77.5631 879.601 77.5631 887.941 Q77.5631 891.028 77.0857 893.765 Q76.6401 896.502 75.6852 899.081 L69.9879 899.081 Q71.3884 896.502 72.0568 893.988 Q72.7252 891.473 72.7252 888.864 Q72.7252 883.103 69.7015 880.238 Q66.7096 877.373 60.6303 877.373 L57.7339 877.373 Q60.885 879.188 62.4446 882.02 Q64.0042 884.853 64.0042 888.8 Q64.0042 895.357 59.0071 899.367 Q54.01 903.377 45.7664 903.377 Q37.491 903.377 32.4939 899.367 Q27.4968 895.357 27.4968 888.8 Q27.4968 884.853 29.0564 882.02 Q30.616 879.188 33.7671 877.373 L28.3562 877.373 L28.3562 871.517 L59.58 871.517 Z" fill="#000000" fill-rule="evenodd" fill-opacity="1" /><path clip-path="url(#clip850)" d="M49.9359 860.059 L28.3562 860.059 L28.3562 854.202 L49.7131 854.202 Q54.7739 854.202 57.3202 852.229 Q59.8346 850.256 59.8346 846.309 Q59.8346 841.566 56.8109 838.829 Q53.7872 836.06 48.5673 836.06 L28.3562 836.06 L28.3562 830.204 L64.0042 830.204 L64.0042 836.06 L58.5296 836.06 Q61.7762 838.193 63.3676 841.025 Q64.9272 843.826 64.9272 847.55 Q64.9272 853.693 61.1078 856.876 Q57.2883 860.059 49.9359 860.059 M27.4968 845.322 L27.4968 845.322 Z" fill="#000000" fill-rule="evenodd" fill-opacity="1" /><path clip-path="url(#clip850)" d="M14.479 818.141 L14.479 812.284 L64.0042 812.284 L64.0042 818.141 L14.479 818.141 Z" fill="#000000" fill-rule="evenodd" fill-opacity="1" /><path clip-path="url(#clip850)" d="M46.0847 783.829 Q46.0847 790.927 47.7079 793.664 Q49.3312 796.402 53.2461 796.402 Q56.3653 796.402 58.2114 794.365 Q60.0256 792.296 60.0256 788.763 Q60.0256 783.893 56.5881 780.965 Q53.1188 778.005 47.3897 778.005 L46.0847 778.005 L46.0847 783.829 M43.6657 772.148 L64.0042 772.148 L64.0042 778.005 L58.5933 778.005 Q61.8398 780.01 63.3994 783.002 Q64.9272 785.994 64.9272 790.322 Q64.9272 795.797 61.8716 799.043 Q58.7843 802.258 53.6281 802.258 Q47.6125 802.258 44.5569 798.248 Q41.5014 794.206 41.5014 786.217 L41.5014 778.005 L40.9285 778.005 Q36.8862 778.005 34.6901 780.678 Q32.4621 783.32 32.4621 788.126 Q32.4621 791.182 33.1941 794.078 Q33.9262 796.975 35.3903 799.648 L29.9795 799.648 Q28.7381 796.433 28.1334 793.41 Q27.4968 790.386 27.4968 787.522 Q27.4968 779.787 31.5072 775.968 Q35.5176 772.148 43.6657 772.148 Z" fill="#000000" fill-rule="evenodd" fill-opacity="1" /><path clip-path="url(#clip850)" d="M33.8307 739.429 Q33.2578 740.415 33.0032 741.593 Q32.7167 742.739 32.7167 744.139 Q32.7167 749.104 35.9632 751.778 Q39.1779 754.42 45.2253 754.42 L64.0042 754.42 L64.0042 760.308 L28.3562 760.308 L28.3562 754.42 L33.8944 754.42 Q30.6479 752.574 29.0883 749.614 Q27.4968 746.654 27.4968 742.42 Q27.4968 741.816 27.5923 741.084 Q27.656 740.352 27.8151 739.46 L33.8307 739.429 Z" fill="#000000" fill-rule="evenodd" fill-opacity="1" /><path clip-path="url(#clip850)" d="M64.0042 700.057 L16.4842 718.199 L16.4842 711.483 L56.4926 696.428 L16.4842 681.342 L16.4842 674.658 L64.0042 692.768 L64.0042 700.057 Z" fill="#000000" fill-rule="evenodd" fill-opacity="1" /><path clip-path="url(#clip850)" d="M46.0847 656.834 Q46.0847 663.931 47.7079 666.669 Q49.3312 669.406 53.2461 669.406 Q56.3653 669.406 58.2114 667.369 Q60.0256 665.3 60.0256 661.767 Q60.0256 656.897 56.5881 653.969 Q53.1188 651.009 47.3897 651.009 L46.0847 651.009 L46.0847 656.834 M43.6657 645.152 L64.0042 645.152 L64.0042 651.009 L58.5933 651.009 Q61.8398 653.014 63.3994 656.006 Q64.9272 658.998 64.9272 663.327 Q64.9272 668.801 61.8716 672.048 Q58.7843 675.262 53.6281 675.262 Q47.6125 675.262 44.5569 671.252 Q41.5014 667.21 41.5014 659.221 L41.5014 651.009 L40.9285 651.009 Q36.8862 651.009 34.6901 653.683 Q32.4621 656.324 32.4621 661.13 Q32.4621 664.186 33.1941 667.082 Q33.9262 669.979 35.3903 672.652 L29.9795 672.652 Q28.7381 669.438 28.1334 666.414 Q27.4968 663.39 27.4968 660.526 Q27.4968 652.791 31.5072 648.972 Q35.5176 645.152 43.6657 645.152 Z" fill="#000000" fill-rule="evenodd" fill-opacity="1" /><path clip-path="url(#clip850)" d="M14.479 633.089 L14.479 627.233 L64.0042 627.233 L64.0042 633.089 L14.479 633.089 Z" fill="#000000" fill-rule="evenodd" fill-opacity="1" /><path clip-path="url(#clip850)" d="M49.9359 615.584 L28.3562 615.584 L28.3562 609.727 L49.7131 609.727 Q54.7739 609.727 57.3202 607.754 Q59.8346 605.781 59.8346 601.834 Q59.8346 597.091 56.8109 594.354 Q53.7872 591.585 48.5673 591.585 L28.3562 591.585 L28.3562 585.729 L64.0042 585.729 L64.0042 591.585 L58.5296 591.585 Q61.7762 593.718 63.3676 596.55 Q64.9272 599.351 64.9272 603.075 Q64.9272 609.218 61.1078 612.401 Q57.2883 615.584 49.9359 615.584 M27.4968 600.847 L27.4968 600.847 Z" fill="#000000" fill-rule="evenodd" fill-opacity="1" /><path clip-path="url(#clip850)" d="M44.7161 543.174 L47.5806 543.174 L47.5806 570.101 Q53.6281 569.719 56.8109 566.472 Q59.9619 563.194 59.9619 557.369 Q59.9619 553.996 59.1344 550.845 Q58.3069 547.662 56.6518 544.542 L62.1899 544.542 Q63.5267 547.694 64.227 551.004 Q64.9272 554.314 64.9272 557.72 Q64.9272 566.25 59.9619 571.247 Q54.9967 576.212 46.5303 576.212 Q37.7774 576.212 32.6531 571.501 Q27.4968 566.759 27.4968 558.738 Q27.4968 551.545 32.1438 547.375 Q36.7589 543.174 44.7161 543.174 M42.9973 549.03 Q38.1912 549.094 35.3266 551.736 Q32.4621 554.346 32.4621 558.674 Q32.4621 563.576 35.2312 566.536 Q38.0002 569.464 43.0292 569.91 L42.9973 549.03 Z" fill="#000000" fill-rule="evenodd" fill-opacity="1" /><path clip-path="url(#clip850)" d="M1026.13 14.0809 L1026.13 22.0612 Q1021.47 19.8332 1017.34 18.7395 Q1013.21 17.6457 1009.36 17.6457 Q1002.67 17.6457 999.027 20.2383 Q995.422 22.8309 995.422 27.611 Q995.422 31.6214 997.812 33.6873 Q1000.24 35.7128 1006.97 36.9686 L1011.91 37.9813 Q1021.06 39.7232 1025.4 44.1387 Q1029.77 48.5136 1029.77 55.8863 Q1029.77 64.6767 1023.86 69.2137 Q1017.99 73.7508 1006.6 73.7508 Q1002.31 73.7508 997.448 72.7785 Q992.627 71.8063 987.442 69.9024 L987.442 61.4765 Q992.424 64.2716 997.205 65.6895 Q1001.98 67.1073 1006.6 67.1073 Q1013.61 67.1073 1017.42 64.3527 Q1021.23 61.598 1021.23 56.4939 Q1021.23 52.0379 1018.47 49.5264 Q1015.76 47.0148 1009.52 45.759 L1004.54 44.7868 Q995.382 42.9639 991.29 39.075 Q987.199 35.1862 987.199 28.2591 Q987.199 20.2383 992.83 15.6203 Q998.501 11.0023 1008.43 11.0023 Q1012.68 11.0023 1017.09 11.7719 Q1021.51 12.5416 1026.13 14.0809 Z" fill="#000000" fill-rule="evenodd" fill-opacity="1" /><path clip-path="url(#clip850)" d="M1042.21 27.2059 L1049.66 27.2059 L1049.66 72.576 L1042.21 72.576 L1042.21 27.2059 M1042.21 9.54393 L1049.66 9.54393 L1049.66 18.9825 L1042.21 18.9825 L1042.21 9.54393 Z" fill="#000000" fill-rule="evenodd" fill-opacity="1" /><path clip-path="url(#clip850)" d="M1102.97 45.1919 L1102.97 72.576 L1095.52 72.576 L1095.52 45.4349 Q1095.52 38.994 1093.01 35.7938 Q1090.5 32.5936 1085.47 32.5936 Q1079.44 32.5936 1075.95 36.4419 Q1072.47 40.2903 1072.47 46.9338 L1072.47 72.576 L1064.98 72.576 L1064.98 27.2059 L1072.47 27.2059 L1072.47 34.2544 Q1075.14 30.163 1078.75 28.1376 Q1082.4 26.1121 1087.13 26.1121 Q1094.95 26.1121 1098.96 30.9732 Q1102.97 35.7938 1102.97 45.1919 Z" fill="#000000" fill-rule="evenodd" fill-opacity="1" /><path clip-path="url(#clip850)" d="M1147.7 49.3643 Q1147.7 41.2625 1144.33 36.8065 Q1141.01 32.3505 1134.98 32.3505 Q1128.98 32.3505 1125.62 36.8065 Q1122.3 41.2625 1122.3 49.3643 Q1122.3 57.4256 1125.62 61.8816 Q1128.98 66.3376 1134.98 66.3376 Q1141.01 66.3376 1144.33 61.8816 Q1147.7 57.4256 1147.7 49.3643 M1155.15 66.9452 Q1155.15 78.5308 1150 84.1616 Q1144.86 89.8329 1134.25 89.8329 Q1130.32 89.8329 1126.83 89.2252 Q1123.35 88.6581 1120.07 87.4428 L1120.07 80.1917 Q1123.35 81.9741 1126.55 82.8248 Q1129.75 83.6755 1133.07 83.6755 Q1140.4 83.6755 1144.05 79.8271 Q1147.7 76.0193 1147.7 68.282 L1147.7 64.5957 Q1145.39 68.6061 1141.78 70.5911 Q1138.18 72.576 1133.15 72.576 Q1124.81 72.576 1119.7 66.2161 Q1114.6 59.8562 1114.6 49.3643 Q1114.6 38.832 1119.7 32.472 Q1124.81 26.1121 1133.15 26.1121 Q1138.18 26.1121 1141.78 28.0971 Q1145.39 30.082 1147.7 34.0924 L1147.7 27.2059 L1155.15 27.2059 L1155.15 66.9452 Z" fill="#000000" fill-rule="evenodd" fill-opacity="1" /><path clip-path="url(#clip850)" d="M1169.73 54.671 L1169.73 27.2059 L1177.19 27.2059 L1177.19 54.3874 Q1177.19 60.8284 1179.7 64.0691 Q1182.21 67.2693 1187.23 67.2693 Q1193.27 67.2693 1196.75 63.421 Q1200.28 59.5726 1200.28 52.9291 L1200.28 27.2059 L1207.73 27.2059 L1207.73 72.576 L1200.28 72.576 L1200.28 65.6084 Q1197.56 69.7404 1193.96 71.7658 Q1190.39 73.7508 1185.65 73.7508 Q1177.83 73.7508 1173.78 68.8897 Q1169.73 64.0286 1169.73 54.671 M1188.49 26.1121 L1188.49 26.1121 Z" fill="#000000" fill-rule="evenodd" fill-opacity="1" /><path clip-path="url(#clip850)" d="M1223.08 9.54393 L1230.54 9.54393 L1230.54 72.576 L1223.08 72.576 L1223.08 9.54393 Z" fill="#000000" fill-rule="evenodd" fill-opacity="1" /><path clip-path="url(#clip850)" d="M1266.75 49.7694 Q1257.72 49.7694 1254.23 51.8354 Q1250.75 53.9013 1250.75 58.8839 Q1250.75 62.8538 1253.34 65.2034 Q1255.98 67.5124 1260.47 67.5124 Q1266.67 67.5124 1270.4 63.1374 Q1274.16 58.7219 1274.16 51.4303 L1274.16 49.7694 L1266.75 49.7694 M1281.62 46.6907 L1281.62 72.576 L1274.16 72.576 L1274.16 65.6895 Q1271.61 69.8214 1267.8 71.8063 Q1264 73.7508 1258.49 73.7508 Q1251.52 73.7508 1247.39 69.8619 Q1243.3 65.9325 1243.3 59.3701 Q1243.3 51.7138 1248.4 47.825 Q1253.55 43.9361 1263.71 43.9361 L1274.16 43.9361 L1274.16 43.2069 Q1274.16 38.0623 1270.76 35.2672 Q1267.4 32.4315 1261.28 32.4315 Q1257.39 32.4315 1253.71 33.3632 Q1250.02 34.295 1246.62 36.1584 L1246.62 29.2718 Q1250.71 27.692 1254.56 26.9223 Q1258.41 26.1121 1262.05 26.1121 Q1271.9 26.1121 1276.76 31.2163 Q1281.62 36.3204 1281.62 46.6907 Z" fill="#000000" fill-rule="evenodd" fill-opacity="1" /><path clip-path="url(#clip850)" d="M1323.26 34.1734 Q1322.01 33.4443 1320.51 33.1202 Q1319.05 32.7556 1317.27 32.7556 Q1310.95 32.7556 1307.54 36.8875 Q1304.18 40.9789 1304.18 48.6757 L1304.18 72.576 L1296.69 72.576 L1296.69 27.2059 L1304.18 27.2059 L1304.18 34.2544 Q1306.53 30.1225 1310.3 28.1376 Q1314.07 26.1121 1319.45 26.1121 Q1320.22 26.1121 1321.16 26.2337 Q1322.09 26.3147 1323.22 26.5172 L1323.26 34.1734 Z" fill="#000000" fill-rule="evenodd" fill-opacity="1" /><path clip-path="url(#clip850)" d="M1373.37 72.576 L1350.28 12.096 L1358.83 12.096 L1377.99 63.0159 L1397.19 12.096 L1405.7 12.096 L1382.65 72.576 L1373.37 72.576 Z" fill="#000000" fill-rule="evenodd" fill-opacity="1" /><path clip-path="url(#clip850)" d="M1428.38 49.7694 Q1419.35 49.7694 1415.87 51.8354 Q1412.38 53.9013 1412.38 58.8839 Q1412.38 62.8538 1414.97 65.2034 Q1417.61 67.5124 1422.1 67.5124 Q1428.3 67.5124 1432.03 63.1374 Q1435.8 58.7219 1435.8 51.4303 L1435.8 49.7694 L1428.38 49.7694 M1443.25 46.6907 L1443.25 72.576 L1435.8 72.576 L1435.8 65.6895 Q1433.24 69.8214 1429.44 71.8063 Q1425.63 73.7508 1420.12 73.7508 Q1413.15 73.7508 1409.02 69.8619 Q1404.93 65.9325 1404.93 59.3701 Q1404.93 51.7138 1410.03 47.825 Q1415.18 43.9361 1425.34 43.9361 L1435.8 43.9361 L1435.8 43.2069 Q1435.8 38.0623 1432.39 35.2672 Q1429.03 32.4315 1422.91 32.4315 Q1419.03 32.4315 1415.34 33.3632 Q1411.65 34.295 1408.25 36.1584 L1408.25 29.2718 Q1412.34 27.692 1416.19 26.9223 Q1420.04 26.1121 1423.68 26.1121 Q1433.53 26.1121 1438.39 31.2163 Q1443.25 36.3204 1443.25 46.6907 Z" fill="#000000" fill-rule="evenodd" fill-opacity="1" /><path clip-path="url(#clip850)" d="M1458.6 9.54393 L1466.06 9.54393 L1466.06 72.576 L1458.6 72.576 L1458.6 9.54393 Z" fill="#000000" fill-rule="evenodd" fill-opacity="1" /><path clip-path="url(#clip850)" d="M1480.88 54.671 L1480.88 27.2059 L1488.34 27.2059 L1488.34 54.3874 Q1488.34 60.8284 1490.85 64.0691 Q1493.36 67.2693 1498.38 67.2693 Q1504.42 67.2693 1507.9 63.421 Q1511.43 59.5726 1511.43 52.9291 L1511.43 27.2059 L1518.88 27.2059 L1518.88 72.576 L1511.43 72.576 L1511.43 65.6084 Q1508.71 69.7404 1505.11 71.7658 Q1501.54 73.7508 1496.8 73.7508 Q1488.98 73.7508 1484.93 68.8897 Q1480.88 64.0286 1480.88 54.671 M1499.64 26.1121 L1499.64 26.1121 Z" fill="#000000" fill-rule="evenodd" fill-opacity="1" /><path clip-path="url(#clip850)" d="M1573.04 48.0275 L1573.04 51.6733 L1538.77 51.6733 Q1539.26 59.3701 1543.39 63.421 Q1547.56 67.4314 1554.97 67.4314 Q1559.27 67.4314 1563.28 66.3781 Q1567.33 65.3249 1571.3 63.2184 L1571.3 70.267 Q1567.29 71.9684 1563.08 72.8596 Q1558.86 73.7508 1554.53 73.7508 Q1543.67 73.7508 1537.31 67.4314 Q1530.99 61.1119 1530.99 50.3365 Q1530.99 39.1965 1536.99 32.6746 Q1543.02 26.1121 1553.23 26.1121 Q1562.39 26.1121 1567.69 32.0264 Q1573.04 37.9003 1573.04 48.0275 M1565.59 45.84 Q1565.51 39.7232 1562.14 36.0774 Q1558.82 32.4315 1553.31 32.4315 Q1547.07 32.4315 1543.31 35.9558 Q1539.58 39.4801 1539.01 45.8805 L1565.59 45.84 Z" fill="#000000" fill-rule="evenodd" fill-opacity="1" /><path clip-path="url(#clip850)" d="M1614.2 28.5427 L1614.2 35.5912 Q1611.04 33.9709 1607.64 33.1607 Q1604.23 32.3505 1600.59 32.3505 Q1595.04 32.3505 1592.24 34.0519 Q1589.49 35.7533 1589.49 39.156 Q1589.49 41.7486 1591.47 43.2475 Q1593.46 44.7058 1599.45 46.0426 L1602 46.6097 Q1609.94 48.3111 1613.27 51.4303 Q1616.63 54.509 1616.63 60.0587 Q1616.63 66.3781 1611.61 70.0644 Q1606.62 73.7508 1597.87 73.7508 Q1594.23 73.7508 1590.26 73.0216 Q1586.33 72.3329 1581.95 70.9151 L1581.95 63.2184 Q1586.08 65.3654 1590.09 66.4591 Q1594.11 67.5124 1598.03 67.5124 Q1603.3 67.5124 1606.14 65.73 Q1608.97 63.9071 1608.97 60.6258 Q1608.97 57.5877 1606.91 55.9673 Q1604.88 54.3469 1597.95 52.8481 L1595.36 52.2405 Q1588.43 50.7821 1585.36 47.7845 Q1582.28 44.7463 1582.28 39.4801 Q1582.28 33.0797 1586.81 29.5959 Q1591.35 26.1121 1599.7 26.1121 Q1603.83 26.1121 1607.47 26.7198 Q1611.12 27.3274 1614.2 28.5427 Z" fill="#000000" fill-rule="evenodd" fill-opacity="1" /><polyline clip-path="url(#clip852)" style="stroke:#009af9; stroke-linecap:round; stroke-linejoin:round; stroke-width:4; stroke-opacity:1; fill:none" points="
  310.553,160.256 323.86,237.255 337.167,238.962 350.473,315.454 363.78,316.235 377.087,334.134 390.394,335.94 403.701,404.232 417.008,404.773 430.315,452.785 
  443.621,453.398 456.928,507.978 470.235,508.458 483.542,549.071 496.849,549.773 510.156,592.309 523.463,592.608 536.769,636.838 550.076,637.486 563.383,686.621 
  576.69,687.084 589.997,734.727 603.304,735.019 616.611,785.418 629.917,785.753 643.224,837.467 656.531,837.634 669.838,891.714 683.145,892.882 696.452,944.364 
  709.759,953.382 723.065,1006.28 736.372,1008.64 749.679,1065.51 762.986,1066.5 776.293,1125.31 789.6,1126.1 802.907,1185.49 816.213,1186.09 829.52,1245.19 
  842.827,1245.69 856.134,1299.87 869.441,1300.74 882.748,1331.23 896.055,1331.84 909.361,1334.69 922.668,1335.86 935.975,1336.91 949.282,1338.39 962.589,1338.9 
  975.896,1339.82 989.202,1340.34 1002.51,1340.75 1015.82,1341.34 1029.12,1341.62 1042.43,1343.15 1055.74,1343.46 1069.04,1343.83 1082.35,1344.52 1095.66,1345.4 
  1108.96,1345.81 1122.27,1346.75 1135.58,1347.45 1148.88,1347.69 1162.19,1348.35 1175.5,1348.82 1188.81,1349.16 1202.11,1350.26 1215.42,1350.55 1228.73,1351.1 
  1242.03,1351.4 1255.34,1351.92 1268.65,1352.59 1281.95,1353.16 1295.26,1353.42 1308.57,1353.83 1321.87,1354.29 1335.18,1355.46 1348.49,1355.74 1361.79,1356.3 
  1375.1,1356.45 1388.41,1357.54 1401.71,1357.73 1415.02,1359.24 1428.33,1359.53 1441.64,1360.06 1454.94,1360.12 1468.25,1360.56 1481.56,1360.67 1494.86,1360.87 
  1508.17,1361.33 1521.48,1361.86 1534.78,1362.66 1548.09,1363.12 1561.4,1363.36 1574.7,1364.2 1588.01,1364.86 1601.32,1365.38 1614.62,1365.73 1627.93,1365.97 
  1641.24,1366.35 1654.55,1366.74 1667.85,1367.5 1681.16,1368.06 1694.47,1368.38 1707.77,1368.66 1721.08,1369.1 1734.39,1369.36 1747.69,1369.93 1761,1370.48 
  1774.31,1370.65 1787.61,1371.21 1800.92,1372.28 1814.23,1372.7 1827.53,1373.06 1840.84,1373.59 1854.15,1373.63 1867.45,1374.06 1880.76,1374.26 1894.07,1374.55 
  1907.38,1375.31 1920.68,1375.55 1933.99,1376.32 1947.3,1376.42 1960.6,1376.66 1973.91,1377.17 1987.22,1377.49 2000.52,1377.78 2013.83,1378.28 2027.14,1378.54 
  2040.44,1379.4 2053.75,1379.57 2067.06,1379.63 2080.36,1380.1 2093.67,1380.62 2106.98,1380.8 2120.29,1381.15 2133.59,1381.57 2146.9,1381.77 2160.21,1382.07 
  2173.51,1382.41 2186.82,1382.62 2200.13,1383.07 2213.43,1383.39 2226.74,1383.7 2240.05,1384.44 2253.35,1384.73 2266.66,1385.21 2279.97,1385.9 2293.27,1386.4 
  
  "/>
<circle clip-path="url(#clip852)" cx="896.055" cy="1331.84" r="14.4" fill="#e26f46" fill-rule="evenodd" fill-opacity="1" stroke="#000000" stroke-opacity="1" stroke-width="3.2"/>
<path clip-path="url(#clip850)" d="
M1961.44 270.476 L2282.7 270.476 L2282.7 166.796 L1961.44 166.796  Z
  " fill="#ffffff" fill-rule="evenodd" fill-opacity="1"/>
<polyline clip-path="url(#clip850)" style="stroke:#000000; stroke-linecap:round; stroke-linejoin:round; stroke-width:4; stroke-opacity:1; fill:none" points="
  1961.44,270.476 2282.7,270.476 2282.7,166.796 1961.44,166.796 1961.44,270.476 
  "/>
<circle clip-path="url(#clip850)" cx="2054.85" cy="218.636" r="23.04" fill="#e26f46" fill-rule="evenodd" fill-opacity="1" stroke="#000000" stroke-opacity="1" stroke-width="5.12"/>
<path clip-path="url(#clip850)" d="M2163.45 213.971 Q2162.73 213.555 2161.87 213.37 Q2161.04 213.161 2160.02 213.161 Q2156.41 213.161 2154.46 215.522 Q2152.54 217.86 2152.54 222.258 L2152.54 235.916 L2148.26 235.916 L2148.26 209.99 L2152.54 209.99 L2152.54 214.018 Q2153.89 211.657 2156.04 210.522 Q2158.19 209.365 2161.27 209.365 Q2161.71 209.365 2162.24 209.434 Q2162.77 209.481 2163.42 209.596 L2163.45 213.971 Z" fill="#000000" fill-rule="evenodd" fill-opacity="1" /><path clip-path="url(#clip850)" d="M2168.47 214.388 L2198.14 214.388 L2198.14 218.277 L2168.47 218.277 L2168.47 214.388 M2168.47 223.832 L2198.14 223.832 L2198.14 227.768 L2168.47 227.768 L2168.47 223.832 Z" fill="#000000" fill-rule="evenodd" fill-opacity="1" /><path clip-path="url(#clip850)" d="M2221.08 205.43 L2209.28 223.879 L2221.08 223.879 L2221.08 205.43 M2219.86 201.356 L2225.74 201.356 L2225.74 223.879 L2230.67 223.879 L2230.67 227.768 L2225.74 227.768 L2225.74 235.916 L2221.08 235.916 L2221.08 227.768 L2205.48 227.768 L2205.48 223.254 L2219.86 201.356 Z" fill="#000000" fill-rule="evenodd" fill-opacity="1" /><path clip-path="url(#clip850)" d="M2238.45 201.356 L2256.8 201.356 L2256.8 205.291 L2242.73 205.291 L2242.73 213.763 Q2243.75 213.416 2244.76 213.254 Q2245.78 213.069 2246.8 213.069 Q2252.59 213.069 2255.97 216.24 Q2259.35 219.411 2259.35 224.828 Q2259.35 230.406 2255.88 233.508 Q2252.4 236.587 2246.08 236.587 Q2243.91 236.587 2241.64 236.217 Q2239.39 235.846 2236.99 235.106 L2236.99 230.406 Q2239.07 231.541 2241.29 232.096 Q2243.51 232.652 2245.99 232.652 Q2250 232.652 2252.33 230.545 Q2254.67 228.439 2254.67 224.828 Q2254.67 221.217 2252.33 219.11 Q2250 217.004 2245.99 217.004 Q2244.12 217.004 2242.24 217.42 Q2240.39 217.837 2238.45 218.717 L2238.45 201.356 Z" fill="#000000" fill-rule="evenodd" fill-opacity="1" /></svg>
