<?xml version="1.0" encoding="utf-8"?>
<svg xmlns="http://www.w3.org/2000/svg" xmlns:xlink="http://www.w3.org/1999/xlink" width="600" height="400" viewBox="0 0 2400 1600">
<defs>
  <clipPath id="clip650">
    <rect x="0" y="0" width="2400" height="1600"/>
  </clipPath>
</defs>
<path clip-path="url(#clip650)" d="
M0 1600 L2400 1600 L2400 0 L0 0  Z
  " fill="#a9a9a9" fill-rule="evenodd" fill-opacity="1"/>
<defs>
  <clipPath id="clip651">
    <rect x="480" y="0" width="1681" height="1600"/>
  </clipPath>
</defs>
<path clip-path="url(#clip650)" d="
M223.749 1431.82 L2352.76 1431.82 L2352.76 123.472 L223.749 123.472  Z
  " fill="#a9a9a9" fill-rule="evenodd" fill-opacity="1"/>
<defs>
  <clipPath id="clip652">
    <rect x="223" y="123" width="2130" height="1309"/>
  </clipPath>
</defs>
<polyline clip-path="url(#clip652)" style="stroke:#ffffff; stroke-linecap:round; stroke-linejoin:round; stroke-width:2; stroke-opacity:0.1; fill:none" points="
  280.171,1431.82 280.171,123.472 
  "/>
<polyline clip-path="url(#clip652)" style="stroke:#ffffff; stroke-linecap:round; stroke-linejoin:round; stroke-width:2; stroke-opacity:0.1; fill:none" points="
  663.472,1431.82 663.472,123.472 
  "/>
<polyline clip-path="url(#clip652)" style="stroke:#ffffff; stroke-linecap:round; stroke-linejoin:round; stroke-width:2; stroke-opacity:0.1; fill:none" points="
  1046.77,1431.82 1046.77,123.472 
  "/>
<polyline clip-path="url(#clip652)" style="stroke:#ffffff; stroke-linecap:round; stroke-linejoin:round; stroke-width:2; stroke-opacity:0.1; fill:none" points="
  1430.07,1431.82 1430.07,123.472 
  "/>
<polyline clip-path="url(#clip652)" style="stroke:#ffffff; stroke-linecap:round; stroke-linejoin:round; stroke-width:2; stroke-opacity:0.1; fill:none" points="
  1813.37,1431.82 1813.37,123.472 
  "/>
<polyline clip-path="url(#clip652)" style="stroke:#ffffff; stroke-linecap:round; stroke-linejoin:round; stroke-width:2; stroke-opacity:0.1; fill:none" points="
  2196.68,1431.82 2196.68,123.472 
  "/>
<polyline clip-path="url(#clip650)" style="stroke:#ffffff; stroke-linecap:round; stroke-linejoin:round; stroke-width:4; stroke-opacity:1; fill:none" points="
  223.749,1431.82 2352.76,1431.82 
  "/>
<polyline clip-path="url(#clip650)" style="stroke:#ffffff; stroke-linecap:round; stroke-linejoin:round; stroke-width:4; stroke-opacity:1; fill:none" points="
  280.171,1431.82 280.171,1412.92 
  "/>
<polyline clip-path="url(#clip650)" style="stroke:#ffffff; stroke-linecap:round; stroke-linejoin:round; stroke-width:4; stroke-opacity:1; fill:none" points="
  663.472,1431.82 663.472,1412.92 
  "/>
<polyline clip-path="url(#clip650)" style="stroke:#ffffff; stroke-linecap:round; stroke-linejoin:round; stroke-width:4; stroke-opacity:1; fill:none" points="
  1046.77,1431.82 1046.77,1412.92 
  "/>
<polyline clip-path="url(#clip650)" style="stroke:#ffffff; stroke-linecap:round; stroke-linejoin:round; stroke-width:4; stroke-opacity:1; fill:none" points="
  1430.07,1431.82 1430.07,1412.92 
  "/>
<polyline clip-path="url(#clip650)" style="stroke:#ffffff; stroke-linecap:round; stroke-linejoin:round; stroke-width:4; stroke-opacity:1; fill:none" points="
  1813.37,1431.82 1813.37,1412.92 
  "/>
<polyline clip-path="url(#clip650)" style="stroke:#ffffff; stroke-linecap:round; stroke-linejoin:round; stroke-width:4; stroke-opacity:1; fill:none" points="
  2196.68,1431.82 2196.68,1412.92 
  "/>
<path clip-path="url(#clip650)" d="M280.171 1462.74 Q276.56 1462.74 274.731 1466.3 Q272.926 1469.84 272.926 1476.97 Q272.926 1484.08 274.731 1487.65 Q276.56 1491.19 280.171 1491.19 Q283.805 1491.19 285.611 1487.65 Q287.44 1484.08 287.44 1476.97 Q287.44 1469.84 285.611 1466.3 Q283.805 1462.74 280.171 1462.74 M280.171 1459.03 Q285.981 1459.03 289.037 1463.64 Q292.116 1468.22 292.116 1476.97 Q292.116 1485.7 289.037 1490.31 Q285.981 1494.89 280.171 1494.89 Q274.361 1494.89 271.282 1490.31 Q268.227 1485.7 268.227 1476.97 Q268.227 1468.22 271.282 1463.64 Q274.361 1459.03 280.171 1459.03 Z" fill="#ffffff" fill-rule="evenodd" fill-opacity="1" /><path clip-path="url(#clip650)" d="M607.998 1490.28 L615.637 1490.28 L615.637 1463.92 L607.327 1465.59 L607.327 1461.33 L615.59 1459.66 L620.266 1459.66 L620.266 1490.28 L627.905 1490.28 L627.905 1494.22 L607.998 1494.22 L607.998 1490.28 Z" fill="#ffffff" fill-rule="evenodd" fill-opacity="1" /><path clip-path="url(#clip650)" d="M647.35 1462.74 Q643.738 1462.74 641.91 1466.3 Q640.104 1469.84 640.104 1476.97 Q640.104 1484.08 641.91 1487.65 Q643.738 1491.19 647.35 1491.19 Q650.984 1491.19 652.789 1487.65 Q654.618 1484.08 654.618 1476.97 Q654.618 1469.84 652.789 1466.3 Q650.984 1462.74 647.35 1462.74 M647.35 1459.03 Q653.16 1459.03 656.215 1463.64 Q659.294 1468.22 659.294 1476.97 Q659.294 1485.7 656.215 1490.31 Q653.16 1494.89 647.35 1494.89 Q641.539 1494.89 638.461 1490.31 Q635.405 1485.7 635.405 1476.97 Q635.405 1468.22 638.461 1463.64 Q641.539 1459.03 647.35 1459.03 Z" fill="#ffffff" fill-rule="evenodd" fill-opacity="1" /><path clip-path="url(#clip650)" d="M677.511 1462.74 Q673.9 1462.74 672.072 1466.3 Q670.266 1469.84 670.266 1476.97 Q670.266 1484.08 672.072 1487.65 Q673.9 1491.19 677.511 1491.19 Q681.146 1491.19 682.951 1487.65 Q684.78 1484.08 684.78 1476.97 Q684.78 1469.84 682.951 1466.3 Q681.146 1462.74 677.511 1462.74 M677.511 1459.03 Q683.322 1459.03 686.377 1463.64 Q689.456 1468.22 689.456 1476.97 Q689.456 1485.7 686.377 1490.31 Q683.322 1494.89 677.511 1494.89 Q671.701 1494.89 668.623 1490.31 Q665.567 1485.7 665.567 1476.97 Q665.567 1468.22 668.623 1463.64 Q671.701 1459.03 677.511 1459.03 Z" fill="#ffffff" fill-rule="evenodd" fill-opacity="1" /><path clip-path="url(#clip650)" d="M707.673 1462.74 Q704.062 1462.74 702.234 1466.3 Q700.428 1469.84 700.428 1476.97 Q700.428 1484.08 702.234 1487.65 Q704.062 1491.19 707.673 1491.19 Q711.308 1491.19 713.113 1487.65 Q714.942 1484.08 714.942 1476.97 Q714.942 1469.84 713.113 1466.3 Q711.308 1462.74 707.673 1462.74 M707.673 1459.03 Q713.483 1459.03 716.539 1463.64 Q719.618 1468.22 719.618 1476.97 Q719.618 1485.7 716.539 1490.31 Q713.483 1494.89 707.673 1494.89 Q701.863 1494.89 698.784 1490.31 Q695.729 1485.7 695.729 1476.97 Q695.729 1468.22 698.784 1463.64 Q701.863 1459.03 707.673 1459.03 Z" fill="#ffffff" fill-rule="evenodd" fill-opacity="1" /><path clip-path="url(#clip650)" d="M995.384 1490.28 L1011.7 1490.28 L1011.7 1494.22 L989.759 1494.22 L989.759 1490.28 Q992.421 1487.53 997.005 1482.9 Q1001.61 1478.25 1002.79 1476.91 Q1005.04 1474.38 1005.92 1472.65 Q1006.82 1470.89 1006.82 1469.2 Q1006.82 1466.44 1004.88 1464.71 Q1002.95 1462.97 999.852 1462.97 Q997.653 1462.97 995.199 1463.73 Q992.769 1464.5 989.991 1466.05 L989.991 1461.33 Q992.815 1460.19 995.269 1459.61 Q997.722 1459.03 999.759 1459.03 Q1005.13 1459.03 1008.32 1461.72 Q1011.52 1464.41 1011.52 1468.9 Q1011.52 1471.03 1010.71 1472.95 Q1009.92 1474.84 1007.81 1477.44 Q1007.24 1478.11 1004.13 1481.33 Q1001.03 1484.52 995.384 1490.28 Z" fill="#ffffff" fill-rule="evenodd" fill-opacity="1" /><path clip-path="url(#clip650)" d="M1031.52 1462.74 Q1027.91 1462.74 1026.08 1466.3 Q1024.27 1469.84 1024.27 1476.97 Q1024.27 1484.08 1026.08 1487.65 Q1027.91 1491.19 1031.52 1491.19 Q1035.15 1491.19 1036.96 1487.65 Q1038.79 1484.08 1038.79 1476.97 Q1038.79 1469.84 1036.96 1466.3 Q1035.15 1462.74 1031.52 1462.74 M1031.52 1459.03 Q1037.33 1459.03 1040.38 1463.64 Q1043.46 1468.22 1043.46 1476.97 Q1043.46 1485.7 1040.38 1490.31 Q1037.33 1494.89 1031.52 1494.89 Q1025.71 1494.89 1022.63 1490.31 Q1019.57 1485.7 1019.57 1476.97 Q1019.57 1468.22 1022.63 1463.64 Q1025.71 1459.03 1031.52 1459.03 Z" fill="#ffffff" fill-rule="evenodd" fill-opacity="1" /><path clip-path="url(#clip650)" d="M1061.68 1462.74 Q1058.07 1462.74 1056.24 1466.3 Q1054.44 1469.84 1054.44 1476.97 Q1054.44 1484.08 1056.24 1487.65 Q1058.07 1491.19 1061.68 1491.19 Q1065.31 1491.19 1067.12 1487.65 Q1068.95 1484.08 1068.95 1476.97 Q1068.95 1469.84 1067.12 1466.3 Q1065.31 1462.74 1061.68 1462.74 M1061.68 1459.03 Q1067.49 1459.03 1070.55 1463.64 Q1073.62 1468.22 1073.62 1476.97 Q1073.62 1485.7 1070.55 1490.31 Q1067.49 1494.89 1061.68 1494.89 Q1055.87 1494.89 1052.79 1490.31 Q1049.74 1485.7 1049.74 1476.97 Q1049.74 1468.22 1052.79 1463.64 Q1055.87 1459.03 1061.68 1459.03 Z" fill="#ffffff" fill-rule="evenodd" fill-opacity="1" /><path clip-path="url(#clip650)" d="M1091.84 1462.74 Q1088.23 1462.74 1086.4 1466.3 Q1084.6 1469.84 1084.6 1476.97 Q1084.6 1484.08 1086.4 1487.65 Q1088.23 1491.19 1091.84 1491.19 Q1095.48 1491.19 1097.28 1487.65 Q1099.11 1484.08 1099.11 1476.97 Q1099.11 1469.84 1097.28 1466.3 Q1095.48 1462.74 1091.84 1462.74 M1091.84 1459.03 Q1097.65 1459.03 1100.71 1463.64 Q1103.79 1468.22 1103.79 1476.97 Q1103.79 1485.7 1100.71 1490.31 Q1097.65 1494.89 1091.84 1494.89 Q1086.03 1494.89 1082.95 1490.31 Q1079.9 1485.7 1079.9 1476.97 Q1079.9 1468.22 1082.95 1463.64 Q1086.03 1459.03 1091.84 1459.03 Z" fill="#ffffff" fill-rule="evenodd" fill-opacity="1" /><path clip-path="url(#clip650)" d="M1388.75 1475.59 Q1392.11 1476.3 1393.99 1478.57 Q1395.88 1480.84 1395.88 1484.17 Q1395.88 1489.29 1392.37 1492.09 Q1388.85 1494.89 1382.37 1494.89 Q1380.19 1494.89 1377.88 1494.45 Q1375.58 1494.03 1373.13 1493.18 L1373.13 1488.66 Q1375.07 1489.8 1377.39 1490.38 Q1379.7 1490.96 1382.23 1490.96 Q1386.63 1490.96 1388.92 1489.22 Q1391.23 1487.48 1391.23 1484.17 Q1391.23 1481.12 1389.08 1479.41 Q1386.95 1477.67 1383.13 1477.67 L1379.1 1477.67 L1379.1 1473.83 L1383.31 1473.83 Q1386.76 1473.83 1388.59 1472.46 Q1390.42 1471.07 1390.42 1468.48 Q1390.42 1465.82 1388.52 1464.41 Q1386.65 1462.97 1383.13 1462.97 Q1381.21 1462.97 1379.01 1463.39 Q1376.81 1463.8 1374.17 1464.68 L1374.17 1460.52 Q1376.83 1459.78 1379.15 1459.41 Q1381.49 1459.03 1383.55 1459.03 Q1388.87 1459.03 1391.97 1461.47 Q1395.07 1463.87 1395.07 1467.99 Q1395.07 1470.86 1393.43 1472.85 Q1391.79 1474.82 1388.75 1475.59 Z" fill="#ffffff" fill-rule="evenodd" fill-opacity="1" /><path clip-path="url(#clip650)" d="M1414.75 1462.74 Q1411.14 1462.74 1409.31 1466.3 Q1407.5 1469.84 1407.5 1476.97 Q1407.5 1484.08 1409.31 1487.65 Q1411.14 1491.19 1414.75 1491.19 Q1418.38 1491.19 1420.19 1487.65 Q1422.02 1484.08 1422.02 1476.97 Q1422.02 1469.84 1420.19 1466.3 Q1418.38 1462.74 1414.75 1462.74 M1414.75 1459.03 Q1420.56 1459.03 1423.62 1463.64 Q1426.69 1468.22 1426.69 1476.97 Q1426.69 1485.7 1423.62 1490.31 Q1420.56 1494.89 1414.75 1494.89 Q1408.94 1494.89 1405.86 1490.31 Q1402.81 1485.7 1402.81 1476.97 Q1402.81 1468.22 1405.86 1463.64 Q1408.94 1459.03 1414.75 1459.03 Z" fill="#ffffff" fill-rule="evenodd" fill-opacity="1" /><path clip-path="url(#clip650)" d="M1444.91 1462.74 Q1441.3 1462.74 1439.47 1466.3 Q1437.67 1469.84 1437.67 1476.97 Q1437.67 1484.08 1439.47 1487.65 Q1441.3 1491.19 1444.91 1491.19 Q1448.55 1491.19 1450.35 1487.65 Q1452.18 1484.08 1452.18 1476.97 Q1452.18 1469.84 1450.35 1466.3 Q1448.55 1462.74 1444.91 1462.74 M1444.91 1459.03 Q1450.72 1459.03 1453.78 1463.64 Q1456.86 1468.22 1456.86 1476.97 Q1456.86 1485.7 1453.78 1490.31 Q1450.72 1494.89 1444.91 1494.89 Q1439.1 1494.89 1436.02 1490.31 Q1432.97 1485.7 1432.97 1476.97 Q1432.97 1468.22 1436.02 1463.64 Q1439.1 1459.03 1444.91 1459.03 Z" fill="#ffffff" fill-rule="evenodd" fill-opacity="1" /><path clip-path="url(#clip650)" d="M1475.07 1462.74 Q1471.46 1462.74 1469.63 1466.3 Q1467.83 1469.84 1467.83 1476.97 Q1467.83 1484.08 1469.63 1487.65 Q1471.46 1491.19 1475.07 1491.19 Q1478.71 1491.19 1480.51 1487.65 Q1482.34 1484.08 1482.34 1476.97 Q1482.34 1469.84 1480.51 1466.3 Q1478.71 1462.74 1475.07 1462.74 M1475.07 1459.03 Q1480.88 1459.03 1483.94 1463.64 Q1487.02 1468.22 1487.02 1476.97 Q1487.02 1485.7 1483.94 1490.31 Q1480.88 1494.89 1475.07 1494.89 Q1469.26 1494.89 1466.18 1490.31 Q1463.13 1485.7 1463.13 1476.97 Q1463.13 1468.22 1466.18 1463.64 Q1469.26 1459.03 1475.07 1459.03 Z" fill="#ffffff" fill-rule="evenodd" fill-opacity="1" /><path clip-path="url(#clip650)" d="M1771.38 1463.73 L1759.58 1482.18 L1771.38 1482.18 L1771.38 1463.73 M1770.16 1459.66 L1776.04 1459.66 L1776.04 1482.18 L1780.97 1482.18 L1780.97 1486.07 L1776.04 1486.07 L1776.04 1494.22 L1771.38 1494.22 L1771.38 1486.07 L1755.78 1486.07 L1755.78 1481.56 L1770.16 1459.66 Z" fill="#ffffff" fill-rule="evenodd" fill-opacity="1" /><path clip-path="url(#clip650)" d="M1798.7 1462.74 Q1795.09 1462.74 1793.26 1466.3 Q1791.45 1469.84 1791.45 1476.97 Q1791.45 1484.08 1793.26 1487.65 Q1795.09 1491.19 1798.7 1491.19 Q1802.33 1491.19 1804.14 1487.65 Q1805.97 1484.08 1805.97 1476.97 Q1805.97 1469.84 1804.14 1466.3 Q1802.33 1462.74 1798.7 1462.74 M1798.7 1459.03 Q1804.51 1459.03 1807.56 1463.64 Q1810.64 1468.22 1810.64 1476.97 Q1810.64 1485.7 1807.56 1490.31 Q1804.51 1494.89 1798.7 1494.89 Q1792.89 1494.89 1789.81 1490.31 Q1786.75 1485.7 1786.75 1476.97 Q1786.75 1468.22 1789.81 1463.64 Q1792.89 1459.03 1798.7 1459.03 Z" fill="#ffffff" fill-rule="evenodd" fill-opacity="1" /><path clip-path="url(#clip650)" d="M1828.86 1462.74 Q1825.25 1462.74 1823.42 1466.3 Q1821.62 1469.84 1821.62 1476.97 Q1821.62 1484.08 1823.42 1487.65 Q1825.25 1491.19 1828.86 1491.19 Q1832.5 1491.19 1834.3 1487.65 Q1836.13 1484.08 1836.13 1476.97 Q1836.13 1469.84 1834.3 1466.3 Q1832.5 1462.74 1828.86 1462.74 M1828.86 1459.03 Q1834.67 1459.03 1837.73 1463.64 Q1840.81 1468.22 1840.81 1476.97 Q1840.81 1485.7 1837.73 1490.31 Q1834.67 1494.89 1828.86 1494.89 Q1823.05 1494.89 1819.97 1490.31 Q1816.92 1485.7 1816.92 1476.97 Q1816.92 1468.22 1819.97 1463.64 Q1823.05 1459.03 1828.86 1459.03 Z" fill="#ffffff" fill-rule="evenodd" fill-opacity="1" /><path clip-path="url(#clip650)" d="M1859.02 1462.74 Q1855.41 1462.74 1853.58 1466.3 Q1851.78 1469.84 1851.78 1476.97 Q1851.78 1484.08 1853.58 1487.65 Q1855.41 1491.19 1859.02 1491.19 Q1862.66 1491.19 1864.46 1487.65 Q1866.29 1484.08 1866.29 1476.97 Q1866.29 1469.84 1864.46 1466.3 Q1862.66 1462.74 1859.02 1462.74 M1859.02 1459.03 Q1864.83 1459.03 1867.89 1463.64 Q1870.97 1468.22 1870.97 1476.97 Q1870.97 1485.7 1867.89 1490.31 Q1864.83 1494.89 1859.02 1494.89 Q1853.21 1494.89 1850.13 1490.31 Q1847.08 1485.7 1847.08 1476.97 Q1847.08 1468.22 1850.13 1463.64 Q1853.21 1459.03 1859.02 1459.03 Z" fill="#ffffff" fill-rule="evenodd" fill-opacity="1" /><path clip-path="url(#clip650)" d="M2141.21 1459.66 L2159.57 1459.66 L2159.57 1463.6 L2145.5 1463.6 L2145.5 1472.07 Q2146.51 1471.72 2147.53 1471.56 Q2148.55 1471.37 2149.57 1471.37 Q2155.36 1471.37 2158.74 1474.54 Q2162.12 1477.72 2162.12 1483.13 Q2162.12 1488.71 2158.64 1491.81 Q2155.17 1494.89 2148.85 1494.89 Q2146.68 1494.89 2144.41 1494.52 Q2142.16 1494.15 2139.75 1493.41 L2139.75 1488.71 Q2141.84 1489.84 2144.06 1490.4 Q2146.28 1490.96 2148.76 1490.96 Q2152.76 1490.96 2155.1 1488.85 Q2157.44 1486.74 2157.44 1483.13 Q2157.44 1479.52 2155.1 1477.41 Q2152.76 1475.31 2148.76 1475.31 Q2146.88 1475.31 2145.01 1475.72 Q2143.16 1476.14 2141.21 1477.02 L2141.21 1459.66 Z" fill="#ffffff" fill-rule="evenodd" fill-opacity="1" /><path clip-path="url(#clip650)" d="M2181.33 1462.74 Q2177.72 1462.74 2175.89 1466.3 Q2174.08 1469.84 2174.08 1476.97 Q2174.08 1484.08 2175.89 1487.65 Q2177.72 1491.19 2181.33 1491.19 Q2184.96 1491.19 2186.77 1487.65 Q2188.6 1484.08 2188.6 1476.97 Q2188.6 1469.84 2186.77 1466.3 Q2184.96 1462.74 2181.33 1462.74 M2181.33 1459.03 Q2187.14 1459.03 2190.19 1463.64 Q2193.27 1468.22 2193.27 1476.97 Q2193.27 1485.7 2190.19 1490.31 Q2187.14 1494.89 2181.33 1494.89 Q2175.52 1494.89 2172.44 1490.31 Q2169.38 1485.7 2169.38 1476.97 Q2169.38 1468.22 2172.44 1463.64 Q2175.52 1459.03 2181.33 1459.03 Z" fill="#ffffff" fill-rule="evenodd" fill-opacity="1" /><path clip-path="url(#clip650)" d="M2211.49 1462.74 Q2207.88 1462.74 2206.05 1466.3 Q2204.25 1469.84 2204.25 1476.97 Q2204.25 1484.08 2206.05 1487.65 Q2207.88 1491.19 2211.49 1491.19 Q2215.12 1491.19 2216.93 1487.65 Q2218.76 1484.08 2218.76 1476.97 Q2218.76 1469.84 2216.93 1466.3 Q2215.12 1462.74 2211.49 1462.74 M2211.49 1459.03 Q2217.3 1459.03 2220.36 1463.64 Q2223.43 1468.22 2223.43 1476.97 Q2223.43 1485.7 2220.36 1490.31 Q2217.3 1494.89 2211.49 1494.89 Q2205.68 1494.89 2202.6 1490.31 Q2199.55 1485.7 2199.55 1476.97 Q2199.55 1468.22 2202.6 1463.64 Q2205.68 1459.03 2211.49 1459.03 Z" fill="#ffffff" fill-rule="evenodd" fill-opacity="1" /><path clip-path="url(#clip650)" d="M2241.65 1462.74 Q2238.04 1462.74 2236.21 1466.3 Q2234.41 1469.84 2234.41 1476.97 Q2234.41 1484.08 2236.21 1487.65 Q2238.04 1491.19 2241.65 1491.19 Q2245.29 1491.19 2247.09 1487.65 Q2248.92 1484.08 2248.92 1476.97 Q2248.92 1469.84 2247.09 1466.3 Q2245.29 1462.74 2241.65 1462.74 M2241.65 1459.03 Q2247.46 1459.03 2250.52 1463.64 Q2253.6 1468.22 2253.6 1476.97 Q2253.6 1485.7 2250.52 1490.31 Q2247.46 1494.89 2241.65 1494.89 Q2235.84 1494.89 2232.76 1490.31 Q2229.71 1485.7 2229.71 1476.97 Q2229.71 1468.22 2232.76 1463.64 Q2235.84 1459.03 2241.65 1459.03 Z" fill="#ffffff" fill-rule="evenodd" fill-opacity="1" /><path clip-path="url(#clip650)" d="M1138.87 1531.76 L1138.87 1561.99 L1145.22 1561.99 Q1153.27 1561.99 1156.99 1558.35 Q1160.74 1554.7 1160.74 1546.84 Q1160.74 1539.02 1156.99 1535.4 Q1153.27 1531.76 1145.22 1531.76 L1138.87 1531.76 M1133.61 1527.44 L1144.41 1527.44 Q1155.71 1527.44 1161 1532.15 Q1166.29 1536.84 1166.29 1546.84 Q1166.29 1556.89 1160.97 1561.6 Q1155.66 1566.32 1144.41 1566.32 L1133.61 1566.32 L1133.61 1527.44 Z" fill="#ffffff" fill-rule="evenodd" fill-opacity="1" /><path clip-path="url(#clip650)" d="M1174.46 1537.15 L1179.26 1537.15 L1179.26 1566.32 L1174.46 1566.32 L1174.46 1537.15 M1174.46 1525.8 L1179.26 1525.8 L1179.26 1531.86 L1174.46 1531.86 L1174.46 1525.8 Z" fill="#ffffff" fill-rule="evenodd" fill-opacity="1" /><path clip-path="url(#clip650)" d="M1207.88 1538.01 L1207.88 1542.54 Q1205.84 1541.5 1203.66 1540.98 Q1201.47 1540.46 1199.13 1540.46 Q1195.56 1540.46 1193.76 1541.55 Q1191.99 1542.64 1191.99 1544.83 Q1191.99 1546.5 1193.27 1547.46 Q1194.54 1548.4 1198.4 1549.26 L1200.04 1549.62 Q1205.14 1550.72 1207.28 1552.72 Q1209.44 1554.7 1209.44 1558.27 Q1209.44 1562.33 1206.21 1564.7 Q1203.01 1567.07 1197.38 1567.07 Q1195.04 1567.07 1192.48 1566.6 Q1189.96 1566.16 1187.15 1565.25 L1187.15 1560.3 Q1189.8 1561.68 1192.38 1562.38 Q1194.96 1563.06 1197.48 1563.06 Q1200.87 1563.06 1202.69 1561.91 Q1204.52 1560.74 1204.52 1558.63 Q1204.52 1556.68 1203.19 1555.64 Q1201.89 1554.6 1197.43 1553.63 L1195.77 1553.24 Q1191.31 1552.31 1189.33 1550.38 Q1187.35 1548.43 1187.35 1545.04 Q1187.35 1540.93 1190.27 1538.69 Q1193.19 1536.45 1198.55 1536.45 Q1201.21 1536.45 1203.55 1536.84 Q1205.9 1537.23 1207.88 1538.01 Z" fill="#ffffff" fill-rule="evenodd" fill-opacity="1" /><path clip-path="url(#clip650)" d="M1221.81 1528.87 L1221.81 1537.15 L1231.68 1537.15 L1231.68 1540.87 L1221.81 1540.87 L1221.81 1556.71 Q1221.81 1560.27 1222.77 1561.29 Q1223.76 1562.31 1226.76 1562.31 L1231.68 1562.31 L1231.68 1566.32 L1226.76 1566.32 Q1221.21 1566.32 1219.1 1564.26 Q1216.99 1562.18 1216.99 1556.71 L1216.99 1540.87 L1213.47 1540.87 L1213.47 1537.15 L1216.99 1537.15 L1216.99 1528.87 L1221.81 1528.87 Z" fill="#ffffff" fill-rule="evenodd" fill-opacity="1" /><path clip-path="url(#clip650)" d="M1251.23 1551.65 Q1245.43 1551.65 1243.19 1552.98 Q1240.95 1554.31 1240.95 1557.51 Q1240.95 1560.07 1242.61 1561.58 Q1244.31 1563.06 1247.2 1563.06 Q1251.18 1563.06 1253.58 1560.25 Q1256 1557.41 1256 1552.72 L1256 1551.65 L1251.23 1551.65 M1260.79 1549.68 L1260.79 1566.32 L1256 1566.32 L1256 1561.89 Q1254.36 1564.55 1251.91 1565.82 Q1249.46 1567.07 1245.92 1567.07 Q1241.44 1567.07 1238.79 1564.57 Q1236.16 1562.05 1236.16 1557.83 Q1236.16 1552.9 1239.44 1550.4 Q1242.75 1547.9 1249.28 1547.9 L1256 1547.9 L1256 1547.44 Q1256 1544.13 1253.81 1542.33 Q1251.65 1540.51 1247.72 1540.51 Q1245.22 1540.51 1242.85 1541.11 Q1240.48 1541.71 1238.29 1542.9 L1238.29 1538.48 Q1240.92 1537.46 1243.4 1536.97 Q1245.87 1536.45 1248.21 1536.45 Q1254.54 1536.45 1257.67 1539.73 Q1260.79 1543.01 1260.79 1549.68 Z" fill="#ffffff" fill-rule="evenodd" fill-opacity="1" /><path clip-path="url(#clip650)" d="M1294.91 1548.71 L1294.91 1566.32 L1290.11 1566.32 L1290.11 1548.87 Q1290.11 1544.73 1288.5 1542.67 Q1286.89 1540.61 1283.66 1540.61 Q1279.78 1540.61 1277.54 1543.09 Q1275.3 1545.56 1275.3 1549.83 L1275.3 1566.32 L1270.48 1566.32 L1270.48 1537.15 L1275.3 1537.15 L1275.3 1541.68 Q1277.02 1539.05 1279.33 1537.75 Q1281.68 1536.45 1284.72 1536.45 Q1289.75 1536.45 1292.33 1539.57 Q1294.91 1542.67 1294.91 1548.71 Z" fill="#ffffff" fill-rule="evenodd" fill-opacity="1" /><path clip-path="url(#clip650)" d="M1325.45 1538.27 L1325.45 1542.75 Q1323.42 1541.63 1321.36 1541.08 Q1319.33 1540.51 1317.25 1540.51 Q1312.59 1540.51 1310.01 1543.48 Q1307.43 1546.42 1307.43 1551.76 Q1307.43 1557.1 1310.01 1560.07 Q1312.59 1563.01 1317.25 1563.01 Q1319.33 1563.01 1321.36 1562.46 Q1323.42 1561.89 1325.45 1560.77 L1325.45 1565.2 Q1323.45 1566.13 1321.29 1566.6 Q1319.15 1567.07 1316.73 1567.07 Q1310.14 1567.07 1306.26 1562.93 Q1302.38 1558.79 1302.38 1551.76 Q1302.38 1544.62 1306.29 1540.53 Q1310.22 1536.45 1317.04 1536.45 Q1319.26 1536.45 1321.36 1536.91 Q1323.47 1537.36 1325.45 1538.27 Z" fill="#ffffff" fill-rule="evenodd" fill-opacity="1" /><path clip-path="url(#clip650)" d="M1358.73 1550.53 L1358.73 1552.88 L1336.7 1552.88 Q1337.02 1557.83 1339.67 1560.43 Q1342.35 1563.01 1347.12 1563.01 Q1349.88 1563.01 1352.46 1562.33 Q1355.06 1561.65 1357.61 1560.3 L1357.61 1564.83 Q1355.04 1565.93 1352.33 1566.5 Q1349.62 1567.07 1346.83 1567.07 Q1339.85 1567.07 1335.77 1563.01 Q1331.7 1558.95 1331.7 1552.02 Q1331.7 1544.86 1335.56 1540.66 Q1339.44 1536.45 1346 1536.45 Q1351.89 1536.45 1355.3 1540.25 Q1358.73 1544.02 1358.73 1550.53 M1353.94 1549.13 Q1353.89 1545.2 1351.73 1542.85 Q1349.59 1540.51 1346.05 1540.51 Q1342.04 1540.51 1339.62 1542.77 Q1337.22 1545.04 1336.86 1549.15 L1353.94 1549.13 Z" fill="#ffffff" fill-rule="evenodd" fill-opacity="1" /><path clip-path="url(#clip650)" d="M1367.82 1559.7 L1373.32 1559.7 L1373.32 1564.18 L1369.05 1572.51 L1365.69 1572.51 L1367.82 1564.18 L1367.82 1559.7 Z" fill="#ffffff" fill-rule="evenodd" fill-opacity="1" /><path clip-path="url(#clip650)" d="M1423.21 1542.75 Q1425.01 1539.52 1427.51 1537.98 Q1430.01 1536.45 1433.4 1536.45 Q1437.95 1536.45 1440.43 1539.65 Q1442.9 1542.83 1442.9 1548.71 L1442.9 1566.32 L1438.08 1566.32 L1438.08 1548.87 Q1438.08 1544.68 1436.6 1542.64 Q1435.11 1540.61 1432.07 1540.61 Q1428.34 1540.61 1426.18 1543.09 Q1424.02 1545.56 1424.02 1549.83 L1424.02 1566.32 L1419.2 1566.32 L1419.2 1548.87 Q1419.2 1544.65 1417.72 1542.64 Q1416.23 1540.61 1413.13 1540.61 Q1409.46 1540.61 1407.3 1543.11 Q1405.14 1545.59 1405.14 1549.83 L1405.14 1566.32 L1400.32 1566.32 L1400.32 1537.15 L1405.14 1537.15 L1405.14 1541.68 Q1406.78 1539 1409.07 1537.72 Q1411.36 1536.45 1414.51 1536.45 Q1417.69 1536.45 1419.91 1538.06 Q1422.15 1539.68 1423.21 1542.75 Z" fill="#ffffff" fill-rule="evenodd" fill-opacity="1" /><polyline clip-path="url(#clip652)" style="stroke:#ffffff; stroke-linecap:round; stroke-linejoin:round; stroke-width:2; stroke-opacity:0.1; fill:none" points="
  223.749,1431.82 2352.76,1431.82 
  "/>
<polyline clip-path="url(#clip652)" style="stroke:#ffffff; stroke-linecap:round; stroke-linejoin:round; stroke-width:2; stroke-opacity:0.1; fill:none" points="
  223.749,1170.15 2352.76,1170.15 
  "/>
<polyline clip-path="url(#clip652)" style="stroke:#ffffff; stroke-linecap:round; stroke-linejoin:round; stroke-width:2; stroke-opacity:0.1; fill:none" points="
  223.749,908.481 2352.76,908.481 
  "/>
<polyline clip-path="url(#clip652)" style="stroke:#ffffff; stroke-linecap:round; stroke-linejoin:round; stroke-width:2; stroke-opacity:0.1; fill:none" points="
  223.749,646.811 2352.76,646.811 
  "/>
<polyline clip-path="url(#clip652)" style="stroke:#ffffff; stroke-linecap:round; stroke-linejoin:round; stroke-width:2; stroke-opacity:0.1; fill:none" points="
  223.749,385.142 2352.76,385.142 
  "/>
<polyline clip-path="url(#clip652)" style="stroke:#ffffff; stroke-linecap:round; stroke-linejoin:round; stroke-width:2; stroke-opacity:0.1; fill:none" points="
  223.749,123.472 2352.76,123.472 
  "/>
<polyline clip-path="url(#clip650)" style="stroke:#ffffff; stroke-linecap:round; stroke-linejoin:round; stroke-width:4; stroke-opacity:1; fill:none" points="
  223.749,1431.82 223.749,123.472 
  "/>
<polyline clip-path="url(#clip650)" style="stroke:#ffffff; stroke-linecap:round; stroke-linejoin:round; stroke-width:4; stroke-opacity:1; fill:none" points="
  223.749,1431.82 242.647,1431.82 
  "/>
<polyline clip-path="url(#clip650)" style="stroke:#ffffff; stroke-linecap:round; stroke-linejoin:round; stroke-width:4; stroke-opacity:1; fill:none" points="
  223.749,1170.15 242.647,1170.15 
  "/>
<polyline clip-path="url(#clip650)" style="stroke:#ffffff; stroke-linecap:round; stroke-linejoin:round; stroke-width:4; stroke-opacity:1; fill:none" points="
  223.749,908.481 242.647,908.481 
  "/>
<polyline clip-path="url(#clip650)" style="stroke:#ffffff; stroke-linecap:round; stroke-linejoin:round; stroke-width:4; stroke-opacity:1; fill:none" points="
  223.749,646.811 242.647,646.811 
  "/>
<polyline clip-path="url(#clip650)" style="stroke:#ffffff; stroke-linecap:round; stroke-linejoin:round; stroke-width:4; stroke-opacity:1; fill:none" points="
  223.749,385.142 242.647,385.142 
  "/>
<polyline clip-path="url(#clip650)" style="stroke:#ffffff; stroke-linecap:round; stroke-linejoin:round; stroke-width:4; stroke-opacity:1; fill:none" points="
  223.749,123.472 242.647,123.472 
  "/>
<path clip-path="url(#clip650)" d="M175.805 1417.62 Q172.194 1417.62 170.365 1421.18 Q168.56 1424.72 168.56 1431.85 Q168.56 1438.96 170.365 1442.53 Q172.194 1446.07 175.805 1446.07 Q179.439 1446.07 181.245 1442.53 Q183.073 1438.96 183.073 1431.85 Q183.073 1424.72 181.245 1421.18 Q179.439 1417.62 175.805 1417.62 M175.805 1413.91 Q181.615 1413.91 184.671 1418.52 Q187.749 1423.1 187.749 1431.85 Q187.749 1440.58 184.671 1445.19 Q181.615 1449.77 175.805 1449.77 Q169.995 1449.77 166.916 1445.19 Q163.861 1440.58 163.861 1431.85 Q163.861 1423.1 166.916 1418.52 Q169.995 1413.91 175.805 1413.91 Z" fill="#ffffff" fill-rule="evenodd" fill-opacity="1" /><path clip-path="url(#clip650)" d="M139.671 1183.5 L155.99 1183.5 L155.99 1187.43 L134.046 1187.43 L134.046 1183.5 Q136.708 1180.74 141.291 1176.11 Q145.898 1171.46 147.078 1170.12 Q149.324 1167.59 150.203 1165.86 Q151.106 1164.1 151.106 1162.41 Q151.106 1159.65 149.162 1157.92 Q147.24 1156.18 144.138 1156.18 Q141.939 1156.18 139.486 1156.94 Q137.055 1157.71 134.277 1159.26 L134.277 1154.54 Q137.101 1153.4 139.555 1152.82 Q142.009 1152.25 144.046 1152.25 Q149.416 1152.25 152.611 1154.93 Q155.805 1157.62 155.805 1162.11 Q155.805 1164.24 154.995 1166.16 Q154.208 1168.06 152.101 1170.65 Q151.523 1171.32 148.421 1174.54 Q145.319 1177.73 139.671 1183.5 Z" fill="#ffffff" fill-rule="evenodd" fill-opacity="1" /><path clip-path="url(#clip650)" d="M175.805 1155.95 Q172.194 1155.95 170.365 1159.51 Q168.56 1163.06 168.56 1170.19 Q168.56 1177.29 170.365 1180.86 Q172.194 1184.4 175.805 1184.4 Q179.439 1184.4 181.245 1180.86 Q183.073 1177.29 183.073 1170.19 Q183.073 1163.06 181.245 1159.51 Q179.439 1155.95 175.805 1155.95 M175.805 1152.25 Q181.615 1152.25 184.671 1156.85 Q187.749 1161.44 187.749 1170.19 Q187.749 1178.91 184.671 1183.52 Q181.615 1188.1 175.805 1188.1 Q169.995 1188.1 166.916 1183.52 Q163.861 1178.91 163.861 1170.19 Q163.861 1161.44 166.916 1156.85 Q169.995 1152.25 175.805 1152.25 Z" fill="#ffffff" fill-rule="evenodd" fill-opacity="1" /><path clip-path="url(#clip650)" d="M148.49 895.275 L136.685 913.724 L148.49 913.724 L148.49 895.275 M147.263 891.201 L153.143 891.201 L153.143 913.724 L158.074 913.724 L158.074 917.613 L153.143 917.613 L153.143 925.761 L148.49 925.761 L148.49 917.613 L132.889 917.613 L132.889 913.099 L147.263 891.201 Z" fill="#ffffff" fill-rule="evenodd" fill-opacity="1" /><path clip-path="url(#clip650)" d="M175.805 894.279 Q172.194 894.279 170.365 897.844 Q168.56 901.386 168.56 908.515 Q168.56 915.622 170.365 919.187 Q172.194 922.728 175.805 922.728 Q179.439 922.728 181.245 919.187 Q183.073 915.622 183.073 908.515 Q183.073 901.386 181.245 897.844 Q179.439 894.279 175.805 894.279 M175.805 890.576 Q181.615 890.576 184.671 895.182 Q187.749 899.766 187.749 908.515 Q187.749 917.242 184.671 921.849 Q181.615 926.432 175.805 926.432 Q169.995 926.432 166.916 921.849 Q163.861 917.242 163.861 908.515 Q163.861 899.766 166.916 895.182 Q169.995 890.576 175.805 890.576 Z" fill="#ffffff" fill-rule="evenodd" fill-opacity="1" /><path clip-path="url(#clip650)" d="M146.222 644.948 Q143.074 644.948 141.222 647.101 Q139.393 649.253 139.393 653.003 Q139.393 656.73 141.222 658.906 Q143.074 661.059 146.222 661.059 Q149.37 661.059 151.199 658.906 Q153.05 656.73 153.05 653.003 Q153.05 649.253 151.199 647.101 Q149.37 644.948 146.222 644.948 M155.504 630.295 L155.504 634.554 Q153.745 633.721 151.939 633.281 Q150.157 632.841 148.398 632.841 Q143.768 632.841 141.314 635.966 Q138.884 639.091 138.537 645.411 Q139.902 643.397 141.963 642.332 Q144.023 641.244 146.5 641.244 Q151.708 641.244 154.717 644.415 Q157.75 647.564 157.75 653.003 Q157.75 658.327 154.601 661.545 Q151.453 664.763 146.222 664.763 Q140.226 664.763 137.055 660.179 Q133.884 655.573 133.884 646.846 Q133.884 638.652 137.773 633.79 Q141.662 628.906 148.213 628.906 Q149.972 628.906 151.754 629.253 Q153.56 629.601 155.504 630.295 Z" fill="#ffffff" fill-rule="evenodd" fill-opacity="1" /><path clip-path="url(#clip650)" d="M175.805 632.61 Q172.194 632.61 170.365 636.175 Q168.56 639.716 168.56 646.846 Q168.56 653.952 170.365 657.517 Q172.194 661.059 175.805 661.059 Q179.439 661.059 181.245 657.517 Q183.073 653.952 183.073 646.846 Q183.073 639.716 181.245 636.175 Q179.439 632.61 175.805 632.61 M175.805 628.906 Q181.615 628.906 184.671 633.513 Q187.749 638.096 187.749 646.846 Q187.749 655.573 184.671 660.179 Q181.615 664.763 175.805 664.763 Q169.995 664.763 166.916 660.179 Q163.861 655.573 163.861 646.846 Q163.861 638.096 166.916 633.513 Q169.995 628.906 175.805 628.906 Z" fill="#ffffff" fill-rule="evenodd" fill-opacity="1" /><path clip-path="url(#clip650)" d="M145.643 386.01 Q142.31 386.01 140.388 387.792 Q138.49 389.575 138.49 392.699 Q138.49 395.824 140.388 397.607 Q142.31 399.389 145.643 399.389 Q148.976 399.389 150.898 397.607 Q152.819 395.801 152.819 392.699 Q152.819 389.575 150.898 387.792 Q149 386.01 145.643 386.01 M140.967 384.019 Q137.958 383.278 136.268 381.218 Q134.601 379.158 134.601 376.195 Q134.601 372.051 137.541 369.644 Q140.504 367.237 145.643 367.237 Q150.805 367.237 153.745 369.644 Q156.685 372.051 156.685 376.195 Q156.685 379.158 154.995 381.218 Q153.328 383.278 150.342 384.019 Q153.722 384.806 155.597 387.098 Q157.495 389.389 157.495 392.699 Q157.495 397.723 154.416 400.408 Q151.361 403.093 145.643 403.093 Q139.926 403.093 136.847 400.408 Q133.791 397.723 133.791 392.699 Q133.791 389.389 135.689 387.098 Q137.588 384.806 140.967 384.019 M139.254 376.635 Q139.254 379.32 140.921 380.825 Q142.611 382.329 145.643 382.329 Q148.652 382.329 150.342 380.825 Q152.055 379.32 152.055 376.635 Q152.055 373.95 150.342 372.445 Q148.652 370.94 145.643 370.94 Q142.611 370.94 140.921 372.445 Q139.254 373.95 139.254 376.635 Z" fill="#ffffff" fill-rule="evenodd" fill-opacity="1" /><path clip-path="url(#clip650)" d="M175.805 370.94 Q172.194 370.94 170.365 374.505 Q168.56 378.047 168.56 385.176 Q168.56 392.283 170.365 395.848 Q172.194 399.389 175.805 399.389 Q179.439 399.389 181.245 395.848 Q183.073 392.283 183.073 385.176 Q183.073 378.047 181.245 374.505 Q179.439 370.94 175.805 370.94 M175.805 367.237 Q181.615 367.237 184.671 371.843 Q187.749 376.426 187.749 385.176 Q187.749 393.903 184.671 398.51 Q181.615 403.093 175.805 403.093 Q169.995 403.093 166.916 398.51 Q163.861 393.903 163.861 385.176 Q163.861 376.426 166.916 371.843 Q169.995 367.237 175.805 367.237 Z" fill="#ffffff" fill-rule="evenodd" fill-opacity="1" /><path clip-path="url(#clip650)" d="M106.291 136.817 L113.93 136.817 L113.93 110.451 L105.62 112.118 L105.62 107.859 L113.884 106.192 L118.56 106.192 L118.56 136.817 L126.199 136.817 L126.199 140.752 L106.291 140.752 L106.291 136.817 Z" fill="#ffffff" fill-rule="evenodd" fill-opacity="1" /><path clip-path="url(#clip650)" d="M145.643 109.271 Q142.032 109.271 140.203 112.836 Q138.398 116.377 138.398 123.507 Q138.398 130.613 140.203 134.178 Q142.032 137.72 145.643 137.72 Q149.277 137.72 151.083 134.178 Q152.912 130.613 152.912 123.507 Q152.912 116.377 151.083 112.836 Q149.277 109.271 145.643 109.271 M145.643 105.567 Q151.453 105.567 154.509 110.174 Q157.587 114.757 157.587 123.507 Q157.587 132.234 154.509 136.84 Q151.453 141.423 145.643 141.423 Q139.833 141.423 136.754 136.84 Q133.699 132.234 133.699 123.507 Q133.699 114.757 136.754 110.174 Q139.833 105.567 145.643 105.567 Z" fill="#ffffff" fill-rule="evenodd" fill-opacity="1" /><path clip-path="url(#clip650)" d="M175.805 109.271 Q172.194 109.271 170.365 112.836 Q168.56 116.377 168.56 123.507 Q168.56 130.613 170.365 134.178 Q172.194 137.72 175.805 137.72 Q179.439 137.72 181.245 134.178 Q183.073 130.613 183.073 123.507 Q183.073 116.377 181.245 112.836 Q179.439 109.271 175.805 109.271 M175.805 105.567 Q181.615 105.567 184.671 110.174 Q187.749 114.757 187.749 123.507 Q187.749 132.234 184.671 136.84 Q181.615 141.423 175.805 141.423 Q169.995 141.423 166.916 136.84 Q163.861 132.234 163.861 123.507 Q163.861 114.757 166.916 110.174 Q169.995 105.567 175.805 105.567 Z" fill="#ffffff" fill-rule="evenodd" fill-opacity="1" /><path clip-path="url(#clip650)" d="M19.0762 1225.2 L19.0762 1217.36 L45.5343 1207.44 L19.0762 1197.46 L19.0762 1189.62 L57.9562 1189.62 L57.9562 1194.75 L23.8157 1194.75 L50.4822 1204.78 L50.4822 1210.07 L23.8157 1220.09 L57.9562 1220.09 L57.9562 1225.2 L19.0762 1225.2 Z" fill="#ffffff" fill-rule="evenodd" fill-opacity="1" /><path clip-path="url(#clip650)" d="M43.2948 1166.13 Q43.2948 1171.94 44.6229 1174.18 Q45.951 1176.42 49.1541 1176.42 Q51.7062 1176.42 53.2166 1174.75 Q54.701 1173.06 54.701 1170.17 Q54.701 1166.19 51.8885 1163.79 Q49.05 1161.37 44.3625 1161.37 L43.2948 1161.37 L43.2948 1166.13 M41.3156 1156.58 L57.9562 1156.58 L57.9562 1161.37 L53.5291 1161.37 Q56.1853 1163.01 57.4614 1165.46 Q58.7114 1167.9 58.7114 1171.45 Q58.7114 1175.93 56.2114 1178.58 Q53.6853 1181.21 49.4666 1181.21 Q44.5448 1181.21 42.0448 1177.93 Q39.5448 1174.62 39.5448 1168.09 L39.5448 1161.37 L39.0761 1161.37 Q35.7688 1161.37 33.9719 1163.56 Q32.149 1165.72 32.149 1169.65 Q32.149 1172.15 32.748 1174.52 Q33.3469 1176.89 34.5448 1179.08 L30.1178 1179.08 Q29.1021 1176.45 28.6074 1173.97 Q28.0865 1171.5 28.0865 1169.15 Q28.0865 1162.83 31.3678 1159.7 Q34.649 1156.58 41.3156 1156.58 Z" fill="#ffffff" fill-rule="evenodd" fill-opacity="1" /><path clip-path="url(#clip650)" d="M28.7896 1122.46 L42.9823 1133.01 L57.9562 1121.91 L57.9562 1127.57 L46.4979 1136.06 L57.9562 1144.55 L57.9562 1150.2 L42.6958 1138.87 L28.7896 1149.23 L28.7896 1143.58 L39.1802 1135.85 L28.7896 1128.11 L28.7896 1122.46 Z" fill="#ffffff" fill-rule="evenodd" fill-opacity="1" /><path clip-path="url(#clip650)" d="M19.0762 1097.98 L19.0762 1092.72 L57.9562 1092.72 L57.9562 1097.98 L19.0762 1097.98 Z" fill="#ffffff" fill-rule="evenodd" fill-opacity="1" /><path clip-path="url(#clip650)" d="M40.3521 1058.22 L57.9562 1058.22 L57.9562 1063.01 L40.5083 1063.01 Q36.3677 1063.01 34.3105 1064.62 Q32.2532 1066.24 32.2532 1069.47 Q32.2532 1073.35 34.7271 1075.59 Q37.2011 1077.83 41.4719 1077.83 L57.9562 1077.83 L57.9562 1082.64 L28.7896 1082.64 L28.7896 1077.83 L33.3209 1077.83 Q30.6907 1076.11 29.3886 1073.79 Q28.0865 1071.45 28.0865 1068.4 Q28.0865 1063.37 31.2115 1060.8 Q34.3105 1058.22 40.3521 1058.22 Z" fill="#ffffff" fill-rule="evenodd" fill-opacity="1" /><path clip-path="url(#clip650)" d="M33.2167 1029.47 L17.4355 1029.47 L17.4355 1024.68 L57.9562 1024.68 L57.9562 1029.47 L53.5812 1029.47 Q56.1853 1030.98 57.4614 1033.3 Q58.7114 1035.59 58.7114 1038.82 Q58.7114 1044.1 54.4926 1047.44 Q50.2739 1050.74 43.3989 1050.74 Q36.524 1050.74 32.3053 1047.44 Q28.0865 1044.1 28.0865 1038.82 Q28.0865 1035.59 29.3626 1033.3 Q30.6126 1030.98 33.2167 1029.47 M43.3989 1045.8 Q48.6854 1045.8 51.7062 1043.63 Q54.701 1041.45 54.701 1037.64 Q54.701 1033.84 51.7062 1031.66 Q48.6854 1029.47 43.3989 1029.47 Q38.1125 1029.47 35.1177 1031.66 Q32.0969 1033.84 32.0969 1037.64 Q32.0969 1041.45 35.1177 1043.63 Q38.1125 1045.8 43.3989 1045.8 Z" fill="#ffffff" fill-rule="evenodd" fill-opacity="1" /><path clip-path="url(#clip650)" d="M32.149 1003.5 Q32.149 1007.36 35.1698 1009.6 Q38.1646 1011.84 43.3989 1011.84 Q48.6333 1011.84 51.6541 1009.62 Q54.6489 1007.38 54.6489 1003.5 Q54.6489 999.676 51.6281 997.436 Q48.6072 995.197 43.3989 995.197 Q38.2167 995.197 35.1959 997.436 Q32.149 999.676 32.149 1003.5 M28.0865 1003.5 Q28.0865 997.254 32.149 993.686 Q36.2115 990.119 43.3989 990.119 Q50.5604 990.119 54.6489 993.686 Q58.7114 997.254 58.7114 1003.5 Q58.7114 1009.78 54.6489 1013.35 Q50.5604 1016.89 43.3989 1016.89 Q36.2115 1016.89 32.149 1013.35 Q28.0865 1009.78 28.0865 1003.5 Z" fill="#ffffff" fill-rule="evenodd" fill-opacity="1" /><path clip-path="url(#clip650)" d="M32.149 970.874 Q32.149 974.728 35.1698 976.968 Q38.1646 979.207 43.3989 979.207 Q48.6333 979.207 51.6541 976.994 Q54.6489 974.754 54.6489 970.874 Q54.6489 967.046 51.6281 964.806 Q48.6072 962.567 43.3989 962.567 Q38.2167 962.567 35.1959 964.806 Q32.149 967.046 32.149 970.874 M28.0865 970.874 Q28.0865 964.624 32.149 961.056 Q36.2115 957.489 43.3989 957.489 Q50.5604 957.489 54.6489 961.056 Q58.7114 964.624 58.7114 970.874 Q58.7114 977.15 54.6489 980.718 Q50.5604 984.259 43.3989 984.259 Q36.2115 984.259 32.149 980.718 Q28.0865 977.15 28.0865 970.874 Z" fill="#ffffff" fill-rule="evenodd" fill-opacity="1" /><path clip-path="url(#clip650)" d="M33.2688 932.645 Q32.8 933.452 32.5917 934.416 Q32.3573 935.353 32.3573 936.499 Q32.3573 940.562 35.0136 942.749 Q37.6438 944.911 42.5917 944.911 L57.9562 944.911 L57.9562 949.728 L28.7896 949.728 L28.7896 944.911 L33.3209 944.911 Q30.6646 943.4 29.3886 940.978 Q28.0865 938.557 28.0865 935.093 Q28.0865 934.598 28.1647 933.999 Q28.2167 933.4 28.3469 932.671 L33.2688 932.645 Z" fill="#ffffff" fill-rule="evenodd" fill-opacity="1" /><path clip-path="url(#clip650)" d="M22.0709 881.343 L27.6178 881.343 Q25.1438 884 23.9199 887.02 Q22.6959 890.015 22.6959 893.401 Q22.6959 900.067 26.7844 903.609 Q30.8469 907.15 38.5552 907.15 Q46.2375 907.15 50.326 903.609 Q54.3885 900.067 54.3885 893.401 Q54.3885 890.015 53.1645 887.02 Q51.9406 884 49.4666 881.343 L54.9614 881.343 Q56.8364 884.104 57.7739 887.203 Q58.7114 890.276 58.7114 893.713 Q58.7114 902.541 53.3208 907.619 Q47.9041 912.697 38.5552 912.697 Q29.1803 912.697 23.7897 907.619 Q18.373 902.541 18.373 893.713 Q18.373 890.224 19.3105 887.151 Q20.222 884.052 22.0709 881.343 Z" fill="#ffffff" fill-rule="evenodd" fill-opacity="1" /><path clip-path="url(#clip650)" d="M32.149 862.125 Q32.149 865.979 35.1698 868.218 Q38.1646 870.458 43.3989 870.458 Q48.6333 870.458 51.6541 868.244 Q54.6489 866.005 54.6489 862.125 Q54.6489 858.297 51.6281 856.057 Q48.6072 853.817 43.3989 853.817 Q38.2167 853.817 35.1959 856.057 Q32.149 858.297 32.149 862.125 M28.0865 862.125 Q28.0865 855.875 32.149 852.307 Q36.2115 848.739 43.3989 848.739 Q50.5604 848.739 54.6489 852.307 Q58.7114 855.875 58.7114 862.125 Q58.7114 868.401 54.6489 871.968 Q50.5604 875.51 43.3989 875.51 Q36.2115 875.51 32.149 871.968 Q28.0865 868.401 28.0865 862.125 Z" fill="#ffffff" fill-rule="evenodd" fill-opacity="1" /><path clip-path="url(#clip650)" d="M40.3521 816.552 L57.9562 816.552 L57.9562 821.344 L40.5083 821.344 Q36.3677 821.344 34.3105 822.958 Q32.2532 824.573 32.2532 827.802 Q32.2532 831.682 34.7271 833.922 Q37.2011 836.161 41.4719 836.161 L57.9562 836.161 L57.9562 840.979 L28.7896 840.979 L28.7896 836.161 L33.3209 836.161 Q30.6907 834.443 29.3886 832.125 Q28.0865 829.781 28.0865 826.734 Q28.0865 821.708 31.2115 819.13 Q34.3105 816.552 40.3521 816.552 Z" fill="#ffffff" fill-rule="evenodd" fill-opacity="1" /><path clip-path="url(#clip650)" d="M29.9094 786.005 L34.3886 786.005 Q33.2688 788.037 32.7219 790.094 Q32.149 792.125 32.149 794.208 Q32.149 798.87 35.1177 801.448 Q38.0604 804.026 43.3989 804.026 Q48.7375 804.026 51.7062 801.448 Q54.6489 798.87 54.6489 794.208 Q54.6489 792.125 54.102 790.094 Q53.5291 788.037 52.4093 786.005 L56.8364 786.005 Q57.7739 788.011 58.2426 790.172 Q58.7114 792.307 58.7114 794.729 Q58.7114 801.318 54.5708 805.198 Q50.4302 809.078 43.3989 809.078 Q36.2636 809.078 32.175 805.172 Q28.0865 801.24 28.0865 794.417 Q28.0865 792.203 28.5553 790.094 Q28.998 787.984 29.9094 786.005 Z" fill="#ffffff" fill-rule="evenodd" fill-opacity="1" /><path clip-path="url(#clip650)" d="M42.175 752.724 L44.5187 752.724 L44.5187 774.755 Q49.4666 774.443 52.0708 771.787 Q54.6489 769.104 54.6489 764.339 Q54.6489 761.578 53.9718 759 Q53.2947 756.396 51.9406 753.844 L56.4718 753.844 Q57.5655 756.422 58.1384 759.13 Q58.7114 761.839 58.7114 764.625 Q58.7114 771.604 54.6489 775.693 Q50.5864 779.755 43.6594 779.755 Q36.4979 779.755 32.3053 775.901 Q28.0865 772.021 28.0865 765.459 Q28.0865 759.573 31.8886 756.162 Q35.6646 752.724 42.175 752.724 M40.7687 757.516 Q36.8365 757.568 34.4927 759.729 Q32.149 761.865 32.149 765.406 Q32.149 769.417 34.4146 771.839 Q36.6802 774.235 40.7948 774.599 L40.7687 757.516 Z" fill="#ffffff" fill-rule="evenodd" fill-opacity="1" /><path clip-path="url(#clip650)" d="M40.3521 720.615 L57.9562 720.615 L57.9562 725.407 L40.5083 725.407 Q36.3677 725.407 34.3105 727.021 Q32.2532 728.636 32.2532 731.865 Q32.2532 735.745 34.7271 737.985 Q37.2011 740.224 41.4719 740.224 L57.9562 740.224 L57.9562 745.042 L28.7896 745.042 L28.7896 740.224 L33.3209 740.224 Q30.6907 738.506 29.3886 736.188 Q28.0865 733.844 28.0865 730.797 Q28.0865 725.771 31.2115 723.193 Q34.3105 720.615 40.3521 720.615 Z" fill="#ffffff" fill-rule="evenodd" fill-opacity="1" /><path clip-path="url(#clip650)" d="M20.5084 706.318 L28.7896 706.318 L28.7896 696.449 L32.5136 696.449 L32.5136 706.318 L48.3468 706.318 Q51.9145 706.318 52.9301 705.355 Q53.9458 704.365 53.9458 701.37 L53.9458 696.449 L57.9562 696.449 L57.9562 701.37 Q57.9562 706.917 55.8989 709.027 Q53.8156 711.136 48.3468 711.136 L32.5136 711.136 L32.5136 714.652 L28.7896 714.652 L28.7896 711.136 L20.5084 711.136 L20.5084 706.318 Z" fill="#ffffff" fill-rule="evenodd" fill-opacity="1" /><path clip-path="url(#clip650)" d="M33.2688 673.246 Q32.8 674.053 32.5917 675.016 Q32.3573 675.954 32.3573 677.1 Q32.3573 681.162 35.0136 683.35 Q37.6438 685.511 42.5917 685.511 L57.9562 685.511 L57.9562 690.329 L28.7896 690.329 L28.7896 685.511 L33.3209 685.511 Q30.6646 684.001 29.3886 681.579 Q28.0865 679.157 28.0865 675.693 Q28.0865 675.199 28.1647 674.6 Q28.2167 674.001 28.3469 673.272 L33.2688 673.246 Z" fill="#ffffff" fill-rule="evenodd" fill-opacity="1" /><path clip-path="url(#clip650)" d="M43.2948 654.964 Q43.2948 660.772 44.6229 663.011 Q45.951 665.251 49.1541 665.251 Q51.7062 665.251 53.2166 663.584 Q54.701 661.891 54.701 659.001 Q54.701 655.016 51.8885 652.621 Q49.05 650.199 44.3625 650.199 L43.2948 650.199 L43.2948 654.964 M41.3156 645.407 L57.9562 645.407 L57.9562 650.199 L53.5291 650.199 Q56.1853 651.839 57.4614 654.287 Q58.7114 656.735 58.7114 660.277 Q58.7114 664.756 56.2114 667.412 Q53.6853 670.042 49.4666 670.042 Q44.5448 670.042 42.0448 666.761 Q39.5448 663.454 39.5448 656.917 L39.5448 650.199 L39.0761 650.199 Q35.7688 650.199 33.9719 652.386 Q32.149 654.548 32.149 658.48 Q32.149 660.98 32.748 663.35 Q33.3469 665.72 34.5448 667.907 L30.1178 667.907 Q29.1021 665.277 28.6074 662.803 Q28.0865 660.329 28.0865 657.985 Q28.0865 651.657 31.3678 648.532 Q34.649 645.407 41.3156 645.407 Z" fill="#ffffff" fill-rule="evenodd" fill-opacity="1" /><path clip-path="url(#clip650)" d="M20.5084 630.798 L28.7896 630.798 L28.7896 620.928 L32.5136 620.928 L32.5136 630.798 L48.3468 630.798 Q51.9145 630.798 52.9301 629.834 Q53.9458 628.845 53.9458 625.85 L53.9458 620.928 L57.9562 620.928 L57.9562 625.85 Q57.9562 631.397 55.8989 633.506 Q53.8156 635.615 48.3468 635.615 L32.5136 635.615 L32.5136 639.131 L28.7896 639.131 L28.7896 635.615 L20.5084 635.615 L20.5084 630.798 Z" fill="#ffffff" fill-rule="evenodd" fill-opacity="1" /><path clip-path="url(#clip650)" d="M28.7896 614.626 L28.7896 609.834 L57.9562 609.834 L57.9562 614.626 L28.7896 614.626 M17.4355 614.626 L17.4355 609.834 L23.5032 609.834 L23.5032 614.626 L17.4355 614.626 Z" fill="#ffffff" fill-rule="evenodd" fill-opacity="1" /><path clip-path="url(#clip650)" d="M32.149 588.506 Q32.149 592.361 35.1698 594.6 Q38.1646 596.84 43.3989 596.84 Q48.6333 596.84 51.6541 594.626 Q54.6489 592.387 54.6489 588.506 Q54.6489 584.678 51.6281 582.439 Q48.6072 580.199 43.3989 580.199 Q38.2167 580.199 35.1959 582.439 Q32.149 584.678 32.149 588.506 M28.0865 588.506 Q28.0865 582.256 32.149 578.689 Q36.2115 575.121 43.3989 575.121 Q50.5604 575.121 54.6489 578.689 Q58.7114 582.256 58.7114 588.506 Q58.7114 594.782 54.6489 598.35 Q50.5604 601.892 43.3989 601.892 Q36.2115 601.892 32.149 598.35 Q28.0865 594.782 28.0865 588.506 Z" fill="#ffffff" fill-rule="evenodd" fill-opacity="1" /><path clip-path="url(#clip650)" d="M40.3521 542.934 L57.9562 542.934 L57.9562 547.725 L40.5083 547.725 Q36.3677 547.725 34.3105 549.34 Q32.2532 550.954 32.2532 554.184 Q32.2532 558.064 34.7271 560.303 Q37.2011 562.543 41.4719 562.543 L57.9562 562.543 L57.9562 567.361 L28.7896 567.361 L28.7896 562.543 L33.3209 562.543 Q30.6907 560.824 29.3886 558.507 Q28.0865 556.163 28.0865 553.116 Q28.0865 548.09 31.2115 545.512 Q34.3105 542.934 40.3521 542.934 Z" fill="#ffffff" fill-rule="evenodd" fill-opacity="1" /><path clip-path="url(#clip650)" d="M51.3416 532.153 L51.3416 526.658 L55.8208 526.658 L64.154 530.929 L64.154 534.288 L55.8208 532.153 L51.3416 532.153 Z" fill="#ffffff" fill-rule="evenodd" fill-opacity="1" /><path clip-path="url(#clip650)" d="M34.3886 476.762 Q31.1594 474.965 29.623 472.465 Q28.0865 469.965 28.0865 466.58 Q28.0865 462.023 31.2896 459.549 Q34.4667 457.075 40.3521 457.075 L57.9562 457.075 L57.9562 461.892 L40.5083 461.892 Q36.3156 461.892 34.2844 463.377 Q32.2532 464.861 32.2532 467.908 Q32.2532 471.632 34.7271 473.793 Q37.2011 475.955 41.4719 475.955 L57.9562 475.955 L57.9562 480.773 L40.5083 480.773 Q36.2896 480.773 34.2844 482.257 Q32.2532 483.741 32.2532 486.84 Q32.2532 490.512 34.7532 492.674 Q37.2271 494.835 41.4719 494.835 L57.9562 494.835 L57.9562 499.653 L28.7896 499.653 L28.7896 494.835 L33.3209 494.835 Q30.6386 493.194 29.3626 490.903 Q28.0865 488.611 28.0865 485.46 Q28.0865 482.283 29.7011 480.069 Q31.3157 477.83 34.3886 476.762 Z" fill="#ffffff" fill-rule="evenodd" fill-opacity="1" /><path clip-path="url(#clip650)" d="M43.0344 428.325 Q37.8261 428.325 34.9615 430.486 Q32.0969 432.622 32.0969 436.502 Q32.0969 440.356 34.9615 442.518 Q37.8261 444.653 43.0344 444.653 Q48.2166 444.653 51.0812 442.518 Q53.9458 440.356 53.9458 436.502 Q53.9458 432.622 51.0812 430.486 Q48.2166 428.325 43.0344 428.325 M54.3364 423.533 Q61.7843 423.533 65.404 426.841 Q69.0498 430.148 69.0498 436.971 Q69.0498 439.497 68.6592 441.736 Q68.2946 443.976 67.5134 446.085 L62.852 446.085 Q63.9978 443.976 64.5447 441.919 Q65.0915 439.861 65.0915 437.726 Q65.0915 433.012 62.6176 430.669 Q60.1697 428.325 55.1958 428.325 L52.826 428.325 Q55.4041 429.809 56.6801 432.127 Q57.9562 434.445 57.9562 437.674 Q57.9562 443.038 53.8676 446.32 Q49.7791 449.601 43.0344 449.601 Q36.2636 449.601 32.175 446.32 Q28.0865 443.038 28.0865 437.674 Q28.0865 434.445 29.3626 432.127 Q30.6386 429.809 33.2167 428.325 L28.7896 428.325 L28.7896 423.533 L54.3364 423.533 Z" fill="#ffffff" fill-rule="evenodd" fill-opacity="1" /><path clip-path="url(#clip650)" d="M19.0762 405.148 L19.0762 400.721 L62.904 414.263 L62.904 418.69 L19.0762 405.148 Z" fill="#ffffff" fill-rule="evenodd" fill-opacity="1" /><path clip-path="url(#clip650)" d="M34.3886 372.987 Q31.1594 371.19 29.623 368.69 Q28.0865 366.19 28.0865 362.804 Q28.0865 358.247 31.2896 355.773 Q34.4667 353.299 40.3521 353.299 L57.9562 353.299 L57.9562 358.117 L40.5083 358.117 Q36.3156 358.117 34.2844 359.601 Q32.2532 361.086 32.2532 364.133 Q32.2532 367.857 34.7271 370.018 Q37.2011 372.179 41.4719 372.179 L57.9562 372.179 L57.9562 376.997 L40.5083 376.997 Q36.2896 376.997 34.2844 378.481 Q32.2532 379.966 32.2532 383.065 Q32.2532 386.737 34.7532 388.898 Q37.2271 391.06 41.4719 391.06 L57.9562 391.06 L57.9562 395.877 L28.7896 395.877 L28.7896 391.06 L33.3209 391.06 Q30.6386 389.419 29.3626 387.127 Q28.0865 384.836 28.0865 381.685 Q28.0865 378.507 29.7011 376.294 Q31.3157 374.054 34.3886 372.987 Z" fill="#ffffff" fill-rule="evenodd" fill-opacity="1" /><path clip-path="url(#clip650)" d="M28.7896 335.122 Q29.2584 332.726 30.6907 331.424 Q32.0969 330.096 34.2323 330.096 Q37.4615 330.096 39.2063 332.57 Q40.951 335.044 40.951 339.654 Q40.951 341.138 40.6906 342.779 Q40.4042 344.393 39.8833 346.216 L36.7323 346.216 Q37.4354 344.862 37.774 343.325 Q38.1125 341.763 38.1125 340.018 Q38.1125 337.18 37.0969 335.617 Q36.0552 334.055 34.2323 334.055 Q32.3053 334.055 31.3157 335.513 Q30.3261 336.945 30.3261 339.758 L30.3261 341.997 L27.5136 341.997 L27.5136 339.549 Q27.5136 337.101 26.7063 335.851 Q25.873 334.575 24.3105 334.575 Q22.8001 334.575 22.0189 335.878 Q21.2116 337.18 21.2116 339.654 Q21.2116 340.695 21.4459 342.023 Q21.6803 343.351 22.2793 345.461 L19.2845 345.461 Q18.8418 343.56 18.6074 341.893 Q18.373 340.226 18.373 338.794 Q18.373 335.044 19.9095 332.857 Q21.4459 330.643 24.024 330.643 Q25.8209 330.643 27.0709 331.815 Q28.3209 332.987 28.7896 335.122 Z" fill="#ffffff" fill-rule="evenodd" fill-opacity="1" /><path clip-path="url(#clip650)" d="M649.202 14.0809 L649.202 22.0612 Q644.544 19.8332 640.412 18.7395 Q636.28 17.6457 632.431 17.6457 Q625.747 17.6457 622.102 20.2383 Q618.496 22.8309 618.496 27.611 Q618.496 31.6214 620.886 33.6873 Q623.317 35.7128 630.041 36.9686 L634.984 37.9813 Q644.139 39.7232 648.473 44.1387 Q652.848 48.5136 652.848 55.8863 Q652.848 64.6767 646.934 69.2137 Q641.06 73.7508 629.677 73.7508 Q625.383 73.7508 620.522 72.7785 Q615.701 71.8063 610.516 69.9024 L610.516 61.4765 Q615.499 64.2716 620.279 65.6895 Q625.059 67.1073 629.677 67.1073 Q636.685 67.1073 640.493 64.3527 Q644.301 61.598 644.301 56.4939 Q644.301 52.0379 641.546 49.5264 Q638.832 47.0148 632.594 45.759 L627.611 44.7868 Q618.456 42.9639 614.364 39.075 Q610.273 35.1862 610.273 28.2591 Q610.273 20.2383 615.904 15.6203 Q621.575 11.0023 631.5 11.0023 Q635.753 11.0023 640.169 11.7719 Q644.584 12.5416 649.202 14.0809 Z" fill="#ffffff" fill-rule="evenodd" fill-opacity="1" /><path clip-path="url(#clip650)" d="M704.092 48.0275 L704.092 51.6733 L669.821 51.6733 Q670.307 59.3701 674.439 63.421 Q678.612 67.4314 686.025 67.4314 Q690.319 67.4314 694.329 66.3781 Q698.38 65.3249 702.35 63.2184 L702.35 70.267 Q698.34 71.9684 694.127 72.8596 Q689.914 73.7508 685.579 73.7508 Q674.723 73.7508 668.363 67.4314 Q662.044 61.1119 662.044 50.3365 Q662.044 39.1965 668.039 32.6746 Q674.075 26.1121 684.283 26.1121 Q693.438 26.1121 698.745 32.0264 Q704.092 37.9003 704.092 48.0275 M696.638 45.84 Q696.557 39.7232 693.195 36.0774 Q689.873 32.4315 684.364 32.4315 Q678.126 32.4315 674.358 35.9558 Q670.632 39.4801 670.064 45.8805 L696.638 45.84 Z" fill="#ffffff" fill-rule="evenodd" fill-opacity="1" /><path clip-path="url(#clip650)" d="M754.04 45.1919 L754.04 72.576 L746.586 72.576 L746.586 45.4349 Q746.586 38.994 744.074 35.7938 Q741.563 32.5936 736.54 32.5936 Q730.504 32.5936 727.02 36.4419 Q723.536 40.2903 723.536 46.9338 L723.536 72.576 L716.042 72.576 L716.042 27.2059 L723.536 27.2059 L723.536 34.2544 Q726.21 30.163 729.815 28.1376 Q733.461 26.1121 738.201 26.1121 Q746.019 26.1121 750.029 30.9732 Q754.04 35.7938 754.04 45.1919 Z" fill="#ffffff" fill-rule="evenodd" fill-opacity="1" /><path clip-path="url(#clip650)" d="M797.83 28.5427 L797.83 35.5912 Q794.67 33.9709 791.267 33.1607 Q787.865 32.3505 784.219 32.3505 Q778.669 32.3505 775.874 34.0519 Q773.119 35.7533 773.119 39.156 Q773.119 41.7486 775.104 43.2475 Q777.089 44.7058 783.085 46.0426 L785.637 46.6097 Q793.576 48.3111 796.898 51.4303 Q800.26 54.509 800.26 60.0587 Q800.26 66.3781 795.237 70.0644 Q790.255 73.7508 781.505 73.7508 Q777.859 73.7508 773.889 73.0216 Q769.96 72.3329 765.585 70.9151 L765.585 63.2184 Q769.717 65.3654 773.727 66.4591 Q777.737 67.5124 781.667 67.5124 Q786.933 67.5124 789.769 65.73 Q792.604 63.9071 792.604 60.6258 Q792.604 57.5877 790.538 55.9673 Q788.513 54.3469 781.586 52.8481 L778.993 52.2405 Q772.066 50.7821 768.987 47.7845 Q765.909 44.7463 765.909 39.4801 Q765.909 33.0797 770.446 29.5959 Q774.983 26.1121 783.328 26.1121 Q787.46 26.1121 791.105 26.7198 Q794.751 27.3274 797.83 28.5427 Z" fill="#ffffff" fill-rule="evenodd" fill-opacity="1" /><path clip-path="url(#clip650)" d="M812.13 27.2059 L819.583 27.2059 L819.583 72.576 L812.13 72.576 L812.13 27.2059 M812.13 9.54393 L819.583 9.54393 L819.583 18.9825 L812.13 18.9825 L812.13 9.54393 Z" fill="#ffffff" fill-rule="evenodd" fill-opacity="1" /><path clip-path="url(#clip650)" d="M842.552 14.324 L842.552 27.2059 L857.905 27.2059 L857.905 32.9987 L842.552 32.9987 L842.552 57.6282 Q842.552 63.1779 844.051 64.7578 Q845.59 66.3376 850.249 66.3376 L857.905 66.3376 L857.905 72.576 L850.249 72.576 Q841.62 72.576 838.339 69.3758 Q835.058 66.1351 835.058 57.6282 L835.058 32.9987 L829.589 32.9987 L829.589 27.2059 L835.058 27.2059 L835.058 14.324 L842.552 14.324 Z" fill="#ffffff" fill-rule="evenodd" fill-opacity="1" /><path clip-path="url(#clip650)" d="M867.708 27.2059 L875.162 27.2059 L875.162 72.576 L867.708 72.576 L867.708 27.2059 M867.708 9.54393 L875.162 9.54393 L875.162 18.9825 L867.708 18.9825 L867.708 9.54393 Z" fill="#ffffff" fill-rule="evenodd" fill-opacity="1" /><path clip-path="url(#clip650)" d="M885.41 27.2059 L893.31 27.2059 L907.488 65.2844 L921.666 27.2059 L929.565 27.2059 L912.552 72.576 L902.424 72.576 L885.41 27.2059 Z" fill="#ffffff" fill-rule="evenodd" fill-opacity="1" /><path clip-path="url(#clip650)" d="M939.855 27.2059 L947.308 27.2059 L947.308 72.576 L939.855 72.576 L939.855 27.2059 M939.855 9.54393 L947.308 9.54393 L947.308 18.9825 L939.855 18.9825 L939.855 9.54393 Z" fill="#ffffff" fill-rule="evenodd" fill-opacity="1" /><path clip-path="url(#clip650)" d="M970.277 14.324 L970.277 27.2059 L985.63 27.2059 L985.63 32.9987 L970.277 32.9987 L970.277 57.6282 Q970.277 63.1779 971.776 64.7578 Q973.315 66.3376 977.974 66.3376 L985.63 66.3376 L985.63 72.576 L977.974 72.576 Q969.345 72.576 966.064 69.3758 Q962.783 66.1351 962.783 57.6282 L962.783 32.9987 L957.314 32.9987 L957.314 27.2059 L962.783 27.2059 L962.783 14.324 L970.277 14.324 Z" fill="#ffffff" fill-rule="evenodd" fill-opacity="1" /><path clip-path="url(#clip650)" d="M1014.31 76.7889 Q1011.15 84.8907 1008.15 87.3618 Q1005.16 89.8329 1000.13 89.8329 L994.177 89.8329 L994.177 83.5945 L998.552 83.5945 Q1001.63 83.5945 1003.33 82.1361 Q1005.03 80.6778 1007.1 75.2496 L1008.44 71.8468 L990.086 27.2059 L997.985 27.2059 L1012.16 62.6918 L1026.34 27.2059 L1034.24 27.2059 L1014.31 76.7889 Z" fill="#ffffff" fill-rule="evenodd" fill-opacity="1" /><path clip-path="url(#clip650)" d="M1078.27 14.324 L1078.27 27.2059 L1093.63 27.2059 L1093.63 32.9987 L1078.27 32.9987 L1078.27 57.6282 Q1078.27 63.1779 1079.77 64.7578 Q1081.31 66.3376 1085.97 66.3376 L1093.63 66.3376 L1093.63 72.576 L1085.97 72.576 Q1077.34 72.576 1074.06 69.3758 Q1070.78 66.1351 1070.78 57.6282 L1070.78 32.9987 L1065.31 32.9987 L1065.31 27.2059 L1070.78 27.2059 L1070.78 14.324 L1078.27 14.324 Z" fill="#ffffff" fill-rule="evenodd" fill-opacity="1" /><path clip-path="url(#clip650)" d="M1121.01 32.4315 Q1115.02 32.4315 1111.53 37.1306 Q1108.05 41.7891 1108.05 49.9314 Q1108.05 58.0738 1111.49 62.7728 Q1114.98 67.4314 1121.01 67.4314 Q1126.97 67.4314 1130.45 62.7323 Q1133.93 58.0333 1133.93 49.9314 Q1133.93 41.8701 1130.45 37.1711 Q1126.97 32.4315 1121.01 32.4315 M1121.01 26.1121 Q1130.73 26.1121 1136.28 32.4315 Q1141.83 38.7509 1141.83 49.9314 Q1141.83 61.0714 1136.28 67.4314 Q1130.73 73.7508 1121.01 73.7508 Q1111.25 73.7508 1105.7 67.4314 Q1100.19 61.0714 1100.19 49.9314 Q1100.19 38.7509 1105.7 32.4315 Q1111.25 26.1121 1121.01 26.1121 Z" fill="#ffffff" fill-rule="evenodd" fill-opacity="1" /><path clip-path="url(#clip650)" d="M1210.41 34.0924 L1210.41 9.54393 L1217.87 9.54393 L1217.87 72.576 L1210.41 72.576 L1210.41 65.7705 Q1208.06 69.8214 1204.46 71.8063 Q1200.89 73.7508 1195.87 73.7508 Q1187.65 73.7508 1182.46 67.1883 Q1177.32 60.6258 1177.32 49.9314 Q1177.32 39.2371 1182.46 32.6746 Q1187.65 26.1121 1195.87 26.1121 Q1200.89 26.1121 1204.46 28.0971 Q1208.06 30.0415 1210.41 34.0924 M1185.02 49.9314 Q1185.02 58.1548 1188.38 62.8538 Q1191.78 67.5124 1197.69 67.5124 Q1203.61 67.5124 1207.01 62.8538 Q1210.41 58.1548 1210.41 49.9314 Q1210.41 41.7081 1207.01 37.0496 Q1203.61 32.3505 1197.69 32.3505 Q1191.78 32.3505 1188.38 37.0496 Q1185.02 41.7081 1185.02 49.9314 Z" fill="#ffffff" fill-rule="evenodd" fill-opacity="1" /><path clip-path="url(#clip650)" d="M1250.8 32.4315 Q1244.81 32.4315 1241.32 37.1306 Q1237.84 41.7891 1237.84 49.9314 Q1237.84 58.0738 1241.28 62.7728 Q1244.77 67.4314 1250.8 67.4314 Q1256.76 67.4314 1260.24 62.7323 Q1263.72 58.0333 1263.72 49.9314 Q1263.72 41.8701 1260.24 37.1711 Q1256.76 32.4315 1250.8 32.4315 M1250.8 26.1121 Q1260.52 26.1121 1266.07 32.4315 Q1271.62 38.7509 1271.62 49.9314 Q1271.62 61.0714 1266.07 67.4314 Q1260.52 73.7508 1250.8 73.7508 Q1241.04 73.7508 1235.49 67.4314 Q1229.98 61.0714 1229.98 49.9314 Q1229.98 38.7509 1235.49 32.4315 Q1241.04 26.1121 1250.8 26.1121 Z" fill="#ffffff" fill-rule="evenodd" fill-opacity="1" /><path clip-path="url(#clip650)" d="M1279.64 27.2059 L1287.1 27.2059 L1296.42 62.6108 L1305.69 27.2059 L1314.48 27.2059 L1323.8 62.6108 L1333.08 27.2059 L1340.53 27.2059 L1328.66 72.576 L1319.87 72.576 L1310.11 35.3887 L1300.3 72.576 L1291.51 72.576 L1279.64 27.2059 Z" fill="#ffffff" fill-rule="evenodd" fill-opacity="1" /><path clip-path="url(#clip650)" d="M1389.55 45.1919 L1389.55 72.576 L1382.09 72.576 L1382.09 45.4349 Q1382.09 38.994 1379.58 35.7938 Q1377.07 32.5936 1372.05 32.5936 Q1366.01 32.5936 1362.53 36.4419 Q1359.04 40.2903 1359.04 46.9338 L1359.04 72.576 L1351.55 72.576 L1351.55 27.2059 L1359.04 27.2059 L1359.04 34.2544 Q1361.72 30.163 1365.32 28.1376 Q1368.97 26.1121 1373.71 26.1121 Q1381.52 26.1121 1385.54 30.9732 Q1389.55 35.7938 1389.55 45.1919 Z" fill="#ffffff" fill-rule="evenodd" fill-opacity="1" /><path clip-path="url(#clip650)" d="M1400.08 27.2059 L1407.53 27.2059 L1416.85 62.6108 L1426.13 27.2059 L1434.92 27.2059 L1444.23 62.6108 L1453.51 27.2059 L1460.96 27.2059 L1449.09 72.576 L1440.3 72.576 L1430.54 35.3887 L1420.74 72.576 L1411.95 72.576 L1400.08 27.2059 Z" fill="#ffffff" fill-rule="evenodd" fill-opacity="1" /><path clip-path="url(#clip650)" d="M1472.26 27.2059 L1479.72 27.2059 L1479.72 72.576 L1472.26 72.576 L1472.26 27.2059 M1472.26 9.54393 L1479.72 9.54393 L1479.72 18.9825 L1472.26 18.9825 L1472.26 9.54393 Z" fill="#ffffff" fill-rule="evenodd" fill-opacity="1" /><path clip-path="url(#clip650)" d="M1533.03 45.1919 L1533.03 72.576 L1525.57 72.576 L1525.57 45.4349 Q1525.57 38.994 1523.06 35.7938 Q1520.55 32.5936 1515.53 32.5936 Q1509.49 32.5936 1506.01 36.4419 Q1502.53 40.2903 1502.53 46.9338 L1502.53 72.576 L1495.03 72.576 L1495.03 27.2059 L1502.53 27.2059 L1502.53 34.2544 Q1505.2 30.163 1508.8 28.1376 Q1512.45 26.1121 1517.19 26.1121 Q1525.01 26.1121 1529.02 30.9732 Q1533.03 35.7938 1533.03 45.1919 Z" fill="#ffffff" fill-rule="evenodd" fill-opacity="1" /><path clip-path="url(#clip650)" d="M1577.75 34.0924 L1577.75 9.54393 L1585.2 9.54393 L1585.2 72.576 L1577.75 72.576 L1577.75 65.7705 Q1575.4 69.8214 1571.8 71.8063 Q1568.23 73.7508 1563.21 73.7508 Q1554.98 73.7508 1549.8 67.1883 Q1544.65 60.6258 1544.65 49.9314 Q1544.65 39.2371 1549.8 32.6746 Q1554.98 26.1121 1563.21 26.1121 Q1568.23 26.1121 1571.8 28.0971 Q1575.4 30.0415 1577.75 34.0924 M1552.35 49.9314 Q1552.35 58.1548 1555.71 62.8538 Q1559.12 67.5124 1565.03 67.5124 Q1570.94 67.5124 1574.35 62.8538 Q1577.75 58.1548 1577.75 49.9314 Q1577.75 41.7081 1574.35 37.0496 Q1570.94 32.3505 1565.03 32.3505 Q1559.12 32.3505 1555.71 37.0496 Q1552.35 41.7081 1552.35 49.9314 Z" fill="#ffffff" fill-rule="evenodd" fill-opacity="1" /><path clip-path="url(#clip650)" d="M1656.78 34.0924 L1656.78 9.54393 L1664.24 9.54393 L1664.24 72.576 L1656.78 72.576 L1656.78 65.7705 Q1654.43 69.8214 1650.83 71.8063 Q1647.26 73.7508 1642.24 73.7508 Q1634.02 73.7508 1628.83 67.1883 Q1623.69 60.6258 1623.69 49.9314 Q1623.69 39.2371 1628.83 32.6746 Q1634.02 26.1121 1642.24 26.1121 Q1647.26 26.1121 1650.83 28.0971 Q1654.43 30.0415 1656.78 34.0924 M1631.38 49.9314 Q1631.38 58.1548 1634.75 62.8538 Q1638.15 67.5124 1644.06 67.5124 Q1649.98 67.5124 1653.38 62.8538 Q1656.78 58.1548 1656.78 49.9314 Q1656.78 41.7081 1653.38 37.0496 Q1649.98 32.3505 1644.06 32.3505 Q1638.15 32.3505 1634.75 37.0496 Q1631.38 41.7081 1631.38 49.9314 Z" fill="#ffffff" fill-rule="evenodd" fill-opacity="1" /><path clip-path="url(#clip650)" d="M1679.59 27.2059 L1687.04 27.2059 L1687.04 72.576 L1679.59 72.576 L1679.59 27.2059 M1679.59 9.54393 L1687.04 9.54393 L1687.04 18.9825 L1679.59 18.9825 L1679.59 9.54393 Z" fill="#ffffff" fill-rule="evenodd" fill-opacity="1" /><path clip-path="url(#clip650)" d="M1731.56 28.5427 L1731.56 35.5912 Q1728.4 33.9709 1725 33.1607 Q1721.6 32.3505 1717.95 32.3505 Q1712.4 32.3505 1709.61 34.0519 Q1706.85 35.7533 1706.85 39.156 Q1706.85 41.7486 1708.84 43.2475 Q1710.82 44.7058 1716.82 46.0426 L1719.37 46.6097 Q1727.31 48.3111 1730.63 51.4303 Q1733.99 54.509 1733.99 60.0587 Q1733.99 66.3781 1728.97 70.0644 Q1723.99 73.7508 1715.24 73.7508 Q1711.59 73.7508 1707.62 73.0216 Q1703.69 72.3329 1699.32 70.9151 L1699.32 63.2184 Q1703.45 65.3654 1707.46 66.4591 Q1711.47 67.5124 1715.4 67.5124 Q1720.67 67.5124 1723.5 65.73 Q1726.34 63.9071 1726.34 60.6258 Q1726.34 57.5877 1724.27 55.9673 Q1722.25 54.3469 1715.32 52.8481 L1712.73 52.2405 Q1705.8 50.7821 1702.72 47.7845 Q1699.64 44.7463 1699.64 39.4801 Q1699.64 33.0797 1704.18 29.5959 Q1708.72 26.1121 1717.06 26.1121 Q1721.19 26.1121 1724.84 26.7198 Q1728.48 27.3274 1731.56 28.5427 Z" fill="#ffffff" fill-rule="evenodd" fill-opacity="1" /><path clip-path="url(#clip650)" d="M1753.24 14.324 L1753.24 27.2059 L1768.59 27.2059 L1768.59 32.9987 L1753.24 32.9987 L1753.24 57.6282 Q1753.24 63.1779 1754.73 64.7578 Q1756.27 66.3376 1760.93 66.3376 L1768.59 66.3376 L1768.59 72.576 L1760.93 72.576 Q1752.3 72.576 1749.02 69.3758 Q1745.74 66.1351 1745.74 57.6282 L1745.74 32.9987 L1740.27 32.9987 L1740.27 27.2059 L1745.74 27.2059 L1745.74 14.324 L1753.24 14.324 Z" fill="#ffffff" fill-rule="evenodd" fill-opacity="1" /><path clip-path="url(#clip650)" d="M1799.01 49.7694 Q1789.98 49.7694 1786.49 51.8354 Q1783.01 53.9013 1783.01 58.8839 Q1783.01 62.8538 1785.6 65.2034 Q1788.24 67.5124 1792.73 67.5124 Q1798.93 67.5124 1802.66 63.1374 Q1806.42 58.7219 1806.42 51.4303 L1806.42 49.7694 L1799.01 49.7694 M1813.88 46.6907 L1813.88 72.576 L1806.42 72.576 L1806.42 65.6895 Q1803.87 69.8214 1800.06 71.8063 Q1796.26 73.7508 1790.75 73.7508 Q1783.78 73.7508 1779.65 69.8619 Q1775.56 65.9325 1775.56 59.3701 Q1775.56 51.7138 1780.66 47.825 Q1785.8 43.9361 1795.97 43.9361 L1806.42 43.9361 L1806.42 43.2069 Q1806.42 38.0623 1803.02 35.2672 Q1799.66 32.4315 1793.54 32.4315 Q1789.65 32.4315 1785.97 33.3632 Q1782.28 34.295 1778.88 36.1584 L1778.88 29.2718 Q1782.97 27.692 1786.82 26.9223 Q1790.67 26.1121 1794.31 26.1121 Q1804.16 26.1121 1809.02 31.2163 Q1813.88 36.3204 1813.88 46.6907 Z" fill="#ffffff" fill-rule="evenodd" fill-opacity="1" /><path clip-path="url(#clip650)" d="M1866.94 45.1919 L1866.94 72.576 L1859.49 72.576 L1859.49 45.4349 Q1859.49 38.994 1856.98 35.7938 Q1854.47 32.5936 1849.44 32.5936 Q1843.41 32.5936 1839.93 36.4419 Q1836.44 40.2903 1836.44 46.9338 L1836.44 72.576 L1828.95 72.576 L1828.95 27.2059 L1836.44 27.2059 L1836.44 34.2544 Q1839.11 30.163 1842.72 28.1376 Q1846.37 26.1121 1851.11 26.1121 Q1858.92 26.1121 1862.93 30.9732 Q1866.94 35.7938 1866.94 45.1919 Z" fill="#ffffff" fill-rule="evenodd" fill-opacity="1" /><path clip-path="url(#clip650)" d="M1914.46 28.9478 L1914.46 35.9153 Q1911.3 34.1734 1908.1 33.3227 Q1904.94 32.4315 1901.7 32.4315 Q1894.45 32.4315 1890.44 37.0496 Q1886.43 41.6271 1886.43 49.9314 Q1886.43 58.2358 1890.44 62.8538 Q1894.45 67.4314 1901.7 67.4314 Q1904.94 67.4314 1908.1 66.5807 Q1911.3 65.6895 1914.46 63.9476 L1914.46 70.8341 Q1911.34 72.2924 1907.98 73.0216 Q1904.66 73.7508 1900.89 73.7508 Q1890.64 73.7508 1884.61 67.3098 Q1878.57 60.8689 1878.57 49.9314 Q1878.57 38.832 1884.65 32.472 Q1890.76 26.1121 1901.38 26.1121 Q1904.82 26.1121 1908.1 26.8413 Q1911.38 27.5299 1914.46 28.9478 Z" fill="#ffffff" fill-rule="evenodd" fill-opacity="1" /><path clip-path="url(#clip650)" d="M1966.23 48.0275 L1966.23 51.6733 L1931.96 51.6733 Q1932.45 59.3701 1936.58 63.421 Q1940.75 67.4314 1948.17 67.4314 Q1952.46 67.4314 1956.47 66.3781 Q1960.52 65.3249 1964.49 63.2184 L1964.49 70.267 Q1960.48 71.9684 1956.27 72.8596 Q1952.05 73.7508 1947.72 73.7508 Q1936.86 73.7508 1930.5 67.4314 Q1924.18 61.1119 1924.18 50.3365 Q1924.18 39.1965 1930.18 32.6746 Q1936.22 26.1121 1946.42 26.1121 Q1955.58 26.1121 1960.89 32.0264 Q1966.23 37.9003 1966.23 48.0275 M1958.78 45.84 Q1958.7 39.7232 1955.34 36.0774 Q1952.01 32.4315 1946.5 32.4315 Q1940.27 32.4315 1936.5 35.9558 Q1932.77 39.4801 1932.2 45.8805 L1958.78 45.84 Z" fill="#ffffff" fill-rule="evenodd" fill-opacity="1" /><polyline clip-path="url(#clip652)" style="stroke:#009af9; stroke-linecap:round; stroke-linejoin:round; stroke-width:4; stroke-opacity:1; fill:none" points="
  284.004,-214960 287.837,-75072 291.67,-40210.6 295.503,-25618.7 299.336,-17943.1 303.169,-13355.2 307.002,-10381.8 310.835,-8340.78 314.668,-6875.73 318.501,-5784.27 
  322.334,-4944.8 326.167,-4281.08 330,-3743.6 333.833,-3299.25 337.666,-2925.28 341.499,-2605.7 345.332,-2328.99 349.165,-2086.7 352.998,-1872.47 356.831,-1681.48 
  360.664,-1509.98 364.497,-1355 368.33,-1214.19 372.163,-1085.62 375.996,-967.738 379.829,-859.234 383.662,-759.02 387.495,-666.178 391.329,-579.925 395.162,-499.587 
  398.995,-424.584 402.828,-354.41 406.661,-288.624 410.494,-226.836 414.327,-168.705 418.16,-113.924 421.993,-62.2228 425.826,-13.3589 429.659,32.8859 433.492,76.7073 
  437.325,118.283 441.158,157.772 444.991,195.321 448.824,231.062 452.657,265.115 456.49,297.592 460.323,328.593 464.156,358.211 467.989,386.531 471.822,413.632 
  475.655,439.587 479.488,464.463 483.321,488.32 487.154,511.218 490.987,533.209 494.82,554.343 498.653,574.665 502.486,594.22 506.319,613.046 510.152,631.181 
  513.985,648.661 517.818,665.517 521.651,681.781 525.484,697.482 529.317,712.645 533.15,727.297 536.983,741.461 540.816,755.159 544.649,768.414 548.482,781.244 
  552.315,793.668 556.148,805.704 559.981,817.369 563.814,828.678 567.647,839.647 571.48,850.29 575.313,860.619 579.146,870.648 582.979,880.389 586.812,889.853 
  590.645,899.051 594.478,907.994 598.311,916.69 602.144,925.15 605.977,933.382 609.81,941.396 613.643,949.198 617.476,956.796 621.309,964.199 625.142,971.412 
  628.975,978.443 632.808,985.297 636.641,991.982 640.474,998.503 644.307,1004.86 648.14,1011.07 651.973,1017.13 655.806,1023.05 659.639,1028.83 663.472,1034.47 
  667.305,1039.99 671.138,1045.38 674.971,1050.64 678.804,1055.79 682.637,1060.83 686.47,1065.75 690.303,1070.57 694.136,1075.28 697.969,1079.9 701.802,1084.41 
  705.635,1088.83 709.468,1093.15 713.301,1097.39 717.134,1101.54 720.967,1105.6 724.8,1109.59 728.633,1113.49 732.466,1117.31 736.299,1121.06 740.132,1124.74 
  743.965,1128.34 747.798,1131.88 751.631,1135.34 755.464,1138.74 759.297,1142.08 763.13,1145.35 766.963,1148.57 770.796,1151.72 774.629,1154.82 778.462,1157.86 
  782.295,1160.84 786.128,1163.77 789.961,1166.65 793.794,1169.48 797.627,1172.26 801.46,1174.99 805.293,1177.67 809.126,1180.31 812.96,1182.9 816.793,1185.45 
  820.626,1187.95 824.459,1190.41 828.292,1192.84 832.125,1195.22 835.958,1197.56 839.791,1199.86 843.624,1202.13 847.457,1204.36 851.29,1206.55 855.123,1208.71 
  858.956,1210.84 862.789,1212.93 866.622,1214.99 870.455,1217.02 874.288,1219.02 878.121,1220.98 881.954,1222.92 885.787,1224.82 889.62,1226.7 893.453,1228.55 
  897.286,1230.37 901.119,1232.17 904.952,1233.94 908.785,1235.68 912.618,1237.4 916.451,1239.09 920.284,1240.76 924.117,1242.4 927.95,1244.02 931.783,1245.62 
  935.616,1247.2 939.449,1248.75 943.282,1250.28 947.115,1251.8 950.948,1253.29 954.781,1254.76 958.614,1256.21 962.447,1257.64 966.28,1259.05 970.113,1260.44 
  973.946,1261.81 977.779,1263.17 981.612,1264.51 985.445,1265.83 989.278,1267.13 993.111,1268.42 996.944,1269.69 1000.78,1270.94 1004.61,1272.18 1008.44,1273.4 
  1012.28,1274.6 1016.11,1275.79 1019.94,1276.97 1023.78,1278.13 1027.61,1279.28 1031.44,1280.41 1035.27,1281.53 1039.11,1282.64 1042.94,1283.73 1046.77,1284.81 
  1050.61,1285.87 1054.44,1286.92 1058.27,1287.96 1062.11,1288.99 1065.94,1290.01 1069.77,1291.01 1073.6,1292 1077.44,1292.99 1081.27,1293.95 1085.1,1294.91 
  1088.94,1295.86 1092.77,1296.8 1096.6,1297.72 1100.44,1298.64 1104.27,1299.54 1108.1,1300.44 1111.93,1301.32 1115.77,1302.2 1119.6,1303.06 1123.43,1303.92 
  1127.27,1304.76 1131.1,1305.6 1134.93,1306.43 1138.77,1307.25 1142.6,1308.06 1146.43,1308.86 1150.26,1309.65 1154.1,1310.43 1157.93,1311.21 1161.76,1311.98 
  1165.6,1312.74 1169.43,1313.49 1173.26,1314.23 1177.1,1314.97 1180.93,1315.7 1184.76,1316.42 1188.59,1317.13 1192.43,1317.84 1196.26,1318.54 1200.09,1319.23 
  1203.93,1319.91 1207.76,1320.59 1211.59,1321.26 1215.43,1321.93 1219.26,1322.58 1223.09,1323.24 1226.92,1323.88 1230.76,1324.52 1234.59,1325.15 1238.42,1325.78 
  1242.26,1326.4 1246.09,1327.01 1249.92,1327.62 1253.76,1328.22 1257.59,1328.82 1261.42,1329.41 1265.25,1330 1269.09,1330.58 1272.92,1331.15 1276.75,1331.72 
  1280.59,1332.28 1284.42,1332.84 1288.25,1333.39 1292.09,1333.94 1295.92,1334.49 1299.75,1335.02 1303.58,1335.56 1307.42,1336.09 1311.25,1336.61 1315.08,1337.13 
  1318.92,1337.64 1322.75,1338.15 1326.58,1338.66 1330.42,1339.16 1334.25,1339.65 1338.08,1340.14 1341.91,1340.63 1345.75,1341.11 1349.58,1341.59 1353.41,1342.07 
  1357.25,1342.54 1361.08,1343 1364.91,1343.47 1368.75,1343.92 1372.58,1344.38 1376.41,1344.83 1380.24,1345.28 1384.08,1345.72 1387.91,1346.16 1391.74,1346.59 
  1395.58,1347.02 1399.41,1347.45 1403.24,1347.88 1407.08,1348.3 1410.91,1348.72 1414.74,1349.13 1418.57,1349.54 1422.41,1349.95 1426.24,1350.35 1430.07,1350.75 
  1433.91,1351.15 1437.74,1351.54 1441.57,1351.93 1445.41,1352.32 1449.24,1352.71 1453.07,1353.09 1456.91,1353.47 1460.74,1353.84 1464.57,1354.21 1468.4,1354.58 
  1472.24,1354.95 1476.07,1355.31 1479.9,1355.68 1483.74,1356.03 1487.57,1356.39 1491.4,1356.74 1495.24,1357.09 1499.07,1357.44 1502.9,1357.78 1506.73,1358.12 
  1510.57,1358.46 1514.4,1358.8 1518.23,1359.13 1522.07,1359.47 1525.9,1359.8 1529.73,1360.12 1533.57,1360.45 1537.4,1360.77 1541.23,1361.09 1545.06,1361.4 
  1548.9,1361.72 1552.73,1362.03 1556.56,1362.34 1560.4,1362.65 1564.23,1362.95 1568.06,1363.26 1571.9,1363.56 1575.73,1363.86 1579.56,1364.15 1583.39,1364.45 
  1587.23,1364.74 1591.06,1365.03 1594.89,1365.32 1598.73,1365.6 1602.56,1365.89 1606.39,1366.17 1610.23,1366.45 1614.06,1366.73 1617.89,1367 1621.72,1367.28 
  1625.56,1367.55 1629.39,1367.82 1633.22,1368.09 1637.06,1368.36 1640.89,1368.62 1644.72,1368.88 1648.56,1369.14 1652.39,1369.4 1656.22,1369.66 1660.05,1369.92 
  1663.89,1370.17 1667.72,1370.42 1671.55,1370.67 1675.39,1370.92 1679.22,1371.17 1683.05,1371.42 1686.89,1371.66 1690.72,1371.9 1694.55,1372.14 1698.38,1372.38 
  1702.22,1372.62 1706.05,1372.85 1709.88,1373.09 1713.72,1373.32 1717.55,1373.55 1721.38,1373.78 1725.22,1374.01 1729.05,1374.24 1732.88,1374.46 1736.71,1374.69 
  1740.55,1374.91 1744.38,1375.13 1748.21,1375.35 1752.05,1375.57 1755.88,1375.78 1759.71,1376 1763.55,1376.21 1767.38,1376.43 1771.21,1376.64 1775.04,1376.85 
  1778.88,1377.06 1782.71,1377.26 1786.54,1377.47 1790.38,1377.67 1794.21,1377.88 1798.04,1378.08 1801.88,1378.28 1805.71,1378.48 1809.54,1378.68 1813.37,1378.88 
  1817.21,1379.07 1821.04,1379.27 1824.87,1379.46 1828.71,1379.65 1832.54,1379.84 1836.37,1380.03 1840.21,1380.22 1844.04,1380.41 1847.87,1380.6 1851.7,1380.78 
  1855.54,1380.97 1859.37,1381.15 1863.2,1381.33 1867.04,1381.51 1870.87,1381.69 1874.7,1381.87 1878.54,1382.05 1882.37,1382.23 1886.2,1382.4 1890.04,1382.58 
  1893.87,1382.75 1897.7,1382.93 1901.53,1383.1 1905.37,1383.27 1909.2,1383.44 1913.03,1383.61 1916.87,1383.77 1920.7,1383.94 1924.53,1384.11 1928.37,1384.27 
  1932.2,1384.44 1936.03,1384.6 1939.86,1384.76 1943.7,1384.92 1947.53,1385.08 1951.36,1385.24 1955.2,1385.4 1959.03,1385.56 1962.86,1385.71 1966.7,1385.87 
  1970.53,1386.02 1974.36,1386.18 1978.19,1386.33 1982.03,1386.48 1985.86,1386.64 1989.69,1386.79 1993.53,1386.94 1997.36,1387.09 2001.19,1387.23 2005.03,1387.38 
  2008.86,1387.53 2012.69,1387.67 2016.52,1387.82 2020.36,1387.96 2024.19,1388.11 2028.02,1388.25 2031.86,1388.39 2035.69,1388.53 2039.52,1388.67 2043.36,1388.81 
  2047.19,1388.95 2051.02,1389.09 2054.85,1389.23 2058.69,1389.36 2062.52,1389.5 2066.35,1389.63 2070.19,1389.77 2074.02,1389.9 2077.85,1390.03 2081.69,1390.17 
  2085.52,1390.3 2089.35,1390.43 2093.18,1390.56 2097.02,1390.69 2100.85,1390.82 2104.68,1390.95 2108.52,1391.07 2112.35,1391.2 2116.18,1391.33 2120.02,1391.45 
  2123.85,1391.58 2127.68,1391.7 2131.51,1391.83 2135.35,1391.95 2139.18,1392.07 2143.01,1392.19 2146.85,1392.31 2150.68,1392.43 2154.51,1392.55 2158.35,1392.67 
  2162.18,1392.79 2166.01,1392.91 2169.84,1393.03 2173.68,1393.15 2177.51,1393.26 2181.34,1393.38 2185.18,1393.49 2189.01,1393.61 2192.84,1393.72 2196.68,1393.84 
  2200.51,1393.95 2204.34,1394.06 2208.17,1394.17 2212.01,1394.28 2215.84,1394.39 2219.67,1394.5 2223.51,1394.61 2227.34,1394.72 2231.17,1394.83 2235.01,1394.94 
  2238.84,1395.05 2242.67,1395.16 2246.5,1395.26 2250.34,1395.37 2254.17,1395.47 2258,1395.58 2261.84,1395.68 2265.67,1395.79 2269.5,1395.89 2273.34,1395.99 
  2277.17,1396.1 2281,1396.2 2284.83,1396.3 2288.67,1396.4 2292.5,1396.5 
  "/>
<polyline clip-path="url(#clip652)" style="stroke:#ffff00; stroke-linecap:round; stroke-linejoin:round; stroke-width:4; stroke-opacity:1; fill:none" points="
  284.004,1393.9 2292.5,1393.9 
  "/>
<polyline clip-path="url(#clip652)" style="stroke:#ffa500; stroke-linecap:round; stroke-linejoin:round; stroke-width:4; stroke-opacity:1; fill:none" points="
  284.004,1318.07 2292.5,1318.07 
  "/>
<polyline clip-path="url(#clip652)" style="stroke:#ff0000; stroke-linecap:round; stroke-linejoin:round; stroke-width:4; stroke-opacity:1; fill:none" points="
  284.004,673.497 2292.5,673.497 
  "/>
<circle clip-path="url(#clip652)" cx="519.681" cy="673.497" r="14.4" fill="#ff0000" fill-rule="evenodd" fill-opacity="1" stroke="#ffffff" stroke-opacity="1" stroke-width="3.2"/>
<circle clip-path="url(#clip652)" cx="1193.71" cy="1318.07" r="14.4" fill="#ffa500" fill-rule="evenodd" fill-opacity="1" stroke="#ffffff" stroke-opacity="1" stroke-width="3.2"/>
<circle clip-path="url(#clip652)" cx="2198.99" cy="1393.9" r="14.4" fill="#ffff00" fill-rule="evenodd" fill-opacity="1" stroke="#ffffff" stroke-opacity="1" stroke-width="3.2"/>
<path clip-path="url(#clip650)" d="
M1918.96 374.444 L2281.79 374.444 L2281.79 167.084 L1918.96 167.084  Z
  " fill="#a9a9a9" fill-rule="evenodd" fill-opacity="1"/>
<polyline clip-path="url(#clip650)" style="stroke:#ffffff; stroke-linecap:round; stroke-linejoin:round; stroke-width:4; stroke-opacity:1; fill:none" points="
  1918.96,374.444 2281.79,374.444 2281.79,167.084 1918.96,167.084 1918.96,374.444 
  "/>
<polyline clip-path="url(#clip650)" style="stroke:#ffff00; stroke-linecap:round; stroke-linejoin:round; stroke-width:4; stroke-opacity:1; fill:none" points="
  1942.61,218.924 2084.55,218.924 
  "/>
<path clip-path="url(#clip650)" d="M2108.2 201.644 L2130.06 201.644 L2130.06 205.579 L2112.88 205.579 L2112.88 215.81 L2129.34 215.81 L2129.34 219.745 L2112.88 219.745 L2112.88 232.269 L2130.47 232.269 L2130.47 236.204 L2108.2 236.204 L2108.2 201.644 Z" fill="#ffffff" fill-rule="evenodd" fill-opacity="1" /><path clip-path="url(#clip650)" d="M2154.55 220 Q2156.05 220.509 2157.46 222.176 Q2158.9 223.843 2160.33 226.759 L2165.08 236.204 L2160.06 236.204 L2155.63 227.338 Q2153.92 223.866 2152.3 222.732 Q2150.7 221.597 2147.93 221.597 L2142.83 221.597 L2142.83 236.204 L2138.16 236.204 L2138.16 201.644 L2148.71 201.644 Q2154.64 201.644 2157.56 204.121 Q2160.47 206.597 2160.47 211.597 Q2160.47 214.861 2158.94 217.014 Q2157.44 219.167 2154.55 220 M2142.83 205.486 L2142.83 217.755 L2148.71 217.755 Q2152.09 217.755 2153.81 216.204 Q2155.54 214.63 2155.54 211.597 Q2155.54 208.565 2153.81 207.037 Q2152.09 205.486 2148.71 205.486 L2142.83 205.486 Z" fill="#ffffff" fill-rule="evenodd" fill-opacity="1" /><path clip-path="url(#clip650)" d="M2175.77 205.486 L2175.77 218.472 L2181.65 218.472 Q2184.92 218.472 2186.7 216.783 Q2188.48 215.093 2188.48 211.968 Q2188.48 208.866 2186.7 207.176 Q2184.92 205.486 2181.65 205.486 L2175.77 205.486 M2171.1 201.644 L2181.65 201.644 Q2187.46 201.644 2190.43 204.283 Q2193.41 206.898 2193.41 211.968 Q2193.41 217.083 2190.43 219.699 Q2187.46 222.315 2181.65 222.315 L2175.77 222.315 L2175.77 236.204 L2171.1 236.204 L2171.1 201.644 Z" fill="#ffffff" fill-rule="evenodd" fill-opacity="1" /><path clip-path="url(#clip650)" d="M2223.25 231.273 L2223.25 221.991 L2215.61 221.991 L2215.61 218.148 L2227.88 218.148 L2227.88 232.986 Q2225.17 234.907 2221.91 235.903 Q2218.64 236.875 2214.94 236.875 Q2206.84 236.875 2202.25 232.153 Q2197.69 227.407 2197.69 218.958 Q2197.69 210.486 2202.25 205.764 Q2206.84 201.019 2214.94 201.019 Q2218.32 201.019 2221.35 201.852 Q2224.41 202.685 2226.98 204.306 L2226.98 209.283 Q2224.38 207.084 2221.47 205.972 Q2218.55 204.861 2215.33 204.861 Q2208.99 204.861 2205.8 208.403 Q2202.62 211.945 2202.62 218.958 Q2202.62 225.949 2205.8 229.491 Q2208.99 233.032 2215.33 233.032 Q2217.81 233.032 2219.75 232.616 Q2221.7 232.176 2223.25 231.273 Z" fill="#ffffff" fill-rule="evenodd" fill-opacity="1" /><path clip-path="url(#clip650)" d="M2237.65 232.269 L2245.29 232.269 L2245.29 205.903 L2236.98 207.57 L2236.98 203.31 L2245.24 201.644 L2249.92 201.644 L2249.92 232.269 L2257.55 232.269 L2257.55 236.204 L2237.65 236.204 L2237.65 232.269 Z" fill="#ffffff" fill-rule="evenodd" fill-opacity="1" /><polyline clip-path="url(#clip650)" style="stroke:#ffa500; stroke-linecap:round; stroke-linejoin:round; stroke-width:4; stroke-opacity:1; fill:none" points="
  1942.61,270.764 2084.55,270.764 
  "/>
<path clip-path="url(#clip650)" d="M2108.2 253.484 L2130.06 253.484 L2130.06 257.419 L2112.88 257.419 L2112.88 267.65 L2129.34 267.65 L2129.34 271.585 L2112.88 271.585 L2112.88 284.109 L2130.47 284.109 L2130.47 288.044 L2108.2 288.044 L2108.2 253.484 Z" fill="#ffffff" fill-rule="evenodd" fill-opacity="1" /><path clip-path="url(#clip650)" d="M2154.55 271.84 Q2156.05 272.349 2157.46 274.016 Q2158.9 275.683 2160.33 278.599 L2165.08 288.044 L2160.06 288.044 L2155.63 279.178 Q2153.92 275.706 2152.3 274.572 Q2150.7 273.437 2147.93 273.437 L2142.83 273.437 L2142.83 288.044 L2138.16 288.044 L2138.16 253.484 L2148.71 253.484 Q2154.64 253.484 2157.56 255.961 Q2160.47 258.437 2160.47 263.437 Q2160.47 266.701 2158.94 268.854 Q2157.44 271.007 2154.55 271.84 M2142.83 257.326 L2142.83 269.595 L2148.71 269.595 Q2152.09 269.595 2153.81 268.044 Q2155.54 266.47 2155.54 263.437 Q2155.54 260.405 2153.81 258.877 Q2152.09 257.326 2148.71 257.326 L2142.83 257.326 Z" fill="#ffffff" fill-rule="evenodd" fill-opacity="1" /><path clip-path="url(#clip650)" d="M2175.77 257.326 L2175.77 270.312 L2181.65 270.312 Q2184.92 270.312 2186.7 268.623 Q2188.48 266.933 2188.48 263.808 Q2188.48 260.706 2186.7 259.016 Q2184.92 257.326 2181.65 257.326 L2175.77 257.326 M2171.1 253.484 L2181.65 253.484 Q2187.46 253.484 2190.43 256.123 Q2193.41 258.738 2193.41 263.808 Q2193.41 268.923 2190.43 271.539 Q2187.46 274.155 2181.65 274.155 L2175.77 274.155 L2175.77 288.044 L2171.1 288.044 L2171.1 253.484 Z" fill="#ffffff" fill-rule="evenodd" fill-opacity="1" /><path clip-path="url(#clip650)" d="M2223.25 283.113 L2223.25 273.831 L2215.61 273.831 L2215.61 269.988 L2227.88 269.988 L2227.88 284.826 Q2225.17 286.747 2221.91 287.743 Q2218.64 288.715 2214.94 288.715 Q2206.84 288.715 2202.25 283.993 Q2197.69 279.247 2197.69 270.798 Q2197.69 262.326 2202.25 257.604 Q2206.84 252.859 2214.94 252.859 Q2218.32 252.859 2221.35 253.692 Q2224.41 254.525 2226.98 256.146 L2226.98 261.123 Q2224.38 258.924 2221.47 257.812 Q2218.55 256.701 2215.33 256.701 Q2208.99 256.701 2205.8 260.243 Q2202.62 263.785 2202.62 270.798 Q2202.62 277.789 2205.8 281.331 Q2208.99 284.872 2215.33 284.872 Q2217.81 284.872 2219.75 284.456 Q2221.7 284.016 2223.25 283.113 Z" fill="#ffffff" fill-rule="evenodd" fill-opacity="1" /><path clip-path="url(#clip650)" d="M2240.86 284.109 L2257.18 284.109 L2257.18 288.044 L2235.24 288.044 L2235.24 284.109 Q2237.9 281.354 2242.49 276.724 Q2247.09 272.072 2248.27 270.729 Q2250.52 268.206 2251.4 266.47 Q2252.3 264.711 2252.3 263.021 Q2252.3 260.266 2250.36 258.53 Q2248.43 256.794 2245.33 256.794 Q2243.13 256.794 2240.68 257.558 Q2238.25 258.322 2235.47 259.873 L2235.47 255.15 Q2238.3 254.016 2240.75 253.437 Q2243.2 252.859 2245.24 252.859 Q2250.61 252.859 2253.8 255.544 Q2257 258.229 2257 262.72 Q2257 264.849 2256.19 266.771 Q2255.4 268.669 2253.3 271.261 Q2252.72 271.933 2249.61 275.15 Q2246.51 278.345 2240.86 284.109 Z" fill="#ffffff" fill-rule="evenodd" fill-opacity="1" /><polyline clip-path="url(#clip650)" style="stroke:#ff0000; stroke-linecap:round; stroke-linejoin:round; stroke-width:4; stroke-opacity:1; fill:none" points="
  1942.61,322.604 2084.55,322.604 
  "/>
<path clip-path="url(#clip650)" d="M2108.2 305.324 L2130.06 305.324 L2130.06 309.259 L2112.88 309.259 L2112.88 319.49 L2129.34 319.49 L2129.34 323.425 L2112.88 323.425 L2112.88 335.949 L2130.47 335.949 L2130.47 339.884 L2108.2 339.884 L2108.2 305.324 Z" fill="#ffffff" fill-rule="evenodd" fill-opacity="1" /><path clip-path="url(#clip650)" d="M2154.55 323.68 Q2156.05 324.189 2157.46 325.856 Q2158.9 327.523 2160.33 330.439 L2165.08 339.884 L2160.06 339.884 L2155.63 331.018 Q2153.92 327.546 2152.3 326.412 Q2150.7 325.277 2147.93 325.277 L2142.83 325.277 L2142.83 339.884 L2138.16 339.884 L2138.16 305.324 L2148.71 305.324 Q2154.64 305.324 2157.56 307.801 Q2160.47 310.277 2160.47 315.277 Q2160.47 318.541 2158.94 320.694 Q2157.44 322.847 2154.55 323.68 M2142.83 309.166 L2142.83 321.435 L2148.71 321.435 Q2152.09 321.435 2153.81 319.884 Q2155.54 318.31 2155.54 315.277 Q2155.54 312.245 2153.81 310.717 Q2152.09 309.166 2148.71 309.166 L2142.83 309.166 Z" fill="#ffffff" fill-rule="evenodd" fill-opacity="1" /><path clip-path="url(#clip650)" d="M2175.77 309.166 L2175.77 322.152 L2181.65 322.152 Q2184.92 322.152 2186.7 320.463 Q2188.48 318.773 2188.48 315.648 Q2188.48 312.546 2186.7 310.856 Q2184.92 309.166 2181.65 309.166 L2175.77 309.166 M2171.1 305.324 L2181.65 305.324 Q2187.46 305.324 2190.43 307.963 Q2193.41 310.578 2193.41 315.648 Q2193.41 320.763 2190.43 323.379 Q2187.46 325.995 2181.65 325.995 L2175.77 325.995 L2175.77 339.884 L2171.1 339.884 L2171.1 305.324 Z" fill="#ffffff" fill-rule="evenodd" fill-opacity="1" /><path clip-path="url(#clip650)" d="M2223.25 334.953 L2223.25 325.671 L2215.61 325.671 L2215.61 321.828 L2227.88 321.828 L2227.88 336.666 Q2225.17 338.587 2221.91 339.583 Q2218.64 340.555 2214.94 340.555 Q2206.84 340.555 2202.25 335.833 Q2197.69 331.087 2197.69 322.638 Q2197.69 314.166 2202.25 309.444 Q2206.84 304.699 2214.94 304.699 Q2218.32 304.699 2221.35 305.532 Q2224.41 306.365 2226.98 307.986 L2226.98 312.963 Q2224.38 310.764 2221.47 309.652 Q2218.55 308.541 2215.33 308.541 Q2208.99 308.541 2205.8 312.083 Q2202.62 315.625 2202.62 322.638 Q2202.62 329.629 2205.8 333.171 Q2208.99 336.712 2215.33 336.712 Q2217.81 336.712 2219.75 336.296 Q2221.7 335.856 2223.25 334.953 Z" fill="#ffffff" fill-rule="evenodd" fill-opacity="1" /><path clip-path="url(#clip650)" d="M2251 321.25 Q2254.36 321.967 2256.24 324.236 Q2258.13 326.504 2258.13 329.837 Q2258.13 334.953 2254.61 337.754 Q2251.1 340.555 2244.61 340.555 Q2242.44 340.555 2240.12 340.115 Q2237.83 339.699 2235.38 338.842 L2235.38 334.328 Q2237.32 335.462 2239.64 336.041 Q2241.95 336.62 2244.48 336.62 Q2248.87 336.62 2251.17 334.884 Q2253.48 333.148 2253.48 329.837 Q2253.48 326.782 2251.33 325.069 Q2249.2 323.333 2245.38 323.333 L2241.35 323.333 L2241.35 319.49 L2245.56 319.49 Q2249.01 319.49 2250.84 318.125 Q2252.67 316.736 2252.67 314.143 Q2252.67 311.481 2250.77 310.069 Q2248.9 308.634 2245.38 308.634 Q2243.46 308.634 2241.26 309.051 Q2239.06 309.467 2236.42 310.347 L2236.42 306.18 Q2239.08 305.439 2241.4 305.069 Q2243.74 304.699 2245.8 304.699 Q2251.12 304.699 2254.22 307.129 Q2257.32 309.537 2257.32 313.657 Q2257.32 316.527 2255.68 318.518 Q2254.04 320.486 2251 321.25 Z" fill="#ffffff" fill-rule="evenodd" fill-opacity="1" /></svg>
