<?xml version="1.0" encoding="utf-8"?>
<svg xmlns="http://www.w3.org/2000/svg" xmlns:xlink="http://www.w3.org/1999/xlink" width="600" height="350" viewBox="0 0 2400 1400">
<defs>
  <clipPath id="clip290">
    <rect x="0" y="0" width="2400" height="1400"/>
  </clipPath>
</defs>
<path clip-path="url(#clip290)" d="
M0 1400 L2400 1400 L2400 0 L0 0  Z
  " fill="#a9a9a9" fill-rule="evenodd" fill-opacity="1"/>
<defs>
  <clipPath id="clip291">
    <rect x="480" y="0" width="1681" height="1400"/>
  </clipPath>
</defs>
<path clip-path="url(#clip290)" d="
M160.649 1243 L2352.76 1243 L2352.76 115.912 L160.649 115.912  Z
  " fill="#a9a9a9" fill-rule="evenodd" fill-opacity="1"/>
<defs>
  <clipPath id="clip292">
    <rect x="160" y="115" width="2193" height="1128"/>
  </clipPath>
</defs>
<polyline clip-path="url(#clip292)" style="stroke:#ffffff; stroke-linecap:round; stroke-linejoin:round; stroke-width:2; stroke-opacity:0.1; fill:none" points="
  222.69,1243 222.69,115.912 
  "/>
<polyline clip-path="url(#clip292)" style="stroke:#ffffff; stroke-linecap:round; stroke-linejoin:round; stroke-width:2; stroke-opacity:0.1; fill:none" points="
  532.971,1243 532.971,115.912 
  "/>
<polyline clip-path="url(#clip292)" style="stroke:#ffffff; stroke-linecap:round; stroke-linejoin:round; stroke-width:2; stroke-opacity:0.1; fill:none" points="
  843.252,1243 843.252,115.912 
  "/>
<polyline clip-path="url(#clip292)" style="stroke:#ffffff; stroke-linecap:round; stroke-linejoin:round; stroke-width:2; stroke-opacity:0.1; fill:none" points="
  1153.53,1243 1153.53,115.912 
  "/>
<polyline clip-path="url(#clip292)" style="stroke:#ffffff; stroke-linecap:round; stroke-linejoin:round; stroke-width:2; stroke-opacity:0.1; fill:none" points="
  1463.82,1243 1463.82,115.912 
  "/>
<polyline clip-path="url(#clip292)" style="stroke:#ffffff; stroke-linecap:round; stroke-linejoin:round; stroke-width:2; stroke-opacity:0.1; fill:none" points="
  1774.1,1243 1774.1,115.912 
  "/>
<polyline clip-path="url(#clip292)" style="stroke:#ffffff; stroke-linecap:round; stroke-linejoin:round; stroke-width:2; stroke-opacity:0.1; fill:none" points="
  2084.38,1243 2084.38,115.912 
  "/>
<polyline clip-path="url(#clip290)" style="stroke:#ffffff; stroke-linecap:round; stroke-linejoin:round; stroke-width:4; stroke-opacity:1; fill:none" points="
  160.649,1243 2352.76,1243 
  "/>
<polyline clip-path="url(#clip290)" style="stroke:#ffffff; stroke-linecap:round; stroke-linejoin:round; stroke-width:4; stroke-opacity:1; fill:none" points="
  222.69,1243 222.69,1224.1 
  "/>
<polyline clip-path="url(#clip290)" style="stroke:#ffffff; stroke-linecap:round; stroke-linejoin:round; stroke-width:4; stroke-opacity:1; fill:none" points="
  532.971,1243 532.971,1224.1 
  "/>
<polyline clip-path="url(#clip290)" style="stroke:#ffffff; stroke-linecap:round; stroke-linejoin:round; stroke-width:4; stroke-opacity:1; fill:none" points="
  843.252,1243 843.252,1224.1 
  "/>
<polyline clip-path="url(#clip290)" style="stroke:#ffffff; stroke-linecap:round; stroke-linejoin:round; stroke-width:4; stroke-opacity:1; fill:none" points="
  1153.53,1243 1153.53,1224.1 
  "/>
<polyline clip-path="url(#clip290)" style="stroke:#ffffff; stroke-linecap:round; stroke-linejoin:round; stroke-width:4; stroke-opacity:1; fill:none" points="
  1463.82,1243 1463.82,1224.1 
  "/>
<polyline clip-path="url(#clip290)" style="stroke:#ffffff; stroke-linecap:round; stroke-linejoin:round; stroke-width:4; stroke-opacity:1; fill:none" points="
  1774.1,1243 1774.1,1224.1 
  "/>
<polyline clip-path="url(#clip290)" style="stroke:#ffffff; stroke-linecap:round; stroke-linejoin:round; stroke-width:4; stroke-opacity:1; fill:none" points="
  2084.38,1243 2084.38,1224.1 
  "/>
<path clip-path="url(#clip290)" d="M222.69 1273.92 Q219.079 1273.92 217.25 1277.48 Q215.444 1281.02 215.444 1288.15 Q215.444 1295.26 217.25 1298.83 Q219.079 1302.37 222.69 1302.37 Q226.324 1302.37 228.129 1298.83 Q229.958 1295.26 229.958 1288.15 Q229.958 1281.02 228.129 1277.48 Q226.324 1273.92 222.69 1273.92 M222.69 1270.21 Q228.5 1270.21 231.555 1274.82 Q234.634 1279.4 234.634 1288.15 Q234.634 1296.88 231.555 1301.49 Q228.5 1306.07 222.69 1306.07 Q216.88 1306.07 213.801 1301.49 Q210.745 1296.88 210.745 1288.15 Q210.745 1279.4 213.801 1274.82 Q216.88 1270.21 222.69 1270.21 Z" fill="#ffffff" fill-rule="evenodd" fill-opacity="1" /><path clip-path="url(#clip290)" d="M511.744 1301.46 L528.064 1301.46 L528.064 1305.4 L506.119 1305.4 L506.119 1301.46 Q508.781 1298.71 513.365 1294.08 Q517.971 1289.43 519.152 1288.09 Q521.397 1285.56 522.277 1283.83 Q523.179 1282.07 523.179 1280.38 Q523.179 1277.62 521.235 1275.89 Q519.314 1274.15 516.212 1274.15 Q514.013 1274.15 511.559 1274.91 Q509.129 1275.68 506.351 1277.23 L506.351 1272.51 Q509.175 1271.37 511.629 1270.79 Q514.082 1270.21 516.119 1270.21 Q521.49 1270.21 524.684 1272.9 Q527.879 1275.59 527.879 1280.08 Q527.879 1282.21 527.068 1284.13 Q526.281 1286.02 524.175 1288.62 Q523.596 1289.29 520.494 1292.51 Q517.392 1295.7 511.744 1301.46 Z" fill="#ffffff" fill-rule="evenodd" fill-opacity="1" /><path clip-path="url(#clip290)" d="M547.878 1273.92 Q544.267 1273.92 542.439 1277.48 Q540.633 1281.02 540.633 1288.15 Q540.633 1295.26 542.439 1298.83 Q544.267 1302.37 547.878 1302.37 Q551.513 1302.37 553.318 1298.83 Q555.147 1295.26 555.147 1288.15 Q555.147 1281.02 553.318 1277.48 Q551.513 1273.92 547.878 1273.92 M547.878 1270.21 Q553.689 1270.21 556.744 1274.82 Q559.823 1279.4 559.823 1288.15 Q559.823 1296.88 556.744 1301.49 Q553.689 1306.07 547.878 1306.07 Q542.068 1306.07 538.99 1301.49 Q535.934 1296.88 535.934 1288.15 Q535.934 1279.4 538.99 1274.82 Q542.068 1270.21 547.878 1270.21 Z" fill="#ffffff" fill-rule="evenodd" fill-opacity="1" /><path clip-path="url(#clip290)" d="M831.424 1274.91 L819.618 1293.36 L831.424 1293.36 L831.424 1274.91 M830.197 1270.84 L836.077 1270.84 L836.077 1293.36 L841.007 1293.36 L841.007 1297.25 L836.077 1297.25 L836.077 1305.4 L831.424 1305.4 L831.424 1297.25 L815.822 1297.25 L815.822 1292.74 L830.197 1270.84 Z" fill="#ffffff" fill-rule="evenodd" fill-opacity="1" /><path clip-path="url(#clip290)" d="M858.738 1273.92 Q855.127 1273.92 853.299 1277.48 Q851.493 1281.02 851.493 1288.15 Q851.493 1295.26 853.299 1298.83 Q855.127 1302.37 858.738 1302.37 Q862.373 1302.37 864.178 1298.83 Q866.007 1295.26 866.007 1288.15 Q866.007 1281.02 864.178 1277.48 Q862.373 1273.92 858.738 1273.92 M858.738 1270.21 Q864.549 1270.21 867.604 1274.82 Q870.683 1279.4 870.683 1288.15 Q870.683 1296.88 867.604 1301.49 Q864.549 1306.07 858.738 1306.07 Q852.928 1306.07 849.85 1301.49 Q846.794 1296.88 846.794 1288.15 Q846.794 1279.4 849.85 1274.82 Q852.928 1270.21 858.738 1270.21 Z" fill="#ffffff" fill-rule="evenodd" fill-opacity="1" /><path clip-path="url(#clip290)" d="M1138.94 1286.26 Q1135.79 1286.26 1133.94 1288.41 Q1132.11 1290.56 1132.11 1294.31 Q1132.11 1298.04 1133.94 1300.21 Q1135.79 1302.37 1138.94 1302.37 Q1142.09 1302.37 1143.92 1300.21 Q1145.77 1298.04 1145.77 1294.31 Q1145.77 1290.56 1143.92 1288.41 Q1142.09 1286.26 1138.94 1286.26 M1148.22 1271.6 L1148.22 1275.86 Q1146.46 1275.03 1144.66 1274.59 Q1142.87 1274.15 1141.11 1274.15 Q1136.49 1274.15 1134.03 1277.27 Q1131.6 1280.4 1131.25 1286.72 Q1132.62 1284.71 1134.68 1283.64 Q1136.74 1282.55 1139.22 1282.55 Q1144.43 1282.55 1147.43 1285.72 Q1150.47 1288.87 1150.47 1294.31 Q1150.47 1299.64 1147.32 1302.85 Q1144.17 1306.07 1138.94 1306.07 Q1132.94 1306.07 1129.77 1301.49 Q1126.6 1296.88 1126.6 1288.15 Q1126.6 1279.96 1130.49 1275.1 Q1134.38 1270.21 1140.93 1270.21 Q1142.69 1270.21 1144.47 1270.56 Q1146.28 1270.91 1148.22 1271.6 Z" fill="#ffffff" fill-rule="evenodd" fill-opacity="1" /><path clip-path="url(#clip290)" d="M1168.52 1273.92 Q1164.91 1273.92 1163.08 1277.48 Q1161.28 1281.02 1161.28 1288.15 Q1161.28 1295.26 1163.08 1298.83 Q1164.91 1302.37 1168.52 1302.37 Q1172.16 1302.37 1173.96 1298.83 Q1175.79 1295.26 1175.79 1288.15 Q1175.79 1281.02 1173.96 1277.48 Q1172.16 1273.92 1168.52 1273.92 M1168.52 1270.21 Q1174.33 1270.21 1177.39 1274.82 Q1180.47 1279.4 1180.47 1288.15 Q1180.47 1296.88 1177.39 1301.49 Q1174.33 1306.07 1168.52 1306.07 Q1162.71 1306.07 1159.63 1301.49 Q1156.58 1296.88 1156.58 1288.15 Q1156.58 1279.4 1159.63 1274.82 Q1162.71 1270.21 1168.52 1270.21 Z" fill="#ffffff" fill-rule="evenodd" fill-opacity="1" /><path clip-path="url(#clip290)" d="M1448.69 1288.99 Q1445.35 1288.99 1443.43 1290.77 Q1441.54 1292.55 1441.54 1295.68 Q1441.54 1298.8 1443.43 1300.59 Q1445.35 1302.37 1448.69 1302.37 Q1452.02 1302.37 1453.94 1300.59 Q1455.86 1298.78 1455.86 1295.68 Q1455.86 1292.55 1453.94 1290.77 Q1452.04 1288.99 1448.69 1288.99 M1444.01 1287 Q1441 1286.26 1439.31 1284.2 Q1437.65 1282.14 1437.65 1279.17 Q1437.65 1275.03 1440.59 1272.62 Q1443.55 1270.21 1448.69 1270.21 Q1453.85 1270.21 1456.79 1272.62 Q1459.73 1275.03 1459.73 1279.17 Q1459.73 1282.14 1458.04 1284.2 Q1456.37 1286.26 1453.39 1287 Q1456.77 1287.78 1458.64 1290.08 Q1460.54 1292.37 1460.54 1295.68 Q1460.54 1300.7 1457.46 1303.39 Q1454.41 1306.07 1448.69 1306.07 Q1442.97 1306.07 1439.89 1303.39 Q1436.84 1300.7 1436.84 1295.68 Q1436.84 1292.37 1438.73 1290.08 Q1440.63 1287.78 1444.01 1287 M1442.3 1279.61 Q1442.3 1282.3 1443.97 1283.8 Q1445.66 1285.31 1448.69 1285.31 Q1451.7 1285.31 1453.39 1283.8 Q1455.1 1282.3 1455.1 1279.61 Q1455.1 1276.93 1453.39 1275.42 Q1451.7 1273.92 1448.69 1273.92 Q1445.66 1273.92 1443.97 1275.42 Q1442.3 1276.93 1442.3 1279.61 Z" fill="#ffffff" fill-rule="evenodd" fill-opacity="1" /><path clip-path="url(#clip290)" d="M1478.85 1273.92 Q1475.24 1273.92 1473.41 1277.48 Q1471.6 1281.02 1471.6 1288.15 Q1471.6 1295.26 1473.41 1298.83 Q1475.24 1302.37 1478.85 1302.37 Q1482.48 1302.37 1484.29 1298.83 Q1486.12 1295.26 1486.12 1288.15 Q1486.12 1281.02 1484.29 1277.48 Q1482.48 1273.92 1478.85 1273.92 M1478.85 1270.21 Q1484.66 1270.21 1487.72 1274.82 Q1490.79 1279.4 1490.79 1288.15 Q1490.79 1296.88 1487.72 1301.49 Q1484.66 1306.07 1478.85 1306.07 Q1473.04 1306.07 1469.96 1301.49 Q1466.91 1296.88 1466.91 1288.15 Q1466.91 1279.4 1469.96 1274.82 Q1473.04 1270.21 1478.85 1270.21 Z" fill="#ffffff" fill-rule="evenodd" fill-opacity="1" /><path clip-path="url(#clip290)" d="M1733.7 1301.46 L1741.34 1301.46 L1741.34 1275.1 L1733.03 1276.77 L1733.03 1272.51 L1741.3 1270.84 L1745.97 1270.84 L1745.97 1301.46 L1753.61 1301.46 L1753.61 1305.4 L1733.7 1305.4 L1733.7 1301.46 Z" fill="#ffffff" fill-rule="evenodd" fill-opacity="1" /><path clip-path="url(#clip290)" d="M1773.05 1273.92 Q1769.44 1273.92 1767.62 1277.48 Q1765.81 1281.02 1765.81 1288.15 Q1765.81 1295.26 1767.62 1298.83 Q1769.44 1302.37 1773.05 1302.37 Q1776.69 1302.37 1778.49 1298.83 Q1780.32 1295.26 1780.32 1288.15 Q1780.32 1281.02 1778.49 1277.48 Q1776.69 1273.92 1773.05 1273.92 M1773.05 1270.21 Q1778.87 1270.21 1781.92 1274.82 Q1785 1279.4 1785 1288.15 Q1785 1296.88 1781.92 1301.49 Q1778.87 1306.07 1773.05 1306.07 Q1767.24 1306.07 1764.17 1301.49 Q1761.11 1296.88 1761.11 1288.15 Q1761.11 1279.4 1764.17 1274.82 Q1767.24 1270.21 1773.05 1270.21 Z" fill="#ffffff" fill-rule="evenodd" fill-opacity="1" /><path clip-path="url(#clip290)" d="M1803.22 1273.92 Q1799.61 1273.92 1797.78 1277.48 Q1795.97 1281.02 1795.97 1288.15 Q1795.97 1295.26 1797.78 1298.83 Q1799.61 1302.37 1803.22 1302.37 Q1806.85 1302.37 1808.66 1298.83 Q1810.49 1295.26 1810.49 1288.15 Q1810.49 1281.02 1808.66 1277.48 Q1806.85 1273.92 1803.22 1273.92 M1803.22 1270.21 Q1809.03 1270.21 1812.08 1274.82 Q1815.16 1279.4 1815.16 1288.15 Q1815.16 1296.88 1812.08 1301.49 Q1809.03 1306.07 1803.22 1306.07 Q1797.41 1306.07 1794.33 1301.49 Q1791.27 1296.88 1791.27 1288.15 Q1791.27 1279.4 1794.33 1274.82 Q1797.41 1270.21 1803.22 1270.21 Z" fill="#ffffff" fill-rule="evenodd" fill-opacity="1" /><path clip-path="url(#clip290)" d="M2043.98 1301.46 L2051.62 1301.46 L2051.62 1275.1 L2043.31 1276.77 L2043.31 1272.51 L2051.58 1270.84 L2056.25 1270.84 L2056.25 1301.46 L2063.89 1301.46 L2063.89 1305.4 L2043.98 1305.4 L2043.98 1301.46 Z" fill="#ffffff" fill-rule="evenodd" fill-opacity="1" /><path clip-path="url(#clip290)" d="M2077.36 1301.46 L2093.68 1301.46 L2093.68 1305.4 L2071.74 1305.4 L2071.74 1301.46 Q2074.4 1298.71 2078.98 1294.08 Q2083.59 1289.43 2084.77 1288.09 Q2087.02 1285.56 2087.9 1283.83 Q2088.8 1282.07 2088.8 1280.38 Q2088.8 1277.62 2086.85 1275.89 Q2084.93 1274.15 2081.83 1274.15 Q2079.63 1274.15 2077.18 1274.91 Q2074.75 1275.68 2071.97 1277.23 L2071.97 1272.51 Q2074.79 1271.37 2077.25 1270.79 Q2079.7 1270.21 2081.74 1270.21 Q2087.11 1270.21 2090.3 1272.9 Q2093.5 1275.59 2093.5 1280.08 Q2093.5 1282.21 2092.69 1284.13 Q2091.9 1286.02 2089.79 1288.62 Q2089.22 1289.29 2086.11 1292.51 Q2083.01 1295.7 2077.36 1301.46 Z" fill="#ffffff" fill-rule="evenodd" fill-opacity="1" /><path clip-path="url(#clip290)" d="M2113.5 1273.92 Q2109.89 1273.92 2108.06 1277.48 Q2106.25 1281.02 2106.25 1288.15 Q2106.25 1295.26 2108.06 1298.83 Q2109.89 1302.37 2113.5 1302.37 Q2117.13 1302.37 2118.94 1298.83 Q2120.77 1295.26 2120.77 1288.15 Q2120.77 1281.02 2118.94 1277.48 Q2117.13 1273.92 2113.5 1273.92 M2113.5 1270.21 Q2119.31 1270.21 2122.36 1274.82 Q2125.44 1279.4 2125.44 1288.15 Q2125.44 1296.88 2122.36 1301.49 Q2119.31 1306.07 2113.5 1306.07 Q2107.69 1306.07 2104.61 1301.49 Q2101.55 1296.88 2101.55 1288.15 Q2101.55 1279.4 2104.61 1274.82 Q2107.69 1270.21 2113.5 1270.21 Z" fill="#ffffff" fill-rule="evenodd" fill-opacity="1" /><path clip-path="url(#clip290)" d="M1161.82 1338.62 L1194.71 1338.62 L1194.71 1343.04 L1180.91 1343.04 L1180.91 1377.5 L1175.62 1377.5 L1175.62 1343.04 L1161.82 1343.04 L1161.82 1338.62 Z" fill="#ffffff" fill-rule="evenodd" fill-opacity="1" /><path clip-path="url(#clip290)" d="M1197.94 1348.33 L1202.73 1348.33 L1202.73 1377.5 L1197.94 1377.5 L1197.94 1348.33 M1197.94 1336.98 L1202.73 1336.98 L1202.73 1343.04 L1197.94 1343.04 L1197.94 1336.98 Z" fill="#ffffff" fill-rule="evenodd" fill-opacity="1" /><path clip-path="url(#clip290)" d="M1235.47 1353.93 Q1237.26 1350.7 1239.76 1349.16 Q1242.26 1347.63 1245.65 1347.63 Q1250.21 1347.63 1252.68 1350.83 Q1255.15 1354.01 1255.15 1359.89 L1255.15 1377.5 L1250.34 1377.5 L1250.34 1360.05 Q1250.34 1355.86 1248.85 1353.82 Q1247.37 1351.79 1244.32 1351.79 Q1240.6 1351.79 1238.43 1354.27 Q1236.27 1356.74 1236.27 1361.01 L1236.27 1377.5 L1231.46 1377.5 L1231.46 1360.05 Q1231.46 1355.83 1229.97 1353.82 Q1228.49 1351.79 1225.39 1351.79 Q1221.72 1351.79 1219.55 1354.29 Q1217.39 1356.77 1217.39 1361.01 L1217.39 1377.5 L1212.58 1377.5 L1212.58 1348.33 L1217.39 1348.33 L1217.39 1352.86 Q1219.03 1350.18 1221.32 1348.9 Q1223.62 1347.63 1226.77 1347.63 Q1229.94 1347.63 1232.16 1349.24 Q1234.4 1350.86 1235.47 1353.93 Z" fill="#ffffff" fill-rule="evenodd" fill-opacity="1" /><path clip-path="url(#clip290)" d="M1289.66 1361.71 L1289.66 1364.06 L1267.63 1364.06 Q1267.94 1369.01 1270.6 1371.61 Q1273.28 1374.19 1278.04 1374.19 Q1280.8 1374.19 1283.38 1373.51 Q1285.99 1372.83 1288.54 1371.48 L1288.54 1376.01 Q1285.96 1377.11 1283.25 1377.68 Q1280.54 1378.25 1277.76 1378.25 Q1270.78 1378.25 1266.69 1374.19 Q1262.63 1370.13 1262.63 1363.2 Q1262.63 1356.04 1266.48 1351.84 Q1270.36 1347.63 1276.92 1347.63 Q1282.81 1347.63 1286.22 1351.43 Q1289.66 1355.2 1289.66 1361.71 M1284.87 1360.31 Q1284.81 1356.38 1282.65 1354.03 Q1280.52 1351.69 1276.98 1351.69 Q1272.97 1351.69 1270.54 1353.95 Q1268.15 1356.22 1267.78 1360.33 L1284.87 1360.31 Z" fill="#ffffff" fill-rule="evenodd" fill-opacity="1" /><path clip-path="url(#clip290)" d="M1298.75 1370.88 L1304.24 1370.88 L1304.24 1375.36 L1299.97 1383.69 L1296.61 1383.69 L1298.75 1375.36 L1298.75 1370.88 Z" fill="#ffffff" fill-rule="evenodd" fill-opacity="1" /><path clip-path="url(#clip290)" d="M1350.02 1349.19 L1350.02 1353.72 Q1347.99 1352.68 1345.8 1352.16 Q1343.62 1351.64 1341.27 1351.64 Q1337.7 1351.64 1335.91 1352.73 Q1334.14 1353.82 1334.14 1356.01 Q1334.14 1357.68 1335.41 1358.64 Q1336.69 1359.58 1340.54 1360.44 L1342.18 1360.8 Q1347.29 1361.9 1349.42 1363.9 Q1351.58 1365.88 1351.58 1369.45 Q1351.58 1373.51 1348.36 1375.88 Q1345.15 1378.25 1339.53 1378.25 Q1337.18 1378.25 1334.63 1377.78 Q1332.11 1377.34 1329.29 1376.43 L1329.29 1371.48 Q1331.95 1372.86 1334.53 1373.56 Q1337.11 1374.24 1339.63 1374.24 Q1343.02 1374.24 1344.84 1373.09 Q1346.66 1371.92 1346.66 1369.81 Q1346.66 1367.86 1345.33 1366.82 Q1344.03 1365.78 1339.58 1364.81 L1337.91 1364.42 Q1333.46 1363.49 1331.48 1361.56 Q1329.5 1359.61 1329.5 1356.22 Q1329.5 1352.11 1332.42 1349.87 Q1335.33 1347.63 1340.7 1347.63 Q1343.36 1347.63 1345.7 1348.02 Q1348.04 1348.41 1350.02 1349.19 Z" fill="#ffffff" fill-rule="evenodd" fill-opacity="1" /><polyline clip-path="url(#clip292)" style="stroke:#ffffff; stroke-linecap:round; stroke-linejoin:round; stroke-width:2; stroke-opacity:0.1; fill:none" points="
  160.649,1211.1 2352.76,1211.1 
  "/>
<polyline clip-path="url(#clip292)" style="stroke:#ffffff; stroke-linecap:round; stroke-linejoin:round; stroke-width:2; stroke-opacity:0.1; fill:none" points="
  160.649,929.726 2352.76,929.726 
  "/>
<polyline clip-path="url(#clip292)" style="stroke:#ffffff; stroke-linecap:round; stroke-linejoin:round; stroke-width:2; stroke-opacity:0.1; fill:none" points="
  160.649,648.351 2352.76,648.351 
  "/>
<polyline clip-path="url(#clip292)" style="stroke:#ffffff; stroke-linecap:round; stroke-linejoin:round; stroke-width:2; stroke-opacity:0.1; fill:none" points="
  160.649,366.977 2352.76,366.977 
  "/>
<polyline clip-path="url(#clip290)" style="stroke:#ffffff; stroke-linecap:round; stroke-linejoin:round; stroke-width:4; stroke-opacity:1; fill:none" points="
  160.649,1243 160.649,115.912 
  "/>
<polyline clip-path="url(#clip290)" style="stroke:#ffffff; stroke-linecap:round; stroke-linejoin:round; stroke-width:4; stroke-opacity:1; fill:none" points="
  160.649,1211.1 179.547,1211.1 
  "/>
<polyline clip-path="url(#clip290)" style="stroke:#ffffff; stroke-linecap:round; stroke-linejoin:round; stroke-width:4; stroke-opacity:1; fill:none" points="
  160.649,929.726 179.547,929.726 
  "/>
<polyline clip-path="url(#clip290)" style="stroke:#ffffff; stroke-linecap:round; stroke-linejoin:round; stroke-width:4; stroke-opacity:1; fill:none" points="
  160.649,648.351 179.547,648.351 
  "/>
<polyline clip-path="url(#clip290)" style="stroke:#ffffff; stroke-linecap:round; stroke-linejoin:round; stroke-width:4; stroke-opacity:1; fill:none" points="
  160.649,366.977 179.547,366.977 
  "/>
<path clip-path="url(#clip290)" d="M112.705 1196.9 Q109.093 1196.9 107.265 1200.46 Q105.459 1204.01 105.459 1211.14 Q105.459 1218.24 107.265 1221.81 Q109.093 1225.35 112.705 1225.35 Q116.339 1225.35 118.144 1221.81 Q119.973 1218.24 119.973 1211.14 Q119.973 1204.01 118.144 1200.46 Q116.339 1196.9 112.705 1196.9 M112.705 1193.2 Q118.515 1193.2 121.57 1197.8 Q124.649 1202.39 124.649 1211.14 Q124.649 1219.86 121.57 1224.47 Q118.515 1229.05 112.705 1229.05 Q106.894 1229.05 103.816 1224.47 Q100.76 1219.86 100.76 1211.14 Q100.76 1202.39 103.816 1197.8 Q106.894 1193.2 112.705 1193.2 Z" fill="#ffffff" fill-rule="evenodd" fill-opacity="1" /><path clip-path="url(#clip290)" d="M104.742 943.071 L112.38 943.071 L112.38 916.706 L104.07 918.372 L104.07 914.113 L112.334 912.446 L117.01 912.446 L117.01 943.071 L124.649 943.071 L124.649 947.006 L104.742 947.006 L104.742 943.071 Z" fill="#ffffff" fill-rule="evenodd" fill-opacity="1" /><path clip-path="url(#clip290)" d="M108.33 661.696 L124.649 661.696 L124.649 665.631 L102.705 665.631 L102.705 661.696 Q105.367 658.942 109.95 654.312 Q114.556 649.659 115.737 648.317 Q117.982 645.794 118.862 644.058 Q119.765 642.298 119.765 640.608 Q119.765 637.854 117.82 636.118 Q115.899 634.382 112.797 634.382 Q110.598 634.382 108.144 635.146 Q105.714 635.909 102.936 637.46 L102.936 632.738 Q105.76 631.604 108.214 631.025 Q110.668 630.446 112.705 630.446 Q118.075 630.446 121.269 633.132 Q124.464 635.817 124.464 640.308 Q124.464 642.437 123.654 644.358 Q122.867 646.257 120.76 648.849 Q120.181 649.52 117.08 652.738 Q113.978 655.932 108.33 661.696 Z" fill="#ffffff" fill-rule="evenodd" fill-opacity="1" /><path clip-path="url(#clip290)" d="M117.519 365.623 Q120.876 366.34 122.751 368.609 Q124.649 370.877 124.649 374.21 Q124.649 379.326 121.13 382.127 Q117.612 384.928 111.13 384.928 Q108.955 384.928 106.64 384.488 Q104.348 384.071 101.894 383.215 L101.894 378.701 Q103.839 379.835 106.154 380.414 Q108.468 380.993 110.992 380.993 Q115.39 380.993 117.681 379.257 Q119.996 377.521 119.996 374.21 Q119.996 371.155 117.843 369.442 Q115.714 367.706 111.894 367.706 L107.867 367.706 L107.867 363.863 L112.08 363.863 Q115.529 363.863 117.357 362.498 Q119.186 361.109 119.186 358.516 Q119.186 355.854 117.288 354.442 Q115.413 353.007 111.894 353.007 Q109.973 353.007 107.774 353.423 Q105.575 353.84 102.936 354.72 L102.936 350.553 Q105.598 349.812 107.913 349.442 Q110.251 349.072 112.311 349.072 Q117.635 349.072 120.737 351.502 Q123.839 353.91 123.839 358.03 Q123.839 360.9 122.195 362.891 Q120.552 364.859 117.519 365.623 Z" fill="#ffffff" fill-rule="evenodd" fill-opacity="1" /><path clip-path="url(#clip290)" d="M17.2109 928.869 L22.7578 928.869 Q20.2838 931.525 19.0599 934.546 Q17.8359 937.541 17.8359 940.926 Q17.8359 947.593 21.9244 951.134 Q25.9869 954.676 33.6952 954.676 Q41.3775 954.676 45.466 951.134 Q49.5285 947.593 49.5285 940.926 Q49.5285 937.541 48.3045 934.546 Q47.0806 931.525 44.6066 928.869 L50.1014 928.869 Q51.9764 931.629 52.9139 934.728 Q53.8514 937.801 53.8514 941.238 Q53.8514 950.067 48.4608 955.145 Q43.0441 960.223 33.6952 960.223 Q24.3203 960.223 18.9297 955.145 Q13.513 950.067 13.513 941.238 Q13.513 937.749 14.4505 934.676 Q15.362 931.577 17.2109 928.869 Z" fill="#ffffff" fill-rule="evenodd" fill-opacity="1" /><path clip-path="url(#clip290)" d="M27.289 909.65 Q27.289 913.504 30.3098 915.744 Q33.3046 917.983 38.5389 917.983 Q43.7733 917.983 46.7941 915.77 Q49.7889 913.53 49.7889 909.65 Q49.7889 905.822 46.7681 903.582 Q43.7472 901.343 38.5389 901.343 Q33.3567 901.343 30.3359 903.582 Q27.289 905.822 27.289 909.65 M23.2265 909.65 Q23.2265 903.4 27.289 899.832 Q31.3515 896.265 38.5389 896.265 Q45.7004 896.265 49.7889 899.832 Q53.8514 903.4 53.8514 909.65 Q53.8514 915.926 49.7889 919.494 Q45.7004 923.035 38.5389 923.035 Q31.3515 923.035 27.289 919.494 Q23.2265 915.926 23.2265 909.65 Z" fill="#ffffff" fill-rule="evenodd" fill-opacity="1" /><path clip-path="url(#clip290)" d="M35.4921 864.077 L53.0962 864.077 L53.0962 868.869 L35.6483 868.869 Q31.5077 868.869 29.4505 870.484 Q27.3932 872.098 27.3932 875.327 Q27.3932 879.208 29.8671 881.447 Q32.3411 883.687 36.6119 883.687 L53.0962 883.687 L53.0962 888.504 L23.9296 888.504 L23.9296 883.687 L28.4609 883.687 Q25.8307 881.968 24.5286 879.65 Q23.2265 877.306 23.2265 874.26 Q23.2265 869.234 26.3515 866.656 Q29.4505 864.077 35.4921 864.077 Z" fill="#ffffff" fill-rule="evenodd" fill-opacity="1" /><path clip-path="url(#clip290)" d="M25.0494 833.531 L29.5286 833.531 Q28.4088 835.562 27.8619 837.619 Q27.289 839.65 27.289 841.734 Q27.289 846.395 30.2577 848.973 Q33.2004 851.551 38.5389 851.551 Q43.8775 851.551 46.8462 848.973 Q49.7889 846.395 49.7889 841.734 Q49.7889 839.65 49.242 837.619 Q48.6691 835.562 47.5493 833.531 L51.9764 833.531 Q52.9139 835.536 53.3826 837.697 Q53.8514 839.833 53.8514 842.255 Q53.8514 848.843 49.7108 852.723 Q45.5702 856.603 38.5389 856.603 Q31.4036 856.603 27.315 852.697 Q23.2265 848.765 23.2265 841.942 Q23.2265 839.729 23.6953 837.619 Q24.138 835.51 25.0494 833.531 Z" fill="#ffffff" fill-rule="evenodd" fill-opacity="1" /><path clip-path="url(#clip290)" d="M37.315 800.25 L39.6587 800.25 L39.6587 822.281 Q44.6066 821.968 47.2108 819.312 Q49.7889 816.63 49.7889 811.864 Q49.7889 809.104 49.1118 806.526 Q48.4347 803.921 47.0806 801.369 L51.6118 801.369 Q52.7055 803.948 53.2784 806.656 Q53.8514 809.364 53.8514 812.151 Q53.8514 819.13 49.7889 823.218 Q45.7264 827.281 38.7994 827.281 Q31.6379 827.281 27.4453 823.427 Q23.2265 819.546 23.2265 812.984 Q23.2265 807.099 27.0286 803.687 Q30.8046 800.25 37.315 800.25 M35.9087 805.041 Q31.9765 805.093 29.6327 807.255 Q27.289 809.39 27.289 812.932 Q27.289 816.942 29.5546 819.364 Q31.8202 821.76 35.9348 822.124 L35.9087 805.041 Z" fill="#ffffff" fill-rule="evenodd" fill-opacity="1" /><path clip-path="url(#clip290)" d="M35.4921 768.14 L53.0962 768.14 L53.0962 772.932 L35.6483 772.932 Q31.5077 772.932 29.4505 774.547 Q27.3932 776.161 27.3932 779.39 Q27.3932 783.271 29.8671 785.51 Q32.3411 787.75 36.6119 787.75 L53.0962 787.75 L53.0962 792.567 L23.9296 792.567 L23.9296 787.75 L28.4609 787.75 Q25.8307 786.031 24.5286 783.713 Q23.2265 781.37 23.2265 778.323 Q23.2265 773.297 26.3515 770.719 Q29.4505 768.14 35.4921 768.14 Z" fill="#ffffff" fill-rule="evenodd" fill-opacity="1" /><path clip-path="url(#clip290)" d="M15.6484 753.844 L23.9296 753.844 L23.9296 743.974 L27.6536 743.974 L27.6536 753.844 L43.4868 753.844 Q47.0545 753.844 48.0701 752.88 Q49.0858 751.89 49.0858 748.896 L49.0858 743.974 L53.0962 743.974 L53.0962 748.896 Q53.0962 754.443 51.0389 756.552 Q48.9556 758.661 43.4868 758.661 L27.6536 758.661 L27.6536 762.177 L23.9296 762.177 L23.9296 758.661 L15.6484 758.661 L15.6484 753.844 Z" fill="#ffffff" fill-rule="evenodd" fill-opacity="1" /><path clip-path="url(#clip290)" d="M28.4088 720.771 Q27.94 721.578 27.7317 722.542 Q27.4973 723.479 27.4973 724.625 Q27.4973 728.687 30.1536 730.875 Q32.7838 733.036 37.7317 733.036 L53.0962 733.036 L53.0962 737.854 L23.9296 737.854 L23.9296 733.036 L28.4609 733.036 Q25.8046 731.526 24.5286 729.104 Q23.2265 726.682 23.2265 723.219 Q23.2265 722.724 23.3047 722.125 Q23.3567 721.526 23.4869 720.797 L28.4088 720.771 Z" fill="#ffffff" fill-rule="evenodd" fill-opacity="1" /><path clip-path="url(#clip290)" d="M38.4348 702.49 Q38.4348 708.297 39.7629 710.537 Q41.091 712.776 44.2941 712.776 Q46.8462 712.776 48.3566 711.109 Q49.841 709.417 49.841 706.526 Q49.841 702.542 47.0285 700.146 Q44.19 697.724 39.5025 697.724 L38.4348 697.724 L38.4348 702.49 M36.4556 692.932 L53.0962 692.932 L53.0962 697.724 L48.6691 697.724 Q51.3253 699.365 52.6014 701.813 Q53.8514 704.261 53.8514 707.802 Q53.8514 712.281 51.3514 714.938 Q48.8253 717.568 44.6066 717.568 Q39.6848 717.568 37.1848 714.287 Q34.6848 710.979 34.6848 704.443 L34.6848 697.724 L34.2161 697.724 Q30.9088 697.724 29.1119 699.912 Q27.289 702.073 27.289 706.005 Q27.289 708.505 27.888 710.875 Q28.4869 713.245 29.6848 715.432 L25.2578 715.432 Q24.2421 712.802 23.7474 710.328 Q23.2265 707.854 23.2265 705.511 Q23.2265 699.182 26.5078 696.057 Q29.789 692.932 36.4556 692.932 Z" fill="#ffffff" fill-rule="evenodd" fill-opacity="1" /><path clip-path="url(#clip290)" d="M15.6484 678.323 L23.9296 678.323 L23.9296 668.453 L27.6536 668.453 L27.6536 678.323 L43.4868 678.323 Q47.0545 678.323 48.0701 677.36 Q49.0858 676.37 49.0858 673.375 L49.0858 668.453 L53.0962 668.453 L53.0962 673.375 Q53.0962 678.922 51.0389 681.031 Q48.9556 683.141 43.4868 683.141 L27.6536 683.141 L27.6536 686.656 L23.9296 686.656 L23.9296 683.141 L15.6484 683.141 L15.6484 678.323 Z" fill="#ffffff" fill-rule="evenodd" fill-opacity="1" /><path clip-path="url(#clip290)" d="M23.9296 662.151 L23.9296 657.36 L53.0962 657.36 L53.0962 662.151 L23.9296 662.151 M12.5755 662.151 L12.5755 657.36 L18.6432 657.36 L18.6432 662.151 L12.5755 662.151 Z" fill="#ffffff" fill-rule="evenodd" fill-opacity="1" /><path clip-path="url(#clip290)" d="M27.289 636.032 Q27.289 639.886 30.3098 642.125 Q33.3046 644.365 38.5389 644.365 Q43.7733 644.365 46.7941 642.151 Q49.7889 639.912 49.7889 636.032 Q49.7889 632.204 46.7681 629.964 Q43.7472 627.724 38.5389 627.724 Q33.3567 627.724 30.3359 629.964 Q27.289 632.204 27.289 636.032 M23.2265 636.032 Q23.2265 629.782 27.289 626.214 Q31.3515 622.646 38.5389 622.646 Q45.7004 622.646 49.7889 626.214 Q53.8514 629.782 53.8514 636.032 Q53.8514 642.308 49.7889 645.875 Q45.7004 649.417 38.5389 649.417 Q31.3515 649.417 27.289 645.875 Q23.2265 642.308 23.2265 636.032 Z" fill="#ffffff" fill-rule="evenodd" fill-opacity="1" /><path clip-path="url(#clip290)" d="M35.4921 590.459 L53.0962 590.459 L53.0962 595.251 L35.6483 595.251 Q31.5077 595.251 29.4505 596.865 Q27.3932 598.48 27.3932 601.709 Q27.3932 605.589 29.8671 607.829 Q32.3411 610.068 36.6119 610.068 L53.0962 610.068 L53.0962 614.886 L23.9296 614.886 L23.9296 610.068 L28.4609 610.068 Q25.8307 608.35 24.5286 606.032 Q23.2265 603.688 23.2265 600.641 Q23.2265 595.615 26.3515 593.037 Q29.4505 590.459 35.4921 590.459 Z" fill="#ffffff" fill-rule="evenodd" fill-opacity="1" /><path clip-path="url(#clip290)" d="M46.4816 579.678 L46.4816 574.183 L50.9608 574.183 L59.294 578.454 L59.294 581.813 L50.9608 579.678 L46.4816 579.678 Z" fill="#ffffff" fill-rule="evenodd" fill-opacity="1" /><path clip-path="url(#clip290)" d="M12.5755 547.178 L12.5755 542.36 L36.5077 542.36 L23.9296 528.064 L23.9296 521.944 L37.5754 537.412 L53.0962 521.293 L53.0962 527.543 L38.8514 542.36 L53.0962 542.36 L53.0962 547.178 L12.5755 547.178 Z" fill="#ffffff" fill-rule="evenodd" fill-opacity="1" /><path clip-path="url(#clip290)" d="M38.1744 496.918 Q32.9661 496.918 30.1015 499.079 Q27.2369 501.215 27.2369 505.095 Q27.2369 508.949 30.1015 511.111 Q32.9661 513.246 38.1744 513.246 Q43.3566 513.246 46.2212 511.111 Q49.0858 508.949 49.0858 505.095 Q49.0858 501.215 46.2212 499.079 Q43.3566 496.918 38.1744 496.918 M49.4764 492.126 Q56.9243 492.126 60.544 495.434 Q64.1898 498.741 64.1898 505.564 Q64.1898 508.09 63.7992 510.329 Q63.4346 512.569 62.6534 514.678 L57.992 514.678 Q59.1378 512.569 59.6847 510.512 Q60.2315 508.454 60.2315 506.319 Q60.2315 501.605 57.7576 499.262 Q55.3097 496.918 50.3358 496.918 L47.966 496.918 Q50.5441 498.402 51.8201 500.72 Q53.0962 503.038 53.0962 506.267 Q53.0962 511.631 49.0076 514.913 Q44.9191 518.194 38.1744 518.194 Q31.4036 518.194 27.315 514.913 Q23.2265 511.631 23.2265 506.267 Q23.2265 503.038 24.5026 500.72 Q25.7786 498.402 28.3567 496.918 L23.9296 496.918 L23.9296 492.126 L49.4764 492.126 Z" fill="#ffffff" fill-rule="evenodd" fill-opacity="1" /><path clip-path="url(#clip290)" d="M14.2162 473.741 L14.2162 469.314 L58.044 482.855 L58.044 487.283 L14.2162 473.741 Z" fill="#ffffff" fill-rule="evenodd" fill-opacity="1" /><path clip-path="url(#clip290)" d="M29.5286 441.58 Q26.2994 439.783 24.763 437.283 Q23.2265 434.783 23.2265 431.397 Q23.2265 426.84 26.4296 424.366 Q29.6067 421.892 35.4921 421.892 L53.0962 421.892 L53.0962 426.71 L35.6483 426.71 Q31.4556 426.71 29.4244 428.194 Q27.3932 429.679 27.3932 432.726 Q27.3932 436.449 29.8671 438.611 Q32.3411 440.772 36.6119 440.772 L53.0962 440.772 L53.0962 445.59 L35.6483 445.59 Q31.4296 445.59 29.4244 447.074 Q27.3932 448.559 27.3932 451.658 Q27.3932 455.33 29.8932 457.491 Q32.3671 459.652 36.6119 459.652 L53.0962 459.652 L53.0962 464.47 L23.9296 464.47 L23.9296 459.652 L28.4609 459.652 Q25.7786 458.012 24.5026 455.72 Q23.2265 453.429 23.2265 450.278 Q23.2265 447.1 24.8411 444.887 Q26.4557 442.647 29.5286 441.58 Z" fill="#ffffff" fill-rule="evenodd" fill-opacity="1" /><path clip-path="url(#clip290)" d="M23.9296 403.715 Q24.3984 401.319 25.8307 400.017 Q27.2369 398.689 29.3723 398.689 Q32.6015 398.689 34.3463 401.163 Q36.091 403.637 36.091 408.246 Q36.091 409.731 35.8306 411.371 Q35.5442 412.986 35.0233 414.809 L31.8723 414.809 Q32.5754 413.455 32.914 411.918 Q33.2525 410.356 33.2525 408.611 Q33.2525 405.773 32.2369 404.21 Q31.1952 402.648 29.3723 402.648 Q27.4453 402.648 26.4557 404.106 Q25.4661 405.538 25.4661 408.351 L25.4661 410.59 L22.6536 410.59 L22.6536 408.142 Q22.6536 405.694 21.8463 404.444 Q21.013 403.168 19.4505 403.168 Q17.9401 403.168 17.1589 404.47 Q16.3516 405.773 16.3516 408.246 Q16.3516 409.288 16.5859 410.616 Q16.8203 411.944 17.4193 414.054 L14.4245 414.054 Q13.9818 412.153 13.7474 410.486 Q13.513 408.819 13.513 407.387 Q13.513 403.637 15.0495 401.45 Q16.5859 399.236 19.164 399.236 Q20.9609 399.236 22.2109 400.408 Q23.4609 401.58 23.9296 403.715 Z" fill="#ffffff" fill-rule="evenodd" fill-opacity="1" /><path clip-path="url(#clip290)" d="M456.183 17.6457 Q447.271 17.6457 442.005 24.2892 Q436.779 30.9327 436.779 42.3968 Q436.779 53.8203 442.005 60.4638 Q447.271 67.1073 456.183 67.1073 Q465.095 67.1073 470.28 60.4638 Q475.506 53.8203 475.506 42.3968 Q475.506 30.9327 470.28 24.2892 Q465.095 17.6457 456.183 17.6457 M456.183 11.0023 Q468.903 11.0023 476.519 19.5497 Q484.134 28.0566 484.134 42.3968 Q484.134 56.6965 476.519 65.2439 Q468.903 73.7508 456.183 73.7508 Q443.423 73.7508 435.766 65.2439 Q428.151 56.737 428.151 42.3968 Q428.151 28.0566 435.766 19.5497 Q443.423 11.0023 456.183 11.0023 Z" fill="#ffffff" fill-rule="evenodd" fill-opacity="1" /><path clip-path="url(#clip290)" d="M495.841 54.671 L495.841 27.2059 L503.295 27.2059 L503.295 54.3874 Q503.295 60.8284 505.807 64.0691 Q508.318 67.2693 513.341 67.2693 Q519.377 67.2693 522.861 63.421 Q526.385 59.5726 526.385 52.9291 L526.385 27.2059 L533.839 27.2059 L533.839 72.576 L526.385 72.576 L526.385 65.6084 Q523.671 69.7404 520.066 71.7658 Q516.501 73.7508 511.761 73.7508 Q503.943 73.7508 499.892 68.8897 Q495.841 64.0286 495.841 54.671 M514.597 26.1121 L514.597 26.1121 Z" fill="#ffffff" fill-rule="evenodd" fill-opacity="1" /><path clip-path="url(#clip290)" d="M556.564 14.324 L556.564 27.2059 L571.917 27.2059 L571.917 32.9987 L556.564 32.9987 L556.564 57.6282 Q556.564 63.1779 558.063 64.7578 Q559.603 66.3376 564.261 66.3376 L571.917 66.3376 L571.917 72.576 L564.261 72.576 Q555.633 72.576 552.351 69.3758 Q549.07 66.1351 549.07 57.6282 L549.07 32.9987 L543.601 32.9987 L543.601 27.2059 L549.07 27.2059 L549.07 14.324 L556.564 14.324 Z" fill="#ffffff" fill-rule="evenodd" fill-opacity="1" /><path clip-path="url(#clip290)" d="M611.576 34.0924 L611.576 9.54393 L619.029 9.54393 L619.029 72.576 L611.576 72.576 L611.576 65.7705 Q609.226 69.8214 605.621 71.8063 Q602.056 73.7508 597.033 73.7508 Q588.81 73.7508 583.624 67.1883 Q578.48 60.6258 578.48 49.9314 Q578.48 39.2371 583.624 32.6746 Q588.81 26.1121 597.033 26.1121 Q602.056 26.1121 605.621 28.0971 Q609.226 30.0415 611.576 34.0924 M586.176 49.9314 Q586.176 58.1548 589.539 62.8538 Q592.942 67.5124 598.856 67.5124 Q604.77 67.5124 608.173 62.8538 Q611.576 58.1548 611.576 49.9314 Q611.576 41.7081 608.173 37.0496 Q604.77 32.3505 598.856 32.3505 Q592.942 32.3505 589.539 37.0496 Q586.176 41.7081 586.176 49.9314 Z" fill="#ffffff" fill-rule="evenodd" fill-opacity="1" /><path clip-path="url(#clip290)" d="M651.963 32.4315 Q645.968 32.4315 642.484 37.1306 Q639 41.7891 639 49.9314 Q639 58.0738 642.444 62.7728 Q645.927 67.4314 651.963 67.4314 Q657.918 67.4314 661.402 62.7323 Q664.886 58.0333 664.886 49.9314 Q664.886 41.8701 661.402 37.1711 Q657.918 32.4315 651.963 32.4315 M651.963 26.1121 Q661.685 26.1121 667.235 32.4315 Q672.785 38.7509 672.785 49.9314 Q672.785 61.0714 667.235 67.4314 Q661.685 73.7508 651.963 73.7508 Q642.2 73.7508 636.651 67.4314 Q631.142 61.0714 631.142 49.9314 Q631.142 38.7509 636.651 32.4315 Q642.2 26.1121 651.963 26.1121 Z" fill="#ffffff" fill-rule="evenodd" fill-opacity="1" /><path clip-path="url(#clip290)" d="M702.721 32.4315 Q696.726 32.4315 693.242 37.1306 Q689.758 41.7891 689.758 49.9314 Q689.758 58.0738 693.201 62.7728 Q696.685 67.4314 702.721 67.4314 Q708.676 67.4314 712.16 62.7323 Q715.643 58.0333 715.643 49.9314 Q715.643 41.8701 712.16 37.1711 Q708.676 32.4315 702.721 32.4315 M702.721 26.1121 Q712.443 26.1121 717.993 32.4315 Q723.543 38.7509 723.543 49.9314 Q723.543 61.0714 717.993 67.4314 Q712.443 73.7508 702.721 73.7508 Q692.958 73.7508 687.409 67.4314 Q681.899 61.0714 681.899 49.9314 Q681.899 38.7509 687.409 32.4315 Q692.958 26.1121 702.721 26.1121 Z" fill="#ffffff" fill-rule="evenodd" fill-opacity="1" /><path clip-path="url(#clip290)" d="M762.188 34.1734 Q760.932 33.4443 759.434 33.1202 Q757.975 32.7556 756.193 32.7556 Q749.874 32.7556 746.471 36.8875 Q743.109 40.9789 743.109 48.6757 L743.109 72.576 L735.614 72.576 L735.614 27.2059 L743.109 27.2059 L743.109 34.2544 Q745.458 30.1225 749.225 28.1376 Q752.993 26.1121 758.38 26.1121 Q759.15 26.1121 760.082 26.2337 Q761.014 26.3147 762.148 26.5172 L762.188 34.1734 Z" fill="#ffffff" fill-rule="evenodd" fill-opacity="1" /><path clip-path="url(#clip290)" d="M829.028 28.9478 L829.028 35.9153 Q825.868 34.1734 822.668 33.3227 Q819.509 32.4315 816.268 32.4315 Q809.017 32.4315 805.006 37.0496 Q800.996 41.6271 800.996 49.9314 Q800.996 58.2358 805.006 62.8538 Q809.017 67.4314 816.268 67.4314 Q819.509 67.4314 822.668 66.5807 Q825.868 65.6895 829.028 63.9476 L829.028 70.8341 Q825.909 72.2924 822.547 73.0216 Q819.225 73.7508 815.458 73.7508 Q805.209 73.7508 799.173 67.3098 Q793.137 60.8689 793.137 49.9314 Q793.137 38.832 799.214 32.472 Q805.33 26.1121 815.944 26.1121 Q819.387 26.1121 822.668 26.8413 Q825.95 27.5299 829.028 28.9478 Z" fill="#ffffff" fill-rule="evenodd" fill-opacity="1" /><path clip-path="url(#clip290)" d="M859.572 32.4315 Q853.577 32.4315 850.093 37.1306 Q846.609 41.7891 846.609 49.9314 Q846.609 58.0738 850.052 62.7728 Q853.536 67.4314 859.572 67.4314 Q865.527 67.4314 869.011 62.7323 Q872.494 58.0333 872.494 49.9314 Q872.494 41.8701 869.011 37.1711 Q865.527 32.4315 859.572 32.4315 M859.572 26.1121 Q869.294 26.1121 874.844 32.4315 Q880.394 38.7509 880.394 49.9314 Q880.394 61.0714 874.844 67.4314 Q869.294 73.7508 859.572 73.7508 Q849.809 73.7508 844.26 67.4314 Q838.75 61.0714 838.75 49.9314 Q838.75 38.7509 844.26 32.4315 Q849.809 26.1121 859.572 26.1121 Z" fill="#ffffff" fill-rule="evenodd" fill-opacity="1" /><path clip-path="url(#clip290)" d="M930.463 45.1919 L930.463 72.576 L923.009 72.576 L923.009 45.4349 Q923.009 38.994 920.498 35.7938 Q917.986 32.5936 912.963 32.5936 Q906.927 32.5936 903.443 36.4419 Q899.96 40.2903 899.96 46.9338 L899.96 72.576 L892.465 72.576 L892.465 27.2059 L899.96 27.2059 L899.96 34.2544 Q902.633 30.163 906.238 28.1376 Q909.884 26.1121 914.624 26.1121 Q922.442 26.1121 926.452 30.9732 Q930.463 35.7938 930.463 45.1919 Z" fill="#ffffff" fill-rule="evenodd" fill-opacity="1" /><path clip-path="url(#clip290)" d="M977.98 28.9478 L977.98 35.9153 Q974.82 34.1734 971.62 33.3227 Q968.46 32.4315 965.22 32.4315 Q957.968 32.4315 953.958 37.0496 Q949.948 41.6271 949.948 49.9314 Q949.948 58.2358 953.958 62.8538 Q957.968 67.4314 965.22 67.4314 Q968.46 67.4314 971.62 66.5807 Q974.82 65.6895 977.98 63.9476 L977.98 70.8341 Q974.861 72.2924 971.499 73.0216 Q968.177 73.7508 964.409 73.7508 Q954.161 73.7508 948.125 67.3098 Q942.089 60.8689 942.089 49.9314 Q942.089 38.832 948.165 32.472 Q954.282 26.1121 964.896 26.1121 Q968.339 26.1121 971.62 26.8413 Q974.901 27.5299 977.98 28.9478 Z" fill="#ffffff" fill-rule="evenodd" fill-opacity="1" /><path clip-path="url(#clip290)" d="M1029.75 48.0275 L1029.75 51.6733 L995.48 51.6733 Q995.966 59.3701 1000.1 63.421 Q1004.27 67.4314 1011.68 67.4314 Q1015.98 67.4314 1019.99 66.3781 Q1024.04 65.3249 1028.01 63.2184 L1028.01 70.267 Q1024 71.9684 1019.79 72.8596 Q1015.57 73.7508 1011.24 73.7508 Q1000.38 73.7508 994.022 67.4314 Q987.702 61.1119 987.702 50.3365 Q987.702 39.1965 993.697 32.6746 Q999.733 26.1121 1009.94 26.1121 Q1019.1 26.1121 1024.4 32.0264 Q1029.75 37.9003 1029.75 48.0275 M1022.3 45.84 Q1022.22 39.7232 1018.85 36.0774 Q1015.53 32.4315 1010.02 32.4315 Q1003.78 32.4315 1000.02 35.9558 Q996.29 39.4801 995.723 45.8805 L1022.3 45.84 Z" fill="#ffffff" fill-rule="evenodd" fill-opacity="1" /><path clip-path="url(#clip290)" d="M1079.7 45.1919 L1079.7 72.576 L1072.24 72.576 L1072.24 45.4349 Q1072.24 38.994 1069.73 35.7938 Q1067.22 32.5936 1062.2 32.5936 Q1056.16 32.5936 1052.68 36.4419 Q1049.19 40.2903 1049.19 46.9338 L1049.19 72.576 L1041.7 72.576 L1041.7 27.2059 L1049.19 27.2059 L1049.19 34.2544 Q1051.87 30.163 1055.47 28.1376 Q1059.12 26.1121 1063.86 26.1121 Q1071.68 26.1121 1075.69 30.9732 Q1079.7 35.7938 1079.7 45.1919 Z" fill="#ffffff" fill-rule="evenodd" fill-opacity="1" /><path clip-path="url(#clip290)" d="M1101.94 14.324 L1101.94 27.2059 L1117.29 27.2059 L1117.29 32.9987 L1101.94 32.9987 L1101.94 57.6282 Q1101.94 63.1779 1103.44 64.7578 Q1104.98 66.3376 1109.63 66.3376 L1117.29 66.3376 L1117.29 72.576 L1109.63 72.576 Q1101.01 72.576 1097.72 69.3758 Q1094.44 66.1351 1094.44 57.6282 L1094.44 32.9987 L1088.97 32.9987 L1088.97 27.2059 L1094.44 27.2059 L1094.44 14.324 L1101.94 14.324 Z" fill="#ffffff" fill-rule="evenodd" fill-opacity="1" /><path clip-path="url(#clip290)" d="M1153.38 34.1734 Q1152.13 33.4443 1150.63 33.1202 Q1149.17 32.7556 1147.39 32.7556 Q1141.07 32.7556 1137.67 36.8875 Q1134.3 40.9789 1134.3 48.6757 L1134.3 72.576 L1126.81 72.576 L1126.81 27.2059 L1134.3 27.2059 L1134.3 34.2544 Q1136.65 30.1225 1140.42 28.1376 Q1144.19 26.1121 1149.58 26.1121 Q1150.35 26.1121 1151.28 26.2337 Q1152.21 26.3147 1153.34 26.5172 L1153.38 34.1734 Z" fill="#ffffff" fill-rule="evenodd" fill-opacity="1" /><path clip-path="url(#clip290)" d="M1181.82 49.7694 Q1172.79 49.7694 1169.3 51.8354 Q1165.82 53.9013 1165.82 58.8839 Q1165.82 62.8538 1168.41 65.2034 Q1171.05 67.5124 1175.54 67.5124 Q1181.74 67.5124 1185.47 63.1374 Q1189.23 58.7219 1189.23 51.4303 L1189.23 49.7694 L1181.82 49.7694 M1196.69 46.6907 L1196.69 72.576 L1189.23 72.576 L1189.23 65.6895 Q1186.68 69.8214 1182.87 71.8063 Q1179.07 73.7508 1173.56 73.7508 Q1166.59 73.7508 1162.46 69.8619 Q1158.37 65.9325 1158.37 59.3701 Q1158.37 51.7138 1163.47 47.825 Q1168.62 43.9361 1178.78 43.9361 L1189.23 43.9361 L1189.23 43.2069 Q1189.23 38.0623 1185.83 35.2672 Q1182.47 32.4315 1176.35 32.4315 Q1172.46 32.4315 1168.78 33.3632 Q1165.09 34.295 1161.69 36.1584 L1161.69 29.2718 Q1165.78 27.692 1169.63 26.9223 Q1173.48 26.1121 1177.12 26.1121 Q1186.97 26.1121 1191.83 31.2163 Q1196.69 36.3204 1196.69 46.6907 Z" fill="#ffffff" fill-rule="evenodd" fill-opacity="1" /><path clip-path="url(#clip290)" d="M1219.41 14.324 L1219.41 27.2059 L1234.77 27.2059 L1234.77 32.9987 L1219.41 32.9987 L1219.41 57.6282 Q1219.41 63.1779 1220.91 64.7578 Q1222.45 66.3376 1227.11 66.3376 L1234.77 66.3376 L1234.77 72.576 L1227.11 72.576 Q1218.48 72.576 1215.2 69.3758 Q1211.92 66.1351 1211.92 57.6282 L1211.92 32.9987 L1206.45 32.9987 L1206.45 27.2059 L1211.92 27.2059 L1211.92 14.324 L1219.41 14.324 Z" fill="#ffffff" fill-rule="evenodd" fill-opacity="1" /><path clip-path="url(#clip290)" d="M1244.57 27.2059 L1252.02 27.2059 L1252.02 72.576 L1244.57 72.576 L1244.57 27.2059 M1244.57 9.54393 L1252.02 9.54393 L1252.02 18.9825 L1244.57 18.9825 L1244.57 9.54393 Z" fill="#ffffff" fill-rule="evenodd" fill-opacity="1" /><path clip-path="url(#clip290)" d="M1285.2 32.4315 Q1279.21 32.4315 1275.72 37.1306 Q1272.24 41.7891 1272.24 49.9314 Q1272.24 58.0738 1275.68 62.7728 Q1279.16 67.4314 1285.2 67.4314 Q1291.16 67.4314 1294.64 62.7323 Q1298.12 58.0333 1298.12 49.9314 Q1298.12 41.8701 1294.64 37.1711 Q1291.16 32.4315 1285.2 32.4315 M1285.2 26.1121 Q1294.92 26.1121 1300.47 32.4315 Q1306.02 38.7509 1306.02 49.9314 Q1306.02 61.0714 1300.47 67.4314 Q1294.92 73.7508 1285.2 73.7508 Q1275.44 73.7508 1269.89 67.4314 Q1264.38 61.0714 1264.38 49.9314 Q1264.38 38.7509 1269.89 32.4315 Q1275.44 26.1121 1285.2 26.1121 Z" fill="#ffffff" fill-rule="evenodd" fill-opacity="1" /><path clip-path="url(#clip290)" d="M1356.09 45.1919 L1356.09 72.576 L1348.64 72.576 L1348.64 45.4349 Q1348.64 38.994 1346.13 35.7938 Q1343.61 32.5936 1338.59 32.5936 Q1332.56 32.5936 1329.07 36.4419 Q1325.59 40.2903 1325.59 46.9338 L1325.59 72.576 L1318.09 72.576 L1318.09 27.2059 L1325.59 27.2059 L1325.59 34.2544 Q1328.26 30.163 1331.87 28.1376 Q1335.51 26.1121 1340.25 26.1121 Q1348.07 26.1121 1352.08 30.9732 Q1356.09 35.7938 1356.09 45.1919 Z" fill="#ffffff" fill-rule="evenodd" fill-opacity="1" /><path clip-path="url(#clip290)" d="M1417.95 49.7694 Q1408.92 49.7694 1405.43 51.8354 Q1401.95 53.9013 1401.95 58.8839 Q1401.95 62.8538 1404.54 65.2034 Q1407.17 67.5124 1411.67 67.5124 Q1417.87 67.5124 1421.59 63.1374 Q1425.36 58.7219 1425.36 51.4303 L1425.36 49.7694 L1417.95 49.7694 M1432.82 46.6907 L1432.82 72.576 L1425.36 72.576 L1425.36 65.6895 Q1422.81 69.8214 1419 71.8063 Q1415.19 73.7508 1409.68 73.7508 Q1402.72 73.7508 1398.59 69.8619 Q1394.49 65.9325 1394.49 59.3701 Q1394.49 51.7138 1399.6 47.825 Q1404.74 43.9361 1414.91 43.9361 L1425.36 43.9361 L1425.36 43.2069 Q1425.36 38.0623 1421.96 35.2672 Q1418.6 32.4315 1412.48 32.4315 Q1408.59 32.4315 1404.9 33.3632 Q1401.22 34.295 1397.82 36.1584 L1397.82 29.2718 Q1401.91 27.692 1405.76 26.9223 Q1409.6 26.1121 1413.25 26.1121 Q1423.09 26.1121 1427.95 31.2163 Q1432.82 36.3204 1432.82 46.6907 Z" fill="#ffffff" fill-rule="evenodd" fill-opacity="1" /><path clip-path="url(#clip290)" d="M1455.54 14.324 L1455.54 27.2059 L1470.89 27.2059 L1470.89 32.9987 L1455.54 32.9987 L1455.54 57.6282 Q1455.54 63.1779 1457.04 64.7578 Q1458.58 66.3376 1463.24 66.3376 L1470.89 66.3376 L1470.89 72.576 L1463.24 72.576 Q1454.61 72.576 1451.33 69.3758 Q1448.05 66.1351 1448.05 57.6282 L1448.05 32.9987 L1442.58 32.9987 L1442.58 27.2059 L1448.05 27.2059 L1448.05 14.324 L1455.54 14.324 Z" fill="#ffffff" fill-rule="evenodd" fill-opacity="1" /><path clip-path="url(#clip290)" d="M1533.36 34.1734 Q1532.1 33.4443 1530.6 33.1202 Q1529.15 32.7556 1527.36 32.7556 Q1521.04 32.7556 1517.64 36.8875 Q1514.28 40.9789 1514.28 48.6757 L1514.28 72.576 L1506.78 72.576 L1506.78 27.2059 L1514.28 27.2059 L1514.28 34.2544 Q1516.63 30.1225 1520.4 28.1376 Q1524.16 26.1121 1529.55 26.1121 Q1530.32 26.1121 1531.25 26.2337 Q1532.18 26.3147 1533.32 26.5172 L1533.36 34.1734 Z" fill="#ffffff" fill-rule="evenodd" fill-opacity="1" /><path clip-path="url(#clip290)" d="M1578.16 48.0275 L1578.16 51.6733 L1543.89 51.6733 Q1544.38 59.3701 1548.51 63.421 Q1552.68 67.4314 1560.09 67.4314 Q1564.39 67.4314 1568.4 66.3781 Q1572.45 65.3249 1576.42 63.2184 L1576.42 70.267 Q1572.41 71.9684 1568.2 72.8596 Q1563.98 73.7508 1559.65 73.7508 Q1548.79 73.7508 1542.43 67.4314 Q1536.11 61.1119 1536.11 50.3365 Q1536.11 39.1965 1542.11 32.6746 Q1548.14 26.1121 1558.35 26.1121 Q1567.51 26.1121 1572.81 32.0264 Q1578.16 37.9003 1578.16 48.0275 M1570.71 45.84 Q1570.63 39.7232 1567.26 36.0774 Q1563.94 32.4315 1558.43 32.4315 Q1552.2 32.4315 1548.43 35.9558 Q1544.7 39.4801 1544.13 45.8805 L1570.71 45.84 Z" fill="#ffffff" fill-rule="evenodd" fill-opacity="1" /><path clip-path="url(#clip290)" d="M1623.05 28.9478 L1623.05 35.9153 Q1619.89 34.1734 1616.69 33.3227 Q1613.53 32.4315 1610.29 32.4315 Q1603.03 32.4315 1599.02 37.0496 Q1595.01 41.6271 1595.01 49.9314 Q1595.01 58.2358 1599.02 62.8538 Q1603.03 67.4314 1610.29 67.4314 Q1613.53 67.4314 1616.69 66.5807 Q1619.89 65.6895 1623.05 63.9476 L1623.05 70.8341 Q1619.93 72.2924 1616.56 73.0216 Q1613.24 73.7508 1609.48 73.7508 Q1599.23 73.7508 1593.19 67.3098 Q1587.15 60.8689 1587.15 49.9314 Q1587.15 38.832 1593.23 32.472 Q1599.35 26.1121 1609.96 26.1121 Q1613.4 26.1121 1616.69 26.8413 Q1619.97 27.5299 1623.05 28.9478 Z" fill="#ffffff" fill-rule="evenodd" fill-opacity="1" /><path clip-path="url(#clip290)" d="M1674.82 48.0275 L1674.82 51.6733 L1640.55 51.6733 Q1641.03 59.3701 1645.16 63.421 Q1649.34 67.4314 1656.75 67.4314 Q1661.04 67.4314 1665.05 66.3781 Q1669.1 65.3249 1673.07 63.2184 L1673.07 70.267 Q1669.06 71.9684 1664.85 72.8596 Q1660.64 73.7508 1656.3 73.7508 Q1645.45 73.7508 1639.09 67.4314 Q1632.77 61.1119 1632.77 50.3365 Q1632.77 39.1965 1638.76 32.6746 Q1644.8 26.1121 1655.01 26.1121 Q1664.16 26.1121 1669.47 32.0264 Q1674.82 37.9003 1674.82 48.0275 M1667.36 45.84 Q1667.28 39.7232 1663.92 36.0774 Q1660.6 32.4315 1655.09 32.4315 Q1648.85 32.4315 1645.08 35.9558 Q1641.36 39.4801 1640.79 45.8805 L1667.36 45.84 Z" fill="#ffffff" fill-rule="evenodd" fill-opacity="1" /><path clip-path="url(#clip290)" d="M1694.26 65.7705 L1694.26 89.8329 L1686.77 89.8329 L1686.77 27.2059 L1694.26 27.2059 L1694.26 34.0924 Q1696.61 30.0415 1700.18 28.0971 Q1703.78 26.1121 1708.76 26.1121 Q1717.03 26.1121 1722.17 32.6746 Q1727.36 39.2371 1727.36 49.9314 Q1727.36 60.6258 1722.17 67.1883 Q1717.03 73.7508 1708.76 73.7508 Q1703.78 73.7508 1700.18 71.8063 Q1696.61 69.8214 1694.26 65.7705 M1719.62 49.9314 Q1719.62 41.7081 1716.22 37.0496 Q1712.85 32.3505 1706.94 32.3505 Q1701.03 32.3505 1697.62 37.0496 Q1694.26 41.7081 1694.26 49.9314 Q1694.26 58.1548 1697.62 62.8538 Q1701.03 67.5124 1706.94 67.5124 Q1712.85 67.5124 1716.22 62.8538 Q1719.62 58.1548 1719.62 49.9314 Z" fill="#ffffff" fill-rule="evenodd" fill-opacity="1" /><path clip-path="url(#clip290)" d="M1747.08 14.324 L1747.08 27.2059 L1762.44 27.2059 L1762.44 32.9987 L1747.08 32.9987 L1747.08 57.6282 Q1747.08 63.1779 1748.58 64.7578 Q1750.12 66.3376 1754.78 66.3376 L1762.44 66.3376 L1762.44 72.576 L1754.78 72.576 Q1746.15 72.576 1742.87 69.3758 Q1739.59 66.1351 1739.59 57.6282 L1739.59 32.9987 L1734.12 32.9987 L1734.12 27.2059 L1739.59 27.2059 L1739.59 14.324 L1747.08 14.324 Z" fill="#ffffff" fill-rule="evenodd" fill-opacity="1" /><path clip-path="url(#clip290)" d="M1789.82 32.4315 Q1783.83 32.4315 1780.34 37.1306 Q1776.86 41.7891 1776.86 49.9314 Q1776.86 58.0738 1780.3 62.7728 Q1783.79 67.4314 1789.82 67.4314 Q1795.78 67.4314 1799.26 62.7323 Q1802.74 58.0333 1802.74 49.9314 Q1802.74 41.8701 1799.26 37.1711 Q1795.78 32.4315 1789.82 32.4315 M1789.82 26.1121 Q1799.54 26.1121 1805.09 32.4315 Q1810.64 38.7509 1810.64 49.9314 Q1810.64 61.0714 1805.09 67.4314 Q1799.54 73.7508 1789.82 73.7508 Q1780.06 73.7508 1774.51 67.4314 Q1769 61.0714 1769 49.9314 Q1769 38.7509 1774.51 32.4315 Q1780.06 26.1121 1789.82 26.1121 Z" fill="#ffffff" fill-rule="evenodd" fill-opacity="1" /><path clip-path="url(#clip290)" d="M1849.29 34.1734 Q1848.03 33.4443 1846.53 33.1202 Q1845.08 32.7556 1843.29 32.7556 Q1836.97 32.7556 1833.57 36.8875 Q1830.21 40.9789 1830.21 48.6757 L1830.21 72.576 L1822.72 72.576 L1822.72 27.2059 L1830.21 27.2059 L1830.21 34.2544 Q1832.56 30.1225 1836.33 28.1376 Q1840.09 26.1121 1845.48 26.1121 Q1846.25 26.1121 1847.18 26.2337 Q1848.11 26.3147 1849.25 26.5172 L1849.29 34.1734 Z" fill="#ffffff" fill-rule="evenodd" fill-opacity="1" /><path clip-path="url(#clip290)" d="M1890.69 65.7705 L1890.69 89.8329 L1883.2 89.8329 L1883.2 27.2059 L1890.69 27.2059 L1890.69 34.0924 Q1893.04 30.0415 1896.6 28.0971 Q1900.21 26.1121 1905.19 26.1121 Q1913.46 26.1121 1918.6 32.6746 Q1923.79 39.2371 1923.79 49.9314 Q1923.79 60.6258 1918.6 67.1883 Q1913.46 73.7508 1905.19 73.7508 Q1900.21 73.7508 1896.6 71.8063 Q1893.04 69.8214 1890.69 65.7705 M1916.05 49.9314 Q1916.05 41.7081 1912.65 37.0496 Q1909.28 32.3505 1903.37 32.3505 Q1897.45 32.3505 1894.05 37.0496 Q1890.69 41.7081 1890.69 49.9314 Q1890.69 58.1548 1894.05 62.8538 Q1897.45 67.5124 1903.37 67.5124 Q1909.28 67.5124 1912.65 62.8538 Q1916.05 58.1548 1916.05 49.9314 Z" fill="#ffffff" fill-rule="evenodd" fill-opacity="1" /><path clip-path="url(#clip290)" d="M1953.72 32.4315 Q1947.73 32.4315 1944.24 37.1306 Q1940.76 41.7891 1940.76 49.9314 Q1940.76 58.0738 1944.2 62.7728 Q1947.69 67.4314 1953.72 67.4314 Q1959.68 67.4314 1963.16 62.7323 Q1966.64 58.0333 1966.64 49.9314 Q1966.64 41.8701 1963.16 37.1711 Q1959.68 32.4315 1953.72 32.4315 M1953.72 26.1121 Q1963.44 26.1121 1968.99 32.4315 Q1974.54 38.7509 1974.54 49.9314 Q1974.54 61.0714 1968.99 67.4314 Q1963.44 73.7508 1953.72 73.7508 Q1943.96 73.7508 1938.41 67.4314 Q1932.9 61.0714 1932.9 49.9314 Q1932.9 38.7509 1938.41 32.4315 Q1943.96 26.1121 1953.72 26.1121 Z" fill="#ffffff" fill-rule="evenodd" fill-opacity="1" /><path clip-path="url(#clip290)" d="M1986.9 27.2059 L1994.35 27.2059 L1994.35 72.576 L1986.9 72.576 L1986.9 27.2059 M1986.9 9.54393 L1994.35 9.54393 L1994.35 18.9825 L1986.9 18.9825 L1986.9 9.54393 Z" fill="#ffffff" fill-rule="evenodd" fill-opacity="1" /><path clip-path="url(#clip290)" d="M2047.66 45.1919 L2047.66 72.576 L2040.21 72.576 L2040.21 45.4349 Q2040.21 38.994 2037.7 35.7938 Q2035.18 32.5936 2030.16 32.5936 Q2024.13 32.5936 2020.64 36.4419 Q2017.16 40.2903 2017.16 46.9338 L2017.16 72.576 L2009.66 72.576 L2009.66 27.2059 L2017.16 27.2059 L2017.16 34.2544 Q2019.83 30.163 2023.44 28.1376 Q2027.08 26.1121 2031.82 26.1121 Q2039.64 26.1121 2043.65 30.9732 Q2047.66 35.7938 2047.66 45.1919 Z" fill="#ffffff" fill-rule="evenodd" fill-opacity="1" /><path clip-path="url(#clip290)" d="M2069.9 14.324 L2069.9 27.2059 L2085.25 27.2059 L2085.25 32.9987 L2069.9 32.9987 L2069.9 57.6282 Q2069.9 63.1779 2071.4 64.7578 Q2072.94 66.3376 2077.6 66.3376 L2085.25 66.3376 L2085.25 72.576 L2077.6 72.576 Q2068.97 72.576 2065.69 69.3758 Q2062.41 66.1351 2062.41 57.6282 L2062.41 32.9987 L2056.94 32.9987 L2056.94 27.2059 L2062.41 27.2059 L2062.41 14.324 L2069.9 14.324 Z" fill="#ffffff" fill-rule="evenodd" fill-opacity="1" /><polyline clip-path="url(#clip292)" style="stroke:#009af9; stroke-linecap:round; stroke-linejoin:round; stroke-width:4; stroke-opacity:1; fill:none" points="
  222.69,1211.1 224.241,1211.1 225.792,1211.1 227.344,1211.1 228.895,1211.1 230.447,1211.1 231.998,1211.1 233.55,1211.1 235.101,1211.1 236.652,1211.1 
  238.204,1211.1 239.755,1211.1 241.307,1211.1 242.858,1211.1 244.409,1211.1 245.961,1211.1 247.512,1211.1 249.064,1211.1 250.615,1211.1 252.166,1211.1 
  253.718,1211.1 255.269,1211.1 256.821,1211.1 258.372,1211.1 259.923,1211.1 261.475,1211.1 263.026,1211.1 264.578,1211.1 266.129,1211.1 267.68,1211.1 
  269.232,1211.1 270.783,1211.1 272.335,1211.1 273.886,1211.1 275.438,1211.1 276.989,1211.1 278.54,1211.1 280.092,1211.1 281.643,1211.1 283.195,1211.1 
  284.746,1211.1 286.297,1211.1 287.849,1211.1 289.4,1211.1 290.952,1211.1 292.503,1211.1 294.054,1211.1 295.606,1211.1 297.157,1211.1 298.709,1211.1 
  300.26,1211.1 301.811,1211.1 303.363,1211.1 304.914,1211.1 306.466,1211.1 308.017,1211.1 309.568,1211.1 311.12,1211.1 312.671,1211.1 314.223,1211.1 
  315.774,1211.1 317.326,1211.1 318.877,1211.1 320.428,1211.1 321.98,1211.1 323.531,1211.1 325.083,1211.1 326.634,1211.1 328.185,1211.1 329.737,1211.1 
  331.288,1211.1 332.84,1211.1 334.391,1211.1 335.942,1211.1 337.494,1211.1 339.045,1211.1 340.597,1211.1 342.148,1211.1 343.699,1211.1 345.251,1211.1 
  346.802,1211.1 348.354,1211.1 349.905,1211.1 351.456,1211.1 353.008,1211.1 354.559,1211.1 356.111,1211.1 357.662,1211.1 359.213,1211.1 360.765,1211.1 
  362.316,1211.1 363.868,1211.1 365.419,1211.1 366.971,1211.1 368.522,1211.1 370.073,1211.1 371.625,1211.1 373.176,1211.1 374.728,1211.1 376.279,1211.1 
  377.83,1211.1 379.382,1211.1 380.933,1211.1 382.485,1211.1 384.036,1211.1 385.587,1211.1 387.139,1211.1 388.69,1211.1 390.242,1211.1 391.793,1211.1 
  393.344,1211.1 394.896,1211.1 396.447,1211.1 397.999,1211.1 399.55,1211.1 401.101,1211.1 402.653,1211.1 404.204,1211.1 405.756,1211.1 407.307,1211.1 
  408.859,1211.1 410.41,1211.1 411.961,1211.1 413.513,1211.1 415.064,1211.1 416.616,1211.1 418.167,1211.1 419.718,1211.1 421.27,1211.1 422.821,1211.1 
  424.373,1211.1 425.924,1211.1 427.475,1211.1 429.027,1211.1 430.578,1211.1 432.13,1211.1 433.681,1211.1 435.232,1211.1 436.784,1211.1 438.335,1211.1 
  439.887,1211.1 441.438,1211.1 442.989,1211.1 444.541,1211.1 446.092,1211.1 447.644,1211.1 449.195,1211.1 450.747,1211.1 452.298,1211.1 453.849,1211.1 
  455.401,1211.1 456.952,1211.1 458.504,1211.1 460.055,1211.1 461.606,1211.1 463.158,1211.1 464.709,1211.1 466.261,1211.1 467.812,1211.1 469.363,1211.1 
  470.915,1211.1 472.466,1211.1 474.018,1211.1 475.569,1211.1 477.12,1211.1 478.672,1211.1 480.223,1211.1 481.775,1211.1 483.326,1211.1 484.877,1211.1 
  486.429,1211.1 487.98,1211.1 489.532,1211.1 491.083,1211.1 492.634,1211.1 494.186,1211.1 495.737,1211.1 497.289,1211.1 498.84,1211.1 500.392,1211.1 
  501.943,1211.1 503.494,1211.1 505.046,1211.1 506.597,1211.1 508.149,1211.1 509.7,1211.1 511.251,1211.1 512.803,1211.1 514.354,1211.1 515.906,1211.1 
  517.457,1211.1 519.008,1211.1 520.56,1211.1 522.111,1211.1 523.663,1211.1 525.214,1211.1 526.765,1211.1 528.317,1211.1 529.868,1211.1 531.42,1211.1 
  532.971,1211.1 534.522,1211.1 536.074,1211.1 537.625,1211.1 539.177,1211.1 540.728,1211.1 542.28,1211.1 543.831,1211.1 545.382,1211.1 546.934,1211.1 
  548.485,1211.1 550.037,1211.1 551.588,1211.1 553.139,1211.1 554.691,1211.1 556.242,1211.1 557.794,1211.1 559.345,1211.1 560.896,1211.1 562.448,1211.1 
  563.999,1211.1 565.551,1211.1 567.102,1211.1 568.653,1211.1 570.205,1211.1 571.756,1211.1 573.308,1211.1 574.859,1211.1 576.41,1211.1 577.962,1211.1 
  579.513,1211.1 581.065,1211.1 582.616,1211.1 584.168,1211.1 585.719,1211.1 587.27,1211.1 588.822,1211.1 590.373,1211.1 591.925,1211.1 593.476,1211.1 
  595.027,1211.1 596.579,1211.1 598.13,1211.1 599.682,1211.1 601.233,1211.1 602.784,1211.1 604.336,1211.1 605.887,1211.1 607.439,1211.1 608.99,1211.1 
  610.541,1211.1 612.093,1211.1 613.644,1211.1 615.196,1211.1 616.747,1211.1 618.298,1211.1 619.85,1211.1 621.401,1211.1 622.953,1211.1 624.504,1211.1 
  626.055,1211.1 627.607,1211.1 629.158,1211.1 630.71,1211.1 632.261,1211.1 633.813,1211.1 635.364,1211.1 636.915,1211.1 638.467,1211.1 640.018,1211.1 
  641.57,1211.1 643.121,1211.1 644.672,1211.1 646.224,1211.1 647.775,1211.1 649.327,1211.1 650.878,1211.1 652.429,1211.1 653.981,1211.1 655.532,1211.1 
  657.084,1211.1 658.635,1211.1 660.186,1211.1 661.738,1211.1 663.289,1211.1 664.841,1211.1 666.392,1211.1 667.943,1211.1 669.495,1211.1 671.046,1211.1 
  672.598,1211.1 674.149,1211.1 675.701,1211.1 677.252,1211.1 678.803,1211.1 680.355,1211.1 681.906,1211.1 683.458,1211.1 685.009,1211.1 686.56,1211.1 
  688.112,1211.1 689.663,1211.1 691.215,1211.1 692.766,1211.1 694.317,1211.1 695.869,1211.1 697.42,1211.1 698.972,1211.1 700.523,1211.1 702.074,1211.1 
  703.626,1211.1 705.177,1211.1 706.729,1211.1 708.28,1211.1 709.831,1211.1 711.383,1211.1 712.934,1211.1 714.486,1211.1 716.037,1211.1 717.588,1211.1 
  719.14,1211.1 720.691,1211.1 722.243,1211.1 723.794,1211.1 725.346,1211.1 726.897,1211.1 728.448,1211.1 730,1211.1 731.551,1211.1 733.103,1211.1 
  734.654,1211.1 736.205,1211.1 737.757,1211.1 739.308,1211.1 740.86,1211.1 742.411,1211.1 743.962,1211.1 745.514,1211.1 747.065,1211.1 748.617,1211.1 
  750.168,1211.1 751.719,1211.1 753.271,1211.1 754.822,1211.1 756.374,1211.1 757.925,1211.1 759.476,1211.1 761.028,1211.1 762.579,1211.1 764.131,1211.1 
  765.682,1211.1 767.234,1211.1 768.785,1211.1 770.336,1211.1 771.888,1211.1 773.439,1211.1 774.991,1211.1 776.542,1211.1 778.093,1211.1 779.645,1211.1 
  781.196,1211.1 782.748,1211.1 784.299,1211.1 785.85,1211.1 787.402,1211.1 788.953,1211.1 790.505,1211.1 792.056,1211.1 793.607,1211.1 795.159,1211.1 
  796.71,1211.1 798.262,1211.1 799.813,1211.1 801.364,1211.1 802.916,1211.1 804.467,1211.1 806.019,1211.1 807.57,1211.1 809.122,1211.1 810.673,1211.1 
  812.224,1211.1 813.776,1211.1 815.327,1211.1 816.879,1211.1 818.43,1211.1 819.981,1211.1 821.533,1211.1 823.084,1211.1 824.636,1211.1 826.187,1211.1 
  827.738,1211.1 829.29,1211.1 830.841,1211.1 832.393,1211.1 833.944,1211.1 835.495,1211.1 837.047,1211.1 838.598,1211.1 840.15,1211.1 841.701,1211.1 
  843.252,1211.1 844.804,1211.1 846.355,1211.1 847.907,1211.1 849.458,1211.1 851.009,1211.1 852.561,1211.1 854.112,1211.1 855.664,1211.1 857.215,1211.1 
  858.767,1211.1 860.318,1211.1 861.869,1211.1 863.421,1211.1 864.972,1211.1 866.524,1211.1 868.075,1211.1 869.626,1211.1 871.178,1211.1 872.729,1211.1 
  874.281,1211.1 875.832,1211.1 877.383,1211.1 878.935,1211.1 880.486,1211.1 882.038,1211.1 883.589,1211.1 885.14,1211.1 886.692,1211.1 888.243,1211.1 
  889.795,1211.1 891.346,1211.1 892.897,1211.1 894.449,1211.1 896,1211.1 897.552,1211.1 899.103,1211.1 900.655,1211.1 902.206,1211.1 903.757,1211.1 
  905.309,1211.1 906.86,1211.1 908.412,1211.1 909.963,1211.1 911.514,1211.1 913.066,1211.1 914.617,1211.1 916.169,1211.1 917.72,1211.1 919.271,1211.1 
  920.823,1211.1 922.374,1211.1 923.926,1211.1 925.477,1211.1 927.028,1211.1 928.58,1211.1 930.131,1211.1 931.683,1211.1 933.234,1211.1 934.785,1211.1 
  936.337,1211.1 937.888,1211.1 939.44,1211.1 940.991,1211.1 942.543,1211.1 944.094,1211.1 945.645,1211.1 947.197,1211.1 948.748,1211.1 950.3,1211.1 
  951.851,1211.1 953.402,1211.1 954.954,1211.1 956.505,1211.1 958.057,1211.1 959.608,1211.1 961.159,1211.1 962.711,1211.1 964.262,1211.1 965.814,1211.1 
  967.365,1211.1 968.916,1211.1 970.468,1211.1 972.019,1211.1 973.571,1211.1 975.122,1211.1 976.673,1211.1 978.225,1211.1 979.776,1211.1 981.328,1211.1 
  982.879,1211.1 984.43,1211.1 985.982,1211.1 987.533,1211.1 989.085,1211.1 990.636,1211.1 992.188,1211.1 993.739,1211.1 995.29,1211.1 996.842,1211.1 
  998.393,1211.1 999.945,1211.1 1001.5,1211.1 1003.05,1211.1 1004.6,1211.1 1006.15,1211.1 1007.7,1211.1 1009.25,1211.1 1010.8,1211.1 1012.36,1211.1 
  1013.91,1211.1 1015.46,1211.1 1017.01,1211.1 1018.56,1211.1 1020.11,1211.1 1021.66,1211.1 1023.22,1211.1 1024.77,1211.1 1026.32,1211.1 1027.87,1211.1 
  1029.42,1211.1 1030.97,1211.1 1032.52,1211.1 1034.08,1211.1 1035.63,1211.1 1037.18,1211.1 1038.73,1211.1 1040.28,1211.1 1041.83,1211.1 1043.38,1211.1 
  1044.94,1211.1 1046.49,1211.1 1048.04,1211.1 1049.59,1211.1 1051.14,1211.1 1052.69,1211.1 1054.24,1211.1 1055.8,1211.1 1057.35,1211.1 1058.9,1211.1 
  1060.45,1211.1 1062,1211.1 1063.55,1211.1 1065.1,1211.1 1066.66,1211.1 1068.21,1211.1 1069.76,1211.1 1071.31,1211.1 1072.86,1211.1 1074.41,1211.1 
  1075.96,1211.1 1077.51,1211.1 1079.07,1211.1 1080.62,1211.1 1082.17,1211.1 1083.72,1211.1 1085.27,1211.1 1086.82,1211.1 1088.37,1211.1 1089.93,1211.1 
  1091.48,1211.1 1093.03,1211.1 1094.58,1211.1 1096.13,1211.1 1097.68,1211.1 1099.23,1211.1 1100.79,1211.1 1102.34,1211.1 1103.89,1211.1 1105.44,1211.1 
  1106.99,1211.1 1108.54,1211.1 1110.09,1211.1 1111.65,1211.1 1113.2,1211.1 1114.75,1211.1 1116.3,1211.1 1117.85,1211.1 1119.4,1211.1 1120.95,1211.1 
  1122.51,1211.1 1124.06,1211.1 1125.61,1211.1 1127.16,1211.1 1128.71,1211.1 1130.26,1211.1 1131.81,1211.1 1133.37,1211.1 1134.92,1211.1 1136.47,1211.1 
  1138.02,1211.1 1139.57,1211.1 1141.12,1211.1 1142.67,1211.1 1144.23,1211.1 1145.78,1211.1 1147.33,1211.1 1148.88,1211.1 1150.43,1211.1 1151.98,1211.1 
  1153.53,1211.1 1155.09,1211.1 1156.64,1211.1 1158.19,1211.1 1159.74,1211.1 1161.29,1211.1 1162.84,1211.1 1164.39,1211.1 1165.95,1211.1 1167.5,1211.1 
  1169.05,1211.1 1170.6,1211.1 1172.15,1211.1 1173.7,1211.1 1175.25,1211.1 1176.8,1211.1 1178.36,1211.1 1179.91,1211.1 1181.46,1211.1 1183.01,1211.1 
  1184.56,1211.1 1186.11,1211.1 1187.66,1211.1 1189.22,1211.1 1190.77,1211.1 1192.32,1211.1 1193.87,1211.1 1195.42,1211.1 1196.97,1211.1 1198.52,1211.09 
  1200.08,1211.09 1201.63,1211.08 1203.18,1211.06 1204.73,1211.02 1206.28,1210.96 1207.83,1210.85 1209.38,1210.67 1210.94,1210.38 1212.49,1209.9 1214.04,1209.15 
  1215.59,1207.99 1217.14,1206.23 1218.69,1203.62 1220.24,1199.83 1221.8,1194.44 1223.35,1186.92 1224.9,1176.65 1226.45,1162.91 1228,1144.89 1229.55,1121.76 
  1231.1,1092.69 1232.66,1056.91 1234.21,1013.81 1235.76,963.026 1237.31,904.516 1238.86,838.645 1240.41,766.253 1241.96,688.68 1243.52,607.761 1245.07,525.781 
  1246.62,445.378 1248.17,369.405 1249.72,300.768 1251.27,242.237 1252.82,196.258 1254.38,164.783 1255.93,149.13 1257.48,149.896 1259.03,166.914 1260.58,199.281 
  1262.13,245.436 1263.68,303.278 1265.24,370.327 1266.79,443.894 1268.34,521.254 1269.89,599.807 1271.44,677.206 1272.99,751.459 1274.54,820.987 1276.09,884.649 
  1277.65,941.728 1279.2,991.9 1280.75,1035.17 1282.3,1071.83 1283.85,1102.33 1285.4,1127.29 1286.95,1147.38 1288.51,1163.3 1290.06,1175.7 1291.61,1185.23 
  1293.16,1192.44 1294.71,1197.81 1296.26,1201.75 1297.81,1204.61 1299.37,1206.65 1300.92,1208.09 1302.47,1209.09 1304.02,1209.77 1305.57,1210.23 1307.12,1210.54 
  1308.67,1210.74 1310.23,1210.88 1311.78,1210.96 1313.33,1211.01 1314.88,1211.05 1316.43,1211.07 1317.98,1211.08 1319.53,1211.09 1321.09,1211.09 1322.64,1211.1 
  1324.19,1211.1 1325.74,1211.1 1327.29,1211.1 1328.84,1211.1 1330.39,1211.1 1331.95,1211.1 1333.5,1211.1 1335.05,1211.1 1336.6,1211.1 1338.15,1211.1 
  1339.7,1211.1 1341.25,1211.1 1342.81,1211.1 1344.36,1211.1 1345.91,1211.1 1347.46,1211.1 1349.01,1211.1 1350.56,1211.1 1352.11,1211.1 1353.67,1211.1 
  1355.22,1211.1 1356.77,1211.1 1358.32,1211.1 1359.87,1211.1 1361.42,1211.1 1362.97,1211.1 1364.53,1211.1 1366.08,1211.1 1367.63,1211.1 1369.18,1211.1 
  1370.73,1211.1 1372.28,1211.1 1373.83,1211.1 1375.39,1211.1 1376.94,1211.1 1378.49,1211.1 1380.04,1211.1 1381.59,1211.1 1383.14,1211.1 1384.69,1211.1 
  1386.24,1211.1 1387.8,1211.1 1389.35,1211.1 1390.9,1211.1 1392.45,1211.1 1394,1211.1 1395.55,1211.1 1397.1,1211.1 1398.66,1211.1 1400.21,1211.1 
  1401.76,1211.1 1403.31,1211.1 1404.86,1211.1 1406.41,1211.1 1407.96,1211.1 1409.52,1211.1 1411.07,1211.1 1412.62,1211.1 1414.17,1211.1 1415.72,1211.1 
  1417.27,1211.1 1418.82,1211.1 1420.38,1211.1 1421.93,1211.1 1423.48,1211.1 1425.03,1211.1 1426.58,1211.1 1428.13,1211.1 1429.68,1211.1 1431.24,1211.1 
  1432.79,1211.1 1434.34,1211.1 1435.89,1211.1 1437.44,1211.1 1438.99,1211.1 1440.54,1211.1 1442.1,1211.1 1443.65,1211.1 1445.2,1211.1 1446.75,1211.1 
  1448.3,1211.1 1449.85,1211.1 1451.4,1211.1 1452.96,1211.1 1454.51,1211.1 1456.06,1211.1 1457.61,1211.1 1459.16,1211.1 1460.71,1211.1 1462.26,1211.1 
  1463.82,1211.1 1465.37,1211.1 1466.92,1211.1 1468.47,1211.1 1470.02,1211.1 1471.57,1211.1 1473.12,1211.1 1474.68,1211.1 1476.23,1211.1 1477.78,1211.1 
  1479.33,1211.1 1480.88,1211.1 1482.43,1211.1 1483.98,1211.1 1485.53,1211.1 1487.09,1211.1 1488.64,1211.1 1490.19,1211.1 1491.74,1211.1 1493.29,1211.1 
  1494.84,1211.1 1496.39,1211.1 1497.95,1211.1 1499.5,1211.1 1501.05,1211.1 1502.6,1211.1 1504.15,1211.1 1505.7,1211.1 1507.25,1211.1 1508.81,1211.1 
  1510.36,1211.1 1511.91,1211.1 1513.46,1211.1 1515.01,1211.1 1516.56,1211.1 1518.11,1211.1 1519.67,1211.1 1521.22,1211.1 1522.77,1211.1 1524.32,1211.1 
  1525.87,1211.1 1527.42,1211.1 1528.97,1211.1 1530.53,1211.1 1532.08,1211.1 1533.63,1211.1 1535.18,1211.1 1536.73,1211.1 1538.28,1211.1 1539.83,1211.1 
  1541.39,1211.1 1542.94,1211.1 1544.49,1211.1 1546.04,1211.1 1547.59,1211.1 1549.14,1211.1 1550.69,1211.1 1552.25,1211.1 1553.8,1211.1 1555.35,1211.1 
  1556.9,1211.1 1558.45,1211.1 1560,1211.1 1561.55,1211.1 1563.11,1211.1 1564.66,1211.1 1566.21,1211.1 1567.76,1211.1 1569.31,1211.1 1570.86,1211.1 
  1572.41,1211.1 1573.97,1211.1 1575.52,1211.1 1577.07,1211.1 1578.62,1211.1 1580.17,1211.1 1581.72,1211.1 1583.27,1211.1 1584.82,1211.1 1586.38,1211.1 
  1587.93,1211.1 1589.48,1211.1 1591.03,1211.1 1592.58,1211.1 1594.13,1211.1 1595.68,1211.1 1597.24,1211.1 1598.79,1211.1 1600.34,1211.1 1601.89,1211.1 
  1603.44,1211.1 1604.99,1211.1 1606.54,1211.1 1608.1,1211.1 1609.65,1211.1 1611.2,1211.1 1612.75,1211.1 1614.3,1211.1 1615.85,1211.1 1617.4,1211.1 
  1618.96,1211.1 1620.51,1211.1 1622.06,1211.1 1623.61,1211.1 1625.16,1211.1 1626.71,1211.1 1628.26,1211.1 1629.82,1211.1 1631.37,1211.1 1632.92,1211.1 
  1634.47,1211.1 1636.02,1211.1 1637.57,1211.1 1639.12,1211.1 1640.68,1211.1 1642.23,1211.1 1643.78,1211.1 1645.33,1211.1 1646.88,1211.1 1648.43,1211.1 
  1649.98,1211.1 1651.54,1211.1 1653.09,1211.1 1654.64,1211.1 1656.19,1211.1 1657.74,1211.1 1659.29,1211.1 1660.84,1211.1 1662.4,1211.1 1663.95,1211.1 
  1665.5,1211.1 1667.05,1211.1 1668.6,1211.1 1670.15,1211.1 1671.7,1211.1 1673.26,1211.1 1674.81,1211.1 1676.36,1211.1 1677.91,1211.1 1679.46,1211.1 
  1681.01,1211.1 1682.56,1211.1 1684.12,1211.1 1685.67,1211.1 1687.22,1211.1 1688.77,1211.1 1690.32,1211.1 1691.87,1211.1 1693.42,1211.1 1694.97,1211.1 
  1696.53,1211.1 1698.08,1211.1 1699.63,1211.1 1701.18,1211.1 1702.73,1211.1 1704.28,1211.1 1705.83,1211.1 1707.39,1211.1 1708.94,1211.1 1710.49,1211.1 
  1712.04,1211.1 1713.59,1211.1 1715.14,1211.1 1716.69,1211.1 1718.25,1211.1 1719.8,1211.1 1721.35,1211.1 1722.9,1211.1 1724.45,1211.1 1726,1211.1 
  1727.55,1211.1 1729.11,1211.1 1730.66,1211.1 1732.21,1211.1 1733.76,1211.1 1735.31,1211.1 1736.86,1211.1 1738.41,1211.1 1739.97,1211.1 1741.52,1211.1 
  1743.07,1211.1 1744.62,1211.1 1746.17,1211.1 1747.72,1211.1 1749.27,1211.1 1750.83,1211.1 1752.38,1211.1 1753.93,1211.1 1755.48,1211.1 1757.03,1211.1 
  1758.58,1211.1 1760.13,1211.1 1761.69,1211.1 1763.24,1211.1 1764.79,1211.1 1766.34,1211.1 1767.89,1211.1 1769.44,1211.1 1770.99,1211.1 1772.55,1211.1 
  1774.1,1211.1 1775.65,1211.1 1777.2,1211.1 1778.75,1211.1 1780.3,1211.1 1781.85,1211.1 1783.41,1211.1 1784.96,1211.1 1786.51,1211.1 1788.06,1211.1 
  1789.61,1211.1 1791.16,1211.1 1792.71,1211.1 1794.26,1211.1 1795.82,1211.1 1797.37,1211.1 1798.92,1211.1 1800.47,1211.1 1802.02,1211.1 1803.57,1211.1 
  1805.12,1211.1 1806.68,1211.1 1808.23,1211.1 1809.78,1211.1 1811.33,1211.1 1812.88,1211.1 1814.43,1211.1 1815.98,1211.1 1817.54,1211.1 1819.09,1211.1 
  1820.64,1211.1 1822.19,1211.1 1823.74,1211.1 1825.29,1211.1 1826.84,1211.1 1828.4,1211.1 1829.95,1211.1 1831.5,1211.1 1833.05,1211.1 1834.6,1211.1 
  1836.15,1211.1 1837.7,1211.1 1839.26,1211.1 1840.81,1211.1 1842.36,1211.1 1843.91,1211.1 1845.46,1211.1 1847.01,1211.1 1848.56,1211.1 1850.12,1211.1 
  1851.67,1211.1 1853.22,1211.1 1854.77,1211.1 1856.32,1211.1 1857.87,1211.1 1859.42,1211.1 1860.98,1211.1 1862.53,1211.1 1864.08,1211.1 1865.63,1211.1 
  1867.18,1211.1 1868.73,1211.1 1870.28,1211.1 1871.84,1211.1 1873.39,1211.1 1874.94,1211.1 1876.49,1211.1 1878.04,1211.1 1879.59,1211.1 1881.14,1211.1 
  1882.7,1211.1 1884.25,1211.1 1885.8,1211.1 1887.35,1211.1 1888.9,1211.1 1890.45,1211.1 1892,1211.1 1893.55,1211.1 1895.11,1211.1 1896.66,1211.1 
  1898.21,1211.1 1899.76,1211.1 1901.31,1211.1 1902.86,1211.1 1904.41,1211.1 1905.97,1211.1 1907.52,1211.1 1909.07,1211.1 1910.62,1211.1 1912.17,1211.1 
  1913.72,1211.1 1915.27,1211.1 1916.83,1211.1 1918.38,1211.1 1919.93,1211.1 1921.48,1211.1 1923.03,1211.1 1924.58,1211.1 1926.13,1211.1 1927.69,1211.1 
  1929.24,1211.1 1930.79,1211.1 1932.34,1211.1 1933.89,1211.1 1935.44,1211.1 1936.99,1211.1 1938.55,1211.1 1940.1,1211.1 1941.65,1211.1 1943.2,1211.1 
  1944.75,1211.1 1946.3,1211.1 1947.85,1211.1 1949.41,1211.1 1950.96,1211.1 1952.51,1211.1 1954.06,1211.1 1955.61,1211.1 1957.16,1211.1 1958.71,1211.1 
  1960.27,1211.1 1961.82,1211.1 1963.37,1211.1 1964.92,1211.1 1966.47,1211.1 1968.02,1211.1 1969.57,1211.1 1971.13,1211.1 1972.68,1211.1 1974.23,1211.1 
  1975.78,1211.1 1977.33,1211.1 1978.88,1211.1 1980.43,1211.1 1981.99,1211.1 1983.54,1211.1 1985.09,1211.1 1986.64,1211.1 1988.19,1211.1 1989.74,1211.1 
  1991.29,1211.1 1992.85,1211.1 1994.4,1211.1 1995.95,1211.1 1997.5,1211.1 1999.05,1211.1 2000.6,1211.1 2002.15,1211.1 2003.7,1211.1 2005.26,1211.1 
  2006.81,1211.1 2008.36,1211.1 2009.91,1211.1 2011.46,1211.1 2013.01,1211.1 2014.56,1211.1 2016.12,1211.1 2017.67,1211.1 2019.22,1211.1 2020.77,1211.1 
  2022.32,1211.1 2023.87,1211.1 2025.42,1211.1 2026.98,1211.1 2028.53,1211.1 2030.08,1211.1 2031.63,1211.1 2033.18,1211.1 2034.73,1211.1 2036.28,1211.1 
  2037.84,1211.1 2039.39,1211.1 2040.94,1211.1 2042.49,1211.1 2044.04,1211.1 2045.59,1211.1 2047.14,1211.1 2048.7,1211.1 2050.25,1211.1 2051.8,1211.1 
  2053.35,1211.1 2054.9,1211.1 2056.45,1211.1 2058,1211.1 2059.56,1211.1 2061.11,1211.1 2062.66,1211.1 2064.21,1211.1 2065.76,1211.1 2067.31,1211.1 
  2068.86,1211.1 2070.42,1211.1 2071.97,1211.1 2073.52,1211.1 2075.07,1211.1 2076.62,1211.1 2078.17,1211.1 2079.72,1211.1 2081.28,1211.1 2082.83,1211.1 
  2084.38,1211.1 2085.93,1211.1 2087.48,1211.1 2089.03,1211.1 2090.58,1211.1 2092.14,1211.1 2093.69,1211.1 2095.24,1211.1 2096.79,1211.1 2098.34,1211.1 
  2099.89,1211.1 2101.44,1211.1 2102.99,1211.1 2104.55,1211.1 2106.1,1211.1 2107.65,1211.1 2109.2,1211.1 2110.75,1211.1 2112.3,1211.1 2113.85,1211.1 
  2115.41,1211.1 2116.96,1211.1 2118.51,1211.1 2120.06,1211.1 2121.61,1211.1 2123.16,1211.1 2124.71,1211.1 2126.27,1211.1 2127.82,1211.1 2129.37,1211.1 
  2130.92,1211.1 2132.47,1211.1 2134.02,1211.1 2135.57,1211.1 2137.13,1211.1 2138.68,1211.1 2140.23,1211.1 2141.78,1211.1 2143.33,1211.1 2144.88,1211.1 
  2146.43,1211.1 2147.99,1211.1 2149.54,1211.1 2151.09,1211.1 2152.64,1211.1 2154.19,1211.1 2155.74,1211.1 2157.29,1211.1 2158.85,1211.1 2160.4,1211.1 
  2161.95,1211.1 2163.5,1211.1 2165.05,1211.1 2166.6,1211.1 2168.15,1211.1 2169.71,1211.1 2171.26,1211.1 2172.81,1211.1 2174.36,1211.1 2175.91,1211.1 
  2177.46,1211.1 2179.01,1211.1 2180.57,1211.1 2182.12,1211.1 2183.67,1211.1 2185.22,1211.1 2186.77,1211.1 2188.32,1211.1 2189.87,1211.1 2191.43,1211.1 
  2192.98,1211.1 2194.53,1211.1 2196.08,1211.1 2197.63,1211.1 2199.18,1211.1 2200.73,1211.1 2202.28,1211.1 2203.84,1211.1 2205.39,1211.1 2206.94,1211.1 
  2208.49,1211.1 2210.04,1211.1 2211.59,1211.1 2213.14,1211.1 2214.7,1211.1 2216.25,1211.1 2217.8,1211.1 2219.35,1211.1 2220.9,1211.1 2222.45,1211.1 
  2224,1211.1 2225.56,1211.1 2227.11,1211.1 2228.66,1211.1 2230.21,1211.1 2231.76,1211.1 2233.31,1211.1 2234.86,1211.1 2236.42,1211.1 2237.97,1211.1 
  2239.52,1211.1 2241.07,1211.1 2242.62,1211.1 2244.17,1211.1 2245.72,1211.1 2247.28,1211.1 2248.83,1211.1 2250.38,1211.1 2251.93,1211.1 2253.48,1211.1 
  2255.03,1211.1 2256.58,1211.1 2258.14,1211.1 2259.69,1211.1 2261.24,1211.1 2262.79,1211.1 2264.34,1211.1 2265.89,1211.1 2267.44,1211.1 2269,1211.1 
  2270.55,1211.1 2272.1,1211.1 2273.65,1211.1 2275.2,1211.1 2276.75,1211.1 2278.3,1211.1 2279.86,1211.1 2281.41,1211.1 2282.96,1211.1 2284.51,1211.1 
  2286.06,1211.1 2287.61,1211.1 2289.16,1211.1 2290.72,1211.1 
  "/>
<circle clip-path="url(#clip292)" cx="1256.96" cy="147.811" r="14.4" fill="#e26f46" fill-rule="evenodd" fill-opacity="1" stroke="#ffffff" stroke-opacity="1" stroke-width="2.8"/>
<path clip-path="url(#clip290)" d="
M1485.13 257.162 L2279.69 257.162 L2279.69 153.482 L1485.13 153.482  Z
  " fill="#a9a9a9" fill-rule="evenodd" fill-opacity="1"/>
<polyline clip-path="url(#clip290)" style="stroke:#ffffff; stroke-linecap:round; stroke-linejoin:round; stroke-width:4; stroke-opacity:1; fill:none" points="
  1485.13,257.162 2279.69,257.162 2279.69,153.482 1485.13,153.482 1485.13,257.162 
  "/>
<circle clip-path="url(#clip290)" cx="1582.56" cy="205.322" r="23.04" fill="#e26f46" fill-rule="evenodd" fill-opacity="1" stroke="#ffffff" stroke-opacity="1" stroke-width="4.48"/>
<path clip-path="url(#clip290)" d="M1679.98 188.042 L1686.95 188.042 L1695.77 211.56 L1704.64 188.042 L1711.6 188.042 L1711.6 222.602 L1707.04 222.602 L1707.04 192.255 L1698.13 215.958 L1693.43 215.958 L1684.52 192.255 L1684.52 222.602 L1679.98 222.602 L1679.98 188.042 Z" fill="#ffffff" fill-rule="evenodd" fill-opacity="1" /><path clip-path="url(#clip290)" d="M1732.48 209.569 Q1727.32 209.569 1725.33 210.75 Q1723.34 211.93 1723.34 214.778 Q1723.34 217.046 1724.82 218.389 Q1726.33 219.708 1728.9 219.708 Q1732.44 219.708 1734.57 217.208 Q1736.72 214.685 1736.72 210.518 L1736.72 209.569 L1732.48 209.569 M1740.98 207.81 L1740.98 222.602 L1736.72 222.602 L1736.72 218.667 Q1735.26 221.028 1733.09 222.162 Q1730.91 223.273 1727.76 223.273 Q1723.78 223.273 1721.42 221.051 Q1719.08 218.805 1719.08 215.055 Q1719.08 210.68 1722 208.458 Q1724.94 206.236 1730.75 206.236 L1736.72 206.236 L1736.72 205.819 Q1736.72 202.88 1734.78 201.282 Q1732.85 199.662 1729.36 199.662 Q1727.14 199.662 1725.03 200.194 Q1722.92 200.727 1720.98 201.792 L1720.98 197.856 Q1723.32 196.954 1725.52 196.514 Q1727.72 196.051 1729.8 196.051 Q1735.42 196.051 1738.2 198.968 Q1740.98 201.884 1740.98 207.81 Z" fill="#ffffff" fill-rule="evenodd" fill-opacity="1" /><path clip-path="url(#clip290)" d="M1771.3 196.676 L1761.93 209.292 L1771.79 222.602 L1766.77 222.602 L1759.22 212.417 L1751.67 222.602 L1746.65 222.602 L1756.72 209.037 L1747.51 196.676 L1752.53 196.676 L1759.41 205.912 L1766.28 196.676 L1771.3 196.676 Z" fill="#ffffff" fill-rule="evenodd" fill-opacity="1" /><path clip-path="url(#clip290)" d="M1777.81 196.676 L1782.07 196.676 L1782.07 222.602 L1777.81 222.602 L1777.81 196.676 M1777.81 186.583 L1782.07 186.583 L1782.07 191.977 L1777.81 191.977 L1777.81 186.583 Z" fill="#ffffff" fill-rule="evenodd" fill-opacity="1" /><path clip-path="url(#clip290)" d="M1811.16 201.653 Q1812.76 198.782 1814.98 197.417 Q1817.21 196.051 1820.22 196.051 Q1824.27 196.051 1826.47 198.898 Q1828.66 201.722 1828.66 206.954 L1828.66 222.602 L1824.38 222.602 L1824.38 207.093 Q1824.38 203.366 1823.06 201.56 Q1821.74 199.755 1819.03 199.755 Q1815.72 199.755 1813.8 201.954 Q1811.88 204.153 1811.88 207.949 L1811.88 222.602 L1807.6 222.602 L1807.6 207.093 Q1807.6 203.343 1806.28 201.56 Q1804.96 199.755 1802.21 199.755 Q1798.94 199.755 1797.02 201.977 Q1795.1 204.176 1795.1 207.949 L1795.1 222.602 L1790.82 222.602 L1790.82 196.676 L1795.1 196.676 L1795.1 200.704 Q1796.56 198.319 1798.6 197.185 Q1800.63 196.051 1803.43 196.051 Q1806.26 196.051 1808.22 197.486 Q1810.22 198.921 1811.16 201.653 Z" fill="#ffffff" fill-rule="evenodd" fill-opacity="1" /><path clip-path="url(#clip290)" d="M1836.72 212.37 L1836.72 196.676 L1840.98 196.676 L1840.98 212.208 Q1840.98 215.889 1842.41 217.741 Q1843.85 219.569 1846.72 219.569 Q1850.17 219.569 1852.16 217.37 Q1854.17 215.171 1854.17 211.375 L1854.17 196.676 L1858.43 196.676 L1858.43 222.602 L1854.17 222.602 L1854.17 218.62 Q1852.62 220.981 1850.56 222.139 Q1848.53 223.273 1845.82 223.273 Q1841.35 223.273 1839.03 220.495 Q1836.72 217.717 1836.72 212.37 M1847.44 196.051 L1847.44 196.051 Z" fill="#ffffff" fill-rule="evenodd" fill-opacity="1" /><path clip-path="url(#clip290)" d="M1887.39 201.653 Q1888.99 198.782 1891.21 197.417 Q1893.43 196.051 1896.44 196.051 Q1900.49 196.051 1902.69 198.898 Q1904.89 201.722 1904.89 206.954 L1904.89 222.602 L1900.61 222.602 L1900.61 207.093 Q1900.61 203.366 1899.29 201.56 Q1897.97 199.755 1895.26 199.755 Q1891.95 199.755 1890.03 201.954 Q1888.11 204.153 1888.11 207.949 L1888.11 222.602 L1883.83 222.602 L1883.83 207.093 Q1883.83 203.343 1882.51 201.56 Q1881.19 199.755 1878.43 199.755 Q1875.17 199.755 1873.25 201.977 Q1871.33 204.176 1871.33 207.949 L1871.33 222.602 L1867.04 222.602 L1867.04 196.676 L1871.33 196.676 L1871.33 200.704 Q1872.78 198.319 1874.82 197.185 Q1876.86 196.051 1879.66 196.051 Q1882.48 196.051 1884.45 197.486 Q1886.44 198.921 1887.39 201.653 Z" fill="#ffffff" fill-rule="evenodd" fill-opacity="1" /><path clip-path="url(#clip290)" d="M1954.52 190.704 L1954.52 195.634 Q1952.16 193.435 1949.47 192.347 Q1946.81 191.259 1943.8 191.259 Q1937.88 191.259 1934.73 194.894 Q1931.58 198.505 1931.58 205.356 Q1931.58 212.185 1934.73 215.819 Q1937.88 219.43 1943.8 219.43 Q1946.81 219.43 1949.47 218.342 Q1952.16 217.255 1954.52 215.055 L1954.52 219.94 Q1952.07 221.606 1949.31 222.44 Q1946.58 223.273 1943.53 223.273 Q1935.68 223.273 1931.16 218.481 Q1926.65 213.667 1926.65 205.356 Q1926.65 197.023 1931.16 192.232 Q1935.68 187.417 1943.53 187.417 Q1946.63 187.417 1949.36 188.25 Q1952.11 189.06 1954.52 190.704 Z" fill="#ffffff" fill-rule="evenodd" fill-opacity="1" /><path clip-path="url(#clip290)" d="M1971.6 199.662 Q1968.18 199.662 1966.19 202.347 Q1964.2 205.009 1964.2 209.662 Q1964.2 214.315 1966.16 217 Q1968.15 219.662 1971.6 219.662 Q1975.01 219.662 1977 216.977 Q1978.99 214.292 1978.99 209.662 Q1978.99 205.056 1977 202.37 Q1975.01 199.662 1971.6 199.662 M1971.6 196.051 Q1977.16 196.051 1980.33 199.662 Q1983.5 203.273 1983.5 209.662 Q1983.5 216.028 1980.33 219.662 Q1977.16 223.273 1971.6 223.273 Q1966.02 223.273 1962.85 219.662 Q1959.71 216.028 1959.71 209.662 Q1959.71 203.273 1962.85 199.662 Q1966.02 196.051 1971.6 196.051 Z" fill="#ffffff" fill-rule="evenodd" fill-opacity="1" /><path clip-path="url(#clip290)" d="M2012.11 206.954 L2012.11 222.602 L2007.85 222.602 L2007.85 207.093 Q2007.85 203.412 2006.42 201.583 Q2004.98 199.755 2002.11 199.755 Q1998.66 199.755 1996.67 201.954 Q1994.68 204.153 1994.68 207.949 L1994.68 222.602 L1990.4 222.602 L1990.4 196.676 L1994.68 196.676 L1994.68 200.704 Q1996.21 198.366 1998.27 197.208 Q2000.35 196.051 2003.06 196.051 Q2007.53 196.051 2009.82 198.829 Q2012.11 201.583 2012.11 206.954 Z" fill="#ffffff" fill-rule="evenodd" fill-opacity="1" /><path clip-path="url(#clip290)" d="M2039.27 197.671 L2039.27 201.653 Q2037.46 200.657 2035.63 200.171 Q2033.83 199.662 2031.97 199.662 Q2027.83 199.662 2025.54 202.301 Q2023.25 204.917 2023.25 209.662 Q2023.25 214.407 2025.54 217.046 Q2027.83 219.662 2031.97 219.662 Q2033.83 219.662 2035.63 219.176 Q2037.46 218.667 2039.27 217.671 L2039.27 221.606 Q2037.48 222.44 2035.56 222.856 Q2033.66 223.273 2031.51 223.273 Q2025.65 223.273 2022.21 219.592 Q2018.76 215.912 2018.76 209.662 Q2018.76 203.319 2022.23 199.685 Q2025.72 196.051 2031.79 196.051 Q2033.76 196.051 2035.63 196.468 Q2037.51 196.861 2039.27 197.671 Z" fill="#ffffff" fill-rule="evenodd" fill-opacity="1" /><path clip-path="url(#clip290)" d="M2068.85 208.574 L2068.85 210.657 L2049.27 210.657 Q2049.54 215.055 2051.9 217.37 Q2054.29 219.662 2058.52 219.662 Q2060.98 219.662 2063.27 219.06 Q2065.58 218.458 2067.85 217.255 L2067.85 221.282 Q2065.56 222.254 2063.15 222.764 Q2060.75 223.273 2058.27 223.273 Q2052.07 223.273 2048.43 219.662 Q2044.82 216.051 2044.82 209.893 Q2044.82 203.528 2048.25 199.801 Q2051.7 196.051 2057.53 196.051 Q2062.76 196.051 2065.79 199.431 Q2068.85 202.787 2068.85 208.574 M2064.59 207.324 Q2064.54 203.829 2062.62 201.745 Q2060.72 199.662 2057.58 199.662 Q2054.01 199.662 2051.86 201.676 Q2049.73 203.69 2049.4 207.347 L2064.59 207.324 Z" fill="#ffffff" fill-rule="evenodd" fill-opacity="1" /><path clip-path="url(#clip290)" d="M2097.39 206.954 L2097.39 222.602 L2093.13 222.602 L2093.13 207.093 Q2093.13 203.412 2091.7 201.583 Q2090.26 199.755 2087.39 199.755 Q2083.94 199.755 2081.95 201.954 Q2079.96 204.153 2079.96 207.949 L2079.96 222.602 L2075.68 222.602 L2075.68 196.676 L2079.96 196.676 L2079.96 200.704 Q2081.49 198.366 2083.55 197.208 Q2085.63 196.051 2088.34 196.051 Q2092.81 196.051 2095.1 198.829 Q2097.39 201.583 2097.39 206.954 Z" fill="#ffffff" fill-rule="evenodd" fill-opacity="1" /><path clip-path="url(#clip290)" d="M2110.1 189.315 L2110.1 196.676 L2118.87 196.676 L2118.87 199.986 L2110.1 199.986 L2110.1 214.06 Q2110.1 217.231 2110.95 218.134 Q2111.83 219.037 2114.5 219.037 L2118.87 219.037 L2118.87 222.602 L2114.5 222.602 Q2109.57 222.602 2107.69 220.773 Q2105.82 218.921 2105.82 214.06 L2105.82 199.986 L2102.69 199.986 L2102.69 196.676 L2105.82 196.676 L2105.82 189.315 L2110.1 189.315 Z" fill="#ffffff" fill-rule="evenodd" fill-opacity="1" /><path clip-path="url(#clip290)" d="M2139.5 200.657 Q2138.78 200.241 2137.92 200.056 Q2137.09 199.847 2136.07 199.847 Q2132.46 199.847 2130.51 202.208 Q2128.59 204.546 2128.59 208.944 L2128.59 222.602 L2124.31 222.602 L2124.31 196.676 L2128.59 196.676 L2128.59 200.704 Q2129.94 198.343 2132.09 197.208 Q2134.24 196.051 2137.32 196.051 Q2137.76 196.051 2138.29 196.12 Q2138.82 196.167 2139.47 196.282 L2139.5 200.657 Z" fill="#ffffff" fill-rule="evenodd" fill-opacity="1" /><path clip-path="url(#clip290)" d="M2155.75 209.569 Q2150.58 209.569 2148.59 210.75 Q2146.6 211.93 2146.6 214.778 Q2146.6 217.046 2148.08 218.389 Q2149.59 219.708 2152.16 219.708 Q2155.7 219.708 2157.83 217.208 Q2159.98 214.685 2159.98 210.518 L2159.98 209.569 L2155.75 209.569 M2164.24 207.81 L2164.24 222.602 L2159.98 222.602 L2159.98 218.667 Q2158.52 221.028 2156.35 222.162 Q2154.17 223.273 2151.02 223.273 Q2147.04 223.273 2144.68 221.051 Q2142.34 218.805 2142.34 215.055 Q2142.34 210.68 2145.26 208.458 Q2148.2 206.236 2154.01 206.236 L2159.98 206.236 L2159.98 205.819 Q2159.98 202.88 2158.04 201.282 Q2156.12 199.662 2152.62 199.662 Q2150.4 199.662 2148.29 200.194 Q2146.19 200.727 2144.24 201.792 L2144.24 197.856 Q2146.58 196.954 2148.78 196.514 Q2150.98 196.051 2153.06 196.051 Q2158.69 196.051 2161.46 198.968 Q2164.24 201.884 2164.24 207.81 Z" fill="#ffffff" fill-rule="evenodd" fill-opacity="1" /><path clip-path="url(#clip290)" d="M2177.23 189.315 L2177.23 196.676 L2186 196.676 L2186 199.986 L2177.23 199.986 L2177.23 214.06 Q2177.23 217.231 2178.08 218.134 Q2178.96 219.037 2181.63 219.037 L2186 219.037 L2186 222.602 L2181.63 222.602 Q2176.7 222.602 2174.82 220.773 Q2172.95 218.921 2172.95 214.06 L2172.95 199.986 L2169.82 199.986 L2169.82 196.676 L2172.95 196.676 L2172.95 189.315 L2177.23 189.315 Z" fill="#ffffff" fill-rule="evenodd" fill-opacity="1" /><path clip-path="url(#clip290)" d="M2191.6 196.676 L2195.86 196.676 L2195.86 222.602 L2191.6 222.602 L2191.6 196.676 M2191.6 186.583 L2195.86 186.583 L2195.86 191.977 L2191.6 191.977 L2191.6 186.583 Z" fill="#ffffff" fill-rule="evenodd" fill-opacity="1" /><path clip-path="url(#clip290)" d="M2214.82 199.662 Q2211.39 199.662 2209.4 202.347 Q2207.41 205.009 2207.41 209.662 Q2207.41 214.315 2209.38 217 Q2211.37 219.662 2214.82 219.662 Q2218.22 219.662 2220.21 216.977 Q2222.2 214.292 2222.2 209.662 Q2222.2 205.056 2220.21 202.37 Q2218.22 199.662 2214.82 199.662 M2214.82 196.051 Q2220.38 196.051 2223.55 199.662 Q2226.72 203.273 2226.72 209.662 Q2226.72 216.028 2223.55 219.662 Q2220.38 223.273 2214.82 223.273 Q2209.24 223.273 2206.07 219.662 Q2202.92 216.028 2202.92 209.662 Q2202.92 203.273 2206.07 199.662 Q2209.24 196.051 2214.82 196.051 Z" fill="#ffffff" fill-rule="evenodd" fill-opacity="1" /><path clip-path="url(#clip290)" d="M2255.33 206.954 L2255.33 222.602 L2251.07 222.602 L2251.07 207.093 Q2251.07 203.412 2249.63 201.583 Q2248.2 199.755 2245.33 199.755 Q2241.88 199.755 2239.89 201.954 Q2237.9 204.153 2237.9 207.949 L2237.9 222.602 L2233.62 222.602 L2233.62 196.676 L2237.9 196.676 L2237.9 200.704 Q2239.43 198.366 2241.49 197.208 Q2243.57 196.051 2246.28 196.051 Q2250.75 196.051 2253.04 198.829 Q2255.33 201.583 2255.33 206.954 Z" fill="#ffffff" fill-rule="evenodd" fill-opacity="1" /></svg>
