<?xml version="1.0" encoding="utf-8"?>
<svg xmlns="http://www.w3.org/2000/svg" xmlns:xlink="http://www.w3.org/1999/xlink" width="600" height="350" viewBox="0 0 2400 1400">
<defs>
  <clipPath id="clip450">
    <rect x="0" y="0" width="2400" height="1400"/>
  </clipPath>
</defs>
<path clip-path="url(#clip450)" d="
M0 1400 L2400 1400 L2400 0 L0 0  Z
  " fill="#a9a9a9" fill-rule="evenodd" fill-opacity="1"/>
<defs>
  <clipPath id="clip451">
    <rect x="480" y="0" width="1681" height="1400"/>
  </clipPath>
</defs>
<path clip-path="url(#clip450)" d="
M221.783 1243 L2352.76 1243 L2352.76 115.912 L221.783 115.912  Z
  " fill="#a9a9a9" fill-rule="evenodd" fill-opacity="1"/>
<defs>
  <clipPath id="clip452">
    <rect x="221" y="115" width="2132" height="1128"/>
  </clipPath>
</defs>
<polyline clip-path="url(#clip452)" style="stroke:#ffffff; stroke-linecap:round; stroke-linejoin:round; stroke-width:2; stroke-opacity:0.1; fill:none" points="
  407.053,1243 407.053,115.912 
  "/>
<polyline clip-path="url(#clip452)" style="stroke:#ffffff; stroke-linecap:round; stroke-linejoin:round; stroke-width:2; stroke-opacity:0.1; fill:none" points="
  762.938,1243 762.938,115.912 
  "/>
<polyline clip-path="url(#clip452)" style="stroke:#ffffff; stroke-linecap:round; stroke-linejoin:round; stroke-width:2; stroke-opacity:0.1; fill:none" points="
  1118.82,1243 1118.82,115.912 
  "/>
<polyline clip-path="url(#clip452)" style="stroke:#ffffff; stroke-linecap:round; stroke-linejoin:round; stroke-width:2; stroke-opacity:0.1; fill:none" points="
  1474.71,1243 1474.71,115.912 
  "/>
<polyline clip-path="url(#clip452)" style="stroke:#ffffff; stroke-linecap:round; stroke-linejoin:round; stroke-width:2; stroke-opacity:0.1; fill:none" points="
  1830.59,1243 1830.59,115.912 
  "/>
<polyline clip-path="url(#clip452)" style="stroke:#ffffff; stroke-linecap:round; stroke-linejoin:round; stroke-width:2; stroke-opacity:0.1; fill:none" points="
  2186.48,1243 2186.48,115.912 
  "/>
<polyline clip-path="url(#clip450)" style="stroke:#ffffff; stroke-linecap:round; stroke-linejoin:round; stroke-width:4; stroke-opacity:1; fill:none" points="
  221.783,1243 2352.76,1243 
  "/>
<polyline clip-path="url(#clip450)" style="stroke:#ffffff; stroke-linecap:round; stroke-linejoin:round; stroke-width:4; stroke-opacity:1; fill:none" points="
  407.053,1243 407.053,1224.1 
  "/>
<polyline clip-path="url(#clip450)" style="stroke:#ffffff; stroke-linecap:round; stroke-linejoin:round; stroke-width:4; stroke-opacity:1; fill:none" points="
  762.938,1243 762.938,1224.1 
  "/>
<polyline clip-path="url(#clip450)" style="stroke:#ffffff; stroke-linecap:round; stroke-linejoin:round; stroke-width:4; stroke-opacity:1; fill:none" points="
  1118.82,1243 1118.82,1224.1 
  "/>
<polyline clip-path="url(#clip450)" style="stroke:#ffffff; stroke-linecap:round; stroke-linejoin:round; stroke-width:4; stroke-opacity:1; fill:none" points="
  1474.71,1243 1474.71,1224.1 
  "/>
<polyline clip-path="url(#clip450)" style="stroke:#ffffff; stroke-linecap:round; stroke-linejoin:round; stroke-width:4; stroke-opacity:1; fill:none" points="
  1830.59,1243 1830.59,1224.1 
  "/>
<polyline clip-path="url(#clip450)" style="stroke:#ffffff; stroke-linecap:round; stroke-linejoin:round; stroke-width:4; stroke-opacity:1; fill:none" points="
  2186.48,1243 2186.48,1224.1 
  "/>
<path clip-path="url(#clip450)" d="M407.053 1275.45 L400.711 1292.65 L413.419 1292.65 L407.053 1275.45 M404.414 1270.84 L409.715 1270.84 L422.886 1305.4 L418.025 1305.4 L414.877 1296.53 L399.299 1296.53 L396.15 1305.4 L391.22 1305.4 L404.414 1270.84 Z" fill="#ffffff" fill-rule="evenodd" fill-opacity="1" /><path clip-path="url(#clip450)" d="M755.357 1288.9 L755.357 1301.56 L762.857 1301.56 Q766.631 1301.56 768.436 1300.01 Q770.265 1298.43 770.265 1295.21 Q770.265 1291.97 768.436 1290.45 Q766.631 1288.9 762.857 1288.9 L755.357 1288.9 M755.357 1274.68 L755.357 1285.1 L762.279 1285.1 Q765.705 1285.1 767.371 1283.83 Q769.061 1282.53 769.061 1279.89 Q769.061 1277.27 767.371 1275.98 Q765.705 1274.68 762.279 1274.68 L755.357 1274.68 M750.682 1270.84 L762.626 1270.84 Q767.973 1270.84 770.867 1273.06 Q773.76 1275.28 773.76 1279.38 Q773.76 1282.55 772.279 1284.43 Q770.797 1286.3 767.927 1286.77 Q771.376 1287.51 773.274 1289.87 Q775.195 1292.21 775.195 1295.72 Q775.195 1300.35 772.047 1302.88 Q768.899 1305.4 763.089 1305.4 L750.682 1305.4 L750.682 1270.84 Z" fill="#ffffff" fill-rule="evenodd" fill-opacity="1" /><path clip-path="url(#clip450)" d="M1132.76 1273.5 L1132.76 1278.43 Q1130.4 1276.23 1127.71 1275.15 Q1125.05 1274.06 1122.04 1274.06 Q1116.12 1274.06 1112.97 1277.69 Q1109.82 1281.3 1109.82 1288.15 Q1109.82 1294.98 1112.97 1298.62 Q1116.12 1302.23 1122.04 1302.23 Q1125.05 1302.23 1127.71 1301.14 Q1130.4 1300.05 1132.76 1297.85 L1132.76 1302.74 Q1130.31 1304.4 1127.55 1305.24 Q1124.82 1306.07 1121.76 1306.07 Q1113.92 1306.07 1109.4 1301.28 Q1104.89 1296.46 1104.89 1288.15 Q1104.89 1279.82 1109.4 1275.03 Q1113.92 1270.21 1121.76 1270.21 Q1124.87 1270.21 1127.6 1271.05 Q1130.35 1271.86 1132.76 1273.5 Z" fill="#ffffff" fill-rule="evenodd" fill-opacity="1" /><path clip-path="url(#clip450)" d="M1464.86 1274.68 L1464.86 1301.56 L1470.51 1301.56 Q1477.66 1301.56 1480.97 1298.32 Q1484.3 1295.08 1484.3 1288.09 Q1484.3 1281.14 1480.97 1277.92 Q1477.66 1274.68 1470.51 1274.68 L1464.86 1274.68 M1460.18 1270.84 L1469.79 1270.84 Q1479.84 1270.84 1484.54 1275.03 Q1489.23 1279.2 1489.23 1288.09 Q1489.23 1297.02 1484.51 1301.21 Q1479.79 1305.4 1469.79 1305.4 L1460.18 1305.4 L1460.18 1270.84 Z" fill="#ffffff" fill-rule="evenodd" fill-opacity="1" /><path clip-path="url(#clip450)" d="M1819.46 1270.84 L1841.31 1270.84 L1841.31 1274.78 L1824.14 1274.78 L1824.14 1285.01 L1840.59 1285.01 L1840.59 1288.94 L1824.14 1288.94 L1824.14 1301.46 L1841.73 1301.46 L1841.73 1305.4 L1819.46 1305.4 L1819.46 1270.84 Z" fill="#ffffff" fill-rule="evenodd" fill-opacity="1" /><path clip-path="url(#clip450)" d="M2176.55 1270.84 L2196.41 1270.84 L2196.41 1274.78 L2181.22 1274.78 L2181.22 1284.96 L2194.93 1284.96 L2194.93 1288.9 L2181.22 1288.9 L2181.22 1305.4 L2176.55 1305.4 L2176.55 1270.84 Z" fill="#ffffff" fill-rule="evenodd" fill-opacity="1" /><path clip-path="url(#clip450)" d="M1020.81 1343.8 L1013.68 1363.15 L1027.97 1363.15 L1020.81 1343.8 M1017.84 1338.62 L1023.81 1338.62 L1038.62 1377.5 L1033.16 1377.5 L1029.61 1367.52 L1012.09 1367.52 L1008.55 1377.5 L1003 1377.5 L1017.84 1338.62 Z" fill="#ffffff" fill-rule="evenodd" fill-opacity="1" /><path clip-path="url(#clip450)" d="M1047.9 1340.05 L1047.9 1348.33 L1057.77 1348.33 L1057.77 1352.05 L1047.9 1352.05 L1047.9 1367.89 Q1047.9 1371.45 1048.86 1372.47 Q1049.85 1373.49 1052.84 1373.49 L1057.77 1373.49 L1057.77 1377.5 L1052.84 1377.5 Q1047.3 1377.5 1045.19 1375.44 Q1043.08 1373.36 1043.08 1367.89 L1043.08 1352.05 L1039.56 1352.05 L1039.56 1348.33 L1043.08 1348.33 L1043.08 1340.05 L1047.9 1340.05 Z" fill="#ffffff" fill-rule="evenodd" fill-opacity="1" /><path clip-path="url(#clip450)" d="M1086.78 1353.93 Q1088.57 1350.7 1091.07 1349.16 Q1093.57 1347.63 1096.96 1347.63 Q1101.52 1347.63 1103.99 1350.83 Q1106.46 1354.01 1106.46 1359.89 L1106.46 1377.5 L1101.65 1377.5 L1101.65 1360.05 Q1101.65 1355.86 1100.16 1353.82 Q1098.68 1351.79 1095.63 1351.79 Q1091.91 1351.79 1089.74 1354.27 Q1087.58 1356.74 1087.58 1361.01 L1087.58 1377.5 L1082.77 1377.5 L1082.77 1360.05 Q1082.77 1355.83 1081.28 1353.82 Q1079.8 1351.79 1076.7 1351.79 Q1073.03 1351.79 1070.86 1354.29 Q1068.7 1356.77 1068.7 1361.01 L1068.7 1377.5 L1063.89 1377.5 L1063.89 1348.33 L1068.7 1348.33 L1068.7 1352.86 Q1070.34 1350.18 1072.64 1348.9 Q1074.93 1347.63 1078.08 1347.63 Q1081.25 1347.63 1083.47 1349.24 Q1085.71 1350.86 1086.78 1353.93 Z" fill="#ffffff" fill-rule="evenodd" fill-opacity="1" /><path clip-path="url(#clip450)" d="M1127.32 1351.69 Q1123.47 1351.69 1121.23 1354.71 Q1118.99 1357.7 1118.99 1362.94 Q1118.99 1368.17 1121.2 1371.19 Q1123.44 1374.19 1127.32 1374.19 Q1131.15 1374.19 1133.39 1371.17 Q1135.63 1368.15 1135.63 1362.94 Q1135.63 1357.76 1133.39 1354.74 Q1131.15 1351.69 1127.32 1351.69 M1127.32 1347.63 Q1133.57 1347.63 1137.14 1351.69 Q1140.71 1355.75 1140.71 1362.94 Q1140.71 1370.1 1137.14 1374.19 Q1133.57 1378.25 1127.32 1378.25 Q1121.05 1378.25 1117.48 1374.19 Q1113.94 1370.1 1113.94 1362.94 Q1113.94 1355.75 1117.48 1351.69 Q1121.05 1347.63 1127.32 1347.63 Z" fill="#ffffff" fill-rule="evenodd" fill-opacity="1" /><path clip-path="url(#clip450)" d="M1167.24 1349.19 L1167.24 1353.72 Q1165.21 1352.68 1163.03 1352.16 Q1160.84 1351.64 1158.49 1351.64 Q1154.93 1351.64 1153.13 1352.73 Q1151.36 1353.82 1151.36 1356.01 Q1151.36 1357.68 1152.63 1358.64 Q1153.91 1359.58 1157.76 1360.44 L1159.41 1360.8 Q1164.51 1361.9 1166.65 1363.9 Q1168.81 1365.88 1168.81 1369.45 Q1168.81 1373.51 1165.58 1375.88 Q1162.37 1378.25 1156.75 1378.25 Q1154.41 1378.25 1151.85 1377.78 Q1149.33 1377.34 1146.51 1376.43 L1146.51 1371.48 Q1149.17 1372.86 1151.75 1373.56 Q1154.33 1374.24 1156.85 1374.24 Q1160.24 1374.24 1162.06 1373.09 Q1163.88 1371.92 1163.88 1369.81 Q1163.88 1367.86 1162.56 1366.82 Q1161.25 1365.78 1156.8 1364.81 L1155.13 1364.42 Q1150.68 1363.49 1148.7 1361.56 Q1146.72 1359.61 1146.72 1356.22 Q1146.72 1352.11 1149.64 1349.87 Q1152.56 1347.63 1157.92 1347.63 Q1160.58 1347.63 1162.92 1348.02 Q1165.26 1348.41 1167.24 1349.19 Z" fill="#ffffff" fill-rule="evenodd" fill-opacity="1" /><path clip-path="url(#clip450)" d="M1181.07 1373.12 L1181.07 1388.59 L1176.25 1388.59 L1176.25 1348.33 L1181.07 1348.33 L1181.07 1352.76 Q1182.58 1350.15 1184.87 1348.9 Q1187.19 1347.63 1190.39 1347.63 Q1195.71 1347.63 1199.01 1351.84 Q1202.35 1356.06 1202.35 1362.94 Q1202.35 1369.81 1199.01 1374.03 Q1195.71 1378.25 1190.39 1378.25 Q1187.19 1378.25 1184.87 1377 Q1182.58 1375.73 1181.07 1373.12 M1197.37 1362.94 Q1197.37 1357.65 1195.19 1354.66 Q1193.03 1351.64 1189.22 1351.64 Q1185.42 1351.64 1183.23 1354.66 Q1181.07 1357.65 1181.07 1362.94 Q1181.07 1368.23 1183.23 1371.25 Q1185.42 1374.24 1189.22 1374.24 Q1193.03 1374.24 1195.19 1371.25 Q1197.37 1368.23 1197.37 1362.94 Z" fill="#ffffff" fill-rule="evenodd" fill-opacity="1" /><path clip-path="url(#clip450)" d="M1234.54 1359.89 L1234.54 1377.5 L1229.74 1377.5 L1229.74 1360.05 Q1229.74 1355.91 1228.13 1353.85 Q1226.51 1351.79 1223.29 1351.79 Q1219.41 1351.79 1217.17 1354.27 Q1214.93 1356.74 1214.93 1361.01 L1214.93 1377.5 L1210.11 1377.5 L1210.11 1336.98 L1214.93 1336.98 L1214.93 1352.86 Q1216.64 1350.23 1218.96 1348.93 Q1221.31 1347.63 1224.35 1347.63 Q1229.38 1347.63 1231.96 1350.75 Q1234.54 1353.85 1234.54 1359.89 Z" fill="#ffffff" fill-rule="evenodd" fill-opacity="1" /><path clip-path="url(#clip450)" d="M1269.04 1361.71 L1269.04 1364.06 L1247.01 1364.06 Q1247.32 1369.01 1249.98 1371.61 Q1252.66 1374.19 1257.43 1374.19 Q1260.19 1374.19 1262.76 1373.51 Q1265.37 1372.83 1267.92 1371.48 L1267.92 1376.01 Q1265.34 1377.11 1262.63 1377.68 Q1259.93 1378.25 1257.14 1378.25 Q1250.16 1378.25 1246.07 1374.19 Q1242.01 1370.13 1242.01 1363.2 Q1242.01 1356.04 1245.86 1351.84 Q1249.74 1347.63 1256.31 1347.63 Q1262.19 1347.63 1265.6 1351.43 Q1269.04 1355.2 1269.04 1361.71 M1264.25 1360.31 Q1264.2 1356.38 1262.04 1354.03 Q1259.9 1351.69 1256.36 1351.69 Q1252.35 1351.69 1249.93 1353.95 Q1247.53 1356.22 1247.17 1360.33 L1264.25 1360.31 Z" fill="#ffffff" fill-rule="evenodd" fill-opacity="1" /><path clip-path="url(#clip450)" d="M1293.81 1352.81 Q1293 1352.34 1292.03 1352.13 Q1291.1 1351.9 1289.95 1351.9 Q1285.89 1351.9 1283.7 1354.55 Q1281.54 1357.18 1281.54 1362.13 L1281.54 1377.5 L1276.72 1377.5 L1276.72 1348.33 L1281.54 1348.33 L1281.54 1352.86 Q1283.05 1350.2 1285.47 1348.93 Q1287.89 1347.63 1291.36 1347.63 Q1291.85 1347.63 1292.45 1347.7 Q1293.05 1347.76 1293.78 1347.89 L1293.81 1352.81 Z" fill="#ffffff" fill-rule="evenodd" fill-opacity="1" /><path clip-path="url(#clip450)" d="M1298.83 1348.33 L1303.62 1348.33 L1303.62 1377.5 L1298.83 1377.5 L1298.83 1348.33 M1298.83 1336.98 L1303.62 1336.98 L1303.62 1343.04 L1298.83 1343.04 L1298.83 1336.98 Z" fill="#ffffff" fill-rule="evenodd" fill-opacity="1" /><path clip-path="url(#clip450)" d="M1334.64 1349.45 L1334.64 1353.93 Q1332.61 1352.81 1330.55 1352.26 Q1328.52 1351.69 1326.44 1351.69 Q1321.77 1351.69 1319.2 1354.66 Q1316.62 1357.6 1316.62 1362.94 Q1316.62 1368.28 1319.2 1371.25 Q1321.77 1374.19 1326.44 1374.19 Q1328.52 1374.19 1330.55 1373.64 Q1332.61 1373.07 1334.64 1371.95 L1334.64 1376.38 Q1332.63 1377.31 1330.47 1377.78 Q1328.34 1378.25 1325.92 1378.25 Q1319.33 1378.25 1315.45 1374.11 Q1311.57 1369.97 1311.57 1362.94 Q1311.57 1355.8 1315.47 1351.71 Q1319.4 1347.63 1326.23 1347.63 Q1328.44 1347.63 1330.55 1348.09 Q1332.66 1348.54 1334.64 1349.45 Z" fill="#ffffff" fill-rule="evenodd" fill-opacity="1" /><path clip-path="url(#clip450)" d="M1383.44 1339.89 L1383.44 1345.02 Q1380.45 1343.59 1377.79 1342.89 Q1375.13 1342.18 1372.66 1342.18 Q1368.36 1342.18 1366.02 1343.85 Q1363.7 1345.52 1363.7 1348.59 Q1363.7 1351.17 1365.24 1352.5 Q1366.8 1353.8 1371.12 1354.61 L1374.3 1355.26 Q1380.19 1356.38 1382.97 1359.21 Q1385.78 1362.03 1385.78 1366.77 Q1385.78 1372.42 1381.98 1375.33 Q1378.21 1378.25 1370.89 1378.25 Q1368.13 1378.25 1365 1377.63 Q1361.9 1377 1358.57 1375.78 L1358.57 1370.36 Q1361.77 1372.16 1364.85 1373.07 Q1367.92 1373.98 1370.89 1373.98 Q1375.39 1373.98 1377.84 1372.21 Q1380.29 1370.44 1380.29 1367.16 Q1380.29 1364.29 1378.52 1362.68 Q1376.77 1361.06 1372.76 1360.26 L1369.56 1359.63 Q1363.68 1358.46 1361.05 1355.96 Q1358.41 1353.46 1358.41 1349.01 Q1358.41 1343.85 1362.03 1340.88 Q1365.68 1337.91 1372.06 1337.91 Q1374.79 1337.91 1377.63 1338.41 Q1380.47 1338.9 1383.44 1339.89 Z" fill="#ffffff" fill-rule="evenodd" fill-opacity="1" /><path clip-path="url(#clip450)" d="M1398.52 1340.05 L1398.52 1348.33 L1408.39 1348.33 L1408.39 1352.05 L1398.52 1352.05 L1398.52 1367.89 Q1398.52 1371.45 1399.48 1372.47 Q1400.47 1373.49 1403.47 1373.49 L1408.39 1373.49 L1408.39 1377.5 L1403.47 1377.5 Q1397.92 1377.5 1395.81 1375.44 Q1393.7 1373.36 1393.7 1367.89 L1393.7 1352.05 L1390.19 1352.05 L1390.19 1348.33 L1393.7 1348.33 L1393.7 1340.05 L1398.52 1340.05 Z" fill="#ffffff" fill-rule="evenodd" fill-opacity="1" /><path clip-path="url(#clip450)" d="M1427.95 1362.83 Q1422.14 1362.83 1419.9 1364.16 Q1417.66 1365.49 1417.66 1368.69 Q1417.66 1371.25 1419.33 1372.76 Q1421.02 1374.24 1423.91 1374.24 Q1427.89 1374.24 1430.29 1371.43 Q1432.71 1368.59 1432.71 1363.9 L1432.71 1362.83 L1427.95 1362.83 M1437.5 1360.86 L1437.5 1377.5 L1432.71 1377.5 L1432.71 1373.07 Q1431.07 1375.73 1428.62 1377 Q1426.17 1378.25 1422.63 1378.25 Q1418.15 1378.25 1415.5 1375.75 Q1412.87 1373.23 1412.87 1369.01 Q1412.87 1364.08 1416.15 1361.58 Q1419.46 1359.08 1425.99 1359.08 L1432.71 1359.08 L1432.71 1358.62 Q1432.71 1355.31 1430.52 1353.51 Q1428.36 1351.69 1424.43 1351.69 Q1421.93 1351.69 1419.56 1352.29 Q1417.19 1352.89 1415 1354.08 L1415 1349.66 Q1417.63 1348.64 1420.11 1348.15 Q1422.58 1347.63 1424.92 1347.63 Q1431.25 1347.63 1434.38 1350.91 Q1437.5 1354.19 1437.5 1360.86 Z" fill="#ffffff" fill-rule="evenodd" fill-opacity="1" /><path clip-path="url(#clip450)" d="M1468.31 1362.94 Q1468.31 1357.65 1466.12 1354.66 Q1463.96 1351.64 1460.16 1351.64 Q1456.36 1351.64 1454.17 1354.66 Q1452.01 1357.65 1452.01 1362.94 Q1452.01 1368.23 1454.17 1371.25 Q1456.36 1374.24 1460.16 1374.24 Q1463.96 1374.24 1466.12 1371.25 Q1468.31 1368.23 1468.31 1362.94 M1452.01 1352.76 Q1453.52 1350.15 1455.81 1348.9 Q1458.13 1347.63 1461.33 1347.63 Q1466.64 1347.63 1469.95 1351.84 Q1473.28 1356.06 1473.28 1362.94 Q1473.28 1369.81 1469.95 1374.03 Q1466.64 1378.25 1461.33 1378.25 Q1458.13 1378.25 1455.81 1377 Q1453.52 1375.73 1452.01 1373.12 L1452.01 1377.5 L1447.19 1377.5 L1447.19 1336.98 L1452.01 1336.98 L1452.01 1352.76 Z" fill="#ffffff" fill-rule="evenodd" fill-opacity="1" /><path clip-path="url(#clip450)" d="M1481.23 1348.33 L1486.02 1348.33 L1486.02 1377.5 L1481.23 1377.5 L1481.23 1348.33 M1481.23 1336.98 L1486.02 1336.98 L1486.02 1343.04 L1481.23 1343.04 L1481.23 1336.98 Z" fill="#ffffff" fill-rule="evenodd" fill-opacity="1" /><path clip-path="url(#clip450)" d="M1496.04 1336.98 L1500.84 1336.98 L1500.84 1377.5 L1496.04 1377.5 L1496.04 1336.98 Z" fill="#ffffff" fill-rule="evenodd" fill-opacity="1" /><path clip-path="url(#clip450)" d="M1510.86 1348.33 L1515.65 1348.33 L1515.65 1377.5 L1510.86 1377.5 L1510.86 1348.33 M1510.86 1336.98 L1515.65 1336.98 L1515.65 1343.04 L1510.86 1343.04 L1510.86 1336.98 Z" fill="#ffffff" fill-rule="evenodd" fill-opacity="1" /><path clip-path="url(#clip450)" d="M1530.42 1340.05 L1530.42 1348.33 L1540.29 1348.33 L1540.29 1352.05 L1530.42 1352.05 L1530.42 1367.89 Q1530.42 1371.45 1531.38 1372.47 Q1532.37 1373.49 1535.37 1373.49 L1540.29 1373.49 L1540.29 1377.5 L1535.37 1377.5 Q1529.82 1377.5 1527.71 1375.44 Q1525.6 1373.36 1525.6 1367.89 L1525.6 1352.05 L1522.09 1352.05 L1522.09 1348.33 L1525.6 1348.33 L1525.6 1340.05 L1530.42 1340.05 Z" fill="#ffffff" fill-rule="evenodd" fill-opacity="1" /><path clip-path="url(#clip450)" d="M1558.73 1380.2 Q1556.7 1385.41 1554.77 1387 Q1552.84 1388.59 1549.61 1388.59 L1545.78 1388.59 L1545.78 1384.58 L1548.6 1384.58 Q1550.58 1384.58 1551.67 1383.64 Q1552.76 1382.7 1554.09 1379.21 L1554.95 1377.03 L1543.15 1348.33 L1548.23 1348.33 L1557.35 1371.14 L1566.46 1348.33 L1571.54 1348.33 L1558.73 1380.2 Z" fill="#ffffff" fill-rule="evenodd" fill-opacity="1" /><polyline clip-path="url(#clip452)" style="stroke:#ffffff; stroke-linecap:round; stroke-linejoin:round; stroke-width:2; stroke-opacity:0.1; fill:none" points="
  221.783,1211.1 2352.76,1211.1 
  "/>
<polyline clip-path="url(#clip452)" style="stroke:#ffffff; stroke-linecap:round; stroke-linejoin:round; stroke-width:2; stroke-opacity:0.1; fill:none" points="
  221.783,1018.32 2352.76,1018.32 
  "/>
<polyline clip-path="url(#clip452)" style="stroke:#ffffff; stroke-linecap:round; stroke-linejoin:round; stroke-width:2; stroke-opacity:0.1; fill:none" points="
  221.783,825.531 2352.76,825.531 
  "/>
<polyline clip-path="url(#clip452)" style="stroke:#ffffff; stroke-linecap:round; stroke-linejoin:round; stroke-width:2; stroke-opacity:0.1; fill:none" points="
  221.783,632.746 2352.76,632.746 
  "/>
<polyline clip-path="url(#clip452)" style="stroke:#ffffff; stroke-linecap:round; stroke-linejoin:round; stroke-width:2; stroke-opacity:0.1; fill:none" points="
  221.783,439.961 2352.76,439.961 
  "/>
<polyline clip-path="url(#clip452)" style="stroke:#ffffff; stroke-linecap:round; stroke-linejoin:round; stroke-width:2; stroke-opacity:0.1; fill:none" points="
  221.783,247.176 2352.76,247.176 
  "/>
<polyline clip-path="url(#clip450)" style="stroke:#ffffff; stroke-linecap:round; stroke-linejoin:round; stroke-width:4; stroke-opacity:1; fill:none" points="
  221.783,1243 221.783,115.912 
  "/>
<polyline clip-path="url(#clip450)" style="stroke:#ffffff; stroke-linecap:round; stroke-linejoin:round; stroke-width:4; stroke-opacity:1; fill:none" points="
  221.783,1211.1 240.68,1211.1 
  "/>
<polyline clip-path="url(#clip450)" style="stroke:#ffffff; stroke-linecap:round; stroke-linejoin:round; stroke-width:4; stroke-opacity:1; fill:none" points="
  221.783,1018.32 240.68,1018.32 
  "/>
<polyline clip-path="url(#clip450)" style="stroke:#ffffff; stroke-linecap:round; stroke-linejoin:round; stroke-width:4; stroke-opacity:1; fill:none" points="
  221.783,825.531 240.68,825.531 
  "/>
<polyline clip-path="url(#clip450)" style="stroke:#ffffff; stroke-linecap:round; stroke-linejoin:round; stroke-width:4; stroke-opacity:1; fill:none" points="
  221.783,632.746 240.68,632.746 
  "/>
<polyline clip-path="url(#clip450)" style="stroke:#ffffff; stroke-linecap:round; stroke-linejoin:round; stroke-width:4; stroke-opacity:1; fill:none" points="
  221.783,439.961 240.68,439.961 
  "/>
<polyline clip-path="url(#clip450)" style="stroke:#ffffff; stroke-linecap:round; stroke-linejoin:round; stroke-width:4; stroke-opacity:1; fill:none" points="
  221.783,247.176 240.68,247.176 
  "/>
<path clip-path="url(#clip450)" d="M173.838 1196.9 Q170.227 1196.9 168.399 1200.46 Q166.593 1204.01 166.593 1211.14 Q166.593 1218.24 168.399 1221.81 Q170.227 1225.35 173.838 1225.35 Q177.473 1225.35 179.278 1221.81 Q181.107 1218.24 181.107 1211.14 Q181.107 1204.01 179.278 1200.46 Q177.473 1196.9 173.838 1196.9 M173.838 1193.2 Q179.649 1193.2 182.704 1197.8 Q185.783 1202.39 185.783 1211.14 Q185.783 1219.86 182.704 1224.47 Q179.649 1229.05 173.838 1229.05 Q168.028 1229.05 164.95 1224.47 Q161.894 1219.86 161.894 1211.14 Q161.894 1202.39 164.95 1197.8 Q168.028 1193.2 173.838 1193.2 Z" fill="#ffffff" fill-rule="evenodd" fill-opacity="1" /><path clip-path="url(#clip450)" d="M104.325 1031.66 L111.964 1031.66 L111.964 1005.3 L103.654 1006.96 L103.654 1002.7 L111.918 1001.04 L116.593 1001.04 L116.593 1031.66 L124.232 1031.66 L124.232 1035.6 L104.325 1035.6 L104.325 1031.66 Z" fill="#ffffff" fill-rule="evenodd" fill-opacity="1" /><path clip-path="url(#clip450)" d="M143.677 1004.11 Q140.066 1004.11 138.237 1007.68 Q136.431 1011.22 136.431 1018.35 Q136.431 1025.46 138.237 1029.02 Q140.066 1032.56 143.677 1032.56 Q147.311 1032.56 149.116 1029.02 Q150.945 1025.46 150.945 1018.35 Q150.945 1011.22 149.116 1007.68 Q147.311 1004.11 143.677 1004.11 M143.677 1000.41 Q149.487 1000.41 152.542 1005.02 Q155.621 1009.6 155.621 1018.35 Q155.621 1027.08 152.542 1031.68 Q149.487 1036.27 143.677 1036.27 Q137.866 1036.27 134.788 1031.68 Q131.732 1027.08 131.732 1018.35 Q131.732 1009.6 134.788 1005.02 Q137.866 1000.41 143.677 1000.41 Z" fill="#ffffff" fill-rule="evenodd" fill-opacity="1" /><path clip-path="url(#clip450)" d="M173.838 1004.11 Q170.227 1004.11 168.399 1007.68 Q166.593 1011.22 166.593 1018.35 Q166.593 1025.46 168.399 1029.02 Q170.227 1032.56 173.838 1032.56 Q177.473 1032.56 179.278 1029.02 Q181.107 1025.46 181.107 1018.35 Q181.107 1011.22 179.278 1007.68 Q177.473 1004.11 173.838 1004.11 M173.838 1000.41 Q179.649 1000.41 182.704 1005.02 Q185.783 1009.6 185.783 1018.35 Q185.783 1027.08 182.704 1031.68 Q179.649 1036.27 173.838 1036.27 Q168.028 1036.27 164.95 1031.68 Q161.894 1027.08 161.894 1018.35 Q161.894 1009.6 164.95 1005.02 Q168.028 1000.41 173.838 1000.41 Z" fill="#ffffff" fill-rule="evenodd" fill-opacity="1" /><path clip-path="url(#clip450)" d="M107.543 838.876 L123.862 838.876 L123.862 842.811 L101.918 842.811 L101.918 838.876 Q104.58 836.121 109.163 831.492 Q113.769 826.839 114.95 825.497 Q117.195 822.973 118.075 821.237 Q118.978 819.478 118.978 817.788 Q118.978 815.034 117.033 813.298 Q115.112 811.561 112.01 811.561 Q109.811 811.561 107.357 812.325 Q104.927 813.089 102.149 814.64 L102.149 809.918 Q104.973 808.784 107.427 808.205 Q109.88 807.626 111.918 807.626 Q117.288 807.626 120.482 810.311 Q123.677 812.997 123.677 817.487 Q123.677 819.617 122.867 821.538 Q122.079 823.436 119.973 826.029 Q119.394 826.7 116.292 829.918 Q113.191 833.112 107.543 838.876 Z" fill="#ffffff" fill-rule="evenodd" fill-opacity="1" /><path clip-path="url(#clip450)" d="M143.677 811.33 Q140.066 811.33 138.237 814.895 Q136.431 818.436 136.431 825.566 Q136.431 832.672 138.237 836.237 Q140.066 839.779 143.677 839.779 Q147.311 839.779 149.116 836.237 Q150.945 832.672 150.945 825.566 Q150.945 818.436 149.116 814.895 Q147.311 811.33 143.677 811.33 M143.677 807.626 Q149.487 807.626 152.542 812.233 Q155.621 816.816 155.621 825.566 Q155.621 834.293 152.542 838.899 Q149.487 843.483 143.677 843.483 Q137.866 843.483 134.788 838.899 Q131.732 834.293 131.732 825.566 Q131.732 816.816 134.788 812.233 Q137.866 807.626 143.677 807.626 Z" fill="#ffffff" fill-rule="evenodd" fill-opacity="1" /><path clip-path="url(#clip450)" d="M173.838 811.33 Q170.227 811.33 168.399 814.895 Q166.593 818.436 166.593 825.566 Q166.593 832.672 168.399 836.237 Q170.227 839.779 173.838 839.779 Q177.473 839.779 179.278 836.237 Q181.107 832.672 181.107 825.566 Q181.107 818.436 179.278 814.895 Q177.473 811.33 173.838 811.33 M173.838 807.626 Q179.649 807.626 182.704 812.233 Q185.783 816.816 185.783 825.566 Q185.783 834.293 182.704 838.899 Q179.649 843.483 173.838 843.483 Q168.028 843.483 164.95 838.899 Q161.894 834.293 161.894 825.566 Q161.894 816.816 164.95 812.233 Q168.028 807.626 173.838 807.626 Z" fill="#ffffff" fill-rule="evenodd" fill-opacity="1" /><path clip-path="url(#clip450)" d="M117.681 631.392 Q121.038 632.11 122.913 634.378 Q124.811 636.647 124.811 639.98 Q124.811 645.096 121.292 647.897 Q117.774 650.698 111.293 650.698 Q109.117 650.698 106.802 650.258 Q104.51 649.841 102.056 648.985 L102.056 644.471 Q104.001 645.605 106.316 646.184 Q108.63 646.762 111.154 646.762 Q115.552 646.762 117.843 645.026 Q120.158 643.29 120.158 639.98 Q120.158 636.925 118.005 635.212 Q115.876 633.476 112.056 633.476 L108.029 633.476 L108.029 629.633 L112.242 629.633 Q115.691 629.633 117.519 628.267 Q119.348 626.878 119.348 624.286 Q119.348 621.624 117.45 620.212 Q115.575 618.777 112.056 618.777 Q110.135 618.777 107.936 619.193 Q105.737 619.61 103.098 620.489 L103.098 616.323 Q105.76 615.582 108.075 615.212 Q110.413 614.841 112.473 614.841 Q117.797 614.841 120.899 617.272 Q124.001 619.679 124.001 623.8 Q124.001 626.67 122.357 628.661 Q120.714 630.628 117.681 631.392 Z" fill="#ffffff" fill-rule="evenodd" fill-opacity="1" /><path clip-path="url(#clip450)" d="M143.677 618.545 Q140.066 618.545 138.237 622.11 Q136.431 625.651 136.431 632.781 Q136.431 639.888 138.237 643.452 Q140.066 646.994 143.677 646.994 Q147.311 646.994 149.116 643.452 Q150.945 639.888 150.945 632.781 Q150.945 625.651 149.116 622.11 Q147.311 618.545 143.677 618.545 M143.677 614.841 Q149.487 614.841 152.542 619.448 Q155.621 624.031 155.621 632.781 Q155.621 641.508 152.542 646.114 Q149.487 650.698 143.677 650.698 Q137.866 650.698 134.788 646.114 Q131.732 641.508 131.732 632.781 Q131.732 624.031 134.788 619.448 Q137.866 614.841 143.677 614.841 Z" fill="#ffffff" fill-rule="evenodd" fill-opacity="1" /><path clip-path="url(#clip450)" d="M173.838 618.545 Q170.227 618.545 168.399 622.11 Q166.593 625.651 166.593 632.781 Q166.593 639.888 168.399 643.452 Q170.227 646.994 173.838 646.994 Q177.473 646.994 179.278 643.452 Q181.107 639.888 181.107 632.781 Q181.107 625.651 179.278 622.11 Q177.473 618.545 173.838 618.545 M173.838 614.841 Q179.649 614.841 182.704 619.448 Q185.783 624.031 185.783 632.781 Q185.783 641.508 182.704 646.114 Q179.649 650.698 173.838 650.698 Q168.028 650.698 164.95 646.114 Q161.894 641.508 161.894 632.781 Q161.894 624.031 164.95 619.448 Q168.028 614.841 173.838 614.841 Z" fill="#ffffff" fill-rule="evenodd" fill-opacity="1" /><path clip-path="url(#clip450)" d="M116.362 426.755 L104.556 445.204 L116.362 445.204 L116.362 426.755 M115.135 422.681 L121.015 422.681 L121.015 445.204 L125.945 445.204 L125.945 449.093 L121.015 449.093 L121.015 457.241 L116.362 457.241 L116.362 449.093 L100.76 449.093 L100.76 444.579 L115.135 422.681 Z" fill="#ffffff" fill-rule="evenodd" fill-opacity="1" /><path clip-path="url(#clip450)" d="M143.677 425.76 Q140.066 425.76 138.237 429.325 Q136.431 432.867 136.431 439.996 Q136.431 447.103 138.237 450.667 Q140.066 454.209 143.677 454.209 Q147.311 454.209 149.116 450.667 Q150.945 447.103 150.945 439.996 Q150.945 432.867 149.116 429.325 Q147.311 425.76 143.677 425.76 M143.677 422.056 Q149.487 422.056 152.542 426.663 Q155.621 431.246 155.621 439.996 Q155.621 448.723 152.542 453.329 Q149.487 457.913 143.677 457.913 Q137.866 457.913 134.788 453.329 Q131.732 448.723 131.732 439.996 Q131.732 431.246 134.788 426.663 Q137.866 422.056 143.677 422.056 Z" fill="#ffffff" fill-rule="evenodd" fill-opacity="1" /><path clip-path="url(#clip450)" d="M173.838 425.76 Q170.227 425.76 168.399 429.325 Q166.593 432.867 166.593 439.996 Q166.593 447.103 168.399 450.667 Q170.227 454.209 173.838 454.209 Q177.473 454.209 179.278 450.667 Q181.107 447.103 181.107 439.996 Q181.107 432.867 179.278 429.325 Q177.473 425.76 173.838 425.76 M173.838 422.056 Q179.649 422.056 182.704 426.663 Q185.783 431.246 185.783 439.996 Q185.783 448.723 182.704 453.329 Q179.649 457.913 173.838 457.913 Q168.028 457.913 164.95 453.329 Q161.894 448.723 161.894 439.996 Q161.894 431.246 164.95 426.663 Q168.028 422.056 173.838 422.056 Z" fill="#ffffff" fill-rule="evenodd" fill-opacity="1" /><path clip-path="url(#clip450)" d="M103.561 229.896 L121.917 229.896 L121.917 233.832 L107.843 233.832 L107.843 242.304 Q108.862 241.957 109.88 241.795 Q110.899 241.609 111.918 241.609 Q117.705 241.609 121.084 244.781 Q124.464 247.952 124.464 253.369 Q124.464 258.947 120.992 262.049 Q117.519 265.128 111.2 265.128 Q109.024 265.128 106.755 264.757 Q104.51 264.387 102.103 263.646 L102.103 258.947 Q104.186 260.082 106.408 260.637 Q108.63 261.193 111.107 261.193 Q115.112 261.193 117.45 259.086 Q119.788 256.98 119.788 253.369 Q119.788 249.757 117.45 247.651 Q115.112 245.545 111.107 245.545 Q109.232 245.545 107.357 245.961 Q105.506 246.378 103.561 247.258 L103.561 229.896 Z" fill="#ffffff" fill-rule="evenodd" fill-opacity="1" /><path clip-path="url(#clip450)" d="M143.677 232.975 Q140.066 232.975 138.237 236.54 Q136.431 240.082 136.431 247.211 Q136.431 254.318 138.237 257.882 Q140.066 261.424 143.677 261.424 Q147.311 261.424 149.116 257.882 Q150.945 254.318 150.945 247.211 Q150.945 240.082 149.116 236.54 Q147.311 232.975 143.677 232.975 M143.677 229.271 Q149.487 229.271 152.542 233.878 Q155.621 238.461 155.621 247.211 Q155.621 255.938 152.542 260.544 Q149.487 265.128 143.677 265.128 Q137.866 265.128 134.788 260.544 Q131.732 255.938 131.732 247.211 Q131.732 238.461 134.788 233.878 Q137.866 229.271 143.677 229.271 Z" fill="#ffffff" fill-rule="evenodd" fill-opacity="1" /><path clip-path="url(#clip450)" d="M173.838 232.975 Q170.227 232.975 168.399 236.54 Q166.593 240.082 166.593 247.211 Q166.593 254.318 168.399 257.882 Q170.227 261.424 173.838 261.424 Q177.473 261.424 179.278 257.882 Q181.107 254.318 181.107 247.211 Q181.107 240.082 179.278 236.54 Q177.473 232.975 173.838 232.975 M173.838 229.271 Q179.649 229.271 182.704 233.878 Q185.783 238.461 185.783 247.211 Q185.783 255.938 182.704 260.544 Q179.649 265.128 173.838 265.128 Q168.028 265.128 164.95 260.544 Q161.894 255.938 161.894 247.211 Q161.894 238.461 164.95 233.878 Q168.028 229.271 173.838 229.271 Z" fill="#ffffff" fill-rule="evenodd" fill-opacity="1" /><path clip-path="url(#clip450)" d="M14.2162 1118.53 L14.2162 1110.69 L40.6743 1100.77 L14.2162 1090.79 L14.2162 1082.96 L53.0962 1082.96 L53.0962 1088.09 L18.9557 1088.09 L45.6222 1098.11 L45.6222 1103.4 L18.9557 1113.43 L53.0962 1113.43 L53.0962 1118.53 L14.2162 1118.53 Z" fill="#ffffff" fill-rule="evenodd" fill-opacity="1" /><path clip-path="url(#clip450)" d="M38.4348 1059.47 Q38.4348 1065.27 39.7629 1067.51 Q41.091 1069.75 44.2941 1069.75 Q46.8462 1069.75 48.3566 1068.09 Q49.841 1066.39 49.841 1063.5 Q49.841 1059.52 47.0285 1057.12 Q44.19 1054.7 39.5025 1054.7 L38.4348 1054.7 L38.4348 1059.47 M36.4556 1049.91 L53.0962 1049.91 L53.0962 1054.7 L48.6691 1054.7 Q51.3253 1056.34 52.6014 1058.79 Q53.8514 1061.24 53.8514 1064.78 Q53.8514 1069.26 51.3514 1071.91 Q48.8253 1074.55 44.6066 1074.55 Q39.6848 1074.55 37.1848 1071.26 Q34.6848 1067.96 34.6848 1061.42 L34.6848 1054.7 L34.2161 1054.7 Q30.9088 1054.7 29.1119 1056.89 Q27.289 1059.05 27.289 1062.98 Q27.289 1065.48 27.888 1067.85 Q28.4869 1070.22 29.6848 1072.41 L25.2578 1072.41 Q24.2421 1069.78 23.7474 1067.31 Q23.2265 1064.83 23.2265 1062.49 Q23.2265 1056.16 26.5078 1053.03 Q29.789 1049.91 36.4556 1049.91 Z" fill="#ffffff" fill-rule="evenodd" fill-opacity="1" /><path clip-path="url(#clip450)" d="M23.9296 1015.8 L38.1223 1026.34 L53.0962 1015.25 L53.0962 1020.9 L41.6379 1029.39 L53.0962 1037.88 L53.0962 1043.53 L37.8358 1032.2 L23.9296 1042.57 L23.9296 1036.92 L34.3202 1029.18 L23.9296 1021.45 L23.9296 1015.8 Z" fill="#ffffff" fill-rule="evenodd" fill-opacity="1" /><path clip-path="url(#clip450)" d="M14.2162 991.316 L14.2162 986.056 L53.0962 986.056 L53.0962 991.316 L14.2162 991.316 Z" fill="#ffffff" fill-rule="evenodd" fill-opacity="1" /><path clip-path="url(#clip450)" d="M35.4921 951.551 L53.0962 951.551 L53.0962 956.343 L35.6483 956.343 Q31.5077 956.343 29.4505 957.957 Q27.3932 959.572 27.3932 962.801 Q27.3932 966.681 29.8671 968.921 Q32.3411 971.16 36.6119 971.16 L53.0962 971.16 L53.0962 975.978 L23.9296 975.978 L23.9296 971.16 L28.4609 971.16 Q25.8307 969.441 24.5286 967.124 Q23.2265 964.78 23.2265 961.733 Q23.2265 956.707 26.3515 954.129 Q29.4505 951.551 35.4921 951.551 Z" fill="#ffffff" fill-rule="evenodd" fill-opacity="1" /><path clip-path="url(#clip450)" d="M28.3567 922.801 L12.5755 922.801 L12.5755 918.009 L53.0962 918.009 L53.0962 922.801 L48.7212 922.801 Q51.3253 924.311 52.6014 926.629 Q53.8514 928.921 53.8514 932.15 Q53.8514 937.436 49.6326 940.77 Q45.4139 944.077 38.5389 944.077 Q31.664 944.077 27.4453 940.77 Q23.2265 937.436 23.2265 932.15 Q23.2265 928.921 24.5026 926.629 Q25.7526 924.311 28.3567 922.801 M38.5389 939.129 Q43.8254 939.129 46.8462 936.968 Q49.841 934.78 49.841 930.978 Q49.841 927.176 46.8462 924.989 Q43.8254 922.801 38.5389 922.801 Q33.2525 922.801 30.2577 924.989 Q27.2369 927.176 27.2369 930.978 Q27.2369 934.78 30.2577 936.968 Q33.2525 939.129 38.5389 939.129 Z" fill="#ffffff" fill-rule="evenodd" fill-opacity="1" /><path clip-path="url(#clip450)" d="M27.289 896.838 Q27.289 900.692 30.3098 902.931 Q33.3046 905.171 38.5389 905.171 Q43.7733 905.171 46.7941 902.957 Q49.7889 900.718 49.7889 896.838 Q49.7889 893.01 46.7681 890.77 Q43.7472 888.53 38.5389 888.53 Q33.3567 888.53 30.3359 890.77 Q27.289 893.01 27.289 896.838 M23.2265 896.838 Q23.2265 890.588 27.289 887.02 Q31.3515 883.452 38.5389 883.452 Q45.7004 883.452 49.7889 887.02 Q53.8514 890.588 53.8514 896.838 Q53.8514 903.114 49.7889 906.681 Q45.7004 910.223 38.5389 910.223 Q31.3515 910.223 27.289 906.681 Q23.2265 903.114 23.2265 896.838 Z" fill="#ffffff" fill-rule="evenodd" fill-opacity="1" /><path clip-path="url(#clip450)" d="M27.289 864.208 Q27.289 868.062 30.3098 870.301 Q33.3046 872.541 38.5389 872.541 Q43.7733 872.541 46.7941 870.327 Q49.7889 868.088 49.7889 864.208 Q49.7889 860.379 46.7681 858.14 Q43.7472 855.9 38.5389 855.9 Q33.3567 855.9 30.3359 858.14 Q27.289 860.379 27.289 864.208 M23.2265 864.208 Q23.2265 857.958 27.289 854.39 Q31.3515 850.822 38.5389 850.822 Q45.7004 850.822 49.7889 854.39 Q53.8514 857.958 53.8514 864.208 Q53.8514 870.484 49.7889 874.051 Q45.7004 877.593 38.5389 877.593 Q31.3515 877.593 27.289 874.051 Q23.2265 870.484 23.2265 864.208 Z" fill="#ffffff" fill-rule="evenodd" fill-opacity="1" /><path clip-path="url(#clip450)" d="M28.4088 825.979 Q27.94 826.786 27.7317 827.749 Q27.4973 828.687 27.4973 829.833 Q27.4973 833.895 30.1536 836.083 Q32.7838 838.244 37.7317 838.244 L53.0962 838.244 L53.0962 843.062 L23.9296 843.062 L23.9296 838.244 L28.4609 838.244 Q25.8046 836.734 24.5286 834.312 Q23.2265 831.89 23.2265 828.427 Q23.2265 827.932 23.3047 827.333 Q23.3567 826.734 23.4869 826.005 L28.4088 825.979 Z" fill="#ffffff" fill-rule="evenodd" fill-opacity="1" /><path clip-path="url(#clip450)" d="M17.2109 774.677 L22.7578 774.677 Q20.2838 777.333 19.0599 780.354 Q17.8359 783.349 17.8359 786.734 Q17.8359 793.401 21.9244 796.942 Q25.9869 800.484 33.6952 800.484 Q41.3775 800.484 45.466 796.942 Q49.5285 793.401 49.5285 786.734 Q49.5285 783.349 48.3045 780.354 Q47.0806 777.333 44.6066 774.677 L50.1014 774.677 Q51.9764 777.437 52.9139 780.536 Q53.8514 783.609 53.8514 787.047 Q53.8514 795.875 48.4608 800.953 Q43.0441 806.031 33.6952 806.031 Q24.3203 806.031 18.9297 800.953 Q13.513 795.875 13.513 787.047 Q13.513 783.557 14.4505 780.484 Q15.362 777.385 17.2109 774.677 Z" fill="#ffffff" fill-rule="evenodd" fill-opacity="1" /><path clip-path="url(#clip450)" d="M27.289 755.458 Q27.289 759.312 30.3098 761.552 Q33.3046 763.791 38.5389 763.791 Q43.7733 763.791 46.7941 761.578 Q49.7889 759.338 49.7889 755.458 Q49.7889 751.63 46.7681 749.391 Q43.7472 747.151 38.5389 747.151 Q33.3567 747.151 30.3359 749.391 Q27.289 751.63 27.289 755.458 M23.2265 755.458 Q23.2265 749.208 27.289 745.641 Q31.3515 742.073 38.5389 742.073 Q45.7004 742.073 49.7889 745.641 Q53.8514 749.208 53.8514 755.458 Q53.8514 761.734 49.7889 765.302 Q45.7004 768.844 38.5389 768.844 Q31.3515 768.844 27.289 765.302 Q23.2265 761.734 23.2265 755.458 Z" fill="#ffffff" fill-rule="evenodd" fill-opacity="1" /><path clip-path="url(#clip450)" d="M35.4921 709.886 L53.0962 709.886 L53.0962 714.677 L35.6483 714.677 Q31.5077 714.677 29.4505 716.292 Q27.3932 717.906 27.3932 721.135 Q27.3932 725.016 29.8671 727.255 Q32.3411 729.495 36.6119 729.495 L53.0962 729.495 L53.0962 734.312 L23.9296 734.312 L23.9296 729.495 L28.4609 729.495 Q25.8307 727.776 24.5286 725.458 Q23.2265 723.115 23.2265 720.068 Q23.2265 715.042 26.3515 712.464 Q29.4505 709.886 35.4921 709.886 Z" fill="#ffffff" fill-rule="evenodd" fill-opacity="1" /><path clip-path="url(#clip450)" d="M25.0494 679.339 L29.5286 679.339 Q28.4088 681.37 27.8619 683.427 Q27.289 685.459 27.289 687.542 Q27.289 692.203 30.2577 694.781 Q33.2004 697.36 38.5389 697.36 Q43.8775 697.36 46.8462 694.781 Q49.7889 692.203 49.7889 687.542 Q49.7889 685.459 49.242 683.427 Q48.6691 681.37 47.5493 679.339 L51.9764 679.339 Q52.9139 681.344 53.3826 683.505 Q53.8514 685.641 53.8514 688.063 Q53.8514 694.651 49.7108 698.531 Q45.5702 702.412 38.5389 702.412 Q31.4036 702.412 27.315 698.505 Q23.2265 694.573 23.2265 687.75 Q23.2265 685.537 23.6953 683.427 Q24.138 681.318 25.0494 679.339 Z" fill="#ffffff" fill-rule="evenodd" fill-opacity="1" /><path clip-path="url(#clip450)" d="M37.315 646.058 L39.6587 646.058 L39.6587 668.089 Q44.6066 667.776 47.2108 665.12 Q49.7889 662.438 49.7889 657.672 Q49.7889 654.912 49.1118 652.334 Q48.4347 649.73 47.0806 647.178 L51.6118 647.178 Q52.7055 649.756 53.2784 652.464 Q53.8514 655.172 53.8514 657.959 Q53.8514 664.938 49.7889 669.026 Q45.7264 673.089 38.7994 673.089 Q31.6379 673.089 27.4453 669.235 Q23.2265 665.354 23.2265 658.792 Q23.2265 652.907 27.0286 649.495 Q30.8046 646.058 37.315 646.058 M35.9087 650.849 Q31.9765 650.901 29.6327 653.063 Q27.289 655.198 27.289 658.74 Q27.289 662.75 29.5546 665.172 Q31.8202 667.568 35.9348 667.933 L35.9087 650.849 Z" fill="#ffffff" fill-rule="evenodd" fill-opacity="1" /><path clip-path="url(#clip450)" d="M35.4921 613.949 L53.0962 613.949 L53.0962 618.74 L35.6483 618.74 Q31.5077 618.74 29.4505 620.355 Q27.3932 621.969 27.3932 625.198 Q27.3932 629.079 29.8671 631.318 Q32.3411 633.558 36.6119 633.558 L53.0962 633.558 L53.0962 638.375 L23.9296 638.375 L23.9296 633.558 L28.4609 633.558 Q25.8307 631.839 24.5286 629.521 Q23.2265 627.178 23.2265 624.131 Q23.2265 619.105 26.3515 616.527 Q29.4505 613.949 35.4921 613.949 Z" fill="#ffffff" fill-rule="evenodd" fill-opacity="1" /><path clip-path="url(#clip450)" d="M15.6484 599.652 L23.9296 599.652 L23.9296 589.782 L27.6536 589.782 L27.6536 599.652 L43.4868 599.652 Q47.0545 599.652 48.0701 598.688 Q49.0858 597.699 49.0858 594.704 L49.0858 589.782 L53.0962 589.782 L53.0962 594.704 Q53.0962 600.251 51.0389 602.36 Q48.9556 604.469 43.4868 604.469 L27.6536 604.469 L27.6536 607.985 L23.9296 607.985 L23.9296 604.469 L15.6484 604.469 L15.6484 599.652 Z" fill="#ffffff" fill-rule="evenodd" fill-opacity="1" /><path clip-path="url(#clip450)" d="M28.4088 566.579 Q27.94 567.386 27.7317 568.35 Q27.4973 569.287 27.4973 570.433 Q27.4973 574.496 30.1536 576.683 Q32.7838 578.845 37.7317 578.845 L53.0962 578.845 L53.0962 583.662 L23.9296 583.662 L23.9296 578.845 L28.4609 578.845 Q25.8046 577.334 24.5286 574.912 Q23.2265 572.49 23.2265 569.027 Q23.2265 568.532 23.3047 567.933 Q23.3567 567.334 23.4869 566.605 L28.4088 566.579 Z" fill="#ffffff" fill-rule="evenodd" fill-opacity="1" /><path clip-path="url(#clip450)" d="M38.4348 548.298 Q38.4348 554.105 39.7629 556.345 Q41.091 558.584 44.2941 558.584 Q46.8462 558.584 48.3566 556.918 Q49.841 555.225 49.841 552.334 Q49.841 548.35 47.0285 545.954 Q44.19 543.532 39.5025 543.532 L38.4348 543.532 L38.4348 548.298 M36.4556 538.741 L53.0962 538.741 L53.0962 543.532 L48.6691 543.532 Q51.3253 545.173 52.6014 547.621 Q53.8514 550.069 53.8514 553.61 Q53.8514 558.089 51.3514 560.746 Q48.8253 563.376 44.6066 563.376 Q39.6848 563.376 37.1848 560.095 Q34.6848 556.787 34.6848 550.251 L34.6848 543.532 L34.2161 543.532 Q30.9088 543.532 29.1119 545.72 Q27.289 547.881 27.289 551.813 Q27.289 554.313 27.888 556.683 Q28.4869 559.053 29.6848 561.24 L25.2578 561.24 Q24.2421 558.61 23.7474 556.136 Q23.2265 553.662 23.2265 551.319 Q23.2265 544.991 26.5078 541.866 Q29.789 538.741 36.4556 538.741 Z" fill="#ffffff" fill-rule="evenodd" fill-opacity="1" /><path clip-path="url(#clip450)" d="M15.6484 524.131 L23.9296 524.131 L23.9296 514.262 L27.6536 514.262 L27.6536 524.131 L43.4868 524.131 Q47.0545 524.131 48.0701 523.168 Q49.0858 522.178 49.0858 519.183 L49.0858 514.262 L53.0962 514.262 L53.0962 519.183 Q53.0962 524.73 51.0389 526.84 Q48.9556 528.949 43.4868 528.949 L27.6536 528.949 L27.6536 532.465 L23.9296 532.465 L23.9296 528.949 L15.6484 528.949 L15.6484 524.131 Z" fill="#ffffff" fill-rule="evenodd" fill-opacity="1" /><path clip-path="url(#clip450)" d="M23.9296 507.96 L23.9296 503.168 L53.0962 503.168 L53.0962 507.96 L23.9296 507.96 M12.5755 507.96 L12.5755 503.168 L18.6432 503.168 L18.6432 507.96 L12.5755 507.96 Z" fill="#ffffff" fill-rule="evenodd" fill-opacity="1" /><path clip-path="url(#clip450)" d="M27.289 481.84 Q27.289 485.694 30.3098 487.934 Q33.3046 490.173 38.5389 490.173 Q43.7733 490.173 46.7941 487.96 Q49.7889 485.72 49.7889 481.84 Q49.7889 478.012 46.7681 475.772 Q43.7472 473.533 38.5389 473.533 Q33.3567 473.533 30.3359 475.772 Q27.289 478.012 27.289 481.84 M23.2265 481.84 Q23.2265 475.59 27.289 472.022 Q31.3515 468.455 38.5389 468.455 Q45.7004 468.455 49.7889 472.022 Q53.8514 475.59 53.8514 481.84 Q53.8514 488.116 49.7889 491.684 Q45.7004 495.225 38.5389 495.225 Q31.3515 495.225 27.289 491.684 Q23.2265 488.116 23.2265 481.84 Z" fill="#ffffff" fill-rule="evenodd" fill-opacity="1" /><path clip-path="url(#clip450)" d="M35.4921 436.267 L53.0962 436.267 L53.0962 441.059 L35.6483 441.059 Q31.5077 441.059 29.4505 442.673 Q27.3932 444.288 27.3932 447.517 Q27.3932 451.397 29.8671 453.637 Q32.3411 455.876 36.6119 455.876 L53.0962 455.876 L53.0962 460.694 L23.9296 460.694 L23.9296 455.876 L28.4609 455.876 Q25.8307 454.158 24.5286 451.84 Q23.2265 449.496 23.2265 446.449 Q23.2265 441.423 26.3515 438.845 Q29.4505 436.267 35.4921 436.267 Z" fill="#ffffff" fill-rule="evenodd" fill-opacity="1" /><path clip-path="url(#clip450)" d="M29.5286 387.049 Q26.2994 385.252 24.763 382.752 Q23.2265 380.252 23.2265 376.866 Q23.2265 372.309 26.4296 369.835 Q29.6067 367.361 35.4921 367.361 L53.0962 367.361 L53.0962 372.179 L35.6483 372.179 Q31.4556 372.179 29.4244 373.663 Q27.3932 375.148 27.3932 378.195 Q27.3932 381.919 29.8671 384.08 Q32.3411 386.241 36.6119 386.241 L53.0962 386.241 L53.0962 391.059 L35.6483 391.059 Q31.4296 391.059 29.4244 392.543 Q27.3932 394.028 27.3932 397.127 Q27.3932 400.799 29.8932 402.96 Q32.3671 405.122 36.6119 405.122 L53.0962 405.122 L53.0962 409.939 L23.9296 409.939 L23.9296 405.122 L28.4609 405.122 Q25.7786 403.481 24.5026 401.189 Q23.2265 398.898 23.2265 395.747 Q23.2265 392.57 24.8411 390.356 Q26.4557 388.116 29.5286 387.049 Z" fill="#ffffff" fill-rule="evenodd" fill-opacity="1" /><path clip-path="url(#clip450)" d="M38.1744 338.611 Q32.9661 338.611 30.1015 340.773 Q27.2369 342.908 27.2369 346.788 Q27.2369 350.643 30.1015 352.804 Q32.9661 354.939 38.1744 354.939 Q43.3566 354.939 46.2212 352.804 Q49.0858 350.643 49.0858 346.788 Q49.0858 342.908 46.2212 340.773 Q43.3566 338.611 38.1744 338.611 M49.4764 333.82 Q56.9243 333.82 60.544 337.127 Q64.1898 340.434 64.1898 347.257 Q64.1898 349.783 63.7992 352.023 Q63.4346 354.262 62.6534 356.372 L57.992 356.372 Q59.1378 354.262 59.6847 352.205 Q60.2315 350.148 60.2315 348.012 Q60.2315 343.299 57.7576 340.955 Q55.3097 338.611 50.3358 338.611 L47.966 338.611 Q50.5441 340.096 51.8201 342.414 Q53.0962 344.731 53.0962 347.96 Q53.0962 353.325 49.0076 356.606 Q44.9191 359.887 38.1744 359.887 Q31.4036 359.887 27.315 356.606 Q23.2265 353.325 23.2265 347.96 Q23.2265 344.731 24.5026 342.414 Q25.7786 340.096 28.3567 338.611 L23.9296 338.611 L23.9296 333.82 L49.4764 333.82 Z" fill="#ffffff" fill-rule="evenodd" fill-opacity="1" /><path clip-path="url(#clip450)" d="M14.2162 315.434 L14.2162 311.007 L58.044 324.549 L58.044 328.976 L14.2162 315.434 Z" fill="#ffffff" fill-rule="evenodd" fill-opacity="1" /><path clip-path="url(#clip450)" d="M29.5286 283.273 Q26.2994 281.476 24.763 278.976 Q23.2265 276.476 23.2265 273.091 Q23.2265 268.534 26.4296 266.06 Q29.6067 263.586 35.4921 263.586 L53.0962 263.586 L53.0962 268.403 L35.6483 268.403 Q31.4556 268.403 29.4244 269.888 Q27.3932 271.372 27.3932 274.419 Q27.3932 278.143 29.8671 280.304 Q32.3411 282.466 36.6119 282.466 L53.0962 282.466 L53.0962 287.284 L35.6483 287.284 Q31.4296 287.284 29.4244 288.768 Q27.3932 290.252 27.3932 293.351 Q27.3932 297.023 29.8932 299.185 Q32.3671 301.346 36.6119 301.346 L53.0962 301.346 L53.0962 306.164 L23.9296 306.164 L23.9296 301.346 L28.4609 301.346 Q25.7786 299.705 24.5026 297.414 Q23.2265 295.122 23.2265 291.971 Q23.2265 288.794 24.8411 286.58 Q26.4557 284.341 29.5286 283.273 Z" fill="#ffffff" fill-rule="evenodd" fill-opacity="1" /><path clip-path="url(#clip450)" d="M23.9296 245.409 Q24.3984 243.013 25.8307 241.711 Q27.2369 240.383 29.3723 240.383 Q32.6015 240.383 34.3463 242.857 Q36.091 245.331 36.091 249.94 Q36.091 251.424 35.8306 253.065 Q35.5442 254.68 35.0233 256.503 L31.8723 256.503 Q32.5754 255.148 32.914 253.612 Q33.2525 252.049 33.2525 250.305 Q33.2525 247.466 32.2369 245.904 Q31.1952 244.341 29.3723 244.341 Q27.4453 244.341 26.4557 245.799 Q25.4661 247.232 25.4661 250.044 L25.4661 252.284 L22.6536 252.284 L22.6536 249.836 Q22.6536 247.388 21.8463 246.138 Q21.013 244.862 19.4505 244.862 Q17.9401 244.862 17.1589 246.164 Q16.3516 247.466 16.3516 249.94 Q16.3516 250.982 16.5859 252.31 Q16.8203 253.638 17.4193 255.747 L14.4245 255.747 Q13.9818 253.846 13.7474 252.18 Q13.513 250.513 13.513 249.081 Q13.513 245.331 15.0495 243.143 Q16.5859 240.93 19.164 240.93 Q20.9609 240.93 22.2109 242.102 Q23.4609 243.273 23.9296 245.409 Z" fill="#ffffff" fill-rule="evenodd" fill-opacity="1" /><path clip-path="url(#clip450)" d="M602.444 14.0809 L602.444 22.0612 Q597.785 19.8332 593.653 18.7395 Q589.521 17.6457 585.673 17.6457 Q578.989 17.6457 575.343 20.2383 Q571.738 22.8309 571.738 27.611 Q571.738 31.6214 574.128 33.6873 Q576.558 35.7128 583.283 36.9686 L588.225 37.9813 Q597.38 39.7232 601.715 44.1387 Q606.09 48.5136 606.09 55.8863 Q606.09 64.6767 600.175 69.2137 Q594.301 73.7508 582.918 73.7508 Q578.624 73.7508 573.763 72.7785 Q568.943 71.8063 563.758 69.9024 L563.758 61.4765 Q568.74 64.2716 573.52 65.6895 Q578.3 67.1073 582.918 67.1073 Q589.926 67.1073 593.734 64.3527 Q597.542 61.598 597.542 56.4939 Q597.542 52.0379 594.788 49.5264 Q592.073 47.0148 585.835 45.759 L580.852 44.7868 Q571.697 42.9639 567.606 39.075 Q563.515 35.1862 563.515 28.2591 Q563.515 20.2383 569.145 15.6203 Q574.817 11.0023 584.741 11.0023 Q588.995 11.0023 593.41 11.7719 Q597.826 12.5416 602.444 14.0809 Z" fill="#ffffff" fill-rule="evenodd" fill-opacity="1" /><path clip-path="url(#clip450)" d="M657.334 48.0275 L657.334 51.6733 L623.063 51.6733 Q623.549 59.3701 627.681 63.421 Q631.853 67.4314 639.266 67.4314 Q643.56 67.4314 647.571 66.3781 Q651.622 65.3249 655.592 63.2184 L655.592 70.267 Q651.581 71.9684 647.368 72.8596 Q643.155 73.7508 638.821 73.7508 Q627.964 73.7508 621.605 67.4314 Q615.285 61.1119 615.285 50.3365 Q615.285 39.1965 621.28 32.6746 Q627.316 26.1121 637.525 26.1121 Q646.68 26.1121 651.986 32.0264 Q657.334 37.9003 657.334 48.0275 M649.88 45.84 Q649.799 39.7232 646.437 36.0774 Q643.115 32.4315 637.606 32.4315 Q631.367 32.4315 627.6 35.9558 Q623.873 39.4801 623.306 45.8805 L649.88 45.84 Z" fill="#ffffff" fill-rule="evenodd" fill-opacity="1" /><path clip-path="url(#clip450)" d="M707.281 45.1919 L707.281 72.576 L699.828 72.576 L699.828 45.4349 Q699.828 38.994 697.316 35.7938 Q694.804 32.5936 689.781 32.5936 Q683.745 32.5936 680.262 36.4419 Q676.778 40.2903 676.778 46.9338 L676.778 72.576 L669.284 72.576 L669.284 27.2059 L676.778 27.2059 L676.778 34.2544 Q679.451 30.163 683.057 28.1376 Q686.703 26.1121 691.442 26.1121 Q699.26 26.1121 703.271 30.9732 Q707.281 35.7938 707.281 45.1919 Z" fill="#ffffff" fill-rule="evenodd" fill-opacity="1" /><path clip-path="url(#clip450)" d="M751.071 28.5427 L751.071 35.5912 Q747.912 33.9709 744.509 33.1607 Q741.106 32.3505 737.46 32.3505 Q731.911 32.3505 729.116 34.0519 Q726.361 35.7533 726.361 39.156 Q726.361 41.7486 728.346 43.2475 Q730.331 44.7058 736.326 46.0426 L738.878 46.6097 Q746.818 48.3111 750.14 51.4303 Q753.502 54.509 753.502 60.0587 Q753.502 66.3781 748.479 70.0644 Q743.496 73.7508 734.746 73.7508 Q731.1 73.7508 727.131 73.0216 Q723.201 72.3329 718.826 70.9151 L718.826 63.2184 Q722.958 65.3654 726.969 66.4591 Q730.979 67.5124 734.908 67.5124 Q740.175 67.5124 743.01 65.73 Q745.846 63.9071 745.846 60.6258 Q745.846 57.5877 743.78 55.9673 Q741.754 54.3469 734.827 52.8481 L732.235 52.2405 Q725.308 50.7821 722.229 47.7845 Q719.15 44.7463 719.15 39.4801 Q719.15 33.0797 723.687 29.5959 Q728.224 26.1121 736.569 26.1121 Q740.701 26.1121 744.347 26.7198 Q747.993 27.3274 751.071 28.5427 Z" fill="#ffffff" fill-rule="evenodd" fill-opacity="1" /><path clip-path="url(#clip450)" d="M765.371 27.2059 L772.825 27.2059 L772.825 72.576 L765.371 72.576 L765.371 27.2059 M765.371 9.54393 L772.825 9.54393 L772.825 18.9825 L765.371 18.9825 L765.371 9.54393 Z" fill="#ffffff" fill-rule="evenodd" fill-opacity="1" /><path clip-path="url(#clip450)" d="M795.793 14.324 L795.793 27.2059 L811.146 27.2059 L811.146 32.9987 L795.793 32.9987 L795.793 57.6282 Q795.793 63.1779 797.292 64.7578 Q798.832 66.3376 803.49 66.3376 L811.146 66.3376 L811.146 72.576 L803.49 72.576 Q794.862 72.576 791.58 69.3758 Q788.299 66.1351 788.299 57.6282 L788.299 32.9987 L782.831 32.9987 L782.831 27.2059 L788.299 27.2059 L788.299 14.324 L795.793 14.324 Z" fill="#ffffff" fill-rule="evenodd" fill-opacity="1" /><path clip-path="url(#clip450)" d="M820.95 27.2059 L828.403 27.2059 L828.403 72.576 L820.95 72.576 L820.95 27.2059 M820.95 9.54393 L828.403 9.54393 L828.403 18.9825 L820.95 18.9825 L820.95 9.54393 Z" fill="#ffffff" fill-rule="evenodd" fill-opacity="1" /><path clip-path="url(#clip450)" d="M838.652 27.2059 L846.551 27.2059 L860.729 65.2844 L874.908 27.2059 L882.807 27.2059 L865.793 72.576 L855.666 72.576 L838.652 27.2059 Z" fill="#ffffff" fill-rule="evenodd" fill-opacity="1" /><path clip-path="url(#clip450)" d="M893.096 27.2059 L900.55 27.2059 L900.55 72.576 L893.096 72.576 L893.096 27.2059 M893.096 9.54393 L900.55 9.54393 L900.55 18.9825 L893.096 18.9825 L893.096 9.54393 Z" fill="#ffffff" fill-rule="evenodd" fill-opacity="1" /><path clip-path="url(#clip450)" d="M923.518 14.324 L923.518 27.2059 L938.871 27.2059 L938.871 32.9987 L923.518 32.9987 L923.518 57.6282 Q923.518 63.1779 925.017 64.7578 Q926.557 66.3376 931.215 66.3376 L938.871 66.3376 L938.871 72.576 L931.215 72.576 Q922.587 72.576 919.305 69.3758 Q916.024 66.1351 916.024 57.6282 L916.024 32.9987 L910.556 32.9987 L910.556 27.2059 L916.024 27.2059 L916.024 14.324 L923.518 14.324 Z" fill="#ffffff" fill-rule="evenodd" fill-opacity="1" /><path clip-path="url(#clip450)" d="M967.552 76.7889 Q964.392 84.8907 961.394 87.3618 Q958.397 89.8329 953.374 89.8329 L947.419 89.8329 L947.419 83.5945 L951.794 83.5945 Q954.872 83.5945 956.574 82.1361 Q958.275 80.6778 960.341 75.2496 L961.678 71.8468 L943.327 27.2059 L951.227 27.2059 L965.405 62.6918 L979.583 27.2059 L987.482 27.2059 L967.552 76.7889 Z" fill="#ffffff" fill-rule="evenodd" fill-opacity="1" /><path clip-path="url(#clip450)" d="M1031.52 14.324 L1031.52 27.2059 L1046.87 27.2059 L1046.87 32.9987 L1031.52 32.9987 L1031.52 57.6282 Q1031.52 63.1779 1033.01 64.7578 Q1034.55 66.3376 1039.21 66.3376 L1046.87 66.3376 L1046.87 72.576 L1039.21 72.576 Q1030.58 72.576 1027.3 69.3758 Q1024.02 66.1351 1024.02 57.6282 L1024.02 32.9987 L1018.55 32.9987 L1018.55 27.2059 L1024.02 27.2059 L1024.02 14.324 L1031.52 14.324 Z" fill="#ffffff" fill-rule="evenodd" fill-opacity="1" /><path clip-path="url(#clip450)" d="M1074.25 32.4315 Q1068.26 32.4315 1064.77 37.1306 Q1061.29 41.7891 1061.29 49.9314 Q1061.29 58.0738 1064.73 62.7728 Q1068.22 67.4314 1074.25 67.4314 Q1080.21 67.4314 1083.69 62.7323 Q1087.17 58.0333 1087.17 49.9314 Q1087.17 41.8701 1083.69 37.1711 Q1080.21 32.4315 1074.25 32.4315 M1074.25 26.1121 Q1083.97 26.1121 1089.52 32.4315 Q1095.07 38.7509 1095.07 49.9314 Q1095.07 61.0714 1089.52 67.4314 Q1083.97 73.7508 1074.25 73.7508 Q1064.49 73.7508 1058.94 67.4314 Q1053.43 61.0714 1053.43 49.9314 Q1053.43 38.7509 1058.94 32.4315 Q1064.49 26.1121 1074.25 26.1121 Z" fill="#ffffff" fill-rule="evenodd" fill-opacity="1" /><path clip-path="url(#clip450)" d="M1154.34 20.1573 L1143.24 50.2555 L1165.48 50.2555 L1154.34 20.1573 M1149.72 12.096 L1159 12.096 L1182.05 72.576 L1173.54 72.576 L1168.03 57.061 L1140.77 57.061 L1135.26 72.576 L1126.63 72.576 L1149.72 12.096 Z" fill="#ffffff" fill-rule="evenodd" fill-opacity="1" /><path clip-path="url(#clip450)" d="M1196.47 14.324 L1196.47 27.2059 L1211.82 27.2059 L1211.82 32.9987 L1196.47 32.9987 L1196.47 57.6282 Q1196.47 63.1779 1197.97 64.7578 Q1199.51 66.3376 1204.17 66.3376 L1211.82 66.3376 L1211.82 72.576 L1204.17 72.576 Q1195.54 72.576 1192.26 69.3758 Q1188.97 66.1351 1188.97 57.6282 L1188.97 32.9987 L1183.51 32.9987 L1183.51 27.2059 L1188.97 27.2059 L1188.97 14.324 L1196.47 14.324 Z" fill="#ffffff" fill-rule="evenodd" fill-opacity="1" /><path clip-path="url(#clip450)" d="M1256.95 35.9153 Q1259.74 30.8922 1263.63 28.5022 Q1267.52 26.1121 1272.79 26.1121 Q1279.88 26.1121 1283.72 31.0947 Q1287.57 36.0368 1287.57 45.1919 L1287.57 72.576 L1280.08 72.576 L1280.08 45.4349 Q1280.08 38.913 1277.77 35.7533 Q1275.46 32.5936 1270.72 32.5936 Q1264.93 32.5936 1261.57 36.4419 Q1258.2 40.2903 1258.2 46.9338 L1258.2 72.576 L1250.71 72.576 L1250.71 45.4349 Q1250.71 38.8725 1248.4 35.7533 Q1246.09 32.5936 1241.27 32.5936 Q1235.56 32.5936 1232.2 36.4824 Q1228.84 40.3308 1228.84 46.9338 L1228.84 72.576 L1221.34 72.576 L1221.34 27.2059 L1228.84 27.2059 L1228.84 34.2544 Q1231.39 30.082 1234.95 28.0971 Q1238.52 26.1121 1243.42 26.1121 Q1248.36 26.1121 1251.8 28.6237 Q1255.29 31.1352 1256.95 35.9153 Z" fill="#ffffff" fill-rule="evenodd" fill-opacity="1" /><path clip-path="url(#clip450)" d="M1320.02 32.4315 Q1314.03 32.4315 1310.54 37.1306 Q1307.06 41.7891 1307.06 49.9314 Q1307.06 58.0738 1310.5 62.7728 Q1313.99 67.4314 1320.02 67.4314 Q1325.98 67.4314 1329.46 62.7323 Q1332.94 58.0333 1332.94 49.9314 Q1332.94 41.8701 1329.46 37.1711 Q1325.98 32.4315 1320.02 32.4315 M1320.02 26.1121 Q1329.74 26.1121 1335.29 32.4315 Q1340.84 38.7509 1340.84 49.9314 Q1340.84 61.0714 1335.29 67.4314 Q1329.74 73.7508 1320.02 73.7508 Q1310.26 73.7508 1304.71 67.4314 Q1299.2 61.0714 1299.2 49.9314 Q1299.2 38.7509 1304.71 32.4315 Q1310.26 26.1121 1320.02 26.1121 Z" fill="#ffffff" fill-rule="evenodd" fill-opacity="1" /><path clip-path="url(#clip450)" d="M1382.12 28.5427 L1382.12 35.5912 Q1378.96 33.9709 1375.56 33.1607 Q1372.16 32.3505 1368.51 32.3505 Q1362.96 32.3505 1360.17 34.0519 Q1357.41 35.7533 1357.41 39.156 Q1357.41 41.7486 1359.4 43.2475 Q1361.38 44.7058 1367.38 46.0426 L1369.93 46.6097 Q1377.87 48.3111 1381.19 51.4303 Q1384.55 54.509 1384.55 60.0587 Q1384.55 66.3781 1379.53 70.0644 Q1374.55 73.7508 1365.8 73.7508 Q1362.15 73.7508 1358.18 73.0216 Q1354.25 72.3329 1349.88 70.9151 L1349.88 63.2184 Q1354.01 65.3654 1358.02 66.4591 Q1362.03 67.5124 1365.96 67.5124 Q1371.22 67.5124 1374.06 65.73 Q1376.9 63.9071 1376.9 60.6258 Q1376.9 57.5877 1374.83 55.9673 Q1372.8 54.3469 1365.88 52.8481 L1363.28 52.2405 Q1356.36 50.7821 1353.28 47.7845 Q1350.2 44.7463 1350.2 39.4801 Q1350.2 33.0797 1354.74 29.5959 Q1359.27 26.1121 1367.62 26.1121 Q1371.75 26.1121 1375.4 26.7198 Q1379.04 27.3274 1382.12 28.5427 Z" fill="#ffffff" fill-rule="evenodd" fill-opacity="1" /><path clip-path="url(#clip450)" d="M1403.63 65.7705 L1403.63 89.8329 L1396.14 89.8329 L1396.14 27.2059 L1403.63 27.2059 L1403.63 34.0924 Q1405.98 30.0415 1409.55 28.0971 Q1413.15 26.1121 1418.13 26.1121 Q1426.4 26.1121 1431.54 32.6746 Q1436.73 39.2371 1436.73 49.9314 Q1436.73 60.6258 1431.54 67.1883 Q1426.4 73.7508 1418.13 73.7508 Q1413.15 73.7508 1409.55 71.8063 Q1405.98 69.8214 1403.63 65.7705 M1428.99 49.9314 Q1428.99 41.7081 1425.59 37.0496 Q1422.23 32.3505 1416.31 32.3505 Q1410.4 32.3505 1406.99 37.0496 Q1403.63 41.7081 1403.63 49.9314 Q1403.63 58.1548 1406.99 62.8538 Q1410.4 67.5124 1416.31 67.5124 Q1422.23 67.5124 1425.59 62.8538 Q1428.99 58.1548 1428.99 49.9314 Z" fill="#ffffff" fill-rule="evenodd" fill-opacity="1" /><path clip-path="url(#clip450)" d="M1486.8 45.1919 L1486.8 72.576 L1479.34 72.576 L1479.34 45.4349 Q1479.34 38.994 1476.83 35.7938 Q1474.32 32.5936 1469.3 32.5936 Q1463.26 32.5936 1459.78 36.4419 Q1456.29 40.2903 1456.29 46.9338 L1456.29 72.576 L1448.8 72.576 L1448.8 9.54393 L1456.29 9.54393 L1456.29 34.2544 Q1458.97 30.163 1462.57 28.1376 Q1466.22 26.1121 1470.96 26.1121 Q1478.78 26.1121 1482.79 30.9732 Q1486.8 35.7938 1486.8 45.1919 Z" fill="#ffffff" fill-rule="evenodd" fill-opacity="1" /><path clip-path="url(#clip450)" d="M1540.47 48.0275 L1540.47 51.6733 L1506.2 51.6733 Q1506.69 59.3701 1510.82 63.421 Q1514.99 67.4314 1522.4 67.4314 Q1526.7 67.4314 1530.71 66.3781 Q1534.76 65.3249 1538.73 63.2184 L1538.73 70.267 Q1534.72 71.9684 1530.51 72.8596 Q1526.29 73.7508 1521.96 73.7508 Q1511.1 73.7508 1504.74 67.4314 Q1498.42 61.1119 1498.42 50.3365 Q1498.42 39.1965 1504.42 32.6746 Q1510.45 26.1121 1520.66 26.1121 Q1529.82 26.1121 1535.12 32.0264 Q1540.47 37.9003 1540.47 48.0275 M1533.02 45.84 Q1532.94 39.7232 1529.57 36.0774 Q1526.25 32.4315 1520.74 32.4315 Q1514.5 32.4315 1510.74 35.9558 Q1507.01 39.4801 1506.44 45.8805 L1533.02 45.84 Z" fill="#ffffff" fill-rule="evenodd" fill-opacity="1" /><path clip-path="url(#clip450)" d="M1579 34.1734 Q1577.74 33.4443 1576.24 33.1202 Q1574.78 32.7556 1573 32.7556 Q1566.68 32.7556 1563.28 36.8875 Q1559.92 40.9789 1559.92 48.6757 L1559.92 72.576 L1552.42 72.576 L1552.42 27.2059 L1559.92 27.2059 L1559.92 34.2544 Q1562.27 30.1225 1566.03 28.1376 Q1569.8 26.1121 1575.19 26.1121 Q1575.96 26.1121 1576.89 26.2337 Q1577.82 26.3147 1578.95 26.5172 L1579 34.1734 Z" fill="#ffffff" fill-rule="evenodd" fill-opacity="1" /><path clip-path="url(#clip450)" d="M1586.81 27.2059 L1594.27 27.2059 L1594.27 72.576 L1586.81 72.576 L1586.81 27.2059 M1586.81 9.54393 L1594.27 9.54393 L1594.27 18.9825 L1586.81 18.9825 L1586.81 9.54393 Z" fill="#ffffff" fill-rule="evenodd" fill-opacity="1" /><path clip-path="url(#clip450)" d="M1642.51 28.9478 L1642.51 35.9153 Q1639.35 34.1734 1636.15 33.3227 Q1632.99 32.4315 1629.75 32.4315 Q1622.5 32.4315 1618.49 37.0496 Q1614.48 41.6271 1614.48 49.9314 Q1614.48 58.2358 1618.49 62.8538 Q1622.5 67.4314 1629.75 67.4314 Q1632.99 67.4314 1636.15 66.5807 Q1639.35 65.6895 1642.51 63.9476 L1642.51 70.8341 Q1639.39 72.2924 1636.03 73.0216 Q1632.71 73.7508 1628.94 73.7508 Q1618.69 73.7508 1612.66 67.3098 Q1606.62 60.8689 1606.62 49.9314 Q1606.62 38.832 1612.7 32.472 Q1618.82 26.1121 1629.43 26.1121 Q1632.87 26.1121 1636.15 26.8413 Q1639.43 27.5299 1642.51 28.9478 Z" fill="#ffffff" fill-rule="evenodd" fill-opacity="1" /><path clip-path="url(#clip450)" d="M1718.43 14.0809 L1718.43 22.0612 Q1713.77 19.8332 1709.64 18.7395 Q1705.5 17.6457 1701.66 17.6457 Q1694.97 17.6457 1691.33 20.2383 Q1687.72 22.8309 1687.72 27.611 Q1687.72 31.6214 1690.11 33.6873 Q1692.54 35.7128 1699.27 36.9686 L1704.21 37.9813 Q1713.36 39.7232 1717.7 44.1387 Q1722.07 48.5136 1722.07 55.8863 Q1722.07 64.6767 1716.16 69.2137 Q1710.29 73.7508 1698.9 73.7508 Q1694.61 73.7508 1689.75 72.7785 Q1684.93 71.8063 1679.74 69.9024 L1679.74 61.4765 Q1684.72 64.2716 1689.5 65.6895 Q1694.28 67.1073 1698.9 67.1073 Q1705.91 67.1073 1709.72 64.3527 Q1713.53 61.598 1713.53 56.4939 Q1713.53 52.0379 1710.77 49.5264 Q1708.06 47.0148 1701.82 45.759 L1696.84 44.7868 Q1687.68 42.9639 1683.59 39.075 Q1679.5 35.1862 1679.5 28.2591 Q1679.5 20.2383 1685.13 15.6203 Q1690.8 11.0023 1700.72 11.0023 Q1704.98 11.0023 1709.39 11.7719 Q1713.81 12.5416 1718.43 14.0809 Z" fill="#ffffff" fill-rule="evenodd" fill-opacity="1" /><path clip-path="url(#clip450)" d="M1741.88 14.324 L1741.88 27.2059 L1757.24 27.2059 L1757.24 32.9987 L1741.88 32.9987 L1741.88 57.6282 Q1741.88 63.1779 1743.38 64.7578 Q1744.92 66.3376 1749.58 66.3376 L1757.24 66.3376 L1757.24 72.576 L1749.58 72.576 Q1740.95 72.576 1737.67 69.3758 Q1734.39 66.1351 1734.39 57.6282 L1734.39 32.9987 L1728.92 32.9987 L1728.92 27.2059 L1734.39 27.2059 L1734.39 14.324 L1741.88 14.324 Z" fill="#ffffff" fill-rule="evenodd" fill-opacity="1" /><path clip-path="url(#clip450)" d="M1787.66 49.7694 Q1778.62 49.7694 1775.14 51.8354 Q1771.66 53.9013 1771.66 58.8839 Q1771.66 62.8538 1774.25 65.2034 Q1776.88 67.5124 1781.38 67.5124 Q1787.58 67.5124 1791.3 63.1374 Q1795.07 58.7219 1795.07 51.4303 L1795.07 49.7694 L1787.66 49.7694 M1802.52 46.6907 L1802.52 72.576 L1795.07 72.576 L1795.07 65.6895 Q1792.52 69.8214 1788.71 71.8063 Q1784.9 73.7508 1779.39 73.7508 Q1772.43 73.7508 1768.29 69.8619 Q1764.2 65.9325 1764.2 59.3701 Q1764.2 51.7138 1769.31 47.825 Q1774.45 43.9361 1784.62 43.9361 L1795.07 43.9361 L1795.07 43.2069 Q1795.07 38.0623 1791.67 35.2672 Q1788.31 32.4315 1782.19 32.4315 Q1778.3 32.4315 1774.61 33.3632 Q1770.93 34.295 1767.52 36.1584 L1767.52 29.2718 Q1771.62 27.692 1775.46 26.9223 Q1779.31 26.1121 1782.96 26.1121 Q1792.8 26.1121 1797.66 31.2163 Q1802.52 36.3204 1802.52 46.6907 Z" fill="#ffffff" fill-rule="evenodd" fill-opacity="1" /><path clip-path="url(#clip450)" d="M1850.45 49.9314 Q1850.45 41.7081 1847.04 37.0496 Q1843.68 32.3505 1837.77 32.3505 Q1831.85 32.3505 1828.45 37.0496 Q1825.09 41.7081 1825.09 49.9314 Q1825.09 58.1548 1828.45 62.8538 Q1831.85 67.5124 1837.77 67.5124 Q1843.68 67.5124 1847.04 62.8538 Q1850.45 58.1548 1850.45 49.9314 M1825.09 34.0924 Q1827.44 30.0415 1831 28.0971 Q1834.61 26.1121 1839.59 26.1121 Q1847.85 26.1121 1853 32.6746 Q1858.18 39.2371 1858.18 49.9314 Q1858.18 60.6258 1853 67.1883 Q1847.85 73.7508 1839.59 73.7508 Q1834.61 73.7508 1831 71.8063 Q1827.44 69.8214 1825.09 65.7705 L1825.09 72.576 L1817.59 72.576 L1817.59 9.54393 L1825.09 9.54393 L1825.09 34.0924 Z" fill="#ffffff" fill-rule="evenodd" fill-opacity="1" /><path clip-path="url(#clip450)" d="M1870.54 27.2059 L1877.99 27.2059 L1877.99 72.576 L1870.54 72.576 L1870.54 27.2059 M1870.54 9.54393 L1877.99 9.54393 L1877.99 18.9825 L1870.54 18.9825 L1870.54 9.54393 Z" fill="#ffffff" fill-rule="evenodd" fill-opacity="1" /><path clip-path="url(#clip450)" d="M1893.59 9.54393 L1901.04 9.54393 L1901.04 72.576 L1893.59 72.576 L1893.59 9.54393 Z" fill="#ffffff" fill-rule="evenodd" fill-opacity="1" /><path clip-path="url(#clip450)" d="M1916.64 27.2059 L1924.09 27.2059 L1924.09 72.576 L1916.64 72.576 L1916.64 27.2059 M1916.64 9.54393 L1924.09 9.54393 L1924.09 18.9825 L1916.64 18.9825 L1916.64 9.54393 Z" fill="#ffffff" fill-rule="evenodd" fill-opacity="1" /><path clip-path="url(#clip450)" d="M1947.06 14.324 L1947.06 27.2059 L1962.41 27.2059 L1962.41 32.9987 L1947.06 32.9987 L1947.06 57.6282 Q1947.06 63.1779 1948.56 64.7578 Q1950.1 66.3376 1954.76 66.3376 L1962.41 66.3376 L1962.41 72.576 L1954.76 72.576 Q1946.13 72.576 1942.85 69.3758 Q1939.57 66.1351 1939.57 57.6282 L1939.57 32.9987 L1934.1 32.9987 L1934.1 27.2059 L1939.57 27.2059 L1939.57 14.324 L1947.06 14.324 Z" fill="#ffffff" fill-rule="evenodd" fill-opacity="1" /><path clip-path="url(#clip450)" d="M1991.09 76.7889 Q1987.93 84.8907 1984.94 87.3618 Q1981.94 89.8329 1976.92 89.8329 L1970.96 89.8329 L1970.96 83.5945 L1975.34 83.5945 Q1978.41 83.5945 1980.12 82.1361 Q1981.82 80.6778 1983.88 75.2496 L1985.22 71.8468 L1966.87 27.2059 L1974.77 27.2059 L1988.95 62.6918 L2003.12 27.2059 L2011.02 27.2059 L1991.09 76.7889 Z" fill="#ffffff" fill-rule="evenodd" fill-opacity="1" /><path clip-path="url(#clip452)" d="
M307.085 1202.61 L307.085 1211.1 L507.021 1211.1 L507.021 1202.61 L307.085 1202.61 L307.085 1202.61  Z
  " fill="#009af9" fill-rule="evenodd" fill-opacity="1"/>
<polyline clip-path="url(#clip452)" style="stroke:#ffffff; stroke-linecap:round; stroke-linejoin:round; stroke-width:4; stroke-opacity:1; fill:none" points="
  307.085,1202.61 307.085,1211.1 507.021,1211.1 507.021,1202.61 307.085,1202.61 
  "/>
<circle clip-path="url(#clip452)" style="fill:#009af9; stroke:none; fill-opacity:0" cx="407.053" cy="1202.61" r="2"/>
<path clip-path="url(#clip452)" d="
M662.971 1197.56 L662.971 1211.1 L862.906 1211.1 L862.906 1197.56 L662.971 1197.56 L662.971 1197.56  Z
  " fill="#e26f46" fill-rule="evenodd" fill-opacity="1"/>
<polyline clip-path="url(#clip452)" style="stroke:#ffffff; stroke-linecap:round; stroke-linejoin:round; stroke-width:4; stroke-opacity:1; fill:none" points="
  662.971,1197.56 662.971,1211.1 862.906,1211.1 862.906,1197.56 662.971,1197.56 
  "/>
<circle clip-path="url(#clip452)" style="fill:#e26f46; stroke:none; fill-opacity:0" cx="762.938" cy="1197.56" r="2"/>
<path clip-path="url(#clip452)" d="
M1018.86 1178.95 L1018.86 1211.1 L1218.79 1211.1 L1218.79 1178.95 L1018.86 1178.95 L1018.86 1178.95  Z
  " fill="#3da44d" fill-rule="evenodd" fill-opacity="1"/>
<polyline clip-path="url(#clip452)" style="stroke:#ffffff; stroke-linecap:round; stroke-linejoin:round; stroke-width:4; stroke-opacity:1; fill:none" points="
  1018.86,1178.95 1018.86,1211.1 1218.79,1211.1 1218.79,1178.95 1018.86,1178.95 
  "/>
<circle clip-path="url(#clip452)" style="fill:#3da44d; stroke:none; fill-opacity:0" cx="1118.82" cy="1178.95" r="2"/>
<path clip-path="url(#clip452)" d="
M1374.74 1090.73 L1374.74 1211.1 L1574.68 1211.1 L1574.68 1090.73 L1374.74 1090.73 L1374.74 1090.73  Z
  " fill="#c271d2" fill-rule="evenodd" fill-opacity="1"/>
<polyline clip-path="url(#clip452)" style="stroke:#ffffff; stroke-linecap:round; stroke-linejoin:round; stroke-width:4; stroke-opacity:1; fill:none" points="
  1374.74,1090.73 1374.74,1211.1 1574.68,1211.1 1574.68,1090.73 1374.74,1090.73 
  "/>
<circle clip-path="url(#clip452)" style="fill:#c271d2; stroke:none; fill-opacity:0" cx="1474.71" cy="1090.73" r="2"/>
<path clip-path="url(#clip452)" d="
M1730.63 918.147 L1730.63 1211.1 L1930.56 1211.1 L1930.56 918.147 L1730.63 918.147 L1730.63 918.147  Z
  " fill="#ac8d18" fill-rule="evenodd" fill-opacity="1"/>
<polyline clip-path="url(#clip452)" style="stroke:#ffffff; stroke-linecap:round; stroke-linejoin:round; stroke-width:4; stroke-opacity:1; fill:none" points="
  1730.63,918.147 1730.63,1211.1 1930.56,1211.1 1930.56,918.147 1730.63,918.147 
  "/>
<circle clip-path="url(#clip452)" style="fill:#ac8d18; stroke:none; fill-opacity:0" cx="1830.59" cy="918.147" r="2"/>
<path clip-path="url(#clip452)" d="
M2086.51 147.811 L2086.51 1211.1 L2286.45 1211.1 L2286.45 147.811 L2086.51 147.811 L2086.51 147.811  Z
  " fill="#00a9ad" fill-rule="evenodd" fill-opacity="1"/>
<polyline clip-path="url(#clip452)" style="stroke:#ffffff; stroke-linecap:round; stroke-linejoin:round; stroke-width:4; stroke-opacity:1; fill:none" points="
  2086.51,147.811 2086.51,1211.1 2286.45,1211.1 2286.45,147.811 2086.51,147.811 
  "/>
<circle clip-path="url(#clip452)" style="fill:#00a9ad; stroke:none; fill-opacity:0" cx="2186.48" cy="147.811" r="2"/>
<polyline clip-path="url(#clip452)" style="stroke:#ffff00; stroke-linecap:round; stroke-linejoin:round; stroke-width:4; stroke-opacity:1; fill:none" points="
  282.093,1205.51 2281.45,1205.51 
  "/>
<polyline clip-path="url(#clip452)" style="stroke:#ffa500; stroke-linecap:round; stroke-linejoin:round; stroke-width:4; stroke-opacity:1; fill:none" points="
  282.093,1194.34 2281.45,1194.34 
  "/>
<polyline clip-path="url(#clip452)" style="stroke:#ff0000; stroke-linecap:round; stroke-linejoin:round; stroke-width:4; stroke-opacity:1; fill:none" points="
  282.093,1099.36 2281.45,1099.36 
  "/>
</svg>
