<?xml version="1.0" encoding="utf-8"?>
<svg xmlns="http://www.w3.org/2000/svg" xmlns:xlink="http://www.w3.org/1999/xlink" width="600" height="400" viewBox="0 0 2400 1600">
<defs>
  <clipPath id="clip410">
    <rect x="0" y="0" width="2400" height="1600"/>
  </clipPath>
</defs>
<path clip-path="url(#clip410)" d="
M0 1600 L2400 1600 L2400 0 L0 0  Z
  " fill="#ffffff" fill-rule="evenodd" fill-opacity="1"/>
<defs>
  <clipPath id="clip411">
    <rect x="480" y="0" width="1681" height="1600"/>
  </clipPath>
</defs>
<path clip-path="url(#clip410)" d="
M219.866 1423.18 L2180.97 1423.18 L2180.97 47.2441 L219.866 47.2441  Z
  " fill="#ffffff" fill-rule="evenodd" fill-opacity="1"/>
<defs>
  <clipPath id="clip412">
    <rect x="219" y="47" width="1962" height="1377"/>
  </clipPath>
</defs>
<polyline clip-path="url(#clip412)" style="stroke:#000000; stroke-linecap:round; stroke-linejoin:round; stroke-width:2; stroke-opacity:0.1; fill:none" points="
  275.369,1423.18 275.369,47.2441 
  "/>
<polyline clip-path="url(#clip412)" style="stroke:#000000; stroke-linecap:round; stroke-linejoin:round; stroke-width:2; stroke-opacity:0.1; fill:none" points="
  737.893,1423.18 737.893,47.2441 
  "/>
<polyline clip-path="url(#clip412)" style="stroke:#000000; stroke-linecap:round; stroke-linejoin:round; stroke-width:2; stroke-opacity:0.1; fill:none" points="
  1200.42,1423.18 1200.42,47.2441 
  "/>
<polyline clip-path="url(#clip412)" style="stroke:#000000; stroke-linecap:round; stroke-linejoin:round; stroke-width:2; stroke-opacity:0.1; fill:none" points="
  1662.94,1423.18 1662.94,47.2441 
  "/>
<polyline clip-path="url(#clip412)" style="stroke:#000000; stroke-linecap:round; stroke-linejoin:round; stroke-width:2; stroke-opacity:0.1; fill:none" points="
  2125.46,1423.18 2125.46,47.2441 
  "/>
<polyline clip-path="url(#clip410)" style="stroke:#000000; stroke-linecap:round; stroke-linejoin:round; stroke-width:4; stroke-opacity:1; fill:none" points="
  219.866,1423.18 2180.97,1423.18 
  "/>
<polyline clip-path="url(#clip410)" style="stroke:#000000; stroke-linecap:round; stroke-linejoin:round; stroke-width:4; stroke-opacity:1; fill:none" points="
  275.369,1423.18 275.369,1404.28 
  "/>
<polyline clip-path="url(#clip410)" style="stroke:#000000; stroke-linecap:round; stroke-linejoin:round; stroke-width:4; stroke-opacity:1; fill:none" points="
  737.893,1423.18 737.893,1404.28 
  "/>
<polyline clip-path="url(#clip410)" style="stroke:#000000; stroke-linecap:round; stroke-linejoin:round; stroke-width:4; stroke-opacity:1; fill:none" points="
  1200.42,1423.18 1200.42,1404.28 
  "/>
<polyline clip-path="url(#clip410)" style="stroke:#000000; stroke-linecap:round; stroke-linejoin:round; stroke-width:4; stroke-opacity:1; fill:none" points="
  1662.94,1423.18 1662.94,1404.28 
  "/>
<polyline clip-path="url(#clip410)" style="stroke:#000000; stroke-linecap:round; stroke-linejoin:round; stroke-width:4; stroke-opacity:1; fill:none" points="
  2125.46,1423.18 2125.46,1404.28 
  "/>
<path clip-path="url(#clip410)" d="M237.673 1454.1 Q234.061 1454.1 232.233 1457.66 Q230.427 1461.2 230.427 1468.33 Q230.427 1475.44 232.233 1479.01 Q234.061 1482.55 237.673 1482.55 Q241.307 1482.55 243.112 1479.01 Q244.941 1475.44 244.941 1468.33 Q244.941 1461.2 243.112 1457.66 Q241.307 1454.1 237.673 1454.1 M237.673 1450.39 Q243.483 1450.39 246.538 1455 Q249.617 1459.58 249.617 1468.33 Q249.617 1477.06 246.538 1481.67 Q243.483 1486.25 237.673 1486.25 Q231.862 1486.25 228.784 1481.67 Q225.728 1477.06 225.728 1468.33 Q225.728 1459.58 228.784 1455 Q231.862 1450.39 237.673 1450.39 Z" fill="#000000" fill-rule="evenodd" fill-opacity="1" /><path clip-path="url(#clip410)" d="M257.834 1479.7 L262.719 1479.7 L262.719 1485.58 L257.834 1485.58 L257.834 1479.7 Z" fill="#000000" fill-rule="evenodd" fill-opacity="1" /><path clip-path="url(#clip410)" d="M282.904 1454.1 Q279.293 1454.1 277.464 1457.66 Q275.658 1461.2 275.658 1468.33 Q275.658 1475.44 277.464 1479.01 Q279.293 1482.55 282.904 1482.55 Q286.538 1482.55 288.344 1479.01 Q290.172 1475.44 290.172 1468.33 Q290.172 1461.2 288.344 1457.66 Q286.538 1454.1 282.904 1454.1 M282.904 1450.39 Q288.714 1450.39 291.769 1455 Q294.848 1459.58 294.848 1468.33 Q294.848 1477.06 291.769 1481.67 Q288.714 1486.25 282.904 1486.25 Q277.094 1486.25 274.015 1481.67 Q270.959 1477.06 270.959 1468.33 Q270.959 1459.58 274.015 1455 Q277.094 1450.39 282.904 1450.39 Z" fill="#000000" fill-rule="evenodd" fill-opacity="1" /><path clip-path="url(#clip410)" d="M313.066 1454.1 Q309.455 1454.1 307.626 1457.66 Q305.82 1461.2 305.82 1468.33 Q305.82 1475.44 307.626 1479.01 Q309.455 1482.55 313.066 1482.55 Q316.7 1482.55 318.505 1479.01 Q320.334 1475.44 320.334 1468.33 Q320.334 1461.2 318.505 1457.66 Q316.7 1454.1 313.066 1454.1 M313.066 1450.39 Q318.876 1450.39 321.931 1455 Q325.01 1459.58 325.01 1468.33 Q325.01 1477.06 321.931 1481.67 Q318.876 1486.25 313.066 1486.25 Q307.256 1486.25 304.177 1481.67 Q301.121 1477.06 301.121 1468.33 Q301.121 1459.58 304.177 1455 Q307.256 1450.39 313.066 1450.39 Z" fill="#000000" fill-rule="evenodd" fill-opacity="1" /><path clip-path="url(#clip410)" d="M700.694 1454.1 Q697.083 1454.1 695.254 1457.66 Q693.449 1461.2 693.449 1468.33 Q693.449 1475.44 695.254 1479.01 Q697.083 1482.55 700.694 1482.55 Q704.328 1482.55 706.134 1479.01 Q707.962 1475.44 707.962 1468.33 Q707.962 1461.2 706.134 1457.66 Q704.328 1454.1 700.694 1454.1 M700.694 1450.39 Q706.504 1450.39 709.56 1455 Q712.638 1459.58 712.638 1468.33 Q712.638 1477.06 709.56 1481.67 Q706.504 1486.25 700.694 1486.25 Q694.884 1486.25 691.805 1481.67 Q688.75 1477.06 688.75 1468.33 Q688.75 1459.58 691.805 1455 Q694.884 1450.39 700.694 1450.39 Z" fill="#000000" fill-rule="evenodd" fill-opacity="1" /><path clip-path="url(#clip410)" d="M720.856 1479.7 L725.74 1479.7 L725.74 1485.58 L720.856 1485.58 L720.856 1479.7 Z" fill="#000000" fill-rule="evenodd" fill-opacity="1" /><path clip-path="url(#clip410)" d="M739.953 1481.64 L756.272 1481.64 L756.272 1485.58 L734.328 1485.58 L734.328 1481.64 Q736.99 1478.89 741.573 1474.26 Q746.18 1469.61 747.36 1468.27 Q749.606 1465.74 750.485 1464.01 Q751.388 1462.25 751.388 1460.56 Q751.388 1457.8 749.444 1456.07 Q747.522 1454.33 744.421 1454.33 Q742.222 1454.33 739.768 1455.09 Q737.337 1455.86 734.56 1457.41 L734.56 1452.69 Q737.384 1451.55 739.837 1450.97 Q742.291 1450.39 744.328 1450.39 Q749.698 1450.39 752.893 1453.08 Q756.087 1455.77 756.087 1460.26 Q756.087 1462.39 755.277 1464.31 Q754.49 1466.2 752.384 1468.8 Q751.805 1469.47 748.703 1472.69 Q745.601 1475.88 739.953 1481.64 Z" fill="#000000" fill-rule="evenodd" fill-opacity="1" /><path clip-path="url(#clip410)" d="M766.133 1451.02 L784.49 1451.02 L784.49 1454.96 L770.416 1454.96 L770.416 1463.43 Q771.434 1463.08 772.453 1462.92 Q773.471 1462.73 774.49 1462.73 Q780.277 1462.73 783.657 1465.9 Q787.036 1469.08 787.036 1474.49 Q787.036 1480.07 783.564 1483.17 Q780.092 1486.25 773.772 1486.25 Q771.596 1486.25 769.328 1485.88 Q767.083 1485.51 764.675 1484.77 L764.675 1480.07 Q766.758 1481.2 768.981 1481.76 Q771.203 1482.32 773.68 1482.32 Q777.684 1482.32 780.022 1480.21 Q782.36 1478.1 782.36 1474.49 Q782.36 1470.88 780.022 1468.77 Q777.684 1466.67 773.68 1466.67 Q771.805 1466.67 769.93 1467.08 Q768.078 1467.5 766.133 1468.38 L766.133 1451.02 Z" fill="#000000" fill-rule="evenodd" fill-opacity="1" /><path clip-path="url(#clip410)" d="M1162.72 1454.1 Q1159.11 1454.1 1157.28 1457.66 Q1155.47 1461.2 1155.47 1468.33 Q1155.47 1475.44 1157.28 1479.01 Q1159.11 1482.55 1162.72 1482.55 Q1166.35 1482.55 1168.16 1479.01 Q1169.99 1475.44 1169.99 1468.33 Q1169.99 1461.2 1168.16 1457.66 Q1166.35 1454.1 1162.72 1454.1 M1162.72 1450.39 Q1168.53 1450.39 1171.59 1455 Q1174.66 1459.58 1174.66 1468.33 Q1174.66 1477.06 1171.59 1481.67 Q1168.53 1486.25 1162.72 1486.25 Q1156.91 1486.25 1153.83 1481.67 Q1150.78 1477.06 1150.78 1468.33 Q1150.78 1459.58 1153.83 1455 Q1156.91 1450.39 1162.72 1450.39 Z" fill="#000000" fill-rule="evenodd" fill-opacity="1" /><path clip-path="url(#clip410)" d="M1182.88 1479.7 L1187.77 1479.7 L1187.77 1485.58 L1182.88 1485.58 L1182.88 1479.7 Z" fill="#000000" fill-rule="evenodd" fill-opacity="1" /><path clip-path="url(#clip410)" d="M1198 1451.02 L1216.35 1451.02 L1216.35 1454.96 L1202.28 1454.96 L1202.28 1463.43 Q1203.3 1463.08 1204.32 1462.92 Q1205.34 1462.73 1206.35 1462.73 Q1212.14 1462.73 1215.52 1465.9 Q1218.9 1469.08 1218.9 1474.49 Q1218.9 1480.07 1215.43 1483.17 Q1211.96 1486.25 1205.64 1486.25 Q1203.46 1486.25 1201.19 1485.88 Q1198.95 1485.51 1196.54 1484.77 L1196.54 1480.07 Q1198.62 1481.2 1200.84 1481.76 Q1203.07 1482.32 1205.54 1482.32 Q1209.55 1482.32 1211.89 1480.21 Q1214.22 1478.1 1214.22 1474.49 Q1214.22 1470.88 1211.89 1468.77 Q1209.55 1466.67 1205.54 1466.67 Q1203.67 1466.67 1201.79 1467.08 Q1199.94 1467.5 1198 1468.38 L1198 1451.02 Z" fill="#000000" fill-rule="evenodd" fill-opacity="1" /><path clip-path="url(#clip410)" d="M1238.11 1454.1 Q1234.5 1454.1 1232.67 1457.66 Q1230.87 1461.2 1230.87 1468.33 Q1230.87 1475.44 1232.67 1479.01 Q1234.5 1482.55 1238.11 1482.55 Q1241.75 1482.55 1243.55 1479.01 Q1245.38 1475.44 1245.38 1468.33 Q1245.38 1461.2 1243.55 1457.66 Q1241.75 1454.1 1238.11 1454.1 M1238.11 1450.39 Q1243.92 1450.39 1246.98 1455 Q1250.06 1459.58 1250.06 1468.33 Q1250.06 1477.06 1246.98 1481.67 Q1243.92 1486.25 1238.11 1486.25 Q1232.3 1486.25 1229.22 1481.67 Q1226.17 1477.06 1226.17 1468.33 Q1226.17 1459.58 1229.22 1455 Q1232.3 1450.39 1238.11 1450.39 Z" fill="#000000" fill-rule="evenodd" fill-opacity="1" /><path clip-path="url(#clip410)" d="M1625.74 1454.1 Q1622.13 1454.1 1620.3 1457.66 Q1618.5 1461.2 1618.5 1468.33 Q1618.5 1475.44 1620.3 1479.01 Q1622.13 1482.55 1625.74 1482.55 Q1629.38 1482.55 1631.18 1479.01 Q1633.01 1475.44 1633.01 1468.33 Q1633.01 1461.2 1631.18 1457.66 Q1629.38 1454.1 1625.74 1454.1 M1625.74 1450.39 Q1631.55 1450.39 1634.61 1455 Q1637.69 1459.58 1637.69 1468.33 Q1637.69 1477.06 1634.61 1481.67 Q1631.55 1486.25 1625.74 1486.25 Q1619.93 1486.25 1616.85 1481.67 Q1613.8 1477.06 1613.8 1468.33 Q1613.8 1459.58 1616.85 1455 Q1619.93 1450.39 1625.74 1450.39 Z" fill="#000000" fill-rule="evenodd" fill-opacity="1" /><path clip-path="url(#clip410)" d="M1645.9 1479.7 L1650.79 1479.7 L1650.79 1485.58 L1645.9 1485.58 L1645.9 1479.7 Z" fill="#000000" fill-rule="evenodd" fill-opacity="1" /><path clip-path="url(#clip410)" d="M1659.79 1451.02 L1682.01 1451.02 L1682.01 1453.01 L1669.47 1485.58 L1664.58 1485.58 L1676.39 1454.96 L1659.79 1454.96 L1659.79 1451.02 Z" fill="#000000" fill-rule="evenodd" fill-opacity="1" /><path clip-path="url(#clip410)" d="M1691.18 1451.02 L1709.54 1451.02 L1709.54 1454.96 L1695.46 1454.96 L1695.46 1463.43 Q1696.48 1463.08 1697.5 1462.92 Q1698.52 1462.73 1699.54 1462.73 Q1705.32 1462.73 1708.7 1465.9 Q1712.08 1469.08 1712.08 1474.49 Q1712.08 1480.07 1708.61 1483.17 Q1705.14 1486.25 1698.82 1486.25 Q1696.64 1486.25 1694.38 1485.88 Q1692.13 1485.51 1689.72 1484.77 L1689.72 1480.07 Q1691.81 1481.2 1694.03 1481.76 Q1696.25 1482.32 1698.73 1482.32 Q1702.73 1482.32 1705.07 1480.21 Q1707.41 1478.1 1707.41 1474.49 Q1707.41 1470.88 1705.07 1468.77 Q1702.73 1466.67 1698.73 1466.67 Q1696.85 1466.67 1694.98 1467.08 Q1693.13 1467.5 1691.18 1468.38 L1691.18 1451.02 Z" fill="#000000" fill-rule="evenodd" fill-opacity="1" /><path clip-path="url(#clip410)" d="M2077.54 1481.64 L2085.18 1481.64 L2085.18 1455.28 L2076.86 1456.95 L2076.86 1452.69 L2085.13 1451.02 L2089.8 1451.02 L2089.8 1481.64 L2097.44 1481.64 L2097.44 1485.58 L2077.54 1485.58 L2077.54 1481.64 Z" fill="#000000" fill-rule="evenodd" fill-opacity="1" /><path clip-path="url(#clip410)" d="M2106.89 1479.7 L2111.77 1479.7 L2111.77 1485.58 L2106.89 1485.58 L2106.89 1479.7 Z" fill="#000000" fill-rule="evenodd" fill-opacity="1" /><path clip-path="url(#clip410)" d="M2131.96 1454.1 Q2128.35 1454.1 2126.52 1457.66 Q2124.71 1461.2 2124.71 1468.33 Q2124.71 1475.44 2126.52 1479.01 Q2128.35 1482.55 2131.96 1482.55 Q2135.59 1482.55 2137.4 1479.01 Q2139.23 1475.44 2139.23 1468.33 Q2139.23 1461.2 2137.4 1457.66 Q2135.59 1454.1 2131.96 1454.1 M2131.96 1450.39 Q2137.77 1450.39 2140.82 1455 Q2143.9 1459.58 2143.9 1468.33 Q2143.9 1477.06 2140.82 1481.67 Q2137.77 1486.25 2131.96 1486.25 Q2126.15 1486.25 2123.07 1481.67 Q2120.01 1477.06 2120.01 1468.33 Q2120.01 1459.58 2123.07 1455 Q2126.15 1450.39 2131.96 1450.39 Z" fill="#000000" fill-rule="evenodd" fill-opacity="1" /><path clip-path="url(#clip410)" d="M2162.12 1454.1 Q2158.51 1454.1 2156.68 1457.66 Q2154.87 1461.2 2154.87 1468.33 Q2154.87 1475.44 2156.68 1479.01 Q2158.51 1482.55 2162.12 1482.55 Q2165.75 1482.55 2167.56 1479.01 Q2169.39 1475.44 2169.39 1468.33 Q2169.39 1461.2 2167.56 1457.66 Q2165.75 1454.1 2162.12 1454.1 M2162.12 1450.39 Q2167.93 1450.39 2170.98 1455 Q2174.06 1459.58 2174.06 1468.33 Q2174.06 1477.06 2170.98 1481.67 Q2167.93 1486.25 2162.12 1486.25 Q2156.31 1486.25 2153.23 1481.67 Q2150.17 1477.06 2150.17 1468.33 Q2150.17 1459.58 2153.23 1455 Q2156.31 1450.39 2162.12 1450.39 Z" fill="#000000" fill-rule="evenodd" fill-opacity="1" /><path clip-path="url(#clip410)" d="M778.179 1520.52 L787.76 1520.52 L799.886 1552.86 L812.077 1520.52 L821.657 1520.52 L821.657 1568.04 L815.387 1568.04 L815.387 1526.32 L803.133 1558.91 L796.672 1558.91 L784.418 1526.32 L784.418 1568.04 L778.179 1568.04 L778.179 1520.52 Z" fill="#000000" fill-rule="evenodd" fill-opacity="1" /><path clip-path="url(#clip410)" d="M847.979 1536.5 Q843.269 1536.5 840.531 1540.19 Q837.794 1543.85 837.794 1550.25 Q837.794 1556.65 840.5 1560.34 Q843.237 1564 847.979 1564 Q852.658 1564 855.395 1560.31 Q858.133 1556.62 858.133 1550.25 Q858.133 1543.92 855.395 1540.23 Q852.658 1536.5 847.979 1536.5 M847.979 1531.54 Q855.618 1531.54 859.979 1536.5 Q864.339 1541.47 864.339 1550.25 Q864.339 1559 859.979 1564 Q855.618 1568.97 847.979 1568.97 Q840.309 1568.97 835.948 1564 Q831.619 1559 831.619 1550.25 Q831.619 1541.47 835.948 1536.5 Q840.309 1531.54 847.979 1531.54 Z" fill="#000000" fill-rule="evenodd" fill-opacity="1" /><path clip-path="url(#clip410)" d="M874.047 1518.52 L879.903 1518.52 L879.903 1568.04 L874.047 1568.04 L874.047 1518.52 Z" fill="#000000" fill-rule="evenodd" fill-opacity="1" /><path clip-path="url(#clip410)" d="M922.649 1548.76 L922.649 1551.62 L895.722 1551.62 Q896.104 1557.67 899.351 1560.85 Q902.629 1564 908.454 1564 Q911.827 1564 914.978 1563.17 Q918.161 1562.35 921.28 1560.69 L921.28 1566.23 Q918.129 1567.57 914.819 1568.27 Q911.509 1568.97 908.103 1568.97 Q899.573 1568.97 894.576 1564 Q889.611 1559.04 889.611 1550.57 Q889.611 1541.82 894.322 1536.69 Q899.064 1531.54 907.085 1531.54 Q914.278 1531.54 918.448 1536.18 Q922.649 1540.8 922.649 1548.76 M916.793 1547.04 Q916.729 1542.23 914.087 1539.37 Q911.477 1536.5 907.149 1536.5 Q902.247 1536.5 899.287 1539.27 Q896.359 1542.04 895.913 1547.07 L916.793 1547.04 Z" fill="#000000" fill-rule="evenodd" fill-opacity="1" /><path clip-path="url(#clip410)" d="M953.236 1520.52 L980.545 1520.52 L980.545 1525.93 L959.666 1525.93 L959.666 1539.94 L978.508 1539.94 L978.508 1545.35 L959.666 1545.35 L959.666 1568.04 L953.236 1568.04 L953.236 1520.52 Z" fill="#000000" fill-rule="evenodd" fill-opacity="1" /><path clip-path="url(#clip410)" d="M1006.39 1537.87 Q1005.4 1537.3 1004.23 1537.04 Q1003.08 1536.76 1001.68 1536.76 Q996.714 1536.76 994.04 1540 Q991.399 1543.22 991.399 1549.27 L991.399 1568.04 L985.51 1568.04 L985.51 1532.4 L991.399 1532.4 L991.399 1537.93 Q993.245 1534.69 996.205 1533.13 Q999.165 1531.54 1003.4 1531.54 Q1004 1531.54 1004.73 1531.63 Q1005.47 1531.7 1006.36 1531.85 L1006.39 1537.87 Z" fill="#000000" fill-rule="evenodd" fill-opacity="1" /><path clip-path="url(#clip410)" d="M1028.73 1550.12 Q1021.64 1550.12 1018.9 1551.75 Q1016.16 1553.37 1016.16 1557.29 Q1016.16 1560.4 1018.2 1562.25 Q1020.27 1564.07 1023.8 1564.07 Q1028.67 1564.07 1031.6 1560.63 Q1034.56 1557.16 1034.56 1551.43 L1034.56 1550.12 L1028.73 1550.12 M1040.41 1547.71 L1040.41 1568.04 L1034.56 1568.04 L1034.56 1562.63 Q1032.55 1565.88 1029.56 1567.44 Q1026.57 1568.97 1022.24 1568.97 Q1016.77 1568.97 1013.52 1565.91 Q1010.3 1562.82 1010.3 1557.67 Q1010.3 1551.65 1014.32 1548.6 Q1018.36 1545.54 1026.35 1545.54 L1034.56 1545.54 L1034.56 1544.97 Q1034.56 1540.93 1031.88 1538.73 Q1029.24 1536.5 1024.44 1536.5 Q1021.38 1536.5 1018.48 1537.23 Q1015.59 1537.97 1012.91 1539.43 L1012.91 1534.02 Q1016.13 1532.78 1019.15 1532.17 Q1022.18 1531.54 1025.04 1531.54 Q1032.78 1531.54 1036.6 1535.55 Q1040.41 1539.56 1040.41 1547.71 Z" fill="#000000" fill-rule="evenodd" fill-opacity="1" /><path clip-path="url(#clip410)" d="M1078.13 1533.76 L1078.13 1539.24 Q1075.65 1537.87 1073.13 1537.2 Q1070.65 1536.5 1068.11 1536.5 Q1062.41 1536.5 1059.26 1540.13 Q1056.11 1543.73 1056.11 1550.25 Q1056.11 1556.78 1059.26 1560.4 Q1062.41 1564 1068.11 1564 Q1070.65 1564 1073.13 1563.33 Q1075.65 1562.63 1078.13 1561.26 L1078.13 1566.68 Q1075.68 1567.82 1073.04 1568.39 Q1070.43 1568.97 1067.47 1568.97 Q1059.42 1568.97 1054.67 1563.91 Q1049.93 1558.85 1049.93 1550.25 Q1049.93 1541.53 1054.71 1536.53 Q1059.51 1531.54 1067.85 1531.54 Q1070.56 1531.54 1073.13 1532.11 Q1075.71 1532.65 1078.13 1533.76 Z" fill="#000000" fill-rule="evenodd" fill-opacity="1" /><path clip-path="url(#clip410)" d="M1094.11 1522.27 L1094.11 1532.4 L1106.17 1532.4 L1106.17 1536.95 L1094.11 1536.95 L1094.11 1556.3 Q1094.11 1560.66 1095.29 1561.9 Q1096.5 1563.14 1100.16 1563.14 L1106.17 1563.14 L1106.17 1568.04 L1100.16 1568.04 Q1093.38 1568.04 1090.8 1565.53 Q1088.22 1562.98 1088.22 1556.3 L1088.22 1536.95 L1083.92 1536.95 L1083.92 1532.4 L1088.22 1532.4 L1088.22 1522.27 L1094.11 1522.27 Z" fill="#000000" fill-rule="evenodd" fill-opacity="1" /><path clip-path="url(#clip410)" d="M1113.87 1532.4 L1119.73 1532.4 L1119.73 1568.04 L1113.87 1568.04 L1113.87 1532.4 M1113.87 1518.52 L1119.73 1518.52 L1119.73 1525.93 L1113.87 1525.93 L1113.87 1518.52 Z" fill="#000000" fill-rule="evenodd" fill-opacity="1" /><path clip-path="url(#clip410)" d="M1145.8 1536.5 Q1141.09 1536.5 1138.35 1540.19 Q1135.61 1543.85 1135.61 1550.25 Q1135.61 1556.65 1138.32 1560.34 Q1141.06 1564 1145.8 1564 Q1150.48 1564 1153.21 1560.31 Q1155.95 1556.62 1155.95 1550.25 Q1155.95 1543.92 1153.21 1540.23 Q1150.48 1536.5 1145.8 1536.5 M1145.8 1531.54 Q1153.44 1531.54 1157.8 1536.5 Q1162.16 1541.47 1162.16 1550.25 Q1162.16 1559 1157.8 1564 Q1153.44 1568.97 1145.8 1568.97 Q1138.13 1568.97 1133.77 1564 Q1129.44 1559 1129.44 1550.25 Q1129.44 1541.47 1133.77 1536.5 Q1138.13 1531.54 1145.8 1531.54 Z" fill="#000000" fill-rule="evenodd" fill-opacity="1" /><path clip-path="url(#clip410)" d="M1201.5 1546.53 L1201.5 1568.04 L1195.64 1568.04 L1195.64 1546.72 Q1195.64 1541.66 1193.67 1539.14 Q1191.7 1536.63 1187.75 1536.63 Q1183.01 1536.63 1180.27 1539.65 Q1177.53 1542.68 1177.53 1547.9 L1177.53 1568.04 L1171.64 1568.04 L1171.64 1532.4 L1177.53 1532.4 L1177.53 1537.93 Q1179.63 1534.72 1182.47 1533.13 Q1185.33 1531.54 1189.05 1531.54 Q1195.2 1531.54 1198.35 1535.36 Q1201.5 1539.14 1201.5 1546.53 Z" fill="#000000" fill-rule="evenodd" fill-opacity="1" /><path clip-path="url(#clip410)" d="M1234.15 1520.52 L1240.58 1520.52 L1240.58 1540 L1263.95 1540 L1263.95 1520.52 L1270.38 1520.52 L1270.38 1568.04 L1263.95 1568.04 L1263.95 1545.41 L1240.58 1545.41 L1240.58 1568.04 L1234.15 1568.04 L1234.15 1520.52 Z" fill="#000000" fill-rule="evenodd" fill-opacity="1" /><path clip-path="url(#clip410)" d="M1297.75 1571.35 Q1295.27 1577.72 1292.91 1579.66 Q1290.56 1581.6 1286.61 1581.6 L1281.93 1581.6 L1281.93 1576.7 L1285.37 1576.7 Q1287.79 1576.7 1289.12 1575.56 Q1290.46 1574.41 1292.08 1570.14 L1293.13 1567.47 L1278.71 1532.4 L1284.92 1532.4 L1296.06 1560.28 L1307.2 1532.4 L1313.41 1532.4 L1297.75 1571.35 Z" fill="#000000" fill-rule="evenodd" fill-opacity="1" /><path clip-path="url(#clip410)" d="M1344.95 1537.81 L1344.95 1518.52 L1350.81 1518.52 L1350.81 1568.04 L1344.95 1568.04 L1344.95 1562.7 Q1343.1 1565.88 1340.27 1567.44 Q1337.47 1568.97 1333.52 1568.97 Q1327.06 1568.97 1322.99 1563.81 Q1318.95 1558.65 1318.95 1550.25 Q1318.95 1541.85 1322.99 1536.69 Q1327.06 1531.54 1333.52 1531.54 Q1337.47 1531.54 1340.27 1533.1 Q1343.1 1534.62 1344.95 1537.81 M1324.99 1550.25 Q1324.99 1556.71 1327.64 1560.4 Q1330.31 1564.07 1334.96 1564.07 Q1339.6 1564.07 1342.28 1560.4 Q1344.95 1556.71 1344.95 1550.25 Q1344.95 1543.79 1342.28 1540.13 Q1339.6 1536.44 1334.96 1536.44 Q1330.31 1536.44 1327.64 1540.13 Q1324.99 1543.79 1324.99 1550.25 Z" fill="#000000" fill-rule="evenodd" fill-opacity="1" /><path clip-path="url(#clip410)" d="M1383.53 1537.87 Q1382.54 1537.3 1381.36 1537.04 Q1380.22 1536.76 1378.82 1536.76 Q1373.85 1536.76 1371.18 1540 Q1368.53 1543.22 1368.53 1549.27 L1368.53 1568.04 L1362.65 1568.04 L1362.65 1532.4 L1368.53 1532.4 L1368.53 1537.93 Q1370.38 1534.69 1373.34 1533.13 Q1376.3 1531.54 1380.53 1531.54 Q1381.14 1531.54 1381.87 1531.63 Q1382.6 1531.7 1383.49 1531.85 L1383.53 1537.87 Z" fill="#000000" fill-rule="evenodd" fill-opacity="1" /><path clip-path="url(#clip410)" d="M1402.05 1536.5 Q1397.34 1536.5 1394.6 1540.19 Q1391.87 1543.85 1391.87 1550.25 Q1391.87 1556.65 1394.57 1560.34 Q1397.31 1564 1402.05 1564 Q1406.73 1564 1409.47 1560.31 Q1412.2 1556.62 1412.2 1550.25 Q1412.2 1543.92 1409.47 1540.23 Q1406.73 1536.5 1402.05 1536.5 M1402.05 1531.54 Q1409.69 1531.54 1414.05 1536.5 Q1418.41 1541.47 1418.41 1550.25 Q1418.41 1559 1414.05 1564 Q1409.69 1568.97 1402.05 1568.97 Q1394.38 1568.97 1390.02 1564 Q1385.69 1559 1385.69 1550.25 Q1385.69 1541.47 1390.02 1536.5 Q1394.38 1531.54 1402.05 1531.54 Z" fill="#000000" fill-rule="evenodd" fill-opacity="1" /><path clip-path="url(#clip410)" d="M1451.58 1549.81 Q1451.58 1543.44 1448.93 1539.94 Q1446.32 1536.44 1441.58 1536.44 Q1436.87 1536.44 1434.23 1539.94 Q1431.62 1543.44 1431.62 1549.81 Q1431.62 1556.14 1434.23 1559.64 Q1436.87 1563.14 1441.58 1563.14 Q1446.32 1563.14 1448.93 1559.64 Q1451.58 1556.14 1451.58 1549.81 M1457.43 1563.62 Q1457.43 1572.72 1453.39 1577.15 Q1449.35 1581.6 1441.01 1581.6 Q1437.92 1581.6 1435.18 1581.13 Q1432.45 1580.68 1429.87 1579.72 L1429.87 1574.03 Q1432.45 1575.43 1434.96 1576.1 Q1437.48 1576.76 1440.09 1576.76 Q1445.85 1576.76 1448.71 1573.74 Q1451.58 1570.75 1451.58 1564.67 L1451.58 1561.77 Q1449.76 1564.92 1446.93 1566.48 Q1444.1 1568.04 1440.15 1568.04 Q1433.59 1568.04 1429.58 1563.05 Q1425.57 1558.05 1425.57 1549.81 Q1425.57 1541.53 1429.58 1536.53 Q1433.59 1531.54 1440.15 1531.54 Q1444.1 1531.54 1446.93 1533.1 Q1449.76 1534.66 1451.58 1537.81 L1451.58 1532.4 L1457.43 1532.4 L1457.43 1563.62 Z" fill="#000000" fill-rule="evenodd" fill-opacity="1" /><path clip-path="url(#clip410)" d="M1499.99 1548.76 L1499.99 1551.62 L1473.06 1551.62 Q1473.44 1557.67 1476.69 1560.85 Q1479.97 1564 1485.79 1564 Q1489.17 1564 1492.32 1563.17 Q1495.5 1562.35 1498.62 1560.69 L1498.62 1566.23 Q1495.47 1567.57 1492.16 1568.27 Q1488.85 1568.97 1485.44 1568.97 Q1476.91 1568.97 1471.91 1564 Q1466.95 1559.04 1466.95 1550.57 Q1466.95 1541.82 1471.66 1536.69 Q1476.4 1531.54 1484.42 1531.54 Q1491.62 1531.54 1495.79 1536.18 Q1499.99 1540.8 1499.99 1548.76 M1494.13 1547.04 Q1494.07 1542.23 1491.42 1539.37 Q1488.82 1536.5 1484.49 1536.5 Q1479.58 1536.5 1476.62 1539.27 Q1473.7 1542.04 1473.25 1547.07 L1494.13 1547.04 Z" fill="#000000" fill-rule="evenodd" fill-opacity="1" /><path clip-path="url(#clip410)" d="M1539.23 1546.53 L1539.23 1568.04 L1533.37 1568.04 L1533.37 1546.72 Q1533.37 1541.66 1531.4 1539.14 Q1529.43 1536.63 1525.48 1536.63 Q1520.74 1536.63 1518 1539.65 Q1515.26 1542.68 1515.26 1547.9 L1515.26 1568.04 L1509.38 1568.04 L1509.38 1532.4 L1515.26 1532.4 L1515.26 1537.93 Q1517.37 1534.72 1520.2 1533.13 Q1523.06 1531.54 1526.79 1531.54 Q1532.93 1531.54 1536.08 1535.36 Q1539.23 1539.14 1539.23 1546.53 Z" fill="#000000" fill-rule="evenodd" fill-opacity="1" /><path clip-path="url(#clip410)" d="M1552.41 1559.96 L1559.12 1559.96 L1559.12 1565.43 L1553.9 1575.62 L1549.8 1575.62 L1552.41 1565.43 L1552.41 1559.96 Z" fill="#000000" fill-rule="evenodd" fill-opacity="1" /><path clip-path="url(#clip410)" d="M1621.99 1532.4 L1609.1 1549.74 L1622.65 1568.04 L1615.75 1568.04 L1605.37 1554.04 L1594.99 1568.04 L1588.09 1568.04 L1601.93 1549.39 L1589.27 1532.4 L1596.17 1532.4 L1605.63 1545.1 L1615.08 1532.4 L1621.99 1532.4 Z" fill="#000000" fill-rule="evenodd" fill-opacity="1" /><polyline clip-path="url(#clip410)" style="stroke:#000000; stroke-linecap:round; stroke-linejoin:round; stroke-width:4; stroke-opacity:1; fill:none" points="
  219.866,1423.18 219.866,47.2441 
  "/>
<polyline clip-path="url(#clip410)" style="stroke:#000000; stroke-linecap:round; stroke-linejoin:round; stroke-width:4; stroke-opacity:1; fill:none" points="
  219.866,1182.82 238.764,1182.82 
  "/>
<polyline clip-path="url(#clip410)" style="stroke:#000000; stroke-linecap:round; stroke-linejoin:round; stroke-width:4; stroke-opacity:1; fill:none" points="
  219.866,831.732 238.764,831.732 
  "/>
<polyline clip-path="url(#clip410)" style="stroke:#000000; stroke-linecap:round; stroke-linejoin:round; stroke-width:4; stroke-opacity:1; fill:none" points="
  219.866,480.643 238.764,480.643 
  "/>
<polyline clip-path="url(#clip410)" style="stroke:#000000; stroke-linecap:round; stroke-linejoin:round; stroke-width:4; stroke-opacity:1; fill:none" points="
  219.866,129.553 238.764,129.553 
  "/>
<path clip-path="url(#clip410)" d="M128.288 1168.62 Q124.677 1168.62 122.848 1172.18 Q121.043 1175.73 121.043 1182.86 Q121.043 1189.96 122.848 1193.53 Q124.677 1197.07 128.288 1197.07 Q131.922 1197.07 133.728 1193.53 Q135.556 1189.96 135.556 1182.86 Q135.556 1175.73 133.728 1172.18 Q131.922 1168.62 128.288 1168.62 M128.288 1164.92 Q134.098 1164.92 137.154 1169.52 Q140.232 1174.11 140.232 1182.86 Q140.232 1191.58 137.154 1196.19 Q134.098 1200.77 128.288 1200.77 Q122.478 1200.77 119.399 1196.19 Q116.343 1191.58 116.343 1182.86 Q116.343 1174.11 119.399 1169.52 Q122.478 1164.92 128.288 1164.92 Z" fill="#000000" fill-rule="evenodd" fill-opacity="1" /><path clip-path="url(#clip410)" d="M148.45 1194.22 L153.334 1194.22 L153.334 1200.1 L148.45 1200.1 L148.45 1194.22 Z" fill="#000000" fill-rule="evenodd" fill-opacity="1" /><path clip-path="url(#clip410)" d="M167.547 1196.17 L183.866 1196.17 L183.866 1200.1 L161.922 1200.1 L161.922 1196.17 Q164.584 1193.41 169.167 1188.78 Q173.774 1184.13 174.954 1182.79 Q177.2 1180.26 178.079 1178.53 Q178.982 1176.77 178.982 1175.08 Q178.982 1172.32 177.038 1170.59 Q175.116 1168.85 172.014 1168.85 Q169.815 1168.85 167.362 1169.62 Q164.931 1170.38 162.153 1171.93 L162.153 1167.21 Q164.977 1166.07 167.431 1165.5 Q169.885 1164.92 171.922 1164.92 Q177.292 1164.92 180.487 1167.6 Q183.681 1170.29 183.681 1174.78 Q183.681 1176.91 182.871 1178.83 Q182.084 1180.73 179.977 1183.32 Q179.399 1183.99 176.297 1187.21 Q173.195 1190.4 167.547 1196.17 Z" fill="#000000" fill-rule="evenodd" fill-opacity="1" /><path clip-path="url(#clip410)" d="M126.205 817.531 Q122.593 817.531 120.765 821.096 Q118.959 824.637 118.959 831.767 Q118.959 838.873 120.765 842.438 Q122.593 845.98 126.205 845.98 Q129.839 845.98 131.644 842.438 Q133.473 838.873 133.473 831.767 Q133.473 824.637 131.644 821.096 Q129.839 817.531 126.205 817.531 M126.205 813.827 Q132.015 813.827 135.07 818.433 Q138.149 823.017 138.149 831.767 Q138.149 840.494 135.07 845.1 Q132.015 849.683 126.205 849.683 Q120.394 849.683 117.316 845.1 Q114.26 840.494 114.26 831.767 Q114.26 823.017 117.316 818.433 Q120.394 813.827 126.205 813.827 Z" fill="#000000" fill-rule="evenodd" fill-opacity="1" /><path clip-path="url(#clip410)" d="M146.366 843.132 L151.251 843.132 L151.251 849.012 L146.366 849.012 L146.366 843.132 Z" fill="#000000" fill-rule="evenodd" fill-opacity="1" /><path clip-path="url(#clip410)" d="M174.283 818.526 L162.477 836.975 L174.283 836.975 L174.283 818.526 M173.056 814.452 L178.936 814.452 L178.936 836.975 L183.866 836.975 L183.866 840.864 L178.936 840.864 L178.936 849.012 L174.283 849.012 L174.283 840.864 L158.681 840.864 L158.681 836.35 L173.056 814.452 Z" fill="#000000" fill-rule="evenodd" fill-opacity="1" /><path clip-path="url(#clip410)" d="M126.529 466.441 Q122.918 466.441 121.089 470.006 Q119.283 473.548 119.283 480.677 Q119.283 487.784 121.089 491.349 Q122.918 494.89 126.529 494.89 Q130.163 494.89 131.968 491.349 Q133.797 487.784 133.797 480.677 Q133.797 473.548 131.968 470.006 Q130.163 466.441 126.529 466.441 M126.529 462.738 Q132.339 462.738 135.394 467.344 Q138.473 471.927 138.473 480.677 Q138.473 489.404 135.394 494.011 Q132.339 498.594 126.529 498.594 Q120.718 498.594 117.64 494.011 Q114.584 489.404 114.584 480.677 Q114.584 471.927 117.64 467.344 Q120.718 462.738 126.529 462.738 Z" fill="#000000" fill-rule="evenodd" fill-opacity="1" /><path clip-path="url(#clip410)" d="M146.691 492.043 L151.575 492.043 L151.575 497.923 L146.691 497.923 L146.691 492.043 Z" fill="#000000" fill-rule="evenodd" fill-opacity="1" /><path clip-path="url(#clip410)" d="M172.339 478.779 Q169.19 478.779 167.339 480.932 Q165.51 483.085 165.51 486.835 Q165.51 490.562 167.339 492.737 Q169.19 494.89 172.339 494.89 Q175.487 494.89 177.315 492.737 Q179.167 490.562 179.167 486.835 Q179.167 483.085 177.315 480.932 Q175.487 478.779 172.339 478.779 M181.621 464.127 L181.621 468.386 Q179.862 467.552 178.056 467.113 Q176.274 466.673 174.514 466.673 Q169.885 466.673 167.431 469.798 Q165.001 472.923 164.653 479.242 Q166.019 477.228 168.079 476.164 Q170.139 475.076 172.616 475.076 Q177.825 475.076 180.834 478.247 Q183.866 481.395 183.866 486.835 Q183.866 492.159 180.718 495.376 Q177.57 498.594 172.339 498.594 Q166.343 498.594 163.172 494.011 Q160.001 489.404 160.001 480.677 Q160.001 472.483 163.89 467.622 Q167.778 462.738 174.329 462.738 Q176.089 462.738 177.871 463.085 Q179.676 463.432 181.621 464.127 Z" fill="#000000" fill-rule="evenodd" fill-opacity="1" /><path clip-path="url(#clip410)" d="M126.783 115.352 Q123.172 115.352 121.343 118.917 Q119.538 122.458 119.538 129.588 Q119.538 136.694 121.343 140.259 Q123.172 143.801 126.783 143.801 Q130.417 143.801 132.223 140.259 Q134.052 136.694 134.052 129.588 Q134.052 122.458 132.223 118.917 Q130.417 115.352 126.783 115.352 M126.783 111.648 Q132.593 111.648 135.649 116.255 Q138.728 120.838 138.728 129.588 Q138.728 138.315 135.649 142.921 Q132.593 147.505 126.783 147.505 Q120.973 147.505 117.894 142.921 Q114.839 138.315 114.839 129.588 Q114.839 120.838 117.894 116.255 Q120.973 111.648 126.783 111.648 Z" fill="#000000" fill-rule="evenodd" fill-opacity="1" /><path clip-path="url(#clip410)" d="M146.945 140.954 L151.829 140.954 L151.829 146.833 L146.945 146.833 L146.945 140.954 Z" fill="#000000" fill-rule="evenodd" fill-opacity="1" /><path clip-path="url(#clip410)" d="M172.014 130.421 Q168.681 130.421 166.76 132.204 Q164.862 133.986 164.862 137.111 Q164.862 140.236 166.76 142.018 Q168.681 143.801 172.014 143.801 Q175.348 143.801 177.269 142.018 Q179.19 140.213 179.19 137.111 Q179.19 133.986 177.269 132.204 Q175.371 130.421 172.014 130.421 M167.339 128.431 Q164.329 127.69 162.64 125.63 Q160.973 123.57 160.973 120.607 Q160.973 116.463 163.913 114.056 Q166.876 111.648 172.014 111.648 Q177.176 111.648 180.116 114.056 Q183.056 116.463 183.056 120.607 Q183.056 123.57 181.366 125.63 Q179.7 127.69 176.714 128.431 Q180.093 129.218 181.968 131.509 Q183.866 133.801 183.866 137.111 Q183.866 142.134 180.788 144.819 Q177.732 147.505 172.014 147.505 Q166.297 147.505 163.218 144.819 Q160.163 142.134 160.163 137.111 Q160.163 133.801 162.061 131.509 Q163.959 129.218 167.339 128.431 M165.626 121.046 Q165.626 123.732 167.292 125.236 Q168.982 126.741 172.014 126.741 Q175.024 126.741 176.714 125.236 Q178.426 123.732 178.426 121.046 Q178.426 118.361 176.714 116.857 Q175.024 115.352 172.014 115.352 Q168.982 115.352 167.292 116.857 Q165.626 118.361 165.626 121.046 Z" fill="#000000" fill-rule="evenodd" fill-opacity="1" /><path clip-path="url(#clip410)" d="M21.7677 1065.37 L58.7206 1065.37 L58.7206 1057.6 Q58.7206 1047.77 54.2646 1043.22 Q49.8086 1038.63 40.1964 1038.63 Q30.6479 1038.63 26.2237 1043.22 Q21.7677 1047.77 21.7677 1057.6 L21.7677 1065.37 M16.4842 1071.8 L16.4842 1058.59 Q16.4842 1044.78 22.2451 1038.32 Q27.9743 1031.85 40.1964 1031.85 Q52.4822 1031.85 58.2432 1038.35 Q64.0042 1044.84 64.0042 1058.59 L64.0042 1071.8 L16.4842 1071.8 Z" fill="#000000" fill-rule="evenodd" fill-opacity="1" /><path clip-path="url(#clip410)" d="M44.7161 991.368 L47.5806 991.368 L47.5806 1018.29 Q53.6281 1017.91 56.8109 1014.67 Q59.9619 1011.39 59.9619 1005.56 Q59.9619 1002.19 59.1344 999.039 Q58.3069 995.856 56.6518 992.737 L62.1899 992.737 Q63.5267 995.888 64.227 999.198 Q64.9272 1002.51 64.9272 1005.91 Q64.9272 1014.44 59.9619 1019.44 Q54.9967 1024.41 46.5303 1024.41 Q37.7774 1024.41 32.6531 1019.7 Q27.4968 1014.95 27.4968 1006.93 Q27.4968 999.739 32.1438 995.569 Q36.7589 991.368 44.7161 991.368 M42.9973 997.224 Q38.1912 997.288 35.3266 999.93 Q32.4621 1002.54 32.4621 1006.87 Q32.4621 1011.77 35.2312 1014.73 Q38.0002 1017.66 43.0292 1018.1 L42.9973 997.224 Z" fill="#000000" fill-rule="evenodd" fill-opacity="1" /><path clip-path="url(#clip410)" d="M42.4881 952.123 L64.0042 952.123 L64.0042 957.98 L42.679 957.98 Q37.6183 957.98 35.1038 959.953 Q32.5894 961.927 32.5894 965.873 Q32.5894 970.616 35.6131 973.353 Q38.6368 976.09 43.8567 976.09 L64.0042 976.09 L64.0042 981.979 L28.3562 981.979 L28.3562 976.09 L33.8944 976.09 Q30.6797 973.99 29.0883 971.157 Q27.4968 968.292 27.4968 964.568 Q27.4968 958.425 31.3163 955.274 Q35.1038 952.123 42.4881 952.123 Z" fill="#000000" fill-rule="evenodd" fill-opacity="1" /><path clip-path="url(#clip410)" d="M29.4065 917.717 L34.9447 917.717 Q33.6716 920.199 33.035 922.873 Q32.3984 925.547 32.3984 928.411 Q32.3984 932.772 33.7352 934.968 Q35.072 937.132 37.7456 937.132 Q39.7826 937.132 40.9603 935.573 Q42.1061 934.013 43.1565 929.302 L43.6021 927.297 Q44.9389 921.059 47.3897 918.449 Q49.8086 915.807 54.1691 915.807 Q59.1344 915.807 62.0308 919.754 Q64.9272 923.669 64.9272 930.544 Q64.9272 933.408 64.3543 936.527 Q63.8132 939.615 62.6992 943.052 L56.6518 943.052 Q58.3387 939.806 59.198 936.655 Q60.0256 933.504 60.0256 930.416 Q60.0256 926.279 58.6251 924.051 Q57.1929 921.823 54.6147 921.823 Q52.2276 921.823 50.9545 923.446 Q49.6813 925.037 48.5037 930.48 L48.0262 932.517 Q46.8804 937.96 44.5251 940.379 Q42.138 942.798 38.0002 942.798 Q32.9713 942.798 30.2341 939.233 Q27.4968 935.668 27.4968 929.111 Q27.4968 925.865 27.9743 923 Q28.4517 920.136 29.4065 917.717 Z" fill="#000000" fill-rule="evenodd" fill-opacity="1" /><path clip-path="url(#clip410)" d="M28.3562 906.481 L28.3562 900.625 L64.0042 900.625 L64.0042 906.481 L28.3562 906.481 M14.479 906.481 L14.479 900.625 L21.895 900.625 L21.895 906.481 L14.479 906.481 Z" fill="#000000" fill-rule="evenodd" fill-opacity="1" /><path clip-path="url(#clip410)" d="M18.2347 882.578 L28.3562 882.578 L28.3562 870.515 L32.9077 870.515 L32.9077 882.578 L52.2594 882.578 Q56.6199 882.578 57.8613 881.4 Q59.1026 880.191 59.1026 876.531 L59.1026 870.515 L64.0042 870.515 L64.0042 876.531 Q64.0042 883.31 61.4897 885.888 Q58.9434 888.466 52.2594 888.466 L32.9077 888.466 L32.9077 892.763 L28.3562 892.763 L28.3562 888.466 L18.2347 888.466 L18.2347 882.578 Z" fill="#000000" fill-rule="evenodd" fill-opacity="1" /><path clip-path="url(#clip410)" d="M67.3143 847.98 Q73.68 850.463 75.6216 852.818 Q77.5631 855.174 77.5631 859.12 L77.5631 863.799 L72.6615 863.799 L72.6615 860.362 Q72.6615 857.943 71.5157 856.606 Q70.3699 855.269 66.1048 853.646 L63.4312 852.596 L28.3562 867.014 L28.3562 860.807 L56.238 849.667 L28.3562 838.527 L28.3562 832.321 L67.3143 847.98 Z" fill="#000000" fill-rule="evenodd" fill-opacity="1" /><path clip-path="url(#clip410)" d="M55.9197 822.74 L55.9197 816.025 L61.3942 816.025 L71.5793 821.244 L71.5793 825.35 L61.3942 822.74 L55.9197 822.74 Z" fill="#000000" fill-rule="evenodd" fill-opacity="1" /><path clip-path="url(#clip410)" d="M34.7219 780.154 Q31.4754 778.212 28.6108 773.406 Q27.4968 771.528 27.4968 765.736 Q27.4968 759.243 32.6531 755.2 Q37.8093 751.126 46.212 751.126 Q54.6147 751.126 59.771 755.2 Q64.9272 759.243 64.9272 765.736 Q64.9272 769.65 63.3994 772.483 Q61.8398 775.284 58.657 777.13 L77.5631 777.13 L77.5631 783.018 L46.5303 783.018 Q39.1779 783.018 34.7219 780.154 M46.212 757.205 Q39.7508 757.205 36.0905 759.879 Q32.3984 762.521 32.3984 767.168 Q32.3984 771.815 36.0905 774.488 Q39.7508 777.13 46.212 777.13 Q52.6732 777.13 56.3653 774.488 Q60.0256 771.815 60.0256 767.168 Q60.0256 762.521 56.3653 759.879 Q52.6732 757.205 46.212 757.205 Z" fill="#000000" fill-rule="evenodd" fill-opacity="1" /><path clip-path="url(#clip410)" d="M14.5426 706.63 Q21.8632 710.895 29.0246 712.964 Q36.186 715.033 43.5384 715.033 Q50.8908 715.033 58.1159 712.964 Q65.3091 710.863 72.5979 706.63 L72.5979 711.723 Q65.1182 716.497 57.8931 718.884 Q50.668 721.239 43.5384 721.239 Q36.4406 721.239 29.2474 718.884 Q22.0542 716.529 14.5426 711.723 L14.5426 706.63 Z" fill="#000000" fill-rule="evenodd" fill-opacity="1" /><path clip-path="url(#clip410)" d="M14.479 695.49 L14.479 689.602 L43.7294 689.602 L28.3562 672.128 L28.3562 664.648 L45.0344 683.554 L64.0042 663.852 L64.0042 671.491 L46.5939 689.602 L64.0042 689.602 L64.0042 695.49 L14.479 695.49 Z" fill="#000000" fill-rule="evenodd" fill-opacity="1" /><path clip-path="url(#clip410)" d="M45.7664 634.061 Q39.4007 634.061 35.8996 636.703 Q32.3984 639.313 32.3984 644.055 Q32.3984 648.766 35.8996 651.407 Q39.4007 654.017 45.7664 654.017 Q52.1003 654.017 55.6014 651.407 Q59.1026 648.766 59.1026 644.055 Q59.1026 639.313 55.6014 636.703 Q52.1003 634.061 45.7664 634.061 M59.58 628.204 Q68.683 628.204 73.1071 632.247 Q77.5631 636.289 77.5631 644.628 Q77.5631 647.715 77.0857 650.453 Q76.6401 653.19 75.6852 655.768 L69.9879 655.768 Q71.3884 653.19 72.0568 650.675 Q72.7252 648.161 72.7252 645.551 Q72.7252 639.79 69.7015 636.925 Q66.7096 634.061 60.6303 634.061 L57.7339 634.061 Q60.885 635.875 62.4446 638.708 Q64.0042 641.541 64.0042 645.487 Q64.0042 652.044 59.0071 656.054 Q54.01 660.065 45.7664 660.065 Q37.491 660.065 32.4939 656.054 Q27.4968 652.044 27.4968 645.487 Q27.4968 641.541 29.0564 638.708 Q30.616 635.875 33.7671 634.061 L28.3562 634.061 L28.3562 628.204 L59.58 628.204 Z" fill="#000000" fill-rule="evenodd" fill-opacity="1" /><path clip-path="url(#clip410)" d="M35.1993 567.667 Q31.2526 565.47 29.3747 562.415 Q27.4968 559.359 27.4968 555.222 Q27.4968 549.652 31.4117 546.628 Q35.2948 543.604 42.4881 543.604 L64.0042 543.604 L64.0042 549.492 L42.679 549.492 Q37.5546 549.492 35.072 551.307 Q32.5894 553.121 32.5894 556.845 Q32.5894 561.396 35.6131 564.038 Q38.6368 566.68 43.8567 566.68 L64.0042 566.68 L64.0042 572.568 L42.679 572.568 Q37.5228 572.568 35.072 574.382 Q32.5894 576.197 32.5894 579.984 Q32.5894 584.472 35.6449 587.114 Q38.6686 589.756 43.8567 589.756 L64.0042 589.756 L64.0042 595.644 L28.3562 595.644 L28.3562 589.756 L33.8944 589.756 Q30.616 587.75 29.0564 584.949 Q27.4968 582.149 27.4968 578.297 Q27.4968 574.414 29.4702 571.709 Q31.4436 568.972 35.1993 567.667 Z" fill="#000000" fill-rule="evenodd" fill-opacity="1" /><path clip-path="url(#clip410)" d="M16.4842 507.638 L34.2127 490.355 L34.2127 496.753 L21.6404 510.757 L34.2127 524.762 L34.2127 531.159 L16.4842 513.876 L16.4842 507.638 Z" fill="#000000" fill-rule="evenodd" fill-opacity="1" /><path clip-path="url(#clip410)" d="M43.5384 480.265 L43.5384 463.11 L48.7583 463.11 L48.7583 480.265 L43.5384 480.265 Z" fill="#000000" fill-rule="evenodd" fill-opacity="1" /><path clip-path="url(#clip410)" d="M38.3822 433.477 Q39.3689 428.862 42.4881 426.284 Q45.6073 423.674 50.1906 423.674 Q57.2247 423.674 61.0759 428.512 Q64.9272 433.35 64.9272 442.262 Q64.9272 445.254 64.3224 448.437 Q63.7495 451.588 62.5719 454.962 L56.3653 454.962 Q57.9249 452.288 58.7206 449.105 Q59.5163 445.922 59.5163 442.453 Q59.5163 436.406 57.1292 433.255 Q54.7421 430.072 50.1906 430.072 Q45.9892 430.072 43.6339 433.032 Q41.2468 435.96 41.2468 441.212 L41.2468 446.75 L35.9632 446.75 L35.9632 440.957 Q35.9632 436.215 34.0853 433.7 Q32.1756 431.186 28.6108 431.186 Q24.9505 431.186 23.009 433.796 Q21.0356 436.374 21.0356 441.212 Q21.0356 443.854 21.6086 446.877 Q22.1815 449.901 23.3909 453.529 L17.6618 453.529 Q16.6433 449.869 16.134 446.686 Q15.6248 443.472 15.6248 440.639 Q15.6248 433.318 18.9668 429.053 Q22.277 424.788 27.9424 424.788 Q31.8892 424.788 34.6264 427.048 Q37.3318 429.308 38.3822 433.477 Z" fill="#000000" fill-rule="evenodd" fill-opacity="1" /><path clip-path="url(#clip410)" d="M14.5426 413.235 L14.5426 408.142 Q22.0542 403.368 29.2474 401.012 Q36.4406 398.625 43.5384 398.625 Q50.668 398.625 57.8931 401.012 Q65.1182 403.368 72.5979 408.142 L72.5979 413.235 Q65.3091 409.001 58.1159 406.932 Q50.8908 404.832 43.5384 404.832 Q36.186 404.832 29.0246 406.932 Q21.8632 409.001 14.5426 413.235 Z" fill="#000000" fill-rule="evenodd" fill-opacity="1" /><polyline clip-path="url(#clip412)" style="stroke:#023eff; stroke-linecap:round; stroke-linejoin:round; stroke-width:4; stroke-opacity:1; fill:none" points="
  275.369,86.1857 294.057,99.2973 312.745,112.409 331.433,125.521 350.12,138.632 368.808,151.744 387.496,164.856 406.184,177.967 424.872,191.079 443.56,204.19 
  462.247,217.302 480.935,230.414 499.623,243.525 518.311,256.637 536.999,269.749 555.687,282.86 574.374,295.972 593.062,309.084 611.75,322.195 630.438,335.307 
  649.126,348.419 667.814,361.53 686.501,374.642 705.189,387.753 723.877,400.865 742.565,413.977 761.253,427.088 779.941,440.2 798.628,453.312 817.316,466.423 
  836.004,479.535 854.692,492.647 873.38,505.758 892.067,518.87 910.755,531.982 929.443,545.093 948.131,558.205 966.819,571.316 985.507,584.428 1004.19,597.54 
  1022.88,610.651 1041.57,623.763 1060.26,636.875 1078.95,649.986 1097.63,663.098 1116.32,676.21 1135.01,689.321 1153.7,702.433 1172.38,715.545 1191.07,728.656 
  1209.76,741.768 1228.45,754.879 1247.14,767.991 1265.82,781.103 1284.51,794.214 1303.2,807.326 1321.89,820.438 1340.58,833.549 1359.26,846.661 1377.95,859.773 
  1396.64,872.884 1415.33,885.996 1434.01,899.107 1452.7,912.219 1471.39,925.331 1490.08,938.442 1508.77,951.554 1527.45,964.666 1546.14,977.777 1564.83,990.889 
  1583.52,1004 1602.2,1017.11 1620.89,1030.22 1639.58,1043.34 1658.27,1056.45 1676.96,1069.56 1695.64,1082.67 1714.33,1095.78 1733.02,1108.89 1751.71,1122.01 
  1770.4,1135.12 1789.08,1148.23 1807.77,1161.34 1826.46,1174.45 1845.15,1187.56 1863.83,1200.68 1882.52,1213.79 1901.21,1226.9 1919.9,1240.01 1938.59,1253.12 
  1957.27,1266.23 1975.96,1279.35 1994.65,1292.46 2013.34,1305.57 2032.03,1318.68 2050.71,1331.79 2069.4,1344.9 2088.09,1358.01 2106.78,1371.13 2125.46,1384.24 
  
  "/>
<path clip-path="url(#clip410)" d="
M219.866 1423.18 L2180.97 1423.18 L2180.97 47.2441 L219.866 47.2441  Z
  " fill="#000000" fill-rule="evenodd" fill-opacity="0"/>
<polyline clip-path="url(#clip410)" style="stroke:#000000; stroke-linecap:round; stroke-linejoin:round; stroke-width:4; stroke-opacity:1; fill:none" points="
  2180.97,1423.18 2180.97,47.2441 
  "/>
<polyline clip-path="url(#clip410)" style="stroke:#000000; stroke-linecap:round; stroke-linejoin:round; stroke-width:4; stroke-opacity:1; fill:none" points="
  2180.97,1384.24 2162.07,1384.24 
  "/>
<polyline clip-path="url(#clip410)" style="stroke:#000000; stroke-linecap:round; stroke-linejoin:round; stroke-width:4; stroke-opacity:1; fill:none" points="
  2180.97,1076.66 2162.07,1076.66 
  "/>
<polyline clip-path="url(#clip410)" style="stroke:#000000; stroke-linecap:round; stroke-linejoin:round; stroke-width:4; stroke-opacity:1; fill:none" points="
  2180.97,769.072 2162.07,769.072 
  "/>
<polyline clip-path="url(#clip410)" style="stroke:#000000; stroke-linecap:round; stroke-linejoin:round; stroke-width:4; stroke-opacity:1; fill:none" points="
  2180.97,461.489 2162.07,461.489 
  "/>
<polyline clip-path="url(#clip410)" style="stroke:#000000; stroke-linecap:round; stroke-linejoin:round; stroke-width:4; stroke-opacity:1; fill:none" points="
  2180.97,153.905 2162.07,153.905 
  "/>
<path clip-path="url(#clip410)" d="M2217.64 1397.58 L2225.28 1397.58 L2225.28 1371.22 L2216.97 1372.88 L2216.97 1368.62 L2225.23 1366.96 L2229.91 1366.96 L2229.91 1397.58 L2237.55 1397.58 L2237.55 1401.52 L2217.64 1401.52 L2217.64 1397.58 Z" fill="#000000" fill-rule="evenodd" fill-opacity="1" /><path clip-path="url(#clip410)" d="M2246.99 1395.64 L2251.87 1395.64 L2251.87 1401.52 L2246.99 1401.52 L2246.99 1395.64 Z" fill="#000000" fill-rule="evenodd" fill-opacity="1" /><path clip-path="url(#clip410)" d="M2272.06 1370.04 Q2268.45 1370.04 2266.62 1373.6 Q2264.81 1377.14 2264.81 1384.27 Q2264.81 1391.38 2266.62 1394.94 Q2268.45 1398.49 2272.06 1398.49 Q2275.69 1398.49 2277.5 1394.94 Q2279.33 1391.38 2279.33 1384.27 Q2279.33 1377.14 2277.5 1373.6 Q2275.69 1370.04 2272.06 1370.04 M2272.06 1366.33 Q2277.87 1366.33 2280.93 1370.94 Q2284 1375.52 2284 1384.27 Q2284 1393 2280.93 1397.61 Q2277.87 1402.19 2272.06 1402.19 Q2266.25 1402.19 2263.17 1397.61 Q2260.11 1393 2260.11 1384.27 Q2260.11 1375.52 2263.17 1370.94 Q2266.25 1366.33 2272.06 1366.33 Z" fill="#000000" fill-rule="evenodd" fill-opacity="1" /><path clip-path="url(#clip410)" d="M2217.64 1090 L2225.28 1090 L2225.28 1063.63 L2216.97 1065.3 L2216.97 1061.04 L2225.23 1059.38 L2229.91 1059.38 L2229.91 1090 L2237.55 1090 L2237.55 1093.94 L2217.64 1093.94 L2217.64 1090 Z" fill="#000000" fill-rule="evenodd" fill-opacity="1" /><path clip-path="url(#clip410)" d="M2246.99 1088.06 L2251.87 1088.06 L2251.87 1093.94 L2246.99 1093.94 L2246.99 1088.06 Z" fill="#000000" fill-rule="evenodd" fill-opacity="1" /><path clip-path="url(#clip410)" d="M2262.11 1059.38 L2280.46 1059.38 L2280.46 1063.31 L2266.39 1063.31 L2266.39 1071.78 Q2267.41 1071.44 2268.43 1071.27 Q2269.44 1071.09 2270.46 1071.09 Q2276.25 1071.09 2279.63 1074.26 Q2283.01 1077.43 2283.01 1082.85 Q2283.01 1088.43 2279.54 1091.53 Q2276.06 1094.61 2269.74 1094.61 Q2267.57 1094.61 2265.3 1094.24 Q2263.05 1093.87 2260.65 1093.12 L2260.65 1088.43 Q2262.73 1089.56 2264.95 1090.12 Q2267.18 1090.67 2269.65 1090.67 Q2273.66 1090.67 2275.99 1088.56 Q2278.33 1086.46 2278.33 1082.85 Q2278.33 1079.24 2275.99 1077.13 Q2273.66 1075.02 2269.65 1075.02 Q2267.78 1075.02 2265.9 1075.44 Q2264.05 1075.86 2262.11 1076.74 L2262.11 1059.38 Z" fill="#000000" fill-rule="evenodd" fill-opacity="1" /><path clip-path="url(#clip410)" d="M2222.59 782.417 L2238.91 782.417 L2238.91 786.352 L2216.97 786.352 L2216.97 782.417 Q2219.63 779.662 2224.21 775.032 Q2228.82 770.38 2230 769.037 Q2232.24 766.514 2233.12 764.778 Q2234.03 763.019 2234.03 761.329 Q2234.03 758.574 2232.08 756.838 Q2230.16 755.102 2227.06 755.102 Q2224.86 755.102 2222.41 755.866 Q2219.98 756.63 2217.2 758.181 L2217.2 753.458 Q2220.02 752.324 2222.48 751.745 Q2224.93 751.167 2226.97 751.167 Q2232.34 751.167 2235.53 753.852 Q2238.73 756.537 2238.73 761.028 Q2238.73 763.157 2237.92 765.079 Q2237.13 766.977 2235.02 769.569 Q2234.44 770.241 2231.34 773.458 Q2228.24 776.653 2222.59 782.417 Z" fill="#000000" fill-rule="evenodd" fill-opacity="1" /><path clip-path="url(#clip410)" d="M2248.73 780.472 L2253.61 780.472 L2253.61 786.352 L2248.73 786.352 L2248.73 780.472 Z" fill="#000000" fill-rule="evenodd" fill-opacity="1" /><path clip-path="url(#clip410)" d="M2273.8 754.87 Q2270.18 754.87 2268.36 758.435 Q2266.55 761.977 2266.55 769.107 Q2266.55 776.213 2268.36 779.778 Q2270.18 783.319 2273.8 783.319 Q2277.43 783.319 2279.24 779.778 Q2281.06 776.213 2281.06 769.107 Q2281.06 761.977 2279.24 758.435 Q2277.43 754.87 2273.8 754.87 M2273.8 751.167 Q2279.61 751.167 2282.66 755.773 Q2285.74 760.357 2285.74 769.107 Q2285.74 777.833 2282.66 782.44 Q2279.61 787.023 2273.8 787.023 Q2267.99 787.023 2264.91 782.44 Q2261.85 777.833 2261.85 769.107 Q2261.85 760.357 2264.91 755.773 Q2267.99 751.167 2273.8 751.167 Z" fill="#000000" fill-rule="evenodd" fill-opacity="1" /><path clip-path="url(#clip410)" d="M2222.59 474.833 L2238.91 474.833 L2238.91 478.769 L2216.97 478.769 L2216.97 474.833 Q2219.63 472.079 2224.21 467.449 Q2228.82 462.796 2230 461.454 Q2232.24 458.931 2233.12 457.195 Q2234.03 455.435 2234.03 453.746 Q2234.03 450.991 2232.08 449.255 Q2230.16 447.519 2227.06 447.519 Q2224.86 447.519 2222.41 448.283 Q2219.98 449.046 2217.2 450.597 L2217.2 445.875 Q2220.02 444.741 2222.48 444.162 Q2224.93 443.584 2226.97 443.584 Q2232.34 443.584 2235.53 446.269 Q2238.73 448.954 2238.73 453.445 Q2238.73 455.574 2237.92 457.496 Q2237.13 459.394 2235.02 461.986 Q2234.44 462.658 2231.34 465.875 Q2228.24 469.07 2222.59 474.833 Z" fill="#000000" fill-rule="evenodd" fill-opacity="1" /><path clip-path="url(#clip410)" d="M2248.73 472.889 L2253.61 472.889 L2253.61 478.769 L2248.73 478.769 L2248.73 472.889 Z" fill="#000000" fill-rule="evenodd" fill-opacity="1" /><path clip-path="url(#clip410)" d="M2263.84 444.209 L2282.2 444.209 L2282.2 448.144 L2268.12 448.144 L2268.12 456.616 Q2269.14 456.269 2270.16 456.107 Q2271.18 455.921 2272.2 455.921 Q2277.99 455.921 2281.36 459.093 Q2284.74 462.264 2284.74 467.681 Q2284.74 473.259 2281.27 476.361 Q2277.8 479.44 2271.48 479.44 Q2269.3 479.44 2267.04 479.069 Q2264.79 478.699 2262.38 477.958 L2262.38 473.259 Q2264.47 474.394 2266.69 474.949 Q2268.91 475.505 2271.39 475.505 Q2275.39 475.505 2277.73 473.398 Q2280.07 471.292 2280.07 467.681 Q2280.07 464.07 2277.73 461.963 Q2275.39 459.857 2271.39 459.857 Q2269.51 459.857 2267.64 460.273 Q2265.79 460.69 2263.84 461.57 L2263.84 444.209 Z" fill="#000000" fill-rule="evenodd" fill-opacity="1" /><path clip-path="url(#clip410)" d="M2232.59 152.551 Q2235.95 153.269 2237.82 155.537 Q2239.72 157.806 2239.72 161.139 Q2239.72 166.255 2236.2 169.056 Q2232.68 171.857 2226.2 171.857 Q2224.03 171.857 2221.71 171.417 Q2219.42 171 2216.97 170.144 L2216.97 165.63 Q2218.91 166.764 2221.23 167.343 Q2223.54 167.921 2226.06 167.921 Q2230.46 167.921 2232.75 166.185 Q2235.07 164.449 2235.07 161.139 Q2235.07 158.084 2232.92 156.371 Q2230.79 154.634 2226.97 154.634 L2222.94 154.634 L2222.94 150.792 L2227.15 150.792 Q2230.6 150.792 2232.43 149.426 Q2234.26 148.037 2234.26 145.445 Q2234.26 142.783 2232.36 141.371 Q2230.49 139.935 2226.97 139.935 Q2225.05 139.935 2222.85 140.352 Q2220.65 140.769 2218.01 141.648 L2218.01 137.482 Q2220.67 136.741 2222.99 136.371 Q2225.32 136 2227.38 136 Q2232.71 136 2235.81 138.431 Q2238.91 140.838 2238.91 144.959 Q2238.91 147.829 2237.27 149.82 Q2235.62 151.787 2232.59 152.551 Z" fill="#000000" fill-rule="evenodd" fill-opacity="1" /><path clip-path="url(#clip410)" d="M2248.59 165.306 L2253.47 165.306 L2253.47 171.185 L2248.59 171.185 L2248.59 165.306 Z" fill="#000000" fill-rule="evenodd" fill-opacity="1" /><path clip-path="url(#clip410)" d="M2273.66 139.704 Q2270.05 139.704 2268.22 143.269 Q2266.41 146.81 2266.41 153.94 Q2266.41 161.046 2268.22 164.611 Q2270.05 168.153 2273.66 168.153 Q2277.29 168.153 2279.1 164.611 Q2280.93 161.046 2280.93 153.94 Q2280.93 146.81 2279.1 143.269 Q2277.29 139.704 2273.66 139.704 M2273.66 136 Q2279.47 136 2282.52 140.607 Q2285.6 145.19 2285.6 153.94 Q2285.6 162.667 2282.52 167.273 Q2279.47 171.857 2273.66 171.857 Q2267.85 171.857 2264.77 167.273 Q2261.71 162.667 2261.71 153.94 Q2261.71 145.19 2264.77 140.607 Q2267.85 136 2273.66 136 Z" fill="#000000" fill-rule="evenodd" fill-opacity="1" /><path clip-path="url(#clip410)" d="M2356.48 982.87 Q2357.18 980.801 2359.48 978.859 Q2361.77 976.886 2365.78 974.913 L2378.76 968.388 L2378.76 975.295 L2366.57 981.374 Q2361.8 983.729 2360.24 985.957 Q2358.68 988.153 2358.68 991.973 L2358.68 998.975 L2378.76 998.975 L2378.76 1005.4 L2331.24 1005.4 L2331.24 990.891 Q2331.24 982.742 2334.65 978.732 Q2338.06 974.722 2344.93 974.722 Q2349.42 974.722 2352.38 976.822 Q2355.34 978.891 2356.48 982.87 M2336.53 998.975 L2353.4 998.975 L2353.4 990.891 Q2353.4 986.244 2351.26 983.888 Q2349.1 981.501 2344.93 981.501 Q2340.76 981.501 2338.66 983.888 Q2336.53 986.244 2336.53 990.891 L2336.53 998.975 Z" fill="#000000" fill-rule="evenodd" fill-opacity="1" /><path clip-path="url(#clip410)" d="M2359.48 932.804 L2362.34 932.804 L2362.34 959.73 Q2368.39 959.348 2371.57 956.102 Q2374.72 952.824 2374.72 946.999 Q2374.72 943.625 2373.89 940.474 Q2373.07 937.291 2371.41 934.172 L2376.95 934.172 Q2378.29 937.323 2378.99 940.633 Q2379.69 943.943 2379.69 947.349 Q2379.69 955.879 2374.72 960.876 Q2369.76 965.842 2361.29 965.842 Q2352.54 965.842 2347.41 961.131 Q2342.26 956.388 2342.26 948.368 Q2342.26 941.174 2346.9 937.005 Q2351.52 932.804 2359.48 932.804 M2357.76 938.66 Q2352.95 938.724 2350.09 941.365 Q2347.22 943.975 2347.22 948.304 Q2347.22 953.206 2349.99 956.166 Q2352.76 959.094 2357.79 959.539 L2357.76 938.66 Z" fill="#000000" fill-rule="evenodd" fill-opacity="1" /><path clip-path="url(#clip410)" d="M2329.24 923.191 L2329.24 917.335 L2378.76 917.335 L2378.76 923.191 L2329.24 923.191 Z" fill="#000000" fill-rule="evenodd" fill-opacity="1" /><path clip-path="url(#clip410)" d="M2360.84 888.88 Q2360.84 895.978 2362.47 898.715 Q2364.09 901.452 2368.01 901.452 Q2371.12 901.452 2372.97 899.415 Q2374.79 897.347 2374.79 893.814 Q2374.79 888.944 2371.35 886.016 Q2367.88 883.056 2362.15 883.056 L2360.84 883.056 L2360.84 888.88 M2358.43 877.199 L2378.76 877.199 L2378.76 883.056 L2373.35 883.056 Q2376.6 885.061 2378.16 888.053 Q2379.69 891.044 2379.69 895.373 Q2379.69 900.848 2376.63 904.094 Q2373.54 907.309 2368.39 907.309 Q2362.37 907.309 2359.32 903.298 Q2356.26 899.256 2356.26 891.267 L2356.26 883.056 L2355.69 883.056 Q2351.65 883.056 2349.45 885.729 Q2347.22 888.371 2347.22 893.177 Q2347.22 896.233 2347.95 899.129 Q2348.69 902.025 2350.15 904.699 L2344.74 904.699 Q2343.5 901.484 2342.89 898.461 Q2342.26 895.437 2342.26 892.572 Q2342.26 884.838 2346.27 881.018 Q2350.28 877.199 2358.43 877.199 Z" fill="#000000" fill-rule="evenodd" fill-opacity="1" /><path clip-path="url(#clip410)" d="M2332.99 859.343 L2343.12 859.343 L2343.12 847.28 L2347.67 847.28 L2347.67 859.343 L2367.02 859.343 Q2371.38 859.343 2372.62 858.166 Q2373.86 856.956 2373.86 853.296 L2373.86 847.28 L2378.76 847.28 L2378.76 853.296 Q2378.76 860.075 2376.25 862.653 Q2373.7 865.232 2367.02 865.232 L2347.67 865.232 L2347.67 869.528 L2343.12 869.528 L2343.12 865.232 L2332.99 865.232 L2332.99 859.343 Z" fill="#000000" fill-rule="evenodd" fill-opacity="1" /><path clip-path="url(#clip410)" d="M2343.12 839.578 L2343.12 833.721 L2378.76 833.721 L2378.76 839.578 L2343.12 839.578 M2329.24 839.578 L2329.24 833.721 L2336.65 833.721 L2336.65 839.578 L2329.24 839.578 Z" fill="#000000" fill-rule="evenodd" fill-opacity="1" /><path clip-path="url(#clip410)" d="M2343.12 825.669 L2343.12 819.462 L2373.03 808.322 L2343.12 797.182 L2343.12 790.976 L2378.76 804.344 L2378.76 812.301 L2343.12 825.669 Z" fill="#000000" fill-rule="evenodd" fill-opacity="1" /><path clip-path="url(#clip410)" d="M2359.48 752.399 L2362.34 752.399 L2362.34 779.326 Q2368.39 778.944 2371.57 775.698 Q2374.72 772.42 2374.72 766.595 Q2374.72 763.221 2373.89 760.07 Q2373.07 756.887 2371.41 753.768 L2376.95 753.768 Q2378.29 756.919 2378.99 760.229 Q2379.69 763.539 2379.69 766.945 Q2379.69 775.475 2374.72 780.472 Q2369.76 785.437 2361.29 785.437 Q2352.54 785.437 2347.41 780.727 Q2342.26 775.984 2342.26 767.964 Q2342.26 760.77 2346.9 756.601 Q2351.52 752.399 2359.48 752.399 M2357.76 758.256 Q2352.95 758.319 2350.09 760.961 Q2347.22 763.571 2347.22 767.9 Q2347.22 772.801 2349.99 775.762 Q2352.76 778.69 2357.79 779.135 L2357.76 758.256 Z" fill="#000000" fill-rule="evenodd" fill-opacity="1" /><path clip-path="url(#clip410)" d="M2329.24 704.02 L2334.11 704.02 L2334.11 709.622 Q2334.11 712.773 2335.38 714.014 Q2336.65 715.224 2339.96 715.224 L2343.12 715.224 L2343.12 705.58 L2347.67 705.58 L2347.67 715.224 L2378.76 715.224 L2378.76 721.112 L2347.67 721.112 L2347.67 726.714 L2343.12 726.714 L2343.12 721.112 L2340.63 721.112 Q2334.68 721.112 2331.98 718.343 Q2329.24 715.574 2329.24 709.558 L2329.24 704.02 Z" fill="#000000" fill-rule="evenodd" fill-opacity="1" /><path clip-path="url(#clip410)" d="M2329.24 699.118 L2329.24 693.262 L2378.76 693.262 L2378.76 699.118 L2329.24 699.118 Z" fill="#000000" fill-rule="evenodd" fill-opacity="1" /><path clip-path="url(#clip410)" d="M2347.22 667.194 Q2347.22 671.905 2350.91 674.642 Q2354.57 677.38 2360.97 677.38 Q2367.37 677.38 2371.06 674.674 Q2374.72 671.937 2374.72 667.194 Q2374.72 662.516 2371.03 659.778 Q2367.34 657.041 2360.97 657.041 Q2354.64 657.041 2350.95 659.778 Q2347.22 662.516 2347.22 667.194 M2342.26 667.194 Q2342.26 659.556 2347.22 655.195 Q2352.19 650.835 2360.97 650.835 Q2369.72 650.835 2374.72 655.195 Q2379.69 659.556 2379.69 667.194 Q2379.69 674.865 2374.72 679.226 Q2369.72 683.554 2360.97 683.554 Q2352.19 683.554 2347.22 679.226 Q2342.26 674.865 2342.26 667.194 Z" fill="#000000" fill-rule="evenodd" fill-opacity="1" /><path clip-path="url(#clip410)" d="M2343.12 644.532 L2343.12 638.676 L2370.93 631.355 L2343.12 624.067 L2343.12 617.16 L2370.93 609.839 L2343.12 602.551 L2343.12 596.694 L2378.76 606.02 L2378.76 612.927 L2349.55 620.597 L2378.76 628.3 L2378.76 635.207 L2343.12 644.532 Z" fill="#000000" fill-rule="evenodd" fill-opacity="1" /><path clip-path="url(#clip410)" d="M2348.59 567.157 Q2348.02 568.144 2347.76 569.322 Q2347.48 570.467 2347.48 571.868 Q2347.48 576.833 2350.72 579.507 Q2353.94 582.149 2359.99 582.149 L2378.76 582.149 L2378.76 588.037 L2343.12 588.037 L2343.12 582.149 L2348.65 582.149 Q2345.41 580.302 2343.85 577.342 Q2342.26 574.382 2342.26 570.149 Q2342.26 569.544 2342.35 568.812 Q2342.42 568.08 2342.57 567.189 L2348.59 567.157 Z" fill="#000000" fill-rule="evenodd" fill-opacity="1" /><path clip-path="url(#clip410)" d="M2360.84 544.814 Q2360.84 551.911 2362.47 554.649 Q2364.09 557.386 2368.01 557.386 Q2371.12 557.386 2372.97 555.349 Q2374.79 553.28 2374.79 549.747 Q2374.79 544.877 2371.35 541.949 Q2367.88 538.989 2362.15 538.989 L2360.84 538.989 L2360.84 544.814 M2358.43 533.133 L2378.76 533.133 L2378.76 538.989 L2373.35 538.989 Q2376.6 540.994 2378.16 543.986 Q2379.69 546.978 2379.69 551.307 Q2379.69 556.781 2376.63 560.028 Q2373.54 563.242 2368.39 563.242 Q2362.37 563.242 2359.32 559.232 Q2356.26 555.19 2356.26 547.201 L2356.26 538.989 L2355.69 538.989 Q2351.65 538.989 2349.45 541.663 Q2347.22 544.304 2347.22 549.111 Q2347.22 552.166 2347.95 555.062 Q2348.69 557.959 2350.15 560.632 L2344.74 560.632 Q2343.5 557.418 2342.89 554.394 Q2342.26 551.37 2342.26 548.506 Q2342.26 540.771 2346.27 536.952 Q2350.28 533.133 2358.43 533.133 Z" fill="#000000" fill-rule="evenodd" fill-opacity="1" /><path clip-path="url(#clip410)" d="M2332.99 515.277 L2343.12 515.277 L2343.12 503.214 L2347.67 503.214 L2347.67 515.277 L2367.02 515.277 Q2371.38 515.277 2372.62 514.099 Q2373.86 512.89 2373.86 509.229 L2373.86 503.214 L2378.76 503.214 L2378.76 509.229 Q2378.76 516.009 2376.25 518.587 Q2373.7 521.165 2367.02 521.165 L2347.67 521.165 L2347.67 525.462 L2343.12 525.462 L2343.12 521.165 L2332.99 521.165 L2332.99 515.277 Z" fill="#000000" fill-rule="evenodd" fill-opacity="1" /><path clip-path="url(#clip410)" d="M2359.48 465.02 L2362.34 465.02 L2362.34 491.946 Q2368.39 491.565 2371.57 488.318 Q2374.72 485.04 2374.72 479.215 Q2374.72 475.841 2373.89 472.69 Q2373.07 469.507 2371.41 466.388 L2376.95 466.388 Q2378.29 469.539 2378.99 472.849 Q2379.69 476.16 2379.69 479.565 Q2379.69 488.095 2374.72 493.092 Q2369.76 498.058 2361.29 498.058 Q2352.54 498.058 2347.41 493.347 Q2342.26 488.604 2342.26 480.584 Q2342.26 473.39 2346.9 469.221 Q2351.52 465.02 2359.48 465.02 M2357.76 470.876 Q2352.95 470.94 2350.09 473.581 Q2347.22 476.191 2347.22 480.52 Q2347.22 485.422 2349.99 488.382 Q2352.76 491.31 2357.79 491.756 L2357.76 470.876 Z" fill="#000000" fill-rule="evenodd" fill-opacity="1" /><polyline clip-path="url(#clip412)" style="stroke:#ff7c00; stroke-linecap:round; stroke-linejoin:round; stroke-width:4; stroke-opacity:1; fill:none" points="
  275.369,1384.24 294.057,1381.43 312.745,1378.59 331.433,1375.71 350.12,1372.78 368.808,1369.82 387.496,1366.81 406.184,1363.76 424.872,1360.66 443.56,1357.52 
  462.247,1354.33 480.935,1351.1 499.623,1347.81 518.311,1344.48 536.999,1341.09 555.687,1337.65 574.374,1334.15 593.062,1330.6 611.75,1326.99 630.438,1323.33 
  649.126,1319.6 667.814,1315.81 686.501,1311.95 705.189,1308.03 723.877,1304.04 742.565,1299.98 761.253,1295.85 779.941,1291.65 798.628,1287.37 817.316,1283.01 
  836.004,1278.57 854.692,1274.04 873.38,1269.43 892.067,1264.73 910.755,1259.94 929.443,1255.05 948.131,1250.07 966.819,1244.98 985.507,1239.79 1004.19,1234.49 
  1022.88,1229.08 1041.57,1223.55 1060.26,1217.9 1078.95,1212.13 1097.63,1206.22 1116.32,1200.18 1135.01,1194 1153.7,1187.68 1172.38,1181.2 1191.07,1174.57 
  1209.76,1167.77 1228.45,1160.8 1247.14,1153.65 1265.82,1146.32 1284.51,1138.79 1303.2,1131.06 1321.89,1123.12 1340.58,1114.95 1359.26,1106.55 1377.95,1097.91 
  1396.64,1089.02 1415.33,1079.85 1434.01,1070.4 1452.7,1060.66 1471.39,1050.6 1490.08,1040.21 1508.77,1029.47 1527.45,1018.37 1546.14,1006.87 1564.83,994.958 
  1583.52,982.607 1602.2,969.789 1620.89,956.474 1639.58,942.629 1658.27,928.217 1676.96,913.199 1695.64,897.531 1714.33,881.165 1733.02,864.047 1751.71,846.119 
  1770.4,827.313 1789.08,807.556 1807.77,786.766 1826.46,764.848 1845.15,741.696 1863.83,717.192 1882.52,691.197 1901.21,663.554 1919.9,634.081 1938.59,602.568 
  1957.27,568.766 1975.96,532.385 1994.65,493.08 2013.34,450.437 2032.03,403.953 2050.71,353.017 2069.4,296.869 2088.09,234.554 2106.78,164.854 2125.46,86.1857 
  
  "/>
</svg>
