<?xml version="1.0" encoding="utf-8"?>
<svg xmlns="http://www.w3.org/2000/svg" xmlns:xlink="http://www.w3.org/1999/xlink" width="600" height="400" viewBox="0 0 2400 1600">
<defs>
  <clipPath id="clip490">
    <rect x="0" y="0" width="2400" height="1600"/>
  </clipPath>
</defs>
<path clip-path="url(#clip490)" d="
M0 1600 L2400 1600 L2400 0 L0 0  Z
  " fill="#ffffff" fill-rule="evenodd" fill-opacity="1"/>
<defs>
  <clipPath id="clip491">
    <rect x="480" y="0" width="1681" height="1600"/>
  </clipPath>
</defs>
<path clip-path="url(#clip490)" d="
M250.028 1423.18 L2352.76 1423.18 L2352.76 47.2441 L250.028 47.2441  Z
  " fill="#ffffff" fill-rule="evenodd" fill-opacity="1"/>
<defs>
  <clipPath id="clip492">
    <rect x="250" y="47" width="2104" height="1377"/>
  </clipPath>
</defs>
<polyline clip-path="url(#clip492)" style="stroke:#000000; stroke-linecap:round; stroke-linejoin:round; stroke-width:2; stroke-opacity:0.1; fill:none" points="
  309.539,1423.18 309.539,47.2441 
  "/>
<polyline clip-path="url(#clip492)" style="stroke:#000000; stroke-linecap:round; stroke-linejoin:round; stroke-width:2; stroke-opacity:0.1; fill:none" points="
  805.466,1423.18 805.466,47.2441 
  "/>
<polyline clip-path="url(#clip492)" style="stroke:#000000; stroke-linecap:round; stroke-linejoin:round; stroke-width:2; stroke-opacity:0.1; fill:none" points="
  1301.39,1423.18 1301.39,47.2441 
  "/>
<polyline clip-path="url(#clip492)" style="stroke:#000000; stroke-linecap:round; stroke-linejoin:round; stroke-width:2; stroke-opacity:0.1; fill:none" points="
  1797.32,1423.18 1797.32,47.2441 
  "/>
<polyline clip-path="url(#clip492)" style="stroke:#000000; stroke-linecap:round; stroke-linejoin:round; stroke-width:2; stroke-opacity:0.1; fill:none" points="
  2293.24,1423.18 2293.24,47.2441 
  "/>
<polyline clip-path="url(#clip490)" style="stroke:#000000; stroke-linecap:round; stroke-linejoin:round; stroke-width:4; stroke-opacity:1; fill:none" points="
  250.028,1423.18 2352.76,1423.18 
  "/>
<polyline clip-path="url(#clip490)" style="stroke:#000000; stroke-linecap:round; stroke-linejoin:round; stroke-width:4; stroke-opacity:1; fill:none" points="
  309.539,1423.18 309.539,1404.28 
  "/>
<polyline clip-path="url(#clip490)" style="stroke:#000000; stroke-linecap:round; stroke-linejoin:round; stroke-width:4; stroke-opacity:1; fill:none" points="
  805.466,1423.18 805.466,1404.28 
  "/>
<polyline clip-path="url(#clip490)" style="stroke:#000000; stroke-linecap:round; stroke-linejoin:round; stroke-width:4; stroke-opacity:1; fill:none" points="
  1301.39,1423.18 1301.39,1404.28 
  "/>
<polyline clip-path="url(#clip490)" style="stroke:#000000; stroke-linecap:round; stroke-linejoin:round; stroke-width:4; stroke-opacity:1; fill:none" points="
  1797.32,1423.18 1797.32,1404.28 
  "/>
<polyline clip-path="url(#clip490)" style="stroke:#000000; stroke-linecap:round; stroke-linejoin:round; stroke-width:4; stroke-opacity:1; fill:none" points="
  2293.24,1423.18 2293.24,1404.28 
  "/>
<path clip-path="url(#clip490)" d="M309.539 1454.1 Q305.928 1454.1 304.1 1457.66 Q302.294 1461.2 302.294 1468.33 Q302.294 1475.44 304.1 1479.01 Q305.928 1482.55 309.539 1482.55 Q313.174 1482.55 314.979 1479.01 Q316.808 1475.44 316.808 1468.33 Q316.808 1461.2 314.979 1457.66 Q313.174 1454.1 309.539 1454.1 M309.539 1450.39 Q315.349 1450.39 318.405 1455 Q321.484 1459.58 321.484 1468.33 Q321.484 1477.06 318.405 1481.67 Q315.349 1486.25 309.539 1486.25 Q303.729 1486.25 300.65 1481.67 Q297.595 1477.06 297.595 1468.33 Q297.595 1459.58 300.65 1455 Q303.729 1450.39 309.539 1450.39 Z" fill="#000000" fill-rule="evenodd" fill-opacity="1" /><path clip-path="url(#clip490)" d="M784.737 1481.64 L801.056 1481.64 L801.056 1485.58 L779.112 1485.58 L779.112 1481.64 Q781.774 1478.89 786.357 1474.26 Q790.963 1469.61 792.144 1468.27 Q794.389 1465.74 795.269 1464.01 Q796.172 1462.25 796.172 1460.56 Q796.172 1457.8 794.227 1456.07 Q792.306 1454.33 789.204 1454.33 Q787.005 1454.33 784.551 1455.09 Q782.121 1455.86 779.343 1457.41 L779.343 1452.69 Q782.167 1451.55 784.621 1450.97 Q787.075 1450.39 789.112 1450.39 Q794.482 1450.39 797.676 1453.08 Q800.871 1455.77 800.871 1460.26 Q800.871 1462.39 800.061 1464.31 Q799.274 1466.2 797.167 1468.8 Q796.588 1469.47 793.487 1472.69 Q790.385 1475.88 784.737 1481.64 Z" fill="#000000" fill-rule="evenodd" fill-opacity="1" /><path clip-path="url(#clip490)" d="M810.917 1451.02 L829.273 1451.02 L829.273 1454.96 L815.199 1454.96 L815.199 1463.43 Q816.218 1463.08 817.236 1462.92 Q818.255 1462.73 819.273 1462.73 Q825.06 1462.73 828.44 1465.9 Q831.82 1469.08 831.82 1474.49 Q831.82 1480.07 828.347 1483.17 Q824.875 1486.25 818.556 1486.25 Q816.38 1486.25 814.111 1485.88 Q811.866 1485.51 809.459 1484.77 L809.459 1480.07 Q811.542 1481.2 813.764 1481.76 Q815.986 1482.32 818.463 1482.32 Q822.468 1482.32 824.806 1480.21 Q827.144 1478.1 827.144 1474.49 Q827.144 1470.88 824.806 1468.77 Q822.468 1466.67 818.463 1466.67 Q816.588 1466.67 814.713 1467.08 Q812.861 1467.5 810.917 1468.38 L810.917 1451.02 Z" fill="#000000" fill-rule="evenodd" fill-opacity="1" /><path clip-path="url(#clip490)" d="M1276.09 1451.02 L1294.45 1451.02 L1294.45 1454.96 L1280.37 1454.96 L1280.37 1463.43 Q1281.39 1463.08 1282.41 1462.92 Q1283.43 1462.73 1284.45 1462.73 Q1290.23 1462.73 1293.61 1465.9 Q1296.99 1469.08 1296.99 1474.49 Q1296.99 1480.07 1293.52 1483.17 Q1290.05 1486.25 1283.73 1486.25 Q1281.55 1486.25 1279.29 1485.88 Q1277.04 1485.51 1274.63 1484.77 L1274.63 1480.07 Q1276.72 1481.2 1278.94 1481.76 Q1281.16 1482.32 1283.64 1482.32 Q1287.64 1482.32 1289.98 1480.21 Q1292.32 1478.1 1292.32 1474.49 Q1292.32 1470.88 1289.98 1468.77 Q1287.64 1466.67 1283.64 1466.67 Q1281.76 1466.67 1279.89 1467.08 Q1278.04 1467.5 1276.09 1468.38 L1276.09 1451.02 Z" fill="#000000" fill-rule="evenodd" fill-opacity="1" /><path clip-path="url(#clip490)" d="M1316.21 1454.1 Q1312.6 1454.1 1310.77 1457.66 Q1308.96 1461.2 1308.96 1468.33 Q1308.96 1475.44 1310.77 1479.01 Q1312.6 1482.55 1316.21 1482.55 Q1319.84 1482.55 1321.65 1479.01 Q1323.48 1475.44 1323.48 1468.33 Q1323.48 1461.2 1321.65 1457.66 Q1319.84 1454.1 1316.21 1454.1 M1316.21 1450.39 Q1322.02 1450.39 1325.07 1455 Q1328.15 1459.58 1328.15 1468.33 Q1328.15 1477.06 1325.07 1481.67 Q1322.02 1486.25 1316.21 1486.25 Q1310.4 1486.25 1307.32 1481.67 Q1304.26 1477.06 1304.26 1468.33 Q1304.26 1459.58 1307.32 1455 Q1310.4 1450.39 1316.21 1450.39 Z" fill="#000000" fill-rule="evenodd" fill-opacity="1" /><path clip-path="url(#clip490)" d="M1771.17 1451.02 L1793.39 1451.02 L1793.39 1453.01 L1780.85 1485.58 L1775.96 1485.58 L1787.77 1454.96 L1771.17 1454.96 L1771.17 1451.02 Z" fill="#000000" fill-rule="evenodd" fill-opacity="1" /><path clip-path="url(#clip490)" d="M1802.56 1451.02 L1820.92 1451.02 L1820.92 1454.96 L1806.84 1454.96 L1806.84 1463.43 Q1807.86 1463.08 1808.88 1462.92 Q1809.9 1462.73 1810.92 1462.73 Q1816.7 1462.73 1820.08 1465.9 Q1823.46 1469.08 1823.46 1474.49 Q1823.46 1480.07 1819.99 1483.17 Q1816.52 1486.25 1810.2 1486.25 Q1808.02 1486.25 1805.76 1485.88 Q1803.51 1485.51 1801.1 1484.77 L1801.1 1480.07 Q1803.19 1481.2 1805.41 1481.76 Q1807.63 1482.32 1810.11 1482.32 Q1814.11 1482.32 1816.45 1480.21 Q1818.79 1478.1 1818.79 1474.49 Q1818.79 1470.88 1816.45 1468.77 Q1814.11 1466.67 1810.11 1466.67 Q1808.23 1466.67 1806.36 1467.08 Q1804.51 1467.5 1802.56 1468.38 L1802.56 1451.02 Z" fill="#000000" fill-rule="evenodd" fill-opacity="1" /><path clip-path="url(#clip490)" d="M2252.85 1481.64 L2260.49 1481.64 L2260.49 1455.28 L2252.18 1456.95 L2252.18 1452.69 L2260.44 1451.02 L2265.12 1451.02 L2265.12 1481.64 L2272.76 1481.64 L2272.76 1485.58 L2252.85 1485.58 L2252.85 1481.64 Z" fill="#000000" fill-rule="evenodd" fill-opacity="1" /><path clip-path="url(#clip490)" d="M2292.2 1454.1 Q2288.59 1454.1 2286.76 1457.66 Q2284.96 1461.2 2284.96 1468.33 Q2284.96 1475.44 2286.76 1479.01 Q2288.59 1482.55 2292.2 1482.55 Q2295.84 1482.55 2297.64 1479.01 Q2299.47 1475.44 2299.47 1468.33 Q2299.47 1461.2 2297.64 1457.66 Q2295.84 1454.1 2292.2 1454.1 M2292.2 1450.39 Q2298.01 1450.39 2301.07 1455 Q2304.15 1459.58 2304.15 1468.33 Q2304.15 1477.06 2301.07 1481.67 Q2298.01 1486.25 2292.2 1486.25 Q2286.39 1486.25 2283.31 1481.67 Q2280.26 1477.06 2280.26 1468.33 Q2280.26 1459.58 2283.31 1455 Q2286.39 1450.39 2292.2 1450.39 Z" fill="#000000" fill-rule="evenodd" fill-opacity="1" /><path clip-path="url(#clip490)" d="M2322.36 1454.1 Q2318.75 1454.1 2316.93 1457.66 Q2315.12 1461.2 2315.12 1468.33 Q2315.12 1475.44 2316.93 1479.01 Q2318.75 1482.55 2322.36 1482.55 Q2326 1482.55 2327.8 1479.01 Q2329.63 1475.44 2329.63 1468.33 Q2329.63 1461.2 2327.8 1457.66 Q2326 1454.1 2322.36 1454.1 M2322.36 1450.39 Q2328.18 1450.39 2331.23 1455 Q2334.31 1459.58 2334.31 1468.33 Q2334.31 1477.06 2331.23 1481.67 Q2328.18 1486.25 2322.36 1486.25 Q2316.55 1486.25 2313.48 1481.67 Q2310.42 1477.06 2310.42 1468.33 Q2310.42 1459.58 2313.48 1455 Q2316.55 1450.39 2322.36 1450.39 Z" fill="#000000" fill-rule="evenodd" fill-opacity="1" /><path clip-path="url(#clip490)" d="M1006.61 1547.13 Q1003.84 1547.13 1002.25 1549.49 Q1000.69 1551.84 1000.69 1556.04 Q1000.69 1560.18 1002.25 1562.57 Q1003.84 1564.92 1006.61 1564.92 Q1009.32 1564.92 1010.88 1562.57 Q1012.47 1560.18 1012.47 1556.04 Q1012.47 1551.87 1010.88 1549.52 Q1009.32 1547.13 1006.61 1547.13 M1006.61 1543.09 Q1011.64 1543.09 1014.6 1546.59 Q1017.56 1550.09 1017.56 1556.04 Q1017.56 1562 1014.57 1565.5 Q1011.61 1568.97 1006.61 1568.97 Q1001.52 1568.97 998.559 1565.5 Q995.599 1562 995.599 1556.04 Q995.599 1550.06 998.559 1546.59 Q1001.55 1543.09 1006.61 1543.09 M973.765 1523.71 Q971.028 1523.71 969.436 1526.09 Q967.877 1528.45 967.877 1532.59 Q967.877 1536.79 969.436 1539.14 Q970.996 1541.5 973.765 1541.5 Q976.534 1541.5 978.094 1539.14 Q979.685 1536.79 979.685 1532.59 Q979.685 1528.48 978.094 1526.09 Q976.502 1523.71 973.765 1523.71 M1002.51 1519.66 L1007.6 1519.66 L977.871 1568.97 L972.778 1568.97 L1002.51 1519.66 M973.765 1519.66 Q978.794 1519.66 981.786 1523.17 Q984.778 1526.63 984.778 1532.59 Q984.778 1538.6 981.786 1542.07 Q978.826 1545.54 973.765 1545.54 Q968.704 1545.54 965.744 1542.07 Q962.816 1538.57 962.816 1532.59 Q962.816 1526.67 965.776 1523.17 Q968.736 1519.66 973.765 1519.66 Z" fill="#000000" fill-rule="evenodd" fill-opacity="1" /><path clip-path="url(#clip490)" d="M1048.28 1520.52 L1054.7 1520.52 L1054.7 1540 L1078.07 1540 L1078.07 1520.52 L1084.5 1520.52 L1084.5 1568.04 L1078.07 1568.04 L1078.07 1545.41 L1054.7 1545.41 L1054.7 1568.04 L1048.28 1568.04 L1048.28 1520.52 Z" fill="#000000" fill-rule="evenodd" fill-opacity="1" /><path clip-path="url(#clip490)" d="M1111.87 1571.35 Q1109.39 1577.72 1107.03 1579.66 Q1104.68 1581.6 1100.73 1581.6 L1096.05 1581.6 L1096.05 1576.7 L1099.49 1576.7 Q1101.91 1576.7 1103.24 1575.56 Q1104.58 1574.41 1106.2 1570.14 L1107.25 1567.47 L1092.84 1532.4 L1099.04 1532.4 L1110.18 1560.28 L1121.32 1532.4 L1127.53 1532.4 L1111.87 1571.35 Z" fill="#000000" fill-rule="evenodd" fill-opacity="1" /><path clip-path="url(#clip490)" d="M1159.07 1537.81 L1159.07 1518.52 L1164.93 1518.52 L1164.93 1568.04 L1159.07 1568.04 L1159.07 1562.7 Q1157.22 1565.88 1154.39 1567.44 Q1151.59 1568.97 1147.64 1568.97 Q1141.18 1568.97 1137.11 1563.81 Q1133.07 1558.65 1133.07 1550.25 Q1133.07 1541.85 1137.11 1536.69 Q1141.18 1531.54 1147.64 1531.54 Q1151.59 1531.54 1154.39 1533.1 Q1157.22 1534.62 1159.07 1537.81 M1139.11 1550.25 Q1139.11 1556.71 1141.76 1560.4 Q1144.43 1564.07 1149.08 1564.07 Q1153.72 1564.07 1156.4 1560.4 Q1159.07 1556.71 1159.07 1550.25 Q1159.07 1543.79 1156.4 1540.13 Q1153.72 1536.44 1149.08 1536.44 Q1144.43 1536.44 1141.76 1540.13 Q1139.11 1543.79 1139.11 1550.25 Z" fill="#000000" fill-rule="evenodd" fill-opacity="1" /><path clip-path="url(#clip490)" d="M1197.65 1537.87 Q1196.66 1537.3 1195.48 1537.04 Q1194.34 1536.76 1192.94 1536.76 Q1187.97 1536.76 1185.3 1540 Q1182.66 1543.22 1182.66 1549.27 L1182.66 1568.04 L1176.77 1568.04 L1176.77 1532.4 L1182.66 1532.4 L1182.66 1537.93 Q1184.5 1534.69 1187.46 1533.13 Q1190.42 1531.54 1194.66 1531.54 Q1195.26 1531.54 1195.99 1531.63 Q1196.72 1531.7 1197.62 1531.85 L1197.65 1537.87 Z" fill="#000000" fill-rule="evenodd" fill-opacity="1" /><path clip-path="url(#clip490)" d="M1216.17 1536.5 Q1211.46 1536.5 1208.72 1540.19 Q1205.99 1543.85 1205.99 1550.25 Q1205.99 1556.65 1208.69 1560.34 Q1211.43 1564 1216.17 1564 Q1220.85 1564 1223.59 1560.31 Q1226.32 1556.62 1226.32 1550.25 Q1226.32 1543.92 1223.59 1540.23 Q1220.85 1536.5 1216.17 1536.5 M1216.17 1531.54 Q1223.81 1531.54 1228.17 1536.5 Q1232.53 1541.47 1232.53 1550.25 Q1232.53 1559 1228.17 1564 Q1223.81 1568.97 1216.17 1568.97 Q1208.5 1568.97 1204.14 1564 Q1199.81 1559 1199.81 1550.25 Q1199.81 1541.47 1204.14 1536.5 Q1208.5 1531.54 1216.17 1531.54 Z" fill="#000000" fill-rule="evenodd" fill-opacity="1" /><path clip-path="url(#clip490)" d="M1265.7 1549.81 Q1265.7 1543.44 1263.05 1539.94 Q1260.44 1536.44 1255.7 1536.44 Q1250.99 1536.44 1248.35 1539.94 Q1245.74 1543.44 1245.74 1549.81 Q1245.74 1556.14 1248.35 1559.64 Q1250.99 1563.14 1255.7 1563.14 Q1260.44 1563.14 1263.05 1559.64 Q1265.7 1556.14 1265.7 1549.81 M1271.55 1563.62 Q1271.55 1572.72 1267.51 1577.15 Q1263.47 1581.6 1255.13 1581.6 Q1252.04 1581.6 1249.3 1581.13 Q1246.57 1580.68 1243.99 1579.72 L1243.99 1574.03 Q1246.57 1575.43 1249.08 1576.1 Q1251.6 1576.76 1254.21 1576.76 Q1259.97 1576.76 1262.83 1573.74 Q1265.7 1570.75 1265.7 1564.67 L1265.7 1561.77 Q1263.88 1564.92 1261.05 1566.48 Q1258.22 1568.04 1254.27 1568.04 Q1247.71 1568.04 1243.7 1563.05 Q1239.69 1558.05 1239.69 1549.81 Q1239.69 1541.53 1243.7 1536.53 Q1247.71 1531.54 1254.27 1531.54 Q1258.22 1531.54 1261.05 1533.1 Q1263.88 1534.66 1265.7 1537.81 L1265.7 1532.4 L1271.55 1532.4 L1271.55 1563.62 Z" fill="#000000" fill-rule="evenodd" fill-opacity="1" /><path clip-path="url(#clip490)" d="M1314.11 1548.76 L1314.11 1551.62 L1287.18 1551.62 Q1287.56 1557.67 1290.81 1560.85 Q1294.09 1564 1299.91 1564 Q1303.29 1564 1306.44 1563.17 Q1309.62 1562.35 1312.74 1560.69 L1312.74 1566.23 Q1309.59 1567.57 1306.28 1568.27 Q1302.97 1568.97 1299.56 1568.97 Q1291.03 1568.97 1286.03 1564 Q1281.07 1559.04 1281.07 1550.57 Q1281.07 1541.82 1285.78 1536.69 Q1290.52 1531.54 1298.54 1531.54 Q1305.74 1531.54 1309.91 1536.18 Q1314.11 1540.8 1314.11 1548.76 M1308.25 1547.04 Q1308.19 1542.23 1305.55 1539.37 Q1302.94 1536.5 1298.61 1536.5 Q1293.71 1536.5 1290.75 1539.27 Q1287.82 1542.04 1287.37 1547.07 L1308.25 1547.04 Z" fill="#000000" fill-rule="evenodd" fill-opacity="1" /><path clip-path="url(#clip490)" d="M1353.35 1546.53 L1353.35 1568.04 L1347.5 1568.04 L1347.5 1546.72 Q1347.5 1541.66 1345.52 1539.14 Q1343.55 1536.63 1339.6 1536.63 Q1334.86 1536.63 1332.12 1539.65 Q1329.39 1542.68 1329.39 1547.9 L1329.39 1568.04 L1323.5 1568.04 L1323.5 1532.4 L1329.39 1532.4 L1329.39 1537.93 Q1331.49 1534.72 1334.32 1533.13 Q1337.18 1531.54 1340.91 1531.54 Q1347.05 1531.54 1350.2 1535.36 Q1353.35 1539.14 1353.35 1546.53 Z" fill="#000000" fill-rule="evenodd" fill-opacity="1" /><path clip-path="url(#clip490)" d="M1399.82 1518.58 Q1395.56 1525.9 1393.49 1533.06 Q1391.42 1540.23 1391.42 1547.58 Q1391.42 1554.93 1393.49 1562.16 Q1395.59 1569.35 1399.82 1576.64 L1394.73 1576.64 Q1389.95 1569.16 1387.57 1561.93 Q1385.21 1554.71 1385.21 1547.58 Q1385.21 1540.48 1387.57 1533.29 Q1389.92 1526.09 1394.73 1518.58 L1399.82 1518.58 Z" fill="#000000" fill-rule="evenodd" fill-opacity="1" /><path clip-path="url(#clip490)" d="M1406.98 1532.4 L1413.19 1532.4 L1424.33 1562.31 L1435.47 1532.4 L1441.68 1532.4 L1428.31 1568.04 L1420.35 1568.04 L1406.98 1532.4 Z" fill="#000000" fill-rule="evenodd" fill-opacity="1" /><path clip-path="url(#clip490)" d="M1463.57 1536.5 Q1458.86 1536.5 1456.13 1540.19 Q1453.39 1543.85 1453.39 1550.25 Q1453.39 1556.65 1456.09 1560.34 Q1458.83 1564 1463.57 1564 Q1468.25 1564 1470.99 1560.31 Q1473.73 1556.62 1473.73 1550.25 Q1473.73 1543.92 1470.99 1540.23 Q1468.25 1536.5 1463.57 1536.5 M1463.57 1531.54 Q1471.21 1531.54 1475.57 1536.5 Q1479.93 1541.47 1479.93 1550.25 Q1479.93 1559 1475.57 1564 Q1471.21 1568.97 1463.57 1568.97 Q1455.9 1568.97 1451.54 1564 Q1447.21 1559 1447.21 1550.25 Q1447.21 1541.47 1451.54 1536.5 Q1455.9 1531.54 1463.57 1531.54 Z" fill="#000000" fill-rule="evenodd" fill-opacity="1" /><path clip-path="url(#clip490)" d="M1489.64 1518.52 L1495.5 1518.52 L1495.5 1568.04 L1489.64 1568.04 L1489.64 1518.52 Z" fill="#000000" fill-rule="evenodd" fill-opacity="1" /><path clip-path="url(#clip490)" d="M1518.16 1520.52 L1523.57 1520.52 L1507.02 1574.09 L1501.61 1574.09 L1518.16 1520.52 Z" fill="#000000" fill-rule="evenodd" fill-opacity="1" /><path clip-path="url(#clip490)" d="M1525.51 1532.4 L1531.72 1532.4 L1542.86 1562.31 L1554 1532.4 L1560.21 1532.4 L1546.84 1568.04 L1538.88 1568.04 L1525.51 1532.4 Z" fill="#000000" fill-rule="evenodd" fill-opacity="1" /><path clip-path="url(#clip490)" d="M1582.1 1536.5 Q1577.39 1536.5 1574.66 1540.19 Q1571.92 1543.85 1571.92 1550.25 Q1571.92 1556.65 1574.62 1560.34 Q1577.36 1564 1582.1 1564 Q1586.78 1564 1589.52 1560.31 Q1592.26 1556.62 1592.26 1550.25 Q1592.26 1543.92 1589.52 1540.23 Q1586.78 1536.5 1582.1 1536.5 M1582.1 1531.54 Q1589.74 1531.54 1594.1 1536.5 Q1598.46 1541.47 1598.46 1550.25 Q1598.46 1559 1594.1 1564 Q1589.74 1568.97 1582.1 1568.97 Q1574.43 1568.97 1570.07 1564 Q1565.74 1559 1565.74 1550.25 Q1565.74 1541.47 1570.07 1536.5 Q1574.43 1531.54 1582.1 1531.54 Z" fill="#000000" fill-rule="evenodd" fill-opacity="1" /><path clip-path="url(#clip490)" d="M1608.17 1518.52 L1614.03 1518.52 L1614.03 1568.04 L1608.17 1568.04 L1608.17 1518.52 Z" fill="#000000" fill-rule="evenodd" fill-opacity="1" /><path clip-path="url(#clip490)" d="M1625.36 1518.58 L1630.45 1518.58 Q1635.23 1526.09 1637.58 1533.29 Q1639.97 1540.48 1639.97 1547.58 Q1639.97 1554.71 1637.58 1561.93 Q1635.23 1569.16 1630.45 1576.64 L1625.36 1576.64 Q1629.59 1569.35 1631.66 1562.16 Q1633.76 1554.93 1633.76 1547.58 Q1633.76 1540.23 1631.66 1533.06 Q1629.59 1525.9 1625.36 1518.58 Z" fill="#000000" fill-rule="evenodd" fill-opacity="1" /><polyline clip-path="url(#clip492)" style="stroke:#000000; stroke-linecap:round; stroke-linejoin:round; stroke-width:2; stroke-opacity:0.1; fill:none" points="
  250.028,1384.24 2352.76,1384.24 
  "/>
<polyline clip-path="url(#clip492)" style="stroke:#000000; stroke-linecap:round; stroke-linejoin:round; stroke-width:2; stroke-opacity:0.1; fill:none" points="
  250.028,1137.38 2352.76,1137.38 
  "/>
<polyline clip-path="url(#clip492)" style="stroke:#000000; stroke-linecap:round; stroke-linejoin:round; stroke-width:2; stroke-opacity:0.1; fill:none" points="
  250.028,890.529 2352.76,890.529 
  "/>
<polyline clip-path="url(#clip492)" style="stroke:#000000; stroke-linecap:round; stroke-linejoin:round; stroke-width:2; stroke-opacity:0.1; fill:none" points="
  250.028,643.675 2352.76,643.675 
  "/>
<polyline clip-path="url(#clip492)" style="stroke:#000000; stroke-linecap:round; stroke-linejoin:round; stroke-width:2; stroke-opacity:0.1; fill:none" points="
  250.028,396.82 2352.76,396.82 
  "/>
<polyline clip-path="url(#clip492)" style="stroke:#000000; stroke-linecap:round; stroke-linejoin:round; stroke-width:2; stroke-opacity:0.1; fill:none" points="
  250.028,149.965 2352.76,149.965 
  "/>
<polyline clip-path="url(#clip490)" style="stroke:#000000; stroke-linecap:round; stroke-linejoin:round; stroke-width:4; stroke-opacity:1; fill:none" points="
  250.028,1423.18 250.028,47.2441 
  "/>
<polyline clip-path="url(#clip490)" style="stroke:#000000; stroke-linecap:round; stroke-linejoin:round; stroke-width:4; stroke-opacity:1; fill:none" points="
  250.028,1384.24 268.926,1384.24 
  "/>
<polyline clip-path="url(#clip490)" style="stroke:#000000; stroke-linecap:round; stroke-linejoin:round; stroke-width:4; stroke-opacity:1; fill:none" points="
  250.028,1137.38 268.926,1137.38 
  "/>
<polyline clip-path="url(#clip490)" style="stroke:#000000; stroke-linecap:round; stroke-linejoin:round; stroke-width:4; stroke-opacity:1; fill:none" points="
  250.028,890.529 268.926,890.529 
  "/>
<polyline clip-path="url(#clip490)" style="stroke:#000000; stroke-linecap:round; stroke-linejoin:round; stroke-width:4; stroke-opacity:1; fill:none" points="
  250.028,643.675 268.926,643.675 
  "/>
<polyline clip-path="url(#clip490)" style="stroke:#000000; stroke-linecap:round; stroke-linejoin:round; stroke-width:4; stroke-opacity:1; fill:none" points="
  250.028,396.82 268.926,396.82 
  "/>
<polyline clip-path="url(#clip490)" style="stroke:#000000; stroke-linecap:round; stroke-linejoin:round; stroke-width:4; stroke-opacity:1; fill:none" points="
  250.028,149.965 268.926,149.965 
  "/>
<path clip-path="url(#clip490)" d="M126.691 1370.04 Q123.08 1370.04 121.251 1373.6 Q119.445 1377.14 119.445 1384.27 Q119.445 1391.38 121.251 1394.94 Q123.08 1398.49 126.691 1398.49 Q130.325 1398.49 132.13 1394.94 Q133.959 1391.38 133.959 1384.27 Q133.959 1377.14 132.13 1373.6 Q130.325 1370.04 126.691 1370.04 M126.691 1366.33 Q132.501 1366.33 135.556 1370.94 Q138.635 1375.52 138.635 1384.27 Q138.635 1393 135.556 1397.61 Q132.501 1402.19 126.691 1402.19 Q120.88 1402.19 117.802 1397.61 Q114.746 1393 114.746 1384.27 Q114.746 1375.52 117.802 1370.94 Q120.88 1366.33 126.691 1366.33 Z" fill="#000000" fill-rule="evenodd" fill-opacity="1" /><path clip-path="url(#clip490)" d="M146.853 1395.64 L151.737 1395.64 L151.737 1401.52 L146.853 1401.52 L146.853 1395.64 Z" fill="#000000" fill-rule="evenodd" fill-opacity="1" /><path clip-path="url(#clip490)" d="M171.922 1370.04 Q168.311 1370.04 166.482 1373.6 Q164.677 1377.14 164.677 1384.27 Q164.677 1391.38 166.482 1394.94 Q168.311 1398.49 171.922 1398.49 Q175.556 1398.49 177.362 1394.94 Q179.19 1391.38 179.19 1384.27 Q179.19 1377.14 177.362 1373.6 Q175.556 1370.04 171.922 1370.04 M171.922 1366.33 Q177.732 1366.33 180.788 1370.94 Q183.866 1375.52 183.866 1384.27 Q183.866 1393 180.788 1397.61 Q177.732 1402.19 171.922 1402.19 Q166.112 1402.19 163.033 1397.61 Q159.978 1393 159.978 1384.27 Q159.978 1375.52 163.033 1370.94 Q166.112 1366.33 171.922 1366.33 Z" fill="#000000" fill-rule="evenodd" fill-opacity="1" /><path clip-path="url(#clip490)" d="M202.084 1370.04 Q198.473 1370.04 196.644 1373.6 Q194.838 1377.14 194.838 1384.27 Q194.838 1391.38 196.644 1394.94 Q198.473 1398.49 202.084 1398.49 Q205.718 1398.49 207.524 1394.94 Q209.352 1391.38 209.352 1384.27 Q209.352 1377.14 207.524 1373.6 Q205.718 1370.04 202.084 1370.04 M202.084 1366.33 Q207.894 1366.33 210.949 1370.94 Q214.028 1375.52 214.028 1384.27 Q214.028 1393 210.949 1397.61 Q207.894 1402.19 202.084 1402.19 Q196.274 1402.19 193.195 1397.61 Q190.139 1393 190.139 1384.27 Q190.139 1375.52 193.195 1370.94 Q196.274 1366.33 202.084 1366.33 Z" fill="#000000" fill-rule="evenodd" fill-opacity="1" /><path clip-path="url(#clip490)" d="M127.917 1123.18 Q124.306 1123.18 122.478 1126.75 Q120.672 1130.29 120.672 1137.42 Q120.672 1144.52 122.478 1148.09 Q124.306 1151.63 127.917 1151.63 Q131.552 1151.63 133.357 1148.09 Q135.186 1144.52 135.186 1137.42 Q135.186 1130.29 133.357 1126.75 Q131.552 1123.18 127.917 1123.18 M127.917 1119.48 Q133.728 1119.48 136.783 1124.09 Q139.862 1128.67 139.862 1137.42 Q139.862 1146.15 136.783 1150.75 Q133.728 1155.33 127.917 1155.33 Q122.107 1155.33 119.029 1150.75 Q115.973 1146.15 115.973 1137.42 Q115.973 1128.67 119.029 1124.09 Q122.107 1119.48 127.917 1119.48 Z" fill="#000000" fill-rule="evenodd" fill-opacity="1" /><path clip-path="url(#clip490)" d="M148.079 1148.78 L152.964 1148.78 L152.964 1154.66 L148.079 1154.66 L148.079 1148.78 Z" fill="#000000" fill-rule="evenodd" fill-opacity="1" /><path clip-path="url(#clip490)" d="M173.149 1123.18 Q169.538 1123.18 167.709 1126.75 Q165.903 1130.29 165.903 1137.42 Q165.903 1144.52 167.709 1148.09 Q169.538 1151.63 173.149 1151.63 Q176.783 1151.63 178.589 1148.09 Q180.417 1144.52 180.417 1137.42 Q180.417 1130.29 178.589 1126.75 Q176.783 1123.18 173.149 1123.18 M173.149 1119.48 Q178.959 1119.48 182.014 1124.09 Q185.093 1128.67 185.093 1137.42 Q185.093 1146.15 182.014 1150.75 Q178.959 1155.33 173.149 1155.33 Q167.339 1155.33 164.26 1150.75 Q161.204 1146.15 161.204 1137.42 Q161.204 1128.67 164.26 1124.09 Q167.339 1119.48 173.149 1119.48 Z" fill="#000000" fill-rule="evenodd" fill-opacity="1" /><path clip-path="url(#clip490)" d="M194.121 1150.73 L201.76 1150.73 L201.76 1124.36 L193.45 1126.03 L193.45 1121.77 L201.713 1120.1 L206.389 1120.1 L206.389 1150.73 L214.028 1150.73 L214.028 1154.66 L194.121 1154.66 L194.121 1150.73 Z" fill="#000000" fill-rule="evenodd" fill-opacity="1" /><path clip-path="url(#clip490)" d="M128.288 876.328 Q124.677 876.328 122.848 879.893 Q121.043 883.434 121.043 890.564 Q121.043 897.67 122.848 901.235 Q124.677 904.777 128.288 904.777 Q131.922 904.777 133.728 901.235 Q135.556 897.67 135.556 890.564 Q135.556 883.434 133.728 879.893 Q131.922 876.328 128.288 876.328 M128.288 872.624 Q134.098 872.624 137.154 877.231 Q140.232 881.814 140.232 890.564 Q140.232 899.291 137.154 903.897 Q134.098 908.48 128.288 908.48 Q122.478 908.48 119.399 903.897 Q116.343 899.291 116.343 890.564 Q116.343 881.814 119.399 877.231 Q122.478 872.624 128.288 872.624 Z" fill="#000000" fill-rule="evenodd" fill-opacity="1" /><path clip-path="url(#clip490)" d="M148.45 901.93 L153.334 901.93 L153.334 907.809 L148.45 907.809 L148.45 901.93 Z" fill="#000000" fill-rule="evenodd" fill-opacity="1" /><path clip-path="url(#clip490)" d="M173.519 876.328 Q169.908 876.328 168.079 879.893 Q166.274 883.434 166.274 890.564 Q166.274 897.67 168.079 901.235 Q169.908 904.777 173.519 904.777 Q177.153 904.777 178.959 901.235 Q180.788 897.67 180.788 890.564 Q180.788 883.434 178.959 879.893 Q177.153 876.328 173.519 876.328 M173.519 872.624 Q179.329 872.624 182.385 877.231 Q185.463 881.814 185.463 890.564 Q185.463 899.291 182.385 903.897 Q179.329 908.48 173.519 908.48 Q167.709 908.48 164.63 903.897 Q161.575 899.291 161.575 890.564 Q161.575 881.814 164.63 877.231 Q167.709 872.624 173.519 872.624 Z" fill="#000000" fill-rule="evenodd" fill-opacity="1" /><path clip-path="url(#clip490)" d="M197.709 903.874 L214.028 903.874 L214.028 907.809 L192.084 907.809 L192.084 903.874 Q194.746 901.119 199.329 896.49 Q203.936 891.837 205.116 890.494 Q207.362 887.971 208.241 886.235 Q209.144 884.476 209.144 882.786 Q209.144 880.031 207.199 878.295 Q205.278 876.559 202.176 876.559 Q199.977 876.559 197.524 877.323 Q195.093 878.087 192.315 879.638 L192.315 874.916 Q195.139 873.782 197.593 873.203 Q200.047 872.624 202.084 872.624 Q207.454 872.624 210.649 875.309 Q213.843 877.994 213.843 882.485 Q213.843 884.615 213.033 886.536 Q212.246 888.434 210.139 891.027 Q209.561 891.698 206.459 894.916 Q203.357 898.11 197.709 903.874 Z" fill="#000000" fill-rule="evenodd" fill-opacity="1" /><path clip-path="url(#clip490)" d="M127.339 629.473 Q123.728 629.473 121.899 633.038 Q120.093 636.58 120.093 643.709 Q120.093 650.816 121.899 654.381 Q123.728 657.922 127.339 657.922 Q130.973 657.922 132.779 654.381 Q134.607 650.816 134.607 643.709 Q134.607 636.58 132.779 633.038 Q130.973 629.473 127.339 629.473 M127.339 625.77 Q133.149 625.77 136.204 630.376 Q139.283 634.959 139.283 643.709 Q139.283 652.436 136.204 657.043 Q133.149 661.626 127.339 661.626 Q121.529 661.626 118.45 657.043 Q115.394 652.436 115.394 643.709 Q115.394 634.959 118.45 630.376 Q121.529 625.77 127.339 625.77 Z" fill="#000000" fill-rule="evenodd" fill-opacity="1" /><path clip-path="url(#clip490)" d="M147.501 655.075 L152.385 655.075 L152.385 660.955 L147.501 660.955 L147.501 655.075 Z" fill="#000000" fill-rule="evenodd" fill-opacity="1" /><path clip-path="url(#clip490)" d="M172.57 629.473 Q168.959 629.473 167.13 633.038 Q165.325 636.58 165.325 643.709 Q165.325 650.816 167.13 654.381 Q168.959 657.922 172.57 657.922 Q176.204 657.922 178.01 654.381 Q179.839 650.816 179.839 643.709 Q179.839 636.58 178.01 633.038 Q176.204 629.473 172.57 629.473 M172.57 625.77 Q178.38 625.77 181.436 630.376 Q184.514 634.959 184.514 643.709 Q184.514 652.436 181.436 657.043 Q178.38 661.626 172.57 661.626 Q166.76 661.626 163.681 657.043 Q160.626 652.436 160.626 643.709 Q160.626 634.959 163.681 630.376 Q166.76 625.77 172.57 625.77 Z" fill="#000000" fill-rule="evenodd" fill-opacity="1" /><path clip-path="url(#clip490)" d="M206.899 642.32 Q210.255 643.038 212.13 645.306 Q214.028 647.575 214.028 650.908 Q214.028 656.024 210.51 658.825 Q206.991 661.626 200.51 661.626 Q198.334 661.626 196.019 661.186 Q193.727 660.769 191.274 659.913 L191.274 655.399 Q193.218 656.533 195.533 657.112 Q197.848 657.691 200.371 657.691 Q204.769 657.691 207.061 655.955 Q209.375 654.218 209.375 650.908 Q209.375 647.853 207.223 646.14 Q205.093 644.404 201.274 644.404 L197.246 644.404 L197.246 640.561 L201.459 640.561 Q204.908 640.561 206.737 639.195 Q208.565 637.807 208.565 635.214 Q208.565 632.552 206.667 631.14 Q204.792 629.705 201.274 629.705 Q199.352 629.705 197.153 630.121 Q194.954 630.538 192.315 631.418 L192.315 627.251 Q194.977 626.51 197.292 626.14 Q199.63 625.77 201.69 625.77 Q207.014 625.77 210.116 628.2 Q213.218 630.607 213.218 634.728 Q213.218 637.598 211.574 639.589 Q209.931 641.557 206.899 642.32 Z" fill="#000000" fill-rule="evenodd" fill-opacity="1" /><path clip-path="url(#clip490)" d="M126.205 382.619 Q122.593 382.619 120.765 386.183 Q118.959 389.725 118.959 396.855 Q118.959 403.961 120.765 407.526 Q122.593 411.068 126.205 411.068 Q129.839 411.068 131.644 407.526 Q133.473 403.961 133.473 396.855 Q133.473 389.725 131.644 386.183 Q129.839 382.619 126.205 382.619 M126.205 378.915 Q132.015 378.915 135.07 383.521 Q138.149 388.105 138.149 396.855 Q138.149 405.582 135.07 410.188 Q132.015 414.771 126.205 414.771 Q120.394 414.771 117.316 410.188 Q114.26 405.582 114.26 396.855 Q114.26 388.105 117.316 383.521 Q120.394 378.915 126.205 378.915 Z" fill="#000000" fill-rule="evenodd" fill-opacity="1" /><path clip-path="url(#clip490)" d="M146.366 408.22 L151.251 408.22 L151.251 414.1 L146.366 414.1 L146.366 408.22 Z" fill="#000000" fill-rule="evenodd" fill-opacity="1" /><path clip-path="url(#clip490)" d="M171.436 382.619 Q167.825 382.619 165.996 386.183 Q164.19 389.725 164.19 396.855 Q164.19 403.961 165.996 407.526 Q167.825 411.068 171.436 411.068 Q175.07 411.068 176.876 407.526 Q178.704 403.961 178.704 396.855 Q178.704 389.725 176.876 386.183 Q175.07 382.619 171.436 382.619 M171.436 378.915 Q177.246 378.915 180.301 383.521 Q183.38 388.105 183.38 396.855 Q183.38 405.582 180.301 410.188 Q177.246 414.771 171.436 414.771 Q165.626 414.771 162.547 410.188 Q159.491 405.582 159.491 396.855 Q159.491 388.105 162.547 383.521 Q165.626 378.915 171.436 378.915 Z" fill="#000000" fill-rule="evenodd" fill-opacity="1" /><path clip-path="url(#clip490)" d="M204.445 383.614 L192.639 402.063 L204.445 402.063 L204.445 383.614 M203.218 379.54 L209.098 379.54 L209.098 402.063 L214.028 402.063 L214.028 405.952 L209.098 405.952 L209.098 414.1 L204.445 414.1 L204.445 405.952 L188.843 405.952 L188.843 401.438 L203.218 379.54 Z" fill="#000000" fill-rule="evenodd" fill-opacity="1" /><path clip-path="url(#clip490)" d="M127.686 135.764 Q124.075 135.764 122.246 139.329 Q120.441 142.871 120.441 150 Q120.441 157.107 122.246 160.671 Q124.075 164.213 127.686 164.213 Q131.32 164.213 133.126 160.671 Q134.954 157.107 134.954 150 Q134.954 142.871 133.126 139.329 Q131.32 135.764 127.686 135.764 M127.686 132.06 Q133.496 132.06 136.552 136.667 Q139.63 141.25 139.63 150 Q139.63 158.727 136.552 163.333 Q133.496 167.917 127.686 167.917 Q121.876 167.917 118.797 163.333 Q115.742 158.727 115.742 150 Q115.742 141.25 118.797 136.667 Q121.876 132.06 127.686 132.06 Z" fill="#000000" fill-rule="evenodd" fill-opacity="1" /><path clip-path="url(#clip490)" d="M147.848 161.366 L152.732 161.366 L152.732 167.245 L147.848 167.245 L147.848 161.366 Z" fill="#000000" fill-rule="evenodd" fill-opacity="1" /><path clip-path="url(#clip490)" d="M172.917 135.764 Q169.306 135.764 167.477 139.329 Q165.672 142.871 165.672 150 Q165.672 157.107 167.477 160.671 Q169.306 164.213 172.917 164.213 Q176.551 164.213 178.357 160.671 Q180.186 157.107 180.186 150 Q180.186 142.871 178.357 139.329 Q176.551 135.764 172.917 135.764 M172.917 132.06 Q178.727 132.06 181.783 136.667 Q184.862 141.25 184.862 150 Q184.862 158.727 181.783 163.333 Q178.727 167.917 172.917 167.917 Q167.107 167.917 164.028 163.333 Q160.973 158.727 160.973 150 Q160.973 141.25 164.028 136.667 Q167.107 132.06 172.917 132.06 Z" fill="#000000" fill-rule="evenodd" fill-opacity="1" /><path clip-path="url(#clip490)" d="M193.125 132.685 L211.482 132.685 L211.482 136.621 L197.408 136.621 L197.408 145.093 Q198.426 144.746 199.445 144.583 Q200.463 144.398 201.482 144.398 Q207.269 144.398 210.649 147.57 Q214.028 150.741 214.028 156.158 Q214.028 161.736 210.556 164.838 Q207.084 167.917 200.764 167.917 Q198.588 167.917 196.32 167.546 Q194.075 167.176 191.667 166.435 L191.667 161.736 Q193.75 162.87 195.973 163.426 Q198.195 163.982 200.672 163.982 Q204.676 163.982 207.014 161.875 Q209.352 159.769 209.352 156.158 Q209.352 152.546 207.014 150.44 Q204.676 148.333 200.672 148.333 Q198.797 148.333 196.922 148.75 Q195.07 149.167 193.125 150.046 L193.125 132.685 Z" fill="#000000" fill-rule="evenodd" fill-opacity="1" /><path clip-path="url(#clip490)" d="M16.4842 1267.99 L16.4842 1237.94 L21.895 1237.94 L21.895 1261.56 L35.9632 1261.56 L35.9632 1238.93 L41.3741 1238.93 L41.3741 1261.56 L58.5933 1261.56 L58.5933 1237.37 L64.0042 1237.37 L64.0042 1267.99 L16.4842 1267.99 Z" fill="#000000" fill-rule="evenodd" fill-opacity="1" /><path clip-path="url(#clip490)" d="M35.1993 1199.3 Q31.2526 1197.11 29.3747 1194.05 Q27.4968 1191 27.4968 1186.86 Q27.4968 1181.29 31.4117 1178.27 Q35.2948 1175.24 42.4881 1175.24 L64.0042 1175.24 L64.0042 1181.13 L42.679 1181.13 Q37.5546 1181.13 35.072 1182.94 Q32.5894 1184.76 32.5894 1188.48 Q32.5894 1193.03 35.6131 1195.68 Q38.6368 1198.32 43.8567 1198.32 L64.0042 1198.32 L64.0042 1204.21 L42.679 1204.21 Q37.5228 1204.21 35.072 1206.02 Q32.5894 1207.83 32.5894 1211.62 Q32.5894 1216.11 35.6449 1218.75 Q38.6686 1221.39 43.8567 1221.39 L64.0042 1221.39 L64.0042 1227.28 L28.3562 1227.28 L28.3562 1221.39 L33.8944 1221.39 Q30.616 1219.39 29.0564 1216.59 Q27.4968 1213.79 27.4968 1209.93 Q27.4968 1206.05 29.4702 1203.35 Q31.4436 1200.61 35.1993 1199.3 Z" fill="#000000" fill-rule="evenodd" fill-opacity="1" /><path clip-path="url(#clip490)" d="M28.3562 1163.56 L28.3562 1157.7 L64.0042 1157.7 L64.0042 1163.56 L28.3562 1163.56 M14.479 1163.56 L14.479 1157.7 L21.895 1157.7 L21.895 1163.56 L14.479 1163.56 Z" fill="#000000" fill-rule="evenodd" fill-opacity="1" /><path clip-path="url(#clip490)" d="M29.4065 1122.72 L34.9447 1122.72 Q33.6716 1125.21 33.035 1127.88 Q32.3984 1130.55 32.3984 1133.42 Q32.3984 1137.78 33.7352 1139.98 Q35.072 1142.14 37.7456 1142.14 Q39.7826 1142.14 40.9603 1140.58 Q42.1061 1139.02 43.1565 1134.31 L43.6021 1132.3 Q44.9389 1126.07 47.3897 1123.46 Q49.8086 1120.81 54.1691 1120.81 Q59.1344 1120.81 62.0308 1124.76 Q64.9272 1128.68 64.9272 1135.55 Q64.9272 1138.42 64.3543 1141.54 Q63.8132 1144.62 62.6992 1148.06 L56.6518 1148.06 Q58.3387 1144.81 59.198 1141.66 Q60.0256 1138.51 60.0256 1135.42 Q60.0256 1131.29 58.6251 1129.06 Q57.1929 1126.83 54.6147 1126.83 Q52.2276 1126.83 50.9545 1128.45 Q49.6813 1130.04 48.5037 1135.49 L48.0262 1137.52 Q46.8804 1142.97 44.5251 1145.39 Q42.138 1147.81 38.0002 1147.81 Q32.9713 1147.81 30.2341 1144.24 Q27.4968 1140.68 27.4968 1134.12 Q27.4968 1130.87 27.9743 1128.01 Q28.4517 1125.14 29.4065 1122.72 Z" fill="#000000" fill-rule="evenodd" fill-opacity="1" /><path clip-path="url(#clip490)" d="M29.4065 1088.76 L34.9447 1088.76 Q33.6716 1091.25 33.035 1093.92 Q32.3984 1096.59 32.3984 1099.46 Q32.3984 1103.82 33.7352 1106.01 Q35.072 1108.18 37.7456 1108.18 Q39.7826 1108.18 40.9603 1106.62 Q42.1061 1105.06 43.1565 1100.35 L43.6021 1098.34 Q44.9389 1092.11 47.3897 1089.5 Q49.8086 1086.85 54.1691 1086.85 Q59.1344 1086.85 62.0308 1090.8 Q64.9272 1094.72 64.9272 1101.59 Q64.9272 1104.45 64.3543 1107.57 Q63.8132 1110.66 62.6992 1114.1 L56.6518 1114.1 Q58.3387 1110.85 59.198 1107.7 Q60.0256 1104.55 60.0256 1101.46 Q60.0256 1097.33 58.6251 1095.1 Q57.1929 1092.87 54.6147 1092.87 Q52.2276 1092.87 50.9545 1094.49 Q49.6813 1096.08 48.5037 1101.53 L48.0262 1103.56 Q46.8804 1109.01 44.5251 1111.43 Q42.138 1113.84 38.0002 1113.84 Q32.9713 1113.84 30.2341 1110.28 Q27.4968 1106.71 27.4968 1100.16 Q27.4968 1096.91 27.9743 1094.05 Q28.4517 1091.18 29.4065 1088.76 Z" fill="#000000" fill-rule="evenodd" fill-opacity="1" /><path clip-path="url(#clip490)" d="M28.3562 1077.53 L28.3562 1071.67 L64.0042 1071.67 L64.0042 1077.53 L28.3562 1077.53 M14.479 1077.53 L14.479 1071.67 L21.895 1071.67 L21.895 1077.53 L14.479 1077.53 Z" fill="#000000" fill-rule="evenodd" fill-opacity="1" /><path clip-path="url(#clip490)" d="M32.4621 1045.6 Q32.4621 1050.31 36.1542 1053.05 Q39.8145 1055.79 46.212 1055.79 Q52.6095 1055.79 56.3017 1053.08 Q59.9619 1050.35 59.9619 1045.6 Q59.9619 1040.93 56.2698 1038.19 Q52.5777 1035.45 46.212 1035.45 Q39.8781 1035.45 36.186 1038.19 Q32.4621 1040.93 32.4621 1045.6 M27.4968 1045.6 Q27.4968 1037.96 32.4621 1033.6 Q37.4273 1029.24 46.212 1029.24 Q54.9649 1029.24 59.9619 1033.6 Q64.9272 1037.96 64.9272 1045.6 Q64.9272 1053.27 59.9619 1057.64 Q54.9649 1061.96 46.212 1061.96 Q37.4273 1061.96 32.4621 1057.64 Q27.4968 1053.27 27.4968 1045.6 Z" fill="#000000" fill-rule="evenodd" fill-opacity="1" /><path clip-path="url(#clip490)" d="M42.4881 989.904 L64.0042 989.904 L64.0042 995.76 L42.679 995.76 Q37.6183 995.76 35.1038 997.734 Q32.5894 999.707 32.5894 1003.65 Q32.5894 1008.4 35.6131 1011.13 Q38.6368 1013.87 43.8567 1013.87 L64.0042 1013.87 L64.0042 1019.76 L28.3562 1019.76 L28.3562 1013.87 L33.8944 1013.87 Q30.6797 1011.77 29.0883 1008.94 Q27.4968 1006.07 27.4968 1002.35 Q27.4968 996.206 31.3163 993.055 Q35.1038 989.904 42.4881 989.904 Z" fill="#000000" fill-rule="evenodd" fill-opacity="1" /><path clip-path="url(#clip490)" d="M29.4065 955.497 L34.9447 955.497 Q33.6716 957.98 33.035 960.653 Q32.3984 963.327 32.3984 966.192 Q32.3984 970.552 33.7352 972.748 Q35.072 974.913 37.7456 974.913 Q39.7826 974.913 40.9603 973.353 Q42.1061 971.793 43.1565 967.083 L43.6021 965.078 Q44.9389 958.839 47.3897 956.229 Q49.8086 953.588 54.1691 953.588 Q59.1344 953.588 62.0308 957.534 Q64.9272 961.449 64.9272 968.324 Q64.9272 971.189 64.3543 974.308 Q63.8132 977.395 62.6992 980.833 L56.6518 980.833 Q58.3387 977.586 59.198 974.435 Q60.0256 971.284 60.0256 968.197 Q60.0256 964.059 58.6251 961.831 Q57.1929 959.603 54.6147 959.603 Q52.2276 959.603 50.9545 961.226 Q49.6813 962.818 48.5037 968.26 L48.0262 970.298 Q46.8804 975.74 44.5251 978.159 Q42.138 980.578 38.0002 980.578 Q32.9713 980.578 30.2341 977.013 Q27.4968 973.449 27.4968 966.892 Q27.4968 963.645 27.9743 960.781 Q28.4517 957.916 29.4065 955.497 Z" fill="#000000" fill-rule="evenodd" fill-opacity="1" /><path clip-path="url(#clip490)" d="M16.4842 923.287 L16.4842 916.857 L64.0042 916.857 L64.0042 923.287 L16.4842 923.287 Z" fill="#000000" fill-rule="evenodd" fill-opacity="1" /><path clip-path="url(#clip490)" d="M42.4881 874.685 L64.0042 874.685 L64.0042 880.541 L42.679 880.541 Q37.6183 880.541 35.1038 882.514 Q32.5894 884.488 32.5894 888.435 Q32.5894 893.177 35.6131 895.914 Q38.6368 898.651 43.8567 898.651 L64.0042 898.651 L64.0042 904.54 L28.3562 904.54 L28.3562 898.651 L33.8944 898.651 Q30.6797 896.551 29.0883 893.718 Q27.4968 890.853 27.4968 887.13 Q27.4968 880.987 31.3163 877.836 Q35.1038 874.685 42.4881 874.685 Z" fill="#000000" fill-rule="evenodd" fill-opacity="1" /><path clip-path="url(#clip490)" d="M18.2347 857.211 L28.3562 857.211 L28.3562 845.148 L32.9077 845.148 L32.9077 857.211 L52.2594 857.211 Q56.6199 857.211 57.8613 856.033 Q59.1026 854.824 59.1026 851.163 L59.1026 845.148 L64.0042 845.148 L64.0042 851.163 Q64.0042 857.943 61.4897 860.521 Q58.9434 863.099 52.2594 863.099 L32.9077 863.099 L32.9077 867.396 L28.3562 867.396 L28.3562 863.099 L18.2347 863.099 L18.2347 857.211 Z" fill="#000000" fill-rule="evenodd" fill-opacity="1" /><path clip-path="url(#clip490)" d="M44.7161 806.953 L47.5806 806.953 L47.5806 833.88 Q53.6281 833.498 56.8109 830.252 Q59.9619 826.974 59.9619 821.149 Q59.9619 817.775 59.1344 814.624 Q58.3069 811.441 56.6518 808.322 L62.1899 808.322 Q63.5267 811.473 64.227 814.783 Q64.9272 818.093 64.9272 821.499 Q64.9272 830.029 59.9619 835.026 Q54.9967 839.991 46.5303 839.991 Q37.7774 839.991 32.6531 835.281 Q27.4968 830.538 27.4968 822.518 Q27.4968 815.324 32.1438 811.155 Q36.7589 806.953 44.7161 806.953 M42.9973 812.81 Q38.1912 812.874 35.3266 815.515 Q32.4621 818.125 32.4621 822.454 Q32.4621 827.356 35.2312 830.316 Q38.0002 833.244 43.0292 833.689 L42.9973 812.81 Z" fill="#000000" fill-rule="evenodd" fill-opacity="1" /><path clip-path="url(#clip490)" d="M42.4881 767.709 L64.0042 767.709 L64.0042 773.565 L42.679 773.565 Q37.6183 773.565 35.1038 775.539 Q32.5894 777.512 32.5894 781.459 Q32.5894 786.201 35.6131 788.939 Q38.6368 791.676 43.8567 791.676 L64.0042 791.676 L64.0042 797.564 L28.3562 797.564 L28.3562 791.676 L33.8944 791.676 Q30.6797 789.575 29.0883 786.742 Q27.4968 783.878 27.4968 780.154 Q27.4968 774.011 31.3163 770.86 Q35.1038 767.709 42.4881 767.709 Z" fill="#000000" fill-rule="evenodd" fill-opacity="1" /><path clip-path="url(#clip490)" d="M29.4065 733.302 L34.9447 733.302 Q33.6716 735.785 33.035 738.458 Q32.3984 741.132 32.3984 743.997 Q32.3984 748.357 33.7352 750.553 Q35.072 752.718 37.7456 752.718 Q39.7826 752.718 40.9603 751.158 Q42.1061 749.598 43.1565 744.888 L43.6021 742.883 Q44.9389 736.644 47.3897 734.034 Q49.8086 731.393 54.1691 731.393 Q59.1344 731.393 62.0308 735.339 Q64.9272 739.254 64.9272 746.129 Q64.9272 748.994 64.3543 752.113 Q63.8132 755.2 62.6992 758.638 L56.6518 758.638 Q58.3387 755.391 59.198 752.24 Q60.0256 749.089 60.0256 746.002 Q60.0256 741.864 58.6251 739.636 Q57.1929 737.408 54.6147 737.408 Q52.2276 737.408 50.9545 739.031 Q49.6813 740.623 48.5037 746.065 L48.0262 748.103 Q46.8804 753.545 44.5251 755.964 Q42.138 758.383 38.0002 758.383 Q32.9713 758.383 30.2341 754.818 Q27.4968 751.254 27.4968 744.697 Q27.4968 741.45 27.9743 738.586 Q28.4517 735.721 29.4065 733.302 Z" fill="#000000" fill-rule="evenodd" fill-opacity="1" /><path clip-path="url(#clip490)" d="M28.3562 722.067 L28.3562 716.21 L64.0042 716.21 L64.0042 722.067 L28.3562 722.067 M14.479 722.067 L14.479 716.21 L21.895 716.21 L21.895 722.067 L14.479 722.067 Z" fill="#000000" fill-rule="evenodd" fill-opacity="1" /><path clip-path="url(#clip490)" d="M18.2347 698.164 L28.3562 698.164 L28.3562 686.101 L32.9077 686.101 L32.9077 698.164 L52.2594 698.164 Q56.6199 698.164 57.8613 696.986 Q59.1026 695.776 59.1026 692.116 L59.1026 686.101 L64.0042 686.101 L64.0042 692.116 Q64.0042 698.896 61.4897 701.474 Q58.9434 704.052 52.2594 704.052 L32.9077 704.052 L32.9077 708.349 L28.3562 708.349 L28.3562 704.052 L18.2347 704.052 L18.2347 698.164 Z" fill="#000000" fill-rule="evenodd" fill-opacity="1" /><path clip-path="url(#clip490)" d="M67.3143 663.566 Q73.68 666.049 75.6216 668.404 Q77.5631 670.759 77.5631 674.706 L77.5631 679.385 L72.6615 679.385 L72.6615 675.947 Q72.6615 673.528 71.5157 672.191 Q70.3699 670.855 66.1048 669.231 L63.4312 668.181 L28.3562 682.599 L28.3562 676.393 L56.238 665.253 L28.3562 654.113 L28.3562 647.906 L67.3143 663.566 Z" fill="#000000" fill-rule="evenodd" fill-opacity="1" /><path clip-path="url(#clip490)" d="M55.9197 638.326 L55.9197 631.61 L61.3942 631.61 L71.5793 636.83 L71.5793 640.936 L61.3942 638.326 L55.9197 638.326 Z" fill="#000000" fill-rule="evenodd" fill-opacity="1" /><path clip-path="url(#clip490)" d="M16.4842 598.126 L16.4842 568.08 L21.895 568.08 L21.895 591.697 L35.9632 591.697 L35.9632 569.067 L41.3741 569.067 L41.3741 591.697 L58.5933 591.697 L58.5933 567.507 L64.0042 567.507 L64.0042 598.126 L16.4842 598.126 Z" fill="#000000" fill-rule="evenodd" fill-opacity="1" /><path clip-path="url(#clip490)" d="M14.5426 522.406 Q21.8632 526.671 29.0246 528.74 Q36.186 530.809 43.5384 530.809 Q50.8908 530.809 58.1159 528.74 Q65.3091 526.64 72.5979 522.406 L72.5979 527.499 Q65.1182 532.273 57.8931 534.66 Q50.668 537.016 43.5384 537.016 Q36.4406 537.016 29.2474 534.66 Q22.0542 532.305 14.5426 527.499 L14.5426 522.406 Z" fill="#000000" fill-rule="evenodd" fill-opacity="1" /><path clip-path="url(#clip490)" d="M14.479 511.266 L14.479 505.378 L43.7294 505.378 L28.3562 487.904 L28.3562 480.425 L45.0344 499.331 L64.0042 479.629 L64.0042 487.268 L46.5939 505.378 L64.0042 505.378 L64.0042 511.266 L14.479 511.266 Z" fill="#000000" fill-rule="evenodd" fill-opacity="1" /><path clip-path="url(#clip490)" d="M45.7664 449.837 Q39.4007 449.837 35.8996 452.479 Q32.3984 455.089 32.3984 459.831 Q32.3984 464.542 35.8996 467.184 Q39.4007 469.794 45.7664 469.794 Q52.1003 469.794 55.6014 467.184 Q59.1026 464.542 59.1026 459.831 Q59.1026 455.089 55.6014 452.479 Q52.1003 449.837 45.7664 449.837 M59.58 443.981 Q68.683 443.981 73.1071 448.023 Q77.5631 452.065 77.5631 460.404 Q77.5631 463.492 77.0857 466.229 Q76.6401 468.966 75.6852 471.544 L69.9879 471.544 Q71.3884 468.966 72.0568 466.452 Q72.7252 463.937 72.7252 461.327 Q72.7252 455.566 69.7015 452.702 Q66.7096 449.837 60.6303 449.837 L57.7339 449.837 Q60.885 451.652 62.4446 454.484 Q64.0042 457.317 64.0042 461.264 Q64.0042 467.82 59.0071 471.831 Q54.01 475.841 45.7664 475.841 Q37.491 475.841 32.4939 471.831 Q27.4968 467.82 27.4968 461.264 Q27.4968 457.317 29.0564 454.484 Q30.616 451.652 33.7671 449.837 L28.3562 449.837 L28.3562 443.981 L59.58 443.981 Z" fill="#000000" fill-rule="evenodd" fill-opacity="1" /><path clip-path="url(#clip490)" d="M16.4842 410.943 L16.4842 401.362 L48.8219 389.236 L16.4842 377.045 L16.4842 367.465 L64.0042 367.465 L64.0042 373.735 L22.277 373.735 L54.8694 385.989 L54.8694 392.45 L22.277 404.704 L64.0042 404.704 L64.0042 410.943 L16.4842 410.943 Z" fill="#000000" fill-rule="evenodd" fill-opacity="1" /><path clip-path="url(#clip490)" d="M16.4842 354.702 L16.4842 348.272 L60.694 348.272 Q69.2877 348.272 73.1708 351.551 Q77.0539 354.797 77.0539 362.022 L77.0539 364.473 L71.643 364.473 L71.643 362.468 Q71.643 358.203 69.2559 356.452 Q66.8687 354.702 60.694 354.702 L16.4842 354.702 Z" fill="#000000" fill-rule="evenodd" fill-opacity="1" /><path clip-path="url(#clip490)" d="M16.4842 311.447 L34.2127 294.164 L34.2127 300.562 L21.6404 314.566 L34.2127 328.571 L34.2127 334.968 L16.4842 317.685 L16.4842 311.447 Z" fill="#000000" fill-rule="evenodd" fill-opacity="1" /><path clip-path="url(#clip490)" d="M43.5384 284.074 L43.5384 266.919 L48.7583 266.919 L48.7583 284.074 L43.5384 284.074 Z" fill="#000000" fill-rule="evenodd" fill-opacity="1" /><path clip-path="url(#clip490)" d="M58.5933 255.651 L58.5933 245.148 L22.3406 245.148 L24.6323 256.574 L18.7758 256.574 L16.4842 245.212 L16.4842 238.782 L58.5933 238.782 L58.5933 228.279 L64.0042 228.279 L64.0042 255.651 L58.5933 255.651 Z" fill="#000000" fill-rule="evenodd" fill-opacity="1" /><path clip-path="url(#clip490)" d="M14.5426 217.043 L14.5426 211.951 Q22.0542 207.177 29.2474 204.821 Q36.4406 202.434 43.5384 202.434 Q50.668 202.434 57.8931 204.821 Q65.1182 207.177 72.5979 211.951 L72.5979 217.043 Q65.3091 212.81 58.1159 210.741 Q50.8908 208.641 43.5384 208.641 Q36.186 208.641 29.0246 210.741 Q21.8632 212.81 14.5426 217.043 Z" fill="#000000" fill-rule="evenodd" fill-opacity="1" /><polyline clip-path="url(#clip492)" style="stroke:#023eff; stroke-linecap:round; stroke-linejoin:round; stroke-width:4; stroke-opacity:1; fill:none" points="
  309.539,86.1857 329.577,90.7012 349.614,95.2775 369.652,99.9159 389.689,104.618 409.726,109.384 429.764,114.216 449.801,119.116 469.839,124.085 489.876,129.123 
  509.914,134.234 529.951,139.417 549.988,144.676 570.026,150.011 590.063,155.424 610.101,160.918 630.138,166.493 650.176,172.151 670.213,177.895 690.25,183.726 
  710.288,189.647 730.325,195.659 750.363,201.764 770.4,207.966 790.438,214.265 810.475,220.665 830.512,227.168 850.55,233.776 870.587,240.492 890.625,247.318 
  910.662,254.258 930.7,261.314 950.737,268.489 970.774,275.787 990.812,283.209 1010.85,290.76 1030.89,298.444 1050.92,306.262 1070.96,314.219 1091,322.32 
  1111.04,330.567 1131.07,338.964 1151.11,347.517 1171.15,356.228 1191.19,365.103 1211.22,374.147 1231.26,383.363 1251.3,392.758 1271.34,402.336 1291.37,412.103 
  1311.41,422.064 1331.45,432.225 1351.49,442.593 1371.52,453.174 1391.56,463.974 1411.6,475 1431.64,486.259 1451.67,497.76 1471.71,509.509 1491.75,521.515 
  1511.79,533.786 1531.82,546.332 1551.86,559.161 1571.9,572.284 1591.93,585.71 1611.97,599.45 1632.01,613.515 1652.05,627.918 1672.08,642.67 1692.12,657.783 
  1712.16,673.273 1732.2,689.152 1752.23,705.436 1772.27,722.14 1792.31,739.281 1812.35,756.876 1832.38,774.944 1852.42,793.504 1872.46,812.575 1892.5,832.18 
  1912.53,852.342 1932.57,873.084 1952.61,894.432 1972.65,916.412 1992.68,939.054 2012.72,962.387 2032.76,986.444 2052.8,1011.26 2072.83,1036.87 2092.87,1063.31 
  2112.91,1090.63 2132.95,1118.86 2152.98,1148.06 2173.02,1178.28 2193.06,1209.57 2213.1,1241.98 2233.13,1275.59 2253.17,1310.45 2273.21,1346.64 2293.24,1384.24 
  
  "/>
</svg>
