<?xml version="1.0" encoding="utf-8"?>
<svg xmlns="http://www.w3.org/2000/svg" xmlns:xlink="http://www.w3.org/1999/xlink" width="600" height="400" viewBox="0 0 2400 1600">
<defs>
  <clipPath id="clip140">
    <rect x="0" y="0" width="2400" height="1600"/>
  </clipPath>
</defs>
<path clip-path="url(#clip140)" d="M0 1600 L2400 1600 L2400 0 L0 0  Z" fill="#ffffff" fill-rule="evenodd" fill-opacity="1"/>
<defs>
  <clipPath id="clip141">
    <rect x="480" y="0" width="1681" height="1600"/>
  </clipPath>
</defs>
<path clip-path="url(#clip140)" d="M234.125 1423.18 L2352.76 1423.18 L2352.76 47.2441 L234.125 47.2441  Z" fill="#ffffff" fill-rule="evenodd" fill-opacity="1"/>
<defs>
  <clipPath id="clip142">
    <rect x="234" y="47" width="2120" height="1377"/>
  </clipPath>
</defs>
<polyline clip-path="url(#clip142)" style="stroke:#000000; stroke-linecap:round; stroke-linejoin:round; stroke-width:2; stroke-opacity:0.1; fill:none" points="294.087,1423.18 294.087,47.2441 "/>
<polyline clip-path="url(#clip142)" style="stroke:#000000; stroke-linecap:round; stroke-linejoin:round; stroke-width:2; stroke-opacity:0.1; fill:none" points="759.198,1423.18 759.198,47.2441 "/>
<polyline clip-path="url(#clip142)" style="stroke:#000000; stroke-linecap:round; stroke-linejoin:round; stroke-width:2; stroke-opacity:0.1; fill:none" points="1224.31,1423.18 1224.31,47.2441 "/>
<polyline clip-path="url(#clip142)" style="stroke:#000000; stroke-linecap:round; stroke-linejoin:round; stroke-width:2; stroke-opacity:0.1; fill:none" points="1689.42,1423.18 1689.42,47.2441 "/>
<polyline clip-path="url(#clip142)" style="stroke:#000000; stroke-linecap:round; stroke-linejoin:round; stroke-width:2; stroke-opacity:0.1; fill:none" points="2154.53,1423.18 2154.53,47.2441 "/>
<polyline clip-path="url(#clip142)" style="stroke:#000000; stroke-linecap:round; stroke-linejoin:round; stroke-width:2; stroke-opacity:0.1; fill:none" points="234.125,1421.75 2352.76,1421.75 "/>
<polyline clip-path="url(#clip142)" style="stroke:#000000; stroke-linecap:round; stroke-linejoin:round; stroke-width:2; stroke-opacity:0.1; fill:none" points="234.125,1141.34 2352.76,1141.34 "/>
<polyline clip-path="url(#clip142)" style="stroke:#000000; stroke-linecap:round; stroke-linejoin:round; stroke-width:2; stroke-opacity:0.1; fill:none" points="234.125,860.94 2352.76,860.94 "/>
<polyline clip-path="url(#clip142)" style="stroke:#000000; stroke-linecap:round; stroke-linejoin:round; stroke-width:2; stroke-opacity:0.1; fill:none" points="234.125,580.537 2352.76,580.537 "/>
<polyline clip-path="url(#clip142)" style="stroke:#000000; stroke-linecap:round; stroke-linejoin:round; stroke-width:2; stroke-opacity:0.1; fill:none" points="234.125,300.134 2352.76,300.134 "/>
<polyline clip-path="url(#clip140)" style="stroke:#000000; stroke-linecap:round; stroke-linejoin:round; stroke-width:4; stroke-opacity:1; fill:none" points="234.125,1423.18 2352.76,1423.18 "/>
<polyline clip-path="url(#clip140)" style="stroke:#000000; stroke-linecap:round; stroke-linejoin:round; stroke-width:4; stroke-opacity:1; fill:none" points="294.087,1423.18 294.087,1404.28 "/>
<polyline clip-path="url(#clip140)" style="stroke:#000000; stroke-linecap:round; stroke-linejoin:round; stroke-width:4; stroke-opacity:1; fill:none" points="759.198,1423.18 759.198,1404.28 "/>
<polyline clip-path="url(#clip140)" style="stroke:#000000; stroke-linecap:round; stroke-linejoin:round; stroke-width:4; stroke-opacity:1; fill:none" points="1224.31,1423.18 1224.31,1404.28 "/>
<polyline clip-path="url(#clip140)" style="stroke:#000000; stroke-linecap:round; stroke-linejoin:round; stroke-width:4; stroke-opacity:1; fill:none" points="1689.42,1423.18 1689.42,1404.28 "/>
<polyline clip-path="url(#clip140)" style="stroke:#000000; stroke-linecap:round; stroke-linejoin:round; stroke-width:4; stroke-opacity:1; fill:none" points="2154.53,1423.18 2154.53,1404.28 "/>
<path clip-path="url(#clip140)" d="M294.087 1454.1 Q290.476 1454.1 288.647 1457.66 Q286.841 1461.2 286.841 1468.33 Q286.841 1475.44 288.647 1479.01 Q290.476 1482.55 294.087 1482.55 Q297.721 1482.55 299.526 1479.01 Q301.355 1475.44 301.355 1468.33 Q301.355 1461.2 299.526 1457.66 Q297.721 1454.1 294.087 1454.1 M294.087 1450.39 Q299.897 1450.39 302.952 1455 Q306.031 1459.58 306.031 1468.33 Q306.031 1477.06 302.952 1481.67 Q299.897 1486.25 294.087 1486.25 Q288.277 1486.25 285.198 1481.67 Q282.142 1477.06 282.142 1468.33 Q282.142 1459.58 285.198 1455 Q288.277 1450.39 294.087 1450.39 Z" fill="#000000" fill-rule="nonzero" fill-opacity="1" /><path clip-path="url(#clip140)" d="M749.476 1451.02 L767.832 1451.02 L767.832 1454.96 L753.758 1454.96 L753.758 1463.43 Q754.777 1463.08 755.795 1462.92 Q756.814 1462.73 757.832 1462.73 Q763.619 1462.73 766.999 1465.9 Q770.379 1469.08 770.379 1474.49 Q770.379 1480.07 766.906 1483.17 Q763.434 1486.25 757.115 1486.25 Q754.939 1486.25 752.67 1485.88 Q750.425 1485.51 748.018 1484.77 L748.018 1480.07 Q750.101 1481.2 752.323 1481.76 Q754.545 1482.32 757.022 1482.32 Q761.027 1482.32 763.365 1480.21 Q765.703 1478.1 765.703 1474.49 Q765.703 1470.88 763.365 1468.77 Q761.027 1466.67 757.022 1466.67 Q755.147 1466.67 753.272 1467.08 Q751.42 1467.5 749.476 1468.38 L749.476 1451.02 Z" fill="#000000" fill-rule="nonzero" fill-opacity="1" /><path clip-path="url(#clip140)" d="M1199 1481.64 L1206.64 1481.64 L1206.64 1455.28 L1198.33 1456.95 L1198.33 1452.69 L1206.59 1451.02 L1211.27 1451.02 L1211.27 1481.64 L1218.9 1481.64 L1218.9 1485.58 L1199 1485.58 L1199 1481.64 Z" fill="#000000" fill-rule="nonzero" fill-opacity="1" /><path clip-path="url(#clip140)" d="M1238.35 1454.1 Q1234.74 1454.1 1232.91 1457.66 Q1231.1 1461.2 1231.1 1468.33 Q1231.1 1475.44 1232.91 1479.01 Q1234.74 1482.55 1238.35 1482.55 Q1241.98 1482.55 1243.79 1479.01 Q1245.62 1475.44 1245.62 1468.33 Q1245.62 1461.2 1243.79 1457.66 Q1241.98 1454.1 1238.35 1454.1 M1238.35 1450.39 Q1244.16 1450.39 1247.21 1455 Q1250.29 1459.58 1250.29 1468.33 Q1250.29 1477.06 1247.21 1481.67 Q1244.16 1486.25 1238.35 1486.25 Q1232.54 1486.25 1229.46 1481.67 Q1226.4 1477.06 1226.4 1468.33 Q1226.4 1459.58 1229.46 1455 Q1232.54 1450.39 1238.35 1450.39 Z" fill="#000000" fill-rule="nonzero" fill-opacity="1" /><path clip-path="url(#clip140)" d="M1664.61 1481.64 L1672.25 1481.64 L1672.25 1455.28 L1663.93 1456.95 L1663.93 1452.69 L1672.2 1451.02 L1676.87 1451.02 L1676.87 1481.64 L1684.51 1481.64 L1684.51 1485.58 L1664.61 1485.58 L1664.61 1481.64 Z" fill="#000000" fill-rule="nonzero" fill-opacity="1" /><path clip-path="url(#clip140)" d="M1694 1451.02 L1712.36 1451.02 L1712.36 1454.96 L1698.29 1454.96 L1698.29 1463.43 Q1699.31 1463.08 1700.32 1462.92 Q1701.34 1462.73 1702.36 1462.73 Q1708.15 1462.73 1711.53 1465.9 Q1714.91 1469.08 1714.91 1474.49 Q1714.91 1480.07 1711.43 1483.17 Q1707.96 1486.25 1701.64 1486.25 Q1699.47 1486.25 1697.2 1485.88 Q1694.95 1485.51 1692.55 1484.77 L1692.55 1480.07 Q1694.63 1481.2 1696.85 1481.76 Q1699.07 1482.32 1701.55 1482.32 Q1705.56 1482.32 1707.89 1480.21 Q1710.23 1478.1 1710.23 1474.49 Q1710.23 1470.88 1707.89 1468.77 Q1705.56 1466.67 1701.55 1466.67 Q1699.68 1466.67 1697.8 1467.08 Q1695.95 1467.5 1694 1468.38 L1694 1451.02 Z" fill="#000000" fill-rule="nonzero" fill-opacity="1" /><path clip-path="url(#clip140)" d="M2133.31 1481.64 L2149.62 1481.64 L2149.62 1485.58 L2127.68 1485.58 L2127.68 1481.64 Q2130.34 1478.89 2134.93 1474.26 Q2139.53 1469.61 2140.71 1468.27 Q2142.96 1465.74 2143.84 1464.01 Q2144.74 1462.25 2144.74 1460.56 Q2144.74 1457.8 2142.8 1456.07 Q2140.87 1454.33 2137.77 1454.33 Q2135.57 1454.33 2133.12 1455.09 Q2130.69 1455.86 2127.91 1457.41 L2127.91 1452.69 Q2130.74 1451.55 2133.19 1450.97 Q2135.64 1450.39 2137.68 1450.39 Q2143.05 1450.39 2146.25 1453.08 Q2149.44 1455.77 2149.44 1460.26 Q2149.44 1462.39 2148.63 1464.31 Q2147.84 1466.2 2145.74 1468.8 Q2145.16 1469.47 2142.06 1472.69 Q2138.95 1475.88 2133.31 1481.64 Z" fill="#000000" fill-rule="nonzero" fill-opacity="1" /><path clip-path="url(#clip140)" d="M2169.44 1454.1 Q2165.83 1454.1 2164 1457.66 Q2162.19 1461.2 2162.19 1468.33 Q2162.19 1475.44 2164 1479.01 Q2165.83 1482.55 2169.44 1482.55 Q2173.07 1482.55 2174.88 1479.01 Q2176.71 1475.44 2176.71 1468.33 Q2176.71 1461.2 2174.88 1457.66 Q2173.07 1454.1 2169.44 1454.1 M2169.44 1450.39 Q2175.25 1450.39 2178.31 1455 Q2181.38 1459.58 2181.38 1468.33 Q2181.38 1477.06 2178.31 1481.67 Q2175.25 1486.25 2169.44 1486.25 Q2163.63 1486.25 2160.55 1481.67 Q2157.5 1477.06 2157.5 1468.33 Q2157.5 1459.58 2160.55 1455 Q2163.63 1450.39 2169.44 1450.39 Z" fill="#000000" fill-rule="nonzero" fill-opacity="1" /><path clip-path="url(#clip140)" d="M1177.47 1520.52 L1217.67 1520.52 L1217.67 1525.93 L1200.8 1525.93 L1200.8 1568.04 L1194.34 1568.04 L1194.34 1525.93 L1177.47 1525.93 L1177.47 1520.52 Z" fill="#000000" fill-rule="nonzero" fill-opacity="1" /><path clip-path="url(#clip140)" d="M1221.62 1532.4 L1227.48 1532.4 L1227.48 1568.04 L1221.62 1568.04 L1221.62 1532.4 M1221.62 1518.52 L1227.48 1518.52 L1227.48 1525.93 L1221.62 1525.93 L1221.62 1518.52 Z" fill="#000000" fill-rule="nonzero" fill-opacity="1" /><path clip-path="url(#clip140)" d="M1267.48 1539.24 Q1269.68 1535.29 1272.74 1533.41 Q1275.79 1531.54 1279.93 1531.54 Q1285.5 1531.54 1288.52 1535.45 Q1291.55 1539.33 1291.55 1546.53 L1291.55 1568.04 L1285.66 1568.04 L1285.66 1546.72 Q1285.66 1541.59 1283.84 1539.11 Q1282.03 1536.63 1278.31 1536.63 Q1273.75 1536.63 1271.11 1539.65 Q1268.47 1542.68 1268.47 1547.9 L1268.47 1568.04 L1262.58 1568.04 L1262.58 1546.72 Q1262.58 1541.56 1260.77 1539.11 Q1258.95 1536.63 1255.17 1536.63 Q1250.68 1536.63 1248.04 1539.68 Q1245.4 1542.71 1245.4 1547.9 L1245.4 1568.04 L1239.51 1568.04 L1239.51 1532.4 L1245.4 1532.4 L1245.4 1537.93 Q1247.4 1534.66 1250.2 1533.1 Q1253 1531.54 1256.85 1531.54 Q1260.74 1531.54 1263.44 1533.51 Q1266.18 1535.48 1267.48 1539.24 Z" fill="#000000" fill-rule="nonzero" fill-opacity="1" /><path clip-path="url(#clip140)" d="M1333.72 1548.76 L1333.72 1551.62 L1306.79 1551.62 Q1307.17 1557.67 1310.42 1560.85 Q1313.7 1564 1319.52 1564 Q1322.9 1564 1326.05 1563.17 Q1329.23 1562.35 1332.35 1560.69 L1332.35 1566.23 Q1329.2 1567.57 1325.89 1568.27 Q1322.58 1568.97 1319.17 1568.97 Q1310.64 1568.97 1305.65 1564 Q1300.68 1559.04 1300.68 1550.57 Q1300.68 1541.82 1305.39 1536.69 Q1310.13 1531.54 1318.16 1531.54 Q1325.35 1531.54 1329.52 1536.18 Q1333.72 1540.8 1333.72 1548.76 M1327.86 1547.04 Q1327.8 1542.23 1325.16 1539.37 Q1322.55 1536.5 1318.22 1536.5 Q1313.32 1536.5 1310.36 1539.27 Q1307.43 1542.04 1306.98 1547.07 L1327.86 1547.04 Z" fill="#000000" fill-rule="nonzero" fill-opacity="1" /><path clip-path="url(#clip140)" d="M1344.83 1559.96 L1351.54 1559.96 L1351.54 1565.43 L1346.32 1575.62 L1342.22 1575.62 L1344.83 1565.43 L1344.83 1559.96 Z" fill="#000000" fill-rule="nonzero" fill-opacity="1" /><path clip-path="url(#clip140)" d="M1407.5 1533.45 L1407.5 1538.98 Q1405.02 1537.71 1402.34 1537.07 Q1399.67 1536.44 1396.8 1536.44 Q1392.44 1536.44 1390.25 1537.77 Q1388.08 1539.11 1388.08 1541.79 Q1388.08 1543.82 1389.64 1545 Q1391.2 1546.15 1395.91 1547.2 L1397.92 1547.64 Q1404.16 1548.98 1406.77 1551.43 Q1409.41 1553.85 1409.41 1558.21 Q1409.41 1563.17 1405.46 1566.07 Q1401.55 1568.97 1394.67 1568.97 Q1391.81 1568.97 1388.69 1568.39 Q1385.6 1567.85 1382.16 1566.74 L1382.16 1560.69 Q1385.41 1562.38 1388.56 1563.24 Q1391.71 1564.07 1394.8 1564.07 Q1398.94 1564.07 1401.16 1562.66 Q1403.39 1561.23 1403.39 1558.65 Q1403.39 1556.27 1401.77 1554.99 Q1400.18 1553.72 1394.73 1552.54 L1392.7 1552.07 Q1387.26 1550.92 1384.84 1548.56 Q1382.42 1546.18 1382.42 1542.04 Q1382.42 1537.01 1385.98 1534.27 Q1389.55 1531.54 1396.1 1531.54 Q1399.35 1531.54 1402.21 1532.01 Q1405.08 1532.49 1407.5 1533.45 Z" fill="#000000" fill-rule="nonzero" fill-opacity="1" /><polyline clip-path="url(#clip140)" style="stroke:#000000; stroke-linecap:round; stroke-linejoin:round; stroke-width:4; stroke-opacity:1; fill:none" points="234.125,1423.18 234.125,47.2441 "/>
<polyline clip-path="url(#clip140)" style="stroke:#000000; stroke-linecap:round; stroke-linejoin:round; stroke-width:4; stroke-opacity:1; fill:none" points="234.125,1421.75 253.023,1421.75 "/>
<polyline clip-path="url(#clip140)" style="stroke:#000000; stroke-linecap:round; stroke-linejoin:round; stroke-width:4; stroke-opacity:1; fill:none" points="234.125,1141.34 253.023,1141.34 "/>
<polyline clip-path="url(#clip140)" style="stroke:#000000; stroke-linecap:round; stroke-linejoin:round; stroke-width:4; stroke-opacity:1; fill:none" points="234.125,860.94 253.023,860.94 "/>
<polyline clip-path="url(#clip140)" style="stroke:#000000; stroke-linecap:round; stroke-linejoin:round; stroke-width:4; stroke-opacity:1; fill:none" points="234.125,580.537 253.023,580.537 "/>
<polyline clip-path="url(#clip140)" style="stroke:#000000; stroke-linecap:round; stroke-linejoin:round; stroke-width:4; stroke-opacity:1; fill:none" points="234.125,300.134 253.023,300.134 "/>
<path clip-path="url(#clip140)" d="M146.066 1404.47 L164.422 1404.47 L164.422 1408.4 L150.348 1408.4 L150.348 1416.87 Q151.366 1416.53 152.385 1416.37 Q153.403 1416.18 154.422 1416.18 Q160.209 1416.18 163.589 1419.35 Q166.968 1422.52 166.968 1427.94 Q166.968 1433.52 163.496 1436.62 Q160.024 1439.7 153.704 1439.7 Q151.528 1439.7 149.26 1439.33 Q147.015 1438.96 144.607 1438.22 L144.607 1433.52 Q146.691 1434.65 148.913 1435.21 Q151.135 1435.76 153.612 1435.76 Q157.616 1435.76 159.954 1433.66 Q162.292 1431.55 162.292 1427.94 Q162.292 1424.33 159.954 1422.22 Q157.616 1420.12 153.612 1420.12 Q151.737 1420.12 149.862 1420.53 Q148.01 1420.95 146.066 1421.83 L146.066 1404.47 Z" fill="#000000" fill-rule="nonzero" fill-opacity="1" /><path clip-path="url(#clip140)" d="M186.181 1407.55 Q182.57 1407.55 180.741 1411.11 Q178.936 1414.65 178.936 1421.78 Q178.936 1428.89 180.741 1432.45 Q182.57 1435.99 186.181 1435.99 Q189.815 1435.99 191.621 1432.45 Q193.45 1428.89 193.45 1421.78 Q193.45 1414.65 191.621 1411.11 Q189.815 1407.55 186.181 1407.55 M186.181 1403.84 Q191.991 1403.84 195.047 1408.45 Q198.125 1413.03 198.125 1421.78 Q198.125 1430.51 195.047 1435.12 Q191.991 1439.7 186.181 1439.7 Q180.371 1439.7 177.292 1435.12 Q174.237 1430.51 174.237 1421.78 Q174.237 1413.03 177.292 1408.45 Q180.371 1403.84 186.181 1403.84 Z" fill="#000000" fill-rule="nonzero" fill-opacity="1" /><path clip-path="url(#clip140)" d="M116.668 1154.69 L124.306 1154.69 L124.306 1128.32 L115.996 1129.99 L115.996 1125.73 L124.26 1124.06 L128.936 1124.06 L128.936 1154.69 L136.575 1154.69 L136.575 1158.62 L116.668 1158.62 L116.668 1154.69 Z" fill="#000000" fill-rule="nonzero" fill-opacity="1" /><path clip-path="url(#clip140)" d="M156.019 1127.14 Q152.408 1127.14 150.579 1130.71 Q148.774 1134.25 148.774 1141.38 Q148.774 1148.49 150.579 1152.05 Q152.408 1155.59 156.019 1155.59 Q159.653 1155.59 161.459 1152.05 Q163.288 1148.49 163.288 1141.38 Q163.288 1134.25 161.459 1130.71 Q159.653 1127.14 156.019 1127.14 M156.019 1123.44 Q161.829 1123.44 164.885 1128.05 Q167.964 1132.63 167.964 1141.38 Q167.964 1150.11 164.885 1154.71 Q161.829 1159.3 156.019 1159.3 Q150.209 1159.3 147.13 1154.71 Q144.075 1150.11 144.075 1141.38 Q144.075 1132.63 147.13 1128.05 Q150.209 1123.44 156.019 1123.44 Z" fill="#000000" fill-rule="nonzero" fill-opacity="1" /><path clip-path="url(#clip140)" d="M186.181 1127.14 Q182.57 1127.14 180.741 1130.71 Q178.936 1134.25 178.936 1141.38 Q178.936 1148.49 180.741 1152.05 Q182.57 1155.59 186.181 1155.59 Q189.815 1155.59 191.621 1152.05 Q193.45 1148.49 193.45 1141.38 Q193.45 1134.25 191.621 1130.71 Q189.815 1127.14 186.181 1127.14 M186.181 1123.44 Q191.991 1123.44 195.047 1128.05 Q198.125 1132.63 198.125 1141.38 Q198.125 1150.11 195.047 1154.71 Q191.991 1159.3 186.181 1159.3 Q180.371 1159.3 177.292 1154.71 Q174.237 1150.11 174.237 1141.38 Q174.237 1132.63 177.292 1128.05 Q180.371 1123.44 186.181 1123.44 Z" fill="#000000" fill-rule="nonzero" fill-opacity="1" /><path clip-path="url(#clip140)" d="M116.668 874.285 L124.306 874.285 L124.306 847.92 L115.996 849.586 L115.996 845.327 L124.26 843.66 L128.936 843.66 L128.936 874.285 L136.575 874.285 L136.575 878.22 L116.668 878.22 L116.668 874.285 Z" fill="#000000" fill-rule="nonzero" fill-opacity="1" /><path clip-path="url(#clip140)" d="M146.066 843.66 L164.422 843.66 L164.422 847.596 L150.348 847.596 L150.348 856.068 Q151.366 855.721 152.385 855.558 Q153.403 855.373 154.422 855.373 Q160.209 855.373 163.589 858.545 Q166.968 861.716 166.968 867.133 Q166.968 872.711 163.496 875.813 Q160.024 878.892 153.704 878.892 Q151.528 878.892 149.26 878.521 Q147.015 878.151 144.607 877.41 L144.607 872.711 Q146.691 873.845 148.913 874.401 Q151.135 874.957 153.612 874.957 Q157.616 874.957 159.954 872.85 Q162.292 870.744 162.292 867.133 Q162.292 863.521 159.954 861.415 Q157.616 859.308 153.612 859.308 Q151.737 859.308 149.862 859.725 Q148.01 860.142 146.066 861.021 L146.066 843.66 Z" fill="#000000" fill-rule="nonzero" fill-opacity="1" /><path clip-path="url(#clip140)" d="M186.181 846.739 Q182.57 846.739 180.741 850.304 Q178.936 853.846 178.936 860.975 Q178.936 868.082 180.741 871.646 Q182.57 875.188 186.181 875.188 Q189.815 875.188 191.621 871.646 Q193.45 868.082 193.45 860.975 Q193.45 853.846 191.621 850.304 Q189.815 846.739 186.181 846.739 M186.181 843.035 Q191.991 843.035 195.047 847.642 Q198.125 852.225 198.125 860.975 Q198.125 869.702 195.047 874.308 Q191.991 878.892 186.181 878.892 Q180.371 878.892 177.292 874.308 Q174.237 869.702 174.237 860.975 Q174.237 852.225 177.292 847.642 Q180.371 843.035 186.181 843.035 Z" fill="#000000" fill-rule="nonzero" fill-opacity="1" /><path clip-path="url(#clip140)" d="M119.885 593.882 L136.204 593.882 L136.204 597.817 L114.26 597.817 L114.26 593.882 Q116.922 591.127 121.505 586.498 Q126.112 581.845 127.292 580.502 Q129.538 577.979 130.417 576.243 Q131.32 574.484 131.32 572.794 Q131.32 570.039 129.376 568.303 Q127.455 566.567 124.353 566.567 Q122.154 566.567 119.7 567.331 Q117.269 568.095 114.492 569.646 L114.492 564.924 Q117.316 563.789 119.769 563.211 Q122.223 562.632 124.26 562.632 Q129.63 562.632 132.825 565.317 Q136.019 568.002 136.019 572.493 Q136.019 574.623 135.209 576.544 Q134.422 578.442 132.316 581.035 Q131.737 581.706 128.635 584.924 Q125.533 588.118 119.885 593.882 Z" fill="#000000" fill-rule="nonzero" fill-opacity="1" /><path clip-path="url(#clip140)" d="M156.019 566.336 Q152.408 566.336 150.579 569.9 Q148.774 573.442 148.774 580.572 Q148.774 587.678 150.579 591.243 Q152.408 594.785 156.019 594.785 Q159.653 594.785 161.459 591.243 Q163.288 587.678 163.288 580.572 Q163.288 573.442 161.459 569.9 Q159.653 566.336 156.019 566.336 M156.019 562.632 Q161.829 562.632 164.885 567.238 Q167.964 571.822 167.964 580.572 Q167.964 589.298 164.885 593.905 Q161.829 598.488 156.019 598.488 Q150.209 598.488 147.13 593.905 Q144.075 589.298 144.075 580.572 Q144.075 571.822 147.13 567.238 Q150.209 562.632 156.019 562.632 Z" fill="#000000" fill-rule="nonzero" fill-opacity="1" /><path clip-path="url(#clip140)" d="M186.181 566.336 Q182.57 566.336 180.741 569.9 Q178.936 573.442 178.936 580.572 Q178.936 587.678 180.741 591.243 Q182.57 594.785 186.181 594.785 Q189.815 594.785 191.621 591.243 Q193.45 587.678 193.45 580.572 Q193.45 573.442 191.621 569.9 Q189.815 566.336 186.181 566.336 M186.181 562.632 Q191.991 562.632 195.047 567.238 Q198.125 571.822 198.125 580.572 Q198.125 589.298 195.047 593.905 Q191.991 598.488 186.181 598.488 Q180.371 598.488 177.292 593.905 Q174.237 589.298 174.237 580.572 Q174.237 571.822 177.292 567.238 Q180.371 562.632 186.181 562.632 Z" fill="#000000" fill-rule="nonzero" fill-opacity="1" /><path clip-path="url(#clip140)" d="M119.885 313.478 L136.204 313.478 L136.204 317.414 L114.26 317.414 L114.26 313.478 Q116.922 310.724 121.505 306.094 Q126.112 301.441 127.292 300.099 Q129.538 297.576 130.417 295.84 Q131.32 294.08 131.32 292.39 Q131.32 289.636 129.376 287.9 Q127.455 286.164 124.353 286.164 Q122.154 286.164 119.7 286.928 Q117.269 287.691 114.492 289.242 L114.492 284.52 Q117.316 283.386 119.769 282.807 Q122.223 282.229 124.26 282.229 Q129.63 282.229 132.825 284.914 Q136.019 287.599 136.019 292.09 Q136.019 294.219 135.209 296.14 Q134.422 298.039 132.316 300.631 Q131.737 301.302 128.635 304.52 Q125.533 307.714 119.885 313.478 Z" fill="#000000" fill-rule="nonzero" fill-opacity="1" /><path clip-path="url(#clip140)" d="M146.066 282.854 L164.422 282.854 L164.422 286.789 L150.348 286.789 L150.348 295.261 Q151.366 294.914 152.385 294.752 Q153.403 294.566 154.422 294.566 Q160.209 294.566 163.589 297.738 Q166.968 300.909 166.968 306.326 Q166.968 311.904 163.496 315.006 Q160.024 318.085 153.704 318.085 Q151.528 318.085 149.26 317.714 Q147.015 317.344 144.607 316.603 L144.607 311.904 Q146.691 313.039 148.913 313.594 Q151.135 314.15 153.612 314.15 Q157.616 314.15 159.954 312.043 Q162.292 309.937 162.292 306.326 Q162.292 302.715 159.954 300.608 Q157.616 298.502 153.612 298.502 Q151.737 298.502 149.862 298.918 Q148.01 299.335 146.066 300.215 L146.066 282.854 Z" fill="#000000" fill-rule="nonzero" fill-opacity="1" /><path clip-path="url(#clip140)" d="M186.181 285.932 Q182.57 285.932 180.741 289.497 Q178.936 293.039 178.936 300.168 Q178.936 307.275 180.741 310.839 Q182.57 314.381 186.181 314.381 Q189.815 314.381 191.621 310.839 Q193.45 307.275 193.45 300.168 Q193.45 293.039 191.621 289.497 Q189.815 285.932 186.181 285.932 M186.181 282.229 Q191.991 282.229 195.047 286.835 Q198.125 291.418 198.125 300.168 Q198.125 308.895 195.047 313.501 Q191.991 318.085 186.181 318.085 Q180.371 318.085 177.292 313.501 Q174.237 308.895 174.237 300.168 Q174.237 291.418 177.292 286.835 Q180.371 282.229 186.181 282.229 Z" fill="#000000" fill-rule="nonzero" fill-opacity="1" /><path clip-path="url(#clip140)" d="M64.0042 1077.7 L16.4842 1095.85 L16.4842 1089.13 L56.4926 1074.07 L16.4842 1058.99 L16.4842 1052.3 L64.0042 1070.41 L64.0042 1077.7 Z" fill="#000000" fill-rule="nonzero" fill-opacity="1" /><path clip-path="url(#clip140)" d="M44.7161 1020.19 L47.5806 1020.19 L47.5806 1047.12 Q53.6281 1046.73 56.8109 1043.49 Q59.9619 1040.21 59.9619 1034.38 Q59.9619 1031.01 59.1344 1027.86 Q58.3069 1024.68 56.6518 1021.56 L62.1899 1021.56 Q63.5267 1024.71 64.227 1028.02 Q64.9272 1031.33 64.9272 1034.73 Q64.9272 1043.26 59.9619 1048.26 Q54.9967 1053.23 46.5303 1053.23 Q37.7774 1053.23 32.6531 1048.52 Q27.4968 1043.77 27.4968 1035.75 Q27.4968 1028.56 32.1438 1024.39 Q36.7589 1020.19 44.7161 1020.19 M42.9973 1026.05 Q38.1912 1026.11 35.3266 1028.75 Q32.4621 1031.36 32.4621 1035.69 Q32.4621 1040.59 35.2312 1043.55 Q38.0002 1046.48 43.0292 1046.92 L42.9973 1026.05 Z" fill="#000000" fill-rule="nonzero" fill-opacity="1" /><path clip-path="url(#clip140)" d="M29.4065 987.851 L34.9447 987.851 Q33.6716 990.334 33.035 993.007 Q32.3984 995.681 32.3984 998.545 Q32.3984 1002.91 33.7352 1005.1 Q35.072 1007.27 37.7456 1007.27 Q39.7826 1007.27 40.9603 1005.71 Q42.1061 1004.15 43.1565 999.437 L43.6021 997.431 Q44.9389 991.193 47.3897 988.583 Q49.8086 985.941 54.1691 985.941 Q59.1344 985.941 62.0308 989.888 Q64.9272 993.803 64.9272 1000.68 Q64.9272 1003.54 64.3543 1006.66 Q63.8132 1009.75 62.6992 1013.19 L56.6518 1013.19 Q58.3387 1009.94 59.198 1006.79 Q60.0256 1003.64 60.0256 1000.55 Q60.0256 996.413 58.6251 994.185 Q57.1929 991.957 54.6147 991.957 Q52.2276 991.957 50.9545 993.58 Q49.6813 995.172 48.5037 1000.61 L48.0262 1002.65 Q46.8804 1008.09 44.5251 1010.51 Q42.138 1012.93 38.0002 1012.93 Q32.9713 1012.93 30.2341 1009.37 Q27.4968 1005.8 27.4968 999.246 Q27.4968 995.999 27.9743 993.134 Q28.4517 990.27 29.4065 987.851 Z" fill="#000000" fill-rule="nonzero" fill-opacity="1" /><path clip-path="url(#clip140)" d="M29.4065 953.89 L34.9447 953.89 Q33.6716 956.373 33.035 959.046 Q32.3984 961.72 32.3984 964.584 Q32.3984 968.945 33.7352 971.141 Q35.072 973.305 37.7456 973.305 Q39.7826 973.305 40.9603 971.746 Q42.1061 970.186 43.1565 965.475 L43.6021 963.47 Q44.9389 957.232 47.3897 954.622 Q49.8086 951.98 54.1691 951.98 Q59.1344 951.98 62.0308 955.927 Q64.9272 959.842 64.9272 966.717 Q64.9272 969.581 64.3543 972.701 Q63.8132 975.788 62.6992 979.225 L56.6518 979.225 Q58.3387 975.979 59.198 972.828 Q60.0256 969.677 60.0256 966.589 Q60.0256 962.452 58.6251 960.224 Q57.1929 957.996 54.6147 957.996 Q52.2276 957.996 50.9545 959.619 Q49.6813 961.21 48.5037 966.653 L48.0262 968.69 Q46.8804 974.133 44.5251 976.552 Q42.138 978.971 38.0002 978.971 Q32.9713 978.971 30.2341 975.406 Q27.4968 971.841 27.4968 965.285 Q27.4968 962.038 27.9743 959.173 Q28.4517 956.309 29.4065 953.89 Z" fill="#000000" fill-rule="nonzero" fill-opacity="1" /><path clip-path="url(#clip140)" d="M44.7161 912.163 L47.5806 912.163 L47.5806 939.09 Q53.6281 938.708 56.8109 935.461 Q59.9619 932.183 59.9619 926.358 Q59.9619 922.984 59.1344 919.833 Q58.3069 916.651 56.6518 913.531 L62.1899 913.531 Q63.5267 916.682 64.227 919.993 Q64.9272 923.303 64.9272 926.708 Q64.9272 935.238 59.9619 940.235 Q54.9967 945.201 46.5303 945.201 Q37.7774 945.201 32.6531 940.49 Q27.4968 935.748 27.4968 927.727 Q27.4968 920.534 32.1438 916.364 Q36.7589 912.163 44.7161 912.163 M42.9973 918.019 Q38.1912 918.083 35.3266 920.725 Q32.4621 923.335 32.4621 927.663 Q32.4621 932.565 35.2312 935.525 Q38.0002 938.453 43.0292 938.899 L42.9973 918.019 Z" fill="#000000" fill-rule="nonzero" fill-opacity="1" /><path clip-path="url(#clip140)" d="M14.479 902.55 L14.479 896.694 L64.0042 896.694 L64.0042 902.55 L14.479 902.55 Z" fill="#000000" fill-rule="nonzero" fill-opacity="1" /><path clip-path="url(#clip140)" d="M18.2347 857.927 L28.3562 857.927 L28.3562 845.864 L32.9077 845.864 L32.9077 857.927 L52.2594 857.927 Q56.6199 857.927 57.8613 856.749 Q59.1026 855.54 59.1026 851.879 L59.1026 845.864 L64.0042 845.864 L64.0042 851.879 Q64.0042 858.659 61.4897 861.237 Q58.9434 863.815 52.2594 863.815 L32.9077 863.815 L32.9077 868.112 L28.3562 868.112 L28.3562 863.815 L18.2347 863.815 L18.2347 857.927 Z" fill="#000000" fill-rule="nonzero" fill-opacity="1" /><path clip-path="url(#clip140)" d="M44.7161 807.67 L47.5806 807.67 L47.5806 834.597 Q53.6281 834.215 56.8109 830.968 Q59.9619 827.69 59.9619 821.865 Q59.9619 818.491 59.1344 815.34 Q58.3069 812.157 56.6518 809.038 L62.1899 809.038 Q63.5267 812.189 64.227 815.499 Q64.9272 818.81 64.9272 822.215 Q64.9272 830.745 59.9619 835.742 Q54.9967 840.708 46.5303 840.708 Q37.7774 840.708 32.6531 835.997 Q27.4968 831.255 27.4968 823.234 Q27.4968 816.041 32.1438 811.871 Q36.7589 807.67 44.7161 807.67 M42.9973 813.526 Q38.1912 813.59 35.3266 816.231 Q32.4621 818.841 32.4621 823.17 Q32.4621 828.072 35.2312 831.032 Q38.0002 833.96 43.0292 834.406 L42.9973 813.526 Z" fill="#000000" fill-rule="nonzero" fill-opacity="1" /><path clip-path="url(#clip140)" d="M35.1993 770.303 Q31.2526 768.107 29.3747 765.051 Q27.4968 761.996 27.4968 757.858 Q27.4968 752.288 31.4117 749.264 Q35.2948 746.241 42.4881 746.241 L64.0042 746.241 L64.0042 752.129 L42.679 752.129 Q37.5546 752.129 35.072 753.943 Q32.5894 755.757 32.5894 759.481 Q32.5894 764.033 35.6131 766.674 Q38.6368 769.316 43.8567 769.316 L64.0042 769.316 L64.0042 775.205 L42.679 775.205 Q37.5228 775.205 35.072 777.019 Q32.5894 778.833 32.5894 782.621 Q32.5894 787.108 35.6449 789.75 Q38.6686 792.392 43.8567 792.392 L64.0042 792.392 L64.0042 798.28 L28.3562 798.28 L28.3562 792.392 L33.8944 792.392 Q30.616 790.387 29.0564 787.586 Q27.4968 784.785 27.4968 780.934 Q27.4968 777.051 29.4702 774.345 Q31.4436 771.608 35.1993 770.303 Z" fill="#000000" fill-rule="nonzero" fill-opacity="1" /><path clip-path="url(#clip140)" d="M58.657 728.894 L77.5631 728.894 L77.5631 734.782 L28.3562 734.782 L28.3562 728.894 L33.7671 728.894 Q30.5842 727.048 29.0564 724.247 Q27.4968 721.414 27.4968 717.499 Q27.4968 711.006 32.6531 706.964 Q37.8093 702.89 46.212 702.89 Q54.6147 702.89 59.771 706.964 Q64.9272 711.006 64.9272 717.499 Q64.9272 721.414 63.3994 724.247 Q61.8398 727.048 58.657 728.894 M46.212 708.969 Q39.7508 708.969 36.0905 711.643 Q32.3984 714.285 32.3984 718.932 Q32.3984 723.579 36.0905 726.252 Q39.7508 728.894 46.212 728.894 Q52.6732 728.894 56.3653 726.252 Q60.0256 723.579 60.0256 718.932 Q60.0256 714.285 56.3653 711.643 Q52.6732 708.969 46.212 708.969 Z" fill="#000000" fill-rule="nonzero" fill-opacity="1" /><path clip-path="url(#clip140)" d="M44.7161 662.691 L47.5806 662.691 L47.5806 689.618 Q53.6281 689.236 56.8109 685.989 Q59.9619 682.711 59.9619 676.886 Q59.9619 673.512 59.1344 670.361 Q58.3069 667.178 56.6518 664.059 L62.1899 664.059 Q63.5267 667.21 64.227 670.52 Q64.9272 673.831 64.9272 677.236 Q64.9272 685.766 59.9619 690.763 Q54.9967 695.729 46.5303 695.729 Q37.7774 695.729 32.6531 691.018 Q27.4968 686.276 27.4968 678.255 Q27.4968 671.062 32.1438 666.892 Q36.7589 662.691 44.7161 662.691 M42.9973 668.547 Q38.1912 668.611 35.3266 671.253 Q32.4621 673.862 32.4621 678.191 Q32.4621 683.093 35.2312 686.053 Q38.0002 688.981 43.0292 689.427 L42.9973 668.547 Z" fill="#000000" fill-rule="nonzero" fill-opacity="1" /><path clip-path="url(#clip140)" d="M33.8307 632.422 Q33.2578 633.408 33.0032 634.586 Q32.7167 635.732 32.7167 637.132 Q32.7167 642.098 35.9632 644.771 Q39.1779 647.413 45.2253 647.413 L64.0042 647.413 L64.0042 653.301 L28.3562 653.301 L28.3562 647.413 L33.8944 647.413 Q30.6479 645.567 29.0883 642.607 Q27.4968 639.647 27.4968 635.414 Q27.4968 634.809 27.5923 634.077 Q27.656 633.345 27.8151 632.454 L33.8307 632.422 Z" fill="#000000" fill-rule="nonzero" fill-opacity="1" /><path clip-path="url(#clip140)" d="M46.0847 610.078 Q46.0847 617.176 47.7079 619.913 Q49.3312 622.65 53.2461 622.65 Q56.3653 622.65 58.2114 620.613 Q60.0256 618.544 60.0256 615.012 Q60.0256 610.142 56.5881 607.214 Q53.1188 604.253 47.3897 604.253 L46.0847 604.253 L46.0847 610.078 M43.6657 598.397 L64.0042 598.397 L64.0042 604.253 L58.5933 604.253 Q61.8398 606.259 63.3994 609.251 Q64.9272 612.242 64.9272 616.571 Q64.9272 622.046 61.8716 625.292 Q58.7843 628.507 53.6281 628.507 Q47.6125 628.507 44.5569 624.496 Q41.5014 620.454 41.5014 612.465 L41.5014 604.253 L40.9285 604.253 Q36.8862 604.253 34.6901 606.927 Q32.4621 609.569 32.4621 614.375 Q32.4621 617.43 33.1941 620.327 Q33.9262 623.223 35.3903 625.897 L29.9795 625.897 Q28.7381 622.682 28.1334 619.658 Q27.4968 616.635 27.4968 613.77 Q27.4968 606.036 31.5072 602.216 Q35.5176 598.397 43.6657 598.397 Z" fill="#000000" fill-rule="nonzero" fill-opacity="1" /><path clip-path="url(#clip140)" d="M18.2347 580.541 L28.3562 580.541 L28.3562 568.478 L32.9077 568.478 L32.9077 580.541 L52.2594 580.541 Q56.6199 580.541 57.8613 579.364 Q59.1026 578.154 59.1026 574.494 L59.1026 568.478 L64.0042 568.478 L64.0042 574.494 Q64.0042 581.273 61.4897 583.851 Q58.9434 586.429 52.2594 586.429 L32.9077 586.429 L32.9077 590.726 L28.3562 590.726 L28.3562 586.429 L18.2347 586.429 L18.2347 580.541 Z" fill="#000000" fill-rule="nonzero" fill-opacity="1" /><path clip-path="url(#clip140)" d="M49.9359 561.38 L28.3562 561.38 L28.3562 555.524 L49.7131 555.524 Q54.7739 555.524 57.3202 553.551 Q59.8346 551.577 59.8346 547.631 Q59.8346 542.888 56.8109 540.151 Q53.7872 537.382 48.5673 537.382 L28.3562 537.382 L28.3562 531.525 L64.0042 531.525 L64.0042 537.382 L58.5296 537.382 Q61.7762 539.514 63.3676 542.347 Q64.9272 545.148 64.9272 548.872 Q64.9272 555.015 61.1078 558.198 Q57.2883 561.38 49.9359 561.38 M27.4968 546.644 L27.4968 546.644 Z" fill="#000000" fill-rule="nonzero" fill-opacity="1" /><path clip-path="url(#clip140)" d="M33.8307 498.806 Q33.2578 499.792 33.0032 500.97 Q32.7167 502.116 32.7167 503.516 Q32.7167 508.481 35.9632 511.155 Q39.1779 513.797 45.2253 513.797 L64.0042 513.797 L64.0042 519.685 L28.3562 519.685 L28.3562 513.797 L33.8944 513.797 Q30.6479 511.951 29.0883 508.991 Q27.4968 506.031 27.4968 501.797 Q27.4968 501.193 27.5923 500.461 Q27.656 499.729 27.8151 498.837 L33.8307 498.806 Z" fill="#000000" fill-rule="nonzero" fill-opacity="1" /><path clip-path="url(#clip140)" d="M44.7161 463.603 L47.5806 463.603 L47.5806 490.53 Q53.6281 490.148 56.8109 486.902 Q59.9619 483.623 59.9619 477.799 Q59.9619 474.425 59.1344 471.274 Q58.3069 468.091 56.6518 464.972 L62.1899 464.972 Q63.5267 468.123 64.227 471.433 Q64.9272 474.743 64.9272 478.149 Q64.9272 486.679 59.9619 491.676 Q54.9967 496.641 46.5303 496.641 Q37.7774 496.641 32.6531 491.931 Q27.4968 487.188 27.4968 479.167 Q27.4968 471.974 32.1438 467.805 Q36.7589 463.603 44.7161 463.603 M42.9973 469.46 Q38.1912 469.523 35.3266 472.165 Q32.4621 474.775 32.4621 479.104 Q32.4621 484.005 35.2312 486.965 Q38.0002 489.894 43.0292 490.339 L42.9973 469.46 Z" fill="#000000" fill-rule="nonzero" fill-opacity="1" /><path clip-path="url(#clip140)" d="M55.9197 452.495 L55.9197 445.779 L61.3942 445.779 L71.5793 450.999 L71.5793 455.105 L61.3942 452.495 L55.9197 452.495 Z" fill="#000000" fill-rule="nonzero" fill-opacity="1" /><path clip-path="url(#clip140)" d="M16.4842 412.296 L16.4842 405.866 L36.568 405.866 L16.4842 384.541 L16.4842 376.266 L38.6368 399.851 L64.0042 374.579 L64.0042 383.045 L41.1194 405.866 L64.0042 405.866 L64.0042 412.296 L16.4842 412.296 Z" fill="#000000" fill-rule="nonzero" fill-opacity="1" /><polyline clip-path="url(#clip142)" style="stroke:#b22222; stroke-linecap:round; stroke-linejoin:round; stroke-width:8; stroke-opacity:1; fill:none" points="294.087,86.1857 314.276,127.548 334.465,167.343 354.654,205.648 374.843,242.537 395.032,278.078 415.221,312.337 435.409,345.374 455.598,377.247 475.787,408.01 495.976,437.714 516.165,466.407 536.354,494.134 556.543,520.938 576.732,546.86 596.921,571.938 617.11,596.209 637.299,619.705 657.488,642.461 677.677,664.507 697.866,685.872 718.055,706.583 738.244,726.668 758.433,746.152 778.622,765.057 798.811,783.407 819,801.223 839.189,818.526 859.378,835.335 879.567,851.67 899.756,867.546 919.945,882.983 940.134,897.994 960.323,912.598 980.512,926.806 1000.7,940.635 1020.89,954.097 1041.08,967.205 1061.27,979.972 1081.46,992.409 1101.65,1004.53 1121.83,1016.34 1142.02,1027.85 1162.21,1039.08 1182.4,1050.02 1202.59,1060.7 1222.78,1071.12 1242.97,1081.29 1263.16,1091.21 1283.35,1100.9 1303.54,1110.36 1323.72,1119.59 1343.91,1128.62 1364.1,1137.43 1384.29,1146.04 1404.48,1154.46 1424.67,1162.69 1444.86,1170.73 1465.05,1178.6 1485.24,1186.29 1505.42,1193.81 1525.61,1201.17 1545.8,1208.37 1565.99,1215.42 1586.18,1222.32 1606.37,1229.07 1626.56,1235.68 1646.75,1242.15 1666.94,1248.49 1687.13,1254.7 1707.31,1260.78 1727.5,1266.74 1747.69,1272.58 1767.88,1278.3 1788.07,1283.91 1808.26,1289.41 1828.45,1294.8 1848.64,1300.09 1868.83,1305.27 1889.02,1310.35 1909.2,1315.34 1929.39,1320.23 1949.58,1325.03 1969.77,1329.74 1989.96,1334.37 2010.15,1338.9 2030.34,1343.36 2050.53,1347.73 2070.72,1350.45 2090.9,1350.45 2111.09,1350.45 2131.28,1350.45 2151.47,1350.45 2171.66,1350.45 2191.85,1350.45 2212.04,1350.45 2232.23,1350.45 2252.42,1350.45 2272.61,1350.45 2292.79,1350.45 "/>
<polyline clip-path="url(#clip142)" style="stroke:#ff0000; stroke-linecap:round; stroke-linejoin:round; stroke-width:8; stroke-opacity:1; fill:none" stroke-dasharray="32, 20" points="294.087,86.1857 314.276,127.548 334.465,167.343 354.654,205.647 374.843,242.536 395.032,278.077 415.221,312.334 435.409,345.376 455.598,377.249 475.787,408.009 495.976,437.72 516.165,466.407 536.354,494.139 556.543,520.946 576.732,546.855 596.921,571.948 617.11,596.19 637.299,619.718 657.488,642.454 677.677,664.517 697.866,685.889 718.055,706.564 738.244,726.69 758.433,746.154 778.622,765.055 798.811,783.406 819,801.21 839.189,818.543 859.378,835.355 879.567,851.652 899.756,867.573 919.945,883.003 940.134,897.979 960.323,912.626 980.512,926.826 1000.7,940.621 1020.89,954.125 1041.08,967.225 1061.27,979.96 1081.46,992.435 1101.65,1004.55 1121.83,1016.33 1142.02,1027.87 1162.21,1039.09 1182.4,1050.02 1202.59,1060.72 1222.78,1071.13 1242.97,1081.29 1263.16,1091.21 1283.35,1100.92 1303.54,1110.37 1323.72,1119.59 1343.91,1128.64 1364.1,1137.45 1384.29,1146.04 1404.48,1154.47 1424.67,1162.69 1444.86,1170.74 1465.05,1178.6 1485.24,1186.31 1505.42,1193.83 1525.61,1201.17 1545.8,1208.38 1565.99,1215.43 1586.18,1222.33 1606.37,1229.07 1626.56,1235.7 1646.75,1242.17 1666.94,1248.5 1687.13,1254.7 1707.31,1260.8 1727.5,1266.76 1747.69,1272.58 1767.88,1278.31 1788.07,1283.92 1808.26,1289.41 1828.45,1294.75 1848.64,1299.97 1868.83,1305.01 1889.02,1309.87 1909.2,1314.54 1929.39,1319.01 1949.58,1323.25 1969.77,1327.24 1989.96,1330.96 2010.15,1334.41 2030.34,1337.57 2050.53,1340.41 2070.72,1342.92 2090.9,1345.1 2111.09,1346.91 2131.28,1348.36 2151.47,1349.39 2171.66,1350.35 2191.85,1350.35 2212.04,1350.35 2232.23,1350.35 2252.42,1350.35 2272.61,1350.35 2292.79,1350.35 "/>
<polyline clip-path="url(#clip142)" style="stroke:#00008b; stroke-linecap:round; stroke-linejoin:round; stroke-width:8; stroke-opacity:1; fill:none" points="294.087,86.1857 314.276,148.291 334.465,204.902 354.654,256.843 374.843,304.766 395.032,349.194 415.221,390.561 435.409,429.24 455.598,465.508 475.787,499.607 495.976,531.804 516.165,562.23 536.354,591.082 556.543,618.48 576.732,644.548 596.921,669.408 617.11,693.139 637.299,715.829 657.488,737.574 677.677,758.394 697.866,778.409 718.055,797.638 738.244,816.167 758.433,833.986 778.622,851.151 798.811,867.747 819,883.751 839.189,899.23 859.378,914.198 879.567,928.679 899.756,942.724 919.945,956.322 940.134,969.498 960.323,982.306 980.512,994.723 1000.7,1006.79 1020.89,1018.51 1041.08,1029.92 1061.27,1041.01 1081.46,1051.79 1101.65,1062.32 1121.83,1072.54 1142.02,1082.49 1162.21,1092.22 1182.4,1101.68 1202.59,1110.93 1222.78,1119.93 1242.97,1128.74 1263.16,1137.32 1283.35,1145.69 1303.54,1153.89 1323.72,1161.9 1343.91,1169.72 1364.1,1177.34 1384.29,1184.82 1404.48,1192.14 1424.67,1199.29 1444.86,1206.27 1465.05,1213.12 1485.24,1219.82 1505.42,1226.38 1525.61,1232.79 1545.8,1239.09 1565.99,1245.26 1586.18,1251.3 1606.37,1257.2 1626.56,1263 1646.75,1268.7 1666.94,1274.27 1687.13,1279.73 1707.31,1285.08 1727.5,1290.36 1747.69,1295.5 1767.88,1300.57 1788.07,1305.52 1808.26,1310.41 1828.45,1315.19 1848.64,1319.89 1868.83,1324.49 1889.02,1329 1909.2,1333.42 1929.39,1337.71 1949.58,1341.88 1969.77,1345.91 1989.96,1349.82 2010.15,1353.57 2030.34,1357.15 2050.53,1360.56 2070.72,1363.79 2090.9,1366.81 2111.09,1369.63 2131.28,1372.24 2151.47,1374.63 2171.66,1376.75 2191.85,1378.63 2212.04,1380.26 2232.23,1381.63 2252.42,1382.71 2272.61,1383.53 2292.79,1384.24 "/>
<polyline clip-path="url(#clip142)" style="stroke:#000000; stroke-linecap:round; stroke-linejoin:round; stroke-width:4; stroke-opacity:1; fill:none" stroke-dasharray="16, 10" points="294.087,1270.33 2292.79,1270.33 "/>
<path clip-path="url(#clip140)" d="M1389.33 352.309 L2282.13 352.309 L2282.13 93.1086 L1389.33 93.1086  Z" fill="#ffffff" fill-rule="evenodd" fill-opacity="1"/>
<polyline clip-path="url(#clip140)" style="stroke:#000000; stroke-linecap:round; stroke-linejoin:round; stroke-width:4; stroke-opacity:1; fill:none" points="1389.33,352.309 2282.13,352.309 2282.13,93.1086 1389.33,93.1086 1389.33,352.309 "/>
<polyline clip-path="url(#clip140)" style="stroke:#b22222; stroke-linecap:round; stroke-linejoin:round; stroke-width:8; stroke-opacity:1; fill:none" points="1412.87,144.949 1554.11,144.949 "/>
<path clip-path="url(#clip140)" d="M1577.65 127.669 L1582.33 127.669 L1582.33 162.229 L1577.65 162.229 L1577.65 127.669 Z" fill="#000000" fill-rule="nonzero" fill-opacity="1" /><path clip-path="url(#clip140)" d="M1608.51 140.238 L1608.51 126.21 L1612.76 126.21 L1612.76 162.229 L1608.51 162.229 L1608.51 158.34 Q1607.16 160.655 1605.1 161.789 Q1603.07 162.9 1600.2 162.9 Q1595.5 162.9 1592.53 159.15 Q1589.59 155.4 1589.59 149.289 Q1589.59 143.178 1592.53 139.428 Q1595.5 135.678 1600.2 135.678 Q1603.07 135.678 1605.1 136.812 Q1607.16 137.923 1608.51 140.238 M1593.99 149.289 Q1593.99 153.988 1595.91 156.673 Q1597.86 159.335 1601.24 159.335 Q1604.62 159.335 1606.56 156.673 Q1608.51 153.988 1608.51 149.289 Q1608.51 144.59 1606.56 141.928 Q1604.62 139.243 1601.24 139.243 Q1597.86 139.243 1595.91 141.928 Q1593.99 144.59 1593.99 149.289 Z" fill="#000000" fill-rule="nonzero" fill-opacity="1" /><path clip-path="url(#clip140)" d="M1643.71 148.201 L1643.71 150.284 L1624.13 150.284 Q1624.41 154.682 1626.77 156.997 Q1629.15 159.289 1633.39 159.289 Q1635.84 159.289 1638.13 158.687 Q1640.45 158.085 1642.72 156.881 L1642.72 160.909 Q1640.43 161.881 1638.02 162.391 Q1635.61 162.9 1633.13 162.9 Q1626.93 162.9 1623.3 159.289 Q1619.69 155.678 1619.69 149.52 Q1619.69 143.155 1623.11 139.428 Q1626.56 135.678 1632.39 135.678 Q1637.63 135.678 1640.66 139.057 Q1643.71 142.414 1643.71 148.201 M1639.45 146.951 Q1639.41 143.456 1637.49 141.372 Q1635.59 139.289 1632.44 139.289 Q1628.88 139.289 1626.72 141.303 Q1624.59 143.317 1624.27 146.974 L1639.45 146.951 Z" fill="#000000" fill-rule="nonzero" fill-opacity="1" /><path clip-path="url(#clip140)" d="M1662.49 149.196 Q1657.32 149.196 1655.33 150.377 Q1653.34 151.557 1653.34 154.405 Q1653.34 156.673 1654.82 158.016 Q1656.33 159.335 1658.9 159.335 Q1662.44 159.335 1664.57 156.835 Q1666.72 154.312 1666.72 150.145 L1666.72 149.196 L1662.49 149.196 M1670.98 147.437 L1670.98 162.229 L1666.72 162.229 L1666.72 158.293 Q1665.26 160.655 1663.09 161.789 Q1660.91 162.9 1657.76 162.9 Q1653.78 162.9 1651.42 160.678 Q1649.08 158.432 1649.08 154.682 Q1649.08 150.307 1652 148.085 Q1654.94 145.863 1660.75 145.863 L1666.72 145.863 L1666.72 145.446 Q1666.72 142.507 1664.78 140.909 Q1662.86 139.289 1659.36 139.289 Q1657.14 139.289 1655.03 139.821 Q1652.93 140.354 1650.98 141.419 L1650.98 137.483 Q1653.32 136.581 1655.52 136.141 Q1657.72 135.678 1659.8 135.678 Q1665.43 135.678 1668.2 138.594 Q1670.98 141.511 1670.98 147.437 Z" fill="#000000" fill-rule="nonzero" fill-opacity="1" /><path clip-path="url(#clip140)" d="M1679.76 126.21 L1684.01 126.21 L1684.01 162.229 L1679.76 162.229 L1679.76 126.21 Z" fill="#000000" fill-rule="nonzero" fill-opacity="1" /><path clip-path="url(#clip140)" d="M1725.06 148.965 Q1725.06 144.335 1723.13 141.789 Q1721.24 139.243 1717.79 139.243 Q1714.36 139.243 1712.44 141.789 Q1710.54 144.335 1710.54 148.965 Q1710.54 153.571 1712.44 156.118 Q1714.36 158.664 1717.79 158.664 Q1721.24 158.664 1723.13 156.118 Q1725.06 153.571 1725.06 148.965 M1729.31 159.011 Q1729.31 165.631 1726.38 168.849 Q1723.44 172.09 1717.37 172.09 Q1715.13 172.09 1713.13 171.742 Q1711.14 171.418 1709.27 170.724 L1709.27 166.58 Q1711.14 167.599 1712.97 168.085 Q1714.8 168.571 1716.7 168.571 Q1720.89 168.571 1722.97 166.372 Q1725.06 164.196 1725.06 159.775 L1725.06 157.668 Q1723.74 159.96 1721.68 161.094 Q1719.62 162.229 1716.75 162.229 Q1711.98 162.229 1709.06 158.594 Q1706.14 154.96 1706.14 148.965 Q1706.14 142.946 1709.06 139.312 Q1711.98 135.678 1716.75 135.678 Q1719.62 135.678 1721.68 136.812 Q1723.74 137.946 1725.06 140.238 L1725.06 136.303 L1729.31 136.303 L1729.31 159.011 Z" fill="#000000" fill-rule="nonzero" fill-opacity="1" /><path clip-path="url(#clip140)" d="M1749.87 149.196 Q1744.71 149.196 1742.72 150.377 Q1740.73 151.557 1740.73 154.405 Q1740.73 156.673 1742.21 158.016 Q1743.71 159.335 1746.28 159.335 Q1749.82 159.335 1751.95 156.835 Q1754.11 154.312 1754.11 150.145 L1754.11 149.196 L1749.87 149.196 M1758.37 147.437 L1758.37 162.229 L1754.11 162.229 L1754.11 158.293 Q1752.65 160.655 1750.47 161.789 Q1748.3 162.9 1745.15 162.9 Q1741.17 162.9 1738.81 160.678 Q1736.47 158.432 1736.47 154.682 Q1736.47 150.307 1739.38 148.085 Q1742.32 145.863 1748.13 145.863 L1754.11 145.863 L1754.11 145.446 Q1754.11 142.507 1752.16 140.909 Q1750.24 139.289 1746.75 139.289 Q1744.52 139.289 1742.42 139.821 Q1740.31 140.354 1738.37 141.419 L1738.37 137.483 Q1740.7 136.581 1742.9 136.141 Q1745.1 135.678 1747.19 135.678 Q1752.81 135.678 1755.59 138.594 Q1758.37 141.511 1758.37 147.437 Z" fill="#000000" fill-rule="nonzero" fill-opacity="1" /><path clip-path="url(#clip140)" d="M1783.67 137.067 L1783.67 141.094 Q1781.86 140.169 1779.92 139.706 Q1777.97 139.243 1775.89 139.243 Q1772.72 139.243 1771.12 140.215 Q1769.55 141.187 1769.55 143.131 Q1769.55 144.613 1770.68 145.469 Q1771.81 146.303 1775.24 147.067 L1776.7 147.391 Q1781.24 148.363 1783.13 150.145 Q1785.06 151.905 1785.06 155.076 Q1785.06 158.687 1782.19 160.793 Q1779.34 162.9 1774.34 162.9 Q1772.25 162.9 1769.99 162.483 Q1767.74 162.09 1765.24 161.28 L1765.24 156.881 Q1767.6 158.108 1769.89 158.733 Q1772.19 159.335 1774.43 159.335 Q1777.44 159.335 1779.06 158.317 Q1780.68 157.275 1780.68 155.4 Q1780.68 153.664 1779.5 152.738 Q1778.34 151.812 1774.38 150.956 L1772.9 150.608 Q1768.94 149.775 1767.19 148.062 Q1765.43 146.326 1765.43 143.317 Q1765.43 139.659 1768.02 137.669 Q1770.61 135.678 1775.38 135.678 Q1777.74 135.678 1779.82 136.025 Q1781.91 136.372 1783.67 137.067 Z" fill="#000000" fill-rule="nonzero" fill-opacity="1" /><path clip-path="url(#clip140)" d="M1792.93 156.349 L1797.81 156.349 L1797.81 160.33 L1794.01 167.738 L1791.03 167.738 L1792.93 160.33 L1792.93 156.349 Z" fill="#000000" fill-rule="nonzero" fill-opacity="1" /><path clip-path="url(#clip140)" d="M1840.63 137.298 L1840.63 141.28 Q1838.83 140.284 1837 139.798 Q1835.19 139.289 1833.34 139.289 Q1829.2 139.289 1826.91 141.928 Q1824.62 144.544 1824.62 149.289 Q1824.62 154.034 1826.91 156.673 Q1829.2 159.289 1833.34 159.289 Q1835.19 159.289 1837 158.803 Q1838.83 158.293 1840.63 157.298 L1840.63 161.233 Q1838.85 162.067 1836.93 162.483 Q1835.03 162.9 1832.88 162.9 Q1827.02 162.9 1823.57 159.219 Q1820.12 155.539 1820.12 149.289 Q1820.12 142.946 1823.6 139.312 Q1827.09 135.678 1833.16 135.678 Q1835.12 135.678 1837 136.095 Q1838.87 136.488 1840.63 137.298 Z" fill="#000000" fill-rule="nonzero" fill-opacity="1" /><path clip-path="url(#clip140)" d="M1869.59 146.581 L1869.59 162.229 L1865.33 162.229 L1865.33 146.719 Q1865.33 143.039 1863.9 141.21 Q1862.46 139.382 1859.59 139.382 Q1856.14 139.382 1854.15 141.581 Q1852.16 143.78 1852.16 147.576 L1852.16 162.229 L1847.88 162.229 L1847.88 126.21 L1852.16 126.21 L1852.16 140.331 Q1853.69 137.993 1855.75 136.835 Q1857.83 135.678 1860.54 135.678 Q1865.01 135.678 1867.3 138.456 Q1869.59 141.21 1869.59 146.581 Z" fill="#000000" fill-rule="nonzero" fill-opacity="1" /><path clip-path="url(#clip140)" d="M1888.13 139.289 Q1884.71 139.289 1882.72 141.974 Q1880.73 144.636 1880.73 149.289 Q1880.73 153.942 1882.69 156.627 Q1884.68 159.289 1888.13 159.289 Q1891.54 159.289 1893.53 156.604 Q1895.52 153.918 1895.52 149.289 Q1895.52 144.682 1893.53 141.997 Q1891.54 139.289 1888.13 139.289 M1888.13 135.678 Q1893.69 135.678 1896.86 139.289 Q1900.03 142.9 1900.03 149.289 Q1900.03 155.655 1896.86 159.289 Q1893.69 162.9 1888.13 162.9 Q1882.55 162.9 1879.38 159.289 Q1876.24 155.655 1876.24 149.289 Q1876.24 142.9 1879.38 139.289 Q1882.55 135.678 1888.13 135.678 Z" fill="#000000" fill-rule="nonzero" fill-opacity="1" /><path clip-path="url(#clip140)" d="M1906.93 126.21 L1911.21 126.21 L1911.21 147.483 L1923.92 136.303 L1929.36 136.303 L1915.61 148.432 L1929.94 162.229 L1924.38 162.229 L1911.21 149.567 L1911.21 162.229 L1906.93 162.229 L1906.93 126.21 Z" fill="#000000" fill-rule="nonzero" fill-opacity="1" /><path clip-path="url(#clip140)" d="M1955.03 148.201 L1955.03 150.284 L1935.45 150.284 Q1935.73 154.682 1938.09 156.997 Q1940.47 159.289 1944.71 159.289 Q1947.16 159.289 1949.45 158.687 Q1951.77 158.085 1954.04 156.881 L1954.04 160.909 Q1951.74 161.881 1949.34 162.391 Q1946.93 162.9 1944.45 162.9 Q1938.25 162.9 1934.61 159.289 Q1931 155.678 1931 149.52 Q1931 143.155 1934.43 139.428 Q1937.88 135.678 1943.71 135.678 Q1948.94 135.678 1951.98 139.057 Q1955.03 142.414 1955.03 148.201 M1950.77 146.951 Q1950.73 143.456 1948.8 141.372 Q1946.91 139.289 1943.76 139.289 Q1940.19 139.289 1938.04 141.303 Q1935.91 143.317 1935.59 146.974 L1950.77 146.951 Z" fill="#000000" fill-rule="nonzero" fill-opacity="1" /><path clip-path="url(#clip140)" d="M1979.08 140.238 L1979.08 126.21 L1983.34 126.21 L1983.34 162.229 L1979.08 162.229 L1979.08 158.34 Q1977.74 160.655 1975.68 161.789 Q1973.64 162.9 1970.77 162.9 Q1966.07 162.9 1963.11 159.15 Q1960.17 155.4 1960.17 149.289 Q1960.17 143.178 1963.11 139.428 Q1966.07 135.678 1970.77 135.678 Q1973.64 135.678 1975.68 136.812 Q1977.74 137.923 1979.08 140.238 M1964.57 149.289 Q1964.57 153.988 1966.49 156.673 Q1968.43 159.335 1971.81 159.335 Q1975.19 159.335 1977.14 156.673 Q1979.08 153.988 1979.08 149.289 Q1979.08 144.59 1977.14 141.928 Q1975.19 139.243 1971.81 139.243 Q1968.43 139.243 1966.49 141.928 Q1964.57 144.59 1964.57 149.289 Z" fill="#000000" fill-rule="nonzero" fill-opacity="1" /><path clip-path="url(#clip140)" d="M2020.31 126.21 L2020.31 129.752 L2016.23 129.752 Q2013.94 129.752 2013.04 130.678 Q2012.16 131.604 2012.16 134.011 L2012.16 136.303 L2019.17 136.303 L2019.17 139.613 L2012.16 139.613 L2012.16 162.229 L2007.88 162.229 L2007.88 139.613 L2003.8 139.613 L2003.8 136.303 L2007.88 136.303 L2007.88 134.497 Q2007.88 130.169 2009.89 128.201 Q2011.91 126.21 2016.28 126.21 L2020.31 126.21 Z" fill="#000000" fill-rule="nonzero" fill-opacity="1" /><path clip-path="url(#clip140)" d="M2023.87 126.21 L2028.13 126.21 L2028.13 162.229 L2023.87 162.229 L2023.87 126.21 Z" fill="#000000" fill-rule="nonzero" fill-opacity="1" /><path clip-path="url(#clip140)" d="M2047.09 139.289 Q2043.67 139.289 2041.67 141.974 Q2039.68 144.636 2039.68 149.289 Q2039.68 153.942 2041.65 156.627 Q2043.64 159.289 2047.09 159.289 Q2050.49 159.289 2052.48 156.604 Q2054.48 153.918 2054.48 149.289 Q2054.48 144.682 2052.48 141.997 Q2050.49 139.289 2047.09 139.289 M2047.09 135.678 Q2052.65 135.678 2055.82 139.289 Q2058.99 142.9 2058.99 149.289 Q2058.99 155.655 2055.82 159.289 Q2052.65 162.9 2047.09 162.9 Q2041.51 162.9 2038.34 159.289 Q2035.19 155.655 2035.19 149.289 Q2035.19 142.9 2038.34 139.289 Q2041.51 135.678 2047.09 135.678 Z" fill="#000000" fill-rule="nonzero" fill-opacity="1" /><path clip-path="url(#clip140)" d="M2063.57 136.303 L2067.83 136.303 L2073.16 156.534 L2078.46 136.303 L2083.48 136.303 L2088.8 156.534 L2094.1 136.303 L2098.36 136.303 L2091.58 162.229 L2086.56 162.229 L2080.98 140.979 L2075.38 162.229 L2070.35 162.229 L2063.57 136.303 Z" fill="#000000" fill-rule="nonzero" fill-opacity="1" /><path clip-path="url(#clip140)" d="M2140.08 141.28 Q2141.67 138.409 2143.9 137.044 Q2146.12 135.678 2149.13 135.678 Q2153.18 135.678 2155.38 138.525 Q2157.58 141.349 2157.58 146.581 L2157.58 162.229 L2153.29 162.229 L2153.29 146.719 Q2153.29 142.993 2151.97 141.187 Q2150.66 139.382 2147.95 139.382 Q2144.64 139.382 2142.72 141.581 Q2140.79 143.78 2140.79 147.576 L2140.79 162.229 L2136.51 162.229 L2136.51 146.719 Q2136.51 142.969 2135.19 141.187 Q2133.87 139.382 2131.12 139.382 Q2127.85 139.382 2125.93 141.604 Q2124.01 143.803 2124.01 147.576 L2124.01 162.229 L2119.73 162.229 L2119.73 136.303 L2124.01 136.303 L2124.01 140.331 Q2125.47 137.946 2127.51 136.812 Q2129.54 135.678 2132.35 135.678 Q2135.17 135.678 2137.14 137.113 Q2139.13 138.548 2140.08 141.28 Z" fill="#000000" fill-rule="nonzero" fill-opacity="1" /><path clip-path="url(#clip140)" d="M2176.12 139.289 Q2172.69 139.289 2170.7 141.974 Q2168.71 144.636 2168.71 149.289 Q2168.71 153.942 2170.68 156.627 Q2172.67 159.289 2176.12 159.289 Q2179.52 159.289 2181.51 156.604 Q2183.5 153.918 2183.5 149.289 Q2183.5 144.682 2181.51 141.997 Q2179.52 139.289 2176.12 139.289 M2176.12 135.678 Q2181.67 135.678 2184.84 139.289 Q2188.02 142.9 2188.02 149.289 Q2188.02 155.655 2184.84 159.289 Q2181.67 162.9 2176.12 162.9 Q2170.54 162.9 2167.37 159.289 Q2164.22 155.655 2164.22 149.289 Q2164.22 142.9 2167.37 139.289 Q2170.54 135.678 2176.12 135.678 Z" fill="#000000" fill-rule="nonzero" fill-opacity="1" /><path clip-path="url(#clip140)" d="M2212.14 140.238 L2212.14 126.21 L2216.4 126.21 L2216.4 162.229 L2212.14 162.229 L2212.14 158.34 Q2210.79 160.655 2208.73 161.789 Q2206.7 162.9 2203.83 162.9 Q2199.13 162.9 2196.16 159.15 Q2193.22 155.4 2193.22 149.289 Q2193.22 143.178 2196.16 139.428 Q2199.13 135.678 2203.83 135.678 Q2206.7 135.678 2208.73 136.812 Q2210.79 137.923 2212.14 140.238 M2197.62 149.289 Q2197.62 153.988 2199.54 156.673 Q2201.49 159.335 2204.87 159.335 Q2208.25 159.335 2210.19 156.673 Q2212.14 153.988 2212.14 149.289 Q2212.14 144.59 2210.19 141.928 Q2208.25 139.243 2204.87 139.243 Q2201.49 139.243 2199.54 141.928 Q2197.62 144.59 2197.62 149.289 Z" fill="#000000" fill-rule="nonzero" fill-opacity="1" /><path clip-path="url(#clip140)" d="M2247.34 148.201 L2247.34 150.284 L2227.76 150.284 Q2228.04 154.682 2230.4 156.997 Q2232.78 159.289 2237.02 159.289 Q2239.47 159.289 2241.77 158.687 Q2244.08 158.085 2246.35 156.881 L2246.35 160.909 Q2244.06 161.881 2241.65 162.391 Q2239.24 162.9 2236.77 162.9 Q2230.56 162.9 2226.93 159.289 Q2223.32 155.678 2223.32 149.52 Q2223.32 143.155 2226.74 139.428 Q2230.19 135.678 2236.03 135.678 Q2241.26 135.678 2244.29 139.057 Q2247.34 142.414 2247.34 148.201 M2243.09 146.951 Q2243.04 143.456 2241.12 141.372 Q2239.22 139.289 2236.07 139.289 Q2232.51 139.289 2230.35 141.303 Q2228.22 143.317 2227.9 146.974 L2243.09 146.951 Z" fill="#000000" fill-rule="nonzero" fill-opacity="1" /><path clip-path="url(#clip140)" d="M2254.34 126.21 L2258.59 126.21 L2258.59 162.229 L2254.34 162.229 L2254.34 126.21 Z" fill="#000000" fill-rule="nonzero" fill-opacity="1" /><polyline clip-path="url(#clip140)" style="stroke:#ff0000; stroke-linecap:round; stroke-linejoin:round; stroke-width:8; stroke-opacity:1; fill:none" stroke-dasharray="32, 20" points="1412.87,196.789 1554.11,196.789 "/>
<path clip-path="url(#clip140)" d="M1577.65 179.509 L1582.33 179.509 L1582.33 214.069 L1577.65 214.069 L1577.65 179.509 Z" fill="#000000" fill-rule="nonzero" fill-opacity="1" /><path clip-path="url(#clip140)" d="M1608.51 192.078 L1608.51 178.05 L1612.76 178.05 L1612.76 214.069 L1608.51 214.069 L1608.51 210.18 Q1607.16 212.495 1605.1 213.629 Q1603.07 214.74 1600.2 214.74 Q1595.5 214.74 1592.53 210.99 Q1589.59 207.24 1589.59 201.129 Q1589.59 195.018 1592.53 191.268 Q1595.5 187.518 1600.2 187.518 Q1603.07 187.518 1605.1 188.652 Q1607.16 189.763 1608.51 192.078 M1593.99 201.129 Q1593.99 205.828 1595.91 208.513 Q1597.86 211.175 1601.24 211.175 Q1604.62 211.175 1606.56 208.513 Q1608.51 205.828 1608.51 201.129 Q1608.51 196.43 1606.56 193.768 Q1604.62 191.083 1601.24 191.083 Q1597.86 191.083 1595.91 193.768 Q1593.99 196.43 1593.99 201.129 Z" fill="#000000" fill-rule="nonzero" fill-opacity="1" /><path clip-path="url(#clip140)" d="M1643.71 200.041 L1643.71 202.124 L1624.13 202.124 Q1624.41 206.522 1626.77 208.837 Q1629.15 211.129 1633.39 211.129 Q1635.84 211.129 1638.13 210.527 Q1640.45 209.925 1642.72 208.721 L1642.72 212.749 Q1640.43 213.721 1638.02 214.231 Q1635.61 214.74 1633.13 214.74 Q1626.93 214.74 1623.3 211.129 Q1619.69 207.518 1619.69 201.36 Q1619.69 194.995 1623.11 191.268 Q1626.56 187.518 1632.39 187.518 Q1637.63 187.518 1640.66 190.897 Q1643.71 194.254 1643.71 200.041 M1639.45 198.791 Q1639.41 195.296 1637.49 193.212 Q1635.59 191.129 1632.44 191.129 Q1628.88 191.129 1626.72 193.143 Q1624.59 195.157 1624.27 198.814 L1639.45 198.791 Z" fill="#000000" fill-rule="nonzero" fill-opacity="1" /><path clip-path="url(#clip140)" d="M1662.49 201.036 Q1657.32 201.036 1655.33 202.217 Q1653.34 203.397 1653.34 206.245 Q1653.34 208.513 1654.82 209.856 Q1656.33 211.175 1658.9 211.175 Q1662.44 211.175 1664.57 208.675 Q1666.72 206.152 1666.72 201.985 L1666.72 201.036 L1662.49 201.036 M1670.98 199.277 L1670.98 214.069 L1666.72 214.069 L1666.72 210.133 Q1665.26 212.495 1663.09 213.629 Q1660.91 214.74 1657.76 214.74 Q1653.78 214.74 1651.42 212.518 Q1649.08 210.272 1649.08 206.522 Q1649.08 202.147 1652 199.925 Q1654.94 197.703 1660.75 197.703 L1666.72 197.703 L1666.72 197.286 Q1666.72 194.347 1664.78 192.749 Q1662.86 191.129 1659.36 191.129 Q1657.14 191.129 1655.03 191.661 Q1652.93 192.194 1650.98 193.259 L1650.98 189.323 Q1653.32 188.421 1655.52 187.981 Q1657.72 187.518 1659.8 187.518 Q1665.43 187.518 1668.2 190.434 Q1670.98 193.351 1670.98 199.277 Z" fill="#000000" fill-rule="nonzero" fill-opacity="1" /><path clip-path="url(#clip140)" d="M1679.76 178.05 L1684.01 178.05 L1684.01 214.069 L1679.76 214.069 L1679.76 178.05 Z" fill="#000000" fill-rule="nonzero" fill-opacity="1" /><path clip-path="url(#clip140)" d="M1725.06 200.805 Q1725.06 196.175 1723.13 193.629 Q1721.24 191.083 1717.79 191.083 Q1714.36 191.083 1712.44 193.629 Q1710.54 196.175 1710.54 200.805 Q1710.54 205.411 1712.44 207.958 Q1714.36 210.504 1717.79 210.504 Q1721.24 210.504 1723.13 207.958 Q1725.06 205.411 1725.06 200.805 M1729.31 210.851 Q1729.31 217.471 1726.38 220.689 Q1723.44 223.93 1717.37 223.93 Q1715.13 223.93 1713.13 223.582 Q1711.14 223.258 1709.27 222.564 L1709.27 218.42 Q1711.14 219.439 1712.97 219.925 Q1714.8 220.411 1716.7 220.411 Q1720.89 220.411 1722.97 218.212 Q1725.06 216.036 1725.06 211.615 L1725.06 209.508 Q1723.74 211.8 1721.68 212.934 Q1719.62 214.069 1716.75 214.069 Q1711.98 214.069 1709.06 210.434 Q1706.14 206.8 1706.14 200.805 Q1706.14 194.786 1709.06 191.152 Q1711.98 187.518 1716.75 187.518 Q1719.62 187.518 1721.68 188.652 Q1723.74 189.786 1725.06 192.078 L1725.06 188.143 L1729.31 188.143 L1729.31 210.851 Z" fill="#000000" fill-rule="nonzero" fill-opacity="1" /><path clip-path="url(#clip140)" d="M1749.87 201.036 Q1744.71 201.036 1742.72 202.217 Q1740.73 203.397 1740.73 206.245 Q1740.73 208.513 1742.21 209.856 Q1743.71 211.175 1746.28 211.175 Q1749.82 211.175 1751.95 208.675 Q1754.11 206.152 1754.11 201.985 L1754.11 201.036 L1749.87 201.036 M1758.37 199.277 L1758.37 214.069 L1754.11 214.069 L1754.11 210.133 Q1752.65 212.495 1750.47 213.629 Q1748.3 214.74 1745.15 214.74 Q1741.17 214.74 1738.81 212.518 Q1736.47 210.272 1736.47 206.522 Q1736.47 202.147 1739.38 199.925 Q1742.32 197.703 1748.13 197.703 L1754.11 197.703 L1754.11 197.286 Q1754.11 194.347 1752.16 192.749 Q1750.24 191.129 1746.75 191.129 Q1744.52 191.129 1742.42 191.661 Q1740.31 192.194 1738.37 193.259 L1738.37 189.323 Q1740.7 188.421 1742.9 187.981 Q1745.1 187.518 1747.19 187.518 Q1752.81 187.518 1755.59 190.434 Q1758.37 193.351 1758.37 199.277 Z" fill="#000000" fill-rule="nonzero" fill-opacity="1" /><path clip-path="url(#clip140)" d="M1783.67 188.907 L1783.67 192.934 Q1781.86 192.009 1779.92 191.546 Q1777.97 191.083 1775.89 191.083 Q1772.72 191.083 1771.12 192.055 Q1769.55 193.027 1769.55 194.971 Q1769.55 196.453 1770.68 197.309 Q1771.81 198.143 1775.24 198.907 L1776.7 199.231 Q1781.24 200.203 1783.13 201.985 Q1785.06 203.745 1785.06 206.916 Q1785.06 210.527 1782.19 212.633 Q1779.34 214.74 1774.34 214.74 Q1772.25 214.74 1769.99 214.323 Q1767.74 213.93 1765.24 213.12 L1765.24 208.721 Q1767.6 209.948 1769.89 210.573 Q1772.19 211.175 1774.43 211.175 Q1777.44 211.175 1779.06 210.157 Q1780.68 209.115 1780.68 207.24 Q1780.68 205.504 1779.5 204.578 Q1778.34 203.652 1774.38 202.796 L1772.9 202.448 Q1768.94 201.615 1767.19 199.902 Q1765.43 198.166 1765.43 195.157 Q1765.43 191.499 1768.02 189.509 Q1770.61 187.518 1775.38 187.518 Q1777.74 187.518 1779.82 187.865 Q1781.91 188.212 1783.67 188.907 Z" fill="#000000" fill-rule="nonzero" fill-opacity="1" /><path clip-path="url(#clip140)" d="M1792.93 208.189 L1797.81 208.189 L1797.81 212.17 L1794.01 219.578 L1791.03 219.578 L1792.93 212.17 L1792.93 208.189 Z" fill="#000000" fill-rule="nonzero" fill-opacity="1" /><path clip-path="url(#clip140)" d="M1826.1 210.18 L1826.1 223.93 L1821.81 223.93 L1821.81 188.143 L1826.1 188.143 L1826.1 192.078 Q1827.44 189.763 1829.48 188.652 Q1831.54 187.518 1834.38 187.518 Q1839.11 187.518 1842.05 191.268 Q1845.01 195.018 1845.01 201.129 Q1845.01 207.24 1842.05 210.99 Q1839.11 214.74 1834.38 214.74 Q1831.54 214.74 1829.48 213.629 Q1827.44 212.495 1826.1 210.18 M1840.59 201.129 Q1840.59 196.43 1838.64 193.768 Q1836.72 191.083 1833.34 191.083 Q1829.96 191.083 1828.02 193.768 Q1826.1 196.43 1826.1 201.129 Q1826.1 205.828 1828.02 208.513 Q1829.96 211.175 1833.34 211.175 Q1836.72 211.175 1838.64 208.513 Q1840.59 205.828 1840.59 201.129 Z" fill="#000000" fill-rule="nonzero" fill-opacity="1" /><path clip-path="url(#clip140)" d="M1867.09 192.124 Q1866.37 191.708 1865.52 191.522 Q1864.68 191.314 1863.67 191.314 Q1860.06 191.314 1858.11 193.675 Q1856.19 196.013 1856.19 200.411 L1856.19 214.069 L1851.91 214.069 L1851.91 188.143 L1856.19 188.143 L1856.19 192.171 Q1857.53 189.809 1859.68 188.675 Q1861.84 187.518 1864.92 187.518 Q1865.36 187.518 1865.89 187.587 Q1866.42 187.634 1867.07 187.749 L1867.09 192.124 Z" fill="#000000" fill-rule="nonzero" fill-opacity="1" /><path clip-path="url(#clip140)" d="M1892.69 200.041 L1892.69 202.124 L1873.11 202.124 Q1873.39 206.522 1875.75 208.837 Q1878.13 211.129 1882.37 211.129 Q1884.82 211.129 1887.12 210.527 Q1889.43 209.925 1891.7 208.721 L1891.7 212.749 Q1889.41 213.721 1887 214.231 Q1884.59 214.74 1882.12 214.74 Q1875.91 214.74 1872.28 211.129 Q1868.67 207.518 1868.67 201.36 Q1868.67 194.995 1872.09 191.268 Q1875.54 187.518 1881.37 187.518 Q1886.61 187.518 1889.64 190.897 Q1892.69 194.254 1892.69 200.041 M1888.43 198.791 Q1888.39 195.296 1886.47 193.212 Q1884.57 191.129 1881.42 191.129 Q1877.86 191.129 1875.7 193.143 Q1873.57 195.157 1873.25 198.814 L1888.43 198.791 Z" fill="#000000" fill-rule="nonzero" fill-opacity="1" /><path clip-path="url(#clip140)" d="M1916.21 188.907 L1916.21 192.934 Q1914.41 192.009 1912.46 191.546 Q1910.52 191.083 1908.43 191.083 Q1905.26 191.083 1903.67 192.055 Q1902.09 193.027 1902.09 194.971 Q1902.09 196.453 1903.23 197.309 Q1904.36 198.143 1907.79 198.907 L1909.24 199.231 Q1913.78 200.203 1915.68 201.985 Q1917.6 203.745 1917.6 206.916 Q1917.6 210.527 1914.73 212.633 Q1911.88 214.74 1906.88 214.74 Q1904.8 214.74 1902.53 214.323 Q1900.29 213.93 1897.79 213.12 L1897.79 208.721 Q1900.15 209.948 1902.44 210.573 Q1904.73 211.175 1906.98 211.175 Q1909.99 211.175 1911.61 210.157 Q1913.23 209.115 1913.23 207.24 Q1913.23 205.504 1912.05 204.578 Q1910.89 203.652 1906.93 202.796 L1905.45 202.448 Q1901.49 201.615 1899.73 199.902 Q1897.97 198.166 1897.97 195.157 Q1897.97 191.499 1900.56 189.509 Q1903.16 187.518 1907.93 187.518 Q1910.29 187.518 1912.37 187.865 Q1914.45 188.212 1916.21 188.907 Z" fill="#000000" fill-rule="nonzero" fill-opacity="1" /><path clip-path="url(#clip140)" d="M1940.91 188.907 L1940.91 192.934 Q1939.11 192.009 1937.16 191.546 Q1935.22 191.083 1933.13 191.083 Q1929.96 191.083 1928.36 192.055 Q1926.79 193.027 1926.79 194.971 Q1926.79 196.453 1927.93 197.309 Q1929.06 198.143 1932.49 198.907 L1933.94 199.231 Q1938.48 200.203 1940.38 201.985 Q1942.3 203.745 1942.3 206.916 Q1942.3 210.527 1939.43 212.633 Q1936.58 214.74 1931.58 214.74 Q1929.5 214.74 1927.23 214.323 Q1924.99 213.93 1922.49 213.12 L1922.49 208.721 Q1924.85 209.948 1927.14 210.573 Q1929.43 211.175 1931.68 211.175 Q1934.68 211.175 1936.3 210.157 Q1937.92 209.115 1937.92 207.24 Q1937.92 205.504 1936.74 204.578 Q1935.59 203.652 1931.63 202.796 L1930.15 202.448 Q1926.19 201.615 1924.43 199.902 Q1922.67 198.166 1922.67 195.157 Q1922.67 191.499 1925.26 189.509 Q1927.86 187.518 1932.62 187.518 Q1934.99 187.518 1937.07 187.865 Q1939.15 188.212 1940.91 188.907 Z" fill="#000000" fill-rule="nonzero" fill-opacity="1" /><path clip-path="url(#clip140)" d="M1948.64 203.837 L1948.64 188.143 L1952.9 188.143 L1952.9 203.675 Q1952.9 207.356 1954.34 209.208 Q1955.77 211.036 1958.64 211.036 Q1962.09 211.036 1964.08 208.837 Q1966.1 206.638 1966.1 202.842 L1966.1 188.143 L1970.36 188.143 L1970.36 214.069 L1966.1 214.069 L1966.1 210.087 Q1964.55 212.448 1962.49 213.606 Q1960.45 214.74 1957.74 214.74 Q1953.27 214.74 1950.96 211.962 Q1948.64 209.184 1948.64 203.837 M1959.36 187.518 L1959.36 187.518 Z" fill="#000000" fill-rule="nonzero" fill-opacity="1" /><path clip-path="url(#clip140)" d="M1994.15 192.124 Q1993.43 191.708 1992.58 191.522 Q1991.74 191.314 1990.73 191.314 Q1987.11 191.314 1985.17 193.675 Q1983.25 196.013 1983.25 200.411 L1983.25 214.069 L1978.97 214.069 L1978.97 188.143 L1983.25 188.143 L1983.25 192.171 Q1984.59 189.809 1986.74 188.675 Q1988.9 187.518 1991.98 187.518 Q1992.42 187.518 1992.95 187.587 Q1993.48 187.634 1994.13 187.749 L1994.15 192.124 Z" fill="#000000" fill-rule="nonzero" fill-opacity="1" /><path clip-path="url(#clip140)" d="M2019.75 200.041 L2019.75 202.124 L2000.17 202.124 Q2000.45 206.522 2002.81 208.837 Q2005.19 211.129 2009.43 211.129 Q2011.88 211.129 2014.17 210.527 Q2016.49 209.925 2018.76 208.721 L2018.76 212.749 Q2016.47 213.721 2014.06 214.231 Q2011.65 214.74 2009.17 214.74 Q2002.97 214.74 1999.34 211.129 Q1995.73 207.518 1995.73 201.36 Q1995.73 194.995 1999.15 191.268 Q2002.6 187.518 2008.43 187.518 Q2013.67 187.518 2016.7 190.897 Q2019.75 194.254 2019.75 200.041 M2015.49 198.791 Q2015.45 195.296 2013.53 193.212 Q2011.63 191.129 2008.48 191.129 Q2004.92 191.129 2002.76 193.143 Q2000.63 195.157 2000.31 198.814 L2015.49 198.791 Z" fill="#000000" fill-rule="nonzero" fill-opacity="1" /><path clip-path="url(#clip140)" d="M2063.99 200.041 L2063.99 202.124 L2044.41 202.124 Q2044.68 206.522 2047.04 208.837 Q2049.43 211.129 2053.67 211.129 Q2056.12 211.129 2058.41 210.527 Q2060.73 209.925 2062.99 208.721 L2062.99 212.749 Q2060.7 213.721 2058.29 214.231 Q2055.89 214.74 2053.41 214.74 Q2047.21 214.74 2043.57 211.129 Q2039.96 207.518 2039.96 201.36 Q2039.96 194.995 2043.39 191.268 Q2046.84 187.518 2052.67 187.518 Q2057.9 187.518 2060.93 190.897 Q2063.99 194.254 2063.99 200.041 M2059.73 198.791 Q2059.68 195.296 2057.76 193.212 Q2055.86 191.129 2052.72 191.129 Q2049.15 191.129 2047 193.143 Q2044.87 195.157 2044.54 198.814 L2059.73 198.791 Z" fill="#000000" fill-rule="nonzero" fill-opacity="1" /><path clip-path="url(#clip140)" d="M2073.53 201.129 Q2073.53 205.828 2075.45 208.513 Q2077.39 211.175 2080.77 211.175 Q2084.15 211.175 2086.1 208.513 Q2088.04 205.828 2088.04 201.129 Q2088.04 196.43 2086.1 193.768 Q2084.15 191.083 2080.77 191.083 Q2077.39 191.083 2075.45 193.768 Q2073.53 196.43 2073.53 201.129 M2088.04 210.18 Q2086.7 212.495 2084.64 213.629 Q2082.6 214.74 2079.73 214.74 Q2075.03 214.74 2072.07 210.99 Q2069.13 207.24 2069.13 201.129 Q2069.13 195.018 2072.07 191.268 Q2075.03 187.518 2079.73 187.518 Q2082.6 187.518 2084.64 188.652 Q2086.7 189.763 2088.04 192.078 L2088.04 188.143 L2092.3 188.143 L2092.3 223.93 L2088.04 223.93 L2088.04 210.18 Z" fill="#000000" fill-rule="nonzero" fill-opacity="1" /><path clip-path="url(#clip140)" d="M2122.62 198.421 L2122.62 214.069 L2118.36 214.069 L2118.36 198.559 Q2118.36 194.879 2116.93 193.05 Q2115.49 191.222 2112.62 191.222 Q2109.17 191.222 2107.18 193.421 Q2105.19 195.62 2105.19 199.416 L2105.19 214.069 L2100.91 214.069 L2100.91 188.143 L2105.19 188.143 L2105.19 192.171 Q2106.72 189.833 2108.78 188.675 Q2110.86 187.518 2113.57 187.518 Q2118.04 187.518 2120.33 190.296 Q2122.62 193.05 2122.62 198.421 Z" fill="#000000" fill-rule="nonzero" fill-opacity="1" /><polyline clip-path="url(#clip140)" style="stroke:#00008b; stroke-linecap:round; stroke-linejoin:round; stroke-width:8; stroke-opacity:1; fill:none" points="1412.87,248.629 1554.11,248.629 "/>
<path clip-path="url(#clip140)" d="M1594.04 249.705 Q1595.54 250.214 1596.95 251.881 Q1598.39 253.548 1599.82 256.464 L1604.57 265.909 L1599.55 265.909 L1595.13 257.043 Q1593.41 253.571 1591.79 252.436 Q1590.2 251.302 1587.42 251.302 L1582.33 251.302 L1582.33 265.909 L1577.65 265.909 L1577.65 231.349 L1588.2 231.349 Q1594.13 231.349 1597.05 233.825 Q1599.96 236.302 1599.96 241.302 Q1599.96 244.566 1598.44 246.719 Q1596.93 248.872 1594.04 249.705 M1582.33 235.191 L1582.33 247.46 L1588.2 247.46 Q1591.58 247.46 1593.3 245.909 Q1595.03 244.335 1595.03 241.302 Q1595.03 238.27 1593.3 236.742 Q1591.58 235.191 1588.2 235.191 L1582.33 235.191 Z" fill="#000000" fill-rule="nonzero" fill-opacity="1" /><path clip-path="url(#clip140)" d="M1630.45 251.881 L1630.45 253.964 L1610.87 253.964 Q1611.14 258.362 1613.51 260.677 Q1615.89 262.969 1620.13 262.969 Q1622.58 262.969 1624.87 262.367 Q1627.19 261.765 1629.45 260.561 L1629.45 264.589 Q1627.16 265.561 1624.76 266.071 Q1622.35 266.58 1619.87 266.58 Q1613.67 266.58 1610.03 262.969 Q1606.42 259.358 1606.42 253.2 Q1606.42 246.835 1609.85 243.108 Q1613.3 239.358 1619.13 239.358 Q1624.36 239.358 1627.39 242.737 Q1630.45 246.094 1630.45 251.881 M1626.19 250.631 Q1626.14 247.136 1624.22 245.052 Q1622.32 242.969 1619.18 242.969 Q1615.61 242.969 1613.46 244.983 Q1611.33 246.997 1611.01 250.654 L1626.19 250.631 Z" fill="#000000" fill-rule="nonzero" fill-opacity="1" /><path clip-path="url(#clip140)" d="M1649.22 252.876 Q1644.06 252.876 1642.07 254.057 Q1640.08 255.237 1640.08 258.085 Q1640.08 260.353 1641.56 261.696 Q1643.07 263.015 1645.63 263.015 Q1649.18 263.015 1651.31 260.515 Q1653.46 257.992 1653.46 253.825 L1653.46 252.876 L1649.22 252.876 M1657.72 251.117 L1657.72 265.909 L1653.46 265.909 L1653.46 261.973 Q1652 264.335 1649.82 265.469 Q1647.65 266.58 1644.5 266.58 Q1640.52 266.58 1638.16 264.358 Q1635.82 262.112 1635.82 258.362 Q1635.82 253.987 1638.74 251.765 Q1641.68 249.543 1647.49 249.543 L1653.46 249.543 L1653.46 249.126 Q1653.46 246.187 1651.51 244.589 Q1649.59 242.969 1646.1 242.969 Q1643.88 242.969 1641.77 243.501 Q1639.66 244.034 1637.72 245.099 L1637.72 241.163 Q1640.06 240.261 1642.26 239.821 Q1644.45 239.358 1646.54 239.358 Q1652.16 239.358 1654.94 242.274 Q1657.72 245.191 1657.72 251.117 Z" fill="#000000" fill-rule="nonzero" fill-opacity="1" /><path clip-path="url(#clip140)" d="M1666.49 229.89 L1670.75 229.89 L1670.75 265.909 L1666.49 265.909 L1666.49 229.89 Z" fill="#000000" fill-rule="nonzero" fill-opacity="1" /><path clip-path="url(#clip140)" d="M1711.79 252.645 Q1711.79 248.015 1709.87 245.469 Q1707.97 242.923 1704.52 242.923 Q1701.1 242.923 1699.18 245.469 Q1697.28 248.015 1697.28 252.645 Q1697.28 257.251 1699.18 259.798 Q1701.1 262.344 1704.52 262.344 Q1707.97 262.344 1709.87 259.798 Q1711.79 257.251 1711.79 252.645 M1716.05 262.691 Q1716.05 269.311 1713.11 272.529 Q1710.17 275.77 1704.11 275.77 Q1701.86 275.77 1699.87 275.422 Q1697.88 275.098 1696 274.404 L1696 270.26 Q1697.88 271.279 1699.71 271.765 Q1701.54 272.251 1703.44 272.251 Q1707.63 272.251 1709.71 270.052 Q1711.79 267.876 1711.79 263.455 L1711.79 261.348 Q1710.47 263.64 1708.41 264.774 Q1706.35 265.909 1703.48 265.909 Q1698.71 265.909 1695.8 262.274 Q1692.88 258.64 1692.88 252.645 Q1692.88 246.626 1695.8 242.992 Q1698.71 239.358 1703.48 239.358 Q1706.35 239.358 1708.41 240.492 Q1710.47 241.626 1711.79 243.918 L1711.79 239.983 L1716.05 239.983 L1716.05 262.691 Z" fill="#000000" fill-rule="nonzero" fill-opacity="1" /><path clip-path="url(#clip140)" d="M1736.61 252.876 Q1731.44 252.876 1729.45 254.057 Q1727.46 255.237 1727.46 258.085 Q1727.46 260.353 1728.94 261.696 Q1730.45 263.015 1733.02 263.015 Q1736.56 263.015 1738.69 260.515 Q1740.84 257.992 1740.84 253.825 L1740.84 252.876 L1736.61 252.876 M1745.1 251.117 L1745.1 265.909 L1740.84 265.909 L1740.84 261.973 Q1739.38 264.335 1737.21 265.469 Q1735.03 266.58 1731.88 266.58 Q1727.9 266.58 1725.54 264.358 Q1723.2 262.112 1723.2 258.362 Q1723.2 253.987 1726.12 251.765 Q1729.06 249.543 1734.87 249.543 L1740.84 249.543 L1740.84 249.126 Q1740.84 246.187 1738.9 244.589 Q1736.98 242.969 1733.48 242.969 Q1731.26 242.969 1729.15 243.501 Q1727.05 244.034 1725.1 245.099 L1725.1 241.163 Q1727.44 240.261 1729.64 239.821 Q1731.84 239.358 1733.92 239.358 Q1739.55 239.358 1742.32 242.274 Q1745.1 245.191 1745.1 251.117 Z" fill="#000000" fill-rule="nonzero" fill-opacity="1" /><path clip-path="url(#clip140)" d="M1770.4 240.747 L1770.4 244.774 Q1768.6 243.849 1766.65 243.386 Q1764.71 242.923 1762.62 242.923 Q1759.45 242.923 1757.86 243.895 Q1756.28 244.867 1756.28 246.811 Q1756.28 248.293 1757.42 249.149 Q1758.55 249.983 1761.98 250.747 L1763.44 251.071 Q1767.97 252.043 1769.87 253.825 Q1771.79 255.585 1771.79 258.756 Q1771.79 262.367 1768.92 264.473 Q1766.07 266.58 1761.07 266.58 Q1758.99 266.58 1756.72 266.163 Q1754.48 265.77 1751.98 264.96 L1751.98 260.561 Q1754.34 261.788 1756.63 262.413 Q1758.92 263.015 1761.17 263.015 Q1764.18 263.015 1765.8 261.997 Q1767.42 260.955 1767.42 259.08 Q1767.42 257.344 1766.24 256.418 Q1765.08 255.492 1761.12 254.636 L1759.64 254.288 Q1755.68 253.455 1753.92 251.742 Q1752.16 250.006 1752.16 246.997 Q1752.16 243.339 1754.75 241.349 Q1757.35 239.358 1762.12 239.358 Q1764.48 239.358 1766.56 239.705 Q1768.64 240.052 1770.4 240.747 Z" fill="#000000" fill-rule="nonzero" fill-opacity="1" /><path clip-path="url(#clip140)" d="M1779.66 260.029 L1784.55 260.029 L1784.55 264.01 L1780.75 271.418 L1777.76 271.418 L1779.66 264.01 L1779.66 260.029 Z" fill="#000000" fill-rule="nonzero" fill-opacity="1" /><path clip-path="url(#clip140)" d="M1812.83 262.02 L1812.83 275.77 L1808.55 275.77 L1808.55 239.983 L1812.83 239.983 L1812.83 243.918 Q1814.18 241.603 1816.21 240.492 Q1818.27 239.358 1821.12 239.358 Q1825.84 239.358 1828.78 243.108 Q1831.74 246.858 1831.74 252.969 Q1831.74 259.08 1828.78 262.83 Q1825.84 266.58 1821.12 266.58 Q1818.27 266.58 1816.21 265.469 Q1814.18 264.335 1812.83 262.02 M1827.32 252.969 Q1827.32 248.27 1825.38 245.608 Q1823.46 242.923 1820.08 242.923 Q1816.7 242.923 1814.75 245.608 Q1812.83 248.27 1812.83 252.969 Q1812.83 257.668 1814.75 260.353 Q1816.7 263.015 1820.08 263.015 Q1823.46 263.015 1825.38 260.353 Q1827.32 257.668 1827.32 252.969 Z" fill="#000000" fill-rule="nonzero" fill-opacity="1" /><path clip-path="url(#clip140)" d="M1853.83 243.964 Q1853.11 243.548 1852.25 243.362 Q1851.42 243.154 1850.4 243.154 Q1846.79 243.154 1844.85 245.515 Q1842.93 247.853 1842.93 252.251 L1842.93 265.909 L1838.64 265.909 L1838.64 239.983 L1842.93 239.983 L1842.93 244.011 Q1844.27 241.649 1846.42 240.515 Q1848.57 239.358 1851.65 239.358 Q1852.09 239.358 1852.62 239.427 Q1853.16 239.474 1853.81 239.589 L1853.83 243.964 Z" fill="#000000" fill-rule="nonzero" fill-opacity="1" /><path clip-path="url(#clip140)" d="M1879.43 251.881 L1879.43 253.964 L1859.85 253.964 Q1860.12 258.362 1862.49 260.677 Q1864.87 262.969 1869.11 262.969 Q1871.56 262.969 1873.85 262.367 Q1876.17 261.765 1878.43 260.561 L1878.43 264.589 Q1876.14 265.561 1873.74 266.071 Q1871.33 266.58 1868.85 266.58 Q1862.65 266.58 1859.01 262.969 Q1855.4 259.358 1855.4 253.2 Q1855.4 246.835 1858.83 243.108 Q1862.28 239.358 1868.11 239.358 Q1873.34 239.358 1876.37 242.737 Q1879.43 246.094 1879.43 251.881 M1875.17 250.631 Q1875.12 247.136 1873.2 245.052 Q1871.3 242.969 1868.16 242.969 Q1864.59 242.969 1862.44 244.983 Q1860.31 246.997 1859.99 250.654 L1875.17 250.631 Z" fill="#000000" fill-rule="nonzero" fill-opacity="1" /><path clip-path="url(#clip140)" d="M1902.95 240.747 L1902.95 244.774 Q1901.14 243.849 1899.2 243.386 Q1897.25 242.923 1895.17 242.923 Q1892 242.923 1890.4 243.895 Q1888.83 244.867 1888.83 246.811 Q1888.83 248.293 1889.96 249.149 Q1891.1 249.983 1894.52 250.747 L1895.98 251.071 Q1900.52 252.043 1902.42 253.825 Q1904.34 255.585 1904.34 258.756 Q1904.34 262.367 1901.47 264.473 Q1898.62 266.58 1893.62 266.58 Q1891.54 266.58 1889.27 266.163 Q1887.02 265.77 1884.52 264.96 L1884.52 260.561 Q1886.88 261.788 1889.18 262.413 Q1891.47 263.015 1893.71 263.015 Q1896.72 263.015 1898.34 261.997 Q1899.96 260.955 1899.96 259.08 Q1899.96 257.344 1898.78 256.418 Q1897.62 255.492 1893.67 254.636 L1892.18 254.288 Q1888.23 253.455 1886.47 251.742 Q1884.71 250.006 1884.71 246.997 Q1884.71 243.339 1887.3 241.349 Q1889.89 239.358 1894.66 239.358 Q1897.02 239.358 1899.11 239.705 Q1901.19 240.052 1902.95 240.747 Z" fill="#000000" fill-rule="nonzero" fill-opacity="1" /><path clip-path="url(#clip140)" d="M1927.65 240.747 L1927.65 244.774 Q1925.84 243.849 1923.9 243.386 Q1921.95 242.923 1919.87 242.923 Q1916.7 242.923 1915.1 243.895 Q1913.53 244.867 1913.53 246.811 Q1913.53 248.293 1914.66 249.149 Q1915.8 249.983 1919.22 250.747 L1920.68 251.071 Q1925.22 252.043 1927.11 253.825 Q1929.04 255.585 1929.04 258.756 Q1929.04 262.367 1926.17 264.473 Q1923.32 266.58 1918.32 266.58 Q1916.24 266.58 1913.97 266.163 Q1911.72 265.77 1909.22 264.96 L1909.22 260.561 Q1911.58 261.788 1913.87 262.413 Q1916.17 263.015 1918.41 263.015 Q1921.42 263.015 1923.04 261.997 Q1924.66 260.955 1924.66 259.08 Q1924.66 257.344 1923.48 256.418 Q1922.32 255.492 1918.36 254.636 L1916.88 254.288 Q1912.93 253.455 1911.17 251.742 Q1909.41 250.006 1909.41 246.997 Q1909.41 243.339 1912 241.349 Q1914.59 239.358 1919.36 239.358 Q1921.72 239.358 1923.8 239.705 Q1925.89 240.052 1927.65 240.747 Z" fill="#000000" fill-rule="nonzero" fill-opacity="1" /><path clip-path="url(#clip140)" d="M1935.38 255.677 L1935.38 239.983 L1939.64 239.983 L1939.64 255.515 Q1939.64 259.196 1941.07 261.048 Q1942.51 262.876 1945.38 262.876 Q1948.83 262.876 1950.82 260.677 Q1952.83 258.478 1952.83 254.682 L1952.83 239.983 L1957.09 239.983 L1957.09 265.909 L1952.83 265.909 L1952.83 261.927 Q1951.28 264.288 1949.22 265.446 Q1947.18 266.58 1944.48 266.58 Q1940.01 266.58 1937.69 263.802 Q1935.38 261.024 1935.38 255.677 M1946.1 239.358 L1946.1 239.358 Z" fill="#000000" fill-rule="nonzero" fill-opacity="1" /><path clip-path="url(#clip140)" d="M1980.89 243.964 Q1980.17 243.548 1979.31 243.362 Q1978.48 243.154 1977.46 243.154 Q1973.85 243.154 1971.91 245.515 Q1969.98 247.853 1969.98 252.251 L1969.98 265.909 L1965.7 265.909 L1965.7 239.983 L1969.98 239.983 L1969.98 244.011 Q1971.33 241.649 1973.48 240.515 Q1975.63 239.358 1978.71 239.358 Q1979.15 239.358 1979.68 239.427 Q1980.22 239.474 1980.86 239.589 L1980.89 243.964 Z" fill="#000000" fill-rule="nonzero" fill-opacity="1" /><path clip-path="url(#clip140)" d="M2006.49 251.881 L2006.49 253.964 L1986.91 253.964 Q1987.18 258.362 1989.55 260.677 Q1991.93 262.969 1996.17 262.969 Q1998.62 262.969 2000.91 262.367 Q2003.23 261.765 2005.49 260.561 L2005.49 264.589 Q2003.2 265.561 2000.8 266.071 Q1998.39 266.58 1995.91 266.58 Q1989.71 266.58 1986.07 262.969 Q1982.46 259.358 1982.46 253.2 Q1982.46 246.835 1985.89 243.108 Q1989.34 239.358 1995.17 239.358 Q2000.4 239.358 2003.43 242.737 Q2006.49 246.094 2006.49 251.881 M2002.23 250.631 Q2002.18 247.136 2000.26 245.052 Q1998.36 242.969 1995.22 242.969 Q1991.65 242.969 1989.5 244.983 Q1987.37 246.997 1987.05 250.654 L2002.23 250.631 Z" fill="#000000" fill-rule="nonzero" fill-opacity="1" /><path clip-path="url(#clip140)" d="M2050.73 251.881 L2050.73 253.964 L2031.14 253.964 Q2031.42 258.362 2033.78 260.677 Q2036.17 262.969 2040.4 262.969 Q2042.85 262.969 2045.15 262.367 Q2047.46 261.765 2049.73 260.561 L2049.73 264.589 Q2047.44 265.561 2045.03 266.071 Q2042.62 266.58 2040.15 266.58 Q2033.94 266.58 2030.31 262.969 Q2026.7 259.358 2026.7 253.2 Q2026.7 246.835 2030.12 243.108 Q2033.57 239.358 2039.41 239.358 Q2044.64 239.358 2047.67 242.737 Q2050.73 246.094 2050.73 251.881 M2046.47 250.631 Q2046.42 247.136 2044.5 245.052 Q2042.6 242.969 2039.45 242.969 Q2035.89 242.969 2033.73 244.983 Q2031.61 246.997 2031.28 250.654 L2046.47 250.631 Z" fill="#000000" fill-rule="nonzero" fill-opacity="1" /><path clip-path="url(#clip140)" d="M2060.26 252.969 Q2060.26 257.668 2062.18 260.353 Q2064.13 263.015 2067.51 263.015 Q2070.89 263.015 2072.83 260.353 Q2074.78 257.668 2074.78 252.969 Q2074.78 248.27 2072.83 245.608 Q2070.89 242.923 2067.51 242.923 Q2064.13 242.923 2062.18 245.608 Q2060.26 248.27 2060.26 252.969 M2074.78 262.02 Q2073.43 264.335 2071.37 265.469 Q2069.34 266.58 2066.47 266.58 Q2061.77 266.58 2058.8 262.83 Q2055.86 259.08 2055.86 252.969 Q2055.86 246.858 2058.8 243.108 Q2061.77 239.358 2066.47 239.358 Q2069.34 239.358 2071.37 240.492 Q2073.43 241.603 2074.78 243.918 L2074.78 239.983 L2079.04 239.983 L2079.04 275.77 L2074.78 275.77 L2074.78 262.02 Z" fill="#000000" fill-rule="nonzero" fill-opacity="1" /><path clip-path="url(#clip140)" d="M2109.36 250.261 L2109.36 265.909 L2105.1 265.909 L2105.1 250.399 Q2105.1 246.719 2103.66 244.89 Q2102.23 243.062 2099.36 243.062 Q2095.91 243.062 2093.92 245.261 Q2091.93 247.46 2091.93 251.256 L2091.93 265.909 L2087.65 265.909 L2087.65 239.983 L2091.93 239.983 L2091.93 244.011 Q2093.46 241.673 2095.52 240.515 Q2097.6 239.358 2100.31 239.358 Q2104.78 239.358 2107.07 242.136 Q2109.36 244.89 2109.36 250.261 Z" fill="#000000" fill-rule="nonzero" fill-opacity="1" /><polyline clip-path="url(#clip140)" style="stroke:#000000; stroke-linecap:round; stroke-linejoin:round; stroke-width:4; stroke-opacity:1; fill:none" stroke-dasharray="16, 10" points="1412.87,300.469 1554.11,300.469 "/>
<path clip-path="url(#clip140)" d="M1582.33 301.244 L1582.33 313.906 L1589.82 313.906 Q1593.6 313.906 1595.4 312.355 Q1597.23 310.781 1597.23 307.563 Q1597.23 304.323 1595.4 302.795 Q1593.6 301.244 1589.82 301.244 L1582.33 301.244 M1582.33 287.031 L1582.33 297.448 L1589.25 297.448 Q1592.67 297.448 1594.34 296.175 Q1596.03 294.878 1596.03 292.239 Q1596.03 289.624 1594.34 288.327 Q1592.67 287.031 1589.25 287.031 L1582.33 287.031 M1577.65 283.189 L1589.59 283.189 Q1594.94 283.189 1597.83 285.411 Q1600.73 287.633 1600.73 291.73 Q1600.73 294.902 1599.25 296.777 Q1597.76 298.651 1594.89 299.114 Q1598.34 299.855 1600.24 302.216 Q1602.16 304.554 1602.16 308.073 Q1602.16 312.702 1599.01 315.225 Q1595.87 317.749 1590.06 317.749 L1577.65 317.749 L1577.65 283.189 Z" fill="#000000" fill-rule="nonzero" fill-opacity="1" /><path clip-path="url(#clip140)" d="M1620.03 294.809 Q1616.61 294.809 1614.62 297.494 Q1612.63 300.156 1612.63 304.809 Q1612.63 309.462 1614.59 312.147 Q1616.58 314.809 1620.03 314.809 Q1623.44 314.809 1625.43 312.124 Q1627.42 309.438 1627.42 304.809 Q1627.42 300.202 1625.43 297.517 Q1623.44 294.809 1620.03 294.809 M1620.03 291.198 Q1625.59 291.198 1628.76 294.809 Q1631.93 298.42 1631.93 304.809 Q1631.93 311.175 1628.76 314.809 Q1625.59 318.42 1620.03 318.42 Q1614.45 318.42 1611.28 314.809 Q1608.14 311.175 1608.14 304.809 Q1608.14 298.42 1611.28 294.809 Q1614.45 291.198 1620.03 291.198 Z" fill="#000000" fill-rule="nonzero" fill-opacity="1" /><path clip-path="url(#clip140)" d="M1638.99 291.823 L1643.25 291.823 L1643.25 317.749 L1638.99 317.749 L1638.99 291.823 M1638.99 281.73 L1643.25 281.73 L1643.25 287.124 L1638.99 287.124 L1638.99 281.73 Z" fill="#000000" fill-rule="nonzero" fill-opacity="1" /><path clip-path="url(#clip140)" d="M1652.16 281.73 L1656.42 281.73 L1656.42 317.749 L1652.16 317.749 L1652.16 281.73 Z" fill="#000000" fill-rule="nonzero" fill-opacity="1" /><path clip-path="url(#clip140)" d="M1665.33 291.823 L1669.59 291.823 L1669.59 317.749 L1665.33 317.749 L1665.33 291.823 M1665.33 281.73 L1669.59 281.73 L1669.59 287.124 L1665.33 287.124 L1665.33 281.73 Z" fill="#000000" fill-rule="nonzero" fill-opacity="1" /><path clip-path="url(#clip140)" d="M1700.06 302.101 L1700.06 317.749 L1695.8 317.749 L1695.8 302.239 Q1695.8 298.559 1694.36 296.73 Q1692.93 294.902 1690.06 294.902 Q1686.61 294.902 1684.62 297.101 Q1682.63 299.3 1682.63 303.096 L1682.63 317.749 L1678.34 317.749 L1678.34 291.823 L1682.63 291.823 L1682.63 295.851 Q1684.15 293.513 1686.21 292.355 Q1688.3 291.198 1691.01 291.198 Q1695.47 291.198 1697.76 293.976 Q1700.06 296.73 1700.06 302.101 Z" fill="#000000" fill-rule="nonzero" fill-opacity="1" /><path clip-path="url(#clip140)" d="M1725.61 304.485 Q1725.61 299.855 1723.69 297.309 Q1721.79 294.763 1718.34 294.763 Q1714.92 294.763 1713 297.309 Q1711.1 299.855 1711.1 304.485 Q1711.1 309.091 1713 311.638 Q1714.92 314.184 1718.34 314.184 Q1721.79 314.184 1723.69 311.638 Q1725.61 309.091 1725.61 304.485 M1729.87 314.531 Q1729.87 321.151 1726.93 324.369 Q1723.99 327.61 1717.93 327.61 Q1715.68 327.61 1713.69 327.262 Q1711.7 326.938 1709.82 326.244 L1709.82 322.1 Q1711.7 323.119 1713.53 323.605 Q1715.36 324.091 1717.25 324.091 Q1721.44 324.091 1723.53 321.892 Q1725.61 319.716 1725.61 315.295 L1725.61 313.188 Q1724.29 315.48 1722.23 316.614 Q1720.17 317.749 1717.3 317.749 Q1712.53 317.749 1709.62 314.114 Q1706.7 310.48 1706.7 304.485 Q1706.7 298.466 1709.62 294.832 Q1712.53 291.198 1717.3 291.198 Q1720.17 291.198 1722.23 292.332 Q1724.29 293.466 1725.61 295.758 L1725.61 291.823 L1729.87 291.823 L1729.87 314.531 Z" fill="#000000" fill-rule="nonzero" fill-opacity="1" /><path clip-path="url(#clip140)" d="M1757.83 313.86 L1757.83 327.61 L1753.55 327.61 L1753.55 291.823 L1757.83 291.823 L1757.83 295.758 Q1759.18 293.443 1761.21 292.332 Q1763.27 291.198 1766.12 291.198 Q1770.84 291.198 1773.78 294.948 Q1776.75 298.698 1776.75 304.809 Q1776.75 310.92 1773.78 314.67 Q1770.84 318.42 1766.12 318.42 Q1763.27 318.42 1761.21 317.309 Q1759.18 316.175 1757.83 313.86 M1772.32 304.809 Q1772.32 300.11 1770.38 297.448 Q1768.46 294.763 1765.08 294.763 Q1761.7 294.763 1759.75 297.448 Q1757.83 300.11 1757.83 304.809 Q1757.83 309.508 1759.75 312.193 Q1761.7 314.855 1765.08 314.855 Q1768.46 314.855 1770.38 312.193 Q1772.32 309.508 1772.32 304.809 Z" fill="#000000" fill-rule="nonzero" fill-opacity="1" /><path clip-path="url(#clip140)" d="M1793.85 294.809 Q1790.43 294.809 1788.44 297.494 Q1786.44 300.156 1786.44 304.809 Q1786.44 309.462 1788.41 312.147 Q1790.4 314.809 1793.85 314.809 Q1797.25 314.809 1799.25 312.124 Q1801.24 309.438 1801.24 304.809 Q1801.24 300.202 1799.25 297.517 Q1797.25 294.809 1793.85 294.809 M1793.85 291.198 Q1799.41 291.198 1802.58 294.809 Q1805.75 298.42 1805.75 304.809 Q1805.75 311.175 1802.58 314.809 Q1799.41 318.42 1793.85 318.42 Q1788.27 318.42 1785.1 314.809 Q1781.95 311.175 1781.95 304.809 Q1781.95 298.42 1785.1 294.809 Q1788.27 291.198 1793.85 291.198 Z" fill="#000000" fill-rule="nonzero" fill-opacity="1" /><path clip-path="url(#clip140)" d="M1812.81 291.823 L1817.07 291.823 L1817.07 317.749 L1812.81 317.749 L1812.81 291.823 M1812.81 281.73 L1817.07 281.73 L1817.07 287.124 L1812.81 287.124 L1812.81 281.73 Z" fill="#000000" fill-rule="nonzero" fill-opacity="1" /><path clip-path="url(#clip140)" d="M1847.53 302.101 L1847.53 317.749 L1843.27 317.749 L1843.27 302.239 Q1843.27 298.559 1841.84 296.73 Q1840.4 294.902 1837.53 294.902 Q1834.08 294.902 1832.09 297.101 Q1830.1 299.3 1830.1 303.096 L1830.1 317.749 L1825.82 317.749 L1825.82 291.823 L1830.1 291.823 L1830.1 295.851 Q1831.63 293.513 1833.69 292.355 Q1835.77 291.198 1838.48 291.198 Q1842.95 291.198 1845.24 293.976 Q1847.53 296.73 1847.53 302.101 Z" fill="#000000" fill-rule="nonzero" fill-opacity="1" /><path clip-path="url(#clip140)" d="M1860.24 284.462 L1860.24 291.823 L1869.01 291.823 L1869.01 295.133 L1860.24 295.133 L1860.24 309.207 Q1860.24 312.378 1861.1 313.281 Q1861.98 314.184 1864.64 314.184 L1869.01 314.184 L1869.01 317.749 L1864.64 317.749 Q1859.71 317.749 1857.83 315.92 Q1855.96 314.068 1855.96 309.207 L1855.96 295.133 L1852.83 295.133 L1852.83 291.823 L1855.96 291.823 L1855.96 284.462 L1860.24 284.462 Z" fill="#000000" fill-rule="nonzero" fill-opacity="1" /><path clip-path="url(#clip140)" d="M1911.24 302.101 L1911.24 317.749 L1906.98 317.749 L1906.98 302.239 Q1906.98 298.559 1905.54 296.73 Q1904.11 294.902 1901.24 294.902 Q1897.79 294.902 1895.8 297.101 Q1893.8 299.3 1893.8 303.096 L1893.8 317.749 L1889.52 317.749 L1889.52 291.823 L1893.8 291.823 L1893.8 295.851 Q1895.33 293.513 1897.39 292.355 Q1899.48 291.198 1902.18 291.198 Q1906.65 291.198 1908.94 293.976 Q1911.24 296.73 1911.24 302.101 Z" fill="#000000" fill-rule="nonzero" fill-opacity="1" /><path clip-path="url(#clip140)" d="M1919.73 291.823 L1923.99 291.823 L1923.99 317.749 L1919.73 317.749 L1919.73 291.823 M1919.73 281.73 L1923.99 281.73 L1923.99 287.124 L1919.73 287.124 L1919.73 281.73 Z" fill="#000000" fill-rule="nonzero" fill-opacity="1" /><path clip-path="url(#clip140)" d="M1937.11 284.462 L1937.11 291.823 L1945.89 291.823 L1945.89 295.133 L1937.11 295.133 L1937.11 309.207 Q1937.11 312.378 1937.97 313.281 Q1938.85 314.184 1941.51 314.184 L1945.89 314.184 L1945.89 317.749 L1941.51 317.749 Q1936.58 317.749 1934.71 315.92 Q1932.83 314.068 1932.83 309.207 L1932.83 295.133 L1929.71 295.133 L1929.71 291.823 L1932.83 291.823 L1932.83 284.462 L1937.11 284.462 Z" fill="#000000" fill-rule="nonzero" fill-opacity="1" /><path clip-path="url(#clip140)" d="M1966.51 295.804 Q1965.8 295.388 1964.94 295.202 Q1964.11 294.994 1963.09 294.994 Q1959.48 294.994 1957.53 297.355 Q1955.61 299.693 1955.61 304.091 L1955.61 317.749 L1951.33 317.749 L1951.33 291.823 L1955.61 291.823 L1955.61 295.851 Q1956.95 293.489 1959.11 292.355 Q1961.26 291.198 1964.34 291.198 Q1964.78 291.198 1965.31 291.267 Q1965.84 291.314 1966.49 291.429 L1966.51 295.804 Z" fill="#000000" fill-rule="nonzero" fill-opacity="1" /><path clip-path="url(#clip140)" d="M1979.98 294.809 Q1976.56 294.809 1974.57 297.494 Q1972.58 300.156 1972.58 304.809 Q1972.58 309.462 1974.55 312.147 Q1976.54 314.809 1979.98 314.809 Q1983.39 314.809 1985.38 312.124 Q1987.37 309.438 1987.37 304.809 Q1987.37 300.202 1985.38 297.517 Q1983.39 294.809 1979.98 294.809 M1979.98 291.198 Q1985.54 291.198 1988.71 294.809 Q1991.88 298.42 1991.88 304.809 Q1991.88 311.175 1988.71 314.809 Q1985.54 318.42 1979.98 318.42 Q1974.41 318.42 1971.23 314.809 Q1968.09 311.175 1968.09 304.809 Q1968.09 298.42 1971.23 294.809 Q1974.41 291.198 1979.98 291.198 Z" fill="#000000" fill-rule="nonzero" fill-opacity="1" /><path clip-path="url(#clip140)" d="M2016 304.485 Q2016 299.855 2014.08 297.309 Q2012.18 294.763 2008.73 294.763 Q2005.31 294.763 2003.39 297.309 Q2001.49 299.855 2001.49 304.485 Q2001.49 309.091 2003.39 311.638 Q2005.31 314.184 2008.73 314.184 Q2012.18 314.184 2014.08 311.638 Q2016 309.091 2016 304.485 M2020.26 314.531 Q2020.26 321.151 2017.32 324.369 Q2014.38 327.61 2008.32 327.61 Q2006.07 327.61 2004.08 327.262 Q2002.09 326.938 2000.22 326.244 L2000.22 322.1 Q2002.09 323.119 2003.92 323.605 Q2005.75 324.091 2007.65 324.091 Q2011.84 324.091 2013.92 321.892 Q2016 319.716 2016 315.295 L2016 313.188 Q2014.68 315.48 2012.62 316.614 Q2010.56 317.749 2007.69 317.749 Q2002.92 317.749 2000.01 314.114 Q1997.09 310.48 1997.09 304.485 Q1997.09 298.466 2000.01 294.832 Q2002.92 291.198 2007.69 291.198 Q2010.56 291.198 2012.62 292.332 Q2014.68 293.466 2016 295.758 L2016 291.823 L2020.26 291.823 L2020.26 314.531 Z" fill="#000000" fill-rule="nonzero" fill-opacity="1" /><path clip-path="url(#clip140)" d="M2051.21 303.721 L2051.21 305.804 L2031.63 305.804 Q2031.91 310.202 2034.27 312.517 Q2036.65 314.809 2040.89 314.809 Q2043.34 314.809 2045.63 314.207 Q2047.95 313.605 2050.22 312.401 L2050.22 316.429 Q2047.92 317.401 2045.52 317.911 Q2043.11 318.42 2040.63 318.42 Q2034.43 318.42 2030.79 314.809 Q2027.18 311.198 2027.18 305.04 Q2027.18 298.675 2030.61 294.948 Q2034.06 291.198 2039.89 291.198 Q2045.12 291.198 2048.16 294.577 Q2051.21 297.934 2051.21 303.721 M2046.95 302.471 Q2046.91 298.976 2044.98 296.892 Q2043.09 294.809 2039.94 294.809 Q2036.37 294.809 2034.22 296.823 Q2032.09 298.837 2031.77 302.494 L2046.95 302.471 Z" fill="#000000" fill-rule="nonzero" fill-opacity="1" /><path clip-path="url(#clip140)" d="M2079.75 302.101 L2079.75 317.749 L2075.49 317.749 L2075.49 302.239 Q2075.49 298.559 2074.06 296.73 Q2072.62 294.902 2069.75 294.902 Q2066.3 294.902 2064.31 297.101 Q2062.32 299.3 2062.32 303.096 L2062.32 317.749 L2058.04 317.749 L2058.04 291.823 L2062.32 291.823 L2062.32 295.851 Q2063.85 293.513 2065.91 292.355 Q2067.99 291.198 2070.7 291.198 Q2075.17 291.198 2077.46 293.976 Q2079.75 296.73 2079.75 302.101 Z" fill="#000000" fill-rule="nonzero" fill-opacity="1" /></svg>
