<?xml version="1.0" encoding="utf-8"?>
<svg xmlns="http://www.w3.org/2000/svg" xmlns:xlink="http://www.w3.org/1999/xlink" width="600" height="400" viewBox="0 0 2400 1600">
<defs>
  <clipPath id="clip570">
    <rect x="0" y="0" width="2400" height="1600"/>
  </clipPath>
</defs>
<path clip-path="url(#clip570)" d="
M0 1600 L2400 1600 L2400 0 L0 0  Z
  " fill="#ffffff" fill-rule="evenodd" fill-opacity="1"/>
<defs>
  <clipPath id="clip571">
    <rect x="480" y="0" width="1681" height="1600"/>
  </clipPath>
</defs>
<path clip-path="url(#clip570)" d="
M201.232 1410.9 L2352.76 1410.9 L2352.76 47.2441 L201.232 47.2441  Z
  " fill="#ffffff" fill-rule="evenodd" fill-opacity="1"/>
<defs>
  <clipPath id="clip572">
    <rect x="201" y="47" width="2153" height="1365"/>
  </clipPath>
</defs>
<polyline clip-path="url(#clip572)" style="stroke:#000000; stroke-linecap:round; stroke-linejoin:round; stroke-width:2; stroke-opacity:0.1; fill:none" points="
  241.622,1410.9 241.622,47.2441 
  "/>
<polyline clip-path="url(#clip572)" style="stroke:#000000; stroke-linecap:round; stroke-linejoin:round; stroke-width:2; stroke-opacity:0.1; fill:none" points="
  754.182,1410.9 754.182,47.2441 
  "/>
<polyline clip-path="url(#clip572)" style="stroke:#000000; stroke-linecap:round; stroke-linejoin:round; stroke-width:2; stroke-opacity:0.1; fill:none" points="
  1266.74,1410.9 1266.74,47.2441 
  "/>
<polyline clip-path="url(#clip572)" style="stroke:#000000; stroke-linecap:round; stroke-linejoin:round; stroke-width:2; stroke-opacity:0.1; fill:none" points="
  1779.3,1410.9 1779.3,47.2441 
  "/>
<polyline clip-path="url(#clip572)" style="stroke:#000000; stroke-linecap:round; stroke-linejoin:round; stroke-width:2; stroke-opacity:0.1; fill:none" points="
  2291.86,1410.9 2291.86,47.2441 
  "/>
<polyline clip-path="url(#clip570)" style="stroke:#000000; stroke-linecap:round; stroke-linejoin:round; stroke-width:4; stroke-opacity:1; fill:none" points="
  201.232,1410.9 2352.76,1410.9 
  "/>
<polyline clip-path="url(#clip570)" style="stroke:#000000; stroke-linecap:round; stroke-linejoin:round; stroke-width:4; stroke-opacity:1; fill:none" points="
  241.622,1410.9 241.622,1392 
  "/>
<polyline clip-path="url(#clip570)" style="stroke:#000000; stroke-linecap:round; stroke-linejoin:round; stroke-width:4; stroke-opacity:1; fill:none" points="
  754.182,1410.9 754.182,1392 
  "/>
<polyline clip-path="url(#clip570)" style="stroke:#000000; stroke-linecap:round; stroke-linejoin:round; stroke-width:4; stroke-opacity:1; fill:none" points="
  1266.74,1410.9 1266.74,1392 
  "/>
<polyline clip-path="url(#clip570)" style="stroke:#000000; stroke-linecap:round; stroke-linejoin:round; stroke-width:4; stroke-opacity:1; fill:none" points="
  1779.3,1410.9 1779.3,1392 
  "/>
<polyline clip-path="url(#clip570)" style="stroke:#000000; stroke-linecap:round; stroke-linejoin:round; stroke-width:4; stroke-opacity:1; fill:none" points="
  2291.86,1410.9 2291.86,1392 
  "/>
<path clip-path="url(#clip570)" d="M241.622 1441.82 Q238.011 1441.82 236.182 1445.38 Q234.377 1448.92 234.377 1456.05 Q234.377 1463.16 236.182 1466.72 Q238.011 1470.26 241.622 1470.26 Q245.256 1470.26 247.062 1466.72 Q248.89 1463.16 248.89 1456.05 Q248.89 1448.92 247.062 1445.38 Q245.256 1441.82 241.622 1441.82 M241.622 1438.11 Q247.432 1438.11 250.488 1442.72 Q253.566 1447.3 253.566 1456.05 Q253.566 1464.78 250.488 1469.38 Q247.432 1473.97 241.622 1473.97 Q235.812 1473.97 232.733 1469.38 Q229.677 1464.78 229.677 1456.05 Q229.677 1447.3 232.733 1442.72 Q235.812 1438.11 241.622 1438.11 Z" fill="#000000" fill-rule="evenodd" fill-opacity="1" /><path clip-path="url(#clip570)" d="M650.086 1485.02 L666.405 1485.02 L666.405 1488.96 L644.461 1488.96 L644.461 1485.02 Q647.123 1482.27 651.706 1477.64 Q656.312 1472.98 657.493 1471.64 Q659.738 1469.12 660.618 1467.38 Q661.521 1465.62 661.521 1463.93 Q661.521 1461.18 659.576 1459.44 Q657.655 1457.71 654.553 1457.71 Q652.354 1457.71 649.9 1458.47 Q647.47 1459.23 644.692 1460.79 L644.692 1456.06 Q647.516 1454.93 649.97 1454.35 Q652.424 1453.77 654.461 1453.77 Q659.831 1453.77 663.025 1456.46 Q666.22 1459.14 666.22 1463.63 Q666.22 1465.76 665.41 1467.68 Q664.623 1469.58 662.516 1472.17 Q661.937 1472.85 658.836 1476.06 Q655.734 1479.26 650.086 1485.02 Z" fill="#000000" fill-rule="evenodd" fill-opacity="1" /><path clip-path="url(#clip570)" d="M676.22 1483.08 L681.104 1483.08 L681.104 1488.96 L676.22 1488.96 L676.22 1483.08 Z" fill="#000000" fill-rule="evenodd" fill-opacity="1" /><path clip-path="url(#clip570)" d="M691.335 1454.4 L709.692 1454.4 L709.692 1458.33 L695.618 1458.33 L695.618 1466.8 Q696.636 1466.46 697.655 1466.29 Q698.673 1466.11 699.692 1466.11 Q705.479 1466.11 708.859 1469.28 Q712.238 1472.45 712.238 1477.87 Q712.238 1483.45 708.766 1486.55 Q705.294 1489.63 698.974 1489.63 Q696.798 1489.63 694.53 1489.26 Q692.285 1488.89 689.877 1488.15 L689.877 1483.45 Q691.96 1484.58 694.183 1485.14 Q696.405 1485.69 698.882 1485.69 Q702.886 1485.69 705.224 1483.59 Q707.562 1481.48 707.562 1477.87 Q707.562 1474.26 705.224 1472.15 Q702.886 1470.04 698.882 1470.04 Q697.007 1470.04 695.132 1470.46 Q693.28 1470.88 691.335 1471.76 L691.335 1454.4 Z" fill="#000000" fill-rule="evenodd" fill-opacity="1" /><path clip-path="url(#clip570)" d="M731.451 1457.48 Q727.84 1457.48 726.011 1461.04 Q724.206 1464.58 724.206 1471.71 Q724.206 1478.82 726.011 1482.38 Q727.84 1485.92 731.451 1485.92 Q735.085 1485.92 736.891 1482.38 Q738.719 1478.82 738.719 1471.71 Q738.719 1464.58 736.891 1461.04 Q735.085 1457.48 731.451 1457.48 M731.451 1453.77 Q737.261 1453.77 740.317 1458.38 Q743.395 1462.96 743.395 1471.71 Q743.395 1480.44 740.317 1485.04 Q737.261 1489.63 731.451 1489.63 Q725.641 1489.63 722.562 1485.04 Q719.507 1480.44 719.507 1471.71 Q719.507 1462.96 722.562 1458.38 Q725.641 1453.77 731.451 1453.77 Z" fill="#000000" fill-rule="evenodd" fill-opacity="1" /><path clip-path="url(#clip570)" d="M779.784 1463.49 L769.205 1474.12 L779.784 1484.7 L777.029 1487.5 L766.404 1476.87 L755.78 1487.5 L753.048 1484.7 L763.604 1474.12 L753.048 1463.49 L755.78 1460.69 L766.404 1471.32 L777.029 1460.69 L779.784 1463.49 Z" fill="#000000" fill-rule="evenodd" fill-opacity="1" /><path clip-path="url(#clip570)" d="M792.145 1485.02 L799.784 1485.02 L799.784 1458.66 L791.474 1460.32 L791.474 1456.06 L799.738 1454.4 L804.414 1454.4 L804.414 1485.02 L812.052 1485.02 L812.052 1488.96 L792.145 1488.96 L792.145 1485.02 Z" fill="#000000" fill-rule="evenodd" fill-opacity="1" /><path clip-path="url(#clip570)" d="M831.497 1457.48 Q827.886 1457.48 826.057 1461.04 Q824.251 1464.58 824.251 1471.71 Q824.251 1478.82 826.057 1482.38 Q827.886 1485.92 831.497 1485.92 Q835.131 1485.92 836.937 1482.38 Q838.765 1478.82 838.765 1471.71 Q838.765 1464.58 836.937 1461.04 Q835.131 1457.48 831.497 1457.48 M831.497 1453.77 Q837.307 1453.77 840.362 1458.38 Q843.441 1462.96 843.441 1471.71 Q843.441 1480.44 840.362 1485.04 Q837.307 1489.63 831.497 1489.63 Q825.687 1489.63 822.608 1485.04 Q819.552 1480.44 819.552 1471.71 Q819.552 1462.96 822.608 1458.38 Q825.687 1453.77 831.497 1453.77 Z" fill="#000000" fill-rule="evenodd" fill-opacity="1" /><path clip-path="url(#clip570)" d="M856.118 1436.78 L846.526 1451.77 L856.118 1451.77 L856.118 1436.78 M855.121 1433.47 L859.898 1433.47 L859.898 1451.77 L863.904 1451.77 L863.904 1454.93 L859.898 1454.93 L859.898 1461.55 L856.118 1461.55 L856.118 1454.93 L843.441 1454.93 L843.441 1451.26 L855.121 1433.47 Z" fill="#000000" fill-rule="evenodd" fill-opacity="1" /><path clip-path="url(#clip570)" d="M1158.57 1454.4 L1176.93 1454.4 L1176.93 1458.33 L1162.85 1458.33 L1162.85 1466.8 Q1163.87 1466.46 1164.89 1466.29 Q1165.91 1466.11 1166.93 1466.11 Q1172.72 1466.11 1176.1 1469.28 Q1179.47 1472.45 1179.47 1477.87 Q1179.47 1483.45 1176 1486.55 Q1172.53 1489.63 1166.21 1489.63 Q1164.04 1489.63 1161.77 1489.26 Q1159.52 1488.89 1157.11 1488.15 L1157.11 1483.45 Q1159.2 1484.58 1161.42 1485.14 Q1163.64 1485.69 1166.12 1485.69 Q1170.12 1485.69 1172.46 1483.59 Q1174.8 1481.48 1174.8 1477.87 Q1174.8 1474.26 1172.46 1472.15 Q1170.12 1470.04 1166.12 1470.04 Q1164.24 1470.04 1162.37 1470.46 Q1160.52 1470.88 1158.57 1471.76 L1158.57 1454.4 Z" fill="#000000" fill-rule="evenodd" fill-opacity="1" /><path clip-path="url(#clip570)" d="M1188.69 1483.08 L1193.57 1483.08 L1193.57 1488.96 L1188.69 1488.96 L1188.69 1483.08 Z" fill="#000000" fill-rule="evenodd" fill-opacity="1" /><path clip-path="url(#clip570)" d="M1213.76 1457.48 Q1210.15 1457.48 1208.32 1461.04 Q1206.51 1464.58 1206.51 1471.71 Q1206.51 1478.82 1208.32 1482.38 Q1210.15 1485.92 1213.76 1485.92 Q1217.39 1485.92 1219.2 1482.38 Q1221.03 1478.82 1221.03 1471.71 Q1221.03 1464.58 1219.2 1461.04 Q1217.39 1457.48 1213.76 1457.48 M1213.76 1453.77 Q1219.57 1453.77 1222.62 1458.38 Q1225.7 1462.96 1225.7 1471.71 Q1225.7 1480.44 1222.62 1485.04 Q1219.57 1489.63 1213.76 1489.63 Q1207.95 1489.63 1204.87 1485.04 Q1201.81 1480.44 1201.81 1471.71 Q1201.81 1462.96 1204.87 1458.38 Q1207.95 1453.77 1213.76 1453.77 Z" fill="#000000" fill-rule="evenodd" fill-opacity="1" /><path clip-path="url(#clip570)" d="M1243.92 1457.48 Q1240.31 1457.48 1238.48 1461.04 Q1236.67 1464.58 1236.67 1471.71 Q1236.67 1478.82 1238.48 1482.38 Q1240.31 1485.92 1243.92 1485.92 Q1247.55 1485.92 1249.36 1482.38 Q1251.19 1478.82 1251.19 1471.71 Q1251.19 1464.58 1249.36 1461.04 Q1247.55 1457.48 1243.92 1457.48 M1243.92 1453.77 Q1249.73 1453.77 1252.78 1458.38 Q1255.86 1462.96 1255.86 1471.71 Q1255.86 1480.44 1252.78 1485.04 Q1249.73 1489.63 1243.92 1489.63 Q1238.11 1489.63 1235.03 1485.04 Q1231.97 1480.44 1231.97 1471.71 Q1231.97 1462.96 1235.03 1458.38 Q1238.11 1453.77 1243.92 1453.77 Z" fill="#000000" fill-rule="evenodd" fill-opacity="1" /><path clip-path="url(#clip570)" d="M1292.25 1463.49 L1281.67 1474.12 L1292.25 1484.7 L1289.5 1487.5 L1278.87 1476.87 L1268.25 1487.5 L1265.52 1484.7 L1276.07 1474.12 L1265.52 1463.49 L1268.25 1460.69 L1278.87 1471.32 L1289.5 1460.69 L1292.25 1463.49 Z" fill="#000000" fill-rule="evenodd" fill-opacity="1" /><path clip-path="url(#clip570)" d="M1304.61 1485.02 L1312.25 1485.02 L1312.25 1458.66 L1303.94 1460.32 L1303.94 1456.06 L1312.21 1454.4 L1316.88 1454.4 L1316.88 1485.02 L1324.52 1485.02 L1324.52 1488.96 L1304.61 1488.96 L1304.61 1485.02 Z" fill="#000000" fill-rule="evenodd" fill-opacity="1" /><path clip-path="url(#clip570)" d="M1343.96 1457.48 Q1340.35 1457.48 1338.52 1461.04 Q1336.72 1464.58 1336.72 1471.71 Q1336.72 1478.82 1338.52 1482.38 Q1340.35 1485.92 1343.96 1485.92 Q1347.6 1485.92 1349.4 1482.38 Q1351.23 1478.82 1351.23 1471.71 Q1351.23 1464.58 1349.4 1461.04 Q1347.6 1457.48 1343.96 1457.48 M1343.96 1453.77 Q1349.77 1453.77 1352.83 1458.38 Q1355.91 1462.96 1355.91 1471.71 Q1355.91 1480.44 1352.83 1485.04 Q1349.77 1489.63 1343.96 1489.63 Q1338.15 1489.63 1335.08 1485.04 Q1332.02 1480.44 1332.02 1471.71 Q1332.02 1462.96 1335.08 1458.38 Q1338.15 1453.77 1343.96 1453.77 Z" fill="#000000" fill-rule="evenodd" fill-opacity="1" /><path clip-path="url(#clip570)" d="M1368.59 1436.78 L1358.99 1451.77 L1368.59 1451.77 L1368.59 1436.78 M1367.59 1433.47 L1372.37 1433.47 L1372.37 1451.77 L1376.37 1451.77 L1376.37 1454.93 L1372.37 1454.93 L1372.37 1461.55 L1368.59 1461.55 L1368.59 1454.93 L1355.91 1454.93 L1355.91 1451.26 L1367.59 1433.47 Z" fill="#000000" fill-rule="evenodd" fill-opacity="1" /><path clip-path="url(#clip570)" d="M1669.79 1454.4 L1692.01 1454.4 L1692.01 1456.39 L1679.47 1488.96 L1674.58 1488.96 L1686.39 1458.33 L1669.79 1458.33 L1669.79 1454.4 Z" fill="#000000" fill-rule="evenodd" fill-opacity="1" /><path clip-path="url(#clip570)" d="M1701.13 1483.08 L1706.02 1483.08 L1706.02 1488.96 L1701.13 1488.96 L1701.13 1483.08 Z" fill="#000000" fill-rule="evenodd" fill-opacity="1" /><path clip-path="url(#clip570)" d="M1716.25 1454.4 L1734.6 1454.4 L1734.6 1458.33 L1720.53 1458.33 L1720.53 1466.8 Q1721.55 1466.46 1722.57 1466.29 Q1723.59 1466.11 1724.6 1466.11 Q1730.39 1466.11 1733.77 1469.28 Q1737.15 1472.45 1737.15 1477.87 Q1737.15 1483.45 1733.68 1486.55 Q1730.21 1489.63 1723.89 1489.63 Q1721.71 1489.63 1719.44 1489.26 Q1717.2 1488.89 1714.79 1488.15 L1714.79 1483.45 Q1716.87 1484.58 1719.1 1485.14 Q1721.32 1485.69 1723.79 1485.69 Q1727.8 1485.69 1730.14 1483.59 Q1732.47 1481.48 1732.47 1477.87 Q1732.47 1474.26 1730.14 1472.15 Q1727.8 1470.04 1723.79 1470.04 Q1721.92 1470.04 1720.04 1470.46 Q1718.19 1470.88 1716.25 1471.76 L1716.25 1454.4 Z" fill="#000000" fill-rule="evenodd" fill-opacity="1" /><path clip-path="url(#clip570)" d="M1756.36 1457.48 Q1752.75 1457.48 1750.92 1461.04 Q1749.12 1464.58 1749.12 1471.71 Q1749.12 1478.82 1750.92 1482.38 Q1752.75 1485.92 1756.36 1485.92 Q1760 1485.92 1761.8 1482.38 Q1763.63 1478.82 1763.63 1471.71 Q1763.63 1464.58 1761.8 1461.04 Q1760 1457.48 1756.36 1457.48 M1756.36 1453.77 Q1762.17 1453.77 1765.23 1458.38 Q1768.31 1462.96 1768.31 1471.71 Q1768.31 1480.44 1765.23 1485.04 Q1762.17 1489.63 1756.36 1489.63 Q1750.55 1489.63 1747.47 1485.04 Q1744.42 1480.44 1744.42 1471.71 Q1744.42 1462.96 1747.47 1458.38 Q1750.55 1453.77 1756.36 1453.77 Z" fill="#000000" fill-rule="evenodd" fill-opacity="1" /><path clip-path="url(#clip570)" d="M1804.7 1463.49 L1794.12 1474.12 L1804.7 1484.7 L1801.94 1487.5 L1791.32 1476.87 L1780.69 1487.5 L1777.96 1484.7 L1788.52 1474.12 L1777.96 1463.49 L1780.69 1460.69 L1791.32 1471.32 L1801.94 1460.69 L1804.7 1463.49 Z" fill="#000000" fill-rule="evenodd" fill-opacity="1" /><path clip-path="url(#clip570)" d="M1817.06 1485.02 L1824.7 1485.02 L1824.7 1458.66 L1816.39 1460.32 L1816.39 1456.06 L1824.65 1454.4 L1829.33 1454.4 L1829.33 1485.02 L1836.96 1485.02 L1836.96 1488.96 L1817.06 1488.96 L1817.06 1485.02 Z" fill="#000000" fill-rule="evenodd" fill-opacity="1" /><path clip-path="url(#clip570)" d="M1856.41 1457.48 Q1852.8 1457.48 1850.97 1461.04 Q1849.16 1464.58 1849.16 1471.71 Q1849.16 1478.82 1850.97 1482.38 Q1852.8 1485.92 1856.41 1485.92 Q1860.04 1485.92 1861.85 1482.38 Q1863.68 1478.82 1863.68 1471.71 Q1863.68 1464.58 1861.85 1461.04 Q1860.04 1457.48 1856.41 1457.48 M1856.41 1453.77 Q1862.22 1453.77 1865.28 1458.38 Q1868.35 1462.96 1868.35 1471.71 Q1868.35 1480.44 1865.28 1485.04 Q1862.22 1489.63 1856.41 1489.63 Q1850.6 1489.63 1847.52 1485.04 Q1844.46 1480.44 1844.46 1471.71 Q1844.46 1462.96 1847.52 1458.38 Q1850.6 1453.77 1856.41 1453.77 Z" fill="#000000" fill-rule="evenodd" fill-opacity="1" /><path clip-path="url(#clip570)" d="M1881.03 1436.78 L1871.44 1451.77 L1881.03 1451.77 L1881.03 1436.78 M1880.03 1433.47 L1884.81 1433.47 L1884.81 1451.77 L1888.82 1451.77 L1888.82 1454.93 L1884.81 1454.93 L1884.81 1461.55 L1881.03 1461.55 L1881.03 1454.93 L1868.35 1454.93 L1868.35 1451.26 L1880.03 1433.47 Z" fill="#000000" fill-rule="evenodd" fill-opacity="1" /><path clip-path="url(#clip570)" d="M2184.83 1485.02 L2192.47 1485.02 L2192.47 1458.66 L2184.16 1460.32 L2184.16 1456.06 L2192.42 1454.4 L2197.1 1454.4 L2197.1 1485.02 L2204.74 1485.02 L2204.74 1488.96 L2184.83 1488.96 L2184.83 1485.02 Z" fill="#000000" fill-rule="evenodd" fill-opacity="1" /><path clip-path="url(#clip570)" d="M2214.18 1483.08 L2219.06 1483.08 L2219.06 1488.96 L2214.18 1488.96 L2214.18 1483.08 Z" fill="#000000" fill-rule="evenodd" fill-opacity="1" /><path clip-path="url(#clip570)" d="M2239.25 1457.48 Q2235.64 1457.48 2233.81 1461.04 Q2232 1464.58 2232 1471.71 Q2232 1478.82 2233.81 1482.38 Q2235.64 1485.92 2239.25 1485.92 Q2242.88 1485.92 2244.69 1482.38 Q2246.52 1478.82 2246.52 1471.71 Q2246.52 1464.58 2244.69 1461.04 Q2242.88 1457.48 2239.25 1457.48 M2239.25 1453.77 Q2245.06 1453.77 2248.12 1458.38 Q2251.19 1462.96 2251.19 1471.71 Q2251.19 1480.44 2248.12 1485.04 Q2245.06 1489.63 2239.25 1489.63 Q2233.44 1489.63 2230.36 1485.04 Q2227.31 1480.44 2227.31 1471.71 Q2227.31 1462.96 2230.36 1458.38 Q2233.44 1453.77 2239.25 1453.77 Z" fill="#000000" fill-rule="evenodd" fill-opacity="1" /><path clip-path="url(#clip570)" d="M2269.41 1457.48 Q2265.8 1457.48 2263.97 1461.04 Q2262.17 1464.58 2262.17 1471.71 Q2262.17 1478.82 2263.97 1482.38 Q2265.8 1485.92 2269.41 1485.92 Q2273.05 1485.92 2274.85 1482.38 Q2276.68 1478.82 2276.68 1471.71 Q2276.68 1464.58 2274.85 1461.04 Q2273.05 1457.48 2269.41 1457.48 M2269.41 1453.77 Q2275.22 1453.77 2278.28 1458.38 Q2281.36 1462.96 2281.36 1471.71 Q2281.36 1480.44 2278.28 1485.04 Q2275.22 1489.63 2269.41 1489.63 Q2263.6 1489.63 2260.52 1485.04 Q2257.47 1480.44 2257.47 1471.71 Q2257.47 1462.96 2260.52 1458.38 Q2263.6 1453.77 2269.41 1453.77 Z" fill="#000000" fill-rule="evenodd" fill-opacity="1" /><path clip-path="url(#clip570)" d="M2317.74 1463.49 L2307.17 1474.12 L2317.74 1484.7 L2314.99 1487.5 L2304.37 1476.87 L2293.74 1487.5 L2291.01 1484.7 L2301.56 1474.12 L2291.01 1463.49 L2293.74 1460.69 L2304.37 1471.32 L2314.99 1460.69 L2317.74 1463.49 Z" fill="#000000" fill-rule="evenodd" fill-opacity="1" /><path clip-path="url(#clip570)" d="M2330.11 1485.02 L2337.74 1485.02 L2337.74 1458.66 L2329.43 1460.32 L2329.43 1456.06 L2337.7 1454.4 L2342.37 1454.4 L2342.37 1485.02 L2350.01 1485.02 L2350.01 1488.96 L2330.11 1488.96 L2330.11 1485.02 Z" fill="#000000" fill-rule="evenodd" fill-opacity="1" /><path clip-path="url(#clip570)" d="M2369.46 1457.48 Q2365.85 1457.48 2364.02 1461.04 Q2362.21 1464.58 2362.21 1471.71 Q2362.21 1478.82 2364.02 1482.38 Q2365.85 1485.92 2369.46 1485.92 Q2373.09 1485.92 2374.9 1482.38 Q2376.73 1478.82 2376.73 1471.71 Q2376.73 1464.58 2374.9 1461.04 Q2373.09 1457.48 2369.46 1457.48 M2369.46 1453.77 Q2375.27 1453.77 2378.32 1458.38 Q2381.4 1462.96 2381.4 1471.71 Q2381.4 1480.44 2378.32 1485.04 Q2375.27 1489.63 2369.46 1489.63 Q2363.65 1489.63 2360.57 1485.04 Q2357.51 1480.44 2357.51 1471.71 Q2357.51 1462.96 2360.57 1458.38 Q2363.65 1453.77 2369.46 1453.77 Z" fill="#000000" fill-rule="evenodd" fill-opacity="1" /><path clip-path="url(#clip570)" d="M2382.59 1433.47 L2397.5 1433.47 L2397.5 1436.66 L2386.07 1436.66 L2386.07 1443.55 Q2386.89 1443.27 2387.72 1443.13 Q2388.55 1442.98 2389.38 1442.98 Q2394.08 1442.98 2396.82 1445.56 Q2399.57 1448.14 2399.57 1452.54 Q2399.57 1457.07 2396.75 1459.59 Q2393.93 1462.09 2388.79 1462.09 Q2387.03 1462.09 2385.18 1461.79 Q2383.36 1461.49 2381.4 1460.89 L2381.4 1457.07 Q2383.09 1457.99 2384.9 1458.44 Q2386.71 1458.89 2388.72 1458.89 Q2391.97 1458.89 2393.87 1457.18 Q2395.77 1455.47 2395.77 1452.54 Q2395.77 1449.6 2393.87 1447.89 Q2391.97 1446.18 2388.72 1446.18 Q2387.19 1446.18 2385.67 1446.52 Q2384.17 1446.86 2382.59 1447.57 L2382.59 1433.47 Z" fill="#000000" fill-rule="evenodd" fill-opacity="1" /><path clip-path="url(#clip570)" d="M924.859 1531.95 L924.859 1549.8 L932.943 1549.8 Q937.431 1549.8 939.882 1547.48 Q942.333 1545.16 942.333 1540.86 Q942.333 1536.6 939.882 1534.27 Q937.431 1531.95 932.943 1531.95 L924.859 1531.95 M918.43 1526.67 L932.943 1526.67 Q940.932 1526.67 945.006 1530.29 Q949.112 1533.89 949.112 1540.86 Q949.112 1547.9 945.006 1551.49 Q940.932 1555.09 932.943 1555.09 L924.859 1555.09 L924.859 1574.19 L918.43 1574.19 L918.43 1526.67 Z" fill="#000000" fill-rule="evenodd" fill-opacity="1" /><path clip-path="url(#clip570)" d="M976.994 1544.01 Q976.007 1543.44 974.83 1543.18 Q973.684 1542.9 972.284 1542.9 Q967.318 1542.9 964.645 1546.14 Q962.003 1549.36 962.003 1555.41 L962.003 1574.19 L956.115 1574.19 L956.115 1538.54 L962.003 1538.54 L962.003 1544.08 Q963.849 1540.83 966.809 1539.27 Q969.769 1537.68 974.002 1537.68 Q974.607 1537.68 975.339 1537.77 Q976.071 1537.84 976.962 1538 L976.994 1544.01 Z" fill="#000000" fill-rule="evenodd" fill-opacity="1" /><path clip-path="url(#clip570)" d="M1012.2 1554.9 L1012.2 1557.76 L985.27 1557.76 Q985.652 1563.81 988.898 1566.99 Q992.176 1570.14 998.001 1570.14 Q1001.37 1570.14 1004.53 1569.32 Q1007.71 1568.49 1010.83 1566.83 L1010.83 1572.37 Q1007.68 1573.71 1004.37 1574.41 Q1001.06 1575.11 997.651 1575.11 Q989.121 1575.11 984.124 1570.14 Q979.159 1565.18 979.159 1556.71 Q979.159 1547.96 983.869 1542.83 Q988.612 1537.68 996.632 1537.68 Q1003.83 1537.68 1008 1542.33 Q1012.2 1546.94 1012.2 1554.9 M1006.34 1553.18 Q1006.28 1548.37 1003.63 1545.51 Q1001.02 1542.64 996.696 1542.64 Q991.794 1542.64 988.834 1545.41 Q985.906 1548.18 985.461 1553.21 L1006.34 1553.18 Z" fill="#000000" fill-rule="evenodd" fill-opacity="1" /><path clip-path="url(#clip570)" d="M1044.53 1539.59 L1044.53 1545.13 Q1042.05 1543.85 1039.38 1543.22 Q1036.7 1542.58 1033.84 1542.58 Q1029.48 1542.58 1027.28 1543.92 Q1025.12 1545.25 1025.12 1547.93 Q1025.12 1549.96 1026.68 1551.14 Q1028.24 1552.29 1032.95 1553.34 L1034.95 1553.78 Q1041.19 1555.12 1043.8 1557.57 Q1046.44 1559.99 1046.44 1564.35 Q1046.44 1569.32 1042.5 1572.21 Q1038.58 1575.11 1031.71 1575.11 Q1028.84 1575.11 1025.72 1574.54 Q1022.64 1573.99 1019.2 1572.88 L1019.2 1566.83 Q1022.45 1568.52 1025.6 1569.38 Q1028.75 1570.21 1031.83 1570.21 Q1035.97 1570.21 1038.2 1568.81 Q1040.43 1567.37 1040.43 1564.8 Q1040.43 1562.41 1038.81 1561.14 Q1037.21 1559.86 1031.77 1558.68 L1029.73 1558.21 Q1024.29 1557.06 1021.87 1554.71 Q1019.45 1552.32 1019.45 1548.18 Q1019.45 1543.15 1023.02 1540.42 Q1026.58 1537.68 1033.14 1537.68 Q1036.39 1537.68 1039.25 1538.16 Q1042.12 1538.63 1044.53 1539.59 Z" fill="#000000" fill-rule="evenodd" fill-opacity="1" /><path clip-path="url(#clip570)" d="M1078.5 1539.59 L1078.5 1545.13 Q1076.01 1543.85 1073.34 1543.22 Q1070.67 1542.58 1067.8 1542.58 Q1063.44 1542.58 1061.24 1543.92 Q1059.08 1545.25 1059.08 1547.93 Q1059.08 1549.96 1060.64 1551.14 Q1062.2 1552.29 1066.91 1553.34 L1068.91 1553.78 Q1075.15 1555.12 1077.76 1557.57 Q1080.41 1559.99 1080.41 1564.35 Q1080.41 1569.32 1076.46 1572.21 Q1072.54 1575.11 1065.67 1575.11 Q1062.8 1575.11 1059.68 1574.54 Q1056.6 1573.99 1053.16 1572.88 L1053.16 1566.83 Q1056.41 1568.52 1059.56 1569.38 Q1062.71 1570.21 1065.8 1570.21 Q1069.93 1570.21 1072.16 1568.81 Q1074.39 1567.37 1074.39 1564.8 Q1074.39 1562.41 1072.77 1561.14 Q1071.17 1559.86 1065.73 1558.68 L1063.7 1558.21 Q1058.25 1557.06 1055.83 1554.71 Q1053.41 1552.32 1053.41 1548.18 Q1053.41 1543.15 1056.98 1540.42 Q1060.54 1537.68 1067.1 1537.68 Q1070.35 1537.68 1073.21 1538.16 Q1076.08 1538.63 1078.5 1539.59 Z" fill="#000000" fill-rule="evenodd" fill-opacity="1" /><path clip-path="url(#clip570)" d="M1089.13 1560.12 L1089.13 1538.54 L1094.98 1538.54 L1094.98 1559.89 Q1094.98 1564.96 1096.96 1567.5 Q1098.93 1570.02 1102.88 1570.02 Q1107.62 1570.02 1110.36 1566.99 Q1113.12 1563.97 1113.12 1558.75 L1113.12 1538.54 L1118.98 1538.54 L1118.98 1574.19 L1113.12 1574.19 L1113.12 1568.71 Q1110.99 1571.96 1108.16 1573.55 Q1105.36 1575.11 1101.63 1575.11 Q1095.49 1575.11 1092.31 1571.29 Q1089.13 1567.47 1089.13 1560.12 M1103.86 1537.68 L1103.86 1537.68 Z" fill="#000000" fill-rule="evenodd" fill-opacity="1" /><path clip-path="url(#clip570)" d="M1151.7 1544.01 Q1150.71 1543.44 1149.54 1543.18 Q1148.39 1542.9 1146.99 1542.9 Q1142.03 1542.9 1139.35 1546.14 Q1136.71 1549.36 1136.71 1555.41 L1136.71 1574.19 L1130.82 1574.19 L1130.82 1538.54 L1136.71 1538.54 L1136.71 1544.08 Q1138.56 1540.83 1141.52 1539.27 Q1144.48 1537.68 1148.71 1537.68 Q1149.31 1537.68 1150.05 1537.77 Q1150.78 1537.84 1151.67 1538 L1151.7 1544.01 Z" fill="#000000" fill-rule="evenodd" fill-opacity="1" /><path clip-path="url(#clip570)" d="M1186.9 1554.9 L1186.9 1557.76 L1159.98 1557.76 Q1160.36 1563.81 1163.6 1566.99 Q1166.88 1570.14 1172.71 1570.14 Q1176.08 1570.14 1179.23 1569.32 Q1182.42 1568.49 1185.53 1566.83 L1185.53 1572.37 Q1182.38 1573.71 1179.07 1574.41 Q1175.76 1575.11 1172.36 1575.11 Q1163.83 1575.11 1158.83 1570.14 Q1153.87 1565.18 1153.87 1556.71 Q1153.87 1547.96 1158.58 1542.83 Q1163.32 1537.68 1171.34 1537.68 Q1178.53 1537.68 1182.7 1542.33 Q1186.9 1546.94 1186.9 1554.9 M1181.05 1553.18 Q1180.98 1548.37 1178.34 1545.51 Q1175.73 1542.64 1171.4 1542.64 Q1166.5 1542.64 1163.54 1545.41 Q1160.61 1548.18 1160.17 1553.21 L1181.05 1553.18 Z" fill="#000000" fill-rule="evenodd" fill-opacity="1" /><path clip-path="url(#clip570)" d="M1223.92 1531.95 L1223.92 1568.9 L1231.69 1568.9 Q1241.52 1568.9 1246.07 1564.45 Q1250.66 1559.99 1250.66 1550.38 Q1250.66 1540.83 1246.07 1536.4 Q1241.52 1531.95 1231.69 1531.95 L1223.92 1531.95 M1217.49 1526.67 L1230.7 1526.67 Q1244.51 1526.67 1250.97 1532.43 Q1257.44 1538.16 1257.44 1550.38 Q1257.44 1562.66 1250.94 1568.42 Q1244.45 1574.19 1230.7 1574.19 L1217.49 1574.19 L1217.49 1526.67 Z" fill="#000000" fill-rule="evenodd" fill-opacity="1" /><path clip-path="url(#clip570)" d="M1288.09 1544.01 Q1287.1 1543.44 1285.92 1543.18 Q1284.78 1542.9 1283.38 1542.9 Q1278.41 1542.9 1275.74 1546.14 Q1273.1 1549.36 1273.1 1555.41 L1273.1 1574.19 L1267.21 1574.19 L1267.21 1538.54 L1273.1 1538.54 L1273.1 1544.08 Q1274.94 1540.83 1277.9 1539.27 Q1280.86 1537.68 1285.09 1537.68 Q1285.7 1537.68 1286.43 1537.77 Q1287.16 1537.84 1288.05 1538 L1288.09 1544.01 Z" fill="#000000" fill-rule="evenodd" fill-opacity="1" /><path clip-path="url(#clip570)" d="M1306.61 1542.64 Q1301.9 1542.64 1299.16 1546.34 Q1296.43 1550 1296.43 1556.39 Q1296.43 1562.79 1299.13 1566.48 Q1301.87 1570.14 1306.61 1570.14 Q1311.29 1570.14 1314.03 1566.45 Q1316.76 1562.76 1316.76 1556.39 Q1316.76 1550.06 1314.03 1546.37 Q1311.29 1542.64 1306.61 1542.64 M1306.61 1537.68 Q1314.25 1537.68 1318.61 1542.64 Q1322.97 1547.61 1322.97 1556.39 Q1322.97 1565.15 1318.61 1570.14 Q1314.25 1575.11 1306.61 1575.11 Q1298.94 1575.11 1294.58 1570.14 Q1290.25 1565.15 1290.25 1556.39 Q1290.25 1547.61 1294.58 1542.64 Q1298.94 1537.68 1306.61 1537.68 Z" fill="#000000" fill-rule="evenodd" fill-opacity="1" /><path clip-path="url(#clip570)" d="M1338.34 1568.84 L1338.34 1587.74 L1332.46 1587.74 L1332.46 1538.54 L1338.34 1538.54 L1338.34 1543.95 Q1340.19 1540.77 1342.99 1539.24 Q1345.82 1537.68 1349.74 1537.68 Q1356.23 1537.68 1360.27 1542.83 Q1364.35 1547.99 1364.35 1556.39 Q1364.35 1564.8 1360.27 1569.95 Q1356.23 1575.11 1349.74 1575.11 Q1345.82 1575.11 1342.99 1573.58 Q1340.19 1572.02 1338.34 1568.84 M1358.27 1556.39 Q1358.27 1549.93 1355.59 1546.27 Q1352.95 1542.58 1348.31 1542.58 Q1343.66 1542.58 1340.99 1546.27 Q1338.34 1549.93 1338.34 1556.39 Q1338.34 1562.85 1340.99 1566.55 Q1343.66 1570.21 1348.31 1570.21 Q1352.95 1570.21 1355.59 1566.55 Q1358.27 1562.85 1358.27 1556.39 Z" fill="#000000" fill-rule="evenodd" fill-opacity="1" /><path clip-path="url(#clip570)" d="M1375.55 1566.1 L1382.27 1566.1 L1382.27 1571.58 L1377.05 1581.76 L1372.94 1581.76 L1375.55 1571.58 L1375.55 1566.1 Z" fill="#000000" fill-rule="evenodd" fill-opacity="1" /><path clip-path="url(#clip570)" d="M1431.63 1533 L1418.58 1568.84 L1444.71 1568.84 L1431.63 1533 M1409.86 1574.19 L1428 1526.67 L1435.29 1526.67 L1453.4 1574.19 L1409.86 1574.19 Z" fill="#000000" fill-rule="evenodd" fill-opacity="1" /><path clip-path="url(#clip570)" d="M1466.77 1531.95 L1466.77 1549.8 L1474.86 1549.8 Q1479.34 1549.8 1481.79 1547.48 Q1484.25 1545.16 1484.25 1540.86 Q1484.25 1536.6 1481.79 1534.27 Q1479.34 1531.95 1474.86 1531.95 L1466.77 1531.95 M1460.34 1526.67 L1474.86 1526.67 Q1482.85 1526.67 1486.92 1530.29 Q1491.02 1533.89 1491.02 1540.86 Q1491.02 1547.9 1486.92 1551.49 Q1482.85 1555.09 1474.86 1555.09 L1466.77 1555.09 L1466.77 1574.19 L1460.34 1574.19 L1460.34 1526.67 Z" fill="#000000" fill-rule="evenodd" fill-opacity="1" /><path clip-path="url(#clip570)" d="M1534.18 1524.72 Q1529.92 1532.04 1527.85 1539.21 Q1525.78 1546.37 1525.78 1553.72 Q1525.78 1561.07 1527.85 1568.3 Q1529.95 1575.49 1534.18 1582.78 L1529.09 1582.78 Q1524.32 1575.3 1521.93 1568.07 Q1519.58 1560.85 1519.58 1553.72 Q1519.58 1546.62 1521.93 1539.43 Q1524.29 1532.24 1529.09 1524.72 L1534.18 1524.72 Z" fill="#000000" fill-rule="evenodd" fill-opacity="1" /><path clip-path="url(#clip570)" d="M1552.23 1531.95 L1552.23 1549.8 L1560.32 1549.8 Q1564.8 1549.8 1567.25 1547.48 Q1569.71 1545.16 1569.71 1540.86 Q1569.71 1536.6 1567.25 1534.27 Q1564.8 1531.95 1560.32 1531.95 L1552.23 1531.95 M1545.8 1526.67 L1560.32 1526.67 Q1568.3 1526.67 1572.38 1530.29 Q1576.48 1533.89 1576.48 1540.86 Q1576.48 1547.9 1572.38 1551.49 Q1568.3 1555.09 1560.32 1555.09 L1552.23 1555.09 L1552.23 1574.19 L1545.8 1574.19 L1545.8 1526.67 Z" fill="#000000" fill-rule="evenodd" fill-opacity="1" /><path clip-path="url(#clip570)" d="M1598.13 1556.27 Q1591.03 1556.27 1588.29 1557.89 Q1585.56 1559.51 1585.56 1563.43 Q1585.56 1566.55 1587.59 1568.39 Q1589.66 1570.21 1593.19 1570.21 Q1598.06 1570.21 1600.99 1566.77 Q1603.95 1563.3 1603.95 1557.57 L1603.95 1556.27 L1598.13 1556.27 M1609.81 1553.85 L1609.81 1574.19 L1603.95 1574.19 L1603.95 1568.77 Q1601.95 1572.02 1598.96 1573.58 Q1595.96 1575.11 1591.63 1575.11 Q1586.16 1575.11 1582.91 1572.05 Q1579.7 1568.97 1579.7 1563.81 Q1579.7 1557.79 1583.71 1554.74 Q1587.75 1551.68 1595.74 1551.68 L1603.95 1551.68 L1603.95 1551.11 Q1603.95 1547.07 1601.28 1544.87 Q1598.64 1542.64 1593.83 1542.64 Q1590.78 1542.64 1587.88 1543.38 Q1584.98 1544.11 1582.31 1545.57 L1582.31 1540.16 Q1585.52 1538.92 1588.55 1538.31 Q1591.57 1537.68 1594.44 1537.68 Q1602.17 1537.68 1605.99 1541.69 Q1609.81 1545.7 1609.81 1553.85 Z" fill="#000000" fill-rule="evenodd" fill-opacity="1" /><path clip-path="url(#clip570)" d="M1620.95 1524.72 L1626.04 1524.72 Q1630.82 1532.24 1633.17 1539.43 Q1635.56 1546.62 1635.56 1553.72 Q1635.56 1560.85 1633.17 1568.07 Q1630.82 1575.3 1626.04 1582.78 L1620.95 1582.78 Q1625.18 1575.49 1627.25 1568.3 Q1629.35 1561.07 1629.35 1553.72 Q1629.35 1546.37 1627.25 1539.21 Q1625.18 1532.04 1620.95 1524.72 Z" fill="#000000" fill-rule="evenodd" fill-opacity="1" /><polyline clip-path="url(#clip572)" style="stroke:#000000; stroke-linecap:round; stroke-linejoin:round; stroke-width:2; stroke-opacity:0.1; fill:none" points="
  201.232,1210.57 2352.76,1210.57 
  "/>
<polyline clip-path="url(#clip572)" style="stroke:#000000; stroke-linecap:round; stroke-linejoin:round; stroke-width:2; stroke-opacity:0.1; fill:none" points="
  201.232,957.235 2352.76,957.235 
  "/>
<polyline clip-path="url(#clip572)" style="stroke:#000000; stroke-linecap:round; stroke-linejoin:round; stroke-width:2; stroke-opacity:0.1; fill:none" points="
  201.232,703.901 2352.76,703.901 
  "/>
<polyline clip-path="url(#clip572)" style="stroke:#000000; stroke-linecap:round; stroke-linejoin:round; stroke-width:2; stroke-opacity:0.1; fill:none" points="
  201.232,450.566 2352.76,450.566 
  "/>
<polyline clip-path="url(#clip572)" style="stroke:#000000; stroke-linecap:round; stroke-linejoin:round; stroke-width:2; stroke-opacity:0.1; fill:none" points="
  201.232,197.232 2352.76,197.232 
  "/>
<polyline clip-path="url(#clip570)" style="stroke:#000000; stroke-linecap:round; stroke-linejoin:round; stroke-width:4; stroke-opacity:1; fill:none" points="
  201.232,1410.9 201.232,47.2441 
  "/>
<polyline clip-path="url(#clip570)" style="stroke:#000000; stroke-linecap:round; stroke-linejoin:round; stroke-width:4; stroke-opacity:1; fill:none" points="
  201.232,1210.57 220.13,1210.57 
  "/>
<polyline clip-path="url(#clip570)" style="stroke:#000000; stroke-linecap:round; stroke-linejoin:round; stroke-width:4; stroke-opacity:1; fill:none" points="
  201.232,957.235 220.13,957.235 
  "/>
<polyline clip-path="url(#clip570)" style="stroke:#000000; stroke-linecap:round; stroke-linejoin:round; stroke-width:4; stroke-opacity:1; fill:none" points="
  201.232,703.901 220.13,703.901 
  "/>
<polyline clip-path="url(#clip570)" style="stroke:#000000; stroke-linecap:round; stroke-linejoin:round; stroke-width:4; stroke-opacity:1; fill:none" points="
  201.232,450.566 220.13,450.566 
  "/>
<polyline clip-path="url(#clip570)" style="stroke:#000000; stroke-linecap:round; stroke-linejoin:round; stroke-width:4; stroke-opacity:1; fill:none" points="
  201.232,197.232 220.13,197.232 
  "/>
<path clip-path="url(#clip570)" d="M158.103 1209.22 Q161.459 1209.93 163.334 1212.2 Q165.232 1214.47 165.232 1217.8 Q165.232 1222.92 161.714 1225.72 Q158.195 1228.52 151.714 1228.52 Q149.538 1228.52 147.223 1228.08 Q144.931 1227.66 142.478 1226.81 L142.478 1222.29 Q144.422 1223.43 146.737 1224.01 Q149.052 1224.59 151.575 1224.59 Q155.973 1224.59 158.265 1222.85 Q160.579 1221.11 160.579 1217.8 Q160.579 1214.75 158.427 1213.03 Q156.297 1211.3 152.478 1211.3 L148.45 1211.3 L148.45 1207.46 L152.663 1207.46 Q156.112 1207.46 157.94 1206.09 Q159.769 1204.7 159.769 1202.11 Q159.769 1199.45 157.871 1198.03 Q155.996 1196.6 152.478 1196.6 Q150.556 1196.6 148.357 1197.02 Q146.158 1197.43 143.519 1198.31 L143.519 1194.15 Q146.181 1193.4 148.496 1193.03 Q150.834 1192.66 152.894 1192.66 Q158.218 1192.66 161.32 1195.09 Q164.422 1197.5 164.422 1201.62 Q164.422 1204.49 162.778 1206.48 Q161.135 1208.45 158.103 1209.22 Z" fill="#000000" fill-rule="evenodd" fill-opacity="1" /><path clip-path="url(#clip570)" d="M153.704 955.372 Q150.556 955.372 148.704 957.524 Q146.876 959.677 146.876 963.427 Q146.876 967.154 148.704 969.33 Q150.556 971.483 153.704 971.483 Q156.853 971.483 158.681 969.33 Q160.533 967.154 160.533 963.427 Q160.533 959.677 158.681 957.524 Q156.853 955.372 153.704 955.372 M162.987 940.719 L162.987 944.978 Q161.227 944.145 159.422 943.705 Q157.64 943.265 155.88 943.265 Q151.251 943.265 148.797 946.39 Q146.366 949.515 146.019 955.834 Q147.385 953.821 149.445 952.756 Q151.505 951.668 153.982 951.668 Q159.19 951.668 162.2 954.839 Q165.232 957.987 165.232 963.427 Q165.232 968.751 162.084 971.969 Q158.936 975.186 153.704 975.186 Q147.709 975.186 144.538 970.603 Q141.366 965.996 141.366 957.27 Q141.366 949.075 145.255 944.214 Q149.144 939.33 155.695 939.33 Q157.454 939.33 159.237 939.677 Q161.042 940.024 162.987 940.719 Z" fill="#000000" fill-rule="evenodd" fill-opacity="1" /><path clip-path="url(#clip570)" d="M143.612 720.463 L143.612 716.204 Q145.371 717.037 147.177 717.477 Q148.982 717.917 150.718 717.917 Q155.348 717.917 157.778 714.815 Q160.232 711.69 160.579 705.347 Q159.237 707.338 157.177 708.403 Q155.116 709.468 152.616 709.468 Q147.431 709.468 144.399 706.343 Q141.39 703.195 141.39 697.755 Q141.39 692.431 144.538 689.213 Q147.686 685.996 152.917 685.996 Q158.913 685.996 162.061 690.602 Q165.232 695.185 165.232 703.935 Q165.232 712.107 161.343 716.991 Q157.478 721.852 150.927 721.852 Q149.167 721.852 147.362 721.505 Q145.556 721.158 143.612 720.463 M152.917 705.81 Q156.065 705.81 157.894 703.658 Q159.746 701.505 159.746 697.755 Q159.746 694.028 157.894 691.875 Q156.065 689.699 152.917 689.699 Q149.769 689.699 147.917 691.875 Q146.089 694.028 146.089 697.755 Q146.089 701.505 147.917 703.658 Q149.769 705.81 152.917 705.81 Z" fill="#000000" fill-rule="evenodd" fill-opacity="1" /><path clip-path="url(#clip570)" d="M115.533 463.911 L123.172 463.911 L123.172 437.546 L114.862 439.212 L114.862 434.953 L123.126 433.286 L127.802 433.286 L127.802 463.911 L135.441 463.911 L135.441 467.846 L115.533 467.846 L115.533 463.911 Z" fill="#000000" fill-rule="evenodd" fill-opacity="1" /><path clip-path="url(#clip570)" d="M148.913 463.911 L165.232 463.911 L165.232 467.846 L143.288 467.846 L143.288 463.911 Q145.95 461.157 150.533 456.527 Q155.14 451.874 156.32 450.532 Q158.565 448.009 159.445 446.272 Q160.348 444.513 160.348 442.823 Q160.348 440.069 158.403 438.333 Q156.482 436.597 153.38 436.597 Q151.181 436.597 148.728 437.36 Q146.297 438.124 143.519 439.675 L143.519 434.953 Q146.343 433.819 148.797 433.24 Q151.251 432.661 153.288 432.661 Q158.658 432.661 161.852 435.347 Q165.047 438.032 165.047 442.522 Q165.047 444.652 164.237 446.573 Q163.45 448.472 161.343 451.064 Q160.765 451.735 157.663 454.953 Q154.561 458.147 148.913 463.911 Z" fill="#000000" fill-rule="evenodd" fill-opacity="1" /><path clip-path="url(#clip570)" d="M114.931 210.577 L122.57 210.577 L122.57 184.211 L114.26 185.878 L114.26 181.619 L122.524 179.952 L127.2 179.952 L127.2 210.577 L134.839 210.577 L134.839 214.512 L114.931 214.512 L114.931 210.577 Z" fill="#000000" fill-rule="evenodd" fill-opacity="1" /><path clip-path="url(#clip570)" d="M144.329 179.952 L162.686 179.952 L162.686 183.887 L148.612 183.887 L148.612 192.359 Q149.63 192.012 150.649 191.85 Q151.667 191.665 152.686 191.665 Q158.473 191.665 161.852 194.836 Q165.232 198.008 165.232 203.424 Q165.232 209.003 161.76 212.105 Q158.288 215.183 151.968 215.183 Q149.792 215.183 147.524 214.813 Q145.279 214.443 142.871 213.702 L142.871 209.003 Q144.954 210.137 147.177 210.693 Q149.399 211.248 151.876 211.248 Q155.88 211.248 158.218 209.142 Q160.556 207.035 160.556 203.424 Q160.556 199.813 158.218 197.707 Q155.88 195.6 151.876 195.6 Q150.001 195.6 148.126 196.017 Q146.274 196.434 144.329 197.313 L144.329 179.952 Z" fill="#000000" fill-rule="evenodd" fill-opacity="1" /><path clip-path="url(#clip570)" d="M16.4842 1028.37 L16.4842 1021.94 L35.9632 1021.94 L35.9632 998.578 L16.4842 998.578 L16.4842 992.149 L64.0042 992.149 L64.0042 998.578 L41.3741 998.578 L41.3741 1021.94 L64.0042 1021.94 L64.0042 1028.37 L16.4842 1028.37 Z" fill="#000000" fill-rule="evenodd" fill-opacity="1" /><path clip-path="url(#clip570)" d="M44.7161 949.117 L47.5806 949.117 L47.5806 976.044 Q53.6281 975.662 56.8109 972.415 Q59.9619 969.137 59.9619 963.312 Q59.9619 959.939 59.1344 956.788 Q58.3069 953.605 56.6518 950.486 L62.1899 950.486 Q63.5267 953.637 64.227 956.947 Q64.9272 960.257 64.9272 963.663 Q64.9272 972.193 59.9619 977.19 Q54.9967 982.155 46.5303 982.155 Q37.7774 982.155 32.6531 977.444 Q27.4968 972.702 27.4968 964.681 Q27.4968 957.488 32.1438 953.318 Q36.7589 949.117 44.7161 949.117 M42.9973 954.973 Q38.1912 955.037 35.3266 957.679 Q32.4621 960.289 32.4621 964.617 Q32.4621 969.519 35.2312 972.479 Q38.0002 975.407 43.0292 975.853 L42.9973 954.973 Z" fill="#000000" fill-rule="evenodd" fill-opacity="1" /><path clip-path="url(#clip570)" d="M46.0847 923.304 Q46.0847 930.402 47.7079 933.139 Q49.3312 935.876 53.2461 935.876 Q56.3653 935.876 58.2114 933.839 Q60.0256 931.77 60.0256 928.237 Q60.0256 923.368 56.5881 920.439 Q53.1188 917.479 47.3897 917.479 L46.0847 917.479 L46.0847 923.304 M43.6657 911.623 L64.0042 911.623 L64.0042 917.479 L58.5933 917.479 Q61.8398 919.485 63.3994 922.476 Q64.9272 925.468 64.9272 929.797 Q64.9272 935.272 61.8716 938.518 Q58.7843 941.733 53.6281 941.733 Q47.6125 941.733 44.5569 937.722 Q41.5014 933.68 41.5014 925.691 L41.5014 917.479 L40.9285 917.479 Q36.8862 917.479 34.6901 920.153 Q32.4621 922.795 32.4621 927.601 Q32.4621 930.656 33.1941 933.553 Q33.9262 936.449 35.3903 939.123 L29.9795 939.123 Q28.7381 935.908 28.1334 932.884 Q27.4968 929.861 27.4968 926.996 Q27.4968 919.262 31.5072 915.442 Q35.5176 911.623 43.6657 911.623 Z" fill="#000000" fill-rule="evenodd" fill-opacity="1" /><path clip-path="url(#clip570)" d="M18.2347 893.767 L28.3562 893.767 L28.3562 881.704 L32.9077 881.704 L32.9077 893.767 L52.2594 893.767 Q56.6199 893.767 57.8613 892.589 Q59.1026 891.38 59.1026 887.72 L59.1026 881.704 L64.0042 881.704 L64.0042 887.72 Q64.0042 894.499 61.4897 897.077 Q58.9434 899.655 52.2594 899.655 L32.9077 899.655 L32.9077 903.952 L28.3562 903.952 L28.3562 899.655 L18.2347 899.655 L18.2347 893.767 Z" fill="#000000" fill-rule="evenodd" fill-opacity="1" /><path clip-path="url(#clip570)" d="M41.7242 830.492 Q42.4244 828.423 44.7161 826.482 Q47.0077 824.508 51.0181 822.535 L64.0042 816.01 L64.0042 822.917 L51.8138 828.996 Q47.0395 831.351 45.48 833.579 Q43.9204 835.776 43.9204 839.595 L43.9204 846.597 L64.0042 846.597 L64.0042 853.027 L16.4842 853.027 L16.4842 838.513 Q16.4842 830.365 19.8898 826.354 Q23.2955 822.344 30.1704 822.344 Q34.6582 822.344 37.6183 824.445 Q40.5784 826.513 41.7242 830.492 M21.7677 846.597 L38.6368 846.597 L38.6368 838.513 Q38.6368 833.866 36.5043 831.511 Q34.34 829.123 30.1704 829.123 Q26.0009 829.123 23.9002 831.511 Q21.7677 833.866 21.7677 838.513 L21.7677 846.597 Z" fill="#000000" fill-rule="evenodd" fill-opacity="1" /><path clip-path="url(#clip570)" d="M46.0847 793.221 Q46.0847 800.319 47.7079 803.056 Q49.3312 805.793 53.2461 805.793 Q56.3653 805.793 58.2114 803.756 Q60.0256 801.687 60.0256 798.154 Q60.0256 793.284 56.5881 790.356 Q53.1188 787.396 47.3897 787.396 L46.0847 787.396 L46.0847 793.221 M43.6657 781.54 L64.0042 781.54 L64.0042 787.396 L58.5933 787.396 Q61.8398 789.401 63.3994 792.393 Q64.9272 795.385 64.9272 799.714 Q64.9272 805.188 61.8716 808.435 Q58.7843 811.649 53.6281 811.649 Q47.6125 811.649 44.5569 807.639 Q41.5014 803.597 41.5014 795.608 L41.5014 787.396 L40.9285 787.396 Q36.8862 787.396 34.6901 790.07 Q32.4621 792.712 32.4621 797.518 Q32.4621 800.573 33.1941 803.47 Q33.9262 806.366 35.3903 809.04 L29.9795 809.04 Q28.7381 805.825 28.1334 802.801 Q27.4968 799.777 27.4968 796.913 Q27.4968 789.179 31.5072 785.359 Q35.5176 781.54 43.6657 781.54 Z" fill="#000000" fill-rule="evenodd" fill-opacity="1" /><path clip-path="url(#clip570)" d="M18.2347 763.684 L28.3562 763.684 L28.3562 751.621 L32.9077 751.621 L32.9077 763.684 L52.2594 763.684 Q56.6199 763.684 57.8613 762.506 Q59.1026 761.297 59.1026 757.636 L59.1026 751.621 L64.0042 751.621 L64.0042 757.636 Q64.0042 764.416 61.4897 766.994 Q58.9434 769.572 52.2594 769.572 L32.9077 769.572 L32.9077 773.869 L28.3562 773.869 L28.3562 769.572 L18.2347 769.572 L18.2347 763.684 Z" fill="#000000" fill-rule="evenodd" fill-opacity="1" /><path clip-path="url(#clip570)" d="M44.7161 713.427 L47.5806 713.427 L47.5806 740.354 Q53.6281 739.972 56.8109 736.725 Q59.9619 733.447 59.9619 727.622 Q59.9619 724.248 59.1344 721.097 Q58.3069 717.914 56.6518 714.795 L62.1899 714.795 Q63.5267 717.946 64.227 721.256 Q64.9272 724.567 64.9272 727.972 Q64.9272 736.502 59.9619 741.499 Q54.9967 746.465 46.5303 746.465 Q37.7774 746.465 32.6531 741.754 Q27.4968 737.012 27.4968 728.991 Q27.4968 721.798 32.1438 717.628 Q36.7589 713.427 44.7161 713.427 M42.9973 719.283 Q38.1912 719.347 35.3266 721.989 Q32.4621 724.598 32.4621 728.927 Q32.4621 733.829 35.2312 736.789 Q38.0002 739.717 43.0292 740.163 L42.9973 719.283 Z" fill="#000000" fill-rule="evenodd" fill-opacity="1" /><path clip-path="url(#clip570)" d="M55.9197 702.318 L55.9197 695.603 L61.3942 695.603 L71.5793 700.823 L71.5793 704.928 L61.3942 702.318 L55.9197 702.318 Z" fill="#000000" fill-rule="evenodd" fill-opacity="1" /><path clip-path="url(#clip570)" d="M46.212 658.873 Q52.6732 658.873 56.3653 656.231 Q60.0256 653.557 60.0256 648.91 Q60.0256 644.263 56.3653 641.59 Q52.6732 638.916 46.212 638.916 Q39.7508 638.916 36.0905 641.59 Q32.3984 644.263 32.3984 648.91 Q32.3984 653.557 36.0905 656.231 Q39.7508 658.873 46.212 658.873 M58.657 638.916 Q61.8398 640.762 63.3994 643.595 Q64.9272 646.396 64.9272 650.342 Q64.9272 656.804 59.771 660.878 Q54.6147 664.92 46.212 664.92 Q37.8093 664.92 32.6531 660.878 Q27.4968 656.804 27.4968 650.342 Q27.4968 646.396 29.0564 643.595 Q30.5842 640.762 33.7671 638.916 L28.3562 638.916 L28.3562 633.06 L77.5631 633.06 L77.5631 638.916 L58.657 638.916 Z" fill="#000000" fill-rule="evenodd" fill-opacity="1" /><path clip-path="url(#clip570)" d="M14.5426 586.208 Q21.8632 590.473 29.0246 592.542 Q36.186 594.611 43.5384 594.611 Q50.8908 594.611 58.1159 592.542 Q65.3091 590.441 72.5979 586.208 L72.5979 591.301 Q65.1182 596.075 57.8931 598.462 Q50.668 600.817 43.5384 600.817 Q36.4406 600.817 29.2474 598.462 Q22.0542 596.107 14.5426 591.301 L14.5426 586.208 Z" fill="#000000" fill-rule="evenodd" fill-opacity="1" /><path clip-path="url(#clip570)" d="M16.4842 574.591 L16.4842 565.01 L48.8219 552.884 L16.4842 540.693 L16.4842 531.113 L64.0042 531.113 L64.0042 537.383 L22.277 537.383 L54.8694 549.637 L54.8694 556.098 L22.277 568.352 L64.0042 568.352 L64.0042 574.591 L16.4842 574.591 Z" fill="#000000" fill-rule="evenodd" fill-opacity="1" /><path clip-path="url(#clip570)" d="M16.4842 518.35 L16.4842 511.92 L60.694 511.92 Q69.2877 511.92 73.1708 515.199 Q77.0539 518.445 77.0539 525.67 L77.0539 528.121 L71.643 528.121 L71.643 526.116 Q71.643 521.851 69.2559 520.1 Q66.8687 518.35 60.694 518.35 L16.4842 518.35 Z" fill="#000000" fill-rule="evenodd" fill-opacity="1" /><path clip-path="url(#clip570)" d="M16.4842 488.972 L16.4842 483.561 L70.0516 500.112 L70.0516 505.523 L16.4842 488.972 Z" fill="#000000" fill-rule="evenodd" fill-opacity="1" /><path clip-path="url(#clip570)" d="M29.4065 454.692 L34.9447 454.692 Q33.6716 457.175 33.035 459.849 Q32.3984 462.522 32.3984 465.387 Q32.3984 469.747 33.7352 471.944 Q35.072 474.108 37.7456 474.108 Q39.7826 474.108 40.9603 472.548 Q42.1061 470.989 43.1565 466.278 L43.6021 464.273 Q44.9389 458.034 47.3897 455.425 Q49.8086 452.783 54.1691 452.783 Q59.1344 452.783 62.0308 456.73 Q64.9272 460.644 64.9272 467.519 Q64.9272 470.384 64.3543 473.503 Q63.8132 476.591 62.6992 480.028 L56.6518 480.028 Q58.3387 476.782 59.198 473.63 Q60.0256 470.479 60.0256 467.392 Q60.0256 463.254 58.6251 461.026 Q57.1929 458.798 54.6147 458.798 Q52.2276 458.798 50.9545 460.422 Q49.6813 462.013 48.5037 467.456 L48.0262 469.493 Q46.8804 474.935 44.5251 477.354 Q42.138 479.773 38.0002 479.773 Q32.9713 479.773 30.2341 476.209 Q27.4968 472.644 27.4968 466.087 Q27.4968 462.841 27.9743 459.976 Q28.4517 457.111 29.4065 454.692 Z" fill="#000000" fill-rule="evenodd" fill-opacity="1" /><path clip-path="url(#clip570)" d="M14.5426 444.38 L14.5426 439.287 Q22.0542 434.513 29.2474 432.158 Q36.4406 429.771 43.5384 429.771 Q50.668 429.771 57.8931 432.158 Q65.1182 434.513 72.5979 439.287 L72.5979 444.38 Q65.3091 440.147 58.1159 438.078 Q50.8908 435.977 43.5384 435.977 Q36.186 435.977 29.0246 438.078 Q21.8632 440.147 14.5426 444.38 Z" fill="#000000" fill-rule="evenodd" fill-opacity="1" /><polyline clip-path="url(#clip572)" style="stroke:#023eff; stroke-linecap:round; stroke-linejoin:round; stroke-width:4; stroke-opacity:1; fill:none" points="
  262.124,1355.91 282.627,1307.74 303.129,1270.41 323.632,1238.71 344.134,1210.64 364.636,1185.13 385.139,1161.56 405.641,1139.53 426.144,1118.75 446.646,1099.02 
  467.148,1080.17 487.651,1062.09 508.153,1044.69 528.656,1027.88 549.158,1011.6 569.661,995.792 590.163,980.415 610.665,965.429 631.168,950.801 651.67,936.501 
  672.173,922.504 692.675,908.787 713.177,895.33 733.68,882.116 754.182,869.129 774.685,856.353 795.187,843.777 815.69,831.389 836.192,819.177 856.694,807.133 
  877.197,795.246 897.699,783.51 918.202,771.916 938.704,760.457 959.207,749.127 979.709,737.921 1000.21,726.831 1020.71,715.854 1041.22,704.983 1061.72,694.216 
  1082.22,683.547 1102.72,672.973 1123.23,662.489 1143.73,652.093 1164.23,641.78 1184.73,631.549 1205.24,621.395 1225.74,611.317 1246.24,601.311 1266.74,591.375 
  1287.25,581.507 1307.75,571.704 1328.25,561.964 1348.75,552.286 1369.25,542.667 1389.76,533.105 1410.26,523.599 1430.76,514.147 1451.26,504.748 1471.77,495.399 
  1492.27,486.1 1512.77,476.849 1533.27,467.644 1553.78,458.485 1574.28,449.37 1594.78,440.299 1615.28,431.269 1635.79,422.279 1656.29,413.33 1676.79,404.419 
  1697.29,395.546 1717.8,386.71 1738.3,377.91 1758.8,369.144 1779.3,360.413 1799.81,351.716 1820.31,343.051 1840.81,334.418 1861.31,325.816 1881.82,317.244 
  1902.32,308.703 1922.82,300.19 1943.32,291.706 1963.83,283.25 1984.33,274.821 2004.83,266.419 2025.33,258.043 2045.83,249.693 2066.34,241.368 2086.84,233.067 
  2107.34,224.791 2127.84,216.538 2148.35,208.308 2168.85,200.101 2189.35,191.917 2209.85,183.754 2230.36,175.613 2250.86,167.492 2271.36,159.393 2291.86,151.313 
  
  "/>
<polyline clip-path="url(#clip572)" style="stroke:#ff7c00; stroke-linecap:round; stroke-linejoin:round; stroke-width:4; stroke-opacity:1; fill:none" points="
  262.124,1362.47 282.627,1316.97 303.129,1281.66 323.632,1251.67 344.134,1225.09 364.636,1200.94 385.139,1178.62 405.641,1157.75 426.144,1138.07 446.646,1119.37 
  467.148,1101.52 487.651,1084.39 508.153,1067.9 528.656,1051.97 549.158,1036.53 569.661,1021.55 590.163,1006.98 610.665,992.773 631.168,978.907 651.67,965.351 
  672.173,952.081 692.675,939.077 713.177,926.319 733.68,913.791 754.182,901.477 774.685,889.365 795.187,877.44 815.69,865.694 836.192,854.115 856.694,842.694 
  877.197,831.423 897.699,820.294 918.202,809.3 938.704,798.434 959.207,787.69 979.709,777.062 1000.21,766.546 1020.71,756.135 1041.22,745.827 1061.72,735.615 
  1082.22,725.497 1102.72,715.469 1123.23,705.526 1143.73,695.667 1164.23,685.887 1184.73,676.183 1205.24,666.553 1225.74,656.995 1246.24,647.505 1266.74,638.081 
  1287.25,628.722 1307.75,619.424 1328.25,610.186 1348.75,601.007 1369.25,591.883 1389.76,582.815 1410.26,573.798 1430.76,564.833 1451.26,555.918 1471.77,547.051 
  1492.27,538.231 1512.77,529.456 1533.27,520.726 1553.78,512.038 1574.28,503.393 1594.78,494.788 1615.28,486.223 1635.79,477.696 1656.29,469.207 1676.79,460.755 
  1697.29,452.339 1717.8,443.958 1738.3,435.61 1758.8,427.296 1779.3,419.014 1799.81,410.764 1820.31,402.545 1840.81,394.356 1861.31,386.197 1881.82,378.066 
  1902.32,369.964 1922.82,361.89 1943.32,353.842 1963.83,345.821 1984.33,337.825 2004.83,329.856 2025.33,321.91 2045.83,313.99 2066.34,306.093 2086.84,298.219 
  2107.34,290.368 2127.84,282.54 2148.35,274.733 2168.85,266.948 2189.35,259.184 2209.85,251.441 2230.36,243.719 2250.86,236.016 2271.36,228.333 2291.86,220.669 
  
  "/>
<polyline clip-path="url(#clip572)" style="stroke:#1ac938; stroke-linecap:round; stroke-linejoin:round; stroke-width:4; stroke-opacity:1; fill:none" points="
  262.124,1368.58 282.627,1325.49 303.129,1292.01 323.632,1263.55 344.134,1238.32 364.636,1215.38 385.139,1194.18 405.641,1174.35 426.144,1155.64 446.646,1137.87 
  467.148,1120.89 487.651,1104.6 508.153,1088.92 528.656,1073.76 549.158,1059.09 569.661,1044.84 590.163,1030.97 610.665,1017.46 631.168,1004.26 651.67,991.365 
  672.173,978.738 692.675,966.364 713.177,954.223 733.68,942.3 754.182,930.581 774.685,919.053 795.187,907.704 815.69,896.523 836.192,885.502 856.694,874.631 
  877.197,863.902 897.699,853.308 918.202,842.843 938.704,832.499 959.207,822.271 979.709,812.153 1000.21,802.141 1020.71,792.23 1041.22,782.416 1061.72,772.694 
  1082.22,763.061 1102.72,753.513 1123.23,744.047 1143.73,734.659 1164.23,725.347 1184.73,716.108 1205.24,706.939 1225.74,697.837 1246.24,688.801 1266.74,679.828 
  1287.25,670.916 1307.75,662.063 1328.25,653.267 1348.75,644.526 1369.25,635.838 1389.76,627.202 1410.26,618.617 1430.76,610.08 1451.26,601.59 1471.77,593.146 
  1492.27,584.747 1512.77,576.39 1533.27,568.077 1553.78,559.803 1574.28,551.57 1594.78,543.376 1615.28,535.219 1635.79,527.099 1656.29,519.015 1676.79,510.966 
  1697.29,502.951 1717.8,494.969 1738.3,487.019 1758.8,479.101 1779.3,471.214 1799.81,463.357 1820.31,455.529 1840.81,447.73 1861.31,439.96 1881.82,432.216 
  1902.32,424.5 1922.82,416.81 1943.32,409.145 1963.83,401.506 1984.33,393.891 2004.83,386.301 2025.33,378.734 2045.83,371.19 2066.34,363.669 2086.84,356.17 
  2107.34,348.693 2127.84,341.237 2148.35,333.802 2168.85,326.388 2189.35,318.993 2209.85,311.619 2230.36,304.263 2250.86,296.927 2271.36,289.609 2291.86,282.31 
  
  "/>
<polyline clip-path="url(#clip572)" style="stroke:#e8000b; stroke-linecap:round; stroke-linejoin:round; stroke-width:4; stroke-opacity:1; fill:none" points="
  262.124,1372.3 282.627,1330.47 303.129,1297.9 323.632,1270.19 344.134,1245.59 364.636,1223.22 385.139,1202.53 405.641,1183.18 426.144,1164.91 446.646,1147.55 
  467.148,1130.97 487.651,1115.05 508.153,1099.73 528.656,1084.92 549.158,1070.57 569.661,1056.64 590.163,1043.08 610.665,1029.86 631.168,1016.96 651.67,1004.35 
  672.173,991.995 692.675,979.89 713.177,968.013 733.68,956.348 754.182,944.882 774.685,933.602 795.187,922.496 815.69,911.555 836.192,900.77 856.694,890.13 
  877.197,879.63 897.699,869.261 918.202,859.017 938.704,848.892 959.207,838.88 979.709,828.976 1000.21,819.175 1020.71,809.473 1041.22,799.865 1061.72,790.347 
  1082.22,780.916 1102.72,771.567 1123.23,762.299 1143.73,753.107 1164.23,743.989 1184.73,734.943 1205.24,725.964 1225.74,717.052 1246.24,708.204 1266.74,699.417 
  1287.25,690.69 1307.75,682.02 1328.25,673.406 1348.75,664.846 1369.25,656.338 1389.76,647.88 1410.26,639.472 1430.76,631.111 1451.26,622.796 1471.77,614.526 
  1492.27,606.3 1512.77,598.116 1533.27,589.973 1553.78,581.87 1574.28,573.806 1594.78,565.78 1615.28,557.791 1635.79,549.838 1656.29,541.919 1676.79,534.035 
  1697.29,526.184 1717.8,518.366 1738.3,510.579 1758.8,502.823 1779.3,495.097 1799.81,487.401 1820.31,479.733 1840.81,472.094 1861.31,464.482 1881.82,456.897 
  1902.32,449.338 1922.82,441.805 1943.32,434.297 1963.83,426.814 1984.33,419.354 2004.83,411.919 2025.33,404.506 2045.83,397.116 2066.34,389.748 2086.84,382.402 
  2107.34,375.077 2127.84,367.773 2148.35,360.489 2168.85,353.226 2189.35,345.982 2209.85,338.758 2230.36,331.552 2250.86,324.365 2271.36,317.196 2291.86,310.045 
  
  "/>
<polyline clip-path="url(#clip572)" style="stroke:#8b2be2; stroke-linecap:round; stroke-linejoin:round; stroke-width:4; stroke-opacity:1; fill:none" points="
  262.124,1357.51 282.627,1308.13 303.129,1269.54 323.632,1236.63 344.134,1207.38 364.636,1180.75 385.139,1156.1 405.641,1133.01 426.144,1111.22 446.646,1090.5 
  467.148,1070.69 487.651,1051.67 508.153,1033.35 528.656,1015.65 549.158,998.487 569.661,981.819 590.163,965.596 610.665,949.78 631.168,934.334 651.67,919.229 
  672.173,904.439 692.675,889.94 713.177,875.712 733.68,861.736 754.182,847.997 774.685,834.479 795.187,821.169 815.69,808.054 836.192,795.124 856.694,782.368 
  877.197,769.777 897.699,757.344 918.202,745.059 938.704,732.915 959.207,720.906 979.709,709.026 1000.21,697.269 1020.71,685.628 1041.22,674.101 1061.72,662.681 
  1082.22,651.364 1102.72,640.146 1123.23,629.023 1143.73,617.992 1164.23,607.049 1184.73,596.191 1205.24,585.414 1225.74,574.716 1246.24,564.095 1266.74,553.547 
  1287.25,543.07 1307.75,532.661 1328.25,522.319 1348.75,512.042 1369.25,501.826 1389.76,491.671 1410.26,481.575 1430.76,471.535 1451.26,461.551 1471.77,451.62 
  1492.27,441.741 1512.77,431.913 1533.27,422.133 1553.78,412.402 1574.28,402.717 1594.78,393.077 1615.28,383.482 1635.79,373.929 1656.29,364.418 1676.79,354.948 
  1697.29,345.518 1717.8,336.126 1738.3,326.772 1758.8,317.456 1779.3,308.175 1799.81,298.93 1820.31,289.718 1840.81,280.541 1861.31,271.397 1881.82,262.284 
  1902.32,253.203 1922.82,244.153 1943.32,235.133 1963.83,226.142 1984.33,217.18 2004.83,208.246 2025.33,199.34 2045.83,190.461 2066.34,181.608 2086.84,172.782 
  2107.34,163.981 2127.84,155.204 2148.35,146.453 2168.85,137.725 2189.35,129.021 2209.85,120.34 2230.36,111.681 2250.86,103.045 2271.36,94.4309 2291.86,85.838 
  
  "/>
<path clip-path="url(#clip570)" d="
M1648.74 1365.44 L2281.04 1365.44 L2281.04 1054.4 L1648.74 1054.4  Z
  " fill="#ffffff" fill-rule="evenodd" fill-opacity="1"/>
<polyline clip-path="url(#clip570)" style="stroke:#000000; stroke-linecap:round; stroke-linejoin:round; stroke-width:4; stroke-opacity:1; fill:none" points="
  1648.74,1365.44 2281.04,1365.44 2281.04,1054.4 1648.74,1054.4 1648.74,1365.44 
  "/>
<polyline clip-path="url(#clip570)" style="stroke:#023eff; stroke-linecap:round; stroke-linejoin:round; stroke-width:4; stroke-opacity:1; fill:none" points="
  1672.64,1106.24 1816.08,1106.24 
  "/>
<path clip-path="url(#clip570)" d="M1851.93 1092.04 Q1848.32 1092.04 1846.49 1095.61 Q1844.68 1099.15 1844.68 1106.28 Q1844.68 1113.38 1846.49 1116.95 Q1848.32 1120.49 1851.93 1120.49 Q1855.56 1120.49 1857.37 1116.95 Q1859.19 1113.38 1859.19 1106.28 Q1859.19 1099.15 1857.37 1095.61 Q1855.56 1092.04 1851.93 1092.04 M1851.93 1088.34 Q1857.74 1088.34 1860.79 1092.94 Q1863.87 1097.53 1863.87 1106.28 Q1863.87 1115 1860.79 1119.61 Q1857.74 1124.19 1851.93 1124.19 Q1846.12 1124.19 1843.04 1119.61 Q1839.98 1115 1839.98 1106.28 Q1839.98 1097.53 1843.04 1092.94 Q1846.12 1088.34 1851.93 1088.34 Z" fill="#000000" fill-rule="evenodd" fill-opacity="1" /><path clip-path="url(#clip570)" d="M1872.09 1117.64 L1876.97 1117.64 L1876.97 1123.52 L1872.09 1123.52 L1872.09 1117.64 Z" fill="#000000" fill-rule="evenodd" fill-opacity="1" /><path clip-path="url(#clip570)" d="M1897.16 1092.04 Q1893.55 1092.04 1891.72 1095.61 Q1889.91 1099.15 1889.91 1106.28 Q1889.91 1113.38 1891.72 1116.95 Q1893.55 1120.49 1897.16 1120.49 Q1900.79 1120.49 1902.6 1116.95 Q1904.43 1113.38 1904.43 1106.28 Q1904.43 1099.15 1902.6 1095.61 Q1900.79 1092.04 1897.16 1092.04 M1897.16 1088.34 Q1902.97 1088.34 1906.02 1092.94 Q1909.1 1097.53 1909.1 1106.28 Q1909.1 1115 1906.02 1119.61 Q1902.97 1124.19 1897.16 1124.19 Q1891.35 1124.19 1888.27 1119.61 Q1885.21 1115 1885.21 1106.28 Q1885.21 1097.53 1888.27 1092.94 Q1891.35 1088.34 1897.16 1088.34 Z" fill="#000000" fill-rule="evenodd" fill-opacity="1" /><path clip-path="url(#clip570)" d="M1946.72 1108.31 Q1944.7 1108.31 1943.55 1110.03 Q1942.41 1111.74 1942.41 1114.79 Q1942.41 1117.8 1943.55 1119.54 Q1944.7 1121.25 1946.72 1121.25 Q1948.69 1121.25 1949.82 1119.54 Q1950.98 1117.8 1950.98 1114.79 Q1950.98 1111.76 1949.82 1110.05 Q1948.69 1108.31 1946.72 1108.31 M1946.72 1105.37 Q1950.38 1105.37 1952.53 1107.92 Q1954.68 1110.47 1954.68 1114.79 Q1954.68 1119.12 1952.5 1121.67 Q1950.35 1124.19 1946.72 1124.19 Q1943.01 1124.19 1940.86 1121.67 Q1938.71 1119.12 1938.71 1114.79 Q1938.71 1110.44 1940.86 1107.92 Q1943.04 1105.37 1946.72 1105.37 M1922.83 1091.28 Q1920.84 1091.28 1919.68 1093.01 Q1918.55 1094.73 1918.55 1097.73 Q1918.55 1100.79 1919.68 1102.5 Q1920.81 1104.22 1922.83 1104.22 Q1924.84 1104.22 1925.98 1102.5 Q1927.13 1100.79 1927.13 1097.73 Q1927.13 1094.75 1925.98 1093.01 Q1924.82 1091.28 1922.83 1091.28 M1943.73 1088.34 L1947.44 1088.34 L1925.81 1124.19 L1922.11 1124.19 L1943.73 1088.34 M1922.83 1088.34 Q1926.49 1088.34 1928.66 1090.88 Q1930.84 1093.41 1930.84 1097.73 Q1930.84 1102.11 1928.66 1104.63 Q1926.51 1107.16 1922.83 1107.16 Q1919.15 1107.16 1917 1104.63 Q1914.87 1102.09 1914.87 1097.73 Q1914.87 1093.43 1917.02 1090.88 Q1919.17 1088.34 1922.83 1088.34 Z" fill="#000000" fill-rule="evenodd" fill-opacity="1" /><path clip-path="url(#clip570)" d="M1977.02 1088.96 L1981.69 1088.96 L1981.69 1103.13 L1998.68 1103.13 L1998.68 1088.96 L2003.36 1088.96 L2003.36 1123.52 L1998.68 1123.52 L1998.68 1107.06 L1981.69 1107.06 L1981.69 1123.52 L1977.02 1123.52 L1977.02 1088.96 Z" fill="#000000" fill-rule="evenodd" fill-opacity="1" /><path clip-path="url(#clip570)" d="M2023.27 1125.93 Q2021.46 1130.56 2019.75 1131.97 Q2018.04 1133.38 2015.17 1133.38 L2011.76 1133.38 L2011.76 1129.82 L2014.26 1129.82 Q2016.02 1129.82 2017 1128.98 Q2017.97 1128.15 2019.15 1125.05 L2019.91 1123.1 L2009.43 1097.6 L2013.94 1097.6 L2022.04 1117.87 L2030.14 1097.6 L2034.66 1097.6 L2023.27 1125.93 Z" fill="#000000" fill-rule="evenodd" fill-opacity="1" /><path clip-path="url(#clip570)" d="M2057.6 1101.53 L2057.6 1087.5 L2061.86 1087.5 L2061.86 1123.52 L2057.6 1123.52 L2057.6 1119.63 Q2056.25 1121.95 2054.19 1123.08 Q2052.16 1124.19 2049.29 1124.19 Q2044.59 1124.19 2041.62 1120.44 Q2038.68 1116.69 2038.68 1110.58 Q2038.68 1104.47 2041.62 1100.72 Q2044.59 1096.97 2049.29 1096.97 Q2052.16 1096.97 2054.19 1098.11 Q2056.25 1099.22 2057.6 1101.53 M2043.08 1110.58 Q2043.08 1115.28 2045 1117.97 Q2046.95 1120.63 2050.33 1120.63 Q2053.71 1120.63 2055.65 1117.97 Q2057.6 1115.28 2057.6 1110.58 Q2057.6 1105.88 2055.65 1103.22 Q2053.71 1100.54 2050.33 1100.54 Q2046.95 1100.54 2045 1103.22 Q2043.08 1105.88 2043.08 1110.58 Z" fill="#000000" fill-rule="evenodd" fill-opacity="1" /><path clip-path="url(#clip570)" d="M2085.65 1101.58 Q2084.93 1101.16 2084.08 1100.98 Q2083.24 1100.77 2082.23 1100.77 Q2078.62 1100.77 2076.67 1103.13 Q2074.75 1105.47 2074.75 1109.86 L2074.75 1123.52 L2070.47 1123.52 L2070.47 1097.6 L2074.75 1097.6 L2074.75 1101.62 Q2076.09 1099.26 2078.24 1098.13 Q2080.4 1096.97 2083.48 1096.97 Q2083.92 1096.97 2084.45 1097.04 Q2084.98 1097.09 2085.63 1097.2 L2085.65 1101.58 Z" fill="#000000" fill-rule="evenodd" fill-opacity="1" /><path clip-path="url(#clip570)" d="M2099.12 1100.58 Q2095.7 1100.58 2093.71 1103.27 Q2091.72 1105.93 2091.72 1110.58 Q2091.72 1115.23 2093.68 1117.92 Q2095.68 1120.58 2099.12 1120.58 Q2102.53 1120.58 2104.52 1117.9 Q2106.51 1115.21 2106.51 1110.58 Q2106.51 1105.98 2104.52 1103.29 Q2102.53 1100.58 2099.12 1100.58 M2099.12 1096.97 Q2104.68 1096.97 2107.85 1100.58 Q2111.02 1104.19 2111.02 1110.58 Q2111.02 1116.95 2107.85 1120.58 Q2104.68 1124.19 2099.12 1124.19 Q2093.55 1124.19 2090.37 1120.58 Q2087.23 1116.95 2087.23 1110.58 Q2087.23 1104.19 2090.37 1100.58 Q2093.55 1096.97 2099.12 1096.97 Z" fill="#000000" fill-rule="evenodd" fill-opacity="1" /><path clip-path="url(#clip570)" d="M2135.14 1110.26 Q2135.14 1105.63 2133.22 1103.08 Q2131.32 1100.54 2127.87 1100.54 Q2124.45 1100.54 2122.53 1103.08 Q2120.63 1105.63 2120.63 1110.26 Q2120.63 1114.86 2122.53 1117.41 Q2124.45 1119.96 2127.87 1119.96 Q2131.32 1119.96 2133.22 1117.41 Q2135.14 1114.86 2135.14 1110.26 M2139.4 1120.3 Q2139.4 1126.92 2136.46 1130.14 Q2133.52 1133.38 2127.46 1133.38 Q2125.21 1133.38 2123.22 1133.04 Q2121.23 1132.71 2119.36 1132.02 L2119.36 1127.87 Q2121.23 1128.89 2123.06 1129.38 Q2124.89 1129.86 2126.79 1129.86 Q2130.98 1129.86 2133.06 1127.67 Q2135.14 1125.49 2135.14 1121.07 L2135.14 1118.96 Q2133.82 1121.25 2131.76 1122.39 Q2129.7 1123.52 2126.83 1123.52 Q2122.06 1123.52 2119.15 1119.89 Q2116.23 1116.25 2116.23 1110.26 Q2116.23 1104.24 2119.15 1100.61 Q2122.06 1096.97 2126.83 1096.97 Q2129.7 1096.97 2131.76 1098.11 Q2133.82 1099.24 2135.14 1101.53 L2135.14 1097.6 L2139.4 1097.6 L2139.4 1120.3 Z" fill="#000000" fill-rule="evenodd" fill-opacity="1" /><path clip-path="url(#clip570)" d="M2170.35 1109.49 L2170.35 1111.58 L2150.77 1111.58 Q2151.05 1115.98 2153.41 1118.29 Q2155.79 1120.58 2160.03 1120.58 Q2162.48 1120.58 2164.77 1119.98 Q2167.09 1119.38 2169.36 1118.17 L2169.36 1122.2 Q2167.06 1123.17 2164.66 1123.68 Q2162.25 1124.19 2159.77 1124.19 Q2153.57 1124.19 2149.93 1120.58 Q2146.32 1116.97 2146.32 1110.81 Q2146.32 1104.45 2149.75 1100.72 Q2153.2 1096.97 2159.03 1096.97 Q2164.26 1096.97 2167.3 1100.35 Q2170.35 1103.71 2170.35 1109.49 M2166.09 1108.24 Q2166.05 1104.75 2164.12 1102.67 Q2162.23 1100.58 2159.08 1100.58 Q2155.51 1100.58 2153.36 1102.6 Q2151.23 1104.61 2150.91 1108.27 L2166.09 1108.24 Z" fill="#000000" fill-rule="evenodd" fill-opacity="1" /><path clip-path="url(#clip570)" d="M2198.89 1107.87 L2198.89 1123.52 L2194.63 1123.52 L2194.63 1108.01 Q2194.63 1104.33 2193.2 1102.5 Q2191.76 1100.67 2188.89 1100.67 Q2185.44 1100.67 2183.45 1102.87 Q2181.46 1105.07 2181.46 1108.87 L2181.46 1123.52 L2177.18 1123.52 L2177.18 1097.6 L2181.46 1097.6 L2181.46 1101.62 Q2182.99 1099.29 2185.05 1098.13 Q2187.13 1096.97 2189.84 1096.97 Q2194.31 1096.97 2196.6 1099.75 Q2198.89 1102.5 2198.89 1107.87 Z" fill="#000000" fill-rule="evenodd" fill-opacity="1" /><polyline clip-path="url(#clip570)" style="stroke:#ff7c00; stroke-linecap:round; stroke-linejoin:round; stroke-width:4; stroke-opacity:1; fill:none" points="
  1672.64,1158.08 1816.08,1158.08 
  "/>
<path clip-path="url(#clip570)" d="M1845.61 1171.43 L1861.93 1171.43 L1861.93 1175.36 L1839.98 1175.36 L1839.98 1171.43 Q1842.64 1168.67 1847.23 1164.04 Q1851.83 1159.39 1853.01 1158.05 Q1855.26 1155.52 1856.14 1153.79 Q1857.04 1152.03 1857.04 1150.34 Q1857.04 1147.58 1855.1 1145.85 Q1853.18 1144.11 1850.07 1144.11 Q1847.88 1144.11 1845.42 1144.88 Q1842.99 1145.64 1840.21 1147.19 L1840.21 1142.47 Q1843.04 1141.33 1845.49 1140.76 Q1847.95 1140.18 1849.98 1140.18 Q1855.35 1140.18 1858.55 1142.86 Q1861.74 1145.55 1861.74 1150.04 Q1861.74 1152.17 1860.93 1154.09 Q1860.14 1155.99 1858.04 1158.58 Q1857.46 1159.25 1854.36 1162.47 Q1851.26 1165.66 1845.61 1171.43 Z" fill="#000000" fill-rule="evenodd" fill-opacity="1" /><path clip-path="url(#clip570)" d="M1871.79 1140.8 L1890.14 1140.8 L1890.14 1144.74 L1876.07 1144.74 L1876.07 1153.21 Q1877.09 1152.86 1878.11 1152.7 Q1879.13 1152.51 1880.14 1152.51 Q1885.93 1152.51 1889.31 1155.69 Q1892.69 1158.86 1892.69 1164.27 Q1892.69 1169.85 1889.22 1172.95 Q1885.75 1176.03 1879.43 1176.03 Q1877.25 1176.03 1874.98 1175.66 Q1872.74 1175.29 1870.33 1174.55 L1870.33 1169.85 Q1872.41 1170.99 1874.63 1171.54 Q1876.86 1172.1 1879.33 1172.1 Q1883.34 1172.1 1885.68 1169.99 Q1888.01 1167.88 1888.01 1164.27 Q1888.01 1160.66 1885.68 1158.56 Q1883.34 1156.45 1879.33 1156.45 Q1877.46 1156.45 1875.58 1156.87 Q1873.73 1157.28 1871.79 1158.16 L1871.79 1140.8 Z" fill="#000000" fill-rule="evenodd" fill-opacity="1" /><path clip-path="url(#clip570)" d="M1901.9 1169.48 L1906.79 1169.48 L1906.79 1175.36 L1901.9 1175.36 L1901.9 1169.48 Z" fill="#000000" fill-rule="evenodd" fill-opacity="1" /><path clip-path="url(#clip570)" d="M1926.97 1143.88 Q1923.36 1143.88 1921.53 1147.45 Q1919.73 1150.99 1919.73 1158.12 Q1919.73 1165.22 1921.53 1168.79 Q1923.36 1172.33 1926.97 1172.33 Q1930.61 1172.33 1932.41 1168.79 Q1934.24 1165.22 1934.24 1158.12 Q1934.24 1150.99 1932.41 1147.45 Q1930.61 1143.88 1926.97 1143.88 M1926.97 1140.18 Q1932.78 1140.18 1935.84 1144.78 Q1938.92 1149.37 1938.92 1158.12 Q1938.92 1166.84 1935.84 1171.45 Q1932.78 1176.03 1926.97 1176.03 Q1921.16 1176.03 1918.08 1171.45 Q1915.03 1166.84 1915.03 1158.12 Q1915.03 1149.37 1918.08 1144.78 Q1921.16 1140.18 1926.97 1140.18 Z" fill="#000000" fill-rule="evenodd" fill-opacity="1" /><path clip-path="url(#clip570)" d="M1976.53 1160.15 Q1974.52 1160.15 1973.36 1161.87 Q1972.23 1163.58 1972.23 1166.63 Q1972.23 1169.64 1973.36 1171.38 Q1974.52 1173.09 1976.53 1173.09 Q1978.5 1173.09 1979.63 1171.38 Q1980.79 1169.64 1980.79 1166.63 Q1980.79 1163.6 1979.63 1161.89 Q1978.5 1160.15 1976.53 1160.15 M1976.53 1157.21 Q1980.19 1157.21 1982.34 1159.76 Q1984.5 1162.31 1984.5 1166.63 Q1984.5 1170.96 1982.32 1173.51 Q1980.17 1176.03 1976.53 1176.03 Q1972.83 1176.03 1970.68 1173.51 Q1968.52 1170.96 1968.52 1166.63 Q1968.52 1162.28 1970.68 1159.76 Q1972.85 1157.21 1976.53 1157.21 M1952.64 1143.12 Q1950.65 1143.12 1949.5 1144.85 Q1948.36 1146.57 1948.36 1149.57 Q1948.36 1152.63 1949.5 1154.34 Q1950.63 1156.06 1952.64 1156.06 Q1954.66 1156.06 1955.79 1154.34 Q1956.95 1152.63 1956.95 1149.57 Q1956.95 1146.59 1955.79 1144.85 Q1954.63 1143.12 1952.64 1143.12 M1973.55 1140.18 L1977.25 1140.18 L1955.63 1176.03 L1951.93 1176.03 L1973.55 1140.18 M1952.64 1140.18 Q1956.3 1140.18 1958.48 1142.72 Q1960.65 1145.25 1960.65 1149.57 Q1960.65 1153.95 1958.48 1156.47 Q1956.32 1159 1952.64 1159 Q1948.96 1159 1946.81 1156.47 Q1944.68 1153.93 1944.68 1149.57 Q1944.68 1145.27 1946.83 1142.72 Q1948.99 1140.18 1952.64 1140.18 Z" fill="#000000" fill-rule="evenodd" fill-opacity="1" /><path clip-path="url(#clip570)" d="M2006.83 1140.8 L2011.51 1140.8 L2011.51 1154.97 L2028.5 1154.97 L2028.5 1140.8 L2033.18 1140.8 L2033.18 1175.36 L2028.5 1175.36 L2028.5 1158.9 L2011.51 1158.9 L2011.51 1175.36 L2006.83 1175.36 L2006.83 1140.8 Z" fill="#000000" fill-rule="evenodd" fill-opacity="1" /><path clip-path="url(#clip570)" d="M2053.08 1177.77 Q2051.28 1182.4 2049.56 1183.81 Q2047.85 1185.22 2044.98 1185.22 L2041.58 1185.22 L2041.58 1181.66 L2044.08 1181.66 Q2045.84 1181.66 2046.81 1180.82 Q2047.78 1179.99 2048.96 1176.89 L2049.73 1174.94 L2039.24 1149.44 L2043.75 1149.44 L2051.86 1169.71 L2059.96 1149.44 L2064.47 1149.44 L2053.08 1177.77 Z" fill="#000000" fill-rule="evenodd" fill-opacity="1" /><path clip-path="url(#clip570)" d="M2087.41 1153.37 L2087.41 1139.34 L2091.67 1139.34 L2091.67 1175.36 L2087.41 1175.36 L2087.41 1171.47 Q2086.07 1173.79 2084.01 1174.92 Q2081.97 1176.03 2079.1 1176.03 Q2074.4 1176.03 2071.44 1172.28 Q2068.5 1168.53 2068.5 1162.42 Q2068.5 1156.31 2071.44 1152.56 Q2074.4 1148.81 2079.1 1148.81 Q2081.97 1148.81 2084.01 1149.95 Q2086.07 1151.06 2087.41 1153.37 M2072.9 1162.42 Q2072.9 1167.12 2074.82 1169.81 Q2076.76 1172.47 2080.14 1172.47 Q2083.52 1172.47 2085.47 1169.81 Q2087.41 1167.12 2087.41 1162.42 Q2087.41 1157.72 2085.47 1155.06 Q2083.52 1152.38 2080.14 1152.38 Q2076.76 1152.38 2074.82 1155.06 Q2072.9 1157.72 2072.9 1162.42 Z" fill="#000000" fill-rule="evenodd" fill-opacity="1" /><path clip-path="url(#clip570)" d="M2115.47 1153.42 Q2114.75 1153 2113.89 1152.82 Q2113.06 1152.61 2112.04 1152.61 Q2108.43 1152.61 2106.49 1154.97 Q2104.56 1157.31 2104.56 1161.7 L2104.56 1175.36 L2100.28 1175.36 L2100.28 1149.44 L2104.56 1149.44 L2104.56 1153.46 Q2105.91 1151.1 2108.06 1149.97 Q2110.21 1148.81 2113.29 1148.81 Q2113.73 1148.81 2114.26 1148.88 Q2114.8 1148.93 2115.44 1149.04 L2115.47 1153.42 Z" fill="#000000" fill-rule="evenodd" fill-opacity="1" /><path clip-path="url(#clip570)" d="M2128.94 1152.42 Q2125.51 1152.42 2123.52 1155.11 Q2121.53 1157.77 2121.53 1162.42 Q2121.53 1167.07 2123.5 1169.76 Q2125.49 1172.42 2128.94 1172.42 Q2132.34 1172.42 2134.33 1169.74 Q2136.32 1167.05 2136.32 1162.42 Q2136.32 1157.82 2134.33 1155.13 Q2132.34 1152.42 2128.94 1152.42 M2128.94 1148.81 Q2134.49 1148.81 2137.67 1152.42 Q2140.84 1156.03 2140.84 1162.42 Q2140.84 1168.79 2137.67 1172.42 Q2134.49 1176.03 2128.94 1176.03 Q2123.36 1176.03 2120.19 1172.42 Q2117.04 1168.79 2117.04 1162.42 Q2117.04 1156.03 2120.19 1152.42 Q2123.36 1148.81 2128.94 1148.81 Z" fill="#000000" fill-rule="evenodd" fill-opacity="1" /><path clip-path="url(#clip570)" d="M2164.96 1162.1 Q2164.96 1157.47 2163.04 1154.92 Q2161.14 1152.38 2157.69 1152.38 Q2154.26 1152.38 2152.34 1154.92 Q2150.44 1157.47 2150.44 1162.1 Q2150.44 1166.7 2152.34 1169.25 Q2154.26 1171.8 2157.69 1171.8 Q2161.14 1171.8 2163.04 1169.25 Q2164.96 1166.7 2164.96 1162.1 M2169.22 1172.14 Q2169.22 1178.76 2166.28 1181.98 Q2163.34 1185.22 2157.27 1185.22 Q2155.03 1185.22 2153.04 1184.88 Q2151.05 1184.55 2149.17 1183.86 L2149.17 1179.71 Q2151.05 1180.73 2152.87 1181.22 Q2154.7 1181.7 2156.6 1181.7 Q2160.79 1181.7 2162.87 1179.51 Q2164.96 1177.33 2164.96 1172.91 L2164.96 1170.8 Q2163.64 1173.09 2161.58 1174.23 Q2159.52 1175.36 2156.65 1175.36 Q2151.88 1175.36 2148.96 1171.73 Q2146.05 1168.09 2146.05 1162.1 Q2146.05 1156.08 2148.96 1152.45 Q2151.88 1148.81 2156.65 1148.81 Q2159.52 1148.81 2161.58 1149.95 Q2163.64 1151.08 2164.96 1153.37 L2164.96 1149.44 L2169.22 1149.44 L2169.22 1172.14 Z" fill="#000000" fill-rule="evenodd" fill-opacity="1" /><path clip-path="url(#clip570)" d="M2200.17 1161.33 L2200.17 1163.42 L2180.58 1163.42 Q2180.86 1167.82 2183.22 1170.13 Q2185.61 1172.42 2189.84 1172.42 Q2192.3 1172.42 2194.59 1171.82 Q2196.9 1171.22 2199.17 1170.01 L2199.17 1174.04 Q2196.88 1175.01 2194.47 1175.52 Q2192.06 1176.03 2189.59 1176.03 Q2183.38 1176.03 2179.75 1172.42 Q2176.14 1168.81 2176.14 1162.65 Q2176.14 1156.29 2179.56 1152.56 Q2183.01 1148.81 2188.85 1148.81 Q2194.08 1148.81 2197.11 1152.19 Q2200.17 1155.55 2200.17 1161.33 M2195.91 1160.08 Q2195.86 1156.59 2193.94 1154.51 Q2192.04 1152.42 2188.89 1152.42 Q2185.33 1152.42 2183.17 1154.44 Q2181.05 1156.45 2180.72 1160.11 L2195.91 1160.08 Z" fill="#000000" fill-rule="evenodd" fill-opacity="1" /><path clip-path="url(#clip570)" d="M2228.71 1159.71 L2228.71 1175.36 L2224.45 1175.36 L2224.45 1159.85 Q2224.45 1156.17 2223.01 1154.34 Q2221.58 1152.51 2218.71 1152.51 Q2215.26 1152.51 2213.27 1154.71 Q2211.28 1156.91 2211.28 1160.71 L2211.28 1175.36 L2206.99 1175.36 L2206.99 1149.44 L2211.28 1149.44 L2211.28 1153.46 Q2212.8 1151.13 2214.86 1149.97 Q2216.95 1148.81 2219.66 1148.81 Q2224.12 1148.81 2226.42 1151.59 Q2228.71 1154.34 2228.71 1159.71 Z" fill="#000000" fill-rule="evenodd" fill-opacity="1" /><polyline clip-path="url(#clip570)" style="stroke:#1ac938; stroke-linecap:round; stroke-linejoin:round; stroke-width:4; stroke-opacity:1; fill:none" points="
  1672.64,1209.92 1816.08,1209.92 
  "/>
<path clip-path="url(#clip570)" d="M1841.44 1192.64 L1859.8 1192.64 L1859.8 1196.58 L1845.72 1196.58 L1845.72 1205.05 Q1846.74 1204.7 1847.76 1204.54 Q1848.78 1204.35 1849.8 1204.35 Q1855.58 1204.35 1858.96 1207.53 Q1862.34 1210.7 1862.34 1216.11 Q1862.34 1221.69 1858.87 1224.79 Q1855.4 1227.87 1849.08 1227.87 Q1846.9 1227.87 1844.63 1227.5 Q1842.39 1227.13 1839.98 1226.39 L1839.98 1221.69 Q1842.07 1222.83 1844.29 1223.38 Q1846.51 1223.94 1848.99 1223.94 Q1852.99 1223.94 1855.33 1221.83 Q1857.67 1219.72 1857.67 1216.11 Q1857.67 1212.5 1855.33 1210.4 Q1852.99 1208.29 1848.99 1208.29 Q1847.11 1208.29 1845.24 1208.71 Q1843.38 1209.12 1841.44 1210 L1841.44 1192.64 Z" fill="#000000" fill-rule="evenodd" fill-opacity="1" /><path clip-path="url(#clip570)" d="M1881.56 1195.72 Q1877.94 1195.72 1876.12 1199.29 Q1874.31 1202.83 1874.31 1209.96 Q1874.31 1217.06 1876.12 1220.63 Q1877.94 1224.17 1881.56 1224.17 Q1885.19 1224.17 1887 1220.63 Q1888.82 1217.06 1888.82 1209.96 Q1888.82 1202.83 1887 1199.29 Q1885.19 1195.72 1881.56 1195.72 M1881.56 1192.02 Q1887.37 1192.02 1890.42 1196.62 Q1893.5 1201.21 1893.5 1209.96 Q1893.5 1218.68 1890.42 1223.29 Q1887.37 1227.87 1881.56 1227.87 Q1875.75 1227.87 1872.67 1223.29 Q1869.61 1218.68 1869.61 1209.96 Q1869.61 1201.21 1872.67 1196.62 Q1875.75 1192.02 1881.56 1192.02 Z" fill="#000000" fill-rule="evenodd" fill-opacity="1" /><path clip-path="url(#clip570)" d="M1901.72 1221.32 L1906.6 1221.32 L1906.6 1227.2 L1901.72 1227.2 L1901.72 1221.32 Z" fill="#000000" fill-rule="evenodd" fill-opacity="1" /><path clip-path="url(#clip570)" d="M1926.79 1195.72 Q1923.18 1195.72 1921.35 1199.29 Q1919.54 1202.83 1919.54 1209.96 Q1919.54 1217.06 1921.35 1220.63 Q1923.18 1224.17 1926.79 1224.17 Q1930.42 1224.17 1932.23 1220.63 Q1934.06 1217.06 1934.06 1209.96 Q1934.06 1202.83 1932.23 1199.29 Q1930.42 1195.72 1926.79 1195.72 M1926.79 1192.02 Q1932.6 1192.02 1935.65 1196.62 Q1938.73 1201.21 1938.73 1209.96 Q1938.73 1218.68 1935.65 1223.29 Q1932.6 1227.87 1926.79 1227.87 Q1920.98 1227.87 1917.9 1223.29 Q1914.84 1218.68 1914.84 1209.96 Q1914.84 1201.21 1917.9 1196.62 Q1920.98 1192.02 1926.79 1192.02 Z" fill="#000000" fill-rule="evenodd" fill-opacity="1" /><path clip-path="url(#clip570)" d="M1976.35 1211.99 Q1974.33 1211.99 1973.18 1213.71 Q1972.04 1215.42 1972.04 1218.47 Q1972.04 1221.48 1973.18 1223.22 Q1974.33 1224.93 1976.35 1224.93 Q1978.31 1224.93 1979.45 1223.22 Q1980.61 1221.48 1980.61 1218.47 Q1980.61 1215.44 1979.45 1213.73 Q1978.31 1211.99 1976.35 1211.99 M1976.35 1209.05 Q1980 1209.05 1982.16 1211.6 Q1984.31 1214.15 1984.31 1218.47 Q1984.31 1222.8 1982.13 1225.35 Q1979.98 1227.87 1976.35 1227.87 Q1972.64 1227.87 1970.49 1225.35 Q1968.34 1222.8 1968.34 1218.47 Q1968.34 1214.12 1970.49 1211.6 Q1972.67 1209.05 1976.35 1209.05 M1952.46 1194.96 Q1950.47 1194.96 1949.31 1196.69 Q1948.18 1198.41 1948.18 1201.41 Q1948.18 1204.47 1949.31 1206.18 Q1950.44 1207.9 1952.46 1207.9 Q1954.47 1207.9 1955.61 1206.18 Q1956.76 1204.47 1956.76 1201.41 Q1956.76 1198.43 1955.61 1196.69 Q1954.45 1194.96 1952.46 1194.96 M1973.36 1192.02 L1977.06 1192.02 L1955.44 1227.87 L1951.74 1227.87 L1973.36 1192.02 M1952.46 1192.02 Q1956.12 1192.02 1958.29 1194.56 Q1960.47 1197.09 1960.47 1201.41 Q1960.47 1205.79 1958.29 1208.31 Q1956.14 1210.84 1952.46 1210.84 Q1948.78 1210.84 1946.63 1208.31 Q1944.5 1205.77 1944.5 1201.41 Q1944.5 1197.11 1946.65 1194.56 Q1948.8 1192.02 1952.46 1192.02 Z" fill="#000000" fill-rule="evenodd" fill-opacity="1" /><path clip-path="url(#clip570)" d="M2006.65 1192.64 L2011.32 1192.64 L2011.32 1206.81 L2028.31 1206.81 L2028.31 1192.64 L2032.99 1192.64 L2032.99 1227.2 L2028.31 1227.2 L2028.31 1210.74 L2011.32 1210.74 L2011.32 1227.2 L2006.65 1227.2 L2006.65 1192.64 Z" fill="#000000" fill-rule="evenodd" fill-opacity="1" /><path clip-path="url(#clip570)" d="M2052.9 1229.61 Q2051.09 1234.24 2049.38 1235.65 Q2047.67 1237.06 2044.8 1237.06 L2041.39 1237.06 L2041.39 1233.5 L2043.89 1233.5 Q2045.65 1233.5 2046.62 1232.66 Q2047.6 1231.83 2048.78 1228.73 L2049.54 1226.78 L2039.06 1201.28 L2043.57 1201.28 L2051.67 1221.55 L2059.77 1201.28 L2064.29 1201.28 L2052.9 1229.61 Z" fill="#000000" fill-rule="evenodd" fill-opacity="1" /><path clip-path="url(#clip570)" d="M2087.23 1205.21 L2087.23 1191.18 L2091.49 1191.18 L2091.49 1227.2 L2087.23 1227.2 L2087.23 1223.31 Q2085.88 1225.63 2083.82 1226.76 Q2081.79 1227.87 2078.92 1227.87 Q2074.22 1227.87 2071.25 1224.12 Q2068.31 1220.37 2068.31 1214.26 Q2068.31 1208.15 2071.25 1204.4 Q2074.22 1200.65 2078.92 1200.65 Q2081.79 1200.65 2083.82 1201.79 Q2085.88 1202.9 2087.23 1205.21 M2072.71 1214.26 Q2072.71 1218.96 2074.63 1221.65 Q2076.58 1224.31 2079.96 1224.31 Q2083.34 1224.31 2085.28 1221.65 Q2087.23 1218.96 2087.23 1214.26 Q2087.23 1209.56 2085.28 1206.9 Q2083.34 1204.22 2079.96 1204.22 Q2076.58 1204.22 2074.63 1206.9 Q2072.71 1209.56 2072.71 1214.26 Z" fill="#000000" fill-rule="evenodd" fill-opacity="1" /><path clip-path="url(#clip570)" d="M2115.28 1205.26 Q2114.56 1204.84 2113.71 1204.66 Q2112.87 1204.45 2111.86 1204.45 Q2108.24 1204.45 2106.3 1206.81 Q2104.38 1209.15 2104.38 1213.54 L2104.38 1227.2 L2100.1 1227.2 L2100.1 1201.28 L2104.38 1201.28 L2104.38 1205.3 Q2105.72 1202.94 2107.87 1201.81 Q2110.03 1200.65 2113.11 1200.65 Q2113.55 1200.65 2114.08 1200.72 Q2114.61 1200.77 2115.26 1200.88 L2115.28 1205.26 Z" fill="#000000" fill-rule="evenodd" fill-opacity="1" /><path clip-path="url(#clip570)" d="M2128.75 1204.26 Q2125.33 1204.26 2123.34 1206.95 Q2121.35 1209.61 2121.35 1214.26 Q2121.35 1218.91 2123.31 1221.6 Q2125.3 1224.26 2128.75 1224.26 Q2132.16 1224.26 2134.15 1221.58 Q2136.14 1218.89 2136.14 1214.26 Q2136.14 1209.66 2134.15 1206.97 Q2132.16 1204.26 2128.75 1204.26 M2128.75 1200.65 Q2134.31 1200.65 2137.48 1204.26 Q2140.65 1207.87 2140.65 1214.26 Q2140.65 1220.63 2137.48 1224.26 Q2134.31 1227.87 2128.75 1227.87 Q2123.18 1227.87 2120 1224.26 Q2116.86 1220.63 2116.86 1214.26 Q2116.86 1207.87 2120 1204.26 Q2123.18 1200.65 2128.75 1200.65 Z" fill="#000000" fill-rule="evenodd" fill-opacity="1" /><path clip-path="url(#clip570)" d="M2164.77 1213.94 Q2164.77 1209.31 2162.85 1206.76 Q2160.95 1204.22 2157.5 1204.22 Q2154.08 1204.22 2152.16 1206.76 Q2150.26 1209.31 2150.26 1213.94 Q2150.26 1218.54 2152.16 1221.09 Q2154.08 1223.64 2157.5 1223.64 Q2160.95 1223.64 2162.85 1221.09 Q2164.77 1218.54 2164.77 1213.94 M2169.03 1223.98 Q2169.03 1230.6 2166.09 1233.82 Q2163.15 1237.06 2157.09 1237.06 Q2154.84 1237.06 2152.85 1236.72 Q2150.86 1236.39 2148.99 1235.7 L2148.99 1231.55 Q2150.86 1232.57 2152.69 1233.06 Q2154.52 1233.54 2156.42 1233.54 Q2160.61 1233.54 2162.69 1231.35 Q2164.77 1229.17 2164.77 1224.75 L2164.77 1222.64 Q2163.45 1224.93 2161.39 1226.07 Q2159.33 1227.2 2156.46 1227.2 Q2151.69 1227.2 2148.78 1223.57 Q2145.86 1219.93 2145.86 1213.94 Q2145.86 1207.92 2148.78 1204.29 Q2151.69 1200.65 2156.46 1200.65 Q2159.33 1200.65 2161.39 1201.79 Q2163.45 1202.92 2164.77 1205.21 L2164.77 1201.28 L2169.03 1201.28 L2169.03 1223.98 Z" fill="#000000" fill-rule="evenodd" fill-opacity="1" /><path clip-path="url(#clip570)" d="M2199.98 1213.17 L2199.98 1215.26 L2180.4 1215.26 Q2180.67 1219.66 2183.04 1221.97 Q2185.42 1224.26 2189.66 1224.26 Q2192.11 1224.26 2194.4 1223.66 Q2196.72 1223.06 2198.98 1221.85 L2198.98 1225.88 Q2196.69 1226.85 2194.29 1227.36 Q2191.88 1227.87 2189.4 1227.87 Q2183.2 1227.87 2179.56 1224.26 Q2175.95 1220.65 2175.95 1214.49 Q2175.95 1208.13 2179.38 1204.4 Q2182.83 1200.65 2188.66 1200.65 Q2193.89 1200.65 2196.92 1204.03 Q2199.98 1207.39 2199.98 1213.17 M2195.72 1211.92 Q2195.67 1208.43 2193.75 1206.35 Q2191.86 1204.26 2188.71 1204.26 Q2185.14 1204.26 2182.99 1206.28 Q2180.86 1208.29 2180.54 1211.95 L2195.72 1211.92 Z" fill="#000000" fill-rule="evenodd" fill-opacity="1" /><path clip-path="url(#clip570)" d="M2228.52 1211.55 L2228.52 1227.2 L2224.26 1227.2 L2224.26 1211.69 Q2224.26 1208.01 2222.83 1206.18 Q2221.39 1204.35 2218.52 1204.35 Q2215.07 1204.35 2213.08 1206.55 Q2211.09 1208.75 2211.09 1212.55 L2211.09 1227.2 L2206.81 1227.2 L2206.81 1201.28 L2211.09 1201.28 L2211.09 1205.3 Q2212.62 1202.97 2214.68 1201.81 Q2216.76 1200.65 2219.47 1200.65 Q2223.94 1200.65 2226.23 1203.43 Q2228.52 1206.18 2228.52 1211.55 Z" fill="#000000" fill-rule="evenodd" fill-opacity="1" /><polyline clip-path="url(#clip570)" style="stroke:#e8000b; stroke-linecap:round; stroke-linejoin:round; stroke-width:4; stroke-opacity:1; fill:none" points="
  1672.64,1261.76 1816.08,1261.76 
  "/>
<path clip-path="url(#clip570)" d="M1839.98 1244.48 L1862.2 1244.48 L1862.2 1246.47 L1849.66 1279.04 L1844.77 1279.04 L1856.58 1248.42 L1839.98 1248.42 L1839.98 1244.48 Z" fill="#000000" fill-rule="evenodd" fill-opacity="1" /><path clip-path="url(#clip570)" d="M1871.37 1244.48 L1889.73 1244.48 L1889.73 1248.42 L1875.65 1248.42 L1875.65 1256.89 Q1876.67 1256.54 1877.69 1256.38 Q1878.71 1256.19 1879.73 1256.19 Q1885.51 1256.19 1888.89 1259.37 Q1892.27 1262.54 1892.27 1267.95 Q1892.27 1273.53 1888.8 1276.63 Q1885.33 1279.71 1879.01 1279.71 Q1876.83 1279.71 1874.57 1279.34 Q1872.32 1278.97 1869.91 1278.23 L1869.91 1273.53 Q1872 1274.67 1874.22 1275.22 Q1876.44 1275.78 1878.92 1275.78 Q1882.92 1275.78 1885.26 1273.67 Q1887.6 1271.56 1887.6 1267.95 Q1887.6 1264.34 1885.26 1262.24 Q1882.92 1260.13 1878.92 1260.13 Q1877.04 1260.13 1875.17 1260.55 Q1873.32 1260.96 1871.37 1261.84 L1871.37 1244.48 Z" fill="#000000" fill-rule="evenodd" fill-opacity="1" /><path clip-path="url(#clip570)" d="M1901.49 1273.16 L1906.37 1273.16 L1906.37 1279.04 L1901.49 1279.04 L1901.49 1273.16 Z" fill="#000000" fill-rule="evenodd" fill-opacity="1" /><path clip-path="url(#clip570)" d="M1926.56 1247.56 Q1922.94 1247.56 1921.12 1251.13 Q1919.31 1254.67 1919.31 1261.8 Q1919.31 1268.9 1921.12 1272.47 Q1922.94 1276.01 1926.56 1276.01 Q1930.19 1276.01 1932 1272.47 Q1933.82 1268.9 1933.82 1261.8 Q1933.82 1254.67 1932 1251.13 Q1930.19 1247.56 1926.56 1247.56 M1926.56 1243.86 Q1932.37 1243.86 1935.42 1248.46 Q1938.5 1253.05 1938.5 1261.8 Q1938.5 1270.52 1935.42 1275.13 Q1932.37 1279.71 1926.56 1279.71 Q1920.75 1279.71 1917.67 1275.13 Q1914.61 1270.52 1914.61 1261.8 Q1914.61 1253.05 1917.67 1248.46 Q1920.75 1243.86 1926.56 1243.86 Z" fill="#000000" fill-rule="evenodd" fill-opacity="1" /><path clip-path="url(#clip570)" d="M1976.12 1263.83 Q1974.1 1263.83 1972.94 1265.55 Q1971.81 1267.26 1971.81 1270.31 Q1971.81 1273.32 1972.94 1275.06 Q1974.1 1276.77 1976.12 1276.77 Q1978.08 1276.77 1979.22 1275.06 Q1980.37 1273.32 1980.37 1270.31 Q1980.37 1267.28 1979.22 1265.57 Q1978.08 1263.83 1976.12 1263.83 M1976.12 1260.89 Q1979.77 1260.89 1981.93 1263.44 Q1984.08 1265.99 1984.08 1270.31 Q1984.08 1274.64 1981.9 1277.19 Q1979.75 1279.71 1976.12 1279.71 Q1972.41 1279.71 1970.26 1277.19 Q1968.11 1274.64 1968.11 1270.31 Q1968.11 1265.96 1970.26 1263.44 Q1972.44 1260.89 1976.12 1260.89 M1952.23 1246.8 Q1950.24 1246.8 1949.08 1248.53 Q1947.94 1250.25 1947.94 1253.25 Q1947.94 1256.31 1949.08 1258.02 Q1950.21 1259.74 1952.23 1259.74 Q1954.24 1259.74 1955.37 1258.02 Q1956.53 1256.31 1956.53 1253.25 Q1956.53 1250.27 1955.37 1248.53 Q1954.22 1246.8 1952.23 1246.8 M1973.13 1243.86 L1976.83 1243.86 L1955.21 1279.71 L1951.51 1279.71 L1973.13 1243.86 M1952.23 1243.86 Q1955.88 1243.86 1958.06 1246.4 Q1960.24 1248.93 1960.24 1253.25 Q1960.24 1257.63 1958.06 1260.15 Q1955.91 1262.68 1952.23 1262.68 Q1948.55 1262.68 1946.39 1260.15 Q1944.26 1257.61 1944.26 1253.25 Q1944.26 1248.95 1946.42 1246.4 Q1948.57 1243.86 1952.23 1243.86 Z" fill="#000000" fill-rule="evenodd" fill-opacity="1" /><path clip-path="url(#clip570)" d="M2006.42 1244.48 L2011.09 1244.48 L2011.09 1258.65 L2028.08 1258.65 L2028.08 1244.48 L2032.76 1244.48 L2032.76 1279.04 L2028.08 1279.04 L2028.08 1262.58 L2011.09 1262.58 L2011.09 1279.04 L2006.42 1279.04 L2006.42 1244.48 Z" fill="#000000" fill-rule="evenodd" fill-opacity="1" /><path clip-path="url(#clip570)" d="M2052.67 1281.45 Q2050.86 1286.08 2049.15 1287.49 Q2047.43 1288.9 2044.56 1288.9 L2041.16 1288.9 L2041.16 1285.34 L2043.66 1285.34 Q2045.42 1285.34 2046.39 1284.5 Q2047.37 1283.67 2048.55 1280.57 L2049.31 1278.62 L2038.82 1253.12 L2043.34 1253.12 L2051.44 1273.39 L2059.54 1253.12 L2064.05 1253.12 L2052.67 1281.45 Z" fill="#000000" fill-rule="evenodd" fill-opacity="1" /><path clip-path="url(#clip570)" d="M2086.99 1257.05 L2086.99 1243.02 L2091.25 1243.02 L2091.25 1279.04 L2086.99 1279.04 L2086.99 1275.15 Q2085.65 1277.47 2083.59 1278.6 Q2081.55 1279.71 2078.68 1279.71 Q2073.99 1279.71 2071.02 1275.96 Q2068.08 1272.21 2068.08 1266.1 Q2068.08 1259.99 2071.02 1256.24 Q2073.99 1252.49 2078.68 1252.49 Q2081.55 1252.49 2083.59 1253.63 Q2085.65 1254.74 2086.99 1257.05 M2072.48 1266.1 Q2072.48 1270.8 2074.4 1273.49 Q2076.35 1276.15 2079.73 1276.15 Q2083.11 1276.15 2085.05 1273.49 Q2086.99 1270.8 2086.99 1266.1 Q2086.99 1261.4 2085.05 1258.74 Q2083.11 1256.06 2079.73 1256.06 Q2076.35 1256.06 2074.4 1258.74 Q2072.48 1261.4 2072.48 1266.1 Z" fill="#000000" fill-rule="evenodd" fill-opacity="1" /><path clip-path="url(#clip570)" d="M2115.05 1257.1 Q2114.33 1256.68 2113.48 1256.5 Q2112.64 1256.29 2111.62 1256.29 Q2108.01 1256.29 2106.07 1258.65 Q2104.15 1260.99 2104.15 1265.38 L2104.15 1279.04 L2099.86 1279.04 L2099.86 1253.12 L2104.15 1253.12 L2104.15 1257.14 Q2105.49 1254.78 2107.64 1253.65 Q2109.8 1252.49 2112.87 1252.49 Q2113.31 1252.49 2113.85 1252.56 Q2114.38 1252.61 2115.03 1252.72 L2115.05 1257.1 Z" fill="#000000" fill-rule="evenodd" fill-opacity="1" /><path clip-path="url(#clip570)" d="M2128.52 1256.1 Q2125.1 1256.1 2123.11 1258.79 Q2121.11 1261.45 2121.11 1266.1 Q2121.11 1270.75 2123.08 1273.44 Q2125.07 1276.1 2128.52 1276.1 Q2131.92 1276.1 2133.92 1273.42 Q2135.91 1270.73 2135.91 1266.1 Q2135.91 1261.5 2133.92 1258.81 Q2131.92 1256.1 2128.52 1256.1 M2128.52 1252.49 Q2134.08 1252.49 2137.25 1256.1 Q2140.42 1259.71 2140.42 1266.1 Q2140.42 1272.47 2137.25 1276.1 Q2134.08 1279.71 2128.52 1279.71 Q2122.94 1279.71 2119.77 1276.1 Q2116.62 1272.47 2116.62 1266.1 Q2116.62 1259.71 2119.77 1256.1 Q2122.94 1252.49 2128.52 1252.49 Z" fill="#000000" fill-rule="evenodd" fill-opacity="1" /><path clip-path="url(#clip570)" d="M2164.54 1265.78 Q2164.54 1261.15 2162.62 1258.6 Q2160.72 1256.06 2157.27 1256.06 Q2153.85 1256.06 2151.92 1258.6 Q2150.03 1261.15 2150.03 1265.78 Q2150.03 1270.38 2151.92 1272.93 Q2153.85 1275.48 2157.27 1275.48 Q2160.72 1275.48 2162.62 1272.93 Q2164.54 1270.38 2164.54 1265.78 M2168.8 1275.82 Q2168.8 1282.44 2165.86 1285.66 Q2162.92 1288.9 2156.86 1288.9 Q2154.61 1288.9 2152.62 1288.56 Q2150.63 1288.23 2148.75 1287.54 L2148.75 1283.39 Q2150.63 1284.41 2152.46 1284.9 Q2154.29 1285.38 2156.18 1285.38 Q2160.37 1285.38 2162.46 1283.19 Q2164.54 1281.01 2164.54 1276.59 L2164.54 1274.48 Q2163.22 1276.77 2161.16 1277.91 Q2159.1 1279.04 2156.23 1279.04 Q2151.46 1279.04 2148.55 1275.41 Q2145.63 1271.77 2145.63 1265.78 Q2145.63 1259.76 2148.55 1256.13 Q2151.46 1252.49 2156.23 1252.49 Q2159.1 1252.49 2161.16 1253.63 Q2163.22 1254.76 2164.54 1257.05 L2164.54 1253.12 L2168.8 1253.12 L2168.8 1275.82 Z" fill="#000000" fill-rule="evenodd" fill-opacity="1" /><path clip-path="url(#clip570)" d="M2199.75 1265.01 L2199.75 1267.1 L2180.17 1267.1 Q2180.44 1271.5 2182.8 1273.81 Q2185.19 1276.1 2189.42 1276.1 Q2191.88 1276.1 2194.17 1275.5 Q2196.48 1274.9 2198.75 1273.69 L2198.75 1277.72 Q2196.46 1278.69 2194.05 1279.2 Q2191.65 1279.71 2189.17 1279.71 Q2182.97 1279.71 2179.33 1276.1 Q2175.72 1272.49 2175.72 1266.33 Q2175.72 1259.97 2179.15 1256.24 Q2182.6 1252.49 2188.43 1252.49 Q2193.66 1252.49 2196.69 1255.87 Q2199.75 1259.23 2199.75 1265.01 M2195.49 1263.76 Q2195.44 1260.27 2193.52 1258.19 Q2191.62 1256.1 2188.48 1256.1 Q2184.91 1256.1 2182.76 1258.12 Q2180.63 1260.13 2180.3 1263.79 L2195.49 1263.76 Z" fill="#000000" fill-rule="evenodd" fill-opacity="1" /><path clip-path="url(#clip570)" d="M2228.29 1263.39 L2228.29 1279.04 L2224.03 1279.04 L2224.03 1263.53 Q2224.03 1259.85 2222.6 1258.02 Q2221.16 1256.19 2218.29 1256.19 Q2214.84 1256.19 2212.85 1258.39 Q2210.86 1260.59 2210.86 1264.39 L2210.86 1279.04 L2206.58 1279.04 L2206.58 1253.12 L2210.86 1253.12 L2210.86 1257.14 Q2212.39 1254.81 2214.45 1253.65 Q2216.53 1252.49 2219.24 1252.49 Q2223.71 1252.49 2226 1255.27 Q2228.29 1258.02 2228.29 1263.39 Z" fill="#000000" fill-rule="evenodd" fill-opacity="1" /><polyline clip-path="url(#clip570)" style="stroke:#8b2be2; stroke-linecap:round; stroke-linejoin:round; stroke-width:4; stroke-opacity:1; fill:none" points="
  1672.64,1313.6 1816.08,1313.6 
  "/>
<path clip-path="url(#clip570)" d="M1840.65 1326.95 L1848.29 1326.95 L1848.29 1300.58 L1839.98 1302.25 L1839.98 1297.99 L1848.25 1296.32 L1852.92 1296.32 L1852.92 1326.95 L1860.56 1326.95 L1860.56 1330.88 L1840.65 1330.88 L1840.65 1326.95 Z" fill="#000000" fill-rule="evenodd" fill-opacity="1" /><path clip-path="url(#clip570)" d="M1880.01 1299.4 Q1876.39 1299.4 1874.57 1302.97 Q1872.76 1306.51 1872.76 1313.64 Q1872.76 1320.74 1874.57 1324.31 Q1876.39 1327.85 1880.01 1327.85 Q1883.64 1327.85 1885.44 1324.31 Q1887.27 1320.74 1887.27 1313.64 Q1887.27 1306.51 1885.44 1302.97 Q1883.64 1299.4 1880.01 1299.4 M1880.01 1295.7 Q1885.82 1295.7 1888.87 1300.3 Q1891.95 1304.89 1891.95 1313.64 Q1891.95 1322.36 1888.87 1326.97 Q1885.82 1331.55 1880.01 1331.55 Q1874.19 1331.55 1871.12 1326.97 Q1868.06 1322.36 1868.06 1313.64 Q1868.06 1304.89 1871.12 1300.3 Q1874.19 1295.7 1880.01 1295.7 Z" fill="#000000" fill-rule="evenodd" fill-opacity="1" /><path clip-path="url(#clip570)" d="M1910.17 1299.4 Q1906.56 1299.4 1904.73 1302.97 Q1902.92 1306.51 1902.92 1313.64 Q1902.92 1320.74 1904.73 1324.31 Q1906.56 1327.85 1910.17 1327.85 Q1913.8 1327.85 1915.61 1324.31 Q1917.44 1320.74 1917.44 1313.64 Q1917.44 1306.51 1915.61 1302.97 Q1913.8 1299.4 1910.17 1299.4 M1910.17 1295.7 Q1915.98 1295.7 1919.03 1300.3 Q1922.11 1304.89 1922.11 1313.64 Q1922.11 1322.36 1919.03 1326.97 Q1915.98 1331.55 1910.17 1331.55 Q1904.36 1331.55 1901.28 1326.97 Q1898.22 1322.36 1898.22 1313.64 Q1898.22 1304.89 1901.28 1300.3 Q1904.36 1295.7 1910.17 1295.7 Z" fill="#000000" fill-rule="evenodd" fill-opacity="1" /><path clip-path="url(#clip570)" d="M1930.33 1325 L1935.21 1325 L1935.21 1330.88 L1930.33 1330.88 L1930.33 1325 Z" fill="#000000" fill-rule="evenodd" fill-opacity="1" /><path clip-path="url(#clip570)" d="M1955.4 1299.4 Q1951.79 1299.4 1949.96 1302.97 Q1948.15 1306.51 1948.15 1313.64 Q1948.15 1320.74 1949.96 1324.31 Q1951.79 1327.85 1955.4 1327.85 Q1959.03 1327.85 1960.84 1324.31 Q1962.67 1320.74 1962.67 1313.64 Q1962.67 1306.51 1960.84 1302.97 Q1959.03 1299.4 1955.4 1299.4 M1955.4 1295.7 Q1961.21 1295.7 1964.26 1300.3 Q1967.34 1304.89 1967.34 1313.64 Q1967.34 1322.36 1964.26 1326.97 Q1961.21 1331.55 1955.4 1331.55 Q1949.59 1331.55 1946.51 1326.97 Q1943.45 1322.36 1943.45 1313.64 Q1943.45 1304.89 1946.51 1300.3 Q1949.59 1295.7 1955.4 1295.7 Z" fill="#000000" fill-rule="evenodd" fill-opacity="1" /><path clip-path="url(#clip570)" d="M2004.96 1315.67 Q2002.94 1315.67 2001.79 1317.39 Q2000.65 1319.1 2000.65 1322.15 Q2000.65 1325.16 2001.79 1326.9 Q2002.94 1328.61 2004.96 1328.61 Q2006.93 1328.61 2008.06 1326.9 Q2009.22 1325.16 2009.22 1322.15 Q2009.22 1319.12 2008.06 1317.41 Q2006.93 1315.67 2004.96 1315.67 M2004.96 1312.73 Q2008.62 1312.73 2010.77 1315.28 Q2012.92 1317.83 2012.92 1322.15 Q2012.92 1326.48 2010.75 1329.03 Q2008.59 1331.55 2004.96 1331.55 Q2001.25 1331.55 1999.1 1329.03 Q1996.95 1326.48 1996.95 1322.15 Q1996.95 1317.8 1999.1 1315.28 Q2001.28 1312.73 2004.96 1312.73 M1981.07 1298.64 Q1979.08 1298.64 1977.92 1300.37 Q1976.79 1302.09 1976.79 1305.09 Q1976.79 1308.15 1977.92 1309.86 Q1979.06 1311.58 1981.07 1311.58 Q1983.08 1311.58 1984.22 1309.86 Q1985.37 1308.15 1985.37 1305.09 Q1985.37 1302.11 1984.22 1300.37 Q1983.06 1298.64 1981.07 1298.64 M2001.97 1295.7 L2005.68 1295.7 L1984.06 1331.55 L1980.35 1331.55 L2001.97 1295.7 M1981.07 1295.7 Q1984.73 1295.7 1986.9 1298.24 Q1989.08 1300.77 1989.08 1305.09 Q1989.08 1309.47 1986.9 1311.99 Q1984.75 1314.52 1981.07 1314.52 Q1977.39 1314.52 1975.24 1311.99 Q1973.11 1309.45 1973.11 1305.09 Q1973.11 1300.79 1975.26 1298.24 Q1977.41 1295.7 1981.07 1295.7 Z" fill="#000000" fill-rule="evenodd" fill-opacity="1" /><path clip-path="url(#clip570)" d="M2035.26 1296.32 L2039.93 1296.32 L2039.93 1310.49 L2056.93 1310.49 L2056.93 1296.32 L2061.6 1296.32 L2061.6 1330.88 L2056.93 1330.88 L2056.93 1314.42 L2039.93 1314.42 L2039.93 1330.88 L2035.26 1330.88 L2035.26 1296.32 Z" fill="#000000" fill-rule="evenodd" fill-opacity="1" /><path clip-path="url(#clip570)" d="M2081.51 1333.29 Q2079.7 1337.92 2077.99 1339.33 Q2076.28 1340.74 2073.41 1340.74 L2070 1340.74 L2070 1337.18 L2072.5 1337.18 Q2074.26 1337.18 2075.24 1336.34 Q2076.21 1335.51 2077.39 1332.41 L2078.15 1330.46 L2067.67 1304.96 L2072.18 1304.96 L2080.28 1325.23 L2088.38 1304.96 L2092.9 1304.96 L2081.51 1333.29 Z" fill="#000000" fill-rule="evenodd" fill-opacity="1" /><path clip-path="url(#clip570)" d="M2115.84 1308.89 L2115.84 1294.86 L2120.1 1294.86 L2120.1 1330.88 L2115.84 1330.88 L2115.84 1326.99 Q2114.49 1329.31 2112.43 1330.44 Q2110.4 1331.55 2107.53 1331.55 Q2102.83 1331.55 2099.86 1327.8 Q2096.93 1324.05 2096.93 1317.94 Q2096.93 1311.83 2099.86 1308.08 Q2102.83 1304.33 2107.53 1304.33 Q2110.4 1304.33 2112.43 1305.47 Q2114.49 1306.58 2115.84 1308.89 M2101.32 1317.94 Q2101.32 1322.64 2103.24 1325.33 Q2105.19 1327.99 2108.57 1327.99 Q2111.95 1327.99 2113.89 1325.33 Q2115.84 1322.64 2115.84 1317.94 Q2115.84 1313.24 2113.89 1310.58 Q2111.95 1307.9 2108.57 1307.9 Q2105.19 1307.9 2103.24 1310.58 Q2101.32 1313.24 2101.32 1317.94 Z" fill="#000000" fill-rule="evenodd" fill-opacity="1" /><path clip-path="url(#clip570)" d="M2143.89 1308.94 Q2143.17 1308.52 2142.32 1308.34 Q2141.49 1308.13 2140.47 1308.13 Q2136.86 1308.13 2134.91 1310.49 Q2132.99 1312.83 2132.99 1317.22 L2132.99 1330.88 L2128.71 1330.88 L2128.71 1304.96 L2132.99 1304.96 L2132.99 1308.98 Q2134.33 1306.62 2136.49 1305.49 Q2138.64 1304.33 2141.72 1304.33 Q2142.16 1304.33 2142.69 1304.4 Q2143.22 1304.45 2143.87 1304.56 L2143.89 1308.94 Z" fill="#000000" fill-rule="evenodd" fill-opacity="1" /><path clip-path="url(#clip570)" d="M2157.36 1307.94 Q2153.94 1307.94 2151.95 1310.63 Q2149.96 1313.29 2149.96 1317.94 Q2149.96 1322.59 2151.92 1325.28 Q2153.92 1327.94 2157.36 1327.94 Q2160.77 1327.94 2162.76 1325.26 Q2164.75 1322.57 2164.75 1317.94 Q2164.75 1313.34 2162.76 1310.65 Q2160.77 1307.94 2157.36 1307.94 M2157.36 1304.33 Q2162.92 1304.33 2166.09 1307.94 Q2169.26 1311.55 2169.26 1317.94 Q2169.26 1324.31 2166.09 1327.94 Q2162.92 1331.55 2157.36 1331.55 Q2151.79 1331.55 2148.61 1327.94 Q2145.47 1324.31 2145.47 1317.94 Q2145.47 1311.55 2148.61 1307.94 Q2151.79 1304.33 2157.36 1304.33 Z" fill="#000000" fill-rule="evenodd" fill-opacity="1" /><path clip-path="url(#clip570)" d="M2193.38 1317.62 Q2193.38 1312.99 2191.46 1310.44 Q2189.56 1307.9 2186.11 1307.9 Q2182.69 1307.9 2180.77 1310.44 Q2178.87 1312.99 2178.87 1317.62 Q2178.87 1322.22 2180.77 1324.77 Q2182.69 1327.32 2186.11 1327.32 Q2189.56 1327.32 2191.46 1324.77 Q2193.38 1322.22 2193.38 1317.62 M2197.64 1327.66 Q2197.64 1334.28 2194.7 1337.5 Q2191.76 1340.74 2185.7 1340.74 Q2183.45 1340.74 2181.46 1340.4 Q2179.47 1340.07 2177.6 1339.38 L2177.6 1335.23 Q2179.47 1336.25 2181.3 1336.74 Q2183.13 1337.22 2185.03 1337.22 Q2189.22 1337.22 2191.3 1335.03 Q2193.38 1332.85 2193.38 1328.43 L2193.38 1326.32 Q2192.06 1328.61 2190 1329.75 Q2187.94 1330.88 2185.07 1330.88 Q2180.3 1330.88 2177.39 1327.25 Q2174.47 1323.61 2174.47 1317.62 Q2174.47 1311.6 2177.39 1307.97 Q2180.3 1304.33 2185.07 1304.33 Q2187.94 1304.33 2190 1305.47 Q2192.06 1306.6 2193.38 1308.89 L2193.38 1304.96 L2197.64 1304.96 L2197.64 1327.66 Z" fill="#000000" fill-rule="evenodd" fill-opacity="1" /><path clip-path="url(#clip570)" d="M2228.59 1316.85 L2228.59 1318.94 L2209.01 1318.94 Q2209.29 1323.34 2211.65 1325.65 Q2214.03 1327.94 2218.27 1327.94 Q2220.72 1327.94 2223.01 1327.34 Q2225.33 1326.74 2227.6 1325.53 L2227.6 1329.56 Q2225.3 1330.53 2222.9 1331.04 Q2220.49 1331.55 2218.01 1331.55 Q2211.81 1331.55 2208.17 1327.94 Q2204.56 1324.33 2204.56 1318.17 Q2204.56 1311.81 2207.99 1308.08 Q2211.44 1304.33 2217.27 1304.33 Q2222.5 1304.33 2225.54 1307.71 Q2228.59 1311.07 2228.59 1316.85 M2224.33 1315.6 Q2224.29 1312.11 2222.36 1310.03 Q2220.47 1307.94 2217.32 1307.94 Q2213.75 1307.94 2211.6 1309.96 Q2209.47 1311.97 2209.15 1315.63 L2224.33 1315.6 Z" fill="#000000" fill-rule="evenodd" fill-opacity="1" /><path clip-path="url(#clip570)" d="M2257.13 1315.23 L2257.13 1330.88 L2252.87 1330.88 L2252.87 1315.37 Q2252.87 1311.69 2251.44 1309.86 Q2250 1308.03 2247.13 1308.03 Q2243.68 1308.03 2241.69 1310.23 Q2239.7 1312.43 2239.7 1316.23 L2239.7 1330.88 L2235.42 1330.88 L2235.42 1304.96 L2239.7 1304.96 L2239.7 1308.98 Q2241.23 1306.65 2243.29 1305.49 Q2245.37 1304.33 2248.08 1304.33 Q2252.55 1304.33 2254.84 1307.11 Q2257.13 1309.86 2257.13 1315.23 Z" fill="#000000" fill-rule="evenodd" fill-opacity="1" /></svg>
