<?xml version="1.0" encoding="utf-8"?>
<svg xmlns="http://www.w3.org/2000/svg" xmlns:xlink="http://www.w3.org/1999/xlink" width="600" height="400" viewBox="0 0 2400 1600">
<defs>
  <clipPath id="clip530">
    <rect x="0" y="0" width="2400" height="1600"/>
  </clipPath>
</defs>
<path clip-path="url(#clip530)" d="
M0 1600 L2400 1600 L2400 0 L0 0  Z
  " fill="#ffffff" fill-rule="evenodd" fill-opacity="1"/>
<defs>
  <clipPath id="clip531">
    <rect x="480" y="0" width="1681" height="1600"/>
  </clipPath>
</defs>
<path clip-path="url(#clip530)" d="
M400.671 1423.18 L2352.76 1423.18 L2352.76 47.2441 L400.671 47.2441  Z
  " fill="#ffffff" fill-rule="evenodd" fill-opacity="1"/>
<defs>
  <clipPath id="clip532">
    <rect x="400" y="47" width="1953" height="1377"/>
  </clipPath>
</defs>
<polyline clip-path="url(#clip532)" style="stroke:#000000; stroke-linecap:round; stroke-linejoin:round; stroke-width:2; stroke-opacity:0.1; fill:none" points="
  455.919,1423.18 455.919,47.2441 
  "/>
<polyline clip-path="url(#clip532)" style="stroke:#000000; stroke-linecap:round; stroke-linejoin:round; stroke-width:2; stroke-opacity:0.1; fill:none" points="
  916.316,1423.18 916.316,47.2441 
  "/>
<polyline clip-path="url(#clip532)" style="stroke:#000000; stroke-linecap:round; stroke-linejoin:round; stroke-width:2; stroke-opacity:0.1; fill:none" points="
  1376.71,1423.18 1376.71,47.2441 
  "/>
<polyline clip-path="url(#clip532)" style="stroke:#000000; stroke-linecap:round; stroke-linejoin:round; stroke-width:2; stroke-opacity:0.1; fill:none" points="
  1837.11,1423.18 1837.11,47.2441 
  "/>
<polyline clip-path="url(#clip532)" style="stroke:#000000; stroke-linecap:round; stroke-linejoin:round; stroke-width:2; stroke-opacity:0.1; fill:none" points="
  2297.51,1423.18 2297.51,47.2441 
  "/>
<polyline clip-path="url(#clip530)" style="stroke:#000000; stroke-linecap:round; stroke-linejoin:round; stroke-width:4; stroke-opacity:1; fill:none" points="
  400.671,1423.18 2352.76,1423.18 
  "/>
<polyline clip-path="url(#clip530)" style="stroke:#000000; stroke-linecap:round; stroke-linejoin:round; stroke-width:4; stroke-opacity:1; fill:none" points="
  455.919,1423.18 455.919,1404.28 
  "/>
<polyline clip-path="url(#clip530)" style="stroke:#000000; stroke-linecap:round; stroke-linejoin:round; stroke-width:4; stroke-opacity:1; fill:none" points="
  916.316,1423.18 916.316,1404.28 
  "/>
<polyline clip-path="url(#clip530)" style="stroke:#000000; stroke-linecap:round; stroke-linejoin:round; stroke-width:4; stroke-opacity:1; fill:none" points="
  1376.71,1423.18 1376.71,1404.28 
  "/>
<polyline clip-path="url(#clip530)" style="stroke:#000000; stroke-linecap:round; stroke-linejoin:round; stroke-width:4; stroke-opacity:1; fill:none" points="
  1837.11,1423.18 1837.11,1404.28 
  "/>
<polyline clip-path="url(#clip530)" style="stroke:#000000; stroke-linecap:round; stroke-linejoin:round; stroke-width:4; stroke-opacity:1; fill:none" points="
  2297.51,1423.18 2297.51,1404.28 
  "/>
<path clip-path="url(#clip530)" d="M455.919 1454.1 Q452.308 1454.1 450.479 1457.66 Q448.673 1461.2 448.673 1468.33 Q448.673 1475.44 450.479 1479.01 Q452.308 1482.55 455.919 1482.55 Q459.553 1482.55 461.359 1479.01 Q463.187 1475.44 463.187 1468.33 Q463.187 1461.2 461.359 1457.66 Q459.553 1454.1 455.919 1454.1 M455.919 1450.39 Q461.729 1450.39 464.785 1455 Q467.863 1459.58 467.863 1468.33 Q467.863 1477.06 464.785 1481.67 Q461.729 1486.25 455.919 1486.25 Q450.109 1486.25 447.03 1481.67 Q443.974 1477.06 443.974 1468.33 Q443.974 1459.58 447.03 1455 Q450.109 1450.39 455.919 1450.39 Z" fill="#000000" fill-rule="evenodd" fill-opacity="1" /><path clip-path="url(#clip530)" d="M895.587 1481.64 L911.906 1481.64 L911.906 1485.58 L889.962 1485.58 L889.962 1481.64 Q892.624 1478.89 897.207 1474.26 Q901.814 1469.61 902.994 1468.27 Q905.24 1465.74 906.119 1464.01 Q907.022 1462.25 907.022 1460.56 Q907.022 1457.8 905.078 1456.07 Q903.157 1454.33 900.055 1454.33 Q897.856 1454.33 895.402 1455.09 Q892.971 1455.86 890.194 1457.41 L890.194 1452.69 Q893.018 1451.55 895.471 1450.97 Q897.925 1450.39 899.962 1450.39 Q905.332 1450.39 908.527 1453.08 Q911.721 1455.77 911.721 1460.26 Q911.721 1462.39 910.911 1464.31 Q910.124 1466.2 908.018 1468.8 Q907.439 1469.47 904.337 1472.69 Q901.235 1475.88 895.587 1481.64 Z" fill="#000000" fill-rule="evenodd" fill-opacity="1" /><path clip-path="url(#clip530)" d="M921.768 1451.02 L940.124 1451.02 L940.124 1454.96 L926.05 1454.96 L926.05 1463.43 Q927.068 1463.08 928.087 1462.92 Q929.105 1462.73 930.124 1462.73 Q935.911 1462.73 939.291 1465.9 Q942.67 1469.08 942.67 1474.49 Q942.67 1480.07 939.198 1483.17 Q935.726 1486.25 929.406 1486.25 Q927.23 1486.25 924.962 1485.88 Q922.717 1485.51 920.309 1484.77 L920.309 1480.07 Q922.393 1481.2 924.615 1481.76 Q926.837 1482.32 929.314 1482.32 Q933.318 1482.32 935.656 1480.21 Q937.994 1478.1 937.994 1474.49 Q937.994 1470.88 935.656 1468.77 Q933.318 1466.67 929.314 1466.67 Q927.439 1466.67 925.564 1467.08 Q923.712 1467.5 921.768 1468.38 L921.768 1451.02 Z" fill="#000000" fill-rule="evenodd" fill-opacity="1" /><path clip-path="url(#clip530)" d="M1351.41 1451.02 L1369.77 1451.02 L1369.77 1454.96 L1355.7 1454.96 L1355.7 1463.43 Q1356.71 1463.08 1357.73 1462.92 Q1358.75 1462.73 1359.77 1462.73 Q1365.56 1462.73 1368.94 1465.9 Q1372.32 1469.08 1372.32 1474.49 Q1372.32 1480.07 1368.84 1483.17 Q1365.37 1486.25 1359.05 1486.25 Q1356.88 1486.25 1354.61 1485.88 Q1352.36 1485.51 1349.95 1484.77 L1349.95 1480.07 Q1352.04 1481.2 1354.26 1481.76 Q1356.48 1482.32 1358.96 1482.32 Q1362.96 1482.32 1365.3 1480.21 Q1367.64 1478.1 1367.64 1474.49 Q1367.64 1470.88 1365.3 1468.77 Q1362.96 1466.67 1358.96 1466.67 Q1357.08 1466.67 1355.21 1467.08 Q1353.36 1467.5 1351.41 1468.38 L1351.41 1451.02 Z" fill="#000000" fill-rule="evenodd" fill-opacity="1" /><path clip-path="url(#clip530)" d="M1391.53 1454.1 Q1387.92 1454.1 1386.09 1457.66 Q1384.28 1461.2 1384.28 1468.33 Q1384.28 1475.44 1386.09 1479.01 Q1387.92 1482.55 1391.53 1482.55 Q1395.16 1482.55 1396.97 1479.01 Q1398.8 1475.44 1398.8 1468.33 Q1398.8 1461.2 1396.97 1457.66 Q1395.16 1454.1 1391.53 1454.1 M1391.53 1450.39 Q1397.34 1450.39 1400.39 1455 Q1403.47 1459.58 1403.47 1468.33 Q1403.47 1477.06 1400.39 1481.67 Q1397.34 1486.25 1391.53 1486.25 Q1385.72 1486.25 1382.64 1481.67 Q1379.58 1477.06 1379.58 1468.33 Q1379.58 1459.58 1382.64 1455 Q1385.72 1450.39 1391.53 1450.39 Z" fill="#000000" fill-rule="evenodd" fill-opacity="1" /><path clip-path="url(#clip530)" d="M1810.97 1451.02 L1833.19 1451.02 L1833.19 1453.01 L1820.64 1485.58 L1815.76 1485.58 L1827.56 1454.96 L1810.97 1454.96 L1810.97 1451.02 Z" fill="#000000" fill-rule="evenodd" fill-opacity="1" /><path clip-path="url(#clip530)" d="M1842.35 1451.02 L1860.71 1451.02 L1860.71 1454.96 L1846.64 1454.96 L1846.64 1463.43 Q1847.65 1463.08 1848.67 1462.92 Q1849.69 1462.73 1850.71 1462.73 Q1856.5 1462.73 1859.88 1465.9 Q1863.26 1469.08 1863.26 1474.49 Q1863.26 1480.07 1859.78 1483.17 Q1856.31 1486.25 1849.99 1486.25 Q1847.82 1486.25 1845.55 1485.88 Q1843.3 1485.51 1840.9 1484.77 L1840.9 1480.07 Q1842.98 1481.2 1845.2 1481.76 Q1847.42 1482.32 1849.9 1482.32 Q1853.9 1482.32 1856.24 1480.21 Q1858.58 1478.1 1858.58 1474.49 Q1858.58 1470.88 1856.24 1468.77 Q1853.9 1466.67 1849.9 1466.67 Q1848.03 1466.67 1846.15 1467.08 Q1844.3 1467.5 1842.35 1468.38 L1842.35 1451.02 Z" fill="#000000" fill-rule="evenodd" fill-opacity="1" /><path clip-path="url(#clip530)" d="M2257.11 1481.64 L2264.75 1481.64 L2264.75 1455.28 L2256.44 1456.95 L2256.44 1452.69 L2264.71 1451.02 L2269.38 1451.02 L2269.38 1481.64 L2277.02 1481.64 L2277.02 1485.58 L2257.11 1485.58 L2257.11 1481.64 Z" fill="#000000" fill-rule="evenodd" fill-opacity="1" /><path clip-path="url(#clip530)" d="M2296.47 1454.1 Q2292.86 1454.1 2291.03 1457.66 Q2289.22 1461.2 2289.22 1468.33 Q2289.22 1475.44 2291.03 1479.01 Q2292.86 1482.55 2296.47 1482.55 Q2300.1 1482.55 2301.91 1479.01 Q2303.74 1475.44 2303.74 1468.33 Q2303.74 1461.2 2301.91 1457.66 Q2300.1 1454.1 2296.47 1454.1 M2296.47 1450.39 Q2302.28 1450.39 2305.33 1455 Q2308.41 1459.58 2308.41 1468.33 Q2308.41 1477.06 2305.33 1481.67 Q2302.28 1486.25 2296.47 1486.25 Q2290.66 1486.25 2287.58 1481.67 Q2284.52 1477.06 2284.52 1468.33 Q2284.52 1459.58 2287.58 1455 Q2290.66 1450.39 2296.47 1450.39 Z" fill="#000000" fill-rule="evenodd" fill-opacity="1" /><path clip-path="url(#clip530)" d="M2326.63 1454.1 Q2323.02 1454.1 2321.19 1457.66 Q2319.38 1461.2 2319.38 1468.33 Q2319.38 1475.44 2321.19 1479.01 Q2323.02 1482.55 2326.63 1482.55 Q2330.26 1482.55 2332.07 1479.01 Q2333.9 1475.44 2333.9 1468.33 Q2333.9 1461.2 2332.07 1457.66 Q2330.26 1454.1 2326.63 1454.1 M2326.63 1450.39 Q2332.44 1450.39 2335.49 1455 Q2338.57 1459.58 2338.57 1468.33 Q2338.57 1477.06 2335.49 1481.67 Q2332.44 1486.25 2326.63 1486.25 Q2320.82 1486.25 2317.74 1481.67 Q2314.68 1477.06 2314.68 1468.33 Q2314.68 1459.58 2317.74 1455 Q2320.82 1450.39 2326.63 1450.39 Z" fill="#000000" fill-rule="evenodd" fill-opacity="1" /><path clip-path="url(#clip530)" d="M1081.93 1547.13 Q1079.16 1547.13 1077.57 1549.49 Q1076.01 1551.84 1076.01 1556.04 Q1076.01 1560.18 1077.57 1562.57 Q1079.16 1564.92 1081.93 1564.92 Q1084.64 1564.92 1086.2 1562.57 Q1087.79 1560.18 1087.79 1556.04 Q1087.79 1551.87 1086.2 1549.52 Q1084.64 1547.13 1081.93 1547.13 M1081.93 1543.09 Q1086.96 1543.09 1089.92 1546.59 Q1092.88 1550.09 1092.88 1556.04 Q1092.88 1562 1089.89 1565.5 Q1086.93 1568.97 1081.93 1568.97 Q1076.84 1568.97 1073.88 1565.5 Q1070.92 1562 1070.92 1556.04 Q1070.92 1550.06 1073.88 1546.59 Q1076.87 1543.09 1081.93 1543.09 M1049.09 1523.71 Q1046.35 1523.71 1044.76 1526.09 Q1043.2 1528.45 1043.2 1532.59 Q1043.2 1536.79 1044.76 1539.14 Q1046.32 1541.5 1049.09 1541.5 Q1051.86 1541.5 1053.42 1539.14 Q1055.01 1536.79 1055.01 1532.59 Q1055.01 1528.48 1053.42 1526.09 Q1051.82 1523.71 1049.09 1523.71 M1077.83 1519.66 L1082.92 1519.66 L1053.19 1568.97 L1048.1 1568.97 L1077.83 1519.66 M1049.09 1519.66 Q1054.12 1519.66 1057.11 1523.17 Q1060.1 1526.63 1060.1 1532.59 Q1060.1 1538.6 1057.11 1542.07 Q1054.15 1545.54 1049.09 1545.54 Q1044.03 1545.54 1041.07 1542.07 Q1038.14 1538.57 1038.14 1532.59 Q1038.14 1526.67 1041.1 1523.17 Q1044.06 1519.66 1049.09 1519.66 Z" fill="#000000" fill-rule="evenodd" fill-opacity="1" /><path clip-path="url(#clip530)" d="M1123.6 1520.52 L1130.03 1520.52 L1130.03 1540 L1153.39 1540 L1153.39 1520.52 L1159.82 1520.52 L1159.82 1568.04 L1153.39 1568.04 L1153.39 1545.41 L1130.03 1545.41 L1130.03 1568.04 L1123.6 1568.04 L1123.6 1520.52 Z" fill="#000000" fill-rule="evenodd" fill-opacity="1" /><path clip-path="url(#clip530)" d="M1187.19 1571.35 Q1184.71 1577.72 1182.35 1579.66 Q1180 1581.6 1176.05 1581.6 L1171.37 1581.6 L1171.37 1576.7 L1174.81 1576.7 Q1177.23 1576.7 1178.56 1575.56 Q1179.9 1574.41 1181.53 1570.14 L1182.58 1567.47 L1168.16 1532.4 L1174.36 1532.4 L1185.5 1560.28 L1196.64 1532.4 L1202.85 1532.4 L1187.19 1571.35 Z" fill="#000000" fill-rule="evenodd" fill-opacity="1" /><path clip-path="url(#clip530)" d="M1234.39 1537.81 L1234.39 1518.52 L1240.25 1518.52 L1240.25 1568.04 L1234.39 1568.04 L1234.39 1562.7 Q1232.55 1565.88 1229.71 1567.44 Q1226.91 1568.97 1222.97 1568.97 Q1216.5 1568.97 1212.43 1563.81 Q1208.39 1558.65 1208.39 1550.25 Q1208.39 1541.85 1212.43 1536.69 Q1216.5 1531.54 1222.97 1531.54 Q1226.91 1531.54 1229.71 1533.1 Q1232.55 1534.62 1234.39 1537.81 M1214.44 1550.25 Q1214.44 1556.71 1217.08 1560.4 Q1219.75 1564.07 1224.4 1564.07 Q1229.05 1564.07 1231.72 1560.4 Q1234.39 1556.71 1234.39 1550.25 Q1234.39 1543.79 1231.72 1540.13 Q1229.05 1536.44 1224.4 1536.44 Q1219.75 1536.44 1217.08 1540.13 Q1214.44 1543.79 1214.44 1550.25 Z" fill="#000000" fill-rule="evenodd" fill-opacity="1" /><path clip-path="url(#clip530)" d="M1272.97 1537.87 Q1271.98 1537.3 1270.8 1537.04 Q1269.66 1536.76 1268.26 1536.76 Q1263.29 1536.76 1260.62 1540 Q1257.98 1543.22 1257.98 1549.27 L1257.98 1568.04 L1252.09 1568.04 L1252.09 1532.4 L1257.98 1532.4 L1257.98 1537.93 Q1259.82 1534.69 1262.78 1533.13 Q1265.74 1531.54 1269.98 1531.54 Q1270.58 1531.54 1271.31 1531.63 Q1272.05 1531.7 1272.94 1531.85 L1272.97 1537.87 Z" fill="#000000" fill-rule="evenodd" fill-opacity="1" /><path clip-path="url(#clip530)" d="M1291.49 1536.5 Q1286.78 1536.5 1284.04 1540.19 Q1281.31 1543.85 1281.31 1550.25 Q1281.31 1556.65 1284.01 1560.34 Q1286.75 1564 1291.49 1564 Q1296.17 1564 1298.91 1560.31 Q1301.65 1556.62 1301.65 1550.25 Q1301.65 1543.92 1298.91 1540.23 Q1296.17 1536.5 1291.49 1536.5 M1291.49 1531.54 Q1299.13 1531.54 1303.49 1536.5 Q1307.85 1541.47 1307.85 1550.25 Q1307.85 1559 1303.49 1564 Q1299.13 1568.97 1291.49 1568.97 Q1283.82 1568.97 1279.46 1564 Q1275.13 1559 1275.13 1550.25 Q1275.13 1541.47 1279.46 1536.5 Q1283.82 1531.54 1291.49 1531.54 Z" fill="#000000" fill-rule="evenodd" fill-opacity="1" /><path clip-path="url(#clip530)" d="M1341.02 1549.81 Q1341.02 1543.44 1338.38 1539.94 Q1335.77 1536.44 1331.02 1536.44 Q1326.31 1536.44 1323.67 1539.94 Q1321.06 1543.44 1321.06 1549.81 Q1321.06 1556.14 1323.67 1559.64 Q1326.31 1563.14 1331.02 1563.14 Q1335.77 1563.14 1338.38 1559.64 Q1341.02 1556.14 1341.02 1549.81 M1346.87 1563.62 Q1346.87 1572.72 1342.83 1577.15 Q1338.79 1581.6 1330.45 1581.6 Q1327.36 1581.6 1324.63 1581.13 Q1321.89 1580.68 1319.31 1579.72 L1319.31 1574.03 Q1321.89 1575.43 1324.4 1576.1 Q1326.92 1576.76 1329.53 1576.76 Q1335.29 1576.76 1338.15 1573.74 Q1341.02 1570.75 1341.02 1564.67 L1341.02 1561.77 Q1339.2 1564.92 1336.37 1566.48 Q1333.54 1568.04 1329.59 1568.04 Q1323.03 1568.04 1319.02 1563.05 Q1315.01 1558.05 1315.01 1549.81 Q1315.01 1541.53 1319.02 1536.53 Q1323.03 1531.54 1329.59 1531.54 Q1333.54 1531.54 1336.37 1533.1 Q1339.2 1534.66 1341.02 1537.81 L1341.02 1532.4 L1346.87 1532.4 L1346.87 1563.62 Z" fill="#000000" fill-rule="evenodd" fill-opacity="1" /><path clip-path="url(#clip530)" d="M1389.43 1548.76 L1389.43 1551.62 L1362.5 1551.62 Q1362.88 1557.67 1366.13 1560.85 Q1369.41 1564 1375.23 1564 Q1378.61 1564 1381.76 1563.17 Q1384.94 1562.35 1388.06 1560.69 L1388.06 1566.23 Q1384.91 1567.57 1381.6 1568.27 Q1378.29 1568.97 1374.88 1568.97 Q1366.35 1568.97 1361.36 1564 Q1356.39 1559.04 1356.39 1550.57 Q1356.39 1541.82 1361.1 1536.69 Q1365.84 1531.54 1373.86 1531.54 Q1381.06 1531.54 1385.23 1536.18 Q1389.43 1540.8 1389.43 1548.76 M1383.57 1547.04 Q1383.51 1542.23 1380.87 1539.37 Q1378.26 1536.5 1373.93 1536.5 Q1369.03 1536.5 1366.07 1539.27 Q1363.14 1542.04 1362.69 1547.07 L1383.57 1547.04 Z" fill="#000000" fill-rule="evenodd" fill-opacity="1" /><path clip-path="url(#clip530)" d="M1428.67 1546.53 L1428.67 1568.04 L1422.82 1568.04 L1422.82 1546.72 Q1422.82 1541.66 1420.84 1539.14 Q1418.87 1536.63 1414.92 1536.63 Q1410.18 1536.63 1407.44 1539.65 Q1404.71 1542.68 1404.71 1547.9 L1404.71 1568.04 L1398.82 1568.04 L1398.82 1532.4 L1404.71 1532.4 L1404.71 1537.93 Q1406.81 1534.72 1409.64 1533.13 Q1412.5 1531.54 1416.23 1531.54 Q1422.37 1531.54 1425.52 1535.36 Q1428.67 1539.14 1428.67 1546.53 Z" fill="#000000" fill-rule="evenodd" fill-opacity="1" /><path clip-path="url(#clip530)" d="M1475.14 1518.58 Q1470.88 1525.9 1468.81 1533.06 Q1466.74 1540.23 1466.74 1547.58 Q1466.74 1554.93 1468.81 1562.16 Q1470.91 1569.35 1475.14 1576.64 L1470.05 1576.64 Q1465.28 1569.16 1462.89 1561.93 Q1460.53 1554.71 1460.53 1547.58 Q1460.53 1540.48 1462.89 1533.29 Q1465.24 1526.09 1470.05 1518.58 L1475.14 1518.58 Z" fill="#000000" fill-rule="evenodd" fill-opacity="1" /><path clip-path="url(#clip530)" d="M1482.3 1532.4 L1488.51 1532.4 L1499.65 1562.31 L1510.79 1532.4 L1517 1532.4 L1503.63 1568.04 L1495.67 1568.04 L1482.3 1532.4 Z" fill="#000000" fill-rule="evenodd" fill-opacity="1" /><path clip-path="url(#clip530)" d="M1538.9 1536.5 Q1534.19 1536.5 1531.45 1540.19 Q1528.71 1543.85 1528.71 1550.25 Q1528.71 1556.65 1531.42 1560.34 Q1534.15 1564 1538.9 1564 Q1543.57 1564 1546.31 1560.31 Q1549.05 1556.62 1549.05 1550.25 Q1549.05 1543.92 1546.31 1540.23 Q1543.57 1536.5 1538.9 1536.5 M1538.9 1531.54 Q1546.53 1531.54 1550.9 1536.5 Q1555.26 1541.47 1555.26 1550.25 Q1555.26 1559 1550.9 1564 Q1546.53 1568.97 1538.9 1568.97 Q1531.23 1568.97 1526.86 1564 Q1522.54 1559 1522.54 1550.25 Q1522.54 1541.47 1526.86 1536.5 Q1531.23 1531.54 1538.9 1531.54 Z" fill="#000000" fill-rule="evenodd" fill-opacity="1" /><path clip-path="url(#clip530)" d="M1564.96 1518.52 L1570.82 1518.52 L1570.82 1568.04 L1564.96 1568.04 L1564.96 1518.52 Z" fill="#000000" fill-rule="evenodd" fill-opacity="1" /><path clip-path="url(#clip530)" d="M1593.48 1520.52 L1598.89 1520.52 L1582.34 1574.09 L1576.93 1574.09 L1593.48 1520.52 Z" fill="#000000" fill-rule="evenodd" fill-opacity="1" /><path clip-path="url(#clip530)" d="M1600.83 1532.4 L1607.04 1532.4 L1618.18 1562.31 L1629.32 1532.4 L1635.53 1532.4 L1622.16 1568.04 L1614.2 1568.04 L1600.83 1532.4 Z" fill="#000000" fill-rule="evenodd" fill-opacity="1" /><path clip-path="url(#clip530)" d="M1657.43 1536.5 Q1652.71 1536.5 1649.98 1540.19 Q1647.24 1543.85 1647.24 1550.25 Q1647.24 1556.65 1649.95 1560.34 Q1652.68 1564 1657.43 1564 Q1662.1 1564 1664.84 1560.31 Q1667.58 1556.62 1667.58 1550.25 Q1667.58 1543.92 1664.84 1540.23 Q1662.1 1536.5 1657.43 1536.5 M1657.43 1531.54 Q1665.06 1531.54 1669.42 1536.5 Q1673.79 1541.47 1673.79 1550.25 Q1673.79 1559 1669.42 1564 Q1665.06 1568.97 1657.43 1568.97 Q1649.75 1568.97 1645.39 1564 Q1641.07 1559 1641.07 1550.25 Q1641.07 1541.47 1645.39 1536.5 Q1649.75 1531.54 1657.43 1531.54 Z" fill="#000000" fill-rule="evenodd" fill-opacity="1" /><path clip-path="url(#clip530)" d="M1683.49 1518.52 L1689.35 1518.52 L1689.35 1568.04 L1683.49 1568.04 L1683.49 1518.52 Z" fill="#000000" fill-rule="evenodd" fill-opacity="1" /><path clip-path="url(#clip530)" d="M1700.68 1518.58 L1705.77 1518.58 Q1710.55 1526.09 1712.9 1533.29 Q1715.29 1540.48 1715.29 1547.58 Q1715.29 1554.71 1712.9 1561.93 Q1710.55 1569.16 1705.77 1576.64 L1700.68 1576.64 Q1704.91 1569.35 1706.98 1562.16 Q1709.08 1554.93 1709.08 1547.58 Q1709.08 1540.23 1706.98 1533.06 Q1704.91 1525.9 1700.68 1518.58 Z" fill="#000000" fill-rule="evenodd" fill-opacity="1" /><polyline clip-path="url(#clip532)" style="stroke:#000000; stroke-linecap:round; stroke-linejoin:round; stroke-width:2; stroke-opacity:0.1; fill:none" points="
  400.671,1423.18 2352.76,1423.18 
  "/>
<polyline clip-path="url(#clip532)" style="stroke:#000000; stroke-linecap:round; stroke-linejoin:round; stroke-width:2; stroke-opacity:0.1; fill:none" points="
  400.671,1193.86 2352.76,1193.86 
  "/>
<polyline clip-path="url(#clip532)" style="stroke:#000000; stroke-linecap:round; stroke-linejoin:round; stroke-width:2; stroke-opacity:0.1; fill:none" points="
  400.671,964.535 2352.76,964.535 
  "/>
<polyline clip-path="url(#clip532)" style="stroke:#000000; stroke-linecap:round; stroke-linejoin:round; stroke-width:2; stroke-opacity:0.1; fill:none" points="
  400.671,735.212 2352.76,735.212 
  "/>
<polyline clip-path="url(#clip532)" style="stroke:#000000; stroke-linecap:round; stroke-linejoin:round; stroke-width:2; stroke-opacity:0.1; fill:none" points="
  400.671,505.889 2352.76,505.889 
  "/>
<polyline clip-path="url(#clip532)" style="stroke:#000000; stroke-linecap:round; stroke-linejoin:round; stroke-width:2; stroke-opacity:0.1; fill:none" points="
  400.671,276.567 2352.76,276.567 
  "/>
<polyline clip-path="url(#clip532)" style="stroke:#000000; stroke-linecap:round; stroke-linejoin:round; stroke-width:2; stroke-opacity:0.1; fill:none" points="
  400.671,47.2441 2352.76,47.2441 
  "/>
<polyline clip-path="url(#clip530)" style="stroke:#000000; stroke-linecap:round; stroke-linejoin:round; stroke-width:4; stroke-opacity:1; fill:none" points="
  400.671,1423.18 400.671,47.2441 
  "/>
<polyline clip-path="url(#clip530)" style="stroke:#000000; stroke-linecap:round; stroke-linejoin:round; stroke-width:4; stroke-opacity:1; fill:none" points="
  400.671,1423.18 419.569,1423.18 
  "/>
<polyline clip-path="url(#clip530)" style="stroke:#000000; stroke-linecap:round; stroke-linejoin:round; stroke-width:4; stroke-opacity:1; fill:none" points="
  400.671,1193.86 419.569,1193.86 
  "/>
<polyline clip-path="url(#clip530)" style="stroke:#000000; stroke-linecap:round; stroke-linejoin:round; stroke-width:4; stroke-opacity:1; fill:none" points="
  400.671,964.535 419.569,964.535 
  "/>
<polyline clip-path="url(#clip530)" style="stroke:#000000; stroke-linecap:round; stroke-linejoin:round; stroke-width:4; stroke-opacity:1; fill:none" points="
  400.671,735.212 419.569,735.212 
  "/>
<polyline clip-path="url(#clip530)" style="stroke:#000000; stroke-linecap:round; stroke-linejoin:round; stroke-width:4; stroke-opacity:1; fill:none" points="
  400.671,505.889 419.569,505.889 
  "/>
<polyline clip-path="url(#clip530)" style="stroke:#000000; stroke-linecap:round; stroke-linejoin:round; stroke-width:4; stroke-opacity:1; fill:none" points="
  400.671,276.567 419.569,276.567 
  "/>
<polyline clip-path="url(#clip530)" style="stroke:#000000; stroke-linecap:round; stroke-linejoin:round; stroke-width:4; stroke-opacity:1; fill:none" points="
  400.671,47.2441 419.569,47.2441 
  "/>
<path clip-path="url(#clip530)" d="M352.727 1408.98 Q349.116 1408.98 347.287 1412.54 Q345.481 1416.08 345.481 1423.21 Q345.481 1430.32 347.287 1433.89 Q349.116 1437.43 352.727 1437.43 Q356.361 1437.43 358.167 1433.89 Q359.995 1430.32 359.995 1423.21 Q359.995 1416.08 358.167 1412.54 Q356.361 1408.98 352.727 1408.98 M352.727 1405.27 Q358.537 1405.27 361.592 1409.88 Q364.671 1414.46 364.671 1423.21 Q364.671 1431.94 361.592 1436.55 Q358.537 1441.13 352.727 1441.13 Q346.917 1441.13 343.838 1436.55 Q340.782 1431.94 340.782 1423.21 Q340.782 1414.46 343.838 1409.88 Q346.917 1405.27 352.727 1405.27 Z" fill="#000000" fill-rule="evenodd" fill-opacity="1" /><path clip-path="url(#clip530)" d="M121.043 1213.65 L137.362 1213.65 L137.362 1217.58 L115.418 1217.58 L115.418 1213.65 Q118.08 1210.9 122.663 1206.27 Q127.269 1201.61 128.45 1200.27 Q130.695 1197.75 131.575 1196.01 Q132.478 1194.25 132.478 1192.56 Q132.478 1189.81 130.533 1188.07 Q128.612 1186.33 125.51 1186.33 Q123.311 1186.33 120.857 1187.1 Q118.427 1187.86 115.649 1189.41 L115.649 1184.69 Q118.473 1183.56 120.927 1182.98 Q123.38 1182.4 125.418 1182.4 Q130.788 1182.4 133.982 1185.08 Q137.177 1187.77 137.177 1192.26 Q137.177 1194.39 136.367 1196.31 Q135.579 1198.21 133.473 1200.8 Q132.894 1201.47 129.792 1204.69 Q126.691 1207.89 121.043 1213.65 Z" fill="#000000" fill-rule="evenodd" fill-opacity="1" /><path clip-path="url(#clip530)" d="M147.177 1211.71 L152.061 1211.71 L152.061 1217.58 L147.177 1217.58 L147.177 1211.71 Z" fill="#000000" fill-rule="evenodd" fill-opacity="1" /><path clip-path="url(#clip530)" d="M172.246 1186.1 Q168.635 1186.1 166.806 1189.67 Q165.001 1193.21 165.001 1200.34 Q165.001 1207.45 166.806 1211.01 Q168.635 1214.55 172.246 1214.55 Q175.88 1214.55 177.686 1211.01 Q179.514 1207.45 179.514 1200.34 Q179.514 1193.21 177.686 1189.67 Q175.88 1186.1 172.246 1186.1 M172.246 1182.4 Q178.056 1182.4 181.112 1187.01 Q184.19 1191.59 184.19 1200.34 Q184.19 1209.07 181.112 1213.67 Q178.056 1218.26 172.246 1218.26 Q166.436 1218.26 163.357 1213.67 Q160.302 1209.07 160.302 1200.34 Q160.302 1191.59 163.357 1187.01 Q166.436 1182.4 172.246 1182.4 Z" fill="#000000" fill-rule="evenodd" fill-opacity="1" /><path clip-path="url(#clip530)" d="M202.408 1186.1 Q198.797 1186.1 196.968 1189.67 Q195.163 1193.21 195.163 1200.34 Q195.163 1207.45 196.968 1211.01 Q198.797 1214.55 202.408 1214.55 Q206.042 1214.55 207.848 1211.01 Q209.676 1207.45 209.676 1200.34 Q209.676 1193.21 207.848 1189.67 Q206.042 1186.1 202.408 1186.1 M202.408 1182.4 Q208.218 1182.4 211.274 1187.01 Q214.352 1191.59 214.352 1200.34 Q214.352 1209.07 211.274 1213.67 Q208.218 1218.26 202.408 1218.26 Q196.598 1218.26 193.519 1213.67 Q190.463 1209.07 190.463 1200.34 Q190.463 1191.59 193.519 1187.01 Q196.598 1182.4 202.408 1182.4 Z" fill="#000000" fill-rule="evenodd" fill-opacity="1" /><path clip-path="url(#clip530)" d="M250.741 1192.12 L240.162 1202.75 L250.741 1213.33 L247.986 1216.13 L237.361 1205.5 L226.736 1216.13 L224.005 1213.33 L234.56 1202.75 L224.005 1192.12 L226.736 1189.32 L237.361 1199.95 L247.986 1189.32 L250.741 1192.12 Z" fill="#000000" fill-rule="evenodd" fill-opacity="1" /><path clip-path="url(#clip530)" d="M263.102 1213.65 L270.741 1213.65 L270.741 1187.28 L262.431 1188.95 L262.431 1184.69 L270.695 1183.02 L275.37 1183.02 L275.37 1213.65 L283.009 1213.65 L283.009 1217.58 L263.102 1217.58 L263.102 1213.65 Z" fill="#000000" fill-rule="evenodd" fill-opacity="1" /><path clip-path="url(#clip530)" d="M302.454 1186.1 Q298.843 1186.1 297.014 1189.67 Q295.208 1193.21 295.208 1200.34 Q295.208 1207.45 297.014 1211.01 Q298.843 1214.55 302.454 1214.55 Q306.088 1214.55 307.893 1211.01 Q309.722 1207.45 309.722 1200.34 Q309.722 1193.21 307.893 1189.67 Q306.088 1186.1 302.454 1186.1 M302.454 1182.4 Q308.264 1182.4 311.319 1187.01 Q314.398 1191.59 314.398 1200.34 Q314.398 1209.07 311.319 1213.67 Q308.264 1218.26 302.454 1218.26 Q296.643 1218.26 293.565 1213.67 Q290.509 1209.07 290.509 1200.34 Q290.509 1191.59 293.565 1187.01 Q296.643 1182.4 302.454 1182.4 Z" fill="#000000" fill-rule="evenodd" fill-opacity="1" /><path clip-path="url(#clip530)" d="M314.398 1176.5 L338.51 1176.5 L338.51 1179.7 L314.398 1179.7 L314.398 1176.5 Z" fill="#000000" fill-rule="evenodd" fill-opacity="1" /><path clip-path="url(#clip530)" d="M355.305 1174.62 Q352.747 1174.62 351.242 1176.37 Q349.757 1178.12 349.757 1181.17 Q349.757 1184.19 351.242 1185.96 Q352.747 1187.71 355.305 1187.71 Q357.863 1187.71 359.349 1185.96 Q360.853 1184.19 360.853 1181.17 Q360.853 1178.12 359.349 1176.37 Q357.863 1174.62 355.305 1174.62 M362.847 1162.72 L362.847 1166.18 Q361.417 1165.5 359.95 1165.14 Q358.502 1164.78 357.073 1164.78 Q353.311 1164.78 351.318 1167.32 Q349.343 1169.86 349.061 1175 Q350.17 1173.36 351.844 1172.5 Q353.518 1171.61 355.531 1171.61 Q359.762 1171.61 362.207 1174.19 Q364.671 1176.75 364.671 1181.17 Q364.671 1185.49 362.113 1188.11 Q359.555 1190.72 355.305 1190.72 Q350.434 1190.72 347.857 1187 Q345.28 1183.25 345.28 1176.16 Q345.28 1169.5 348.44 1165.56 Q351.6 1161.59 356.922 1161.59 Q358.352 1161.59 359.8 1161.87 Q361.267 1162.15 362.847 1162.72 Z" fill="#000000" fill-rule="evenodd" fill-opacity="1" /><path clip-path="url(#clip530)" d="M129.862 957.776 L118.056 976.225 L129.862 976.225 L129.862 957.776 M128.635 953.702 L134.515 953.702 L134.515 976.225 L139.445 976.225 L139.445 980.114 L134.515 980.114 L134.515 988.262 L129.862 988.262 L129.862 980.114 L114.26 980.114 L114.26 975.6 L128.635 953.702 Z" fill="#000000" fill-rule="evenodd" fill-opacity="1" /><path clip-path="url(#clip530)" d="M147.177 982.383 L152.061 982.383 L152.061 988.262 L147.177 988.262 L147.177 982.383 Z" fill="#000000" fill-rule="evenodd" fill-opacity="1" /><path clip-path="url(#clip530)" d="M172.246 956.781 Q168.635 956.781 166.806 960.346 Q165.001 963.887 165.001 971.017 Q165.001 978.123 166.806 981.688 Q168.635 985.23 172.246 985.23 Q175.88 985.23 177.686 981.688 Q179.514 978.123 179.514 971.017 Q179.514 963.887 177.686 960.346 Q175.88 956.781 172.246 956.781 M172.246 953.077 Q178.056 953.077 181.112 957.684 Q184.19 962.267 184.19 971.017 Q184.19 979.744 181.112 984.35 Q178.056 988.933 172.246 988.933 Q166.436 988.933 163.357 984.35 Q160.302 979.744 160.302 971.017 Q160.302 962.267 163.357 957.684 Q166.436 953.077 172.246 953.077 Z" fill="#000000" fill-rule="evenodd" fill-opacity="1" /><path clip-path="url(#clip530)" d="M202.408 956.781 Q198.797 956.781 196.968 960.346 Q195.163 963.887 195.163 971.017 Q195.163 978.123 196.968 981.688 Q198.797 985.23 202.408 985.23 Q206.042 985.23 207.848 981.688 Q209.676 978.123 209.676 971.017 Q209.676 963.887 207.848 960.346 Q206.042 956.781 202.408 956.781 M202.408 953.077 Q208.218 953.077 211.274 957.684 Q214.352 962.267 214.352 971.017 Q214.352 979.744 211.274 984.35 Q208.218 988.933 202.408 988.933 Q196.598 988.933 193.519 984.35 Q190.463 979.744 190.463 971.017 Q190.463 962.267 193.519 957.684 Q196.598 953.077 202.408 953.077 Z" fill="#000000" fill-rule="evenodd" fill-opacity="1" /><path clip-path="url(#clip530)" d="M250.741 962.799 L240.162 973.424 L250.741 984.003 L247.986 986.804 L237.361 976.179 L226.736 986.804 L224.005 984.003 L234.56 973.424 L224.005 962.799 L226.736 959.998 L237.361 970.623 L247.986 959.998 L250.741 962.799 Z" fill="#000000" fill-rule="evenodd" fill-opacity="1" /><path clip-path="url(#clip530)" d="M263.102 984.327 L270.741 984.327 L270.741 957.961 L262.431 959.628 L262.431 955.369 L270.695 953.702 L275.37 953.702 L275.37 984.327 L283.009 984.327 L283.009 988.262 L263.102 988.262 L263.102 984.327 Z" fill="#000000" fill-rule="evenodd" fill-opacity="1" /><path clip-path="url(#clip530)" d="M302.454 956.781 Q298.843 956.781 297.014 960.346 Q295.208 963.887 295.208 971.017 Q295.208 978.123 297.014 981.688 Q298.843 985.23 302.454 985.23 Q306.088 985.23 307.893 981.688 Q309.722 978.123 309.722 971.017 Q309.722 963.887 307.893 960.346 Q306.088 956.781 302.454 956.781 M302.454 953.077 Q308.264 953.077 311.319 957.684 Q314.398 962.267 314.398 971.017 Q314.398 979.744 311.319 984.35 Q308.264 988.933 302.454 988.933 Q296.643 988.933 293.565 984.35 Q290.509 979.744 290.509 971.017 Q290.509 962.267 293.565 957.684 Q296.643 953.077 302.454 953.077 Z" fill="#000000" fill-rule="evenodd" fill-opacity="1" /><path clip-path="url(#clip530)" d="M314.398 947.179 L338.51 947.179 L338.51 950.376 L314.398 950.376 L314.398 947.179 Z" fill="#000000" fill-rule="evenodd" fill-opacity="1" /><path clip-path="url(#clip530)" d="M355.305 945.298 Q352.747 945.298 351.242 947.047 Q349.757 948.796 349.757 951.843 Q349.757 954.871 351.242 956.639 Q352.747 958.388 355.305 958.388 Q357.863 958.388 359.349 956.639 Q360.853 954.871 360.853 951.843 Q360.853 948.796 359.349 947.047 Q357.863 945.298 355.305 945.298 M362.847 933.392 L362.847 936.853 Q361.417 936.176 359.95 935.819 Q358.502 935.461 357.073 935.461 Q353.311 935.461 351.318 938 Q349.343 940.539 349.061 945.674 Q350.17 944.038 351.844 943.172 Q353.518 942.289 355.531 942.289 Q359.762 942.289 362.207 944.865 Q364.671 947.423 364.671 951.843 Q364.671 956.169 362.113 958.783 Q359.555 961.397 355.305 961.397 Q350.434 961.397 347.857 957.673 Q345.28 953.931 345.28 946.84 Q345.28 940.182 348.44 936.232 Q351.6 932.264 356.922 932.264 Q358.352 932.264 359.8 932.546 Q361.267 932.828 362.847 933.392 Z" fill="#000000" fill-rule="evenodd" fill-opacity="1" /><path clip-path="url(#clip530)" d="M127.593 739.796 Q124.445 739.796 122.593 741.949 Q120.765 744.102 120.765 747.852 Q120.765 751.578 122.593 753.754 Q124.445 755.907 127.593 755.907 Q130.742 755.907 132.57 753.754 Q134.422 751.578 134.422 747.852 Q134.422 744.102 132.57 741.949 Q130.742 739.796 127.593 739.796 M136.876 725.143 L136.876 729.403 Q135.117 728.569 133.311 728.13 Q131.529 727.69 129.769 727.69 Q125.14 727.69 122.686 730.815 Q120.255 733.94 119.908 740.259 Q121.274 738.245 123.334 737.18 Q125.394 736.092 127.871 736.092 Q133.08 736.092 136.089 739.264 Q139.121 742.412 139.121 747.852 Q139.121 753.176 135.973 756.393 Q132.825 759.611 127.593 759.611 Q121.598 759.611 118.427 755.028 Q115.256 750.421 115.256 741.694 Q115.256 733.5 119.144 728.639 Q123.033 723.755 129.584 723.755 Q131.343 723.755 133.126 724.102 Q134.931 724.449 136.876 725.143 Z" fill="#000000" fill-rule="evenodd" fill-opacity="1" /><path clip-path="url(#clip530)" d="M147.177 753.06 L152.061 753.06 L152.061 758.94 L147.177 758.94 L147.177 753.06 Z" fill="#000000" fill-rule="evenodd" fill-opacity="1" /><path clip-path="url(#clip530)" d="M172.246 727.458 Q168.635 727.458 166.806 731.023 Q165.001 734.565 165.001 741.694 Q165.001 748.801 166.806 752.366 Q168.635 755.907 172.246 755.907 Q175.88 755.907 177.686 752.366 Q179.514 748.801 179.514 741.694 Q179.514 734.565 177.686 731.023 Q175.88 727.458 172.246 727.458 M172.246 723.755 Q178.056 723.755 181.112 728.361 Q184.19 732.944 184.19 741.694 Q184.19 750.421 181.112 755.028 Q178.056 759.611 172.246 759.611 Q166.436 759.611 163.357 755.028 Q160.302 750.421 160.302 741.694 Q160.302 732.944 163.357 728.361 Q166.436 723.755 172.246 723.755 Z" fill="#000000" fill-rule="evenodd" fill-opacity="1" /><path clip-path="url(#clip530)" d="M202.408 727.458 Q198.797 727.458 196.968 731.023 Q195.163 734.565 195.163 741.694 Q195.163 748.801 196.968 752.366 Q198.797 755.907 202.408 755.907 Q206.042 755.907 207.848 752.366 Q209.676 748.801 209.676 741.694 Q209.676 734.565 207.848 731.023 Q206.042 727.458 202.408 727.458 M202.408 723.755 Q208.218 723.755 211.274 728.361 Q214.352 732.944 214.352 741.694 Q214.352 750.421 211.274 755.028 Q208.218 759.611 202.408 759.611 Q196.598 759.611 193.519 755.028 Q190.463 750.421 190.463 741.694 Q190.463 732.944 193.519 728.361 Q196.598 723.755 202.408 723.755 Z" fill="#000000" fill-rule="evenodd" fill-opacity="1" /><path clip-path="url(#clip530)" d="M250.741 733.477 L240.162 744.102 L250.741 754.68 L247.986 757.481 L237.361 746.856 L226.736 757.481 L224.005 754.68 L234.56 744.102 L224.005 733.477 L226.736 730.676 L237.361 741.301 L247.986 730.676 L250.741 733.477 Z" fill="#000000" fill-rule="evenodd" fill-opacity="1" /><path clip-path="url(#clip530)" d="M263.102 755.004 L270.741 755.004 L270.741 728.639 L262.431 730.305 L262.431 726.046 L270.695 724.38 L275.37 724.38 L275.37 755.004 L283.009 755.004 L283.009 758.94 L263.102 758.94 L263.102 755.004 Z" fill="#000000" fill-rule="evenodd" fill-opacity="1" /><path clip-path="url(#clip530)" d="M302.454 727.458 Q298.843 727.458 297.014 731.023 Q295.208 734.565 295.208 741.694 Q295.208 748.801 297.014 752.366 Q298.843 755.907 302.454 755.907 Q306.088 755.907 307.893 752.366 Q309.722 748.801 309.722 741.694 Q309.722 734.565 307.893 731.023 Q306.088 727.458 302.454 727.458 M302.454 723.755 Q308.264 723.755 311.319 728.361 Q314.398 732.944 314.398 741.694 Q314.398 750.421 311.319 755.028 Q308.264 759.611 302.454 759.611 Q296.643 759.611 293.565 755.028 Q290.509 750.421 290.509 741.694 Q290.509 732.944 293.565 728.361 Q296.643 723.755 302.454 723.755 Z" fill="#000000" fill-rule="evenodd" fill-opacity="1" /><path clip-path="url(#clip530)" d="M314.398 717.856 L338.51 717.856 L338.51 721.053 L314.398 721.053 L314.398 717.856 Z" fill="#000000" fill-rule="evenodd" fill-opacity="1" /><path clip-path="url(#clip530)" d="M355.305 715.975 Q352.747 715.975 351.242 717.724 Q349.757 719.473 349.757 722.52 Q349.757 725.548 351.242 727.316 Q352.747 729.065 355.305 729.065 Q357.863 729.065 359.349 727.316 Q360.853 725.548 360.853 722.52 Q360.853 719.473 359.349 717.724 Q357.863 715.975 355.305 715.975 M362.847 704.07 L362.847 707.53 Q361.417 706.853 359.95 706.496 Q358.502 706.139 357.073 706.139 Q353.311 706.139 351.318 708.678 Q349.343 711.217 349.061 716.351 Q350.17 714.715 351.844 713.85 Q353.518 712.966 355.531 712.966 Q359.762 712.966 362.207 715.543 Q364.671 718.1 364.671 722.52 Q364.671 726.846 362.113 729.46 Q359.555 732.075 355.305 732.075 Q350.434 732.075 347.857 728.351 Q345.28 724.608 345.28 717.517 Q345.28 710.859 348.44 706.91 Q351.6 702.941 356.922 702.941 Q358.352 702.941 359.8 703.223 Q361.267 703.506 362.847 704.07 Z" fill="#000000" fill-rule="evenodd" fill-opacity="1" /><path clip-path="url(#clip530)" d="M127.015 513.205 Q123.681 513.205 121.76 514.987 Q119.862 516.77 119.862 519.895 Q119.862 523.02 121.76 524.802 Q123.681 526.585 127.015 526.585 Q130.348 526.585 132.269 524.802 Q134.191 522.997 134.191 519.895 Q134.191 516.77 132.269 514.987 Q130.371 513.205 127.015 513.205 M122.339 511.214 Q119.33 510.474 117.64 508.413 Q115.973 506.353 115.973 503.39 Q115.973 499.247 118.913 496.839 Q121.876 494.432 127.015 494.432 Q132.177 494.432 135.117 496.839 Q138.056 499.247 138.056 503.39 Q138.056 506.353 136.367 508.413 Q134.7 510.474 131.714 511.214 Q135.093 512.001 136.968 514.293 Q138.867 516.585 138.867 519.895 Q138.867 524.918 135.788 527.603 Q132.732 530.288 127.015 530.288 Q121.297 530.288 118.218 527.603 Q115.163 524.918 115.163 519.895 Q115.163 516.585 117.061 514.293 Q118.959 512.001 122.339 511.214 M120.626 503.83 Q120.626 506.515 122.293 508.02 Q123.982 509.524 127.015 509.524 Q130.024 509.524 131.714 508.02 Q133.427 506.515 133.427 503.83 Q133.427 501.145 131.714 499.64 Q130.024 498.136 127.015 498.136 Q123.982 498.136 122.293 499.64 Q120.626 501.145 120.626 503.83 Z" fill="#000000" fill-rule="evenodd" fill-opacity="1" /><path clip-path="url(#clip530)" d="M147.177 523.737 L152.061 523.737 L152.061 529.617 L147.177 529.617 L147.177 523.737 Z" fill="#000000" fill-rule="evenodd" fill-opacity="1" /><path clip-path="url(#clip530)" d="M172.246 498.136 Q168.635 498.136 166.806 501.7 Q165.001 505.242 165.001 512.372 Q165.001 519.478 166.806 523.043 Q168.635 526.585 172.246 526.585 Q175.88 526.585 177.686 523.043 Q179.514 519.478 179.514 512.372 Q179.514 505.242 177.686 501.7 Q175.88 498.136 172.246 498.136 M172.246 494.432 Q178.056 494.432 181.112 499.038 Q184.19 503.622 184.19 512.372 Q184.19 521.098 181.112 525.705 Q178.056 530.288 172.246 530.288 Q166.436 530.288 163.357 525.705 Q160.302 521.098 160.302 512.372 Q160.302 503.622 163.357 499.038 Q166.436 494.432 172.246 494.432 Z" fill="#000000" fill-rule="evenodd" fill-opacity="1" /><path clip-path="url(#clip530)" d="M202.408 498.136 Q198.797 498.136 196.968 501.7 Q195.163 505.242 195.163 512.372 Q195.163 519.478 196.968 523.043 Q198.797 526.585 202.408 526.585 Q206.042 526.585 207.848 523.043 Q209.676 519.478 209.676 512.372 Q209.676 505.242 207.848 501.7 Q206.042 498.136 202.408 498.136 M202.408 494.432 Q208.218 494.432 211.274 499.038 Q214.352 503.622 214.352 512.372 Q214.352 521.098 211.274 525.705 Q208.218 530.288 202.408 530.288 Q196.598 530.288 193.519 525.705 Q190.463 521.098 190.463 512.372 Q190.463 503.622 193.519 499.038 Q196.598 494.432 202.408 494.432 Z" fill="#000000" fill-rule="evenodd" fill-opacity="1" /><path clip-path="url(#clip530)" d="M250.741 504.154 L240.162 514.779 L250.741 525.358 L247.986 528.159 L237.361 517.534 L226.736 528.159 L224.005 525.358 L234.56 514.779 L224.005 504.154 L226.736 501.353 L237.361 511.978 L247.986 501.353 L250.741 504.154 Z" fill="#000000" fill-rule="evenodd" fill-opacity="1" /><path clip-path="url(#clip530)" d="M263.102 525.682 L270.741 525.682 L270.741 499.316 L262.431 500.983 L262.431 496.724 L270.695 495.057 L275.37 495.057 L275.37 525.682 L283.009 525.682 L283.009 529.617 L263.102 529.617 L263.102 525.682 Z" fill="#000000" fill-rule="evenodd" fill-opacity="1" /><path clip-path="url(#clip530)" d="M302.454 498.136 Q298.843 498.136 297.014 501.7 Q295.208 505.242 295.208 512.372 Q295.208 519.478 297.014 523.043 Q298.843 526.585 302.454 526.585 Q306.088 526.585 307.893 523.043 Q309.722 519.478 309.722 512.372 Q309.722 505.242 307.893 501.7 Q306.088 498.136 302.454 498.136 M302.454 494.432 Q308.264 494.432 311.319 499.038 Q314.398 503.622 314.398 512.372 Q314.398 521.098 311.319 525.705 Q308.264 530.288 302.454 530.288 Q296.643 530.288 293.565 525.705 Q290.509 521.098 290.509 512.372 Q290.509 503.622 293.565 499.038 Q296.643 494.432 302.454 494.432 Z" fill="#000000" fill-rule="evenodd" fill-opacity="1" /><path clip-path="url(#clip530)" d="M314.398 488.533 L338.51 488.533 L338.51 491.731 L314.398 491.731 L314.398 488.533 Z" fill="#000000" fill-rule="evenodd" fill-opacity="1" /><path clip-path="url(#clip530)" d="M355.305 486.653 Q352.747 486.653 351.242 488.402 Q349.757 490.151 349.757 493.198 Q349.757 496.226 351.242 497.994 Q352.747 499.743 355.305 499.743 Q357.863 499.743 359.349 497.994 Q360.853 496.226 360.853 493.198 Q360.853 490.151 359.349 488.402 Q357.863 486.653 355.305 486.653 M362.847 474.747 L362.847 478.208 Q361.417 477.531 359.95 477.173 Q358.502 476.816 357.073 476.816 Q353.311 476.816 351.318 479.355 Q349.343 481.894 349.061 487.029 Q350.17 485.392 351.844 484.527 Q353.518 483.643 355.531 483.643 Q359.762 483.643 362.207 486.22 Q364.671 488.778 364.671 493.198 Q364.671 497.523 362.113 500.138 Q359.555 502.752 355.305 502.752 Q350.434 502.752 347.857 499.028 Q345.28 495.285 345.28 488.195 Q345.28 481.537 348.44 477.587 Q351.6 473.619 356.922 473.619 Q358.352 473.619 359.8 473.901 Q361.267 474.183 362.847 474.747 Z" fill="#000000" fill-rule="evenodd" fill-opacity="1" /><path clip-path="url(#clip530)" d="M118.765 296.359 L126.404 296.359 L126.404 269.994 L118.094 271.66 L118.094 267.401 L126.358 265.734 L131.034 265.734 L131.034 296.359 L138.673 296.359 L138.673 300.294 L118.765 300.294 L118.765 296.359 Z" fill="#000000" fill-rule="evenodd" fill-opacity="1" /><path clip-path="url(#clip530)" d="M148.117 294.415 L153.001 294.415 L153.001 300.294 L148.117 300.294 L148.117 294.415 Z" fill="#000000" fill-rule="evenodd" fill-opacity="1" /><path clip-path="url(#clip530)" d="M173.186 268.813 Q169.575 268.813 167.747 272.378 Q165.941 275.919 165.941 283.049 Q165.941 290.155 167.747 293.72 Q169.575 297.262 173.186 297.262 Q176.821 297.262 178.626 293.72 Q180.455 290.155 180.455 283.049 Q180.455 275.919 178.626 272.378 Q176.821 268.813 173.186 268.813 M173.186 265.109 Q178.997 265.109 182.052 269.716 Q185.131 274.299 185.131 283.049 Q185.131 291.776 182.052 296.382 Q178.997 300.966 173.186 300.966 Q167.376 300.966 164.298 296.382 Q161.242 291.776 161.242 283.049 Q161.242 274.299 164.298 269.716 Q167.376 265.109 173.186 265.109 Z" fill="#000000" fill-rule="evenodd" fill-opacity="1" /><path clip-path="url(#clip530)" d="M203.348 268.813 Q199.737 268.813 197.908 272.378 Q196.103 275.919 196.103 283.049 Q196.103 290.155 197.908 293.72 Q199.737 297.262 203.348 297.262 Q206.982 297.262 208.788 293.72 Q210.617 290.155 210.617 283.049 Q210.617 275.919 208.788 272.378 Q206.982 268.813 203.348 268.813 M203.348 265.109 Q209.158 265.109 212.214 269.716 Q215.293 274.299 215.293 283.049 Q215.293 291.776 212.214 296.382 Q209.158 300.966 203.348 300.966 Q197.538 300.966 194.459 296.382 Q191.404 291.776 191.404 283.049 Q191.404 274.299 194.459 269.716 Q197.538 265.109 203.348 265.109 Z" fill="#000000" fill-rule="evenodd" fill-opacity="1" /><path clip-path="url(#clip530)" d="M251.681 274.831 L241.103 285.456 L251.681 296.035 L248.927 298.836 L238.302 288.211 L227.677 298.836 L224.945 296.035 L235.501 285.456 L224.945 274.831 L227.677 272.031 L238.302 282.656 L248.927 272.031 L251.681 274.831 Z" fill="#000000" fill-rule="evenodd" fill-opacity="1" /><path clip-path="url(#clip530)" d="M264.042 296.359 L271.681 296.359 L271.681 269.994 L263.371 271.66 L263.371 267.401 L271.635 265.734 L276.311 265.734 L276.311 296.359 L283.95 296.359 L283.95 300.294 L264.042 300.294 L264.042 296.359 Z" fill="#000000" fill-rule="evenodd" fill-opacity="1" /><path clip-path="url(#clip530)" d="M303.394 268.813 Q299.783 268.813 297.954 272.378 Q296.149 275.919 296.149 283.049 Q296.149 290.155 297.954 293.72 Q299.783 297.262 303.394 297.262 Q307.028 297.262 308.834 293.72 Q310.662 290.155 310.662 283.049 Q310.662 275.919 308.834 272.378 Q307.028 268.813 303.394 268.813 M303.394 265.109 Q309.204 265.109 312.26 269.716 Q315.338 274.299 315.338 283.049 Q315.338 291.776 312.26 296.382 Q309.204 300.966 303.394 300.966 Q297.584 300.966 294.505 296.382 Q291.45 291.776 291.45 283.049 Q291.45 274.299 294.505 269.716 Q297.584 265.109 303.394 265.109 Z" fill="#000000" fill-rule="evenodd" fill-opacity="1" /><path clip-path="url(#clip530)" d="M315.338 259.211 L339.45 259.211 L339.45 262.408 L315.338 262.408 L315.338 259.211 Z" fill="#000000" fill-rule="evenodd" fill-opacity="1" /><path clip-path="url(#clip530)" d="M347.688 244.804 L362.602 244.804 L362.602 248.001 L351.167 248.001 L351.167 254.885 Q351.995 254.603 352.822 254.471 Q353.65 254.321 354.477 254.321 Q359.179 254.321 361.925 256.897 Q364.671 259.474 364.671 263.875 Q364.671 268.408 361.85 270.928 Q359.029 273.429 353.894 273.429 Q352.126 273.429 350.283 273.128 Q348.459 272.827 346.503 272.226 L346.503 268.408 Q348.196 269.329 350.001 269.781 Q351.807 270.232 353.819 270.232 Q357.073 270.232 358.972 268.521 Q360.872 266.809 360.872 263.875 Q360.872 260.941 358.972 259.229 Q357.073 257.518 353.819 257.518 Q352.296 257.518 350.772 257.857 Q349.268 258.195 347.688 258.91 L347.688 244.804 Z" fill="#000000" fill-rule="evenodd" fill-opacity="1" /><path clip-path="url(#clip530)" d="M118.765 67.0365 L126.404 67.0365 L126.404 40.6709 L118.094 42.3376 L118.094 38.0784 L126.358 36.4117 L131.034 36.4117 L131.034 67.0365 L138.673 67.0365 L138.673 70.9717 L118.765 70.9717 L118.765 67.0365 Z" fill="#000000" fill-rule="evenodd" fill-opacity="1" /><path clip-path="url(#clip530)" d="M148.117 65.0921 L153.001 65.0921 L153.001 70.9717 L148.117 70.9717 L148.117 65.0921 Z" fill="#000000" fill-rule="evenodd" fill-opacity="1" /><path clip-path="url(#clip530)" d="M167.214 67.0365 L183.534 67.0365 L183.534 70.9717 L161.589 70.9717 L161.589 67.0365 Q164.251 64.2819 168.835 59.6523 Q173.441 54.9996 174.622 53.657 Q176.867 51.1338 177.747 49.3977 Q178.649 47.6385 178.649 45.9487 Q178.649 43.1941 176.705 41.458 Q174.784 39.7219 171.682 39.7219 Q169.483 39.7219 167.029 40.4857 Q164.598 41.2496 161.821 42.8005 L161.821 38.0784 Q164.645 36.9441 167.098 36.3654 Q169.552 35.7867 171.589 35.7867 Q176.959 35.7867 180.154 38.4719 Q183.348 41.157 183.348 45.6478 Q183.348 47.7774 182.538 49.6987 Q181.751 51.5968 179.645 54.1894 Q179.066 54.8607 175.964 58.0782 Q172.862 61.2727 167.214 67.0365 Z" fill="#000000" fill-rule="evenodd" fill-opacity="1" /><path clip-path="url(#clip530)" d="M203.348 39.4904 Q199.737 39.4904 197.908 43.0552 Q196.103 46.5968 196.103 53.7264 Q196.103 60.8329 197.908 64.3977 Q199.737 67.9393 203.348 67.9393 Q206.982 67.9393 208.788 64.3977 Q210.617 60.8329 210.617 53.7264 Q210.617 46.5968 208.788 43.0552 Q206.982 39.4904 203.348 39.4904 M203.348 35.7867 Q209.158 35.7867 212.214 40.3932 Q215.293 44.9765 215.293 53.7264 Q215.293 62.4532 212.214 67.0597 Q209.158 71.643 203.348 71.643 Q197.538 71.643 194.459 67.0597 Q191.404 62.4532 191.404 53.7264 Q191.404 44.9765 194.459 40.3932 Q197.538 35.7867 203.348 35.7867 Z" fill="#000000" fill-rule="evenodd" fill-opacity="1" /><path clip-path="url(#clip530)" d="M251.681 45.5089 L241.103 56.1338 L251.681 66.7125 L248.927 69.5134 L238.302 58.8884 L227.677 69.5134 L224.945 66.7125 L235.501 56.1338 L224.945 45.5089 L227.677 42.708 L238.302 53.3329 L248.927 42.708 L251.681 45.5089 Z" fill="#000000" fill-rule="evenodd" fill-opacity="1" /><path clip-path="url(#clip530)" d="M264.042 67.0365 L271.681 67.0365 L271.681 40.6709 L263.371 42.3376 L263.371 38.0784 L271.635 36.4117 L276.311 36.4117 L276.311 67.0365 L283.95 67.0365 L283.95 70.9717 L264.042 70.9717 L264.042 67.0365 Z" fill="#000000" fill-rule="evenodd" fill-opacity="1" /><path clip-path="url(#clip530)" d="M303.394 39.4904 Q299.783 39.4904 297.954 43.0552 Q296.149 46.5968 296.149 53.7264 Q296.149 60.8329 297.954 64.3977 Q299.783 67.9393 303.394 67.9393 Q307.028 67.9393 308.834 64.3977 Q310.662 60.8329 310.662 53.7264 Q310.662 46.5968 308.834 43.0552 Q307.028 39.4904 303.394 39.4904 M303.394 35.7867 Q309.204 35.7867 312.26 40.3932 Q315.338 44.9765 315.338 53.7264 Q315.338 62.4532 312.26 67.0597 Q309.204 71.643 303.394 71.643 Q297.584 71.643 294.505 67.0597 Q291.45 62.4532 291.45 53.7264 Q291.45 44.9765 294.505 40.3932 Q297.584 35.7867 303.394 35.7867 Z" fill="#000000" fill-rule="evenodd" fill-opacity="1" /><path clip-path="url(#clip530)" d="M315.338 29.888 L339.45 29.888 L339.45 33.0854 L315.338 33.0854 L315.338 29.888 Z" fill="#000000" fill-rule="evenodd" fill-opacity="1" /><path clip-path="url(#clip530)" d="M347.688 15.4813 L362.602 15.4813 L362.602 18.6786 L351.167 18.6786 L351.167 25.5623 Q351.995 25.2801 352.822 25.1485 Q353.65 24.998 354.477 24.998 Q359.179 24.998 361.925 27.5747 Q364.671 30.1514 364.671 34.5524 Q364.671 39.085 361.85 41.6053 Q359.029 44.1067 353.894 44.1067 Q352.126 44.1067 350.283 43.8058 Q348.459 43.5049 346.503 42.903 L346.503 39.085 Q348.196 40.0066 350.001 40.458 Q351.807 40.9094 353.819 40.9094 Q357.073 40.9094 358.972 39.1979 Q360.872 37.4864 360.872 34.5524 Q360.872 31.6184 358.972 29.9069 Q357.073 28.1953 353.819 28.1953 Q352.296 28.1953 350.772 28.5339 Q349.268 28.8724 347.688 29.5871 L347.688 15.4813 Z" fill="#000000" fill-rule="evenodd" fill-opacity="1" /><path clip-path="url(#clip530)" d="M64.0042 1010.7 L16.4842 1028.85 L16.4842 1022.13 L56.4926 1007.08 L16.4842 991.989 L16.4842 985.305 L64.0042 1003.42 L64.0042 1010.7 Z" fill="#000000" fill-rule="evenodd" fill-opacity="1" /><path clip-path="url(#clip530)" d="M28.3562 980.053 L28.3562 974.197 L64.0042 974.197 L64.0042 980.053 L28.3562 980.053 M14.479 980.053 L14.479 974.197 L21.895 974.197 L21.895 980.053 L14.479 980.053 Z" fill="#000000" fill-rule="evenodd" fill-opacity="1" /><path clip-path="url(#clip530)" d="M29.4065 939.217 L34.9447 939.217 Q33.6716 941.7 33.035 944.373 Q32.3984 947.047 32.3984 949.911 Q32.3984 954.272 33.7352 956.468 Q35.072 958.632 37.7456 958.632 Q39.7826 958.632 40.9603 957.073 Q42.1061 955.513 43.1565 950.803 L43.6021 948.797 Q44.9389 942.559 47.3897 939.949 Q49.8086 937.307 54.1691 937.307 Q59.1344 937.307 62.0308 941.254 Q64.9272 945.169 64.9272 952.044 Q64.9272 954.908 64.3543 958.028 Q63.8132 961.115 62.6992 964.552 L56.6518 964.552 Q58.3387 961.306 59.198 958.155 Q60.0256 955.004 60.0256 951.917 Q60.0256 947.779 58.6251 945.551 Q57.1929 943.323 54.6147 943.323 Q52.2276 943.323 50.9545 944.946 Q49.6813 946.538 48.5037 951.98 L48.0262 954.017 Q46.8804 959.46 44.5251 961.879 Q42.138 964.298 38.0002 964.298 Q32.9713 964.298 30.2341 960.733 Q27.4968 957.168 27.4968 950.612 Q27.4968 947.365 27.9743 944.5 Q28.4517 941.636 29.4065 939.217 Z" fill="#000000" fill-rule="evenodd" fill-opacity="1" /><path clip-path="url(#clip530)" d="M29.7248 902.328 L35.1993 902.328 Q33.8307 904.81 33.1623 907.325 Q32.4621 909.807 32.4621 912.354 Q32.4621 918.051 36.0905 921.202 Q39.6872 924.353 46.212 924.353 Q52.7369 924.353 56.3653 921.202 Q59.9619 918.051 59.9619 912.354 Q59.9619 909.807 59.2935 907.325 Q58.5933 904.81 57.2247 902.328 L62.6355 902.328 Q63.7814 904.778 64.3543 907.42 Q64.9272 910.03 64.9272 912.99 Q64.9272 921.043 59.8664 925.785 Q54.8057 930.528 46.212 930.528 Q37.491 930.528 32.4939 925.753 Q27.4968 920.947 27.4968 912.608 Q27.4968 909.903 28.0697 907.325 Q28.6108 904.747 29.7248 902.328 Z" fill="#000000" fill-rule="evenodd" fill-opacity="1" /><path clip-path="url(#clip530)" d="M32.4621 878.329 Q32.4621 883.04 36.1542 885.777 Q39.8145 888.514 46.212 888.514 Q52.6095 888.514 56.3017 885.809 Q59.9619 883.071 59.9619 878.329 Q59.9619 873.65 56.2698 870.913 Q52.5777 868.176 46.212 868.176 Q39.8781 868.176 36.186 870.913 Q32.4621 873.65 32.4621 878.329 M27.4968 878.329 Q27.4968 870.69 32.4621 866.33 Q37.4273 861.969 46.212 861.969 Q54.9649 861.969 59.9619 866.33 Q64.9272 870.69 64.9272 878.329 Q64.9272 886 59.9619 890.36 Q54.9649 894.689 46.212 894.689 Q37.4273 894.689 32.4621 890.36 Q27.4968 886 27.4968 878.329 Z" fill="#000000" fill-rule="evenodd" fill-opacity="1" /><path clip-path="url(#clip530)" d="M29.4065 829.536 L34.9447 829.536 Q33.6716 832.018 33.035 834.692 Q32.3984 837.366 32.3984 840.23 Q32.3984 844.591 33.7352 846.787 Q35.072 848.951 37.7456 848.951 Q39.7826 848.951 40.9603 847.392 Q42.1061 845.832 43.1565 841.121 L43.6021 839.116 Q44.9389 832.878 47.3897 830.268 Q49.8086 827.626 54.1691 827.626 Q59.1344 827.626 62.0308 831.573 Q64.9272 835.488 64.9272 842.363 Q64.9272 845.227 64.3543 848.346 Q63.8132 851.434 62.6992 854.871 L56.6518 854.871 Q58.3387 851.625 59.198 848.474 Q60.0256 845.323 60.0256 842.235 Q60.0256 838.098 58.6251 835.87 Q57.1929 833.642 54.6147 833.642 Q52.2276 833.642 50.9545 835.265 Q49.6813 836.856 48.5037 842.299 L48.0262 844.336 Q46.8804 849.779 44.5251 852.198 Q42.138 854.617 38.0002 854.617 Q32.9713 854.617 30.2341 851.052 Q27.4968 847.487 27.4968 840.93 Q27.4968 837.684 27.9743 834.819 Q28.4517 831.955 29.4065 829.536 Z" fill="#000000" fill-rule="evenodd" fill-opacity="1" /><path clip-path="url(#clip530)" d="M28.3562 818.3 L28.3562 812.444 L64.0042 812.444 L64.0042 818.3 L28.3562 818.3 M14.479 818.3 L14.479 812.444 L21.895 812.444 L21.895 818.3 L14.479 818.3 Z" fill="#000000" fill-rule="evenodd" fill-opacity="1" /><path clip-path="url(#clip530)" d="M18.2347 794.397 L28.3562 794.397 L28.3562 782.334 L32.9077 782.334 L32.9077 794.397 L52.2594 794.397 Q56.6199 794.397 57.8613 793.219 Q59.1026 792.01 59.1026 788.35 L59.1026 782.334 L64.0042 782.334 L64.0042 788.35 Q64.0042 795.129 61.4897 797.707 Q58.9434 800.285 52.2594 800.285 L32.9077 800.285 L32.9077 804.582 L28.3562 804.582 L28.3562 800.285 L18.2347 800.285 L18.2347 794.397 Z" fill="#000000" fill-rule="evenodd" fill-opacity="1" /><path clip-path="url(#clip530)" d="M67.3143 759.8 Q73.68 762.282 75.6216 764.637 Q77.5631 766.993 77.5631 770.939 L77.5631 775.618 L72.6615 775.618 L72.6615 772.181 Q72.6615 769.762 71.5157 768.425 Q70.3699 767.088 66.1048 765.465 L63.4312 764.415 L28.3562 778.833 L28.3562 772.626 L56.238 761.486 L28.3562 750.346 L28.3562 744.14 L67.3143 759.8 Z" fill="#000000" fill-rule="evenodd" fill-opacity="1" /><path clip-path="url(#clip530)" d="M55.9197 734.559 L55.9197 727.844 L61.3942 727.844 L71.5793 733.064 L71.5793 737.169 L61.3942 734.559 L55.9197 734.559 Z" fill="#000000" fill-rule="evenodd" fill-opacity="1" /><path clip-path="url(#clip530)" d="M77.5631 695.219 L28.3562 695.219 L28.3562 689.363 L50.5089 689.363 Q55.124 689.363 57.4793 687.167 Q59.8346 684.971 59.8346 680.674 Q59.8346 675.963 57.161 673.608 Q54.4874 671.221 49.1402 671.221 L28.3562 671.221 L28.3562 665.364 L55.7924 665.364 Q57.7021 665.364 58.6251 664.823 Q59.5163 664.25 59.5163 663.073 Q59.5163 662.786 59.3572 662.277 Q59.1662 661.768 58.7843 660.876 L63.4949 660.876 Q64.227 662.181 64.5771 663.359 Q64.9272 664.505 64.9272 665.619 Q64.9272 667.815 63.6859 669.12 Q62.4446 670.425 59.8983 670.902 Q62.4127 672.494 63.6859 674.817 Q64.9272 677.109 64.9272 680.228 Q64.9272 683.475 63.6859 685.766 Q62.4446 688.026 59.9619 689.363 L77.5631 689.363 L77.5631 695.219 Z" fill="#000000" fill-rule="evenodd" fill-opacity="1" /><path clip-path="url(#clip530)" d="M14.5426 597.633 Q21.8632 601.898 29.0246 603.967 Q36.186 606.036 43.5384 606.036 Q50.8908 606.036 58.1159 603.967 Q65.3091 601.866 72.5979 597.633 L72.5979 602.726 Q65.1182 607.5 57.8931 609.887 Q50.668 612.242 43.5384 612.242 Q36.4406 612.242 29.2474 609.887 Q22.0542 607.532 14.5426 602.726 L14.5426 597.633 Z" fill="#000000" fill-rule="evenodd" fill-opacity="1" /><path clip-path="url(#clip530)" d="M21.7677 579.586 L39.6235 579.586 L39.6235 571.502 Q39.6235 567.014 37.3 564.563 Q34.9765 562.112 30.6797 562.112 Q26.4147 562.112 24.0912 564.563 Q21.7677 567.014 21.7677 571.502 L21.7677 579.586 M16.4842 586.016 L16.4842 571.502 Q16.4842 563.513 20.1126 559.439 Q23.7092 555.333 30.6797 555.333 Q37.7138 555.333 41.3104 559.439 Q44.907 563.513 44.907 571.502 L44.907 579.586 L64.0042 579.586 L64.0042 586.016 L16.4842 586.016 Z" fill="#000000" fill-rule="evenodd" fill-opacity="1" /><path clip-path="url(#clip530)" d="M46.0847 533.69 Q46.0847 540.787 47.7079 543.525 Q49.3312 546.262 53.2461 546.262 Q56.3653 546.262 58.2114 544.225 Q60.0256 542.156 60.0256 538.623 Q60.0256 533.753 56.5881 530.825 Q53.1188 527.865 47.3897 527.865 L46.0847 527.865 L46.0847 533.69 M43.6657 522.009 L64.0042 522.009 L64.0042 527.865 L58.5933 527.865 Q61.8398 529.87 63.3994 532.862 Q64.9272 535.854 64.9272 540.183 Q64.9272 545.657 61.8716 548.904 Q58.7843 552.118 53.6281 552.118 Q47.6125 552.118 44.5569 548.108 Q41.5014 544.066 41.5014 536.077 L41.5014 527.865 L40.9285 527.865 Q36.8862 527.865 34.6901 530.539 Q32.4621 533.18 32.4621 537.986 Q32.4621 541.042 33.1941 543.938 Q33.9262 546.835 35.3903 549.508 L29.9795 549.508 Q28.7381 546.294 28.1334 543.27 Q27.4968 540.246 27.4968 537.382 Q27.4968 529.647 31.5072 525.828 Q35.5176 522.009 43.6657 522.009 Z" fill="#000000" fill-rule="evenodd" fill-opacity="1" /><path clip-path="url(#clip530)" d="M29.4065 466.5 L34.9447 466.5 Q33.6716 468.982 33.035 471.656 Q32.3984 474.329 32.3984 477.194 Q32.3984 481.554 33.7352 483.751 Q35.072 485.915 37.7456 485.915 Q39.7826 485.915 40.9603 484.355 Q42.1061 482.796 43.1565 478.085 L43.6021 476.08 Q44.9389 469.842 47.3897 467.232 Q49.8086 464.59 54.1691 464.59 Q59.1344 464.59 62.0308 468.537 Q64.9272 472.452 64.9272 479.326 Q64.9272 482.191 64.3543 485.31 Q63.8132 488.398 62.6992 491.835 L56.6518 491.835 Q58.3387 488.589 59.198 485.438 Q60.0256 482.287 60.0256 479.199 Q60.0256 475.061 58.6251 472.833 Q57.1929 470.605 54.6147 470.605 Q52.2276 470.605 50.9545 472.229 Q49.6813 473.82 48.5037 479.263 L48.0262 481.3 Q46.8804 486.743 44.5251 489.161 Q42.138 491.58 38.0002 491.58 Q32.9713 491.58 30.2341 488.016 Q27.4968 484.451 27.4968 477.894 Q27.4968 474.648 27.9743 471.783 Q28.4517 468.919 29.4065 466.5 Z" fill="#000000" fill-rule="evenodd" fill-opacity="1" /><path clip-path="url(#clip530)" d="M14.5426 456.187 L14.5426 451.095 Q22.0542 446.32 29.2474 443.965 Q36.4406 441.578 43.5384 441.578 Q50.668 441.578 57.8931 443.965 Q65.1182 446.32 72.5979 451.095 L72.5979 456.187 Q65.3091 451.954 58.1159 449.885 Q50.8908 447.784 43.5384 447.784 Q36.186 447.784 29.0246 449.885 Q21.8632 451.954 14.5426 456.187 Z" fill="#000000" fill-rule="evenodd" fill-opacity="1" /><polyline clip-path="url(#clip532)" style="stroke:#023eff; stroke-linecap:round; stroke-linejoin:round; stroke-width:4; stroke-opacity:1; fill:none" points="
  455.919,176.945 474.521,176.077 493.123,175.211 511.725,174.348 530.326,173.488 548.928,172.631 567.53,171.777 586.132,170.927 604.734,170.082 623.336,169.241 
  641.938,168.405 660.54,167.575 679.142,166.751 697.744,165.933 716.346,165.123 734.948,164.319 753.549,163.524 772.151,162.738 790.753,161.961 809.355,161.194 
  827.957,160.438 846.559,159.693 865.161,158.96 883.763,158.241 902.365,157.535 920.967,156.843 939.569,156.168 958.17,155.509 976.772,154.867 995.374,154.244 
  1013.98,153.641 1032.58,153.059 1051.18,152.499 1069.78,151.963 1088.38,151.451 1106.99,150.966 1125.59,150.509 1144.19,150.081 1162.79,149.684 1181.39,149.321 
  1200,148.992 1218.6,148.701 1237.2,148.448 1255.8,148.236 1274.4,148.068 1293,147.947 1311.61,147.873 1330.21,147.851 1348.81,147.884 1367.41,147.974 
  1386.01,148.124 1404.62,148.339 1423.22,148.621 1441.82,148.975 1460.42,149.405 1479.02,149.915 1497.63,150.509 1516.23,151.193 1534.83,151.972 1553.43,152.851 
  1572.03,153.837 1590.64,154.934 1609.24,156.151 1627.84,157.494 1646.44,158.97 1665.04,160.588 1683.65,162.357 1702.25,164.284 1720.85,166.381 1739.45,168.656 
  1758.05,171.123 1776.65,173.792 1795.26,176.676 1813.86,179.788 1832.46,183.144 1851.06,186.76 1869.66,190.651 1888.27,194.836 1906.87,199.335 1925.47,204.169 
  1944.07,209.36 1962.67,214.932 1981.28,220.913 1999.88,227.331 2018.48,234.216 2037.08,241.603 2055.68,249.527 2074.29,258.028 2092.89,267.149 2111.49,276.937 
  2130.09,287.443 2148.69,298.723 2167.29,310.838 2185.9,323.855 2204.5,337.847 2223.1,352.895 2241.7,369.087 2260.3,386.523 2278.91,405.311 2297.51,425.57 
  
  "/>
</svg>
