<?xml version="1.0" encoding="utf-8"?>
<svg xmlns="http://www.w3.org/2000/svg" xmlns:xlink="http://www.w3.org/1999/xlink" width="600" height="400" viewBox="0 0 2400 1600">
<defs>
  <clipPath id="clip370">
    <rect x="0" y="0" width="2400" height="1600"/>
  </clipPath>
</defs>
<path clip-path="url(#clip370)" d="
M0 1600 L2400 1600 L2400 0 L0 0  Z
  " fill="#ffffff" fill-rule="evenodd" fill-opacity="1"/>
<defs>
  <clipPath id="clip371">
    <rect x="480" y="0" width="1681" height="1600"/>
  </clipPath>
</defs>
<path clip-path="url(#clip370)" d="
M203.964 1423.18 L2352.76 1423.18 L2352.76 47.2441 L203.964 47.2441  Z
  " fill="#ffffff" fill-rule="evenodd" fill-opacity="1"/>
<defs>
  <clipPath id="clip372">
    <rect x="203" y="47" width="2150" height="1377"/>
  </clipPath>
</defs>
<polyline clip-path="url(#clip372)" style="stroke:#000000; stroke-linecap:round; stroke-linejoin:round; stroke-width:2; stroke-opacity:0.1; fill:none" points="
  264.778,1423.18 264.778,47.2441 
  "/>
<polyline clip-path="url(#clip372)" style="stroke:#000000; stroke-linecap:round; stroke-linejoin:round; stroke-width:2; stroke-opacity:0.1; fill:none" points="
  771.569,1423.18 771.569,47.2441 
  "/>
<polyline clip-path="url(#clip372)" style="stroke:#000000; stroke-linecap:round; stroke-linejoin:round; stroke-width:2; stroke-opacity:0.1; fill:none" points="
  1278.36,1423.18 1278.36,47.2441 
  "/>
<polyline clip-path="url(#clip372)" style="stroke:#000000; stroke-linecap:round; stroke-linejoin:round; stroke-width:2; stroke-opacity:0.1; fill:none" points="
  1785.15,1423.18 1785.15,47.2441 
  "/>
<polyline clip-path="url(#clip372)" style="stroke:#000000; stroke-linecap:round; stroke-linejoin:round; stroke-width:2; stroke-opacity:0.1; fill:none" points="
  2291.94,1423.18 2291.94,47.2441 
  "/>
<polyline clip-path="url(#clip370)" style="stroke:#000000; stroke-linecap:round; stroke-linejoin:round; stroke-width:4; stroke-opacity:1; fill:none" points="
  203.964,1423.18 2352.76,1423.18 
  "/>
<polyline clip-path="url(#clip370)" style="stroke:#000000; stroke-linecap:round; stroke-linejoin:round; stroke-width:4; stroke-opacity:1; fill:none" points="
  264.778,1423.18 264.778,1404.28 
  "/>
<polyline clip-path="url(#clip370)" style="stroke:#000000; stroke-linecap:round; stroke-linejoin:round; stroke-width:4; stroke-opacity:1; fill:none" points="
  771.569,1423.18 771.569,1404.28 
  "/>
<polyline clip-path="url(#clip370)" style="stroke:#000000; stroke-linecap:round; stroke-linejoin:round; stroke-width:4; stroke-opacity:1; fill:none" points="
  1278.36,1423.18 1278.36,1404.28 
  "/>
<polyline clip-path="url(#clip370)" style="stroke:#000000; stroke-linecap:round; stroke-linejoin:round; stroke-width:4; stroke-opacity:1; fill:none" points="
  1785.15,1423.18 1785.15,1404.28 
  "/>
<polyline clip-path="url(#clip370)" style="stroke:#000000; stroke-linecap:round; stroke-linejoin:round; stroke-width:4; stroke-opacity:1; fill:none" points="
  2291.94,1423.18 2291.94,1404.28 
  "/>
<path clip-path="url(#clip370)" d="M264.778 1454.1 Q261.167 1454.1 259.339 1457.66 Q257.533 1461.2 257.533 1468.33 Q257.533 1475.44 259.339 1479.01 Q261.167 1482.55 264.778 1482.55 Q268.413 1482.55 270.218 1479.01 Q272.047 1475.44 272.047 1468.33 Q272.047 1461.2 270.218 1457.66 Q268.413 1454.1 264.778 1454.1 M264.778 1450.39 Q270.589 1450.39 273.644 1455 Q276.723 1459.58 276.723 1468.33 Q276.723 1477.06 273.644 1481.67 Q270.589 1486.25 264.778 1486.25 Q258.968 1486.25 255.89 1481.67 Q252.834 1477.06 252.834 1468.33 Q252.834 1459.58 255.89 1455 Q258.968 1450.39 264.778 1450.39 Z" fill="#000000" fill-rule="evenodd" fill-opacity="1" /><path clip-path="url(#clip370)" d="M750.84 1481.64 L767.159 1481.64 L767.159 1485.58 L745.215 1485.58 L745.215 1481.64 Q747.877 1478.89 752.46 1474.26 Q757.067 1469.61 758.247 1468.27 Q760.493 1465.74 761.372 1464.01 Q762.275 1462.25 762.275 1460.56 Q762.275 1457.8 760.331 1456.07 Q758.409 1454.33 755.308 1454.33 Q753.109 1454.33 750.655 1455.09 Q748.224 1455.86 745.447 1457.41 L745.447 1452.69 Q748.271 1451.55 750.724 1450.97 Q753.178 1450.39 755.215 1450.39 Q760.585 1450.39 763.78 1453.08 Q766.974 1455.77 766.974 1460.26 Q766.974 1462.39 766.164 1464.31 Q765.377 1466.2 763.271 1468.8 Q762.692 1469.47 759.59 1472.69 Q756.488 1475.88 750.84 1481.64 Z" fill="#000000" fill-rule="evenodd" fill-opacity="1" /><path clip-path="url(#clip370)" d="M777.02 1451.02 L795.377 1451.02 L795.377 1454.96 L781.303 1454.96 L781.303 1463.43 Q782.321 1463.08 783.34 1462.92 Q784.358 1462.73 785.377 1462.73 Q791.164 1462.73 794.544 1465.9 Q797.923 1469.08 797.923 1474.49 Q797.923 1480.07 794.451 1483.17 Q790.979 1486.25 784.659 1486.25 Q782.483 1486.25 780.215 1485.88 Q777.97 1485.51 775.562 1484.77 L775.562 1480.07 Q777.645 1481.2 779.868 1481.76 Q782.09 1482.32 784.567 1482.32 Q788.571 1482.32 790.909 1480.21 Q793.247 1478.1 793.247 1474.49 Q793.247 1470.88 790.909 1468.77 Q788.571 1466.67 784.567 1466.67 Q782.692 1466.67 780.817 1467.08 Q778.965 1467.5 777.02 1468.38 L777.02 1451.02 Z" fill="#000000" fill-rule="evenodd" fill-opacity="1" /><path clip-path="url(#clip370)" d="M1253.06 1451.02 L1271.42 1451.02 L1271.42 1454.96 L1257.34 1454.96 L1257.34 1463.43 Q1258.36 1463.08 1259.38 1462.92 Q1260.4 1462.73 1261.42 1462.73 Q1267.2 1462.73 1270.58 1465.9 Q1273.96 1469.08 1273.96 1474.49 Q1273.96 1480.07 1270.49 1483.17 Q1267.02 1486.25 1260.7 1486.25 Q1258.52 1486.25 1256.25 1485.88 Q1254.01 1485.51 1251.6 1484.77 L1251.6 1480.07 Q1253.68 1481.2 1255.91 1481.76 Q1258.13 1482.32 1260.61 1482.32 Q1264.61 1482.32 1266.95 1480.21 Q1269.29 1478.1 1269.29 1474.49 Q1269.29 1470.88 1266.95 1468.77 Q1264.61 1466.67 1260.61 1466.67 Q1258.73 1466.67 1256.86 1467.08 Q1255 1467.5 1253.06 1468.38 L1253.06 1451.02 Z" fill="#000000" fill-rule="evenodd" fill-opacity="1" /><path clip-path="url(#clip370)" d="M1293.17 1454.1 Q1289.56 1454.1 1287.73 1457.66 Q1285.93 1461.2 1285.93 1468.33 Q1285.93 1475.44 1287.73 1479.01 Q1289.56 1482.55 1293.17 1482.55 Q1296.81 1482.55 1298.61 1479.01 Q1300.44 1475.44 1300.44 1468.33 Q1300.44 1461.2 1298.61 1457.66 Q1296.81 1454.1 1293.17 1454.1 M1293.17 1450.39 Q1298.98 1450.39 1302.04 1455 Q1305.12 1459.58 1305.12 1468.33 Q1305.12 1477.06 1302.04 1481.67 Q1298.98 1486.25 1293.17 1486.25 Q1287.36 1486.25 1284.29 1481.67 Q1281.23 1477.06 1281.23 1468.33 Q1281.23 1459.58 1284.29 1455 Q1287.36 1450.39 1293.17 1450.39 Z" fill="#000000" fill-rule="evenodd" fill-opacity="1" /><path clip-path="url(#clip370)" d="M1759 1451.02 L1781.23 1451.02 L1781.23 1453.01 L1768.68 1485.58 L1763.8 1485.58 L1775.6 1454.96 L1759 1454.96 L1759 1451.02 Z" fill="#000000" fill-rule="evenodd" fill-opacity="1" /><path clip-path="url(#clip370)" d="M1790.39 1451.02 L1808.75 1451.02 L1808.75 1454.96 L1794.68 1454.96 L1794.68 1463.43 Q1795.69 1463.08 1796.71 1462.92 Q1797.73 1462.73 1798.75 1462.73 Q1804.54 1462.73 1807.92 1465.9 Q1811.3 1469.08 1811.3 1474.49 Q1811.3 1480.07 1807.82 1483.17 Q1804.35 1486.25 1798.03 1486.25 Q1795.86 1486.25 1793.59 1485.88 Q1791.34 1485.51 1788.94 1484.77 L1788.94 1480.07 Q1791.02 1481.2 1793.24 1481.76 Q1795.46 1482.32 1797.94 1482.32 Q1801.94 1482.32 1804.28 1480.21 Q1806.62 1478.1 1806.62 1474.49 Q1806.62 1470.88 1804.28 1468.77 Q1801.94 1466.67 1797.94 1466.67 Q1796.06 1466.67 1794.19 1467.08 Q1792.34 1467.5 1790.39 1468.38 L1790.39 1451.02 Z" fill="#000000" fill-rule="evenodd" fill-opacity="1" /><path clip-path="url(#clip370)" d="M2251.55 1481.64 L2259.19 1481.64 L2259.19 1455.28 L2250.88 1456.95 L2250.88 1452.69 L2259.14 1451.02 L2263.82 1451.02 L2263.82 1481.64 L2271.46 1481.64 L2271.46 1485.58 L2251.55 1485.58 L2251.55 1481.64 Z" fill="#000000" fill-rule="evenodd" fill-opacity="1" /><path clip-path="url(#clip370)" d="M2290.9 1454.1 Q2287.29 1454.1 2285.46 1457.66 Q2283.65 1461.2 2283.65 1468.33 Q2283.65 1475.44 2285.46 1479.01 Q2287.29 1482.55 2290.9 1482.55 Q2294.53 1482.55 2296.34 1479.01 Q2298.17 1475.44 2298.17 1468.33 Q2298.17 1461.2 2296.34 1457.66 Q2294.53 1454.1 2290.9 1454.1 M2290.9 1450.39 Q2296.71 1450.39 2299.77 1455 Q2302.84 1459.58 2302.84 1468.33 Q2302.84 1477.06 2299.77 1481.67 Q2296.71 1486.25 2290.9 1486.25 Q2285.09 1486.25 2282.01 1481.67 Q2278.95 1477.06 2278.95 1468.33 Q2278.95 1459.58 2282.01 1455 Q2285.09 1450.39 2290.9 1450.39 Z" fill="#000000" fill-rule="evenodd" fill-opacity="1" /><path clip-path="url(#clip370)" d="M2321.06 1454.1 Q2317.45 1454.1 2315.62 1457.66 Q2313.82 1461.2 2313.82 1468.33 Q2313.82 1475.44 2315.62 1479.01 Q2317.45 1482.55 2321.06 1482.55 Q2324.7 1482.55 2326.5 1479.01 Q2328.33 1475.44 2328.33 1468.33 Q2328.33 1461.2 2326.5 1457.66 Q2324.7 1454.1 2321.06 1454.1 M2321.06 1450.39 Q2326.87 1450.39 2329.93 1455 Q2333.01 1459.58 2333.01 1468.33 Q2333.01 1477.06 2329.93 1481.67 Q2326.87 1486.25 2321.06 1486.25 Q2315.25 1486.25 2312.17 1481.67 Q2309.12 1477.06 2309.12 1468.33 Q2309.12 1459.58 2312.17 1455 Q2315.25 1450.39 2321.06 1450.39 Z" fill="#000000" fill-rule="evenodd" fill-opacity="1" /><path clip-path="url(#clip370)" d="M983.58 1547.13 Q980.811 1547.13 979.219 1549.49 Q977.66 1551.84 977.66 1556.04 Q977.66 1560.18 979.219 1562.57 Q980.811 1564.92 983.58 1564.92 Q986.285 1564.92 987.845 1562.57 Q989.436 1560.18 989.436 1556.04 Q989.436 1551.87 987.845 1549.52 Q986.285 1547.13 983.58 1547.13 M983.58 1543.09 Q988.609 1543.09 991.569 1546.59 Q994.529 1550.09 994.529 1556.04 Q994.529 1562 991.537 1565.5 Q988.577 1568.97 983.58 1568.97 Q978.487 1568.97 975.527 1565.5 Q972.567 1562 972.567 1556.04 Q972.567 1550.06 975.527 1546.59 Q978.519 1543.09 983.58 1543.09 M950.733 1523.71 Q947.995 1523.71 946.404 1526.09 Q944.844 1528.45 944.844 1532.59 Q944.844 1536.79 946.404 1539.14 Q947.964 1541.5 950.733 1541.5 Q953.502 1541.5 955.061 1539.14 Q956.653 1536.79 956.653 1532.59 Q956.653 1528.48 955.061 1526.09 Q953.47 1523.71 950.733 1523.71 M979.474 1519.66 L984.566 1519.66 L954.839 1568.97 L949.746 1568.97 L979.474 1519.66 M950.733 1519.66 Q955.762 1519.66 958.754 1523.17 Q961.745 1526.63 961.745 1532.59 Q961.745 1538.6 958.754 1542.07 Q955.793 1545.54 950.733 1545.54 Q945.672 1545.54 942.712 1542.07 Q939.784 1538.57 939.784 1532.59 Q939.784 1526.67 942.744 1523.17 Q945.704 1519.66 950.733 1519.66 Z" fill="#000000" fill-rule="evenodd" fill-opacity="1" /><path clip-path="url(#clip370)" d="M1025.24 1520.52 L1031.67 1520.52 L1031.67 1540 L1055.03 1540 L1055.03 1520.52 L1061.46 1520.52 L1061.46 1568.04 L1055.03 1568.04 L1055.03 1545.41 L1031.67 1545.41 L1031.67 1568.04 L1025.24 1568.04 L1025.24 1520.52 Z" fill="#000000" fill-rule="evenodd" fill-opacity="1" /><path clip-path="url(#clip370)" d="M1088.84 1571.35 Q1086.35 1577.72 1084 1579.66 Q1081.64 1581.6 1077.7 1581.6 L1073.02 1581.6 L1073.02 1576.7 L1076.46 1576.7 Q1078.87 1576.7 1080.21 1575.56 Q1081.55 1574.41 1083.17 1570.14 L1084.22 1567.47 L1069.8 1532.4 L1076.01 1532.4 L1087.15 1560.28 L1098.29 1532.4 L1104.5 1532.4 L1088.84 1571.35 Z" fill="#000000" fill-rule="evenodd" fill-opacity="1" /><path clip-path="url(#clip370)" d="M1136.04 1537.81 L1136.04 1518.52 L1141.89 1518.52 L1141.89 1568.04 L1136.04 1568.04 L1136.04 1562.7 Q1134.19 1565.88 1131.36 1567.44 Q1128.56 1568.97 1124.61 1568.97 Q1118.15 1568.97 1114.08 1563.81 Q1110.03 1558.65 1110.03 1550.25 Q1110.03 1541.85 1114.08 1536.69 Q1118.15 1531.54 1124.61 1531.54 Q1128.56 1531.54 1131.36 1533.1 Q1134.19 1534.62 1136.04 1537.81 M1116.08 1550.25 Q1116.08 1556.71 1118.72 1560.4 Q1121.4 1564.07 1126.04 1564.07 Q1130.69 1564.07 1133.36 1560.4 Q1136.04 1556.71 1136.04 1550.25 Q1136.04 1543.79 1133.36 1540.13 Q1130.69 1536.44 1126.04 1536.44 Q1121.4 1536.44 1118.72 1540.13 Q1116.08 1543.79 1116.08 1550.25 Z" fill="#000000" fill-rule="evenodd" fill-opacity="1" /><path clip-path="url(#clip370)" d="M1174.61 1537.87 Q1173.63 1537.3 1172.45 1537.04 Q1171.3 1536.76 1169.9 1536.76 Q1164.94 1536.76 1162.27 1540 Q1159.62 1543.22 1159.62 1549.27 L1159.62 1568.04 L1153.74 1568.04 L1153.74 1532.4 L1159.62 1532.4 L1159.62 1537.93 Q1161.47 1534.69 1164.43 1533.13 Q1167.39 1531.54 1171.62 1531.54 Q1172.23 1531.54 1172.96 1531.63 Q1173.69 1531.7 1174.58 1531.85 L1174.61 1537.87 Z" fill="#000000" fill-rule="evenodd" fill-opacity="1" /><path clip-path="url(#clip370)" d="M1193.14 1536.5 Q1188.43 1536.5 1185.69 1540.19 Q1182.95 1543.85 1182.95 1550.25 Q1182.95 1556.65 1185.66 1560.34 Q1188.4 1564 1193.14 1564 Q1197.82 1564 1200.55 1560.31 Q1203.29 1556.62 1203.29 1550.25 Q1203.29 1543.92 1200.55 1540.23 Q1197.82 1536.5 1193.14 1536.5 M1193.14 1531.54 Q1200.78 1531.54 1205.14 1536.5 Q1209.5 1541.47 1209.5 1550.25 Q1209.5 1559 1205.14 1564 Q1200.78 1568.97 1193.14 1568.97 Q1185.47 1568.97 1181.11 1564 Q1176.78 1559 1176.78 1550.25 Q1176.78 1541.47 1181.11 1536.5 Q1185.47 1531.54 1193.14 1531.54 Z" fill="#000000" fill-rule="evenodd" fill-opacity="1" /><path clip-path="url(#clip370)" d="M1242.66 1549.81 Q1242.66 1543.44 1240.02 1539.94 Q1237.41 1536.44 1232.67 1536.44 Q1227.96 1536.44 1225.32 1539.94 Q1222.71 1543.44 1222.71 1549.81 Q1222.71 1556.14 1225.32 1559.64 Q1227.96 1563.14 1232.67 1563.14 Q1237.41 1563.14 1240.02 1559.64 Q1242.66 1556.14 1242.66 1549.81 M1248.52 1563.62 Q1248.52 1572.72 1244.48 1577.15 Q1240.44 1581.6 1232.1 1581.6 Q1229.01 1581.6 1226.27 1581.13 Q1223.54 1580.68 1220.96 1579.72 L1220.96 1574.03 Q1223.54 1575.43 1226.05 1576.1 Q1228.56 1576.76 1231.17 1576.76 Q1236.93 1576.76 1239.8 1573.74 Q1242.66 1570.75 1242.66 1564.67 L1242.66 1561.77 Q1240.85 1564.92 1238.02 1566.48 Q1235.18 1568.04 1231.24 1568.04 Q1224.68 1568.04 1220.67 1563.05 Q1216.66 1558.05 1216.66 1549.81 Q1216.66 1541.53 1220.67 1536.53 Q1224.68 1531.54 1231.24 1531.54 Q1235.18 1531.54 1238.02 1533.1 Q1240.85 1534.66 1242.66 1537.81 L1242.66 1532.4 L1248.52 1532.4 L1248.52 1563.62 Z" fill="#000000" fill-rule="evenodd" fill-opacity="1" /><path clip-path="url(#clip370)" d="M1291.08 1548.76 L1291.08 1551.62 L1264.15 1551.62 Q1264.53 1557.67 1267.78 1560.85 Q1271.06 1564 1276.88 1564 Q1280.25 1564 1283.4 1563.17 Q1286.59 1562.35 1289.71 1560.69 L1289.71 1566.23 Q1286.56 1567.57 1283.25 1568.27 Q1279.94 1568.97 1276.53 1568.97 Q1268 1568.97 1263 1564 Q1258.04 1559.04 1258.04 1550.57 Q1258.04 1541.82 1262.75 1536.69 Q1267.49 1531.54 1275.51 1531.54 Q1282.7 1531.54 1286.87 1536.18 Q1291.08 1540.8 1291.08 1548.76 M1285.22 1547.04 Q1285.16 1542.23 1282.51 1539.37 Q1279.9 1536.5 1275.57 1536.5 Q1270.67 1536.5 1267.71 1539.27 Q1264.78 1542.04 1264.34 1547.07 L1285.22 1547.04 Z" fill="#000000" fill-rule="evenodd" fill-opacity="1" /><path clip-path="url(#clip370)" d="M1330.32 1546.53 L1330.32 1568.04 L1324.46 1568.04 L1324.46 1546.72 Q1324.46 1541.66 1322.49 1539.14 Q1320.52 1536.63 1316.57 1536.63 Q1311.83 1536.63 1309.09 1539.65 Q1306.35 1542.68 1306.35 1547.9 L1306.35 1568.04 L1300.46 1568.04 L1300.46 1532.4 L1306.35 1532.4 L1306.35 1537.93 Q1308.45 1534.72 1311.29 1533.13 Q1314.15 1531.54 1317.87 1531.54 Q1324.02 1531.54 1327.17 1535.36 Q1330.32 1539.14 1330.32 1546.53 Z" fill="#000000" fill-rule="evenodd" fill-opacity="1" /><path clip-path="url(#clip370)" d="M1376.79 1518.58 Q1372.52 1525.9 1370.46 1533.06 Q1368.39 1540.23 1368.39 1547.58 Q1368.39 1554.93 1370.46 1562.16 Q1372.56 1569.35 1376.79 1576.64 L1371.7 1576.64 Q1366.92 1569.16 1364.54 1561.93 Q1362.18 1554.71 1362.18 1547.58 Q1362.18 1540.48 1364.54 1533.29 Q1366.89 1526.09 1371.7 1518.58 L1376.79 1518.58 Z" fill="#000000" fill-rule="evenodd" fill-opacity="1" /><path clip-path="url(#clip370)" d="M1383.95 1532.4 L1390.16 1532.4 L1401.3 1562.31 L1412.44 1532.4 L1418.64 1532.4 L1405.28 1568.04 L1397.32 1568.04 L1383.95 1532.4 Z" fill="#000000" fill-rule="evenodd" fill-opacity="1" /><path clip-path="url(#clip370)" d="M1440.54 1536.5 Q1435.83 1536.5 1433.09 1540.19 Q1430.36 1543.85 1430.36 1550.25 Q1430.36 1556.65 1433.06 1560.34 Q1435.8 1564 1440.54 1564 Q1445.22 1564 1447.96 1560.31 Q1450.7 1556.62 1450.7 1550.25 Q1450.7 1543.92 1447.96 1540.23 Q1445.22 1536.5 1440.54 1536.5 M1440.54 1531.54 Q1448.18 1531.54 1452.54 1536.5 Q1456.9 1541.47 1456.9 1550.25 Q1456.9 1559 1452.54 1564 Q1448.18 1568.97 1440.54 1568.97 Q1432.87 1568.97 1428.51 1564 Q1424.18 1559 1424.18 1550.25 Q1424.18 1541.47 1428.51 1536.5 Q1432.87 1531.54 1440.54 1531.54 Z" fill="#000000" fill-rule="evenodd" fill-opacity="1" /><path clip-path="url(#clip370)" d="M1466.61 1518.52 L1472.47 1518.52 L1472.47 1568.04 L1466.61 1568.04 L1466.61 1518.52 Z" fill="#000000" fill-rule="evenodd" fill-opacity="1" /><path clip-path="url(#clip370)" d="M1495.13 1520.52 L1500.54 1520.52 L1483.99 1574.09 L1478.58 1574.09 L1495.13 1520.52 Z" fill="#000000" fill-rule="evenodd" fill-opacity="1" /><path clip-path="url(#clip370)" d="M1502.48 1532.4 L1508.69 1532.4 L1519.83 1562.31 L1530.97 1532.4 L1537.17 1532.4 L1523.81 1568.04 L1515.85 1568.04 L1502.48 1532.4 Z" fill="#000000" fill-rule="evenodd" fill-opacity="1" /><path clip-path="url(#clip370)" d="M1559.07 1536.5 Q1554.36 1536.5 1551.62 1540.19 Q1548.89 1543.85 1548.89 1550.25 Q1548.89 1556.65 1551.59 1560.34 Q1554.33 1564 1559.07 1564 Q1563.75 1564 1566.49 1560.31 Q1569.22 1556.62 1569.22 1550.25 Q1569.22 1543.92 1566.49 1540.23 Q1563.75 1536.5 1559.07 1536.5 M1559.07 1531.54 Q1566.71 1531.54 1571.07 1536.5 Q1575.43 1541.47 1575.43 1550.25 Q1575.43 1559 1571.07 1564 Q1566.71 1568.97 1559.07 1568.97 Q1551.4 1568.97 1547.04 1564 Q1542.71 1559 1542.71 1550.25 Q1542.71 1541.47 1547.04 1536.5 Q1551.4 1531.54 1559.07 1531.54 Z" fill="#000000" fill-rule="evenodd" fill-opacity="1" /><path clip-path="url(#clip370)" d="M1585.14 1518.52 L1591 1518.52 L1591 1568.04 L1585.14 1568.04 L1585.14 1518.52 Z" fill="#000000" fill-rule="evenodd" fill-opacity="1" /><path clip-path="url(#clip370)" d="M1602.33 1518.58 L1607.42 1518.58 Q1612.19 1526.09 1614.55 1533.29 Q1616.94 1540.48 1616.94 1547.58 Q1616.94 1554.71 1614.55 1561.93 Q1612.19 1569.16 1607.42 1576.64 L1602.33 1576.64 Q1606.56 1569.35 1608.63 1562.16 Q1610.73 1554.93 1610.73 1547.58 Q1610.73 1540.23 1608.63 1533.06 Q1606.56 1525.9 1602.33 1518.58 Z" fill="#000000" fill-rule="evenodd" fill-opacity="1" /><polyline clip-path="url(#clip372)" style="stroke:#000000; stroke-linecap:round; stroke-linejoin:round; stroke-width:2; stroke-opacity:0.1; fill:none" points="
  203.964,1423.18 2352.76,1423.18 
  "/>
<polyline clip-path="url(#clip372)" style="stroke:#000000; stroke-linecap:round; stroke-linejoin:round; stroke-width:2; stroke-opacity:0.1; fill:none" points="
  203.964,1040.98 2352.76,1040.98 
  "/>
<polyline clip-path="url(#clip372)" style="stroke:#000000; stroke-linecap:round; stroke-linejoin:round; stroke-width:2; stroke-opacity:0.1; fill:none" points="
  203.964,658.771 2352.76,658.771 
  "/>
<polyline clip-path="url(#clip372)" style="stroke:#000000; stroke-linecap:round; stroke-linejoin:round; stroke-width:2; stroke-opacity:0.1; fill:none" points="
  203.964,276.567 2352.76,276.567 
  "/>
<polyline clip-path="url(#clip370)" style="stroke:#000000; stroke-linecap:round; stroke-linejoin:round; stroke-width:4; stroke-opacity:1; fill:none" points="
  203.964,1423.18 203.964,47.2441 
  "/>
<polyline clip-path="url(#clip370)" style="stroke:#000000; stroke-linecap:round; stroke-linejoin:round; stroke-width:4; stroke-opacity:1; fill:none" points="
  203.964,1423.18 222.861,1423.18 
  "/>
<polyline clip-path="url(#clip370)" style="stroke:#000000; stroke-linecap:round; stroke-linejoin:round; stroke-width:4; stroke-opacity:1; fill:none" points="
  203.964,1040.98 222.861,1040.98 
  "/>
<polyline clip-path="url(#clip370)" style="stroke:#000000; stroke-linecap:round; stroke-linejoin:round; stroke-width:4; stroke-opacity:1; fill:none" points="
  203.964,658.771 222.861,658.771 
  "/>
<polyline clip-path="url(#clip370)" style="stroke:#000000; stroke-linecap:round; stroke-linejoin:round; stroke-width:4; stroke-opacity:1; fill:none" points="
  203.964,276.567 222.861,276.567 
  "/>
<path clip-path="url(#clip370)" d="M156.019 1408.98 Q152.408 1408.98 150.579 1412.54 Q148.774 1416.08 148.774 1423.21 Q148.774 1430.32 150.579 1433.89 Q152.408 1437.43 156.019 1437.43 Q159.653 1437.43 161.459 1433.89 Q163.288 1430.32 163.288 1423.21 Q163.288 1416.08 161.459 1412.54 Q159.653 1408.98 156.019 1408.98 M156.019 1405.27 Q161.829 1405.27 164.885 1409.88 Q167.964 1414.46 167.964 1423.21 Q167.964 1431.94 164.885 1436.55 Q161.829 1441.13 156.019 1441.13 Q150.209 1441.13 147.13 1436.55 Q144.075 1431.94 144.075 1423.21 Q144.075 1414.46 147.13 1409.88 Q150.209 1405.27 156.019 1405.27 Z" fill="#000000" fill-rule="evenodd" fill-opacity="1" /><path clip-path="url(#clip370)" d="M116.668 1054.32 L124.306 1054.32 L124.306 1027.95 L115.996 1029.62 L115.996 1025.36 L124.26 1023.7 L128.936 1023.7 L128.936 1054.32 L136.575 1054.32 L136.575 1058.26 L116.668 1058.26 L116.668 1054.32 Z" fill="#000000" fill-rule="evenodd" fill-opacity="1" /><path clip-path="url(#clip370)" d="M156.019 1026.77 Q152.408 1026.77 150.579 1030.34 Q148.774 1033.88 148.774 1041.01 Q148.774 1048.12 150.579 1051.68 Q152.408 1055.22 156.019 1055.22 Q159.653 1055.22 161.459 1051.68 Q163.288 1048.12 163.288 1041.01 Q163.288 1033.88 161.459 1030.34 Q159.653 1026.77 156.019 1026.77 M156.019 1023.07 Q161.829 1023.07 164.885 1027.68 Q167.964 1032.26 167.964 1041.01 Q167.964 1049.74 164.885 1054.34 Q161.829 1058.93 156.019 1058.93 Q150.209 1058.93 147.13 1054.34 Q144.075 1049.74 144.075 1041.01 Q144.075 1032.26 147.13 1027.68 Q150.209 1023.07 156.019 1023.07 Z" fill="#000000" fill-rule="evenodd" fill-opacity="1" /><path clip-path="url(#clip370)" d="M119.885 672.116 L136.204 672.116 L136.204 676.051 L114.26 676.051 L114.26 672.116 Q116.922 669.361 121.505 664.732 Q126.112 660.079 127.292 658.736 Q129.538 656.213 130.417 654.477 Q131.32 652.718 131.32 651.028 Q131.32 648.273 129.376 646.537 Q127.455 644.801 124.353 644.801 Q122.154 644.801 119.7 645.565 Q117.269 646.329 114.492 647.88 L114.492 643.158 Q117.316 642.023 119.769 641.445 Q122.223 640.866 124.26 640.866 Q129.63 640.866 132.825 643.551 Q136.019 646.236 136.019 650.727 Q136.019 652.857 135.209 654.778 Q134.422 656.676 132.316 659.269 Q131.737 659.94 128.635 663.158 Q125.533 666.352 119.885 672.116 Z" fill="#000000" fill-rule="evenodd" fill-opacity="1" /><path clip-path="url(#clip370)" d="M156.019 644.57 Q152.408 644.57 150.579 648.135 Q148.774 651.676 148.774 658.806 Q148.774 665.912 150.579 669.477 Q152.408 673.019 156.019 673.019 Q159.653 673.019 161.459 669.477 Q163.288 665.912 163.288 658.806 Q163.288 651.676 161.459 648.135 Q159.653 644.57 156.019 644.57 M156.019 640.866 Q161.829 640.866 164.885 645.473 Q167.964 650.056 167.964 658.806 Q167.964 667.533 164.885 672.139 Q161.829 676.722 156.019 676.722 Q150.209 676.722 147.13 672.139 Q144.075 667.533 144.075 658.806 Q144.075 650.056 147.13 645.473 Q150.209 640.866 156.019 640.866 Z" fill="#000000" fill-rule="evenodd" fill-opacity="1" /><path clip-path="url(#clip370)" d="M130.024 275.213 Q133.38 275.93 135.255 278.199 Q137.154 280.467 137.154 283.8 Q137.154 288.916 133.635 291.717 Q130.117 294.518 123.635 294.518 Q121.459 294.518 119.144 294.078 Q116.853 293.662 114.399 292.805 L114.399 288.291 Q116.343 289.425 118.658 290.004 Q120.973 290.583 123.496 290.583 Q127.894 290.583 130.186 288.847 Q132.501 287.111 132.501 283.8 Q132.501 280.745 130.348 279.032 Q128.218 277.296 124.399 277.296 L120.371 277.296 L120.371 273.453 L124.584 273.453 Q128.033 273.453 129.862 272.088 Q131.691 270.699 131.691 268.106 Q131.691 265.444 129.792 264.032 Q127.917 262.597 124.399 262.597 Q122.478 262.597 120.279 263.014 Q118.08 263.43 115.441 264.31 L115.441 260.143 Q118.103 259.402 120.418 259.032 Q122.755 258.662 124.816 258.662 Q130.14 258.662 133.242 261.092 Q136.343 263.5 136.343 267.62 Q136.343 270.49 134.7 272.481 Q133.056 274.449 130.024 275.213 Z" fill="#000000" fill-rule="evenodd" fill-opacity="1" /><path clip-path="url(#clip370)" d="M156.019 262.365 Q152.408 262.365 150.579 265.93 Q148.774 269.472 148.774 276.601 Q148.774 283.708 150.579 287.273 Q152.408 290.814 156.019 290.814 Q159.653 290.814 161.459 287.273 Q163.288 283.708 163.288 276.601 Q163.288 269.472 161.459 265.93 Q159.653 262.365 156.019 262.365 M156.019 258.662 Q161.829 258.662 164.885 263.268 Q167.964 267.851 167.964 276.601 Q167.964 285.328 164.885 289.935 Q161.829 294.518 156.019 294.518 Q150.209 294.518 147.13 289.935 Q144.075 285.328 144.075 276.601 Q144.075 267.851 147.13 263.268 Q150.209 258.662 156.019 258.662 Z" fill="#000000" fill-rule="evenodd" fill-opacity="1" /><path clip-path="url(#clip370)" d="M16.4842 1250.95 L16.4842 1244.52 L35.9632 1244.52 L35.9632 1221.15 L16.4842 1221.15 L16.4842 1214.72 L64.0042 1214.72 L64.0042 1221.15 L41.3741 1221.15 L41.3741 1244.52 L64.0042 1244.52 L64.0042 1250.95 L16.4842 1250.95 Z" fill="#000000" fill-rule="evenodd" fill-opacity="1" /><path clip-path="url(#clip370)" d="M28.3562 1202.18 L28.3562 1196.33 L64.0042 1196.33 L64.0042 1202.18 L28.3562 1202.18 M14.479 1202.18 L14.479 1196.33 L21.895 1196.33 L21.895 1202.18 L14.479 1202.18 Z" fill="#000000" fill-rule="evenodd" fill-opacity="1" /><path clip-path="url(#clip370)" d="M45.7664 1160.62 Q39.4007 1160.62 35.8996 1163.26 Q32.3984 1165.87 32.3984 1170.61 Q32.3984 1175.32 35.8996 1177.96 Q39.4007 1180.57 45.7664 1180.57 Q52.1003 1180.57 55.6014 1177.96 Q59.1026 1175.32 59.1026 1170.61 Q59.1026 1165.87 55.6014 1163.26 Q52.1003 1160.62 45.7664 1160.62 M59.58 1154.76 Q68.683 1154.76 73.1071 1158.8 Q77.5631 1162.84 77.5631 1171.18 Q77.5631 1174.27 77.0857 1177.01 Q76.6401 1179.75 75.6852 1182.32 L69.9879 1182.32 Q71.3884 1179.75 72.0568 1177.23 Q72.7252 1174.72 72.7252 1172.11 Q72.7252 1166.35 69.7015 1163.48 Q66.7096 1160.62 60.6303 1160.62 L57.7339 1160.62 Q60.885 1162.43 62.4446 1165.26 Q64.0042 1168.1 64.0042 1172.04 Q64.0042 1178.6 59.0071 1182.61 Q54.01 1186.62 45.7664 1186.62 Q37.491 1186.62 32.4939 1182.61 Q27.4968 1178.6 27.4968 1172.04 Q27.4968 1168.1 29.0564 1165.26 Q30.616 1162.43 33.7671 1160.62 L28.3562 1160.62 L28.3562 1154.76 L59.58 1154.76 Z" fill="#000000" fill-rule="evenodd" fill-opacity="1" /><path clip-path="url(#clip370)" d="M42.4881 1113.06 L64.0042 1113.06 L64.0042 1118.92 L42.679 1118.92 Q37.6183 1118.92 35.1038 1120.89 Q32.5894 1122.87 32.5894 1126.81 Q32.5894 1131.56 35.6131 1134.29 Q38.6368 1137.03 43.8567 1137.03 L64.0042 1137.03 L64.0042 1142.92 L14.479 1142.92 L14.479 1137.03 L33.8944 1137.03 Q30.6797 1134.93 29.0883 1132.1 Q27.4968 1129.23 27.4968 1125.51 Q27.4968 1119.37 31.3163 1116.22 Q35.1038 1113.06 42.4881 1113.06 Z" fill="#000000" fill-rule="evenodd" fill-opacity="1" /><path clip-path="url(#clip370)" d="M44.7161 1070.89 L47.5806 1070.89 L47.5806 1097.82 Q53.6281 1097.44 56.8109 1094.19 Q59.9619 1090.91 59.9619 1085.09 Q59.9619 1081.71 59.1344 1078.56 Q58.3069 1075.38 56.6518 1072.26 L62.1899 1072.26 Q63.5267 1075.41 64.227 1078.72 Q64.9272 1082.03 64.9272 1085.44 Q64.9272 1093.97 59.9619 1098.96 Q54.9967 1103.93 46.5303 1103.93 Q37.7774 1103.93 32.6531 1099.22 Q27.4968 1094.48 27.4968 1086.46 Q27.4968 1079.26 32.1438 1075.09 Q36.7589 1070.89 44.7161 1070.89 M42.9973 1076.75 Q38.1912 1076.81 35.3266 1079.45 Q32.4621 1082.06 32.4621 1086.39 Q32.4621 1091.29 35.2312 1094.25 Q38.0002 1097.18 43.0292 1097.63 L42.9973 1076.75 Z" fill="#000000" fill-rule="evenodd" fill-opacity="1" /><path clip-path="url(#clip370)" d="M33.8307 1040.62 Q33.2578 1041.61 33.0032 1042.79 Q32.7167 1043.93 32.7167 1045.33 Q32.7167 1050.3 35.9632 1052.97 Q39.1779 1055.61 45.2253 1055.61 L64.0042 1055.61 L64.0042 1061.5 L28.3562 1061.5 L28.3562 1055.61 L33.8944 1055.61 Q30.6479 1053.77 29.0883 1050.81 Q27.4968 1047.85 27.4968 1043.61 Q27.4968 1043.01 27.5923 1042.28 Q27.656 1041.55 27.8151 1040.65 L33.8307 1040.62 Z" fill="#000000" fill-rule="evenodd" fill-opacity="1" /><path clip-path="url(#clip370)" d="M16.4842 1013.5 L16.4842 1007.08 L35.9632 1007.08 L35.9632 983.713 L16.4842 983.713 L16.4842 977.284 L64.0042 977.284 L64.0042 983.713 L41.3741 983.713 L41.3741 1007.08 L64.0042 1007.08 L64.0042 1013.5 L16.4842 1013.5 Z" fill="#000000" fill-rule="evenodd" fill-opacity="1" /><path clip-path="url(#clip370)" d="M44.7161 934.252 L47.5806 934.252 L47.5806 961.179 Q53.6281 960.797 56.8109 957.55 Q59.9619 954.272 59.9619 948.447 Q59.9619 945.073 59.1344 941.922 Q58.3069 938.74 56.6518 935.62 L62.1899 935.62 Q63.5267 938.771 64.227 942.082 Q64.9272 945.392 64.9272 948.797 Q64.9272 957.327 59.9619 962.324 Q54.9967 967.29 46.5303 967.29 Q37.7774 967.29 32.6531 962.579 Q27.4968 957.837 27.4968 949.816 Q27.4968 942.623 32.1438 938.453 Q36.7589 934.252 44.7161 934.252 M42.9973 940.108 Q38.1912 940.172 35.3266 942.814 Q32.4621 945.424 32.4621 949.752 Q32.4621 954.654 35.2312 957.614 Q38.0002 960.542 43.0292 960.988 L42.9973 940.108 Z" fill="#000000" fill-rule="evenodd" fill-opacity="1" /><path clip-path="url(#clip370)" d="M46.0847 908.439 Q46.0847 915.537 47.7079 918.274 Q49.3312 921.011 53.2461 921.011 Q56.3653 921.011 58.2114 918.974 Q60.0256 916.905 60.0256 913.372 Q60.0256 908.502 56.5881 905.574 Q53.1188 902.614 47.3897 902.614 L46.0847 902.614 L46.0847 908.439 M43.6657 896.758 L64.0042 896.758 L64.0042 902.614 L58.5933 902.614 Q61.8398 904.619 63.3994 907.611 Q64.9272 910.603 64.9272 914.932 Q64.9272 920.406 61.8716 923.653 Q58.7843 926.867 53.6281 926.867 Q47.6125 926.867 44.5569 922.857 Q41.5014 918.815 41.5014 910.826 L41.5014 902.614 L40.9285 902.614 Q36.8862 902.614 34.6901 905.288 Q32.4621 907.93 32.4621 912.736 Q32.4621 915.791 33.1941 918.688 Q33.9262 921.584 35.3903 924.258 L29.9795 924.258 Q28.7381 921.043 28.1334 918.019 Q27.4968 914.995 27.4968 912.131 Q27.4968 904.397 31.5072 900.577 Q35.5176 896.758 43.6657 896.758 Z" fill="#000000" fill-rule="evenodd" fill-opacity="1" /><path clip-path="url(#clip370)" d="M18.2347 878.902 L28.3562 878.902 L28.3562 866.839 L32.9077 866.839 L32.9077 878.902 L52.2594 878.902 Q56.6199 878.902 57.8613 877.724 Q59.1026 876.515 59.1026 872.854 L59.1026 866.839 L64.0042 866.839 L64.0042 872.854 Q64.0042 879.634 61.4897 882.212 Q58.9434 884.79 52.2594 884.79 L32.9077 884.79 L32.9077 889.087 L28.3562 889.087 L28.3562 884.79 L18.2347 884.79 L18.2347 878.902 Z" fill="#000000" fill-rule="evenodd" fill-opacity="1" /><path clip-path="url(#clip370)" d="M28.3562 859.136 L28.3562 853.28 L64.0042 853.28 L64.0042 859.136 L28.3562 859.136 M14.479 859.136 L14.479 853.28 L21.895 853.28 L21.895 859.136 L14.479 859.136 Z" fill="#000000" fill-rule="evenodd" fill-opacity="1" /><path clip-path="url(#clip370)" d="M42.4881 811.394 L64.0042 811.394 L64.0042 817.25 L42.679 817.25 Q37.6183 817.25 35.1038 819.223 Q32.5894 821.197 32.5894 825.143 Q32.5894 829.886 35.6131 832.623 Q38.6368 835.36 43.8567 835.36 L64.0042 835.36 L64.0042 841.249 L28.3562 841.249 L28.3562 835.36 L33.8944 835.36 Q30.6797 833.26 29.0883 830.427 Q27.4968 827.562 27.4968 823.839 Q27.4968 817.696 31.3163 814.545 Q35.1038 811.394 42.4881 811.394 Z" fill="#000000" fill-rule="evenodd" fill-opacity="1" /><path clip-path="url(#clip370)" d="M45.7664 776.255 Q39.4007 776.255 35.8996 778.897 Q32.3984 781.507 32.3984 786.249 Q32.3984 790.96 35.8996 793.601 Q39.4007 796.211 45.7664 796.211 Q52.1003 796.211 55.6014 793.601 Q59.1026 790.96 59.1026 786.249 Q59.1026 781.507 55.6014 778.897 Q52.1003 776.255 45.7664 776.255 M59.58 770.398 Q68.683 770.398 73.1071 774.441 Q77.5631 778.483 77.5631 786.822 Q77.5631 789.909 77.0857 792.647 Q76.6401 795.384 75.6852 797.962 L69.9879 797.962 Q71.3884 795.384 72.0568 792.869 Q72.7252 790.355 72.7252 787.745 Q72.7252 781.984 69.7015 779.119 Q66.7096 776.255 60.6303 776.255 L57.7339 776.255 Q60.885 778.069 62.4446 780.902 Q64.0042 783.735 64.0042 787.681 Q64.0042 794.238 59.0071 798.248 Q54.01 802.259 45.7664 802.259 Q37.491 802.259 32.4939 798.248 Q27.4968 794.238 27.4968 787.681 Q27.4968 783.735 29.0564 780.902 Q30.616 778.069 33.7671 776.255 L28.3562 776.255 L28.3562 770.398 L59.58 770.398 Z" fill="#000000" fill-rule="evenodd" fill-opacity="1" /><path clip-path="url(#clip370)" d="M64.0042 725.106 L16.4842 743.249 L16.4842 736.533 L56.4926 721.478 L16.4842 706.391 L16.4842 699.707 L64.0042 717.818 L64.0042 725.106 Z" fill="#000000" fill-rule="evenodd" fill-opacity="1" /><path clip-path="url(#clip370)" d="M46.0847 681.883 Q46.0847 688.981 47.7079 691.718 Q49.3312 694.456 53.2461 694.456 Q56.3653 694.456 58.2114 692.419 Q60.0256 690.35 60.0256 686.817 Q60.0256 681.947 56.5881 679.019 Q53.1188 676.059 47.3897 676.059 L46.0847 676.059 L46.0847 681.883 M43.6657 670.202 L64.0042 670.202 L64.0042 676.059 L58.5933 676.059 Q61.8398 678.064 63.3994 681.056 Q64.9272 684.048 64.9272 688.376 Q64.9272 693.851 61.8716 697.097 Q58.7843 700.312 53.6281 700.312 Q47.6125 700.312 44.5569 696.302 Q41.5014 692.259 41.5014 684.27 L41.5014 676.059 L40.9285 676.059 Q36.8862 676.059 34.6901 678.732 Q32.4621 681.374 32.4621 686.18 Q32.4621 689.236 33.1941 692.132 Q33.9262 695.028 35.3903 697.702 L29.9795 697.702 Q28.7381 694.487 28.1334 691.464 Q27.4968 688.44 27.4968 685.575 Q27.4968 677.841 31.5072 674.022 Q35.5176 670.202 43.6657 670.202 Z" fill="#000000" fill-rule="evenodd" fill-opacity="1" /><path clip-path="url(#clip370)" d="M14.479 658.139 L14.479 652.283 L64.0042 652.283 L64.0042 658.139 L14.479 658.139 Z" fill="#000000" fill-rule="evenodd" fill-opacity="1" /><path clip-path="url(#clip370)" d="M49.9359 640.633 L28.3562 640.633 L28.3562 634.777 L49.7131 634.777 Q54.7739 634.777 57.3202 632.804 Q59.8346 630.83 59.8346 626.884 Q59.8346 622.141 56.8109 619.404 Q53.7872 616.635 48.5673 616.635 L28.3562 616.635 L28.3562 610.778 L64.0042 610.778 L64.0042 616.635 L58.5296 616.635 Q61.7762 618.767 63.3676 621.6 Q64.9272 624.401 64.9272 628.125 Q64.9272 634.268 61.1078 637.451 Q57.2883 640.633 49.9359 640.633 M27.4968 625.897 L27.4968 625.897 Z" fill="#000000" fill-rule="evenodd" fill-opacity="1" /><path clip-path="url(#clip370)" d="M44.7161 568.224 L47.5806 568.224 L47.5806 595.151 Q53.6281 594.769 56.8109 591.522 Q59.9619 588.244 59.9619 582.419 Q59.9619 579.045 59.1344 575.894 Q58.3069 572.711 56.6518 569.592 L62.1899 569.592 Q63.5267 572.743 64.227 576.053 Q64.9272 579.364 64.9272 582.769 Q64.9272 591.299 59.9619 596.296 Q54.9967 601.262 46.5303 601.262 Q37.7774 601.262 32.6531 596.551 Q27.4968 591.809 27.4968 583.788 Q27.4968 576.594 32.1438 572.425 Q36.7589 568.224 44.7161 568.224 M42.9973 574.08 Q38.1912 574.144 35.3266 576.785 Q32.4621 579.395 32.4621 583.724 Q32.4621 588.626 35.2312 591.586 Q38.0002 594.514 43.0292 594.96 L42.9973 574.08 Z" fill="#000000" fill-rule="evenodd" fill-opacity="1" /><path clip-path="url(#clip370)" d="M14.5426 523.823 Q21.8632 528.088 29.0246 530.157 Q36.186 532.225 43.5384 532.225 Q50.8908 532.225 58.1159 530.157 Q65.3091 528.056 72.5979 523.823 L72.5979 528.915 Q65.1182 533.69 57.8931 536.077 Q50.668 538.432 43.5384 538.432 Q36.4406 538.432 29.2474 536.077 Q22.0542 533.721 14.5426 528.915 L14.5426 523.823 Z" fill="#000000" fill-rule="evenodd" fill-opacity="1" /><path clip-path="url(#clip370)" d="M16.4842 512.205 L16.4842 502.625 L48.8219 490.498 L16.4842 478.308 L16.4842 468.728 L64.0042 468.728 L64.0042 474.998 L22.277 474.998 L54.8694 487.252 L54.8694 493.713 L22.277 505.967 L64.0042 505.967 L64.0042 512.205 L16.4842 512.205 Z" fill="#000000" fill-rule="evenodd" fill-opacity="1" /><path clip-path="url(#clip370)" d="M16.4842 455.964 L16.4842 449.535 L60.694 449.535 Q69.2877 449.535 73.1708 452.813 Q77.0539 456.06 77.0539 463.285 L77.0539 465.736 L71.643 465.736 L71.643 463.73 Q71.643 459.465 69.2559 457.715 Q66.8687 455.964 60.694 455.964 L16.4842 455.964 Z" fill="#000000" fill-rule="evenodd" fill-opacity="1" /><path clip-path="url(#clip370)" d="M35.1993 388.52 Q31.2526 386.324 29.3747 383.268 Q27.4968 380.212 27.4968 376.075 Q27.4968 370.505 31.4117 367.481 Q35.2948 364.457 42.4881 364.457 L64.0042 364.457 L64.0042 370.346 L42.679 370.346 Q37.5546 370.346 35.072 372.16 Q32.5894 373.974 32.5894 377.698 Q32.5894 382.249 35.6131 384.891 Q38.6368 387.533 43.8567 387.533 L64.0042 387.533 L64.0042 393.421 L42.679 393.421 Q37.5228 393.421 35.072 395.235 Q32.5894 397.05 32.5894 400.837 Q32.5894 405.325 35.6449 407.967 Q38.6686 410.609 43.8567 410.609 L64.0042 410.609 L64.0042 416.497 L28.3562 416.497 L28.3562 410.609 L33.8944 410.609 Q30.616 408.603 29.0564 405.803 Q27.4968 403.002 27.4968 399.15 Q27.4968 395.267 29.4702 392.562 Q31.4436 389.825 35.1993 388.52 Z" fill="#000000" fill-rule="evenodd" fill-opacity="1" /><path clip-path="url(#clip370)" d="M16.4842 328.491 L34.2127 311.208 L34.2127 317.606 L21.6404 331.61 L34.2127 345.615 L34.2127 352.012 L16.4842 334.729 L16.4842 328.491 Z" fill="#000000" fill-rule="evenodd" fill-opacity="1" /><path clip-path="url(#clip370)" d="M43.5384 301.119 L43.5384 283.963 L48.7583 283.963 L48.7583 301.119 L43.5384 301.119 Z" fill="#000000" fill-rule="evenodd" fill-opacity="1" /><path clip-path="url(#clip370)" d="M38.3822 254.331 Q39.3689 249.715 42.4881 247.137 Q45.6073 244.527 50.1906 244.527 Q57.2247 244.527 61.0759 249.365 Q64.9272 254.203 64.9272 263.115 Q64.9272 266.107 64.3224 269.29 Q63.7495 272.441 62.5719 275.815 L56.3653 275.815 Q57.9249 273.141 58.7206 269.958 Q59.5163 266.776 59.5163 263.306 Q59.5163 257.259 57.1292 254.108 Q54.7421 250.925 50.1906 250.925 Q45.9892 250.925 43.6339 253.885 Q41.2468 256.813 41.2468 262.065 L41.2468 267.603 L35.9632 267.603 L35.9632 261.81 Q35.9632 257.068 34.0853 254.553 Q32.1756 252.039 28.6108 252.039 Q24.9505 252.039 23.009 254.649 Q21.0356 257.227 21.0356 262.065 Q21.0356 264.707 21.6086 267.73 Q22.1815 270.754 23.3909 274.383 L17.6618 274.383 Q16.6433 270.722 16.134 267.539 Q15.6248 264.325 15.6248 261.492 Q15.6248 254.171 18.9668 249.906 Q22.277 245.641 27.9424 245.641 Q31.8892 245.641 34.6264 247.901 Q37.3318 250.161 38.3822 254.331 Z" fill="#000000" fill-rule="evenodd" fill-opacity="1" /><path clip-path="url(#clip370)" d="M14.5426 234.088 L14.5426 228.995 Q22.0542 224.221 29.2474 221.865 Q36.4406 219.478 43.5384 219.478 Q50.668 219.478 57.8931 221.865 Q65.1182 224.221 72.5979 228.995 L72.5979 234.088 Q65.3091 229.854 58.1159 227.786 Q50.8908 225.685 43.5384 225.685 Q36.186 225.685 29.0246 227.786 Q21.8632 229.854 14.5426 234.088 Z" fill="#000000" fill-rule="evenodd" fill-opacity="1" /><polyline clip-path="url(#clip372)" style="stroke:#023eff; stroke-linecap:round; stroke-linejoin:round; stroke-width:4; stroke-opacity:1; fill:none" points="
  264.778,70.3292 2291.94,960.369 
  "/>
</svg>
