<?xml version="1.0" encoding="utf-8"?>
<svg xmlns="http://www.w3.org/2000/svg" xmlns:xlink="http://www.w3.org/1999/xlink" width="600" height="400" viewBox="0 0 2400 1600">
<defs>
  <clipPath id="clip450">
    <rect x="0" y="0" width="2400" height="1600"/>
  </clipPath>
</defs>
<path clip-path="url(#clip450)" d="
M0 1600 L2400 1600 L2400 0 L0 0  Z
  " fill="#ffffff" fill-rule="evenodd" fill-opacity="1"/>
<defs>
  <clipPath id="clip451">
    <rect x="480" y="0" width="1681" height="1600"/>
  </clipPath>
</defs>
<path clip-path="url(#clip450)" d="
M249.542 1423.18 L2352.76 1423.18 L2352.76 47.2441 L249.542 47.2441  Z
  " fill="#ffffff" fill-rule="evenodd" fill-opacity="1"/>
<defs>
  <clipPath id="clip452">
    <rect x="249" y="47" width="2104" height="1377"/>
  </clipPath>
</defs>
<polyline clip-path="url(#clip452)" style="stroke:#000000; stroke-linecap:round; stroke-linejoin:round; stroke-width:2; stroke-opacity:0.1; fill:none" points="
  309.067,1423.18 309.067,47.2441 
  "/>
<polyline clip-path="url(#clip452)" style="stroke:#000000; stroke-linecap:round; stroke-linejoin:round; stroke-width:2; stroke-opacity:0.1; fill:none" points="
  805.108,1423.18 805.108,47.2441 
  "/>
<polyline clip-path="url(#clip452)" style="stroke:#000000; stroke-linecap:round; stroke-linejoin:round; stroke-width:2; stroke-opacity:0.1; fill:none" points="
  1301.15,1423.18 1301.15,47.2441 
  "/>
<polyline clip-path="url(#clip452)" style="stroke:#000000; stroke-linecap:round; stroke-linejoin:round; stroke-width:2; stroke-opacity:0.1; fill:none" points="
  1797.19,1423.18 1797.19,47.2441 
  "/>
<polyline clip-path="url(#clip452)" style="stroke:#000000; stroke-linecap:round; stroke-linejoin:round; stroke-width:2; stroke-opacity:0.1; fill:none" points="
  2293.23,1423.18 2293.23,47.2441 
  "/>
<polyline clip-path="url(#clip450)" style="stroke:#000000; stroke-linecap:round; stroke-linejoin:round; stroke-width:4; stroke-opacity:1; fill:none" points="
  249.542,1423.18 2352.76,1423.18 
  "/>
<polyline clip-path="url(#clip450)" style="stroke:#000000; stroke-linecap:round; stroke-linejoin:round; stroke-width:4; stroke-opacity:1; fill:none" points="
  309.067,1423.18 309.067,1404.28 
  "/>
<polyline clip-path="url(#clip450)" style="stroke:#000000; stroke-linecap:round; stroke-linejoin:round; stroke-width:4; stroke-opacity:1; fill:none" points="
  805.108,1423.18 805.108,1404.28 
  "/>
<polyline clip-path="url(#clip450)" style="stroke:#000000; stroke-linecap:round; stroke-linejoin:round; stroke-width:4; stroke-opacity:1; fill:none" points="
  1301.15,1423.18 1301.15,1404.28 
  "/>
<polyline clip-path="url(#clip450)" style="stroke:#000000; stroke-linecap:round; stroke-linejoin:round; stroke-width:4; stroke-opacity:1; fill:none" points="
  1797.19,1423.18 1797.19,1404.28 
  "/>
<polyline clip-path="url(#clip450)" style="stroke:#000000; stroke-linecap:round; stroke-linejoin:round; stroke-width:4; stroke-opacity:1; fill:none" points="
  2293.23,1423.18 2293.23,1404.28 
  "/>
<path clip-path="url(#clip450)" d="M309.067 1454.1 Q305.456 1454.1 303.627 1457.66 Q301.822 1461.2 301.822 1468.33 Q301.822 1475.44 303.627 1479.01 Q305.456 1482.55 309.067 1482.55 Q312.701 1482.55 314.507 1479.01 Q316.335 1475.44 316.335 1468.33 Q316.335 1461.2 314.507 1457.66 Q312.701 1454.1 309.067 1454.1 M309.067 1450.39 Q314.877 1450.39 317.933 1455 Q321.011 1459.58 321.011 1468.33 Q321.011 1477.06 317.933 1481.67 Q314.877 1486.25 309.067 1486.25 Q303.257 1486.25 300.178 1481.67 Q297.123 1477.06 297.123 1468.33 Q297.123 1459.58 300.178 1455 Q303.257 1450.39 309.067 1450.39 Z" fill="#000000" fill-rule="evenodd" fill-opacity="1" /><path clip-path="url(#clip450)" d="M784.379 1481.64 L800.698 1481.64 L800.698 1485.58 L778.754 1485.58 L778.754 1481.64 Q781.416 1478.89 785.999 1474.26 Q790.606 1469.61 791.786 1468.27 Q794.032 1465.74 794.911 1464.01 Q795.814 1462.25 795.814 1460.56 Q795.814 1457.8 793.87 1456.07 Q791.948 1454.33 788.846 1454.33 Q786.647 1454.33 784.194 1455.09 Q781.763 1455.86 778.985 1457.41 L778.985 1452.69 Q781.809 1451.55 784.263 1450.97 Q786.717 1450.39 788.754 1450.39 Q794.124 1450.39 797.319 1453.08 Q800.513 1455.77 800.513 1460.26 Q800.513 1462.39 799.703 1464.31 Q798.916 1466.2 796.809 1468.8 Q796.231 1469.47 793.129 1472.69 Q790.027 1475.88 784.379 1481.64 Z" fill="#000000" fill-rule="evenodd" fill-opacity="1" /><path clip-path="url(#clip450)" d="M810.559 1451.02 L828.916 1451.02 L828.916 1454.96 L814.842 1454.96 L814.842 1463.43 Q815.86 1463.08 816.879 1462.92 Q817.897 1462.73 818.916 1462.73 Q824.703 1462.73 828.082 1465.9 Q831.462 1469.08 831.462 1474.49 Q831.462 1480.07 827.99 1483.17 Q824.518 1486.25 818.198 1486.25 Q816.022 1486.25 813.754 1485.88 Q811.508 1485.51 809.101 1484.77 L809.101 1480.07 Q811.184 1481.2 813.407 1481.76 Q815.629 1482.32 818.106 1482.32 Q822.11 1482.32 824.448 1480.21 Q826.786 1478.1 826.786 1474.49 Q826.786 1470.88 824.448 1468.77 Q822.11 1466.67 818.106 1466.67 Q816.231 1466.67 814.356 1467.08 Q812.504 1467.5 810.559 1468.38 L810.559 1451.02 Z" fill="#000000" fill-rule="evenodd" fill-opacity="1" /><path clip-path="url(#clip450)" d="M1275.85 1451.02 L1294.2 1451.02 L1294.2 1454.96 L1280.13 1454.96 L1280.13 1463.43 Q1281.15 1463.08 1282.17 1462.92 Q1283.19 1462.73 1284.2 1462.73 Q1289.99 1462.73 1293.37 1465.9 Q1296.75 1469.08 1296.75 1474.49 Q1296.75 1480.07 1293.28 1483.17 Q1289.81 1486.25 1283.49 1486.25 Q1281.31 1486.25 1279.04 1485.88 Q1276.8 1485.51 1274.39 1484.77 L1274.39 1480.07 Q1276.47 1481.2 1278.7 1481.76 Q1280.92 1482.32 1283.39 1482.32 Q1287.4 1482.32 1289.74 1480.21 Q1292.07 1478.1 1292.07 1474.49 Q1292.07 1470.88 1289.74 1468.77 Q1287.4 1466.67 1283.39 1466.67 Q1281.52 1466.67 1279.64 1467.08 Q1277.79 1467.5 1275.85 1468.38 L1275.85 1451.02 Z" fill="#000000" fill-rule="evenodd" fill-opacity="1" /><path clip-path="url(#clip450)" d="M1315.96 1454.1 Q1312.35 1454.1 1310.52 1457.66 Q1308.72 1461.2 1308.72 1468.33 Q1308.72 1475.44 1310.52 1479.01 Q1312.35 1482.55 1315.96 1482.55 Q1319.6 1482.55 1321.4 1479.01 Q1323.23 1475.44 1323.23 1468.33 Q1323.23 1461.2 1321.4 1457.66 Q1319.6 1454.1 1315.96 1454.1 M1315.96 1450.39 Q1321.77 1450.39 1324.83 1455 Q1327.91 1459.58 1327.91 1468.33 Q1327.91 1477.06 1324.83 1481.67 Q1321.77 1486.25 1315.96 1486.25 Q1310.15 1486.25 1307.07 1481.67 Q1304.02 1477.06 1304.02 1468.33 Q1304.02 1459.58 1307.07 1455 Q1310.15 1450.39 1315.96 1450.39 Z" fill="#000000" fill-rule="evenodd" fill-opacity="1" /><path clip-path="url(#clip450)" d="M1771.04 1451.02 L1793.27 1451.02 L1793.27 1453.01 L1780.72 1485.58 L1775.84 1485.58 L1787.64 1454.96 L1771.04 1454.96 L1771.04 1451.02 Z" fill="#000000" fill-rule="evenodd" fill-opacity="1" /><path clip-path="url(#clip450)" d="M1802.43 1451.02 L1820.79 1451.02 L1820.79 1454.96 L1806.72 1454.96 L1806.72 1463.43 Q1807.73 1463.08 1808.75 1462.92 Q1809.77 1462.73 1810.79 1462.73 Q1816.58 1462.73 1819.96 1465.9 Q1823.34 1469.08 1823.34 1474.49 Q1823.34 1480.07 1819.86 1483.17 Q1816.39 1486.25 1810.07 1486.25 Q1807.9 1486.25 1805.63 1485.88 Q1803.38 1485.51 1800.97 1484.77 L1800.97 1480.07 Q1803.06 1481.2 1805.28 1481.76 Q1807.5 1482.32 1809.98 1482.32 Q1813.98 1482.32 1816.32 1480.21 Q1818.66 1478.1 1818.66 1474.49 Q1818.66 1470.88 1816.32 1468.77 Q1813.98 1466.67 1809.98 1466.67 Q1808.1 1466.67 1806.23 1467.08 Q1804.38 1467.5 1802.43 1468.38 L1802.43 1451.02 Z" fill="#000000" fill-rule="evenodd" fill-opacity="1" /><path clip-path="url(#clip450)" d="M2252.84 1481.64 L2260.48 1481.64 L2260.48 1455.28 L2252.17 1456.95 L2252.17 1452.69 L2260.43 1451.02 L2265.11 1451.02 L2265.11 1481.64 L2272.74 1481.64 L2272.74 1485.58 L2252.84 1485.58 L2252.84 1481.64 Z" fill="#000000" fill-rule="evenodd" fill-opacity="1" /><path clip-path="url(#clip450)" d="M2292.19 1454.1 Q2288.58 1454.1 2286.75 1457.66 Q2284.94 1461.2 2284.94 1468.33 Q2284.94 1475.44 2286.75 1479.01 Q2288.58 1482.55 2292.19 1482.55 Q2295.82 1482.55 2297.63 1479.01 Q2299.46 1475.44 2299.46 1468.33 Q2299.46 1461.2 2297.63 1457.66 Q2295.82 1454.1 2292.19 1454.1 M2292.19 1450.39 Q2298 1450.39 2301.06 1455 Q2304.13 1459.58 2304.13 1468.33 Q2304.13 1477.06 2301.06 1481.67 Q2298 1486.25 2292.19 1486.25 Q2286.38 1486.25 2283.3 1481.67 Q2280.24 1477.06 2280.24 1468.33 Q2280.24 1459.58 2283.3 1455 Q2286.38 1450.39 2292.19 1450.39 Z" fill="#000000" fill-rule="evenodd" fill-opacity="1" /><path clip-path="url(#clip450)" d="M2322.35 1454.1 Q2318.74 1454.1 2316.91 1457.66 Q2315.11 1461.2 2315.11 1468.33 Q2315.11 1475.44 2316.91 1479.01 Q2318.74 1482.55 2322.35 1482.55 Q2325.99 1482.55 2327.79 1479.01 Q2329.62 1475.44 2329.62 1468.33 Q2329.62 1461.2 2327.79 1457.66 Q2325.99 1454.1 2322.35 1454.1 M2322.35 1450.39 Q2328.16 1450.39 2331.22 1455 Q2334.3 1459.58 2334.3 1468.33 Q2334.3 1477.06 2331.22 1481.67 Q2328.16 1486.25 2322.35 1486.25 Q2316.54 1486.25 2313.46 1481.67 Q2310.41 1477.06 2310.41 1468.33 Q2310.41 1459.58 2313.46 1455 Q2316.54 1450.39 2322.35 1450.39 Z" fill="#000000" fill-rule="evenodd" fill-opacity="1" /><path clip-path="url(#clip450)" d="M1006.37 1547.13 Q1003.6 1547.13 1002.01 1549.49 Q1000.45 1551.84 1000.45 1556.04 Q1000.45 1560.18 1002.01 1562.57 Q1003.6 1564.92 1006.37 1564.92 Q1009.07 1564.92 1010.63 1562.57 Q1012.23 1560.18 1012.23 1556.04 Q1012.23 1551.87 1010.63 1549.52 Q1009.07 1547.13 1006.37 1547.13 M1006.37 1543.09 Q1011.4 1543.09 1014.36 1546.59 Q1017.32 1550.09 1017.32 1556.04 Q1017.32 1562 1014.33 1565.5 Q1011.37 1568.97 1006.37 1568.97 Q1001.28 1568.97 998.316 1565.5 Q995.356 1562 995.356 1556.04 Q995.356 1550.06 998.316 1546.59 Q1001.31 1543.09 1006.37 1543.09 M973.522 1523.71 Q970.785 1523.71 969.193 1526.09 Q967.634 1528.45 967.634 1532.59 Q967.634 1536.79 969.193 1539.14 Q970.753 1541.5 973.522 1541.5 Q976.291 1541.5 977.851 1539.14 Q979.442 1536.79 979.442 1532.59 Q979.442 1528.48 977.851 1526.09 Q976.259 1523.71 973.522 1523.71 M1002.26 1519.66 L1007.36 1519.66 L977.628 1568.97 L972.535 1568.97 L1002.26 1519.66 M973.522 1519.66 Q978.551 1519.66 981.543 1523.17 Q984.535 1526.63 984.535 1532.59 Q984.535 1538.6 981.543 1542.07 Q978.583 1545.54 973.522 1545.54 Q968.461 1545.54 965.501 1542.07 Q962.573 1538.57 962.573 1532.59 Q962.573 1526.67 965.533 1523.17 Q968.493 1519.66 973.522 1519.66 Z" fill="#000000" fill-rule="evenodd" fill-opacity="1" /><path clip-path="url(#clip450)" d="M1048.03 1520.52 L1054.46 1520.52 L1054.46 1540 L1077.82 1540 L1077.82 1520.52 L1084.25 1520.52 L1084.25 1568.04 L1077.82 1568.04 L1077.82 1545.41 L1054.46 1545.41 L1054.46 1568.04 L1048.03 1568.04 L1048.03 1520.52 Z" fill="#000000" fill-rule="evenodd" fill-opacity="1" /><path clip-path="url(#clip450)" d="M1111.63 1571.35 Q1109.14 1577.72 1106.79 1579.66 Q1104.43 1581.6 1100.49 1581.6 L1095.81 1581.6 L1095.81 1576.7 L1099.24 1576.7 Q1101.66 1576.7 1103 1575.56 Q1104.34 1574.41 1105.96 1570.14 L1107.01 1567.47 L1092.59 1532.4 L1098.8 1532.4 L1109.94 1560.28 L1121.08 1532.4 L1127.29 1532.4 L1111.63 1571.35 Z" fill="#000000" fill-rule="evenodd" fill-opacity="1" /><path clip-path="url(#clip450)" d="M1158.83 1537.81 L1158.83 1518.52 L1164.68 1518.52 L1164.68 1568.04 L1158.83 1568.04 L1158.83 1562.7 Q1156.98 1565.88 1154.15 1567.44 Q1151.35 1568.97 1147.4 1568.97 Q1140.94 1568.97 1136.87 1563.81 Q1132.82 1558.65 1132.82 1550.25 Q1132.82 1541.85 1136.87 1536.69 Q1140.94 1531.54 1147.4 1531.54 Q1151.35 1531.54 1154.15 1533.1 Q1156.98 1534.62 1158.83 1537.81 M1138.87 1550.25 Q1138.87 1556.71 1141.51 1560.4 Q1144.19 1564.07 1148.83 1564.07 Q1153.48 1564.07 1156.15 1560.4 Q1158.83 1556.71 1158.83 1550.25 Q1158.83 1543.79 1156.15 1540.13 Q1153.48 1536.44 1148.83 1536.44 Q1144.19 1536.44 1141.51 1540.13 Q1138.87 1543.79 1138.87 1550.25 Z" fill="#000000" fill-rule="evenodd" fill-opacity="1" /><path clip-path="url(#clip450)" d="M1197.4 1537.87 Q1196.42 1537.3 1195.24 1537.04 Q1194.09 1536.76 1192.69 1536.76 Q1187.73 1536.76 1185.05 1540 Q1182.41 1543.22 1182.41 1549.27 L1182.41 1568.04 L1176.52 1568.04 L1176.52 1532.4 L1182.41 1532.4 L1182.41 1537.93 Q1184.26 1534.69 1187.22 1533.13 Q1190.18 1531.54 1194.41 1531.54 Q1195.02 1531.54 1195.75 1531.63 Q1196.48 1531.7 1197.37 1531.85 L1197.4 1537.87 Z" fill="#000000" fill-rule="evenodd" fill-opacity="1" /><path clip-path="url(#clip450)" d="M1215.93 1536.5 Q1211.22 1536.5 1208.48 1540.19 Q1205.74 1543.85 1205.74 1550.25 Q1205.74 1556.65 1208.45 1560.34 Q1211.19 1564 1215.93 1564 Q1220.61 1564 1223.34 1560.31 Q1226.08 1556.62 1226.08 1550.25 Q1226.08 1543.92 1223.34 1540.23 Q1220.61 1536.5 1215.93 1536.5 M1215.93 1531.54 Q1223.57 1531.54 1227.93 1536.5 Q1232.29 1541.47 1232.29 1550.25 Q1232.29 1559 1227.93 1564 Q1223.57 1568.97 1215.93 1568.97 Q1208.26 1568.97 1203.9 1564 Q1199.57 1559 1199.57 1550.25 Q1199.57 1541.47 1203.9 1536.5 Q1208.26 1531.54 1215.93 1531.54 Z" fill="#000000" fill-rule="evenodd" fill-opacity="1" /><path clip-path="url(#clip450)" d="M1265.45 1549.81 Q1265.45 1543.44 1262.81 1539.94 Q1260.2 1536.44 1255.46 1536.44 Q1250.75 1536.44 1248.11 1539.94 Q1245.5 1543.44 1245.5 1549.81 Q1245.5 1556.14 1248.11 1559.64 Q1250.75 1563.14 1255.46 1563.14 Q1260.2 1563.14 1262.81 1559.64 Q1265.45 1556.14 1265.45 1549.81 M1271.31 1563.62 Q1271.31 1572.72 1267.27 1577.15 Q1263.23 1581.6 1254.89 1581.6 Q1251.8 1581.6 1249.06 1581.13 Q1246.32 1580.68 1243.75 1579.72 L1243.75 1574.03 Q1246.32 1575.43 1248.84 1576.1 Q1251.35 1576.76 1253.96 1576.76 Q1259.72 1576.76 1262.59 1573.74 Q1265.45 1570.75 1265.45 1564.67 L1265.45 1561.77 Q1263.64 1564.92 1260.81 1566.48 Q1257.97 1568.04 1254.03 1568.04 Q1247.47 1568.04 1243.46 1563.05 Q1239.45 1558.05 1239.45 1549.81 Q1239.45 1541.53 1243.46 1536.53 Q1247.47 1531.54 1254.03 1531.54 Q1257.97 1531.54 1260.81 1533.1 Q1263.64 1534.66 1265.45 1537.81 L1265.45 1532.4 L1271.31 1532.4 L1271.31 1563.62 Z" fill="#000000" fill-rule="evenodd" fill-opacity="1" /><path clip-path="url(#clip450)" d="M1313.86 1548.76 L1313.86 1551.62 L1286.94 1551.62 Q1287.32 1557.67 1290.57 1560.85 Q1293.84 1564 1299.67 1564 Q1303.04 1564 1306.19 1563.17 Q1309.38 1562.35 1312.5 1560.69 L1312.5 1566.23 Q1309.34 1567.57 1306.03 1568.27 Q1302.72 1568.97 1299.32 1568.97 Q1290.79 1568.97 1285.79 1564 Q1280.83 1559.04 1280.83 1550.57 Q1280.83 1541.82 1285.54 1536.69 Q1290.28 1531.54 1298.3 1531.54 Q1305.49 1531.54 1309.66 1536.18 Q1313.86 1540.8 1313.86 1548.76 M1308.01 1547.04 Q1307.94 1542.23 1305.3 1539.37 Q1302.69 1536.5 1298.36 1536.5 Q1293.46 1536.5 1290.5 1539.27 Q1287.57 1542.04 1287.13 1547.07 L1308.01 1547.04 Z" fill="#000000" fill-rule="evenodd" fill-opacity="1" /><path clip-path="url(#clip450)" d="M1353.11 1546.53 L1353.11 1568.04 L1347.25 1568.04 L1347.25 1546.72 Q1347.25 1541.66 1345.28 1539.14 Q1343.31 1536.63 1339.36 1536.63 Q1334.62 1536.63 1331.88 1539.65 Q1329.14 1542.68 1329.14 1547.9 L1329.14 1568.04 L1323.25 1568.04 L1323.25 1532.4 L1329.14 1532.4 L1329.14 1537.93 Q1331.24 1534.72 1334.08 1533.13 Q1336.94 1531.54 1340.66 1531.54 Q1346.81 1531.54 1349.96 1535.36 Q1353.11 1539.14 1353.11 1546.53 Z" fill="#000000" fill-rule="evenodd" fill-opacity="1" /><path clip-path="url(#clip450)" d="M1399.58 1518.58 Q1395.31 1525.9 1393.24 1533.06 Q1391.18 1540.23 1391.18 1547.58 Q1391.18 1554.93 1393.24 1562.16 Q1395.35 1569.35 1399.58 1576.64 L1394.49 1576.64 Q1389.71 1569.16 1387.32 1561.93 Q1384.97 1554.71 1384.97 1547.58 Q1384.97 1540.48 1387.32 1533.29 Q1389.68 1526.09 1394.49 1518.58 L1399.58 1518.58 Z" fill="#000000" fill-rule="evenodd" fill-opacity="1" /><path clip-path="url(#clip450)" d="M1406.74 1532.4 L1412.95 1532.4 L1424.09 1562.31 L1435.23 1532.4 L1441.43 1532.4 L1428.07 1568.04 L1420.11 1568.04 L1406.74 1532.4 Z" fill="#000000" fill-rule="evenodd" fill-opacity="1" /><path clip-path="url(#clip450)" d="M1463.33 1536.5 Q1458.62 1536.5 1455.88 1540.19 Q1453.15 1543.85 1453.15 1550.25 Q1453.15 1556.65 1455.85 1560.34 Q1458.59 1564 1463.33 1564 Q1468.01 1564 1470.75 1560.31 Q1473.48 1556.62 1473.48 1550.25 Q1473.48 1543.92 1470.75 1540.23 Q1468.01 1536.5 1463.33 1536.5 M1463.33 1531.54 Q1470.97 1531.54 1475.33 1536.5 Q1479.69 1541.47 1479.69 1550.25 Q1479.69 1559 1475.33 1564 Q1470.97 1568.97 1463.33 1568.97 Q1455.66 1568.97 1451.3 1564 Q1446.97 1559 1446.97 1550.25 Q1446.97 1541.47 1451.3 1536.5 Q1455.66 1531.54 1463.33 1531.54 Z" fill="#000000" fill-rule="evenodd" fill-opacity="1" /><path clip-path="url(#clip450)" d="M1489.4 1518.52 L1495.26 1518.52 L1495.26 1568.04 L1489.4 1568.04 L1489.4 1518.52 Z" fill="#000000" fill-rule="evenodd" fill-opacity="1" /><path clip-path="url(#clip450)" d="M1517.92 1520.52 L1523.33 1520.52 L1506.78 1574.09 L1501.37 1574.09 L1517.92 1520.52 Z" fill="#000000" fill-rule="evenodd" fill-opacity="1" /><path clip-path="url(#clip450)" d="M1525.27 1532.4 L1531.48 1532.4 L1542.62 1562.31 L1553.76 1532.4 L1559.96 1532.4 L1546.59 1568.04 L1538.64 1568.04 L1525.27 1532.4 Z" fill="#000000" fill-rule="evenodd" fill-opacity="1" /><path clip-path="url(#clip450)" d="M1581.86 1536.5 Q1577.15 1536.5 1574.41 1540.19 Q1571.68 1543.85 1571.68 1550.25 Q1571.68 1556.65 1574.38 1560.34 Q1577.12 1564 1581.86 1564 Q1586.54 1564 1589.28 1560.31 Q1592.01 1556.62 1592.01 1550.25 Q1592.01 1543.92 1589.28 1540.23 Q1586.54 1536.5 1581.86 1536.5 M1581.86 1531.54 Q1589.5 1531.54 1593.86 1536.5 Q1598.22 1541.47 1598.22 1550.25 Q1598.22 1559 1593.86 1564 Q1589.5 1568.97 1581.86 1568.97 Q1574.19 1568.97 1569.83 1564 Q1565.5 1559 1565.5 1550.25 Q1565.5 1541.47 1569.83 1536.5 Q1574.19 1531.54 1581.86 1531.54 Z" fill="#000000" fill-rule="evenodd" fill-opacity="1" /><path clip-path="url(#clip450)" d="M1607.93 1518.52 L1613.78 1518.52 L1613.78 1568.04 L1607.93 1568.04 L1607.93 1518.52 Z" fill="#000000" fill-rule="evenodd" fill-opacity="1" /><path clip-path="url(#clip450)" d="M1625.12 1518.58 L1630.21 1518.58 Q1634.98 1526.09 1637.34 1533.29 Q1639.72 1540.48 1639.72 1547.58 Q1639.72 1554.71 1637.34 1561.93 Q1634.98 1569.16 1630.21 1576.64 L1625.12 1576.64 Q1629.35 1569.35 1631.42 1562.16 Q1633.52 1554.93 1633.52 1547.58 Q1633.52 1540.23 1631.42 1533.06 Q1629.35 1525.9 1625.12 1518.58 Z" fill="#000000" fill-rule="evenodd" fill-opacity="1" /><polyline clip-path="url(#clip452)" style="stroke:#000000; stroke-linecap:round; stroke-linejoin:round; stroke-width:2; stroke-opacity:0.1; fill:none" points="
  249.542,1268.73 2352.76,1268.73 
  "/>
<polyline clip-path="url(#clip452)" style="stroke:#000000; stroke-linecap:round; stroke-linejoin:round; stroke-width:2; stroke-opacity:0.1; fill:none" points="
  249.542,908.112 2352.76,908.112 
  "/>
<polyline clip-path="url(#clip452)" style="stroke:#000000; stroke-linecap:round; stroke-linejoin:round; stroke-width:2; stroke-opacity:0.1; fill:none" points="
  249.542,547.498 2352.76,547.498 
  "/>
<polyline clip-path="url(#clip452)" style="stroke:#000000; stroke-linecap:round; stroke-linejoin:round; stroke-width:2; stroke-opacity:0.1; fill:none" points="
  249.542,186.884 2352.76,186.884 
  "/>
<polyline clip-path="url(#clip450)" style="stroke:#000000; stroke-linecap:round; stroke-linejoin:round; stroke-width:4; stroke-opacity:1; fill:none" points="
  249.542,1423.18 249.542,47.2441 
  "/>
<polyline clip-path="url(#clip450)" style="stroke:#000000; stroke-linecap:round; stroke-linejoin:round; stroke-width:4; stroke-opacity:1; fill:none" points="
  249.542,1268.73 268.44,1268.73 
  "/>
<polyline clip-path="url(#clip450)" style="stroke:#000000; stroke-linecap:round; stroke-linejoin:round; stroke-width:4; stroke-opacity:1; fill:none" points="
  249.542,908.112 268.44,908.112 
  "/>
<polyline clip-path="url(#clip450)" style="stroke:#000000; stroke-linecap:round; stroke-linejoin:round; stroke-width:4; stroke-opacity:1; fill:none" points="
  249.542,547.498 268.44,547.498 
  "/>
<polyline clip-path="url(#clip450)" style="stroke:#000000; stroke-linecap:round; stroke-linejoin:round; stroke-width:4; stroke-opacity:1; fill:none" points="
  249.542,186.884 268.44,186.884 
  "/>
<path clip-path="url(#clip450)" d="M126.205 1254.53 Q122.593 1254.53 120.765 1258.09 Q118.959 1261.63 118.959 1268.76 Q118.959 1275.87 120.765 1279.43 Q122.593 1282.97 126.205 1282.97 Q129.839 1282.97 131.644 1279.43 Q133.473 1275.87 133.473 1268.76 Q133.473 1261.63 131.644 1258.09 Q129.839 1254.53 126.205 1254.53 M126.205 1250.82 Q132.015 1250.82 135.07 1255.43 Q138.149 1260.01 138.149 1268.76 Q138.149 1277.49 135.07 1282.09 Q132.015 1286.68 126.205 1286.68 Q120.394 1286.68 117.316 1282.09 Q114.26 1277.49 114.26 1268.76 Q114.26 1260.01 117.316 1255.43 Q120.394 1250.82 126.205 1250.82 Z" fill="#000000" fill-rule="evenodd" fill-opacity="1" /><path clip-path="url(#clip450)" d="M146.366 1280.13 L151.251 1280.13 L151.251 1286.01 L146.366 1286.01 L146.366 1280.13 Z" fill="#000000" fill-rule="evenodd" fill-opacity="1" /><path clip-path="url(#clip450)" d="M161.575 1285.29 L161.575 1281.03 Q163.334 1281.86 165.14 1282.3 Q166.945 1282.74 168.681 1282.74 Q173.311 1282.74 175.741 1279.64 Q178.195 1276.52 178.542 1270.17 Q177.2 1272.16 175.139 1273.23 Q173.079 1274.29 170.579 1274.29 Q165.394 1274.29 162.362 1271.17 Q159.353 1268.02 159.353 1262.58 Q159.353 1257.26 162.501 1254.04 Q165.649 1250.82 170.88 1250.82 Q176.876 1250.82 180.024 1255.43 Q183.195 1260.01 183.195 1268.76 Q183.195 1276.93 179.306 1281.82 Q175.44 1286.68 168.889 1286.68 Q167.13 1286.68 165.325 1286.33 Q163.519 1285.98 161.575 1285.29 M170.88 1270.64 Q174.028 1270.64 175.857 1268.48 Q177.709 1266.33 177.709 1262.58 Q177.709 1258.85 175.857 1256.7 Q174.028 1254.53 170.88 1254.53 Q167.732 1254.53 165.88 1256.7 Q164.052 1258.85 164.052 1262.58 Q164.052 1266.33 165.88 1268.48 Q167.732 1270.64 170.88 1270.64 Z" fill="#000000" fill-rule="evenodd" fill-opacity="1" /><path clip-path="url(#clip450)" d="M201.598 1254.53 Q197.987 1254.53 196.158 1258.09 Q194.352 1261.63 194.352 1268.76 Q194.352 1275.87 196.158 1279.43 Q197.987 1282.97 201.598 1282.97 Q205.232 1282.97 207.037 1279.43 Q208.866 1275.87 208.866 1268.76 Q208.866 1261.63 207.037 1258.09 Q205.232 1254.53 201.598 1254.53 M201.598 1250.82 Q207.408 1250.82 210.463 1255.43 Q213.542 1260.01 213.542 1268.76 Q213.542 1277.49 210.463 1282.09 Q207.408 1286.68 201.598 1286.68 Q195.787 1286.68 192.709 1282.09 Q189.653 1277.49 189.653 1268.76 Q189.653 1260.01 192.709 1255.43 Q195.787 1250.82 201.598 1250.82 Z" fill="#000000" fill-rule="evenodd" fill-opacity="1" /><path clip-path="url(#clip450)" d="M127.2 893.911 Q123.589 893.911 121.76 897.476 Q119.955 901.017 119.955 908.147 Q119.955 915.254 121.76 918.818 Q123.589 922.36 127.2 922.36 Q130.834 922.36 132.64 918.818 Q134.468 915.254 134.468 908.147 Q134.468 901.017 132.64 897.476 Q130.834 893.911 127.2 893.911 M127.2 890.207 Q133.01 890.207 136.066 894.814 Q139.144 899.397 139.144 908.147 Q139.144 916.874 136.066 921.48 Q133.01 926.064 127.2 926.064 Q121.39 926.064 118.311 921.48 Q115.256 916.874 115.256 908.147 Q115.256 899.397 118.311 894.814 Q121.39 890.207 127.2 890.207 Z" fill="#000000" fill-rule="evenodd" fill-opacity="1" /><path clip-path="url(#clip450)" d="M147.362 919.513 L152.246 919.513 L152.246 925.392 L147.362 925.392 L147.362 919.513 Z" fill="#000000" fill-rule="evenodd" fill-opacity="1" /><path clip-path="url(#clip450)" d="M162.57 924.675 L162.57 920.416 Q164.329 921.249 166.135 921.689 Q167.94 922.128 169.677 922.128 Q174.306 922.128 176.737 919.027 Q179.19 915.902 179.538 909.559 Q178.195 911.55 176.135 912.615 Q174.075 913.679 171.575 913.679 Q166.39 913.679 163.357 910.554 Q160.348 907.406 160.348 901.967 Q160.348 896.643 163.496 893.425 Q166.644 890.207 171.876 890.207 Q177.871 890.207 181.019 894.814 Q184.19 899.397 184.19 908.147 Q184.19 916.318 180.301 921.203 Q176.436 926.064 169.885 926.064 Q168.126 926.064 166.32 925.716 Q164.515 925.369 162.57 924.675 M171.876 910.022 Q175.024 910.022 176.852 907.869 Q178.704 905.717 178.704 901.967 Q178.704 898.24 176.852 896.087 Q175.024 893.911 171.876 893.911 Q168.727 893.911 166.876 896.087 Q165.047 898.24 165.047 901.967 Q165.047 905.717 166.876 907.869 Q168.727 910.022 171.876 910.022 Z" fill="#000000" fill-rule="evenodd" fill-opacity="1" /><path clip-path="url(#clip450)" d="M192.639 890.832 L210.996 890.832 L210.996 894.768 L196.922 894.768 L196.922 903.24 Q197.94 902.892 198.959 902.73 Q199.977 902.545 200.996 902.545 Q206.783 902.545 210.162 905.717 Q213.542 908.888 213.542 914.304 Q213.542 919.883 210.07 922.985 Q206.598 926.064 200.278 926.064 Q198.102 926.064 195.834 925.693 Q193.588 925.323 191.181 924.582 L191.181 919.883 Q193.264 921.017 195.487 921.573 Q197.709 922.128 200.186 922.128 Q204.19 922.128 206.528 920.022 Q208.866 917.916 208.866 914.304 Q208.866 910.693 206.528 908.587 Q204.19 906.48 200.186 906.48 Q198.311 906.48 196.436 906.897 Q194.584 907.314 192.639 908.193 L192.639 890.832 Z" fill="#000000" fill-rule="evenodd" fill-opacity="1" /><path clip-path="url(#clip450)" d="M117.015 560.843 L124.654 560.843 L124.654 534.477 L116.343 536.144 L116.343 531.885 L124.607 530.218 L129.283 530.218 L129.283 560.843 L136.922 560.843 L136.922 564.778 L117.015 564.778 L117.015 560.843 Z" fill="#000000" fill-rule="evenodd" fill-opacity="1" /><path clip-path="url(#clip450)" d="M146.366 558.899 L151.251 558.899 L151.251 564.778 L146.366 564.778 L146.366 558.899 Z" fill="#000000" fill-rule="evenodd" fill-opacity="1" /><path clip-path="url(#clip450)" d="M171.436 533.297 Q167.825 533.297 165.996 536.862 Q164.19 540.403 164.19 547.533 Q164.19 554.639 165.996 558.204 Q167.825 561.746 171.436 561.746 Q175.07 561.746 176.876 558.204 Q178.704 554.639 178.704 547.533 Q178.704 540.403 176.876 536.862 Q175.07 533.297 171.436 533.297 M171.436 529.593 Q177.246 529.593 180.301 534.2 Q183.38 538.783 183.38 547.533 Q183.38 556.26 180.301 560.866 Q177.246 565.449 171.436 565.449 Q165.626 565.449 162.547 560.866 Q159.491 556.26 159.491 547.533 Q159.491 538.783 162.547 534.2 Q165.626 529.593 171.436 529.593 Z" fill="#000000" fill-rule="evenodd" fill-opacity="1" /><path clip-path="url(#clip450)" d="M201.598 533.297 Q197.987 533.297 196.158 536.862 Q194.352 540.403 194.352 547.533 Q194.352 554.639 196.158 558.204 Q197.987 561.746 201.598 561.746 Q205.232 561.746 207.037 558.204 Q208.866 554.639 208.866 547.533 Q208.866 540.403 207.037 536.862 Q205.232 533.297 201.598 533.297 M201.598 529.593 Q207.408 529.593 210.463 534.2 Q213.542 538.783 213.542 547.533 Q213.542 556.26 210.463 560.866 Q207.408 565.449 201.598 565.449 Q195.787 565.449 192.709 560.866 Q189.653 556.26 189.653 547.533 Q189.653 538.783 192.709 534.2 Q195.787 529.593 201.598 529.593 Z" fill="#000000" fill-rule="evenodd" fill-opacity="1" /><path clip-path="url(#clip450)" d="M118.01 200.229 L125.649 200.229 L125.649 173.863 L117.339 175.53 L117.339 171.271 L125.603 169.604 L130.279 169.604 L130.279 200.229 L137.917 200.229 L137.917 204.164 L118.01 204.164 L118.01 200.229 Z" fill="#000000" fill-rule="evenodd" fill-opacity="1" /><path clip-path="url(#clip450)" d="M147.362 198.284 L152.246 198.284 L152.246 204.164 L147.362 204.164 L147.362 198.284 Z" fill="#000000" fill-rule="evenodd" fill-opacity="1" /><path clip-path="url(#clip450)" d="M172.431 172.683 Q168.82 172.683 166.991 176.247 Q165.186 179.789 165.186 186.919 Q165.186 194.025 166.991 197.59 Q168.82 201.132 172.431 201.132 Q176.065 201.132 177.871 197.59 Q179.7 194.025 179.7 186.919 Q179.7 179.789 177.871 176.247 Q176.065 172.683 172.431 172.683 M172.431 168.979 Q178.241 168.979 181.297 173.585 Q184.376 178.169 184.376 186.919 Q184.376 195.645 181.297 200.252 Q178.241 204.835 172.431 204.835 Q166.621 204.835 163.542 200.252 Q160.487 195.645 160.487 186.919 Q160.487 178.169 163.542 173.585 Q166.621 168.979 172.431 168.979 Z" fill="#000000" fill-rule="evenodd" fill-opacity="1" /><path clip-path="url(#clip450)" d="M192.639 169.604 L210.996 169.604 L210.996 173.539 L196.922 173.539 L196.922 182.011 Q197.94 181.664 198.959 181.502 Q199.977 181.317 200.996 181.317 Q206.783 181.317 210.162 184.488 Q213.542 187.659 213.542 193.076 Q213.542 198.655 210.07 201.757 Q206.598 204.835 200.278 204.835 Q198.102 204.835 195.834 204.465 Q193.588 204.094 191.181 203.354 L191.181 198.655 Q193.264 199.789 195.487 200.344 Q197.709 200.9 200.186 200.9 Q204.19 200.9 206.528 198.794 Q208.866 196.687 208.866 193.076 Q208.866 189.465 206.528 187.358 Q204.19 185.252 200.186 185.252 Q198.311 185.252 196.436 185.669 Q194.584 186.085 192.639 186.965 L192.639 169.604 Z" fill="#000000" fill-rule="evenodd" fill-opacity="1" /><path clip-path="url(#clip450)" d="M41.7242 1005.96 Q42.4244 1003.89 44.7161 1001.95 Q47.0077 999.978 51.0181 998.004 L64.0042 991.479 L64.0042 998.386 L51.8138 1004.47 Q47.0395 1006.82 45.48 1009.05 Q43.9204 1011.24 43.9204 1015.06 L43.9204 1022.07 L64.0042 1022.07 L64.0042 1028.5 L16.4842 1028.5 L16.4842 1013.98 Q16.4842 1005.83 19.8898 1001.82 Q23.2955 997.813 30.1704 997.813 Q34.6582 997.813 37.6183 999.914 Q40.5784 1001.98 41.7242 1005.96 M21.7677 1022.07 L38.6368 1022.07 L38.6368 1013.98 Q38.6368 1009.34 36.5043 1006.98 Q34.34 1004.59 30.1704 1004.59 Q26.0009 1004.59 23.9002 1006.98 Q21.7677 1009.34 21.7677 1013.98 L21.7677 1022.07 Z" fill="#000000" fill-rule="evenodd" fill-opacity="1" /><path clip-path="url(#clip450)" d="M46.0847 968.69 Q46.0847 975.788 47.7079 978.525 Q49.3312 981.262 53.2461 981.262 Q56.3653 981.262 58.2114 979.225 Q60.0256 977.157 60.0256 973.624 Q60.0256 968.754 56.5881 965.826 Q53.1188 962.866 47.3897 962.866 L46.0847 962.866 L46.0847 968.69 M43.6657 957.009 L64.0042 957.009 L64.0042 962.866 L58.5933 962.866 Q61.8398 964.871 63.3994 967.863 Q64.9272 970.855 64.9272 975.183 Q64.9272 980.658 61.8716 983.904 Q58.7843 987.119 53.6281 987.119 Q47.6125 987.119 44.5569 983.108 Q41.5014 979.066 41.5014 971.077 L41.5014 962.866 L40.9285 962.866 Q36.8862 962.866 34.6901 965.539 Q32.4621 968.181 32.4621 972.987 Q32.4621 976.043 33.1941 978.939 Q33.9262 981.835 35.3903 984.509 L29.9795 984.509 Q28.7381 981.294 28.1334 978.271 Q27.4968 975.247 27.4968 972.382 Q27.4968 964.648 31.5072 960.829 Q35.5176 957.009 43.6657 957.009 Z" fill="#000000" fill-rule="evenodd" fill-opacity="1" /><path clip-path="url(#clip450)" d="M18.2347 939.153 L28.3562 939.153 L28.3562 927.09 L32.9077 927.09 L32.9077 939.153 L52.2594 939.153 Q56.6199 939.153 57.8613 937.976 Q59.1026 936.766 59.1026 933.106 L59.1026 927.09 L64.0042 927.09 L64.0042 933.106 Q64.0042 939.885 61.4897 942.463 Q58.9434 945.042 52.2594 945.042 L32.9077 945.042 L32.9077 949.338 L28.3562 949.338 L28.3562 945.042 L18.2347 945.042 L18.2347 939.153 Z" fill="#000000" fill-rule="evenodd" fill-opacity="1" /><path clip-path="url(#clip450)" d="M28.3562 919.388 L28.3562 913.531 L64.0042 913.531 L64.0042 919.388 L28.3562 919.388 M14.479 919.388 L14.479 913.531 L21.895 913.531 L21.895 919.388 L14.479 919.388 Z" fill="#000000" fill-rule="evenodd" fill-opacity="1" /><path clip-path="url(#clip450)" d="M32.4621 887.464 Q32.4621 892.174 36.1542 894.912 Q39.8145 897.649 46.212 897.649 Q52.6095 897.649 56.3017 894.943 Q59.9619 892.206 59.9619 887.464 Q59.9619 882.785 56.2698 880.048 Q52.5777 877.31 46.212 877.31 Q39.8781 877.31 36.186 880.048 Q32.4621 882.785 32.4621 887.464 M27.4968 887.464 Q27.4968 879.825 32.4621 875.464 Q37.4273 871.104 46.212 871.104 Q54.9649 871.104 59.9619 875.464 Q64.9272 879.825 64.9272 887.464 Q64.9272 895.134 59.9619 899.495 Q54.9649 903.824 46.212 903.824 Q37.4273 903.824 32.4621 899.495 Q27.4968 895.134 27.4968 887.464 Z" fill="#000000" fill-rule="evenodd" fill-opacity="1" /><path clip-path="url(#clip450)" d="M32.4621 826.862 Q32.4621 831.573 36.1542 834.31 Q39.8145 837.047 46.212 837.047 Q52.6095 837.047 56.3017 834.342 Q59.9619 831.605 59.9619 826.862 Q59.9619 822.183 56.2698 819.446 Q52.5777 816.709 46.212 816.709 Q39.8781 816.709 36.186 819.446 Q32.4621 822.183 32.4621 826.862 M27.4968 826.862 Q27.4968 819.223 32.4621 814.863 Q37.4273 810.502 46.212 810.502 Q54.9649 810.502 59.9619 814.863 Q64.9272 819.223 64.9272 826.862 Q64.9272 834.533 59.9619 838.893 Q54.9649 843.222 46.212 843.222 Q37.4273 843.222 32.4621 838.893 Q27.4968 834.533 27.4968 826.862 Z" fill="#000000" fill-rule="evenodd" fill-opacity="1" /><path clip-path="url(#clip450)" d="M14.479 782.748 L19.3487 782.748 L19.3487 788.35 Q19.3487 791.501 20.6219 792.742 Q21.895 793.952 25.2052 793.952 L28.3562 793.952 L28.3562 784.307 L32.9077 784.307 L32.9077 793.952 L64.0042 793.952 L64.0042 799.84 L32.9077 799.84 L32.9077 805.442 L28.3562 805.442 L28.3562 799.84 L25.8736 799.84 Q19.9216 799.84 17.2162 797.071 Q14.479 794.302 14.479 788.286 L14.479 782.748 Z" fill="#000000" fill-rule="evenodd" fill-opacity="1" /><path clip-path="url(#clip450)" d="M16.4842 756.871 L16.4842 750.442 L35.9632 750.442 L35.9632 727.08 L16.4842 727.08 L16.4842 720.65 L64.0042 720.65 L64.0042 727.08 L41.3741 727.08 L41.3741 750.442 L64.0042 750.442 L64.0042 756.871 L16.4842 756.871 Z" fill="#000000" fill-rule="evenodd" fill-opacity="1" /><path clip-path="url(#clip450)" d="M44.7161 677.618 L47.5806 677.618 L47.5806 704.545 Q53.6281 704.163 56.8109 700.917 Q59.9619 697.638 59.9619 691.814 Q59.9619 688.44 59.1344 685.289 Q58.3069 682.106 56.6518 678.987 L62.1899 678.987 Q63.5267 682.138 64.227 685.448 Q64.9272 688.758 64.9272 692.164 Q64.9272 700.694 59.9619 705.691 Q54.9967 710.656 46.5303 710.656 Q37.7774 710.656 32.6531 705.946 Q27.4968 701.203 27.4968 693.182 Q27.4968 685.989 32.1438 681.82 Q36.7589 677.618 44.7161 677.618 M42.9973 683.475 Q38.1912 683.538 35.3266 686.18 Q32.4621 688.79 32.4621 693.119 Q32.4621 698.02 35.2312 700.98 Q38.0002 703.909 43.0292 704.354 L42.9973 683.475 Z" fill="#000000" fill-rule="evenodd" fill-opacity="1" /><path clip-path="url(#clip450)" d="M46.0847 651.805 Q46.0847 658.903 47.7079 661.64 Q49.3312 664.378 53.2461 664.378 Q56.3653 664.378 58.2114 662.341 Q60.0256 660.272 60.0256 656.739 Q60.0256 651.869 56.5881 648.941 Q53.1188 645.981 47.3897 645.981 L46.0847 645.981 L46.0847 651.805 M43.6657 640.124 L64.0042 640.124 L64.0042 645.981 L58.5933 645.981 Q61.8398 647.986 63.3994 650.978 Q64.9272 653.97 64.9272 658.298 Q64.9272 663.773 61.8716 667.019 Q58.7843 670.234 53.6281 670.234 Q47.6125 670.234 44.5569 666.224 Q41.5014 662.181 41.5014 654.192 L41.5014 645.981 L40.9285 645.981 Q36.8862 645.981 34.6901 648.654 Q32.4621 651.296 32.4621 656.102 Q32.4621 659.158 33.1941 662.054 Q33.9262 664.95 35.3903 667.624 L29.9795 667.624 Q28.7381 664.409 28.1334 661.386 Q27.4968 658.362 27.4968 655.497 Q27.4968 647.763 31.5072 643.944 Q35.5176 640.124 43.6657 640.124 Z" fill="#000000" fill-rule="evenodd" fill-opacity="1" /><path clip-path="url(#clip450)" d="M18.2347 622.268 L28.3562 622.268 L28.3562 610.205 L32.9077 610.205 L32.9077 622.268 L52.2594 622.268 Q56.6199 622.268 57.8613 621.091 Q59.1026 619.881 59.1026 616.221 L59.1026 610.205 L64.0042 610.205 L64.0042 616.221 Q64.0042 623 61.4897 625.579 Q58.9434 628.157 52.2594 628.157 L32.9077 628.157 L32.9077 632.454 L28.3562 632.454 L28.3562 628.157 L18.2347 628.157 L18.2347 622.268 Z" fill="#000000" fill-rule="evenodd" fill-opacity="1" /><path clip-path="url(#clip450)" d="M41.7242 558.993 Q42.4244 556.924 44.7161 554.983 Q47.0077 553.01 51.0181 551.036 L64.0042 544.511 L64.0042 551.418 L51.8138 557.497 Q47.0395 559.853 45.48 562.081 Q43.9204 564.277 43.9204 568.096 L43.9204 575.099 L64.0042 575.099 L64.0042 581.528 L16.4842 581.528 L16.4842 567.014 Q16.4842 558.866 19.8898 554.856 Q23.2955 550.845 30.1704 550.845 Q34.6582 550.845 37.6183 552.946 Q40.5784 555.015 41.7242 558.993 M21.7677 575.099 L38.6368 575.099 L38.6368 567.014 Q38.6368 562.367 36.5043 560.012 Q34.34 557.625 30.1704 557.625 Q26.0009 557.625 23.9002 560.012 Q21.7677 562.367 21.7677 567.014 L21.7677 575.099 Z" fill="#000000" fill-rule="evenodd" fill-opacity="1" /><path clip-path="url(#clip450)" d="M46.0847 521.722 Q46.0847 528.82 47.7079 531.557 Q49.3312 534.294 53.2461 534.294 Q56.3653 534.294 58.2114 532.257 Q60.0256 530.188 60.0256 526.656 Q60.0256 521.786 56.5881 518.858 Q53.1188 515.897 47.3897 515.897 L46.0847 515.897 L46.0847 521.722 M43.6657 510.041 L64.0042 510.041 L64.0042 515.897 L58.5933 515.897 Q61.8398 517.903 63.3994 520.895 Q64.9272 523.886 64.9272 528.215 Q64.9272 533.69 61.8716 536.936 Q58.7843 540.151 53.6281 540.151 Q47.6125 540.151 44.5569 536.14 Q41.5014 532.098 41.5014 524.109 L41.5014 515.897 L40.9285 515.897 Q36.8862 515.897 34.6901 518.571 Q32.4621 521.213 32.4621 526.019 Q32.4621 529.074 33.1941 531.971 Q33.9262 534.867 35.3903 537.541 L29.9795 537.541 Q28.7381 534.326 28.1334 531.302 Q27.4968 528.279 27.4968 525.414 Q27.4968 517.68 31.5072 513.86 Q35.5176 510.041 43.6657 510.041 Z" fill="#000000" fill-rule="evenodd" fill-opacity="1" /><path clip-path="url(#clip450)" d="M18.2347 492.185 L28.3562 492.185 L28.3562 480.122 L32.9077 480.122 L32.9077 492.185 L52.2594 492.185 Q56.6199 492.185 57.8613 491.008 Q59.1026 489.798 59.1026 486.138 L59.1026 480.122 L64.0042 480.122 L64.0042 486.138 Q64.0042 492.917 61.4897 495.495 Q58.9434 498.073 52.2594 498.073 L32.9077 498.073 L32.9077 502.37 L28.3562 502.37 L28.3562 498.073 L18.2347 498.073 L18.2347 492.185 Z" fill="#000000" fill-rule="evenodd" fill-opacity="1" /><path clip-path="url(#clip450)" d="M44.7161 441.928 L47.5806 441.928 L47.5806 468.855 Q53.6281 468.473 56.8109 465.226 Q59.9619 461.948 59.9619 456.123 Q59.9619 452.75 59.1344 449.599 Q58.3069 446.416 56.6518 443.297 L62.1899 443.297 Q63.5267 446.448 64.227 449.758 Q64.9272 453.068 64.9272 456.474 Q64.9272 465.004 59.9619 470.001 Q54.9967 474.966 46.5303 474.966 Q37.7774 474.966 32.6531 470.255 Q27.4968 465.513 27.4968 457.492 Q27.4968 450.299 32.1438 446.129 Q36.7589 441.928 44.7161 441.928 M42.9973 447.784 Q38.1912 447.848 35.3266 450.49 Q32.4621 453.1 32.4621 457.428 Q32.4621 462.33 35.2312 465.29 Q38.0002 468.218 43.0292 468.664 L42.9973 447.784 Z" fill="#000000" fill-rule="evenodd" fill-opacity="1" /><polyline clip-path="url(#clip452)" style="stroke:#023eff; stroke-linecap:round; stroke-linejoin:round; stroke-width:4; stroke-opacity:1; fill:none" points="
  309.067,547.498 329.109,562.762 349.151,578.015 369.193,593.256 389.235,608.484 409.277,623.697 429.319,638.893 449.361,654.072 469.403,669.231 489.446,684.369 
  509.488,699.484 529.53,714.575 549.572,729.639 569.614,744.674 589.656,759.679 609.698,774.651 629.74,789.588 649.782,804.488 669.824,819.347 689.866,834.164 
  709.908,848.936 729.95,863.659 749.992,878.331 770.034,892.949 790.076,907.509 810.118,922.007 830.161,936.441 850.203,950.806 870.245,965.098 890.287,979.313 
  910.329,993.446 930.371,1007.49 950.413,1021.45 970.455,1035.31 990.497,1049.06 1010.54,1062.71 1030.58,1076.25 1050.62,1089.66 1070.67,1102.95 1090.71,1116.1 
  1110.75,1129.11 1130.79,1141.96 1150.83,1154.66 1170.88,1167.19 1190.92,1179.55 1210.96,1191.71 1231,1203.67 1251.04,1215.43 1271.09,1226.96 1291.13,1238.25 
  1311.17,1249.3 1331.21,1260.07 1351.25,1270.57 1371.3,1280.77 1391.34,1290.65 1411.38,1300.2 1431.42,1309.39 1451.46,1318.2 1471.51,1326.6 1491.55,1334.58 
  1511.59,1342.1 1531.63,1349.13 1551.67,1355.65 1571.72,1361.61 1591.76,1366.97 1611.8,1371.71 1631.84,1375.76 1651.89,1379.09 1671.93,1381.65 1691.97,1383.36 
  1712.01,1384.18 1732.05,1384.03 1752.1,1382.83 1772.14,1380.51 1792.18,1376.97 1812.22,1372.11 1832.26,1365.82 1852.31,1357.98 1872.35,1348.44 1892.39,1337.05 
  1912.43,1323.64 1932.47,1308.01 1952.52,1289.95 1972.56,1269.19 1992.6,1245.47 2012.64,1218.45 2032.68,1187.76 2052.73,1152.97 2072.77,1113.58 2092.81,1069 
  2112.85,1018.56 2132.89,961.43 2152.94,896.646 2172.98,823.035 2193.02,739.174 2213.06,643.308 2233.1,533.256 2253.15,406.26 2273.19,258.779 2293.23,86.1857 
  
  "/>
<circle clip-path="url(#clip452)" cx="1719.06" cy="1384.24" r="14.4" fill="#ff7c00" fill-rule="evenodd" fill-opacity="1" stroke="#000000" stroke-opacity="1" stroke-width="3.2"/>
<circle clip-path="url(#clip452)" cx="2230.66" cy="547.498" r="14.4" fill="#1ac938" fill-rule="evenodd" fill-opacity="1" stroke="#000000" stroke-opacity="1" stroke-width="3.2"/>
<path clip-path="url(#clip450)" d="
M319.649 248.629 L1037.17 248.629 L1037.17 93.1086 L319.649 93.1086  Z
  " fill="#ffffff" fill-rule="evenodd" fill-opacity="1"/>
<polyline clip-path="url(#clip450)" style="stroke:#000000; stroke-linecap:round; stroke-linejoin:round; stroke-width:4; stroke-opacity:1; fill:none" points="
  319.649,248.629 1037.17,248.629 1037.17,93.1086 319.649,93.1086 319.649,248.629 
  "/>
<circle clip-path="url(#clip450)" cx="413.125" cy="144.949" r="23.04" fill="#ff7c00" fill-rule="evenodd" fill-opacity="1" stroke="#000000" stroke-opacity="1" stroke-width="5.12"/>
<path clip-path="url(#clip450)" d="M506.602 127.669 L513.569 127.669 L522.388 151.187 L531.254 127.669 L538.222 127.669 L538.222 162.229 L533.662 162.229 L533.662 131.882 L524.75 155.585 L520.051 155.585 L511.139 131.882 L511.139 162.229 L506.602 162.229 L506.602 127.669 Z" fill="#000000" fill-rule="evenodd" fill-opacity="1" /><path clip-path="url(#clip450)" d="M547.319 136.303 L551.578 136.303 L551.578 162.229 L547.319 162.229 L547.319 136.303 M547.319 126.21 L551.578 126.21 L551.578 131.604 L547.319 131.604 L547.319 126.21 Z" fill="#000000" fill-rule="evenodd" fill-opacity="1" /><path clip-path="url(#clip450)" d="M582.041 146.581 L582.041 162.229 L577.782 162.229 L577.782 146.719 Q577.782 143.039 576.347 141.21 Q574.911 139.382 572.041 139.382 Q568.592 139.382 566.601 141.581 Q564.61 143.78 564.61 147.576 L564.61 162.229 L560.328 162.229 L560.328 136.303 L564.61 136.303 L564.61 140.331 Q566.138 137.993 568.198 136.835 Q570.282 135.678 572.99 135.678 Q577.458 135.678 579.749 138.456 Q582.041 141.21 582.041 146.581 Z" fill="#000000" fill-rule="evenodd" fill-opacity="1" /><path clip-path="url(#clip450)" d="M590.536 136.303 L594.795 136.303 L594.795 162.229 L590.536 162.229 L590.536 136.303 M590.536 126.21 L594.795 126.21 L594.795 131.604 L590.536 131.604 L590.536 126.21 Z" fill="#000000" fill-rule="evenodd" fill-opacity="1" /><path clip-path="url(#clip450)" d="M623.893 141.28 Q625.49 138.409 627.712 137.044 Q629.934 135.678 632.943 135.678 Q636.994 135.678 639.193 138.525 Q641.392 141.349 641.392 146.581 L641.392 162.229 L637.11 162.229 L637.11 146.719 Q637.11 142.993 635.791 141.187 Q634.471 139.382 631.763 139.382 Q628.453 139.382 626.531 141.581 Q624.61 143.78 624.61 147.576 L624.61 162.229 L620.328 162.229 L620.328 146.719 Q620.328 142.969 619.008 141.187 Q617.689 139.382 614.934 139.382 Q611.67 139.382 609.749 141.604 Q607.828 143.803 607.828 147.576 L607.828 162.229 L603.545 162.229 L603.545 136.303 L607.828 136.303 L607.828 140.331 Q609.286 137.946 611.323 136.812 Q613.36 135.678 616.161 135.678 Q618.985 135.678 620.953 137.113 Q622.943 138.548 623.893 141.28 Z" fill="#000000" fill-rule="evenodd" fill-opacity="1" /><path clip-path="url(#clip450)" d="M649.448 151.997 L649.448 136.303 L653.707 136.303 L653.707 151.835 Q653.707 155.516 655.142 157.368 Q656.578 159.196 659.448 159.196 Q662.897 159.196 664.888 156.997 Q666.902 154.798 666.902 151.002 L666.902 136.303 L671.161 136.303 L671.161 162.229 L666.902 162.229 L666.902 158.247 Q665.351 160.608 663.29 161.766 Q661.253 162.9 658.545 162.9 Q654.078 162.9 651.763 160.122 Q649.448 157.344 649.448 151.997 M660.165 135.678 L660.165 135.678 Z" fill="#000000" fill-rule="evenodd" fill-opacity="1" /><path clip-path="url(#clip450)" d="M700.119 141.28 Q701.716 138.409 703.938 137.044 Q706.161 135.678 709.17 135.678 Q713.221 135.678 715.42 138.525 Q717.619 141.349 717.619 146.581 L717.619 162.229 L713.337 162.229 L713.337 146.719 Q713.337 142.993 712.017 141.187 Q710.698 139.382 707.989 139.382 Q704.679 139.382 702.758 141.581 Q700.837 143.78 700.837 147.576 L700.837 162.229 L696.554 162.229 L696.554 146.719 Q696.554 142.969 695.235 141.187 Q693.915 139.382 691.161 139.382 Q687.897 139.382 685.976 141.604 Q684.054 143.803 684.054 147.576 L684.054 162.229 L679.772 162.229 L679.772 136.303 L684.054 136.303 L684.054 140.331 Q685.513 137.946 687.55 136.812 Q689.587 135.678 692.388 135.678 Q695.212 135.678 697.179 137.113 Q699.17 138.548 700.119 141.28 Z" fill="#000000" fill-rule="evenodd" fill-opacity="1" /><path clip-path="url(#clip450)" d="M762.734 146.581 L762.734 162.229 L758.475 162.229 L758.475 146.719 Q758.475 143.039 757.04 141.21 Q755.605 139.382 752.734 139.382 Q749.285 139.382 747.295 141.581 Q745.304 143.78 745.304 147.576 L745.304 162.229 L741.022 162.229 L741.022 126.21 L745.304 126.21 L745.304 140.331 Q746.832 137.993 748.892 136.835 Q750.975 135.678 753.684 135.678 Q758.151 135.678 760.443 138.456 Q762.734 141.21 762.734 146.581 Z" fill="#000000" fill-rule="evenodd" fill-opacity="1" /><path clip-path="url(#clip450)" d="M793.406 148.201 L793.406 150.284 L773.822 150.284 Q774.1 154.682 776.461 156.997 Q778.845 159.289 783.082 159.289 Q785.535 159.289 787.827 158.687 Q790.142 158.085 792.41 156.881 L792.41 160.909 Q790.119 161.881 787.711 162.391 Q785.304 162.9 782.827 162.9 Q776.623 162.9 772.989 159.289 Q769.378 155.678 769.378 149.52 Q769.378 143.155 772.804 139.428 Q776.253 135.678 782.086 135.678 Q787.318 135.678 790.35 139.057 Q793.406 142.414 793.406 148.201 M789.146 146.951 Q789.1 143.456 787.179 141.372 Q785.281 139.289 782.132 139.289 Q778.568 139.289 776.415 141.303 Q774.285 143.317 773.961 146.974 L789.146 146.951 Z" fill="#000000" fill-rule="evenodd" fill-opacity="1" /><path clip-path="url(#clip450)" d="M812.179 149.196 Q807.017 149.196 805.026 150.377 Q803.035 151.557 803.035 154.405 Q803.035 156.673 804.517 158.016 Q806.021 159.335 808.591 159.335 Q812.132 159.335 814.262 156.835 Q816.415 154.312 816.415 150.145 L816.415 149.196 L812.179 149.196 M820.674 147.437 L820.674 162.229 L816.415 162.229 L816.415 158.293 Q814.956 160.655 812.78 161.789 Q810.605 162.9 807.456 162.9 Q803.475 162.9 801.114 160.678 Q798.776 158.432 798.776 154.682 Q798.776 150.307 801.693 148.085 Q804.632 145.863 810.442 145.863 L816.415 145.863 L816.415 145.446 Q816.415 142.507 814.47 140.909 Q812.549 139.289 809.054 139.289 Q806.831 139.289 804.725 139.821 Q802.618 140.354 800.674 141.419 L800.674 137.483 Q803.012 136.581 805.211 136.141 Q807.41 135.678 809.493 135.678 Q815.118 135.678 817.896 138.594 Q820.674 141.511 820.674 147.437 Z" fill="#000000" fill-rule="evenodd" fill-opacity="1" /><path clip-path="url(#clip450)" d="M833.66 128.942 L833.66 136.303 L842.433 136.303 L842.433 139.613 L833.66 139.613 L833.66 153.687 Q833.66 156.858 834.516 157.761 Q835.396 158.664 838.058 158.664 L842.433 158.664 L842.433 162.229 L838.058 162.229 Q833.128 162.229 831.253 160.4 Q829.378 158.548 829.378 153.687 L829.378 139.613 L826.253 139.613 L826.253 136.303 L829.378 136.303 L829.378 128.942 L833.66 128.942 Z" fill="#000000" fill-rule="evenodd" fill-opacity="1" /><path clip-path="url(#clip450)" d="M878.127 140.284 Q877.41 139.868 876.553 139.682 Q875.72 139.474 874.701 139.474 Q871.09 139.474 869.146 141.835 Q867.225 144.173 867.225 148.571 L867.225 162.229 L862.942 162.229 L862.942 136.303 L867.225 136.303 L867.225 140.331 Q868.567 137.969 870.72 136.835 Q872.873 135.678 875.951 135.678 Q876.391 135.678 876.924 135.747 Q877.456 135.794 878.104 135.909 L878.127 140.284 Z" fill="#000000" fill-rule="evenodd" fill-opacity="1" /><path clip-path="url(#clip450)" d="M894.377 149.196 Q889.215 149.196 887.224 150.377 Q885.234 151.557 885.234 154.405 Q885.234 156.673 886.715 158.016 Q888.22 159.335 890.789 159.335 Q894.331 159.335 896.461 156.835 Q898.613 154.312 898.613 150.145 L898.613 149.196 L894.377 149.196 M902.873 147.437 L902.873 162.229 L898.613 162.229 L898.613 158.293 Q897.155 160.655 894.979 161.789 Q892.803 162.9 889.655 162.9 Q885.674 162.9 883.312 160.678 Q880.975 158.432 880.975 154.682 Q880.975 150.307 883.891 148.085 Q886.831 145.863 892.641 145.863 L898.613 145.863 L898.613 145.446 Q898.613 142.507 896.669 140.909 Q894.748 139.289 891.252 139.289 Q889.03 139.289 886.924 139.821 Q884.817 140.354 882.873 141.419 L882.873 137.483 Q885.211 136.581 887.41 136.141 Q889.609 135.678 891.692 135.678 Q897.317 135.678 900.095 138.594 Q902.873 141.511 902.873 147.437 Z" fill="#000000" fill-rule="evenodd" fill-opacity="1" /><path clip-path="url(#clip450)" d="M915.859 128.942 L915.859 136.303 L924.632 136.303 L924.632 139.613 L915.859 139.613 L915.859 153.687 Q915.859 156.858 916.715 157.761 Q917.595 158.664 920.257 158.664 L924.632 158.664 L924.632 162.229 L920.257 162.229 Q915.326 162.229 913.451 160.4 Q911.576 158.548 911.576 153.687 L911.576 139.613 L908.451 139.613 L908.451 136.303 L911.576 136.303 L911.576 128.942 L915.859 128.942 Z" fill="#000000" fill-rule="evenodd" fill-opacity="1" /><path clip-path="url(#clip450)" d="M930.233 136.303 L934.493 136.303 L934.493 162.229 L930.233 162.229 L930.233 136.303 M930.233 126.21 L934.493 126.21 L934.493 131.604 L930.233 131.604 L930.233 126.21 Z" fill="#000000" fill-rule="evenodd" fill-opacity="1" /><path clip-path="url(#clip450)" d="M953.451 139.289 Q950.025 139.289 948.034 141.974 Q946.044 144.636 946.044 149.289 Q946.044 153.942 948.011 156.627 Q950.002 159.289 953.451 159.289 Q956.854 159.289 958.844 156.604 Q960.835 153.918 960.835 149.289 Q960.835 144.682 958.844 141.997 Q956.854 139.289 953.451 139.289 M953.451 135.678 Q959.006 135.678 962.178 139.289 Q965.349 142.9 965.349 149.289 Q965.349 155.655 962.178 159.289 Q959.006 162.9 953.451 162.9 Q947.872 162.9 944.701 159.289 Q941.553 155.655 941.553 149.289 Q941.553 142.9 944.701 139.289 Q947.872 135.678 953.451 135.678 Z" fill="#000000" fill-rule="evenodd" fill-opacity="1" /><circle clip-path="url(#clip450)" cx="413.125" cy="196.789" r="23.04" fill="#1ac938" fill-rule="evenodd" fill-opacity="1" stroke="#000000" stroke-opacity="1" stroke-width="5.12"/>
<path clip-path="url(#clip450)" d="M511.277 197.564 L511.277 210.226 L518.777 210.226 Q522.55 210.226 524.356 208.675 Q526.185 207.101 526.185 203.883 Q526.185 200.643 524.356 199.115 Q522.55 197.564 518.777 197.564 L511.277 197.564 M511.277 183.351 L511.277 193.768 L518.199 193.768 Q521.625 193.768 523.291 192.495 Q524.981 191.198 524.981 188.559 Q524.981 185.944 523.291 184.647 Q521.625 183.351 518.199 183.351 L511.277 183.351 M506.602 179.509 L518.546 179.509 Q523.893 179.509 526.787 181.731 Q529.68 183.953 529.68 188.05 Q529.68 191.222 528.199 193.097 Q526.717 194.971 523.847 195.434 Q527.296 196.175 529.194 198.536 Q531.115 200.874 531.115 204.393 Q531.115 209.022 527.967 211.545 Q524.819 214.069 519.009 214.069 L506.602 214.069 L506.602 179.509 Z" fill="#000000" fill-rule="evenodd" fill-opacity="1" /><path clip-path="url(#clip450)" d="M553.962 192.124 Q553.245 191.708 552.388 191.522 Q551.555 191.314 550.536 191.314 Q546.925 191.314 544.981 193.675 Q543.06 196.013 543.06 200.411 L543.06 214.069 L538.777 214.069 L538.777 188.143 L543.06 188.143 L543.06 192.171 Q544.402 189.809 546.555 188.675 Q548.708 187.518 551.786 187.518 Q552.226 187.518 552.759 187.587 Q553.291 187.634 553.939 187.749 L553.962 192.124 Z" fill="#000000" fill-rule="evenodd" fill-opacity="1" /><path clip-path="url(#clip450)" d="M579.564 200.041 L579.564 202.124 L559.981 202.124 Q560.259 206.522 562.62 208.837 Q565.004 211.129 569.24 211.129 Q571.694 211.129 573.985 210.527 Q576.3 209.925 578.569 208.721 L578.569 212.749 Q576.277 213.721 573.87 214.231 Q571.462 214.74 568.985 214.74 Q562.782 214.74 559.148 211.129 Q555.536 207.518 555.536 201.36 Q555.536 194.995 558.962 191.268 Q562.411 187.518 568.245 187.518 Q573.476 187.518 576.509 190.897 Q579.564 194.254 579.564 200.041 M575.305 198.791 Q575.259 195.296 573.337 193.212 Q571.439 191.129 568.291 191.129 Q564.726 191.129 562.573 193.143 Q560.444 195.157 560.12 198.814 L575.305 198.791 Z" fill="#000000" fill-rule="evenodd" fill-opacity="1" /><path clip-path="url(#clip450)" d="M598.337 201.036 Q593.175 201.036 591.184 202.217 Q589.194 203.397 589.194 206.245 Q589.194 208.513 590.675 209.856 Q592.18 211.175 594.749 211.175 Q598.291 211.175 600.42 208.675 Q602.573 206.152 602.573 201.985 L602.573 201.036 L598.337 201.036 M606.832 199.277 L606.832 214.069 L602.573 214.069 L602.573 210.133 Q601.115 212.495 598.939 213.629 Q596.763 214.74 593.615 214.74 Q589.633 214.74 587.272 212.518 Q584.934 210.272 584.934 206.522 Q584.934 202.147 587.851 199.925 Q590.791 197.703 596.601 197.703 L602.573 197.703 L602.573 197.286 Q602.573 194.347 600.629 192.749 Q598.707 191.129 595.212 191.129 Q592.99 191.129 590.883 191.661 Q588.777 192.194 586.833 193.259 L586.833 189.323 Q589.171 188.421 591.37 187.981 Q593.569 187.518 595.652 187.518 Q601.277 187.518 604.055 190.434 Q606.832 193.351 606.832 199.277 Z" fill="#000000" fill-rule="evenodd" fill-opacity="1" /><path clip-path="url(#clip450)" d="M615.444 178.05 L619.726 178.05 L619.726 199.323 L632.434 188.143 L637.874 188.143 L624.124 200.272 L638.453 214.069 L632.897 214.069 L619.726 201.407 L619.726 214.069 L615.444 214.069 L615.444 178.05 Z" fill="#000000" fill-rule="evenodd" fill-opacity="1" /><path clip-path="url(#clip450)" d="M680.304 200.041 L680.304 202.124 L660.721 202.124 Q660.999 206.522 663.36 208.837 Q665.744 211.129 669.98 211.129 Q672.434 211.129 674.726 210.527 Q677.04 209.925 679.309 208.721 L679.309 212.749 Q677.017 213.721 674.61 214.231 Q672.202 214.74 669.726 214.74 Q663.522 214.74 659.888 211.129 Q656.277 207.518 656.277 201.36 Q656.277 194.995 659.703 191.268 Q663.152 187.518 668.985 187.518 Q674.216 187.518 677.249 190.897 Q680.304 194.254 680.304 200.041 M676.045 198.791 Q675.999 195.296 674.077 193.212 Q672.179 191.129 669.031 191.129 Q665.466 191.129 663.314 193.143 Q661.184 195.157 660.86 198.814 L676.045 198.791 Z" fill="#000000" fill-rule="evenodd" fill-opacity="1" /><path clip-path="url(#clip450)" d="M684.239 188.143 L688.753 188.143 L696.855 209.902 L704.957 188.143 L709.471 188.143 L699.749 214.069 L693.962 214.069 L684.239 188.143 Z" fill="#000000" fill-rule="evenodd" fill-opacity="1" /><path clip-path="url(#clip450)" d="M737.526 200.041 L737.526 202.124 L717.943 202.124 Q718.221 206.522 720.582 208.837 Q722.966 211.129 727.202 211.129 Q729.656 211.129 731.948 210.527 Q734.262 209.925 736.531 208.721 L736.531 212.749 Q734.239 213.721 731.832 214.231 Q729.424 214.74 726.948 214.74 Q720.744 214.74 717.11 211.129 Q713.499 207.518 713.499 201.36 Q713.499 194.995 716.924 191.268 Q720.374 187.518 726.207 187.518 Q731.438 187.518 734.471 190.897 Q737.526 194.254 737.526 200.041 M733.267 198.791 Q733.221 195.296 731.299 193.212 Q729.401 191.129 726.253 191.129 Q722.688 191.129 720.536 193.143 Q718.406 195.157 718.082 198.814 L733.267 198.791 Z" fill="#000000" fill-rule="evenodd" fill-opacity="1" /><path clip-path="url(#clip450)" d="M766.068 198.421 L766.068 214.069 L761.808 214.069 L761.808 198.559 Q761.808 194.879 760.373 193.05 Q758.938 191.222 756.068 191.222 Q752.619 191.222 750.628 193.421 Q748.637 195.62 748.637 199.416 L748.637 214.069 L744.355 214.069 L744.355 188.143 L748.637 188.143 L748.637 192.171 Q750.165 189.833 752.225 188.675 Q754.309 187.518 757.017 187.518 Q761.484 187.518 763.776 190.296 Q766.068 193.05 766.068 198.421 Z" fill="#000000" fill-rule="evenodd" fill-opacity="1" /><path clip-path="url(#clip450)" d="M811.183 198.421 L811.183 214.069 L806.924 214.069 L806.924 198.559 Q806.924 194.879 805.489 193.05 Q804.054 191.222 801.183 191.222 Q797.734 191.222 795.743 193.421 Q793.753 195.62 793.753 199.416 L793.753 214.069 L789.47 214.069 L789.47 178.05 L793.753 178.05 L793.753 192.171 Q795.281 189.833 797.341 188.675 Q799.424 187.518 802.132 187.518 Q806.6 187.518 808.892 190.296 Q811.183 193.05 811.183 198.421 Z" fill="#000000" fill-rule="evenodd" fill-opacity="1" /><path clip-path="url(#clip450)" d="M841.854 200.041 L841.854 202.124 L822.271 202.124 Q822.549 206.522 824.91 208.837 Q827.294 211.129 831.53 211.129 Q833.984 211.129 836.276 210.527 Q838.59 209.925 840.859 208.721 L840.859 212.749 Q838.567 213.721 836.16 214.231 Q833.753 214.74 831.276 214.74 Q825.072 214.74 821.438 211.129 Q817.827 207.518 817.827 201.36 Q817.827 194.995 821.253 191.268 Q824.702 187.518 830.535 187.518 Q835.766 187.518 838.799 190.897 Q841.854 194.254 841.854 200.041 M837.595 198.791 Q837.549 195.296 835.628 193.212 Q833.729 191.129 830.581 191.129 Q827.016 191.129 824.864 193.143 Q822.734 195.157 822.41 198.814 L837.595 198.791 Z" fill="#000000" fill-rule="evenodd" fill-opacity="1" /><path clip-path="url(#clip450)" d="M860.627 201.036 Q855.465 201.036 853.475 202.217 Q851.484 203.397 851.484 206.245 Q851.484 208.513 852.965 209.856 Q854.47 211.175 857.039 211.175 Q860.581 211.175 862.711 208.675 Q864.863 206.152 864.863 201.985 L864.863 201.036 L860.627 201.036 M869.123 199.277 L869.123 214.069 L864.863 214.069 L864.863 210.133 Q863.405 212.495 861.229 213.629 Q859.053 214.74 855.905 214.74 Q851.924 214.74 849.563 212.518 Q847.225 210.272 847.225 206.522 Q847.225 202.147 850.141 199.925 Q853.081 197.703 858.891 197.703 L864.863 197.703 L864.863 197.286 Q864.863 194.347 862.919 192.749 Q860.998 191.129 857.502 191.129 Q855.28 191.129 853.174 191.661 Q851.067 192.194 849.123 193.259 L849.123 189.323 Q851.461 188.421 853.66 187.981 Q855.859 187.518 857.942 187.518 Q863.567 187.518 866.345 190.434 Q869.123 193.351 869.123 199.277 Z" fill="#000000" fill-rule="evenodd" fill-opacity="1" /><path clip-path="url(#clip450)" d="M882.109 180.782 L882.109 188.143 L890.882 188.143 L890.882 191.453 L882.109 191.453 L882.109 205.527 Q882.109 208.698 882.965 209.601 Q883.845 210.504 886.507 210.504 L890.882 210.504 L890.882 214.069 L886.507 214.069 Q881.576 214.069 879.701 212.24 Q877.826 210.388 877.826 205.527 L877.826 191.453 L874.701 191.453 L874.701 188.143 L877.826 188.143 L877.826 180.782 L882.109 180.782 Z" fill="#000000" fill-rule="evenodd" fill-opacity="1" /><path clip-path="url(#clip450)" d="M926.576 192.124 Q925.859 191.708 925.002 191.522 Q924.169 191.314 923.15 191.314 Q919.539 191.314 917.595 193.675 Q915.673 196.013 915.673 200.411 L915.673 214.069 L911.391 214.069 L911.391 188.143 L915.673 188.143 L915.673 192.171 Q917.016 189.809 919.169 188.675 Q921.322 187.518 924.4 187.518 Q924.84 187.518 925.372 187.587 Q925.905 187.634 926.553 187.749 L926.576 192.124 Z" fill="#000000" fill-rule="evenodd" fill-opacity="1" /><path clip-path="url(#clip450)" d="M942.826 201.036 Q937.664 201.036 935.673 202.217 Q933.683 203.397 933.683 206.245 Q933.683 208.513 935.164 209.856 Q936.669 211.175 939.238 211.175 Q942.78 211.175 944.909 208.675 Q947.062 206.152 947.062 201.985 L947.062 201.036 L942.826 201.036 M951.321 199.277 L951.321 214.069 L947.062 214.069 L947.062 210.133 Q945.604 212.495 943.428 213.629 Q941.252 214.74 938.104 214.74 Q934.122 214.74 931.761 212.518 Q929.423 210.272 929.423 206.522 Q929.423 202.147 932.34 199.925 Q935.28 197.703 941.09 197.703 L947.062 197.703 L947.062 197.286 Q947.062 194.347 945.118 192.749 Q943.196 191.129 939.701 191.129 Q937.479 191.129 935.372 191.661 Q933.266 192.194 931.321 193.259 L931.321 189.323 Q933.659 188.421 935.858 187.981 Q938.058 187.518 940.141 187.518 Q945.766 187.518 948.544 190.434 Q951.321 193.351 951.321 199.277 Z" fill="#000000" fill-rule="evenodd" fill-opacity="1" /><path clip-path="url(#clip450)" d="M964.307 180.782 L964.307 188.143 L973.08 188.143 L973.08 191.453 L964.307 191.453 L964.307 205.527 Q964.307 208.698 965.164 209.601 Q966.043 210.504 968.706 210.504 L973.08 210.504 L973.08 214.069 L968.706 214.069 Q963.775 214.069 961.9 212.24 Q960.025 210.388 960.025 205.527 L960.025 191.453 L956.9 191.453 L956.9 188.143 L960.025 188.143 L960.025 180.782 L964.307 180.782 Z" fill="#000000" fill-rule="evenodd" fill-opacity="1" /><path clip-path="url(#clip450)" d="M978.682 188.143 L982.942 188.143 L982.942 214.069 L978.682 214.069 L978.682 188.143 M978.682 178.05 L982.942 178.05 L982.942 183.444 L978.682 183.444 L978.682 178.05 Z" fill="#000000" fill-rule="evenodd" fill-opacity="1" /><path clip-path="url(#clip450)" d="M1001.9 191.129 Q998.474 191.129 996.483 193.814 Q994.492 196.476 994.492 201.129 Q994.492 205.782 996.46 208.467 Q998.451 211.129 1001.9 211.129 Q1005.3 211.129 1007.29 208.444 Q1009.28 205.758 1009.28 201.129 Q1009.28 196.522 1007.29 193.837 Q1005.3 191.129 1001.9 191.129 M1001.9 187.518 Q1007.46 187.518 1010.63 191.129 Q1013.8 194.74 1013.8 201.129 Q1013.8 207.495 1010.63 211.129 Q1007.46 214.74 1001.9 214.74 Q996.321 214.74 993.15 211.129 Q990.002 207.495 990.002 201.129 Q990.002 194.74 993.15 191.129 Q996.321 187.518 1001.9 187.518 Z" fill="#000000" fill-rule="evenodd" fill-opacity="1" /></svg>
