<?xml version="1.0" encoding="utf-8"?>
<svg xmlns="http://www.w3.org/2000/svg" xmlns:xlink="http://www.w3.org/1999/xlink" width="600" height="400" viewBox="0 0 2400 1600">
<defs>
  <clipPath id="clip540">
    <rect x="0" y="0" width="2400" height="1600"/>
  </clipPath>
</defs>
<path clip-path="url(#clip540)" d="
M0 1600 L2400 1600 L2400 0 L0 0  Z
  " fill="#ffffff" fill-rule="evenodd" fill-opacity="1"/>
<defs>
  <clipPath id="clip541">
    <rect x="480" y="0" width="1681" height="1600"/>
  </clipPath>
</defs>
<path clip-path="url(#clip540)" d="
M259.046 1423.18 L2352.76 1423.18 L2352.76 47.2441 L259.046 47.2441  Z
  " fill="#ffffff" fill-rule="evenodd" fill-opacity="1"/>
<defs>
  <clipPath id="clip542">
    <rect x="259" y="47" width="2095" height="1377"/>
  </clipPath>
</defs>
<polyline clip-path="url(#clip542)" style="stroke:#000000; stroke-width:2; stroke-opacity:0.1; fill:none" points="
  318.302,1423.18 318.302,47.2441 
  "/>
<polyline clip-path="url(#clip542)" style="stroke:#000000; stroke-width:2; stroke-opacity:0.1; fill:none" points="
  812.101,1423.18 812.101,47.2441 
  "/>
<polyline clip-path="url(#clip542)" style="stroke:#000000; stroke-width:2; stroke-opacity:0.1; fill:none" points="
  1305.9,1423.18 1305.9,47.2441 
  "/>
<polyline clip-path="url(#clip542)" style="stroke:#000000; stroke-width:2; stroke-opacity:0.1; fill:none" points="
  1799.7,1423.18 1799.7,47.2441 
  "/>
<polyline clip-path="url(#clip542)" style="stroke:#000000; stroke-width:2; stroke-opacity:0.1; fill:none" points="
  2293.5,1423.18 2293.5,47.2441 
  "/>
<polyline clip-path="url(#clip540)" style="stroke:#000000; stroke-width:4; stroke-opacity:1; fill:none" points="
  259.046,1423.18 2352.76,1423.18 
  "/>
<polyline clip-path="url(#clip540)" style="stroke:#000000; stroke-width:4; stroke-opacity:1; fill:none" points="
  318.302,1423.18 318.302,1406.67 
  "/>
<polyline clip-path="url(#clip540)" style="stroke:#000000; stroke-width:4; stroke-opacity:1; fill:none" points="
  812.101,1423.18 812.101,1406.67 
  "/>
<polyline clip-path="url(#clip540)" style="stroke:#000000; stroke-width:4; stroke-opacity:1; fill:none" points="
  1305.9,1423.18 1305.9,1406.67 
  "/>
<polyline clip-path="url(#clip540)" style="stroke:#000000; stroke-width:4; stroke-opacity:1; fill:none" points="
  1799.7,1423.18 1799.7,1406.67 
  "/>
<polyline clip-path="url(#clip540)" style="stroke:#000000; stroke-width:4; stroke-opacity:1; fill:none" points="
  2293.5,1423.18 2293.5,1406.67 
  "/>
<path clip-path="url(#clip540)" d="M 0 0 M280.605 1452.37 Q276.994 1452.37 275.165 1455.94 Q273.36 1459.48 273.36 1466.61 Q273.36 1473.71 275.165 1477.28 Q276.994 1480.82 280.605 1480.82 Q284.239 1480.82 286.045 1477.28 Q287.874 1473.71 287.874 1466.61 Q287.874 1459.48 286.045 1455.94 Q284.239 1452.37 280.605 1452.37 M280.605 1448.67 Q286.415 1448.67 289.471 1453.27 Q292.55 1457.86 292.55 1466.61 Q292.55 1475.33 289.471 1479.94 Q286.415 1484.52 280.605 1484.52 Q274.795 1484.52 271.716 1479.94 Q268.661 1475.33 268.661 1466.61 Q268.661 1457.86 271.716 1453.27 Q274.795 1448.67 280.605 1448.67 Z" fill="#000000" fill-rule="evenodd" fill-opacity="1" /><path clip-path="url(#clip540)" d="M 0 0 M300.767 1477.97 L305.651 1477.97 L305.651 1483.85 L300.767 1483.85 L300.767 1477.97 Z" fill="#000000" fill-rule="evenodd" fill-opacity="1" /><path clip-path="url(#clip540)" d="M 0 0 M325.836 1452.37 Q322.225 1452.37 320.397 1455.94 Q318.591 1459.48 318.591 1466.61 Q318.591 1473.71 320.397 1477.28 Q322.225 1480.82 325.836 1480.82 Q329.471 1480.82 331.276 1477.28 Q333.105 1473.71 333.105 1466.61 Q333.105 1459.48 331.276 1455.94 Q329.471 1452.37 325.836 1452.37 M325.836 1448.67 Q331.647 1448.67 334.702 1453.27 Q337.781 1457.86 337.781 1466.61 Q337.781 1475.33 334.702 1479.94 Q331.647 1484.52 325.836 1484.52 Q320.026 1484.52 316.948 1479.94 Q313.892 1475.33 313.892 1466.61 Q313.892 1457.86 316.948 1453.27 Q320.026 1448.67 325.836 1448.67 Z" fill="#000000" fill-rule="evenodd" fill-opacity="1" /><path clip-path="url(#clip540)" d="M 0 0 M355.998 1452.37 Q352.387 1452.37 350.558 1455.94 Q348.753 1459.48 348.753 1466.61 Q348.753 1473.71 350.558 1477.28 Q352.387 1480.82 355.998 1480.82 Q359.632 1480.82 361.438 1477.28 Q363.267 1473.71 363.267 1466.61 Q363.267 1459.48 361.438 1455.94 Q359.632 1452.37 355.998 1452.37 M355.998 1448.67 Q361.808 1448.67 364.864 1453.27 Q367.943 1457.86 367.943 1466.61 Q367.943 1475.33 364.864 1479.94 Q361.808 1484.52 355.998 1484.52 Q350.188 1484.52 347.109 1479.94 Q344.054 1475.33 344.054 1466.61 Q344.054 1457.86 347.109 1453.27 Q350.188 1448.67 355.998 1448.67 Z" fill="#000000" fill-rule="evenodd" fill-opacity="1" /><path clip-path="url(#clip540)" d="M 0 0 M774.902 1452.37 Q771.291 1452.37 769.463 1455.94 Q767.657 1459.48 767.657 1466.61 Q767.657 1473.71 769.463 1477.28 Q771.291 1480.82 774.902 1480.82 Q778.537 1480.82 780.342 1477.28 Q782.171 1473.71 782.171 1466.61 Q782.171 1459.48 780.342 1455.94 Q778.537 1452.37 774.902 1452.37 M774.902 1448.67 Q780.713 1448.67 783.768 1453.27 Q786.847 1457.86 786.847 1466.61 Q786.847 1475.33 783.768 1479.94 Q780.713 1484.52 774.902 1484.52 Q769.092 1484.52 766.014 1479.94 Q762.958 1475.33 762.958 1466.61 Q762.958 1457.86 766.014 1453.27 Q769.092 1448.67 774.902 1448.67 Z" fill="#000000" fill-rule="evenodd" fill-opacity="1" /><path clip-path="url(#clip540)" d="M 0 0 M795.064 1477.97 L799.949 1477.97 L799.949 1483.85 L795.064 1483.85 L795.064 1477.97 Z" fill="#000000" fill-rule="evenodd" fill-opacity="1" /><path clip-path="url(#clip540)" d="M 0 0 M814.161 1479.92 L830.481 1479.92 L830.481 1483.85 L808.536 1483.85 L808.536 1479.92 Q811.198 1477.16 815.782 1472.53 Q820.388 1467.88 821.569 1466.54 Q823.814 1464.01 824.694 1462.28 Q825.597 1460.52 825.597 1458.83 Q825.597 1456.07 823.652 1454.34 Q821.731 1452.6 818.629 1452.6 Q816.43 1452.6 813.976 1453.37 Q811.546 1454.13 808.768 1455.68 L808.768 1450.96 Q811.592 1449.82 814.046 1449.25 Q816.499 1448.67 818.536 1448.67 Q823.907 1448.67 827.101 1451.35 Q830.296 1454.04 830.296 1458.53 Q830.296 1460.66 829.485 1462.58 Q828.698 1464.48 826.592 1467.07 Q826.013 1467.74 822.911 1470.96 Q819.81 1474.15 814.161 1479.92 Z" fill="#000000" fill-rule="evenodd" fill-opacity="1" /><path clip-path="url(#clip540)" d="M 0 0 M840.342 1449.29 L858.698 1449.29 L858.698 1453.23 L844.624 1453.23 L844.624 1461.7 Q845.643 1461.35 846.661 1461.19 Q847.68 1461 848.698 1461 Q854.485 1461 857.865 1464.18 Q861.245 1467.35 861.245 1472.76 Q861.245 1478.34 857.772 1481.44 Q854.3 1484.52 847.981 1484.52 Q845.805 1484.52 843.536 1484.15 Q841.291 1483.78 838.884 1483.04 L838.884 1478.34 Q840.967 1479.48 843.189 1480.03 Q845.411 1480.59 847.888 1480.59 Q851.893 1480.59 854.231 1478.48 Q856.569 1476.38 856.569 1472.76 Q856.569 1469.15 854.231 1467.05 Q851.893 1464.94 847.888 1464.94 Q846.013 1464.94 844.138 1465.36 Q842.286 1465.77 840.342 1466.65 L840.342 1449.29 Z" fill="#000000" fill-rule="evenodd" fill-opacity="1" /><path clip-path="url(#clip540)" d="M 0 0 M1268.2 1452.37 Q1264.59 1452.37 1262.76 1455.94 Q1260.96 1459.48 1260.96 1466.61 Q1260.96 1473.71 1262.76 1477.28 Q1264.59 1480.82 1268.2 1480.82 Q1271.84 1480.82 1273.64 1477.28 Q1275.47 1473.71 1275.47 1466.61 Q1275.47 1459.48 1273.64 1455.94 Q1271.84 1452.37 1268.2 1452.37 M1268.2 1448.67 Q1274.01 1448.67 1277.07 1453.27 Q1280.15 1457.86 1280.15 1466.61 Q1280.15 1475.33 1277.07 1479.94 Q1274.01 1484.52 1268.2 1484.52 Q1262.39 1484.52 1259.32 1479.94 Q1256.26 1475.33 1256.26 1466.61 Q1256.26 1457.86 1259.32 1453.27 Q1262.39 1448.67 1268.2 1448.67 Z" fill="#000000" fill-rule="evenodd" fill-opacity="1" /><path clip-path="url(#clip540)" d="M 0 0 M1288.37 1477.97 L1293.25 1477.97 L1293.25 1483.85 L1288.37 1483.85 L1288.37 1477.97 Z" fill="#000000" fill-rule="evenodd" fill-opacity="1" /><path clip-path="url(#clip540)" d="M 0 0 M1303.48 1449.29 L1321.84 1449.29 L1321.84 1453.23 L1307.76 1453.23 L1307.76 1461.7 Q1308.78 1461.35 1309.8 1461.19 Q1310.82 1461 1311.84 1461 Q1317.63 1461 1321 1464.18 Q1324.38 1467.35 1324.38 1472.76 Q1324.38 1478.34 1320.91 1481.44 Q1317.44 1484.52 1311.12 1484.52 Q1308.94 1484.52 1306.68 1484.15 Q1304.43 1483.78 1302.02 1483.04 L1302.02 1478.34 Q1304.11 1479.48 1306.33 1480.03 Q1308.55 1480.59 1311.03 1480.59 Q1315.03 1480.59 1317.37 1478.48 Q1319.71 1476.38 1319.71 1472.76 Q1319.71 1469.15 1317.37 1467.05 Q1315.03 1464.94 1311.03 1464.94 Q1309.15 1464.94 1307.28 1465.36 Q1305.43 1465.77 1303.48 1466.65 L1303.48 1449.29 Z" fill="#000000" fill-rule="evenodd" fill-opacity="1" /><path clip-path="url(#clip540)" d="M 0 0 M1343.6 1452.37 Q1339.99 1452.37 1338.16 1455.94 Q1336.35 1459.48 1336.35 1466.61 Q1336.35 1473.71 1338.16 1477.28 Q1339.99 1480.82 1343.6 1480.82 Q1347.23 1480.82 1349.04 1477.28 Q1350.87 1473.71 1350.87 1466.61 Q1350.87 1459.48 1349.04 1455.94 Q1347.23 1452.37 1343.6 1452.37 M1343.6 1448.67 Q1349.41 1448.67 1352.46 1453.27 Q1355.54 1457.86 1355.54 1466.61 Q1355.54 1475.33 1352.46 1479.94 Q1349.41 1484.52 1343.6 1484.52 Q1337.79 1484.52 1334.71 1479.94 Q1331.65 1475.33 1331.65 1466.61 Q1331.65 1457.86 1334.71 1453.27 Q1337.79 1448.67 1343.6 1448.67 Z" fill="#000000" fill-rule="evenodd" fill-opacity="1" /><path clip-path="url(#clip540)" d="M 0 0 M1762.5 1452.37 Q1758.89 1452.37 1757.06 1455.94 Q1755.26 1459.48 1755.26 1466.61 Q1755.26 1473.71 1757.06 1477.28 Q1758.89 1480.82 1762.5 1480.82 Q1766.14 1480.82 1767.94 1477.28 Q1769.77 1473.71 1769.77 1466.61 Q1769.77 1459.48 1767.94 1455.94 Q1766.14 1452.37 1762.5 1452.37 M1762.5 1448.67 Q1768.31 1448.67 1771.37 1453.27 Q1774.45 1457.86 1774.45 1466.61 Q1774.45 1475.33 1771.37 1479.94 Q1768.31 1484.52 1762.5 1484.52 Q1756.69 1484.52 1753.61 1479.94 Q1750.56 1475.33 1750.56 1466.61 Q1750.56 1457.86 1753.61 1453.27 Q1756.69 1448.67 1762.5 1448.67 Z" fill="#000000" fill-rule="evenodd" fill-opacity="1" /><path clip-path="url(#clip540)" d="M 0 0 M1782.66 1477.97 L1787.55 1477.97 L1787.55 1483.85 L1782.66 1483.85 L1782.66 1477.97 Z" fill="#000000" fill-rule="evenodd" fill-opacity="1" /><path clip-path="url(#clip540)" d="M 0 0 M1796.55 1449.29 L1818.77 1449.29 L1818.77 1451.28 L1806.23 1483.85 L1801.34 1483.85 L1813.15 1453.23 L1796.55 1453.23 L1796.55 1449.29 Z" fill="#000000" fill-rule="evenodd" fill-opacity="1" /><path clip-path="url(#clip540)" d="M 0 0 M1827.94 1449.29 L1846.3 1449.29 L1846.3 1453.23 L1832.22 1453.23 L1832.22 1461.7 Q1833.24 1461.35 1834.26 1461.19 Q1835.28 1461 1836.3 1461 Q1842.08 1461 1845.46 1464.18 Q1848.84 1467.35 1848.84 1472.76 Q1848.84 1478.34 1845.37 1481.44 Q1841.9 1484.52 1835.58 1484.52 Q1833.4 1484.52 1831.14 1484.15 Q1828.89 1483.78 1826.48 1483.04 L1826.48 1478.34 Q1828.57 1479.48 1830.79 1480.03 Q1833.01 1480.59 1835.49 1480.59 Q1839.49 1480.59 1841.83 1478.48 Q1844.17 1476.38 1844.17 1472.76 Q1844.17 1469.15 1841.83 1467.05 Q1839.49 1464.94 1835.49 1464.94 Q1833.61 1464.94 1831.74 1465.36 Q1829.89 1465.77 1827.94 1466.65 L1827.94 1449.29 Z" fill="#000000" fill-rule="evenodd" fill-opacity="1" /><path clip-path="url(#clip540)" d="M 0 0 M2245.57 1479.92 L2253.21 1479.92 L2253.21 1453.55 L2244.9 1455.22 L2244.9 1450.96 L2253.16 1449.29 L2257.84 1449.29 L2257.84 1479.92 L2265.48 1479.92 L2265.48 1483.85 L2245.57 1483.85 L2245.57 1479.92 Z" fill="#000000" fill-rule="evenodd" fill-opacity="1" /><path clip-path="url(#clip540)" d="M 0 0 M2274.92 1477.97 L2279.81 1477.97 L2279.81 1483.85 L2274.92 1483.85 L2274.92 1477.97 Z" fill="#000000" fill-rule="evenodd" fill-opacity="1" /><path clip-path="url(#clip540)" d="M 0 0 M2299.99 1452.37 Q2296.38 1452.37 2294.55 1455.94 Q2292.75 1459.48 2292.75 1466.61 Q2292.75 1473.71 2294.55 1477.28 Q2296.38 1480.82 2299.99 1480.82 Q2303.63 1480.82 2305.43 1477.28 Q2307.26 1473.71 2307.26 1466.61 Q2307.26 1459.48 2305.43 1455.94 Q2303.63 1452.37 2299.99 1452.37 M2299.99 1448.67 Q2305.8 1448.67 2308.86 1453.27 Q2311.94 1457.86 2311.94 1466.61 Q2311.94 1475.33 2308.86 1479.94 Q2305.8 1484.52 2299.99 1484.52 Q2294.18 1484.52 2291.1 1479.94 Q2288.05 1475.33 2288.05 1466.61 Q2288.05 1457.86 2291.1 1453.27 Q2294.18 1448.67 2299.99 1448.67 Z" fill="#000000" fill-rule="evenodd" fill-opacity="1" /><path clip-path="url(#clip540)" d="M 0 0 M2330.15 1452.37 Q2326.54 1452.37 2324.72 1455.94 Q2322.91 1459.48 2322.91 1466.61 Q2322.91 1473.71 2324.72 1477.28 Q2326.54 1480.82 2330.15 1480.82 Q2333.79 1480.82 2335.59 1477.28 Q2337.42 1473.71 2337.42 1466.61 Q2337.42 1459.48 2335.59 1455.94 Q2333.79 1452.37 2330.15 1452.37 M2330.15 1448.67 Q2335.97 1448.67 2339.02 1453.27 Q2342.1 1457.86 2342.1 1466.61 Q2342.1 1475.33 2339.02 1479.94 Q2335.97 1484.52 2330.15 1484.52 Q2324.34 1484.52 2321.27 1479.94 Q2318.21 1475.33 2318.21 1466.61 Q2318.21 1457.86 2321.27 1453.27 Q2324.34 1448.67 2330.15 1448.67 Z" fill="#000000" fill-rule="evenodd" fill-opacity="1" /><path clip-path="url(#clip540)" d="M 0 0 M1106.92 1525.81 L1106.92 1543.66 L1115.01 1543.66 Q1119.5 1543.66 1121.95 1541.34 Q1124.4 1539.02 1124.4 1534.72 Q1124.4 1530.45 1121.95 1528.13 Q1119.5 1525.81 1115.01 1525.81 L1106.92 1525.81 M1100.5 1520.52 L1115.01 1520.52 Q1123 1520.52 1127.07 1524.15 Q1131.18 1527.75 1131.18 1534.72 Q1131.18 1541.75 1127.07 1545.35 Q1123 1548.95 1115.01 1548.95 L1106.92 1548.95 L1106.92 1568.04 L1100.5 1568.04 L1100.5 1520.52 Z" fill="#000000" fill-rule="evenodd" fill-opacity="1" /><path clip-path="url(#clip540)" d="M 0 0 M1152.82 1550.12 Q1145.72 1550.12 1142.99 1551.75 Q1140.25 1553.37 1140.25 1557.29 Q1140.25 1560.4 1142.29 1562.25 Q1144.36 1564.07 1147.89 1564.07 Q1152.76 1564.07 1155.69 1560.63 Q1158.65 1557.16 1158.65 1551.43 L1158.65 1550.12 L1152.82 1550.12 M1164.5 1547.71 L1164.5 1568.04 L1158.65 1568.04 L1158.65 1562.63 Q1156.64 1565.88 1153.65 1567.44 Q1150.66 1568.97 1146.33 1568.97 Q1140.85 1568.97 1137.61 1565.91 Q1134.39 1562.82 1134.39 1557.67 Q1134.39 1551.65 1138.4 1548.6 Q1142.45 1545.54 1150.43 1545.54 L1158.65 1545.54 L1158.65 1544.97 Q1158.65 1540.93 1155.97 1538.73 Q1153.33 1536.5 1148.52 1536.5 Q1145.47 1536.5 1142.57 1537.23 Q1139.68 1537.97 1137 1539.43 L1137 1534.02 Q1140.22 1532.78 1143.24 1532.17 Q1146.26 1531.54 1149.13 1531.54 Q1156.86 1531.54 1160.68 1535.55 Q1164.5 1539.56 1164.5 1547.71 Z" fill="#000000" fill-rule="evenodd" fill-opacity="1" /><path clip-path="url(#clip540)" d="M 0 0 M1197.22 1537.87 Q1196.24 1537.3 1195.06 1537.04 Q1193.91 1536.76 1192.51 1536.76 Q1187.55 1536.76 1184.87 1540 Q1182.23 1543.22 1182.23 1549.27 L1182.23 1568.04 L1176.34 1568.04 L1176.34 1532.4 L1182.23 1532.4 L1182.23 1537.93 Q1184.08 1534.69 1187.04 1533.13 Q1190 1531.54 1194.23 1531.54 Q1194.84 1531.54 1195.57 1531.63 Q1196.3 1531.7 1197.19 1531.85 L1197.22 1537.87 Z" fill="#000000" fill-rule="evenodd" fill-opacity="1" /><path clip-path="url(#clip540)" d="M 0 0 M1219.57 1550.12 Q1212.47 1550.12 1209.73 1551.75 Q1206.99 1553.37 1206.99 1557.29 Q1206.99 1560.4 1209.03 1562.25 Q1211.1 1564.07 1214.63 1564.07 Q1219.5 1564.07 1222.43 1560.63 Q1225.39 1557.16 1225.39 1551.43 L1225.39 1550.12 L1219.57 1550.12 M1231.25 1547.71 L1231.25 1568.04 L1225.39 1568.04 L1225.39 1562.63 Q1223.39 1565.88 1220.39 1567.44 Q1217.4 1568.97 1213.07 1568.97 Q1207.6 1568.97 1204.35 1565.91 Q1201.14 1562.82 1201.14 1557.67 Q1201.14 1551.65 1205.15 1548.6 Q1209.19 1545.54 1217.18 1545.54 L1225.39 1545.54 L1225.39 1544.97 Q1225.39 1540.93 1222.72 1538.73 Q1220.08 1536.5 1215.27 1536.5 Q1212.21 1536.5 1209.32 1537.23 Q1206.42 1537.97 1203.75 1539.43 L1203.75 1534.02 Q1206.96 1532.78 1209.99 1532.17 Q1213.01 1531.54 1215.87 1531.54 Q1223.61 1531.54 1227.43 1535.55 Q1231.25 1539.56 1231.25 1547.71 Z" fill="#000000" fill-rule="evenodd" fill-opacity="1" /><path clip-path="url(#clip540)" d="M 0 0 M1271.06 1539.24 Q1273.26 1535.29 1276.32 1533.41 Q1279.37 1531.54 1283.51 1531.54 Q1289.08 1531.54 1292.1 1535.45 Q1295.13 1539.33 1295.13 1546.53 L1295.13 1568.04 L1289.24 1568.04 L1289.24 1546.72 Q1289.24 1541.59 1287.42 1539.11 Q1285.61 1536.63 1281.89 1536.63 Q1277.33 1536.63 1274.69 1539.65 Q1272.05 1542.68 1272.05 1547.9 L1272.05 1568.04 L1266.16 1568.04 L1266.16 1546.72 Q1266.16 1541.56 1264.35 1539.11 Q1262.53 1536.63 1258.75 1536.63 Q1254.26 1536.63 1251.62 1539.68 Q1248.98 1542.71 1248.98 1547.9 L1248.98 1568.04 L1243.09 1568.04 L1243.09 1532.4 L1248.98 1532.4 L1248.98 1537.93 Q1250.98 1534.66 1253.78 1533.1 Q1256.58 1531.54 1260.43 1531.54 Q1264.32 1531.54 1267.02 1533.51 Q1269.76 1535.48 1271.06 1539.24 Z" fill="#000000" fill-rule="evenodd" fill-opacity="1" /><path clip-path="url(#clip540)" d="M 0 0 M1337.3 1548.76 L1337.3 1551.62 L1310.37 1551.62 Q1310.75 1557.67 1314 1560.85 Q1317.28 1564 1323.1 1564 Q1326.48 1564 1329.63 1563.17 Q1332.81 1562.35 1335.93 1560.69 L1335.93 1566.23 Q1332.78 1567.57 1329.47 1568.27 Q1326.16 1568.97 1322.75 1568.97 Q1314.22 1568.97 1309.23 1564 Q1304.26 1559.04 1304.26 1550.57 Q1304.26 1541.82 1308.97 1536.69 Q1313.71 1531.54 1321.74 1531.54 Q1328.93 1531.54 1333.1 1536.18 Q1337.3 1540.8 1337.3 1548.76 M1331.44 1547.04 Q1331.38 1542.23 1328.74 1539.37 Q1326.13 1536.5 1321.8 1536.5 Q1316.9 1536.5 1313.94 1539.27 Q1311.01 1542.04 1310.56 1547.07 L1331.44 1547.04 Z" fill="#000000" fill-rule="evenodd" fill-opacity="1" /><path clip-path="url(#clip540)" d="M 0 0 M1352.7 1522.27 L1352.7 1532.4 L1364.77 1532.4 L1364.77 1536.95 L1352.7 1536.95 L1352.7 1556.3 Q1352.7 1560.66 1353.88 1561.9 Q1355.09 1563.14 1358.75 1563.14 L1364.77 1563.14 L1364.77 1568.04 L1358.75 1568.04 Q1351.97 1568.04 1349.39 1565.53 Q1346.82 1562.98 1346.82 1556.3 L1346.82 1536.95 L1342.52 1536.95 L1342.52 1532.4 L1346.82 1532.4 L1346.82 1522.27 L1352.7 1522.27 Z" fill="#000000" fill-rule="evenodd" fill-opacity="1" /><path clip-path="url(#clip540)" d="M 0 0 M1402.96 1548.76 L1402.96 1551.62 L1376.03 1551.62 Q1376.42 1557.67 1379.66 1560.85 Q1382.94 1564 1388.77 1564 Q1392.14 1564 1395.29 1563.17 Q1398.47 1562.35 1401.59 1560.69 L1401.59 1566.23 Q1398.44 1567.57 1395.13 1568.27 Q1391.82 1568.97 1388.42 1568.97 Q1379.89 1568.97 1374.89 1564 Q1369.92 1559.04 1369.92 1550.57 Q1369.92 1541.82 1374.63 1536.69 Q1379.38 1531.54 1387.4 1531.54 Q1394.59 1531.54 1398.76 1536.18 Q1402.96 1540.8 1402.96 1548.76 M1397.11 1547.04 Q1397.04 1542.23 1394.4 1539.37 Q1391.79 1536.5 1387.46 1536.5 Q1382.56 1536.5 1379.6 1539.27 Q1376.67 1542.04 1376.23 1547.07 L1397.11 1547.04 Z" fill="#000000" fill-rule="evenodd" fill-opacity="1" /><path clip-path="url(#clip540)" d="M 0 0 M1433.23 1537.87 Q1432.24 1537.3 1431.07 1537.04 Q1429.92 1536.76 1428.52 1536.76 Q1423.55 1536.76 1420.88 1540 Q1418.24 1543.22 1418.24 1549.27 L1418.24 1568.04 L1412.35 1568.04 L1412.35 1532.4 L1418.24 1532.4 L1418.24 1537.93 Q1420.09 1534.69 1423.05 1533.13 Q1426.01 1531.54 1430.24 1531.54 Q1430.84 1531.54 1431.58 1531.63 Q1432.31 1531.7 1433.2 1531.85 L1433.23 1537.87 Z" fill="#000000" fill-rule="evenodd" fill-opacity="1" /><path clip-path="url(#clip540)" d="M 0 0 M1440.87 1559.96 L1447.59 1559.96 L1447.59 1565.43 L1442.37 1575.62 L1438.26 1575.62 L1440.87 1565.43 L1440.87 1559.96 Z" fill="#000000" fill-rule="evenodd" fill-opacity="1" /><path clip-path="url(#clip540)" d="M 0 0 M1494.85 1524.09 L1511.31 1568.04 L1505.1 1568.04 L1495.11 1541.69 L1482.82 1568.04 L1476.61 1568.04 L1492.24 1533.86 L1489.89 1527.56 Q1488.39 1523.55 1484.98 1523.55 L1481.93 1523.55 L1481.93 1518.52 L1485.65 1518.58 Q1492.85 1518.68 1494.85 1524.09 Z" fill="#000000" fill-rule="evenodd" fill-opacity="1" /><polyline clip-path="url(#clip542)" style="stroke:#000000; stroke-width:2; stroke-opacity:0.1; fill:none" points="
  259.046,1402.35 2352.76,1402.35 
  "/>
<polyline clip-path="url(#clip542)" style="stroke:#000000; stroke-width:2; stroke-opacity:0.1; fill:none" points="
  259.046,1102.18 2352.76,1102.18 
  "/>
<polyline clip-path="url(#clip542)" style="stroke:#000000; stroke-width:2; stroke-opacity:0.1; fill:none" points="
  259.046,802.009 2352.76,802.009 
  "/>
<polyline clip-path="url(#clip542)" style="stroke:#000000; stroke-width:2; stroke-opacity:0.1; fill:none" points="
  259.046,501.837 2352.76,501.837 
  "/>
<polyline clip-path="url(#clip542)" style="stroke:#000000; stroke-width:2; stroke-opacity:0.1; fill:none" points="
  259.046,201.665 2352.76,201.665 
  "/>
<polyline clip-path="url(#clip540)" style="stroke:#000000; stroke-width:4; stroke-opacity:1; fill:none" points="
  259.046,1423.18 259.046,47.2441 
  "/>
<polyline clip-path="url(#clip540)" style="stroke:#000000; stroke-width:4; stroke-opacity:1; fill:none" points="
  259.046,1402.35 284.17,1402.35 
  "/>
<polyline clip-path="url(#clip540)" style="stroke:#000000; stroke-width:4; stroke-opacity:1; fill:none" points="
  259.046,1102.18 284.17,1102.18 
  "/>
<polyline clip-path="url(#clip540)" style="stroke:#000000; stroke-width:4; stroke-opacity:1; fill:none" points="
  259.046,802.009 284.17,802.009 
  "/>
<polyline clip-path="url(#clip540)" style="stroke:#000000; stroke-width:4; stroke-opacity:1; fill:none" points="
  259.046,501.837 284.17,501.837 
  "/>
<polyline clip-path="url(#clip540)" style="stroke:#000000; stroke-width:4; stroke-opacity:1; fill:none" points="
  259.046,201.665 284.17,201.665 
  "/>
<path clip-path="url(#clip540)" d="M 0 0 M114.931 1422.15 L122.57 1422.15 L122.57 1395.78 L114.26 1397.45 L114.26 1393.19 L122.524 1391.52 L127.2 1391.52 L127.2 1422.15 L134.839 1422.15 L134.839 1426.08 L114.931 1426.08 L114.931 1422.15 Z" fill="#000000" fill-rule="evenodd" fill-opacity="1" /><path clip-path="url(#clip540)" d="M 0 0 M154.283 1394.6 Q150.672 1394.6 148.843 1398.16 Q147.038 1401.71 147.038 1408.84 Q147.038 1415.94 148.843 1419.51 Q150.672 1423.05 154.283 1423.05 Q157.917 1423.05 159.723 1419.51 Q161.552 1415.94 161.552 1408.84 Q161.552 1401.71 159.723 1398.16 Q157.917 1394.6 154.283 1394.6 M154.283 1390.9 Q160.093 1390.9 163.149 1395.5 Q166.227 1400.09 166.227 1408.84 Q166.227 1417.56 163.149 1422.17 Q160.093 1426.75 154.283 1426.75 Q148.473 1426.75 145.394 1422.17 Q142.339 1417.56 142.339 1408.84 Q142.339 1400.09 145.394 1395.5 Q148.473 1390.9 154.283 1390.9 Z" fill="#000000" fill-rule="evenodd" fill-opacity="1" /><path clip-path="url(#clip540)" d="M 0 0 M178.904 1373.9 L169.312 1388.89 L178.904 1388.89 L178.904 1373.9 M177.907 1370.59 L182.684 1370.59 L182.684 1388.89 L186.69 1388.89 L186.69 1392.05 L182.684 1392.05 L182.684 1398.67 L178.904 1398.67 L178.904 1392.05 L166.227 1392.05 L166.227 1388.38 L177.907 1370.59 Z" fill="#000000" fill-rule="evenodd" fill-opacity="1" /><path clip-path="url(#clip540)" d="M 0 0 M192.972 1393.89 L196.941 1393.89 L196.941 1398.67 L192.972 1398.67 L192.972 1393.89 Z" fill="#000000" fill-rule="evenodd" fill-opacity="1" /><path clip-path="url(#clip540)" d="M 0 0 M213.341 1373.09 Q210.407 1373.09 208.921 1375.99 Q207.454 1378.87 207.454 1384.66 Q207.454 1390.43 208.921 1393.33 Q210.407 1396.21 213.341 1396.21 Q216.294 1396.21 217.761 1393.33 Q219.247 1390.43 219.247 1384.66 Q219.247 1378.87 217.761 1375.99 Q216.294 1373.09 213.341 1373.09 M213.341 1370.08 Q218.062 1370.08 220.544 1373.83 Q223.046 1377.55 223.046 1384.66 Q223.046 1391.75 220.544 1395.49 Q218.062 1399.22 213.341 1399.22 Q208.62 1399.22 206.119 1395.49 Q203.636 1391.75 203.636 1384.66 Q203.636 1377.55 206.119 1373.83 Q208.62 1370.08 213.341 1370.08 Z" fill="#000000" fill-rule="evenodd" fill-opacity="1" /><path clip-path="url(#clip540)" d="M 0 0 M115.74 1121.97 L123.379 1121.97 L123.379 1095.61 L115.069 1097.27 L115.069 1093.02 L123.333 1091.35 L128.009 1091.35 L128.009 1121.97 L135.647 1121.97 L135.647 1125.91 L115.74 1125.91 L115.74 1121.97 Z" fill="#000000" fill-rule="evenodd" fill-opacity="1" /><path clip-path="url(#clip540)" d="M 0 0 M155.092 1094.43 Q151.481 1094.43 149.652 1097.99 Q147.846 1101.53 147.846 1108.66 Q147.846 1115.77 149.652 1119.33 Q151.481 1122.88 155.092 1122.88 Q158.726 1122.88 160.532 1119.33 Q162.36 1115.77 162.36 1108.66 Q162.36 1101.53 160.532 1097.99 Q158.726 1094.43 155.092 1094.43 M155.092 1090.72 Q160.902 1090.72 163.958 1095.33 Q167.036 1099.91 167.036 1108.66 Q167.036 1117.39 163.958 1122 Q160.902 1126.58 155.092 1126.58 Q149.282 1126.58 146.203 1122 Q143.147 1117.39 143.147 1108.66 Q143.147 1099.91 146.203 1095.33 Q149.282 1090.72 155.092 1090.72 Z" fill="#000000" fill-rule="evenodd" fill-opacity="1" /><path clip-path="url(#clip540)" d="M 0 0 M179.713 1073.73 L170.121 1088.72 L179.713 1088.72 L179.713 1073.73 M178.716 1070.42 L183.493 1070.42 L183.493 1088.72 L187.499 1088.72 L187.499 1091.88 L183.493 1091.88 L183.493 1098.5 L179.713 1098.5 L179.713 1091.88 L167.036 1091.88 L167.036 1088.21 L178.716 1070.42 Z" fill="#000000" fill-rule="evenodd" fill-opacity="1" /><path clip-path="url(#clip540)" d="M 0 0 M193.781 1093.72 L197.749 1093.72 L197.749 1098.5 L193.781 1098.5 L193.781 1093.72 Z" fill="#000000" fill-rule="evenodd" fill-opacity="1" /><path clip-path="url(#clip540)" d="M 0 0 M206.062 1070.42 L220.977 1070.42 L220.977 1073.62 L209.542 1073.62 L209.542 1080.5 Q210.369 1080.22 211.197 1080.09 Q212.024 1079.93 212.852 1079.93 Q217.554 1079.93 220.3 1082.51 Q223.046 1085.09 223.046 1089.49 Q223.046 1094.02 220.225 1096.54 Q217.403 1099.04 212.269 1099.04 Q210.501 1099.04 208.658 1098.74 Q206.833 1098.44 204.877 1097.84 L204.877 1094.02 Q206.57 1094.94 208.376 1095.39 Q210.181 1095.85 212.194 1095.85 Q215.447 1095.85 217.347 1094.13 Q219.247 1092.42 219.247 1089.49 Q219.247 1086.56 217.347 1084.84 Q215.447 1083.13 212.194 1083.13 Q210.67 1083.13 209.147 1083.47 Q207.642 1083.81 206.062 1084.52 L206.062 1070.42 Z" fill="#000000" fill-rule="evenodd" fill-opacity="1" /><path clip-path="url(#clip540)" d="M 0 0 M116.022 821.801 L123.661 821.801 L123.661 795.436 L115.351 797.102 L115.351 792.843 L123.615 791.176 L128.291 791.176 L128.291 821.801 L135.93 821.801 L135.93 825.736 L116.022 825.736 L116.022 821.801 Z" fill="#000000" fill-rule="evenodd" fill-opacity="1" /><path clip-path="url(#clip540)" d="M 0 0 M155.374 794.255 Q151.763 794.255 149.934 797.82 Q148.129 801.362 148.129 808.491 Q148.129 815.598 149.934 819.162 Q151.763 822.704 155.374 822.704 Q159.008 822.704 160.814 819.162 Q162.642 815.598 162.642 808.491 Q162.642 801.362 160.814 797.82 Q159.008 794.255 155.374 794.255 M155.374 790.551 Q161.184 790.551 164.24 795.158 Q167.318 799.741 167.318 808.491 Q167.318 817.218 164.24 821.824 Q161.184 826.408 155.374 826.408 Q149.564 826.408 146.485 821.824 Q143.43 817.218 143.43 808.491 Q143.43 799.741 146.485 795.158 Q149.564 790.551 155.374 790.551 Z" fill="#000000" fill-rule="evenodd" fill-opacity="1" /><path clip-path="url(#clip540)" d="M 0 0 M168.503 770.246 L183.418 770.246 L183.418 773.443 L171.983 773.443 L171.983 780.327 Q172.81 780.045 173.638 779.913 Q174.465 779.763 175.293 779.763 Q179.995 779.763 182.741 782.339 Q185.487 784.916 185.487 789.317 Q185.487 793.85 182.665 796.37 Q179.844 798.871 174.71 798.871 Q172.942 798.871 171.099 798.57 Q169.274 798.27 167.318 797.668 L167.318 793.85 Q169.011 794.771 170.817 795.223 Q172.622 795.674 174.635 795.674 Q177.888 795.674 179.788 793.963 Q181.687 792.251 181.687 789.317 Q181.687 786.383 179.788 784.672 Q177.888 782.96 174.635 782.96 Q173.111 782.96 171.588 783.299 Q170.083 783.637 168.503 784.352 L168.503 770.246 Z" fill="#000000" fill-rule="evenodd" fill-opacity="1" /><path clip-path="url(#clip540)" d="M 0 0 M192.972 793.549 L196.941 793.549 L196.941 798.326 L192.972 798.326 L192.972 793.549 Z" fill="#000000" fill-rule="evenodd" fill-opacity="1" /><path clip-path="url(#clip540)" d="M 0 0 M213.341 772.747 Q210.407 772.747 208.921 775.644 Q207.454 778.521 207.454 784.314 Q207.454 790.088 208.921 792.985 Q210.407 795.862 213.341 795.862 Q216.294 795.862 217.761 792.985 Q219.247 790.088 219.247 784.314 Q219.247 778.521 217.761 775.644 Q216.294 772.747 213.341 772.747 M213.341 769.738 Q218.062 769.738 220.544 773.481 Q223.046 777.205 223.046 784.314 Q223.046 791.405 220.544 795.147 Q218.062 798.871 213.341 798.871 Q208.62 798.871 206.119 795.147 Q203.636 791.405 203.636 784.314 Q203.636 777.205 206.119 773.481 Q208.62 769.738 213.341 769.738 Z" fill="#000000" fill-rule="evenodd" fill-opacity="1" /><path clip-path="url(#clip540)" d="M 0 0 M116.831 521.629 L124.47 521.629 L124.47 495.264 L116.16 496.93 L116.16 492.671 L124.424 491.004 L129.099 491.004 L129.099 521.629 L136.738 521.629 L136.738 525.564 L116.831 525.564 L116.831 521.629 Z" fill="#000000" fill-rule="evenodd" fill-opacity="1" /><path clip-path="url(#clip540)" d="M 0 0 M156.183 494.083 Q152.572 494.083 150.743 497.648 Q148.937 501.189 148.937 508.319 Q148.937 515.425 150.743 518.99 Q152.572 522.532 156.183 522.532 Q159.817 522.532 161.622 518.99 Q163.451 515.425 163.451 508.319 Q163.451 501.189 161.622 497.648 Q159.817 494.083 156.183 494.083 M156.183 490.379 Q161.993 490.379 165.048 494.986 Q168.127 499.569 168.127 508.319 Q168.127 517.046 165.048 521.652 Q161.993 526.236 156.183 526.236 Q150.373 526.236 147.294 521.652 Q144.238 517.046 144.238 508.319 Q144.238 499.569 147.294 494.986 Q150.373 490.379 156.183 490.379 Z" fill="#000000" fill-rule="evenodd" fill-opacity="1" /><path clip-path="url(#clip540)" d="M 0 0 M169.312 470.074 L184.227 470.074 L184.227 473.271 L172.791 473.271 L172.791 480.155 Q173.619 479.873 174.446 479.741 Q175.274 479.591 176.102 479.591 Q180.803 479.591 183.549 482.167 Q186.295 484.744 186.295 489.145 Q186.295 493.678 183.474 496.198 Q180.653 498.699 175.519 498.699 Q173.751 498.699 171.907 498.398 Q170.083 498.097 168.127 497.496 L168.127 493.678 Q169.82 494.599 171.625 495.051 Q173.431 495.502 175.443 495.502 Q178.697 495.502 180.597 493.79 Q182.496 492.079 182.496 489.145 Q182.496 486.211 180.597 484.499 Q178.697 482.788 175.443 482.788 Q173.92 482.788 172.396 483.126 Q170.892 483.465 169.312 484.18 L169.312 470.074 Z" fill="#000000" fill-rule="evenodd" fill-opacity="1" /><path clip-path="url(#clip540)" d="M 0 0 M193.781 493.377 L197.749 493.377 L197.749 498.154 L193.781 498.154 L193.781 493.377 Z" fill="#000000" fill-rule="evenodd" fill-opacity="1" /><path clip-path="url(#clip540)" d="M 0 0 M206.062 470.074 L220.977 470.074 L220.977 473.271 L209.542 473.271 L209.542 480.155 Q210.369 479.873 211.197 479.741 Q212.024 479.591 212.852 479.591 Q217.554 479.591 220.3 482.167 Q223.046 484.744 223.046 489.145 Q223.046 493.678 220.225 496.198 Q217.403 498.699 212.269 498.699 Q210.501 498.699 208.658 498.398 Q206.833 498.097 204.877 497.496 L204.877 493.678 Q206.57 494.599 208.376 495.051 Q210.181 495.502 212.194 495.502 Q215.447 495.502 217.347 493.79 Q219.247 492.079 219.247 489.145 Q219.247 486.211 217.347 484.499 Q215.447 482.788 212.194 482.788 Q210.67 482.788 209.147 483.126 Q207.642 483.465 206.062 484.18 L206.062 470.074 Z" fill="#000000" fill-rule="evenodd" fill-opacity="1" /><path clip-path="url(#clip540)" d="M 0 0 M115.74 221.457 L123.379 221.457 L123.379 195.091 L115.069 196.758 L115.069 192.499 L123.333 190.832 L128.009 190.832 L128.009 221.457 L135.647 221.457 L135.647 225.392 L115.74 225.392 L115.74 221.457 Z" fill="#000000" fill-rule="evenodd" fill-opacity="1" /><path clip-path="url(#clip540)" d="M 0 0 M155.092 193.911 Q151.481 193.911 149.652 197.476 Q147.846 201.017 147.846 208.147 Q147.846 215.253 149.652 218.818 Q151.481 222.36 155.092 222.36 Q158.726 222.36 160.532 218.818 Q162.36 215.253 162.36 208.147 Q162.36 201.017 160.532 197.476 Q158.726 193.911 155.092 193.911 M155.092 190.207 Q160.902 190.207 163.958 194.814 Q167.036 199.397 167.036 208.147 Q167.036 216.874 163.958 221.48 Q160.902 226.063 155.092 226.063 Q149.282 226.063 146.203 221.48 Q143.147 216.874 143.147 208.147 Q143.147 199.397 146.203 194.814 Q149.282 190.207 155.092 190.207 Z" fill="#000000" fill-rule="evenodd" fill-opacity="1" /><path clip-path="url(#clip540)" d="M 0 0 M177.061 182.428 Q174.503 182.428 172.998 184.177 Q171.512 185.926 171.512 188.973 Q171.512 192.001 172.998 193.769 Q174.503 195.518 177.061 195.518 Q179.619 195.518 181.104 193.769 Q182.609 192.001 182.609 188.973 Q182.609 185.926 181.104 184.177 Q179.619 182.428 177.061 182.428 M184.603 170.522 L184.603 173.983 Q183.173 173.306 181.706 172.949 Q180.258 172.591 178.829 172.591 Q175.067 172.591 173.073 175.13 Q171.099 177.669 170.817 182.804 Q171.926 181.168 173.6 180.302 Q175.274 179.418 177.286 179.418 Q181.518 179.418 183.963 181.995 Q186.427 184.553 186.427 188.973 Q186.427 193.299 183.869 195.913 Q181.311 198.527 177.061 198.527 Q172.19 198.527 169.613 194.803 Q167.036 191.06 167.036 183.97 Q167.036 177.312 170.196 173.362 Q173.356 169.394 178.678 169.394 Q180.108 169.394 181.556 169.676 Q183.023 169.958 184.603 170.522 Z" fill="#000000" fill-rule="evenodd" fill-opacity="1" /><path clip-path="url(#clip540)" d="M 0 0 M192.972 193.205 L196.941 193.205 L196.941 197.982 L192.972 197.982 L192.972 193.205 Z" fill="#000000" fill-rule="evenodd" fill-opacity="1" /><path clip-path="url(#clip540)" d="M 0 0 M213.341 172.403 Q210.407 172.403 208.921 175.3 Q207.454 178.177 207.454 183.97 Q207.454 189.744 208.921 192.64 Q210.407 195.518 213.341 195.518 Q216.294 195.518 217.761 192.64 Q219.247 189.744 219.247 183.97 Q219.247 178.177 217.761 175.3 Q216.294 172.403 213.341 172.403 M213.341 169.394 Q218.062 169.394 220.544 173.137 Q223.046 176.861 223.046 183.97 Q223.046 191.06 220.544 194.803 Q218.062 198.527 213.341 198.527 Q208.62 198.527 206.119 194.803 Q203.636 191.06 203.636 183.97 Q203.636 176.861 206.119 173.137 Q208.62 169.394 213.341 169.394 Z" fill="#000000" fill-rule="evenodd" fill-opacity="1" /><path clip-path="url(#clip540)" d="M 0 0 M20.1444 766.738 L26.9239 766.738 Q23.9002 769.985 22.4043 773.677 Q20.9083 777.337 20.9083 781.475 Q20.9083 789.623 25.9054 793.952 Q30.8707 798.28 40.2919 798.28 Q49.6813 798.28 54.6784 793.952 Q59.6436 789.623 59.6436 781.475 Q59.6436 777.337 58.1477 773.677 Q56.6518 769.985 53.6281 766.738 L60.3439 766.738 Q62.6355 770.112 63.7814 773.9 Q64.9272 777.655 64.9272 781.857 Q64.9272 792.647 58.3387 798.853 Q51.7183 805.06 40.2919 805.06 Q28.8336 805.06 22.2451 798.853 Q15.6248 792.647 15.6248 781.857 Q15.6248 777.592 16.7706 773.836 Q17.8846 770.048 20.1444 766.738 Z" fill="#000000" fill-rule="evenodd" fill-opacity="1" /><path clip-path="url(#clip540)" d="M 0 0 M32.4621 743.249 Q32.4621 747.959 36.1542 750.697 Q39.8145 753.434 46.212 753.434 Q52.6095 753.434 56.3017 750.728 Q59.9619 747.991 59.9619 743.249 Q59.9619 738.57 56.2698 735.833 Q52.5777 733.095 46.212 733.095 Q39.8781 733.095 36.186 735.833 Q32.4621 738.57 32.4621 743.249 M27.4968 743.249 Q27.4968 735.61 32.4621 731.249 Q37.4273 726.889 46.212 726.889 Q54.9649 726.889 59.9619 731.249 Q64.9272 735.61 64.9272 743.249 Q64.9272 750.919 59.9619 755.28 Q54.9649 759.609 46.212 759.609 Q37.4273 759.609 32.4621 755.28 Q27.4968 750.919 27.4968 743.249 Z" fill="#000000" fill-rule="evenodd" fill-opacity="1" /><path clip-path="url(#clip540)" d="M 0 0 M29.4065 694.456 L34.9447 694.456 Q33.6716 696.938 33.035 699.612 Q32.3984 702.285 32.3984 705.15 Q32.3984 709.51 33.7352 711.707 Q35.072 713.871 37.7456 713.871 Q39.7826 713.871 40.9603 712.311 Q42.1061 710.752 43.1565 706.041 L43.6021 704.036 Q44.9389 697.798 47.3897 695.188 Q49.8086 692.546 54.1691 692.546 Q59.1344 692.546 62.0308 696.493 Q64.9272 700.407 64.9272 707.282 Q64.9272 710.147 64.3543 713.266 Q63.8132 716.354 62.6992 719.791 L56.6518 719.791 Q58.3387 716.545 59.198 713.394 Q60.0256 710.242 60.0256 707.155 Q60.0256 703.017 58.6251 700.789 Q57.1929 698.561 54.6147 698.561 Q52.2276 698.561 50.9545 700.185 Q49.6813 701.776 48.5037 707.219 L48.0262 709.256 Q46.8804 714.698 44.5251 717.117 Q42.138 719.536 38.0002 719.536 Q32.9713 719.536 30.2341 715.972 Q27.4968 712.407 27.4968 705.85 Q27.4968 702.604 27.9743 699.739 Q28.4517 696.875 29.4065 694.456 Z" fill="#000000" fill-rule="evenodd" fill-opacity="1" /><path clip-path="url(#clip540)" d="M 0 0 M18.2347 677.427 L28.3562 677.427 L28.3562 665.364 L32.9077 665.364 L32.9077 677.427 L52.2594 677.427 Q56.6199 677.427 57.8613 676.25 Q59.1026 675.04 59.1026 671.38 L59.1026 665.364 L64.0042 665.364 L64.0042 671.38 Q64.0042 678.159 61.4897 680.737 Q58.9434 683.316 52.2594 683.316 L32.9077 683.316 L32.9077 687.612 L28.3562 687.612 L28.3562 683.316 L18.2347 683.316 L18.2347 677.427 Z" fill="#000000" fill-rule="evenodd" fill-opacity="1" /><polyline clip-path="url(#clip542)" style="stroke:#009af9; stroke-width:12; stroke-opacity:1; fill:none" points="
  318.302,86.1857 367.682,238.95 417.062,345.858 466.442,445.966 515.822,568.432 565.201,692.177 614.581,831.041 663.961,997.101 713.341,1184.27 762.721,1344.05 
  812.101,1384.24 861.481,1274.24 910.861,1120.02 960.241,1030.81 1009.62,942.654 1059,859.394 1108.38,796.82 1157.76,743.169 1207.14,704.755 1256.52,668.341 
  1305.9,625.894 1355.28,600.244 1404.66,575.803 1454.04,552.043 1503.42,532.95 1552.8,514.223 1602.18,496.036 1651.56,480.565 1700.94,467.264 1750.32,454.363 
  1799.7,440.224 1849.08,424.973 1898.46,419.33 1947.84,409.355 1997.22,401.236 2046.6,391.265 2095.98,384.343 2145.36,377.499 2194.74,368.525 2244.12,364.573 
  2293.5,356.583 
  "/>
<circle clip-path="url(#clip542)" cx="812.101" cy="1384.24" r="14" fill="#e26f46" fill-rule="evenodd" fill-opacity="1" stroke="#000000" stroke-opacity="1" stroke-width="3.2"/>
</svg>
