<?xml version="1.0" encoding="utf-8"?>
<svg xmlns="http://www.w3.org/2000/svg" xmlns:xlink="http://www.w3.org/1999/xlink" width="600" height="400" viewBox="0 0 2400 1600">
<defs>
  <clipPath id="clip500">
    <rect x="0" y="0" width="2400" height="1600"/>
  </clipPath>
</defs>
<path clip-path="url(#clip500)" d="
M0 1600 L2400 1600 L2400 0 L0 0  Z
  " fill="#ffffff" fill-rule="evenodd" fill-opacity="1"/>
<defs>
  <clipPath id="clip501">
    <rect x="480" y="0" width="1681" height="1600"/>
  </clipPath>
</defs>
<path clip-path="url(#clip500)" d="
M172.015 1486.45 L2352.76 1486.45 L2352.76 47.2441 L172.015 47.2441  Z
  " fill="#ffffff" fill-rule="evenodd" fill-opacity="1"/>
<defs>
  <clipPath id="clip502">
    <rect x="172" y="47" width="2182" height="1440"/>
  </clipPath>
</defs>
<polyline clip-path="url(#clip502)" style="stroke:#000000; stroke-width:2; stroke-opacity:0.1; fill:none" points="
  233.734,1486.45 233.734,47.2441 
  "/>
<polyline clip-path="url(#clip502)" style="stroke:#000000; stroke-width:2; stroke-opacity:0.1; fill:none" points="
  895.246,1486.45 895.246,47.2441 
  "/>
<polyline clip-path="url(#clip502)" style="stroke:#000000; stroke-width:2; stroke-opacity:0.1; fill:none" points="
  1556.76,1486.45 1556.76,47.2441 
  "/>
<polyline clip-path="url(#clip502)" style="stroke:#000000; stroke-width:2; stroke-opacity:0.1; fill:none" points="
  2218.27,1486.45 2218.27,47.2441 
  "/>
<polyline clip-path="url(#clip500)" style="stroke:#000000; stroke-width:4; stroke-opacity:1; fill:none" points="
  172.015,1486.45 2352.76,1486.45 
  "/>
<polyline clip-path="url(#clip500)" style="stroke:#000000; stroke-width:4; stroke-opacity:1; fill:none" points="
  233.734,1486.45 233.734,1469.18 
  "/>
<polyline clip-path="url(#clip500)" style="stroke:#000000; stroke-width:4; stroke-opacity:1; fill:none" points="
  895.246,1486.45 895.246,1469.18 
  "/>
<polyline clip-path="url(#clip500)" style="stroke:#000000; stroke-width:4; stroke-opacity:1; fill:none" points="
  1556.76,1486.45 1556.76,1469.18 
  "/>
<polyline clip-path="url(#clip500)" style="stroke:#000000; stroke-width:4; stroke-opacity:1; fill:none" points="
  2218.27,1486.45 2218.27,1469.18 
  "/>
<path clip-path="url(#clip500)" d="M 0 0 M233.734 1515.64 Q230.123 1515.64 228.294 1519.2 Q226.489 1522.75 226.489 1529.87 Q226.489 1536.98 228.294 1540.55 Q230.123 1544.09 233.734 1544.09 Q237.368 1544.09 239.174 1540.55 Q241.002 1536.98 241.002 1529.87 Q241.002 1522.75 239.174 1519.2 Q237.368 1515.64 233.734 1515.64 M233.734 1511.93 Q239.544 1511.93 242.6 1516.54 Q245.678 1521.12 245.678 1529.87 Q245.678 1538.6 242.6 1543.21 Q239.544 1547.79 233.734 1547.79 Q227.924 1547.79 224.845 1543.21 Q221.79 1538.6 221.79 1529.87 Q221.79 1521.12 224.845 1516.54 Q227.924 1511.93 233.734 1511.93 Z" fill="#000000" fill-rule="evenodd" fill-opacity="1" /><path clip-path="url(#clip500)" d="M 0 0 M854.853 1543.18 L862.492 1543.18 L862.492 1516.82 L854.182 1518.49 L854.182 1514.23 L862.445 1512.56 L867.121 1512.56 L867.121 1543.18 L874.76 1543.18 L874.76 1547.12 L854.853 1547.12 L854.853 1543.18 Z" fill="#000000" fill-rule="evenodd" fill-opacity="1" /><path clip-path="url(#clip500)" d="M 0 0 M894.204 1515.64 Q890.593 1515.64 888.765 1519.2 Q886.959 1522.75 886.959 1529.87 Q886.959 1536.98 888.765 1540.55 Q890.593 1544.09 894.204 1544.09 Q897.839 1544.09 899.644 1540.55 Q901.473 1536.98 901.473 1529.87 Q901.473 1522.75 899.644 1519.2 Q897.839 1515.64 894.204 1515.64 M894.204 1511.93 Q900.015 1511.93 903.07 1516.54 Q906.149 1521.12 906.149 1529.87 Q906.149 1538.6 903.07 1543.21 Q900.015 1547.79 894.204 1547.79 Q888.394 1547.79 885.316 1543.21 Q882.26 1538.6 882.26 1529.87 Q882.26 1521.12 885.316 1516.54 Q888.394 1511.93 894.204 1511.93 Z" fill="#000000" fill-rule="evenodd" fill-opacity="1" /><path clip-path="url(#clip500)" d="M 0 0 M924.366 1515.64 Q920.755 1515.64 918.927 1519.2 Q917.121 1522.75 917.121 1529.87 Q917.121 1536.98 918.927 1540.55 Q920.755 1544.09 924.366 1544.09 Q928.001 1544.09 929.806 1540.55 Q931.635 1536.98 931.635 1529.87 Q931.635 1522.75 929.806 1519.2 Q928.001 1515.64 924.366 1515.64 M924.366 1511.93 Q930.176 1511.93 933.232 1516.54 Q936.311 1521.12 936.311 1529.87 Q936.311 1538.6 933.232 1543.21 Q930.176 1547.79 924.366 1547.79 Q918.556 1547.79 915.477 1543.21 Q912.422 1538.6 912.422 1529.87 Q912.422 1521.12 915.477 1516.54 Q918.556 1511.93 924.366 1511.93 Z" fill="#000000" fill-rule="evenodd" fill-opacity="1" /><path clip-path="url(#clip500)" d="M 0 0 M1520.45 1543.18 L1536.77 1543.18 L1536.77 1547.12 L1514.83 1547.12 L1514.83 1543.18 Q1517.49 1540.43 1522.07 1535.8 Q1526.68 1531.15 1527.86 1529.81 Q1530.1 1527.28 1530.98 1525.55 Q1531.89 1523.79 1531.89 1522.1 Q1531.89 1519.34 1529.94 1517.61 Q1528.02 1515.87 1524.92 1515.87 Q1522.72 1515.87 1520.27 1516.63 Q1517.83 1517.4 1515.06 1518.95 L1515.06 1514.23 Q1517.88 1513.09 1520.33 1512.51 Q1522.79 1511.93 1524.83 1511.93 Q1530.2 1511.93 1533.39 1514.62 Q1536.58 1517.31 1536.58 1521.8 Q1536.58 1523.93 1535.77 1525.85 Q1534.99 1527.74 1532.88 1530.34 Q1532.3 1531.01 1529.2 1534.23 Q1526.1 1537.42 1520.45 1543.18 Z" fill="#000000" fill-rule="evenodd" fill-opacity="1" /><path clip-path="url(#clip500)" d="M 0 0 M1556.58 1515.64 Q1552.97 1515.64 1551.14 1519.2 Q1549.34 1522.75 1549.34 1529.87 Q1549.34 1536.98 1551.14 1540.55 Q1552.97 1544.09 1556.58 1544.09 Q1560.22 1544.09 1562.02 1540.55 Q1563.85 1536.98 1563.85 1529.87 Q1563.85 1522.75 1562.02 1519.2 Q1560.22 1515.64 1556.58 1515.64 M1556.58 1511.93 Q1562.39 1511.93 1565.45 1516.54 Q1568.53 1521.12 1568.53 1529.87 Q1568.53 1538.6 1565.45 1543.21 Q1562.39 1547.79 1556.58 1547.79 Q1550.77 1547.79 1547.7 1543.21 Q1544.64 1538.6 1544.64 1529.87 Q1544.64 1521.12 1547.7 1516.54 Q1550.77 1511.93 1556.58 1511.93 Z" fill="#000000" fill-rule="evenodd" fill-opacity="1" /><path clip-path="url(#clip500)" d="M 0 0 M1586.75 1515.64 Q1583.14 1515.64 1581.31 1519.2 Q1579.5 1522.75 1579.5 1529.87 Q1579.5 1536.98 1581.31 1540.55 Q1583.14 1544.09 1586.75 1544.09 Q1590.38 1544.09 1592.19 1540.55 Q1594.02 1536.98 1594.02 1529.87 Q1594.02 1522.75 1592.19 1519.2 Q1590.38 1515.64 1586.75 1515.64 M1586.75 1511.93 Q1592.56 1511.93 1595.61 1516.54 Q1598.69 1521.12 1598.69 1529.87 Q1598.69 1538.6 1595.61 1543.21 Q1592.56 1547.79 1586.75 1547.79 Q1580.94 1547.79 1577.86 1543.21 Q1574.8 1538.6 1574.8 1529.87 Q1574.8 1521.12 1577.86 1516.54 Q1580.94 1511.93 1586.75 1511.93 Z" fill="#000000" fill-rule="evenodd" fill-opacity="1" /><path clip-path="url(#clip500)" d="M 0 0 M2192.03 1528.49 Q2195.39 1529.2 2197.26 1531.47 Q2199.16 1533.74 2199.16 1537.07 Q2199.16 1542.19 2195.64 1544.99 Q2192.12 1547.79 2185.64 1547.79 Q2183.47 1547.79 2181.15 1547.35 Q2178.86 1546.93 2176.41 1546.08 L2176.41 1541.56 Q2178.35 1542.7 2180.67 1543.28 Q2182.98 1543.86 2185.5 1543.86 Q2189.9 1543.86 2192.19 1542.12 Q2194.51 1540.38 2194.51 1537.07 Q2194.51 1534.02 2192.36 1532.31 Q2190.23 1530.57 2186.41 1530.57 L2182.38 1530.57 L2182.38 1526.73 L2186.59 1526.73 Q2190.04 1526.73 2191.87 1525.36 Q2193.7 1523.97 2193.7 1521.38 Q2193.7 1518.72 2191.8 1517.31 Q2189.93 1515.87 2186.41 1515.87 Q2184.49 1515.87 2182.29 1516.29 Q2180.09 1516.7 2177.45 1517.58 L2177.45 1513.42 Q2180.11 1512.68 2182.43 1512.31 Q2184.76 1511.93 2186.82 1511.93 Q2192.15 1511.93 2195.25 1514.37 Q2198.35 1516.77 2198.35 1520.89 Q2198.35 1523.76 2196.71 1525.75 Q2195.06 1527.72 2192.03 1528.49 Z" fill="#000000" fill-rule="evenodd" fill-opacity="1" /><path clip-path="url(#clip500)" d="M 0 0 M2218.03 1515.64 Q2214.42 1515.64 2212.59 1519.2 Q2210.78 1522.75 2210.78 1529.87 Q2210.78 1536.98 2212.59 1540.55 Q2214.42 1544.09 2218.03 1544.09 Q2221.66 1544.09 2223.47 1540.55 Q2225.3 1536.98 2225.3 1529.87 Q2225.3 1522.75 2223.47 1519.2 Q2221.66 1515.64 2218.03 1515.64 M2218.03 1511.93 Q2223.84 1511.93 2226.89 1516.54 Q2229.97 1521.12 2229.97 1529.87 Q2229.97 1538.6 2226.89 1543.21 Q2223.84 1547.79 2218.03 1547.79 Q2212.22 1547.79 2209.14 1543.21 Q2206.08 1538.6 2206.08 1529.87 Q2206.08 1521.12 2209.14 1516.54 Q2212.22 1511.93 2218.03 1511.93 Z" fill="#000000" fill-rule="evenodd" fill-opacity="1" /><path clip-path="url(#clip500)" d="M 0 0 M2248.19 1515.64 Q2244.58 1515.64 2242.75 1519.2 Q2240.94 1522.75 2240.94 1529.87 Q2240.94 1536.98 2242.75 1540.55 Q2244.58 1544.09 2248.19 1544.09 Q2251.82 1544.09 2253.63 1540.55 Q2255.46 1536.98 2255.46 1529.87 Q2255.46 1522.75 2253.63 1519.2 Q2251.82 1515.64 2248.19 1515.64 M2248.19 1511.93 Q2254 1511.93 2257.05 1516.54 Q2260.13 1521.12 2260.13 1529.87 Q2260.13 1538.6 2257.05 1543.21 Q2254 1547.79 2248.19 1547.79 Q2242.38 1547.79 2239.3 1543.21 Q2236.24 1538.6 2236.24 1529.87 Q2236.24 1521.12 2239.3 1516.54 Q2242.38 1511.93 2248.19 1511.93 Z" fill="#000000" fill-rule="evenodd" fill-opacity="1" /><polyline clip-path="url(#clip502)" style="stroke:#000000; stroke-width:2; stroke-opacity:0.1; fill:none" points="
  172.015,1445.72 2352.76,1445.72 
  "/>
<polyline clip-path="url(#clip502)" style="stroke:#000000; stroke-width:2; stroke-opacity:0.1; fill:none" points="
  172.015,1132.51 2352.76,1132.51 
  "/>
<polyline clip-path="url(#clip502)" style="stroke:#000000; stroke-width:2; stroke-opacity:0.1; fill:none" points="
  172.015,819.308 2352.76,819.308 
  "/>
<polyline clip-path="url(#clip502)" style="stroke:#000000; stroke-width:2; stroke-opacity:0.1; fill:none" points="
  172.015,506.104 2352.76,506.104 
  "/>
<polyline clip-path="url(#clip502)" style="stroke:#000000; stroke-width:2; stroke-opacity:0.1; fill:none" points="
  172.015,192.9 2352.76,192.9 
  "/>
<polyline clip-path="url(#clip500)" style="stroke:#000000; stroke-width:4; stroke-opacity:1; fill:none" points="
  172.015,1486.45 172.015,47.2441 
  "/>
<polyline clip-path="url(#clip500)" style="stroke:#000000; stroke-width:4; stroke-opacity:1; fill:none" points="
  172.015,1445.72 198.184,1445.72 
  "/>
<polyline clip-path="url(#clip500)" style="stroke:#000000; stroke-width:4; stroke-opacity:1; fill:none" points="
  172.015,1132.51 198.184,1132.51 
  "/>
<polyline clip-path="url(#clip500)" style="stroke:#000000; stroke-width:4; stroke-opacity:1; fill:none" points="
  172.015,819.308 198.184,819.308 
  "/>
<polyline clip-path="url(#clip500)" style="stroke:#000000; stroke-width:4; stroke-opacity:1; fill:none" points="
  172.015,506.104 198.184,506.104 
  "/>
<polyline clip-path="url(#clip500)" style="stroke:#000000; stroke-width:4; stroke-opacity:1; fill:none" points="
  172.015,192.9 198.184,192.9 
  "/>
<path clip-path="url(#clip500)" d="M 0 0 M124.07 1431.51 Q120.459 1431.51 118.631 1435.08 Q116.825 1438.62 116.825 1445.75 Q116.825 1452.86 118.631 1456.42 Q120.459 1459.96 124.07 1459.96 Q127.705 1459.96 129.51 1456.42 Q131.339 1452.86 131.339 1445.75 Q131.339 1438.62 129.51 1435.08 Q127.705 1431.51 124.07 1431.51 M124.07 1427.81 Q129.881 1427.81 132.936 1432.42 Q136.015 1437 136.015 1445.75 Q136.015 1454.48 132.936 1459.08 Q129.881 1463.67 124.07 1463.67 Q118.26 1463.67 115.182 1459.08 Q112.126 1454.48 112.126 1445.75 Q112.126 1437 115.182 1432.42 Q118.26 1427.81 124.07 1427.81 Z" fill="#000000" fill-rule="evenodd" fill-opacity="1" /><path clip-path="url(#clip500)" d="M 0 0 M57.7745 1145.86 L74.0939 1145.86 L74.0939 1149.79 L52.1495 1149.79 L52.1495 1145.86 Q54.8115 1143.1 59.3949 1138.47 Q64.0013 1133.82 65.1819 1132.48 Q67.4272 1129.95 68.3068 1128.22 Q69.2096 1126.46 69.2096 1124.77 Q69.2096 1122.01 67.2652 1120.28 Q65.3439 1118.54 62.2421 1118.54 Q60.043 1118.54 57.5893 1119.31 Q55.1588 1120.07 52.381 1121.62 L52.381 1116.9 Q55.2051 1115.76 57.6588 1115.19 Q60.1124 1114.61 62.1495 1114.61 Q67.5198 1114.61 70.7142 1117.29 Q73.9087 1119.98 73.9087 1124.47 Q73.9087 1126.6 73.0985 1128.52 Q72.3115 1130.42 70.205 1133.01 Q69.6263 1133.68 66.5245 1136.9 Q63.4226 1140.09 57.7745 1145.86 Z" fill="#000000" fill-rule="evenodd" fill-opacity="1" /><path clip-path="url(#clip500)" d="M 0 0 M93.9086 1118.31 Q90.2975 1118.31 88.4688 1121.88 Q86.6632 1125.42 86.6632 1132.55 Q86.6632 1139.65 88.4688 1143.22 Q90.2975 1146.76 93.9086 1146.76 Q97.5428 1146.76 99.3483 1143.22 Q101.177 1139.65 101.177 1132.55 Q101.177 1125.42 99.3483 1121.88 Q97.5428 1118.31 93.9086 1118.31 M93.9086 1114.61 Q99.7187 1114.61 102.774 1119.21 Q105.853 1123.8 105.853 1132.55 Q105.853 1141.27 102.774 1145.88 Q99.7187 1150.46 93.9086 1150.46 Q88.0984 1150.46 85.0197 1145.88 Q81.9642 1141.27 81.9642 1132.55 Q81.9642 1123.8 85.0197 1119.21 Q88.0984 1114.61 93.9086 1114.61 Z" fill="#000000" fill-rule="evenodd" fill-opacity="1" /><path clip-path="url(#clip500)" d="M 0 0 M124.07 1118.31 Q120.459 1118.31 118.631 1121.88 Q116.825 1125.42 116.825 1132.55 Q116.825 1139.65 118.631 1143.22 Q120.459 1146.76 124.07 1146.76 Q127.705 1146.76 129.51 1143.22 Q131.339 1139.65 131.339 1132.55 Q131.339 1125.42 129.51 1121.88 Q127.705 1118.31 124.07 1118.31 M124.07 1114.61 Q129.881 1114.61 132.936 1119.21 Q136.015 1123.8 136.015 1132.55 Q136.015 1141.27 132.936 1145.88 Q129.881 1150.46 124.07 1150.46 Q118.26 1150.46 115.182 1145.88 Q112.126 1141.27 112.126 1132.55 Q112.126 1123.8 115.182 1119.21 Q118.26 1114.61 124.07 1114.61 Z" fill="#000000" fill-rule="evenodd" fill-opacity="1" /><path clip-path="url(#clip500)" d="M 0 0 M66.5939 806.102 L54.7884 824.551 L66.5939 824.551 L66.5939 806.102 M65.367 802.028 L71.2466 802.028 L71.2466 824.551 L76.1772 824.551 L76.1772 828.44 L71.2466 828.44 L71.2466 836.588 L66.5939 836.588 L66.5939 828.44 L50.9921 828.44 L50.9921 823.926 L65.367 802.028 Z" fill="#000000" fill-rule="evenodd" fill-opacity="1" /><path clip-path="url(#clip500)" d="M 0 0 M93.9086 805.106 Q90.2975 805.106 88.4688 808.671 Q86.6632 812.213 86.6632 819.342 Q86.6632 826.449 88.4688 830.014 Q90.2975 833.555 93.9086 833.555 Q97.5428 833.555 99.3483 830.014 Q101.177 826.449 101.177 819.342 Q101.177 812.213 99.3483 808.671 Q97.5428 805.106 93.9086 805.106 M93.9086 801.403 Q99.7187 801.403 102.774 806.009 Q105.853 810.592 105.853 819.342 Q105.853 828.069 102.774 832.676 Q99.7187 837.259 93.9086 837.259 Q88.0984 837.259 85.0197 832.676 Q81.9642 828.069 81.9642 819.342 Q81.9642 810.592 85.0197 806.009 Q88.0984 801.403 93.9086 801.403 Z" fill="#000000" fill-rule="evenodd" fill-opacity="1" /><path clip-path="url(#clip500)" d="M 0 0 M124.07 805.106 Q120.459 805.106 118.631 808.671 Q116.825 812.213 116.825 819.342 Q116.825 826.449 118.631 830.014 Q120.459 833.555 124.07 833.555 Q127.705 833.555 129.51 830.014 Q131.339 826.449 131.339 819.342 Q131.339 812.213 129.51 808.671 Q127.705 805.106 124.07 805.106 M124.07 801.403 Q129.881 801.403 132.936 806.009 Q136.015 810.592 136.015 819.342 Q136.015 828.069 132.936 832.676 Q129.881 837.259 124.07 837.259 Q118.26 837.259 115.182 832.676 Q112.126 828.069 112.126 819.342 Q112.126 810.592 115.182 806.009 Q118.26 801.403 124.07 801.403 Z" fill="#000000" fill-rule="evenodd" fill-opacity="1" /><path clip-path="url(#clip500)" d="M 0 0 M64.3254 504.24 Q61.1773 504.24 59.3254 506.393 Q57.4967 508.546 57.4967 512.296 Q57.4967 516.023 59.3254 518.198 Q61.1773 520.351 64.3254 520.351 Q67.4735 520.351 69.3022 518.198 Q71.1541 516.023 71.1541 512.296 Q71.1541 508.546 69.3022 506.393 Q67.4735 504.24 64.3254 504.24 M73.6077 489.588 L73.6077 493.847 Q71.8485 493.013 70.0429 492.574 Q68.2606 492.134 66.5013 492.134 Q61.8717 492.134 59.418 495.259 Q56.9875 498.384 56.6402 504.703 Q58.006 502.689 60.0662 501.624 Q62.1263 500.537 64.6032 500.537 Q69.8115 500.537 72.8207 503.708 Q75.8531 506.856 75.8531 512.296 Q75.8531 517.62 72.705 520.837 Q69.5568 524.055 64.3254 524.055 Q58.33 524.055 55.1588 519.472 Q51.9875 514.865 51.9875 506.138 Q51.9875 497.944 55.8764 493.083 Q59.7652 488.199 66.3161 488.199 Q68.0754 488.199 69.8578 488.546 Q71.6633 488.893 73.6077 489.588 Z" fill="#000000" fill-rule="evenodd" fill-opacity="1" /><path clip-path="url(#clip500)" d="M 0 0 M93.9086 491.902 Q90.2975 491.902 88.4688 495.467 Q86.6632 499.009 86.6632 506.138 Q86.6632 513.245 88.4688 516.81 Q90.2975 520.351 93.9086 520.351 Q97.5428 520.351 99.3483 516.81 Q101.177 513.245 101.177 506.138 Q101.177 499.009 99.3483 495.467 Q97.5428 491.902 93.9086 491.902 M93.9086 488.199 Q99.7187 488.199 102.774 492.805 Q105.853 497.388 105.853 506.138 Q105.853 514.865 102.774 519.472 Q99.7187 524.055 93.9086 524.055 Q88.0984 524.055 85.0197 519.472 Q81.9642 514.865 81.9642 506.138 Q81.9642 497.388 85.0197 492.805 Q88.0984 488.199 93.9086 488.199 Z" fill="#000000" fill-rule="evenodd" fill-opacity="1" /><path clip-path="url(#clip500)" d="M 0 0 M124.07 491.902 Q120.459 491.902 118.631 495.467 Q116.825 499.009 116.825 506.138 Q116.825 513.245 118.631 516.81 Q120.459 520.351 124.07 520.351 Q127.705 520.351 129.51 516.81 Q131.339 513.245 131.339 506.138 Q131.339 499.009 129.51 495.467 Q127.705 491.902 124.07 491.902 M124.07 488.199 Q129.881 488.199 132.936 492.805 Q136.015 497.388 136.015 506.138 Q136.015 514.865 132.936 519.472 Q129.881 524.055 124.07 524.055 Q118.26 524.055 115.182 519.472 Q112.126 514.865 112.126 506.138 Q112.126 497.388 115.182 492.805 Q118.26 488.199 124.07 488.199 Z" fill="#000000" fill-rule="evenodd" fill-opacity="1" /><path clip-path="url(#clip500)" d="M 0 0 M63.7467 193.768 Q60.4134 193.768 58.4921 195.55 Q56.5939 197.332 56.5939 200.457 Q56.5939 203.582 58.4921 205.365 Q60.4134 207.147 63.7467 207.147 Q67.08 207.147 69.0013 205.365 Q70.9226 203.559 70.9226 200.457 Q70.9226 197.332 69.0013 195.55 Q67.1032 193.768 63.7467 193.768 M59.0708 191.777 Q56.0615 191.036 54.3717 188.976 Q52.7051 186.916 52.7051 183.953 Q52.7051 179.809 55.6449 177.402 Q58.6078 174.995 63.7467 174.995 Q68.9087 174.995 71.8485 177.402 Q74.7883 179.809 74.7883 183.953 Q74.7883 186.916 73.0985 188.976 Q71.4318 191.036 68.4457 191.777 Q71.8253 192.564 73.7003 194.856 Q75.5985 197.147 75.5985 200.457 Q75.5985 205.481 72.5198 208.166 Q69.4642 210.851 63.7467 210.851 Q58.0291 210.851 54.9504 208.166 Q51.8949 205.481 51.8949 200.457 Q51.8949 197.147 53.793 194.856 Q55.6912 192.564 59.0708 191.777 M57.3578 184.393 Q57.3578 187.078 59.0245 188.583 Q60.7143 190.087 63.7467 190.087 Q66.7559 190.087 68.4457 188.583 Q70.1587 187.078 70.1587 184.393 Q70.1587 181.708 68.4457 180.203 Q66.7559 178.698 63.7467 178.698 Q60.7143 178.698 59.0245 180.203 Q57.3578 181.708 57.3578 184.393 Z" fill="#000000" fill-rule="evenodd" fill-opacity="1" /><path clip-path="url(#clip500)" d="M 0 0 M93.9086 178.698 Q90.2975 178.698 88.4688 182.263 Q86.6632 185.805 86.6632 192.934 Q86.6632 200.041 88.4688 203.606 Q90.2975 207.147 93.9086 207.147 Q97.5428 207.147 99.3483 203.606 Q101.177 200.041 101.177 192.934 Q101.177 185.805 99.3483 182.263 Q97.5428 178.698 93.9086 178.698 M93.9086 174.995 Q99.7187 174.995 102.774 179.601 Q105.853 184.184 105.853 192.934 Q105.853 201.661 102.774 206.268 Q99.7187 210.851 93.9086 210.851 Q88.0984 210.851 85.0197 206.268 Q81.9642 201.661 81.9642 192.934 Q81.9642 184.184 85.0197 179.601 Q88.0984 174.995 93.9086 174.995 Z" fill="#000000" fill-rule="evenodd" fill-opacity="1" /><path clip-path="url(#clip500)" d="M 0 0 M124.07 178.698 Q120.459 178.698 118.631 182.263 Q116.825 185.805 116.825 192.934 Q116.825 200.041 118.631 203.606 Q120.459 207.147 124.07 207.147 Q127.705 207.147 129.51 203.606 Q131.339 200.041 131.339 192.934 Q131.339 185.805 129.51 182.263 Q127.705 178.698 124.07 178.698 M124.07 174.995 Q129.881 174.995 132.936 179.601 Q136.015 184.184 136.015 192.934 Q136.015 201.661 132.936 206.268 Q129.881 210.851 124.07 210.851 Q118.26 210.851 115.182 206.268 Q112.126 201.661 112.126 192.934 Q112.126 184.184 115.182 179.601 Q118.26 174.995 124.07 174.995 Z" fill="#000000" fill-rule="evenodd" fill-opacity="1" /><polyline clip-path="url(#clip502)" style="stroke:#009af9; stroke-width:4; stroke-opacity:1; fill:none" points="
  233.734,1445.72 240.349,1441.81 246.964,1439.61 253.579,1436.33 260.194,1435.05 266.81,1434.71 273.425,1433.39 280.04,1429.58 286.655,1429.75 293.27,1428.87 
  299.885,1429.58 306.5,1430.82 313.115,1430.72 319.73,1430.01 326.346,1429.38 332.961,1431.1 339.576,1432.96 346.191,1432.14 352.806,1435.45 359.421,1434.97 
  366.036,1431.74 372.651,1431.83 379.267,1426.87 385.882,1423.97 392.497,1427.62 399.112,1423.29 405.727,1420.58 412.342,1417.06 418.957,1426.21 425.572,1418.08 
  432.188,1422.78 438.803,1420.77 445.418,1417.5 452.033,1426.38 458.648,1426.26 465.263,1427.27 471.878,1429.32 478.493,1432.23 485.109,1428.94 491.724,1432.18 
  498.339,1432.07 504.954,1429.78 511.569,1428.47 518.184,1430.34 524.799,1431.04 531.414,1431.56 538.03,1428.31 544.645,1431.73 551.26,1428.67 557.875,1429.48 
  564.49,1425.85 571.105,1425.88 577.72,1425.07 584.335,1423.35 590.95,1419.43 597.566,1422.2 604.181,1415.06 610.796,1413.29 617.411,1414.53 624.026,1414.76 
  630.641,1418.04 637.256,1418.2 643.871,1413 650.487,1414.36 657.102,1411.51 663.717,1417.31 670.332,1421.33 676.947,1423.13 683.562,1417.14 690.177,1420.8 
  696.792,1425 703.408,1423.17 710.023,1426.28 716.638,1427.59 723.253,1426.47 729.868,1423.26 736.483,1423.16 743.098,1419.05 749.713,1420.91 756.329,1416.86 
  762.944,1418.04 769.559,1419.74 776.174,1416.82 782.789,1417.47 789.404,1420.38 796.019,1420.68 802.634,1425.49 809.25,1425.31 815.865,1431.2 822.48,1430.81 
  829.095,1430.68 835.71,1430.99 842.325,1434.44 848.94,1430.04 855.555,1430.31 862.17,1432.11 868.786,1433.3 875.401,1433.73 882.016,1434.66 888.631,1432.29 
  895.246,1429.24 901.861,1425.55 908.476,1428.89 915.091,1427.21 921.707,1426.06 928.322,1426.29 934.937,1430.81 941.552,1433.45 948.167,1428.08 954.782,1424.44 
  961.397,1422.72 968.012,1419.76 974.628,1414.38 981.243,1414.32 987.858,1420.83 994.473,1412.03 1001.09,1413.56 1007.7,1421.93 1014.32,1412.89 1020.93,1410.74 
  1027.55,1412.45 1034.16,1409.8 1040.78,1410.78 1047.39,1409.54 1054.01,1415.19 1060.62,1419.36 1067.24,1418.77 1073.85,1420.45 1080.47,1422.36 1087.08,1417.37 
  1093.7,1413.36 1100.31,1411.94 1106.93,1406.4 1113.55,1406.35 1120.16,1417.37 1126.78,1421.23 1133.39,1411.73 1140.01,1417.78 1146.62,1413.95 1153.24,1421.1 
  1159.85,1418.98 1166.47,1423.52 1173.08,1419.89 1179.7,1417.54 1186.31,1420.36 1192.93,1415.85 1199.54,1421.62 1206.16,1420.95 1212.77,1421.52 1219.39,1412.57 
  1226,1396.8 1232.62,1398.19 1239.23,1382.06 1245.85,1373.16 1252.46,1382.4 1259.08,1373.05 1265.69,1381.47 1272.31,1378.38 1278.92,1355.58 1285.54,1183.39 
  1292.15,1019.98 1298.77,863.999 1305.38,693.177 1312,709.886 1318.61,759.626 1325.23,796.216 1331.84,856.491 1338.46,1043.08 1345.07,1082.43 1351.69,1206.71 
  1358.3,1210.1 1364.92,1284.72 1371.53,1297.77 1378.15,1324.32 1384.77,1368.96 1391.38,1363.9 1398,1376.41 1404.61,1398.56 1411.23,1401.09 1417.84,1414.14 
  1424.46,1400.61 1431.07,1395.09 1437.69,1384.74 1444.3,1360.82 1450.92,1365.08 1457.53,1344.27 1464.15,1349.79 1470.76,1352.45 1477.38,1347.39 1483.99,1343.24 
  1490.61,1360.09 1497.22,1368.14 1503.84,1354.18 1510.45,1364.68 1517.07,1356.91 1523.68,1370.71 1530.3,1355.53 1536.91,1349.22 1543.53,1360.51 1550.14,1335.93 
  1556.76,1342.51 1563.37,1357.41 1569.99,1343.47 1576.6,1339.07 1583.22,1354.13 1589.83,1357.71 1596.45,1357.27 1603.06,1357.55 1609.68,1380.36 1616.29,1384.67 
  1622.91,1366.69 1629.52,1396.49 1636.14,1399.44 1642.75,1404.39 1649.37,1407.16 1655.99,1400.93 1662.6,1402.17 1669.22,1403.63 1675.83,1410.49 1682.45,1406.12 
  1689.06,1404.63 1695.68,1397.81 1702.29,1409.59 1708.91,1413 1715.52,1419.16 1722.14,1420.28 1728.75,1426.34 1735.37,1434.28 1741.98,1431.89 1748.6,1435.33 
  1755.21,1435.71 1761.83,1434.95 1768.44,1438.52 1775.06,1435.68 1781.67,1437.66 1788.29,1438.16 1794.9,1436.04 1801.52,1436.43 1808.13,1436.45 1814.75,1434.78 
  1821.36,1435.76 1827.98,1435.21 1834.59,1436.62 1841.21,1434.13 1847.82,1434.79 1854.44,1433.34 1861.05,1432.48 1867.67,1431.22 1874.28,1425.01 1880.9,1423.18 
  1887.51,1419.84 1894.13,1422.88 1900.74,1419.55 1907.36,1420.25 1913.97,1423.42 1920.59,1427.99 1927.21,1431.6 1933.82,1432.06 1940.44,1433.28 1947.05,1433.14 
  1953.67,1436.25 1960.28,1436.47 1966.9,1438.13 1973.51,1438.49 1980.13,1439.82 1986.74,1439.87 1993.36,1440.28 1999.97,1440.44 2006.59,1440.75 2013.2,1441.14 
  2019.82,1440.29 2026.43,1440.23 2033.05,1439.71 2039.66,1440.56 2046.28,1440.29 2052.89,1440.19 2059.51,1441.09 2066.12,1441.12 2072.74,1439.11 2079.35,1439.75 
  2085.97,1440.42 2092.58,1439.53 2099.2,1438.27 2105.81,1439.05 2119.04,1441.55 2125.66,1441.51 2132.27,1441.7 2138.89,1442.14 2145.5,1443.15 2152.12,1443.63 
  2158.73,1443.38 2165.35,1443.03 2171.96,1442.41 2178.58,1441.57 2185.19,1438.04 2191.81,1435.28 2198.43,1429.27 2205.04,1429.29 2211.66,1425.55 2218.27,1426.57 
  2224.89,1427.79 2231.5,1433.53 2238.12,1434.16 2244.73,1435.98 2251.35,1437.52 2257.96,1437.01 2264.58,1436.63 2271.19,1436.63 2277.81,1439.22 2284.42,1439.69 
  2291.04,1439.82 
  "/>
<polyline clip-path="url(#clip502)" style="stroke:#e26f46; stroke-width:4; stroke-opacity:1; fill:none" points="
  233.734,1420.66 240.349,1434.75 246.964,1431.62 253.579,1425.36 260.194,1431.62 266.81,1430.06 273.425,1425.36 280.04,1423.79 286.655,1426.92 293.27,1422.23 
  299.885,1431.62 306.5,1425.36 313.115,1430.06 319.73,1426.92 326.346,1436.32 332.961,1437.89 339.576,1433.19 346.191,1445.72 352.806,1436.32 359.421,1425.36 
  366.036,1420.66 372.651,1419.09 379.267,1422.23 385.882,1415.96 392.497,1425.36 399.112,1414.4 405.727,1419.09 412.342,1420.66 418.957,1423.79 425.572,1420.66 
  432.188,1426.92 438.803,1411.26 445.418,1434.75 452.033,1439.45 458.648,1430.06 465.263,1425.36 471.878,1437.89 478.493,1444.15 485.109,1419.09 491.724,1431.62 
  498.339,1431.62 504.954,1426.92 511.569,1430.06 518.184,1436.32 524.799,1430.06 531.414,1426.92 538.03,1430.06 544.645,1431.62 551.26,1426.92 557.875,1426.92 
  564.49,1426.92 571.105,1415.96 577.72,1422.23 584.335,1415.96 590.95,1412.83 597.566,1411.26 604.181,1411.26 610.796,1412.83 617.411,1415.96 624.026,1425.36 
  630.641,1409.7 637.256,1419.09 643.871,1414.4 650.487,1414.4 657.102,1412.83 663.717,1425.36 670.332,1425.36 676.947,1423.79 683.562,1422.23 690.177,1428.49 
  696.792,1425.36 703.408,1422.23 710.023,1423.79 716.638,1425.36 723.253,1422.23 729.868,1417.53 736.483,1423.79 743.098,1415.96 749.713,1411.26 756.329,1411.26 
  762.944,1420.66 769.559,1420.66 776.174,1420.66 782.789,1426.92 789.404,1428.49 796.019,1434.75 802.634,1426.92 809.25,1433.19 815.865,1441.02 822.48,1430.06 
  829.095,1436.32 835.71,1436.32 842.325,1434.75 848.94,1425.36 855.555,1433.19 862.17,1439.45 868.786,1433.19 875.401,1430.06 882.016,1433.19 888.631,1434.75 
  895.246,1420.66 901.861,1417.53 908.476,1428.49 915.091,1419.09 921.707,1430.06 928.322,1433.19 934.937,1441.02 941.552,1428.49 948.167,1412.83 954.782,1412.83 
  961.397,1414.4 968.012,1409.7 974.628,1415.96 981.243,1411.26 987.858,1423.79 994.473,1408.13 1001.09,1409.7 1007.7,1408.13 1014.32,1403.43 1020.93,1412.83 
  1027.55,1412.83 1034.16,1417.53 1040.78,1415.96 1047.39,1422.23 1054.01,1428.49 1060.62,1428.49 1067.24,1422.23 1073.85,1419.09 1080.47,1417.53 1087.08,1411.26 
  1093.7,1405 1100.31,1408.13 1106.93,1400.3 1113.55,1411.26 1120.16,1420.66 1126.78,1412.83 1133.39,1419.09 1140.01,1420.66 1146.62,1426.92 1153.24,1423.79 
  1159.85,1426.92 1166.47,1422.23 1173.08,1419.09 1179.7,1420.66 1186.31,1417.53 1192.93,1426.92 1199.54,1428.49 1206.16,1417.53 1212.77,1406.57 1219.39,1368.98 
  1226,1340.79 1232.62,1353.32 1239.23,1359.58 1245.85,1370.55 1252.46,1381.51 1259.08,1403.43 1265.69,1400.3 1272.31,1397.17 1278.92,1071.44 1285.54,564.046 
  1292.15,144.353 1298.77,87.9763 1305.38,311.917 1312,656.442 1318.61,894.477 1325.23,1209.25 1331.84,1367.41 1338.46,1405 1345.07,1431.62 1351.69,1425.36 
  1358.3,1423.79 1364.92,1411.26 1371.53,1415.96 1378.15,1417.53 1384.77,1425.36 1391.38,1430.06 1398,1430.06 1404.61,1423.79 1411.23,1433.19 1417.84,1409.7 
  1424.46,1367.41 1431.07,1345.49 1437.69,1336.09 1444.3,1318.87 1450.92,1334.53 1457.53,1345.49 1464.15,1345.49 1470.76,1362.72 1477.38,1354.89 1483.99,1342.36 
  1490.61,1365.85 1497.22,1373.68 1503.84,1370.55 1510.45,1362.72 1517.07,1359.58 1523.68,1336.09 1530.3,1343.92 1536.91,1350.19 1543.53,1348.62 1550.14,1353.32 
  1556.76,1345.49 1563.37,1340.79 1569.99,1320.43 1576.6,1336.09 1583.22,1353.32 1589.83,1376.81 1596.45,1384.64 1603.06,1392.47 1609.68,1392.47 1616.29,1419.09 
  1622.91,1409.7 1629.52,1419.09 1636.14,1415.96 1642.75,1412.83 1649.37,1411.26 1655.99,1398.74 1662.6,1411.26 1669.22,1406.57 1675.83,1405 1682.45,1405 
  1689.06,1398.74 1695.68,1422.23 1702.29,1425.36 1708.91,1431.62 1715.52,1430.06 1722.14,1441.02 1728.75,1445.72 1735.37,1436.32 1741.98,1442.58 1748.6,1445.72 
  1755.21,1436.32 1761.83,1444.15 1768.44,1433.19 1775.06,1436.32 1781.67,1439.45 1788.29,1436.32 1794.9,1437.89 1801.52,1436.32 1808.13,1433.19 1814.75,1434.75 
  1821.36,1434.75 1827.98,1433.19 1834.59,1431.62 1841.21,1433.19 1847.82,1437.89 1854.44,1423.79 1861.05,1426.92 1867.67,1425.36 1874.28,1414.4 1880.9,1405 
  1887.51,1422.23 1894.13,1426.92 1900.74,1415.96 1907.36,1428.49 1913.97,1437.89 1920.59,1444.15 1927.21,1445.72 1933.82,1428.49 1940.44,1436.32 1947.05,1441.02 
  1953.67,1437.89 1960.28,1445.72 1966.9,1441.02 1973.51,1439.45 1980.13,1441.02 1986.74,1444.15 1993.36,1436.32 1999.97,1441.02 2006.59,1441.02 2013.2,1444.15 
  2019.82,1439.45 2026.43,1437.89 2033.05,1441.02 2039.66,1442.58 2046.28,1437.89 2052.89,1442.58 2059.51,1445.72 2066.12,1437.89 2072.74,1433.19 2079.35,1439.45 
  2085.97,1439.45 2092.58,1439.45 2099.2,1431.62 2105.81,1445.72 2119.04,1444.15 2125.66,1445.72 2132.27,1441.02 2138.89,1445.72 2145.5,1444.15 2152.12,1445.72 
  2158.73,1442.58 2165.35,1441.02 2171.96,1441.02 2178.58,1433.19 2185.19,1423.79 2191.81,1430.06 2198.43,1387.77 2205.04,1433.19 2211.66,1415.96 2218.27,1437.89 
  2224.89,1442.58 2231.5,1441.02 2238.12,1445.72 2244.73,1439.45 2251.35,1445.72 2257.96,1426.92 2264.58,1442.58 2271.19,1437.89 2277.81,1445.72 2284.42,1441.02 
  2291.04,1437.89 
  "/>
<path clip-path="url(#clip500)" d="
M1541.03 276.658 L2280.06 276.658 L2280.06 95.2176 L1541.03 95.2176  Z
  " fill="#ffffff" fill-rule="evenodd" fill-opacity="1"/>
<polyline clip-path="url(#clip500)" style="stroke:#000000; stroke-width:4; stroke-opacity:1; fill:none" points="
  1541.03,276.658 2280.06,276.658 2280.06,95.2176 1541.03,95.2176 1541.03,276.658 
  "/>
<polyline clip-path="url(#clip500)" style="stroke:#009af9; stroke-width:4; stroke-opacity:1; fill:none" points="
  1565.26,155.698 1710.64,155.698 
  "/>
<path clip-path="url(#clip500)" d="M 0 0 M1734.87 147.052 L1739.13 147.052 L1739.13 172.978 L1734.87 172.978 L1734.87 147.052 M1734.87 136.959 L1739.13 136.959 L1739.13 142.353 L1734.87 142.353 L1734.87 136.959 Z" fill="#000000" fill-rule="evenodd" fill-opacity="1" /><path clip-path="url(#clip500)" d="M 0 0 M1769.59 157.329 L1769.59 172.978 L1765.33 172.978 L1765.33 157.468 Q1765.33 153.788 1763.9 151.959 Q1762.46 150.13 1759.59 150.13 Q1756.14 150.13 1754.15 152.33 Q1752.16 154.529 1752.16 158.325 L1752.16 172.978 L1747.88 172.978 L1747.88 147.052 L1752.16 147.052 L1752.16 151.08 Q1753.69 148.742 1755.75 147.584 Q1757.83 146.427 1760.54 146.427 Q1765.01 146.427 1767.3 149.205 Q1769.59 151.959 1769.59 157.329 Z" fill="#000000" fill-rule="evenodd" fill-opacity="1" /><path clip-path="url(#clip500)" d="M 0 0 M1795.15 150.987 L1795.15 136.959 L1799.41 136.959 L1799.41 172.978 L1795.15 172.978 L1795.15 169.089 Q1793.81 171.403 1791.74 172.538 Q1789.71 173.649 1786.84 173.649 Q1782.14 173.649 1779.18 169.899 Q1776.24 166.149 1776.24 160.038 Q1776.24 153.927 1779.18 150.177 Q1782.14 146.427 1786.84 146.427 Q1789.71 146.427 1791.74 147.561 Q1793.81 148.672 1795.15 150.987 M1780.63 160.038 Q1780.63 164.737 1782.56 167.422 Q1784.5 170.084 1787.88 170.084 Q1791.26 170.084 1793.2 167.422 Q1795.15 164.737 1795.15 160.038 Q1795.15 155.339 1793.2 152.677 Q1791.26 149.992 1787.88 149.992 Q1784.5 149.992 1782.56 152.677 Q1780.63 155.339 1780.63 160.038 Z" fill="#000000" fill-rule="evenodd" fill-opacity="1" /><path clip-path="url(#clip500)" d="M 0 0 M1818.23 150.038 Q1814.8 150.038 1812.81 152.723 Q1810.82 155.385 1810.82 160.038 Q1810.82 164.691 1812.79 167.376 Q1814.78 170.038 1818.23 170.038 Q1821.63 170.038 1823.62 167.353 Q1825.61 164.667 1825.61 160.038 Q1825.61 155.431 1823.62 152.746 Q1821.63 150.038 1818.23 150.038 M1818.23 146.427 Q1823.78 146.427 1826.95 150.038 Q1830.12 153.649 1830.12 160.038 Q1830.12 166.404 1826.95 170.038 Q1823.78 173.649 1818.23 173.649 Q1812.65 173.649 1809.48 170.038 Q1806.33 166.404 1806.33 160.038 Q1806.33 153.649 1809.48 150.038 Q1812.65 146.427 1818.23 146.427 Z" fill="#000000" fill-rule="evenodd" fill-opacity="1" /><path clip-path="url(#clip500)" d="M 0 0 M1847.23 150.038 Q1843.8 150.038 1841.81 152.723 Q1839.82 155.385 1839.82 160.038 Q1839.82 164.691 1841.79 167.376 Q1843.78 170.038 1847.23 170.038 Q1850.63 170.038 1852.62 167.353 Q1854.61 164.667 1854.61 160.038 Q1854.61 155.431 1852.62 152.746 Q1850.63 150.038 1847.23 150.038 M1847.23 146.427 Q1852.79 146.427 1855.96 150.038 Q1859.13 153.649 1859.13 160.038 Q1859.13 166.404 1855.96 170.038 Q1852.79 173.649 1847.23 173.649 Q1841.65 173.649 1838.48 170.038 Q1835.33 166.404 1835.33 160.038 Q1835.33 153.649 1838.48 150.038 Q1841.65 146.427 1847.23 146.427 Z" fill="#000000" fill-rule="evenodd" fill-opacity="1" /><path clip-path="url(#clip500)" d="M 0 0 M1881.21 151.033 Q1880.49 150.617 1879.64 150.431 Q1878.8 150.223 1877.79 150.223 Q1874.17 150.223 1872.23 152.584 Q1870.31 154.922 1870.31 159.32 L1870.31 172.978 L1866.03 172.978 L1866.03 147.052 L1870.31 147.052 L1870.31 151.08 Q1871.65 148.718 1873.8 147.584 Q1875.96 146.427 1879.04 146.427 Q1879.48 146.427 1880.01 146.496 Q1880.54 146.543 1881.19 146.658 L1881.21 151.033 Z" fill="#000000" fill-rule="evenodd" fill-opacity="1" /><path clip-path="url(#clip500)" d="M 0 0 M1910.98 137.006 Q1907.88 142.33 1906.37 147.538 Q1904.87 152.746 1904.87 158.093 Q1904.87 163.441 1906.37 168.695 Q1907.9 173.927 1910.98 179.228 L1907.28 179.228 Q1903.8 173.788 1902.07 168.533 Q1900.36 163.279 1900.36 158.093 Q1900.36 152.931 1902.07 147.7 Q1903.78 142.468 1907.28 137.006 L1910.98 137.006 Z" fill="#000000" fill-rule="evenodd" fill-opacity="1" /><path clip-path="url(#clip500)" d="M 0 0 M1936.3 150.987 L1936.3 136.959 L1940.56 136.959 L1940.56 172.978 L1936.3 172.978 L1936.3 169.089 Q1934.96 171.403 1932.9 172.538 Q1930.86 173.649 1927.99 173.649 Q1923.3 173.649 1920.33 169.899 Q1917.39 166.149 1917.39 160.038 Q1917.39 153.927 1920.33 150.177 Q1923.3 146.427 1927.99 146.427 Q1930.86 146.427 1932.9 147.561 Q1934.96 148.672 1936.3 150.987 M1921.79 160.038 Q1921.79 164.737 1923.71 167.422 Q1925.66 170.084 1929.04 170.084 Q1932.42 170.084 1934.36 167.422 Q1936.3 164.737 1936.3 160.038 Q1936.3 155.339 1934.36 152.677 Q1932.42 149.992 1929.04 149.992 Q1925.66 149.992 1923.71 152.677 Q1921.79 155.339 1921.79 160.038 Z" fill="#000000" fill-rule="evenodd" fill-opacity="1" /><path clip-path="url(#clip500)" d="M 0 0 M1948.9 162.746 L1948.9 147.052 L1953.16 147.052 L1953.16 162.584 Q1953.16 166.265 1954.59 168.116 Q1956.03 169.945 1958.9 169.945 Q1962.35 169.945 1964.34 167.746 Q1966.35 165.547 1966.35 161.751 L1966.35 147.052 L1970.61 147.052 L1970.61 172.978 L1966.35 172.978 L1966.35 168.996 Q1964.8 171.357 1962.74 172.515 Q1960.7 173.649 1957.99 173.649 Q1953.53 173.649 1951.21 170.871 Q1948.9 168.093 1948.9 162.746 M1959.61 146.427 L1959.61 146.427 Z" fill="#000000" fill-rule="evenodd" fill-opacity="1" /><path clip-path="url(#clip500)" d="M 0 0 M1999.57 152.029 Q2001.17 149.158 2003.39 147.793 Q2005.61 146.427 2008.62 146.427 Q2012.67 146.427 2014.87 149.274 Q2017.07 152.098 2017.07 157.329 L2017.07 172.978 L2012.79 172.978 L2012.79 157.468 Q2012.79 153.742 2011.47 151.936 Q2010.15 150.13 2007.44 150.13 Q2004.13 150.13 2002.21 152.33 Q2000.29 154.529 2000.29 158.325 L2000.29 172.978 L1996 172.978 L1996 157.468 Q1996 153.718 1994.68 151.936 Q1993.36 150.13 1990.61 150.13 Q1987.35 150.13 1985.42 152.353 Q1983.5 154.552 1983.5 158.325 L1983.5 172.978 L1979.22 172.978 L1979.22 147.052 L1983.5 147.052 L1983.5 151.08 Q1984.96 148.695 1987 147.561 Q1989.04 146.427 1991.84 146.427 Q1994.66 146.427 1996.63 147.862 Q1998.62 149.297 1999.57 152.029 Z" fill="#000000" fill-rule="evenodd" fill-opacity="1" /><path clip-path="url(#clip500)" d="M 0 0 M2045.75 152.029 Q2047.35 149.158 2049.57 147.793 Q2051.79 146.427 2054.8 146.427 Q2058.85 146.427 2061.05 149.274 Q2063.25 152.098 2063.25 157.329 L2063.25 172.978 L2058.97 172.978 L2058.97 157.468 Q2058.97 153.742 2057.65 151.936 Q2056.33 150.13 2053.62 150.13 Q2050.31 150.13 2048.39 152.33 Q2046.47 154.529 2046.47 158.325 L2046.47 172.978 L2042.18 172.978 L2042.18 157.468 Q2042.18 153.718 2040.86 151.936 Q2039.54 150.13 2036.79 150.13 Q2033.53 150.13 2031.6 152.353 Q2029.68 154.552 2029.68 158.325 L2029.68 172.978 L2025.4 172.978 L2025.4 147.052 L2029.68 147.052 L2029.68 151.08 Q2031.14 148.695 2033.18 147.561 Q2035.22 146.427 2038.02 146.427 Q2040.84 146.427 2042.81 147.862 Q2044.8 149.297 2045.75 152.029 Z" fill="#000000" fill-rule="evenodd" fill-opacity="1" /><path clip-path="url(#clip500)" d="M 0 0 M2082.53 175.385 Q2080.72 180.015 2079.01 181.427 Q2077.3 182.839 2074.43 182.839 L2071.03 182.839 L2071.03 179.274 L2073.53 179.274 Q2075.29 179.274 2076.26 178.44 Q2077.23 177.607 2078.41 174.505 L2079.17 172.561 L2068.69 147.052 L2073.2 147.052 L2081.3 167.329 L2089.41 147.052 L2093.92 147.052 L2082.53 175.385 Z" fill="#000000" fill-rule="evenodd" fill-opacity="1" /><path clip-path="url(#clip500)" d="M 0 0 M2131.93 150.987 L2131.93 136.959 L2136.19 136.959 L2136.19 172.978 L2131.93 172.978 L2131.93 169.089 Q2130.59 171.403 2128.53 172.538 Q2126.49 173.649 2123.62 173.649 Q2118.92 173.649 2115.96 169.899 Q2113.02 166.149 2113.02 160.038 Q2113.02 153.927 2115.96 150.177 Q2118.92 146.427 2123.62 146.427 Q2126.49 146.427 2128.53 147.561 Q2130.59 148.672 2131.93 150.987 M2117.41 160.038 Q2117.41 164.737 2119.34 167.422 Q2121.28 170.084 2124.66 170.084 Q2128.04 170.084 2129.98 167.422 Q2131.93 164.737 2131.93 160.038 Q2131.93 155.339 2129.98 152.677 Q2128.04 149.992 2124.66 149.992 Q2121.28 149.992 2119.34 152.677 Q2117.41 155.339 2117.41 160.038 Z" fill="#000000" fill-rule="evenodd" fill-opacity="1" /><path clip-path="url(#clip500)" d="M 0 0 M2156.74 159.945 Q2151.58 159.945 2149.59 161.126 Q2147.6 162.306 2147.6 165.154 Q2147.6 167.422 2149.08 168.765 Q2150.59 170.084 2153.15 170.084 Q2156.7 170.084 2158.83 167.584 Q2160.98 165.061 2160.98 160.894 L2160.98 159.945 L2156.74 159.945 M2165.24 158.186 L2165.24 172.978 L2160.98 172.978 L2160.98 169.042 Q2159.52 171.403 2157.34 172.538 Q2155.17 173.649 2152.02 173.649 Q2148.04 173.649 2145.68 171.427 Q2143.34 169.181 2143.34 165.431 Q2143.34 161.056 2146.26 158.834 Q2149.2 156.612 2155.01 156.612 L2160.98 156.612 L2160.98 156.195 Q2160.98 153.255 2159.03 151.658 Q2157.11 150.038 2153.62 150.038 Q2151.4 150.038 2149.29 150.57 Q2147.18 151.103 2145.24 152.167 L2145.24 148.232 Q2147.58 147.33 2149.78 146.89 Q2151.97 146.427 2154.06 146.427 Q2159.68 146.427 2162.46 149.343 Q2165.24 152.26 2165.24 158.186 Z" fill="#000000" fill-rule="evenodd" fill-opacity="1" /><path clip-path="url(#clip500)" d="M 0 0 M2178.22 139.691 L2178.22 147.052 L2187 147.052 L2187 150.362 L2178.22 150.362 L2178.22 164.436 Q2178.22 167.607 2179.08 168.51 Q2179.96 169.413 2182.62 169.413 L2187 169.413 L2187 172.978 L2182.62 172.978 Q2177.69 172.978 2175.82 171.149 Q2173.94 169.297 2173.94 164.436 L2173.94 150.362 L2170.82 150.362 L2170.82 147.052 L2173.94 147.052 L2173.94 139.691 L2178.22 139.691 Z" fill="#000000" fill-rule="evenodd" fill-opacity="1" /><path clip-path="url(#clip500)" d="M 0 0 M2204.38 159.945 Q2199.22 159.945 2197.23 161.126 Q2195.24 162.306 2195.24 165.154 Q2195.24 167.422 2196.72 168.765 Q2198.22 170.084 2200.79 170.084 Q2204.34 170.084 2206.46 167.584 Q2208.62 165.061 2208.62 160.894 L2208.62 159.945 L2204.38 159.945 M2212.88 158.186 L2212.88 172.978 L2208.62 172.978 L2208.62 169.042 Q2207.16 171.403 2204.98 172.538 Q2202.81 173.649 2199.66 173.649 Q2195.68 173.649 2193.32 171.427 Q2190.98 169.181 2190.98 165.431 Q2190.98 161.056 2193.9 158.834 Q2196.84 156.612 2202.65 156.612 L2208.62 156.612 L2208.62 156.195 Q2208.62 153.255 2206.67 151.658 Q2204.75 150.038 2201.26 150.038 Q2199.03 150.038 2196.93 150.57 Q2194.82 151.103 2192.88 152.167 L2192.88 148.232 Q2195.21 147.33 2197.41 146.89 Q2199.61 146.427 2201.7 146.427 Q2207.32 146.427 2210.1 149.343 Q2212.88 152.26 2212.88 158.186 Z" fill="#000000" fill-rule="evenodd" fill-opacity="1" /><path clip-path="url(#clip500)" d="M 0 0 M2220.98 137.006 L2224.68 137.006 Q2228.15 142.468 2229.87 147.7 Q2231.6 152.931 2231.6 158.093 Q2231.6 163.279 2229.87 168.533 Q2228.15 173.788 2224.68 179.228 L2220.98 179.228 Q2224.06 173.927 2225.56 168.695 Q2227.09 163.441 2227.09 158.093 Q2227.09 152.746 2225.56 147.538 Q2224.06 142.33 2220.98 137.006 Z" fill="#000000" fill-rule="evenodd" fill-opacity="1" /><polyline clip-path="url(#clip500)" style="stroke:#e26f46; stroke-width:4; stroke-opacity:1; fill:none" points="
  1565.26,216.178 1710.64,216.178 
  "/>
<path clip-path="url(#clip500)" d="M 0 0 M1746.77 210.518 Q1743.34 210.518 1741.35 213.203 Q1739.36 215.865 1739.36 220.518 Q1739.36 225.171 1741.33 227.856 Q1743.32 230.518 1746.77 230.518 Q1750.17 230.518 1752.16 227.833 Q1754.15 225.147 1754.15 220.518 Q1754.15 215.911 1752.16 213.226 Q1750.17 210.518 1746.77 210.518 M1746.77 206.907 Q1752.32 206.907 1755.5 210.518 Q1758.67 214.129 1758.67 220.518 Q1758.67 226.884 1755.5 230.518 Q1752.32 234.129 1746.77 234.129 Q1741.19 234.129 1738.02 230.518 Q1734.87 226.884 1734.87 220.518 Q1734.87 214.129 1738.02 210.518 Q1741.19 206.907 1746.77 206.907 Z" fill="#000000" fill-rule="evenodd" fill-opacity="1" /><path clip-path="url(#clip500)" d="M 0 0 M1765.29 223.226 L1765.29 207.532 L1769.55 207.532 L1769.55 223.064 Q1769.55 226.745 1770.98 228.596 Q1772.42 230.425 1775.29 230.425 Q1778.74 230.425 1780.73 228.226 Q1782.74 226.027 1782.74 222.231 L1782.74 207.532 L1787 207.532 L1787 233.458 L1782.74 233.458 L1782.74 229.476 Q1781.19 231.837 1779.13 232.995 Q1777.09 234.129 1774.38 234.129 Q1769.92 234.129 1767.6 231.351 Q1765.29 228.573 1765.29 223.226 M1776 206.907 L1776 206.907 Z" fill="#000000" fill-rule="evenodd" fill-opacity="1" /><path clip-path="url(#clip500)" d="M 0 0 M1799.99 200.171 L1799.99 207.532 L1808.76 207.532 L1808.76 210.842 L1799.99 210.842 L1799.99 224.916 Q1799.99 228.087 1800.84 228.99 Q1801.72 229.893 1804.38 229.893 L1808.76 229.893 L1808.76 233.458 L1804.38 233.458 Q1799.45 233.458 1797.58 231.629 Q1795.7 229.777 1795.7 224.916 L1795.7 210.842 L1792.58 210.842 L1792.58 207.532 L1795.7 207.532 L1795.7 200.171 L1799.99 200.171 Z" fill="#000000" fill-rule="evenodd" fill-opacity="1" /><path clip-path="url(#clip500)" d="M 0 0 M1831.42 211.467 L1831.42 197.439 L1835.68 197.439 L1835.68 233.458 L1831.42 233.458 L1831.42 229.569 Q1830.08 231.883 1828.02 233.018 Q1825.98 234.129 1823.11 234.129 Q1818.41 234.129 1815.45 230.379 Q1812.51 226.629 1812.51 220.518 Q1812.51 214.407 1815.45 210.657 Q1818.41 206.907 1823.11 206.907 Q1825.98 206.907 1828.02 208.041 Q1830.08 209.152 1831.42 211.467 M1816.91 220.518 Q1816.91 225.217 1818.83 227.902 Q1820.77 230.564 1824.15 230.564 Q1827.53 230.564 1829.48 227.902 Q1831.42 225.217 1831.42 220.518 Q1831.42 215.819 1829.48 213.157 Q1827.53 210.472 1824.15 210.472 Q1820.77 210.472 1818.83 213.157 Q1816.91 215.819 1816.91 220.518 Z" fill="#000000" fill-rule="evenodd" fill-opacity="1" /><path clip-path="url(#clip500)" d="M 0 0 M1854.5 210.518 Q1851.07 210.518 1849.08 213.203 Q1847.09 215.865 1847.09 220.518 Q1847.09 225.171 1849.06 227.856 Q1851.05 230.518 1854.5 230.518 Q1857.9 230.518 1859.89 227.833 Q1861.88 225.147 1861.88 220.518 Q1861.88 215.911 1859.89 213.226 Q1857.9 210.518 1854.5 210.518 M1854.5 206.907 Q1860.05 206.907 1863.23 210.518 Q1866.4 214.129 1866.4 220.518 Q1866.4 226.884 1863.23 230.518 Q1860.05 234.129 1854.5 234.129 Q1848.92 234.129 1845.75 230.518 Q1842.6 226.884 1842.6 220.518 Q1842.6 214.129 1845.75 210.518 Q1848.92 206.907 1854.5 206.907 Z" fill="#000000" fill-rule="evenodd" fill-opacity="1" /><path clip-path="url(#clip500)" d="M 0 0 M1883.5 210.518 Q1880.08 210.518 1878.09 213.203 Q1876.1 215.865 1876.1 220.518 Q1876.1 225.171 1878.06 227.856 Q1880.05 230.518 1883.5 230.518 Q1886.91 230.518 1888.9 227.833 Q1890.89 225.147 1890.89 220.518 Q1890.89 215.911 1888.9 213.226 Q1886.91 210.518 1883.5 210.518 M1883.5 206.907 Q1889.06 206.907 1892.23 210.518 Q1895.4 214.129 1895.4 220.518 Q1895.4 226.884 1892.23 230.518 Q1889.06 234.129 1883.5 234.129 Q1877.92 234.129 1874.75 230.518 Q1871.61 226.884 1871.61 220.518 Q1871.61 214.129 1874.75 210.518 Q1877.92 206.907 1883.5 206.907 Z" fill="#000000" fill-rule="evenodd" fill-opacity="1" /><path clip-path="url(#clip500)" d="M 0 0 M1917.48 211.513 Q1916.77 211.097 1915.91 210.911 Q1915.08 210.703 1914.06 210.703 Q1910.45 210.703 1908.5 213.064 Q1906.58 215.402 1906.58 219.8 L1906.58 233.458 L1902.3 233.458 L1902.3 207.532 L1906.58 207.532 L1906.58 211.56 Q1907.92 209.198 1910.08 208.064 Q1912.23 206.907 1915.31 206.907 Q1915.75 206.907 1916.28 206.976 Q1916.81 207.023 1917.46 207.138 L1917.48 211.513 Z" fill="#000000" fill-rule="evenodd" fill-opacity="1" /></svg>
