<?xml version="1.0" encoding="utf-8"?>
<svg xmlns="http://www.w3.org/2000/svg" xmlns:xlink="http://www.w3.org/1999/xlink" width="600" height="400" viewBox="0 0 2400 1600">
<defs>
  <clipPath id="clip620">
    <rect x="0" y="0" width="2400" height="1600"/>
  </clipPath>
</defs>
<path clip-path="url(#clip620)" d="
M0 1600 L2400 1600 L2400 0 L0 0  Z
  " fill="#ffffff" fill-rule="evenodd" fill-opacity="1"/>
<defs>
  <clipPath id="clip621">
    <rect x="480" y="0" width="1681" height="1600"/>
  </clipPath>
</defs>
<path clip-path="url(#clip620)" d="
M235.283 1423.18 L2352.76 1423.18 L2352.76 123.472 L235.283 123.472  Z
  " fill="#ffffff" fill-rule="evenodd" fill-opacity="1"/>
<defs>
  <clipPath id="clip622">
    <rect x="235" y="123" width="2118" height="1301"/>
  </clipPath>
</defs>
<polyline clip-path="url(#clip622)" style="stroke:#000000; stroke-width:2; stroke-opacity:0.1; fill:none" points="
  295.211,1423.18 295.211,123.472 
  "/>
<polyline clip-path="url(#clip622)" style="stroke:#000000; stroke-width:2; stroke-opacity:0.1; fill:none" points="
  970.462,1423.18 970.462,123.472 
  "/>
<polyline clip-path="url(#clip622)" style="stroke:#000000; stroke-width:2; stroke-opacity:0.1; fill:none" points="
  1645.71,1423.18 1645.71,123.472 
  "/>
<polyline clip-path="url(#clip622)" style="stroke:#000000; stroke-width:2; stroke-opacity:0.1; fill:none" points="
  2320.96,1423.18 2320.96,123.472 
  "/>
<polyline clip-path="url(#clip620)" style="stroke:#000000; stroke-width:4; stroke-opacity:1; fill:none" points="
  235.283,1423.18 2352.76,1423.18 
  "/>
<polyline clip-path="url(#clip620)" style="stroke:#000000; stroke-width:4; stroke-opacity:1; fill:none" points="
  295.211,1423.18 295.211,1407.58 
  "/>
<polyline clip-path="url(#clip620)" style="stroke:#000000; stroke-width:4; stroke-opacity:1; fill:none" points="
  970.462,1423.18 970.462,1407.58 
  "/>
<polyline clip-path="url(#clip620)" style="stroke:#000000; stroke-width:4; stroke-opacity:1; fill:none" points="
  1645.71,1423.18 1645.71,1407.58 
  "/>
<polyline clip-path="url(#clip620)" style="stroke:#000000; stroke-width:4; stroke-opacity:1; fill:none" points="
  2320.96,1423.18 2320.96,1407.58 
  "/>
<path clip-path="url(#clip620)" d="M 0 0 M166.393 1479.92 L182.712 1479.92 L182.712 1483.85 L160.768 1483.85 L160.768 1479.92 Q163.43 1477.16 168.013 1472.53 Q172.619 1467.88 173.8 1466.54 Q176.045 1464.01 176.925 1462.28 Q177.828 1460.52 177.828 1458.83 Q177.828 1456.07 175.883 1454.34 Q173.962 1452.6 170.86 1452.6 Q168.661 1452.6 166.207 1453.37 Q163.777 1454.13 160.999 1455.68 L160.999 1450.96 Q163.823 1449.82 166.277 1449.25 Q168.731 1448.67 170.768 1448.67 Q176.138 1448.67 179.332 1451.35 Q182.527 1454.04 182.527 1458.53 Q182.527 1460.66 181.717 1462.58 Q180.93 1464.48 178.823 1467.07 Q178.244 1467.74 175.143 1470.96 Q172.041 1474.15 166.393 1479.92 Z" fill="#000000" fill-rule="evenodd" fill-opacity="1" /><path clip-path="url(#clip620)" d="M 0 0 M202.527 1452.37 Q198.916 1452.37 197.087 1455.94 Q195.281 1459.48 195.281 1466.61 Q195.281 1473.71 197.087 1477.28 Q198.916 1480.82 202.527 1480.82 Q206.161 1480.82 207.966 1477.28 Q209.795 1473.71 209.795 1466.61 Q209.795 1459.48 207.966 1455.94 Q206.161 1452.37 202.527 1452.37 M202.527 1448.67 Q208.337 1448.67 211.392 1453.27 Q214.471 1457.86 214.471 1466.61 Q214.471 1475.33 211.392 1479.94 Q208.337 1484.52 202.527 1484.52 Q196.716 1484.52 193.638 1479.94 Q190.582 1475.33 190.582 1466.61 Q190.582 1457.86 193.638 1453.27 Q196.716 1448.67 202.527 1448.67 Z" fill="#000000" fill-rule="evenodd" fill-opacity="1" /><path clip-path="url(#clip620)" d="M 0 0 M223.499 1479.92 L231.138 1479.92 L231.138 1453.55 L222.827 1455.22 L222.827 1450.96 L231.091 1449.29 L235.767 1449.29 L235.767 1479.92 L243.406 1479.92 L243.406 1483.85 L223.499 1483.85 L223.499 1479.92 Z" fill="#000000" fill-rule="evenodd" fill-opacity="1" /><path clip-path="url(#clip620)" d="M 0 0 M252.989 1483.13 L252.989 1478.88 Q254.749 1479.71 256.554 1480.15 Q258.36 1480.59 260.096 1480.59 Q264.725 1480.59 267.156 1477.49 Q269.61 1474.36 269.957 1468.02 Q268.614 1470.01 266.554 1471.07 Q264.494 1472.14 261.994 1472.14 Q256.809 1472.14 253.776 1469.01 Q250.767 1465.87 250.767 1460.43 Q250.767 1455.1 253.915 1451.88 Q257.063 1448.67 262.295 1448.67 Q268.29 1448.67 271.438 1453.27 Q274.61 1457.86 274.61 1466.61 Q274.61 1474.78 270.721 1479.66 Q266.855 1484.52 260.304 1484.52 Q258.545 1484.52 256.739 1484.18 Q254.934 1483.83 252.989 1483.13 M262.295 1468.48 Q265.443 1468.48 267.272 1466.33 Q269.124 1464.18 269.124 1460.43 Q269.124 1456.7 267.272 1454.55 Q265.443 1452.37 262.295 1452.37 Q259.147 1452.37 257.295 1454.55 Q255.466 1456.7 255.466 1460.43 Q255.466 1464.18 257.295 1466.33 Q259.147 1468.48 262.295 1468.48 Z" fill="#000000" fill-rule="evenodd" fill-opacity="1" /><path clip-path="url(#clip620)" d="M 0 0 M280.258 1468.97 L292.734 1468.97 L292.734 1472.76 L280.258 1472.76 L280.258 1468.97 Z" fill="#000000" fill-rule="evenodd" fill-opacity="1" /><path clip-path="url(#clip620)" d="M 0 0 M310.119 1452.37 Q306.508 1452.37 304.679 1455.94 Q302.873 1459.48 302.873 1466.61 Q302.873 1473.71 304.679 1477.28 Q306.508 1480.82 310.119 1480.82 Q313.753 1480.82 315.558 1477.28 Q317.387 1473.71 317.387 1466.61 Q317.387 1459.48 315.558 1455.94 Q313.753 1452.37 310.119 1452.37 M310.119 1448.67 Q315.929 1448.67 318.984 1453.27 Q322.063 1457.86 322.063 1466.61 Q322.063 1475.33 318.984 1479.94 Q315.929 1484.52 310.119 1484.52 Q304.309 1484.52 301.23 1479.94 Q298.174 1475.33 298.174 1466.61 Q298.174 1457.86 301.23 1453.27 Q304.309 1448.67 310.119 1448.67 Z" fill="#000000" fill-rule="evenodd" fill-opacity="1" /><path clip-path="url(#clip620)" d="M 0 0 M330.327 1449.29 L348.683 1449.29 L348.683 1453.23 L334.609 1453.23 L334.609 1461.7 Q335.628 1461.35 336.646 1461.19 Q337.665 1461 338.683 1461 Q344.47 1461 347.85 1464.18 Q351.23 1467.35 351.23 1472.76 Q351.23 1478.34 347.757 1481.44 Q344.285 1484.52 337.966 1484.52 Q335.79 1484.52 333.521 1484.15 Q331.276 1483.78 328.869 1483.04 L328.869 1478.34 Q330.952 1479.48 333.174 1480.03 Q335.396 1480.59 337.873 1480.59 Q341.878 1480.59 344.216 1478.48 Q346.554 1476.38 346.554 1472.76 Q346.554 1469.15 344.216 1467.05 Q341.878 1464.94 337.873 1464.94 Q335.998 1464.94 334.123 1465.36 Q332.271 1465.77 330.327 1466.65 L330.327 1449.29 Z" fill="#000000" fill-rule="evenodd" fill-opacity="1" /><path clip-path="url(#clip620)" d="M 0 0 M357.688 1468.97 L370.165 1468.97 L370.165 1472.76 L357.688 1472.76 L357.688 1468.97 Z" fill="#000000" fill-rule="evenodd" fill-opacity="1" /><path clip-path="url(#clip620)" d="M 0 0 M391.715 1465.22 Q395.072 1465.94 396.947 1468.2 Q398.845 1470.47 398.845 1473.81 Q398.845 1478.92 395.327 1481.72 Q391.808 1484.52 385.327 1484.52 Q383.151 1484.52 380.836 1484.08 Q378.544 1483.67 376.091 1482.81 L376.091 1478.3 Q378.035 1479.43 380.35 1480.01 Q382.665 1480.59 385.188 1480.59 Q389.586 1480.59 391.877 1478.85 Q394.192 1477.12 394.192 1473.81 Q394.192 1470.75 392.04 1469.04 Q389.91 1467.3 386.09 1467.3 L382.063 1467.3 L382.063 1463.46 L386.276 1463.46 Q389.725 1463.46 391.553 1462.09 Q393.382 1460.7 393.382 1458.11 Q393.382 1455.45 391.484 1454.04 Q389.609 1452.6 386.09 1452.6 Q384.169 1452.6 381.97 1453.02 Q379.771 1453.44 377.132 1454.31 L377.132 1450.15 Q379.794 1449.41 382.109 1449.04 Q384.447 1448.67 386.507 1448.67 Q391.831 1448.67 394.933 1451.1 Q398.035 1453.5 398.035 1457.63 Q398.035 1460.5 396.391 1462.49 Q394.748 1464.45 391.715 1465.22 Z" fill="#000000" fill-rule="evenodd" fill-opacity="1" /><path clip-path="url(#clip620)" d="M 0 0 M417.711 1452.37 Q414.1 1452.37 412.271 1455.94 Q410.465 1459.48 410.465 1466.61 Q410.465 1473.71 412.271 1477.28 Q414.1 1480.82 417.711 1480.82 Q421.345 1480.82 423.15 1477.28 Q424.979 1473.71 424.979 1466.61 Q424.979 1459.48 423.15 1455.94 Q421.345 1452.37 417.711 1452.37 M417.711 1448.67 Q423.521 1448.67 426.576 1453.27 Q429.655 1457.86 429.655 1466.61 Q429.655 1475.33 426.576 1479.94 Q423.521 1484.52 417.711 1484.52 Q411.901 1484.52 408.822 1479.94 Q405.766 1475.33 405.766 1466.61 Q405.766 1457.86 408.822 1453.27 Q411.901 1448.67 417.711 1448.67 Z" fill="#000000" fill-rule="evenodd" fill-opacity="1" /><path clip-path="url(#clip620)" d="M 0 0 M842.257 1479.92 L858.576 1479.92 L858.576 1483.85 L836.632 1483.85 L836.632 1479.92 Q839.294 1477.16 843.877 1472.53 Q848.483 1467.88 849.664 1466.54 Q851.909 1464.01 852.789 1462.28 Q853.692 1460.52 853.692 1458.83 Q853.692 1456.07 851.747 1454.34 Q849.826 1452.6 846.724 1452.6 Q844.525 1452.6 842.071 1453.37 Q839.641 1454.13 836.863 1455.68 L836.863 1450.96 Q839.687 1449.82 842.141 1449.25 Q844.594 1448.67 846.631 1448.67 Q852.002 1448.67 855.196 1451.35 Q858.391 1454.04 858.391 1458.53 Q858.391 1460.66 857.581 1462.58 Q856.793 1464.48 854.687 1467.07 Q854.108 1467.74 851.006 1470.96 Q847.905 1474.15 842.257 1479.92 Z" fill="#000000" fill-rule="evenodd" fill-opacity="1" /><path clip-path="url(#clip620)" d="M 0 0 M878.391 1452.37 Q874.779 1452.37 872.951 1455.94 Q871.145 1459.48 871.145 1466.61 Q871.145 1473.71 872.951 1477.28 Q874.779 1480.82 878.391 1480.82 Q882.025 1480.82 883.83 1477.28 Q885.659 1473.71 885.659 1466.61 Q885.659 1459.48 883.83 1455.94 Q882.025 1452.37 878.391 1452.37 M878.391 1448.67 Q884.201 1448.67 887.256 1453.27 Q890.335 1457.86 890.335 1466.61 Q890.335 1475.33 887.256 1479.94 Q884.201 1484.52 878.391 1484.52 Q872.58 1484.52 869.502 1479.94 Q866.446 1475.33 866.446 1466.61 Q866.446 1457.86 869.502 1453.27 Q872.58 1448.67 878.391 1448.67 Z" fill="#000000" fill-rule="evenodd" fill-opacity="1" /><path clip-path="url(#clip620)" d="M 0 0 M899.363 1479.92 L907.002 1479.92 L907.002 1453.55 L898.691 1455.22 L898.691 1450.96 L906.955 1449.29 L911.631 1449.29 L911.631 1479.92 L919.27 1479.92 L919.27 1483.85 L899.363 1483.85 L899.363 1479.92 Z" fill="#000000" fill-rule="evenodd" fill-opacity="1" /><path clip-path="url(#clip620)" d="M 0 0 M928.853 1483.13 L928.853 1478.88 Q930.613 1479.71 932.418 1480.15 Q934.224 1480.59 935.96 1480.59 Q940.589 1480.59 943.02 1477.49 Q945.474 1474.36 945.821 1468.02 Q944.478 1470.01 942.418 1471.07 Q940.358 1472.14 937.858 1472.14 Q932.673 1472.14 929.64 1469.01 Q926.631 1465.87 926.631 1460.43 Q926.631 1455.1 929.779 1451.88 Q932.927 1448.67 938.159 1448.67 Q944.154 1448.67 947.302 1453.27 Q950.474 1457.86 950.474 1466.61 Q950.474 1474.78 946.585 1479.66 Q942.719 1484.52 936.168 1484.52 Q934.409 1484.52 932.603 1484.18 Q930.798 1483.83 928.853 1483.13 M938.159 1468.48 Q941.307 1468.48 943.136 1466.33 Q944.987 1464.18 944.987 1460.43 Q944.987 1456.7 943.136 1454.55 Q941.307 1452.37 938.159 1452.37 Q935.011 1452.37 933.159 1454.55 Q931.33 1456.7 931.33 1460.43 Q931.33 1464.18 933.159 1466.33 Q935.011 1468.48 938.159 1468.48 Z" fill="#000000" fill-rule="evenodd" fill-opacity="1" /><path clip-path="url(#clip620)" d="M 0 0 M956.122 1468.97 L968.598 1468.97 L968.598 1472.76 L956.122 1472.76 L956.122 1468.97 Z" fill="#000000" fill-rule="evenodd" fill-opacity="1" /><path clip-path="url(#clip620)" d="M 0 0 M985.983 1452.37 Q982.372 1452.37 980.543 1455.94 Q978.737 1459.48 978.737 1466.61 Q978.737 1473.71 980.543 1477.28 Q982.372 1480.82 985.983 1480.82 Q989.617 1480.82 991.422 1477.28 Q993.251 1473.71 993.251 1466.61 Q993.251 1459.48 991.422 1455.94 Q989.617 1452.37 985.983 1452.37 M985.983 1448.67 Q991.793 1448.67 994.848 1453.27 Q997.927 1457.86 997.927 1466.61 Q997.927 1475.33 994.848 1479.94 Q991.793 1484.52 985.983 1484.52 Q980.172 1484.52 977.094 1479.94 Q974.038 1475.33 974.038 1466.61 Q974.038 1457.86 977.094 1453.27 Q980.172 1448.67 985.983 1448.67 Z" fill="#000000" fill-rule="evenodd" fill-opacity="1" /><path clip-path="url(#clip620)" d="M 0 0 M1006.19 1449.29 L1024.55 1449.29 L1024.55 1453.23 L1010.47 1453.23 L1010.47 1461.7 Q1011.49 1461.35 1012.51 1461.19 Q1013.53 1461 1014.55 1461 Q1020.33 1461 1023.71 1464.18 Q1027.09 1467.35 1027.09 1472.76 Q1027.09 1478.34 1023.62 1481.44 Q1020.15 1484.52 1013.83 1484.52 Q1011.65 1484.52 1009.39 1484.15 Q1007.14 1483.78 1004.73 1483.04 L1004.73 1478.34 Q1006.82 1479.48 1009.04 1480.03 Q1011.26 1480.59 1013.74 1480.59 Q1017.74 1480.59 1020.08 1478.48 Q1022.42 1476.38 1022.42 1472.76 Q1022.42 1469.15 1020.08 1467.05 Q1017.74 1464.94 1013.74 1464.94 Q1011.86 1464.94 1009.99 1465.36 Q1008.14 1465.77 1006.19 1466.65 L1006.19 1449.29 Z" fill="#000000" fill-rule="evenodd" fill-opacity="1" /><path clip-path="url(#clip620)" d="M 0 0 M1033.55 1468.97 L1046.03 1468.97 L1046.03 1472.76 L1033.55 1472.76 L1033.55 1468.97 Z" fill="#000000" fill-rule="evenodd" fill-opacity="1" /><path clip-path="url(#clip620)" d="M 0 0 M1067.58 1465.22 Q1070.94 1465.94 1072.81 1468.2 Q1074.71 1470.47 1074.71 1473.81 Q1074.71 1478.92 1071.19 1481.72 Q1067.67 1484.52 1061.19 1484.52 Q1059.01 1484.52 1056.7 1484.08 Q1054.41 1483.67 1051.95 1482.81 L1051.95 1478.3 Q1053.9 1479.43 1056.21 1480.01 Q1058.53 1480.59 1061.05 1480.59 Q1065.45 1480.59 1067.74 1478.85 Q1070.06 1477.12 1070.06 1473.81 Q1070.06 1470.75 1067.9 1469.04 Q1065.77 1467.3 1061.95 1467.3 L1057.93 1467.3 L1057.93 1463.46 L1062.14 1463.46 Q1065.59 1463.46 1067.42 1462.09 Q1069.25 1460.7 1069.25 1458.11 Q1069.25 1455.45 1067.35 1454.04 Q1065.47 1452.6 1061.95 1452.6 Q1060.03 1452.6 1057.83 1453.02 Q1055.63 1453.44 1053 1454.31 L1053 1450.15 Q1055.66 1449.41 1057.97 1449.04 Q1060.31 1448.67 1062.37 1448.67 Q1067.7 1448.67 1070.8 1451.1 Q1073.9 1453.5 1073.9 1457.63 Q1073.9 1460.5 1072.26 1462.49 Q1070.61 1464.45 1067.58 1465.22 Z" fill="#000000" fill-rule="evenodd" fill-opacity="1" /><path clip-path="url(#clip620)" d="M 0 0 M1084.38 1479.92 L1092.02 1479.92 L1092.02 1453.55 L1083.71 1455.22 L1083.71 1450.96 L1091.98 1449.29 L1096.65 1449.29 L1096.65 1479.92 L1104.29 1479.92 L1104.29 1483.85 L1084.38 1483.85 L1084.38 1479.92 Z" fill="#000000" fill-rule="evenodd" fill-opacity="1" /><path clip-path="url(#clip620)" d="M 0 0 M1517.51 1479.92 L1533.83 1479.92 L1533.83 1483.85 L1511.88 1483.85 L1511.88 1479.92 Q1514.54 1477.16 1519.13 1472.53 Q1523.73 1467.88 1524.91 1466.54 Q1527.16 1464.01 1528.04 1462.28 Q1528.94 1460.52 1528.94 1458.83 Q1528.94 1456.07 1527 1454.34 Q1525.08 1452.6 1521.97 1452.6 Q1519.78 1452.6 1517.32 1453.37 Q1514.89 1454.13 1512.11 1455.68 L1512.11 1450.96 Q1514.94 1449.82 1517.39 1449.25 Q1519.84 1448.67 1521.88 1448.67 Q1527.25 1448.67 1530.45 1451.35 Q1533.64 1454.04 1533.64 1458.53 Q1533.64 1460.66 1532.83 1462.58 Q1532.04 1464.48 1529.94 1467.07 Q1529.36 1467.74 1526.26 1470.96 Q1523.16 1474.15 1517.51 1479.92 Z" fill="#000000" fill-rule="evenodd" fill-opacity="1" /><path clip-path="url(#clip620)" d="M 0 0 M1553.64 1452.37 Q1550.03 1452.37 1548.2 1455.94 Q1546.4 1459.48 1546.4 1466.61 Q1546.4 1473.71 1548.2 1477.28 Q1550.03 1480.82 1553.64 1480.82 Q1557.28 1480.82 1559.08 1477.28 Q1560.91 1473.71 1560.91 1466.61 Q1560.91 1459.48 1559.08 1455.94 Q1557.28 1452.37 1553.64 1452.37 M1553.64 1448.67 Q1559.45 1448.67 1562.51 1453.27 Q1565.59 1457.86 1565.59 1466.61 Q1565.59 1475.33 1562.51 1479.94 Q1559.45 1484.52 1553.64 1484.52 Q1547.83 1484.52 1544.75 1479.94 Q1541.7 1475.33 1541.7 1466.61 Q1541.7 1457.86 1544.75 1453.27 Q1547.83 1448.67 1553.64 1448.67 Z" fill="#000000" fill-rule="evenodd" fill-opacity="1" /><path clip-path="url(#clip620)" d="M 0 0 M1574.61 1479.92 L1582.25 1479.92 L1582.25 1453.55 L1573.94 1455.22 L1573.94 1450.96 L1582.21 1449.29 L1586.88 1449.29 L1586.88 1479.92 L1594.52 1479.92 L1594.52 1483.85 L1574.61 1483.85 L1574.61 1479.92 Z" fill="#000000" fill-rule="evenodd" fill-opacity="1" /><path clip-path="url(#clip620)" d="M 0 0 M1604.1 1483.13 L1604.1 1478.88 Q1605.86 1479.71 1607.67 1480.15 Q1609.47 1480.59 1611.21 1480.59 Q1615.84 1480.59 1618.27 1477.49 Q1620.72 1474.36 1621.07 1468.02 Q1619.73 1470.01 1617.67 1471.07 Q1615.61 1472.14 1613.11 1472.14 Q1607.92 1472.14 1604.89 1469.01 Q1601.88 1465.87 1601.88 1460.43 Q1601.88 1455.1 1605.03 1451.88 Q1608.18 1448.67 1613.41 1448.67 Q1619.4 1448.67 1622.55 1453.27 Q1625.72 1457.86 1625.72 1466.61 Q1625.72 1474.78 1621.84 1479.66 Q1617.97 1484.52 1611.42 1484.52 Q1609.66 1484.52 1607.85 1484.18 Q1606.05 1483.83 1604.1 1483.13 M1613.41 1468.48 Q1616.56 1468.48 1618.39 1466.33 Q1620.24 1464.18 1620.24 1460.43 Q1620.24 1456.7 1618.39 1454.55 Q1616.56 1452.37 1613.41 1452.37 Q1610.26 1452.37 1608.41 1454.55 Q1606.58 1456.7 1606.58 1460.43 Q1606.58 1464.18 1608.41 1466.33 Q1610.26 1468.48 1613.41 1468.48 Z" fill="#000000" fill-rule="evenodd" fill-opacity="1" /><path clip-path="url(#clip620)" d="M 0 0 M1631.37 1468.97 L1643.85 1468.97 L1643.85 1472.76 L1631.37 1472.76 L1631.37 1468.97 Z" fill="#000000" fill-rule="evenodd" fill-opacity="1" /><path clip-path="url(#clip620)" d="M 0 0 M1661.23 1452.37 Q1657.62 1452.37 1655.79 1455.94 Q1653.99 1459.48 1653.99 1466.61 Q1653.99 1473.71 1655.79 1477.28 Q1657.62 1480.82 1661.23 1480.82 Q1664.87 1480.82 1666.67 1477.28 Q1668.5 1473.71 1668.5 1466.61 Q1668.5 1459.48 1666.67 1455.94 Q1664.87 1452.37 1661.23 1452.37 M1661.23 1448.67 Q1667.04 1448.67 1670.1 1453.27 Q1673.18 1457.86 1673.18 1466.61 Q1673.18 1475.33 1670.1 1479.94 Q1667.04 1484.52 1661.23 1484.52 Q1655.42 1484.52 1652.34 1479.94 Q1649.29 1475.33 1649.29 1466.61 Q1649.29 1457.86 1652.34 1453.27 Q1655.42 1448.67 1661.23 1448.67 Z" fill="#000000" fill-rule="evenodd" fill-opacity="1" /><path clip-path="url(#clip620)" d="M 0 0 M1691.97 1464.71 Q1688.83 1464.71 1686.97 1466.86 Q1685.15 1469.01 1685.15 1472.76 Q1685.15 1476.49 1686.97 1478.67 Q1688.83 1480.82 1691.97 1480.82 Q1695.12 1480.82 1696.95 1478.67 Q1698.8 1476.49 1698.8 1472.76 Q1698.8 1469.01 1696.95 1466.86 Q1695.12 1464.71 1691.97 1464.71 M1701.26 1450.06 L1701.26 1454.31 Q1699.5 1453.48 1697.69 1453.04 Q1695.91 1452.6 1694.15 1452.6 Q1689.52 1452.6 1687.07 1455.73 Q1684.64 1458.85 1684.29 1465.17 Q1685.65 1463.16 1687.71 1462.09 Q1689.77 1461 1692.25 1461 Q1697.46 1461 1700.47 1464.18 Q1703.5 1467.32 1703.5 1472.76 Q1703.5 1478.09 1700.35 1481.31 Q1697.21 1484.52 1691.97 1484.52 Q1685.98 1484.52 1682.81 1479.94 Q1679.64 1475.33 1679.64 1466.61 Q1679.64 1458.41 1683.52 1453.55 Q1687.41 1448.67 1693.96 1448.67 Q1695.72 1448.67 1697.51 1449.01 Q1699.31 1449.36 1701.26 1450.06 Z" fill="#000000" fill-rule="evenodd" fill-opacity="1" /><path clip-path="url(#clip620)" d="M 0 0 M1708.8 1468.97 L1721.28 1468.97 L1721.28 1472.76 L1708.8 1472.76 L1708.8 1468.97 Z" fill="#000000" fill-rule="evenodd" fill-opacity="1" /><path clip-path="url(#clip620)" d="M 0 0 M1738.66 1452.37 Q1735.05 1452.37 1733.22 1455.94 Q1731.42 1459.48 1731.42 1466.61 Q1731.42 1473.71 1733.22 1477.28 Q1735.05 1480.82 1738.66 1480.82 Q1742.3 1480.82 1744.1 1477.28 Q1745.93 1473.71 1745.93 1466.61 Q1745.93 1459.48 1744.1 1455.94 Q1742.3 1452.37 1738.66 1452.37 M1738.66 1448.67 Q1744.47 1448.67 1747.53 1453.27 Q1750.61 1457.86 1750.61 1466.61 Q1750.61 1475.33 1747.53 1479.94 Q1744.47 1484.52 1738.66 1484.52 Q1732.85 1484.52 1729.77 1479.94 Q1726.72 1475.33 1726.72 1466.61 Q1726.72 1457.86 1729.77 1453.27 Q1732.85 1448.67 1738.66 1448.67 Z" fill="#000000" fill-rule="evenodd" fill-opacity="1" /><path clip-path="url(#clip620)" d="M 0 0 M1759.64 1479.92 L1767.27 1479.92 L1767.27 1453.55 L1758.96 1455.22 L1758.96 1450.96 L1767.23 1449.29 L1771.9 1449.29 L1771.9 1479.92 L1779.54 1479.92 L1779.54 1483.85 L1759.64 1483.85 L1759.64 1479.92 Z" fill="#000000" fill-rule="evenodd" fill-opacity="1" /><path clip-path="url(#clip620)" d="M 0 0 M2192.94 1479.92 L2209.26 1479.92 L2209.26 1483.85 L2187.32 1483.85 L2187.32 1479.92 Q2189.98 1477.16 2194.56 1472.53 Q2199.17 1467.88 2200.35 1466.54 Q2202.6 1464.01 2203.48 1462.28 Q2204.38 1460.52 2204.38 1458.83 Q2204.38 1456.07 2202.43 1454.34 Q2200.51 1452.6 2197.41 1452.6 Q2195.21 1452.6 2192.76 1453.37 Q2190.33 1454.13 2187.55 1455.68 L2187.55 1450.96 Q2190.37 1449.82 2192.83 1449.25 Q2195.28 1448.67 2197.32 1448.67 Q2202.69 1448.67 2205.88 1451.35 Q2209.08 1454.04 2209.08 1458.53 Q2209.08 1460.66 2208.27 1462.58 Q2207.48 1464.48 2205.37 1467.07 Q2204.79 1467.74 2201.69 1470.96 Q2198.59 1474.15 2192.94 1479.92 Z" fill="#000000" fill-rule="evenodd" fill-opacity="1" /><path clip-path="url(#clip620)" d="M 0 0 M2229.08 1452.37 Q2225.47 1452.37 2223.64 1455.94 Q2221.83 1459.48 2221.83 1466.61 Q2221.83 1473.71 2223.64 1477.28 Q2225.47 1480.82 2229.08 1480.82 Q2232.71 1480.82 2234.52 1477.28 Q2236.35 1473.71 2236.35 1466.61 Q2236.35 1459.48 2234.52 1455.94 Q2232.71 1452.37 2229.08 1452.37 M2229.08 1448.67 Q2234.89 1448.67 2237.94 1453.27 Q2241.02 1457.86 2241.02 1466.61 Q2241.02 1475.33 2237.94 1479.94 Q2234.89 1484.52 2229.08 1484.52 Q2223.27 1484.52 2220.19 1479.94 Q2217.13 1475.33 2217.13 1466.61 Q2217.13 1457.86 2220.19 1453.27 Q2223.27 1448.67 2229.08 1448.67 Z" fill="#000000" fill-rule="evenodd" fill-opacity="1" /><path clip-path="url(#clip620)" d="M 0 0 M2250.05 1479.92 L2257.69 1479.92 L2257.69 1453.55 L2249.38 1455.22 L2249.38 1450.96 L2257.64 1449.29 L2262.32 1449.29 L2262.32 1479.92 L2269.96 1479.92 L2269.96 1483.85 L2250.05 1483.85 L2250.05 1479.92 Z" fill="#000000" fill-rule="evenodd" fill-opacity="1" /><path clip-path="url(#clip620)" d="M 0 0 M2279.54 1483.13 L2279.54 1478.88 Q2281.3 1479.71 2283.1 1480.15 Q2284.91 1480.59 2286.65 1480.59 Q2291.28 1480.59 2293.71 1477.49 Q2296.16 1474.36 2296.51 1468.02 Q2295.16 1470.01 2293.1 1471.07 Q2291.04 1472.14 2288.54 1472.14 Q2283.36 1472.14 2280.33 1469.01 Q2277.32 1465.87 2277.32 1460.43 Q2277.32 1455.1 2280.47 1451.88 Q2283.61 1448.67 2288.84 1448.67 Q2294.84 1448.67 2297.99 1453.27 Q2301.16 1457.86 2301.16 1466.61 Q2301.16 1474.78 2297.27 1479.66 Q2293.41 1484.52 2286.85 1484.52 Q2285.09 1484.52 2283.29 1484.18 Q2281.48 1483.83 2279.54 1483.13 M2288.84 1468.48 Q2291.99 1468.48 2293.82 1466.33 Q2295.67 1464.18 2295.67 1460.43 Q2295.67 1456.7 2293.82 1454.55 Q2291.99 1452.37 2288.84 1452.37 Q2285.7 1452.37 2283.85 1454.55 Q2282.02 1456.7 2282.02 1460.43 Q2282.02 1464.18 2283.85 1466.33 Q2285.7 1468.48 2288.84 1468.48 Z" fill="#000000" fill-rule="evenodd" fill-opacity="1" /><path clip-path="url(#clip620)" d="M 0 0 M2306.81 1468.97 L2319.28 1468.97 L2319.28 1472.76 L2306.81 1472.76 L2306.81 1468.97 Z" fill="#000000" fill-rule="evenodd" fill-opacity="1" /><path clip-path="url(#clip620)" d="M 0 0 M2336.67 1452.37 Q2333.06 1452.37 2331.23 1455.94 Q2329.42 1459.48 2329.42 1466.61 Q2329.42 1473.71 2331.23 1477.28 Q2333.06 1480.82 2336.67 1480.82 Q2340.3 1480.82 2342.11 1477.28 Q2343.94 1473.71 2343.94 1466.61 Q2343.94 1459.48 2342.11 1455.94 Q2340.3 1452.37 2336.67 1452.37 M2336.67 1448.67 Q2342.48 1448.67 2345.53 1453.27 Q2348.61 1457.86 2348.61 1466.61 Q2348.61 1475.33 2345.53 1479.94 Q2342.48 1484.52 2336.67 1484.52 Q2330.86 1484.52 2327.78 1479.94 Q2324.72 1475.33 2324.72 1466.61 Q2324.72 1457.86 2327.78 1453.27 Q2330.86 1448.67 2336.67 1448.67 Z" fill="#000000" fill-rule="evenodd" fill-opacity="1" /><path clip-path="url(#clip620)" d="M 0 0 M2367.41 1464.71 Q2364.26 1464.71 2362.41 1466.86 Q2360.58 1469.01 2360.58 1472.76 Q2360.58 1476.49 2362.41 1478.67 Q2364.26 1480.82 2367.41 1480.82 Q2370.56 1480.82 2372.39 1478.67 Q2374.24 1476.49 2374.24 1472.76 Q2374.24 1469.01 2372.39 1466.86 Q2370.56 1464.71 2367.41 1464.71 M2376.69 1450.06 L2376.69 1454.31 Q2374.93 1453.48 2373.13 1453.04 Q2371.34 1452.6 2369.59 1452.6 Q2364.96 1452.6 2362.5 1455.73 Q2360.07 1458.85 2359.72 1465.17 Q2361.09 1463.16 2363.15 1462.09 Q2365.21 1461 2367.69 1461 Q2372.9 1461 2375.9 1464.18 Q2378.94 1467.32 2378.94 1472.76 Q2378.94 1478.09 2375.79 1481.31 Q2372.64 1484.52 2367.41 1484.52 Q2361.41 1484.52 2358.24 1479.94 Q2355.07 1475.33 2355.07 1466.61 Q2355.07 1458.41 2358.96 1453.55 Q2362.85 1448.67 2369.4 1448.67 Q2371.16 1448.67 2372.94 1449.01 Q2374.75 1449.36 2376.69 1450.06 Z" fill="#000000" fill-rule="evenodd" fill-opacity="1" /><path clip-path="url(#clip620)" d="M 0 0 M2384.24 1468.97 L2396.71 1468.97 L2396.71 1472.76 L2384.24 1472.76 L2384.24 1468.97 Z" fill="#000000" fill-rule="evenodd" fill-opacity="1" /><path clip-path="url(#clip620)" d="M 0 0 M2414.1 1452.37 Q2410.49 1452.37 2408.66 1455.94 Q2406.85 1459.48 2406.85 1466.61 Q2406.85 1473.71 2408.66 1477.28 Q2410.49 1480.82 2414.1 1480.82 Q2417.73 1480.82 2419.54 1477.28 Q2421.37 1473.71 2421.37 1466.61 Q2421.37 1459.48 2419.54 1455.94 Q2417.73 1452.37 2414.1 1452.37 M2414.1 1448.67 Q2419.91 1448.67 2422.96 1453.27 Q2426.04 1457.86 2426.04 1466.61 Q2426.04 1475.33 2422.96 1479.94 Q2419.91 1484.52 2414.1 1484.52 Q2408.29 1484.52 2405.21 1479.94 Q2402.15 1475.33 2402.15 1466.61 Q2402.15 1457.86 2405.21 1453.27 Q2408.29 1448.67 2414.1 1448.67 Z" fill="#000000" fill-rule="evenodd" fill-opacity="1" /><path clip-path="url(#clip620)" d="M 0 0 M2438.29 1479.92 L2454.61 1479.92 L2454.61 1483.85 L2432.66 1483.85 L2432.66 1479.92 Q2435.33 1477.16 2439.91 1472.53 Q2444.52 1467.88 2445.7 1466.54 Q2447.94 1464.01 2448.82 1462.28 Q2449.72 1460.52 2449.72 1458.83 Q2449.72 1456.07 2447.78 1454.34 Q2445.86 1452.6 2442.76 1452.6 Q2440.56 1452.6 2438.1 1453.37 Q2435.67 1454.13 2432.9 1455.68 L2432.9 1450.96 Q2435.72 1449.82 2438.17 1449.25 Q2440.63 1448.67 2442.66 1448.67 Q2448.03 1448.67 2451.23 1451.35 Q2454.42 1454.04 2454.42 1458.53 Q2454.42 1460.66 2453.61 1462.58 Q2452.83 1464.48 2450.72 1467.07 Q2450.14 1467.74 2447.04 1470.96 Q2443.94 1474.15 2438.29 1479.92 Z" fill="#000000" fill-rule="evenodd" fill-opacity="1" /><path clip-path="url(#clip620)" d="M 0 0 M1227.48 1525.81 L1227.48 1562.76 L1235.25 1562.76 Q1245.08 1562.76 1249.63 1558.3 Q1254.22 1553.85 1254.22 1544.24 Q1254.22 1534.69 1249.63 1530.26 Q1245.08 1525.81 1235.25 1525.81 L1227.48 1525.81 M1221.05 1520.52 L1234.26 1520.52 Q1248.07 1520.52 1254.54 1526.28 Q1261 1532.01 1261 1544.24 Q1261 1556.52 1254.5 1562.28 Q1248.01 1568.04 1234.26 1568.04 L1221.05 1568.04 L1221.05 1520.52 Z" fill="#000000" fill-rule="evenodd" fill-opacity="1" /><path clip-path="url(#clip620)" d="M 0 0 M1287.19 1550.12 Q1280.09 1550.12 1277.36 1551.75 Q1274.62 1553.37 1274.62 1557.29 Q1274.62 1560.4 1276.66 1562.25 Q1278.73 1564.07 1282.26 1564.07 Q1287.13 1564.07 1290.06 1560.63 Q1293.02 1557.16 1293.02 1551.43 L1293.02 1550.12 L1287.19 1550.12 M1298.87 1547.71 L1298.87 1568.04 L1293.02 1568.04 L1293.02 1562.63 Q1291.01 1565.88 1288.02 1567.44 Q1285.03 1568.97 1280.7 1568.97 Q1275.22 1568.97 1271.98 1565.91 Q1268.76 1562.82 1268.76 1557.67 Q1268.76 1551.65 1272.77 1548.6 Q1276.82 1545.54 1284.81 1545.54 L1293.02 1545.54 L1293.02 1544.97 Q1293.02 1540.93 1290.34 1538.73 Q1287.7 1536.5 1282.9 1536.5 Q1279.84 1536.5 1276.94 1537.23 Q1274.05 1537.97 1271.37 1539.43 L1271.37 1534.02 Q1274.59 1532.78 1277.61 1532.17 Q1280.64 1531.54 1283.5 1531.54 Q1291.23 1531.54 1295.05 1535.55 Q1298.87 1539.56 1298.87 1547.71 Z" fill="#000000" fill-rule="evenodd" fill-opacity="1" /><path clip-path="url(#clip620)" d="M 0 0 M1316.73 1522.27 L1316.73 1532.4 L1328.79 1532.4 L1328.79 1536.95 L1316.73 1536.95 L1316.73 1556.3 Q1316.73 1560.66 1317.91 1561.9 Q1319.12 1563.14 1322.78 1563.14 L1328.79 1563.14 L1328.79 1568.04 L1322.78 1568.04 Q1316 1568.04 1313.42 1565.53 Q1310.84 1562.98 1310.84 1556.3 L1310.84 1536.95 L1306.54 1536.95 L1306.54 1532.4 L1310.84 1532.4 L1310.84 1522.27 L1316.73 1522.27 Z" fill="#000000" fill-rule="evenodd" fill-opacity="1" /><path clip-path="url(#clip620)" d="M 0 0 M1366.99 1548.76 L1366.99 1551.62 L1340.06 1551.62 Q1340.44 1557.67 1343.69 1560.85 Q1346.97 1564 1352.79 1564 Q1356.16 1564 1359.32 1563.17 Q1362.5 1562.35 1365.62 1560.69 L1365.62 1566.23 Q1362.47 1567.57 1359.16 1568.27 Q1355.85 1568.97 1352.44 1568.97 Q1343.91 1568.97 1338.91 1564 Q1333.95 1559.04 1333.95 1550.57 Q1333.95 1541.82 1338.66 1536.69 Q1343.4 1531.54 1351.42 1531.54 Q1358.62 1531.54 1362.78 1536.18 Q1366.99 1540.8 1366.99 1548.76 M1361.13 1547.04 Q1361.07 1542.23 1358.42 1539.37 Q1355.81 1536.5 1351.49 1536.5 Q1346.58 1536.5 1343.62 1539.27 Q1340.7 1542.04 1340.25 1547.07 L1361.13 1547.04 Z" fill="#000000" fill-rule="evenodd" fill-opacity="1" /><polyline clip-path="url(#clip622)" style="stroke:#000000; stroke-width:2; stroke-opacity:0.1; fill:none" points="
  235.283,1422.83 2352.76,1422.83 
  "/>
<polyline clip-path="url(#clip622)" style="stroke:#000000; stroke-width:2; stroke-opacity:0.1; fill:none" points="
  235.283,1176.18 2352.76,1176.18 
  "/>
<polyline clip-path="url(#clip622)" style="stroke:#000000; stroke-width:2; stroke-opacity:0.1; fill:none" points="
  235.283,929.527 2352.76,929.527 
  "/>
<polyline clip-path="url(#clip622)" style="stroke:#000000; stroke-width:2; stroke-opacity:0.1; fill:none" points="
  235.283,682.873 2352.76,682.873 
  "/>
<polyline clip-path="url(#clip622)" style="stroke:#000000; stroke-width:2; stroke-opacity:0.1; fill:none" points="
  235.283,436.22 2352.76,436.22 
  "/>
<polyline clip-path="url(#clip622)" style="stroke:#000000; stroke-width:2; stroke-opacity:0.1; fill:none" points="
  235.283,189.567 2352.76,189.567 
  "/>
<polyline clip-path="url(#clip620)" style="stroke:#000000; stroke-width:4; stroke-opacity:1; fill:none" points="
  235.283,1423.18 235.283,123.472 
  "/>
<polyline clip-path="url(#clip620)" style="stroke:#000000; stroke-width:4; stroke-opacity:1; fill:none" points="
  235.283,1422.83 260.693,1422.83 
  "/>
<polyline clip-path="url(#clip620)" style="stroke:#000000; stroke-width:4; stroke-opacity:1; fill:none" points="
  235.283,1176.18 260.693,1176.18 
  "/>
<polyline clip-path="url(#clip620)" style="stroke:#000000; stroke-width:4; stroke-opacity:1; fill:none" points="
  235.283,929.527 260.693,929.527 
  "/>
<polyline clip-path="url(#clip620)" style="stroke:#000000; stroke-width:4; stroke-opacity:1; fill:none" points="
  235.283,682.873 260.693,682.873 
  "/>
<polyline clip-path="url(#clip620)" style="stroke:#000000; stroke-width:4; stroke-opacity:1; fill:none" points="
  235.283,436.22 260.693,436.22 
  "/>
<polyline clip-path="url(#clip620)" style="stroke:#000000; stroke-width:4; stroke-opacity:1; fill:none" points="
  235.283,189.567 260.693,189.567 
  "/>
<path clip-path="url(#clip620)" d="M 0 0 M187.338 1408.63 Q183.727 1408.63 181.899 1412.2 Q180.093 1415.74 180.093 1422.87 Q180.093 1429.97 181.899 1433.54 Q183.727 1437.08 187.338 1437.08 Q190.973 1437.08 192.778 1433.54 Q194.607 1429.97 194.607 1422.87 Q194.607 1415.74 192.778 1412.2 Q190.973 1408.63 187.338 1408.63 M187.338 1404.93 Q193.149 1404.93 196.204 1409.54 Q199.283 1414.12 199.283 1422.87 Q199.283 1431.6 196.204 1436.2 Q193.149 1440.78 187.338 1440.78 Q181.528 1440.78 178.45 1436.2 Q175.394 1431.6 175.394 1422.87 Q175.394 1414.12 178.45 1409.54 Q181.528 1404.93 187.338 1404.93 Z" fill="#000000" fill-rule="evenodd" fill-opacity="1" /><path clip-path="url(#clip620)" d="M 0 0 M117.825 1189.53 L125.464 1189.53 L125.464 1163.16 L117.154 1164.83 L117.154 1160.57 L125.418 1158.9 L130.093 1158.9 L130.093 1189.53 L137.732 1189.53 L137.732 1193.46 L117.825 1193.46 L117.825 1189.53 Z" fill="#000000" fill-rule="evenodd" fill-opacity="1" /><path clip-path="url(#clip620)" d="M 0 0 M157.177 1161.98 Q153.566 1161.98 151.737 1165.54 Q149.931 1169.09 149.931 1176.21 Q149.931 1183.32 151.737 1186.89 Q153.566 1190.43 157.177 1190.43 Q160.811 1190.43 162.616 1186.89 Q164.445 1183.32 164.445 1176.21 Q164.445 1169.09 162.616 1165.54 Q160.811 1161.98 157.177 1161.98 M157.177 1158.28 Q162.987 1158.28 166.042 1162.88 Q169.121 1167.46 169.121 1176.21 Q169.121 1184.94 166.042 1189.55 Q162.987 1194.13 157.177 1194.13 Q151.366 1194.13 148.288 1189.55 Q145.232 1184.94 145.232 1176.21 Q145.232 1167.46 148.288 1162.88 Q151.366 1158.28 157.177 1158.28 Z" fill="#000000" fill-rule="evenodd" fill-opacity="1" /><path clip-path="url(#clip620)" d="M 0 0 M187.338 1161.98 Q183.727 1161.98 181.899 1165.54 Q180.093 1169.09 180.093 1176.21 Q180.093 1183.32 181.899 1186.89 Q183.727 1190.43 187.338 1190.43 Q190.973 1190.43 192.778 1186.89 Q194.607 1183.32 194.607 1176.21 Q194.607 1169.09 192.778 1165.54 Q190.973 1161.98 187.338 1161.98 M187.338 1158.28 Q193.149 1158.28 196.204 1162.88 Q199.283 1167.46 199.283 1176.21 Q199.283 1184.94 196.204 1189.55 Q193.149 1194.13 187.338 1194.13 Q181.528 1194.13 178.45 1189.55 Q175.394 1184.94 175.394 1176.21 Q175.394 1167.46 178.45 1162.88 Q181.528 1158.28 187.338 1158.28 Z" fill="#000000" fill-rule="evenodd" fill-opacity="1" /><path clip-path="url(#clip620)" d="M 0 0 M121.043 942.872 L137.362 942.872 L137.362 946.807 L115.418 946.807 L115.418 942.872 Q118.08 940.117 122.663 935.487 Q127.269 930.835 128.45 929.492 Q130.695 926.969 131.575 925.233 Q132.478 923.474 132.478 921.784 Q132.478 919.029 130.533 917.293 Q128.612 915.557 125.51 915.557 Q123.311 915.557 120.857 916.321 Q118.427 917.085 115.649 918.636 L115.649 913.913 Q118.473 912.779 120.927 912.2 Q123.38 911.622 125.418 911.622 Q130.788 911.622 133.982 914.307 Q137.177 916.992 137.177 921.483 Q137.177 923.612 136.367 925.534 Q135.579 927.432 133.473 930.024 Q132.894 930.696 129.792 933.913 Q126.691 937.108 121.043 942.872 Z" fill="#000000" fill-rule="evenodd" fill-opacity="1" /><path clip-path="url(#clip620)" d="M 0 0 M157.177 915.325 Q153.566 915.325 151.737 918.89 Q149.931 922.432 149.931 929.562 Q149.931 936.668 151.737 940.233 Q153.566 943.774 157.177 943.774 Q160.811 943.774 162.616 940.233 Q164.445 936.668 164.445 929.562 Q164.445 922.432 162.616 918.89 Q160.811 915.325 157.177 915.325 M157.177 911.622 Q162.987 911.622 166.042 916.228 Q169.121 920.812 169.121 929.562 Q169.121 938.288 166.042 942.895 Q162.987 947.478 157.177 947.478 Q151.366 947.478 148.288 942.895 Q145.232 938.288 145.232 929.562 Q145.232 920.812 148.288 916.228 Q151.366 911.622 157.177 911.622 Z" fill="#000000" fill-rule="evenodd" fill-opacity="1" /><path clip-path="url(#clip620)" d="M 0 0 M187.338 915.325 Q183.727 915.325 181.899 918.89 Q180.093 922.432 180.093 929.562 Q180.093 936.668 181.899 940.233 Q183.727 943.774 187.338 943.774 Q190.973 943.774 192.778 940.233 Q194.607 936.668 194.607 929.562 Q194.607 922.432 192.778 918.89 Q190.973 915.325 187.338 915.325 M187.338 911.622 Q193.149 911.622 196.204 916.228 Q199.283 920.812 199.283 929.562 Q199.283 938.288 196.204 942.895 Q193.149 947.478 187.338 947.478 Q181.528 947.478 178.45 942.895 Q175.394 938.288 175.394 929.562 Q175.394 920.812 178.45 916.228 Q181.528 911.622 187.338 911.622 Z" fill="#000000" fill-rule="evenodd" fill-opacity="1" /><path clip-path="url(#clip620)" d="M 0 0 M131.181 681.519 Q134.538 682.237 136.413 684.505 Q138.311 686.774 138.311 690.107 Q138.311 695.223 134.792 698.024 Q131.274 700.825 124.793 700.825 Q122.617 700.825 120.302 700.385 Q118.01 699.968 115.556 699.112 L115.556 694.598 Q117.501 695.732 119.816 696.311 Q122.13 696.89 124.654 696.89 Q129.052 696.89 131.343 695.153 Q133.658 693.417 133.658 690.107 Q133.658 687.052 131.505 685.339 Q129.376 683.603 125.556 683.603 L121.529 683.603 L121.529 679.76 L125.742 679.76 Q129.191 679.76 131.019 678.394 Q132.848 677.005 132.848 674.413 Q132.848 671.751 130.95 670.339 Q129.075 668.904 125.556 668.904 Q123.635 668.904 121.436 669.32 Q119.237 669.737 116.598 670.617 L116.598 666.45 Q119.26 665.709 121.575 665.339 Q123.913 664.968 125.973 664.968 Q131.297 664.968 134.399 667.399 Q137.501 669.806 137.501 673.927 Q137.501 676.797 135.857 678.788 Q134.214 680.755 131.181 681.519 Z" fill="#000000" fill-rule="evenodd" fill-opacity="1" /><path clip-path="url(#clip620)" d="M 0 0 M157.177 668.672 Q153.566 668.672 151.737 672.237 Q149.931 675.779 149.931 682.908 Q149.931 690.015 151.737 693.579 Q153.566 697.121 157.177 697.121 Q160.811 697.121 162.616 693.579 Q164.445 690.015 164.445 682.908 Q164.445 675.779 162.616 672.237 Q160.811 668.672 157.177 668.672 M157.177 664.968 Q162.987 664.968 166.042 669.575 Q169.121 674.158 169.121 682.908 Q169.121 691.635 166.042 696.241 Q162.987 700.825 157.177 700.825 Q151.366 700.825 148.288 696.241 Q145.232 691.635 145.232 682.908 Q145.232 674.158 148.288 669.575 Q151.366 664.968 157.177 664.968 Z" fill="#000000" fill-rule="evenodd" fill-opacity="1" /><path clip-path="url(#clip620)" d="M 0 0 M187.338 668.672 Q183.727 668.672 181.899 672.237 Q180.093 675.779 180.093 682.908 Q180.093 690.015 181.899 693.579 Q183.727 697.121 187.338 697.121 Q190.973 697.121 192.778 693.579 Q194.607 690.015 194.607 682.908 Q194.607 675.779 192.778 672.237 Q190.973 668.672 187.338 668.672 M187.338 664.968 Q193.149 664.968 196.204 669.575 Q199.283 674.158 199.283 682.908 Q199.283 691.635 196.204 696.241 Q193.149 700.825 187.338 700.825 Q181.528 700.825 178.45 696.241 Q175.394 691.635 175.394 682.908 Q175.394 674.158 178.45 669.575 Q181.528 664.968 187.338 664.968 Z" fill="#000000" fill-rule="evenodd" fill-opacity="1" /><path clip-path="url(#clip620)" d="M 0 0 M129.862 423.014 L118.056 441.463 L129.862 441.463 L129.862 423.014 M128.635 418.94 L134.515 418.94 L134.515 441.463 L139.445 441.463 L139.445 445.352 L134.515 445.352 L134.515 453.5 L129.862 453.5 L129.862 445.352 L114.26 445.352 L114.26 440.838 L128.635 418.94 Z" fill="#000000" fill-rule="evenodd" fill-opacity="1" /><path clip-path="url(#clip620)" d="M 0 0 M157.177 422.019 Q153.566 422.019 151.737 425.583 Q149.931 429.125 149.931 436.255 Q149.931 443.361 151.737 446.926 Q153.566 450.468 157.177 450.468 Q160.811 450.468 162.616 446.926 Q164.445 443.361 164.445 436.255 Q164.445 429.125 162.616 425.583 Q160.811 422.019 157.177 422.019 M157.177 418.315 Q162.987 418.315 166.042 422.921 Q169.121 427.505 169.121 436.255 Q169.121 444.982 166.042 449.588 Q162.987 454.171 157.177 454.171 Q151.366 454.171 148.288 449.588 Q145.232 444.982 145.232 436.255 Q145.232 427.505 148.288 422.921 Q151.366 418.315 157.177 418.315 Z" fill="#000000" fill-rule="evenodd" fill-opacity="1" /><path clip-path="url(#clip620)" d="M 0 0 M187.338 422.019 Q183.727 422.019 181.899 425.583 Q180.093 429.125 180.093 436.255 Q180.093 443.361 181.899 446.926 Q183.727 450.468 187.338 450.468 Q190.973 450.468 192.778 446.926 Q194.607 443.361 194.607 436.255 Q194.607 429.125 192.778 425.583 Q190.973 422.019 187.338 422.019 M187.338 418.315 Q193.149 418.315 196.204 422.921 Q199.283 427.505 199.283 436.255 Q199.283 444.982 196.204 449.588 Q193.149 454.171 187.338 454.171 Q181.528 454.171 178.45 449.588 Q175.394 444.982 175.394 436.255 Q175.394 427.505 178.45 422.921 Q181.528 418.315 187.338 418.315 Z" fill="#000000" fill-rule="evenodd" fill-opacity="1" /><path clip-path="url(#clip620)" d="M 0 0 M117.061 172.287 L135.417 172.287 L135.417 176.222 L121.343 176.222 L121.343 184.694 Q122.362 184.347 123.38 184.185 Q124.399 183.999 125.418 183.999 Q131.205 183.999 134.584 187.171 Q137.964 190.342 137.964 195.759 Q137.964 201.337 134.492 204.439 Q131.019 207.518 124.7 207.518 Q122.524 207.518 120.255 207.148 Q118.01 206.777 115.603 206.036 L115.603 201.337 Q117.686 202.472 119.908 203.027 Q122.13 203.583 124.607 203.583 Q128.612 203.583 130.95 201.476 Q133.288 199.37 133.288 195.759 Q133.288 192.148 130.95 190.041 Q128.612 187.935 124.607 187.935 Q122.732 187.935 120.857 188.351 Q119.006 188.768 117.061 189.648 L117.061 172.287 Z" fill="#000000" fill-rule="evenodd" fill-opacity="1" /><path clip-path="url(#clip620)" d="M 0 0 M157.177 175.365 Q153.566 175.365 151.737 178.93 Q149.931 182.472 149.931 189.601 Q149.931 196.708 151.737 200.273 Q153.566 203.814 157.177 203.814 Q160.811 203.814 162.616 200.273 Q164.445 196.708 164.445 189.601 Q164.445 182.472 162.616 178.93 Q160.811 175.365 157.177 175.365 M157.177 171.662 Q162.987 171.662 166.042 176.268 Q169.121 180.851 169.121 189.601 Q169.121 198.328 166.042 202.935 Q162.987 207.518 157.177 207.518 Q151.366 207.518 148.288 202.935 Q145.232 198.328 145.232 189.601 Q145.232 180.851 148.288 176.268 Q151.366 171.662 157.177 171.662 Z" fill="#000000" fill-rule="evenodd" fill-opacity="1" /><path clip-path="url(#clip620)" d="M 0 0 M187.338 175.365 Q183.727 175.365 181.899 178.93 Q180.093 182.472 180.093 189.601 Q180.093 196.708 181.899 200.273 Q183.727 203.814 187.338 203.814 Q190.973 203.814 192.778 200.273 Q194.607 196.708 194.607 189.601 Q194.607 182.472 192.778 178.93 Q190.973 175.365 187.338 175.365 M187.338 171.662 Q193.149 171.662 196.204 176.268 Q199.283 180.851 199.283 189.601 Q199.283 198.328 196.204 202.935 Q193.149 207.518 187.338 207.518 Q181.528 207.518 178.45 202.935 Q175.394 198.328 175.394 189.601 Q175.394 180.851 178.45 176.268 Q181.528 171.662 187.338 171.662 Z" fill="#000000" fill-rule="evenodd" fill-opacity="1" /><path clip-path="url(#clip620)" d="M 0 0 M21.7677 979.591 L39.6235 979.591 L39.6235 971.506 Q39.6235 967.019 37.3 964.568 Q34.9765 962.117 30.6797 962.117 Q26.4147 962.117 24.0912 964.568 Q21.7677 967.019 21.7677 971.506 L21.7677 979.591 M16.4842 986.02 L16.4842 971.506 Q16.4842 963.517 20.1126 959.443 Q23.7092 955.337 30.6797 955.337 Q37.7138 955.337 41.3104 959.443 Q44.907 963.517 44.907 971.506 L44.907 979.591 L64.0042 979.591 L64.0042 986.02 L16.4842 986.02 Z" fill="#000000" fill-rule="evenodd" fill-opacity="1" /><path clip-path="url(#clip620)" d="M 0 0 M16.4842 946.712 L16.4842 937.132 L48.8219 925.005 L16.4842 912.815 L16.4842 903.234 L64.0042 903.234 L64.0042 909.504 L22.277 909.504 L54.8694 921.758 L54.8694 928.22 L22.277 940.474 L64.0042 940.474 L64.0042 946.712 L16.4842 946.712 Z" fill="#000000" fill-rule="evenodd" fill-opacity="1" /><path clip-path="url(#clip620)" d="M 0 0 M58.5933 884.36 L58.5933 861.921 L64.0042 861.921 L64.0042 892.094 L58.5933 892.094 Q54.8057 888.434 48.44 882.132 Q42.0425 875.798 40.1964 874.175 Q36.7271 871.087 34.34 869.878 Q31.921 868.637 29.5975 868.637 Q25.8099 868.637 23.4228 871.31 Q21.0356 873.952 21.0356 878.217 Q21.0356 881.241 22.086 884.614 Q23.1363 887.956 25.2688 891.776 L18.7758 891.776 Q17.2162 887.893 16.4205 884.519 Q15.6248 881.145 15.6248 878.344 Q15.6248 870.96 19.3169 866.568 Q23.009 862.175 29.1837 862.175 Q32.112 862.175 34.7537 863.289 Q37.3637 864.372 40.9285 867.268 Q41.8515 868.064 46.2757 872.329 Q50.668 876.594 58.5933 884.36 Z" fill="#000000" fill-rule="evenodd" fill-opacity="1" /><path clip-path="url(#clip620)" d="M 0 0 M55.9197 848.425 L55.9197 841.71 L64.0042 841.71 L64.0042 848.425 L55.9197 848.425 Z" fill="#000000" fill-rule="evenodd" fill-opacity="1" /><path clip-path="url(#clip620)" d="M 0 0 M16.4842 827.641 L16.4842 802.401 L21.895 802.401 L21.895 821.753 L33.5443 821.753 Q33.0668 820.353 32.844 818.952 Q32.5894 817.552 32.5894 816.151 Q32.5894 808.194 36.9499 803.547 Q41.3104 798.9 48.7583 798.9 Q56.429 798.9 60.694 803.674 Q64.9272 808.449 64.9272 817.138 Q64.9272 820.13 64.4179 823.249 Q63.9087 826.336 62.8902 829.647 L56.429 829.647 Q57.9886 826.782 58.7524 823.726 Q59.5163 820.671 59.5163 817.265 Q59.5163 811.759 56.6199 808.544 Q53.7235 805.33 48.7583 805.33 Q43.793 805.33 40.8966 808.544 Q38.0002 811.759 38.0002 817.265 Q38.0002 819.843 38.5732 822.421 Q39.1461 824.968 40.3556 827.641 L16.4842 827.641 Z" fill="#000000" fill-rule="evenodd" fill-opacity="1" /><path clip-path="url(#clip620)" d="M 0 0 M55.9197 785.564 L55.9197 778.848 L61.3942 778.848 L71.5793 784.068 L71.5793 788.174 L61.3942 785.564 L55.9197 785.564 Z" fill="#000000" fill-rule="evenodd" fill-opacity="1" /><path clip-path="url(#clip620)" d="M 0 0 M77.5631 746.224 L28.3562 746.224 L28.3562 740.368 L50.5089 740.368 Q55.124 740.368 57.4793 738.171 Q59.8346 735.975 59.8346 731.678 Q59.8346 726.968 57.161 724.612 Q54.4874 722.225 49.1402 722.225 L28.3562 722.225 L28.3562 716.369 L55.7924 716.369 Q57.7021 716.369 58.6251 715.828 Q59.5163 715.255 59.5163 714.077 Q59.5163 713.791 59.3572 713.281 Q59.1662 712.772 58.7843 711.881 L63.4949 711.881 Q64.227 713.186 64.5771 714.364 Q64.9272 715.509 64.9272 716.623 Q64.9272 718.82 63.6859 720.125 Q62.4446 721.43 59.8983 721.907 Q62.4127 723.498 63.6859 725.822 Q64.9272 728.114 64.9272 731.233 Q64.9272 734.479 63.6859 736.771 Q62.4446 739.031 59.9619 740.368 L77.5631 740.368 L77.5631 746.224 Z" fill="#000000" fill-rule="evenodd" fill-opacity="1" /><path clip-path="url(#clip620)" d="M 0 0 M45.7664 680.689 Q39.4007 680.689 35.8996 683.331 Q32.3984 685.941 32.3984 690.683 Q32.3984 695.394 35.8996 698.036 Q39.4007 700.646 45.7664 700.646 Q52.1003 700.646 55.6014 698.036 Q59.1026 695.394 59.1026 690.683 Q59.1026 685.941 55.6014 683.331 Q52.1003 680.689 45.7664 680.689 M59.58 674.833 Q68.683 674.833 73.1071 678.875 Q77.5631 682.917 77.5631 691.256 Q77.5631 694.343 77.0857 697.081 Q76.6401 699.818 75.6852 702.396 L69.9879 702.396 Q71.3884 699.818 72.0568 697.304 Q72.7252 694.789 72.7252 692.179 Q72.7252 686.418 69.7015 683.554 Q66.7096 680.689 60.6303 680.689 L57.7339 680.689 Q60.885 682.503 62.4446 685.336 Q64.0042 688.169 64.0042 692.115 Q64.0042 698.672 59.0071 702.683 Q54.01 706.693 45.7664 706.693 Q37.491 706.693 32.4939 702.683 Q27.4968 698.672 27.4968 692.115 Q27.4968 688.169 29.0564 685.336 Q30.616 682.503 33.7671 680.689 L28.3562 680.689 L28.3562 674.833 L59.58 674.833 Z" fill="#000000" fill-rule="evenodd" fill-opacity="1" /><path clip-path="url(#clip620)" d="M 0 0 M16.4842 652.362 L16.4842 646.951 L70.0516 663.502 L70.0516 668.912 L16.4842 652.362 Z" fill="#000000" fill-rule="evenodd" fill-opacity="1" /><path clip-path="url(#clip620)" d="M 0 0 M35.1993 613.053 Q31.2526 610.857 29.3747 607.802 Q27.4968 604.746 27.4968 600.608 Q27.4968 595.038 31.4117 592.015 Q35.2948 588.991 42.4881 588.991 L64.0042 588.991 L64.0042 594.879 L42.679 594.879 Q37.5546 594.879 35.072 596.694 Q32.5894 598.508 32.5894 602.232 Q32.5894 606.783 35.6131 609.425 Q38.6368 612.067 43.8567 612.067 L64.0042 612.067 L64.0042 617.955 L42.679 617.955 Q37.5228 617.955 35.072 619.769 Q32.5894 621.583 32.5894 625.371 Q32.5894 629.859 35.6449 632.501 Q38.6686 635.142 43.8567 635.142 L64.0042 635.142 L64.0042 641.031 L28.3562 641.031 L28.3562 635.142 L33.8944 635.142 Q30.616 633.137 29.0564 630.336 Q27.4968 627.535 27.4968 623.684 Q27.4968 619.801 29.4702 617.096 Q31.4436 614.358 35.1993 613.053 Z" fill="#000000" fill-rule="evenodd" fill-opacity="1" /><path clip-path="url(#clip620)" d="M 0 0 M28.3562 566.775 Q28.9291 563.846 30.6797 562.255 Q32.3984 560.632 35.0084 560.632 Q38.9551 560.632 41.0876 563.656 Q43.2201 566.679 43.2201 572.313 Q43.2201 574.127 42.9018 576.132 Q42.5517 578.106 41.9152 580.334 L38.0639 580.334 Q38.9233 578.679 39.337 576.801 Q39.7508 574.891 39.7508 572.758 Q39.7508 569.289 38.5095 567.379 Q37.2364 565.47 35.0084 565.47 Q32.6531 565.47 31.4436 567.252 Q30.2341 569.003 30.2341 572.44 L30.2341 575.177 L26.7966 575.177 L26.7966 572.186 Q26.7966 569.194 25.8099 567.666 Q24.7914 566.106 22.8817 566.106 Q21.0356 566.106 20.0808 567.698 Q19.0941 569.289 19.0941 572.313 Q19.0941 573.586 19.3806 575.209 Q19.667 576.833 20.3991 579.411 L16.7388 579.411 Q16.1977 577.087 15.9112 575.05 Q15.6248 573.013 15.6248 571.263 Q15.6248 566.679 17.5027 564.006 Q19.3806 561.3 22.5316 561.3 Q24.7277 561.3 26.2555 562.732 Q27.7833 564.165 28.3562 566.775 Z" fill="#000000" fill-rule="evenodd" fill-opacity="1" /><path clip-path="url(#clip620)" d="M 0 0 M882.65 16.7545 L882.65 25.383 Q878.518 21.5346 873.819 19.6307 Q869.161 17.7268 863.894 17.7268 Q853.524 17.7268 848.015 24.0867 Q842.506 30.4061 842.506 42.3968 Q842.506 54.3469 848.015 60.7069 Q853.524 67.0263 863.894 67.0263 Q869.161 67.0263 873.819 65.1223 Q878.518 63.2184 882.65 59.3701 L882.65 67.9175 Q878.356 70.8341 873.536 72.2924 Q868.755 73.7508 863.408 73.7508 Q849.676 73.7508 841.776 65.3654 Q833.877 56.9395 833.877 42.3968 Q833.877 27.8135 841.776 19.4281 Q849.676 11.0023 863.408 11.0023 Q868.836 11.0023 873.617 12.4606 Q878.437 13.8784 882.65 16.7545 Z" fill="#000000" fill-rule="evenodd" fill-opacity="1" /><path clip-path="url(#clip620)" d="M 0 0 M912.546 32.4315 Q906.55 32.4315 903.067 37.1306 Q899.583 41.7891 899.583 49.9314 Q899.583 58.0738 903.026 62.7728 Q906.51 67.4314 912.546 67.4314 Q918.501 67.4314 921.984 62.7323 Q925.468 58.0333 925.468 49.9314 Q925.468 41.8701 921.984 37.1711 Q918.501 32.4315 912.546 32.4315 M912.546 26.1121 Q922.268 26.1121 927.818 32.4315 Q933.367 38.7509 933.367 49.9314 Q933.367 61.0714 927.818 67.4314 Q922.268 73.7508 912.546 73.7508 Q902.783 73.7508 897.233 67.4314 Q891.724 61.0714 891.724 49.9314 Q891.724 38.7509 897.233 32.4315 Q902.783 26.1121 912.546 26.1121 Z" fill="#000000" fill-rule="evenodd" fill-opacity="1" /><path clip-path="url(#clip620)" d="M 0 0 M981.047 35.9153 Q983.842 30.8922 987.731 28.5022 Q991.619 26.1121 996.886 26.1121 Q1003.97 26.1121 1007.82 31.0947 Q1011.67 36.0368 1011.67 45.1919 L1011.67 72.576 L1004.18 72.576 L1004.18 45.4349 Q1004.18 38.913 1001.87 35.7533 Q999.559 32.5936 994.82 32.5936 Q989.027 32.5936 985.665 36.4419 Q982.302 40.2903 982.302 46.9338 L982.302 72.576 L974.808 72.576 L974.808 45.4349 Q974.808 38.8725 972.499 35.7533 Q970.19 32.5936 965.37 32.5936 Q959.658 32.5936 956.295 36.4824 Q952.933 40.3308 952.933 46.9338 L952.933 72.576 L945.439 72.576 L945.439 27.2059 L952.933 27.2059 L952.933 34.2544 Q955.485 30.082 959.05 28.0971 Q962.615 26.1121 967.516 26.1121 Q972.459 26.1121 975.902 28.6237 Q979.386 31.1352 981.047 35.9153 Z" fill="#000000" fill-rule="evenodd" fill-opacity="1" /><path clip-path="url(#clip620)" d="M 0 0 M1033.75 65.7705 L1033.75 89.8329 L1026.25 89.8329 L1026.25 27.2059 L1033.75 27.2059 L1033.75 34.0924 Q1036.1 30.0415 1039.66 28.0971 Q1043.27 26.1121 1048.25 26.1121 Q1056.51 26.1121 1061.66 32.6746 Q1066.84 39.2371 1066.84 49.9314 Q1066.84 60.6258 1061.66 67.1883 Q1056.51 73.7508 1048.25 73.7508 Q1043.27 73.7508 1039.66 71.8063 Q1036.1 69.8214 1033.75 65.7705 M1059.11 49.9314 Q1059.11 41.7081 1055.7 37.0496 Q1052.34 32.3505 1046.43 32.3505 Q1040.51 32.3505 1037.11 37.0496 Q1033.75 41.7081 1033.75 49.9314 Q1033.75 58.1548 1037.11 62.8538 Q1040.51 67.5124 1046.43 67.5124 Q1052.34 67.5124 1055.7 62.8538 Q1059.11 58.1548 1059.11 49.9314 Z" fill="#000000" fill-rule="evenodd" fill-opacity="1" /><path clip-path="url(#clip620)" d="M 0 0 M1099.82 49.7694 Q1090.79 49.7694 1087.3 51.8354 Q1083.82 53.9013 1083.82 58.8839 Q1083.82 62.8538 1086.41 65.2034 Q1089.04 67.5124 1093.54 67.5124 Q1099.74 67.5124 1103.46 63.1374 Q1107.23 58.7219 1107.23 51.4303 L1107.23 49.7694 L1099.82 49.7694 M1114.69 46.6907 L1114.69 72.576 L1107.23 72.576 L1107.23 65.6895 Q1104.68 69.8214 1100.87 71.8063 Q1097.06 73.7508 1091.56 73.7508 Q1084.59 73.7508 1080.46 69.8619 Q1076.36 65.9325 1076.36 59.3701 Q1076.36 51.7138 1081.47 47.825 Q1086.61 43.9361 1096.78 43.9361 L1107.23 43.9361 L1107.23 43.2069 Q1107.23 38.0623 1103.83 35.2672 Q1100.47 32.4315 1094.35 32.4315 Q1090.46 32.4315 1086.78 33.3632 Q1083.09 34.295 1079.69 36.1584 L1079.69 29.2718 Q1083.78 27.692 1087.63 26.9223 Q1091.47 26.1121 1095.12 26.1121 Q1104.96 26.1121 1109.82 31.2163 Q1114.69 36.3204 1114.69 46.6907 Z" fill="#000000" fill-rule="evenodd" fill-opacity="1" /><path clip-path="url(#clip620)" d="M 0 0 M1156.33 34.1734 Q1155.07 33.4443 1153.57 33.1202 Q1152.12 32.7556 1150.33 32.7556 Q1144.01 32.7556 1140.61 36.8875 Q1137.25 40.9789 1137.25 48.6757 L1137.25 72.576 L1129.76 72.576 L1129.76 27.2059 L1137.25 27.2059 L1137.25 34.2544 Q1139.6 30.1225 1143.37 28.1376 Q1147.13 26.1121 1152.52 26.1121 Q1153.29 26.1121 1154.22 26.2337 Q1155.15 26.3147 1156.29 26.5172 L1156.33 34.1734 Z" fill="#000000" fill-rule="evenodd" fill-opacity="1" /><path clip-path="url(#clip620)" d="M 0 0 M1164.15 27.2059 L1171.6 27.2059 L1171.6 72.576 L1164.15 72.576 L1164.15 27.2059 M1164.15 9.54393 L1171.6 9.54393 L1171.6 18.9825 L1164.15 18.9825 L1164.15 9.54393 Z" fill="#000000" fill-rule="evenodd" fill-opacity="1" /><path clip-path="url(#clip620)" d="M 0 0 M1216.12 28.5427 L1216.12 35.5912 Q1212.96 33.9709 1209.56 33.1607 Q1206.16 32.3505 1202.51 32.3505 Q1196.96 32.3505 1194.16 34.0519 Q1191.41 35.7533 1191.41 39.156 Q1191.41 41.7486 1193.39 43.2475 Q1195.38 44.7058 1201.38 46.0426 L1203.93 46.6097 Q1211.87 48.3111 1215.19 51.4303 Q1218.55 54.509 1218.55 60.0587 Q1218.55 66.3781 1213.53 70.0644 Q1208.55 73.7508 1199.8 73.7508 Q1196.15 73.7508 1192.18 73.0216 Q1188.25 72.3329 1183.88 70.9151 L1183.88 63.2184 Q1188.01 65.3654 1192.02 66.4591 Q1196.03 67.5124 1199.96 67.5124 Q1205.22 67.5124 1208.06 65.73 Q1210.89 63.9071 1210.89 60.6258 Q1210.89 57.5877 1208.83 55.9673 Q1206.8 54.3469 1199.88 52.8481 L1197.28 52.2405 Q1190.36 50.7821 1187.28 47.7845 Q1184.2 44.7463 1184.2 39.4801 Q1184.2 33.0797 1188.74 29.5959 Q1193.27 26.1121 1201.62 26.1121 Q1205.75 26.1121 1209.4 26.7198 Q1213.04 27.3274 1216.12 28.5427 Z" fill="#000000" fill-rule="evenodd" fill-opacity="1" /><path clip-path="url(#clip620)" d="M 0 0 M1248 32.4315 Q1242.01 32.4315 1238.52 37.1306 Q1235.04 41.7891 1235.04 49.9314 Q1235.04 58.0738 1238.48 62.7728 Q1241.97 67.4314 1248 67.4314 Q1253.96 67.4314 1257.44 62.7323 Q1260.92 58.0333 1260.92 49.9314 Q1260.92 41.8701 1257.44 37.1711 Q1253.96 32.4315 1248 32.4315 M1248 26.1121 Q1257.72 26.1121 1263.27 32.4315 Q1268.82 38.7509 1268.82 49.9314 Q1268.82 61.0714 1263.27 67.4314 Q1257.72 73.7508 1248 73.7508 Q1238.24 73.7508 1232.69 67.4314 Q1227.18 61.0714 1227.18 49.9314 Q1227.18 38.7509 1232.69 32.4315 Q1238.24 26.1121 1248 26.1121 Z" fill="#000000" fill-rule="evenodd" fill-opacity="1" /><path clip-path="url(#clip620)" d="M 0 0 M1318.89 45.1919 L1318.89 72.576 L1311.44 72.576 L1311.44 45.4349 Q1311.44 38.994 1308.93 35.7938 Q1306.42 32.5936 1301.39 32.5936 Q1295.36 32.5936 1291.87 36.4419 Q1288.39 40.2903 1288.39 46.9338 L1288.39 72.576 L1280.89 72.576 L1280.89 27.2059 L1288.39 27.2059 L1288.39 34.2544 Q1291.06 30.163 1294.67 28.1376 Q1298.31 26.1121 1303.05 26.1121 Q1310.87 26.1121 1314.88 30.9732 Q1318.89 35.7938 1318.89 45.1919 Z" fill="#000000" fill-rule="evenodd" fill-opacity="1" /><path clip-path="url(#clip620)" d="M 0 0 M1377.71 32.4315 Q1371.72 32.4315 1368.23 37.1306 Q1364.75 41.7891 1364.75 49.9314 Q1364.75 58.0738 1368.19 62.7728 Q1371.68 67.4314 1377.71 67.4314 Q1383.67 67.4314 1387.15 62.7323 Q1390.63 58.0333 1390.63 49.9314 Q1390.63 41.8701 1387.15 37.1711 Q1383.67 32.4315 1377.71 32.4315 M1377.71 26.1121 Q1387.43 26.1121 1392.98 32.4315 Q1398.53 38.7509 1398.53 49.9314 Q1398.53 61.0714 1392.98 67.4314 Q1387.43 73.7508 1377.71 73.7508 Q1367.95 73.7508 1362.4 67.4314 Q1356.89 61.0714 1356.89 49.9314 Q1356.89 38.7509 1362.4 32.4315 Q1367.95 26.1121 1377.71 26.1121 Z" fill="#000000" fill-rule="evenodd" fill-opacity="1" /><path clip-path="url(#clip620)" d="M 0 0 M1433.86 9.54393 L1433.86 15.7418 L1426.73 15.7418 Q1422.72 15.7418 1421.14 17.3622 Q1419.6 18.9825 1419.6 23.1955 L1419.6 27.2059 L1431.87 27.2059 L1431.87 32.9987 L1419.6 32.9987 L1419.6 72.576 L1412.1 72.576 L1412.1 32.9987 L1404.97 32.9987 L1404.97 27.2059 L1412.1 27.2059 L1412.1 24.0462 Q1412.1 16.471 1415.63 13.0277 Q1419.15 9.54393 1426.81 9.54393 L1433.86 9.54393 Z" fill="#000000" fill-rule="evenodd" fill-opacity="1" /><path clip-path="url(#clip620)" d="M 0 0 M1495.47 44.2197 Q1498.1 45.1109 1500.57 48.0275 Q1503.09 50.9442 1505.6 56.0483 L1513.9 72.576 L1505.11 72.576 L1497.37 57.061 Q1494.38 50.9847 1491.54 48.9997 Q1488.75 47.0148 1483.89 47.0148 L1474.97 47.0148 L1474.97 72.576 L1466.79 72.576 L1466.79 12.096 L1485.26 12.096 Q1495.63 12.096 1500.74 16.4305 Q1505.84 20.7649 1505.84 29.5149 Q1505.84 35.2267 1503.17 38.994 Q1500.53 42.7613 1495.47 44.2197 M1474.97 18.8205 L1474.97 40.2903 L1485.26 40.2903 Q1491.18 40.2903 1494.17 37.5762 Q1497.21 34.8216 1497.21 29.5149 Q1497.21 24.2082 1494.17 21.5346 Q1491.18 18.8205 1485.26 18.8205 L1474.97 18.8205 Z" fill="#000000" fill-rule="evenodd" fill-opacity="1" /><path clip-path="url(#clip620)" d="M 0 0 M1559.19 48.0275 L1559.19 51.6733 L1524.92 51.6733 Q1525.41 59.3701 1529.54 63.421 Q1533.71 67.4314 1541.12 67.4314 Q1545.42 67.4314 1549.43 66.3781 Q1553.48 65.3249 1557.45 63.2184 L1557.45 70.267 Q1553.44 71.9684 1549.23 72.8596 Q1545.01 73.7508 1540.68 73.7508 Q1529.82 73.7508 1523.46 67.4314 Q1517.14 61.1119 1517.14 50.3365 Q1517.14 39.1965 1523.14 32.6746 Q1529.17 26.1121 1539.38 26.1121 Q1548.54 26.1121 1553.84 32.0264 Q1559.19 37.9003 1559.19 48.0275 M1551.74 45.84 Q1551.66 39.7232 1548.29 36.0774 Q1544.97 32.4315 1539.46 32.4315 Q1533.23 32.4315 1529.46 35.9558 Q1525.73 39.4801 1525.16 45.8805 L1551.74 45.84 Z" fill="#000000" fill-rule="evenodd" fill-opacity="1" /><path clip-path="url(#clip620)" d="M 0 0 M1600.35 28.5427 L1600.35 35.5912 Q1597.19 33.9709 1593.79 33.1607 Q1590.38 32.3505 1586.74 32.3505 Q1581.19 32.3505 1578.39 34.0519 Q1575.64 35.7533 1575.64 39.156 Q1575.64 41.7486 1577.62 43.2475 Q1579.61 44.7058 1585.6 46.0426 L1588.16 46.6097 Q1596.1 48.3111 1599.42 51.4303 Q1602.78 54.509 1602.78 60.0587 Q1602.78 66.3781 1597.76 70.0644 Q1592.77 73.7508 1584.02 73.7508 Q1580.38 73.7508 1576.41 73.0216 Q1572.48 72.3329 1568.1 70.9151 L1568.1 63.2184 Q1572.24 65.3654 1576.25 66.4591 Q1580.26 67.5124 1584.19 67.5124 Q1589.45 67.5124 1592.29 65.73 Q1595.12 63.9071 1595.12 60.6258 Q1595.12 57.5877 1593.06 55.9673 Q1591.03 54.3469 1584.1 52.8481 L1581.51 52.2405 Q1574.59 50.7821 1571.51 47.7845 Q1568.43 44.7463 1568.43 39.4801 Q1568.43 33.0797 1572.96 29.5959 Q1577.5 26.1121 1585.85 26.1121 Q1589.98 26.1121 1593.62 26.7198 Q1597.27 27.3274 1600.35 28.5427 Z" fill="#000000" fill-rule="evenodd" fill-opacity="1" /><path clip-path="url(#clip620)" d="M 0 0 M1613.88 54.671 L1613.88 27.2059 L1621.33 27.2059 L1621.33 54.3874 Q1621.33 60.8284 1623.84 64.0691 Q1626.36 67.2693 1631.38 67.2693 Q1637.41 67.2693 1640.9 63.421 Q1644.42 59.5726 1644.42 52.9291 L1644.42 27.2059 L1651.88 27.2059 L1651.88 72.576 L1644.42 72.576 L1644.42 65.6084 Q1641.71 69.7404 1638.1 71.7658 Q1634.54 73.7508 1629.8 73.7508 Q1621.98 73.7508 1617.93 68.8897 Q1613.88 64.0286 1613.88 54.671 M1632.63 26.1121 L1632.63 26.1121 Z" fill="#000000" fill-rule="evenodd" fill-opacity="1" /><path clip-path="url(#clip620)" d="M 0 0 M1667.23 9.54393 L1674.68 9.54393 L1674.68 72.576 L1667.23 72.576 L1667.23 9.54393 Z" fill="#000000" fill-rule="evenodd" fill-opacity="1" /><path clip-path="url(#clip620)" d="M 0 0 M1697.65 14.324 L1697.65 27.2059 L1713 27.2059 L1713 32.9987 L1697.65 32.9987 L1697.65 57.6282 Q1697.65 63.1779 1699.15 64.7578 Q1700.69 66.3376 1705.35 66.3376 L1713 66.3376 L1713 72.576 L1705.35 72.576 Q1696.72 72.576 1693.44 69.3758 Q1690.16 66.1351 1690.16 57.6282 L1690.16 32.9987 L1684.69 32.9987 L1684.69 27.2059 L1690.16 27.2059 L1690.16 14.324 L1697.65 14.324 Z" fill="#000000" fill-rule="evenodd" fill-opacity="1" /><path clip-path="url(#clip620)" d="M 0 0 M1751.73 28.5427 L1751.73 35.5912 Q1748.57 33.9709 1745.17 33.1607 Q1741.77 32.3505 1738.12 32.3505 Q1732.57 32.3505 1729.78 34.0519 Q1727.02 35.7533 1727.02 39.156 Q1727.02 41.7486 1729.01 43.2475 Q1730.99 44.7058 1736.99 46.0426 L1739.54 46.6097 Q1747.48 48.3111 1750.8 51.4303 Q1754.16 54.509 1754.16 60.0587 Q1754.16 66.3781 1749.14 70.0644 Q1744.16 73.7508 1735.41 73.7508 Q1731.76 73.7508 1727.79 73.0216 Q1723.86 72.3329 1719.49 70.9151 L1719.49 63.2184 Q1723.62 65.3654 1727.63 66.4591 Q1731.64 67.5124 1735.57 67.5124 Q1740.83 67.5124 1743.67 65.73 Q1746.51 63.9071 1746.51 60.6258 Q1746.51 57.5877 1744.44 55.9673 Q1742.41 54.3469 1735.49 52.8481 L1732.89 52.2405 Q1725.97 50.7821 1722.89 47.7845 Q1719.81 44.7463 1719.81 39.4801 Q1719.81 33.0797 1724.35 29.5959 Q1728.88 26.1121 1737.23 26.1121 Q1741.36 26.1121 1745.01 26.7198 Q1748.65 27.3274 1751.73 28.5427 Z" fill="#000000" fill-rule="evenodd" fill-opacity="1" /><polyline clip-path="url(#clip622)" style="stroke:#009af9; stroke-width:4; stroke-opacity:1; fill:none" points="
  295.211,1383.12 323.347,1383.69 351.482,1386.2 379.618,1386.4 407.753,1382.74 435.889,1370.93 464.024,1349.76 492.159,1330.05 520.295,1318.64 548.43,1313.86 
  576.566,1313.77 604.701,1319.32 632.837,1327.06 660.972,1331.65 689.107,1276.08 717.243,1086.29 745.378,777.968 773.514,457.604 801.649,238.615 829.785,169.294 
  857.92,214.933 886.056,345.76 914.191,529.432 942.326,707.291 970.462,857.056 998.597,976.698 1026.73,1067.89 1054.87,1136.66 1083,1188.77 1111.14,1230.54 
  1139.27,1264.64 1167.41,1293.32 1195.55,1316.45 1223.68,1333.48 1251.82,1348.1 1279.95,1355.88 1308.09,1350.45 1336.22,1335.4 1364.36,1318.18 1392.49,1300.34 
  1420.63,1286 1448.76,1279.76 1476.9,1276.44 1505.04,1277.05 1533.17,1278.9 1561.31,1276.96 1589.44,1277.18 1617.58,1282.95 1645.71,1288.23 1673.85,1290.31 
  1701.98,1290.02 1730.12,1285.1 1758.25,1278.61 1786.39,1276.44 1814.52,1274.94 1842.66,1274.8 1870.8,1273.8 1898.93,1271.51 1927.07,1265.9 1955.2,1259.81 
  1983.34,1260.86 2011.47,1268.69 2039.61,1279.91 2067.74,1292.06 2095.88,1302.38 2124.01,1314.8 2152.15,1327.85 2180.29,1337.9 2208.42,1346.92 2236.56,1352.77 
  2264.69,1356.49 2292.83,1357.48 
  "/>
<polyline clip-path="url(#clip622)" style="stroke:#e26f46; stroke-width:4; stroke-opacity:1; fill:none" points="
  295.211,1382.98 323.347,1383.64 351.482,1386.15 379.618,1386.27 407.753,1382.42 435.889,1370.94 464.024,1350.76 492.159,1332.18 520.295,1321.26 548.43,1315.68 
  576.566,1315.18 604.701,1320.5 632.837,1327.9 660.972,1331.72 689.107,1272.38 717.243,1072.53 745.378,767.423 773.514,449.822 801.649,229.194 829.785,160.256 
  857.92,207.147 886.056,339.838 914.191,526.508 942.326,705.542 970.462,855.438 998.597,974.739 1026.73,1066.68 1054.87,1135.59 1083,1187.89 1111.14,1229.82 
  1139.27,1264.07 1167.41,1292.88 1195.55,1316.13 1223.68,1333.31 1251.82,1347.08 1279.95,1355.23 1308.09,1349.83 1336.22,1334.74 1364.36,1317.56 1392.49,1299.62 
  1420.63,1285.54 1448.76,1279.08 1476.9,1276.13 1505.04,1276.86 1533.17,1278.67 1561.31,1276.78 1589.44,1277.29 1617.58,1282.9 1645.71,1288.31 1673.85,1290.46 
  1701.98,1290.02 1730.12,1285.53 1758.25,1279.36 1786.39,1276.78 1814.52,1275.37 1842.66,1275.31 1870.8,1274.26 1898.93,1271.39 1927.07,1265.45 1955.2,1259.49 
  1983.34,1260.64 2011.47,1268.55 2039.61,1279.8 2067.74,1291.83 2095.88,1302.48 2124.01,1314.67 2152.15,1327.57 2180.29,1337.73 2208.42,1346.57 2236.56,1352.3 
  2264.69,1356.17 2292.83,1356.89 
  "/>
<path clip-path="url(#clip620)" d="
M1639.75 864.046 L2282.17 864.046 L2282.17 622.126 L1639.75 622.126  Z
  " fill="#ffffff" fill-rule="evenodd" fill-opacity="1"/>
<polyline clip-path="url(#clip620)" style="stroke:#000000; stroke-width:4; stroke-opacity:1; fill:none" points="
  1639.75,864.046 2282.17,864.046 2282.17,622.126 1639.75,622.126 1639.75,864.046 
  "/>
<path clip-path="url(#clip620)" d="M 0 0 M1869.56 669.169 L1869.56 682.155 L1875.43 682.155 Q1878.7 682.155 1880.48 680.465 Q1882.26 678.775 1882.26 675.65 Q1882.26 672.548 1880.48 670.858 Q1878.7 669.169 1875.43 669.169 L1869.56 669.169 M1864.88 665.326 L1875.43 665.326 Q1881.25 665.326 1884.21 667.965 Q1887.19 670.581 1887.19 675.65 Q1887.19 680.766 1884.21 683.381 Q1881.25 685.997 1875.43 685.997 L1869.56 685.997 L1869.56 699.886 L1864.88 699.886 L1864.88 665.326 Z" fill="#000000" fill-rule="evenodd" fill-opacity="1" /><path clip-path="url(#clip620)" d="M 0 0 M1902.93 686.854 Q1897.77 686.854 1895.78 688.034 Q1893.79 689.215 1893.79 692.062 Q1893.79 694.33 1895.27 695.673 Q1896.78 696.992 1899.35 696.992 Q1902.89 696.992 1905.02 694.492 Q1907.17 691.969 1907.17 687.803 L1907.17 686.854 L1902.93 686.854 M1911.43 685.094 L1911.43 699.886 L1907.17 699.886 L1907.17 695.951 Q1905.71 698.312 1903.54 699.446 Q1901.36 700.557 1898.21 700.557 Q1894.23 700.557 1891.87 698.335 Q1889.53 696.09 1889.53 692.34 Q1889.53 687.965 1892.45 685.743 Q1895.39 683.52 1901.2 683.52 L1907.17 683.52 L1907.17 683.104 Q1907.17 680.164 1905.23 678.567 Q1903.31 676.946 1899.81 676.946 Q1897.59 676.946 1895.48 677.479 Q1893.37 678.011 1891.43 679.076 L1891.43 675.141 Q1893.77 674.238 1895.97 673.798 Q1898.17 673.335 1900.25 673.335 Q1905.87 673.335 1908.65 676.252 Q1911.43 679.169 1911.43 685.094 Z" fill="#000000" fill-rule="evenodd" fill-opacity="1" /><path clip-path="url(#clip620)" d="M 0 0 M1938.86 674.956 L1938.86 678.937 Q1937.05 677.942 1935.23 677.456 Q1933.42 676.946 1931.57 676.946 Q1927.43 676.946 1925.13 679.585 Q1922.84 682.201 1922.84 686.946 Q1922.84 691.692 1925.13 694.33 Q1927.43 696.946 1931.57 696.946 Q1933.42 696.946 1935.23 696.46 Q1937.05 695.951 1938.86 694.955 L1938.86 698.891 Q1937.08 699.724 1935.16 700.141 Q1933.26 700.557 1931.11 700.557 Q1925.25 700.557 1921.8 696.877 Q1918.35 693.196 1918.35 686.946 Q1918.35 680.604 1921.82 676.969 Q1925.32 673.335 1931.38 673.335 Q1933.35 673.335 1935.23 673.752 Q1937.1 674.145 1938.86 674.956 Z" fill="#000000" fill-rule="evenodd" fill-opacity="1" /><path clip-path="url(#clip620)" d="M 0 0 M1946.11 663.868 L1950.39 663.868 L1950.39 685.141 L1963.1 673.96 L1968.54 673.96 L1954.79 686.09 L1969.11 699.886 L1963.56 699.886 L1950.39 687.224 L1950.39 699.886 L1946.11 699.886 L1946.11 663.868 Z" fill="#000000" fill-rule="evenodd" fill-opacity="1" /><path clip-path="url(#clip620)" d="M 0 0 M1984.67 686.854 Q1979.51 686.854 1977.52 688.034 Q1975.53 689.215 1975.53 692.062 Q1975.53 694.33 1977.01 695.673 Q1978.51 696.992 1981.08 696.992 Q1984.62 696.992 1986.75 694.492 Q1988.91 691.969 1988.91 687.803 L1988.91 686.854 L1984.67 686.854 M1993.17 685.094 L1993.17 699.886 L1988.91 699.886 L1988.91 695.951 Q1987.45 698.312 1985.27 699.446 Q1983.1 700.557 1979.95 700.557 Q1975.97 700.557 1973.61 698.335 Q1971.27 696.09 1971.27 692.34 Q1971.27 687.965 1974.18 685.743 Q1977.12 683.52 1982.93 683.52 L1988.91 683.52 L1988.91 683.104 Q1988.91 680.164 1986.96 678.567 Q1985.04 676.946 1981.55 676.946 Q1979.32 676.946 1977.22 677.479 Q1975.11 678.011 1973.17 679.076 L1973.17 675.141 Q1975.5 674.238 1977.7 673.798 Q1979.9 673.335 1981.99 673.335 Q1987.61 673.335 1990.39 676.252 Q1993.17 679.169 1993.17 685.094 Z" fill="#000000" fill-rule="evenodd" fill-opacity="1" /><path clip-path="url(#clip620)" d="M 0 0 M2019 686.622 Q2019 681.993 2017.08 679.446 Q2015.18 676.9 2011.73 676.9 Q2008.3 676.9 2006.38 679.446 Q2004.49 681.993 2004.49 686.622 Q2004.49 691.229 2006.38 693.775 Q2008.3 696.321 2011.73 696.321 Q2015.18 696.321 2017.08 693.775 Q2019 691.229 2019 686.622 M2023.26 696.668 Q2023.26 703.289 2020.32 706.506 Q2017.38 709.747 2011.31 709.747 Q2009.07 709.747 2007.08 709.4 Q2005.09 709.076 2003.21 708.381 L2003.21 704.238 Q2005.09 705.256 2006.92 705.742 Q2008.74 706.229 2010.64 706.229 Q2014.83 706.229 2016.92 704.029 Q2019 701.854 2019 697.432 L2019 695.326 Q2017.68 697.617 2015.62 698.752 Q2013.56 699.886 2010.69 699.886 Q2005.92 699.886 2003 696.252 Q2000.09 692.618 2000.09 686.622 Q2000.09 680.604 2003 676.969 Q2005.92 673.335 2010.69 673.335 Q2013.56 673.335 2015.62 674.469 Q2017.68 675.604 2019 677.895 L2019 673.96 L2023.26 673.96 L2023.26 696.668 Z" fill="#000000" fill-rule="evenodd" fill-opacity="1" /><path clip-path="url(#clip620)" d="M 0 0 M2054.21 685.858 L2054.21 687.942 L2034.62 687.942 Q2034.9 692.34 2037.26 694.655 Q2039.65 696.946 2043.88 696.946 Q2046.34 696.946 2048.63 696.344 Q2050.94 695.742 2053.21 694.539 L2053.21 698.567 Q2050.92 699.539 2048.51 700.048 Q2046.11 700.557 2043.63 700.557 Q2037.42 700.557 2033.79 696.946 Q2030.18 693.335 2030.18 687.178 Q2030.18 680.812 2033.61 677.085 Q2037.05 673.335 2042.89 673.335 Q2048.12 673.335 2051.15 676.715 Q2054.21 680.071 2054.21 685.858 M2049.95 684.608 Q2049.9 681.113 2047.98 679.03 Q2046.08 676.946 2042.93 676.946 Q2039.37 676.946 2037.22 678.96 Q2035.09 680.974 2034.76 684.631 L2049.95 684.608 Z" fill="#000000" fill-rule="evenodd" fill-opacity="1" /><polyline clip-path="url(#clip620)" style="stroke:#009af9; stroke-width:4; stroke-opacity:1; fill:none" points="
  1663.28,743.086 1804.44,743.086 
  "/>
<path clip-path="url(#clip620)" d="M 0 0 M1855.84 728.468 L1855.84 733.399 Q1853.48 731.199 1850.79 730.112 Q1848.13 729.024 1845.12 729.024 Q1839.19 729.024 1836.05 732.658 Q1832.9 736.269 1832.9 743.121 Q1832.9 749.949 1836.05 753.584 Q1839.19 757.195 1845.12 757.195 Q1848.13 757.195 1850.79 756.107 Q1853.48 755.019 1855.84 752.82 L1855.84 757.704 Q1853.38 759.371 1850.63 760.204 Q1847.9 761.037 1844.84 761.037 Q1837 761.037 1832.48 756.246 Q1827.97 751.431 1827.97 743.121 Q1827.97 734.787 1832.48 729.996 Q1837 725.181 1844.84 725.181 Q1847.94 725.181 1850.68 726.014 Q1853.43 726.824 1855.84 728.468 Z" fill="#000000" fill-rule="evenodd" fill-opacity="1" /><path clip-path="url(#clip620)" d="M 0 0 M1872.92 737.426 Q1869.5 737.426 1867.5 740.111 Q1865.51 742.773 1865.51 747.426 Q1865.51 752.079 1867.48 754.764 Q1869.47 757.426 1872.92 757.426 Q1876.32 757.426 1878.31 754.741 Q1880.31 752.056 1880.31 747.426 Q1880.31 742.82 1878.31 740.135 Q1876.32 737.426 1872.92 737.426 M1872.92 733.815 Q1878.48 733.815 1881.65 737.426 Q1884.82 741.037 1884.82 747.426 Q1884.82 753.792 1881.65 757.426 Q1878.48 761.037 1872.92 761.037 Q1867.34 761.037 1864.17 757.426 Q1861.02 753.792 1861.02 747.426 Q1861.02 741.037 1864.17 737.426 Q1867.34 733.815 1872.92 733.815 Z" fill="#000000" fill-rule="evenodd" fill-opacity="1" /><path clip-path="url(#clip620)" d="M 0 0 M1913.43 744.718 L1913.43 760.366 L1909.17 760.366 L1909.17 744.857 Q1909.17 741.176 1907.74 739.348 Q1906.3 737.519 1903.43 737.519 Q1899.98 737.519 1897.99 739.718 Q1896 741.917 1896 745.713 L1896 760.366 L1891.72 760.366 L1891.72 734.44 L1896 734.44 L1896 738.468 Q1897.53 736.13 1899.59 734.973 Q1901.67 733.815 1904.38 733.815 Q1908.85 733.815 1911.14 736.593 Q1913.43 739.348 1913.43 744.718 Z" fill="#000000" fill-rule="evenodd" fill-opacity="1" /><path clip-path="url(#clip620)" d="M 0 0 M1926.14 727.079 L1926.14 734.44 L1934.91 734.44 L1934.91 737.75 L1926.14 737.75 L1926.14 751.824 Q1926.14 754.996 1927 755.898 Q1927.87 756.801 1930.54 756.801 L1934.91 756.801 L1934.91 760.366 L1930.54 760.366 Q1925.61 760.366 1923.73 758.537 Q1921.86 756.685 1921.86 751.824 L1921.86 737.75 L1918.73 737.75 L1918.73 734.44 L1921.86 734.44 L1921.86 727.079 L1926.14 727.079 Z" fill="#000000" fill-rule="evenodd" fill-opacity="1" /><path clip-path="url(#clip620)" d="M 0 0 M1955.54 738.422 Q1954.82 738.005 1953.96 737.82 Q1953.13 737.611 1952.11 737.611 Q1948.5 737.611 1946.56 739.973 Q1944.63 742.311 1944.63 746.709 L1944.63 760.366 L1940.35 760.366 L1940.35 734.44 L1944.63 734.44 L1944.63 738.468 Q1945.98 736.107 1948.13 734.973 Q1950.28 733.815 1953.36 733.815 Q1953.8 733.815 1954.33 733.885 Q1954.87 733.931 1955.51 734.047 L1955.54 738.422 Z" fill="#000000" fill-rule="evenodd" fill-opacity="1" /><path clip-path="url(#clip620)" d="M 0 0 M1969.01 737.426 Q1965.58 737.426 1963.59 740.111 Q1961.6 742.773 1961.6 747.426 Q1961.6 752.079 1963.57 754.764 Q1965.56 757.426 1969.01 757.426 Q1972.41 757.426 1974.4 754.741 Q1976.39 752.056 1976.39 747.426 Q1976.39 742.82 1974.4 740.135 Q1972.41 737.426 1969.01 737.426 M1969.01 733.815 Q1974.56 733.815 1977.74 737.426 Q1980.91 741.037 1980.91 747.426 Q1980.91 753.792 1977.74 757.426 Q1974.56 761.037 1969.01 761.037 Q1963.43 761.037 1960.26 757.426 Q1957.11 753.792 1957.11 747.426 Q1957.11 741.037 1960.26 737.426 Q1963.43 733.815 1969.01 733.815 Z" fill="#000000" fill-rule="evenodd" fill-opacity="1" /><path clip-path="url(#clip620)" d="M 0 0 M1987.97 724.348 L1992.23 724.348 L1992.23 760.366 L1987.97 760.366 L1987.97 724.348 Z" fill="#000000" fill-rule="evenodd" fill-opacity="1" /><path clip-path="url(#clip620)" d="M 0 0 M2022.04 726.94 L2022.04 731.5 Q2019.38 730.227 2017.02 729.602 Q2014.66 728.977 2012.46 728.977 Q2008.64 728.977 2006.55 730.459 Q2004.49 731.94 2004.49 734.672 Q2004.49 736.963 2005.86 738.144 Q2007.25 739.301 2011.09 740.019 L2013.92 740.598 Q2019.15 741.593 2021.62 744.116 Q2024.12 746.616 2024.12 750.829 Q2024.12 755.852 2020.74 758.445 Q2017.39 761.037 2010.88 761.037 Q2008.43 761.037 2005.65 760.482 Q2002.9 759.926 1999.93 758.838 L1999.93 754.023 Q2002.78 755.621 2005.51 756.431 Q2008.24 757.241 2010.88 757.241 Q2014.89 757.241 2017.06 755.667 Q2019.24 754.093 2019.24 751.176 Q2019.24 748.63 2017.67 747.195 Q2016.12 745.76 2012.55 745.042 L2009.7 744.486 Q2004.47 743.445 2002.13 741.223 Q1999.8 739 1999.8 735.042 Q1999.8 730.459 2003.01 727.82 Q2006.25 725.181 2011.93 725.181 Q2014.36 725.181 2016.88 725.621 Q2019.4 726.061 2022.04 726.94 Z" fill="#000000" fill-rule="evenodd" fill-opacity="1" /><path clip-path="url(#clip620)" d="M 0 0 M2042.02 762.773 Q2040.21 767.403 2038.5 768.815 Q2036.79 770.227 2033.92 770.227 L2030.51 770.227 L2030.51 766.662 L2033.01 766.662 Q2034.77 766.662 2035.74 765.829 Q2036.72 764.996 2037.9 761.894 L2038.66 759.949 L2028.18 734.44 L2032.69 734.44 L2040.79 754.718 L2048.89 734.44 L2053.41 734.44 L2042.02 762.773 Z" fill="#000000" fill-rule="evenodd" fill-opacity="1" /><path clip-path="url(#clip620)" d="M 0 0 M2075.81 735.204 L2075.81 739.232 Q2074.01 738.306 2072.06 737.843 Q2070.12 737.38 2068.04 737.38 Q2064.86 737.38 2063.27 738.352 Q2061.69 739.324 2061.69 741.269 Q2061.69 742.75 2062.83 743.607 Q2063.96 744.44 2067.39 745.204 L2068.85 745.528 Q2073.38 746.5 2075.28 748.283 Q2077.2 750.042 2077.2 753.213 Q2077.2 756.824 2074.33 758.931 Q2071.49 761.037 2066.49 761.037 Q2064.4 761.037 2062.13 760.621 Q2059.89 760.227 2057.39 759.417 L2057.39 755.019 Q2059.75 756.246 2062.04 756.871 Q2064.33 757.472 2066.58 757.472 Q2069.59 757.472 2071.21 756.454 Q2072.83 755.412 2072.83 753.537 Q2072.83 751.801 2071.65 750.875 Q2070.49 749.949 2066.53 749.093 L2065.05 748.746 Q2061.09 747.912 2059.33 746.199 Q2057.57 744.463 2057.57 741.454 Q2057.57 737.797 2060.17 735.806 Q2062.76 733.815 2067.53 733.815 Q2069.89 733.815 2071.97 734.162 Q2074.05 734.51 2075.81 735.204 Z" fill="#000000" fill-rule="evenodd" fill-opacity="1" /><path clip-path="url(#clip620)" d="M 0 0 M2088.2 727.079 L2088.2 734.44 L2096.97 734.44 L2096.97 737.75 L2088.2 737.75 L2088.2 751.824 Q2088.2 754.996 2089.05 755.898 Q2089.93 756.801 2092.6 756.801 L2096.97 756.801 L2096.97 760.366 L2092.6 760.366 Q2087.67 760.366 2085.79 758.537 Q2083.92 756.685 2083.92 751.824 L2083.92 737.75 L2080.79 737.75 L2080.79 734.44 L2083.92 734.44 L2083.92 727.079 L2088.2 727.079 Z" fill="#000000" fill-rule="evenodd" fill-opacity="1" /><path clip-path="url(#clip620)" d="M 0 0 M2124.75 746.338 L2124.75 748.422 L2105.17 748.422 Q2105.44 752.82 2107.8 755.135 Q2110.19 757.426 2114.42 757.426 Q2116.88 757.426 2119.17 756.824 Q2121.48 756.222 2123.75 755.019 L2123.75 759.047 Q2121.46 760.019 2119.05 760.528 Q2116.65 761.037 2114.17 761.037 Q2107.97 761.037 2104.33 757.426 Q2100.72 753.815 2100.72 747.658 Q2100.72 741.292 2104.15 737.565 Q2107.6 733.815 2113.43 733.815 Q2118.66 733.815 2121.69 737.195 Q2124.75 740.551 2124.75 746.338 M2120.49 745.088 Q2120.44 741.593 2118.52 739.51 Q2116.62 737.426 2113.48 737.426 Q2109.91 737.426 2107.76 739.44 Q2105.63 741.454 2105.3 745.111 L2120.49 745.088 Z" fill="#000000" fill-rule="evenodd" fill-opacity="1" /><path clip-path="url(#clip620)" d="M 0 0 M2151.92 739.417 Q2153.52 736.547 2155.74 735.181 Q2157.97 733.815 2160.98 733.815 Q2165.03 733.815 2167.23 736.662 Q2169.42 739.486 2169.42 744.718 L2169.42 760.366 L2165.14 760.366 L2165.14 744.857 Q2165.14 741.13 2163.82 739.324 Q2162.5 737.519 2159.79 737.519 Q2156.48 737.519 2154.56 739.718 Q2152.64 741.917 2152.64 745.713 L2152.64 760.366 L2148.36 760.366 L2148.36 744.857 Q2148.36 741.107 2147.04 739.324 Q2145.72 737.519 2142.97 737.519 Q2139.7 737.519 2137.78 739.741 Q2135.86 741.94 2135.86 745.713 L2135.86 760.366 L2131.58 760.366 L2131.58 734.44 L2135.86 734.44 L2135.86 738.468 Q2137.32 736.084 2139.36 734.949 Q2141.39 733.815 2144.19 733.815 Q2147.02 733.815 2148.98 735.25 Q2150.98 736.686 2151.92 739.417 Z" fill="#000000" fill-rule="evenodd" fill-opacity="1" /><path clip-path="url(#clip620)" d="M 0 0 M2194.45 735.204 L2194.45 739.232 Q2192.64 738.306 2190.7 737.843 Q2188.75 737.38 2186.67 737.38 Q2183.5 737.38 2181.9 738.352 Q2180.33 739.324 2180.33 741.269 Q2180.33 742.75 2181.46 743.607 Q2182.6 744.44 2186.02 745.204 L2187.48 745.528 Q2192.02 746.5 2193.92 748.283 Q2195.84 750.042 2195.84 753.213 Q2195.84 756.824 2192.97 758.931 Q2190.12 761.037 2185.12 761.037 Q2183.04 761.037 2180.77 760.621 Q2178.52 760.227 2176.02 759.417 L2176.02 755.019 Q2178.38 756.246 2180.67 756.871 Q2182.97 757.472 2185.21 757.472 Q2188.22 757.472 2189.84 756.454 Q2191.46 755.412 2191.46 753.537 Q2191.46 751.801 2190.28 750.875 Q2189.12 749.949 2185.17 749.093 L2183.68 748.746 Q2179.73 747.912 2177.97 746.199 Q2176.21 744.463 2176.21 741.454 Q2176.21 737.797 2178.8 735.806 Q2181.39 733.815 2186.16 733.815 Q2188.52 733.815 2190.6 734.162 Q2192.69 734.51 2194.45 735.204 Z" fill="#000000" fill-rule="evenodd" fill-opacity="1" /><path clip-path="url(#clip620)" d="M 0 0 M2203.22 754.486 L2208.1 754.486 L2208.1 760.366 L2203.22 760.366 L2203.22 754.486 Z" fill="#000000" fill-rule="evenodd" fill-opacity="1" /><path clip-path="url(#clip620)" d="M 0 0 M2217.69 734.44 L2221.95 734.44 L2221.95 760.829 Q2221.95 765.783 2220.05 768.005 Q2218.17 770.227 2213.98 770.227 L2212.36 770.227 L2212.36 766.616 L2213.5 766.616 Q2215.93 766.616 2216.81 765.482 Q2217.69 764.371 2217.69 760.829 L2217.69 734.44 M2217.69 724.348 L2221.95 724.348 L2221.95 729.741 L2217.69 729.741 L2217.69 724.348 Z" fill="#000000" fill-rule="evenodd" fill-opacity="1" /><path clip-path="url(#clip620)" d="M 0 0 M2230.86 724.348 L2235.12 724.348 L2235.12 760.366 L2230.86 760.366 L2230.86 724.348 Z" fill="#000000" fill-rule="evenodd" fill-opacity="1" /><polyline clip-path="url(#clip620)" style="stroke:#e26f46; stroke-width:4; stroke-opacity:1; fill:none" points="
  1663.28,803.566 1804.44,803.566 
  "/>
<path clip-path="url(#clip620)" d="M 0 0 M1843.99 789.457 Q1838.89 789.457 1835.88 793.254 Q1832.9 797.05 1832.9 803.601 Q1832.9 810.128 1835.88 813.925 Q1838.89 817.721 1843.99 817.721 Q1849.08 817.721 1852.04 813.925 Q1855.03 810.128 1855.03 803.601 Q1855.03 797.05 1852.04 793.254 Q1849.08 789.457 1843.99 789.457 M1843.99 785.661 Q1851.25 785.661 1855.61 790.545 Q1859.96 795.406 1859.96 803.601 Q1859.96 811.772 1855.61 816.656 Q1851.25 821.517 1843.99 821.517 Q1836.69 821.517 1832.32 816.656 Q1827.97 811.795 1827.97 803.601 Q1827.97 795.406 1832.32 790.545 Q1836.69 785.661 1843.99 785.661 Z" fill="#000000" fill-rule="evenodd" fill-opacity="1" /><path clip-path="url(#clip620)" d="M 0 0 M1882.11 798.902 Q1881.39 798.485 1880.54 798.3 Q1879.7 798.091 1878.69 798.091 Q1875.07 798.091 1873.13 800.453 Q1871.21 802.791 1871.21 807.189 L1871.21 820.846 L1866.93 820.846 L1866.93 794.92 L1871.21 794.92 L1871.21 798.948 Q1872.55 796.587 1874.7 795.453 Q1876.86 794.295 1879.94 794.295 Q1880.38 794.295 1880.91 794.365 Q1881.44 794.411 1882.09 794.527 L1882.11 798.902 Z" fill="#000000" fill-rule="evenodd" fill-opacity="1" /><path clip-path="url(#clip620)" d="M 0 0 M1902.81 798.855 L1902.81 784.828 L1907.06 784.828 L1907.06 820.846 L1902.81 820.846 L1902.81 816.957 Q1901.46 819.272 1899.4 820.406 Q1897.37 821.517 1894.5 821.517 Q1889.8 821.517 1886.83 817.767 Q1883.89 814.017 1883.89 807.906 Q1883.89 801.795 1886.83 798.045 Q1889.8 794.295 1894.5 794.295 Q1897.37 794.295 1899.4 795.429 Q1901.46 796.541 1902.81 798.855 M1888.29 807.906 Q1888.29 812.605 1890.21 815.29 Q1892.16 817.952 1895.54 817.952 Q1898.92 817.952 1900.86 815.29 Q1902.81 812.605 1902.81 807.906 Q1902.81 803.207 1900.86 800.545 Q1898.92 797.86 1895.54 797.86 Q1892.16 797.86 1890.21 800.545 Q1888.29 803.207 1888.29 807.906 Z" fill="#000000" fill-rule="evenodd" fill-opacity="1" /><path clip-path="url(#clip620)" d="M 0 0 M1915.84 794.92 L1920.1 794.92 L1920.1 820.846 L1915.84 820.846 L1915.84 794.92 M1915.84 784.828 L1920.1 784.828 L1920.1 790.221 L1915.84 790.221 L1915.84 784.828 Z" fill="#000000" fill-rule="evenodd" fill-opacity="1" /><path clip-path="url(#clip620)" d="M 0 0 M1950.56 805.198 L1950.56 820.846 L1946.3 820.846 L1946.3 805.337 Q1946.3 801.656 1944.87 799.828 Q1943.43 797.999 1940.56 797.999 Q1937.11 797.999 1935.12 800.198 Q1933.13 802.397 1933.13 806.193 L1933.13 820.846 L1928.85 820.846 L1928.85 794.92 L1933.13 794.92 L1933.13 798.948 Q1934.66 796.61 1936.72 795.453 Q1938.8 794.295 1941.51 794.295 Q1945.98 794.295 1948.27 797.073 Q1950.56 799.828 1950.56 805.198 Z" fill="#000000" fill-rule="evenodd" fill-opacity="1" /><path clip-path="url(#clip620)" d="M 0 0 M1970.84 807.814 Q1965.68 807.814 1963.68 808.994 Q1961.69 810.175 1961.69 813.022 Q1961.69 815.29 1963.18 816.633 Q1964.68 817.952 1967.25 817.952 Q1970.79 817.952 1972.92 815.452 Q1975.07 812.929 1975.07 808.763 L1975.07 807.814 L1970.84 807.814 M1979.33 806.054 L1979.33 820.846 L1975.07 820.846 L1975.07 816.911 Q1973.62 819.272 1971.44 820.406 Q1969.26 821.517 1966.12 821.517 Q1962.13 821.517 1959.77 819.295 Q1957.43 817.05 1957.43 813.3 Q1957.43 808.925 1960.35 806.703 Q1963.29 804.48 1969.1 804.48 L1975.07 804.48 L1975.07 804.064 Q1975.07 801.124 1973.13 799.527 Q1971.21 797.906 1967.71 797.906 Q1965.49 797.906 1963.38 798.439 Q1961.28 798.971 1959.33 800.036 L1959.33 796.101 Q1961.67 795.198 1963.87 794.758 Q1966.07 794.295 1968.15 794.295 Q1973.78 794.295 1976.56 797.212 Q1979.33 800.129 1979.33 806.054 Z" fill="#000000" fill-rule="evenodd" fill-opacity="1" /><path clip-path="url(#clip620)" d="M 0 0 M2003.13 798.902 Q2002.41 798.485 2001.55 798.3 Q2000.72 798.091 1999.7 798.091 Q1996.09 798.091 1994.15 800.453 Q1992.23 802.791 1992.23 807.189 L1992.23 820.846 L1987.94 820.846 L1987.94 794.92 L1992.23 794.92 L1992.23 798.948 Q1993.57 796.587 1995.72 795.453 Q1997.87 794.295 2000.95 794.295 Q2001.39 794.295 2001.93 794.365 Q2002.46 794.411 2003.11 794.527 L2003.13 798.902 Z" fill="#000000" fill-rule="evenodd" fill-opacity="1" /><path clip-path="url(#clip620)" d="M 0 0 M2018.38 823.253 Q2016.58 827.883 2014.87 829.295 Q2013.15 830.707 2010.28 830.707 L2006.88 830.707 L2006.88 827.142 L2009.38 827.142 Q2011.14 827.142 2012.11 826.309 Q2013.08 825.476 2014.26 822.374 L2015.03 820.429 L2004.54 794.92 L2009.05 794.92 L2017.16 815.198 L2025.26 794.92 L2029.77 794.92 L2018.38 823.253 Z" fill="#000000" fill-rule="evenodd" fill-opacity="1" /><path clip-path="url(#clip620)" d="M 0 0 M2040.51 790.129 L2040.51 817.003 L2046.16 817.003 Q2053.31 817.003 2056.62 813.763 Q2059.96 810.522 2059.96 803.531 Q2059.96 796.587 2056.62 793.369 Q2053.31 790.129 2046.16 790.129 L2040.51 790.129 M2035.84 786.286 L2045.44 786.286 Q2055.49 786.286 2060.19 790.476 Q2064.89 794.642 2064.89 803.531 Q2064.89 812.466 2060.17 816.656 Q2055.44 820.846 2045.44 820.846 L2035.84 820.846 L2035.84 786.286 Z" fill="#000000" fill-rule="evenodd" fill-opacity="1" /><path clip-path="url(#clip620)" d="M 0 0 M2072.16 794.92 L2076.42 794.92 L2076.42 820.846 L2072.16 820.846 L2072.16 794.92 M2072.16 784.828 L2076.42 784.828 L2076.42 790.221 L2072.16 790.221 L2072.16 784.828 Z" fill="#000000" fill-rule="evenodd" fill-opacity="1" /><path clip-path="url(#clip620)" d="M 0 0 M2098.45 784.828 L2098.45 788.369 L2094.38 788.369 Q2092.09 788.369 2091.18 789.295 Q2090.3 790.221 2090.3 792.629 L2090.3 794.92 L2097.32 794.92 L2097.32 798.23 L2090.3 798.23 L2090.3 820.846 L2086.02 820.846 L2086.02 798.23 L2081.95 798.23 L2081.95 794.92 L2086.02 794.92 L2086.02 793.115 Q2086.02 788.786 2088.04 786.818 Q2090.05 784.828 2094.42 784.828 L2098.45 784.828 Z" fill="#000000" fill-rule="evenodd" fill-opacity="1" /><path clip-path="url(#clip620)" d="M 0 0 M2115.14 784.828 L2115.14 788.369 L2111.07 788.369 Q2108.78 788.369 2107.87 789.295 Q2106.99 790.221 2106.99 792.629 L2106.99 794.92 L2114.01 794.92 L2114.01 798.23 L2106.99 798.23 L2106.99 820.846 L2102.71 820.846 L2102.71 798.23 L2098.64 798.23 L2098.64 794.92 L2102.71 794.92 L2102.71 793.115 Q2102.71 788.786 2104.73 786.818 Q2106.74 784.828 2111.11 784.828 L2115.14 784.828 Z" fill="#000000" fill-rule="evenodd" fill-opacity="1" /><path clip-path="url(#clip620)" d="M 0 0 M2118.89 786.286 L2140.74 786.286 L2140.74 790.221 L2123.57 790.221 L2123.57 800.453 L2140.03 800.453 L2140.03 804.388 L2123.57 804.388 L2123.57 816.911 L2141.16 816.911 L2141.16 820.846 L2118.89 820.846 L2118.89 786.286 Z" fill="#000000" fill-rule="evenodd" fill-opacity="1" /><path clip-path="url(#clip620)" d="M 0 0 M2151.21 807.906 Q2151.21 812.605 2153.13 815.29 Q2155.07 817.952 2158.45 817.952 Q2161.83 817.952 2163.78 815.29 Q2165.72 812.605 2165.72 807.906 Q2165.72 803.207 2163.78 800.545 Q2161.83 797.86 2158.45 797.86 Q2155.07 797.86 2153.13 800.545 Q2151.21 803.207 2151.21 807.906 M2165.72 816.957 Q2164.38 819.272 2162.32 820.406 Q2160.28 821.517 2157.41 821.517 Q2152.71 821.517 2149.75 817.767 Q2146.81 814.017 2146.81 807.906 Q2146.81 801.795 2149.75 798.045 Q2152.71 794.295 2157.41 794.295 Q2160.28 794.295 2162.32 795.429 Q2164.38 796.541 2165.72 798.855 L2165.72 794.92 L2169.98 794.92 L2169.98 830.707 L2165.72 830.707 L2165.72 816.957 Z" fill="#000000" fill-rule="evenodd" fill-opacity="1" /><path clip-path="url(#clip620)" d="M 0 0 M2179.35 814.966 L2184.24 814.966 L2184.24 820.846 L2179.35 820.846 L2179.35 814.966 Z" fill="#000000" fill-rule="evenodd" fill-opacity="1" /><path clip-path="url(#clip620)" d="M 0 0 M2193.82 794.92 L2198.08 794.92 L2198.08 821.309 Q2198.08 826.263 2196.18 828.485 Q2194.31 830.707 2190.12 830.707 L2188.5 830.707 L2188.5 827.096 L2189.63 827.096 Q2192.06 827.096 2192.94 825.962 Q2193.82 824.851 2193.82 821.309 L2193.82 794.92 M2193.82 784.828 L2198.08 784.828 L2198.08 790.221 L2193.82 790.221 L2193.82 784.828 Z" fill="#000000" fill-rule="evenodd" fill-opacity="1" /><path clip-path="url(#clip620)" d="M 0 0 M2206.99 784.828 L2211.25 784.828 L2211.25 820.846 L2206.99 820.846 L2206.99 784.828 Z" fill="#000000" fill-rule="evenodd" fill-opacity="1" /></svg>
