<?xml version="1.0" encoding="utf-8"?>
<svg xmlns="http://www.w3.org/2000/svg" xmlns:xlink="http://www.w3.org/1999/xlink" width="600" height="400" viewBox="0 0 2400 1600">
<defs>
  <clipPath id="clip460">
    <rect x="0" y="0" width="2400" height="1600"/>
  </clipPath>
</defs>
<path clip-path="url(#clip460)" d="
M0 1600 L2400 1600 L2400 0 L0 0  Z
  " fill="#ffffff" fill-rule="evenodd" fill-opacity="1"/>
<defs>
  <clipPath id="clip461">
    <rect x="480" y="0" width="1681" height="1600"/>
  </clipPath>
</defs>
<path clip-path="url(#clip460)" d="
M186.274 1423.18 L2352.76 1423.18 L2352.76 47.2441 L186.274 47.2441  Z
  " fill="#ffffff" fill-rule="evenodd" fill-opacity="1"/>
<defs>
  <clipPath id="clip462">
    <rect x="186" y="47" width="2167" height="1377"/>
  </clipPath>
</defs>
<polyline clip-path="url(#clip462)" style="stroke:#000000; stroke-linecap:butt; stroke-linejoin:round; stroke-width:2; stroke-opacity:0.1; fill:none" points="
  186.274,1423.18 186.274,47.2441 
  "/>
<polyline clip-path="url(#clip462)" style="stroke:#000000; stroke-linecap:butt; stroke-linejoin:round; stroke-width:2; stroke-opacity:0.1; fill:none" points="
  727.894,1423.18 727.894,47.2441 
  "/>
<polyline clip-path="url(#clip462)" style="stroke:#000000; stroke-linecap:butt; stroke-linejoin:round; stroke-width:2; stroke-opacity:0.1; fill:none" points="
  1269.51,1423.18 1269.51,47.2441 
  "/>
<polyline clip-path="url(#clip462)" style="stroke:#000000; stroke-linecap:butt; stroke-linejoin:round; stroke-width:2; stroke-opacity:0.1; fill:none" points="
  1811.14,1423.18 1811.14,47.2441 
  "/>
<polyline clip-path="url(#clip462)" style="stroke:#000000; stroke-linecap:butt; stroke-linejoin:round; stroke-width:2; stroke-opacity:0.1; fill:none" points="
  2352.76,1423.18 2352.76,47.2441 
  "/>
<polyline clip-path="url(#clip460)" style="stroke:#000000; stroke-linecap:butt; stroke-linejoin:round; stroke-width:4; stroke-opacity:1; fill:none" points="
  186.274,1423.18 2352.76,1423.18 
  "/>
<polyline clip-path="url(#clip460)" style="stroke:#000000; stroke-linecap:butt; stroke-linejoin:round; stroke-width:4; stroke-opacity:1; fill:none" points="
  186.274,1423.18 186.274,1404.28 
  "/>
<polyline clip-path="url(#clip460)" style="stroke:#000000; stroke-linecap:butt; stroke-linejoin:round; stroke-width:4; stroke-opacity:1; fill:none" points="
  727.894,1423.18 727.894,1404.28 
  "/>
<polyline clip-path="url(#clip460)" style="stroke:#000000; stroke-linecap:butt; stroke-linejoin:round; stroke-width:4; stroke-opacity:1; fill:none" points="
  1269.51,1423.18 1269.51,1404.28 
  "/>
<polyline clip-path="url(#clip460)" style="stroke:#000000; stroke-linecap:butt; stroke-linejoin:round; stroke-width:4; stroke-opacity:1; fill:none" points="
  1811.14,1423.18 1811.14,1404.28 
  "/>
<polyline clip-path="url(#clip460)" style="stroke:#000000; stroke-linecap:butt; stroke-linejoin:round; stroke-width:4; stroke-opacity:1; fill:none" points="
  2352.76,1423.18 2352.76,1404.28 
  "/>
<path clip-path="url(#clip460)" d="M186.274 1454.1 Q182.663 1454.1 180.834 1457.66 Q179.029 1461.2 179.029 1468.33 Q179.029 1475.44 180.834 1479.01 Q182.663 1482.55 186.274 1482.55 Q189.908 1482.55 191.714 1479.01 Q193.542 1475.44 193.542 1468.33 Q193.542 1461.2 191.714 1457.66 Q189.908 1454.1 186.274 1454.1 M186.274 1450.39 Q192.084 1450.39 195.14 1455 Q198.218 1459.58 198.218 1468.33 Q198.218 1477.06 195.14 1481.67 Q192.084 1486.25 186.274 1486.25 Q180.464 1486.25 177.385 1481.67 Q174.33 1477.06 174.33 1468.33 Q174.33 1459.58 177.385 1455 Q180.464 1450.39 186.274 1450.39 Z" fill="#000000" fill-rule="evenodd" fill-opacity="1" /><path clip-path="url(#clip460)" d="M718.276 1481.64 L725.915 1481.64 L725.915 1455.28 L717.605 1456.95 L717.605 1452.69 L725.869 1451.02 L730.545 1451.02 L730.545 1481.64 L738.184 1481.64 L738.184 1485.58 L718.276 1485.58 L718.276 1481.64 Z" fill="#000000" fill-rule="evenodd" fill-opacity="1" /><path clip-path="url(#clip460)" d="M1264.17 1481.64 L1280.49 1481.64 L1280.49 1485.58 L1258.54 1485.58 L1258.54 1481.64 Q1261.2 1478.89 1265.79 1474.26 Q1270.39 1469.61 1271.58 1468.27 Q1273.82 1465.74 1274.7 1464.01 Q1275.6 1462.25 1275.6 1460.56 Q1275.6 1457.8 1273.66 1456.07 Q1271.74 1454.33 1268.64 1454.33 Q1266.44 1454.33 1263.98 1455.09 Q1261.55 1455.86 1258.77 1457.41 L1258.77 1452.69 Q1261.6 1451.55 1264.05 1450.97 Q1266.51 1450.39 1268.54 1450.39 Q1273.91 1450.39 1277.11 1453.08 Q1280.3 1455.77 1280.3 1460.26 Q1280.3 1462.39 1279.49 1464.31 Q1278.7 1466.2 1276.6 1468.8 Q1276.02 1469.47 1272.92 1472.69 Q1269.82 1475.88 1264.17 1481.64 Z" fill="#000000" fill-rule="evenodd" fill-opacity="1" /><path clip-path="url(#clip460)" d="M1815.38 1466.95 Q1818.74 1467.66 1820.61 1469.93 Q1822.51 1472.2 1822.51 1475.53 Q1822.51 1480.65 1818.99 1483.45 Q1815.48 1486.25 1808.99 1486.25 Q1806.82 1486.25 1804.5 1485.81 Q1802.21 1485.39 1799.76 1484.54 L1799.76 1480.02 Q1801.7 1481.16 1804.02 1481.74 Q1806.33 1482.32 1808.86 1482.32 Q1813.25 1482.32 1815.55 1480.58 Q1817.86 1478.84 1817.86 1475.53 Q1817.86 1472.48 1815.71 1470.77 Q1813.58 1469.03 1809.76 1469.03 L1805.73 1469.03 L1805.73 1465.19 L1809.94 1465.19 Q1813.39 1465.19 1815.22 1463.82 Q1817.05 1462.43 1817.05 1459.84 Q1817.05 1457.18 1815.15 1455.77 Q1813.28 1454.33 1809.76 1454.33 Q1807.84 1454.33 1805.64 1454.75 Q1803.44 1455.16 1800.8 1456.04 L1800.8 1451.88 Q1803.46 1451.14 1805.78 1450.77 Q1808.11 1450.39 1810.17 1450.39 Q1815.5 1450.39 1818.6 1452.83 Q1821.7 1455.23 1821.7 1459.35 Q1821.7 1462.22 1820.06 1464.21 Q1818.42 1466.18 1815.38 1466.95 Z" fill="#000000" fill-rule="evenodd" fill-opacity="1" /><path clip-path="url(#clip460)" d="M2355.77 1455.09 L2343.96 1473.54 L2355.77 1473.54 L2355.77 1455.09 M2354.54 1451.02 L2360.42 1451.02 L2360.42 1473.54 L2365.35 1473.54 L2365.35 1477.43 L2360.42 1477.43 L2360.42 1485.58 L2355.77 1485.58 L2355.77 1477.43 L2340.16 1477.43 L2340.16 1472.92 L2354.54 1451.02 Z" fill="#000000" fill-rule="evenodd" fill-opacity="1" /><path clip-path="url(#clip460)" d="M1272.43 1518.52 L1272.43 1531.66 Q1278.76 1531.66 1282.99 1536.53 Q1287.35 1541.5 1287.35 1550.25 Q1287.35 1559 1282.99 1563.97 Q1278.76 1568.84 1272.43 1568.84 L1272.43 1581.6 L1266.6 1581.6 L1266.6 1568.84 Q1260.27 1568.84 1256 1563.97 Q1251.68 1559 1251.68 1550.25 Q1251.68 1541.5 1256 1536.53 Q1260.27 1531.66 1266.6 1531.66 L1266.6 1518.52 L1272.43 1518.52 M1272.43 1563.62 Q1276.02 1563.62 1278.47 1560.34 Q1281.15 1556.68 1281.18 1550.25 Q1281.21 1543.89 1278.47 1540.16 Q1276.02 1536.88 1272.43 1536.88 L1272.43 1563.62 M1266.6 1563.62 L1266.6 1536.88 Q1263.01 1536.88 1260.59 1540.16 Q1257.82 1543.89 1257.85 1550.25 Q1257.88 1556.68 1260.59 1560.34 Q1263.01 1563.62 1266.6 1563.62 Z" fill="#000000" fill-rule="evenodd" fill-opacity="1" /><polyline clip-path="url(#clip462)" style="stroke:#000000; stroke-linecap:butt; stroke-linejoin:round; stroke-width:2; stroke-opacity:0.1; fill:none" points="
  186.274,1384.24 2352.76,1384.24 
  "/>
<polyline clip-path="url(#clip462)" style="stroke:#000000; stroke-linecap:butt; stroke-linejoin:round; stroke-width:2; stroke-opacity:0.1; fill:none" points="
  186.274,1059.73 2352.76,1059.73 
  "/>
<polyline clip-path="url(#clip462)" style="stroke:#000000; stroke-linecap:butt; stroke-linejoin:round; stroke-width:2; stroke-opacity:0.1; fill:none" points="
  186.274,735.212 2352.76,735.212 
  "/>
<polyline clip-path="url(#clip462)" style="stroke:#000000; stroke-linecap:butt; stroke-linejoin:round; stroke-width:2; stroke-opacity:0.1; fill:none" points="
  186.274,410.699 2352.76,410.699 
  "/>
<polyline clip-path="url(#clip462)" style="stroke:#000000; stroke-linecap:butt; stroke-linejoin:round; stroke-width:2; stroke-opacity:0.1; fill:none" points="
  186.274,86.1857 2352.76,86.1857 
  "/>
<polyline clip-path="url(#clip460)" style="stroke:#000000; stroke-linecap:butt; stroke-linejoin:round; stroke-width:4; stroke-opacity:1; fill:none" points="
  186.274,1423.18 186.274,47.2441 
  "/>
<polyline clip-path="url(#clip460)" style="stroke:#000000; stroke-linecap:butt; stroke-linejoin:round; stroke-width:4; stroke-opacity:1; fill:none" points="
  186.274,1384.24 205.172,1384.24 
  "/>
<polyline clip-path="url(#clip460)" style="stroke:#000000; stroke-linecap:butt; stroke-linejoin:round; stroke-width:4; stroke-opacity:1; fill:none" points="
  186.274,1059.73 205.172,1059.73 
  "/>
<polyline clip-path="url(#clip460)" style="stroke:#000000; stroke-linecap:butt; stroke-linejoin:round; stroke-width:4; stroke-opacity:1; fill:none" points="
  186.274,735.212 205.172,735.212 
  "/>
<polyline clip-path="url(#clip460)" style="stroke:#000000; stroke-linecap:butt; stroke-linejoin:round; stroke-width:4; stroke-opacity:1; fill:none" points="
  186.274,410.699 205.172,410.699 
  "/>
<polyline clip-path="url(#clip460)" style="stroke:#000000; stroke-linecap:butt; stroke-linejoin:round; stroke-width:4; stroke-opacity:1; fill:none" points="
  186.274,86.1857 205.172,86.1857 
  "/>
<path clip-path="url(#clip460)" d="M62.9365 1370.04 Q59.3254 1370.04 57.4967 1373.6 Q55.6912 1377.14 55.6912 1384.27 Q55.6912 1391.38 57.4967 1394.94 Q59.3254 1398.49 62.9365 1398.49 Q66.5707 1398.49 68.3763 1394.94 Q70.205 1391.38 70.205 1384.27 Q70.205 1377.14 68.3763 1373.6 Q66.5707 1370.04 62.9365 1370.04 M62.9365 1366.33 Q68.7467 1366.33 71.8022 1370.94 Q74.8809 1375.52 74.8809 1384.27 Q74.8809 1393 71.8022 1397.61 Q68.7467 1402.19 62.9365 1402.19 Q57.1264 1402.19 54.0477 1397.61 Q50.9921 1393 50.9921 1384.27 Q50.9921 1375.52 54.0477 1370.94 Q57.1264 1366.33 62.9365 1366.33 Z" fill="#000000" fill-rule="evenodd" fill-opacity="1" /><path clip-path="url(#clip460)" d="M83.0984 1395.64 L87.9827 1395.64 L87.9827 1401.52 L83.0984 1401.52 L83.0984 1395.64 Z" fill="#000000" fill-rule="evenodd" fill-opacity="1" /><path clip-path="url(#clip460)" d="M108.168 1370.04 Q104.557 1370.04 102.728 1373.6 Q100.922 1377.14 100.922 1384.27 Q100.922 1391.38 102.728 1394.94 Q104.557 1398.49 108.168 1398.49 Q111.802 1398.49 113.608 1394.94 Q115.436 1391.38 115.436 1384.27 Q115.436 1377.14 113.608 1373.6 Q111.802 1370.04 108.168 1370.04 M108.168 1366.33 Q113.978 1366.33 117.033 1370.94 Q120.112 1375.52 120.112 1384.27 Q120.112 1393 117.033 1397.61 Q113.978 1402.19 108.168 1402.19 Q102.358 1402.19 99.2789 1397.61 Q96.2234 1393 96.2234 1384.27 Q96.2234 1375.52 99.2789 1370.94 Q102.358 1366.33 108.168 1366.33 Z" fill="#000000" fill-rule="evenodd" fill-opacity="1" /><path clip-path="url(#clip460)" d="M138.33 1370.04 Q134.719 1370.04 132.89 1373.6 Q131.084 1377.14 131.084 1384.27 Q131.084 1391.38 132.89 1394.94 Q134.719 1398.49 138.33 1398.49 Q141.964 1398.49 143.769 1394.94 Q145.598 1391.38 145.598 1384.27 Q145.598 1377.14 143.769 1373.6 Q141.964 1370.04 138.33 1370.04 M138.33 1366.33 Q144.14 1366.33 147.195 1370.94 Q150.274 1375.52 150.274 1384.27 Q150.274 1393 147.195 1397.61 Q144.14 1402.19 138.33 1402.19 Q132.519 1402.19 129.441 1397.61 Q126.385 1393 126.385 1384.27 Q126.385 1375.52 129.441 1370.94 Q132.519 1366.33 138.33 1366.33 Z" fill="#000000" fill-rule="evenodd" fill-opacity="1" /><path clip-path="url(#clip460)" d="M63.9319 1045.52 Q60.3208 1045.52 58.4921 1049.09 Q56.6865 1052.63 56.6865 1059.76 Q56.6865 1066.87 58.4921 1070.43 Q60.3208 1073.97 63.9319 1073.97 Q67.5661 1073.97 69.3717 1070.43 Q71.2004 1066.87 71.2004 1059.76 Q71.2004 1052.63 69.3717 1049.09 Q67.5661 1045.52 63.9319 1045.52 M63.9319 1041.82 Q69.742 1041.82 72.7976 1046.43 Q75.8763 1051.01 75.8763 1059.76 Q75.8763 1068.49 72.7976 1073.09 Q69.742 1077.68 63.9319 1077.68 Q58.1217 1077.68 55.043 1073.09 Q51.9875 1068.49 51.9875 1059.76 Q51.9875 1051.01 55.043 1046.43 Q58.1217 1041.82 63.9319 1041.82 Z" fill="#000000" fill-rule="evenodd" fill-opacity="1" /><path clip-path="url(#clip460)" d="M84.0938 1071.13 L88.978 1071.13 L88.978 1077.01 L84.0938 1077.01 L84.0938 1071.13 Z" fill="#000000" fill-rule="evenodd" fill-opacity="1" /><path clip-path="url(#clip460)" d="M103.191 1073.07 L119.51 1073.07 L119.51 1077.01 L97.566 1077.01 L97.566 1073.07 Q100.228 1070.32 104.811 1065.69 Q109.418 1061.03 110.598 1059.69 Q112.844 1057.17 113.723 1055.43 Q114.626 1053.67 114.626 1051.98 Q114.626 1049.23 112.682 1047.49 Q110.76 1045.76 107.658 1045.76 Q105.459 1045.76 103.006 1046.52 Q100.575 1047.28 97.7974 1048.83 L97.7974 1044.11 Q100.621 1042.98 103.075 1042.4 Q105.529 1041.82 107.566 1041.82 Q112.936 1041.82 116.131 1044.51 Q119.325 1047.19 119.325 1051.68 Q119.325 1053.81 118.515 1055.73 Q117.728 1057.63 115.621 1060.22 Q115.043 1060.89 111.941 1064.11 Q108.839 1067.31 103.191 1073.07 Z" fill="#000000" fill-rule="evenodd" fill-opacity="1" /><path clip-path="url(#clip460)" d="M129.371 1042.45 L147.728 1042.45 L147.728 1046.38 L133.654 1046.38 L133.654 1054.85 Q134.672 1054.51 135.691 1054.34 Q136.709 1054.16 137.728 1054.16 Q143.515 1054.16 146.894 1057.33 Q150.274 1060.5 150.274 1065.92 Q150.274 1071.5 146.802 1074.6 Q143.33 1077.68 137.01 1077.68 Q134.834 1077.68 132.566 1077.31 Q130.32 1076.94 127.913 1076.19 L127.913 1071.5 Q129.996 1072.63 132.219 1073.19 Q134.441 1073.74 136.918 1073.74 Q140.922 1073.74 143.26 1071.63 Q145.598 1069.53 145.598 1065.92 Q145.598 1062.31 143.26 1060.2 Q140.922 1058.09 136.918 1058.09 Q135.043 1058.09 133.168 1058.51 Q131.316 1058.93 129.371 1059.81 L129.371 1042.45 Z" fill="#000000" fill-rule="evenodd" fill-opacity="1" /><path clip-path="url(#clip460)" d="M62.9365 721.011 Q59.3254 721.011 57.4967 724.575 Q55.6912 728.117 55.6912 735.247 Q55.6912 742.353 57.4967 745.918 Q59.3254 749.46 62.9365 749.46 Q66.5707 749.46 68.3763 745.918 Q70.205 742.353 70.205 735.247 Q70.205 728.117 68.3763 724.575 Q66.5707 721.011 62.9365 721.011 M62.9365 717.307 Q68.7467 717.307 71.8022 721.913 Q74.8809 726.497 74.8809 735.247 Q74.8809 743.973 71.8022 748.58 Q68.7467 753.163 62.9365 753.163 Q57.1264 753.163 54.0477 748.58 Q50.9921 743.973 50.9921 735.247 Q50.9921 726.497 54.0477 721.913 Q57.1264 717.307 62.9365 717.307 Z" fill="#000000" fill-rule="evenodd" fill-opacity="1" /><path clip-path="url(#clip460)" d="M83.0984 746.612 L87.9827 746.612 L87.9827 752.492 L83.0984 752.492 L83.0984 746.612 Z" fill="#000000" fill-rule="evenodd" fill-opacity="1" /><path clip-path="url(#clip460)" d="M98.2141 717.932 L116.57 717.932 L116.57 721.867 L102.496 721.867 L102.496 730.339 Q103.515 729.992 104.534 729.83 Q105.552 729.645 106.571 729.645 Q112.358 729.645 115.737 732.816 Q119.117 735.987 119.117 741.404 Q119.117 746.983 115.645 750.085 Q112.172 753.163 105.853 753.163 Q103.677 753.163 101.409 752.793 Q99.1632 752.423 96.7558 751.682 L96.7558 746.983 Q98.8391 748.117 101.061 748.673 Q103.284 749.228 105.76 749.228 Q109.765 749.228 112.103 747.122 Q114.441 745.015 114.441 741.404 Q114.441 737.793 112.103 735.687 Q109.765 733.58 105.76 733.58 Q103.885 733.58 102.01 733.997 Q100.159 734.413 98.2141 735.293 L98.2141 717.932 Z" fill="#000000" fill-rule="evenodd" fill-opacity="1" /><path clip-path="url(#clip460)" d="M138.33 721.011 Q134.719 721.011 132.89 724.575 Q131.084 728.117 131.084 735.247 Q131.084 742.353 132.89 745.918 Q134.719 749.46 138.33 749.46 Q141.964 749.46 143.769 745.918 Q145.598 742.353 145.598 735.247 Q145.598 728.117 143.769 724.575 Q141.964 721.011 138.33 721.011 M138.33 717.307 Q144.14 717.307 147.195 721.913 Q150.274 726.497 150.274 735.247 Q150.274 743.973 147.195 748.58 Q144.14 753.163 138.33 753.163 Q132.519 753.163 129.441 748.58 Q126.385 743.973 126.385 735.247 Q126.385 726.497 129.441 721.913 Q132.519 717.307 138.33 717.307 Z" fill="#000000" fill-rule="evenodd" fill-opacity="1" /><path clip-path="url(#clip460)" d="M63.9319 396.498 Q60.3208 396.498 58.4921 400.062 Q56.6865 403.604 56.6865 410.734 Q56.6865 417.84 58.4921 421.405 Q60.3208 424.946 63.9319 424.946 Q67.5661 424.946 69.3717 421.405 Q71.2004 417.84 71.2004 410.734 Q71.2004 403.604 69.3717 400.062 Q67.5661 396.498 63.9319 396.498 M63.9319 392.794 Q69.742 392.794 72.7976 397.4 Q75.8763 401.984 75.8763 410.734 Q75.8763 419.46 72.7976 424.067 Q69.742 428.65 63.9319 428.65 Q58.1217 428.65 55.043 424.067 Q51.9875 419.46 51.9875 410.734 Q51.9875 401.984 55.043 397.4 Q58.1217 392.794 63.9319 392.794 Z" fill="#000000" fill-rule="evenodd" fill-opacity="1" /><path clip-path="url(#clip460)" d="M84.0938 422.099 L88.978 422.099 L88.978 427.979 L84.0938 427.979 L84.0938 422.099 Z" fill="#000000" fill-rule="evenodd" fill-opacity="1" /><path clip-path="url(#clip460)" d="M97.9826 393.419 L120.205 393.419 L120.205 395.41 L107.658 427.979 L102.774 427.979 L114.58 397.354 L97.9826 397.354 L97.9826 393.419 Z" fill="#000000" fill-rule="evenodd" fill-opacity="1" /><path clip-path="url(#clip460)" d="M129.371 393.419 L147.728 393.419 L147.728 397.354 L133.654 397.354 L133.654 405.826 Q134.672 405.479 135.691 405.317 Q136.709 405.132 137.728 405.132 Q143.515 405.132 146.894 408.303 Q150.274 411.474 150.274 416.891 Q150.274 422.47 146.802 425.571 Q143.33 428.65 137.01 428.65 Q134.834 428.65 132.566 428.28 Q130.32 427.909 127.913 427.169 L127.913 422.47 Q129.996 423.604 132.219 424.159 Q134.441 424.715 136.918 424.715 Q140.922 424.715 143.26 422.608 Q145.598 420.502 145.598 416.891 Q145.598 413.28 143.26 411.173 Q140.922 409.067 136.918 409.067 Q135.043 409.067 133.168 409.484 Q131.316 409.9 129.371 410.78 L129.371 393.419 Z" fill="#000000" fill-rule="evenodd" fill-opacity="1" /><path clip-path="url(#clip460)" d="M53.7467 99.5305 L61.3856 99.5305 L61.3856 73.1649 L53.0754 74.8316 L53.0754 70.5723 L61.3393 68.9057 L66.0152 68.9057 L66.0152 99.5305 L73.654 99.5305 L73.654 103.466 L53.7467 103.466 L53.7467 99.5305 Z" fill="#000000" fill-rule="evenodd" fill-opacity="1" /><path clip-path="url(#clip460)" d="M83.0984 97.5861 L87.9827 97.5861 L87.9827 103.466 L83.0984 103.466 L83.0984 97.5861 Z" fill="#000000" fill-rule="evenodd" fill-opacity="1" /><path clip-path="url(#clip460)" d="M108.168 71.9844 Q104.557 71.9844 102.728 75.5492 Q100.922 79.0908 100.922 86.2204 Q100.922 93.3268 102.728 96.8916 Q104.557 100.433 108.168 100.433 Q111.802 100.433 113.608 96.8916 Q115.436 93.3268 115.436 86.2204 Q115.436 79.0908 113.608 75.5492 Q111.802 71.9844 108.168 71.9844 M108.168 68.2807 Q113.978 68.2807 117.033 72.8871 Q120.112 77.4704 120.112 86.2204 Q120.112 94.9472 117.033 99.5537 Q113.978 104.137 108.168 104.137 Q102.358 104.137 99.2789 99.5537 Q96.2234 94.9472 96.2234 86.2204 Q96.2234 77.4704 99.2789 72.8871 Q102.358 68.2807 108.168 68.2807 Z" fill="#000000" fill-rule="evenodd" fill-opacity="1" /><path clip-path="url(#clip460)" d="M138.33 71.9844 Q134.719 71.9844 132.89 75.5492 Q131.084 79.0908 131.084 86.2204 Q131.084 93.3268 132.89 96.8916 Q134.719 100.433 138.33 100.433 Q141.964 100.433 143.769 96.8916 Q145.598 93.3268 145.598 86.2204 Q145.598 79.0908 143.769 75.5492 Q141.964 71.9844 138.33 71.9844 M138.33 68.2807 Q144.14 68.2807 147.195 72.8871 Q150.274 77.4704 150.274 86.2204 Q150.274 94.9472 147.195 99.5537 Q144.14 104.137 138.33 104.137 Q132.519 104.137 129.441 99.5537 Q126.385 94.9472 126.385 86.2204 Q126.385 77.4704 129.441 72.8871 Q132.519 68.2807 138.33 68.2807 Z" fill="#000000" fill-rule="evenodd" fill-opacity="1" /><polyline clip-path="url(#clip462)" style="stroke:#009af9; stroke-linecap:butt; stroke-linejoin:round; stroke-width:4; stroke-opacity:1; fill:none" points="
  186.274,86.1861 186.328,86.1866 186.558,86.193 187.203,86.2282 188.626,86.3575 191.344,86.732 196.057,87.6547 203.647,89.6679 215.161,93.6551 232.068,101.079 
  256.395,114.316 290.706,136.992 338.348,174.467 392.51,223.503 446.672,277.617 500.834,335.401 554.996,395.723 609.158,457.64 663.32,520.345 717.483,583.143 
  771.645,645.434 825.807,706.695 879.969,766.479 934.131,824.402 988.293,880.138 1042.45,933.418 1096.62,984.02 1150.78,1031.77 1204.94,1076.53 1259.1,1118.21 
  1313.27,1156.73 1367.43,1192.08 1421.59,1224.24 1475.75,1253.24 1529.91,1279.11 1584.08,1301.91 1638.24,1321.71 1692.4,1338.6 1746.56,1352.67 1800.72,1364.02 
  1854.89,1372.76 1909.05,1378.99 1963.21,1382.81 1987.89,1383.71 2008.67,1384.13 2016.95,1384.2 2024.28,1384.24 2034.34,1384.24 2041.6,1384.24 2095.76,1384.24 
  2149.92,1384.24 2204.09,1384.24 2258.25,1384.24 2312.41,1384.24 2366.57,1384.24 2420.74,1384.24 2474.9,1384.24 2529.06,1384.24 2583.22,1384.24 2637.38,1384.24 
  2691.55,1384.24 2745.71,1384.24 2799.87,1384.24 2854.03,1384.24 2908.19,1384.24 2962.36,1384.24 3016.52,1384.24 3070.68,1384.24 3124.84,1384.24 3179,1384.24 
  3233.17,1384.24 3287.33,1384.24 3341.49,1384.24 3395.65,1384.24 3436,1384.24 
  "/>
<polyline clip-path="url(#clip462)" style="stroke:#e26f46; stroke-linecap:butt; stroke-linejoin:round; stroke-width:4; stroke-opacity:1; fill:none" points="
  186.274,86.1857 186.328,86.1862 186.558,86.1929 187.203,86.2289 188.626,86.3603 191.344,86.7392 196.057,87.6697 203.647,89.6963 215.161,93.7042 232.068,101.159 
  256.395,114.444 290.706,137.186 338.348,174.751 392.51,223.85 446.672,277.99 500.834,335.778 554.996,396.09 609.158,457.988 663.32,520.669 717.483,583.439 
  771.645,645.698 825.807,706.926 879.969,766.676 934.131,824.565 988.293,880.267 1042.45,933.514 1096.62,984.085 1150.78,1031.8 1204.94,1076.54 1259.1,1118.18 
  1313.27,1156.69 1367.43,1192.01 1421.59,1224.15 1475.75,1253.13 1529.91,1278.98 1584.08,1301.77 1638.24,1321.56 1692.4,1338.44 1746.56,1352.5 1800.72,1363.84 
  1854.89,1372.58 1909.05,1378.81 1963.21,1382.65 1987.89,1383.63 2008.67,1384.1 2016.95,1384.19 2024.28,1384.23 2034.34,1384.24 2041.6,1384.24 2095.76,1384.24 
  2149.92,1384.24 2204.09,1384.24 2258.25,1384.24 2312.41,1384.24 2366.57,1384.24 2420.74,1384.24 2474.9,1384.24 2529.06,1384.24 2583.22,1384.24 2637.38,1384.24 
  2691.55,1384.24 2745.71,1384.24 2799.87,1384.24 2854.03,1384.24 2908.19,1384.24 2962.36,1384.24 3016.52,1384.24 3070.68,1384.24 3124.84,1384.24 3179,1384.24 
  3233.17,1384.24 3287.33,1384.24 3341.49,1384.24 3395.65,1384.24 3436,1384.24 
  "/>
<path clip-path="url(#clip460)" d="
M1948.15 248.629 L2280.54 248.629 L2280.54 93.1086 L1948.15 93.1086  Z
  " fill="#ffffff" fill-rule="evenodd" fill-opacity="1"/>
<polyline clip-path="url(#clip460)" style="stroke:#000000; stroke-linecap:butt; stroke-linejoin:round; stroke-width:4; stroke-opacity:1; fill:none" points="
  1948.15,248.629 2280.54,248.629 2280.54,93.1086 1948.15,93.1086 1948.15,248.629 
  "/>
<polyline clip-path="url(#clip460)" style="stroke:#009af9; stroke-linecap:butt; stroke-linejoin:round; stroke-width:4; stroke-opacity:1; fill:none" points="
  1972.23,144.949 2116.66,144.949 
  "/>
<path clip-path="url(#clip460)" d="M2159.64 148.965 Q2159.64 144.335 2157.72 141.789 Q2155.82 139.243 2152.37 139.243 Q2148.95 139.243 2147.03 141.789 Q2145.13 144.335 2145.13 148.965 Q2145.13 153.571 2147.03 156.118 Q2148.95 158.664 2152.37 158.664 Q2155.82 158.664 2157.72 156.118 Q2159.64 153.571 2159.64 148.965 M2163.9 159.011 Q2163.9 165.631 2160.96 168.849 Q2158.02 172.09 2151.96 172.09 Q2149.71 172.09 2147.72 171.742 Q2145.73 171.418 2143.85 170.724 L2143.85 166.58 Q2145.73 167.599 2147.56 168.085 Q2149.39 168.571 2151.29 168.571 Q2155.47 168.571 2157.56 166.372 Q2159.64 164.196 2159.64 159.775 L2159.64 157.668 Q2158.32 159.96 2156.26 161.094 Q2154.2 162.229 2151.33 162.229 Q2146.56 162.229 2143.65 158.594 Q2140.73 154.96 2140.73 148.965 Q2140.73 142.946 2143.65 139.312 Q2146.56 135.678 2151.33 135.678 Q2154.2 135.678 2156.26 136.812 Q2158.32 137.946 2159.64 140.238 L2159.64 136.303 L2163.9 136.303 L2163.9 159.011 Z" fill="#000000" fill-rule="evenodd" fill-opacity="1" /><path clip-path="url(#clip460)" d="M2182.91 126.257 Q2179.8 131.581 2178.3 136.789 Q2176.79 141.997 2176.79 147.344 Q2176.79 152.692 2178.3 157.946 Q2179.83 163.178 2182.91 168.479 L2179.2 168.479 Q2175.73 163.039 2173.99 157.784 Q2172.28 152.53 2172.28 147.344 Q2172.28 142.182 2173.99 136.951 Q2175.71 131.72 2179.2 126.257 L2182.91 126.257 Z" fill="#000000" fill-rule="evenodd" fill-opacity="1" /><path clip-path="url(#clip460)" d="M2204.39 126.21 L2204.39 135.77 Q2208.99 135.77 2212.07 139.312 Q2215.24 142.923 2215.24 149.289 Q2215.24 155.655 2212.07 159.266 Q2208.99 162.807 2204.39 162.807 L2204.39 172.09 L2200.15 172.09 L2200.15 162.807 Q2195.54 162.807 2192.44 159.266 Q2189.29 155.655 2189.29 149.289 Q2189.29 142.923 2192.44 139.312 Q2195.54 135.77 2200.15 135.77 L2200.15 126.21 L2204.39 126.21 M2204.39 159.011 Q2207 159.011 2208.78 156.627 Q2210.73 153.965 2210.75 149.289 Q2210.78 144.659 2208.78 141.951 Q2207 139.567 2204.39 139.567 L2204.39 159.011 M2200.15 159.011 L2200.15 139.567 Q2197.53 139.567 2195.78 141.951 Q2193.76 144.659 2193.78 149.289 Q2193.81 153.965 2195.78 156.627 Q2197.53 159.011 2200.15 159.011 Z" fill="#000000" fill-rule="evenodd" fill-opacity="1" /><path clip-path="url(#clip460)" d="M2221.77 126.257 L2225.47 126.257 Q2228.95 131.72 2230.66 136.951 Q2232.4 142.182 2232.4 147.344 Q2232.4 152.53 2230.66 157.784 Q2228.95 163.039 2225.47 168.479 L2221.77 168.479 Q2224.85 163.178 2226.35 157.946 Q2227.88 152.692 2227.88 147.344 Q2227.88 141.997 2226.35 136.789 Q2224.85 131.581 2221.77 126.257 Z" fill="#000000" fill-rule="evenodd" fill-opacity="1" /><polyline clip-path="url(#clip460)" style="stroke:#e26f46; stroke-linecap:butt; stroke-linejoin:round; stroke-width:4; stroke-opacity:1; fill:none" points="
  1972.23,196.789 2116.66,196.789 
  "/>
<path clip-path="url(#clip460)" d="M2157.23 178.05 L2157.23 181.592 L2153.16 181.592 Q2150.87 181.592 2149.97 182.518 Q2149.09 183.444 2149.09 185.851 L2149.09 188.143 L2156.1 188.143 L2156.1 191.453 L2149.09 191.453 L2149.09 214.069 L2144.8 214.069 L2144.8 191.453 L2140.73 191.453 L2140.73 188.143 L2144.8 188.143 L2144.8 186.337 Q2144.8 182.009 2146.82 180.041 Q2148.83 178.05 2153.21 178.05 L2157.23 178.05 Z" fill="#000000" fill-rule="evenodd" fill-opacity="1" /><path clip-path="url(#clip460)" d="M2171.03 178.097 Q2167.93 183.421 2166.42 188.629 Q2164.92 193.837 2164.92 199.184 Q2164.92 204.532 2166.42 209.786 Q2167.95 215.018 2171.03 220.319 L2167.33 220.319 Q2163.85 214.879 2162.12 209.624 Q2160.41 204.37 2160.41 199.184 Q2160.41 194.022 2162.12 188.791 Q2163.83 183.56 2167.33 178.097 L2171.03 178.097 Z" fill="#000000" fill-rule="evenodd" fill-opacity="1" /><path clip-path="url(#clip460)" d="M2192.51 178.05 L2192.51 187.61 Q2197.12 187.61 2200.2 191.152 Q2203.37 194.763 2203.37 201.129 Q2203.37 207.495 2200.2 211.106 Q2197.12 214.647 2192.51 214.647 L2192.51 223.93 L2188.28 223.93 L2188.28 214.647 Q2183.67 214.647 2180.57 211.106 Q2177.42 207.495 2177.42 201.129 Q2177.42 194.763 2180.57 191.152 Q2183.67 187.61 2188.28 187.61 L2188.28 178.05 L2192.51 178.05 M2192.51 210.851 Q2195.13 210.851 2196.91 208.467 Q2198.85 205.805 2198.88 201.129 Q2198.9 196.499 2196.91 193.791 Q2195.13 191.407 2192.51 191.407 L2192.51 210.851 M2188.28 210.851 L2188.28 191.407 Q2185.66 191.407 2183.9 193.791 Q2181.89 196.499 2181.91 201.129 Q2181.93 205.805 2183.9 208.467 Q2185.66 210.851 2188.28 210.851 Z" fill="#000000" fill-rule="evenodd" fill-opacity="1" /><path clip-path="url(#clip460)" d="M2209.9 178.097 L2213.6 178.097 Q2217.07 183.56 2218.78 188.791 Q2220.52 194.022 2220.52 199.184 Q2220.52 204.37 2218.78 209.624 Q2217.07 214.879 2213.6 220.319 L2209.9 220.319 Q2212.97 215.018 2214.48 209.786 Q2216.01 204.532 2216.01 199.184 Q2216.01 193.837 2214.48 188.629 Q2212.97 183.421 2209.9 178.097 Z" fill="#000000" fill-rule="evenodd" fill-opacity="1" /></svg>
