<?xml version="1.0" encoding="utf-8"?>
<svg xmlns="http://www.w3.org/2000/svg" xmlns:xlink="http://www.w3.org/1999/xlink" width="600" height="400" viewBox="0 0 2400 1600">
<defs>
  <clipPath id="clip660">
    <rect x="0" y="0" width="2400" height="1600"/>
  </clipPath>
</defs>
<path clip-path="url(#clip660)" d="
M0 1600 L2400 1600 L2400 0 L0 0  Z
  " fill="#ffffff" fill-rule="evenodd" fill-opacity="1"/>
<defs>
  <clipPath id="clip661">
    <rect x="480" y="0" width="1681" height="1600"/>
  </clipPath>
</defs>
<path clip-path="url(#clip660)" d="
M249.542 1423.18 L2352.76 1423.18 L2352.76 123.472 L249.542 123.472  Z
  " fill="#ffffff" fill-rule="evenodd" fill-opacity="1"/>
<defs>
  <clipPath id="clip662">
    <rect x="249" y="123" width="2104" height="1301"/>
  </clipPath>
</defs>
<polyline clip-path="url(#clip662)" style="stroke:#000000; stroke-linecap:butt; stroke-linejoin:round; stroke-width:2; stroke-opacity:0.1; fill:none" points="
  309.067,1423.18 309.067,123.472 
  "/>
<polyline clip-path="url(#clip662)" style="stroke:#000000; stroke-linecap:butt; stroke-linejoin:round; stroke-width:2; stroke-opacity:0.1; fill:none" points="
  977.586,1423.18 977.586,123.472 
  "/>
<polyline clip-path="url(#clip662)" style="stroke:#000000; stroke-linecap:butt; stroke-linejoin:round; stroke-width:2; stroke-opacity:0.1; fill:none" points="
  1646.1,1423.18 1646.1,123.472 
  "/>
<polyline clip-path="url(#clip662)" style="stroke:#000000; stroke-linecap:butt; stroke-linejoin:round; stroke-width:2; stroke-opacity:0.1; fill:none" points="
  2314.62,1423.18 2314.62,123.472 
  "/>
<polyline clip-path="url(#clip660)" style="stroke:#000000; stroke-linecap:butt; stroke-linejoin:round; stroke-width:4; stroke-opacity:1; fill:none" points="
  249.542,1423.18 2352.76,1423.18 
  "/>
<polyline clip-path="url(#clip660)" style="stroke:#000000; stroke-linecap:butt; stroke-linejoin:round; stroke-width:4; stroke-opacity:1; fill:none" points="
  309.067,1423.18 309.067,1404.28 
  "/>
<polyline clip-path="url(#clip660)" style="stroke:#000000; stroke-linecap:butt; stroke-linejoin:round; stroke-width:4; stroke-opacity:1; fill:none" points="
  977.586,1423.18 977.586,1404.28 
  "/>
<polyline clip-path="url(#clip660)" style="stroke:#000000; stroke-linecap:butt; stroke-linejoin:round; stroke-width:4; stroke-opacity:1; fill:none" points="
  1646.1,1423.18 1646.1,1404.28 
  "/>
<polyline clip-path="url(#clip660)" style="stroke:#000000; stroke-linecap:butt; stroke-linejoin:round; stroke-width:4; stroke-opacity:1; fill:none" points="
  2314.62,1423.18 2314.62,1404.28 
  "/>
<path clip-path="url(#clip660)" d="M286.451 1454.1 Q282.84 1454.1 281.012 1457.66 Q279.206 1461.2 279.206 1468.33 Q279.206 1475.44 281.012 1479.01 Q282.84 1482.55 286.451 1482.55 Q290.086 1482.55 291.891 1479.01 Q293.72 1475.44 293.72 1468.33 Q293.72 1461.2 291.891 1457.66 Q290.086 1454.1 286.451 1454.1 M286.451 1450.39 Q292.261 1450.39 295.317 1455 Q298.396 1459.58 298.396 1468.33 Q298.396 1477.06 295.317 1481.67 Q292.261 1486.25 286.451 1486.25 Q280.641 1486.25 277.562 1481.67 Q274.507 1477.06 274.507 1468.33 Q274.507 1459.58 277.562 1455 Q280.641 1450.39 286.451 1450.39 Z" fill="#000000" fill-rule="evenodd" fill-opacity="1" /><path clip-path="url(#clip660)" d="M306.613 1479.7 L311.497 1479.7 L311.497 1485.58 L306.613 1485.58 L306.613 1479.7 Z" fill="#000000" fill-rule="evenodd" fill-opacity="1" /><path clip-path="url(#clip660)" d="M331.683 1454.1 Q328.071 1454.1 326.243 1457.66 Q324.437 1461.2 324.437 1468.33 Q324.437 1475.44 326.243 1479.01 Q328.071 1482.55 331.683 1482.55 Q335.317 1482.55 337.122 1479.01 Q338.951 1475.44 338.951 1468.33 Q338.951 1461.2 337.122 1457.66 Q335.317 1454.1 331.683 1454.1 M331.683 1450.39 Q337.493 1450.39 340.548 1455 Q343.627 1459.58 343.627 1468.33 Q343.627 1477.06 340.548 1481.67 Q337.493 1486.25 331.683 1486.25 Q325.872 1486.25 322.794 1481.67 Q319.738 1477.06 319.738 1468.33 Q319.738 1459.58 322.794 1455 Q325.872 1450.39 331.683 1450.39 Z" fill="#000000" fill-rule="evenodd" fill-opacity="1" /><path clip-path="url(#clip660)" d="M955.584 1454.1 Q951.973 1454.1 950.144 1457.66 Q948.338 1461.2 948.338 1468.33 Q948.338 1475.44 950.144 1479.01 Q951.973 1482.55 955.584 1482.55 Q959.218 1482.55 961.023 1479.01 Q962.852 1475.44 962.852 1468.33 Q962.852 1461.2 961.023 1457.66 Q959.218 1454.1 955.584 1454.1 M955.584 1450.39 Q961.394 1450.39 964.449 1455 Q967.528 1459.58 967.528 1468.33 Q967.528 1477.06 964.449 1481.67 Q961.394 1486.25 955.584 1486.25 Q949.773 1486.25 946.695 1481.67 Q943.639 1477.06 943.639 1468.33 Q943.639 1459.58 946.695 1455 Q949.773 1450.39 955.584 1450.39 Z" fill="#000000" fill-rule="evenodd" fill-opacity="1" /><path clip-path="url(#clip660)" d="M975.746 1479.7 L980.63 1479.7 L980.63 1485.58 L975.746 1485.58 L975.746 1479.7 Z" fill="#000000" fill-rule="evenodd" fill-opacity="1" /><path clip-path="url(#clip660)" d="M991.625 1481.64 L999.264 1481.64 L999.264 1455.28 L990.954 1456.95 L990.954 1452.69 L999.218 1451.02 L1003.89 1451.02 L1003.89 1481.64 L1011.53 1481.64 L1011.53 1485.58 L991.625 1485.58 L991.625 1481.64 Z" fill="#000000" fill-rule="evenodd" fill-opacity="1" /><path clip-path="url(#clip660)" d="M1624.29 1454.1 Q1620.68 1454.1 1618.85 1457.66 Q1617.04 1461.2 1617.04 1468.33 Q1617.04 1475.44 1618.85 1479.01 Q1620.68 1482.55 1624.29 1482.55 Q1627.92 1482.55 1629.73 1479.01 Q1631.56 1475.44 1631.56 1468.33 Q1631.56 1461.2 1629.73 1457.66 Q1627.92 1454.1 1624.29 1454.1 M1624.29 1450.39 Q1630.1 1450.39 1633.15 1455 Q1636.23 1459.58 1636.23 1468.33 Q1636.23 1477.06 1633.15 1481.67 Q1630.1 1486.25 1624.29 1486.25 Q1618.48 1486.25 1615.4 1481.67 Q1612.34 1477.06 1612.34 1468.33 Q1612.34 1459.58 1615.4 1455 Q1618.48 1450.39 1624.29 1450.39 Z" fill="#000000" fill-rule="evenodd" fill-opacity="1" /><path clip-path="url(#clip660)" d="M1644.45 1479.7 L1649.33 1479.7 L1649.33 1485.58 L1644.45 1485.58 L1644.45 1479.7 Z" fill="#000000" fill-rule="evenodd" fill-opacity="1" /><path clip-path="url(#clip660)" d="M1663.55 1481.64 L1679.87 1481.64 L1679.87 1485.58 L1657.92 1485.58 L1657.92 1481.64 Q1660.58 1478.89 1665.17 1474.26 Q1669.77 1469.61 1670.95 1468.27 Q1673.2 1465.74 1674.08 1464.01 Q1674.98 1462.25 1674.98 1460.56 Q1674.98 1457.8 1673.04 1456.07 Q1671.12 1454.33 1668.01 1454.33 Q1665.82 1454.33 1663.36 1455.09 Q1660.93 1455.86 1658.15 1457.41 L1658.15 1452.69 Q1660.98 1451.55 1663.43 1450.97 Q1665.88 1450.39 1667.92 1450.39 Q1673.29 1450.39 1676.49 1453.08 Q1679.68 1455.77 1679.68 1460.26 Q1679.68 1462.39 1678.87 1464.31 Q1678.08 1466.2 1675.98 1468.8 Q1675.4 1469.47 1672.3 1472.69 Q1669.19 1475.88 1663.55 1481.64 Z" fill="#000000" fill-rule="evenodd" fill-opacity="1" /><path clip-path="url(#clip660)" d="M2292.33 1454.1 Q2288.72 1454.1 2286.89 1457.66 Q2285.09 1461.2 2285.09 1468.33 Q2285.09 1475.44 2286.89 1479.01 Q2288.72 1482.55 2292.33 1482.55 Q2295.97 1482.55 2297.77 1479.01 Q2299.6 1475.44 2299.6 1468.33 Q2299.6 1461.2 2297.77 1457.66 Q2295.97 1454.1 2292.33 1454.1 M2292.33 1450.39 Q2298.14 1450.39 2301.2 1455 Q2304.28 1459.58 2304.28 1468.33 Q2304.28 1477.06 2301.2 1481.67 Q2298.14 1486.25 2292.33 1486.25 Q2286.52 1486.25 2283.44 1481.67 Q2280.39 1477.06 2280.39 1468.33 Q2280.39 1459.58 2283.44 1455 Q2286.52 1450.39 2292.33 1450.39 Z" fill="#000000" fill-rule="evenodd" fill-opacity="1" /><path clip-path="url(#clip660)" d="M2312.49 1479.7 L2317.38 1479.7 L2317.38 1485.58 L2312.49 1485.58 L2312.49 1479.7 Z" fill="#000000" fill-rule="evenodd" fill-opacity="1" /><path clip-path="url(#clip660)" d="M2341.73 1466.95 Q2345.09 1467.66 2346.96 1469.93 Q2348.86 1472.2 2348.86 1475.53 Q2348.86 1480.65 2345.34 1483.45 Q2341.82 1486.25 2335.34 1486.25 Q2333.17 1486.25 2330.85 1485.81 Q2328.56 1485.39 2326.11 1484.54 L2326.11 1480.02 Q2328.05 1481.16 2330.36 1481.74 Q2332.68 1482.32 2335.2 1482.32 Q2339.6 1482.32 2341.89 1480.58 Q2344.21 1478.84 2344.21 1475.53 Q2344.21 1472.48 2342.05 1470.77 Q2339.92 1469.03 2336.1 1469.03 L2332.08 1469.03 L2332.08 1465.19 L2336.29 1465.19 Q2339.74 1465.19 2341.57 1463.82 Q2343.4 1462.43 2343.4 1459.84 Q2343.4 1457.18 2341.5 1455.77 Q2339.62 1454.33 2336.1 1454.33 Q2334.18 1454.33 2331.98 1454.75 Q2329.79 1455.16 2327.15 1456.04 L2327.15 1451.88 Q2329.81 1451.14 2332.12 1450.77 Q2334.46 1450.39 2336.52 1450.39 Q2341.85 1450.39 2344.95 1452.83 Q2348.05 1455.23 2348.05 1459.35 Q2348.05 1462.22 2346.41 1464.21 Q2344.76 1466.18 2341.73 1466.95 Z" fill="#000000" fill-rule="evenodd" fill-opacity="1" /><path clip-path="url(#clip660)" d="M1284.9 1537.87 Q1283.91 1537.3 1282.74 1537.04 Q1281.59 1536.76 1280.19 1536.76 Q1275.22 1536.76 1272.55 1540 Q1269.91 1543.22 1269.91 1549.27 L1269.91 1568.04 L1264.02 1568.04 L1264.02 1532.4 L1269.91 1532.4 L1269.91 1537.93 Q1271.76 1534.69 1274.72 1533.13 Q1277.68 1531.54 1281.91 1531.54 Q1282.51 1531.54 1283.25 1531.63 Q1283.98 1531.7 1284.87 1531.85 L1284.9 1537.87 Z" fill="#000000" fill-rule="evenodd" fill-opacity="1" /><path clip-path="url(#clip660)" d="M1301.45 1520.52 L1306.86 1520.52 L1290.31 1574.09 L1284.9 1574.09 L1301.45 1520.52 Z" fill="#000000" fill-rule="evenodd" fill-opacity="1" /><path clip-path="url(#clip660)" d="M1310.46 1532.4 L1338.28 1532.4 L1338.28 1537.74 L1316.25 1563.37 L1338.28 1563.37 L1338.28 1568.04 L1309.66 1568.04 L1309.66 1562.7 L1331.69 1537.07 L1310.46 1537.07 L1310.46 1532.4 Z" fill="#000000" fill-rule="evenodd" fill-opacity="1" /><polyline clip-path="url(#clip662)" style="stroke:#000000; stroke-linecap:butt; stroke-linejoin:round; stroke-width:2; stroke-opacity:0.1; fill:none" points="
  249.542,1386.88 2352.76,1386.88 
  "/>
<polyline clip-path="url(#clip662)" style="stroke:#000000; stroke-linecap:butt; stroke-linejoin:round; stroke-width:2; stroke-opacity:0.1; fill:none" points="
  249.542,1080.22 2352.76,1080.22 
  "/>
<polyline clip-path="url(#clip662)" style="stroke:#000000; stroke-linecap:butt; stroke-linejoin:round; stroke-width:2; stroke-opacity:0.1; fill:none" points="
  249.542,773.568 2352.76,773.568 
  "/>
<polyline clip-path="url(#clip662)" style="stroke:#000000; stroke-linecap:butt; stroke-linejoin:round; stroke-width:2; stroke-opacity:0.1; fill:none" points="
  249.542,466.912 2352.76,466.912 
  "/>
<polyline clip-path="url(#clip662)" style="stroke:#000000; stroke-linecap:butt; stroke-linejoin:round; stroke-width:2; stroke-opacity:0.1; fill:none" points="
  249.542,160.256 2352.76,160.256 
  "/>
<polyline clip-path="url(#clip660)" style="stroke:#000000; stroke-linecap:butt; stroke-linejoin:round; stroke-width:4; stroke-opacity:1; fill:none" points="
  249.542,1423.18 249.542,123.472 
  "/>
<polyline clip-path="url(#clip660)" style="stroke:#000000; stroke-linecap:butt; stroke-linejoin:round; stroke-width:4; stroke-opacity:1; fill:none" points="
  249.542,1386.88 268.44,1386.88 
  "/>
<polyline clip-path="url(#clip660)" style="stroke:#000000; stroke-linecap:butt; stroke-linejoin:round; stroke-width:4; stroke-opacity:1; fill:none" points="
  249.542,1080.22 268.44,1080.22 
  "/>
<polyline clip-path="url(#clip660)" style="stroke:#000000; stroke-linecap:butt; stroke-linejoin:round; stroke-width:4; stroke-opacity:1; fill:none" points="
  249.542,773.568 268.44,773.568 
  "/>
<polyline clip-path="url(#clip660)" style="stroke:#000000; stroke-linecap:butt; stroke-linejoin:round; stroke-width:4; stroke-opacity:1; fill:none" points="
  249.542,466.912 268.44,466.912 
  "/>
<polyline clip-path="url(#clip660)" style="stroke:#000000; stroke-linecap:butt; stroke-linejoin:round; stroke-width:4; stroke-opacity:1; fill:none" points="
  249.542,160.256 268.44,160.256 
  "/>
<path clip-path="url(#clip660)" d="M126.205 1372.68 Q122.593 1372.68 120.765 1376.24 Q118.959 1379.79 118.959 1386.91 Q118.959 1394.02 120.765 1397.59 Q122.593 1401.13 126.205 1401.13 Q129.839 1401.13 131.644 1397.59 Q133.473 1394.02 133.473 1386.91 Q133.473 1379.79 131.644 1376.24 Q129.839 1372.68 126.205 1372.68 M126.205 1368.98 Q132.015 1368.98 135.07 1373.58 Q138.149 1378.16 138.149 1386.91 Q138.149 1395.64 135.07 1400.25 Q132.015 1404.83 126.205 1404.83 Q120.394 1404.83 117.316 1400.25 Q114.26 1395.64 114.26 1386.91 Q114.26 1378.16 117.316 1373.58 Q120.394 1368.98 126.205 1368.98 Z" fill="#000000" fill-rule="evenodd" fill-opacity="1" /><path clip-path="url(#clip660)" d="M146.366 1398.28 L151.251 1398.28 L151.251 1404.16 L146.366 1404.16 L146.366 1398.28 Z" fill="#000000" fill-rule="evenodd" fill-opacity="1" /><path clip-path="url(#clip660)" d="M171.436 1372.68 Q167.825 1372.68 165.996 1376.24 Q164.19 1379.79 164.19 1386.91 Q164.19 1394.02 165.996 1397.59 Q167.825 1401.13 171.436 1401.13 Q175.07 1401.13 176.876 1397.59 Q178.704 1394.02 178.704 1386.91 Q178.704 1379.79 176.876 1376.24 Q175.07 1372.68 171.436 1372.68 M171.436 1368.98 Q177.246 1368.98 180.301 1373.58 Q183.38 1378.16 183.38 1386.91 Q183.38 1395.64 180.301 1400.25 Q177.246 1404.83 171.436 1404.83 Q165.626 1404.83 162.547 1400.25 Q159.491 1395.64 159.491 1386.91 Q159.491 1378.16 162.547 1373.58 Q165.626 1368.98 171.436 1368.98 Z" fill="#000000" fill-rule="evenodd" fill-opacity="1" /><path clip-path="url(#clip660)" d="M201.598 1372.68 Q197.987 1372.68 196.158 1376.24 Q194.352 1379.79 194.352 1386.91 Q194.352 1394.02 196.158 1397.59 Q197.987 1401.13 201.598 1401.13 Q205.232 1401.13 207.037 1397.59 Q208.866 1394.02 208.866 1386.91 Q208.866 1379.79 207.037 1376.24 Q205.232 1372.68 201.598 1372.68 M201.598 1368.98 Q207.408 1368.98 210.463 1373.58 Q213.542 1378.16 213.542 1386.91 Q213.542 1395.64 210.463 1400.25 Q207.408 1404.83 201.598 1404.83 Q195.787 1404.83 192.709 1400.25 Q189.653 1395.64 189.653 1386.91 Q189.653 1378.16 192.709 1373.58 Q195.787 1368.98 201.598 1368.98 Z" fill="#000000" fill-rule="evenodd" fill-opacity="1" /><path clip-path="url(#clip660)" d="M127.2 1066.02 Q123.589 1066.02 121.76 1069.59 Q119.955 1073.13 119.955 1080.26 Q119.955 1087.37 121.76 1090.93 Q123.589 1094.47 127.2 1094.47 Q130.834 1094.47 132.64 1090.93 Q134.468 1087.37 134.468 1080.26 Q134.468 1073.13 132.64 1069.59 Q130.834 1066.02 127.2 1066.02 M127.2 1062.32 Q133.01 1062.32 136.066 1066.93 Q139.144 1071.51 139.144 1080.26 Q139.144 1088.99 136.066 1093.59 Q133.01 1098.18 127.2 1098.18 Q121.39 1098.18 118.311 1093.59 Q115.256 1088.99 115.256 1080.26 Q115.256 1071.51 118.311 1066.93 Q121.39 1062.32 127.2 1062.32 Z" fill="#000000" fill-rule="evenodd" fill-opacity="1" /><path clip-path="url(#clip660)" d="M147.362 1091.62 L152.246 1091.62 L152.246 1097.5 L147.362 1097.5 L147.362 1091.62 Z" fill="#000000" fill-rule="evenodd" fill-opacity="1" /><path clip-path="url(#clip660)" d="M166.459 1093.57 L182.778 1093.57 L182.778 1097.5 L160.834 1097.5 L160.834 1093.57 Q163.496 1090.81 168.079 1086.18 Q172.686 1081.53 173.866 1080.19 Q176.112 1077.67 176.991 1075.93 Q177.894 1074.17 177.894 1072.48 Q177.894 1069.73 175.95 1067.99 Q174.028 1066.25 170.927 1066.25 Q168.727 1066.25 166.274 1067.02 Q163.843 1067.78 161.065 1069.33 L161.065 1064.61 Q163.89 1063.48 166.343 1062.9 Q168.797 1062.32 170.834 1062.32 Q176.204 1062.32 179.399 1065 Q182.593 1067.69 182.593 1072.18 Q182.593 1074.31 181.783 1076.23 Q180.996 1078.13 178.889 1080.72 Q178.311 1081.39 175.209 1084.61 Q172.107 1087.81 166.459 1093.57 Z" fill="#000000" fill-rule="evenodd" fill-opacity="1" /><path clip-path="url(#clip660)" d="M192.639 1062.94 L210.996 1062.94 L210.996 1066.88 L196.922 1066.88 L196.922 1075.35 Q197.94 1075 198.959 1074.84 Q199.977 1074.66 200.996 1074.66 Q206.783 1074.66 210.162 1077.83 Q213.542 1081 213.542 1086.42 Q213.542 1091.99 210.07 1095.1 Q206.598 1098.18 200.278 1098.18 Q198.102 1098.18 195.834 1097.81 Q193.588 1097.43 191.181 1096.69 L191.181 1091.99 Q193.264 1093.13 195.487 1093.68 Q197.709 1094.24 200.186 1094.24 Q204.19 1094.24 206.528 1092.13 Q208.866 1090.03 208.866 1086.42 Q208.866 1082.81 206.528 1080.7 Q204.19 1078.59 200.186 1078.59 Q198.311 1078.59 196.436 1079.01 Q194.584 1079.43 192.639 1080.31 L192.639 1062.94 Z" fill="#000000" fill-rule="evenodd" fill-opacity="1" /><path clip-path="url(#clip660)" d="M126.205 759.367 Q122.593 759.367 120.765 762.932 Q118.959 766.473 118.959 773.603 Q118.959 780.709 120.765 784.274 Q122.593 787.816 126.205 787.816 Q129.839 787.816 131.644 784.274 Q133.473 780.709 133.473 773.603 Q133.473 766.473 131.644 762.932 Q129.839 759.367 126.205 759.367 M126.205 755.663 Q132.015 755.663 135.07 760.27 Q138.149 764.853 138.149 773.603 Q138.149 782.33 135.07 786.936 Q132.015 791.52 126.205 791.52 Q120.394 791.52 117.316 786.936 Q114.26 782.33 114.26 773.603 Q114.26 764.853 117.316 760.27 Q120.394 755.663 126.205 755.663 Z" fill="#000000" fill-rule="evenodd" fill-opacity="1" /><path clip-path="url(#clip660)" d="M146.366 784.969 L151.251 784.969 L151.251 790.848 L146.366 790.848 L146.366 784.969 Z" fill="#000000" fill-rule="evenodd" fill-opacity="1" /><path clip-path="url(#clip660)" d="M161.482 756.288 L179.839 756.288 L179.839 760.223 L165.765 760.223 L165.765 768.696 Q166.783 768.348 167.802 768.186 Q168.82 768.001 169.839 768.001 Q175.626 768.001 179.005 771.172 Q182.385 774.344 182.385 779.76 Q182.385 785.339 178.913 788.441 Q175.44 791.52 169.121 791.52 Q166.945 791.52 164.677 791.149 Q162.431 790.779 160.024 790.038 L160.024 785.339 Q162.107 786.473 164.329 787.029 Q166.552 787.584 169.028 787.584 Q173.033 787.584 175.371 785.478 Q177.709 783.371 177.709 779.76 Q177.709 776.149 175.371 774.043 Q173.033 771.936 169.028 771.936 Q167.153 771.936 165.278 772.353 Q163.427 772.77 161.482 773.649 L161.482 756.288 Z" fill="#000000" fill-rule="evenodd" fill-opacity="1" /><path clip-path="url(#clip660)" d="M201.598 759.367 Q197.987 759.367 196.158 762.932 Q194.352 766.473 194.352 773.603 Q194.352 780.709 196.158 784.274 Q197.987 787.816 201.598 787.816 Q205.232 787.816 207.037 784.274 Q208.866 780.709 208.866 773.603 Q208.866 766.473 207.037 762.932 Q205.232 759.367 201.598 759.367 M201.598 755.663 Q207.408 755.663 210.463 760.27 Q213.542 764.853 213.542 773.603 Q213.542 782.33 210.463 786.936 Q207.408 791.52 201.598 791.52 Q195.787 791.52 192.709 786.936 Q189.653 782.33 189.653 773.603 Q189.653 764.853 192.709 760.27 Q195.787 755.663 201.598 755.663 Z" fill="#000000" fill-rule="evenodd" fill-opacity="1" /><path clip-path="url(#clip660)" d="M127.2 452.711 Q123.589 452.711 121.76 456.276 Q119.955 459.817 119.955 466.947 Q119.955 474.053 121.76 477.618 Q123.589 481.16 127.2 481.16 Q130.834 481.16 132.64 477.618 Q134.468 474.053 134.468 466.947 Q134.468 459.817 132.64 456.276 Q130.834 452.711 127.2 452.711 M127.2 449.007 Q133.01 449.007 136.066 453.614 Q139.144 458.197 139.144 466.947 Q139.144 475.674 136.066 480.28 Q133.01 484.864 127.2 484.864 Q121.39 484.864 118.311 480.28 Q115.256 475.674 115.256 466.947 Q115.256 458.197 118.311 453.614 Q121.39 449.007 127.2 449.007 Z" fill="#000000" fill-rule="evenodd" fill-opacity="1" /><path clip-path="url(#clip660)" d="M147.362 478.313 L152.246 478.313 L152.246 484.192 L147.362 484.192 L147.362 478.313 Z" fill="#000000" fill-rule="evenodd" fill-opacity="1" /><path clip-path="url(#clip660)" d="M161.251 449.632 L183.473 449.632 L183.473 451.623 L170.927 484.192 L166.042 484.192 L177.848 453.567 L161.251 453.567 L161.251 449.632 Z" fill="#000000" fill-rule="evenodd" fill-opacity="1" /><path clip-path="url(#clip660)" d="M192.639 449.632 L210.996 449.632 L210.996 453.567 L196.922 453.567 L196.922 462.04 Q197.94 461.692 198.959 461.53 Q199.977 461.345 200.996 461.345 Q206.783 461.345 210.162 464.516 Q213.542 467.688 213.542 473.104 Q213.542 478.683 210.07 481.785 Q206.598 484.864 200.278 484.864 Q198.102 484.864 195.834 484.493 Q193.588 484.123 191.181 483.382 L191.181 478.683 Q193.264 479.817 195.487 480.373 Q197.709 480.928 200.186 480.928 Q204.19 480.928 206.528 478.822 Q208.866 476.715 208.866 473.104 Q208.866 469.493 206.528 467.387 Q204.19 465.28 200.186 465.28 Q198.311 465.28 196.436 465.697 Q194.584 466.114 192.639 466.993 L192.639 449.632 Z" fill="#000000" fill-rule="evenodd" fill-opacity="1" /><path clip-path="url(#clip660)" d="M117.015 173.601 L124.654 173.601 L124.654 147.236 L116.343 148.902 L116.343 144.643 L124.607 142.976 L129.283 142.976 L129.283 173.601 L136.922 173.601 L136.922 177.536 L117.015 177.536 L117.015 173.601 Z" fill="#000000" fill-rule="evenodd" fill-opacity="1" /><path clip-path="url(#clip660)" d="M146.366 171.657 L151.251 171.657 L151.251 177.536 L146.366 177.536 L146.366 171.657 Z" fill="#000000" fill-rule="evenodd" fill-opacity="1" /><path clip-path="url(#clip660)" d="M171.436 146.055 Q167.825 146.055 165.996 149.62 Q164.19 153.161 164.19 160.291 Q164.19 167.397 165.996 170.962 Q167.825 174.504 171.436 174.504 Q175.07 174.504 176.876 170.962 Q178.704 167.397 178.704 160.291 Q178.704 153.161 176.876 149.62 Q175.07 146.055 171.436 146.055 M171.436 142.351 Q177.246 142.351 180.301 146.958 Q183.38 151.541 183.38 160.291 Q183.38 169.018 180.301 173.624 Q177.246 178.208 171.436 178.208 Q165.626 178.208 162.547 173.624 Q159.491 169.018 159.491 160.291 Q159.491 151.541 162.547 146.958 Q165.626 142.351 171.436 142.351 Z" fill="#000000" fill-rule="evenodd" fill-opacity="1" /><path clip-path="url(#clip660)" d="M201.598 146.055 Q197.987 146.055 196.158 149.62 Q194.352 153.161 194.352 160.291 Q194.352 167.397 196.158 170.962 Q197.987 174.504 201.598 174.504 Q205.232 174.504 207.037 170.962 Q208.866 167.397 208.866 160.291 Q208.866 153.161 207.037 149.62 Q205.232 146.055 201.598 146.055 M201.598 142.351 Q207.408 142.351 210.463 146.958 Q213.542 151.541 213.542 160.291 Q213.542 169.018 210.463 173.624 Q207.408 178.208 201.598 178.208 Q195.787 178.208 192.709 173.624 Q189.653 169.018 189.653 160.291 Q189.653 151.541 192.709 146.958 Q195.787 142.351 201.598 142.351 Z" fill="#000000" fill-rule="evenodd" fill-opacity="1" /><path clip-path="url(#clip660)" d="M29.7248 802.083 L35.1993 802.083 Q33.8307 804.566 33.1623 807.08 Q32.4621 809.563 32.4621 812.109 Q32.4621 817.806 36.0905 820.957 Q39.6872 824.108 46.212 824.108 Q52.7369 824.108 56.3653 820.957 Q59.9619 817.806 59.9619 812.109 Q59.9619 809.563 59.2935 807.08 Q58.5933 804.566 57.2247 802.083 L62.6355 802.083 Q63.7814 804.534 64.3543 807.176 Q64.9272 809.786 64.9272 812.746 Q64.9272 820.798 59.8664 825.541 Q54.8057 830.283 46.212 830.283 Q37.491 830.283 32.4939 825.509 Q27.4968 820.703 27.4968 812.364 Q27.4968 809.658 28.0697 807.08 Q28.6108 804.502 29.7248 802.083 Z" fill="#000000" fill-rule="evenodd" fill-opacity="1" /><path clip-path="url(#clip660)" d="M16.4842 781.49 L16.4842 776.079 L70.0516 792.63 L70.0516 798.041 L16.4842 781.49 Z" fill="#000000" fill-rule="evenodd" fill-opacity="1" /><path clip-path="url(#clip660)" d="M29.7248 744.282 L35.1993 744.282 Q33.8307 746.765 33.1623 749.28 Q32.4621 751.762 32.4621 754.308 Q32.4621 760.006 36.0905 763.157 Q39.6872 766.308 46.212 766.308 Q52.7369 766.308 56.3653 763.157 Q59.9619 760.006 59.9619 754.308 Q59.9619 751.762 59.2935 749.28 Q58.5933 746.765 57.2247 744.282 L62.6355 744.282 Q63.7814 746.733 64.3543 749.375 Q64.9272 751.985 64.9272 754.945 Q64.9272 762.998 59.8664 767.74 Q54.8057 772.483 46.212 772.483 Q37.491 772.483 32.4939 767.708 Q27.4968 762.902 27.4968 754.563 Q27.4968 751.858 28.0697 749.28 Q28.6108 746.701 29.7248 744.282 Z" fill="#000000" fill-rule="evenodd" fill-opacity="1" /><path clip-path="url(#clip660)" d="M42.4562 722.098 Q39.719 723.689 39.719 726.904 Q39.719 730.119 42.4562 731.71 Q45.1935 733.333 50.668 733.333 Q56.1743 733.333 58.9116 731.71 Q61.6488 730.119 61.6488 726.904 Q61.6488 723.689 58.9116 722.098 Q56.1743 720.475 50.668 720.475 Q45.1935 720.475 42.4562 722.098 M36.8862 726.904 Q36.8862 721.78 40.4192 719.074 Q43.9522 716.369 50.668 716.369 Q57.4157 716.369 60.9486 719.074 Q64.4816 721.78 64.4816 726.904 Q64.4816 732.06 60.9486 734.766 Q57.4157 737.471 50.668 737.471 Q43.9522 737.471 40.4192 734.766 Q36.8862 732.06 36.8862 726.904 Z" fill="#000000" fill-rule="evenodd" fill-opacity="1" /><path clip-path="url(#clip660)" d="M897.051 16.7545 L897.051 25.383 Q892.919 21.5346 888.22 19.6307 Q883.562 17.7268 878.295 17.7268 Q867.925 17.7268 862.416 24.0867 Q856.907 30.4061 856.907 42.3968 Q856.907 54.3469 862.416 60.7069 Q867.925 67.0263 878.295 67.0263 Q883.562 67.0263 888.22 65.1223 Q892.919 63.2184 897.051 59.3701 L897.051 67.9175 Q892.757 70.8341 887.936 72.2924 Q883.156 73.7508 877.809 73.7508 Q864.077 73.7508 856.177 65.3654 Q848.278 56.9395 848.278 42.3968 Q848.278 27.8135 856.177 19.4281 Q864.077 11.0023 877.809 11.0023 Q883.237 11.0023 888.018 12.4606 Q892.838 13.8784 897.051 16.7545 Z" fill="#000000" fill-rule="evenodd" fill-opacity="1" /><path clip-path="url(#clip660)" d="M926.947 32.4315 Q920.951 32.4315 917.468 37.1306 Q913.984 41.7891 913.984 49.9314 Q913.984 58.0738 917.427 62.7728 Q920.911 67.4314 926.947 67.4314 Q932.902 67.4314 936.385 62.7323 Q939.869 58.0333 939.869 49.9314 Q939.869 41.8701 936.385 37.1711 Q932.902 32.4315 926.947 32.4315 M926.947 26.1121 Q936.669 26.1121 942.219 32.4315 Q947.768 38.7509 947.768 49.9314 Q947.768 61.0714 942.219 67.4314 Q936.669 73.7508 926.947 73.7508 Q917.184 73.7508 911.634 67.4314 Q906.125 61.0714 906.125 49.9314 Q906.125 38.7509 911.634 32.4315 Q917.184 26.1121 926.947 26.1121 Z" fill="#000000" fill-rule="evenodd" fill-opacity="1" /><path clip-path="url(#clip660)" d="M997.838 45.1919 L997.838 72.576 L990.384 72.576 L990.384 45.4349 Q990.384 38.994 987.872 35.7938 Q985.361 32.5936 980.338 32.5936 Q974.302 32.5936 970.818 36.4419 Q967.334 40.2903 967.334 46.9338 L967.334 72.576 L959.84 72.576 L959.84 27.2059 L967.334 27.2059 L967.334 34.2544 Q970.008 30.163 973.613 28.1376 Q977.259 26.1121 981.998 26.1121 Q989.817 26.1121 993.827 30.9732 Q997.838 35.7938 997.838 45.1919 Z" fill="#000000" fill-rule="evenodd" fill-opacity="1" /><path clip-path="url(#clip660)" d="M1045.35 28.9478 L1045.35 35.9153 Q1042.19 34.1734 1038.99 33.3227 Q1035.83 32.4315 1032.59 32.4315 Q1025.34 32.4315 1021.33 37.0496 Q1017.32 41.6271 1017.32 49.9314 Q1017.32 58.2358 1021.33 62.8538 Q1025.34 67.4314 1032.59 67.4314 Q1035.83 67.4314 1038.99 66.5807 Q1042.19 65.6895 1045.35 63.9476 L1045.35 70.8341 Q1042.24 72.2924 1038.87 73.0216 Q1035.55 73.7508 1031.78 73.7508 Q1021.54 73.7508 1015.5 67.3098 Q1009.46 60.8689 1009.46 49.9314 Q1009.46 38.832 1015.54 32.472 Q1021.66 26.1121 1032.27 26.1121 Q1035.71 26.1121 1038.99 26.8413 Q1042.28 27.5299 1045.35 28.9478 Z" fill="#000000" fill-rule="evenodd" fill-opacity="1" /><path clip-path="url(#clip660)" d="M1097.13 48.0275 L1097.13 51.6733 L1062.85 51.6733 Q1063.34 59.3701 1067.47 63.421 Q1071.64 67.4314 1079.06 67.4314 Q1083.35 67.4314 1087.36 66.3781 Q1091.41 65.3249 1095.38 63.2184 L1095.38 70.267 Q1091.37 71.9684 1087.16 72.8596 Q1082.95 73.7508 1078.61 73.7508 Q1067.76 73.7508 1061.4 67.4314 Q1055.08 61.1119 1055.08 50.3365 Q1055.08 39.1965 1061.07 32.6746 Q1067.11 26.1121 1077.32 26.1121 Q1086.47 26.1121 1091.78 32.0264 Q1097.13 37.9003 1097.13 48.0275 M1089.67 45.84 Q1089.59 39.7232 1086.23 36.0774 Q1082.91 32.4315 1077.4 32.4315 Q1071.16 32.4315 1067.39 35.9558 Q1063.66 39.4801 1063.1 45.8805 L1089.67 45.84 Z" fill="#000000" fill-rule="evenodd" fill-opacity="1" /><path clip-path="url(#clip660)" d="M1147.07 45.1919 L1147.07 72.576 L1139.62 72.576 L1139.62 45.4349 Q1139.62 38.994 1137.11 35.7938 Q1134.6 32.5936 1129.57 32.5936 Q1123.54 32.5936 1120.05 36.4419 Q1116.57 40.2903 1116.57 46.9338 L1116.57 72.576 L1109.08 72.576 L1109.08 27.2059 L1116.57 27.2059 L1116.57 34.2544 Q1119.24 30.163 1122.85 28.1376 Q1126.49 26.1121 1131.23 26.1121 Q1139.05 26.1121 1143.06 30.9732 Q1147.07 35.7938 1147.07 45.1919 Z" fill="#000000" fill-rule="evenodd" fill-opacity="1" /><path clip-path="url(#clip660)" d="M1169.31 14.324 L1169.31 27.2059 L1184.67 27.2059 L1184.67 32.9987 L1169.31 32.9987 L1169.31 57.6282 Q1169.31 63.1779 1170.81 64.7578 Q1172.35 66.3376 1177.01 66.3376 L1184.67 66.3376 L1184.67 72.576 L1177.01 72.576 Q1168.38 72.576 1165.1 69.3758 Q1161.82 66.1351 1161.82 57.6282 L1161.82 32.9987 L1156.35 32.9987 L1156.35 27.2059 L1161.82 27.2059 L1161.82 14.324 L1169.31 14.324 Z" fill="#000000" fill-rule="evenodd" fill-opacity="1" /><path clip-path="url(#clip660)" d="M1220.76 34.1734 Q1219.5 33.4443 1218 33.1202 Q1216.55 32.7556 1214.76 32.7556 Q1208.44 32.7556 1205.04 36.8875 Q1201.68 40.9789 1201.68 48.6757 L1201.68 72.576 L1194.18 72.576 L1194.18 27.2059 L1201.68 27.2059 L1201.68 34.2544 Q1204.03 30.1225 1207.8 28.1376 Q1211.56 26.1121 1216.95 26.1121 Q1217.72 26.1121 1218.65 26.2337 Q1219.58 26.3147 1220.72 26.5172 L1220.76 34.1734 Z" fill="#000000" fill-rule="evenodd" fill-opacity="1" /><path clip-path="url(#clip660)" d="M1249.2 49.7694 Q1240.16 49.7694 1236.68 51.8354 Q1233.2 53.9013 1233.2 58.8839 Q1233.2 62.8538 1235.79 65.2034 Q1238.42 67.5124 1242.92 67.5124 Q1249.12 67.5124 1252.84 63.1374 Q1256.61 58.7219 1256.61 51.4303 L1256.61 49.7694 L1249.2 49.7694 M1264.06 46.6907 L1264.06 72.576 L1256.61 72.576 L1256.61 65.6895 Q1254.06 69.8214 1250.25 71.8063 Q1246.44 73.7508 1240.93 73.7508 Q1233.96 73.7508 1229.83 69.8619 Q1225.74 65.9325 1225.74 59.3701 Q1225.74 51.7138 1230.85 47.825 Q1235.99 43.9361 1246.16 43.9361 L1256.61 43.9361 L1256.61 43.2069 Q1256.61 38.0623 1253.21 35.2672 Q1249.84 32.4315 1243.73 32.4315 Q1239.84 32.4315 1236.15 33.3632 Q1232.47 34.295 1229.06 36.1584 L1229.06 29.2718 Q1233.15 27.692 1237 26.9223 Q1240.85 26.1121 1244.5 26.1121 Q1254.34 26.1121 1259.2 31.2163 Q1264.06 36.3204 1264.06 46.6907 Z" fill="#000000" fill-rule="evenodd" fill-opacity="1" /><path clip-path="url(#clip660)" d="M1286.79 14.324 L1286.79 27.2059 L1302.14 27.2059 L1302.14 32.9987 L1286.79 32.9987 L1286.79 57.6282 Q1286.79 63.1779 1288.29 64.7578 Q1289.83 66.3376 1294.49 66.3376 L1302.14 66.3376 L1302.14 72.576 L1294.49 72.576 Q1285.86 72.576 1282.58 69.3758 Q1279.29 66.1351 1279.29 57.6282 L1279.29 32.9987 L1273.83 32.9987 L1273.83 27.2059 L1279.29 27.2059 L1279.29 14.324 L1286.79 14.324 Z" fill="#000000" fill-rule="evenodd" fill-opacity="1" /><path clip-path="url(#clip660)" d="M1311.94 27.2059 L1319.4 27.2059 L1319.4 72.576 L1311.94 72.576 L1311.94 27.2059 M1311.94 9.54393 L1319.4 9.54393 L1319.4 18.9825 L1311.94 18.9825 L1311.94 9.54393 Z" fill="#000000" fill-rule="evenodd" fill-opacity="1" /><path clip-path="url(#clip660)" d="M1352.58 32.4315 Q1346.58 32.4315 1343.1 37.1306 Q1339.61 41.7891 1339.61 49.9314 Q1339.61 58.0738 1343.06 62.7728 Q1346.54 67.4314 1352.58 67.4314 Q1358.53 67.4314 1362.01 62.7323 Q1365.5 58.0333 1365.5 49.9314 Q1365.5 41.8701 1362.01 37.1711 Q1358.53 32.4315 1352.58 32.4315 M1352.58 26.1121 Q1362.3 26.1121 1367.85 32.4315 Q1373.4 38.7509 1373.4 49.9314 Q1373.4 61.0714 1367.85 67.4314 Q1362.3 73.7508 1352.58 73.7508 Q1342.81 73.7508 1337.26 67.4314 Q1331.75 61.0714 1331.75 49.9314 Q1331.75 38.7509 1337.26 32.4315 Q1342.81 26.1121 1352.58 26.1121 Z" fill="#000000" fill-rule="evenodd" fill-opacity="1" /><path clip-path="url(#clip660)" d="M1423.47 45.1919 L1423.47 72.576 L1416.01 72.576 L1416.01 45.4349 Q1416.01 38.994 1413.5 35.7938 Q1410.99 32.5936 1405.97 32.5936 Q1399.93 32.5936 1396.45 36.4419 Q1392.96 40.2903 1392.96 46.9338 L1392.96 72.576 L1385.47 72.576 L1385.47 27.2059 L1392.96 27.2059 L1392.96 34.2544 Q1395.64 30.163 1399.24 28.1376 Q1402.89 26.1121 1407.63 26.1121 Q1415.45 26.1121 1419.46 30.9732 Q1423.47 35.7938 1423.47 45.1919 Z" fill="#000000" fill-rule="evenodd" fill-opacity="1" /><path clip-path="url(#clip660)" d="M1473.21 18.8205 L1473.21 41.5461 L1483.5 41.5461 Q1489.21 41.5461 1492.33 38.5889 Q1495.45 35.6318 1495.45 30.163 Q1495.45 24.7348 1492.33 21.7777 Q1489.21 18.8205 1483.5 18.8205 L1473.21 18.8205 M1465.03 12.096 L1483.5 12.096 Q1493.67 12.096 1498.85 16.714 Q1504.08 21.2916 1504.08 30.163 Q1504.08 39.1155 1498.85 43.6931 Q1493.67 48.2706 1483.5 48.2706 L1473.21 48.2706 L1473.21 72.576 L1465.03 72.576 L1465.03 12.096 Z" fill="#000000" fill-rule="evenodd" fill-opacity="1" /><path clip-path="url(#clip660)" d="M1539.56 34.1734 Q1538.31 33.4443 1536.81 33.1202 Q1535.35 32.7556 1533.57 32.7556 Q1527.25 32.7556 1523.85 36.8875 Q1520.49 40.9789 1520.49 48.6757 L1520.49 72.576 L1512.99 72.576 L1512.99 27.2059 L1520.49 27.2059 L1520.49 34.2544 Q1522.83 30.1225 1526.6 28.1376 Q1530.37 26.1121 1535.76 26.1121 Q1536.53 26.1121 1537.46 26.2337 Q1538.39 26.3147 1539.52 26.5172 L1539.56 34.1734 Z" fill="#000000" fill-rule="evenodd" fill-opacity="1" /><path clip-path="url(#clip660)" d="M1563.14 32.4315 Q1557.15 32.4315 1553.66 37.1306 Q1550.18 41.7891 1550.18 49.9314 Q1550.18 58.0738 1553.62 62.7728 Q1557.11 67.4314 1563.14 67.4314 Q1569.1 67.4314 1572.58 62.7323 Q1576.06 58.0333 1576.06 49.9314 Q1576.06 41.8701 1572.58 37.1711 Q1569.1 32.4315 1563.14 32.4315 M1563.14 26.1121 Q1572.86 26.1121 1578.41 32.4315 Q1583.96 38.7509 1583.96 49.9314 Q1583.96 61.0714 1578.41 67.4314 Q1572.86 73.7508 1563.14 73.7508 Q1553.38 73.7508 1547.83 67.4314 Q1542.32 61.0714 1542.32 49.9314 Q1542.32 38.7509 1547.83 32.4315 Q1553.38 26.1121 1563.14 26.1121 Z" fill="#000000" fill-rule="evenodd" fill-opacity="1" /><path clip-path="url(#clip660)" d="M1619.29 9.54393 L1619.29 15.7418 L1612.16 15.7418 Q1608.15 15.7418 1606.57 17.3622 Q1605.03 18.9825 1605.03 23.1955 L1605.03 27.2059 L1617.3 27.2059 L1617.3 32.9987 L1605.03 32.9987 L1605.03 72.576 L1597.53 72.576 L1597.53 32.9987 L1590.4 32.9987 L1590.4 27.2059 L1597.53 27.2059 L1597.53 24.0462 Q1597.53 16.471 1601.06 13.0277 Q1604.58 9.54393 1612.24 9.54393 L1619.29 9.54393 Z" fill="#000000" fill-rule="evenodd" fill-opacity="1" /><path clip-path="url(#clip660)" d="M1625.53 27.2059 L1632.98 27.2059 L1632.98 72.576 L1625.53 72.576 L1625.53 27.2059 M1625.53 9.54393 L1632.98 9.54393 L1632.98 18.9825 L1625.53 18.9825 L1625.53 9.54393 Z" fill="#000000" fill-rule="evenodd" fill-opacity="1" /><path clip-path="url(#clip660)" d="M1648.57 9.54393 L1656.03 9.54393 L1656.03 72.576 L1648.57 72.576 L1648.57 9.54393 Z" fill="#000000" fill-rule="evenodd" fill-opacity="1" /><path clip-path="url(#clip660)" d="M1710.43 48.0275 L1710.43 51.6733 L1676.16 51.6733 Q1676.65 59.3701 1680.78 63.421 Q1684.95 67.4314 1692.37 67.4314 Q1696.66 67.4314 1700.67 66.3781 Q1704.72 65.3249 1708.69 63.2184 L1708.69 70.267 Q1704.68 71.9684 1700.47 72.8596 Q1696.25 73.7508 1691.92 73.7508 Q1681.06 73.7508 1674.7 67.4314 Q1668.38 61.1119 1668.38 50.3365 Q1668.38 39.1965 1674.38 32.6746 Q1680.41 26.1121 1690.62 26.1121 Q1699.78 26.1121 1705.08 32.0264 Q1710.43 37.9003 1710.43 48.0275 M1702.98 45.84 Q1702.9 39.7232 1699.54 36.0774 Q1696.21 32.4315 1690.7 32.4315 Q1684.47 32.4315 1680.7 35.9558 Q1676.97 39.4801 1676.4 45.8805 L1702.98 45.84 Z" fill="#000000" fill-rule="evenodd" fill-opacity="1" /><path clip-path="url(#clip660)" d="M1751.59 28.5427 L1751.59 35.5912 Q1748.43 33.9709 1745.03 33.1607 Q1741.62 32.3505 1737.98 32.3505 Q1732.43 32.3505 1729.63 34.0519 Q1726.88 35.7533 1726.88 39.156 Q1726.88 41.7486 1728.86 43.2475 Q1730.85 44.7058 1736.84 46.0426 L1739.4 46.6097 Q1747.34 48.3111 1750.66 51.4303 Q1754.02 54.509 1754.02 60.0587 Q1754.02 66.3781 1749 70.0644 Q1744.01 73.7508 1735.26 73.7508 Q1731.62 73.7508 1727.65 73.0216 Q1723.72 72.3329 1719.34 70.9151 L1719.34 63.2184 Q1723.48 65.3654 1727.49 66.4591 Q1731.5 67.5124 1735.43 67.5124 Q1740.69 67.5124 1743.53 65.73 Q1746.36 63.9071 1746.36 60.6258 Q1746.36 57.5877 1744.3 55.9673 Q1742.27 54.3469 1735.35 52.8481 L1732.75 52.2405 Q1725.83 50.7821 1722.75 47.7845 Q1719.67 44.7463 1719.67 39.4801 Q1719.67 33.0797 1724.21 29.5959 Q1728.74 26.1121 1737.09 26.1121 Q1741.22 26.1121 1744.86 26.7198 Q1748.51 27.3274 1751.59 28.5427 Z" fill="#000000" fill-rule="evenodd" fill-opacity="1" /><path clip-path="url(#clip662)" d="
M309.067 548.687 L314.736 548.738 L320.405 548.891 L326.074 549.146 L331.743 549.503 L337.412 549.962 L343.081 550.522 L348.75 551.183 L354.419 551.946 L360.088 552.809 
  L365.757 553.773 L371.426 554.838 L377.095 556.001 L382.764 557.265 L388.434 558.627 L394.103 560.088 L399.772 561.646 L405.441 563.302 L411.11 565.055 L416.779 566.903 
  L422.448 568.847 L428.117 570.886 L433.786 573.019 L439.455 575.245 L445.124 577.564 L450.793 579.974 L456.462 582.475 L462.131 585.065 L467.8 587.745 L473.469 590.513 
  L479.138 593.367 L484.807 596.308 L490.476 599.333 L496.145 602.443 L501.814 605.635 L507.483 608.91 L513.152 612.264 L518.821 615.698 L524.49 619.211 L530.16 622.8 
  L535.829 626.465 L541.498 630.205 L547.167 634.018 L552.836 637.903 L558.505 641.858 L564.174 645.883 L569.843 649.976 L575.512 654.135 L581.181 658.36 L586.85 662.648 
  L592.519 666.999 L598.188 671.411 L603.857 675.882 L609.526 680.412 L615.195 684.998 L620.864 689.639 L626.533 694.333 L632.202 699.08 L637.871 703.878 L643.54 708.724 
  L649.209 713.618 L654.878 718.558 L660.547 723.543 L666.216 728.571 L671.886 733.64 L677.555 738.748 L683.224 743.896 L688.893 749.08 L694.562 754.299 L700.231 759.552 
  L705.9 764.837 L711.569 770.152 L717.238 775.497 L722.907 780.869 L728.576 786.267 L734.245 791.689 L739.914 797.134 L745.583 802.6 L751.252 808.087 L756.921 813.591 
  L762.59 819.112 L768.259 824.649 L773.928 830.199 L779.597 835.762 L785.266 841.335 L790.935 846.918 L796.604 852.509 L802.273 858.106 L807.942 863.708 L813.612 869.314 
  L819.281 874.922 L824.95 880.531 L830.619 886.14 L836.288 891.747 L841.957 897.35 L847.626 902.949 L853.295 908.542 L858.964 914.129 L864.633 919.706 L870.302 925.275 
  L875.971 930.832 L881.64 936.377 L887.309 941.909 L892.978 947.427 L898.647 952.929 L904.316 958.414 L909.985 963.881 L915.654 969.33 L921.323 974.758 L926.992 980.166 
  L932.661 985.551 L938.33 990.913 L943.999 996.251 L949.668 1001.56 L955.338 1006.85 L961.007 1012.11 L966.676 1017.34 L972.345 1022.55 L978.014 1027.72 L983.683 1032.87 
  L989.352 1037.98 L995.021 1043.06 L1000.69 1048.11 L1006.36 1053.12 L1012.03 1058.1 L1017.7 1063.05 L1023.37 1067.96 L1029.04 1072.83 L1034.7 1077.67 L1040.37 1082.46 
  L1046.04 1087.23 L1051.71 1091.95 L1057.38 1096.63 L1063.05 1101.28 L1068.72 1105.88 L1074.39 1110.44 L1080.06 1114.97 L1085.73 1119.45 L1091.39 1123.88 L1097.06 1128.28 
  L1102.73 1132.64 L1108.4 1136.95 L1114.07 1141.22 L1119.74 1145.44 L1125.41 1149.62 L1131.08 1153.76 L1136.75 1157.85 L1142.42 1161.9 L1148.08 1165.9 L1153.75 1169.86 
  L1159.42 1173.77 L1165.09 1177.64 L1170.76 1181.47 L1176.43 1185.24 L1182.1 1188.98 L1187.77 1192.66 L1193.44 1196.31 L1199.11 1199.9 L1204.78 1203.45 L1210.44 1206.96 
  L1216.11 1210.42 L1221.78 1213.83 L1227.45 1217.2 L1233.12 1220.52 L1238.79 1223.8 L1244.46 1227.04 L1250.13 1230.22 L1255.8 1233.37 L1261.47 1236.47 L1267.13 1239.52 
  L1272.8 1242.53 L1278.47 1245.49 L1284.14 1248.41 L1289.81 1251.29 L1295.48 1254.13 L1301.15 1256.92 L1306.82 1259.66 L1312.49 1262.37 L1318.16 1265.03 L1323.83 1267.65 
  L1329.49 1270.22 L1335.16 1272.76 L1340.83 1275.25 L1346.5 1277.71 L1352.17 1280.12 L1357.84 1282.49 L1363.51 1284.82 L1369.18 1287.11 L1374.85 1289.36 L1380.52 1291.57 
  L1386.18 1293.75 L1391.85 1295.88 L1397.52 1297.98 L1403.19 1300.04 L1408.86 1302.06 L1414.53 1304.04 L1420.2 1305.99 L1425.87 1307.9 L1431.54 1309.78 L1437.21 1311.62 
  L1442.87 1313.43 L1448.54 1315.2 L1454.21 1316.93 L1459.88 1318.64 L1465.55 1320.31 L1471.22 1321.94 L1476.89 1323.55 L1482.56 1325.12 L1488.23 1326.66 L1493.9 1328.17 
  L1499.57 1329.65 L1505.23 1331.1 L1510.9 1332.51 L1516.57 1333.9 L1522.24 1335.26 L1527.91 1336.59 L1533.58 1337.89 L1539.25 1339.17 L1544.92 1340.42 L1550.59 1341.63 
  L1556.26 1342.83 L1561.92 1343.99 L1567.59 1345.14 L1573.26 1346.25 L1578.93 1347.34 L1584.6 1348.41 L1590.27 1349.45 L1595.94 1350.47 L1601.61 1351.46 L1607.28 1352.43 
  L1612.95 1353.38 L1618.62 1354.31 L1624.28 1355.21 L1629.95 1356.1 L1635.62 1356.96 L1641.29 1357.8 L1646.96 1358.62 L1652.63 1359.43 L1658.3 1360.21 L1663.97 1360.97 
  L1669.64 1361.72 L1675.31 1362.44 L1680.97 1363.15 L1686.64 1363.84 L1692.31 1364.51 L1697.98 1365.17 L1703.65 1365.81 L1709.32 1366.43 L1714.99 1367.04 L1720.66 1367.63 
  L1726.33 1368.21 L1732 1368.77 L1737.67 1369.31 L1743.33 1369.84 L1749 1370.36 L1754.67 1370.87 L1760.34 1371.36 L1766.01 1371.83 L1771.68 1372.3 L1777.35 1372.75 
  L1783.02 1373.19 L1788.69 1373.62 L1794.36 1374.03 L1800.02 1374.44 L1805.69 1374.83 L1811.36 1375.21 L1817.03 1375.58 L1822.7 1375.94 L1828.37 1376.29 L1834.04 1376.63 
  L1839.71 1376.96 L1845.38 1377.28 L1851.05 1377.6 L1856.71 1377.9 L1862.38 1378.19 L1868.05 1378.48 L1873.72 1378.76 L1879.39 1379.03 L1885.06 1379.29 L1890.73 1379.54 
  L1896.4 1379.78 L1902.07 1380.02 L1907.74 1380.25 L1913.41 1380.48 L1919.07 1380.7 L1924.74 1380.91 L1930.41 1381.11 L1936.08 1381.31 L1941.75 1381.5 L1947.42 1381.68 
  L1953.09 1381.86 L1958.76 1382.04 L1964.43 1382.21 L1970.1 1382.37 L1975.76 1382.53 L1981.43 1382.68 L1987.1 1382.83 L1992.77 1382.97 L1998.44 1383.11 L2004.11 1383.25 
  L2009.78 1383.38 L2015.45 1383.5 L2021.12 1383.63 L2026.79 1383.74 L2032.46 1383.86 L2038.12 1383.97 L2043.79 1384.07 L2049.46 1384.18 L2055.13 1384.28 L2060.8 1384.37 
  L2066.47 1384.46 L2072.14 1384.55 L2077.81 1384.64 L2083.48 1384.72 L2089.15 1384.8 L2094.81 1384.88 L2100.48 1384.96 L2106.15 1385.03 L2111.82 1385.1 L2117.49 1385.17 
  L2123.16 1385.23 L2128.83 1385.3 L2134.5 1385.36 L2140.17 1385.42 L2145.84 1385.47 L2151.5 1385.53 L2157.17 1385.58 L2162.84 1385.63 L2168.51 1385.68 L2174.18 1385.73 
  L2179.85 1385.77 L2185.52 1385.82 L2191.19 1385.86 L2196.86 1385.9 L2202.53 1385.94 L2208.2 1385.97 L2213.86 1386.01 L2219.53 1386.05 L2225.2 1386.08 L2230.87 1386.11 
  L2236.54 1386.14 L2242.21 1386.17 L2247.88 1386.2 L2253.55 1386.23 L2259.22 1386.26 L2264.89 1386.28 L2270.55 1386.31 L2276.22 1386.33 L2281.89 1386.35 L2287.56 1386.37 
  L2293.23 1386.4 L2293.23 1285.31 L2287.56 1283.86 L2281.89 1282.4 L2276.22 1280.93 L2270.55 1279.43 L2264.89 1277.92 L2259.22 1276.4 L2253.55 1274.85 L2247.88 1273.29 
  L2242.21 1271.71 L2236.54 1270.12 L2230.87 1268.51 L2225.2 1266.88 L2219.53 1265.23 L2213.86 1263.56 L2208.2 1261.88 L2202.53 1260.18 L2196.86 1258.46 L2191.19 1256.72 
  L2185.52 1254.97 L2179.85 1253.2 L2174.18 1251.41 L2168.51 1249.6 L2162.84 1247.77 L2157.17 1245.92 L2151.5 1244.05 L2145.84 1242.17 L2140.17 1240.27 L2134.5 1238.34 
  L2128.83 1236.4 L2123.16 1234.44 L2117.49 1232.46 L2111.82 1230.46 L2106.15 1228.44 L2100.48 1226.4 L2094.81 1224.34 L2089.15 1222.26 L2083.48 1220.17 L2077.81 1218.05 
  L2072.14 1215.91 L2066.47 1213.75 L2060.8 1211.57 L2055.13 1209.38 L2049.46 1207.16 L2043.79 1204.92 L2038.12 1202.66 L2032.46 1200.38 L2026.79 1198.08 L2021.12 1195.76 
  L2015.45 1193.41 L2009.78 1191.05 L2004.11 1188.67 L1998.44 1186.26 L1992.77 1183.84 L1987.1 1181.39 L1981.43 1178.92 L1975.76 1176.43 L1970.1 1173.92 L1964.43 1171.39 
  L1958.76 1168.84 L1953.09 1166.26 L1947.42 1163.67 L1941.75 1161.05 L1936.08 1158.41 L1930.41 1155.75 L1924.74 1153.07 L1919.07 1150.37 L1913.41 1147.65 L1907.74 1144.9 
  L1902.07 1142.13 L1896.4 1139.34 L1890.73 1136.53 L1885.06 1133.7 L1879.39 1130.84 L1873.72 1127.97 L1868.05 1125.07 L1862.38 1122.15 L1856.71 1119.21 L1851.05 1116.25 
  L1845.38 1113.26 L1839.71 1110.26 L1834.04 1107.23 L1828.37 1104.18 L1822.7 1101.11 L1817.03 1098.01 L1811.36 1094.9 L1805.69 1091.76 L1800.02 1088.6 L1794.36 1085.42 
  L1788.69 1082.22 L1783.02 1079 L1777.35 1075.75 L1771.68 1072.49 L1766.01 1069.2 L1760.34 1065.89 L1754.67 1062.56 L1749 1059.21 L1743.33 1055.83 L1737.67 1052.44 
  L1732 1049.03 L1726.33 1045.59 L1720.66 1042.13 L1714.99 1038.65 L1709.32 1035.15 L1703.65 1031.63 L1697.98 1028.09 L1692.31 1024.53 L1686.64 1020.95 L1680.97 1017.35 
  L1675.31 1013.72 L1669.64 1010.08 L1663.97 1006.42 L1658.3 1002.73 L1652.63 999.029 L1646.96 995.306 L1641.29 991.563 L1635.62 987.8 L1629.95 984.017 L1624.28 980.216 
  L1618.62 976.394 L1612.95 972.554 L1607.28 968.695 L1601.61 964.817 L1595.94 960.92 L1590.27 957.004 L1584.6 953.07 L1578.93 949.117 L1573.26 945.147 L1567.59 941.158 
  L1561.92 937.152 L1556.26 933.128 L1550.59 929.086 L1544.92 925.027 L1539.25 920.951 L1533.58 916.858 L1527.91 912.748 L1522.24 908.622 L1516.57 904.479 L1510.9 900.32 
  L1505.23 896.144 L1499.57 891.953 L1493.9 887.747 L1488.23 883.525 L1482.56 879.287 L1476.89 875.035 L1471.22 870.768 L1465.55 866.486 L1459.88 862.19 L1454.21 857.88 
  L1448.54 853.557 L1442.87 849.219 L1437.21 844.868 L1431.54 840.504 L1425.87 836.127 L1420.2 831.738 L1414.53 827.336 L1408.86 822.922 L1403.19 818.496 L1397.52 814.058 
  L1391.85 809.61 L1386.18 805.15 L1380.52 800.679 L1374.85 796.198 L1369.18 791.707 L1363.51 787.205 L1357.84 782.695 L1352.17 778.174 L1346.5 773.645 L1340.83 769.107 
  L1335.16 764.561 L1329.49 760.006 L1323.83 755.444 L1318.16 750.874 L1312.49 746.297 L1306.82 741.713 L1301.15 737.122 L1295.48 732.525 L1289.81 727.923 L1284.14 723.314 
  L1278.47 718.701 L1272.8 714.083 L1267.13 709.46 L1261.47 704.833 L1255.8 700.202 L1250.13 695.567 L1244.46 690.929 L1238.79 686.289 L1233.12 681.646 L1227.45 677.001 
  L1221.78 672.354 L1216.11 667.706 L1210.44 663.057 L1204.78 658.407 L1199.11 653.758 L1193.44 649.108 L1187.77 644.458 L1182.1 639.81 L1176.43 635.163 L1170.76 630.517 
  L1165.09 625.874 L1159.42 621.233 L1153.75 616.594 L1148.08 611.959 L1142.42 607.328 L1136.75 602.7 L1131.08 598.077 L1125.41 593.459 L1119.74 588.846 L1114.07 584.238 
  L1108.4 579.637 L1102.73 575.042 L1097.06 570.454 L1091.39 565.873 L1085.73 561.3 L1080.06 556.734 L1074.39 552.178 L1068.72 547.63 L1063.05 543.091 L1057.38 538.562 
  L1051.71 534.044 L1046.04 529.536 L1040.37 525.038 L1034.7 520.553 L1029.04 516.079 L1023.37 511.617 L1017.7 507.168 L1012.03 502.732 L1006.36 498.31 L1000.69 493.902 
  L995.021 489.508 L989.352 485.129 L983.683 480.765 L978.014 476.416 L972.345 472.084 L966.676 467.769 L961.007 463.47 L955.338 459.189 L949.668 454.925 L943.999 450.68 
  L938.33 446.453 L932.661 442.246 L926.992 438.058 L921.323 433.889 L915.654 429.742 L909.985 425.615 L904.316 421.509 L898.647 417.425 L892.978 413.363 L887.309 409.323 
  L881.64 405.306 L875.971 401.313 L870.302 397.343 L864.633 393.398 L858.964 389.477 L853.295 385.581 L847.626 381.71 L841.957 377.865 L836.288 374.047 L830.619 370.255 
  L824.95 366.49 L819.281 362.752 L813.612 359.043 L807.942 355.361 L802.273 351.708 L796.604 348.085 L790.935 344.49 L785.266 340.926 L779.597 337.391 L773.928 333.888 
  L768.259 330.415 L762.59 326.974 L756.921 323.564 L751.252 320.186 L745.583 316.841 L739.914 313.529 L734.245 310.25 L728.576 307.005 L722.907 303.794 L717.238 300.617 
  L711.569 297.475 L705.9 294.367 L700.231 291.296 L694.562 288.26 L688.893 285.26 L683.224 282.296 L677.555 279.369 L671.886 276.48 L666.216 273.627 L660.547 270.813 
  L654.878 268.037 L649.209 265.299 L643.54 262.599 L637.871 259.939 L632.202 257.318 L626.533 254.737 L620.864 252.196 L615.195 249.695 L609.526 247.234 L603.857 244.814 
  L598.188 242.436 L592.519 240.099 L586.85 237.803 L581.181 235.549 L575.512 233.338 L569.843 231.169 L564.174 229.042 L558.505 226.959 L552.836 224.919 L547.167 222.922 
  L541.498 220.969 L535.829 219.06 L530.16 217.195 L524.49 215.374 L518.821 213.598 L513.152 211.867 L507.483 210.18 L501.814 208.539 L496.145 206.943 L490.476 205.393 
  L484.807 203.888 L479.138 202.43 L473.469 201.017 L467.8 199.651 L462.131 198.332 L456.462 197.058 L450.793 195.832 L445.124 194.653 L439.455 193.52 L433.786 192.435 
  L428.117 191.397 L422.448 190.407 L416.779 189.464 L411.11 188.568 L405.441 187.721 L399.772 186.921 L394.103 186.17 L388.434 185.466 L382.764 184.811 L377.095 184.203 
  L371.426 183.645 L365.757 183.134 L360.088 182.672 L354.419 182.258 L348.75 181.893 L343.081 181.577 L337.412 181.309 L331.743 181.09 L326.074 180.919 L320.405 180.797 
  L314.736 180.724 L309.067 180.7  Z
  " fill="#009af9" fill-rule="evenodd" fill-opacity="0.5"/>
<polyline clip-path="url(#clip662)" style="stroke:#009af9; stroke-linecap:butt; stroke-linejoin:round; stroke-width:4; stroke-opacity:1; fill:none" points="
  309.067,364.694 314.736,364.732 320.405,364.848 326.074,365.041 331.743,365.312 337.412,365.659 343.081,366.084 348.75,366.585 354.419,367.163 360.088,367.818 
  365.757,368.55 371.426,369.358 377.095,370.242 382.764,371.202 388.434,372.238 394.103,373.35 399.772,374.537 405.441,375.799 411.11,377.135 416.779,378.547 
  422.448,380.032 428.117,381.591 433.786,383.224 439.455,384.929 445.124,386.708 450.793,388.558 456.462,390.481 462.131,392.475 467.8,394.54 473.469,396.676 
  479.138,398.882 484.807,401.157 490.476,403.502 496.145,405.915 501.814,408.396 507.483,410.944 513.152,413.56 518.821,416.242 524.49,418.99 530.16,421.802 
  535.829,424.68 541.498,427.621 547.167,430.626 552.836,433.693 558.505,436.823 564.174,440.013 569.843,443.265 575.512,446.576 581.181,449.946 586.85,453.375 
  592.519,456.862 598.188,460.405 603.857,464.005 609.526,467.661 615.195,471.371 620.864,475.135 626.533,478.952 632.202,482.822 637.871,486.743 643.54,490.715 
  649.209,494.737 654.878,498.808 660.547,502.927 666.216,507.094 671.886,511.307 677.555,515.566 683.224,519.869 688.893,524.217 694.562,528.608 700.231,533.04 
  705.9,537.515 711.569,542.029 717.238,546.584 722.907,551.176 728.576,555.807 734.245,560.474 739.914,565.177 745.583,569.916 751.252,574.688 756.921,579.494 
  762.59,584.331 768.259,589.2 773.928,594.1 779.597,599.029 785.266,603.986 790.935,608.971 796.604,613.983 802.273,619.021 807.942,624.083 813.612,629.169 
  819.281,634.278 824.95,639.41 830.619,644.562 836.288,649.735 841.957,654.927 847.626,660.137 853.295,665.365 858.964,670.609 864.633,675.869 870.302,681.144 
  875.971,686.432 881.64,691.733 887.309,697.047 892.978,702.371 898.647,707.706 904.316,713.05 909.985,718.403 915.654,723.763 921.323,729.13 926.992,734.503 
  932.661,739.881 938.33,745.263 943.999,750.649 949.668,756.037 955.338,761.426 961.007,766.817 966.676,772.207 972.345,777.597 978.014,782.985 983.683,788.37 
  989.352,793.753 995.021,799.131 1000.69,804.505 1006.36,809.873 1012.03,815.235 1017.7,820.59 1023.37,825.937 1029.04,831.276 1034.7,836.605 1040.37,841.925 
  1046.04,847.233 1051.71,852.531 1057.38,857.817 1063.05,863.089 1068.72,868.349 1074.39,873.595 1080.06,878.825 1085.73,884.041 1091.39,889.241 1097.06,894.424 
  1102.73,899.59 1108.4,904.738 1114.07,909.868 1119.74,914.979 1125.41,920.07 1131.08,925.142 1136.75,930.193 1142.42,935.223 1148.08,940.231 1153.75,945.217 
  1159.42,950.18 1165.09,955.12 1170.76,960.037 1176.43,964.93 1182.1,969.798 1187.77,974.641 1193.44,979.458 1199.11,984.25 1204.78,989.015 1210.44,993.754 
  1216.11,998.466 1221.78,1003.15 1227.45,1007.81 1233.12,1012.43 1238.79,1017.03 1244.46,1021.6 1250.13,1026.15 1255.8,1030.66 1261.47,1035.14 1267.13,1039.59 
  1272.8,1044.01 1278.47,1048.4 1284.14,1052.76 1289.81,1057.09 1295.48,1061.39 1301.15,1065.66 1306.82,1069.89 1312.49,1074.09 1318.16,1078.26 1323.83,1082.4 
  1329.49,1086.5 1335.16,1090.57 1340.83,1094.61 1346.5,1098.61 1352.17,1102.58 1357.84,1106.52 1363.51,1110.43 1369.18,1114.3 1374.85,1118.13 1380.52,1121.94 
  1386.18,1125.7 1391.85,1129.44 1397.52,1133.14 1403.19,1136.8 1408.86,1140.44 1414.53,1144.03 1420.2,1147.6 1425.87,1151.12 1431.54,1154.62 1437.21,1158.08 
  1442.87,1161.5 1448.54,1164.89 1454.21,1168.25 1459.88,1171.57 1465.55,1174.86 1471.22,1178.11 1476.89,1181.33 1482.56,1184.51 1488.23,1187.66 1493.9,1190.78 
  1499.57,1193.86 1505.23,1196.9 1510.9,1199.92 1516.57,1202.9 1522.24,1205.84 1527.91,1208.75 1533.58,1211.63 1539.25,1214.48 1544.92,1217.29 1550.59,1220.07 
  1556.26,1222.81 1561.92,1225.52 1567.59,1228.2 1573.26,1230.85 1578.93,1233.46 1584.6,1236.05 1590.27,1238.6 1595.94,1241.11 1601.61,1243.6 1607.28,1246.05 
  1612.95,1248.47 1618.62,1250.87 1624.28,1253.22 1629.95,1255.55 1635.62,1257.85 1641.29,1260.12 1646.96,1262.36 1652.63,1264.56 1658.3,1266.74 1663.97,1268.88 
  1669.64,1271 1675.31,1273.09 1680.97,1275.15 1686.64,1277.18 1692.31,1279.18 1697.98,1281.15 1703.65,1283.1 1709.32,1285.01 1714.99,1286.9 1720.66,1288.76 
  1726.33,1290.59 1732,1292.4 1737.67,1294.18 1743.33,1295.93 1749,1297.66 1754.67,1299.36 1760.34,1301.03 1766.01,1302.68 1771.68,1304.3 1777.35,1305.9 
  1783.02,1307.48 1788.69,1309.02 1794.36,1310.55 1800.02,1312.05 1805.69,1313.52 1811.36,1314.98 1817.03,1316.4 1822.7,1317.81 1828.37,1319.19 1834.04,1320.55 
  1839.71,1321.89 1845.38,1323.21 1851.05,1324.5 1856.71,1325.77 1862.38,1327.02 1868.05,1328.25 1873.72,1329.46 1879.39,1330.65 1885.06,1331.81 1890.73,1332.96 
  1896.4,1334.09 1902.07,1335.2 1907.74,1336.28 1913.41,1337.35 1919.07,1338.4 1924.74,1339.44 1930.41,1340.45 1936.08,1341.44 1941.75,1342.42 1947.42,1343.38 
  1953.09,1344.32 1958.76,1345.25 1964.43,1346.15 1970.1,1347.04 1975.76,1347.92 1981.43,1348.78 1987.1,1349.62 1992.77,1350.44 1998.44,1351.25 2004.11,1352.05 
  2009.78,1352.83 2015.45,1353.59 2021.12,1354.34 2026.79,1355.08 2032.46,1355.8 2038.12,1356.51 2043.79,1357.2 2049.46,1357.88 2055.13,1358.55 2060.8,1359.2 
  2066.47,1359.84 2072.14,1360.47 2077.81,1361.08 2083.48,1361.68 2089.15,1362.27 2094.81,1362.85 2100.48,1363.42 2106.15,1363.97 2111.82,1364.52 2117.49,1365.05 
  2123.16,1365.57 2128.83,1366.08 2134.5,1366.58 2140.17,1367.07 2145.84,1367.55 2151.5,1368.02 2157.17,1368.47 2162.84,1368.92 2168.51,1369.36 2174.18,1369.79 
  2179.85,1370.21 2185.52,1370.62 2191.19,1371.03 2196.86,1371.42 2202.53,1371.8 2208.2,1372.18 2213.86,1372.55 2219.53,1372.91 2225.2,1373.26 2230.87,1373.6 
  2236.54,1373.94 2242.21,1374.27 2247.88,1374.59 2253.55,1374.91 2259.22,1375.21 2264.89,1375.51 2270.55,1375.81 2276.22,1376.09 2281.89,1376.37 2287.56,1376.64 
  2293.23,1376.91 
  "/>
<polyline clip-path="url(#clip662)" style="stroke:#e26f46; stroke-linecap:butt; stroke-linejoin:round; stroke-width:4; stroke-opacity:1; fill:none" points="
  309.067,160.256 314.736,160.278 320.405,160.345 326.074,160.455 331.743,160.609 337.412,160.807 343.081,161.05 348.75,161.336 354.419,161.667 360.088,162.041 
  365.757,162.46 371.426,162.922 377.095,163.428 382.764,163.977 388.434,164.571 394.103,165.208 399.772,165.889 405.441,166.613 411.11,167.38 416.779,168.191 
  422.448,169.045 428.117,169.943 433.786,170.883 439.455,171.866 445.124,172.893 450.793,173.962 456.462,175.073 462.131,176.227 467.8,177.424 473.469,178.662 
  479.138,179.943 484.807,181.266 490.476,182.631 496.145,184.037 501.814,185.485 507.483,186.974 513.152,188.505 518.821,190.077 524.49,191.689 530.16,193.343 
  535.829,195.037 541.498,196.771 547.167,198.545 552.836,200.36 558.505,202.214 564.174,204.108 569.843,206.041 575.512,208.014 581.181,210.026 586.85,212.076 
  592.519,214.165 598.188,216.293 603.857,218.458 609.526,220.662 615.195,222.903 620.864,225.181 626.533,227.497 632.202,229.85 637.871,232.24 643.54,234.666 
  649.209,237.128 654.878,239.627 660.547,242.161 666.216,244.73 671.886,247.335 677.555,249.975 683.224,252.649 688.893,255.358 694.562,258.1 700.231,260.877 
  705.9,263.687 711.569,266.531 717.238,269.407 722.907,272.317 728.576,275.258 734.245,278.232 739.914,281.237 745.583,284.274 751.252,287.342 756.921,290.441 
  762.59,293.571 768.259,296.731 773.928,299.921 779.597,303.14 785.266,306.389 790.935,309.667 796.604,312.973 802.273,316.308 807.942,319.671 813.612,323.061 
  819.281,326.479 824.95,329.924 830.619,333.396 836.288,336.894 841.957,340.418 847.626,343.967 853.295,347.542 858.964,351.142 864.633,354.767 870.302,358.415 
  875.971,362.088 881.64,365.785 887.309,369.504 892.978,373.247 898.647,377.012 904.316,380.799 909.985,384.608 915.654,388.439 921.323,392.291 926.992,396.163 
  932.661,400.056 938.33,403.969 943.999,407.902 949.668,411.853 955.338,415.824 961.007,419.814 966.676,423.822 972.345,427.847 978.014,431.89 983.683,435.951 
  989.352,440.028 995.021,444.121 1000.69,448.231 1006.36,452.356 1012.03,456.496 1017.7,460.652 1023.37,464.822 1029.04,469.006 1034.7,473.204 1040.37,477.416 
  1046.04,481.641 1051.71,485.878 1057.38,490.128 1063.05,494.39 1068.72,498.664 1074.39,502.949 1080.06,507.245 1085.73,511.552 1091.39,515.868 1097.06,520.195 
  1102.73,524.531 1108.4,528.877 1114.07,533.231 1119.74,537.593 1125.41,541.964 1131.08,546.342 1136.75,550.728 1142.42,555.121 1148.08,559.52 1153.75,563.926 
  1159.42,568.338 1165.09,572.755 1170.76,577.178 1176.43,581.606 1182.1,586.038 1187.77,590.474 1193.44,594.915 1199.11,599.358 1204.78,603.805 1210.44,608.255 
  1216.11,612.708 1221.78,617.163 1227.45,621.619 1233.12,626.078 1238.79,630.537 1244.46,634.997 1250.13,639.458 1255.8,643.919 1261.47,648.38 1267.13,652.841 
  1272.8,657.301 1278.47,661.76 1284.14,666.217 1289.81,670.673 1295.48,675.127 1301.15,679.579 1306.82,684.028 1312.49,688.474 1318.16,692.917 1323.83,697.357 
  1329.49,701.793 1335.16,706.224 1340.83,710.652 1346.5,715.075 1352.17,719.492 1357.84,723.905 1363.51,728.312 1369.18,732.713 1374.85,737.109 1380.52,741.498 
  1386.18,745.88 1391.85,750.256 1397.52,754.624 1403.19,758.985 1408.86,763.338 1414.53,767.684 1420.2,772.021 1425.87,776.35 1431.54,780.67 1437.21,784.981 
  1442.87,789.283 1448.54,793.576 1454.21,797.859 1459.88,802.132 1465.55,806.395 1471.22,810.647 1476.89,814.889 1482.56,819.12 1488.23,823.34 1493.9,827.549 
  1499.57,831.747 1505.23,835.932 1510.9,840.106 1516.57,844.268 1522.24,848.417 1527.91,852.554 1533.58,856.678 1539.25,860.789 1544.92,864.888 1550.59,868.972 
  1556.26,873.044 1561.92,877.101 1567.59,881.145 1573.26,885.175 1578.93,889.19 1584.6,893.192 1590.27,897.178 1595.94,901.15 1601.61,905.107 1607.28,909.049 
  1612.95,912.976 1618.62,916.887 1624.28,920.783 1629.95,924.663 1635.62,928.527 1641.29,932.376 1646.96,936.208 1652.63,940.024 1658.3,943.823 1663.97,947.607 
  1669.64,951.373 1675.31,955.123 1680.97,958.856 1686.64,962.571 1692.31,966.27 1697.98,969.951 1703.65,973.615 1709.32,977.262 1714.99,980.891 1720.66,984.502 
  1726.33,988.096 1732,991.671 1737.67,995.229 1743.33,998.769 1749,1002.29 1754.67,1005.79 1760.34,1009.28 1766.01,1012.74 1771.68,1016.19 1777.35,1019.62 
  1783.02,1023.03 1788.69,1026.42 1794.36,1029.8 1800.02,1033.15 1805.69,1036.49 1811.36,1039.8 1817.03,1043.1 1822.7,1046.38 1828.37,1049.64 1834.04,1052.88 
  1839.71,1056.1 1845.38,1059.3 1851.05,1062.48 1856.71,1065.65 1862.38,1068.79 1868.05,1071.91 1873.72,1075.02 1879.39,1078.1 1885.06,1081.17 1890.73,1084.22 
  1896.4,1087.24 1902.07,1090.25 1907.74,1093.24 1913.41,1096.2 1919.07,1099.15 1924.74,1102.08 1930.41,1104.99 1936.08,1107.88 1941.75,1110.75 1947.42,1113.6 
  1953.09,1116.43 1958.76,1119.24 1964.43,1122.03 1970.1,1124.8 1975.76,1127.55 1981.43,1130.28 1987.1,1132.99 1992.77,1135.68 1998.44,1138.36 2004.11,1141.01 
  2009.78,1143.64 2015.45,1146.26 2021.12,1148.85 2026.79,1151.43 2032.46,1153.98 2038.12,1156.52 2043.79,1159.03 2049.46,1161.53 2055.13,1164.01 2060.8,1166.47 
  2066.47,1168.91 2072.14,1171.33 2077.81,1173.73 2083.48,1176.11 2089.15,1178.47 2094.81,1180.81 2100.48,1183.14 2106.15,1185.44 2111.82,1187.73 2117.49,1190 
  2123.16,1192.25 2128.83,1194.48 2134.5,1196.69 2140.17,1198.88 2145.84,1201.06 2151.5,1203.21 2157.17,1205.35 2162.84,1207.47 2168.51,1209.57 2174.18,1211.65 
  2179.85,1213.71 2185.52,1215.76 2191.19,1217.79 2196.86,1219.8 2202.53,1221.79 2208.2,1223.76 2213.86,1225.72 2219.53,1227.65 2225.2,1229.57 2230.87,1231.48 
  2236.54,1233.36 2242.21,1235.23 2247.88,1237.08 2253.55,1238.92 2259.22,1240.73 2264.89,1242.53 2270.55,1244.31 2276.22,1246.08 2281.89,1247.83 2287.56,1249.56 
  2293.23,1251.27 
  "/>
<path clip-path="url(#clip660)" d="
M1384.15 322.316 L2282.65 322.316 L2282.65 166.796 L1384.15 166.796  Z
  " fill="#ffffff" fill-rule="evenodd" fill-opacity="1"/>
<polyline clip-path="url(#clip660)" style="stroke:#000000; stroke-linecap:butt; stroke-linejoin:round; stroke-width:4; stroke-opacity:1; fill:none" points="
  1384.15,322.316 2282.65,322.316 2282.65,166.796 1384.15,166.796 1384.15,322.316 
  "/>
<polyline clip-path="url(#clip660)" style="stroke:#009af9; stroke-linecap:butt; stroke-linejoin:round; stroke-width:4; stroke-opacity:1; fill:none" points="
  1407.52,218.636 1547.73,218.636 
  "/>
<path clip-path="url(#clip660)" d="M1587.49 219.712 Q1588.99 220.221 1590.4 221.888 Q1591.84 223.555 1593.28 226.471 L1598.02 235.916 L1593 235.916 L1588.58 227.05 Q1586.86 223.578 1585.24 222.444 Q1583.65 221.309 1580.87 221.309 L1575.78 221.309 L1575.78 235.916 L1571.1 235.916 L1571.1 201.356 L1581.65 201.356 Q1587.58 201.356 1590.5 203.833 Q1593.41 206.309 1593.41 211.309 Q1593.41 214.573 1591.89 216.726 Q1590.38 218.879 1587.49 219.712 M1575.78 205.198 L1575.78 217.467 L1581.65 217.467 Q1585.03 217.467 1586.75 215.916 Q1588.48 214.342 1588.48 211.309 Q1588.48 208.277 1586.75 206.749 Q1585.03 205.198 1581.65 205.198 L1575.78 205.198 Z" fill="#000000" fill-rule="evenodd" fill-opacity="1" /><path clip-path="url(#clip660)" d="M1614.59 222.883 Q1609.43 222.883 1607.44 224.064 Q1605.45 225.244 1605.45 228.092 Q1605.45 230.36 1606.93 231.703 Q1608.44 233.022 1611.01 233.022 Q1614.55 233.022 1616.68 230.522 Q1618.83 227.999 1618.83 223.832 L1618.83 222.883 L1614.59 222.883 M1623.09 221.124 L1623.09 235.916 L1618.83 235.916 L1618.83 231.981 Q1617.37 234.342 1615.2 235.476 Q1613.02 236.587 1609.87 236.587 Q1605.89 236.587 1603.53 234.365 Q1601.19 232.119 1601.19 228.369 Q1601.19 223.994 1604.11 221.772 Q1607.05 219.55 1612.86 219.55 L1618.83 219.55 L1618.83 219.133 Q1618.83 216.194 1616.89 214.596 Q1614.96 212.976 1611.47 212.976 Q1609.25 212.976 1607.14 213.508 Q1605.03 214.041 1603.09 215.106 L1603.09 211.17 Q1605.43 210.268 1607.63 209.828 Q1609.83 209.365 1611.91 209.365 Q1617.53 209.365 1620.31 212.282 Q1623.09 215.198 1623.09 221.124 Z" fill="#000000" fill-rule="evenodd" fill-opacity="1" /><path clip-path="url(#clip660)" d="M1653.41 220.268 L1653.41 235.916 L1649.15 235.916 L1649.15 220.407 Q1649.15 216.726 1647.72 214.897 Q1646.28 213.069 1643.41 213.069 Q1639.96 213.069 1637.97 215.268 Q1635.98 217.467 1635.98 221.263 L1635.98 235.916 L1631.7 235.916 L1631.7 209.99 L1635.98 209.99 L1635.98 214.018 Q1637.51 211.68 1639.57 210.522 Q1641.65 209.365 1644.36 209.365 Q1648.83 209.365 1651.12 212.143 Q1653.41 214.897 1653.41 220.268 Z" fill="#000000" fill-rule="evenodd" fill-opacity="1" /><path clip-path="url(#clip660)" d="M1678.97 222.652 Q1678.97 218.022 1677.05 215.476 Q1675.15 212.93 1671.7 212.93 Q1668.27 212.93 1666.35 215.476 Q1664.46 218.022 1664.46 222.652 Q1664.46 227.258 1666.35 229.805 Q1668.27 232.351 1671.7 232.351 Q1675.15 232.351 1677.05 229.805 Q1678.97 227.258 1678.97 222.652 M1683.23 232.698 Q1683.23 239.318 1680.29 242.536 Q1677.35 245.777 1671.28 245.777 Q1669.04 245.777 1667.05 245.43 Q1665.06 245.105 1663.18 244.411 L1663.18 240.268 Q1665.06 241.286 1666.89 241.772 Q1668.71 242.258 1670.61 242.258 Q1674.8 242.258 1676.89 240.059 Q1678.97 237.883 1678.97 233.462 L1678.97 231.356 Q1677.65 233.647 1675.59 234.781 Q1673.53 235.916 1670.66 235.916 Q1665.89 235.916 1662.97 232.281 Q1660.06 228.647 1660.06 222.652 Q1660.06 216.633 1662.97 212.999 Q1665.89 209.365 1670.66 209.365 Q1673.53 209.365 1675.59 210.499 Q1677.65 211.633 1678.97 213.925 L1678.97 209.99 L1683.23 209.99 L1683.23 232.698 Z" fill="#000000" fill-rule="evenodd" fill-opacity="1" /><path clip-path="url(#clip660)" d="M1714.18 221.888 L1714.18 223.971 L1694.59 223.971 Q1694.87 228.369 1697.23 230.684 Q1699.62 232.976 1703.85 232.976 Q1706.31 232.976 1708.6 232.374 Q1710.91 231.772 1713.18 230.569 L1713.18 234.596 Q1710.89 235.568 1708.48 236.078 Q1706.08 236.587 1703.6 236.587 Q1697.4 236.587 1693.76 232.976 Q1690.15 229.365 1690.15 223.207 Q1690.15 216.842 1693.58 213.115 Q1697.02 209.365 1702.86 209.365 Q1708.09 209.365 1711.12 212.745 Q1714.18 216.101 1714.18 221.888 M1709.92 220.638 Q1709.87 217.143 1707.95 215.059 Q1706.05 212.976 1702.9 212.976 Q1699.34 212.976 1697.19 214.99 Q1695.06 217.004 1694.73 220.661 L1709.92 220.638 Z" fill="#000000" fill-rule="evenodd" fill-opacity="1" /><path clip-path="url(#clip660)" d="M1746.28 212.976 Q1742.86 212.976 1740.87 215.661 Q1738.88 218.323 1738.88 222.976 Q1738.88 227.629 1740.84 230.314 Q1742.83 232.976 1746.28 232.976 Q1749.69 232.976 1751.68 230.291 Q1753.67 227.606 1753.67 222.976 Q1753.67 218.37 1751.68 215.684 Q1749.69 212.976 1746.28 212.976 M1746.28 209.365 Q1751.84 209.365 1755.01 212.976 Q1758.18 216.587 1758.18 222.976 Q1758.18 229.342 1755.01 232.976 Q1751.84 236.587 1746.28 236.587 Q1740.71 236.587 1737.53 232.976 Q1734.39 229.342 1734.39 222.976 Q1734.39 216.587 1737.53 212.976 Q1740.71 209.365 1746.28 209.365 Z" fill="#000000" fill-rule="evenodd" fill-opacity="1" /><path clip-path="url(#clip660)" d="M1778.37 199.897 L1778.37 203.439 L1774.29 203.439 Q1772 203.439 1771.1 204.365 Q1770.22 205.291 1770.22 207.698 L1770.22 209.99 L1777.23 209.99 L1777.23 213.3 L1770.22 213.3 L1770.22 235.916 L1765.94 235.916 L1765.94 213.3 L1761.86 213.3 L1761.86 209.99 L1765.94 209.99 L1765.94 208.184 Q1765.94 203.856 1767.95 201.888 Q1769.96 199.897 1774.34 199.897 L1778.37 199.897 Z" fill="#000000" fill-rule="evenodd" fill-opacity="1" /><path clip-path="url(#clip660)" d="M1806.1 235.916 L1792.9 201.356 L1797.79 201.356 L1808.74 230.453 L1819.71 201.356 L1824.57 201.356 L1811.4 235.916 L1806.1 235.916 Z" fill="#000000" fill-rule="evenodd" fill-opacity="1" /><path clip-path="url(#clip660)" d="M1837.53 222.883 Q1832.37 222.883 1830.38 224.064 Q1828.39 225.244 1828.39 228.092 Q1828.39 230.36 1829.87 231.703 Q1831.38 233.022 1833.95 233.022 Q1837.49 233.022 1839.62 230.522 Q1841.77 227.999 1841.77 223.832 L1841.77 222.883 L1837.53 222.883 M1846.03 221.124 L1846.03 235.916 L1841.77 235.916 L1841.77 231.981 Q1840.31 234.342 1838.14 235.476 Q1835.96 236.587 1832.81 236.587 Q1828.83 236.587 1826.47 234.365 Q1824.13 232.119 1824.13 228.369 Q1824.13 223.994 1827.05 221.772 Q1829.99 219.55 1835.8 219.55 L1841.77 219.55 L1841.77 219.133 Q1841.77 216.194 1839.82 214.596 Q1837.9 212.976 1834.41 212.976 Q1832.19 212.976 1830.08 213.508 Q1827.97 214.041 1826.03 215.106 L1826.03 211.17 Q1828.37 210.268 1830.57 209.828 Q1832.76 209.365 1834.85 209.365 Q1840.47 209.365 1843.25 212.282 Q1846.03 215.198 1846.03 221.124 Z" fill="#000000" fill-rule="evenodd" fill-opacity="1" /><path clip-path="url(#clip660)" d="M1854.8 199.897 L1859.06 199.897 L1859.06 235.916 L1854.8 235.916 L1854.8 199.897 Z" fill="#000000" fill-rule="evenodd" fill-opacity="1" /><path clip-path="url(#clip660)" d="M1867.53 225.684 L1867.53 209.99 L1871.79 209.99 L1871.79 225.522 Q1871.79 229.203 1873.23 231.055 Q1874.66 232.883 1877.53 232.883 Q1880.98 232.883 1882.97 230.684 Q1884.99 228.485 1884.99 224.689 L1884.99 209.99 L1889.25 209.99 L1889.25 235.916 L1884.99 235.916 L1884.99 231.934 Q1883.44 234.295 1881.38 235.453 Q1879.34 236.587 1876.63 236.587 Q1872.16 236.587 1869.85 233.809 Q1867.53 231.031 1867.53 225.684 M1878.25 209.365 L1878.25 209.365 Z" fill="#000000" fill-rule="evenodd" fill-opacity="1" /><path clip-path="url(#clip660)" d="M1920.19 221.888 L1920.19 223.971 L1900.61 223.971 Q1900.89 228.369 1903.25 230.684 Q1905.63 232.976 1909.87 232.976 Q1912.32 232.976 1914.62 232.374 Q1916.93 231.772 1919.2 230.569 L1919.2 234.596 Q1916.91 235.568 1914.5 236.078 Q1912.09 236.587 1909.62 236.587 Q1903.41 236.587 1899.78 232.976 Q1896.17 229.365 1896.17 223.207 Q1896.17 216.842 1899.59 213.115 Q1903.04 209.365 1908.88 209.365 Q1914.11 209.365 1917.14 212.745 Q1920.19 216.101 1920.19 221.888 M1915.94 220.638 Q1915.89 217.143 1913.97 215.059 Q1912.07 212.976 1908.92 212.976 Q1905.36 212.976 1903.2 214.99 Q1901.07 217.004 1900.75 220.661 L1915.94 220.638 Z" fill="#000000" fill-rule="evenodd" fill-opacity="1" /><path clip-path="url(#clip660)" d="M1943.71 210.754 L1943.71 214.782 Q1941.91 213.856 1939.96 213.393 Q1938.02 212.93 1935.94 212.93 Q1932.76 212.93 1931.17 213.902 Q1929.59 214.874 1929.59 216.819 Q1929.59 218.3 1930.73 219.157 Q1931.86 219.99 1935.29 220.754 L1936.75 221.078 Q1941.28 222.05 1943.18 223.832 Q1945.1 225.592 1945.1 228.763 Q1945.1 232.374 1942.23 234.481 Q1939.38 236.587 1934.38 236.587 Q1932.3 236.587 1930.03 236.17 Q1927.79 235.777 1925.29 234.967 L1925.29 230.569 Q1927.65 231.795 1929.94 232.42 Q1932.23 233.022 1934.48 233.022 Q1937.49 233.022 1939.11 232.004 Q1940.73 230.962 1940.73 229.087 Q1940.73 227.351 1939.55 226.425 Q1938.39 225.499 1934.43 224.643 L1932.95 224.295 Q1928.99 223.462 1927.23 221.749 Q1925.47 220.013 1925.47 217.004 Q1925.47 213.346 1928.07 211.356 Q1930.66 209.365 1935.43 209.365 Q1937.79 209.365 1939.87 209.712 Q1941.95 210.059 1943.71 210.754 Z" fill="#000000" fill-rule="evenodd" fill-opacity="1" /><polyline clip-path="url(#clip660)" style="stroke:#e26f46; stroke-linecap:butt; stroke-linejoin:round; stroke-width:4; stroke-opacity:1; fill:none" points="
  1407.52,270.476 1547.73,270.476 
  "/>
<path clip-path="url(#clip660)" d="M1587.49 271.552 Q1588.99 272.061 1590.4 273.728 Q1591.84 275.395 1593.28 278.311 L1598.02 287.756 L1593 287.756 L1588.58 278.89 Q1586.86 275.418 1585.24 274.284 Q1583.65 273.149 1580.87 273.149 L1575.78 273.149 L1575.78 287.756 L1571.1 287.756 L1571.1 253.196 L1581.65 253.196 Q1587.58 253.196 1590.5 255.673 Q1593.41 258.149 1593.41 263.149 Q1593.41 266.413 1591.89 268.566 Q1590.38 270.719 1587.49 271.552 M1575.78 257.038 L1575.78 269.307 L1581.65 269.307 Q1585.03 269.307 1586.75 267.756 Q1588.48 266.182 1588.48 263.149 Q1588.48 260.117 1586.75 258.589 Q1585.03 257.038 1581.65 257.038 L1575.78 257.038 Z" fill="#000000" fill-rule="evenodd" fill-opacity="1" /><path clip-path="url(#clip660)" d="M1623.9 273.728 L1623.9 275.811 L1604.32 275.811 Q1604.59 280.209 1606.96 282.524 Q1609.34 284.816 1613.58 284.816 Q1616.03 284.816 1618.32 284.214 Q1620.64 283.612 1622.9 282.409 L1622.9 286.436 Q1620.61 287.408 1618.21 287.918 Q1615.8 288.427 1613.32 288.427 Q1607.12 288.427 1603.48 284.816 Q1599.87 281.205 1599.87 275.047 Q1599.87 268.682 1603.3 264.955 Q1606.75 261.205 1612.58 261.205 Q1617.81 261.205 1620.84 264.585 Q1623.9 267.941 1623.9 273.728 M1619.64 272.478 Q1619.59 268.983 1617.67 266.899 Q1615.78 264.816 1612.63 264.816 Q1609.06 264.816 1606.91 266.83 Q1604.78 268.844 1604.46 272.501 L1619.64 272.478 Z" fill="#000000" fill-rule="evenodd" fill-opacity="1" /><path clip-path="url(#clip660)" d="M1649.55 262.825 L1649.55 266.807 Q1647.74 265.811 1645.91 265.325 Q1644.11 264.816 1642.26 264.816 Q1638.11 264.816 1635.82 267.455 Q1633.53 270.071 1633.53 274.816 Q1633.53 279.561 1635.82 282.2 Q1638.11 284.816 1642.26 284.816 Q1644.11 284.816 1645.91 284.33 Q1647.74 283.821 1649.55 282.825 L1649.55 286.76 Q1647.77 287.594 1645.84 288.01 Q1643.95 288.427 1641.79 288.427 Q1635.94 288.427 1632.49 284.746 Q1629.04 281.066 1629.04 274.816 Q1629.04 268.473 1632.51 264.839 Q1636.01 261.205 1642.07 261.205 Q1644.04 261.205 1645.91 261.622 Q1647.79 262.015 1649.55 262.825 Z" fill="#000000" fill-rule="evenodd" fill-opacity="1" /><path clip-path="url(#clip660)" d="M1667 264.816 Q1663.58 264.816 1661.59 267.501 Q1659.59 270.163 1659.59 274.816 Q1659.59 279.469 1661.56 282.154 Q1663.55 284.816 1667 284.816 Q1670.4 284.816 1672.4 282.131 Q1674.39 279.446 1674.39 274.816 Q1674.39 270.21 1672.4 267.524 Q1670.4 264.816 1667 264.816 M1667 261.205 Q1672.56 261.205 1675.73 264.816 Q1678.9 268.427 1678.9 274.816 Q1678.9 281.182 1675.73 284.816 Q1672.56 288.427 1667 288.427 Q1661.42 288.427 1658.25 284.816 Q1655.1 281.182 1655.1 274.816 Q1655.1 268.427 1658.25 264.816 Q1661.42 261.205 1667 261.205 Z" fill="#000000" fill-rule="evenodd" fill-opacity="1" /><path clip-path="url(#clip660)" d="M1706.15 266.807 Q1707.74 263.936 1709.96 262.571 Q1712.19 261.205 1715.2 261.205 Q1719.25 261.205 1721.45 264.052 Q1723.64 266.876 1723.64 272.108 L1723.64 287.756 L1719.36 287.756 L1719.36 272.247 Q1719.36 268.52 1718.04 266.714 Q1716.72 264.909 1714.02 264.909 Q1710.71 264.909 1708.78 267.108 Q1706.86 269.307 1706.86 273.103 L1706.86 287.756 L1702.58 287.756 L1702.58 272.247 Q1702.58 268.497 1701.26 266.714 Q1699.94 264.909 1697.19 264.909 Q1693.92 264.909 1692 267.131 Q1690.08 269.33 1690.08 273.103 L1690.08 287.756 L1685.8 287.756 L1685.8 261.83 L1690.08 261.83 L1690.08 265.858 Q1691.54 263.473 1693.58 262.339 Q1695.61 261.205 1698.41 261.205 Q1701.24 261.205 1703.21 262.64 Q1705.2 264.075 1706.15 266.807 Z" fill="#000000" fill-rule="evenodd" fill-opacity="1" /><path clip-path="url(#clip660)" d="M1752.33 266.807 Q1753.92 263.936 1756.14 262.571 Q1758.37 261.205 1761.38 261.205 Q1765.43 261.205 1767.63 264.052 Q1769.83 266.876 1769.83 272.108 L1769.83 287.756 L1765.54 287.756 L1765.54 272.247 Q1765.54 268.52 1764.22 266.714 Q1762.9 264.909 1760.2 264.909 Q1756.89 264.909 1754.96 267.108 Q1753.04 269.307 1753.04 273.103 L1753.04 287.756 L1748.76 287.756 L1748.76 272.247 Q1748.76 268.497 1747.44 266.714 Q1746.12 264.909 1743.37 264.909 Q1740.1 264.909 1738.18 267.131 Q1736.26 269.33 1736.26 273.103 L1736.26 287.756 L1731.98 287.756 L1731.98 261.83 L1736.26 261.83 L1736.26 265.858 Q1737.72 263.473 1739.76 262.339 Q1741.79 261.205 1744.59 261.205 Q1747.42 261.205 1749.39 262.64 Q1751.38 264.075 1752.33 266.807 Z" fill="#000000" fill-rule="evenodd" fill-opacity="1" /><path clip-path="url(#clip660)" d="M1800.5 273.728 L1800.5 275.811 L1780.91 275.811 Q1781.19 280.209 1783.55 282.524 Q1785.94 284.816 1790.17 284.816 Q1792.63 284.816 1794.92 284.214 Q1797.23 283.612 1799.5 282.409 L1799.5 286.436 Q1797.21 287.408 1794.8 287.918 Q1792.39 288.427 1789.92 288.427 Q1783.71 288.427 1780.08 284.816 Q1776.47 281.205 1776.47 275.047 Q1776.47 268.682 1779.89 264.955 Q1783.34 261.205 1789.18 261.205 Q1794.41 261.205 1797.44 264.585 Q1800.5 267.941 1800.5 273.728 M1796.24 272.478 Q1796.19 268.983 1794.27 266.899 Q1792.37 264.816 1789.22 264.816 Q1785.66 264.816 1783.51 266.83 Q1781.38 268.844 1781.05 272.501 L1796.24 272.478 Z" fill="#000000" fill-rule="evenodd" fill-opacity="1" /><path clip-path="url(#clip660)" d="M1829.04 272.108 L1829.04 287.756 L1824.78 287.756 L1824.78 272.247 Q1824.78 268.566 1823.34 266.737 Q1821.91 264.909 1819.04 264.909 Q1815.59 264.909 1813.6 267.108 Q1811.61 269.307 1811.61 273.103 L1811.61 287.756 L1807.33 287.756 L1807.33 261.83 L1811.61 261.83 L1811.61 265.858 Q1813.14 263.52 1815.2 262.362 Q1817.28 261.205 1819.99 261.205 Q1824.45 261.205 1826.75 263.983 Q1829.04 266.737 1829.04 272.108 Z" fill="#000000" fill-rule="evenodd" fill-opacity="1" /><path clip-path="url(#clip660)" d="M1854.59 265.765 L1854.59 251.737 L1858.85 251.737 L1858.85 287.756 L1854.59 287.756 L1854.59 283.867 Q1853.25 286.182 1851.19 287.316 Q1849.15 288.427 1846.28 288.427 Q1841.58 288.427 1838.62 284.677 Q1835.68 280.927 1835.68 274.816 Q1835.68 268.705 1838.62 264.955 Q1841.58 261.205 1846.28 261.205 Q1849.15 261.205 1851.19 262.339 Q1853.25 263.45 1854.59 265.765 M1840.08 274.816 Q1840.08 279.515 1842 282.2 Q1843.95 284.862 1847.32 284.862 Q1850.7 284.862 1852.65 282.2 Q1854.59 279.515 1854.59 274.816 Q1854.59 270.117 1852.65 267.455 Q1850.7 264.77 1847.32 264.77 Q1843.95 264.77 1842 267.455 Q1840.08 270.117 1840.08 274.816 Z" fill="#000000" fill-rule="evenodd" fill-opacity="1" /><path clip-path="url(#clip660)" d="M1889.8 273.728 L1889.8 275.811 L1870.22 275.811 Q1870.5 280.209 1872.86 282.524 Q1875.24 284.816 1879.48 284.816 Q1881.93 284.816 1884.22 284.214 Q1886.54 283.612 1888.81 282.409 L1888.81 286.436 Q1886.51 287.408 1884.11 287.918 Q1881.7 288.427 1879.22 288.427 Q1873.02 288.427 1869.38 284.816 Q1865.77 281.205 1865.77 275.047 Q1865.77 268.682 1869.2 264.955 Q1872.65 261.205 1878.48 261.205 Q1883.71 261.205 1886.75 264.585 Q1889.8 267.941 1889.8 273.728 M1885.54 272.478 Q1885.5 268.983 1883.57 266.899 Q1881.68 264.816 1878.53 264.816 Q1874.96 264.816 1872.81 266.83 Q1870.68 268.844 1870.36 272.501 L1885.54 272.478 Z" fill="#000000" fill-rule="evenodd" fill-opacity="1" /><path clip-path="url(#clip660)" d="M1913.85 265.765 L1913.85 251.737 L1918.11 251.737 L1918.11 287.756 L1913.85 287.756 L1913.85 283.867 Q1912.51 286.182 1910.45 287.316 Q1908.41 288.427 1905.54 288.427 Q1900.84 288.427 1897.88 284.677 Q1894.94 280.927 1894.94 274.816 Q1894.94 268.705 1897.88 264.955 Q1900.84 261.205 1905.54 261.205 Q1908.41 261.205 1910.45 262.339 Q1912.51 263.45 1913.85 265.765 M1899.34 274.816 Q1899.34 279.515 1901.26 282.2 Q1903.2 284.862 1906.58 284.862 Q1909.96 284.862 1911.91 282.2 Q1913.85 279.515 1913.85 274.816 Q1913.85 270.117 1911.91 267.455 Q1909.96 264.77 1906.58 264.77 Q1903.2 264.77 1901.26 267.455 Q1899.34 270.117 1899.34 274.816 Z" fill="#000000" fill-rule="evenodd" fill-opacity="1" /><path clip-path="url(#clip660)" d="M1952.19 251.784 Q1949.08 257.108 1947.58 262.316 Q1946.07 267.524 1946.07 272.872 Q1946.07 278.219 1947.58 283.473 Q1949.11 288.705 1952.19 294.006 L1948.48 294.006 Q1945.01 288.566 1943.27 283.311 Q1941.56 278.057 1941.56 272.872 Q1941.56 267.71 1943.27 262.478 Q1944.99 257.247 1948.48 251.784 L1952.19 251.784 Z" fill="#000000" fill-rule="evenodd" fill-opacity="1" /><path clip-path="url(#clip660)" d="M1960.63 253.196 L1965.31 253.196 L1965.31 283.821 L1982.14 283.821 L1982.14 287.756 L1960.63 287.756 L1960.63 253.196 Z" fill="#000000" fill-rule="evenodd" fill-opacity="1" /><path clip-path="url(#clip660)" d="M1996.07 264.816 Q1992.65 264.816 1990.66 267.501 Q1988.67 270.163 1988.67 274.816 Q1988.67 279.469 1990.63 282.154 Q1992.62 284.816 1996.07 284.816 Q1999.48 284.816 2001.47 282.131 Q2003.46 279.446 2003.46 274.816 Q2003.46 270.21 2001.47 267.524 Q1999.48 264.816 1996.07 264.816 M1996.07 261.205 Q2001.63 261.205 2004.8 264.816 Q2007.97 268.427 2007.97 274.816 Q2007.97 281.182 2004.8 284.816 Q2001.63 288.427 1996.07 288.427 Q1990.5 288.427 1987.32 284.816 Q1984.18 281.182 1984.18 274.816 Q1984.18 268.427 1987.32 264.816 Q1990.5 261.205 1996.07 261.205 Z" fill="#000000" fill-rule="evenodd" fill-opacity="1" /><path clip-path="url(#clip660)" d="M2036.58 272.108 L2036.58 287.756 L2032.32 287.756 L2032.32 272.247 Q2032.32 268.566 2030.89 266.737 Q2029.45 264.909 2026.58 264.909 Q2023.13 264.909 2021.14 267.108 Q2019.15 269.307 2019.15 273.103 L2019.15 287.756 L2014.87 287.756 L2014.87 261.83 L2019.15 261.83 L2019.15 265.858 Q2020.68 263.52 2022.74 262.362 Q2024.82 261.205 2027.53 261.205 Q2032 261.205 2034.29 263.983 Q2036.58 266.737 2036.58 272.108 Z" fill="#000000" fill-rule="evenodd" fill-opacity="1" /><path clip-path="url(#clip660)" d="M2062.14 274.492 Q2062.14 269.862 2060.22 267.316 Q2058.32 264.77 2054.87 264.77 Q2051.44 264.77 2049.52 267.316 Q2047.62 269.862 2047.62 274.492 Q2047.62 279.098 2049.52 281.645 Q2051.44 284.191 2054.87 284.191 Q2058.32 284.191 2060.22 281.645 Q2062.14 279.098 2062.14 274.492 M2066.4 284.538 Q2066.4 291.158 2063.46 294.376 Q2060.52 297.617 2054.45 297.617 Q2052.21 297.617 2050.22 297.27 Q2048.23 296.945 2046.35 296.251 L2046.35 292.108 Q2048.23 293.126 2050.06 293.612 Q2051.88 294.098 2053.78 294.098 Q2057.97 294.098 2060.06 291.899 Q2062.14 289.723 2062.14 285.302 L2062.14 283.196 Q2060.82 285.487 2058.76 286.621 Q2056.7 287.756 2053.83 287.756 Q2049.06 287.756 2046.14 284.121 Q2043.23 280.487 2043.23 274.492 Q2043.23 268.473 2046.14 264.839 Q2049.06 261.205 2053.83 261.205 Q2056.7 261.205 2058.76 262.339 Q2060.82 263.473 2062.14 265.765 L2062.14 261.83 L2066.4 261.83 L2066.4 284.538 Z" fill="#000000" fill-rule="evenodd" fill-opacity="1" /><path clip-path="url(#clip660)" d="M2076.26 281.876 L2081.14 281.876 L2081.14 285.858 L2077.35 293.265 L2074.36 293.265 L2076.26 285.858 L2076.26 281.876 Z" fill="#000000" fill-rule="evenodd" fill-opacity="1" /><path clip-path="url(#clip660)" d="M2106.72 283.821 L2114.36 283.821 L2114.36 257.455 L2106.05 259.122 L2106.05 254.862 L2114.31 253.196 L2118.99 253.196 L2118.99 283.821 L2126.63 283.821 L2126.63 287.756 L2106.72 287.756 L2106.72 283.821 Z" fill="#000000" fill-rule="evenodd" fill-opacity="1" /><path clip-path="url(#clip660)" d="M2136.21 287.038 L2136.21 282.779 Q2137.97 283.612 2139.78 284.052 Q2141.58 284.492 2143.32 284.492 Q2147.95 284.492 2150.38 281.39 Q2152.83 278.265 2153.18 271.922 Q2151.84 273.913 2149.78 274.978 Q2147.72 276.043 2145.22 276.043 Q2140.03 276.043 2137 272.918 Q2133.99 269.77 2133.99 264.33 Q2133.99 259.006 2137.14 255.788 Q2140.29 252.571 2145.52 252.571 Q2151.51 252.571 2154.66 257.177 Q2157.83 261.76 2157.83 270.51 Q2157.83 278.682 2153.94 283.566 Q2150.08 288.427 2143.53 288.427 Q2141.77 288.427 2139.96 288.08 Q2138.16 287.733 2136.21 287.038 M2145.52 272.385 Q2148.67 272.385 2150.49 270.233 Q2152.35 268.08 2152.35 264.33 Q2152.35 260.603 2150.49 258.45 Q2148.67 256.274 2145.52 256.274 Q2142.37 256.274 2140.52 258.45 Q2138.69 260.603 2138.69 264.33 Q2138.69 268.08 2140.52 270.233 Q2142.37 272.385 2145.52 272.385 Z" fill="#000000" fill-rule="evenodd" fill-opacity="1" /><path clip-path="url(#clip660)" d="M2176.81 268.612 Q2173.67 268.612 2171.81 270.765 Q2169.99 272.918 2169.99 276.668 Q2169.99 280.395 2171.81 282.571 Q2173.67 284.723 2176.81 284.723 Q2179.96 284.723 2181.79 282.571 Q2183.64 280.395 2183.64 276.668 Q2183.64 272.918 2181.79 270.765 Q2179.96 268.612 2176.81 268.612 M2186.1 253.96 L2186.1 258.219 Q2184.34 257.386 2182.53 256.946 Q2180.75 256.506 2178.99 256.506 Q2174.36 256.506 2171.91 259.631 Q2169.48 262.756 2169.13 269.075 Q2170.49 267.061 2172.55 265.997 Q2174.61 264.909 2177.09 264.909 Q2182.3 264.909 2185.31 268.08 Q2188.34 271.228 2188.34 276.668 Q2188.34 281.992 2185.19 285.209 Q2182.05 288.427 2176.81 288.427 Q2170.82 288.427 2167.65 283.844 Q2164.48 279.237 2164.48 270.51 Q2164.48 262.316 2168.36 257.455 Q2172.25 252.571 2178.8 252.571 Q2180.56 252.571 2182.35 252.918 Q2184.15 253.265 2186.1 253.96 Z" fill="#000000" fill-rule="evenodd" fill-opacity="1" /><path clip-path="url(#clip660)" d="M2210.56 269.122 Q2213.92 269.839 2215.8 272.108 Q2217.69 274.376 2217.69 277.709 Q2217.69 282.825 2214.17 285.626 Q2210.66 288.427 2204.17 288.427 Q2202 288.427 2199.68 287.987 Q2197.39 287.571 2194.94 286.714 L2194.94 282.2 Q2196.88 283.334 2199.2 283.913 Q2201.51 284.492 2204.04 284.492 Q2208.43 284.492 2210.73 282.756 Q2213.04 281.02 2213.04 277.709 Q2213.04 274.654 2210.89 272.941 Q2208.76 271.205 2204.94 271.205 L2200.91 271.205 L2200.91 267.362 L2205.12 267.362 Q2208.57 267.362 2210.4 265.997 Q2212.23 264.608 2212.23 262.015 Q2212.23 259.353 2210.33 257.941 Q2208.46 256.506 2204.94 256.506 Q2203.02 256.506 2200.82 256.923 Q2198.62 257.339 2195.98 258.219 L2195.98 254.052 Q2198.64 253.311 2200.96 252.941 Q2203.3 252.571 2205.36 252.571 Q2210.68 252.571 2213.78 255.001 Q2216.88 257.409 2216.88 261.529 Q2216.88 264.399 2215.24 266.39 Q2213.6 268.358 2210.56 269.122 Z" fill="#000000" fill-rule="evenodd" fill-opacity="1" /><path clip-path="url(#clip660)" d="M2225.29 251.784 L2228.99 251.784 Q2232.46 257.247 2234.17 262.478 Q2235.91 267.71 2235.91 272.872 Q2235.91 278.057 2234.17 283.311 Q2232.46 288.566 2228.99 294.006 L2225.29 294.006 Q2228.36 288.705 2229.87 283.473 Q2231.4 278.219 2231.4 272.872 Q2231.4 267.524 2229.87 262.316 Q2228.36 257.108 2225.29 251.784 Z" fill="#000000" fill-rule="evenodd" fill-opacity="1" /></svg>
