<?xml version="1.0" encoding="utf-8"?>
<svg xmlns="http://www.w3.org/2000/svg" xmlns:xlink="http://www.w3.org/1999/xlink" width="600" height="400" viewBox="0 0 2400 1600">
<defs>
  <clipPath id="clip540">
    <rect x="0" y="0" width="2400" height="1600"/>
  </clipPath>
</defs>
<path clip-path="url(#clip540)" d="
M0 1600 L2400 1600 L2400 0 L0 0  Z
  " fill="#ffffff" fill-rule="evenodd" fill-opacity="1"/>
<defs>
  <clipPath id="clip541">
    <rect x="480" y="0" width="1681" height="1600"/>
  </clipPath>
</defs>
<path clip-path="url(#clip540)" d="
M156.598 1423.18 L2352.76 1423.18 L2352.76 123.472 L156.598 123.472  Z
  " fill="#ffffff" fill-rule="evenodd" fill-opacity="1"/>
<defs>
  <clipPath id="clip542">
    <rect x="156" y="123" width="2197" height="1301"/>
  </clipPath>
</defs>
<polyline clip-path="url(#clip542)" style="stroke:#000000; stroke-linecap:butt; stroke-linejoin:round; stroke-width:2; stroke-opacity:0.1; fill:none" points="
  156.598,1423.18 156.598,123.472 
  "/>
<polyline clip-path="url(#clip542)" style="stroke:#000000; stroke-linecap:butt; stroke-linejoin:round; stroke-width:2; stroke-opacity:0.1; fill:none" points="
  674.56,1423.18 674.56,123.472 
  "/>
<polyline clip-path="url(#clip542)" style="stroke:#000000; stroke-linecap:butt; stroke-linejoin:round; stroke-width:2; stroke-opacity:0.1; fill:none" points="
  1192.52,1423.18 1192.52,123.472 
  "/>
<polyline clip-path="url(#clip542)" style="stroke:#000000; stroke-linecap:butt; stroke-linejoin:round; stroke-width:2; stroke-opacity:0.1; fill:none" points="
  1710.48,1423.18 1710.48,123.472 
  "/>
<polyline clip-path="url(#clip542)" style="stroke:#000000; stroke-linecap:butt; stroke-linejoin:round; stroke-width:2; stroke-opacity:0.1; fill:none" points="
  2228.45,1423.18 2228.45,123.472 
  "/>
<polyline clip-path="url(#clip540)" style="stroke:#000000; stroke-linecap:butt; stroke-linejoin:round; stroke-width:4; stroke-opacity:1; fill:none" points="
  156.598,1423.18 2352.76,1423.18 
  "/>
<polyline clip-path="url(#clip540)" style="stroke:#000000; stroke-linecap:butt; stroke-linejoin:round; stroke-width:4; stroke-opacity:1; fill:none" points="
  156.598,1423.18 156.598,1404.28 
  "/>
<polyline clip-path="url(#clip540)" style="stroke:#000000; stroke-linecap:butt; stroke-linejoin:round; stroke-width:4; stroke-opacity:1; fill:none" points="
  674.56,1423.18 674.56,1404.28 
  "/>
<polyline clip-path="url(#clip540)" style="stroke:#000000; stroke-linecap:butt; stroke-linejoin:round; stroke-width:4; stroke-opacity:1; fill:none" points="
  1192.52,1423.18 1192.52,1404.28 
  "/>
<polyline clip-path="url(#clip540)" style="stroke:#000000; stroke-linecap:butt; stroke-linejoin:round; stroke-width:4; stroke-opacity:1; fill:none" points="
  1710.48,1423.18 1710.48,1404.28 
  "/>
<polyline clip-path="url(#clip540)" style="stroke:#000000; stroke-linecap:butt; stroke-linejoin:round; stroke-width:4; stroke-opacity:1; fill:none" points="
  2228.45,1423.18 2228.45,1404.28 
  "/>
<path clip-path="url(#clip540)" d="M118.902 1454.1 Q115.291 1454.1 113.462 1457.66 Q111.656 1461.2 111.656 1468.33 Q111.656 1475.44 113.462 1479.01 Q115.291 1482.55 118.902 1482.55 Q122.536 1482.55 124.341 1479.01 Q126.17 1475.44 126.17 1468.33 Q126.17 1461.2 124.341 1457.66 Q122.536 1454.1 118.902 1454.1 M118.902 1450.39 Q124.712 1450.39 127.767 1455 Q130.846 1459.58 130.846 1468.33 Q130.846 1477.06 127.767 1481.67 Q124.712 1486.25 118.902 1486.25 Q113.092 1486.25 110.013 1481.67 Q106.957 1477.06 106.957 1468.33 Q106.957 1459.58 110.013 1455 Q113.092 1450.39 118.902 1450.39 Z" fill="#000000" fill-rule="evenodd" fill-opacity="1" /><path clip-path="url(#clip540)" d="M139.064 1479.7 L143.948 1479.7 L143.948 1485.58 L139.064 1485.58 L139.064 1479.7 Z" fill="#000000" fill-rule="evenodd" fill-opacity="1" /><path clip-path="url(#clip540)" d="M164.133 1454.1 Q160.522 1454.1 158.693 1457.66 Q156.888 1461.2 156.888 1468.33 Q156.888 1475.44 158.693 1479.01 Q160.522 1482.55 164.133 1482.55 Q167.767 1482.55 169.573 1479.01 Q171.401 1475.44 171.401 1468.33 Q171.401 1461.2 169.573 1457.66 Q167.767 1454.1 164.133 1454.1 M164.133 1450.39 Q169.943 1450.39 172.999 1455 Q176.077 1459.58 176.077 1468.33 Q176.077 1477.06 172.999 1481.67 Q169.943 1486.25 164.133 1486.25 Q158.323 1486.25 155.244 1481.67 Q152.189 1477.06 152.189 1468.33 Q152.189 1459.58 155.244 1455 Q158.323 1450.39 164.133 1450.39 Z" fill="#000000" fill-rule="evenodd" fill-opacity="1" /><path clip-path="url(#clip540)" d="M194.295 1454.1 Q190.684 1454.1 188.855 1457.66 Q187.049 1461.2 187.049 1468.33 Q187.049 1475.44 188.855 1479.01 Q190.684 1482.55 194.295 1482.55 Q197.929 1482.55 199.735 1479.01 Q201.563 1475.44 201.563 1468.33 Q201.563 1461.2 199.735 1457.66 Q197.929 1454.1 194.295 1454.1 M194.295 1450.39 Q200.105 1450.39 203.16 1455 Q206.239 1459.58 206.239 1468.33 Q206.239 1477.06 203.16 1481.67 Q200.105 1486.25 194.295 1486.25 Q188.485 1486.25 185.406 1481.67 Q182.35 1477.06 182.35 1468.33 Q182.35 1459.58 185.406 1455 Q188.485 1450.39 194.295 1450.39 Z" fill="#000000" fill-rule="evenodd" fill-opacity="1" /><path clip-path="url(#clip540)" d="M637.361 1454.1 Q633.75 1454.1 631.921 1457.66 Q630.116 1461.2 630.116 1468.33 Q630.116 1475.44 631.921 1479.01 Q633.75 1482.55 637.361 1482.55 Q640.995 1482.55 642.801 1479.01 Q644.63 1475.44 644.63 1468.33 Q644.63 1461.2 642.801 1457.66 Q640.995 1454.1 637.361 1454.1 M637.361 1450.39 Q643.171 1450.39 646.227 1455 Q649.305 1459.58 649.305 1468.33 Q649.305 1477.06 646.227 1481.67 Q643.171 1486.25 637.361 1486.25 Q631.551 1486.25 628.472 1481.67 Q625.417 1477.06 625.417 1468.33 Q625.417 1459.58 628.472 1455 Q631.551 1450.39 637.361 1450.39 Z" fill="#000000" fill-rule="evenodd" fill-opacity="1" /><path clip-path="url(#clip540)" d="M657.523 1479.7 L662.407 1479.7 L662.407 1485.58 L657.523 1485.58 L657.523 1479.7 Z" fill="#000000" fill-rule="evenodd" fill-opacity="1" /><path clip-path="url(#clip540)" d="M682.592 1454.1 Q678.981 1454.1 677.153 1457.66 Q675.347 1461.2 675.347 1468.33 Q675.347 1475.44 677.153 1479.01 Q678.981 1482.55 682.592 1482.55 Q686.227 1482.55 688.032 1479.01 Q689.861 1475.44 689.861 1468.33 Q689.861 1461.2 688.032 1457.66 Q686.227 1454.1 682.592 1454.1 M682.592 1450.39 Q688.402 1450.39 691.458 1455 Q694.537 1459.58 694.537 1468.33 Q694.537 1477.06 691.458 1481.67 Q688.402 1486.25 682.592 1486.25 Q676.782 1486.25 673.703 1481.67 Q670.648 1477.06 670.648 1468.33 Q670.648 1459.58 673.703 1455 Q676.782 1450.39 682.592 1450.39 Z" fill="#000000" fill-rule="evenodd" fill-opacity="1" /><path clip-path="url(#clip540)" d="M702.801 1451.02 L721.157 1451.02 L721.157 1454.96 L707.083 1454.96 L707.083 1463.43 Q708.101 1463.08 709.12 1462.92 Q710.138 1462.73 711.157 1462.73 Q716.944 1462.73 720.324 1465.9 Q723.703 1469.08 723.703 1474.49 Q723.703 1480.07 720.231 1483.17 Q716.759 1486.25 710.439 1486.25 Q708.263 1486.25 705.995 1485.88 Q703.75 1485.51 701.342 1484.77 L701.342 1480.07 Q703.426 1481.2 705.648 1481.76 Q707.87 1482.32 710.347 1482.32 Q714.351 1482.32 716.689 1480.21 Q719.027 1478.1 719.027 1474.49 Q719.027 1470.88 716.689 1468.77 Q714.351 1466.67 710.347 1466.67 Q708.472 1466.67 706.597 1467.08 Q704.745 1467.5 702.801 1468.38 L702.801 1451.02 Z" fill="#000000" fill-rule="evenodd" fill-opacity="1" /><path clip-path="url(#clip540)" d="M1154.83 1454.1 Q1151.21 1454.1 1149.39 1457.66 Q1147.58 1461.2 1147.58 1468.33 Q1147.58 1475.44 1149.39 1479.01 Q1151.21 1482.55 1154.83 1482.55 Q1158.46 1482.55 1160.26 1479.01 Q1162.09 1475.44 1162.09 1468.33 Q1162.09 1461.2 1160.26 1457.66 Q1158.46 1454.1 1154.83 1454.1 M1154.83 1450.39 Q1160.64 1450.39 1163.69 1455 Q1166.77 1459.58 1166.77 1468.33 Q1166.77 1477.06 1163.69 1481.67 Q1160.64 1486.25 1154.83 1486.25 Q1149.01 1486.25 1145.94 1481.67 Q1142.88 1477.06 1142.88 1468.33 Q1142.88 1459.58 1145.94 1455 Q1149.01 1450.39 1154.83 1450.39 Z" fill="#000000" fill-rule="evenodd" fill-opacity="1" /><path clip-path="url(#clip540)" d="M1174.99 1479.7 L1179.87 1479.7 L1179.87 1485.58 L1174.99 1485.58 L1174.99 1479.7 Z" fill="#000000" fill-rule="evenodd" fill-opacity="1" /><path clip-path="url(#clip540)" d="M1190.87 1481.64 L1198.51 1481.64 L1198.51 1455.28 L1190.2 1456.95 L1190.2 1452.69 L1198.46 1451.02 L1203.14 1451.02 L1203.14 1481.64 L1210.77 1481.64 L1210.77 1485.58 L1190.87 1485.58 L1190.87 1481.64 Z" fill="#000000" fill-rule="evenodd" fill-opacity="1" /><path clip-path="url(#clip540)" d="M1230.22 1454.1 Q1226.61 1454.1 1224.78 1457.66 Q1222.97 1461.2 1222.97 1468.33 Q1222.97 1475.44 1224.78 1479.01 Q1226.61 1482.55 1230.22 1482.55 Q1233.85 1482.55 1235.66 1479.01 Q1237.49 1475.44 1237.49 1468.33 Q1237.49 1461.2 1235.66 1457.66 Q1233.85 1454.1 1230.22 1454.1 M1230.22 1450.39 Q1236.03 1450.39 1239.08 1455 Q1242.16 1459.58 1242.16 1468.33 Q1242.16 1477.06 1239.08 1481.67 Q1236.03 1486.25 1230.22 1486.25 Q1224.41 1486.25 1221.33 1481.67 Q1218.27 1477.06 1218.27 1468.33 Q1218.27 1459.58 1221.33 1455 Q1224.41 1450.39 1230.22 1450.39 Z" fill="#000000" fill-rule="evenodd" fill-opacity="1" /><path clip-path="url(#clip540)" d="M1673.28 1454.1 Q1669.67 1454.1 1667.84 1457.66 Q1666.04 1461.2 1666.04 1468.33 Q1666.04 1475.44 1667.84 1479.01 Q1669.67 1482.55 1673.28 1482.55 Q1676.92 1482.55 1678.72 1479.01 Q1680.55 1475.44 1680.55 1468.33 Q1680.55 1461.2 1678.72 1457.66 Q1676.92 1454.1 1673.28 1454.1 M1673.28 1450.39 Q1679.09 1450.39 1682.15 1455 Q1685.23 1459.58 1685.23 1468.33 Q1685.23 1477.06 1682.15 1481.67 Q1679.09 1486.25 1673.28 1486.25 Q1667.47 1486.25 1664.4 1481.67 Q1661.34 1477.06 1661.34 1468.33 Q1661.34 1459.58 1664.4 1455 Q1667.47 1450.39 1673.28 1450.39 Z" fill="#000000" fill-rule="evenodd" fill-opacity="1" /><path clip-path="url(#clip540)" d="M1693.45 1479.7 L1698.33 1479.7 L1698.33 1485.58 L1693.45 1485.58 L1693.45 1479.7 Z" fill="#000000" fill-rule="evenodd" fill-opacity="1" /><path clip-path="url(#clip540)" d="M1709.33 1481.64 L1716.96 1481.64 L1716.96 1455.28 L1708.65 1456.95 L1708.65 1452.69 L1716.92 1451.02 L1721.59 1451.02 L1721.59 1481.64 L1729.23 1481.64 L1729.23 1485.58 L1709.33 1485.58 L1709.33 1481.64 Z" fill="#000000" fill-rule="evenodd" fill-opacity="1" /><path clip-path="url(#clip540)" d="M1738.72 1451.02 L1757.08 1451.02 L1757.08 1454.96 L1743.01 1454.96 L1743.01 1463.43 Q1744.02 1463.08 1745.04 1462.92 Q1746.06 1462.73 1747.08 1462.73 Q1752.87 1462.73 1756.25 1465.9 Q1759.63 1469.08 1759.63 1474.49 Q1759.63 1480.07 1756.15 1483.17 Q1752.68 1486.25 1746.36 1486.25 Q1744.19 1486.25 1741.92 1485.88 Q1739.67 1485.51 1737.27 1484.77 L1737.27 1480.07 Q1739.35 1481.2 1741.57 1481.76 Q1743.79 1482.32 1746.27 1482.32 Q1750.27 1482.32 1752.61 1480.21 Q1754.95 1478.1 1754.95 1474.49 Q1754.95 1470.88 1752.61 1468.77 Q1750.27 1466.67 1746.27 1466.67 Q1744.4 1466.67 1742.52 1467.08 Q1740.67 1467.5 1738.72 1468.38 L1738.72 1451.02 Z" fill="#000000" fill-rule="evenodd" fill-opacity="1" /><path clip-path="url(#clip540)" d="M2190.75 1454.1 Q2187.14 1454.1 2185.31 1457.66 Q2183.5 1461.2 2183.5 1468.33 Q2183.5 1475.44 2185.31 1479.01 Q2187.14 1482.55 2190.75 1482.55 Q2194.38 1482.55 2196.19 1479.01 Q2198.02 1475.44 2198.02 1468.33 Q2198.02 1461.2 2196.19 1457.66 Q2194.38 1454.1 2190.75 1454.1 M2190.75 1450.39 Q2196.56 1450.39 2199.61 1455 Q2202.69 1459.58 2202.69 1468.33 Q2202.69 1477.06 2199.61 1481.67 Q2196.56 1486.25 2190.75 1486.25 Q2184.94 1486.25 2181.86 1481.67 Q2178.8 1477.06 2178.8 1468.33 Q2178.8 1459.58 2181.86 1455 Q2184.94 1450.39 2190.75 1450.39 Z" fill="#000000" fill-rule="evenodd" fill-opacity="1" /><path clip-path="url(#clip540)" d="M2210.91 1479.7 L2215.79 1479.7 L2215.79 1485.58 L2210.91 1485.58 L2210.91 1479.7 Z" fill="#000000" fill-rule="evenodd" fill-opacity="1" /><path clip-path="url(#clip540)" d="M2230.01 1481.64 L2246.33 1481.64 L2246.33 1485.58 L2224.38 1485.58 L2224.38 1481.64 Q2227.04 1478.89 2231.63 1474.26 Q2236.23 1469.61 2237.41 1468.27 Q2239.66 1465.74 2240.54 1464.01 Q2241.44 1462.25 2241.44 1460.56 Q2241.44 1457.8 2239.5 1456.07 Q2237.58 1454.33 2234.48 1454.33 Q2232.28 1454.33 2229.82 1455.09 Q2227.39 1455.86 2224.61 1457.41 L2224.61 1452.69 Q2227.44 1451.55 2229.89 1450.97 Q2232.35 1450.39 2234.38 1450.39 Q2239.75 1450.39 2242.95 1453.08 Q2246.14 1455.77 2246.14 1460.26 Q2246.14 1462.39 2245.33 1464.31 Q2244.54 1466.2 2242.44 1468.8 Q2241.86 1469.47 2238.76 1472.69 Q2235.66 1475.88 2230.01 1481.64 Z" fill="#000000" fill-rule="evenodd" fill-opacity="1" /><path clip-path="url(#clip540)" d="M2266.14 1454.1 Q2262.53 1454.1 2260.7 1457.66 Q2258.9 1461.2 2258.9 1468.33 Q2258.9 1475.44 2260.7 1479.01 Q2262.53 1482.55 2266.14 1482.55 Q2269.78 1482.55 2271.58 1479.01 Q2273.41 1475.44 2273.41 1468.33 Q2273.41 1461.2 2271.58 1457.66 Q2269.78 1454.1 2266.14 1454.1 M2266.14 1450.39 Q2271.95 1450.39 2275.01 1455 Q2278.09 1459.58 2278.09 1468.33 Q2278.09 1477.06 2275.01 1481.67 Q2271.95 1486.25 2266.14 1486.25 Q2260.33 1486.25 2257.25 1481.67 Q2254.2 1477.06 2254.2 1468.33 Q2254.2 1459.58 2257.25 1455 Q2260.33 1450.39 2266.14 1450.39 Z" fill="#000000" fill-rule="evenodd" fill-opacity="1" /><path clip-path="url(#clip540)" d="M1259.9 1564 Q1264.1 1564.03 1266.61 1566.42 Q1269.29 1568.94 1269.29 1572.75 Q1269.29 1576.41 1266.93 1578.96 Q1264.38 1581.73 1259.2 1581.73 Q1259.2 1579.34 1259.2 1576.92 Q1261.39 1577.08 1262.73 1575.68 Q1263.75 1574.57 1263.75 1573.39 Q1263.75 1571.7 1262.73 1570.3 Q1261.74 1568.97 1259.9 1568.97 Q1240.07 1568.97 1240.07 1555.06 Q1240.07 1545.51 1250.67 1542.71 Q1241.75 1541.56 1241.75 1533.29 Q1241.75 1527.02 1248.76 1524.41 L1242.14 1524.41 L1242.14 1518.52 L1267.25 1518.52 L1267.25 1524.41 Q1247.23 1524.41 1247.23 1533.67 Q1247.23 1539.75 1264.03 1540.03 L1264.03 1545.45 Q1245.89 1544.75 1245.96 1555.06 Q1245.99 1563.68 1259.9 1564 Z" fill="#000000" fill-rule="evenodd" fill-opacity="1" /><polyline clip-path="url(#clip542)" style="stroke:#000000; stroke-linecap:butt; stroke-linejoin:round; stroke-width:2; stroke-opacity:0.1; fill:none" points="
  156.598,1225.1 2352.76,1225.1 
  "/>
<polyline clip-path="url(#clip542)" style="stroke:#000000; stroke-linecap:butt; stroke-linejoin:round; stroke-width:2; stroke-opacity:0.1; fill:none" points="
  156.598,958.887 2352.76,958.887 
  "/>
<polyline clip-path="url(#clip542)" style="stroke:#000000; stroke-linecap:butt; stroke-linejoin:round; stroke-width:2; stroke-opacity:0.1; fill:none" points="
  156.598,692.677 2352.76,692.677 
  "/>
<polyline clip-path="url(#clip542)" style="stroke:#000000; stroke-linecap:butt; stroke-linejoin:round; stroke-width:2; stroke-opacity:0.1; fill:none" points="
  156.598,426.467 2352.76,426.467 
  "/>
<polyline clip-path="url(#clip542)" style="stroke:#000000; stroke-linecap:butt; stroke-linejoin:round; stroke-width:2; stroke-opacity:0.1; fill:none" points="
  156.598,160.256 2352.76,160.256 
  "/>
<polyline clip-path="url(#clip540)" style="stroke:#000000; stroke-linecap:butt; stroke-linejoin:round; stroke-width:4; stroke-opacity:1; fill:none" points="
  156.598,1423.18 156.598,123.472 
  "/>
<polyline clip-path="url(#clip540)" style="stroke:#000000; stroke-linecap:butt; stroke-linejoin:round; stroke-width:4; stroke-opacity:1; fill:none" points="
  156.598,1225.1 175.496,1225.1 
  "/>
<polyline clip-path="url(#clip540)" style="stroke:#000000; stroke-linecap:butt; stroke-linejoin:round; stroke-width:4; stroke-opacity:1; fill:none" points="
  156.598,958.887 175.496,958.887 
  "/>
<polyline clip-path="url(#clip540)" style="stroke:#000000; stroke-linecap:butt; stroke-linejoin:round; stroke-width:4; stroke-opacity:1; fill:none" points="
  156.598,692.677 175.496,692.677 
  "/>
<polyline clip-path="url(#clip540)" style="stroke:#000000; stroke-linecap:butt; stroke-linejoin:round; stroke-width:4; stroke-opacity:1; fill:none" points="
  156.598,426.467 175.496,426.467 
  "/>
<polyline clip-path="url(#clip540)" style="stroke:#000000; stroke-linecap:butt; stroke-linejoin:round; stroke-width:4; stroke-opacity:1; fill:none" points="
  156.598,160.256 175.496,160.256 
  "/>
<path clip-path="url(#clip540)" d="M65.0198 1210.9 Q61.4087 1210.9 59.58 1214.46 Q57.7745 1218 57.7745 1225.13 Q57.7745 1232.24 59.58 1235.8 Q61.4087 1239.35 65.0198 1239.35 Q68.6541 1239.35 70.4596 1235.8 Q72.2883 1232.24 72.2883 1225.13 Q72.2883 1218 70.4596 1214.46 Q68.6541 1210.9 65.0198 1210.9 M65.0198 1207.19 Q70.83 1207.19 73.8855 1211.8 Q76.9642 1216.38 76.9642 1225.13 Q76.9642 1233.86 73.8855 1238.47 Q70.83 1243.05 65.0198 1243.05 Q59.2097 1243.05 56.131 1238.47 Q53.0754 1233.86 53.0754 1225.13 Q53.0754 1216.38 56.131 1211.8 Q59.2097 1207.19 65.0198 1207.19 Z" fill="#000000" fill-rule="evenodd" fill-opacity="1" /><path clip-path="url(#clip540)" d="M85.1818 1236.5 L90.066 1236.5 L90.066 1242.38 L85.1818 1242.38 L85.1818 1236.5 Z" fill="#000000" fill-rule="evenodd" fill-opacity="1" /><path clip-path="url(#clip540)" d="M104.279 1238.44 L120.598 1238.44 L120.598 1242.38 L98.6539 1242.38 L98.6539 1238.44 Q101.316 1235.69 105.899 1231.06 Q110.506 1226.41 111.686 1225.06 Q113.932 1222.54 114.811 1220.8 Q115.714 1219.04 115.714 1217.35 Q115.714 1214.6 113.77 1212.86 Q111.848 1211.13 108.746 1211.13 Q106.547 1211.13 104.094 1211.89 Q101.663 1212.66 98.8854 1214.21 L98.8854 1209.48 Q101.709 1208.35 104.163 1207.77 Q106.617 1207.19 108.654 1207.19 Q114.024 1207.19 117.219 1209.88 Q120.413 1212.56 120.413 1217.05 Q120.413 1219.18 119.603 1221.1 Q118.816 1223 116.709 1225.6 Q116.131 1226.27 113.029 1229.48 Q109.927 1232.68 104.279 1238.44 Z" fill="#000000" fill-rule="evenodd" fill-opacity="1" /><path clip-path="url(#clip540)" d="M62.9365 944.686 Q59.3254 944.686 57.4967 948.251 Q55.6912 951.792 55.6912 958.922 Q55.6912 966.028 57.4967 969.593 Q59.3254 973.135 62.9365 973.135 Q66.5707 973.135 68.3763 969.593 Q70.205 966.028 70.205 958.922 Q70.205 951.792 68.3763 948.251 Q66.5707 944.686 62.9365 944.686 M62.9365 940.982 Q68.7467 940.982 71.8022 945.589 Q74.8809 950.172 74.8809 958.922 Q74.8809 967.649 71.8022 972.255 Q68.7467 976.839 62.9365 976.839 Q57.1264 976.839 54.0477 972.255 Q50.9921 967.649 50.9921 958.922 Q50.9921 950.172 54.0477 945.589 Q57.1264 940.982 62.9365 940.982 Z" fill="#000000" fill-rule="evenodd" fill-opacity="1" /><path clip-path="url(#clip540)" d="M83.0984 970.288 L87.9827 970.288 L87.9827 976.167 L83.0984 976.167 L83.0984 970.288 Z" fill="#000000" fill-rule="evenodd" fill-opacity="1" /><path clip-path="url(#clip540)" d="M111.015 945.681 L99.2095 964.13 L111.015 964.13 L111.015 945.681 M109.788 941.607 L115.668 941.607 L115.668 964.13 L120.598 964.13 L120.598 968.019 L115.668 968.019 L115.668 976.167 L111.015 976.167 L111.015 968.019 L95.4132 968.019 L95.4132 963.505 L109.788 941.607 Z" fill="#000000" fill-rule="evenodd" fill-opacity="1" /><path clip-path="url(#clip540)" d="M63.2606 678.476 Q59.6495 678.476 57.8208 682.04 Q56.0152 685.582 56.0152 692.712 Q56.0152 699.818 57.8208 703.383 Q59.6495 706.925 63.2606 706.925 Q66.8948 706.925 68.7004 703.383 Q70.5291 699.818 70.5291 692.712 Q70.5291 685.582 68.7004 682.04 Q66.8948 678.476 63.2606 678.476 M63.2606 674.772 Q69.0707 674.772 72.1263 679.378 Q75.205 683.962 75.205 692.712 Q75.205 701.439 72.1263 706.045 Q69.0707 710.628 63.2606 710.628 Q57.4504 710.628 54.3717 706.045 Q51.3162 701.439 51.3162 692.712 Q51.3162 683.962 54.3717 679.378 Q57.4504 674.772 63.2606 674.772 Z" fill="#000000" fill-rule="evenodd" fill-opacity="1" /><path clip-path="url(#clip540)" d="M83.4225 704.077 L88.3067 704.077 L88.3067 709.957 L83.4225 709.957 L83.4225 704.077 Z" fill="#000000" fill-rule="evenodd" fill-opacity="1" /><path clip-path="url(#clip540)" d="M109.071 690.814 Q105.922 690.814 104.071 692.966 Q102.242 695.119 102.242 698.869 Q102.242 702.596 104.071 704.772 Q105.922 706.925 109.071 706.925 Q112.219 706.925 114.047 704.772 Q115.899 702.596 115.899 698.869 Q115.899 695.119 114.047 692.966 Q112.219 690.814 109.071 690.814 M118.353 676.161 L118.353 680.42 Q116.594 679.587 114.788 679.147 Q113.006 678.707 111.246 678.707 Q106.617 678.707 104.163 681.832 Q101.733 684.957 101.385 691.277 Q102.751 689.263 104.811 688.198 Q106.871 687.11 109.348 687.11 Q114.557 687.11 117.566 690.281 Q120.598 693.429 120.598 698.869 Q120.598 704.193 117.45 707.411 Q114.302 710.628 109.071 710.628 Q103.075 710.628 99.9039 706.045 Q96.7326 701.439 96.7326 692.712 Q96.7326 684.517 100.621 679.656 Q104.51 674.772 111.061 674.772 Q112.82 674.772 114.603 675.119 Q116.408 675.466 118.353 676.161 Z" fill="#000000" fill-rule="evenodd" fill-opacity="1" /><path clip-path="url(#clip540)" d="M63.5152 412.265 Q59.9041 412.265 58.0754 415.83 Q56.2699 419.372 56.2699 426.501 Q56.2699 433.608 58.0754 437.173 Q59.9041 440.714 63.5152 440.714 Q67.1494 440.714 68.955 437.173 Q70.7837 433.608 70.7837 426.501 Q70.7837 419.372 68.955 415.83 Q67.1494 412.265 63.5152 412.265 M63.5152 408.562 Q69.3254 408.562 72.3809 413.168 Q75.4596 417.751 75.4596 426.501 Q75.4596 435.228 72.3809 439.835 Q69.3254 444.418 63.5152 444.418 Q57.7051 444.418 54.6264 439.835 Q51.5708 435.228 51.5708 426.501 Q51.5708 417.751 54.6264 413.168 Q57.7051 408.562 63.5152 408.562 Z" fill="#000000" fill-rule="evenodd" fill-opacity="1" /><path clip-path="url(#clip540)" d="M83.6771 437.867 L88.5614 437.867 L88.5614 443.747 L83.6771 443.747 L83.6771 437.867 Z" fill="#000000" fill-rule="evenodd" fill-opacity="1" /><path clip-path="url(#clip540)" d="M108.746 427.335 Q105.413 427.335 103.492 429.117 Q101.594 430.899 101.594 434.024 Q101.594 437.149 103.492 438.932 Q105.413 440.714 108.746 440.714 Q112.08 440.714 114.001 438.932 Q115.922 437.126 115.922 434.024 Q115.922 430.899 114.001 429.117 Q112.103 427.335 108.746 427.335 M104.071 425.344 Q101.061 424.603 99.3715 422.543 Q97.7048 420.483 97.7048 417.52 Q97.7048 413.376 100.645 410.969 Q103.608 408.562 108.746 408.562 Q113.908 408.562 116.848 410.969 Q119.788 413.376 119.788 417.52 Q119.788 420.483 118.098 422.543 Q116.432 424.603 113.445 425.344 Q116.825 426.131 118.7 428.423 Q120.598 430.714 120.598 434.024 Q120.598 439.048 117.52 441.733 Q114.464 444.418 108.746 444.418 Q103.029 444.418 99.9502 441.733 Q96.8947 439.048 96.8947 434.024 Q96.8947 430.714 98.7928 428.423 Q100.691 426.131 104.071 425.344 M102.358 417.96 Q102.358 420.645 104.024 422.15 Q105.714 423.654 108.746 423.654 Q111.756 423.654 113.445 422.15 Q115.158 420.645 115.158 417.96 Q115.158 415.275 113.445 413.77 Q111.756 412.265 108.746 412.265 Q105.714 412.265 104.024 413.77 Q102.358 415.275 102.358 417.96 Z" fill="#000000" fill-rule="evenodd" fill-opacity="1" /><path clip-path="url(#clip540)" d="M54.2328 173.601 L61.8717 173.601 L61.8717 147.236 L53.5616 148.902 L53.5616 144.643 L61.8254 142.976 L66.5013 142.976 L66.5013 173.601 L74.1402 173.601 L74.1402 177.536 L54.2328 177.536 L54.2328 173.601 Z" fill="#000000" fill-rule="evenodd" fill-opacity="1" /><path clip-path="url(#clip540)" d="M83.5845 171.657 L88.4688 171.657 L88.4688 177.536 L83.5845 177.536 L83.5845 171.657 Z" fill="#000000" fill-rule="evenodd" fill-opacity="1" /><path clip-path="url(#clip540)" d="M108.654 146.055 Q105.043 146.055 103.214 149.62 Q101.409 153.161 101.409 160.291 Q101.409 167.397 103.214 170.962 Q105.043 174.504 108.654 174.504 Q112.288 174.504 114.094 170.962 Q115.922 167.397 115.922 160.291 Q115.922 153.161 114.094 149.62 Q112.288 146.055 108.654 146.055 M108.654 142.351 Q114.464 142.351 117.52 146.958 Q120.598 151.541 120.598 160.291 Q120.598 169.018 117.52 173.624 Q114.464 178.208 108.654 178.208 Q102.844 178.208 99.765 173.624 Q96.7095 169.018 96.7095 160.291 Q96.7095 151.541 99.765 146.958 Q102.844 142.351 108.654 142.351 Z" fill="#000000" fill-rule="evenodd" fill-opacity="1" /><path clip-path="url(#clip540)" d="M800.307 12.096 L838.548 12.096 L838.548 18.9825 L808.49 18.9825 L808.49 36.8875 L837.292 36.8875 L837.292 43.7741 L808.49 43.7741 L808.49 65.6895 L839.277 65.6895 L839.277 72.576 L800.307 72.576 L800.307 12.096 Z" fill="#000000" fill-rule="evenodd" fill-opacity="1" /><path clip-path="url(#clip540)" d="M882.257 34.0924 L882.257 9.54393 L889.711 9.54393 L889.711 72.576 L882.257 72.576 L882.257 65.7705 Q879.908 69.8214 876.302 71.8063 Q872.738 73.7508 867.714 73.7508 Q859.491 73.7508 854.306 67.1883 Q849.161 60.6258 849.161 49.9314 Q849.161 39.2371 854.306 32.6746 Q859.491 26.1121 867.714 26.1121 Q872.738 26.1121 876.302 28.0971 Q879.908 30.0415 882.257 34.0924 M856.858 49.9314 Q856.858 58.1548 860.22 62.8538 Q863.623 67.5124 869.537 67.5124 Q875.452 67.5124 878.854 62.8538 Q882.257 58.1548 882.257 49.9314 Q882.257 41.7081 878.854 37.0496 Q875.452 32.3505 869.537 32.3505 Q863.623 32.3505 860.22 37.0496 Q856.858 41.7081 856.858 49.9314 Z" fill="#000000" fill-rule="evenodd" fill-opacity="1" /><path clip-path="url(#clip540)" d="M934.919 34.0924 L934.919 9.54393 L942.373 9.54393 L942.373 72.576 L934.919 72.576 L934.919 65.7705 Q932.569 69.8214 928.964 71.8063 Q925.399 73.7508 920.376 73.7508 Q912.153 73.7508 906.968 67.1883 Q901.823 60.6258 901.823 49.9314 Q901.823 39.2371 906.968 32.6746 Q912.153 26.1121 920.376 26.1121 Q925.399 26.1121 928.964 28.0971 Q932.569 30.0415 934.919 34.0924 M909.52 49.9314 Q909.52 58.1548 912.882 62.8538 Q916.285 67.5124 922.199 67.5124 Q928.113 67.5124 931.516 62.8538 Q934.919 58.1548 934.919 49.9314 Q934.919 41.7081 931.516 37.0496 Q928.113 32.3505 922.199 32.3505 Q916.285 32.3505 912.882 37.0496 Q909.52 41.7081 909.52 49.9314 Z" fill="#000000" fill-rule="evenodd" fill-opacity="1" /><path clip-path="url(#clip540)" d="M976.603 76.7889 Q973.443 84.8907 970.445 87.3618 Q967.448 89.8329 962.425 89.8329 L956.47 89.8329 L956.47 83.5945 L960.845 83.5945 Q963.923 83.5945 965.625 82.1361 Q967.326 80.6778 969.392 75.2496 L970.729 71.8468 L952.378 27.2059 L960.278 27.2059 L974.456 62.6918 L988.634 27.2059 L996.533 27.2059 L976.603 76.7889 Z" fill="#000000" fill-rule="evenodd" fill-opacity="1" /><path clip-path="url(#clip540)" d="M1063.05 34.0924 L1063.05 9.54393 L1070.5 9.54393 L1070.5 72.576 L1063.05 72.576 L1063.05 65.7705 Q1060.7 69.8214 1057.09 71.8063 Q1053.53 73.7508 1048.51 73.7508 Q1040.28 73.7508 1035.1 67.1883 Q1029.95 60.6258 1029.95 49.9314 Q1029.95 39.2371 1035.1 32.6746 Q1040.28 26.1121 1048.51 26.1121 Q1053.53 26.1121 1057.09 28.0971 Q1060.7 30.0415 1063.05 34.0924 M1037.65 49.9314 Q1037.65 58.1548 1041.01 62.8538 Q1044.41 67.5124 1050.33 67.5124 Q1056.24 67.5124 1059.65 62.8538 Q1063.05 58.1548 1063.05 49.9314 Q1063.05 41.7081 1059.65 37.0496 Q1056.24 32.3505 1050.33 32.3505 Q1044.41 32.3505 1041.01 37.0496 Q1037.65 41.7081 1037.65 49.9314 Z" fill="#000000" fill-rule="evenodd" fill-opacity="1" /><path clip-path="url(#clip540)" d="M1085.86 27.2059 L1093.31 27.2059 L1093.31 72.576 L1085.86 72.576 L1085.86 27.2059 M1085.86 9.54393 L1093.31 9.54393 L1093.31 18.9825 L1085.86 18.9825 L1085.86 9.54393 Z" fill="#000000" fill-rule="evenodd" fill-opacity="1" /><path clip-path="url(#clip540)" d="M1131.87 9.54393 L1131.87 15.7418 L1124.74 15.7418 Q1120.73 15.7418 1119.15 17.3622 Q1117.61 18.9825 1117.61 23.1955 L1117.61 27.2059 L1129.89 27.2059 L1129.89 32.9987 L1117.61 32.9987 L1117.61 72.576 L1110.12 72.576 L1110.12 32.9987 L1102.99 32.9987 L1102.99 27.2059 L1110.12 27.2059 L1110.12 24.0462 Q1110.12 16.471 1113.64 13.0277 Q1117.17 9.54393 1124.83 9.54393 L1131.87 9.54393 Z" fill="#000000" fill-rule="evenodd" fill-opacity="1" /><path clip-path="url(#clip540)" d="M1161.08 9.54393 L1161.08 15.7418 L1153.95 15.7418 Q1149.94 15.7418 1148.36 17.3622 Q1146.82 18.9825 1146.82 23.1955 L1146.82 27.2059 L1159.1 27.2059 L1159.1 32.9987 L1146.82 32.9987 L1146.82 72.576 L1139.33 72.576 L1139.33 32.9987 L1132.2 32.9987 L1132.2 27.2059 L1139.33 27.2059 L1139.33 24.0462 Q1139.33 16.471 1142.85 13.0277 Q1146.38 9.54393 1154.03 9.54393 L1161.08 9.54393 Z" fill="#000000" fill-rule="evenodd" fill-opacity="1" /><path clip-path="url(#clip540)" d="M1166.55 54.671 L1166.55 27.2059 L1174 27.2059 L1174 54.3874 Q1174 60.8284 1176.51 64.0691 Q1179.03 67.2693 1184.05 67.2693 Q1190.09 67.2693 1193.57 63.421 Q1197.09 59.5726 1197.09 52.9291 L1197.09 27.2059 L1204.55 27.2059 L1204.55 72.576 L1197.09 72.576 L1197.09 65.6084 Q1194.38 69.7404 1190.77 71.7658 Q1187.21 73.7508 1182.47 73.7508 Q1174.65 73.7508 1170.6 68.8897 Q1166.55 64.0286 1166.55 54.671 M1185.31 26.1121 L1185.31 26.1121 Z" fill="#000000" fill-rule="evenodd" fill-opacity="1" /><path clip-path="url(#clip540)" d="M1248.82 28.5427 L1248.82 35.5912 Q1245.66 33.9709 1242.26 33.1607 Q1238.86 32.3505 1235.21 32.3505 Q1229.66 32.3505 1226.87 34.0519 Q1224.11 35.7533 1224.11 39.156 Q1224.11 41.7486 1226.1 43.2475 Q1228.08 44.7058 1234.08 46.0426 L1236.63 46.6097 Q1244.57 48.3111 1247.89 51.4303 Q1251.25 54.509 1251.25 60.0587 Q1251.25 66.3781 1246.23 70.0644 Q1241.25 73.7508 1232.5 73.7508 Q1228.85 73.7508 1224.88 73.0216 Q1220.95 72.3329 1216.58 70.9151 L1216.58 63.2184 Q1220.71 65.3654 1224.72 66.4591 Q1228.73 67.5124 1232.66 67.5124 Q1237.93 67.5124 1240.76 65.73 Q1243.6 63.9071 1243.6 60.6258 Q1243.6 57.5877 1241.53 55.9673 Q1239.51 54.3469 1232.58 52.8481 L1229.99 52.2405 Q1223.06 50.7821 1219.98 47.7845 Q1216.9 44.7463 1216.9 39.4801 Q1216.9 33.0797 1221.44 29.5959 Q1225.98 26.1121 1234.32 26.1121 Q1238.45 26.1121 1242.1 26.7198 Q1245.74 27.3274 1248.82 28.5427 Z" fill="#000000" fill-rule="evenodd" fill-opacity="1" /><path clip-path="url(#clip540)" d="M1263.12 27.2059 L1270.58 27.2059 L1270.58 72.576 L1263.12 72.576 L1263.12 27.2059 M1263.12 9.54393 L1270.58 9.54393 L1270.58 18.9825 L1263.12 18.9825 L1263.12 9.54393 Z" fill="#000000" fill-rule="evenodd" fill-opacity="1" /><path clip-path="url(#clip540)" d="M1280.83 27.2059 L1288.72 27.2059 L1302.9 65.2844 L1317.08 27.2059 L1324.98 27.2059 L1307.97 72.576 L1297.84 72.576 L1280.83 27.2059 Z" fill="#000000" fill-rule="evenodd" fill-opacity="1" /><path clip-path="url(#clip540)" d="M1335.27 27.2059 L1342.72 27.2059 L1342.72 72.576 L1335.27 72.576 L1335.27 27.2059 M1335.27 9.54393 L1342.72 9.54393 L1342.72 18.9825 L1335.27 18.9825 L1335.27 9.54393 Z" fill="#000000" fill-rule="evenodd" fill-opacity="1" /><path clip-path="url(#clip540)" d="M1365.69 14.324 L1365.69 27.2059 L1381.05 27.2059 L1381.05 32.9987 L1365.69 32.9987 L1365.69 57.6282 Q1365.69 63.1779 1367.19 64.7578 Q1368.73 66.3376 1373.39 66.3376 L1381.05 66.3376 L1381.05 72.576 L1373.39 72.576 Q1364.76 72.576 1361.48 69.3758 Q1358.2 66.1351 1358.2 57.6282 L1358.2 32.9987 L1352.73 32.9987 L1352.73 27.2059 L1358.2 27.2059 L1358.2 14.324 L1365.69 14.324 Z" fill="#000000" fill-rule="evenodd" fill-opacity="1" /><path clip-path="url(#clip540)" d="M1409.73 76.7889 Q1406.57 84.8907 1403.57 87.3618 Q1400.57 89.8329 1395.55 89.8329 L1389.59 89.8329 L1389.59 83.5945 L1393.97 83.5945 Q1397.05 83.5945 1398.75 82.1361 Q1400.45 80.6778 1402.51 75.2496 L1403.85 71.8468 L1385.5 27.2059 L1393.4 27.2059 L1407.58 62.6918 L1421.76 27.2059 L1429.66 27.2059 L1409.73 76.7889 Z" fill="#000000" fill-rule="evenodd" fill-opacity="1" /><path clip-path="url(#clip540)" d="M1501.64 35.9153 Q1504.44 30.8922 1508.32 28.5022 Q1512.21 26.1121 1517.48 26.1121 Q1524.57 26.1121 1528.42 31.0947 Q1532.27 36.0368 1532.27 45.1919 L1532.27 72.576 L1524.77 72.576 L1524.77 45.4349 Q1524.77 38.913 1522.46 35.7533 Q1520.15 32.5936 1515.41 32.5936 Q1509.62 32.5936 1506.26 36.4419 Q1502.9 40.2903 1502.9 46.9338 L1502.9 72.576 L1495.4 72.576 L1495.4 45.4349 Q1495.4 38.8725 1493.09 35.7533 Q1490.78 32.5936 1485.96 32.5936 Q1480.25 32.5936 1476.89 36.4824 Q1473.53 40.3308 1473.53 46.9338 L1473.53 72.576 L1466.03 72.576 L1466.03 27.2059 L1473.53 27.2059 L1473.53 34.2544 Q1476.08 30.082 1479.64 28.0971 Q1483.21 26.1121 1488.11 26.1121 Q1493.05 26.1121 1496.5 28.6237 Q1499.98 31.1352 1501.64 35.9153 Z" fill="#000000" fill-rule="evenodd" fill-opacity="1" /><path clip-path="url(#clip540)" d="M1564.71 32.4315 Q1558.72 32.4315 1555.23 37.1306 Q1551.75 41.7891 1551.75 49.9314 Q1551.75 58.0738 1555.19 62.7728 Q1558.68 67.4314 1564.71 67.4314 Q1570.67 67.4314 1574.15 62.7323 Q1577.64 58.0333 1577.64 49.9314 Q1577.64 41.8701 1574.15 37.1711 Q1570.67 32.4315 1564.71 32.4315 M1564.71 26.1121 Q1574.44 26.1121 1579.98 32.4315 Q1585.53 38.7509 1585.53 49.9314 Q1585.53 61.0714 1579.98 67.4314 Q1574.44 73.7508 1564.71 73.7508 Q1554.95 73.7508 1549.4 67.4314 Q1543.89 61.0714 1543.89 49.9314 Q1543.89 38.7509 1549.4 32.4315 Q1554.95 26.1121 1564.71 26.1121 Z" fill="#000000" fill-rule="evenodd" fill-opacity="1" /><path clip-path="url(#clip540)" d="M1627.75 34.0924 L1627.75 9.54393 L1635.2 9.54393 L1635.2 72.576 L1627.75 72.576 L1627.75 65.7705 Q1625.4 69.8214 1621.79 71.8063 Q1618.23 73.7508 1613.2 73.7508 Q1604.98 73.7508 1599.79 67.1883 Q1594.65 60.6258 1594.65 49.9314 Q1594.65 39.2371 1599.79 32.6746 Q1604.98 26.1121 1613.2 26.1121 Q1618.23 26.1121 1621.79 28.0971 Q1625.4 30.0415 1627.75 34.0924 M1602.35 49.9314 Q1602.35 58.1548 1605.71 62.8538 Q1609.11 67.5124 1615.03 67.5124 Q1620.94 67.5124 1624.34 62.8538 Q1627.75 58.1548 1627.75 49.9314 Q1627.75 41.7081 1624.34 37.0496 Q1620.94 32.3505 1615.03 32.3505 Q1609.11 32.3505 1605.71 37.0496 Q1602.35 41.7081 1602.35 49.9314 Z" fill="#000000" fill-rule="evenodd" fill-opacity="1" /><path clip-path="url(#clip540)" d="M1689.36 48.0275 L1689.36 51.6733 L1655.09 51.6733 Q1655.57 59.3701 1659.71 63.421 Q1663.88 67.4314 1671.29 67.4314 Q1675.59 67.4314 1679.6 66.3781 Q1683.65 65.3249 1687.62 63.2184 L1687.62 70.267 Q1683.61 71.9684 1679.39 72.8596 Q1675.18 73.7508 1670.85 73.7508 Q1659.99 73.7508 1653.63 67.4314 Q1647.31 61.1119 1647.31 50.3365 Q1647.31 39.1965 1653.31 32.6746 Q1659.34 26.1121 1669.55 26.1121 Q1678.71 26.1121 1684.01 32.0264 Q1689.36 37.9003 1689.36 48.0275 M1681.91 45.84 Q1681.82 39.7232 1678.46 36.0774 Q1675.14 32.4315 1669.63 32.4315 Q1663.39 32.4315 1659.63 35.9558 Q1655.9 39.4801 1655.33 45.8805 L1681.91 45.84 Z" fill="#000000" fill-rule="evenodd" fill-opacity="1" /><path clip-path="url(#clip540)" d="M1701.59 9.54393 L1709.05 9.54393 L1709.05 72.576 L1701.59 72.576 L1701.59 9.54393 Z" fill="#000000" fill-rule="evenodd" fill-opacity="1" /><polyline clip-path="url(#clip542)" style="stroke:#009af9; stroke-linecap:butt; stroke-linejoin:round; stroke-width:4; stroke-opacity:1; fill:none" points="
  156.598,160.256 165.383,160.333 174.167,160.562 182.952,160.943 191.737,161.478 200.521,162.164 209.306,163.001 218.091,163.99 226.875,165.13 235.66,166.419 
  244.445,167.857 253.229,169.444 262.014,171.178 270.798,173.059 279.583,175.085 288.368,177.255 297.152,179.568 305.937,182.022 314.722,184.616 323.506,187.35 
  332.291,190.22 341.075,193.226 349.86,196.366 358.645,199.638 367.429,203.04 376.214,206.571 384.999,210.228 393.783,214.01 402.568,217.914 411.353,221.939 
  420.137,226.082 428.922,230.341 437.706,234.714 446.491,239.199 455.276,243.793 464.06,248.494 472.845,253.3 481.63,258.207 490.414,263.215 499.199,268.32 
  507.983,273.521 516.768,278.813 525.553,284.195 534.337,289.665 543.122,295.22 551.907,300.857 560.691,306.573 569.476,312.367 578.261,318.236 587.045,324.176 
  595.83,330.186 604.614,336.263 613.399,342.405 622.184,348.608 630.968,354.871 639.753,361.19 648.538,367.564 657.322,373.989 666.107,380.464 674.891,386.986 
  683.676,393.552 692.461,400.16 701.245,406.808 710.03,413.493 718.815,420.213 727.599,426.966 736.384,433.748 745.168,440.56 753.953,447.396 762.738,454.257 
  771.522,461.139 780.307,468.041 789.092,474.96 797.876,481.894 806.661,488.841 815.446,495.8 824.23,502.768 833.015,509.744 841.799,516.725 850.584,523.71 
  859.369,530.697 868.153,537.684 876.938,544.669 885.723,551.652 894.507,558.629 903.292,565.6 912.076,572.564 920.861,579.518 929.646,586.461 938.43,593.391 
  947.215,600.308 956,607.21 964.784,614.095 973.569,620.963 982.354,627.812 991.138,634.641 999.923,641.448 1008.71,648.233 1017.49,654.995 1026.28,661.732 
  1035.06,668.444 1043.85,675.129 1052.63,681.787 1061.42,688.416 1070.2,695.016 1078.98,701.586 1087.77,708.126 1096.55,714.633 1105.34,721.109 1114.12,727.551 
  1122.91,733.96 1131.69,740.334 1140.48,746.673 1149.26,752.977 1158.05,759.244 1166.83,765.475 1175.62,771.669 1184.4,777.825 1193.18,783.944 1201.97,790.023 
  1210.75,796.064 1219.54,802.066 1228.32,808.028 1237.11,813.95 1245.89,819.832 1254.68,825.674 1263.46,831.475 1272.25,837.235 1281.03,842.954 1289.82,848.631 
  1298.6,854.267 1307.38,859.861 1316.17,865.414 1324.95,870.924 1333.74,876.393 1342.52,881.82 1351.31,887.204 1360.09,892.546 1368.88,897.846 1377.66,903.104 
  1386.45,908.32 1395.23,913.493 1404.02,918.624 1412.8,923.713 1421.59,928.76 1430.37,933.764 1439.15,938.727 1447.94,943.648 1456.72,948.527 1465.51,953.364 
  1474.29,958.16 1483.08,962.914 1491.86,967.627 1500.65,972.298 1509.43,976.929 1518.22,981.519 1527,986.068 1535.79,990.576 1544.57,995.044 1553.35,999.472 
  1562.14,1003.86 1570.92,1008.21 1579.71,1012.52 1588.49,1016.79 1597.28,1021.02 1606.06,1025.21 1614.85,1029.36 1623.63,1033.47 1632.42,1037.55 1641.2,1041.59 
  1649.99,1045.58 1658.77,1049.55 1667.55,1053.47 1676.34,1057.36 1685.12,1061.21 1693.91,1065.03 1702.69,1068.8 1711.48,1072.55 1720.26,1076.25 1729.05,1079.92 
  1737.83,1083.56 1746.62,1087.16 1755.4,1090.73 1764.19,1094.26 1772.97,1097.76 1781.75,1101.22 1790.54,1104.65 1799.32,1108.05 1808.11,1111.41 1816.89,1114.74 
  1825.68,1118.04 1834.46,1121.31 1843.25,1124.54 1852.03,1127.74 1860.82,1130.92 1869.6,1134.06 1878.39,1137.17 1887.17,1140.24 1895.96,1143.29 1904.74,1146.31 
  1913.52,1149.3 1922.31,1152.26 1931.09,1155.19 1939.88,1158.09 1948.66,1160.96 1957.45,1163.81 1966.23,1166.63 1975.02,1169.41 1983.8,1172.17 1992.59,1174.91 
  2001.37,1177.61 2010.16,1180.29 2018.94,1182.95 2027.72,1185.57 2036.51,1188.17 2045.29,1190.75 2054.08,1193.3 2062.86,1195.82 2071.65,1198.32 2080.43,1200.8 
  2089.22,1203.25 2098,1205.67 2106.79,1208.07 2115.57,1210.45 2124.36,1212.8 2133.14,1215.14 2141.92,1217.44 2150.71,1219.73 2159.49,1221.99 2168.28,1224.23 
  2177.06,1226.45 2185.85,1228.64 2194.63,1230.82 2203.42,1232.97 2212.2,1235.1 2220.99,1237.21 2229.77,1239.3 2238.56,1241.37 2247.34,1243.42 2256.12,1245.45 
  2264.91,1247.46 2273.69,1249.44 2282.48,1251.41 2291.26,1253.36 2300.05,1255.29 2308.83,1257.21 2317.62,1259.1 2326.4,1260.97 2335.19,1262.83 2343.97,1264.67 
  2352.76,1266.49 
  "/>
<polyline clip-path="url(#clip542)" style="stroke:#e26f46; stroke-linecap:butt; stroke-linejoin:round; stroke-width:4; stroke-opacity:1; fill:none" points="
  156.598,160.256 165.383,160.365 174.167,160.693 182.952,161.238 191.737,162.001 200.521,162.98 209.306,164.176 218.091,165.587 226.875,167.213 235.66,169.051 
  244.445,171.102 253.229,173.362 262.014,175.832 270.798,178.508 279.583,181.389 288.368,184.473 297.152,187.758 305.937,191.241 314.722,194.92 323.506,198.792 
  332.291,202.854 341.075,207.105 349.86,211.54 358.645,216.157 367.429,220.952 376.214,225.923 384.999,231.066 393.783,236.377 402.568,241.853 411.353,247.491 
  420.137,253.287 428.922,259.236 437.706,265.335 446.491,271.581 455.276,277.969 464.06,284.496 472.845,291.157 481.63,297.948 490.414,304.866 499.199,311.905 
  507.983,319.062 516.768,326.334 525.553,333.714 534.337,341.201 543.122,348.788 551.907,356.472 560.691,364.249 569.476,372.115 578.261,380.065 587.045,388.096 
  595.83,396.202 604.614,404.381 613.399,412.628 622.184,420.938 630.968,429.309 639.753,437.735 648.538,446.213 657.322,454.74 666.107,463.31 674.891,471.921 
  683.676,480.569 692.461,489.249 701.245,497.96 710.03,506.695 718.815,515.453 727.599,524.23 736.384,533.023 745.168,541.827 753.953,550.641 762.738,559.46 
  771.522,568.282 780.307,577.103 789.092,585.921 797.876,594.732 806.661,603.535 815.446,612.325 824.23,621.101 833.015,629.86 841.799,638.6 850.584,647.317 
  859.369,656.009 868.153,664.675 876.938,673.312 885.723,681.918 894.507,690.49 903.292,699.027 912.076,707.527 920.861,715.988 929.646,724.409 938.43,732.786 
  947.215,741.12 956,749.407 964.784,757.648 973.569,765.84 982.354,773.981 991.138,782.072 999.923,790.109 1008.71,798.093 1017.49,806.022 1026.28,813.895 
  1035.06,821.71 1043.85,829.468 1052.63,837.167 1061.42,844.807 1070.2,852.385 1078.98,859.903 1087.77,867.359 1096.55,874.752 1105.34,882.083 1114.12,889.349 
  1122.91,896.552 1131.69,903.69 1140.48,910.763 1149.26,917.772 1158.05,924.714 1166.83,931.591 1175.62,938.402 1184.4,945.146 1193.18,951.825 1201.97,958.436 
  1210.75,964.982 1219.54,971.46 1228.32,977.872 1237.11,984.218 1245.89,990.497 1254.68,996.709 1263.46,1002.86 1272.25,1008.94 1281.03,1014.95 1289.82,1020.9 
  1298.6,1026.78 1307.38,1032.6 1316.17,1038.35 1324.95,1044.03 1333.74,1049.66 1342.52,1055.21 1351.31,1060.71 1360.09,1066.14 1368.88,1071.5 1377.66,1076.8 
  1386.45,1082.05 1395.23,1087.22 1404.02,1092.34 1412.8,1097.4 1421.59,1102.39 1430.37,1107.32 1439.15,1112.2 1447.94,1117.01 1456.72,1121.76 1465.51,1126.46 
  1474.29,1131.1 1483.08,1135.68 1491.86,1140.2 1500.65,1144.67 1509.43,1149.08 1518.22,1153.43 1527,1157.73 1535.79,1161.97 1544.57,1166.16 1553.35,1170.3 
  1562.14,1174.38 1570.92,1178.41 1579.71,1182.39 1588.49,1186.32 1597.28,1190.2 1606.06,1194.02 1614.85,1197.8 1623.63,1201.52 1632.42,1205.2 1641.2,1208.83 
  1649.99,1212.41 1658.77,1215.95 1667.55,1219.44 1676.34,1222.88 1685.12,1226.28 1693.91,1229.63 1702.69,1232.94 1711.48,1236.2 1720.26,1239.42 1729.05,1242.59 
  1737.83,1245.73 1746.62,1248.82 1755.4,1251.87 1764.19,1254.88 1772.97,1257.85 1781.75,1260.78 1790.54,1263.67 1799.32,1266.52 1808.11,1269.34 1816.89,1272.11 
  1825.68,1274.85 1834.46,1277.55 1843.25,1280.22 1852.03,1282.84 1860.82,1285.44 1869.6,1287.99 1878.39,1290.52 1887.17,1293.01 1895.96,1295.46 1904.74,1297.89 
  1913.52,1300.27 1922.31,1302.63 1931.09,1304.96 1939.88,1307.25 1948.66,1309.51 1957.45,1311.75 1966.23,1313.95 1975.02,1316.12 1983.8,1318.26 1992.59,1320.37 
  2001.37,1322.46 2010.16,1324.52 2018.94,1326.55 2027.72,1328.55 2036.51,1330.52 2045.29,1332.47 2054.08,1334.39 2062.86,1336.28 2071.65,1338.15 2080.43,1340 
  2089.22,1341.82 2098,1343.61 2106.79,1345.38 2115.57,1347.13 2124.36,1348.85 2133.14,1350.55 2141.92,1352.23 2150.71,1353.89 2159.49,1355.52 2168.28,1357.13 
  2177.06,1358.72 2185.85,1360.29 2194.63,1361.83 2203.42,1363.36 2212.2,1364.86 2220.99,1366.35 2229.77,1367.81 2238.56,1369.26 2247.34,1370.69 2256.12,1372.09 
  2264.91,1373.48 2273.69,1374.85 2282.48,1376.2 2291.26,1377.54 2300.05,1378.85 2308.83,1380.15 2317.62,1381.44 2326.4,1382.7 2335.19,1383.95 2343.97,1385.18 
  2352.76,1386.4 
  "/>
<path clip-path="url(#clip540)" d="
M1948.7 322.316 L2279.55 322.316 L2279.55 166.796 L1948.7 166.796  Z
  " fill="#ffffff" fill-rule="evenodd" fill-opacity="1"/>
<polyline clip-path="url(#clip540)" style="stroke:#000000; stroke-linecap:butt; stroke-linejoin:round; stroke-width:4; stroke-opacity:1; fill:none" points="
  1948.7,322.316 2279.55,322.316 2279.55,166.796 1948.7,166.796 1948.7,322.316 
  "/>
<polyline clip-path="url(#clip540)" style="stroke:#009af9; stroke-linecap:butt; stroke-linejoin:round; stroke-width:4; stroke-opacity:1; fill:none" points="
  1973.11,218.636 2119.52,218.636 
  "/>
<path clip-path="url(#clip540)" d="M2162.83 222.652 Q2162.83 218.022 2160.91 215.476 Q2159.01 212.93 2155.56 212.93 Q2152.14 212.93 2150.22 215.476 Q2148.32 218.022 2148.32 222.652 Q2148.32 227.258 2150.22 229.805 Q2152.14 232.351 2155.56 232.351 Q2159.01 232.351 2160.91 229.805 Q2162.83 227.258 2162.83 222.652 M2167.09 232.698 Q2167.09 239.318 2164.15 242.536 Q2161.21 245.777 2155.15 245.777 Q2152.9 245.777 2150.91 245.43 Q2148.92 245.105 2147.04 244.411 L2147.04 240.268 Q2148.92 241.286 2150.75 241.772 Q2152.58 242.258 2154.47 242.258 Q2158.66 242.258 2160.75 240.059 Q2162.83 237.883 2162.83 233.462 L2162.83 231.356 Q2161.51 233.647 2159.45 234.781 Q2157.39 235.916 2154.52 235.916 Q2149.75 235.916 2146.84 232.281 Q2143.92 228.647 2143.92 222.652 Q2143.92 216.633 2146.84 212.999 Q2149.75 209.365 2154.52 209.365 Q2157.39 209.365 2159.45 210.499 Q2161.51 211.633 2162.83 213.925 L2162.83 209.99 L2167.09 209.99 L2167.09 232.698 Z" fill="#000000" fill-rule="evenodd" fill-opacity="1" /><path clip-path="url(#clip540)" d="M2186.09 199.944 Q2182.99 205.268 2181.49 210.476 Q2179.98 215.684 2179.98 221.032 Q2179.98 226.379 2181.49 231.633 Q2183.02 236.865 2186.09 242.166 L2182.39 242.166 Q2178.92 236.726 2177.18 231.471 Q2175.47 226.217 2175.47 221.032 Q2175.47 215.87 2177.18 210.638 Q2178.9 205.407 2182.39 199.944 L2186.09 199.944 Z" fill="#000000" fill-rule="evenodd" fill-opacity="1" /><path clip-path="url(#clip540)" d="M2206.79 232.976 Q2209.84 232.999 2211.67 234.735 Q2213.62 236.564 2213.62 239.342 Q2213.62 242.004 2211.9 243.855 Q2210.05 245.869 2206.28 245.869 Q2206.28 244.133 2206.28 242.374 Q2207.88 242.49 2208.85 241.471 Q2209.59 240.661 2209.59 239.805 Q2209.59 238.578 2208.85 237.559 Q2208.13 236.587 2206.79 236.587 Q2192.37 236.587 2192.37 226.471 Q2192.37 219.527 2200.08 217.49 Q2193.59 216.657 2193.59 210.638 Q2193.59 206.078 2198.69 204.18 L2193.87 204.18 L2193.87 199.897 L2212.14 199.897 L2212.14 204.18 Q2197.58 204.18 2197.58 210.916 Q2197.58 215.337 2209.8 215.545 L2209.8 219.481 Q2196.6 218.971 2196.65 226.471 Q2196.67 232.744 2206.79 232.976 Z" fill="#000000" fill-rule="evenodd" fill-opacity="1" /><path clip-path="url(#clip540)" d="M2220.12 199.944 L2223.83 199.944 Q2227.3 205.407 2229.01 210.638 Q2230.75 215.87 2230.75 221.032 Q2230.75 226.217 2229.01 231.471 Q2227.3 236.726 2223.83 242.166 L2220.12 242.166 Q2223.2 236.865 2224.71 231.633 Q2226.23 226.379 2226.23 221.032 Q2226.23 215.684 2224.71 210.476 Q2223.2 205.268 2220.12 199.944 Z" fill="#000000" fill-rule="evenodd" fill-opacity="1" /><polyline clip-path="url(#clip540)" style="stroke:#e26f46; stroke-linecap:butt; stroke-linejoin:round; stroke-width:4; stroke-opacity:1; fill:none" points="
  1973.11,270.476 2119.52,270.476 
  "/>
<path clip-path="url(#clip540)" d="M2160.42 251.737 L2160.42 255.279 L2156.35 255.279 Q2154.06 255.279 2153.15 256.205 Q2152.28 257.131 2152.28 259.538 L2152.28 261.83 L2159.29 261.83 L2159.29 265.14 L2152.28 265.14 L2152.28 287.756 L2147.99 287.756 L2147.99 265.14 L2143.92 265.14 L2143.92 261.83 L2147.99 261.83 L2147.99 260.024 Q2147.99 255.696 2150.01 253.728 Q2152.02 251.737 2156.4 251.737 L2160.42 251.737 Z" fill="#000000" fill-rule="evenodd" fill-opacity="1" /><path clip-path="url(#clip540)" d="M2174.22 251.784 Q2171.12 257.108 2169.61 262.316 Q2168.11 267.524 2168.11 272.872 Q2168.11 278.219 2169.61 283.473 Q2171.14 288.705 2174.22 294.006 L2170.52 294.006 Q2167.04 288.566 2165.31 283.311 Q2163.59 278.057 2163.59 272.872 Q2163.59 267.71 2165.31 262.478 Q2167.02 257.247 2170.52 251.784 L2174.22 251.784 Z" fill="#000000" fill-rule="evenodd" fill-opacity="1" /><path clip-path="url(#clip540)" d="M2194.91 284.816 Q2197.97 284.839 2199.8 286.575 Q2201.74 288.404 2201.74 291.182 Q2201.74 293.844 2200.03 295.695 Q2198.18 297.709 2194.4 297.709 Q2194.4 295.973 2194.4 294.214 Q2196 294.33 2196.97 293.311 Q2197.71 292.501 2197.71 291.645 Q2197.71 290.418 2196.97 289.399 Q2196.26 288.427 2194.91 288.427 Q2180.49 288.427 2180.49 278.311 Q2180.49 271.367 2188.2 269.33 Q2181.72 268.497 2181.72 262.478 Q2181.72 257.918 2186.81 256.02 L2182 256.02 L2182 251.737 L2200.26 251.737 L2200.26 256.02 Q2185.7 256.02 2185.7 262.756 Q2185.7 267.177 2197.92 267.385 L2197.92 271.321 Q2184.73 270.811 2184.78 278.311 Q2184.8 284.584 2194.91 284.816 Z" fill="#000000" fill-rule="evenodd" fill-opacity="1" /><path clip-path="url(#clip540)" d="M2208.25 251.784 L2211.95 251.784 Q2215.42 257.247 2217.14 262.478 Q2218.87 267.71 2218.87 272.872 Q2218.87 278.057 2217.14 283.311 Q2215.42 288.566 2211.95 294.006 L2208.25 294.006 Q2211.33 288.705 2212.83 283.473 Q2214.36 278.219 2214.36 272.872 Q2214.36 267.524 2212.83 262.316 Q2211.33 257.108 2208.25 251.784 Z" fill="#000000" fill-rule="evenodd" fill-opacity="1" /></svg>
