<?xml version="1.0" encoding="utf-8"?>
<svg xmlns="http://www.w3.org/2000/svg" xmlns:xlink="http://www.w3.org/1999/xlink" width="600" height="400" viewBox="0 0 2400 1600">
<defs>
  <clipPath id="clip110">
    <rect x="0" y="0" width="2400" height="1600"/>
  </clipPath>
</defs>
<path clip-path="url(#clip110)" d="M0 1600 L2400 1600 L2400 0 L0 0  Z" fill="#ffffff" fill-rule="evenodd" fill-opacity="1"/>
<defs>
  <clipPath id="clip111">
    <rect x="480" y="0" width="1681" height="1600"/>
  </clipPath>
</defs>
<path clip-path="url(#clip110)" d="M368.446 1423.18 L2352.76 1423.18 L2352.76 47.2441 L368.446 47.2441  Z" fill="#ffffff" fill-rule="evenodd" fill-opacity="1"/>
<defs>
  <clipPath id="clip112">
    <rect x="368" y="47" width="1985" height="1377"/>
  </clipPath>
</defs>
<polyline clip-path="url(#clip112)" style="stroke:#000000; stroke-linecap:round; stroke-linejoin:round; stroke-width:2; stroke-opacity:0.1; fill:none" points="424.606,1423.18 424.606,47.2441 "/>
<polyline clip-path="url(#clip112)" style="stroke:#000000; stroke-linecap:round; stroke-linejoin:round; stroke-width:2; stroke-opacity:0.1; fill:none" points="836.868,1423.18 836.868,47.2441 "/>
<polyline clip-path="url(#clip112)" style="stroke:#000000; stroke-linecap:round; stroke-linejoin:round; stroke-width:2; stroke-opacity:0.1; fill:none" points="1249.13,1423.18 1249.13,47.2441 "/>
<polyline clip-path="url(#clip112)" style="stroke:#000000; stroke-linecap:round; stroke-linejoin:round; stroke-width:2; stroke-opacity:0.1; fill:none" points="1661.39,1423.18 1661.39,47.2441 "/>
<polyline clip-path="url(#clip112)" style="stroke:#000000; stroke-linecap:round; stroke-linejoin:round; stroke-width:2; stroke-opacity:0.1; fill:none" points="2073.65,1423.18 2073.65,47.2441 "/>
<polyline clip-path="url(#clip112)" style="stroke:#000000; stroke-linecap:round; stroke-linejoin:round; stroke-width:2; stroke-opacity:0.1; fill:none" points="368.446,1387.51 2352.76,1387.51 "/>
<polyline clip-path="url(#clip112)" style="stroke:#000000; stroke-linecap:round; stroke-linejoin:round; stroke-width:2; stroke-opacity:0.1; fill:none" points="368.446,1072.88 2352.76,1072.88 "/>
<polyline clip-path="url(#clip112)" style="stroke:#000000; stroke-linecap:round; stroke-linejoin:round; stroke-width:2; stroke-opacity:0.1; fill:none" points="368.446,758.243 2352.76,758.243 "/>
<polyline clip-path="url(#clip112)" style="stroke:#000000; stroke-linecap:round; stroke-linejoin:round; stroke-width:2; stroke-opacity:0.1; fill:none" points="368.446,443.609 2352.76,443.609 "/>
<polyline clip-path="url(#clip112)" style="stroke:#000000; stroke-linecap:round; stroke-linejoin:round; stroke-width:2; stroke-opacity:0.1; fill:none" points="368.446,128.976 2352.76,128.976 "/>
<polyline clip-path="url(#clip110)" style="stroke:#000000; stroke-linecap:round; stroke-linejoin:round; stroke-width:4; stroke-opacity:1; fill:none" points="368.446,1423.18 2352.76,1423.18 "/>
<polyline clip-path="url(#clip110)" style="stroke:#000000; stroke-linecap:round; stroke-linejoin:round; stroke-width:4; stroke-opacity:1; fill:none" points="424.606,1423.18 424.606,1404.28 "/>
<polyline clip-path="url(#clip110)" style="stroke:#000000; stroke-linecap:round; stroke-linejoin:round; stroke-width:4; stroke-opacity:1; fill:none" points="836.868,1423.18 836.868,1404.28 "/>
<polyline clip-path="url(#clip110)" style="stroke:#000000; stroke-linecap:round; stroke-linejoin:round; stroke-width:4; stroke-opacity:1; fill:none" points="1249.13,1423.18 1249.13,1404.28 "/>
<polyline clip-path="url(#clip110)" style="stroke:#000000; stroke-linecap:round; stroke-linejoin:round; stroke-width:4; stroke-opacity:1; fill:none" points="1661.39,1423.18 1661.39,1404.28 "/>
<polyline clip-path="url(#clip110)" style="stroke:#000000; stroke-linecap:round; stroke-linejoin:round; stroke-width:4; stroke-opacity:1; fill:none" points="2073.65,1423.18 2073.65,1404.28 "/>
<path clip-path="url(#clip110)" d="M424.606 1454.1 Q420.995 1454.1 419.166 1457.66 Q417.361 1461.2 417.361 1468.33 Q417.361 1475.44 419.166 1479.01 Q420.995 1482.55 424.606 1482.55 Q428.24 1482.55 430.046 1479.01 Q431.874 1475.44 431.874 1468.33 Q431.874 1461.2 430.046 1457.66 Q428.24 1454.1 424.606 1454.1 M424.606 1450.39 Q430.416 1450.39 433.472 1455 Q436.55 1459.58 436.55 1468.33 Q436.55 1477.06 433.472 1481.67 Q430.416 1486.25 424.606 1486.25 Q418.796 1486.25 415.717 1481.67 Q412.662 1477.06 412.662 1468.33 Q412.662 1459.58 415.717 1455 Q418.796 1450.39 424.606 1450.39 Z" fill="#000000" fill-rule="nonzero" fill-opacity="1" /><path clip-path="url(#clip110)" d="M827.146 1451.02 L845.502 1451.02 L845.502 1454.96 L831.428 1454.96 L831.428 1463.43 Q832.447 1463.08 833.465 1462.92 Q834.484 1462.73 835.502 1462.73 Q841.289 1462.73 844.669 1465.9 Q848.048 1469.08 848.048 1474.49 Q848.048 1480.07 844.576 1483.17 Q841.104 1486.25 834.785 1486.25 Q832.609 1486.25 830.34 1485.88 Q828.095 1485.51 825.687 1484.77 L825.687 1480.07 Q827.771 1481.2 829.993 1481.76 Q832.215 1482.32 834.692 1482.32 Q838.697 1482.32 841.034 1480.21 Q843.372 1478.1 843.372 1474.49 Q843.372 1470.88 841.034 1468.77 Q838.697 1466.67 834.692 1466.67 Q832.817 1466.67 830.942 1467.08 Q829.09 1467.5 827.146 1468.38 L827.146 1451.02 Z" fill="#000000" fill-rule="nonzero" fill-opacity="1" /><path clip-path="url(#clip110)" d="M1223.82 1481.64 L1231.46 1481.64 L1231.46 1455.28 L1223.15 1456.95 L1223.15 1452.69 L1231.41 1451.02 L1236.09 1451.02 L1236.09 1481.64 L1243.72 1481.64 L1243.72 1485.58 L1223.82 1485.58 L1223.82 1481.64 Z" fill="#000000" fill-rule="nonzero" fill-opacity="1" /><path clip-path="url(#clip110)" d="M1263.17 1454.1 Q1259.56 1454.1 1257.73 1457.66 Q1255.92 1461.2 1255.92 1468.33 Q1255.92 1475.44 1257.73 1479.01 Q1259.56 1482.55 1263.17 1482.55 Q1266.8 1482.55 1268.61 1479.01 Q1270.44 1475.44 1270.44 1468.33 Q1270.44 1461.2 1268.61 1457.66 Q1266.8 1454.1 1263.17 1454.1 M1263.17 1450.39 Q1268.98 1450.39 1272.03 1455 Q1275.11 1459.58 1275.11 1468.33 Q1275.11 1477.06 1272.03 1481.67 Q1268.98 1486.25 1263.17 1486.25 Q1257.36 1486.25 1254.28 1481.67 Q1251.22 1477.06 1251.22 1468.33 Q1251.22 1459.58 1254.28 1455 Q1257.36 1450.39 1263.17 1450.39 Z" fill="#000000" fill-rule="nonzero" fill-opacity="1" /><path clip-path="url(#clip110)" d="M1636.58 1481.64 L1644.22 1481.64 L1644.22 1455.28 L1635.91 1456.95 L1635.91 1452.69 L1644.17 1451.02 L1648.85 1451.02 L1648.85 1481.64 L1656.48 1481.64 L1656.48 1485.58 L1636.58 1485.58 L1636.58 1481.64 Z" fill="#000000" fill-rule="nonzero" fill-opacity="1" /><path clip-path="url(#clip110)" d="M1665.98 1451.02 L1684.33 1451.02 L1684.33 1454.96 L1670.26 1454.96 L1670.26 1463.43 Q1671.28 1463.08 1672.29 1462.92 Q1673.31 1462.73 1674.33 1462.73 Q1680.12 1462.73 1683.5 1465.9 Q1686.88 1469.08 1686.88 1474.49 Q1686.88 1480.07 1683.41 1483.17 Q1679.93 1486.25 1673.61 1486.25 Q1671.44 1486.25 1669.17 1485.88 Q1666.92 1485.51 1664.52 1484.77 L1664.52 1480.07 Q1666.6 1481.2 1668.82 1481.76 Q1671.04 1482.32 1673.52 1482.32 Q1677.53 1482.32 1679.86 1480.21 Q1682.2 1478.1 1682.2 1474.49 Q1682.2 1470.88 1679.86 1468.77 Q1677.53 1466.67 1673.52 1466.67 Q1671.65 1466.67 1669.77 1467.08 Q1667.92 1467.5 1665.98 1468.38 L1665.98 1451.02 Z" fill="#000000" fill-rule="nonzero" fill-opacity="1" /><path clip-path="url(#clip110)" d="M2052.43 1481.64 L2068.75 1481.64 L2068.75 1485.58 L2046.8 1485.58 L2046.8 1481.64 Q2049.46 1478.89 2054.05 1474.26 Q2058.65 1469.61 2059.83 1468.27 Q2062.08 1465.74 2062.96 1464.01 Q2063.86 1462.25 2063.86 1460.56 Q2063.86 1457.8 2061.92 1456.07 Q2060 1454.33 2056.89 1454.33 Q2054.7 1454.33 2052.24 1455.09 Q2049.81 1455.86 2047.03 1457.41 L2047.03 1452.69 Q2049.86 1451.55 2052.31 1450.97 Q2054.76 1450.39 2056.8 1450.39 Q2062.17 1450.39 2065.37 1453.08 Q2068.56 1455.77 2068.56 1460.26 Q2068.56 1462.39 2067.75 1464.31 Q2066.96 1466.2 2064.86 1468.8 Q2064.28 1469.47 2061.18 1472.69 Q2058.08 1475.88 2052.43 1481.64 Z" fill="#000000" fill-rule="nonzero" fill-opacity="1" /><path clip-path="url(#clip110)" d="M2088.56 1454.1 Q2084.95 1454.1 2083.12 1457.66 Q2081.32 1461.2 2081.32 1468.33 Q2081.32 1475.44 2083.12 1479.01 Q2084.95 1482.55 2088.56 1482.55 Q2092.2 1482.55 2094 1479.01 Q2095.83 1475.44 2095.83 1468.33 Q2095.83 1461.2 2094 1457.66 Q2092.2 1454.1 2088.56 1454.1 M2088.56 1450.39 Q2094.37 1450.39 2097.43 1455 Q2100.51 1459.58 2100.51 1468.33 Q2100.51 1477.06 2097.43 1481.67 Q2094.37 1486.25 2088.56 1486.25 Q2082.75 1486.25 2079.67 1481.67 Q2076.62 1477.06 2076.62 1468.33 Q2076.62 1459.58 2079.67 1455 Q2082.75 1450.39 2088.56 1450.39 Z" fill="#000000" fill-rule="nonzero" fill-opacity="1" /><path clip-path="url(#clip110)" d="M1244.63 1520.52 L1284.83 1520.52 L1284.83 1525.93 L1267.96 1525.93 L1267.96 1568.04 L1261.5 1568.04 L1261.5 1525.93 L1244.63 1525.93 L1244.63 1520.52 Z" fill="#000000" fill-rule="nonzero" fill-opacity="1" /><path clip-path="url(#clip110)" d="M1288.78 1532.4 L1294.64 1532.4 L1294.64 1568.04 L1288.78 1568.04 L1288.78 1532.4 M1288.78 1518.52 L1294.64 1518.52 L1294.64 1525.93 L1288.78 1525.93 L1288.78 1518.52 Z" fill="#000000" fill-rule="nonzero" fill-opacity="1" /><path clip-path="url(#clip110)" d="M1334.64 1539.24 Q1336.84 1535.29 1339.9 1533.41 Q1342.95 1531.54 1347.09 1531.54 Q1352.66 1531.54 1355.68 1535.45 Q1358.71 1539.33 1358.71 1546.53 L1358.71 1568.04 L1352.82 1568.04 L1352.82 1546.72 Q1352.82 1541.59 1351 1539.11 Q1349.19 1536.63 1345.47 1536.63 Q1340.92 1536.63 1338.27 1539.65 Q1335.63 1542.68 1335.63 1547.9 L1335.63 1568.04 L1329.74 1568.04 L1329.74 1546.72 Q1329.74 1541.56 1327.93 1539.11 Q1326.11 1536.63 1322.33 1536.63 Q1317.84 1536.63 1315.2 1539.68 Q1312.56 1542.71 1312.56 1547.9 L1312.56 1568.04 L1306.67 1568.04 L1306.67 1532.4 L1312.56 1532.4 L1312.56 1537.93 Q1314.56 1534.66 1317.36 1533.1 Q1320.16 1531.54 1324.01 1531.54 Q1327.9 1531.54 1330.6 1533.51 Q1333.34 1535.48 1334.64 1539.24 Z" fill="#000000" fill-rule="nonzero" fill-opacity="1" /><path clip-path="url(#clip110)" d="M1400.88 1548.76 L1400.88 1551.62 L1373.95 1551.62 Q1374.34 1557.67 1377.58 1560.85 Q1380.86 1564 1386.68 1564 Q1390.06 1564 1393.21 1563.17 Q1396.39 1562.35 1399.51 1560.69 L1399.51 1566.23 Q1396.36 1567.57 1393.05 1568.27 Q1389.74 1568.97 1386.33 1568.97 Q1377.8 1568.97 1372.81 1564 Q1367.84 1559.04 1367.84 1550.57 Q1367.84 1541.82 1372.55 1536.69 Q1377.3 1531.54 1385.32 1531.54 Q1392.51 1531.54 1396.68 1536.18 Q1400.88 1540.8 1400.88 1548.76 M1395.02 1547.04 Q1394.96 1542.23 1392.32 1539.37 Q1389.71 1536.5 1385.38 1536.5 Q1380.48 1536.5 1377.52 1539.27 Q1374.59 1542.04 1374.14 1547.07 L1395.02 1547.04 Z" fill="#000000" fill-rule="nonzero" fill-opacity="1" /><path clip-path="url(#clip110)" d="M1411.99 1559.96 L1418.7 1559.96 L1418.7 1565.43 L1413.48 1575.62 L1409.38 1575.62 L1411.99 1565.43 L1411.99 1559.96 Z" fill="#000000" fill-rule="nonzero" fill-opacity="1" /><path clip-path="url(#clip110)" d="M1474.66 1533.45 L1474.66 1538.98 Q1472.18 1537.71 1469.5 1537.07 Q1466.83 1536.44 1463.96 1536.44 Q1459.6 1536.44 1457.41 1537.77 Q1455.24 1539.11 1455.24 1541.79 Q1455.24 1543.82 1456.8 1545 Q1458.36 1546.15 1463.07 1547.2 L1465.08 1547.64 Q1471.32 1548.98 1473.93 1551.43 Q1476.57 1553.85 1476.57 1558.21 Q1476.57 1563.17 1472.62 1566.07 Q1468.71 1568.97 1461.83 1568.97 Q1458.97 1568.97 1455.85 1568.39 Q1452.76 1567.85 1449.32 1566.74 L1449.32 1560.69 Q1452.57 1562.38 1455.72 1563.24 Q1458.87 1564.07 1461.96 1564.07 Q1466.1 1564.07 1468.32 1562.66 Q1470.55 1561.23 1470.55 1558.65 Q1470.55 1556.27 1468.93 1554.99 Q1467.34 1553.72 1461.9 1552.54 L1459.86 1552.07 Q1454.42 1550.92 1452 1548.56 Q1449.58 1546.18 1449.58 1542.04 Q1449.58 1537.01 1453.14 1534.27 Q1456.71 1531.54 1463.26 1531.54 Q1466.51 1531.54 1469.38 1532.01 Q1472.24 1532.49 1474.66 1533.45 Z" fill="#000000" fill-rule="nonzero" fill-opacity="1" /><polyline clip-path="url(#clip110)" style="stroke:#000000; stroke-linecap:round; stroke-linejoin:round; stroke-width:4; stroke-opacity:1; fill:none" points="368.446,1423.18 368.446,47.2441 "/>
<polyline clip-path="url(#clip110)" style="stroke:#000000; stroke-linecap:round; stroke-linejoin:round; stroke-width:4; stroke-opacity:1; fill:none" points="368.446,1387.51 387.344,1387.51 "/>
<polyline clip-path="url(#clip110)" style="stroke:#000000; stroke-linecap:round; stroke-linejoin:round; stroke-width:4; stroke-opacity:1; fill:none" points="368.446,1072.88 387.344,1072.88 "/>
<polyline clip-path="url(#clip110)" style="stroke:#000000; stroke-linecap:round; stroke-linejoin:round; stroke-width:4; stroke-opacity:1; fill:none" points="368.446,758.243 387.344,758.243 "/>
<polyline clip-path="url(#clip110)" style="stroke:#000000; stroke-linecap:round; stroke-linejoin:round; stroke-width:4; stroke-opacity:1; fill:none" points="368.446,443.609 387.344,443.609 "/>
<polyline clip-path="url(#clip110)" style="stroke:#000000; stroke-linecap:round; stroke-linejoin:round; stroke-width:4; stroke-opacity:1; fill:none" points="368.446,128.976 387.344,128.976 "/>
<path clip-path="url(#clip110)" d="M320.502 1373.31 Q316.891 1373.31 315.062 1376.87 Q313.256 1380.42 313.256 1387.55 Q313.256 1394.65 315.062 1398.22 Q316.891 1401.76 320.502 1401.76 Q324.136 1401.76 325.942 1398.22 Q327.77 1394.65 327.77 1387.55 Q327.77 1380.42 325.942 1376.87 Q324.136 1373.31 320.502 1373.31 M320.502 1369.61 Q326.312 1369.61 329.368 1374.21 Q332.446 1378.8 332.446 1387.55 Q332.446 1396.27 329.368 1400.88 Q326.312 1405.46 320.502 1405.46 Q314.692 1405.46 311.613 1400.88 Q308.557 1396.27 308.557 1387.55 Q308.557 1378.8 311.613 1374.21 Q314.692 1369.61 320.502 1369.61 Z" fill="#000000" fill-rule="nonzero" fill-opacity="1" /><path clip-path="url(#clip110)" d="M115.718 1062.04 L134.075 1062.04 L134.075 1065.98 L120.001 1065.98 L120.001 1074.45 Q121.019 1074.1 122.038 1073.94 Q123.056 1073.76 124.075 1073.76 Q129.862 1073.76 133.242 1076.93 Q136.621 1080.1 136.621 1085.52 Q136.621 1091.1 133.149 1094.2 Q129.677 1097.28 123.357 1097.28 Q121.181 1097.28 118.913 1096.91 Q116.668 1096.53 114.26 1095.79 L114.26 1091.1 Q116.343 1092.23 118.566 1092.78 Q120.788 1093.34 123.265 1093.34 Q127.269 1093.34 129.607 1091.23 Q131.945 1089.13 131.945 1085.52 Q131.945 1081.91 129.607 1079.8 Q127.269 1077.69 123.265 1077.69 Q121.39 1077.69 119.515 1078.11 Q117.663 1078.53 115.718 1079.41 L115.718 1062.04 Z" fill="#000000" fill-rule="nonzero" fill-opacity="1" /><path clip-path="url(#clip110)" d="M145.834 1090.72 L150.718 1090.72 L150.718 1096.6 L145.834 1096.6 L145.834 1090.72 Z" fill="#000000" fill-rule="nonzero" fill-opacity="1" /><path clip-path="url(#clip110)" d="M170.903 1065.12 Q167.292 1065.12 165.464 1068.69 Q163.658 1072.23 163.658 1079.36 Q163.658 1086.47 165.464 1090.03 Q167.292 1093.57 170.903 1093.57 Q174.538 1093.57 176.343 1090.03 Q178.172 1086.47 178.172 1079.36 Q178.172 1072.23 176.343 1068.69 Q174.538 1065.12 170.903 1065.12 M170.903 1061.42 Q176.714 1061.42 179.769 1066.03 Q182.848 1070.61 182.848 1079.36 Q182.848 1088.09 179.769 1092.69 Q176.714 1097.28 170.903 1097.28 Q165.093 1097.28 162.015 1092.69 Q158.959 1088.09 158.959 1079.36 Q158.959 1070.61 162.015 1066.03 Q165.093 1061.42 170.903 1061.42 Z" fill="#000000" fill-rule="nonzero" fill-opacity="1" /><path clip-path="url(#clip110)" d="M201.065 1065.12 Q197.454 1065.12 195.625 1068.69 Q193.82 1072.23 193.82 1079.36 Q193.82 1086.47 195.625 1090.03 Q197.454 1093.57 201.065 1093.57 Q204.699 1093.57 206.505 1090.03 Q208.334 1086.47 208.334 1079.36 Q208.334 1072.23 206.505 1068.69 Q204.699 1065.12 201.065 1065.12 M201.065 1061.42 Q206.875 1061.42 209.931 1066.03 Q213.01 1070.61 213.01 1079.36 Q213.01 1088.09 209.931 1092.69 Q206.875 1097.28 201.065 1097.28 Q195.255 1097.28 192.176 1092.69 Q189.121 1088.09 189.121 1079.36 Q189.121 1070.61 192.176 1066.03 Q195.255 1061.42 201.065 1061.42 Z" fill="#000000" fill-rule="nonzero" fill-opacity="1" /><path clip-path="url(#clip110)" d="M249.398 1071.14 L238.82 1081.77 L249.398 1092.35 L246.644 1095.15 L236.019 1084.52 L225.394 1095.15 L222.662 1092.35 L233.218 1081.77 L222.662 1071.14 L225.394 1068.34 L236.019 1078.97 L246.644 1068.34 L249.398 1071.14 Z" fill="#000000" fill-rule="nonzero" fill-opacity="1" /><path clip-path="url(#clip110)" d="M261.759 1092.67 L269.398 1092.67 L269.398 1066.3 L261.088 1067.97 L261.088 1063.71 L269.352 1062.04 L274.028 1062.04 L274.028 1092.67 L281.667 1092.67 L281.667 1096.6 L261.759 1096.6 L261.759 1092.67 Z" fill="#000000" fill-rule="nonzero" fill-opacity="1" /><path clip-path="url(#clip110)" d="M301.111 1065.12 Q297.5 1065.12 295.671 1068.69 Q293.866 1072.23 293.866 1079.36 Q293.866 1086.47 295.671 1090.03 Q297.5 1093.57 301.111 1093.57 Q304.745 1093.57 306.551 1090.03 Q308.379 1086.47 308.379 1079.36 Q308.379 1072.23 306.551 1068.69 Q304.745 1065.12 301.111 1065.12 M301.111 1061.42 Q306.921 1061.42 309.977 1066.03 Q313.055 1070.61 313.055 1079.36 Q313.055 1088.09 309.977 1092.69 Q306.921 1097.28 301.111 1097.28 Q295.301 1097.28 292.222 1092.69 Q289.167 1088.09 289.167 1079.36 Q289.167 1070.61 292.222 1066.03 Q295.301 1061.42 301.111 1061.42 Z" fill="#000000" fill-rule="nonzero" fill-opacity="1" /><path clip-path="url(#clip110)" d="M323.08 1053.64 Q320.522 1053.64 319.017 1055.39 Q317.532 1057.14 317.532 1060.19 Q317.532 1063.21 319.017 1064.98 Q320.522 1066.73 323.08 1066.73 Q325.638 1066.73 327.124 1064.98 Q328.628 1063.21 328.628 1060.19 Q328.628 1057.14 327.124 1055.39 Q325.638 1053.64 323.08 1053.64 M330.622 1041.73 L330.622 1045.2 Q329.192 1044.52 327.725 1044.16 Q326.277 1043.8 324.848 1043.8 Q321.086 1043.8 319.093 1046.34 Q317.118 1048.88 316.836 1054.02 Q317.945 1052.38 319.619 1051.51 Q321.293 1050.63 323.306 1050.63 Q327.537 1050.63 329.982 1053.21 Q332.446 1055.77 332.446 1060.19 Q332.446 1064.51 329.888 1067.13 Q327.33 1069.74 323.08 1069.74 Q318.209 1069.74 315.632 1066.02 Q313.055 1062.27 313.055 1055.18 Q313.055 1048.52 316.215 1044.57 Q319.375 1040.61 324.697 1040.61 Q326.127 1040.61 327.575 1040.89 Q329.042 1041.17 330.622 1041.73 Z" fill="#000000" fill-rule="nonzero" fill-opacity="1" /><path clip-path="url(#clip110)" d="M117.818 778.036 L125.457 778.036 L125.457 751.67 L117.146 753.337 L117.146 749.077 L125.41 747.411 L130.086 747.411 L130.086 778.036 L137.725 778.036 L137.725 781.971 L117.818 781.971 L117.818 778.036 Z" fill="#000000" fill-rule="nonzero" fill-opacity="1" /><path clip-path="url(#clip110)" d="M147.169 776.091 L152.054 776.091 L152.054 781.971 L147.169 781.971 L147.169 776.091 Z" fill="#000000" fill-rule="nonzero" fill-opacity="1" /><path clip-path="url(#clip110)" d="M172.239 750.489 Q168.628 750.489 166.799 754.054 Q164.993 757.596 164.993 764.725 Q164.993 771.832 166.799 775.397 Q168.628 778.938 172.239 778.938 Q175.873 778.938 177.679 775.397 Q179.507 771.832 179.507 764.725 Q179.507 757.596 177.679 754.054 Q175.873 750.489 172.239 750.489 M172.239 746.786 Q178.049 746.786 181.104 751.392 Q184.183 755.975 184.183 764.725 Q184.183 773.452 181.104 778.059 Q178.049 782.642 172.239 782.642 Q166.429 782.642 163.35 778.059 Q160.294 773.452 160.294 764.725 Q160.294 755.975 163.35 751.392 Q166.429 746.786 172.239 746.786 Z" fill="#000000" fill-rule="nonzero" fill-opacity="1" /><path clip-path="url(#clip110)" d="M202.401 750.489 Q198.79 750.489 196.961 754.054 Q195.155 757.596 195.155 764.725 Q195.155 771.832 196.961 775.397 Q198.79 778.938 202.401 778.938 Q206.035 778.938 207.84 775.397 Q209.669 771.832 209.669 764.725 Q209.669 757.596 207.84 754.054 Q206.035 750.489 202.401 750.489 M202.401 746.786 Q208.211 746.786 211.266 751.392 Q214.345 755.975 214.345 764.725 Q214.345 773.452 211.266 778.059 Q208.211 782.642 202.401 782.642 Q196.59 782.642 193.512 778.059 Q190.456 773.452 190.456 764.725 Q190.456 755.975 193.512 751.392 Q196.59 746.786 202.401 746.786 Z" fill="#000000" fill-rule="nonzero" fill-opacity="1" /><path clip-path="url(#clip110)" d="M250.734 756.508 L240.155 767.133 L250.734 777.711 L247.979 780.512 L237.354 769.887 L226.729 780.512 L223.998 777.711 L234.553 767.133 L223.998 756.508 L226.729 753.707 L237.354 764.332 L247.979 753.707 L250.734 756.508 Z" fill="#000000" fill-rule="nonzero" fill-opacity="1" /><path clip-path="url(#clip110)" d="M263.095 778.036 L270.734 778.036 L270.734 751.67 L262.423 753.337 L262.423 749.077 L270.687 747.411 L275.363 747.411 L275.363 778.036 L283.002 778.036 L283.002 781.971 L263.095 781.971 L263.095 778.036 Z" fill="#000000" fill-rule="nonzero" fill-opacity="1" /><path clip-path="url(#clip110)" d="M302.446 750.489 Q298.835 750.489 297.007 754.054 Q295.201 757.596 295.201 764.725 Q295.201 771.832 297.007 775.397 Q298.835 778.938 302.446 778.938 Q306.081 778.938 307.886 775.397 Q309.715 771.832 309.715 764.725 Q309.715 757.596 307.886 754.054 Q306.081 750.489 302.446 750.489 M302.446 746.786 Q308.257 746.786 311.312 751.392 Q314.391 755.975 314.391 764.725 Q314.391 773.452 311.312 778.059 Q308.257 782.642 302.446 782.642 Q296.636 782.642 293.558 778.059 Q290.502 773.452 290.502 764.725 Q290.502 755.975 293.558 751.392 Q296.636 746.786 302.446 746.786 Z" fill="#000000" fill-rule="nonzero" fill-opacity="1" /><path clip-path="url(#clip110)" d="M314.391 726.48 L332.446 726.48 L332.446 728.098 L322.252 754.56 L318.284 754.56 L327.876 729.678 L314.391 729.678 L314.391 726.48 Z" fill="#000000" fill-rule="nonzero" fill-opacity="1" /><path clip-path="url(#clip110)" d="M117.818 463.402 L125.457 463.402 L125.457 437.036 L117.146 438.703 L117.146 434.444 L125.41 432.777 L130.086 432.777 L130.086 463.402 L137.725 463.402 L137.725 467.337 L117.818 467.337 L117.818 463.402 Z" fill="#000000" fill-rule="nonzero" fill-opacity="1" /><path clip-path="url(#clip110)" d="M147.169 461.457 L152.054 461.457 L152.054 467.337 L147.169 467.337 L147.169 461.457 Z" fill="#000000" fill-rule="nonzero" fill-opacity="1" /><path clip-path="url(#clip110)" d="M162.285 432.777 L180.641 432.777 L180.641 436.712 L166.567 436.712 L166.567 445.184 Q167.586 444.837 168.604 444.675 Q169.623 444.49 170.642 444.49 Q176.429 444.49 179.808 447.661 Q183.188 450.833 183.188 456.249 Q183.188 461.828 179.716 464.93 Q176.243 468.008 169.924 468.008 Q167.748 468.008 165.48 467.638 Q163.234 467.268 160.827 466.527 L160.827 461.828 Q162.91 462.962 165.132 463.518 Q167.354 464.073 169.831 464.073 Q173.836 464.073 176.174 461.967 Q178.512 459.86 178.512 456.249 Q178.512 452.638 176.174 450.532 Q173.836 448.425 169.831 448.425 Q167.956 448.425 166.081 448.842 Q164.23 449.258 162.285 450.138 L162.285 432.777 Z" fill="#000000" fill-rule="nonzero" fill-opacity="1" /><path clip-path="url(#clip110)" d="M202.401 435.856 Q198.79 435.856 196.961 439.421 Q195.155 442.962 195.155 450.092 Q195.155 457.198 196.961 460.763 Q198.79 464.305 202.401 464.305 Q206.035 464.305 207.84 460.763 Q209.669 457.198 209.669 450.092 Q209.669 442.962 207.84 439.421 Q206.035 435.856 202.401 435.856 M202.401 432.152 Q208.211 432.152 211.266 436.759 Q214.345 441.342 214.345 450.092 Q214.345 458.819 211.266 463.425 Q208.211 468.008 202.401 468.008 Q196.59 468.008 193.512 463.425 Q190.456 458.819 190.456 450.092 Q190.456 441.342 193.512 436.759 Q196.59 432.152 202.401 432.152 Z" fill="#000000" fill-rule="nonzero" fill-opacity="1" /><path clip-path="url(#clip110)" d="M250.734 441.874 L240.155 452.499 L250.734 463.078 L247.979 465.879 L237.354 455.254 L226.729 465.879 L223.998 463.078 L234.553 452.499 L223.998 441.874 L226.729 439.073 L237.354 449.698 L247.979 439.073 L250.734 441.874 Z" fill="#000000" fill-rule="nonzero" fill-opacity="1" /><path clip-path="url(#clip110)" d="M263.095 463.402 L270.734 463.402 L270.734 437.036 L262.423 438.703 L262.423 434.444 L270.687 432.777 L275.363 432.777 L275.363 463.402 L283.002 463.402 L283.002 467.337 L263.095 467.337 L263.095 463.402 Z" fill="#000000" fill-rule="nonzero" fill-opacity="1" /><path clip-path="url(#clip110)" d="M302.446 435.856 Q298.835 435.856 297.007 439.421 Q295.201 442.962 295.201 450.092 Q295.201 457.198 297.007 460.763 Q298.835 464.305 302.446 464.305 Q306.081 464.305 307.886 460.763 Q309.715 457.198 309.715 450.092 Q309.715 442.962 307.886 439.421 Q306.081 435.856 302.446 435.856 M302.446 432.152 Q308.257 432.152 311.312 436.759 Q314.391 441.342 314.391 450.092 Q314.391 458.819 311.312 463.425 Q308.257 468.008 302.446 468.008 Q296.636 468.008 293.558 463.425 Q290.502 458.819 290.502 450.092 Q290.502 441.342 293.558 436.759 Q296.636 432.152 302.446 432.152 Z" fill="#000000" fill-rule="nonzero" fill-opacity="1" /><path clip-path="url(#clip110)" d="M314.391 411.847 L332.446 411.847 L332.446 413.464 L322.252 439.927 L318.284 439.927 L327.876 415.044 L314.391 415.044 L314.391 411.847 Z" fill="#000000" fill-rule="nonzero" fill-opacity="1" /><path clip-path="url(#clip110)" d="M121.035 148.768 L137.355 148.768 L137.355 152.703 L115.41 152.703 L115.41 148.768 Q118.072 146.014 122.656 141.384 Q127.262 136.731 128.443 135.389 Q130.688 132.866 131.568 131.129 Q132.47 129.37 132.47 127.68 Q132.47 124.926 130.526 123.19 Q128.605 121.454 125.503 121.454 Q123.304 121.454 120.85 122.217 Q118.42 122.981 115.642 124.532 L115.642 119.81 Q118.466 118.676 120.92 118.097 Q123.373 117.518 125.41 117.518 Q130.781 117.518 133.975 120.204 Q137.169 122.889 137.169 127.38 Q137.169 129.509 136.359 131.43 Q135.572 133.329 133.466 135.921 Q132.887 136.592 129.785 139.81 Q126.683 143.004 121.035 148.768 Z" fill="#000000" fill-rule="nonzero" fill-opacity="1" /><path clip-path="url(#clip110)" d="M147.169 146.824 L152.054 146.824 L152.054 152.703 L147.169 152.703 L147.169 146.824 Z" fill="#000000" fill-rule="nonzero" fill-opacity="1" /><path clip-path="url(#clip110)" d="M172.239 121.222 Q168.628 121.222 166.799 124.787 Q164.993 128.329 164.993 135.458 Q164.993 142.565 166.799 146.129 Q168.628 149.671 172.239 149.671 Q175.873 149.671 177.679 146.129 Q179.507 142.565 179.507 135.458 Q179.507 128.329 177.679 124.787 Q175.873 121.222 172.239 121.222 M172.239 117.518 Q178.049 117.518 181.104 122.125 Q184.183 126.708 184.183 135.458 Q184.183 144.185 181.104 148.791 Q178.049 153.375 172.239 153.375 Q166.429 153.375 163.35 148.791 Q160.294 144.185 160.294 135.458 Q160.294 126.708 163.35 122.125 Q166.429 117.518 172.239 117.518 Z" fill="#000000" fill-rule="nonzero" fill-opacity="1" /><path clip-path="url(#clip110)" d="M202.401 121.222 Q198.79 121.222 196.961 124.787 Q195.155 128.329 195.155 135.458 Q195.155 142.565 196.961 146.129 Q198.79 149.671 202.401 149.671 Q206.035 149.671 207.84 146.129 Q209.669 142.565 209.669 135.458 Q209.669 128.329 207.84 124.787 Q206.035 121.222 202.401 121.222 M202.401 117.518 Q208.211 117.518 211.266 122.125 Q214.345 126.708 214.345 135.458 Q214.345 144.185 211.266 148.791 Q208.211 153.375 202.401 153.375 Q196.59 153.375 193.512 148.791 Q190.456 144.185 190.456 135.458 Q190.456 126.708 193.512 122.125 Q196.59 117.518 202.401 117.518 Z" fill="#000000" fill-rule="nonzero" fill-opacity="1" /><path clip-path="url(#clip110)" d="M250.734 127.241 L240.155 137.866 L250.734 148.444 L247.979 151.245 L237.354 140.62 L226.729 151.245 L223.998 148.444 L234.553 137.866 L223.998 127.241 L226.729 124.44 L237.354 135.065 L247.979 124.44 L250.734 127.241 Z" fill="#000000" fill-rule="nonzero" fill-opacity="1" /><path clip-path="url(#clip110)" d="M263.095 148.768 L270.734 148.768 L270.734 122.403 L262.423 124.069 L262.423 119.81 L270.687 118.143 L275.363 118.143 L275.363 148.768 L283.002 148.768 L283.002 152.703 L263.095 152.703 L263.095 148.768 Z" fill="#000000" fill-rule="nonzero" fill-opacity="1" /><path clip-path="url(#clip110)" d="M302.446 121.222 Q298.835 121.222 297.007 124.787 Q295.201 128.329 295.201 135.458 Q295.201 142.565 297.007 146.129 Q298.835 149.671 302.446 149.671 Q306.081 149.671 307.886 146.129 Q309.715 142.565 309.715 135.458 Q309.715 128.329 307.886 124.787 Q306.081 121.222 302.446 121.222 M302.446 117.518 Q308.257 117.518 311.312 122.125 Q314.391 126.708 314.391 135.458 Q314.391 144.185 311.312 148.791 Q308.257 153.375 302.446 153.375 Q296.636 153.375 293.558 148.791 Q290.502 144.185 290.502 135.458 Q290.502 126.708 293.558 122.125 Q296.636 117.518 302.446 117.518 Z" fill="#000000" fill-rule="nonzero" fill-opacity="1" /><path clip-path="url(#clip110)" d="M314.391 97.213 L332.446 97.213 L332.446 98.8305 L322.252 125.293 L318.284 125.293 L327.876 100.41 L314.391 100.41 L314.391 97.213 Z" fill="#000000" fill-rule="nonzero" fill-opacity="1" /><path clip-path="url(#clip110)" d="M64.0042 1026.76 L16.4842 1044.9 L16.4842 1038.19 L56.4926 1023.13 L16.4842 1008.05 L16.4842 1001.36 L64.0042 1019.47 L64.0042 1026.76 Z" fill="#000000" fill-rule="nonzero" fill-opacity="1" /><path clip-path="url(#clip110)" d="M44.7161 969.247 L47.5806 969.247 L47.5806 996.174 Q53.6281 995.792 56.8109 992.546 Q59.9619 989.267 59.9619 983.443 Q59.9619 980.069 59.1344 976.918 Q58.3069 973.735 56.6518 970.616 L62.1899 970.616 Q63.5267 973.767 64.227 977.077 Q64.9272 980.387 64.9272 983.793 Q64.9272 992.323 59.9619 997.32 Q54.9967 1002.29 46.5303 1002.29 Q37.7774 1002.29 32.6531 997.575 Q27.4968 992.832 27.4968 984.811 Q27.4968 977.618 32.1438 973.449 Q36.7589 969.247 44.7161 969.247 M42.9973 975.104 Q38.1912 975.167 35.3266 977.809 Q32.4621 980.419 32.4621 984.748 Q32.4621 989.649 35.2312 992.609 Q38.0002 995.538 43.0292 995.983 L42.9973 975.104 Z" fill="#000000" fill-rule="nonzero" fill-opacity="1" /><path clip-path="url(#clip110)" d="M29.4065 936.909 L34.9447 936.909 Q33.6716 939.392 33.035 942.066 Q32.3984 944.739 32.3984 947.604 Q32.3984 951.964 33.7352 954.16 Q35.072 956.325 37.7456 956.325 Q39.7826 956.325 40.9603 954.765 Q42.1061 953.206 43.1565 948.495 L43.6021 946.49 Q44.9389 940.251 47.3897 937.641 Q49.8086 935 54.1691 935 Q59.1344 935 62.0308 938.946 Q64.9272 942.861 64.9272 949.736 Q64.9272 952.601 64.3543 955.72 Q63.8132 958.807 62.6992 962.245 L56.6518 962.245 Q58.3387 958.998 59.198 955.847 Q60.0256 952.696 60.0256 949.609 Q60.0256 945.471 58.6251 943.243 Q57.1929 941.015 54.6147 941.015 Q52.2276 941.015 50.9545 942.639 Q49.6813 944.23 48.5037 949.673 L48.0262 951.71 Q46.8804 957.152 44.5251 959.571 Q42.138 961.99 38.0002 961.99 Q32.9713 961.99 30.2341 958.425 Q27.4968 954.861 27.4968 948.304 Q27.4968 945.057 27.9743 942.193 Q28.4517 939.328 29.4065 936.909 Z" fill="#000000" fill-rule="nonzero" fill-opacity="1" /><path clip-path="url(#clip110)" d="M29.4065 902.948 L34.9447 902.948 Q33.6716 905.431 33.035 908.105 Q32.3984 910.778 32.3984 913.643 Q32.3984 918.003 33.7352 920.199 Q35.072 922.364 37.7456 922.364 Q39.7826 922.364 40.9603 920.804 Q42.1061 919.245 43.1565 914.534 L43.6021 912.529 Q44.9389 906.29 47.3897 903.68 Q49.8086 901.039 54.1691 901.039 Q59.1344 901.039 62.0308 904.985 Q64.9272 908.9 64.9272 915.775 Q64.9272 918.64 64.3543 921.759 Q63.8132 924.846 62.6992 928.284 L56.6518 928.284 Q58.3387 925.037 59.198 921.886 Q60.0256 918.735 60.0256 915.648 Q60.0256 911.51 58.6251 909.282 Q57.1929 907.054 54.6147 907.054 Q52.2276 907.054 50.9545 908.677 Q49.6813 910.269 48.5037 915.712 L48.0262 917.749 Q46.8804 923.191 44.5251 925.61 Q42.138 928.029 38.0002 928.029 Q32.9713 928.029 30.2341 924.464 Q27.4968 920.9 27.4968 914.343 Q27.4968 911.096 27.9743 908.232 Q28.4517 905.367 29.4065 902.948 Z" fill="#000000" fill-rule="nonzero" fill-opacity="1" /><path clip-path="url(#clip110)" d="M44.7161 861.221 L47.5806 861.221 L47.5806 888.148 Q53.6281 887.766 56.8109 884.52 Q59.9619 881.241 59.9619 875.417 Q59.9619 872.043 59.1344 868.892 Q58.3069 865.709 56.6518 862.59 L62.1899 862.59 Q63.5267 865.741 64.227 869.051 Q64.9272 872.361 64.9272 875.767 Q64.9272 884.297 59.9619 889.294 Q54.9967 894.259 46.5303 894.259 Q37.7774 894.259 32.6531 889.549 Q27.4968 884.806 27.4968 876.785 Q27.4968 869.592 32.1438 865.422 Q36.7589 861.221 44.7161 861.221 M42.9973 867.078 Q38.1912 867.141 35.3266 869.783 Q32.4621 872.393 32.4621 876.722 Q32.4621 881.623 35.2312 884.583 Q38.0002 887.511 43.0292 887.957 L42.9973 867.078 Z" fill="#000000" fill-rule="nonzero" fill-opacity="1" /><path clip-path="url(#clip110)" d="M14.479 851.609 L14.479 845.752 L64.0042 845.752 L64.0042 851.609 L14.479 851.609 Z" fill="#000000" fill-rule="nonzero" fill-opacity="1" /><path clip-path="url(#clip110)" d="M58.657 807.113 L77.5631 807.113 L77.5631 813.001 L28.3562 813.001 L28.3562 807.113 L33.7671 807.113 Q30.5842 805.267 29.0564 802.466 Q27.4968 799.633 27.4968 795.718 Q27.4968 789.225 32.6531 785.183 Q37.8093 781.109 46.212 781.109 Q54.6147 781.109 59.771 785.183 Q64.9272 789.225 64.9272 795.718 Q64.9272 799.633 63.3994 802.466 Q61.8398 805.267 58.657 807.113 M46.212 787.188 Q39.7508 787.188 36.0905 789.862 Q32.3984 792.503 32.3984 797.15 Q32.3984 801.797 36.0905 804.471 Q39.7508 807.113 46.212 807.113 Q52.6732 807.113 56.3653 804.471 Q60.0256 801.797 60.0256 797.15 Q60.0256 792.503 56.3653 789.862 Q52.6732 787.188 46.212 787.188 Z" fill="#000000" fill-rule="nonzero" fill-opacity="1" /><path clip-path="url(#clip110)" d="M33.8307 750.744 Q33.2578 751.731 33.0032 752.909 Q32.7167 754.054 32.7167 755.455 Q32.7167 760.42 35.9632 763.094 Q39.1779 765.736 45.2253 765.736 L64.0042 765.736 L64.0042 771.624 L28.3562 771.624 L28.3562 765.736 L33.8944 765.736 Q30.6479 763.889 29.0883 760.929 Q27.4968 757.969 27.4968 753.736 Q27.4968 753.131 27.5923 752.399 Q27.656 751.667 27.8151 750.776 L33.8307 750.744 Z" fill="#000000" fill-rule="nonzero" fill-opacity="1" /><path clip-path="url(#clip110)" d="M44.7161 715.542 L47.5806 715.542 L47.5806 742.469 Q53.6281 742.087 56.8109 738.84 Q59.9619 735.562 59.9619 729.737 Q59.9619 726.364 59.1344 723.213 Q58.3069 720.03 56.6518 716.911 L62.1899 716.911 Q63.5267 720.062 64.227 723.372 Q64.9272 726.682 64.9272 730.088 Q64.9272 738.618 59.9619 743.615 Q54.9967 748.58 46.5303 748.58 Q37.7774 748.58 32.6531 743.869 Q27.4968 739.127 27.4968 731.106 Q27.4968 723.913 32.1438 719.743 Q36.7589 715.542 44.7161 715.542 M42.9973 721.398 Q38.1912 721.462 35.3266 724.104 Q32.4621 726.714 32.4621 731.042 Q32.4621 735.944 35.2312 738.904 Q38.0002 741.832 43.0292 742.278 L42.9973 721.398 Z" fill="#000000" fill-rule="nonzero" fill-opacity="1" /><path clip-path="url(#clip110)" d="M29.4065 683.204 L34.9447 683.204 Q33.6716 685.687 33.035 688.36 Q32.3984 691.034 32.3984 693.899 Q32.3984 698.259 33.7352 700.455 Q35.072 702.62 37.7456 702.62 Q39.7826 702.62 40.9603 701.06 Q42.1061 699.5 43.1565 694.79 L43.6021 692.785 Q44.9389 686.546 47.3897 683.936 Q49.8086 681.294 54.1691 681.294 Q59.1344 681.294 62.0308 685.241 Q64.9272 689.156 64.9272 696.031 Q64.9272 698.896 64.3543 702.015 Q63.8132 705.102 62.6992 708.54 L56.6518 708.54 Q58.3387 705.293 59.198 702.142 Q60.0256 698.991 60.0256 695.904 Q60.0256 691.766 58.6251 689.538 Q57.1929 687.31 54.6147 687.31 Q52.2276 687.31 50.9545 688.933 Q49.6813 690.525 48.5037 695.967 L48.0262 698.004 Q46.8804 703.447 44.5251 705.866 Q42.138 708.285 38.0002 708.285 Q32.9713 708.285 30.2341 704.72 Q27.4968 701.155 27.4968 694.599 Q27.4968 691.352 27.9743 688.488 Q28.4517 685.623 29.4065 683.204 Z" fill="#000000" fill-rule="nonzero" fill-opacity="1" /><path clip-path="url(#clip110)" d="M29.4065 649.243 L34.9447 649.243 Q33.6716 651.726 33.035 654.399 Q32.3984 657.073 32.3984 659.937 Q32.3984 664.298 33.7352 666.494 Q35.072 668.659 37.7456 668.659 Q39.7826 668.659 40.9603 667.099 Q42.1061 665.539 43.1565 660.829 L43.6021 658.823 Q44.9389 652.585 47.3897 649.975 Q49.8086 647.333 54.1691 647.333 Q59.1344 647.333 62.0308 651.28 Q64.9272 655.195 64.9272 662.07 Q64.9272 664.935 64.3543 668.054 Q63.8132 671.141 62.6992 674.579 L56.6518 674.579 Q58.3387 671.332 59.198 668.181 Q60.0256 665.03 60.0256 661.943 Q60.0256 657.805 58.6251 655.577 Q57.1929 653.349 54.6147 653.349 Q52.2276 653.349 50.9545 654.972 Q49.6813 656.564 48.5037 662.006 L48.0262 664.043 Q46.8804 669.486 44.5251 671.905 Q42.138 674.324 38.0002 674.324 Q32.9713 674.324 30.2341 670.759 Q27.4968 667.194 27.4968 660.638 Q27.4968 657.391 27.9743 654.527 Q28.4517 651.662 29.4065 649.243 Z" fill="#000000" fill-rule="nonzero" fill-opacity="1" /><path clip-path="url(#clip110)" d="M49.9359 638.612 L28.3562 638.612 L28.3562 632.756 L49.7131 632.756 Q54.7739 632.756 57.3202 630.783 Q59.8346 628.809 59.8346 624.862 Q59.8346 620.12 56.8109 617.383 Q53.7872 614.614 48.5673 614.614 L28.3562 614.614 L28.3562 608.757 L64.0042 608.757 L64.0042 614.614 L58.5296 614.614 Q61.7762 616.746 63.3676 619.579 Q64.9272 622.38 64.9272 626.104 Q64.9272 632.247 61.1078 635.43 Q57.2883 638.612 49.9359 638.612 M27.4968 623.876 L27.4968 623.876 Z" fill="#000000" fill-rule="nonzero" fill-opacity="1" /><path clip-path="url(#clip110)" d="M33.8307 576.037 Q33.2578 577.024 33.0032 578.202 Q32.7167 579.348 32.7167 580.748 Q32.7167 585.713 35.9632 588.387 Q39.1779 591.029 45.2253 591.029 L64.0042 591.029 L64.0042 596.917 L28.3562 596.917 L28.3562 591.029 L33.8944 591.029 Q30.6479 589.183 29.0883 586.223 Q27.4968 583.263 27.4968 579.029 Q27.4968 578.425 27.5923 577.693 Q27.656 576.961 27.8151 576.069 L33.8307 576.037 Z" fill="#000000" fill-rule="nonzero" fill-opacity="1" /><path clip-path="url(#clip110)" d="M44.7161 540.835 L47.5806 540.835 L47.5806 567.762 Q53.6281 567.38 56.8109 564.134 Q59.9619 560.855 59.9619 555.031 Q59.9619 551.657 59.1344 548.506 Q58.3069 545.323 56.6518 542.204 L62.1899 542.204 Q63.5267 545.355 64.227 548.665 Q64.9272 551.975 64.9272 555.381 Q64.9272 563.911 59.9619 568.908 Q54.9967 573.873 46.5303 573.873 Q37.7774 573.873 32.6531 569.163 Q27.4968 564.42 27.4968 556.399 Q27.4968 549.206 32.1438 545.036 Q36.7589 540.835 44.7161 540.835 M42.9973 546.692 Q38.1912 546.755 35.3266 549.397 Q32.4621 552.007 32.4621 556.336 Q32.4621 561.237 35.2312 564.197 Q38.0002 567.125 43.0292 567.571 L42.9973 546.692 Z" fill="#000000" fill-rule="nonzero" fill-opacity="1" /><path clip-path="url(#clip110)" d="M55.9197 529.727 L55.9197 523.011 L61.3942 523.011 L71.5793 528.231 L71.5793 532.337 L61.3942 529.727 L55.9197 529.727 Z" fill="#000000" fill-rule="nonzero" fill-opacity="1" /><path clip-path="url(#clip110)" d="M21.7677 483.098 L39.6235 483.098 L39.6235 475.014 Q39.6235 470.526 37.3 468.075 Q34.9765 465.624 30.6797 465.624 Q26.4147 465.624 24.0912 468.075 Q21.7677 470.526 21.7677 475.014 L21.7677 483.098 M16.4842 489.528 L16.4842 475.014 Q16.4842 467.025 20.1126 462.951 Q23.7092 458.845 30.6797 458.845 Q37.7138 458.845 41.3104 462.951 Q44.907 467.025 44.907 475.014 L44.907 483.098 L64.0042 483.098 L64.0042 489.528 L16.4842 489.528 Z" fill="#000000" fill-rule="nonzero" fill-opacity="1" /><path clip-path="url(#clip110)" d="M46.0847 437.201 Q46.0847 444.299 47.7079 447.036 Q49.3312 449.774 53.2461 449.774 Q56.3653 449.774 58.2114 447.737 Q60.0256 445.668 60.0256 442.135 Q60.0256 437.265 56.5881 434.337 Q53.1188 431.377 47.3897 431.377 L46.0847 431.377 L46.0847 437.201 M43.6657 425.52 L64.0042 425.52 L64.0042 431.377 L58.5933 431.377 Q61.8398 433.382 63.3994 436.374 Q64.9272 439.366 64.9272 443.694 Q64.9272 449.169 61.8716 452.415 Q58.7843 455.63 53.6281 455.63 Q47.6125 455.63 44.5569 451.62 Q41.5014 447.578 41.5014 439.589 L41.5014 431.377 L40.9285 431.377 Q36.8862 431.377 34.6901 434.05 Q32.4621 436.692 32.4621 441.498 Q32.4621 444.554 33.1941 447.45 Q33.9262 450.347 35.3903 453.02 L29.9795 453.02 Q28.7381 449.806 28.1334 446.782 Q27.4968 443.758 27.4968 440.894 Q27.4968 433.159 31.5072 429.34 Q35.5176 425.52 43.6657 425.52 Z" fill="#000000" fill-rule="nonzero" fill-opacity="1" /><polyline clip-path="url(#clip112)" style="stroke:#0000ff; stroke-linecap:round; stroke-linejoin:round; stroke-width:4; stroke-opacity:1; fill:none" points="424.606,86.1857 443.515,204.028 462.424,309.832 481.333,404.963 500.242,490.616 519.151,567.842 538.06,637.561 556.969,700.585 575.878,757.628 594.787,809.321 613.696,856.223 632.605,898.826 651.514,937.57 670.423,972.842 689.332,1004.99 708.241,1034.32 727.15,1061.11 746.059,1085.6 764.968,1108.01 783.877,1128.55 802.786,1147.37 821.695,1164.65 840.604,1180.52 859.513,1195.11 878.422,1208.54 897.331,1220.91 916.24,1232.31 935.149,1242.83 954.058,1252.54 972.967,1261.52 991.876,1269.81 1010.78,1277.49 1029.69,1284.61 1048.6,1291.2 1067.51,1297.31 1086.42,1302.98 1105.33,1308.25 1124.24,1313.15 1143.15,1317.71 1162.06,1321.94 1180.97,1325.89 1199.87,1329.57 1218.78,1333 1237.69,1336.2 1256.6,1339.18 1275.51,1341.97 1294.42,1344.58 1313.33,1347.02 1332.24,1349.3 1351.15,1351.43 1370.06,1353.43 1388.96,1355.31 1407.87,1357.06 1426.78,1358.71 1445.69,1360.26 1464.6,1361.71 1483.51,1363.08 1502.42,1364.36 1521.33,1365.57 1540.24,1366.7 1559.15,1367.77 1578.05,1368.78 1596.96,1369.73 1615.87,1370.62 1634.78,1371.46 1653.69,1372.26 1672.6,1373.01 1691.51,1373.72 1710.42,1374.39 1729.33,1375.02 1748.24,1375.62 1767.14,1376.18 1786.05,1376.72 1804.96,1377.22 1823.87,1377.7 1842.78,1378.16 1861.69,1378.59 1880.6,1378.99 1899.51,1379.38 1918.42,1379.75 1937.33,1380.09 1956.23,1380.42 1975.14,1380.74 1994.05,1381.04 2012.96,1381.32 2031.87,1381.59 2050.78,1381.84 2069.69,1382.09 2088.6,1382.32 2107.51,1382.54 2126.42,1382.75 2145.32,1382.95 2164.23,1383.14 2183.14,1383.32 2202.05,1383.49 2220.96,1383.65 2239.87,1383.81 2258.78,1383.96 2277.69,1384.1 2296.6,1384.24 "/>
<circle clip-path="url(#clip112)" cx="2000.53" cy="1381.13" r="14.4" fill="#0000ff" fill-rule="evenodd" fill-opacity="1" stroke="#000000" stroke-opacity="1" stroke-width="3.2"/>
<polyline clip-path="url(#clip112)" style="stroke:#ff0000; stroke-linecap:round; stroke-linejoin:round; stroke-width:4; stroke-opacity:1; fill:none" points="424.606,86.1857 443.515,204.028 462.424,309.832 481.333,404.963 500.242,490.617 519.151,567.842 538.06,637.562 556.969,700.586 575.878,757.628 594.787,809.321 613.696,856.224 632.605,898.827 651.514,937.569 670.423,972.842 689.332,1004.99 708.241,1034.32 727.15,1061.11 746.059,1085.6 764.968,1108.01 783.877,1128.55 802.786,1147.37 821.695,1164.65 840.604,1180.52 859.513,1195.11 878.422,1208.54 897.331,1220.91 916.24,1232.31 935.149,1242.83 954.058,1252.54 972.967,1261.52 991.876,1269.81 1010.78,1277.49 1029.69,1284.6 1048.6,1291.2 1067.51,1297.31 1086.42,1302.98 1105.33,1308.25 1124.24,1313.15 1143.15,1317.7 1162.06,1321.94 1180.97,1325.89 1199.87,1329.57 1218.78,1333 1237.69,1336.2 1256.6,1339.18 1275.51,1341.97 1294.42,1344.58 1313.33,1347.02 1332.24,1349.3 1351.15,1351.43 1370.06,1353.43 1388.96,1355.31 1407.87,1357.06 1426.78,1358.71 1445.69,1360.26 1464.6,1361.71 1483.51,1363.08 1502.42,1364.36 1521.33,1365.57 1540.24,1366.7 1559.15,1367.77 1578.05,1368.78 1596.96,1369.73 1615.87,1370.62 1634.78,1371.46 1653.69,1372.26 1672.6,1373 1691.51,1373.71 1710.42,1374.38 1729.33,1375.02 1748.24,1375.62 1767.14,1376.19 1786.05,1376.72 1804.96,1377.22 1823.87,1377.69 1842.78,1378.12 1861.69,1378.52 1880.6,1378.89 1899.51,1379.23 1918.42,1379.54 1937.33,1379.83 1956.23,1380.09 1975.14,1380.32 1994.05,1380.51 2012.96,1380.7 2031.87,1380.85 2050.78,1380.93 2069.69,1380.97 2088.6,1381.02 2107.51,1381.07 2126.42,1381.13 2145.32,1381.13 2164.23,1381.13 2183.14,1381.13 2202.05,1381.13 2220.96,1381.13 2239.87,1381.13 2258.78,1381.13 2277.69,1381.13 2296.6,1381.13 "/>
<circle clip-path="url(#clip112)" cx="2126.42" cy="1381.13" r="14.4" fill="#ff0000" fill-rule="evenodd" fill-opacity="1" stroke="#000000" stroke-opacity="1" stroke-width="3.2"/>
<polyline clip-path="url(#clip112)" style="stroke:#008000; stroke-linecap:round; stroke-linejoin:round; stroke-width:4; stroke-opacity:1; fill:none" points="424.606,1381.13 2296.6,1381.13 "/>
<polyline clip-path="url(#clip112)" style="stroke:#d3d3d3; stroke-linecap:round; stroke-linejoin:round; stroke-width:4; stroke-opacity:1; fill:none" points="2072.88,1379.64 1892.15,1010.4 "/>
<polyline clip-path="url(#clip112)" style="stroke:#d3d3d3; stroke-linecap:round; stroke-linejoin:round; stroke-width:4; stroke-opacity:1; fill:none" points="1908.75,1382.79 1908.75,1379.64 2238.56,1379.64 2238.56,1382.79 1908.75,1382.79 "/>
<path clip-path="url(#clip110)" d="M1640.27 300.469 L2286.61 300.469 L2286.61 93.1086 L1640.27 93.1086  Z" fill="#ffffff" fill-rule="evenodd" fill-opacity="1"/>
<polyline clip-path="url(#clip110)" style="stroke:#000000; stroke-linecap:round; stroke-linejoin:round; stroke-width:4; stroke-opacity:1; fill:none" points="1640.27,300.469 2286.61,300.469 2286.61,93.1086 1640.27,93.1086 1640.27,300.469 "/>
<polyline clip-path="url(#clip110)" style="stroke:#0000ff; stroke-linecap:round; stroke-linejoin:round; stroke-width:4; stroke-opacity:1; fill:none" points="1662.31,144.949 1794.6,144.949 "/>
<path clip-path="url(#clip110)" d="M1816.65 127.669 L1836.51 127.669 L1836.51 131.604 L1821.33 131.604 L1821.33 141.789 L1835.03 141.789 L1835.03 145.724 L1821.33 145.724 L1821.33 162.229 L1816.65 162.229 L1816.65 127.669 Z" fill="#000000" fill-rule="nonzero" fill-opacity="1" /><path clip-path="url(#clip110)" d="M1840.7 151.997 L1840.7 136.303 L1844.96 136.303 L1844.96 151.835 Q1844.96 155.516 1846.4 157.368 Q1847.83 159.196 1850.7 159.196 Q1854.15 159.196 1856.14 156.997 Q1858.15 154.798 1858.15 151.002 L1858.15 136.303 L1862.41 136.303 L1862.41 162.229 L1858.15 162.229 L1858.15 158.247 Q1856.6 160.608 1854.54 161.766 Q1852.51 162.9 1849.8 162.9 Q1845.33 162.9 1843.02 160.122 Q1840.7 157.344 1840.7 151.997 M1851.42 135.678 L1851.42 135.678 Z" fill="#000000" fill-rule="nonzero" fill-opacity="1" /><path clip-path="url(#clip110)" d="M1871.19 126.21 L1875.45 126.21 L1875.45 162.229 L1871.19 162.229 L1871.19 126.21 Z" fill="#000000" fill-rule="nonzero" fill-opacity="1" /><path clip-path="url(#clip110)" d="M1884.36 126.21 L1888.62 126.21 L1888.62 162.229 L1884.36 162.229 L1884.36 126.21 Z" fill="#000000" fill-rule="nonzero" fill-opacity="1" /><path clip-path="url(#clip110)" d="M1908.32 164.636 Q1906.51 169.266 1904.8 170.678 Q1903.08 172.09 1900.21 172.09 L1896.81 172.09 L1896.81 168.525 L1899.31 168.525 Q1901.07 168.525 1902.04 167.692 Q1903.02 166.858 1904.2 163.756 L1904.96 161.812 L1894.47 136.303 L1898.99 136.303 L1907.09 156.581 L1915.19 136.303 L1919.71 136.303 L1908.32 164.636 Z" fill="#000000" fill-rule="nonzero" fill-opacity="1" /><path clip-path="url(#clip110)" d="M1959.31 137.298 L1959.31 141.28 Q1957.51 140.284 1955.68 139.798 Q1953.87 139.289 1952.02 139.289 Q1947.88 139.289 1945.58 141.928 Q1943.29 144.544 1943.29 149.289 Q1943.29 154.034 1945.58 156.673 Q1947.88 159.289 1952.02 159.289 Q1953.87 159.289 1955.68 158.803 Q1957.51 158.293 1959.31 157.298 L1959.31 161.233 Q1957.53 162.067 1955.61 162.483 Q1953.71 162.9 1951.56 162.9 Q1945.7 162.9 1942.25 159.219 Q1938.8 155.539 1938.8 149.289 Q1938.8 142.946 1942.27 139.312 Q1945.77 135.678 1951.83 135.678 Q1953.8 135.678 1955.68 136.095 Q1957.55 136.488 1959.31 137.298 Z" fill="#000000" fill-rule="nonzero" fill-opacity="1" /><path clip-path="url(#clip110)" d="M1988.27 146.581 L1988.27 162.229 L1984.01 162.229 L1984.01 146.719 Q1984.01 143.039 1982.58 141.21 Q1981.14 139.382 1978.27 139.382 Q1974.82 139.382 1972.83 141.581 Q1970.84 143.78 1970.84 147.576 L1970.84 162.229 L1966.56 162.229 L1966.56 126.21 L1970.84 126.21 L1970.84 140.331 Q1972.37 137.993 1974.43 136.835 Q1976.51 135.678 1979.22 135.678 Q1983.69 135.678 1985.98 138.456 Q1988.27 141.21 1988.27 146.581 Z" fill="#000000" fill-rule="nonzero" fill-opacity="1" /><path clip-path="url(#clip110)" d="M2006.81 139.289 Q2003.39 139.289 2001.39 141.974 Q1999.4 144.636 1999.4 149.289 Q1999.4 153.942 2001.37 156.627 Q2003.36 159.289 2006.81 159.289 Q2010.21 159.289 2012.2 156.604 Q2014.2 153.918 2014.2 149.289 Q2014.2 144.682 2012.2 141.997 Q2010.21 139.289 2006.81 139.289 M2006.81 135.678 Q2012.37 135.678 2015.54 139.289 Q2018.71 142.9 2018.71 149.289 Q2018.71 155.655 2015.54 159.289 Q2012.37 162.9 2006.81 162.9 Q2001.23 162.9 1998.06 159.289 Q1994.91 155.655 1994.91 149.289 Q1994.91 142.9 1998.06 139.289 Q2001.23 135.678 2006.81 135.678 Z" fill="#000000" fill-rule="nonzero" fill-opacity="1" /><path clip-path="url(#clip110)" d="M2025.61 126.21 L2029.89 126.21 L2029.89 147.483 L2042.6 136.303 L2048.04 136.303 L2034.29 148.432 L2048.62 162.229 L2043.06 162.229 L2029.89 149.567 L2029.89 162.229 L2025.61 162.229 L2025.61 126.21 Z" fill="#000000" fill-rule="nonzero" fill-opacity="1" /><path clip-path="url(#clip110)" d="M2073.71 148.201 L2073.71 150.284 L2054.13 150.284 Q2054.4 154.682 2056.76 156.997 Q2059.15 159.289 2063.38 159.289 Q2065.84 159.289 2068.13 158.687 Q2070.45 158.085 2072.71 156.881 L2072.71 160.909 Q2070.42 161.881 2068.01 162.391 Q2065.61 162.9 2063.13 162.9 Q2056.93 162.9 2053.29 159.289 Q2049.68 155.678 2049.68 149.52 Q2049.68 143.155 2053.11 139.428 Q2056.56 135.678 2062.39 135.678 Q2067.62 135.678 2070.65 139.057 Q2073.71 142.414 2073.71 148.201 M2069.45 146.951 Q2069.4 143.456 2067.48 141.372 Q2065.58 139.289 2062.44 139.289 Q2058.87 139.289 2056.72 141.303 Q2054.59 143.317 2054.26 146.974 L2069.45 146.951 Z" fill="#000000" fill-rule="nonzero" fill-opacity="1" /><path clip-path="url(#clip110)" d="M2097.76 140.238 L2097.76 126.21 L2102.02 126.21 L2102.02 162.229 L2097.76 162.229 L2097.76 158.34 Q2096.42 160.655 2094.36 161.789 Q2092.32 162.9 2089.45 162.9 Q2084.75 162.9 2081.79 159.15 Q2078.85 155.4 2078.85 149.289 Q2078.85 143.178 2081.79 139.428 Q2084.75 135.678 2089.45 135.678 Q2092.32 135.678 2094.36 136.812 Q2096.42 137.923 2097.76 140.238 M2083.25 149.289 Q2083.25 153.988 2085.17 156.673 Q2087.11 159.335 2090.49 159.335 Q2093.87 159.335 2095.82 156.673 Q2097.76 153.988 2097.76 149.289 Q2097.76 144.59 2095.82 141.928 Q2093.87 139.243 2090.49 139.243 Q2087.11 139.243 2085.17 141.928 Q2083.25 144.59 2083.25 149.289 Z" fill="#000000" fill-rule="nonzero" fill-opacity="1" /><path clip-path="url(#clip110)" d="M2146.05 141.28 Q2147.64 138.409 2149.87 137.044 Q2152.09 135.678 2155.1 135.678 Q2159.15 135.678 2161.35 138.525 Q2163.55 141.349 2163.55 146.581 L2163.55 162.229 L2159.26 162.229 L2159.26 146.719 Q2159.26 142.993 2157.94 141.187 Q2156.63 139.382 2153.92 139.382 Q2150.61 139.382 2148.69 141.581 Q2146.76 143.78 2146.76 147.576 L2146.76 162.229 L2142.48 162.229 L2142.48 146.719 Q2142.48 142.969 2141.16 141.187 Q2139.84 139.382 2137.09 139.382 Q2133.82 139.382 2131.9 141.604 Q2129.98 143.803 2129.98 147.576 L2129.98 162.229 L2125.7 162.229 L2125.7 136.303 L2129.98 136.303 L2129.98 140.331 Q2131.44 137.946 2133.48 136.812 Q2135.51 135.678 2138.32 135.678 Q2141.14 135.678 2143.11 137.113 Q2145.1 138.548 2146.05 141.28 Z" fill="#000000" fill-rule="nonzero" fill-opacity="1" /><path clip-path="url(#clip110)" d="M2182.09 139.289 Q2178.66 139.289 2176.67 141.974 Q2174.68 144.636 2174.68 149.289 Q2174.68 153.942 2176.65 156.627 Q2178.64 159.289 2182.09 159.289 Q2185.49 159.289 2187.48 156.604 Q2189.47 153.918 2189.47 149.289 Q2189.47 144.682 2187.48 141.997 Q2185.49 139.289 2182.09 139.289 M2182.09 135.678 Q2187.64 135.678 2190.81 139.289 Q2193.99 142.9 2193.99 149.289 Q2193.99 155.655 2190.81 159.289 Q2187.64 162.9 2182.09 162.9 Q2176.51 162.9 2173.34 159.289 Q2170.19 155.655 2170.19 149.289 Q2170.19 142.9 2173.34 139.289 Q2176.51 135.678 2182.09 135.678 Z" fill="#000000" fill-rule="nonzero" fill-opacity="1" /><path clip-path="url(#clip110)" d="M2218.11 140.238 L2218.11 126.21 L2222.37 126.21 L2222.37 162.229 L2218.11 162.229 L2218.11 158.34 Q2216.76 160.655 2214.7 161.789 Q2212.67 162.9 2209.8 162.9 Q2205.1 162.9 2202.13 159.15 Q2199.19 155.4 2199.19 149.289 Q2199.19 143.178 2202.13 139.428 Q2205.1 135.678 2209.8 135.678 Q2212.67 135.678 2214.7 136.812 Q2216.76 137.923 2218.11 140.238 M2203.59 149.289 Q2203.59 153.988 2205.51 156.673 Q2207.46 159.335 2210.84 159.335 Q2214.22 159.335 2216.16 156.673 Q2218.11 153.988 2218.11 149.289 Q2218.11 144.59 2216.16 141.928 Q2214.22 139.243 2210.84 139.243 Q2207.46 139.243 2205.51 141.928 Q2203.59 144.59 2203.59 149.289 Z" fill="#000000" fill-rule="nonzero" fill-opacity="1" /><path clip-path="url(#clip110)" d="M2253.31 148.201 L2253.31 150.284 L2233.73 150.284 Q2234.01 154.682 2236.37 156.997 Q2238.75 159.289 2242.99 159.289 Q2245.44 159.289 2247.74 158.687 Q2250.05 158.085 2252.32 156.881 L2252.32 160.909 Q2250.03 161.881 2247.62 162.391 Q2245.21 162.9 2242.74 162.9 Q2236.53 162.9 2232.9 159.289 Q2229.29 155.678 2229.29 149.52 Q2229.29 143.155 2232.71 139.428 Q2236.16 135.678 2242 135.678 Q2247.23 135.678 2250.26 139.057 Q2253.31 142.414 2253.31 148.201 M2249.06 146.951 Q2249.01 143.456 2247.09 141.372 Q2245.19 139.289 2242.04 139.289 Q2238.48 139.289 2236.32 141.303 Q2234.19 143.317 2233.87 146.974 L2249.06 146.951 Z" fill="#000000" fill-rule="nonzero" fill-opacity="1" /><path clip-path="url(#clip110)" d="M2260.31 126.21 L2264.56 126.21 L2264.56 162.229 L2260.31 162.229 L2260.31 126.21 Z" fill="#000000" fill-rule="nonzero" fill-opacity="1" /><polyline clip-path="url(#clip110)" style="stroke:#ff0000; stroke-linecap:round; stroke-linejoin:round; stroke-width:4; stroke-opacity:1; fill:none" points="1662.31,196.789 1794.6,196.789 "/>
<path clip-path="url(#clip110)" d="M1832.67 182.68 Q1827.58 182.68 1824.57 186.476 Q1821.58 190.272 1821.58 196.823 Q1821.58 203.351 1824.57 207.147 Q1827.58 210.944 1832.67 210.944 Q1837.76 210.944 1840.72 207.147 Q1843.71 203.351 1843.71 196.823 Q1843.71 190.272 1840.72 186.476 Q1837.76 182.68 1832.67 182.68 M1832.67 178.884 Q1839.94 178.884 1844.29 183.768 Q1848.64 188.629 1848.64 196.823 Q1848.64 204.995 1844.29 209.879 Q1839.94 214.74 1832.67 214.74 Q1825.38 214.74 1821 209.879 Q1816.65 205.018 1816.65 196.823 Q1816.65 188.629 1821 183.768 Q1825.38 178.884 1832.67 178.884 Z" fill="#000000" fill-rule="nonzero" fill-opacity="1" /><path clip-path="url(#clip110)" d="M1860.63 183.351 L1860.63 210.226 L1866.28 210.226 Q1873.43 210.226 1876.74 206.985 Q1880.08 203.745 1880.08 196.754 Q1880.08 189.809 1876.74 186.592 Q1873.43 183.351 1866.28 183.351 L1860.63 183.351 M1855.96 179.509 L1865.56 179.509 Q1875.61 179.509 1880.31 183.698 Q1885.01 187.865 1885.01 196.754 Q1885.01 205.689 1880.28 209.879 Q1875.56 214.069 1865.56 214.069 L1855.96 214.069 L1855.96 179.509 Z" fill="#000000" fill-rule="nonzero" fill-opacity="1" /><path clip-path="url(#clip110)" d="M1892.46 179.509 L1914.31 179.509 L1914.31 183.444 L1897.14 183.444 L1897.14 193.675 L1913.59 193.675 L1913.59 197.61 L1897.14 197.61 L1897.14 210.133 L1914.73 210.133 L1914.73 214.069 L1892.46 214.069 L1892.46 179.509 Z" fill="#000000" fill-rule="nonzero" fill-opacity="1" /><polyline clip-path="url(#clip110)" style="stroke:#008000; stroke-linecap:round; stroke-linejoin:round; stroke-width:4; stroke-opacity:1; fill:none" points="1662.31,248.629 1794.6,248.629 "/>
<path clip-path="url(#clip110)" d="M1832.48 235.955 L1826.14 253.154 L1838.85 253.154 L1832.48 235.955 M1829.84 231.349 L1835.15 231.349 L1848.32 265.909 L1843.46 265.909 L1840.31 257.043 L1824.73 257.043 L1821.58 265.909 L1816.65 265.909 L1829.84 231.349 Z" fill="#000000" fill-rule="nonzero" fill-opacity="1" /><path clip-path="url(#clip110)" d="M1873.36 244.96 Q1874.96 242.089 1877.18 240.724 Q1879.4 239.358 1882.41 239.358 Q1886.46 239.358 1888.66 242.205 Q1890.86 245.029 1890.86 250.261 L1890.86 265.909 L1886.58 265.909 L1886.58 250.399 Q1886.58 246.673 1885.26 244.867 Q1883.94 243.062 1881.23 243.062 Q1877.92 243.062 1876 245.261 Q1874.08 247.46 1874.08 251.256 L1874.08 265.909 L1869.8 265.909 L1869.8 250.399 Q1869.8 246.649 1868.48 244.867 Q1867.16 243.062 1864.4 243.062 Q1861.14 243.062 1859.22 245.284 Q1857.3 247.483 1857.3 251.256 L1857.3 265.909 L1853.02 265.909 L1853.02 239.983 L1857.3 239.983 L1857.3 244.011 Q1858.76 241.626 1860.79 240.492 Q1862.83 239.358 1865.63 239.358 Q1868.46 239.358 1870.42 240.793 Q1872.41 242.228 1873.36 244.96 Z" fill="#000000" fill-rule="nonzero" fill-opacity="1" /><path clip-path="url(#clip110)" d="M1917.97 252.969 Q1917.97 248.27 1916.02 245.608 Q1914.1 242.923 1910.72 242.923 Q1907.34 242.923 1905.4 245.608 Q1903.48 248.27 1903.48 252.969 Q1903.48 257.668 1905.4 260.353 Q1907.34 263.015 1910.72 263.015 Q1914.1 263.015 1916.02 260.353 Q1917.97 257.668 1917.97 252.969 M1903.48 243.918 Q1904.82 241.603 1906.86 240.492 Q1908.92 239.358 1911.77 239.358 Q1916.49 239.358 1919.43 243.108 Q1922.39 246.858 1922.39 252.969 Q1922.39 259.08 1919.43 262.83 Q1916.49 266.58 1911.77 266.58 Q1908.92 266.58 1906.86 265.469 Q1904.82 264.335 1903.48 262.02 L1903.48 265.909 L1899.2 265.909 L1899.2 229.89 L1903.48 229.89 L1903.48 243.918 Z" fill="#000000" fill-rule="nonzero" fill-opacity="1" /><path clip-path="url(#clip110)" d="M1929.45 239.983 L1933.71 239.983 L1933.71 265.909 L1929.45 265.909 L1929.45 239.983 M1929.45 229.89 L1933.71 229.89 L1933.71 235.284 L1929.45 235.284 L1929.45 229.89 Z" fill="#000000" fill-rule="nonzero" fill-opacity="1" /><path clip-path="url(#clip110)" d="M1964.8 251.881 L1964.8 253.964 L1945.21 253.964 Q1945.49 258.362 1947.85 260.677 Q1950.24 262.969 1954.47 262.969 Q1956.93 262.969 1959.22 262.367 Q1961.53 261.765 1963.8 260.561 L1963.8 264.589 Q1961.51 265.561 1959.1 266.071 Q1956.7 266.58 1954.22 266.58 Q1948.02 266.58 1944.38 262.969 Q1940.77 259.358 1940.77 253.2 Q1940.77 246.835 1944.2 243.108 Q1947.64 239.358 1953.48 239.358 Q1958.71 239.358 1961.74 242.737 Q1964.8 246.094 1964.8 251.881 M1960.54 250.631 Q1960.49 247.136 1958.57 245.052 Q1956.67 242.969 1953.52 242.969 Q1949.96 242.969 1947.81 244.983 Q1945.68 246.997 1945.35 250.654 L1960.54 250.631 Z" fill="#000000" fill-rule="nonzero" fill-opacity="1" /><path clip-path="url(#clip110)" d="M1993.34 250.261 L1993.34 265.909 L1989.08 265.909 L1989.08 250.399 Q1989.08 246.719 1987.64 244.89 Q1986.21 243.062 1983.34 243.062 Q1979.89 243.062 1977.9 245.261 Q1975.91 247.46 1975.91 251.256 L1975.91 265.909 L1971.63 265.909 L1971.63 239.983 L1975.91 239.983 L1975.91 244.011 Q1977.44 241.673 1979.5 240.515 Q1981.58 239.358 1984.29 239.358 Q1988.76 239.358 1991.05 242.136 Q1993.34 244.89 1993.34 250.261 Z" fill="#000000" fill-rule="nonzero" fill-opacity="1" /><path clip-path="url(#clip110)" d="M2006.05 232.622 L2006.05 239.983 L2014.82 239.983 L2014.82 243.293 L2006.05 243.293 L2006.05 257.367 Q2006.05 260.538 2006.9 261.441 Q2007.78 262.344 2010.45 262.344 L2014.82 262.344 L2014.82 265.909 L2010.45 265.909 Q2005.51 265.909 2003.64 264.08 Q2001.76 262.228 2001.76 257.367 L2001.76 243.293 L1998.64 243.293 L1998.64 239.983 L2001.76 239.983 L2001.76 232.622 L2006.05 232.622 Z" fill="#000000" fill-rule="nonzero" fill-opacity="1" /><path clip-path="url(#clip110)" d="M2040.35 235.191 L2040.35 248.177 L2046.23 248.177 Q2049.5 248.177 2051.28 246.487 Q2053.06 244.798 2053.06 241.673 Q2053.06 238.571 2051.28 236.881 Q2049.5 235.191 2046.23 235.191 L2040.35 235.191 M2035.68 231.349 L2046.23 231.349 Q2052.04 231.349 2055.01 233.987 Q2057.99 236.603 2057.99 241.673 Q2057.99 246.788 2055.01 249.404 Q2052.04 252.02 2046.23 252.02 L2040.35 252.02 L2040.35 265.909 L2035.68 265.909 L2035.68 231.349 Z" fill="#000000" fill-rule="nonzero" fill-opacity="1" /><path clip-path="url(#clip110)" d="M2078.27 243.964 Q2077.55 243.548 2076.69 243.362 Q2075.86 243.154 2074.84 243.154 Q2071.23 243.154 2069.29 245.515 Q2067.37 247.853 2067.37 252.251 L2067.37 265.909 L2063.08 265.909 L2063.08 239.983 L2067.37 239.983 L2067.37 244.011 Q2068.71 241.649 2070.86 240.515 Q2073.01 239.358 2076.09 239.358 Q2076.53 239.358 2077.07 239.427 Q2077.6 239.474 2078.25 239.589 L2078.27 243.964 Z" fill="#000000" fill-rule="nonzero" fill-opacity="1" /><path clip-path="url(#clip110)" d="M2103.87 251.881 L2103.87 253.964 L2084.29 253.964 Q2084.57 258.362 2086.93 260.677 Q2089.31 262.969 2093.55 262.969 Q2096 262.969 2098.29 262.367 Q2100.61 261.765 2102.88 260.561 L2102.88 264.589 Q2100.58 265.561 2098.18 266.071 Q2095.77 266.58 2093.29 266.58 Q2087.09 266.58 2083.45 262.969 Q2079.84 259.358 2079.84 253.2 Q2079.84 246.835 2083.27 243.108 Q2086.72 239.358 2092.55 239.358 Q2097.78 239.358 2100.82 242.737 Q2103.87 246.094 2103.87 251.881 M2099.61 250.631 Q2099.57 247.136 2097.64 245.052 Q2095.75 242.969 2092.6 242.969 Q2089.03 242.969 2086.88 244.983 Q2084.75 246.997 2084.43 250.654 L2099.61 250.631 Z" fill="#000000" fill-rule="nonzero" fill-opacity="1" /><path clip-path="url(#clip110)" d="M2127.39 240.747 L2127.39 244.774 Q2125.58 243.849 2123.64 243.386 Q2121.69 242.923 2119.61 242.923 Q2116.44 242.923 2114.84 243.895 Q2113.27 244.867 2113.27 246.811 Q2113.27 248.293 2114.4 249.149 Q2115.54 249.983 2118.96 250.747 L2120.42 251.071 Q2124.96 252.043 2126.86 253.825 Q2128.78 255.585 2128.78 258.756 Q2128.78 262.367 2125.91 264.473 Q2123.06 266.58 2118.06 266.58 Q2115.98 266.58 2113.71 266.163 Q2111.46 265.77 2108.96 264.96 L2108.96 260.561 Q2111.32 261.788 2113.62 262.413 Q2115.91 263.015 2118.15 263.015 Q2121.16 263.015 2122.78 261.997 Q2124.4 260.955 2124.4 259.08 Q2124.4 257.344 2123.22 256.418 Q2122.07 255.492 2118.11 254.636 L2116.63 254.288 Q2112.67 253.455 2110.91 251.742 Q2109.15 250.006 2109.15 246.997 Q2109.15 243.339 2111.74 241.349 Q2114.33 239.358 2119.1 239.358 Q2121.46 239.358 2123.55 239.705 Q2125.63 240.052 2127.39 240.747 Z" fill="#000000" fill-rule="nonzero" fill-opacity="1" /><path clip-path="url(#clip110)" d="M2152.09 240.747 L2152.09 244.774 Q2150.28 243.849 2148.34 243.386 Q2146.39 242.923 2144.31 242.923 Q2141.14 242.923 2139.54 243.895 Q2137.97 244.867 2137.97 246.811 Q2137.97 248.293 2139.1 249.149 Q2140.24 249.983 2143.66 250.747 L2145.12 251.071 Q2149.66 252.043 2151.56 253.825 Q2153.48 255.585 2153.48 258.756 Q2153.48 262.367 2150.61 264.473 Q2147.76 266.58 2142.76 266.58 Q2140.68 266.58 2138.41 266.163 Q2136.16 265.77 2133.66 264.96 L2133.66 260.561 Q2136.02 261.788 2138.32 262.413 Q2140.61 263.015 2142.85 263.015 Q2145.86 263.015 2147.48 261.997 Q2149.1 260.955 2149.1 259.08 Q2149.1 257.344 2147.92 256.418 Q2146.76 255.492 2142.81 254.636 L2141.32 254.288 Q2137.37 253.455 2135.61 251.742 Q2133.85 250.006 2133.85 246.997 Q2133.85 243.339 2136.44 241.349 Q2139.03 239.358 2143.8 239.358 Q2146.16 239.358 2148.25 239.705 Q2150.33 240.052 2152.09 240.747 Z" fill="#000000" fill-rule="nonzero" fill-opacity="1" /><path clip-path="url(#clip110)" d="M2159.82 255.677 L2159.82 239.983 L2164.08 239.983 L2164.08 255.515 Q2164.08 259.196 2165.51 261.048 Q2166.95 262.876 2169.82 262.876 Q2173.27 262.876 2175.26 260.677 Q2177.27 258.478 2177.27 254.682 L2177.27 239.983 L2181.53 239.983 L2181.53 265.909 L2177.27 265.909 L2177.27 261.927 Q2175.72 264.288 2173.66 265.446 Q2171.63 266.58 2168.92 266.58 Q2164.45 266.58 2162.13 263.802 Q2159.82 261.024 2159.82 255.677 M2170.54 239.358 L2170.54 239.358 Z" fill="#000000" fill-rule="nonzero" fill-opacity="1" /><path clip-path="url(#clip110)" d="M2205.33 243.964 Q2204.61 243.548 2203.75 243.362 Q2202.92 243.154 2201.9 243.154 Q2198.29 243.154 2196.35 245.515 Q2194.43 247.853 2194.43 252.251 L2194.43 265.909 L2190.14 265.909 L2190.14 239.983 L2194.43 239.983 L2194.43 244.011 Q2195.77 241.649 2197.92 240.515 Q2200.07 239.358 2203.15 239.358 Q2203.59 239.358 2204.12 239.427 Q2204.66 239.474 2205.31 239.589 L2205.33 243.964 Z" fill="#000000" fill-rule="nonzero" fill-opacity="1" /><path clip-path="url(#clip110)" d="M2230.93 251.881 L2230.93 253.964 L2211.35 253.964 Q2211.62 258.362 2213.99 260.677 Q2216.37 262.969 2220.61 262.969 Q2223.06 262.969 2225.35 262.367 Q2227.67 261.765 2229.93 260.561 L2229.93 264.589 Q2227.64 265.561 2225.24 266.071 Q2222.83 266.58 2220.35 266.58 Q2214.15 266.58 2210.51 262.969 Q2206.9 259.358 2206.9 253.2 Q2206.9 246.835 2210.33 243.108 Q2213.78 239.358 2219.61 239.358 Q2224.84 239.358 2227.87 242.737 Q2230.93 246.094 2230.93 251.881 M2226.67 250.631 Q2226.62 247.136 2224.7 245.052 Q2222.81 242.969 2219.66 242.969 Q2216.09 242.969 2213.94 244.983 Q2211.81 246.997 2211.49 250.654 L2226.67 250.631 Z" fill="#000000" fill-rule="nonzero" fill-opacity="1" /><path clip-path="url(#clip110)" d="M1360.6 1010.4 L2154.32 1010.4 L2154.32 460.025 L1360.6 460.025  Z" fill="#ffffff" fill-rule="evenodd" fill-opacity="1"/>
<defs>
  <clipPath id="clip113">
    <rect x="1360" y="460" width="795" height="551"/>
  </clipPath>
</defs>
<polyline clip-path="url(#clip113)" style="stroke:#000000; stroke-linecap:round; stroke-linejoin:round; stroke-width:2; stroke-opacity:0.1; fill:none" points="1360.6,1010.4 1360.6,460.025 "/>
<polyline clip-path="url(#clip113)" style="stroke:#000000; stroke-linecap:round; stroke-linejoin:round; stroke-width:2; stroke-opacity:0.1; fill:none" points="1559.03,1010.4 1559.03,460.025 "/>
<polyline clip-path="url(#clip113)" style="stroke:#000000; stroke-linecap:round; stroke-linejoin:round; stroke-width:2; stroke-opacity:0.1; fill:none" points="1757.46,1010.4 1757.46,460.025 "/>
<polyline clip-path="url(#clip113)" style="stroke:#000000; stroke-linecap:round; stroke-linejoin:round; stroke-width:2; stroke-opacity:0.1; fill:none" points="1955.89,1010.4 1955.89,460.025 "/>
<polyline clip-path="url(#clip113)" style="stroke:#000000; stroke-linecap:round; stroke-linejoin:round; stroke-width:2; stroke-opacity:0.1; fill:none" points="2154.32,1010.4 2154.32,460.025 "/>
<polyline clip-path="url(#clip113)" style="stroke:#000000; stroke-linecap:round; stroke-linejoin:round; stroke-width:2; stroke-opacity:0.1; fill:none" points="1360.6,955.362 2154.32,955.362 "/>
<polyline clip-path="url(#clip113)" style="stroke:#000000; stroke-linecap:round; stroke-linejoin:round; stroke-width:2; stroke-opacity:0.1; fill:none" points="1360.6,845.287 2154.32,845.287 "/>
<polyline clip-path="url(#clip113)" style="stroke:#000000; stroke-linecap:round; stroke-linejoin:round; stroke-width:2; stroke-opacity:0.1; fill:none" points="1360.6,735.212 2154.32,735.212 "/>
<polyline clip-path="url(#clip113)" style="stroke:#000000; stroke-linecap:round; stroke-linejoin:round; stroke-width:2; stroke-opacity:0.1; fill:none" points="1360.6,625.137 2154.32,625.137 "/>
<polyline clip-path="url(#clip113)" style="stroke:#000000; stroke-linecap:round; stroke-linejoin:round; stroke-width:2; stroke-opacity:0.1; fill:none" points="1360.6,515.062 2154.32,515.062 "/>
<polyline clip-path="url(#clip110)" style="stroke:#000000; stroke-linecap:round; stroke-linejoin:round; stroke-width:4; stroke-opacity:1; fill:none" points="1360.6,1010.4 2154.32,1010.4 "/>
<polyline clip-path="url(#clip110)" style="stroke:#000000; stroke-linecap:round; stroke-linejoin:round; stroke-width:4; stroke-opacity:1; fill:none" points="1360.6,1010.4 1360.6,991.501 "/>
<polyline clip-path="url(#clip110)" style="stroke:#000000; stroke-linecap:round; stroke-linejoin:round; stroke-width:4; stroke-opacity:1; fill:none" points="1559.03,1010.4 1559.03,991.501 "/>
<polyline clip-path="url(#clip110)" style="stroke:#000000; stroke-linecap:round; stroke-linejoin:round; stroke-width:4; stroke-opacity:1; fill:none" points="1757.46,1010.4 1757.46,991.501 "/>
<polyline clip-path="url(#clip110)" style="stroke:#000000; stroke-linecap:round; stroke-linejoin:round; stroke-width:4; stroke-opacity:1; fill:none" points="1955.89,1010.4 1955.89,991.501 "/>
<polyline clip-path="url(#clip110)" style="stroke:#000000; stroke-linecap:round; stroke-linejoin:round; stroke-width:4; stroke-opacity:1; fill:none" points="2154.32,1010.4 2154.32,991.501 "/>
<path clip-path="url(#clip110)" d="M1335.33 1068.86 L1342.97 1068.86 L1342.97 1042.5 L1334.66 1044.17 L1334.66 1039.91 L1342.93 1038.24 L1347.6 1038.24 L1347.6 1068.86 L1355.24 1068.86 L1355.24 1072.8 L1335.33 1072.8 L1335.33 1068.86 Z" fill="#000000" fill-rule="nonzero" fill-opacity="1" /><path clip-path="url(#clip110)" d="M1374.69 1056.39 Q1371.35 1056.39 1369.43 1058.17 Q1367.53 1059.95 1367.53 1063.08 Q1367.53 1066.2 1369.43 1067.98 Q1371.35 1069.77 1374.69 1069.77 Q1378.02 1069.77 1379.94 1067.98 Q1381.86 1066.18 1381.86 1063.08 Q1381.86 1059.95 1379.94 1058.17 Q1378.04 1056.39 1374.69 1056.39 M1370.01 1054.4 Q1367 1053.66 1365.31 1051.6 Q1363.65 1049.54 1363.65 1046.57 Q1363.65 1042.43 1366.58 1040.02 Q1369.55 1037.61 1374.69 1037.61 Q1379.85 1037.61 1382.79 1040.02 Q1385.73 1042.43 1385.73 1046.57 Q1385.73 1049.54 1384.04 1051.6 Q1382.37 1053.66 1379.39 1054.4 Q1382.77 1055.18 1384.64 1057.48 Q1386.54 1059.77 1386.54 1063.08 Q1386.54 1068.1 1383.46 1070.79 Q1380.4 1073.47 1374.69 1073.47 Q1368.97 1073.47 1365.89 1070.79 Q1362.83 1068.1 1362.83 1063.08 Q1362.83 1059.77 1364.73 1057.48 Q1366.63 1055.18 1370.01 1054.4 M1368.3 1047.01 Q1368.3 1049.7 1369.96 1051.2 Q1371.65 1052.71 1374.69 1052.71 Q1377.7 1052.71 1379.39 1051.2 Q1381.1 1049.7 1381.1 1047.01 Q1381.1 1044.33 1379.39 1042.82 Q1377.7 1041.32 1374.69 1041.32 Q1371.65 1041.32 1369.96 1042.82 Q1368.3 1044.33 1368.3 1047.01 Z" fill="#000000" fill-rule="nonzero" fill-opacity="1" /><path clip-path="url(#clip110)" d="M1533.81 1068.86 L1541.45 1068.86 L1541.45 1042.5 L1533.14 1044.17 L1533.14 1039.91 L1541.4 1038.24 L1546.08 1038.24 L1546.08 1068.86 L1553.72 1068.86 L1553.72 1072.8 L1533.81 1072.8 L1533.81 1068.86 Z" fill="#000000" fill-rule="nonzero" fill-opacity="1" /><path clip-path="url(#clip110)" d="M1563.3 1072.08 L1563.3 1067.82 Q1565.06 1068.66 1566.87 1069.1 Q1568.67 1069.54 1570.41 1069.54 Q1575.04 1069.54 1577.47 1066.43 Q1579.92 1063.31 1580.27 1056.97 Q1578.93 1058.96 1576.87 1060.02 Q1574.81 1061.09 1572.31 1061.09 Q1567.12 1061.09 1564.09 1057.96 Q1561.08 1054.81 1561.08 1049.37 Q1561.08 1044.05 1564.23 1040.83 Q1567.38 1037.61 1572.61 1037.61 Q1578.6 1037.61 1581.75 1042.22 Q1584.92 1046.8 1584.92 1055.55 Q1584.92 1063.73 1581.03 1068.61 Q1577.17 1073.47 1570.62 1073.47 Q1568.86 1073.47 1567.05 1073.12 Q1565.25 1072.78 1563.3 1072.08 M1572.61 1057.43 Q1575.76 1057.43 1577.59 1055.28 Q1579.44 1053.12 1579.44 1049.37 Q1579.44 1045.65 1577.59 1043.49 Q1575.76 1041.32 1572.61 1041.32 Q1569.46 1041.32 1567.61 1043.49 Q1565.78 1045.65 1565.78 1049.37 Q1565.78 1053.12 1567.61 1055.28 Q1569.46 1057.43 1572.61 1057.43 Z" fill="#000000" fill-rule="nonzero" fill-opacity="1" /><path clip-path="url(#clip110)" d="M1736.24 1068.86 L1752.56 1068.86 L1752.56 1072.8 L1730.61 1072.8 L1730.61 1068.86 Q1733.27 1066.11 1737.86 1061.48 Q1742.46 1056.83 1743.64 1055.48 Q1745.89 1052.96 1746.77 1051.23 Q1747.67 1049.47 1747.67 1047.78 Q1747.67 1045.02 1745.73 1043.29 Q1743.81 1041.55 1740.7 1041.55 Q1738.5 1041.55 1736.05 1042.31 Q1733.62 1043.08 1730.84 1044.63 L1730.84 1039.91 Q1733.67 1038.77 1736.12 1038.19 Q1738.57 1037.61 1740.61 1037.61 Q1745.98 1037.61 1749.18 1040.3 Q1752.37 1042.98 1752.37 1047.48 Q1752.37 1049.6 1751.56 1051.53 Q1750.77 1053.42 1748.67 1056.02 Q1748.09 1056.69 1744.99 1059.91 Q1741.88 1063.1 1736.24 1068.86 Z" fill="#000000" fill-rule="nonzero" fill-opacity="1" /><path clip-path="url(#clip110)" d="M1772.37 1041.32 Q1768.76 1041.32 1766.93 1044.88 Q1765.12 1048.42 1765.12 1055.55 Q1765.12 1062.66 1766.93 1066.23 Q1768.76 1069.77 1772.37 1069.77 Q1776 1069.77 1777.81 1066.23 Q1779.64 1062.66 1779.64 1055.55 Q1779.64 1048.42 1777.81 1044.88 Q1776 1041.32 1772.37 1041.32 M1772.37 1037.61 Q1778.18 1037.61 1781.24 1042.22 Q1784.31 1046.8 1784.31 1055.55 Q1784.31 1064.28 1781.24 1068.89 Q1778.18 1073.47 1772.37 1073.47 Q1766.56 1073.47 1763.48 1068.89 Q1760.43 1064.28 1760.43 1055.55 Q1760.43 1046.8 1763.48 1042.22 Q1766.56 1037.61 1772.37 1037.61 Z" fill="#000000" fill-rule="nonzero" fill-opacity="1" /><path clip-path="url(#clip110)" d="M1935.28 1068.86 L1951.6 1068.86 L1951.6 1072.8 L1929.66 1072.8 L1929.66 1068.86 Q1932.32 1066.11 1936.9 1061.48 Q1941.51 1056.83 1942.69 1055.48 Q1944.93 1052.96 1945.81 1051.23 Q1946.72 1049.47 1946.72 1047.78 Q1946.72 1045.02 1944.77 1043.29 Q1942.85 1041.55 1939.75 1041.55 Q1937.55 1041.55 1935.1 1042.31 Q1932.66 1043.08 1929.89 1044.63 L1929.89 1039.91 Q1932.71 1038.77 1935.16 1038.19 Q1937.62 1037.61 1939.66 1037.61 Q1945.03 1037.61 1948.22 1040.3 Q1951.41 1042.98 1951.41 1047.48 Q1951.41 1049.6 1950.6 1051.53 Q1949.82 1053.42 1947.71 1056.02 Q1947.13 1056.69 1944.03 1059.91 Q1940.93 1063.1 1935.28 1068.86 Z" fill="#000000" fill-rule="nonzero" fill-opacity="1" /><path clip-path="url(#clip110)" d="M1962.22 1068.86 L1969.86 1068.86 L1969.86 1042.5 L1961.55 1044.17 L1961.55 1039.91 L1969.82 1038.24 L1974.49 1038.24 L1974.49 1068.86 L1982.13 1068.86 L1982.13 1072.8 L1962.22 1072.8 L1962.22 1068.86 Z" fill="#000000" fill-rule="nonzero" fill-opacity="1" /><path clip-path="url(#clip110)" d="M2133.9 1068.86 L2150.22 1068.86 L2150.22 1072.8 L2128.27 1072.8 L2128.27 1068.86 Q2130.93 1066.11 2135.52 1061.48 Q2140.12 1056.83 2141.3 1055.48 Q2143.55 1052.96 2144.43 1051.23 Q2145.33 1049.47 2145.33 1047.78 Q2145.33 1045.02 2143.39 1043.29 Q2141.47 1041.55 2138.36 1041.55 Q2136.17 1041.55 2133.71 1042.31 Q2131.28 1043.08 2128.5 1044.63 L2128.5 1039.91 Q2131.33 1038.77 2133.78 1038.19 Q2136.23 1037.61 2138.27 1037.61 Q2143.64 1037.61 2146.84 1040.3 Q2150.03 1042.98 2150.03 1047.48 Q2150.03 1049.6 2149.22 1051.53 Q2148.43 1053.42 2146.33 1056.02 Q2145.75 1056.69 2142.65 1059.91 Q2139.54 1063.1 2133.9 1068.86 Z" fill="#000000" fill-rule="nonzero" fill-opacity="1" /><path clip-path="url(#clip110)" d="M2164.06 1068.86 L2180.38 1068.86 L2180.38 1072.8 L2158.43 1072.8 L2158.43 1068.86 Q2161.1 1066.11 2165.68 1061.48 Q2170.29 1056.83 2171.47 1055.48 Q2173.71 1052.96 2174.59 1051.23 Q2175.49 1049.47 2175.49 1047.78 Q2175.49 1045.02 2173.55 1043.29 Q2171.63 1041.55 2168.53 1041.55 Q2166.33 1041.55 2163.87 1042.31 Q2161.44 1043.08 2158.67 1044.63 L2158.67 1039.91 Q2161.49 1038.77 2163.94 1038.19 Q2166.4 1037.61 2168.43 1037.61 Q2173.8 1037.61 2177 1040.3 Q2180.19 1042.98 2180.19 1047.48 Q2180.19 1049.6 2179.38 1051.53 Q2178.6 1053.42 2176.49 1056.02 Q2175.91 1056.69 2172.81 1059.91 Q2169.71 1063.1 2164.06 1068.86 Z" fill="#000000" fill-rule="nonzero" fill-opacity="1" /><polyline clip-path="url(#clip110)" style="stroke:#000000; stroke-linecap:round; stroke-linejoin:round; stroke-width:4; stroke-opacity:1; fill:none" points="1360.6,1010.4 1360.6,460.025 "/>
<polyline clip-path="url(#clip110)" style="stroke:#000000; stroke-linecap:round; stroke-linejoin:round; stroke-width:4; stroke-opacity:1; fill:none" points="1360.6,955.362 1379.5,955.362 "/>
<polyline clip-path="url(#clip110)" style="stroke:#000000; stroke-linecap:round; stroke-linejoin:round; stroke-width:4; stroke-opacity:1; fill:none" points="1360.6,845.287 1379.5,845.287 "/>
<polyline clip-path="url(#clip110)" style="stroke:#000000; stroke-linecap:round; stroke-linejoin:round; stroke-width:4; stroke-opacity:1; fill:none" points="1360.6,735.212 1379.5,735.212 "/>
<polyline clip-path="url(#clip110)" style="stroke:#000000; stroke-linecap:round; stroke-linejoin:round; stroke-width:4; stroke-opacity:1; fill:none" points="1360.6,625.137 1379.5,625.137 "/>
<polyline clip-path="url(#clip110)" style="stroke:#000000; stroke-linecap:round; stroke-linejoin:round; stroke-width:4; stroke-opacity:1; fill:none" points="1360.6,515.062 1379.5,515.062 "/>
<path clip-path="url(#clip110)" d="M1116.75 962.677 Q1113.42 962.677 1111.5 964.46 Q1109.6 966.242 1109.6 969.367 Q1109.6 972.492 1111.5 974.274 Q1113.42 976.057 1116.75 976.057 Q1120.09 976.057 1122.01 974.274 Q1123.93 972.469 1123.93 969.367 Q1123.93 966.242 1122.01 964.46 Q1120.11 962.677 1116.75 962.677 M1112.08 960.687 Q1109.07 959.946 1107.38 957.886 Q1105.71 955.826 1105.71 952.863 Q1105.71 948.719 1108.65 946.312 Q1111.62 943.904 1116.75 943.904 Q1121.92 943.904 1124.86 946.312 Q1127.8 948.719 1127.8 952.863 Q1127.8 955.826 1126.11 957.886 Q1124.44 959.946 1121.45 960.687 Q1124.83 961.474 1126.71 963.765 Q1128.61 966.057 1128.61 969.367 Q1128.61 974.39 1125.53 977.075 Q1122.47 979.761 1116.75 979.761 Q1111.04 979.761 1107.96 977.075 Q1104.9 974.39 1104.9 969.367 Q1104.9 966.057 1106.8 963.765 Q1108.7 961.474 1112.08 960.687 M1110.37 953.302 Q1110.37 955.988 1112.03 957.492 Q1113.72 958.997 1116.75 958.997 Q1119.76 958.997 1121.45 957.492 Q1123.17 955.988 1123.17 953.302 Q1123.17 950.617 1121.45 949.113 Q1119.76 947.608 1116.75 947.608 Q1113.72 947.608 1112.03 949.113 Q1110.37 950.617 1110.37 953.302 Z" fill="#000000" fill-rule="nonzero" fill-opacity="1" /><path clip-path="url(#clip110)" d="M1136.92 973.21 L1141.8 973.21 L1141.8 979.089 L1136.92 979.089 L1136.92 973.21 Z" fill="#000000" fill-rule="nonzero" fill-opacity="1" /><path clip-path="url(#clip110)" d="M1161.99 947.608 Q1158.38 947.608 1156.55 951.173 Q1154.74 954.714 1154.74 961.844 Q1154.74 968.95 1156.55 972.515 Q1158.38 976.057 1161.99 976.057 Q1165.62 976.057 1167.43 972.515 Q1169.25 968.95 1169.25 961.844 Q1169.25 954.714 1167.43 951.173 Q1165.62 947.608 1161.99 947.608 M1161.99 943.904 Q1167.8 943.904 1170.85 948.511 Q1173.93 953.094 1173.93 961.844 Q1173.93 970.571 1170.85 975.177 Q1167.8 979.761 1161.99 979.761 Q1156.18 979.761 1153.1 975.177 Q1150.04 970.571 1150.04 961.844 Q1150.04 953.094 1153.1 948.511 Q1156.18 943.904 1161.99 943.904 Z" fill="#000000" fill-rule="nonzero" fill-opacity="1" /><path clip-path="url(#clip110)" d="M1192.15 947.608 Q1188.54 947.608 1186.71 951.173 Q1184.9 954.714 1184.9 961.844 Q1184.9 968.95 1186.71 972.515 Q1188.54 976.057 1192.15 976.057 Q1195.78 976.057 1197.59 972.515 Q1199.42 968.95 1199.42 961.844 Q1199.42 954.714 1197.59 951.173 Q1195.78 947.608 1192.15 947.608 M1192.15 943.904 Q1197.96 943.904 1201.01 948.511 Q1204.09 953.094 1204.09 961.844 Q1204.09 970.571 1201.01 975.177 Q1197.96 979.761 1192.15 979.761 Q1186.34 979.761 1183.26 975.177 Q1180.2 970.571 1180.2 961.844 Q1180.2 953.094 1183.26 948.511 Q1186.34 943.904 1192.15 943.904 Z" fill="#000000" fill-rule="nonzero" fill-opacity="1" /><path clip-path="url(#clip110)" d="M1240.48 953.626 L1229.9 964.251 L1240.48 974.83 L1237.73 977.631 L1227.1 967.006 L1216.48 977.631 L1213.75 974.83 L1224.3 964.251 L1213.75 953.626 L1216.48 950.826 L1227.1 961.45 L1237.73 950.826 L1240.48 953.626 Z" fill="#000000" fill-rule="nonzero" fill-opacity="1" /><path clip-path="url(#clip110)" d="M1252.84 975.154 L1260.48 975.154 L1260.48 948.789 L1252.17 950.455 L1252.17 946.196 L1260.43 944.529 L1265.11 944.529 L1265.11 975.154 L1272.75 975.154 L1272.75 979.089 L1252.84 979.089 L1252.84 975.154 Z" fill="#000000" fill-rule="nonzero" fill-opacity="1" /><path clip-path="url(#clip110)" d="M1292.19 947.608 Q1288.58 947.608 1286.75 951.173 Q1284.95 954.714 1284.95 961.844 Q1284.95 968.95 1286.75 972.515 Q1288.58 976.057 1292.19 976.057 Q1295.83 976.057 1297.63 972.515 Q1299.46 968.95 1299.46 961.844 Q1299.46 954.714 1297.63 951.173 Q1295.83 947.608 1292.19 947.608 M1292.19 943.904 Q1298 943.904 1301.06 948.511 Q1304.14 953.094 1304.14 961.844 Q1304.14 970.571 1301.06 975.177 Q1298 979.761 1292.19 979.761 Q1286.38 979.761 1283.3 975.177 Q1280.25 970.571 1280.25 961.844 Q1280.25 953.094 1283.3 948.511 Q1286.38 943.904 1292.19 943.904 Z" fill="#000000" fill-rule="nonzero" fill-opacity="1" /><path clip-path="url(#clip110)" d="M1316.81 926.909 L1307.22 941.899 L1316.81 941.899 L1316.81 926.909 M1315.82 923.599 L1320.59 923.599 L1320.59 941.899 L1324.6 941.899 L1324.6 945.059 L1320.59 945.059 L1320.59 951.679 L1316.81 951.679 L1316.81 945.059 L1304.14 945.059 L1304.14 941.391 L1315.82 923.599 Z" fill="#000000" fill-rule="nonzero" fill-opacity="1" /><path clip-path="url(#clip110)" d="M1106.89 868.297 L1106.89 864.038 Q1108.65 864.871 1110.46 865.311 Q1112.26 865.751 1114 865.751 Q1118.63 865.751 1121.06 862.649 Q1123.51 859.524 1123.86 853.181 Q1122.52 855.172 1120.46 856.237 Q1118.4 857.302 1115.9 857.302 Q1110.71 857.302 1107.68 854.177 Q1104.67 851.028 1104.67 845.589 Q1104.67 840.265 1107.82 837.047 Q1110.97 833.829 1116.2 833.829 Q1122.19 833.829 1125.34 838.436 Q1128.51 843.019 1128.51 851.769 Q1128.51 859.94 1124.63 864.825 Q1120.76 869.686 1114.21 869.686 Q1112.45 869.686 1110.64 869.339 Q1108.84 868.991 1106.89 868.297 M1116.2 853.644 Q1119.35 853.644 1121.18 851.491 Q1123.03 849.339 1123.03 845.589 Q1123.03 841.862 1121.18 839.709 Q1119.35 837.533 1116.2 837.533 Q1113.05 837.533 1111.2 839.709 Q1109.37 841.862 1109.37 845.589 Q1109.37 849.339 1111.2 851.491 Q1113.05 853.644 1116.2 853.644 Z" fill="#000000" fill-rule="nonzero" fill-opacity="1" /><path clip-path="url(#clip110)" d="M1136.92 863.135 L1141.8 863.135 L1141.8 869.014 L1136.92 869.014 L1136.92 863.135 Z" fill="#000000" fill-rule="nonzero" fill-opacity="1" /><path clip-path="url(#clip110)" d="M1161.99 837.533 Q1158.38 837.533 1156.55 841.098 Q1154.74 844.64 1154.74 851.769 Q1154.74 858.876 1156.55 862.44 Q1158.38 865.982 1161.99 865.982 Q1165.62 865.982 1167.43 862.44 Q1169.25 858.876 1169.25 851.769 Q1169.25 844.64 1167.43 841.098 Q1165.62 837.533 1161.99 837.533 M1161.99 833.829 Q1167.8 833.829 1170.85 838.436 Q1173.93 843.019 1173.93 851.769 Q1173.93 860.496 1170.85 865.102 Q1167.8 869.686 1161.99 869.686 Q1156.18 869.686 1153.1 865.102 Q1150.04 860.496 1150.04 851.769 Q1150.04 843.019 1153.1 838.436 Q1156.18 833.829 1161.99 833.829 Z" fill="#000000" fill-rule="nonzero" fill-opacity="1" /><path clip-path="url(#clip110)" d="M1192.15 837.533 Q1188.54 837.533 1186.71 841.098 Q1184.9 844.64 1184.9 851.769 Q1184.9 858.876 1186.71 862.44 Q1188.54 865.982 1192.15 865.982 Q1195.78 865.982 1197.59 862.44 Q1199.42 858.876 1199.42 851.769 Q1199.42 844.64 1197.59 841.098 Q1195.78 837.533 1192.15 837.533 M1192.15 833.829 Q1197.96 833.829 1201.01 838.436 Q1204.09 843.019 1204.09 851.769 Q1204.09 860.496 1201.01 865.102 Q1197.96 869.686 1192.15 869.686 Q1186.34 869.686 1183.26 865.102 Q1180.2 860.496 1180.2 851.769 Q1180.2 843.019 1183.26 838.436 Q1186.34 833.829 1192.15 833.829 Z" fill="#000000" fill-rule="nonzero" fill-opacity="1" /><path clip-path="url(#clip110)" d="M1240.48 843.552 L1229.9 854.177 L1240.48 864.755 L1237.73 867.556 L1227.1 856.931 L1216.48 867.556 L1213.75 864.755 L1224.3 854.177 L1213.75 843.552 L1216.48 840.751 L1227.1 851.376 L1237.73 840.751 L1240.48 843.552 Z" fill="#000000" fill-rule="nonzero" fill-opacity="1" /><path clip-path="url(#clip110)" d="M1252.84 865.079 L1260.48 865.079 L1260.48 838.714 L1252.17 840.38 L1252.17 836.121 L1260.43 834.454 L1265.11 834.454 L1265.11 865.079 L1272.75 865.079 L1272.75 869.014 L1252.84 869.014 L1252.84 865.079 Z" fill="#000000" fill-rule="nonzero" fill-opacity="1" /><path clip-path="url(#clip110)" d="M1292.19 837.533 Q1288.58 837.533 1286.75 841.098 Q1284.95 844.64 1284.95 851.769 Q1284.95 858.876 1286.75 862.44 Q1288.58 865.982 1292.19 865.982 Q1295.83 865.982 1297.63 862.44 Q1299.46 858.876 1299.46 851.769 Q1299.46 844.64 1297.63 841.098 Q1295.83 837.533 1292.19 837.533 M1292.19 833.829 Q1298 833.829 1301.06 838.436 Q1304.14 843.019 1304.14 851.769 Q1304.14 860.496 1301.06 865.102 Q1298 869.686 1292.19 869.686 Q1286.38 869.686 1283.3 865.102 Q1280.25 860.496 1280.25 851.769 Q1280.25 843.019 1283.3 838.436 Q1286.38 833.829 1292.19 833.829 Z" fill="#000000" fill-rule="nonzero" fill-opacity="1" /><path clip-path="url(#clip110)" d="M1316.81 816.834 L1307.22 831.824 L1316.81 831.824 L1316.81 816.834 M1315.82 813.524 L1320.59 813.524 L1320.59 831.824 L1324.6 831.824 L1324.6 834.984 L1320.59 834.984 L1320.59 841.604 L1316.81 841.604 L1316.81 834.984 L1304.14 834.984 L1304.14 831.316 L1315.82 813.524 Z" fill="#000000" fill-rule="nonzero" fill-opacity="1" /><path clip-path="url(#clip110)" d="M1109.86 755.004 L1117.5 755.004 L1117.5 728.639 L1109.19 730.305 L1109.19 726.046 L1117.45 724.38 L1122.13 724.38 L1122.13 755.004 L1129.77 755.004 L1129.77 758.94 L1109.86 758.94 L1109.86 755.004 Z" fill="#000000" fill-rule="nonzero" fill-opacity="1" /><path clip-path="url(#clip110)" d="M1139.21 753.06 L1144.1 753.06 L1144.1 758.94 L1139.21 758.94 L1139.21 753.06 Z" fill="#000000" fill-rule="nonzero" fill-opacity="1" /><path clip-path="url(#clip110)" d="M1164.28 727.458 Q1160.67 727.458 1158.84 731.023 Q1157.04 734.565 1157.04 741.694 Q1157.04 748.801 1158.84 752.366 Q1160.67 755.907 1164.28 755.907 Q1167.91 755.907 1169.72 752.366 Q1171.55 748.801 1171.55 741.694 Q1171.55 734.565 1169.72 731.023 Q1167.91 727.458 1164.28 727.458 M1164.28 723.755 Q1170.09 723.755 1173.15 728.361 Q1176.23 732.944 1176.23 741.694 Q1176.23 750.421 1173.15 755.028 Q1170.09 759.611 1164.28 759.611 Q1158.47 759.611 1155.39 755.028 Q1152.34 750.421 1152.34 741.694 Q1152.34 732.944 1155.39 728.361 Q1158.47 723.755 1164.28 723.755 Z" fill="#000000" fill-rule="nonzero" fill-opacity="1" /><path clip-path="url(#clip110)" d="M1194.44 727.458 Q1190.83 727.458 1189 731.023 Q1187.2 734.565 1187.2 741.694 Q1187.2 748.801 1189 752.366 Q1190.83 755.907 1194.44 755.907 Q1198.08 755.907 1199.88 752.366 Q1201.71 748.801 1201.71 741.694 Q1201.71 734.565 1199.88 731.023 Q1198.08 727.458 1194.44 727.458 M1194.44 723.755 Q1200.25 723.755 1203.31 728.361 Q1206.39 732.944 1206.39 741.694 Q1206.39 750.421 1203.31 755.028 Q1200.25 759.611 1194.44 759.611 Q1188.63 759.611 1185.55 755.028 Q1182.5 750.421 1182.5 741.694 Q1182.5 732.944 1185.55 728.361 Q1188.63 723.755 1194.44 723.755 Z" fill="#000000" fill-rule="nonzero" fill-opacity="1" /><path clip-path="url(#clip110)" d="M1242.78 733.477 L1232.2 744.102 L1242.78 754.68 L1240.02 757.481 L1229.4 746.856 L1218.77 757.481 L1216.04 754.68 L1226.6 744.102 L1216.04 733.477 L1218.77 730.676 L1229.4 741.301 L1240.02 730.676 L1242.78 733.477 Z" fill="#000000" fill-rule="nonzero" fill-opacity="1" /><path clip-path="url(#clip110)" d="M1255.14 755.004 L1262.78 755.004 L1262.78 728.639 L1254.47 730.305 L1254.47 726.046 L1262.73 724.38 L1267.41 724.38 L1267.41 755.004 L1275.04 755.004 L1275.04 758.94 L1255.14 758.94 L1255.14 755.004 Z" fill="#000000" fill-rule="nonzero" fill-opacity="1" /><path clip-path="url(#clip110)" d="M1294.49 727.458 Q1290.88 727.458 1289.05 731.023 Q1287.24 734.565 1287.24 741.694 Q1287.24 748.801 1289.05 752.366 Q1290.88 755.907 1294.49 755.907 Q1298.12 755.907 1299.93 752.366 Q1301.76 748.801 1301.76 741.694 Q1301.76 734.565 1299.93 731.023 Q1298.12 727.458 1294.49 727.458 M1294.49 723.755 Q1300.3 723.755 1303.35 728.361 Q1306.43 732.944 1306.43 741.694 Q1306.43 750.421 1303.35 755.028 Q1300.3 759.611 1294.49 759.611 Q1288.68 759.611 1285.6 755.028 Q1282.54 750.421 1282.54 741.694 Q1282.54 732.944 1285.6 728.361 Q1288.68 723.755 1294.49 723.755 Z" fill="#000000" fill-rule="nonzero" fill-opacity="1" /><path clip-path="url(#clip110)" d="M1307.62 703.449 L1322.53 703.449 L1322.53 706.646 L1311.1 706.646 L1311.1 713.53 Q1311.92 713.248 1312.75 713.116 Q1313.58 712.966 1314.41 712.966 Q1319.11 712.966 1321.86 715.543 Q1324.6 718.119 1324.6 722.52 Q1324.6 727.053 1321.78 729.573 Q1318.96 732.075 1313.82 732.075 Q1312.06 732.075 1310.21 731.774 Q1308.39 731.473 1306.43 730.871 L1306.43 727.053 Q1308.13 727.975 1309.93 728.426 Q1311.74 728.877 1313.75 728.877 Q1317 728.877 1318.9 727.166 Q1320.8 725.454 1320.8 722.52 Q1320.8 719.586 1318.9 717.875 Q1317 716.163 1313.75 716.163 Q1312.23 716.163 1310.7 716.502 Q1309.2 716.84 1307.62 717.555 L1307.62 703.449 Z" fill="#000000" fill-rule="nonzero" fill-opacity="1" /><path clip-path="url(#clip110)" d="M1109.86 644.93 L1117.5 644.93 L1117.5 618.564 L1109.19 620.231 L1109.19 615.971 L1117.45 614.305 L1122.13 614.305 L1122.13 644.93 L1129.77 644.93 L1129.77 648.865 L1109.86 648.865 L1109.86 644.93 Z" fill="#000000" fill-rule="nonzero" fill-opacity="1" /><path clip-path="url(#clip110)" d="M1139.21 642.985 L1144.1 642.985 L1144.1 648.865 L1139.21 648.865 L1139.21 642.985 Z" fill="#000000" fill-rule="nonzero" fill-opacity="1" /><path clip-path="url(#clip110)" d="M1155.09 644.93 L1162.73 644.93 L1162.73 618.564 L1154.42 620.231 L1154.42 615.971 L1162.68 614.305 L1167.36 614.305 L1167.36 644.93 L1175 644.93 L1175 648.865 L1155.09 648.865 L1155.09 644.93 Z" fill="#000000" fill-rule="nonzero" fill-opacity="1" /><path clip-path="url(#clip110)" d="M1194.44 617.383 Q1190.83 617.383 1189 620.948 Q1187.2 624.49 1187.2 631.619 Q1187.2 638.726 1189 642.291 Q1190.83 645.832 1194.44 645.832 Q1198.08 645.832 1199.88 642.291 Q1201.71 638.726 1201.71 631.619 Q1201.71 624.49 1199.88 620.948 Q1198.08 617.383 1194.44 617.383 M1194.44 613.68 Q1200.25 613.68 1203.31 618.286 Q1206.39 622.869 1206.39 631.619 Q1206.39 640.346 1203.31 644.953 Q1200.25 649.536 1194.44 649.536 Q1188.63 649.536 1185.55 644.953 Q1182.5 640.346 1182.5 631.619 Q1182.5 622.869 1185.55 618.286 Q1188.63 613.68 1194.44 613.68 Z" fill="#000000" fill-rule="nonzero" fill-opacity="1" /><path clip-path="url(#clip110)" d="M1242.78 623.402 L1232.2 634.027 L1242.78 644.605 L1240.02 647.406 L1229.4 636.781 L1218.77 647.406 L1216.04 644.605 L1226.6 634.027 L1216.04 623.402 L1218.77 620.601 L1229.4 631.226 L1240.02 620.601 L1242.78 623.402 Z" fill="#000000" fill-rule="nonzero" fill-opacity="1" /><path clip-path="url(#clip110)" d="M1255.14 644.93 L1262.78 644.93 L1262.78 618.564 L1254.47 620.231 L1254.47 615.971 L1262.73 614.305 L1267.41 614.305 L1267.41 644.93 L1275.04 644.93 L1275.04 648.865 L1255.14 648.865 L1255.14 644.93 Z" fill="#000000" fill-rule="nonzero" fill-opacity="1" /><path clip-path="url(#clip110)" d="M1294.49 617.383 Q1290.88 617.383 1289.05 620.948 Q1287.24 624.49 1287.24 631.619 Q1287.24 638.726 1289.05 642.291 Q1290.88 645.832 1294.49 645.832 Q1298.12 645.832 1299.93 642.291 Q1301.76 638.726 1301.76 631.619 Q1301.76 624.49 1299.93 620.948 Q1298.12 617.383 1294.49 617.383 M1294.49 613.68 Q1300.3 613.68 1303.35 618.286 Q1306.43 622.869 1306.43 631.619 Q1306.43 640.346 1303.35 644.953 Q1300.3 649.536 1294.49 649.536 Q1288.68 649.536 1285.6 644.953 Q1282.54 640.346 1282.54 631.619 Q1282.54 622.869 1285.6 618.286 Q1288.68 613.68 1294.49 613.68 Z" fill="#000000" fill-rule="nonzero" fill-opacity="1" /><path clip-path="url(#clip110)" d="M1307.62 593.374 L1322.53 593.374 L1322.53 596.572 L1311.1 596.572 L1311.1 603.455 Q1311.92 603.173 1312.75 603.042 Q1313.58 602.891 1314.41 602.891 Q1319.11 602.891 1321.86 605.468 Q1324.6 608.044 1324.6 612.445 Q1324.6 616.978 1321.78 619.498 Q1318.96 622 1313.82 622 Q1312.06 622 1310.21 621.699 Q1308.39 621.398 1306.43 620.796 L1306.43 616.978 Q1308.13 617.9 1309.93 618.351 Q1311.74 618.802 1313.75 618.802 Q1317 618.802 1318.9 617.091 Q1320.8 615.379 1320.8 612.445 Q1320.8 609.511 1318.9 607.8 Q1317 606.088 1313.75 606.088 Q1312.23 606.088 1310.7 606.427 Q1309.2 606.765 1307.62 607.48 L1307.62 593.374 Z" fill="#000000" fill-rule="nonzero" fill-opacity="1" /><path clip-path="url(#clip110)" d="M1109.86 534.855 L1117.5 534.855 L1117.5 508.489 L1109.19 510.156 L1109.19 505.897 L1117.45 504.23 L1122.13 504.23 L1122.13 534.855 L1129.77 534.855 L1129.77 538.79 L1109.86 538.79 L1109.86 534.855 Z" fill="#000000" fill-rule="nonzero" fill-opacity="1" /><path clip-path="url(#clip110)" d="M1139.21 532.91 L1144.1 532.91 L1144.1 538.79 L1139.21 538.79 L1139.21 532.91 Z" fill="#000000" fill-rule="nonzero" fill-opacity="1" /><path clip-path="url(#clip110)" d="M1158.31 534.855 L1174.63 534.855 L1174.63 538.79 L1152.68 538.79 L1152.68 534.855 Q1155.35 532.1 1159.93 527.47 Q1164.54 522.818 1165.72 521.475 Q1167.96 518.952 1168.84 517.216 Q1169.74 515.457 1169.74 513.767 Q1169.74 511.012 1167.8 509.276 Q1165.88 507.54 1162.78 507.54 Q1160.58 507.54 1158.12 508.304 Q1155.69 509.068 1152.92 510.619 L1152.92 505.897 Q1155.74 504.762 1158.19 504.184 Q1160.65 503.605 1162.68 503.605 Q1168.05 503.605 1171.25 506.29 Q1174.44 508.975 1174.44 513.466 Q1174.44 515.596 1173.63 517.517 Q1172.85 519.415 1170.74 522.008 Q1170.16 522.679 1167.06 525.896 Q1163.96 529.091 1158.31 534.855 Z" fill="#000000" fill-rule="nonzero" fill-opacity="1" /><path clip-path="url(#clip110)" d="M1194.44 507.309 Q1190.83 507.309 1189 510.873 Q1187.2 514.415 1187.2 521.545 Q1187.2 528.651 1189 532.216 Q1190.83 535.757 1194.44 535.757 Q1198.08 535.757 1199.88 532.216 Q1201.71 528.651 1201.71 521.545 Q1201.71 514.415 1199.88 510.873 Q1198.08 507.309 1194.44 507.309 M1194.44 503.605 Q1200.25 503.605 1203.31 508.211 Q1206.39 512.795 1206.39 521.545 Q1206.39 530.271 1203.31 534.878 Q1200.25 539.461 1194.44 539.461 Q1188.63 539.461 1185.55 534.878 Q1182.5 530.271 1182.5 521.545 Q1182.5 512.795 1185.55 508.211 Q1188.63 503.605 1194.44 503.605 Z" fill="#000000" fill-rule="nonzero" fill-opacity="1" /><path clip-path="url(#clip110)" d="M1242.78 513.327 L1232.2 523.952 L1242.78 534.531 L1240.02 537.332 L1229.4 526.707 L1218.77 537.332 L1216.04 534.531 L1226.6 523.952 L1216.04 513.327 L1218.77 510.526 L1229.4 521.151 L1240.02 510.526 L1242.78 513.327 Z" fill="#000000" fill-rule="nonzero" fill-opacity="1" /><path clip-path="url(#clip110)" d="M1255.14 534.855 L1262.78 534.855 L1262.78 508.489 L1254.47 510.156 L1254.47 505.897 L1262.73 504.23 L1267.41 504.23 L1267.41 534.855 L1275.04 534.855 L1275.04 538.79 L1255.14 538.79 L1255.14 534.855 Z" fill="#000000" fill-rule="nonzero" fill-opacity="1" /><path clip-path="url(#clip110)" d="M1294.49 507.309 Q1290.88 507.309 1289.05 510.873 Q1287.24 514.415 1287.24 521.545 Q1287.24 528.651 1289.05 532.216 Q1290.88 535.757 1294.49 535.757 Q1298.12 535.757 1299.93 532.216 Q1301.76 528.651 1301.76 521.545 Q1301.76 514.415 1299.93 510.873 Q1298.12 507.309 1294.49 507.309 M1294.49 503.605 Q1300.3 503.605 1303.35 508.211 Q1306.43 512.795 1306.43 521.545 Q1306.43 530.271 1303.35 534.878 Q1300.3 539.461 1294.49 539.461 Q1288.68 539.461 1285.6 534.878 Q1282.54 530.271 1282.54 521.545 Q1282.54 512.795 1285.6 508.211 Q1288.68 503.605 1294.49 503.605 Z" fill="#000000" fill-rule="nonzero" fill-opacity="1" /><path clip-path="url(#clip110)" d="M1307.62 483.299 L1322.53 483.299 L1322.53 486.497 L1311.1 486.497 L1311.1 493.38 Q1311.92 493.098 1312.75 492.967 Q1313.58 492.816 1314.41 492.816 Q1319.11 492.816 1321.86 495.393 Q1324.6 497.97 1324.6 502.371 Q1324.6 506.903 1321.78 509.423 Q1318.96 511.925 1313.82 511.925 Q1312.06 511.925 1310.21 511.624 Q1308.39 511.323 1306.43 510.721 L1306.43 506.903 Q1308.13 507.825 1309.93 508.276 Q1311.74 508.728 1313.75 508.728 Q1317 508.728 1318.9 507.016 Q1320.8 505.305 1320.8 502.371 Q1320.8 499.437 1318.9 497.725 Q1317 496.014 1313.75 496.014 Q1312.23 496.014 1310.7 496.352 Q1309.2 496.691 1307.62 497.405 L1307.62 483.299 Z" fill="#000000" fill-rule="nonzero" fill-opacity="1" /><polyline clip-path="url(#clip113)" style="stroke:#0000ff; stroke-linecap:round; stroke-linejoin:round; stroke-width:4; stroke-opacity:1; fill:none" points="-2211.16,-225799 -2165.65,-205185 -2120.14,-186677 -2074.64,-170037 -2029.13,-155054 -1983.62,-141545 -1938.12,-129349 -1892.61,-118325 -1847.1,-108346 -1801.6,-99304 -1756.09,-91099.8 -1710.58,-83647.3 -1665.08,-76870.1 -1619.57,-70700 -1574.06,-65076.6 -1528.56,-59945.9 -1483.05,-55260 -1437.54,-50975.8 -1392.04,-47055.1 -1346.53,-43463.6 -1301.02,-40170.4 -1255.52,-37148 -1210.01,-34371.6 -1164.5,-31818.9 -1119,-29469.8 -1073.49,-27306.2 -1027.98,-25311.9 -982.478,-23472 -936.971,-21773.3 -891.464,-20203.6 -845.958,-18752 -800.451,-17408.7 -754.944,-16164.7 -709.438,-15011.7 -663.931,-13942.3 -618.425,-12949.8 -572.918,-12028 -527.411,-11171.3 -481.905,-10374.6 -436.398,-9633.17 -390.891,-8942.75 -345.385,-8299.41 -299.878,-7699.59 -254.372,-7139.99 -208.865,-6617.62 -163.358,-6129.7 -117.852,-5673.7 -72.3451,-5247.29 -26.8385,-4848.32 18.6682,-4474.84 64.1748,-4125.01 109.681,-3797.17 155.188,-3489.78 200.695,-3201.41 246.201,-2930.74 291.708,-2676.57 337.215,-2437.77 382.721,-2213.3 428.228,-2002.21 473.734,-1803.6 519.241,-1616.65 564.748,-1440.59 610.254,-1274.72 655.761,-1118.38 701.268,-970.953 746.774,-831.874 792.281,-700.615 837.787,-576.685 883.294,-459.627 928.801,-349.015 974.307,-244.452 1019.81,-145.569 1065.32,-52.0209 1110.83,36.5137 1156.33,120.335 1201.84,199.724 1247.35,274.942 1292.85,346.234 1338.36,413.829 1383.87,477.942 1429.37,538.772 1474.88,596.509 1520.39,651.327 1565.89,703.391 1611.4,752.857 1656.91,799.87 1702.41,844.564 1747.92,887.069 1793.43,927.503 1838.93,965.981 1884.44,1002.61 1929.95,1037.48 1975.45,1070.7 2020.96,1102.34 2066.47,1132.5 2111.97,1161.26 2157.48,1188.67 2202.99,1214.82 2248.49,1239.77 2294,1263.58 "/>
<circle clip-path="url(#clip113)" cx="1581.49" cy="720.627" r="14.4" fill="#0000ff" fill-rule="evenodd" fill-opacity="1" stroke="#000000" stroke-opacity="1" stroke-width="3.2"/>
<polyline clip-path="url(#clip113)" style="stroke:#ff0000; stroke-linecap:round; stroke-linejoin:round; stroke-width:4; stroke-opacity:1; fill:none" points="-2211.16,-225799 -2165.65,-205185 -2120.14,-186677 -2074.64,-170037 -2029.13,-155054 -1983.62,-141545 -1938.12,-129349 -1892.61,-118325 -1847.1,-108347 -1801.6,-99304 -1756.09,-91099.6 -1710.58,-83647.2 -1665.08,-76870.2 -1619.57,-70700.2 -1574.06,-65076.6 -1528.56,-59945.7 -1483.05,-55259.9 -1437.54,-50976 -1392.04,-47055.3 -1346.53,-43463.6 -1301.02,-40170.3 -1255.52,-37147.9 -1210.01,-34371.7 -1164.5,-31819.2 -1119,-29470.1 -1073.49,-27306.4 -1027.98,-25311.9 -982.478,-23472 -936.971,-21773.4 -891.464,-20203.8 -845.958,-18752.4 -800.451,-17409 -754.944,-16164.9 -709.438,-15011.7 -663.931,-13942.3 -618.425,-12949.9 -572.918,-12028.3 -527.411,-11171.7 -481.905,-10374.9 -436.398,-9633.46 -390.891,-8942.94 -345.385,-8299.52 -299.878,-7699.68 -254.372,-7140.14 -208.865,-6617.83 -163.358,-6129.98 -117.852,-5673.99 -72.3451,-5247.56 -26.8385,-4848.56 18.6682,-4475.01 64.1748,-4125.13 109.681,-3797.29 155.188,-3489.92 200.695,-3201.59 246.201,-2930.97 291.708,-2676.81 337.215,-2438 382.721,-2213.52 428.228,-2002.3 473.734,-1803.47 519.241,-1616.33 564.748,-1440.19 610.254,-1274.37 655.761,-1118.23 701.268,-971.123 746.774,-832.418 792.281,-701.507 837.787,-577.793 883.294,-460.637 928.801,-349.247 974.307,-243.731 1019.81,-144.278 1065.32,-50.9748 1110.83,36.1894 1156.33,117.327 1201.84,192.648 1247.35,262.466 1292.85,327.19 1338.36,387.314 1383.87,442.595 1429.37,492.69 1474.88,537.588 1520.39,577.362 1565.89,612.169 1611.4,644.093 1656.91,670.333 1702.41,685.7 1747.92,692.382 1793.43,700.043 1838.93,709.233 1884.44,719.512 1929.95,719.512 1975.45,719.512 2020.96,719.512 2066.47,719.512 2111.97,719.512 2157.48,719.512 2202.99,719.512 2248.49,719.512 2294,719.512 "/>
<circle clip-path="url(#clip113)" cx="1884.44" cy="719.512" r="14.4" fill="#ff0000" fill-rule="evenodd" fill-opacity="1" stroke="#000000" stroke-opacity="1" stroke-width="3.2"/>
<polyline clip-path="url(#clip113)" style="stroke:#008000; stroke-linecap:round; stroke-linejoin:round; stroke-width:4; stroke-opacity:1; fill:none" points="-2211.16,720.627 2294,720.627 "/>
</svg>
