<?xml version="1.0" encoding="utf-8"?>
<svg xmlns="http://www.w3.org/2000/svg" xmlns:xlink="http://www.w3.org/1999/xlink" width="600" height="400" viewBox="0 0 2400 1600">
<defs>
  <clipPath id="clip550">
    <rect x="0" y="0" width="2400" height="1600"/>
  </clipPath>
</defs>
<path clip-path="url(#clip550)" d="M0 1600 L2400 1600 L2400 0 L0 0  Z" fill="#ffffff" fill-rule="evenodd" fill-opacity="1"/>
<defs>
  <clipPath id="clip551">
    <rect x="480" y="0" width="1681" height="1600"/>
  </clipPath>
</defs>
<path clip-path="url(#clip550)" d="M219.866 1423.18 L2352.76 1423.18 L2352.76 47.2441 L219.866 47.2441  Z" fill="#ffffff" fill-rule="evenodd" fill-opacity="1"/>
<defs>
  <clipPath id="clip552">
    <rect x="219" y="47" width="2134" height="1377"/>
  </clipPath>
</defs>
<polyline clip-path="url(#clip552)" style="stroke:#000000; stroke-linecap:round; stroke-linejoin:round; stroke-width:2; stroke-opacity:0.1; fill:none" points="280.231,1423.18 280.231,47.2441 "/>
<polyline clip-path="url(#clip552)" style="stroke:#000000; stroke-linecap:round; stroke-linejoin:round; stroke-width:2; stroke-opacity:0.1; fill:none" points="769.122,1423.18 769.122,47.2441 "/>
<polyline clip-path="url(#clip552)" style="stroke:#000000; stroke-linecap:round; stroke-linejoin:round; stroke-width:2; stroke-opacity:0.1; fill:none" points="1258.01,1423.18 1258.01,47.2441 "/>
<polyline clip-path="url(#clip552)" style="stroke:#000000; stroke-linecap:round; stroke-linejoin:round; stroke-width:2; stroke-opacity:0.1; fill:none" points="1746.91,1423.18 1746.91,47.2441 "/>
<polyline clip-path="url(#clip552)" style="stroke:#000000; stroke-linecap:round; stroke-linejoin:round; stroke-width:2; stroke-opacity:0.1; fill:none" points="2235.8,1423.18 2235.8,47.2441 "/>
<polyline clip-path="url(#clip552)" style="stroke:#000000; stroke-linecap:round; stroke-linejoin:round; stroke-width:2; stroke-opacity:0.1; fill:none" points="219.866,1384.24 2352.76,1384.24 "/>
<polyline clip-path="url(#clip552)" style="stroke:#000000; stroke-linecap:round; stroke-linejoin:round; stroke-width:2; stroke-opacity:0.1; fill:none" points="219.866,1066.35 2352.76,1066.35 "/>
<polyline clip-path="url(#clip552)" style="stroke:#000000; stroke-linecap:round; stroke-linejoin:round; stroke-width:2; stroke-opacity:0.1; fill:none" points="219.866,748.471 2352.76,748.471 "/>
<polyline clip-path="url(#clip552)" style="stroke:#000000; stroke-linecap:round; stroke-linejoin:round; stroke-width:2; stroke-opacity:0.1; fill:none" points="219.866,430.587 2352.76,430.587 "/>
<polyline clip-path="url(#clip552)" style="stroke:#000000; stroke-linecap:round; stroke-linejoin:round; stroke-width:2; stroke-opacity:0.1; fill:none" points="219.866,112.703 2352.76,112.703 "/>
<polyline clip-path="url(#clip550)" style="stroke:#000000; stroke-linecap:round; stroke-linejoin:round; stroke-width:4; stroke-opacity:1; fill:none" points="219.866,1423.18 2352.76,1423.18 "/>
<polyline clip-path="url(#clip550)" style="stroke:#000000; stroke-linecap:round; stroke-linejoin:round; stroke-width:4; stroke-opacity:1; fill:none" points="280.231,1423.18 280.231,1404.28 "/>
<polyline clip-path="url(#clip550)" style="stroke:#000000; stroke-linecap:round; stroke-linejoin:round; stroke-width:4; stroke-opacity:1; fill:none" points="769.122,1423.18 769.122,1404.28 "/>
<polyline clip-path="url(#clip550)" style="stroke:#000000; stroke-linecap:round; stroke-linejoin:round; stroke-width:4; stroke-opacity:1; fill:none" points="1258.01,1423.18 1258.01,1404.28 "/>
<polyline clip-path="url(#clip550)" style="stroke:#000000; stroke-linecap:round; stroke-linejoin:round; stroke-width:4; stroke-opacity:1; fill:none" points="1746.91,1423.18 1746.91,1404.28 "/>
<polyline clip-path="url(#clip550)" style="stroke:#000000; stroke-linecap:round; stroke-linejoin:round; stroke-width:4; stroke-opacity:1; fill:none" points="2235.8,1423.18 2235.8,1404.28 "/>
<path clip-path="url(#clip550)" d="M280.231 1454.1 Q276.62 1454.1 274.791 1457.66 Q272.986 1461.2 272.986 1468.33 Q272.986 1475.44 274.791 1479.01 Q276.62 1482.55 280.231 1482.55 Q283.865 1482.55 285.671 1479.01 Q287.5 1475.44 287.5 1468.33 Q287.5 1461.2 285.671 1457.66 Q283.865 1454.1 280.231 1454.1 M280.231 1450.39 Q286.041 1450.39 289.097 1455 Q292.175 1459.58 292.175 1468.33 Q292.175 1477.06 289.097 1481.67 Q286.041 1486.25 280.231 1486.25 Q274.421 1486.25 271.342 1481.67 Q268.287 1477.06 268.287 1468.33 Q268.287 1459.58 271.342 1455 Q274.421 1450.39 280.231 1450.39 Z" fill="#000000" fill-rule="nonzero" fill-opacity="1" /><path clip-path="url(#clip550)" d="M759.4 1451.02 L777.757 1451.02 L777.757 1454.96 L763.683 1454.96 L763.683 1463.43 Q764.701 1463.08 765.72 1462.92 Q766.738 1462.73 767.757 1462.73 Q773.544 1462.73 776.923 1465.9 Q780.303 1469.08 780.303 1474.49 Q780.303 1480.07 776.831 1483.17 Q773.359 1486.25 767.039 1486.25 Q764.863 1486.25 762.595 1485.88 Q760.349 1485.51 757.942 1484.77 L757.942 1480.07 Q760.025 1481.2 762.247 1481.76 Q764.47 1482.32 766.947 1482.32 Q770.951 1482.32 773.289 1480.21 Q775.627 1478.1 775.627 1474.49 Q775.627 1470.88 773.289 1468.77 Q770.951 1466.67 766.947 1466.67 Q765.072 1466.67 763.197 1467.08 Q761.345 1467.5 759.4 1468.38 L759.4 1451.02 Z" fill="#000000" fill-rule="nonzero" fill-opacity="1" /><path clip-path="url(#clip550)" d="M1232.7 1481.64 L1240.34 1481.64 L1240.34 1455.28 L1232.03 1456.95 L1232.03 1452.69 L1240.29 1451.02 L1244.97 1451.02 L1244.97 1481.64 L1252.61 1481.64 L1252.61 1485.58 L1232.7 1485.58 L1232.7 1481.64 Z" fill="#000000" fill-rule="nonzero" fill-opacity="1" /><path clip-path="url(#clip550)" d="M1272.05 1454.1 Q1268.44 1454.1 1266.61 1457.66 Q1264.81 1461.2 1264.81 1468.33 Q1264.81 1475.44 1266.61 1479.01 Q1268.44 1482.55 1272.05 1482.55 Q1275.69 1482.55 1277.49 1479.01 Q1279.32 1475.44 1279.32 1468.33 Q1279.32 1461.2 1277.49 1457.66 Q1275.69 1454.1 1272.05 1454.1 M1272.05 1450.39 Q1277.86 1450.39 1280.92 1455 Q1284 1459.58 1284 1468.33 Q1284 1477.06 1280.92 1481.67 Q1277.86 1486.25 1272.05 1486.25 Q1266.24 1486.25 1263.16 1481.67 Q1260.11 1477.06 1260.11 1468.33 Q1260.11 1459.58 1263.16 1455 Q1266.24 1450.39 1272.05 1450.39 Z" fill="#000000" fill-rule="nonzero" fill-opacity="1" /><path clip-path="url(#clip550)" d="M1722.09 1481.64 L1729.73 1481.64 L1729.73 1455.28 L1721.42 1456.95 L1721.42 1452.69 L1729.68 1451.02 L1734.36 1451.02 L1734.36 1481.64 L1742 1481.64 L1742 1485.58 L1722.09 1485.58 L1722.09 1481.64 Z" fill="#000000" fill-rule="nonzero" fill-opacity="1" /><path clip-path="url(#clip550)" d="M1751.49 1451.02 L1769.84 1451.02 L1769.84 1454.96 L1755.77 1454.96 L1755.77 1463.43 Q1756.79 1463.08 1757.81 1462.92 Q1758.83 1462.73 1759.84 1462.73 Q1765.63 1462.73 1769.01 1465.9 Q1772.39 1469.08 1772.39 1474.49 Q1772.39 1480.07 1768.92 1483.17 Q1765.45 1486.25 1759.13 1486.25 Q1756.95 1486.25 1754.68 1485.88 Q1752.44 1485.51 1750.03 1484.77 L1750.03 1480.07 Q1752.11 1481.2 1754.34 1481.76 Q1756.56 1482.32 1759.03 1482.32 Q1763.04 1482.32 1765.38 1480.21 Q1767.72 1478.1 1767.72 1474.49 Q1767.72 1470.88 1765.38 1468.77 Q1763.04 1466.67 1759.03 1466.67 Q1757.16 1466.67 1755.28 1467.08 Q1753.43 1467.5 1751.49 1468.38 L1751.49 1451.02 Z" fill="#000000" fill-rule="nonzero" fill-opacity="1" /><path clip-path="url(#clip550)" d="M2214.57 1481.64 L2230.89 1481.64 L2230.89 1485.58 L2208.94 1485.58 L2208.94 1481.64 Q2211.61 1478.89 2216.19 1474.26 Q2220.8 1469.61 2221.98 1468.27 Q2224.22 1465.74 2225.1 1464.01 Q2226 1462.25 2226 1460.56 Q2226 1457.8 2224.06 1456.07 Q2222.14 1454.33 2219.04 1454.33 Q2216.84 1454.33 2214.38 1455.09 Q2211.95 1455.86 2209.18 1457.41 L2209.18 1452.69 Q2212 1451.55 2214.45 1450.97 Q2216.91 1450.39 2218.94 1450.39 Q2224.32 1450.39 2227.51 1453.08 Q2230.7 1455.77 2230.7 1460.26 Q2230.7 1462.39 2229.89 1464.31 Q2229.11 1466.2 2227 1468.8 Q2226.42 1469.47 2223.32 1472.69 Q2220.22 1475.88 2214.57 1481.64 Z" fill="#000000" fill-rule="nonzero" fill-opacity="1" /><path clip-path="url(#clip550)" d="M2250.7 1454.1 Q2247.09 1454.1 2245.26 1457.66 Q2243.46 1461.2 2243.46 1468.33 Q2243.46 1475.44 2245.26 1479.01 Q2247.09 1482.55 2250.7 1482.55 Q2254.34 1482.55 2256.14 1479.01 Q2257.97 1475.44 2257.97 1468.33 Q2257.97 1461.2 2256.14 1457.66 Q2254.34 1454.1 2250.7 1454.1 M2250.7 1450.39 Q2256.51 1450.39 2259.57 1455 Q2262.65 1459.58 2262.65 1468.33 Q2262.65 1477.06 2259.57 1481.67 Q2256.51 1486.25 2250.7 1486.25 Q2244.89 1486.25 2241.81 1481.67 Q2238.76 1477.06 2238.76 1468.33 Q2238.76 1459.58 2241.81 1455 Q2244.89 1450.39 2250.7 1450.39 Z" fill="#000000" fill-rule="nonzero" fill-opacity="1" /><path clip-path="url(#clip550)" d="M1170.34 1520.52 L1210.54 1520.52 L1210.54 1525.93 L1193.67 1525.93 L1193.67 1568.04 L1187.21 1568.04 L1187.21 1525.93 L1170.34 1525.93 L1170.34 1520.52 Z" fill="#000000" fill-rule="nonzero" fill-opacity="1" /><path clip-path="url(#clip550)" d="M1214.49 1532.4 L1220.35 1532.4 L1220.35 1568.04 L1214.49 1568.04 L1214.49 1532.4 M1214.49 1518.52 L1220.35 1518.52 L1220.35 1525.93 L1214.49 1525.93 L1214.49 1518.52 Z" fill="#000000" fill-rule="nonzero" fill-opacity="1" /><path clip-path="url(#clip550)" d="M1260.35 1539.24 Q1262.55 1535.29 1265.61 1533.41 Q1268.66 1531.54 1272.8 1531.54 Q1278.37 1531.54 1281.39 1535.45 Q1284.42 1539.33 1284.42 1546.53 L1284.42 1568.04 L1278.53 1568.04 L1278.53 1546.72 Q1278.53 1541.59 1276.71 1539.11 Q1274.9 1536.63 1271.18 1536.63 Q1266.63 1536.63 1263.98 1539.65 Q1261.34 1542.68 1261.34 1547.9 L1261.34 1568.04 L1255.45 1568.04 L1255.45 1546.72 Q1255.45 1541.56 1253.64 1539.11 Q1251.82 1536.63 1248.04 1536.63 Q1243.55 1536.63 1240.91 1539.68 Q1238.27 1542.71 1238.27 1547.9 L1238.27 1568.04 L1232.38 1568.04 L1232.38 1532.4 L1238.27 1532.4 L1238.27 1537.93 Q1240.27 1534.66 1243.07 1533.1 Q1245.87 1531.54 1249.72 1531.54 Q1253.61 1531.54 1256.31 1533.51 Q1259.05 1535.48 1260.35 1539.24 Z" fill="#000000" fill-rule="nonzero" fill-opacity="1" /><path clip-path="url(#clip550)" d="M1326.59 1548.76 L1326.59 1551.62 L1299.66 1551.62 Q1300.05 1557.67 1303.29 1560.85 Q1306.57 1564 1312.39 1564 Q1315.77 1564 1318.92 1563.17 Q1322.1 1562.35 1325.22 1560.69 L1325.22 1566.23 Q1322.07 1567.57 1318.76 1568.27 Q1315.45 1568.97 1312.04 1568.97 Q1303.51 1568.97 1298.52 1564 Q1293.55 1559.04 1293.55 1550.57 Q1293.55 1541.82 1298.26 1536.69 Q1303.01 1531.54 1311.03 1531.54 Q1318.22 1531.54 1322.39 1536.18 Q1326.59 1540.8 1326.59 1548.76 M1320.73 1547.04 Q1320.67 1542.23 1318.03 1539.37 Q1315.42 1536.5 1311.09 1536.5 Q1306.19 1536.5 1303.23 1539.27 Q1300.3 1542.04 1299.85 1547.07 L1320.73 1547.04 Z" fill="#000000" fill-rule="nonzero" fill-opacity="1" /><path clip-path="url(#clip550)" d="M1337.7 1559.96 L1344.41 1559.96 L1344.41 1565.43 L1339.19 1575.62 L1335.09 1575.62 L1337.7 1565.43 L1337.7 1559.96 Z" fill="#000000" fill-rule="nonzero" fill-opacity="1" /><path clip-path="url(#clip550)" d="M1400.37 1533.45 L1400.37 1538.98 Q1397.89 1537.71 1395.21 1537.07 Q1392.54 1536.44 1389.67 1536.44 Q1385.31 1536.44 1383.12 1537.77 Q1380.95 1539.11 1380.95 1541.79 Q1380.95 1543.82 1382.51 1545 Q1384.07 1546.15 1388.78 1547.2 L1390.79 1547.64 Q1397.03 1548.98 1399.64 1551.43 Q1402.28 1553.85 1402.28 1558.21 Q1402.28 1563.17 1398.33 1566.07 Q1394.42 1568.97 1387.54 1568.97 Q1384.68 1568.97 1381.56 1568.39 Q1378.47 1567.85 1375.03 1566.74 L1375.03 1560.69 Q1378.28 1562.38 1381.43 1563.24 Q1384.58 1564.07 1387.67 1564.07 Q1391.81 1564.07 1394.03 1562.66 Q1396.26 1561.23 1396.26 1558.65 Q1396.26 1556.27 1394.64 1554.99 Q1393.05 1553.72 1387.61 1552.54 L1385.57 1552.07 Q1380.13 1550.92 1377.71 1548.56 Q1375.29 1546.18 1375.29 1542.04 Q1375.29 1537.01 1378.85 1534.27 Q1382.42 1531.54 1388.97 1531.54 Q1392.22 1531.54 1395.09 1532.01 Q1397.95 1532.49 1400.37 1533.45 Z" fill="#000000" fill-rule="nonzero" fill-opacity="1" /><polyline clip-path="url(#clip550)" style="stroke:#000000; stroke-linecap:round; stroke-linejoin:round; stroke-width:4; stroke-opacity:1; fill:none" points="219.866,1423.18 219.866,47.2441 "/>
<polyline clip-path="url(#clip550)" style="stroke:#000000; stroke-linecap:round; stroke-linejoin:round; stroke-width:4; stroke-opacity:1; fill:none" points="219.866,1384.24 238.764,1384.24 "/>
<polyline clip-path="url(#clip550)" style="stroke:#000000; stroke-linecap:round; stroke-linejoin:round; stroke-width:4; stroke-opacity:1; fill:none" points="219.866,1066.35 238.764,1066.35 "/>
<polyline clip-path="url(#clip550)" style="stroke:#000000; stroke-linecap:round; stroke-linejoin:round; stroke-width:4; stroke-opacity:1; fill:none" points="219.866,748.471 238.764,748.471 "/>
<polyline clip-path="url(#clip550)" style="stroke:#000000; stroke-linecap:round; stroke-linejoin:round; stroke-width:4; stroke-opacity:1; fill:none" points="219.866,430.587 238.764,430.587 "/>
<polyline clip-path="url(#clip550)" style="stroke:#000000; stroke-linecap:round; stroke-linejoin:round; stroke-width:4; stroke-opacity:1; fill:none" points="219.866,112.703 238.764,112.703 "/>
<path clip-path="url(#clip550)" d="M126.691 1370.04 Q123.08 1370.04 121.251 1373.6 Q119.445 1377.14 119.445 1384.27 Q119.445 1391.38 121.251 1394.94 Q123.08 1398.49 126.691 1398.49 Q130.325 1398.49 132.13 1394.94 Q133.959 1391.38 133.959 1384.27 Q133.959 1377.14 132.13 1373.6 Q130.325 1370.04 126.691 1370.04 M126.691 1366.33 Q132.501 1366.33 135.556 1370.94 Q138.635 1375.52 138.635 1384.27 Q138.635 1393 135.556 1397.61 Q132.501 1402.19 126.691 1402.19 Q120.88 1402.19 117.802 1397.61 Q114.746 1393 114.746 1384.27 Q114.746 1375.52 117.802 1370.94 Q120.88 1366.33 126.691 1366.33 Z" fill="#000000" fill-rule="nonzero" fill-opacity="1" /><path clip-path="url(#clip550)" d="M146.853 1395.64 L151.737 1395.64 L151.737 1401.52 L146.853 1401.52 L146.853 1395.64 Z" fill="#000000" fill-rule="nonzero" fill-opacity="1" /><path clip-path="url(#clip550)" d="M171.922 1370.04 Q168.311 1370.04 166.482 1373.6 Q164.677 1377.14 164.677 1384.27 Q164.677 1391.38 166.482 1394.94 Q168.311 1398.49 171.922 1398.49 Q175.556 1398.49 177.362 1394.94 Q179.19 1391.38 179.19 1384.27 Q179.19 1377.14 177.362 1373.6 Q175.556 1370.04 171.922 1370.04 M171.922 1366.33 Q177.732 1366.33 180.788 1370.94 Q183.866 1375.52 183.866 1384.27 Q183.866 1393 180.788 1397.61 Q177.732 1402.19 171.922 1402.19 Q166.112 1402.19 163.033 1397.61 Q159.978 1393 159.978 1384.27 Q159.978 1375.52 163.033 1370.94 Q166.112 1366.33 171.922 1366.33 Z" fill="#000000" fill-rule="nonzero" fill-opacity="1" /><path clip-path="url(#clip550)" d="M128.288 1052.15 Q124.677 1052.15 122.848 1055.72 Q121.043 1059.26 121.043 1066.39 Q121.043 1073.5 122.848 1077.06 Q124.677 1080.6 128.288 1080.6 Q131.922 1080.6 133.728 1077.06 Q135.556 1073.5 135.556 1066.39 Q135.556 1059.26 133.728 1055.72 Q131.922 1052.15 128.288 1052.15 M128.288 1048.45 Q134.098 1048.45 137.154 1053.06 Q140.232 1057.64 140.232 1066.39 Q140.232 1075.12 137.154 1079.72 Q134.098 1084.31 128.288 1084.31 Q122.478 1084.31 119.399 1079.72 Q116.343 1075.12 116.343 1066.39 Q116.343 1057.64 119.399 1053.06 Q122.478 1048.45 128.288 1048.45 Z" fill="#000000" fill-rule="nonzero" fill-opacity="1" /><path clip-path="url(#clip550)" d="M148.45 1077.75 L153.334 1077.75 L153.334 1083.63 L148.45 1083.63 L148.45 1077.75 Z" fill="#000000" fill-rule="nonzero" fill-opacity="1" /><path clip-path="url(#clip550)" d="M167.547 1079.7 L183.866 1079.7 L183.866 1083.63 L161.922 1083.63 L161.922 1079.7 Q164.584 1076.94 169.167 1072.32 Q173.774 1067.66 174.954 1066.32 Q177.2 1063.8 178.079 1062.06 Q178.982 1060.3 178.982 1058.61 Q178.982 1055.86 177.038 1054.12 Q175.116 1052.38 172.014 1052.38 Q169.815 1052.38 167.362 1053.15 Q164.931 1053.91 162.153 1055.46 L162.153 1050.74 Q164.977 1049.61 167.431 1049.03 Q169.885 1048.45 171.922 1048.45 Q177.292 1048.45 180.487 1051.13 Q183.681 1053.82 183.681 1058.31 Q183.681 1060.44 182.871 1062.36 Q182.084 1064.26 179.977 1066.85 Q179.399 1067.52 176.297 1070.74 Q173.195 1073.94 167.547 1079.7 Z" fill="#000000" fill-rule="nonzero" fill-opacity="1" /><path clip-path="url(#clip550)" d="M126.205 734.27 Q122.593 734.27 120.765 737.834 Q118.959 741.376 118.959 748.506 Q118.959 755.612 120.765 759.177 Q122.593 762.718 126.205 762.718 Q129.839 762.718 131.644 759.177 Q133.473 755.612 133.473 748.506 Q133.473 741.376 131.644 737.834 Q129.839 734.27 126.205 734.27 M126.205 730.566 Q132.015 730.566 135.07 735.172 Q138.149 739.756 138.149 748.506 Q138.149 757.232 135.07 761.839 Q132.015 766.422 126.205 766.422 Q120.394 766.422 117.316 761.839 Q114.26 757.232 114.26 748.506 Q114.26 739.756 117.316 735.172 Q120.394 730.566 126.205 730.566 Z" fill="#000000" fill-rule="nonzero" fill-opacity="1" /><path clip-path="url(#clip550)" d="M146.366 759.871 L151.251 759.871 L151.251 765.751 L146.366 765.751 L146.366 759.871 Z" fill="#000000" fill-rule="nonzero" fill-opacity="1" /><path clip-path="url(#clip550)" d="M174.283 735.265 L162.477 753.714 L174.283 753.714 L174.283 735.265 M173.056 731.191 L178.936 731.191 L178.936 753.714 L183.866 753.714 L183.866 757.603 L178.936 757.603 L178.936 765.751 L174.283 765.751 L174.283 757.603 L158.681 757.603 L158.681 753.089 L173.056 731.191 Z" fill="#000000" fill-rule="nonzero" fill-opacity="1" /><path clip-path="url(#clip550)" d="M126.529 416.386 Q122.918 416.386 121.089 419.951 Q119.283 423.492 119.283 430.622 Q119.283 437.728 121.089 441.293 Q122.918 444.835 126.529 444.835 Q130.163 444.835 131.968 441.293 Q133.797 437.728 133.797 430.622 Q133.797 423.492 131.968 419.951 Q130.163 416.386 126.529 416.386 M126.529 412.682 Q132.339 412.682 135.394 417.289 Q138.473 421.872 138.473 430.622 Q138.473 439.349 135.394 443.955 Q132.339 448.538 126.529 448.538 Q120.718 448.538 117.64 443.955 Q114.584 439.349 114.584 430.622 Q114.584 421.872 117.64 417.289 Q120.718 412.682 126.529 412.682 Z" fill="#000000" fill-rule="nonzero" fill-opacity="1" /><path clip-path="url(#clip550)" d="M146.691 441.988 L151.575 441.988 L151.575 447.867 L146.691 447.867 L146.691 441.988 Z" fill="#000000" fill-rule="nonzero" fill-opacity="1" /><path clip-path="url(#clip550)" d="M172.339 428.724 Q169.19 428.724 167.339 430.876 Q165.51 433.029 165.51 436.779 Q165.51 440.506 167.339 442.682 Q169.19 444.835 172.339 444.835 Q175.487 444.835 177.315 442.682 Q179.167 440.506 179.167 436.779 Q179.167 433.029 177.315 430.876 Q175.487 428.724 172.339 428.724 M181.621 414.071 L181.621 418.33 Q179.862 417.497 178.056 417.057 Q176.274 416.617 174.514 416.617 Q169.885 416.617 167.431 419.742 Q165.001 422.867 164.653 429.187 Q166.019 427.173 168.079 426.108 Q170.139 425.02 172.616 425.02 Q177.825 425.02 180.834 428.191 Q183.866 431.339 183.866 436.779 Q183.866 442.103 180.718 445.321 Q177.57 448.538 172.339 448.538 Q166.343 448.538 163.172 443.955 Q160.001 439.349 160.001 430.622 Q160.001 422.427 163.89 417.566 Q167.778 412.682 174.329 412.682 Q176.089 412.682 177.871 413.029 Q179.676 413.377 181.621 414.071 Z" fill="#000000" fill-rule="nonzero" fill-opacity="1" /><path clip-path="url(#clip550)" d="M126.783 98.5021 Q123.172 98.5021 121.343 102.067 Q119.538 105.609 119.538 112.738 Q119.538 119.845 121.343 123.409 Q123.172 126.951 126.783 126.951 Q130.417 126.951 132.223 123.409 Q134.052 119.845 134.052 112.738 Q134.052 105.609 132.223 102.067 Q130.417 98.5021 126.783 98.5021 M126.783 94.7984 Q132.593 94.7984 135.649 99.4049 Q138.728 103.988 138.728 112.738 Q138.728 121.465 135.649 126.071 Q132.593 130.655 126.783 130.655 Q120.973 130.655 117.894 126.071 Q114.839 121.465 114.839 112.738 Q114.839 103.988 117.894 99.4049 Q120.973 94.7984 126.783 94.7984 Z" fill="#000000" fill-rule="nonzero" fill-opacity="1" /><path clip-path="url(#clip550)" d="M146.945 124.104 L151.829 124.104 L151.829 129.983 L146.945 129.983 L146.945 124.104 Z" fill="#000000" fill-rule="nonzero" fill-opacity="1" /><path clip-path="url(#clip550)" d="M172.014 113.571 Q168.681 113.571 166.76 115.354 Q164.862 117.136 164.862 120.261 Q164.862 123.386 166.76 125.169 Q168.681 126.951 172.014 126.951 Q175.348 126.951 177.269 125.169 Q179.19 123.363 179.19 120.261 Q179.19 117.136 177.269 115.354 Q175.371 113.571 172.014 113.571 M167.339 111.581 Q164.329 110.84 162.64 108.78 Q160.973 106.72 160.973 103.757 Q160.973 99.6132 163.913 97.2058 Q166.876 94.7984 172.014 94.7984 Q177.176 94.7984 180.116 97.2058 Q183.056 99.6132 183.056 103.757 Q183.056 106.72 181.366 108.78 Q179.7 110.84 176.714 111.581 Q180.093 112.368 181.968 114.659 Q183.866 116.951 183.866 120.261 Q183.866 125.284 180.788 127.97 Q177.732 130.655 172.014 130.655 Q166.297 130.655 163.218 127.97 Q160.163 125.284 160.163 120.261 Q160.163 116.951 162.061 114.659 Q163.959 112.368 167.339 111.581 M165.626 104.197 Q165.626 106.882 167.292 108.386 Q168.982 109.891 172.014 109.891 Q175.024 109.891 176.714 108.386 Q178.426 106.882 178.426 104.197 Q178.426 101.511 176.714 100.007 Q175.024 98.5021 172.014 98.5021 Q168.982 98.5021 167.292 100.007 Q165.626 101.511 165.626 104.197 Z" fill="#000000" fill-rule="nonzero" fill-opacity="1" /><path clip-path="url(#clip550)" d="M16.4842 1054.77 L16.4842 1045.19 L48.8219 1033.06 L16.4842 1020.87 L16.4842 1011.29 L64.0042 1011.29 L64.0042 1017.56 L22.277 1017.56 L54.8694 1029.82 L54.8694 1036.28 L22.277 1048.53 L64.0042 1048.53 L64.0042 1054.77 L16.4842 1054.77 Z" fill="#000000" fill-rule="nonzero" fill-opacity="1" /><path clip-path="url(#clip550)" d="M46.0847 982.583 Q46.0847 989.681 47.7079 992.418 Q49.3312 995.156 53.2461 995.156 Q56.3653 995.156 58.2114 993.119 Q60.0256 991.05 60.0256 987.517 Q60.0256 982.647 56.5881 979.719 Q53.1188 976.759 47.3897 976.759 L46.0847 976.759 L46.0847 982.583 M43.6657 970.902 L64.0042 970.902 L64.0042 976.759 L58.5933 976.759 Q61.8398 978.764 63.3994 981.756 Q64.9272 984.748 64.9272 989.076 Q64.9272 994.551 61.8716 997.797 Q58.7843 1001.01 53.6281 1001.01 Q47.6125 1001.01 44.5569 997.002 Q41.5014 992.959 41.5014 984.97 L41.5014 976.759 L40.9285 976.759 Q36.8862 976.759 34.6901 979.432 Q32.4621 982.074 32.4621 986.88 Q32.4621 989.936 33.1941 992.832 Q33.9262 995.729 35.3903 998.402 L29.9795 998.402 Q28.7381 995.187 28.1334 992.164 Q27.4968 989.14 27.4968 986.275 Q27.4968 978.541 31.5072 974.722 Q35.5176 970.902 43.6657 970.902 Z" fill="#000000" fill-rule="nonzero" fill-opacity="1" /><path clip-path="url(#clip550)" d="M29.4065 936.114 L34.9447 936.114 Q33.6716 938.596 33.035 941.27 Q32.3984 943.943 32.3984 946.808 Q32.3984 951.169 33.7352 953.365 Q35.072 955.529 37.7456 955.529 Q39.7826 955.529 40.9603 953.969 Q42.1061 952.41 43.1565 947.699 L43.6021 945.694 Q44.9389 939.456 47.3897 936.846 Q49.8086 934.204 54.1691 934.204 Q59.1344 934.204 62.0308 938.151 Q64.9272 942.066 64.9272 948.941 Q64.9272 951.805 64.3543 954.924 Q63.8132 958.012 62.6992 961.449 L56.6518 961.449 Q58.3387 958.203 59.198 955.052 Q60.0256 951.901 60.0256 948.813 Q60.0256 944.676 58.6251 942.448 Q57.1929 940.22 54.6147 940.22 Q52.2276 940.22 50.9545 941.843 Q49.6813 943.434 48.5037 948.877 L48.0262 950.914 Q46.8804 956.357 44.5251 958.776 Q42.138 961.195 38.0002 961.195 Q32.9713 961.195 30.2341 957.63 Q27.4968 954.065 27.4968 947.508 Q27.4968 944.262 27.9743 941.397 Q28.4517 938.533 29.4065 936.114 Z" fill="#000000" fill-rule="nonzero" fill-opacity="1" /><path clip-path="url(#clip550)" d="M29.4065 902.153 L34.9447 902.153 Q33.6716 904.635 33.035 907.309 Q32.3984 909.982 32.3984 912.847 Q32.3984 917.208 33.7352 919.404 Q35.072 921.568 37.7456 921.568 Q39.7826 921.568 40.9603 920.008 Q42.1061 918.449 43.1565 913.738 L43.6021 911.733 Q44.9389 905.495 47.3897 902.885 Q49.8086 900.243 54.1691 900.243 Q59.1344 900.243 62.0308 904.19 Q64.9272 908.105 64.9272 914.98 Q64.9272 917.844 64.3543 920.963 Q63.8132 924.051 62.6992 927.488 L56.6518 927.488 Q58.3387 924.242 59.198 921.091 Q60.0256 917.94 60.0256 914.852 Q60.0256 910.715 58.6251 908.487 Q57.1929 906.259 54.6147 906.259 Q52.2276 906.259 50.9545 907.882 Q49.6813 909.473 48.5037 914.916 L48.0262 916.953 Q46.8804 922.396 44.5251 924.815 Q42.138 927.234 38.0002 927.234 Q32.9713 927.234 30.2341 923.669 Q27.4968 920.104 27.4968 913.547 Q27.4968 910.301 27.9743 907.436 Q28.4517 904.572 29.4065 902.153 Z" fill="#000000" fill-rule="nonzero" fill-opacity="1" /><path clip-path="url(#clip550)" d="M14.479 852.15 L19.3487 852.15 L19.3487 857.752 Q19.3487 860.903 20.6219 862.144 Q21.895 863.354 25.2052 863.354 L28.3562 863.354 L28.3562 853.71 L32.9077 853.71 L32.9077 863.354 L64.0042 863.354 L64.0042 869.242 L32.9077 869.242 L32.9077 874.844 L28.3562 874.844 L28.3562 869.242 L25.8736 869.242 Q19.9216 869.242 17.2162 866.473 Q14.479 863.704 14.479 857.688 L14.479 852.15 Z" fill="#000000" fill-rule="nonzero" fill-opacity="1" /><path clip-path="url(#clip550)" d="M14.479 847.248 L14.479 841.392 L64.0042 841.392 L64.0042 847.248 L14.479 847.248 Z" fill="#000000" fill-rule="nonzero" fill-opacity="1" /><path clip-path="url(#clip550)" d="M32.4621 815.324 Q32.4621 820.035 36.1542 822.772 Q39.8145 825.51 46.212 825.51 Q52.6095 825.51 56.3017 822.804 Q59.9619 820.067 59.9619 815.324 Q59.9619 810.646 56.2698 807.908 Q52.5777 805.171 46.212 805.171 Q39.8781 805.171 36.186 807.908 Q32.4621 810.646 32.4621 815.324 M27.4968 815.324 Q27.4968 807.686 32.4621 803.325 Q37.4273 798.965 46.212 798.965 Q54.9649 798.965 59.9619 803.325 Q64.9272 807.686 64.9272 815.324 Q64.9272 822.995 59.9619 827.356 Q54.9649 831.684 46.212 831.684 Q37.4273 831.684 32.4621 827.356 Q27.4968 822.995 27.4968 815.324 Z" fill="#000000" fill-rule="nonzero" fill-opacity="1" /><path clip-path="url(#clip550)" d="M28.3562 792.662 L28.3562 786.806 L56.1743 779.485 L28.3562 772.197 L28.3562 765.29 L56.1743 757.969 L28.3562 750.681 L28.3562 744.824 L64.0042 754.15 L64.0042 761.057 L34.7856 768.727 L64.0042 776.43 L64.0042 783.337 L28.3562 792.662 Z" fill="#000000" fill-rule="nonzero" fill-opacity="1" /><path clip-path="url(#clip550)" d="M33.8307 694.567 Q33.2578 695.554 33.0032 696.731 Q32.7167 697.877 32.7167 699.278 Q32.7167 704.243 35.9632 706.916 Q39.1779 709.558 45.2253 709.558 L64.0042 709.558 L64.0042 715.446 L28.3562 715.446 L28.3562 709.558 L33.8944 709.558 Q30.6479 707.712 29.0883 704.752 Q27.4968 701.792 27.4968 697.559 Q27.4968 696.954 27.5923 696.222 Q27.656 695.49 27.8151 694.599 L33.8307 694.567 Z" fill="#000000" fill-rule="nonzero" fill-opacity="1" /><path clip-path="url(#clip550)" d="M46.0847 672.223 Q46.0847 679.321 47.7079 682.058 Q49.3312 684.796 53.2461 684.796 Q56.3653 684.796 58.2114 682.759 Q60.0256 680.69 60.0256 677.157 Q60.0256 672.287 56.5881 669.359 Q53.1188 666.399 47.3897 666.399 L46.0847 666.399 L46.0847 672.223 M43.6657 660.542 L64.0042 660.542 L64.0042 666.399 L58.5933 666.399 Q61.8398 668.404 63.3994 671.396 Q64.9272 674.388 64.9272 678.716 Q64.9272 684.191 61.8716 687.437 Q58.7843 690.652 53.6281 690.652 Q47.6125 690.652 44.5569 686.642 Q41.5014 682.599 41.5014 674.61 L41.5014 666.399 L40.9285 666.399 Q36.8862 666.399 34.6901 669.072 Q32.4621 671.714 32.4621 676.52 Q32.4621 679.576 33.1941 682.472 Q33.9262 685.368 35.3903 688.042 L29.9795 688.042 Q28.7381 684.827 28.1334 681.804 Q27.4968 678.78 27.4968 675.915 Q27.4968 668.181 31.5072 664.362 Q35.5176 660.542 43.6657 660.542 Z" fill="#000000" fill-rule="nonzero" fill-opacity="1" /><path clip-path="url(#clip550)" d="M18.2347 642.686 L28.3562 642.686 L28.3562 630.623 L32.9077 630.623 L32.9077 642.686 L52.2594 642.686 Q56.6199 642.686 57.8613 641.509 Q59.1026 640.299 59.1026 636.639 L59.1026 630.623 L64.0042 630.623 L64.0042 636.639 Q64.0042 643.418 61.4897 645.997 Q58.9434 648.575 52.2594 648.575 L32.9077 648.575 L32.9077 652.872 L28.3562 652.872 L28.3562 648.575 L18.2347 648.575 L18.2347 642.686 Z" fill="#000000" fill-rule="nonzero" fill-opacity="1" /><path clip-path="url(#clip550)" d="M44.7161 592.429 L47.5806 592.429 L47.5806 619.356 Q53.6281 618.974 56.8109 615.728 Q59.9619 612.449 59.9619 606.625 Q59.9619 603.251 59.1344 600.1 Q58.3069 596.917 56.6518 593.798 L62.1899 593.798 Q63.5267 596.949 64.227 600.259 Q64.9272 603.569 64.9272 606.975 Q64.9272 615.505 59.9619 620.502 Q54.9967 625.467 46.5303 625.467 Q37.7774 625.467 32.6531 620.757 Q27.4968 616.014 27.4968 607.993 Q27.4968 600.8 32.1438 596.631 Q36.7589 592.429 44.7161 592.429 M42.9973 598.286 Q38.1912 598.349 35.3266 600.991 Q32.4621 603.601 32.4621 607.93 Q32.4621 612.831 35.2312 615.791 Q38.0002 618.72 43.0292 619.165 L42.9973 598.286 Z" fill="#000000" fill-rule="nonzero" fill-opacity="1" /><path clip-path="url(#clip550)" d="M55.9197 581.321 L55.9197 574.605 L61.3942 574.605 L71.5793 579.825 L71.5793 583.931 L61.3942 581.321 L55.9197 581.321 Z" fill="#000000" fill-rule="nonzero" fill-opacity="1" /><path clip-path="url(#clip550)" d="M14.479 541.599 L14.479 535.711 L43.7294 535.711 L28.3562 518.237 L28.3562 510.757 L45.0344 529.663 L64.0042 509.961 L64.0042 517.6 L46.5939 535.711 L64.0042 535.711 L64.0042 541.599 L14.479 541.599 Z" fill="#000000" fill-rule="nonzero" fill-opacity="1" /><path clip-path="url(#clip550)" d="M45.7664 480.17 Q39.4007 480.17 35.8996 482.812 Q32.3984 485.422 32.3984 490.164 Q32.3984 494.875 35.8996 497.516 Q39.4007 500.126 45.7664 500.126 Q52.1003 500.126 55.6014 497.516 Q59.1026 494.875 59.1026 490.164 Q59.1026 485.422 55.6014 482.812 Q52.1003 480.17 45.7664 480.17 M59.58 474.313 Q68.683 474.313 73.1071 478.356 Q77.5631 482.398 77.5631 490.737 Q77.5631 493.824 77.0857 496.562 Q76.6401 499.299 75.6852 501.877 L69.9879 501.877 Q71.3884 499.299 72.0568 496.784 Q72.7252 494.27 72.7252 491.66 Q72.7252 485.899 69.7015 483.035 Q66.7096 480.17 60.6303 480.17 L57.7339 480.17 Q60.885 481.984 62.4446 484.817 Q64.0042 487.65 64.0042 491.596 Q64.0042 498.153 59.0071 502.163 Q54.01 506.174 45.7664 506.174 Q37.491 506.174 32.4939 502.163 Q27.4968 498.153 27.4968 491.596 Q27.4968 487.65 29.0564 484.817 Q30.616 481.984 33.7671 480.17 L28.3562 480.17 L28.3562 474.313 L59.58 474.313 Z" fill="#000000" fill-rule="nonzero" fill-opacity="1" /><path clip-path="url(#clip550)" d="M16.4842 451.843 L16.4842 446.432 L70.0516 462.983 L70.0516 468.393 L16.4842 451.843 Z" fill="#000000" fill-rule="nonzero" fill-opacity="1" /><path clip-path="url(#clip550)" d="M29.4065 417.563 L34.9447 417.563 Q33.6716 420.046 33.035 422.719 Q32.3984 425.393 32.3984 428.258 Q32.3984 432.618 33.7352 434.814 Q35.072 436.979 37.7456 436.979 Q39.7826 436.979 40.9603 435.419 Q42.1061 433.859 43.1565 429.149 L43.6021 427.144 Q44.9389 420.905 47.3897 418.295 Q49.8086 415.653 54.1691 415.653 Q59.1344 415.653 62.0308 419.6 Q64.9272 423.515 64.9272 430.39 Q64.9272 433.255 64.3543 436.374 Q63.8132 439.461 62.6992 442.899 L56.6518 442.899 Q58.3387 439.652 59.198 436.501 Q60.0256 433.35 60.0256 430.263 Q60.0256 426.125 58.6251 423.897 Q57.1929 421.669 54.6147 421.669 Q52.2276 421.669 50.9545 423.292 Q49.6813 424.884 48.5037 430.326 L48.0262 432.363 Q46.8804 437.806 44.5251 440.225 Q42.138 442.644 38.0002 442.644 Q32.9713 442.644 30.2341 439.079 Q27.4968 435.515 27.4968 428.958 Q27.4968 425.711 27.9743 422.847 Q28.4517 419.982 29.4065 417.563 Z" fill="#000000" fill-rule="nonzero" fill-opacity="1" /><polyline clip-path="url(#clip552)" style="stroke:#0000ff; stroke-linecap:round; stroke-linejoin:round; stroke-width:4; stroke-opacity:1; fill:none" points="280.231,86.1857 300.556,164.067 320.881,237.275 341.206,306.091 361.53,370.778 381.855,431.584 402.18,488.742 422.505,542.47 442.83,592.975 463.155,640.449 483.48,685.075 503.804,727.024 524.129,766.456 544.454,803.521 564.779,838.364 585.104,871.115 605.429,901.902 625.753,930.841 646.078,958.044 666.403,983.615 686.728,1007.65 707.053,1030.25 727.378,1051.49 747.703,1071.45 768.027,1090.22 788.352,1107.86 808.677,1124.44 829.002,1140.03 849.327,1154.68 869.652,1168.45 889.977,1181.4 910.301,1193.57 930.626,1205.01 950.951,1215.76 971.276,1225.87 991.601,1235.37 1011.93,1244.3 1032.25,1252.7 1052.58,1260.59 1072.9,1268.01 1093.23,1274.98 1113.55,1281.54 1133.87,1287.7 1154.2,1293.49 1174.52,1298.94 1194.85,1304.06 1215.17,1308.87 1235.5,1313.39 1255.82,1317.64 1276.15,1321.64 1296.47,1325.39 1316.8,1328.92 1337.12,1332.24 1357.45,1335.36 1377.77,1338.29 1398.1,1341.05 1418.42,1343.64 1438.75,1346.08 1459.07,1348.37 1479.4,1350.52 1499.72,1352.54 1520.05,1354.44 1540.37,1356.23 1560.7,1357.91 1581.02,1359.49 1601.35,1360.98 1621.67,1362.37 1642,1363.68 1662.32,1364.92 1682.65,1366.08 1702.97,1367.17 1723.3,1368.19 1743.62,1369.15 1763.95,1370.06 1784.27,1370.91 1804.59,1371.71 1824.92,1372.46 1845.24,1373.17 1865.57,1373.83 1885.89,1374.46 1906.22,1375.04 1926.54,1375.59 1946.87,1376.11 1967.19,1376.6 1987.52,1377.06 2007.84,1377.49 2028.17,1377.89 2048.49,1378.28 2068.82,1378.63 2089.14,1378.97 2109.47,1379.29 2129.79,1379.58 2150.12,1379.86 2170.44,1380.12 2190.77,1380.37 2211.09,1380.6 2231.42,1380.82 2251.74,1381.03 2272.07,1381.22 2292.39,1381.4 "/>
<polyline clip-path="url(#clip552)" style="stroke:#ff0000; stroke-linecap:round; stroke-linejoin:round; stroke-width:4; stroke-opacity:1; fill:none" points="280.231,86.1857 300.556,164.067 320.881,237.275 341.206,306.091 361.53,370.778 381.855,431.584 402.18,488.742 422.505,542.47 442.83,592.974 463.155,640.449 483.48,685.076 503.804,727.024 524.129,766.456 544.454,803.521 564.779,838.364 585.104,871.116 605.429,901.903 625.753,930.842 646.078,958.045 666.403,983.615 686.728,1007.65 707.053,1030.25 727.378,1051.49 747.703,1071.45 768.027,1090.22 788.352,1107.86 808.677,1124.44 829.002,1140.03 849.327,1154.68 869.652,1168.45 889.977,1181.4 910.301,1193.57 930.626,1205.01 950.951,1215.76 971.276,1225.87 991.601,1235.37 1011.93,1244.3 1032.25,1252.7 1052.58,1260.59 1072.9,1268.01 1093.23,1274.99 1113.55,1281.54 1133.87,1287.7 1154.2,1293.49 1174.52,1298.94 1194.85,1304.05 1215.17,1308.87 1235.5,1313.39 1255.82,1317.64 1276.15,1321.64 1296.47,1325.39 1316.8,1328.92 1337.12,1332.24 1357.45,1335.36 1377.77,1338.29 1398.1,1341.05 1418.42,1343.64 1438.75,1346.08 1459.07,1348.37 1479.4,1350.52 1499.72,1352.54 1520.05,1354.44 1540.37,1356.23 1560.7,1357.91 1581.02,1359.49 1601.35,1360.97 1621.67,1362.37 1642,1363.7 1662.32,1364.94 1682.65,1366.11 1702.97,1367.2 1723.3,1368.22 1743.62,1369.17 1763.95,1370.06 1784.27,1370.89 1804.59,1371.68 1824.92,1372.43 1845.24,1373.19 1865.57,1373.96 1885.89,1374.73 1906.22,1375.52 1926.54,1376.3 1946.87,1377.09 1967.19,1377.89 1987.52,1378.69 2007.84,1379.52 2028.17,1380.35 2048.49,1381.16 2068.82,1382.05 2089.14,1382.81 2109.47,1384.24 2129.79,1384.24 2150.12,1384.24 2170.44,1384.24 2190.77,1384.24 2211.09,1384.24 2231.42,1384.24 2251.74,1384.24 2272.07,1384.24 2292.39,1384.24 "/>
<circle clip-path="url(#clip552)" cx="2109.47" cy="1384.24" r="14.4" fill="#ff0000" fill-rule="evenodd" fill-opacity="1" stroke="#000000" stroke-opacity="1" stroke-width="3.2"/>
<polyline clip-path="url(#clip552)" style="stroke:#d3d3d3; stroke-linecap:round; stroke-linejoin:round; stroke-width:4; stroke-opacity:1; fill:none" points="2038.22,1376.29 1852.54,1010.4 "/>
<polyline clip-path="url(#clip552)" style="stroke:#d3d3d3; stroke-linecap:round; stroke-linejoin:round; stroke-width:4; stroke-opacity:1; fill:none" points="1942.46,1384.24 1942.46,1376.29 2138.02,1376.29 2138.02,1384.24 1942.46,1384.24 "/>
<path clip-path="url(#clip550)" d="M1620.46 248.629 L2281.66 248.629 L2281.66 93.1086 L1620.46 93.1086  Z" fill="#ffffff" fill-rule="evenodd" fill-opacity="1"/>
<polyline clip-path="url(#clip550)" style="stroke:#000000; stroke-linecap:round; stroke-linejoin:round; stroke-width:4; stroke-opacity:1; fill:none" points="1620.46,248.629 2281.66,248.629 2281.66,93.1086 1620.46,93.1086 1620.46,248.629 "/>
<polyline clip-path="url(#clip550)" style="stroke:#0000ff; stroke-linecap:round; stroke-linejoin:round; stroke-width:4; stroke-opacity:1; fill:none" points="1644.16,144.949 1786.35,144.949 "/>
<path clip-path="url(#clip550)" d="M1810.05 127.669 L1829.91 127.669 L1829.91 131.604 L1814.72 131.604 L1814.72 141.789 L1828.43 141.789 L1828.43 145.724 L1814.72 145.724 L1814.72 162.229 L1810.05 162.229 L1810.05 127.669 Z" fill="#000000" fill-rule="nonzero" fill-opacity="1" /><path clip-path="url(#clip550)" d="M1834.1 151.997 L1834.1 136.303 L1838.36 136.303 L1838.36 151.835 Q1838.36 155.516 1839.79 157.368 Q1841.23 159.196 1844.1 159.196 Q1847.55 159.196 1849.54 156.997 Q1851.55 154.798 1851.55 151.002 L1851.55 136.303 L1855.81 136.303 L1855.81 162.229 L1851.55 162.229 L1851.55 158.247 Q1850 160.608 1847.94 161.766 Q1845.9 162.9 1843.19 162.9 Q1838.73 162.9 1836.41 160.122 Q1834.1 157.344 1834.1 151.997 M1844.81 135.678 L1844.81 135.678 Z" fill="#000000" fill-rule="nonzero" fill-opacity="1" /><path clip-path="url(#clip550)" d="M1864.58 126.21 L1868.84 126.21 L1868.84 162.229 L1864.58 162.229 L1864.58 126.21 Z" fill="#000000" fill-rule="nonzero" fill-opacity="1" /><path clip-path="url(#clip550)" d="M1877.75 126.21 L1882.01 126.21 L1882.01 162.229 L1877.75 162.229 L1877.75 126.21 Z" fill="#000000" fill-rule="nonzero" fill-opacity="1" /><path clip-path="url(#clip550)" d="M1901.71 164.636 Q1899.91 169.266 1898.19 170.678 Q1896.48 172.09 1893.61 172.09 L1890.21 172.09 L1890.21 168.525 L1892.71 168.525 Q1894.47 168.525 1895.44 167.692 Q1896.41 166.858 1897.59 163.756 L1898.36 161.812 L1887.87 136.303 L1892.38 136.303 L1900.49 156.581 L1908.59 136.303 L1913.1 136.303 L1901.71 164.636 Z" fill="#000000" fill-rule="nonzero" fill-opacity="1" /><path clip-path="url(#clip550)" d="M1952.71 137.298 L1952.71 141.28 Q1950.9 140.284 1949.07 139.798 Q1947.27 139.289 1945.42 139.289 Q1941.27 139.289 1938.98 141.928 Q1936.69 144.544 1936.69 149.289 Q1936.69 154.034 1938.98 156.673 Q1941.27 159.289 1945.42 159.289 Q1947.27 159.289 1949.07 158.803 Q1950.9 158.293 1952.71 157.298 L1952.71 161.233 Q1950.93 162.067 1949 162.483 Q1947.11 162.9 1944.95 162.9 Q1939.1 162.9 1935.65 159.219 Q1932.2 155.539 1932.2 149.289 Q1932.2 142.946 1935.67 139.312 Q1939.17 135.678 1945.23 135.678 Q1947.2 135.678 1949.07 136.095 Q1950.95 136.488 1952.71 137.298 Z" fill="#000000" fill-rule="nonzero" fill-opacity="1" /><path clip-path="url(#clip550)" d="M1981.67 146.581 L1981.67 162.229 L1977.41 162.229 L1977.41 146.719 Q1977.41 143.039 1975.97 141.21 Q1974.54 139.382 1971.67 139.382 Q1968.22 139.382 1966.23 141.581 Q1964.24 143.78 1964.24 147.576 L1964.24 162.229 L1959.95 162.229 L1959.95 126.21 L1964.24 126.21 L1964.24 140.331 Q1965.76 137.993 1967.82 136.835 Q1969.91 135.678 1972.62 135.678 Q1977.08 135.678 1979.37 138.456 Q1981.67 141.21 1981.67 146.581 Z" fill="#000000" fill-rule="nonzero" fill-opacity="1" /><path clip-path="url(#clip550)" d="M2000.21 139.289 Q1996.78 139.289 1994.79 141.974 Q1992.8 144.636 1992.8 149.289 Q1992.8 153.942 1994.77 156.627 Q1996.76 159.289 2000.21 159.289 Q2003.61 159.289 2005.6 156.604 Q2007.59 153.918 2007.59 149.289 Q2007.59 144.682 2005.6 141.997 Q2003.61 139.289 2000.21 139.289 M2000.21 135.678 Q2005.76 135.678 2008.93 139.289 Q2012.11 142.9 2012.11 149.289 Q2012.11 155.655 2008.93 159.289 Q2005.76 162.9 2000.21 162.9 Q1994.63 162.9 1991.46 159.289 Q1988.31 155.655 1988.31 149.289 Q1988.31 142.9 1991.46 139.289 Q1994.63 135.678 2000.21 135.678 Z" fill="#000000" fill-rule="nonzero" fill-opacity="1" /><path clip-path="url(#clip550)" d="M2019 126.21 L2023.29 126.21 L2023.29 147.483 L2035.99 136.303 L2041.43 136.303 L2027.68 148.432 L2042.01 162.229 L2036.46 162.229 L2023.29 149.567 L2023.29 162.229 L2019 162.229 L2019 126.21 Z" fill="#000000" fill-rule="nonzero" fill-opacity="1" /><path clip-path="url(#clip550)" d="M2067.11 148.201 L2067.11 150.284 L2047.52 150.284 Q2047.8 154.682 2050.16 156.997 Q2052.55 159.289 2056.78 159.289 Q2059.24 159.289 2061.53 158.687 Q2063.84 158.085 2066.11 156.881 L2066.11 160.909 Q2063.82 161.881 2061.41 162.391 Q2059 162.9 2056.53 162.9 Q2050.32 162.9 2046.69 159.289 Q2043.08 155.678 2043.08 149.52 Q2043.08 143.155 2046.5 139.428 Q2049.95 135.678 2055.79 135.678 Q2061.02 135.678 2064.05 139.057 Q2067.11 142.414 2067.11 148.201 M2062.85 146.951 Q2062.8 143.456 2060.88 141.372 Q2058.98 139.289 2055.83 139.289 Q2052.27 139.289 2050.11 141.303 Q2047.99 143.317 2047.66 146.974 L2062.85 146.951 Z" fill="#000000" fill-rule="nonzero" fill-opacity="1" /><path clip-path="url(#clip550)" d="M2091.16 140.238 L2091.16 126.21 L2095.42 126.21 L2095.42 162.229 L2091.16 162.229 L2091.16 158.34 Q2089.81 160.655 2087.75 161.789 Q2085.72 162.9 2082.85 162.9 Q2078.15 162.9 2075.18 159.15 Q2072.24 155.4 2072.24 149.289 Q2072.24 143.178 2075.18 139.428 Q2078.15 135.678 2082.85 135.678 Q2085.72 135.678 2087.75 136.812 Q2089.81 137.923 2091.16 140.238 M2076.64 149.289 Q2076.64 153.988 2078.56 156.673 Q2080.51 159.335 2083.89 159.335 Q2087.27 159.335 2089.21 156.673 Q2091.16 153.988 2091.16 149.289 Q2091.16 144.59 2089.21 141.928 Q2087.27 139.243 2083.89 139.243 Q2080.51 139.243 2078.56 141.928 Q2076.64 144.59 2076.64 149.289 Z" fill="#000000" fill-rule="nonzero" fill-opacity="1" /><path clip-path="url(#clip550)" d="M2139.44 141.28 Q2141.04 138.409 2143.26 137.044 Q2145.48 135.678 2148.49 135.678 Q2152.54 135.678 2154.74 138.525 Q2156.94 141.349 2156.94 146.581 L2156.94 162.229 L2152.66 162.229 L2152.66 146.719 Q2152.66 142.993 2151.34 141.187 Q2150.02 139.382 2147.31 139.382 Q2144 139.382 2142.08 141.581 Q2140.16 143.78 2140.16 147.576 L2140.16 162.229 L2135.88 162.229 L2135.88 146.719 Q2135.88 142.969 2134.56 141.187 Q2133.24 139.382 2130.48 139.382 Q2127.22 139.382 2125.3 141.604 Q2123.38 143.803 2123.38 147.576 L2123.38 162.229 L2119.1 162.229 L2119.1 136.303 L2123.38 136.303 L2123.38 140.331 Q2124.84 137.946 2126.87 136.812 Q2128.91 135.678 2131.71 135.678 Q2134.54 135.678 2136.5 137.113 Q2138.49 138.548 2139.44 141.28 Z" fill="#000000" fill-rule="nonzero" fill-opacity="1" /><path clip-path="url(#clip550)" d="M2175.48 139.289 Q2172.06 139.289 2170.07 141.974 Q2168.08 144.636 2168.08 149.289 Q2168.08 153.942 2170.04 156.627 Q2172.04 159.289 2175.48 159.289 Q2178.89 159.289 2180.88 156.604 Q2182.87 153.918 2182.87 149.289 Q2182.87 144.682 2180.88 141.997 Q2178.89 139.289 2175.48 139.289 M2175.48 135.678 Q2181.04 135.678 2184.21 139.289 Q2187.38 142.9 2187.38 149.289 Q2187.38 155.655 2184.21 159.289 Q2181.04 162.9 2175.48 162.9 Q2169.91 162.9 2166.73 159.289 Q2163.59 155.655 2163.59 149.289 Q2163.59 142.9 2166.73 139.289 Q2169.91 135.678 2175.48 135.678 Z" fill="#000000" fill-rule="nonzero" fill-opacity="1" /><path clip-path="url(#clip550)" d="M2211.5 140.238 L2211.5 126.21 L2215.76 126.21 L2215.76 162.229 L2211.5 162.229 L2211.5 158.34 Q2210.16 160.655 2208.1 161.789 Q2206.06 162.9 2203.19 162.9 Q2198.49 162.9 2195.53 159.15 Q2192.59 155.4 2192.59 149.289 Q2192.59 143.178 2195.53 139.428 Q2198.49 135.678 2203.19 135.678 Q2206.06 135.678 2208.1 136.812 Q2210.16 137.923 2211.5 140.238 M2196.99 149.289 Q2196.99 153.988 2198.91 156.673 Q2200.85 159.335 2204.23 159.335 Q2207.61 159.335 2209.56 156.673 Q2211.5 153.988 2211.5 149.289 Q2211.5 144.59 2209.56 141.928 Q2207.61 139.243 2204.23 139.243 Q2200.85 139.243 2198.91 141.928 Q2196.99 144.59 2196.99 149.289 Z" fill="#000000" fill-rule="nonzero" fill-opacity="1" /><path clip-path="url(#clip550)" d="M2246.71 148.201 L2246.71 150.284 L2227.13 150.284 Q2227.41 154.682 2229.77 156.997 Q2232.15 159.289 2236.39 159.289 Q2238.84 159.289 2241.13 158.687 Q2243.45 158.085 2245.72 156.881 L2245.72 160.909 Q2243.42 161.881 2241.02 162.391 Q2238.61 162.9 2236.13 162.9 Q2229.93 162.9 2226.29 159.289 Q2222.68 155.678 2222.68 149.52 Q2222.68 143.155 2226.11 139.428 Q2229.56 135.678 2235.39 135.678 Q2240.62 135.678 2243.66 139.057 Q2246.71 142.414 2246.71 148.201 M2242.45 146.951 Q2242.41 143.456 2240.48 141.372 Q2238.59 139.289 2235.44 139.289 Q2231.87 139.289 2229.72 141.303 Q2227.59 143.317 2227.27 146.974 L2242.45 146.951 Z" fill="#000000" fill-rule="nonzero" fill-opacity="1" /><path clip-path="url(#clip550)" d="M2253.7 126.21 L2257.96 126.21 L2257.96 162.229 L2253.7 162.229 L2253.7 126.21 Z" fill="#000000" fill-rule="nonzero" fill-opacity="1" /><polyline clip-path="url(#clip550)" style="stroke:#ff0000; stroke-linecap:round; stroke-linejoin:round; stroke-width:4; stroke-opacity:1; fill:none" points="1644.16,196.789 1786.35,196.789 "/>
<path clip-path="url(#clip550)" d="M1826.06 182.68 Q1820.97 182.68 1817.96 186.476 Q1814.98 190.272 1814.98 196.823 Q1814.98 203.351 1817.96 207.147 Q1820.97 210.944 1826.06 210.944 Q1831.16 210.944 1834.12 207.147 Q1837.11 203.351 1837.11 196.823 Q1837.11 190.272 1834.12 186.476 Q1831.16 182.68 1826.06 182.68 M1826.06 178.884 Q1833.33 178.884 1837.69 183.768 Q1842.04 188.629 1842.04 196.823 Q1842.04 204.995 1837.69 209.879 Q1833.33 214.74 1826.06 214.74 Q1818.77 214.74 1814.4 209.879 Q1810.05 205.018 1810.05 196.823 Q1810.05 188.629 1814.4 183.768 Q1818.77 178.884 1826.06 178.884 Z" fill="#000000" fill-rule="nonzero" fill-opacity="1" /><path clip-path="url(#clip550)" d="M1854.03 183.351 L1854.03 210.226 L1859.68 210.226 Q1866.83 210.226 1870.14 206.985 Q1873.47 203.745 1873.47 196.754 Q1873.47 189.809 1870.14 186.592 Q1866.83 183.351 1859.68 183.351 L1854.03 183.351 M1849.35 179.509 L1858.96 179.509 Q1869 179.509 1873.7 183.698 Q1878.4 187.865 1878.4 196.754 Q1878.4 205.689 1873.68 209.879 Q1868.96 214.069 1858.96 214.069 L1849.35 214.069 L1849.35 179.509 Z" fill="#000000" fill-rule="nonzero" fill-opacity="1" /><path clip-path="url(#clip550)" d="M1885.86 179.509 L1907.71 179.509 L1907.71 183.444 L1890.53 183.444 L1890.53 193.675 L1906.99 193.675 L1906.99 197.61 L1890.53 197.61 L1890.53 210.133 L1908.12 210.133 L1908.12 214.069 L1885.86 214.069 L1885.86 179.509 Z" fill="#000000" fill-rule="nonzero" fill-opacity="1" /><path clip-path="url(#clip550)" d="M1286.31 1010.4 L2139.47 1010.4 L2139.47 460.025 L1286.31 460.025  Z" fill="#ffffff" fill-rule="evenodd" fill-opacity="1"/>
<defs>
  <clipPath id="clip553">
    <rect x="1286" y="460" width="854" height="551"/>
  </clipPath>
</defs>
<polyline clip-path="url(#clip553)" style="stroke:#000000; stroke-linecap:round; stroke-linejoin:round; stroke-width:2; stroke-opacity:0.1; fill:none" points="1286.31,1010.4 1286.31,460.025 "/>
<polyline clip-path="url(#clip553)" style="stroke:#000000; stroke-linecap:round; stroke-linejoin:round; stroke-width:2; stroke-opacity:0.1; fill:none" points="1499.6,1010.4 1499.6,460.025 "/>
<polyline clip-path="url(#clip553)" style="stroke:#000000; stroke-linecap:round; stroke-linejoin:round; stroke-width:2; stroke-opacity:0.1; fill:none" points="1712.89,1010.4 1712.89,460.025 "/>
<polyline clip-path="url(#clip553)" style="stroke:#000000; stroke-linecap:round; stroke-linejoin:round; stroke-width:2; stroke-opacity:0.1; fill:none" points="1926.18,1010.4 1926.18,460.025 "/>
<polyline clip-path="url(#clip553)" style="stroke:#000000; stroke-linecap:round; stroke-linejoin:round; stroke-width:2; stroke-opacity:0.1; fill:none" points="2139.47,1010.4 2139.47,460.025 "/>
<polyline clip-path="url(#clip553)" style="stroke:#000000; stroke-linecap:round; stroke-linejoin:round; stroke-width:2; stroke-opacity:0.1; fill:none" points="1286.31,1010.4 2139.47,1010.4 "/>
<polyline clip-path="url(#clip553)" style="stroke:#000000; stroke-linecap:round; stroke-linejoin:round; stroke-width:2; stroke-opacity:0.1; fill:none" points="1286.31,900.324 2139.47,900.324 "/>
<polyline clip-path="url(#clip553)" style="stroke:#000000; stroke-linecap:round; stroke-linejoin:round; stroke-width:2; stroke-opacity:0.1; fill:none" points="1286.31,790.249 2139.47,790.249 "/>
<polyline clip-path="url(#clip553)" style="stroke:#000000; stroke-linecap:round; stroke-linejoin:round; stroke-width:2; stroke-opacity:0.1; fill:none" points="1286.31,680.175 2139.47,680.175 "/>
<polyline clip-path="url(#clip553)" style="stroke:#000000; stroke-linecap:round; stroke-linejoin:round; stroke-width:2; stroke-opacity:0.1; fill:none" points="1286.31,570.1 2139.47,570.1 "/>
<polyline clip-path="url(#clip553)" style="stroke:#000000; stroke-linecap:round; stroke-linejoin:round; stroke-width:2; stroke-opacity:0.1; fill:none" points="1286.31,460.025 2139.47,460.025 "/>
<polyline clip-path="url(#clip550)" style="stroke:#000000; stroke-linecap:round; stroke-linejoin:round; stroke-width:4; stroke-opacity:1; fill:none" points="1286.31,1010.4 2139.47,1010.4 "/>
<polyline clip-path="url(#clip550)" style="stroke:#000000; stroke-linecap:round; stroke-linejoin:round; stroke-width:4; stroke-opacity:1; fill:none" points="1286.31,1010.4 1286.31,991.501 "/>
<polyline clip-path="url(#clip550)" style="stroke:#000000; stroke-linecap:round; stroke-linejoin:round; stroke-width:4; stroke-opacity:1; fill:none" points="1499.6,1010.4 1499.6,991.501 "/>
<polyline clip-path="url(#clip550)" style="stroke:#000000; stroke-linecap:round; stroke-linejoin:round; stroke-width:4; stroke-opacity:1; fill:none" points="1712.89,1010.4 1712.89,991.501 "/>
<polyline clip-path="url(#clip550)" style="stroke:#000000; stroke-linecap:round; stroke-linejoin:round; stroke-width:4; stroke-opacity:1; fill:none" points="1926.18,1010.4 1926.18,991.501 "/>
<polyline clip-path="url(#clip550)" style="stroke:#000000; stroke-linecap:round; stroke-linejoin:round; stroke-width:4; stroke-opacity:1; fill:none" points="2139.47,1010.4 2139.47,991.501 "/>
<path clip-path="url(#clip550)" d="M1238.38 1068.86 L1246.02 1068.86 L1246.02 1042.5 L1237.71 1044.17 L1237.71 1039.91 L1245.98 1038.24 L1250.65 1038.24 L1250.65 1068.86 L1258.29 1068.86 L1258.29 1072.8 L1238.38 1072.8 L1238.38 1068.86 Z" fill="#000000" fill-rule="nonzero" fill-opacity="1" /><path clip-path="url(#clip550)" d="M1266.55 1038.24 L1288.78 1038.24 L1288.78 1040.23 L1276.23 1072.8 L1271.35 1072.8 L1283.15 1042.17 L1266.55 1042.17 L1266.55 1038.24 Z" fill="#000000" fill-rule="nonzero" fill-opacity="1" /><path clip-path="url(#clip550)" d="M1297.9 1066.92 L1302.78 1066.92 L1302.78 1072.8 L1297.9 1072.8 L1297.9 1066.92 Z" fill="#000000" fill-rule="nonzero" fill-opacity="1" /><path clip-path="url(#clip550)" d="M1322.97 1041.32 Q1319.35 1041.32 1317.53 1044.88 Q1315.72 1048.42 1315.72 1055.55 Q1315.72 1062.66 1317.53 1066.23 Q1319.35 1069.77 1322.97 1069.77 Q1326.6 1069.77 1328.41 1066.23 Q1330.23 1062.66 1330.23 1055.55 Q1330.23 1048.42 1328.41 1044.88 Q1326.6 1041.32 1322.97 1041.32 M1322.97 1037.61 Q1328.78 1037.61 1331.83 1042.22 Q1334.91 1046.8 1334.91 1055.55 Q1334.91 1064.28 1331.83 1068.89 Q1328.78 1073.47 1322.97 1073.47 Q1317.16 1073.47 1314.08 1068.89 Q1311.02 1064.28 1311.02 1055.55 Q1311.02 1046.8 1314.08 1042.22 Q1317.16 1037.61 1322.97 1037.61 Z" fill="#000000" fill-rule="nonzero" fill-opacity="1" /><path clip-path="url(#clip550)" d="M1452.17 1068.86 L1459.81 1068.86 L1459.81 1042.5 L1451.5 1044.17 L1451.5 1039.91 L1459.76 1038.24 L1464.44 1038.24 L1464.44 1068.86 L1472.08 1068.86 L1472.08 1072.8 L1452.17 1072.8 L1452.17 1068.86 Z" fill="#000000" fill-rule="nonzero" fill-opacity="1" /><path clip-path="url(#clip550)" d="M1480.34 1038.24 L1502.56 1038.24 L1502.56 1040.23 L1490.02 1072.8 L1485.13 1072.8 L1496.94 1042.17 L1480.34 1042.17 L1480.34 1038.24 Z" fill="#000000" fill-rule="nonzero" fill-opacity="1" /><path clip-path="url(#clip550)" d="M1511.68 1066.92 L1516.57 1066.92 L1516.57 1072.8 L1511.68 1072.8 L1511.68 1066.92 Z" fill="#000000" fill-rule="nonzero" fill-opacity="1" /><path clip-path="url(#clip550)" d="M1526.8 1038.24 L1545.16 1038.24 L1545.16 1042.17 L1531.08 1042.17 L1531.08 1050.65 Q1532.1 1050.3 1533.12 1050.14 Q1534.14 1049.95 1535.16 1049.95 Q1540.94 1049.95 1544.32 1053.12 Q1547.7 1056.29 1547.7 1061.71 Q1547.7 1067.29 1544.23 1070.39 Q1540.76 1073.47 1534.44 1073.47 Q1532.26 1073.47 1529.99 1073.1 Q1527.75 1072.73 1525.34 1071.99 L1525.34 1067.29 Q1527.42 1068.42 1529.65 1068.98 Q1531.87 1069.54 1534.35 1069.54 Q1538.35 1069.54 1540.69 1067.43 Q1543.03 1065.32 1543.03 1061.71 Q1543.03 1058.1 1540.69 1055.99 Q1538.35 1053.89 1534.35 1053.89 Q1532.47 1053.89 1530.6 1054.3 Q1528.74 1054.72 1526.8 1055.6 L1526.8 1038.24 Z" fill="#000000" fill-rule="nonzero" fill-opacity="1" /><path clip-path="url(#clip550)" d="M1664.96 1068.86 L1672.6 1068.86 L1672.6 1042.5 L1664.29 1044.17 L1664.29 1039.91 L1672.55 1038.24 L1677.23 1038.24 L1677.23 1068.86 L1684.87 1068.86 L1684.87 1072.8 L1664.96 1072.8 L1664.96 1068.86 Z" fill="#000000" fill-rule="nonzero" fill-opacity="1" /><path clip-path="url(#clip550)" d="M1704.31 1056.39 Q1700.98 1056.39 1699.06 1058.17 Q1697.16 1059.95 1697.16 1063.08 Q1697.16 1066.2 1699.06 1067.98 Q1700.98 1069.77 1704.31 1069.77 Q1707.65 1069.77 1709.57 1067.98 Q1711.49 1066.18 1711.49 1063.08 Q1711.49 1059.95 1709.57 1058.17 Q1707.67 1056.39 1704.31 1056.39 M1699.64 1054.4 Q1696.63 1053.66 1694.94 1051.6 Q1693.27 1049.54 1693.27 1046.57 Q1693.27 1042.43 1696.21 1040.02 Q1699.17 1037.61 1704.31 1037.61 Q1709.47 1037.61 1712.41 1040.02 Q1715.35 1042.43 1715.35 1046.57 Q1715.35 1049.54 1713.66 1051.6 Q1712 1053.66 1709.01 1054.4 Q1712.39 1055.18 1714.27 1057.48 Q1716.16 1059.77 1716.16 1063.08 Q1716.16 1068.1 1713.09 1070.79 Q1710.03 1073.47 1704.31 1073.47 Q1698.6 1073.47 1695.52 1070.79 Q1692.46 1068.1 1692.46 1063.08 Q1692.46 1059.77 1694.36 1057.48 Q1696.26 1055.18 1699.64 1054.4 M1697.92 1047.01 Q1697.92 1049.7 1699.59 1051.2 Q1701.28 1052.71 1704.31 1052.71 Q1707.32 1052.71 1709.01 1051.2 Q1710.72 1049.7 1710.72 1047.01 Q1710.72 1044.33 1709.01 1042.82 Q1707.32 1041.32 1704.31 1041.32 Q1701.28 1041.32 1699.59 1042.82 Q1697.92 1044.33 1697.92 1047.01 Z" fill="#000000" fill-rule="nonzero" fill-opacity="1" /><path clip-path="url(#clip550)" d="M1724.47 1066.92 L1729.36 1066.92 L1729.36 1072.8 L1724.47 1072.8 L1724.47 1066.92 Z" fill="#000000" fill-rule="nonzero" fill-opacity="1" /><path clip-path="url(#clip550)" d="M1749.54 1041.32 Q1745.93 1041.32 1744.1 1044.88 Q1742.3 1048.42 1742.3 1055.55 Q1742.3 1062.66 1744.1 1066.23 Q1745.93 1069.77 1749.54 1069.77 Q1753.18 1069.77 1754.98 1066.23 Q1756.81 1062.66 1756.81 1055.55 Q1756.81 1048.42 1754.98 1044.88 Q1753.18 1041.32 1749.54 1041.32 M1749.54 1037.61 Q1755.35 1037.61 1758.41 1042.22 Q1761.49 1046.8 1761.49 1055.55 Q1761.49 1064.28 1758.41 1068.89 Q1755.35 1073.47 1749.54 1073.47 Q1743.73 1073.47 1740.66 1068.89 Q1737.6 1064.28 1737.6 1055.55 Q1737.6 1046.8 1740.66 1042.22 Q1743.73 1037.61 1749.54 1037.61 Z" fill="#000000" fill-rule="nonzero" fill-opacity="1" /><path clip-path="url(#clip550)" d="M1878.75 1068.86 L1886.39 1068.86 L1886.39 1042.5 L1878.08 1044.17 L1878.08 1039.91 L1886.34 1038.24 L1891.02 1038.24 L1891.02 1068.86 L1898.65 1068.86 L1898.65 1072.8 L1878.75 1072.8 L1878.75 1068.86 Z" fill="#000000" fill-rule="nonzero" fill-opacity="1" /><path clip-path="url(#clip550)" d="M1918.1 1056.39 Q1914.77 1056.39 1912.84 1058.17 Q1910.95 1059.95 1910.95 1063.08 Q1910.95 1066.2 1912.84 1067.98 Q1914.77 1069.77 1918.1 1069.77 Q1921.43 1069.77 1923.35 1067.98 Q1925.28 1066.18 1925.28 1063.08 Q1925.28 1059.95 1923.35 1058.17 Q1921.46 1056.39 1918.1 1056.39 M1913.42 1054.4 Q1910.41 1053.66 1908.72 1051.6 Q1907.06 1049.54 1907.06 1046.57 Q1907.06 1042.43 1910 1040.02 Q1912.96 1037.61 1918.1 1037.61 Q1923.26 1037.61 1926.2 1040.02 Q1929.14 1042.43 1929.14 1046.57 Q1929.14 1049.54 1927.45 1051.6 Q1925.78 1053.66 1922.8 1054.4 Q1926.18 1055.18 1928.05 1057.48 Q1929.95 1059.77 1929.95 1063.08 Q1929.95 1068.1 1926.87 1070.79 Q1923.82 1073.47 1918.1 1073.47 Q1912.38 1073.47 1909.3 1070.79 Q1906.25 1068.1 1906.25 1063.08 Q1906.25 1059.77 1908.15 1057.48 Q1910.04 1055.18 1913.42 1054.4 M1911.71 1047.01 Q1911.71 1049.7 1913.38 1051.2 Q1915.07 1052.71 1918.1 1052.71 Q1921.11 1052.71 1922.8 1051.2 Q1924.51 1049.7 1924.51 1047.01 Q1924.51 1044.33 1922.8 1042.82 Q1921.11 1041.32 1918.1 1041.32 Q1915.07 1041.32 1913.38 1042.82 Q1911.71 1044.33 1911.71 1047.01 Z" fill="#000000" fill-rule="nonzero" fill-opacity="1" /><path clip-path="url(#clip550)" d="M1938.26 1066.92 L1943.15 1066.92 L1943.15 1072.8 L1938.26 1072.8 L1938.26 1066.92 Z" fill="#000000" fill-rule="nonzero" fill-opacity="1" /><path clip-path="url(#clip550)" d="M1953.38 1038.24 L1971.73 1038.24 L1971.73 1042.17 L1957.66 1042.17 L1957.66 1050.65 Q1958.68 1050.3 1959.7 1050.14 Q1960.71 1049.95 1961.73 1049.95 Q1967.52 1049.95 1970.9 1053.12 Q1974.28 1056.29 1974.28 1061.71 Q1974.28 1067.29 1970.81 1070.39 Q1967.34 1073.47 1961.02 1073.47 Q1958.84 1073.47 1956.57 1073.1 Q1954.33 1072.73 1951.92 1071.99 L1951.92 1067.29 Q1954 1068.42 1956.22 1068.98 Q1958.45 1069.54 1960.92 1069.54 Q1964.93 1069.54 1967.27 1067.43 Q1969.6 1065.32 1969.6 1061.71 Q1969.6 1058.1 1967.27 1055.99 Q1964.93 1053.89 1960.92 1053.89 Q1959.05 1053.89 1957.17 1054.3 Q1955.32 1054.72 1953.38 1055.6 L1953.38 1038.24 Z" fill="#000000" fill-rule="nonzero" fill-opacity="1" /><path clip-path="url(#clip550)" d="M2091.54 1068.86 L2099.18 1068.86 L2099.18 1042.5 L2090.87 1044.17 L2090.87 1039.91 L2099.13 1038.24 L2103.81 1038.24 L2103.81 1068.86 L2111.45 1068.86 L2111.45 1072.8 L2091.54 1072.8 L2091.54 1068.86 Z" fill="#000000" fill-rule="nonzero" fill-opacity="1" /><path clip-path="url(#clip550)" d="M2121.03 1072.08 L2121.03 1067.82 Q2122.79 1068.66 2124.59 1069.1 Q2126.4 1069.54 2128.14 1069.54 Q2132.77 1069.54 2135.2 1066.43 Q2137.65 1063.31 2138 1056.97 Q2136.65 1058.96 2134.59 1060.02 Q2132.53 1061.09 2130.03 1061.09 Q2124.85 1061.09 2121.82 1057.96 Q2118.81 1054.81 2118.81 1049.37 Q2118.81 1044.05 2121.96 1040.83 Q2125.1 1037.61 2130.34 1037.61 Q2136.33 1037.61 2139.48 1042.22 Q2142.65 1046.8 2142.65 1055.55 Q2142.65 1063.73 2138.76 1068.61 Q2134.9 1073.47 2128.34 1073.47 Q2126.59 1073.47 2124.78 1073.12 Q2122.97 1072.78 2121.03 1072.08 M2130.34 1057.43 Q2133.48 1057.43 2135.31 1055.28 Q2137.16 1053.12 2137.16 1049.37 Q2137.16 1045.65 2135.31 1043.49 Q2133.48 1041.32 2130.34 1041.32 Q2127.19 1041.32 2125.34 1043.49 Q2123.51 1045.65 2123.51 1049.37 Q2123.51 1053.12 2125.34 1055.28 Q2127.19 1057.43 2130.34 1057.43 Z" fill="#000000" fill-rule="nonzero" fill-opacity="1" /><path clip-path="url(#clip550)" d="M2151.05 1066.92 L2155.94 1066.92 L2155.94 1072.8 L2151.05 1072.8 L2151.05 1066.92 Z" fill="#000000" fill-rule="nonzero" fill-opacity="1" /><path clip-path="url(#clip550)" d="M2176.12 1041.32 Q2172.51 1041.32 2170.68 1044.88 Q2168.88 1048.42 2168.88 1055.55 Q2168.88 1062.66 2170.68 1066.23 Q2172.51 1069.77 2176.12 1069.77 Q2179.76 1069.77 2181.56 1066.23 Q2183.39 1062.66 2183.39 1055.55 Q2183.39 1048.42 2181.56 1044.88 Q2179.76 1041.32 2176.12 1041.32 M2176.12 1037.61 Q2181.93 1037.61 2184.99 1042.22 Q2188.07 1046.8 2188.07 1055.55 Q2188.07 1064.28 2184.99 1068.89 Q2181.93 1073.47 2176.12 1073.47 Q2170.31 1073.47 2167.23 1068.89 Q2164.18 1064.28 2164.18 1055.55 Q2164.18 1046.8 2167.23 1042.22 Q2170.31 1037.61 2176.12 1037.61 Z" fill="#000000" fill-rule="nonzero" fill-opacity="1" /><polyline clip-path="url(#clip550)" style="stroke:#000000; stroke-linecap:round; stroke-linejoin:round; stroke-width:4; stroke-opacity:1; fill:none" points="1286.31,1010.4 1286.31,460.025 "/>
<polyline clip-path="url(#clip550)" style="stroke:#000000; stroke-linecap:round; stroke-linejoin:round; stroke-width:4; stroke-opacity:1; fill:none" points="1286.31,1010.4 1305.21,1010.4 "/>
<polyline clip-path="url(#clip550)" style="stroke:#000000; stroke-linecap:round; stroke-linejoin:round; stroke-width:4; stroke-opacity:1; fill:none" points="1286.31,900.324 1305.21,900.324 "/>
<polyline clip-path="url(#clip550)" style="stroke:#000000; stroke-linecap:round; stroke-linejoin:round; stroke-width:4; stroke-opacity:1; fill:none" points="1286.31,790.249 1305.21,790.249 "/>
<polyline clip-path="url(#clip550)" style="stroke:#000000; stroke-linecap:round; stroke-linejoin:round; stroke-width:4; stroke-opacity:1; fill:none" points="1286.31,680.175 1305.21,680.175 "/>
<polyline clip-path="url(#clip550)" style="stroke:#000000; stroke-linecap:round; stroke-linejoin:round; stroke-width:4; stroke-opacity:1; fill:none" points="1286.31,570.1 1305.21,570.1 "/>
<polyline clip-path="url(#clip550)" style="stroke:#000000; stroke-linecap:round; stroke-linejoin:round; stroke-width:4; stroke-opacity:1; fill:none" points="1286.31,460.025 1305.21,460.025 "/>
<path clip-path="url(#clip550)" d="M1132.81 996.198 Q1129.2 996.198 1127.37 999.763 Q1125.57 1003.3 1125.57 1010.43 Q1125.57 1017.54 1127.37 1021.11 Q1129.2 1024.65 1132.81 1024.65 Q1136.45 1024.65 1138.25 1021.11 Q1140.08 1017.54 1140.08 1010.43 Q1140.08 1003.3 1138.25 999.763 Q1136.45 996.198 1132.81 996.198 M1132.81 992.494 Q1138.62 992.494 1141.68 997.101 Q1144.76 1001.68 1144.76 1010.43 Q1144.76 1019.16 1141.68 1023.77 Q1138.62 1028.35 1132.81 1028.35 Q1127 1028.35 1123.92 1023.77 Q1120.87 1019.16 1120.87 1010.43 Q1120.87 1001.68 1123.92 997.101 Q1127 992.494 1132.81 992.494 Z" fill="#000000" fill-rule="nonzero" fill-opacity="1" /><path clip-path="url(#clip550)" d="M1152.97 1021.8 L1157.86 1021.8 L1157.86 1027.68 L1152.97 1027.68 L1152.97 1021.8 Z" fill="#000000" fill-rule="nonzero" fill-opacity="1" /><path clip-path="url(#clip550)" d="M1178.04 996.198 Q1174.43 996.198 1172.6 999.763 Q1170.8 1003.3 1170.8 1010.43 Q1170.8 1017.54 1172.6 1021.11 Q1174.43 1024.65 1178.04 1024.65 Q1181.68 1024.65 1183.48 1021.11 Q1185.31 1017.54 1185.31 1010.43 Q1185.31 1003.3 1183.48 999.763 Q1181.68 996.198 1178.04 996.198 M1178.04 992.494 Q1183.85 992.494 1186.91 997.101 Q1189.99 1001.68 1189.99 1010.43 Q1189.99 1019.16 1186.91 1023.77 Q1183.85 1028.35 1178.04 1028.35 Q1172.23 1028.35 1169.15 1023.77 Q1166.1 1019.16 1166.1 1010.43 Q1166.1 1001.68 1169.15 997.101 Q1172.23 992.494 1178.04 992.494 Z" fill="#000000" fill-rule="nonzero" fill-opacity="1" /><path clip-path="url(#clip550)" d="M1208.2 996.198 Q1204.59 996.198 1202.77 999.763 Q1200.96 1003.3 1200.96 1010.43 Q1200.96 1017.54 1202.77 1021.11 Q1204.59 1024.65 1208.2 1024.65 Q1211.84 1024.65 1213.64 1021.11 Q1215.47 1017.54 1215.47 1010.43 Q1215.47 1003.3 1213.64 999.763 Q1211.84 996.198 1208.2 996.198 M1208.2 992.494 Q1214.01 992.494 1217.07 997.101 Q1220.15 1001.68 1220.15 1010.43 Q1220.15 1019.16 1217.07 1023.77 Q1214.01 1028.35 1208.2 1028.35 Q1202.39 1028.35 1199.32 1023.77 Q1196.26 1019.16 1196.26 1010.43 Q1196.26 1001.68 1199.32 997.101 Q1202.39 992.494 1208.2 992.494 Z" fill="#000000" fill-rule="nonzero" fill-opacity="1" /><path clip-path="url(#clip550)" d="M1238.37 996.198 Q1234.76 996.198 1232.93 999.763 Q1231.12 1003.3 1231.12 1010.43 Q1231.12 1017.54 1232.93 1021.11 Q1234.76 1024.65 1238.37 1024.65 Q1242 1024.65 1243.81 1021.11 Q1245.64 1017.54 1245.64 1010.43 Q1245.64 1003.3 1243.81 999.763 Q1242 996.198 1238.37 996.198 M1238.37 992.494 Q1244.18 992.494 1247.23 997.101 Q1250.31 1001.68 1250.31 1010.43 Q1250.31 1019.16 1247.23 1023.77 Q1244.18 1028.35 1238.37 1028.35 Q1232.56 1028.35 1229.48 1023.77 Q1226.42 1019.16 1226.42 1010.43 Q1226.42 1001.68 1229.48 997.101 Q1232.56 992.494 1238.37 992.494 Z" fill="#000000" fill-rule="nonzero" fill-opacity="1" /><path clip-path="url(#clip550)" d="M1134.04 886.123 Q1130.43 886.123 1128.6 889.688 Q1126.79 893.229 1126.79 900.359 Q1126.79 907.465 1128.6 911.03 Q1130.43 914.572 1134.04 914.572 Q1137.67 914.572 1139.48 911.03 Q1141.31 907.465 1141.31 900.359 Q1141.31 893.229 1139.48 889.688 Q1137.67 886.123 1134.04 886.123 M1134.04 882.419 Q1139.85 882.419 1142.9 887.026 Q1145.98 891.609 1145.98 900.359 Q1145.98 909.086 1142.9 913.692 Q1139.85 918.276 1134.04 918.276 Q1128.23 918.276 1125.15 913.692 Q1122.09 909.086 1122.09 900.359 Q1122.09 891.609 1125.15 887.026 Q1128.23 882.419 1134.04 882.419 Z" fill="#000000" fill-rule="nonzero" fill-opacity="1" /><path clip-path="url(#clip550)" d="M1154.2 911.725 L1159.08 911.725 L1159.08 917.604 L1154.2 917.604 L1154.2 911.725 Z" fill="#000000" fill-rule="nonzero" fill-opacity="1" /><path clip-path="url(#clip550)" d="M1179.27 886.123 Q1175.66 886.123 1173.83 889.688 Q1172.02 893.229 1172.02 900.359 Q1172.02 907.465 1173.83 911.03 Q1175.66 914.572 1179.27 914.572 Q1182.9 914.572 1184.71 911.03 Q1186.54 907.465 1186.54 900.359 Q1186.54 893.229 1184.71 889.688 Q1182.9 886.123 1179.27 886.123 M1179.27 882.419 Q1185.08 882.419 1188.14 887.026 Q1191.21 891.609 1191.21 900.359 Q1191.21 909.086 1188.14 913.692 Q1185.08 918.276 1179.27 918.276 Q1173.46 918.276 1170.38 913.692 Q1167.33 909.086 1167.33 900.359 Q1167.33 891.609 1170.38 887.026 Q1173.46 882.419 1179.27 882.419 Z" fill="#000000" fill-rule="nonzero" fill-opacity="1" /><path clip-path="url(#clip550)" d="M1209.43 886.123 Q1205.82 886.123 1203.99 889.688 Q1202.19 893.229 1202.19 900.359 Q1202.19 907.465 1203.99 911.03 Q1205.82 914.572 1209.43 914.572 Q1213.07 914.572 1214.87 911.03 Q1216.7 907.465 1216.7 900.359 Q1216.7 893.229 1214.87 889.688 Q1213.07 886.123 1209.43 886.123 M1209.43 882.419 Q1215.24 882.419 1218.3 887.026 Q1221.38 891.609 1221.38 900.359 Q1221.38 909.086 1218.3 913.692 Q1215.24 918.276 1209.43 918.276 Q1203.62 918.276 1200.54 913.692 Q1197.49 909.086 1197.49 900.359 Q1197.49 891.609 1200.54 887.026 Q1203.62 882.419 1209.43 882.419 Z" fill="#000000" fill-rule="nonzero" fill-opacity="1" /><path clip-path="url(#clip550)" d="M1230.4 913.669 L1238.04 913.669 L1238.04 887.303 L1229.73 888.97 L1229.73 884.711 L1238 883.044 L1242.67 883.044 L1242.67 913.669 L1250.31 913.669 L1250.31 917.604 L1230.4 917.604 L1230.4 913.669 Z" fill="#000000" fill-rule="nonzero" fill-opacity="1" /><path clip-path="url(#clip550)" d="M1134.41 776.048 Q1130.8 776.048 1128.97 779.613 Q1127.16 783.155 1127.16 790.284 Q1127.16 797.391 1128.97 800.955 Q1130.8 804.497 1134.41 804.497 Q1138.04 804.497 1139.85 800.955 Q1141.68 797.391 1141.68 790.284 Q1141.68 783.155 1139.85 779.613 Q1138.04 776.048 1134.41 776.048 M1134.41 772.344 Q1140.22 772.344 1143.27 776.951 Q1146.35 781.534 1146.35 790.284 Q1146.35 799.011 1143.27 803.617 Q1140.22 808.201 1134.41 808.201 Q1128.6 808.201 1125.52 803.617 Q1122.46 799.011 1122.46 790.284 Q1122.46 781.534 1125.52 776.951 Q1128.6 772.344 1134.41 772.344 Z" fill="#000000" fill-rule="nonzero" fill-opacity="1" /><path clip-path="url(#clip550)" d="M1154.57 801.65 L1159.46 801.65 L1159.46 807.529 L1154.57 807.529 L1154.57 801.65 Z" fill="#000000" fill-rule="nonzero" fill-opacity="1" /><path clip-path="url(#clip550)" d="M1179.64 776.048 Q1176.03 776.048 1174.2 779.613 Q1172.39 783.155 1172.39 790.284 Q1172.39 797.391 1174.2 800.955 Q1176.03 804.497 1179.64 804.497 Q1183.27 804.497 1185.08 800.955 Q1186.91 797.391 1186.91 790.284 Q1186.91 783.155 1185.08 779.613 Q1183.27 776.048 1179.64 776.048 M1179.64 772.344 Q1185.45 772.344 1188.51 776.951 Q1191.58 781.534 1191.58 790.284 Q1191.58 799.011 1188.51 803.617 Q1185.45 808.201 1179.64 808.201 Q1173.83 808.201 1170.75 803.617 Q1167.7 799.011 1167.7 790.284 Q1167.7 781.534 1170.75 776.951 Q1173.83 772.344 1179.64 772.344 Z" fill="#000000" fill-rule="nonzero" fill-opacity="1" /><path clip-path="url(#clip550)" d="M1209.8 776.048 Q1206.19 776.048 1204.36 779.613 Q1202.56 783.155 1202.56 790.284 Q1202.56 797.391 1204.36 800.955 Q1206.19 804.497 1209.8 804.497 Q1213.44 804.497 1215.24 800.955 Q1217.07 797.391 1217.07 790.284 Q1217.07 783.155 1215.24 779.613 Q1213.44 776.048 1209.8 776.048 M1209.8 772.344 Q1215.61 772.344 1218.67 776.951 Q1221.75 781.534 1221.75 790.284 Q1221.75 799.011 1218.67 803.617 Q1215.61 808.201 1209.8 808.201 Q1203.99 808.201 1200.91 803.617 Q1197.86 799.011 1197.86 790.284 Q1197.86 781.534 1200.91 776.951 Q1203.99 772.344 1209.8 772.344 Z" fill="#000000" fill-rule="nonzero" fill-opacity="1" /><path clip-path="url(#clip550)" d="M1233.99 803.594 L1250.31 803.594 L1250.31 807.529 L1228.37 807.529 L1228.37 803.594 Q1231.03 800.84 1235.61 796.21 Q1240.22 791.557 1241.4 790.215 Q1243.64 787.692 1244.52 785.955 Q1245.43 784.196 1245.43 782.506 Q1245.43 779.752 1243.48 778.016 Q1241.56 776.28 1238.46 776.28 Q1236.26 776.28 1233.81 777.043 Q1231.38 777.807 1228.6 779.358 L1228.6 774.636 Q1231.42 773.502 1233.88 772.923 Q1236.33 772.344 1238.37 772.344 Q1243.74 772.344 1246.93 775.03 Q1250.13 777.715 1250.13 782.205 Q1250.13 784.335 1249.32 786.256 Q1248.53 788.155 1246.42 790.747 Q1245.84 791.418 1242.74 794.636 Q1239.64 797.83 1233.99 803.594 Z" fill="#000000" fill-rule="nonzero" fill-opacity="1" /><path clip-path="url(#clip550)" d="M1133.46 665.973 Q1129.85 665.973 1128.02 669.538 Q1126.21 673.08 1126.21 680.209 Q1126.21 687.316 1128.02 690.88 Q1129.85 694.422 1133.46 694.422 Q1137.09 694.422 1138.9 690.88 Q1140.73 687.316 1140.73 680.209 Q1140.73 673.08 1138.9 669.538 Q1137.09 665.973 1133.46 665.973 M1133.46 662.27 Q1139.27 662.27 1142.33 666.876 Q1145.4 671.459 1145.4 680.209 Q1145.4 688.936 1142.33 693.543 Q1139.27 698.126 1133.46 698.126 Q1127.65 698.126 1124.57 693.543 Q1121.52 688.936 1121.52 680.209 Q1121.52 671.459 1124.57 666.876 Q1127.65 662.27 1133.46 662.27 Z" fill="#000000" fill-rule="nonzero" fill-opacity="1" /><path clip-path="url(#clip550)" d="M1153.62 691.575 L1158.51 691.575 L1158.51 697.455 L1153.62 697.455 L1153.62 691.575 Z" fill="#000000" fill-rule="nonzero" fill-opacity="1" /><path clip-path="url(#clip550)" d="M1178.69 665.973 Q1175.08 665.973 1173.25 669.538 Q1171.45 673.08 1171.45 680.209 Q1171.45 687.316 1173.25 690.88 Q1175.08 694.422 1178.69 694.422 Q1182.33 694.422 1184.13 690.88 Q1185.96 687.316 1185.96 680.209 Q1185.96 673.08 1184.13 669.538 Q1182.33 665.973 1178.69 665.973 M1178.69 662.27 Q1184.5 662.27 1187.56 666.876 Q1190.64 671.459 1190.64 680.209 Q1190.64 688.936 1187.56 693.543 Q1184.5 698.126 1178.69 698.126 Q1172.88 698.126 1169.8 693.543 Q1166.75 688.936 1166.75 680.209 Q1166.75 671.459 1169.8 666.876 Q1172.88 662.27 1178.69 662.27 Z" fill="#000000" fill-rule="nonzero" fill-opacity="1" /><path clip-path="url(#clip550)" d="M1208.85 665.973 Q1205.24 665.973 1203.41 669.538 Q1201.61 673.08 1201.61 680.209 Q1201.61 687.316 1203.41 690.88 Q1205.24 694.422 1208.85 694.422 Q1212.49 694.422 1214.29 690.88 Q1216.12 687.316 1216.12 680.209 Q1216.12 673.08 1214.29 669.538 Q1212.49 665.973 1208.85 665.973 M1208.85 662.27 Q1214.66 662.27 1217.72 666.876 Q1220.8 671.459 1220.8 680.209 Q1220.8 688.936 1217.72 693.543 Q1214.66 698.126 1208.85 698.126 Q1203.04 698.126 1199.96 693.543 Q1196.91 688.936 1196.91 680.209 Q1196.91 671.459 1199.96 666.876 Q1203.04 662.27 1208.85 662.27 Z" fill="#000000" fill-rule="nonzero" fill-opacity="1" /><path clip-path="url(#clip550)" d="M1243.18 678.82 Q1246.54 679.538 1248.41 681.806 Q1250.31 684.075 1250.31 687.408 Q1250.31 692.524 1246.79 695.325 Q1243.27 698.126 1236.79 698.126 Q1234.62 698.126 1232.3 697.686 Q1230.01 697.269 1227.56 696.413 L1227.56 691.899 Q1229.5 693.033 1231.82 693.612 Q1234.13 694.191 1236.65 694.191 Q1241.05 694.191 1243.34 692.455 Q1245.66 690.718 1245.66 687.408 Q1245.66 684.353 1243.51 682.64 Q1241.38 680.904 1237.56 680.904 L1233.53 680.904 L1233.53 677.061 L1237.74 677.061 Q1241.19 677.061 1243.02 675.695 Q1244.85 674.307 1244.85 671.714 Q1244.85 669.052 1242.95 667.64 Q1241.08 666.205 1237.56 666.205 Q1235.64 666.205 1233.44 666.621 Q1231.24 667.038 1228.6 667.918 L1228.6 663.751 Q1231.26 663.01 1233.58 662.64 Q1235.91 662.27 1237.97 662.27 Q1243.3 662.27 1246.4 664.7 Q1249.5 667.107 1249.5 671.228 Q1249.5 674.098 1247.86 676.089 Q1246.21 678.056 1243.18 678.82 Z" fill="#000000" fill-rule="nonzero" fill-opacity="1" /><path clip-path="url(#clip550)" d="M1132.33 555.898 Q1128.71 555.898 1126.89 559.463 Q1125.08 563.005 1125.08 570.134 Q1125.08 577.241 1126.89 580.806 Q1128.71 584.347 1132.33 584.347 Q1135.96 584.347 1137.77 580.806 Q1139.59 577.241 1139.59 570.134 Q1139.59 563.005 1137.77 559.463 Q1135.96 555.898 1132.33 555.898 M1132.33 552.195 Q1138.14 552.195 1141.19 556.801 Q1144.27 561.384 1144.27 570.134 Q1144.27 578.861 1141.19 583.468 Q1138.14 588.051 1132.33 588.051 Q1126.52 588.051 1123.44 583.468 Q1120.38 578.861 1120.38 570.134 Q1120.38 561.384 1123.44 556.801 Q1126.52 552.195 1132.33 552.195 Z" fill="#000000" fill-rule="nonzero" fill-opacity="1" /><path clip-path="url(#clip550)" d="M1152.49 581.5 L1157.37 581.5 L1157.37 587.38 L1152.49 587.38 L1152.49 581.5 Z" fill="#000000" fill-rule="nonzero" fill-opacity="1" /><path clip-path="url(#clip550)" d="M1177.56 555.898 Q1173.95 555.898 1172.12 559.463 Q1170.31 563.005 1170.31 570.134 Q1170.31 577.241 1172.12 580.806 Q1173.95 584.347 1177.56 584.347 Q1181.19 584.347 1183 580.806 Q1184.83 577.241 1184.83 570.134 Q1184.83 563.005 1183 559.463 Q1181.19 555.898 1177.56 555.898 M1177.56 552.195 Q1183.37 552.195 1186.42 556.801 Q1189.5 561.384 1189.5 570.134 Q1189.5 578.861 1186.42 583.468 Q1183.37 588.051 1177.56 588.051 Q1171.75 588.051 1168.67 583.468 Q1165.61 578.861 1165.61 570.134 Q1165.61 561.384 1168.67 556.801 Q1171.75 552.195 1177.56 552.195 Z" fill="#000000" fill-rule="nonzero" fill-opacity="1" /><path clip-path="url(#clip550)" d="M1207.72 555.898 Q1204.11 555.898 1202.28 559.463 Q1200.47 563.005 1200.47 570.134 Q1200.47 577.241 1202.28 580.806 Q1204.11 584.347 1207.72 584.347 Q1211.35 584.347 1213.16 580.806 Q1214.99 577.241 1214.99 570.134 Q1214.99 563.005 1213.16 559.463 Q1211.35 555.898 1207.72 555.898 M1207.72 552.195 Q1213.53 552.195 1216.58 556.801 Q1219.66 561.384 1219.66 570.134 Q1219.66 578.861 1216.58 583.468 Q1213.53 588.051 1207.72 588.051 Q1201.91 588.051 1198.83 583.468 Q1195.77 578.861 1195.77 570.134 Q1195.77 561.384 1198.83 556.801 Q1201.91 552.195 1207.72 552.195 Z" fill="#000000" fill-rule="nonzero" fill-opacity="1" /><path clip-path="url(#clip550)" d="M1240.73 556.894 L1228.92 575.343 L1240.73 575.343 L1240.73 556.894 M1239.5 552.82 L1245.38 552.82 L1245.38 575.343 L1250.31 575.343 L1250.31 579.232 L1245.38 579.232 L1245.38 587.38 L1240.73 587.38 L1240.73 579.232 L1225.13 579.232 L1225.13 574.718 L1239.5 552.82 Z" fill="#000000" fill-rule="nonzero" fill-opacity="1" /><path clip-path="url(#clip550)" d="M1133.81 445.824 Q1130.2 445.824 1128.37 449.388 Q1126.56 452.93 1126.56 460.06 Q1126.56 467.166 1128.37 470.731 Q1130.2 474.272 1133.81 474.272 Q1137.44 474.272 1139.25 470.731 Q1141.08 467.166 1141.08 460.06 Q1141.08 452.93 1139.25 449.388 Q1137.44 445.824 1133.81 445.824 M1133.81 442.12 Q1139.62 442.12 1142.67 446.726 Q1145.75 451.31 1145.75 460.06 Q1145.75 468.786 1142.67 473.393 Q1139.62 477.976 1133.81 477.976 Q1128 477.976 1124.92 473.393 Q1121.86 468.786 1121.86 460.06 Q1121.86 451.31 1124.92 446.726 Q1128 442.12 1133.81 442.12 Z" fill="#000000" fill-rule="nonzero" fill-opacity="1" /><path clip-path="url(#clip550)" d="M1153.97 471.425 L1158.85 471.425 L1158.85 477.305 L1153.97 477.305 L1153.97 471.425 Z" fill="#000000" fill-rule="nonzero" fill-opacity="1" /><path clip-path="url(#clip550)" d="M1179.04 445.824 Q1175.43 445.824 1173.6 449.388 Q1171.79 452.93 1171.79 460.06 Q1171.79 467.166 1173.6 470.731 Q1175.43 474.272 1179.04 474.272 Q1182.67 474.272 1184.48 470.731 Q1186.31 467.166 1186.31 460.06 Q1186.31 452.93 1184.48 449.388 Q1182.67 445.824 1179.04 445.824 M1179.04 442.12 Q1184.85 442.12 1187.9 446.726 Q1190.98 451.31 1190.98 460.06 Q1190.98 468.786 1187.9 473.393 Q1184.85 477.976 1179.04 477.976 Q1173.23 477.976 1170.15 473.393 Q1167.09 468.786 1167.09 460.06 Q1167.09 451.31 1170.15 446.726 Q1173.23 442.12 1179.04 442.12 Z" fill="#000000" fill-rule="nonzero" fill-opacity="1" /><path clip-path="url(#clip550)" d="M1209.2 445.824 Q1205.59 445.824 1203.76 449.388 Q1201.95 452.93 1201.95 460.06 Q1201.95 467.166 1203.76 470.731 Q1205.59 474.272 1209.2 474.272 Q1212.83 474.272 1214.64 470.731 Q1216.47 467.166 1216.47 460.06 Q1216.47 452.93 1214.64 449.388 Q1212.83 445.824 1209.2 445.824 M1209.2 442.12 Q1215.01 442.12 1218.07 446.726 Q1221.14 451.31 1221.14 460.06 Q1221.14 468.786 1218.07 473.393 Q1215.01 477.976 1209.2 477.976 Q1203.39 477.976 1200.31 473.393 Q1197.26 468.786 1197.26 460.06 Q1197.26 451.31 1200.31 446.726 Q1203.39 442.12 1209.2 442.12 Z" fill="#000000" fill-rule="nonzero" fill-opacity="1" /><path clip-path="url(#clip550)" d="M1229.41 442.745 L1247.76 442.745 L1247.76 446.68 L1233.69 446.68 L1233.69 455.152 Q1234.71 454.805 1235.73 454.643 Q1236.75 454.458 1237.76 454.458 Q1243.55 454.458 1246.93 457.629 Q1250.31 460.8 1250.31 466.217 Q1250.31 471.796 1246.84 474.897 Q1243.37 477.976 1237.05 477.976 Q1234.87 477.976 1232.6 477.606 Q1230.36 477.235 1227.95 476.495 L1227.95 471.796 Q1230.03 472.93 1232.26 473.485 Q1234.48 474.041 1236.95 474.041 Q1240.96 474.041 1243.3 471.934 Q1245.64 469.828 1245.64 466.217 Q1245.64 462.606 1243.3 460.499 Q1240.96 458.393 1236.95 458.393 Q1235.08 458.393 1233.2 458.81 Q1231.35 459.226 1229.41 460.106 L1229.41 442.745 Z" fill="#000000" fill-rule="nonzero" fill-opacity="1" /><polyline clip-path="url(#clip553)" style="stroke:#0000ff; stroke-linecap:round; stroke-linejoin:round; stroke-width:4; stroke-opacity:1; fill:none" points="-5965.51,-88886 -5876.84,-83492.3 -5788.17,-78422.3 -5699.5,-73656.5 -5610.83,-69176.6 -5522.16,-64965.5 -5433.49,-61007 -5344.81,-57286.1 -5256.14,-53788.4 -5167.47,-50500.6 -5078.8,-47410 -4990.13,-44504.9 -4901.46,-41774 -4812.79,-39207 -4724.11,-36794 -4635.44,-34525.8 -4546.77,-32393.7 -4458.1,-30389.5 -4369.43,-28505.6 -4280.76,-26734.7 -4192.09,-25070 -4103.42,-23505.2 -4014.74,-22034.3 -3926.07,-20651.7 -3837.4,-19352 -3748.73,-18130.3 -3660.06,-16981.9 -3571.39,-15902.4 -3482.72,-14887.6 -3394.04,-13933.8 -3305.37,-13037.2 -3216.7,-12194.3 -3128.03,-11402.1 -3039.36,-10657.3 -2950.69,-9957.29 -2862.02,-9299.25 -2773.34,-8680.69 -2684.67,-8099.24 -2596,-7552.68 -2507.33,-7038.91 -2418.66,-6555.96 -2329.99,-6101.99 -2241.32,-5675.26 -2152.65,-5274.13 -2063.97,-4897.07 -1975.3,-4542.63 -1886.63,-4209.46 -1797.96,-3896.28 -1709.29,-3601.88 -1620.62,-3325.16 -1531.95,-3065.03 -1443.27,-2820.51 -1354.6,-2590.66 -1265.93,-2374.6 -1177.26,-2171.51 -1088.59,-1980.6 -999.918,-1801.15 -911.246,-1632.46 -822.575,-1473.89 -733.904,-1324.84 -645.232,-1184.73 -556.561,-1053.02 -467.89,-929.221 -379.218,-812.847 -290.547,-703.455 -201.876,-600.627 -113.204,-503.968 -24.5328,-413.109 64.1385,-327.7 152.81,-247.417 241.481,-171.95 330.153,-101.011 418.824,-34.3281 507.495,28.3538 596.167,87.2748 684.838,142.661 773.509,194.724 862.181,243.663 950.852,289.666 1039.52,332.909 1128.19,373.557 1216.87,411.766 1305.54,447.683 1394.21,481.445 1482.88,513.182 1571.55,543.014 1660.22,571.056 1748.89,597.416 1837.57,622.194 1926.24,645.486 2014.91,667.38 2103.58,687.961 2192.25,707.306 2280.92,725.492 2369.59,742.586 2458.27,758.654 2546.94,773.758 2635.61,787.956 2724.28,801.302 2812.95,813.848 "/>
<polyline clip-path="url(#clip553)" style="stroke:#ff0000; stroke-linecap:round; stroke-linejoin:round; stroke-width:4; stroke-opacity:1; fill:none" points="-5965.51,-88886 -5876.84,-83492.3 -5788.17,-78422.3 -5699.5,-73656.5 -5610.83,-69176.6 -5522.16,-64965.5 -5433.49,-61007 -5344.81,-57286.1 -5256.14,-53788.4 -5167.47,-50500.6 -5078.8,-47410 -4990.13,-44504.8 -4901.46,-41774 -4812.79,-39207 -4724.11,-36794 -4635.44,-34525.8 -4546.77,-32393.6 -4458.1,-30389.4 -4369.43,-28505.5 -4280.76,-26734.7 -4192.09,-25070.1 -4103.42,-23505.2 -4014.74,-22034.3 -3926.07,-20651.6 -3837.4,-19351.9 -3748.73,-18130.2 -3660.06,-16981.9 -3571.39,-15902.4 -3482.72,-14887.7 -3394.04,-13933.7 -3305.37,-13037 -3216.7,-12194.2 -3128.03,-11401.9 -3039.36,-10657.3 -2950.69,-9957.3 -2862.02,-9299.31 -2773.34,-8680.76 -2684.67,-8099.26 -2596,-7552.62 -2507.33,-7038.8 -2418.66,-6555.84 -2329.99,-6101.89 -2241.32,-5675.22 -2152.65,-5274.15 -2063.97,-4897.14 -1975.3,-4542.72 -1886.63,-4209.51 -1797.96,-3896.27 -1709.29,-3601.82 -1620.62,-3325.07 -1531.95,-3064.95 -1443.27,-2820.46 -1354.6,-2590.66 -1265.93,-2374.65 -1177.26,-2171.59 -1088.59,-1980.69 -999.918,-1801.2 -911.246,-1632.47 -822.575,-1473.86 -733.904,-1324.79 -645.232,-1184.68 -556.561,-1053 -467.89,-929.231 -379.218,-812.892 -290.547,-703.527 -201.876,-600.708 -113.204,-503.798 -24.5328,-412.268 64.1385,-326.134 152.81,-245.339 241.481,-169.745 330.153,-99.134 418.824,-33.207 507.495,28.4152 596.167,86.1928 684.838,140.666 773.509,192.643 862.181,245.031 950.852,298.311 1039.52,352.2 1128.19,406.454 1216.87,460.904 1305.54,515.504 1394.21,570.43 1482.88,626.243 1571.55,683.437 1660.22,740.778 1748.89,797.477 1837.57,858.959 1926.24,911.759 2014.91,1010.4 2103.58,1010.4 2192.25,1010.4 2280.92,1010.4 2369.59,1010.4 2458.27,1010.4 2546.94,1010.4 2635.61,1010.4 2724.28,1010.4 2812.95,1010.4 "/>
<circle clip-path="url(#clip553)" cx="2014.91" cy="1010.4" r="14.4" fill="#ff0000" fill-rule="evenodd" fill-opacity="1" stroke="#000000" stroke-opacity="1" stroke-width="3.2"/>
</svg>
