<?xml version="1.0" encoding="utf-8"?>
<svg xmlns="http://www.w3.org/2000/svg" xmlns:xlink="http://www.w3.org/1999/xlink" width="600" height="400" viewBox="0 0 2400 1600">
<defs>
  <clipPath id="clip420">
    <rect x="0" y="0" width="2400" height="1600"/>
  </clipPath>
</defs>
<path clip-path="url(#clip420)" d="M0 1600 L2400 1600 L2400 0 L0 0  Z" fill="#ffffff" fill-rule="evenodd" fill-opacity="1"/>
<defs>
  <clipPath id="clip421">
    <rect x="480" y="0" width="1681" height="1600"/>
  </clipPath>
</defs>
<path clip-path="url(#clip420)" d="M369.958 1423.18 L2352.76 1423.18 L2352.76 47.2441 L369.958 47.2441  Z" fill="#ffffff" fill-rule="evenodd" fill-opacity="1"/>
<defs>
  <clipPath id="clip422">
    <rect x="369" y="47" width="1984" height="1377"/>
  </clipPath>
</defs>
<polyline clip-path="url(#clip422)" style="stroke:#000000; stroke-linecap:round; stroke-linejoin:round; stroke-width:2; stroke-opacity:0.1; fill:none" points="426.075,1423.18 426.075,47.2441 "/>
<polyline clip-path="url(#clip422)" style="stroke:#000000; stroke-linecap:round; stroke-linejoin:round; stroke-width:2; stroke-opacity:0.1; fill:none" points="1062.21,1423.18 1062.21,47.2441 "/>
<polyline clip-path="url(#clip422)" style="stroke:#000000; stroke-linecap:round; stroke-linejoin:round; stroke-width:2; stroke-opacity:0.1; fill:none" points="1698.34,1423.18 1698.34,47.2441 "/>
<polyline clip-path="url(#clip422)" style="stroke:#000000; stroke-linecap:round; stroke-linejoin:round; stroke-width:2; stroke-opacity:0.1; fill:none" points="2334.48,1423.18 2334.48,47.2441 "/>
<polyline clip-path="url(#clip422)" style="stroke:#000000; stroke-linecap:round; stroke-linejoin:round; stroke-width:2; stroke-opacity:0.1; fill:none" points="369.958,1194.54 2352.76,1194.54 "/>
<polyline clip-path="url(#clip422)" style="stroke:#000000; stroke-linecap:round; stroke-linejoin:round; stroke-width:2; stroke-opacity:0.1; fill:none" points="369.958,886.613 2352.76,886.613 "/>
<polyline clip-path="url(#clip422)" style="stroke:#000000; stroke-linecap:round; stroke-linejoin:round; stroke-width:2; stroke-opacity:0.1; fill:none" points="369.958,578.682 2352.76,578.682 "/>
<polyline clip-path="url(#clip422)" style="stroke:#000000; stroke-linecap:round; stroke-linejoin:round; stroke-width:2; stroke-opacity:0.1; fill:none" points="369.958,270.752 2352.76,270.752 "/>
<polyline clip-path="url(#clip420)" style="stroke:#000000; stroke-linecap:round; stroke-linejoin:round; stroke-width:4; stroke-opacity:1; fill:none" points="369.958,1423.18 2352.76,1423.18 "/>
<polyline clip-path="url(#clip420)" style="stroke:#000000; stroke-linecap:round; stroke-linejoin:round; stroke-width:4; stroke-opacity:1; fill:none" points="426.075,1423.18 426.075,1404.28 "/>
<polyline clip-path="url(#clip420)" style="stroke:#000000; stroke-linecap:round; stroke-linejoin:round; stroke-width:4; stroke-opacity:1; fill:none" points="1062.21,1423.18 1062.21,1404.28 "/>
<polyline clip-path="url(#clip420)" style="stroke:#000000; stroke-linecap:round; stroke-linejoin:round; stroke-width:4; stroke-opacity:1; fill:none" points="1698.34,1423.18 1698.34,1404.28 "/>
<polyline clip-path="url(#clip420)" style="stroke:#000000; stroke-linecap:round; stroke-linejoin:round; stroke-width:4; stroke-opacity:1; fill:none" points="2334.48,1423.18 2334.48,1404.28 "/>
<path clip-path="url(#clip420)" d="M426.075 1454.1 Q422.464 1454.1 420.635 1457.66 Q418.83 1461.2 418.83 1468.33 Q418.83 1475.44 420.635 1479.01 Q422.464 1482.55 426.075 1482.55 Q429.709 1482.55 431.515 1479.01 Q433.343 1475.44 433.343 1468.33 Q433.343 1461.2 431.515 1457.66 Q429.709 1454.1 426.075 1454.1 M426.075 1450.39 Q431.885 1450.39 434.941 1455 Q438.019 1459.58 438.019 1468.33 Q438.019 1477.06 434.941 1481.67 Q431.885 1486.25 426.075 1486.25 Q420.265 1486.25 417.186 1481.67 Q414.131 1477.06 414.131 1468.33 Q414.131 1459.58 417.186 1455 Q420.265 1450.39 426.075 1450.39 Z" fill="#000000" fill-rule="nonzero" fill-opacity="1" /><path clip-path="url(#clip420)" d="M1052.59 1481.64 L1060.23 1481.64 L1060.23 1455.28 L1051.92 1456.95 L1051.92 1452.69 L1060.18 1451.02 L1064.86 1451.02 L1064.86 1481.64 L1072.5 1481.64 L1072.5 1485.58 L1052.59 1485.58 L1052.59 1481.64 Z" fill="#000000" fill-rule="nonzero" fill-opacity="1" /><path clip-path="url(#clip420)" d="M1693 1481.64 L1709.31 1481.64 L1709.31 1485.58 L1687.37 1485.58 L1687.37 1481.64 Q1690.03 1478.89 1694.62 1474.26 Q1699.22 1469.61 1700.4 1468.27 Q1702.65 1465.74 1703.53 1464.01 Q1704.43 1462.25 1704.43 1460.56 Q1704.43 1457.8 1702.49 1456.07 Q1700.56 1454.33 1697.46 1454.33 Q1695.26 1454.33 1692.81 1455.09 Q1690.38 1455.86 1687.6 1457.41 L1687.6 1452.69 Q1690.43 1451.55 1692.88 1450.97 Q1695.33 1450.39 1697.37 1450.39 Q1702.74 1450.39 1705.94 1453.08 Q1709.13 1455.77 1709.13 1460.26 Q1709.13 1462.39 1708.32 1464.31 Q1707.53 1466.2 1705.43 1468.8 Q1704.85 1469.47 1701.75 1472.69 Q1698.64 1475.88 1693 1481.64 Z" fill="#000000" fill-rule="nonzero" fill-opacity="1" /><path clip-path="url(#clip420)" d="M2338.72 1466.95 Q2342.08 1467.66 2343.96 1469.93 Q2345.85 1472.2 2345.85 1475.53 Q2345.85 1480.65 2342.34 1483.45 Q2338.82 1486.25 2332.34 1486.25 Q2330.16 1486.25 2327.84 1485.81 Q2325.55 1485.39 2323.1 1484.54 L2323.1 1480.02 Q2325.04 1481.16 2327.36 1481.74 Q2329.67 1482.32 2332.2 1482.32 Q2336.59 1482.32 2338.89 1480.58 Q2341.2 1478.84 2341.2 1475.53 Q2341.2 1472.48 2339.05 1470.77 Q2336.92 1469.03 2333.1 1469.03 L2329.07 1469.03 L2329.07 1465.19 L2333.28 1465.19 Q2336.73 1465.19 2338.56 1463.82 Q2340.39 1462.43 2340.39 1459.84 Q2340.39 1457.18 2338.49 1455.77 Q2336.62 1454.33 2333.1 1454.33 Q2331.18 1454.33 2328.98 1454.75 Q2326.78 1455.16 2324.14 1456.04 L2324.14 1451.88 Q2326.8 1451.14 2329.12 1450.77 Q2331.46 1450.39 2333.52 1450.39 Q2338.84 1450.39 2341.94 1452.83 Q2345.04 1455.23 2345.04 1459.35 Q2345.04 1462.22 2343.4 1464.21 Q2341.76 1466.18 2338.72 1466.95 Z" fill="#000000" fill-rule="nonzero" fill-opacity="1" /><path clip-path="url(#clip420)" d="M1245.39 1520.52 L1285.59 1520.52 L1285.59 1525.93 L1268.72 1525.93 L1268.72 1568.04 L1262.26 1568.04 L1262.26 1525.93 L1245.39 1525.93 L1245.39 1520.52 Z" fill="#000000" fill-rule="nonzero" fill-opacity="1" /><path clip-path="url(#clip420)" d="M1289.54 1532.4 L1295.39 1532.4 L1295.39 1568.04 L1289.54 1568.04 L1289.54 1532.4 M1289.54 1518.52 L1295.39 1518.52 L1295.39 1525.93 L1289.54 1525.93 L1289.54 1518.52 Z" fill="#000000" fill-rule="nonzero" fill-opacity="1" /><path clip-path="url(#clip420)" d="M1335.4 1539.24 Q1337.6 1535.29 1340.65 1533.41 Q1343.71 1531.54 1347.85 1531.54 Q1353.42 1531.54 1356.44 1535.45 Q1359.46 1539.33 1359.46 1546.53 L1359.46 1568.04 L1353.57 1568.04 L1353.57 1546.72 Q1353.57 1541.59 1351.76 1539.11 Q1349.95 1536.63 1346.22 1536.63 Q1341.67 1536.63 1339.03 1539.65 Q1336.39 1542.68 1336.39 1547.9 L1336.39 1568.04 L1330.5 1568.04 L1330.5 1546.72 Q1330.5 1541.56 1328.68 1539.11 Q1326.87 1536.63 1323.08 1536.63 Q1318.6 1536.63 1315.95 1539.68 Q1313.31 1542.71 1313.31 1547.9 L1313.31 1568.04 L1307.42 1568.04 L1307.42 1532.4 L1313.31 1532.4 L1313.31 1537.93 Q1315.32 1534.66 1318.12 1533.1 Q1320.92 1531.54 1324.77 1531.54 Q1328.65 1531.54 1331.36 1533.51 Q1334.1 1535.48 1335.4 1539.24 Z" fill="#000000" fill-rule="nonzero" fill-opacity="1" /><path clip-path="url(#clip420)" d="M1401.64 1548.76 L1401.64 1551.62 L1374.71 1551.62 Q1375.09 1557.67 1378.34 1560.85 Q1381.62 1564 1387.44 1564 Q1390.81 1564 1393.97 1563.17 Q1397.15 1562.35 1400.27 1560.69 L1400.27 1566.23 Q1397.12 1567.57 1393.81 1568.27 Q1390.5 1568.97 1387.09 1568.97 Q1378.56 1568.97 1373.56 1564 Q1368.6 1559.04 1368.6 1550.57 Q1368.6 1541.82 1373.31 1536.69 Q1378.05 1531.54 1386.07 1531.54 Q1393.27 1531.54 1397.43 1536.18 Q1401.64 1540.8 1401.64 1548.76 M1395.78 1547.04 Q1395.72 1542.23 1393.07 1539.37 Q1390.46 1536.5 1386.14 1536.5 Q1381.23 1536.5 1378.27 1539.27 Q1375.35 1542.04 1374.9 1547.07 L1395.78 1547.04 Z" fill="#000000" fill-rule="nonzero" fill-opacity="1" /><path clip-path="url(#clip420)" d="M1412.74 1559.96 L1419.46 1559.96 L1419.46 1565.43 L1414.24 1575.62 L1410.13 1575.62 L1412.74 1565.43 L1412.74 1559.96 Z" fill="#000000" fill-rule="nonzero" fill-opacity="1" /><path clip-path="url(#clip420)" d="M1475.41 1533.45 L1475.41 1538.98 Q1472.93 1537.71 1470.26 1537.07 Q1467.58 1536.44 1464.72 1536.44 Q1460.36 1536.44 1458.16 1537.77 Q1456 1539.11 1456 1541.79 Q1456 1543.82 1457.56 1545 Q1459.12 1546.15 1463.83 1547.2 L1465.83 1547.64 Q1472.07 1548.98 1474.68 1551.43 Q1477.32 1553.85 1477.32 1558.21 Q1477.32 1563.17 1473.38 1566.07 Q1469.46 1568.97 1462.59 1568.97 Q1459.72 1568.97 1456.6 1568.39 Q1453.52 1567.85 1450.08 1566.74 L1450.08 1560.69 Q1453.33 1562.38 1456.48 1563.24 Q1459.63 1564.07 1462.71 1564.07 Q1466.85 1564.07 1469.08 1562.66 Q1471.31 1561.23 1471.31 1558.65 Q1471.31 1556.27 1469.69 1554.99 Q1468.09 1553.72 1462.65 1552.54 L1460.61 1552.07 Q1455.17 1550.92 1452.75 1548.56 Q1450.33 1546.18 1450.33 1542.04 Q1450.33 1537.01 1453.9 1534.27 Q1457.46 1531.54 1464.02 1531.54 Q1467.27 1531.54 1470.13 1532.01 Q1473 1532.49 1475.41 1533.45 Z" fill="#000000" fill-rule="nonzero" fill-opacity="1" /><polyline clip-path="url(#clip420)" style="stroke:#000000; stroke-linecap:round; stroke-linejoin:round; stroke-width:4; stroke-opacity:1; fill:none" points="369.958,1423.18 369.958,47.2441 "/>
<polyline clip-path="url(#clip420)" style="stroke:#000000; stroke-linecap:round; stroke-linejoin:round; stroke-width:4; stroke-opacity:1; fill:none" points="369.958,1194.54 388.856,1194.54 "/>
<polyline clip-path="url(#clip420)" style="stroke:#000000; stroke-linecap:round; stroke-linejoin:round; stroke-width:4; stroke-opacity:1; fill:none" points="369.958,886.613 388.856,886.613 "/>
<polyline clip-path="url(#clip420)" style="stroke:#000000; stroke-linecap:round; stroke-linejoin:round; stroke-width:4; stroke-opacity:1; fill:none" points="369.958,578.682 388.856,578.682 "/>
<polyline clip-path="url(#clip420)" style="stroke:#000000; stroke-linecap:round; stroke-linejoin:round; stroke-width:4; stroke-opacity:1; fill:none" points="369.958,270.752 388.856,270.752 "/>
<path clip-path="url(#clip420)" d="M126.112 1201.86 Q122.779 1201.86 120.857 1203.64 Q118.959 1205.42 118.959 1208.55 Q118.959 1211.67 120.857 1213.46 Q122.779 1215.24 126.112 1215.24 Q129.445 1215.24 131.367 1213.46 Q133.288 1211.65 133.288 1208.55 Q133.288 1205.42 131.367 1203.64 Q129.468 1201.86 126.112 1201.86 M121.436 1199.87 Q118.427 1199.13 116.737 1197.07 Q115.07 1195.01 115.07 1192.04 Q115.07 1187.9 118.01 1185.49 Q120.973 1183.09 126.112 1183.09 Q131.274 1183.09 134.214 1185.49 Q137.154 1187.9 137.154 1192.04 Q137.154 1195.01 135.464 1197.07 Q133.797 1199.13 130.811 1199.87 Q134.191 1200.66 136.066 1202.95 Q137.964 1205.24 137.964 1208.55 Q137.964 1213.57 134.885 1216.26 Q131.83 1218.94 126.112 1218.94 Q120.394 1218.94 117.316 1216.26 Q114.26 1213.57 114.26 1208.55 Q114.26 1205.24 116.158 1202.95 Q118.056 1200.66 121.436 1199.87 M119.723 1192.48 Q119.723 1195.17 121.39 1196.67 Q123.08 1198.18 126.112 1198.18 Q129.121 1198.18 130.811 1196.67 Q132.524 1195.17 132.524 1192.48 Q132.524 1189.8 130.811 1188.29 Q129.121 1186.79 126.112 1186.79 Q123.08 1186.79 121.39 1188.29 Q119.723 1189.8 119.723 1192.48 Z" fill="#000000" fill-rule="nonzero" fill-opacity="1" /><path clip-path="url(#clip420)" d="M146.274 1212.39 L151.158 1212.39 L151.158 1218.27 L146.274 1218.27 L146.274 1212.39 Z" fill="#000000" fill-rule="nonzero" fill-opacity="1" /><path clip-path="url(#clip420)" d="M171.343 1186.79 Q167.732 1186.79 165.903 1190.36 Q164.098 1193.9 164.098 1201.03 Q164.098 1208.13 165.903 1211.7 Q167.732 1215.24 171.343 1215.24 Q174.977 1215.24 176.783 1211.7 Q178.612 1208.13 178.612 1201.03 Q178.612 1193.9 176.783 1190.36 Q174.977 1186.79 171.343 1186.79 M171.343 1183.09 Q177.153 1183.09 180.209 1187.69 Q183.288 1192.28 183.288 1201.03 Q183.288 1209.75 180.209 1214.36 Q177.153 1218.94 171.343 1218.94 Q165.533 1218.94 162.454 1214.36 Q159.399 1209.75 159.399 1201.03 Q159.399 1192.28 162.454 1187.69 Q165.533 1183.09 171.343 1183.09 Z" fill="#000000" fill-rule="nonzero" fill-opacity="1" /><path clip-path="url(#clip420)" d="M201.505 1186.79 Q197.894 1186.79 196.065 1190.36 Q194.26 1193.9 194.26 1201.03 Q194.26 1208.13 196.065 1211.7 Q197.894 1215.24 201.505 1215.24 Q205.139 1215.24 206.945 1211.7 Q208.774 1208.13 208.774 1201.03 Q208.774 1193.9 206.945 1190.36 Q205.139 1186.79 201.505 1186.79 M201.505 1183.09 Q207.315 1183.09 210.371 1187.69 Q213.449 1192.28 213.449 1201.03 Q213.449 1209.75 210.371 1214.36 Q207.315 1218.94 201.505 1218.94 Q195.695 1218.94 192.616 1214.36 Q189.561 1209.75 189.561 1201.03 Q189.561 1192.28 192.616 1187.69 Q195.695 1183.09 201.505 1183.09 Z" fill="#000000" fill-rule="nonzero" fill-opacity="1" /><path clip-path="url(#clip420)" d="M249.838 1192.81 L239.259 1203.43 L249.838 1214.01 L247.084 1216.81 L236.459 1206.19 L225.834 1216.81 L223.102 1214.01 L233.658 1203.43 L223.102 1192.81 L225.834 1190.01 L236.459 1200.63 L247.084 1190.01 L249.838 1192.81 Z" fill="#000000" fill-rule="nonzero" fill-opacity="1" /><path clip-path="url(#clip420)" d="M262.199 1214.34 L269.838 1214.34 L269.838 1187.97 L261.528 1189.64 L261.528 1185.38 L269.792 1183.71 L274.468 1183.71 L274.468 1214.34 L282.106 1214.34 L282.106 1218.27 L262.199 1218.27 L262.199 1214.34 Z" fill="#000000" fill-rule="nonzero" fill-opacity="1" /><path clip-path="url(#clip420)" d="M301.551 1186.79 Q297.94 1186.79 296.111 1190.36 Q294.305 1193.9 294.305 1201.03 Q294.305 1208.13 296.111 1211.7 Q297.94 1215.24 301.551 1215.24 Q305.185 1215.24 306.991 1211.7 Q308.819 1208.13 308.819 1201.03 Q308.819 1193.9 306.991 1190.36 Q305.185 1186.79 301.551 1186.79 M301.551 1183.09 Q307.361 1183.09 310.417 1187.69 Q313.495 1192.28 313.495 1201.03 Q313.495 1209.75 310.417 1214.36 Q307.361 1218.94 301.551 1218.94 Q295.741 1218.94 292.662 1214.36 Q289.606 1209.75 289.606 1201.03 Q289.606 1192.28 292.662 1187.69 Q295.741 1183.09 301.551 1183.09 Z" fill="#000000" fill-rule="nonzero" fill-opacity="1" /><path clip-path="url(#clip420)" d="M326.172 1166.09 L316.58 1181.08 L326.172 1181.08 L326.172 1166.09 M325.175 1162.78 L329.952 1162.78 L329.952 1181.08 L333.958 1181.08 L333.958 1184.24 L329.952 1184.24 L329.952 1190.86 L326.172 1190.86 L326.172 1184.24 L313.495 1184.24 L313.495 1180.57 L325.175 1162.78 Z" fill="#000000" fill-rule="nonzero" fill-opacity="1" /><path clip-path="url(#clip420)" d="M119.217 906.406 L126.856 906.406 L126.856 880.04 L118.545 881.707 L118.545 877.448 L126.809 875.781 L131.485 875.781 L131.485 906.406 L139.124 906.406 L139.124 910.341 L119.217 910.341 L119.217 906.406 Z" fill="#000000" fill-rule="nonzero" fill-opacity="1" /><path clip-path="url(#clip420)" d="M148.568 904.461 L153.453 904.461 L153.453 910.341 L148.568 910.341 L148.568 904.461 Z" fill="#000000" fill-rule="nonzero" fill-opacity="1" /><path clip-path="url(#clip420)" d="M173.638 878.86 Q170.027 878.86 168.198 882.424 Q166.392 885.966 166.392 893.096 Q166.392 900.202 168.198 903.767 Q170.027 907.308 173.638 907.308 Q177.272 907.308 179.078 903.767 Q180.906 900.202 180.906 893.096 Q180.906 885.966 179.078 882.424 Q177.272 878.86 173.638 878.86 M173.638 875.156 Q179.448 875.156 182.503 879.762 Q185.582 884.346 185.582 893.096 Q185.582 901.822 182.503 906.429 Q179.448 911.012 173.638 911.012 Q167.828 911.012 164.749 906.429 Q161.693 901.822 161.693 893.096 Q161.693 884.346 164.749 879.762 Q167.828 875.156 173.638 875.156 Z" fill="#000000" fill-rule="nonzero" fill-opacity="1" /><path clip-path="url(#clip420)" d="M203.8 878.86 Q200.189 878.86 198.36 882.424 Q196.554 885.966 196.554 893.096 Q196.554 900.202 198.36 903.767 Q200.189 907.308 203.8 907.308 Q207.434 907.308 209.239 903.767 Q211.068 900.202 211.068 893.096 Q211.068 885.966 209.239 882.424 Q207.434 878.86 203.8 878.86 M203.8 875.156 Q209.61 875.156 212.665 879.762 Q215.744 884.346 215.744 893.096 Q215.744 901.822 212.665 906.429 Q209.61 911.012 203.8 911.012 Q197.989 911.012 194.911 906.429 Q191.855 901.822 191.855 893.096 Q191.855 884.346 194.911 879.762 Q197.989 875.156 203.8 875.156 Z" fill="#000000" fill-rule="nonzero" fill-opacity="1" /><path clip-path="url(#clip420)" d="M252.133 884.878 L241.554 895.503 L252.133 906.082 L249.378 908.883 L238.753 898.258 L228.128 908.883 L225.397 906.082 L235.952 895.503 L225.397 884.878 L228.128 882.077 L238.753 892.702 L249.378 882.077 L252.133 884.878 Z" fill="#000000" fill-rule="nonzero" fill-opacity="1" /><path clip-path="url(#clip420)" d="M264.494 906.406 L272.133 906.406 L272.133 880.04 L263.822 881.707 L263.822 877.448 L272.086 875.781 L276.762 875.781 L276.762 906.406 L284.401 906.406 L284.401 910.341 L264.494 910.341 L264.494 906.406 Z" fill="#000000" fill-rule="nonzero" fill-opacity="1" /><path clip-path="url(#clip420)" d="M303.845 878.86 Q300.234 878.86 298.406 882.424 Q296.6 885.966 296.6 893.096 Q296.6 900.202 298.406 903.767 Q300.234 907.308 303.845 907.308 Q307.48 907.308 309.285 903.767 Q311.114 900.202 311.114 893.096 Q311.114 885.966 309.285 882.424 Q307.48 878.86 303.845 878.86 M303.845 875.156 Q309.656 875.156 312.711 879.762 Q315.79 884.346 315.79 893.096 Q315.79 901.822 312.711 906.429 Q309.656 911.012 303.845 911.012 Q298.035 911.012 294.957 906.429 Q291.901 901.822 291.901 893.096 Q291.901 884.346 294.957 879.762 Q298.035 875.156 303.845 875.156 Z" fill="#000000" fill-rule="nonzero" fill-opacity="1" /><path clip-path="url(#clip420)" d="M316.975 854.85 L331.889 854.85 L331.889 858.048 L320.454 858.048 L320.454 864.931 Q321.282 864.649 322.109 864.518 Q322.937 864.367 323.764 864.367 Q328.466 864.367 331.212 866.944 Q333.958 869.521 333.958 873.922 Q333.958 878.454 331.137 880.974 Q328.316 883.476 323.181 883.476 Q321.413 883.476 319.57 883.175 Q317.746 882.874 315.79 882.272 L315.79 878.454 Q317.482 879.376 319.288 879.827 Q321.094 880.279 323.106 880.279 Q326.36 880.279 328.259 878.567 Q330.159 876.856 330.159 873.922 Q330.159 870.988 328.259 869.276 Q326.36 867.565 323.106 867.565 Q321.583 867.565 320.059 867.903 Q318.554 868.242 316.975 868.956 L316.975 854.85 Z" fill="#000000" fill-rule="nonzero" fill-opacity="1" /><path clip-path="url(#clip420)" d="M119.217 598.475 L126.856 598.475 L126.856 572.109 L118.545 573.776 L118.545 569.517 L126.809 567.85 L131.485 567.85 L131.485 598.475 L139.124 598.475 L139.124 602.41 L119.217 602.41 L119.217 598.475 Z" fill="#000000" fill-rule="nonzero" fill-opacity="1" /><path clip-path="url(#clip420)" d="M148.568 596.53 L153.453 596.53 L153.453 602.41 L148.568 602.41 L148.568 596.53 Z" fill="#000000" fill-rule="nonzero" fill-opacity="1" /><path clip-path="url(#clip420)" d="M167.666 598.475 L183.985 598.475 L183.985 602.41 L162.041 602.41 L162.041 598.475 Q164.703 595.72 169.286 591.091 Q173.892 586.438 175.073 585.095 Q177.318 582.572 178.198 580.836 Q179.101 579.077 179.101 577.387 Q179.101 574.632 177.156 572.896 Q175.235 571.16 172.133 571.16 Q169.934 571.16 167.48 571.924 Q165.05 572.688 162.272 574.239 L162.272 569.517 Q165.096 568.382 167.55 567.804 Q170.003 567.225 172.041 567.225 Q177.411 567.225 180.605 569.91 Q183.8 572.595 183.8 577.086 Q183.8 579.216 182.99 581.137 Q182.203 583.035 180.096 585.628 Q179.517 586.299 176.415 589.517 Q173.314 592.711 167.666 598.475 Z" fill="#000000" fill-rule="nonzero" fill-opacity="1" /><path clip-path="url(#clip420)" d="M203.8 570.929 Q200.189 570.929 198.36 574.494 Q196.554 578.035 196.554 585.165 Q196.554 592.271 198.36 595.836 Q200.189 599.378 203.8 599.378 Q207.434 599.378 209.239 595.836 Q211.068 592.271 211.068 585.165 Q211.068 578.035 209.239 574.494 Q207.434 570.929 203.8 570.929 M203.8 567.225 Q209.61 567.225 212.665 571.832 Q215.744 576.415 215.744 585.165 Q215.744 593.892 212.665 598.498 Q209.61 603.081 203.8 603.081 Q197.989 603.081 194.911 598.498 Q191.855 593.892 191.855 585.165 Q191.855 576.415 194.911 571.832 Q197.989 567.225 203.8 567.225 Z" fill="#000000" fill-rule="nonzero" fill-opacity="1" /><path clip-path="url(#clip420)" d="M252.133 576.947 L241.554 587.572 L252.133 598.151 L249.378 600.952 L238.753 590.327 L228.128 600.952 L225.397 598.151 L235.952 587.572 L225.397 576.947 L228.128 574.146 L238.753 584.771 L249.378 574.146 L252.133 576.947 Z" fill="#000000" fill-rule="nonzero" fill-opacity="1" /><path clip-path="url(#clip420)" d="M264.494 598.475 L272.133 598.475 L272.133 572.109 L263.822 573.776 L263.822 569.517 L272.086 567.85 L276.762 567.85 L276.762 598.475 L284.401 598.475 L284.401 602.41 L264.494 602.41 L264.494 598.475 Z" fill="#000000" fill-rule="nonzero" fill-opacity="1" /><path clip-path="url(#clip420)" d="M303.845 570.929 Q300.234 570.929 298.406 574.494 Q296.6 578.035 296.6 585.165 Q296.6 592.271 298.406 595.836 Q300.234 599.378 303.845 599.378 Q307.48 599.378 309.285 595.836 Q311.114 592.271 311.114 585.165 Q311.114 578.035 309.285 574.494 Q307.48 570.929 303.845 570.929 M303.845 567.225 Q309.656 567.225 312.711 571.832 Q315.79 576.415 315.79 585.165 Q315.79 593.892 312.711 598.498 Q309.656 603.081 303.845 603.081 Q298.035 603.081 294.957 598.498 Q291.901 593.892 291.901 585.165 Q291.901 576.415 294.957 571.832 Q298.035 567.225 303.845 567.225 Z" fill="#000000" fill-rule="nonzero" fill-opacity="1" /><path clip-path="url(#clip420)" d="M316.975 546.92 L331.889 546.92 L331.889 550.117 L320.454 550.117 L320.454 557.001 Q321.282 556.719 322.109 556.587 Q322.937 556.436 323.764 556.436 Q328.466 556.436 331.212 559.013 Q333.958 561.59 333.958 565.991 Q333.958 570.523 331.137 573.044 Q328.316 575.545 323.181 575.545 Q321.413 575.545 319.57 575.244 Q317.746 574.943 315.79 574.341 L315.79 570.523 Q317.482 571.445 319.288 571.896 Q321.094 572.348 323.106 572.348 Q326.36 572.348 328.259 570.636 Q330.159 568.925 330.159 565.991 Q330.159 563.057 328.259 561.345 Q326.36 559.634 323.106 559.634 Q321.583 559.634 320.059 559.972 Q318.554 560.311 316.975 561.025 L316.975 546.92 Z" fill="#000000" fill-rule="nonzero" fill-opacity="1" /><path clip-path="url(#clip420)" d="M119.217 290.544 L126.856 290.544 L126.856 264.179 L118.545 265.845 L118.545 261.586 L126.809 259.919 L131.485 259.919 L131.485 290.544 L139.124 290.544 L139.124 294.479 L119.217 294.479 L119.217 290.544 Z" fill="#000000" fill-rule="nonzero" fill-opacity="1" /><path clip-path="url(#clip420)" d="M148.568 288.6 L153.453 288.6 L153.453 294.479 L148.568 294.479 L148.568 288.6 Z" fill="#000000" fill-rule="nonzero" fill-opacity="1" /><path clip-path="url(#clip420)" d="M176.485 263.993 L164.679 282.442 L176.485 282.442 L176.485 263.993 M175.258 259.919 L181.138 259.919 L181.138 282.442 L186.068 282.442 L186.068 286.331 L181.138 286.331 L181.138 294.479 L176.485 294.479 L176.485 286.331 L160.883 286.331 L160.883 281.817 L175.258 259.919 Z" fill="#000000" fill-rule="nonzero" fill-opacity="1" /><path clip-path="url(#clip420)" d="M203.8 262.998 Q200.189 262.998 198.36 266.563 Q196.554 270.104 196.554 277.234 Q196.554 284.34 198.36 287.905 Q200.189 291.447 203.8 291.447 Q207.434 291.447 209.239 287.905 Q211.068 284.34 211.068 277.234 Q211.068 270.104 209.239 266.563 Q207.434 262.998 203.8 262.998 M203.8 259.294 Q209.61 259.294 212.665 263.901 Q215.744 268.484 215.744 277.234 Q215.744 285.961 212.665 290.567 Q209.61 295.151 203.8 295.151 Q197.989 295.151 194.911 290.567 Q191.855 285.961 191.855 277.234 Q191.855 268.484 194.911 263.901 Q197.989 259.294 203.8 259.294 Z" fill="#000000" fill-rule="nonzero" fill-opacity="1" /><path clip-path="url(#clip420)" d="M252.133 269.016 L241.554 279.641 L252.133 290.22 L249.378 293.021 L238.753 282.396 L228.128 293.021 L225.397 290.22 L235.952 279.641 L225.397 269.016 L228.128 266.216 L238.753 276.84 L249.378 266.216 L252.133 269.016 Z" fill="#000000" fill-rule="nonzero" fill-opacity="1" /><path clip-path="url(#clip420)" d="M264.494 290.544 L272.133 290.544 L272.133 264.179 L263.822 265.845 L263.822 261.586 L272.086 259.919 L276.762 259.919 L276.762 290.544 L284.401 290.544 L284.401 294.479 L264.494 294.479 L264.494 290.544 Z" fill="#000000" fill-rule="nonzero" fill-opacity="1" /><path clip-path="url(#clip420)" d="M303.845 262.998 Q300.234 262.998 298.406 266.563 Q296.6 270.104 296.6 277.234 Q296.6 284.34 298.406 287.905 Q300.234 291.447 303.845 291.447 Q307.48 291.447 309.285 287.905 Q311.114 284.34 311.114 277.234 Q311.114 270.104 309.285 266.563 Q307.48 262.998 303.845 262.998 M303.845 259.294 Q309.656 259.294 312.711 263.901 Q315.79 268.484 315.79 277.234 Q315.79 285.961 312.711 290.567 Q309.656 295.151 303.845 295.151 Q298.035 295.151 294.957 290.567 Q291.901 285.961 291.901 277.234 Q291.901 268.484 294.957 263.901 Q298.035 259.294 303.845 259.294 Z" fill="#000000" fill-rule="nonzero" fill-opacity="1" /><path clip-path="url(#clip420)" d="M316.975 238.989 L331.889 238.989 L331.889 242.186 L320.454 242.186 L320.454 249.07 Q321.282 248.788 322.109 248.656 Q322.937 248.506 323.764 248.506 Q328.466 248.506 331.212 251.082 Q333.958 253.659 333.958 258.06 Q333.958 262.593 331.137 265.113 Q328.316 267.614 323.181 267.614 Q321.413 267.614 319.57 267.313 Q317.746 267.012 315.79 266.411 L315.79 262.593 Q317.482 263.514 319.288 263.966 Q321.094 264.417 323.106 264.417 Q326.36 264.417 328.259 262.705 Q330.159 260.994 330.159 258.06 Q330.159 255.126 328.259 253.414 Q326.36 251.703 323.106 251.703 Q321.583 251.703 320.059 252.041 Q318.554 252.38 316.975 253.095 L316.975 238.989 Z" fill="#000000" fill-rule="nonzero" fill-opacity="1" /><path clip-path="url(#clip420)" d="M64.0042 1026.76 L16.4842 1044.9 L16.4842 1038.19 L56.4926 1023.13 L16.4842 1008.05 L16.4842 1001.36 L64.0042 1019.47 L64.0042 1026.76 Z" fill="#000000" fill-rule="nonzero" fill-opacity="1" /><path clip-path="url(#clip420)" d="M44.7161 969.247 L47.5806 969.247 L47.5806 996.174 Q53.6281 995.792 56.8109 992.546 Q59.9619 989.267 59.9619 983.443 Q59.9619 980.069 59.1344 976.918 Q58.3069 973.735 56.6518 970.616 L62.1899 970.616 Q63.5267 973.767 64.227 977.077 Q64.9272 980.387 64.9272 983.793 Q64.9272 992.323 59.9619 997.32 Q54.9967 1002.29 46.5303 1002.29 Q37.7774 1002.29 32.6531 997.575 Q27.4968 992.832 27.4968 984.811 Q27.4968 977.618 32.1438 973.449 Q36.7589 969.247 44.7161 969.247 M42.9973 975.104 Q38.1912 975.167 35.3266 977.809 Q32.4621 980.419 32.4621 984.748 Q32.4621 989.649 35.2312 992.609 Q38.0002 995.538 43.0292 995.983 L42.9973 975.104 Z" fill="#000000" fill-rule="nonzero" fill-opacity="1" /><path clip-path="url(#clip420)" d="M29.4065 936.909 L34.9447 936.909 Q33.6716 939.392 33.035 942.066 Q32.3984 944.739 32.3984 947.604 Q32.3984 951.964 33.7352 954.16 Q35.072 956.325 37.7456 956.325 Q39.7826 956.325 40.9603 954.765 Q42.1061 953.206 43.1565 948.495 L43.6021 946.49 Q44.9389 940.251 47.3897 937.641 Q49.8086 935 54.1691 935 Q59.1344 935 62.0308 938.946 Q64.9272 942.861 64.9272 949.736 Q64.9272 952.601 64.3543 955.72 Q63.8132 958.807 62.6992 962.245 L56.6518 962.245 Q58.3387 958.998 59.198 955.847 Q60.0256 952.696 60.0256 949.609 Q60.0256 945.471 58.6251 943.243 Q57.1929 941.015 54.6147 941.015 Q52.2276 941.015 50.9545 942.639 Q49.6813 944.23 48.5037 949.673 L48.0262 951.71 Q46.8804 957.152 44.5251 959.571 Q42.138 961.99 38.0002 961.99 Q32.9713 961.99 30.2341 958.425 Q27.4968 954.861 27.4968 948.304 Q27.4968 945.057 27.9743 942.193 Q28.4517 939.328 29.4065 936.909 Z" fill="#000000" fill-rule="nonzero" fill-opacity="1" /><path clip-path="url(#clip420)" d="M29.4065 902.948 L34.9447 902.948 Q33.6716 905.431 33.035 908.105 Q32.3984 910.778 32.3984 913.643 Q32.3984 918.003 33.7352 920.199 Q35.072 922.364 37.7456 922.364 Q39.7826 922.364 40.9603 920.804 Q42.1061 919.245 43.1565 914.534 L43.6021 912.529 Q44.9389 906.29 47.3897 903.68 Q49.8086 901.039 54.1691 901.039 Q59.1344 901.039 62.0308 904.985 Q64.9272 908.9 64.9272 915.775 Q64.9272 918.64 64.3543 921.759 Q63.8132 924.846 62.6992 928.284 L56.6518 928.284 Q58.3387 925.037 59.198 921.886 Q60.0256 918.735 60.0256 915.648 Q60.0256 911.51 58.6251 909.282 Q57.1929 907.054 54.6147 907.054 Q52.2276 907.054 50.9545 908.677 Q49.6813 910.269 48.5037 915.712 L48.0262 917.749 Q46.8804 923.191 44.5251 925.61 Q42.138 928.029 38.0002 928.029 Q32.9713 928.029 30.2341 924.464 Q27.4968 920.9 27.4968 914.343 Q27.4968 911.096 27.9743 908.232 Q28.4517 905.367 29.4065 902.948 Z" fill="#000000" fill-rule="nonzero" fill-opacity="1" /><path clip-path="url(#clip420)" d="M44.7161 861.221 L47.5806 861.221 L47.5806 888.148 Q53.6281 887.766 56.8109 884.52 Q59.9619 881.241 59.9619 875.417 Q59.9619 872.043 59.1344 868.892 Q58.3069 865.709 56.6518 862.59 L62.1899 862.59 Q63.5267 865.741 64.227 869.051 Q64.9272 872.361 64.9272 875.767 Q64.9272 884.297 59.9619 889.294 Q54.9967 894.259 46.5303 894.259 Q37.7774 894.259 32.6531 889.549 Q27.4968 884.806 27.4968 876.785 Q27.4968 869.592 32.1438 865.422 Q36.7589 861.221 44.7161 861.221 M42.9973 867.078 Q38.1912 867.141 35.3266 869.783 Q32.4621 872.393 32.4621 876.722 Q32.4621 881.623 35.2312 884.583 Q38.0002 887.511 43.0292 887.957 L42.9973 867.078 Z" fill="#000000" fill-rule="nonzero" fill-opacity="1" /><path clip-path="url(#clip420)" d="M14.479 851.609 L14.479 845.752 L64.0042 845.752 L64.0042 851.609 L14.479 851.609 Z" fill="#000000" fill-rule="nonzero" fill-opacity="1" /><path clip-path="url(#clip420)" d="M58.657 807.113 L77.5631 807.113 L77.5631 813.001 L28.3562 813.001 L28.3562 807.113 L33.7671 807.113 Q30.5842 805.267 29.0564 802.466 Q27.4968 799.633 27.4968 795.718 Q27.4968 789.225 32.6531 785.183 Q37.8093 781.109 46.212 781.109 Q54.6147 781.109 59.771 785.183 Q64.9272 789.225 64.9272 795.718 Q64.9272 799.633 63.3994 802.466 Q61.8398 805.267 58.657 807.113 M46.212 787.188 Q39.7508 787.188 36.0905 789.862 Q32.3984 792.503 32.3984 797.15 Q32.3984 801.797 36.0905 804.471 Q39.7508 807.113 46.212 807.113 Q52.6732 807.113 56.3653 804.471 Q60.0256 801.797 60.0256 797.15 Q60.0256 792.503 56.3653 789.862 Q52.6732 787.188 46.212 787.188 Z" fill="#000000" fill-rule="nonzero" fill-opacity="1" /><path clip-path="url(#clip420)" d="M33.8307 750.744 Q33.2578 751.731 33.0032 752.909 Q32.7167 754.054 32.7167 755.455 Q32.7167 760.42 35.9632 763.094 Q39.1779 765.736 45.2253 765.736 L64.0042 765.736 L64.0042 771.624 L28.3562 771.624 L28.3562 765.736 L33.8944 765.736 Q30.6479 763.889 29.0883 760.929 Q27.4968 757.969 27.4968 753.736 Q27.4968 753.131 27.5923 752.399 Q27.656 751.667 27.8151 750.776 L33.8307 750.744 Z" fill="#000000" fill-rule="nonzero" fill-opacity="1" /><path clip-path="url(#clip420)" d="M44.7161 715.542 L47.5806 715.542 L47.5806 742.469 Q53.6281 742.087 56.8109 738.84 Q59.9619 735.562 59.9619 729.737 Q59.9619 726.364 59.1344 723.213 Q58.3069 720.03 56.6518 716.911 L62.1899 716.911 Q63.5267 720.062 64.227 723.372 Q64.9272 726.682 64.9272 730.088 Q64.9272 738.618 59.9619 743.615 Q54.9967 748.58 46.5303 748.58 Q37.7774 748.58 32.6531 743.869 Q27.4968 739.127 27.4968 731.106 Q27.4968 723.913 32.1438 719.743 Q36.7589 715.542 44.7161 715.542 M42.9973 721.398 Q38.1912 721.462 35.3266 724.104 Q32.4621 726.714 32.4621 731.042 Q32.4621 735.944 35.2312 738.904 Q38.0002 741.832 43.0292 742.278 L42.9973 721.398 Z" fill="#000000" fill-rule="nonzero" fill-opacity="1" /><path clip-path="url(#clip420)" d="M29.4065 683.204 L34.9447 683.204 Q33.6716 685.687 33.035 688.36 Q32.3984 691.034 32.3984 693.899 Q32.3984 698.259 33.7352 700.455 Q35.072 702.62 37.7456 702.62 Q39.7826 702.62 40.9603 701.06 Q42.1061 699.5 43.1565 694.79 L43.6021 692.785 Q44.9389 686.546 47.3897 683.936 Q49.8086 681.294 54.1691 681.294 Q59.1344 681.294 62.0308 685.241 Q64.9272 689.156 64.9272 696.031 Q64.9272 698.896 64.3543 702.015 Q63.8132 705.102 62.6992 708.54 L56.6518 708.54 Q58.3387 705.293 59.198 702.142 Q60.0256 698.991 60.0256 695.904 Q60.0256 691.766 58.6251 689.538 Q57.1929 687.31 54.6147 687.31 Q52.2276 687.31 50.9545 688.933 Q49.6813 690.525 48.5037 695.967 L48.0262 698.004 Q46.8804 703.447 44.5251 705.866 Q42.138 708.285 38.0002 708.285 Q32.9713 708.285 30.2341 704.72 Q27.4968 701.155 27.4968 694.599 Q27.4968 691.352 27.9743 688.488 Q28.4517 685.623 29.4065 683.204 Z" fill="#000000" fill-rule="nonzero" fill-opacity="1" /><path clip-path="url(#clip420)" d="M29.4065 649.243 L34.9447 649.243 Q33.6716 651.726 33.035 654.399 Q32.3984 657.073 32.3984 659.937 Q32.3984 664.298 33.7352 666.494 Q35.072 668.659 37.7456 668.659 Q39.7826 668.659 40.9603 667.099 Q42.1061 665.539 43.1565 660.829 L43.6021 658.823 Q44.9389 652.585 47.3897 649.975 Q49.8086 647.333 54.1691 647.333 Q59.1344 647.333 62.0308 651.28 Q64.9272 655.195 64.9272 662.07 Q64.9272 664.935 64.3543 668.054 Q63.8132 671.141 62.6992 674.579 L56.6518 674.579 Q58.3387 671.332 59.198 668.181 Q60.0256 665.03 60.0256 661.943 Q60.0256 657.805 58.6251 655.577 Q57.1929 653.349 54.6147 653.349 Q52.2276 653.349 50.9545 654.972 Q49.6813 656.564 48.5037 662.006 L48.0262 664.043 Q46.8804 669.486 44.5251 671.905 Q42.138 674.324 38.0002 674.324 Q32.9713 674.324 30.2341 670.759 Q27.4968 667.194 27.4968 660.638 Q27.4968 657.391 27.9743 654.527 Q28.4517 651.662 29.4065 649.243 Z" fill="#000000" fill-rule="nonzero" fill-opacity="1" /><path clip-path="url(#clip420)" d="M49.9359 638.612 L28.3562 638.612 L28.3562 632.756 L49.7131 632.756 Q54.7739 632.756 57.3202 630.783 Q59.8346 628.809 59.8346 624.862 Q59.8346 620.12 56.8109 617.383 Q53.7872 614.614 48.5673 614.614 L28.3562 614.614 L28.3562 608.757 L64.0042 608.757 L64.0042 614.614 L58.5296 614.614 Q61.7762 616.746 63.3676 619.579 Q64.9272 622.38 64.9272 626.104 Q64.9272 632.247 61.1078 635.43 Q57.2883 638.612 49.9359 638.612 M27.4968 623.876 L27.4968 623.876 Z" fill="#000000" fill-rule="nonzero" fill-opacity="1" /><path clip-path="url(#clip420)" d="M33.8307 576.037 Q33.2578 577.024 33.0032 578.202 Q32.7167 579.348 32.7167 580.748 Q32.7167 585.713 35.9632 588.387 Q39.1779 591.029 45.2253 591.029 L64.0042 591.029 L64.0042 596.917 L28.3562 596.917 L28.3562 591.029 L33.8944 591.029 Q30.6479 589.183 29.0883 586.223 Q27.4968 583.263 27.4968 579.029 Q27.4968 578.425 27.5923 577.693 Q27.656 576.961 27.8151 576.069 L33.8307 576.037 Z" fill="#000000" fill-rule="nonzero" fill-opacity="1" /><path clip-path="url(#clip420)" d="M44.7161 540.835 L47.5806 540.835 L47.5806 567.762 Q53.6281 567.38 56.8109 564.134 Q59.9619 560.855 59.9619 555.031 Q59.9619 551.657 59.1344 548.506 Q58.3069 545.323 56.6518 542.204 L62.1899 542.204 Q63.5267 545.355 64.227 548.665 Q64.9272 551.975 64.9272 555.381 Q64.9272 563.911 59.9619 568.908 Q54.9967 573.873 46.5303 573.873 Q37.7774 573.873 32.6531 569.163 Q27.4968 564.42 27.4968 556.399 Q27.4968 549.206 32.1438 545.036 Q36.7589 540.835 44.7161 540.835 M42.9973 546.692 Q38.1912 546.755 35.3266 549.397 Q32.4621 552.007 32.4621 556.336 Q32.4621 561.237 35.2312 564.197 Q38.0002 567.125 43.0292 567.571 L42.9973 546.692 Z" fill="#000000" fill-rule="nonzero" fill-opacity="1" /><path clip-path="url(#clip420)" d="M55.9197 529.727 L55.9197 523.011 L61.3942 523.011 L71.5793 528.231 L71.5793 532.337 L61.3942 529.727 L55.9197 529.727 Z" fill="#000000" fill-rule="nonzero" fill-opacity="1" /><path clip-path="url(#clip420)" d="M21.7677 483.098 L39.6235 483.098 L39.6235 475.014 Q39.6235 470.526 37.3 468.075 Q34.9765 465.624 30.6797 465.624 Q26.4147 465.624 24.0912 468.075 Q21.7677 470.526 21.7677 475.014 L21.7677 483.098 M16.4842 489.528 L16.4842 475.014 Q16.4842 467.025 20.1126 462.951 Q23.7092 458.845 30.6797 458.845 Q37.7138 458.845 41.3104 462.951 Q44.907 467.025 44.907 475.014 L44.907 483.098 L64.0042 483.098 L64.0042 489.528 L16.4842 489.528 Z" fill="#000000" fill-rule="nonzero" fill-opacity="1" /><path clip-path="url(#clip420)" d="M46.0847 437.201 Q46.0847 444.299 47.7079 447.036 Q49.3312 449.774 53.2461 449.774 Q56.3653 449.774 58.2114 447.737 Q60.0256 445.668 60.0256 442.135 Q60.0256 437.265 56.5881 434.337 Q53.1188 431.377 47.3897 431.377 L46.0847 431.377 L46.0847 437.201 M43.6657 425.52 L64.0042 425.52 L64.0042 431.377 L58.5933 431.377 Q61.8398 433.382 63.3994 436.374 Q64.9272 439.366 64.9272 443.694 Q64.9272 449.169 61.8716 452.415 Q58.7843 455.63 53.6281 455.63 Q47.6125 455.63 44.5569 451.62 Q41.5014 447.578 41.5014 439.589 L41.5014 431.377 L40.9285 431.377 Q36.8862 431.377 34.6901 434.05 Q32.4621 436.692 32.4621 441.498 Q32.4621 444.554 33.1941 447.45 Q33.9262 450.347 35.3903 453.02 L29.9795 453.02 Q28.7381 449.806 28.1334 446.782 Q27.4968 443.758 27.4968 440.894 Q27.4968 433.159 31.5072 429.34 Q35.5176 425.52 43.6657 425.52 Z" fill="#000000" fill-rule="nonzero" fill-opacity="1" /><polyline clip-path="url(#clip422)" style="stroke:#0000ff; stroke-linecap:round; stroke-linejoin:round; stroke-width:4; stroke-opacity:1; fill:none" points="426.075,86.1857 444.97,106.357 463.864,126.331 482.759,146.108 501.653,165.691 520.548,185.082 539.442,204.283 558.337,223.296 577.232,242.123 596.126,260.767 615.021,279.23 633.915,297.512 652.81,315.617 671.705,333.546 690.599,351.301 709.494,368.885 728.388,386.298 747.283,403.543 766.178,420.621 785.072,437.535 803.967,454.287 822.861,470.877 841.756,487.307 860.65,503.581 879.545,519.698 898.44,535.661 917.334,551.471 936.229,567.131 955.123,582.641 974.018,598.004 992.913,613.22 1011.81,628.292 1030.7,643.221 1049.6,658.008 1068.49,672.656 1087.39,687.165 1106.28,701.536 1125.17,715.773 1144.07,729.875 1162.96,743.844 1181.86,757.682 1200.75,771.39 1219.65,784.97 1238.54,798.422 1257.44,811.749 1276.33,824.951 1295.23,838.03 1314.12,850.987 1333.02,863.823 1351.91,876.54 1370.8,889.138 1389.7,901.62 1408.59,913.986 1427.49,926.237 1446.38,938.376 1465.28,950.402 1484.17,962.317 1503.07,974.122 1521.96,985.819 1540.86,997.408 1559.75,1008.89 1578.64,1020.27 1597.54,1031.54 1616.43,1042.71 1635.33,1053.78 1654.22,1064.75 1673.12,1075.61 1692.01,1086.38 1710.91,1097.05 1729.8,1107.62 1748.7,1118.1 1767.59,1128.48 1786.49,1138.77 1805.38,1148.96 1824.27,1159.06 1843.17,1169.08 1862.06,1179 1880.96,1188.83 1899.85,1198.57 1918.75,1208.23 1937.64,1217.8 1956.54,1227.28 1975.43,1236.68 1994.33,1245.99 2013.22,1255.22 2032.11,1264.37 2051.01,1273.44 2069.9,1282.42 2088.8,1291.33 2107.69,1300.15 2126.59,1308.9 2145.48,1317.57 2164.38,1326.17 2183.27,1334.69 2202.17,1343.13 2221.06,1351.5 2239.96,1359.79 2258.85,1368.01 2277.74,1376.16 2296.64,1384.24 "/>
<circle clip-path="url(#clip422)" cx="1336.55" cy="866.213" r="14.4" fill="#0000ff" fill-rule="evenodd" fill-opacity="1" stroke="#000000" stroke-opacity="1" stroke-width="3.2"/>
<polyline clip-path="url(#clip422)" style="stroke:#ff0000; stroke-linecap:round; stroke-linejoin:round; stroke-width:4; stroke-opacity:1; fill:none" points="426.075,86.1857 444.97,105.45 463.864,124.459 482.759,143.214 501.653,161.714 520.548,179.961 539.442,197.956 558.337,215.698 577.232,233.188 596.126,250.427 615.021,267.416 633.915,284.155 652.81,300.644 671.705,316.884 690.599,332.877 709.494,348.621 728.388,364.119 747.283,379.37 766.178,394.376 785.072,409.136 803.967,423.651 822.861,437.923 841.756,451.952 860.65,465.738 879.545,479.282 898.44,492.583 917.334,505.643 936.229,518.463 955.123,531.041 974.018,543.379 992.913,555.478 1011.81,567.338 1030.7,578.959 1049.6,590.343 1068.49,601.489 1087.39,612.399 1106.28,623.072 1125.17,633.511 1144.07,643.715 1162.96,653.685 1181.86,663.424 1200.75,672.937 1219.65,682.222 1238.54,691.277 1257.44,700.099 1276.33,708.688 1295.23,717.043 1314.12,725.162 1333.02,733.046 1351.91,740.695 1370.8,748.108 1389.7,755.288 1408.59,762.233 1427.49,768.947 1446.38,775.43 1465.28,781.685 1484.17,787.714 1503.07,793.518 1521.96,799.103 1540.86,804.469 1559.75,809.84 1578.64,815.526 1597.54,821.261 1616.43,826.797 1635.33,831.933 1654.22,836.509 1673.12,840.41 1692.01,843.561 1710.91,845.932 1729.8,847.538 1748.7,848.433 1767.59,848.717 1786.49,848.532 1805.38,848.063 1824.27,847.54 1843.17,847.233 1862.06,847.457 1880.96,848.57 1899.85,850.905 1918.75,853.673 1937.64,856.348 1956.54,858.743 1975.43,860.728 1994.33,862.227 2013.22,863.217 2032.11,863.733 2051.01,863.863 2069.9,863.75 2088.8,863.593 2107.69,863.645 2126.59,864.653 2145.48,864.653 2164.38,864.653 2183.27,864.653 2202.17,864.653 2221.06,864.653 2239.96,864.653 2258.85,864.653 2277.74,864.653 2296.64,864.653 "/>
<circle clip-path="url(#clip422)" cx="2126.59" cy="864.653" r="14.4" fill="#ff0000" fill-rule="evenodd" fill-opacity="1" stroke="#000000" stroke-opacity="1" stroke-width="3.2"/>
<polyline clip-path="url(#clip422)" style="stroke:#008000; stroke-linecap:round; stroke-linejoin:round; stroke-width:4; stroke-opacity:1; fill:none" points="426.075,866.213 2296.64,866.213 "/>
<path clip-path="url(#clip420)" d="M1640.47 300.469 L2286.66 300.469 L2286.66 93.1086 L1640.47 93.1086  Z" fill="#ffffff" fill-rule="evenodd" fill-opacity="1"/>
<polyline clip-path="url(#clip420)" style="stroke:#000000; stroke-linecap:round; stroke-linejoin:round; stroke-width:4; stroke-opacity:1; fill:none" points="1640.47,300.469 2286.66,300.469 2286.66,93.1086 1640.47,93.1086 1640.47,300.469 "/>
<polyline clip-path="url(#clip420)" style="stroke:#0000ff; stroke-linecap:round; stroke-linejoin:round; stroke-width:4; stroke-opacity:1; fill:none" points="1662.5,144.949 1794.69,144.949 "/>
<path clip-path="url(#clip420)" d="M1816.72 127.669 L1836.58 127.669 L1836.58 131.604 L1821.39 131.604 L1821.39 141.789 L1835.1 141.789 L1835.1 145.724 L1821.39 145.724 L1821.39 162.229 L1816.72 162.229 L1816.72 127.669 Z" fill="#000000" fill-rule="nonzero" fill-opacity="1" /><path clip-path="url(#clip420)" d="M1840.77 151.997 L1840.77 136.303 L1845.03 136.303 L1845.03 151.835 Q1845.03 155.516 1846.46 157.368 Q1847.9 159.196 1850.77 159.196 Q1854.22 159.196 1856.21 156.997 Q1858.22 154.798 1858.22 151.002 L1858.22 136.303 L1862.48 136.303 L1862.48 162.229 L1858.22 162.229 L1858.22 158.247 Q1856.67 160.608 1854.61 161.766 Q1852.57 162.9 1849.87 162.9 Q1845.4 162.9 1843.08 160.122 Q1840.77 157.344 1840.77 151.997 M1851.49 135.678 L1851.49 135.678 Z" fill="#000000" fill-rule="nonzero" fill-opacity="1" /><path clip-path="url(#clip420)" d="M1871.25 126.21 L1875.51 126.21 L1875.51 162.229 L1871.25 162.229 L1871.25 126.21 Z" fill="#000000" fill-rule="nonzero" fill-opacity="1" /><path clip-path="url(#clip420)" d="M1884.43 126.21 L1888.68 126.21 L1888.68 162.229 L1884.43 162.229 L1884.43 126.21 Z" fill="#000000" fill-rule="nonzero" fill-opacity="1" /><path clip-path="url(#clip420)" d="M1908.38 164.636 Q1906.58 169.266 1904.86 170.678 Q1903.15 172.09 1900.28 172.09 L1896.88 172.09 L1896.88 168.525 L1899.38 168.525 Q1901.14 168.525 1902.11 167.692 Q1903.08 166.858 1904.26 163.756 L1905.03 161.812 L1894.54 136.303 L1899.05 136.303 L1907.16 156.581 L1915.26 136.303 L1919.77 136.303 L1908.38 164.636 Z" fill="#000000" fill-rule="nonzero" fill-opacity="1" /><path clip-path="url(#clip420)" d="M1959.38 137.298 L1959.38 141.28 Q1957.57 140.284 1955.74 139.798 Q1953.94 139.289 1952.09 139.289 Q1947.94 139.289 1945.65 141.928 Q1943.36 144.544 1943.36 149.289 Q1943.36 154.034 1945.65 156.673 Q1947.94 159.289 1952.09 159.289 Q1953.94 159.289 1955.74 158.803 Q1957.57 158.293 1959.38 157.298 L1959.38 161.233 Q1957.6 162.067 1955.67 162.483 Q1953.78 162.9 1951.62 162.9 Q1945.77 162.9 1942.32 159.219 Q1938.87 155.539 1938.87 149.289 Q1938.87 142.946 1942.34 139.312 Q1945.84 135.678 1951.9 135.678 Q1953.87 135.678 1955.74 136.095 Q1957.62 136.488 1959.38 137.298 Z" fill="#000000" fill-rule="nonzero" fill-opacity="1" /><path clip-path="url(#clip420)" d="M1988.34 146.581 L1988.34 162.229 L1984.08 162.229 L1984.08 146.719 Q1984.08 143.039 1982.64 141.21 Q1981.21 139.382 1978.34 139.382 Q1974.89 139.382 1972.9 141.581 Q1970.91 143.78 1970.91 147.576 L1970.91 162.229 L1966.62 162.229 L1966.62 126.21 L1970.91 126.21 L1970.91 140.331 Q1972.43 137.993 1974.49 136.835 Q1976.58 135.678 1979.29 135.678 Q1983.75 135.678 1986.05 138.456 Q1988.34 141.21 1988.34 146.581 Z" fill="#000000" fill-rule="nonzero" fill-opacity="1" /><path clip-path="url(#clip420)" d="M2006.88 139.289 Q2003.45 139.289 2001.46 141.974 Q1999.47 144.636 1999.47 149.289 Q1999.47 153.942 2001.44 156.627 Q2003.43 159.289 2006.88 159.289 Q2010.28 159.289 2012.27 156.604 Q2014.26 153.918 2014.26 149.289 Q2014.26 144.682 2012.27 141.997 Q2010.28 139.289 2006.88 139.289 M2006.88 135.678 Q2012.43 135.678 2015.61 139.289 Q2018.78 142.9 2018.78 149.289 Q2018.78 155.655 2015.61 159.289 Q2012.43 162.9 2006.88 162.9 Q2001.3 162.9 1998.13 159.289 Q1994.98 155.655 1994.98 149.289 Q1994.98 142.9 1998.13 139.289 Q2001.3 135.678 2006.88 135.678 Z" fill="#000000" fill-rule="nonzero" fill-opacity="1" /><path clip-path="url(#clip420)" d="M2025.67 126.21 L2029.96 126.21 L2029.96 147.483 L2042.67 136.303 L2048.1 136.303 L2034.36 148.432 L2048.68 162.229 L2043.13 162.229 L2029.96 149.567 L2029.96 162.229 L2025.67 162.229 L2025.67 126.21 Z" fill="#000000" fill-rule="nonzero" fill-opacity="1" /><path clip-path="url(#clip420)" d="M2073.78 148.201 L2073.78 150.284 L2054.19 150.284 Q2054.47 154.682 2056.83 156.997 Q2059.22 159.289 2063.45 159.289 Q2065.91 159.289 2068.2 158.687 Q2070.51 158.085 2072.78 156.881 L2072.78 160.909 Q2070.49 161.881 2068.08 162.391 Q2065.67 162.9 2063.2 162.9 Q2056.99 162.9 2053.36 159.289 Q2049.75 155.678 2049.75 149.52 Q2049.75 143.155 2053.17 139.428 Q2056.62 135.678 2062.46 135.678 Q2067.69 135.678 2070.72 139.057 Q2073.78 142.414 2073.78 148.201 M2069.52 146.951 Q2069.47 143.456 2067.55 141.372 Q2065.65 139.289 2062.5 139.289 Q2058.94 139.289 2056.79 141.303 Q2054.66 143.317 2054.33 146.974 L2069.52 146.951 Z" fill="#000000" fill-rule="nonzero" fill-opacity="1" /><path clip-path="url(#clip420)" d="M2097.83 140.238 L2097.83 126.21 L2102.09 126.21 L2102.09 162.229 L2097.83 162.229 L2097.83 158.34 Q2096.48 160.655 2094.42 161.789 Q2092.39 162.9 2089.52 162.9 Q2084.82 162.9 2081.85 159.15 Q2078.91 155.4 2078.91 149.289 Q2078.91 143.178 2081.85 139.428 Q2084.82 135.678 2089.52 135.678 Q2092.39 135.678 2094.42 136.812 Q2096.48 137.923 2097.83 140.238 M2083.31 149.289 Q2083.31 153.988 2085.23 156.673 Q2087.18 159.335 2090.56 159.335 Q2093.94 159.335 2095.88 156.673 Q2097.83 153.988 2097.83 149.289 Q2097.83 144.59 2095.88 141.928 Q2093.94 139.243 2090.56 139.243 Q2087.18 139.243 2085.23 141.928 Q2083.31 144.59 2083.31 149.289 Z" fill="#000000" fill-rule="nonzero" fill-opacity="1" /><path clip-path="url(#clip420)" d="M2146.11 141.28 Q2147.71 138.409 2149.93 137.044 Q2152.16 135.678 2155.16 135.678 Q2159.22 135.678 2161.41 138.525 Q2163.61 141.349 2163.61 146.581 L2163.61 162.229 L2159.33 162.229 L2159.33 146.719 Q2159.33 142.993 2158.01 141.187 Q2156.69 139.382 2153.98 139.382 Q2150.67 139.382 2148.75 141.581 Q2146.83 143.78 2146.83 147.576 L2146.83 162.229 L2142.55 162.229 L2142.55 146.719 Q2142.55 142.969 2141.23 141.187 Q2139.91 139.382 2137.16 139.382 Q2133.89 139.382 2131.97 141.604 Q2130.05 143.803 2130.05 147.576 L2130.05 162.229 L2125.77 162.229 L2125.77 136.303 L2130.05 136.303 L2130.05 140.331 Q2131.51 137.946 2133.54 136.812 Q2135.58 135.678 2138.38 135.678 Q2141.21 135.678 2143.17 137.113 Q2145.16 138.548 2146.11 141.28 Z" fill="#000000" fill-rule="nonzero" fill-opacity="1" /><path clip-path="url(#clip420)" d="M2182.16 139.289 Q2178.73 139.289 2176.74 141.974 Q2174.75 144.636 2174.75 149.289 Q2174.75 153.942 2176.72 156.627 Q2178.71 159.289 2182.16 159.289 Q2185.56 159.289 2187.55 156.604 Q2189.54 153.918 2189.54 149.289 Q2189.54 144.682 2187.55 141.997 Q2185.56 139.289 2182.16 139.289 M2182.16 135.678 Q2187.71 135.678 2190.88 139.289 Q2194.05 142.9 2194.05 149.289 Q2194.05 155.655 2190.88 159.289 Q2187.71 162.9 2182.16 162.9 Q2176.58 162.9 2173.41 159.289 Q2170.26 155.655 2170.26 149.289 Q2170.26 142.9 2173.41 139.289 Q2176.58 135.678 2182.16 135.678 Z" fill="#000000" fill-rule="nonzero" fill-opacity="1" /><path clip-path="url(#clip420)" d="M2218.17 140.238 L2218.17 126.21 L2222.43 126.21 L2222.43 162.229 L2218.17 162.229 L2218.17 158.34 Q2216.83 160.655 2214.77 161.789 Q2212.73 162.9 2209.86 162.9 Q2205.16 162.9 2202.2 159.15 Q2199.26 155.4 2199.26 149.289 Q2199.26 143.178 2202.2 139.428 Q2205.16 135.678 2209.86 135.678 Q2212.73 135.678 2214.77 136.812 Q2216.83 137.923 2218.17 140.238 M2203.66 149.289 Q2203.66 153.988 2205.58 156.673 Q2207.53 159.335 2210.9 159.335 Q2214.28 159.335 2216.23 156.673 Q2218.17 153.988 2218.17 149.289 Q2218.17 144.59 2216.23 141.928 Q2214.28 139.243 2210.9 139.243 Q2207.53 139.243 2205.58 141.928 Q2203.66 144.59 2203.66 149.289 Z" fill="#000000" fill-rule="nonzero" fill-opacity="1" /><path clip-path="url(#clip420)" d="M2253.38 148.201 L2253.38 150.284 L2233.8 150.284 Q2234.08 154.682 2236.44 156.997 Q2238.82 159.289 2243.06 159.289 Q2245.51 159.289 2247.8 158.687 Q2250.12 158.085 2252.39 156.881 L2252.39 160.909 Q2250.09 161.881 2247.69 162.391 Q2245.28 162.9 2242.8 162.9 Q2236.6 162.9 2232.97 159.289 Q2229.35 155.678 2229.35 149.52 Q2229.35 143.155 2232.78 139.428 Q2236.23 135.678 2242.06 135.678 Q2247.29 135.678 2250.33 139.057 Q2253.38 142.414 2253.38 148.201 M2249.12 146.951 Q2249.08 143.456 2247.15 141.372 Q2245.26 139.289 2242.11 139.289 Q2238.54 139.289 2236.39 141.303 Q2234.26 143.317 2233.94 146.974 L2249.12 146.951 Z" fill="#000000" fill-rule="nonzero" fill-opacity="1" /><path clip-path="url(#clip420)" d="M2260.37 126.21 L2264.63 126.21 L2264.63 162.229 L2260.37 162.229 L2260.37 126.21 Z" fill="#000000" fill-rule="nonzero" fill-opacity="1" /><polyline clip-path="url(#clip420)" style="stroke:#ff0000; stroke-linecap:round; stroke-linejoin:round; stroke-width:4; stroke-opacity:1; fill:none" points="1662.5,196.789 1794.69,196.789 "/>
<path clip-path="url(#clip420)" d="M1832.74 182.68 Q1827.64 182.68 1824.63 186.476 Q1821.65 190.272 1821.65 196.823 Q1821.65 203.351 1824.63 207.147 Q1827.64 210.944 1832.74 210.944 Q1837.83 210.944 1840.79 207.147 Q1843.78 203.351 1843.78 196.823 Q1843.78 190.272 1840.79 186.476 Q1837.83 182.68 1832.74 182.68 M1832.74 178.884 Q1840 178.884 1844.36 183.768 Q1848.71 188.629 1848.71 196.823 Q1848.71 204.995 1844.36 209.879 Q1840 214.74 1832.74 214.74 Q1825.44 214.74 1821.07 209.879 Q1816.72 205.018 1816.72 196.823 Q1816.72 188.629 1821.07 183.768 Q1825.44 178.884 1832.74 178.884 Z" fill="#000000" fill-rule="nonzero" fill-opacity="1" /><path clip-path="url(#clip420)" d="M1860.7 183.351 L1860.7 210.226 L1866.35 210.226 Q1873.5 210.226 1876.81 206.985 Q1880.14 203.745 1880.14 196.754 Q1880.14 189.809 1876.81 186.592 Q1873.5 183.351 1866.35 183.351 L1860.7 183.351 M1856.02 179.509 L1865.63 179.509 Q1875.68 179.509 1880.37 183.698 Q1885.07 187.865 1885.07 196.754 Q1885.07 205.689 1880.35 209.879 Q1875.63 214.069 1865.63 214.069 L1856.02 214.069 L1856.02 179.509 Z" fill="#000000" fill-rule="nonzero" fill-opacity="1" /><path clip-path="url(#clip420)" d="M1892.53 179.509 L1914.38 179.509 L1914.38 183.444 L1897.2 183.444 L1897.2 193.675 L1913.66 193.675 L1913.66 197.61 L1897.2 197.61 L1897.2 210.133 L1914.8 210.133 L1914.8 214.069 L1892.53 214.069 L1892.53 179.509 Z" fill="#000000" fill-rule="nonzero" fill-opacity="1" /><polyline clip-path="url(#clip420)" style="stroke:#008000; stroke-linecap:round; stroke-linejoin:round; stroke-width:4; stroke-opacity:1; fill:none" points="1662.5,248.629 1794.69,248.629 "/>
<path clip-path="url(#clip420)" d="M1832.55 235.955 L1826.21 253.154 L1838.92 253.154 L1832.55 235.955 M1829.91 231.349 L1835.21 231.349 L1848.38 265.909 L1843.52 265.909 L1840.37 257.043 L1824.8 257.043 L1821.65 265.909 L1816.72 265.909 L1829.91 231.349 Z" fill="#000000" fill-rule="nonzero" fill-opacity="1" /><path clip-path="url(#clip420)" d="M1873.43 244.96 Q1875.03 242.089 1877.25 240.724 Q1879.47 239.358 1882.48 239.358 Q1886.53 239.358 1888.73 242.205 Q1890.93 245.029 1890.93 250.261 L1890.93 265.909 L1886.65 265.909 L1886.65 250.399 Q1886.65 246.673 1885.33 244.867 Q1884.01 243.062 1881.3 243.062 Q1877.99 243.062 1876.07 245.261 Q1874.15 247.46 1874.15 251.256 L1874.15 265.909 L1869.87 265.909 L1869.87 250.399 Q1869.87 246.649 1868.55 244.867 Q1867.23 243.062 1864.47 243.062 Q1861.21 243.062 1859.29 245.284 Q1857.37 247.483 1857.37 251.256 L1857.37 265.909 L1853.08 265.909 L1853.08 239.983 L1857.37 239.983 L1857.37 244.011 Q1858.82 241.626 1860.86 240.492 Q1862.9 239.358 1865.7 239.358 Q1868.52 239.358 1870.49 240.793 Q1872.48 242.228 1873.43 244.96 Z" fill="#000000" fill-rule="nonzero" fill-opacity="1" /><path clip-path="url(#clip420)" d="M1918.04 252.969 Q1918.04 248.27 1916.09 245.608 Q1914.17 242.923 1910.79 242.923 Q1907.41 242.923 1905.47 245.608 Q1903.55 248.27 1903.55 252.969 Q1903.55 257.668 1905.47 260.353 Q1907.41 263.015 1910.79 263.015 Q1914.17 263.015 1916.09 260.353 Q1918.04 257.668 1918.04 252.969 M1903.55 243.918 Q1904.89 241.603 1906.93 240.492 Q1908.99 239.358 1911.83 239.358 Q1916.55 239.358 1919.49 243.108 Q1922.46 246.858 1922.46 252.969 Q1922.46 259.08 1919.49 262.83 Q1916.55 266.58 1911.83 266.58 Q1908.99 266.58 1906.93 265.469 Q1904.89 264.335 1903.55 262.02 L1903.55 265.909 L1899.26 265.909 L1899.26 229.89 L1903.55 229.89 L1903.55 243.918 Z" fill="#000000" fill-rule="nonzero" fill-opacity="1" /><path clip-path="url(#clip420)" d="M1929.52 239.983 L1933.78 239.983 L1933.78 265.909 L1929.52 265.909 L1929.52 239.983 M1929.52 229.89 L1933.78 229.89 L1933.78 235.284 L1929.52 235.284 L1929.52 229.89 Z" fill="#000000" fill-rule="nonzero" fill-opacity="1" /><path clip-path="url(#clip420)" d="M1964.86 251.881 L1964.86 253.964 L1945.28 253.964 Q1945.56 258.362 1947.92 260.677 Q1950.3 262.969 1954.54 262.969 Q1956.99 262.969 1959.29 262.367 Q1961.6 261.765 1963.87 260.561 L1963.87 264.589 Q1961.58 265.561 1959.17 266.071 Q1956.76 266.58 1954.29 266.58 Q1948.08 266.58 1944.45 262.969 Q1940.84 259.358 1940.84 253.2 Q1940.84 246.835 1944.26 243.108 Q1947.71 239.358 1953.55 239.358 Q1958.78 239.358 1961.81 242.737 Q1964.86 246.094 1964.86 251.881 M1960.61 250.631 Q1960.56 247.136 1958.64 245.052 Q1956.74 242.969 1953.59 242.969 Q1950.03 242.969 1947.87 244.983 Q1945.74 246.997 1945.42 250.654 L1960.61 250.631 Z" fill="#000000" fill-rule="nonzero" fill-opacity="1" /><path clip-path="url(#clip420)" d="M1993.41 250.261 L1993.41 265.909 L1989.15 265.909 L1989.15 250.399 Q1989.15 246.719 1987.71 244.89 Q1986.28 243.062 1983.41 243.062 Q1979.96 243.062 1977.97 245.261 Q1975.98 247.46 1975.98 251.256 L1975.98 265.909 L1971.69 265.909 L1971.69 239.983 L1975.98 239.983 L1975.98 244.011 Q1977.5 241.673 1979.56 240.515 Q1981.65 239.358 1984.36 239.358 Q1988.82 239.358 1991.11 242.136 Q1993.41 244.89 1993.41 250.261 Z" fill="#000000" fill-rule="nonzero" fill-opacity="1" /><path clip-path="url(#clip420)" d="M2006.11 232.622 L2006.11 239.983 L2014.89 239.983 L2014.89 243.293 L2006.11 243.293 L2006.11 257.367 Q2006.11 260.538 2006.97 261.441 Q2007.85 262.344 2010.51 262.344 L2014.89 262.344 L2014.89 265.909 L2010.51 265.909 Q2005.58 265.909 2003.71 264.08 Q2001.83 262.228 2001.83 257.367 L2001.83 243.293 L1998.71 243.293 L1998.71 239.983 L2001.83 239.983 L2001.83 232.622 L2006.11 232.622 Z" fill="#000000" fill-rule="nonzero" fill-opacity="1" /><path clip-path="url(#clip420)" d="M2040.42 235.191 L2040.42 248.177 L2046.3 248.177 Q2049.56 248.177 2051.35 246.487 Q2053.13 244.798 2053.13 241.673 Q2053.13 238.571 2051.35 236.881 Q2049.56 235.191 2046.3 235.191 L2040.42 235.191 M2035.74 231.349 L2046.3 231.349 Q2052.11 231.349 2055.07 233.987 Q2058.06 236.603 2058.06 241.673 Q2058.06 246.788 2055.07 249.404 Q2052.11 252.02 2046.3 252.02 L2040.42 252.02 L2040.42 265.909 L2035.74 265.909 L2035.74 231.349 Z" fill="#000000" fill-rule="nonzero" fill-opacity="1" /><path clip-path="url(#clip420)" d="M2078.34 243.964 Q2077.62 243.548 2076.76 243.362 Q2075.93 243.154 2074.91 243.154 Q2071.3 243.154 2069.35 245.515 Q2067.43 247.853 2067.43 252.251 L2067.43 265.909 L2063.15 265.909 L2063.15 239.983 L2067.43 239.983 L2067.43 244.011 Q2068.78 241.649 2070.93 240.515 Q2073.08 239.358 2076.16 239.358 Q2076.6 239.358 2077.13 239.427 Q2077.66 239.474 2078.31 239.589 L2078.34 243.964 Z" fill="#000000" fill-rule="nonzero" fill-opacity="1" /><path clip-path="url(#clip420)" d="M2103.94 251.881 L2103.94 253.964 L2084.35 253.964 Q2084.63 258.362 2086.99 260.677 Q2089.38 262.969 2093.61 262.969 Q2096.07 262.969 2098.36 262.367 Q2100.67 261.765 2102.94 260.561 L2102.94 264.589 Q2100.65 265.561 2098.24 266.071 Q2095.84 266.58 2093.36 266.58 Q2087.16 266.58 2083.52 262.969 Q2079.91 259.358 2079.91 253.2 Q2079.91 246.835 2083.34 243.108 Q2086.79 239.358 2092.62 239.358 Q2097.85 239.358 2100.88 242.737 Q2103.94 246.094 2103.94 251.881 M2099.68 250.631 Q2099.63 247.136 2097.71 245.052 Q2095.81 242.969 2092.66 242.969 Q2089.1 242.969 2086.95 244.983 Q2084.82 246.997 2084.49 250.654 L2099.68 250.631 Z" fill="#000000" fill-rule="nonzero" fill-opacity="1" /><path clip-path="url(#clip420)" d="M2127.46 240.747 L2127.46 244.774 Q2125.65 243.849 2123.71 243.386 Q2121.76 242.923 2119.68 242.923 Q2116.51 242.923 2114.91 243.895 Q2113.34 244.867 2113.34 246.811 Q2113.34 248.293 2114.47 249.149 Q2115.6 249.983 2119.03 250.747 L2120.49 251.071 Q2125.03 252.043 2126.92 253.825 Q2128.85 255.585 2128.85 258.756 Q2128.85 262.367 2125.97 264.473 Q2123.13 266.58 2118.13 266.58 Q2116.04 266.58 2113.78 266.163 Q2111.53 265.77 2109.03 264.96 L2109.03 260.561 Q2111.39 261.788 2113.68 262.413 Q2115.97 263.015 2118.22 263.015 Q2121.23 263.015 2122.85 261.997 Q2124.47 260.955 2124.47 259.08 Q2124.47 257.344 2123.29 256.418 Q2122.13 255.492 2118.17 254.636 L2116.69 254.288 Q2112.73 253.455 2110.97 251.742 Q2109.22 250.006 2109.22 246.997 Q2109.22 243.339 2111.81 241.349 Q2114.4 239.358 2119.17 239.358 Q2121.53 239.358 2123.61 239.705 Q2125.7 240.052 2127.46 240.747 Z" fill="#000000" fill-rule="nonzero" fill-opacity="1" /><path clip-path="url(#clip420)" d="M2152.16 240.747 L2152.16 244.774 Q2150.35 243.849 2148.41 243.386 Q2146.46 242.923 2144.38 242.923 Q2141.21 242.923 2139.61 243.895 Q2138.04 244.867 2138.04 246.811 Q2138.04 248.293 2139.17 249.149 Q2140.3 249.983 2143.73 250.747 L2145.19 251.071 Q2149.72 252.043 2151.62 253.825 Q2153.54 255.585 2153.54 258.756 Q2153.54 262.367 2150.67 264.473 Q2147.83 266.58 2142.83 266.58 Q2140.74 266.58 2138.47 266.163 Q2136.23 265.77 2133.73 264.96 L2133.73 260.561 Q2136.09 261.788 2138.38 262.413 Q2140.67 263.015 2142.92 263.015 Q2145.93 263.015 2147.55 261.997 Q2149.17 260.955 2149.17 259.08 Q2149.17 257.344 2147.99 256.418 Q2146.83 255.492 2142.87 254.636 L2141.39 254.288 Q2137.43 253.455 2135.67 251.742 Q2133.91 250.006 2133.91 246.997 Q2133.91 243.339 2136.51 241.349 Q2139.1 239.358 2143.87 239.358 Q2146.23 239.358 2148.31 239.705 Q2150.4 240.052 2152.16 240.747 Z" fill="#000000" fill-rule="nonzero" fill-opacity="1" /><path clip-path="url(#clip420)" d="M2159.89 255.677 L2159.89 239.983 L2164.15 239.983 L2164.15 255.515 Q2164.15 259.196 2165.58 261.048 Q2167.02 262.876 2169.89 262.876 Q2173.34 262.876 2175.33 260.677 Q2177.34 258.478 2177.34 254.682 L2177.34 239.983 L2181.6 239.983 L2181.6 265.909 L2177.34 265.909 L2177.34 261.927 Q2175.79 264.288 2173.73 265.446 Q2171.69 266.58 2168.98 266.58 Q2164.52 266.58 2162.2 263.802 Q2159.89 261.024 2159.89 255.677 M2170.6 239.358 L2170.6 239.358 Z" fill="#000000" fill-rule="nonzero" fill-opacity="1" /><path clip-path="url(#clip420)" d="M2205.4 243.964 Q2204.68 243.548 2203.82 243.362 Q2202.99 243.154 2201.97 243.154 Q2198.36 243.154 2196.41 245.515 Q2194.49 247.853 2194.49 252.251 L2194.49 265.909 L2190.21 265.909 L2190.21 239.983 L2194.49 239.983 L2194.49 244.011 Q2195.84 241.649 2197.99 240.515 Q2200.14 239.358 2203.22 239.358 Q2203.66 239.358 2204.19 239.427 Q2204.72 239.474 2205.37 239.589 L2205.4 243.964 Z" fill="#000000" fill-rule="nonzero" fill-opacity="1" /><path clip-path="url(#clip420)" d="M2231 251.881 L2231 253.964 L2211.41 253.964 Q2211.69 258.362 2214.05 260.677 Q2216.44 262.969 2220.67 262.969 Q2223.13 262.969 2225.42 262.367 Q2227.73 261.765 2230 260.561 L2230 264.589 Q2227.71 265.561 2225.3 266.071 Q2222.9 266.58 2220.42 266.58 Q2214.22 266.58 2210.58 262.969 Q2206.97 259.358 2206.97 253.2 Q2206.97 246.835 2210.4 243.108 Q2213.84 239.358 2219.68 239.358 Q2224.91 239.358 2227.94 242.737 Q2231 246.094 2231 251.881 M2226.74 250.631 Q2226.69 247.136 2224.77 245.052 Q2222.87 242.969 2219.72 242.969 Q2216.16 242.969 2214.01 244.983 Q2211.88 246.997 2211.55 250.654 L2226.74 250.631 Z" fill="#000000" fill-rule="nonzero" fill-opacity="1" /></svg>
