<?xml version="1.0" encoding="utf-8"?>
<svg xmlns="http://www.w3.org/2000/svg" xmlns:xlink="http://www.w3.org/1999/xlink" width="600" height="400" viewBox="0 0 2400 1600">
<defs>
  <clipPath id="clip540">
    <rect x="0" y="0" width="2400" height="1600"/>
  </clipPath>
</defs>
<path clip-path="url(#clip540)" d="M0 1600 L2400 1600 L2400 0 L0 0  Z" fill="#ffffff" fill-rule="evenodd" fill-opacity="1"/>
<defs>
  <clipPath id="clip541">
    <rect x="480" y="0" width="1681" height="1600"/>
  </clipPath>
</defs>
<path clip-path="url(#clip540)" d="M340.028 1423.18 L2352.76 1423.18 L2352.76 47.2441 L340.028 47.2441  Z" fill="#ffffff" fill-rule="evenodd" fill-opacity="1"/>
<defs>
  <clipPath id="clip542">
    <rect x="340" y="47" width="2014" height="1377"/>
  </clipPath>
</defs>
<polyline clip-path="url(#clip542)" style="stroke:#000000; stroke-linecap:round; stroke-linejoin:round; stroke-width:2; stroke-opacity:0.1; fill:none" points="396.992,1423.18 396.992,47.2441 "/>
<polyline clip-path="url(#clip542)" style="stroke:#000000; stroke-linecap:round; stroke-linejoin:round; stroke-width:2; stroke-opacity:0.1; fill:none" points="767.247,1423.18 767.247,47.2441 "/>
<polyline clip-path="url(#clip542)" style="stroke:#000000; stroke-linecap:round; stroke-linejoin:round; stroke-width:2; stroke-opacity:0.1; fill:none" points="1137.5,1423.18 1137.5,47.2441 "/>
<polyline clip-path="url(#clip542)" style="stroke:#000000; stroke-linecap:round; stroke-linejoin:round; stroke-width:2; stroke-opacity:0.1; fill:none" points="1507.76,1423.18 1507.76,47.2441 "/>
<polyline clip-path="url(#clip542)" style="stroke:#000000; stroke-linecap:round; stroke-linejoin:round; stroke-width:2; stroke-opacity:0.1; fill:none" points="1878.01,1423.18 1878.01,47.2441 "/>
<polyline clip-path="url(#clip542)" style="stroke:#000000; stroke-linecap:round; stroke-linejoin:round; stroke-width:2; stroke-opacity:0.1; fill:none" points="2248.27,1423.18 2248.27,47.2441 "/>
<polyline clip-path="url(#clip542)" style="stroke:#000000; stroke-linecap:round; stroke-linejoin:round; stroke-width:2; stroke-opacity:0.1; fill:none" points="340.028,1384.24 2352.76,1384.24 "/>
<polyline clip-path="url(#clip542)" style="stroke:#000000; stroke-linecap:round; stroke-linejoin:round; stroke-width:2; stroke-opacity:0.1; fill:none" points="340.028,978.746 2352.76,978.746 "/>
<polyline clip-path="url(#clip542)" style="stroke:#000000; stroke-linecap:round; stroke-linejoin:round; stroke-width:2; stroke-opacity:0.1; fill:none" points="340.028,573.254 2352.76,573.254 "/>
<polyline clip-path="url(#clip542)" style="stroke:#000000; stroke-linecap:round; stroke-linejoin:round; stroke-width:2; stroke-opacity:0.1; fill:none" points="340.028,167.762 2352.76,167.762 "/>
<polyline clip-path="url(#clip540)" style="stroke:#000000; stroke-linecap:round; stroke-linejoin:round; stroke-width:4; stroke-opacity:1; fill:none" points="340.028,1423.18 2352.76,1423.18 "/>
<polyline clip-path="url(#clip540)" style="stroke:#000000; stroke-linecap:round; stroke-linejoin:round; stroke-width:4; stroke-opacity:1; fill:none" points="396.992,1423.18 396.992,1404.28 "/>
<polyline clip-path="url(#clip540)" style="stroke:#000000; stroke-linecap:round; stroke-linejoin:round; stroke-width:4; stroke-opacity:1; fill:none" points="767.247,1423.18 767.247,1404.28 "/>
<polyline clip-path="url(#clip540)" style="stroke:#000000; stroke-linecap:round; stroke-linejoin:round; stroke-width:4; stroke-opacity:1; fill:none" points="1137.5,1423.18 1137.5,1404.28 "/>
<polyline clip-path="url(#clip540)" style="stroke:#000000; stroke-linecap:round; stroke-linejoin:round; stroke-width:4; stroke-opacity:1; fill:none" points="1507.76,1423.18 1507.76,1404.28 "/>
<polyline clip-path="url(#clip540)" style="stroke:#000000; stroke-linecap:round; stroke-linejoin:round; stroke-width:4; stroke-opacity:1; fill:none" points="1878.01,1423.18 1878.01,1404.28 "/>
<polyline clip-path="url(#clip540)" style="stroke:#000000; stroke-linecap:round; stroke-linejoin:round; stroke-width:4; stroke-opacity:1; fill:none" points="2248.27,1423.18 2248.27,1404.28 "/>
<path clip-path="url(#clip540)" d="M374.376 1454.1 Q370.765 1454.1 368.936 1457.66 Q367.131 1461.2 367.131 1468.33 Q367.131 1475.44 368.936 1479.01 Q370.765 1482.55 374.376 1482.55 Q378.01 1482.55 379.816 1479.01 Q381.645 1475.44 381.645 1468.33 Q381.645 1461.2 379.816 1457.66 Q378.01 1454.1 374.376 1454.1 M374.376 1450.39 Q380.186 1450.39 383.242 1455 Q386.32 1459.58 386.32 1468.33 Q386.32 1477.06 383.242 1481.67 Q380.186 1486.25 374.376 1486.25 Q368.566 1486.25 365.487 1481.67 Q362.432 1477.06 362.432 1468.33 Q362.432 1459.58 365.487 1455 Q368.566 1450.39 374.376 1450.39 Z" fill="#000000" fill-rule="nonzero" fill-opacity="1" /><path clip-path="url(#clip540)" d="M394.538 1479.7 L399.422 1479.7 L399.422 1485.58 L394.538 1485.58 L394.538 1479.7 Z" fill="#000000" fill-rule="nonzero" fill-opacity="1" /><path clip-path="url(#clip540)" d="M419.607 1454.1 Q415.996 1454.1 414.168 1457.66 Q412.362 1461.2 412.362 1468.33 Q412.362 1475.44 414.168 1479.01 Q415.996 1482.55 419.607 1482.55 Q423.242 1482.55 425.047 1479.01 Q426.876 1475.44 426.876 1468.33 Q426.876 1461.2 425.047 1457.66 Q423.242 1454.1 419.607 1454.1 M419.607 1450.39 Q425.417 1450.39 428.473 1455 Q431.552 1459.58 431.552 1468.33 Q431.552 1477.06 428.473 1481.67 Q425.417 1486.25 419.607 1486.25 Q413.797 1486.25 410.718 1481.67 Q407.663 1477.06 407.663 1468.33 Q407.663 1459.58 410.718 1455 Q413.797 1450.39 419.607 1450.39 Z" fill="#000000" fill-rule="nonzero" fill-opacity="1" /><path clip-path="url(#clip540)" d="M745.129 1454.1 Q741.518 1454.1 739.689 1457.66 Q737.884 1461.2 737.884 1468.33 Q737.884 1475.44 739.689 1479.01 Q741.518 1482.55 745.129 1482.55 Q748.763 1482.55 750.569 1479.01 Q752.398 1475.44 752.398 1468.33 Q752.398 1461.2 750.569 1457.66 Q748.763 1454.1 745.129 1454.1 M745.129 1450.39 Q750.939 1450.39 753.995 1455 Q757.074 1459.58 757.074 1468.33 Q757.074 1477.06 753.995 1481.67 Q750.939 1486.25 745.129 1486.25 Q739.319 1486.25 736.24 1481.67 Q733.185 1477.06 733.185 1468.33 Q733.185 1459.58 736.24 1455 Q739.319 1450.39 745.129 1450.39 Z" fill="#000000" fill-rule="nonzero" fill-opacity="1" /><path clip-path="url(#clip540)" d="M765.291 1479.7 L770.175 1479.7 L770.175 1485.58 L765.291 1485.58 L765.291 1479.7 Z" fill="#000000" fill-rule="nonzero" fill-opacity="1" /><path clip-path="url(#clip540)" d="M780.407 1451.02 L798.763 1451.02 L798.763 1454.96 L784.689 1454.96 L784.689 1463.43 Q785.708 1463.08 786.726 1462.92 Q787.745 1462.73 788.763 1462.73 Q794.55 1462.73 797.93 1465.9 Q801.309 1469.08 801.309 1474.49 Q801.309 1480.07 797.837 1483.17 Q794.365 1486.25 788.046 1486.25 Q785.87 1486.25 783.601 1485.88 Q781.356 1485.51 778.948 1484.77 L778.948 1480.07 Q781.032 1481.2 783.254 1481.76 Q785.476 1482.32 787.953 1482.32 Q791.958 1482.32 794.296 1480.21 Q796.634 1478.1 796.634 1474.49 Q796.634 1470.88 794.296 1468.77 Q791.958 1466.67 787.953 1466.67 Q786.078 1466.67 784.203 1467.08 Q782.351 1467.5 780.407 1468.38 L780.407 1451.02 Z" fill="#000000" fill-rule="nonzero" fill-opacity="1" /><path clip-path="url(#clip540)" d="M1104.66 1481.64 L1112.29 1481.64 L1112.29 1455.28 L1103.98 1456.95 L1103.98 1452.69 L1112.25 1451.02 L1116.92 1451.02 L1116.92 1481.64 L1124.56 1481.64 L1124.56 1485.58 L1104.66 1485.58 L1104.66 1481.64 Z" fill="#000000" fill-rule="nonzero" fill-opacity="1" /><path clip-path="url(#clip540)" d="M1134.01 1479.7 L1138.89 1479.7 L1138.89 1485.58 L1134.01 1485.58 L1134.01 1479.7 Z" fill="#000000" fill-rule="nonzero" fill-opacity="1" /><path clip-path="url(#clip540)" d="M1159.08 1454.1 Q1155.47 1454.1 1153.64 1457.66 Q1151.83 1461.2 1151.83 1468.33 Q1151.83 1475.44 1153.64 1479.01 Q1155.47 1482.55 1159.08 1482.55 Q1162.71 1482.55 1164.52 1479.01 Q1166.35 1475.44 1166.35 1468.33 Q1166.35 1461.2 1164.52 1457.66 Q1162.71 1454.1 1159.08 1454.1 M1159.08 1450.39 Q1164.89 1450.39 1167.94 1455 Q1171.02 1459.58 1171.02 1468.33 Q1171.02 1477.06 1167.94 1481.67 Q1164.89 1486.25 1159.08 1486.25 Q1153.27 1486.25 1150.19 1481.67 Q1147.13 1477.06 1147.13 1468.33 Q1147.13 1459.58 1150.19 1455 Q1153.27 1450.39 1159.08 1450.39 Z" fill="#000000" fill-rule="nonzero" fill-opacity="1" /><path clip-path="url(#clip540)" d="M1475.41 1481.64 L1483.05 1481.64 L1483.05 1455.28 L1474.74 1456.95 L1474.74 1452.69 L1483 1451.02 L1487.68 1451.02 L1487.68 1481.64 L1495.32 1481.64 L1495.32 1485.58 L1475.41 1485.58 L1475.41 1481.64 Z" fill="#000000" fill-rule="nonzero" fill-opacity="1" /><path clip-path="url(#clip540)" d="M1504.76 1479.7 L1509.64 1479.7 L1509.64 1485.58 L1504.76 1485.58 L1504.76 1479.7 Z" fill="#000000" fill-rule="nonzero" fill-opacity="1" /><path clip-path="url(#clip540)" d="M1519.88 1451.02 L1538.23 1451.02 L1538.23 1454.96 L1524.16 1454.96 L1524.16 1463.43 Q1525.18 1463.08 1526.2 1462.92 Q1527.21 1462.73 1528.23 1462.73 Q1534.02 1462.73 1537.4 1465.9 Q1540.78 1469.08 1540.78 1474.49 Q1540.78 1480.07 1537.31 1483.17 Q1533.83 1486.25 1527.51 1486.25 Q1525.34 1486.25 1523.07 1485.88 Q1520.83 1485.51 1518.42 1484.77 L1518.42 1480.07 Q1520.5 1481.2 1522.72 1481.76 Q1524.95 1482.32 1527.42 1482.32 Q1531.43 1482.32 1533.76 1480.21 Q1536.1 1478.1 1536.1 1474.49 Q1536.1 1470.88 1533.76 1468.77 Q1531.43 1466.67 1527.42 1466.67 Q1525.55 1466.67 1523.67 1467.08 Q1521.82 1467.5 1519.88 1468.38 L1519.88 1451.02 Z" fill="#000000" fill-rule="nonzero" fill-opacity="1" /><path clip-path="url(#clip540)" d="M1849.25 1481.64 L1865.57 1481.64 L1865.57 1485.58 L1843.63 1485.58 L1843.63 1481.64 Q1846.29 1478.89 1850.87 1474.26 Q1855.48 1469.61 1856.66 1468.27 Q1858.9 1465.74 1859.78 1464.01 Q1860.69 1462.25 1860.69 1460.56 Q1860.69 1457.8 1858.74 1456.07 Q1856.82 1454.33 1853.72 1454.33 Q1851.52 1454.33 1849.07 1455.09 Q1846.64 1455.86 1843.86 1457.41 L1843.86 1452.69 Q1846.68 1451.55 1849.14 1450.97 Q1851.59 1450.39 1853.63 1450.39 Q1859 1450.39 1862.19 1453.08 Q1865.39 1455.77 1865.39 1460.26 Q1865.39 1462.39 1864.58 1464.31 Q1863.79 1466.2 1861.68 1468.8 Q1861.1 1469.47 1858 1472.69 Q1854.9 1475.88 1849.25 1481.64 Z" fill="#000000" fill-rule="nonzero" fill-opacity="1" /><path clip-path="url(#clip540)" d="M1875.39 1479.7 L1880.27 1479.7 L1880.27 1485.58 L1875.39 1485.58 L1875.39 1479.7 Z" fill="#000000" fill-rule="nonzero" fill-opacity="1" /><path clip-path="url(#clip540)" d="M1900.46 1454.1 Q1896.84 1454.1 1895.02 1457.66 Q1893.21 1461.2 1893.21 1468.33 Q1893.21 1475.44 1895.02 1479.01 Q1896.84 1482.55 1900.46 1482.55 Q1904.09 1482.55 1905.9 1479.01 Q1907.72 1475.44 1907.72 1468.33 Q1907.72 1461.2 1905.9 1457.66 Q1904.09 1454.1 1900.46 1454.1 M1900.46 1450.39 Q1906.27 1450.39 1909.32 1455 Q1912.4 1459.58 1912.4 1468.33 Q1912.4 1477.06 1909.32 1481.67 Q1906.27 1486.25 1900.46 1486.25 Q1894.65 1486.25 1891.57 1481.67 Q1888.51 1477.06 1888.51 1468.33 Q1888.51 1459.58 1891.57 1455 Q1894.65 1450.39 1900.46 1450.39 Z" fill="#000000" fill-rule="nonzero" fill-opacity="1" /><path clip-path="url(#clip540)" d="M2220.01 1481.64 L2236.32 1481.64 L2236.32 1485.58 L2214.38 1485.58 L2214.38 1481.64 Q2217.04 1478.89 2221.63 1474.26 Q2226.23 1469.61 2227.41 1468.27 Q2229.66 1465.74 2230.54 1464.01 Q2231.44 1462.25 2231.44 1460.56 Q2231.44 1457.8 2229.5 1456.07 Q2227.57 1454.33 2224.47 1454.33 Q2222.27 1454.33 2219.82 1455.09 Q2217.39 1455.86 2214.61 1457.41 L2214.61 1452.69 Q2217.44 1451.55 2219.89 1450.97 Q2222.34 1450.39 2224.38 1450.39 Q2229.75 1450.39 2232.94 1453.08 Q2236.14 1455.77 2236.14 1460.26 Q2236.14 1462.39 2235.33 1464.31 Q2234.54 1466.2 2232.44 1468.8 Q2231.86 1469.47 2228.76 1472.69 Q2225.65 1475.88 2220.01 1481.64 Z" fill="#000000" fill-rule="nonzero" fill-opacity="1" /><path clip-path="url(#clip540)" d="M2246.14 1479.7 L2251.02 1479.7 L2251.02 1485.58 L2246.14 1485.58 L2246.14 1479.7 Z" fill="#000000" fill-rule="nonzero" fill-opacity="1" /><path clip-path="url(#clip540)" d="M2261.25 1451.02 L2279.61 1451.02 L2279.61 1454.96 L2265.54 1454.96 L2265.54 1463.43 Q2266.56 1463.08 2267.57 1462.92 Q2268.59 1462.73 2269.61 1462.73 Q2275.4 1462.73 2278.78 1465.9 Q2282.16 1469.08 2282.16 1474.49 Q2282.16 1480.07 2278.69 1483.17 Q2275.21 1486.25 2268.89 1486.25 Q2266.72 1486.25 2264.45 1485.88 Q2262.2 1485.51 2259.8 1484.77 L2259.8 1480.07 Q2261.88 1481.2 2264.1 1481.76 Q2266.32 1482.32 2268.8 1482.32 Q2272.81 1482.32 2275.14 1480.21 Q2277.48 1478.1 2277.48 1474.49 Q2277.48 1470.88 2275.14 1468.77 Q2272.81 1466.67 2268.8 1466.67 Q2266.93 1466.67 2265.05 1467.08 Q2263.2 1467.5 2261.25 1468.38 L2261.25 1451.02 Z" fill="#000000" fill-rule="nonzero" fill-opacity="1" /><path clip-path="url(#clip540)" d="M1230.42 1520.52 L1270.62 1520.52 L1270.62 1525.93 L1253.75 1525.93 L1253.75 1568.04 L1247.29 1568.04 L1247.29 1525.93 L1230.42 1525.93 L1230.42 1520.52 Z" fill="#000000" fill-rule="nonzero" fill-opacity="1" /><path clip-path="url(#clip540)" d="M1274.57 1532.4 L1280.43 1532.4 L1280.43 1568.04 L1274.57 1568.04 L1274.57 1532.4 M1274.57 1518.52 L1280.43 1518.52 L1280.43 1525.93 L1274.57 1525.93 L1274.57 1518.52 Z" fill="#000000" fill-rule="nonzero" fill-opacity="1" /><path clip-path="url(#clip540)" d="M1320.44 1539.24 Q1322.63 1535.29 1325.69 1533.41 Q1328.74 1531.54 1332.88 1531.54 Q1338.45 1531.54 1341.47 1535.45 Q1344.5 1539.33 1344.5 1546.53 L1344.5 1568.04 L1338.61 1568.04 L1338.61 1546.72 Q1338.61 1541.59 1336.8 1539.11 Q1334.98 1536.63 1331.26 1536.63 Q1326.71 1536.63 1324.06 1539.65 Q1321.42 1542.68 1321.42 1547.9 L1321.42 1568.04 L1315.53 1568.04 L1315.53 1546.72 Q1315.53 1541.56 1313.72 1539.11 Q1311.91 1536.63 1308.12 1536.63 Q1303.63 1536.63 1300.99 1539.68 Q1298.35 1542.71 1298.35 1547.9 L1298.35 1568.04 L1292.46 1568.04 L1292.46 1532.4 L1298.35 1532.4 L1298.35 1537.93 Q1300.35 1534.66 1303.15 1533.1 Q1305.95 1531.54 1309.8 1531.54 Q1313.69 1531.54 1316.39 1533.51 Q1319.13 1535.48 1320.44 1539.24 Z" fill="#000000" fill-rule="nonzero" fill-opacity="1" /><path clip-path="url(#clip540)" d="M1386.67 1548.76 L1386.67 1551.62 L1359.74 1551.62 Q1360.13 1557.67 1363.37 1560.85 Q1366.65 1564 1372.48 1564 Q1375.85 1564 1379 1563.17 Q1382.18 1562.35 1385.3 1560.69 L1385.3 1566.23 Q1382.15 1567.57 1378.84 1568.27 Q1375.53 1568.97 1372.13 1568.97 Q1363.6 1568.97 1358.6 1564 Q1353.63 1559.04 1353.63 1550.57 Q1353.63 1541.82 1358.34 1536.69 Q1363.09 1531.54 1371.11 1531.54 Q1378.3 1531.54 1382.47 1536.18 Q1386.67 1540.8 1386.67 1548.76 M1380.81 1547.04 Q1380.75 1542.23 1378.11 1539.37 Q1375.5 1536.5 1371.17 1536.5 Q1366.27 1536.5 1363.31 1539.27 Q1360.38 1542.04 1359.93 1547.07 L1380.81 1547.04 Z" fill="#000000" fill-rule="nonzero" fill-opacity="1" /><path clip-path="url(#clip540)" d="M1397.78 1559.96 L1404.49 1559.96 L1404.49 1565.43 L1399.27 1575.62 L1395.17 1575.62 L1397.78 1565.43 L1397.78 1559.96 Z" fill="#000000" fill-rule="nonzero" fill-opacity="1" /><path clip-path="url(#clip540)" d="M1460.45 1533.45 L1460.45 1538.98 Q1457.97 1537.71 1455.29 1537.07 Q1452.62 1536.44 1449.75 1536.44 Q1445.39 1536.44 1443.2 1537.77 Q1441.03 1539.11 1441.03 1541.79 Q1441.03 1543.82 1442.59 1545 Q1444.15 1546.15 1448.86 1547.2 L1450.87 1547.64 Q1457.11 1548.98 1459.72 1551.43 Q1462.36 1553.85 1462.36 1558.21 Q1462.36 1563.17 1458.41 1566.07 Q1454.5 1568.97 1447.62 1568.97 Q1444.76 1568.97 1441.64 1568.39 Q1438.55 1567.85 1435.11 1566.74 L1435.11 1560.69 Q1438.36 1562.38 1441.51 1563.24 Q1444.66 1564.07 1447.75 1564.07 Q1451.89 1564.07 1454.12 1562.66 Q1456.34 1561.23 1456.34 1558.65 Q1456.34 1556.27 1454.72 1554.99 Q1453.13 1553.72 1447.69 1552.54 L1445.65 1552.07 Q1440.21 1550.92 1437.79 1548.56 Q1435.37 1546.18 1435.37 1542.04 Q1435.37 1537.01 1438.93 1534.27 Q1442.5 1531.54 1449.05 1531.54 Q1452.3 1531.54 1455.17 1532.01 Q1458.03 1532.49 1460.45 1533.45 Z" fill="#000000" fill-rule="nonzero" fill-opacity="1" /><polyline clip-path="url(#clip540)" style="stroke:#000000; stroke-linecap:round; stroke-linejoin:round; stroke-width:4; stroke-opacity:1; fill:none" points="340.028,1423.18 340.028,47.2441 "/>
<polyline clip-path="url(#clip540)" style="stroke:#000000; stroke-linecap:round; stroke-linejoin:round; stroke-width:4; stroke-opacity:1; fill:none" points="340.028,1384.24 358.925,1384.24 "/>
<polyline clip-path="url(#clip540)" style="stroke:#000000; stroke-linecap:round; stroke-linejoin:round; stroke-width:4; stroke-opacity:1; fill:none" points="340.028,978.746 358.925,978.746 "/>
<polyline clip-path="url(#clip540)" style="stroke:#000000; stroke-linecap:round; stroke-linejoin:round; stroke-width:4; stroke-opacity:1; fill:none" points="340.028,573.254 358.925,573.254 "/>
<polyline clip-path="url(#clip540)" style="stroke:#000000; stroke-linecap:round; stroke-linejoin:round; stroke-width:4; stroke-opacity:1; fill:none" points="340.028,167.762 358.925,167.762 "/>
<path clip-path="url(#clip540)" d="M126.205 1370.04 Q122.593 1370.04 120.765 1373.6 Q118.959 1377.14 118.959 1384.27 Q118.959 1391.38 120.765 1394.94 Q122.593 1398.49 126.205 1398.49 Q129.839 1398.49 131.644 1394.94 Q133.473 1391.38 133.473 1384.27 Q133.473 1377.14 131.644 1373.6 Q129.839 1370.04 126.205 1370.04 M126.205 1366.33 Q132.015 1366.33 135.07 1370.94 Q138.149 1375.52 138.149 1384.27 Q138.149 1393 135.07 1397.61 Q132.015 1402.19 126.205 1402.19 Q120.394 1402.19 117.316 1397.61 Q114.26 1393 114.26 1384.27 Q114.26 1375.52 117.316 1370.94 Q120.394 1366.33 126.205 1366.33 Z" fill="#000000" fill-rule="nonzero" fill-opacity="1" /><path clip-path="url(#clip540)" d="M146.366 1395.64 L151.251 1395.64 L151.251 1401.52 L146.366 1401.52 L146.366 1395.64 Z" fill="#000000" fill-rule="nonzero" fill-opacity="1" /><path clip-path="url(#clip540)" d="M171.436 1370.04 Q167.825 1370.04 165.996 1373.6 Q164.19 1377.14 164.19 1384.27 Q164.19 1391.38 165.996 1394.94 Q167.825 1398.49 171.436 1398.49 Q175.07 1398.49 176.876 1394.94 Q178.704 1391.38 178.704 1384.27 Q178.704 1377.14 176.876 1373.6 Q175.07 1370.04 171.436 1370.04 M171.436 1366.33 Q177.246 1366.33 180.301 1370.94 Q183.38 1375.52 183.38 1384.27 Q183.38 1393 180.301 1397.61 Q177.246 1402.19 171.436 1402.19 Q165.626 1402.19 162.547 1397.61 Q159.491 1393 159.491 1384.27 Q159.491 1375.52 162.547 1370.94 Q165.626 1366.33 171.436 1366.33 Z" fill="#000000" fill-rule="nonzero" fill-opacity="1" /><path clip-path="url(#clip540)" d="M201.598 1370.04 Q197.987 1370.04 196.158 1373.6 Q194.352 1377.14 194.352 1384.27 Q194.352 1391.38 196.158 1394.94 Q197.987 1398.49 201.598 1398.49 Q205.232 1398.49 207.037 1394.94 Q208.866 1391.38 208.866 1384.27 Q208.866 1377.14 207.037 1373.6 Q205.232 1370.04 201.598 1370.04 M201.598 1366.33 Q207.408 1366.33 210.463 1370.94 Q213.542 1375.52 213.542 1384.27 Q213.542 1393 210.463 1397.61 Q207.408 1402.19 201.598 1402.19 Q195.787 1402.19 192.709 1397.61 Q189.653 1393 189.653 1384.27 Q189.653 1375.52 192.709 1370.94 Q195.787 1366.33 201.598 1366.33 Z" fill="#000000" fill-rule="nonzero" fill-opacity="1" /><path clip-path="url(#clip540)" d="M231.76 1370.04 Q228.148 1370.04 226.32 1373.6 Q224.514 1377.14 224.514 1384.27 Q224.514 1391.38 226.32 1394.94 Q228.148 1398.49 231.76 1398.49 Q235.394 1398.49 237.199 1394.94 Q239.028 1391.38 239.028 1384.27 Q239.028 1377.14 237.199 1373.6 Q235.394 1370.04 231.76 1370.04 M231.76 1366.33 Q237.57 1366.33 240.625 1370.94 Q243.704 1375.52 243.704 1384.27 Q243.704 1393 240.625 1397.61 Q237.57 1402.19 231.76 1402.19 Q225.949 1402.19 222.871 1397.61 Q219.815 1393 219.815 1384.27 Q219.815 1375.52 222.871 1370.94 Q225.949 1366.33 231.76 1366.33 Z" fill="#000000" fill-rule="nonzero" fill-opacity="1" /><path clip-path="url(#clip540)" d="M261.921 1370.04 Q258.31 1370.04 256.482 1373.6 Q254.676 1377.14 254.676 1384.27 Q254.676 1391.38 256.482 1394.94 Q258.31 1398.49 261.921 1398.49 Q265.556 1398.49 267.361 1394.94 Q269.19 1391.38 269.19 1384.27 Q269.19 1377.14 267.361 1373.6 Q265.556 1370.04 261.921 1370.04 M261.921 1366.33 Q267.732 1366.33 270.787 1370.94 Q273.866 1375.52 273.866 1384.27 Q273.866 1393 270.787 1397.61 Q267.732 1402.19 261.921 1402.19 Q256.111 1402.19 253.033 1397.61 Q249.977 1393 249.977 1384.27 Q249.977 1375.52 253.033 1370.94 Q256.111 1366.33 261.921 1366.33 Z" fill="#000000" fill-rule="nonzero" fill-opacity="1" /><path clip-path="url(#clip540)" d="M292.083 1370.04 Q288.472 1370.04 286.643 1373.6 Q284.838 1377.14 284.838 1384.27 Q284.838 1391.38 286.643 1394.94 Q288.472 1398.49 292.083 1398.49 Q295.718 1398.49 297.523 1394.94 Q299.352 1391.38 299.352 1384.27 Q299.352 1377.14 297.523 1373.6 Q295.718 1370.04 292.083 1370.04 M292.083 1366.33 Q297.893 1366.33 300.949 1370.94 Q304.028 1375.52 304.028 1384.27 Q304.028 1393 300.949 1397.61 Q297.893 1402.19 292.083 1402.19 Q286.273 1402.19 283.194 1397.61 Q280.139 1393 280.139 1384.27 Q280.139 1375.52 283.194 1370.94 Q286.273 1366.33 292.083 1366.33 Z" fill="#000000" fill-rule="nonzero" fill-opacity="1" /><path clip-path="url(#clip540)" d="M127.2 964.545 Q123.589 964.545 121.76 968.11 Q119.955 971.651 119.955 978.781 Q119.955 985.888 121.76 989.452 Q123.589 992.994 127.2 992.994 Q130.834 992.994 132.64 989.452 Q134.468 985.888 134.468 978.781 Q134.468 971.651 132.64 968.11 Q130.834 964.545 127.2 964.545 M127.2 960.841 Q133.01 960.841 136.066 965.448 Q139.144 970.031 139.144 978.781 Q139.144 987.508 136.066 992.114 Q133.01 996.698 127.2 996.698 Q121.39 996.698 118.311 992.114 Q115.256 987.508 115.256 978.781 Q115.256 970.031 118.311 965.448 Q121.39 960.841 127.2 960.841 Z" fill="#000000" fill-rule="nonzero" fill-opacity="1" /><path clip-path="url(#clip540)" d="M147.362 990.147 L152.246 990.147 L152.246 996.026 L147.362 996.026 L147.362 990.147 Z" fill="#000000" fill-rule="nonzero" fill-opacity="1" /><path clip-path="url(#clip540)" d="M172.431 964.545 Q168.82 964.545 166.991 968.11 Q165.186 971.651 165.186 978.781 Q165.186 985.888 166.991 989.452 Q168.82 992.994 172.431 992.994 Q176.065 992.994 177.871 989.452 Q179.7 985.888 179.7 978.781 Q179.7 971.651 177.871 968.11 Q176.065 964.545 172.431 964.545 M172.431 960.841 Q178.241 960.841 181.297 965.448 Q184.376 970.031 184.376 978.781 Q184.376 987.508 181.297 992.114 Q178.241 996.698 172.431 996.698 Q166.621 996.698 163.542 992.114 Q160.487 987.508 160.487 978.781 Q160.487 970.031 163.542 965.448 Q166.621 960.841 172.431 960.841 Z" fill="#000000" fill-rule="nonzero" fill-opacity="1" /><path clip-path="url(#clip540)" d="M202.593 964.545 Q198.982 964.545 197.153 968.11 Q195.348 971.651 195.348 978.781 Q195.348 985.888 197.153 989.452 Q198.982 992.994 202.593 992.994 Q206.227 992.994 208.033 989.452 Q209.861 985.888 209.861 978.781 Q209.861 971.651 208.033 968.11 Q206.227 964.545 202.593 964.545 M202.593 960.841 Q208.403 960.841 211.459 965.448 Q214.537 970.031 214.537 978.781 Q214.537 987.508 211.459 992.114 Q208.403 996.698 202.593 996.698 Q196.783 996.698 193.704 992.114 Q190.649 987.508 190.649 978.781 Q190.649 970.031 193.704 965.448 Q196.783 960.841 202.593 960.841 Z" fill="#000000" fill-rule="nonzero" fill-opacity="1" /><path clip-path="url(#clip540)" d="M232.755 964.545 Q229.144 964.545 227.315 968.11 Q225.51 971.651 225.51 978.781 Q225.51 985.888 227.315 989.452 Q229.144 992.994 232.755 992.994 Q236.389 992.994 238.195 989.452 Q240.023 985.888 240.023 978.781 Q240.023 971.651 238.195 968.11 Q236.389 964.545 232.755 964.545 M232.755 960.841 Q238.565 960.841 241.621 965.448 Q244.699 970.031 244.699 978.781 Q244.699 987.508 241.621 992.114 Q238.565 996.698 232.755 996.698 Q226.945 996.698 223.866 992.114 Q220.811 987.508 220.811 978.781 Q220.811 970.031 223.866 965.448 Q226.945 960.841 232.755 960.841 Z" fill="#000000" fill-rule="nonzero" fill-opacity="1" /><path clip-path="url(#clip540)" d="M262.917 964.545 Q259.306 964.545 257.477 968.11 Q255.671 971.651 255.671 978.781 Q255.671 985.888 257.477 989.452 Q259.306 992.994 262.917 992.994 Q266.551 992.994 268.357 989.452 Q270.185 985.888 270.185 978.781 Q270.185 971.651 268.357 968.11 Q266.551 964.545 262.917 964.545 M262.917 960.841 Q268.727 960.841 271.782 965.448 Q274.861 970.031 274.861 978.781 Q274.861 987.508 271.782 992.114 Q268.727 996.698 262.917 996.698 Q257.107 996.698 254.028 992.114 Q250.972 987.508 250.972 978.781 Q250.972 970.031 254.028 965.448 Q257.107 960.841 262.917 960.841 Z" fill="#000000" fill-rule="nonzero" fill-opacity="1" /><path clip-path="url(#clip540)" d="M283.125 961.466 L301.481 961.466 L301.481 965.401 L287.407 965.401 L287.407 973.874 Q288.426 973.526 289.444 973.364 Q290.463 973.179 291.481 973.179 Q297.268 973.179 300.648 976.351 Q304.028 979.522 304.028 984.938 Q304.028 990.517 300.555 993.619 Q297.083 996.698 290.764 996.698 Q288.588 996.698 286.319 996.327 Q284.074 995.957 281.667 995.216 L281.667 990.517 Q283.75 991.651 285.972 992.207 Q288.194 992.762 290.671 992.762 Q294.676 992.762 297.014 990.656 Q299.352 988.55 299.352 984.938 Q299.352 981.327 297.014 979.221 Q294.676 977.114 290.671 977.114 Q288.796 977.114 286.921 977.531 Q285.069 977.948 283.125 978.827 L283.125 961.466 Z" fill="#000000" fill-rule="nonzero" fill-opacity="1" /><path clip-path="url(#clip540)" d="M126.205 559.053 Q122.593 559.053 120.765 562.618 Q118.959 566.16 118.959 573.289 Q118.959 580.396 120.765 583.96 Q122.593 587.502 126.205 587.502 Q129.839 587.502 131.644 583.96 Q133.473 580.396 133.473 573.289 Q133.473 566.16 131.644 562.618 Q129.839 559.053 126.205 559.053 M126.205 555.349 Q132.015 555.349 135.07 559.956 Q138.149 564.539 138.149 573.289 Q138.149 582.016 135.07 586.622 Q132.015 591.206 126.205 591.206 Q120.394 591.206 117.316 586.622 Q114.26 582.016 114.26 573.289 Q114.26 564.539 117.316 559.956 Q120.394 555.349 126.205 555.349 Z" fill="#000000" fill-rule="nonzero" fill-opacity="1" /><path clip-path="url(#clip540)" d="M146.366 584.655 L151.251 584.655 L151.251 590.534 L146.366 590.534 L146.366 584.655 Z" fill="#000000" fill-rule="nonzero" fill-opacity="1" /><path clip-path="url(#clip540)" d="M171.436 559.053 Q167.825 559.053 165.996 562.618 Q164.19 566.16 164.19 573.289 Q164.19 580.396 165.996 583.96 Q167.825 587.502 171.436 587.502 Q175.07 587.502 176.876 583.96 Q178.704 580.396 178.704 573.289 Q178.704 566.16 176.876 562.618 Q175.07 559.053 171.436 559.053 M171.436 555.349 Q177.246 555.349 180.301 559.956 Q183.38 564.539 183.38 573.289 Q183.38 582.016 180.301 586.622 Q177.246 591.206 171.436 591.206 Q165.626 591.206 162.547 586.622 Q159.491 582.016 159.491 573.289 Q159.491 564.539 162.547 559.956 Q165.626 555.349 171.436 555.349 Z" fill="#000000" fill-rule="nonzero" fill-opacity="1" /><path clip-path="url(#clip540)" d="M201.598 559.053 Q197.987 559.053 196.158 562.618 Q194.352 566.16 194.352 573.289 Q194.352 580.396 196.158 583.96 Q197.987 587.502 201.598 587.502 Q205.232 587.502 207.037 583.96 Q208.866 580.396 208.866 573.289 Q208.866 566.16 207.037 562.618 Q205.232 559.053 201.598 559.053 M201.598 555.349 Q207.408 555.349 210.463 559.956 Q213.542 564.539 213.542 573.289 Q213.542 582.016 210.463 586.622 Q207.408 591.206 201.598 591.206 Q195.787 591.206 192.709 586.622 Q189.653 582.016 189.653 573.289 Q189.653 564.539 192.709 559.956 Q195.787 555.349 201.598 555.349 Z" fill="#000000" fill-rule="nonzero" fill-opacity="1" /><path clip-path="url(#clip540)" d="M231.76 559.053 Q228.148 559.053 226.32 562.618 Q224.514 566.16 224.514 573.289 Q224.514 580.396 226.32 583.96 Q228.148 587.502 231.76 587.502 Q235.394 587.502 237.199 583.96 Q239.028 580.396 239.028 573.289 Q239.028 566.16 237.199 562.618 Q235.394 559.053 231.76 559.053 M231.76 555.349 Q237.57 555.349 240.625 559.956 Q243.704 564.539 243.704 573.289 Q243.704 582.016 240.625 586.622 Q237.57 591.206 231.76 591.206 Q225.949 591.206 222.871 586.622 Q219.815 582.016 219.815 573.289 Q219.815 564.539 222.871 559.956 Q225.949 555.349 231.76 555.349 Z" fill="#000000" fill-rule="nonzero" fill-opacity="1" /><path clip-path="url(#clip540)" d="M252.732 586.599 L260.37 586.599 L260.37 560.234 L252.06 561.9 L252.06 557.641 L260.324 555.974 L265 555.974 L265 586.599 L272.639 586.599 L272.639 590.534 L252.732 590.534 L252.732 586.599 Z" fill="#000000" fill-rule="nonzero" fill-opacity="1" /><path clip-path="url(#clip540)" d="M292.083 559.053 Q288.472 559.053 286.643 562.618 Q284.838 566.16 284.838 573.289 Q284.838 580.396 286.643 583.96 Q288.472 587.502 292.083 587.502 Q295.718 587.502 297.523 583.96 Q299.352 580.396 299.352 573.289 Q299.352 566.16 297.523 562.618 Q295.718 559.053 292.083 559.053 M292.083 555.349 Q297.893 555.349 300.949 559.956 Q304.028 564.539 304.028 573.289 Q304.028 582.016 300.949 586.622 Q297.893 591.206 292.083 591.206 Q286.273 591.206 283.194 586.622 Q280.139 582.016 280.139 573.289 Q280.139 564.539 283.194 559.956 Q286.273 555.349 292.083 555.349 Z" fill="#000000" fill-rule="nonzero" fill-opacity="1" /><path clip-path="url(#clip540)" d="M127.2 153.561 Q123.589 153.561 121.76 157.126 Q119.955 160.668 119.955 167.797 Q119.955 174.904 121.76 178.468 Q123.589 182.01 127.2 182.01 Q130.834 182.01 132.64 178.468 Q134.468 174.904 134.468 167.797 Q134.468 160.668 132.64 157.126 Q130.834 153.561 127.2 153.561 M127.2 149.857 Q133.01 149.857 136.066 154.464 Q139.144 159.047 139.144 167.797 Q139.144 176.524 136.066 181.13 Q133.01 185.714 127.2 185.714 Q121.39 185.714 118.311 181.13 Q115.256 176.524 115.256 167.797 Q115.256 159.047 118.311 154.464 Q121.39 149.857 127.2 149.857 Z" fill="#000000" fill-rule="nonzero" fill-opacity="1" /><path clip-path="url(#clip540)" d="M147.362 179.163 L152.246 179.163 L152.246 185.042 L147.362 185.042 L147.362 179.163 Z" fill="#000000" fill-rule="nonzero" fill-opacity="1" /><path clip-path="url(#clip540)" d="M172.431 153.561 Q168.82 153.561 166.991 157.126 Q165.186 160.668 165.186 167.797 Q165.186 174.904 166.991 178.468 Q168.82 182.01 172.431 182.01 Q176.065 182.01 177.871 178.468 Q179.7 174.904 179.7 167.797 Q179.7 160.668 177.871 157.126 Q176.065 153.561 172.431 153.561 M172.431 149.857 Q178.241 149.857 181.297 154.464 Q184.376 159.047 184.376 167.797 Q184.376 176.524 181.297 181.13 Q178.241 185.714 172.431 185.714 Q166.621 185.714 163.542 181.13 Q160.487 176.524 160.487 167.797 Q160.487 159.047 163.542 154.464 Q166.621 149.857 172.431 149.857 Z" fill="#000000" fill-rule="nonzero" fill-opacity="1" /><path clip-path="url(#clip540)" d="M202.593 153.561 Q198.982 153.561 197.153 157.126 Q195.348 160.668 195.348 167.797 Q195.348 174.904 197.153 178.468 Q198.982 182.01 202.593 182.01 Q206.227 182.01 208.033 178.468 Q209.861 174.904 209.861 167.797 Q209.861 160.668 208.033 157.126 Q206.227 153.561 202.593 153.561 M202.593 149.857 Q208.403 149.857 211.459 154.464 Q214.537 159.047 214.537 167.797 Q214.537 176.524 211.459 181.13 Q208.403 185.714 202.593 185.714 Q196.783 185.714 193.704 181.13 Q190.649 176.524 190.649 167.797 Q190.649 159.047 193.704 154.464 Q196.783 149.857 202.593 149.857 Z" fill="#000000" fill-rule="nonzero" fill-opacity="1" /><path clip-path="url(#clip540)" d="M232.755 153.561 Q229.144 153.561 227.315 157.126 Q225.51 160.668 225.51 167.797 Q225.51 174.904 227.315 178.468 Q229.144 182.01 232.755 182.01 Q236.389 182.01 238.195 178.468 Q240.023 174.904 240.023 167.797 Q240.023 160.668 238.195 157.126 Q236.389 153.561 232.755 153.561 M232.755 149.857 Q238.565 149.857 241.621 154.464 Q244.699 159.047 244.699 167.797 Q244.699 176.524 241.621 181.13 Q238.565 185.714 232.755 185.714 Q226.945 185.714 223.866 181.13 Q220.811 176.524 220.811 167.797 Q220.811 159.047 223.866 154.464 Q226.945 149.857 232.755 149.857 Z" fill="#000000" fill-rule="nonzero" fill-opacity="1" /><path clip-path="url(#clip540)" d="M253.727 181.107 L261.366 181.107 L261.366 154.742 L253.056 156.408 L253.056 152.149 L261.32 150.482 L265.995 150.482 L265.995 181.107 L273.634 181.107 L273.634 185.042 L253.727 185.042 L253.727 181.107 Z" fill="#000000" fill-rule="nonzero" fill-opacity="1" /><path clip-path="url(#clip540)" d="M283.125 150.482 L301.481 150.482 L301.481 154.418 L287.407 154.418 L287.407 162.89 Q288.426 162.543 289.444 162.381 Q290.463 162.195 291.481 162.195 Q297.268 162.195 300.648 165.367 Q304.028 168.538 304.028 173.955 Q304.028 179.533 300.555 182.635 Q297.083 185.714 290.764 185.714 Q288.588 185.714 286.319 185.343 Q284.074 184.973 281.667 184.232 L281.667 179.533 Q283.75 180.667 285.972 181.223 Q288.194 181.779 290.671 181.779 Q294.676 181.779 297.014 179.672 Q299.352 177.566 299.352 173.955 Q299.352 170.343 297.014 168.237 Q294.676 166.131 290.671 166.131 Q288.796 166.131 286.921 166.547 Q285.069 166.964 283.125 167.843 L283.125 150.482 Z" fill="#000000" fill-rule="nonzero" fill-opacity="1" /><path clip-path="url(#clip540)" d="M16.4842 1054.77 L16.4842 1045.19 L48.8219 1033.06 L16.4842 1020.87 L16.4842 1011.29 L64.0042 1011.29 L64.0042 1017.56 L22.277 1017.56 L54.8694 1029.82 L54.8694 1036.28 L22.277 1048.53 L64.0042 1048.53 L64.0042 1054.77 L16.4842 1054.77 Z" fill="#000000" fill-rule="nonzero" fill-opacity="1" /><path clip-path="url(#clip540)" d="M46.0847 982.583 Q46.0847 989.681 47.7079 992.418 Q49.3312 995.156 53.2461 995.156 Q56.3653 995.156 58.2114 993.119 Q60.0256 991.05 60.0256 987.517 Q60.0256 982.647 56.5881 979.719 Q53.1188 976.759 47.3897 976.759 L46.0847 976.759 L46.0847 982.583 M43.6657 970.902 L64.0042 970.902 L64.0042 976.759 L58.5933 976.759 Q61.8398 978.764 63.3994 981.756 Q64.9272 984.748 64.9272 989.076 Q64.9272 994.551 61.8716 997.797 Q58.7843 1001.01 53.6281 1001.01 Q47.6125 1001.01 44.5569 997.002 Q41.5014 992.959 41.5014 984.97 L41.5014 976.759 L40.9285 976.759 Q36.8862 976.759 34.6901 979.432 Q32.4621 982.074 32.4621 986.88 Q32.4621 989.936 33.1941 992.832 Q33.9262 995.729 35.3903 998.402 L29.9795 998.402 Q28.7381 995.187 28.1334 992.164 Q27.4968 989.14 27.4968 986.275 Q27.4968 978.541 31.5072 974.722 Q35.5176 970.902 43.6657 970.902 Z" fill="#000000" fill-rule="nonzero" fill-opacity="1" /><path clip-path="url(#clip540)" d="M29.4065 936.114 L34.9447 936.114 Q33.6716 938.596 33.035 941.27 Q32.3984 943.943 32.3984 946.808 Q32.3984 951.169 33.7352 953.365 Q35.072 955.529 37.7456 955.529 Q39.7826 955.529 40.9603 953.969 Q42.1061 952.41 43.1565 947.699 L43.6021 945.694 Q44.9389 939.456 47.3897 936.846 Q49.8086 934.204 54.1691 934.204 Q59.1344 934.204 62.0308 938.151 Q64.9272 942.066 64.9272 948.941 Q64.9272 951.805 64.3543 954.924 Q63.8132 958.012 62.6992 961.449 L56.6518 961.449 Q58.3387 958.203 59.198 955.052 Q60.0256 951.901 60.0256 948.813 Q60.0256 944.676 58.6251 942.448 Q57.1929 940.22 54.6147 940.22 Q52.2276 940.22 50.9545 941.843 Q49.6813 943.434 48.5037 948.877 L48.0262 950.914 Q46.8804 956.357 44.5251 958.776 Q42.138 961.195 38.0002 961.195 Q32.9713 961.195 30.2341 957.63 Q27.4968 954.065 27.4968 947.508 Q27.4968 944.262 27.9743 941.397 Q28.4517 938.533 29.4065 936.114 Z" fill="#000000" fill-rule="nonzero" fill-opacity="1" /><path clip-path="url(#clip540)" d="M29.4065 902.153 L34.9447 902.153 Q33.6716 904.635 33.035 907.309 Q32.3984 909.982 32.3984 912.847 Q32.3984 917.208 33.7352 919.404 Q35.072 921.568 37.7456 921.568 Q39.7826 921.568 40.9603 920.008 Q42.1061 918.449 43.1565 913.738 L43.6021 911.733 Q44.9389 905.495 47.3897 902.885 Q49.8086 900.243 54.1691 900.243 Q59.1344 900.243 62.0308 904.19 Q64.9272 908.105 64.9272 914.98 Q64.9272 917.844 64.3543 920.963 Q63.8132 924.051 62.6992 927.488 L56.6518 927.488 Q58.3387 924.242 59.198 921.091 Q60.0256 917.94 60.0256 914.852 Q60.0256 910.715 58.6251 908.487 Q57.1929 906.259 54.6147 906.259 Q52.2276 906.259 50.9545 907.882 Q49.6813 909.473 48.5037 914.916 L48.0262 916.953 Q46.8804 922.396 44.5251 924.815 Q42.138 927.234 38.0002 927.234 Q32.9713 927.234 30.2341 923.669 Q27.4968 920.104 27.4968 913.547 Q27.4968 910.301 27.9743 907.436 Q28.4517 904.572 29.4065 902.153 Z" fill="#000000" fill-rule="nonzero" fill-opacity="1" /><path clip-path="url(#clip540)" d="M14.479 852.15 L19.3487 852.15 L19.3487 857.752 Q19.3487 860.903 20.6219 862.144 Q21.895 863.354 25.2052 863.354 L28.3562 863.354 L28.3562 853.71 L32.9077 853.71 L32.9077 863.354 L64.0042 863.354 L64.0042 869.242 L32.9077 869.242 L32.9077 874.844 L28.3562 874.844 L28.3562 869.242 L25.8736 869.242 Q19.9216 869.242 17.2162 866.473 Q14.479 863.704 14.479 857.688 L14.479 852.15 Z" fill="#000000" fill-rule="nonzero" fill-opacity="1" /><path clip-path="url(#clip540)" d="M14.479 847.248 L14.479 841.392 L64.0042 841.392 L64.0042 847.248 L14.479 847.248 Z" fill="#000000" fill-rule="nonzero" fill-opacity="1" /><path clip-path="url(#clip540)" d="M32.4621 815.324 Q32.4621 820.035 36.1542 822.772 Q39.8145 825.51 46.212 825.51 Q52.6095 825.51 56.3017 822.804 Q59.9619 820.067 59.9619 815.324 Q59.9619 810.646 56.2698 807.908 Q52.5777 805.171 46.212 805.171 Q39.8781 805.171 36.186 807.908 Q32.4621 810.646 32.4621 815.324 M27.4968 815.324 Q27.4968 807.686 32.4621 803.325 Q37.4273 798.965 46.212 798.965 Q54.9649 798.965 59.9619 803.325 Q64.9272 807.686 64.9272 815.324 Q64.9272 822.995 59.9619 827.356 Q54.9649 831.684 46.212 831.684 Q37.4273 831.684 32.4621 827.356 Q27.4968 822.995 27.4968 815.324 Z" fill="#000000" fill-rule="nonzero" fill-opacity="1" /><path clip-path="url(#clip540)" d="M28.3562 792.662 L28.3562 786.806 L56.1743 779.485 L28.3562 772.197 L28.3562 765.29 L56.1743 757.969 L28.3562 750.681 L28.3562 744.824 L64.0042 754.15 L64.0042 761.057 L34.7856 768.727 L64.0042 776.43 L64.0042 783.337 L28.3562 792.662 Z" fill="#000000" fill-rule="nonzero" fill-opacity="1" /><path clip-path="url(#clip540)" d="M33.8307 694.567 Q33.2578 695.554 33.0032 696.731 Q32.7167 697.877 32.7167 699.278 Q32.7167 704.243 35.9632 706.916 Q39.1779 709.558 45.2253 709.558 L64.0042 709.558 L64.0042 715.446 L28.3562 715.446 L28.3562 709.558 L33.8944 709.558 Q30.6479 707.712 29.0883 704.752 Q27.4968 701.792 27.4968 697.559 Q27.4968 696.954 27.5923 696.222 Q27.656 695.49 27.8151 694.599 L33.8307 694.567 Z" fill="#000000" fill-rule="nonzero" fill-opacity="1" /><path clip-path="url(#clip540)" d="M46.0847 672.223 Q46.0847 679.321 47.7079 682.058 Q49.3312 684.796 53.2461 684.796 Q56.3653 684.796 58.2114 682.759 Q60.0256 680.69 60.0256 677.157 Q60.0256 672.287 56.5881 669.359 Q53.1188 666.399 47.3897 666.399 L46.0847 666.399 L46.0847 672.223 M43.6657 660.542 L64.0042 660.542 L64.0042 666.399 L58.5933 666.399 Q61.8398 668.404 63.3994 671.396 Q64.9272 674.388 64.9272 678.716 Q64.9272 684.191 61.8716 687.437 Q58.7843 690.652 53.6281 690.652 Q47.6125 690.652 44.5569 686.642 Q41.5014 682.599 41.5014 674.61 L41.5014 666.399 L40.9285 666.399 Q36.8862 666.399 34.6901 669.072 Q32.4621 671.714 32.4621 676.52 Q32.4621 679.576 33.1941 682.472 Q33.9262 685.368 35.3903 688.042 L29.9795 688.042 Q28.7381 684.827 28.1334 681.804 Q27.4968 678.78 27.4968 675.915 Q27.4968 668.181 31.5072 664.362 Q35.5176 660.542 43.6657 660.542 Z" fill="#000000" fill-rule="nonzero" fill-opacity="1" /><path clip-path="url(#clip540)" d="M18.2347 642.686 L28.3562 642.686 L28.3562 630.623 L32.9077 630.623 L32.9077 642.686 L52.2594 642.686 Q56.6199 642.686 57.8613 641.509 Q59.1026 640.299 59.1026 636.639 L59.1026 630.623 L64.0042 630.623 L64.0042 636.639 Q64.0042 643.418 61.4897 645.997 Q58.9434 648.575 52.2594 648.575 L32.9077 648.575 L32.9077 652.872 L28.3562 652.872 L28.3562 648.575 L18.2347 648.575 L18.2347 642.686 Z" fill="#000000" fill-rule="nonzero" fill-opacity="1" /><path clip-path="url(#clip540)" d="M44.7161 592.429 L47.5806 592.429 L47.5806 619.356 Q53.6281 618.974 56.8109 615.728 Q59.9619 612.449 59.9619 606.625 Q59.9619 603.251 59.1344 600.1 Q58.3069 596.917 56.6518 593.798 L62.1899 593.798 Q63.5267 596.949 64.227 600.259 Q64.9272 603.569 64.9272 606.975 Q64.9272 615.505 59.9619 620.502 Q54.9967 625.467 46.5303 625.467 Q37.7774 625.467 32.6531 620.757 Q27.4968 616.014 27.4968 607.993 Q27.4968 600.8 32.1438 596.631 Q36.7589 592.429 44.7161 592.429 M42.9973 598.286 Q38.1912 598.349 35.3266 600.991 Q32.4621 603.601 32.4621 607.93 Q32.4621 612.831 35.2312 615.791 Q38.0002 618.72 43.0292 619.165 L42.9973 598.286 Z" fill="#000000" fill-rule="nonzero" fill-opacity="1" /><path clip-path="url(#clip540)" d="M55.9197 581.321 L55.9197 574.605 L61.3942 574.605 L71.5793 579.825 L71.5793 583.931 L61.3942 581.321 L55.9197 581.321 Z" fill="#000000" fill-rule="nonzero" fill-opacity="1" /><path clip-path="url(#clip540)" d="M14.479 541.599 L14.479 535.711 L43.7294 535.711 L28.3562 518.237 L28.3562 510.757 L45.0344 529.663 L64.0042 509.961 L64.0042 517.6 L46.5939 535.711 L64.0042 535.711 L64.0042 541.599 L14.479 541.599 Z" fill="#000000" fill-rule="nonzero" fill-opacity="1" /><path clip-path="url(#clip540)" d="M45.7664 480.17 Q39.4007 480.17 35.8996 482.812 Q32.3984 485.422 32.3984 490.164 Q32.3984 494.875 35.8996 497.516 Q39.4007 500.126 45.7664 500.126 Q52.1003 500.126 55.6014 497.516 Q59.1026 494.875 59.1026 490.164 Q59.1026 485.422 55.6014 482.812 Q52.1003 480.17 45.7664 480.17 M59.58 474.313 Q68.683 474.313 73.1071 478.356 Q77.5631 482.398 77.5631 490.737 Q77.5631 493.824 77.0857 496.562 Q76.6401 499.299 75.6852 501.877 L69.9879 501.877 Q71.3884 499.299 72.0568 496.784 Q72.7252 494.27 72.7252 491.66 Q72.7252 485.899 69.7015 483.035 Q66.7096 480.17 60.6303 480.17 L57.7339 480.17 Q60.885 481.984 62.4446 484.817 Q64.0042 487.65 64.0042 491.596 Q64.0042 498.153 59.0071 502.163 Q54.01 506.174 45.7664 506.174 Q37.491 506.174 32.4939 502.163 Q27.4968 498.153 27.4968 491.596 Q27.4968 487.65 29.0564 484.817 Q30.616 481.984 33.7671 480.17 L28.3562 480.17 L28.3562 474.313 L59.58 474.313 Z" fill="#000000" fill-rule="nonzero" fill-opacity="1" /><path clip-path="url(#clip540)" d="M16.4842 451.843 L16.4842 446.432 L70.0516 462.983 L70.0516 468.393 L16.4842 451.843 Z" fill="#000000" fill-rule="nonzero" fill-opacity="1" /><path clip-path="url(#clip540)" d="M29.4065 417.563 L34.9447 417.563 Q33.6716 420.046 33.035 422.719 Q32.3984 425.393 32.3984 428.258 Q32.3984 432.618 33.7352 434.814 Q35.072 436.979 37.7456 436.979 Q39.7826 436.979 40.9603 435.419 Q42.1061 433.859 43.1565 429.149 L43.6021 427.144 Q44.9389 420.905 47.3897 418.295 Q49.8086 415.653 54.1691 415.653 Q59.1344 415.653 62.0308 419.6 Q64.9272 423.515 64.9272 430.39 Q64.9272 433.255 64.3543 436.374 Q63.8132 439.461 62.6992 442.899 L56.6518 442.899 Q58.3387 439.652 59.198 436.501 Q60.0256 433.35 60.0256 430.263 Q60.0256 426.125 58.6251 423.897 Q57.1929 421.669 54.6147 421.669 Q52.2276 421.669 50.9545 423.292 Q49.6813 424.884 48.5037 430.326 L48.0262 432.363 Q46.8804 437.806 44.5251 440.225 Q42.138 442.644 38.0002 442.644 Q32.9713 442.644 30.2341 439.079 Q27.4968 435.515 27.4968 428.958 Q27.4968 425.711 27.9743 422.847 Q28.4517 419.982 29.4065 417.563 Z" fill="#000000" fill-rule="nonzero" fill-opacity="1" /><polyline clip-path="url(#clip542)" style="stroke:#0000ff; stroke-linecap:round; stroke-linejoin:round; stroke-width:4; stroke-opacity:1; fill:none" points="396.992,86.1857 416.171,165.367 435.351,239.719 454.531,309.535 473.711,375.092 492.891,436.65 512.07,494.453 531.25,548.73 550.43,599.696 569.61,647.554 588.79,692.492 607.969,734.688 627.149,774.311 646.329,811.517 665.509,846.453 684.689,879.258 703.868,910.062 723.048,938.987 742.228,966.147 761.408,991.651 780.588,1015.6 799.767,1038.09 818.947,1059.2 838.127,1079.03 857.307,1097.65 876.487,1115.13 895.666,1131.54 914.846,1146.96 934.026,1161.43 953.206,1175.02 972.386,1187.79 991.565,1199.77 1010.75,1211.02 1029.93,1221.59 1049.1,1231.51 1068.28,1240.83 1087.46,1249.57 1106.64,1257.79 1125.82,1265.5 1145,1272.75 1164.18,1279.55 1183.36,1285.93 1202.54,1291.93 1221.72,1297.56 1240.9,1302.85 1260.08,1307.81 1279.26,1312.47 1298.44,1316.85 1317.62,1320.96 1336.8,1324.82 1355.98,1328.45 1375.16,1331.85 1394.34,1335.05 1413.52,1338.05 1432.7,1340.86 1451.88,1343.51 1471.06,1345.99 1490.24,1348.33 1509.42,1350.52 1528.6,1352.58 1547.78,1354.51 1566.96,1356.32 1586.14,1358.02 1605.32,1359.62 1624.5,1361.12 1643.68,1362.53 1662.86,1363.86 1682.04,1365.1 1701.22,1366.27 1720.4,1367.36 1739.58,1368.39 1758.76,1369.36 1777.94,1370.27 1797.12,1371.12 1816.3,1371.92 1835.48,1372.67 1854.66,1373.38 1873.84,1374.04 1893.02,1374.66 1912.2,1375.25 1931.38,1375.79 1950.56,1376.31 1969.74,1376.79 1988.92,1377.25 2008.09,1377.67 2027.27,1378.07 2046.45,1378.45 2065.63,1378.8 2084.81,1379.13 2103.99,1379.45 2123.17,1379.74 2142.35,1380.01 2161.53,1380.27 2180.71,1380.51 2199.89,1380.74 2219.07,1380.95 2238.25,1381.15 2257.43,1381.34 2276.61,1381.52 2295.79,1381.68 "/>
<polyline clip-path="url(#clip542)" style="stroke:#ff0000; stroke-linecap:round; stroke-linejoin:round; stroke-width:4; stroke-opacity:1; fill:none" points="396.992,86.1857 416.171,165.367 435.351,239.719 454.531,309.535 473.711,375.092 492.891,436.65 512.07,494.453 531.25,548.73 550.43,599.697 569.61,647.554 588.79,692.492 607.969,734.688 627.149,774.311 646.329,811.517 665.509,846.454 684.689,879.26 703.868,910.063 723.048,938.987 742.228,966.147 761.408,991.65 780.588,1015.6 799.767,1038.09 818.947,1059.2 838.127,1079.03 857.307,1097.65 876.487,1115.13 895.666,1131.54 914.846,1146.96 934.026,1161.43 953.206,1175.03 972.386,1187.79 991.565,1199.77 1010.75,1211.02 1029.93,1221.59 1049.1,1231.51 1068.28,1240.83 1087.46,1249.58 1106.64,1257.79 1125.82,1265.5 1145,1272.75 1164.18,1279.55 1183.36,1285.93 1202.54,1291.93 1221.72,1297.56 1240.9,1302.85 1260.08,1307.81 1279.26,1312.48 1298.44,1316.85 1317.62,1320.96 1336.8,1324.82 1355.98,1328.45 1375.16,1331.85 1394.34,1335.04 1413.52,1338.05 1432.7,1340.86 1451.88,1343.51 1471.06,1346 1490.24,1348.33 1509.42,1350.52 1528.6,1352.58 1547.78,1354.51 1566.96,1356.32 1586.14,1358.02 1605.32,1359.62 1624.5,1361.13 1643.68,1362.55 1662.86,1363.88 1682.04,1365.13 1701.22,1366.3 1720.4,1367.38 1739.58,1368.4 1758.76,1369.34 1777.94,1370.23 1797.12,1371.07 1816.3,1371.87 1835.48,1372.64 1854.66,1373.42 1873.84,1374.2 1893.02,1374.99 1912.2,1375.78 1931.38,1376.58 1950.56,1377.38 1969.74,1378.21 1988.92,1379.04 2008.09,1379.88 2027.27,1380.71 2046.45,1381.59 2065.63,1382.57 2084.81,1383.37 2103.99,1383.48 2123.17,1384.24 2142.35,1384.24 2161.53,1384.24 2180.71,1384.24 2199.89,1384.24 2219.07,1384.24 2238.25,1384.24 2257.43,1384.24 2276.61,1384.24 2295.79,1384.24 "/>
<circle clip-path="url(#clip542)" cx="2123.17" cy="1384.24" r="14.4" fill="#ff0000" fill-rule="evenodd" fill-opacity="1" stroke="#000000" stroke-opacity="1" stroke-width="3.2"/>
<polyline clip-path="url(#clip542)" style="stroke:#d3d3d3; stroke-linecap:round; stroke-linejoin:round; stroke-width:4; stroke-opacity:1; fill:none" points="2061.17,1376.13 1883,1010.4 "/>
<polyline clip-path="url(#clip542)" style="stroke:#d3d3d3; stroke-linecap:round; stroke-linejoin:round; stroke-width:4; stroke-opacity:1; fill:none" points="1989.09,1384.24 1989.09,1376.13 2137.19,1376.13 2137.19,1384.24 1989.09,1384.24 "/>
<path clip-path="url(#clip540)" d="M1636.48 248.629 L2285.66 248.629 L2285.66 93.1086 L1636.48 93.1086  Z" fill="#ffffff" fill-rule="evenodd" fill-opacity="1"/>
<polyline clip-path="url(#clip540)" style="stroke:#000000; stroke-linecap:round; stroke-linejoin:round; stroke-width:4; stroke-opacity:1; fill:none" points="1636.48,248.629 2285.66,248.629 2285.66,93.1086 1636.48,93.1086 1636.48,248.629 "/>
<polyline clip-path="url(#clip540)" style="stroke:#0000ff; stroke-linecap:round; stroke-linejoin:round; stroke-width:4; stroke-opacity:1; fill:none" points="1658.84,144.949 1793.02,144.949 "/>
<path clip-path="url(#clip540)" d="M1815.39 127.669 L1835.25 127.669 L1835.25 131.604 L1820.06 131.604 L1820.06 141.789 L1833.77 141.789 L1833.77 145.724 L1820.06 145.724 L1820.06 162.229 L1815.39 162.229 L1815.39 127.669 Z" fill="#000000" fill-rule="nonzero" fill-opacity="1" /><path clip-path="url(#clip540)" d="M1839.44 151.997 L1839.44 136.303 L1843.7 136.303 L1843.7 151.835 Q1843.7 155.516 1845.13 157.368 Q1846.57 159.196 1849.44 159.196 Q1852.89 159.196 1854.88 156.997 Q1856.89 154.798 1856.89 151.002 L1856.89 136.303 L1861.15 136.303 L1861.15 162.229 L1856.89 162.229 L1856.89 158.247 Q1855.34 160.608 1853.28 161.766 Q1851.24 162.9 1848.54 162.9 Q1844.07 162.9 1841.75 160.122 Q1839.44 157.344 1839.44 151.997 M1850.16 135.678 L1850.16 135.678 Z" fill="#000000" fill-rule="nonzero" fill-opacity="1" /><path clip-path="url(#clip540)" d="M1869.92 126.21 L1874.18 126.21 L1874.18 162.229 L1869.92 162.229 L1869.92 126.21 Z" fill="#000000" fill-rule="nonzero" fill-opacity="1" /><path clip-path="url(#clip540)" d="M1883.1 126.21 L1887.35 126.21 L1887.35 162.229 L1883.1 162.229 L1883.1 126.21 Z" fill="#000000" fill-rule="nonzero" fill-opacity="1" /><path clip-path="url(#clip540)" d="M1907.05 164.636 Q1905.25 169.266 1903.53 170.678 Q1901.82 172.09 1898.95 172.09 L1895.55 172.09 L1895.55 168.525 L1898.05 168.525 Q1899.81 168.525 1900.78 167.692 Q1901.75 166.858 1902.93 163.756 L1903.7 161.812 L1893.21 136.303 L1897.72 136.303 L1905.83 156.581 L1913.93 136.303 L1918.44 136.303 L1907.05 164.636 Z" fill="#000000" fill-rule="nonzero" fill-opacity="1" /><path clip-path="url(#clip540)" d="M1958.05 137.298 L1958.05 141.28 Q1956.24 140.284 1954.41 139.798 Q1952.61 139.289 1950.76 139.289 Q1946.61 139.289 1944.32 141.928 Q1942.03 144.544 1942.03 149.289 Q1942.03 154.034 1944.32 156.673 Q1946.61 159.289 1950.76 159.289 Q1952.61 159.289 1954.41 158.803 Q1956.24 158.293 1958.05 157.298 L1958.05 161.233 Q1956.27 162.067 1954.34 162.483 Q1952.45 162.9 1950.29 162.9 Q1944.44 162.9 1940.99 159.219 Q1937.54 155.539 1937.54 149.289 Q1937.54 142.946 1941.01 139.312 Q1944.51 135.678 1950.57 135.678 Q1952.54 135.678 1954.41 136.095 Q1956.29 136.488 1958.05 137.298 Z" fill="#000000" fill-rule="nonzero" fill-opacity="1" /><path clip-path="url(#clip540)" d="M1987.01 146.581 L1987.01 162.229 L1982.75 162.229 L1982.75 146.719 Q1982.75 143.039 1981.31 141.21 Q1979.88 139.382 1977.01 139.382 Q1973.56 139.382 1971.57 141.581 Q1969.58 143.78 1969.58 147.576 L1969.58 162.229 L1965.29 162.229 L1965.29 126.21 L1969.58 126.21 L1969.58 140.331 Q1971.1 137.993 1973.16 136.835 Q1975.25 135.678 1977.96 135.678 Q1982.42 135.678 1984.71 138.456 Q1987.01 141.21 1987.01 146.581 Z" fill="#000000" fill-rule="nonzero" fill-opacity="1" /><path clip-path="url(#clip540)" d="M2005.55 139.289 Q2002.12 139.289 2000.13 141.974 Q1998.14 144.636 1998.14 149.289 Q1998.14 153.942 2000.11 156.627 Q2002.1 159.289 2005.55 159.289 Q2008.95 159.289 2010.94 156.604 Q2012.93 153.918 2012.93 149.289 Q2012.93 144.682 2010.94 141.997 Q2008.95 139.289 2005.55 139.289 M2005.55 135.678 Q2011.1 135.678 2014.27 139.289 Q2017.45 142.9 2017.45 149.289 Q2017.45 155.655 2014.27 159.289 Q2011.1 162.9 2005.55 162.9 Q1999.97 162.9 1996.8 159.289 Q1993.65 155.655 1993.65 149.289 Q1993.65 142.9 1996.8 139.289 Q1999.97 135.678 2005.55 135.678 Z" fill="#000000" fill-rule="nonzero" fill-opacity="1" /><path clip-path="url(#clip540)" d="M2024.34 126.21 L2028.63 126.21 L2028.63 147.483 L2041.33 136.303 L2046.77 136.303 L2033.02 148.432 L2047.35 162.229 L2041.8 162.229 L2028.63 149.567 L2028.63 162.229 L2024.34 162.229 L2024.34 126.21 Z" fill="#000000" fill-rule="nonzero" fill-opacity="1" /><path clip-path="url(#clip540)" d="M2072.45 148.201 L2072.45 150.284 L2052.86 150.284 Q2053.14 154.682 2055.5 156.997 Q2057.89 159.289 2062.12 159.289 Q2064.58 159.289 2066.87 158.687 Q2069.18 158.085 2071.45 156.881 L2071.45 160.909 Q2069.16 161.881 2066.75 162.391 Q2064.34 162.9 2061.87 162.9 Q2055.66 162.9 2052.03 159.289 Q2048.42 155.678 2048.42 149.52 Q2048.42 143.155 2051.84 139.428 Q2055.29 135.678 2061.13 135.678 Q2066.36 135.678 2069.39 139.057 Q2072.45 142.414 2072.45 148.201 M2068.19 146.951 Q2068.14 143.456 2066.22 141.372 Q2064.32 139.289 2061.17 139.289 Q2057.61 139.289 2055.46 141.303 Q2053.33 143.317 2053 146.974 L2068.19 146.951 Z" fill="#000000" fill-rule="nonzero" fill-opacity="1" /><path clip-path="url(#clip540)" d="M2096.5 140.238 L2096.5 126.21 L2100.76 126.21 L2100.76 162.229 L2096.5 162.229 L2096.5 158.34 Q2095.15 160.655 2093.09 161.789 Q2091.06 162.9 2088.19 162.9 Q2083.49 162.9 2080.52 159.15 Q2077.58 155.4 2077.58 149.289 Q2077.58 143.178 2080.52 139.428 Q2083.49 135.678 2088.19 135.678 Q2091.06 135.678 2093.09 136.812 Q2095.15 137.923 2096.5 140.238 M2081.98 149.289 Q2081.98 153.988 2083.9 156.673 Q2085.85 159.335 2089.23 159.335 Q2092.61 159.335 2094.55 156.673 Q2096.5 153.988 2096.5 149.289 Q2096.5 144.59 2094.55 141.928 Q2092.61 139.243 2089.23 139.243 Q2085.85 139.243 2083.9 141.928 Q2081.98 144.59 2081.98 149.289 Z" fill="#000000" fill-rule="nonzero" fill-opacity="1" /><path clip-path="url(#clip540)" d="M2144.78 141.28 Q2146.38 138.409 2148.6 137.044 Q2150.83 135.678 2153.83 135.678 Q2157.89 135.678 2160.08 138.525 Q2162.28 141.349 2162.28 146.581 L2162.28 162.229 L2158 162.229 L2158 146.719 Q2158 142.993 2156.68 141.187 Q2155.36 139.382 2152.65 139.382 Q2149.34 139.382 2147.42 141.581 Q2145.5 143.78 2145.5 147.576 L2145.5 162.229 L2141.22 162.229 L2141.22 146.719 Q2141.22 142.969 2139.9 141.187 Q2138.58 139.382 2135.83 139.382 Q2132.56 139.382 2130.64 141.604 Q2128.72 143.803 2128.72 147.576 L2128.72 162.229 L2124.44 162.229 L2124.44 136.303 L2128.72 136.303 L2128.72 140.331 Q2130.18 137.946 2132.21 136.812 Q2134.25 135.678 2137.05 135.678 Q2139.88 135.678 2141.84 137.113 Q2143.83 138.548 2144.78 141.28 Z" fill="#000000" fill-rule="nonzero" fill-opacity="1" /><path clip-path="url(#clip540)" d="M2180.82 139.289 Q2177.4 139.289 2175.41 141.974 Q2173.42 144.636 2173.42 149.289 Q2173.42 153.942 2175.39 156.627 Q2177.38 159.289 2180.82 159.289 Q2184.23 159.289 2186.22 156.604 Q2188.21 153.918 2188.21 149.289 Q2188.21 144.682 2186.22 141.997 Q2184.23 139.289 2180.82 139.289 M2180.82 135.678 Q2186.38 135.678 2189.55 139.289 Q2192.72 142.9 2192.72 149.289 Q2192.72 155.655 2189.55 159.289 Q2186.38 162.9 2180.82 162.9 Q2175.25 162.9 2172.07 159.289 Q2168.93 155.655 2168.93 149.289 Q2168.93 142.9 2172.07 139.289 Q2175.25 135.678 2180.82 135.678 Z" fill="#000000" fill-rule="nonzero" fill-opacity="1" /><path clip-path="url(#clip540)" d="M2216.84 140.238 L2216.84 126.21 L2221.1 126.21 L2221.1 162.229 L2216.84 162.229 L2216.84 158.34 Q2215.5 160.655 2213.44 161.789 Q2211.4 162.9 2208.53 162.9 Q2203.83 162.9 2200.87 159.15 Q2197.93 155.4 2197.93 149.289 Q2197.93 143.178 2200.87 139.428 Q2203.83 135.678 2208.53 135.678 Q2211.4 135.678 2213.44 136.812 Q2215.5 137.923 2216.84 140.238 M2202.33 149.289 Q2202.33 153.988 2204.25 156.673 Q2206.2 159.335 2209.57 159.335 Q2212.95 159.335 2214.9 156.673 Q2216.84 153.988 2216.84 149.289 Q2216.84 144.59 2214.9 141.928 Q2212.95 139.243 2209.57 139.243 Q2206.2 139.243 2204.25 141.928 Q2202.33 144.59 2202.33 149.289 Z" fill="#000000" fill-rule="nonzero" fill-opacity="1" /><path clip-path="url(#clip540)" d="M2252.05 148.201 L2252.05 150.284 L2232.47 150.284 Q2232.75 154.682 2235.11 156.997 Q2237.49 159.289 2241.73 159.289 Q2244.18 159.289 2246.47 158.687 Q2248.79 158.085 2251.06 156.881 L2251.06 160.909 Q2248.76 161.881 2246.36 162.391 Q2243.95 162.9 2241.47 162.9 Q2235.27 162.9 2231.63 159.289 Q2228.02 155.678 2228.02 149.52 Q2228.02 143.155 2231.45 139.428 Q2234.9 135.678 2240.73 135.678 Q2245.96 135.678 2249 139.057 Q2252.05 142.414 2252.05 148.201 M2247.79 146.951 Q2247.75 143.456 2245.82 141.372 Q2243.93 139.289 2240.78 139.289 Q2237.21 139.289 2235.06 141.303 Q2232.93 143.317 2232.61 146.974 L2247.79 146.951 Z" fill="#000000" fill-rule="nonzero" fill-opacity="1" /><path clip-path="url(#clip540)" d="M2259.04 126.21 L2263.3 126.21 L2263.3 162.229 L2259.04 162.229 L2259.04 126.21 Z" fill="#000000" fill-rule="nonzero" fill-opacity="1" /><polyline clip-path="url(#clip540)" style="stroke:#ff0000; stroke-linecap:round; stroke-linejoin:round; stroke-width:4; stroke-opacity:1; fill:none" points="1658.84,196.789 1793.02,196.789 "/>
<path clip-path="url(#clip540)" d="M1831.41 182.68 Q1826.31 182.68 1823.3 186.476 Q1820.32 190.272 1820.32 196.823 Q1820.32 203.351 1823.3 207.147 Q1826.31 210.944 1831.41 210.944 Q1836.5 210.944 1839.46 207.147 Q1842.45 203.351 1842.45 196.823 Q1842.45 190.272 1839.46 186.476 Q1836.5 182.68 1831.41 182.68 M1831.41 178.884 Q1838.67 178.884 1843.03 183.768 Q1847.38 188.629 1847.38 196.823 Q1847.38 204.995 1843.03 209.879 Q1838.67 214.74 1831.41 214.74 Q1824.11 214.74 1819.74 209.879 Q1815.39 205.018 1815.39 196.823 Q1815.39 188.629 1819.74 183.768 Q1824.11 178.884 1831.41 178.884 Z" fill="#000000" fill-rule="nonzero" fill-opacity="1" /><path clip-path="url(#clip540)" d="M1859.37 183.351 L1859.37 210.226 L1865.02 210.226 Q1872.17 210.226 1875.48 206.985 Q1878.81 203.745 1878.81 196.754 Q1878.81 189.809 1875.48 186.592 Q1872.17 183.351 1865.02 183.351 L1859.37 183.351 M1854.69 179.509 L1864.3 179.509 Q1874.35 179.509 1879.04 183.698 Q1883.74 187.865 1883.74 196.754 Q1883.74 205.689 1879.02 209.879 Q1874.3 214.069 1864.3 214.069 L1854.69 214.069 L1854.69 179.509 Z" fill="#000000" fill-rule="nonzero" fill-opacity="1" /><path clip-path="url(#clip540)" d="M1891.2 179.509 L1913.05 179.509 L1913.05 183.444 L1895.87 183.444 L1895.87 193.675 L1912.33 193.675 L1912.33 197.61 L1895.87 197.61 L1895.87 210.133 L1913.47 210.133 L1913.47 214.069 L1891.2 214.069 L1891.2 179.509 Z" fill="#000000" fill-rule="nonzero" fill-opacity="1" /><path clip-path="url(#clip540)" d="M1346.39 1010.4 L2151.48 1010.4 L2151.48 460.025 L1346.39 460.025  Z" fill="#ffffff" fill-rule="evenodd" fill-opacity="1"/>
<defs>
  <clipPath id="clip543">
    <rect x="1346" y="460" width="806" height="551"/>
  </clipPath>
</defs>
<polyline clip-path="url(#clip543)" style="stroke:#000000; stroke-linecap:round; stroke-linejoin:round; stroke-width:2; stroke-opacity:0.1; fill:none" points="1346.39,1010.4 1346.39,460.025 "/>
<polyline clip-path="url(#clip543)" style="stroke:#000000; stroke-linecap:round; stroke-linejoin:round; stroke-width:2; stroke-opacity:0.1; fill:none" points="1547.66,1010.4 1547.66,460.025 "/>
<polyline clip-path="url(#clip543)" style="stroke:#000000; stroke-linecap:round; stroke-linejoin:round; stroke-width:2; stroke-opacity:0.1; fill:none" points="1748.94,1010.4 1748.94,460.025 "/>
<polyline clip-path="url(#clip543)" style="stroke:#000000; stroke-linecap:round; stroke-linejoin:round; stroke-width:2; stroke-opacity:0.1; fill:none" points="1950.21,1010.4 1950.21,460.025 "/>
<polyline clip-path="url(#clip543)" style="stroke:#000000; stroke-linecap:round; stroke-linejoin:round; stroke-width:2; stroke-opacity:0.1; fill:none" points="1346.39,1010.4 2151.48,1010.4 "/>
<polyline clip-path="url(#clip543)" style="stroke:#000000; stroke-linecap:round; stroke-linejoin:round; stroke-width:2; stroke-opacity:0.1; fill:none" points="1346.39,900.324 2151.48,900.324 "/>
<polyline clip-path="url(#clip543)" style="stroke:#000000; stroke-linecap:round; stroke-linejoin:round; stroke-width:2; stroke-opacity:0.1; fill:none" points="1346.39,790.249 2151.48,790.249 "/>
<polyline clip-path="url(#clip543)" style="stroke:#000000; stroke-linecap:round; stroke-linejoin:round; stroke-width:2; stroke-opacity:0.1; fill:none" points="1346.39,680.175 2151.48,680.175 "/>
<polyline clip-path="url(#clip543)" style="stroke:#000000; stroke-linecap:round; stroke-linejoin:round; stroke-width:2; stroke-opacity:0.1; fill:none" points="1346.39,570.1 2151.48,570.1 "/>
<polyline clip-path="url(#clip543)" style="stroke:#000000; stroke-linecap:round; stroke-linejoin:round; stroke-width:2; stroke-opacity:0.1; fill:none" points="1346.39,460.025 2151.48,460.025 "/>
<polyline clip-path="url(#clip540)" style="stroke:#000000; stroke-linecap:round; stroke-linejoin:round; stroke-width:4; stroke-opacity:1; fill:none" points="1346.39,1010.4 2151.48,1010.4 "/>
<polyline clip-path="url(#clip540)" style="stroke:#000000; stroke-linecap:round; stroke-linejoin:round; stroke-width:4; stroke-opacity:1; fill:none" points="1346.39,1010.4 1346.39,991.501 "/>
<polyline clip-path="url(#clip540)" style="stroke:#000000; stroke-linecap:round; stroke-linejoin:round; stroke-width:4; stroke-opacity:1; fill:none" points="1547.66,1010.4 1547.66,991.501 "/>
<polyline clip-path="url(#clip540)" style="stroke:#000000; stroke-linecap:round; stroke-linejoin:round; stroke-width:4; stroke-opacity:1; fill:none" points="1748.94,1010.4 1748.94,991.501 "/>
<polyline clip-path="url(#clip540)" style="stroke:#000000; stroke-linecap:round; stroke-linejoin:round; stroke-width:4; stroke-opacity:1; fill:none" points="1950.21,1010.4 1950.21,991.501 "/>
<path clip-path="url(#clip540)" d="M1303.05 1068.86 L1319.37 1068.86 L1319.37 1072.8 L1297.42 1072.8 L1297.42 1068.86 Q1300.08 1066.11 1304.67 1061.48 Q1309.27 1056.83 1310.45 1055.48 Q1312.7 1052.96 1313.58 1051.23 Q1314.48 1049.47 1314.48 1047.78 Q1314.48 1045.02 1312.54 1043.29 Q1310.62 1041.55 1307.51 1041.55 Q1305.32 1041.55 1302.86 1042.31 Q1300.43 1043.08 1297.65 1044.63 L1297.65 1039.91 Q1300.48 1038.77 1302.93 1038.19 Q1305.39 1037.61 1307.42 1037.61 Q1312.79 1037.61 1315.99 1040.3 Q1319.18 1042.98 1319.18 1047.48 Q1319.18 1049.6 1318.37 1051.53 Q1317.58 1053.42 1315.48 1056.02 Q1314.9 1056.69 1311.8 1059.91 Q1308.7 1063.1 1303.05 1068.86 Z" fill="#000000" fill-rule="nonzero" fill-opacity="1" /><path clip-path="url(#clip540)" d="M1329.18 1066.92 L1334.07 1066.92 L1334.07 1072.8 L1329.18 1072.8 L1329.18 1066.92 Z" fill="#000000" fill-rule="nonzero" fill-opacity="1" /><path clip-path="url(#clip540)" d="M1345.06 1068.86 L1352.7 1068.86 L1352.7 1042.5 L1344.39 1044.17 L1344.39 1039.91 L1352.65 1038.24 L1357.33 1038.24 L1357.33 1068.86 L1364.97 1068.86 L1364.97 1072.8 L1345.06 1072.8 L1345.06 1068.86 Z" fill="#000000" fill-rule="nonzero" fill-opacity="1" /><path clip-path="url(#clip540)" d="M1374.46 1038.24 L1392.82 1038.24 L1392.82 1042.17 L1378.74 1042.17 L1378.74 1050.65 Q1379.76 1050.3 1380.78 1050.14 Q1381.8 1049.95 1382.82 1049.95 Q1388.6 1049.95 1391.98 1053.12 Q1395.36 1056.29 1395.36 1061.71 Q1395.36 1067.29 1391.89 1070.39 Q1388.42 1073.47 1382.1 1073.47 Q1379.92 1073.47 1377.65 1073.1 Q1375.41 1072.73 1373 1071.99 L1373 1067.29 Q1375.08 1068.42 1377.31 1068.98 Q1379.53 1069.54 1382.01 1069.54 Q1386.01 1069.54 1388.35 1067.43 Q1390.69 1065.32 1390.69 1061.71 Q1390.69 1058.1 1388.35 1055.99 Q1386.01 1053.89 1382.01 1053.89 Q1380.13 1053.89 1378.26 1054.3 Q1376.4 1054.72 1374.46 1055.6 L1374.46 1038.24 Z" fill="#000000" fill-rule="nonzero" fill-opacity="1" /><path clip-path="url(#clip540)" d="M1503.82 1068.86 L1520.14 1068.86 L1520.14 1072.8 L1498.2 1072.8 L1498.2 1068.86 Q1500.86 1066.11 1505.44 1061.48 Q1510.05 1056.83 1511.23 1055.48 Q1513.47 1052.96 1514.35 1051.23 Q1515.26 1049.47 1515.26 1047.78 Q1515.26 1045.02 1513.31 1043.29 Q1511.39 1041.55 1508.29 1041.55 Q1506.09 1041.55 1503.64 1042.31 Q1501.21 1043.08 1498.43 1044.63 L1498.43 1039.91 Q1501.25 1038.77 1503.71 1038.19 Q1506.16 1037.61 1508.2 1037.61 Q1513.57 1037.61 1516.76 1040.3 Q1519.96 1042.98 1519.96 1047.48 Q1519.96 1049.6 1519.15 1051.53 Q1518.36 1053.42 1516.25 1056.02 Q1515.67 1056.69 1512.57 1059.91 Q1509.47 1063.1 1503.82 1068.86 Z" fill="#000000" fill-rule="nonzero" fill-opacity="1" /><path clip-path="url(#clip540)" d="M1529.96 1066.92 L1534.84 1066.92 L1534.84 1072.8 L1529.96 1072.8 L1529.96 1066.92 Z" fill="#000000" fill-rule="nonzero" fill-opacity="1" /><path clip-path="url(#clip540)" d="M1549.05 1068.86 L1565.37 1068.86 L1565.37 1072.8 L1543.43 1072.8 L1543.43 1068.86 Q1546.09 1066.11 1550.67 1061.48 Q1555.28 1056.83 1556.46 1055.48 Q1558.71 1052.96 1559.59 1051.23 Q1560.49 1049.47 1560.49 1047.78 Q1560.49 1045.02 1558.54 1043.29 Q1556.62 1041.55 1553.52 1041.55 Q1551.32 1041.55 1548.87 1042.31 Q1546.44 1043.08 1543.66 1044.63 L1543.66 1039.91 Q1546.48 1038.77 1548.94 1038.19 Q1551.39 1037.61 1553.43 1037.61 Q1558.8 1037.61 1561.99 1040.3 Q1565.19 1042.98 1565.19 1047.48 Q1565.19 1049.6 1564.38 1051.53 Q1563.59 1053.42 1561.48 1056.02 Q1560.91 1056.69 1557.8 1059.91 Q1554.7 1063.1 1549.05 1068.86 Z" fill="#000000" fill-rule="nonzero" fill-opacity="1" /><path clip-path="url(#clip540)" d="M1585.19 1041.32 Q1581.58 1041.32 1579.75 1044.88 Q1577.94 1048.42 1577.94 1055.55 Q1577.94 1062.66 1579.75 1066.23 Q1581.58 1069.77 1585.19 1069.77 Q1588.82 1069.77 1590.63 1066.23 Q1592.46 1062.66 1592.46 1055.55 Q1592.46 1048.42 1590.63 1044.88 Q1588.82 1041.32 1585.19 1041.32 M1585.19 1037.61 Q1591 1037.61 1594.05 1042.22 Q1597.13 1046.8 1597.13 1055.55 Q1597.13 1064.28 1594.05 1068.89 Q1591 1073.47 1585.19 1073.47 Q1579.38 1073.47 1576.3 1068.89 Q1573.24 1064.28 1573.24 1055.55 Q1573.24 1046.8 1576.3 1042.22 Q1579.38 1037.61 1585.19 1037.61 Z" fill="#000000" fill-rule="nonzero" fill-opacity="1" /><path clip-path="url(#clip540)" d="M1705.59 1068.86 L1721.91 1068.86 L1721.91 1072.8 L1699.97 1072.8 L1699.97 1068.86 Q1702.63 1066.11 1707.21 1061.48 Q1711.82 1056.83 1713 1055.48 Q1715.25 1052.96 1716.13 1051.23 Q1717.03 1049.47 1717.03 1047.78 Q1717.03 1045.02 1715.08 1043.29 Q1713.16 1041.55 1710.06 1041.55 Q1707.86 1041.55 1705.41 1042.31 Q1702.98 1043.08 1700.2 1044.63 L1700.2 1039.91 Q1703.02 1038.77 1705.48 1038.19 Q1707.93 1037.61 1709.97 1037.61 Q1715.34 1037.61 1718.53 1040.3 Q1721.73 1042.98 1721.73 1047.48 Q1721.73 1049.6 1720.92 1051.53 Q1720.13 1053.42 1718.02 1056.02 Q1717.44 1056.69 1714.34 1059.91 Q1711.24 1063.1 1705.59 1068.86 Z" fill="#000000" fill-rule="nonzero" fill-opacity="1" /><path clip-path="url(#clip540)" d="M1731.73 1066.92 L1736.61 1066.92 L1736.61 1072.8 L1731.73 1072.8 L1731.73 1066.92 Z" fill="#000000" fill-rule="nonzero" fill-opacity="1" /><path clip-path="url(#clip540)" d="M1750.82 1068.86 L1767.14 1068.86 L1767.14 1072.8 L1745.2 1072.8 L1745.2 1068.86 Q1747.86 1066.11 1752.44 1061.48 Q1757.05 1056.83 1758.23 1055.48 Q1760.48 1052.96 1761.36 1051.23 Q1762.26 1049.47 1762.26 1047.78 Q1762.26 1045.02 1760.31 1043.29 Q1758.39 1041.55 1755.29 1041.55 Q1753.09 1041.55 1750.64 1042.31 Q1748.21 1043.08 1745.43 1044.63 L1745.43 1039.91 Q1748.25 1038.77 1750.71 1038.19 Q1753.16 1037.61 1755.2 1037.61 Q1760.57 1037.61 1763.76 1040.3 Q1766.96 1042.98 1766.96 1047.48 Q1766.96 1049.6 1766.15 1051.53 Q1765.36 1053.42 1763.25 1056.02 Q1762.68 1056.69 1759.57 1059.91 Q1756.47 1063.1 1750.82 1068.86 Z" fill="#000000" fill-rule="nonzero" fill-opacity="1" /><path clip-path="url(#clip540)" d="M1777 1038.24 L1795.36 1038.24 L1795.36 1042.17 L1781.29 1042.17 L1781.29 1050.65 Q1782.31 1050.3 1783.32 1050.14 Q1784.34 1049.95 1785.36 1049.95 Q1791.15 1049.95 1794.53 1053.12 Q1797.91 1056.29 1797.91 1061.71 Q1797.91 1067.29 1794.43 1070.39 Q1790.96 1073.47 1784.64 1073.47 Q1782.47 1073.47 1780.2 1073.1 Q1777.95 1072.73 1775.55 1071.99 L1775.55 1067.29 Q1777.63 1068.42 1779.85 1068.98 Q1782.07 1069.54 1784.55 1069.54 Q1788.56 1069.54 1790.89 1067.43 Q1793.23 1065.32 1793.23 1061.71 Q1793.23 1058.1 1790.89 1055.99 Q1788.56 1053.89 1784.55 1053.89 Q1782.68 1053.89 1780.8 1054.3 Q1778.95 1054.72 1777 1055.6 L1777 1038.24 Z" fill="#000000" fill-rule="nonzero" fill-opacity="1" /><path clip-path="url(#clip540)" d="M1906.37 1068.86 L1922.69 1068.86 L1922.69 1072.8 L1900.74 1072.8 L1900.74 1068.86 Q1903.4 1066.11 1907.99 1061.48 Q1912.59 1056.83 1913.78 1055.48 Q1916.02 1052.96 1916.9 1051.23 Q1917.8 1049.47 1917.8 1047.78 Q1917.8 1045.02 1915.86 1043.29 Q1913.94 1041.55 1910.84 1041.55 Q1908.64 1041.55 1906.18 1042.31 Q1903.75 1043.08 1900.97 1044.63 L1900.97 1039.91 Q1903.8 1038.77 1906.25 1038.19 Q1908.71 1037.61 1910.74 1037.61 Q1916.11 1037.61 1919.31 1040.3 Q1922.5 1042.98 1922.5 1047.48 Q1922.5 1049.6 1921.69 1051.53 Q1920.9 1053.42 1918.8 1056.02 Q1918.22 1056.69 1915.12 1059.91 Q1912.02 1063.1 1906.37 1068.86 Z" fill="#000000" fill-rule="nonzero" fill-opacity="1" /><path clip-path="url(#clip540)" d="M1932.5 1066.92 L1937.39 1066.92 L1937.39 1072.8 L1932.5 1072.8 L1932.5 1066.92 Z" fill="#000000" fill-rule="nonzero" fill-opacity="1" /><path clip-path="url(#clip540)" d="M1961.74 1054.16 Q1965.09 1054.88 1966.97 1057.15 Q1968.87 1059.42 1968.87 1062.75 Q1968.87 1067.87 1965.35 1070.67 Q1961.83 1073.47 1955.35 1073.47 Q1953.17 1073.47 1950.86 1073.03 Q1948.57 1072.61 1946.11 1071.76 L1946.11 1067.24 Q1948.06 1068.38 1950.37 1068.96 Q1952.69 1069.54 1955.21 1069.54 Q1959.61 1069.54 1961.9 1067.8 Q1964.21 1066.06 1964.21 1062.75 Q1964.21 1059.7 1962.06 1057.98 Q1959.93 1056.25 1956.11 1056.25 L1952.09 1056.25 L1952.09 1052.41 L1956.3 1052.41 Q1959.75 1052.41 1961.58 1051.04 Q1963.4 1049.65 1963.4 1047.06 Q1963.4 1044.4 1961.51 1042.98 Q1959.63 1041.55 1956.11 1041.55 Q1954.19 1041.55 1951.99 1041.97 Q1949.79 1042.38 1947.15 1043.26 L1947.15 1039.1 Q1949.82 1038.35 1952.13 1037.98 Q1954.47 1037.61 1956.53 1037.61 Q1961.85 1037.61 1964.96 1040.04 Q1968.06 1042.45 1968.06 1046.57 Q1968.06 1049.44 1966.41 1051.43 Q1964.77 1053.4 1961.74 1054.16 Z" fill="#000000" fill-rule="nonzero" fill-opacity="1" /><path clip-path="url(#clip540)" d="M1987.73 1041.32 Q1984.12 1041.32 1982.29 1044.88 Q1980.49 1048.42 1980.49 1055.55 Q1980.49 1062.66 1982.29 1066.23 Q1984.12 1069.77 1987.73 1069.77 Q1991.37 1069.77 1993.17 1066.23 Q1995 1062.66 1995 1055.55 Q1995 1048.42 1993.17 1044.88 Q1991.37 1041.32 1987.73 1041.32 M1987.73 1037.61 Q1993.54 1037.61 1996.6 1042.22 Q1999.68 1046.8 1999.68 1055.55 Q1999.68 1064.28 1996.6 1068.89 Q1993.54 1073.47 1987.73 1073.47 Q1981.92 1073.47 1978.84 1068.89 Q1975.79 1064.28 1975.79 1055.55 Q1975.79 1046.8 1978.84 1042.22 Q1981.92 1037.61 1987.73 1037.61 Z" fill="#000000" fill-rule="nonzero" fill-opacity="1" /><polyline clip-path="url(#clip540)" style="stroke:#000000; stroke-linecap:round; stroke-linejoin:round; stroke-width:4; stroke-opacity:1; fill:none" points="1346.39,1010.4 1346.39,460.025 "/>
<polyline clip-path="url(#clip540)" style="stroke:#000000; stroke-linecap:round; stroke-linejoin:round; stroke-width:4; stroke-opacity:1; fill:none" points="1346.39,1010.4 1365.29,1010.4 "/>
<polyline clip-path="url(#clip540)" style="stroke:#000000; stroke-linecap:round; stroke-linejoin:round; stroke-width:4; stroke-opacity:1; fill:none" points="1346.39,900.324 1365.29,900.324 "/>
<polyline clip-path="url(#clip540)" style="stroke:#000000; stroke-linecap:round; stroke-linejoin:round; stroke-width:4; stroke-opacity:1; fill:none" points="1346.39,790.249 1365.29,790.249 "/>
<polyline clip-path="url(#clip540)" style="stroke:#000000; stroke-linecap:round; stroke-linejoin:round; stroke-width:4; stroke-opacity:1; fill:none" points="1346.39,680.175 1365.29,680.175 "/>
<polyline clip-path="url(#clip540)" style="stroke:#000000; stroke-linecap:round; stroke-linejoin:round; stroke-width:4; stroke-opacity:1; fill:none" points="1346.39,570.1 1365.29,570.1 "/>
<polyline clip-path="url(#clip540)" style="stroke:#000000; stroke-linecap:round; stroke-linejoin:round; stroke-width:4; stroke-opacity:1; fill:none" points="1346.39,460.025 1365.29,460.025 "/>
<path clip-path="url(#clip540)" d="M1298.45 996.198 Q1294.84 996.198 1293.01 999.763 Q1291.2 1003.3 1291.2 1010.43 Q1291.2 1017.54 1293.01 1021.11 Q1294.84 1024.65 1298.45 1024.65 Q1302.08 1024.65 1303.89 1021.11 Q1305.72 1017.54 1305.72 1010.43 Q1305.72 1003.3 1303.89 999.763 Q1302.08 996.198 1298.45 996.198 M1298.45 992.494 Q1304.26 992.494 1307.31 997.101 Q1310.39 1001.68 1310.39 1010.43 Q1310.39 1019.16 1307.31 1023.77 Q1304.26 1028.35 1298.45 1028.35 Q1292.64 1028.35 1289.56 1023.77 Q1286.5 1019.16 1286.5 1010.43 Q1286.5 1001.68 1289.56 997.101 Q1292.64 992.494 1298.45 992.494 Z" fill="#000000" fill-rule="nonzero" fill-opacity="1" /><path clip-path="url(#clip540)" d="M1097.79 920.117 L1114.11 920.117 L1114.11 924.052 L1092.17 924.052 L1092.17 920.117 Q1094.83 917.362 1099.41 912.732 Q1104.02 908.08 1105.2 906.737 Q1107.44 904.214 1108.32 902.478 Q1109.23 900.719 1109.23 899.029 Q1109.23 896.274 1107.28 894.538 Q1105.36 892.802 1102.26 892.802 Q1100.06 892.802 1097.61 893.566 Q1095.17 894.33 1092.4 895.881 L1092.4 891.159 Q1095.22 890.024 1097.67 889.446 Q1100.13 888.867 1102.17 888.867 Q1107.54 888.867 1110.73 891.552 Q1113.92 894.237 1113.92 898.728 Q1113.92 900.858 1113.11 902.779 Q1112.33 904.677 1110.22 907.27 Q1109.64 907.941 1106.54 911.158 Q1103.44 914.353 1097.79 920.117 Z" fill="#000000" fill-rule="nonzero" fill-opacity="1" /><path clip-path="url(#clip540)" d="M1123.92 918.172 L1128.81 918.172 L1128.81 924.052 L1123.92 924.052 L1123.92 918.172 Z" fill="#000000" fill-rule="nonzero" fill-opacity="1" /><path clip-path="url(#clip540)" d="M1148.99 892.571 Q1145.38 892.571 1143.55 896.135 Q1141.75 899.677 1141.75 906.807 Q1141.75 913.913 1143.55 917.478 Q1145.38 921.019 1148.99 921.019 Q1152.63 921.019 1154.43 917.478 Q1156.26 913.913 1156.26 906.807 Q1156.26 899.677 1154.43 896.135 Q1152.63 892.571 1148.99 892.571 M1148.99 888.867 Q1154.8 888.867 1157.86 893.473 Q1160.94 898.057 1160.94 906.807 Q1160.94 915.533 1157.86 920.14 Q1154.8 924.723 1148.99 924.723 Q1143.18 924.723 1140.1 920.14 Q1137.05 915.533 1137.05 906.807 Q1137.05 898.057 1140.1 893.473 Q1143.18 888.867 1148.99 888.867 Z" fill="#000000" fill-rule="nonzero" fill-opacity="1" /><path clip-path="url(#clip540)" d="M1197.33 898.589 L1186.75 909.214 L1197.33 919.793 L1194.57 922.594 L1183.95 911.969 L1173.32 922.594 L1170.59 919.793 L1181.15 909.214 L1170.59 898.589 L1173.32 895.788 L1183.95 906.413 L1194.57 895.788 L1197.33 898.589 Z" fill="#000000" fill-rule="nonzero" fill-opacity="1" /><path clip-path="url(#clip540)" d="M1209.69 920.117 L1217.33 920.117 L1217.33 893.751 L1209.02 895.418 L1209.02 891.159 L1217.28 889.492 L1221.96 889.492 L1221.96 920.117 L1229.6 920.117 L1229.6 924.052 L1209.69 924.052 L1209.69 920.117 Z" fill="#000000" fill-rule="nonzero" fill-opacity="1" /><path clip-path="url(#clip540)" d="M1249.04 892.571 Q1245.43 892.571 1243.6 896.135 Q1241.79 899.677 1241.79 906.807 Q1241.79 913.913 1243.6 917.478 Q1245.43 921.019 1249.04 921.019 Q1252.67 921.019 1254.48 917.478 Q1256.31 913.913 1256.31 906.807 Q1256.31 899.677 1254.48 896.135 Q1252.67 892.571 1249.04 892.571 M1249.04 888.867 Q1254.85 888.867 1257.91 893.473 Q1260.98 898.057 1260.98 906.807 Q1260.98 915.533 1257.91 920.14 Q1254.85 924.723 1249.04 924.723 Q1243.23 924.723 1240.15 920.14 Q1237.1 915.533 1237.1 906.807 Q1237.1 898.057 1240.15 893.473 Q1243.23 888.867 1249.04 888.867 Z" fill="#000000" fill-rule="nonzero" fill-opacity="1" /><path clip-path="url(#clip540)" d="M1260.98 882.968 L1285.1 882.968 L1285.1 886.166 L1260.98 886.166 L1260.98 882.968 Z" fill="#000000" fill-rule="nonzero" fill-opacity="1" /><path clip-path="url(#clip540)" d="M1292.34 868.561 L1310.39 868.561 L1310.39 870.179 L1300.2 896.641 L1296.23 896.641 L1305.82 871.759 L1292.34 871.759 L1292.34 868.561 Z" fill="#000000" fill-rule="nonzero" fill-opacity="1" /><path clip-path="url(#clip540)" d="M1106.61 783.491 L1094.8 801.94 L1106.61 801.94 L1106.61 783.491 M1105.38 779.417 L1111.26 779.417 L1111.26 801.94 L1116.19 801.94 L1116.19 805.829 L1111.26 805.829 L1111.26 813.977 L1106.61 813.977 L1106.61 805.829 L1091.01 805.829 L1091.01 801.315 L1105.38 779.417 Z" fill="#000000" fill-rule="nonzero" fill-opacity="1" /><path clip-path="url(#clip540)" d="M1123.92 808.097 L1128.81 808.097 L1128.81 813.977 L1123.92 813.977 L1123.92 808.097 Z" fill="#000000" fill-rule="nonzero" fill-opacity="1" /><path clip-path="url(#clip540)" d="M1148.99 782.496 Q1145.38 782.496 1143.55 786.06 Q1141.75 789.602 1141.75 796.732 Q1141.75 803.838 1143.55 807.403 Q1145.38 810.945 1148.99 810.945 Q1152.63 810.945 1154.43 807.403 Q1156.26 803.838 1156.26 796.732 Q1156.26 789.602 1154.43 786.06 Q1152.63 782.496 1148.99 782.496 M1148.99 778.792 Q1154.8 778.792 1157.86 783.398 Q1160.94 787.982 1160.94 796.732 Q1160.94 805.459 1157.86 810.065 Q1154.8 814.648 1148.99 814.648 Q1143.18 814.648 1140.1 810.065 Q1137.05 805.459 1137.05 796.732 Q1137.05 787.982 1140.1 783.398 Q1143.18 778.792 1148.99 778.792 Z" fill="#000000" fill-rule="nonzero" fill-opacity="1" /><path clip-path="url(#clip540)" d="M1197.33 788.514 L1186.75 799.139 L1197.33 809.718 L1194.57 812.519 L1183.95 801.894 L1173.32 812.519 L1170.59 809.718 L1181.15 799.139 L1170.59 788.514 L1173.32 785.713 L1183.95 796.338 L1194.57 785.713 L1197.33 788.514 Z" fill="#000000" fill-rule="nonzero" fill-opacity="1" /><path clip-path="url(#clip540)" d="M1209.69 810.042 L1217.33 810.042 L1217.33 783.676 L1209.02 785.343 L1209.02 781.084 L1217.28 779.417 L1221.96 779.417 L1221.96 810.042 L1229.6 810.042 L1229.6 813.977 L1209.69 813.977 L1209.69 810.042 Z" fill="#000000" fill-rule="nonzero" fill-opacity="1" /><path clip-path="url(#clip540)" d="M1249.04 782.496 Q1245.43 782.496 1243.6 786.06 Q1241.79 789.602 1241.79 796.732 Q1241.79 803.838 1243.6 807.403 Q1245.43 810.945 1249.04 810.945 Q1252.67 810.945 1254.48 807.403 Q1256.31 803.838 1256.31 796.732 Q1256.31 789.602 1254.48 786.06 Q1252.67 782.496 1249.04 782.496 M1249.04 778.792 Q1254.85 778.792 1257.91 783.398 Q1260.98 787.982 1260.98 796.732 Q1260.98 805.459 1257.91 810.065 Q1254.85 814.648 1249.04 814.648 Q1243.23 814.648 1240.15 810.065 Q1237.1 805.459 1237.1 796.732 Q1237.1 787.982 1240.15 783.398 Q1243.23 778.792 1249.04 778.792 Z" fill="#000000" fill-rule="nonzero" fill-opacity="1" /><path clip-path="url(#clip540)" d="M1260.98 772.893 L1285.1 772.893 L1285.1 776.091 L1260.98 776.091 L1260.98 772.893 Z" fill="#000000" fill-rule="nonzero" fill-opacity="1" /><path clip-path="url(#clip540)" d="M1292.34 758.487 L1310.39 758.487 L1310.39 760.104 L1300.2 786.567 L1296.23 786.567 L1305.82 761.684 L1292.34 761.684 L1292.34 758.487 Z" fill="#000000" fill-rule="nonzero" fill-opacity="1" /><path clip-path="url(#clip540)" d="M1104.34 684.759 Q1101.19 684.759 1099.34 686.911 Q1097.51 689.064 1097.51 692.814 Q1097.51 696.541 1099.34 698.717 Q1101.19 700.87 1104.34 700.87 Q1107.49 700.87 1109.32 698.717 Q1111.17 696.541 1111.17 692.814 Q1111.17 689.064 1109.32 686.911 Q1107.49 684.759 1104.34 684.759 M1113.62 670.106 L1113.62 674.365 Q1111.86 673.532 1110.06 673.092 Q1108.28 672.652 1106.52 672.652 Q1101.89 672.652 1099.43 675.777 Q1097 678.902 1096.66 685.222 Q1098.02 683.208 1100.08 682.143 Q1102.14 681.055 1104.62 681.055 Q1109.83 681.055 1112.84 684.226 Q1115.87 687.374 1115.87 692.814 Q1115.87 698.138 1112.72 701.356 Q1109.57 704.573 1104.34 704.573 Q1098.35 704.573 1095.17 699.99 Q1092 695.384 1092 686.657 Q1092 678.462 1095.89 673.601 Q1099.78 668.717 1106.33 668.717 Q1108.09 668.717 1109.87 669.064 Q1111.68 669.412 1113.62 670.106 Z" fill="#000000" fill-rule="nonzero" fill-opacity="1" /><path clip-path="url(#clip540)" d="M1123.92 698.023 L1128.81 698.023 L1128.81 703.902 L1123.92 703.902 L1123.92 698.023 Z" fill="#000000" fill-rule="nonzero" fill-opacity="1" /><path clip-path="url(#clip540)" d="M1148.99 672.421 Q1145.38 672.421 1143.55 675.986 Q1141.75 679.527 1141.75 686.657 Q1141.75 693.763 1143.55 697.328 Q1145.38 700.87 1148.99 700.87 Q1152.63 700.87 1154.43 697.328 Q1156.26 693.763 1156.26 686.657 Q1156.26 679.527 1154.43 675.986 Q1152.63 672.421 1148.99 672.421 M1148.99 668.717 Q1154.8 668.717 1157.86 673.324 Q1160.94 677.907 1160.94 686.657 Q1160.94 695.384 1157.86 699.99 Q1154.8 704.573 1148.99 704.573 Q1143.18 704.573 1140.1 699.99 Q1137.05 695.384 1137.05 686.657 Q1137.05 677.907 1140.1 673.324 Q1143.18 668.717 1148.99 668.717 Z" fill="#000000" fill-rule="nonzero" fill-opacity="1" /><path clip-path="url(#clip540)" d="M1197.33 678.439 L1186.75 689.064 L1197.33 699.643 L1194.57 702.444 L1183.95 691.819 L1173.32 702.444 L1170.59 699.643 L1181.15 689.064 L1170.59 678.439 L1173.32 675.638 L1183.95 686.263 L1194.57 675.638 L1197.33 678.439 Z" fill="#000000" fill-rule="nonzero" fill-opacity="1" /><path clip-path="url(#clip540)" d="M1209.69 699.967 L1217.33 699.967 L1217.33 673.601 L1209.02 675.268 L1209.02 671.009 L1217.28 669.342 L1221.96 669.342 L1221.96 699.967 L1229.6 699.967 L1229.6 703.902 L1209.69 703.902 L1209.69 699.967 Z" fill="#000000" fill-rule="nonzero" fill-opacity="1" /><path clip-path="url(#clip540)" d="M1249.04 672.421 Q1245.43 672.421 1243.6 675.986 Q1241.79 679.527 1241.79 686.657 Q1241.79 693.763 1243.6 697.328 Q1245.43 700.87 1249.04 700.87 Q1252.67 700.87 1254.48 697.328 Q1256.31 693.763 1256.31 686.657 Q1256.31 679.527 1254.48 675.986 Q1252.67 672.421 1249.04 672.421 M1249.04 668.717 Q1254.85 668.717 1257.91 673.324 Q1260.98 677.907 1260.98 686.657 Q1260.98 695.384 1257.91 699.99 Q1254.85 704.573 1249.04 704.573 Q1243.23 704.573 1240.15 699.99 Q1237.1 695.384 1237.1 686.657 Q1237.1 677.907 1240.15 673.324 Q1243.23 668.717 1249.04 668.717 Z" fill="#000000" fill-rule="nonzero" fill-opacity="1" /><path clip-path="url(#clip540)" d="M1260.98 662.818 L1285.1 662.818 L1285.1 666.016 L1260.98 666.016 L1260.98 662.818 Z" fill="#000000" fill-rule="nonzero" fill-opacity="1" /><path clip-path="url(#clip540)" d="M1292.34 648.412 L1310.39 648.412 L1310.39 650.029 L1300.2 676.492 L1296.23 676.492 L1305.82 651.609 L1292.34 651.609 L1292.34 648.412 Z" fill="#000000" fill-rule="nonzero" fill-opacity="1" /><path clip-path="url(#clip540)" d="M1103.76 577.415 Q1100.43 577.415 1098.51 579.198 Q1096.61 580.98 1096.61 584.105 Q1096.61 587.23 1098.51 589.012 Q1100.43 590.795 1103.76 590.795 Q1107.1 590.795 1109.02 589.012 Q1110.94 587.207 1110.94 584.105 Q1110.94 580.98 1109.02 579.198 Q1107.12 577.415 1103.76 577.415 M1099.09 575.425 Q1096.08 574.684 1094.39 572.624 Q1092.72 570.564 1092.72 567.601 Q1092.72 563.457 1095.66 561.05 Q1098.62 558.642 1103.76 558.642 Q1108.92 558.642 1111.86 561.05 Q1114.8 563.457 1114.8 567.601 Q1114.8 570.564 1113.11 572.624 Q1111.45 574.684 1108.46 575.425 Q1111.84 576.212 1113.72 578.503 Q1115.61 580.795 1115.61 584.105 Q1115.61 589.128 1112.54 591.813 Q1109.48 594.499 1103.76 594.499 Q1098.04 594.499 1094.97 591.813 Q1091.91 589.128 1091.91 584.105 Q1091.91 580.795 1093.81 578.503 Q1095.71 576.212 1099.09 575.425 M1097.37 568.04 Q1097.37 570.726 1099.04 572.23 Q1100.73 573.735 1103.76 573.735 Q1106.77 573.735 1108.46 572.23 Q1110.17 570.726 1110.17 568.04 Q1110.17 565.355 1108.46 563.851 Q1106.77 562.346 1103.76 562.346 Q1100.73 562.346 1099.04 563.851 Q1097.37 565.355 1097.37 568.04 Z" fill="#000000" fill-rule="nonzero" fill-opacity="1" /><path clip-path="url(#clip540)" d="M1123.92 587.948 L1128.81 587.948 L1128.81 593.827 L1123.92 593.827 L1123.92 587.948 Z" fill="#000000" fill-rule="nonzero" fill-opacity="1" /><path clip-path="url(#clip540)" d="M1148.99 562.346 Q1145.38 562.346 1143.55 565.911 Q1141.75 569.452 1141.75 576.582 Q1141.75 583.688 1143.55 587.253 Q1145.38 590.795 1148.99 590.795 Q1152.63 590.795 1154.43 587.253 Q1156.26 583.688 1156.26 576.582 Q1156.26 569.452 1154.43 565.911 Q1152.63 562.346 1148.99 562.346 M1148.99 558.642 Q1154.8 558.642 1157.86 563.249 Q1160.94 567.832 1160.94 576.582 Q1160.94 585.309 1157.86 589.915 Q1154.8 594.499 1148.99 594.499 Q1143.18 594.499 1140.1 589.915 Q1137.05 585.309 1137.05 576.582 Q1137.05 567.832 1140.1 563.249 Q1143.18 558.642 1148.99 558.642 Z" fill="#000000" fill-rule="nonzero" fill-opacity="1" /><path clip-path="url(#clip540)" d="M1197.33 568.364 L1186.75 578.989 L1197.33 589.568 L1194.57 592.369 L1183.95 581.744 L1173.32 592.369 L1170.59 589.568 L1181.15 578.989 L1170.59 568.364 L1173.32 565.564 L1183.95 576.188 L1194.57 565.564 L1197.33 568.364 Z" fill="#000000" fill-rule="nonzero" fill-opacity="1" /><path clip-path="url(#clip540)" d="M1209.69 589.892 L1217.33 589.892 L1217.33 563.527 L1209.02 565.193 L1209.02 560.934 L1217.28 559.267 L1221.96 559.267 L1221.96 589.892 L1229.6 589.892 L1229.6 593.827 L1209.69 593.827 L1209.69 589.892 Z" fill="#000000" fill-rule="nonzero" fill-opacity="1" /><path clip-path="url(#clip540)" d="M1249.04 562.346 Q1245.43 562.346 1243.6 565.911 Q1241.79 569.452 1241.79 576.582 Q1241.79 583.688 1243.6 587.253 Q1245.43 590.795 1249.04 590.795 Q1252.67 590.795 1254.48 587.253 Q1256.31 583.688 1256.31 576.582 Q1256.31 569.452 1254.48 565.911 Q1252.67 562.346 1249.04 562.346 M1249.04 558.642 Q1254.85 558.642 1257.91 563.249 Q1260.98 567.832 1260.98 576.582 Q1260.98 585.309 1257.91 589.915 Q1254.85 594.499 1249.04 594.499 Q1243.23 594.499 1240.15 589.915 Q1237.1 585.309 1237.1 576.582 Q1237.1 567.832 1240.15 563.249 Q1243.23 558.642 1249.04 558.642 Z" fill="#000000" fill-rule="nonzero" fill-opacity="1" /><path clip-path="url(#clip540)" d="M1260.98 552.744 L1285.1 552.744 L1285.1 555.941 L1260.98 555.941 L1260.98 552.744 Z" fill="#000000" fill-rule="nonzero" fill-opacity="1" /><path clip-path="url(#clip540)" d="M1292.34 538.337 L1310.39 538.337 L1310.39 539.954 L1300.2 566.417 L1296.23 566.417 L1305.82 541.534 L1292.34 541.534 L1292.34 538.337 Z" fill="#000000" fill-rule="nonzero" fill-opacity="1" /><path clip-path="url(#clip540)" d="M1093.71 479.817 L1101.35 479.817 L1101.35 453.452 L1093.04 455.118 L1093.04 450.859 L1101.3 449.192 L1105.98 449.192 L1105.98 479.817 L1113.61 479.817 L1113.61 483.752 L1093.71 483.752 L1093.71 479.817 Z" fill="#000000" fill-rule="nonzero" fill-opacity="1" /><path clip-path="url(#clip540)" d="M1123.06 477.873 L1127.94 477.873 L1127.94 483.752 L1123.06 483.752 L1123.06 477.873 Z" fill="#000000" fill-rule="nonzero" fill-opacity="1" /><path clip-path="url(#clip540)" d="M1148.13 452.271 Q1144.52 452.271 1142.69 455.836 Q1140.88 459.378 1140.88 466.507 Q1140.88 473.614 1142.69 477.178 Q1144.52 480.72 1148.13 480.72 Q1151.76 480.72 1153.57 477.178 Q1155.4 473.614 1155.4 466.507 Q1155.4 459.378 1153.57 455.836 Q1151.76 452.271 1148.13 452.271 M1148.13 448.567 Q1153.94 448.567 1156.99 453.174 Q1160.07 457.757 1160.07 466.507 Q1160.07 475.234 1156.99 479.84 Q1153.94 484.424 1148.13 484.424 Q1142.32 484.424 1139.24 479.84 Q1136.18 475.234 1136.18 466.507 Q1136.18 457.757 1139.24 453.174 Q1142.32 448.567 1148.13 448.567 Z" fill="#000000" fill-rule="nonzero" fill-opacity="1" /><path clip-path="url(#clip540)" d="M1196.46 458.29 L1185.88 468.915 L1196.46 479.493 L1193.71 482.294 L1183.08 471.669 L1172.46 482.294 L1169.73 479.493 L1180.28 468.915 L1169.73 458.29 L1172.46 455.489 L1183.08 466.114 L1193.71 455.489 L1196.46 458.29 Z" fill="#000000" fill-rule="nonzero" fill-opacity="1" /><path clip-path="url(#clip540)" d="M1208.82 479.817 L1216.46 479.817 L1216.46 453.452 L1208.15 455.118 L1208.15 450.859 L1216.42 449.192 L1221.09 449.192 L1221.09 479.817 L1228.73 479.817 L1228.73 483.752 L1208.82 483.752 L1208.82 479.817 Z" fill="#000000" fill-rule="nonzero" fill-opacity="1" /><path clip-path="url(#clip540)" d="M1248.17 452.271 Q1244.56 452.271 1242.73 455.836 Q1240.93 459.378 1240.93 466.507 Q1240.93 473.614 1242.73 477.178 Q1244.56 480.72 1248.17 480.72 Q1251.81 480.72 1253.61 477.178 Q1255.44 473.614 1255.44 466.507 Q1255.44 459.378 1253.61 455.836 Q1251.81 452.271 1248.17 452.271 M1248.17 448.567 Q1253.98 448.567 1257.04 453.174 Q1260.12 457.757 1260.12 466.507 Q1260.12 475.234 1257.04 479.84 Q1253.98 484.424 1248.17 484.424 Q1242.36 484.424 1239.29 479.84 Q1236.23 475.234 1236.23 466.507 Q1236.23 457.757 1239.29 453.174 Q1242.36 448.567 1248.17 448.567 Z" fill="#000000" fill-rule="nonzero" fill-opacity="1" /><path clip-path="url(#clip540)" d="M1260.12 442.669 L1284.23 442.669 L1284.23 445.866 L1260.12 445.866 L1260.12 442.669 Z" fill="#000000" fill-rule="nonzero" fill-opacity="1" /><path clip-path="url(#clip540)" d="M1301.03 440.788 Q1298.47 440.788 1296.96 442.537 Q1295.48 444.286 1295.48 447.333 Q1295.48 450.361 1296.96 452.129 Q1298.47 453.878 1301.03 453.878 Q1303.58 453.878 1305.07 452.129 Q1306.57 450.361 1306.57 447.333 Q1306.57 444.286 1305.07 442.537 Q1303.58 440.788 1301.03 440.788 M1308.57 428.883 L1308.57 432.343 Q1307.14 431.666 1305.67 431.309 Q1304.22 430.952 1302.79 430.952 Q1299.03 430.952 1297.04 433.491 Q1295.06 436.03 1294.78 441.164 Q1295.89 439.528 1297.56 438.663 Q1299.24 437.779 1301.25 437.779 Q1305.48 437.779 1307.93 440.355 Q1310.39 442.913 1310.39 447.333 Q1310.39 451.659 1307.83 454.273 Q1305.28 456.887 1301.03 456.887 Q1296.15 456.887 1293.58 453.164 Q1291 449.421 1291 442.33 Q1291 435.672 1294.16 431.723 Q1297.32 427.754 1302.64 427.754 Q1304.07 427.754 1305.52 428.036 Q1306.99 428.318 1308.57 428.883 Z" fill="#000000" fill-rule="nonzero" fill-opacity="1" /><polyline clip-path="url(#clip543)" style="stroke:#0000ff; stroke-linecap:round; stroke-linejoin:round; stroke-width:4; stroke-opacity:1; fill:none" points="-7308.34,-87082 -7204.08,-81708.3 -7099.81,-76662.4 -6995.55,-71924.4 -6891.29,-67475.3 -6787.03,-63297.7 -6682.77,-59374.9 -6578.5,-55691.4 -6474.24,-52232.5 -6369.98,-48984.7 -6265.72,-45935 -6161.45,-43071.3 -6057.19,-40382.3 -5952.93,-37857.4 -5848.67,-35486.4 -5744.4,-33260.1 -5640.14,-31169.6 -5535.88,-29206.6 -5431.62,-27363.4 -5327.35,-25632.5 -5223.09,-24007.3 -5118.83,-22481.2 -5014.57,-21048.2 -4910.3,-19702.7 -4806.04,-18439.2 -4701.78,-17252.7 -4597.52,-16138.7 -4493.25,-15092.6 -4388.99,-14110.3 -4284.73,-13187.9 -4180.47,-12321.8 -4076.2,-11508.6 -3971.94,-10744.9 -3867.68,-10027.8 -3763.42,-9354.48 -3659.16,-8722.22 -3554.89,-8128.53 -3450.63,-7571.05 -3346.37,-7047.58 -3242.11,-6556.04 -3137.84,-6094.49 -3033.58,-5661.09 -2929.32,-5254.13 -2825.06,-4871.99 -2720.79,-4513.16 -2616.53,-4176.22 -2512.27,-3859.84 -2408.01,-3562.75 -2303.74,-3283.79 -2199.48,-3021.84 -2095.22,-2775.88 -1990.96,-2544.91 -1886.69,-2328.04 -1782.43,-2124.39 -1678.17,-1933.17 -1573.91,-1753.61 -1469.64,-1585 -1365.38,-1426.68 -1261.12,-1278.02 -1156.86,-1138.43 -1052.6,-1007.35 -948.333,-884.265 -844.07,-768.69 -739.808,-660.165 -635.545,-558.261 -531.283,-462.572 -427.021,-372.72 -322.758,-288.35 -218.496,-209.126 -114.233,-134.734 -9.971,-64.881 94.2914,0.711393 198.554,62.3026 302.816,120.137 407.079,174.443 511.341,225.436 615.603,273.319 719.866,318.281 824.128,360.501 928.391,400.145 1032.65,437.37 1136.92,472.325 1241.18,505.148 1345.44,535.968 1449.7,564.909 1553.97,592.084 1658.23,617.601 1762.49,641.562 1866.75,664.061 1971.01,685.188 2075.28,705.026 2179.54,723.654 2283.8,741.145 2388.06,757.57 2492.33,772.992 2596.59,787.474 2700.85,801.073 2805.11,813.842 2909.38,825.832 3013.64,837.09 "/>
<polyline clip-path="url(#clip543)" style="stroke:#ff0000; stroke-linecap:round; stroke-linejoin:round; stroke-width:4; stroke-opacity:1; fill:none" points="-7308.34,-87082 -7204.08,-81708.3 -7099.81,-76662.4 -6995.55,-71924.4 -6891.29,-67475.3 -6787.03,-63297.7 -6682.77,-59374.9 -6578.5,-55691.4 -6474.24,-52232.5 -6369.98,-48984.7 -6265.72,-45935 -6161.45,-43071.3 -6057.19,-40382.3 -5952.93,-37857.3 -5848.67,-35486.3 -5744.4,-33260 -5640.14,-31169.5 -5535.88,-29206.6 -5431.62,-27363.4 -5327.35,-25632.6 -5223.09,-24007.3 -5118.83,-22481.1 -5014.57,-21048.1 -4910.3,-19702.6 -4806.04,-18439.1 -4701.78,-17252.8 -4597.52,-16138.7 -4493.25,-15092.6 -4388.99,-14110.2 -4284.73,-13187.8 -4180.47,-12321.7 -4076.2,-11508.5 -3971.94,-10744.9 -3867.68,-10027.9 -3763.42,-9354.56 -3659.16,-8722.27 -3554.89,-8128.5 -3450.63,-7570.95 -3346.37,-7047.45 -3242.11,-6555.93 -3137.84,-6094.43 -3033.58,-5661.1 -2929.32,-5254.19 -2825.06,-4872.08 -2720.79,-4513.23 -2616.53,-4176.22 -2512.27,-3859.78 -2408.01,-3562.66 -2303.74,-3283.7 -2199.48,-3021.79 -2095.22,-2775.87 -1990.96,-2544.96 -1886.69,-2328.12 -1782.43,-2124.48 -1678.17,-1933.22 -1573.91,-1753.62 -1469.64,-1584.97 -1365.38,-1426.63 -1261.12,-1277.98 -1156.86,-1138.41 -1052.6,-1007.36 -948.333,-884.317 -844.07,-768.767 -739.808,-660.246 -635.545,-557.947 -531.283,-461.521 -427.021,-370.985 -322.758,-286.261 -218.496,-207.171 -114.233,-133.439 -9.971,-64.6909 94.2914,-0.454755 198.554,59.8394 302.816,116.86 407.079,171.263 511.341,223.412 615.603,275.956 719.866,329.059 824.128,382.565 928.391,436.386 1032.65,490.545 1136.92,545.253 1241.18,601.003 1345.44,657.651 1449.7,714.458 1553.97,771.184 1658.23,830.541 1762.49,897.499 1866.75,951.66 1971.01,958.698 2075.28,1010.4 2179.54,1010.4 2283.8,1010.4 2388.06,1010.4 2492.33,1010.4 2596.59,1010.4 2700.85,1010.4 2805.11,1010.4 2909.38,1010.4 3013.64,1010.4 "/>
<circle clip-path="url(#clip543)" cx="2075.28" cy="1010.4" r="14.4" fill="#ff0000" fill-rule="evenodd" fill-opacity="1" stroke="#000000" stroke-opacity="1" stroke-width="3.2"/>
</svg>
