<?xml version="1.0" encoding="utf-8"?>
<svg xmlns="http://www.w3.org/2000/svg" xmlns:xlink="http://www.w3.org/1999/xlink" width="600" height="400" viewBox="0 0 2400 1600">
<defs>
  <clipPath id="clip460">
    <rect x="0" y="0" width="2400" height="1600"/>
  </clipPath>
</defs>
<path clip-path="url(#clip460)" d="M0 1600 L2400 1600 L2400 0 L0 0  Z" fill="#ffffff" fill-rule="evenodd" fill-opacity="1"/>
<defs>
  <clipPath id="clip461">
    <rect x="480" y="0" width="1681" height="1600"/>
  </clipPath>
</defs>
<path clip-path="url(#clip460)" d="M340.028 1423.18 L2352.76 1423.18 L2352.76 47.2441 L340.028 47.2441  Z" fill="#ffffff" fill-rule="evenodd" fill-opacity="1"/>
<defs>
  <clipPath id="clip462">
    <rect x="340" y="47" width="2014" height="1377"/>
  </clipPath>
</defs>
<polyline clip-path="url(#clip462)" style="stroke:#000000; stroke-linecap:round; stroke-linejoin:round; stroke-width:2; stroke-opacity:0.1; fill:none" points="396.992,1423.18 396.992,47.2441 "/>
<polyline clip-path="url(#clip462)" style="stroke:#000000; stroke-linecap:round; stroke-linejoin:round; stroke-width:2; stroke-opacity:0.1; fill:none" points="737.407,1423.18 737.407,47.2441 "/>
<polyline clip-path="url(#clip462)" style="stroke:#000000; stroke-linecap:round; stroke-linejoin:round; stroke-width:2; stroke-opacity:0.1; fill:none" points="1077.82,1423.18 1077.82,47.2441 "/>
<polyline clip-path="url(#clip462)" style="stroke:#000000; stroke-linecap:round; stroke-linejoin:round; stroke-width:2; stroke-opacity:0.1; fill:none" points="1418.24,1423.18 1418.24,47.2441 "/>
<polyline clip-path="url(#clip462)" style="stroke:#000000; stroke-linecap:round; stroke-linejoin:round; stroke-width:2; stroke-opacity:0.1; fill:none" points="1758.65,1423.18 1758.65,47.2441 "/>
<polyline clip-path="url(#clip462)" style="stroke:#000000; stroke-linecap:round; stroke-linejoin:round; stroke-width:2; stroke-opacity:0.1; fill:none" points="2099.07,1423.18 2099.07,47.2441 "/>
<polyline clip-path="url(#clip462)" style="stroke:#000000; stroke-linecap:round; stroke-linejoin:round; stroke-width:2; stroke-opacity:0.1; fill:none" points="340.028,1384.24 2352.76,1384.24 "/>
<polyline clip-path="url(#clip462)" style="stroke:#000000; stroke-linecap:round; stroke-linejoin:round; stroke-width:2; stroke-opacity:0.1; fill:none" points="340.028,978.746 2352.76,978.746 "/>
<polyline clip-path="url(#clip462)" style="stroke:#000000; stroke-linecap:round; stroke-linejoin:round; stroke-width:2; stroke-opacity:0.1; fill:none" points="340.028,573.254 2352.76,573.254 "/>
<polyline clip-path="url(#clip462)" style="stroke:#000000; stroke-linecap:round; stroke-linejoin:round; stroke-width:2; stroke-opacity:0.1; fill:none" points="340.028,167.762 2352.76,167.762 "/>
<polyline clip-path="url(#clip460)" style="stroke:#000000; stroke-linecap:round; stroke-linejoin:round; stroke-width:4; stroke-opacity:1; fill:none" points="340.028,1423.18 2352.76,1423.18 "/>
<polyline clip-path="url(#clip460)" style="stroke:#000000; stroke-linecap:round; stroke-linejoin:round; stroke-width:4; stroke-opacity:1; fill:none" points="396.992,1423.18 396.992,1404.28 "/>
<polyline clip-path="url(#clip460)" style="stroke:#000000; stroke-linecap:round; stroke-linejoin:round; stroke-width:4; stroke-opacity:1; fill:none" points="737.407,1423.18 737.407,1404.28 "/>
<polyline clip-path="url(#clip460)" style="stroke:#000000; stroke-linecap:round; stroke-linejoin:round; stroke-width:4; stroke-opacity:1; fill:none" points="1077.82,1423.18 1077.82,1404.28 "/>
<polyline clip-path="url(#clip460)" style="stroke:#000000; stroke-linecap:round; stroke-linejoin:round; stroke-width:4; stroke-opacity:1; fill:none" points="1418.24,1423.18 1418.24,1404.28 "/>
<polyline clip-path="url(#clip460)" style="stroke:#000000; stroke-linecap:round; stroke-linejoin:round; stroke-width:4; stroke-opacity:1; fill:none" points="1758.65,1423.18 1758.65,1404.28 "/>
<polyline clip-path="url(#clip460)" style="stroke:#000000; stroke-linecap:round; stroke-linejoin:round; stroke-width:4; stroke-opacity:1; fill:none" points="2099.07,1423.18 2099.07,1404.28 "/>
<path clip-path="url(#clip460)" d="M374.376 1454.1 Q370.765 1454.1 368.936 1457.66 Q367.131 1461.2 367.131 1468.33 Q367.131 1475.44 368.936 1479.01 Q370.765 1482.55 374.376 1482.55 Q378.01 1482.55 379.816 1479.01 Q381.645 1475.44 381.645 1468.33 Q381.645 1461.2 379.816 1457.66 Q378.01 1454.1 374.376 1454.1 M374.376 1450.39 Q380.186 1450.39 383.242 1455 Q386.32 1459.58 386.32 1468.33 Q386.32 1477.06 383.242 1481.67 Q380.186 1486.25 374.376 1486.25 Q368.566 1486.25 365.487 1481.67 Q362.432 1477.06 362.432 1468.33 Q362.432 1459.58 365.487 1455 Q368.566 1450.39 374.376 1450.39 Z" fill="#000000" fill-rule="nonzero" fill-opacity="1" /><path clip-path="url(#clip460)" d="M394.538 1479.7 L399.422 1479.7 L399.422 1485.58 L394.538 1485.58 L394.538 1479.7 Z" fill="#000000" fill-rule="nonzero" fill-opacity="1" /><path clip-path="url(#clip460)" d="M419.607 1454.1 Q415.996 1454.1 414.168 1457.66 Q412.362 1461.2 412.362 1468.33 Q412.362 1475.44 414.168 1479.01 Q415.996 1482.55 419.607 1482.55 Q423.242 1482.55 425.047 1479.01 Q426.876 1475.44 426.876 1468.33 Q426.876 1461.2 425.047 1457.66 Q423.242 1454.1 419.607 1454.1 M419.607 1450.39 Q425.417 1450.39 428.473 1455 Q431.552 1459.58 431.552 1468.33 Q431.552 1477.06 428.473 1481.67 Q425.417 1486.25 419.607 1486.25 Q413.797 1486.25 410.718 1481.67 Q407.663 1477.06 407.663 1468.33 Q407.663 1459.58 410.718 1455 Q413.797 1450.39 419.607 1450.39 Z" fill="#000000" fill-rule="nonzero" fill-opacity="1" /><path clip-path="url(#clip460)" d="M715.289 1454.1 Q711.678 1454.1 709.849 1457.66 Q708.044 1461.2 708.044 1468.33 Q708.044 1475.44 709.849 1479.01 Q711.678 1482.55 715.289 1482.55 Q718.923 1482.55 720.729 1479.01 Q722.557 1475.44 722.557 1468.33 Q722.557 1461.2 720.729 1457.66 Q718.923 1454.1 715.289 1454.1 M715.289 1450.39 Q721.099 1450.39 724.155 1455 Q727.233 1459.58 727.233 1468.33 Q727.233 1477.06 724.155 1481.67 Q721.099 1486.25 715.289 1486.25 Q709.479 1486.25 706.4 1481.67 Q703.344 1477.06 703.344 1468.33 Q703.344 1459.58 706.4 1455 Q709.479 1450.39 715.289 1450.39 Z" fill="#000000" fill-rule="nonzero" fill-opacity="1" /><path clip-path="url(#clip460)" d="M735.451 1479.7 L740.335 1479.7 L740.335 1485.58 L735.451 1485.58 L735.451 1479.7 Z" fill="#000000" fill-rule="nonzero" fill-opacity="1" /><path clip-path="url(#clip460)" d="M750.566 1451.02 L768.923 1451.02 L768.923 1454.96 L754.849 1454.96 L754.849 1463.43 Q755.867 1463.08 756.886 1462.92 Q757.904 1462.73 758.923 1462.73 Q764.71 1462.73 768.09 1465.9 Q771.469 1469.08 771.469 1474.49 Q771.469 1480.07 767.997 1483.17 Q764.525 1486.25 758.205 1486.25 Q756.029 1486.25 753.761 1485.88 Q751.516 1485.51 749.108 1484.77 L749.108 1480.07 Q751.191 1481.2 753.414 1481.76 Q755.636 1482.32 758.113 1482.32 Q762.117 1482.32 764.455 1480.21 Q766.793 1478.1 766.793 1474.49 Q766.793 1470.88 764.455 1468.77 Q762.117 1466.67 758.113 1466.67 Q756.238 1466.67 754.363 1467.08 Q752.511 1467.5 750.566 1468.38 L750.566 1451.02 Z" fill="#000000" fill-rule="nonzero" fill-opacity="1" /><path clip-path="url(#clip460)" d="M1044.97 1481.64 L1052.61 1481.64 L1052.61 1455.28 L1044.3 1456.95 L1044.3 1452.69 L1052.57 1451.02 L1057.24 1451.02 L1057.24 1481.64 L1064.88 1481.64 L1064.88 1485.58 L1044.97 1485.58 L1044.97 1481.64 Z" fill="#000000" fill-rule="nonzero" fill-opacity="1" /><path clip-path="url(#clip460)" d="M1074.33 1479.7 L1079.21 1479.7 L1079.21 1485.58 L1074.33 1485.58 L1074.33 1479.7 Z" fill="#000000" fill-rule="nonzero" fill-opacity="1" /><path clip-path="url(#clip460)" d="M1099.4 1454.1 Q1095.78 1454.1 1093.96 1457.66 Q1092.15 1461.2 1092.15 1468.33 Q1092.15 1475.44 1093.96 1479.01 Q1095.78 1482.55 1099.4 1482.55 Q1103.03 1482.55 1104.84 1479.01 Q1106.66 1475.44 1106.66 1468.33 Q1106.66 1461.2 1104.84 1457.66 Q1103.03 1454.1 1099.4 1454.1 M1099.4 1450.39 Q1105.21 1450.39 1108.26 1455 Q1111.34 1459.58 1111.34 1468.33 Q1111.34 1477.06 1108.26 1481.67 Q1105.21 1486.25 1099.4 1486.25 Q1093.59 1486.25 1090.51 1481.67 Q1087.45 1477.06 1087.45 1468.33 Q1087.45 1459.58 1090.51 1455 Q1093.59 1450.39 1099.4 1450.39 Z" fill="#000000" fill-rule="nonzero" fill-opacity="1" /><path clip-path="url(#clip460)" d="M1385.89 1481.64 L1393.53 1481.64 L1393.53 1455.28 L1385.22 1456.95 L1385.22 1452.69 L1393.48 1451.02 L1398.16 1451.02 L1398.16 1481.64 L1405.79 1481.64 L1405.79 1485.58 L1385.89 1485.58 L1385.89 1481.64 Z" fill="#000000" fill-rule="nonzero" fill-opacity="1" /><path clip-path="url(#clip460)" d="M1415.24 1479.7 L1420.12 1479.7 L1420.12 1485.58 L1415.24 1485.58 L1415.24 1479.7 Z" fill="#000000" fill-rule="nonzero" fill-opacity="1" /><path clip-path="url(#clip460)" d="M1430.36 1451.02 L1448.71 1451.02 L1448.71 1454.96 L1434.64 1454.96 L1434.64 1463.43 Q1435.66 1463.08 1436.67 1462.92 Q1437.69 1462.73 1438.71 1462.73 Q1444.5 1462.73 1447.88 1465.9 Q1451.26 1469.08 1451.26 1474.49 Q1451.26 1480.07 1447.79 1483.17 Q1444.31 1486.25 1437.99 1486.25 Q1435.82 1486.25 1433.55 1485.88 Q1431.3 1485.51 1428.9 1484.77 L1428.9 1480.07 Q1430.98 1481.2 1433.2 1481.76 Q1435.42 1482.32 1437.9 1482.32 Q1441.91 1482.32 1444.24 1480.21 Q1446.58 1478.1 1446.58 1474.49 Q1446.58 1470.88 1444.24 1468.77 Q1441.91 1466.67 1437.9 1466.67 Q1436.03 1466.67 1434.15 1467.08 Q1432.3 1467.5 1430.36 1468.38 L1430.36 1451.02 Z" fill="#000000" fill-rule="nonzero" fill-opacity="1" /><path clip-path="url(#clip460)" d="M1729.89 1481.64 L1746.21 1481.64 L1746.21 1485.58 L1724.27 1485.58 L1724.27 1481.64 Q1726.93 1478.89 1731.51 1474.26 Q1736.12 1469.61 1737.3 1468.27 Q1739.54 1465.74 1740.42 1464.01 Q1741.33 1462.25 1741.33 1460.56 Q1741.33 1457.8 1739.38 1456.07 Q1737.46 1454.33 1734.36 1454.33 Q1732.16 1454.33 1729.71 1455.09 Q1727.28 1455.86 1724.5 1457.41 L1724.5 1452.69 Q1727.32 1451.55 1729.78 1450.97 Q1732.23 1450.39 1734.27 1450.39 Q1739.64 1450.39 1742.83 1453.08 Q1746.02 1455.77 1746.02 1460.26 Q1746.02 1462.39 1745.21 1464.31 Q1744.43 1466.2 1742.32 1468.8 Q1741.74 1469.47 1738.64 1472.69 Q1735.54 1475.88 1729.89 1481.64 Z" fill="#000000" fill-rule="nonzero" fill-opacity="1" /><path clip-path="url(#clip460)" d="M1756.02 1479.7 L1760.91 1479.7 L1760.91 1485.58 L1756.02 1485.58 L1756.02 1479.7 Z" fill="#000000" fill-rule="nonzero" fill-opacity="1" /><path clip-path="url(#clip460)" d="M1781.09 1454.1 Q1777.48 1454.1 1775.65 1457.66 Q1773.85 1461.2 1773.85 1468.33 Q1773.85 1475.44 1775.65 1479.01 Q1777.48 1482.55 1781.09 1482.55 Q1784.73 1482.55 1786.53 1479.01 Q1788.36 1475.44 1788.36 1468.33 Q1788.36 1461.2 1786.53 1457.66 Q1784.73 1454.1 1781.09 1454.1 M1781.09 1450.39 Q1786.9 1450.39 1789.96 1455 Q1793.04 1459.58 1793.04 1468.33 Q1793.04 1477.06 1789.96 1481.67 Q1786.9 1486.25 1781.09 1486.25 Q1775.28 1486.25 1772.21 1481.67 Q1769.15 1477.06 1769.15 1468.33 Q1769.15 1459.58 1772.21 1455 Q1775.28 1450.39 1781.09 1450.39 Z" fill="#000000" fill-rule="nonzero" fill-opacity="1" /><path clip-path="url(#clip460)" d="M2070.8 1481.64 L2087.12 1481.64 L2087.12 1485.58 L2065.18 1485.58 L2065.18 1481.64 Q2067.84 1478.89 2072.42 1474.26 Q2077.03 1469.61 2078.21 1468.27 Q2080.46 1465.74 2081.34 1464.01 Q2082.24 1462.25 2082.24 1460.56 Q2082.24 1457.8 2080.29 1456.07 Q2078.37 1454.33 2075.27 1454.33 Q2073.07 1454.33 2070.62 1455.09 Q2068.19 1455.86 2065.41 1457.41 L2065.41 1452.69 Q2068.23 1451.55 2070.69 1450.97 Q2073.14 1450.39 2075.18 1450.39 Q2080.55 1450.39 2083.74 1453.08 Q2086.94 1455.77 2086.94 1460.26 Q2086.94 1462.39 2086.13 1464.31 Q2085.34 1466.2 2083.23 1468.8 Q2082.66 1469.47 2079.55 1472.69 Q2076.45 1475.88 2070.8 1481.64 Z" fill="#000000" fill-rule="nonzero" fill-opacity="1" /><path clip-path="url(#clip460)" d="M2096.94 1479.7 L2101.82 1479.7 L2101.82 1485.58 L2096.94 1485.58 L2096.94 1479.7 Z" fill="#000000" fill-rule="nonzero" fill-opacity="1" /><path clip-path="url(#clip460)" d="M2112.05 1451.02 L2130.41 1451.02 L2130.41 1454.96 L2116.34 1454.96 L2116.34 1463.43 Q2117.35 1463.08 2118.37 1462.92 Q2119.39 1462.73 2120.41 1462.73 Q2126.2 1462.73 2129.58 1465.9 Q2132.96 1469.08 2132.96 1474.49 Q2132.96 1480.07 2129.48 1483.17 Q2126.01 1486.25 2119.69 1486.25 Q2117.52 1486.25 2115.25 1485.88 Q2113 1485.51 2110.6 1484.77 L2110.6 1480.07 Q2112.68 1481.2 2114.9 1481.76 Q2117.12 1482.32 2119.6 1482.32 Q2123.6 1482.32 2125.94 1480.21 Q2128.28 1478.1 2128.28 1474.49 Q2128.28 1470.88 2125.94 1468.77 Q2123.6 1466.67 2119.6 1466.67 Q2117.72 1466.67 2115.85 1467.08 Q2114 1467.5 2112.05 1468.38 L2112.05 1451.02 Z" fill="#000000" fill-rule="nonzero" fill-opacity="1" /><path clip-path="url(#clip460)" d="M1230.42 1520.52 L1270.62 1520.52 L1270.62 1525.93 L1253.75 1525.93 L1253.75 1568.04 L1247.29 1568.04 L1247.29 1525.93 L1230.42 1525.93 L1230.42 1520.52 Z" fill="#000000" fill-rule="nonzero" fill-opacity="1" /><path clip-path="url(#clip460)" d="M1274.57 1532.4 L1280.43 1532.4 L1280.43 1568.04 L1274.57 1568.04 L1274.57 1532.4 M1274.57 1518.52 L1280.43 1518.52 L1280.43 1525.93 L1274.57 1525.93 L1274.57 1518.52 Z" fill="#000000" fill-rule="nonzero" fill-opacity="1" /><path clip-path="url(#clip460)" d="M1320.44 1539.24 Q1322.63 1535.29 1325.69 1533.41 Q1328.74 1531.54 1332.88 1531.54 Q1338.45 1531.54 1341.47 1535.45 Q1344.5 1539.33 1344.5 1546.53 L1344.5 1568.04 L1338.61 1568.04 L1338.61 1546.72 Q1338.61 1541.59 1336.8 1539.11 Q1334.98 1536.63 1331.26 1536.63 Q1326.71 1536.63 1324.06 1539.65 Q1321.42 1542.68 1321.42 1547.9 L1321.42 1568.04 L1315.53 1568.04 L1315.53 1546.72 Q1315.53 1541.56 1313.72 1539.11 Q1311.91 1536.63 1308.12 1536.63 Q1303.63 1536.63 1300.99 1539.68 Q1298.35 1542.71 1298.35 1547.9 L1298.35 1568.04 L1292.46 1568.04 L1292.46 1532.4 L1298.35 1532.4 L1298.35 1537.93 Q1300.35 1534.66 1303.15 1533.1 Q1305.95 1531.54 1309.8 1531.54 Q1313.69 1531.54 1316.39 1533.51 Q1319.13 1535.48 1320.44 1539.24 Z" fill="#000000" fill-rule="nonzero" fill-opacity="1" /><path clip-path="url(#clip460)" d="M1386.67 1548.76 L1386.67 1551.62 L1359.74 1551.62 Q1360.13 1557.67 1363.37 1560.85 Q1366.65 1564 1372.48 1564 Q1375.85 1564 1379 1563.17 Q1382.18 1562.35 1385.3 1560.69 L1385.3 1566.23 Q1382.15 1567.57 1378.84 1568.27 Q1375.53 1568.97 1372.13 1568.97 Q1363.6 1568.97 1358.6 1564 Q1353.63 1559.04 1353.63 1550.57 Q1353.63 1541.82 1358.34 1536.69 Q1363.09 1531.54 1371.11 1531.54 Q1378.3 1531.54 1382.47 1536.18 Q1386.67 1540.8 1386.67 1548.76 M1380.81 1547.04 Q1380.75 1542.23 1378.11 1539.37 Q1375.5 1536.5 1371.17 1536.5 Q1366.27 1536.5 1363.31 1539.27 Q1360.38 1542.04 1359.93 1547.07 L1380.81 1547.04 Z" fill="#000000" fill-rule="nonzero" fill-opacity="1" /><path clip-path="url(#clip460)" d="M1397.78 1559.96 L1404.49 1559.96 L1404.49 1565.43 L1399.27 1575.62 L1395.17 1575.62 L1397.78 1565.43 L1397.78 1559.96 Z" fill="#000000" fill-rule="nonzero" fill-opacity="1" /><path clip-path="url(#clip460)" d="M1460.45 1533.45 L1460.45 1538.98 Q1457.97 1537.71 1455.29 1537.07 Q1452.62 1536.44 1449.75 1536.44 Q1445.39 1536.44 1443.2 1537.77 Q1441.03 1539.11 1441.03 1541.79 Q1441.03 1543.82 1442.59 1545 Q1444.15 1546.15 1448.86 1547.2 L1450.87 1547.64 Q1457.11 1548.98 1459.72 1551.43 Q1462.36 1553.85 1462.36 1558.21 Q1462.36 1563.17 1458.41 1566.07 Q1454.5 1568.97 1447.62 1568.97 Q1444.76 1568.97 1441.64 1568.39 Q1438.55 1567.85 1435.11 1566.74 L1435.11 1560.69 Q1438.36 1562.38 1441.51 1563.24 Q1444.66 1564.07 1447.75 1564.07 Q1451.89 1564.07 1454.12 1562.66 Q1456.34 1561.23 1456.34 1558.65 Q1456.34 1556.27 1454.72 1554.99 Q1453.13 1553.72 1447.69 1552.54 L1445.65 1552.07 Q1440.21 1550.92 1437.79 1548.56 Q1435.37 1546.18 1435.37 1542.04 Q1435.37 1537.01 1438.93 1534.27 Q1442.5 1531.54 1449.05 1531.54 Q1452.3 1531.54 1455.17 1532.01 Q1458.03 1532.49 1460.45 1533.45 Z" fill="#000000" fill-rule="nonzero" fill-opacity="1" /><polyline clip-path="url(#clip460)" style="stroke:#000000; stroke-linecap:round; stroke-linejoin:round; stroke-width:4; stroke-opacity:1; fill:none" points="340.028,1423.18 340.028,47.2441 "/>
<polyline clip-path="url(#clip460)" style="stroke:#000000; stroke-linecap:round; stroke-linejoin:round; stroke-width:4; stroke-opacity:1; fill:none" points="340.028,1384.24 358.925,1384.24 "/>
<polyline clip-path="url(#clip460)" style="stroke:#000000; stroke-linecap:round; stroke-linejoin:round; stroke-width:4; stroke-opacity:1; fill:none" points="340.028,978.746 358.925,978.746 "/>
<polyline clip-path="url(#clip460)" style="stroke:#000000; stroke-linecap:round; stroke-linejoin:round; stroke-width:4; stroke-opacity:1; fill:none" points="340.028,573.254 358.925,573.254 "/>
<polyline clip-path="url(#clip460)" style="stroke:#000000; stroke-linecap:round; stroke-linejoin:round; stroke-width:4; stroke-opacity:1; fill:none" points="340.028,167.762 358.925,167.762 "/>
<path clip-path="url(#clip460)" d="M126.205 1370.04 Q122.593 1370.04 120.765 1373.6 Q118.959 1377.14 118.959 1384.27 Q118.959 1391.38 120.765 1394.94 Q122.593 1398.49 126.205 1398.49 Q129.839 1398.49 131.644 1394.94 Q133.473 1391.38 133.473 1384.27 Q133.473 1377.14 131.644 1373.6 Q129.839 1370.04 126.205 1370.04 M126.205 1366.33 Q132.015 1366.33 135.07 1370.94 Q138.149 1375.52 138.149 1384.27 Q138.149 1393 135.07 1397.61 Q132.015 1402.19 126.205 1402.19 Q120.394 1402.19 117.316 1397.61 Q114.26 1393 114.26 1384.27 Q114.26 1375.52 117.316 1370.94 Q120.394 1366.33 126.205 1366.33 Z" fill="#000000" fill-rule="nonzero" fill-opacity="1" /><path clip-path="url(#clip460)" d="M146.366 1395.64 L151.251 1395.64 L151.251 1401.52 L146.366 1401.52 L146.366 1395.64 Z" fill="#000000" fill-rule="nonzero" fill-opacity="1" /><path clip-path="url(#clip460)" d="M171.436 1370.04 Q167.825 1370.04 165.996 1373.6 Q164.19 1377.14 164.19 1384.27 Q164.19 1391.38 165.996 1394.94 Q167.825 1398.49 171.436 1398.49 Q175.07 1398.49 176.876 1394.94 Q178.704 1391.38 178.704 1384.27 Q178.704 1377.14 176.876 1373.6 Q175.07 1370.04 171.436 1370.04 M171.436 1366.33 Q177.246 1366.33 180.301 1370.94 Q183.38 1375.52 183.38 1384.27 Q183.38 1393 180.301 1397.61 Q177.246 1402.19 171.436 1402.19 Q165.626 1402.19 162.547 1397.61 Q159.491 1393 159.491 1384.27 Q159.491 1375.52 162.547 1370.94 Q165.626 1366.33 171.436 1366.33 Z" fill="#000000" fill-rule="nonzero" fill-opacity="1" /><path clip-path="url(#clip460)" d="M201.598 1370.04 Q197.987 1370.04 196.158 1373.6 Q194.352 1377.14 194.352 1384.27 Q194.352 1391.38 196.158 1394.94 Q197.987 1398.49 201.598 1398.49 Q205.232 1398.49 207.037 1394.94 Q208.866 1391.38 208.866 1384.27 Q208.866 1377.14 207.037 1373.6 Q205.232 1370.04 201.598 1370.04 M201.598 1366.33 Q207.408 1366.33 210.463 1370.94 Q213.542 1375.52 213.542 1384.27 Q213.542 1393 210.463 1397.61 Q207.408 1402.19 201.598 1402.19 Q195.787 1402.19 192.709 1397.61 Q189.653 1393 189.653 1384.27 Q189.653 1375.52 192.709 1370.94 Q195.787 1366.33 201.598 1366.33 Z" fill="#000000" fill-rule="nonzero" fill-opacity="1" /><path clip-path="url(#clip460)" d="M231.76 1370.04 Q228.148 1370.04 226.32 1373.6 Q224.514 1377.14 224.514 1384.27 Q224.514 1391.38 226.32 1394.94 Q228.148 1398.49 231.76 1398.49 Q235.394 1398.49 237.199 1394.94 Q239.028 1391.38 239.028 1384.27 Q239.028 1377.14 237.199 1373.6 Q235.394 1370.04 231.76 1370.04 M231.76 1366.33 Q237.57 1366.33 240.625 1370.94 Q243.704 1375.52 243.704 1384.27 Q243.704 1393 240.625 1397.61 Q237.57 1402.19 231.76 1402.19 Q225.949 1402.19 222.871 1397.61 Q219.815 1393 219.815 1384.27 Q219.815 1375.52 222.871 1370.94 Q225.949 1366.33 231.76 1366.33 Z" fill="#000000" fill-rule="nonzero" fill-opacity="1" /><path clip-path="url(#clip460)" d="M261.921 1370.04 Q258.31 1370.04 256.482 1373.6 Q254.676 1377.14 254.676 1384.27 Q254.676 1391.38 256.482 1394.94 Q258.31 1398.49 261.921 1398.49 Q265.556 1398.49 267.361 1394.94 Q269.19 1391.38 269.19 1384.27 Q269.19 1377.14 267.361 1373.6 Q265.556 1370.04 261.921 1370.04 M261.921 1366.33 Q267.732 1366.33 270.787 1370.94 Q273.866 1375.52 273.866 1384.27 Q273.866 1393 270.787 1397.61 Q267.732 1402.19 261.921 1402.19 Q256.111 1402.19 253.033 1397.61 Q249.977 1393 249.977 1384.27 Q249.977 1375.52 253.033 1370.94 Q256.111 1366.33 261.921 1366.33 Z" fill="#000000" fill-rule="nonzero" fill-opacity="1" /><path clip-path="url(#clip460)" d="M292.083 1370.04 Q288.472 1370.04 286.643 1373.6 Q284.838 1377.14 284.838 1384.27 Q284.838 1391.38 286.643 1394.94 Q288.472 1398.49 292.083 1398.49 Q295.718 1398.49 297.523 1394.94 Q299.352 1391.38 299.352 1384.27 Q299.352 1377.14 297.523 1373.6 Q295.718 1370.04 292.083 1370.04 M292.083 1366.33 Q297.893 1366.33 300.949 1370.94 Q304.028 1375.52 304.028 1384.27 Q304.028 1393 300.949 1397.61 Q297.893 1402.19 292.083 1402.19 Q286.273 1402.19 283.194 1397.61 Q280.139 1393 280.139 1384.27 Q280.139 1375.52 283.194 1370.94 Q286.273 1366.33 292.083 1366.33 Z" fill="#000000" fill-rule="nonzero" fill-opacity="1" /><path clip-path="url(#clip460)" d="M127.2 964.545 Q123.589 964.545 121.76 968.11 Q119.955 971.651 119.955 978.781 Q119.955 985.888 121.76 989.452 Q123.589 992.994 127.2 992.994 Q130.834 992.994 132.64 989.452 Q134.468 985.888 134.468 978.781 Q134.468 971.651 132.64 968.11 Q130.834 964.545 127.2 964.545 M127.2 960.841 Q133.01 960.841 136.066 965.448 Q139.144 970.031 139.144 978.781 Q139.144 987.508 136.066 992.114 Q133.01 996.698 127.2 996.698 Q121.39 996.698 118.311 992.114 Q115.256 987.508 115.256 978.781 Q115.256 970.031 118.311 965.448 Q121.39 960.841 127.2 960.841 Z" fill="#000000" fill-rule="nonzero" fill-opacity="1" /><path clip-path="url(#clip460)" d="M147.362 990.147 L152.246 990.147 L152.246 996.026 L147.362 996.026 L147.362 990.147 Z" fill="#000000" fill-rule="nonzero" fill-opacity="1" /><path clip-path="url(#clip460)" d="M172.431 964.545 Q168.82 964.545 166.991 968.11 Q165.186 971.651 165.186 978.781 Q165.186 985.888 166.991 989.452 Q168.82 992.994 172.431 992.994 Q176.065 992.994 177.871 989.452 Q179.7 985.888 179.7 978.781 Q179.7 971.651 177.871 968.11 Q176.065 964.545 172.431 964.545 M172.431 960.841 Q178.241 960.841 181.297 965.448 Q184.376 970.031 184.376 978.781 Q184.376 987.508 181.297 992.114 Q178.241 996.698 172.431 996.698 Q166.621 996.698 163.542 992.114 Q160.487 987.508 160.487 978.781 Q160.487 970.031 163.542 965.448 Q166.621 960.841 172.431 960.841 Z" fill="#000000" fill-rule="nonzero" fill-opacity="1" /><path clip-path="url(#clip460)" d="M202.593 964.545 Q198.982 964.545 197.153 968.11 Q195.348 971.651 195.348 978.781 Q195.348 985.888 197.153 989.452 Q198.982 992.994 202.593 992.994 Q206.227 992.994 208.033 989.452 Q209.861 985.888 209.861 978.781 Q209.861 971.651 208.033 968.11 Q206.227 964.545 202.593 964.545 M202.593 960.841 Q208.403 960.841 211.459 965.448 Q214.537 970.031 214.537 978.781 Q214.537 987.508 211.459 992.114 Q208.403 996.698 202.593 996.698 Q196.783 996.698 193.704 992.114 Q190.649 987.508 190.649 978.781 Q190.649 970.031 193.704 965.448 Q196.783 960.841 202.593 960.841 Z" fill="#000000" fill-rule="nonzero" fill-opacity="1" /><path clip-path="url(#clip460)" d="M232.755 964.545 Q229.144 964.545 227.315 968.11 Q225.51 971.651 225.51 978.781 Q225.51 985.888 227.315 989.452 Q229.144 992.994 232.755 992.994 Q236.389 992.994 238.195 989.452 Q240.023 985.888 240.023 978.781 Q240.023 971.651 238.195 968.11 Q236.389 964.545 232.755 964.545 M232.755 960.841 Q238.565 960.841 241.621 965.448 Q244.699 970.031 244.699 978.781 Q244.699 987.508 241.621 992.114 Q238.565 996.698 232.755 996.698 Q226.945 996.698 223.866 992.114 Q220.811 987.508 220.811 978.781 Q220.811 970.031 223.866 965.448 Q226.945 960.841 232.755 960.841 Z" fill="#000000" fill-rule="nonzero" fill-opacity="1" /><path clip-path="url(#clip460)" d="M262.917 964.545 Q259.306 964.545 257.477 968.11 Q255.671 971.651 255.671 978.781 Q255.671 985.888 257.477 989.452 Q259.306 992.994 262.917 992.994 Q266.551 992.994 268.357 989.452 Q270.185 985.888 270.185 978.781 Q270.185 971.651 268.357 968.11 Q266.551 964.545 262.917 964.545 M262.917 960.841 Q268.727 960.841 271.782 965.448 Q274.861 970.031 274.861 978.781 Q274.861 987.508 271.782 992.114 Q268.727 996.698 262.917 996.698 Q257.107 996.698 254.028 992.114 Q250.972 987.508 250.972 978.781 Q250.972 970.031 254.028 965.448 Q257.107 960.841 262.917 960.841 Z" fill="#000000" fill-rule="nonzero" fill-opacity="1" /><path clip-path="url(#clip460)" d="M283.125 961.466 L301.481 961.466 L301.481 965.401 L287.407 965.401 L287.407 973.874 Q288.426 973.526 289.444 973.364 Q290.463 973.179 291.481 973.179 Q297.268 973.179 300.648 976.351 Q304.028 979.522 304.028 984.938 Q304.028 990.517 300.555 993.619 Q297.083 996.698 290.764 996.698 Q288.588 996.698 286.319 996.327 Q284.074 995.957 281.667 995.216 L281.667 990.517 Q283.75 991.651 285.972 992.207 Q288.194 992.762 290.671 992.762 Q294.676 992.762 297.014 990.656 Q299.352 988.55 299.352 984.938 Q299.352 981.327 297.014 979.221 Q294.676 977.114 290.671 977.114 Q288.796 977.114 286.921 977.531 Q285.069 977.948 283.125 978.827 L283.125 961.466 Z" fill="#000000" fill-rule="nonzero" fill-opacity="1" /><path clip-path="url(#clip460)" d="M126.205 559.053 Q122.593 559.053 120.765 562.618 Q118.959 566.16 118.959 573.289 Q118.959 580.396 120.765 583.96 Q122.593 587.502 126.205 587.502 Q129.839 587.502 131.644 583.96 Q133.473 580.396 133.473 573.289 Q133.473 566.16 131.644 562.618 Q129.839 559.053 126.205 559.053 M126.205 555.349 Q132.015 555.349 135.07 559.956 Q138.149 564.539 138.149 573.289 Q138.149 582.016 135.07 586.622 Q132.015 591.206 126.205 591.206 Q120.394 591.206 117.316 586.622 Q114.26 582.016 114.26 573.289 Q114.26 564.539 117.316 559.956 Q120.394 555.349 126.205 555.349 Z" fill="#000000" fill-rule="nonzero" fill-opacity="1" /><path clip-path="url(#clip460)" d="M146.366 584.655 L151.251 584.655 L151.251 590.534 L146.366 590.534 L146.366 584.655 Z" fill="#000000" fill-rule="nonzero" fill-opacity="1" /><path clip-path="url(#clip460)" d="M171.436 559.053 Q167.825 559.053 165.996 562.618 Q164.19 566.16 164.19 573.289 Q164.19 580.396 165.996 583.96 Q167.825 587.502 171.436 587.502 Q175.07 587.502 176.876 583.96 Q178.704 580.396 178.704 573.289 Q178.704 566.16 176.876 562.618 Q175.07 559.053 171.436 559.053 M171.436 555.349 Q177.246 555.349 180.301 559.956 Q183.38 564.539 183.38 573.289 Q183.38 582.016 180.301 586.622 Q177.246 591.206 171.436 591.206 Q165.626 591.206 162.547 586.622 Q159.491 582.016 159.491 573.289 Q159.491 564.539 162.547 559.956 Q165.626 555.349 171.436 555.349 Z" fill="#000000" fill-rule="nonzero" fill-opacity="1" /><path clip-path="url(#clip460)" d="M201.598 559.053 Q197.987 559.053 196.158 562.618 Q194.352 566.16 194.352 573.289 Q194.352 580.396 196.158 583.96 Q197.987 587.502 201.598 587.502 Q205.232 587.502 207.037 583.96 Q208.866 580.396 208.866 573.289 Q208.866 566.16 207.037 562.618 Q205.232 559.053 201.598 559.053 M201.598 555.349 Q207.408 555.349 210.463 559.956 Q213.542 564.539 213.542 573.289 Q213.542 582.016 210.463 586.622 Q207.408 591.206 201.598 591.206 Q195.787 591.206 192.709 586.622 Q189.653 582.016 189.653 573.289 Q189.653 564.539 192.709 559.956 Q195.787 555.349 201.598 555.349 Z" fill="#000000" fill-rule="nonzero" fill-opacity="1" /><path clip-path="url(#clip460)" d="M231.76 559.053 Q228.148 559.053 226.32 562.618 Q224.514 566.16 224.514 573.289 Q224.514 580.396 226.32 583.96 Q228.148 587.502 231.76 587.502 Q235.394 587.502 237.199 583.96 Q239.028 580.396 239.028 573.289 Q239.028 566.16 237.199 562.618 Q235.394 559.053 231.76 559.053 M231.76 555.349 Q237.57 555.349 240.625 559.956 Q243.704 564.539 243.704 573.289 Q243.704 582.016 240.625 586.622 Q237.57 591.206 231.76 591.206 Q225.949 591.206 222.871 586.622 Q219.815 582.016 219.815 573.289 Q219.815 564.539 222.871 559.956 Q225.949 555.349 231.76 555.349 Z" fill="#000000" fill-rule="nonzero" fill-opacity="1" /><path clip-path="url(#clip460)" d="M252.732 586.599 L260.37 586.599 L260.37 560.234 L252.06 561.9 L252.06 557.641 L260.324 555.974 L265 555.974 L265 586.599 L272.639 586.599 L272.639 590.534 L252.732 590.534 L252.732 586.599 Z" fill="#000000" fill-rule="nonzero" fill-opacity="1" /><path clip-path="url(#clip460)" d="M292.083 559.053 Q288.472 559.053 286.643 562.618 Q284.838 566.16 284.838 573.289 Q284.838 580.396 286.643 583.96 Q288.472 587.502 292.083 587.502 Q295.718 587.502 297.523 583.96 Q299.352 580.396 299.352 573.289 Q299.352 566.16 297.523 562.618 Q295.718 559.053 292.083 559.053 M292.083 555.349 Q297.893 555.349 300.949 559.956 Q304.028 564.539 304.028 573.289 Q304.028 582.016 300.949 586.622 Q297.893 591.206 292.083 591.206 Q286.273 591.206 283.194 586.622 Q280.139 582.016 280.139 573.289 Q280.139 564.539 283.194 559.956 Q286.273 555.349 292.083 555.349 Z" fill="#000000" fill-rule="nonzero" fill-opacity="1" /><path clip-path="url(#clip460)" d="M127.2 153.561 Q123.589 153.561 121.76 157.126 Q119.955 160.668 119.955 167.797 Q119.955 174.904 121.76 178.468 Q123.589 182.01 127.2 182.01 Q130.834 182.01 132.64 178.468 Q134.468 174.904 134.468 167.797 Q134.468 160.668 132.64 157.126 Q130.834 153.561 127.2 153.561 M127.2 149.857 Q133.01 149.857 136.066 154.464 Q139.144 159.047 139.144 167.797 Q139.144 176.524 136.066 181.13 Q133.01 185.714 127.2 185.714 Q121.39 185.714 118.311 181.13 Q115.256 176.524 115.256 167.797 Q115.256 159.047 118.311 154.464 Q121.39 149.857 127.2 149.857 Z" fill="#000000" fill-rule="nonzero" fill-opacity="1" /><path clip-path="url(#clip460)" d="M147.362 179.163 L152.246 179.163 L152.246 185.042 L147.362 185.042 L147.362 179.163 Z" fill="#000000" fill-rule="nonzero" fill-opacity="1" /><path clip-path="url(#clip460)" d="M172.431 153.561 Q168.82 153.561 166.991 157.126 Q165.186 160.668 165.186 167.797 Q165.186 174.904 166.991 178.468 Q168.82 182.01 172.431 182.01 Q176.065 182.01 177.871 178.468 Q179.7 174.904 179.7 167.797 Q179.7 160.668 177.871 157.126 Q176.065 153.561 172.431 153.561 M172.431 149.857 Q178.241 149.857 181.297 154.464 Q184.376 159.047 184.376 167.797 Q184.376 176.524 181.297 181.13 Q178.241 185.714 172.431 185.714 Q166.621 185.714 163.542 181.13 Q160.487 176.524 160.487 167.797 Q160.487 159.047 163.542 154.464 Q166.621 149.857 172.431 149.857 Z" fill="#000000" fill-rule="nonzero" fill-opacity="1" /><path clip-path="url(#clip460)" d="M202.593 153.561 Q198.982 153.561 197.153 157.126 Q195.348 160.668 195.348 167.797 Q195.348 174.904 197.153 178.468 Q198.982 182.01 202.593 182.01 Q206.227 182.01 208.033 178.468 Q209.861 174.904 209.861 167.797 Q209.861 160.668 208.033 157.126 Q206.227 153.561 202.593 153.561 M202.593 149.857 Q208.403 149.857 211.459 154.464 Q214.537 159.047 214.537 167.797 Q214.537 176.524 211.459 181.13 Q208.403 185.714 202.593 185.714 Q196.783 185.714 193.704 181.13 Q190.649 176.524 190.649 167.797 Q190.649 159.047 193.704 154.464 Q196.783 149.857 202.593 149.857 Z" fill="#000000" fill-rule="nonzero" fill-opacity="1" /><path clip-path="url(#clip460)" d="M232.755 153.561 Q229.144 153.561 227.315 157.126 Q225.51 160.668 225.51 167.797 Q225.51 174.904 227.315 178.468 Q229.144 182.01 232.755 182.01 Q236.389 182.01 238.195 178.468 Q240.023 174.904 240.023 167.797 Q240.023 160.668 238.195 157.126 Q236.389 153.561 232.755 153.561 M232.755 149.857 Q238.565 149.857 241.621 154.464 Q244.699 159.047 244.699 167.797 Q244.699 176.524 241.621 181.13 Q238.565 185.714 232.755 185.714 Q226.945 185.714 223.866 181.13 Q220.811 176.524 220.811 167.797 Q220.811 159.047 223.866 154.464 Q226.945 149.857 232.755 149.857 Z" fill="#000000" fill-rule="nonzero" fill-opacity="1" /><path clip-path="url(#clip460)" d="M253.727 181.107 L261.366 181.107 L261.366 154.742 L253.056 156.408 L253.056 152.149 L261.32 150.482 L265.995 150.482 L265.995 181.107 L273.634 181.107 L273.634 185.042 L253.727 185.042 L253.727 181.107 Z" fill="#000000" fill-rule="nonzero" fill-opacity="1" /><path clip-path="url(#clip460)" d="M283.125 150.482 L301.481 150.482 L301.481 154.418 L287.407 154.418 L287.407 162.89 Q288.426 162.543 289.444 162.381 Q290.463 162.195 291.481 162.195 Q297.268 162.195 300.648 165.367 Q304.028 168.538 304.028 173.955 Q304.028 179.533 300.555 182.635 Q297.083 185.714 290.764 185.714 Q288.588 185.714 286.319 185.343 Q284.074 184.973 281.667 184.232 L281.667 179.533 Q283.75 180.667 285.972 181.223 Q288.194 181.779 290.671 181.779 Q294.676 181.779 297.014 179.672 Q299.352 177.566 299.352 173.955 Q299.352 170.343 297.014 168.237 Q294.676 166.131 290.671 166.131 Q288.796 166.131 286.921 166.547 Q285.069 166.964 283.125 167.843 L283.125 150.482 Z" fill="#000000" fill-rule="nonzero" fill-opacity="1" /><path clip-path="url(#clip460)" d="M16.4842 1054.77 L16.4842 1045.19 L48.8219 1033.06 L16.4842 1020.87 L16.4842 1011.29 L64.0042 1011.29 L64.0042 1017.56 L22.277 1017.56 L54.8694 1029.82 L54.8694 1036.28 L22.277 1048.53 L64.0042 1048.53 L64.0042 1054.77 L16.4842 1054.77 Z" fill="#000000" fill-rule="nonzero" fill-opacity="1" /><path clip-path="url(#clip460)" d="M46.0847 982.583 Q46.0847 989.681 47.7079 992.418 Q49.3312 995.156 53.2461 995.156 Q56.3653 995.156 58.2114 993.119 Q60.0256 991.05 60.0256 987.517 Q60.0256 982.647 56.5881 979.719 Q53.1188 976.759 47.3897 976.759 L46.0847 976.759 L46.0847 982.583 M43.6657 970.902 L64.0042 970.902 L64.0042 976.759 L58.5933 976.759 Q61.8398 978.764 63.3994 981.756 Q64.9272 984.748 64.9272 989.076 Q64.9272 994.551 61.8716 997.797 Q58.7843 1001.01 53.6281 1001.01 Q47.6125 1001.01 44.5569 997.002 Q41.5014 992.959 41.5014 984.97 L41.5014 976.759 L40.9285 976.759 Q36.8862 976.759 34.6901 979.432 Q32.4621 982.074 32.4621 986.88 Q32.4621 989.936 33.1941 992.832 Q33.9262 995.729 35.3903 998.402 L29.9795 998.402 Q28.7381 995.187 28.1334 992.164 Q27.4968 989.14 27.4968 986.275 Q27.4968 978.541 31.5072 974.722 Q35.5176 970.902 43.6657 970.902 Z" fill="#000000" fill-rule="nonzero" fill-opacity="1" /><path clip-path="url(#clip460)" d="M29.4065 936.114 L34.9447 936.114 Q33.6716 938.596 33.035 941.27 Q32.3984 943.943 32.3984 946.808 Q32.3984 951.169 33.7352 953.365 Q35.072 955.529 37.7456 955.529 Q39.7826 955.529 40.9603 953.969 Q42.1061 952.41 43.1565 947.699 L43.6021 945.694 Q44.9389 939.456 47.3897 936.846 Q49.8086 934.204 54.1691 934.204 Q59.1344 934.204 62.0308 938.151 Q64.9272 942.066 64.9272 948.941 Q64.9272 951.805 64.3543 954.924 Q63.8132 958.012 62.6992 961.449 L56.6518 961.449 Q58.3387 958.203 59.198 955.052 Q60.0256 951.901 60.0256 948.813 Q60.0256 944.676 58.6251 942.448 Q57.1929 940.22 54.6147 940.22 Q52.2276 940.22 50.9545 941.843 Q49.6813 943.434 48.5037 948.877 L48.0262 950.914 Q46.8804 956.357 44.5251 958.776 Q42.138 961.195 38.0002 961.195 Q32.9713 961.195 30.2341 957.63 Q27.4968 954.065 27.4968 947.508 Q27.4968 944.262 27.9743 941.397 Q28.4517 938.533 29.4065 936.114 Z" fill="#000000" fill-rule="nonzero" fill-opacity="1" /><path clip-path="url(#clip460)" d="M29.4065 902.153 L34.9447 902.153 Q33.6716 904.635 33.035 907.309 Q32.3984 909.982 32.3984 912.847 Q32.3984 917.208 33.7352 919.404 Q35.072 921.568 37.7456 921.568 Q39.7826 921.568 40.9603 920.008 Q42.1061 918.449 43.1565 913.738 L43.6021 911.733 Q44.9389 905.495 47.3897 902.885 Q49.8086 900.243 54.1691 900.243 Q59.1344 900.243 62.0308 904.19 Q64.9272 908.105 64.9272 914.98 Q64.9272 917.844 64.3543 920.963 Q63.8132 924.051 62.6992 927.488 L56.6518 927.488 Q58.3387 924.242 59.198 921.091 Q60.0256 917.94 60.0256 914.852 Q60.0256 910.715 58.6251 908.487 Q57.1929 906.259 54.6147 906.259 Q52.2276 906.259 50.9545 907.882 Q49.6813 909.473 48.5037 914.916 L48.0262 916.953 Q46.8804 922.396 44.5251 924.815 Q42.138 927.234 38.0002 927.234 Q32.9713 927.234 30.2341 923.669 Q27.4968 920.104 27.4968 913.547 Q27.4968 910.301 27.9743 907.436 Q28.4517 904.572 29.4065 902.153 Z" fill="#000000" fill-rule="nonzero" fill-opacity="1" /><path clip-path="url(#clip460)" d="M14.479 852.15 L19.3487 852.15 L19.3487 857.752 Q19.3487 860.903 20.6219 862.144 Q21.895 863.354 25.2052 863.354 L28.3562 863.354 L28.3562 853.71 L32.9077 853.71 L32.9077 863.354 L64.0042 863.354 L64.0042 869.242 L32.9077 869.242 L32.9077 874.844 L28.3562 874.844 L28.3562 869.242 L25.8736 869.242 Q19.9216 869.242 17.2162 866.473 Q14.479 863.704 14.479 857.688 L14.479 852.15 Z" fill="#000000" fill-rule="nonzero" fill-opacity="1" /><path clip-path="url(#clip460)" d="M14.479 847.248 L14.479 841.392 L64.0042 841.392 L64.0042 847.248 L14.479 847.248 Z" fill="#000000" fill-rule="nonzero" fill-opacity="1" /><path clip-path="url(#clip460)" d="M32.4621 815.324 Q32.4621 820.035 36.1542 822.772 Q39.8145 825.51 46.212 825.51 Q52.6095 825.51 56.3017 822.804 Q59.9619 820.067 59.9619 815.324 Q59.9619 810.646 56.2698 807.908 Q52.5777 805.171 46.212 805.171 Q39.8781 805.171 36.186 807.908 Q32.4621 810.646 32.4621 815.324 M27.4968 815.324 Q27.4968 807.686 32.4621 803.325 Q37.4273 798.965 46.212 798.965 Q54.9649 798.965 59.9619 803.325 Q64.9272 807.686 64.9272 815.324 Q64.9272 822.995 59.9619 827.356 Q54.9649 831.684 46.212 831.684 Q37.4273 831.684 32.4621 827.356 Q27.4968 822.995 27.4968 815.324 Z" fill="#000000" fill-rule="nonzero" fill-opacity="1" /><path clip-path="url(#clip460)" d="M28.3562 792.662 L28.3562 786.806 L56.1743 779.485 L28.3562 772.197 L28.3562 765.29 L56.1743 757.969 L28.3562 750.681 L28.3562 744.824 L64.0042 754.15 L64.0042 761.057 L34.7856 768.727 L64.0042 776.43 L64.0042 783.337 L28.3562 792.662 Z" fill="#000000" fill-rule="nonzero" fill-opacity="1" /><path clip-path="url(#clip460)" d="M33.8307 694.567 Q33.2578 695.554 33.0032 696.731 Q32.7167 697.877 32.7167 699.278 Q32.7167 704.243 35.9632 706.916 Q39.1779 709.558 45.2253 709.558 L64.0042 709.558 L64.0042 715.446 L28.3562 715.446 L28.3562 709.558 L33.8944 709.558 Q30.6479 707.712 29.0883 704.752 Q27.4968 701.792 27.4968 697.559 Q27.4968 696.954 27.5923 696.222 Q27.656 695.49 27.8151 694.599 L33.8307 694.567 Z" fill="#000000" fill-rule="nonzero" fill-opacity="1" /><path clip-path="url(#clip460)" d="M46.0847 672.223 Q46.0847 679.321 47.7079 682.058 Q49.3312 684.796 53.2461 684.796 Q56.3653 684.796 58.2114 682.759 Q60.0256 680.69 60.0256 677.157 Q60.0256 672.287 56.5881 669.359 Q53.1188 666.399 47.3897 666.399 L46.0847 666.399 L46.0847 672.223 M43.6657 660.542 L64.0042 660.542 L64.0042 666.399 L58.5933 666.399 Q61.8398 668.404 63.3994 671.396 Q64.9272 674.388 64.9272 678.716 Q64.9272 684.191 61.8716 687.437 Q58.7843 690.652 53.6281 690.652 Q47.6125 690.652 44.5569 686.642 Q41.5014 682.599 41.5014 674.61 L41.5014 666.399 L40.9285 666.399 Q36.8862 666.399 34.6901 669.072 Q32.4621 671.714 32.4621 676.52 Q32.4621 679.576 33.1941 682.472 Q33.9262 685.368 35.3903 688.042 L29.9795 688.042 Q28.7381 684.827 28.1334 681.804 Q27.4968 678.78 27.4968 675.915 Q27.4968 668.181 31.5072 664.362 Q35.5176 660.542 43.6657 660.542 Z" fill="#000000" fill-rule="nonzero" fill-opacity="1" /><path clip-path="url(#clip460)" d="M18.2347 642.686 L28.3562 642.686 L28.3562 630.623 L32.9077 630.623 L32.9077 642.686 L52.2594 642.686 Q56.6199 642.686 57.8613 641.509 Q59.1026 640.299 59.1026 636.639 L59.1026 630.623 L64.0042 630.623 L64.0042 636.639 Q64.0042 643.418 61.4897 645.997 Q58.9434 648.575 52.2594 648.575 L32.9077 648.575 L32.9077 652.872 L28.3562 652.872 L28.3562 648.575 L18.2347 648.575 L18.2347 642.686 Z" fill="#000000" fill-rule="nonzero" fill-opacity="1" /><path clip-path="url(#clip460)" d="M44.7161 592.429 L47.5806 592.429 L47.5806 619.356 Q53.6281 618.974 56.8109 615.728 Q59.9619 612.449 59.9619 606.625 Q59.9619 603.251 59.1344 600.1 Q58.3069 596.917 56.6518 593.798 L62.1899 593.798 Q63.5267 596.949 64.227 600.259 Q64.9272 603.569 64.9272 606.975 Q64.9272 615.505 59.9619 620.502 Q54.9967 625.467 46.5303 625.467 Q37.7774 625.467 32.6531 620.757 Q27.4968 616.014 27.4968 607.993 Q27.4968 600.8 32.1438 596.631 Q36.7589 592.429 44.7161 592.429 M42.9973 598.286 Q38.1912 598.349 35.3266 600.991 Q32.4621 603.601 32.4621 607.93 Q32.4621 612.831 35.2312 615.791 Q38.0002 618.72 43.0292 619.165 L42.9973 598.286 Z" fill="#000000" fill-rule="nonzero" fill-opacity="1" /><path clip-path="url(#clip460)" d="M55.9197 581.321 L55.9197 574.605 L61.3942 574.605 L71.5793 579.825 L71.5793 583.931 L61.3942 581.321 L55.9197 581.321 Z" fill="#000000" fill-rule="nonzero" fill-opacity="1" /><path clip-path="url(#clip460)" d="M14.479 541.599 L14.479 535.711 L43.7294 535.711 L28.3562 518.237 L28.3562 510.757 L45.0344 529.663 L64.0042 509.961 L64.0042 517.6 L46.5939 535.711 L64.0042 535.711 L64.0042 541.599 L14.479 541.599 Z" fill="#000000" fill-rule="nonzero" fill-opacity="1" /><path clip-path="url(#clip460)" d="M45.7664 480.17 Q39.4007 480.17 35.8996 482.812 Q32.3984 485.422 32.3984 490.164 Q32.3984 494.875 35.8996 497.516 Q39.4007 500.126 45.7664 500.126 Q52.1003 500.126 55.6014 497.516 Q59.1026 494.875 59.1026 490.164 Q59.1026 485.422 55.6014 482.812 Q52.1003 480.17 45.7664 480.17 M59.58 474.313 Q68.683 474.313 73.1071 478.356 Q77.5631 482.398 77.5631 490.737 Q77.5631 493.824 77.0857 496.562 Q76.6401 499.299 75.6852 501.877 L69.9879 501.877 Q71.3884 499.299 72.0568 496.784 Q72.7252 494.27 72.7252 491.66 Q72.7252 485.899 69.7015 483.035 Q66.7096 480.17 60.6303 480.17 L57.7339 480.17 Q60.885 481.984 62.4446 484.817 Q64.0042 487.65 64.0042 491.596 Q64.0042 498.153 59.0071 502.163 Q54.01 506.174 45.7664 506.174 Q37.491 506.174 32.4939 502.163 Q27.4968 498.153 27.4968 491.596 Q27.4968 487.65 29.0564 484.817 Q30.616 481.984 33.7671 480.17 L28.3562 480.17 L28.3562 474.313 L59.58 474.313 Z" fill="#000000" fill-rule="nonzero" fill-opacity="1" /><path clip-path="url(#clip460)" d="M16.4842 451.843 L16.4842 446.432 L70.0516 462.983 L70.0516 468.393 L16.4842 451.843 Z" fill="#000000" fill-rule="nonzero" fill-opacity="1" /><path clip-path="url(#clip460)" d="M29.4065 417.563 L34.9447 417.563 Q33.6716 420.046 33.035 422.719 Q32.3984 425.393 32.3984 428.258 Q32.3984 432.618 33.7352 434.814 Q35.072 436.979 37.7456 436.979 Q39.7826 436.979 40.9603 435.419 Q42.1061 433.859 43.1565 429.149 L43.6021 427.144 Q44.9389 420.905 47.3897 418.295 Q49.8086 415.653 54.1691 415.653 Q59.1344 415.653 62.0308 419.6 Q64.9272 423.515 64.9272 430.39 Q64.9272 433.255 64.3543 436.374 Q63.8132 439.461 62.6992 442.899 L56.6518 442.899 Q58.3387 439.652 59.198 436.501 Q60.0256 433.35 60.0256 430.263 Q60.0256 426.125 58.6251 423.897 Q57.1929 421.669 54.6147 421.669 Q52.2276 421.669 50.9545 423.292 Q49.6813 424.884 48.5037 430.326 L48.0262 432.363 Q46.8804 437.806 44.5251 440.225 Q42.138 442.644 38.0002 442.644 Q32.9713 442.644 30.2341 439.079 Q27.4968 435.515 27.4968 428.958 Q27.4968 425.711 27.9743 422.847 Q28.4517 419.982 29.4065 417.563 Z" fill="#000000" fill-rule="nonzero" fill-opacity="1" /><polyline clip-path="url(#clip462)" style="stroke:#0000ff; stroke-linecap:round; stroke-linejoin:round; stroke-width:4; stroke-opacity:1; fill:none" points="396.992,86.1857 416.171,187.89 435.351,280.418 454.531,364.704 473.711,441.576 492.891,511.771 512.07,575.942 531.25,634.674 550.43,688.487 569.61,737.846 588.79,783.168 607.969,824.826 627.149,863.153 646.329,898.452 665.509,930.993 684.689,961.019 703.868,988.749 723.048,1014.38 742.228,1038.1 761.408,1060.06 780.588,1080.41 799.767,1099.29 818.947,1116.81 838.127,1133.09 857.307,1148.22 876.487,1162.31 895.666,1175.42 914.846,1187.63 934.026,1199.02 953.206,1209.65 972.386,1219.57 991.565,1228.84 1010.75,1237.51 1029.93,1245.62 1049.1,1253.21 1068.28,1260.32 1087.46,1266.99 1106.64,1273.24 1125.82,1279.1 1145,1284.61 1164.18,1289.78 1183.36,1294.64 1202.54,1299.21 1221.72,1303.52 1240.9,1307.57 1260.08,1311.38 1279.26,1314.98 1298.44,1318.37 1317.62,1321.57 1336.8,1324.59 1355.98,1327.44 1375.16,1330.13 1394.34,1332.68 1413.52,1335.08 1432.7,1337.36 1451.88,1339.51 1471.06,1341.55 1490.24,1343.48 1509.42,1345.32 1528.6,1347.05 1547.78,1348.7 1566.96,1350.26 1586.14,1351.74 1605.32,1353.15 1624.5,1354.48 1643.68,1355.75 1662.86,1356.96 1682.04,1358.11 1701.22,1359.2 1720.4,1360.24 1739.58,1361.23 1758.76,1362.17 1777.94,1363.07 1797.12,1363.92 1816.3,1364.74 1835.48,1365.52 1854.66,1366.26 1873.84,1366.96 1893.02,1367.64 1912.2,1368.28 1931.38,1368.9 1950.56,1369.49 1969.74,1370.05 1988.92,1370.59 2008.09,1371.1 2027.27,1371.59 2046.45,1372.06 2065.63,1372.51 2084.81,1372.94 2103.99,1373.35 2123.17,1373.75 2142.35,1374.12 2161.53,1374.49 2180.71,1374.83 2199.89,1375.17 2219.07,1375.49 2238.25,1375.79 2257.43,1376.09 2276.61,1376.37 2295.79,1376.64 "/>
<polyline clip-path="url(#clip462)" style="stroke:#ff0000; stroke-linecap:round; stroke-linejoin:round; stroke-width:4; stroke-opacity:1; fill:none" points="396.992,86.1857 416.171,187.89 435.351,280.418 454.531,364.705 473.711,441.576 492.891,511.771 512.07,575.943 531.25,634.674 550.43,688.486 569.61,737.846 588.79,783.169 607.969,824.826 627.149,863.153 646.329,898.452 665.509,930.993 684.689,961.02 703.868,988.749 723.048,1014.38 742.228,1038.1 761.408,1060.06 780.588,1080.41 799.767,1099.29 818.947,1116.81 838.127,1133.09 857.307,1148.22 876.487,1162.3 895.666,1175.42 914.846,1187.63 934.026,1199.02 953.206,1209.65 972.386,1219.57 991.565,1228.84 1010.75,1237.51 1029.93,1245.62 1049.1,1253.21 1068.28,1260.32 1087.46,1266.98 1106.64,1273.23 1125.82,1279.1 1145,1284.6 1164.18,1289.78 1183.36,1294.64 1202.54,1299.21 1221.72,1303.52 1240.9,1307.57 1260.08,1311.38 1279.26,1314.98 1298.44,1318.37 1317.62,1321.57 1336.8,1324.59 1355.98,1327.44 1375.16,1330.13 1394.34,1332.67 1413.52,1335.08 1432.7,1337.36 1451.88,1339.51 1471.06,1341.55 1490.24,1343.48 1509.42,1345.31 1528.6,1347.06 1547.78,1348.71 1566.96,1350.27 1586.14,1351.75 1605.32,1353.16 1624.5,1354.49 1643.68,1355.75 1662.86,1356.94 1682.04,1358.08 1701.22,1359.17 1720.4,1360.22 1739.58,1361.22 1758.76,1362.23 1777.94,1363.26 1797.12,1364.31 1816.3,1365.38 1835.48,1366.47 1854.66,1367.58 1873.84,1368.72 1893.02,1369.88 1912.2,1371.05 1931.38,1372.25 1950.56,1373.46 1969.74,1374.69 1988.92,1375.95 2008.09,1377.22 2027.27,1378.47 2046.45,1379.71 2065.63,1381.19 2084.81,1382.41 2103.99,1382.43 2123.17,1384.24 2142.35,1384.24 2161.53,1384.24 2180.71,1384.24 2199.89,1384.24 2219.07,1384.24 2238.25,1384.24 2257.43,1384.24 2276.61,1384.24 2295.79,1384.24 "/>
<circle clip-path="url(#clip462)" cx="2123.17" cy="1384.24" r="14.4" fill="#ff0000" fill-rule="evenodd" fill-opacity="1" stroke="#000000" stroke-opacity="1" stroke-width="3.2"/>
<polyline clip-path="url(#clip462)" style="stroke:#d3d3d3; stroke-linecap:round; stroke-linejoin:round; stroke-width:4; stroke-opacity:1; fill:none" points="2044.22,1368.02 1877.35,1010.4 "/>
<polyline clip-path="url(#clip462)" style="stroke:#d3d3d3; stroke-linecap:round; stroke-linejoin:round; stroke-width:4; stroke-opacity:1; fill:none" points="1928.86,1384.24 1928.86,1368.02 2167.15,1368.02 2167.15,1384.24 1928.86,1384.24 "/>
<path clip-path="url(#clip460)" d="M1636.48 248.629 L2285.66 248.629 L2285.66 93.1086 L1636.48 93.1086  Z" fill="#ffffff" fill-rule="evenodd" fill-opacity="1"/>
<polyline clip-path="url(#clip460)" style="stroke:#000000; stroke-linecap:round; stroke-linejoin:round; stroke-width:4; stroke-opacity:1; fill:none" points="1636.48,248.629 2285.66,248.629 2285.66,93.1086 1636.48,93.1086 1636.48,248.629 "/>
<polyline clip-path="url(#clip460)" style="stroke:#0000ff; stroke-linecap:round; stroke-linejoin:round; stroke-width:4; stroke-opacity:1; fill:none" points="1658.84,144.949 1793.02,144.949 "/>
<path clip-path="url(#clip460)" d="M1815.39 127.669 L1835.25 127.669 L1835.25 131.604 L1820.06 131.604 L1820.06 141.789 L1833.77 141.789 L1833.77 145.724 L1820.06 145.724 L1820.06 162.229 L1815.39 162.229 L1815.39 127.669 Z" fill="#000000" fill-rule="nonzero" fill-opacity="1" /><path clip-path="url(#clip460)" d="M1839.44 151.997 L1839.44 136.303 L1843.7 136.303 L1843.7 151.835 Q1843.7 155.516 1845.13 157.368 Q1846.57 159.196 1849.44 159.196 Q1852.89 159.196 1854.88 156.997 Q1856.89 154.798 1856.89 151.002 L1856.89 136.303 L1861.15 136.303 L1861.15 162.229 L1856.89 162.229 L1856.89 158.247 Q1855.34 160.608 1853.28 161.766 Q1851.24 162.9 1848.54 162.9 Q1844.07 162.9 1841.75 160.122 Q1839.44 157.344 1839.44 151.997 M1850.16 135.678 L1850.16 135.678 Z" fill="#000000" fill-rule="nonzero" fill-opacity="1" /><path clip-path="url(#clip460)" d="M1869.92 126.21 L1874.18 126.21 L1874.18 162.229 L1869.92 162.229 L1869.92 126.21 Z" fill="#000000" fill-rule="nonzero" fill-opacity="1" /><path clip-path="url(#clip460)" d="M1883.1 126.21 L1887.35 126.21 L1887.35 162.229 L1883.1 162.229 L1883.1 126.21 Z" fill="#000000" fill-rule="nonzero" fill-opacity="1" /><path clip-path="url(#clip460)" d="M1907.05 164.636 Q1905.25 169.266 1903.53 170.678 Q1901.82 172.09 1898.95 172.09 L1895.55 172.09 L1895.55 168.525 L1898.05 168.525 Q1899.81 168.525 1900.78 167.692 Q1901.75 166.858 1902.93 163.756 L1903.7 161.812 L1893.21 136.303 L1897.72 136.303 L1905.83 156.581 L1913.93 136.303 L1918.44 136.303 L1907.05 164.636 Z" fill="#000000" fill-rule="nonzero" fill-opacity="1" /><path clip-path="url(#clip460)" d="M1958.05 137.298 L1958.05 141.28 Q1956.24 140.284 1954.41 139.798 Q1952.61 139.289 1950.76 139.289 Q1946.61 139.289 1944.32 141.928 Q1942.03 144.544 1942.03 149.289 Q1942.03 154.034 1944.32 156.673 Q1946.61 159.289 1950.76 159.289 Q1952.61 159.289 1954.41 158.803 Q1956.24 158.293 1958.05 157.298 L1958.05 161.233 Q1956.27 162.067 1954.34 162.483 Q1952.45 162.9 1950.29 162.9 Q1944.44 162.9 1940.99 159.219 Q1937.54 155.539 1937.54 149.289 Q1937.54 142.946 1941.01 139.312 Q1944.51 135.678 1950.57 135.678 Q1952.54 135.678 1954.41 136.095 Q1956.29 136.488 1958.05 137.298 Z" fill="#000000" fill-rule="nonzero" fill-opacity="1" /><path clip-path="url(#clip460)" d="M1987.01 146.581 L1987.01 162.229 L1982.75 162.229 L1982.75 146.719 Q1982.75 143.039 1981.31 141.21 Q1979.88 139.382 1977.01 139.382 Q1973.56 139.382 1971.57 141.581 Q1969.58 143.78 1969.58 147.576 L1969.58 162.229 L1965.29 162.229 L1965.29 126.21 L1969.58 126.21 L1969.58 140.331 Q1971.1 137.993 1973.16 136.835 Q1975.25 135.678 1977.96 135.678 Q1982.42 135.678 1984.71 138.456 Q1987.01 141.21 1987.01 146.581 Z" fill="#000000" fill-rule="nonzero" fill-opacity="1" /><path clip-path="url(#clip460)" d="M2005.55 139.289 Q2002.12 139.289 2000.13 141.974 Q1998.14 144.636 1998.14 149.289 Q1998.14 153.942 2000.11 156.627 Q2002.1 159.289 2005.55 159.289 Q2008.95 159.289 2010.94 156.604 Q2012.93 153.918 2012.93 149.289 Q2012.93 144.682 2010.94 141.997 Q2008.95 139.289 2005.55 139.289 M2005.55 135.678 Q2011.1 135.678 2014.27 139.289 Q2017.45 142.9 2017.45 149.289 Q2017.45 155.655 2014.27 159.289 Q2011.1 162.9 2005.55 162.9 Q1999.97 162.9 1996.8 159.289 Q1993.65 155.655 1993.65 149.289 Q1993.65 142.9 1996.8 139.289 Q1999.97 135.678 2005.55 135.678 Z" fill="#000000" fill-rule="nonzero" fill-opacity="1" /><path clip-path="url(#clip460)" d="M2024.34 126.21 L2028.63 126.21 L2028.63 147.483 L2041.33 136.303 L2046.77 136.303 L2033.02 148.432 L2047.35 162.229 L2041.8 162.229 L2028.63 149.567 L2028.63 162.229 L2024.34 162.229 L2024.34 126.21 Z" fill="#000000" fill-rule="nonzero" fill-opacity="1" /><path clip-path="url(#clip460)" d="M2072.45 148.201 L2072.45 150.284 L2052.86 150.284 Q2053.14 154.682 2055.5 156.997 Q2057.89 159.289 2062.12 159.289 Q2064.58 159.289 2066.87 158.687 Q2069.18 158.085 2071.45 156.881 L2071.45 160.909 Q2069.16 161.881 2066.75 162.391 Q2064.34 162.9 2061.87 162.9 Q2055.66 162.9 2052.03 159.289 Q2048.42 155.678 2048.42 149.52 Q2048.42 143.155 2051.84 139.428 Q2055.29 135.678 2061.13 135.678 Q2066.36 135.678 2069.39 139.057 Q2072.45 142.414 2072.45 148.201 M2068.19 146.951 Q2068.14 143.456 2066.22 141.372 Q2064.32 139.289 2061.17 139.289 Q2057.61 139.289 2055.46 141.303 Q2053.33 143.317 2053 146.974 L2068.19 146.951 Z" fill="#000000" fill-rule="nonzero" fill-opacity="1" /><path clip-path="url(#clip460)" d="M2096.5 140.238 L2096.5 126.21 L2100.76 126.21 L2100.76 162.229 L2096.5 162.229 L2096.5 158.34 Q2095.15 160.655 2093.09 161.789 Q2091.06 162.9 2088.19 162.9 Q2083.49 162.9 2080.52 159.15 Q2077.58 155.4 2077.58 149.289 Q2077.58 143.178 2080.52 139.428 Q2083.49 135.678 2088.19 135.678 Q2091.06 135.678 2093.09 136.812 Q2095.15 137.923 2096.5 140.238 M2081.98 149.289 Q2081.98 153.988 2083.9 156.673 Q2085.85 159.335 2089.23 159.335 Q2092.61 159.335 2094.55 156.673 Q2096.5 153.988 2096.5 149.289 Q2096.5 144.59 2094.55 141.928 Q2092.61 139.243 2089.23 139.243 Q2085.85 139.243 2083.9 141.928 Q2081.98 144.59 2081.98 149.289 Z" fill="#000000" fill-rule="nonzero" fill-opacity="1" /><path clip-path="url(#clip460)" d="M2144.78 141.28 Q2146.38 138.409 2148.6 137.044 Q2150.83 135.678 2153.83 135.678 Q2157.89 135.678 2160.08 138.525 Q2162.28 141.349 2162.28 146.581 L2162.28 162.229 L2158 162.229 L2158 146.719 Q2158 142.993 2156.68 141.187 Q2155.36 139.382 2152.65 139.382 Q2149.34 139.382 2147.42 141.581 Q2145.5 143.78 2145.5 147.576 L2145.5 162.229 L2141.22 162.229 L2141.22 146.719 Q2141.22 142.969 2139.9 141.187 Q2138.58 139.382 2135.83 139.382 Q2132.56 139.382 2130.64 141.604 Q2128.72 143.803 2128.72 147.576 L2128.72 162.229 L2124.44 162.229 L2124.44 136.303 L2128.72 136.303 L2128.72 140.331 Q2130.18 137.946 2132.21 136.812 Q2134.25 135.678 2137.05 135.678 Q2139.88 135.678 2141.84 137.113 Q2143.83 138.548 2144.78 141.28 Z" fill="#000000" fill-rule="nonzero" fill-opacity="1" /><path clip-path="url(#clip460)" d="M2180.82 139.289 Q2177.4 139.289 2175.41 141.974 Q2173.42 144.636 2173.42 149.289 Q2173.42 153.942 2175.39 156.627 Q2177.38 159.289 2180.82 159.289 Q2184.23 159.289 2186.22 156.604 Q2188.21 153.918 2188.21 149.289 Q2188.21 144.682 2186.22 141.997 Q2184.23 139.289 2180.82 139.289 M2180.82 135.678 Q2186.38 135.678 2189.55 139.289 Q2192.72 142.9 2192.72 149.289 Q2192.72 155.655 2189.55 159.289 Q2186.38 162.9 2180.82 162.9 Q2175.25 162.9 2172.07 159.289 Q2168.93 155.655 2168.93 149.289 Q2168.93 142.9 2172.07 139.289 Q2175.25 135.678 2180.82 135.678 Z" fill="#000000" fill-rule="nonzero" fill-opacity="1" /><path clip-path="url(#clip460)" d="M2216.84 140.238 L2216.84 126.21 L2221.1 126.21 L2221.1 162.229 L2216.84 162.229 L2216.84 158.34 Q2215.5 160.655 2213.44 161.789 Q2211.4 162.9 2208.53 162.9 Q2203.83 162.9 2200.87 159.15 Q2197.93 155.4 2197.93 149.289 Q2197.93 143.178 2200.87 139.428 Q2203.83 135.678 2208.53 135.678 Q2211.4 135.678 2213.44 136.812 Q2215.5 137.923 2216.84 140.238 M2202.33 149.289 Q2202.33 153.988 2204.25 156.673 Q2206.2 159.335 2209.57 159.335 Q2212.95 159.335 2214.9 156.673 Q2216.84 153.988 2216.84 149.289 Q2216.84 144.59 2214.9 141.928 Q2212.95 139.243 2209.57 139.243 Q2206.2 139.243 2204.25 141.928 Q2202.33 144.59 2202.33 149.289 Z" fill="#000000" fill-rule="nonzero" fill-opacity="1" /><path clip-path="url(#clip460)" d="M2252.05 148.201 L2252.05 150.284 L2232.47 150.284 Q2232.75 154.682 2235.11 156.997 Q2237.49 159.289 2241.73 159.289 Q2244.18 159.289 2246.47 158.687 Q2248.79 158.085 2251.06 156.881 L2251.06 160.909 Q2248.76 161.881 2246.36 162.391 Q2243.95 162.9 2241.47 162.9 Q2235.27 162.9 2231.63 159.289 Q2228.02 155.678 2228.02 149.52 Q2228.02 143.155 2231.45 139.428 Q2234.9 135.678 2240.73 135.678 Q2245.96 135.678 2249 139.057 Q2252.05 142.414 2252.05 148.201 M2247.79 146.951 Q2247.75 143.456 2245.82 141.372 Q2243.93 139.289 2240.78 139.289 Q2237.21 139.289 2235.06 141.303 Q2232.93 143.317 2232.61 146.974 L2247.79 146.951 Z" fill="#000000" fill-rule="nonzero" fill-opacity="1" /><path clip-path="url(#clip460)" d="M2259.04 126.21 L2263.3 126.21 L2263.3 162.229 L2259.04 162.229 L2259.04 126.21 Z" fill="#000000" fill-rule="nonzero" fill-opacity="1" /><polyline clip-path="url(#clip460)" style="stroke:#ff0000; stroke-linecap:round; stroke-linejoin:round; stroke-width:4; stroke-opacity:1; fill:none" points="1658.84,196.789 1793.02,196.789 "/>
<path clip-path="url(#clip460)" d="M1831.41 182.68 Q1826.31 182.68 1823.3 186.476 Q1820.32 190.272 1820.32 196.823 Q1820.32 203.351 1823.3 207.147 Q1826.31 210.944 1831.41 210.944 Q1836.5 210.944 1839.46 207.147 Q1842.45 203.351 1842.45 196.823 Q1842.45 190.272 1839.46 186.476 Q1836.5 182.68 1831.41 182.68 M1831.41 178.884 Q1838.67 178.884 1843.03 183.768 Q1847.38 188.629 1847.38 196.823 Q1847.38 204.995 1843.03 209.879 Q1838.67 214.74 1831.41 214.74 Q1824.11 214.74 1819.74 209.879 Q1815.39 205.018 1815.39 196.823 Q1815.39 188.629 1819.74 183.768 Q1824.11 178.884 1831.41 178.884 Z" fill="#000000" fill-rule="nonzero" fill-opacity="1" /><path clip-path="url(#clip460)" d="M1859.37 183.351 L1859.37 210.226 L1865.02 210.226 Q1872.17 210.226 1875.48 206.985 Q1878.81 203.745 1878.81 196.754 Q1878.81 189.809 1875.48 186.592 Q1872.17 183.351 1865.02 183.351 L1859.37 183.351 M1854.69 179.509 L1864.3 179.509 Q1874.35 179.509 1879.04 183.698 Q1883.74 187.865 1883.74 196.754 Q1883.74 205.689 1879.02 209.879 Q1874.3 214.069 1864.3 214.069 L1854.69 214.069 L1854.69 179.509 Z" fill="#000000" fill-rule="nonzero" fill-opacity="1" /><path clip-path="url(#clip460)" d="M1891.2 179.509 L1913.05 179.509 L1913.05 183.444 L1895.87 183.444 L1895.87 193.675 L1912.33 193.675 L1912.33 197.61 L1895.87 197.61 L1895.87 210.133 L1913.47 210.133 L1913.47 214.069 L1891.2 214.069 L1891.2 179.509 Z" fill="#000000" fill-rule="nonzero" fill-opacity="1" /><path clip-path="url(#clip460)" d="M1346.39 1010.4 L2151.48 1010.4 L2151.48 460.025 L1346.39 460.025  Z" fill="#ffffff" fill-rule="evenodd" fill-opacity="1"/>
<defs>
  <clipPath id="clip463">
    <rect x="1346" y="460" width="806" height="551"/>
  </clipPath>
</defs>
<polyline clip-path="url(#clip463)" style="stroke:#000000; stroke-linecap:round; stroke-linejoin:round; stroke-width:2; stroke-opacity:0.1; fill:none" points="1461.4,1010.4 1461.4,460.025 "/>
<polyline clip-path="url(#clip463)" style="stroke:#000000; stroke-linecap:round; stroke-linejoin:round; stroke-width:2; stroke-opacity:0.1; fill:none" points="1691.43,1010.4 1691.43,460.025 "/>
<polyline clip-path="url(#clip463)" style="stroke:#000000; stroke-linecap:round; stroke-linejoin:round; stroke-width:2; stroke-opacity:0.1; fill:none" points="1921.46,1010.4 1921.46,460.025 "/>
<polyline clip-path="url(#clip463)" style="stroke:#000000; stroke-linecap:round; stroke-linejoin:round; stroke-width:2; stroke-opacity:0.1; fill:none" points="2151.48,1010.4 2151.48,460.025 "/>
<polyline clip-path="url(#clip463)" style="stroke:#000000; stroke-linecap:round; stroke-linejoin:round; stroke-width:2; stroke-opacity:0.1; fill:none" points="1346.39,1010.4 2151.48,1010.4 "/>
<polyline clip-path="url(#clip463)" style="stroke:#000000; stroke-linecap:round; stroke-linejoin:round; stroke-width:2; stroke-opacity:0.1; fill:none" points="1346.39,872.806 2151.48,872.806 "/>
<polyline clip-path="url(#clip463)" style="stroke:#000000; stroke-linecap:round; stroke-linejoin:round; stroke-width:2; stroke-opacity:0.1; fill:none" points="1346.39,735.212 2151.48,735.212 "/>
<polyline clip-path="url(#clip463)" style="stroke:#000000; stroke-linecap:round; stroke-linejoin:round; stroke-width:2; stroke-opacity:0.1; fill:none" points="1346.39,597.618 2151.48,597.618 "/>
<polyline clip-path="url(#clip463)" style="stroke:#000000; stroke-linecap:round; stroke-linejoin:round; stroke-width:2; stroke-opacity:0.1; fill:none" points="1346.39,460.025 2151.48,460.025 "/>
<polyline clip-path="url(#clip460)" style="stroke:#000000; stroke-linecap:round; stroke-linejoin:round; stroke-width:4; stroke-opacity:1; fill:none" points="1346.39,1010.4 2151.48,1010.4 "/>
<polyline clip-path="url(#clip460)" style="stroke:#000000; stroke-linecap:round; stroke-linejoin:round; stroke-width:4; stroke-opacity:1; fill:none" points="1461.4,1010.4 1461.4,991.501 "/>
<polyline clip-path="url(#clip460)" style="stroke:#000000; stroke-linecap:round; stroke-linejoin:round; stroke-width:4; stroke-opacity:1; fill:none" points="1691.43,1010.4 1691.43,991.501 "/>
<polyline clip-path="url(#clip460)" style="stroke:#000000; stroke-linecap:round; stroke-linejoin:round; stroke-width:4; stroke-opacity:1; fill:none" points="1921.46,1010.4 1921.46,991.501 "/>
<polyline clip-path="url(#clip460)" style="stroke:#000000; stroke-linecap:round; stroke-linejoin:round; stroke-width:4; stroke-opacity:1; fill:none" points="2151.48,1010.4 2151.48,991.501 "/>
<path clip-path="url(#clip460)" d="M1432.97 1068.86 L1449.29 1068.86 L1449.29 1072.8 L1427.34 1072.8 L1427.34 1068.86 Q1430 1066.11 1434.59 1061.48 Q1439.19 1056.83 1440.37 1055.48 Q1442.62 1052.96 1443.5 1051.23 Q1444.4 1049.47 1444.4 1047.78 Q1444.4 1045.02 1442.46 1043.29 Q1440.54 1041.55 1437.44 1041.55 Q1435.24 1041.55 1432.78 1042.31 Q1430.35 1043.08 1427.57 1044.63 L1427.57 1039.91 Q1430.4 1038.77 1432.85 1038.19 Q1435.31 1037.61 1437.34 1037.61 Q1442.71 1037.61 1445.91 1040.3 Q1449.1 1042.98 1449.1 1047.48 Q1449.1 1049.6 1448.29 1051.53 Q1447.5 1053.42 1445.4 1056.02 Q1444.82 1056.69 1441.72 1059.91 Q1438.62 1063.1 1432.97 1068.86 Z" fill="#000000" fill-rule="nonzero" fill-opacity="1" /><path clip-path="url(#clip460)" d="M1459.1 1066.92 L1463.99 1066.92 L1463.99 1072.8 L1459.1 1072.8 L1459.1 1066.92 Z" fill="#000000" fill-rule="nonzero" fill-opacity="1" /><path clip-path="url(#clip460)" d="M1488.34 1054.16 Q1491.69 1054.88 1493.57 1057.15 Q1495.47 1059.42 1495.47 1062.75 Q1495.47 1067.87 1491.95 1070.67 Q1488.43 1073.47 1481.95 1073.47 Q1479.77 1073.47 1477.46 1073.03 Q1475.17 1072.61 1472.71 1071.76 L1472.71 1067.24 Q1474.66 1068.38 1476.97 1068.96 Q1479.29 1069.54 1481.81 1069.54 Q1486.21 1069.54 1488.5 1067.8 Q1490.81 1066.06 1490.81 1062.75 Q1490.81 1059.7 1488.66 1057.98 Q1486.53 1056.25 1482.71 1056.25 L1478.68 1056.25 L1478.68 1052.41 L1482.9 1052.41 Q1486.35 1052.41 1488.18 1051.04 Q1490 1049.65 1490 1047.06 Q1490 1044.4 1488.11 1042.98 Q1486.23 1041.55 1482.71 1041.55 Q1480.79 1041.55 1478.59 1041.97 Q1476.39 1042.38 1473.75 1043.26 L1473.75 1039.1 Q1476.42 1038.35 1478.73 1037.98 Q1481.07 1037.61 1483.13 1037.61 Q1488.45 1037.61 1491.56 1040.04 Q1494.66 1042.45 1494.66 1046.57 Q1494.66 1049.44 1493.01 1051.43 Q1491.37 1053.4 1488.34 1054.16 Z" fill="#000000" fill-rule="nonzero" fill-opacity="1" /><path clip-path="url(#clip460)" d="M1662.43 1068.86 L1678.75 1068.86 L1678.75 1072.8 L1656.8 1072.8 L1656.8 1068.86 Q1659.46 1066.11 1664.05 1061.48 Q1668.65 1056.83 1669.83 1055.48 Q1672.08 1052.96 1672.96 1051.23 Q1673.86 1049.47 1673.86 1047.78 Q1673.86 1045.02 1671.92 1043.29 Q1670 1041.55 1666.89 1041.55 Q1664.69 1041.55 1662.24 1042.31 Q1659.81 1043.08 1657.03 1044.63 L1657.03 1039.91 Q1659.86 1038.77 1662.31 1038.19 Q1664.76 1037.61 1666.8 1037.61 Q1672.17 1037.61 1675.37 1040.3 Q1678.56 1042.98 1678.56 1047.48 Q1678.56 1049.6 1677.75 1051.53 Q1676.96 1053.42 1674.86 1056.02 Q1674.28 1056.69 1671.18 1059.91 Q1668.07 1063.1 1662.43 1068.86 Z" fill="#000000" fill-rule="nonzero" fill-opacity="1" /><path clip-path="url(#clip460)" d="M1688.56 1066.92 L1693.44 1066.92 L1693.44 1072.8 L1688.56 1072.8 L1688.56 1066.92 Z" fill="#000000" fill-rule="nonzero" fill-opacity="1" /><path clip-path="url(#clip460)" d="M1716.48 1042.31 L1704.67 1060.76 L1716.48 1060.76 L1716.48 1042.31 M1715.25 1038.24 L1721.13 1038.24 L1721.13 1060.76 L1726.06 1060.76 L1726.06 1064.65 L1721.13 1064.65 L1721.13 1072.8 L1716.48 1072.8 L1716.48 1064.65 L1700.88 1064.65 L1700.88 1060.14 L1715.25 1038.24 Z" fill="#000000" fill-rule="nonzero" fill-opacity="1" /><path clip-path="url(#clip460)" d="M1893.19 1068.86 L1909.51 1068.86 L1909.51 1072.8 L1887.57 1072.8 L1887.57 1068.86 Q1890.23 1066.11 1894.81 1061.48 Q1899.42 1056.83 1900.6 1055.48 Q1902.85 1052.96 1903.73 1051.23 Q1904.63 1049.47 1904.63 1047.78 Q1904.63 1045.02 1902.68 1043.29 Q1900.76 1041.55 1897.66 1041.55 Q1895.46 1041.55 1893.01 1042.31 Q1890.58 1043.08 1887.8 1044.63 L1887.8 1039.91 Q1890.62 1038.77 1893.08 1038.19 Q1895.53 1037.61 1897.57 1037.61 Q1902.94 1037.61 1906.13 1040.3 Q1909.33 1042.98 1909.33 1047.48 Q1909.33 1049.6 1908.52 1051.53 Q1907.73 1053.42 1905.62 1056.02 Q1905.05 1056.69 1901.94 1059.91 Q1898.84 1063.1 1893.19 1068.86 Z" fill="#000000" fill-rule="nonzero" fill-opacity="1" /><path clip-path="url(#clip460)" d="M1919.33 1066.92 L1924.21 1066.92 L1924.21 1072.8 L1919.33 1072.8 L1919.33 1066.92 Z" fill="#000000" fill-rule="nonzero" fill-opacity="1" /><path clip-path="url(#clip460)" d="M1934.44 1038.24 L1952.8 1038.24 L1952.8 1042.17 L1938.73 1042.17 L1938.73 1050.65 Q1939.74 1050.3 1940.76 1050.14 Q1941.78 1049.95 1942.8 1049.95 Q1948.59 1049.95 1951.97 1053.12 Q1955.35 1056.29 1955.35 1061.71 Q1955.35 1067.29 1951.87 1070.39 Q1948.4 1073.47 1942.08 1073.47 Q1939.91 1073.47 1937.64 1073.1 Q1935.39 1072.73 1932.98 1071.99 L1932.98 1067.29 Q1935.07 1068.42 1937.29 1068.98 Q1939.51 1069.54 1941.99 1069.54 Q1945.99 1069.54 1948.33 1067.43 Q1950.67 1065.32 1950.67 1061.71 Q1950.67 1058.1 1948.33 1055.99 Q1945.99 1053.89 1941.99 1053.89 Q1940.11 1053.89 1938.24 1054.3 Q1936.39 1054.72 1934.44 1055.6 L1934.44 1038.24 Z" fill="#000000" fill-rule="nonzero" fill-opacity="1" /><path clip-path="url(#clip460)" d="M2122.64 1068.86 L2138.96 1068.86 L2138.96 1072.8 L2117.02 1072.8 L2117.02 1068.86 Q2119.68 1066.11 2124.26 1061.48 Q2128.87 1056.83 2130.05 1055.48 Q2132.29 1052.96 2133.17 1051.23 Q2134.08 1049.47 2134.08 1047.78 Q2134.08 1045.02 2132.13 1043.29 Q2130.21 1041.55 2127.11 1041.55 Q2124.91 1041.55 2122.46 1042.31 Q2120.02 1043.08 2117.25 1044.63 L2117.25 1039.91 Q2120.07 1038.77 2122.52 1038.19 Q2124.98 1037.61 2127.02 1037.61 Q2132.39 1037.61 2135.58 1040.3 Q2138.77 1042.98 2138.77 1047.48 Q2138.77 1049.6 2137.96 1051.53 Q2137.18 1053.42 2135.07 1056.02 Q2134.49 1056.69 2131.39 1059.91 Q2128.29 1063.1 2122.64 1068.86 Z" fill="#000000" fill-rule="nonzero" fill-opacity="1" /><path clip-path="url(#clip460)" d="M2148.77 1066.92 L2153.66 1066.92 L2153.66 1072.8 L2148.77 1072.8 L2148.77 1066.92 Z" fill="#000000" fill-rule="nonzero" fill-opacity="1" /><path clip-path="url(#clip460)" d="M2174.42 1053.66 Q2171.27 1053.66 2169.42 1055.81 Q2167.59 1057.96 2167.59 1061.71 Q2167.59 1065.44 2169.42 1067.61 Q2171.27 1069.77 2174.42 1069.77 Q2177.57 1069.77 2179.4 1067.61 Q2181.25 1065.44 2181.25 1061.71 Q2181.25 1057.96 2179.4 1055.81 Q2177.57 1053.66 2174.42 1053.66 M2183.71 1039 L2183.71 1043.26 Q2181.95 1042.43 2180.14 1041.99 Q2178.36 1041.55 2176.6 1041.55 Q2171.97 1041.55 2169.52 1044.67 Q2167.08 1047.8 2166.74 1054.12 Q2168.1 1052.1 2170.16 1051.04 Q2172.22 1049.95 2174.7 1049.95 Q2179.91 1049.95 2182.92 1053.12 Q2185.95 1056.27 2185.95 1061.71 Q2185.95 1067.04 2182.8 1070.25 Q2179.65 1073.47 2174.42 1073.47 Q2168.43 1073.47 2165.26 1068.89 Q2162.08 1064.28 2162.08 1055.55 Q2162.08 1047.36 2165.97 1042.5 Q2169.86 1037.61 2176.41 1037.61 Q2178.17 1037.61 2179.96 1037.96 Q2181.76 1038.31 2183.71 1039 Z" fill="#000000" fill-rule="nonzero" fill-opacity="1" /><polyline clip-path="url(#clip460)" style="stroke:#000000; stroke-linecap:round; stroke-linejoin:round; stroke-width:4; stroke-opacity:1; fill:none" points="1346.39,1010.4 1346.39,460.025 "/>
<polyline clip-path="url(#clip460)" style="stroke:#000000; stroke-linecap:round; stroke-linejoin:round; stroke-width:4; stroke-opacity:1; fill:none" points="1346.39,1010.4 1365.29,1010.4 "/>
<polyline clip-path="url(#clip460)" style="stroke:#000000; stroke-linecap:round; stroke-linejoin:round; stroke-width:4; stroke-opacity:1; fill:none" points="1346.39,872.806 1365.29,872.806 "/>
<polyline clip-path="url(#clip460)" style="stroke:#000000; stroke-linecap:round; stroke-linejoin:round; stroke-width:4; stroke-opacity:1; fill:none" points="1346.39,735.212 1365.29,735.212 "/>
<polyline clip-path="url(#clip460)" style="stroke:#000000; stroke-linecap:round; stroke-linejoin:round; stroke-width:4; stroke-opacity:1; fill:none" points="1346.39,597.618 1365.29,597.618 "/>
<polyline clip-path="url(#clip460)" style="stroke:#000000; stroke-linecap:round; stroke-linejoin:round; stroke-width:4; stroke-opacity:1; fill:none" points="1346.39,460.025 1365.29,460.025 "/>
<path clip-path="url(#clip460)" d="M1298.45 996.198 Q1294.84 996.198 1293.01 999.763 Q1291.2 1003.3 1291.2 1010.43 Q1291.2 1017.54 1293.01 1021.11 Q1294.84 1024.65 1298.45 1024.65 Q1302.08 1024.65 1303.89 1021.11 Q1305.72 1017.54 1305.72 1010.43 Q1305.72 1003.3 1303.89 999.763 Q1302.08 996.198 1298.45 996.198 M1298.45 992.494 Q1304.26 992.494 1307.31 997.101 Q1310.39 1001.68 1310.39 1010.43 Q1310.39 1019.16 1307.31 1023.77 Q1304.26 1028.35 1298.45 1028.35 Q1292.64 1028.35 1289.56 1023.77 Q1286.5 1019.16 1286.5 1010.43 Q1286.5 1001.68 1289.56 997.101 Q1292.64 992.494 1298.45 992.494 Z" fill="#000000" fill-rule="nonzero" fill-opacity="1" /><path clip-path="url(#clip460)" d="M1063.65 861.973 L1082 861.973 L1082 865.908 L1067.93 865.908 L1067.93 874.38 Q1068.95 874.033 1069.97 873.871 Q1070.98 873.686 1072 873.686 Q1077.79 873.686 1081.17 876.857 Q1084.55 880.029 1084.55 885.445 Q1084.55 891.024 1081.08 894.126 Q1077.61 897.204 1071.29 897.204 Q1069.11 897.204 1066.84 896.834 Q1064.6 896.464 1062.19 895.723 L1062.19 891.024 Q1064.27 892.158 1066.49 892.714 Q1068.72 893.269 1071.19 893.269 Q1075.2 893.269 1077.54 891.163 Q1079.87 889.056 1079.87 885.445 Q1079.87 881.834 1077.54 879.728 Q1075.2 877.621 1071.19 877.621 Q1069.32 877.621 1067.44 878.038 Q1065.59 878.455 1063.65 879.334 L1063.65 861.973 Z" fill="#000000" fill-rule="nonzero" fill-opacity="1" /><path clip-path="url(#clip460)" d="M1093.76 890.654 L1098.65 890.654 L1098.65 896.533 L1093.76 896.533 L1093.76 890.654 Z" fill="#000000" fill-rule="nonzero" fill-opacity="1" /><path clip-path="url(#clip460)" d="M1118.83 865.052 Q1115.22 865.052 1113.39 868.617 Q1111.59 872.158 1111.59 879.288 Q1111.59 886.394 1113.39 889.959 Q1115.22 893.501 1118.83 893.501 Q1122.47 893.501 1124.27 889.959 Q1126.1 886.394 1126.1 879.288 Q1126.1 872.158 1124.27 868.617 Q1122.47 865.052 1118.83 865.052 M1118.83 861.348 Q1124.64 861.348 1127.7 865.955 Q1130.78 870.538 1130.78 879.288 Q1130.78 888.015 1127.7 892.621 Q1124.64 897.204 1118.83 897.204 Q1113.02 897.204 1109.94 892.621 Q1106.89 888.015 1106.89 879.288 Q1106.89 870.538 1109.94 865.955 Q1113.02 861.348 1118.83 861.348 Z" fill="#000000" fill-rule="nonzero" fill-opacity="1" /><path clip-path="url(#clip460)" d="M1148.99 865.052 Q1145.38 865.052 1143.55 868.617 Q1141.75 872.158 1141.75 879.288 Q1141.75 886.394 1143.55 889.959 Q1145.38 893.501 1148.99 893.501 Q1152.63 893.501 1154.43 889.959 Q1156.26 886.394 1156.26 879.288 Q1156.26 872.158 1154.43 868.617 Q1152.63 865.052 1148.99 865.052 M1148.99 861.348 Q1154.8 861.348 1157.86 865.955 Q1160.94 870.538 1160.94 879.288 Q1160.94 888.015 1157.86 892.621 Q1154.8 897.204 1148.99 897.204 Q1143.18 897.204 1140.1 892.621 Q1137.05 888.015 1137.05 879.288 Q1137.05 870.538 1140.1 865.955 Q1143.18 861.348 1148.99 861.348 Z" fill="#000000" fill-rule="nonzero" fill-opacity="1" /><path clip-path="url(#clip460)" d="M1197.33 871.07 L1186.75 881.695 L1197.33 892.274 L1194.57 895.075 L1183.95 884.45 L1173.32 895.075 L1170.59 892.274 L1181.15 881.695 L1170.59 871.07 L1173.32 868.269 L1183.95 878.894 L1194.57 868.269 L1197.33 871.07 Z" fill="#000000" fill-rule="nonzero" fill-opacity="1" /><path clip-path="url(#clip460)" d="M1209.69 892.598 L1217.33 892.598 L1217.33 866.232 L1209.02 867.899 L1209.02 863.64 L1217.28 861.973 L1221.96 861.973 L1221.96 892.598 L1229.6 892.598 L1229.6 896.533 L1209.69 896.533 L1209.69 892.598 Z" fill="#000000" fill-rule="nonzero" fill-opacity="1" /><path clip-path="url(#clip460)" d="M1249.04 865.052 Q1245.43 865.052 1243.6 868.617 Q1241.79 872.158 1241.79 879.288 Q1241.79 886.394 1243.6 889.959 Q1245.43 893.501 1249.04 893.501 Q1252.67 893.501 1254.48 889.959 Q1256.31 886.394 1256.31 879.288 Q1256.31 872.158 1254.48 868.617 Q1252.67 865.052 1249.04 865.052 M1249.04 861.348 Q1254.85 861.348 1257.91 865.955 Q1260.98 870.538 1260.98 879.288 Q1260.98 888.015 1257.91 892.621 Q1254.85 897.204 1249.04 897.204 Q1243.23 897.204 1240.15 892.621 Q1237.1 888.015 1237.1 879.288 Q1237.1 870.538 1240.15 865.955 Q1243.23 861.348 1249.04 861.348 Z" fill="#000000" fill-rule="nonzero" fill-opacity="1" /><path clip-path="url(#clip460)" d="M1260.98 855.449 L1285.1 855.449 L1285.1 858.647 L1260.98 858.647 L1260.98 855.449 Z" fill="#000000" fill-rule="nonzero" fill-opacity="1" /><path clip-path="url(#clip460)" d="M1292.34 841.043 L1310.39 841.043 L1310.39 842.66 L1300.2 869.123 L1296.23 869.123 L1305.82 844.24 L1292.34 844.24 L1292.34 841.043 Z" fill="#000000" fill-rule="nonzero" fill-opacity="1" /><path clip-path="url(#clip460)" d="M1063.55 755.004 L1071.18 755.004 L1071.18 728.639 L1062.87 730.305 L1062.87 726.046 L1071.14 724.38 L1075.81 724.38 L1075.81 755.004 L1083.45 755.004 L1083.45 758.94 L1063.55 758.94 L1063.55 755.004 Z" fill="#000000" fill-rule="nonzero" fill-opacity="1" /><path clip-path="url(#clip460)" d="M1092.9 753.06 L1097.78 753.06 L1097.78 758.94 L1092.9 758.94 L1092.9 753.06 Z" fill="#000000" fill-rule="nonzero" fill-opacity="1" /><path clip-path="url(#clip460)" d="M1117.97 727.458 Q1114.36 727.458 1112.53 731.023 Q1110.72 734.565 1110.72 741.694 Q1110.72 748.801 1112.53 752.366 Q1114.36 755.907 1117.97 755.907 Q1121.6 755.907 1123.41 752.366 Q1125.24 748.801 1125.24 741.694 Q1125.24 734.565 1123.41 731.023 Q1121.6 727.458 1117.97 727.458 M1117.97 723.755 Q1123.78 723.755 1126.83 728.361 Q1129.91 732.944 1129.91 741.694 Q1129.91 750.421 1126.83 755.028 Q1123.78 759.611 1117.97 759.611 Q1112.16 759.611 1109.08 755.028 Q1106.02 750.421 1106.02 741.694 Q1106.02 732.944 1109.08 728.361 Q1112.16 723.755 1117.97 723.755 Z" fill="#000000" fill-rule="nonzero" fill-opacity="1" /><path clip-path="url(#clip460)" d="M1148.13 727.458 Q1144.52 727.458 1142.69 731.023 Q1140.88 734.565 1140.88 741.694 Q1140.88 748.801 1142.69 752.366 Q1144.52 755.907 1148.13 755.907 Q1151.76 755.907 1153.57 752.366 Q1155.4 748.801 1155.4 741.694 Q1155.4 734.565 1153.57 731.023 Q1151.76 727.458 1148.13 727.458 M1148.13 723.755 Q1153.94 723.755 1156.99 728.361 Q1160.07 732.944 1160.07 741.694 Q1160.07 750.421 1156.99 755.028 Q1153.94 759.611 1148.13 759.611 Q1142.32 759.611 1139.24 755.028 Q1136.18 750.421 1136.18 741.694 Q1136.18 732.944 1139.24 728.361 Q1142.32 723.755 1148.13 723.755 Z" fill="#000000" fill-rule="nonzero" fill-opacity="1" /><path clip-path="url(#clip460)" d="M1196.46 733.477 L1185.88 744.102 L1196.46 754.68 L1193.71 757.481 L1183.08 746.856 L1172.46 757.481 L1169.73 754.68 L1180.28 744.102 L1169.73 733.477 L1172.46 730.676 L1183.08 741.301 L1193.71 730.676 L1196.46 733.477 Z" fill="#000000" fill-rule="nonzero" fill-opacity="1" /><path clip-path="url(#clip460)" d="M1208.82 755.004 L1216.46 755.004 L1216.46 728.639 L1208.15 730.305 L1208.15 726.046 L1216.42 724.38 L1221.09 724.38 L1221.09 755.004 L1228.73 755.004 L1228.73 758.94 L1208.82 758.94 L1208.82 755.004 Z" fill="#000000" fill-rule="nonzero" fill-opacity="1" /><path clip-path="url(#clip460)" d="M1248.17 727.458 Q1244.56 727.458 1242.73 731.023 Q1240.93 734.565 1240.93 741.694 Q1240.93 748.801 1242.73 752.366 Q1244.56 755.907 1248.17 755.907 Q1251.81 755.907 1253.61 752.366 Q1255.44 748.801 1255.44 741.694 Q1255.44 734.565 1253.61 731.023 Q1251.81 727.458 1248.17 727.458 M1248.17 723.755 Q1253.98 723.755 1257.04 728.361 Q1260.12 732.944 1260.12 741.694 Q1260.12 750.421 1257.04 755.028 Q1253.98 759.611 1248.17 759.611 Q1242.36 759.611 1239.29 755.028 Q1236.23 750.421 1236.23 741.694 Q1236.23 732.944 1239.29 728.361 Q1242.36 723.755 1248.17 723.755 Z" fill="#000000" fill-rule="nonzero" fill-opacity="1" /><path clip-path="url(#clip460)" d="M1260.12 717.856 L1284.23 717.856 L1284.23 721.053 L1260.12 721.053 L1260.12 717.856 Z" fill="#000000" fill-rule="nonzero" fill-opacity="1" /><path clip-path="url(#clip460)" d="M1301.03 715.975 Q1298.47 715.975 1296.96 717.724 Q1295.48 719.473 1295.48 722.52 Q1295.48 725.548 1296.96 727.316 Q1298.47 729.065 1301.03 729.065 Q1303.58 729.065 1305.07 727.316 Q1306.57 725.548 1306.57 722.52 Q1306.57 719.473 1305.07 717.724 Q1303.58 715.975 1301.03 715.975 M1308.57 704.07 L1308.57 707.53 Q1307.14 706.853 1305.67 706.496 Q1304.22 706.139 1302.79 706.139 Q1299.03 706.139 1297.04 708.678 Q1295.06 711.217 1294.78 716.351 Q1295.89 714.715 1297.56 713.85 Q1299.24 712.966 1301.25 712.966 Q1305.48 712.966 1307.93 715.543 Q1310.39 718.1 1310.39 722.52 Q1310.39 726.846 1307.83 729.46 Q1305.28 732.075 1301.03 732.075 Q1296.15 732.075 1293.58 728.351 Q1291 724.608 1291 717.517 Q1291 710.859 1294.16 706.91 Q1297.32 702.941 1302.64 702.941 Q1304.07 702.941 1305.52 703.223 Q1306.99 703.506 1308.57 704.07 Z" fill="#000000" fill-rule="nonzero" fill-opacity="1" /><path clip-path="url(#clip460)" d="M1063.55 617.411 L1071.18 617.411 L1071.18 591.045 L1062.87 592.712 L1062.87 588.453 L1071.14 586.786 L1075.81 586.786 L1075.81 617.411 L1083.45 617.411 L1083.45 621.346 L1063.55 621.346 L1063.55 617.411 Z" fill="#000000" fill-rule="nonzero" fill-opacity="1" /><path clip-path="url(#clip460)" d="M1092.9 615.466 L1097.78 615.466 L1097.78 621.346 L1092.9 621.346 L1092.9 615.466 Z" fill="#000000" fill-rule="nonzero" fill-opacity="1" /><path clip-path="url(#clip460)" d="M1108.01 586.786 L1126.37 586.786 L1126.37 590.721 L1112.3 590.721 L1112.3 599.193 Q1113.31 598.846 1114.33 598.684 Q1115.35 598.499 1116.37 598.499 Q1122.16 598.499 1125.54 601.67 Q1128.92 604.841 1128.92 610.258 Q1128.92 615.837 1125.44 618.939 Q1121.97 622.017 1115.65 622.017 Q1113.48 622.017 1111.21 621.647 Q1108.96 621.277 1106.55 620.536 L1106.55 615.837 Q1108.64 616.971 1110.86 617.527 Q1113.08 618.082 1115.56 618.082 Q1119.56 618.082 1121.9 615.976 Q1124.24 613.869 1124.24 610.258 Q1124.24 606.647 1121.9 604.541 Q1119.56 602.434 1115.56 602.434 Q1113.68 602.434 1111.81 602.851 Q1109.96 603.267 1108.01 604.147 L1108.01 586.786 Z" fill="#000000" fill-rule="nonzero" fill-opacity="1" /><path clip-path="url(#clip460)" d="M1148.13 589.865 Q1144.52 589.865 1142.69 593.429 Q1140.88 596.971 1140.88 604.101 Q1140.88 611.207 1142.69 614.772 Q1144.52 618.314 1148.13 618.314 Q1151.76 618.314 1153.57 614.772 Q1155.4 611.207 1155.4 604.101 Q1155.4 596.971 1153.57 593.429 Q1151.76 589.865 1148.13 589.865 M1148.13 586.161 Q1153.94 586.161 1156.99 590.767 Q1160.07 595.351 1160.07 604.101 Q1160.07 612.828 1156.99 617.434 Q1153.94 622.017 1148.13 622.017 Q1142.32 622.017 1139.24 617.434 Q1136.18 612.828 1136.18 604.101 Q1136.18 595.351 1139.24 590.767 Q1142.32 586.161 1148.13 586.161 Z" fill="#000000" fill-rule="nonzero" fill-opacity="1" /><path clip-path="url(#clip460)" d="M1196.46 595.883 L1185.88 606.508 L1196.46 617.087 L1193.71 619.888 L1183.08 609.263 L1172.46 619.888 L1169.73 617.087 L1180.28 606.508 L1169.73 595.883 L1172.46 593.082 L1183.08 603.707 L1193.71 593.082 L1196.46 595.883 Z" fill="#000000" fill-rule="nonzero" fill-opacity="1" /><path clip-path="url(#clip460)" d="M1208.82 617.411 L1216.46 617.411 L1216.46 591.045 L1208.15 592.712 L1208.15 588.453 L1216.42 586.786 L1221.09 586.786 L1221.09 617.411 L1228.73 617.411 L1228.73 621.346 L1208.82 621.346 L1208.82 617.411 Z" fill="#000000" fill-rule="nonzero" fill-opacity="1" /><path clip-path="url(#clip460)" d="M1248.17 589.865 Q1244.56 589.865 1242.73 593.429 Q1240.93 596.971 1240.93 604.101 Q1240.93 611.207 1242.73 614.772 Q1244.56 618.314 1248.17 618.314 Q1251.81 618.314 1253.61 614.772 Q1255.44 611.207 1255.44 604.101 Q1255.44 596.971 1253.61 593.429 Q1251.81 589.865 1248.17 589.865 M1248.17 586.161 Q1253.98 586.161 1257.04 590.767 Q1260.12 595.351 1260.12 604.101 Q1260.12 612.828 1257.04 617.434 Q1253.98 622.017 1248.17 622.017 Q1242.36 622.017 1239.29 617.434 Q1236.23 612.828 1236.23 604.101 Q1236.23 595.351 1239.29 590.767 Q1242.36 586.161 1248.17 586.161 Z" fill="#000000" fill-rule="nonzero" fill-opacity="1" /><path clip-path="url(#clip460)" d="M1260.12 580.262 L1284.23 580.262 L1284.23 583.46 L1260.12 583.46 L1260.12 580.262 Z" fill="#000000" fill-rule="nonzero" fill-opacity="1" /><path clip-path="url(#clip460)" d="M1301.03 578.382 Q1298.47 578.382 1296.96 580.131 Q1295.48 581.88 1295.48 584.927 Q1295.48 587.955 1296.96 589.723 Q1298.47 591.472 1301.03 591.472 Q1303.58 591.472 1305.07 589.723 Q1306.57 587.955 1306.57 584.927 Q1306.57 581.88 1305.07 580.131 Q1303.58 578.382 1301.03 578.382 M1308.57 566.476 L1308.57 569.937 Q1307.14 569.26 1305.67 568.902 Q1304.22 568.545 1302.79 568.545 Q1299.03 568.545 1297.04 571.084 Q1295.06 573.623 1294.78 578.758 Q1295.89 577.121 1297.56 576.256 Q1299.24 575.372 1301.25 575.372 Q1305.48 575.372 1307.93 577.949 Q1310.39 580.507 1310.39 584.927 Q1310.39 589.252 1307.83 591.867 Q1305.28 594.481 1301.03 594.481 Q1296.15 594.481 1293.58 590.757 Q1291 587.014 1291 579.924 Q1291 573.266 1294.16 569.316 Q1297.32 565.348 1302.64 565.348 Q1304.07 565.348 1305.52 565.63 Q1306.99 565.912 1308.57 566.476 Z" fill="#000000" fill-rule="nonzero" fill-opacity="1" /><path clip-path="url(#clip460)" d="M1066.76 479.817 L1083.08 479.817 L1083.08 483.752 L1061.14 483.752 L1061.14 479.817 Q1063.8 477.063 1068.38 472.433 Q1072.99 467.78 1074.17 466.438 Q1076.42 463.915 1077.3 462.178 Q1078.2 460.419 1078.2 458.729 Q1078.2 455.975 1076.25 454.239 Q1074.33 452.503 1071.23 452.503 Q1069.03 452.503 1066.58 453.266 Q1064.15 454.03 1061.37 455.581 L1061.37 450.859 Q1064.19 449.725 1066.65 449.146 Q1069.1 448.567 1071.14 448.567 Q1076.51 448.567 1079.7 451.253 Q1082.9 453.938 1082.9 458.428 Q1082.9 460.558 1082.09 462.479 Q1081.3 464.378 1079.19 466.97 Q1078.61 467.641 1075.51 470.859 Q1072.41 474.053 1066.76 479.817 Z" fill="#000000" fill-rule="nonzero" fill-opacity="1" /><path clip-path="url(#clip460)" d="M1092.9 477.873 L1097.78 477.873 L1097.78 483.752 L1092.9 483.752 L1092.9 477.873 Z" fill="#000000" fill-rule="nonzero" fill-opacity="1" /><path clip-path="url(#clip460)" d="M1117.97 452.271 Q1114.36 452.271 1112.53 455.836 Q1110.72 459.378 1110.72 466.507 Q1110.72 473.614 1112.53 477.178 Q1114.36 480.72 1117.97 480.72 Q1121.6 480.72 1123.41 477.178 Q1125.24 473.614 1125.24 466.507 Q1125.24 459.378 1123.41 455.836 Q1121.6 452.271 1117.97 452.271 M1117.97 448.567 Q1123.78 448.567 1126.83 453.174 Q1129.91 457.757 1129.91 466.507 Q1129.91 475.234 1126.83 479.84 Q1123.78 484.424 1117.97 484.424 Q1112.16 484.424 1109.08 479.84 Q1106.02 475.234 1106.02 466.507 Q1106.02 457.757 1109.08 453.174 Q1112.16 448.567 1117.97 448.567 Z" fill="#000000" fill-rule="nonzero" fill-opacity="1" /><path clip-path="url(#clip460)" d="M1148.13 452.271 Q1144.52 452.271 1142.69 455.836 Q1140.88 459.378 1140.88 466.507 Q1140.88 473.614 1142.69 477.178 Q1144.52 480.72 1148.13 480.72 Q1151.76 480.72 1153.57 477.178 Q1155.4 473.614 1155.4 466.507 Q1155.4 459.378 1153.57 455.836 Q1151.76 452.271 1148.13 452.271 M1148.13 448.567 Q1153.94 448.567 1156.99 453.174 Q1160.07 457.757 1160.07 466.507 Q1160.07 475.234 1156.99 479.84 Q1153.94 484.424 1148.13 484.424 Q1142.32 484.424 1139.24 479.84 Q1136.18 475.234 1136.18 466.507 Q1136.18 457.757 1139.24 453.174 Q1142.32 448.567 1148.13 448.567 Z" fill="#000000" fill-rule="nonzero" fill-opacity="1" /><path clip-path="url(#clip460)" d="M1196.46 458.29 L1185.88 468.915 L1196.46 479.493 L1193.71 482.294 L1183.08 471.669 L1172.46 482.294 L1169.73 479.493 L1180.28 468.915 L1169.73 458.29 L1172.46 455.489 L1183.08 466.114 L1193.71 455.489 L1196.46 458.29 Z" fill="#000000" fill-rule="nonzero" fill-opacity="1" /><path clip-path="url(#clip460)" d="M1208.82 479.817 L1216.46 479.817 L1216.46 453.452 L1208.15 455.118 L1208.15 450.859 L1216.42 449.192 L1221.09 449.192 L1221.09 479.817 L1228.73 479.817 L1228.73 483.752 L1208.82 483.752 L1208.82 479.817 Z" fill="#000000" fill-rule="nonzero" fill-opacity="1" /><path clip-path="url(#clip460)" d="M1248.17 452.271 Q1244.56 452.271 1242.73 455.836 Q1240.93 459.378 1240.93 466.507 Q1240.93 473.614 1242.73 477.178 Q1244.56 480.72 1248.17 480.72 Q1251.81 480.72 1253.61 477.178 Q1255.44 473.614 1255.44 466.507 Q1255.44 459.378 1253.61 455.836 Q1251.81 452.271 1248.17 452.271 M1248.17 448.567 Q1253.98 448.567 1257.04 453.174 Q1260.12 457.757 1260.12 466.507 Q1260.12 475.234 1257.04 479.84 Q1253.98 484.424 1248.17 484.424 Q1242.36 484.424 1239.29 479.84 Q1236.23 475.234 1236.23 466.507 Q1236.23 457.757 1239.29 453.174 Q1242.36 448.567 1248.17 448.567 Z" fill="#000000" fill-rule="nonzero" fill-opacity="1" /><path clip-path="url(#clip460)" d="M1260.12 442.669 L1284.23 442.669 L1284.23 445.866 L1260.12 445.866 L1260.12 442.669 Z" fill="#000000" fill-rule="nonzero" fill-opacity="1" /><path clip-path="url(#clip460)" d="M1301.03 440.788 Q1298.47 440.788 1296.96 442.537 Q1295.48 444.286 1295.48 447.333 Q1295.48 450.361 1296.96 452.129 Q1298.47 453.878 1301.03 453.878 Q1303.58 453.878 1305.07 452.129 Q1306.57 450.361 1306.57 447.333 Q1306.57 444.286 1305.07 442.537 Q1303.58 440.788 1301.03 440.788 M1308.57 428.883 L1308.57 432.343 Q1307.14 431.666 1305.67 431.309 Q1304.22 430.952 1302.79 430.952 Q1299.03 430.952 1297.04 433.491 Q1295.06 436.03 1294.78 441.164 Q1295.89 439.528 1297.56 438.663 Q1299.24 437.779 1301.25 437.779 Q1305.48 437.779 1307.93 440.355 Q1310.39 442.913 1310.39 447.333 Q1310.39 451.659 1307.83 454.273 Q1305.28 456.887 1301.03 456.887 Q1296.15 456.887 1293.58 453.164 Q1291 449.421 1291 442.33 Q1291 435.672 1294.16 431.723 Q1297.32 427.754 1302.64 427.754 Q1304.07 427.754 1305.52 428.036 Q1306.99 428.318 1308.57 428.883 Z" fill="#000000" fill-rule="nonzero" fill-opacity="1" /><polyline clip-path="url(#clip463)" style="stroke:#0000ff; stroke-linecap:round; stroke-linejoin:round; stroke-width:4; stroke-opacity:1; fill:none" points="-3829.2,-43035.8 -3764.39,-39584.7 -3699.59,-36445 -3634.79,-33584.9 -3569.99,-30976.5 -3505.19,-28594.6 -3440.39,-26417.1 -3375.59,-24424.2 -3310.79,-22598.2 -3245.99,-20923.3 -3181.18,-19385.4 -3116.38,-17971.9 -3051.58,-16671.3 -2986.78,-15473.5 -2921.98,-14369.4 -2857.18,-13350.5 -2792.38,-12409.5 -2727.58,-11539.7 -2662.78,-10735 -2597.97,-9989.79 -2533.17,-9299.18 -2468.37,-8658.63 -2403.57,-8064.04 -2338.77,-7511.66 -2273.97,-6998.12 -2209.17,-6520.33 -2144.37,-6075.46 -2079.57,-5660.95 -2014.76,-5274.46 -1949.96,-4913.83 -1885.16,-4577.12 -1820.36,-4262.53 -1755.56,-3968.41 -1690.76,-3693.25 -1625.96,-3435.67 -1561.16,-3194.4 -1496.36,-2968.26 -1431.55,-2756.19 -1366.75,-2557.19 -1301.95,-2370.34 -1237.15,-2194.82 -1172.35,-2029.83 -1107.55,-1874.67 -1042.75,-1728.67 -977.947,-1591.22 -913.146,-1461.74 -848.345,-1339.73 -783.544,-1224.68 -718.743,-1116.14 -653.942,-1013.71 -589.141,-916.989 -524.339,-825.616 -459.538,-739.257 -394.737,-657.6 -329.936,-580.355 -265.135,-507.251 -200.334,-438.036 -135.533,-372.477 -70.7318,-310.353 -5.93074,-251.462 58.8703,-195.611 123.671,-142.623 188.473,-92.3308 253.274,-44.5797 318.075,0.776395 382.876,43.8737 447.677,84.84 512.478,123.795 577.279,160.85 642.08,196.111 706.881,229.676 771.682,261.639 836.483,292.085 901.285,321.096 966.086,348.75 1030.89,375.118 1095.69,400.268 1160.49,424.264 1225.29,447.166 1290.09,469.031 1354.89,489.912 1419.69,509.86 1484.49,528.921 1549.3,547.141 1614.1,564.561 1678.9,581.222 1743.7,597.161 1808.5,612.414 1873.3,627.014 1938.1,640.993 2002.9,654.38 2067.7,667.206 2132.51,679.495 2197.31,691.274 2262.11,702.567 2326.91,713.396 2391.71,723.783 2456.51,733.749 2521.31,743.314 2586.11,752.494 "/>
<polyline clip-path="url(#clip463)" style="stroke:#ff0000; stroke-linecap:round; stroke-linejoin:round; stroke-width:4; stroke-opacity:1; fill:none" points="-3829.2,-43035.8 -3764.39,-39584.7 -3699.59,-36445 -3634.79,-33584.9 -3569.99,-30976.5 -3505.19,-28594.6 -3440.39,-26417.1 -3375.59,-24424.2 -3310.79,-22598.2 -3245.99,-20923.3 -3181.18,-19385.4 -3116.38,-17971.9 -3051.58,-16671.3 -2986.78,-15473.6 -2921.98,-14369.3 -2857.18,-13350.5 -2792.38,-12409.5 -2727.58,-11539.8 -2662.78,-10735 -2597.97,-9989.81 -2533.17,-9299.15 -2468.37,-8658.61 -2403.57,-8064.07 -2338.77,-7511.73 -2273.97,-6998.19 -2209.17,-6520.37 -2144.37,-6075.46 -2079.57,-5660.94 -2014.76,-5274.48 -1949.96,-4913.9 -1885.16,-4577.21 -1820.36,-4262.61 -1755.56,-3968.46 -1690.76,-3693.27 -1625.96,-3435.68 -1561.16,-3194.43 -1496.36,-2968.32 -1431.55,-2756.27 -1366.75,-2557.28 -1301.95,-2370.42 -1237.15,-2194.88 -1172.35,-2029.87 -1107.55,-1874.7 -1042.75,-1728.71 -977.947,-1591.27 -913.146,-1461.82 -848.345,-1339.81 -783.544,-1224.76 -718.743,-1116.22 -653.942,-1013.77 -589.141,-917.029 -524.339,-825.651 -459.538,-739.297 -394.737,-657.652 -329.936,-580.42 -265.135,-507.324 -200.334,-438.109 -135.533,-372.544 -70.7318,-310.368 -5.93074,-251.318 58.8703,-195.298 123.671,-142.202 188.473,-91.9099 253.274,-44.2827 318.075,0.834266 382.876,43.6133 447.677,84.245 512.478,122.939 577.279,159.923 642.08,195.302 706.881,229.287 771.682,263.629 836.483,298.638 901.285,334.302 966.086,370.622 1030.89,407.61 1095.69,445.302 1160.49,483.773 1225.29,523.043 1290.09,562.992 1354.89,603.56 1419.69,644.701 1484.49,686.412 1549.3,729.077 1614.1,772.131 1678.9,814.532 1743.7,856.804 1808.5,907.095 1873.3,948.483 1938.1,949.034 2002.9,1010.4 2067.7,1010.4 2132.51,1010.4 2197.31,1010.4 2262.11,1010.4 2326.91,1010.4 2391.71,1010.4 2456.51,1010.4 2521.31,1010.4 2586.11,1010.4 "/>
<circle clip-path="url(#clip463)" cx="2002.9" cy="1010.4" r="14.4" fill="#ff0000" fill-rule="evenodd" fill-opacity="1" stroke="#000000" stroke-opacity="1" stroke-width="3.2"/>
</svg>
