<?xml version="1.0" encoding="utf-8"?>
<svg xmlns="http://www.w3.org/2000/svg" xmlns:xlink="http://www.w3.org/1999/xlink" width="600" height="400" viewBox="0 0 2400 1600">
<defs>
  <clipPath id="clip870">
    <rect x="0" y="0" width="2400" height="1600"/>
  </clipPath>
</defs>
<path clip-path="url(#clip870)" d="M0 1600 L2400 1600 L2400 0 L0 0  Z" fill="#ffffff" fill-rule="evenodd" fill-opacity="1"/>
<defs>
  <clipPath id="clip871">
    <rect x="480" y="0" width="1681" height="1600"/>
  </clipPath>
</defs>
<path clip-path="url(#clip870)" d="M369.958 1423.18 L2352.76 1423.18 L2352.76 47.2441 L369.958 47.2441  Z" fill="#ffffff" fill-rule="evenodd" fill-opacity="1"/>
<defs>
  <clipPath id="clip872">
    <rect x="369" y="47" width="1984" height="1377"/>
  </clipPath>
</defs>
<polyline clip-path="url(#clip872)" style="stroke:#000000; stroke-linecap:round; stroke-linejoin:round; stroke-width:2; stroke-opacity:0.1; fill:none" points="426.075,1423.18 426.075,47.2441 "/>
<polyline clip-path="url(#clip872)" style="stroke:#000000; stroke-linecap:round; stroke-linejoin:round; stroke-width:2; stroke-opacity:0.1; fill:none" points="840.942,1423.18 840.942,47.2441 "/>
<polyline clip-path="url(#clip872)" style="stroke:#000000; stroke-linecap:round; stroke-linejoin:round; stroke-width:2; stroke-opacity:0.1; fill:none" points="1255.81,1423.18 1255.81,47.2441 "/>
<polyline clip-path="url(#clip872)" style="stroke:#000000; stroke-linecap:round; stroke-linejoin:round; stroke-width:2; stroke-opacity:0.1; fill:none" points="1670.68,1423.18 1670.68,47.2441 "/>
<polyline clip-path="url(#clip872)" style="stroke:#000000; stroke-linecap:round; stroke-linejoin:round; stroke-width:2; stroke-opacity:0.1; fill:none" points="2085.54,1423.18 2085.54,47.2441 "/>
<polyline clip-path="url(#clip872)" style="stroke:#000000; stroke-linecap:round; stroke-linejoin:round; stroke-width:2; stroke-opacity:0.1; fill:none" points="369.958,1238.76 2352.76,1238.76 "/>
<polyline clip-path="url(#clip872)" style="stroke:#000000; stroke-linecap:round; stroke-linejoin:round; stroke-width:2; stroke-opacity:0.1; fill:none" points="369.958,918.541 2352.76,918.541 "/>
<polyline clip-path="url(#clip872)" style="stroke:#000000; stroke-linecap:round; stroke-linejoin:round; stroke-width:2; stroke-opacity:0.1; fill:none" points="369.958,598.328 2352.76,598.328 "/>
<polyline clip-path="url(#clip872)" style="stroke:#000000; stroke-linecap:round; stroke-linejoin:round; stroke-width:2; stroke-opacity:0.1; fill:none" points="369.958,278.114 2352.76,278.114 "/>
<polyline clip-path="url(#clip870)" style="stroke:#000000; stroke-linecap:round; stroke-linejoin:round; stroke-width:4; stroke-opacity:1; fill:none" points="369.958,1423.18 2352.76,1423.18 "/>
<polyline clip-path="url(#clip870)" style="stroke:#000000; stroke-linecap:round; stroke-linejoin:round; stroke-width:4; stroke-opacity:1; fill:none" points="426.075,1423.18 426.075,1404.28 "/>
<polyline clip-path="url(#clip870)" style="stroke:#000000; stroke-linecap:round; stroke-linejoin:round; stroke-width:4; stroke-opacity:1; fill:none" points="840.942,1423.18 840.942,1404.28 "/>
<polyline clip-path="url(#clip870)" style="stroke:#000000; stroke-linecap:round; stroke-linejoin:round; stroke-width:4; stroke-opacity:1; fill:none" points="1255.81,1423.18 1255.81,1404.28 "/>
<polyline clip-path="url(#clip870)" style="stroke:#000000; stroke-linecap:round; stroke-linejoin:round; stroke-width:4; stroke-opacity:1; fill:none" points="1670.68,1423.18 1670.68,1404.28 "/>
<polyline clip-path="url(#clip870)" style="stroke:#000000; stroke-linecap:round; stroke-linejoin:round; stroke-width:4; stroke-opacity:1; fill:none" points="2085.54,1423.18 2085.54,1404.28 "/>
<path clip-path="url(#clip870)" d="M426.075 1454.1 Q422.464 1454.1 420.635 1457.66 Q418.83 1461.2 418.83 1468.33 Q418.83 1475.44 420.635 1479.01 Q422.464 1482.55 426.075 1482.55 Q429.709 1482.55 431.515 1479.01 Q433.343 1475.44 433.343 1468.33 Q433.343 1461.2 431.515 1457.66 Q429.709 1454.1 426.075 1454.1 M426.075 1450.39 Q431.885 1450.39 434.941 1455 Q438.019 1459.58 438.019 1468.33 Q438.019 1477.06 434.941 1481.67 Q431.885 1486.25 426.075 1486.25 Q420.265 1486.25 417.186 1481.67 Q414.131 1477.06 414.131 1468.33 Q414.131 1459.58 417.186 1455 Q420.265 1450.39 426.075 1450.39 Z" fill="#000000" fill-rule="nonzero" fill-opacity="1" /><path clip-path="url(#clip870)" d="M831.219 1451.02 L849.576 1451.02 L849.576 1454.96 L835.502 1454.96 L835.502 1463.43 Q836.52 1463.08 837.539 1462.92 Q838.557 1462.73 839.576 1462.73 Q845.363 1462.73 848.743 1465.9 Q852.122 1469.08 852.122 1474.49 Q852.122 1480.07 848.65 1483.17 Q845.178 1486.25 838.858 1486.25 Q836.682 1486.25 834.414 1485.88 Q832.169 1485.51 829.761 1484.77 L829.761 1480.07 Q831.844 1481.2 834.067 1481.76 Q836.289 1482.32 838.766 1482.32 Q842.77 1482.32 845.108 1480.21 Q847.446 1478.1 847.446 1474.49 Q847.446 1470.88 845.108 1468.77 Q842.77 1466.67 838.766 1466.67 Q836.891 1466.67 835.016 1467.08 Q833.164 1467.5 831.219 1468.38 L831.219 1451.02 Z" fill="#000000" fill-rule="nonzero" fill-opacity="1" /><path clip-path="url(#clip870)" d="M1230.5 1481.64 L1238.13 1481.64 L1238.13 1455.28 L1229.82 1456.95 L1229.82 1452.69 L1238.09 1451.02 L1242.76 1451.02 L1242.76 1481.64 L1250.4 1481.64 L1250.4 1485.58 L1230.5 1485.58 L1230.5 1481.64 Z" fill="#000000" fill-rule="nonzero" fill-opacity="1" /><path clip-path="url(#clip870)" d="M1269.85 1454.1 Q1266.24 1454.1 1264.41 1457.66 Q1262.6 1461.2 1262.6 1468.33 Q1262.6 1475.44 1264.41 1479.01 Q1266.24 1482.55 1269.85 1482.55 Q1273.48 1482.55 1275.29 1479.01 Q1277.12 1475.44 1277.12 1468.33 Q1277.12 1461.2 1275.29 1457.66 Q1273.48 1454.1 1269.85 1454.1 M1269.85 1450.39 Q1275.66 1450.39 1278.71 1455 Q1281.79 1459.58 1281.79 1468.33 Q1281.79 1477.06 1278.71 1481.67 Q1275.66 1486.25 1269.85 1486.25 Q1264.04 1486.25 1260.96 1481.67 Q1257.9 1477.06 1257.9 1468.33 Q1257.9 1459.58 1260.96 1455 Q1264.04 1450.39 1269.85 1450.39 Z" fill="#000000" fill-rule="nonzero" fill-opacity="1" /><path clip-path="url(#clip870)" d="M1645.86 1481.64 L1653.5 1481.64 L1653.5 1455.28 L1645.19 1456.95 L1645.19 1452.69 L1653.45 1451.02 L1658.13 1451.02 L1658.13 1481.64 L1665.77 1481.64 L1665.77 1485.58 L1645.86 1485.58 L1645.86 1481.64 Z" fill="#000000" fill-rule="nonzero" fill-opacity="1" /><path clip-path="url(#clip870)" d="M1675.26 1451.02 L1693.61 1451.02 L1693.61 1454.96 L1679.54 1454.96 L1679.54 1463.43 Q1680.56 1463.08 1681.58 1462.92 Q1682.6 1462.73 1683.61 1462.73 Q1689.4 1462.73 1692.78 1465.9 Q1696.16 1469.08 1696.16 1474.49 Q1696.16 1480.07 1692.69 1483.17 Q1689.22 1486.25 1682.9 1486.25 Q1680.72 1486.25 1678.45 1485.88 Q1676.21 1485.51 1673.8 1484.77 L1673.8 1480.07 Q1675.88 1481.2 1678.11 1481.76 Q1680.33 1482.32 1682.8 1482.32 Q1686.81 1482.32 1689.15 1480.21 Q1691.49 1478.1 1691.49 1474.49 Q1691.49 1470.88 1689.15 1468.77 Q1686.81 1466.67 1682.8 1466.67 Q1680.93 1466.67 1679.05 1467.08 Q1677.2 1467.5 1675.26 1468.38 L1675.26 1451.02 Z" fill="#000000" fill-rule="nonzero" fill-opacity="1" /><path clip-path="url(#clip870)" d="M2064.32 1481.64 L2080.63 1481.64 L2080.63 1485.58 L2058.69 1485.58 L2058.69 1481.64 Q2061.35 1478.89 2065.94 1474.26 Q2070.54 1469.61 2071.72 1468.27 Q2073.97 1465.74 2074.85 1464.01 Q2075.75 1462.25 2075.75 1460.56 Q2075.75 1457.8 2073.81 1456.07 Q2071.88 1454.33 2068.78 1454.33 Q2066.58 1454.33 2064.13 1455.09 Q2061.7 1455.86 2058.92 1457.41 L2058.92 1452.69 Q2061.75 1451.55 2064.2 1450.97 Q2066.65 1450.39 2068.69 1450.39 Q2074.06 1450.39 2077.25 1453.08 Q2080.45 1455.77 2080.45 1460.26 Q2080.45 1462.39 2079.64 1464.31 Q2078.85 1466.2 2076.75 1468.8 Q2076.17 1469.47 2073.06 1472.69 Q2069.96 1475.88 2064.32 1481.64 Z" fill="#000000" fill-rule="nonzero" fill-opacity="1" /><path clip-path="url(#clip870)" d="M2100.45 1454.1 Q2096.84 1454.1 2095.01 1457.66 Q2093.2 1461.2 2093.2 1468.33 Q2093.2 1475.44 2095.01 1479.01 Q2096.84 1482.55 2100.45 1482.55 Q2104.08 1482.55 2105.89 1479.01 Q2107.72 1475.44 2107.72 1468.33 Q2107.72 1461.2 2105.89 1457.66 Q2104.08 1454.1 2100.45 1454.1 M2100.45 1450.39 Q2106.26 1450.39 2109.31 1455 Q2112.39 1459.58 2112.39 1468.33 Q2112.39 1477.06 2109.31 1481.67 Q2106.26 1486.25 2100.45 1486.25 Q2094.64 1486.25 2091.56 1481.67 Q2088.5 1477.06 2088.5 1468.33 Q2088.5 1459.58 2091.56 1455 Q2094.64 1450.39 2100.45 1450.39 Z" fill="#000000" fill-rule="nonzero" fill-opacity="1" /><path clip-path="url(#clip870)" d="M1245.39 1520.52 L1285.59 1520.52 L1285.59 1525.93 L1268.72 1525.93 L1268.72 1568.04 L1262.26 1568.04 L1262.26 1525.93 L1245.39 1525.93 L1245.39 1520.52 Z" fill="#000000" fill-rule="nonzero" fill-opacity="1" /><path clip-path="url(#clip870)" d="M1289.54 1532.4 L1295.39 1532.4 L1295.39 1568.04 L1289.54 1568.04 L1289.54 1532.4 M1289.54 1518.52 L1295.39 1518.52 L1295.39 1525.93 L1289.54 1525.93 L1289.54 1518.52 Z" fill="#000000" fill-rule="nonzero" fill-opacity="1" /><path clip-path="url(#clip870)" d="M1335.4 1539.24 Q1337.6 1535.29 1340.65 1533.41 Q1343.71 1531.54 1347.85 1531.54 Q1353.42 1531.54 1356.44 1535.45 Q1359.46 1539.33 1359.46 1546.53 L1359.46 1568.04 L1353.57 1568.04 L1353.57 1546.72 Q1353.57 1541.59 1351.76 1539.11 Q1349.95 1536.63 1346.22 1536.63 Q1341.67 1536.63 1339.03 1539.65 Q1336.39 1542.68 1336.39 1547.9 L1336.39 1568.04 L1330.5 1568.04 L1330.5 1546.72 Q1330.5 1541.56 1328.68 1539.11 Q1326.87 1536.63 1323.08 1536.63 Q1318.6 1536.63 1315.95 1539.68 Q1313.31 1542.71 1313.31 1547.9 L1313.31 1568.04 L1307.42 1568.04 L1307.42 1532.4 L1313.31 1532.4 L1313.31 1537.93 Q1315.32 1534.66 1318.12 1533.1 Q1320.92 1531.54 1324.77 1531.54 Q1328.65 1531.54 1331.36 1533.51 Q1334.1 1535.48 1335.4 1539.24 Z" fill="#000000" fill-rule="nonzero" fill-opacity="1" /><path clip-path="url(#clip870)" d="M1401.64 1548.76 L1401.64 1551.62 L1374.71 1551.62 Q1375.09 1557.67 1378.34 1560.85 Q1381.62 1564 1387.44 1564 Q1390.81 1564 1393.97 1563.17 Q1397.15 1562.35 1400.27 1560.69 L1400.27 1566.23 Q1397.12 1567.57 1393.81 1568.27 Q1390.5 1568.97 1387.09 1568.97 Q1378.56 1568.97 1373.56 1564 Q1368.6 1559.04 1368.6 1550.57 Q1368.6 1541.82 1373.31 1536.69 Q1378.05 1531.54 1386.07 1531.54 Q1393.27 1531.54 1397.43 1536.18 Q1401.64 1540.8 1401.64 1548.76 M1395.78 1547.04 Q1395.72 1542.23 1393.07 1539.37 Q1390.46 1536.5 1386.14 1536.5 Q1381.23 1536.5 1378.27 1539.27 Q1375.35 1542.04 1374.9 1547.07 L1395.78 1547.04 Z" fill="#000000" fill-rule="nonzero" fill-opacity="1" /><path clip-path="url(#clip870)" d="M1412.74 1559.96 L1419.46 1559.96 L1419.46 1565.43 L1414.24 1575.62 L1410.13 1575.62 L1412.74 1565.43 L1412.74 1559.96 Z" fill="#000000" fill-rule="nonzero" fill-opacity="1" /><path clip-path="url(#clip870)" d="M1475.41 1533.45 L1475.41 1538.98 Q1472.93 1537.71 1470.26 1537.07 Q1467.58 1536.44 1464.72 1536.44 Q1460.36 1536.44 1458.16 1537.77 Q1456 1539.11 1456 1541.79 Q1456 1543.82 1457.56 1545 Q1459.12 1546.15 1463.83 1547.2 L1465.83 1547.64 Q1472.07 1548.98 1474.68 1551.43 Q1477.32 1553.85 1477.32 1558.21 Q1477.32 1563.17 1473.38 1566.07 Q1469.46 1568.97 1462.59 1568.97 Q1459.72 1568.97 1456.6 1568.39 Q1453.52 1567.85 1450.08 1566.74 L1450.08 1560.69 Q1453.33 1562.38 1456.48 1563.24 Q1459.63 1564.07 1462.71 1564.07 Q1466.85 1564.07 1469.08 1562.66 Q1471.31 1561.23 1471.31 1558.65 Q1471.31 1556.27 1469.69 1554.99 Q1468.09 1553.72 1462.65 1552.54 L1460.61 1552.07 Q1455.17 1550.92 1452.75 1548.56 Q1450.33 1546.18 1450.33 1542.04 Q1450.33 1537.01 1453.9 1534.27 Q1457.46 1531.54 1464.02 1531.54 Q1467.27 1531.54 1470.13 1532.01 Q1473 1532.49 1475.41 1533.45 Z" fill="#000000" fill-rule="nonzero" fill-opacity="1" /><polyline clip-path="url(#clip870)" style="stroke:#000000; stroke-linecap:round; stroke-linejoin:round; stroke-width:4; stroke-opacity:1; fill:none" points="369.958,1423.18 369.958,47.2441 "/>
<polyline clip-path="url(#clip870)" style="stroke:#000000; stroke-linecap:round; stroke-linejoin:round; stroke-width:4; stroke-opacity:1; fill:none" points="369.958,1238.76 388.856,1238.76 "/>
<polyline clip-path="url(#clip870)" style="stroke:#000000; stroke-linecap:round; stroke-linejoin:round; stroke-width:4; stroke-opacity:1; fill:none" points="369.958,918.541 388.856,918.541 "/>
<polyline clip-path="url(#clip870)" style="stroke:#000000; stroke-linecap:round; stroke-linejoin:round; stroke-width:4; stroke-opacity:1; fill:none" points="369.958,598.328 388.856,598.328 "/>
<polyline clip-path="url(#clip870)" style="stroke:#000000; stroke-linecap:round; stroke-linejoin:round; stroke-width:4; stroke-opacity:1; fill:none" points="369.958,278.114 388.856,278.114 "/>
<path clip-path="url(#clip870)" d="M126.112 1246.07 Q122.779 1246.07 120.857 1247.85 Q118.959 1249.64 118.959 1252.76 Q118.959 1255.89 120.857 1257.67 Q122.779 1259.45 126.112 1259.45 Q129.445 1259.45 131.367 1257.67 Q133.288 1255.86 133.288 1252.76 Q133.288 1249.64 131.367 1247.85 Q129.468 1246.07 126.112 1246.07 M121.436 1244.08 Q118.427 1243.34 116.737 1241.28 Q115.07 1239.22 115.07 1236.26 Q115.07 1232.11 118.01 1229.71 Q120.973 1227.3 126.112 1227.3 Q131.274 1227.3 134.214 1229.71 Q137.154 1232.11 137.154 1236.26 Q137.154 1239.22 135.464 1241.28 Q133.797 1243.34 130.811 1244.08 Q134.191 1244.87 136.066 1247.16 Q137.964 1249.45 137.964 1252.76 Q137.964 1257.78 134.885 1260.47 Q131.83 1263.15 126.112 1263.15 Q120.394 1263.15 117.316 1260.47 Q114.26 1257.78 114.26 1252.76 Q114.26 1249.45 116.158 1247.16 Q118.056 1244.87 121.436 1244.08 M119.723 1236.7 Q119.723 1239.38 121.39 1240.89 Q123.08 1242.39 126.112 1242.39 Q129.121 1242.39 130.811 1240.89 Q132.524 1239.38 132.524 1236.7 Q132.524 1234.01 130.811 1232.51 Q129.121 1231 126.112 1231 Q123.08 1231 121.39 1232.51 Q119.723 1234.01 119.723 1236.7 Z" fill="#000000" fill-rule="nonzero" fill-opacity="1" /><path clip-path="url(#clip870)" d="M146.274 1256.6 L151.158 1256.6 L151.158 1262.48 L146.274 1262.48 L146.274 1256.6 Z" fill="#000000" fill-rule="nonzero" fill-opacity="1" /><path clip-path="url(#clip870)" d="M171.343 1231 Q167.732 1231 165.903 1234.57 Q164.098 1238.11 164.098 1245.24 Q164.098 1252.34 165.903 1255.91 Q167.732 1259.45 171.343 1259.45 Q174.977 1259.45 176.783 1255.91 Q178.612 1252.34 178.612 1245.24 Q178.612 1238.11 176.783 1234.57 Q174.977 1231 171.343 1231 M171.343 1227.3 Q177.153 1227.3 180.209 1231.9 Q183.288 1236.49 183.288 1245.24 Q183.288 1253.96 180.209 1258.57 Q177.153 1263.15 171.343 1263.15 Q165.533 1263.15 162.454 1258.57 Q159.399 1253.96 159.399 1245.24 Q159.399 1236.49 162.454 1231.9 Q165.533 1227.3 171.343 1227.3 Z" fill="#000000" fill-rule="nonzero" fill-opacity="1" /><path clip-path="url(#clip870)" d="M201.505 1231 Q197.894 1231 196.065 1234.57 Q194.26 1238.11 194.26 1245.24 Q194.26 1252.34 196.065 1255.91 Q197.894 1259.45 201.505 1259.45 Q205.139 1259.45 206.945 1255.91 Q208.774 1252.34 208.774 1245.24 Q208.774 1238.11 206.945 1234.57 Q205.139 1231 201.505 1231 M201.505 1227.3 Q207.315 1227.3 210.371 1231.9 Q213.449 1236.49 213.449 1245.24 Q213.449 1253.96 210.371 1258.57 Q207.315 1263.15 201.505 1263.15 Q195.695 1263.15 192.616 1258.57 Q189.561 1253.96 189.561 1245.24 Q189.561 1236.49 192.616 1231.9 Q195.695 1227.3 201.505 1227.3 Z" fill="#000000" fill-rule="nonzero" fill-opacity="1" /><path clip-path="url(#clip870)" d="M249.838 1237.02 L239.259 1247.64 L249.838 1258.22 L247.084 1261.02 L236.459 1250.4 L225.834 1261.02 L223.102 1258.22 L233.658 1247.64 L223.102 1237.02 L225.834 1234.22 L236.459 1244.84 L247.084 1234.22 L249.838 1237.02 Z" fill="#000000" fill-rule="nonzero" fill-opacity="1" /><path clip-path="url(#clip870)" d="M262.199 1258.55 L269.838 1258.55 L269.838 1232.18 L261.528 1233.85 L261.528 1229.59 L269.792 1227.92 L274.468 1227.92 L274.468 1258.55 L282.106 1258.55 L282.106 1262.48 L262.199 1262.48 L262.199 1258.55 Z" fill="#000000" fill-rule="nonzero" fill-opacity="1" /><path clip-path="url(#clip870)" d="M301.551 1231 Q297.94 1231 296.111 1234.57 Q294.305 1238.11 294.305 1245.24 Q294.305 1252.34 296.111 1255.91 Q297.94 1259.45 301.551 1259.45 Q305.185 1259.45 306.991 1255.91 Q308.819 1252.34 308.819 1245.24 Q308.819 1238.11 306.991 1234.57 Q305.185 1231 301.551 1231 M301.551 1227.3 Q307.361 1227.3 310.417 1231.9 Q313.495 1236.49 313.495 1245.24 Q313.495 1253.96 310.417 1258.57 Q307.361 1263.15 301.551 1263.15 Q295.741 1263.15 292.662 1258.57 Q289.606 1253.96 289.606 1245.24 Q289.606 1236.49 292.662 1231.9 Q295.741 1227.3 301.551 1227.3 Z" fill="#000000" fill-rule="nonzero" fill-opacity="1" /><path clip-path="url(#clip870)" d="M326.172 1210.3 L316.58 1225.29 L326.172 1225.29 L326.172 1210.3 M325.175 1206.99 L329.952 1206.99 L329.952 1225.29 L333.958 1225.29 L333.958 1228.45 L329.952 1228.45 L329.952 1235.07 L326.172 1235.07 L326.172 1228.45 L313.495 1228.45 L313.495 1224.78 L325.175 1206.99 Z" fill="#000000" fill-rule="nonzero" fill-opacity="1" /><path clip-path="url(#clip870)" d="M119.217 938.334 L126.856 938.334 L126.856 911.968 L118.545 913.635 L118.545 909.376 L126.809 907.709 L131.485 907.709 L131.485 938.334 L139.124 938.334 L139.124 942.269 L119.217 942.269 L119.217 938.334 Z" fill="#000000" fill-rule="nonzero" fill-opacity="1" /><path clip-path="url(#clip870)" d="M148.568 936.389 L153.453 936.389 L153.453 942.269 L148.568 942.269 L148.568 936.389 Z" fill="#000000" fill-rule="nonzero" fill-opacity="1" /><path clip-path="url(#clip870)" d="M173.638 910.788 Q170.027 910.788 168.198 914.352 Q166.392 917.894 166.392 925.024 Q166.392 932.13 168.198 935.695 Q170.027 939.237 173.638 939.237 Q177.272 939.237 179.078 935.695 Q180.906 932.13 180.906 925.024 Q180.906 917.894 179.078 914.352 Q177.272 910.788 173.638 910.788 M173.638 907.084 Q179.448 907.084 182.503 911.69 Q185.582 916.274 185.582 925.024 Q185.582 933.751 182.503 938.357 Q179.448 942.94 173.638 942.94 Q167.828 942.94 164.749 938.357 Q161.693 933.751 161.693 925.024 Q161.693 916.274 164.749 911.69 Q167.828 907.084 173.638 907.084 Z" fill="#000000" fill-rule="nonzero" fill-opacity="1" /><path clip-path="url(#clip870)" d="M203.8 910.788 Q200.189 910.788 198.36 914.352 Q196.554 917.894 196.554 925.024 Q196.554 932.13 198.36 935.695 Q200.189 939.237 203.8 939.237 Q207.434 939.237 209.239 935.695 Q211.068 932.13 211.068 925.024 Q211.068 917.894 209.239 914.352 Q207.434 910.788 203.8 910.788 M203.8 907.084 Q209.61 907.084 212.665 911.69 Q215.744 916.274 215.744 925.024 Q215.744 933.751 212.665 938.357 Q209.61 942.94 203.8 942.94 Q197.989 942.94 194.911 938.357 Q191.855 933.751 191.855 925.024 Q191.855 916.274 194.911 911.69 Q197.989 907.084 203.8 907.084 Z" fill="#000000" fill-rule="nonzero" fill-opacity="1" /><path clip-path="url(#clip870)" d="M252.133 916.806 L241.554 927.431 L252.133 938.01 L249.378 940.811 L238.753 930.186 L228.128 940.811 L225.397 938.01 L235.952 927.431 L225.397 916.806 L228.128 914.005 L238.753 924.63 L249.378 914.005 L252.133 916.806 Z" fill="#000000" fill-rule="nonzero" fill-opacity="1" /><path clip-path="url(#clip870)" d="M264.494 938.334 L272.133 938.334 L272.133 911.968 L263.822 913.635 L263.822 909.376 L272.086 907.709 L276.762 907.709 L276.762 938.334 L284.401 938.334 L284.401 942.269 L264.494 942.269 L264.494 938.334 Z" fill="#000000" fill-rule="nonzero" fill-opacity="1" /><path clip-path="url(#clip870)" d="M303.845 910.788 Q300.234 910.788 298.406 914.352 Q296.6 917.894 296.6 925.024 Q296.6 932.13 298.406 935.695 Q300.234 939.237 303.845 939.237 Q307.48 939.237 309.285 935.695 Q311.114 932.13 311.114 925.024 Q311.114 917.894 309.285 914.352 Q307.48 910.788 303.845 910.788 M303.845 907.084 Q309.656 907.084 312.711 911.69 Q315.79 916.274 315.79 925.024 Q315.79 933.751 312.711 938.357 Q309.656 942.94 303.845 942.94 Q298.035 942.94 294.957 938.357 Q291.901 933.751 291.901 925.024 Q291.901 916.274 294.957 911.69 Q298.035 907.084 303.845 907.084 Z" fill="#000000" fill-rule="nonzero" fill-opacity="1" /><path clip-path="url(#clip870)" d="M316.975 886.779 L331.889 886.779 L331.889 889.976 L320.454 889.976 L320.454 896.86 Q321.282 896.577 322.109 896.446 Q322.937 896.295 323.764 896.295 Q328.466 896.295 331.212 898.872 Q333.958 901.449 333.958 905.85 Q333.958 910.382 331.137 912.903 Q328.316 915.404 323.181 915.404 Q321.413 915.404 319.57 915.103 Q317.746 914.802 315.79 914.2 L315.79 910.382 Q317.482 911.304 319.288 911.755 Q321.094 912.207 323.106 912.207 Q326.36 912.207 328.259 910.495 Q330.159 908.784 330.159 905.85 Q330.159 902.916 328.259 901.204 Q326.36 899.493 323.106 899.493 Q321.583 899.493 320.059 899.831 Q318.554 900.17 316.975 900.884 L316.975 886.779 Z" fill="#000000" fill-rule="nonzero" fill-opacity="1" /><path clip-path="url(#clip870)" d="M119.217 618.12 L126.856 618.12 L126.856 591.754 L118.545 593.421 L118.545 589.162 L126.809 587.495 L131.485 587.495 L131.485 618.12 L139.124 618.12 L139.124 622.055 L119.217 622.055 L119.217 618.12 Z" fill="#000000" fill-rule="nonzero" fill-opacity="1" /><path clip-path="url(#clip870)" d="M148.568 616.176 L153.453 616.176 L153.453 622.055 L148.568 622.055 L148.568 616.176 Z" fill="#000000" fill-rule="nonzero" fill-opacity="1" /><path clip-path="url(#clip870)" d="M167.666 618.12 L183.985 618.12 L183.985 622.055 L162.041 622.055 L162.041 618.12 Q164.703 615.365 169.286 610.736 Q173.892 606.083 175.073 604.74 Q177.318 602.217 178.198 600.481 Q179.101 598.722 179.101 597.032 Q179.101 594.278 177.156 592.541 Q175.235 590.805 172.133 590.805 Q169.934 590.805 167.48 591.569 Q165.05 592.333 162.272 593.884 L162.272 589.162 Q165.096 588.028 167.55 587.449 Q170.003 586.87 172.041 586.87 Q177.411 586.87 180.605 589.555 Q183.8 592.241 183.8 596.731 Q183.8 598.861 182.99 600.782 Q182.203 602.68 180.096 605.273 Q179.517 605.944 176.415 609.162 Q173.314 612.356 167.666 618.12 Z" fill="#000000" fill-rule="nonzero" fill-opacity="1" /><path clip-path="url(#clip870)" d="M203.8 590.574 Q200.189 590.574 198.36 594.139 Q196.554 597.68 196.554 604.81 Q196.554 611.916 198.36 615.481 Q200.189 619.023 203.8 619.023 Q207.434 619.023 209.239 615.481 Q211.068 611.916 211.068 604.81 Q211.068 597.68 209.239 594.139 Q207.434 590.574 203.8 590.574 M203.8 586.87 Q209.61 586.87 212.665 591.477 Q215.744 596.06 215.744 604.81 Q215.744 613.537 212.665 618.143 Q209.61 622.727 203.8 622.727 Q197.989 622.727 194.911 618.143 Q191.855 613.537 191.855 604.81 Q191.855 596.06 194.911 591.477 Q197.989 586.87 203.8 586.87 Z" fill="#000000" fill-rule="nonzero" fill-opacity="1" /><path clip-path="url(#clip870)" d="M252.133 596.592 L241.554 607.217 L252.133 617.796 L249.378 620.597 L238.753 609.972 L228.128 620.597 L225.397 617.796 L235.952 607.217 L225.397 596.592 L228.128 593.791 L238.753 604.416 L249.378 593.791 L252.133 596.592 Z" fill="#000000" fill-rule="nonzero" fill-opacity="1" /><path clip-path="url(#clip870)" d="M264.494 618.12 L272.133 618.12 L272.133 591.754 L263.822 593.421 L263.822 589.162 L272.086 587.495 L276.762 587.495 L276.762 618.12 L284.401 618.12 L284.401 622.055 L264.494 622.055 L264.494 618.12 Z" fill="#000000" fill-rule="nonzero" fill-opacity="1" /><path clip-path="url(#clip870)" d="M303.845 590.574 Q300.234 590.574 298.406 594.139 Q296.6 597.68 296.6 604.81 Q296.6 611.916 298.406 615.481 Q300.234 619.023 303.845 619.023 Q307.48 619.023 309.285 615.481 Q311.114 611.916 311.114 604.81 Q311.114 597.68 309.285 594.139 Q307.48 590.574 303.845 590.574 M303.845 586.87 Q309.656 586.87 312.711 591.477 Q315.79 596.06 315.79 604.81 Q315.79 613.537 312.711 618.143 Q309.656 622.727 303.845 622.727 Q298.035 622.727 294.957 618.143 Q291.901 613.537 291.901 604.81 Q291.901 596.06 294.957 591.477 Q298.035 586.87 303.845 586.87 Z" fill="#000000" fill-rule="nonzero" fill-opacity="1" /><path clip-path="url(#clip870)" d="M316.975 566.565 L331.889 566.565 L331.889 569.762 L320.454 569.762 L320.454 576.646 Q321.282 576.364 322.109 576.232 Q322.937 576.082 323.764 576.082 Q328.466 576.082 331.212 578.658 Q333.958 581.235 333.958 585.636 Q333.958 590.169 331.137 592.689 Q328.316 595.19 323.181 595.19 Q321.413 595.19 319.57 594.889 Q317.746 594.588 315.79 593.987 L315.79 590.169 Q317.482 591.09 319.288 591.542 Q321.094 591.993 323.106 591.993 Q326.36 591.993 328.259 590.281 Q330.159 588.57 330.159 585.636 Q330.159 582.702 328.259 580.99 Q326.36 579.279 323.106 579.279 Q321.583 579.279 320.059 579.617 Q318.554 579.956 316.975 580.671 L316.975 566.565 Z" fill="#000000" fill-rule="nonzero" fill-opacity="1" /><path clip-path="url(#clip870)" d="M119.217 297.906 L126.856 297.906 L126.856 271.541 L118.545 273.207 L118.545 268.948 L126.809 267.281 L131.485 267.281 L131.485 297.906 L139.124 297.906 L139.124 301.841 L119.217 301.841 L119.217 297.906 Z" fill="#000000" fill-rule="nonzero" fill-opacity="1" /><path clip-path="url(#clip870)" d="M148.568 295.962 L153.453 295.962 L153.453 301.841 L148.568 301.841 L148.568 295.962 Z" fill="#000000" fill-rule="nonzero" fill-opacity="1" /><path clip-path="url(#clip870)" d="M176.485 271.355 L164.679 289.804 L176.485 289.804 L176.485 271.355 M175.258 267.281 L181.138 267.281 L181.138 289.804 L186.068 289.804 L186.068 293.693 L181.138 293.693 L181.138 301.841 L176.485 301.841 L176.485 293.693 L160.883 293.693 L160.883 289.179 L175.258 267.281 Z" fill="#000000" fill-rule="nonzero" fill-opacity="1" /><path clip-path="url(#clip870)" d="M203.8 270.36 Q200.189 270.36 198.36 273.925 Q196.554 277.467 196.554 284.596 Q196.554 291.703 198.36 295.267 Q200.189 298.809 203.8 298.809 Q207.434 298.809 209.239 295.267 Q211.068 291.703 211.068 284.596 Q211.068 277.467 209.239 273.925 Q207.434 270.36 203.8 270.36 M203.8 266.656 Q209.61 266.656 212.665 271.263 Q215.744 275.846 215.744 284.596 Q215.744 293.323 212.665 297.929 Q209.61 302.513 203.8 302.513 Q197.989 302.513 194.911 297.929 Q191.855 293.323 191.855 284.596 Q191.855 275.846 194.911 271.263 Q197.989 266.656 203.8 266.656 Z" fill="#000000" fill-rule="nonzero" fill-opacity="1" /><path clip-path="url(#clip870)" d="M252.133 276.379 L241.554 287.004 L252.133 297.582 L249.378 300.383 L238.753 289.758 L228.128 300.383 L225.397 297.582 L235.952 287.004 L225.397 276.379 L228.128 273.578 L238.753 284.203 L249.378 273.578 L252.133 276.379 Z" fill="#000000" fill-rule="nonzero" fill-opacity="1" /><path clip-path="url(#clip870)" d="M264.494 297.906 L272.133 297.906 L272.133 271.541 L263.822 273.207 L263.822 268.948 L272.086 267.281 L276.762 267.281 L276.762 297.906 L284.401 297.906 L284.401 301.841 L264.494 301.841 L264.494 297.906 Z" fill="#000000" fill-rule="nonzero" fill-opacity="1" /><path clip-path="url(#clip870)" d="M303.845 270.36 Q300.234 270.36 298.406 273.925 Q296.6 277.467 296.6 284.596 Q296.6 291.703 298.406 295.267 Q300.234 298.809 303.845 298.809 Q307.48 298.809 309.285 295.267 Q311.114 291.703 311.114 284.596 Q311.114 277.467 309.285 273.925 Q307.48 270.36 303.845 270.36 M303.845 266.656 Q309.656 266.656 312.711 271.263 Q315.79 275.846 315.79 284.596 Q315.79 293.323 312.711 297.929 Q309.656 302.513 303.845 302.513 Q298.035 302.513 294.957 297.929 Q291.901 293.323 291.901 284.596 Q291.901 275.846 294.957 271.263 Q298.035 266.656 303.845 266.656 Z" fill="#000000" fill-rule="nonzero" fill-opacity="1" /><path clip-path="url(#clip870)" d="M316.975 246.351 L331.889 246.351 L331.889 249.548 L320.454 249.548 L320.454 256.432 Q321.282 256.15 322.109 256.018 Q322.937 255.868 323.764 255.868 Q328.466 255.868 331.212 258.444 Q333.958 261.021 333.958 265.422 Q333.958 269.955 331.137 272.475 Q328.316 274.976 323.181 274.976 Q321.413 274.976 319.57 274.676 Q317.746 274.375 315.79 273.773 L315.79 269.955 Q317.482 270.876 319.288 271.328 Q321.094 271.779 323.106 271.779 Q326.36 271.779 328.259 270.068 Q330.159 268.356 330.159 265.422 Q330.159 262.488 328.259 260.777 Q326.36 259.065 323.106 259.065 Q321.583 259.065 320.059 259.404 Q318.554 259.742 316.975 260.457 L316.975 246.351 Z" fill="#000000" fill-rule="nonzero" fill-opacity="1" /><path clip-path="url(#clip870)" d="M64.0042 1026.76 L16.4842 1044.9 L16.4842 1038.19 L56.4926 1023.13 L16.4842 1008.05 L16.4842 1001.36 L64.0042 1019.47 L64.0042 1026.76 Z" fill="#000000" fill-rule="nonzero" fill-opacity="1" /><path clip-path="url(#clip870)" d="M44.7161 969.247 L47.5806 969.247 L47.5806 996.174 Q53.6281 995.792 56.8109 992.546 Q59.9619 989.267 59.9619 983.443 Q59.9619 980.069 59.1344 976.918 Q58.3069 973.735 56.6518 970.616 L62.1899 970.616 Q63.5267 973.767 64.227 977.077 Q64.9272 980.387 64.9272 983.793 Q64.9272 992.323 59.9619 997.32 Q54.9967 1002.29 46.5303 1002.29 Q37.7774 1002.29 32.6531 997.575 Q27.4968 992.832 27.4968 984.811 Q27.4968 977.618 32.1438 973.449 Q36.7589 969.247 44.7161 969.247 M42.9973 975.104 Q38.1912 975.167 35.3266 977.809 Q32.4621 980.419 32.4621 984.748 Q32.4621 989.649 35.2312 992.609 Q38.0002 995.538 43.0292 995.983 L42.9973 975.104 Z" fill="#000000" fill-rule="nonzero" fill-opacity="1" /><path clip-path="url(#clip870)" d="M29.4065 936.909 L34.9447 936.909 Q33.6716 939.392 33.035 942.066 Q32.3984 944.739 32.3984 947.604 Q32.3984 951.964 33.7352 954.16 Q35.072 956.325 37.7456 956.325 Q39.7826 956.325 40.9603 954.765 Q42.1061 953.206 43.1565 948.495 L43.6021 946.49 Q44.9389 940.251 47.3897 937.641 Q49.8086 935 54.1691 935 Q59.1344 935 62.0308 938.946 Q64.9272 942.861 64.9272 949.736 Q64.9272 952.601 64.3543 955.72 Q63.8132 958.807 62.6992 962.245 L56.6518 962.245 Q58.3387 958.998 59.198 955.847 Q60.0256 952.696 60.0256 949.609 Q60.0256 945.471 58.6251 943.243 Q57.1929 941.015 54.6147 941.015 Q52.2276 941.015 50.9545 942.639 Q49.6813 944.23 48.5037 949.673 L48.0262 951.71 Q46.8804 957.152 44.5251 959.571 Q42.138 961.99 38.0002 961.99 Q32.9713 961.99 30.2341 958.425 Q27.4968 954.861 27.4968 948.304 Q27.4968 945.057 27.9743 942.193 Q28.4517 939.328 29.4065 936.909 Z" fill="#000000" fill-rule="nonzero" fill-opacity="1" /><path clip-path="url(#clip870)" d="M29.4065 902.948 L34.9447 902.948 Q33.6716 905.431 33.035 908.105 Q32.3984 910.778 32.3984 913.643 Q32.3984 918.003 33.7352 920.199 Q35.072 922.364 37.7456 922.364 Q39.7826 922.364 40.9603 920.804 Q42.1061 919.245 43.1565 914.534 L43.6021 912.529 Q44.9389 906.29 47.3897 903.68 Q49.8086 901.039 54.1691 901.039 Q59.1344 901.039 62.0308 904.985 Q64.9272 908.9 64.9272 915.775 Q64.9272 918.64 64.3543 921.759 Q63.8132 924.846 62.6992 928.284 L56.6518 928.284 Q58.3387 925.037 59.198 921.886 Q60.0256 918.735 60.0256 915.648 Q60.0256 911.51 58.6251 909.282 Q57.1929 907.054 54.6147 907.054 Q52.2276 907.054 50.9545 908.677 Q49.6813 910.269 48.5037 915.712 L48.0262 917.749 Q46.8804 923.191 44.5251 925.61 Q42.138 928.029 38.0002 928.029 Q32.9713 928.029 30.2341 924.464 Q27.4968 920.9 27.4968 914.343 Q27.4968 911.096 27.9743 908.232 Q28.4517 905.367 29.4065 902.948 Z" fill="#000000" fill-rule="nonzero" fill-opacity="1" /><path clip-path="url(#clip870)" d="M44.7161 861.221 L47.5806 861.221 L47.5806 888.148 Q53.6281 887.766 56.8109 884.52 Q59.9619 881.241 59.9619 875.417 Q59.9619 872.043 59.1344 868.892 Q58.3069 865.709 56.6518 862.59 L62.1899 862.59 Q63.5267 865.741 64.227 869.051 Q64.9272 872.361 64.9272 875.767 Q64.9272 884.297 59.9619 889.294 Q54.9967 894.259 46.5303 894.259 Q37.7774 894.259 32.6531 889.549 Q27.4968 884.806 27.4968 876.785 Q27.4968 869.592 32.1438 865.422 Q36.7589 861.221 44.7161 861.221 M42.9973 867.078 Q38.1912 867.141 35.3266 869.783 Q32.4621 872.393 32.4621 876.722 Q32.4621 881.623 35.2312 884.583 Q38.0002 887.511 43.0292 887.957 L42.9973 867.078 Z" fill="#000000" fill-rule="nonzero" fill-opacity="1" /><path clip-path="url(#clip870)" d="M14.479 851.609 L14.479 845.752 L64.0042 845.752 L64.0042 851.609 L14.479 851.609 Z" fill="#000000" fill-rule="nonzero" fill-opacity="1" /><path clip-path="url(#clip870)" d="M58.657 807.113 L77.5631 807.113 L77.5631 813.001 L28.3562 813.001 L28.3562 807.113 L33.7671 807.113 Q30.5842 805.267 29.0564 802.466 Q27.4968 799.633 27.4968 795.718 Q27.4968 789.225 32.6531 785.183 Q37.8093 781.109 46.212 781.109 Q54.6147 781.109 59.771 785.183 Q64.9272 789.225 64.9272 795.718 Q64.9272 799.633 63.3994 802.466 Q61.8398 805.267 58.657 807.113 M46.212 787.188 Q39.7508 787.188 36.0905 789.862 Q32.3984 792.503 32.3984 797.15 Q32.3984 801.797 36.0905 804.471 Q39.7508 807.113 46.212 807.113 Q52.6732 807.113 56.3653 804.471 Q60.0256 801.797 60.0256 797.15 Q60.0256 792.503 56.3653 789.862 Q52.6732 787.188 46.212 787.188 Z" fill="#000000" fill-rule="nonzero" fill-opacity="1" /><path clip-path="url(#clip870)" d="M33.8307 750.744 Q33.2578 751.731 33.0032 752.909 Q32.7167 754.054 32.7167 755.455 Q32.7167 760.42 35.9632 763.094 Q39.1779 765.736 45.2253 765.736 L64.0042 765.736 L64.0042 771.624 L28.3562 771.624 L28.3562 765.736 L33.8944 765.736 Q30.6479 763.889 29.0883 760.929 Q27.4968 757.969 27.4968 753.736 Q27.4968 753.131 27.5923 752.399 Q27.656 751.667 27.8151 750.776 L33.8307 750.744 Z" fill="#000000" fill-rule="nonzero" fill-opacity="1" /><path clip-path="url(#clip870)" d="M44.7161 715.542 L47.5806 715.542 L47.5806 742.469 Q53.6281 742.087 56.8109 738.84 Q59.9619 735.562 59.9619 729.737 Q59.9619 726.364 59.1344 723.213 Q58.3069 720.03 56.6518 716.911 L62.1899 716.911 Q63.5267 720.062 64.227 723.372 Q64.9272 726.682 64.9272 730.088 Q64.9272 738.618 59.9619 743.615 Q54.9967 748.58 46.5303 748.58 Q37.7774 748.58 32.6531 743.869 Q27.4968 739.127 27.4968 731.106 Q27.4968 723.913 32.1438 719.743 Q36.7589 715.542 44.7161 715.542 M42.9973 721.398 Q38.1912 721.462 35.3266 724.104 Q32.4621 726.714 32.4621 731.042 Q32.4621 735.944 35.2312 738.904 Q38.0002 741.832 43.0292 742.278 L42.9973 721.398 Z" fill="#000000" fill-rule="nonzero" fill-opacity="1" /><path clip-path="url(#clip870)" d="M29.4065 683.204 L34.9447 683.204 Q33.6716 685.687 33.035 688.36 Q32.3984 691.034 32.3984 693.899 Q32.3984 698.259 33.7352 700.455 Q35.072 702.62 37.7456 702.62 Q39.7826 702.62 40.9603 701.06 Q42.1061 699.5 43.1565 694.79 L43.6021 692.785 Q44.9389 686.546 47.3897 683.936 Q49.8086 681.294 54.1691 681.294 Q59.1344 681.294 62.0308 685.241 Q64.9272 689.156 64.9272 696.031 Q64.9272 698.896 64.3543 702.015 Q63.8132 705.102 62.6992 708.54 L56.6518 708.54 Q58.3387 705.293 59.198 702.142 Q60.0256 698.991 60.0256 695.904 Q60.0256 691.766 58.6251 689.538 Q57.1929 687.31 54.6147 687.31 Q52.2276 687.31 50.9545 688.933 Q49.6813 690.525 48.5037 695.967 L48.0262 698.004 Q46.8804 703.447 44.5251 705.866 Q42.138 708.285 38.0002 708.285 Q32.9713 708.285 30.2341 704.72 Q27.4968 701.155 27.4968 694.599 Q27.4968 691.352 27.9743 688.488 Q28.4517 685.623 29.4065 683.204 Z" fill="#000000" fill-rule="nonzero" fill-opacity="1" /><path clip-path="url(#clip870)" d="M29.4065 649.243 L34.9447 649.243 Q33.6716 651.726 33.035 654.399 Q32.3984 657.073 32.3984 659.937 Q32.3984 664.298 33.7352 666.494 Q35.072 668.659 37.7456 668.659 Q39.7826 668.659 40.9603 667.099 Q42.1061 665.539 43.1565 660.829 L43.6021 658.823 Q44.9389 652.585 47.3897 649.975 Q49.8086 647.333 54.1691 647.333 Q59.1344 647.333 62.0308 651.28 Q64.9272 655.195 64.9272 662.07 Q64.9272 664.935 64.3543 668.054 Q63.8132 671.141 62.6992 674.579 L56.6518 674.579 Q58.3387 671.332 59.198 668.181 Q60.0256 665.03 60.0256 661.943 Q60.0256 657.805 58.6251 655.577 Q57.1929 653.349 54.6147 653.349 Q52.2276 653.349 50.9545 654.972 Q49.6813 656.564 48.5037 662.006 L48.0262 664.043 Q46.8804 669.486 44.5251 671.905 Q42.138 674.324 38.0002 674.324 Q32.9713 674.324 30.2341 670.759 Q27.4968 667.194 27.4968 660.638 Q27.4968 657.391 27.9743 654.527 Q28.4517 651.662 29.4065 649.243 Z" fill="#000000" fill-rule="nonzero" fill-opacity="1" /><path clip-path="url(#clip870)" d="M49.9359 638.612 L28.3562 638.612 L28.3562 632.756 L49.7131 632.756 Q54.7739 632.756 57.3202 630.783 Q59.8346 628.809 59.8346 624.862 Q59.8346 620.12 56.8109 617.383 Q53.7872 614.614 48.5673 614.614 L28.3562 614.614 L28.3562 608.757 L64.0042 608.757 L64.0042 614.614 L58.5296 614.614 Q61.7762 616.746 63.3676 619.579 Q64.9272 622.38 64.9272 626.104 Q64.9272 632.247 61.1078 635.43 Q57.2883 638.612 49.9359 638.612 M27.4968 623.876 L27.4968 623.876 Z" fill="#000000" fill-rule="nonzero" fill-opacity="1" /><path clip-path="url(#clip870)" d="M33.8307 576.037 Q33.2578 577.024 33.0032 578.202 Q32.7167 579.348 32.7167 580.748 Q32.7167 585.713 35.9632 588.387 Q39.1779 591.029 45.2253 591.029 L64.0042 591.029 L64.0042 596.917 L28.3562 596.917 L28.3562 591.029 L33.8944 591.029 Q30.6479 589.183 29.0883 586.223 Q27.4968 583.263 27.4968 579.029 Q27.4968 578.425 27.5923 577.693 Q27.656 576.961 27.8151 576.069 L33.8307 576.037 Z" fill="#000000" fill-rule="nonzero" fill-opacity="1" /><path clip-path="url(#clip870)" d="M44.7161 540.835 L47.5806 540.835 L47.5806 567.762 Q53.6281 567.38 56.8109 564.134 Q59.9619 560.855 59.9619 555.031 Q59.9619 551.657 59.1344 548.506 Q58.3069 545.323 56.6518 542.204 L62.1899 542.204 Q63.5267 545.355 64.227 548.665 Q64.9272 551.975 64.9272 555.381 Q64.9272 563.911 59.9619 568.908 Q54.9967 573.873 46.5303 573.873 Q37.7774 573.873 32.6531 569.163 Q27.4968 564.42 27.4968 556.399 Q27.4968 549.206 32.1438 545.036 Q36.7589 540.835 44.7161 540.835 M42.9973 546.692 Q38.1912 546.755 35.3266 549.397 Q32.4621 552.007 32.4621 556.336 Q32.4621 561.237 35.2312 564.197 Q38.0002 567.125 43.0292 567.571 L42.9973 546.692 Z" fill="#000000" fill-rule="nonzero" fill-opacity="1" /><path clip-path="url(#clip870)" d="M55.9197 529.727 L55.9197 523.011 L61.3942 523.011 L71.5793 528.231 L71.5793 532.337 L61.3942 529.727 L55.9197 529.727 Z" fill="#000000" fill-rule="nonzero" fill-opacity="1" /><path clip-path="url(#clip870)" d="M21.7677 483.098 L39.6235 483.098 L39.6235 475.014 Q39.6235 470.526 37.3 468.075 Q34.9765 465.624 30.6797 465.624 Q26.4147 465.624 24.0912 468.075 Q21.7677 470.526 21.7677 475.014 L21.7677 483.098 M16.4842 489.528 L16.4842 475.014 Q16.4842 467.025 20.1126 462.951 Q23.7092 458.845 30.6797 458.845 Q37.7138 458.845 41.3104 462.951 Q44.907 467.025 44.907 475.014 L44.907 483.098 L64.0042 483.098 L64.0042 489.528 L16.4842 489.528 Z" fill="#000000" fill-rule="nonzero" fill-opacity="1" /><path clip-path="url(#clip870)" d="M46.0847 437.201 Q46.0847 444.299 47.7079 447.036 Q49.3312 449.774 53.2461 449.774 Q56.3653 449.774 58.2114 447.737 Q60.0256 445.668 60.0256 442.135 Q60.0256 437.265 56.5881 434.337 Q53.1188 431.377 47.3897 431.377 L46.0847 431.377 L46.0847 437.201 M43.6657 425.52 L64.0042 425.52 L64.0042 431.377 L58.5933 431.377 Q61.8398 433.382 63.3994 436.374 Q64.9272 439.366 64.9272 443.694 Q64.9272 449.169 61.8716 452.415 Q58.7843 455.63 53.6281 455.63 Q47.6125 455.63 44.5569 451.62 Q41.5014 447.578 41.5014 439.589 L41.5014 431.377 L40.9285 431.377 Q36.8862 431.377 34.6901 434.05 Q32.4621 436.692 32.4621 441.498 Q32.4621 444.554 33.1941 447.45 Q33.9262 450.347 35.3903 453.02 L29.9795 453.02 Q28.7381 449.806 28.1334 446.782 Q27.4968 443.758 27.4968 440.894 Q27.4968 433.159 31.5072 429.34 Q35.5176 425.52 43.6657 425.52 Z" fill="#000000" fill-rule="nonzero" fill-opacity="1" /><polyline clip-path="url(#clip872)" style="stroke:#0000ff; stroke-linecap:round; stroke-linejoin:round; stroke-width:4; stroke-opacity:1; fill:none" points="426.075,86.1857 444.97,105.891 463.864,125.414 482.759,144.756 501.653,163.921 520.548,182.908 539.442,201.721 558.337,220.361 577.232,238.83 596.126,257.13 615.021,275.262 633.915,293.228 652.81,311.03 671.705,328.67 690.599,346.148 709.494,363.468 728.388,380.63 747.283,397.636 766.178,414.487 785.072,431.186 803.967,447.734 822.861,464.132 841.756,480.381 860.65,496.485 879.545,512.443 898.44,528.257 917.334,543.929 936.229,559.46 955.123,574.852 974.018,590.106 992.913,605.223 1011.81,620.206 1030.7,635.054 1049.6,649.77 1068.49,664.354 1087.39,678.809 1106.28,693.135 1125.17,707.334 1144.07,721.407 1162.96,735.355 1181.86,749.179 1200.75,762.882 1219.65,776.463 1238.54,789.924 1257.44,803.267 1276.33,816.492 1295.23,829.601 1314.12,842.595 1333.02,855.475 1351.91,868.241 1370.8,880.896 1389.7,893.44 1408.59,905.875 1427.49,918.201 1446.38,930.419 1465.28,942.532 1484.17,954.538 1503.07,966.441 1521.96,978.24 1540.86,989.936 1559.75,1001.53 1578.64,1013.03 1597.54,1024.42 1616.43,1035.72 1635.33,1046.92 1654.22,1058.02 1673.12,1069.03 1692.01,1079.94 1710.91,1090.76 1729.8,1101.49 1748.7,1112.12 1767.59,1122.67 1786.49,1133.12 1805.38,1143.49 1824.27,1153.76 1843.17,1163.95 1862.06,1174.05 1880.96,1184.07 1899.85,1194 1918.75,1203.84 1937.64,1213.6 1956.54,1223.28 1975.43,1232.88 1994.33,1242.4 2013.22,1251.84 2032.11,1261.19 2051.01,1270.47 2069.9,1279.67 2088.8,1288.79 2107.69,1297.84 2126.59,1306.81 2145.48,1315.7 2164.38,1324.52 2183.27,1333.27 2202.17,1341.94 2221.06,1350.54 2239.96,1359.07 2258.85,1367.53 2277.74,1375.92 2296.64,1384.24 "/>
<circle clip-path="url(#clip872)" cx="1395.59" cy="897.327" r="14.4" fill="#0000ff" fill-rule="evenodd" fill-opacity="1" stroke="#000000" stroke-opacity="1" stroke-width="3.2"/>
<polyline clip-path="url(#clip872)" style="stroke:#ff0000; stroke-linecap:round; stroke-linejoin:round; stroke-width:4; stroke-opacity:1; fill:none" points="426.075,86.1857 444.97,105.006 463.864,123.593 482.759,141.946 501.653,160.066 520.548,177.953 539.442,195.608 558.337,213.032 577.232,230.224 596.126,247.186 615.021,263.918 633.915,280.421 652.81,296.695 671.705,312.74 690.599,328.557 709.494,344.147 728.388,359.509 747.283,374.645 766.178,389.555 785.072,404.239 803.967,418.698 822.861,432.932 841.756,446.943 860.65,460.729 879.545,474.293 898.44,487.634 917.334,500.753 936.229,513.65 955.123,526.326 974.018,538.782 992.913,551.019 1011.81,563.037 1030.7,574.836 1049.6,586.417 1068.49,597.779 1087.39,608.922 1106.28,619.848 1125.17,630.556 1144.07,641.047 1162.96,651.321 1181.86,661.379 1200.75,671.22 1219.65,680.847 1238.54,690.258 1257.44,699.455 1276.33,708.438 1295.23,717.208 1314.12,725.766 1333.02,734.112 1351.91,742.247 1370.8,750.189 1389.7,757.973 1408.59,765.582 1427.49,772.999 1446.38,780.209 1465.28,787.2 1484.17,793.961 1503.07,800.483 1521.96,806.762 1540.86,812.792 1559.75,818.572 1578.64,824.103 1597.54,829.387 1616.43,834.431 1635.33,839.24 1654.22,843.825 1673.12,848.196 1692.01,852.369 1710.91,856.359 1729.8,860.185 1748.7,863.866 1767.59,867.428 1786.49,871.069 1805.38,874.772 1824.27,878.349 1843.17,881.65 1862.06,884.558 1880.96,886.992 1899.85,888.905 1918.75,890.283 1937.64,891.149 1956.54,891.559 1975.43,891.606 1994.33,891.414 2013.22,891.145 2032.11,890.994 2051.01,891.191 2069.9,892.001 2088.8,893.347 2107.69,894.519 2126.59,895.705 2145.48,895.705 2164.38,895.705 2183.27,895.705 2202.17,895.705 2221.06,895.705 2239.96,895.705 2258.85,895.705 2277.74,895.705 2296.64,895.705 "/>
<circle clip-path="url(#clip872)" cx="2126.59" cy="895.705" r="14.4" fill="#ff0000" fill-rule="evenodd" fill-opacity="1" stroke="#000000" stroke-opacity="1" stroke-width="3.2"/>
<polyline clip-path="url(#clip872)" style="stroke:#008000; stroke-linecap:round; stroke-linejoin:round; stroke-width:4; stroke-opacity:1; fill:none" points="426.075,897.327 2296.64,897.327 "/>
<path clip-path="url(#clip870)" d="M1640.47 300.469 L2286.66 300.469 L2286.66 93.1086 L1640.47 93.1086  Z" fill="#ffffff" fill-rule="evenodd" fill-opacity="1"/>
<polyline clip-path="url(#clip870)" style="stroke:#000000; stroke-linecap:round; stroke-linejoin:round; stroke-width:4; stroke-opacity:1; fill:none" points="1640.47,300.469 2286.66,300.469 2286.66,93.1086 1640.47,93.1086 1640.47,300.469 "/>
<polyline clip-path="url(#clip870)" style="stroke:#0000ff; stroke-linecap:round; stroke-linejoin:round; stroke-width:4; stroke-opacity:1; fill:none" points="1662.5,144.949 1794.69,144.949 "/>
<path clip-path="url(#clip870)" d="M1816.72 127.669 L1836.58 127.669 L1836.58 131.604 L1821.39 131.604 L1821.39 141.789 L1835.1 141.789 L1835.1 145.724 L1821.39 145.724 L1821.39 162.229 L1816.72 162.229 L1816.72 127.669 Z" fill="#000000" fill-rule="nonzero" fill-opacity="1" /><path clip-path="url(#clip870)" d="M1840.77 151.997 L1840.77 136.303 L1845.03 136.303 L1845.03 151.835 Q1845.03 155.516 1846.46 157.368 Q1847.9 159.196 1850.77 159.196 Q1854.22 159.196 1856.21 156.997 Q1858.22 154.798 1858.22 151.002 L1858.22 136.303 L1862.48 136.303 L1862.48 162.229 L1858.22 162.229 L1858.22 158.247 Q1856.67 160.608 1854.61 161.766 Q1852.57 162.9 1849.87 162.9 Q1845.4 162.9 1843.08 160.122 Q1840.77 157.344 1840.77 151.997 M1851.49 135.678 L1851.49 135.678 Z" fill="#000000" fill-rule="nonzero" fill-opacity="1" /><path clip-path="url(#clip870)" d="M1871.25 126.21 L1875.51 126.21 L1875.51 162.229 L1871.25 162.229 L1871.25 126.21 Z" fill="#000000" fill-rule="nonzero" fill-opacity="1" /><path clip-path="url(#clip870)" d="M1884.43 126.21 L1888.68 126.21 L1888.68 162.229 L1884.43 162.229 L1884.43 126.21 Z" fill="#000000" fill-rule="nonzero" fill-opacity="1" /><path clip-path="url(#clip870)" d="M1908.38 164.636 Q1906.58 169.266 1904.86 170.678 Q1903.15 172.09 1900.28 172.09 L1896.88 172.09 L1896.88 168.525 L1899.38 168.525 Q1901.14 168.525 1902.11 167.692 Q1903.08 166.858 1904.26 163.756 L1905.03 161.812 L1894.54 136.303 L1899.05 136.303 L1907.16 156.581 L1915.26 136.303 L1919.77 136.303 L1908.38 164.636 Z" fill="#000000" fill-rule="nonzero" fill-opacity="1" /><path clip-path="url(#clip870)" d="M1959.38 137.298 L1959.38 141.28 Q1957.57 140.284 1955.74 139.798 Q1953.94 139.289 1952.09 139.289 Q1947.94 139.289 1945.65 141.928 Q1943.36 144.544 1943.36 149.289 Q1943.36 154.034 1945.65 156.673 Q1947.94 159.289 1952.09 159.289 Q1953.94 159.289 1955.74 158.803 Q1957.57 158.293 1959.38 157.298 L1959.38 161.233 Q1957.6 162.067 1955.67 162.483 Q1953.78 162.9 1951.62 162.9 Q1945.77 162.9 1942.32 159.219 Q1938.87 155.539 1938.87 149.289 Q1938.87 142.946 1942.34 139.312 Q1945.84 135.678 1951.9 135.678 Q1953.87 135.678 1955.74 136.095 Q1957.62 136.488 1959.38 137.298 Z" fill="#000000" fill-rule="nonzero" fill-opacity="1" /><path clip-path="url(#clip870)" d="M1988.34 146.581 L1988.34 162.229 L1984.08 162.229 L1984.08 146.719 Q1984.08 143.039 1982.64 141.21 Q1981.21 139.382 1978.34 139.382 Q1974.89 139.382 1972.9 141.581 Q1970.91 143.78 1970.91 147.576 L1970.91 162.229 L1966.62 162.229 L1966.62 126.21 L1970.91 126.21 L1970.91 140.331 Q1972.43 137.993 1974.49 136.835 Q1976.58 135.678 1979.29 135.678 Q1983.75 135.678 1986.05 138.456 Q1988.34 141.21 1988.34 146.581 Z" fill="#000000" fill-rule="nonzero" fill-opacity="1" /><path clip-path="url(#clip870)" d="M2006.88 139.289 Q2003.45 139.289 2001.46 141.974 Q1999.47 144.636 1999.47 149.289 Q1999.47 153.942 2001.44 156.627 Q2003.43 159.289 2006.88 159.289 Q2010.28 159.289 2012.27 156.604 Q2014.26 153.918 2014.26 149.289 Q2014.26 144.682 2012.27 141.997 Q2010.28 139.289 2006.88 139.289 M2006.88 135.678 Q2012.43 135.678 2015.61 139.289 Q2018.78 142.9 2018.78 149.289 Q2018.78 155.655 2015.61 159.289 Q2012.43 162.9 2006.88 162.9 Q2001.3 162.9 1998.13 159.289 Q1994.98 155.655 1994.98 149.289 Q1994.98 142.9 1998.13 139.289 Q2001.3 135.678 2006.88 135.678 Z" fill="#000000" fill-rule="nonzero" fill-opacity="1" /><path clip-path="url(#clip870)" d="M2025.67 126.21 L2029.96 126.21 L2029.96 147.483 L2042.67 136.303 L2048.1 136.303 L2034.36 148.432 L2048.68 162.229 L2043.13 162.229 L2029.96 149.567 L2029.96 162.229 L2025.67 162.229 L2025.67 126.21 Z" fill="#000000" fill-rule="nonzero" fill-opacity="1" /><path clip-path="url(#clip870)" d="M2073.78 148.201 L2073.78 150.284 L2054.19 150.284 Q2054.47 154.682 2056.83 156.997 Q2059.22 159.289 2063.45 159.289 Q2065.91 159.289 2068.2 158.687 Q2070.51 158.085 2072.78 156.881 L2072.78 160.909 Q2070.49 161.881 2068.08 162.391 Q2065.67 162.9 2063.2 162.9 Q2056.99 162.9 2053.36 159.289 Q2049.75 155.678 2049.75 149.52 Q2049.75 143.155 2053.17 139.428 Q2056.62 135.678 2062.46 135.678 Q2067.69 135.678 2070.72 139.057 Q2073.78 142.414 2073.78 148.201 M2069.52 146.951 Q2069.47 143.456 2067.55 141.372 Q2065.65 139.289 2062.5 139.289 Q2058.94 139.289 2056.79 141.303 Q2054.66 143.317 2054.33 146.974 L2069.52 146.951 Z" fill="#000000" fill-rule="nonzero" fill-opacity="1" /><path clip-path="url(#clip870)" d="M2097.83 140.238 L2097.83 126.21 L2102.09 126.21 L2102.09 162.229 L2097.83 162.229 L2097.83 158.34 Q2096.48 160.655 2094.42 161.789 Q2092.39 162.9 2089.52 162.9 Q2084.82 162.9 2081.85 159.15 Q2078.91 155.4 2078.91 149.289 Q2078.91 143.178 2081.85 139.428 Q2084.82 135.678 2089.52 135.678 Q2092.39 135.678 2094.42 136.812 Q2096.48 137.923 2097.83 140.238 M2083.31 149.289 Q2083.31 153.988 2085.23 156.673 Q2087.18 159.335 2090.56 159.335 Q2093.94 159.335 2095.88 156.673 Q2097.83 153.988 2097.83 149.289 Q2097.83 144.59 2095.88 141.928 Q2093.94 139.243 2090.56 139.243 Q2087.18 139.243 2085.23 141.928 Q2083.31 144.59 2083.31 149.289 Z" fill="#000000" fill-rule="nonzero" fill-opacity="1" /><path clip-path="url(#clip870)" d="M2146.11 141.28 Q2147.71 138.409 2149.93 137.044 Q2152.16 135.678 2155.16 135.678 Q2159.22 135.678 2161.41 138.525 Q2163.61 141.349 2163.61 146.581 L2163.61 162.229 L2159.33 162.229 L2159.33 146.719 Q2159.33 142.993 2158.01 141.187 Q2156.69 139.382 2153.98 139.382 Q2150.67 139.382 2148.75 141.581 Q2146.83 143.78 2146.83 147.576 L2146.83 162.229 L2142.55 162.229 L2142.55 146.719 Q2142.55 142.969 2141.23 141.187 Q2139.91 139.382 2137.16 139.382 Q2133.89 139.382 2131.97 141.604 Q2130.05 143.803 2130.05 147.576 L2130.05 162.229 L2125.77 162.229 L2125.77 136.303 L2130.05 136.303 L2130.05 140.331 Q2131.51 137.946 2133.54 136.812 Q2135.58 135.678 2138.38 135.678 Q2141.21 135.678 2143.17 137.113 Q2145.16 138.548 2146.11 141.28 Z" fill="#000000" fill-rule="nonzero" fill-opacity="1" /><path clip-path="url(#clip870)" d="M2182.16 139.289 Q2178.73 139.289 2176.74 141.974 Q2174.75 144.636 2174.75 149.289 Q2174.75 153.942 2176.72 156.627 Q2178.71 159.289 2182.16 159.289 Q2185.56 159.289 2187.55 156.604 Q2189.54 153.918 2189.54 149.289 Q2189.54 144.682 2187.55 141.997 Q2185.56 139.289 2182.16 139.289 M2182.16 135.678 Q2187.71 135.678 2190.88 139.289 Q2194.05 142.9 2194.05 149.289 Q2194.05 155.655 2190.88 159.289 Q2187.71 162.9 2182.16 162.9 Q2176.58 162.9 2173.41 159.289 Q2170.26 155.655 2170.26 149.289 Q2170.26 142.9 2173.41 139.289 Q2176.58 135.678 2182.16 135.678 Z" fill="#000000" fill-rule="nonzero" fill-opacity="1" /><path clip-path="url(#clip870)" d="M2218.17 140.238 L2218.17 126.21 L2222.43 126.21 L2222.43 162.229 L2218.17 162.229 L2218.17 158.34 Q2216.83 160.655 2214.77 161.789 Q2212.73 162.9 2209.86 162.9 Q2205.16 162.9 2202.2 159.15 Q2199.26 155.4 2199.26 149.289 Q2199.26 143.178 2202.2 139.428 Q2205.16 135.678 2209.86 135.678 Q2212.73 135.678 2214.77 136.812 Q2216.83 137.923 2218.17 140.238 M2203.66 149.289 Q2203.66 153.988 2205.58 156.673 Q2207.53 159.335 2210.9 159.335 Q2214.28 159.335 2216.23 156.673 Q2218.17 153.988 2218.17 149.289 Q2218.17 144.59 2216.23 141.928 Q2214.28 139.243 2210.9 139.243 Q2207.53 139.243 2205.58 141.928 Q2203.66 144.59 2203.66 149.289 Z" fill="#000000" fill-rule="nonzero" fill-opacity="1" /><path clip-path="url(#clip870)" d="M2253.38 148.201 L2253.38 150.284 L2233.8 150.284 Q2234.08 154.682 2236.44 156.997 Q2238.82 159.289 2243.06 159.289 Q2245.51 159.289 2247.8 158.687 Q2250.12 158.085 2252.39 156.881 L2252.39 160.909 Q2250.09 161.881 2247.69 162.391 Q2245.28 162.9 2242.8 162.9 Q2236.6 162.9 2232.97 159.289 Q2229.35 155.678 2229.35 149.52 Q2229.35 143.155 2232.78 139.428 Q2236.23 135.678 2242.06 135.678 Q2247.29 135.678 2250.33 139.057 Q2253.38 142.414 2253.38 148.201 M2249.12 146.951 Q2249.08 143.456 2247.15 141.372 Q2245.26 139.289 2242.11 139.289 Q2238.54 139.289 2236.39 141.303 Q2234.26 143.317 2233.94 146.974 L2249.12 146.951 Z" fill="#000000" fill-rule="nonzero" fill-opacity="1" /><path clip-path="url(#clip870)" d="M2260.37 126.21 L2264.63 126.21 L2264.63 162.229 L2260.37 162.229 L2260.37 126.21 Z" fill="#000000" fill-rule="nonzero" fill-opacity="1" /><polyline clip-path="url(#clip870)" style="stroke:#ff0000; stroke-linecap:round; stroke-linejoin:round; stroke-width:4; stroke-opacity:1; fill:none" points="1662.5,196.789 1794.69,196.789 "/>
<path clip-path="url(#clip870)" d="M1832.74 182.68 Q1827.64 182.68 1824.63 186.476 Q1821.65 190.272 1821.65 196.823 Q1821.65 203.351 1824.63 207.147 Q1827.64 210.944 1832.74 210.944 Q1837.83 210.944 1840.79 207.147 Q1843.78 203.351 1843.78 196.823 Q1843.78 190.272 1840.79 186.476 Q1837.83 182.68 1832.74 182.68 M1832.74 178.884 Q1840 178.884 1844.36 183.768 Q1848.71 188.629 1848.71 196.823 Q1848.71 204.995 1844.36 209.879 Q1840 214.74 1832.74 214.74 Q1825.44 214.74 1821.07 209.879 Q1816.72 205.018 1816.72 196.823 Q1816.72 188.629 1821.07 183.768 Q1825.44 178.884 1832.74 178.884 Z" fill="#000000" fill-rule="nonzero" fill-opacity="1" /><path clip-path="url(#clip870)" d="M1860.7 183.351 L1860.7 210.226 L1866.35 210.226 Q1873.5 210.226 1876.81 206.985 Q1880.14 203.745 1880.14 196.754 Q1880.14 189.809 1876.81 186.592 Q1873.5 183.351 1866.35 183.351 L1860.7 183.351 M1856.02 179.509 L1865.63 179.509 Q1875.68 179.509 1880.37 183.698 Q1885.07 187.865 1885.07 196.754 Q1885.07 205.689 1880.35 209.879 Q1875.63 214.069 1865.63 214.069 L1856.02 214.069 L1856.02 179.509 Z" fill="#000000" fill-rule="nonzero" fill-opacity="1" /><path clip-path="url(#clip870)" d="M1892.53 179.509 L1914.38 179.509 L1914.38 183.444 L1897.2 183.444 L1897.2 193.675 L1913.66 193.675 L1913.66 197.61 L1897.2 197.61 L1897.2 210.133 L1914.8 210.133 L1914.8 214.069 L1892.53 214.069 L1892.53 179.509 Z" fill="#000000" fill-rule="nonzero" fill-opacity="1" /><polyline clip-path="url(#clip870)" style="stroke:#008000; stroke-linecap:round; stroke-linejoin:round; stroke-width:4; stroke-opacity:1; fill:none" points="1662.5,248.629 1794.69,248.629 "/>
<path clip-path="url(#clip870)" d="M1832.55 235.955 L1826.21 253.154 L1838.92 253.154 L1832.55 235.955 M1829.91 231.349 L1835.21 231.349 L1848.38 265.909 L1843.52 265.909 L1840.37 257.043 L1824.8 257.043 L1821.65 265.909 L1816.72 265.909 L1829.91 231.349 Z" fill="#000000" fill-rule="nonzero" fill-opacity="1" /><path clip-path="url(#clip870)" d="M1873.43 244.96 Q1875.03 242.089 1877.25 240.724 Q1879.47 239.358 1882.48 239.358 Q1886.53 239.358 1888.73 242.205 Q1890.93 245.029 1890.93 250.261 L1890.93 265.909 L1886.65 265.909 L1886.65 250.399 Q1886.65 246.673 1885.33 244.867 Q1884.01 243.062 1881.3 243.062 Q1877.99 243.062 1876.07 245.261 Q1874.15 247.46 1874.15 251.256 L1874.15 265.909 L1869.87 265.909 L1869.87 250.399 Q1869.87 246.649 1868.55 244.867 Q1867.23 243.062 1864.47 243.062 Q1861.21 243.062 1859.29 245.284 Q1857.37 247.483 1857.37 251.256 L1857.37 265.909 L1853.08 265.909 L1853.08 239.983 L1857.37 239.983 L1857.37 244.011 Q1858.82 241.626 1860.86 240.492 Q1862.9 239.358 1865.7 239.358 Q1868.52 239.358 1870.49 240.793 Q1872.48 242.228 1873.43 244.96 Z" fill="#000000" fill-rule="nonzero" fill-opacity="1" /><path clip-path="url(#clip870)" d="M1918.04 252.969 Q1918.04 248.27 1916.09 245.608 Q1914.17 242.923 1910.79 242.923 Q1907.41 242.923 1905.47 245.608 Q1903.55 248.27 1903.55 252.969 Q1903.55 257.668 1905.47 260.353 Q1907.41 263.015 1910.79 263.015 Q1914.17 263.015 1916.09 260.353 Q1918.04 257.668 1918.04 252.969 M1903.55 243.918 Q1904.89 241.603 1906.93 240.492 Q1908.99 239.358 1911.83 239.358 Q1916.55 239.358 1919.49 243.108 Q1922.46 246.858 1922.46 252.969 Q1922.46 259.08 1919.49 262.83 Q1916.55 266.58 1911.83 266.58 Q1908.99 266.58 1906.93 265.469 Q1904.89 264.335 1903.55 262.02 L1903.55 265.909 L1899.26 265.909 L1899.26 229.89 L1903.55 229.89 L1903.55 243.918 Z" fill="#000000" fill-rule="nonzero" fill-opacity="1" /><path clip-path="url(#clip870)" d="M1929.52 239.983 L1933.78 239.983 L1933.78 265.909 L1929.52 265.909 L1929.52 239.983 M1929.52 229.89 L1933.78 229.89 L1933.78 235.284 L1929.52 235.284 L1929.52 229.89 Z" fill="#000000" fill-rule="nonzero" fill-opacity="1" /><path clip-path="url(#clip870)" d="M1964.86 251.881 L1964.86 253.964 L1945.28 253.964 Q1945.56 258.362 1947.92 260.677 Q1950.3 262.969 1954.54 262.969 Q1956.99 262.969 1959.29 262.367 Q1961.6 261.765 1963.87 260.561 L1963.87 264.589 Q1961.58 265.561 1959.17 266.071 Q1956.76 266.58 1954.29 266.58 Q1948.08 266.58 1944.45 262.969 Q1940.84 259.358 1940.84 253.2 Q1940.84 246.835 1944.26 243.108 Q1947.71 239.358 1953.55 239.358 Q1958.78 239.358 1961.81 242.737 Q1964.86 246.094 1964.86 251.881 M1960.61 250.631 Q1960.56 247.136 1958.64 245.052 Q1956.74 242.969 1953.59 242.969 Q1950.03 242.969 1947.87 244.983 Q1945.74 246.997 1945.42 250.654 L1960.61 250.631 Z" fill="#000000" fill-rule="nonzero" fill-opacity="1" /><path clip-path="url(#clip870)" d="M1993.41 250.261 L1993.41 265.909 L1989.15 265.909 L1989.15 250.399 Q1989.15 246.719 1987.71 244.89 Q1986.28 243.062 1983.41 243.062 Q1979.96 243.062 1977.97 245.261 Q1975.98 247.46 1975.98 251.256 L1975.98 265.909 L1971.69 265.909 L1971.69 239.983 L1975.98 239.983 L1975.98 244.011 Q1977.5 241.673 1979.56 240.515 Q1981.65 239.358 1984.36 239.358 Q1988.82 239.358 1991.11 242.136 Q1993.41 244.89 1993.41 250.261 Z" fill="#000000" fill-rule="nonzero" fill-opacity="1" /><path clip-path="url(#clip870)" d="M2006.11 232.622 L2006.11 239.983 L2014.89 239.983 L2014.89 243.293 L2006.11 243.293 L2006.11 257.367 Q2006.11 260.538 2006.97 261.441 Q2007.85 262.344 2010.51 262.344 L2014.89 262.344 L2014.89 265.909 L2010.51 265.909 Q2005.58 265.909 2003.71 264.08 Q2001.83 262.228 2001.83 257.367 L2001.83 243.293 L1998.71 243.293 L1998.71 239.983 L2001.83 239.983 L2001.83 232.622 L2006.11 232.622 Z" fill="#000000" fill-rule="nonzero" fill-opacity="1" /><path clip-path="url(#clip870)" d="M2040.42 235.191 L2040.42 248.177 L2046.3 248.177 Q2049.56 248.177 2051.35 246.487 Q2053.13 244.798 2053.13 241.673 Q2053.13 238.571 2051.35 236.881 Q2049.56 235.191 2046.3 235.191 L2040.42 235.191 M2035.74 231.349 L2046.3 231.349 Q2052.11 231.349 2055.07 233.987 Q2058.06 236.603 2058.06 241.673 Q2058.06 246.788 2055.07 249.404 Q2052.11 252.02 2046.3 252.02 L2040.42 252.02 L2040.42 265.909 L2035.74 265.909 L2035.74 231.349 Z" fill="#000000" fill-rule="nonzero" fill-opacity="1" /><path clip-path="url(#clip870)" d="M2078.34 243.964 Q2077.62 243.548 2076.76 243.362 Q2075.93 243.154 2074.91 243.154 Q2071.3 243.154 2069.35 245.515 Q2067.43 247.853 2067.43 252.251 L2067.43 265.909 L2063.15 265.909 L2063.15 239.983 L2067.43 239.983 L2067.43 244.011 Q2068.78 241.649 2070.93 240.515 Q2073.08 239.358 2076.16 239.358 Q2076.6 239.358 2077.13 239.427 Q2077.66 239.474 2078.31 239.589 L2078.34 243.964 Z" fill="#000000" fill-rule="nonzero" fill-opacity="1" /><path clip-path="url(#clip870)" d="M2103.94 251.881 L2103.94 253.964 L2084.35 253.964 Q2084.63 258.362 2086.99 260.677 Q2089.38 262.969 2093.61 262.969 Q2096.07 262.969 2098.36 262.367 Q2100.67 261.765 2102.94 260.561 L2102.94 264.589 Q2100.65 265.561 2098.24 266.071 Q2095.84 266.58 2093.36 266.58 Q2087.16 266.58 2083.52 262.969 Q2079.91 259.358 2079.91 253.2 Q2079.91 246.835 2083.34 243.108 Q2086.79 239.358 2092.62 239.358 Q2097.85 239.358 2100.88 242.737 Q2103.94 246.094 2103.94 251.881 M2099.68 250.631 Q2099.63 247.136 2097.71 245.052 Q2095.81 242.969 2092.66 242.969 Q2089.1 242.969 2086.95 244.983 Q2084.82 246.997 2084.49 250.654 L2099.68 250.631 Z" fill="#000000" fill-rule="nonzero" fill-opacity="1" /><path clip-path="url(#clip870)" d="M2127.46 240.747 L2127.46 244.774 Q2125.65 243.849 2123.71 243.386 Q2121.76 242.923 2119.68 242.923 Q2116.51 242.923 2114.91 243.895 Q2113.34 244.867 2113.34 246.811 Q2113.34 248.293 2114.47 249.149 Q2115.6 249.983 2119.03 250.747 L2120.49 251.071 Q2125.03 252.043 2126.92 253.825 Q2128.85 255.585 2128.85 258.756 Q2128.85 262.367 2125.97 264.473 Q2123.13 266.58 2118.13 266.58 Q2116.04 266.58 2113.78 266.163 Q2111.53 265.77 2109.03 264.96 L2109.03 260.561 Q2111.39 261.788 2113.68 262.413 Q2115.97 263.015 2118.22 263.015 Q2121.23 263.015 2122.85 261.997 Q2124.47 260.955 2124.47 259.08 Q2124.47 257.344 2123.29 256.418 Q2122.13 255.492 2118.17 254.636 L2116.69 254.288 Q2112.73 253.455 2110.97 251.742 Q2109.22 250.006 2109.22 246.997 Q2109.22 243.339 2111.81 241.349 Q2114.4 239.358 2119.17 239.358 Q2121.53 239.358 2123.61 239.705 Q2125.7 240.052 2127.46 240.747 Z" fill="#000000" fill-rule="nonzero" fill-opacity="1" /><path clip-path="url(#clip870)" d="M2152.16 240.747 L2152.16 244.774 Q2150.35 243.849 2148.41 243.386 Q2146.46 242.923 2144.38 242.923 Q2141.21 242.923 2139.61 243.895 Q2138.04 244.867 2138.04 246.811 Q2138.04 248.293 2139.17 249.149 Q2140.3 249.983 2143.73 250.747 L2145.19 251.071 Q2149.72 252.043 2151.62 253.825 Q2153.54 255.585 2153.54 258.756 Q2153.54 262.367 2150.67 264.473 Q2147.83 266.58 2142.83 266.58 Q2140.74 266.58 2138.47 266.163 Q2136.23 265.77 2133.73 264.96 L2133.73 260.561 Q2136.09 261.788 2138.38 262.413 Q2140.67 263.015 2142.92 263.015 Q2145.93 263.015 2147.55 261.997 Q2149.17 260.955 2149.17 259.08 Q2149.17 257.344 2147.99 256.418 Q2146.83 255.492 2142.87 254.636 L2141.39 254.288 Q2137.43 253.455 2135.67 251.742 Q2133.91 250.006 2133.91 246.997 Q2133.91 243.339 2136.51 241.349 Q2139.1 239.358 2143.87 239.358 Q2146.23 239.358 2148.31 239.705 Q2150.4 240.052 2152.16 240.747 Z" fill="#000000" fill-rule="nonzero" fill-opacity="1" /><path clip-path="url(#clip870)" d="M2159.89 255.677 L2159.89 239.983 L2164.15 239.983 L2164.15 255.515 Q2164.15 259.196 2165.58 261.048 Q2167.02 262.876 2169.89 262.876 Q2173.34 262.876 2175.33 260.677 Q2177.34 258.478 2177.34 254.682 L2177.34 239.983 L2181.6 239.983 L2181.6 265.909 L2177.34 265.909 L2177.34 261.927 Q2175.79 264.288 2173.73 265.446 Q2171.69 266.58 2168.98 266.58 Q2164.52 266.58 2162.2 263.802 Q2159.89 261.024 2159.89 255.677 M2170.6 239.358 L2170.6 239.358 Z" fill="#000000" fill-rule="nonzero" fill-opacity="1" /><path clip-path="url(#clip870)" d="M2205.4 243.964 Q2204.68 243.548 2203.82 243.362 Q2202.99 243.154 2201.97 243.154 Q2198.36 243.154 2196.41 245.515 Q2194.49 247.853 2194.49 252.251 L2194.49 265.909 L2190.21 265.909 L2190.21 239.983 L2194.49 239.983 L2194.49 244.011 Q2195.84 241.649 2197.99 240.515 Q2200.14 239.358 2203.22 239.358 Q2203.66 239.358 2204.19 239.427 Q2204.72 239.474 2205.37 239.589 L2205.4 243.964 Z" fill="#000000" fill-rule="nonzero" fill-opacity="1" /><path clip-path="url(#clip870)" d="M2231 251.881 L2231 253.964 L2211.41 253.964 Q2211.69 258.362 2214.05 260.677 Q2216.44 262.969 2220.67 262.969 Q2223.13 262.969 2225.42 262.367 Q2227.73 261.765 2230 260.561 L2230 264.589 Q2227.71 265.561 2225.3 266.071 Q2222.9 266.58 2220.42 266.58 Q2214.22 266.58 2210.58 262.969 Q2206.97 259.358 2206.97 253.2 Q2206.97 246.835 2210.4 243.108 Q2213.84 239.358 2219.68 239.358 Q2224.91 239.358 2227.94 242.737 Q2231 246.094 2231 251.881 M2226.74 250.631 Q2226.69 247.136 2224.77 245.052 Q2222.87 242.969 2219.72 242.969 Q2216.16 242.969 2214.01 244.983 Q2211.88 246.997 2211.55 250.654 L2226.74 250.631 Z" fill="#000000" fill-rule="nonzero" fill-opacity="1" /></svg>
