<?xml version="1.0" encoding="utf-8"?>
<svg xmlns="http://www.w3.org/2000/svg" xmlns:xlink="http://www.w3.org/1999/xlink" width="600" height="400" viewBox="0 0 2400 1600">
<defs>
  <clipPath id="clip910">
    <rect x="0" y="0" width="2400" height="1600"/>
  </clipPath>
</defs>
<path clip-path="url(#clip910)" d="M0 1600 L2400 1600 L2400 0 L0 0  Z" fill="#ffffff" fill-rule="evenodd" fill-opacity="1"/>
<defs>
  <clipPath id="clip911">
    <rect x="480" y="0" width="1681" height="1600"/>
  </clipPath>
</defs>
<path clip-path="url(#clip910)" d="M219.866 1423.18 L2352.76 1423.18 L2352.76 123.472 L219.866 123.472  Z" fill="#ffffff" fill-rule="evenodd" fill-opacity="1"/>
<defs>
  <clipPath id="clip912">
    <rect x="219" y="123" width="2134" height="1301"/>
  </clipPath>
</defs>
<polyline clip-path="url(#clip912)" style="stroke:#000000; stroke-linecap:round; stroke-linejoin:round; stroke-width:2; stroke-opacity:0.1; fill:none" points="219.866,1423.18 219.866,123.472 "/>
<polyline clip-path="url(#clip912)" style="stroke:#000000; stroke-linecap:round; stroke-linejoin:round; stroke-width:2; stroke-opacity:0.1; fill:none" points="575.348,1423.18 575.348,123.472 "/>
<polyline clip-path="url(#clip912)" style="stroke:#000000; stroke-linecap:round; stroke-linejoin:round; stroke-width:2; stroke-opacity:0.1; fill:none" points="930.829,1423.18 930.829,123.472 "/>
<polyline clip-path="url(#clip912)" style="stroke:#000000; stroke-linecap:round; stroke-linejoin:round; stroke-width:2; stroke-opacity:0.1; fill:none" points="1286.31,1423.18 1286.31,123.472 "/>
<polyline clip-path="url(#clip912)" style="stroke:#000000; stroke-linecap:round; stroke-linejoin:round; stroke-width:2; stroke-opacity:0.1; fill:none" points="1641.79,1423.18 1641.79,123.472 "/>
<polyline clip-path="url(#clip912)" style="stroke:#000000; stroke-linecap:round; stroke-linejoin:round; stroke-width:2; stroke-opacity:0.1; fill:none" points="1997.27,1423.18 1997.27,123.472 "/>
<polyline clip-path="url(#clip912)" style="stroke:#000000; stroke-linecap:round; stroke-linejoin:round; stroke-width:2; stroke-opacity:0.1; fill:none" points="2352.76,1423.18 2352.76,123.472 "/>
<polyline clip-path="url(#clip912)" style="stroke:#000000; stroke-linecap:round; stroke-linejoin:round; stroke-width:2; stroke-opacity:0.1; fill:none" points="219.866,1423.18 2352.76,1423.18 "/>
<polyline clip-path="url(#clip912)" style="stroke:#000000; stroke-linecap:round; stroke-linejoin:round; stroke-width:2; stroke-opacity:0.1; fill:none" points="219.866,1163.24 2352.76,1163.24 "/>
<polyline clip-path="url(#clip912)" style="stroke:#000000; stroke-linecap:round; stroke-linejoin:round; stroke-width:2; stroke-opacity:0.1; fill:none" points="219.866,903.297 2352.76,903.297 "/>
<polyline clip-path="url(#clip912)" style="stroke:#000000; stroke-linecap:round; stroke-linejoin:round; stroke-width:2; stroke-opacity:0.1; fill:none" points="219.866,643.355 2352.76,643.355 "/>
<polyline clip-path="url(#clip912)" style="stroke:#000000; stroke-linecap:round; stroke-linejoin:round; stroke-width:2; stroke-opacity:0.1; fill:none" points="219.866,383.414 2352.76,383.414 "/>
<polyline clip-path="url(#clip912)" style="stroke:#000000; stroke-linecap:round; stroke-linejoin:round; stroke-width:2; stroke-opacity:0.1; fill:none" points="219.866,123.472 2352.76,123.472 "/>
<polyline clip-path="url(#clip910)" style="stroke:#000000; stroke-linecap:round; stroke-linejoin:round; stroke-width:4; stroke-opacity:1; fill:none" points="219.866,1423.18 2352.76,1423.18 "/>
<polyline clip-path="url(#clip910)" style="stroke:#000000; stroke-linecap:round; stroke-linejoin:round; stroke-width:4; stroke-opacity:1; fill:none" points="219.866,1423.18 219.866,1404.28 "/>
<polyline clip-path="url(#clip910)" style="stroke:#000000; stroke-linecap:round; stroke-linejoin:round; stroke-width:4; stroke-opacity:1; fill:none" points="575.348,1423.18 575.348,1404.28 "/>
<polyline clip-path="url(#clip910)" style="stroke:#000000; stroke-linecap:round; stroke-linejoin:round; stroke-width:4; stroke-opacity:1; fill:none" points="930.829,1423.18 930.829,1404.28 "/>
<polyline clip-path="url(#clip910)" style="stroke:#000000; stroke-linecap:round; stroke-linejoin:round; stroke-width:4; stroke-opacity:1; fill:none" points="1286.31,1423.18 1286.31,1404.28 "/>
<polyline clip-path="url(#clip910)" style="stroke:#000000; stroke-linecap:round; stroke-linejoin:round; stroke-width:4; stroke-opacity:1; fill:none" points="1641.79,1423.18 1641.79,1404.28 "/>
<polyline clip-path="url(#clip910)" style="stroke:#000000; stroke-linecap:round; stroke-linejoin:round; stroke-width:4; stroke-opacity:1; fill:none" points="1997.27,1423.18 1997.27,1404.28 "/>
<polyline clip-path="url(#clip910)" style="stroke:#000000; stroke-linecap:round; stroke-linejoin:round; stroke-width:4; stroke-opacity:1; fill:none" points="2352.76,1423.18 2352.76,1404.28 "/>
<path clip-path="url(#clip910)" d="M219.866 1454.1 Q216.255 1454.1 214.426 1457.66 Q212.621 1461.2 212.621 1468.33 Q212.621 1475.44 214.426 1479.01 Q216.255 1482.55 219.866 1482.55 Q223.501 1482.55 225.306 1479.01 Q227.135 1475.44 227.135 1468.33 Q227.135 1461.2 225.306 1457.66 Q223.501 1454.1 219.866 1454.1 M219.866 1450.39 Q225.676 1450.39 228.732 1455 Q231.811 1459.58 231.811 1468.33 Q231.811 1477.06 228.732 1481.67 Q225.676 1486.25 219.866 1486.25 Q214.056 1486.25 210.977 1481.67 Q207.922 1477.06 207.922 1468.33 Q207.922 1459.58 210.977 1455 Q214.056 1450.39 219.866 1450.39 Z" fill="#000000" fill-rule="nonzero" fill-opacity="1" /><path clip-path="url(#clip910)" d="M565.73 1481.64 L573.369 1481.64 L573.369 1455.28 L565.059 1456.95 L565.059 1452.69 L573.322 1451.02 L577.998 1451.02 L577.998 1481.64 L585.637 1481.64 L585.637 1485.58 L565.73 1485.58 L565.73 1481.64 Z" fill="#000000" fill-rule="nonzero" fill-opacity="1" /><path clip-path="url(#clip910)" d="M925.482 1481.64 L941.802 1481.64 L941.802 1485.58 L919.857 1485.58 L919.857 1481.64 Q922.519 1478.89 927.103 1474.26 Q931.709 1469.61 932.89 1468.27 Q935.135 1465.74 936.015 1464.01 Q936.917 1462.25 936.917 1460.56 Q936.917 1457.8 934.973 1456.07 Q933.052 1454.33 929.95 1454.33 Q927.751 1454.33 925.297 1455.09 Q922.867 1455.86 920.089 1457.41 L920.089 1452.69 Q922.913 1451.55 925.367 1450.97 Q927.82 1450.39 929.857 1450.39 Q935.228 1450.39 938.422 1453.08 Q941.616 1455.77 941.616 1460.26 Q941.616 1462.39 940.806 1464.31 Q940.019 1466.2 937.913 1468.8 Q937.334 1469.47 934.232 1472.69 Q931.13 1475.88 925.482 1481.64 Z" fill="#000000" fill-rule="nonzero" fill-opacity="1" /><path clip-path="url(#clip910)" d="M1290.56 1466.95 Q1293.92 1467.66 1295.79 1469.93 Q1297.69 1472.2 1297.69 1475.53 Q1297.69 1480.65 1294.17 1483.45 Q1290.65 1486.25 1284.17 1486.25 Q1281.99 1486.25 1279.68 1485.81 Q1277.39 1485.39 1274.93 1484.54 L1274.93 1480.02 Q1276.88 1481.16 1279.19 1481.74 Q1281.51 1482.32 1284.03 1482.32 Q1288.43 1482.32 1290.72 1480.58 Q1293.04 1478.84 1293.04 1475.53 Q1293.04 1472.48 1290.88 1470.77 Q1288.75 1469.03 1284.93 1469.03 L1280.91 1469.03 L1280.91 1465.19 L1285.12 1465.19 Q1288.57 1465.19 1290.4 1463.82 Q1292.23 1462.43 1292.23 1459.84 Q1292.23 1457.18 1290.33 1455.77 Q1288.45 1454.33 1284.93 1454.33 Q1283.01 1454.33 1280.81 1454.75 Q1278.61 1455.16 1275.98 1456.04 L1275.98 1451.88 Q1278.64 1451.14 1280.95 1450.77 Q1283.29 1450.39 1285.35 1450.39 Q1290.67 1450.39 1293.78 1452.83 Q1296.88 1455.23 1296.88 1459.35 Q1296.88 1462.22 1295.23 1464.21 Q1293.59 1466.18 1290.56 1466.95 Z" fill="#000000" fill-rule="nonzero" fill-opacity="1" /><path clip-path="url(#clip910)" d="M1644.8 1455.09 L1633 1473.54 L1644.8 1473.54 L1644.8 1455.09 M1643.58 1451.02 L1649.45 1451.02 L1649.45 1473.54 L1654.39 1473.54 L1654.39 1477.43 L1649.45 1477.43 L1649.45 1485.58 L1644.8 1485.58 L1644.8 1477.43 L1629.2 1477.43 L1629.2 1472.92 L1643.58 1451.02 Z" fill="#000000" fill-rule="nonzero" fill-opacity="1" /><path clip-path="url(#clip910)" d="M1987.55 1451.02 L2005.91 1451.02 L2005.91 1454.96 L1991.83 1454.96 L1991.83 1463.43 Q1992.85 1463.08 1993.87 1462.92 Q1994.89 1462.73 1995.91 1462.73 Q2001.7 1462.73 2005.08 1465.9 Q2008.45 1469.08 2008.45 1474.49 Q2008.45 1480.07 2004.98 1483.17 Q2001.51 1486.25 1995.19 1486.25 Q1993.02 1486.25 1990.75 1485.88 Q1988.5 1485.51 1986.09 1484.77 L1986.09 1480.07 Q1988.18 1481.2 1990.4 1481.76 Q1992.62 1482.32 1995.1 1482.32 Q1999.1 1482.32 2001.44 1480.21 Q2003.78 1478.1 2003.78 1474.49 Q2003.78 1470.88 2001.44 1468.77 Q1999.1 1466.67 1995.1 1466.67 Q1993.22 1466.67 1991.35 1467.08 Q1989.5 1467.5 1987.55 1468.38 L1987.55 1451.02 Z" fill="#000000" fill-rule="nonzero" fill-opacity="1" /><path clip-path="url(#clip910)" d="M2353.16 1466.44 Q2350.01 1466.44 2348.16 1468.59 Q2346.33 1470.74 2346.33 1474.49 Q2346.33 1478.22 2348.16 1480.39 Q2350.01 1482.55 2353.16 1482.55 Q2356.31 1482.55 2358.14 1480.39 Q2359.99 1478.22 2359.99 1474.49 Q2359.99 1470.74 2358.14 1468.59 Q2356.31 1466.44 2353.16 1466.44 M2362.44 1451.78 L2362.44 1456.04 Q2360.68 1455.21 2358.88 1454.77 Q2357.1 1454.33 2355.34 1454.33 Q2350.71 1454.33 2348.25 1457.45 Q2345.82 1460.58 2345.48 1466.9 Q2346.84 1464.89 2348.9 1463.82 Q2350.96 1462.73 2353.44 1462.73 Q2358.65 1462.73 2361.66 1465.9 Q2364.69 1469.05 2364.69 1474.49 Q2364.69 1479.82 2361.54 1483.03 Q2358.39 1486.25 2353.16 1486.25 Q2347.17 1486.25 2343.99 1481.67 Q2340.82 1477.06 2340.82 1468.33 Q2340.82 1460.14 2344.71 1455.28 Q2348.6 1450.39 2355.15 1450.39 Q2356.91 1450.39 2358.69 1450.74 Q2360.5 1451.09 2362.44 1451.78 Z" fill="#000000" fill-rule="nonzero" fill-opacity="1" /><path clip-path="url(#clip910)" d="M1255.58 1522.27 L1255.58 1532.4 L1267.64 1532.4 L1267.64 1536.95 L1255.58 1536.95 L1255.58 1556.3 Q1255.58 1560.66 1256.76 1561.9 Q1257.97 1563.14 1261.63 1563.14 L1267.64 1563.14 L1267.64 1568.04 L1261.63 1568.04 Q1254.85 1568.04 1252.27 1565.53 Q1249.69 1562.98 1249.69 1556.3 L1249.69 1536.95 L1245.4 1536.95 L1245.4 1532.4 L1249.69 1532.4 L1249.69 1522.27 L1255.58 1522.27 Z" fill="#000000" fill-rule="nonzero" fill-opacity="1" /><path clip-path="url(#clip910)" d="M1285.75 1520.52 L1291.16 1520.52 L1274.61 1574.09 L1269.2 1574.09 L1285.75 1520.52 Z" fill="#000000" fill-rule="nonzero" fill-opacity="1" /><path clip-path="url(#clip910)" d="M1314.78 1561.55 Q1315.93 1563.08 1319.37 1563.08 L1322.2 1563.08 L1322.2 1568.04 L1318.66 1568.04 Q1312.94 1568.04 1310.33 1564.99 Q1307.72 1561.87 1307.72 1555.12 L1307.72 1538.25 L1294.35 1538.25 L1294.35 1532.4 L1327.23 1532.4 L1327.23 1538.25 L1313.7 1538.25 L1313.7 1555.47 Q1313.7 1560.09 1314.78 1561.55 Z" fill="#000000" fill-rule="nonzero" fill-opacity="1" /><polyline clip-path="url(#clip910)" style="stroke:#000000; stroke-linecap:round; stroke-linejoin:round; stroke-width:4; stroke-opacity:1; fill:none" points="219.866,1423.18 219.866,123.472 "/>
<polyline clip-path="url(#clip910)" style="stroke:#000000; stroke-linecap:round; stroke-linejoin:round; stroke-width:4; stroke-opacity:1; fill:none" points="219.866,1423.18 238.764,1423.18 "/>
<polyline clip-path="url(#clip910)" style="stroke:#000000; stroke-linecap:round; stroke-linejoin:round; stroke-width:4; stroke-opacity:1; fill:none" points="219.866,1163.24 238.764,1163.24 "/>
<polyline clip-path="url(#clip910)" style="stroke:#000000; stroke-linecap:round; stroke-linejoin:round; stroke-width:4; stroke-opacity:1; fill:none" points="219.866,903.297 238.764,903.297 "/>
<polyline clip-path="url(#clip910)" style="stroke:#000000; stroke-linecap:round; stroke-linejoin:round; stroke-width:4; stroke-opacity:1; fill:none" points="219.866,643.355 238.764,643.355 "/>
<polyline clip-path="url(#clip910)" style="stroke:#000000; stroke-linecap:round; stroke-linejoin:round; stroke-width:4; stroke-opacity:1; fill:none" points="219.866,383.414 238.764,383.414 "/>
<polyline clip-path="url(#clip910)" style="stroke:#000000; stroke-linecap:round; stroke-linejoin:round; stroke-width:4; stroke-opacity:1; fill:none" points="219.866,123.472 238.764,123.472 "/>
<path clip-path="url(#clip910)" d="M126.691 1408.98 Q123.08 1408.98 121.251 1412.54 Q119.445 1416.08 119.445 1423.21 Q119.445 1430.32 121.251 1433.89 Q123.08 1437.43 126.691 1437.43 Q130.325 1437.43 132.13 1433.89 Q133.959 1430.32 133.959 1423.21 Q133.959 1416.08 132.13 1412.54 Q130.325 1408.98 126.691 1408.98 M126.691 1405.27 Q132.501 1405.27 135.556 1409.88 Q138.635 1414.46 138.635 1423.21 Q138.635 1431.94 135.556 1436.55 Q132.501 1441.13 126.691 1441.13 Q120.88 1441.13 117.802 1436.55 Q114.746 1431.94 114.746 1423.21 Q114.746 1414.46 117.802 1409.88 Q120.88 1405.27 126.691 1405.27 Z" fill="#000000" fill-rule="nonzero" fill-opacity="1" /><path clip-path="url(#clip910)" d="M146.853 1434.58 L151.737 1434.58 L151.737 1440.46 L146.853 1440.46 L146.853 1434.58 Z" fill="#000000" fill-rule="nonzero" fill-opacity="1" /><path clip-path="url(#clip910)" d="M171.922 1408.98 Q168.311 1408.98 166.482 1412.54 Q164.677 1416.08 164.677 1423.21 Q164.677 1430.32 166.482 1433.89 Q168.311 1437.43 171.922 1437.43 Q175.556 1437.43 177.362 1433.89 Q179.19 1430.32 179.19 1423.21 Q179.19 1416.08 177.362 1412.54 Q175.556 1408.98 171.922 1408.98 M171.922 1405.27 Q177.732 1405.27 180.788 1409.88 Q183.866 1414.46 183.866 1423.21 Q183.866 1431.94 180.788 1436.55 Q177.732 1441.13 171.922 1441.13 Q166.112 1441.13 163.033 1436.55 Q159.978 1431.94 159.978 1423.21 Q159.978 1414.46 163.033 1409.88 Q166.112 1405.27 171.922 1405.27 Z" fill="#000000" fill-rule="nonzero" fill-opacity="1" /><path clip-path="url(#clip910)" d="M128.288 1149.04 Q124.677 1149.04 122.848 1152.6 Q121.043 1156.14 121.043 1163.27 Q121.043 1170.38 122.848 1173.94 Q124.677 1177.49 128.288 1177.49 Q131.922 1177.49 133.728 1173.94 Q135.556 1170.38 135.556 1163.27 Q135.556 1156.14 133.728 1152.6 Q131.922 1149.04 128.288 1149.04 M128.288 1145.33 Q134.098 1145.33 137.154 1149.94 Q140.232 1154.52 140.232 1163.27 Q140.232 1172 137.154 1176.61 Q134.098 1181.19 128.288 1181.19 Q122.478 1181.19 119.399 1176.61 Q116.343 1172 116.343 1163.27 Q116.343 1154.52 119.399 1149.94 Q122.478 1145.33 128.288 1145.33 Z" fill="#000000" fill-rule="nonzero" fill-opacity="1" /><path clip-path="url(#clip910)" d="M148.45 1174.64 L153.334 1174.64 L153.334 1180.52 L148.45 1180.52 L148.45 1174.64 Z" fill="#000000" fill-rule="nonzero" fill-opacity="1" /><path clip-path="url(#clip910)" d="M167.547 1176.58 L183.866 1176.58 L183.866 1180.52 L161.922 1180.52 L161.922 1176.58 Q164.584 1173.83 169.167 1169.2 Q173.774 1164.55 174.954 1163.2 Q177.2 1160.68 178.079 1158.94 Q178.982 1157.19 178.982 1155.5 Q178.982 1152.74 177.038 1151 Q175.116 1149.27 172.014 1149.27 Q169.815 1149.27 167.362 1150.03 Q164.931 1150.8 162.153 1152.35 L162.153 1147.62 Q164.977 1146.49 167.431 1145.91 Q169.885 1145.33 171.922 1145.33 Q177.292 1145.33 180.487 1148.02 Q183.681 1150.7 183.681 1155.19 Q183.681 1157.32 182.871 1159.25 Q182.084 1161.14 179.977 1163.74 Q179.399 1164.41 176.297 1167.62 Q173.195 1170.82 167.547 1176.58 Z" fill="#000000" fill-rule="nonzero" fill-opacity="1" /><path clip-path="url(#clip910)" d="M126.205 889.095 Q122.593 889.095 120.765 892.66 Q118.959 896.202 118.959 903.331 Q118.959 910.438 120.765 914.003 Q122.593 917.544 126.205 917.544 Q129.839 917.544 131.644 914.003 Q133.473 910.438 133.473 903.331 Q133.473 896.202 131.644 892.66 Q129.839 889.095 126.205 889.095 M126.205 885.392 Q132.015 885.392 135.07 889.998 Q138.149 894.582 138.149 903.331 Q138.149 912.058 135.07 916.665 Q132.015 921.248 126.205 921.248 Q120.394 921.248 117.316 916.665 Q114.26 912.058 114.26 903.331 Q114.26 894.582 117.316 889.998 Q120.394 885.392 126.205 885.392 Z" fill="#000000" fill-rule="nonzero" fill-opacity="1" /><path clip-path="url(#clip910)" d="M146.366 914.697 L151.251 914.697 L151.251 920.577 L146.366 920.577 L146.366 914.697 Z" fill="#000000" fill-rule="nonzero" fill-opacity="1" /><path clip-path="url(#clip910)" d="M174.283 890.091 L162.477 908.54 L174.283 908.54 L174.283 890.091 M173.056 886.017 L178.936 886.017 L178.936 908.54 L183.866 908.54 L183.866 912.429 L178.936 912.429 L178.936 920.577 L174.283 920.577 L174.283 912.429 L158.681 912.429 L158.681 907.915 L173.056 886.017 Z" fill="#000000" fill-rule="nonzero" fill-opacity="1" /><path clip-path="url(#clip910)" d="M126.529 629.154 Q122.918 629.154 121.089 632.719 Q119.283 636.26 119.283 643.39 Q119.283 650.496 121.089 654.061 Q122.918 657.603 126.529 657.603 Q130.163 657.603 131.968 654.061 Q133.797 650.496 133.797 643.39 Q133.797 636.26 131.968 632.719 Q130.163 629.154 126.529 629.154 M126.529 625.45 Q132.339 625.45 135.394 630.057 Q138.473 634.64 138.473 643.39 Q138.473 652.117 135.394 656.723 Q132.339 661.307 126.529 661.307 Q120.718 661.307 117.64 656.723 Q114.584 652.117 114.584 643.39 Q114.584 634.64 117.64 630.057 Q120.718 625.45 126.529 625.45 Z" fill="#000000" fill-rule="nonzero" fill-opacity="1" /><path clip-path="url(#clip910)" d="M146.691 654.756 L151.575 654.756 L151.575 660.635 L146.691 660.635 L146.691 654.756 Z" fill="#000000" fill-rule="nonzero" fill-opacity="1" /><path clip-path="url(#clip910)" d="M172.339 641.492 Q169.19 641.492 167.339 643.645 Q165.51 645.797 165.51 649.547 Q165.51 653.274 167.339 655.45 Q169.19 657.603 172.339 657.603 Q175.487 657.603 177.315 655.45 Q179.167 653.274 179.167 649.547 Q179.167 645.797 177.315 643.645 Q175.487 641.492 172.339 641.492 M181.621 626.839 L181.621 631.098 Q179.862 630.265 178.056 629.825 Q176.274 629.385 174.514 629.385 Q169.885 629.385 167.431 632.51 Q165.001 635.635 164.653 641.955 Q166.019 639.941 168.079 638.876 Q170.139 637.788 172.616 637.788 Q177.825 637.788 180.834 640.959 Q183.866 644.108 183.866 649.547 Q183.866 654.871 180.718 658.089 Q177.57 661.307 172.339 661.307 Q166.343 661.307 163.172 656.723 Q160.001 652.117 160.001 643.39 Q160.001 635.196 163.89 630.334 Q167.778 625.45 174.329 625.45 Q176.089 625.45 177.871 625.797 Q179.676 626.145 181.621 626.839 Z" fill="#000000" fill-rule="nonzero" fill-opacity="1" /><path clip-path="url(#clip910)" d="M126.783 369.212 Q123.172 369.212 121.343 372.777 Q119.538 376.319 119.538 383.448 Q119.538 390.555 121.343 394.12 Q123.172 397.661 126.783 397.661 Q130.417 397.661 132.223 394.12 Q134.052 390.555 134.052 383.448 Q134.052 376.319 132.223 372.777 Q130.417 369.212 126.783 369.212 M126.783 365.509 Q132.593 365.509 135.649 370.115 Q138.728 374.698 138.728 383.448 Q138.728 392.175 135.649 396.782 Q132.593 401.365 126.783 401.365 Q120.973 401.365 117.894 396.782 Q114.839 392.175 114.839 383.448 Q114.839 374.698 117.894 370.115 Q120.973 365.509 126.783 365.509 Z" fill="#000000" fill-rule="nonzero" fill-opacity="1" /><path clip-path="url(#clip910)" d="M146.945 394.814 L151.829 394.814 L151.829 400.694 L146.945 400.694 L146.945 394.814 Z" fill="#000000" fill-rule="nonzero" fill-opacity="1" /><path clip-path="url(#clip910)" d="M172.014 384.282 Q168.681 384.282 166.76 386.064 Q164.862 387.847 164.862 390.971 Q164.862 394.096 166.76 395.879 Q168.681 397.661 172.014 397.661 Q175.348 397.661 177.269 395.879 Q179.19 394.073 179.19 390.971 Q179.19 387.847 177.269 386.064 Q175.371 384.282 172.014 384.282 M167.339 382.291 Q164.329 381.55 162.64 379.49 Q160.973 377.43 160.973 374.467 Q160.973 370.323 163.913 367.916 Q166.876 365.509 172.014 365.509 Q177.176 365.509 180.116 367.916 Q183.056 370.323 183.056 374.467 Q183.056 377.43 181.366 379.49 Q179.7 381.55 176.714 382.291 Q180.093 383.078 181.968 385.37 Q183.866 387.661 183.866 390.971 Q183.866 395.995 180.788 398.68 Q177.732 401.365 172.014 401.365 Q166.297 401.365 163.218 398.68 Q160.163 395.995 160.163 390.971 Q160.163 387.661 162.061 385.37 Q163.959 383.078 167.339 382.291 M165.626 374.907 Q165.626 377.592 167.292 379.097 Q168.982 380.601 172.014 380.601 Q175.024 380.601 176.714 379.097 Q178.426 377.592 178.426 374.907 Q178.426 372.222 176.714 370.717 Q175.024 369.212 172.014 369.212 Q168.982 369.212 167.292 370.717 Q165.626 372.222 165.626 374.907 Z" fill="#000000" fill-rule="nonzero" fill-opacity="1" /><path clip-path="url(#clip910)" d="M117.501 136.817 L125.14 136.817 L125.14 110.451 L116.83 112.118 L116.83 107.859 L125.093 106.192 L129.769 106.192 L129.769 136.817 L137.408 136.817 L137.408 140.752 L117.501 140.752 L117.501 136.817 Z" fill="#000000" fill-rule="nonzero" fill-opacity="1" /><path clip-path="url(#clip910)" d="M146.853 134.873 L151.737 134.873 L151.737 140.752 L146.853 140.752 L146.853 134.873 Z" fill="#000000" fill-rule="nonzero" fill-opacity="1" /><path clip-path="url(#clip910)" d="M171.922 109.271 Q168.311 109.271 166.482 112.836 Q164.677 116.377 164.677 123.507 Q164.677 130.613 166.482 134.178 Q168.311 137.72 171.922 137.72 Q175.556 137.72 177.362 134.178 Q179.19 130.613 179.19 123.507 Q179.19 116.377 177.362 112.836 Q175.556 109.271 171.922 109.271 M171.922 105.567 Q177.732 105.567 180.788 110.174 Q183.866 114.757 183.866 123.507 Q183.866 132.234 180.788 136.84 Q177.732 141.423 171.922 141.423 Q166.112 141.423 163.033 136.84 Q159.978 132.234 159.978 123.507 Q159.978 114.757 163.033 110.174 Q166.112 105.567 171.922 105.567 Z" fill="#000000" fill-rule="nonzero" fill-opacity="1" /><path clip-path="url(#clip910)" d="M21.7677 825.923 L39.6235 825.923 L39.6235 817.838 Q39.6235 813.35 37.3 810.9 Q34.9765 808.449 30.6797 808.449 Q26.4147 808.449 24.0912 810.9 Q21.7677 813.35 21.7677 817.838 L21.7677 825.923 M16.4842 832.352 L16.4842 817.838 Q16.4842 809.849 20.1126 805.775 Q23.7092 801.669 30.6797 801.669 Q37.7138 801.669 41.3104 805.775 Q44.907 809.849 44.907 817.838 L44.907 825.923 L64.0042 825.923 L64.0042 832.352 L16.4842 832.352 Z" fill="#000000" fill-rule="nonzero" fill-opacity="1" /><path clip-path="url(#clip910)" d="M16.4842 782.89 L16.4842 777.48 L70.0516 794.03 L70.0516 799.441 L16.4842 782.89 Z" fill="#000000" fill-rule="nonzero" fill-opacity="1" /><path clip-path="url(#clip910)" d="M21.7677 764.653 L39.6235 764.653 L39.6235 756.568 Q39.6235 752.08 37.3 749.63 Q34.9765 747.179 30.6797 747.179 Q26.4147 747.179 24.0912 749.63 Q21.7677 752.08 21.7677 756.568 L21.7677 764.653 M16.4842 771.082 L16.4842 756.568 Q16.4842 748.579 20.1126 744.505 Q23.7092 740.399 30.6797 740.399 Q37.7138 740.399 41.3104 744.505 Q44.907 748.579 44.907 756.568 L44.907 764.653 L64.0042 764.653 L64.0042 771.082 L16.4842 771.082 Z" fill="#000000" fill-rule="nonzero" fill-opacity="1" /><path clip-path="url(#clip910)" d="M42.4562 720.029 Q39.719 721.621 39.719 724.835 Q39.719 728.05 42.4562 729.641 Q45.1935 731.265 50.668 731.265 Q56.1743 731.265 58.9116 729.641 Q61.6488 728.05 61.6488 724.835 Q61.6488 721.621 58.9116 720.029 Q56.1743 718.406 50.668 718.406 Q45.1935 718.406 42.4562 720.029 M36.8862 724.835 Q36.8862 719.711 40.4192 717.005 Q43.9522 714.3 50.668 714.3 Q57.4157 714.3 60.9486 717.005 Q64.4816 719.711 64.4816 724.835 Q64.4816 729.991 60.9486 732.697 Q57.4157 735.402 50.668 735.402 Q43.9522 735.402 40.4192 732.697 Q36.8862 729.991 36.8862 724.835 Z" fill="#000000" fill-rule="nonzero" fill-opacity="1" /><path clip-path="url(#clip910)" d="M574.81 20.1573 L563.711 50.2555 L585.95 50.2555 L574.81 20.1573 M570.192 12.096 L579.469 12.096 L602.518 72.576 L594.012 72.576 L588.502 57.061 L561.24 57.061 L555.731 72.576 L547.102 72.576 L570.192 12.096 Z" fill="#000000" fill-rule="nonzero" fill-opacity="1" /><path clip-path="url(#clip910)" d="M639.422 34.0924 L639.422 9.54393 L646.876 9.54393 L646.876 72.576 L639.422 72.576 L639.422 65.7705 Q637.073 69.8214 633.467 71.8063 Q629.903 73.7508 624.879 73.7508 Q616.656 73.7508 611.471 67.1883 Q606.326 60.6258 606.326 49.9314 Q606.326 39.2371 611.471 32.6746 Q616.656 26.1121 624.879 26.1121 Q629.903 26.1121 633.467 28.0971 Q637.073 30.0415 639.422 34.0924 M614.023 49.9314 Q614.023 58.1548 617.385 62.8538 Q620.788 67.5124 626.702 67.5124 Q632.617 67.5124 636.019 62.8538 Q639.422 58.1548 639.422 49.9314 Q639.422 41.7081 636.019 37.0496 Q632.617 32.3505 626.702 32.3505 Q620.788 32.3505 617.385 37.0496 Q614.023 41.7081 614.023 49.9314 Z" fill="#000000" fill-rule="nonzero" fill-opacity="1" /><path clip-path="url(#clip910)" d="M662.229 27.2059 L669.682 27.2059 L669.682 72.576 L662.229 72.576 L662.229 27.2059 M662.229 9.54393 L669.682 9.54393 L669.682 18.9825 L662.229 18.9825 L662.229 9.54393 Z" fill="#000000" fill-rule="nonzero" fill-opacity="1" /><path clip-path="url(#clip910)" d="M705.898 49.7694 Q696.864 49.7694 693.38 51.8354 Q689.896 53.9013 689.896 58.8839 Q689.896 62.8538 692.489 65.2034 Q695.122 67.5124 699.619 67.5124 Q705.817 67.5124 709.543 63.1374 Q713.311 58.7219 713.311 51.4303 L713.311 49.7694 L705.898 49.7694 M720.764 46.6907 L720.764 72.576 L713.311 72.576 L713.311 65.6895 Q710.759 69.8214 706.951 71.8063 Q703.143 73.7508 697.634 73.7508 Q690.666 73.7508 686.534 69.8619 Q682.443 65.9325 682.443 59.3701 Q682.443 51.7138 687.547 47.825 Q692.692 43.9361 702.859 43.9361 L713.311 43.9361 L713.311 43.2069 Q713.311 38.0623 709.908 35.2672 Q706.546 32.4315 700.429 32.4315 Q696.54 32.4315 692.854 33.3632 Q689.167 34.295 685.765 36.1584 L685.765 29.2718 Q689.856 27.692 693.704 26.9223 Q697.553 26.1121 701.198 26.1121 Q711.042 26.1121 715.903 31.2163 Q720.764 36.3204 720.764 46.6907 Z" fill="#000000" fill-rule="nonzero" fill-opacity="1" /><path clip-path="url(#clip910)" d="M768.687 49.9314 Q768.687 41.7081 765.284 37.0496 Q761.922 32.3505 756.007 32.3505 Q750.093 32.3505 746.69 37.0496 Q743.328 41.7081 743.328 49.9314 Q743.328 58.1548 746.69 62.8538 Q750.093 67.5124 756.007 67.5124 Q761.922 67.5124 765.284 62.8538 Q768.687 58.1548 768.687 49.9314 M743.328 34.0924 Q745.677 30.0415 749.242 28.0971 Q752.848 26.1121 757.83 26.1121 Q766.094 26.1121 771.239 32.6746 Q776.424 39.2371 776.424 49.9314 Q776.424 60.6258 771.239 67.1883 Q766.094 73.7508 757.83 73.7508 Q752.848 73.7508 749.242 71.8063 Q745.677 69.8214 743.328 65.7705 L743.328 72.576 L735.834 72.576 L735.834 9.54393 L743.328 9.54393 L743.328 34.0924 Z" fill="#000000" fill-rule="nonzero" fill-opacity="1" /><path clip-path="url(#clip910)" d="M809.398 49.7694 Q800.365 49.7694 796.881 51.8354 Q793.397 53.9013 793.397 58.8839 Q793.397 62.8538 795.99 65.2034 Q798.623 67.5124 803.119 67.5124 Q809.317 67.5124 813.044 63.1374 Q816.811 58.7219 816.811 51.4303 L816.811 49.7694 L809.398 49.7694 M824.265 46.6907 L824.265 72.576 L816.811 72.576 L816.811 65.6895 Q814.259 69.8214 810.451 71.8063 Q806.644 73.7508 801.134 73.7508 Q794.167 73.7508 790.035 69.8619 Q785.943 65.9325 785.943 59.3701 Q785.943 51.7138 791.048 47.825 Q796.192 43.9361 806.36 43.9361 L816.811 43.9361 L816.811 43.2069 Q816.811 38.0623 813.409 35.2672 Q810.046 32.4315 803.929 32.4315 Q800.041 32.4315 796.354 33.3632 Q792.668 34.295 789.265 36.1584 L789.265 29.2718 Q793.357 27.692 797.205 26.9223 Q801.053 26.1121 804.699 26.1121 Q814.543 26.1121 819.404 31.2163 Q824.265 36.3204 824.265 46.6907 Z" fill="#000000" fill-rule="nonzero" fill-opacity="1" /><path clip-path="url(#clip910)" d="M846.991 14.324 L846.991 27.2059 L862.343 27.2059 L862.343 32.9987 L846.991 32.9987 L846.991 57.6282 Q846.991 63.1779 848.489 64.7578 Q850.029 66.3376 854.687 66.3376 L862.343 66.3376 L862.343 72.576 L854.687 72.576 Q846.059 72.576 842.778 69.3758 Q839.496 66.1351 839.496 57.6282 L839.496 32.9987 L834.028 32.9987 L834.028 27.2059 L839.496 27.2059 L839.496 14.324 L846.991 14.324 Z" fill="#000000" fill-rule="nonzero" fill-opacity="1" /><path clip-path="url(#clip910)" d="M872.147 27.2059 L879.6 27.2059 L879.6 72.576 L872.147 72.576 L872.147 27.2059 M872.147 9.54393 L879.6 9.54393 L879.6 18.9825 L872.147 18.9825 L872.147 9.54393 Z" fill="#000000" fill-rule="nonzero" fill-opacity="1" /><path clip-path="url(#clip910)" d="M927.847 28.9478 L927.847 35.9153 Q924.687 34.1734 921.487 33.3227 Q918.327 32.4315 915.086 32.4315 Q907.835 32.4315 903.825 37.0496 Q899.814 41.6271 899.814 49.9314 Q899.814 58.2358 903.825 62.8538 Q907.835 67.4314 915.086 67.4314 Q918.327 67.4314 921.487 66.5807 Q924.687 65.6895 927.847 63.9476 L927.847 70.8341 Q924.727 72.2924 921.365 73.0216 Q918.043 73.7508 914.276 73.7508 Q904.027 73.7508 897.991 67.3098 Q891.956 60.8689 891.956 49.9314 Q891.956 38.832 898.032 32.472 Q904.149 26.1121 914.762 26.1121 Q918.205 26.1121 921.487 26.8413 Q924.768 27.5299 927.847 28.9478 Z" fill="#000000" fill-rule="nonzero" fill-opacity="1" /><path clip-path="url(#clip910)" d="M987.8 49.7694 Q978.766 49.7694 975.283 51.8354 Q971.799 53.9013 971.799 58.8839 Q971.799 62.8538 974.391 65.2034 Q977.025 67.5124 981.521 67.5124 Q987.719 67.5124 991.446 63.1374 Q995.213 58.7219 995.213 51.4303 L995.213 49.7694 L987.8 49.7694 M1002.67 46.6907 L1002.67 72.576 L995.213 72.576 L995.213 65.6895 Q992.661 69.8214 988.853 71.8063 Q985.045 73.7508 979.536 73.7508 Q972.569 73.7508 968.437 69.8619 Q964.345 65.9325 964.345 59.3701 Q964.345 51.7138 969.449 47.825 Q974.594 43.9361 984.762 43.9361 L995.213 43.9361 L995.213 43.2069 Q995.213 38.0623 991.81 35.2672 Q988.448 32.4315 982.331 32.4315 Q978.442 32.4315 974.756 33.3632 Q971.07 34.295 967.667 36.1584 L967.667 29.2718 Q971.758 27.692 975.607 26.9223 Q979.455 26.1121 983.101 26.1121 Q992.945 26.1121 997.806 31.2163 Q1002.67 36.3204 1002.67 46.6907 Z" fill="#000000" fill-rule="nonzero" fill-opacity="1" /><path clip-path="url(#clip910)" d="M1055.73 45.1919 L1055.73 72.576 L1048.28 72.576 L1048.28 45.4349 Q1048.28 38.994 1045.77 35.7938 Q1043.26 32.5936 1038.23 32.5936 Q1032.2 32.5936 1028.71 36.4419 Q1025.23 40.2903 1025.23 46.9338 L1025.23 72.576 L1017.74 72.576 L1017.74 27.2059 L1025.23 27.2059 L1025.23 34.2544 Q1027.9 30.163 1031.51 28.1376 Q1035.16 26.1121 1039.89 26.1121 Q1047.71 26.1121 1051.72 30.9732 Q1055.73 35.7938 1055.73 45.1919 Z" fill="#000000" fill-rule="nonzero" fill-opacity="1" /><path clip-path="url(#clip910)" d="M1100.46 34.0924 L1100.46 9.54393 L1107.91 9.54393 L1107.91 72.576 L1100.46 72.576 L1100.46 65.7705 Q1098.11 69.8214 1094.5 71.8063 Q1090.94 73.7508 1085.91 73.7508 Q1077.69 73.7508 1072.5 67.1883 Q1067.36 60.6258 1067.36 49.9314 Q1067.36 39.2371 1072.5 32.6746 Q1077.69 26.1121 1085.91 26.1121 Q1090.94 26.1121 1094.5 28.0971 Q1098.11 30.0415 1100.46 34.0924 M1075.06 49.9314 Q1075.06 58.1548 1078.42 62.8538 Q1081.82 67.5124 1087.74 67.5124 Q1093.65 67.5124 1097.05 62.8538 Q1100.46 58.1548 1100.46 49.9314 Q1100.46 41.7081 1097.05 37.0496 Q1093.65 32.3505 1087.74 32.3505 Q1081.82 32.3505 1078.42 37.0496 Q1075.06 41.7081 1075.06 49.9314 Z" fill="#000000" fill-rule="nonzero" fill-opacity="1" /><path clip-path="url(#clip910)" d="M1149.96 12.096 L1158.14 12.096 L1158.14 72.576 L1149.96 72.576 L1149.96 12.096 Z" fill="#000000" fill-rule="nonzero" fill-opacity="1" /><path clip-path="url(#clip910)" d="M1203.02 28.5427 L1203.02 35.5912 Q1199.86 33.9709 1196.46 33.1607 Q1193.06 32.3505 1189.41 32.3505 Q1183.86 32.3505 1181.07 34.0519 Q1178.31 35.7533 1178.31 39.156 Q1178.31 41.7486 1180.3 43.2475 Q1182.28 44.7058 1188.28 46.0426 L1190.83 46.6097 Q1198.77 48.3111 1202.09 51.4303 Q1205.46 54.509 1205.46 60.0587 Q1205.46 66.3781 1200.43 70.0644 Q1195.45 73.7508 1186.7 73.7508 Q1183.05 73.7508 1179.08 73.0216 Q1175.15 72.3329 1170.78 70.9151 L1170.78 63.2184 Q1174.91 65.3654 1178.92 66.4591 Q1182.93 67.5124 1186.86 67.5124 Q1192.13 67.5124 1194.96 65.73 Q1197.8 63.9071 1197.8 60.6258 Q1197.8 57.5877 1195.73 55.9673 Q1193.71 54.3469 1186.78 52.8481 L1184.19 52.2405 Q1177.26 50.7821 1174.18 47.7845 Q1171.1 44.7463 1171.1 39.4801 Q1171.1 33.0797 1175.64 29.5959 Q1180.18 26.1121 1188.52 26.1121 Q1192.65 26.1121 1196.3 26.7198 Q1199.95 27.3274 1203.02 28.5427 Z" fill="#000000" fill-rule="nonzero" fill-opacity="1" /><path clip-path="url(#clip910)" d="M1234.91 32.4315 Q1228.91 32.4315 1225.43 37.1306 Q1221.94 41.7891 1221.94 49.9314 Q1221.94 58.0738 1225.39 62.7728 Q1228.87 67.4314 1234.91 67.4314 Q1240.86 67.4314 1244.34 62.7323 Q1247.83 58.0333 1247.83 49.9314 Q1247.83 41.8701 1244.34 37.1711 Q1240.86 32.4315 1234.91 32.4315 M1234.91 26.1121 Q1244.63 26.1121 1250.18 32.4315 Q1255.73 38.7509 1255.73 49.9314 Q1255.73 61.0714 1250.18 67.4314 Q1244.63 73.7508 1234.91 73.7508 Q1225.14 73.7508 1219.59 67.4314 Q1214.08 61.0714 1214.08 49.9314 Q1214.08 38.7509 1219.59 32.4315 Q1225.14 26.1121 1234.91 26.1121 Z" fill="#000000" fill-rule="nonzero" fill-opacity="1" /><path clip-path="url(#clip910)" d="M1275.45 14.324 L1275.45 27.2059 L1290.81 27.2059 L1290.81 32.9987 L1275.45 32.9987 L1275.45 57.6282 Q1275.45 63.1779 1276.95 64.7578 Q1278.49 66.3376 1283.15 66.3376 L1290.81 66.3376 L1290.81 72.576 L1283.15 72.576 Q1274.52 72.576 1271.24 69.3758 Q1267.96 66.1351 1267.96 57.6282 L1267.96 32.9987 L1262.49 32.9987 L1262.49 27.2059 L1267.96 27.2059 L1267.96 14.324 L1275.45 14.324 Z" fill="#000000" fill-rule="nonzero" fill-opacity="1" /><path clip-path="url(#clip910)" d="M1338.32 45.1919 L1338.32 72.576 L1330.87 72.576 L1330.87 45.4349 Q1330.87 38.994 1328.36 35.7938 Q1325.85 32.5936 1320.82 32.5936 Q1314.79 32.5936 1311.31 36.4419 Q1307.82 40.2903 1307.82 46.9338 L1307.82 72.576 L1300.33 72.576 L1300.33 9.54393 L1307.82 9.54393 L1307.82 34.2544 Q1310.49 30.163 1314.1 28.1376 Q1317.75 26.1121 1322.49 26.1121 Q1330.3 26.1121 1334.31 30.9732 Q1338.32 35.7938 1338.32 45.1919 Z" fill="#000000" fill-rule="nonzero" fill-opacity="1" /><path clip-path="url(#clip910)" d="M1392 48.0275 L1392 51.6733 L1357.73 51.6733 Q1358.21 59.3701 1362.35 63.421 Q1366.52 67.4314 1373.93 67.4314 Q1378.23 67.4314 1382.24 66.3781 Q1386.29 65.3249 1390.26 63.2184 L1390.26 70.267 Q1386.25 71.9684 1382.03 72.8596 Q1377.82 73.7508 1373.49 73.7508 Q1362.63 73.7508 1356.27 67.4314 Q1349.95 61.1119 1349.95 50.3365 Q1349.95 39.1965 1355.95 32.6746 Q1361.98 26.1121 1372.19 26.1121 Q1381.35 26.1121 1386.65 32.0264 Q1392 37.9003 1392 48.0275 M1384.55 45.84 Q1384.46 39.7232 1381.1 36.0774 Q1377.78 32.4315 1372.27 32.4315 Q1366.03 32.4315 1362.27 35.9558 Q1358.54 39.4801 1357.97 45.8805 L1384.55 45.84 Z" fill="#000000" fill-rule="nonzero" fill-opacity="1" /><path clip-path="url(#clip910)" d="M1430.52 34.1734 Q1429.27 33.4443 1427.77 33.1202 Q1426.31 32.7556 1424.53 32.7556 Q1418.21 32.7556 1414.81 36.8875 Q1411.44 40.9789 1411.44 48.6757 L1411.44 72.576 L1403.95 72.576 L1403.95 27.2059 L1411.44 27.2059 L1411.44 34.2544 Q1413.79 30.1225 1417.56 28.1376 Q1421.33 26.1121 1426.72 26.1121 Q1427.49 26.1121 1428.42 26.2337 Q1429.35 26.3147 1430.48 26.5172 L1430.52 34.1734 Z" fill="#000000" fill-rule="nonzero" fill-opacity="1" /><path clip-path="url(#clip910)" d="M1472.21 35.9153 Q1475 30.8922 1478.89 28.5022 Q1482.78 26.1121 1488.05 26.1121 Q1495.14 26.1121 1498.98 31.0947 Q1502.83 36.0368 1502.83 45.1919 L1502.83 72.576 L1495.34 72.576 L1495.34 45.4349 Q1495.34 38.913 1493.03 35.7533 Q1490.72 32.5936 1485.98 32.5936 Q1480.19 32.5936 1476.83 36.4419 Q1473.46 40.2903 1473.46 46.9338 L1473.46 72.576 L1465.97 72.576 L1465.97 45.4349 Q1465.97 38.8725 1463.66 35.7533 Q1461.35 32.5936 1456.53 32.5936 Q1450.82 32.5936 1447.46 36.4824 Q1444.09 40.3308 1444.09 46.9338 L1444.09 72.576 L1436.6 72.576 L1436.6 27.2059 L1444.09 27.2059 L1444.09 34.2544 Q1446.65 30.082 1450.21 28.0971 Q1453.78 26.1121 1458.68 26.1121 Q1463.62 26.1121 1467.06 28.6237 Q1470.55 31.1352 1472.21 35.9153 Z" fill="#000000" fill-rule="nonzero" fill-opacity="1" /><path clip-path="url(#clip910)" d="M1538.32 49.7694 Q1529.28 49.7694 1525.8 51.8354 Q1522.32 53.9013 1522.32 58.8839 Q1522.32 62.8538 1524.91 65.2034 Q1527.54 67.5124 1532.04 67.5124 Q1538.24 67.5124 1541.96 63.1374 Q1545.73 58.7219 1545.73 51.4303 L1545.73 49.7694 L1538.32 49.7694 M1553.18 46.6907 L1553.18 72.576 L1545.73 72.576 L1545.73 65.6895 Q1543.18 69.8214 1539.37 71.8063 Q1535.56 73.7508 1530.05 73.7508 Q1523.09 73.7508 1518.95 69.8619 Q1514.86 65.9325 1514.86 59.3701 Q1514.86 51.7138 1519.97 47.825 Q1525.11 43.9361 1535.28 43.9361 L1545.73 43.9361 L1545.73 43.2069 Q1545.73 38.0623 1542.33 35.2672 Q1538.97 32.4315 1532.85 32.4315 Q1528.96 32.4315 1525.27 33.3632 Q1521.59 34.295 1518.18 36.1584 L1518.18 29.2718 Q1522.28 27.692 1526.12 26.9223 Q1529.97 26.1121 1533.62 26.1121 Q1543.46 26.1121 1548.32 31.2163 Q1553.18 36.3204 1553.18 46.6907 Z" fill="#000000" fill-rule="nonzero" fill-opacity="1" /><path clip-path="url(#clip910)" d="M1568.54 9.54393 L1575.99 9.54393 L1575.99 72.576 L1568.54 72.576 L1568.54 9.54393 Z" fill="#000000" fill-rule="nonzero" fill-opacity="1" /><path clip-path="url(#clip910)" d="M1626.47 43.6931 L1626.47 65.8515 L1639.59 65.8515 Q1646.19 65.8515 1649.35 63.1374 Q1652.55 60.3828 1652.55 54.752 Q1652.55 49.0808 1649.35 46.4072 Q1646.19 43.6931 1639.59 43.6931 L1626.47 43.6931 M1626.47 18.8205 L1626.47 37.0496 L1638.58 37.0496 Q1644.57 37.0496 1647.49 34.8216 Q1650.45 32.5531 1650.45 27.935 Q1650.45 23.3575 1647.49 21.089 Q1644.57 18.8205 1638.58 18.8205 L1626.47 18.8205 M1618.28 12.096 L1639.19 12.096 Q1648.54 12.096 1653.61 15.9849 Q1658.67 19.8737 1658.67 27.0438 Q1658.67 32.5936 1656.08 35.8748 Q1653.49 39.156 1648.46 39.9662 Q1654.5 41.2625 1657.82 45.3944 Q1661.18 49.4858 1661.18 55.6432 Q1661.18 63.745 1655.67 68.1605 Q1650.16 72.576 1640 72.576 L1618.28 72.576 L1618.28 12.096 Z" fill="#000000" fill-rule="nonzero" fill-opacity="1" /><path clip-path="url(#clip910)" d="M1674.87 9.54393 L1682.33 9.54393 L1682.33 72.576 L1674.87 72.576 L1674.87 9.54393 Z" fill="#000000" fill-rule="nonzero" fill-opacity="1" /><path clip-path="url(#clip910)" d="M1715.5 32.4315 Q1709.51 32.4315 1706.03 37.1306 Q1702.54 41.7891 1702.54 49.9314 Q1702.54 58.0738 1705.98 62.7728 Q1709.47 67.4314 1715.5 67.4314 Q1721.46 67.4314 1724.94 62.7323 Q1728.43 58.0333 1728.43 49.9314 Q1728.43 41.8701 1724.94 37.1711 Q1721.46 32.4315 1715.5 32.4315 M1715.5 26.1121 Q1725.23 26.1121 1730.78 32.4315 Q1736.33 38.7509 1736.33 49.9314 Q1736.33 61.0714 1730.78 67.4314 Q1725.23 73.7508 1715.5 73.7508 Q1705.74 73.7508 1700.19 67.4314 Q1694.68 61.0714 1694.68 49.9314 Q1694.68 38.7509 1700.19 32.4315 Q1705.74 26.1121 1715.5 26.1121 Z" fill="#000000" fill-rule="nonzero" fill-opacity="1" /><path clip-path="url(#clip910)" d="M1744.35 27.2059 L1751.8 27.2059 L1761.12 62.6108 L1770.39 27.2059 L1779.18 27.2059 L1788.5 62.6108 L1797.78 27.2059 L1805.23 27.2059 L1793.36 72.576 L1784.57 72.576 L1774.81 35.3887 L1765.01 72.576 L1756.22 72.576 L1744.35 27.2059 Z" fill="#000000" fill-rule="nonzero" fill-opacity="1" /><path clip-path="url(#clip910)" d="M1846.39 34.0924 L1846.39 9.54393 L1853.84 9.54393 L1853.84 72.576 L1846.39 72.576 L1846.39 65.7705 Q1844.04 69.8214 1840.43 71.8063 Q1836.87 73.7508 1831.85 73.7508 Q1823.62 73.7508 1818.44 67.1883 Q1813.29 60.6258 1813.29 49.9314 Q1813.29 39.2371 1818.44 32.6746 Q1823.62 26.1121 1831.85 26.1121 Q1836.87 26.1121 1840.43 28.0971 Q1844.04 30.0415 1846.39 34.0924 M1820.99 49.9314 Q1820.99 58.1548 1824.35 62.8538 Q1827.75 67.5124 1833.67 67.5124 Q1839.58 67.5124 1842.99 62.8538 Q1846.39 58.1548 1846.39 49.9314 Q1846.39 41.7081 1842.99 37.0496 Q1839.58 32.3505 1833.67 32.3505 Q1827.75 32.3505 1824.35 37.0496 Q1820.99 41.7081 1820.99 49.9314 Z" fill="#000000" fill-rule="nonzero" fill-opacity="1" /><path clip-path="url(#clip910)" d="M1886.78 32.4315 Q1880.78 32.4315 1877.3 37.1306 Q1873.81 41.7891 1873.81 49.9314 Q1873.81 58.0738 1877.26 62.7728 Q1880.74 67.4314 1886.78 67.4314 Q1892.73 67.4314 1896.22 62.7323 Q1899.7 58.0333 1899.7 49.9314 Q1899.7 41.8701 1896.22 37.1711 Q1892.73 32.4315 1886.78 32.4315 M1886.78 26.1121 Q1896.5 26.1121 1902.05 32.4315 Q1907.6 38.7509 1907.6 49.9314 Q1907.6 61.0714 1902.05 67.4314 Q1896.5 73.7508 1886.78 73.7508 Q1877.01 73.7508 1871.46 67.4314 Q1865.95 61.0714 1865.95 49.9314 Q1865.95 38.7509 1871.46 32.4315 Q1877.01 26.1121 1886.78 26.1121 Z" fill="#000000" fill-rule="nonzero" fill-opacity="1" /><path clip-path="url(#clip910)" d="M1915.62 27.2059 L1923.07 27.2059 L1932.39 62.6108 L1941.67 27.2059 L1950.46 27.2059 L1959.77 62.6108 L1969.05 27.2059 L1976.5 27.2059 L1964.63 72.576 L1955.84 72.576 L1946.08 35.3887 L1936.28 72.576 L1927.49 72.576 L1915.62 27.2059 Z" fill="#000000" fill-rule="nonzero" fill-opacity="1" /><path clip-path="url(#clip910)" d="M2025.52 45.1919 L2025.52 72.576 L2018.07 72.576 L2018.07 45.4349 Q2018.07 38.994 2015.55 35.7938 Q2013.04 32.5936 2008.02 32.5936 Q2001.98 32.5936 1998.5 36.4419 Q1995.02 40.2903 1995.02 46.9338 L1995.02 72.576 L1987.52 72.576 L1987.52 27.2059 L1995.02 27.2059 L1995.02 34.2544 Q1997.69 30.163 2001.3 28.1376 Q2004.94 26.1121 2009.68 26.1121 Q2017.5 26.1121 2021.51 30.9732 Q2025.52 35.7938 2025.52 45.1919 Z" fill="#000000" fill-rule="nonzero" fill-opacity="1" /><polyline clip-path="url(#clip912)" style="stroke:#0000ff; stroke-linecap:round; stroke-linejoin:round; stroke-width:4; stroke-opacity:1; fill:none" points="219.866,123.472 241.411,195.648 262.955,261.424 284.499,320.732 306.044,373.516 327.588,419.714 349.132,459.261 370.677,492.405 392.221,518.577 413.765,537.289 435.31,551.327 456.854,553.575 478.398,555.842 499.943,555.842 521.487,555.842 543.031,555.842 564.576,555.842 586.12,555.842 607.664,555.842 629.209,555.842 650.753,555.842 672.297,555.842 693.842,555.842 715.386,555.842 736.93,555.842 758.475,555.842 780.019,555.842 801.563,555.842 823.108,555.842 844.652,555.842 866.196,555.842 887.741,555.842 909.285,555.842 930.829,555.842 952.374,555.842 973.918,555.842 995.462,555.842 1017.01,555.842 1038.55,555.842 1060.1,555.842 1081.64,555.842 1103.18,555.842 1124.73,555.842 1146.27,555.842 1167.82,555.842 1189.36,555.842 1210.91,555.842 1232.45,555.842 1253.99,555.842 1275.54,555.842 1297.08,555.842 1318.63,555.842 1340.17,555.842 1361.72,555.842 1383.26,555.842 1404.8,555.842 1426.35,555.842 1447.89,555.842 1469.44,555.842 1490.98,555.842 1512.53,555.842 1534.07,555.842 1555.62,555.842 1577.16,555.842 1598.7,555.842 1620.25,555.842 1641.79,555.842 1663.34,555.842 1684.88,555.842 1706.43,555.842 1727.97,555.842 1749.51,555.842 1771.06,555.842 1792.6,555.842 1814.15,555.842 1835.69,555.842 1857.24,555.842 1878.78,555.842 1900.32,555.842 1921.87,555.842 1943.41,555.842 1964.96,555.842 1986.5,555.842 2008.05,555.842 2029.59,555.842 2051.14,555.842 2072.68,555.842 2094.22,555.842 2115.77,555.842 2137.31,555.842 2158.86,555.842 2180.4,555.842 2201.95,555.842 2223.49,555.842 2245.03,555.842 2266.58,555.842 2288.12,555.842 2309.67,555.842 2331.21,555.842 2352.76,555.842 "/>
<polyline clip-path="url(#clip912)" style="stroke:#0000ff; stroke-linecap:round; stroke-linejoin:round; stroke-width:4; stroke-opacity:1; fill:none" stroke-dasharray="16, 10" points="219.866,123.472 241.411,199.903 262.955,271.839 284.499,339.545 306.044,403.269 327.588,463.246 349.132,519.696 370.677,572.826 392.221,622.832 413.765,669.897 435.31,714.195 456.854,755.888 478.398,795.128 499.943,832.062 521.487,866.823 543.031,899.54 564.576,930.333 586.12,959.316 607.664,986.594 629.209,1012.27 650.753,1036.43 672.297,1059.17 693.842,1080.58 715.386,1100.73 736.93,1119.69 758.475,1137.54 780.019,1154.33 801.563,1170.14 823.108,1185.02 844.652,1199.03 866.196,1212.21 887.741,1224.62 909.285,1236.29 930.829,1247.28 952.374,1257.63 973.918,1267.36 995.462,1276.53 1017.01,1285.15 1038.55,1293.27 1060.1,1300.91 1081.64,1308.1 1103.18,1314.86 1124.73,1321.23 1146.27,1327.23 1167.82,1332.87 1189.36,1338.18 1210.91,1343.18 1232.45,1347.89 1253.99,1352.31 1275.54,1356.48 1297.08,1360.4 1318.63,1364.09 1340.17,1367.57 1361.72,1370.84 1383.26,1373.92 1404.8,1376.81 1426.35,1379.54 1447.89,1382.11 1469.44,1384.52 1490.98,1386.8 1512.53,1388.94 1534.07,1390.95 1555.62,1392.84 1577.16,1394.63 1598.7,1396.31 1620.25,1397.89 1641.79,1399.37 1663.34,1400.77 1684.88,1402.09 1706.43,1403.33 1727.97,1404.5 1749.51,1405.6 1771.06,1406.63 1792.6,1407.61 1814.15,1408.52 1835.69,1409.38 1857.24,1410.19 1878.78,1410.96 1900.32,1411.68 1921.87,1412.35 1943.41,1412.99 1964.96,1413.59 1986.5,1414.15 2008.05,1414.68 2029.59,1415.18 2051.14,1415.65 2072.68,1416.1 2094.22,1416.51 2115.77,1416.9 2137.31,1417.27 2158.86,1417.62 2180.4,1417.95 2201.95,1418.26 2223.49,1418.55 2245.03,1418.82 2266.58,1419.07 2288.12,1419.32 2309.67,1419.54 2331.21,1419.76 2352.76,1419.96 "/>
<polyline clip-path="url(#clip912)" style="stroke:#ffa500; stroke-linecap:round; stroke-linejoin:round; stroke-width:4; stroke-opacity:1; fill:none" points="219.866,123.472 241.411,222.202 262.955,307.609 284.499,379.994 306.044,439.648 327.588,486.935 349.132,521.992 370.677,544.675 392.221,553.486 413.765,555.842 435.31,555.842 456.854,555.842 478.398,555.842 499.943,555.842 521.487,555.842 543.031,555.842 564.576,555.842 586.12,555.842 607.664,555.842 629.209,555.842 650.753,555.842 672.297,555.842 693.842,555.842 715.386,555.842 736.93,555.842 758.475,555.842 780.019,555.842 801.563,555.842 823.108,555.842 844.652,555.842 866.196,555.842 887.741,555.842 909.285,555.842 930.829,555.842 952.374,555.842 973.918,555.842 995.462,555.842 1017.01,555.842 1038.55,555.842 1060.1,555.842 1081.64,555.842 1103.18,555.842 1124.73,555.842 1146.27,555.842 1167.82,555.842 1189.36,555.842 1210.91,555.842 1232.45,555.842 1253.99,555.842 1275.54,555.842 1297.08,555.842 1318.63,555.842 1340.17,555.842 1361.72,555.842 1383.26,555.842 1404.8,555.842 1426.35,555.842 1447.89,555.842 1469.44,555.842 1490.98,555.842 1512.53,555.842 1534.07,555.842 1555.62,555.842 1577.16,555.842 1598.7,555.842 1620.25,555.842 1641.79,555.842 1663.34,555.842 1684.88,555.842 1706.43,555.842 1727.97,555.842 1749.51,555.842 1771.06,555.842 1792.6,555.842 1814.15,555.842 1835.69,555.842 1857.24,555.842 1878.78,555.842 1900.32,555.842 1921.87,555.842 1943.41,555.842 1964.96,555.842 1986.5,555.842 2008.05,555.842 2029.59,555.842 2051.14,555.842 2072.68,555.842 2094.22,555.842 2115.77,555.842 2137.31,555.842 2158.86,555.842 2180.4,555.842 2201.95,555.842 2223.49,555.842 2245.03,555.842 2266.58,555.842 2288.12,555.842 2309.67,555.842 2331.21,555.842 2352.76,555.842 "/>
<polyline clip-path="url(#clip912)" style="stroke:#ffa500; stroke-linecap:round; stroke-linejoin:round; stroke-width:4; stroke-opacity:1; fill:none" stroke-dasharray="16, 10" points="219.866,123.472 241.411,228.592 262.955,324.107 284.499,410.993 306.044,490.118 327.588,562.252 349.132,628.082 370.677,688.223 392.221,743.22 413.765,793.564 435.31,839.693 456.854,881.999 478.398,920.836 499.943,956.521 521.487,989.337 543.031,1019.54 564.576,1047.37 586.12,1073.02 607.664,1096.7 629.209,1118.56 650.753,1138.76 672.297,1157.45 693.842,1174.75 715.386,1190.77 736.93,1205.62 758.475,1219.4 780.019,1232.19 801.563,1244.07 823.108,1255.11 844.652,1265.38 866.196,1274.94 887.741,1283.85 909.285,1292.15 930.829,1299.88 952.374,1307.1 973.918,1313.85 995.462,1320.14 1017.01,1326.03 1038.55,1331.53 1060.1,1336.69 1081.64,1341.51 1103.18,1346.03 1124.73,1350.26 1146.27,1354.23 1167.82,1357.96 1189.36,1361.46 1210.91,1364.74 1232.45,1367.83 1253.99,1370.73 1275.54,1373.46 1297.08,1376.03 1318.63,1378.44 1340.17,1380.72 1361.72,1382.87 1383.26,1384.89 1404.8,1386.8 1426.35,1388.6 1447.89,1390.29 1469.44,1391.9 1490.98,1393.41 1512.53,1394.85 1534.07,1396.2 1555.62,1397.48 1577.16,1398.69 1598.7,1399.84 1620.25,1400.92 1641.79,1401.95 1663.34,1402.92 1684.88,1403.85 1706.43,1404.72 1727.97,1405.55 1749.51,1406.34 1771.06,1407.09 1792.6,1407.8 1814.15,1408.48 1835.69,1409.12 1857.24,1409.73 1878.78,1410.31 1900.32,1410.86 1921.87,1411.38 1943.41,1411.88 1964.96,1412.36 1986.5,1412.81 2008.05,1413.24 2029.59,1413.65 2051.14,1414.04 2072.68,1414.41 2094.22,1414.77 2115.77,1415.11 2137.31,1415.43 2158.86,1415.74 2180.4,1416.04 2201.95,1416.32 2223.49,1416.59 2245.03,1416.84 2266.58,1417.09 2288.12,1417.32 2309.67,1417.55 2331.21,1417.76 2352.76,1417.97 "/>
<polyline clip-path="url(#clip912)" style="stroke:#008000; stroke-linecap:round; stroke-linejoin:round; stroke-width:4; stroke-opacity:1; fill:none" points="219.866,556.708 2352.76,556.708 "/>
<path clip-path="url(#clip910)" d="M1654.09 477.836 L2281.66 477.836 L2281.66 166.796 L1654.09 166.796  Z" fill="#ffffff" fill-rule="evenodd" fill-opacity="1"/>
<polyline clip-path="url(#clip910)" style="stroke:#000000; stroke-linecap:round; stroke-linejoin:round; stroke-width:4; stroke-opacity:1; fill:none" points="1654.09,477.836 2281.66,477.836 2281.66,166.796 1654.09,166.796 1654.09,477.836 "/>
<polyline clip-path="url(#clip910)" style="stroke:#0000ff; stroke-linecap:round; stroke-linejoin:round; stroke-width:4; stroke-opacity:1; fill:none" points="1677.79,218.636 1819.98,218.636 "/>
<path clip-path="url(#clip910)" d="M1843.68 201.356 L1848.36 201.356 L1848.36 235.916 L1843.68 235.916 L1843.68 201.356 Z" fill="#000000" fill-rule="nonzero" fill-opacity="1" /><path clip-path="url(#clip910)" d="M1874 210.754 L1874 214.782 Q1872.2 213.856 1870.25 213.393 Q1868.31 212.93 1866.23 212.93 Q1863.06 212.93 1861.46 213.902 Q1859.88 214.874 1859.88 216.819 Q1859.88 218.3 1861.02 219.157 Q1862.15 219.99 1865.58 220.754 L1867.04 221.078 Q1871.57 222.05 1873.47 223.832 Q1875.39 225.592 1875.39 228.763 Q1875.39 232.374 1872.52 234.481 Q1869.68 236.587 1864.68 236.587 Q1862.59 236.587 1860.32 236.17 Q1858.08 235.777 1855.58 234.967 L1855.58 230.569 Q1857.94 231.795 1860.23 232.42 Q1862.52 233.022 1864.77 233.022 Q1867.78 233.022 1869.4 232.004 Q1871.02 230.962 1871.02 229.087 Q1871.02 227.351 1869.84 226.425 Q1868.68 225.499 1864.72 224.643 L1863.24 224.295 Q1859.28 223.462 1857.52 221.749 Q1855.76 220.013 1855.76 217.004 Q1855.76 213.346 1858.36 211.356 Q1860.95 209.365 1865.72 209.365 Q1868.08 209.365 1870.16 209.712 Q1872.25 210.059 1874 210.754 Z" fill="#000000" fill-rule="nonzero" fill-opacity="1" /><path clip-path="url(#clip910)" d="M1892.22 212.976 Q1888.8 212.976 1886.81 215.661 Q1884.81 218.323 1884.81 222.976 Q1884.81 227.629 1886.78 230.314 Q1888.77 232.976 1892.22 232.976 Q1895.62 232.976 1897.62 230.291 Q1899.61 227.606 1899.61 222.976 Q1899.61 218.37 1897.62 215.684 Q1895.62 212.976 1892.22 212.976 M1892.22 209.365 Q1897.78 209.365 1900.95 212.976 Q1904.12 216.587 1904.12 222.976 Q1904.12 229.342 1900.95 232.976 Q1897.78 236.587 1892.22 236.587 Q1886.64 236.587 1883.47 232.976 Q1880.32 229.342 1880.32 222.976 Q1880.32 216.587 1883.47 212.976 Q1886.64 209.365 1892.22 209.365 Z" fill="#000000" fill-rule="nonzero" fill-opacity="1" /><path clip-path="url(#clip910)" d="M1915.39 202.629 L1915.39 209.99 L1924.17 209.99 L1924.17 213.3 L1915.39 213.3 L1915.39 227.374 Q1915.39 230.545 1916.25 231.448 Q1917.13 232.351 1919.79 232.351 L1924.17 232.351 L1924.17 235.916 L1919.79 235.916 Q1914.86 235.916 1912.99 234.087 Q1911.11 232.235 1911.11 227.374 L1911.11 213.3 L1907.99 213.3 L1907.99 209.99 L1911.11 209.99 L1911.11 202.629 L1915.39 202.629 Z" fill="#000000" fill-rule="nonzero" fill-opacity="1" /><path clip-path="url(#clip910)" d="M1951.32 220.268 L1951.32 235.916 L1947.06 235.916 L1947.06 220.407 Q1947.06 216.726 1945.62 214.897 Q1944.19 213.069 1941.32 213.069 Q1937.87 213.069 1935.88 215.268 Q1933.89 217.467 1933.89 221.263 L1933.89 235.916 L1929.61 235.916 L1929.61 199.897 L1933.89 199.897 L1933.89 214.018 Q1935.42 211.68 1937.48 210.522 Q1939.56 209.365 1942.27 209.365 Q1946.74 209.365 1949.03 212.143 Q1951.32 214.897 1951.32 220.268 Z" fill="#000000" fill-rule="nonzero" fill-opacity="1" /><path clip-path="url(#clip910)" d="M1981.99 221.888 L1981.99 223.971 L1962.41 223.971 Q1962.68 228.369 1965.05 230.684 Q1967.43 232.976 1971.67 232.976 Q1974.12 232.976 1976.41 232.374 Q1978.73 231.772 1980.99 230.569 L1980.99 234.596 Q1978.7 235.568 1976.3 236.078 Q1973.89 236.587 1971.41 236.587 Q1965.21 236.587 1961.57 232.976 Q1957.96 229.365 1957.96 223.207 Q1957.96 216.842 1961.39 213.115 Q1964.84 209.365 1970.67 209.365 Q1975.9 209.365 1978.93 212.745 Q1981.99 216.101 1981.99 221.888 M1977.73 220.638 Q1977.68 217.143 1975.76 215.059 Q1973.87 212.976 1970.72 212.976 Q1967.15 212.976 1965 214.99 Q1962.87 217.004 1962.55 220.661 L1977.73 220.638 Z" fill="#000000" fill-rule="nonzero" fill-opacity="1" /><path clip-path="url(#clip910)" d="M2004 213.971 Q2003.29 213.555 2002.43 213.37 Q2001.6 213.161 2000.58 213.161 Q1996.97 213.161 1995.02 215.522 Q1993.1 217.86 1993.1 222.258 L1993.1 235.916 L1988.82 235.916 L1988.82 209.99 L1993.1 209.99 L1993.1 214.018 Q1994.44 211.657 1996.6 210.522 Q1998.75 209.365 2001.83 209.365 Q2002.27 209.365 2002.8 209.434 Q2003.33 209.481 2003.98 209.596 L2004 213.971 Z" fill="#000000" fill-rule="nonzero" fill-opacity="1" /><path clip-path="url(#clip910)" d="M2027.82 214.967 Q2029.42 212.096 2031.64 210.731 Q2033.86 209.365 2036.87 209.365 Q2040.92 209.365 2043.12 212.212 Q2045.32 215.036 2045.32 220.268 L2045.32 235.916 L2041.04 235.916 L2041.04 220.407 Q2041.04 216.68 2039.72 214.874 Q2038.4 213.069 2035.69 213.069 Q2032.38 213.069 2030.46 215.268 Q2028.54 217.467 2028.54 221.263 L2028.54 235.916 L2024.26 235.916 L2024.26 220.407 Q2024.26 216.657 2022.94 214.874 Q2021.62 213.069 2018.86 213.069 Q2015.6 213.069 2013.68 215.291 Q2011.76 217.49 2011.76 221.263 L2011.76 235.916 L2007.48 235.916 L2007.48 209.99 L2011.76 209.99 L2011.76 214.018 Q2013.22 211.633 2015.25 210.499 Q2017.29 209.365 2020.09 209.365 Q2022.92 209.365 2024.88 210.8 Q2026.87 212.235 2027.82 214.967 Z" fill="#000000" fill-rule="nonzero" fill-opacity="1" /><path clip-path="url(#clip910)" d="M2065.6 222.883 Q2060.44 222.883 2058.45 224.064 Q2056.46 225.244 2056.46 228.092 Q2056.46 230.36 2057.94 231.703 Q2059.44 233.022 2062.01 233.022 Q2065.55 233.022 2067.68 230.522 Q2069.84 227.999 2069.84 223.832 L2069.84 222.883 L2065.6 222.883 M2074.1 221.124 L2074.1 235.916 L2069.84 235.916 L2069.84 231.981 Q2068.38 234.342 2066.2 235.476 Q2064.03 236.587 2060.88 236.587 Q2056.9 236.587 2054.54 234.365 Q2052.2 232.119 2052.2 228.369 Q2052.2 223.994 2055.11 221.772 Q2058.05 219.55 2063.86 219.55 L2069.84 219.55 L2069.84 219.133 Q2069.84 216.194 2067.89 214.596 Q2065.97 212.976 2062.48 212.976 Q2060.25 212.976 2058.15 213.508 Q2056.04 214.041 2054.1 215.106 L2054.1 211.17 Q2056.43 210.268 2058.63 209.828 Q2060.83 209.365 2062.92 209.365 Q2068.54 209.365 2071.32 212.282 Q2074.1 215.198 2074.1 221.124 Z" fill="#000000" fill-rule="nonzero" fill-opacity="1" /><path clip-path="url(#clip910)" d="M2082.87 199.897 L2087.13 199.897 L2087.13 235.916 L2082.87 235.916 L2082.87 199.897 Z" fill="#000000" fill-rule="nonzero" fill-opacity="1" /><polyline clip-path="url(#clip910)" style="stroke:#0000ff; stroke-linecap:round; stroke-linejoin:round; stroke-width:4; stroke-opacity:1; fill:none" stroke-dasharray="16, 10" points="1677.79,270.476 1819.98,270.476 "/>
<path clip-path="url(#clip910)" d="M1843.68 281.876 L1848.56 281.876 L1848.56 287.756 L1843.68 287.756 L1843.68 281.876 Z" fill="#000000" fill-rule="nonzero" fill-opacity="1" /><path clip-path="url(#clip910)" d="M1858.75 281.876 L1863.63 281.876 L1863.63 287.756 L1858.75 287.756 L1858.75 281.876 Z" fill="#000000" fill-rule="nonzero" fill-opacity="1" /><path clip-path="url(#clip910)" d="M1873.82 281.876 L1878.7 281.876 L1878.7 287.756 L1873.82 287.756 L1873.82 281.876 Z" fill="#000000" fill-rule="nonzero" fill-opacity="1" /><path clip-path="url(#clip910)" d="M1922.01 262.825 L1922.01 266.807 Q1920.21 265.811 1918.38 265.325 Q1916.57 264.816 1914.72 264.816 Q1910.58 264.816 1908.29 267.455 Q1906 270.071 1906 274.816 Q1906 279.561 1908.29 282.2 Q1910.58 284.816 1914.72 284.816 Q1916.57 284.816 1918.38 284.33 Q1920.21 283.821 1922.01 282.825 L1922.01 286.76 Q1920.23 287.594 1918.31 288.01 Q1916.41 288.427 1914.26 288.427 Q1908.4 288.427 1904.95 284.746 Q1901.5 281.066 1901.5 274.816 Q1901.5 268.473 1904.98 264.839 Q1908.47 261.205 1914.54 261.205 Q1916.5 261.205 1918.38 261.622 Q1920.25 262.015 1922.01 262.825 Z" fill="#000000" fill-rule="nonzero" fill-opacity="1" /><path clip-path="url(#clip910)" d="M1950.97 272.108 L1950.97 287.756 L1946.71 287.756 L1946.71 272.247 Q1946.71 268.566 1945.28 266.737 Q1943.84 264.909 1940.97 264.909 Q1937.52 264.909 1935.53 267.108 Q1933.54 269.307 1933.54 273.103 L1933.54 287.756 L1929.26 287.756 L1929.26 251.737 L1933.54 251.737 L1933.54 265.858 Q1935.07 263.52 1937.13 262.362 Q1939.21 261.205 1941.92 261.205 Q1946.39 261.205 1948.68 263.983 Q1950.97 266.737 1950.97 272.108 Z" fill="#000000" fill-rule="nonzero" fill-opacity="1" /><path clip-path="url(#clip910)" d="M1969.51 264.816 Q1966.09 264.816 1964.1 267.501 Q1962.11 270.163 1962.11 274.816 Q1962.11 279.469 1964.07 282.154 Q1966.06 284.816 1969.51 284.816 Q1972.92 284.816 1974.91 282.131 Q1976.9 279.446 1976.9 274.816 Q1976.9 270.21 1974.91 267.524 Q1972.92 264.816 1969.51 264.816 M1969.51 261.205 Q1975.07 261.205 1978.24 264.816 Q1981.41 268.427 1981.41 274.816 Q1981.41 281.182 1978.24 284.816 Q1975.07 288.427 1969.51 288.427 Q1963.93 288.427 1960.76 284.816 Q1957.62 281.182 1957.62 274.816 Q1957.62 268.427 1960.76 264.816 Q1963.93 261.205 1969.51 261.205 Z" fill="#000000" fill-rule="nonzero" fill-opacity="1" /><path clip-path="url(#clip910)" d="M1988.31 251.737 L1992.59 251.737 L1992.59 273.01 L2005.3 261.83 L2010.74 261.83 L1996.99 273.959 L2011.32 287.756 L2005.76 287.756 L1992.59 275.094 L1992.59 287.756 L1988.31 287.756 L1988.31 251.737 Z" fill="#000000" fill-rule="nonzero" fill-opacity="1" /><path clip-path="url(#clip910)" d="M2036.41 273.728 L2036.41 275.811 L2016.83 275.811 Q2017.11 280.209 2019.47 282.524 Q2021.85 284.816 2026.09 284.816 Q2028.54 284.816 2030.83 284.214 Q2033.15 283.612 2035.42 282.409 L2035.42 286.436 Q2033.12 287.408 2030.72 287.918 Q2028.31 288.427 2025.83 288.427 Q2019.63 288.427 2015.99 284.816 Q2012.38 281.205 2012.38 275.047 Q2012.38 268.682 2015.81 264.955 Q2019.26 261.205 2025.09 261.205 Q2030.32 261.205 2033.36 264.585 Q2036.41 267.941 2036.41 273.728 M2032.15 272.478 Q2032.11 268.983 2030.18 266.899 Q2028.29 264.816 2025.14 264.816 Q2021.57 264.816 2019.42 266.83 Q2017.29 268.844 2016.97 272.501 L2032.15 272.478 Z" fill="#000000" fill-rule="nonzero" fill-opacity="1" /><path clip-path="url(#clip910)" d="M2060.46 265.765 L2060.46 251.737 L2064.72 251.737 L2064.72 287.756 L2060.46 287.756 L2060.46 283.867 Q2059.12 286.182 2057.06 287.316 Q2055.02 288.427 2052.15 288.427 Q2047.45 288.427 2044.49 284.677 Q2041.55 280.927 2041.55 274.816 Q2041.55 268.705 2044.49 264.955 Q2047.45 261.205 2052.15 261.205 Q2055.02 261.205 2057.06 262.339 Q2059.12 263.45 2060.46 265.765 M2045.95 274.816 Q2045.95 279.515 2047.87 282.2 Q2049.81 284.862 2053.19 284.862 Q2056.57 284.862 2058.52 282.2 Q2060.46 279.515 2060.46 274.816 Q2060.46 270.117 2058.52 267.455 Q2056.57 264.77 2053.19 264.77 Q2049.81 264.77 2047.87 267.455 Q2045.95 270.117 2045.95 274.816 Z" fill="#000000" fill-rule="nonzero" fill-opacity="1" /><path clip-path="url(#clip910)" d="M2101.69 251.737 L2101.69 255.279 L2097.61 255.279 Q2095.32 255.279 2094.42 256.205 Q2093.54 257.131 2093.54 259.538 L2093.54 261.83 L2100.55 261.83 L2100.55 265.14 L2093.54 265.14 L2093.54 287.756 L2089.26 287.756 L2089.26 265.14 L2085.18 265.14 L2085.18 261.83 L2089.26 261.83 L2089.26 260.024 Q2089.26 255.696 2091.27 253.728 Q2093.29 251.737 2097.66 251.737 L2101.69 251.737 Z" fill="#000000" fill-rule="nonzero" fill-opacity="1" /><path clip-path="url(#clip910)" d="M2105.25 251.737 L2109.51 251.737 L2109.51 287.756 L2105.25 287.756 L2105.25 251.737 Z" fill="#000000" fill-rule="nonzero" fill-opacity="1" /><path clip-path="url(#clip910)" d="M2128.47 264.816 Q2125.04 264.816 2123.05 267.501 Q2121.06 270.163 2121.06 274.816 Q2121.06 279.469 2123.03 282.154 Q2125.02 284.816 2128.47 284.816 Q2131.87 284.816 2133.86 282.131 Q2135.85 279.446 2135.85 274.816 Q2135.85 270.21 2133.86 267.524 Q2131.87 264.816 2128.47 264.816 M2128.47 261.205 Q2134.03 261.205 2137.2 264.816 Q2140.37 268.427 2140.37 274.816 Q2140.37 281.182 2137.2 284.816 Q2134.03 288.427 2128.47 288.427 Q2122.89 288.427 2119.72 284.816 Q2116.57 281.182 2116.57 274.816 Q2116.57 268.427 2119.72 264.816 Q2122.89 261.205 2128.47 261.205 Z" fill="#000000" fill-rule="nonzero" fill-opacity="1" /><path clip-path="url(#clip910)" d="M2144.95 261.83 L2149.21 261.83 L2154.54 282.061 L2159.84 261.83 L2164.86 261.83 L2170.18 282.061 L2175.48 261.83 L2179.74 261.83 L2172.96 287.756 L2167.94 287.756 L2162.36 266.506 L2156.76 287.756 L2151.73 287.756 L2144.95 261.83 Z" fill="#000000" fill-rule="nonzero" fill-opacity="1" /><polyline clip-path="url(#clip910)" style="stroke:#ffa500; stroke-linecap:round; stroke-linejoin:round; stroke-width:4; stroke-opacity:1; fill:none" points="1677.79,322.316 1819.98,322.316 "/>
<path clip-path="url(#clip910)" d="M1859.51 309.642 L1853.17 326.841 L1865.88 326.841 L1859.51 309.642 M1856.87 305.036 L1862.18 305.036 L1875.35 339.596 L1870.49 339.596 L1867.34 330.73 L1851.76 330.73 L1848.61 339.596 L1843.68 339.596 L1856.87 305.036 Z" fill="#000000" fill-rule="nonzero" fill-opacity="1" /><path clip-path="url(#clip910)" d="M1896.43 317.605 L1896.43 303.577 L1900.69 303.577 L1900.69 339.596 L1896.43 339.596 L1896.43 335.707 Q1895.09 338.022 1893.03 339.156 Q1891 340.267 1888.12 340.267 Q1883.43 340.267 1880.46 336.517 Q1877.52 332.767 1877.52 326.656 Q1877.52 320.545 1880.46 316.795 Q1883.43 313.045 1888.12 313.045 Q1891 313.045 1893.03 314.179 Q1895.09 315.29 1896.43 317.605 M1881.92 326.656 Q1881.92 331.355 1883.84 334.04 Q1885.79 336.702 1889.17 336.702 Q1892.55 336.702 1894.49 334.04 Q1896.43 331.355 1896.43 326.656 Q1896.43 321.957 1894.49 319.295 Q1892.55 316.61 1889.17 316.61 Q1885.79 316.61 1883.84 319.295 Q1881.92 321.957 1881.92 326.656 Z" fill="#000000" fill-rule="nonzero" fill-opacity="1" /><path clip-path="url(#clip910)" d="M1909.47 313.67 L1913.73 313.67 L1913.73 339.596 L1909.47 339.596 L1909.47 313.67 M1909.47 303.577 L1913.73 303.577 L1913.73 308.971 L1909.47 308.971 L1909.47 303.577 Z" fill="#000000" fill-rule="nonzero" fill-opacity="1" /><path clip-path="url(#clip910)" d="M1934.42 326.563 Q1929.26 326.563 1927.27 327.744 Q1925.28 328.924 1925.28 331.772 Q1925.28 334.04 1926.76 335.383 Q1928.26 336.702 1930.83 336.702 Q1934.37 336.702 1936.5 334.202 Q1938.66 331.679 1938.66 327.512 L1938.66 326.563 L1934.42 326.563 M1942.92 324.804 L1942.92 339.596 L1938.66 339.596 L1938.66 335.661 Q1937.2 338.022 1935.02 339.156 Q1932.85 340.267 1929.7 340.267 Q1925.72 340.267 1923.36 338.045 Q1921.02 335.799 1921.02 332.049 Q1921.02 327.674 1923.93 325.452 Q1926.87 323.23 1932.68 323.23 L1938.66 323.23 L1938.66 322.813 Q1938.66 319.874 1936.71 318.276 Q1934.79 316.656 1931.3 316.656 Q1929.07 316.656 1926.97 317.188 Q1924.86 317.721 1922.92 318.786 L1922.92 314.85 Q1925.25 313.948 1927.45 313.508 Q1929.65 313.045 1931.74 313.045 Q1937.36 313.045 1940.14 315.962 Q1942.92 318.878 1942.92 324.804 Z" fill="#000000" fill-rule="nonzero" fill-opacity="1" /><path clip-path="url(#clip910)" d="M1970.3 326.656 Q1970.3 321.957 1968.36 319.295 Q1966.43 316.61 1963.05 316.61 Q1959.68 316.61 1957.73 319.295 Q1955.81 321.957 1955.81 326.656 Q1955.81 331.355 1957.73 334.04 Q1959.68 336.702 1963.05 336.702 Q1966.43 336.702 1968.36 334.04 Q1970.3 331.355 1970.3 326.656 M1955.81 317.605 Q1957.15 315.29 1959.19 314.179 Q1961.25 313.045 1964.1 313.045 Q1968.82 313.045 1971.76 316.795 Q1974.72 320.545 1974.72 326.656 Q1974.72 332.767 1971.76 336.517 Q1968.82 340.267 1964.1 340.267 Q1961.25 340.267 1959.19 339.156 Q1957.15 338.022 1955.81 335.707 L1955.81 339.596 L1951.53 339.596 L1951.53 303.577 L1955.81 303.577 L1955.81 317.605 Z" fill="#000000" fill-rule="nonzero" fill-opacity="1" /><path clip-path="url(#clip910)" d="M1993.56 326.563 Q1988.4 326.563 1986.41 327.744 Q1984.42 328.924 1984.42 331.772 Q1984.42 334.04 1985.9 335.383 Q1987.41 336.702 1989.98 336.702 Q1993.52 336.702 1995.65 334.202 Q1997.8 331.679 1997.8 327.512 L1997.8 326.563 L1993.56 326.563 M2002.06 324.804 L2002.06 339.596 L1997.8 339.596 L1997.8 335.661 Q1996.34 338.022 1994.17 339.156 Q1991.99 340.267 1988.84 340.267 Q1984.86 340.267 1982.5 338.045 Q1980.16 335.799 1980.16 332.049 Q1980.16 327.674 1983.08 325.452 Q1986.02 323.23 1991.83 323.23 L1997.8 323.23 L1997.8 322.813 Q1997.8 319.874 1995.86 318.276 Q1993.93 316.656 1990.44 316.656 Q1988.22 316.656 1986.11 317.188 Q1984 317.721 1982.06 318.786 L1982.06 314.85 Q1984.4 313.948 1986.6 313.508 Q1988.8 313.045 1990.88 313.045 Q1996.5 313.045 1999.28 315.962 Q2002.06 318.878 2002.06 324.804 Z" fill="#000000" fill-rule="nonzero" fill-opacity="1" /><path clip-path="url(#clip910)" d="M2015.05 306.309 L2015.05 313.67 L2023.82 313.67 L2023.82 316.98 L2015.05 316.98 L2015.05 331.054 Q2015.05 334.225 2015.9 335.128 Q2016.78 336.031 2019.44 336.031 L2023.82 336.031 L2023.82 339.596 L2019.44 339.596 Q2014.51 339.596 2012.64 337.767 Q2010.76 335.915 2010.76 331.054 L2010.76 316.98 L2007.64 316.98 L2007.64 313.67 L2010.76 313.67 L2010.76 306.309 L2015.05 306.309 Z" fill="#000000" fill-rule="nonzero" fill-opacity="1" /><path clip-path="url(#clip910)" d="M2029.42 313.67 L2033.68 313.67 L2033.68 339.596 L2029.42 339.596 L2029.42 313.67 M2029.42 303.577 L2033.68 303.577 L2033.68 308.971 L2029.42 308.971 L2029.42 303.577 Z" fill="#000000" fill-rule="nonzero" fill-opacity="1" /><path clip-path="url(#clip910)" d="M2061.25 314.665 L2061.25 318.647 Q2059.44 317.651 2057.61 317.165 Q2055.81 316.656 2053.96 316.656 Q2049.81 316.656 2047.52 319.295 Q2045.23 321.911 2045.23 326.656 Q2045.23 331.401 2047.52 334.04 Q2049.81 336.656 2053.96 336.656 Q2055.81 336.656 2057.61 336.17 Q2059.44 335.661 2061.25 334.665 L2061.25 338.6 Q2059.47 339.434 2057.55 339.85 Q2055.65 340.267 2053.49 340.267 Q2047.64 340.267 2044.19 336.586 Q2040.74 332.906 2040.74 326.656 Q2040.74 320.313 2044.21 316.679 Q2047.71 313.045 2053.77 313.045 Q2055.74 313.045 2057.61 313.462 Q2059.49 313.855 2061.25 314.665 Z" fill="#000000" fill-rule="nonzero" fill-opacity="1" /><polyline clip-path="url(#clip910)" style="stroke:#ffa500; stroke-linecap:round; stroke-linejoin:round; stroke-width:4; stroke-opacity:1; fill:none" stroke-dasharray="16, 10" points="1677.79,374.156 1819.98,374.156 "/>
<path clip-path="url(#clip910)" d="M1843.68 385.556 L1848.56 385.556 L1848.56 391.436 L1843.68 391.436 L1843.68 385.556 Z" fill="#000000" fill-rule="nonzero" fill-opacity="1" /><path clip-path="url(#clip910)" d="M1858.75 385.556 L1863.63 385.556 L1863.63 391.436 L1858.75 391.436 L1858.75 385.556 Z" fill="#000000" fill-rule="nonzero" fill-opacity="1" /><path clip-path="url(#clip910)" d="M1873.82 385.556 L1878.7 385.556 L1878.7 391.436 L1873.82 391.436 L1873.82 385.556 Z" fill="#000000" fill-rule="nonzero" fill-opacity="1" /><path clip-path="url(#clip910)" d="M1922.01 366.505 L1922.01 370.487 Q1920.21 369.491 1918.38 369.005 Q1916.57 368.496 1914.72 368.496 Q1910.58 368.496 1908.29 371.135 Q1906 373.751 1906 378.496 Q1906 383.241 1908.29 385.88 Q1910.58 388.496 1914.72 388.496 Q1916.57 388.496 1918.38 388.01 Q1920.21 387.501 1922.01 386.505 L1922.01 390.44 Q1920.23 391.274 1918.31 391.69 Q1916.41 392.107 1914.26 392.107 Q1908.4 392.107 1904.95 388.426 Q1901.5 384.746 1901.5 378.496 Q1901.5 372.153 1904.98 368.519 Q1908.47 364.885 1914.54 364.885 Q1916.5 364.885 1918.38 365.302 Q1920.25 365.695 1922.01 366.505 Z" fill="#000000" fill-rule="nonzero" fill-opacity="1" /><path clip-path="url(#clip910)" d="M1950.97 375.788 L1950.97 391.436 L1946.71 391.436 L1946.71 375.927 Q1946.71 372.246 1945.28 370.417 Q1943.84 368.589 1940.97 368.589 Q1937.52 368.589 1935.53 370.788 Q1933.54 372.987 1933.54 376.783 L1933.54 391.436 L1929.26 391.436 L1929.26 355.417 L1933.54 355.417 L1933.54 369.538 Q1935.07 367.2 1937.13 366.042 Q1939.21 364.885 1941.92 364.885 Q1946.39 364.885 1948.68 367.663 Q1950.97 370.417 1950.97 375.788 Z" fill="#000000" fill-rule="nonzero" fill-opacity="1" /><path clip-path="url(#clip910)" d="M1969.51 368.496 Q1966.09 368.496 1964.1 371.181 Q1962.11 373.843 1962.11 378.496 Q1962.11 383.149 1964.07 385.834 Q1966.06 388.496 1969.51 388.496 Q1972.92 388.496 1974.91 385.811 Q1976.9 383.126 1976.9 378.496 Q1976.9 373.89 1974.91 371.204 Q1972.92 368.496 1969.51 368.496 M1969.51 364.885 Q1975.07 364.885 1978.24 368.496 Q1981.41 372.107 1981.41 378.496 Q1981.41 384.862 1978.24 388.496 Q1975.07 392.107 1969.51 392.107 Q1963.93 392.107 1960.76 388.496 Q1957.62 384.862 1957.62 378.496 Q1957.62 372.107 1960.76 368.496 Q1963.93 364.885 1969.51 364.885 Z" fill="#000000" fill-rule="nonzero" fill-opacity="1" /><path clip-path="url(#clip910)" d="M1988.31 355.417 L1992.59 355.417 L1992.59 376.69 L2005.3 365.51 L2010.74 365.51 L1996.99 377.639 L2011.32 391.436 L2005.76 391.436 L1992.59 378.774 L1992.59 391.436 L1988.31 391.436 L1988.31 355.417 Z" fill="#000000" fill-rule="nonzero" fill-opacity="1" /><path clip-path="url(#clip910)" d="M2036.41 377.408 L2036.41 379.491 L2016.83 379.491 Q2017.11 383.889 2019.47 386.204 Q2021.85 388.496 2026.09 388.496 Q2028.54 388.496 2030.83 387.894 Q2033.15 387.292 2035.42 386.089 L2035.42 390.116 Q2033.12 391.088 2030.72 391.598 Q2028.31 392.107 2025.83 392.107 Q2019.63 392.107 2015.99 388.496 Q2012.38 384.885 2012.38 378.727 Q2012.38 372.362 2015.81 368.635 Q2019.26 364.885 2025.09 364.885 Q2030.32 364.885 2033.36 368.265 Q2036.41 371.621 2036.41 377.408 M2032.15 376.158 Q2032.11 372.663 2030.18 370.579 Q2028.29 368.496 2025.14 368.496 Q2021.57 368.496 2019.42 370.51 Q2017.29 372.524 2016.97 376.181 L2032.15 376.158 Z" fill="#000000" fill-rule="nonzero" fill-opacity="1" /><path clip-path="url(#clip910)" d="M2060.46 369.445 L2060.46 355.417 L2064.72 355.417 L2064.72 391.436 L2060.46 391.436 L2060.46 387.547 Q2059.12 389.862 2057.06 390.996 Q2055.02 392.107 2052.15 392.107 Q2047.45 392.107 2044.49 388.357 Q2041.55 384.607 2041.55 378.496 Q2041.55 372.385 2044.49 368.635 Q2047.45 364.885 2052.15 364.885 Q2055.02 364.885 2057.06 366.019 Q2059.12 367.13 2060.46 369.445 M2045.95 378.496 Q2045.95 383.195 2047.87 385.88 Q2049.81 388.542 2053.19 388.542 Q2056.57 388.542 2058.52 385.88 Q2060.46 383.195 2060.46 378.496 Q2060.46 373.797 2058.52 371.135 Q2056.57 368.45 2053.19 368.45 Q2049.81 368.45 2047.87 371.135 Q2045.95 373.797 2045.95 378.496 Z" fill="#000000" fill-rule="nonzero" fill-opacity="1" /><path clip-path="url(#clip910)" d="M2101.69 355.417 L2101.69 358.959 L2097.61 358.959 Q2095.32 358.959 2094.42 359.885 Q2093.54 360.811 2093.54 363.218 L2093.54 365.51 L2100.55 365.51 L2100.55 368.82 L2093.54 368.82 L2093.54 391.436 L2089.26 391.436 L2089.26 368.82 L2085.18 368.82 L2085.18 365.51 L2089.26 365.51 L2089.26 363.704 Q2089.26 359.376 2091.27 357.408 Q2093.29 355.417 2097.66 355.417 L2101.69 355.417 Z" fill="#000000" fill-rule="nonzero" fill-opacity="1" /><path clip-path="url(#clip910)" d="M2105.25 355.417 L2109.51 355.417 L2109.51 391.436 L2105.25 391.436 L2105.25 355.417 Z" fill="#000000" fill-rule="nonzero" fill-opacity="1" /><path clip-path="url(#clip910)" d="M2128.47 368.496 Q2125.04 368.496 2123.05 371.181 Q2121.06 373.843 2121.06 378.496 Q2121.06 383.149 2123.03 385.834 Q2125.02 388.496 2128.47 388.496 Q2131.87 388.496 2133.86 385.811 Q2135.85 383.126 2135.85 378.496 Q2135.85 373.89 2133.86 371.204 Q2131.87 368.496 2128.47 368.496 M2128.47 364.885 Q2134.03 364.885 2137.2 368.496 Q2140.37 372.107 2140.37 378.496 Q2140.37 384.862 2137.2 388.496 Q2134.03 392.107 2128.47 392.107 Q2122.89 392.107 2119.72 388.496 Q2116.57 384.862 2116.57 378.496 Q2116.57 372.107 2119.72 368.496 Q2122.89 364.885 2128.47 364.885 Z" fill="#000000" fill-rule="nonzero" fill-opacity="1" /><path clip-path="url(#clip910)" d="M2144.95 365.51 L2149.21 365.51 L2154.54 385.741 L2159.84 365.51 L2164.86 365.51 L2170.18 385.741 L2175.48 365.51 L2179.74 365.51 L2172.96 391.436 L2167.94 391.436 L2162.36 370.186 L2156.76 391.436 L2151.73 391.436 L2144.95 365.51 Z" fill="#000000" fill-rule="nonzero" fill-opacity="1" /><polyline clip-path="url(#clip910)" style="stroke:#008000; stroke-linecap:round; stroke-linejoin:round; stroke-width:4; stroke-opacity:1; fill:none" points="1677.79,425.996 1819.98,425.996 "/>
<path clip-path="url(#clip910)" d="M1859.51 413.322 L1853.17 430.521 L1865.88 430.521 L1859.51 413.322 M1856.87 408.716 L1862.18 408.716 L1875.35 443.276 L1870.49 443.276 L1867.34 434.41 L1851.76 434.41 L1848.61 443.276 L1843.68 443.276 L1856.87 408.716 Z" fill="#000000" fill-rule="nonzero" fill-opacity="1" /><path clip-path="url(#clip910)" d="M1900.39 422.327 Q1901.99 419.456 1904.21 418.091 Q1906.43 416.725 1909.44 416.725 Q1913.5 416.725 1915.69 419.572 Q1917.89 422.396 1917.89 427.628 L1917.89 443.276 L1913.61 443.276 L1913.61 427.767 Q1913.61 424.04 1912.29 422.234 Q1910.97 420.429 1908.26 420.429 Q1904.95 420.429 1903.03 422.628 Q1901.11 424.827 1901.11 428.623 L1901.11 443.276 L1896.83 443.276 L1896.83 427.767 Q1896.83 424.017 1895.51 422.234 Q1894.19 420.429 1891.43 420.429 Q1888.17 420.429 1886.25 422.651 Q1884.33 424.85 1884.33 428.623 L1884.33 443.276 L1880.05 443.276 L1880.05 417.35 L1884.33 417.35 L1884.33 421.378 Q1885.79 418.993 1887.82 417.859 Q1889.86 416.725 1892.66 416.725 Q1895.49 416.725 1897.45 418.16 Q1899.44 419.595 1900.39 422.327 Z" fill="#000000" fill-rule="nonzero" fill-opacity="1" /><path clip-path="url(#clip910)" d="M1945 430.336 Q1945 425.637 1943.06 422.975 Q1941.13 420.29 1937.75 420.29 Q1934.37 420.29 1932.43 422.975 Q1930.51 425.637 1930.51 430.336 Q1930.51 435.035 1932.43 437.72 Q1934.37 440.382 1937.75 440.382 Q1941.13 440.382 1943.06 437.72 Q1945 435.035 1945 430.336 M1930.51 421.285 Q1931.85 418.97 1933.89 417.859 Q1935.95 416.725 1938.8 416.725 Q1943.52 416.725 1946.46 420.475 Q1949.42 424.225 1949.42 430.336 Q1949.42 436.447 1946.46 440.197 Q1943.52 443.947 1938.8 443.947 Q1935.95 443.947 1933.89 442.836 Q1931.85 441.702 1930.51 439.387 L1930.51 443.276 L1926.23 443.276 L1926.23 407.257 L1930.51 407.257 L1930.51 421.285 Z" fill="#000000" fill-rule="nonzero" fill-opacity="1" /><path clip-path="url(#clip910)" d="M1956.48 417.35 L1960.74 417.35 L1960.74 443.276 L1956.48 443.276 L1956.48 417.35 M1956.48 407.257 L1960.74 407.257 L1960.74 412.651 L1956.48 412.651 L1956.48 407.257 Z" fill="#000000" fill-rule="nonzero" fill-opacity="1" /><path clip-path="url(#clip910)" d="M1991.83 429.248 L1991.83 431.331 L1972.24 431.331 Q1972.52 435.729 1974.88 438.044 Q1977.27 440.336 1981.5 440.336 Q1983.96 440.336 1986.25 439.734 Q1988.56 439.132 1990.83 437.929 L1990.83 441.956 Q1988.54 442.928 1986.13 443.438 Q1983.73 443.947 1981.25 443.947 Q1975.05 443.947 1971.41 440.336 Q1967.8 436.725 1967.8 430.567 Q1967.8 424.202 1971.23 420.475 Q1974.68 416.725 1980.51 416.725 Q1985.74 416.725 1988.77 420.105 Q1991.83 423.461 1991.83 429.248 M1987.57 427.998 Q1987.52 424.503 1985.6 422.419 Q1983.7 420.336 1980.55 420.336 Q1976.99 420.336 1974.84 422.35 Q1972.71 424.364 1972.38 428.021 L1987.57 427.998 Z" fill="#000000" fill-rule="nonzero" fill-opacity="1" /><path clip-path="url(#clip910)" d="M2020.37 427.628 L2020.37 443.276 L2016.11 443.276 L2016.11 427.767 Q2016.11 424.086 2014.68 422.257 Q2013.24 420.429 2010.37 420.429 Q2006.92 420.429 2004.93 422.628 Q2002.94 424.827 2002.94 428.623 L2002.94 443.276 L1998.66 443.276 L1998.66 417.35 L2002.94 417.35 L2002.94 421.378 Q2004.47 419.04 2006.53 417.882 Q2008.61 416.725 2011.32 416.725 Q2015.79 416.725 2018.08 419.503 Q2020.37 422.257 2020.37 427.628 Z" fill="#000000" fill-rule="nonzero" fill-opacity="1" /><path clip-path="url(#clip910)" d="M2033.08 409.989 L2033.08 417.35 L2041.85 417.35 L2041.85 420.66 L2033.08 420.66 L2033.08 434.734 Q2033.08 437.905 2033.93 438.808 Q2034.81 439.711 2037.48 439.711 L2041.85 439.711 L2041.85 443.276 L2037.48 443.276 Q2032.55 443.276 2030.67 441.447 Q2028.8 439.595 2028.8 434.734 L2028.8 420.66 L2025.67 420.66 L2025.67 417.35 L2028.8 417.35 L2028.8 409.989 L2033.08 409.989 Z" fill="#000000" fill-rule="nonzero" fill-opacity="1" /><path clip-path="url(#clip910)" d="M2067.38 412.558 L2067.38 425.544 L2073.26 425.544 Q2076.53 425.544 2078.31 423.855 Q2080.09 422.165 2080.09 419.04 Q2080.09 415.938 2078.31 414.248 Q2076.53 412.558 2073.26 412.558 L2067.38 412.558 M2062.71 408.716 L2073.26 408.716 Q2079.07 408.716 2082.04 411.355 Q2085.02 413.97 2085.02 419.04 Q2085.02 424.155 2082.04 426.771 Q2079.07 429.387 2073.26 429.387 L2067.38 429.387 L2067.38 443.276 L2062.71 443.276 L2062.71 408.716 Z" fill="#000000" fill-rule="nonzero" fill-opacity="1" /><path clip-path="url(#clip910)" d="M2105.3 421.331 Q2104.58 420.915 2103.73 420.73 Q2102.89 420.521 2101.87 420.521 Q2098.26 420.521 2096.32 422.882 Q2094.4 425.22 2094.4 429.618 L2094.4 443.276 L2090.11 443.276 L2090.11 417.35 L2094.4 417.35 L2094.4 421.378 Q2095.74 419.017 2097.89 417.882 Q2100.04 416.725 2103.12 416.725 Q2103.56 416.725 2104.1 416.794 Q2104.63 416.841 2105.28 416.956 L2105.3 421.331 Z" fill="#000000" fill-rule="nonzero" fill-opacity="1" /><path clip-path="url(#clip910)" d="M2130.9 429.248 L2130.9 431.331 L2111.32 431.331 Q2111.6 435.729 2113.96 438.044 Q2116.34 440.336 2120.58 440.336 Q2123.03 440.336 2125.32 439.734 Q2127.64 439.132 2129.91 437.929 L2129.91 441.956 Q2127.61 442.928 2125.21 443.438 Q2122.8 443.947 2120.32 443.947 Q2114.12 443.947 2110.48 440.336 Q2106.87 436.725 2106.87 430.567 Q2106.87 424.202 2110.3 420.475 Q2113.75 416.725 2119.58 416.725 Q2124.81 416.725 2127.85 420.105 Q2130.9 423.461 2130.9 429.248 M2126.64 427.998 Q2126.6 424.503 2124.67 422.419 Q2122.78 420.336 2119.63 420.336 Q2116.06 420.336 2113.91 422.35 Q2111.78 424.364 2111.46 428.021 L2126.64 427.998 Z" fill="#000000" fill-rule="nonzero" fill-opacity="1" /><path clip-path="url(#clip910)" d="M2154.42 418.114 L2154.42 422.142 Q2152.61 421.216 2150.67 420.753 Q2148.73 420.29 2146.64 420.29 Q2143.47 420.29 2141.87 421.262 Q2140.3 422.234 2140.3 424.179 Q2140.3 425.66 2141.43 426.517 Q2142.57 427.35 2145.99 428.114 L2147.45 428.438 Q2151.99 429.41 2153.89 431.192 Q2155.81 432.952 2155.81 436.123 Q2155.81 439.734 2152.94 441.841 Q2150.09 443.947 2145.09 443.947 Q2143.01 443.947 2140.74 443.53 Q2138.49 443.137 2135.99 442.327 L2135.99 437.929 Q2138.35 439.155 2140.65 439.78 Q2142.94 440.382 2145.18 440.382 Q2148.19 440.382 2149.81 439.364 Q2151.43 438.322 2151.43 436.447 Q2151.43 434.711 2150.25 433.785 Q2149.1 432.859 2145.14 432.003 L2143.66 431.655 Q2139.7 430.822 2137.94 429.109 Q2136.18 427.373 2136.18 424.364 Q2136.18 420.706 2138.77 418.716 Q2141.36 416.725 2146.13 416.725 Q2148.49 416.725 2150.58 417.072 Q2152.66 417.419 2154.42 418.114 Z" fill="#000000" fill-rule="nonzero" fill-opacity="1" /><path clip-path="url(#clip910)" d="M2179.12 418.114 L2179.12 422.142 Q2177.31 421.216 2175.37 420.753 Q2173.42 420.29 2171.34 420.29 Q2168.17 420.29 2166.57 421.262 Q2165 422.234 2165 424.179 Q2165 425.66 2166.13 426.517 Q2167.27 427.35 2170.69 428.114 L2172.15 428.438 Q2176.69 429.41 2178.59 431.192 Q2180.51 432.952 2180.51 436.123 Q2180.51 439.734 2177.64 441.841 Q2174.79 443.947 2169.79 443.947 Q2167.71 443.947 2165.44 443.53 Q2163.19 443.137 2160.69 442.327 L2160.69 437.929 Q2163.05 439.155 2165.35 439.78 Q2167.64 440.382 2169.88 440.382 Q2172.89 440.382 2174.51 439.364 Q2176.13 438.322 2176.13 436.447 Q2176.13 434.711 2174.95 433.785 Q2173.79 432.859 2169.84 432.003 L2168.35 431.655 Q2164.4 430.822 2162.64 429.109 Q2160.88 427.373 2160.88 424.364 Q2160.88 420.706 2163.47 418.716 Q2166.06 416.725 2170.83 416.725 Q2173.19 416.725 2175.28 417.072 Q2177.36 417.419 2179.12 418.114 Z" fill="#000000" fill-rule="nonzero" fill-opacity="1" /><path clip-path="url(#clip910)" d="M2186.85 433.044 L2186.85 417.35 L2191.11 417.35 L2191.11 432.882 Q2191.11 436.563 2192.54 438.415 Q2193.98 440.243 2196.85 440.243 Q2200.3 440.243 2202.29 438.044 Q2204.3 435.845 2204.3 432.049 L2204.3 417.35 L2208.56 417.35 L2208.56 443.276 L2204.3 443.276 L2204.3 439.294 Q2202.75 441.655 2200.69 442.813 Q2198.66 443.947 2195.95 443.947 Q2191.48 443.947 2189.16 441.169 Q2186.85 438.391 2186.85 433.044 M2197.57 416.725 L2197.57 416.725 Z" fill="#000000" fill-rule="nonzero" fill-opacity="1" /><path clip-path="url(#clip910)" d="M2232.36 421.331 Q2231.64 420.915 2230.79 420.73 Q2229.95 420.521 2228.93 420.521 Q2225.32 420.521 2223.38 422.882 Q2221.46 425.22 2221.46 429.618 L2221.46 443.276 L2217.17 443.276 L2217.17 417.35 L2221.46 417.35 L2221.46 421.378 Q2222.8 419.017 2224.95 417.882 Q2227.1 416.725 2230.18 416.725 Q2230.62 416.725 2231.16 416.794 Q2231.69 416.841 2232.34 416.956 L2232.36 421.331 Z" fill="#000000" fill-rule="nonzero" fill-opacity="1" /><path clip-path="url(#clip910)" d="M2257.96 429.248 L2257.96 431.331 L2238.38 431.331 Q2238.66 435.729 2241.02 438.044 Q2243.4 440.336 2247.64 440.336 Q2250.09 440.336 2252.38 439.734 Q2254.7 439.132 2256.97 437.929 L2256.97 441.956 Q2254.67 442.928 2252.27 443.438 Q2249.86 443.947 2247.38 443.947 Q2241.18 443.947 2237.54 440.336 Q2233.93 436.725 2233.93 430.567 Q2233.93 424.202 2237.36 420.475 Q2240.81 416.725 2246.64 416.725 Q2251.87 416.725 2254.91 420.105 Q2257.96 423.461 2257.96 429.248 M2253.7 427.998 Q2253.66 424.503 2251.73 422.419 Q2249.84 420.336 2246.69 420.336 Q2243.12 420.336 2240.97 422.35 Q2238.84 424.364 2238.52 428.021 L2253.7 427.998 Z" fill="#000000" fill-rule="nonzero" fill-opacity="1" /><path clip-path="url(#clip910)" d="M575.348 100.049 L580.672 100.049 L580.672 145.072 L575.348 145.072 L575.348 100.049 Z" fill="#000000" fill-rule="nonzero" fill-opacity="1" /><path clip-path="url(#clip910)" d="M604.37 116.398 Q600.087 116.398 597.599 119.754 Q595.11 123.082 595.11 128.897 Q595.11 134.713 597.57 138.07 Q600.058 141.397 604.37 141.397 Q608.623 141.397 611.112 138.041 Q613.6 134.684 613.6 128.897 Q613.6 123.139 611.112 119.783 Q608.623 116.398 604.37 116.398 M604.37 111.884 Q611.314 111.884 615.278 116.398 Q619.242 120.911 619.242 128.897 Q619.242 136.855 615.278 141.397 Q611.314 145.911 604.37 145.911 Q597.396 145.911 593.432 141.397 Q589.497 136.855 589.497 128.897 Q589.497 120.911 593.432 116.398 Q597.396 111.884 604.37 111.884 Z" fill="#000000" fill-rule="nonzero" fill-opacity="1" /><path clip-path="url(#clip910)" d="M624.971 112.665 L630.295 112.665 L636.951 137.954 L643.577 112.665 L649.856 112.665 L656.511 137.954 L663.137 112.665 L668.461 112.665 L659.983 145.072 L653.704 145.072 L646.731 118.51 L639.728 145.072 L633.449 145.072 L624.971 112.665 Z" fill="#000000" fill-rule="nonzero" fill-opacity="1" /><path clip-path="url(#clip910)" d="M700.521 140.211 L700.521 157.398 L695.168 157.398 L695.168 112.665 L700.521 112.665 L700.521 117.584 Q702.199 114.69 704.745 113.301 Q707.321 111.884 710.88 111.884 Q716.782 111.884 720.457 116.571 Q724.161 121.259 724.161 128.897 Q724.161 136.536 720.457 141.224 Q716.782 145.911 710.88 145.911 Q707.321 145.911 704.745 144.522 Q702.199 143.105 700.521 140.211 M718.634 128.897 Q718.634 123.024 716.204 119.696 Q713.802 116.34 709.577 116.34 Q705.353 116.34 702.922 119.696 Q700.521 123.024 700.521 128.897 Q700.521 134.771 702.922 138.128 Q705.353 141.455 709.577 141.455 Q713.802 141.455 716.204 138.128 Q718.634 134.771 718.634 128.897 Z" fill="#000000" fill-rule="nonzero" fill-opacity="1" /><path clip-path="url(#clip910)" d="M751.765 117.642 Q750.868 117.121 749.797 116.889 Q748.756 116.629 747.482 116.629 Q742.969 116.629 740.538 119.58 Q738.136 122.503 738.136 128 L738.136 145.072 L732.783 145.072 L732.783 112.665 L738.136 112.665 L738.136 117.7 Q739.815 114.748 742.506 113.33 Q745.196 111.884 749.045 111.884 Q749.595 111.884 750.26 111.97 Q750.926 112.028 751.736 112.173 L751.765 117.642 Z" fill="#000000" fill-rule="nonzero" fill-opacity="1" /><path clip-path="url(#clip910)" d="M783.767 127.537 L783.767 130.142 L759.288 130.142 Q759.635 135.639 762.586 138.533 Q765.567 141.397 770.862 141.397 Q773.929 141.397 776.794 140.645 Q779.687 139.893 782.523 138.388 L782.523 143.423 Q779.658 144.638 776.649 145.275 Q773.64 145.911 770.544 145.911 Q762.789 145.911 758.246 141.397 Q753.732 136.884 753.732 129.187 Q753.732 121.23 758.015 116.571 Q762.326 111.884 769.618 111.884 Q776.157 111.884 779.947 116.108 Q783.767 120.304 783.767 127.537 M778.443 125.975 Q778.385 121.606 775.983 119.002 Q773.611 116.398 769.676 116.398 Q765.22 116.398 762.529 118.915 Q759.867 121.432 759.461 126.004 L778.443 125.975 Z" fill="#000000" fill-rule="nonzero" fill-opacity="1" /><path clip-path="url(#clip910)" d="M813.165 113.62 L813.165 118.654 Q810.908 117.497 808.477 116.918 Q806.047 116.34 803.443 116.34 Q799.479 116.34 797.482 117.555 Q795.515 118.77 795.515 121.201 Q795.515 123.053 796.932 124.123 Q798.35 125.165 802.633 126.12 L804.455 126.525 Q810.127 127.74 812.499 129.968 Q814.901 132.167 814.901 136.131 Q814.901 140.645 811.313 143.278 Q807.754 145.911 801.504 145.911 Q798.9 145.911 796.064 145.39 Q793.258 144.899 790.133 143.886 L790.133 138.388 Q793.084 139.922 795.949 140.703 Q798.813 141.455 801.62 141.455 Q805.381 141.455 807.407 140.182 Q809.432 138.88 809.432 136.536 Q809.432 134.366 807.957 133.209 Q806.51 132.051 801.562 130.981 L799.71 130.547 Q794.762 129.505 792.563 127.364 Q790.364 125.194 790.364 121.432 Q790.364 116.86 793.605 114.372 Q796.846 111.884 802.806 111.884 Q805.758 111.884 808.362 112.318 Q810.966 112.752 813.165 113.62 Z" fill="#000000" fill-rule="nonzero" fill-opacity="1" /><path clip-path="url(#clip910)" d="M844.039 113.62 L844.039 118.654 Q841.782 117.497 839.351 116.918 Q836.921 116.34 834.316 116.34 Q830.352 116.34 828.356 117.555 Q826.388 118.77 826.388 121.201 Q826.388 123.053 827.806 124.123 Q829.224 125.165 833.506 126.12 L835.329 126.525 Q841 127.74 843.373 129.968 Q845.775 132.167 845.775 136.131 Q845.775 140.645 842.187 143.278 Q838.628 145.911 832.378 145.911 Q829.774 145.911 826.938 145.39 Q824.131 144.899 821.006 143.886 L821.006 138.388 Q823.958 139.922 826.822 140.703 Q829.687 141.455 832.493 141.455 Q836.255 141.455 838.28 140.182 Q840.306 138.88 840.306 136.536 Q840.306 134.366 838.83 133.209 Q837.384 132.051 832.436 130.981 L830.584 130.547 Q825.636 129.505 823.437 127.364 Q821.238 125.194 821.238 121.432 Q821.238 116.86 824.478 114.372 Q827.719 111.884 833.68 111.884 Q836.631 111.884 839.235 112.318 Q841.84 112.752 844.039 113.62 Z" fill="#000000" fill-rule="nonzero" fill-opacity="1" /><path clip-path="url(#clip910)" d="M853.703 132.283 L853.703 112.665 L859.027 112.665 L859.027 132.08 Q859.027 136.681 860.821 138.996 Q862.615 141.282 866.203 141.282 Q870.514 141.282 873.003 138.533 Q875.52 135.784 875.52 131.039 L875.52 112.665 L880.844 112.665 L880.844 145.072 L875.52 145.072 L875.52 140.095 Q873.581 143.047 871.006 144.493 Q868.46 145.911 865.074 145.911 Q859.49 145.911 856.596 142.439 Q853.703 138.967 853.703 132.283 M867.1 111.884 L867.1 111.884 Z" fill="#000000" fill-rule="nonzero" fill-opacity="1" /><path clip-path="url(#clip910)" d="M910.589 117.642 Q909.692 117.121 908.622 116.889 Q907.58 116.629 906.307 116.629 Q901.793 116.629 899.362 119.58 Q896.961 122.503 896.961 128 L896.961 145.072 L891.608 145.072 L891.608 112.665 L896.961 112.665 L896.961 117.7 Q898.639 114.748 901.33 113.33 Q904.021 111.884 907.869 111.884 Q908.419 111.884 909.085 111.97 Q909.75 112.028 910.56 112.173 L910.589 117.642 Z" fill="#000000" fill-rule="nonzero" fill-opacity="1" /><path clip-path="url(#clip910)" d="M942.591 127.537 L942.591 130.142 L918.112 130.142 Q918.459 135.639 921.411 138.533 Q924.391 141.397 929.686 141.397 Q932.753 141.397 935.618 140.645 Q938.511 139.893 941.347 138.388 L941.347 143.423 Q938.483 144.638 935.473 145.275 Q932.464 145.911 929.368 145.911 Q921.613 145.911 917.071 141.397 Q912.557 136.884 912.557 129.187 Q912.557 121.23 916.839 116.571 Q921.15 111.884 928.442 111.884 Q934.981 111.884 938.772 116.108 Q942.591 120.304 942.591 127.537 M937.267 125.975 Q937.209 121.606 934.808 119.002 Q932.435 116.398 928.5 116.398 Q924.044 116.398 921.353 118.915 Q918.691 121.432 918.286 126.004 L937.267 125.975 Z" fill="#000000" fill-rule="nonzero" fill-opacity="1" /><path clip-path="url(#clip910)" d="M993.43 128.897 Q993.43 123.024 991 119.696 Q988.598 116.34 984.373 116.34 Q980.149 116.34 977.718 119.696 Q975.317 123.024 975.317 128.897 Q975.317 134.771 977.718 138.128 Q980.149 141.455 984.373 141.455 Q988.598 141.455 991 138.128 Q993.43 134.771 993.43 128.897 M975.317 117.584 Q976.995 114.69 979.541 113.301 Q982.117 111.884 985.676 111.884 Q991.578 111.884 995.253 116.571 Q998.957 121.259 998.957 128.897 Q998.957 136.536 995.253 141.224 Q991.578 145.911 985.676 145.911 Q982.117 145.911 979.541 144.522 Q976.995 143.105 975.317 140.211 L975.317 145.072 L969.964 145.072 L969.964 100.049 L975.317 100.049 L975.317 117.584 Z" fill="#000000" fill-rule="nonzero" fill-opacity="1" /><path clip-path="url(#clip910)" d="M1007.78 100.049 L1013.11 100.049 L1013.11 145.072 L1007.78 145.072 L1007.78 100.049 Z" fill="#000000" fill-rule="nonzero" fill-opacity="1" /><path clip-path="url(#clip910)" d="M1036.8 116.398 Q1032.52 116.398 1030.03 119.754 Q1027.54 123.082 1027.54 128.897 Q1027.54 134.713 1030 138.07 Q1032.49 141.397 1036.8 141.397 Q1041.06 141.397 1043.55 138.041 Q1046.03 134.684 1046.03 128.897 Q1046.03 123.139 1043.55 119.783 Q1041.06 116.398 1036.8 116.398 M1036.8 111.884 Q1043.75 111.884 1047.71 116.398 Q1051.68 120.911 1051.68 128.897 Q1051.68 136.855 1047.71 141.397 Q1043.75 145.911 1036.8 145.911 Q1029.83 145.911 1025.87 141.397 Q1021.93 136.855 1021.93 128.897 Q1021.93 120.911 1025.87 116.398 Q1029.83 111.884 1036.8 111.884 Z" fill="#000000" fill-rule="nonzero" fill-opacity="1" /><path clip-path="url(#clip910)" d="M1057.41 112.665 L1062.73 112.665 L1069.38 137.954 L1076.01 112.665 L1082.29 112.665 L1088.94 137.954 L1095.57 112.665 L1100.89 112.665 L1092.42 145.072 L1086.14 145.072 L1079.16 118.51 L1072.16 145.072 L1065.88 145.072 L1057.41 112.665 Z" fill="#000000" fill-rule="nonzero" fill-opacity="1" /><path clip-path="url(#clip910)" d="M1130.29 117.584 L1130.29 100.049 L1135.62 100.049 L1135.62 145.072 L1130.29 145.072 L1130.29 140.211 Q1128.61 143.105 1126.04 144.522 Q1123.49 145.911 1119.91 145.911 Q1114.03 145.911 1110.33 141.224 Q1106.65 136.536 1106.65 128.897 Q1106.65 121.259 1110.33 116.571 Q1114.03 111.884 1119.91 111.884 Q1123.49 111.884 1126.04 113.301 Q1128.61 114.69 1130.29 117.584 M1112.15 128.897 Q1112.15 134.771 1114.55 138.128 Q1116.98 141.455 1121.21 141.455 Q1125.43 141.455 1127.86 138.128 Q1130.29 134.771 1130.29 128.897 Q1130.29 123.024 1127.86 119.696 Q1125.43 116.34 1121.21 116.34 Q1116.98 116.34 1114.55 119.696 Q1112.15 123.024 1112.15 128.897 Z" fill="#000000" fill-rule="nonzero" fill-opacity="1" /><path clip-path="url(#clip910)" d="M1159.14 116.398 Q1154.86 116.398 1152.37 119.754 Q1149.88 123.082 1149.88 128.897 Q1149.88 134.713 1152.34 138.07 Q1154.83 141.397 1159.14 141.397 Q1163.39 141.397 1165.88 138.041 Q1168.37 134.684 1168.37 128.897 Q1168.37 123.139 1165.88 119.783 Q1163.39 116.398 1159.14 116.398 M1159.14 111.884 Q1166.09 111.884 1170.05 116.398 Q1174.01 120.911 1174.01 128.897 Q1174.01 136.855 1170.05 141.397 Q1166.09 145.911 1159.14 145.911 Q1152.17 145.911 1148.2 141.397 Q1144.27 136.855 1144.27 128.897 Q1144.27 120.911 1148.2 116.398 Q1152.17 111.884 1159.14 111.884 Z" fill="#000000" fill-rule="nonzero" fill-opacity="1" /><path clip-path="url(#clip910)" d="M1179.74 112.665 L1185.07 112.665 L1191.72 137.954 L1198.35 112.665 L1204.63 112.665 L1211.28 137.954 L1217.91 112.665 L1223.23 112.665 L1214.75 145.072 L1208.48 145.072 L1201.5 118.51 L1194.5 145.072 L1188.22 145.072 L1179.74 112.665 Z" fill="#000000" fill-rule="nonzero" fill-opacity="1" /><path clip-path="url(#clip910)" d="M1258.24 125.512 L1258.24 145.072 L1252.92 145.072 L1252.92 125.686 Q1252.92 121.085 1251.13 118.799 Q1249.33 116.513 1245.74 116.513 Q1241.43 116.513 1238.94 119.262 Q1236.46 122.011 1236.46 126.756 L1236.46 145.072 L1231.1 145.072 L1231.1 112.665 L1236.46 112.665 L1236.46 117.7 Q1238.37 114.777 1240.94 113.33 Q1243.54 111.884 1246.93 111.884 Q1252.51 111.884 1255.38 115.356 Q1258.24 118.799 1258.24 125.512 Z" fill="#000000" fill-rule="nonzero" fill-opacity="1" /></svg>
