<?xml version="1.0" encoding="utf-8"?>
<svg xmlns="http://www.w3.org/2000/svg" xmlns:xlink="http://www.w3.org/1999/xlink" width="600" height="400" viewBox="0 0 2400 1600">
<defs>
  <clipPath id="clip370">
    <rect x="0" y="0" width="2400" height="1600"/>
  </clipPath>
</defs>
<path clip-path="url(#clip370)" d="
M0 1600 L2400 1600 L2400 0 L0 0  Z
  " fill="#ffffff" fill-rule="evenodd" fill-opacity="1"/>
<defs>
  <clipPath id="clip371">
    <rect x="480" y="0" width="1681" height="1600"/>
  </clipPath>
</defs>
<path clip-path="url(#clip370)" d="
M234.125 1423.18 L2352.76 1423.18 L2352.76 123.472 L234.125 123.472  Z
  " fill="#ffffff" fill-rule="evenodd" fill-opacity="1"/>
<defs>
  <clipPath id="clip372">
    <rect x="234" y="123" width="2120" height="1301"/>
  </clipPath>
</defs>
<polyline clip-path="url(#clip372)" style="stroke:#000000; stroke-linecap:butt; stroke-linejoin:round; stroke-width:2; stroke-opacity:0.1; fill:none" points="
  294.087,1423.18 294.087,123.472 
  "/>
<polyline clip-path="url(#clip372)" style="stroke:#000000; stroke-linecap:butt; stroke-linejoin:round; stroke-width:2; stroke-opacity:0.1; fill:none" points="
  693.828,1423.18 693.828,123.472 
  "/>
<polyline clip-path="url(#clip372)" style="stroke:#000000; stroke-linecap:butt; stroke-linejoin:round; stroke-width:2; stroke-opacity:0.1; fill:none" points="
  1093.57,1423.18 1093.57,123.472 
  "/>
<polyline clip-path="url(#clip372)" style="stroke:#000000; stroke-linecap:butt; stroke-linejoin:round; stroke-width:2; stroke-opacity:0.1; fill:none" points="
  1493.31,1423.18 1493.31,123.472 
  "/>
<polyline clip-path="url(#clip372)" style="stroke:#000000; stroke-linecap:butt; stroke-linejoin:round; stroke-width:2; stroke-opacity:0.1; fill:none" points="
  1893.05,1423.18 1893.05,123.472 
  "/>
<polyline clip-path="url(#clip372)" style="stroke:#000000; stroke-linecap:butt; stroke-linejoin:round; stroke-width:2; stroke-opacity:0.1; fill:none" points="
  2292.79,1423.18 2292.79,123.472 
  "/>
<polyline clip-path="url(#clip370)" style="stroke:#000000; stroke-linecap:butt; stroke-linejoin:round; stroke-width:4; stroke-opacity:1; fill:none" points="
  234.125,1423.18 2352.76,1423.18 
  "/>
<polyline clip-path="url(#clip370)" style="stroke:#000000; stroke-linecap:butt; stroke-linejoin:round; stroke-width:4; stroke-opacity:1; fill:none" points="
  294.087,1423.18 294.087,1404.28 
  "/>
<polyline clip-path="url(#clip370)" style="stroke:#000000; stroke-linecap:butt; stroke-linejoin:round; stroke-width:4; stroke-opacity:1; fill:none" points="
  693.828,1423.18 693.828,1404.28 
  "/>
<polyline clip-path="url(#clip370)" style="stroke:#000000; stroke-linecap:butt; stroke-linejoin:round; stroke-width:4; stroke-opacity:1; fill:none" points="
  1093.57,1423.18 1093.57,1404.28 
  "/>
<polyline clip-path="url(#clip370)" style="stroke:#000000; stroke-linecap:butt; stroke-linejoin:round; stroke-width:4; stroke-opacity:1; fill:none" points="
  1493.31,1423.18 1493.31,1404.28 
  "/>
<polyline clip-path="url(#clip370)" style="stroke:#000000; stroke-linecap:butt; stroke-linejoin:round; stroke-width:4; stroke-opacity:1; fill:none" points="
  1893.05,1423.18 1893.05,1404.28 
  "/>
<polyline clip-path="url(#clip370)" style="stroke:#000000; stroke-linecap:butt; stroke-linejoin:round; stroke-width:4; stroke-opacity:1; fill:none" points="
  2292.79,1423.18 2292.79,1404.28 
  "/>
<path clip-path="url(#clip370)" d="M294.087 1454.1 Q290.476 1454.1 288.647 1457.66 Q286.841 1461.2 286.841 1468.33 Q286.841 1475.44 288.647 1479.01 Q290.476 1482.55 294.087 1482.55 Q297.721 1482.55 299.526 1479.01 Q301.355 1475.44 301.355 1468.33 Q301.355 1461.2 299.526 1457.66 Q297.721 1454.1 294.087 1454.1 M294.087 1450.39 Q299.897 1450.39 302.952 1455 Q306.031 1459.58 306.031 1468.33 Q306.031 1477.06 302.952 1481.67 Q299.897 1486.25 294.087 1486.25 Q288.277 1486.25 285.198 1481.67 Q282.142 1477.06 282.142 1468.33 Q282.142 1459.58 285.198 1455 Q288.277 1450.39 294.087 1450.39 Z" fill="#000000" fill-rule="evenodd" fill-opacity="1" /><path clip-path="url(#clip370)" d="M684.21 1481.64 L691.849 1481.64 L691.849 1455.28 L683.539 1456.95 L683.539 1452.69 L691.803 1451.02 L696.479 1451.02 L696.479 1481.64 L704.118 1481.64 L704.118 1485.58 L684.21 1485.58 L684.21 1481.64 Z" fill="#000000" fill-rule="evenodd" fill-opacity="1" /><path clip-path="url(#clip370)" d="M1088.22 1481.64 L1104.54 1481.64 L1104.54 1485.58 L1082.6 1485.58 L1082.6 1481.64 Q1085.26 1478.89 1089.84 1474.26 Q1094.45 1469.61 1095.63 1468.27 Q1097.88 1465.74 1098.76 1464.01 Q1099.66 1462.25 1099.66 1460.56 Q1099.66 1457.8 1097.71 1456.07 Q1095.79 1454.33 1092.69 1454.33 Q1090.49 1454.33 1088.04 1455.09 Q1085.61 1455.86 1082.83 1457.41 L1082.83 1452.69 Q1085.65 1451.55 1088.11 1450.97 Q1090.56 1450.39 1092.6 1450.39 Q1097.97 1450.39 1101.16 1453.08 Q1104.36 1455.77 1104.36 1460.26 Q1104.36 1462.39 1103.55 1464.31 Q1102.76 1466.2 1100.65 1468.8 Q1100.07 1469.47 1096.97 1472.69 Q1093.87 1475.88 1088.22 1481.64 Z" fill="#000000" fill-rule="evenodd" fill-opacity="1" /><path clip-path="url(#clip370)" d="M1497.56 1466.95 Q1500.92 1467.66 1502.79 1469.93 Q1504.69 1472.2 1504.69 1475.53 Q1504.69 1480.65 1501.17 1483.45 Q1497.65 1486.25 1491.17 1486.25 Q1488.99 1486.25 1486.68 1485.81 Q1484.39 1485.39 1481.93 1484.54 L1481.93 1480.02 Q1483.88 1481.16 1486.19 1481.74 Q1488.51 1482.32 1491.03 1482.32 Q1495.43 1482.32 1497.72 1480.58 Q1500.04 1478.84 1500.04 1475.53 Q1500.04 1472.48 1497.88 1470.77 Q1495.75 1469.03 1491.93 1469.03 L1487.91 1469.03 L1487.91 1465.19 L1492.12 1465.19 Q1495.57 1465.19 1497.4 1463.82 Q1499.23 1462.43 1499.23 1459.84 Q1499.23 1457.18 1497.33 1455.77 Q1495.45 1454.33 1491.93 1454.33 Q1490.01 1454.33 1487.81 1454.75 Q1485.61 1455.16 1482.98 1456.04 L1482.98 1451.88 Q1485.64 1451.14 1487.95 1450.77 Q1490.29 1450.39 1492.35 1450.39 Q1497.67 1450.39 1500.78 1452.83 Q1503.88 1455.23 1503.88 1459.35 Q1503.88 1462.22 1502.24 1464.21 Q1500.59 1466.18 1497.56 1466.95 Z" fill="#000000" fill-rule="evenodd" fill-opacity="1" /><path clip-path="url(#clip370)" d="M1896.06 1455.09 L1884.26 1473.54 L1896.06 1473.54 L1896.06 1455.09 M1894.84 1451.02 L1900.72 1451.02 L1900.72 1473.54 L1905.65 1473.54 L1905.65 1477.43 L1900.72 1477.43 L1900.72 1485.58 L1896.06 1485.58 L1896.06 1477.43 L1880.46 1477.43 L1880.46 1472.92 L1894.84 1451.02 Z" fill="#000000" fill-rule="evenodd" fill-opacity="1" /><path clip-path="url(#clip370)" d="M2283.07 1451.02 L2301.43 1451.02 L2301.43 1454.96 L2287.35 1454.96 L2287.35 1463.43 Q2288.37 1463.08 2289.39 1462.92 Q2290.41 1462.73 2291.43 1462.73 Q2297.22 1462.73 2300.6 1465.9 Q2303.98 1469.08 2303.98 1474.49 Q2303.98 1480.07 2300.5 1483.17 Q2297.03 1486.25 2290.71 1486.25 Q2288.54 1486.25 2286.27 1485.88 Q2284.02 1485.51 2281.61 1484.77 L2281.61 1480.07 Q2283.7 1481.2 2285.92 1481.76 Q2288.14 1482.32 2290.62 1482.32 Q2294.62 1482.32 2296.96 1480.21 Q2299.3 1478.1 2299.3 1474.49 Q2299.3 1470.88 2296.96 1468.77 Q2294.62 1466.67 2290.62 1466.67 Q2288.74 1466.67 2286.87 1467.08 Q2285.02 1467.5 2283.07 1468.38 L2283.07 1451.02 Z" fill="#000000" fill-rule="evenodd" fill-opacity="1" /><path clip-path="url(#clip370)" d="M985.213 1532.4 L991.07 1532.4 L998.39 1560.21 L1005.68 1532.4 L1012.59 1532.4 L1019.91 1560.21 L1027.19 1532.4 L1033.05 1532.4 L1023.73 1568.04 L1016.82 1568.04 L1009.15 1538.83 L1001.45 1568.04 L994.539 1568.04 L985.213 1532.4 Z" fill="#000000" fill-rule="evenodd" fill-opacity="1" /><path clip-path="url(#clip370)" d="M1041.93 1532.4 L1047.79 1532.4 L1047.79 1568.04 L1041.93 1568.04 L1041.93 1532.4 M1041.93 1518.52 L1047.79 1518.52 L1047.79 1525.93 L1041.93 1525.93 L1041.93 1518.52 Z" fill="#000000" fill-rule="evenodd" fill-opacity="1" /><path clip-path="url(#clip370)" d="M1089.67 1546.53 L1089.67 1568.04 L1083.82 1568.04 L1083.82 1546.72 Q1083.82 1541.66 1081.84 1539.14 Q1079.87 1536.63 1075.92 1536.63 Q1071.18 1536.63 1068.44 1539.65 Q1065.71 1542.68 1065.71 1547.9 L1065.71 1568.04 L1059.82 1568.04 L1059.82 1532.4 L1065.71 1532.4 L1065.71 1537.93 Q1067.81 1534.72 1070.64 1533.13 Q1073.51 1531.54 1077.23 1531.54 Q1083.37 1531.54 1086.52 1535.36 Q1089.67 1539.14 1089.67 1546.53 Z" fill="#000000" fill-rule="evenodd" fill-opacity="1" /><path clip-path="url(#clip370)" d="M1124.81 1537.81 L1124.81 1518.52 L1130.67 1518.52 L1130.67 1568.04 L1124.81 1568.04 L1124.81 1562.7 Q1122.97 1565.88 1120.13 1567.44 Q1117.33 1568.97 1113.39 1568.97 Q1106.93 1568.97 1102.85 1563.81 Q1098.81 1558.65 1098.81 1550.25 Q1098.81 1541.85 1102.85 1536.69 Q1106.93 1531.54 1113.39 1531.54 Q1117.33 1531.54 1120.13 1533.1 Q1122.97 1534.62 1124.81 1537.81 M1104.86 1550.25 Q1104.86 1556.71 1107.5 1560.4 Q1110.17 1564.07 1114.82 1564.07 Q1119.47 1564.07 1122.14 1560.4 Q1124.81 1556.71 1124.81 1550.25 Q1124.81 1543.79 1122.14 1540.13 Q1119.47 1536.44 1114.82 1536.44 Q1110.17 1536.44 1107.5 1540.13 Q1104.86 1543.79 1104.86 1550.25 Z" fill="#000000" fill-rule="evenodd" fill-opacity="1" /><path clip-path="url(#clip370)" d="M1165.46 1533.45 L1165.46 1538.98 Q1162.98 1537.71 1160.3 1537.07 Q1157.63 1536.44 1154.76 1536.44 Q1150.4 1536.44 1148.21 1537.77 Q1146.04 1539.11 1146.04 1541.79 Q1146.04 1543.82 1147.6 1545 Q1149.16 1546.15 1153.87 1547.2 L1155.88 1547.64 Q1162.12 1548.98 1164.73 1551.43 Q1167.37 1553.85 1167.37 1558.21 Q1167.37 1563.17 1163.42 1566.07 Q1159.51 1568.97 1152.63 1568.97 Q1149.77 1568.97 1146.65 1568.39 Q1143.56 1567.85 1140.12 1566.74 L1140.12 1560.69 Q1143.37 1562.38 1146.52 1563.24 Q1149.67 1564.07 1152.76 1564.07 Q1156.9 1564.07 1159.12 1562.66 Q1161.35 1561.23 1161.35 1558.65 Q1161.35 1556.27 1159.73 1554.99 Q1158.14 1553.72 1152.69 1552.54 L1150.66 1552.07 Q1145.22 1550.92 1142.8 1548.56 Q1140.38 1546.18 1140.38 1542.04 Q1140.38 1537.01 1143.94 1534.27 Q1147.51 1531.54 1154.06 1531.54 Q1157.31 1531.54 1160.17 1532.01 Q1163.04 1532.49 1165.46 1533.45 Z" fill="#000000" fill-rule="evenodd" fill-opacity="1" /><path clip-path="url(#clip370)" d="M1182.36 1562.7 L1182.36 1581.6 L1176.47 1581.6 L1176.47 1532.4 L1182.36 1532.4 L1182.36 1537.81 Q1184.21 1534.62 1187.01 1533.1 Q1189.84 1531.54 1193.75 1531.54 Q1200.25 1531.54 1204.29 1536.69 Q1208.36 1541.85 1208.36 1550.25 Q1208.36 1558.65 1204.29 1563.81 Q1200.25 1568.97 1193.75 1568.97 Q1189.84 1568.97 1187.01 1567.44 Q1184.21 1565.88 1182.36 1562.7 M1202.28 1550.25 Q1202.28 1543.79 1199.61 1540.13 Q1196.97 1536.44 1192.32 1536.44 Q1187.67 1536.44 1185 1540.13 Q1182.36 1543.79 1182.36 1550.25 Q1182.36 1556.71 1185 1560.4 Q1187.67 1564.07 1192.32 1564.07 Q1196.97 1564.07 1199.61 1560.4 Q1202.28 1556.71 1202.28 1550.25 Z" fill="#000000" fill-rule="evenodd" fill-opacity="1" /><path clip-path="url(#clip370)" d="M1248.56 1548.76 L1248.56 1551.62 L1221.64 1551.62 Q1222.02 1557.67 1225.26 1560.85 Q1228.54 1564 1234.37 1564 Q1237.74 1564 1240.89 1563.17 Q1244.07 1562.35 1247.19 1560.69 L1247.19 1566.23 Q1244.04 1567.57 1240.73 1568.27 Q1237.42 1568.97 1234.02 1568.97 Q1225.49 1568.97 1220.49 1564 Q1215.52 1559.04 1215.52 1550.57 Q1215.52 1541.82 1220.24 1536.69 Q1224.98 1531.54 1233 1531.54 Q1240.19 1531.54 1244.36 1536.18 Q1248.56 1540.8 1248.56 1548.76 M1242.71 1547.04 Q1242.64 1542.23 1240 1539.37 Q1237.39 1536.5 1233.06 1536.5 Q1228.16 1536.5 1225.2 1539.27 Q1222.27 1542.04 1221.83 1547.07 L1242.71 1547.04 Z" fill="#000000" fill-rule="evenodd" fill-opacity="1" /><path clip-path="url(#clip370)" d="M1288.67 1548.76 L1288.67 1551.62 L1261.74 1551.62 Q1262.12 1557.67 1265.37 1560.85 Q1268.65 1564 1274.47 1564 Q1277.84 1564 1281 1563.17 Q1284.18 1562.35 1287.3 1560.69 L1287.3 1566.23 Q1284.15 1567.57 1280.84 1568.27 Q1277.53 1568.97 1274.12 1568.97 Q1265.59 1568.97 1260.59 1564 Q1255.63 1559.04 1255.63 1550.57 Q1255.63 1541.82 1260.34 1536.69 Q1265.08 1531.54 1273.1 1531.54 Q1280.3 1531.54 1284.47 1536.18 Q1288.67 1540.8 1288.67 1548.76 M1282.81 1547.04 Q1282.75 1542.23 1280.1 1539.37 Q1277.49 1536.5 1273.17 1536.5 Q1268.26 1536.5 1265.3 1539.27 Q1262.38 1542.04 1261.93 1547.07 L1282.81 1547.04 Z" fill="#000000" fill-rule="evenodd" fill-opacity="1" /><path clip-path="url(#clip370)" d="M1321.74 1537.81 L1321.74 1518.52 L1327.59 1518.52 L1327.59 1568.04 L1321.74 1568.04 L1321.74 1562.7 Q1319.89 1565.88 1317.06 1567.44 Q1314.26 1568.97 1310.31 1568.97 Q1303.85 1568.97 1299.77 1563.81 Q1295.73 1558.65 1295.73 1550.25 Q1295.73 1541.85 1299.77 1536.69 Q1303.85 1531.54 1310.31 1531.54 Q1314.26 1531.54 1317.06 1533.1 Q1319.89 1534.62 1321.74 1537.81 M1301.78 1550.25 Q1301.78 1556.71 1304.42 1560.4 Q1307.1 1564.07 1311.74 1564.07 Q1316.39 1564.07 1319.06 1560.4 Q1321.74 1556.71 1321.74 1550.25 Q1321.74 1543.79 1319.06 1540.13 Q1316.39 1536.44 1311.74 1536.44 Q1307.1 1536.44 1304.42 1540.13 Q1301.78 1543.79 1301.78 1550.25 Z" fill="#000000" fill-rule="evenodd" fill-opacity="1" /><path clip-path="url(#clip370)" d="M1341.15 1559.96 L1347.87 1559.96 L1347.87 1565.43 L1342.65 1575.62 L1338.54 1575.62 L1341.15 1565.43 L1341.15 1559.96 Z" fill="#000000" fill-rule="evenodd" fill-opacity="1" /><path clip-path="url(#clip370)" d="M1380.49 1553.98 L1380.49 1532.4 L1386.35 1532.4 L1386.35 1553.75 Q1386.35 1558.81 1388.32 1561.36 Q1390.29 1563.87 1394.24 1563.87 Q1398.98 1563.87 1401.72 1560.85 Q1404.49 1557.83 1404.49 1552.61 L1404.49 1532.4 L1410.35 1532.4 L1410.35 1568.04 L1404.49 1568.04 L1404.49 1562.57 Q1402.36 1565.82 1399.53 1567.41 Q1396.72 1568.97 1393 1568.97 Q1386.86 1568.97 1383.67 1565.15 Q1380.49 1561.33 1380.49 1553.98 M1395.23 1531.54 L1395.23 1531.54 Z" fill="#000000" fill-rule="evenodd" fill-opacity="1" /><path clip-path="url(#clip370)" d="M1457.2 1518.58 Q1452.93 1525.9 1450.86 1533.06 Q1448.8 1540.23 1448.8 1547.58 Q1448.8 1554.93 1450.86 1562.16 Q1452.97 1569.35 1457.2 1576.64 L1452.11 1576.64 Q1447.33 1569.16 1444.94 1561.93 Q1442.59 1554.71 1442.59 1547.58 Q1442.59 1540.48 1444.94 1533.29 Q1447.3 1526.09 1452.11 1518.58 L1457.2 1518.58 Z" fill="#000000" fill-rule="evenodd" fill-opacity="1" /><path clip-path="url(#clip370)" d="M1496.32 1539.24 Q1498.51 1535.29 1501.57 1533.41 Q1504.62 1531.54 1508.76 1531.54 Q1514.33 1531.54 1517.35 1535.45 Q1520.38 1539.33 1520.38 1546.53 L1520.38 1568.04 L1514.49 1568.04 L1514.49 1546.72 Q1514.49 1541.59 1512.68 1539.11 Q1510.86 1536.63 1507.14 1536.63 Q1502.59 1536.63 1499.94 1539.65 Q1497.3 1542.68 1497.3 1547.9 L1497.3 1568.04 L1491.41 1568.04 L1491.41 1546.72 Q1491.41 1541.56 1489.6 1539.11 Q1487.79 1536.63 1484 1536.63 Q1479.51 1536.63 1476.87 1539.68 Q1474.23 1542.71 1474.23 1547.9 L1474.23 1568.04 L1468.34 1568.04 L1468.34 1532.4 L1474.23 1532.4 L1474.23 1537.93 Q1476.23 1534.66 1479.03 1533.1 Q1481.83 1531.54 1485.69 1531.54 Q1489.57 1531.54 1492.27 1533.51 Q1495.01 1535.48 1496.32 1539.24 Z" fill="#000000" fill-rule="evenodd" fill-opacity="1" /><path clip-path="url(#clip370)" d="M1542.47 1520.52 L1547.88 1520.52 L1531.33 1574.09 L1525.92 1574.09 L1542.47 1520.52 Z" fill="#000000" fill-rule="evenodd" fill-opacity="1" /><path clip-path="url(#clip370)" d="M1576.75 1533.45 L1576.75 1538.98 Q1574.26 1537.71 1571.59 1537.07 Q1568.92 1536.44 1566.05 1536.44 Q1561.69 1536.44 1559.5 1537.77 Q1557.33 1539.11 1557.33 1541.79 Q1557.33 1543.82 1558.89 1545 Q1560.45 1546.15 1565.16 1547.2 L1567.17 1547.64 Q1573.4 1548.98 1576.01 1551.43 Q1578.66 1553.85 1578.66 1558.21 Q1578.66 1563.17 1574.71 1566.07 Q1570.79 1568.97 1563.92 1568.97 Q1561.05 1568.97 1557.94 1568.39 Q1554.85 1567.85 1551.41 1566.74 L1551.41 1560.69 Q1554.66 1562.38 1557.81 1563.24 Q1560.96 1564.07 1564.05 1564.07 Q1568.18 1564.07 1570.41 1562.66 Q1572.64 1561.23 1572.64 1558.65 Q1572.64 1556.27 1571.02 1554.99 Q1569.43 1553.72 1563.98 1552.54 L1561.95 1552.07 Q1556.5 1550.92 1554.08 1548.56 Q1551.67 1546.18 1551.67 1542.04 Q1551.67 1537.01 1555.23 1534.27 Q1558.8 1531.54 1565.35 1531.54 Q1568.6 1531.54 1571.46 1532.01 Q1574.33 1532.49 1576.75 1533.45 Z" fill="#000000" fill-rule="evenodd" fill-opacity="1" /><path clip-path="url(#clip370)" d="M1587.06 1518.58 L1592.15 1518.58 Q1596.93 1526.09 1599.28 1533.29 Q1601.67 1540.48 1601.67 1547.58 Q1601.67 1554.71 1599.28 1561.93 Q1596.93 1569.16 1592.15 1576.64 L1587.06 1576.64 Q1591.29 1569.35 1593.36 1562.16 Q1595.46 1554.93 1595.46 1547.58 Q1595.46 1540.23 1593.36 1533.06 Q1591.29 1525.9 1587.06 1518.58 Z" fill="#000000" fill-rule="evenodd" fill-opacity="1" /><polyline clip-path="url(#clip372)" style="stroke:#000000; stroke-linecap:butt; stroke-linejoin:round; stroke-width:2; stroke-opacity:0.1; fill:none" points="
  234.125,1423.18 2352.76,1423.18 
  "/>
<polyline clip-path="url(#clip372)" style="stroke:#000000; stroke-linecap:butt; stroke-linejoin:round; stroke-width:2; stroke-opacity:0.1; fill:none" points="
  234.125,1163.24 2352.76,1163.24 
  "/>
<polyline clip-path="url(#clip372)" style="stroke:#000000; stroke-linecap:butt; stroke-linejoin:round; stroke-width:2; stroke-opacity:0.1; fill:none" points="
  234.125,903.297 2352.76,903.297 
  "/>
<polyline clip-path="url(#clip372)" style="stroke:#000000; stroke-linecap:butt; stroke-linejoin:round; stroke-width:2; stroke-opacity:0.1; fill:none" points="
  234.125,643.355 2352.76,643.355 
  "/>
<polyline clip-path="url(#clip372)" style="stroke:#000000; stroke-linecap:butt; stroke-linejoin:round; stroke-width:2; stroke-opacity:0.1; fill:none" points="
  234.125,383.414 2352.76,383.414 
  "/>
<polyline clip-path="url(#clip372)" style="stroke:#000000; stroke-linecap:butt; stroke-linejoin:round; stroke-width:2; stroke-opacity:0.1; fill:none" points="
  234.125,123.472 2352.76,123.472 
  "/>
<polyline clip-path="url(#clip370)" style="stroke:#000000; stroke-linecap:butt; stroke-linejoin:round; stroke-width:4; stroke-opacity:1; fill:none" points="
  234.125,1423.18 234.125,123.472 
  "/>
<polyline clip-path="url(#clip370)" style="stroke:#000000; stroke-linecap:butt; stroke-linejoin:round; stroke-width:4; stroke-opacity:1; fill:none" points="
  234.125,1423.18 253.023,1423.18 
  "/>
<polyline clip-path="url(#clip370)" style="stroke:#000000; stroke-linecap:butt; stroke-linejoin:round; stroke-width:4; stroke-opacity:1; fill:none" points="
  234.125,1163.24 253.023,1163.24 
  "/>
<polyline clip-path="url(#clip370)" style="stroke:#000000; stroke-linecap:butt; stroke-linejoin:round; stroke-width:4; stroke-opacity:1; fill:none" points="
  234.125,903.297 253.023,903.297 
  "/>
<polyline clip-path="url(#clip370)" style="stroke:#000000; stroke-linecap:butt; stroke-linejoin:round; stroke-width:4; stroke-opacity:1; fill:none" points="
  234.125,643.355 253.023,643.355 
  "/>
<polyline clip-path="url(#clip370)" style="stroke:#000000; stroke-linecap:butt; stroke-linejoin:round; stroke-width:4; stroke-opacity:1; fill:none" points="
  234.125,383.414 253.023,383.414 
  "/>
<polyline clip-path="url(#clip370)" style="stroke:#000000; stroke-linecap:butt; stroke-linejoin:round; stroke-width:4; stroke-opacity:1; fill:none" points="
  234.125,123.472 253.023,123.472 
  "/>
<path clip-path="url(#clip370)" d="M186.181 1408.98 Q182.57 1408.98 180.741 1412.54 Q178.936 1416.08 178.936 1423.21 Q178.936 1430.32 180.741 1433.89 Q182.57 1437.43 186.181 1437.43 Q189.815 1437.43 191.621 1433.89 Q193.45 1430.32 193.45 1423.21 Q193.45 1416.08 191.621 1412.54 Q189.815 1408.98 186.181 1408.98 M186.181 1405.27 Q191.991 1405.27 195.047 1409.88 Q198.125 1414.46 198.125 1423.21 Q198.125 1431.94 195.047 1436.55 Q191.991 1441.13 186.181 1441.13 Q180.371 1441.13 177.292 1436.55 Q174.237 1431.94 174.237 1423.21 Q174.237 1414.46 177.292 1409.88 Q180.371 1405.27 186.181 1405.27 Z" fill="#000000" fill-rule="evenodd" fill-opacity="1" /><path clip-path="url(#clip370)" d="M146.066 1145.96 L164.422 1145.96 L164.422 1149.89 L150.348 1149.89 L150.348 1158.37 Q151.366 1158.02 152.385 1157.86 Q153.403 1157.67 154.422 1157.67 Q160.209 1157.67 163.589 1160.84 Q166.968 1164.01 166.968 1169.43 Q166.968 1175.01 163.496 1178.11 Q160.024 1181.19 153.704 1181.19 Q151.528 1181.19 149.26 1180.82 Q147.015 1180.45 144.607 1179.71 L144.607 1175.01 Q146.691 1176.14 148.913 1176.7 Q151.135 1177.25 153.612 1177.25 Q157.616 1177.25 159.954 1175.15 Q162.292 1173.04 162.292 1169.43 Q162.292 1165.82 159.954 1163.71 Q157.616 1161.61 153.612 1161.61 Q151.737 1161.61 149.862 1162.02 Q148.01 1162.44 146.066 1163.32 L146.066 1145.96 Z" fill="#000000" fill-rule="evenodd" fill-opacity="1" /><path clip-path="url(#clip370)" d="M186.181 1149.04 Q182.57 1149.04 180.741 1152.6 Q178.936 1156.14 178.936 1163.27 Q178.936 1170.38 180.741 1173.94 Q182.57 1177.49 186.181 1177.49 Q189.815 1177.49 191.621 1173.94 Q193.45 1170.38 193.45 1163.27 Q193.45 1156.14 191.621 1152.6 Q189.815 1149.04 186.181 1149.04 M186.181 1145.33 Q191.991 1145.33 195.047 1149.94 Q198.125 1154.52 198.125 1163.27 Q198.125 1172 195.047 1176.61 Q191.991 1181.19 186.181 1181.19 Q180.371 1181.19 177.292 1176.61 Q174.237 1172 174.237 1163.27 Q174.237 1154.52 177.292 1149.94 Q180.371 1145.33 186.181 1145.33 Z" fill="#000000" fill-rule="evenodd" fill-opacity="1" /><path clip-path="url(#clip370)" d="M116.668 916.642 L124.306 916.642 L124.306 890.276 L115.996 891.943 L115.996 887.683 L124.26 886.017 L128.936 886.017 L128.936 916.642 L136.575 916.642 L136.575 920.577 L116.668 920.577 L116.668 916.642 Z" fill="#000000" fill-rule="evenodd" fill-opacity="1" /><path clip-path="url(#clip370)" d="M156.019 889.095 Q152.408 889.095 150.579 892.66 Q148.774 896.202 148.774 903.331 Q148.774 910.438 150.579 914.003 Q152.408 917.544 156.019 917.544 Q159.653 917.544 161.459 914.003 Q163.288 910.438 163.288 903.331 Q163.288 896.202 161.459 892.66 Q159.653 889.095 156.019 889.095 M156.019 885.392 Q161.829 885.392 164.885 889.998 Q167.964 894.582 167.964 903.331 Q167.964 912.058 164.885 916.665 Q161.829 921.248 156.019 921.248 Q150.209 921.248 147.13 916.665 Q144.075 912.058 144.075 903.331 Q144.075 894.582 147.13 889.998 Q150.209 885.392 156.019 885.392 Z" fill="#000000" fill-rule="evenodd" fill-opacity="1" /><path clip-path="url(#clip370)" d="M186.181 889.095 Q182.57 889.095 180.741 892.66 Q178.936 896.202 178.936 903.331 Q178.936 910.438 180.741 914.003 Q182.57 917.544 186.181 917.544 Q189.815 917.544 191.621 914.003 Q193.45 910.438 193.45 903.331 Q193.45 896.202 191.621 892.66 Q189.815 889.095 186.181 889.095 M186.181 885.392 Q191.991 885.392 195.047 889.998 Q198.125 894.582 198.125 903.331 Q198.125 912.058 195.047 916.665 Q191.991 921.248 186.181 921.248 Q180.371 921.248 177.292 916.665 Q174.237 912.058 174.237 903.331 Q174.237 894.582 177.292 889.998 Q180.371 885.392 186.181 885.392 Z" fill="#000000" fill-rule="evenodd" fill-opacity="1" /><path clip-path="url(#clip370)" d="M116.668 656.7 L124.306 656.7 L124.306 630.334 L115.996 632.001 L115.996 627.742 L124.26 626.075 L128.936 626.075 L128.936 656.7 L136.575 656.7 L136.575 660.635 L116.668 660.635 L116.668 656.7 Z" fill="#000000" fill-rule="evenodd" fill-opacity="1" /><path clip-path="url(#clip370)" d="M146.066 626.075 L164.422 626.075 L164.422 630.01 L150.348 630.01 L150.348 638.483 Q151.366 638.135 152.385 637.973 Q153.403 637.788 154.422 637.788 Q160.209 637.788 163.589 640.959 Q166.968 644.131 166.968 649.547 Q166.968 655.126 163.496 658.228 Q160.024 661.307 153.704 661.307 Q151.528 661.307 149.26 660.936 Q147.015 660.566 144.607 659.825 L144.607 655.126 Q146.691 656.26 148.913 656.816 Q151.135 657.371 153.612 657.371 Q157.616 657.371 159.954 655.265 Q162.292 653.158 162.292 649.547 Q162.292 645.936 159.954 643.83 Q157.616 641.723 153.612 641.723 Q151.737 641.723 149.862 642.14 Q148.01 642.557 146.066 643.436 L146.066 626.075 Z" fill="#000000" fill-rule="evenodd" fill-opacity="1" /><path clip-path="url(#clip370)" d="M186.181 629.154 Q182.57 629.154 180.741 632.719 Q178.936 636.26 178.936 643.39 Q178.936 650.496 180.741 654.061 Q182.57 657.603 186.181 657.603 Q189.815 657.603 191.621 654.061 Q193.45 650.496 193.45 643.39 Q193.45 636.26 191.621 632.719 Q189.815 629.154 186.181 629.154 M186.181 625.45 Q191.991 625.45 195.047 630.057 Q198.125 634.64 198.125 643.39 Q198.125 652.117 195.047 656.723 Q191.991 661.307 186.181 661.307 Q180.371 661.307 177.292 656.723 Q174.237 652.117 174.237 643.39 Q174.237 634.64 177.292 630.057 Q180.371 625.45 186.181 625.45 Z" fill="#000000" fill-rule="evenodd" fill-opacity="1" /><path clip-path="url(#clip370)" d="M119.885 396.759 L136.204 396.759 L136.204 400.694 L114.26 400.694 L114.26 396.759 Q116.922 394.004 121.505 389.374 Q126.112 384.722 127.292 383.379 Q129.538 380.856 130.417 379.12 Q131.32 377.36 131.32 375.671 Q131.32 372.916 129.376 371.18 Q127.455 369.444 124.353 369.444 Q122.154 369.444 119.7 370.208 Q117.269 370.972 114.492 372.523 L114.492 367.8 Q117.316 366.666 119.769 366.087 Q122.223 365.509 124.26 365.509 Q129.63 365.509 132.825 368.194 Q136.019 370.879 136.019 375.37 Q136.019 377.499 135.209 379.421 Q134.422 381.319 132.316 383.911 Q131.737 384.583 128.635 387.8 Q125.533 390.995 119.885 396.759 Z" fill="#000000" fill-rule="evenodd" fill-opacity="1" /><path clip-path="url(#clip370)" d="M156.019 369.212 Q152.408 369.212 150.579 372.777 Q148.774 376.319 148.774 383.448 Q148.774 390.555 150.579 394.12 Q152.408 397.661 156.019 397.661 Q159.653 397.661 161.459 394.12 Q163.288 390.555 163.288 383.448 Q163.288 376.319 161.459 372.777 Q159.653 369.212 156.019 369.212 M156.019 365.509 Q161.829 365.509 164.885 370.115 Q167.964 374.698 167.964 383.448 Q167.964 392.175 164.885 396.782 Q161.829 401.365 156.019 401.365 Q150.209 401.365 147.13 396.782 Q144.075 392.175 144.075 383.448 Q144.075 374.698 147.13 370.115 Q150.209 365.509 156.019 365.509 Z" fill="#000000" fill-rule="evenodd" fill-opacity="1" /><path clip-path="url(#clip370)" d="M186.181 369.212 Q182.57 369.212 180.741 372.777 Q178.936 376.319 178.936 383.448 Q178.936 390.555 180.741 394.12 Q182.57 397.661 186.181 397.661 Q189.815 397.661 191.621 394.12 Q193.45 390.555 193.45 383.448 Q193.45 376.319 191.621 372.777 Q189.815 369.212 186.181 369.212 M186.181 365.509 Q191.991 365.509 195.047 370.115 Q198.125 374.698 198.125 383.448 Q198.125 392.175 195.047 396.782 Q191.991 401.365 186.181 401.365 Q180.371 401.365 177.292 396.782 Q174.237 392.175 174.237 383.448 Q174.237 374.698 177.292 370.115 Q180.371 365.509 186.181 365.509 Z" fill="#000000" fill-rule="evenodd" fill-opacity="1" /><path clip-path="url(#clip370)" d="M119.885 136.817 L136.204 136.817 L136.204 140.752 L114.26 140.752 L114.26 136.817 Q116.922 134.062 121.505 129.433 Q126.112 124.78 127.292 123.437 Q129.538 120.914 130.417 119.178 Q131.32 117.419 131.32 115.729 Q131.32 112.974 129.376 111.238 Q127.455 109.502 124.353 109.502 Q122.154 109.502 119.7 110.266 Q117.269 111.03 114.492 112.581 L114.492 107.859 Q117.316 106.725 119.769 106.146 Q122.223 105.567 124.26 105.567 Q129.63 105.567 132.825 108.252 Q136.019 110.937 136.019 115.428 Q136.019 117.558 135.209 119.479 Q134.422 121.377 132.316 123.97 Q131.737 124.641 128.635 127.859 Q125.533 131.053 119.885 136.817 Z" fill="#000000" fill-rule="evenodd" fill-opacity="1" /><path clip-path="url(#clip370)" d="M146.066 106.192 L164.422 106.192 L164.422 110.127 L150.348 110.127 L150.348 118.599 Q151.366 118.252 152.385 118.09 Q153.403 117.905 154.422 117.905 Q160.209 117.905 163.589 121.076 Q166.968 124.248 166.968 129.664 Q166.968 135.243 163.496 138.345 Q160.024 141.423 153.704 141.423 Q151.528 141.423 149.26 141.053 Q147.015 140.683 144.607 139.942 L144.607 135.243 Q146.691 136.377 148.913 136.933 Q151.135 137.488 153.612 137.488 Q157.616 137.488 159.954 135.382 Q162.292 133.275 162.292 129.664 Q162.292 126.053 159.954 123.947 Q157.616 121.84 153.612 121.84 Q151.737 121.84 149.862 122.257 Q148.01 122.674 146.066 123.553 L146.066 106.192 Z" fill="#000000" fill-rule="evenodd" fill-opacity="1" /><path clip-path="url(#clip370)" d="M186.181 109.271 Q182.57 109.271 180.741 112.836 Q178.936 116.377 178.936 123.507 Q178.936 130.613 180.741 134.178 Q182.57 137.72 186.181 137.72 Q189.815 137.72 191.621 134.178 Q193.45 130.613 193.45 123.507 Q193.45 116.377 191.621 112.836 Q189.815 109.271 186.181 109.271 M186.181 105.567 Q191.991 105.567 195.047 110.174 Q198.125 114.757 198.125 123.507 Q198.125 132.234 195.047 136.84 Q191.991 141.423 186.181 141.423 Q180.371 141.423 177.292 136.84 Q174.237 132.234 174.237 123.507 Q174.237 114.757 177.292 110.174 Q180.371 105.567 186.181 105.567 Z" fill="#000000" fill-rule="evenodd" fill-opacity="1" /><path clip-path="url(#clip370)" d="M44.7161 1156.51 L47.5806 1156.51 L47.5806 1183.44 Q53.6281 1183.05 56.8109 1179.81 Q59.9619 1176.53 59.9619 1170.71 Q59.9619 1167.33 59.1344 1164.18 Q58.3069 1161 56.6518 1157.88 L62.1899 1157.88 Q63.5267 1161.03 64.227 1164.34 Q64.9272 1167.65 64.9272 1171.06 Q64.9272 1179.59 59.9619 1184.58 Q54.9967 1189.55 46.5303 1189.55 Q37.7774 1189.55 32.6531 1184.84 Q27.4968 1180.09 27.4968 1172.07 Q27.4968 1164.88 32.1438 1160.71 Q36.7589 1156.51 44.7161 1156.51 M42.9973 1162.37 Q38.1912 1162.43 35.3266 1165.07 Q32.4621 1167.68 32.4621 1172.01 Q32.4621 1176.91 35.2312 1179.87 Q38.0002 1182.8 43.0292 1183.25 L42.9973 1162.37 Z" fill="#000000" fill-rule="evenodd" fill-opacity="1" /><path clip-path="url(#clip370)" d="M14.479 1128.85 L19.3487 1128.85 L19.3487 1134.45 Q19.3487 1137.6 20.6219 1138.84 Q21.895 1140.05 25.2052 1140.05 L28.3562 1140.05 L28.3562 1130.41 L32.9077 1130.41 L32.9077 1140.05 L64.0042 1140.05 L64.0042 1145.94 L32.9077 1145.94 L32.9077 1151.54 L28.3562 1151.54 L28.3562 1145.94 L25.8736 1145.94 Q19.9216 1145.94 17.2162 1143.17 Q14.479 1140.4 14.479 1134.39 L14.479 1128.85 Z" fill="#000000" fill-rule="evenodd" fill-opacity="1" /><path clip-path="url(#clip370)" d="M14.479 1105.9 L19.3487 1105.9 L19.3487 1111.5 Q19.3487 1114.66 20.6219 1115.9 Q21.895 1117.11 25.2052 1117.11 L28.3562 1117.11 L28.3562 1107.46 L32.9077 1107.46 L32.9077 1117.11 L64.0042 1117.11 L64.0042 1122.99 L32.9077 1122.99 L32.9077 1128.6 L28.3562 1128.6 L28.3562 1122.99 L25.8736 1122.99 Q19.9216 1122.99 17.2162 1120.23 Q14.479 1117.46 14.479 1111.44 L14.479 1105.9 Z" fill="#000000" fill-rule="evenodd" fill-opacity="1" /><path clip-path="url(#clip370)" d="M44.7161 1070.51 L47.5806 1070.51 L47.5806 1097.44 Q53.6281 1097.05 56.8109 1093.81 Q59.9619 1090.53 59.9619 1084.7 Q59.9619 1081.33 59.1344 1078.18 Q58.3069 1075 56.6518 1071.88 L62.1899 1071.88 Q63.5267 1075.03 64.227 1078.34 Q64.9272 1081.65 64.9272 1085.05 Q64.9272 1093.58 59.9619 1098.58 Q54.9967 1103.55 46.5303 1103.55 Q37.7774 1103.55 32.6531 1098.84 Q27.4968 1094.09 27.4968 1086.07 Q27.4968 1078.88 32.1438 1074.71 Q36.7589 1070.51 44.7161 1070.51 M42.9973 1076.37 Q38.1912 1076.43 35.3266 1079.07 Q32.4621 1081.68 32.4621 1086.01 Q32.4621 1090.91 35.2312 1093.87 Q38.0002 1096.8 43.0292 1097.24 L42.9973 1076.37 Z" fill="#000000" fill-rule="evenodd" fill-opacity="1" /><path clip-path="url(#clip370)" d="M29.7248 1035.24 L35.1993 1035.24 Q33.8307 1037.73 33.1623 1040.24 Q32.4621 1042.72 32.4621 1045.27 Q32.4621 1050.97 36.0905 1054.12 Q39.6872 1057.27 46.212 1057.27 Q52.7369 1057.27 56.3653 1054.12 Q59.9619 1050.97 59.9619 1045.27 Q59.9619 1042.72 59.2935 1040.24 Q58.5933 1037.73 57.2247 1035.24 L62.6355 1035.24 Q63.7814 1037.69 64.3543 1040.34 Q64.9272 1042.95 64.9272 1045.91 Q64.9272 1053.96 59.8664 1058.7 Q54.8057 1063.44 46.212 1063.44 Q37.491 1063.44 32.4939 1058.67 Q27.4968 1053.86 27.4968 1045.52 Q27.4968 1042.82 28.0697 1040.24 Q28.6108 1037.66 29.7248 1035.24 Z" fill="#000000" fill-rule="evenodd" fill-opacity="1" /><path clip-path="url(#clip370)" d="M18.2347 1019.27 L28.3562 1019.27 L28.3562 1007.2 L32.9077 1007.2 L32.9077 1019.27 L52.2594 1019.27 Q56.6199 1019.27 57.8613 1018.09 Q59.1026 1016.88 59.1026 1013.22 L59.1026 1007.2 L64.0042 1007.2 L64.0042 1013.22 Q64.0042 1020 61.4897 1022.58 Q58.9434 1025.15 52.2594 1025.15 L32.9077 1025.15 L32.9077 1029.45 L28.3562 1029.45 L28.3562 1025.15 L18.2347 1025.15 L18.2347 1019.27 Z" fill="#000000" fill-rule="evenodd" fill-opacity="1" /><path clip-path="url(#clip370)" d="M28.3562 999.5 L28.3562 993.643 L64.0042 993.643 L64.0042 999.5 L28.3562 999.5 M14.479 999.5 L14.479 993.643 L21.895 993.643 L21.895 999.5 L14.479 999.5 Z" fill="#000000" fill-rule="evenodd" fill-opacity="1" /><path clip-path="url(#clip370)" d="M28.3562 985.59 L28.3562 979.384 L58.275 968.244 L28.3562 957.104 L28.3562 950.897 L64.0042 964.265 L64.0042 972.222 L28.3562 985.59 Z" fill="#000000" fill-rule="evenodd" fill-opacity="1" /><path clip-path="url(#clip370)" d="M44.7161 912.321 L47.5806 912.321 L47.5806 939.248 Q53.6281 938.866 56.8109 935.62 Q59.9619 932.341 59.9619 926.517 Q59.9619 923.143 59.1344 919.992 Q58.3069 916.809 56.6518 913.69 L62.1899 913.69 Q63.5267 916.841 64.227 920.151 Q64.9272 923.461 64.9272 926.867 Q64.9272 935.397 59.9619 940.394 Q54.9967 945.359 46.5303 945.359 Q37.7774 945.359 32.6531 940.649 Q27.4968 935.906 27.4968 927.885 Q27.4968 920.692 32.1438 916.523 Q36.7589 912.321 44.7161 912.321 M42.9973 918.178 Q38.1912 918.241 35.3266 920.883 Q32.4621 923.493 32.4621 927.822 Q32.4621 932.723 35.2312 935.683 Q38.0002 938.612 43.0292 939.057 L42.9973 918.178 Z" fill="#000000" fill-rule="evenodd" fill-opacity="1" /><path clip-path="url(#clip370)" d="M29.4065 859.263 L34.9447 859.263 Q33.6716 861.746 33.035 864.419 Q32.3984 867.093 32.3984 869.957 Q32.3984 874.318 33.7352 876.514 Q35.072 878.678 37.7456 878.678 Q39.7826 878.678 40.9603 877.119 Q42.1061 875.559 43.1565 870.849 L43.6021 868.843 Q44.9389 862.605 47.3897 859.995 Q49.8086 857.353 54.1691 857.353 Q59.1344 857.353 62.0308 861.3 Q64.9272 865.215 64.9272 872.09 Q64.9272 874.954 64.3543 878.074 Q63.8132 881.161 62.6992 884.599 L56.6518 884.599 Q58.3387 881.352 59.198 878.201 Q60.0256 875.05 60.0256 871.963 Q60.0256 867.825 58.6251 865.597 Q57.1929 863.369 54.6147 863.369 Q52.2276 863.369 50.9545 864.992 Q49.6813 866.584 48.5037 872.026 L48.0262 874.063 Q46.8804 879.506 44.5251 881.925 Q42.138 884.344 38.0002 884.344 Q32.9713 884.344 30.2341 880.779 Q27.4968 877.214 27.4968 870.658 Q27.4968 867.411 27.9743 864.547 Q28.4517 861.682 29.4065 859.263 Z" fill="#000000" fill-rule="evenodd" fill-opacity="1" /><path clip-path="url(#clip370)" d="M18.2347 842.235 L28.3562 842.235 L28.3562 830.172 L32.9077 830.172 L32.9077 842.235 L52.2594 842.235 Q56.6199 842.235 57.8613 841.057 Q59.1026 839.848 59.1026 836.187 L59.1026 830.172 L64.0042 830.172 L64.0042 836.187 Q64.0042 842.967 61.4897 845.545 Q58.9434 848.123 52.2594 848.123 L32.9077 848.123 L32.9077 852.42 L28.3562 852.42 L28.3562 848.123 L18.2347 848.123 L18.2347 842.235 Z" fill="#000000" fill-rule="evenodd" fill-opacity="1" /><path clip-path="url(#clip370)" d="M46.0847 806.269 Q46.0847 813.366 47.7079 816.104 Q49.3312 818.841 53.2461 818.841 Q56.3653 818.841 58.2114 816.804 Q60.0256 814.735 60.0256 811.202 Q60.0256 806.332 56.5881 803.404 Q53.1188 800.444 47.3897 800.444 L46.0847 800.444 L46.0847 806.269 M43.6657 794.587 L64.0042 794.587 L64.0042 800.444 L58.5933 800.444 Q61.8398 802.449 63.3994 805.441 Q64.9272 808.433 64.9272 812.762 Q64.9272 818.236 61.8716 821.483 Q58.7843 824.697 53.6281 824.697 Q47.6125 824.697 44.5569 820.687 Q41.5014 816.645 41.5014 808.656 L41.5014 800.444 L40.9285 800.444 Q36.8862 800.444 34.6901 803.117 Q32.4621 805.759 32.4621 810.565 Q32.4621 813.621 33.1941 816.517 Q33.9262 819.414 35.3903 822.087 L29.9795 822.087 Q28.7381 818.873 28.1334 815.849 Q27.4968 812.825 27.4968 809.961 Q27.4968 802.226 31.5072 798.407 Q35.5176 794.587 43.6657 794.587 Z" fill="#000000" fill-rule="evenodd" fill-opacity="1" /><path clip-path="url(#clip370)" d="M29.7248 756.871 L35.1993 756.871 Q33.8307 759.353 33.1623 761.868 Q32.4621 764.35 32.4621 766.897 Q32.4621 772.594 36.0905 775.745 Q39.6872 778.896 46.212 778.896 Q52.7369 778.896 56.3653 775.745 Q59.9619 772.594 59.9619 766.897 Q59.9619 764.35 59.2935 761.868 Q58.5933 759.353 57.2247 756.871 L62.6355 756.871 Q63.7814 759.321 64.3543 761.963 Q64.9272 764.573 64.9272 767.533 Q64.9272 775.586 59.8664 780.328 Q54.8057 785.071 46.212 785.071 Q37.491 785.071 32.4939 780.296 Q27.4968 775.49 27.4968 767.151 Q27.4968 764.446 28.0697 761.868 Q28.6108 759.29 29.7248 756.871 Z" fill="#000000" fill-rule="evenodd" fill-opacity="1" /><path clip-path="url(#clip370)" d="M14.479 746.908 L14.479 741.02 L43.7294 741.02 L28.3562 723.546 L28.3562 716.066 L45.0344 734.973 L64.0042 715.271 L64.0042 722.91 L46.5939 741.02 L64.0042 741.02 L64.0042 746.908 L14.479 746.908 Z" fill="#000000" fill-rule="evenodd" fill-opacity="1" /><path clip-path="url(#clip370)" d="M42.4881 658.584 L64.0042 658.584 L64.0042 664.441 L42.679 664.441 Q37.6183 664.441 35.1038 666.414 Q32.5894 668.387 32.5894 672.334 Q32.5894 677.076 35.6131 679.814 Q38.6368 682.551 43.8567 682.551 L64.0042 682.551 L64.0042 688.439 L14.479 688.439 L14.479 682.551 L33.8944 682.551 Q30.6797 680.45 29.0883 677.618 Q27.4968 674.753 27.4968 671.029 Q27.4968 664.886 31.3163 661.735 Q35.1038 658.584 42.4881 658.584 Z" fill="#000000" fill-rule="evenodd" fill-opacity="1" /><path clip-path="url(#clip370)" d="M44.7161 616.411 L47.5806 616.411 L47.5806 643.338 Q53.6281 642.956 56.8109 639.71 Q59.9619 636.431 59.9619 630.607 Q59.9619 627.233 59.1344 624.082 Q58.3069 620.899 56.6518 617.78 L62.1899 617.78 Q63.5267 620.931 64.227 624.241 Q64.9272 627.551 64.9272 630.957 Q64.9272 639.487 59.9619 644.484 Q54.9967 649.449 46.5303 649.449 Q37.7774 649.449 32.6531 644.739 Q27.4968 639.996 27.4968 631.975 Q27.4968 624.782 32.1438 620.613 Q36.7589 616.411 44.7161 616.411 M42.9973 622.268 Q38.1912 622.331 35.3266 624.973 Q32.4621 627.583 32.4621 631.912 Q32.4621 636.813 35.2312 639.773 Q38.0002 642.702 43.0292 643.147 L42.9973 622.268 Z" fill="#000000" fill-rule="evenodd" fill-opacity="1" /><path clip-path="url(#clip370)" d="M28.3562 606.799 L28.3562 600.943 L64.0042 600.943 L64.0042 606.799 L28.3562 606.799 M14.479 606.799 L14.479 600.943 L21.895 600.943 L21.895 606.799 L14.479 606.799 Z" fill="#000000" fill-rule="evenodd" fill-opacity="1" /><path clip-path="url(#clip370)" d="M45.7664 565.231 Q39.4007 565.231 35.8996 567.873 Q32.3984 570.483 32.3984 575.225 Q32.3984 579.936 35.8996 582.578 Q39.4007 585.188 45.7664 585.188 Q52.1003 585.188 55.6014 582.578 Q59.1026 579.936 59.1026 575.225 Q59.1026 570.483 55.6014 567.873 Q52.1003 565.231 45.7664 565.231 M59.58 559.375 Q68.683 559.375 73.1071 563.417 Q77.5631 567.459 77.5631 575.798 Q77.5631 578.885 77.0857 581.623 Q76.6401 584.36 75.6852 586.938 L69.9879 586.938 Q71.3884 584.36 72.0568 581.846 Q72.7252 579.331 72.7252 576.721 Q72.7252 570.96 69.7015 568.096 Q66.7096 565.231 60.6303 565.231 L57.7339 565.231 Q60.885 567.045 62.4446 569.878 Q64.0042 572.711 64.0042 576.657 Q64.0042 583.214 59.0071 587.225 Q54.01 591.235 45.7664 591.235 Q37.491 591.235 32.4939 587.225 Q27.4968 583.214 27.4968 576.657 Q27.4968 572.711 29.0564 569.878 Q30.616 567.045 33.7671 565.231 L28.3562 565.231 L28.3562 559.375 L59.58 559.375 Z" fill="#000000" fill-rule="evenodd" fill-opacity="1" /><path clip-path="url(#clip370)" d="M42.4881 517.679 L64.0042 517.679 L64.0042 523.536 L42.679 523.536 Q37.6183 523.536 35.1038 525.509 Q32.5894 527.482 32.5894 531.429 Q32.5894 536.172 35.6131 538.909 Q38.6368 541.646 43.8567 541.646 L64.0042 541.646 L64.0042 547.534 L14.479 547.534 L14.479 541.646 L33.8944 541.646 Q30.6797 539.545 29.0883 536.713 Q27.4968 533.848 27.4968 530.124 Q27.4968 523.981 31.3163 520.83 Q35.1038 517.679 42.4881 517.679 Z" fill="#000000" fill-rule="evenodd" fill-opacity="1" /><path clip-path="url(#clip370)" d="M18.2347 500.205 L28.3562 500.205 L28.3562 488.142 L32.9077 488.142 L32.9077 500.205 L52.2594 500.205 Q56.6199 500.205 57.8613 499.028 Q59.1026 497.818 59.1026 494.158 L59.1026 488.142 L64.0042 488.142 L64.0042 494.158 Q64.0042 500.937 61.4897 503.516 Q58.9434 506.094 52.2594 506.094 L32.9077 506.094 L32.9077 510.39 L28.3562 510.39 L28.3562 506.094 L18.2347 506.094 L18.2347 500.205 Z" fill="#000000" fill-rule="evenodd" fill-opacity="1" /><path clip-path="url(#clip370)" d="M14.5426 445.651 Q21.8632 449.916 29.0246 451.985 Q36.186 454.054 43.5384 454.054 Q50.8908 454.054 58.1159 451.985 Q65.3091 449.884 72.5979 445.651 L72.5979 450.744 Q65.1182 455.518 57.8931 457.905 Q50.668 460.261 43.5384 460.261 Q36.4406 460.261 29.2474 457.905 Q22.0542 455.55 14.5426 450.744 L14.5426 445.651 Z" fill="#000000" fill-rule="evenodd" fill-opacity="1" /><path clip-path="url(#clip370)" d="M35.1993 406.534 Q31.2526 404.338 29.3747 401.282 Q27.4968 398.227 27.4968 394.089 Q27.4968 388.519 31.4117 385.495 Q35.2948 382.472 42.4881 382.472 L64.0042 382.472 L64.0042 388.36 L42.679 388.36 Q37.5546 388.36 35.072 390.174 Q32.5894 391.988 32.5894 395.712 Q32.5894 400.264 35.6131 402.906 Q38.6368 405.547 43.8567 405.547 L64.0042 405.547 L64.0042 411.436 L42.679 411.436 Q37.5228 411.436 35.072 413.25 Q32.5894 415.064 32.5894 418.852 Q32.5894 423.339 35.6449 425.981 Q38.6686 428.623 43.8567 428.623 L64.0042 428.623 L64.0042 434.511 L28.3562 434.511 L28.3562 428.623 L33.8944 428.623 Q30.616 426.618 29.0564 423.817 Q27.4968 421.016 27.4968 417.165 Q27.4968 413.282 29.4702 410.576 Q31.4436 407.839 35.1993 406.534 Z" fill="#000000" fill-rule="evenodd" fill-opacity="1" /><path clip-path="url(#clip370)" d="M14.5426 371.714 L14.5426 366.621 Q22.0542 361.847 29.2474 359.491 Q36.4406 357.104 43.5384 357.104 Q50.668 357.104 57.8931 359.491 Q65.1182 361.847 72.5979 366.621 L72.5979 371.714 Q65.3091 367.48 58.1159 365.412 Q50.8908 363.311 43.5384 363.311 Q36.186 363.311 29.0246 365.412 Q21.8632 367.48 14.5426 371.714 Z" fill="#000000" fill-rule="evenodd" fill-opacity="1" /><path clip-path="url(#clip370)" d="M520.609 18.8205 L520.609 41.5461 L530.898 41.5461 Q536.61 41.5461 539.729 38.5889 Q542.849 35.6318 542.849 30.163 Q542.849 24.7348 539.729 21.7777 Q536.61 18.8205 530.898 18.8205 L520.609 18.8205 M512.426 12.096 L530.898 12.096 Q541.066 12.096 546.251 16.714 Q551.477 21.2916 551.477 30.163 Q551.477 39.1155 546.251 43.6931 Q541.066 48.2706 530.898 48.2706 L520.609 48.2706 L520.609 72.576 L512.426 72.576 L512.426 12.096 Z" fill="#000000" fill-rule="evenodd" fill-opacity="1" /><path clip-path="url(#clip370)" d="M562.131 9.54393 L569.585 9.54393 L569.585 72.576 L562.131 72.576 L562.131 9.54393 Z" fill="#000000" fill-rule="evenodd" fill-opacity="1" /><path clip-path="url(#clip370)" d="M584.411 54.671 L584.411 27.2059 L591.865 27.2059 L591.865 54.3874 Q591.865 60.8284 594.376 64.0691 Q596.888 67.2693 601.911 67.2693 Q607.947 67.2693 611.43 63.421 Q614.955 59.5726 614.955 52.9291 L614.955 27.2059 L622.408 27.2059 L622.408 72.576 L614.955 72.576 L614.955 65.6084 Q612.241 69.7404 608.635 71.7658 Q605.071 73.7508 600.331 73.7508 Q592.513 73.7508 588.462 68.8897 Q584.411 64.0286 584.411 54.671 M603.167 26.1121 L603.167 26.1121 Z" fill="#000000" fill-rule="evenodd" fill-opacity="1" /><path clip-path="url(#clip370)" d="M673.085 35.9153 Q675.88 30.8922 679.769 28.5022 Q683.658 26.1121 688.924 26.1121 Q696.013 26.1121 699.862 31.0947 Q703.71 36.0368 703.71 45.1919 L703.71 72.576 L696.216 72.576 L696.216 45.4349 Q696.216 38.913 693.907 35.7533 Q691.598 32.5936 686.858 32.5936 Q681.065 32.5936 677.703 36.4419 Q674.341 40.2903 674.341 46.9338 L674.341 72.576 L666.847 72.576 L666.847 45.4349 Q666.847 38.8725 664.538 35.7533 Q662.229 32.5936 657.408 32.5936 Q651.696 32.5936 648.334 36.4824 Q644.972 40.3308 644.972 46.9338 L644.972 72.576 L637.478 72.576 L637.478 27.2059 L644.972 27.2059 L644.972 34.2544 Q647.524 30.082 651.089 28.0971 Q654.654 26.1121 659.555 26.1121 Q664.497 26.1121 667.941 28.6237 Q671.424 31.1352 673.085 35.9153 Z" fill="#000000" fill-rule="evenodd" fill-opacity="1" /><path clip-path="url(#clip370)" d="M757.385 48.0275 L757.385 51.6733 L723.114 51.6733 Q723.6 59.3701 727.732 63.421 Q731.904 67.4314 739.317 67.4314 Q743.611 67.4314 747.622 66.3781 Q751.673 65.3249 755.643 63.2184 L755.643 70.267 Q751.632 71.9684 747.419 72.8596 Q743.206 73.7508 738.872 73.7508 Q728.015 73.7508 721.656 67.4314 Q715.336 61.1119 715.336 50.3365 Q715.336 39.1965 721.331 32.6746 Q727.367 26.1121 737.576 26.1121 Q746.731 26.1121 752.037 32.0264 Q757.385 37.9003 757.385 48.0275 M749.931 45.84 Q749.85 39.7232 746.488 36.0774 Q743.166 32.4315 737.657 32.4315 Q731.418 32.4315 727.651 35.9558 Q723.924 39.4801 723.357 45.8805 L749.931 45.84 Z" fill="#000000" fill-rule="evenodd" fill-opacity="1" /><path clip-path="url(#clip370)" d="M822.28 34.1734 Q821.024 33.4443 819.525 33.1202 Q818.067 32.7556 816.285 32.7556 Q809.965 32.7556 806.562 36.8875 Q803.2 40.9789 803.2 48.6757 L803.2 72.576 L795.706 72.576 L795.706 27.2059 L803.2 27.2059 L803.2 34.2544 Q805.55 30.1225 809.317 28.1376 Q813.084 26.1121 818.472 26.1121 Q819.242 26.1121 820.174 26.2337 Q821.105 26.3147 822.239 26.5172 L822.28 34.1734 Z" fill="#000000" fill-rule="evenodd" fill-opacity="1" /><path clip-path="url(#clip370)" d="M830.098 27.2059 L837.552 27.2059 L837.552 72.576 L830.098 72.576 L830.098 27.2059 M830.098 9.54393 L837.552 9.54393 L837.552 18.9825 L830.098 18.9825 L830.098 9.54393 Z" fill="#000000" fill-rule="evenodd" fill-opacity="1" /><path clip-path="url(#clip370)" d="M882.071 28.5427 L882.071 35.5912 Q878.912 33.9709 875.509 33.1607 Q872.106 32.3505 868.46 32.3505 Q862.911 32.3505 860.115 34.0519 Q857.361 35.7533 857.361 39.156 Q857.361 41.7486 859.346 43.2475 Q861.331 44.7058 867.326 46.0426 L869.878 46.6097 Q877.818 48.3111 881.14 51.4303 Q884.502 54.509 884.502 60.0587 Q884.502 66.3781 879.479 70.0644 Q874.496 73.7508 865.746 73.7508 Q862.1 73.7508 858.131 73.0216 Q854.201 72.3329 849.826 70.9151 L849.826 63.2184 Q853.958 65.3654 857.968 66.4591 Q861.979 67.5124 865.908 67.5124 Q871.174 67.5124 874.01 65.73 Q876.846 63.9071 876.846 60.6258 Q876.846 57.5877 874.78 55.9673 Q872.754 54.3469 865.827 52.8481 L863.235 52.2405 Q856.308 50.7821 853.229 47.7845 Q850.15 44.7463 850.15 39.4801 Q850.15 33.0797 854.687 29.5959 Q859.224 26.1121 867.569 26.1121 Q871.701 26.1121 875.347 26.7198 Q878.993 27.3274 882.071 28.5427 Z" fill="#000000" fill-rule="evenodd" fill-opacity="1" /><path clip-path="url(#clip370)" d="M935.179 48.0275 L935.179 51.6733 L900.908 51.6733 Q901.394 59.3701 905.526 63.421 Q909.699 67.4314 917.112 67.4314 Q921.406 67.4314 925.416 66.3781 Q929.467 65.3249 933.437 63.2184 L933.437 70.267 Q929.426 71.9684 925.213 72.8596 Q921.001 73.7508 916.666 73.7508 Q905.81 73.7508 899.45 67.4314 Q893.13 61.1119 893.13 50.3365 Q893.13 39.1965 899.126 32.6746 Q905.162 26.1121 915.37 26.1121 Q924.525 26.1121 929.832 32.0264 Q935.179 37.9003 935.179 48.0275 M927.725 45.84 Q927.644 39.7232 924.282 36.0774 Q920.96 32.4315 915.451 32.4315 Q909.212 32.4315 905.445 35.9558 Q901.718 39.4801 901.151 45.8805 L927.725 45.84 Z" fill="#000000" fill-rule="evenodd" fill-opacity="1" /><path clip-path="url(#clip370)" d="M994.403 49.7694 Q985.369 49.7694 981.886 51.8354 Q978.402 53.9013 978.402 58.8839 Q978.402 62.8538 980.994 65.2034 Q983.628 67.5124 988.124 67.5124 Q994.322 67.5124 998.049 63.1374 Q1001.82 58.7219 1001.82 51.4303 L1001.82 49.7694 L994.403 49.7694 M1009.27 46.6907 L1009.27 72.576 L1001.82 72.576 L1001.82 65.6895 Q999.264 69.8214 995.456 71.8063 Q991.648 73.7508 986.139 73.7508 Q979.172 73.7508 975.04 69.8619 Q970.948 65.9325 970.948 59.3701 Q970.948 51.7138 976.052 47.825 Q981.197 43.9361 991.365 43.9361 L1001.82 43.9361 L1001.82 43.2069 Q1001.82 38.0623 998.413 35.2672 Q995.051 32.4315 988.934 32.4315 Q985.045 32.4315 981.359 33.3632 Q977.673 34.295 974.27 36.1584 L974.27 29.2718 Q978.361 27.692 982.21 26.9223 Q986.058 26.1121 989.704 26.1121 Q999.548 26.1121 1004.41 31.2163 Q1009.27 36.3204 1009.27 46.6907 Z" fill="#000000" fill-rule="evenodd" fill-opacity="1" /><path clip-path="url(#clip370)" d="M1053.55 28.5427 L1053.55 35.5912 Q1050.39 33.9709 1046.98 33.1607 Q1043.58 32.3505 1039.94 32.3505 Q1034.39 32.3505 1031.59 34.0519 Q1028.84 35.7533 1028.84 39.156 Q1028.84 41.7486 1030.82 43.2475 Q1032.81 44.7058 1038.8 46.0426 L1041.35 46.6097 Q1049.29 48.3111 1052.61 51.4303 Q1055.98 54.509 1055.98 60.0587 Q1055.98 66.3781 1050.95 70.0644 Q1045.97 73.7508 1037.22 73.7508 Q1033.58 73.7508 1029.61 73.0216 Q1025.68 72.3329 1021.3 70.9151 L1021.3 63.2184 Q1025.43 65.3654 1029.44 66.4591 Q1033.45 67.5124 1037.38 67.5124 Q1042.65 67.5124 1045.48 65.73 Q1048.32 63.9071 1048.32 60.6258 Q1048.32 57.5877 1046.25 55.9673 Q1044.23 54.3469 1037.3 52.8481 L1034.71 52.2405 Q1027.78 50.7821 1024.7 47.7845 Q1021.63 44.7463 1021.63 39.4801 Q1021.63 33.0797 1026.16 29.5959 Q1030.7 26.1121 1039.04 26.1121 Q1043.18 26.1121 1046.82 26.7198 Q1050.47 27.3274 1053.55 28.5427 Z" fill="#000000" fill-rule="evenodd" fill-opacity="1" /><path clip-path="url(#clip370)" d="M1114.84 49.7694 Q1105.8 49.7694 1102.32 51.8354 Q1098.84 53.9013 1098.84 58.8839 Q1098.84 62.8538 1101.43 65.2034 Q1104.06 67.5124 1108.56 67.5124 Q1114.76 67.5124 1118.48 63.1374 Q1122.25 58.7219 1122.25 51.4303 L1122.25 49.7694 L1114.84 49.7694 M1129.7 46.6907 L1129.7 72.576 L1122.25 72.576 L1122.25 65.6895 Q1119.7 69.8214 1115.89 71.8063 Q1112.08 73.7508 1106.57 73.7508 Q1099.6 73.7508 1095.47 69.8619 Q1091.38 65.9325 1091.38 59.3701 Q1091.38 51.7138 1096.49 47.825 Q1101.63 43.9361 1111.8 43.9361 L1122.25 43.9361 L1122.25 43.2069 Q1122.25 38.0623 1118.85 35.2672 Q1115.48 32.4315 1109.37 32.4315 Q1105.48 32.4315 1101.79 33.3632 Q1098.11 34.295 1094.7 36.1584 L1094.7 29.2718 Q1098.79 27.692 1102.64 26.9223 Q1106.49 26.1121 1110.14 26.1121 Q1119.98 26.1121 1124.84 31.2163 Q1129.7 36.3204 1129.7 46.6907 Z" fill="#000000" fill-rule="evenodd" fill-opacity="1" /><path clip-path="url(#clip370)" d="M1194.4 9.54393 L1194.4 15.7418 L1187.27 15.7418 Q1183.26 15.7418 1181.68 17.3622 Q1180.14 18.9825 1180.14 23.1955 L1180.14 27.2059 L1192.41 27.2059 L1192.41 32.9987 L1180.14 32.9987 L1180.14 72.576 L1172.64 72.576 L1172.64 32.9987 L1165.51 32.9987 L1165.51 27.2059 L1172.64 27.2059 L1172.64 24.0462 Q1172.64 16.471 1176.17 13.0277 Q1179.69 9.54393 1187.35 9.54393 L1194.4 9.54393 Z" fill="#000000" fill-rule="evenodd" fill-opacity="1" /><path clip-path="url(#clip370)" d="M1199.86 54.671 L1199.86 27.2059 L1207.32 27.2059 L1207.32 54.3874 Q1207.32 60.8284 1209.83 64.0691 Q1212.34 67.2693 1217.36 67.2693 Q1223.4 67.2693 1226.88 63.421 Q1230.41 59.5726 1230.41 52.9291 L1230.41 27.2059 L1237.86 27.2059 L1237.86 72.576 L1230.41 72.576 L1230.41 65.6084 Q1227.69 69.7404 1224.09 71.7658 Q1220.52 73.7508 1215.78 73.7508 Q1207.97 73.7508 1203.92 68.8897 Q1199.86 64.0286 1199.86 54.671 M1218.62 26.1121 L1218.62 26.1121 Z" fill="#000000" fill-rule="evenodd" fill-opacity="1" /><path clip-path="url(#clip370)" d="M1290.93 45.1919 L1290.93 72.576 L1283.48 72.576 L1283.48 45.4349 Q1283.48 38.994 1280.96 35.7938 Q1278.45 32.5936 1273.43 32.5936 Q1267.39 32.5936 1263.91 36.4419 Q1260.43 40.2903 1260.43 46.9338 L1260.43 72.576 L1252.93 72.576 L1252.93 27.2059 L1260.43 27.2059 L1260.43 34.2544 Q1263.1 30.163 1266.7 28.1376 Q1270.35 26.1121 1275.09 26.1121 Q1282.91 26.1121 1286.92 30.9732 Q1290.93 35.7938 1290.93 45.1919 Z" fill="#000000" fill-rule="evenodd" fill-opacity="1" /><path clip-path="url(#clip370)" d="M1338.45 28.9478 L1338.45 35.9153 Q1335.29 34.1734 1332.09 33.3227 Q1328.93 32.4315 1325.69 32.4315 Q1318.43 32.4315 1314.42 37.0496 Q1310.41 41.6271 1310.41 49.9314 Q1310.41 58.2358 1314.42 62.8538 Q1318.43 67.4314 1325.69 67.4314 Q1328.93 67.4314 1332.09 66.5807 Q1335.29 65.6895 1338.45 63.9476 L1338.45 70.8341 Q1335.33 72.2924 1331.96 73.0216 Q1328.64 73.7508 1324.88 73.7508 Q1314.63 73.7508 1308.59 67.3098 Q1302.56 60.8689 1302.56 49.9314 Q1302.56 38.832 1308.63 32.472 Q1314.75 26.1121 1325.36 26.1121 Q1328.81 26.1121 1332.09 26.8413 Q1335.37 27.5299 1338.45 28.9478 Z" fill="#000000" fill-rule="evenodd" fill-opacity="1" /><path clip-path="url(#clip370)" d="M1358.78 14.324 L1358.78 27.2059 L1374.13 27.2059 L1374.13 32.9987 L1358.78 32.9987 L1358.78 57.6282 Q1358.78 63.1779 1360.28 64.7578 Q1361.82 66.3376 1366.48 66.3376 L1374.13 66.3376 L1374.13 72.576 L1366.48 72.576 Q1357.85 72.576 1354.57 69.3758 Q1351.29 66.1351 1351.29 57.6282 L1351.29 32.9987 L1345.82 32.9987 L1345.82 27.2059 L1351.29 27.2059 L1351.29 14.324 L1358.78 14.324 Z" fill="#000000" fill-rule="evenodd" fill-opacity="1" /><path clip-path="url(#clip370)" d="M1383.94 27.2059 L1391.39 27.2059 L1391.39 72.576 L1383.94 72.576 L1383.94 27.2059 M1383.94 9.54393 L1391.39 9.54393 L1391.39 18.9825 L1383.94 18.9825 L1383.94 9.54393 Z" fill="#000000" fill-rule="evenodd" fill-opacity="1" /><path clip-path="url(#clip370)" d="M1424.57 32.4315 Q1418.57 32.4315 1415.09 37.1306 Q1411.61 41.7891 1411.61 49.9314 Q1411.61 58.0738 1415.05 62.7728 Q1418.53 67.4314 1424.57 67.4314 Q1430.52 67.4314 1434.01 62.7323 Q1437.49 58.0333 1437.49 49.9314 Q1437.49 41.8701 1434.01 37.1711 Q1430.52 32.4315 1424.57 32.4315 M1424.57 26.1121 Q1434.29 26.1121 1439.84 32.4315 Q1445.39 38.7509 1445.39 49.9314 Q1445.39 61.0714 1439.84 67.4314 Q1434.29 73.7508 1424.57 73.7508 Q1414.81 73.7508 1409.26 67.4314 Q1403.75 61.0714 1403.75 49.9314 Q1403.75 38.7509 1409.26 32.4315 Q1414.81 26.1121 1424.57 26.1121 Z" fill="#000000" fill-rule="evenodd" fill-opacity="1" /><path clip-path="url(#clip370)" d="M1495.46 45.1919 L1495.46 72.576 L1488.01 72.576 L1488.01 45.4349 Q1488.01 38.994 1485.49 35.7938 Q1482.98 32.5936 1477.96 32.5936 Q1471.92 32.5936 1468.44 36.4419 Q1464.96 40.2903 1464.96 46.9338 L1464.96 72.576 L1457.46 72.576 L1457.46 27.2059 L1464.96 27.2059 L1464.96 34.2544 Q1467.63 30.163 1471.23 28.1376 Q1474.88 26.1121 1479.62 26.1121 Q1487.44 26.1121 1491.45 30.9732 Q1495.46 35.7938 1495.46 45.1919 Z" fill="#000000" fill-rule="evenodd" fill-opacity="1" /><path clip-path="url(#clip370)" d="M1554.28 32.4315 Q1548.28 32.4315 1544.8 37.1306 Q1541.32 41.7891 1541.32 49.9314 Q1541.32 58.0738 1544.76 62.7728 Q1548.24 67.4314 1554.28 67.4314 Q1560.23 67.4314 1563.72 62.7323 Q1567.2 58.0333 1567.2 49.9314 Q1567.2 41.8701 1563.72 37.1711 Q1560.23 32.4315 1554.28 32.4315 M1554.28 26.1121 Q1564 26.1121 1569.55 32.4315 Q1575.1 38.7509 1575.1 49.9314 Q1575.1 61.0714 1569.55 67.4314 Q1564 73.7508 1554.28 73.7508 Q1544.52 73.7508 1538.97 67.4314 Q1533.46 61.0714 1533.46 49.9314 Q1533.46 38.7509 1538.97 32.4315 Q1544.52 26.1121 1554.28 26.1121 Z" fill="#000000" fill-rule="evenodd" fill-opacity="1" /><path clip-path="url(#clip370)" d="M1610.42 9.54393 L1610.42 15.7418 L1603.29 15.7418 Q1599.28 15.7418 1597.7 17.3622 Q1596.16 18.9825 1596.16 23.1955 L1596.16 27.2059 L1608.44 27.2059 L1608.44 32.9987 L1596.16 32.9987 L1596.16 72.576 L1588.67 72.576 L1588.67 32.9987 L1581.54 32.9987 L1581.54 27.2059 L1588.67 27.2059 L1588.67 24.0462 Q1588.67 16.471 1592.19 13.0277 Q1595.72 9.54393 1603.38 9.54393 L1610.42 9.54393 Z" fill="#000000" fill-rule="evenodd" fill-opacity="1" /><path clip-path="url(#clip370)" d="M1638.7 27.2059 L1646.15 27.2059 L1655.47 62.6108 L1664.75 27.2059 L1673.54 27.2059 L1682.85 62.6108 L1692.13 27.2059 L1699.58 27.2059 L1687.72 72.576 L1678.92 72.576 L1669.16 35.3887 L1659.36 72.576 L1650.57 72.576 L1638.7 27.2059 Z" fill="#000000" fill-rule="evenodd" fill-opacity="1" /><path clip-path="url(#clip370)" d="M1710.89 27.2059 L1718.34 27.2059 L1718.34 72.576 L1710.89 72.576 L1710.89 27.2059 M1710.89 9.54393 L1718.34 9.54393 L1718.34 18.9825 L1710.89 18.9825 L1710.89 9.54393 Z" fill="#000000" fill-rule="evenodd" fill-opacity="1" /><path clip-path="url(#clip370)" d="M1771.65 45.1919 L1771.65 72.576 L1764.2 72.576 L1764.2 45.4349 Q1764.2 38.994 1761.68 35.7938 Q1759.17 32.5936 1754.15 32.5936 Q1748.11 32.5936 1744.63 36.4419 Q1741.15 40.2903 1741.15 46.9338 L1741.15 72.576 L1733.65 72.576 L1733.65 27.2059 L1741.15 27.2059 L1741.15 34.2544 Q1743.82 30.163 1747.43 28.1376 Q1751.07 26.1121 1755.81 26.1121 Q1763.63 26.1121 1767.64 30.9732 Q1771.65 35.7938 1771.65 45.1919 Z" fill="#000000" fill-rule="evenodd" fill-opacity="1" /><path clip-path="url(#clip370)" d="M1816.37 34.0924 L1816.37 9.54393 L1823.83 9.54393 L1823.83 72.576 L1816.37 72.576 L1816.37 65.7705 Q1814.02 69.8214 1810.42 71.8063 Q1806.85 73.7508 1801.83 73.7508 Q1793.61 73.7508 1788.42 67.1883 Q1783.28 60.6258 1783.28 49.9314 Q1783.28 39.2371 1788.42 32.6746 Q1793.61 26.1121 1801.83 26.1121 Q1806.85 26.1121 1810.42 28.0971 Q1814.02 30.0415 1816.37 34.0924 M1790.97 49.9314 Q1790.97 58.1548 1794.33 62.8538 Q1797.74 67.5124 1803.65 67.5124 Q1809.57 67.5124 1812.97 62.8538 Q1816.37 58.1548 1816.37 49.9314 Q1816.37 41.7081 1812.97 37.0496 Q1809.57 32.3505 1803.65 32.3505 Q1797.74 32.3505 1794.33 37.0496 Q1790.97 41.7081 1790.97 49.9314 Z" fill="#000000" fill-rule="evenodd" fill-opacity="1" /><path clip-path="url(#clip370)" d="M1868.1 28.5427 L1868.1 35.5912 Q1864.94 33.9709 1861.54 33.1607 Q1858.14 32.3505 1854.49 32.3505 Q1848.94 32.3505 1846.15 34.0519 Q1843.39 35.7533 1843.39 39.156 Q1843.39 41.7486 1845.38 43.2475 Q1847.36 44.7058 1853.36 46.0426 L1855.91 46.6097 Q1863.85 48.3111 1867.17 51.4303 Q1870.53 54.509 1870.53 60.0587 Q1870.53 66.3781 1865.51 70.0644 Q1860.53 73.7508 1851.78 73.7508 Q1848.13 73.7508 1844.16 73.0216 Q1840.23 72.3329 1835.86 70.9151 L1835.86 63.2184 Q1839.99 65.3654 1844 66.4591 Q1848.01 67.5124 1851.94 67.5124 Q1857.21 67.5124 1860.04 65.73 Q1862.88 63.9071 1862.88 60.6258 Q1862.88 57.5877 1860.81 55.9673 Q1858.78 54.3469 1851.86 52.8481 L1849.27 52.2405 Q1842.34 50.7821 1839.26 47.7845 Q1836.18 44.7463 1836.18 39.4801 Q1836.18 33.0797 1840.72 29.5959 Q1845.25 26.1121 1853.6 26.1121 Q1857.73 26.1121 1861.38 26.7198 Q1865.02 27.3274 1868.1 28.5427 Z" fill="#000000" fill-rule="evenodd" fill-opacity="1" /><path clip-path="url(#clip370)" d="M1889.61 65.7705 L1889.61 89.8329 L1882.12 89.8329 L1882.12 27.2059 L1889.61 27.2059 L1889.61 34.0924 Q1891.96 30.0415 1895.53 28.0971 Q1899.13 26.1121 1904.11 26.1121 Q1912.38 26.1121 1917.52 32.6746 Q1922.71 39.2371 1922.71 49.9314 Q1922.71 60.6258 1917.52 67.1883 Q1912.38 73.7508 1904.11 73.7508 Q1899.13 73.7508 1895.53 71.8063 Q1891.96 69.8214 1889.61 65.7705 M1914.97 49.9314 Q1914.97 41.7081 1911.57 37.0496 Q1908.21 32.3505 1902.29 32.3505 Q1896.38 32.3505 1892.97 37.0496 Q1889.61 41.7081 1889.61 49.9314 Q1889.61 58.1548 1892.97 62.8538 Q1896.38 67.5124 1902.29 67.5124 Q1908.21 67.5124 1911.57 62.8538 Q1914.97 58.1548 1914.97 49.9314 Z" fill="#000000" fill-rule="evenodd" fill-opacity="1" /><path clip-path="url(#clip370)" d="M1973.87 48.0275 L1973.87 51.6733 L1939.6 51.6733 Q1940.09 59.3701 1944.22 63.421 Q1948.39 67.4314 1955.8 67.4314 Q1960.1 67.4314 1964.11 66.3781 Q1968.16 65.3249 1972.13 63.2184 L1972.13 70.267 Q1968.12 71.9684 1963.91 72.8596 Q1959.69 73.7508 1955.36 73.7508 Q1944.5 73.7508 1938.14 67.4314 Q1931.82 61.1119 1931.82 50.3365 Q1931.82 39.1965 1937.82 32.6746 Q1943.85 26.1121 1954.06 26.1121 Q1963.22 26.1121 1968.52 32.0264 Q1973.87 37.9003 1973.87 48.0275 M1966.42 45.84 Q1966.34 39.7232 1962.97 36.0774 Q1959.65 32.4315 1954.14 32.4315 Q1947.9 32.4315 1944.14 35.9558 Q1940.41 39.4801 1939.84 45.8805 L1966.42 45.84 Z" fill="#000000" fill-rule="evenodd" fill-opacity="1" /><path clip-path="url(#clip370)" d="M2024.91 48.0275 L2024.91 51.6733 L1990.64 51.6733 Q1991.13 59.3701 1995.26 63.421 Q1999.43 67.4314 2006.85 67.4314 Q2011.14 67.4314 2015.15 66.3781 Q2019.2 65.3249 2023.17 63.2184 L2023.17 70.267 Q2019.16 71.9684 2014.95 72.8596 Q2010.73 73.7508 2006.4 73.7508 Q1995.54 73.7508 1989.18 67.4314 Q1982.86 61.1119 1982.86 50.3365 Q1982.86 39.1965 1988.86 32.6746 Q1994.9 26.1121 2005.1 26.1121 Q2014.26 26.1121 2019.57 32.0264 Q2024.91 37.9003 2024.91 48.0275 M2017.46 45.84 Q2017.38 39.7232 2014.02 36.0774 Q2010.69 32.4315 2005.18 32.4315 Q1998.95 32.4315 1995.18 35.9558 Q1991.45 39.4801 1990.88 45.8805 L2017.46 45.84 Z" fill="#000000" fill-rule="evenodd" fill-opacity="1" /><path clip-path="url(#clip370)" d="M2067 34.0924 L2067 9.54393 L2074.46 9.54393 L2074.46 72.576 L2067 72.576 L2067 65.7705 Q2064.65 69.8214 2061.05 71.8063 Q2057.48 73.7508 2052.46 73.7508 Q2044.24 73.7508 2039.05 67.1883 Q2033.91 60.6258 2033.91 49.9314 Q2033.91 39.2371 2039.05 32.6746 Q2044.24 26.1121 2052.46 26.1121 Q2057.48 26.1121 2061.05 28.0971 Q2064.65 30.0415 2067 34.0924 M2041.6 49.9314 Q2041.6 58.1548 2044.96 62.8538 Q2048.37 67.5124 2054.28 67.5124 Q2060.2 67.5124 2063.6 62.8538 Q2067 58.1548 2067 49.9314 Q2067 41.7081 2063.6 37.0496 Q2060.2 32.3505 2054.28 32.3505 Q2048.37 32.3505 2044.96 37.0496 Q2041.6 41.7081 2041.6 49.9314 Z" fill="#000000" fill-rule="evenodd" fill-opacity="1" /><polyline clip-path="url(#clip372)" style="stroke:#009af9; stroke-linecap:butt; stroke-linejoin:round; stroke-width:4; stroke-opacity:1; fill:none" points="
  314.074,88.978 334.061,353.498 354.048,482.154 374.035,563.448 394.022,621.348 414.009,665.562 433.996,700.904 453.983,730.085 473.97,754.768 493.957,776.041 
  513.945,794.651 533.932,811.133 553.919,825.878 573.906,839.184 593.893,851.279 613.88,862.345 633.867,872.524 653.854,881.935 673.841,890.674 693.828,898.82 
  713.815,906.44 733.802,913.591 753.79,920.322 773.777,926.673 793.764,932.681 813.751,938.376 833.738,943.787 853.725,948.937 873.712,953.847 893.699,958.537 
  913.686,963.023 933.673,967.32 953.66,971.441 973.647,975.399 993.634,979.205 1013.62,982.869 1033.61,986.399 1053.6,989.805 1073.58,993.093 1093.57,996.27 
  1113.56,999.343 1133.54,1002.32 1153.53,1005.2 1173.52,1007.99 1193.51,1010.7 1213.49,1013.34 1233.48,1015.89 1253.47,1018.38 1273.45,1020.79 1293.44,1023.15 
  1313.43,1025.44 1333.41,1027.67 1353.4,1029.84 1373.39,1031.96 1393.38,1034.03 1413.36,1036.05 1433.35,1038.02 1453.34,1039.95 1473.32,1041.83 1493.31,1043.67 
  1513.3,1045.47 1533.29,1047.23 1553.27,1048.95 1573.26,1050.64 1593.25,1052.29 1613.23,1053.91 1633.22,1055.5 1653.21,1057.05 1673.2,1058.58 1693.18,1060.07 
  1713.17,1061.54 1733.16,1062.98 1753.14,1064.39 1773.13,1065.78 1793.12,1067.15 1813.1,1068.48 1833.09,1069.8 1853.08,1071.09 1873.07,1072.37 1893.05,1073.62 
  1913.04,1074.85 1933.03,1076.06 1953.01,1077.25 1973,1078.42 1992.99,1079.57 2012.98,1080.7 2032.96,1081.82 2052.95,1082.92 2072.94,1084.01 2092.92,1085.07 
  2112.91,1086.12 2132.9,1087.16 2152.89,1088.18 2172.87,1089.19 2192.86,1090.18 2212.85,1091.16 2232.83,1092.13 2252.82,1093.08 2272.81,1094.02 2292.79,1094.95 
  
  "/>
<circle clip-path="url(#clip372)" cx="893.699" cy="958.537" r="14" fill="#e26f46" fill-rule="evenodd" fill-opacity="1" stroke="#000000" stroke-opacity="1" stroke-width="3.2"/>
<path clip-path="url(#clip370)" d="
M1665.16 799.246 L2282.13 799.246 L2282.13 695.566 L1665.16 695.566  Z
  " fill="#ffffff" fill-rule="evenodd" fill-opacity="1"/>
<polyline clip-path="url(#clip370)" style="stroke:#000000; stroke-linecap:butt; stroke-linejoin:round; stroke-width:4; stroke-opacity:1; fill:none" points="
  1665.16,799.246 2282.13,799.246 2282.13,695.566 1665.16,695.566 1665.16,799.246 
  "/>
<circle clip-path="url(#clip370)" cx="1759.32" cy="747.406" r="23" fill="#e26f46" fill-rule="evenodd" fill-opacity="1" stroke="#000000" stroke-opacity="1" stroke-width="5.12"/>
<path clip-path="url(#clip370)" d="M1873.99 739.756 L1873.99 743.737 Q1872.19 742.742 1870.36 742.256 Q1868.55 741.746 1866.7 741.746 Q1862.56 741.746 1860.26 744.385 Q1857.97 747.001 1857.97 751.746 Q1857.97 756.492 1860.26 759.13 Q1862.56 761.746 1866.7 761.746 Q1868.55 761.746 1870.36 761.26 Q1872.19 760.751 1873.99 759.755 L1873.99 763.691 Q1872.21 764.524 1870.29 764.941 Q1868.39 765.357 1866.24 765.357 Q1860.38 765.357 1856.93 761.677 Q1853.48 757.996 1853.48 751.746 Q1853.48 745.404 1856.95 741.769 Q1860.45 738.135 1866.51 738.135 Q1868.48 738.135 1870.36 738.552 Q1872.23 738.945 1873.99 739.756 Z" fill="#000000" fill-rule="evenodd" fill-opacity="1" /><path clip-path="url(#clip370)" d="M1880.96 754.455 L1880.96 738.76 L1885.22 738.76 L1885.22 754.293 Q1885.22 757.973 1886.65 759.825 Q1888.09 761.654 1890.96 761.654 Q1894.41 761.654 1896.4 759.455 Q1898.41 757.255 1898.41 753.459 L1898.41 738.76 L1902.67 738.76 L1902.67 764.686 L1898.41 764.686 L1898.41 760.705 Q1896.86 763.066 1894.8 764.223 Q1892.76 765.357 1890.06 765.357 Q1885.59 765.357 1883.27 762.58 Q1880.96 759.802 1880.96 754.455 M1891.68 738.135 L1891.68 738.135 Z" fill="#000000" fill-rule="evenodd" fill-opacity="1" /><path clip-path="url(#clip370)" d="M1926.47 742.742 Q1925.75 742.325 1924.89 742.14 Q1924.06 741.931 1923.04 741.931 Q1919.43 741.931 1917.49 744.293 Q1915.57 746.631 1915.57 751.029 L1915.57 764.686 L1911.28 764.686 L1911.28 738.76 L1915.57 738.76 L1915.57 742.788 Q1916.91 740.427 1919.06 739.293 Q1921.21 738.135 1924.29 738.135 Q1924.73 738.135 1925.26 738.205 Q1925.8 738.251 1926.44 738.367 L1926.47 742.742 Z" fill="#000000" fill-rule="evenodd" fill-opacity="1" /><path clip-path="url(#clip370)" d="M1945.13 742.742 Q1944.41 742.325 1943.55 742.14 Q1942.72 741.931 1941.7 741.931 Q1938.09 741.931 1936.14 744.293 Q1934.22 746.631 1934.22 751.029 L1934.22 764.686 L1929.94 764.686 L1929.94 738.76 L1934.22 738.76 L1934.22 742.788 Q1935.57 740.427 1937.72 739.293 Q1939.87 738.135 1942.95 738.135 Q1943.39 738.135 1943.92 738.205 Q1944.45 738.251 1945.1 738.367 L1945.13 742.742 Z" fill="#000000" fill-rule="evenodd" fill-opacity="1" /><path clip-path="url(#clip370)" d="M1970.73 750.658 L1970.73 752.742 L1951.14 752.742 Q1951.42 757.14 1953.78 759.455 Q1956.17 761.746 1960.4 761.746 Q1962.86 761.746 1965.15 761.144 Q1967.46 760.542 1969.73 759.339 L1969.73 763.367 Q1967.44 764.339 1965.03 764.848 Q1962.63 765.357 1960.15 765.357 Q1953.94 765.357 1950.31 761.746 Q1946.7 758.135 1946.7 751.978 Q1946.7 745.612 1950.13 741.885 Q1953.57 738.135 1959.41 738.135 Q1964.64 738.135 1967.67 741.515 Q1970.73 744.871 1970.73 750.658 M1966.47 749.408 Q1966.42 745.913 1964.5 743.83 Q1962.6 741.746 1959.45 741.746 Q1955.89 741.746 1953.74 743.76 Q1951.61 745.774 1951.28 749.431 L1966.47 749.408 Z" fill="#000000" fill-rule="evenodd" fill-opacity="1" /><path clip-path="url(#clip370)" d="M1999.27 749.038 L1999.27 764.686 L1995.01 764.686 L1995.01 749.177 Q1995.01 745.496 1993.57 743.668 Q1992.14 741.839 1989.27 741.839 Q1985.82 741.839 1983.83 744.038 Q1981.84 746.237 1981.84 750.033 L1981.84 764.686 L1977.56 764.686 L1977.56 738.76 L1981.84 738.76 L1981.84 742.788 Q1983.37 740.45 1985.43 739.293 Q1987.51 738.135 1990.22 738.135 Q1994.69 738.135 1996.98 740.913 Q1999.27 743.668 1999.27 749.038 Z" fill="#000000" fill-rule="evenodd" fill-opacity="1" /><path clip-path="url(#clip370)" d="M2011.98 731.399 L2011.98 738.76 L2020.75 738.76 L2020.75 742.07 L2011.98 742.07 L2011.98 756.144 Q2011.98 759.316 2012.83 760.218 Q2013.71 761.121 2016.37 761.121 L2020.75 761.121 L2020.75 764.686 L2016.37 764.686 Q2011.44 764.686 2009.57 762.857 Q2007.69 761.005 2007.69 756.144 L2007.69 742.07 L2004.57 742.07 L2004.57 738.76 L2007.69 738.76 L2007.69 731.399 L2011.98 731.399 Z" fill="#000000" fill-rule="evenodd" fill-opacity="1" /><path clip-path="url(#clip370)" d="M2057.95 739.524 L2057.95 743.552 Q2056.14 742.626 2054.2 742.163 Q2052.25 741.7 2050.17 741.7 Q2047 741.7 2045.4 742.672 Q2043.83 743.644 2043.83 745.589 Q2043.83 747.07 2044.96 747.927 Q2046.1 748.76 2049.52 749.524 L2050.98 749.848 Q2055.52 750.82 2057.42 752.603 Q2059.34 754.362 2059.34 757.533 Q2059.34 761.144 2056.47 763.251 Q2053.62 765.357 2048.62 765.357 Q2046.54 765.357 2044.27 764.941 Q2042.02 764.547 2039.52 763.737 L2039.52 759.339 Q2041.88 760.566 2044.18 761.191 Q2046.47 761.792 2048.71 761.792 Q2051.72 761.792 2053.34 760.774 Q2054.96 759.732 2054.96 757.857 Q2054.96 756.121 2053.78 755.195 Q2052.62 754.269 2048.67 753.413 L2047.18 753.066 Q2043.23 752.232 2041.47 750.519 Q2039.71 748.783 2039.71 745.774 Q2039.71 742.117 2042.3 740.126 Q2044.89 738.135 2049.66 738.135 Q2052.02 738.135 2054.11 738.482 Q2056.19 738.83 2057.95 739.524 Z" fill="#000000" fill-rule="evenodd" fill-opacity="1" /><path clip-path="url(#clip370)" d="M2084.78 739.756 L2084.78 743.737 Q2082.97 742.742 2081.14 742.256 Q2079.34 741.746 2077.49 741.746 Q2073.34 741.746 2071.05 744.385 Q2068.76 747.001 2068.76 751.746 Q2068.76 756.492 2071.05 759.13 Q2073.34 761.746 2077.49 761.746 Q2079.34 761.746 2081.14 761.26 Q2082.97 760.751 2084.78 759.755 L2084.78 763.691 Q2082.99 764.524 2081.07 764.941 Q2079.18 765.357 2077.02 765.357 Q2071.17 765.357 2067.72 761.677 Q2064.27 757.996 2064.27 751.746 Q2064.27 745.404 2067.74 741.769 Q2071.24 738.135 2077.3 738.135 Q2079.27 738.135 2081.14 738.552 Q2083.02 738.945 2084.78 739.756 Z" fill="#000000" fill-rule="evenodd" fill-opacity="1" /><path clip-path="url(#clip370)" d="M2114.36 750.658 L2114.36 752.742 L2094.78 752.742 Q2095.05 757.14 2097.42 759.455 Q2099.8 761.746 2104.04 761.746 Q2106.49 761.746 2108.78 761.144 Q2111.1 760.542 2113.37 759.339 L2113.37 763.367 Q2111.07 764.339 2108.67 764.848 Q2106.26 765.357 2103.78 765.357 Q2097.58 765.357 2093.94 761.746 Q2090.33 758.135 2090.33 751.978 Q2090.33 745.612 2093.76 741.885 Q2097.21 738.135 2103.04 738.135 Q2108.27 738.135 2111.3 741.515 Q2114.36 744.871 2114.36 750.658 M2110.1 749.408 Q2110.05 745.913 2108.13 743.83 Q2106.24 741.746 2103.09 741.746 Q2099.52 741.746 2097.37 743.76 Q2095.24 745.774 2094.92 749.431 L2110.1 749.408 Z" fill="#000000" fill-rule="evenodd" fill-opacity="1" /><path clip-path="url(#clip370)" d="M2142.9 749.038 L2142.9 764.686 L2138.64 764.686 L2138.64 749.177 Q2138.64 745.496 2137.21 743.668 Q2135.77 741.839 2132.9 741.839 Q2129.45 741.839 2127.46 744.038 Q2125.47 746.237 2125.47 750.033 L2125.47 764.686 L2121.19 764.686 L2121.19 738.76 L2125.47 738.76 L2125.47 742.788 Q2127 740.45 2129.06 739.293 Q2131.14 738.135 2133.85 738.135 Q2138.32 738.135 2140.61 740.913 Q2142.9 743.668 2142.9 749.038 Z" fill="#000000" fill-rule="evenodd" fill-opacity="1" /><path clip-path="url(#clip370)" d="M2163.18 751.654 Q2158.02 751.654 2156.03 752.834 Q2154.04 754.015 2154.04 756.862 Q2154.04 759.13 2155.52 760.473 Q2157.02 761.792 2159.59 761.792 Q2163.13 761.792 2165.26 759.292 Q2167.42 756.769 2167.42 752.603 L2167.42 751.654 L2163.18 751.654 M2171.67 749.894 L2171.67 764.686 L2167.42 764.686 L2167.42 760.751 Q2165.96 763.112 2163.78 764.246 Q2161.61 765.357 2158.46 765.357 Q2154.48 765.357 2152.11 763.135 Q2149.78 760.89 2149.78 757.14 Q2149.78 752.765 2152.69 750.543 Q2155.63 748.32 2161.44 748.32 L2167.42 748.32 L2167.42 747.904 Q2167.42 744.964 2165.47 743.367 Q2163.55 741.746 2160.05 741.746 Q2157.83 741.746 2155.73 742.279 Q2153.62 742.811 2151.68 743.876 L2151.68 739.941 Q2154.01 739.038 2156.21 738.598 Q2158.41 738.135 2160.49 738.135 Q2166.12 738.135 2168.9 741.052 Q2171.67 743.969 2171.67 749.894 Z" fill="#000000" fill-rule="evenodd" fill-opacity="1" /><path clip-path="url(#clip370)" d="M2195.47 742.742 Q2194.75 742.325 2193.9 742.14 Q2193.06 741.931 2192.05 741.931 Q2188.43 741.931 2186.49 744.293 Q2184.57 746.631 2184.57 751.029 L2184.57 764.686 L2180.29 764.686 L2180.29 738.76 L2184.57 738.76 L2184.57 742.788 Q2185.91 740.427 2188.06 739.293 Q2190.22 738.135 2193.3 738.135 Q2193.73 738.135 2194.27 738.205 Q2194.8 738.251 2195.45 738.367 L2195.47 742.742 Z" fill="#000000" fill-rule="evenodd" fill-opacity="1" /><path clip-path="url(#clip370)" d="M2199.94 738.76 L2204.2 738.76 L2204.2 764.686 L2199.94 764.686 L2199.94 738.76 M2199.94 728.668 L2204.2 728.668 L2204.2 734.061 L2199.94 734.061 L2199.94 728.668 Z" fill="#000000" fill-rule="evenodd" fill-opacity="1" /><path clip-path="url(#clip370)" d="M2223.16 741.746 Q2219.73 741.746 2217.74 744.431 Q2215.75 747.093 2215.75 751.746 Q2215.75 756.399 2217.72 759.084 Q2219.71 761.746 2223.16 761.746 Q2226.56 761.746 2228.55 759.061 Q2230.54 756.376 2230.54 751.746 Q2230.54 747.14 2228.55 744.455 Q2226.56 741.746 2223.16 741.746 M2223.16 738.135 Q2228.71 738.135 2231.88 741.746 Q2235.05 745.357 2235.05 751.746 Q2235.05 758.112 2231.88 761.746 Q2228.71 765.357 2223.16 765.357 Q2217.58 765.357 2214.41 761.746 Q2211.26 758.112 2211.26 751.746 Q2211.26 745.357 2214.41 741.746 Q2217.58 738.135 2223.16 738.135 Z" fill="#000000" fill-rule="evenodd" fill-opacity="1" /></svg>
